<?xml version="1.0" standalone="no"?>
 <!DOCTYPE svg PUBLIC "-//W3C//DTD SVG 1.1//EN" 
 "http://www.w3.org/Graphics/SVG/1.1/DTD/svg11.dtd"> 
<svg
  xmlns:svg="http://www.w3.org/2000/svg"
  xmlns="http://www.w3.org/2000/svg"
  xmlns:xlink="http://www.w3.org/1999/xlink"
  version="1.1"
  width="297.0022mm" height="210.0072mm" viewBox="0.0000 0.0000 297.0022 210.0072">
<title>SVG Image created as mount-F_Fab.svg date 2023/11/07 16:39:24 </title>
  <desc>Image generated by PCBNEW </desc>
<g style="fill:#000000; fill-opacity:1.0000;stroke:#000000; stroke-opacity:1.0000;
stroke-linecap:round; stroke-linejoin:round;"
 transform="translate(0 0) scale(1 1)">
</g>
<g style="fill:#000000; fill-opacity:0.0; 
stroke:#000000; stroke-width:0.0000; stroke-opacity:1; 
stroke-linecap:round; stroke-linejoin:round;">
</g>
<g style="fill:#000000; fill-opacity:0.0; 
stroke:#000000; stroke-width:0.1500; stroke-opacity:1; 
stroke-linecap:round; stroke-linejoin:round;">
<text x="60.9500" y="79.6600"
textLength="9.2976" font-size="1.3333" lengthAdjust="spacingAndGlyphs"
text-anchor="middle" opacity="0">LED (Green)</text>
<g class="stroked-text"><desc>LED (Green)</desc>
<path d="M57.1405 79.6148
L56.6643 79.6148
" />
<path d="M56.6643 79.6148
L56.6643 78.6148
" />
<path d="M57.4738 79.0910
L57.8071 79.0910
" />
<path d="M57.9500 79.6148
L57.4738 79.6148
" />
<path d="M57.4738 79.6148
L57.4738 78.6148
" />
<path d="M57.4738 78.6148
L57.9500 78.6148
" />
<path d="M58.3786 79.6148
L58.3786 78.6148
" />
<path d="M58.3786 78.6148
L58.6167 78.6148
" />
<path d="M58.6167 78.6148
L58.7595 78.6624
" />
<path d="M58.7595 78.6624
L58.8548 78.7577
" />
<path d="M58.8548 78.7577
L58.9024 78.8529
" />
<path d="M58.9024 78.8529
L58.9500 79.0434
" />
<path d="M58.9500 79.0434
L58.9500 79.1862
" />
<path d="M58.9500 79.1862
L58.9024 79.3767
" />
<path d="M58.9024 79.3767
L58.8548 79.4720
" />
<path d="M58.8548 79.4720
L58.7595 79.5672
" />
<path d="M58.7595 79.5672
L58.6167 79.6148
" />
<path d="M58.6167 79.6148
L58.3786 79.6148
" />
<path d="M60.4262 79.9958
L60.3786 79.9482
" />
<path d="M60.3786 79.9482
L60.2833 79.8053
" />
<path d="M60.2833 79.8053
L60.2357 79.7101
" />
<path d="M60.2357 79.7101
L60.1881 79.5672
" />
<path d="M60.1881 79.5672
L60.1405 79.3291
" />
<path d="M60.1405 79.3291
L60.1405 79.1386
" />
<path d="M60.1405 79.1386
L60.1881 78.9005
" />
<path d="M60.1881 78.9005
L60.2357 78.7577
" />
<path d="M60.2357 78.7577
L60.2833 78.6624
" />
<path d="M60.2833 78.6624
L60.3786 78.5196
" />
<path d="M60.3786 78.5196
L60.4262 78.4720
" />
<path d="M61.3310 78.6624
L61.2357 78.6148
" />
<path d="M61.2357 78.6148
L61.0929 78.6148
" />
<path d="M61.0929 78.6148
L60.9500 78.6624
" />
<path d="M60.9500 78.6624
L60.8548 78.7577
" />
<path d="M60.8548 78.7577
L60.8071 78.8529
" />
<path d="M60.8071 78.8529
L60.7595 79.0434
" />
<path d="M60.7595 79.0434
L60.7595 79.1862
" />
<path d="M60.7595 79.1862
L60.8071 79.3767
" />
<path d="M60.8071 79.3767
L60.8548 79.4720
" />
<path d="M60.8548 79.4720
L60.9500 79.5672
" />
<path d="M60.9500 79.5672
L61.0929 79.6148
" />
<path d="M61.0929 79.6148
L61.1881 79.6148
" />
<path d="M61.1881 79.6148
L61.3310 79.5672
" />
<path d="M61.3310 79.5672
L61.3786 79.5196
" />
<path d="M61.3786 79.5196
L61.3786 79.1862
" />
<path d="M61.3786 79.1862
L61.1881 79.1862
" />
<path d="M61.8071 79.6148
L61.8071 78.9482
" />
<path d="M61.8071 79.1386
L61.8548 79.0434
" />
<path d="M61.8548 79.0434
L61.9024 78.9958
" />
<path d="M61.9024 78.9958
L61.9976 78.9482
" />
<path d="M61.9976 78.9482
L62.0929 78.9482
" />
<path d="M62.8071 79.5672
L62.7119 79.6148
" />
<path d="M62.7119 79.6148
L62.5214 79.6148
" />
<path d="M62.5214 79.6148
L62.4262 79.5672
" />
<path d="M62.4262 79.5672
L62.3786 79.4720
" />
<path d="M62.3786 79.4720
L62.3786 79.0910
" />
<path d="M62.3786 79.0910
L62.4262 78.9958
" />
<path d="M62.4262 78.9958
L62.5214 78.9482
" />
<path d="M62.5214 78.9482
L62.7119 78.9482
" />
<path d="M62.7119 78.9482
L62.8071 78.9958
" />
<path d="M62.8071 78.9958
L62.8548 79.0910
" />
<path d="M62.8548 79.0910
L62.8548 79.1862
" />
<path d="M62.8548 79.1862
L62.3786 79.2815
" />
<path d="M63.6643 79.5672
L63.5690 79.6148
" />
<path d="M63.5690 79.6148
L63.3786 79.6148
" />
<path d="M63.3786 79.6148
L63.2833 79.5672
" />
<path d="M63.2833 79.5672
L63.2357 79.4720
" />
<path d="M63.2357 79.4720
L63.2357 79.0910
" />
<path d="M63.2357 79.0910
L63.2833 78.9958
" />
<path d="M63.2833 78.9958
L63.3786 78.9482
" />
<path d="M63.3786 78.9482
L63.5690 78.9482
" />
<path d="M63.5690 78.9482
L63.6643 78.9958
" />
<path d="M63.6643 78.9958
L63.7119 79.0910
" />
<path d="M63.7119 79.0910
L63.7119 79.1862
" />
<path d="M63.7119 79.1862
L63.2357 79.2815
" />
<path d="M64.1405 78.9482
L64.1405 79.6148
" />
<path d="M64.1405 79.0434
L64.1881 78.9958
" />
<path d="M64.1881 78.9958
L64.2833 78.9482
" />
<path d="M64.2833 78.9482
L64.4262 78.9482
" />
<path d="M64.4262 78.9482
L64.5214 78.9958
" />
<path d="M64.5214 78.9958
L64.5690 79.0910
" />
<path d="M64.5690 79.0910
L64.5690 79.6148
" />
<path d="M64.9500 79.9958
L64.9976 79.9482
" />
<path d="M64.9976 79.9482
L65.0929 79.8053
" />
<path d="M65.0929 79.8053
L65.1405 79.7101
" />
<path d="M65.1405 79.7101
L65.1881 79.5672
" />
<path d="M65.1881 79.5672
L65.2357 79.3291
" />
<path d="M65.2357 79.3291
L65.2357 79.1386
" />
<path d="M65.2357 79.1386
L65.1881 78.9005
" />
<path d="M65.1881 78.9005
L65.1405 78.7577
" />
<path d="M65.1405 78.7577
L65.0929 78.6624
" />
<path d="M65.0929 78.6624
L64.9976 78.5196
" />
<path d="M64.9976 78.5196
L64.9500 78.4720
" />
</g><text x="80.7620" y="79.6600"
textLength="9.2976" font-size="1.3333" lengthAdjust="spacingAndGlyphs"
text-anchor="middle" opacity="0">LED (Green)</text>
<g class="stroked-text"><desc>LED (Green)</desc>
<path d="M76.9525 79.6148
L76.4763 79.6148
" />
<path d="M76.4763 79.6148
L76.4763 78.6148
" />
<path d="M77.2858 79.0910
L77.6191 79.0910
" />
<path d="M77.7620 79.6148
L77.2858 79.6148
" />
<path d="M77.2858 79.6148
L77.2858 78.6148
" />
<path d="M77.2858 78.6148
L77.7620 78.6148
" />
<path d="M78.1906 79.6148
L78.1906 78.6148
" />
<path d="M78.1906 78.6148
L78.4287 78.6148
" />
<path d="M78.4287 78.6148
L78.5715 78.6624
" />
<path d="M78.5715 78.6624
L78.6668 78.7577
" />
<path d="M78.6668 78.7577
L78.7144 78.8529
" />
<path d="M78.7144 78.8529
L78.7620 79.0434
" />
<path d="M78.7620 79.0434
L78.7620 79.1862
" />
<path d="M78.7620 79.1862
L78.7144 79.3767
" />
<path d="M78.7144 79.3767
L78.6668 79.4720
" />
<path d="M78.6668 79.4720
L78.5715 79.5672
" />
<path d="M78.5715 79.5672
L78.4287 79.6148
" />
<path d="M78.4287 79.6148
L78.1906 79.6148
" />
<path d="M80.2382 79.9958
L80.1906 79.9482
" />
<path d="M80.1906 79.9482
L80.0953 79.8053
" />
<path d="M80.0953 79.8053
L80.0477 79.7101
" />
<path d="M80.0477 79.7101
L80.0001 79.5672
" />
<path d="M80.0001 79.5672
L79.9525 79.3291
" />
<path d="M79.9525 79.3291
L79.9525 79.1386
" />
<path d="M79.9525 79.1386
L80.0001 78.9005
" />
<path d="M80.0001 78.9005
L80.0477 78.7577
" />
<path d="M80.0477 78.7577
L80.0953 78.6624
" />
<path d="M80.0953 78.6624
L80.1906 78.5196
" />
<path d="M80.1906 78.5196
L80.2382 78.4720
" />
<path d="M81.1430 78.6624
L81.0477 78.6148
" />
<path d="M81.0477 78.6148
L80.9049 78.6148
" />
<path d="M80.9049 78.6148
L80.7620 78.6624
" />
<path d="M80.7620 78.6624
L80.6668 78.7577
" />
<path d="M80.6668 78.7577
L80.6191 78.8529
" />
<path d="M80.6191 78.8529
L80.5715 79.0434
" />
<path d="M80.5715 79.0434
L80.5715 79.1862
" />
<path d="M80.5715 79.1862
L80.6191 79.3767
" />
<path d="M80.6191 79.3767
L80.6668 79.4720
" />
<path d="M80.6668 79.4720
L80.7620 79.5672
" />
<path d="M80.7620 79.5672
L80.9049 79.6148
" />
<path d="M80.9049 79.6148
L81.0001 79.6148
" />
<path d="M81.0001 79.6148
L81.1430 79.5672
" />
<path d="M81.1430 79.5672
L81.1906 79.5196
" />
<path d="M81.1906 79.5196
L81.1906 79.1862
" />
<path d="M81.1906 79.1862
L81.0001 79.1862
" />
<path d="M81.6191 79.6148
L81.6191 78.9482
" />
<path d="M81.6191 79.1386
L81.6668 79.0434
" />
<path d="M81.6668 79.0434
L81.7144 78.9958
" />
<path d="M81.7144 78.9958
L81.8096 78.9482
" />
<path d="M81.8096 78.9482
L81.9049 78.9482
" />
<path d="M82.6191 79.5672
L82.5239 79.6148
" />
<path d="M82.5239 79.6148
L82.3334 79.6148
" />
<path d="M82.3334 79.6148
L82.2382 79.5672
" />
<path d="M82.2382 79.5672
L82.1906 79.4720
" />
<path d="M82.1906 79.4720
L82.1906 79.0910
" />
<path d="M82.1906 79.0910
L82.2382 78.9958
" />
<path d="M82.2382 78.9958
L82.3334 78.9482
" />
<path d="M82.3334 78.9482
L82.5239 78.9482
" />
<path d="M82.5239 78.9482
L82.6191 78.9958
" />
<path d="M82.6191 78.9958
L82.6668 79.0910
" />
<path d="M82.6668 79.0910
L82.6668 79.1862
" />
<path d="M82.6668 79.1862
L82.1906 79.2815
" />
<path d="M83.4763 79.5672
L83.3810 79.6148
" />
<path d="M83.3810 79.6148
L83.1906 79.6148
" />
<path d="M83.1906 79.6148
L83.0953 79.5672
" />
<path d="M83.0953 79.5672
L83.0477 79.4720
" />
<path d="M83.0477 79.4720
L83.0477 79.0910
" />
<path d="M83.0477 79.0910
L83.0953 78.9958
" />
<path d="M83.0953 78.9958
L83.1906 78.9482
" />
<path d="M83.1906 78.9482
L83.3810 78.9482
" />
<path d="M83.3810 78.9482
L83.4763 78.9958
" />
<path d="M83.4763 78.9958
L83.5239 79.0910
" />
<path d="M83.5239 79.0910
L83.5239 79.1862
" />
<path d="M83.5239 79.1862
L83.0477 79.2815
" />
<path d="M83.9525 78.9482
L83.9525 79.6148
" />
<path d="M83.9525 79.0434
L84.0001 78.9958
" />
<path d="M84.0001 78.9958
L84.0953 78.9482
" />
<path d="M84.0953 78.9482
L84.2382 78.9482
" />
<path d="M84.2382 78.9482
L84.3334 78.9958
" />
<path d="M84.3334 78.9958
L84.3810 79.0910
" />
<path d="M84.3810 79.0910
L84.3810 79.6148
" />
<path d="M84.7620 79.9958
L84.8096 79.9482
" />
<path d="M84.8096 79.9482
L84.9049 79.8053
" />
<path d="M84.9049 79.8053
L84.9525 79.7101
" />
<path d="M84.9525 79.7101
L85.0001 79.5672
" />
<path d="M85.0001 79.5672
L85.0477 79.3291
" />
<path d="M85.0477 79.3291
L85.0477 79.1386
" />
<path d="M85.0477 79.1386
L85.0001 78.9005
" />
<path d="M85.0001 78.9005
L84.9525 78.7577
" />
<path d="M84.9525 78.7577
L84.9049 78.6624
" />
<path d="M84.9049 78.6624
L84.8096 78.5196
" />
<path d="M84.8096 78.5196
L84.7620 78.4720
" />
</g><text x="60.9500" y="120.3000"
textLength="9.2976" font-size="1.3333" lengthAdjust="spacingAndGlyphs"
text-anchor="middle" opacity="0">LED (Green)</text>
<g class="stroked-text"><desc>LED (Green)</desc>
<path d="M57.1405 120.2548
L56.6643 120.2548
" />
<path d="M56.6643 120.2548
L56.6643 119.2548
" />
<path d="M57.4738 119.7310
L57.8071 119.7310
" />
<path d="M57.9500 120.2548
L57.4738 120.2548
" />
<path d="M57.4738 120.2548
L57.4738 119.2548
" />
<path d="M57.4738 119.2548
L57.9500 119.2548
" />
<path d="M58.3786 120.2548
L58.3786 119.2548
" />
<path d="M58.3786 119.2548
L58.6167 119.2548
" />
<path d="M58.6167 119.2548
L58.7595 119.3024
" />
<path d="M58.7595 119.3024
L58.8548 119.3977
" />
<path d="M58.8548 119.3977
L58.9024 119.4929
" />
<path d="M58.9024 119.4929
L58.9500 119.6834
" />
<path d="M58.9500 119.6834
L58.9500 119.8262
" />
<path d="M58.9500 119.8262
L58.9024 120.0167
" />
<path d="M58.9024 120.0167
L58.8548 120.1120
" />
<path d="M58.8548 120.1120
L58.7595 120.2072
" />
<path d="M58.7595 120.2072
L58.6167 120.2548
" />
<path d="M58.6167 120.2548
L58.3786 120.2548
" />
<path d="M60.4262 120.6358
L60.3786 120.5882
" />
<path d="M60.3786 120.5882
L60.2833 120.4453
" />
<path d="M60.2833 120.4453
L60.2357 120.3501
" />
<path d="M60.2357 120.3501
L60.1881 120.2072
" />
<path d="M60.1881 120.2072
L60.1405 119.9691
" />
<path d="M60.1405 119.9691
L60.1405 119.7786
" />
<path d="M60.1405 119.7786
L60.1881 119.5405
" />
<path d="M60.1881 119.5405
L60.2357 119.3977
" />
<path d="M60.2357 119.3977
L60.2833 119.3024
" />
<path d="M60.2833 119.3024
L60.3786 119.1596
" />
<path d="M60.3786 119.1596
L60.4262 119.1120
" />
<path d="M61.3310 119.3024
L61.2357 119.2548
" />
<path d="M61.2357 119.2548
L61.0929 119.2548
" />
<path d="M61.0929 119.2548
L60.9500 119.3024
" />
<path d="M60.9500 119.3024
L60.8548 119.3977
" />
<path d="M60.8548 119.3977
L60.8071 119.4929
" />
<path d="M60.8071 119.4929
L60.7595 119.6834
" />
<path d="M60.7595 119.6834
L60.7595 119.8262
" />
<path d="M60.7595 119.8262
L60.8071 120.0167
" />
<path d="M60.8071 120.0167
L60.8548 120.1120
" />
<path d="M60.8548 120.1120
L60.9500 120.2072
" />
<path d="M60.9500 120.2072
L61.0929 120.2548
" />
<path d="M61.0929 120.2548
L61.1881 120.2548
" />
<path d="M61.1881 120.2548
L61.3310 120.2072
" />
<path d="M61.3310 120.2072
L61.3786 120.1596
" />
<path d="M61.3786 120.1596
L61.3786 119.8262
" />
<path d="M61.3786 119.8262
L61.1881 119.8262
" />
<path d="M61.8071 120.2548
L61.8071 119.5882
" />
<path d="M61.8071 119.7786
L61.8548 119.6834
" />
<path d="M61.8548 119.6834
L61.9024 119.6358
" />
<path d="M61.9024 119.6358
L61.9976 119.5882
" />
<path d="M61.9976 119.5882
L62.0929 119.5882
" />
<path d="M62.8071 120.2072
L62.7119 120.2548
" />
<path d="M62.7119 120.2548
L62.5214 120.2548
" />
<path d="M62.5214 120.2548
L62.4262 120.2072
" />
<path d="M62.4262 120.2072
L62.3786 120.1120
" />
<path d="M62.3786 120.1120
L62.3786 119.7310
" />
<path d="M62.3786 119.7310
L62.4262 119.6358
" />
<path d="M62.4262 119.6358
L62.5214 119.5882
" />
<path d="M62.5214 119.5882
L62.7119 119.5882
" />
<path d="M62.7119 119.5882
L62.8071 119.6358
" />
<path d="M62.8071 119.6358
L62.8548 119.7310
" />
<path d="M62.8548 119.7310
L62.8548 119.8262
" />
<path d="M62.8548 119.8262
L62.3786 119.9215
" />
<path d="M63.6643 120.2072
L63.5690 120.2548
" />
<path d="M63.5690 120.2548
L63.3786 120.2548
" />
<path d="M63.3786 120.2548
L63.2833 120.2072
" />
<path d="M63.2833 120.2072
L63.2357 120.1120
" />
<path d="M63.2357 120.1120
L63.2357 119.7310
" />
<path d="M63.2357 119.7310
L63.2833 119.6358
" />
<path d="M63.2833 119.6358
L63.3786 119.5882
" />
<path d="M63.3786 119.5882
L63.5690 119.5882
" />
<path d="M63.5690 119.5882
L63.6643 119.6358
" />
<path d="M63.6643 119.6358
L63.7119 119.7310
" />
<path d="M63.7119 119.7310
L63.7119 119.8262
" />
<path d="M63.7119 119.8262
L63.2357 119.9215
" />
<path d="M64.1405 119.5882
L64.1405 120.2548
" />
<path d="M64.1405 119.6834
L64.1881 119.6358
" />
<path d="M64.1881 119.6358
L64.2833 119.5882
" />
<path d="M64.2833 119.5882
L64.4262 119.5882
" />
<path d="M64.4262 119.5882
L64.5214 119.6358
" />
<path d="M64.5214 119.6358
L64.5690 119.7310
" />
<path d="M64.5690 119.7310
L64.5690 120.2548
" />
<path d="M64.9500 120.6358
L64.9976 120.5882
" />
<path d="M64.9976 120.5882
L65.0929 120.4453
" />
<path d="M65.0929 120.4453
L65.1405 120.3501
" />
<path d="M65.1405 120.3501
L65.1881 120.2072
" />
<path d="M65.1881 120.2072
L65.2357 119.9691
" />
<path d="M65.2357 119.9691
L65.2357 119.7786
" />
<path d="M65.2357 119.7786
L65.1881 119.5405
" />
<path d="M65.1881 119.5405
L65.1405 119.3977
" />
<path d="M65.1405 119.3977
L65.0929 119.3024
" />
<path d="M65.0929 119.3024
L64.9976 119.1596
" />
<path d="M64.9976 119.1596
L64.9500 119.1120
" />
</g><text x="81.2800" y="120.3000"
textLength="9.2976" font-size="1.3333" lengthAdjust="spacingAndGlyphs"
text-anchor="middle" opacity="0">LED (Green)</text>
<g class="stroked-text"><desc>LED (Green)</desc>
<path d="M77.4705 120.2548
L76.9943 120.2548
" />
<path d="M76.9943 120.2548
L76.9943 119.2548
" />
<path d="M77.8038 119.7310
L78.1371 119.7310
" />
<path d="M78.2800 120.2548
L77.8038 120.2548
" />
<path d="M77.8038 120.2548
L77.8038 119.2548
" />
<path d="M77.8038 119.2548
L78.2800 119.2548
" />
<path d="M78.7086 120.2548
L78.7086 119.2548
" />
<path d="M78.7086 119.2548
L78.9467 119.2548
" />
<path d="M78.9467 119.2548
L79.0895 119.3024
" />
<path d="M79.0895 119.3024
L79.1848 119.3977
" />
<path d="M79.1848 119.3977
L79.2324 119.4929
" />
<path d="M79.2324 119.4929
L79.2800 119.6834
" />
<path d="M79.2800 119.6834
L79.2800 119.8262
" />
<path d="M79.2800 119.8262
L79.2324 120.0167
" />
<path d="M79.2324 120.0167
L79.1848 120.1120
" />
<path d="M79.1848 120.1120
L79.0895 120.2072
" />
<path d="M79.0895 120.2072
L78.9467 120.2548
" />
<path d="M78.9467 120.2548
L78.7086 120.2548
" />
<path d="M80.7562 120.6358
L80.7086 120.5882
" />
<path d="M80.7086 120.5882
L80.6133 120.4453
" />
<path d="M80.6133 120.4453
L80.5657 120.3501
" />
<path d="M80.5657 120.3501
L80.5181 120.2072
" />
<path d="M80.5181 120.2072
L80.4705 119.9691
" />
<path d="M80.4705 119.9691
L80.4705 119.7786
" />
<path d="M80.4705 119.7786
L80.5181 119.5405
" />
<path d="M80.5181 119.5405
L80.5657 119.3977
" />
<path d="M80.5657 119.3977
L80.6133 119.3024
" />
<path d="M80.6133 119.3024
L80.7086 119.1596
" />
<path d="M80.7086 119.1596
L80.7562 119.1120
" />
<path d="M81.6610 119.3024
L81.5657 119.2548
" />
<path d="M81.5657 119.2548
L81.4229 119.2548
" />
<path d="M81.4229 119.2548
L81.2800 119.3024
" />
<path d="M81.2800 119.3024
L81.1848 119.3977
" />
<path d="M81.1848 119.3977
L81.1371 119.4929
" />
<path d="M81.1371 119.4929
L81.0895 119.6834
" />
<path d="M81.0895 119.6834
L81.0895 119.8262
" />
<path d="M81.0895 119.8262
L81.1371 120.0167
" />
<path d="M81.1371 120.0167
L81.1848 120.1120
" />
<path d="M81.1848 120.1120
L81.2800 120.2072
" />
<path d="M81.2800 120.2072
L81.4229 120.2548
" />
<path d="M81.4229 120.2548
L81.5181 120.2548
" />
<path d="M81.5181 120.2548
L81.6610 120.2072
" />
<path d="M81.6610 120.2072
L81.7086 120.1596
" />
<path d="M81.7086 120.1596
L81.7086 119.8262
" />
<path d="M81.7086 119.8262
L81.5181 119.8262
" />
<path d="M82.1371 120.2548
L82.1371 119.5882
" />
<path d="M82.1371 119.7786
L82.1848 119.6834
" />
<path d="M82.1848 119.6834
L82.2324 119.6358
" />
<path d="M82.2324 119.6358
L82.3276 119.5882
" />
<path d="M82.3276 119.5882
L82.4229 119.5882
" />
<path d="M83.1371 120.2072
L83.0419 120.2548
" />
<path d="M83.0419 120.2548
L82.8514 120.2548
" />
<path d="M82.8514 120.2548
L82.7562 120.2072
" />
<path d="M82.7562 120.2072
L82.7086 120.1120
" />
<path d="M82.7086 120.1120
L82.7086 119.7310
" />
<path d="M82.7086 119.7310
L82.7562 119.6358
" />
<path d="M82.7562 119.6358
L82.8514 119.5882
" />
<path d="M82.8514 119.5882
L83.0419 119.5882
" />
<path d="M83.0419 119.5882
L83.1371 119.6358
" />
<path d="M83.1371 119.6358
L83.1848 119.7310
" />
<path d="M83.1848 119.7310
L83.1848 119.8262
" />
<path d="M83.1848 119.8262
L82.7086 119.9215
" />
<path d="M83.9943 120.2072
L83.8990 120.2548
" />
<path d="M83.8990 120.2548
L83.7086 120.2548
" />
<path d="M83.7086 120.2548
L83.6133 120.2072
" />
<path d="M83.6133 120.2072
L83.5657 120.1120
" />
<path d="M83.5657 120.1120
L83.5657 119.7310
" />
<path d="M83.5657 119.7310
L83.6133 119.6358
" />
<path d="M83.6133 119.6358
L83.7086 119.5882
" />
<path d="M83.7086 119.5882
L83.8990 119.5882
" />
<path d="M83.8990 119.5882
L83.9943 119.6358
" />
<path d="M83.9943 119.6358
L84.0419 119.7310
" />
<path d="M84.0419 119.7310
L84.0419 119.8262
" />
<path d="M84.0419 119.8262
L83.5657 119.9215
" />
<path d="M84.4705 119.5882
L84.4705 120.2548
" />
<path d="M84.4705 119.6834
L84.5181 119.6358
" />
<path d="M84.5181 119.6358
L84.6133 119.5882
" />
<path d="M84.6133 119.5882
L84.7562 119.5882
" />
<path d="M84.7562 119.5882
L84.8514 119.6358
" />
<path d="M84.8514 119.6358
L84.8990 119.7310
" />
<path d="M84.8990 119.7310
L84.8990 120.2548
" />
<path d="M85.2800 120.6358
L85.3276 120.5882
" />
<path d="M85.3276 120.5882
L85.4229 120.4453
" />
<path d="M85.4229 120.4453
L85.4705 120.3501
" />
<path d="M85.4705 120.3501
L85.5181 120.2072
" />
<path d="M85.5181 120.2072
L85.5657 119.9691
" />
<path d="M85.5657 119.9691
L85.5657 119.7786
" />
<path d="M85.5657 119.7786
L85.5181 119.5405
" />
<path d="M85.5181 119.5405
L85.4705 119.3977
" />
<path d="M85.4705 119.3977
L85.4229 119.3024
" />
<path d="M85.4229 119.3024
L85.3276 119.1596
" />
<path d="M85.3276 119.1596
L85.2800 119.1120
" />
</g><text x="81.2900" y="159.9240"
textLength="7.8214" font-size="1.3333" lengthAdjust="spacingAndGlyphs"
text-anchor="middle" opacity="0">LED (Red)</text>
<g class="stroked-text"><desc>LED (Red)</desc>
<path d="M78.2186 159.8788
L77.7424 159.8788
" />
<path d="M77.7424 159.8788
L77.7424 158.8788
" />
<path d="M78.5519 159.3550
L78.8852 159.3550
" />
<path d="M79.0281 159.8788
L78.5519 159.8788
" />
<path d="M78.5519 159.8788
L78.5519 158.8788
" />
<path d="M78.5519 158.8788
L79.0281 158.8788
" />
<path d="M79.4567 159.8788
L79.4567 158.8788
" />
<path d="M79.4567 158.8788
L79.6948 158.8788
" />
<path d="M79.6948 158.8788
L79.8376 158.9264
" />
<path d="M79.8376 158.9264
L79.9329 159.0217
" />
<path d="M79.9329 159.0217
L79.9805 159.1169
" />
<path d="M79.9805 159.1169
L80.0281 159.3074
" />
<path d="M80.0281 159.3074
L80.0281 159.4502
" />
<path d="M80.0281 159.4502
L79.9805 159.6407
" />
<path d="M79.9805 159.6407
L79.9329 159.7360
" />
<path d="M79.9329 159.7360
L79.8376 159.8312
" />
<path d="M79.8376 159.8312
L79.6948 159.8788
" />
<path d="M79.6948 159.8788
L79.4567 159.8788
" />
<path d="M81.5043 160.2598
L81.4567 160.2122
" />
<path d="M81.4567 160.2122
L81.3614 160.0693
" />
<path d="M81.3614 160.0693
L81.3138 159.9741
" />
<path d="M81.3138 159.9741
L81.2662 159.8312
" />
<path d="M81.2662 159.8312
L81.2186 159.5931
" />
<path d="M81.2186 159.5931
L81.2186 159.4026
" />
<path d="M81.2186 159.4026
L81.2662 159.1645
" />
<path d="M81.2662 159.1645
L81.3138 159.0217
" />
<path d="M81.3138 159.0217
L81.3614 158.9264
" />
<path d="M81.3614 158.9264
L81.4567 158.7836
" />
<path d="M81.4567 158.7836
L81.5043 158.7360
" />
<path d="M82.4567 159.8788
L82.1233 159.4026
" />
<path d="M81.8852 159.8788
L81.8852 158.8788
" />
<path d="M81.8852 158.8788
L82.2662 158.8788
" />
<path d="M82.2662 158.8788
L82.3614 158.9264
" />
<path d="M82.3614 158.9264
L82.4090 158.9741
" />
<path d="M82.4090 158.9741
L82.4567 159.0693
" />
<path d="M82.4567 159.0693
L82.4567 159.2122
" />
<path d="M82.4567 159.2122
L82.4090 159.3074
" />
<path d="M82.4090 159.3074
L82.3614 159.3550
" />
<path d="M82.3614 159.3550
L82.2662 159.4026
" />
<path d="M82.2662 159.4026
L81.8852 159.4026
" />
<path d="M83.2662 159.8312
L83.1710 159.8788
" />
<path d="M83.1710 159.8788
L82.9805 159.8788
" />
<path d="M82.9805 159.8788
L82.8852 159.8312
" />
<path d="M82.8852 159.8312
L82.8376 159.7360
" />
<path d="M82.8376 159.7360
L82.8376 159.3550
" />
<path d="M82.8376 159.3550
L82.8852 159.2598
" />
<path d="M82.8852 159.2598
L82.9805 159.2122
" />
<path d="M82.9805 159.2122
L83.1710 159.2122
" />
<path d="M83.1710 159.2122
L83.2662 159.2598
" />
<path d="M83.2662 159.2598
L83.3138 159.3550
" />
<path d="M83.3138 159.3550
L83.3138 159.4502
" />
<path d="M83.3138 159.4502
L82.8376 159.5455
" />
<path d="M84.1710 159.8788
L84.1710 158.8788
" />
<path d="M84.1710 159.8312
L84.0757 159.8788
" />
<path d="M84.0757 159.8788
L83.8852 159.8788
" />
<path d="M83.8852 159.8788
L83.7900 159.8312
" />
<path d="M83.7900 159.8312
L83.7424 159.7836
" />
<path d="M83.7424 159.7836
L83.6948 159.6883
" />
<path d="M83.6948 159.6883
L83.6948 159.4026
" />
<path d="M83.6948 159.4026
L83.7424 159.3074
" />
<path d="M83.7424 159.3074
L83.7900 159.2598
" />
<path d="M83.7900 159.2598
L83.8852 159.2122
" />
<path d="M83.8852 159.2122
L84.0757 159.2122
" />
<path d="M84.0757 159.2122
L84.1710 159.2598
" />
<path d="M84.5519 160.2598
L84.5995 160.2122
" />
<path d="M84.5995 160.2122
L84.6948 160.0693
" />
<path d="M84.6948 160.0693
L84.7424 159.9741
" />
<path d="M84.7424 159.9741
L84.7900 159.8312
" />
<path d="M84.7900 159.8312
L84.8376 159.5931
" />
<path d="M84.8376 159.5931
L84.8376 159.4026
" />
<path d="M84.8376 159.4026
L84.7900 159.1645
" />
<path d="M84.7900 159.1645
L84.7424 159.0217
" />
<path d="M84.7424 159.0217
L84.6948 158.9264
" />
<path d="M84.6948 158.9264
L84.5995 158.7836
" />
<path d="M84.5995 158.7836
L84.5519 158.7360
" />
</g><text x="60.9700" y="159.9240"
textLength="7.8214" font-size="1.3333" lengthAdjust="spacingAndGlyphs"
text-anchor="middle" opacity="0">LED (Red)</text>
<g class="stroked-text"><desc>LED (Red)</desc>
<path d="M57.8986 159.8788
L57.4224 159.8788
" />
<path d="M57.4224 159.8788
L57.4224 158.8788
" />
<path d="M58.2319 159.3550
L58.5652 159.3550
" />
<path d="M58.7081 159.8788
L58.2319 159.8788
" />
<path d="M58.2319 159.8788
L58.2319 158.8788
" />
<path d="M58.2319 158.8788
L58.7081 158.8788
" />
<path d="M59.1367 159.8788
L59.1367 158.8788
" />
<path d="M59.1367 158.8788
L59.3748 158.8788
" />
<path d="M59.3748 158.8788
L59.5176 158.9264
" />
<path d="M59.5176 158.9264
L59.6129 159.0217
" />
<path d="M59.6129 159.0217
L59.6605 159.1169
" />
<path d="M59.6605 159.1169
L59.7081 159.3074
" />
<path d="M59.7081 159.3074
L59.7081 159.4502
" />
<path d="M59.7081 159.4502
L59.6605 159.6407
" />
<path d="M59.6605 159.6407
L59.6129 159.7360
" />
<path d="M59.6129 159.7360
L59.5176 159.8312
" />
<path d="M59.5176 159.8312
L59.3748 159.8788
" />
<path d="M59.3748 159.8788
L59.1367 159.8788
" />
<path d="M61.1843 160.2598
L61.1367 160.2122
" />
<path d="M61.1367 160.2122
L61.0414 160.0693
" />
<path d="M61.0414 160.0693
L60.9938 159.9741
" />
<path d="M60.9938 159.9741
L60.9462 159.8312
" />
<path d="M60.9462 159.8312
L60.8986 159.5931
" />
<path d="M60.8986 159.5931
L60.8986 159.4026
" />
<path d="M60.8986 159.4026
L60.9462 159.1645
" />
<path d="M60.9462 159.1645
L60.9938 159.0217
" />
<path d="M60.9938 159.0217
L61.0414 158.9264
" />
<path d="M61.0414 158.9264
L61.1367 158.7836
" />
<path d="M61.1367 158.7836
L61.1843 158.7360
" />
<path d="M62.1367 159.8788
L61.8033 159.4026
" />
<path d="M61.5652 159.8788
L61.5652 158.8788
" />
<path d="M61.5652 158.8788
L61.9462 158.8788
" />
<path d="M61.9462 158.8788
L62.0414 158.9264
" />
<path d="M62.0414 158.9264
L62.0890 158.9741
" />
<path d="M62.0890 158.9741
L62.1367 159.0693
" />
<path d="M62.1367 159.0693
L62.1367 159.2122
" />
<path d="M62.1367 159.2122
L62.0890 159.3074
" />
<path d="M62.0890 159.3074
L62.0414 159.3550
" />
<path d="M62.0414 159.3550
L61.9462 159.4026
" />
<path d="M61.9462 159.4026
L61.5652 159.4026
" />
<path d="M62.9462 159.8312
L62.8510 159.8788
" />
<path d="M62.8510 159.8788
L62.6605 159.8788
" />
<path d="M62.6605 159.8788
L62.5652 159.8312
" />
<path d="M62.5652 159.8312
L62.5176 159.7360
" />
<path d="M62.5176 159.7360
L62.5176 159.3550
" />
<path d="M62.5176 159.3550
L62.5652 159.2598
" />
<path d="M62.5652 159.2598
L62.6605 159.2122
" />
<path d="M62.6605 159.2122
L62.8510 159.2122
" />
<path d="M62.8510 159.2122
L62.9462 159.2598
" />
<path d="M62.9462 159.2598
L62.9938 159.3550
" />
<path d="M62.9938 159.3550
L62.9938 159.4502
" />
<path d="M62.9938 159.4502
L62.5176 159.5455
" />
<path d="M63.8510 159.8788
L63.8510 158.8788
" />
<path d="M63.8510 159.8312
L63.7557 159.8788
" />
<path d="M63.7557 159.8788
L63.5652 159.8788
" />
<path d="M63.5652 159.8788
L63.4700 159.8312
" />
<path d="M63.4700 159.8312
L63.4224 159.7836
" />
<path d="M63.4224 159.7836
L63.3748 159.6883
" />
<path d="M63.3748 159.6883
L63.3748 159.4026
" />
<path d="M63.3748 159.4026
L63.4224 159.3074
" />
<path d="M63.4224 159.3074
L63.4700 159.2598
" />
<path d="M63.4700 159.2598
L63.5652 159.2122
" />
<path d="M63.5652 159.2122
L63.7557 159.2122
" />
<path d="M63.7557 159.2122
L63.8510 159.2598
" />
<path d="M64.2319 160.2598
L64.2795 160.2122
" />
<path d="M64.2795 160.2122
L64.3748 160.0693
" />
<path d="M64.3748 160.0693
L64.4224 159.9741
" />
<path d="M64.4224 159.9741
L64.4700 159.8312
" />
<path d="M64.4700 159.8312
L64.5176 159.5931
" />
<path d="M64.5176 159.5931
L64.5176 159.4026
" />
<path d="M64.5176 159.4026
L64.4700 159.1645
" />
<path d="M64.4700 159.1645
L64.4224 159.0217
" />
<path d="M64.4224 159.0217
L64.3748 158.9264
" />
<path d="M64.3748 158.9264
L64.2795 158.7836
" />
<path d="M64.2795 158.7836
L64.2319 158.7360
" />
</g><text x="60.9600" y="65.0600"
textLength="3.4881" font-size="1.3333" lengthAdjust="spacingAndGlyphs"
text-anchor="middle" opacity="0">IN_X</text>
<g class="stroked-text"><desc>IN_X</desc>
<path d="M59.5790 65.0148
L59.5790 64.0148
" />
<path d="M60.0552 65.0148
L60.0552 64.0148
" />
<path d="M60.0552 64.0148
L60.6267 65.0148
" />
<path d="M60.6267 65.0148
L60.6267 64.0148
" />
<path d="M60.8648 65.1101
L61.6267 65.1101
" />
<path d="M61.7695 64.0148
L62.4362 65.0148
" />
<path d="M62.4362 64.0148
L61.7695 65.0148
" />
</g><text x="60.9600" y="68.0600"
textLength="1.9643" font-size="1.3333" lengthAdjust="spacingAndGlyphs"
text-anchor="middle" opacity="0">J1</text>
<g class="stroked-text"><desc>J1</desc>
<path d="M60.6267 67.0148
L60.6267 67.7291
" />
<path d="M60.6267 67.7291
L60.5790 67.8720
" />
<path d="M60.5790 67.8720
L60.4838 67.9672
" />
<path d="M60.4838 67.9672
L60.3410 68.0148
" />
<path d="M60.3410 68.0148
L60.2457 68.0148
" />
<path d="M61.6267 68.0148
L61.0552 68.0148
" />
<path d="M61.3410 68.0148
L61.3410 67.0148
" />
<path d="M61.3410 67.0148
L61.2457 67.1577
" />
<path d="M61.2457 67.1577
L61.1505 67.2529
" />
<path d="M61.1505 67.2529
L61.0552 67.3005
" />
</g><text x="60.9600" y="105.7000"
textLength="3.3929" font-size="1.3333" lengthAdjust="spacingAndGlyphs"
text-anchor="middle" opacity="0">IN_Y</text>
<g class="stroked-text"><desc>IN_Y</desc>
<path d="M59.6267 105.6548
L59.6267 104.6548
" />
<path d="M60.1029 105.6548
L60.1029 104.6548
" />
<path d="M60.1029 104.6548
L60.6743 105.6548
" />
<path d="M60.6743 105.6548
L60.6743 104.6548
" />
<path d="M60.9124 105.7501
L61.6743 105.7501
" />
<path d="M62.1029 105.1786
L62.1029 105.6548
" />
<path d="M61.7695 104.6548
L62.1029 105.1786
" />
<path d="M62.1029 105.1786
L62.4362 104.6548
" />
</g><text x="60.9600" y="108.7000"
textLength="1.9643" font-size="1.3333" lengthAdjust="spacingAndGlyphs"
text-anchor="middle" opacity="0">J2</text>
<g class="stroked-text"><desc>J2</desc>
<path d="M60.6267 107.6548
L60.6267 108.3691
" />
<path d="M60.6267 108.3691
L60.5790 108.5120
" />
<path d="M60.5790 108.5120
L60.4838 108.6072
" />
<path d="M60.4838 108.6072
L60.3410 108.6548
" />
<path d="M60.3410 108.6548
L60.2457 108.6548
" />
<path d="M61.0552 107.7501
L61.1029 107.7024
" />
<path d="M61.1029 107.7024
L61.1981 107.6548
" />
<path d="M61.1981 107.6548
L61.4362 107.6548
" />
<path d="M61.4362 107.6548
L61.5314 107.7024
" />
<path d="M61.5314 107.7024
L61.5790 107.7501
" />
<path d="M61.5790 107.7501
L61.6267 107.8453
" />
<path d="M61.6267 107.8453
L61.6267 107.9405
" />
<path d="M61.6267 107.9405
L61.5790 108.0834
" />
<path d="M61.5790 108.0834
L61.0076 108.6548
" />
<path d="M61.0076 108.6548
L61.6267 108.6548
" />
</g><text x="60.9600" y="146.3400"
textLength="3.1071" font-size="1.3333" lengthAdjust="spacingAndGlyphs"
text-anchor="middle" opacity="0">OUT</text>
<g class="stroked-text"><desc>OUT</desc>
<path d="M59.9600 145.2948
L60.1505 145.2948
" />
<path d="M60.1505 145.2948
L60.2457 145.3424
" />
<path d="M60.2457 145.3424
L60.3410 145.4377
" />
<path d="M60.3410 145.4377
L60.3886 145.6282
" />
<path d="M60.3886 145.6282
L60.3886 145.9615
" />
<path d="M60.3886 145.9615
L60.3410 146.1520
" />
<path d="M60.3410 146.1520
L60.2457 146.2472
" />
<path d="M60.2457 146.2472
L60.1505 146.2948
" />
<path d="M60.1505 146.2948
L59.9600 146.2948
" />
<path d="M59.9600 146.2948
L59.8648 146.2472
" />
<path d="M59.8648 146.2472
L59.7695 146.1520
" />
<path d="M59.7695 146.1520
L59.7219 145.9615
" />
<path d="M59.7219 145.9615
L59.7219 145.6282
" />
<path d="M59.7219 145.6282
L59.7695 145.4377
" />
<path d="M59.7695 145.4377
L59.8648 145.3424
" />
<path d="M59.8648 145.3424
L59.9600 145.2948
" />
<path d="M60.8171 145.2948
L60.8171 146.1043
" />
<path d="M60.8171 146.1043
L60.8648 146.1996
" />
<path d="M60.8648 146.1996
L60.9124 146.2472
" />
<path d="M60.9124 146.2472
L61.0076 146.2948
" />
<path d="M61.0076 146.2948
L61.1981 146.2948
" />
<path d="M61.1981 146.2948
L61.2933 146.2472
" />
<path d="M61.2933 146.2472
L61.3410 146.1996
" />
<path d="M61.3410 146.1996
L61.3886 146.1043
" />
<path d="M61.3886 146.1043
L61.3886 145.2948
" />
<path d="M61.7219 145.2948
L62.2933 145.2948
" />
<path d="M62.0076 146.2948
L62.0076 145.2948
" />
</g><text x="60.9600" y="149.3400"
textLength="1.9643" font-size="1.3333" lengthAdjust="spacingAndGlyphs"
text-anchor="middle" opacity="0">J3</text>
<g class="stroked-text"><desc>J3</desc>
<path d="M60.6267 148.2948
L60.6267 149.0091
" />
<path d="M60.6267 149.0091
L60.5790 149.1520
" />
<path d="M60.5790 149.1520
L60.4838 149.2472
" />
<path d="M60.4838 149.2472
L60.3410 149.2948
" />
<path d="M60.3410 149.2948
L60.2457 149.2948
" />
<path d="M61.0076 148.2948
L61.6267 148.2948
" />
<path d="M61.6267 148.2948
L61.2933 148.6758
" />
<path d="M61.2933 148.6758
L61.4362 148.6758
" />
<path d="M61.4362 148.6758
L61.5314 148.7234
" />
<path d="M61.5314 148.7234
L61.5790 148.7710
" />
<path d="M61.5790 148.7710
L61.6267 148.8662
" />
<path d="M61.6267 148.8662
L61.6267 149.1043
" />
<path d="M61.6267 149.1043
L61.5790 149.1996
" />
<path d="M61.5790 149.1996
L61.5314 149.2472
" />
<path d="M61.5314 149.2472
L61.4362 149.2948
" />
<path d="M61.4362 149.2948
L61.1505 149.2948
" />
<path d="M61.1505 149.2948
L61.0552 149.2472
" />
<path d="M61.0552 149.2472
L61.0076 149.1996
" />
</g><text x="81.2800" y="65.0600"
textLength="3.4881" font-size="1.3333" lengthAdjust="spacingAndGlyphs"
text-anchor="middle" opacity="0">IN_X</text>
<g class="stroked-text"><desc>IN_X</desc>
<path d="M79.8990 65.0148
L79.8990 64.0148
" />
<path d="M80.3752 65.0148
L80.3752 64.0148
" />
<path d="M80.3752 64.0148
L80.9467 65.0148
" />
<path d="M80.9467 65.0148
L80.9467 64.0148
" />
<path d="M81.1848 65.1101
L81.9467 65.1101
" />
<path d="M82.0895 64.0148
L82.7562 65.0148
" />
<path d="M82.7562 64.0148
L82.0895 65.0148
" />
</g><text x="81.2800" y="68.0600"
textLength="1.9643" font-size="1.3333" lengthAdjust="spacingAndGlyphs"
text-anchor="middle" opacity="0">J5</text>
<g class="stroked-text"><desc>J5</desc>
<path d="M80.9467 67.0148
L80.9467 67.7291
" />
<path d="M80.9467 67.7291
L80.8990 67.8720
" />
<path d="M80.8990 67.8720
L80.8038 67.9672
" />
<path d="M80.8038 67.9672
L80.6610 68.0148
" />
<path d="M80.6610 68.0148
L80.5657 68.0148
" />
<path d="M81.8990 67.0148
L81.4229 67.0148
" />
<path d="M81.4229 67.0148
L81.3752 67.4910
" />
<path d="M81.3752 67.4910
L81.4229 67.4434
" />
<path d="M81.4229 67.4434
L81.5181 67.3958
" />
<path d="M81.5181 67.3958
L81.7562 67.3958
" />
<path d="M81.7562 67.3958
L81.8514 67.4434
" />
<path d="M81.8514 67.4434
L81.8990 67.4910
" />
<path d="M81.8990 67.4910
L81.9467 67.5862
" />
<path d="M81.9467 67.5862
L81.9467 67.8243
" />
<path d="M81.9467 67.8243
L81.8990 67.9196
" />
<path d="M81.8990 67.9196
L81.8514 67.9672
" />
<path d="M81.8514 67.9672
L81.7562 68.0148
" />
<path d="M81.7562 68.0148
L81.5181 68.0148
" />
<path d="M81.5181 68.0148
L81.4229 67.9672
" />
<path d="M81.4229 67.9672
L81.3752 67.9196
" />
</g><text x="81.2800" y="105.8600"
textLength="3.3929" font-size="1.3333" lengthAdjust="spacingAndGlyphs"
text-anchor="middle" opacity="0">IN_Y</text>
<g class="stroked-text"><desc>IN_Y</desc>
<path d="M79.9467 105.8148
L79.9467 104.8148
" />
<path d="M80.4229 105.8148
L80.4229 104.8148
" />
<path d="M80.4229 104.8148
L80.9943 105.8148
" />
<path d="M80.9943 105.8148
L80.9943 104.8148
" />
<path d="M81.2324 105.9101
L81.9943 105.9101
" />
<path d="M82.4229 105.3386
L82.4229 105.8148
" />
<path d="M82.0895 104.8148
L82.4229 105.3386
" />
<path d="M82.4229 105.3386
L82.7562 104.8148
" />
</g><text x="81.2800" y="108.8600"
textLength="1.9643" font-size="1.3333" lengthAdjust="spacingAndGlyphs"
text-anchor="middle" opacity="0">J6</text>
<g class="stroked-text"><desc>J6</desc>
<path d="M80.9467 107.8148
L80.9467 108.5291
" />
<path d="M80.9467 108.5291
L80.8990 108.6720
" />
<path d="M80.8990 108.6720
L80.8038 108.7672
" />
<path d="M80.8038 108.7672
L80.6610 108.8148
" />
<path d="M80.6610 108.8148
L80.5657 108.8148
" />
<path d="M81.8514 107.8148
L81.6610 107.8148
" />
<path d="M81.6610 107.8148
L81.5657 107.8624
" />
<path d="M81.5657 107.8624
L81.5181 107.9101
" />
<path d="M81.5181 107.9101
L81.4229 108.0529
" />
<path d="M81.4229 108.0529
L81.3752 108.2434
" />
<path d="M81.3752 108.2434
L81.3752 108.6243
" />
<path d="M81.3752 108.6243
L81.4229 108.7196
" />
<path d="M81.4229 108.7196
L81.4705 108.7672
" />
<path d="M81.4705 108.7672
L81.5657 108.8148
" />
<path d="M81.5657 108.8148
L81.7562 108.8148
" />
<path d="M81.7562 108.8148
L81.8514 108.7672
" />
<path d="M81.8514 108.7672
L81.8990 108.7196
" />
<path d="M81.8990 108.7196
L81.9467 108.6243
" />
<path d="M81.9467 108.6243
L81.9467 108.3862
" />
<path d="M81.9467 108.3862
L81.8990 108.2910
" />
<path d="M81.8990 108.2910
L81.8514 108.2434
" />
<path d="M81.8514 108.2434
L81.7562 108.1958
" />
<path d="M81.7562 108.1958
L81.5657 108.1958
" />
<path d="M81.5657 108.1958
L81.4705 108.2434
" />
<path d="M81.4705 108.2434
L81.4229 108.2910
" />
<path d="M81.4229 108.2910
L81.3752 108.3862
" />
</g><text x="81.2800" y="146.3400"
textLength="3.1071" font-size="1.3333" lengthAdjust="spacingAndGlyphs"
text-anchor="middle" opacity="0">OUT</text>
<g class="stroked-text"><desc>OUT</desc>
<path d="M80.2800 145.2948
L80.4705 145.2948
" />
<path d="M80.4705 145.2948
L80.5657 145.3424
" />
<path d="M80.5657 145.3424
L80.6610 145.4377
" />
<path d="M80.6610 145.4377
L80.7086 145.6282
" />
<path d="M80.7086 145.6282
L80.7086 145.9615
" />
<path d="M80.7086 145.9615
L80.6610 146.1520
" />
<path d="M80.6610 146.1520
L80.5657 146.2472
" />
<path d="M80.5657 146.2472
L80.4705 146.2948
" />
<path d="M80.4705 146.2948
L80.2800 146.2948
" />
<path d="M80.2800 146.2948
L80.1848 146.2472
" />
<path d="M80.1848 146.2472
L80.0895 146.1520
" />
<path d="M80.0895 146.1520
L80.0419 145.9615
" />
<path d="M80.0419 145.9615
L80.0419 145.6282
" />
<path d="M80.0419 145.6282
L80.0895 145.4377
" />
<path d="M80.0895 145.4377
L80.1848 145.3424
" />
<path d="M80.1848 145.3424
L80.2800 145.2948
" />
<path d="M81.1371 145.2948
L81.1371 146.1043
" />
<path d="M81.1371 146.1043
L81.1848 146.1996
" />
<path d="M81.1848 146.1996
L81.2324 146.2472
" />
<path d="M81.2324 146.2472
L81.3276 146.2948
" />
<path d="M81.3276 146.2948
L81.5181 146.2948
" />
<path d="M81.5181 146.2948
L81.6133 146.2472
" />
<path d="M81.6133 146.2472
L81.6610 146.1996
" />
<path d="M81.6610 146.1996
L81.7086 146.1043
" />
<path d="M81.7086 146.1043
L81.7086 145.2948
" />
<path d="M82.0419 145.2948
L82.6133 145.2948
" />
<path d="M82.3276 146.2948
L82.3276 145.2948
" />
</g><text x="81.2800" y="149.3400"
textLength="1.9643" font-size="1.3333" lengthAdjust="spacingAndGlyphs"
text-anchor="middle" opacity="0">J7</text>
<g class="stroked-text"><desc>J7</desc>
<path d="M80.9467 148.2948
L80.9467 149.0091
" />
<path d="M80.9467 149.0091
L80.8990 149.1520
" />
<path d="M80.8990 149.1520
L80.8038 149.2472
" />
<path d="M80.8038 149.2472
L80.6610 149.2948
" />
<path d="M80.6610 149.2948
L80.5657 149.2948
" />
<path d="M81.3276 148.2948
L81.9943 148.2948
" />
<path d="M81.9943 148.2948
L81.5657 149.2948
" />
</g><g transform="rotate(-90.000000 51.9280 148.8440)">
<text x="51.9280" y="149.3440"
textLength="2.0119" font-size="1.3333" lengthAdjust="spacingAndGlyphs"
text-anchor="middle" opacity="0">1k</text>
</g>
<g class="stroked-text"><desc>1k</desc>
<path d="M52.3828 148.9630
L52.3828 149.5345
" />
<path d="M52.3828 149.2488
L51.3828 149.2488
" />
<path d="M51.3828 149.2488
L51.5257 149.3440
" />
<path d="M51.5257 149.3440
L51.6209 149.4392
" />
<path d="M51.6209 149.4392
L51.6685 149.5345
" />
<path d="M52.3828 148.5345
L51.3828 148.5345
" />
<path d="M52.0019 148.4392
L52.3828 148.1535
" />
<path d="M51.7162 148.1535
L52.0971 148.5345
" />
</g></g>
<g style="fill:#000000; fill-opacity:0.0; 
stroke:#000000; stroke-width:0.1080; stroke-opacity:1; 
stroke-linecap:round; stroke-linejoin:round;">
<g transform="rotate(-90.000000 53.8480 148.8440)">
<text x="53.8480" y="149.2040"
textLength="1.5857" font-size="0.9600" lengthAdjust="spacingAndGlyphs"
text-anchor="middle" opacity="0">R1</text>
</g>
<g class="stroked-text"><desc>R1</desc>
<path d="M54.1755 148.9640
L53.8326 149.2040
" />
<path d="M54.1755 149.3754
L53.4555 149.3754
" />
<path d="M53.4555 149.3754
L53.4555 149.1011
" />
<path d="M53.4555 149.1011
L53.4898 149.0326
" />
<path d="M53.4898 149.0326
L53.5240 148.9983
" />
<path d="M53.5240 148.9983
L53.5926 148.9640
" />
<path d="M53.5926 148.9640
L53.6955 148.9640
" />
<path d="M53.6955 148.9640
L53.7640 148.9983
" />
<path d="M53.7640 148.9983
L53.7983 149.0326
" />
<path d="M53.7983 149.0326
L53.8326 149.1011
" />
<path d="M53.8326 149.1011
L53.8326 149.3754
" />
<path d="M54.1755 148.2783
L54.1755 148.6897
" />
<path d="M54.1755 148.4840
L53.4555 148.4840
" />
<path d="M53.4555 148.4840
L53.5583 148.5526
" />
<path d="M53.5583 148.5526
L53.6269 148.6211
" />
<path d="M53.6269 148.6211
L53.6612 148.6897
" />
</g></g>
<g style="fill:#000000; fill-opacity:0.0; 
stroke:#000000; stroke-width:0.1500; stroke-opacity:1; 
stroke-linecap:round; stroke-linejoin:round;">
<g transform="rotate(-90.000000 71.2320 149.3520)">
<text x="71.2320" y="149.8520"
textLength="2.0119" font-size="1.3333" lengthAdjust="spacingAndGlyphs"
text-anchor="middle" opacity="0">1k</text>
</g>
<g class="stroked-text"><desc>1k</desc>
<path d="M71.6868 149.4710
L71.6868 150.0425
" />
<path d="M71.6868 149.7568
L70.6868 149.7568
" />
<path d="M70.6868 149.7568
L70.8297 149.8520
" />
<path d="M70.8297 149.8520
L70.9249 149.9472
" />
<path d="M70.9249 149.9472
L70.9725 150.0425
" />
<path d="M71.6868 149.0425
L70.6868 149.0425
" />
<path d="M71.3059 148.9472
L71.6868 148.6615
" />
<path d="M71.0202 148.6615
L71.4011 149.0425
" />
</g></g>
<g style="fill:#000000; fill-opacity:0.0; 
stroke:#000000; stroke-width:0.1080; stroke-opacity:1; 
stroke-linecap:round; stroke-linejoin:round;">
<g transform="rotate(-90.000000 73.1520 149.3520)">
<text x="73.1520" y="149.7120"
textLength="1.5857" font-size="0.9600" lengthAdjust="spacingAndGlyphs"
text-anchor="middle" opacity="0">R2</text>
</g>
<g class="stroked-text"><desc>R2</desc>
<path d="M73.4795 149.4720
L73.1366 149.7120
" />
<path d="M73.4795 149.8834
L72.7595 149.8834
" />
<path d="M72.7595 149.8834
L72.7595 149.6091
" />
<path d="M72.7595 149.6091
L72.7938 149.5406
" />
<path d="M72.7938 149.5406
L72.8280 149.5063
" />
<path d="M72.8280 149.5063
L72.8966 149.4720
" />
<path d="M72.8966 149.4720
L72.9995 149.4720
" />
<path d="M72.9995 149.4720
L73.0680 149.5063
" />
<path d="M73.0680 149.5063
L73.1023 149.5406
" />
<path d="M73.1023 149.5406
L73.1366 149.6091
" />
<path d="M73.1366 149.6091
L73.1366 149.8834
" />
<path d="M72.8280 149.1977
L72.7938 149.1634
" />
<path d="M72.7938 149.1634
L72.7595 149.0949
" />
<path d="M72.7595 149.0949
L72.7595 148.9234
" />
<path d="M72.7595 148.9234
L72.7938 148.8549
" />
<path d="M72.7938 148.8549
L72.8280 148.8206
" />
<path d="M72.8280 148.8206
L72.8966 148.7863
" />
<path d="M72.8966 148.7863
L72.9652 148.7863
" />
<path d="M72.9652 148.7863
L73.0680 148.8206
" />
<path d="M73.0680 148.8206
L73.4795 149.2320
" />
<path d="M73.4795 149.2320
L73.4795 148.7863
" />
</g></g>
<g style="fill:#000000; fill-opacity:0.0; 
stroke:#000000; stroke-width:0.1500; stroke-opacity:1; 
stroke-linecap:round; stroke-linejoin:round;">
<g transform="rotate(-90.000000 68.2800 93.8600)">
<text x="68.2800" y="94.3600"
textLength="3.9167" font-size="1.3333" lengthAdjust="spacingAndGlyphs"
text-anchor="middle" opacity="0">100k</text>
</g>
<g class="stroked-text"><desc>100k</desc>
<path d="M68.7348 94.9314
L68.7348 95.5029
" />
<path d="M68.7348 95.2171
L67.7348 95.2171
" />
<path d="M67.7348 95.2171
L67.8777 95.3124
" />
<path d="M67.8777 95.3124
L67.9729 95.4076
" />
<path d="M67.9729 95.4076
L68.0205 95.5029
" />
<path d="M67.7348 94.3124
L67.7348 94.2171
" />
<path d="M67.7348 94.2171
L67.7824 94.1219
" />
<path d="M67.7824 94.1219
L67.8301 94.0743
" />
<path d="M67.8301 94.0743
L67.9253 94.0267
" />
<path d="M67.9253 94.0267
L68.1158 93.9790
" />
<path d="M68.1158 93.9790
L68.3539 93.9790
" />
<path d="M68.3539 93.9790
L68.5443 94.0267
" />
<path d="M68.5443 94.0267
L68.6396 94.0743
" />
<path d="M68.6396 94.0743
L68.6872 94.1219
" />
<path d="M68.6872 94.1219
L68.7348 94.2171
" />
<path d="M68.7348 94.2171
L68.7348 94.3124
" />
<path d="M68.7348 94.3124
L68.6872 94.4076
" />
<path d="M68.6872 94.4076
L68.6396 94.4552
" />
<path d="M68.6396 94.4552
L68.5443 94.5029
" />
<path d="M68.5443 94.5029
L68.3539 94.5505
" />
<path d="M68.3539 94.5505
L68.1158 94.5505
" />
<path d="M68.1158 94.5505
L67.9253 94.5029
" />
<path d="M67.9253 94.5029
L67.8301 94.4552
" />
<path d="M67.8301 94.4552
L67.7824 94.4076
" />
<path d="M67.7824 94.4076
L67.7348 94.3124
" />
<path d="M67.7348 93.3600
L67.7348 93.2648
" />
<path d="M67.7348 93.2648
L67.7824 93.1695
" />
<path d="M67.7824 93.1695
L67.8301 93.1219
" />
<path d="M67.8301 93.1219
L67.9253 93.0743
" />
<path d="M67.9253 93.0743
L68.1158 93.0267
" />
<path d="M68.1158 93.0267
L68.3539 93.0267
" />
<path d="M68.3539 93.0267
L68.5443 93.0743
" />
<path d="M68.5443 93.0743
L68.6396 93.1219
" />
<path d="M68.6396 93.1219
L68.6872 93.1695
" />
<path d="M68.6872 93.1695
L68.7348 93.2648
" />
<path d="M68.7348 93.2648
L68.7348 93.3600
" />
<path d="M68.7348 93.3600
L68.6872 93.4552
" />
<path d="M68.6872 93.4552
L68.6396 93.5029
" />
<path d="M68.6396 93.5029
L68.5443 93.5505
" />
<path d="M68.5443 93.5505
L68.3539 93.5981
" />
<path d="M68.3539 93.5981
L68.1158 93.5981
" />
<path d="M68.1158 93.5981
L67.9253 93.5505
" />
<path d="M67.9253 93.5505
L67.8301 93.5029
" />
<path d="M67.8301 93.5029
L67.7824 93.4552
" />
<path d="M67.7824 93.4552
L67.7348 93.3600
" />
<path d="M68.7348 92.5981
L67.7348 92.5981
" />
<path d="M68.3539 92.5029
L68.7348 92.2171
" />
<path d="M68.0682 92.2171
L68.4491 92.5981
" />
</g><g transform="rotate(-90.000000 60.9600 86.2400)">
<text x="60.9600" y="86.7400"
textLength="3.0595" font-size="1.3333" lengthAdjust="spacingAndGlyphs"
text-anchor="middle" opacity="0">RV1</text>
</g>
<g class="stroked-text"><desc>RV1</desc>
<path d="M61.4148 86.8352
L60.9386 87.1686
" />
<path d="M61.4148 87.4067
L60.4148 87.4067
" />
<path d="M60.4148 87.4067
L60.4148 87.0257
" />
<path d="M60.4148 87.0257
L60.4624 86.9305
" />
<path d="M60.4624 86.9305
L60.5101 86.8829
" />
<path d="M60.5101 86.8829
L60.6053 86.8352
" />
<path d="M60.6053 86.8352
L60.7482 86.8352
" />
<path d="M60.7482 86.8352
L60.8434 86.8829
" />
<path d="M60.8434 86.8829
L60.8910 86.9305
" />
<path d="M60.8910 86.9305
L60.9386 87.0257
" />
<path d="M60.9386 87.0257
L60.9386 87.4067
" />
<path d="M60.4148 86.5495
L61.4148 86.2162
" />
<path d="M61.4148 86.2162
L60.4148 85.8829
" />
<path d="M61.4148 85.0257
L61.4148 85.5971
" />
<path d="M61.4148 85.3114
L60.4148 85.3114
" />
<path d="M60.4148 85.3114
L60.5577 85.4067
" />
<path d="M60.5577 85.4067
L60.6529 85.5019
" />
<path d="M60.6529 85.5019
L60.7005 85.5971
" />
</g><g transform="rotate(-90.000000 68.2800 134.5000)">
<text x="68.2800" y="135.0000"
textLength="3.9167" font-size="1.3333" lengthAdjust="spacingAndGlyphs"
text-anchor="middle" opacity="0">100k</text>
</g>
<g class="stroked-text"><desc>100k</desc>
<path d="M68.7348 135.5714
L68.7348 136.1429
" />
<path d="M68.7348 135.8571
L67.7348 135.8571
" />
<path d="M67.7348 135.8571
L67.8777 135.9524
" />
<path d="M67.8777 135.9524
L67.9729 136.0476
" />
<path d="M67.9729 136.0476
L68.0205 136.1429
" />
<path d="M67.7348 134.9524
L67.7348 134.8571
" />
<path d="M67.7348 134.8571
L67.7824 134.7619
" />
<path d="M67.7824 134.7619
L67.8301 134.7143
" />
<path d="M67.8301 134.7143
L67.9253 134.6667
" />
<path d="M67.9253 134.6667
L68.1158 134.6190
" />
<path d="M68.1158 134.6190
L68.3539 134.6190
" />
<path d="M68.3539 134.6190
L68.5443 134.6667
" />
<path d="M68.5443 134.6667
L68.6396 134.7143
" />
<path d="M68.6396 134.7143
L68.6872 134.7619
" />
<path d="M68.6872 134.7619
L68.7348 134.8571
" />
<path d="M68.7348 134.8571
L68.7348 134.9524
" />
<path d="M68.7348 134.9524
L68.6872 135.0476
" />
<path d="M68.6872 135.0476
L68.6396 135.0952
" />
<path d="M68.6396 135.0952
L68.5443 135.1429
" />
<path d="M68.5443 135.1429
L68.3539 135.1905
" />
<path d="M68.3539 135.1905
L68.1158 135.1905
" />
<path d="M68.1158 135.1905
L67.9253 135.1429
" />
<path d="M67.9253 135.1429
L67.8301 135.0952
" />
<path d="M67.8301 135.0952
L67.7824 135.0476
" />
<path d="M67.7824 135.0476
L67.7348 134.9524
" />
<path d="M67.7348 134.0000
L67.7348 133.9048
" />
<path d="M67.7348 133.9048
L67.7824 133.8095
" />
<path d="M67.7824 133.8095
L67.8301 133.7619
" />
<path d="M67.8301 133.7619
L67.9253 133.7143
" />
<path d="M67.9253 133.7143
L68.1158 133.6667
" />
<path d="M68.1158 133.6667
L68.3539 133.6667
" />
<path d="M68.3539 133.6667
L68.5443 133.7143
" />
<path d="M68.5443 133.7143
L68.6396 133.7619
" />
<path d="M68.6396 133.7619
L68.6872 133.8095
" />
<path d="M68.6872 133.8095
L68.7348 133.9048
" />
<path d="M68.7348 133.9048
L68.7348 134.0000
" />
<path d="M68.7348 134.0000
L68.6872 134.0952
" />
<path d="M68.6872 134.0952
L68.6396 134.1429
" />
<path d="M68.6396 134.1429
L68.5443 134.1905
" />
<path d="M68.5443 134.1905
L68.3539 134.2381
" />
<path d="M68.3539 134.2381
L68.1158 134.2381
" />
<path d="M68.1158 134.2381
L67.9253 134.1905
" />
<path d="M67.9253 134.1905
L67.8301 134.1429
" />
<path d="M67.8301 134.1429
L67.7824 134.0952
" />
<path d="M67.7824 134.0952
L67.7348 134.0000
" />
<path d="M68.7348 133.2381
L67.7348 133.2381
" />
<path d="M68.3539 133.1429
L68.7348 132.8571
" />
<path d="M68.0682 132.8571
L68.4491 133.2381
" />
</g><g transform="rotate(-90.000000 60.9600 126.8800)">
<text x="60.9600" y="127.3800"
textLength="3.0595" font-size="1.3333" lengthAdjust="spacingAndGlyphs"
text-anchor="middle" opacity="0">RV2</text>
</g>
<g class="stroked-text"><desc>RV2</desc>
<path d="M61.4148 127.4752
L60.9386 127.8086
" />
<path d="M61.4148 128.0467
L60.4148 128.0467
" />
<path d="M60.4148 128.0467
L60.4148 127.6657
" />
<path d="M60.4148 127.6657
L60.4624 127.5705
" />
<path d="M60.4624 127.5705
L60.5101 127.5229
" />
<path d="M60.5101 127.5229
L60.6053 127.4752
" />
<path d="M60.6053 127.4752
L60.7482 127.4752
" />
<path d="M60.7482 127.4752
L60.8434 127.5229
" />
<path d="M60.8434 127.5229
L60.8910 127.5705
" />
<path d="M60.8910 127.5705
L60.9386 127.6657
" />
<path d="M60.9386 127.6657
L60.9386 128.0467
" />
<path d="M60.4148 127.1895
L61.4148 126.8562
" />
<path d="M61.4148 126.8562
L60.4148 126.5229
" />
<path d="M60.5101 126.2371
L60.4624 126.1895
" />
<path d="M60.4624 126.1895
L60.4148 126.0943
" />
<path d="M60.4148 126.0943
L60.4148 125.8562
" />
<path d="M60.4148 125.8562
L60.4624 125.7610
" />
<path d="M60.4624 125.7610
L60.5101 125.7133
" />
<path d="M60.5101 125.7133
L60.6053 125.6657
" />
<path d="M60.6053 125.6657
L60.7005 125.6657
" />
<path d="M60.7005 125.6657
L60.8434 125.7133
" />
<path d="M60.8434 125.7133
L61.4148 126.2848
" />
<path d="M61.4148 126.2848
L61.4148 125.6657
" />
</g><g transform="rotate(-90.000000 88.6000 93.8600)">
<text x="88.6000" y="94.3600"
textLength="3.9167" font-size="1.3333" lengthAdjust="spacingAndGlyphs"
text-anchor="middle" opacity="0">100k</text>
</g>
<g class="stroked-text"><desc>100k</desc>
<path d="M89.0548 94.9314
L89.0548 95.5029
" />
<path d="M89.0548 95.2171
L88.0548 95.2171
" />
<path d="M88.0548 95.2171
L88.1977 95.3124
" />
<path d="M88.1977 95.3124
L88.2929 95.4076
" />
<path d="M88.2929 95.4076
L88.3405 95.5029
" />
<path d="M88.0548 94.3124
L88.0548 94.2171
" />
<path d="M88.0548 94.2171
L88.1024 94.1219
" />
<path d="M88.1024 94.1219
L88.1501 94.0743
" />
<path d="M88.1501 94.0743
L88.2453 94.0267
" />
<path d="M88.2453 94.0267
L88.4358 93.9790
" />
<path d="M88.4358 93.9790
L88.6739 93.9790
" />
<path d="M88.6739 93.9790
L88.8643 94.0267
" />
<path d="M88.8643 94.0267
L88.9596 94.0743
" />
<path d="M88.9596 94.0743
L89.0072 94.1219
" />
<path d="M89.0072 94.1219
L89.0548 94.2171
" />
<path d="M89.0548 94.2171
L89.0548 94.3124
" />
<path d="M89.0548 94.3124
L89.0072 94.4076
" />
<path d="M89.0072 94.4076
L88.9596 94.4552
" />
<path d="M88.9596 94.4552
L88.8643 94.5029
" />
<path d="M88.8643 94.5029
L88.6739 94.5505
" />
<path d="M88.6739 94.5505
L88.4358 94.5505
" />
<path d="M88.4358 94.5505
L88.2453 94.5029
" />
<path d="M88.2453 94.5029
L88.1501 94.4552
" />
<path d="M88.1501 94.4552
L88.1024 94.4076
" />
<path d="M88.1024 94.4076
L88.0548 94.3124
" />
<path d="M88.0548 93.3600
L88.0548 93.2648
" />
<path d="M88.0548 93.2648
L88.1024 93.1695
" />
<path d="M88.1024 93.1695
L88.1501 93.1219
" />
<path d="M88.1501 93.1219
L88.2453 93.0743
" />
<path d="M88.2453 93.0743
L88.4358 93.0267
" />
<path d="M88.4358 93.0267
L88.6739 93.0267
" />
<path d="M88.6739 93.0267
L88.8643 93.0743
" />
<path d="M88.8643 93.0743
L88.9596 93.1219
" />
<path d="M88.9596 93.1219
L89.0072 93.1695
" />
<path d="M89.0072 93.1695
L89.0548 93.2648
" />
<path d="M89.0548 93.2648
L89.0548 93.3600
" />
<path d="M89.0548 93.3600
L89.0072 93.4552
" />
<path d="M89.0072 93.4552
L88.9596 93.5029
" />
<path d="M88.9596 93.5029
L88.8643 93.5505
" />
<path d="M88.8643 93.5505
L88.6739 93.5981
" />
<path d="M88.6739 93.5981
L88.4358 93.5981
" />
<path d="M88.4358 93.5981
L88.2453 93.5505
" />
<path d="M88.2453 93.5505
L88.1501 93.5029
" />
<path d="M88.1501 93.5029
L88.1024 93.4552
" />
<path d="M88.1024 93.4552
L88.0548 93.3600
" />
<path d="M89.0548 92.5981
L88.0548 92.5981
" />
<path d="M88.6739 92.5029
L89.0548 92.2171
" />
<path d="M88.3882 92.2171
L88.7691 92.5981
" />
</g><g transform="rotate(-90.000000 81.2800 86.2400)">
<text x="81.2800" y="86.7400"
textLength="3.0595" font-size="1.3333" lengthAdjust="spacingAndGlyphs"
text-anchor="middle" opacity="0">RV3</text>
</g>
<g class="stroked-text"><desc>RV3</desc>
<path d="M81.7348 86.8352
L81.2586 87.1686
" />
<path d="M81.7348 87.4067
L80.7348 87.4067
" />
<path d="M80.7348 87.4067
L80.7348 87.0257
" />
<path d="M80.7348 87.0257
L80.7824 86.9305
" />
<path d="M80.7824 86.9305
L80.8301 86.8829
" />
<path d="M80.8301 86.8829
L80.9253 86.8352
" />
<path d="M80.9253 86.8352
L81.0682 86.8352
" />
<path d="M81.0682 86.8352
L81.1634 86.8829
" />
<path d="M81.1634 86.8829
L81.2110 86.9305
" />
<path d="M81.2110 86.9305
L81.2586 87.0257
" />
<path d="M81.2586 87.0257
L81.2586 87.4067
" />
<path d="M80.7348 86.5495
L81.7348 86.2162
" />
<path d="M81.7348 86.2162
L80.7348 85.8829
" />
<path d="M80.7348 85.6448
L80.7348 85.0257
" />
<path d="M80.7348 85.0257
L81.1158 85.3590
" />
<path d="M81.1158 85.3590
L81.1158 85.2162
" />
<path d="M81.1158 85.2162
L81.1634 85.1210
" />
<path d="M81.1634 85.1210
L81.2110 85.0733
" />
<path d="M81.2110 85.0733
L81.3062 85.0257
" />
<path d="M81.3062 85.0257
L81.5443 85.0257
" />
<path d="M81.5443 85.0257
L81.6396 85.0733
" />
<path d="M81.6396 85.0733
L81.6872 85.1210
" />
<path d="M81.6872 85.1210
L81.7348 85.2162
" />
<path d="M81.7348 85.2162
L81.7348 85.5019
" />
<path d="M81.7348 85.5019
L81.6872 85.5971
" />
<path d="M81.6872 85.5971
L81.6396 85.6448
" />
</g><g transform="rotate(-90.000000 88.6000 134.5000)">
<text x="88.6000" y="135.0000"
textLength="3.9167" font-size="1.3333" lengthAdjust="spacingAndGlyphs"
text-anchor="middle" opacity="0">100k</text>
</g>
<g class="stroked-text"><desc>100k</desc>
<path d="M89.0548 135.5714
L89.0548 136.1429
" />
<path d="M89.0548 135.8571
L88.0548 135.8571
" />
<path d="M88.0548 135.8571
L88.1977 135.9524
" />
<path d="M88.1977 135.9524
L88.2929 136.0476
" />
<path d="M88.2929 136.0476
L88.3405 136.1429
" />
<path d="M88.0548 134.9524
L88.0548 134.8571
" />
<path d="M88.0548 134.8571
L88.1024 134.7619
" />
<path d="M88.1024 134.7619
L88.1501 134.7143
" />
<path d="M88.1501 134.7143
L88.2453 134.6667
" />
<path d="M88.2453 134.6667
L88.4358 134.6190
" />
<path d="M88.4358 134.6190
L88.6739 134.6190
" />
<path d="M88.6739 134.6190
L88.8643 134.6667
" />
<path d="M88.8643 134.6667
L88.9596 134.7143
" />
<path d="M88.9596 134.7143
L89.0072 134.7619
" />
<path d="M89.0072 134.7619
L89.0548 134.8571
" />
<path d="M89.0548 134.8571
L89.0548 134.9524
" />
<path d="M89.0548 134.9524
L89.0072 135.0476
" />
<path d="M89.0072 135.0476
L88.9596 135.0952
" />
<path d="M88.9596 135.0952
L88.8643 135.1429
" />
<path d="M88.8643 135.1429
L88.6739 135.1905
" />
<path d="M88.6739 135.1905
L88.4358 135.1905
" />
<path d="M88.4358 135.1905
L88.2453 135.1429
" />
<path d="M88.2453 135.1429
L88.1501 135.0952
" />
<path d="M88.1501 135.0952
L88.1024 135.0476
" />
<path d="M88.1024 135.0476
L88.0548 134.9524
" />
<path d="M88.0548 134.0000
L88.0548 133.9048
" />
<path d="M88.0548 133.9048
L88.1024 133.8095
" />
<path d="M88.1024 133.8095
L88.1501 133.7619
" />
<path d="M88.1501 133.7619
L88.2453 133.7143
" />
<path d="M88.2453 133.7143
L88.4358 133.6667
" />
<path d="M88.4358 133.6667
L88.6739 133.6667
" />
<path d="M88.6739 133.6667
L88.8643 133.7143
" />
<path d="M88.8643 133.7143
L88.9596 133.7619
" />
<path d="M88.9596 133.7619
L89.0072 133.8095
" />
<path d="M89.0072 133.8095
L89.0548 133.9048
" />
<path d="M89.0548 133.9048
L89.0548 134.0000
" />
<path d="M89.0548 134.0000
L89.0072 134.0952
" />
<path d="M89.0072 134.0952
L88.9596 134.1429
" />
<path d="M88.9596 134.1429
L88.8643 134.1905
" />
<path d="M88.8643 134.1905
L88.6739 134.2381
" />
<path d="M88.6739 134.2381
L88.4358 134.2381
" />
<path d="M88.4358 134.2381
L88.2453 134.1905
" />
<path d="M88.2453 134.1905
L88.1501 134.1429
" />
<path d="M88.1501 134.1429
L88.1024 134.0952
" />
<path d="M88.1024 134.0952
L88.0548 134.0000
" />
<path d="M89.0548 133.2381
L88.0548 133.2381
" />
<path d="M88.6739 133.1429
L89.0548 132.8571
" />
<path d="M88.3882 132.8571
L88.7691 133.2381
" />
</g><g transform="rotate(-90.000000 81.2800 126.8800)">
<text x="81.2800" y="127.3800"
textLength="3.0595" font-size="1.3333" lengthAdjust="spacingAndGlyphs"
text-anchor="middle" opacity="0">RV4</text>
</g>
<g class="stroked-text"><desc>RV4</desc>
<path d="M81.7348 127.4752
L81.2586 127.8086
" />
<path d="M81.7348 128.0467
L80.7348 128.0467
" />
<path d="M80.7348 128.0467
L80.7348 127.6657
" />
<path d="M80.7348 127.6657
L80.7824 127.5705
" />
<path d="M80.7824 127.5705
L80.8301 127.5229
" />
<path d="M80.8301 127.5229
L80.9253 127.4752
" />
<path d="M80.9253 127.4752
L81.0682 127.4752
" />
<path d="M81.0682 127.4752
L81.1634 127.5229
" />
<path d="M81.1634 127.5229
L81.2110 127.5705
" />
<path d="M81.2110 127.5705
L81.2586 127.6657
" />
<path d="M81.2586 127.6657
L81.2586 128.0467
" />
<path d="M80.7348 127.1895
L81.7348 126.8562
" />
<path d="M81.7348 126.8562
L80.7348 126.5229
" />
<path d="M81.0682 125.7610
L81.7348 125.7610
" />
<path d="M80.6872 125.9990
L81.4015 126.2371
" />
<path d="M81.4015 126.2371
L81.4015 125.6181
" />
</g></g>
<g style="fill:#000000; fill-opacity:0.0; 
stroke:#000000; stroke-width:0.1000; stroke-opacity:1; 
stroke-linecap:round; stroke-linejoin:round;">
<path d="M59.4500 75.0338
L59.4500 77.3662
" />
<path d="M59.4494 77.3655 A1.9000 1.9000 0.0 1 0 59.4500 75.0338" />
<circle cx="60.9500" cy="76.2000" r="1.5000" /> 
<path d="M79.2620 75.0338
L79.2620 77.3662
" />
<path d="M79.2614 77.3655 A1.9000 1.9000 0.0 1 0 79.2620 75.0338" />
<circle cx="80.7620" cy="76.2000" r="1.5000" /> 
<path d="M59.4500 115.6738
L59.4500 118.0062
" />
<path d="M59.4494 118.0055 A1.9000 1.9000 0.0 1 0 59.4500 115.6738" />
<circle cx="60.9500" cy="116.8400" r="1.5000" /> 
<path d="M79.7800 115.6738
L79.7800 118.0062
" />
<path d="M79.7794 118.0055 A1.9000 1.9000 0.0 1 0 79.7800 115.6738" />
<circle cx="81.2800" cy="116.8400" r="1.5000" /> 
<path d="M79.7900 155.2978
L79.7900 157.6302
" />
<path d="M79.7894 157.6295 A1.9000 1.9000 0.0 1 0 79.7900 155.2978" />
<circle cx="81.2900" cy="156.4640" r="1.5000" /> 
<path d="M59.4700 155.2978
L59.4700 157.6302
" />
<path d="M59.4694 157.6295 A1.9000 1.9000 0.0 1 0 59.4700 155.2978" />
<circle cx="60.9700" cy="156.4640" r="1.5000" /> 
<path d="M60.9600 59.5600
L60.9600 61.5900
" />
<circle cx="60.9600" cy="66.0400" r="1.8000" /> 
<path d="M60.9600 100.2000
L60.9600 102.2300
" />
<circle cx="60.9600" cy="106.6800" r="1.8000" /> 
<path d="M60.9600 140.8400
L60.9600 142.8700
" />
<circle cx="60.9600" cy="147.3200" r="1.8000" /> 
<path d="M81.2800 59.5600
L81.2800 61.5900
" />
<circle cx="81.2800" cy="66.0400" r="1.8000" /> 
<path d="M81.2800 100.3600
L81.2800 102.3900
" />
<circle cx="81.2800" cy="106.8400" r="1.8000" /> 
<path d="M81.2800 140.8400
L81.2800 142.8700
" />
<circle cx="81.2800" cy="147.3200" r="1.8000" /> 
<path d="M53.8480 146.3040
L53.8480 147.0440
" />
<path d="M54.6480 147.0440
L53.0480 147.0440
" />
<path d="M53.0480 147.0440
L53.0480 150.6440
" />
<path d="M54.6480 150.6440
L54.6480 147.0440
" />
<path d="M53.0480 150.6440
L54.6480 150.6440
" />
<path d="M53.8480 151.3840
L53.8480 150.6440
" />
<path d="M73.1520 146.8120
L73.1520 147.5520
" />
<path d="M73.9520 147.5520
L72.3520 147.5520
" />
<path d="M72.3520 147.5520
L72.3520 151.1520
" />
<path d="M73.9520 151.1520
L73.9520 147.5520
" />
<path d="M72.3520 151.1520
L73.9520 151.1520
" />
<path d="M73.1520 151.8920
L73.1520 151.1520
" />
<path d="M56.1700 92.8600
L56.1700 81.5100
" />
<path d="M65.6700 92.8600
L56.1700 92.8600
" />
<path d="M65.6700 92.8600
L65.6700 81.5100
" />
<path d="M65.6700 81.5100
L56.1700 81.5100
" />
<circle cx="60.9200" cy="86.3600" r="3.5000" /> 
<path d="M56.1700 133.5000
L56.1700 122.1500
" />
<path d="M65.6700 133.5000
L56.1700 133.5000
" />
<path d="M65.6700 133.5000
L65.6700 122.1500
" />
<path d="M65.6700 122.1500
L56.1700 122.1500
" />
<circle cx="60.9200" cy="127.0000" r="3.5000" /> 
<path d="M76.4900 92.8600
L76.4900 81.5100
" />
<path d="M85.9900 92.8600
L76.4900 92.8600
" />
<path d="M85.9900 92.8600
L85.9900 81.5100
" />
<path d="M85.9900 81.5100
L76.4900 81.5100
" />
<circle cx="81.2400" cy="86.3600" r="3.5000" /> 
<path d="M76.4900 133.5000
L76.4900 122.1500
" />
<path d="M85.9900 133.5000
L76.4900 133.5000
" />
<path d="M85.9900 133.5000
L85.9900 122.1500
" />
<path d="M85.9900 122.1500
L76.4900 122.1500
" />
<circle cx="81.2400" cy="127.0000" r="3.5000" /> 
<g >
</g>
<g >
</g>
<g >
</g>
<g >
</g>
<g >
</g>
<g >
</g>
<g >
</g>
<g >
</g>
<g >
</g>
<g >
</g>
<g >
</g>
<g >
</g>
<g >
</g>
<g >
</g>
<g >
</g>
<g >
</g>
<g >
</g>
<g >
</g>
<g >
</g>
<g >
</g>
<g >
</g>
<g >
</g>
<g >
</g>
<g >
</g>
<g >
</g>
<g >
</g>
<g >
</g>
<g >
</g>
<g >
</g>
<g >
</g>
<g >
</g>
<g >
</g>
<g >
</g>
<g >
</g>
<g >
</g>
<g >
</g>
<g >
</g>
<g >
</g>
<g >
</g>
<g >
</g>
<g >
</g>
<g >
</g>
<g >
</g>
<g >
</g>
<g >
</g>
<g >
</g>
<g >
</g>
<g >
</g>
<g >
</g>
<g >
</g>
<g >
</g>
<g >
</g>
</g> 
</svg>
