<!DOCTYPE svg PUBLIC "-//W3C//DTD SVG 1.1//EN" "http://www.w3.org/Graphics/SVG/1.1/DTD/svg11.dtd">
<svg xmlns="http://www.w3.org/2000/svg" version="1.1" width="4.0423501cm" height="13.3552501cm" viewBox="0 0 15914 52579">
            <title>Picture generated by PcbDraw </title>
            <desc>Picture generated by PcbDraw</desc>
        <g transform="translate(-9975, -9977)" id="boardContainer"><g clip-path="url(#cut-off)" mask="url(#hole-mask)"><defs><clipPath id="cut-off"><path d=" M 10000.0 10000.0 L 25866.0 10000.0 L 25866.0 62519.0 L 10000.0 62519.0 L 10000.0 10000.0 " style="fill-rule: evenodd;"/></clipPath></defs><g id="substrate-board" style="fill:#f0f0f0; stroke:#f0f0f0;"><path d=" M 10000.0 10000.0 L 25866.0 10000.0 L 25866.0 62519.0 L 10000.0 62519.0 L 10000.0 10000.0 " style="fill-rule: evenodd;"/><g style="fill:#000000; stroke: #000000;"><g style="fill-opacity:1; stroke-opacity:1; stroke-linecap:round; stroke-linejoin:round;" transform="translate(0 0) scale(1 1)">
</g>
<g style="fill-opacity:0.0; stroke-width:-0.000393701; stroke-opacity:1; stroke-linecap:round; stroke-linejoin:round;">
</g>
<g style="fill-opacity:0.0; stroke-width:47.2441; stroke-opacity:1; stroke-linecap:round; stroke-linejoin:round;">
<path d="M25866 62519 L10000 62519 "/>
<path d="M25866 10000 L25866 62519 "/>
<path d="M10000 10000 L10000 62519 "/>
<path d="M10000 10000 L25866 10000 "/>
<g>
</g>
<g>
</g>
<g>
</g>
<g>
</g>
<g>
</g>
<g>
</g>
<g>
</g>
<g>
</g>
<g>
</g>
<g>
</g>
</g> 
</g></g><g id="substrate-clad" style="fill:#9c6b28; stroke:#9c6b28;"><g style="fill-opacity:1; stroke-opacity:1; stroke-linecap:round; stroke-linejoin:round;" transform="translate(0 0) scale(1 1)">
</g>
<g style="fill-opacity:0.0; stroke-width:-0.000393701; stroke-opacity:1; stroke-linecap:round; stroke-linejoin:round;">
</g>
<g style="fill-opacity:0.0; stroke-width:98.4252; stroke-opacity:1; stroke-linecap:round; stroke-linejoin:round;">
<path d="M14000 36000 L22000 36000 "/>
<path d="M22000 28000 L14000 28000 "/>
<path d="M14000 20000 L22000 20000 "/>
<text x="14000" y="24000" textLength="524.935" font-size="734.908" lengthAdjust="spacingAndGlyphs" text-anchor="middle" opacity="0">X</text>
<path d="M13816 23175 L14183 23962 "/>
<path d="M14183 23175 L13816 23962 "/>
<text x="14000" y="32000" textLength="600.394" font-size="734.908" lengthAdjust="spacingAndGlyphs" text-anchor="middle" opacity="0">Y</text>
<path d="M14000 31587 L14000 31962 "/>
<path d="M13816 31175 L14000 31587 L14183 31175 "/>
<text x="14000" y="40000" textLength="652.887" font-size="734.908" lengthAdjust="spacingAndGlyphs" text-anchor="middle" opacity="0">Z</text>
<path d="M13816 39175 L14183 39175 L13816 39962 L14183 39962 "/>
<text x="22000" y="56000" textLength="1440.29" font-size="734.908" lengthAdjust="spacingAndGlyphs" text-anchor="middle" opacity="0">out</text>
<path d="M21553 55962 L21501 55925 L21475 55887 L21448 55812 L21448 55587 L21475 55512 L21501 55475 L21553 55437 L21632 55437 L21685 55475 L21711 55512 L21737 55587 L21737 55812 L21711 55887 L21685 55925 L21632 55962 L21553 55962 "/>
<path d="M22209 55437 L22209 55962 "/>
<path d="M21973 55437 L21973 55850 L22000 55925 L22052 55962 L22131 55962 L22183 55925 L22209 55887 "/>
<path d="M22393 55437 L22603 55437 "/>
<path d="M22472 55175 L22472 55850 L22498 55925 L22551 55962 L22603 55962 "/>
</g>
<g style="fill-opacity:0.0; stroke-width:137.795; stroke-opacity:1; stroke-linecap:round; stroke-linejoin:round;">
<text x="19000" y="12590.6" textLength="4908.61" font-size="1574.8" lengthAdjust="spacingAndGlyphs" text-anchor="middle" opacity="0">pegel</text>
<path d="M16890 11746 L16890 12928 "/>
<path d="M16890 11803 L17003 11746 L17228 11746 L17340 11803 L17397 11859 L17453 11971 L17453 12309 L17397 12421 L17340 12478 L17228 12534 L17003 12534 L16890 12478 "/>
<path d="M18409 12478 L18296 12534 L18071 12534 L17959 12478 L17903 12365 L17903 11915 L17959 11803 L18071 11746 L18296 11746 L18409 11803 L18465 11915 L18465 12028 L17903 12140 "/>
<path d="M19478 11746 L19478 12703 L19421 12815 L19365 12871 L19253 12928 L19084 12928 L18971 12871 "/>
<path d="M19478 12478 L19365 12534 L19140 12534 L19028 12478 L18971 12421 L18915 12309 L18915 11971 L18971 11859 L19028 11803 L19140 11746 L19365 11746 L19478 11803 "/>
<path d="M20490 12478 L20377 12534 L20152 12534 L20040 12478 L19984 12365 L19984 11915 L20040 11803 L20152 11746 L20377 11746 L20490 11803 L20546 11915 L20546 12028 L19984 12140 "/>
<path d="M21221 12534 L21109 12478 L21052 12365 L21052 11353 "/>
</g>
<g style="fill-opacity:1.0; stroke-width:0; stroke-opacity:1; stroke-linecap:round; stroke-linejoin:round;">
<path style="fill-opacity:1.0; stroke-width:0; stroke-opacity:1; stroke-linecap:round; stroke-linejoin:round;fill-rule:evenodd;" d="M 13100.5,59917.8 13142.4,59926.2 13260.6,59975.2 13367.1,60046.3 13457.6,60136.8 13528.8,60243.3 13577.8,60361.6 13602.8,60487.2 13602.8,60615.2 13577.8,60740.8 13528.8,60859.1 13457.6,60965.5 13367.1,61056.1 13260.6,61127.2 13142.4,61176.2 13100.5,61184.5 13016.8,61201.2 12888.7,61201.2 12805,61184.5 12763.2,61176.2 12644.9,61127.2 12538.4,61056.1 12447.9,60965.5 12376.7,60859.1 12327.7,60740.8 12302.8,60615.2 12302.8,60487.2 12327.7,60361.6 12376.7,60243.3 12447.9,60136.8 12538.4,60046.3 12644.9,59975.2 12763.2,59926.2 12805,59917.8 12888.7,59901.2 13016.8,59901.2 Z"/> 
<path style="fill-opacity:1.0; stroke-width:0; stroke-opacity:1; stroke-linecap:round; stroke-linejoin:round;fill-rule:evenodd;" d="M 22249.7,50744.7 22373.3,50769.3 22606.3,50865.7 22815.9,51005.8 22994.2,51184.1 23134.3,51393.7 23230.7,51626.7 23279.9,51873.9 23279.9,52126.1 23230.7,52373.3 23134.3,52606.3 22994.2,52815.9 22815.9,52994.2 22606.3,53134.3 22373.3,53230.7 22249.7,53255.3 22126.1,53279.9 21873.9,53279.9 21750.3,53255.3 21626.7,53230.7 21393.7,53134.3 21184.1,52994.2 21005.8,52815.9 20865.7,52606.3 20769.3,52373.3 20720.1,52126.1 20720.1,51873.9 20769.3,51626.7 20865.7,51393.7 21005.8,51184.1 21184.1,51005.8 21393.7,50865.7 21626.7,50769.3 21750.3,50744.7 21873.9,50720.1 22126.1,50720.1 Z"/> 
<path style="fill-opacity:1.0; stroke-width:0; stroke-opacity:1; stroke-linecap:round; stroke-linejoin:round;fill-rule:evenodd;" d="M 22335.7,34561.1 22430.8,34580 22699.5,34691.3 22941.4,34852.9 23147.1,35058.6 23308.7,35300.5 23420,35569.2 23476.8,35854.6 23476.8,36145.4 23420,36430.8 23308.7,36699.5 23147.1,36941.4 22941.4,37147.1 22699.5,37308.7 22430.8,37420 22335.7,37438.9 22145.5,37476.8 21854.5,37476.8 21664.3,37438.9 21569.2,37420 21300.5,37308.7 21058.6,37147.1 20852.9,36941.4 20691.3,36699.5 20580,36430.8 20523.2,36145.4 20523.2,35854.6 20580,35569.2 20691.3,35300.5 20852.9,35058.6 21058.6,34852.9 21300.5,34691.3 21569.2,34580 21664.3,34561.1 21854.5,34523.2 22145.5,34523.2 Z"/> 
<path style="fill-opacity:1.0; stroke-width:0; stroke-opacity:1; stroke-linecap:round; stroke-linejoin:round;fill-rule:evenodd;" d="M 14249.7,34744.7 14373.3,34769.3 14606.3,34865.7 14815.9,35005.8 14994.2,35184.1 15134.3,35393.7 15230.7,35626.7 15279.9,35873.9 15279.9,36126.1 15230.7,36373.3 15134.3,36606.3 14994.2,36815.9 14815.9,36994.2 14606.3,37134.3 14373.3,37230.7 14249.7,37255.3 14126.1,37279.9 13873.9,37279.9 13750.3,37255.3 13626.7,37230.7 13393.7,37134.3 13184.1,36994.2 13005.8,36815.9 12865.7,36606.3 12769.3,36373.3 12720.1,36126.1 12720.1,35873.9 12769.3,35626.7 12865.7,35393.7 13005.8,35184.1 13184.1,35005.8 13393.7,34865.7 13626.7,34769.3 13750.3,34744.7 13873.9,34720.1 14126.1,34720.1 Z"/> 
<path style="fill-opacity:1.0; stroke-width:0; stroke-opacity:1; stroke-linecap:round; stroke-linejoin:round;fill-rule:evenodd;" d="M 22335.7,26561.1 22430.8,26580 22699.5,26691.3 22941.4,26852.9 23147.1,27058.6 23308.7,27300.5 23420,27569.2 23476.8,27854.6 23476.8,28145.4 23420,28430.8 23308.7,28699.5 23147.1,28941.4 22941.4,29147.1 22699.5,29308.7 22430.8,29420 22335.7,29438.9 22145.5,29476.8 21854.5,29476.8 21664.3,29438.9 21569.2,29420 21300.5,29308.7 21058.6,29147.1 20852.9,28941.4 20691.3,28699.5 20580,28430.8 20523.2,28145.4 20523.2,27854.6 20580,27569.2 20691.3,27300.5 20852.9,27058.6 21058.6,26852.9 21300.5,26691.3 21569.2,26580 21664.3,26561.1 21854.5,26523.2 22145.5,26523.2 Z"/> 
<path style="fill-opacity:1.0; stroke-width:0; stroke-opacity:1; stroke-linecap:round; stroke-linejoin:round;fill-rule:evenodd;" d="M 14249.7,26744.7 14373.3,26769.3 14606.3,26865.7 14815.9,27005.8 14994.2,27184.1 15134.3,27393.7 15230.7,27626.7 15279.9,27873.9 15279.9,28126.1 15230.7,28373.3 15134.3,28606.3 14994.2,28815.9 14815.9,28994.2 14606.3,29134.3 14373.3,29230.7 14249.7,29255.3 14126.1,29279.9 13873.9,29279.9 13750.3,29255.3 13626.7,29230.7 13393.7,29134.3 13184.1,28994.2 13005.8,28815.9 12865.7,28606.3 12769.3,28373.3 12720.1,28126.1 12720.1,27873.9 12769.3,27626.7 12865.7,27393.7 13005.8,27184.1 13184.1,27005.8 13393.7,26865.7 13626.7,26769.3 13750.3,26744.7 13873.9,26720.1 14126.1,26720.1 Z"/> 
<path style="fill-opacity:1.0; stroke-width:0; stroke-opacity:1; stroke-linecap:round; stroke-linejoin:round;fill-rule:evenodd;" d="M 22335.7,18561.1 22430.8,18580 22699.5,18691.3 22941.4,18852.9 23147.1,19058.6 23308.7,19300.5 23420,19569.2 23476.8,19854.6 23476.8,20145.4 23420,20430.8 23308.7,20699.5 23147.1,20941.4 22941.4,21147.1 22699.5,21308.7 22430.8,21420 22335.7,21438.9 22145.5,21476.8 21854.5,21476.8 21664.3,21438.9 21569.2,21420 21300.5,21308.7 21058.6,21147.1 20852.9,20941.4 20691.3,20699.5 20580,20430.8 20523.2,20145.4 20523.2,19854.6 20580,19569.2 20691.3,19300.5 20852.9,19058.6 21058.6,18852.9 21300.5,18691.3 21569.2,18580 21664.3,18561.1 21854.5,18523.2 22145.5,18523.2 Z"/> 
<path style="fill-opacity:1.0; stroke-width:0; stroke-opacity:1; stroke-linecap:round; stroke-linejoin:round;fill-rule:evenodd;" d="M 14249.7,18744.7 14373.3,18769.3 14606.3,18865.7 14815.9,19005.8 14994.2,19184.1 15134.3,19393.7 15230.7,19626.7 15279.9,19873.9 15279.9,20126.1 15230.7,20373.3 15134.3,20606.3 14994.2,20815.9 14815.9,20994.2 14606.3,21134.3 14373.3,21230.7 14249.7,21255.3 14126.1,21279.9 13873.9,21279.9 13750.3,21255.3 13626.7,21230.7 13393.7,21134.3 13184.1,20994.2 13005.8,20815.9 12865.7,20606.3 12769.3,20373.3 12720.1,20126.1 12720.1,19873.9 12769.3,19626.7 12865.7,19393.7 13005.8,19184.1 13184.1,19005.8 13393.7,18865.7 13626.7,18769.3 13750.3,18744.7 13873.9,18720.1 14126.1,18720.1 Z"/> 
<path style="fill-opacity:1.0; stroke-width:0; stroke-opacity:1; stroke-linecap:round; stroke-linejoin:round;fill-rule:evenodd;" d="M 13100.5,11335.2 13142.4,11343.5 13260.6,11392.5 13367.1,11463.6 13457.6,11554.2 13528.8,11660.6 13577.8,11778.9 13602.8,11904.5 13602.8,12032.5 13577.8,12158.1 13528.8,12276.4 13457.6,12382.9 13367.1,12473.4 13260.6,12544.5 13142.4,12593.5 13100.5,12601.9 13016.8,12618.5 12888.7,12618.5 12805,12601.9 12763.2,12593.5 12644.9,12544.5 12538.4,12473.4 12447.9,12382.9 12376.7,12276.4 12327.7,12158.1 12302.8,12032.5 12302.8,11904.5 12327.7,11778.9 12376.7,11660.6 12447.9,11554.2 12538.4,11463.6 12644.9,11392.5 12763.2,11343.5 12805,11335.2 12888.7,11318.5 13016.8,11318.5 Z"/> 
</g> 
</g><g id="substrate-copper" style="fill:#417e5a; stroke:#417e5a;"><g style="fill-opacity:1; stroke-opacity:1; stroke-linecap:round; stroke-linejoin:round;" transform="translate(0 0) scale(1 1)">
</g>
<g style="fill-opacity:0.0; stroke-width:-0.000393701; stroke-opacity:1; stroke-linecap:round; stroke-linejoin:round;">
</g>
<g style="fill-opacity:0.0; stroke-width:98.4252; stroke-opacity:1; stroke-linecap:round; stroke-linejoin:round;">
<text x="23669.3" y="61452.8" textLength="1780.18" font-size="734.908" lengthAdjust="spacingAndGlyphs" text-anchor="middle" opacity="0">R02</text>
<path d="M23314 61415 L23131 61040 "/>
<path d="M23000 61415 L23000 60627 L23209 60627 L23262 60665 L23288 60702 L23314 60777 L23314 60890 L23288 60965 L23262 61002 L23209 61040 L23000 61040 "/>
<path d="M23656 60627 L23708 60627 L23761 60665 L23787 60702 L23813 60777 L23839 60927 L23839 61115 L23813 61265 L23787 61340 L23761 61377 L23708 61415 L23656 61415 L23603 61377 L23577 61340 L23551 61265 L23524 61115 L23524 60927 L23551 60777 L23577 60702 L23603 60665 L23656 60627 "/>
<path d="M24049 60702 L24076 60665 L24128 60627 L24259 60627 L24312 60665 L24338 60702 L24364 60777 L24364 60852 L24338 60965 L24023 61415 L24364 61415 "/>
<g>
</g>
<g>
</g>
<g>
</g>
<g>
</g>
<g>
</g>
<g>
</g>
<g>
</g>
<g>
</g>
<g>
</g>
<g>
</g>
<g>
</g>
<g>
</g>
</g>
<g style="fill-opacity:0.0; stroke-width:98.4252; stroke-opacity:1; stroke-linecap:round; stroke-linejoin:round;">
</g>
<g style="fill-opacity:1.0; stroke-width:0; stroke-opacity:1; stroke-linecap:round; stroke-linejoin:round;">
<circle cx="12952.8" cy="60551.2" r="68.8976"/> 
</g>
<g style="fill-opacity:1.0; stroke-width:59.0551; stroke-opacity:1; stroke-linecap:round; stroke-linejoin:round;">
</g>
<g style="fill-opacity:1.0; stroke-width:0; stroke-opacity:1; stroke-linecap:round; stroke-linejoin:round;">
<circle cx="12952.8" cy="11968.5" r="68.8976"/> 
</g>
<g style="fill-opacity:1.0; stroke-width:59.0551; stroke-opacity:1; stroke-linecap:round; stroke-linejoin:round;">
</g>
<g style="fill-opacity:1.0; stroke-width:0; stroke-opacity:1; stroke-linecap:round; stroke-linejoin:round;">
<circle cx="22000" cy="52000" r="68.8976"/> 
</g>
<g style="fill-opacity:1.0; stroke-width:59.0551; stroke-opacity:1; stroke-linecap:round; stroke-linejoin:round;">
</g>
<g style="fill-opacity:1.0; stroke-width:0; stroke-opacity:1; stroke-linecap:round; stroke-linejoin:round;">
<circle cx="22000" cy="20000" r="68.8976"/> 
</g>
<g style="fill-opacity:1.0; stroke-width:59.0551; stroke-opacity:1; stroke-linecap:round; stroke-linejoin:round;">
</g>
<g style="fill-opacity:1.0; stroke-width:0; stroke-opacity:1; stroke-linecap:round; stroke-linejoin:round;">
<circle cx="14000" cy="20000" r="68.8976"/> 
</g>
<g style="fill-opacity:1.0; stroke-width:59.0551; stroke-opacity:1; stroke-linecap:round; stroke-linejoin:round;">
</g>
<g style="fill-opacity:1.0; stroke-width:0; stroke-opacity:1; stroke-linecap:round; stroke-linejoin:round;">
<circle cx="22000" cy="36000" r="68.8976"/> 
</g>
<g style="fill-opacity:1.0; stroke-width:59.0551; stroke-opacity:1; stroke-linecap:round; stroke-linejoin:round;">
</g>
<g style="fill-opacity:1.0; stroke-width:0; stroke-opacity:1; stroke-linecap:round; stroke-linejoin:round;">
<circle cx="22000" cy="28000" r="68.8976"/> 
</g>
<g style="fill-opacity:1.0; stroke-width:59.0551; stroke-opacity:1; stroke-linecap:round; stroke-linejoin:round;">
</g>
<g style="fill-opacity:1.0; stroke-width:0; stroke-opacity:1; stroke-linecap:round; stroke-linejoin:round;">
<circle cx="14000" cy="36000" r="68.8976"/> 
</g>
<g style="fill-opacity:1.0; stroke-width:59.0551; stroke-opacity:1; stroke-linecap:round; stroke-linejoin:round;">
</g>
<g style="fill-opacity:1.0; stroke-width:0; stroke-opacity:1; stroke-linecap:round; stroke-linejoin:round;">
<circle cx="14000" cy="28000" r="68.8976"/> 
</g>
<g style="fill-opacity:1.0; stroke-width:59.0551; stroke-opacity:1; stroke-linecap:round; stroke-linejoin:round;">
</g>
<g style="fill-opacity:1.0; stroke-width:59.0551; stroke-opacity:1; stroke-linecap:round; stroke-linejoin:round;">
</g> 
</g><g id="substrate-pads" style="fill:#b5ae30; stroke:#b5ae30;" mask="url(#pads-mask)"><g style="fill-opacity:1; stroke-opacity:1; stroke-linecap:round; stroke-linejoin:round;" transform="translate(0 0) scale(1 1)">
</g>
<g style="fill-opacity:0.0; stroke-width:-0.000393701; stroke-opacity:1; stroke-linecap:round; stroke-linejoin:round;">
</g>
<g style="fill-opacity:0.0; stroke-width:98.4252; stroke-opacity:1; stroke-linecap:round; stroke-linejoin:round;">
<text x="23669.3" y="61452.8" textLength="1729" font-size="734.908" lengthAdjust="spacingAndGlyphs" text-anchor="middle" opacity="0">R02</text>
<path d="M23314 61415 L23131 61040 "/>
<path d="M23000 61415 L23000 60627 L23209 60627 L23262 60665 L23288 60702 L23314 60777 L23314 60890 L23288 60965 L23262 61002 L23209 61040 L23000 61040 "/>
<path d="M23656 60627 L23708 60627 L23761 60665 L23787 60702 L23813 60777 L23839 60927 L23839 61115 L23813 61265 L23787 61340 L23761 61377 L23708 61415 L23656 61415 L23603 61377 L23577 61340 L23551 61265 L23524 61115 L23524 60927 L23551 60777 L23577 60702 L23603 60665 L23656 60627 "/>
<path d="M24049 60702 L24076 60665 L24128 60627 L24259 60627 L24312 60665 L24338 60702 L24364 60777 L24364 60852 L24338 60965 L24023 61415 L24364 61415 "/>
<g>
</g>
<g>
</g>
<g>
</g>
<g>
</g>
<g>
</g>
<g>
</g>
<g>
</g>
<g>
</g>
<g>
</g>
<g>
</g>
<g>
</g>
<g>
</g>
</g>
<g style="fill-opacity:0.0; stroke-width:98.4252; stroke-opacity:1; stroke-linecap:round; stroke-linejoin:round;">
</g>
<g style="fill-opacity:1.0; stroke-width:0; stroke-opacity:1; stroke-linecap:round; stroke-linejoin:round;">
<circle cx="12952.8" cy="60551.2" r="68.8976"/> 
</g>
<g style="fill-opacity:1.0; stroke-width:59.0551; stroke-opacity:1; stroke-linecap:round; stroke-linejoin:round;">
</g>
<g style="fill-opacity:1.0; stroke-width:0; stroke-opacity:1; stroke-linecap:round; stroke-linejoin:round;">
<circle cx="12952.8" cy="11968.5" r="68.8976"/> 
</g>
<g style="fill-opacity:1.0; stroke-width:59.0551; stroke-opacity:1; stroke-linecap:round; stroke-linejoin:round;">
</g>
<g style="fill-opacity:1.0; stroke-width:0; stroke-opacity:1; stroke-linecap:round; stroke-linejoin:round;">
<circle cx="22000" cy="52000" r="68.8976"/> 
</g>
<g style="fill-opacity:1.0; stroke-width:59.0551; stroke-opacity:1; stroke-linecap:round; stroke-linejoin:round;">
</g>
<g style="fill-opacity:1.0; stroke-width:0; stroke-opacity:1; stroke-linecap:round; stroke-linejoin:round;">
<circle cx="22000" cy="20000" r="68.8976"/> 
</g>
<g style="fill-opacity:1.0; stroke-width:59.0551; stroke-opacity:1; stroke-linecap:round; stroke-linejoin:round;">
</g>
<g style="fill-opacity:1.0; stroke-width:0; stroke-opacity:1; stroke-linecap:round; stroke-linejoin:round;">
<circle cx="14000" cy="20000" r="68.8976"/> 
</g>
<g style="fill-opacity:1.0; stroke-width:59.0551; stroke-opacity:1; stroke-linecap:round; stroke-linejoin:round;">
</g>
<g style="fill-opacity:1.0; stroke-width:0; stroke-opacity:1; stroke-linecap:round; stroke-linejoin:round;">
<circle cx="22000" cy="36000" r="68.8976"/> 
</g>
<g style="fill-opacity:1.0; stroke-width:59.0551; stroke-opacity:1; stroke-linecap:round; stroke-linejoin:round;">
</g>
<g style="fill-opacity:1.0; stroke-width:0; stroke-opacity:1; stroke-linecap:round; stroke-linejoin:round;">
<circle cx="22000" cy="28000" r="68.8976"/> 
</g>
<g style="fill-opacity:1.0; stroke-width:59.0551; stroke-opacity:1; stroke-linecap:round; stroke-linejoin:round;">
</g>
<g style="fill-opacity:1.0; stroke-width:0; stroke-opacity:1; stroke-linecap:round; stroke-linejoin:round;">
<circle cx="14000" cy="36000" r="68.8976"/> 
</g>
<g style="fill-opacity:1.0; stroke-width:59.0551; stroke-opacity:1; stroke-linecap:round; stroke-linejoin:round;">
</g>
<g style="fill-opacity:1.0; stroke-width:0; stroke-opacity:1; stroke-linecap:round; stroke-linejoin:round;">
<circle cx="14000" cy="28000" r="68.8976"/> 
</g>
<g style="fill-opacity:1.0; stroke-width:59.0551; stroke-opacity:1; stroke-linecap:round; stroke-linejoin:round;">
</g>
<g style="fill-opacity:1.0; stroke-width:59.0551; stroke-opacity:1; stroke-linecap:round; stroke-linejoin:round;">
</g> 
</g><defs><mask id="pads-mask"><g style="fill:#ffffff; fill-opacity:1;stroke:#ffffff; stroke-opacity:1; stroke-linecap:round; stroke-linejoin:round;" transform="translate(0 0) scale(1 1)">
</g>
<g style="fill:#ffffff; fill-opacity:0.0;  stroke:#ffffff; stroke-width:-0.000393701; stroke-opacity:1;  stroke-linecap:round; stroke-linejoin:round;">
</g>
<g style="fill:#ffffff; fill-opacity:0.0;  stroke:#ffffff; stroke-width:98.4252; stroke-opacity:1;  stroke-linecap:round; stroke-linejoin:round;">
<path d="M14000 36000 L22000 36000 "/>
<path d="M22000 28000 L14000 28000 "/>
<path d="M14000 20000 L22000 20000 "/>
<text x="14000" y="24000" textLength="652.887" font-size="734.908" lengthAdjust="spacingAndGlyphs" text-anchor="middle" opacity="0">X</text>
<path d="M13816 23175 L14183 23962 "/>
<path d="M14183 23175 L13816 23962 "/>
<text x="14000" y="32000" textLength="600.394" font-size="734.908" lengthAdjust="spacingAndGlyphs" text-anchor="middle" opacity="0">Y</text>
<path d="M14000 31587 L14000 31962 "/>
<path d="M13816 31175 L14000 31587 L14183 31175 "/>
<text x="14000" y="40000" textLength="652.887" font-size="734.908" lengthAdjust="spacingAndGlyphs" text-anchor="middle" opacity="0">Z</text>
<path d="M13816 39175 L14183 39175 L13816 39962 L14183 39962 "/>
<text x="22000" y="56000" textLength="1440.29" font-size="734.908" lengthAdjust="spacingAndGlyphs" text-anchor="middle" opacity="0">out</text>
<path d="M21553 55962 L21501 55925 L21475 55887 L21448 55812 L21448 55587 L21475 55512 L21501 55475 L21553 55437 L21632 55437 L21685 55475 L21711 55512 L21737 55587 L21737 55812 L21711 55887 L21685 55925 L21632 55962 L21553 55962 "/>
<path d="M22209 55437 L22209 55962 "/>
<path d="M21973 55437 L21973 55850 L22000 55925 L22052 55962 L22131 55962 L22183 55925 L22209 55887 "/>
<path d="M22393 55437 L22603 55437 "/>
<path d="M22472 55175 L22472 55850 L22498 55925 L22551 55962 L22603 55962 "/>
</g>
<g style="fill:#ffffff; fill-opacity:0.0;  stroke:#ffffff; stroke-width:137.795; stroke-opacity:1;  stroke-linecap:round; stroke-linejoin:round;">
<text x="19000" y="12590.6" textLength="4908.61" font-size="1574.8" lengthAdjust="spacingAndGlyphs" text-anchor="middle" opacity="0">pegel</text>
<path d="M16890 11746 L16890 12928 "/>
<path d="M16890 11803 L17003 11746 L17228 11746 L17340 11803 L17397 11859 L17453 11971 L17453 12309 L17397 12421 L17340 12478 L17228 12534 L17003 12534 L16890 12478 "/>
<path d="M18409 12478 L18296 12534 L18071 12534 L17959 12478 L17903 12365 L17903 11915 L17959 11803 L18071 11746 L18296 11746 L18409 11803 L18465 11915 L18465 12028 L17903 12140 "/>
<path d="M19478 11746 L19478 12703 L19421 12815 L19365 12871 L19253 12928 L19084 12928 L18971 12871 "/>
<path d="M19478 12478 L19365 12534 L19140 12534 L19028 12478 L18971 12421 L18915 12309 L18915 11971 L18971 11859 L19028 11803 L19140 11746 L19365 11746 L19478 11803 "/>
<path d="M20490 12478 L20377 12534 L20152 12534 L20040 12478 L19984 12365 L19984 11915 L20040 11803 L20152 11746 L20377 11746 L20490 11803 L20546 11915 L20546 12028 L19984 12140 "/>
<path d="M21221 12534 L21109 12478 L21052 12365 L21052 11353 "/>
</g>
<g style="fill:#ffffff; fill-opacity:1.0;  stroke:#ffffff; stroke-width:0; stroke-opacity:1;  stroke-linecap:round; stroke-linejoin:round;">
<path style="fill:#ffffff; fill-opacity:1.0;  stroke:#ffffff; stroke-width:0; stroke-opacity:1;  stroke-linecap:round; stroke-linejoin:round;fill-rule:evenodd;" d="M 13100.5,59917.8 13142.4,59926.2 13260.6,59975.2 13367.1,60046.3 13457.6,60136.8 13528.8,60243.3 13577.8,60361.6 13602.8,60487.2 13602.8,60615.2 13577.8,60740.8 13528.8,60859.1 13457.6,60965.5 13367.1,61056.1 13260.6,61127.2 13142.4,61176.2 13100.5,61184.5 13016.8,61201.2 12888.7,61201.2 12805,61184.5 12763.2,61176.2 12644.9,61127.2 12538.4,61056.1 12447.9,60965.5 12376.7,60859.1 12327.7,60740.8 12302.8,60615.2 12302.8,60487.2 12327.7,60361.6 12376.7,60243.3 12447.9,60136.8 12538.4,60046.3 12644.9,59975.2 12763.2,59926.2 12805,59917.8 12888.7,59901.2 13016.8,59901.2 Z"/> 
<path style="fill:#ffffff; fill-opacity:1.0;  stroke:#ffffff; stroke-width:0; stroke-opacity:1;  stroke-linecap:round; stroke-linejoin:round;fill-rule:evenodd;" d="M 22249.7,50744.7 22373.3,50769.3 22606.3,50865.7 22815.9,51005.8 22994.2,51184.1 23134.3,51393.7 23230.7,51626.7 23279.9,51873.9 23279.9,52126.1 23230.7,52373.3 23134.3,52606.3 22994.2,52815.9 22815.9,52994.2 22606.3,53134.3 22373.3,53230.7 22249.7,53255.3 22126.1,53279.9 21873.9,53279.9 21750.3,53255.3 21626.7,53230.7 21393.7,53134.3 21184.1,52994.2 21005.8,52815.9 20865.7,52606.3 20769.3,52373.3 20720.1,52126.1 20720.1,51873.9 20769.3,51626.7 20865.7,51393.7 21005.8,51184.1 21184.1,51005.8 21393.7,50865.7 21626.7,50769.3 21750.3,50744.7 21873.9,50720.1 22126.1,50720.1 Z"/> 
<path style="fill:#ffffff; fill-opacity:1.0;  stroke:#ffffff; stroke-width:0; stroke-opacity:1;  stroke-linecap:round; stroke-linejoin:round;fill-rule:evenodd;" d="M 22335.7,34561.1 22430.8,34580 22699.5,34691.3 22941.4,34852.9 23147.1,35058.6 23308.7,35300.5 23420,35569.2 23476.8,35854.6 23476.8,36145.4 23420,36430.8 23308.7,36699.5 23147.1,36941.4 22941.4,37147.1 22699.5,37308.7 22430.8,37420 22335.7,37438.9 22145.5,37476.8 21854.5,37476.8 21664.3,37438.9 21569.2,37420 21300.5,37308.7 21058.6,37147.1 20852.9,36941.4 20691.3,36699.5 20580,36430.8 20523.2,36145.4 20523.2,35854.6 20580,35569.2 20691.3,35300.5 20852.9,35058.6 21058.6,34852.9 21300.5,34691.3 21569.2,34580 21664.3,34561.1 21854.5,34523.2 22145.5,34523.2 Z"/> 
<path style="fill:#ffffff; fill-opacity:1.0;  stroke:#ffffff; stroke-width:0; stroke-opacity:1;  stroke-linecap:round; stroke-linejoin:round;fill-rule:evenodd;" d="M 14249.7,34744.7 14373.3,34769.3 14606.3,34865.7 14815.9,35005.8 14994.2,35184.1 15134.3,35393.7 15230.7,35626.7 15279.9,35873.9 15279.9,36126.1 15230.7,36373.3 15134.3,36606.3 14994.2,36815.9 14815.9,36994.2 14606.3,37134.3 14373.3,37230.7 14249.7,37255.3 14126.1,37279.9 13873.9,37279.9 13750.3,37255.3 13626.7,37230.7 13393.7,37134.3 13184.1,36994.2 13005.8,36815.9 12865.7,36606.3 12769.3,36373.3 12720.1,36126.1 12720.1,35873.9 12769.3,35626.7 12865.7,35393.7 13005.8,35184.1 13184.1,35005.8 13393.7,34865.7 13626.7,34769.3 13750.3,34744.7 13873.9,34720.1 14126.1,34720.1 Z"/> 
<path style="fill:#ffffff; fill-opacity:1.0;  stroke:#ffffff; stroke-width:0; stroke-opacity:1;  stroke-linecap:round; stroke-linejoin:round;fill-rule:evenodd;" d="M 22335.7,26561.1 22430.8,26580 22699.5,26691.3 22941.4,26852.9 23147.1,27058.6 23308.7,27300.5 23420,27569.2 23476.8,27854.6 23476.8,28145.4 23420,28430.8 23308.7,28699.5 23147.1,28941.4 22941.4,29147.1 22699.5,29308.7 22430.8,29420 22335.7,29438.9 22145.5,29476.8 21854.5,29476.8 21664.3,29438.9 21569.2,29420 21300.5,29308.7 21058.6,29147.1 20852.9,28941.4 20691.3,28699.5 20580,28430.8 20523.2,28145.4 20523.2,27854.6 20580,27569.2 20691.3,27300.5 20852.9,27058.6 21058.6,26852.9 21300.5,26691.3 21569.2,26580 21664.3,26561.1 21854.5,26523.2 22145.5,26523.2 Z"/> 
<path style="fill:#ffffff; fill-opacity:1.0;  stroke:#ffffff; stroke-width:0; stroke-opacity:1;  stroke-linecap:round; stroke-linejoin:round;fill-rule:evenodd;" d="M 14249.7,26744.7 14373.3,26769.3 14606.3,26865.7 14815.9,27005.8 14994.2,27184.1 15134.3,27393.7 15230.7,27626.7 15279.9,27873.9 15279.9,28126.1 15230.7,28373.3 15134.3,28606.3 14994.2,28815.9 14815.9,28994.2 14606.3,29134.3 14373.3,29230.7 14249.7,29255.3 14126.1,29279.9 13873.9,29279.9 13750.3,29255.3 13626.7,29230.7 13393.7,29134.3 13184.1,28994.2 13005.8,28815.9 12865.7,28606.3 12769.3,28373.3 12720.1,28126.1 12720.1,27873.9 12769.3,27626.7 12865.7,27393.7 13005.8,27184.1 13184.1,27005.8 13393.7,26865.7 13626.7,26769.3 13750.3,26744.7 13873.9,26720.1 14126.1,26720.1 Z"/> 
<path style="fill:#ffffff; fill-opacity:1.0;  stroke:#ffffff; stroke-width:0; stroke-opacity:1;  stroke-linecap:round; stroke-linejoin:round;fill-rule:evenodd;" d="M 22335.7,18561.1 22430.8,18580 22699.5,18691.3 22941.4,18852.9 23147.1,19058.6 23308.7,19300.5 23420,19569.2 23476.8,19854.6 23476.8,20145.4 23420,20430.8 23308.7,20699.5 23147.1,20941.4 22941.4,21147.1 22699.5,21308.7 22430.8,21420 22335.7,21438.9 22145.5,21476.8 21854.5,21476.8 21664.3,21438.9 21569.2,21420 21300.5,21308.7 21058.6,21147.1 20852.9,20941.4 20691.3,20699.5 20580,20430.8 20523.2,20145.4 20523.2,19854.6 20580,19569.2 20691.3,19300.5 20852.9,19058.6 21058.6,18852.9 21300.5,18691.3 21569.2,18580 21664.3,18561.1 21854.5,18523.2 22145.5,18523.2 Z"/> 
<path style="fill:#ffffff; fill-opacity:1.0;  stroke:#ffffff; stroke-width:0; stroke-opacity:1;  stroke-linecap:round; stroke-linejoin:round;fill-rule:evenodd;" d="M 14249.7,18744.7 14373.3,18769.3 14606.3,18865.7 14815.9,19005.8 14994.2,19184.1 15134.3,19393.7 15230.7,19626.7 15279.9,19873.9 15279.9,20126.1 15230.7,20373.3 15134.3,20606.3 14994.2,20815.9 14815.9,20994.2 14606.3,21134.3 14373.3,21230.7 14249.7,21255.3 14126.1,21279.9 13873.9,21279.9 13750.3,21255.3 13626.7,21230.7 13393.7,21134.3 13184.1,20994.2 13005.8,20815.9 12865.7,20606.3 12769.3,20373.3 12720.1,20126.1 12720.1,19873.9 12769.3,19626.7 12865.7,19393.7 13005.8,19184.1 13184.1,19005.8 13393.7,18865.7 13626.7,18769.3 13750.3,18744.7 13873.9,18720.1 14126.1,18720.1 Z"/> 
<path style="fill:#ffffff; fill-opacity:1.0;  stroke:#ffffff; stroke-width:0; stroke-opacity:1;  stroke-linecap:round; stroke-linejoin:round;fill-rule:evenodd;" d="M 13100.5,11335.2 13142.4,11343.5 13260.6,11392.5 13367.1,11463.6 13457.6,11554.2 13528.8,11660.6 13577.8,11778.9 13602.8,11904.5 13602.8,12032.5 13577.8,12158.1 13528.8,12276.4 13457.6,12382.9 13367.1,12473.4 13260.6,12544.5 13142.4,12593.5 13100.5,12601.9 13016.8,12618.5 12888.7,12618.5 12805,12601.9 12763.2,12593.5 12644.9,12544.5 12538.4,12473.4 12447.9,12382.9 12376.7,12276.4 12327.7,12158.1 12302.8,12032.5 12302.8,11904.5 12327.7,11778.9 12376.7,11660.6 12447.9,11554.2 12538.4,11463.6 12644.9,11392.5 12763.2,11343.5 12805,11335.2 12888.7,11318.5 13016.8,11318.5 Z"/> 
</g> 
</mask></defs><defs><mask id="pads-mask-silkscreen"><g style="fill:#000000; fill-opacity:1;stroke:#000000; stroke-opacity:1; stroke-linecap:round; stroke-linejoin:round;" transform="translate(0 0) scale(1 1)">
</g>
<g style="fill:#000000; fill-opacity:0.0;  stroke:#000000; stroke-width:-0.000393701; stroke-opacity:1;  stroke-linecap:round; stroke-linejoin:round;">
</g>
<g style="fill:#000000; fill-opacity:0.0;  stroke:#000000; stroke-width:98.4252; stroke-opacity:1;  stroke-linecap:round; stroke-linejoin:round;">
<path d="M14000 36000 L22000 36000 "/>
<path d="M22000 28000 L14000 28000 "/>
<path d="M14000 20000 L22000 20000 "/>
<text x="14000" y="24000" textLength="652.887" font-size="734.908" lengthAdjust="spacingAndGlyphs" text-anchor="middle" opacity="0">X</text>
<path d="M13816 23175 L14183 23962 "/>
<path d="M14183 23175 L13816 23962 "/>
<text x="14000" y="32000" textLength="600.394" font-size="734.908" lengthAdjust="spacingAndGlyphs" text-anchor="middle" opacity="0">Y</text>
<path d="M14000 31587 L14000 31962 "/>
<path d="M13816 31175 L14000 31587 L14183 31175 "/>
<text x="14000" y="40000" textLength="652.887" font-size="734.908" lengthAdjust="spacingAndGlyphs" text-anchor="middle" opacity="0">Z</text>
<path d="M13816 39175 L14183 39175 L13816 39962 L14183 39962 "/>
<text x="22000" y="56000" textLength="1440.29" font-size="734.908" lengthAdjust="spacingAndGlyphs" text-anchor="middle" opacity="0">out</text>
<path d="M21553 55962 L21501 55925 L21475 55887 L21448 55812 L21448 55587 L21475 55512 L21501 55475 L21553 55437 L21632 55437 L21685 55475 L21711 55512 L21737 55587 L21737 55812 L21711 55887 L21685 55925 L21632 55962 L21553 55962 "/>
<path d="M22209 55437 L22209 55962 "/>
<path d="M21973 55437 L21973 55850 L22000 55925 L22052 55962 L22131 55962 L22183 55925 L22209 55887 "/>
<path d="M22393 55437 L22603 55437 "/>
<path d="M22472 55175 L22472 55850 L22498 55925 L22551 55962 L22603 55962 "/>
</g>
<g style="fill:#000000; fill-opacity:0.0;  stroke:#000000; stroke-width:137.795; stroke-opacity:1;  stroke-linecap:round; stroke-linejoin:round;">
<text x="19000" y="12590.6" textLength="4908.61" font-size="1574.8" lengthAdjust="spacingAndGlyphs" text-anchor="middle" opacity="0">pegel</text>
<path d="M16890 11746 L16890 12928 "/>
<path d="M16890 11803 L17003 11746 L17228 11746 L17340 11803 L17397 11859 L17453 11971 L17453 12309 L17397 12421 L17340 12478 L17228 12534 L17003 12534 L16890 12478 "/>
<path d="M18409 12478 L18296 12534 L18071 12534 L17959 12478 L17903 12365 L17903 11915 L17959 11803 L18071 11746 L18296 11746 L18409 11803 L18465 11915 L18465 12028 L17903 12140 "/>
<path d="M19478 11746 L19478 12703 L19421 12815 L19365 12871 L19253 12928 L19084 12928 L18971 12871 "/>
<path d="M19478 12478 L19365 12534 L19140 12534 L19028 12478 L18971 12421 L18915 12309 L18915 11971 L18971 11859 L19028 11803 L19140 11746 L19365 11746 L19478 11803 "/>
<path d="M20490 12478 L20377 12534 L20152 12534 L20040 12478 L19984 12365 L19984 11915 L20040 11803 L20152 11746 L20377 11746 L20490 11803 L20546 11915 L20546 12028 L19984 12140 "/>
<path d="M21221 12534 L21109 12478 L21052 12365 L21052 11353 "/>
</g>
<g style="fill:#000000; fill-opacity:1.0;  stroke:#000000; stroke-width:0; stroke-opacity:1;  stroke-linecap:round; stroke-linejoin:round;">
<path style="fill:#000000; fill-opacity:1.0;  stroke:#000000; stroke-width:0; stroke-opacity:1;  stroke-linecap:round; stroke-linejoin:round;fill-rule:evenodd;" d="M 13100.5,59917.8 13142.4,59926.2 13260.6,59975.2 13367.1,60046.3 13457.6,60136.8 13528.8,60243.3 13577.8,60361.6 13602.8,60487.2 13602.8,60615.2 13577.8,60740.8 13528.8,60859.1 13457.6,60965.5 13367.1,61056.1 13260.6,61127.2 13142.4,61176.2 13100.5,61184.5 13016.8,61201.2 12888.7,61201.2 12805,61184.5 12763.2,61176.2 12644.9,61127.2 12538.4,61056.1 12447.9,60965.5 12376.7,60859.1 12327.7,60740.8 12302.8,60615.2 12302.8,60487.2 12327.7,60361.6 12376.7,60243.3 12447.9,60136.8 12538.4,60046.3 12644.9,59975.2 12763.2,59926.2 12805,59917.8 12888.7,59901.2 13016.8,59901.2 Z"/> 
<path style="fill:#000000; fill-opacity:1.0;  stroke:#000000; stroke-width:0; stroke-opacity:1;  stroke-linecap:round; stroke-linejoin:round;fill-rule:evenodd;" d="M 22249.7,50744.7 22373.3,50769.3 22606.3,50865.7 22815.9,51005.8 22994.2,51184.1 23134.3,51393.7 23230.7,51626.7 23279.9,51873.9 23279.9,52126.1 23230.7,52373.3 23134.3,52606.3 22994.2,52815.9 22815.9,52994.2 22606.3,53134.3 22373.3,53230.7 22249.7,53255.3 22126.1,53279.9 21873.9,53279.9 21750.3,53255.3 21626.7,53230.7 21393.7,53134.3 21184.1,52994.2 21005.8,52815.9 20865.7,52606.3 20769.3,52373.3 20720.1,52126.1 20720.1,51873.9 20769.3,51626.7 20865.7,51393.7 21005.8,51184.1 21184.1,51005.8 21393.7,50865.7 21626.7,50769.3 21750.3,50744.7 21873.9,50720.1 22126.1,50720.1 Z"/> 
<path style="fill:#000000; fill-opacity:1.0;  stroke:#000000; stroke-width:0; stroke-opacity:1;  stroke-linecap:round; stroke-linejoin:round;fill-rule:evenodd;" d="M 22335.7,34561.1 22430.8,34580 22699.5,34691.3 22941.4,34852.9 23147.1,35058.6 23308.7,35300.5 23420,35569.2 23476.8,35854.6 23476.8,36145.4 23420,36430.8 23308.7,36699.5 23147.1,36941.4 22941.4,37147.1 22699.5,37308.7 22430.8,37420 22335.7,37438.9 22145.5,37476.8 21854.5,37476.8 21664.3,37438.9 21569.2,37420 21300.5,37308.7 21058.6,37147.1 20852.9,36941.4 20691.3,36699.5 20580,36430.8 20523.2,36145.4 20523.2,35854.6 20580,35569.2 20691.3,35300.5 20852.9,35058.6 21058.6,34852.9 21300.5,34691.3 21569.2,34580 21664.3,34561.1 21854.5,34523.2 22145.5,34523.2 Z"/> 
<path style="fill:#000000; fill-opacity:1.0;  stroke:#000000; stroke-width:0; stroke-opacity:1;  stroke-linecap:round; stroke-linejoin:round;fill-rule:evenodd;" d="M 14249.7,34744.7 14373.3,34769.3 14606.3,34865.7 14815.9,35005.8 14994.2,35184.1 15134.3,35393.7 15230.7,35626.7 15279.9,35873.9 15279.9,36126.1 15230.7,36373.3 15134.3,36606.3 14994.2,36815.9 14815.9,36994.2 14606.3,37134.3 14373.3,37230.7 14249.7,37255.3 14126.1,37279.9 13873.9,37279.9 13750.3,37255.3 13626.7,37230.7 13393.7,37134.3 13184.1,36994.2 13005.8,36815.9 12865.7,36606.3 12769.3,36373.3 12720.1,36126.1 12720.1,35873.9 12769.3,35626.7 12865.7,35393.7 13005.8,35184.1 13184.1,35005.8 13393.7,34865.7 13626.7,34769.3 13750.3,34744.7 13873.9,34720.1 14126.1,34720.1 Z"/> 
<path style="fill:#000000; fill-opacity:1.0;  stroke:#000000; stroke-width:0; stroke-opacity:1;  stroke-linecap:round; stroke-linejoin:round;fill-rule:evenodd;" d="M 22335.7,26561.1 22430.8,26580 22699.5,26691.3 22941.4,26852.9 23147.1,27058.6 23308.7,27300.5 23420,27569.2 23476.8,27854.6 23476.8,28145.4 23420,28430.8 23308.7,28699.5 23147.1,28941.4 22941.4,29147.1 22699.5,29308.7 22430.8,29420 22335.7,29438.9 22145.5,29476.8 21854.5,29476.8 21664.3,29438.9 21569.2,29420 21300.5,29308.7 21058.6,29147.1 20852.9,28941.4 20691.3,28699.5 20580,28430.8 20523.2,28145.4 20523.2,27854.6 20580,27569.2 20691.3,27300.5 20852.9,27058.6 21058.6,26852.9 21300.5,26691.3 21569.2,26580 21664.3,26561.1 21854.5,26523.2 22145.5,26523.2 Z"/> 
<path style="fill:#000000; fill-opacity:1.0;  stroke:#000000; stroke-width:0; stroke-opacity:1;  stroke-linecap:round; stroke-linejoin:round;fill-rule:evenodd;" d="M 14249.7,26744.7 14373.3,26769.3 14606.3,26865.7 14815.9,27005.8 14994.2,27184.1 15134.3,27393.7 15230.7,27626.7 15279.9,27873.9 15279.9,28126.1 15230.7,28373.3 15134.3,28606.3 14994.2,28815.9 14815.9,28994.2 14606.3,29134.3 14373.3,29230.7 14249.7,29255.3 14126.1,29279.9 13873.9,29279.9 13750.3,29255.3 13626.7,29230.7 13393.7,29134.3 13184.1,28994.2 13005.8,28815.9 12865.7,28606.3 12769.3,28373.3 12720.1,28126.1 12720.1,27873.9 12769.3,27626.7 12865.7,27393.7 13005.8,27184.1 13184.1,27005.8 13393.7,26865.7 13626.7,26769.3 13750.3,26744.7 13873.9,26720.1 14126.1,26720.1 Z"/> 
<path style="fill:#000000; fill-opacity:1.0;  stroke:#000000; stroke-width:0; stroke-opacity:1;  stroke-linecap:round; stroke-linejoin:round;fill-rule:evenodd;" d="M 22335.7,18561.1 22430.8,18580 22699.5,18691.3 22941.4,18852.9 23147.1,19058.6 23308.7,19300.5 23420,19569.2 23476.8,19854.6 23476.8,20145.4 23420,20430.8 23308.7,20699.5 23147.1,20941.4 22941.4,21147.1 22699.5,21308.7 22430.8,21420 22335.7,21438.9 22145.5,21476.8 21854.5,21476.8 21664.3,21438.9 21569.2,21420 21300.5,21308.7 21058.6,21147.1 20852.9,20941.4 20691.3,20699.5 20580,20430.8 20523.2,20145.4 20523.2,19854.6 20580,19569.2 20691.3,19300.5 20852.9,19058.6 21058.6,18852.9 21300.5,18691.3 21569.2,18580 21664.3,18561.1 21854.5,18523.2 22145.5,18523.2 Z"/> 
<path style="fill:#000000; fill-opacity:1.0;  stroke:#000000; stroke-width:0; stroke-opacity:1;  stroke-linecap:round; stroke-linejoin:round;fill-rule:evenodd;" d="M 14249.7,18744.7 14373.3,18769.3 14606.3,18865.7 14815.9,19005.8 14994.2,19184.1 15134.3,19393.7 15230.7,19626.7 15279.9,19873.9 15279.9,20126.1 15230.7,20373.3 15134.3,20606.3 14994.2,20815.9 14815.9,20994.2 14606.3,21134.3 14373.3,21230.7 14249.7,21255.3 14126.1,21279.9 13873.9,21279.9 13750.3,21255.3 13626.7,21230.7 13393.7,21134.3 13184.1,20994.2 13005.8,20815.9 12865.7,20606.3 12769.3,20373.3 12720.1,20126.1 12720.1,19873.9 12769.3,19626.7 12865.7,19393.7 13005.8,19184.1 13184.1,19005.8 13393.7,18865.7 13626.7,18769.3 13750.3,18744.7 13873.9,18720.1 14126.1,18720.1 Z"/> 
<path style="fill:#000000; fill-opacity:1.0;  stroke:#000000; stroke-width:0; stroke-opacity:1;  stroke-linecap:round; stroke-linejoin:round;fill-rule:evenodd;" d="M 13100.5,11335.2 13142.4,11343.5 13260.6,11392.5 13367.1,11463.6 13457.6,11554.2 13528.8,11660.6 13577.8,11778.9 13602.8,11904.5 13602.8,12032.5 13577.8,12158.1 13528.8,12276.4 13457.6,12382.9 13367.1,12473.4 13260.6,12544.5 13142.4,12593.5 13100.5,12601.9 13016.8,12618.5 12888.7,12618.5 12805,12601.9 12763.2,12593.5 12644.9,12544.5 12538.4,12473.4 12447.9,12382.9 12376.7,12276.4 12327.7,12158.1 12302.8,12032.5 12302.8,11904.5 12327.7,11778.9 12376.7,11660.6 12447.9,11554.2 12538.4,11463.6 12644.9,11392.5 12763.2,11343.5 12805,11335.2 12888.7,11318.5 13016.8,11318.5 Z"/> 
</g> 
<rect x="9975" y="9976" width="15914" height="52579" fill="white"/></mask></defs><g id="substrate-silk" style="fill:#000000; stroke:#000000;" mask="url(#pads-mask-silkscreen)"><g style="fill-opacity:1; stroke-opacity:1; stroke-linecap:round; stroke-linejoin:round;" transform="translate(0 0) scale(1 1)">
</g>
<g style="fill-opacity:0.0; stroke-width:-0.000393701; stroke-opacity:1; stroke-linecap:round; stroke-linejoin:round;">
<g>
</g>
</g> 
</g><g id="substrate-outline" style="fill:#000000; stroke:#000000;"><g style="fill-opacity:1; stroke-opacity:1; stroke-linecap:round; stroke-linejoin:round;" transform="translate(0 0) scale(1 1)">
</g>
<g style="fill-opacity:0.0; stroke-width:-0.000393701; stroke-opacity:1; stroke-linecap:round; stroke-linejoin:round;">
</g>
<g style="fill-opacity:0.0; stroke-width:47.2441; stroke-opacity:1; stroke-linecap:round; stroke-linejoin:round;">
<path d="M25866 62519 L10000 62519 "/>
<path d="M25866 10000 L25866 62519 "/>
<path d="M10000 10000 L10000 62519 "/>
<path d="M10000 10000 L25866 10000 "/>
<g>
</g>
<g>
</g>
<g>
</g>
<g>
</g>
<g>
</g>
<g>
</g>
<g>
</g>
<g>
</g>
<g>
</g>
<g>
</g>
</g> 
</g><defs><mask id="hole-mask"><g><rect x="9975" y="9976" fill="white" width="15914" height="52579"/><polyline stroke-linecap="round" stroke="black" stroke-width="1259" points="0.0 0 0.0 0" transform="translate(12952 60551) rotate(-0.0)"/><polyline stroke-linecap="round" stroke="black" stroke-width="1259" points="0.0 0 0.0 0" transform="translate(12952 11968) rotate(-0.0)"/><polyline stroke-linecap="round" stroke="black" stroke-width="2519" points="0.0 0 0.0 0" transform="translate(22000 52000) rotate(-0.0)"/><polyline stroke-linecap="round" stroke="black" stroke-width="2913" points="0.0 0 0.0 0" transform="translate(22000 20000) rotate(-0.0)"/><polyline stroke-linecap="round" stroke="black" stroke-width="2519" points="0.0 0 0.0 0" transform="translate(14000 20000) rotate(-0.0)"/><polyline stroke-linecap="round" stroke="black" stroke-width="2913" points="0.0 0 0.0 0" transform="translate(22000 36000) rotate(-0.0)"/><polyline stroke-linecap="round" stroke="black" stroke-width="2913" points="0.0 0 0.0 0" transform="translate(22000 28000) rotate(-0.0)"/><polyline stroke-linecap="round" stroke="black" stroke-width="2519" points="0.0 0 0.0 0" transform="translate(14000 36000) rotate(-0.0)"/><polyline stroke-linecap="round" stroke="black" stroke-width="2519" points="0.0 0 0.0 0" transform="translate(14000 28000) rotate(-0.0)"/></g></mask></defs></g></g><g transform="translate(-9975, -9977)" id="highlightContainer"/><g transform="translate(-9975, -9977)" id="componentContainer"/></svg>