<?xml version="1.0" encoding="utf-8" standalone="no"?>
<!DOCTYPE svg PUBLIC "-//W3C//DTD SVG 1.1//EN"
  "http://www.w3.org/Graphics/SVG/1.1/DTD/svg11.dtd">
<!-- Created with matplotlib (https://matplotlib.org/) -->
<svg height="402.287625pt" version="1.1" viewBox="0 0 1070.123437 402.287625" width="1070.123437pt" xmlns="http://www.w3.org/2000/svg" xmlns:xlink="http://www.w3.org/1999/xlink">
 <metadata>
  <rdf:RDF xmlns:cc="http://creativecommons.org/ns#" xmlns:dc="http://purl.org/dc/elements/1.1/" xmlns:rdf="http://www.w3.org/1999/02/22-rdf-syntax-ns#">
   <cc:Work>
    <dc:type rdf:resource="http://purl.org/dc/dcmitype/StillImage"/>
    <dc:date>2021-02-25T15:48:56.378846</dc:date>
    <dc:format>image/svg+xml</dc:format>
    <dc:creator>
     <cc:Agent>
      <dc:title>Matplotlib v3.3.4, https://matplotlib.org/</dc:title>
     </cc:Agent>
    </dc:creator>
   </cc:Work>
  </rdf:RDF>
 </metadata>
 <defs>
  <style type="text/css">*{stroke-linecap:butt;stroke-linejoin:round;}</style>
 </defs>
 <g id="figure_1">
  <g id="patch_1">
   <path d="M 0 402.287625 
L 1070.123437 402.287625 
L 1070.123437 0 
L 0 0 
z
" style="fill:none;"/>
  </g>
  <g id="axes_1">
   <g id="patch_2">
    <path d="M 58.523438 333.36 
L 515.068892 333.36 
L 515.068892 7.2 
L 58.523438 7.2 
z
" style="fill:#ffffff;"/>
   </g>
   <g id="matplotlib.axis_1">
    <g id="xtick_1">
     <g id="line2d_1">
      <defs>
       <path d="M 0 0 
L 0 3.5 
" id="m8c5473322a" style="stroke:#000000;stroke-width:0.8;"/>
      </defs>
      <g>
       <use style="stroke:#000000;stroke-width:0.8;" x="79.275504" xlink:href="#m8c5473322a" y="333.36"/>
      </g>
     </g>
     <g id="text_1">
      <!-- 0 -->
      <g transform="translate(76.094254 347.958438)scale(0.1 -0.1)">
       <defs>
        <path d="M 31.78125 66.40625 
Q 24.171875 66.40625 20.328125 58.90625 
Q 16.5 51.421875 16.5 36.375 
Q 16.5 21.390625 20.328125 13.890625 
Q 24.171875 6.390625 31.78125 6.390625 
Q 39.453125 6.390625 43.28125 13.890625 
Q 47.125 21.390625 47.125 36.375 
Q 47.125 51.421875 43.28125 58.90625 
Q 39.453125 66.40625 31.78125 66.40625 
z
M 31.78125 74.21875 
Q 44.046875 74.21875 50.515625 64.515625 
Q 56.984375 54.828125 56.984375 36.375 
Q 56.984375 17.96875 50.515625 8.265625 
Q 44.046875 -1.421875 31.78125 -1.421875 
Q 19.53125 -1.421875 13.0625 8.265625 
Q 6.59375 17.96875 6.59375 36.375 
Q 6.59375 54.828125 13.0625 64.515625 
Q 19.53125 74.21875 31.78125 74.21875 
z
" id="DejaVuSans-48"/>
       </defs>
       <use xlink:href="#DejaVuSans-48"/>
      </g>
     </g>
    </g>
    <g id="xtick_2">
     <g id="line2d_2">
      <g>
       <use style="stroke:#000000;stroke-width:0.8;" x="162.366859" xlink:href="#m8c5473322a" y="333.36"/>
      </g>
     </g>
     <g id="text_2">
      <!-- 200 -->
      <g transform="translate(152.823109 347.958438)scale(0.1 -0.1)">
       <defs>
        <path d="M 19.1875 8.296875 
L 53.609375 8.296875 
L 53.609375 0 
L 7.328125 0 
L 7.328125 8.296875 
Q 12.9375 14.109375 22.625 23.890625 
Q 32.328125 33.6875 34.8125 36.53125 
Q 39.546875 41.84375 41.421875 45.53125 
Q 43.3125 49.21875 43.3125 52.78125 
Q 43.3125 58.59375 39.234375 62.25 
Q 35.15625 65.921875 28.609375 65.921875 
Q 23.96875 65.921875 18.8125 64.3125 
Q 13.671875 62.703125 7.8125 59.421875 
L 7.8125 69.390625 
Q 13.765625 71.78125 18.9375 73 
Q 24.125 74.21875 28.421875 74.21875 
Q 39.75 74.21875 46.484375 68.546875 
Q 53.21875 62.890625 53.21875 53.421875 
Q 53.21875 48.921875 51.53125 44.890625 
Q 49.859375 40.875 45.40625 35.40625 
Q 44.1875 33.984375 37.640625 27.21875 
Q 31.109375 20.453125 19.1875 8.296875 
z
" id="DejaVuSans-50"/>
       </defs>
       <use xlink:href="#DejaVuSans-50"/>
       <use x="63.623047" xlink:href="#DejaVuSans-48"/>
       <use x="127.246094" xlink:href="#DejaVuSans-48"/>
      </g>
     </g>
    </g>
    <g id="xtick_3">
     <g id="line2d_3">
      <g>
       <use style="stroke:#000000;stroke-width:0.8;" x="245.458215" xlink:href="#m8c5473322a" y="333.36"/>
      </g>
     </g>
     <g id="text_3">
      <!-- 400 -->
      <g transform="translate(235.914465 347.958438)scale(0.1 -0.1)">
       <defs>
        <path d="M 37.796875 64.3125 
L 12.890625 25.390625 
L 37.796875 25.390625 
z
M 35.203125 72.90625 
L 47.609375 72.90625 
L 47.609375 25.390625 
L 58.015625 25.390625 
L 58.015625 17.1875 
L 47.609375 17.1875 
L 47.609375 0 
L 37.796875 0 
L 37.796875 17.1875 
L 4.890625 17.1875 
L 4.890625 26.703125 
z
" id="DejaVuSans-52"/>
       </defs>
       <use xlink:href="#DejaVuSans-52"/>
       <use x="63.623047" xlink:href="#DejaVuSans-48"/>
       <use x="127.246094" xlink:href="#DejaVuSans-48"/>
      </g>
     </g>
    </g>
    <g id="xtick_4">
     <g id="line2d_4">
      <g>
       <use style="stroke:#000000;stroke-width:0.8;" x="328.549571" xlink:href="#m8c5473322a" y="333.36"/>
      </g>
     </g>
     <g id="text_4">
      <!-- 600 -->
      <g transform="translate(319.005821 347.958438)scale(0.1 -0.1)">
       <defs>
        <path d="M 33.015625 40.375 
Q 26.375 40.375 22.484375 35.828125 
Q 18.609375 31.296875 18.609375 23.390625 
Q 18.609375 15.53125 22.484375 10.953125 
Q 26.375 6.390625 33.015625 6.390625 
Q 39.65625 6.390625 43.53125 10.953125 
Q 47.40625 15.53125 47.40625 23.390625 
Q 47.40625 31.296875 43.53125 35.828125 
Q 39.65625 40.375 33.015625 40.375 
z
M 52.59375 71.296875 
L 52.59375 62.3125 
Q 48.875 64.0625 45.09375 64.984375 
Q 41.3125 65.921875 37.59375 65.921875 
Q 27.828125 65.921875 22.671875 59.328125 
Q 17.53125 52.734375 16.796875 39.40625 
Q 19.671875 43.65625 24.015625 45.921875 
Q 28.375 48.1875 33.59375 48.1875 
Q 44.578125 48.1875 50.953125 41.515625 
Q 57.328125 34.859375 57.328125 23.390625 
Q 57.328125 12.15625 50.6875 5.359375 
Q 44.046875 -1.421875 33.015625 -1.421875 
Q 20.359375 -1.421875 13.671875 8.265625 
Q 6.984375 17.96875 6.984375 36.375 
Q 6.984375 53.65625 15.1875 63.9375 
Q 23.390625 74.21875 37.203125 74.21875 
Q 40.921875 74.21875 44.703125 73.484375 
Q 48.484375 72.75 52.59375 71.296875 
z
" id="DejaVuSans-54"/>
       </defs>
       <use xlink:href="#DejaVuSans-54"/>
       <use x="63.623047" xlink:href="#DejaVuSans-48"/>
       <use x="127.246094" xlink:href="#DejaVuSans-48"/>
      </g>
     </g>
    </g>
    <g id="xtick_5">
     <g id="line2d_5">
      <g>
       <use style="stroke:#000000;stroke-width:0.8;" x="411.640927" xlink:href="#m8c5473322a" y="333.36"/>
      </g>
     </g>
     <g id="text_5">
      <!-- 800 -->
      <g transform="translate(402.097177 347.958438)scale(0.1 -0.1)">
       <defs>
        <path d="M 31.78125 34.625 
Q 24.75 34.625 20.71875 30.859375 
Q 16.703125 27.09375 16.703125 20.515625 
Q 16.703125 13.921875 20.71875 10.15625 
Q 24.75 6.390625 31.78125 6.390625 
Q 38.8125 6.390625 42.859375 10.171875 
Q 46.921875 13.96875 46.921875 20.515625 
Q 46.921875 27.09375 42.890625 30.859375 
Q 38.875 34.625 31.78125 34.625 
z
M 21.921875 38.8125 
Q 15.578125 40.375 12.03125 44.71875 
Q 8.5 49.078125 8.5 55.328125 
Q 8.5 64.0625 14.71875 69.140625 
Q 20.953125 74.21875 31.78125 74.21875 
Q 42.671875 74.21875 48.875 69.140625 
Q 55.078125 64.0625 55.078125 55.328125 
Q 55.078125 49.078125 51.53125 44.71875 
Q 48 40.375 41.703125 38.8125 
Q 48.828125 37.15625 52.796875 32.3125 
Q 56.78125 27.484375 56.78125 20.515625 
Q 56.78125 9.90625 50.3125 4.234375 
Q 43.84375 -1.421875 31.78125 -1.421875 
Q 19.734375 -1.421875 13.25 4.234375 
Q 6.78125 9.90625 6.78125 20.515625 
Q 6.78125 27.484375 10.78125 32.3125 
Q 14.796875 37.15625 21.921875 38.8125 
z
M 18.3125 54.390625 
Q 18.3125 48.734375 21.84375 45.5625 
Q 25.390625 42.390625 31.78125 42.390625 
Q 38.140625 42.390625 41.71875 45.5625 
Q 45.3125 48.734375 45.3125 54.390625 
Q 45.3125 60.0625 41.71875 63.234375 
Q 38.140625 66.40625 31.78125 66.40625 
Q 25.390625 66.40625 21.84375 63.234375 
Q 18.3125 60.0625 18.3125 54.390625 
z
" id="DejaVuSans-56"/>
       </defs>
       <use xlink:href="#DejaVuSans-56"/>
       <use x="63.623047" xlink:href="#DejaVuSans-48"/>
       <use x="127.246094" xlink:href="#DejaVuSans-48"/>
      </g>
     </g>
    </g>
    <g id="xtick_6">
     <g id="line2d_6">
      <g>
       <use style="stroke:#000000;stroke-width:0.8;" x="494.732283" xlink:href="#m8c5473322a" y="333.36"/>
      </g>
     </g>
     <g id="text_6">
      <!-- 1000 -->
      <g transform="translate(482.007283 347.958438)scale(0.1 -0.1)">
       <defs>
        <path d="M 12.40625 8.296875 
L 28.515625 8.296875 
L 28.515625 63.921875 
L 10.984375 60.40625 
L 10.984375 69.390625 
L 28.421875 72.90625 
L 38.28125 72.90625 
L 38.28125 8.296875 
L 54.390625 8.296875 
L 54.390625 0 
L 12.40625 0 
z
" id="DejaVuSans-49"/>
       </defs>
       <use xlink:href="#DejaVuSans-49"/>
       <use x="63.623047" xlink:href="#DejaVuSans-48"/>
       <use x="127.246094" xlink:href="#DejaVuSans-48"/>
       <use x="190.869141" xlink:href="#DejaVuSans-48"/>
      </g>
     </g>
    </g>
    <g id="text_7">
     <!-- sample(n) -->
     <g transform="translate(261.546946 361.636562)scale(0.1 -0.1)">
      <defs>
       <path d="M 44.28125 53.078125 
L 44.28125 44.578125 
Q 40.484375 46.53125 36.375 47.5 
Q 32.28125 48.484375 27.875 48.484375 
Q 21.1875 48.484375 17.84375 46.4375 
Q 14.5 44.390625 14.5 40.28125 
Q 14.5 37.15625 16.890625 35.375 
Q 19.28125 33.59375 26.515625 31.984375 
L 29.59375 31.296875 
Q 39.15625 29.25 43.1875 25.515625 
Q 47.21875 21.78125 47.21875 15.09375 
Q 47.21875 7.46875 41.1875 3.015625 
Q 35.15625 -1.421875 24.609375 -1.421875 
Q 20.21875 -1.421875 15.453125 -0.5625 
Q 10.6875 0.296875 5.421875 2 
L 5.421875 11.28125 
Q 10.40625 8.6875 15.234375 7.390625 
Q 20.0625 6.109375 24.8125 6.109375 
Q 31.15625 6.109375 34.5625 8.28125 
Q 37.984375 10.453125 37.984375 14.40625 
Q 37.984375 18.0625 35.515625 20.015625 
Q 33.0625 21.96875 24.703125 23.78125 
L 21.578125 24.515625 
Q 13.234375 26.265625 9.515625 29.90625 
Q 5.8125 33.546875 5.8125 39.890625 
Q 5.8125 47.609375 11.28125 51.796875 
Q 16.75 56 26.8125 56 
Q 31.78125 56 36.171875 55.265625 
Q 40.578125 54.546875 44.28125 53.078125 
z
" id="DejaVuSans-115"/>
       <path d="M 34.28125 27.484375 
Q 23.390625 27.484375 19.1875 25 
Q 14.984375 22.515625 14.984375 16.5 
Q 14.984375 11.71875 18.140625 8.90625 
Q 21.296875 6.109375 26.703125 6.109375 
Q 34.1875 6.109375 38.703125 11.40625 
Q 43.21875 16.703125 43.21875 25.484375 
L 43.21875 27.484375 
z
M 52.203125 31.203125 
L 52.203125 0 
L 43.21875 0 
L 43.21875 8.296875 
Q 40.140625 3.328125 35.546875 0.953125 
Q 30.953125 -1.421875 24.3125 -1.421875 
Q 15.921875 -1.421875 10.953125 3.296875 
Q 6 8.015625 6 15.921875 
Q 6 25.140625 12.171875 29.828125 
Q 18.359375 34.515625 30.609375 34.515625 
L 43.21875 34.515625 
L 43.21875 35.40625 
Q 43.21875 41.609375 39.140625 45 
Q 35.0625 48.390625 27.6875 48.390625 
Q 23 48.390625 18.546875 47.265625 
Q 14.109375 46.140625 10.015625 43.890625 
L 10.015625 52.203125 
Q 14.9375 54.109375 19.578125 55.046875 
Q 24.21875 56 28.609375 56 
Q 40.484375 56 46.34375 49.84375 
Q 52.203125 43.703125 52.203125 31.203125 
z
" id="DejaVuSans-97"/>
       <path d="M 52 44.1875 
Q 55.375 50.25 60.0625 53.125 
Q 64.75 56 71.09375 56 
Q 79.640625 56 84.28125 50.015625 
Q 88.921875 44.046875 88.921875 33.015625 
L 88.921875 0 
L 79.890625 0 
L 79.890625 32.71875 
Q 79.890625 40.578125 77.09375 44.375 
Q 74.3125 48.1875 68.609375 48.1875 
Q 61.625 48.1875 57.5625 43.546875 
Q 53.515625 38.921875 53.515625 30.90625 
L 53.515625 0 
L 44.484375 0 
L 44.484375 32.71875 
Q 44.484375 40.625 41.703125 44.40625 
Q 38.921875 48.1875 33.109375 48.1875 
Q 26.21875 48.1875 22.15625 43.53125 
Q 18.109375 38.875 18.109375 30.90625 
L 18.109375 0 
L 9.078125 0 
L 9.078125 54.6875 
L 18.109375 54.6875 
L 18.109375 46.1875 
Q 21.1875 51.21875 25.484375 53.609375 
Q 29.78125 56 35.6875 56 
Q 41.65625 56 45.828125 52.96875 
Q 50 49.953125 52 44.1875 
z
" id="DejaVuSans-109"/>
       <path d="M 18.109375 8.203125 
L 18.109375 -20.796875 
L 9.078125 -20.796875 
L 9.078125 54.6875 
L 18.109375 54.6875 
L 18.109375 46.390625 
Q 20.953125 51.265625 25.265625 53.625 
Q 29.59375 56 35.59375 56 
Q 45.5625 56 51.78125 48.09375 
Q 58.015625 40.1875 58.015625 27.296875 
Q 58.015625 14.40625 51.78125 6.484375 
Q 45.5625 -1.421875 35.59375 -1.421875 
Q 29.59375 -1.421875 25.265625 0.953125 
Q 20.953125 3.328125 18.109375 8.203125 
z
M 48.6875 27.296875 
Q 48.6875 37.203125 44.609375 42.84375 
Q 40.53125 48.484375 33.40625 48.484375 
Q 26.265625 48.484375 22.1875 42.84375 
Q 18.109375 37.203125 18.109375 27.296875 
Q 18.109375 17.390625 22.1875 11.75 
Q 26.265625 6.109375 33.40625 6.109375 
Q 40.53125 6.109375 44.609375 11.75 
Q 48.6875 17.390625 48.6875 27.296875 
z
" id="DejaVuSans-112"/>
       <path d="M 9.421875 75.984375 
L 18.40625 75.984375 
L 18.40625 0 
L 9.421875 0 
z
" id="DejaVuSans-108"/>
       <path d="M 56.203125 29.59375 
L 56.203125 25.203125 
L 14.890625 25.203125 
Q 15.484375 15.921875 20.484375 11.0625 
Q 25.484375 6.203125 34.421875 6.203125 
Q 39.59375 6.203125 44.453125 7.46875 
Q 49.3125 8.734375 54.109375 11.28125 
L 54.109375 2.78125 
Q 49.265625 0.734375 44.1875 -0.34375 
Q 39.109375 -1.421875 33.890625 -1.421875 
Q 20.796875 -1.421875 13.15625 6.1875 
Q 5.515625 13.8125 5.515625 26.8125 
Q 5.515625 40.234375 12.765625 48.109375 
Q 20.015625 56 32.328125 56 
Q 43.359375 56 49.78125 48.890625 
Q 56.203125 41.796875 56.203125 29.59375 
z
M 47.21875 32.234375 
Q 47.125 39.59375 43.09375 43.984375 
Q 39.0625 48.390625 32.421875 48.390625 
Q 24.90625 48.390625 20.390625 44.140625 
Q 15.875 39.890625 15.1875 32.171875 
z
" id="DejaVuSans-101"/>
       <path d="M 31 75.875 
Q 24.46875 64.65625 21.28125 53.65625 
Q 18.109375 42.671875 18.109375 31.390625 
Q 18.109375 20.125 21.3125 9.0625 
Q 24.515625 -2 31 -13.1875 
L 23.1875 -13.1875 
Q 15.875 -1.703125 12.234375 9.375 
Q 8.59375 20.453125 8.59375 31.390625 
Q 8.59375 42.28125 12.203125 53.3125 
Q 15.828125 64.359375 23.1875 75.875 
z
" id="DejaVuSans-40"/>
       <path d="M 54.890625 33.015625 
L 54.890625 0 
L 45.90625 0 
L 45.90625 32.71875 
Q 45.90625 40.484375 42.875 44.328125 
Q 39.84375 48.1875 33.796875 48.1875 
Q 26.515625 48.1875 22.3125 43.546875 
Q 18.109375 38.921875 18.109375 30.90625 
L 18.109375 0 
L 9.078125 0 
L 9.078125 54.6875 
L 18.109375 54.6875 
L 18.109375 46.1875 
Q 21.34375 51.125 25.703125 53.5625 
Q 30.078125 56 35.796875 56 
Q 45.21875 56 50.046875 50.171875 
Q 54.890625 44.34375 54.890625 33.015625 
z
" id="DejaVuSans-110"/>
       <path d="M 8.015625 75.875 
L 15.828125 75.875 
Q 23.140625 64.359375 26.78125 53.3125 
Q 30.421875 42.28125 30.421875 31.390625 
Q 30.421875 20.453125 26.78125 9.375 
Q 23.140625 -1.703125 15.828125 -13.1875 
L 8.015625 -13.1875 
Q 14.5 -2 17.703125 9.0625 
Q 20.90625 20.125 20.90625 31.390625 
Q 20.90625 42.671875 17.703125 53.65625 
Q 14.5 64.65625 8.015625 75.875 
z
" id="DejaVuSans-41"/>
      </defs>
      <use xlink:href="#DejaVuSans-115"/>
      <use x="52.099609" xlink:href="#DejaVuSans-97"/>
      <use x="113.378906" xlink:href="#DejaVuSans-109"/>
      <use x="210.791016" xlink:href="#DejaVuSans-112"/>
      <use x="274.267578" xlink:href="#DejaVuSans-108"/>
      <use x="302.050781" xlink:href="#DejaVuSans-101"/>
      <use x="363.574219" xlink:href="#DejaVuSans-40"/>
      <use x="402.587891" xlink:href="#DejaVuSans-110"/>
      <use x="465.966797" xlink:href="#DejaVuSans-41"/>
     </g>
    </g>
   </g>
   <g id="matplotlib.axis_2">
    <g id="ytick_1">
     <g id="line2d_7">
      <defs>
       <path d="M 0 0 
L -3.5 0 
" id="m5a18ddfe85" style="stroke:#000000;stroke-width:0.8;"/>
      </defs>
      <g>
       <use style="stroke:#000000;stroke-width:0.8;" x="58.523438" xlink:href="#m5a18ddfe85" y="318.933293"/>
      </g>
     </g>
     <g id="text_8">
      <!-- −1.00 -->
      <g transform="translate(20.878125 322.732511)scale(0.1 -0.1)">
       <defs>
        <path d="M 10.59375 35.5 
L 73.1875 35.5 
L 73.1875 27.203125 
L 10.59375 27.203125 
z
" id="DejaVuSans-8722"/>
        <path d="M 10.6875 12.40625 
L 21 12.40625 
L 21 0 
L 10.6875 0 
z
" id="DejaVuSans-46"/>
       </defs>
       <use xlink:href="#DejaVuSans-8722"/>
       <use x="83.789062" xlink:href="#DejaVuSans-49"/>
       <use x="147.412109" xlink:href="#DejaVuSans-46"/>
       <use x="179.199219" xlink:href="#DejaVuSans-48"/>
       <use x="242.822266" xlink:href="#DejaVuSans-48"/>
      </g>
     </g>
    </g>
    <g id="ytick_2">
     <g id="line2d_8">
      <g>
       <use style="stroke:#000000;stroke-width:0.8;" x="58.523438" xlink:href="#m5a18ddfe85" y="281.769969"/>
      </g>
     </g>
     <g id="text_9">
      <!-- −0.75 -->
      <g transform="translate(20.878125 285.569188)scale(0.1 -0.1)">
       <defs>
        <path d="M 8.203125 72.90625 
L 55.078125 72.90625 
L 55.078125 68.703125 
L 28.609375 0 
L 18.3125 0 
L 43.21875 64.59375 
L 8.203125 64.59375 
z
" id="DejaVuSans-55"/>
        <path d="M 10.796875 72.90625 
L 49.515625 72.90625 
L 49.515625 64.59375 
L 19.828125 64.59375 
L 19.828125 46.734375 
Q 21.96875 47.46875 24.109375 47.828125 
Q 26.265625 48.1875 28.421875 48.1875 
Q 40.625 48.1875 47.75 41.5 
Q 54.890625 34.8125 54.890625 23.390625 
Q 54.890625 11.625 47.5625 5.09375 
Q 40.234375 -1.421875 26.90625 -1.421875 
Q 22.3125 -1.421875 17.546875 -0.640625 
Q 12.796875 0.140625 7.71875 1.703125 
L 7.71875 11.625 
Q 12.109375 9.234375 16.796875 8.0625 
Q 21.484375 6.890625 26.703125 6.890625 
Q 35.15625 6.890625 40.078125 11.328125 
Q 45.015625 15.765625 45.015625 23.390625 
Q 45.015625 31 40.078125 35.4375 
Q 35.15625 39.890625 26.703125 39.890625 
Q 22.75 39.890625 18.8125 39.015625 
Q 14.890625 38.140625 10.796875 36.28125 
z
" id="DejaVuSans-53"/>
       </defs>
       <use xlink:href="#DejaVuSans-8722"/>
       <use x="83.789062" xlink:href="#DejaVuSans-48"/>
       <use x="147.412109" xlink:href="#DejaVuSans-46"/>
       <use x="179.199219" xlink:href="#DejaVuSans-55"/>
       <use x="242.822266" xlink:href="#DejaVuSans-53"/>
      </g>
     </g>
    </g>
    <g id="ytick_3">
     <g id="line2d_9">
      <g>
       <use style="stroke:#000000;stroke-width:0.8;" x="58.523438" xlink:href="#m5a18ddfe85" y="244.606646"/>
      </g>
     </g>
     <g id="text_10">
      <!-- −0.50 -->
      <g transform="translate(20.878125 248.405865)scale(0.1 -0.1)">
       <use xlink:href="#DejaVuSans-8722"/>
       <use x="83.789062" xlink:href="#DejaVuSans-48"/>
       <use x="147.412109" xlink:href="#DejaVuSans-46"/>
       <use x="179.199219" xlink:href="#DejaVuSans-53"/>
       <use x="242.822266" xlink:href="#DejaVuSans-48"/>
      </g>
     </g>
    </g>
    <g id="ytick_4">
     <g id="line2d_10">
      <g>
       <use style="stroke:#000000;stroke-width:0.8;" x="58.523438" xlink:href="#m5a18ddfe85" y="207.443323"/>
      </g>
     </g>
     <g id="text_11">
      <!-- −0.25 -->
      <g transform="translate(20.878125 211.242542)scale(0.1 -0.1)">
       <use xlink:href="#DejaVuSans-8722"/>
       <use x="83.789062" xlink:href="#DejaVuSans-48"/>
       <use x="147.412109" xlink:href="#DejaVuSans-46"/>
       <use x="179.199219" xlink:href="#DejaVuSans-50"/>
       <use x="242.822266" xlink:href="#DejaVuSans-53"/>
      </g>
     </g>
    </g>
    <g id="ytick_5">
     <g id="line2d_11">
      <g>
       <use style="stroke:#000000;stroke-width:0.8;" x="58.523438" xlink:href="#m5a18ddfe85" y="170.28"/>
      </g>
     </g>
     <g id="text_12">
      <!-- 0.00 -->
      <g transform="translate(29.257813 174.079219)scale(0.1 -0.1)">
       <use xlink:href="#DejaVuSans-48"/>
       <use x="63.623047" xlink:href="#DejaVuSans-46"/>
       <use x="95.410156" xlink:href="#DejaVuSans-48"/>
       <use x="159.033203" xlink:href="#DejaVuSans-48"/>
      </g>
     </g>
    </g>
    <g id="ytick_6">
     <g id="line2d_12">
      <g>
       <use style="stroke:#000000;stroke-width:0.8;" x="58.523438" xlink:href="#m5a18ddfe85" y="133.116677"/>
      </g>
     </g>
     <g id="text_13">
      <!-- 0.25 -->
      <g transform="translate(29.257813 136.915896)scale(0.1 -0.1)">
       <use xlink:href="#DejaVuSans-48"/>
       <use x="63.623047" xlink:href="#DejaVuSans-46"/>
       <use x="95.410156" xlink:href="#DejaVuSans-50"/>
       <use x="159.033203" xlink:href="#DejaVuSans-53"/>
      </g>
     </g>
    </g>
    <g id="ytick_7">
     <g id="line2d_13">
      <g>
       <use style="stroke:#000000;stroke-width:0.8;" x="58.523438" xlink:href="#m5a18ddfe85" y="95.953354"/>
      </g>
     </g>
     <g id="text_14">
      <!-- 0.50 -->
      <g transform="translate(29.257813 99.752572)scale(0.1 -0.1)">
       <use xlink:href="#DejaVuSans-48"/>
       <use x="63.623047" xlink:href="#DejaVuSans-46"/>
       <use x="95.410156" xlink:href="#DejaVuSans-53"/>
       <use x="159.033203" xlink:href="#DejaVuSans-48"/>
      </g>
     </g>
    </g>
    <g id="ytick_8">
     <g id="line2d_14">
      <g>
       <use style="stroke:#000000;stroke-width:0.8;" x="58.523438" xlink:href="#m5a18ddfe85" y="58.790031"/>
      </g>
     </g>
     <g id="text_15">
      <!-- 0.75 -->
      <g transform="translate(29.257813 62.589249)scale(0.1 -0.1)">
       <use xlink:href="#DejaVuSans-48"/>
       <use x="63.623047" xlink:href="#DejaVuSans-46"/>
       <use x="95.410156" xlink:href="#DejaVuSans-55"/>
       <use x="159.033203" xlink:href="#DejaVuSans-53"/>
      </g>
     </g>
    </g>
    <g id="ytick_9">
     <g id="line2d_15">
      <g>
       <use style="stroke:#000000;stroke-width:0.8;" x="58.523438" xlink:href="#m5a18ddfe85" y="21.626707"/>
      </g>
     </g>
     <g id="text_16">
      <!-- 1.00 -->
      <g transform="translate(29.257813 25.425926)scale(0.1 -0.1)">
       <use xlink:href="#DejaVuSans-49"/>
       <use x="63.623047" xlink:href="#DejaVuSans-46"/>
       <use x="95.410156" xlink:href="#DejaVuSans-48"/>
       <use x="159.033203" xlink:href="#DejaVuSans-48"/>
      </g>
     </g>
    </g>
    <g id="text_17">
     <!-- voltage(V) -->
     <g transform="translate(14.798438 196.284687)rotate(-90)scale(0.1 -0.1)">
      <defs>
       <path d="M 2.984375 54.6875 
L 12.5 54.6875 
L 29.59375 8.796875 
L 46.6875 54.6875 
L 56.203125 54.6875 
L 35.6875 0 
L 23.484375 0 
z
" id="DejaVuSans-118"/>
       <path d="M 30.609375 48.390625 
Q 23.390625 48.390625 19.1875 42.75 
Q 14.984375 37.109375 14.984375 27.296875 
Q 14.984375 17.484375 19.15625 11.84375 
Q 23.34375 6.203125 30.609375 6.203125 
Q 37.796875 6.203125 41.984375 11.859375 
Q 46.1875 17.53125 46.1875 27.296875 
Q 46.1875 37.015625 41.984375 42.703125 
Q 37.796875 48.390625 30.609375 48.390625 
z
M 30.609375 56 
Q 42.328125 56 49.015625 48.375 
Q 55.71875 40.765625 55.71875 27.296875 
Q 55.71875 13.875 49.015625 6.21875 
Q 42.328125 -1.421875 30.609375 -1.421875 
Q 18.84375 -1.421875 12.171875 6.21875 
Q 5.515625 13.875 5.515625 27.296875 
Q 5.515625 40.765625 12.171875 48.375 
Q 18.84375 56 30.609375 56 
z
" id="DejaVuSans-111"/>
       <path d="M 18.3125 70.21875 
L 18.3125 54.6875 
L 36.8125 54.6875 
L 36.8125 47.703125 
L 18.3125 47.703125 
L 18.3125 18.015625 
Q 18.3125 11.328125 20.140625 9.421875 
Q 21.96875 7.515625 27.59375 7.515625 
L 36.8125 7.515625 
L 36.8125 0 
L 27.59375 0 
Q 17.1875 0 13.234375 3.875 
Q 9.28125 7.765625 9.28125 18.015625 
L 9.28125 47.703125 
L 2.6875 47.703125 
L 2.6875 54.6875 
L 9.28125 54.6875 
L 9.28125 70.21875 
z
" id="DejaVuSans-116"/>
       <path d="M 45.40625 27.984375 
Q 45.40625 37.75 41.375 43.109375 
Q 37.359375 48.484375 30.078125 48.484375 
Q 22.859375 48.484375 18.828125 43.109375 
Q 14.796875 37.75 14.796875 27.984375 
Q 14.796875 18.265625 18.828125 12.890625 
Q 22.859375 7.515625 30.078125 7.515625 
Q 37.359375 7.515625 41.375 12.890625 
Q 45.40625 18.265625 45.40625 27.984375 
z
M 54.390625 6.78125 
Q 54.390625 -7.171875 48.1875 -13.984375 
Q 42 -20.796875 29.203125 -20.796875 
Q 24.46875 -20.796875 20.265625 -20.09375 
Q 16.0625 -19.390625 12.109375 -17.921875 
L 12.109375 -9.1875 
Q 16.0625 -11.328125 19.921875 -12.34375 
Q 23.78125 -13.375 27.78125 -13.375 
Q 36.625 -13.375 41.015625 -8.765625 
Q 45.40625 -4.15625 45.40625 5.171875 
L 45.40625 9.625 
Q 42.625 4.78125 38.28125 2.390625 
Q 33.9375 0 27.875 0 
Q 17.828125 0 11.671875 7.65625 
Q 5.515625 15.328125 5.515625 27.984375 
Q 5.515625 40.671875 11.671875 48.328125 
Q 17.828125 56 27.875 56 
Q 33.9375 56 38.28125 53.609375 
Q 42.625 51.21875 45.40625 46.390625 
L 45.40625 54.6875 
L 54.390625 54.6875 
z
" id="DejaVuSans-103"/>
       <path d="M 28.609375 0 
L 0.78125 72.90625 
L 11.078125 72.90625 
L 34.1875 11.53125 
L 57.328125 72.90625 
L 67.578125 72.90625 
L 39.796875 0 
z
" id="DejaVuSans-86"/>
      </defs>
      <use xlink:href="#DejaVuSans-118"/>
      <use x="59.179688" xlink:href="#DejaVuSans-111"/>
      <use x="120.361328" xlink:href="#DejaVuSans-108"/>
      <use x="148.144531" xlink:href="#DejaVuSans-116"/>
      <use x="187.353516" xlink:href="#DejaVuSans-97"/>
      <use x="248.632812" xlink:href="#DejaVuSans-103"/>
      <use x="312.109375" xlink:href="#DejaVuSans-101"/>
      <use x="373.632812" xlink:href="#DejaVuSans-40"/>
      <use x="412.646484" xlink:href="#DejaVuSans-86"/>
      <use x="481.054688" xlink:href="#DejaVuSans-41"/>
     </g>
    </g>
   </g>
   <g id="line2d_16">
    <path clip-path="url(#p7adfd916a4)" d="M 79.275504 170.28 
L 79.69096 170.047721 
L 80.106417 169.380092 
L 80.937331 167.125868 
L 81.768244 164.688286 
L 82.183701 163.859765 
L 82.599158 163.521862 
L 83.014615 163.806405 
L 83.430071 164.793602 
L 83.845528 166.500833 
L 84.676442 171.800131 
L 86.338269 184.619789 
L 86.753726 186.759316 
L 87.169182 187.94925 
L 87.584639 187.999322 
L 88.000096 186.792922 
L 88.415553 184.301565 
L 88.83101 180.593227 
L 89.661923 170.28 
L 91.32375 147.536479 
L 91.739207 143.788464 
L 92.154664 141.565009 
L 92.570121 141.118302 
L 92.985577 142.590343 
L 93.401034 145.996848 
L 93.816491 151.21947 
L 94.647404 165.987569 
L 96.309232 199.461268 
L 96.724688 205.364623 
L 97.140145 209.253091 
L 97.555602 210.775138 
L 97.971059 209.723116 
L 98.386515 206.053374 
L 98.801972 199.895893 
L 99.632886 181.482781 
L 101.294713 137.015815 
L 101.71017 128.507111 
L 102.125626 122.390018 
L 102.541083 119.14879 
L 102.95654 119.094897 
L 103.371997 122.340635 
L 103.787454 128.785222 
L 104.618367 149.815858 
L 106.695651 216.428633 
L 107.111108 225.245557 
L 107.526565 230.787219 
L 107.942021 232.603902 
L 108.357478 230.47569 
L 108.772935 224.432966 
L 109.188392 214.76098 
L 110.019305 186.856087 
L 111.681132 122.381083 
L 112.096589 110.506331 
L 112.512046 102.170782 
L 112.927503 97.991591 
L 113.34296 98.331838 
L 113.758416 103.271353 
L 114.173873 112.595336 
L 115.004787 142.128363 
L 117.082071 232.259666 
L 117.497527 243.773056 
L 117.912984 250.831459 
L 118.328441 252.898044 
L 118.743898 249.746045 
L 119.159354 241.479132 
L 119.574811 228.530797 
L 120.405725 191.821234 
L 122.067552 108.925781 
L 122.483009 93.977376 
L 122.898465 83.628621 
L 123.313922 78.614373 
L 123.729379 79.340383 
L 124.144836 85.852047 
L 124.560293 97.825837 
L 125.391206 135.134055 
L 127.46849 246.564553 
L 127.883947 260.490913 
L 128.299404 268.892255 
L 128.71486 271.157856 
L 129.130317 267.059683 
L 129.545774 256.772139 
L 129.961231 240.866286 
L 130.792144 196.255965 
L 132.453971 96.981223 
L 132.869428 79.327245 
L 133.284885 67.220105 
L 133.700342 61.494267 
L 134.115798 62.588162 
L 134.531255 70.511637 
L 134.946712 84.840401 
L 135.777626 129.005157 
L 137.854909 258.991062 
L 138.270366 274.987477 
L 138.685823 284.524889 
L 139.10128 286.93372 
L 139.516737 281.990285 
L 139.932193 269.935423 
L 140.34765 251.463707 
L 141.178564 200.051081 
L 142.840391 86.841525 
L 143.255848 66.916673 
L 143.671304 53.349265 
L 144.086761 47.052826 
L 144.502218 48.487672 
L 144.917675 57.627855 
L 145.333131 73.958771 
L 146.164045 123.892582 
L 148.241329 269.23321 
L 148.656786 286.905796 
L 149.072243 297.344436 
L 149.487699 299.837182 
L 149.903156 294.170208 
L 150.318613 280.64486 
L 150.73407 260.062115 
L 151.564983 203.113135 
L 153.22681 78.756359 
L 153.642267 57.051249 
L 154.057724 42.357648 
L 154.473181 35.645648 
L 154.888637 37.386113 
L 155.304094 47.517943 
L 155.719551 65.448889 
L 156.550465 119.92222 
L 158.627748 277.038801 
L 159.043205 295.952401 
L 159.458662 307.035234 
L 159.874119 309.550517 
L 160.289576 303.299543 
L 160.705032 288.636747 
L 161.120489 266.44979 
L 161.951403 205.366728 
L 163.61323 72.924808 
L 164.028687 49.973892 
L 164.444143 34.515904 
L 164.8596 27.553614 
L 165.275057 29.556843 
L 165.690514 40.43084 
L 166.10597 59.520297 
L 166.936884 117.191833 
L 168.598711 255.551911 
L 169.429625 301.904534 
L 169.845081 313.358664 
L 170.260538 315.834549 
L 170.675995 309.153495 
L 171.091452 293.714299 
L 171.506909 270.469445 
L 172.337822 206.756369 
L 173.999649 69.490466 
L 174.415106 45.858872 
L 174.830563 30.017123 
L 175.24602 22.975977 
L 175.661476 25.192644 
L 176.076933 36.541055 
L 176.49239 56.318977 
L 177.323303 115.768653 
L 178.985131 257.483796 
L 179.816044 304.615634 
L 180.231501 316.159023 
L 180.646958 318.534545 
L 181.062414 311.587921 
L 181.477871 295.752488 
L 181.893328 272.022104 
L 182.724242 207.247841 
L 184.386069 68.537896 
L 184.801526 44.807512 
L 185.216982 28.972079 
L 185.632439 22.025455 
L 186.047896 24.400977 
L 186.463353 35.944366 
L 186.878809 55.923755 
L 187.709723 115.687724 
L 189.37155 257.268434 
L 190.202464 304.018945 
L 190.61792 315.367356 
L 191.033377 317.584023 
L 191.448834 310.542877 
L 191.864291 294.701128 
L 192.695204 241.147771 
L 194.772488 70.090555 
L 195.187945 46.845701 
L 195.603402 31.406505 
L 196.018859 24.725451 
L 196.434315 27.201336 
L 196.849772 38.655466 
L 197.265229 58.344363 
L 198.096142 116.951037 
L 199.75797 254.911129 
L 200.173426 281.039703 
L 200.588883 300.12916 
L 201.00434 311.003157 
L 201.419797 313.006386 
L 201.835253 306.044096 
L 202.25071 290.586108 
L 203.081624 238.661927 
L 205.158908 74.11021 
L 205.574364 51.923253 
L 205.989821 37.260457 
L 206.405278 31.009483 
L 206.820735 33.524766 
L 207.236192 44.607599 
L 207.651648 63.521199 
L 208.482562 119.527487 
L 210.144389 250.469924 
L 210.559846 275.111111 
L 210.975303 293.042057 
L 211.390759 303.173887 
L 211.806216 304.914352 
L 212.221673 298.202352 
L 212.63713 283.508751 
L 213.468043 234.492293 
L 215.545327 80.497885 
L 215.960784 59.91514 
L 216.376241 46.389792 
L 216.791697 40.722818 
L 217.207154 43.215564 
L 217.622611 53.654204 
L 218.038068 71.32679 
L 218.868981 123.353632 
L 220.530809 244.054177 
L 220.946265 266.601229 
L 221.361722 282.932145 
L 221.777179 292.072328 
L 222.192636 293.507174 
L 222.608092 287.210735 
L 223.023549 273.643327 
L 223.854463 228.741539 
L 225.931747 89.096293 
L 226.347203 70.624577 
L 226.76266 58.569715 
L 227.178117 53.62628 
L 227.593574 56.035111 
L 228.009031 65.572523 
L 228.424487 81.568938 
L 229.255401 128.335259 
L 230.917228 235.821865 
L 231.332685 255.719599 
L 231.748142 270.048363 
L 232.163598 277.971838 
L 232.579055 279.065733 
L 232.994512 273.339895 
L 233.409969 261.232755 
L 234.240882 221.551269 
L 236.318166 99.693714 
L 236.733623 83.787861 
L 237.14908 73.500317 
L 237.564536 69.402144 
L 237.979993 71.667745 
L 238.39545 80.069087 
L 238.810907 93.995447 
L 239.64182 134.349706 
L 241.303647 225.975694 
L 241.719104 242.734163 
L 242.134561 254.707953 
L 242.550018 261.219617 
L 242.965475 261.945627 
L 243.380931 256.931379 
L 243.796388 246.582624 
L 244.627302 213.098529 
L 246.704586 112.029203 
L 247.120042 99.080868 
L 247.535499 90.813955 
L 247.950956 87.661956 
L 248.366413 89.728541 
L 248.781869 96.786944 
L 249.197326 108.300334 
L 250.02824 141.248875 
L 251.690067 214.758111 
L 252.105524 227.964664 
L 252.52098 237.288647 
L 252.936437 242.228162 
L 253.351894 242.568409 
L 253.767351 238.389218 
L 254.182808 230.053669 
L 255.013721 203.591455 
L 257.091005 125.79902 
L 257.506462 116.127034 
L 257.921919 110.08431 
L 258.337375 107.956098 
L 258.752832 109.772781 
L 259.168289 115.314443 
L 259.583746 124.131367 
L 260.414659 148.862887 
L 262.076486 202.445329 
L 262.491943 211.774778 
L 262.9074 218.219365 
L 263.322857 221.465103 
L 263.738314 221.41121 
L 264.15377 218.169982 
L 264.569227 212.052889 
L 265.400141 193.264142 
L 267.061968 149.007584 
L 267.892881 134.506626 
L 268.308338 130.836884 
L 268.723795 129.784862 
L 269.139252 131.306909 
L 269.554708 135.195377 
L 270.385622 148.550419 
L 272.462906 189.34053 
L 272.878363 194.563152 
L 273.293819 197.969657 
L 273.709276 199.441698 
L 274.124733 198.994991 
L 274.54019 196.771536 
L 274.955647 193.023521 
L 275.78656 182.370884 
L 277.03293 164.726375 
L 277.863844 156.258435 
L 278.279301 153.767078 
L 278.694758 152.560678 
L 279.110214 152.61075 
L 279.525671 153.800684 
L 279.941128 155.940211 
L 280.772041 162.057172 
L 282.018412 171.683429 
L 282.433869 174.059167 
L 282.849325 175.766398 
L 283.264782 176.753595 
L 283.680239 177.038138 
L 284.095696 176.700235 
L 284.511152 175.871714 
L 286.17298 171.179908 
L 286.588436 170.512279 
L 287.003893 170.28 
L 287.41935 170.512279 
L 287.834807 171.179908 
L 288.66572 173.434132 
L 289.496634 175.871714 
L 289.912091 176.700235 
L 290.327547 177.038138 
L 290.743004 176.753595 
L 291.158461 175.766398 
L 291.573918 174.059167 
L 292.404831 168.759869 
L 294.066658 155.940211 
L 294.482115 153.800684 
L 294.897572 152.61075 
L 295.313029 152.560678 
L 295.728486 153.767078 
L 296.143942 156.258435 
L 296.559399 159.966773 
L 297.390313 170.28 
L 299.05214 193.023521 
L 299.467597 196.771536 
L 299.883053 198.994991 
L 300.29851 199.441698 
L 300.713967 197.969657 
L 301.129424 194.563152 
L 301.54488 189.34053 
L 302.375794 174.572431 
L 304.037621 141.098732 
L 304.453078 135.195377 
L 304.868535 131.306909 
L 305.283991 129.784862 
L 305.699448 130.836884 
L 306.114905 134.506626 
L 306.530362 140.664107 
L 307.361275 159.077219 
L 309.023102 203.544185 
L 309.438559 212.052889 
L 309.854016 218.169982 
L 310.269473 221.41121 
L 310.68493 221.465103 
L 311.100386 218.219365 
L 311.515843 211.774778 
L 312.346757 190.744142 
L 314.424041 124.131367 
L 314.839497 115.314443 
L 315.254954 109.772781 
L 315.670411 107.956098 
L 316.085868 110.08431 
L 316.501324 116.127034 
L 316.916781 125.79902 
L 317.747695 153.703913 
L 319.409522 218.178917 
L 319.824979 230.053669 
L 320.240435 238.389218 
L 320.655892 242.568409 
L 321.071349 242.228162 
L 321.486806 237.288647 
L 321.902263 227.964664 
L 322.733176 198.431637 
L 324.81046 108.300334 
L 325.225917 96.786944 
L 325.641374 89.728541 
L 326.05683 87.661956 
L 326.472287 90.813955 
L 326.887744 99.080868 
L 327.303201 112.029203 
L 328.134114 148.738766 
L 329.795941 231.634219 
L 330.211398 246.582624 
L 330.626855 256.931379 
L 331.042312 261.945627 
L 331.457769 261.219617 
L 331.873225 254.707953 
L 332.288682 242.734163 
L 333.119596 205.425945 
L 335.19688 93.995447 
L 335.612336 80.069087 
L 336.027793 71.667745 
L 336.44325 69.402144 
L 336.858707 73.500317 
L 337.274163 83.787861 
L 337.68962 99.693714 
L 338.520534 144.304035 
L 340.182361 243.578777 
L 340.597818 261.232755 
L 341.013274 273.339895 
L 341.428731 279.065733 
L 341.844188 277.971838 
L 342.259645 270.048363 
L 342.675102 255.719599 
L 343.506015 211.554843 
L 345.583299 81.568938 
L 345.998756 65.572523 
L 346.414213 56.035111 
L 346.829669 53.62628 
L 347.245126 58.569715 
L 347.660583 70.624577 
L 348.07604 89.096293 
L 348.906953 140.508919 
L 350.56878 253.718475 
L 350.984237 273.643327 
L 351.399694 287.210735 
L 351.815151 293.507174 
L 352.230607 292.072328 
L 352.646064 282.932145 
L 353.061521 266.601229 
L 353.892435 216.667418 
L 355.969718 71.32679 
L 356.385175 53.654204 
L 356.800632 43.215564 
L 357.216089 40.722818 
L 357.631546 46.389792 
L 358.047002 59.91514 
L 358.462459 80.497885 
L 359.293373 137.446865 
L 360.9552 261.803641 
L 361.370657 283.508751 
L 361.786113 298.202352 
L 362.20157 304.914352 
L 362.617027 303.173887 
L 363.032484 293.042057 
L 363.447941 275.111111 
L 364.278854 220.63778 
L 366.356138 63.521199 
L 366.771595 44.607599 
L 367.187052 33.524766 
L 367.602508 31.009483 
L 368.017965 37.260457 
L 368.433422 51.923253 
L 368.848879 74.11021 
L 369.679792 135.193272 
L 371.341619 267.635192 
L 371.757076 290.586108 
L 372.172533 306.044096 
L 372.58799 313.006386 
L 373.003446 311.003157 
L 373.418903 300.12916 
L 373.83436 281.039703 
L 374.665274 223.368167 
L 376.327101 85.008089 
L 377.158014 38.655466 
L 377.573471 27.201336 
L 377.988928 24.725451 
L 378.404385 31.406505 
L 378.819841 46.845701 
L 379.235298 70.090555 
L 380.066212 133.803631 
L 381.728039 271.069534 
L 382.143496 294.701128 
L 382.558952 310.542877 
L 382.974409 317.584023 
L 383.389866 315.367356 
L 383.805323 304.018945 
L 384.220779 284.241023 
L 385.051693 224.791347 
L 386.71352 83.076204 
L 387.544434 35.944366 
L 387.95989 24.400977 
L 388.375347 22.025455 
L 388.790804 28.972079 
L 389.206261 44.807512 
L 389.621718 68.537896 
L 390.452631 133.312159 
L 392.114458 272.022104 
L 392.529915 295.752488 
L 392.945372 311.587921 
L 393.360829 318.534545 
L 393.776285 316.159023 
L 394.191742 304.615634 
L 394.607199 284.636245 
L 395.438113 224.872276 
L 397.09994 83.291566 
L 397.930853 36.541055 
L 398.34631 25.192644 
L 398.761767 22.975977 
L 399.177224 30.017123 
L 399.59268 45.858872 
L 400.423594 99.412229 
L 402.500878 270.469445 
L 402.916335 293.714299 
L 403.331791 309.153495 
L 403.747248 315.834549 
L 404.162705 313.358664 
L 404.578162 301.904534 
L 404.993618 282.215637 
L 405.824532 223.608963 
L 407.486359 85.648871 
L 407.901816 59.520297 
L 408.317273 40.43084 
L 408.732729 29.556843 
L 409.148186 27.553614 
L 409.563643 34.515904 
L 409.9791 49.973892 
L 410.810013 101.898073 
L 412.887297 266.44979 
L 413.302754 288.636747 
L 413.718211 303.299543 
L 414.133668 309.550517 
L 414.549124 307.035234 
L 414.964581 295.952401 
L 415.380038 277.038801 
L 416.210951 221.032513 
L 417.872779 90.090076 
L 418.288235 65.448889 
L 418.703692 47.517943 
L 419.119149 37.386113 
L 419.534606 35.645648 
L 419.950062 42.357648 
L 420.365519 57.051249 
L 421.196433 106.067707 
L 423.273717 260.062115 
L 423.689173 280.64486 
L 424.10463 294.170208 
L 424.520087 299.837182 
L 424.935544 297.344436 
L 425.351001 286.905796 
L 425.766457 269.23321 
L 426.597371 217.206368 
L 428.259198 96.505823 
L 428.674655 73.958771 
L 429.090112 57.627855 
L 429.505568 48.487672 
L 429.921025 47.052826 
L 430.336482 53.349265 
L 430.751939 66.916673 
L 431.582852 111.818461 
L 433.660136 251.463707 
L 434.075593 269.935423 
L 434.49105 281.990285 
L 434.906507 286.93372 
L 435.321963 284.524889 
L 435.73742 274.987477 
L 436.152877 258.991062 
L 436.98379 212.224741 
L 438.645618 104.738135 
L 439.061074 84.840401 
L 439.476531 70.511637 
L 439.891988 62.588162 
L 440.307445 61.494267 
L 440.722901 67.220105 
L 441.138358 79.327245 
L 441.969272 119.008731 
L 444.046556 240.866286 
L 444.462012 256.772139 
L 444.877469 267.059683 
L 445.292926 271.157856 
L 445.708383 268.892255 
L 446.12384 260.490913 
L 446.539296 246.564553 
L 447.37021 206.210294 
L 449.032037 114.584306 
L 449.447494 97.825837 
L 449.862951 85.852047 
L 450.278407 79.340383 
L 450.693864 78.614373 
L 451.109321 83.628621 
L 451.524778 93.977376 
L 452.355691 127.461471 
L 454.432975 228.530797 
L 454.848432 241.479132 
L 455.263889 249.746045 
L 455.679345 252.898044 
L 456.094802 250.831459 
L 456.510259 243.773056 
L 456.925716 232.259666 
L 457.756629 199.311125 
L 459.418456 125.801889 
L 459.833913 112.595336 
L 460.24937 103.271353 
L 460.664827 98.331838 
L 461.080284 97.991591 
L 461.49574 102.170782 
L 461.911197 110.506331 
L 462.742111 136.968545 
L 464.819395 214.76098 
L 465.234851 224.432966 
L 465.650308 230.47569 
L 466.065765 232.603902 
L 466.481222 230.787219 
L 466.896679 225.245557 
L 467.312135 216.428633 
L 468.143049 191.697113 
L 469.804876 138.114671 
L 470.220333 128.785222 
L 470.63579 122.340635 
L 471.051246 119.094897 
L 471.466703 119.14879 
L 471.88216 122.390018 
L 472.297617 128.507111 
L 473.12853 147.295858 
L 474.790357 191.552416 
L 475.621271 206.053374 
L 476.036728 209.723116 
L 476.452184 210.775138 
L 476.867641 209.253091 
L 477.283098 205.364623 
L 478.114012 192.009581 
L 480.191295 151.21947 
L 480.606752 145.996848 
L 481.022209 142.590343 
L 481.437666 141.118302 
L 481.853123 141.565009 
L 482.268579 143.788464 
L 482.684036 147.536479 
L 483.51495 158.189116 
L 484.76132 175.833625 
L 485.592234 184.301565 
L 486.00769 186.792922 
L 486.423147 187.999322 
L 486.838604 187.94925 
L 487.254061 186.759316 
L 487.669517 184.619789 
L 488.500431 178.502828 
L 489.746801 168.876571 
L 490.162258 166.500833 
L 490.577715 164.793602 
L 490.993172 163.806405 
L 491.408628 163.521862 
L 491.824085 163.859765 
L 492.239542 164.688286 
L 493.901369 169.380092 
L 494.316826 170.047721 
L 494.316826 170.047721 
" style="fill:none;stroke:#1f77b4;stroke-linecap:square;stroke-width:1.5;"/>
   </g>
   <g id="patch_3">
    <path d="M 58.523438 333.36 
L 58.523438 7.2 
" style="fill:none;stroke:#000000;stroke-linecap:square;stroke-linejoin:miter;stroke-width:0.8;"/>
   </g>
   <g id="patch_4">
    <path d="M 515.068892 333.36 
L 515.068892 7.2 
" style="fill:none;stroke:#000000;stroke-linecap:square;stroke-linejoin:miter;stroke-width:0.8;"/>
   </g>
   <g id="patch_5">
    <path d="M 58.523438 333.36 
L 515.068892 333.36 
" style="fill:none;stroke:#000000;stroke-linecap:square;stroke-linejoin:miter;stroke-width:0.8;"/>
   </g>
   <g id="patch_6">
    <path d="M 58.523438 7.2 
L 515.068892 7.2 
" style="fill:none;stroke:#000000;stroke-linecap:square;stroke-linejoin:miter;stroke-width:0.8;"/>
   </g>
   <g id="text_18">
    <!-- multiplication -->
    <g transform="translate(245.85179 392.592)scale(0.12 -0.12)">
     <defs>
      <path d="M 8.5 21.578125 
L 8.5 54.6875 
L 17.484375 54.6875 
L 17.484375 21.921875 
Q 17.484375 14.15625 20.5 10.265625 
Q 23.53125 6.390625 29.59375 6.390625 
Q 36.859375 6.390625 41.078125 11.03125 
Q 45.3125 15.671875 45.3125 23.6875 
L 45.3125 54.6875 
L 54.296875 54.6875 
L 54.296875 0 
L 45.3125 0 
L 45.3125 8.40625 
Q 42.046875 3.421875 37.71875 1 
Q 33.40625 -1.421875 27.6875 -1.421875 
Q 18.265625 -1.421875 13.375 4.4375 
Q 8.5 10.296875 8.5 21.578125 
z
M 31.109375 56 
z
" id="DejaVuSans-117"/>
      <path d="M 9.421875 54.6875 
L 18.40625 54.6875 
L 18.40625 0 
L 9.421875 0 
z
M 9.421875 75.984375 
L 18.40625 75.984375 
L 18.40625 64.59375 
L 9.421875 64.59375 
z
" id="DejaVuSans-105"/>
      <path d="M 48.78125 52.59375 
L 48.78125 44.1875 
Q 44.96875 46.296875 41.140625 47.34375 
Q 37.3125 48.390625 33.40625 48.390625 
Q 24.65625 48.390625 19.8125 42.84375 
Q 14.984375 37.3125 14.984375 27.296875 
Q 14.984375 17.28125 19.8125 11.734375 
Q 24.65625 6.203125 33.40625 6.203125 
Q 37.3125 6.203125 41.140625 7.25 
Q 44.96875 8.296875 48.78125 10.40625 
L 48.78125 2.09375 
Q 45.015625 0.34375 40.984375 -0.53125 
Q 36.96875 -1.421875 32.421875 -1.421875 
Q 20.0625 -1.421875 12.78125 6.34375 
Q 5.515625 14.109375 5.515625 27.296875 
Q 5.515625 40.671875 12.859375 48.328125 
Q 20.21875 56 33.015625 56 
Q 37.15625 56 41.109375 55.140625 
Q 45.0625 54.296875 48.78125 52.59375 
z
" id="DejaVuSans-99"/>
     </defs>
     <use xlink:href="#DejaVuSans-109"/>
     <use x="97.412109" xlink:href="#DejaVuSans-117"/>
     <use x="160.791016" xlink:href="#DejaVuSans-108"/>
     <use x="188.574219" xlink:href="#DejaVuSans-116"/>
     <use x="227.783203" xlink:href="#DejaVuSans-105"/>
     <use x="255.566406" xlink:href="#DejaVuSans-112"/>
     <use x="319.042969" xlink:href="#DejaVuSans-108"/>
     <use x="346.826172" xlink:href="#DejaVuSans-105"/>
     <use x="374.609375" xlink:href="#DejaVuSans-99"/>
     <use x="429.589844" xlink:href="#DejaVuSans-97"/>
     <use x="490.869141" xlink:href="#DejaVuSans-116"/>
     <use x="530.078125" xlink:href="#DejaVuSans-105"/>
     <use x="557.861328" xlink:href="#DejaVuSans-111"/>
     <use x="619.042969" xlink:href="#DejaVuSans-110"/>
    </g>
   </g>
  </g>
  <g id="axes_2">
   <g id="patch_7">
    <path d="M 606.377983 333.36 
L 1062.923437 333.36 
L 1062.923437 7.2 
L 606.377983 7.2 
z
" style="fill:#ffffff;"/>
   </g>
   <g id="matplotlib.axis_3">
    <g id="xtick_7">
     <g id="line2d_17">
      <g>
       <use style="stroke:#000000;stroke-width:0.8;" x="627.130049" xlink:href="#m8c5473322a" y="333.36"/>
      </g>
     </g>
     <g id="text_19">
      <!-- 0 -->
      <g transform="translate(623.948799 347.958438)scale(0.1 -0.1)">
       <use xlink:href="#DejaVuSans-48"/>
      </g>
     </g>
    </g>
    <g id="xtick_8">
     <g id="line2d_18">
      <g>
       <use style="stroke:#000000;stroke-width:0.8;" x="710.221405" xlink:href="#m8c5473322a" y="333.36"/>
      </g>
     </g>
     <g id="text_20">
      <!-- 200 -->
      <g transform="translate(700.677655 347.958438)scale(0.1 -0.1)">
       <use xlink:href="#DejaVuSans-50"/>
       <use x="63.623047" xlink:href="#DejaVuSans-48"/>
       <use x="127.246094" xlink:href="#DejaVuSans-48"/>
      </g>
     </g>
    </g>
    <g id="xtick_9">
     <g id="line2d_19">
      <g>
       <use style="stroke:#000000;stroke-width:0.8;" x="793.312761" xlink:href="#m8c5473322a" y="333.36"/>
      </g>
     </g>
     <g id="text_21">
      <!-- 400 -->
      <g transform="translate(783.769011 347.958438)scale(0.1 -0.1)">
       <use xlink:href="#DejaVuSans-52"/>
       <use x="63.623047" xlink:href="#DejaVuSans-48"/>
       <use x="127.246094" xlink:href="#DejaVuSans-48"/>
      </g>
     </g>
    </g>
    <g id="xtick_10">
     <g id="line2d_20">
      <g>
       <use style="stroke:#000000;stroke-width:0.8;" x="876.404117" xlink:href="#m8c5473322a" y="333.36"/>
      </g>
     </g>
     <g id="text_22">
      <!-- 600 -->
      <g transform="translate(866.860367 347.958438)scale(0.1 -0.1)">
       <use xlink:href="#DejaVuSans-54"/>
       <use x="63.623047" xlink:href="#DejaVuSans-48"/>
       <use x="127.246094" xlink:href="#DejaVuSans-48"/>
      </g>
     </g>
    </g>
    <g id="xtick_11">
     <g id="line2d_21">
      <g>
       <use style="stroke:#000000;stroke-width:0.8;" x="959.495472" xlink:href="#m8c5473322a" y="333.36"/>
      </g>
     </g>
     <g id="text_23">
      <!-- 800 -->
      <g transform="translate(949.951722 347.958438)scale(0.1 -0.1)">
       <use xlink:href="#DejaVuSans-56"/>
       <use x="63.623047" xlink:href="#DejaVuSans-48"/>
       <use x="127.246094" xlink:href="#DejaVuSans-48"/>
      </g>
     </g>
    </g>
    <g id="xtick_12">
     <g id="line2d_22">
      <g>
       <use style="stroke:#000000;stroke-width:0.8;" x="1042.586828" xlink:href="#m8c5473322a" y="333.36"/>
      </g>
     </g>
     <g id="text_24">
      <!-- 1000 -->
      <g transform="translate(1029.861828 347.958438)scale(0.1 -0.1)">
       <use xlink:href="#DejaVuSans-49"/>
       <use x="63.623047" xlink:href="#DejaVuSans-48"/>
       <use x="127.246094" xlink:href="#DejaVuSans-48"/>
       <use x="190.869141" xlink:href="#DejaVuSans-48"/>
      </g>
     </g>
    </g>
    <g id="text_25">
     <!-- sample(n) -->
     <g transform="translate(809.401491 361.636562)scale(0.1 -0.1)">
      <use xlink:href="#DejaVuSans-115"/>
      <use x="52.099609" xlink:href="#DejaVuSans-97"/>
      <use x="113.378906" xlink:href="#DejaVuSans-109"/>
      <use x="210.791016" xlink:href="#DejaVuSans-112"/>
      <use x="274.267578" xlink:href="#DejaVuSans-108"/>
      <use x="302.050781" xlink:href="#DejaVuSans-101"/>
      <use x="363.574219" xlink:href="#DejaVuSans-40"/>
      <use x="402.587891" xlink:href="#DejaVuSans-110"/>
      <use x="465.966797" xlink:href="#DejaVuSans-41"/>
     </g>
    </g>
   </g>
   <g id="matplotlib.axis_4">
    <g id="ytick_10">
     <g id="line2d_23">
      <g>
       <use style="stroke:#000000;stroke-width:0.8;" x="606.377983" xlink:href="#m5a18ddfe85" y="324.425411"/>
      </g>
     </g>
     <g id="text_26">
      <!-- −2.0 -->
      <g transform="translate(575.09517 328.22463)scale(0.1 -0.1)">
       <use xlink:href="#DejaVuSans-8722"/>
       <use x="83.789062" xlink:href="#DejaVuSans-50"/>
       <use x="147.412109" xlink:href="#DejaVuSans-46"/>
       <use x="179.199219" xlink:href="#DejaVuSans-48"/>
      </g>
     </g>
    </g>
    <g id="ytick_11">
     <g id="line2d_24">
      <g>
       <use style="stroke:#000000;stroke-width:0.8;" x="606.377983" xlink:href="#m5a18ddfe85" y="285.889058"/>
      </g>
     </g>
     <g id="text_27">
      <!-- −1.5 -->
      <g transform="translate(575.09517 289.688277)scale(0.1 -0.1)">
       <use xlink:href="#DejaVuSans-8722"/>
       <use x="83.789062" xlink:href="#DejaVuSans-49"/>
       <use x="147.412109" xlink:href="#DejaVuSans-46"/>
       <use x="179.199219" xlink:href="#DejaVuSans-53"/>
      </g>
     </g>
    </g>
    <g id="ytick_12">
     <g id="line2d_25">
      <g>
       <use style="stroke:#000000;stroke-width:0.8;" x="606.377983" xlink:href="#m5a18ddfe85" y="247.352705"/>
      </g>
     </g>
     <g id="text_28">
      <!-- −1.0 -->
      <g transform="translate(575.09517 251.151924)scale(0.1 -0.1)">
       <use xlink:href="#DejaVuSans-8722"/>
       <use x="83.789062" xlink:href="#DejaVuSans-49"/>
       <use x="147.412109" xlink:href="#DejaVuSans-46"/>
       <use x="179.199219" xlink:href="#DejaVuSans-48"/>
      </g>
     </g>
    </g>
    <g id="ytick_13">
     <g id="line2d_26">
      <g>
       <use style="stroke:#000000;stroke-width:0.8;" x="606.377983" xlink:href="#m5a18ddfe85" y="208.816353"/>
      </g>
     </g>
     <g id="text_29">
      <!-- −0.5 -->
      <g transform="translate(575.09517 212.615571)scale(0.1 -0.1)">
       <use xlink:href="#DejaVuSans-8722"/>
       <use x="83.789062" xlink:href="#DejaVuSans-48"/>
       <use x="147.412109" xlink:href="#DejaVuSans-46"/>
       <use x="179.199219" xlink:href="#DejaVuSans-53"/>
      </g>
     </g>
    </g>
    <g id="ytick_14">
     <g id="line2d_27">
      <g>
       <use style="stroke:#000000;stroke-width:0.8;" x="606.377983" xlink:href="#m5a18ddfe85" y="170.28"/>
      </g>
     </g>
     <g id="text_30">
      <!-- 0.0 -->
      <g transform="translate(583.474858 174.079219)scale(0.1 -0.1)">
       <use xlink:href="#DejaVuSans-48"/>
       <use x="63.623047" xlink:href="#DejaVuSans-46"/>
       <use x="95.410156" xlink:href="#DejaVuSans-48"/>
      </g>
     </g>
    </g>
    <g id="ytick_15">
     <g id="line2d_28">
      <g>
       <use style="stroke:#000000;stroke-width:0.8;" x="606.377983" xlink:href="#m5a18ddfe85" y="131.743647"/>
      </g>
     </g>
     <g id="text_31">
      <!-- 0.5 -->
      <g transform="translate(583.474858 135.542866)scale(0.1 -0.1)">
       <use xlink:href="#DejaVuSans-48"/>
       <use x="63.623047" xlink:href="#DejaVuSans-46"/>
       <use x="95.410156" xlink:href="#DejaVuSans-53"/>
      </g>
     </g>
    </g>
    <g id="ytick_16">
     <g id="line2d_29">
      <g>
       <use style="stroke:#000000;stroke-width:0.8;" x="606.377983" xlink:href="#m5a18ddfe85" y="93.207295"/>
      </g>
     </g>
     <g id="text_32">
      <!-- 1.0 -->
      <g transform="translate(583.474858 97.006513)scale(0.1 -0.1)">
       <use xlink:href="#DejaVuSans-49"/>
       <use x="63.623047" xlink:href="#DejaVuSans-46"/>
       <use x="95.410156" xlink:href="#DejaVuSans-48"/>
      </g>
     </g>
    </g>
    <g id="ytick_17">
     <g id="line2d_30">
      <g>
       <use style="stroke:#000000;stroke-width:0.8;" x="606.377983" xlink:href="#m5a18ddfe85" y="54.670942"/>
      </g>
     </g>
     <g id="text_33">
      <!-- 1.5 -->
      <g transform="translate(583.474858 58.470161)scale(0.1 -0.1)">
       <use xlink:href="#DejaVuSans-49"/>
       <use x="63.623047" xlink:href="#DejaVuSans-46"/>
       <use x="95.410156" xlink:href="#DejaVuSans-53"/>
      </g>
     </g>
    </g>
    <g id="ytick_18">
     <g id="line2d_31">
      <g>
       <use style="stroke:#000000;stroke-width:0.8;" x="606.377983" xlink:href="#m5a18ddfe85" y="16.134589"/>
      </g>
     </g>
     <g id="text_34">
      <!-- 2.0 -->
      <g transform="translate(583.474858 19.933808)scale(0.1 -0.1)">
       <use xlink:href="#DejaVuSans-50"/>
       <use x="63.623047" xlink:href="#DejaVuSans-46"/>
       <use x="95.410156" xlink:href="#DejaVuSans-48"/>
      </g>
     </g>
    </g>
    <g id="text_35">
     <!-- voltage(V) -->
     <g transform="translate(569.015483 196.284687)rotate(-90)scale(0.1 -0.1)">
      <use xlink:href="#DejaVuSans-118"/>
      <use x="59.179688" xlink:href="#DejaVuSans-111"/>
      <use x="120.361328" xlink:href="#DejaVuSans-108"/>
      <use x="148.144531" xlink:href="#DejaVuSans-116"/>
      <use x="187.353516" xlink:href="#DejaVuSans-97"/>
      <use x="248.632812" xlink:href="#DejaVuSans-103"/>
      <use x="312.109375" xlink:href="#DejaVuSans-101"/>
      <use x="373.632812" xlink:href="#DejaVuSans-40"/>
      <use x="412.646484" xlink:href="#DejaVuSans-86"/>
      <use x="481.054688" xlink:href="#DejaVuSans-41"/>
     </g>
    </g>
   </g>
   <g id="line2d_32">
    <path clip-path="url(#pbb6406f814)" d="M 627.130049 170.28 
L 627.960963 165.940957 
L 630.453703 151.3839 
L 631.284617 148.268249 
L 631.700074 147.28346 
L 632.11553 146.658562 
L 632.530987 146.332154 
L 634.192814 145.777745 
L 634.608271 145.134384 
L 635.023728 144.019964 
L 635.439185 142.33693 
L 635.854641 140.0259 
L 636.685555 133.515038 
L 637.931925 120.307868 
L 639.178296 107.156764 
L 640.009209 101.236921 
L 640.424666 99.644284 
L 640.840123 99.081532 
L 641.25558 99.557649 
L 641.671036 101.012091 
L 642.086493 103.315534 
L 642.917407 109.647052 
L 644.163777 119.317798 
L 644.579234 121.40301 
L 644.994691 122.48592 
L 645.410147 122.384855 
L 645.825604 120.992718 
L 646.241061 118.287412 
L 646.656518 114.336835 
L 647.487431 103.409507 
L 649.149258 78.147135 
L 649.980172 69.742806 
L 650.395629 67.723298 
L 650.811085 67.404369 
L 651.226542 68.844426 
L 651.641999 71.991369 
L 652.057456 76.682528 
L 652.888369 89.544801 
L 654.550196 117.432104 
L 654.965653 122.19784 
L 655.38111 125.313813 
L 655.796567 126.5467 
L 656.212024 125.782299 
L 656.62748 123.036148 
L 657.042937 118.455897 
L 657.873851 104.998384 
L 659.535678 74.147506 
L 659.951135 68.748858 
L 660.366591 65.229747 
L 660.782048 63.909641 
L 661.197505 64.976255 
L 661.612962 68.470416 
L 662.028419 74.280165 
L 662.859332 91.667866 
L 664.936616 144.282583 
L 665.352073 151.542028 
L 665.76753 156.527584 
L 666.182986 158.960084 
L 666.598443 158.721094 
L 667.0139 155.863485 
L 667.429357 150.611107 
L 668.26027 134.593714 
L 669.922097 97.99287 
L 670.337554 91.903554 
L 670.753011 88.223548 
L 671.168468 87.332792 
L 671.583924 89.440577 
L 671.999381 94.569346 
L 672.414838 102.550252 
L 673.245752 125.495217 
L 675.323035 192.54632 
L 675.738492 201.659726 
L 676.153949 207.918282 
L 676.569406 211.004143 
L 676.984863 210.797873 
L 677.400319 207.388682 
L 677.815776 201.071437 
L 678.64669 181.81099 
L 680.308517 138.08221 
L 680.723974 130.858609 
L 681.13943 126.506007 
L 681.554887 125.455837 
L 681.970344 127.9342 
L 682.385801 133.944995 
L 682.801257 143.267036 
L 683.632171 169.917256 
L 685.709455 246.43851 
L 686.124912 256.505038 
L 686.540368 263.202575 
L 686.955825 266.182857 
L 687.371282 265.328815 
L 687.786739 260.76424 
L 688.202196 252.848182 
L 689.033109 229.436452 
L 690.694936 176.889764 
L 691.110393 168.020251 
L 691.52585 162.414479 
L 691.941307 160.545183 
L 692.356763 162.650142 
L 692.77222 168.715046 
L 693.187677 178.472246 
L 694.018591 206.830757 
L 696.095874 287.676458 
L 696.511331 297.814732 
L 696.926788 304.16004 
L 697.342245 306.342666 
L 697.757702 304.251186 
L 698.173158 298.041303 
L 698.588615 288.127798 
L 699.419529 259.981923 
L 701.081356 197.713757 
L 701.496813 186.894658 
L 701.912269 179.663262 
L 702.327726 176.522291 
L 702.743183 177.715661 
L 703.15864 183.211511 
L 703.574096 192.702621 
L 704.40501 221.188798 
L 706.066837 289.32154 
L 706.897751 312.018047 
L 707.313207 317.521426 
L 707.728664 318.534545 
L 708.144121 314.954565 
L 708.559578 306.965465 
L 708.975035 295.027717 
L 709.805948 262.347385 
L 711.467775 191.102173 
L 711.883232 178.444655 
L 712.298689 169.627463 
L 712.714146 165.171012 
L 713.129602 165.319427 
L 713.545059 170.024144 
L 713.960516 178.945994 
L 714.791429 206.771497 
L 716.453257 273.876716 
L 716.868713 286.44779 
L 717.28417 295.365887 
L 717.699627 299.978577 
L 718.115084 299.901225 
L 718.53054 295.042043 
L 718.945997 285.608677 
L 719.776911 255.254913 
L 722.269651 144.586618 
L 722.685108 134.687557 
L 723.100565 129.327918 
L 723.516022 128.745831 
L 723.931479 132.877027 
L 724.346935 141.358524 
L 725.177849 168.579906 
L 726.839676 234.660008 
L 727.255133 246.85577 
L 727.67059 255.321576 
L 728.086046 259.403822 
L 728.501503 258.724258 
L 728.91696 253.204101 
L 729.332417 243.069235 
L 730.16333 211.279593 
L 732.240614 111.723835 
L 732.656071 97.490765 
L 733.071528 87.355899 
L 733.486985 81.835742 
L 733.902441 81.156178 
L 734.317898 85.238424 
L 734.733355 93.70423 
L 735.564268 120.93824 
L 737.226096 187.008792 
L 737.641552 199.201476 
L 738.057009 207.682973 
L 738.472466 211.814169 
L 738.887923 211.232082 
L 739.303379 205.872443 
L 739.718836 195.973382 
L 740.54975 164.910929 
L 742.627034 68.464133 
L 743.04249 54.951323 
L 743.457947 45.517957 
L 743.873404 40.658775 
L 744.288861 40.581423 
L 744.704318 45.194113 
L 745.119774 54.11221 
L 745.950688 82.029001 
L 747.612515 149.08431 
L 748.027972 161.614006 
L 748.443429 170.535856 
L 748.858885 175.240573 
L 749.274342 175.388988 
L 749.689799 170.932537 
L 750.105256 162.115345 
L 750.936169 133.722918 
L 753.013453 45.532283 
L 753.42891 33.594535 
L 753.844367 25.605435 
L 754.259823 22.025455 
L 754.67528 23.038574 
L 755.090737 28.541953 
L 755.506194 38.153741 
L 756.337107 66.948254 
L 757.998934 134.935683 
L 758.829848 157.348489 
L 759.245305 162.844339 
L 759.660762 164.037709 
L 760.076218 160.896738 
L 760.491675 153.665342 
L 761.322589 129.16776 
L 763.399873 52.432202 
L 763.815329 42.518697 
L 764.230786 36.308814 
L 764.646243 34.217334 
L 765.0617 36.39996 
L 765.477157 42.745268 
L 765.892613 52.883542 
L 766.723527 81.933676 
L 768.385354 149.144372 
L 769.216268 171.844954 
L 769.631724 177.909858 
L 770.047181 180.014817 
L 770.462638 178.145521 
L 770.878095 172.539749 
L 771.293551 163.670236 
L 772.124465 139.002241 
L 773.370835 98.40568 
L 774.201749 79.79576 
L 774.617206 75.231185 
L 775.032662 74.377143 
L 775.448119 77.357425 
L 775.863576 84.054962 
L 776.279033 94.12149 
L 777.109946 121.970226 
L 778.771773 185.094479 
L 779.602687 206.615005 
L 780.018144 212.6258 
L 780.433601 215.104163 
L 780.849057 214.053993 
L 781.264514 209.701391 
L 781.679971 202.47779 
L 782.510884 181.981304 
L 783.757255 148.229542 
L 784.172712 139.488563 
L 784.588168 133.171318 
L 785.003625 129.762127 
L 785.419082 129.555857 
L 785.834539 132.641718 
L 786.249995 138.900274 
L 787.080909 159.48832 
L 789.57365 238.009748 
L 789.989106 245.990654 
L 790.404563 251.119423 
L 790.82002 253.227208 
L 791.235477 252.336452 
L 791.650934 248.656446 
L 792.06639 242.56713 
L 792.897304 225.364359 
L 794.143674 197.212563 
L 794.559131 189.948893 
L 794.974588 184.696515 
L 795.390045 181.838906 
L 795.805501 181.599916 
L 796.220958 184.032416 
L 796.636415 189.017972 
L 797.467328 205.391408 
L 799.960069 266.279835 
L 800.375526 272.089584 
L 800.790983 275.583745 
L 801.20644 276.650359 
L 801.621896 275.330253 
L 802.037353 271.811142 
L 802.45281 266.412494 
L 803.283723 251.767692 
L 804.530094 228.244935 
L 805.361007 217.523852 
L 805.776464 214.777701 
L 806.191921 214.0133 
L 806.607378 215.246187 
L 807.022834 218.36216 
L 807.438291 223.127896 
L 808.269205 236.19375 
L 809.515575 257.908047 
L 810.346489 268.568631 
L 810.761945 271.715574 
L 811.177402 273.155631 
L 811.592859 272.836702 
L 812.008316 270.817194 
L 812.423773 267.258809 
L 813.254686 256.60123 
L 815.33197 226.223165 
L 815.747427 222.272588 
L 816.162884 219.567282 
L 816.57834 218.175145 
L 816.993797 218.07408 
L 817.409254 219.15699 
L 817.824711 221.242202 
L 818.655624 227.413161 
L 819.901995 237.244466 
L 820.317451 239.547909 
L 820.732908 241.002351 
L 821.148365 241.478468 
L 821.563822 240.915716 
L 821.979278 239.323079 
L 822.394735 236.775041 
L 823.225649 229.384552 
L 825.718389 203.486828 
L 826.549303 198.22307 
L 826.96476 196.540036 
L 827.380217 195.425616 
L 827.795673 194.782255 
L 828.21113 194.484193 
L 829.4575 194.227846 
L 829.872957 193.901438 
L 830.288414 193.27654 
L 830.703871 192.291751 
L 831.534784 189.1761 
L 832.365698 184.757445 
L 834.858439 170.28 
L 835.689352 166.874112 
L 838.182093 158.391723 
L 839.013006 153.957346 
L 839.84392 148.113841 
L 842.336661 128.046226 
L 843.167574 123.962952 
L 843.583031 122.902894 
L 843.998488 122.533569 
L 844.413945 122.820781 
L 844.829401 123.679643 
L 845.660315 126.542467 
L 846.491228 129.643845 
L 846.906685 130.740563 
L 847.322142 131.255246 
L 847.737599 131.012811 
L 848.153056 129.883385 
L 848.568512 127.794206 
L 848.983969 124.737962 
L 849.814883 116.041713 
L 852.307623 85.022157 
L 852.72308 82.072936 
L 853.138537 80.393591 
L 853.553994 80.092344 
L 853.96945 81.192362 
L 854.384907 83.626759 
L 855.215821 91.79283 
L 857.293105 116.617413 
L 857.708561 119.402123 
L 858.124018 120.743592 
L 858.539475 120.480548 
L 858.954932 118.55495 
L 859.370389 115.019206 
L 860.201302 103.87216 
L 862.278586 69.578471 
L 862.694043 65.201536 
L 863.1095 62.571104 
L 863.524956 61.92019 
L 863.940413 63.36263 
L 864.35587 66.882456 
L 864.771327 72.331531 
L 865.60224 87.809881 
L 867.264067 123.816088 
L 868.094981 135.855316 
L 868.510438 138.868805 
L 868.925895 139.582601 
L 869.341351 137.954752 
L 869.756808 134.096037 
L 870.172265 128.266058 
L 871.003178 112.383842 
L 872.249549 86.620327 
L 872.665006 80.013028 
L 873.080462 75.33371 
L 873.495919 73.000085 
L 873.911376 73.289648 
L 874.326833 76.319111 
L 874.742289 82.033842 
L 875.573203 100.45682 
L 878.065944 171.025241 
L 878.4814 178.076334 
L 878.896857 182.385081 
L 879.312314 183.740034 
L 879.727771 182.11656 
L 880.143228 177.681293 
L 880.558684 170.784354 
L 881.389598 151.79442 
L 882.635968 121.153915 
L 883.051425 113.443371 
L 883.466882 108.115897 
L 883.882339 105.662717 
L 884.297795 106.399272 
L 884.713252 110.442584 
L 885.128709 117.70102 
L 885.959622 140.484611 
L 888.452363 225.171689 
L 888.86782 233.373535 
L 889.283277 238.260748 
L 889.698733 239.604801 
L 890.11419 237.399382 
L 890.529647 231.863272 
L 890.945104 223.428884 
L 891.776017 200.499401 
L 893.022388 163.74641 
L 893.437844 154.449945 
L 893.853301 147.929057 
L 894.268758 144.736814 
L 894.684215 145.219269 
L 895.099672 149.491303 
L 895.515128 157.426965 
L 896.346042 182.629861 
L 898.838783 275.202422 
L 899.254239 283.665316 
L 899.669696 288.325086 
L 900.085153 288.942188 
L 900.50061 285.529217 
L 900.916066 278.352143 
L 901.74698 254.931996 
L 903.824264 185.067341 
L 904.239721 176.8801 
L 904.655178 172.401104 
L 905.070634 171.998887 
L 905.486091 175.783752 
L 905.901548 183.598923 
L 906.732461 209.422569 
L 909.225202 304.306739 
L 909.640659 312.31181 
L 910.056116 316.13082 
L 910.471572 315.519422 
L 910.887029 310.509113 
L 911.302486 301.406804 
L 912.1334 273.407088 
L 914.210683 191.703166 
L 914.62614 181.702576 
L 915.041597 175.713658 
L 915.457054 174.118565 
L 915.872511 177.020506 
L 916.287967 184.235931 
L 916.703424 195.304855 
L 917.534338 225.96435 
L 919.196165 292.054233 
L 919.611622 303.195571 
L 920.027078 310.407475 
L 920.442535 313.170542 
L 920.857992 311.241717 
L 921.273449 304.670688 
L 921.688905 293.797805 
L 922.519819 261.821049 
L 924.597103 170.376599 
L 925.01256 158.878376 
L 925.428016 151.613754 
L 925.843473 148.969043 
L 926.25893 151.037752 
L 926.674387 157.613996 
L 927.089844 168.20484 
L 927.920757 198.222824 
L 929.167127 249.13511 
L 929.998041 273.604587 
L 930.413498 280.132561 
L 930.828955 282.074209 
L 931.244411 279.193559 
L 931.659868 271.557067 
L 932.075325 259.529931 
L 932.906238 225.105219 
L 934.568066 144.234396 
L 935.398979 116.022801 
L 935.814436 108.135179 
L 936.229893 104.992327 
L 936.645349 106.675442 
L 937.060806 112.961063 
L 937.476263 123.335116 
L 938.307177 153.05002 
L 939.553547 203.534662 
L 940.384461 227.598937 
L 940.799917 233.884558 
L 941.215374 235.567673 
L 941.630831 232.424821 
L 942.046288 224.537199 
L 942.461744 212.285461 
L 943.292658 177.547472 
L 944.954485 96.806498 
L 945.785399 69.002933 
L 946.200855 61.366441 
L 946.616312 58.485791 
L 947.031769 60.427439 
L 947.447226 66.955413 
L 947.862683 77.546727 
L 948.693596 107.609359 
L 949.939966 158.499171 
L 950.77088 182.946004 
L 951.186337 189.522248 
L 951.601794 191.590957 
L 952.01725 188.946246 
L 952.432707 181.681624 
L 952.848164 170.183401 
L 953.679077 137.328246 
L 955.340905 61.326415 
L 956.171818 35.889312 
L 956.587275 29.318283 
L 957.002732 27.389458 
L 957.418188 30.152525 
L 957.833645 37.364429 
L 958.249102 48.505767 
L 959.080016 79.33522 
L 960.741843 145.255145 
L 961.157299 156.324069 
L 961.572756 163.539494 
L 961.988213 166.441435 
L 962.40367 164.846342 
L 962.819127 158.857424 
L 963.234583 148.856834 
L 964.065497 119.57586 
L 965.727324 51.783077 
L 966.142781 39.153196 
L 966.558238 30.050887 
L 966.973694 25.040578 
L 967.389151 24.42918 
L 967.804608 28.24819 
L 968.220065 36.253261 
L 969.050978 62.583091 
L 971.128262 145.531392 
L 971.543719 156.961077 
L 971.959176 164.776248 
L 972.374632 168.561113 
L 972.790089 168.158896 
L 973.205546 163.6799 
L 973.621003 155.492659 
L 974.451916 130.593778 
L 976.113744 72.644548 
L 976.5292 62.207857 
L 976.944657 55.030783 
L 977.360114 51.617812 
L 977.775571 52.234914 
L 978.191027 56.894684 
L 978.606484 65.357578 
L 979.437398 91.591404 
L 981.514682 171.894923 
L 981.930138 183.133035 
L 982.345595 191.068697 
L 982.761052 195.340731 
L 983.176509 195.823186 
L 983.591966 192.630943 
L 984.007422 186.110055 
L 984.838336 165.464649 
L 986.500163 117.131116 
L 986.91562 108.696728 
L 987.331077 103.160618 
L 987.746533 100.955199 
L 988.16199 102.299252 
L 988.577447 107.186465 
L 988.992904 115.388311 
L 989.823817 139.824771 
L 991.901101 212.682718 
L 992.316558 222.85898 
L 992.732015 230.117416 
L 993.147471 234.160728 
L 993.562928 234.897283 
L 993.978385 232.444103 
L 994.393842 227.116629 
L 995.224755 209.946028 
L 996.886582 169.775646 
L 997.302039 162.878707 
L 997.717496 158.44344 
L 998.132953 156.819966 
L 998.54841 158.174919 
L 998.963866 162.483666 
L 999.379323 169.534759 
L 1000.210237 190.191843 
L 1002.287521 250.351814 
L 1002.702977 258.526158 
L 1003.118434 264.240889 
L 1003.533891 267.270352 
L 1003.949348 267.559915 
L 1004.364804 265.22629 
L 1004.780261 260.546972 
L 1005.611175 245.933228 
L 1007.273002 212.293942 
L 1007.688459 206.463963 
L 1008.103915 202.605248 
L 1008.519372 200.977399 
L 1008.934829 201.691195 
L 1009.350286 204.704684 
L 1009.765743 209.829085 
L 1010.596656 225.020172 
L 1012.67394 268.228469 
L 1013.089397 273.677544 
L 1013.504854 277.19737 
L 1013.92031 278.63981 
L 1014.335767 277.988896 
L 1014.751224 275.358464 
L 1015.166681 270.981529 
L 1015.997594 258.402136 
L 1017.659421 230.523768 
L 1018.074878 225.540794 
L 1018.490335 222.00505 
L 1018.905792 220.079452 
L 1019.321249 219.816408 
L 1019.736705 221.157877 
L 1020.152162 223.942587 
L 1020.983076 232.767919 
L 1022.644903 253.320431 
L 1023.06036 256.933241 
L 1023.475816 259.367638 
L 1023.891273 260.467656 
L 1024.30673 260.166409 
L 1024.722187 258.487064 
L 1025.137643 255.537843 
L 1025.968557 246.620836 
L 1028.045841 219.783172 
L 1028.876754 212.765794 
L 1029.292211 210.676615 
L 1029.707668 209.547189 
L 1030.123125 209.304754 
L 1030.538582 209.819437 
L 1030.954038 210.916155 
L 1032.615865 216.880357 
L 1033.031322 217.739219 
L 1033.446779 218.026431 
L 1033.862236 217.657106 
L 1034.277693 216.597048 
L 1034.693149 214.862091 
L 1035.524063 209.651839 
L 1037.18589 195.804139 
L 1038.43226 186.602654 
L 1039.263174 182.168277 
L 1040.094087 178.95914 
L 1042.171371 172.096414 
L 1042.171371 172.096414 
" style="fill:none;stroke:#1f77b4;stroke-linecap:square;stroke-width:1.5;"/>
   </g>
   <g id="patch_8">
    <path d="M 606.377983 333.36 
L 606.377983 7.2 
" style="fill:none;stroke:#000000;stroke-linecap:square;stroke-linejoin:miter;stroke-width:0.8;"/>
   </g>
   <g id="patch_9">
    <path d="M 1062.923437 333.36 
L 1062.923437 7.2 
" style="fill:none;stroke:#000000;stroke-linecap:square;stroke-linejoin:miter;stroke-width:0.8;"/>
   </g>
   <g id="patch_10">
    <path d="M 606.377983 333.36 
L 1062.923437 333.36 
" style="fill:none;stroke:#000000;stroke-linecap:square;stroke-linejoin:miter;stroke-width:0.8;"/>
   </g>
   <g id="patch_11">
    <path d="M 606.377983 7.2 
L 1062.923437 7.2 
" style="fill:none;stroke:#000000;stroke-linecap:square;stroke-linejoin:miter;stroke-width:0.8;"/>
   </g>
   <g id="text_36">
    <!-- add carrier to product -->
    <g transform="translate(768.907585 392.592)scale(0.12 -0.12)">
     <defs>
      <path d="M 45.40625 46.390625 
L 45.40625 75.984375 
L 54.390625 75.984375 
L 54.390625 0 
L 45.40625 0 
L 45.40625 8.203125 
Q 42.578125 3.328125 38.25 0.953125 
Q 33.9375 -1.421875 27.875 -1.421875 
Q 17.96875 -1.421875 11.734375 6.484375 
Q 5.515625 14.40625 5.515625 27.296875 
Q 5.515625 40.1875 11.734375 48.09375 
Q 17.96875 56 27.875 56 
Q 33.9375 56 38.25 53.625 
Q 42.578125 51.265625 45.40625 46.390625 
z
M 14.796875 27.296875 
Q 14.796875 17.390625 18.875 11.75 
Q 22.953125 6.109375 30.078125 6.109375 
Q 37.203125 6.109375 41.296875 11.75 
Q 45.40625 17.390625 45.40625 27.296875 
Q 45.40625 37.203125 41.296875 42.84375 
Q 37.203125 48.484375 30.078125 48.484375 
Q 22.953125 48.484375 18.875 42.84375 
Q 14.796875 37.203125 14.796875 27.296875 
z
" id="DejaVuSans-100"/>
      <path id="DejaVuSans-32"/>
      <path d="M 41.109375 46.296875 
Q 39.59375 47.171875 37.8125 47.578125 
Q 36.03125 48 33.890625 48 
Q 26.265625 48 22.1875 43.046875 
Q 18.109375 38.09375 18.109375 28.8125 
L 18.109375 0 
L 9.078125 0 
L 9.078125 54.6875 
L 18.109375 54.6875 
L 18.109375 46.1875 
Q 20.953125 51.171875 25.484375 53.578125 
Q 30.03125 56 36.53125 56 
Q 37.453125 56 38.578125 55.875 
Q 39.703125 55.765625 41.0625 55.515625 
z
" id="DejaVuSans-114"/>
     </defs>
     <use xlink:href="#DejaVuSans-97"/>
     <use x="61.279297" xlink:href="#DejaVuSans-100"/>
     <use x="124.755859" xlink:href="#DejaVuSans-100"/>
     <use x="188.232422" xlink:href="#DejaVuSans-32"/>
     <use x="220.019531" xlink:href="#DejaVuSans-99"/>
     <use x="275" xlink:href="#DejaVuSans-97"/>
     <use x="336.279297" xlink:href="#DejaVuSans-114"/>
     <use x="375.642578" xlink:href="#DejaVuSans-114"/>
     <use x="416.755859" xlink:href="#DejaVuSans-105"/>
     <use x="444.539062" xlink:href="#DejaVuSans-101"/>
     <use x="506.0625" xlink:href="#DejaVuSans-114"/>
     <use x="547.175781" xlink:href="#DejaVuSans-32"/>
     <use x="578.962891" xlink:href="#DejaVuSans-116"/>
     <use x="618.171875" xlink:href="#DejaVuSans-111"/>
     <use x="679.353516" xlink:href="#DejaVuSans-32"/>
     <use x="711.140625" xlink:href="#DejaVuSans-112"/>
     <use x="774.617188" xlink:href="#DejaVuSans-114"/>
     <use x="813.480469" xlink:href="#DejaVuSans-111"/>
     <use x="874.662109" xlink:href="#DejaVuSans-100"/>
     <use x="938.138672" xlink:href="#DejaVuSans-117"/>
     <use x="1001.517578" xlink:href="#DejaVuSans-99"/>
     <use x="1056.498047" xlink:href="#DejaVuSans-116"/>
    </g>
   </g>
  </g>
 </g>
 <defs>
  <clipPath id="p7adfd916a4">
   <rect height="326.16" width="456.545455" x="58.523438" y="7.2"/>
  </clipPath>
  <clipPath id="pbb6406f814">
   <rect height="326.16" width="456.545455" x="606.377983" y="7.2"/>
  </clipPath>
 </defs>
</svg>
