<?xml version="1.0" encoding="utf-8" standalone="no"?>
<!DOCTYPE svg PUBLIC "-//W3C//DTD SVG 1.1//EN"
  "http://www.w3.org/Graphics/SVG/1.1/DTD/svg11.dtd">
<!-- Created with matplotlib (https://matplotlib.org/) -->
<svg height="402.287625pt" version="1.1" viewBox="0 0 1070.123437 402.287625" width="1070.123437pt" xmlns="http://www.w3.org/2000/svg" xmlns:xlink="http://www.w3.org/1999/xlink">
 <metadata>
  <rdf:RDF xmlns:cc="http://creativecommons.org/ns#" xmlns:dc="http://purl.org/dc/elements/1.1/" xmlns:rdf="http://www.w3.org/1999/02/22-rdf-syntax-ns#">
   <cc:Work>
    <dc:type rdf:resource="http://purl.org/dc/dcmitype/StillImage"/>
    <dc:date>2021-02-23T16:17:55.628383</dc:date>
    <dc:format>image/svg+xml</dc:format>
    <dc:creator>
     <cc:Agent>
      <dc:title>Matplotlib v3.3.4, https://matplotlib.org/</dc:title>
     </cc:Agent>
    </dc:creator>
   </cc:Work>
  </rdf:RDF>
 </metadata>
 <defs>
  <style type="text/css">*{stroke-linecap:butt;stroke-linejoin:round;}</style>
 </defs>
 <g id="figure_1">
  <g id="patch_1">
   <path d="M 0 402.287625 
L 1070.123437 402.287625 
L 1070.123437 0 
L 0 0 
z
" style="fill:none;"/>
  </g>
  <g id="axes_1">
   <g id="patch_2">
    <path d="M 58.523438 333.36 
L 515.068892 333.36 
L 515.068892 7.2 
L 58.523438 7.2 
z
" style="fill:#ffffff;"/>
   </g>
   <g id="matplotlib.axis_1">
    <g id="xtick_1">
     <g id="line2d_1">
      <path clip-path="url(#p23ab9e1a14)" d="M 79.275504 333.36 
L 79.275504 7.2 
" style="fill:none;stroke:#b0b0b0;stroke-linecap:square;stroke-width:0.8;"/>
     </g>
     <g id="line2d_2">
      <defs>
       <path d="M 0 0 
L 0 3.5 
" id="m921011b87e" style="stroke:#000000;stroke-width:0.8;"/>
      </defs>
      <g>
       <use style="stroke:#000000;stroke-width:0.8;" x="79.275504" xlink:href="#m921011b87e" y="333.36"/>
      </g>
     </g>
     <g id="text_1">
      <!-- 0 -->
      <g transform="translate(76.094254 347.958438)scale(0.1 -0.1)">
       <defs>
        <path d="M 31.78125 66.40625 
Q 24.171875 66.40625 20.328125 58.90625 
Q 16.5 51.421875 16.5 36.375 
Q 16.5 21.390625 20.328125 13.890625 
Q 24.171875 6.390625 31.78125 6.390625 
Q 39.453125 6.390625 43.28125 13.890625 
Q 47.125 21.390625 47.125 36.375 
Q 47.125 51.421875 43.28125 58.90625 
Q 39.453125 66.40625 31.78125 66.40625 
z
M 31.78125 74.21875 
Q 44.046875 74.21875 50.515625 64.515625 
Q 56.984375 54.828125 56.984375 36.375 
Q 56.984375 17.96875 50.515625 8.265625 
Q 44.046875 -1.421875 31.78125 -1.421875 
Q 19.53125 -1.421875 13.0625 8.265625 
Q 6.59375 17.96875 6.59375 36.375 
Q 6.59375 54.828125 13.0625 64.515625 
Q 19.53125 74.21875 31.78125 74.21875 
z
" id="DejaVuSans-48"/>
       </defs>
       <use xlink:href="#DejaVuSans-48"/>
      </g>
     </g>
    </g>
    <g id="xtick_2">
     <g id="line2d_3">
      <path clip-path="url(#p23ab9e1a14)" d="M 162.29207 333.36 
L 162.29207 7.2 
" style="fill:none;stroke:#b0b0b0;stroke-linecap:square;stroke-width:0.8;"/>
     </g>
     <g id="line2d_4">
      <g>
       <use style="stroke:#000000;stroke-width:0.8;" x="162.29207" xlink:href="#m921011b87e" y="333.36"/>
      </g>
     </g>
     <g id="text_2">
      <!-- 2000 -->
      <g transform="translate(149.56707 347.958438)scale(0.1 -0.1)">
       <defs>
        <path d="M 19.1875 8.296875 
L 53.609375 8.296875 
L 53.609375 0 
L 7.328125 0 
L 7.328125 8.296875 
Q 12.9375 14.109375 22.625 23.890625 
Q 32.328125 33.6875 34.8125 36.53125 
Q 39.546875 41.84375 41.421875 45.53125 
Q 43.3125 49.21875 43.3125 52.78125 
Q 43.3125 58.59375 39.234375 62.25 
Q 35.15625 65.921875 28.609375 65.921875 
Q 23.96875 65.921875 18.8125 64.3125 
Q 13.671875 62.703125 7.8125 59.421875 
L 7.8125 69.390625 
Q 13.765625 71.78125 18.9375 73 
Q 24.125 74.21875 28.421875 74.21875 
Q 39.75 74.21875 46.484375 68.546875 
Q 53.21875 62.890625 53.21875 53.421875 
Q 53.21875 48.921875 51.53125 44.890625 
Q 49.859375 40.875 45.40625 35.40625 
Q 44.1875 33.984375 37.640625 27.21875 
Q 31.109375 20.453125 19.1875 8.296875 
z
" id="DejaVuSans-50"/>
       </defs>
       <use xlink:href="#DejaVuSans-50"/>
       <use x="63.623047" xlink:href="#DejaVuSans-48"/>
       <use x="127.246094" xlink:href="#DejaVuSans-48"/>
       <use x="190.869141" xlink:href="#DejaVuSans-48"/>
      </g>
     </g>
    </g>
    <g id="xtick_3">
     <g id="line2d_5">
      <path clip-path="url(#p23ab9e1a14)" d="M 245.308636 333.36 
L 245.308636 7.2 
" style="fill:none;stroke:#b0b0b0;stroke-linecap:square;stroke-width:0.8;"/>
     </g>
     <g id="line2d_6">
      <g>
       <use style="stroke:#000000;stroke-width:0.8;" x="245.308636" xlink:href="#m921011b87e" y="333.36"/>
      </g>
     </g>
     <g id="text_3">
      <!-- 4000 -->
      <g transform="translate(232.583636 347.958438)scale(0.1 -0.1)">
       <defs>
        <path d="M 37.796875 64.3125 
L 12.890625 25.390625 
L 37.796875 25.390625 
z
M 35.203125 72.90625 
L 47.609375 72.90625 
L 47.609375 25.390625 
L 58.015625 25.390625 
L 58.015625 17.1875 
L 47.609375 17.1875 
L 47.609375 0 
L 37.796875 0 
L 37.796875 17.1875 
L 4.890625 17.1875 
L 4.890625 26.703125 
z
" id="DejaVuSans-52"/>
       </defs>
       <use xlink:href="#DejaVuSans-52"/>
       <use x="63.623047" xlink:href="#DejaVuSans-48"/>
       <use x="127.246094" xlink:href="#DejaVuSans-48"/>
       <use x="190.869141" xlink:href="#DejaVuSans-48"/>
      </g>
     </g>
    </g>
    <g id="xtick_4">
     <g id="line2d_7">
      <path clip-path="url(#p23ab9e1a14)" d="M 328.325202 333.36 
L 328.325202 7.2 
" style="fill:none;stroke:#b0b0b0;stroke-linecap:square;stroke-width:0.8;"/>
     </g>
     <g id="line2d_8">
      <g>
       <use style="stroke:#000000;stroke-width:0.8;" x="328.325202" xlink:href="#m921011b87e" y="333.36"/>
      </g>
     </g>
     <g id="text_4">
      <!-- 6000 -->
      <g transform="translate(315.600202 347.958438)scale(0.1 -0.1)">
       <defs>
        <path d="M 33.015625 40.375 
Q 26.375 40.375 22.484375 35.828125 
Q 18.609375 31.296875 18.609375 23.390625 
Q 18.609375 15.53125 22.484375 10.953125 
Q 26.375 6.390625 33.015625 6.390625 
Q 39.65625 6.390625 43.53125 10.953125 
Q 47.40625 15.53125 47.40625 23.390625 
Q 47.40625 31.296875 43.53125 35.828125 
Q 39.65625 40.375 33.015625 40.375 
z
M 52.59375 71.296875 
L 52.59375 62.3125 
Q 48.875 64.0625 45.09375 64.984375 
Q 41.3125 65.921875 37.59375 65.921875 
Q 27.828125 65.921875 22.671875 59.328125 
Q 17.53125 52.734375 16.796875 39.40625 
Q 19.671875 43.65625 24.015625 45.921875 
Q 28.375 48.1875 33.59375 48.1875 
Q 44.578125 48.1875 50.953125 41.515625 
Q 57.328125 34.859375 57.328125 23.390625 
Q 57.328125 12.15625 50.6875 5.359375 
Q 44.046875 -1.421875 33.015625 -1.421875 
Q 20.359375 -1.421875 13.671875 8.265625 
Q 6.984375 17.96875 6.984375 36.375 
Q 6.984375 53.65625 15.1875 63.9375 
Q 23.390625 74.21875 37.203125 74.21875 
Q 40.921875 74.21875 44.703125 73.484375 
Q 48.484375 72.75 52.59375 71.296875 
z
" id="DejaVuSans-54"/>
       </defs>
       <use xlink:href="#DejaVuSans-54"/>
       <use x="63.623047" xlink:href="#DejaVuSans-48"/>
       <use x="127.246094" xlink:href="#DejaVuSans-48"/>
       <use x="190.869141" xlink:href="#DejaVuSans-48"/>
      </g>
     </g>
    </g>
    <g id="xtick_5">
     <g id="line2d_9">
      <path clip-path="url(#p23ab9e1a14)" d="M 411.341768 333.36 
L 411.341768 7.2 
" style="fill:none;stroke:#b0b0b0;stroke-linecap:square;stroke-width:0.8;"/>
     </g>
     <g id="line2d_10">
      <g>
       <use style="stroke:#000000;stroke-width:0.8;" x="411.341768" xlink:href="#m921011b87e" y="333.36"/>
      </g>
     </g>
     <g id="text_5">
      <!-- 8000 -->
      <g transform="translate(398.616768 347.958438)scale(0.1 -0.1)">
       <defs>
        <path d="M 31.78125 34.625 
Q 24.75 34.625 20.71875 30.859375 
Q 16.703125 27.09375 16.703125 20.515625 
Q 16.703125 13.921875 20.71875 10.15625 
Q 24.75 6.390625 31.78125 6.390625 
Q 38.8125 6.390625 42.859375 10.171875 
Q 46.921875 13.96875 46.921875 20.515625 
Q 46.921875 27.09375 42.890625 30.859375 
Q 38.875 34.625 31.78125 34.625 
z
M 21.921875 38.8125 
Q 15.578125 40.375 12.03125 44.71875 
Q 8.5 49.078125 8.5 55.328125 
Q 8.5 64.0625 14.71875 69.140625 
Q 20.953125 74.21875 31.78125 74.21875 
Q 42.671875 74.21875 48.875 69.140625 
Q 55.078125 64.0625 55.078125 55.328125 
Q 55.078125 49.078125 51.53125 44.71875 
Q 48 40.375 41.703125 38.8125 
Q 48.828125 37.15625 52.796875 32.3125 
Q 56.78125 27.484375 56.78125 20.515625 
Q 56.78125 9.90625 50.3125 4.234375 
Q 43.84375 -1.421875 31.78125 -1.421875 
Q 19.734375 -1.421875 13.25 4.234375 
Q 6.78125 9.90625 6.78125 20.515625 
Q 6.78125 27.484375 10.78125 32.3125 
Q 14.796875 37.15625 21.921875 38.8125 
z
M 18.3125 54.390625 
Q 18.3125 48.734375 21.84375 45.5625 
Q 25.390625 42.390625 31.78125 42.390625 
Q 38.140625 42.390625 41.71875 45.5625 
Q 45.3125 48.734375 45.3125 54.390625 
Q 45.3125 60.0625 41.71875 63.234375 
Q 38.140625 66.40625 31.78125 66.40625 
Q 25.390625 66.40625 21.84375 63.234375 
Q 18.3125 60.0625 18.3125 54.390625 
z
" id="DejaVuSans-56"/>
       </defs>
       <use xlink:href="#DejaVuSans-56"/>
       <use x="63.623047" xlink:href="#DejaVuSans-48"/>
       <use x="127.246094" xlink:href="#DejaVuSans-48"/>
       <use x="190.869141" xlink:href="#DejaVuSans-48"/>
      </g>
     </g>
    </g>
    <g id="xtick_6">
     <g id="line2d_11">
      <path clip-path="url(#p23ab9e1a14)" d="M 494.358334 333.36 
L 494.358334 7.2 
" style="fill:none;stroke:#b0b0b0;stroke-linecap:square;stroke-width:0.8;"/>
     </g>
     <g id="line2d_12">
      <g>
       <use style="stroke:#000000;stroke-width:0.8;" x="494.358334" xlink:href="#m921011b87e" y="333.36"/>
      </g>
     </g>
     <g id="text_6">
      <!-- 10000 -->
      <g transform="translate(478.452084 347.958438)scale(0.1 -0.1)">
       <defs>
        <path d="M 12.40625 8.296875 
L 28.515625 8.296875 
L 28.515625 63.921875 
L 10.984375 60.40625 
L 10.984375 69.390625 
L 28.421875 72.90625 
L 38.28125 72.90625 
L 38.28125 8.296875 
L 54.390625 8.296875 
L 54.390625 0 
L 12.40625 0 
z
" id="DejaVuSans-49"/>
       </defs>
       <use xlink:href="#DejaVuSans-49"/>
       <use x="63.623047" xlink:href="#DejaVuSans-48"/>
       <use x="127.246094" xlink:href="#DejaVuSans-48"/>
       <use x="190.869141" xlink:href="#DejaVuSans-48"/>
       <use x="254.492188" xlink:href="#DejaVuSans-48"/>
      </g>
     </g>
    </g>
    <g id="text_7">
     <!-- samples -->
     <g transform="translate(266.012571 361.636562)scale(0.1 -0.1)">
      <defs>
       <path d="M 44.28125 53.078125 
L 44.28125 44.578125 
Q 40.484375 46.53125 36.375 47.5 
Q 32.28125 48.484375 27.875 48.484375 
Q 21.1875 48.484375 17.84375 46.4375 
Q 14.5 44.390625 14.5 40.28125 
Q 14.5 37.15625 16.890625 35.375 
Q 19.28125 33.59375 26.515625 31.984375 
L 29.59375 31.296875 
Q 39.15625 29.25 43.1875 25.515625 
Q 47.21875 21.78125 47.21875 15.09375 
Q 47.21875 7.46875 41.1875 3.015625 
Q 35.15625 -1.421875 24.609375 -1.421875 
Q 20.21875 -1.421875 15.453125 -0.5625 
Q 10.6875 0.296875 5.421875 2 
L 5.421875 11.28125 
Q 10.40625 8.6875 15.234375 7.390625 
Q 20.0625 6.109375 24.8125 6.109375 
Q 31.15625 6.109375 34.5625 8.28125 
Q 37.984375 10.453125 37.984375 14.40625 
Q 37.984375 18.0625 35.515625 20.015625 
Q 33.0625 21.96875 24.703125 23.78125 
L 21.578125 24.515625 
Q 13.234375 26.265625 9.515625 29.90625 
Q 5.8125 33.546875 5.8125 39.890625 
Q 5.8125 47.609375 11.28125 51.796875 
Q 16.75 56 26.8125 56 
Q 31.78125 56 36.171875 55.265625 
Q 40.578125 54.546875 44.28125 53.078125 
z
" id="DejaVuSans-115"/>
       <path d="M 34.28125 27.484375 
Q 23.390625 27.484375 19.1875 25 
Q 14.984375 22.515625 14.984375 16.5 
Q 14.984375 11.71875 18.140625 8.90625 
Q 21.296875 6.109375 26.703125 6.109375 
Q 34.1875 6.109375 38.703125 11.40625 
Q 43.21875 16.703125 43.21875 25.484375 
L 43.21875 27.484375 
z
M 52.203125 31.203125 
L 52.203125 0 
L 43.21875 0 
L 43.21875 8.296875 
Q 40.140625 3.328125 35.546875 0.953125 
Q 30.953125 -1.421875 24.3125 -1.421875 
Q 15.921875 -1.421875 10.953125 3.296875 
Q 6 8.015625 6 15.921875 
Q 6 25.140625 12.171875 29.828125 
Q 18.359375 34.515625 30.609375 34.515625 
L 43.21875 34.515625 
L 43.21875 35.40625 
Q 43.21875 41.609375 39.140625 45 
Q 35.0625 48.390625 27.6875 48.390625 
Q 23 48.390625 18.546875 47.265625 
Q 14.109375 46.140625 10.015625 43.890625 
L 10.015625 52.203125 
Q 14.9375 54.109375 19.578125 55.046875 
Q 24.21875 56 28.609375 56 
Q 40.484375 56 46.34375 49.84375 
Q 52.203125 43.703125 52.203125 31.203125 
z
" id="DejaVuSans-97"/>
       <path d="M 52 44.1875 
Q 55.375 50.25 60.0625 53.125 
Q 64.75 56 71.09375 56 
Q 79.640625 56 84.28125 50.015625 
Q 88.921875 44.046875 88.921875 33.015625 
L 88.921875 0 
L 79.890625 0 
L 79.890625 32.71875 
Q 79.890625 40.578125 77.09375 44.375 
Q 74.3125 48.1875 68.609375 48.1875 
Q 61.625 48.1875 57.5625 43.546875 
Q 53.515625 38.921875 53.515625 30.90625 
L 53.515625 0 
L 44.484375 0 
L 44.484375 32.71875 
Q 44.484375 40.625 41.703125 44.40625 
Q 38.921875 48.1875 33.109375 48.1875 
Q 26.21875 48.1875 22.15625 43.53125 
Q 18.109375 38.875 18.109375 30.90625 
L 18.109375 0 
L 9.078125 0 
L 9.078125 54.6875 
L 18.109375 54.6875 
L 18.109375 46.1875 
Q 21.1875 51.21875 25.484375 53.609375 
Q 29.78125 56 35.6875 56 
Q 41.65625 56 45.828125 52.96875 
Q 50 49.953125 52 44.1875 
z
" id="DejaVuSans-109"/>
       <path d="M 18.109375 8.203125 
L 18.109375 -20.796875 
L 9.078125 -20.796875 
L 9.078125 54.6875 
L 18.109375 54.6875 
L 18.109375 46.390625 
Q 20.953125 51.265625 25.265625 53.625 
Q 29.59375 56 35.59375 56 
Q 45.5625 56 51.78125 48.09375 
Q 58.015625 40.1875 58.015625 27.296875 
Q 58.015625 14.40625 51.78125 6.484375 
Q 45.5625 -1.421875 35.59375 -1.421875 
Q 29.59375 -1.421875 25.265625 0.953125 
Q 20.953125 3.328125 18.109375 8.203125 
z
M 48.6875 27.296875 
Q 48.6875 37.203125 44.609375 42.84375 
Q 40.53125 48.484375 33.40625 48.484375 
Q 26.265625 48.484375 22.1875 42.84375 
Q 18.109375 37.203125 18.109375 27.296875 
Q 18.109375 17.390625 22.1875 11.75 
Q 26.265625 6.109375 33.40625 6.109375 
Q 40.53125 6.109375 44.609375 11.75 
Q 48.6875 17.390625 48.6875 27.296875 
z
" id="DejaVuSans-112"/>
       <path d="M 9.421875 75.984375 
L 18.40625 75.984375 
L 18.40625 0 
L 9.421875 0 
z
" id="DejaVuSans-108"/>
       <path d="M 56.203125 29.59375 
L 56.203125 25.203125 
L 14.890625 25.203125 
Q 15.484375 15.921875 20.484375 11.0625 
Q 25.484375 6.203125 34.421875 6.203125 
Q 39.59375 6.203125 44.453125 7.46875 
Q 49.3125 8.734375 54.109375 11.28125 
L 54.109375 2.78125 
Q 49.265625 0.734375 44.1875 -0.34375 
Q 39.109375 -1.421875 33.890625 -1.421875 
Q 20.796875 -1.421875 13.15625 6.1875 
Q 5.515625 13.8125 5.515625 26.8125 
Q 5.515625 40.234375 12.765625 48.109375 
Q 20.015625 56 32.328125 56 
Q 43.359375 56 49.78125 48.890625 
Q 56.203125 41.796875 56.203125 29.59375 
z
M 47.21875 32.234375 
Q 47.125 39.59375 43.09375 43.984375 
Q 39.0625 48.390625 32.421875 48.390625 
Q 24.90625 48.390625 20.390625 44.140625 
Q 15.875 39.890625 15.1875 32.171875 
z
" id="DejaVuSans-101"/>
      </defs>
      <use xlink:href="#DejaVuSans-115"/>
      <use x="52.099609" xlink:href="#DejaVuSans-97"/>
      <use x="113.378906" xlink:href="#DejaVuSans-109"/>
      <use x="210.791016" xlink:href="#DejaVuSans-112"/>
      <use x="274.267578" xlink:href="#DejaVuSans-108"/>
      <use x="302.050781" xlink:href="#DejaVuSans-101"/>
      <use x="363.574219" xlink:href="#DejaVuSans-115"/>
     </g>
    </g>
   </g>
   <g id="matplotlib.axis_2">
    <g id="ytick_1">
     <g id="line2d_13">
      <path clip-path="url(#p23ab9e1a14)" d="M 58.523438 318.534545 
L 515.068892 318.534545 
" style="fill:none;stroke:#b0b0b0;stroke-linecap:square;stroke-width:0.8;"/>
     </g>
     <g id="line2d_14">
      <defs>
       <path d="M 0 0 
L -3.5 0 
" id="ma844d864ad" style="stroke:#000000;stroke-width:0.8;"/>
      </defs>
      <g>
       <use style="stroke:#000000;stroke-width:0.8;" x="58.523438" xlink:href="#ma844d864ad" y="318.534545"/>
      </g>
     </g>
     <g id="text_8">
      <!-- −1.00 -->
      <g transform="translate(20.878125 322.333764)scale(0.1 -0.1)">
       <defs>
        <path d="M 10.59375 35.5 
L 73.1875 35.5 
L 73.1875 27.203125 
L 10.59375 27.203125 
z
" id="DejaVuSans-8722"/>
        <path d="M 10.6875 12.40625 
L 21 12.40625 
L 21 0 
L 10.6875 0 
z
" id="DejaVuSans-46"/>
       </defs>
       <use xlink:href="#DejaVuSans-8722"/>
       <use x="83.789062" xlink:href="#DejaVuSans-49"/>
       <use x="147.412109" xlink:href="#DejaVuSans-46"/>
       <use x="179.199219" xlink:href="#DejaVuSans-48"/>
       <use x="242.822266" xlink:href="#DejaVuSans-48"/>
      </g>
     </g>
    </g>
    <g id="ytick_2">
     <g id="line2d_15">
      <path clip-path="url(#p23ab9e1a14)" d="M 58.523438 281.470909 
L 515.068892 281.470909 
" style="fill:none;stroke:#b0b0b0;stroke-linecap:square;stroke-width:0.8;"/>
     </g>
     <g id="line2d_16">
      <g>
       <use style="stroke:#000000;stroke-width:0.8;" x="58.523438" xlink:href="#ma844d864ad" y="281.470909"/>
      </g>
     </g>
     <g id="text_9">
      <!-- −0.75 -->
      <g transform="translate(20.878125 285.270128)scale(0.1 -0.1)">
       <defs>
        <path d="M 8.203125 72.90625 
L 55.078125 72.90625 
L 55.078125 68.703125 
L 28.609375 0 
L 18.3125 0 
L 43.21875 64.59375 
L 8.203125 64.59375 
z
" id="DejaVuSans-55"/>
        <path d="M 10.796875 72.90625 
L 49.515625 72.90625 
L 49.515625 64.59375 
L 19.828125 64.59375 
L 19.828125 46.734375 
Q 21.96875 47.46875 24.109375 47.828125 
Q 26.265625 48.1875 28.421875 48.1875 
Q 40.625 48.1875 47.75 41.5 
Q 54.890625 34.8125 54.890625 23.390625 
Q 54.890625 11.625 47.5625 5.09375 
Q 40.234375 -1.421875 26.90625 -1.421875 
Q 22.3125 -1.421875 17.546875 -0.640625 
Q 12.796875 0.140625 7.71875 1.703125 
L 7.71875 11.625 
Q 12.109375 9.234375 16.796875 8.0625 
Q 21.484375 6.890625 26.703125 6.890625 
Q 35.15625 6.890625 40.078125 11.328125 
Q 45.015625 15.765625 45.015625 23.390625 
Q 45.015625 31 40.078125 35.4375 
Q 35.15625 39.890625 26.703125 39.890625 
Q 22.75 39.890625 18.8125 39.015625 
Q 14.890625 38.140625 10.796875 36.28125 
z
" id="DejaVuSans-53"/>
       </defs>
       <use xlink:href="#DejaVuSans-8722"/>
       <use x="83.789062" xlink:href="#DejaVuSans-48"/>
       <use x="147.412109" xlink:href="#DejaVuSans-46"/>
       <use x="179.199219" xlink:href="#DejaVuSans-55"/>
       <use x="242.822266" xlink:href="#DejaVuSans-53"/>
      </g>
     </g>
    </g>
    <g id="ytick_3">
     <g id="line2d_17">
      <path clip-path="url(#p23ab9e1a14)" d="M 58.523438 244.407273 
L 515.068892 244.407273 
" style="fill:none;stroke:#b0b0b0;stroke-linecap:square;stroke-width:0.8;"/>
     </g>
     <g id="line2d_18">
      <g>
       <use style="stroke:#000000;stroke-width:0.8;" x="58.523438" xlink:href="#ma844d864ad" y="244.407273"/>
      </g>
     </g>
     <g id="text_10">
      <!-- −0.50 -->
      <g transform="translate(20.878125 248.206491)scale(0.1 -0.1)">
       <use xlink:href="#DejaVuSans-8722"/>
       <use x="83.789062" xlink:href="#DejaVuSans-48"/>
       <use x="147.412109" xlink:href="#DejaVuSans-46"/>
       <use x="179.199219" xlink:href="#DejaVuSans-53"/>
       <use x="242.822266" xlink:href="#DejaVuSans-48"/>
      </g>
     </g>
    </g>
    <g id="ytick_4">
     <g id="line2d_19">
      <path clip-path="url(#p23ab9e1a14)" d="M 58.523438 207.343636 
L 515.068892 207.343636 
" style="fill:none;stroke:#b0b0b0;stroke-linecap:square;stroke-width:0.8;"/>
     </g>
     <g id="line2d_20">
      <g>
       <use style="stroke:#000000;stroke-width:0.8;" x="58.523438" xlink:href="#ma844d864ad" y="207.343636"/>
      </g>
     </g>
     <g id="text_11">
      <!-- −0.25 -->
      <g transform="translate(20.878125 211.142855)scale(0.1 -0.1)">
       <use xlink:href="#DejaVuSans-8722"/>
       <use x="83.789062" xlink:href="#DejaVuSans-48"/>
       <use x="147.412109" xlink:href="#DejaVuSans-46"/>
       <use x="179.199219" xlink:href="#DejaVuSans-50"/>
       <use x="242.822266" xlink:href="#DejaVuSans-53"/>
      </g>
     </g>
    </g>
    <g id="ytick_5">
     <g id="line2d_21">
      <path clip-path="url(#p23ab9e1a14)" d="M 58.523438 170.28 
L 515.068892 170.28 
" style="fill:none;stroke:#b0b0b0;stroke-linecap:square;stroke-width:0.8;"/>
     </g>
     <g id="line2d_22">
      <g>
       <use style="stroke:#000000;stroke-width:0.8;" x="58.523438" xlink:href="#ma844d864ad" y="170.28"/>
      </g>
     </g>
     <g id="text_12">
      <!-- 0.00 -->
      <g transform="translate(29.257813 174.079219)scale(0.1 -0.1)">
       <use xlink:href="#DejaVuSans-48"/>
       <use x="63.623047" xlink:href="#DejaVuSans-46"/>
       <use x="95.410156" xlink:href="#DejaVuSans-48"/>
       <use x="159.033203" xlink:href="#DejaVuSans-48"/>
      </g>
     </g>
    </g>
    <g id="ytick_6">
     <g id="line2d_23">
      <path clip-path="url(#p23ab9e1a14)" d="M 58.523438 133.216364 
L 515.068892 133.216364 
" style="fill:none;stroke:#b0b0b0;stroke-linecap:square;stroke-width:0.8;"/>
     </g>
     <g id="line2d_24">
      <g>
       <use style="stroke:#000000;stroke-width:0.8;" x="58.523438" xlink:href="#ma844d864ad" y="133.216364"/>
      </g>
     </g>
     <g id="text_13">
      <!-- 0.25 -->
      <g transform="translate(29.257813 137.015582)scale(0.1 -0.1)">
       <use xlink:href="#DejaVuSans-48"/>
       <use x="63.623047" xlink:href="#DejaVuSans-46"/>
       <use x="95.410156" xlink:href="#DejaVuSans-50"/>
       <use x="159.033203" xlink:href="#DejaVuSans-53"/>
      </g>
     </g>
    </g>
    <g id="ytick_7">
     <g id="line2d_25">
      <path clip-path="url(#p23ab9e1a14)" d="M 58.523438 96.152727 
L 515.068892 96.152727 
" style="fill:none;stroke:#b0b0b0;stroke-linecap:square;stroke-width:0.8;"/>
     </g>
     <g id="line2d_26">
      <g>
       <use style="stroke:#000000;stroke-width:0.8;" x="58.523438" xlink:href="#ma844d864ad" y="96.152727"/>
      </g>
     </g>
     <g id="text_14">
      <!-- 0.50 -->
      <g transform="translate(29.257813 99.951946)scale(0.1 -0.1)">
       <use xlink:href="#DejaVuSans-48"/>
       <use x="63.623047" xlink:href="#DejaVuSans-46"/>
       <use x="95.410156" xlink:href="#DejaVuSans-53"/>
       <use x="159.033203" xlink:href="#DejaVuSans-48"/>
      </g>
     </g>
    </g>
    <g id="ytick_8">
     <g id="line2d_27">
      <path clip-path="url(#p23ab9e1a14)" d="M 58.523438 59.089091 
L 515.068892 59.089091 
" style="fill:none;stroke:#b0b0b0;stroke-linecap:square;stroke-width:0.8;"/>
     </g>
     <g id="line2d_28">
      <g>
       <use style="stroke:#000000;stroke-width:0.8;" x="58.523438" xlink:href="#ma844d864ad" y="59.089091"/>
      </g>
     </g>
     <g id="text_15">
      <!-- 0.75 -->
      <g transform="translate(29.257813 62.88831)scale(0.1 -0.1)">
       <use xlink:href="#DejaVuSans-48"/>
       <use x="63.623047" xlink:href="#DejaVuSans-46"/>
       <use x="95.410156" xlink:href="#DejaVuSans-55"/>
       <use x="159.033203" xlink:href="#DejaVuSans-53"/>
      </g>
     </g>
    </g>
    <g id="ytick_9">
     <g id="line2d_29">
      <path clip-path="url(#p23ab9e1a14)" d="M 58.523438 22.025455 
L 515.068892 22.025455 
" style="fill:none;stroke:#b0b0b0;stroke-linecap:square;stroke-width:0.8;"/>
     </g>
     <g id="line2d_30">
      <g>
       <use style="stroke:#000000;stroke-width:0.8;" x="58.523438" xlink:href="#ma844d864ad" y="22.025455"/>
      </g>
     </g>
     <g id="text_16">
      <!-- 1.00 -->
      <g transform="translate(29.257813 25.824673)scale(0.1 -0.1)">
       <use xlink:href="#DejaVuSans-49"/>
       <use x="63.623047" xlink:href="#DejaVuSans-46"/>
       <use x="95.410156" xlink:href="#DejaVuSans-48"/>
       <use x="159.033203" xlink:href="#DejaVuSans-48"/>
      </g>
     </g>
    </g>
    <g id="text_17">
     <!-- amplitude -->
     <g transform="translate(14.798438 195.546406)rotate(-90)scale(0.1 -0.1)">
      <defs>
       <path d="M 9.421875 54.6875 
L 18.40625 54.6875 
L 18.40625 0 
L 9.421875 0 
z
M 9.421875 75.984375 
L 18.40625 75.984375 
L 18.40625 64.59375 
L 9.421875 64.59375 
z
" id="DejaVuSans-105"/>
       <path d="M 18.3125 70.21875 
L 18.3125 54.6875 
L 36.8125 54.6875 
L 36.8125 47.703125 
L 18.3125 47.703125 
L 18.3125 18.015625 
Q 18.3125 11.328125 20.140625 9.421875 
Q 21.96875 7.515625 27.59375 7.515625 
L 36.8125 7.515625 
L 36.8125 0 
L 27.59375 0 
Q 17.1875 0 13.234375 3.875 
Q 9.28125 7.765625 9.28125 18.015625 
L 9.28125 47.703125 
L 2.6875 47.703125 
L 2.6875 54.6875 
L 9.28125 54.6875 
L 9.28125 70.21875 
z
" id="DejaVuSans-116"/>
       <path d="M 8.5 21.578125 
L 8.5 54.6875 
L 17.484375 54.6875 
L 17.484375 21.921875 
Q 17.484375 14.15625 20.5 10.265625 
Q 23.53125 6.390625 29.59375 6.390625 
Q 36.859375 6.390625 41.078125 11.03125 
Q 45.3125 15.671875 45.3125 23.6875 
L 45.3125 54.6875 
L 54.296875 54.6875 
L 54.296875 0 
L 45.3125 0 
L 45.3125 8.40625 
Q 42.046875 3.421875 37.71875 1 
Q 33.40625 -1.421875 27.6875 -1.421875 
Q 18.265625 -1.421875 13.375 4.4375 
Q 8.5 10.296875 8.5 21.578125 
z
M 31.109375 56 
z
" id="DejaVuSans-117"/>
       <path d="M 45.40625 46.390625 
L 45.40625 75.984375 
L 54.390625 75.984375 
L 54.390625 0 
L 45.40625 0 
L 45.40625 8.203125 
Q 42.578125 3.328125 38.25 0.953125 
Q 33.9375 -1.421875 27.875 -1.421875 
Q 17.96875 -1.421875 11.734375 6.484375 
Q 5.515625 14.40625 5.515625 27.296875 
Q 5.515625 40.1875 11.734375 48.09375 
Q 17.96875 56 27.875 56 
Q 33.9375 56 38.25 53.625 
Q 42.578125 51.265625 45.40625 46.390625 
z
M 14.796875 27.296875 
Q 14.796875 17.390625 18.875 11.75 
Q 22.953125 6.109375 30.078125 6.109375 
Q 37.203125 6.109375 41.296875 11.75 
Q 45.40625 17.390625 45.40625 27.296875 
Q 45.40625 37.203125 41.296875 42.84375 
Q 37.203125 48.484375 30.078125 48.484375 
Q 22.953125 48.484375 18.875 42.84375 
Q 14.796875 37.203125 14.796875 27.296875 
z
" id="DejaVuSans-100"/>
      </defs>
      <use xlink:href="#DejaVuSans-97"/>
      <use x="61.279297" xlink:href="#DejaVuSans-109"/>
      <use x="158.691406" xlink:href="#DejaVuSans-112"/>
      <use x="222.167969" xlink:href="#DejaVuSans-108"/>
      <use x="249.951172" xlink:href="#DejaVuSans-105"/>
      <use x="277.734375" xlink:href="#DejaVuSans-116"/>
      <use x="316.943359" xlink:href="#DejaVuSans-117"/>
      <use x="380.322266" xlink:href="#DejaVuSans-100"/>
      <use x="443.798828" xlink:href="#DejaVuSans-101"/>
     </g>
    </g>
   </g>
   <g id="line2d_31">
    <path clip-path="url(#p23ab9e1a14)" d="M 79.275504 170.28 
L 82.845216 108.169497 
L 84.713089 79.561023 
L 86.207387 59.939342 
L 87.452635 46.316642 
L 88.531851 36.776633 
L 89.486541 30.231114 
L 90.275199 26.231179 
L 90.939331 23.879974 
L 91.478939 22.665997 
L 91.93553 22.130793 
L 92.267596 22.025923 
L 92.599662 22.160752 
L 92.973237 22.598665 
L 93.429828 23.544129 
L 93.969436 25.2394 
L 94.59206 27.964185 
L 95.339209 32.29968 
L 96.210883 38.781392 
L 97.207082 47.976568 
L 98.369314 60.940328 
L 99.697579 78.386819 
L 101.316402 102.807902 
L 103.391816 137.757483 
L 109.908617 250.033107 
L 111.52744 272.848541 
L 112.855705 288.668886 
L 114.017937 300.016535 
L 115.014135 307.708182 
L 115.885809 312.802822 
L 116.632958 315.90855 
L 117.214074 317.501431 
L 117.712174 318.286922 
L 118.085748 318.52284 
L 118.417815 318.477893 
L 118.749881 318.193338 
L 119.164964 317.501431 
L 119.663063 316.180463 
L 120.244179 313.969066 
L 120.94982 310.328886 
L 121.779985 304.740322 
L 122.734676 296.639084 
L 123.813891 285.45633 
L 125.05914 270.126042 
L 126.553438 248.772708 
L 128.379802 219.270492 
L 131.202366 169.534795 
L 134.73057 108.169497 
L 136.598443 79.561023 
L 138.092741 59.939342 
L 139.337989 46.316642 
L 140.417205 36.776633 
L 141.371895 30.231114 
L 142.160552 26.231179 
L 142.824685 23.879974 
L 143.364293 22.665997 
L 143.820884 22.130793 
L 144.15295 22.025923 
L 144.485016 22.160752 
L 144.858591 22.598665 
L 145.315182 23.544129 
L 145.85479 25.2394 
L 146.477414 27.964185 
L 147.224563 32.29968 
L 148.096237 38.781392 
L 149.092436 47.976568 
L 150.254668 60.940328 
L 151.582933 78.386819 
L 153.201756 102.807902 
L 155.27717 137.757483 
L 161.79397 250.033107 
L 163.412793 272.848541 
L 164.741058 288.668886 
L 165.90329 300.016535 
L 166.899489 307.708182 
L 167.771163 312.802822 
L 168.518312 315.90855 
L 169.099428 317.501431 
L 169.597528 318.286922 
L 169.971102 318.52284 
L 170.303168 318.477893 
L 170.635235 318.193338 
L 171.050317 317.501431 
L 171.548417 316.180463 
L 172.129533 313.969066 
L 172.835174 310.328886 
L 173.665339 304.740322 
L 174.62003 296.639084 
L 175.699245 285.45633 
L 176.944494 270.126042 
L 178.438792 248.772708 
L 180.265156 219.270492 
L 183.08772 169.534795 
L 186.615924 108.169497 
L 188.483796 79.561023 
L 189.978095 59.939342 
L 191.223343 46.316642 
L 192.302558 36.776633 
L 193.257249 30.231114 
L 194.045906 26.231179 
L 194.710039 23.879974 
L 195.249646 22.665997 
L 195.706238 22.130793 
L 196.038304 22.025923 
L 196.37037 22.160752 
L 196.743945 22.598665 
L 197.200536 23.544129 
L 197.740143 25.2394 
L 198.362768 27.964185 
L 199.109917 32.29968 
L 199.981591 38.781392 
L 200.97779 47.976568 
L 202.140021 60.940328 
L 203.468287 78.386819 
L 205.08711 102.807902 
L 207.162524 137.757483 
L 213.679324 250.033107 
L 215.298147 272.848541 
L 216.626412 288.668886 
L 217.788644 300.016535 
L 218.784843 307.708182 
L 219.656517 312.802822 
L 220.403666 315.90855 
L 220.984782 317.501431 
L 221.482881 318.286922 
L 221.856456 318.52284 
L 222.188522 318.477893 
L 222.520588 318.193338 
L 222.935671 317.501431 
L 223.433771 316.180463 
L 224.014887 313.969066 
L 224.720527 310.328886 
L 225.550693 304.740322 
L 226.505384 296.639084 
L 227.584599 285.45633 
L 228.829847 270.126042 
L 230.324146 248.772708 
L 232.15051 219.270492 
L 234.973073 169.534795 
L 238.501277 108.169497 
L 240.36915 79.561023 
L 241.863448 59.939342 
L 243.108697 46.316642 
L 244.187912 36.776633 
L 245.142603 30.231114 
L 245.93126 26.231179 
L 246.595393 23.879974 
L 247.135 22.665997 
L 247.591591 22.130793 
L 247.923658 22.025923 
L 248.255724 22.160752 
L 248.629298 22.598665 
L 249.08589 23.544129 
L 249.625497 25.2394 
L 250.248122 27.964185 
L 250.995271 32.29968 
L 251.866945 38.781392 
L 252.863143 47.976568 
L 254.025375 60.940328 
L 255.35364 78.386819 
L 256.972463 102.807902 
L 259.047878 137.757483 
L 265.564678 250.033107 
L 267.183501 272.848541 
L 268.511766 288.668886 
L 269.673998 300.016535 
L 270.670197 307.708182 
L 271.541871 312.802822 
L 272.28902 315.90855 
L 272.870136 317.501431 
L 273.368235 318.286922 
L 273.74181 318.52284 
L 274.073876 318.477893 
L 274.405942 318.193338 
L 274.821025 317.501431 
L 275.319125 316.180463 
L 275.90024 313.969066 
L 276.605881 310.328886 
L 277.436047 304.740322 
L 278.390737 296.639084 
L 279.469953 285.45633 
L 280.715201 270.126042 
L 282.209499 248.772708 
L 284.035864 219.270492 
L 286.858427 169.534795 
L 290.386631 108.169497 
L 292.254504 79.561023 
L 293.748802 59.939342 
L 294.994051 46.316642 
L 296.073266 36.776633 
L 297.027957 30.231114 
L 297.816614 26.231179 
L 298.480746 23.879974 
L 299.020354 22.665997 
L 299.476945 22.130793 
L 299.809012 22.025923 
L 300.141078 22.160752 
L 300.514652 22.598665 
L 300.971243 23.544129 
L 301.510851 25.2394 
L 302.133475 27.964185 
L 302.880624 32.29968 
L 303.752298 38.781392 
L 304.748497 47.976568 
L 305.910729 60.940328 
L 307.238994 78.386819 
L 308.857817 102.807902 
L 310.933231 137.757483 
L 317.450032 250.033107 
L 319.068855 272.848541 
L 320.39712 288.668886 
L 321.559352 300.016535 
L 322.555551 307.708182 
L 323.427225 312.802822 
L 324.174374 315.90855 
L 324.75549 317.501431 
L 325.253589 318.286922 
L 325.627164 318.52284 
L 325.95923 318.477893 
L 326.291296 318.193338 
L 326.706379 317.501431 
L 327.204478 316.180463 
L 327.785594 313.969066 
L 328.491235 310.328886 
L 329.321401 304.740322 
L 330.276091 296.639084 
L 331.355307 285.45633 
L 332.600555 270.126042 
L 334.094853 248.772708 
L 335.921218 219.270492 
L 338.743781 169.534795 
L 342.271985 108.169497 
L 344.139858 79.561023 
L 345.634156 59.939342 
L 346.879405 46.316642 
L 347.95862 36.776633 
L 348.91331 30.231114 
L 349.701968 26.231179 
L 350.3661 23.879974 
L 350.905708 22.665997 
L 351.362299 22.130793 
L 351.694365 22.025923 
L 352.026432 22.160752 
L 352.400006 22.598665 
L 352.856597 23.544129 
L 353.396205 25.2394 
L 354.018829 27.964185 
L 354.765978 32.29968 
L 355.637652 38.781392 
L 356.633851 47.976568 
L 357.796083 60.940328 
L 359.124348 78.386819 
L 360.743171 102.807902 
L 362.818585 137.757483 
L 369.335386 250.033107 
L 370.954209 272.848541 
L 372.282474 288.668886 
L 373.444706 300.016535 
L 374.440904 307.708182 
L 375.312578 312.802822 
L 376.059727 315.90855 
L 376.640843 317.501431 
L 377.138943 318.286922 
L 377.512517 318.52284 
L 377.844584 318.477893 
L 378.17665 318.193338 
L 378.591733 317.501431 
L 379.089832 316.180463 
L 379.670948 313.969066 
L 380.376589 310.328886 
L 381.206755 304.740322 
L 382.161445 296.639084 
L 383.24066 285.45633 
L 384.485909 270.126042 
L 385.980207 248.772708 
L 387.806572 219.270492 
L 390.629135 169.534795 
L 394.157339 108.169497 
L 396.025212 79.561023 
L 397.51951 59.939342 
L 398.764758 46.316642 
L 399.843974 36.776633 
L 400.798664 30.231114 
L 401.587322 26.231179 
L 402.251454 23.879974 
L 402.791062 22.665997 
L 403.247653 22.130793 
L 403.579719 22.025923 
L 403.911785 22.160752 
L 404.28536 22.598665 
L 404.741951 23.544129 
L 405.281559 25.2394 
L 405.904183 27.964185 
L 406.651332 32.29968 
L 407.523006 38.781392 
L 408.519205 47.976568 
L 409.681437 60.940328 
L 411.009702 78.386819 
L 412.628525 102.807902 
L 414.703939 137.757483 
L 421.220739 250.033107 
L 422.839563 272.848541 
L 424.167828 288.668886 
L 425.330059 300.016535 
L 426.326258 307.708182 
L 427.197932 312.802822 
L 427.945081 315.90855 
L 428.526197 317.501431 
L 429.024297 318.286922 
L 429.397871 318.52284 
L 429.729937 318.477893 
L 430.062004 318.193338 
L 430.477087 317.501431 
L 430.975186 316.180463 
L 431.556302 313.969066 
L 432.261943 310.328886 
L 433.092108 304.740322 
L 434.046799 296.639084 
L 435.126014 285.45633 
L 436.371263 270.126042 
L 437.865561 248.772708 
L 439.691925 219.270492 
L 442.514489 169.534795 
L 446.042693 108.169497 
L 447.910565 79.561023 
L 449.404864 59.939342 
L 450.650112 46.316642 
L 451.729328 36.776633 
L 452.684018 30.231114 
L 453.472675 26.231179 
L 454.136808 23.879974 
L 454.676416 22.665997 
L 455.133007 22.130793 
L 455.465073 22.025923 
L 455.797139 22.160752 
L 456.170714 22.598665 
L 456.627305 23.544129 
L 457.166913 25.2394 
L 457.789537 27.964185 
L 458.536686 32.29968 
L 459.40836 38.781392 
L 460.404559 47.976568 
L 461.566791 60.940328 
L 462.895056 78.386819 
L 464.513879 102.807902 
L 466.589293 137.757483 
L 473.106093 250.033107 
L 474.724916 272.848541 
L 476.053181 288.668886 
L 477.215413 300.016535 
L 478.211612 307.708182 
L 479.083286 312.802822 
L 479.830435 315.90855 
L 480.411551 317.501431 
L 480.909651 318.286922 
L 481.283225 318.52284 
L 481.615291 318.477893 
L 481.947358 318.193338 
L 482.36244 317.501431 
L 482.86054 316.180463 
L 483.441656 313.969066 
L 484.147297 310.328886 
L 484.977462 304.740322 
L 485.932153 296.639084 
L 487.011368 285.45633 
L 488.256617 270.126042 
L 489.750915 248.772708 
L 491.577279 219.270492 
L 494.316826 171.025205 
L 494.316826 171.025205 
" style="fill:none;stroke:#d3d3d3;stroke-linecap:square;stroke-width:1.5;"/>
   </g>
   <g id="line2d_32">
    <path clip-path="url(#p23ab9e1a14)" d="M 79.275504 170.28 
L 93.969436 137.575745 
L 101.772993 120.762348 
L 108.248285 107.324906 
L 113.976428 95.937708 
L 119.206472 86.02644 
L 124.021433 77.367005 
L 128.545836 69.67891 
L 132.821189 62.84688 
L 136.847492 56.823609 
L 140.707763 51.444051 
L 144.360491 46.726951 
L 147.888696 42.529056 
L 151.250866 38.867532 
L 154.488513 35.663153 
L 157.601634 32.886789 
L 160.631738 30.477367 
L 163.578827 28.416007 
L 166.442898 26.683144 
L 169.223953 25.25872 
L 171.921991 24.12237 
L 174.578522 23.24165 
L 177.193543 22.606877 
L 179.767057 22.208055 
L 182.34057 22.033912 
L 184.914084 22.084711 
L 187.487598 22.360375 
L 190.061111 22.860486 
L 192.676133 23.597788 
L 195.332663 24.582091 
L 198.030701 25.822881 
L 200.770248 27.329251 
L 203.592811 29.138318 
L 206.498391 31.269644 
L 209.486988 33.742318 
L 212.558601 36.574757 
L 215.754738 39.828739 
L 219.075401 43.532745 
L 222.520588 47.713928 
L 226.131809 52.454149 
L 229.909063 57.788702 
L 233.85235 63.749708 
L 238.003178 70.433958 
L 242.403056 77.948881 
L 247.093492 86.410088 
L 252.115994 95.937708 
L 257.595088 106.819342 
L 263.696805 119.447543 
L 270.711705 134.494326 
L 279.635986 154.196579 
L 305.786204 212.267464 
L 312.801104 227.100607 
L 318.861313 239.405628 
L 324.298899 249.954567 
L 329.321401 259.220519 
L 333.970328 267.340478 
L 338.370206 274.58353 
L 342.521035 280.993158 
L 346.464322 286.677964 
L 350.200067 291.681443 
L 353.769779 296.100137 
L 357.214967 300.016535 
L 360.53563 303.457625 
L 363.731767 306.452037 
L 366.80338 309.029573 
L 369.791977 311.249638 
L 372.697557 313.131525 
L 375.52012 314.695109 
L 378.259666 315.960655 
L 380.957705 316.962212 
L 383.572727 317.699514 
L 386.187749 318.205854 
L 388.761262 318.477893 
L 391.334776 318.525064 
L 393.908289 318.347294 
L 396.481803 317.944852 
L 399.055316 317.31835 
L 401.670338 316.453213 
L 404.326868 315.339862 
L 407.066415 313.946098 
L 409.84747 312.278564 
L 412.711541 310.298298 
L 415.65863 307.98599 
L 418.688734 305.322906 
L 421.843364 302.248664 
L 425.08101 298.780741 
L 428.484689 294.802417 
L 432.012893 290.329858 
L 435.70713 285.280169 
L 439.567401 279.619672 
L 443.635212 273.251369 
L 447.910565 266.137946 
L 452.434968 258.173718 
L 457.291437 249.167441 
L 462.562989 238.910703 
L 468.332641 227.186634 
L 474.849441 213.427435 
L 482.694507 196.319672 
L 494.316826 170.373151 
L 494.316826 170.373151 
" style="fill:none;stroke:#d3d3d3;stroke-linecap:square;stroke-width:1.5;"/>
   </g>
   <g id="line2d_33">
    <path clip-path="url(#p23ab9e1a14)" d="M 79.275504 170.28 
L 79.898128 170.17475 
L 80.56226 169.83188 
L 81.267901 169.2118 
L 82.056559 168.21824 
L 82.969741 166.69551 
L 84.048956 164.431911 
L 85.335713 161.184091 
L 87.079061 156.119328 
L 91.271397 143.693604 
L 92.558154 140.693125 
L 93.554353 138.882673 
L 94.384519 137.787771 
L 95.090159 137.190702 
L 95.712784 136.940376 
L 96.252391 136.945798 
L 96.791999 137.167042 
L 97.373115 137.655297 
L 97.995739 138.474559 
L 98.70138 139.781885 
L 99.490037 141.726273 
L 100.40322 144.616789 
L 101.399418 148.541319 
L 102.520142 153.881425 
L 103.806899 161.130849 
L 105.342705 171.139396 
L 107.293595 185.45229 
L 113.478329 232.032531 
L 114.88961 240.391812 
L 116.051842 246.004534 
L 117.006533 249.60435 
L 117.836699 251.911731 
L 118.500831 253.166853 
L 119.040439 253.781424 
L 119.49703 254.008638 
L 119.912113 253.977081 
L 120.327196 253.714965 
L 120.783787 253.15681 
L 121.323394 252.128824 
L 121.946019 250.443145 
L 122.693168 247.712337 
L 123.523333 243.778123 
L 124.478024 238.10549 
L 125.557239 230.270599 
L 126.802488 219.480279 
L 128.255278 204.786049 
L 129.998626 184.724737 
L 132.447614 153.697038 
L 136.598443 101.075126 
L 138.34179 81.964797 
L 139.711564 69.23027 
L 140.873796 60.370499 
L 141.869994 54.391828 
L 142.70016 50.646803 
L 143.405801 48.39702 
L 143.986917 47.211328 
L 144.443508 46.711942 
L 144.817083 46.590219 
L 145.149149 46.700645 
L 145.522723 47.072248 
L 145.979314 47.883483 
L 146.518922 49.349249 
L 147.141546 51.721137 
L 147.888696 55.520839 
L 148.760369 61.242298 
L 149.756568 69.420019 
L 150.877292 80.589083 
L 152.164049 95.751574 
L 153.699855 116.652705 
L 155.609236 145.866899 
L 159.220457 205.452369 
L 161.79397 245.941738 
L 163.49581 269.414183 
L 164.907092 285.937976 
L 166.069323 297.125926 
L 167.065522 304.765402 
L 167.937196 309.862892 
L 168.684345 312.997362 
L 169.30697 314.713122 
L 169.805069 315.489 
L 170.178644 315.719645 
L 170.51071 315.67079 
L 170.842776 315.382598 
L 171.257859 314.685903 
L 171.755958 313.357871 
L 172.337074 311.135021 
L 173.042715 307.474298 
L 173.872881 301.849805 
L 174.827571 293.689327 
L 175.906787 282.416078 
L 177.152035 266.954413 
L 178.646333 245.420324 
L 180.514206 214.995915 
L 183.585819 160.599504 
L 186.615924 108.260151 
L 188.442288 80.452065 
L 189.895078 61.527393 
L 191.140326 48.063492 
L 192.219542 38.710195 
L 193.132724 32.600959 
L 193.921381 28.716317 
L 194.585514 26.471188 
L 195.125122 25.347181 
L 195.540204 24.912142 
L 195.872271 24.833382 
L 196.204337 24.993658 
L 196.577912 25.45876 
L 197.034503 26.43429 
L 197.57411 28.158657 
L 198.238243 31.116576 
L 198.985392 35.517568 
L 199.857066 42.031347 
L 200.894773 51.607435 
L 202.098513 64.974829 
L 203.509795 83.318404 
L 205.253143 109.102608 
L 207.826656 150.929021 
L 211.728435 214.086521 
L 213.554799 239.983402 
L 215.049098 258.149049 
L 216.294346 270.762595 
L 217.373561 279.621016 
L 218.328252 285.744001 
L 219.158418 289.710234 
L 219.864058 292.06824 
L 220.445174 293.305499 
L 220.901765 293.831021 
L 221.27534 293.969781 
L 221.607406 293.874386 
L 221.980981 293.522878 
L 222.437572 292.745897 
L 222.97718 291.342813 
L 223.641312 288.912109 
L 224.388461 285.281494 
L 225.260135 279.906897 
L 226.297842 272.025348 
L 227.501582 261.077107 
L 228.954372 245.694182 
L 230.822245 223.334625 
L 234.474974 176.113312 
L 236.965471 145.519024 
L 238.708819 126.704353 
L 240.161609 113.337011 
L 241.406857 103.846326 
L 242.486073 97.226849 
L 243.440763 92.675733 
L 244.270929 89.736795 
L 244.97657 87.988357 
L 245.557686 87.063508 
L 246.055785 86.637197 
L 246.470868 86.536825 
L 246.885951 86.664529 
L 247.342542 87.063522 
L 247.882149 87.875726 
L 248.504774 89.256334 
L 249.251923 91.511267 
L 250.123597 94.913426 
L 251.161304 99.946452 
L 252.365044 106.944619 
L 253.859342 117.014298 
L 255.934756 132.659102 
L 260.708209 169.132444 
L 262.410048 180.179314 
L 263.82133 187.946939 
L 265.02507 193.414886 
L 266.104286 197.341831 
L 267.058976 200.021841 
L 267.889142 201.743036 
L 268.636291 202.813335 
L 269.300423 203.392958 
L 269.881539 203.622176 
L 270.421147 203.611347 
L 271.002263 203.369298 
L 271.624887 202.858993 
L 272.372036 201.928246 
L 273.24371 200.446243 
L 274.281417 198.204174 
L 275.568174 194.857523 
L 277.436047 189.309262 
L 280.839726 179.151197 
L 282.251008 175.656981 
L 283.41324 173.338622 
L 284.36793 171.885748 
L 285.198096 170.987552 
L 285.945245 170.486099 
L 286.609377 170.291704 
L 287.232002 170.326803 
L 287.896134 170.595608 
L 288.601775 171.138925 
L 289.390432 172.050428 
L 290.262106 173.411442 
L 291.299813 175.473102 
L 292.545062 178.488562 
L 294.122377 182.93878 
L 299.35242 198.204174 
L 300.514652 200.682065 
L 301.469343 202.219927 
L 302.258 203.093233 
L 302.922133 203.519464 
L 303.503249 203.643406 
L 304.042856 203.539395 
L 304.623972 203.181733 
L 305.246597 202.506367 
L 305.910729 201.443913 
L 306.657878 199.818596 
L 307.529552 197.341831 
L 308.484243 193.915925 
L 309.563458 189.169295 
L 310.808707 182.606708 
L 312.219988 173.911511 
L 313.963336 161.677937 
L 316.53685 141.808451 
L 319.899021 116.12743 
L 321.559352 105.153057 
L 322.846109 98.019282 
L 323.925324 93.193884 
L 324.838506 90.057638 
L 325.585655 88.198174 
L 326.20828 87.164701 
L 326.747887 86.664529 
L 327.204478 86.536537 
L 327.619561 86.659917 
L 328.076152 87.063508 
L 328.574252 87.827852 
L 329.155368 89.151072 
L 329.8195 91.235294 
L 330.608158 94.501558 
L 331.479831 99.099357 
L 332.47603 105.589611 
L 333.638262 114.744727 
L 334.966527 127.119501 
L 336.502334 143.615447 
L 338.453223 167.130767 
L 345.551139 255.180781 
L 347.003929 269.188011 
L 348.20767 278.750628 
L 349.203868 285.052822 
L 350.075542 289.257621 
L 350.822691 291.829855 
L 351.445316 293.216783 
L 351.943415 293.81854 
L 352.31699 293.969086 
L 352.649056 293.884455 
L 353.02263 293.542009 
L 353.479222 292.766518 
L 354.018829 291.342988 
L 354.641453 289.019577 
L 355.388603 285.277267 
L 356.218768 279.921278 
L 357.173459 272.25487 
L 358.294182 261.309835 
L 359.580939 246.37653 
L 361.075237 226.295146 
L 362.94311 198.000063 
L 366.014723 147.474746 
L 369.044828 98.941425 
L 370.829684 73.818335 
L 372.240965 56.860124 
L 373.444706 44.887104 
L 374.482413 36.645881 
L 375.354087 31.331585 
L 376.101236 28.004227 
L 376.72386 26.124032 
L 377.221959 25.214907 
L 377.637042 24.865504 
L 377.969109 24.854566 
L 378.301175 25.082911 
L 378.674749 25.625874 
L 379.13134 26.699986 
L 379.712456 28.716317 
L 380.376589 31.900723 
L 381.165246 36.875982 
L 382.078429 44.200931 
L 383.116136 54.453901 
L 384.319876 68.709693 
L 385.731157 88.252549 
L 387.432997 115.074678 
L 389.840477 156.885395 
L 394.281864 234.31309 
L 396.06672 261.273374 
L 397.51951 280.013782 
L 398.72325 292.897328 
L 399.760957 301.849805 
L 400.674139 307.959041 
L 401.462797 311.843683 
L 402.126929 314.088812 
L 402.666537 315.212819 
L 403.08162 315.647858 
L 403.413686 315.726618 
L 403.745752 315.566342 
L 404.119327 315.10124 
L 404.575918 314.12571 
L 405.115526 312.401343 
L 405.779658 309.443424 
L 406.526807 305.042432 
L 407.398481 298.528653 
L 408.436188 288.952565 
L 409.639928 275.585171 
L 411.05121 257.241596 
L 412.794558 231.457392 
L 415.368072 189.630979 
L 419.26985 126.473479 
L 421.096215 100.576598 
L 422.590513 82.410951 
L 423.835761 69.797405 
L 424.914977 60.938984 
L 425.869667 54.815999 
L 426.699833 50.849766 
L 427.405474 48.49176 
L 427.98659 47.254501 
L 428.443181 46.728979 
L 428.816755 46.590219 
L 429.148822 46.685614 
L 429.522396 47.037122 
L 429.978987 47.814103 
L 430.518595 49.217187 
L 431.182727 51.647891 
L 431.929876 55.278506 
L 432.80155 60.653103 
L 433.839258 68.534652 
L 435.042998 79.482893 
L 436.495788 94.865818 
L 438.36366 117.225375 
L 442.016389 164.446688 
L 444.506886 195.040976 
L 446.250234 213.855647 
L 447.703024 227.222989 
L 448.948273 236.713674 
L 450.027488 243.333151 
L 450.982178 247.884267 
L 451.812344 250.823205 
L 452.517985 252.571643 
L 453.099101 253.496492 
L 453.5972 253.922803 
L 454.012283 254.023175 
L 454.427366 253.895471 
L 454.883957 253.496478 
L 455.423565 252.684274 
L 456.046189 251.303666 
L 456.793338 249.048733 
L 457.665012 245.646574 
L 458.702719 240.613548 
L 459.906459 233.615381 
L 461.400757 223.545702 
L 463.476172 207.900898 
L 468.249624 171.427556 
L 469.951464 160.380686 
L 471.362745 152.613061 
L 472.566486 147.145114 
L 473.645701 143.218169 
L 474.600391 140.538159 
L 475.430557 138.816964 
L 476.177706 137.746665 
L 476.841839 137.167042 
L 477.422955 136.937824 
L 477.962562 136.948653 
L 478.543678 137.190702 
L 479.166303 137.701007 
L 479.913452 138.631754 
L 480.785126 140.113757 
L 481.822833 142.355826 
L 483.10959 145.702477 
L 484.977462 151.250738 
L 488.381141 161.408803 
L 489.792423 164.903019 
L 490.954655 167.221378 
L 491.909346 168.674252 
L 492.739511 169.572448 
L 493.48666 170.073901 
L 494.150793 170.268296 
L 494.316826 170.279532 
L 494.316826 170.279532 
" style="fill:none;stroke:#ffa500;stroke-linecap:square;stroke-width:1.5;"/>
   </g>
   <g id="patch_3">
    <path d="M 58.523438 333.36 
L 58.523438 7.2 
" style="fill:none;stroke:#000000;stroke-linecap:square;stroke-linejoin:miter;stroke-width:0.8;"/>
   </g>
   <g id="patch_4">
    <path d="M 515.068892 333.36 
L 515.068892 7.2 
" style="fill:none;stroke:#000000;stroke-linecap:square;stroke-linejoin:miter;stroke-width:0.8;"/>
   </g>
   <g id="patch_5">
    <path d="M 58.523438 333.36 
L 515.068892 333.36 
" style="fill:none;stroke:#000000;stroke-linecap:square;stroke-linejoin:miter;stroke-width:0.8;"/>
   </g>
   <g id="patch_6">
    <path d="M 58.523438 7.2 
L 515.068892 7.2 
" style="fill:none;stroke:#000000;stroke-linecap:square;stroke-linejoin:miter;stroke-width:0.8;"/>
   </g>
   <g id="text_18">
    <!-- multiplication -->
    <g transform="translate(245.85179 392.592)scale(0.12 -0.12)">
     <defs>
      <path d="M 48.78125 52.59375 
L 48.78125 44.1875 
Q 44.96875 46.296875 41.140625 47.34375 
Q 37.3125 48.390625 33.40625 48.390625 
Q 24.65625 48.390625 19.8125 42.84375 
Q 14.984375 37.3125 14.984375 27.296875 
Q 14.984375 17.28125 19.8125 11.734375 
Q 24.65625 6.203125 33.40625 6.203125 
Q 37.3125 6.203125 41.140625 7.25 
Q 44.96875 8.296875 48.78125 10.40625 
L 48.78125 2.09375 
Q 45.015625 0.34375 40.984375 -0.53125 
Q 36.96875 -1.421875 32.421875 -1.421875 
Q 20.0625 -1.421875 12.78125 6.34375 
Q 5.515625 14.109375 5.515625 27.296875 
Q 5.515625 40.671875 12.859375 48.328125 
Q 20.21875 56 33.015625 56 
Q 37.15625 56 41.109375 55.140625 
Q 45.0625 54.296875 48.78125 52.59375 
z
" id="DejaVuSans-99"/>
      <path d="M 30.609375 48.390625 
Q 23.390625 48.390625 19.1875 42.75 
Q 14.984375 37.109375 14.984375 27.296875 
Q 14.984375 17.484375 19.15625 11.84375 
Q 23.34375 6.203125 30.609375 6.203125 
Q 37.796875 6.203125 41.984375 11.859375 
Q 46.1875 17.53125 46.1875 27.296875 
Q 46.1875 37.015625 41.984375 42.703125 
Q 37.796875 48.390625 30.609375 48.390625 
z
M 30.609375 56 
Q 42.328125 56 49.015625 48.375 
Q 55.71875 40.765625 55.71875 27.296875 
Q 55.71875 13.875 49.015625 6.21875 
Q 42.328125 -1.421875 30.609375 -1.421875 
Q 18.84375 -1.421875 12.171875 6.21875 
Q 5.515625 13.875 5.515625 27.296875 
Q 5.515625 40.765625 12.171875 48.375 
Q 18.84375 56 30.609375 56 
z
" id="DejaVuSans-111"/>
      <path d="M 54.890625 33.015625 
L 54.890625 0 
L 45.90625 0 
L 45.90625 32.71875 
Q 45.90625 40.484375 42.875 44.328125 
Q 39.84375 48.1875 33.796875 48.1875 
Q 26.515625 48.1875 22.3125 43.546875 
Q 18.109375 38.921875 18.109375 30.90625 
L 18.109375 0 
L 9.078125 0 
L 9.078125 54.6875 
L 18.109375 54.6875 
L 18.109375 46.1875 
Q 21.34375 51.125 25.703125 53.5625 
Q 30.078125 56 35.796875 56 
Q 45.21875 56 50.046875 50.171875 
Q 54.890625 44.34375 54.890625 33.015625 
z
" id="DejaVuSans-110"/>
     </defs>
     <use xlink:href="#DejaVuSans-109"/>
     <use x="97.412109" xlink:href="#DejaVuSans-117"/>
     <use x="160.791016" xlink:href="#DejaVuSans-108"/>
     <use x="188.574219" xlink:href="#DejaVuSans-116"/>
     <use x="227.783203" xlink:href="#DejaVuSans-105"/>
     <use x="255.566406" xlink:href="#DejaVuSans-112"/>
     <use x="319.042969" xlink:href="#DejaVuSans-108"/>
     <use x="346.826172" xlink:href="#DejaVuSans-105"/>
     <use x="374.609375" xlink:href="#DejaVuSans-99"/>
     <use x="429.589844" xlink:href="#DejaVuSans-97"/>
     <use x="490.869141" xlink:href="#DejaVuSans-116"/>
     <use x="530.078125" xlink:href="#DejaVuSans-105"/>
     <use x="557.861328" xlink:href="#DejaVuSans-111"/>
     <use x="619.042969" xlink:href="#DejaVuSans-110"/>
    </g>
   </g>
  </g>
  <g id="axes_2">
   <g id="patch_7">
    <path d="M 606.377983 333.36 
L 1062.923437 333.36 
L 1062.923437 7.2 
L 606.377983 7.2 
z
" style="fill:#ffffff;"/>
   </g>
   <g id="matplotlib.axis_3">
    <g id="xtick_7">
     <g id="line2d_34">
      <path clip-path="url(#p1246f03b46)" d="M 627.130049 333.36 
L 627.130049 7.2 
" style="fill:none;stroke:#b0b0b0;stroke-linecap:square;stroke-width:0.8;"/>
     </g>
     <g id="line2d_35">
      <g>
       <use style="stroke:#000000;stroke-width:0.8;" x="627.130049" xlink:href="#m921011b87e" y="333.36"/>
      </g>
     </g>
     <g id="text_19">
      <!-- 0 -->
      <g transform="translate(623.948799 347.958438)scale(0.1 -0.1)">
       <use xlink:href="#DejaVuSans-48"/>
      </g>
     </g>
    </g>
    <g id="xtick_8">
     <g id="line2d_36">
      <path clip-path="url(#p1246f03b46)" d="M 710.146615 333.36 
L 710.146615 7.2 
" style="fill:none;stroke:#b0b0b0;stroke-linecap:square;stroke-width:0.8;"/>
     </g>
     <g id="line2d_37">
      <g>
       <use style="stroke:#000000;stroke-width:0.8;" x="710.146615" xlink:href="#m921011b87e" y="333.36"/>
      </g>
     </g>
     <g id="text_20">
      <!-- 2000 -->
      <g transform="translate(697.421615 347.958438)scale(0.1 -0.1)">
       <use xlink:href="#DejaVuSans-50"/>
       <use x="63.623047" xlink:href="#DejaVuSans-48"/>
       <use x="127.246094" xlink:href="#DejaVuSans-48"/>
       <use x="190.869141" xlink:href="#DejaVuSans-48"/>
      </g>
     </g>
    </g>
    <g id="xtick_9">
     <g id="line2d_38">
      <path clip-path="url(#p1246f03b46)" d="M 793.163181 333.36 
L 793.163181 7.2 
" style="fill:none;stroke:#b0b0b0;stroke-linecap:square;stroke-width:0.8;"/>
     </g>
     <g id="line2d_39">
      <g>
       <use style="stroke:#000000;stroke-width:0.8;" x="793.163181" xlink:href="#m921011b87e" y="333.36"/>
      </g>
     </g>
     <g id="text_21">
      <!-- 4000 -->
      <g transform="translate(780.438181 347.958438)scale(0.1 -0.1)">
       <use xlink:href="#DejaVuSans-52"/>
       <use x="63.623047" xlink:href="#DejaVuSans-48"/>
       <use x="127.246094" xlink:href="#DejaVuSans-48"/>
       <use x="190.869141" xlink:href="#DejaVuSans-48"/>
      </g>
     </g>
    </g>
    <g id="xtick_10">
     <g id="line2d_40">
      <path clip-path="url(#p1246f03b46)" d="M 876.179747 333.36 
L 876.179747 7.2 
" style="fill:none;stroke:#b0b0b0;stroke-linecap:square;stroke-width:0.8;"/>
     </g>
     <g id="line2d_41">
      <g>
       <use style="stroke:#000000;stroke-width:0.8;" x="876.179747" xlink:href="#m921011b87e" y="333.36"/>
      </g>
     </g>
     <g id="text_22">
      <!-- 6000 -->
      <g transform="translate(863.454747 347.958438)scale(0.1 -0.1)">
       <use xlink:href="#DejaVuSans-54"/>
       <use x="63.623047" xlink:href="#DejaVuSans-48"/>
       <use x="127.246094" xlink:href="#DejaVuSans-48"/>
       <use x="190.869141" xlink:href="#DejaVuSans-48"/>
      </g>
     </g>
    </g>
    <g id="xtick_11">
     <g id="line2d_42">
      <path clip-path="url(#p1246f03b46)" d="M 959.196314 333.36 
L 959.196314 7.2 
" style="fill:none;stroke:#b0b0b0;stroke-linecap:square;stroke-width:0.8;"/>
     </g>
     <g id="line2d_43">
      <g>
       <use style="stroke:#000000;stroke-width:0.8;" x="959.196314" xlink:href="#m921011b87e" y="333.36"/>
      </g>
     </g>
     <g id="text_23">
      <!-- 8000 -->
      <g transform="translate(946.471314 347.958438)scale(0.1 -0.1)">
       <use xlink:href="#DejaVuSans-56"/>
       <use x="63.623047" xlink:href="#DejaVuSans-48"/>
       <use x="127.246094" xlink:href="#DejaVuSans-48"/>
       <use x="190.869141" xlink:href="#DejaVuSans-48"/>
      </g>
     </g>
    </g>
    <g id="xtick_12">
     <g id="line2d_44">
      <path clip-path="url(#p1246f03b46)" d="M 1042.21288 333.36 
L 1042.21288 7.2 
" style="fill:none;stroke:#b0b0b0;stroke-linecap:square;stroke-width:0.8;"/>
     </g>
     <g id="line2d_45">
      <g>
       <use style="stroke:#000000;stroke-width:0.8;" x="1042.21288" xlink:href="#m921011b87e" y="333.36"/>
      </g>
     </g>
     <g id="text_24">
      <!-- 10000 -->
      <g transform="translate(1026.30663 347.958438)scale(0.1 -0.1)">
       <use xlink:href="#DejaVuSans-49"/>
       <use x="63.623047" xlink:href="#DejaVuSans-48"/>
       <use x="127.246094" xlink:href="#DejaVuSans-48"/>
       <use x="190.869141" xlink:href="#DejaVuSans-48"/>
       <use x="254.492188" xlink:href="#DejaVuSans-48"/>
      </g>
     </g>
    </g>
    <g id="text_25">
     <!-- samples -->
     <g transform="translate(813.867116 361.636562)scale(0.1 -0.1)">
      <use xlink:href="#DejaVuSans-115"/>
      <use x="52.099609" xlink:href="#DejaVuSans-97"/>
      <use x="113.378906" xlink:href="#DejaVuSans-109"/>
      <use x="210.791016" xlink:href="#DejaVuSans-112"/>
      <use x="274.267578" xlink:href="#DejaVuSans-108"/>
      <use x="302.050781" xlink:href="#DejaVuSans-101"/>
      <use x="363.574219" xlink:href="#DejaVuSans-115"/>
     </g>
    </g>
   </g>
   <g id="matplotlib.axis_4">
    <g id="ytick_10">
     <g id="line2d_46">
      <path clip-path="url(#p1246f03b46)" d="M 606.377983 319.961451 
L 1062.923437 319.961451 
" style="fill:none;stroke:#b0b0b0;stroke-linecap:square;stroke-width:0.8;"/>
     </g>
     <g id="line2d_47">
      <g>
       <use style="stroke:#000000;stroke-width:0.8;" x="606.377983" xlink:href="#ma844d864ad" y="319.961451"/>
      </g>
     </g>
     <g id="text_26">
      <!-- −2.0 -->
      <g transform="translate(575.09517 323.76067)scale(0.1 -0.1)">
       <use xlink:href="#DejaVuSans-8722"/>
       <use x="83.789062" xlink:href="#DejaVuSans-50"/>
       <use x="147.412109" xlink:href="#DejaVuSans-46"/>
       <use x="179.199219" xlink:href="#DejaVuSans-48"/>
      </g>
     </g>
    </g>
    <g id="ytick_11">
     <g id="line2d_48">
      <path clip-path="url(#p1246f03b46)" d="M 606.377983 282.541088 
L 1062.923437 282.541088 
" style="fill:none;stroke:#b0b0b0;stroke-linecap:square;stroke-width:0.8;"/>
     </g>
     <g id="line2d_49">
      <g>
       <use style="stroke:#000000;stroke-width:0.8;" x="606.377983" xlink:href="#ma844d864ad" y="282.541088"/>
      </g>
     </g>
     <g id="text_27">
      <!-- −1.5 -->
      <g transform="translate(575.09517 286.340307)scale(0.1 -0.1)">
       <use xlink:href="#DejaVuSans-8722"/>
       <use x="83.789062" xlink:href="#DejaVuSans-49"/>
       <use x="147.412109" xlink:href="#DejaVuSans-46"/>
       <use x="179.199219" xlink:href="#DejaVuSans-53"/>
      </g>
     </g>
    </g>
    <g id="ytick_12">
     <g id="line2d_50">
      <path clip-path="url(#p1246f03b46)" d="M 606.377983 245.120726 
L 1062.923437 245.120726 
" style="fill:none;stroke:#b0b0b0;stroke-linecap:square;stroke-width:0.8;"/>
     </g>
     <g id="line2d_51">
      <g>
       <use style="stroke:#000000;stroke-width:0.8;" x="606.377983" xlink:href="#ma844d864ad" y="245.120726"/>
      </g>
     </g>
     <g id="text_28">
      <!-- −1.0 -->
      <g transform="translate(575.09517 248.919944)scale(0.1 -0.1)">
       <use xlink:href="#DejaVuSans-8722"/>
       <use x="83.789062" xlink:href="#DejaVuSans-49"/>
       <use x="147.412109" xlink:href="#DejaVuSans-46"/>
       <use x="179.199219" xlink:href="#DejaVuSans-48"/>
      </g>
     </g>
    </g>
    <g id="ytick_13">
     <g id="line2d_52">
      <path clip-path="url(#p1246f03b46)" d="M 606.377983 207.700363 
L 1062.923437 207.700363 
" style="fill:none;stroke:#b0b0b0;stroke-linecap:square;stroke-width:0.8;"/>
     </g>
     <g id="line2d_53">
      <g>
       <use style="stroke:#000000;stroke-width:0.8;" x="606.377983" xlink:href="#ma844d864ad" y="207.700363"/>
      </g>
     </g>
     <g id="text_29">
      <!-- −0.5 -->
      <g transform="translate(575.09517 211.499582)scale(0.1 -0.1)">
       <use xlink:href="#DejaVuSans-8722"/>
       <use x="83.789062" xlink:href="#DejaVuSans-48"/>
       <use x="147.412109" xlink:href="#DejaVuSans-46"/>
       <use x="179.199219" xlink:href="#DejaVuSans-53"/>
      </g>
     </g>
    </g>
    <g id="ytick_14">
     <g id="line2d_54">
      <path clip-path="url(#p1246f03b46)" d="M 606.377983 170.28 
L 1062.923437 170.28 
" style="fill:none;stroke:#b0b0b0;stroke-linecap:square;stroke-width:0.8;"/>
     </g>
     <g id="line2d_55">
      <g>
       <use style="stroke:#000000;stroke-width:0.8;" x="606.377983" xlink:href="#ma844d864ad" y="170.28"/>
      </g>
     </g>
     <g id="text_30">
      <!-- 0.0 -->
      <g transform="translate(583.474858 174.079219)scale(0.1 -0.1)">
       <use xlink:href="#DejaVuSans-48"/>
       <use x="63.623047" xlink:href="#DejaVuSans-46"/>
       <use x="95.410156" xlink:href="#DejaVuSans-48"/>
      </g>
     </g>
    </g>
    <g id="ytick_15">
     <g id="line2d_56">
      <path clip-path="url(#p1246f03b46)" d="M 606.377983 132.859637 
L 1062.923437 132.859637 
" style="fill:none;stroke:#b0b0b0;stroke-linecap:square;stroke-width:0.8;"/>
     </g>
     <g id="line2d_57">
      <g>
       <use style="stroke:#000000;stroke-width:0.8;" x="606.377983" xlink:href="#ma844d864ad" y="132.859637"/>
      </g>
     </g>
     <g id="text_31">
      <!-- 0.5 -->
      <g transform="translate(583.474858 136.658856)scale(0.1 -0.1)">
       <use xlink:href="#DejaVuSans-48"/>
       <use x="63.623047" xlink:href="#DejaVuSans-46"/>
       <use x="95.410156" xlink:href="#DejaVuSans-53"/>
      </g>
     </g>
    </g>
    <g id="ytick_16">
     <g id="line2d_58">
      <path clip-path="url(#p1246f03b46)" d="M 606.377983 95.439274 
L 1062.923437 95.439274 
" style="fill:none;stroke:#b0b0b0;stroke-linecap:square;stroke-width:0.8;"/>
     </g>
     <g id="line2d_59">
      <g>
       <use style="stroke:#000000;stroke-width:0.8;" x="606.377983" xlink:href="#ma844d864ad" y="95.439274"/>
      </g>
     </g>
     <g id="text_32">
      <!-- 1.0 -->
      <g transform="translate(583.474858 99.238493)scale(0.1 -0.1)">
       <use xlink:href="#DejaVuSans-49"/>
       <use x="63.623047" xlink:href="#DejaVuSans-46"/>
       <use x="95.410156" xlink:href="#DejaVuSans-48"/>
      </g>
     </g>
    </g>
    <g id="ytick_17">
     <g id="line2d_60">
      <path clip-path="url(#p1246f03b46)" d="M 606.377983 58.018912 
L 1062.923437 58.018912 
" style="fill:none;stroke:#b0b0b0;stroke-linecap:square;stroke-width:0.8;"/>
     </g>
     <g id="line2d_61">
      <g>
       <use style="stroke:#000000;stroke-width:0.8;" x="606.377983" xlink:href="#ma844d864ad" y="58.018912"/>
      </g>
     </g>
     <g id="text_33">
      <!-- 1.5 -->
      <g transform="translate(583.474858 61.81813)scale(0.1 -0.1)">
       <use xlink:href="#DejaVuSans-49"/>
       <use x="63.623047" xlink:href="#DejaVuSans-46"/>
       <use x="95.410156" xlink:href="#DejaVuSans-53"/>
      </g>
     </g>
    </g>
    <g id="ytick_18">
     <g id="line2d_62">
      <path clip-path="url(#p1246f03b46)" d="M 606.377983 20.598549 
L 1062.923437 20.598549 
" style="fill:none;stroke:#b0b0b0;stroke-linecap:square;stroke-width:0.8;"/>
     </g>
     <g id="line2d_63">
      <g>
       <use style="stroke:#000000;stroke-width:0.8;" x="606.377983" xlink:href="#ma844d864ad" y="20.598549"/>
      </g>
     </g>
     <g id="text_34">
      <!-- 2.0 -->
      <g transform="translate(583.474858 24.397767)scale(0.1 -0.1)">
       <use xlink:href="#DejaVuSans-50"/>
       <use x="63.623047" xlink:href="#DejaVuSans-46"/>
       <use x="95.410156" xlink:href="#DejaVuSans-48"/>
      </g>
     </g>
    </g>
    <g id="text_35">
     <!-- amplitude -->
     <g transform="translate(569.015483 195.546406)rotate(-90)scale(0.1 -0.1)">
      <use xlink:href="#DejaVuSans-97"/>
      <use x="61.279297" xlink:href="#DejaVuSans-109"/>
      <use x="158.691406" xlink:href="#DejaVuSans-112"/>
      <use x="222.167969" xlink:href="#DejaVuSans-108"/>
      <use x="249.951172" xlink:href="#DejaVuSans-105"/>
      <use x="277.734375" xlink:href="#DejaVuSans-116"/>
      <use x="316.943359" xlink:href="#DejaVuSans-117"/>
      <use x="380.322266" xlink:href="#DejaVuSans-100"/>
      <use x="443.798828" xlink:href="#DejaVuSans-101"/>
     </g>
    </g>
   </g>
   <g id="line2d_64">
    <path clip-path="url(#p1246f03b46)" d="M 627.130049 170.28 
L 630.699761 138.925851 
L 632.567634 124.48394 
L 634.061932 114.578673 
L 635.307181 107.701766 
L 636.386396 102.885852 
L 637.341087 99.581593 
L 638.171252 97.474326 
L 638.876893 96.260563 
L 639.458009 95.666309 
L 639.956109 95.450856 
L 640.4127 95.492451 
L 640.869291 95.762628 
L 641.408898 96.375459 
L 642.031523 97.474326 
L 642.737164 99.219388 
L 643.567329 101.935121 
L 644.480511 105.718278 
L 645.559727 111.201915 
L 646.804975 118.774415 
L 648.257765 129.072898 
L 650.042621 143.430218 
L 652.657643 166.519679 
L 656.683947 201.975337 
L 658.510311 216.07606 
L 660.004609 225.981327 
L 661.249858 232.858234 
L 662.329073 237.674148 
L 663.283764 240.978407 
L 664.113929 243.085674 
L 664.81957 244.299437 
L 665.400686 244.893691 
L 665.898785 245.109144 
L 666.355377 245.067549 
L 666.811968 244.797372 
L 667.351575 244.184541 
L 667.9742 243.085674 
L 668.67984 241.340612 
L 669.510006 238.624879 
L 670.423188 234.841722 
L 671.502404 229.358085 
L 672.747652 221.785585 
L 674.200442 211.487102 
L 675.985298 197.129782 
L 678.60032 174.040321 
L 682.626624 138.584663 
L 684.452988 124.48394 
L 685.947286 114.578673 
L 687.192535 107.701766 
L 688.27175 102.885852 
L 689.226441 99.581593 
L 690.056606 97.474326 
L 690.762247 96.260563 
L 691.343363 95.666309 
L 691.841462 95.450856 
L 692.298053 95.492451 
L 692.754645 95.762628 
L 693.294252 96.375459 
L 693.916877 97.474326 
L 694.622517 99.219388 
L 695.452683 101.935121 
L 696.365865 105.718278 
L 697.445081 111.201915 
L 698.690329 118.774415 
L 700.143119 129.072898 
L 701.927975 143.430218 
L 704.542997 166.519679 
L 708.5693 201.975337 
L 710.395665 216.07606 
L 711.889963 225.981327 
L 713.135212 232.858234 
L 714.214427 237.674148 
L 715.169117 240.978407 
L 715.999283 243.085674 
L 716.704924 244.299437 
L 717.28604 244.893691 
L 717.784139 245.109144 
L 718.24073 245.067549 
L 718.697321 244.797372 
L 719.236929 244.184541 
L 719.859553 243.085674 
L 720.565194 241.340612 
L 721.39536 238.624879 
L 722.308542 234.841722 
L 723.387757 229.358085 
L 724.633006 221.785585 
L 726.085796 211.487102 
L 727.870652 197.129782 
L 730.485674 174.040321 
L 734.511977 138.584663 
L 736.338342 124.48394 
L 737.83264 114.578673 
L 739.077888 107.701766 
L 740.157104 102.885852 
L 741.111794 99.581593 
L 741.94196 97.474326 
L 742.647601 96.260563 
L 743.228717 95.666309 
L 743.726816 95.450856 
L 744.183407 95.492451 
L 744.639998 95.762628 
L 745.179606 96.375459 
L 745.80223 97.474326 
L 746.507871 99.219388 
L 747.338037 101.935121 
L 748.251219 105.718278 
L 749.330434 111.201915 
L 750.575683 118.774415 
L 752.028473 129.072898 
L 753.813329 143.430218 
L 756.428351 166.519679 
L 760.454654 201.975337 
L 762.281019 216.07606 
L 763.775317 225.981327 
L 765.020565 232.858234 
L 766.099781 237.674148 
L 767.054471 240.978407 
L 767.884637 243.085674 
L 768.590278 244.299437 
L 769.171394 244.893691 
L 769.669493 245.109144 
L 770.126084 245.067549 
L 770.582675 244.797372 
L 771.122283 244.184541 
L 771.744907 243.085674 
L 772.450548 241.340612 
L 773.280714 238.624879 
L 774.193896 234.841722 
L 775.273111 229.358085 
L 776.51836 221.785585 
L 777.97115 211.487102 
L 779.756006 197.129782 
L 782.371028 174.040321 
L 786.397331 138.584663 
L 788.223696 124.48394 
L 789.717994 114.578673 
L 790.963242 107.701766 
L 792.042458 102.885852 
L 792.997148 99.581593 
L 793.827314 97.474326 
L 794.532955 96.260563 
L 795.114071 95.666309 
L 795.61217 95.450856 
L 796.068761 95.492451 
L 796.525352 95.762628 
L 797.06496 96.375459 
L 797.687584 97.474326 
L 798.393225 99.219388 
L 799.223391 101.935121 
L 800.136573 105.718278 
L 801.215788 111.201915 
L 802.461037 118.774415 
L 803.913827 129.072898 
L 805.698683 143.430218 
L 808.313705 166.519679 
L 812.340008 201.975337 
L 814.166373 216.07606 
L 815.660671 225.981327 
L 816.905919 232.858234 
L 817.985135 237.674148 
L 818.939825 240.978407 
L 819.769991 243.085674 
L 820.475632 244.299437 
L 821.056748 244.893691 
L 821.554847 245.109144 
L 822.011438 245.067549 
L 822.468029 244.797372 
L 823.007637 244.184541 
L 823.630261 243.085674 
L 824.335902 241.340612 
L 825.166068 238.624879 
L 826.07925 234.841722 
L 827.158465 229.358085 
L 828.403714 221.785585 
L 829.856504 211.487102 
L 831.64136 197.129782 
L 834.256382 174.040321 
L 838.282685 138.584663 
L 840.109049 124.48394 
L 841.603348 114.578673 
L 842.848596 107.701766 
L 843.927811 102.885852 
L 844.882502 99.581593 
L 845.712668 97.474326 
L 846.418308 96.260563 
L 846.999424 95.666309 
L 847.497524 95.450856 
L 847.954115 95.492451 
L 848.410706 95.762628 
L 848.950314 96.375459 
L 849.572938 97.474326 
L 850.278579 99.219388 
L 851.108744 101.935121 
L 852.021927 105.718278 
L 853.101142 111.201915 
L 854.346391 118.774415 
L 855.79918 129.072898 
L 857.584037 143.430218 
L 860.199058 166.519679 
L 864.225362 201.975337 
L 866.051726 216.07606 
L 867.546025 225.981327 
L 868.791273 232.858234 
L 869.870488 237.674148 
L 870.825179 240.978407 
L 871.655345 243.085674 
L 872.360985 244.299437 
L 872.942101 244.893691 
L 873.440201 245.109144 
L 873.896792 245.067549 
L 874.353383 244.797372 
L 874.892991 244.184541 
L 875.515615 243.085674 
L 876.221256 241.340612 
L 877.051421 238.624879 
L 877.964604 234.841722 
L 879.043819 229.358085 
L 880.289067 221.785585 
L 881.741857 211.487102 
L 883.526714 197.129782 
L 886.141735 174.040321 
L 890.168039 138.584663 
L 891.994403 124.48394 
L 893.488701 114.578673 
L 894.73395 107.701766 
L 895.813165 102.885852 
L 896.767856 99.581593 
L 897.598021 97.474326 
L 898.303662 96.260563 
L 898.884778 95.666309 
L 899.382878 95.450856 
L 899.839469 95.492451 
L 900.29606 95.762628 
L 900.835668 96.375459 
L 901.458292 97.474326 
L 902.163933 99.219388 
L 902.994098 101.935121 
L 903.907281 105.718278 
L 904.986496 111.201915 
L 906.231744 118.774415 
L 907.684534 129.072898 
L 909.46939 143.430218 
L 912.084412 166.519679 
L 916.110716 201.975337 
L 917.93708 216.07606 
L 919.431378 225.981327 
L 920.676627 232.858234 
L 921.755842 237.674148 
L 922.710533 240.978407 
L 923.540698 243.085674 
L 924.246339 244.299437 
L 924.827455 244.893691 
L 925.325555 245.109144 
L 925.782146 245.067549 
L 926.238737 244.797372 
L 926.778344 244.184541 
L 927.400969 243.085674 
L 928.10661 241.340612 
L 928.936775 238.624879 
L 929.849957 234.841722 
L 930.929173 229.358085 
L 932.174421 221.785585 
L 933.627211 211.487102 
L 935.412067 197.129782 
L 938.027089 174.040321 
L 942.053393 138.584663 
L 943.879757 124.48394 
L 945.374055 114.578673 
L 946.619304 107.701766 
L 947.698519 102.885852 
L 948.65321 99.581593 
L 949.483375 97.474326 
L 950.189016 96.260563 
L 950.770132 95.666309 
L 951.268231 95.450856 
L 951.724823 95.492451 
L 952.181414 95.762628 
L 952.721021 96.375459 
L 953.343646 97.474326 
L 954.049286 99.219388 
L 954.879452 101.935121 
L 955.792634 105.718278 
L 956.87185 111.201915 
L 958.117098 118.774415 
L 959.569888 129.072898 
L 961.354744 143.430218 
L 963.969766 166.519679 
L 967.99607 201.975337 
L 969.822434 216.07606 
L 971.316732 225.981327 
L 972.561981 232.858234 
L 973.641196 237.674148 
L 974.595887 240.978407 
L 975.426052 243.085674 
L 976.131693 244.299437 
L 976.712809 244.893691 
L 977.210908 245.109144 
L 977.6675 245.067549 
L 978.124091 244.797372 
L 978.663698 244.184541 
L 979.286323 243.085674 
L 979.991963 241.340612 
L 980.822129 238.624879 
L 981.735311 234.841722 
L 982.814527 229.358085 
L 984.059775 221.785585 
L 985.512565 211.487102 
L 987.297421 197.129782 
L 989.912443 174.040321 
L 993.938746 138.584663 
L 995.765111 124.48394 
L 997.259409 114.578673 
L 998.504658 107.701766 
L 999.583873 102.885852 
L 1000.538563 99.581593 
L 1001.368729 97.474326 
L 1002.07437 96.260563 
L 1002.655486 95.666309 
L 1003.153585 95.450856 
L 1003.610176 95.492451 
L 1004.066768 95.762628 
L 1004.606375 96.375459 
L 1005.228999 97.474326 
L 1005.93464 99.219388 
L 1006.764806 101.935121 
L 1007.677988 105.718278 
L 1008.757204 111.201915 
L 1010.002452 118.774415 
L 1011.455242 129.072898 
L 1013.240098 143.430218 
L 1015.85512 166.519679 
L 1019.881423 201.975337 
L 1021.707788 216.07606 
L 1023.202086 225.981327 
L 1024.447335 232.858234 
L 1025.52655 237.674148 
L 1026.48124 240.978407 
L 1027.311406 243.085674 
L 1028.017047 244.299437 
L 1028.598163 244.893691 
L 1029.096262 245.109144 
L 1029.552853 245.067549 
L 1030.009444 244.797372 
L 1030.549052 244.184541 
L 1031.171676 243.085674 
L 1031.877317 241.340612 
L 1032.707483 238.624879 
L 1033.620665 234.841722 
L 1034.69988 229.358085 
L 1035.945129 221.785585 
L 1037.397919 211.487102 
L 1039.182775 197.129782 
L 1041.797797 174.040321 
L 1042.171371 170.656189 
L 1042.171371 170.656189 
" style="fill:none;stroke:#d3d3d3;stroke-linecap:square;stroke-width:1.5;"/>
   </g>
   <g id="line2d_65">
    <path clip-path="url(#p1246f03b46)" d="M 627.130049 170.28 
L 642.82018 152.671637 
L 651.163345 143.649817 
L 658.136737 136.428777 
L 664.321471 130.337274 
L 670.008105 125.04385 
L 675.279657 120.435189 
L 680.260651 116.37155 
L 684.992596 112.794484 
L 689.516999 109.649769 
L 693.875368 106.889112 
L 698.067705 104.493737 
L 702.135517 102.42259 
L 706.078803 100.660287 
L 709.939074 99.175247 
L 713.716328 97.957057 
L 717.452073 96.984733 
L 721.14631 96.25363 
L 724.799039 95.758277 
L 728.41026 95.492451 
L 732.02148 95.450044 
L 735.632701 95.631182 
L 739.243922 96.035324 
L 742.896651 96.669741 
L 746.590888 97.540191 
L 750.326633 98.651661 
L 754.103887 100.008284 
L 757.964157 101.631983 
L 761.907444 103.532499 
L 765.975256 105.742075 
L 770.167592 108.27516 
L 774.525962 111.173058 
L 779.050365 114.453223 
L 783.782309 118.163623 
L 788.763303 122.357671 
L 794.034855 127.092436 
L 799.679982 132.466666 
L 805.823208 138.627268 
L 812.713583 145.859908 
L 820.849206 154.735071 
L 832.180967 167.459239 
L 850.818186 188.39068 
L 859.078335 197.305271 
L 866.010218 204.466303 
L 872.153444 210.500705 
L 877.79857 215.740599 
L 883.070122 220.334919 
L 888.051116 224.383776 
L 892.783061 227.94577 
L 897.307464 231.075209 
L 901.665833 233.820418 
L 905.85817 236.200318 
L 909.925982 238.255934 
L 913.869268 240.002752 
L 917.729539 241.472277 
L 921.506793 242.674996 
L 925.242538 243.631788 
L 928.936775 244.347352 
L 932.589504 244.827216 
L 936.200725 245.077652 
L 939.811945 245.104638 
L 943.423166 244.908096 
L 947.034387 244.488611 
L 950.687116 243.838785 
L 954.381353 242.95291 
L 958.117098 241.826056 
L 961.894352 240.454144 
L 965.754622 238.815152 
L 969.697909 236.899411 
L 973.765721 234.674608 
L 977.958057 232.126399 
L 982.316427 229.213455 
L 986.84083 225.91847 
L 991.572774 222.193517 
L 996.553768 217.985274 
L 1001.82532 213.236831 
L 1007.511955 207.808907 
L 1013.696689 201.591445 
L 1020.628572 194.299653 
L 1028.847213 185.318581 
L 1040.51104 172.207763 
L 1042.171371 170.327024 
L 1042.171371 170.327024 
" style="fill:none;stroke:#d3d3d3;stroke-linecap:square;stroke-width:1.5;"/>
   </g>
   <g id="line2d_66">
    <path clip-path="url(#p1246f03b46)" d="M 627.130049 170.28 
L 633.812883 110.640959 
L 635.307181 99.975674 
L 636.552429 92.574339 
L 637.631645 87.440526 
L 638.544827 84.125526 
L 639.291976 82.163979 
L 639.9146 81.068999 
L 640.454208 80.528743 
L 640.910799 80.373967 
L 641.325882 80.477027 
L 641.740965 80.814381 
L 642.239064 81.530446 
L 642.82018 82.796473 
L 643.484313 84.810702 
L 644.27297 87.982449 
L 645.144644 92.455346 
L 646.140843 98.769828 
L 647.303075 107.668914 
L 648.63134 119.681177 
L 650.208654 136.132521 
L 652.201052 159.473458 
L 659.50651 247.619663 
L 660.9593 261.311638 
L 662.204548 271.047383 
L 663.242255 277.539735 
L 664.155438 281.919459 
L 664.902587 284.518467 
L 665.525211 285.98123 
L 666.02331 286.680086 
L 666.438393 286.937569 
L 666.811968 286.914396 
L 667.185542 286.648287 
L 667.600625 286.066654 
L 668.098724 284.970868 
L 668.721349 282.992224 
L 669.42699 279.938427 
L 670.257155 275.260887 
L 671.211846 268.475689 
L 672.291061 259.08389 
L 673.53631 246.153596 
L 674.989099 228.578048 
L 676.773956 204.04491 
L 679.305961 165.777376 
L 683.456789 103.070188 
L 685.241645 79.573062 
L 686.694435 63.237493 
L 687.898175 52.039167 
L 688.935883 44.311956 
L 689.807556 39.313096 
L 690.554706 36.169487 
L 691.17733 34.381027 
L 691.716938 33.454879 
L 692.13202 33.141424 
L 692.464087 33.142114 
L 692.796153 33.367067 
L 693.211236 33.964035 
L 693.709335 35.143064 
L 694.290451 37.153511 
L 694.996092 40.504165 
L 695.784749 45.406376 
L 696.697931 52.559518 
L 697.735639 62.515248 
L 698.939379 76.311001 
L 700.35066 95.193719 
L 702.0525 121.113787 
L 704.418472 160.893433 
L 709.150416 241.09376 
L 710.935273 267.1608 
L 712.346554 284.749734 
L 713.550294 297.189536 
L 714.588001 305.787194 
L 715.501184 311.599386 
L 716.248333 315.075081 
L 716.870957 317.065954 
L 717.410565 318.114178 
L 717.825648 318.48868 
L 718.157714 318.516759 
L 718.48978 318.303152 
L 718.863355 317.774126 
L 719.319946 316.713576 
L 719.859553 314.876859 
L 720.523686 311.759203 
L 721.312343 306.85423 
L 722.184017 299.964275 
L 723.221724 289.85489 
L 724.383956 276.260782 
L 725.75373 257.518229 
L 727.414061 231.576105 
L 729.655508 192.763987 
L 734.92706 100.221583 
L 736.670408 74.186068 
L 738.08169 56.250935 
L 739.28543 43.61137 
L 740.323137 34.90117 
L 741.236319 29.02668 
L 741.983468 25.519555 
L 742.606093 23.512145 
L 743.1457 22.45426 
L 743.560783 22.073983 
L 743.892849 22.041651 
L 744.224916 22.250832 
L 744.59849 22.774098 
L 745.055081 23.825564 
L 745.594689 25.647129 
L 746.258821 28.736885 
L 747.047479 33.591032 
L 747.960661 40.756803 
L 748.998368 50.795331 
L 750.202108 64.747651 
L 751.61339 83.851189 
L 753.356738 110.696054 
L 755.847235 152.901188 
L 760.08108 224.729067 
L 761.907444 251.766743 
L 763.401742 270.716491 
L 764.646991 283.85215 
L 765.726206 293.046536 
L 766.680897 299.362251 
L 767.469554 303.236873 
L 768.133687 305.534427 
L 768.714803 306.811896 
L 769.171394 307.33347 
L 769.544968 307.444564 
L 769.877035 307.305405 
L 770.250609 306.882369 
L 770.7072 305.984823 
L 771.246808 304.390513 
L 771.91094 301.649023 
L 772.658089 297.565122 
L 773.529763 291.517323 
L 774.56747 282.624307 
L 775.771211 270.209199 
L 777.182492 253.169362 
L 778.92584 229.204764 
L 781.457845 190.910503 
L 785.567166 128.812984 
L 787.39353 104.658083 
L 788.887828 87.674927 
L 790.174585 75.48661 
L 791.2538 67.20762 
L 792.208491 61.464077 
L 793.038656 57.723642 
L 793.744297 55.481249 
L 794.325413 54.287213 
L 794.823513 53.733819 
L 795.197087 53.602814 
L 795.570662 53.714043 
L 795.944236 54.065842 
L 796.400827 54.819313 
L 796.940435 56.162008 
L 797.604568 58.472495 
L 798.393225 62.128397 
L 799.306407 67.539056 
L 800.344114 75.114305 
L 801.547854 85.611459 
L 803.000644 100.35896 
L 804.827009 121.350012 
L 807.815605 158.754783 
L 810.970235 197.391302 
L 812.838107 217.597763 
L 814.332406 231.492528 
L 815.619162 241.500114 
L 816.739886 248.573645 
L 817.736085 253.493664 
L 818.566251 256.575377 
L 819.3134 258.54379 
L 819.936024 259.598495 
L 820.434123 260.059809 
L 820.849206 260.186217 
L 821.264289 260.08015 
L 821.72088 259.698084 
L 822.218979 258.969125 
L 822.800095 257.715802 
L 823.505736 255.628294 
L 824.335902 252.412839 
L 825.290592 247.763438 
L 826.411316 241.122936 
L 827.739581 231.815303 
L 829.358404 218.785314 
L 831.599851 198.74484 
L 836.622354 153.280276 
L 838.40721 139.41489 
L 839.901508 129.488954 
L 841.188265 122.39202 
L 842.308988 117.409819 
L 843.263679 114.091646 
L 844.135353 111.824675 
L 844.882502 110.465728 
L 845.505126 109.744097 
L 846.044734 109.417972 
L 846.542833 109.3603 
L 847.040933 109.532345 
L 847.58054 109.972503 
L 848.203165 110.799277 
L 848.908805 112.133962 
L 849.738971 114.217309 
L 850.693662 117.250106 
L 851.814385 121.592341 
L 853.14265 127.673613 
L 854.802982 136.383636 
L 857.25197 150.577313 
L 861.36129 174.383925 
L 863.229163 183.821993 
L 864.76497 190.472878 
L 866.093235 195.266797 
L 867.255467 198.664233 
L 868.293174 201.039791 
L 869.206356 202.607713 
L 870.036522 203.608724 
L 870.783671 204.168457 
L 871.447803 204.400395 
L 872.070427 204.396995 
L 872.73456 204.1657 
L 873.440201 203.673224 
L 874.228858 202.838327 
L 875.14204 201.523527 
L 876.179747 199.620522 
L 877.424996 196.842322 
L 878.960802 192.825945 
L 881.077725 186.592442 
L 886.26626 171.059332 
L 888.051116 166.547976 
L 889.545415 163.347017 
L 890.87368 161.004653 
L 892.07742 159.316506 
L 893.156635 158.161475 
L 894.194342 157.368164 
L 895.149033 156.905592 
L 896.103723 156.687872 
L 897.058414 156.700337 
L 898.054613 156.93947 
L 899.133828 157.432431 
L 900.379076 158.26154 
L 901.831866 159.511928 
L 903.741247 161.475364 
L 910.465589 168.668044 
L 912.250445 170.104941 
L 913.869268 171.125062 
L 915.405075 171.83245 
L 916.940881 172.292796 
L 918.518196 172.529768 
L 920.220036 172.556151 
L 922.212433 172.354489 
L 924.95198 171.831912 
L 930.680123 170.696691 
L 933.544195 170.394925 
L 936.823349 170.284376 
L 943.962774 170.11812 
L 946.826845 169.768508 
L 950.147508 169.122008 
L 955.128502 168.141576 
L 957.162408 167.989778 
L 958.864247 168.081067 
L 960.441562 168.390429 
L 961.93586 168.911466 
L 963.430158 169.669752 
L 965.007473 170.729694 
L 966.709313 172.154274 
L 968.70171 174.131728 
L 971.731815 177.50707 
L 974.678903 180.687421 
L 976.339234 182.16954 
L 977.709008 183.104172 
L 978.87124 183.634817 
L 979.908947 183.869454 
L 980.863637 183.862568 
L 981.77682 183.639481 
L 982.690002 183.191836 
L 983.644692 182.473358 
L 984.640891 181.44328 
L 985.720106 180.001224 
L 986.923847 177.997734 
L 988.252112 175.324472 
L 989.74641 171.788711 
L 991.531266 166.954645 
L 993.980255 159.610461 
L 998.048066 147.388665 
L 999.708398 143.123518 
L 1001.036663 140.286413 
L 1002.157387 138.394583 
L 1003.112077 137.202796 
L 1003.942243 136.513304 
L 1004.647883 136.199137 
L 1005.312016 136.1434 
L 1005.93464 136.310379 
L 1006.598773 136.729092 
L 1007.304414 137.452038 
L 1008.093071 138.604178 
L 1008.964745 140.30291 
L 1009.919435 142.673027 
L 1010.998651 145.979679 
L 1012.202391 150.41744 
L 1013.572164 156.350661 
L 1015.190987 164.405926 
L 1017.266402 175.965845 
L 1023.658677 212.477165 
L 1025.152975 219.315879 
L 1026.398224 224.024115 
L 1027.435931 227.13282 
L 1028.307605 229.105577 
L 1029.054754 230.297185 
L 1029.677378 230.920044 
L 1030.216986 231.178056 
L 1030.715085 231.178206 
L 1031.213185 230.945687 
L 1031.752792 230.427577 
L 1032.375417 229.482215 
L 1033.081057 227.958157 
L 1033.869715 225.686389 
L 1034.782897 222.314939 
L 1035.779096 217.753527 
L 1036.941328 211.321845 
L 1038.269593 202.623445 
L 1039.805399 191.007524 
L 1041.71478 174.757533 
L 1042.171371 170.655953 
L 1042.171371 170.655953 
" style="fill:none;stroke:#ffa500;stroke-linecap:square;stroke-width:1.5;"/>
   </g>
   <g id="patch_8">
    <path d="M 606.377983 333.36 
L 606.377983 7.2 
" style="fill:none;stroke:#000000;stroke-linecap:square;stroke-linejoin:miter;stroke-width:0.8;"/>
   </g>
   <g id="patch_9">
    <path d="M 1062.923437 333.36 
L 1062.923437 7.2 
" style="fill:none;stroke:#000000;stroke-linecap:square;stroke-linejoin:miter;stroke-width:0.8;"/>
   </g>
   <g id="patch_10">
    <path d="M 606.377983 333.36 
L 1062.923437 333.36 
" style="fill:none;stroke:#000000;stroke-linecap:square;stroke-linejoin:miter;stroke-width:0.8;"/>
   </g>
   <g id="patch_11">
    <path d="M 606.377983 7.2 
L 1062.923437 7.2 
" style="fill:none;stroke:#000000;stroke-linecap:square;stroke-linejoin:miter;stroke-width:0.8;"/>
   </g>
   <g id="text_36">
    <!-- add carrier to product -->
    <g transform="translate(768.907585 392.592)scale(0.12 -0.12)">
     <defs>
      <path id="DejaVuSans-32"/>
      <path d="M 41.109375 46.296875 
Q 39.59375 47.171875 37.8125 47.578125 
Q 36.03125 48 33.890625 48 
Q 26.265625 48 22.1875 43.046875 
Q 18.109375 38.09375 18.109375 28.8125 
L 18.109375 0 
L 9.078125 0 
L 9.078125 54.6875 
L 18.109375 54.6875 
L 18.109375 46.1875 
Q 20.953125 51.171875 25.484375 53.578125 
Q 30.03125 56 36.53125 56 
Q 37.453125 56 38.578125 55.875 
Q 39.703125 55.765625 41.0625 55.515625 
z
" id="DejaVuSans-114"/>
     </defs>
     <use xlink:href="#DejaVuSans-97"/>
     <use x="61.279297" xlink:href="#DejaVuSans-100"/>
     <use x="124.755859" xlink:href="#DejaVuSans-100"/>
     <use x="188.232422" xlink:href="#DejaVuSans-32"/>
     <use x="220.019531" xlink:href="#DejaVuSans-99"/>
     <use x="275" xlink:href="#DejaVuSans-97"/>
     <use x="336.279297" xlink:href="#DejaVuSans-114"/>
     <use x="375.642578" xlink:href="#DejaVuSans-114"/>
     <use x="416.755859" xlink:href="#DejaVuSans-105"/>
     <use x="444.539062" xlink:href="#DejaVuSans-101"/>
     <use x="506.0625" xlink:href="#DejaVuSans-114"/>
     <use x="547.175781" xlink:href="#DejaVuSans-32"/>
     <use x="578.962891" xlink:href="#DejaVuSans-116"/>
     <use x="618.171875" xlink:href="#DejaVuSans-111"/>
     <use x="679.353516" xlink:href="#DejaVuSans-32"/>
     <use x="711.140625" xlink:href="#DejaVuSans-112"/>
     <use x="774.617188" xlink:href="#DejaVuSans-114"/>
     <use x="813.480469" xlink:href="#DejaVuSans-111"/>
     <use x="874.662109" xlink:href="#DejaVuSans-100"/>
     <use x="938.138672" xlink:href="#DejaVuSans-117"/>
     <use x="1001.517578" xlink:href="#DejaVuSans-99"/>
     <use x="1056.498047" xlink:href="#DejaVuSans-116"/>
    </g>
   </g>
  </g>
 </g>
 <defs>
  <clipPath id="p23ab9e1a14">
   <rect height="326.16" width="456.545455" x="58.523438" y="7.2"/>
  </clipPath>
  <clipPath id="p1246f03b46">
   <rect height="326.16" width="456.545455" x="606.377983" y="7.2"/>
  </clipPath>
 </defs>
</svg>
