<?xml version="1.0" standalone="no"?>
 <!DOCTYPE svg PUBLIC "-//W3C//DTD SVG 1.1//EN" 
 "http://www.w3.org/Graphics/SVG/1.1/DTD/svg11.dtd"> 
<svg
  xmlns:svg="http://www.w3.org/2000/svg"
  xmlns="http://www.w3.org/2000/svg"
  xmlns:xlink="http://www.w3.org/1999/xlink"
  version="1.1"
  width="297.0022mm" height="210.0072mm" viewBox="0.0000 0.0000 297.0022 210.0072">
<title>SVG Image created as panel-mask.svg date 2023/11/04 16:16:58 </title>
  <desc>Image generated by PCBNEW </desc>
<g style="fill:#000000; fill-opacity:1.0000;stroke:#000000; stroke-opacity:1.0000;
stroke-linecap:round; stroke-linejoin:round;"
 transform="translate(0 0) scale(1 1)">
</g>
<g style="fill:#000000; fill-opacity:0.0; 
stroke:#000000; stroke-width:0.0000; stroke-opacity:1; 
stroke-linecap:round; stroke-linejoin:round;">
</g>
<g style="fill:#000000; fill-opacity:0.0; 
stroke:#000000; stroke-width:0.2500; stroke-opacity:1; 
stroke-linecap:round; stroke-linejoin:round;">
<text x="63.5000" y="97.5200"
textLength="4.7367" font-size="1.8667" lengthAdjust="spacingAndGlyphs"
text-anchor="middle" opacity="0">GND</text>
<g class="stroked-text"><desc>GND</desc>
<path d="M62.4333 95.5275
L62.3000 95.4322
" />
<path d="M62.3000 95.4322
L62.1000 95.4322
" />
<path d="M62.1000 95.4322
L61.9000 95.5275
" />
<path d="M61.9000 95.5275
L61.7667 95.7180
" />
<path d="M61.7667 95.7180
L61.7000 95.9084
" />
<path d="M61.7000 95.9084
L61.6333 96.2894
" />
<path d="M61.6333 96.2894
L61.6333 96.5751
" />
<path d="M61.6333 96.5751
L61.7000 96.9560
" />
<path d="M61.7000 96.9560
L61.7667 97.1465
" />
<path d="M61.7667 97.1465
L61.9000 97.3370
" />
<path d="M61.9000 97.3370
L62.1000 97.4322
" />
<path d="M62.1000 97.4322
L62.2333 97.4322
" />
<path d="M62.2333 97.4322
L62.4333 97.3370
" />
<path d="M62.4333 97.3370
L62.5000 97.2418
" />
<path d="M62.5000 97.2418
L62.5000 96.5751
" />
<path d="M62.5000 96.5751
L62.2333 96.5751
" />
<path d="M63.1000 97.4322
L63.1000 95.4322
" />
<path d="M63.1000 95.4322
L63.9000 97.4322
" />
<path d="M63.9000 97.4322
L63.9000 95.4322
" />
<path d="M64.5667 97.4322
L64.5667 95.4322
" />
<path d="M64.5667 95.4322
L64.9000 95.4322
" />
<path d="M64.9000 95.4322
L65.1000 95.5275
" />
<path d="M65.1000 95.5275
L65.2333 95.7180
" />
<path d="M65.2333 95.7180
L65.3000 95.9084
" />
<path d="M65.3000 95.9084
L65.3667 96.2894
" />
<path d="M65.3667 96.2894
L65.3667 96.5751
" />
<path d="M65.3667 96.5751
L65.3000 96.9560
" />
<path d="M65.3000 96.9560
L65.2333 97.1465
" />
<path d="M65.2333 97.1465
L65.1000 97.3370
" />
<path d="M65.1000 97.3370
L64.9000 97.4322
" />
<path d="M64.9000 97.4322
L64.5667 97.4322
" />
</g><text x="63.5000" y="138.1600"
textLength="6.0700" font-size="1.8667" lengthAdjust="spacingAndGlyphs"
text-anchor="middle" opacity="0">-15V</text>
<g class="stroked-text"><desc>-15V</desc>
<path d="M61.0333 137.3103
L62.1000 137.3103
" />
<path d="M63.5000 138.0722
L62.7000 138.0722
" />
<path d="M63.1000 138.0722
L63.1000 136.0722
" />
<path d="M63.1000 136.0722
L62.9667 136.3580
" />
<path d="M62.9667 136.3580
L62.8333 136.5484
" />
<path d="M62.8333 136.5484
L62.7000 136.6437
" />
<path d="M64.7667 136.0722
L64.1000 136.0722
" />
<path d="M64.1000 136.0722
L64.0333 137.0246
" />
<path d="M64.0333 137.0246
L64.1000 136.9294
" />
<path d="M64.1000 136.9294
L64.2333 136.8341
" />
<path d="M64.2333 136.8341
L64.5667 136.8341
" />
<path d="M64.5667 136.8341
L64.7000 136.9294
" />
<path d="M64.7000 136.9294
L64.7667 137.0246
" />
<path d="M64.7667 137.0246
L64.8333 137.2151
" />
<path d="M64.8333 137.2151
L64.8333 137.6913
" />
<path d="M64.8333 137.6913
L64.7667 137.8818
" />
<path d="M64.7667 137.8818
L64.7000 137.9770
" />
<path d="M64.7000 137.9770
L64.5667 138.0722
" />
<path d="M64.5667 138.0722
L64.2333 138.0722
" />
<path d="M64.2333 138.0722
L64.1000 137.9770
" />
<path d="M64.1000 137.9770
L64.0333 137.8818
" />
<path d="M65.2333 136.0722
L65.7000 138.0722
" />
<path d="M65.7000 138.0722
L66.1667 136.0722
" />
</g><text x="63.5000" y="117.8400"
textLength="6.0700" font-size="1.8667" lengthAdjust="spacingAndGlyphs"
text-anchor="middle" opacity="0">+15V</text>
<g class="stroked-text"><desc>+15V</desc>
<path d="M61.0333 116.9903
L62.1000 116.9903
" />
<path d="M61.5667 117.7522
L61.5667 116.2284
" />
<path d="M63.5000 117.7522
L62.7000 117.7522
" />
<path d="M63.1000 117.7522
L63.1000 115.7522
" />
<path d="M63.1000 115.7522
L62.9667 116.0380
" />
<path d="M62.9667 116.0380
L62.8333 116.2284
" />
<path d="M62.8333 116.2284
L62.7000 116.3237
" />
<path d="M64.7667 115.7522
L64.1000 115.7522
" />
<path d="M64.1000 115.7522
L64.0333 116.7046
" />
<path d="M64.0333 116.7046
L64.1000 116.6094
" />
<path d="M64.1000 116.6094
L64.2333 116.5141
" />
<path d="M64.2333 116.5141
L64.5667 116.5141
" />
<path d="M64.5667 116.5141
L64.7000 116.6094
" />
<path d="M64.7000 116.6094
L64.7667 116.7046
" />
<path d="M64.7667 116.7046
L64.8333 116.8951
" />
<path d="M64.8333 116.8951
L64.8333 117.3713
" />
<path d="M64.8333 117.3713
L64.7667 117.5618
" />
<path d="M64.7667 117.5618
L64.7000 117.6570
" />
<path d="M64.7000 117.6570
L64.5667 117.7522
" />
<path d="M64.5667 117.7522
L64.2333 117.7522
" />
<path d="M64.2333 117.7522
L64.1000 117.6570
" />
<path d="M64.1000 117.6570
L64.0333 117.5618
" />
<path d="M65.2333 115.7522
L65.7000 117.7522
" />
<path d="M65.7000 117.7522
L66.1667 115.7522
" />
</g><text x="63.5000" y="77.2000"
textLength="4.7367" font-size="1.8667" lengthAdjust="spacingAndGlyphs"
text-anchor="middle" opacity="0">+5V</text>
<g class="stroked-text"><desc>+5V</desc>
<path d="M61.7000 76.3503
L62.7667 76.3503
" />
<path d="M62.2333 77.1122
L62.2333 75.5884
" />
<path d="M64.1000 75.1122
L63.4333 75.1122
" />
<path d="M63.4333 75.1122
L63.3667 76.0646
" />
<path d="M63.3667 76.0646
L63.4333 75.9694
" />
<path d="M63.4333 75.9694
L63.5667 75.8741
" />
<path d="M63.5667 75.8741
L63.9000 75.8741
" />
<path d="M63.9000 75.8741
L64.0333 75.9694
" />
<path d="M64.0333 75.9694
L64.1000 76.0646
" />
<path d="M64.1000 76.0646
L64.1667 76.2551
" />
<path d="M64.1667 76.2551
L64.1667 76.7313
" />
<path d="M64.1667 76.7313
L64.1000 76.9218
" />
<path d="M64.1000 76.9218
L64.0333 77.0170
" />
<path d="M64.0333 77.0170
L63.9000 77.1122
" />
<path d="M63.9000 77.1122
L63.5667 77.1122
" />
<path d="M63.5667 77.1122
L63.4333 77.0170
" />
<path d="M63.4333 77.0170
L63.3667 76.9218
" />
<path d="M64.5667 75.1122
L65.0333 77.1122
" />
<path d="M65.0333 77.1122
L65.5000 75.1122
" />
</g></g>
<g style="fill:#000000; fill-opacity:0.0; 
stroke:#000000; stroke-width:0.3500; stroke-opacity:1; 
stroke-linecap:round; stroke-linejoin:round;">
<text x="70.9500" y="55.3000"
textLength="10.8786" font-size="4.0000" lengthAdjust="spacingAndGlyphs"
text-anchor="middle" opacity="0">kraft</text>
<g class="stroked-text"><desc>kraft</desc>
<path d="M66.4500 55.1697
L66.4500 52.1697
" />
<path d="M66.7357 54.0268
L67.5929 55.1697
" />
<path d="M67.5929 53.1697
L66.4500 54.3125
" />
<path d="M68.8786 55.1697
L68.8786 53.1697
" />
<path d="M68.8786 53.7411
L69.0214 53.4554
" />
<path d="M69.0214 53.4554
L69.1643 53.3125
" />
<path d="M69.1643 53.3125
L69.4500 53.1697
" />
<path d="M69.4500 53.1697
L69.7357 53.1697
" />
<path d="M72.0214 55.1697
L72.0214 53.5982
" />
<path d="M72.0214 53.5982
L71.8786 53.3125
" />
<path d="M71.8786 53.3125
L71.5929 53.1697
" />
<path d="M71.5929 53.1697
L71.0214 53.1697
" />
<path d="M71.0214 53.1697
L70.7357 53.3125
" />
<path d="M72.0214 55.0268
L71.7357 55.1697
" />
<path d="M71.7357 55.1697
L71.0214 55.1697
" />
<path d="M71.0214 55.1697
L70.7357 55.0268
" />
<path d="M70.7357 55.0268
L70.5929 54.7411
" />
<path d="M70.5929 54.7411
L70.5929 54.4554
" />
<path d="M70.5929 54.4554
L70.7357 54.1697
" />
<path d="M70.7357 54.1697
L71.0214 54.0268
" />
<path d="M71.0214 54.0268
L71.7357 54.0268
" />
<path d="M71.7357 54.0268
L72.0214 53.8839
" />
<path d="M73.0214 53.1697
L74.1643 53.1697
" />
<path d="M73.4500 55.1697
L73.4500 52.5982
" />
<path d="M73.4500 52.5982
L73.5929 52.3125
" />
<path d="M73.5929 52.3125
L73.8786 52.1697
" />
<path d="M73.8786 52.1697
L74.1643 52.1697
" />
<path d="M74.7357 53.1697
L75.8786 53.1697
" />
<path d="M75.1643 52.1697
L75.1643 54.7411
" />
<path d="M75.1643 54.7411
L75.3071 55.0268
" />
<path d="M75.3071 55.0268
L75.5929 55.1697
" />
<path d="M75.5929 55.1697
L75.8786 55.1697
" />
</g><g >
</g>
<g style="fill:#000000; fill-opacity:1.0000; 
stroke:#000000; stroke-width:0.0000; stroke-opacity:1; 
stroke-linecap:round; stroke-linejoin:round;">
<circle cx="58.3000" cy="53.8000" r="2.5000" /> 
</g>
<g style="fill:#000000; fill-opacity:1.0000; 
stroke:#000000; stroke-width:0.0212; stroke-opacity:1; 
stroke-linecap:round; stroke-linejoin:round;">
</g>
<g style="fill:#000000; fill-opacity:1.0000; 
stroke:#000000; stroke-width:0.0000; stroke-opacity:1; 
stroke-linecap:round; stroke-linejoin:round;">
<circle cx="58.3000" cy="53.8000" r="1.8000" /> 
</g>
<g style="fill:#000000; fill-opacity:1.0000; 
stroke:#000000; stroke-width:0.0212; stroke-opacity:1; 
stroke-linecap:round; stroke-linejoin:round;">
</g>
<g >
</g>
<g style="fill:#000000; fill-opacity:1.0000; 
stroke:#000000; stroke-width:0.0212; stroke-opacity:1; 
stroke-linecap:round; stroke-linejoin:round;">
</g>
<g style="fill:#000000; fill-opacity:1.0000; 
stroke:#000000; stroke-width:0.0000; stroke-opacity:1; 
stroke-linecap:round; stroke-linejoin:round;">
<circle cx="58.3000" cy="176.3000" r="2.5000" /> 
</g>
<g style="fill:#000000; fill-opacity:1.0000; 
stroke:#000000; stroke-width:0.0212; stroke-opacity:1; 
stroke-linecap:round; stroke-linejoin:round;">
</g>
<g style="fill:#000000; fill-opacity:1.0000; 
stroke:#000000; stroke-width:0.0000; stroke-opacity:1; 
stroke-linecap:round; stroke-linejoin:round;">
<circle cx="58.3000" cy="176.3000" r="1.8000" /> 
</g>
<g style="fill:#000000; fill-opacity:1.0000; 
stroke:#000000; stroke-width:0.0212; stroke-opacity:1; 
stroke-linecap:round; stroke-linejoin:round;">
</g>
<g >
</g>
<g style="fill:#000000; fill-opacity:1.0000; 
stroke:#000000; stroke-width:0.0212; stroke-opacity:1; 
stroke-linecap:round; stroke-linejoin:round;">
</g>
<g style="fill:#000000; fill-opacity:1.0000; 
stroke:#000000; stroke-width:0.0000; stroke-opacity:1; 
stroke-linecap:round; stroke-linejoin:round;">
<circle cx="81.2800" cy="76.2000" r="3.2000" /> 
</g>
<g style="fill:#000000; fill-opacity:1.0000; 
stroke:#000000; stroke-width:0.0212; stroke-opacity:1; 
stroke-linecap:round; stroke-linejoin:round;">
</g>
<g >
</g>
<g style="fill:#000000; fill-opacity:1.0000; 
stroke:#000000; stroke-width:0.0212; stroke-opacity:1; 
stroke-linecap:round; stroke-linejoin:round;">
</g>
<g style="fill:#000000; fill-opacity:1.0000; 
stroke:#000000; stroke-width:0.0000; stroke-opacity:1; 
stroke-linecap:round; stroke-linejoin:round;">
<circle cx="81.2800" cy="96.5200" r="3.2000" /> 
</g>
<g style="fill:#000000; fill-opacity:1.0000; 
stroke:#000000; stroke-width:0.0212; stroke-opacity:1; 
stroke-linecap:round; stroke-linejoin:round;">
</g>
<g >
</g>
<g style="fill:#000000; fill-opacity:1.0000; 
stroke:#000000; stroke-width:0.0212; stroke-opacity:1; 
stroke-linecap:round; stroke-linejoin:round;">
</g>
<g style="fill:#000000; fill-opacity:1.0000; 
stroke:#000000; stroke-width:0.0000; stroke-opacity:1; 
stroke-linecap:round; stroke-linejoin:round;">
<circle cx="81.2800" cy="137.1600" r="3.2000" /> 
</g>
<g style="fill:#000000; fill-opacity:1.0000; 
stroke:#000000; stroke-width:0.0212; stroke-opacity:1; 
stroke-linecap:round; stroke-linejoin:round;">
</g>
<g >
</g>
<g style="fill:#000000; fill-opacity:1.0000; 
stroke:#000000; stroke-width:0.0212; stroke-opacity:1; 
stroke-linecap:round; stroke-linejoin:round;">
</g>
<g style="fill:#000000; fill-opacity:1.0000; 
stroke:#000000; stroke-width:0.0000; stroke-opacity:1; 
stroke-linecap:round; stroke-linejoin:round;">
<circle cx="81.2800" cy="116.8400" r="3.2000" /> 
</g>
<g style="fill:#000000; fill-opacity:1.0000; 
stroke:#000000; stroke-width:0.0212; stroke-opacity:1; 
stroke-linecap:round; stroke-linejoin:round;">
</g>
<g >
</g>
<g >
</g>
<g >
</g>
</g> 
</svg>
