<?xml version="1.0" standalone="no"?>
 <!DOCTYPE svg PUBLIC "-//W3C//DTD SVG 1.1//EN" 
 "http://www.w3.org/Graphics/SVG/1.1/DTD/svg11.dtd"> 
<svg
  xmlns:svg="http://www.w3.org/2000/svg"
  xmlns="http://www.w3.org/2000/svg"
  xmlns:xlink="http://www.w3.org/1999/xlink"
  version="1.1"
  width="297.0022mm" height="210.0072mm" viewBox="0.0000 0.0000 297.0022 210.0072">
<title>SVG Image created as main-Dwgs_User.svg date 2023/11/06 07:09:34 </title>
  <desc>Image generated by PCBNEW </desc>
<g style="fill:#000000; fill-opacity:1.0000;stroke:#000000; stroke-opacity:1.0000;
stroke-linecap:round; stroke-linejoin:round;"
 transform="translate(0 0) scale(1 1)">
</g>
<g style="fill:#000000; fill-opacity:0.0; 
stroke:#000000; stroke-width:0.0000; stroke-opacity:1; 
stroke-linecap:round; stroke-linejoin:round;">
</g>
<g style="fill:#000000; fill-opacity:0.0; 
stroke:#000000; stroke-width:0.1200; stroke-opacity:1; 
stroke-linecap:round; stroke-linejoin:round;">
<path d="M60.5650 59.5400
L62.3800 61.3600
" />
<path d="M61.4200 59.5500
L62.3700 60.5000
" />
<path d="M59.9500 59.8900
L62.0300 61.9700
" />
<path d="M59.6100 60.3800
L61.5500 62.3200
" />
<path d="M59.4800 61.0500
L60.8700 62.4400
" />
<circle cx="60.9600" cy="60.9600" r="1.5000" /> 
<path d="M60.5650 79.8600
L62.3800 81.6800
" />
<path d="M61.4200 79.8700
L62.3700 80.8200
" />
<path d="M59.9500 80.2100
L62.0300 82.2900
" />
<path d="M59.6100 80.7000
L61.5500 82.6400
" />
<path d="M59.4800 81.3700
L60.8700 82.7600
" />
<circle cx="60.9600" cy="81.2800" r="1.5000" /> 
<path d="M60.5650 100.1800
L62.3800 102.0000
" />
<path d="M61.4200 100.1900
L62.3700 101.1400
" />
<path d="M59.9500 100.5300
L62.0300 102.6100
" />
<path d="M59.6100 101.0200
L61.5500 102.9600
" />
<path d="M59.4800 101.6900
L60.8700 103.0800
" />
<circle cx="60.9600" cy="101.6000" r="1.5000" /> 
<path d="M60.5650 120.5000
L62.3800 122.3200
" />
<path d="M61.4200 120.5100
L62.3700 121.4600
" />
<path d="M59.9500 120.8500
L62.0300 122.9300
" />
<path d="M59.6100 121.3400
L61.5500 123.2800
" />
<path d="M59.4800 122.0100
L60.8700 123.4000
" />
<circle cx="60.9600" cy="121.9200" r="1.5000" /> 
<path d="M60.5650 69.7000
L62.3800 71.5200
" />
<path d="M61.4200 69.7100
L62.3700 70.6600
" />
<path d="M59.9500 70.0500
L62.0300 72.1300
" />
<path d="M59.6100 70.5400
L61.5500 72.4800
" />
<path d="M59.4800 71.2100
L60.8700 72.6000
" />
<circle cx="60.9600" cy="71.1200" r="1.5000" /> 
<path d="M60.5650 90.0200
L62.3800 91.8400
" />
<path d="M61.4200 90.0300
L62.3700 90.9800
" />
<path d="M59.9500 90.3700
L62.0300 92.4500
" />
<path d="M59.6100 90.8600
L61.5500 92.8000
" />
<path d="M59.4800 91.5300
L60.8700 92.9200
" />
<circle cx="60.9600" cy="91.4400" r="1.5000" /> 
<path d="M60.5650 110.3400
L62.3800 112.1600
" />
<path d="M61.4200 110.3500
L62.3700 111.3000
" />
<path d="M59.9500 110.6900
L62.0300 112.7700
" />
<path d="M59.6100 111.1800
L61.5500 113.1200
" />
<path d="M59.4800 111.8500
L60.8700 113.2400
" />
<circle cx="60.9600" cy="111.7600" r="1.5000" /> 
<path d="M60.5650 130.6600
L62.3800 132.4800
" />
<path d="M61.4200 130.6700
L62.3700 131.6200
" />
<path d="M59.9500 131.0100
L62.0300 133.0900
" />
<path d="M59.6100 131.5000
L61.5500 133.4400
" />
<path d="M59.4800 132.1700
L60.8700 133.5600
" />
<circle cx="60.9600" cy="132.0800" r="1.5000" /> 
<path d="M79.8600 147.7150
L81.6800 145.9000
" />
<path d="M79.8700 146.8600
L80.8200 145.9100
" />
<path d="M80.2100 148.3300
L82.2900 146.2500
" />
<path d="M80.7000 148.6700
L82.6400 146.7300
" />
<path d="M81.3700 148.8000
L82.7600 147.4100
" />
<circle cx="81.2800" cy="147.3200" r="1.5000" /> 
<g >
</g>
<g >
</g>
<g >
</g>
<g >
</g>
<g >
</g>
<g >
</g>
<g >
</g>
<g >
</g>
<g >
</g>
<g >
</g>
<g >
</g>
<g >
</g>
<g >
</g>
<g >
</g>
<g >
</g>
<g >
</g>
<g >
</g>
<g >
</g>
<g >
</g>
<g >
</g>
<g >
</g>
<g >
</g>
<g >
</g>
<g >
</g>
<g >
</g>
<g >
</g>
<g >
</g>
<g >
</g>
<g >
</g>
<g >
</g>
<g >
</g>
<g >
</g>
<g >
</g>
<g >
</g>
<g >
</g>
<g >
</g>
<g >
</g>
<g >
</g>
<g >
</g>
<g >
</g>
<g >
</g>
<g >
</g>
<g >
</g>
<g >
</g>
<g >
</g>
<g >
</g>
<g >
</g>
<g >
</g>
<g >
</g>
<g >
</g>
<g >
</g>
<g >
</g>
<g >
</g>
<g >
</g>
<g >
</g>
<g >
</g>
<g >
</g>
<g >
</g>
<g >
</g>
<g >
</g>
<g >
</g>
<g >
</g>
<g >
</g>
<g >
</g>
<g >
</g>
<g >
</g>
<g >
</g>
<g >
</g>
<g >
</g>
<g >
</g>
<g >
</g>
<g >
</g>
<g >
</g>
<g >
</g>
<g >
</g>
<g >
</g>
<g >
</g>
<g >
</g>
<g >
</g>
<g >
</g>
<g >
</g>
<g >
</g>
</g> 
</svg>
