<?xml version="1.0" standalone="no"?>
 <!DOCTYPE svg PUBLIC "-//W3C//DTD SVG 1.1//EN" 
 "http://www.w3.org/Graphics/SVG/1.1/DTD/svg11.dtd"> 
<svg
  xmlns:svg="http://www.w3.org/2000/svg"
  xmlns="http://www.w3.org/2000/svg"
  xmlns:xlink="http://www.w3.org/1999/xlink"
  version="1.1"
  width="297.0022mm" height="210.0072mm" viewBox="0.0000 0.0000 297.0022 210.0072">
<title>SVG Image created as main-F_CrtYd.svg date 2023/11/07 17:55:51 </title>
  <desc>Image generated by PCBNEW </desc>
<g style="fill:#000000; fill-opacity:1.0000;stroke:#000000; stroke-opacity:1.0000;
stroke-linecap:round; stroke-linejoin:round;"
 transform="translate(0 0) scale(1 1)">
</g>
<g style="fill:#000000; fill-opacity:0.0; 
stroke:#000000; stroke-width:0.0000; stroke-opacity:1; 
stroke-linecap:round; stroke-linejoin:round;">
</g>
<g style="fill:#000000; fill-opacity:0.0; 
stroke:#000000; stroke-width:0.0500; stroke-opacity:1; 
stroke-linecap:round; stroke-linejoin:round;">
<circle cx="63.3530" cy="30.2260" r="2.7500" /> 
<circle cx="56.2410" cy="30.2260" r="2.7500" /> 
<path d="M44.6740 43.7220
L47.2740 43.7220
" />
<path d="M47.2740 43.7220
L47.2740 39.1220
" />
<path d="M44.6740 39.1220
L44.6740 43.7220
" />
<path d="M47.2740 39.1220
L44.6740 39.1220
" />
<path d="M28.1600 47.4680
L28.1600 50.0680
" />
<path d="M28.1600 50.0680
L32.7600 50.0680
" />
<path d="M32.7600 47.4680
L28.1600 47.4680
" />
<path d="M32.7600 50.0680
L32.7600 47.4680
" />
<path d="M44.9280 100.8720
L47.5280 100.8720
" />
<path d="M47.5280 100.8720
L47.5280 96.2720
" />
<path d="M44.9280 96.2720
L44.9280 100.8720
" />
<path d="M47.5280 96.2720
L44.9280 96.2720
" />
<path d="M28.1600 103.8560
L28.1600 106.4560
" />
<path d="M28.1600 106.4560
L32.7600 106.4560
" />
<path d="M32.7600 103.8560
L28.1600 103.8560
" />
<path d="M32.7600 106.4560
L32.7600 103.8560
" />
<path d="M43.1460 66.0100
L43.1460 68.6100
" />
<path d="M43.1460 68.6100
L47.7460 68.6100
" />
<path d="M47.7460 66.0100
L43.1460 66.0100
" />
<path d="M47.7460 68.6100
L47.7460 66.0100
" />
<path d="M30.7640 71.5940
L28.1640 71.5940
" />
<path d="M28.1640 71.5940
L28.1640 76.1940
" />
<path d="M30.7640 76.1940
L30.7640 71.5940
" />
<path d="M28.1640 76.1940
L30.7640 76.1940
" />
<path d="M42.8920 122.9060
L42.8920 125.5060
" />
<path d="M42.8920 125.5060
L47.4920 125.5060
" />
<path d="M47.4920 122.9060
L42.8920 122.9060
" />
<path d="M47.4920 125.5060
L47.4920 122.9060
" />
<path d="M30.9164 127.4486
L28.3164 127.4486
" />
<path d="M28.3164 127.4486
L28.3164 132.0486
" />
<path d="M30.9164 132.0486
L30.9164 127.4486
" />
<path d="M28.3164 132.0486
L30.9164 132.0486
" />
<path d="M62.0000 38.7500
L62.0000 41.3500
" />
<path d="M62.0000 41.3500
L66.6000 41.3500
" />
<path d="M66.6000 38.7500
L62.0000 38.7500
" />
<path d="M66.6000 41.3500
L66.6000 38.7500
" />
<path d="M54.8940 56.8620
L52.2940 56.8620
" />
<path d="M52.2940 56.8620
L52.2940 61.4620
" />
<path d="M54.8940 61.4620
L54.8940 56.8620
" />
<path d="M52.2940 61.4620
L54.8940 61.4620
" />
<path d="M39.0820 50.7700
L39.0820 53.3700
" />
<path d="M39.0820 53.3700
L43.6820 53.3700
" />
<path d="M43.6820 50.7700
L39.0820 50.7700
" />
<path d="M43.6820 53.3700
L43.6820 50.7700
" />
<path d="M41.5860 106.6460
L39.1860 106.6460
" />
<path d="M39.1860 106.6460
L39.1860 113.7460
" />
<path d="M41.5860 113.7460
L41.5860 106.6460
" />
<path d="M39.1860 113.7460
L41.5860 113.7460
" />
<path d="M62.4500 96.2360
L62.4500 98.8360
" />
<path d="M62.4500 98.8360
L67.0500 98.8360
" />
<path d="M67.0500 96.2360
L62.4500 96.2360
" />
<path d="M67.0500 98.8360
L67.0500 96.2360
" />
<path d="M55.6560 113.7580
L53.0560 113.7580
" />
<path d="M53.0560 113.7580
L53.0560 118.3580
" />
<path d="M55.6560 118.3580
L55.6560 113.7580
" />
<path d="M53.0560 118.3580
L55.6560 118.3580
" />
<path d="M58.8980 85.6320
L61.4980 85.6320
" />
<path d="M61.4980 85.6320
L61.4980 81.0320
" />
<path d="M58.8980 81.0320
L58.8980 85.6320
" />
<path d="M61.4980 81.0320
L58.8980 81.0320
" />
<path d="M43.1500 82.3300
L45.7500 82.3300
" />
<path d="M45.7500 82.3300
L45.7500 77.7300
" />
<path d="M43.1500 77.7300
L43.1500 82.3300
" />
<path d="M45.7500 77.7300
L43.1500 77.7300
" />
<path d="M30.5100 83.0240
L27.9100 83.0240
" />
<path d="M27.9100 83.0240
L27.9100 87.6240
" />
<path d="M30.5100 87.6240
L30.5100 83.0240
" />
<path d="M27.9100 87.6240
L30.5100 87.6240
" />
<path d="M43.1500 87.4100
L45.7500 87.4100
" />
<path d="M45.7500 87.4100
L45.7500 82.8100
" />
<path d="M43.1500 82.8100
L43.1500 87.4100
" />
<path d="M45.7500 82.8100
L43.1500 82.8100
" />
<path d="M69.8200 76.4880
L72.4200 76.4880
" />
<path d="M72.4200 76.4880
L72.4200 71.8880
" />
<path d="M69.8200 71.8880
L69.8200 76.4880
" />
<path d="M72.4200 71.8880
L69.8200 71.8880
" />
<path d="M44.4200 73.5270
L47.0200 73.5270
" />
<path d="M47.0200 73.5270
L47.0200 68.9270
" />
<path d="M44.4200 68.9270
L44.4200 73.5270
" />
<path d="M47.0200 68.9270
L44.4200 68.9270
" />
<path d="M42.8960 130.3360
L45.4960 130.3360
" />
<path d="M45.4960 130.3360
L45.4960 125.7360
" />
<path d="M42.8960 125.7360
L42.8960 130.3360
" />
<path d="M45.4960 125.7360
L42.8960 125.7360
" />
<path d="M32.6190 42.1300
L30.1190 42.1300
" />
<path d="M30.1190 42.1300
L30.1190 46.9700
" />
<path d="M32.6190 46.9700
L32.6190 42.1300
" />
<path d="M30.1190 46.9700
L32.6190 46.9700
" />
<path d="M32.7460 98.7720
L30.2460 98.7720
" />
<path d="M30.2460 98.7720
L30.2460 103.6120
" />
<path d="M32.7460 103.6120
L32.7460 98.7720
" />
<path d="M30.2460 103.6120
L32.7460 103.6120
" />
<path d="M26.6900 46.7700
L29.1900 46.7700
" />
<path d="M29.1900 46.7700
L29.1900 41.9300
" />
<path d="M26.6900 41.9300
L26.6900 46.7700
" />
<path d="M29.1900 41.9300
L26.6900 41.9300
" />
<path d="M26.4360 103.4120
L28.9360 103.4120
" />
<path d="M28.9360 103.4120
L28.9360 98.5720
" />
<path d="M26.4360 98.5720
L26.4360 103.4120
" />
<path d="M28.9360 98.5720
L26.4360 98.5720
" />
<path d="M58.2000 83.0380
L58.2000 80.5380
" />
<path d="M58.2000 80.5380
L48.4800 80.5380
" />
<path d="M48.4800 83.0380
L58.2000 83.0380
" />
<path d="M48.4800 80.5380
L48.4800 83.0380
" />
<path d="M48.4800 83.8400
L48.4800 86.3400
" />
<path d="M48.4800 86.3400
L58.2000 86.3400
" />
<path d="M58.2000 83.8400
L48.4800 83.8400
" />
<path d="M58.2000 86.3400
L58.2000 83.8400
" />
<path d="M53.8820 90.6580
L53.8820 88.1580
" />
<path d="M53.8820 88.1580
L44.1620 88.1580
" />
<path d="M44.1620 90.6580
L53.8820 90.6580
" />
<path d="M44.1620 88.1580
L44.1620 90.6580
" />
<path d="M75.1500 78.2520
L75.1500 80.7520
" />
<path d="M75.1500 80.7520
L84.8700 80.7520
" />
<path d="M84.8700 78.2520
L75.1500 78.2520
" />
<path d="M84.8700 80.7520
L84.8700 78.2520
" />
<path d="M67.7840 42.1880
L67.7840 45.1880
" />
<path d="M67.7840 45.1880
L80.0440 45.1880
" />
<path d="M80.0440 42.1880
L67.7840 42.1880
" />
<path d="M80.0440 45.1880
L80.0440 42.1880
" />
<path d="M68.0380 105.6880
L68.0380 108.6880
" />
<path d="M68.0380 108.6880
L80.2980 108.6880
" />
<path d="M80.2980 105.6880
L68.0380 105.6880
" />
<path d="M80.2980 108.6880
L80.2980 105.6880
" />
<path d="M67.9110 53.4910
L67.9110 56.4910
" />
<path d="M67.9110 56.4910
L80.1710 56.4910
" />
<path d="M80.1710 53.4910
L67.9110 53.4910
" />
<path d="M80.1710 56.4910
L80.1710 53.4910
" />
<path d="M68.0380 118.6420
L68.0380 121.6420
" />
<path d="M68.0380 121.6420
L80.2980 121.6420
" />
<path d="M80.2980 118.6420
L68.0380 118.6420
" />
<path d="M80.2980 121.6420
L80.2980 118.6420
" />
<path d="M67.6570 27.0750
L67.6570 30.0750
" />
<path d="M67.6570 30.0750
L79.9170 30.0750
" />
<path d="M79.9170 27.0750
L67.6570 27.0750
" />
<path d="M79.9170 30.0750
L79.9170 27.0750
" />
<path d="M68.0380 90.4480
L68.0380 93.4480
" />
<path d="M68.0380 93.4480
L80.2980 93.4480
" />
<path d="M80.2980 90.4480
L68.0380 90.4480
" />
<path d="M80.2980 93.4480
L80.2980 90.4480
" />
<path d="M67.6570 38.5050
L67.6570 41.5050
" />
<path d="M67.6570 41.5050
L79.9170 41.5050
" />
<path d="M79.9170 38.5050
L67.6570 38.5050
" />
<path d="M79.9170 41.5050
L79.9170 38.5050
" />
<path d="M80.1710 60.4280
L80.1710 57.4280
" />
<path d="M80.1710 57.4280
L67.9110 57.4280
" />
<path d="M67.9110 60.4280
L80.1710 60.4280
" />
<path d="M67.9110 57.4280
L67.9110 60.4280
" />
<path d="M68.0380 101.8780
L68.0380 104.8780
" />
<path d="M68.0380 104.8780
L80.2980 104.8780
" />
<path d="M80.2980 101.8780
L68.0380 101.8780
" />
<path d="M80.2980 104.8780
L80.2980 101.8780
" />
<path d="M80.2980 125.9600
L80.2980 122.9600
" />
<path d="M80.2980 122.9600
L68.0380 122.9600
" />
<path d="M68.0380 125.9600
L80.2980 125.9600
" />
<path d="M68.0380 122.9600
L68.0380 125.9600
" />
<path d="M67.6570 30.8850
L67.6570 33.8850
" />
<path d="M67.6570 33.8850
L79.9170 33.8850
" />
<path d="M79.9170 30.8850
L67.6570 30.8850
" />
<path d="M79.9170 33.8850
L79.9170 30.8850
" />
<path d="M68.0380 94.2580
L68.0380 97.2580
" />
<path d="M68.0380 97.2580
L80.2980 97.2580
" />
<path d="M80.2980 94.2580
L68.0380 94.2580
" />
<path d="M80.2980 97.2580
L80.2980 94.2580
" />
<path d="M67.6570 34.6950
L67.6570 37.6950
" />
<path d="M67.6570 37.6950
L79.9170 37.6950
" />
<path d="M79.9170 34.6950
L67.6570 34.6950
" />
<path d="M79.9170 37.6950
L79.9170 34.6950
" />
<path d="M68.0380 98.0680
L68.0380 101.0680
" />
<path d="M68.0380 101.0680
L80.2980 101.0680
" />
<path d="M80.2980 98.0680
L68.0380 98.0680
" />
<path d="M80.2980 101.0680
L80.2980 98.0680
" />
<path d="M46.0080 38.5840
L46.0080 35.5840
" />
<path d="M46.0080 35.5840
L33.7480 35.5840
" />
<path d="M33.7480 38.5840
L46.0080 38.5840
" />
<path d="M33.7480 35.5840
L33.7480 38.5840
" />
<path d="M46.2620 95.2260
L46.2620 92.2260
" />
<path d="M46.2620 92.2260
L34.0020 92.2260
" />
<path d="M34.0020 95.2260
L46.2620 95.2260
" />
<path d="M34.0020 92.2260
L34.0020 95.2260
" />
<path d="M49.0460 56.4220
L52.0460 56.4220
" />
<path d="M52.0460 56.4220
L52.0460 44.1620
" />
<path d="M49.0460 44.1620
L49.0460 56.4220
" />
<path d="M52.0460 44.1620
L49.0460 44.1620
" />
<path d="M26.3820 57.1740
L26.3820 60.1740
" />
<path d="M26.3820 60.1740
L38.6420 60.1740
" />
<path d="M38.6420 57.1740
L26.3820 57.1740
" />
<path d="M38.6420 60.1740
L38.6420 57.1740
" />
<path d="M44.9820 113.5720
L47.9820 113.5720
" />
<path d="M47.9820 113.5720
L47.9820 101.3120
" />
<path d="M44.9820 101.3120
L44.9820 113.5720
" />
<path d="M47.9820 101.3120
L44.9820 101.3120
" />
<path d="M27.1440 113.8160
L27.1440 116.8160
" />
<path d="M27.1440 116.8160
L39.4040 116.8160
" />
<path d="M39.4040 113.8160
L27.1440 113.8160
" />
<path d="M39.4040 116.8160
L39.4040 113.8160
" />
<path d="M44.7280 56.4220
L47.7280 56.4220
" />
<path d="M47.7280 56.4220
L47.7280 44.1620
" />
<path d="M44.7280 44.1620
L44.7280 56.4220
" />
<path d="M47.7280 44.1620
L44.7280 44.1620
" />
<path d="M48.7920 113.5720
L51.7920 113.5720
" />
<path d="M51.7920 113.5720
L51.7920 101.3120
" />
<path d="M48.7920 101.3120
L48.7920 113.5720
" />
<path d="M51.7920 101.3120
L48.7920 101.3120
" />
<path d="M80.0440 85.3200
L80.0440 82.3200
" />
<path d="M80.0440 82.3200
L67.7840 82.3200
" />
<path d="M67.7840 85.3200
L80.0440 85.3200
" />
<path d="M67.7840 82.3200
L67.7840 85.3200
" />
<path d="M48.4800 76.9860
L48.4800 79.9860
" />
<path d="M48.4800 79.9860
L60.7400 79.9860
" />
<path d="M60.7400 76.9860
L48.4800 76.9860
" />
<path d="M60.7400 79.9860
L60.7400 76.9860
" />
<path d="M54.3220 87.9080
L54.3220 90.9080
" />
<path d="M54.3220 90.9080
L66.5820 90.9080
" />
<path d="M66.5820 87.9080
L54.3220 87.9080
" />
<path d="M66.5820 90.9080
L66.5820 87.9080
" />
<path d="M62.4500 78.0020
L62.4500 81.0020
" />
<path d="M62.4500 81.0020
L74.7100 81.0020
" />
<path d="M74.7100 78.0020
L62.4500 78.0020
" />
<path d="M74.7100 81.0020
L74.7100 78.0020
" />
<path d="M55.8560 44.1620
L52.8560 44.1620
" />
<path d="M52.8560 44.1620
L52.8560 56.4220
" />
<path d="M55.8560 56.4220
L55.8560 44.1620
" />
<path d="M52.8560 56.4220
L55.8560 56.4220
" />
<path d="M55.6020 101.3120
L52.6020 101.3120
" />
<path d="M52.6020 101.3120
L52.6020 113.5720
" />
<path d="M55.6020 113.5720
L55.6020 101.3120
" />
<path d="M52.6020 113.5720
L55.6020 113.5720
" />
<path d="M65.2540 65.2440
L62.2540 65.2440
" />
<path d="M62.2540 65.2440
L62.2540 77.5040
" />
<path d="M65.2540 77.5040
L65.2540 65.2440
" />
<path d="M62.2540 77.5040
L65.2540 77.5040
" />
<path d="M52.0360 61.7460
L52.0360 64.7460
" />
<path d="M52.0360 64.7460
L64.2960 64.7460
" />
<path d="M64.2960 61.7460
L52.0360 61.7460
" />
<path d="M64.2960 64.7460
L64.2960 61.7460
" />
<path d="M53.3060 119.4040
L53.3060 122.4040
" />
<path d="M53.3060 122.4040
L65.5660 122.4040
" />
<path d="M65.5660 119.4040
L53.3060 119.4040
" />
<path d="M65.5660 122.4040
L65.5660 119.4040
" />
<path d="M48.4800 91.9720
L48.4800 94.9720
" />
<path d="M48.4800 94.9720
L60.7400 94.9720
" />
<path d="M60.7400 91.9720
L48.4800 91.9720
" />
<path d="M60.7400 94.9720
L60.7400 91.9720
" />
<path d="M80.0440 89.3840
L80.0440 86.3840
" />
<path d="M80.0440 86.3840
L67.7840 86.3840
" />
<path d="M67.7840 89.3840
L80.0440 89.3840
" />
<path d="M67.7840 86.3840
L67.7840 89.3840
" />
<path d="M39.3360 61.7460
L39.3360 64.7460
" />
<path d="M39.3360 64.7460
L51.5960 64.7460
" />
<path d="M51.5960 61.7460
L39.3360 61.7460
" />
<path d="M51.5960 64.7460
L51.5960 61.7460
" />
<path d="M40.6060 119.4040
L40.6060 122.4040
" />
<path d="M40.6060 122.4040
L52.8660 122.4040
" />
<path d="M52.8660 119.4040
L40.6060 119.4040
" />
<path d="M52.8660 122.4040
L52.8660 119.4040
" />
<path d="M26.3820 60.9840
L26.3820 63.9840
" />
<path d="M26.3820 63.9840
L38.6420 63.9840
" />
<path d="M38.6420 60.9840
L26.3820 60.9840
" />
<path d="M38.6420 63.9840
L38.6420 60.9840
" />
<path d="M48.4800 69.1120
L48.4800 72.1120
" />
<path d="M48.4800 72.1120
L60.7400 72.1120
" />
<path d="M60.7400 69.1120
L48.4800 69.1120
" />
<path d="M60.7400 72.1120
L60.7400 69.1120
" />
<path d="M48.4800 73.1760
L48.4800 76.1760
" />
<path d="M48.4800 76.1760
L60.7400 76.1760
" />
<path d="M60.7400 73.1760
L48.4800 73.1760
" />
<path d="M60.7400 76.1760
L60.7400 73.1760
" />
<path d="M27.1440 117.6260
L27.1440 120.6260
" />
<path d="M27.1440 120.6260
L39.4040 120.6260
" />
<path d="M39.4040 117.6260
L27.1440 117.6260
" />
<path d="M39.4040 120.6260
L39.4040 117.6260
" />
<path d="M60.7400 68.3020
L60.7400 65.3020
" />
<path d="M60.7400 65.3020
L48.4800 65.3020
" />
<path d="M48.4800 68.3020
L60.7400 68.3020
" />
<path d="M48.4800 65.3020
L48.4800 68.3020
" />
<path d="M48.2260 124.9920
L48.2260 127.9920
" />
<path d="M48.2260 127.9920
L60.4860 127.9920
" />
<path d="M60.4860 124.9920
L48.2260 124.9920
" />
<path d="M60.4860 127.9920
L60.4860 124.9920
" />
<path d="M47.9720 38.8860
L47.9720 41.8860
" />
<path d="M47.9720 41.8860
L60.2320 41.8860
" />
<path d="M60.2320 38.8860
L47.9720 38.8860
" />
<path d="M60.2320 41.8860
L60.2320 38.8860
" />
<path d="M60.7400 98.5280
L60.7400 95.5280
" />
<path d="M60.7400 95.5280
L48.4800 95.5280
" />
<path d="M48.4800 98.5280
L60.7400 98.5280
" />
<path d="M48.4800 95.5280
L48.4800 98.5280
" />
<path d="M80.1710 48.8710
L80.1710 45.8710
" />
<path d="M80.1710 45.8710
L67.9110 45.8710
" />
<path d="M67.9110 48.8710
L80.1710 48.8710
" />
<path d="M67.9110 45.8710
L67.9110 48.8710
" />
<path d="M80.2980 112.7520
L80.2980 109.7520
" />
<path d="M80.2980 109.7520
L68.0380 109.7520
" />
<path d="M68.0380 112.7520
L80.2980 112.7520
" />
<path d="M68.0380 109.7520
L68.0380 112.7520
" />
<path d="M81.2560 64.7360
L78.2560 64.7360
" />
<path d="M78.2560 64.7360
L78.2560 76.9960
" />
<path d="M81.2560 76.9960
L81.2560 64.7360
" />
<path d="M78.2560 76.9960
L81.2560 76.9960
" />
<path d="M74.4460 76.9960
L77.4460 76.9960
" />
<path d="M77.4460 76.9960
L77.4460 64.7360
" />
<path d="M74.4460 64.7360
L74.4460 76.9960
" />
<path d="M77.4460 64.7360
L74.4460 64.7360
" />
<path d="M80.1710 52.6810
L80.1710 49.6810
" />
<path d="M80.1710 49.6810
L67.9110 49.6810
" />
<path d="M67.9110 52.6810
L80.1710 52.6810
" />
<path d="M67.9110 49.6810
L67.9110 52.6810
" />
<path d="M80.2980 117.3240
L80.2980 114.3240
" />
<path d="M80.2980 114.3240
L68.0380 114.3240
" />
<path d="M68.0380 117.3240
L80.2980 117.3240
" />
<path d="M68.0380 114.3240
L68.0380 117.3240
" />
<path d="M80.2980 63.9840
L80.2980 60.9840
" />
<path d="M80.2980 60.9840
L68.0380 60.9840
" />
<path d="M68.0380 63.9840
L80.2980 63.9840
" />
<path d="M68.0380 60.9840
L68.0380 63.9840
" />
<path d="M85.0660 64.7360
L82.0660 64.7360
" />
<path d="M82.0660 64.7360
L82.0660 76.9960
" />
<path d="M85.0660 76.9960
L85.0660 64.7360
" />
<path d="M82.0660 76.9960
L85.0660 76.9960
" />
<path d="M80.2980 130.0240
L80.2980 127.0240
" />
<path d="M80.2980 127.0240
L68.0380 127.0240
" />
<path d="M68.0380 130.0240
L80.2980 130.0240
" />
<path d="M68.0380 127.0240
L68.0380 130.0240
" />
<path d="M25.6980 50.6200
L25.6980 56.0200
" />
<path d="M25.6980 56.0200
L37.2980 56.0200
" />
<path d="M37.2980 50.6200
L25.6980 50.6200
" />
<path d="M37.2980 56.0200
L37.2980 50.6200
" />
<path d="M26.9680 107.5160
L26.9680 112.9160
" />
<path d="M26.9680 112.9160
L38.5680 112.9160
" />
<path d="M38.5680 107.5160
L26.9680 107.5160
" />
<path d="M38.5680 112.9160
L38.5680 107.5160
" />
<path d="M31.4700 65.8370
L31.4700 76.6370
" />
<path d="M31.4700 76.6370
L42.1700 76.6370
" />
<path d="M42.1700 65.8370
L31.4700 65.8370
" />
<path d="M42.1700 76.6370
L42.1700 65.8370
" />
<path d="M31.4700 122.6060
L31.4700 133.4060
" />
<path d="M31.4700 133.4060
L42.1700 133.4060
" />
<path d="M42.1700 122.6060
L31.4700 122.6060
" />
<path d="M42.1700 133.4060
L42.1700 122.6060
" />
<path d="M33.5020 39.0400
L33.5020 49.8400
" />
<path d="M33.5020 49.8400
L44.2020 49.8400
" />
<path d="M44.2020 39.0400
L33.5020 39.0400
" />
<path d="M44.2020 49.8400
L44.2020 39.0400
" />
<path d="M33.5020 95.6820
L33.5020 106.4820
" />
<path d="M33.5020 106.4820
L44.2020 106.4820
" />
<path d="M44.2020 95.6820
L33.5020 95.6820
" />
<path d="M44.2020 106.4820
L44.2020 95.6820
" />
<path d="M31.4700 77.3940
L31.4700 88.1940
" />
<path d="M31.4700 88.1940
L42.1700 88.1940
" />
<path d="M42.1700 77.3940
L31.4700 77.3940
" />
<path d="M42.1700 88.1940
L42.1700 77.3940
" />
<path d="M82.0200 30.7120
L85.5700 30.7120
" />
<path d="M82.0200 62.2120
L82.0200 30.7120
" />
<path d="M85.5700 30.7120
L85.5700 62.2120
" />
<path d="M85.5700 62.2120
L82.0200 62.2120
" />
<path d="M82.0200 86.5920
L85.5700 86.5920
" />
<path d="M82.0200 110.4920
L82.0200 86.5920
" />
<path d="M85.5700 86.5920
L85.5700 110.4920
" />
<path d="M85.5700 110.4920
L82.0200 110.4920
" />
<path d="M56.3620 42.5960
L56.3620 61.0460
" />
<path d="M56.3620 61.0460
L67.0620 61.0460
" />
<path d="M67.0620 42.5960
L56.3620 42.5960
" />
<path d="M67.0620 61.0460
L67.0620 42.5960
" />
<path d="M56.2350 99.4920
L56.2350 117.9420
" />
<path d="M56.2350 117.9420
L66.9350 117.9420
" />
<path d="M66.9350 99.4920
L56.2350 99.4920
" />
<path d="M66.9350 117.9420
L66.9350 99.4920
" />
<path d="M68.6440 64.8340
L68.6440 69.5740
" />
<path d="M68.6440 64.8340
L74.1040 64.8340
" />
<path d="M74.1040 69.5740
L68.6440 69.5740
" />
<path d="M74.1040 69.5740
L74.1040 64.8340
" />
<path d="M67.5000 128.7140
L67.5000 123.9740
" />
<path d="M67.5000 128.7140
L62.0400 128.7140
" />
<path d="M62.0400 123.9740
L67.5000 123.9740
" />
<path d="M62.0400 123.9740
L62.0400 128.7140
" />
<circle cx="83.4600" cy="134.6200" r="2.4500" /> 
<circle cx="27.9400" cy="134.6200" r="2.4500" /> 
<circle cx="27.9400" cy="27.9400" r="2.4500" /> 
<circle cx="83.4600" cy="27.9400" r="2.4500" /> 
<path d="M44.6400 61.0230
L44.6400 56.2830
" />
<path d="M44.6400 61.0230
L39.1800 61.0230
" />
<path d="M39.1800 56.2830
L44.6400 56.2830
" />
<path d="M39.1800 56.2830
L39.1800 61.0230
" />
<path d="M41.4660 113.8560
L41.4660 118.5960
" />
<path d="M41.4660 113.8560
L46.9260 113.8560
" />
<path d="M46.9260 118.5960
L41.4660 118.5960
" />
<path d="M46.9260 118.5960
L46.9260 113.8560
" />
<g >
</g>
<g >
</g>
<g >
</g>
<g >
</g>
<g >
</g>
<g >
</g>
<g >
</g>
<g >
</g>
<g >
</g>
<g >
</g>
<g >
</g>
<g >
</g>
<g >
</g>
<g >
</g>
<g >
</g>
<g >
</g>
<g >
</g>
<g >
</g>
<g >
</g>
<g >
</g>
<g >
</g>
<g >
</g>
<g >
</g>
<g >
</g>
<g >
</g>
<g >
</g>
<g >
</g>
<g >
</g>
<g >
</g>
<g >
</g>
<g >
</g>
<g >
</g>
<g >
</g>
<g >
</g>
<g >
</g>
<g >
</g>
<g >
</g>
<g >
</g>
<g >
</g>
<g >
</g>
<g >
</g>
<g >
</g>
<g >
</g>
<g >
</g>
<g >
</g>
<g >
</g>
<g >
</g>
<g >
</g>
<g >
</g>
<g >
</g>
<g >
</g>
<g >
</g>
<g >
</g>
<g >
</g>
<g >
</g>
<g >
</g>
<g >
</g>
<g >
</g>
<g >
</g>
<g >
</g>
<g >
</g>
<g >
</g>
<g >
</g>
<g >
</g>
<g >
</g>
<g >
</g>
<g >
</g>
<g >
</g>
<g >
</g>
<g >
</g>
<g >
</g>
<g >
</g>
<g >
</g>
<g >
</g>
<g >
</g>
<g >
</g>
<g >
</g>
<g >
</g>
<g >
</g>
<g >
</g>
<g >
</g>
<g >
</g>
<g >
</g>
<g >
</g>
<g >
</g>
<g >
</g>
<g >
</g>
<g >
</g>
<g >
</g>
<g >
</g>
<g >
</g>
<g >
</g>
<g >
</g>
<g >
</g>
<g >
</g>
<g >
</g>
<g >
</g>
<g >
</g>
<g >
</g>
<g >
</g>
<g >
</g>
<g >
</g>
<g >
</g>
<g >
</g>
<g >
</g>
<g >
</g>
<g >
</g>
</g> 
</svg>
