<?xml version="1.0" standalone="no"?>
 <!DOCTYPE svg PUBLIC "-//W3C//DTD SVG 1.1//EN" 
 "http://www.w3.org/Graphics/SVG/1.1/DTD/svg11.dtd"> 
<svg
  xmlns:svg="http://www.w3.org/2000/svg"
  xmlns="http://www.w3.org/2000/svg"
  xmlns:xlink="http://www.w3.org/1999/xlink"
  version="1.1"
  width="297.0022mm" height="210.0072mm" viewBox="0.0000 0.0000 297.0022 210.0072">
<title>SVG Image created as mount-B_Fab.svg date 2023/11/08 17:25:24 </title>
  <desc>Image generated by PCBNEW </desc>
<g style="fill:#000000; fill-opacity:1.0000;stroke:#000000; stroke-opacity:1.0000;
stroke-linecap:round; stroke-linejoin:round;"
 transform="translate(0 0) scale(1 1)">
</g>
<g style="fill:#000000; fill-opacity:0.0; 
stroke:#000000; stroke-width:0.0000; stroke-opacity:1; 
stroke-linecap:round; stroke-linejoin:round;">
</g>
<g style="fill:#000000; fill-opacity:0.0; 
stroke:#000000; stroke-width:0.1500; stroke-opacity:1; 
stroke-linecap:round; stroke-linejoin:round;">
<g transform="rotate(-90.000000 81.0700 45.7200)">
<text x="81.0700" y="46.2200"
transform="scale(-1 1) translate(-162.140000 0)"
textLength="13.5357" font-size="1.3333" lengthAdjust="spacingAndGlyphs"
text-anchor="middle" opacity="0">Conn_01x13_Male</text>
</g>
<g class="stroked-text"><desc>Conn_01x13_Male</desc>
<path d="M81.4296 39.8867
L81.4772 39.8390
" />
<path d="M81.4772 39.8390
L81.5248 39.6962
" />
<path d="M81.5248 39.6962
L81.5248 39.6010
" />
<path d="M81.5248 39.6010
L81.4772 39.4581
" />
<path d="M81.4772 39.4581
L81.3820 39.3629
" />
<path d="M81.3820 39.3629
L81.2867 39.3152
" />
<path d="M81.2867 39.3152
L81.0962 39.2676
" />
<path d="M81.0962 39.2676
L80.9534 39.2676
" />
<path d="M80.9534 39.2676
L80.7629 39.3152
" />
<path d="M80.7629 39.3152
L80.6677 39.3629
" />
<path d="M80.6677 39.3629
L80.5724 39.4581
" />
<path d="M80.5724 39.4581
L80.5248 39.6010
" />
<path d="M80.5248 39.6010
L80.5248 39.6962
" />
<path d="M80.5248 39.6962
L80.5724 39.8390
" />
<path d="M80.5724 39.8390
L80.6201 39.8867
" />
<path d="M81.5248 40.4581
L81.4772 40.3629
" />
<path d="M81.4772 40.3629
L81.4296 40.3152
" />
<path d="M81.4296 40.3152
L81.3343 40.2676
" />
<path d="M81.3343 40.2676
L81.0486 40.2676
" />
<path d="M81.0486 40.2676
L80.9534 40.3152
" />
<path d="M80.9534 40.3152
L80.9058 40.3629
" />
<path d="M80.9058 40.3629
L80.8582 40.4581
" />
<path d="M80.8582 40.4581
L80.8582 40.6010
" />
<path d="M80.8582 40.6010
L80.9058 40.6962
" />
<path d="M80.9058 40.6962
L80.9534 40.7438
" />
<path d="M80.9534 40.7438
L81.0486 40.7914
" />
<path d="M81.0486 40.7914
L81.3343 40.7914
" />
<path d="M81.3343 40.7914
L81.4296 40.7438
" />
<path d="M81.4296 40.7438
L81.4772 40.6962
" />
<path d="M81.4772 40.6962
L81.5248 40.6010
" />
<path d="M81.5248 40.6010
L81.5248 40.4581
" />
<path d="M80.8582 41.2200
L81.5248 41.2200
" />
<path d="M80.9534 41.2200
L80.9058 41.2676
" />
<path d="M80.9058 41.2676
L80.8582 41.3629
" />
<path d="M80.8582 41.3629
L80.8582 41.5057
" />
<path d="M80.8582 41.5057
L80.9058 41.6010
" />
<path d="M80.9058 41.6010
L81.0010 41.6486
" />
<path d="M81.0010 41.6486
L81.5248 41.6486
" />
<path d="M80.8582 42.1248
L81.5248 42.1248
" />
<path d="M80.9534 42.1248
L80.9058 42.1724
" />
<path d="M80.9058 42.1724
L80.8582 42.2676
" />
<path d="M80.8582 42.2676
L80.8582 42.4105
" />
<path d="M80.8582 42.4105
L80.9058 42.5057
" />
<path d="M80.9058 42.5057
L81.0010 42.5533
" />
<path d="M81.0010 42.5533
L81.5248 42.5533
" />
<path d="M81.6201 42.7914
L81.6201 43.5533
" />
<path d="M80.5248 43.9819
L80.5248 44.0771
" />
<path d="M80.5248 44.0771
L80.5724 44.1724
" />
<path d="M80.5724 44.1724
L80.6201 44.2200
" />
<path d="M80.6201 44.2200
L80.7153 44.2676
" />
<path d="M80.7153 44.2676
L80.9058 44.3152
" />
<path d="M80.9058 44.3152
L81.1439 44.3152
" />
<path d="M81.1439 44.3152
L81.3343 44.2676
" />
<path d="M81.3343 44.2676
L81.4296 44.2200
" />
<path d="M81.4296 44.2200
L81.4772 44.1724
" />
<path d="M81.4772 44.1724
L81.5248 44.0771
" />
<path d="M81.5248 44.0771
L81.5248 43.9819
" />
<path d="M81.5248 43.9819
L81.4772 43.8867
" />
<path d="M81.4772 43.8867
L81.4296 43.8390
" />
<path d="M81.4296 43.8390
L81.3343 43.7914
" />
<path d="M81.3343 43.7914
L81.1439 43.7438
" />
<path d="M81.1439 43.7438
L80.9058 43.7438
" />
<path d="M80.9058 43.7438
L80.7153 43.7914
" />
<path d="M80.7153 43.7914
L80.6201 43.8390
" />
<path d="M80.6201 43.8390
L80.5724 43.8867
" />
<path d="M80.5724 43.8867
L80.5248 43.9819
" />
<path d="M81.5248 45.2676
L81.5248 44.6962
" />
<path d="M81.5248 44.9819
L80.5248 44.9819
" />
<path d="M80.5248 44.9819
L80.6677 44.8867
" />
<path d="M80.6677 44.8867
L80.7629 44.7914
" />
<path d="M80.7629 44.7914
L80.8105 44.6962
" />
<path d="M81.5248 45.6010
L80.8582 46.1248
" />
<path d="M80.8582 45.6010
L81.5248 46.1248
" />
<path d="M81.5248 47.0295
L81.5248 46.4581
" />
<path d="M81.5248 46.7438
L80.5248 46.7438
" />
<path d="M80.5248 46.7438
L80.6677 46.6486
" />
<path d="M80.6677 46.6486
L80.7629 46.5533
" />
<path d="M80.7629 46.5533
L80.8105 46.4581
" />
<path d="M80.5248 47.3629
L80.5248 47.9819
" />
<path d="M80.5248 47.9819
L80.9058 47.6486
" />
<path d="M80.9058 47.6486
L80.9058 47.7914
" />
<path d="M80.9058 47.7914
L80.9534 47.8867
" />
<path d="M80.9534 47.8867
L81.0010 47.9343
" />
<path d="M81.0010 47.9343
L81.0962 47.9819
" />
<path d="M81.0962 47.9819
L81.3343 47.9819
" />
<path d="M81.3343 47.9819
L81.4296 47.9343
" />
<path d="M81.4296 47.9343
L81.4772 47.8867
" />
<path d="M81.4772 47.8867
L81.5248 47.7914
" />
<path d="M81.5248 47.7914
L81.5248 47.5057
" />
<path d="M81.5248 47.5057
L81.4772 47.4105
" />
<path d="M81.4772 47.4105
L81.4296 47.3629
" />
<path d="M81.6201 48.1724
L81.6201 48.9343
" />
<path d="M81.5248 49.1724
L80.5248 49.1724
" />
<path d="M80.5248 49.1724
L81.2391 49.5057
" />
<path d="M81.2391 49.5057
L80.5248 49.8390
" />
<path d="M80.5248 49.8390
L81.5248 49.8390
" />
<path d="M81.5248 50.7438
L81.0010 50.7438
" />
<path d="M81.0010 50.7438
L80.9058 50.6962
" />
<path d="M80.9058 50.6962
L80.8582 50.6010
" />
<path d="M80.8582 50.6010
L80.8582 50.4105
" />
<path d="M80.8582 50.4105
L80.9058 50.3152
" />
<path d="M81.4772 50.7438
L81.5248 50.6486
" />
<path d="M81.5248 50.6486
L81.5248 50.4105
" />
<path d="M81.5248 50.4105
L81.4772 50.3152
" />
<path d="M81.4772 50.3152
L81.3820 50.2676
" />
<path d="M81.3820 50.2676
L81.2867 50.2676
" />
<path d="M81.2867 50.2676
L81.1915 50.3152
" />
<path d="M81.1915 50.3152
L81.1439 50.4105
" />
<path d="M81.1439 50.4105
L81.1439 50.6486
" />
<path d="M81.1439 50.6486
L81.0962 50.7438
" />
<path d="M81.5248 51.3629
L81.4772 51.2676
" />
<path d="M81.4772 51.2676
L81.3820 51.2200
" />
<path d="M81.3820 51.2200
L80.5248 51.2200
" />
<path d="M81.4772 52.1248
L81.5248 52.0295
" />
<path d="M81.5248 52.0295
L81.5248 51.8390
" />
<path d="M81.5248 51.8390
L81.4772 51.7438
" />
<path d="M81.4772 51.7438
L81.3820 51.6962
" />
<path d="M81.3820 51.6962
L81.0010 51.6962
" />
<path d="M81.0010 51.6962
L80.9058 51.7438
" />
<path d="M80.9058 51.7438
L80.8582 51.8390
" />
<path d="M80.8582 51.8390
L80.8582 52.0295
" />
<path d="M80.8582 52.0295
L80.9058 52.1248
" />
<path d="M80.9058 52.1248
L81.0010 52.1724
" />
<path d="M81.0010 52.1724
L81.0962 52.1724
" />
<path d="M81.0962 52.1724
L81.1915 51.6962
" />
</g><text x="63.5000" y="46.2200"
transform="scale(-1 1) translate(-127.000000 0)"
textLength="2.9167" font-size="1.3333" lengthAdjust="spacingAndGlyphs"
text-anchor="middle" opacity="0">J11</text>
<g class="stroked-text"><desc>J11</desc>
<path d="M64.3095 45.1748
L64.3095 45.8891
" />
<path d="M64.3095 45.8891
L64.3571 46.0320
" />
<path d="M64.3571 46.0320
L64.4524 46.1272
" />
<path d="M64.4524 46.1272
L64.5952 46.1748
" />
<path d="M64.5952 46.1748
L64.6905 46.1748
" />
<path d="M63.3095 46.1748
L63.8810 46.1748
" />
<path d="M63.5952 46.1748
L63.5952 45.1748
" />
<path d="M63.5952 45.1748
L63.6905 45.3177
" />
<path d="M63.6905 45.3177
L63.7857 45.4129
" />
<path d="M63.7857 45.4129
L63.8810 45.4605
" />
<path d="M62.3571 46.1748
L62.9286 46.1748
" />
<path d="M62.6429 46.1748
L62.6429 45.1748
" />
<path d="M62.6429 45.1748
L62.7381 45.3177
" />
<path d="M62.7381 45.3177
L62.8333 45.4129
" />
<path d="M62.8333 45.4129
L62.9286 45.4605
" />
</g></g>
<g style="fill:#000000; fill-opacity:0.0; 
stroke:#000000; stroke-width:0.1000; stroke-opacity:1; 
stroke-linecap:round; stroke-linejoin:round;">
<path d="M80.0100 44.4500
L47.6250 44.4500
" />
<path d="M47.6250 44.4500
L46.9900 45.0850
" />
<path d="M46.9900 45.0850
L46.9900 46.9900
" />
<path d="M80.0100 46.9900
L80.0100 44.4500
" />
<path d="M46.9900 46.9900
L80.0100 46.9900
" />
<g >
</g>
<g >
</g>
<g >
</g>
<g >
</g>
<g >
</g>
<g >
</g>
<g >
</g>
<g >
</g>
<g >
</g>
<g >
</g>
<g >
</g>
<g >
</g>
<g >
</g>
<g >
</g>
<g >
</g>
<g >
</g>
<g >
</g>
<g >
</g>
<g >
</g>
<g >
</g>
<g >
</g>
<g >
</g>
<g >
</g>
<g >
</g>
<g >
</g>
<g >
</g>
<g >
</g>
<g >
</g>
<g >
</g>
<g >
</g>
<g >
</g>
<g >
</g>
<g >
</g>
<g >
</g>
<g >
</g>
<g >
</g>
<g >
</g>
<g >
</g>
<g >
</g>
<g >
</g>
</g> 
</svg>
