<?xml version="1.0" standalone="no"?>
 <!DOCTYPE svg PUBLIC "-//W3C//DTD SVG 1.1//EN" 
 "http://www.w3.org/Graphics/SVG/1.1/DTD/svg11.dtd"> 
<svg
  xmlns:svg="http://www.w3.org/2000/svg"
  xmlns="http://www.w3.org/2000/svg"
  xmlns:xlink="http://www.w3.org/1999/xlink"
  version="1.1"
  width="297.0022mm" height="210.0072mm" viewBox="0.0000 0.0000 297.0022 210.0072">
<title>SVG Image created as mount-Dwgs_User.svg date 2023/11/08 17:25:24 </title>
  <desc>Image generated by PCBNEW </desc>
<g style="fill:#000000; fill-opacity:1.0000;stroke:#000000; stroke-opacity:1.0000;
stroke-linecap:round; stroke-linejoin:round;"
 transform="translate(0 0) scale(1 1)">
</g>
<g style="fill:#000000; fill-opacity:0.0; 
stroke:#000000; stroke-width:0.0000; stroke-opacity:1; 
stroke-linecap:round; stroke-linejoin:round;">
</g>
<g style="fill:#000000; fill-opacity:0.0; 
stroke:#000000; stroke-width:0.1200; stroke-opacity:1; 
stroke-linecap:round; stroke-linejoin:round;">
<path d="M49.3800 56.1150
L51.2000 54.3000
" />
<path d="M49.3900 55.2600
L50.3400 54.3100
" />
<path d="M49.7300 56.7300
L51.8100 54.6500
" />
<path d="M50.2200 57.0700
L52.1600 55.1300
" />
<path d="M50.8900 57.2000
L52.2800 55.8100
" />
<circle cx="50.8000" cy="55.7200" r="1.5000" /> 
<path d="M49.3800 117.2350
L51.2000 115.4200
" />
<path d="M49.3900 116.3800
L50.3400 115.4300
" />
<path d="M49.7300 117.8500
L51.8100 115.7700
" />
<path d="M50.2200 118.1900
L52.1600 116.2500
" />
<path d="M50.8900 118.3200
L52.2800 116.9300
" />
<circle cx="50.8000" cy="116.8400" r="1.5000" /> 
<path d="M49.3800 96.9150
L51.2000 95.1000
" />
<path d="M49.3900 96.0600
L50.3400 95.1100
" />
<path d="M49.7300 97.5300
L51.8100 95.4500
" />
<path d="M50.2200 97.8700
L52.1600 95.9300
" />
<path d="M50.8900 98.0000
L52.2800 96.6100
" />
<circle cx="50.8000" cy="96.5200" r="1.5000" /> 
<path d="M49.3800 76.5950
L51.2000 74.7800
" />
<path d="M49.3900 75.7400
L50.3400 74.7900
" />
<path d="M49.7300 77.2100
L51.8100 75.1300
" />
<path d="M50.2200 77.5500
L52.1600 75.6100
" />
<path d="M50.8900 77.6800
L52.2800 76.2900
" />
<circle cx="50.8000" cy="76.2000" r="1.5000" /> 
<path d="M49.3800 137.5550
L51.2000 135.7400
" />
<path d="M49.3900 136.7000
L50.3400 135.7500
" />
<path d="M49.7300 138.1700
L51.8100 136.0900
" />
<path d="M50.2200 138.5100
L52.1600 136.5700
" />
<path d="M50.8900 138.6400
L52.2800 137.2500
" />
<circle cx="50.8000" cy="137.1600" r="1.5000" /> 
<path d="M110.3400 96.9150
L112.1600 95.1000
" />
<path d="M110.3500 96.0600
L111.3000 95.1100
" />
<path d="M110.6900 97.5300
L112.7700 95.4500
" />
<path d="M111.1800 97.8700
L113.1200 95.9300
" />
<path d="M111.8500 98.0000
L113.2400 96.6100
" />
<circle cx="111.7600" cy="96.5200" r="1.5000" /> 
<path d="M110.3400 76.5950
L112.1600 74.7800
" />
<path d="M110.3500 75.7400
L111.3000 74.7900
" />
<path d="M110.6900 77.2100
L112.7700 75.1300
" />
<path d="M111.1800 77.5500
L113.1200 75.6100
" />
<path d="M111.8500 77.6800
L113.2400 76.2900
" />
<circle cx="111.7600" cy="76.2000" r="1.5000" /> 
<path d="M110.3400 117.2350
L112.1600 115.4200
" />
<path d="M110.3500 116.3800
L111.3000 115.4300
" />
<path d="M110.6900 117.8500
L112.7700 115.7700
" />
<path d="M111.1800 118.1900
L113.1200 116.2500
" />
<path d="M111.8500 118.3200
L113.2400 116.9300
" />
<circle cx="111.7600" cy="116.8400" r="1.5000" /> 
<path d="M110.3400 56.2750
L112.1600 54.4600
" />
<path d="M110.3500 55.4200
L111.3000 54.4700
" />
<path d="M110.6900 56.8900
L112.7700 54.8100
" />
<path d="M111.1800 57.2300
L113.1200 55.2900
" />
<path d="M111.8500 57.3600
L113.2400 55.9700
" />
<circle cx="111.7600" cy="55.8800" r="1.5000" /> 
<path d="M110.3400 137.5550
L112.1600 135.7400
" />
<path d="M110.3500 136.7000
L111.3000 135.7500
" />
<path d="M110.6900 138.1700
L112.7700 136.0900
" />
<path d="M111.1800 138.5100
L113.1200 136.5700
" />
<path d="M111.8500 138.6400
L113.2400 137.2500
" />
<circle cx="111.7600" cy="137.1600" r="1.5000" /> 
<g >
</g>
<g >
</g>
<g >
</g>
<g >
</g>
<g >
</g>
<g >
</g>
<g >
</g>
<g >
</g>
<g >
</g>
<g >
</g>
<g >
</g>
<g >
</g>
<g >
</g>
<g >
</g>
<g >
</g>
<g >
</g>
<g >
</g>
<g >
</g>
<g >
</g>
<g >
</g>
<g >
</g>
<g >
</g>
<g >
</g>
<g >
</g>
<g >
</g>
<g >
</g>
<g >
</g>
<g >
</g>
<g >
</g>
<g >
</g>
<g >
</g>
<g >
</g>
<g >
</g>
<g >
</g>
<g >
</g>
<g >
</g>
<g >
</g>
<g >
</g>
<g >
</g>
<g >
</g>
</g> 
</svg>
