<?xml version="1.0" standalone="no"?>
 <!DOCTYPE svg PUBLIC "-//W3C//DTD SVG 1.1//EN" 
 "http://www.w3.org/Graphics/SVG/1.1/DTD/svg11.dtd"> 
<svg
  xmlns:svg="http://www.w3.org/2000/svg"
  xmlns="http://www.w3.org/2000/svg"
  xmlns:xlink="http://www.w3.org/1999/xlink"
  version="1.1"
  width="297.0022mm" height="210.0072mm" viewBox="0.0000 0.0000 297.0022 210.0072">
<title>SVG Image created as mount-F_CrtYd.svg date 2023/11/08 17:25:24 </title>
  <desc>Image generated by PCBNEW </desc>
<g style="fill:#000000; fill-opacity:1.0000;stroke:#000000; stroke-opacity:1.0000;
stroke-linecap:round; stroke-linejoin:round;"
 transform="translate(0 0) scale(1 1)">
</g>
<g style="fill:#000000; fill-opacity:0.0; 
stroke:#000000; stroke-width:0.0000; stroke-opacity:1; 
stroke-linecap:round; stroke-linejoin:round;">
</g>
<g style="fill:#000000; fill-opacity:0.0; 
stroke:#000000; stroke-width:0.0500; stroke-opacity:1; 
stroke-linecap:round; stroke-linejoin:round;">
<path d="M69.8800 85.5700
L69.8800 82.0700
" />
<path d="M69.8800 82.0700
L64.7800 82.0700
" />
<path d="M64.7800 85.5700
L69.8800 85.5700
" />
<path d="M64.7800 82.0700
L64.7800 85.5700
" />
<path d="M45.8000 62.2200
L45.8000 47.8200
" />
<path d="M55.8000 47.8200
L45.8000 47.8200
" />
<path d="M55.8000 62.2200
L45.8000 62.2200
" />
<path d="M55.8000 62.2200
L55.8000 47.8200
" />
<path d="M45.8000 123.3400
L45.8000 108.9400
" />
<path d="M55.8000 108.9400
L45.8000 108.9400
" />
<path d="M55.8000 123.3400
L45.8000 123.3400
" />
<path d="M55.8000 123.3400
L55.8000 108.9400
" />
<path d="M45.8000 103.0200
L45.8000 88.6200
" />
<path d="M55.8000 88.6200
L45.8000 88.6200
" />
<path d="M55.8000 103.0200
L45.8000 103.0200
" />
<path d="M55.8000 103.0200
L55.8000 88.6200
" />
<path d="M45.8000 82.7000
L45.8000 68.3000
" />
<path d="M55.8000 68.3000
L45.8000 68.3000
" />
<path d="M55.8000 82.7000
L45.8000 82.7000
" />
<path d="M55.8000 82.7000
L55.8000 68.3000
" />
<path d="M45.8000 143.6600
L45.8000 129.2600
" />
<path d="M55.8000 129.2600
L45.8000 129.2600
" />
<path d="M55.8000 143.6600
L45.8000 143.6600
" />
<path d="M55.8000 143.6600
L55.8000 129.2600
" />
<path d="M106.7600 103.0200
L106.7600 88.6200
" />
<path d="M116.7600 88.6200
L106.7600 88.6200
" />
<path d="M116.7600 103.0200
L106.7600 103.0200
" />
<path d="M116.7600 103.0200
L116.7600 88.6200
" />
<path d="M106.7600 82.7000
L106.7600 68.3000
" />
<path d="M116.7600 68.3000
L106.7600 68.3000
" />
<path d="M116.7600 82.7000
L106.7600 82.7000
" />
<path d="M116.7600 82.7000
L116.7600 68.3000
" />
<path d="M106.7600 123.3400
L106.7600 108.9400
" />
<path d="M116.7600 108.9400
L106.7600 108.9400
" />
<path d="M116.7600 123.3400
L106.7600 123.3400
" />
<path d="M116.7600 123.3400
L116.7600 108.9400
" />
<path d="M106.7600 62.3800
L106.7600 47.9800
" />
<path d="M116.7600 47.9800
L106.7600 47.9800
" />
<path d="M116.7600 62.3800
L106.7600 62.3800
" />
<path d="M116.7600 62.3800
L116.7600 47.9800
" />
<path d="M106.7600 143.6600
L106.7600 129.2600
" />
<path d="M116.7600 129.2600
L106.7600 129.2600
" />
<path d="M116.7600 143.6600
L106.7600 143.6600
" />
<path d="M116.7600 143.6600
L116.7600 129.2600
" />
<path d="M63.2800 67.5400
L63.2800 64.5400
" />
<path d="M63.2800 64.5400
L51.0200 64.5400
" />
<path d="M51.0200 67.5400
L63.2800 67.5400
" />
<path d="M51.0200 64.5400
L51.0200 67.5400
" />
<path d="M56.6100 126.3950
L56.6100 129.3950
" />
<path d="M56.6100 129.3950
L68.8700 129.3950
" />
<path d="M68.8700 126.3950
L56.6100 126.3950
" />
<path d="M68.8700 129.3950
L68.8700 126.3950
" />
<path d="M61.1800 68.3500
L61.1800 71.3500
" />
<path d="M61.1800 71.3500
L73.4400 71.3500
" />
<path d="M73.4400 68.3500
L61.1800 68.3500
" />
<path d="M73.4400 71.3500
L73.4400 68.3500
" />
<path d="M77.6900 68.3500
L77.6900 71.3500
" />
<path d="M77.6900 71.3500
L89.9500 71.3500
" />
<path d="M89.9500 68.3500
L77.6900 68.3500
" />
<path d="M89.9500 71.3500
L89.9500 68.3500
" />
<path d="M75.1500 105.1800
L75.1500 108.1800
" />
<path d="M75.1500 108.1800
L87.4100 108.1800
" />
<path d="M87.4100 105.1800
L75.1500 105.1800
" />
<path d="M87.4100 108.1800
L87.4100 105.1800
" />
<path d="M84.0500 118.3300
L81.0500 118.3300
" />
<path d="M81.0500 118.3300
L81.0500 130.5900
" />
<path d="M84.0500 130.5900
L84.0500 118.3300
" />
<path d="M81.0500 130.5900
L84.0500 130.5900
" />
<path d="M84.0500 137.3800
L81.0500 137.3800
" />
<path d="M81.0500 137.3800
L81.0500 149.6400
" />
<path d="M84.0500 149.6400
L84.0500 137.3800
" />
<path d="M81.0500 149.6400
L84.0500 149.6400
" />
<path d="M104.3700 84.0400
L101.3700 84.0400
" />
<path d="M101.3700 84.0400
L101.3700 96.3000
" />
<path d="M104.3700 96.3000
L104.3700 84.0400
" />
<path d="M101.3700 96.3000
L104.3700 96.3000
" />
<path d="M104.1800 111.9800
L101.1800 111.9800
" />
<path d="M101.1800 111.9800
L101.1800 124.2400
" />
<path d="M104.1800 124.2400
L104.1800 111.9800
" />
<path d="M101.1800 124.2400
L104.1800 124.2400
" />
<path d="M105.3760 146.3280
L105.3760 149.3280
" />
<path d="M105.3760 149.3280
L115.0960 149.3280
" />
<path d="M115.0960 146.3280
L105.3760 146.3280
" />
<path d="M115.0960 149.3280
L115.0960 146.3280
" />
<path d="M94.9620 146.3280
L94.9620 149.3280
" />
<path d="M94.9620 149.3280
L104.6820 149.3280
" />
<path d="M104.6820 146.3280
L94.9620 146.3280
" />
<path d="M104.6820 149.3280
L104.6820 146.3280
" />
<path d="M95.2200 127.9400
L95.2200 130.9400
" />
<path d="M95.2200 130.9400
L104.9400 130.9400
" />
<path d="M104.9400 127.9400
L95.2200 127.9400
" />
<path d="M104.9400 130.9400
L104.9400 127.9400
" />
<path d="M103.8000 51.7900
L100.8000 51.7900
" />
<path d="M100.8000 51.7900
L100.8000 61.5100
" />
<path d="M103.8000 61.5100
L103.8000 51.7900
" />
<path d="M100.8000 61.5100
L103.8000 61.5100
" />
<path d="M64.6700 125.4900
L77.4900 125.4900
" />
<path d="M77.4900 125.4900
L77.4900 111.7400
" />
<path d="M64.6700 111.7400
L64.6700 125.4900
" />
<path d="M77.4900 111.7400
L64.6700 111.7400
" />
<path d="M64.6700 64.5300
L77.4900 64.5300
" />
<path d="M77.4900 64.5300
L77.4900 50.7800
" />
<path d="M64.6700 50.7800
L64.6700 64.5300
" />
<path d="M77.4900 50.7800
L64.6700 50.7800
" />
<path d="M84.9900 64.5300
L97.8100 64.5300
" />
<path d="M97.8100 64.5300
L97.8100 50.7800
" />
<path d="M84.9900 50.7800
L84.9900 64.5300
" />
<path d="M97.8100 50.7800
L84.9900 50.7800
" />
<path d="M84.9900 105.1700
L97.8100 105.1700
" />
<path d="M97.8100 105.1700
L97.8100 91.4200
" />
<path d="M84.9900 91.4200
L84.9900 105.1700
" />
<path d="M97.8100 91.4200
L84.9900 91.4200
" />
<path d="M64.6700 145.8100
L77.4900 145.8100
" />
<path d="M77.4900 145.8100
L77.4900 132.0600
" />
<path d="M64.6700 132.0600
L64.6700 145.8100
" />
<path d="M77.4900 132.0600
L64.6700 132.0600
" />
<path d="M84.9900 125.4900
L97.8100 125.4900
" />
<path d="M97.8100 125.4900
L97.8100 111.7400
" />
<path d="M84.9900 111.7400
L84.9900 125.4900
" />
<path d="M97.8100 111.7400
L84.9900 111.7400
" />
<path d="M84.9900 145.8100
L97.8100 145.8100
" />
<path d="M97.8100 145.8100
L97.8100 132.0600
" />
<path d="M84.9900 132.0600
L84.9900 145.8100
" />
<path d="M97.8100 132.0600
L84.9900 132.0600
" />
<circle cx="43.1800" cy="43.1800" r="2.4500" /> 
<circle cx="43.1800" cy="149.8600" r="2.4500" /> 
<circle cx="119.0000" cy="43.1800" r="2.4500" /> 
<circle cx="119.0000" cy="149.8600" r="2.4500" /> 
<g >
</g>
<g >
</g>
<g >
</g>
<g >
</g>
<g >
</g>
<g >
</g>
<g >
</g>
<g >
</g>
<g >
</g>
<g >
</g>
<g >
</g>
<g >
</g>
<g >
</g>
<g >
</g>
<g >
</g>
<g >
</g>
<g >
</g>
<g >
</g>
<g >
</g>
<g >
</g>
<g >
</g>
<g >
</g>
<g >
</g>
<g >
</g>
<g >
</g>
<g >
</g>
<g >
</g>
<g >
</g>
<g >
</g>
<g >
</g>
<g >
</g>
<g >
</g>
<g >
</g>
<g >
</g>
<g >
</g>
<g >
</g>
<g >
</g>
<g >
</g>
<g >
</g>
<g >
</g>
</g> 
</svg>
