<?xml version="1.0" standalone="no"?>
 <!DOCTYPE svg PUBLIC "-//W3C//DTD SVG 1.1//EN" 
 "http://www.w3.org/Graphics/SVG/1.1/DTD/svg11.dtd"> 
<svg
  xmlns:svg="http://www.w3.org/2000/svg"
  xmlns="http://www.w3.org/2000/svg"
  xmlns:xlink="http://www.w3.org/1999/xlink"
  version="1.1"
  width="297.0022mm" height="210.0072mm" viewBox="0.0000 0.0000 297.0022 210.0072">
<title>SVG Image created as mount-Cmts_User.svg date 2023/11/08 17:25:24 </title>
  <desc>Image generated by PCBNEW </desc>
<g style="fill:#000000; fill-opacity:1.0000;stroke:#000000; stroke-opacity:1.0000;
stroke-linecap:round; stroke-linejoin:round;"
 transform="translate(0 0) scale(1 1)">
</g>
<g style="fill:#000000; fill-opacity:0.0; 
stroke:#000000; stroke-width:0.0000; stroke-opacity:1; 
stroke-linecap:round; stroke-linejoin:round;">
</g>
<g style="fill:#000000; fill-opacity:0.0; 
stroke:#000000; stroke-width:0.0510; stroke-opacity:1; 
stroke-linecap:round; stroke-linejoin:round;">
<text x="50.8000" y="55.9200"
textLength="2.7397" font-size="0.5333" lengthAdjust="spacingAndGlyphs"
text-anchor="middle" opacity="0">KEEPOUT</text>
<g class="stroked-text"><desc>KEEPOUT</desc>
<path d="M49.5619 55.9024
L49.5619 55.5024
" />
<path d="M49.7905 55.9024
L49.6190 55.6738
" />
<path d="M49.7905 55.5024
L49.5619 55.7310
" />
<path d="M49.9619 55.6929
L50.0952 55.6929
" />
<path d="M50.1524 55.9024
L49.9619 55.9024
" />
<path d="M49.9619 55.9024
L49.9619 55.5024
" />
<path d="M49.9619 55.5024
L50.1524 55.5024
" />
<path d="M50.3238 55.6929
L50.4571 55.6929
" />
<path d="M50.5143 55.9024
L50.3238 55.9024
" />
<path d="M50.3238 55.9024
L50.3238 55.5024
" />
<path d="M50.3238 55.5024
L50.5143 55.5024
" />
<path d="M50.6857 55.9024
L50.6857 55.5024
" />
<path d="M50.6857 55.5024
L50.8381 55.5024
" />
<path d="M50.8381 55.5024
L50.8762 55.5214
" />
<path d="M50.8762 55.5214
L50.8952 55.5405
" />
<path d="M50.8952 55.5405
L50.9143 55.5786
" />
<path d="M50.9143 55.5786
L50.9143 55.6357
" />
<path d="M50.9143 55.6357
L50.8952 55.6738
" />
<path d="M50.8952 55.6738
L50.8762 55.6929
" />
<path d="M50.8762 55.6929
L50.8381 55.7119
" />
<path d="M50.8381 55.7119
L50.6857 55.7119
" />
<path d="M51.1619 55.5024
L51.2381 55.5024
" />
<path d="M51.2381 55.5024
L51.2762 55.5214
" />
<path d="M51.2762 55.5214
L51.3143 55.5595
" />
<path d="M51.3143 55.5595
L51.3333 55.6357
" />
<path d="M51.3333 55.6357
L51.3333 55.7691
" />
<path d="M51.3333 55.7691
L51.3143 55.8453
" />
<path d="M51.3143 55.8453
L51.2762 55.8833
" />
<path d="M51.2762 55.8833
L51.2381 55.9024
" />
<path d="M51.2381 55.9024
L51.1619 55.9024
" />
<path d="M51.1619 55.9024
L51.1238 55.8833
" />
<path d="M51.1238 55.8833
L51.0857 55.8453
" />
<path d="M51.0857 55.8453
L51.0667 55.7691
" />
<path d="M51.0667 55.7691
L51.0667 55.6357
" />
<path d="M51.0667 55.6357
L51.0857 55.5595
" />
<path d="M51.0857 55.5595
L51.1238 55.5214
" />
<path d="M51.1238 55.5214
L51.1619 55.5024
" />
<path d="M51.5048 55.5024
L51.5048 55.8262
" />
<path d="M51.5048 55.8262
L51.5238 55.8643
" />
<path d="M51.5238 55.8643
L51.5429 55.8833
" />
<path d="M51.5429 55.8833
L51.5810 55.9024
" />
<path d="M51.5810 55.9024
L51.6571 55.9024
" />
<path d="M51.6571 55.9024
L51.6952 55.8833
" />
<path d="M51.6952 55.8833
L51.7143 55.8643
" />
<path d="M51.7143 55.8643
L51.7333 55.8262
" />
<path d="M51.7333 55.8262
L51.7333 55.5024
" />
<path d="M51.8667 55.5024
L52.0952 55.5024
" />
<path d="M51.9810 55.9024
L51.9810 55.5024
" />
</g><text x="50.8000" y="117.0400"
textLength="2.7397" font-size="0.5333" lengthAdjust="spacingAndGlyphs"
text-anchor="middle" opacity="0">KEEPOUT</text>
<g class="stroked-text"><desc>KEEPOUT</desc>
<path d="M49.5619 117.0224
L49.5619 116.6224
" />
<path d="M49.7905 117.0224
L49.6190 116.7938
" />
<path d="M49.7905 116.6224
L49.5619 116.8510
" />
<path d="M49.9619 116.8129
L50.0952 116.8129
" />
<path d="M50.1524 117.0224
L49.9619 117.0224
" />
<path d="M49.9619 117.0224
L49.9619 116.6224
" />
<path d="M49.9619 116.6224
L50.1524 116.6224
" />
<path d="M50.3238 116.8129
L50.4571 116.8129
" />
<path d="M50.5143 117.0224
L50.3238 117.0224
" />
<path d="M50.3238 117.0224
L50.3238 116.6224
" />
<path d="M50.3238 116.6224
L50.5143 116.6224
" />
<path d="M50.6857 117.0224
L50.6857 116.6224
" />
<path d="M50.6857 116.6224
L50.8381 116.6224
" />
<path d="M50.8381 116.6224
L50.8762 116.6414
" />
<path d="M50.8762 116.6414
L50.8952 116.6605
" />
<path d="M50.8952 116.6605
L50.9143 116.6986
" />
<path d="M50.9143 116.6986
L50.9143 116.7557
" />
<path d="M50.9143 116.7557
L50.8952 116.7938
" />
<path d="M50.8952 116.7938
L50.8762 116.8129
" />
<path d="M50.8762 116.8129
L50.8381 116.8319
" />
<path d="M50.8381 116.8319
L50.6857 116.8319
" />
<path d="M51.1619 116.6224
L51.2381 116.6224
" />
<path d="M51.2381 116.6224
L51.2762 116.6414
" />
<path d="M51.2762 116.6414
L51.3143 116.6795
" />
<path d="M51.3143 116.6795
L51.3333 116.7557
" />
<path d="M51.3333 116.7557
L51.3333 116.8891
" />
<path d="M51.3333 116.8891
L51.3143 116.9653
" />
<path d="M51.3143 116.9653
L51.2762 117.0033
" />
<path d="M51.2762 117.0033
L51.2381 117.0224
" />
<path d="M51.2381 117.0224
L51.1619 117.0224
" />
<path d="M51.1619 117.0224
L51.1238 117.0033
" />
<path d="M51.1238 117.0033
L51.0857 116.9653
" />
<path d="M51.0857 116.9653
L51.0667 116.8891
" />
<path d="M51.0667 116.8891
L51.0667 116.7557
" />
<path d="M51.0667 116.7557
L51.0857 116.6795
" />
<path d="M51.0857 116.6795
L51.1238 116.6414
" />
<path d="M51.1238 116.6414
L51.1619 116.6224
" />
<path d="M51.5048 116.6224
L51.5048 116.9462
" />
<path d="M51.5048 116.9462
L51.5238 116.9843
" />
<path d="M51.5238 116.9843
L51.5429 117.0033
" />
<path d="M51.5429 117.0033
L51.5810 117.0224
" />
<path d="M51.5810 117.0224
L51.6571 117.0224
" />
<path d="M51.6571 117.0224
L51.6952 117.0033
" />
<path d="M51.6952 117.0033
L51.7143 116.9843
" />
<path d="M51.7143 116.9843
L51.7333 116.9462
" />
<path d="M51.7333 116.9462
L51.7333 116.6224
" />
<path d="M51.8667 116.6224
L52.0952 116.6224
" />
<path d="M51.9810 117.0224
L51.9810 116.6224
" />
</g><text x="50.8000" y="96.7200"
textLength="2.7397" font-size="0.5333" lengthAdjust="spacingAndGlyphs"
text-anchor="middle" opacity="0">KEEPOUT</text>
<g class="stroked-text"><desc>KEEPOUT</desc>
<path d="M49.5619 96.7024
L49.5619 96.3024
" />
<path d="M49.7905 96.7024
L49.6190 96.4738
" />
<path d="M49.7905 96.3024
L49.5619 96.5310
" />
<path d="M49.9619 96.4929
L50.0952 96.4929
" />
<path d="M50.1524 96.7024
L49.9619 96.7024
" />
<path d="M49.9619 96.7024
L49.9619 96.3024
" />
<path d="M49.9619 96.3024
L50.1524 96.3024
" />
<path d="M50.3238 96.4929
L50.4571 96.4929
" />
<path d="M50.5143 96.7024
L50.3238 96.7024
" />
<path d="M50.3238 96.7024
L50.3238 96.3024
" />
<path d="M50.3238 96.3024
L50.5143 96.3024
" />
<path d="M50.6857 96.7024
L50.6857 96.3024
" />
<path d="M50.6857 96.3024
L50.8381 96.3024
" />
<path d="M50.8381 96.3024
L50.8762 96.3214
" />
<path d="M50.8762 96.3214
L50.8952 96.3405
" />
<path d="M50.8952 96.3405
L50.9143 96.3786
" />
<path d="M50.9143 96.3786
L50.9143 96.4357
" />
<path d="M50.9143 96.4357
L50.8952 96.4738
" />
<path d="M50.8952 96.4738
L50.8762 96.4929
" />
<path d="M50.8762 96.4929
L50.8381 96.5119
" />
<path d="M50.8381 96.5119
L50.6857 96.5119
" />
<path d="M51.1619 96.3024
L51.2381 96.3024
" />
<path d="M51.2381 96.3024
L51.2762 96.3214
" />
<path d="M51.2762 96.3214
L51.3143 96.3595
" />
<path d="M51.3143 96.3595
L51.3333 96.4357
" />
<path d="M51.3333 96.4357
L51.3333 96.5691
" />
<path d="M51.3333 96.5691
L51.3143 96.6453
" />
<path d="M51.3143 96.6453
L51.2762 96.6833
" />
<path d="M51.2762 96.6833
L51.2381 96.7024
" />
<path d="M51.2381 96.7024
L51.1619 96.7024
" />
<path d="M51.1619 96.7024
L51.1238 96.6833
" />
<path d="M51.1238 96.6833
L51.0857 96.6453
" />
<path d="M51.0857 96.6453
L51.0667 96.5691
" />
<path d="M51.0667 96.5691
L51.0667 96.4357
" />
<path d="M51.0667 96.4357
L51.0857 96.3595
" />
<path d="M51.0857 96.3595
L51.1238 96.3214
" />
<path d="M51.1238 96.3214
L51.1619 96.3024
" />
<path d="M51.5048 96.3024
L51.5048 96.6262
" />
<path d="M51.5048 96.6262
L51.5238 96.6643
" />
<path d="M51.5238 96.6643
L51.5429 96.6833
" />
<path d="M51.5429 96.6833
L51.5810 96.7024
" />
<path d="M51.5810 96.7024
L51.6571 96.7024
" />
<path d="M51.6571 96.7024
L51.6952 96.6833
" />
<path d="M51.6952 96.6833
L51.7143 96.6643
" />
<path d="M51.7143 96.6643
L51.7333 96.6262
" />
<path d="M51.7333 96.6262
L51.7333 96.3024
" />
<path d="M51.8667 96.3024
L52.0952 96.3024
" />
<path d="M51.9810 96.7024
L51.9810 96.3024
" />
</g><text x="50.8000" y="76.4000"
textLength="2.7397" font-size="0.5333" lengthAdjust="spacingAndGlyphs"
text-anchor="middle" opacity="0">KEEPOUT</text>
<g class="stroked-text"><desc>KEEPOUT</desc>
<path d="M49.5619 76.3824
L49.5619 75.9824
" />
<path d="M49.7905 76.3824
L49.6190 76.1538
" />
<path d="M49.7905 75.9824
L49.5619 76.2110
" />
<path d="M49.9619 76.1729
L50.0952 76.1729
" />
<path d="M50.1524 76.3824
L49.9619 76.3824
" />
<path d="M49.9619 76.3824
L49.9619 75.9824
" />
<path d="M49.9619 75.9824
L50.1524 75.9824
" />
<path d="M50.3238 76.1729
L50.4571 76.1729
" />
<path d="M50.5143 76.3824
L50.3238 76.3824
" />
<path d="M50.3238 76.3824
L50.3238 75.9824
" />
<path d="M50.3238 75.9824
L50.5143 75.9824
" />
<path d="M50.6857 76.3824
L50.6857 75.9824
" />
<path d="M50.6857 75.9824
L50.8381 75.9824
" />
<path d="M50.8381 75.9824
L50.8762 76.0014
" />
<path d="M50.8762 76.0014
L50.8952 76.0205
" />
<path d="M50.8952 76.0205
L50.9143 76.0586
" />
<path d="M50.9143 76.0586
L50.9143 76.1157
" />
<path d="M50.9143 76.1157
L50.8952 76.1538
" />
<path d="M50.8952 76.1538
L50.8762 76.1729
" />
<path d="M50.8762 76.1729
L50.8381 76.1919
" />
<path d="M50.8381 76.1919
L50.6857 76.1919
" />
<path d="M51.1619 75.9824
L51.2381 75.9824
" />
<path d="M51.2381 75.9824
L51.2762 76.0014
" />
<path d="M51.2762 76.0014
L51.3143 76.0395
" />
<path d="M51.3143 76.0395
L51.3333 76.1157
" />
<path d="M51.3333 76.1157
L51.3333 76.2491
" />
<path d="M51.3333 76.2491
L51.3143 76.3253
" />
<path d="M51.3143 76.3253
L51.2762 76.3633
" />
<path d="M51.2762 76.3633
L51.2381 76.3824
" />
<path d="M51.2381 76.3824
L51.1619 76.3824
" />
<path d="M51.1619 76.3824
L51.1238 76.3633
" />
<path d="M51.1238 76.3633
L51.0857 76.3253
" />
<path d="M51.0857 76.3253
L51.0667 76.2491
" />
<path d="M51.0667 76.2491
L51.0667 76.1157
" />
<path d="M51.0667 76.1157
L51.0857 76.0395
" />
<path d="M51.0857 76.0395
L51.1238 76.0014
" />
<path d="M51.1238 76.0014
L51.1619 75.9824
" />
<path d="M51.5048 75.9824
L51.5048 76.3062
" />
<path d="M51.5048 76.3062
L51.5238 76.3443
" />
<path d="M51.5238 76.3443
L51.5429 76.3633
" />
<path d="M51.5429 76.3633
L51.5810 76.3824
" />
<path d="M51.5810 76.3824
L51.6571 76.3824
" />
<path d="M51.6571 76.3824
L51.6952 76.3633
" />
<path d="M51.6952 76.3633
L51.7143 76.3443
" />
<path d="M51.7143 76.3443
L51.7333 76.3062
" />
<path d="M51.7333 76.3062
L51.7333 75.9824
" />
<path d="M51.8667 75.9824
L52.0952 75.9824
" />
<path d="M51.9810 76.3824
L51.9810 75.9824
" />
</g><text x="50.8000" y="137.3600"
textLength="2.7397" font-size="0.5333" lengthAdjust="spacingAndGlyphs"
text-anchor="middle" opacity="0">KEEPOUT</text>
<g class="stroked-text"><desc>KEEPOUT</desc>
<path d="M49.5619 137.3424
L49.5619 136.9424
" />
<path d="M49.7905 137.3424
L49.6190 137.1138
" />
<path d="M49.7905 136.9424
L49.5619 137.1710
" />
<path d="M49.9619 137.1329
L50.0952 137.1329
" />
<path d="M50.1524 137.3424
L49.9619 137.3424
" />
<path d="M49.9619 137.3424
L49.9619 136.9424
" />
<path d="M49.9619 136.9424
L50.1524 136.9424
" />
<path d="M50.3238 137.1329
L50.4571 137.1329
" />
<path d="M50.5143 137.3424
L50.3238 137.3424
" />
<path d="M50.3238 137.3424
L50.3238 136.9424
" />
<path d="M50.3238 136.9424
L50.5143 136.9424
" />
<path d="M50.6857 137.3424
L50.6857 136.9424
" />
<path d="M50.6857 136.9424
L50.8381 136.9424
" />
<path d="M50.8381 136.9424
L50.8762 136.9614
" />
<path d="M50.8762 136.9614
L50.8952 136.9805
" />
<path d="M50.8952 136.9805
L50.9143 137.0186
" />
<path d="M50.9143 137.0186
L50.9143 137.0757
" />
<path d="M50.9143 137.0757
L50.8952 137.1138
" />
<path d="M50.8952 137.1138
L50.8762 137.1329
" />
<path d="M50.8762 137.1329
L50.8381 137.1519
" />
<path d="M50.8381 137.1519
L50.6857 137.1519
" />
<path d="M51.1619 136.9424
L51.2381 136.9424
" />
<path d="M51.2381 136.9424
L51.2762 136.9614
" />
<path d="M51.2762 136.9614
L51.3143 136.9995
" />
<path d="M51.3143 136.9995
L51.3333 137.0757
" />
<path d="M51.3333 137.0757
L51.3333 137.2091
" />
<path d="M51.3333 137.2091
L51.3143 137.2853
" />
<path d="M51.3143 137.2853
L51.2762 137.3233
" />
<path d="M51.2762 137.3233
L51.2381 137.3424
" />
<path d="M51.2381 137.3424
L51.1619 137.3424
" />
<path d="M51.1619 137.3424
L51.1238 137.3233
" />
<path d="M51.1238 137.3233
L51.0857 137.2853
" />
<path d="M51.0857 137.2853
L51.0667 137.2091
" />
<path d="M51.0667 137.2091
L51.0667 137.0757
" />
<path d="M51.0667 137.0757
L51.0857 136.9995
" />
<path d="M51.0857 136.9995
L51.1238 136.9614
" />
<path d="M51.1238 136.9614
L51.1619 136.9424
" />
<path d="M51.5048 136.9424
L51.5048 137.2662
" />
<path d="M51.5048 137.2662
L51.5238 137.3043
" />
<path d="M51.5238 137.3043
L51.5429 137.3233
" />
<path d="M51.5429 137.3233
L51.5810 137.3424
" />
<path d="M51.5810 137.3424
L51.6571 137.3424
" />
<path d="M51.6571 137.3424
L51.6952 137.3233
" />
<path d="M51.6952 137.3233
L51.7143 137.3043
" />
<path d="M51.7143 137.3043
L51.7333 137.2662
" />
<path d="M51.7333 137.2662
L51.7333 136.9424
" />
<path d="M51.8667 136.9424
L52.0952 136.9424
" />
<path d="M51.9810 137.3424
L51.9810 136.9424
" />
</g><text x="111.7600" y="96.7200"
textLength="2.7397" font-size="0.5333" lengthAdjust="spacingAndGlyphs"
text-anchor="middle" opacity="0">KEEPOUT</text>
<g class="stroked-text"><desc>KEEPOUT</desc>
<path d="M110.5219 96.7024
L110.5219 96.3024
" />
<path d="M110.7505 96.7024
L110.5790 96.4738
" />
<path d="M110.7505 96.3024
L110.5219 96.5310
" />
<path d="M110.9219 96.4929
L111.0552 96.4929
" />
<path d="M111.1124 96.7024
L110.9219 96.7024
" />
<path d="M110.9219 96.7024
L110.9219 96.3024
" />
<path d="M110.9219 96.3024
L111.1124 96.3024
" />
<path d="M111.2838 96.4929
L111.4171 96.4929
" />
<path d="M111.4743 96.7024
L111.2838 96.7024
" />
<path d="M111.2838 96.7024
L111.2838 96.3024
" />
<path d="M111.2838 96.3024
L111.4743 96.3024
" />
<path d="M111.6457 96.7024
L111.6457 96.3024
" />
<path d="M111.6457 96.3024
L111.7981 96.3024
" />
<path d="M111.7981 96.3024
L111.8362 96.3214
" />
<path d="M111.8362 96.3214
L111.8552 96.3405
" />
<path d="M111.8552 96.3405
L111.8743 96.3786
" />
<path d="M111.8743 96.3786
L111.8743 96.4357
" />
<path d="M111.8743 96.4357
L111.8552 96.4738
" />
<path d="M111.8552 96.4738
L111.8362 96.4929
" />
<path d="M111.8362 96.4929
L111.7981 96.5119
" />
<path d="M111.7981 96.5119
L111.6457 96.5119
" />
<path d="M112.1219 96.3024
L112.1981 96.3024
" />
<path d="M112.1981 96.3024
L112.2362 96.3214
" />
<path d="M112.2362 96.3214
L112.2743 96.3595
" />
<path d="M112.2743 96.3595
L112.2933 96.4357
" />
<path d="M112.2933 96.4357
L112.2933 96.5691
" />
<path d="M112.2933 96.5691
L112.2743 96.6453
" />
<path d="M112.2743 96.6453
L112.2362 96.6833
" />
<path d="M112.2362 96.6833
L112.1981 96.7024
" />
<path d="M112.1981 96.7024
L112.1219 96.7024
" />
<path d="M112.1219 96.7024
L112.0838 96.6833
" />
<path d="M112.0838 96.6833
L112.0457 96.6453
" />
<path d="M112.0457 96.6453
L112.0267 96.5691
" />
<path d="M112.0267 96.5691
L112.0267 96.4357
" />
<path d="M112.0267 96.4357
L112.0457 96.3595
" />
<path d="M112.0457 96.3595
L112.0838 96.3214
" />
<path d="M112.0838 96.3214
L112.1219 96.3024
" />
<path d="M112.4648 96.3024
L112.4648 96.6262
" />
<path d="M112.4648 96.6262
L112.4838 96.6643
" />
<path d="M112.4838 96.6643
L112.5029 96.6833
" />
<path d="M112.5029 96.6833
L112.5410 96.7024
" />
<path d="M112.5410 96.7024
L112.6171 96.7024
" />
<path d="M112.6171 96.7024
L112.6552 96.6833
" />
<path d="M112.6552 96.6833
L112.6743 96.6643
" />
<path d="M112.6743 96.6643
L112.6933 96.6262
" />
<path d="M112.6933 96.6262
L112.6933 96.3024
" />
<path d="M112.8267 96.3024
L113.0552 96.3024
" />
<path d="M112.9410 96.7024
L112.9410 96.3024
" />
</g><text x="111.7600" y="76.4000"
textLength="2.7397" font-size="0.5333" lengthAdjust="spacingAndGlyphs"
text-anchor="middle" opacity="0">KEEPOUT</text>
<g class="stroked-text"><desc>KEEPOUT</desc>
<path d="M110.5219 76.3824
L110.5219 75.9824
" />
<path d="M110.7505 76.3824
L110.5790 76.1538
" />
<path d="M110.7505 75.9824
L110.5219 76.2110
" />
<path d="M110.9219 76.1729
L111.0552 76.1729
" />
<path d="M111.1124 76.3824
L110.9219 76.3824
" />
<path d="M110.9219 76.3824
L110.9219 75.9824
" />
<path d="M110.9219 75.9824
L111.1124 75.9824
" />
<path d="M111.2838 76.1729
L111.4171 76.1729
" />
<path d="M111.4743 76.3824
L111.2838 76.3824
" />
<path d="M111.2838 76.3824
L111.2838 75.9824
" />
<path d="M111.2838 75.9824
L111.4743 75.9824
" />
<path d="M111.6457 76.3824
L111.6457 75.9824
" />
<path d="M111.6457 75.9824
L111.7981 75.9824
" />
<path d="M111.7981 75.9824
L111.8362 76.0014
" />
<path d="M111.8362 76.0014
L111.8552 76.0205
" />
<path d="M111.8552 76.0205
L111.8743 76.0586
" />
<path d="M111.8743 76.0586
L111.8743 76.1157
" />
<path d="M111.8743 76.1157
L111.8552 76.1538
" />
<path d="M111.8552 76.1538
L111.8362 76.1729
" />
<path d="M111.8362 76.1729
L111.7981 76.1919
" />
<path d="M111.7981 76.1919
L111.6457 76.1919
" />
<path d="M112.1219 75.9824
L112.1981 75.9824
" />
<path d="M112.1981 75.9824
L112.2362 76.0014
" />
<path d="M112.2362 76.0014
L112.2743 76.0395
" />
<path d="M112.2743 76.0395
L112.2933 76.1157
" />
<path d="M112.2933 76.1157
L112.2933 76.2491
" />
<path d="M112.2933 76.2491
L112.2743 76.3253
" />
<path d="M112.2743 76.3253
L112.2362 76.3633
" />
<path d="M112.2362 76.3633
L112.1981 76.3824
" />
<path d="M112.1981 76.3824
L112.1219 76.3824
" />
<path d="M112.1219 76.3824
L112.0838 76.3633
" />
<path d="M112.0838 76.3633
L112.0457 76.3253
" />
<path d="M112.0457 76.3253
L112.0267 76.2491
" />
<path d="M112.0267 76.2491
L112.0267 76.1157
" />
<path d="M112.0267 76.1157
L112.0457 76.0395
" />
<path d="M112.0457 76.0395
L112.0838 76.0014
" />
<path d="M112.0838 76.0014
L112.1219 75.9824
" />
<path d="M112.4648 75.9824
L112.4648 76.3062
" />
<path d="M112.4648 76.3062
L112.4838 76.3443
" />
<path d="M112.4838 76.3443
L112.5029 76.3633
" />
<path d="M112.5029 76.3633
L112.5410 76.3824
" />
<path d="M112.5410 76.3824
L112.6171 76.3824
" />
<path d="M112.6171 76.3824
L112.6552 76.3633
" />
<path d="M112.6552 76.3633
L112.6743 76.3443
" />
<path d="M112.6743 76.3443
L112.6933 76.3062
" />
<path d="M112.6933 76.3062
L112.6933 75.9824
" />
<path d="M112.8267 75.9824
L113.0552 75.9824
" />
<path d="M112.9410 76.3824
L112.9410 75.9824
" />
</g><text x="111.7600" y="117.0400"
textLength="2.7397" font-size="0.5333" lengthAdjust="spacingAndGlyphs"
text-anchor="middle" opacity="0">KEEPOUT</text>
<g class="stroked-text"><desc>KEEPOUT</desc>
<path d="M110.5219 117.0224
L110.5219 116.6224
" />
<path d="M110.7505 117.0224
L110.5790 116.7938
" />
<path d="M110.7505 116.6224
L110.5219 116.8510
" />
<path d="M110.9219 116.8129
L111.0552 116.8129
" />
<path d="M111.1124 117.0224
L110.9219 117.0224
" />
<path d="M110.9219 117.0224
L110.9219 116.6224
" />
<path d="M110.9219 116.6224
L111.1124 116.6224
" />
<path d="M111.2838 116.8129
L111.4171 116.8129
" />
<path d="M111.4743 117.0224
L111.2838 117.0224
" />
<path d="M111.2838 117.0224
L111.2838 116.6224
" />
<path d="M111.2838 116.6224
L111.4743 116.6224
" />
<path d="M111.6457 117.0224
L111.6457 116.6224
" />
<path d="M111.6457 116.6224
L111.7981 116.6224
" />
<path d="M111.7981 116.6224
L111.8362 116.6414
" />
<path d="M111.8362 116.6414
L111.8552 116.6605
" />
<path d="M111.8552 116.6605
L111.8743 116.6986
" />
<path d="M111.8743 116.6986
L111.8743 116.7557
" />
<path d="M111.8743 116.7557
L111.8552 116.7938
" />
<path d="M111.8552 116.7938
L111.8362 116.8129
" />
<path d="M111.8362 116.8129
L111.7981 116.8319
" />
<path d="M111.7981 116.8319
L111.6457 116.8319
" />
<path d="M112.1219 116.6224
L112.1981 116.6224
" />
<path d="M112.1981 116.6224
L112.2362 116.6414
" />
<path d="M112.2362 116.6414
L112.2743 116.6795
" />
<path d="M112.2743 116.6795
L112.2933 116.7557
" />
<path d="M112.2933 116.7557
L112.2933 116.8891
" />
<path d="M112.2933 116.8891
L112.2743 116.9653
" />
<path d="M112.2743 116.9653
L112.2362 117.0033
" />
<path d="M112.2362 117.0033
L112.1981 117.0224
" />
<path d="M112.1981 117.0224
L112.1219 117.0224
" />
<path d="M112.1219 117.0224
L112.0838 117.0033
" />
<path d="M112.0838 117.0033
L112.0457 116.9653
" />
<path d="M112.0457 116.9653
L112.0267 116.8891
" />
<path d="M112.0267 116.8891
L112.0267 116.7557
" />
<path d="M112.0267 116.7557
L112.0457 116.6795
" />
<path d="M112.0457 116.6795
L112.0838 116.6414
" />
<path d="M112.0838 116.6414
L112.1219 116.6224
" />
<path d="M112.4648 116.6224
L112.4648 116.9462
" />
<path d="M112.4648 116.9462
L112.4838 116.9843
" />
<path d="M112.4838 116.9843
L112.5029 117.0033
" />
<path d="M112.5029 117.0033
L112.5410 117.0224
" />
<path d="M112.5410 117.0224
L112.6171 117.0224
" />
<path d="M112.6171 117.0224
L112.6552 117.0033
" />
<path d="M112.6552 117.0033
L112.6743 116.9843
" />
<path d="M112.6743 116.9843
L112.6933 116.9462
" />
<path d="M112.6933 116.9462
L112.6933 116.6224
" />
<path d="M112.8267 116.6224
L113.0552 116.6224
" />
<path d="M112.9410 117.0224
L112.9410 116.6224
" />
</g><text x="111.7600" y="56.0800"
textLength="2.7397" font-size="0.5333" lengthAdjust="spacingAndGlyphs"
text-anchor="middle" opacity="0">KEEPOUT</text>
<g class="stroked-text"><desc>KEEPOUT</desc>
<path d="M110.5219 56.0624
L110.5219 55.6624
" />
<path d="M110.7505 56.0624
L110.5790 55.8338
" />
<path d="M110.7505 55.6624
L110.5219 55.8910
" />
<path d="M110.9219 55.8529
L111.0552 55.8529
" />
<path d="M111.1124 56.0624
L110.9219 56.0624
" />
<path d="M110.9219 56.0624
L110.9219 55.6624
" />
<path d="M110.9219 55.6624
L111.1124 55.6624
" />
<path d="M111.2838 55.8529
L111.4171 55.8529
" />
<path d="M111.4743 56.0624
L111.2838 56.0624
" />
<path d="M111.2838 56.0624
L111.2838 55.6624
" />
<path d="M111.2838 55.6624
L111.4743 55.6624
" />
<path d="M111.6457 56.0624
L111.6457 55.6624
" />
<path d="M111.6457 55.6624
L111.7981 55.6624
" />
<path d="M111.7981 55.6624
L111.8362 55.6814
" />
<path d="M111.8362 55.6814
L111.8552 55.7005
" />
<path d="M111.8552 55.7005
L111.8743 55.7386
" />
<path d="M111.8743 55.7386
L111.8743 55.7957
" />
<path d="M111.8743 55.7957
L111.8552 55.8338
" />
<path d="M111.8552 55.8338
L111.8362 55.8529
" />
<path d="M111.8362 55.8529
L111.7981 55.8719
" />
<path d="M111.7981 55.8719
L111.6457 55.8719
" />
<path d="M112.1219 55.6624
L112.1981 55.6624
" />
<path d="M112.1981 55.6624
L112.2362 55.6814
" />
<path d="M112.2362 55.6814
L112.2743 55.7195
" />
<path d="M112.2743 55.7195
L112.2933 55.7957
" />
<path d="M112.2933 55.7957
L112.2933 55.9291
" />
<path d="M112.2933 55.9291
L112.2743 56.0053
" />
<path d="M112.2743 56.0053
L112.2362 56.0433
" />
<path d="M112.2362 56.0433
L112.1981 56.0624
" />
<path d="M112.1981 56.0624
L112.1219 56.0624
" />
<path d="M112.1219 56.0624
L112.0838 56.0433
" />
<path d="M112.0838 56.0433
L112.0457 56.0053
" />
<path d="M112.0457 56.0053
L112.0267 55.9291
" />
<path d="M112.0267 55.9291
L112.0267 55.7957
" />
<path d="M112.0267 55.7957
L112.0457 55.7195
" />
<path d="M112.0457 55.7195
L112.0838 55.6814
" />
<path d="M112.0838 55.6814
L112.1219 55.6624
" />
<path d="M112.4648 55.6624
L112.4648 55.9862
" />
<path d="M112.4648 55.9862
L112.4838 56.0243
" />
<path d="M112.4838 56.0243
L112.5029 56.0433
" />
<path d="M112.5029 56.0433
L112.5410 56.0624
" />
<path d="M112.5410 56.0624
L112.6171 56.0624
" />
<path d="M112.6171 56.0624
L112.6552 56.0433
" />
<path d="M112.6552 56.0433
L112.6743 56.0243
" />
<path d="M112.6743 56.0243
L112.6933 55.9862
" />
<path d="M112.6933 55.9862
L112.6933 55.6624
" />
<path d="M112.8267 55.6624
L113.0552 55.6624
" />
<path d="M112.9410 56.0624
L112.9410 55.6624
" />
</g><text x="111.7600" y="137.3600"
textLength="2.7397" font-size="0.5333" lengthAdjust="spacingAndGlyphs"
text-anchor="middle" opacity="0">KEEPOUT</text>
<g class="stroked-text"><desc>KEEPOUT</desc>
<path d="M110.5219 137.3424
L110.5219 136.9424
" />
<path d="M110.7505 137.3424
L110.5790 137.1138
" />
<path d="M110.7505 136.9424
L110.5219 137.1710
" />
<path d="M110.9219 137.1329
L111.0552 137.1329
" />
<path d="M111.1124 137.3424
L110.9219 137.3424
" />
<path d="M110.9219 137.3424
L110.9219 136.9424
" />
<path d="M110.9219 136.9424
L111.1124 136.9424
" />
<path d="M111.2838 137.1329
L111.4171 137.1329
" />
<path d="M111.4743 137.3424
L111.2838 137.3424
" />
<path d="M111.2838 137.3424
L111.2838 136.9424
" />
<path d="M111.2838 136.9424
L111.4743 136.9424
" />
<path d="M111.6457 137.3424
L111.6457 136.9424
" />
<path d="M111.6457 136.9424
L111.7981 136.9424
" />
<path d="M111.7981 136.9424
L111.8362 136.9614
" />
<path d="M111.8362 136.9614
L111.8552 136.9805
" />
<path d="M111.8552 136.9805
L111.8743 137.0186
" />
<path d="M111.8743 137.0186
L111.8743 137.0757
" />
<path d="M111.8743 137.0757
L111.8552 137.1138
" />
<path d="M111.8552 137.1138
L111.8362 137.1329
" />
<path d="M111.8362 137.1329
L111.7981 137.1519
" />
<path d="M111.7981 137.1519
L111.6457 137.1519
" />
<path d="M112.1219 136.9424
L112.1981 136.9424
" />
<path d="M112.1981 136.9424
L112.2362 136.9614
" />
<path d="M112.2362 136.9614
L112.2743 136.9995
" />
<path d="M112.2743 136.9995
L112.2933 137.0757
" />
<path d="M112.2933 137.0757
L112.2933 137.2091
" />
<path d="M112.2933 137.2091
L112.2743 137.2853
" />
<path d="M112.2743 137.2853
L112.2362 137.3233
" />
<path d="M112.2362 137.3233
L112.1981 137.3424
" />
<path d="M112.1981 137.3424
L112.1219 137.3424
" />
<path d="M112.1219 137.3424
L112.0838 137.3233
" />
<path d="M112.0838 137.3233
L112.0457 137.2853
" />
<path d="M112.0457 137.2853
L112.0267 137.2091
" />
<path d="M112.0267 137.2091
L112.0267 137.0757
" />
<path d="M112.0267 137.0757
L112.0457 136.9995
" />
<path d="M112.0457 136.9995
L112.0838 136.9614
" />
<path d="M112.0838 136.9614
L112.1219 136.9424
" />
<path d="M112.4648 136.9424
L112.4648 137.2662
" />
<path d="M112.4648 137.2662
L112.4838 137.3043
" />
<path d="M112.4838 137.3043
L112.5029 137.3233
" />
<path d="M112.5029 137.3233
L112.5410 137.3424
" />
<path d="M112.5410 137.3424
L112.6171 137.3424
" />
<path d="M112.6171 137.3424
L112.6552 137.3233
" />
<path d="M112.6552 137.3233
L112.6743 137.3043
" />
<path d="M112.6743 137.3043
L112.6933 137.2662
" />
<path d="M112.6933 137.2662
L112.6933 136.9424
" />
<path d="M112.8267 136.9424
L113.0552 136.9424
" />
<path d="M112.9410 137.3424
L112.9410 136.9424
" />
</g></g>
<g style="fill:#000000; fill-opacity:0.0; 
stroke:#000000; stroke-width:0.0254; stroke-opacity:1; 
stroke-linecap:round; stroke-linejoin:round;">
<circle cx="71.1200" cy="96.5200" r="2.4765" /> 
</g>
<g style="fill:#000000; fill-opacity:0.0; 
stroke:#000000; stroke-width:0.1500; stroke-opacity:1; 
stroke-linecap:round; stroke-linejoin:round;">
<circle cx="43.1800" cy="43.1800" r="2.2000" /> 
<circle cx="43.1800" cy="149.8600" r="2.2000" /> 
<circle cx="119.0000" cy="43.1800" r="2.2000" /> 
<circle cx="119.0000" cy="149.8600" r="2.2000" /> 
<g >
</g>
<g >
</g>
<g >
</g>
<g >
</g>
<g >
</g>
<g >
</g>
<g >
</g>
<g >
</g>
<g >
</g>
<g >
</g>
<g >
</g>
<g >
</g>
<g >
</g>
<g >
</g>
<g >
</g>
<g >
</g>
<g >
</g>
<g >
</g>
<g >
</g>
<g >
</g>
<g >
</g>
<g >
</g>
<g >
</g>
<g >
</g>
<g >
</g>
<g >
</g>
<g >
</g>
<g >
</g>
<g >
</g>
<g >
</g>
<g >
</g>
<g >
</g>
<g >
</g>
<g >
</g>
<g >
</g>
<g >
</g>
<g >
</g>
<g >
</g>
<g >
</g>
<g >
</g>
</g> 
</svg>
