<?xml version="1.0" standalone="no"?>
 <!DOCTYPE svg PUBLIC "-//W3C//DTD SVG 1.1//EN" 
 "http://www.w3.org/Graphics/SVG/1.1/DTD/svg11.dtd"> 
<svg
  xmlns:svg="http://www.w3.org/2000/svg"
  xmlns="http://www.w3.org/2000/svg"
  xmlns:xlink="http://www.w3.org/1999/xlink"
  version="1.1"
  width="297.0022mm" height="210.0072mm" viewBox="0.0000 0.0000 297.0022 210.0072">
<title>SVG Image created as main-F_Fab.svg date 2023/11/07 17:56:08 </title>
  <desc>Image generated by PCBNEW </desc>
<g style="fill:#000000; fill-opacity:1.0000;stroke:#000000; stroke-opacity:1.0000;
stroke-linecap:round; stroke-linejoin:round;"
 transform="translate(0 0) scale(1 1)">
</g>
<g style="fill:#000000; fill-opacity:0.0; 
stroke:#000000; stroke-width:0.0000; stroke-opacity:1; 
stroke-linecap:round; stroke-linejoin:round;">
</g>
<g style="fill:#000000; fill-opacity:0.0; 
stroke:#000000; stroke-width:0.1500; stroke-opacity:1; 
stroke-linecap:round; stroke-linejoin:round;">
<g transform="rotate(-90.000000 62.4400 60.9600)">
<text x="62.4400" y="61.4600"
textLength="1.7738" font-size="1.3333" lengthAdjust="spacingAndGlyphs"
text-anchor="middle" opacity="0">IN</text>
</g>
<g class="stroked-text"><desc>IN</desc>
<path d="M62.8948 61.4838
L61.8948 61.4838
" />
<path d="M62.8948 61.0076
L61.8948 61.0076
" />
<path d="M61.8948 61.0076
L62.8948 60.4362
" />
<path d="M62.8948 60.4362
L61.8948 60.4362
" />
</g><g transform="rotate(-90.000000 59.4400 60.9600)">
<text x="59.4400" y="61.4600"
textLength="1.9643" font-size="1.3333" lengthAdjust="spacingAndGlyphs"
text-anchor="middle" opacity="0">J2</text>
</g>
<g class="stroked-text"><desc>J2</desc>
<path d="M58.8948 61.2933
L59.6091 61.2933
" />
<path d="M59.6091 61.2933
L59.7520 61.3410
" />
<path d="M59.7520 61.3410
L59.8472 61.4362
" />
<path d="M59.8472 61.4362
L59.8948 61.5790
" />
<path d="M59.8948 61.5790
L59.8948 61.6743
" />
<path d="M58.9901 60.8648
L58.9424 60.8171
" />
<path d="M58.9424 60.8171
L58.8948 60.7219
" />
<path d="M58.8948 60.7219
L58.8948 60.4838
" />
<path d="M58.8948 60.4838
L58.9424 60.3886
" />
<path d="M58.9424 60.3886
L58.9901 60.3410
" />
<path d="M58.9901 60.3410
L59.0853 60.2933
" />
<path d="M59.0853 60.2933
L59.1805 60.2933
" />
<path d="M59.1805 60.2933
L59.3234 60.3410
" />
<path d="M59.3234 60.3410
L59.8948 60.9124
" />
<path d="M59.8948 60.9124
L59.8948 60.2933
" />
</g><g transform="rotate(-90.000000 62.4400 81.2800)">
<text x="62.4400" y="81.7800"
textLength="1.7738" font-size="1.3333" lengthAdjust="spacingAndGlyphs"
text-anchor="middle" opacity="0">IN</text>
</g>
<g class="stroked-text"><desc>IN</desc>
<path d="M62.8948 81.8038
L61.8948 81.8038
" />
<path d="M62.8948 81.3276
L61.8948 81.3276
" />
<path d="M61.8948 81.3276
L62.8948 80.7562
" />
<path d="M62.8948 80.7562
L61.8948 80.7562
" />
</g><g transform="rotate(-90.000000 59.4400 81.2800)">
<text x="59.4400" y="81.7800"
textLength="1.9643" font-size="1.3333" lengthAdjust="spacingAndGlyphs"
text-anchor="middle" opacity="0">J3</text>
</g>
<g class="stroked-text"><desc>J3</desc>
<path d="M58.8948 81.6133
L59.6091 81.6133
" />
<path d="M59.6091 81.6133
L59.7520 81.6610
" />
<path d="M59.7520 81.6610
L59.8472 81.7562
" />
<path d="M59.8472 81.7562
L59.8948 81.8990
" />
<path d="M59.8948 81.8990
L59.8948 81.9943
" />
<path d="M58.8948 81.2324
L58.8948 80.6133
" />
<path d="M58.8948 80.6133
L59.2758 80.9467
" />
<path d="M59.2758 80.9467
L59.2758 80.8038
" />
<path d="M59.2758 80.8038
L59.3234 80.7086
" />
<path d="M59.3234 80.7086
L59.3710 80.6610
" />
<path d="M59.3710 80.6610
L59.4662 80.6133
" />
<path d="M59.4662 80.6133
L59.7043 80.6133
" />
<path d="M59.7043 80.6133
L59.7996 80.6610
" />
<path d="M59.7996 80.6610
L59.8472 80.7086
" />
<path d="M59.8472 80.7086
L59.8948 80.8038
" />
<path d="M59.8948 80.8038
L59.8948 81.0895
" />
<path d="M59.8948 81.0895
L59.8472 81.1848
" />
<path d="M59.8472 81.1848
L59.7996 81.2324
" />
</g><g transform="rotate(-90.000000 62.4400 101.6000)">
<text x="62.4400" y="102.1000"
textLength="1.7738" font-size="1.3333" lengthAdjust="spacingAndGlyphs"
text-anchor="middle" opacity="0">IN</text>
</g>
<g class="stroked-text"><desc>IN</desc>
<path d="M62.8948 102.1238
L61.8948 102.1238
" />
<path d="M62.8948 101.6476
L61.8948 101.6476
" />
<path d="M61.8948 101.6476
L62.8948 101.0762
" />
<path d="M62.8948 101.0762
L61.8948 101.0762
" />
</g><g transform="rotate(-90.000000 59.4400 101.6000)">
<text x="59.4400" y="102.1000"
textLength="1.9643" font-size="1.3333" lengthAdjust="spacingAndGlyphs"
text-anchor="middle" opacity="0">J4</text>
</g>
<g class="stroked-text"><desc>J4</desc>
<path d="M58.8948 101.9333
L59.6091 101.9333
" />
<path d="M59.6091 101.9333
L59.7520 101.9810
" />
<path d="M59.7520 101.9810
L59.8472 102.0762
" />
<path d="M59.8472 102.0762
L59.8948 102.2190
" />
<path d="M59.8948 102.2190
L59.8948 102.3143
" />
<path d="M59.2282 101.0286
L59.8948 101.0286
" />
<path d="M58.8472 101.2667
L59.5615 101.5048
" />
<path d="M59.5615 101.5048
L59.5615 100.8857
" />
</g><g transform="rotate(-90.000000 62.4400 121.9200)">
<text x="62.4400" y="122.4200"
textLength="1.7738" font-size="1.3333" lengthAdjust="spacingAndGlyphs"
text-anchor="middle" opacity="0">IN</text>
</g>
<g class="stroked-text"><desc>IN</desc>
<path d="M62.8948 122.4438
L61.8948 122.4438
" />
<path d="M62.8948 121.9676
L61.8948 121.9676
" />
<path d="M61.8948 121.9676
L62.8948 121.3962
" />
<path d="M62.8948 121.3962
L61.8948 121.3962
" />
</g><g transform="rotate(-90.000000 59.4400 121.9200)">
<text x="59.4400" y="122.4200"
textLength="1.9643" font-size="1.3333" lengthAdjust="spacingAndGlyphs"
text-anchor="middle" opacity="0">J5</text>
</g>
<g class="stroked-text"><desc>J5</desc>
<path d="M58.8948 122.2533
L59.6091 122.2533
" />
<path d="M59.6091 122.2533
L59.7520 122.3010
" />
<path d="M59.7520 122.3010
L59.8472 122.3962
" />
<path d="M59.8472 122.3962
L59.8948 122.5390
" />
<path d="M59.8948 122.5390
L59.8948 122.6343
" />
<path d="M58.8948 121.3010
L58.8948 121.7771
" />
<path d="M58.8948 121.7771
L59.3710 121.8248
" />
<path d="M59.3710 121.8248
L59.3234 121.7771
" />
<path d="M59.3234 121.7771
L59.2758 121.6819
" />
<path d="M59.2758 121.6819
L59.2758 121.4438
" />
<path d="M59.2758 121.4438
L59.3234 121.3486
" />
<path d="M59.3234 121.3486
L59.3710 121.3010
" />
<path d="M59.3710 121.3010
L59.4662 121.2533
" />
<path d="M59.4662 121.2533
L59.7043 121.2533
" />
<path d="M59.7043 121.2533
L59.7996 121.3010
" />
<path d="M59.7996 121.3010
L59.8472 121.3486
" />
<path d="M59.8472 121.3486
L59.8948 121.4438
" />
<path d="M59.8948 121.4438
L59.8948 121.6819
" />
<path d="M59.8948 121.6819
L59.8472 121.7771
" />
<path d="M59.8472 121.7771
L59.7996 121.8248
" />
</g><g transform="rotate(-90.000000 62.4400 71.1200)">
<text x="62.4400" y="71.6200"
textLength="3.1071" font-size="1.3333" lengthAdjust="spacingAndGlyphs"
text-anchor="middle" opacity="0">OUT</text>
</g>
<g class="stroked-text"><desc>OUT</desc>
<path d="M61.8948 72.1200
L61.8948 71.9295
" />
<path d="M61.8948 71.9295
L61.9424 71.8343
" />
<path d="M61.9424 71.8343
L62.0377 71.7390
" />
<path d="M62.0377 71.7390
L62.2282 71.6914
" />
<path d="M62.2282 71.6914
L62.5615 71.6914
" />
<path d="M62.5615 71.6914
L62.7520 71.7390
" />
<path d="M62.7520 71.7390
L62.8472 71.8343
" />
<path d="M62.8472 71.8343
L62.8948 71.9295
" />
<path d="M62.8948 71.9295
L62.8948 72.1200
" />
<path d="M62.8948 72.1200
L62.8472 72.2152
" />
<path d="M62.8472 72.2152
L62.7520 72.3105
" />
<path d="M62.7520 72.3105
L62.5615 72.3581
" />
<path d="M62.5615 72.3581
L62.2282 72.3581
" />
<path d="M62.2282 72.3581
L62.0377 72.3105
" />
<path d="M62.0377 72.3105
L61.9424 72.2152
" />
<path d="M61.9424 72.2152
L61.8948 72.1200
" />
<path d="M61.8948 71.2629
L62.7043 71.2629
" />
<path d="M62.7043 71.2629
L62.7996 71.2152
" />
<path d="M62.7996 71.2152
L62.8472 71.1676
" />
<path d="M62.8472 71.1676
L62.8948 71.0724
" />
<path d="M62.8948 71.0724
L62.8948 70.8819
" />
<path d="M62.8948 70.8819
L62.8472 70.7867
" />
<path d="M62.8472 70.7867
L62.7996 70.7390
" />
<path d="M62.7996 70.7390
L62.7043 70.6914
" />
<path d="M62.7043 70.6914
L61.8948 70.6914
" />
<path d="M61.8948 70.3581
L61.8948 69.7867
" />
<path d="M62.8948 70.0724
L61.8948 70.0724
" />
</g><g transform="rotate(-90.000000 59.4400 71.1200)">
<text x="59.4400" y="71.6200"
textLength="1.9643" font-size="1.3333" lengthAdjust="spacingAndGlyphs"
text-anchor="middle" opacity="0">J6</text>
</g>
<g class="stroked-text"><desc>J6</desc>
<path d="M58.8948 71.4533
L59.6091 71.4533
" />
<path d="M59.6091 71.4533
L59.7520 71.5010
" />
<path d="M59.7520 71.5010
L59.8472 71.5962
" />
<path d="M59.8472 71.5962
L59.8948 71.7390
" />
<path d="M59.8948 71.7390
L59.8948 71.8343
" />
<path d="M58.8948 70.5486
L58.8948 70.7390
" />
<path d="M58.8948 70.7390
L58.9424 70.8343
" />
<path d="M58.9424 70.8343
L58.9901 70.8819
" />
<path d="M58.9901 70.8819
L59.1329 70.9771
" />
<path d="M59.1329 70.9771
L59.3234 71.0248
" />
<path d="M59.3234 71.0248
L59.7043 71.0248
" />
<path d="M59.7043 71.0248
L59.7996 70.9771
" />
<path d="M59.7996 70.9771
L59.8472 70.9295
" />
<path d="M59.8472 70.9295
L59.8948 70.8343
" />
<path d="M59.8948 70.8343
L59.8948 70.6438
" />
<path d="M59.8948 70.6438
L59.8472 70.5486
" />
<path d="M59.8472 70.5486
L59.7996 70.5010
" />
<path d="M59.7996 70.5010
L59.7043 70.4533
" />
<path d="M59.7043 70.4533
L59.4662 70.4533
" />
<path d="M59.4662 70.4533
L59.3710 70.5010
" />
<path d="M59.3710 70.5010
L59.3234 70.5486
" />
<path d="M59.3234 70.5486
L59.2758 70.6438
" />
<path d="M59.2758 70.6438
L59.2758 70.8343
" />
<path d="M59.2758 70.8343
L59.3234 70.9295
" />
<path d="M59.3234 70.9295
L59.3710 70.9771
" />
<path d="M59.3710 70.9771
L59.4662 71.0248
" />
</g><g transform="rotate(-90.000000 62.4400 91.4400)">
<text x="62.4400" y="91.9400"
textLength="3.1071" font-size="1.3333" lengthAdjust="spacingAndGlyphs"
text-anchor="middle" opacity="0">OUT</text>
</g>
<g class="stroked-text"><desc>OUT</desc>
<path d="M61.8948 92.4400
L61.8948 92.2495
" />
<path d="M61.8948 92.2495
L61.9424 92.1543
" />
<path d="M61.9424 92.1543
L62.0377 92.0590
" />
<path d="M62.0377 92.0590
L62.2282 92.0114
" />
<path d="M62.2282 92.0114
L62.5615 92.0114
" />
<path d="M62.5615 92.0114
L62.7520 92.0590
" />
<path d="M62.7520 92.0590
L62.8472 92.1543
" />
<path d="M62.8472 92.1543
L62.8948 92.2495
" />
<path d="M62.8948 92.2495
L62.8948 92.4400
" />
<path d="M62.8948 92.4400
L62.8472 92.5352
" />
<path d="M62.8472 92.5352
L62.7520 92.6305
" />
<path d="M62.7520 92.6305
L62.5615 92.6781
" />
<path d="M62.5615 92.6781
L62.2282 92.6781
" />
<path d="M62.2282 92.6781
L62.0377 92.6305
" />
<path d="M62.0377 92.6305
L61.9424 92.5352
" />
<path d="M61.9424 92.5352
L61.8948 92.4400
" />
<path d="M61.8948 91.5829
L62.7043 91.5829
" />
<path d="M62.7043 91.5829
L62.7996 91.5352
" />
<path d="M62.7996 91.5352
L62.8472 91.4876
" />
<path d="M62.8472 91.4876
L62.8948 91.3924
" />
<path d="M62.8948 91.3924
L62.8948 91.2019
" />
<path d="M62.8948 91.2019
L62.8472 91.1067
" />
<path d="M62.8472 91.1067
L62.7996 91.0590
" />
<path d="M62.7996 91.0590
L62.7043 91.0114
" />
<path d="M62.7043 91.0114
L61.8948 91.0114
" />
<path d="M61.8948 90.6781
L61.8948 90.1067
" />
<path d="M62.8948 90.3924
L61.8948 90.3924
" />
</g><g transform="rotate(-90.000000 59.4400 91.4400)">
<text x="59.4400" y="91.9400"
textLength="1.9643" font-size="1.3333" lengthAdjust="spacingAndGlyphs"
text-anchor="middle" opacity="0">J7</text>
</g>
<g class="stroked-text"><desc>J7</desc>
<path d="M58.8948 91.7733
L59.6091 91.7733
" />
<path d="M59.6091 91.7733
L59.7520 91.8210
" />
<path d="M59.7520 91.8210
L59.8472 91.9162
" />
<path d="M59.8472 91.9162
L59.8948 92.0590
" />
<path d="M59.8948 92.0590
L59.8948 92.1543
" />
<path d="M58.8948 91.3924
L58.8948 90.7257
" />
<path d="M58.8948 90.7257
L59.8948 91.1543
" />
</g><g transform="rotate(-90.000000 62.4400 111.7600)">
<text x="62.4400" y="112.2600"
textLength="3.1071" font-size="1.3333" lengthAdjust="spacingAndGlyphs"
text-anchor="middle" opacity="0">OUT</text>
</g>
<g class="stroked-text"><desc>OUT</desc>
<path d="M61.8948 112.7600
L61.8948 112.5695
" />
<path d="M61.8948 112.5695
L61.9424 112.4743
" />
<path d="M61.9424 112.4743
L62.0377 112.3790
" />
<path d="M62.0377 112.3790
L62.2282 112.3314
" />
<path d="M62.2282 112.3314
L62.5615 112.3314
" />
<path d="M62.5615 112.3314
L62.7520 112.3790
" />
<path d="M62.7520 112.3790
L62.8472 112.4743
" />
<path d="M62.8472 112.4743
L62.8948 112.5695
" />
<path d="M62.8948 112.5695
L62.8948 112.7600
" />
<path d="M62.8948 112.7600
L62.8472 112.8552
" />
<path d="M62.8472 112.8552
L62.7520 112.9505
" />
<path d="M62.7520 112.9505
L62.5615 112.9981
" />
<path d="M62.5615 112.9981
L62.2282 112.9981
" />
<path d="M62.2282 112.9981
L62.0377 112.9505
" />
<path d="M62.0377 112.9505
L61.9424 112.8552
" />
<path d="M61.9424 112.8552
L61.8948 112.7600
" />
<path d="M61.8948 111.9029
L62.7043 111.9029
" />
<path d="M62.7043 111.9029
L62.7996 111.8552
" />
<path d="M62.7996 111.8552
L62.8472 111.8076
" />
<path d="M62.8472 111.8076
L62.8948 111.7124
" />
<path d="M62.8948 111.7124
L62.8948 111.5219
" />
<path d="M62.8948 111.5219
L62.8472 111.4267
" />
<path d="M62.8472 111.4267
L62.7996 111.3790
" />
<path d="M62.7996 111.3790
L62.7043 111.3314
" />
<path d="M62.7043 111.3314
L61.8948 111.3314
" />
<path d="M61.8948 110.9981
L61.8948 110.4267
" />
<path d="M62.8948 110.7124
L61.8948 110.7124
" />
</g><g transform="rotate(-90.000000 59.4400 111.7600)">
<text x="59.4400" y="112.2600"
textLength="1.9643" font-size="1.3333" lengthAdjust="spacingAndGlyphs"
text-anchor="middle" opacity="0">J8</text>
</g>
<g class="stroked-text"><desc>J8</desc>
<path d="M58.8948 112.0933
L59.6091 112.0933
" />
<path d="M59.6091 112.0933
L59.7520 112.1410
" />
<path d="M59.7520 112.1410
L59.8472 112.2362
" />
<path d="M59.8472 112.2362
L59.8948 112.3790
" />
<path d="M59.8948 112.3790
L59.8948 112.4743
" />
<path d="M59.3234 111.4743
L59.2758 111.5695
" />
<path d="M59.2758 111.5695
L59.2282 111.6171
" />
<path d="M59.2282 111.6171
L59.1329 111.6648
" />
<path d="M59.1329 111.6648
L59.0853 111.6648
" />
<path d="M59.0853 111.6648
L58.9901 111.6171
" />
<path d="M58.9901 111.6171
L58.9424 111.5695
" />
<path d="M58.9424 111.5695
L58.8948 111.4743
" />
<path d="M58.8948 111.4743
L58.8948 111.2838
" />
<path d="M58.8948 111.2838
L58.9424 111.1886
" />
<path d="M58.9424 111.1886
L58.9901 111.1410
" />
<path d="M58.9901 111.1410
L59.0853 111.0933
" />
<path d="M59.0853 111.0933
L59.1329 111.0933
" />
<path d="M59.1329 111.0933
L59.2282 111.1410
" />
<path d="M59.2282 111.1410
L59.2758 111.1886
" />
<path d="M59.2758 111.1886
L59.3234 111.2838
" />
<path d="M59.3234 111.2838
L59.3234 111.4743
" />
<path d="M59.3234 111.4743
L59.3710 111.5695
" />
<path d="M59.3710 111.5695
L59.4186 111.6171
" />
<path d="M59.4186 111.6171
L59.5139 111.6648
" />
<path d="M59.5139 111.6648
L59.7043 111.6648
" />
<path d="M59.7043 111.6648
L59.7996 111.6171
" />
<path d="M59.7996 111.6171
L59.8472 111.5695
" />
<path d="M59.8472 111.5695
L59.8948 111.4743
" />
<path d="M59.8948 111.4743
L59.8948 111.2838
" />
<path d="M59.8948 111.2838
L59.8472 111.1886
" />
<path d="M59.8472 111.1886
L59.7996 111.1410
" />
<path d="M59.7996 111.1410
L59.7043 111.0933
" />
<path d="M59.7043 111.0933
L59.5139 111.0933
" />
<path d="M59.5139 111.0933
L59.4186 111.1410
" />
<path d="M59.4186 111.1410
L59.3710 111.1886
" />
<path d="M59.3710 111.1886
L59.3234 111.2838
" />
</g><g transform="rotate(-90.000000 62.4400 132.0800)">
<text x="62.4400" y="132.5800"
textLength="3.1071" font-size="1.3333" lengthAdjust="spacingAndGlyphs"
text-anchor="middle" opacity="0">OUT</text>
</g>
<g class="stroked-text"><desc>OUT</desc>
<path d="M61.8948 133.0800
L61.8948 132.8895
" />
<path d="M61.8948 132.8895
L61.9424 132.7943
" />
<path d="M61.9424 132.7943
L62.0377 132.6990
" />
<path d="M62.0377 132.6990
L62.2282 132.6514
" />
<path d="M62.2282 132.6514
L62.5615 132.6514
" />
<path d="M62.5615 132.6514
L62.7520 132.6990
" />
<path d="M62.7520 132.6990
L62.8472 132.7943
" />
<path d="M62.8472 132.7943
L62.8948 132.8895
" />
<path d="M62.8948 132.8895
L62.8948 133.0800
" />
<path d="M62.8948 133.0800
L62.8472 133.1752
" />
<path d="M62.8472 133.1752
L62.7520 133.2705
" />
<path d="M62.7520 133.2705
L62.5615 133.3181
" />
<path d="M62.5615 133.3181
L62.2282 133.3181
" />
<path d="M62.2282 133.3181
L62.0377 133.2705
" />
<path d="M62.0377 133.2705
L61.9424 133.1752
" />
<path d="M61.9424 133.1752
L61.8948 133.0800
" />
<path d="M61.8948 132.2229
L62.7043 132.2229
" />
<path d="M62.7043 132.2229
L62.7996 132.1752
" />
<path d="M62.7996 132.1752
L62.8472 132.1276
" />
<path d="M62.8472 132.1276
L62.8948 132.0324
" />
<path d="M62.8948 132.0324
L62.8948 131.8419
" />
<path d="M62.8948 131.8419
L62.8472 131.7467
" />
<path d="M62.8472 131.7467
L62.7996 131.6990
" />
<path d="M62.7996 131.6990
L62.7043 131.6514
" />
<path d="M62.7043 131.6514
L61.8948 131.6514
" />
<path d="M61.8948 131.3181
L61.8948 130.7467
" />
<path d="M62.8948 131.0324
L61.8948 131.0324
" />
</g><g transform="rotate(-90.000000 59.4400 132.0800)">
<text x="59.4400" y="132.5800"
textLength="1.9643" font-size="1.3333" lengthAdjust="spacingAndGlyphs"
text-anchor="middle" opacity="0">J9</text>
</g>
<g class="stroked-text"><desc>J9</desc>
<path d="M58.8948 132.4133
L59.6091 132.4133
" />
<path d="M59.6091 132.4133
L59.7520 132.4610
" />
<path d="M59.7520 132.4610
L59.8472 132.5562
" />
<path d="M59.8472 132.5562
L59.8948 132.6990
" />
<path d="M59.8948 132.6990
L59.8948 132.7943
" />
<path d="M59.8948 131.8895
L59.8948 131.6990
" />
<path d="M59.8948 131.6990
L59.8472 131.6038
" />
<path d="M59.8472 131.6038
L59.7996 131.5562
" />
<path d="M59.7996 131.5562
L59.6567 131.4610
" />
<path d="M59.6567 131.4610
L59.4662 131.4133
" />
<path d="M59.4662 131.4133
L59.0853 131.4133
" />
<path d="M59.0853 131.4133
L58.9901 131.4610
" />
<path d="M58.9901 131.4610
L58.9424 131.5086
" />
<path d="M58.9424 131.5086
L58.8948 131.6038
" />
<path d="M58.8948 131.6038
L58.8948 131.7943
" />
<path d="M58.8948 131.7943
L58.9424 131.8895
" />
<path d="M58.9424 131.8895
L58.9901 131.9371
" />
<path d="M58.9901 131.9371
L59.0853 131.9848
" />
<path d="M59.0853 131.9848
L59.3234 131.9848
" />
<path d="M59.3234 131.9848
L59.4186 131.9371
" />
<path d="M59.4186 131.9371
L59.4662 131.8895
" />
<path d="M59.4662 131.8895
L59.5139 131.7943
" />
<path d="M59.5139 131.7943
L59.5139 131.6038
" />
<path d="M59.5139 131.6038
L59.4662 131.5086
" />
<path d="M59.4662 131.5086
L59.4186 131.4610
" />
<path d="M59.4186 131.4610
L59.3234 131.4133
" />
</g><text x="81.2800" y="146.3400"
textLength="3.1071" font-size="1.3333" lengthAdjust="spacingAndGlyphs"
text-anchor="middle" opacity="0">OUT</text>
<g class="stroked-text"><desc>OUT</desc>
<path d="M80.2800 145.2948
L80.4705 145.2948
" />
<path d="M80.4705 145.2948
L80.5657 145.3424
" />
<path d="M80.5657 145.3424
L80.6610 145.4377
" />
<path d="M80.6610 145.4377
L80.7086 145.6282
" />
<path d="M80.7086 145.6282
L80.7086 145.9615
" />
<path d="M80.7086 145.9615
L80.6610 146.1520
" />
<path d="M80.6610 146.1520
L80.5657 146.2472
" />
<path d="M80.5657 146.2472
L80.4705 146.2948
" />
<path d="M80.4705 146.2948
L80.2800 146.2948
" />
<path d="M80.2800 146.2948
L80.1848 146.2472
" />
<path d="M80.1848 146.2472
L80.0895 146.1520
" />
<path d="M80.0895 146.1520
L80.0419 145.9615
" />
<path d="M80.0419 145.9615
L80.0419 145.6282
" />
<path d="M80.0419 145.6282
L80.0895 145.4377
" />
<path d="M80.0895 145.4377
L80.1848 145.3424
" />
<path d="M80.1848 145.3424
L80.2800 145.2948
" />
<path d="M81.1371 145.2948
L81.1371 146.1043
" />
<path d="M81.1371 146.1043
L81.1848 146.1996
" />
<path d="M81.1848 146.1996
L81.2324 146.2472
" />
<path d="M81.2324 146.2472
L81.3276 146.2948
" />
<path d="M81.3276 146.2948
L81.5181 146.2948
" />
<path d="M81.5181 146.2948
L81.6133 146.2472
" />
<path d="M81.6133 146.2472
L81.6610 146.1996
" />
<path d="M81.6610 146.1996
L81.7086 146.1043
" />
<path d="M81.7086 146.1043
L81.7086 145.2948
" />
<path d="M82.0419 145.2948
L82.6133 145.2948
" />
<path d="M82.3276 146.2948
L82.3276 145.2948
" />
</g><text x="81.2800" y="149.3400"
textLength="2.9167" font-size="1.3333" lengthAdjust="spacingAndGlyphs"
text-anchor="middle" opacity="0">J10</text>
<g class="stroked-text"><desc>J10</desc>
<path d="M80.4705 148.2948
L80.4705 149.0091
" />
<path d="M80.4705 149.0091
L80.4229 149.1520
" />
<path d="M80.4229 149.1520
L80.3276 149.2472
" />
<path d="M80.3276 149.2472
L80.1848 149.2948
" />
<path d="M80.1848 149.2948
L80.0895 149.2948
" />
<path d="M81.4705 149.2948
L80.8990 149.2948
" />
<path d="M81.1848 149.2948
L81.1848 148.2948
" />
<path d="M81.1848 148.2948
L81.0895 148.4377
" />
<path d="M81.0895 148.4377
L80.9943 148.5329
" />
<path d="M80.9943 148.5329
L80.8990 148.5805
" />
<path d="M82.0895 148.2948
L82.1848 148.2948
" />
<path d="M82.1848 148.2948
L82.2800 148.3424
" />
<path d="M82.2800 148.3424
L82.3276 148.3901
" />
<path d="M82.3276 148.3901
L82.3752 148.4853
" />
<path d="M82.3752 148.4853
L82.4229 148.6758
" />
<path d="M82.4229 148.6758
L82.4229 148.9139
" />
<path d="M82.4229 148.9139
L82.3752 149.1043
" />
<path d="M82.3752 149.1043
L82.3276 149.1996
" />
<path d="M82.3276 149.1996
L82.2800 149.2472
" />
<path d="M82.2800 149.2472
L82.1848 149.2948
" />
<path d="M82.1848 149.2948
L82.0895 149.2948
" />
<path d="M82.0895 149.2948
L81.9943 149.2472
" />
<path d="M81.9943 149.2472
L81.9467 149.1996
" />
<path d="M81.9467 149.1996
L81.8990 149.1043
" />
<path d="M81.8990 149.1043
L81.8514 148.9139
" />
<path d="M81.8514 148.9139
L81.8514 148.6758
" />
<path d="M81.8514 148.6758
L81.8990 148.4853
" />
<path d="M81.8990 148.4853
L81.9467 148.3901
" />
<path d="M81.9467 148.3901
L81.9943 148.3424
" />
<path d="M81.9943 148.3424
L82.0895 148.2948
" />
</g><g transform="rotate(-90.000000 88.6000 73.5400)">
<text x="88.6000" y="74.0400"
textLength="3.9167" font-size="1.3333" lengthAdjust="spacingAndGlyphs"
text-anchor="middle" opacity="0">100k</text>
</g>
<g class="stroked-text"><desc>100k</desc>
<path d="M89.0548 74.6114
L89.0548 75.1829
" />
<path d="M89.0548 74.8971
L88.0548 74.8971
" />
<path d="M88.0548 74.8971
L88.1977 74.9924
" />
<path d="M88.1977 74.9924
L88.2929 75.0876
" />
<path d="M88.2929 75.0876
L88.3405 75.1829
" />
<path d="M88.0548 73.9924
L88.0548 73.8971
" />
<path d="M88.0548 73.8971
L88.1024 73.8019
" />
<path d="M88.1024 73.8019
L88.1501 73.7543
" />
<path d="M88.1501 73.7543
L88.2453 73.7067
" />
<path d="M88.2453 73.7067
L88.4358 73.6590
" />
<path d="M88.4358 73.6590
L88.6739 73.6590
" />
<path d="M88.6739 73.6590
L88.8643 73.7067
" />
<path d="M88.8643 73.7067
L88.9596 73.7543
" />
<path d="M88.9596 73.7543
L89.0072 73.8019
" />
<path d="M89.0072 73.8019
L89.0548 73.8971
" />
<path d="M89.0548 73.8971
L89.0548 73.9924
" />
<path d="M89.0548 73.9924
L89.0072 74.0876
" />
<path d="M89.0072 74.0876
L88.9596 74.1352
" />
<path d="M88.9596 74.1352
L88.8643 74.1829
" />
<path d="M88.8643 74.1829
L88.6739 74.2305
" />
<path d="M88.6739 74.2305
L88.4358 74.2305
" />
<path d="M88.4358 74.2305
L88.2453 74.1829
" />
<path d="M88.2453 74.1829
L88.1501 74.1352
" />
<path d="M88.1501 74.1352
L88.1024 74.0876
" />
<path d="M88.1024 74.0876
L88.0548 73.9924
" />
<path d="M88.0548 73.0400
L88.0548 72.9448
" />
<path d="M88.0548 72.9448
L88.1024 72.8495
" />
<path d="M88.1024 72.8495
L88.1501 72.8019
" />
<path d="M88.1501 72.8019
L88.2453 72.7543
" />
<path d="M88.2453 72.7543
L88.4358 72.7067
" />
<path d="M88.4358 72.7067
L88.6739 72.7067
" />
<path d="M88.6739 72.7067
L88.8643 72.7543
" />
<path d="M88.8643 72.7543
L88.9596 72.8019
" />
<path d="M88.9596 72.8019
L89.0072 72.8495
" />
<path d="M89.0072 72.8495
L89.0548 72.9448
" />
<path d="M89.0548 72.9448
L89.0548 73.0400
" />
<path d="M89.0548 73.0400
L89.0072 73.1352
" />
<path d="M89.0072 73.1352
L88.9596 73.1829
" />
<path d="M88.9596 73.1829
L88.8643 73.2305
" />
<path d="M88.8643 73.2305
L88.6739 73.2781
" />
<path d="M88.6739 73.2781
L88.4358 73.2781
" />
<path d="M88.4358 73.2781
L88.2453 73.2305
" />
<path d="M88.2453 73.2305
L88.1501 73.1829
" />
<path d="M88.1501 73.1829
L88.1024 73.1352
" />
<path d="M88.1024 73.1352
L88.0548 73.0400
" />
<path d="M89.0548 72.2781
L88.0548 72.2781
" />
<path d="M88.6739 72.1829
L89.0548 71.8971
" />
<path d="M88.3882 71.8971
L88.7691 72.2781
" />
</g><g transform="rotate(-90.000000 81.2800 65.9200)">
<text x="81.2800" y="66.4200"
textLength="3.0595" font-size="1.3333" lengthAdjust="spacingAndGlyphs"
text-anchor="middle" opacity="0">RV1</text>
</g>
<g class="stroked-text"><desc>RV1</desc>
<path d="M81.7348 66.5152
L81.2586 66.8486
" />
<path d="M81.7348 67.0867
L80.7348 67.0867
" />
<path d="M80.7348 67.0867
L80.7348 66.7057
" />
<path d="M80.7348 66.7057
L80.7824 66.6105
" />
<path d="M80.7824 66.6105
L80.8301 66.5629
" />
<path d="M80.8301 66.5629
L80.9253 66.5152
" />
<path d="M80.9253 66.5152
L81.0682 66.5152
" />
<path d="M81.0682 66.5152
L81.1634 66.5629
" />
<path d="M81.1634 66.5629
L81.2110 66.6105
" />
<path d="M81.2110 66.6105
L81.2586 66.7057
" />
<path d="M81.2586 66.7057
L81.2586 67.0867
" />
<path d="M80.7348 66.2295
L81.7348 65.8962
" />
<path d="M81.7348 65.8962
L80.7348 65.5629
" />
<path d="M81.7348 64.7057
L81.7348 65.2771
" />
<path d="M81.7348 64.9914
L80.7348 64.9914
" />
<path d="M80.7348 64.9914
L80.8777 65.0867
" />
<path d="M80.8777 65.0867
L80.9729 65.1819
" />
<path d="M80.9729 65.1819
L81.0205 65.2771
" />
</g><g transform="rotate(-90.000000 88.6000 93.8600)">
<text x="88.6000" y="94.3600"
textLength="3.9167" font-size="1.3333" lengthAdjust="spacingAndGlyphs"
text-anchor="middle" opacity="0">100k</text>
</g>
<g class="stroked-text"><desc>100k</desc>
<path d="M89.0548 94.9314
L89.0548 95.5029
" />
<path d="M89.0548 95.2171
L88.0548 95.2171
" />
<path d="M88.0548 95.2171
L88.1977 95.3124
" />
<path d="M88.1977 95.3124
L88.2929 95.4076
" />
<path d="M88.2929 95.4076
L88.3405 95.5029
" />
<path d="M88.0548 94.3124
L88.0548 94.2171
" />
<path d="M88.0548 94.2171
L88.1024 94.1219
" />
<path d="M88.1024 94.1219
L88.1501 94.0743
" />
<path d="M88.1501 94.0743
L88.2453 94.0267
" />
<path d="M88.2453 94.0267
L88.4358 93.9790
" />
<path d="M88.4358 93.9790
L88.6739 93.9790
" />
<path d="M88.6739 93.9790
L88.8643 94.0267
" />
<path d="M88.8643 94.0267
L88.9596 94.0743
" />
<path d="M88.9596 94.0743
L89.0072 94.1219
" />
<path d="M89.0072 94.1219
L89.0548 94.2171
" />
<path d="M89.0548 94.2171
L89.0548 94.3124
" />
<path d="M89.0548 94.3124
L89.0072 94.4076
" />
<path d="M89.0072 94.4076
L88.9596 94.4552
" />
<path d="M88.9596 94.4552
L88.8643 94.5029
" />
<path d="M88.8643 94.5029
L88.6739 94.5505
" />
<path d="M88.6739 94.5505
L88.4358 94.5505
" />
<path d="M88.4358 94.5505
L88.2453 94.5029
" />
<path d="M88.2453 94.5029
L88.1501 94.4552
" />
<path d="M88.1501 94.4552
L88.1024 94.4076
" />
<path d="M88.1024 94.4076
L88.0548 94.3124
" />
<path d="M88.0548 93.3600
L88.0548 93.2648
" />
<path d="M88.0548 93.2648
L88.1024 93.1695
" />
<path d="M88.1024 93.1695
L88.1501 93.1219
" />
<path d="M88.1501 93.1219
L88.2453 93.0743
" />
<path d="M88.2453 93.0743
L88.4358 93.0267
" />
<path d="M88.4358 93.0267
L88.6739 93.0267
" />
<path d="M88.6739 93.0267
L88.8643 93.0743
" />
<path d="M88.8643 93.0743
L88.9596 93.1219
" />
<path d="M88.9596 93.1219
L89.0072 93.1695
" />
<path d="M89.0072 93.1695
L89.0548 93.2648
" />
<path d="M89.0548 93.2648
L89.0548 93.3600
" />
<path d="M89.0548 93.3600
L89.0072 93.4552
" />
<path d="M89.0072 93.4552
L88.9596 93.5029
" />
<path d="M88.9596 93.5029
L88.8643 93.5505
" />
<path d="M88.8643 93.5505
L88.6739 93.5981
" />
<path d="M88.6739 93.5981
L88.4358 93.5981
" />
<path d="M88.4358 93.5981
L88.2453 93.5505
" />
<path d="M88.2453 93.5505
L88.1501 93.5029
" />
<path d="M88.1501 93.5029
L88.1024 93.4552
" />
<path d="M88.1024 93.4552
L88.0548 93.3600
" />
<path d="M89.0548 92.5981
L88.0548 92.5981
" />
<path d="M88.6739 92.5029
L89.0548 92.2171
" />
<path d="M88.3882 92.2171
L88.7691 92.5981
" />
</g><g transform="rotate(-90.000000 81.2800 86.2400)">
<text x="81.2800" y="86.7400"
textLength="3.0595" font-size="1.3333" lengthAdjust="spacingAndGlyphs"
text-anchor="middle" opacity="0">RV2</text>
</g>
<g class="stroked-text"><desc>RV2</desc>
<path d="M81.7348 86.8352
L81.2586 87.1686
" />
<path d="M81.7348 87.4067
L80.7348 87.4067
" />
<path d="M80.7348 87.4067
L80.7348 87.0257
" />
<path d="M80.7348 87.0257
L80.7824 86.9305
" />
<path d="M80.7824 86.9305
L80.8301 86.8829
" />
<path d="M80.8301 86.8829
L80.9253 86.8352
" />
<path d="M80.9253 86.8352
L81.0682 86.8352
" />
<path d="M81.0682 86.8352
L81.1634 86.8829
" />
<path d="M81.1634 86.8829
L81.2110 86.9305
" />
<path d="M81.2110 86.9305
L81.2586 87.0257
" />
<path d="M81.2586 87.0257
L81.2586 87.4067
" />
<path d="M80.7348 86.5495
L81.7348 86.2162
" />
<path d="M81.7348 86.2162
L80.7348 85.8829
" />
<path d="M80.8301 85.5971
L80.7824 85.5495
" />
<path d="M80.7824 85.5495
L80.7348 85.4543
" />
<path d="M80.7348 85.4543
L80.7348 85.2162
" />
<path d="M80.7348 85.2162
L80.7824 85.1210
" />
<path d="M80.7824 85.1210
L80.8301 85.0733
" />
<path d="M80.8301 85.0733
L80.9253 85.0257
" />
<path d="M80.9253 85.0257
L81.0205 85.0257
" />
<path d="M81.0205 85.0257
L81.1634 85.0733
" />
<path d="M81.1634 85.0733
L81.7348 85.6448
" />
<path d="M81.7348 85.6448
L81.7348 85.0257
" />
</g><g transform="rotate(-90.000000 88.6000 114.1800)">
<text x="88.6000" y="114.6800"
textLength="3.9167" font-size="1.3333" lengthAdjust="spacingAndGlyphs"
text-anchor="middle" opacity="0">100k</text>
</g>
<g class="stroked-text"><desc>100k</desc>
<path d="M89.0548 115.2514
L89.0548 115.8229
" />
<path d="M89.0548 115.5371
L88.0548 115.5371
" />
<path d="M88.0548 115.5371
L88.1977 115.6324
" />
<path d="M88.1977 115.6324
L88.2929 115.7276
" />
<path d="M88.2929 115.7276
L88.3405 115.8229
" />
<path d="M88.0548 114.6324
L88.0548 114.5371
" />
<path d="M88.0548 114.5371
L88.1024 114.4419
" />
<path d="M88.1024 114.4419
L88.1501 114.3943
" />
<path d="M88.1501 114.3943
L88.2453 114.3467
" />
<path d="M88.2453 114.3467
L88.4358 114.2990
" />
<path d="M88.4358 114.2990
L88.6739 114.2990
" />
<path d="M88.6739 114.2990
L88.8643 114.3467
" />
<path d="M88.8643 114.3467
L88.9596 114.3943
" />
<path d="M88.9596 114.3943
L89.0072 114.4419
" />
<path d="M89.0072 114.4419
L89.0548 114.5371
" />
<path d="M89.0548 114.5371
L89.0548 114.6324
" />
<path d="M89.0548 114.6324
L89.0072 114.7276
" />
<path d="M89.0072 114.7276
L88.9596 114.7752
" />
<path d="M88.9596 114.7752
L88.8643 114.8229
" />
<path d="M88.8643 114.8229
L88.6739 114.8705
" />
<path d="M88.6739 114.8705
L88.4358 114.8705
" />
<path d="M88.4358 114.8705
L88.2453 114.8229
" />
<path d="M88.2453 114.8229
L88.1501 114.7752
" />
<path d="M88.1501 114.7752
L88.1024 114.7276
" />
<path d="M88.1024 114.7276
L88.0548 114.6324
" />
<path d="M88.0548 113.6800
L88.0548 113.5848
" />
<path d="M88.0548 113.5848
L88.1024 113.4895
" />
<path d="M88.1024 113.4895
L88.1501 113.4419
" />
<path d="M88.1501 113.4419
L88.2453 113.3943
" />
<path d="M88.2453 113.3943
L88.4358 113.3467
" />
<path d="M88.4358 113.3467
L88.6739 113.3467
" />
<path d="M88.6739 113.3467
L88.8643 113.3943
" />
<path d="M88.8643 113.3943
L88.9596 113.4419
" />
<path d="M88.9596 113.4419
L89.0072 113.4895
" />
<path d="M89.0072 113.4895
L89.0548 113.5848
" />
<path d="M89.0548 113.5848
L89.0548 113.6800
" />
<path d="M89.0548 113.6800
L89.0072 113.7752
" />
<path d="M89.0072 113.7752
L88.9596 113.8229
" />
<path d="M88.9596 113.8229
L88.8643 113.8705
" />
<path d="M88.8643 113.8705
L88.6739 113.9181
" />
<path d="M88.6739 113.9181
L88.4358 113.9181
" />
<path d="M88.4358 113.9181
L88.2453 113.8705
" />
<path d="M88.2453 113.8705
L88.1501 113.8229
" />
<path d="M88.1501 113.8229
L88.1024 113.7752
" />
<path d="M88.1024 113.7752
L88.0548 113.6800
" />
<path d="M89.0548 112.9181
L88.0548 112.9181
" />
<path d="M88.6739 112.8229
L89.0548 112.5371
" />
<path d="M88.3882 112.5371
L88.7691 112.9181
" />
</g><g transform="rotate(-90.000000 81.2800 106.5600)">
<text x="81.2800" y="107.0600"
textLength="3.0595" font-size="1.3333" lengthAdjust="spacingAndGlyphs"
text-anchor="middle" opacity="0">RV3</text>
</g>
<g class="stroked-text"><desc>RV3</desc>
<path d="M81.7348 107.1552
L81.2586 107.4886
" />
<path d="M81.7348 107.7267
L80.7348 107.7267
" />
<path d="M80.7348 107.7267
L80.7348 107.3457
" />
<path d="M80.7348 107.3457
L80.7824 107.2505
" />
<path d="M80.7824 107.2505
L80.8301 107.2029
" />
<path d="M80.8301 107.2029
L80.9253 107.1552
" />
<path d="M80.9253 107.1552
L81.0682 107.1552
" />
<path d="M81.0682 107.1552
L81.1634 107.2029
" />
<path d="M81.1634 107.2029
L81.2110 107.2505
" />
<path d="M81.2110 107.2505
L81.2586 107.3457
" />
<path d="M81.2586 107.3457
L81.2586 107.7267
" />
<path d="M80.7348 106.8695
L81.7348 106.5362
" />
<path d="M81.7348 106.5362
L80.7348 106.2029
" />
<path d="M80.7348 105.9648
L80.7348 105.3457
" />
<path d="M80.7348 105.3457
L81.1158 105.6790
" />
<path d="M81.1158 105.6790
L81.1158 105.5362
" />
<path d="M81.1158 105.5362
L81.1634 105.4410
" />
<path d="M81.1634 105.4410
L81.2110 105.3933
" />
<path d="M81.2110 105.3933
L81.3062 105.3457
" />
<path d="M81.3062 105.3457
L81.5443 105.3457
" />
<path d="M81.5443 105.3457
L81.6396 105.3933
" />
<path d="M81.6396 105.3933
L81.6872 105.4410
" />
<path d="M81.6872 105.4410
L81.7348 105.5362
" />
<path d="M81.7348 105.5362
L81.7348 105.8219
" />
<path d="M81.7348 105.8219
L81.6872 105.9171
" />
<path d="M81.6872 105.9171
L81.6396 105.9648
" />
</g><g transform="rotate(-90.000000 88.6000 134.5000)">
<text x="88.6000" y="135.0000"
textLength="3.9167" font-size="1.3333" lengthAdjust="spacingAndGlyphs"
text-anchor="middle" opacity="0">100k</text>
</g>
<g class="stroked-text"><desc>100k</desc>
<path d="M89.0548 135.5714
L89.0548 136.1429
" />
<path d="M89.0548 135.8571
L88.0548 135.8571
" />
<path d="M88.0548 135.8571
L88.1977 135.9524
" />
<path d="M88.1977 135.9524
L88.2929 136.0476
" />
<path d="M88.2929 136.0476
L88.3405 136.1429
" />
<path d="M88.0548 134.9524
L88.0548 134.8571
" />
<path d="M88.0548 134.8571
L88.1024 134.7619
" />
<path d="M88.1024 134.7619
L88.1501 134.7143
" />
<path d="M88.1501 134.7143
L88.2453 134.6667
" />
<path d="M88.2453 134.6667
L88.4358 134.6190
" />
<path d="M88.4358 134.6190
L88.6739 134.6190
" />
<path d="M88.6739 134.6190
L88.8643 134.6667
" />
<path d="M88.8643 134.6667
L88.9596 134.7143
" />
<path d="M88.9596 134.7143
L89.0072 134.7619
" />
<path d="M89.0072 134.7619
L89.0548 134.8571
" />
<path d="M89.0548 134.8571
L89.0548 134.9524
" />
<path d="M89.0548 134.9524
L89.0072 135.0476
" />
<path d="M89.0072 135.0476
L88.9596 135.0952
" />
<path d="M88.9596 135.0952
L88.8643 135.1429
" />
<path d="M88.8643 135.1429
L88.6739 135.1905
" />
<path d="M88.6739 135.1905
L88.4358 135.1905
" />
<path d="M88.4358 135.1905
L88.2453 135.1429
" />
<path d="M88.2453 135.1429
L88.1501 135.0952
" />
<path d="M88.1501 135.0952
L88.1024 135.0476
" />
<path d="M88.1024 135.0476
L88.0548 134.9524
" />
<path d="M88.0548 134.0000
L88.0548 133.9048
" />
<path d="M88.0548 133.9048
L88.1024 133.8095
" />
<path d="M88.1024 133.8095
L88.1501 133.7619
" />
<path d="M88.1501 133.7619
L88.2453 133.7143
" />
<path d="M88.2453 133.7143
L88.4358 133.6667
" />
<path d="M88.4358 133.6667
L88.6739 133.6667
" />
<path d="M88.6739 133.6667
L88.8643 133.7143
" />
<path d="M88.8643 133.7143
L88.9596 133.7619
" />
<path d="M88.9596 133.7619
L89.0072 133.8095
" />
<path d="M89.0072 133.8095
L89.0548 133.9048
" />
<path d="M89.0548 133.9048
L89.0548 134.0000
" />
<path d="M89.0548 134.0000
L89.0072 134.0952
" />
<path d="M89.0072 134.0952
L88.9596 134.1429
" />
<path d="M88.9596 134.1429
L88.8643 134.1905
" />
<path d="M88.8643 134.1905
L88.6739 134.2381
" />
<path d="M88.6739 134.2381
L88.4358 134.2381
" />
<path d="M88.4358 134.2381
L88.2453 134.1905
" />
<path d="M88.2453 134.1905
L88.1501 134.1429
" />
<path d="M88.1501 134.1429
L88.1024 134.0952
" />
<path d="M88.1024 134.0952
L88.0548 134.0000
" />
<path d="M89.0548 133.2381
L88.0548 133.2381
" />
<path d="M88.6739 133.1429
L89.0548 132.8571
" />
<path d="M88.3882 132.8571
L88.7691 133.2381
" />
</g><g transform="rotate(-90.000000 81.2800 126.8800)">
<text x="81.2800" y="127.3800"
textLength="3.0595" font-size="1.3333" lengthAdjust="spacingAndGlyphs"
text-anchor="middle" opacity="0">RV4</text>
</g>
<g class="stroked-text"><desc>RV4</desc>
<path d="M81.7348 127.4752
L81.2586 127.8086
" />
<path d="M81.7348 128.0467
L80.7348 128.0467
" />
<path d="M80.7348 128.0467
L80.7348 127.6657
" />
<path d="M80.7348 127.6657
L80.7824 127.5705
" />
<path d="M80.7824 127.5705
L80.8301 127.5229
" />
<path d="M80.8301 127.5229
L80.9253 127.4752
" />
<path d="M80.9253 127.4752
L81.0682 127.4752
" />
<path d="M81.0682 127.4752
L81.1634 127.5229
" />
<path d="M81.1634 127.5229
L81.2110 127.5705
" />
<path d="M81.2110 127.5705
L81.2586 127.6657
" />
<path d="M81.2586 127.6657
L81.2586 128.0467
" />
<path d="M80.7348 127.1895
L81.7348 126.8562
" />
<path d="M81.7348 126.8562
L80.7348 126.5229
" />
<path d="M81.0682 125.7610
L81.7348 125.7610
" />
<path d="M80.6872 125.9990
L81.4015 126.2371
" />
<path d="M81.4015 126.2371
L81.4015 125.6181
" />
</g><text x="81.2800" y="159.6700"
textLength="13.5833" font-size="1.3333" lengthAdjust="spacingAndGlyphs"
text-anchor="middle" opacity="0">LED (Red/Yellow)</text>
<g class="stroked-text"><desc>LED (Red/Yellow)</desc>
<path d="M75.3276 159.6248
L74.8514 159.6248
" />
<path d="M74.8514 159.6248
L74.8514 158.6248
" />
<path d="M75.6610 159.1010
L75.9943 159.1010
" />
<path d="M76.1371 159.6248
L75.6610 159.6248
" />
<path d="M75.6610 159.6248
L75.6610 158.6248
" />
<path d="M75.6610 158.6248
L76.1371 158.6248
" />
<path d="M76.5657 159.6248
L76.5657 158.6248
" />
<path d="M76.5657 158.6248
L76.8038 158.6248
" />
<path d="M76.8038 158.6248
L76.9467 158.6724
" />
<path d="M76.9467 158.6724
L77.0419 158.7677
" />
<path d="M77.0419 158.7677
L77.0895 158.8629
" />
<path d="M77.0895 158.8629
L77.1371 159.0534
" />
<path d="M77.1371 159.0534
L77.1371 159.1962
" />
<path d="M77.1371 159.1962
L77.0895 159.3867
" />
<path d="M77.0895 159.3867
L77.0419 159.4820
" />
<path d="M77.0419 159.4820
L76.9467 159.5772
" />
<path d="M76.9467 159.5772
L76.8038 159.6248
" />
<path d="M76.8038 159.6248
L76.5657 159.6248
" />
<path d="M78.6133 160.0058
L78.5657 159.9582
" />
<path d="M78.5657 159.9582
L78.4705 159.8153
" />
<path d="M78.4705 159.8153
L78.4229 159.7201
" />
<path d="M78.4229 159.7201
L78.3752 159.5772
" />
<path d="M78.3752 159.5772
L78.3276 159.3391
" />
<path d="M78.3276 159.3391
L78.3276 159.1486
" />
<path d="M78.3276 159.1486
L78.3752 158.9105
" />
<path d="M78.3752 158.9105
L78.4229 158.7677
" />
<path d="M78.4229 158.7677
L78.4705 158.6724
" />
<path d="M78.4705 158.6724
L78.5657 158.5296
" />
<path d="M78.5657 158.5296
L78.6133 158.4820
" />
<path d="M79.5657 159.6248
L79.2324 159.1486
" />
<path d="M78.9943 159.6248
L78.9943 158.6248
" />
<path d="M78.9943 158.6248
L79.3752 158.6248
" />
<path d="M79.3752 158.6248
L79.4705 158.6724
" />
<path d="M79.4705 158.6724
L79.5181 158.7201
" />
<path d="M79.5181 158.7201
L79.5657 158.8153
" />
<path d="M79.5657 158.8153
L79.5657 158.9582
" />
<path d="M79.5657 158.9582
L79.5181 159.0534
" />
<path d="M79.5181 159.0534
L79.4705 159.1010
" />
<path d="M79.4705 159.1010
L79.3752 159.1486
" />
<path d="M79.3752 159.1486
L78.9943 159.1486
" />
<path d="M80.3752 159.5772
L80.2800 159.6248
" />
<path d="M80.2800 159.6248
L80.0895 159.6248
" />
<path d="M80.0895 159.6248
L79.9943 159.5772
" />
<path d="M79.9943 159.5772
L79.9467 159.4820
" />
<path d="M79.9467 159.4820
L79.9467 159.1010
" />
<path d="M79.9467 159.1010
L79.9943 159.0058
" />
<path d="M79.9943 159.0058
L80.0895 158.9582
" />
<path d="M80.0895 158.9582
L80.2800 158.9582
" />
<path d="M80.2800 158.9582
L80.3752 159.0058
" />
<path d="M80.3752 159.0058
L80.4229 159.1010
" />
<path d="M80.4229 159.1010
L80.4229 159.1962
" />
<path d="M80.4229 159.1962
L79.9467 159.2915
" />
<path d="M81.2800 159.6248
L81.2800 158.6248
" />
<path d="M81.2800 159.5772
L81.1848 159.6248
" />
<path d="M81.1848 159.6248
L80.9943 159.6248
" />
<path d="M80.9943 159.6248
L80.8990 159.5772
" />
<path d="M80.8990 159.5772
L80.8514 159.5296
" />
<path d="M80.8514 159.5296
L80.8038 159.4343
" />
<path d="M80.8038 159.4343
L80.8038 159.1486
" />
<path d="M80.8038 159.1486
L80.8514 159.0534
" />
<path d="M80.8514 159.0534
L80.8990 159.0058
" />
<path d="M80.8990 159.0058
L80.9943 158.9582
" />
<path d="M80.9943 158.9582
L81.1848 158.9582
" />
<path d="M81.1848 158.9582
L81.2800 159.0058
" />
<path d="M82.4705 158.5772
L81.6133 159.8629
" />
<path d="M82.9943 159.1486
L82.9943 159.6248
" />
<path d="M82.6610 158.6248
L82.9943 159.1486
" />
<path d="M82.9943 159.1486
L83.3276 158.6248
" />
<path d="M84.0419 159.5772
L83.9467 159.6248
" />
<path d="M83.9467 159.6248
L83.7562 159.6248
" />
<path d="M83.7562 159.6248
L83.6610 159.5772
" />
<path d="M83.6610 159.5772
L83.6133 159.4820
" />
<path d="M83.6133 159.4820
L83.6133 159.1010
" />
<path d="M83.6133 159.1010
L83.6610 159.0058
" />
<path d="M83.6610 159.0058
L83.7562 158.9582
" />
<path d="M83.7562 158.9582
L83.9467 158.9582
" />
<path d="M83.9467 158.9582
L84.0419 159.0058
" />
<path d="M84.0419 159.0058
L84.0895 159.1010
" />
<path d="M84.0895 159.1010
L84.0895 159.1962
" />
<path d="M84.0895 159.1962
L83.6133 159.2915
" />
<path d="M84.6610 159.6248
L84.5657 159.5772
" />
<path d="M84.5657 159.5772
L84.5181 159.4820
" />
<path d="M84.5181 159.4820
L84.5181 158.6248
" />
<path d="M85.1848 159.6248
L85.0895 159.5772
" />
<path d="M85.0895 159.5772
L85.0419 159.4820
" />
<path d="M85.0419 159.4820
L85.0419 158.6248
" />
<path d="M85.7086 159.6248
L85.6133 159.5772
" />
<path d="M85.6133 159.5772
L85.5657 159.5296
" />
<path d="M85.5657 159.5296
L85.5181 159.4343
" />
<path d="M85.5181 159.4343
L85.5181 159.1486
" />
<path d="M85.5181 159.1486
L85.5657 159.0534
" />
<path d="M85.5657 159.0534
L85.6133 159.0058
" />
<path d="M85.6133 159.0058
L85.7086 158.9582
" />
<path d="M85.7086 158.9582
L85.8514 158.9582
" />
<path d="M85.8514 158.9582
L85.9467 159.0058
" />
<path d="M85.9467 159.0058
L85.9943 159.0534
" />
<path d="M85.9943 159.0534
L86.0419 159.1486
" />
<path d="M86.0419 159.1486
L86.0419 159.4343
" />
<path d="M86.0419 159.4343
L85.9943 159.5296
" />
<path d="M85.9943 159.5296
L85.9467 159.5772
" />
<path d="M85.9467 159.5772
L85.8514 159.6248
" />
<path d="M85.8514 159.6248
L85.7086 159.6248
" />
<path d="M86.3752 158.9582
L86.5657 159.6248
" />
<path d="M86.5657 159.6248
L86.7562 159.1486
" />
<path d="M86.7562 159.1486
L86.9467 159.6248
" />
<path d="M86.9467 159.6248
L87.1371 158.9582
" />
<path d="M87.4229 160.0058
L87.4705 159.9582
" />
<path d="M87.4705 159.9582
L87.5657 159.8153
" />
<path d="M87.5657 159.8153
L87.6133 159.7201
" />
<path d="M87.6133 159.7201
L87.6610 159.5772
" />
<path d="M87.6610 159.5772
L87.7086 159.3391
" />
<path d="M87.7086 159.3391
L87.7086 159.1486
" />
<path d="M87.7086 159.1486
L87.6610 158.9105
" />
<path d="M87.6610 158.9105
L87.6133 158.7677
" />
<path d="M87.6133 158.7677
L87.5657 158.6724
" />
<path d="M87.5657 158.6724
L87.4705 158.5296
" />
<path d="M87.4705 158.5296
L87.4229 158.4820
" />
</g><text x="71.7550" y="69.5000"
textLength="15.0595" font-size="1.3333" lengthAdjust="spacingAndGlyphs"
text-anchor="middle" opacity="0">LED (Green/Yellow)</text>
<g class="stroked-text"><desc>LED (Green/Yellow)</desc>
<path d="M65.0645 69.4548
L64.5883 69.4548
" />
<path d="M64.5883 69.4548
L64.5883 68.4548
" />
<path d="M65.3979 68.9310
L65.7312 68.9310
" />
<path d="M65.8740 69.4548
L65.3979 69.4548
" />
<path d="M65.3979 69.4548
L65.3979 68.4548
" />
<path d="M65.3979 68.4548
L65.8740 68.4548
" />
<path d="M66.3026 69.4548
L66.3026 68.4548
" />
<path d="M66.3026 68.4548
L66.5407 68.4548
" />
<path d="M66.5407 68.4548
L66.6836 68.5024
" />
<path d="M66.6836 68.5024
L66.7788 68.5977
" />
<path d="M66.7788 68.5977
L66.8264 68.6929
" />
<path d="M66.8264 68.6929
L66.8740 68.8834
" />
<path d="M66.8740 68.8834
L66.8740 69.0262
" />
<path d="M66.8740 69.0262
L66.8264 69.2167
" />
<path d="M66.8264 69.2167
L66.7788 69.3120
" />
<path d="M66.7788 69.3120
L66.6836 69.4072
" />
<path d="M66.6836 69.4072
L66.5407 69.4548
" />
<path d="M66.5407 69.4548
L66.3026 69.4548
" />
<path d="M68.3502 69.8358
L68.3026 69.7882
" />
<path d="M68.3026 69.7882
L68.2074 69.6453
" />
<path d="M68.2074 69.6453
L68.1598 69.5501
" />
<path d="M68.1598 69.5501
L68.1121 69.4072
" />
<path d="M68.1121 69.4072
L68.0645 69.1691
" />
<path d="M68.0645 69.1691
L68.0645 68.9786
" />
<path d="M68.0645 68.9786
L68.1121 68.7405
" />
<path d="M68.1121 68.7405
L68.1598 68.5977
" />
<path d="M68.1598 68.5977
L68.2074 68.5024
" />
<path d="M68.2074 68.5024
L68.3026 68.3596
" />
<path d="M68.3026 68.3596
L68.3502 68.3120
" />
<path d="M69.2550 68.5024
L69.1598 68.4548
" />
<path d="M69.1598 68.4548
L69.0169 68.4548
" />
<path d="M69.0169 68.4548
L68.8740 68.5024
" />
<path d="M68.8740 68.5024
L68.7788 68.5977
" />
<path d="M68.7788 68.5977
L68.7312 68.6929
" />
<path d="M68.7312 68.6929
L68.6836 68.8834
" />
<path d="M68.6836 68.8834
L68.6836 69.0262
" />
<path d="M68.6836 69.0262
L68.7312 69.2167
" />
<path d="M68.7312 69.2167
L68.7788 69.3120
" />
<path d="M68.7788 69.3120
L68.8740 69.4072
" />
<path d="M68.8740 69.4072
L69.0169 69.4548
" />
<path d="M69.0169 69.4548
L69.1121 69.4548
" />
<path d="M69.1121 69.4548
L69.2550 69.4072
" />
<path d="M69.2550 69.4072
L69.3026 69.3596
" />
<path d="M69.3026 69.3596
L69.3026 69.0262
" />
<path d="M69.3026 69.0262
L69.1121 69.0262
" />
<path d="M69.7312 69.4548
L69.7312 68.7882
" />
<path d="M69.7312 68.9786
L69.7788 68.8834
" />
<path d="M69.7788 68.8834
L69.8264 68.8358
" />
<path d="M69.8264 68.8358
L69.9217 68.7882
" />
<path d="M69.9217 68.7882
L70.0169 68.7882
" />
<path d="M70.7312 69.4072
L70.6360 69.4548
" />
<path d="M70.6360 69.4548
L70.4455 69.4548
" />
<path d="M70.4455 69.4548
L70.3502 69.4072
" />
<path d="M70.3502 69.4072
L70.3026 69.3120
" />
<path d="M70.3026 69.3120
L70.3026 68.9310
" />
<path d="M70.3026 68.9310
L70.3502 68.8358
" />
<path d="M70.3502 68.8358
L70.4455 68.7882
" />
<path d="M70.4455 68.7882
L70.6360 68.7882
" />
<path d="M70.6360 68.7882
L70.7312 68.8358
" />
<path d="M70.7312 68.8358
L70.7788 68.9310
" />
<path d="M70.7788 68.9310
L70.7788 69.0262
" />
<path d="M70.7788 69.0262
L70.3026 69.1215
" />
<path d="M71.5883 69.4072
L71.4931 69.4548
" />
<path d="M71.4931 69.4548
L71.3026 69.4548
" />
<path d="M71.3026 69.4548
L71.2074 69.4072
" />
<path d="M71.2074 69.4072
L71.1598 69.3120
" />
<path d="M71.1598 69.3120
L71.1598 68.9310
" />
<path d="M71.1598 68.9310
L71.2074 68.8358
" />
<path d="M71.2074 68.8358
L71.3026 68.7882
" />
<path d="M71.3026 68.7882
L71.4931 68.7882
" />
<path d="M71.4931 68.7882
L71.5883 68.8358
" />
<path d="M71.5883 68.8358
L71.6360 68.9310
" />
<path d="M71.6360 68.9310
L71.6360 69.0262
" />
<path d="M71.6360 69.0262
L71.1598 69.1215
" />
<path d="M72.0645 68.7882
L72.0645 69.4548
" />
<path d="M72.0645 68.8834
L72.1121 68.8358
" />
<path d="M72.1121 68.8358
L72.2074 68.7882
" />
<path d="M72.2074 68.7882
L72.3502 68.7882
" />
<path d="M72.3502 68.7882
L72.4455 68.8358
" />
<path d="M72.4455 68.8358
L72.4931 68.9310
" />
<path d="M72.4931 68.9310
L72.4931 69.4548
" />
<path d="M73.6836 68.4072
L72.8264 69.6929
" />
<path d="M74.2074 68.9786
L74.2074 69.4548
" />
<path d="M73.8740 68.4548
L74.2074 68.9786
" />
<path d="M74.2074 68.9786
L74.5407 68.4548
" />
<path d="M75.2550 69.4072
L75.1598 69.4548
" />
<path d="M75.1598 69.4548
L74.9693 69.4548
" />
<path d="M74.9693 69.4548
L74.8740 69.4072
" />
<path d="M74.8740 69.4072
L74.8264 69.3120
" />
<path d="M74.8264 69.3120
L74.8264 68.9310
" />
<path d="M74.8264 68.9310
L74.8740 68.8358
" />
<path d="M74.8740 68.8358
L74.9693 68.7882
" />
<path d="M74.9693 68.7882
L75.1598 68.7882
" />
<path d="M75.1598 68.7882
L75.2550 68.8358
" />
<path d="M75.2550 68.8358
L75.3026 68.9310
" />
<path d="M75.3026 68.9310
L75.3026 69.0262
" />
<path d="M75.3026 69.0262
L74.8264 69.1215
" />
<path d="M75.8740 69.4548
L75.7788 69.4072
" />
<path d="M75.7788 69.4072
L75.7312 69.3120
" />
<path d="M75.7312 69.3120
L75.7312 68.4548
" />
<path d="M76.3979 69.4548
L76.3026 69.4072
" />
<path d="M76.3026 69.4072
L76.2550 69.3120
" />
<path d="M76.2550 69.3120
L76.2550 68.4548
" />
<path d="M76.9217 69.4548
L76.8264 69.4072
" />
<path d="M76.8264 69.4072
L76.7788 69.3596
" />
<path d="M76.7788 69.3596
L76.7312 69.2643
" />
<path d="M76.7312 69.2643
L76.7312 68.9786
" />
<path d="M76.7312 68.9786
L76.7788 68.8834
" />
<path d="M76.7788 68.8834
L76.8264 68.8358
" />
<path d="M76.8264 68.8358
L76.9217 68.7882
" />
<path d="M76.9217 68.7882
L77.0645 68.7882
" />
<path d="M77.0645 68.7882
L77.1598 68.8358
" />
<path d="M77.1598 68.8358
L77.2074 68.8834
" />
<path d="M77.2074 68.8834
L77.2550 68.9786
" />
<path d="M77.2550 68.9786
L77.2550 69.2643
" />
<path d="M77.2550 69.2643
L77.2074 69.3596
" />
<path d="M77.2074 69.3596
L77.1598 69.4072
" />
<path d="M77.1598 69.4072
L77.0645 69.4548
" />
<path d="M77.0645 69.4548
L76.9217 69.4548
" />
<path d="M77.5883 68.7882
L77.7788 69.4548
" />
<path d="M77.7788 69.4548
L77.9693 68.9786
" />
<path d="M77.9693 68.9786
L78.1598 69.4548
" />
<path d="M78.1598 69.4548
L78.3502 68.7882
" />
<path d="M78.6360 69.8358
L78.6836 69.7882
" />
<path d="M78.6836 69.7882
L78.7788 69.6453
" />
<path d="M78.7788 69.6453
L78.8264 69.5501
" />
<path d="M78.8264 69.5501
L78.8740 69.4072
" />
<path d="M78.8740 69.4072
L78.9217 69.1691
" />
<path d="M78.9217 69.1691
L78.9217 68.9786
" />
<path d="M78.9217 68.9786
L78.8740 68.7405
" />
<path d="M78.8740 68.7405
L78.8264 68.5977
" />
<path d="M78.8264 68.5977
L78.7788 68.5024
" />
<path d="M78.7788 68.5024
L78.6836 68.3596
" />
<path d="M78.6836 68.3596
L78.6360 68.3120
" />
</g><text x="71.7550" y="110.1400"
textLength="15.0595" font-size="1.3333" lengthAdjust="spacingAndGlyphs"
text-anchor="middle" opacity="0">LED (Green/Yellow)</text>
<g class="stroked-text"><desc>LED (Green/Yellow)</desc>
<path d="M65.0645 110.0948
L64.5883 110.0948
" />
<path d="M64.5883 110.0948
L64.5883 109.0948
" />
<path d="M65.3979 109.5710
L65.7312 109.5710
" />
<path d="M65.8740 110.0948
L65.3979 110.0948
" />
<path d="M65.3979 110.0948
L65.3979 109.0948
" />
<path d="M65.3979 109.0948
L65.8740 109.0948
" />
<path d="M66.3026 110.0948
L66.3026 109.0948
" />
<path d="M66.3026 109.0948
L66.5407 109.0948
" />
<path d="M66.5407 109.0948
L66.6836 109.1424
" />
<path d="M66.6836 109.1424
L66.7788 109.2377
" />
<path d="M66.7788 109.2377
L66.8264 109.3329
" />
<path d="M66.8264 109.3329
L66.8740 109.5234
" />
<path d="M66.8740 109.5234
L66.8740 109.6662
" />
<path d="M66.8740 109.6662
L66.8264 109.8567
" />
<path d="M66.8264 109.8567
L66.7788 109.9520
" />
<path d="M66.7788 109.9520
L66.6836 110.0472
" />
<path d="M66.6836 110.0472
L66.5407 110.0948
" />
<path d="M66.5407 110.0948
L66.3026 110.0948
" />
<path d="M68.3502 110.4758
L68.3026 110.4282
" />
<path d="M68.3026 110.4282
L68.2074 110.2853
" />
<path d="M68.2074 110.2853
L68.1598 110.1901
" />
<path d="M68.1598 110.1901
L68.1121 110.0472
" />
<path d="M68.1121 110.0472
L68.0645 109.8091
" />
<path d="M68.0645 109.8091
L68.0645 109.6186
" />
<path d="M68.0645 109.6186
L68.1121 109.3805
" />
<path d="M68.1121 109.3805
L68.1598 109.2377
" />
<path d="M68.1598 109.2377
L68.2074 109.1424
" />
<path d="M68.2074 109.1424
L68.3026 108.9996
" />
<path d="M68.3026 108.9996
L68.3502 108.9520
" />
<path d="M69.2550 109.1424
L69.1598 109.0948
" />
<path d="M69.1598 109.0948
L69.0169 109.0948
" />
<path d="M69.0169 109.0948
L68.8740 109.1424
" />
<path d="M68.8740 109.1424
L68.7788 109.2377
" />
<path d="M68.7788 109.2377
L68.7312 109.3329
" />
<path d="M68.7312 109.3329
L68.6836 109.5234
" />
<path d="M68.6836 109.5234
L68.6836 109.6662
" />
<path d="M68.6836 109.6662
L68.7312 109.8567
" />
<path d="M68.7312 109.8567
L68.7788 109.9520
" />
<path d="M68.7788 109.9520
L68.8740 110.0472
" />
<path d="M68.8740 110.0472
L69.0169 110.0948
" />
<path d="M69.0169 110.0948
L69.1121 110.0948
" />
<path d="M69.1121 110.0948
L69.2550 110.0472
" />
<path d="M69.2550 110.0472
L69.3026 109.9996
" />
<path d="M69.3026 109.9996
L69.3026 109.6662
" />
<path d="M69.3026 109.6662
L69.1121 109.6662
" />
<path d="M69.7312 110.0948
L69.7312 109.4282
" />
<path d="M69.7312 109.6186
L69.7788 109.5234
" />
<path d="M69.7788 109.5234
L69.8264 109.4758
" />
<path d="M69.8264 109.4758
L69.9217 109.4282
" />
<path d="M69.9217 109.4282
L70.0169 109.4282
" />
<path d="M70.7312 110.0472
L70.6360 110.0948
" />
<path d="M70.6360 110.0948
L70.4455 110.0948
" />
<path d="M70.4455 110.0948
L70.3502 110.0472
" />
<path d="M70.3502 110.0472
L70.3026 109.9520
" />
<path d="M70.3026 109.9520
L70.3026 109.5710
" />
<path d="M70.3026 109.5710
L70.3502 109.4758
" />
<path d="M70.3502 109.4758
L70.4455 109.4282
" />
<path d="M70.4455 109.4282
L70.6360 109.4282
" />
<path d="M70.6360 109.4282
L70.7312 109.4758
" />
<path d="M70.7312 109.4758
L70.7788 109.5710
" />
<path d="M70.7788 109.5710
L70.7788 109.6662
" />
<path d="M70.7788 109.6662
L70.3026 109.7615
" />
<path d="M71.5883 110.0472
L71.4931 110.0948
" />
<path d="M71.4931 110.0948
L71.3026 110.0948
" />
<path d="M71.3026 110.0948
L71.2074 110.0472
" />
<path d="M71.2074 110.0472
L71.1598 109.9520
" />
<path d="M71.1598 109.9520
L71.1598 109.5710
" />
<path d="M71.1598 109.5710
L71.2074 109.4758
" />
<path d="M71.2074 109.4758
L71.3026 109.4282
" />
<path d="M71.3026 109.4282
L71.4931 109.4282
" />
<path d="M71.4931 109.4282
L71.5883 109.4758
" />
<path d="M71.5883 109.4758
L71.6360 109.5710
" />
<path d="M71.6360 109.5710
L71.6360 109.6662
" />
<path d="M71.6360 109.6662
L71.1598 109.7615
" />
<path d="M72.0645 109.4282
L72.0645 110.0948
" />
<path d="M72.0645 109.5234
L72.1121 109.4758
" />
<path d="M72.1121 109.4758
L72.2074 109.4282
" />
<path d="M72.2074 109.4282
L72.3502 109.4282
" />
<path d="M72.3502 109.4282
L72.4455 109.4758
" />
<path d="M72.4455 109.4758
L72.4931 109.5710
" />
<path d="M72.4931 109.5710
L72.4931 110.0948
" />
<path d="M73.6836 109.0472
L72.8264 110.3329
" />
<path d="M74.2074 109.6186
L74.2074 110.0948
" />
<path d="M73.8740 109.0948
L74.2074 109.6186
" />
<path d="M74.2074 109.6186
L74.5407 109.0948
" />
<path d="M75.2550 110.0472
L75.1598 110.0948
" />
<path d="M75.1598 110.0948
L74.9693 110.0948
" />
<path d="M74.9693 110.0948
L74.8740 110.0472
" />
<path d="M74.8740 110.0472
L74.8264 109.9520
" />
<path d="M74.8264 109.9520
L74.8264 109.5710
" />
<path d="M74.8264 109.5710
L74.8740 109.4758
" />
<path d="M74.8740 109.4758
L74.9693 109.4282
" />
<path d="M74.9693 109.4282
L75.1598 109.4282
" />
<path d="M75.1598 109.4282
L75.2550 109.4758
" />
<path d="M75.2550 109.4758
L75.3026 109.5710
" />
<path d="M75.3026 109.5710
L75.3026 109.6662
" />
<path d="M75.3026 109.6662
L74.8264 109.7615
" />
<path d="M75.8740 110.0948
L75.7788 110.0472
" />
<path d="M75.7788 110.0472
L75.7312 109.9520
" />
<path d="M75.7312 109.9520
L75.7312 109.0948
" />
<path d="M76.3979 110.0948
L76.3026 110.0472
" />
<path d="M76.3026 110.0472
L76.2550 109.9520
" />
<path d="M76.2550 109.9520
L76.2550 109.0948
" />
<path d="M76.9217 110.0948
L76.8264 110.0472
" />
<path d="M76.8264 110.0472
L76.7788 109.9996
" />
<path d="M76.7788 109.9996
L76.7312 109.9043
" />
<path d="M76.7312 109.9043
L76.7312 109.6186
" />
<path d="M76.7312 109.6186
L76.7788 109.5234
" />
<path d="M76.7788 109.5234
L76.8264 109.4758
" />
<path d="M76.8264 109.4758
L76.9217 109.4282
" />
<path d="M76.9217 109.4282
L77.0645 109.4282
" />
<path d="M77.0645 109.4282
L77.1598 109.4758
" />
<path d="M77.1598 109.4758
L77.2074 109.5234
" />
<path d="M77.2074 109.5234
L77.2550 109.6186
" />
<path d="M77.2550 109.6186
L77.2550 109.9043
" />
<path d="M77.2550 109.9043
L77.2074 109.9996
" />
<path d="M77.2074 109.9996
L77.1598 110.0472
" />
<path d="M77.1598 110.0472
L77.0645 110.0948
" />
<path d="M77.0645 110.0948
L76.9217 110.0948
" />
<path d="M77.5883 109.4282
L77.7788 110.0948
" />
<path d="M77.7788 110.0948
L77.9693 109.6186
" />
<path d="M77.9693 109.6186
L78.1598 110.0948
" />
<path d="M78.1598 110.0948
L78.3502 109.4282
" />
<path d="M78.6360 110.4758
L78.6836 110.4282
" />
<path d="M78.6836 110.4282
L78.7788 110.2853
" />
<path d="M78.7788 110.2853
L78.8264 110.1901
" />
<path d="M78.8264 110.1901
L78.8740 110.0472
" />
<path d="M78.8740 110.0472
L78.9217 109.8091
" />
<path d="M78.9217 109.8091
L78.9217 109.6186
" />
<path d="M78.9217 109.6186
L78.8740 109.3805
" />
<path d="M78.8740 109.3805
L78.8264 109.2377
" />
<path d="M78.8264 109.2377
L78.7788 109.1424
" />
<path d="M78.7788 109.1424
L78.6836 108.9996
" />
<path d="M78.6836 108.9996
L78.6360 108.9520
" />
</g><text x="71.7550" y="89.8200"
textLength="15.0595" font-size="1.3333" lengthAdjust="spacingAndGlyphs"
text-anchor="middle" opacity="0">LED (Green/Yellow)</text>
<g class="stroked-text"><desc>LED (Green/Yellow)</desc>
<path d="M65.0645 89.7748
L64.5883 89.7748
" />
<path d="M64.5883 89.7748
L64.5883 88.7748
" />
<path d="M65.3979 89.2510
L65.7312 89.2510
" />
<path d="M65.8740 89.7748
L65.3979 89.7748
" />
<path d="M65.3979 89.7748
L65.3979 88.7748
" />
<path d="M65.3979 88.7748
L65.8740 88.7748
" />
<path d="M66.3026 89.7748
L66.3026 88.7748
" />
<path d="M66.3026 88.7748
L66.5407 88.7748
" />
<path d="M66.5407 88.7748
L66.6836 88.8224
" />
<path d="M66.6836 88.8224
L66.7788 88.9177
" />
<path d="M66.7788 88.9177
L66.8264 89.0129
" />
<path d="M66.8264 89.0129
L66.8740 89.2034
" />
<path d="M66.8740 89.2034
L66.8740 89.3462
" />
<path d="M66.8740 89.3462
L66.8264 89.5367
" />
<path d="M66.8264 89.5367
L66.7788 89.6320
" />
<path d="M66.7788 89.6320
L66.6836 89.7272
" />
<path d="M66.6836 89.7272
L66.5407 89.7748
" />
<path d="M66.5407 89.7748
L66.3026 89.7748
" />
<path d="M68.3502 90.1558
L68.3026 90.1082
" />
<path d="M68.3026 90.1082
L68.2074 89.9653
" />
<path d="M68.2074 89.9653
L68.1598 89.8701
" />
<path d="M68.1598 89.8701
L68.1121 89.7272
" />
<path d="M68.1121 89.7272
L68.0645 89.4891
" />
<path d="M68.0645 89.4891
L68.0645 89.2986
" />
<path d="M68.0645 89.2986
L68.1121 89.0605
" />
<path d="M68.1121 89.0605
L68.1598 88.9177
" />
<path d="M68.1598 88.9177
L68.2074 88.8224
" />
<path d="M68.2074 88.8224
L68.3026 88.6796
" />
<path d="M68.3026 88.6796
L68.3502 88.6320
" />
<path d="M69.2550 88.8224
L69.1598 88.7748
" />
<path d="M69.1598 88.7748
L69.0169 88.7748
" />
<path d="M69.0169 88.7748
L68.8740 88.8224
" />
<path d="M68.8740 88.8224
L68.7788 88.9177
" />
<path d="M68.7788 88.9177
L68.7312 89.0129
" />
<path d="M68.7312 89.0129
L68.6836 89.2034
" />
<path d="M68.6836 89.2034
L68.6836 89.3462
" />
<path d="M68.6836 89.3462
L68.7312 89.5367
" />
<path d="M68.7312 89.5367
L68.7788 89.6320
" />
<path d="M68.7788 89.6320
L68.8740 89.7272
" />
<path d="M68.8740 89.7272
L69.0169 89.7748
" />
<path d="M69.0169 89.7748
L69.1121 89.7748
" />
<path d="M69.1121 89.7748
L69.2550 89.7272
" />
<path d="M69.2550 89.7272
L69.3026 89.6796
" />
<path d="M69.3026 89.6796
L69.3026 89.3462
" />
<path d="M69.3026 89.3462
L69.1121 89.3462
" />
<path d="M69.7312 89.7748
L69.7312 89.1082
" />
<path d="M69.7312 89.2986
L69.7788 89.2034
" />
<path d="M69.7788 89.2034
L69.8264 89.1558
" />
<path d="M69.8264 89.1558
L69.9217 89.1082
" />
<path d="M69.9217 89.1082
L70.0169 89.1082
" />
<path d="M70.7312 89.7272
L70.6360 89.7748
" />
<path d="M70.6360 89.7748
L70.4455 89.7748
" />
<path d="M70.4455 89.7748
L70.3502 89.7272
" />
<path d="M70.3502 89.7272
L70.3026 89.6320
" />
<path d="M70.3026 89.6320
L70.3026 89.2510
" />
<path d="M70.3026 89.2510
L70.3502 89.1558
" />
<path d="M70.3502 89.1558
L70.4455 89.1082
" />
<path d="M70.4455 89.1082
L70.6360 89.1082
" />
<path d="M70.6360 89.1082
L70.7312 89.1558
" />
<path d="M70.7312 89.1558
L70.7788 89.2510
" />
<path d="M70.7788 89.2510
L70.7788 89.3462
" />
<path d="M70.7788 89.3462
L70.3026 89.4415
" />
<path d="M71.5883 89.7272
L71.4931 89.7748
" />
<path d="M71.4931 89.7748
L71.3026 89.7748
" />
<path d="M71.3026 89.7748
L71.2074 89.7272
" />
<path d="M71.2074 89.7272
L71.1598 89.6320
" />
<path d="M71.1598 89.6320
L71.1598 89.2510
" />
<path d="M71.1598 89.2510
L71.2074 89.1558
" />
<path d="M71.2074 89.1558
L71.3026 89.1082
" />
<path d="M71.3026 89.1082
L71.4931 89.1082
" />
<path d="M71.4931 89.1082
L71.5883 89.1558
" />
<path d="M71.5883 89.1558
L71.6360 89.2510
" />
<path d="M71.6360 89.2510
L71.6360 89.3462
" />
<path d="M71.6360 89.3462
L71.1598 89.4415
" />
<path d="M72.0645 89.1082
L72.0645 89.7748
" />
<path d="M72.0645 89.2034
L72.1121 89.1558
" />
<path d="M72.1121 89.1558
L72.2074 89.1082
" />
<path d="M72.2074 89.1082
L72.3502 89.1082
" />
<path d="M72.3502 89.1082
L72.4455 89.1558
" />
<path d="M72.4455 89.1558
L72.4931 89.2510
" />
<path d="M72.4931 89.2510
L72.4931 89.7748
" />
<path d="M73.6836 88.7272
L72.8264 90.0129
" />
<path d="M74.2074 89.2986
L74.2074 89.7748
" />
<path d="M73.8740 88.7748
L74.2074 89.2986
" />
<path d="M74.2074 89.2986
L74.5407 88.7748
" />
<path d="M75.2550 89.7272
L75.1598 89.7748
" />
<path d="M75.1598 89.7748
L74.9693 89.7748
" />
<path d="M74.9693 89.7748
L74.8740 89.7272
" />
<path d="M74.8740 89.7272
L74.8264 89.6320
" />
<path d="M74.8264 89.6320
L74.8264 89.2510
" />
<path d="M74.8264 89.2510
L74.8740 89.1558
" />
<path d="M74.8740 89.1558
L74.9693 89.1082
" />
<path d="M74.9693 89.1082
L75.1598 89.1082
" />
<path d="M75.1598 89.1082
L75.2550 89.1558
" />
<path d="M75.2550 89.1558
L75.3026 89.2510
" />
<path d="M75.3026 89.2510
L75.3026 89.3462
" />
<path d="M75.3026 89.3462
L74.8264 89.4415
" />
<path d="M75.8740 89.7748
L75.7788 89.7272
" />
<path d="M75.7788 89.7272
L75.7312 89.6320
" />
<path d="M75.7312 89.6320
L75.7312 88.7748
" />
<path d="M76.3979 89.7748
L76.3026 89.7272
" />
<path d="M76.3026 89.7272
L76.2550 89.6320
" />
<path d="M76.2550 89.6320
L76.2550 88.7748
" />
<path d="M76.9217 89.7748
L76.8264 89.7272
" />
<path d="M76.8264 89.7272
L76.7788 89.6796
" />
<path d="M76.7788 89.6796
L76.7312 89.5843
" />
<path d="M76.7312 89.5843
L76.7312 89.2986
" />
<path d="M76.7312 89.2986
L76.7788 89.2034
" />
<path d="M76.7788 89.2034
L76.8264 89.1558
" />
<path d="M76.8264 89.1558
L76.9217 89.1082
" />
<path d="M76.9217 89.1082
L77.0645 89.1082
" />
<path d="M77.0645 89.1082
L77.1598 89.1558
" />
<path d="M77.1598 89.1558
L77.2074 89.2034
" />
<path d="M77.2074 89.2034
L77.2550 89.2986
" />
<path d="M77.2550 89.2986
L77.2550 89.5843
" />
<path d="M77.2550 89.5843
L77.2074 89.6796
" />
<path d="M77.2074 89.6796
L77.1598 89.7272
" />
<path d="M77.1598 89.7272
L77.0645 89.7748
" />
<path d="M77.0645 89.7748
L76.9217 89.7748
" />
<path d="M77.5883 89.1082
L77.7788 89.7748
" />
<path d="M77.7788 89.7748
L77.9693 89.2986
" />
<path d="M77.9693 89.2986
L78.1598 89.7748
" />
<path d="M78.1598 89.7748
L78.3502 89.1082
" />
<path d="M78.6360 90.1558
L78.6836 90.1082
" />
<path d="M78.6836 90.1082
L78.7788 89.9653
" />
<path d="M78.7788 89.9653
L78.8264 89.8701
" />
<path d="M78.8264 89.8701
L78.8740 89.7272
" />
<path d="M78.8740 89.7272
L78.9217 89.4891
" />
<path d="M78.9217 89.4891
L78.9217 89.2986
" />
<path d="M78.9217 89.2986
L78.8740 89.0605
" />
<path d="M78.8740 89.0605
L78.8264 88.9177
" />
<path d="M78.8264 88.9177
L78.7788 88.8224
" />
<path d="M78.7788 88.8224
L78.6836 88.6796
" />
<path d="M78.6836 88.6796
L78.6360 88.6320
" />
</g><text x="71.7550" y="130.4600"
textLength="15.0595" font-size="1.3333" lengthAdjust="spacingAndGlyphs"
text-anchor="middle" opacity="0">LED (Green/Yellow)</text>
<g class="stroked-text"><desc>LED (Green/Yellow)</desc>
<path d="M65.0645 130.4148
L64.5883 130.4148
" />
<path d="M64.5883 130.4148
L64.5883 129.4148
" />
<path d="M65.3979 129.8910
L65.7312 129.8910
" />
<path d="M65.8740 130.4148
L65.3979 130.4148
" />
<path d="M65.3979 130.4148
L65.3979 129.4148
" />
<path d="M65.3979 129.4148
L65.8740 129.4148
" />
<path d="M66.3026 130.4148
L66.3026 129.4148
" />
<path d="M66.3026 129.4148
L66.5407 129.4148
" />
<path d="M66.5407 129.4148
L66.6836 129.4624
" />
<path d="M66.6836 129.4624
L66.7788 129.5577
" />
<path d="M66.7788 129.5577
L66.8264 129.6529
" />
<path d="M66.8264 129.6529
L66.8740 129.8434
" />
<path d="M66.8740 129.8434
L66.8740 129.9862
" />
<path d="M66.8740 129.9862
L66.8264 130.1767
" />
<path d="M66.8264 130.1767
L66.7788 130.2720
" />
<path d="M66.7788 130.2720
L66.6836 130.3672
" />
<path d="M66.6836 130.3672
L66.5407 130.4148
" />
<path d="M66.5407 130.4148
L66.3026 130.4148
" />
<path d="M68.3502 130.7958
L68.3026 130.7482
" />
<path d="M68.3026 130.7482
L68.2074 130.6053
" />
<path d="M68.2074 130.6053
L68.1598 130.5101
" />
<path d="M68.1598 130.5101
L68.1121 130.3672
" />
<path d="M68.1121 130.3672
L68.0645 130.1291
" />
<path d="M68.0645 130.1291
L68.0645 129.9386
" />
<path d="M68.0645 129.9386
L68.1121 129.7005
" />
<path d="M68.1121 129.7005
L68.1598 129.5577
" />
<path d="M68.1598 129.5577
L68.2074 129.4624
" />
<path d="M68.2074 129.4624
L68.3026 129.3196
" />
<path d="M68.3026 129.3196
L68.3502 129.2720
" />
<path d="M69.2550 129.4624
L69.1598 129.4148
" />
<path d="M69.1598 129.4148
L69.0169 129.4148
" />
<path d="M69.0169 129.4148
L68.8740 129.4624
" />
<path d="M68.8740 129.4624
L68.7788 129.5577
" />
<path d="M68.7788 129.5577
L68.7312 129.6529
" />
<path d="M68.7312 129.6529
L68.6836 129.8434
" />
<path d="M68.6836 129.8434
L68.6836 129.9862
" />
<path d="M68.6836 129.9862
L68.7312 130.1767
" />
<path d="M68.7312 130.1767
L68.7788 130.2720
" />
<path d="M68.7788 130.2720
L68.8740 130.3672
" />
<path d="M68.8740 130.3672
L69.0169 130.4148
" />
<path d="M69.0169 130.4148
L69.1121 130.4148
" />
<path d="M69.1121 130.4148
L69.2550 130.3672
" />
<path d="M69.2550 130.3672
L69.3026 130.3196
" />
<path d="M69.3026 130.3196
L69.3026 129.9862
" />
<path d="M69.3026 129.9862
L69.1121 129.9862
" />
<path d="M69.7312 130.4148
L69.7312 129.7482
" />
<path d="M69.7312 129.9386
L69.7788 129.8434
" />
<path d="M69.7788 129.8434
L69.8264 129.7958
" />
<path d="M69.8264 129.7958
L69.9217 129.7482
" />
<path d="M69.9217 129.7482
L70.0169 129.7482
" />
<path d="M70.7312 130.3672
L70.6360 130.4148
" />
<path d="M70.6360 130.4148
L70.4455 130.4148
" />
<path d="M70.4455 130.4148
L70.3502 130.3672
" />
<path d="M70.3502 130.3672
L70.3026 130.2720
" />
<path d="M70.3026 130.2720
L70.3026 129.8910
" />
<path d="M70.3026 129.8910
L70.3502 129.7958
" />
<path d="M70.3502 129.7958
L70.4455 129.7482
" />
<path d="M70.4455 129.7482
L70.6360 129.7482
" />
<path d="M70.6360 129.7482
L70.7312 129.7958
" />
<path d="M70.7312 129.7958
L70.7788 129.8910
" />
<path d="M70.7788 129.8910
L70.7788 129.9862
" />
<path d="M70.7788 129.9862
L70.3026 130.0815
" />
<path d="M71.5883 130.3672
L71.4931 130.4148
" />
<path d="M71.4931 130.4148
L71.3026 130.4148
" />
<path d="M71.3026 130.4148
L71.2074 130.3672
" />
<path d="M71.2074 130.3672
L71.1598 130.2720
" />
<path d="M71.1598 130.2720
L71.1598 129.8910
" />
<path d="M71.1598 129.8910
L71.2074 129.7958
" />
<path d="M71.2074 129.7958
L71.3026 129.7482
" />
<path d="M71.3026 129.7482
L71.4931 129.7482
" />
<path d="M71.4931 129.7482
L71.5883 129.7958
" />
<path d="M71.5883 129.7958
L71.6360 129.8910
" />
<path d="M71.6360 129.8910
L71.6360 129.9862
" />
<path d="M71.6360 129.9862
L71.1598 130.0815
" />
<path d="M72.0645 129.7482
L72.0645 130.4148
" />
<path d="M72.0645 129.8434
L72.1121 129.7958
" />
<path d="M72.1121 129.7958
L72.2074 129.7482
" />
<path d="M72.2074 129.7482
L72.3502 129.7482
" />
<path d="M72.3502 129.7482
L72.4455 129.7958
" />
<path d="M72.4455 129.7958
L72.4931 129.8910
" />
<path d="M72.4931 129.8910
L72.4931 130.4148
" />
<path d="M73.6836 129.3672
L72.8264 130.6529
" />
<path d="M74.2074 129.9386
L74.2074 130.4148
" />
<path d="M73.8740 129.4148
L74.2074 129.9386
" />
<path d="M74.2074 129.9386
L74.5407 129.4148
" />
<path d="M75.2550 130.3672
L75.1598 130.4148
" />
<path d="M75.1598 130.4148
L74.9693 130.4148
" />
<path d="M74.9693 130.4148
L74.8740 130.3672
" />
<path d="M74.8740 130.3672
L74.8264 130.2720
" />
<path d="M74.8264 130.2720
L74.8264 129.8910
" />
<path d="M74.8264 129.8910
L74.8740 129.7958
" />
<path d="M74.8740 129.7958
L74.9693 129.7482
" />
<path d="M74.9693 129.7482
L75.1598 129.7482
" />
<path d="M75.1598 129.7482
L75.2550 129.7958
" />
<path d="M75.2550 129.7958
L75.3026 129.8910
" />
<path d="M75.3026 129.8910
L75.3026 129.9862
" />
<path d="M75.3026 129.9862
L74.8264 130.0815
" />
<path d="M75.8740 130.4148
L75.7788 130.3672
" />
<path d="M75.7788 130.3672
L75.7312 130.2720
" />
<path d="M75.7312 130.2720
L75.7312 129.4148
" />
<path d="M76.3979 130.4148
L76.3026 130.3672
" />
<path d="M76.3026 130.3672
L76.2550 130.2720
" />
<path d="M76.2550 130.2720
L76.2550 129.4148
" />
<path d="M76.9217 130.4148
L76.8264 130.3672
" />
<path d="M76.8264 130.3672
L76.7788 130.3196
" />
<path d="M76.7788 130.3196
L76.7312 130.2243
" />
<path d="M76.7312 130.2243
L76.7312 129.9386
" />
<path d="M76.7312 129.9386
L76.7788 129.8434
" />
<path d="M76.7788 129.8434
L76.8264 129.7958
" />
<path d="M76.8264 129.7958
L76.9217 129.7482
" />
<path d="M76.9217 129.7482
L77.0645 129.7482
" />
<path d="M77.0645 129.7482
L77.1598 129.7958
" />
<path d="M77.1598 129.7958
L77.2074 129.8434
" />
<path d="M77.2074 129.8434
L77.2550 129.9386
" />
<path d="M77.2550 129.9386
L77.2550 130.2243
" />
<path d="M77.2550 130.2243
L77.2074 130.3196
" />
<path d="M77.2074 130.3196
L77.1598 130.3672
" />
<path d="M77.1598 130.3672
L77.0645 130.4148
" />
<path d="M77.0645 130.4148
L76.9217 130.4148
" />
<path d="M77.5883 129.7482
L77.7788 130.4148
" />
<path d="M77.7788 130.4148
L77.9693 129.9386
" />
<path d="M77.9693 129.9386
L78.1598 130.4148
" />
<path d="M78.1598 130.4148
L78.3502 129.7482
" />
<path d="M78.6360 130.7958
L78.6836 130.7482
" />
<path d="M78.6836 130.7482
L78.7788 130.6053
" />
<path d="M78.7788 130.6053
L78.8264 130.5101
" />
<path d="M78.8264 130.5101
L78.8740 130.3672
" />
<path d="M78.8740 130.3672
L78.9217 130.1291
" />
<path d="M78.9217 130.1291
L78.9217 129.9386
" />
<path d="M78.9217 129.9386
L78.8740 129.7005
" />
<path d="M78.8740 129.7005
L78.8264 129.5577
" />
<path d="M78.8264 129.5577
L78.7788 129.4624
" />
<path d="M78.7788 129.4624
L78.6836 129.3196
" />
<path d="M78.6836 129.3196
L78.6360 129.2720
" />
</g></g>
<g style="fill:#000000; fill-opacity:0.0; 
stroke:#000000; stroke-width:0.1000; stroke-opacity:1; 
stroke-linecap:round; stroke-linejoin:round;">
<path d="M67.4400 60.9600
L65.4100 60.9600
" />
<circle cx="60.9600" cy="60.9600" r="1.8000" /> 
<path d="M67.4400 81.2800
L65.4100 81.2800
" />
<circle cx="60.9600" cy="81.2800" r="1.8000" /> 
<path d="M67.4400 101.6000
L65.4100 101.6000
" />
<circle cx="60.9600" cy="101.6000" r="1.8000" /> 
<path d="M67.4400 121.9200
L65.4100 121.9200
" />
<circle cx="60.9600" cy="121.9200" r="1.8000" /> 
<path d="M67.4400 71.1200
L65.4100 71.1200
" />
<circle cx="60.9600" cy="71.1200" r="1.8000" /> 
<path d="M67.4400 91.4400
L65.4100 91.4400
" />
<circle cx="60.9600" cy="91.4400" r="1.8000" /> 
<path d="M67.4400 111.7600
L65.4100 111.7600
" />
<circle cx="60.9600" cy="111.7600" r="1.8000" /> 
<path d="M67.4400 132.0800
L65.4100 132.0800
" />
<circle cx="60.9600" cy="132.0800" r="1.8000" /> 
<path d="M81.2800 140.8400
L81.2800 142.8700
" />
<circle cx="81.2800" cy="147.3200" r="1.8000" /> 
<path d="M76.4900 72.5400
L76.4900 61.1900
" />
<path d="M85.9900 72.5400
L76.4900 72.5400
" />
<path d="M85.9900 72.5400
L85.9900 61.1900
" />
<path d="M85.9900 61.1900
L76.4900 61.1900
" />
<circle cx="81.2400" cy="66.0400" r="3.5000" /> 
<path d="M76.4900 92.8600
L76.4900 81.5100
" />
<path d="M85.9900 92.8600
L76.4900 92.8600
" />
<path d="M85.9900 92.8600
L85.9900 81.5100
" />
<path d="M85.9900 81.5100
L76.4900 81.5100
" />
<circle cx="81.2400" cy="86.3600" r="3.5000" /> 
<path d="M76.4900 113.1800
L76.4900 101.8300
" />
<path d="M85.9900 113.1800
L76.4900 113.1800
" />
<path d="M85.9900 113.1800
L85.9900 101.8300
" />
<path d="M85.9900 101.8300
L76.4900 101.8300
" />
<circle cx="81.2400" cy="106.6800" r="3.5000" /> 
<path d="M76.4900 133.5000
L76.4900 122.1500
" />
<path d="M85.9900 133.5000
L76.4900 133.5000
" />
<path d="M85.9900 133.5000
L85.9900 122.1500
" />
<path d="M85.9900 122.1500
L76.4900 122.1500
" />
<circle cx="81.2400" cy="127.0000" r="3.5000" /> 
<path d="M79.7800 155.0438
L79.7800 157.3762
" />
<path d="M79.7794 157.3755 A1.9000 1.9000 0.0 1 0 79.7800 155.0438" />
<circle cx="81.2800" cy="156.2100" r="1.5000" /> 
<path d="M70.2550 64.8738
L70.2550 67.2062
" />
<path d="M70.2544 67.2055 A1.9000 1.9000 0.0 1 0 70.2550 64.8738" />
<circle cx="71.7550" cy="66.0400" r="1.5000" /> 
<path d="M70.2550 105.5138
L70.2550 107.8462
" />
<path d="M70.2544 107.8455 A1.9000 1.9000 0.0 1 0 70.2550 105.5138" />
<circle cx="71.7550" cy="106.6800" r="1.5000" /> 
<path d="M70.2550 85.1938
L70.2550 87.5262
" />
<path d="M70.2544 87.5255 A1.9000 1.9000 0.0 1 0 70.2550 85.1938" />
<circle cx="71.7550" cy="86.3600" r="1.5000" /> 
<path d="M70.2550 125.8338
L70.2550 128.1662
" />
<path d="M70.2544 128.1655 A1.9000 1.9000 0.0 1 0 70.2550 125.8338" />
<circle cx="71.7550" cy="127.0000" r="1.5000" /> 
<g >
</g>
<g >
</g>
<g >
</g>
<g >
</g>
<g >
</g>
<g >
</g>
<g >
</g>
<g >
</g>
<g >
</g>
<g >
</g>
<g >
</g>
<g >
</g>
<g >
</g>
<g >
</g>
<g >
</g>
<g >
</g>
<g >
</g>
<g >
</g>
<g >
</g>
<g >
</g>
<g >
</g>
<g >
</g>
<g >
</g>
<g >
</g>
<g >
</g>
<g >
</g>
<g >
</g>
<g >
</g>
<g >
</g>
<g >
</g>
<g >
</g>
<g >
</g>
<g >
</g>
<g >
</g>
<g >
</g>
<g >
</g>
<g >
</g>
<g >
</g>
<g >
</g>
<g >
</g>
<g >
</g>
<g >
</g>
<g >
</g>
<g >
</g>
<g >
</g>
<g >
</g>
<g >
</g>
<g >
</g>
<g >
</g>
<g >
</g>
<g >
</g>
<g >
</g>
<g >
</g>
<g >
</g>
<g >
</g>
<g >
</g>
<g >
</g>
<g >
</g>
<g >
</g>
<g >
</g>
<g >
</g>
<g >
</g>
<g >
</g>
<g >
</g>
<g >
</g>
<g >
</g>
<g >
</g>
<g >
</g>
<g >
</g>
<g >
</g>
<g >
</g>
<g >
</g>
<g >
</g>
<g >
</g>
<g >
</g>
<g >
</g>
<g >
</g>
<g >
</g>
<g >
</g>
<g >
</g>
<g >
</g>
<g >
</g>
</g> 
</svg>
