<?xml version="1.0" encoding="utf-8" standalone="no"?>
<!DOCTYPE svg PUBLIC "-//W3C//DTD SVG 1.1//EN"
  "http://www.w3.org/Graphics/SVG/1.1/DTD/svg11.dtd">
<svg height="223.704pt" version="1.1" viewBox="0 0 264.56112 223.704" width="264.56112pt" xmlns="http://www.w3.org/2000/svg" xmlns:xlink="http://www.w3.org/1999/xlink">
 <metadata>
  <rdf:RDF xmlns:cc="http://creativecommons.org/ns#" xmlns:dc="http://purl.org/dc/elements/1.1/" xmlns:rdf="http://www.w3.org/1999/02/22-rdf-syntax-ns#">
   <cc:Work>
    <dc:type rdf:resource="http://purl.org/dc/dcmitype/StillImage"/>
    <dc:date>2021-05-24T10:12:53.131278</dc:date>
    <dc:format>image/svg+xml</dc:format>
    <dc:creator>
     <cc:Agent>
      <dc:title>Matplotlib v3.4.2, https://matplotlib.org/</dc:title>
     </cc:Agent>
    </dc:creator>
   </cc:Work>
  </rdf:RDF>
 </metadata>
 <defs>
  <style type="text/css">*{stroke-linecap:butt;stroke-linejoin:round;}</style>
 </defs>
 <g id="figure_1">
  <g id="patch_1">
   <path d="M 0 223.704 
L 264.56112 223.704 
L 264.56112 0 
L 0 0 
z
" style="fill:none;"/>
  </g>
  <g id="axes_1">
   <g id="patch_2">
    <path clip-path="url(#p0ad81596b1)" d="M 167.04216 130.212 
C 171.911289 130.212 176.581646 128.277475 180.024641 124.834481 
C 183.467635 121.391486 185.40216 116.721129 185.40216 111.852 
C 185.40216 106.982871 183.467635 102.312514 180.024641 98.869519 
C 176.581646 95.426525 171.911289 93.492 167.04216 93.492 
C 162.173031 93.492 157.502674 95.426525 154.059679 98.869519 
C 150.616685 102.312514 148.68216 106.982871 148.68216 111.852 
C 148.68216 116.721129 150.616685 121.391486 154.059679 124.834481 
C 157.502674 128.277475 162.173031 130.212 167.04216 130.212 
z
" style="fill:none;stroke:#000000;stroke-linejoin:miter;stroke-width:2;"/>
   </g>
   <g id="line2d_1">
    <path clip-path="url(#p0ad81596b1)" d="M 38.52216 194.472 
L 52.29216 194.472 
L 66.06216 194.472 
" style="fill:none;stroke:#000000;stroke-linecap:round;stroke-width:2;"/>
   </g>
   <g id="line2d_2">
    <path clip-path="url(#p0ad81596b1)" d="M 66.06216 194.472 
L 66.06216 176.112 
L 102.78216 176.112 
L 102.78216 212.832 
L 66.06216 212.832 
L 66.06216 194.472 
" style="fill:none;stroke:#000000;stroke-linecap:round;stroke-width:2;"/>
   </g>
   <g id="line2d_3">
    <path clip-path="url(#p0ad81596b1)" d="M 102.78216 194.472 
L 109.66716 194.472 
L 116.55216 194.472 
" style="fill:none;stroke:#000000;stroke-linecap:round;stroke-width:2;"/>
   </g>
   <g id="line2d_4">
    <path clip-path="url(#p0ad81596b1)" d="M 116.55216 194.472 
L 116.55216 153.162 
L 116.55216 111.852 
" style="fill:none;stroke:#000000;stroke-linecap:round;stroke-width:2;"/>
   </g>
   <g id="line2d_5">
    <path clip-path="url(#p0ad81596b1)" d="M 38.52216 139.392 
L 52.29216 139.392 
L 66.06216 139.392 
" style="fill:none;stroke:#000000;stroke-linecap:round;stroke-width:2;"/>
   </g>
   <g id="line2d_6">
    <path clip-path="url(#p0ad81596b1)" d="M 66.06216 139.392 
L 66.06216 121.032 
L 102.78216 121.032 
L 102.78216 157.752 
L 66.06216 157.752 
L 66.06216 139.392 
" style="fill:none;stroke:#000000;stroke-linecap:round;stroke-width:2;"/>
   </g>
   <g id="line2d_7">
    <path clip-path="url(#p0ad81596b1)" d="M 102.78216 139.392 
L 109.66716 139.392 
L 116.55216 139.392 
" style="fill:none;stroke:#000000;stroke-linecap:round;stroke-width:2;"/>
   </g>
   <g id="line2d_8">
    <path clip-path="url(#p0ad81596b1)" d="M 38.52216 84.312 
L 52.29216 84.312 
L 66.06216 84.312 
" style="fill:none;stroke:#000000;stroke-linecap:round;stroke-width:2;"/>
   </g>
   <g id="line2d_9">
    <path clip-path="url(#p0ad81596b1)" d="M 66.06216 84.312 
L 66.06216 65.952 
L 102.78216 65.952 
L 102.78216 102.672 
L 66.06216 102.672 
L 66.06216 84.312 
" style="fill:none;stroke:#000000;stroke-linecap:round;stroke-width:2;"/>
   </g>
   <g id="line2d_10">
    <path clip-path="url(#p0ad81596b1)" d="M 102.78216 84.312 
L 109.66716 84.312 
L 116.55216 84.312 
" style="fill:none;stroke:#000000;stroke-linecap:round;stroke-width:2;"/>
   </g>
   <g id="line2d_11">
    <path clip-path="url(#p0ad81596b1)" d="M 38.52216 29.232 
L 52.29216 29.232 
L 66.06216 29.232 
" style="fill:none;stroke:#000000;stroke-linecap:round;stroke-width:2;"/>
   </g>
   <g id="line2d_12">
    <path clip-path="url(#p0ad81596b1)" d="M 66.06216 29.232 
L 66.06216 10.872 
L 102.78216 10.872 
L 102.78216 47.592 
L 66.06216 47.592 
L 66.06216 29.232 
" style="fill:none;stroke:#000000;stroke-linecap:round;stroke-width:2;"/>
   </g>
   <g id="line2d_13">
    <path clip-path="url(#p0ad81596b1)" d="M 102.78216 29.232 
L 109.66716 29.232 
L 116.55216 29.232 
" style="fill:none;stroke:#000000;stroke-linecap:round;stroke-width:2;"/>
   </g>
   <g id="line2d_14">
    <path clip-path="url(#p0ad81596b1)" d="M 116.55216 29.232 
L 116.55216 70.542 
L 116.55216 111.852 
" style="fill:none;stroke:#000000;stroke-linecap:round;stroke-width:2;"/>
   </g>
   <g id="line2d_15">
    <path clip-path="url(#p0ad81596b1)" d="M 116.55216 111.852 
L 133.07616 111.852 
L 149.60016 111.852 
" style="fill:none;stroke:#000000;stroke-linecap:round;stroke-width:2;"/>
   </g>
   <g id="line2d_16">
    <path clip-path="url(#p0ad81596b1)" d="M 180.024641 98.869519 
L 154.059679 124.834481 
" style="fill:none;stroke:#000000;stroke-linecap:round;"/>
   </g>
   <g id="line2d_17">
    <path clip-path="url(#p0ad81596b1)" d="M 180.024641 124.834481 
L 154.059679 98.869519 
" style="fill:none;stroke:#000000;stroke-linecap:round;"/>
   </g>
   <g id="line2d_18">
    <path clip-path="url(#p0ad81596b1)" d="M 185.40216 111.852 
L 199.17216 111.852 
L 212.94216 111.852 
" style="fill:none;stroke:#000000;stroke-linecap:round;stroke-width:2;"/>
   </g>
   <g id="text_1">
    <!-- $IN_4$ -->
    <g transform="translate(13.57016 198.335125)scale(0.14 -0.14)">
     <defs>
      <path d="M 1081 4666 
L 1716 4666 
L 806 0 
L 172 0 
L 1081 4666 
z
" id="DejaVuSans-Oblique-49" transform="scale(0.015625)"/>
      <path d="M 1081 4666 
L 1931 4666 
L 3219 666 
L 4000 4666 
L 4616 4666 
L 3706 0 
L 2853 0 
L 1569 4025 
L 788 0 
L 172 0 
L 1081 4666 
z
" id="DejaVuSans-Oblique-4e" transform="scale(0.015625)"/>
      <path d="M 2419 4116 
L 825 1625 
L 2419 1625 
L 2419 4116 
z
M 2253 4666 
L 3047 4666 
L 3047 1625 
L 3713 1625 
L 3713 1100 
L 3047 1100 
L 3047 0 
L 2419 0 
L 2419 1100 
L 313 1100 
L 313 1709 
L 2253 4666 
z
" id="DejaVuSans-34" transform="scale(0.015625)"/>
     </defs>
     <use transform="translate(0 0.09375)" xlink:href="#DejaVuSans-Oblique-49"/>
     <use transform="translate(29.492188 0.09375)" xlink:href="#DejaVuSans-Oblique-4e"/>
     <use transform="translate(104.296875 -16.3125)scale(0.7)" xlink:href="#DejaVuSans-34"/>
    </g>
   </g>
   <g id="text_2">
    <!-- $\int$ -->
    <g transform="translate(79.24216 199.862)scale(0.14 -0.14)">
     <defs>
      <path d="M 2134 5525 
Q 2172 6263 2528 6556 
Q 2884 6850 3218 6850 
Q 3553 6850 3833 6575 
Q 4113 6300 4200 5678 
L 3544 5613 
Q 3469 6188 3219 6188 
Q 2906 6188 2869 5413 
L 2581 -597 
Q 2547 -1334 2187 -1628 
Q 1828 -1922 1497 -1922 
Q 1163 -1922 883 -1647 
Q 603 -1372 516 -750 
L 1172 -684 
Q 1247 -1259 1497 -1259 
Q 1809 -1259 1847 -488 
L 2134 5525 
z
" id="DejaVuSansDisplay-222b" transform="scale(0.015625)"/>
     </defs>
     <use transform="translate(0 0.96875)" xlink:href="#DejaVuSansDisplay-222b"/>
    </g>
   </g>
   <g id="text_3">
    <!-- $IN_3$ -->
    <g transform="translate(13.57016 143.255125)scale(0.14 -0.14)">
     <defs>
      <path d="M 2597 2516 
Q 3050 2419 3304 2112 
Q 3559 1806 3559 1356 
Q 3559 666 3084 287 
Q 2609 -91 1734 -91 
Q 1441 -91 1130 -33 
Q 819 25 488 141 
L 488 750 
Q 750 597 1062 519 
Q 1375 441 1716 441 
Q 2309 441 2620 675 
Q 2931 909 2931 1356 
Q 2931 1769 2642 2001 
Q 2353 2234 1838 2234 
L 1294 2234 
L 1294 2753 
L 1863 2753 
Q 2328 2753 2575 2939 
Q 2822 3125 2822 3475 
Q 2822 3834 2567 4026 
Q 2313 4219 1838 4219 
Q 1578 4219 1281 4162 
Q 984 4106 628 3988 
L 628 4550 
Q 988 4650 1302 4700 
Q 1616 4750 1894 4750 
Q 2613 4750 3031 4423 
Q 3450 4097 3450 3541 
Q 3450 3153 3228 2886 
Q 3006 2619 2597 2516 
z
" id="DejaVuSans-33" transform="scale(0.015625)"/>
     </defs>
     <use transform="translate(0 0.09375)" xlink:href="#DejaVuSans-Oblique-49"/>
     <use transform="translate(29.492188 0.09375)" xlink:href="#DejaVuSans-Oblique-4e"/>
     <use transform="translate(104.296875 -16.3125)scale(0.7)" xlink:href="#DejaVuSans-33"/>
    </g>
   </g>
   <g id="text_4">
    <!-- $\int$ -->
    <g transform="translate(79.24216 144.782)scale(0.14 -0.14)">
     <use transform="translate(0 0.96875)" xlink:href="#DejaVuSansDisplay-222b"/>
    </g>
   </g>
   <g id="text_5">
    <!-- $IN_2$ -->
    <g transform="translate(13.57016 88.175125)scale(0.14 -0.14)">
     <defs>
      <path d="M 1228 531 
L 3431 531 
L 3431 0 
L 469 0 
L 469 531 
Q 828 903 1448 1529 
Q 2069 2156 2228 2338 
Q 2531 2678 2651 2914 
Q 2772 3150 2772 3378 
Q 2772 3750 2511 3984 
Q 2250 4219 1831 4219 
Q 1534 4219 1204 4116 
Q 875 4013 500 3803 
L 500 4441 
Q 881 4594 1212 4672 
Q 1544 4750 1819 4750 
Q 2544 4750 2975 4387 
Q 3406 4025 3406 3419 
Q 3406 3131 3298 2873 
Q 3191 2616 2906 2266 
Q 2828 2175 2409 1742 
Q 1991 1309 1228 531 
z
" id="DejaVuSans-32" transform="scale(0.015625)"/>
     </defs>
     <use transform="translate(0 0.09375)" xlink:href="#DejaVuSans-Oblique-49"/>
     <use transform="translate(29.492188 0.09375)" xlink:href="#DejaVuSans-Oblique-4e"/>
     <use transform="translate(104.296875 -16.3125)scale(0.7)" xlink:href="#DejaVuSans-32"/>
    </g>
   </g>
   <g id="text_6">
    <!-- $\int$ -->
    <g transform="translate(79.24216 89.702)scale(0.14 -0.14)">
     <use transform="translate(0 0.96875)" xlink:href="#DejaVuSansDisplay-222b"/>
    </g>
   </g>
   <g id="text_7">
    <!-- $IN_1$ -->
    <g transform="translate(13.57016 33.095125)scale(0.14 -0.14)">
     <defs>
      <path d="M 794 531 
L 1825 531 
L 1825 4091 
L 703 3866 
L 703 4441 
L 1819 4666 
L 2450 4666 
L 2450 531 
L 3481 531 
L 3481 0 
L 794 0 
L 794 531 
z
" id="DejaVuSans-31" transform="scale(0.015625)"/>
     </defs>
     <use transform="translate(0 0.09375)" xlink:href="#DejaVuSans-Oblique-49"/>
     <use transform="translate(29.492188 0.09375)" xlink:href="#DejaVuSans-Oblique-4e"/>
     <use transform="translate(104.296875 -16.3125)scale(0.7)" xlink:href="#DejaVuSans-31"/>
    </g>
   </g>
   <g id="text_8">
    <!-- $\int$ -->
    <g transform="translate(79.24216 34.622)scale(0.14 -0.14)">
     <use transform="translate(0 0.96875)" xlink:href="#DejaVuSansDisplay-222b"/>
    </g>
   </g>
   <g id="text_9">
    <!-- $OUT$ -->
    <g transform="translate(216.61416 115.715125)scale(0.14 -0.14)">
     <defs>
      <path d="M 2919 4238 
Q 2400 4238 2003 3986 
Q 1606 3734 1313 3219 
Q 1125 2891 1026 2522 
Q 928 2153 928 1778 
Q 928 1128 1239 775 
Q 1550 422 2119 422 
Q 2631 422 3032 676 
Q 3434 931 3719 1434 
Q 3909 1772 4009 2142 
Q 4109 2513 4109 2881 
Q 4109 3528 3796 3883 
Q 3484 4238 2919 4238 
z
M 2100 -91 
Q 1241 -91 748 418 
Q 256 928 256 1813 
Q 256 2319 448 2847 
Q 641 3375 978 3788 
Q 1375 4272 1862 4511 
Q 2350 4750 2938 4750 
Q 3794 4750 4287 4245 
Q 4781 3741 4781 2869 
Q 4781 2331 4593 1812 
Q 4406 1294 4056 872 
Q 3656 384 3173 146 
Q 2691 -91 2100 -91 
z
" id="DejaVuSans-Oblique-4f" transform="scale(0.015625)"/>
      <path d="M 991 4666 
L 1625 4666 
L 1075 1831 
Q 1041 1641 1027 1517 
Q 1013 1394 1013 1300 
Q 1013 869 1253 645 
Q 1494 422 1959 422 
Q 2563 422 2898 753 
Q 3234 1084 3378 1831 
L 3928 4666 
L 4563 4666 
L 4000 1753 
Q 3816 809 3300 359 
Q 2784 -91 1888 -91 
Q 1188 -91 780 261 
Q 372 613 372 1216 
Q 372 1325 387 1461 
Q 403 1597 434 1753 
L 991 4666 
z
" id="DejaVuSans-Oblique-55" transform="scale(0.015625)"/>
      <path d="M 378 4666 
L 4325 4666 
L 4225 4134 
L 2559 4134 
L 1759 0 
L 1125 0 
L 1925 4134 
L 275 4134 
L 378 4666 
z
" id="DejaVuSans-Oblique-54" transform="scale(0.015625)"/>
     </defs>
     <use transform="translate(0 0.78125)" xlink:href="#DejaVuSans-Oblique-4f"/>
     <use transform="translate(78.710938 0.78125)" xlink:href="#DejaVuSans-Oblique-55"/>
     <use transform="translate(151.904297 0.78125)" xlink:href="#DejaVuSans-Oblique-54"/>
    </g>
   </g>
  </g>
 </g>
 <defs>
  <clipPath id="p0ad81596b1">
   <rect height="209.304" width="250.16112" x="7.2" y="7.2"/>
  </clipPath>
 </defs>
</svg>
