<!DOCTYPE svg PUBLIC "-//W3C//DTD SVG 1.1//EN" "http://www.w3.org/Graphics/SVG/1.1/DTD/svg11.dtd">
<svg xmlns="http://www.w3.org/2000/svg" version="1.1" width="4.0420002cm" height="13.3520002cm" viewBox="0 0 15913 52566">
            <title>Picture generated by PcbDraw </title>
            <desc>Picture generated by PcbDraw</desc>
        <g transform="translate(-9977, -9977)" id="boardContainer"><g clip-path="url(#cut-off)" mask="url(#hole-mask)"><defs><clipPath id="cut-off"><path d=" M 10000.0 10000.0 L 25866.0 10000.0 L 25866.0 62519.0 L 10000.0 62519.0 L 10000.0 10000.0 " style="fill-rule: evenodd;"/></clipPath></defs><g id="substrate-board" style="fill:#f0f0f0; stroke:#f0f0f0;"><path d=" M 10000.0 10000.0 L 25866.0 10000.0 L 25866.0 62519.0 L 10000.0 62519.0 L 10000.0 10000.0 " style="fill-rule: evenodd;"/><g style="fill:#000000; stroke: #000000;"><g style="fill-opacity:1; stroke-opacity:1; stroke-linecap:round; stroke-linejoin:round;" transform="translate(0 0) scale(1 1)">
</g>
<g style="fill-opacity:0.0; stroke-width:-0.000393701; stroke-opacity:1; stroke-linecap:round; stroke-linejoin:round;">
</g>
<g style="fill-opacity:0.0; stroke-width:47.2441; stroke-opacity:1; stroke-linecap:round; stroke-linejoin:round;">
<path d="M25866 62519 L10000 62519 "/>
<path d="M25866 10000 L25866 62519 "/>
<path d="M10000 10000 L10000 62519 "/>
<path d="M10000 10000 L25866 10000 "/>
<g>
</g>
<g>
</g>
<g>
</g>
<g>
</g>
<g>
</g>
<g>
</g>
<g>
</g>
<g>
</g>
</g> 
</g></g><g id="substrate-clad" style="fill:#9c6b28; stroke:#9c6b28;"><g style="fill-opacity:1; stroke-opacity:1; stroke-linecap:round; stroke-linejoin:round;" transform="translate(0 0) scale(1 1)">
</g>
<g style="fill-opacity:0.0; stroke-width:-0.000393701; stroke-opacity:1; stroke-linecap:round; stroke-linejoin:round;">
</g>
<g style="fill-opacity:0.0; stroke-width:98.4252; stroke-opacity:1; stroke-linecap:round; stroke-linejoin:round;">
<text x="22000" y="55992.1" textLength="1312.34" font-size="734.908" lengthAdjust="spacingAndGlyphs" text-anchor="middle" opacity="0">out</text>
<path d="M21553 55954 L21501 55917 L21475 55879 L21448 55804 L21448 55579 L21475 55504 L21501 55467 L21553 55429 L21632 55429 L21685 55467 L21711 55504 L21737 55579 L21737 55804 L21711 55879 L21685 55917 L21632 55954 L21553 55954 "/>
<path d="M22209 55429 L22209 55954 "/>
<path d="M21973 55429 L21973 55842 L22000 55917 L22052 55954 L22131 55954 L22183 55917 L22209 55879 "/>
<path d="M22393 55429 L22603 55429 "/>
<path d="M22472 55167 L22472 55842 L22498 55917 L22551 55954 L22603 55954 "/>
<text x="14007.9" y="55984.3" textLength="889.107" font-size="734.908" lengthAdjust="spacingAndGlyphs" text-anchor="middle" opacity="0">in</text>
<path d="M13758 55946 L13758 55421 "/>
<path d="M13758 55159 L13732 55196 L13758 55234 L13784 55196 L13758 55159 L13758 55234 "/>
<path d="M14020 55421 L14020 55946 "/>
<path d="M14020 55496 L14047 55459 L14099 55421 L14178 55421 L14230 55459 L14257 55534 L14257 55946 "/>
<text x="22000" y="47996.1" textLength="3120.08" font-size="734.908" lengthAdjust="spacingAndGlyphs" text-anchor="middle" opacity="0">release</text>
<path d="M20635 47958 L20635 47433 "/>
<path d="M20635 47583 L20661 47508 L20687 47471 L20740 47433 L20792 47433 "/>
<path d="M21186 47921 L21133 47958 L21028 47958 L20976 47921 L20950 47846 L20950 47546 L20976 47471 L21028 47433 L21133 47433 L21186 47471 L21212 47546 L21212 47621 L20950 47696 "/>
<path d="M21527 47958 L21475 47921 L21448 47846 L21448 47171 "/>
<path d="M21947 47921 L21895 47958 L21790 47958 L21737 47921 L21711 47846 L21711 47546 L21737 47471 L21790 47433 L21895 47433 L21947 47471 L21973 47546 L21973 47621 L21711 47696 "/>
<path d="M22446 47958 L22446 47546 L22419 47471 L22367 47433 L22262 47433 L22209 47471 "/>
<path d="M22446 47921 L22393 47958 L22262 47958 L22209 47921 L22183 47846 L22183 47771 L22209 47696 L22262 47658 L22393 47658 L22446 47621 "/>
<path d="M22682 47921 L22734 47958 L22839 47958 L22892 47921 L22918 47846 L22918 47808 L22892 47733 L22839 47696 L22761 47696 L22708 47658 L22682 47583 L22682 47546 L22708 47471 L22761 47433 L22839 47433 L22892 47471 "/>
<path d="M23364 47921 L23312 47958 L23207 47958 L23154 47921 L23128 47846 L23128 47546 L23154 47471 L23207 47433 L23312 47433 L23364 47471 L23391 47546 L23391 47621 L23128 47696 "/>
<text x="22000" y="39992.1" textLength="3093.83" font-size="734.908" lengthAdjust="spacingAndGlyphs" text-anchor="middle" opacity="0">sustain</text>
<path d="M20622 39917 L20674 39954 L20779 39954 L20832 39917 L20858 39842 L20858 39804 L20832 39729 L20779 39692 L20700 39692 L20648 39654 L20622 39579 L20622 39542 L20648 39467 L20700 39429 L20779 39429 L20832 39467 "/>
<path d="M21330 39429 L21330 39954 "/>
<path d="M21094 39429 L21094 39842 L21120 39917 L21173 39954 L21251 39954 L21304 39917 L21330 39879 "/>
<path d="M21566 39917 L21619 39954 L21724 39954 L21776 39917 L21803 39842 L21803 39804 L21776 39729 L21724 39692 L21645 39692 L21593 39654 L21566 39579 L21566 39542 L21593 39467 L21645 39429 L21724 39429 L21776 39467 "/>
<path d="M21960 39429 L22170 39429 "/>
<path d="M22039 39167 L22039 39842 L22065 39917 L22118 39954 L22170 39954 "/>
<path d="M22590 39954 L22590 39542 L22564 39467 L22511 39429 L22406 39429 L22354 39467 "/>
<path d="M22590 39917 L22538 39954 L22406 39954 L22354 39917 L22328 39842 L22328 39767 L22354 39692 L22406 39654 L22538 39654 L22590 39617 "/>
<path d="M22853 39954 L22853 39429 "/>
<path d="M22853 39167 L22826 39204 L22853 39242 L22879 39204 L22853 39167 L22853 39242 "/>
<path d="M23115 39429 L23115 39954 "/>
<path d="M23115 39504 L23141 39467 L23194 39429 L23272 39429 L23325 39467 L23351 39542 L23351 39954 "/>
<text x="21996.1" y="31996.1" textLength="2490.16" font-size="734.908" lengthAdjust="spacingAndGlyphs" text-anchor="middle" opacity="0">decay</text>
<path d="M21182 31958 L21182 31171 "/>
<path d="M21182 31921 L21129 31958 L21024 31958 L20972 31921 L20946 31883 L20919 31808 L20919 31583 L20946 31508 L20972 31471 L21024 31433 L21129 31433 L21182 31471 "/>
<path d="M21654 31921 L21602 31958 L21497 31958 L21444 31921 L21418 31846 L21418 31546 L21444 31471 L21497 31433 L21602 31433 L21654 31471 L21681 31546 L21681 31621 L21418 31696 "/>
<path d="M22153 31921 L22101 31958 L21996 31958 L21943 31921 L21917 31883 L21891 31808 L21891 31583 L21917 31508 L21943 31471 L21996 31433 L22101 31433 L22153 31471 "/>
<path d="M22625 31958 L22625 31546 L22599 31471 L22547 31433 L22442 31433 L22389 31471 "/>
<path d="M22625 31921 L22573 31958 L22442 31958 L22389 31921 L22363 31846 L22363 31771 L22389 31696 L22442 31658 L22573 31658 L22625 31621 "/>
<path d="M22835 31433 L22967 31958 "/>
<path d="M23098 31433 L22967 31958 L22914 32146 L22888 32183 L22835 32221 "/>
<text x="22000" y="23996.1" textLength="2673.88" font-size="734.908" lengthAdjust="spacingAndGlyphs" text-anchor="middle" opacity="0">attack</text>
<path d="M21094 23958 L21094 23546 L21068 23471 L21015 23433 L20910 23433 L20858 23471 "/>
<path d="M21094 23921 L21041 23958 L20910 23958 L20858 23921 L20832 23846 L20832 23771 L20858 23696 L20910 23658 L21041 23658 L21094 23621 "/>
<path d="M21278 23433 L21488 23433 "/>
<path d="M21356 23171 L21356 23846 L21383 23921 L21435 23958 L21488 23958 "/>
<path d="M21593 23433 L21803 23433 "/>
<path d="M21671 23171 L21671 23846 L21698 23921 L21750 23958 L21803 23958 "/>
<path d="M22223 23958 L22223 23546 L22196 23471 L22144 23433 L22039 23433 L21986 23471 "/>
<path d="M22223 23921 L22170 23958 L22039 23958 L21986 23921 L21960 23846 L21960 23771 L21986 23696 L22039 23658 L22170 23658 L22223 23621 "/>
<path d="M22721 23921 L22669 23958 L22564 23958 L22511 23921 L22485 23883 L22459 23808 L22459 23583 L22485 23508 L22511 23471 L22564 23433 L22669 23433 L22721 23471 "/>
<path d="M22958 23958 L22958 23171 "/>
<path d="M23010 23658 L23167 23958 "/>
<path d="M23167 23433 L22958 23733 "/>
</g>
<g style="fill-opacity:0.0; stroke-width:137.795; stroke-opacity:1; stroke-linecap:round; stroke-linejoin:round;">
<text x="18000" y="12590.6" textLength="3952.47" font-size="1574.8" lengthAdjust="spacingAndGlyphs" text-anchor="middle" opacity="0">adsr</text>
<path d="M16875 12534 L16875 11915 L16818 11803 L16706 11746 L16481 11746 L16368 11803 "/>
<path d="M16875 12478 L16762 12534 L16481 12534 L16368 12478 L16312 12365 L16312 12253 L16368 12140 L16481 12084 L16762 12084 L16875 12028 "/>
<path d="M17943 12534 L17943 11353 "/>
<path d="M17943 12478 L17831 12534 L17606 12534 L17493 12478 L17437 12421 L17381 12309 L17381 11971 L17437 11859 L17493 11803 L17606 11746 L17831 11746 L17943 11803 "/>
<path d="M18449 12478 L18562 12534 L18787 12534 L18899 12478 L18956 12365 L18956 12309 L18899 12196 L18787 12140 L18618 12140 L18506 12084 L18449 11971 L18449 11915 L18506 11803 L18618 11746 L18787 11746 L18899 11803 "/>
<path d="M19462 12534 L19462 11746 "/>
<path d="M19462 11971 L19518 11859 L19574 11803 L19687 11746 L19799 11746 "/>
</g>
<g style="fill-opacity:0.0; stroke-width:787.402; stroke-opacity:1; stroke-linecap:round; stroke-linejoin:round;">
<circle cx="18000" cy="52000" r="393.701"/> 
</g>
<g style="fill-opacity:1.0; stroke-width:0; stroke-opacity:1; stroke-linecap:round; stroke-linejoin:round;">
<path style="fill-opacity:1.0; stroke-width:0; stroke-opacity:1; stroke-linecap:round; stroke-linejoin:round;fill-rule:evenodd;" d="M 22249.7,50744.7 22373.3,50769.3 22606.3,50865.7 22815.9,51005.8 22994.2,51184.1 23134.3,51393.7 23230.7,51626.7 23279.9,51873.9 23279.9,52126.1 23230.7,52373.3 23134.3,52606.3 22994.2,52815.9 22815.9,52994.2 22606.3,53134.3 22373.3,53230.7 22249.7,53255.3 22126.1,53279.9 21873.9,53279.9 21750.3,53255.3 21626.7,53230.7 21393.7,53134.3 21184.1,52994.2 21005.8,52815.9 20865.7,52606.3 20769.3,52373.3 20720.1,52126.1 20720.1,51873.9 20769.3,51626.7 20865.7,51393.7 21005.8,51184.1 21184.1,51005.8 21393.7,50865.7 21626.7,50769.3 21750.3,50744.7 21873.9,50720.1 22126.1,50720.1 Z"/> 
<path style="fill-opacity:1.0; stroke-width:0; stroke-opacity:1; stroke-linecap:round; stroke-linejoin:round;fill-rule:evenodd;" d="M 14249.7,50744.7 14373.3,50769.3 14606.3,50865.7 14815.9,51005.8 14994.2,51184.1 15134.3,51393.7 15230.7,51626.7 15279.9,51873.9 15279.9,52126.1 15230.7,52373.3 15134.3,52606.3 14994.2,52815.9 14815.9,52994.2 14606.3,53134.3 14373.3,53230.7 14249.7,53255.3 14126.1,53279.9 13873.9,53279.9 13750.3,53255.3 13626.7,53230.7 13393.7,53134.3 13184.1,52994.2 13005.8,52815.9 12865.7,52606.3 12769.3,52373.3 12720.1,52126.1 12720.1,51873.9 12769.3,51626.7 12865.7,51393.7 13005.8,51184.1 13184.1,51005.8 13393.7,50865.7 13626.7,50769.3 13750.3,50744.7 13873.9,50720.1 14126.1,50720.1 Z"/> 
<path style="fill-opacity:1.0; stroke-width:0; stroke-opacity:1; stroke-linecap:round; stroke-linejoin:round;fill-rule:evenodd;" d="M 22335.7,42561.1 22430.8,42580 22699.5,42691.3 22941.4,42852.9 23147.1,43058.6 23308.7,43300.5 23420,43569.2 23476.8,43854.6 23476.8,44145.4 23420,44430.8 23308.7,44699.5 23147.1,44941.4 22941.4,45147.1 22699.5,45308.7 22430.8,45420 22335.7,45438.9 22145.5,45476.8 21854.5,45476.8 21664.3,45438.9 21569.2,45420 21300.5,45308.7 21058.6,45147.1 20852.9,44941.4 20691.3,44699.5 20580,44430.8 20523.2,44145.4 20523.2,43854.6 20580,43569.2 20691.3,43300.5 20852.9,43058.6 21058.6,42852.9 21300.5,42691.3 21569.2,42580 21664.3,42561.1 21854.5,42523.2 22145.5,42523.2 Z"/> 
<path style="fill-opacity:1.0; stroke-width:0; stroke-opacity:1; stroke-linecap:round; stroke-linejoin:round;fill-rule:evenodd;" d="M 22335.7,34561.1 22430.8,34580 22699.5,34691.3 22941.4,34852.9 23147.1,35058.6 23308.7,35300.5 23420,35569.2 23476.8,35854.6 23476.8,36145.4 23420,36430.8 23308.7,36699.5 23147.1,36941.4 22941.4,37147.1 22699.5,37308.7 22430.8,37420 22335.7,37438.9 22145.5,37476.8 21854.5,37476.8 21664.3,37438.9 21569.2,37420 21300.5,37308.7 21058.6,37147.1 20852.9,36941.4 20691.3,36699.5 20580,36430.8 20523.2,36145.4 20523.2,35854.6 20580,35569.2 20691.3,35300.5 20852.9,35058.6 21058.6,34852.9 21300.5,34691.3 21569.2,34580 21664.3,34561.1 21854.5,34523.2 22145.5,34523.2 Z"/> 
<path style="fill-opacity:1.0; stroke-width:0; stroke-opacity:1; stroke-linecap:round; stroke-linejoin:round;fill-rule:evenodd;" d="M 22335.7,26561.1 22430.8,26580 22699.5,26691.3 22941.4,26852.9 23147.1,27058.6 23308.7,27300.5 23420,27569.2 23476.8,27854.6 23476.8,28145.4 23420,28430.8 23308.7,28699.5 23147.1,28941.4 22941.4,29147.1 22699.5,29308.7 22430.8,29420 22335.7,29438.9 22145.5,29476.8 21854.5,29476.8 21664.3,29438.9 21569.2,29420 21300.5,29308.7 21058.6,29147.1 20852.9,28941.4 20691.3,28699.5 20580,28430.8 20523.2,28145.4 20523.2,27854.6 20580,27569.2 20691.3,27300.5 20852.9,27058.6 21058.6,26852.9 21300.5,26691.3 21569.2,26580 21664.3,26561.1 21854.5,26523.2 22145.5,26523.2 Z"/> 
<path style="fill-opacity:1.0; stroke-width:0; stroke-opacity:1; stroke-linecap:round; stroke-linejoin:round;fill-rule:evenodd;" d="M 22335.7,18561.1 22430.8,18580 22699.5,18691.3 22941.4,18852.9 23147.1,19058.6 23308.7,19300.5 23420,19569.2 23476.8,19854.6 23476.8,20145.4 23420,20430.8 23308.7,20699.5 23147.1,20941.4 22941.4,21147.1 22699.5,21308.7 22430.8,21420 22335.7,21438.9 22145.5,21476.8 21854.5,21476.8 21664.3,21438.9 21569.2,21420 21300.5,21308.7 21058.6,21147.1 20852.9,20941.4 20691.3,20699.5 20580,20430.8 20523.2,20145.4 20523.2,19854.6 20580,19569.2 20691.3,19300.5 20852.9,19058.6 21058.6,18852.9 21300.5,18691.3 21569.2,18580 21664.3,18561.1 21854.5,18523.2 22145.5,18523.2 Z"/> 
</g> 
</g><g id="substrate-copper" style="fill:#417e5a; stroke:#417e5a;"><g style="fill-opacity:1; stroke-opacity:1; stroke-linecap:round; stroke-linejoin:round;" transform="translate(0 0) scale(1 1)">
</g>
<g style="fill-opacity:0.0; stroke-width:-0.000393701; stroke-opacity:1; stroke-linecap:round; stroke-linejoin:round;">
</g>
<g style="fill-opacity:0.0; stroke-width:98.4252; stroke-opacity:1; stroke-linecap:round; stroke-linejoin:round;">
<text x="23669.3" y="61452.8" textLength="1780.18" font-size="734.908" lengthAdjust="spacingAndGlyphs" text-anchor="middle" opacity="0">R01</text>
<path d="M23314 61415 L23131 61040 "/>
<path d="M23000 61415 L23000 60627 L23209 60627 L23262 60665 L23288 60702 L23314 60777 L23314 60890 L23288 60965 L23262 61002 L23209 61040 L23000 61040 "/>
<path d="M23656 60627 L23708 60627 L23761 60665 L23787 60702 L23813 60777 L23839 60927 L23839 61115 L23813 61265 L23787 61340 L23761 61377 L23708 61415 L23656 61415 L23603 61377 L23577 61340 L23551 61265 L23524 61115 L23524 60927 L23551 60777 L23577 60702 L23603 60665 L23656 60627 "/>
<path d="M24364 61415 L24049 61415 "/>
<path d="M24207 61415 L24207 60627 L24154 60740 L24102 60815 L24049 60852 "/>
<g>
</g>
<g>
</g>
<g>
</g>
<g>
</g>
<g>
</g>
<g>
</g>
<g>
</g>
<g>
</g>
<g>
</g>
<g>
</g>
</g>
<g style="fill-opacity:0.0; stroke-width:98.4252; stroke-opacity:1; stroke-linecap:round; stroke-linejoin:round;">
</g>
<g style="fill-opacity:1.0; stroke-width:0; stroke-opacity:1; stroke-linecap:round; stroke-linejoin:round;">
<circle cx="22000" cy="52000" r="68.8976"/> 
</g>
<g style="fill-opacity:1.0; stroke-width:59.0551; stroke-opacity:1; stroke-linecap:round; stroke-linejoin:round;">
</g>
<g style="fill-opacity:1.0; stroke-width:0; stroke-opacity:1; stroke-linecap:round; stroke-linejoin:round;">
<circle cx="22000" cy="44000" r="68.8976"/> 
</g>
<g style="fill-opacity:1.0; stroke-width:59.0551; stroke-opacity:1; stroke-linecap:round; stroke-linejoin:round;">
</g>
<g style="fill-opacity:1.0; stroke-width:0; stroke-opacity:1; stroke-linecap:round; stroke-linejoin:round;">
<circle cx="22000" cy="36000" r="68.8976"/> 
</g>
<g style="fill-opacity:1.0; stroke-width:59.0551; stroke-opacity:1; stroke-linecap:round; stroke-linejoin:round;">
</g>
<g style="fill-opacity:1.0; stroke-width:0; stroke-opacity:1; stroke-linecap:round; stroke-linejoin:round;">
<circle cx="22000" cy="28000" r="68.8976"/> 
</g>
<g style="fill-opacity:1.0; stroke-width:59.0551; stroke-opacity:1; stroke-linecap:round; stroke-linejoin:round;">
</g>
<g style="fill-opacity:1.0; stroke-width:0; stroke-opacity:1; stroke-linecap:round; stroke-linejoin:round;">
<circle cx="22000" cy="20000" r="68.8976"/> 
</g>
<g style="fill-opacity:1.0; stroke-width:59.0551; stroke-opacity:1; stroke-linecap:round; stroke-linejoin:round;">
</g>
<g style="fill-opacity:1.0; stroke-width:0; stroke-opacity:1; stroke-linecap:round; stroke-linejoin:round;">
<circle cx="14000" cy="52000" r="68.8976"/> 
</g>
<g style="fill-opacity:1.0; stroke-width:59.0551; stroke-opacity:1; stroke-linecap:round; stroke-linejoin:round;">
</g>
<g style="fill-opacity:1.0; stroke-width:59.0551; stroke-opacity:1; stroke-linecap:round; stroke-linejoin:round;">
</g> 
</g><g id="substrate-pads" style="fill:#b5ae30; stroke:#b5ae30;" mask="url(#pads-mask)"><g style="fill-opacity:1; stroke-opacity:1; stroke-linecap:round; stroke-linejoin:round;" transform="translate(0 0) scale(1 1)">
</g>
<g style="fill-opacity:0.0; stroke-width:-0.000393701; stroke-opacity:1; stroke-linecap:round; stroke-linejoin:round;">
</g>
<g style="fill-opacity:0.0; stroke-width:98.4252; stroke-opacity:1; stroke-linecap:round; stroke-linejoin:round;">
<text x="23669.3" y="61452.8" textLength="1729" font-size="734.908" lengthAdjust="spacingAndGlyphs" text-anchor="middle" opacity="0">R01</text>
<path d="M23314 61415 L23131 61040 "/>
<path d="M23000 61415 L23000 60627 L23209 60627 L23262 60665 L23288 60702 L23314 60777 L23314 60890 L23288 60965 L23262 61002 L23209 61040 L23000 61040 "/>
<path d="M23656 60627 L23708 60627 L23761 60665 L23787 60702 L23813 60777 L23839 60927 L23839 61115 L23813 61265 L23787 61340 L23761 61377 L23708 61415 L23656 61415 L23603 61377 L23577 61340 L23551 61265 L23524 61115 L23524 60927 L23551 60777 L23577 60702 L23603 60665 L23656 60627 "/>
<path d="M24364 61415 L24049 61415 "/>
<path d="M24207 61415 L24207 60627 L24154 60740 L24102 60815 L24049 60852 "/>
<g>
</g>
<g>
</g>
<g>
</g>
<g>
</g>
<g>
</g>
<g>
</g>
<g>
</g>
<g>
</g>
<g>
</g>
<g>
</g>
</g>
<g style="fill-opacity:0.0; stroke-width:98.4252; stroke-opacity:1; stroke-linecap:round; stroke-linejoin:round;">
</g>
<g style="fill-opacity:1.0; stroke-width:0; stroke-opacity:1; stroke-linecap:round; stroke-linejoin:round;">
<circle cx="22000" cy="52000" r="68.8976"/> 
</g>
<g style="fill-opacity:1.0; stroke-width:59.0551; stroke-opacity:1; stroke-linecap:round; stroke-linejoin:round;">
</g>
<g style="fill-opacity:1.0; stroke-width:0; stroke-opacity:1; stroke-linecap:round; stroke-linejoin:round;">
<circle cx="22000" cy="44000" r="68.8976"/> 
</g>
<g style="fill-opacity:1.0; stroke-width:59.0551; stroke-opacity:1; stroke-linecap:round; stroke-linejoin:round;">
</g>
<g style="fill-opacity:1.0; stroke-width:0; stroke-opacity:1; stroke-linecap:round; stroke-linejoin:round;">
<circle cx="22000" cy="36000" r="68.8976"/> 
</g>
<g style="fill-opacity:1.0; stroke-width:59.0551; stroke-opacity:1; stroke-linecap:round; stroke-linejoin:round;">
</g>
<g style="fill-opacity:1.0; stroke-width:0; stroke-opacity:1; stroke-linecap:round; stroke-linejoin:round;">
<circle cx="22000" cy="28000" r="68.8976"/> 
</g>
<g style="fill-opacity:1.0; stroke-width:59.0551; stroke-opacity:1; stroke-linecap:round; stroke-linejoin:round;">
</g>
<g style="fill-opacity:1.0; stroke-width:0; stroke-opacity:1; stroke-linecap:round; stroke-linejoin:round;">
<circle cx="22000" cy="20000" r="68.8976"/> 
</g>
<g style="fill-opacity:1.0; stroke-width:59.0551; stroke-opacity:1; stroke-linecap:round; stroke-linejoin:round;">
</g>
<g style="fill-opacity:1.0; stroke-width:0; stroke-opacity:1; stroke-linecap:round; stroke-linejoin:round;">
<circle cx="14000" cy="52000" r="68.8976"/> 
</g>
<g style="fill-opacity:1.0; stroke-width:59.0551; stroke-opacity:1; stroke-linecap:round; stroke-linejoin:round;">
</g>
<g style="fill-opacity:1.0; stroke-width:59.0551; stroke-opacity:1; stroke-linecap:round; stroke-linejoin:round;">
</g> 
</g><defs><mask id="pads-mask"><g style="fill:#ffffff; fill-opacity:1;stroke:#ffffff; stroke-opacity:1; stroke-linecap:round; stroke-linejoin:round;" transform="translate(0 0) scale(1 1)">
</g>
<g style="fill:#ffffff; fill-opacity:0.0;  stroke:#ffffff; stroke-width:-0.000393701; stroke-opacity:1;  stroke-linecap:round; stroke-linejoin:round;">
</g>
<g style="fill:#ffffff; fill-opacity:0.0;  stroke:#ffffff; stroke-width:98.4252; stroke-opacity:1;  stroke-linecap:round; stroke-linejoin:round;">
<text x="22000" y="55992.1" textLength="1440.29" font-size="734.908" lengthAdjust="spacingAndGlyphs" text-anchor="middle" opacity="0">out</text>
<path d="M21553 55954 L21501 55917 L21475 55879 L21448 55804 L21448 55579 L21475 55504 L21501 55467 L21553 55429 L21632 55429 L21685 55467 L21711 55504 L21737 55579 L21737 55804 L21711 55879 L21685 55917 L21632 55954 L21553 55954 "/>
<path d="M22209 55429 L22209 55954 "/>
<path d="M21973 55429 L21973 55842 L22000 55917 L22052 55954 L22131 55954 L22183 55917 L22209 55879 "/>
<path d="M22393 55429 L22603 55429 "/>
<path d="M22472 55167 L22472 55842 L22498 55917 L22551 55954 L22603 55954 "/>
<text x="14007.9" y="55984.3" textLength="889.107" font-size="734.908" lengthAdjust="spacingAndGlyphs" text-anchor="middle" opacity="0">in</text>
<path d="M13758 55946 L13758 55421 "/>
<path d="M13758 55159 L13732 55196 L13758 55234 L13784 55196 L13758 55159 L13758 55234 "/>
<path d="M14020 55421 L14020 55946 "/>
<path d="M14020 55496 L14047 55459 L14099 55421 L14178 55421 L14230 55459 L14257 55534 L14257 55946 "/>
<text x="22000" y="47996.1" textLength="3120.08" font-size="734.908" lengthAdjust="spacingAndGlyphs" text-anchor="middle" opacity="0">release</text>
<path d="M20635 47958 L20635 47433 "/>
<path d="M20635 47583 L20661 47508 L20687 47471 L20740 47433 L20792 47433 "/>
<path d="M21186 47921 L21133 47958 L21028 47958 L20976 47921 L20950 47846 L20950 47546 L20976 47471 L21028 47433 L21133 47433 L21186 47471 L21212 47546 L21212 47621 L20950 47696 "/>
<path d="M21527 47958 L21475 47921 L21448 47846 L21448 47171 "/>
<path d="M21947 47921 L21895 47958 L21790 47958 L21737 47921 L21711 47846 L21711 47546 L21737 47471 L21790 47433 L21895 47433 L21947 47471 L21973 47546 L21973 47621 L21711 47696 "/>
<path d="M22446 47958 L22446 47546 L22419 47471 L22367 47433 L22262 47433 L22209 47471 "/>
<path d="M22446 47921 L22393 47958 L22262 47958 L22209 47921 L22183 47846 L22183 47771 L22209 47696 L22262 47658 L22393 47658 L22446 47621 "/>
<path d="M22682 47921 L22734 47958 L22839 47958 L22892 47921 L22918 47846 L22918 47808 L22892 47733 L22839 47696 L22761 47696 L22708 47658 L22682 47583 L22682 47546 L22708 47471 L22761 47433 L22839 47433 L22892 47471 "/>
<path d="M23364 47921 L23312 47958 L23207 47958 L23154 47921 L23128 47846 L23128 47546 L23154 47471 L23207 47433 L23312 47433 L23364 47471 L23391 47546 L23391 47621 L23128 47696 "/>
<text x="22000" y="39992.1" textLength="3093.83" font-size="734.908" lengthAdjust="spacingAndGlyphs" text-anchor="middle" opacity="0">sustain</text>
<path d="M20622 39917 L20674 39954 L20779 39954 L20832 39917 L20858 39842 L20858 39804 L20832 39729 L20779 39692 L20700 39692 L20648 39654 L20622 39579 L20622 39542 L20648 39467 L20700 39429 L20779 39429 L20832 39467 "/>
<path d="M21330 39429 L21330 39954 "/>
<path d="M21094 39429 L21094 39842 L21120 39917 L21173 39954 L21251 39954 L21304 39917 L21330 39879 "/>
<path d="M21566 39917 L21619 39954 L21724 39954 L21776 39917 L21803 39842 L21803 39804 L21776 39729 L21724 39692 L21645 39692 L21593 39654 L21566 39579 L21566 39542 L21593 39467 L21645 39429 L21724 39429 L21776 39467 "/>
<path d="M21960 39429 L22170 39429 "/>
<path d="M22039 39167 L22039 39842 L22065 39917 L22118 39954 L22170 39954 "/>
<path d="M22590 39954 L22590 39542 L22564 39467 L22511 39429 L22406 39429 L22354 39467 "/>
<path d="M22590 39917 L22538 39954 L22406 39954 L22354 39917 L22328 39842 L22328 39767 L22354 39692 L22406 39654 L22538 39654 L22590 39617 "/>
<path d="M22853 39954 L22853 39429 "/>
<path d="M22853 39167 L22826 39204 L22853 39242 L22879 39204 L22853 39167 L22853 39242 "/>
<path d="M23115 39429 L23115 39954 "/>
<path d="M23115 39504 L23141 39467 L23194 39429 L23272 39429 L23325 39467 L23351 39542 L23351 39954 "/>
<text x="21996.1" y="31996.1" textLength="2490.16" font-size="734.908" lengthAdjust="spacingAndGlyphs" text-anchor="middle" opacity="0">decay</text>
<path d="M21182 31958 L21182 31171 "/>
<path d="M21182 31921 L21129 31958 L21024 31958 L20972 31921 L20946 31883 L20919 31808 L20919 31583 L20946 31508 L20972 31471 L21024 31433 L21129 31433 L21182 31471 "/>
<path d="M21654 31921 L21602 31958 L21497 31958 L21444 31921 L21418 31846 L21418 31546 L21444 31471 L21497 31433 L21602 31433 L21654 31471 L21681 31546 L21681 31621 L21418 31696 "/>
<path d="M22153 31921 L22101 31958 L21996 31958 L21943 31921 L21917 31883 L21891 31808 L21891 31583 L21917 31508 L21943 31471 L21996 31433 L22101 31433 L22153 31471 "/>
<path d="M22625 31958 L22625 31546 L22599 31471 L22547 31433 L22442 31433 L22389 31471 "/>
<path d="M22625 31921 L22573 31958 L22442 31958 L22389 31921 L22363 31846 L22363 31771 L22389 31696 L22442 31658 L22573 31658 L22625 31621 "/>
<path d="M22835 31433 L22967 31958 "/>
<path d="M23098 31433 L22967 31958 L22914 32146 L22888 32183 L22835 32221 "/>
<text x="22000" y="23996.1" textLength="2673.88" font-size="734.908" lengthAdjust="spacingAndGlyphs" text-anchor="middle" opacity="0">attack</text>
<path d="M21094 23958 L21094 23546 L21068 23471 L21015 23433 L20910 23433 L20858 23471 "/>
<path d="M21094 23921 L21041 23958 L20910 23958 L20858 23921 L20832 23846 L20832 23771 L20858 23696 L20910 23658 L21041 23658 L21094 23621 "/>
<path d="M21278 23433 L21488 23433 "/>
<path d="M21356 23171 L21356 23846 L21383 23921 L21435 23958 L21488 23958 "/>
<path d="M21593 23433 L21803 23433 "/>
<path d="M21671 23171 L21671 23846 L21698 23921 L21750 23958 L21803 23958 "/>
<path d="M22223 23958 L22223 23546 L22196 23471 L22144 23433 L22039 23433 L21986 23471 "/>
<path d="M22223 23921 L22170 23958 L22039 23958 L21986 23921 L21960 23846 L21960 23771 L21986 23696 L22039 23658 L22170 23658 L22223 23621 "/>
<path d="M22721 23921 L22669 23958 L22564 23958 L22511 23921 L22485 23883 L22459 23808 L22459 23583 L22485 23508 L22511 23471 L22564 23433 L22669 23433 L22721 23471 "/>
<path d="M22958 23958 L22958 23171 "/>
<path d="M23010 23658 L23167 23958 "/>
<path d="M23167 23433 L22958 23733 "/>
</g>
<g style="fill:#ffffff; fill-opacity:0.0;  stroke:#ffffff; stroke-width:137.795; stroke-opacity:1;  stroke-linecap:round; stroke-linejoin:round;">
<text x="18000" y="12590.6" textLength="3952.47" font-size="1574.8" lengthAdjust="spacingAndGlyphs" text-anchor="middle" opacity="0">adsr</text>
<path d="M16875 12534 L16875 11915 L16818 11803 L16706 11746 L16481 11746 L16368 11803 "/>
<path d="M16875 12478 L16762 12534 L16481 12534 L16368 12478 L16312 12365 L16312 12253 L16368 12140 L16481 12084 L16762 12084 L16875 12028 "/>
<path d="M17943 12534 L17943 11353 "/>
<path d="M17943 12478 L17831 12534 L17606 12534 L17493 12478 L17437 12421 L17381 12309 L17381 11971 L17437 11859 L17493 11803 L17606 11746 L17831 11746 L17943 11803 "/>
<path d="M18449 12478 L18562 12534 L18787 12534 L18899 12478 L18956 12365 L18956 12309 L18899 12196 L18787 12140 L18618 12140 L18506 12084 L18449 11971 L18449 11915 L18506 11803 L18618 11746 L18787 11746 L18899 11803 "/>
<path d="M19462 12534 L19462 11746 "/>
<path d="M19462 11971 L19518 11859 L19574 11803 L19687 11746 L19799 11746 "/>
</g>
<g style="fill:#ffffff; fill-opacity:0.0;  stroke:#ffffff; stroke-width:787.402; stroke-opacity:1;  stroke-linecap:round; stroke-linejoin:round;">
<circle cx="18000" cy="52000" r="393.701"/> 
</g>
<g style="fill:#ffffff; fill-opacity:1.0;  stroke:#ffffff; stroke-width:0; stroke-opacity:1;  stroke-linecap:round; stroke-linejoin:round;">
<path style="fill:#ffffff; fill-opacity:1.0;  stroke:#ffffff; stroke-width:0; stroke-opacity:1;  stroke-linecap:round; stroke-linejoin:round;fill-rule:evenodd;" d="M 22249.7,50744.7 22373.3,50769.3 22606.3,50865.7 22815.9,51005.8 22994.2,51184.1 23134.3,51393.7 23230.7,51626.7 23279.9,51873.9 23279.9,52126.1 23230.7,52373.3 23134.3,52606.3 22994.2,52815.9 22815.9,52994.2 22606.3,53134.3 22373.3,53230.7 22249.7,53255.3 22126.1,53279.9 21873.9,53279.9 21750.3,53255.3 21626.7,53230.7 21393.7,53134.3 21184.1,52994.2 21005.8,52815.9 20865.7,52606.3 20769.3,52373.3 20720.1,52126.1 20720.1,51873.9 20769.3,51626.7 20865.7,51393.7 21005.8,51184.1 21184.1,51005.8 21393.7,50865.7 21626.7,50769.3 21750.3,50744.7 21873.9,50720.1 22126.1,50720.1 Z"/> 
<path style="fill:#ffffff; fill-opacity:1.0;  stroke:#ffffff; stroke-width:0; stroke-opacity:1;  stroke-linecap:round; stroke-linejoin:round;fill-rule:evenodd;" d="M 14249.7,50744.7 14373.3,50769.3 14606.3,50865.7 14815.9,51005.8 14994.2,51184.1 15134.3,51393.7 15230.7,51626.7 15279.9,51873.9 15279.9,52126.1 15230.7,52373.3 15134.3,52606.3 14994.2,52815.9 14815.9,52994.2 14606.3,53134.3 14373.3,53230.7 14249.7,53255.3 14126.1,53279.9 13873.9,53279.9 13750.3,53255.3 13626.7,53230.7 13393.7,53134.3 13184.1,52994.2 13005.8,52815.9 12865.7,52606.3 12769.3,52373.3 12720.1,52126.1 12720.1,51873.9 12769.3,51626.7 12865.7,51393.7 13005.8,51184.1 13184.1,51005.8 13393.7,50865.7 13626.7,50769.3 13750.3,50744.7 13873.9,50720.1 14126.1,50720.1 Z"/> 
<path style="fill:#ffffff; fill-opacity:1.0;  stroke:#ffffff; stroke-width:0; stroke-opacity:1;  stroke-linecap:round; stroke-linejoin:round;fill-rule:evenodd;" d="M 22335.7,42561.1 22430.8,42580 22699.5,42691.3 22941.4,42852.9 23147.1,43058.6 23308.7,43300.5 23420,43569.2 23476.8,43854.6 23476.8,44145.4 23420,44430.8 23308.7,44699.5 23147.1,44941.4 22941.4,45147.1 22699.5,45308.7 22430.8,45420 22335.7,45438.9 22145.5,45476.8 21854.5,45476.8 21664.3,45438.9 21569.2,45420 21300.5,45308.7 21058.6,45147.1 20852.9,44941.4 20691.3,44699.5 20580,44430.8 20523.2,44145.4 20523.2,43854.6 20580,43569.2 20691.3,43300.5 20852.9,43058.6 21058.6,42852.9 21300.5,42691.3 21569.2,42580 21664.3,42561.1 21854.5,42523.2 22145.5,42523.2 Z"/> 
<path style="fill:#ffffff; fill-opacity:1.0;  stroke:#ffffff; stroke-width:0; stroke-opacity:1;  stroke-linecap:round; stroke-linejoin:round;fill-rule:evenodd;" d="M 22335.7,34561.1 22430.8,34580 22699.5,34691.3 22941.4,34852.9 23147.1,35058.6 23308.7,35300.5 23420,35569.2 23476.8,35854.6 23476.8,36145.4 23420,36430.8 23308.7,36699.5 23147.1,36941.4 22941.4,37147.1 22699.5,37308.7 22430.8,37420 22335.7,37438.9 22145.5,37476.8 21854.5,37476.8 21664.3,37438.9 21569.2,37420 21300.5,37308.7 21058.6,37147.1 20852.9,36941.4 20691.3,36699.5 20580,36430.8 20523.2,36145.4 20523.2,35854.6 20580,35569.2 20691.3,35300.5 20852.9,35058.6 21058.6,34852.9 21300.5,34691.3 21569.2,34580 21664.3,34561.1 21854.5,34523.2 22145.5,34523.2 Z"/> 
<path style="fill:#ffffff; fill-opacity:1.0;  stroke:#ffffff; stroke-width:0; stroke-opacity:1;  stroke-linecap:round; stroke-linejoin:round;fill-rule:evenodd;" d="M 22335.7,26561.1 22430.8,26580 22699.5,26691.3 22941.4,26852.9 23147.1,27058.6 23308.7,27300.5 23420,27569.2 23476.8,27854.6 23476.8,28145.4 23420,28430.8 23308.7,28699.5 23147.1,28941.4 22941.4,29147.1 22699.5,29308.7 22430.8,29420 22335.7,29438.9 22145.5,29476.8 21854.5,29476.8 21664.3,29438.9 21569.2,29420 21300.5,29308.7 21058.6,29147.1 20852.9,28941.4 20691.3,28699.5 20580,28430.8 20523.2,28145.4 20523.2,27854.6 20580,27569.2 20691.3,27300.5 20852.9,27058.6 21058.6,26852.9 21300.5,26691.3 21569.2,26580 21664.3,26561.1 21854.5,26523.2 22145.5,26523.2 Z"/> 
<path style="fill:#ffffff; fill-opacity:1.0;  stroke:#ffffff; stroke-width:0; stroke-opacity:1;  stroke-linecap:round; stroke-linejoin:round;fill-rule:evenodd;" d="M 22335.7,18561.1 22430.8,18580 22699.5,18691.3 22941.4,18852.9 23147.1,19058.6 23308.7,19300.5 23420,19569.2 23476.8,19854.6 23476.8,20145.4 23420,20430.8 23308.7,20699.5 23147.1,20941.4 22941.4,21147.1 22699.5,21308.7 22430.8,21420 22335.7,21438.9 22145.5,21476.8 21854.5,21476.8 21664.3,21438.9 21569.2,21420 21300.5,21308.7 21058.6,21147.1 20852.9,20941.4 20691.3,20699.5 20580,20430.8 20523.2,20145.4 20523.2,19854.6 20580,19569.2 20691.3,19300.5 20852.9,19058.6 21058.6,18852.9 21300.5,18691.3 21569.2,18580 21664.3,18561.1 21854.5,18523.2 22145.5,18523.2 Z"/> 
</g> 
</mask></defs><defs><mask id="pads-mask-silkscreen"><g style="fill:#000000; fill-opacity:1;stroke:#000000; stroke-opacity:1; stroke-linecap:round; stroke-linejoin:round;" transform="translate(0 0) scale(1 1)">
</g>
<g style="fill:#000000; fill-opacity:0.0;  stroke:#000000; stroke-width:-0.000393701; stroke-opacity:1;  stroke-linecap:round; stroke-linejoin:round;">
</g>
<g style="fill:#000000; fill-opacity:0.0;  stroke:#000000; stroke-width:98.4252; stroke-opacity:1;  stroke-linecap:round; stroke-linejoin:round;">
<text x="22000" y="55992.1" textLength="1440.29" font-size="734.908" lengthAdjust="spacingAndGlyphs" text-anchor="middle" opacity="0">out</text>
<path d="M21553 55954 L21501 55917 L21475 55879 L21448 55804 L21448 55579 L21475 55504 L21501 55467 L21553 55429 L21632 55429 L21685 55467 L21711 55504 L21737 55579 L21737 55804 L21711 55879 L21685 55917 L21632 55954 L21553 55954 "/>
<path d="M22209 55429 L22209 55954 "/>
<path d="M21973 55429 L21973 55842 L22000 55917 L22052 55954 L22131 55954 L22183 55917 L22209 55879 "/>
<path d="M22393 55429 L22603 55429 "/>
<path d="M22472 55167 L22472 55842 L22498 55917 L22551 55954 L22603 55954 "/>
<text x="14007.9" y="55984.3" textLength="889.107" font-size="734.908" lengthAdjust="spacingAndGlyphs" text-anchor="middle" opacity="0">in</text>
<path d="M13758 55946 L13758 55421 "/>
<path d="M13758 55159 L13732 55196 L13758 55234 L13784 55196 L13758 55159 L13758 55234 "/>
<path d="M14020 55421 L14020 55946 "/>
<path d="M14020 55496 L14047 55459 L14099 55421 L14178 55421 L14230 55459 L14257 55534 L14257 55946 "/>
<text x="22000" y="47996.1" textLength="3120.08" font-size="734.908" lengthAdjust="spacingAndGlyphs" text-anchor="middle" opacity="0">release</text>
<path d="M20635 47958 L20635 47433 "/>
<path d="M20635 47583 L20661 47508 L20687 47471 L20740 47433 L20792 47433 "/>
<path d="M21186 47921 L21133 47958 L21028 47958 L20976 47921 L20950 47846 L20950 47546 L20976 47471 L21028 47433 L21133 47433 L21186 47471 L21212 47546 L21212 47621 L20950 47696 "/>
<path d="M21527 47958 L21475 47921 L21448 47846 L21448 47171 "/>
<path d="M21947 47921 L21895 47958 L21790 47958 L21737 47921 L21711 47846 L21711 47546 L21737 47471 L21790 47433 L21895 47433 L21947 47471 L21973 47546 L21973 47621 L21711 47696 "/>
<path d="M22446 47958 L22446 47546 L22419 47471 L22367 47433 L22262 47433 L22209 47471 "/>
<path d="M22446 47921 L22393 47958 L22262 47958 L22209 47921 L22183 47846 L22183 47771 L22209 47696 L22262 47658 L22393 47658 L22446 47621 "/>
<path d="M22682 47921 L22734 47958 L22839 47958 L22892 47921 L22918 47846 L22918 47808 L22892 47733 L22839 47696 L22761 47696 L22708 47658 L22682 47583 L22682 47546 L22708 47471 L22761 47433 L22839 47433 L22892 47471 "/>
<path d="M23364 47921 L23312 47958 L23207 47958 L23154 47921 L23128 47846 L23128 47546 L23154 47471 L23207 47433 L23312 47433 L23364 47471 L23391 47546 L23391 47621 L23128 47696 "/>
<text x="22000" y="39992.1" textLength="3093.83" font-size="734.908" lengthAdjust="spacingAndGlyphs" text-anchor="middle" opacity="0">sustain</text>
<path d="M20622 39917 L20674 39954 L20779 39954 L20832 39917 L20858 39842 L20858 39804 L20832 39729 L20779 39692 L20700 39692 L20648 39654 L20622 39579 L20622 39542 L20648 39467 L20700 39429 L20779 39429 L20832 39467 "/>
<path d="M21330 39429 L21330 39954 "/>
<path d="M21094 39429 L21094 39842 L21120 39917 L21173 39954 L21251 39954 L21304 39917 L21330 39879 "/>
<path d="M21566 39917 L21619 39954 L21724 39954 L21776 39917 L21803 39842 L21803 39804 L21776 39729 L21724 39692 L21645 39692 L21593 39654 L21566 39579 L21566 39542 L21593 39467 L21645 39429 L21724 39429 L21776 39467 "/>
<path d="M21960 39429 L22170 39429 "/>
<path d="M22039 39167 L22039 39842 L22065 39917 L22118 39954 L22170 39954 "/>
<path d="M22590 39954 L22590 39542 L22564 39467 L22511 39429 L22406 39429 L22354 39467 "/>
<path d="M22590 39917 L22538 39954 L22406 39954 L22354 39917 L22328 39842 L22328 39767 L22354 39692 L22406 39654 L22538 39654 L22590 39617 "/>
<path d="M22853 39954 L22853 39429 "/>
<path d="M22853 39167 L22826 39204 L22853 39242 L22879 39204 L22853 39167 L22853 39242 "/>
<path d="M23115 39429 L23115 39954 "/>
<path d="M23115 39504 L23141 39467 L23194 39429 L23272 39429 L23325 39467 L23351 39542 L23351 39954 "/>
<text x="21996.1" y="31996.1" textLength="2490.16" font-size="734.908" lengthAdjust="spacingAndGlyphs" text-anchor="middle" opacity="0">decay</text>
<path d="M21182 31958 L21182 31171 "/>
<path d="M21182 31921 L21129 31958 L21024 31958 L20972 31921 L20946 31883 L20919 31808 L20919 31583 L20946 31508 L20972 31471 L21024 31433 L21129 31433 L21182 31471 "/>
<path d="M21654 31921 L21602 31958 L21497 31958 L21444 31921 L21418 31846 L21418 31546 L21444 31471 L21497 31433 L21602 31433 L21654 31471 L21681 31546 L21681 31621 L21418 31696 "/>
<path d="M22153 31921 L22101 31958 L21996 31958 L21943 31921 L21917 31883 L21891 31808 L21891 31583 L21917 31508 L21943 31471 L21996 31433 L22101 31433 L22153 31471 "/>
<path d="M22625 31958 L22625 31546 L22599 31471 L22547 31433 L22442 31433 L22389 31471 "/>
<path d="M22625 31921 L22573 31958 L22442 31958 L22389 31921 L22363 31846 L22363 31771 L22389 31696 L22442 31658 L22573 31658 L22625 31621 "/>
<path d="M22835 31433 L22967 31958 "/>
<path d="M23098 31433 L22967 31958 L22914 32146 L22888 32183 L22835 32221 "/>
<text x="22000" y="23996.1" textLength="2673.88" font-size="734.908" lengthAdjust="spacingAndGlyphs" text-anchor="middle" opacity="0">attack</text>
<path d="M21094 23958 L21094 23546 L21068 23471 L21015 23433 L20910 23433 L20858 23471 "/>
<path d="M21094 23921 L21041 23958 L20910 23958 L20858 23921 L20832 23846 L20832 23771 L20858 23696 L20910 23658 L21041 23658 L21094 23621 "/>
<path d="M21278 23433 L21488 23433 "/>
<path d="M21356 23171 L21356 23846 L21383 23921 L21435 23958 L21488 23958 "/>
<path d="M21593 23433 L21803 23433 "/>
<path d="M21671 23171 L21671 23846 L21698 23921 L21750 23958 L21803 23958 "/>
<path d="M22223 23958 L22223 23546 L22196 23471 L22144 23433 L22039 23433 L21986 23471 "/>
<path d="M22223 23921 L22170 23958 L22039 23958 L21986 23921 L21960 23846 L21960 23771 L21986 23696 L22039 23658 L22170 23658 L22223 23621 "/>
<path d="M22721 23921 L22669 23958 L22564 23958 L22511 23921 L22485 23883 L22459 23808 L22459 23583 L22485 23508 L22511 23471 L22564 23433 L22669 23433 L22721 23471 "/>
<path d="M22958 23958 L22958 23171 "/>
<path d="M23010 23658 L23167 23958 "/>
<path d="M23167 23433 L22958 23733 "/>
</g>
<g style="fill:#000000; fill-opacity:0.0;  stroke:#000000; stroke-width:137.795; stroke-opacity:1;  stroke-linecap:round; stroke-linejoin:round;">
<text x="18000" y="12590.6" textLength="3952.47" font-size="1574.8" lengthAdjust="spacingAndGlyphs" text-anchor="middle" opacity="0">adsr</text>
<path d="M16875 12534 L16875 11915 L16818 11803 L16706 11746 L16481 11746 L16368 11803 "/>
<path d="M16875 12478 L16762 12534 L16481 12534 L16368 12478 L16312 12365 L16312 12253 L16368 12140 L16481 12084 L16762 12084 L16875 12028 "/>
<path d="M17943 12534 L17943 11353 "/>
<path d="M17943 12478 L17831 12534 L17606 12534 L17493 12478 L17437 12421 L17381 12309 L17381 11971 L17437 11859 L17493 11803 L17606 11746 L17831 11746 L17943 11803 "/>
<path d="M18449 12478 L18562 12534 L18787 12534 L18899 12478 L18956 12365 L18956 12309 L18899 12196 L18787 12140 L18618 12140 L18506 12084 L18449 11971 L18449 11915 L18506 11803 L18618 11746 L18787 11746 L18899 11803 "/>
<path d="M19462 12534 L19462 11746 "/>
<path d="M19462 11971 L19518 11859 L19574 11803 L19687 11746 L19799 11746 "/>
</g>
<g style="fill:#000000; fill-opacity:0.0;  stroke:#000000; stroke-width:787.402; stroke-opacity:1;  stroke-linecap:round; stroke-linejoin:round;">
<circle cx="18000" cy="52000" r="393.701"/> 
</g>
<g style="fill:#000000; fill-opacity:1.0;  stroke:#000000; stroke-width:0; stroke-opacity:1;  stroke-linecap:round; stroke-linejoin:round;">
<path style="fill:#000000; fill-opacity:1.0;  stroke:#000000; stroke-width:0; stroke-opacity:1;  stroke-linecap:round; stroke-linejoin:round;fill-rule:evenodd;" d="M 22249.7,50744.7 22373.3,50769.3 22606.3,50865.7 22815.9,51005.8 22994.2,51184.1 23134.3,51393.7 23230.7,51626.7 23279.9,51873.9 23279.9,52126.1 23230.7,52373.3 23134.3,52606.3 22994.2,52815.9 22815.9,52994.2 22606.3,53134.3 22373.3,53230.7 22249.7,53255.3 22126.1,53279.9 21873.9,53279.9 21750.3,53255.3 21626.7,53230.7 21393.7,53134.3 21184.1,52994.2 21005.8,52815.9 20865.7,52606.3 20769.3,52373.3 20720.1,52126.1 20720.1,51873.9 20769.3,51626.7 20865.7,51393.7 21005.8,51184.1 21184.1,51005.8 21393.7,50865.7 21626.7,50769.3 21750.3,50744.7 21873.9,50720.1 22126.1,50720.1 Z"/> 
<path style="fill:#000000; fill-opacity:1.0;  stroke:#000000; stroke-width:0; stroke-opacity:1;  stroke-linecap:round; stroke-linejoin:round;fill-rule:evenodd;" d="M 14249.7,50744.7 14373.3,50769.3 14606.3,50865.7 14815.9,51005.8 14994.2,51184.1 15134.3,51393.7 15230.7,51626.7 15279.9,51873.9 15279.9,52126.1 15230.7,52373.3 15134.3,52606.3 14994.2,52815.9 14815.9,52994.2 14606.3,53134.3 14373.3,53230.7 14249.7,53255.3 14126.1,53279.9 13873.9,53279.9 13750.3,53255.3 13626.7,53230.7 13393.7,53134.3 13184.1,52994.2 13005.8,52815.9 12865.7,52606.3 12769.3,52373.3 12720.1,52126.1 12720.1,51873.9 12769.3,51626.7 12865.7,51393.7 13005.8,51184.1 13184.1,51005.8 13393.7,50865.7 13626.7,50769.3 13750.3,50744.7 13873.9,50720.1 14126.1,50720.1 Z"/> 
<path style="fill:#000000; fill-opacity:1.0;  stroke:#000000; stroke-width:0; stroke-opacity:1;  stroke-linecap:round; stroke-linejoin:round;fill-rule:evenodd;" d="M 22335.7,42561.1 22430.8,42580 22699.5,42691.3 22941.4,42852.9 23147.1,43058.6 23308.7,43300.5 23420,43569.2 23476.8,43854.6 23476.8,44145.4 23420,44430.8 23308.7,44699.5 23147.1,44941.4 22941.4,45147.1 22699.5,45308.7 22430.8,45420 22335.7,45438.9 22145.5,45476.8 21854.5,45476.8 21664.3,45438.9 21569.2,45420 21300.5,45308.7 21058.6,45147.1 20852.9,44941.4 20691.3,44699.5 20580,44430.8 20523.2,44145.4 20523.2,43854.6 20580,43569.2 20691.3,43300.5 20852.9,43058.6 21058.6,42852.9 21300.5,42691.3 21569.2,42580 21664.3,42561.1 21854.5,42523.2 22145.5,42523.2 Z"/> 
<path style="fill:#000000; fill-opacity:1.0;  stroke:#000000; stroke-width:0; stroke-opacity:1;  stroke-linecap:round; stroke-linejoin:round;fill-rule:evenodd;" d="M 22335.7,34561.1 22430.8,34580 22699.5,34691.3 22941.4,34852.9 23147.1,35058.6 23308.7,35300.5 23420,35569.2 23476.8,35854.6 23476.8,36145.4 23420,36430.8 23308.7,36699.5 23147.1,36941.4 22941.4,37147.1 22699.5,37308.7 22430.8,37420 22335.7,37438.9 22145.5,37476.8 21854.5,37476.8 21664.3,37438.9 21569.2,37420 21300.5,37308.7 21058.6,37147.1 20852.9,36941.4 20691.3,36699.5 20580,36430.8 20523.2,36145.4 20523.2,35854.6 20580,35569.2 20691.3,35300.5 20852.9,35058.6 21058.6,34852.9 21300.5,34691.3 21569.2,34580 21664.3,34561.1 21854.5,34523.2 22145.5,34523.2 Z"/> 
<path style="fill:#000000; fill-opacity:1.0;  stroke:#000000; stroke-width:0; stroke-opacity:1;  stroke-linecap:round; stroke-linejoin:round;fill-rule:evenodd;" d="M 22335.7,26561.1 22430.8,26580 22699.5,26691.3 22941.4,26852.9 23147.1,27058.6 23308.7,27300.5 23420,27569.2 23476.8,27854.6 23476.8,28145.4 23420,28430.8 23308.7,28699.5 23147.1,28941.4 22941.4,29147.1 22699.5,29308.7 22430.8,29420 22335.7,29438.9 22145.5,29476.8 21854.5,29476.8 21664.3,29438.9 21569.2,29420 21300.5,29308.7 21058.6,29147.1 20852.9,28941.4 20691.3,28699.5 20580,28430.8 20523.2,28145.4 20523.2,27854.6 20580,27569.2 20691.3,27300.5 20852.9,27058.6 21058.6,26852.9 21300.5,26691.3 21569.2,26580 21664.3,26561.1 21854.5,26523.2 22145.5,26523.2 Z"/> 
<path style="fill:#000000; fill-opacity:1.0;  stroke:#000000; stroke-width:0; stroke-opacity:1;  stroke-linecap:round; stroke-linejoin:round;fill-rule:evenodd;" d="M 22335.7,18561.1 22430.8,18580 22699.5,18691.3 22941.4,18852.9 23147.1,19058.6 23308.7,19300.5 23420,19569.2 23476.8,19854.6 23476.8,20145.4 23420,20430.8 23308.7,20699.5 23147.1,20941.4 22941.4,21147.1 22699.5,21308.7 22430.8,21420 22335.7,21438.9 22145.5,21476.8 21854.5,21476.8 21664.3,21438.9 21569.2,21420 21300.5,21308.7 21058.6,21147.1 20852.9,20941.4 20691.3,20699.5 20580,20430.8 20523.2,20145.4 20523.2,19854.6 20580,19569.2 20691.3,19300.5 20852.9,19058.6 21058.6,18852.9 21300.5,18691.3 21569.2,18580 21664.3,18561.1 21854.5,18523.2 22145.5,18523.2 Z"/> 
</g> 
<rect x="9976" y="9976" width="15913" height="52566" fill="white"/></mask></defs><g id="substrate-silk" style="fill:#000000; stroke:#000000;" mask="url(#pads-mask-silkscreen)"><g style="fill-opacity:1; stroke-opacity:1; stroke-linecap:round; stroke-linejoin:round;" transform="translate(0 0) scale(1 1)">
</g>
<g style="fill-opacity:0.0; stroke-width:-0.000393701; stroke-opacity:1; stroke-linecap:round; stroke-linejoin:round;">
<g>
</g>
</g> 
</g><g id="substrate-outline" style="fill:#000000; stroke:#000000;"><g style="fill-opacity:1; stroke-opacity:1; stroke-linecap:round; stroke-linejoin:round;" transform="translate(0 0) scale(1 1)">
</g>
<g style="fill-opacity:0.0; stroke-width:-0.000393701; stroke-opacity:1; stroke-linecap:round; stroke-linejoin:round;">
</g>
<g style="fill-opacity:0.0; stroke-width:47.2441; stroke-opacity:1; stroke-linecap:round; stroke-linejoin:round;">
<path d="M25866 62519 L10000 62519 "/>
<path d="M25866 10000 L25866 62519 "/>
<path d="M10000 10000 L10000 62519 "/>
<path d="M10000 10000 L25866 10000 "/>
<g>
</g>
<g>
</g>
<g>
</g>
<g>
</g>
<g>
</g>
<g>
</g>
<g>
</g>
<g>
</g>
</g> 
</g><defs><mask id="hole-mask"><g><rect x="9976" y="9976" fill="white" width="15913" height="52566"/><polyline stroke-linecap="round" stroke="black" stroke-width="2519" points="0.0 0 0.0 0" transform="translate(22000 52000) rotate(-0.0)"/><polyline stroke-linecap="round" stroke="black" stroke-width="2913" points="0.0 0 0.0 0" transform="translate(22000 44000) rotate(-0.0)"/><polyline stroke-linecap="round" stroke="black" stroke-width="2913" points="0.0 0 0.0 0" transform="translate(22000 36000) rotate(-0.0)"/><polyline stroke-linecap="round" stroke="black" stroke-width="2913" points="0.0 0 0.0 0" transform="translate(22000 28000) rotate(-0.0)"/><polyline stroke-linecap="round" stroke="black" stroke-width="2913" points="0.0 0 0.0 0" transform="translate(22000 20000) rotate(-0.0)"/><polyline stroke-linecap="round" stroke="black" stroke-width="2519" points="0.0 0 0.0 0" transform="translate(14000 52000) rotate(-0.0)"/></g></mask></defs></g></g><g transform="translate(-9977, -9977)" id="highlightContainer"/><g transform="translate(-9977, -9977)" id="componentContainer"/></svg>