<?xml version="1.0" standalone="no"?>
 <!DOCTYPE svg PUBLIC "-//W3C//DTD SVG 1.1//EN" 
 "http://www.w3.org/Graphics/SVG/1.1/DTD/svg11.dtd"> 
<svg
  xmlns:svg="http://www.w3.org/2000/svg"
  xmlns="http://www.w3.org/2000/svg"
  xmlns:xlink="http://www.w3.org/1999/xlink"
  version="1.1"
  width="297.0022mm" height="210.0072mm" viewBox="0.0000 0.0000 297.0022 210.0072">
<title>SVG Image created as panel-B_Mask.svg date 2023/11/07 21:19:16 </title>
  <desc>Image generated by PCBNEW </desc>
<g style="fill:#000000; fill-opacity:1.0000;stroke:#000000; stroke-opacity:1.0000;
stroke-linecap:round; stroke-linejoin:round;"
 transform="translate(0 0) scale(1 1)">
</g>
<g style="fill:#000000; fill-opacity:0.0; 
stroke:#000000; stroke-width:0.0000; stroke-opacity:1; 
stroke-linecap:round; stroke-linejoin:round;">
</g>
<g style="fill:#000000; fill-opacity:0.0; 
stroke:#000000; stroke-width:0.2500; stroke-opacity:1; 
stroke-linecap:round; stroke-linejoin:round;">
<text x="81.2800" y="167.6240"
textLength="3.8033" font-size="1.8667" lengthAdjust="spacingAndGlyphs"
text-anchor="middle" opacity="0">out</text>
<g class="stroked-text"><desc>out</desc>
<path d="M80.1467 167.5362
L80.0133 167.4410
" />
<path d="M80.0133 167.4410
L79.9467 167.3458
" />
<path d="M79.9467 167.3458
L79.8800 167.1553
" />
<path d="M79.8800 167.1553
L79.8800 166.5839
" />
<path d="M79.8800 166.5839
L79.9467 166.3934
" />
<path d="M79.9467 166.3934
L80.0133 166.2981
" />
<path d="M80.0133 166.2981
L80.1467 166.2029
" />
<path d="M80.1467 166.2029
L80.3467 166.2029
" />
<path d="M80.3467 166.2029
L80.4800 166.2981
" />
<path d="M80.4800 166.2981
L80.5467 166.3934
" />
<path d="M80.5467 166.3934
L80.6133 166.5839
" />
<path d="M80.6133 166.5839
L80.6133 167.1553
" />
<path d="M80.6133 167.1553
L80.5467 167.3458
" />
<path d="M80.5467 167.3458
L80.4800 167.4410
" />
<path d="M80.4800 167.4410
L80.3467 167.5362
" />
<path d="M80.3467 167.5362
L80.1467 167.5362
" />
<path d="M81.8133 166.2029
L81.8133 167.5362
" />
<path d="M81.2133 166.2029
L81.2133 167.2505
" />
<path d="M81.2133 167.2505
L81.2800 167.4410
" />
<path d="M81.2800 167.4410
L81.4133 167.5362
" />
<path d="M81.4133 167.5362
L81.6133 167.5362
" />
<path d="M81.6133 167.5362
L81.7467 167.4410
" />
<path d="M81.7467 167.4410
L81.8133 167.3458
" />
<path d="M82.2800 166.2029
L82.8133 166.2029
" />
<path d="M82.4800 165.5362
L82.4800 167.2505
" />
<path d="M82.4800 167.2505
L82.5467 167.4410
" />
<path d="M82.5467 167.4410
L82.6800 167.5362
" />
<path d="M82.6800 167.5362
L82.8133 167.5362
" />
</g><text x="60.9600" y="86.3440"
textLength="1.8033" font-size="1.8667" lengthAdjust="spacingAndGlyphs"
text-anchor="middle" opacity="0">X</text>
<g class="stroked-text"><desc>X</desc>
<path d="M60.4933 84.2562
L61.4267 86.2562
" />
<path d="M61.4267 84.2562
L60.4933 86.2562
" />
</g><text x="81.2800" y="126.9840"
textLength="1.6700" font-size="1.8667" lengthAdjust="spacingAndGlyphs"
text-anchor="middle" opacity="0">Y</text>
<g class="stroked-text"><desc>Y</desc>
<path d="M81.2800 125.9439
L81.2800 126.8962
" />
<path d="M80.8133 124.8962
L81.2800 125.9439
" />
<path d="M81.2800 125.9439
L81.7467 124.8962
" />
</g><text x="60.9600" y="167.6240"
textLength="3.8033" font-size="1.8667" lengthAdjust="spacingAndGlyphs"
text-anchor="middle" opacity="0">out</text>
<g class="stroked-text"><desc>out</desc>
<path d="M59.8267 167.5362
L59.6933 167.4410
" />
<path d="M59.6933 167.4410
L59.6267 167.3458
" />
<path d="M59.6267 167.3458
L59.5600 167.1553
" />
<path d="M59.5600 167.1553
L59.5600 166.5839
" />
<path d="M59.5600 166.5839
L59.6267 166.3934
" />
<path d="M59.6267 166.3934
L59.6933 166.2981
" />
<path d="M59.6933 166.2981
L59.8267 166.2029
" />
<path d="M59.8267 166.2029
L60.0267 166.2029
" />
<path d="M60.0267 166.2029
L60.1600 166.2981
" />
<path d="M60.1600 166.2981
L60.2267 166.3934
" />
<path d="M60.2267 166.3934
L60.2933 166.5839
" />
<path d="M60.2933 166.5839
L60.2933 167.1553
" />
<path d="M60.2933 167.1553
L60.2267 167.3458
" />
<path d="M60.2267 167.3458
L60.1600 167.4410
" />
<path d="M60.1600 167.4410
L60.0267 167.5362
" />
<path d="M60.0267 167.5362
L59.8267 167.5362
" />
<path d="M61.4933 166.2029
L61.4933 167.5362
" />
<path d="M60.8933 166.2029
L60.8933 167.2505
" />
<path d="M60.8933 167.2505
L60.9600 167.4410
" />
<path d="M60.9600 167.4410
L61.0933 167.5362
" />
<path d="M61.0933 167.5362
L61.2933 167.5362
" />
<path d="M61.2933 167.5362
L61.4267 167.4410
" />
<path d="M61.4267 167.4410
L61.4933 167.3458
" />
<path d="M61.9600 166.2029
L62.4933 166.2029
" />
<path d="M62.1600 165.5362
L62.1600 167.2505
" />
<path d="M62.1600 167.2505
L62.2267 167.4410
" />
<path d="M62.2267 167.4410
L62.3600 167.5362
" />
<path d="M62.3600 167.5362
L62.4933 167.5362
" />
</g><text x="81.2800" y="86.3440"
textLength="1.8033" font-size="1.8667" lengthAdjust="spacingAndGlyphs"
text-anchor="middle" opacity="0">X</text>
<g class="stroked-text"><desc>X</desc>
<path d="M80.8133 84.2562
L81.7467 86.2562
" />
<path d="M81.7467 84.2562
L80.8133 86.2562
" />
</g><text x="60.9600" y="126.9840"
textLength="1.6700" font-size="1.8667" lengthAdjust="spacingAndGlyphs"
text-anchor="middle" opacity="0">Y</text>
<g class="stroked-text"><desc>Y</desc>
<path d="M60.9600 125.9439
L60.9600 126.8962
" />
<path d="M60.4933 124.8962
L60.9600 125.9439
" />
<path d="M60.9600 125.9439
L61.4267 124.8962
" />
</g><g >
</g>
<g style="fill:#000000; fill-opacity:1.0000; 
stroke:#000000; stroke-width:0.0000; stroke-opacity:1; 
stroke-linecap:round; stroke-linejoin:round;">
<circle cx="58.3000" cy="53.8000" r="1.8000" /> 
</g>
<g style="fill:#000000; fill-opacity:1.0000; 
stroke:#000000; stroke-width:0.0212; stroke-opacity:1; 
stroke-linecap:round; stroke-linejoin:round;">
</g>
<g style="fill:#000000; fill-opacity:1.0000; 
stroke:#000000; stroke-width:0.0000; stroke-opacity:1; 
stroke-linecap:round; stroke-linejoin:round;">
<circle cx="58.3000" cy="53.8000" r="2.5000" /> 
</g>
<g style="fill:#000000; fill-opacity:1.0000; 
stroke:#000000; stroke-width:0.0212; stroke-opacity:1; 
stroke-linecap:round; stroke-linejoin:round;">
</g>
<g >
</g>
<g style="fill:#000000; fill-opacity:1.0000; 
stroke:#000000; stroke-width:0.0212; stroke-opacity:1; 
stroke-linecap:round; stroke-linejoin:round;">
</g>
<g style="fill:#000000; fill-opacity:1.0000; 
stroke:#000000; stroke-width:0.0000; stroke-opacity:1; 
stroke-linecap:round; stroke-linejoin:round;">
<circle cx="58.3000" cy="176.3000" r="1.8000" /> 
</g>
<g style="fill:#000000; fill-opacity:1.0000; 
stroke:#000000; stroke-width:0.0212; stroke-opacity:1; 
stroke-linecap:round; stroke-linejoin:round;">
</g>
<g style="fill:#000000; fill-opacity:1.0000; 
stroke:#000000; stroke-width:0.0000; stroke-opacity:1; 
stroke-linecap:round; stroke-linejoin:round;">
<circle cx="58.3000" cy="176.3000" r="2.5000" /> 
</g>
<g style="fill:#000000; fill-opacity:1.0000; 
stroke:#000000; stroke-width:0.0212; stroke-opacity:1; 
stroke-linecap:round; stroke-linejoin:round;">
</g>
<g >
</g>
<g style="fill:#000000; fill-opacity:1.0000; 
stroke:#000000; stroke-width:0.0212; stroke-opacity:1; 
stroke-linecap:round; stroke-linejoin:round;">
</g>
<g style="fill:#000000; fill-opacity:1.0000; 
stroke:#000000; stroke-width:0.0000; stroke-opacity:1; 
stroke-linecap:round; stroke-linejoin:round;">
<circle cx="60.9600" cy="76.2000" r="3.2000" /> 
</g>
<g style="fill:#000000; fill-opacity:1.0000; 
stroke:#000000; stroke-width:0.0212; stroke-opacity:1; 
stroke-linecap:round; stroke-linejoin:round;">
</g>
<g >
</g>
<g style="fill:#000000; fill-opacity:1.0000; 
stroke:#000000; stroke-width:0.0212; stroke-opacity:1; 
stroke-linecap:round; stroke-linejoin:round;">
</g>
<g style="fill:#000000; fill-opacity:1.0000; 
stroke:#000000; stroke-width:0.0000; stroke-opacity:1; 
stroke-linecap:round; stroke-linejoin:round;">
<circle cx="60.9600" cy="96.5200" r="3.7000" /> 
</g>
<g style="fill:#000000; fill-opacity:1.0000; 
stroke:#000000; stroke-width:0.0212; stroke-opacity:1; 
stroke-linecap:round; stroke-linejoin:round;">
</g>
<g >
</g>
<g style="fill:#000000; fill-opacity:1.0000; 
stroke:#000000; stroke-width:0.0212; stroke-opacity:1; 
stroke-linecap:round; stroke-linejoin:round;">
</g>
<g style="fill:#000000; fill-opacity:1.0000; 
stroke:#000000; stroke-width:0.0000; stroke-opacity:1; 
stroke-linecap:round; stroke-linejoin:round;">
<circle cx="60.9600" cy="157.4800" r="3.2000" /> 
</g>
<g style="fill:#000000; fill-opacity:1.0000; 
stroke:#000000; stroke-width:0.0212; stroke-opacity:1; 
stroke-linecap:round; stroke-linejoin:round;">
</g>
<g >
</g>
<g style="fill:#000000; fill-opacity:1.0000; 
stroke:#000000; stroke-width:0.0212; stroke-opacity:1; 
stroke-linecap:round; stroke-linejoin:round;">
</g>
<g style="fill:#000000; fill-opacity:1.0000; 
stroke:#000000; stroke-width:0.0000; stroke-opacity:1; 
stroke-linecap:round; stroke-linejoin:round;">
<circle cx="81.2800" cy="116.8400" r="3.2000" /> 
</g>
<g style="fill:#000000; fill-opacity:1.0000; 
stroke:#000000; stroke-width:0.0212; stroke-opacity:1; 
stroke-linecap:round; stroke-linejoin:round;">
</g>
<g >
</g>
<g style="fill:#000000; fill-opacity:1.0000; 
stroke:#000000; stroke-width:0.0212; stroke-opacity:1; 
stroke-linecap:round; stroke-linejoin:round;">
</g>
<g style="fill:#000000; fill-opacity:1.0000; 
stroke:#000000; stroke-width:0.0000; stroke-opacity:1; 
stroke-linecap:round; stroke-linejoin:round;">
<circle cx="60.9600" cy="137.1600" r="3.7000" /> 
</g>
<g style="fill:#000000; fill-opacity:1.0000; 
stroke:#000000; stroke-width:0.0212; stroke-opacity:1; 
stroke-linecap:round; stroke-linejoin:round;">
</g>
<g >
</g>
<g style="fill:#000000; fill-opacity:1.0000; 
stroke:#000000; stroke-width:0.0212; stroke-opacity:1; 
stroke-linecap:round; stroke-linejoin:round;">
</g>
<g style="fill:#000000; fill-opacity:1.0000; 
stroke:#000000; stroke-width:0.0000; stroke-opacity:1; 
stroke-linecap:round; stroke-linejoin:round;">
<circle cx="81.2800" cy="76.2000" r="3.2000" /> 
</g>
<g style="fill:#000000; fill-opacity:1.0000; 
stroke:#000000; stroke-width:0.0212; stroke-opacity:1; 
stroke-linecap:round; stroke-linejoin:round;">
</g>
<g >
</g>
<g style="fill:#000000; fill-opacity:1.0000; 
stroke:#000000; stroke-width:0.0212; stroke-opacity:1; 
stroke-linecap:round; stroke-linejoin:round;">
</g>
<g style="fill:#000000; fill-opacity:1.0000; 
stroke:#000000; stroke-width:0.0000; stroke-opacity:1; 
stroke-linecap:round; stroke-linejoin:round;">
<circle cx="81.2800" cy="96.5200" r="3.7000" /> 
</g>
<g style="fill:#000000; fill-opacity:1.0000; 
stroke:#000000; stroke-width:0.0212; stroke-opacity:1; 
stroke-linecap:round; stroke-linejoin:round;">
</g>
<g >
</g>
<g style="fill:#000000; fill-opacity:1.0000; 
stroke:#000000; stroke-width:0.0212; stroke-opacity:1; 
stroke-linecap:round; stroke-linejoin:round;">
</g>
<g style="fill:#000000; fill-opacity:1.0000; 
stroke:#000000; stroke-width:0.0000; stroke-opacity:1; 
stroke-linecap:round; stroke-linejoin:round;">
<circle cx="60.9600" cy="116.8400" r="3.2000" /> 
</g>
<g style="fill:#000000; fill-opacity:1.0000; 
stroke:#000000; stroke-width:0.0212; stroke-opacity:1; 
stroke-linecap:round; stroke-linejoin:round;">
</g>
<g >
</g>
<g style="fill:#000000; fill-opacity:1.0000; 
stroke:#000000; stroke-width:0.0212; stroke-opacity:1; 
stroke-linecap:round; stroke-linejoin:round;">
</g>
<g style="fill:#000000; fill-opacity:1.0000; 
stroke:#000000; stroke-width:0.0000; stroke-opacity:1; 
stroke-linecap:round; stroke-linejoin:round;">
<circle cx="81.2800" cy="137.1600" r="3.7000" /> 
</g>
<g style="fill:#000000; fill-opacity:1.0000; 
stroke:#000000; stroke-width:0.0212; stroke-opacity:1; 
stroke-linecap:round; stroke-linejoin:round;">
</g>
<g >
</g>
<g style="fill:#000000; fill-opacity:1.0000; 
stroke:#000000; stroke-width:0.0212; stroke-opacity:1; 
stroke-linecap:round; stroke-linejoin:round;">
</g>
<g style="fill:#000000; fill-opacity:1.0000; 
stroke:#000000; stroke-width:0.0000; stroke-opacity:1; 
stroke-linecap:round; stroke-linejoin:round;">
<circle cx="81.2800" cy="157.4800" r="3.2000" /> 
</g>
<g style="fill:#000000; fill-opacity:1.0000; 
stroke:#000000; stroke-width:0.0212; stroke-opacity:1; 
stroke-linecap:round; stroke-linejoin:round;">
</g>
<g >
</g>
<g >
</g>
<g >
</g>
</g> 
</svg>
