<!DOCTYPE svg PUBLIC "-//W3C//DTD SVG 1.1//EN" "http://www.w3.org/Graphics/SVG/1.1/DTD/svg11.dtd">
<svg xmlns="http://www.w3.org/2000/svg" version="1.1" width="4.0420002cm" height="13.3552501cm" viewBox="0 0 15913 52579">
            <title>Picture generated by PcbDraw </title>
            <desc>Picture generated by PcbDraw</desc>
        <g transform="translate(-9977, -9977)" id="boardContainer"><g clip-path="url(#cut-off)" mask="url(#hole-mask)"><defs><clipPath id="cut-off"><path d=" M 10000.0 10000.0 L 25866.0 10000.0 L 25866.0 62519.0 L 10000.0 62519.0 L 10000.0 10000.0 " style="fill-rule: evenodd;"/></clipPath></defs><g id="substrate-board" style="fill:#f0f0f0; stroke:#f0f0f0;"><path d=" M 10000.0 10000.0 L 25866.0 10000.0 L 25866.0 62519.0 L 10000.0 62519.0 L 10000.0 10000.0 " style="fill-rule: evenodd;"/><g style="fill:#000000; stroke: #000000;"><g style="fill-opacity:1; stroke-opacity:1; stroke-linecap:round; stroke-linejoin:round;" transform="translate(0 0) scale(1 1)">
</g>
<g style="fill-opacity:0.0; stroke-width:-0.000393701; stroke-opacity:1; stroke-linecap:round; stroke-linejoin:round;">
</g>
<g style="fill-opacity:0.0; stroke-width:47.2441; stroke-opacity:1; stroke-linecap:round; stroke-linejoin:round;">
<path d="M25866 62519 L10000 62519 "/>
<path d="M25866 10000 L25866 62519 "/>
<path d="M10000 10000 L10000 62519 "/>
<path d="M10000 10000 L25866 10000 "/>
<g>
</g>
<g>
</g>
<g>
</g>
<g>
</g>
<g>
</g>
<g>
</g>
<g>
</g>
<g>
</g>
<g>
</g>
<g>
</g>
<g>
</g>
<g>
</g>
</g> 
</g></g><g id="substrate-clad" style="fill:#9c6b28; stroke:#9c6b28;"><g style="fill-opacity:1; stroke-opacity:1; stroke-linecap:round; stroke-linejoin:round;" transform="translate(0 0) scale(1 1)">
</g>
<g style="fill-opacity:0.0; stroke-width:-0.000393701; stroke-opacity:1; stroke-linecap:round; stroke-linejoin:round;">
</g>
<g style="fill-opacity:0.0; stroke-width:98.4252; stroke-opacity:1; stroke-linecap:round; stroke-linejoin:round;">
<path d="M14000 20000 L22000 20000 "/>
</g>
<g style="fill-opacity:0.0; stroke-width:137.795; stroke-opacity:1; stroke-linecap:round; stroke-linejoin:round;">
<text x="19100" y="12690.6" textLength="9730.03" font-size="1574.8" lengthAdjust="spacingAndGlyphs" text-anchor="middle" opacity="0">&#1055;&#1054;&#1051;&#1048;&#1042;&#1054;&#1050;&#1057;</text>
<path d="M14516 12634 L14516 11453 L15191 11453 L15191 12634 "/>
<path d="M15978 11453 L16203 11453 L16315 11509 L16428 11621 L16484 11846 L16484 12240 L16428 12465 L16315 12578 L16203 12634 L15978 12634 L15866 12578 L15753 12465 L15697 12240 L15697 11846 L15753 11621 L15866 11509 L15978 11453 "/>
<path d="M17665 12634 L17665 11453 L17497 11453 L17328 11509 L17215 11621 L17159 11790 L17047 12465 L16990 12578 L16878 12634 L16822 12634 "/>
<path d="M18228 11453 L18228 12634 L18903 11453 L18903 12634 "/>
<path d="M19859 12015 L20028 12071 L20084 12128 L20140 12240 L20140 12409 L20084 12521 L20028 12578 L19915 12634 L19465 12634 L19465 11453 L19859 11453 L19971 11509 L20028 11565 L20084 11678 L20084 11790 L20028 11903 L19971 11959 L19859 12015 L19465 12015 "/>
<path d="M20871 11453 L21096 11453 L21209 11509 L21321 11621 L21377 11846 L21377 12240 L21321 12465 L21209 12578 L21096 12634 L20871 12634 L20759 12578 L20646 12465 L20590 12240 L20590 11846 L20646 11621 L20759 11509 L20871 11453 "/>
<path d="M21884 12634 L21884 11453 "/>
<path d="M22558 12634 L22052 11959 "/>
<path d="M22558 11453 L21884 12128 "/>
<path d="M23740 12521 L23683 12578 L23515 12634 L23402 12634 L23233 12578 L23121 12465 L23065 12353 L23008 12128 L23008 11959 L23065 11734 L23121 11621 L23233 11509 L23402 11453 L23515 11453 L23683 11509 L23740 11565 "/>
</g>
<g style="fill-opacity:0.0; stroke-width:98.4252; stroke-opacity:1; stroke-linecap:round; stroke-linejoin:round;">
<text x="22000" y="39993.7" textLength="4168.64" font-size="734.908" lengthAdjust="spacingAndGlyphs" text-anchor="middle" opacity="0">soft/hard</text>
<path d="M20110 39918 L20162 39956 L20267 39956 L20320 39918 L20346 39843 L20346 39806 L20320 39731 L20267 39693 L20188 39693 L20136 39656 L20110 39581 L20110 39543 L20136 39468 L20188 39431 L20267 39431 L20320 39468 "/>
<path d="M20661 39956 L20608 39918 L20582 39881 L20556 39806 L20556 39581 L20582 39506 L20608 39468 L20661 39431 L20740 39431 L20792 39468 L20818 39506 L20845 39581 L20845 39806 L20818 39881 L20792 39918 L20740 39956 L20661 39956 "/>
<path d="M21002 39431 L21212 39431 "/>
<path d="M21081 39956 L21081 39281 L21107 39206 L21160 39168 L21212 39168 "/>
<path d="M21317 39431 L21527 39431 "/>
<path d="M21396 39168 L21396 39843 L21422 39918 L21475 39956 L21527 39956 "/>
<path d="M22104 39131 L21632 40143 "/>
<path d="M22288 39956 L22288 39168 "/>
<path d="M22524 39956 L22524 39543 L22498 39468 L22446 39431 L22367 39431 L22314 39468 L22288 39506 "/>
<path d="M23023 39956 L23023 39543 L22997 39468 L22944 39431 L22839 39431 L22787 39468 "/>
<path d="M23023 39918 L22971 39956 L22839 39956 L22787 39918 L22761 39843 L22761 39768 L22787 39693 L22839 39656 L22971 39656 L23023 39618 "/>
<path d="M23286 39956 L23286 39431 "/>
<path d="M23286 39581 L23312 39506 L23338 39468 L23391 39431 L23443 39431 "/>
<path d="M23863 39956 L23863 39168 "/>
<path d="M23863 39918 L23811 39956 L23706 39956 L23653 39918 L23627 39881 L23601 39806 L23601 39581 L23627 39506 L23653 39468 L23706 39431 L23811 39431 L23863 39468 "/>
<text x="22000" y="39993.7" textLength="4117.45" font-size="734.908" lengthAdjust="spacingAndGlyphs" text-anchor="middle" opacity="0">soft/hard</text>
<path d="M20110 39918 L20162 39956 L20267 39956 L20320 39918 L20346 39843 L20346 39806 L20320 39731 L20267 39693 L20188 39693 L20136 39656 L20110 39581 L20110 39543 L20136 39468 L20188 39431 L20267 39431 L20320 39468 "/>
<path d="M20661 39956 L20608 39918 L20582 39881 L20556 39806 L20556 39581 L20582 39506 L20608 39468 L20661 39431 L20740 39431 L20792 39468 L20818 39506 L20845 39581 L20845 39806 L20818 39881 L20792 39918 L20740 39956 L20661 39956 "/>
<path d="M21002 39431 L21212 39431 "/>
<path d="M21081 39956 L21081 39281 L21107 39206 L21160 39168 L21212 39168 "/>
<path d="M21317 39431 L21527 39431 "/>
<path d="M21396 39168 L21396 39843 L21422 39918 L21475 39956 L21527 39956 "/>
<path d="M22104 39131 L21632 40143 "/>
<path d="M22288 39956 L22288 39168 "/>
<path d="M22524 39956 L22524 39543 L22498 39468 L22446 39431 L22367 39431 L22314 39468 L22288 39506 "/>
<path d="M23023 39956 L23023 39543 L22997 39468 L22944 39431 L22839 39431 L22787 39468 "/>
<path d="M23023 39918 L22971 39956 L22839 39956 L22787 39918 L22761 39843 L22761 39768 L22787 39693 L22839 39656 L22971 39656 L23023 39618 "/>
<path d="M23286 39956 L23286 39431 "/>
<path d="M23286 39581 L23312 39506 L23338 39468 L23391 39431 L23443 39431 "/>
<path d="M23863 39956 L23863 39168 "/>
<path d="M23863 39918 L23811 39956 L23706 39956 L23653 39918 L23627 39881 L23601 39806 L23601 39581 L23627 39506 L23653 39468 L23706 39431 L23811 39431 L23863 39468 "/>
<text x="22000" y="39993.7" textLength="4117.45" font-size="734.908" lengthAdjust="spacingAndGlyphs" text-anchor="middle" opacity="0">soft/hard</text>
<path d="M20110 39918 L20162 39956 L20267 39956 L20320 39918 L20346 39843 L20346 39806 L20320 39731 L20267 39693 L20188 39693 L20136 39656 L20110 39581 L20110 39543 L20136 39468 L20188 39431 L20267 39431 L20320 39468 "/>
<path d="M20661 39956 L20608 39918 L20582 39881 L20556 39806 L20556 39581 L20582 39506 L20608 39468 L20661 39431 L20740 39431 L20792 39468 L20818 39506 L20845 39581 L20845 39806 L20818 39881 L20792 39918 L20740 39956 L20661 39956 "/>
<path d="M21002 39431 L21212 39431 "/>
<path d="M21081 39956 L21081 39281 L21107 39206 L21160 39168 L21212 39168 "/>
<path d="M21317 39431 L21527 39431 "/>
<path d="M21396 39168 L21396 39843 L21422 39918 L21475 39956 L21527 39956 "/>
<path d="M22104 39131 L21632 40143 "/>
<path d="M22288 39956 L22288 39168 "/>
<path d="M22524 39956 L22524 39543 L22498 39468 L22446 39431 L22367 39431 L22314 39468 L22288 39506 "/>
<path d="M23023 39956 L23023 39543 L22997 39468 L22944 39431 L22839 39431 L22787 39468 "/>
<path d="M23023 39918 L22971 39956 L22839 39956 L22787 39918 L22761 39843 L22761 39768 L22787 39693 L22839 39656 L22971 39656 L23023 39618 "/>
<path d="M23286 39956 L23286 39431 "/>
<path d="M23286 39581 L23312 39506 L23338 39468 L23391 39431 L23443 39431 "/>
<path d="M23863 39956 L23863 39168 "/>
<path d="M23863 39918 L23811 39956 L23706 39956 L23653 39918 L23627 39881 L23601 39806 L23601 39581 L23627 39506 L23653 39468 L23706 39431 L23811 39431 L23863 39468 "/>
<text x="22000" y="55993.7" textLength="915.354" font-size="734.908" lengthAdjust="spacingAndGlyphs" text-anchor="middle" opacity="0">lp</text>
<path d="M21816 55956 L21763 55918 L21737 55843 L21737 55168 "/>
<path d="M22026 55431 L22026 56218 "/>
<path d="M22026 55468 L22078 55431 L22183 55431 L22236 55468 L22262 55506 L22288 55581 L22288 55806 L22262 55881 L22236 55918 L22183 55956 L22078 55956 L22026 55918 "/>
<text x="22000" y="55993.7" textLength="915.354" font-size="734.908" lengthAdjust="spacingAndGlyphs" text-anchor="middle" opacity="0">lp</text>
<path d="M21816 55956 L21763 55918 L21737 55843 L21737 55168 "/>
<path d="M22026 55431 L22026 56218 "/>
<path d="M22026 55468 L22078 55431 L22183 55431 L22236 55468 L22262 55506 L22288 55581 L22288 55806 L22262 55881 L22236 55918 L22183 55956 L22078 55956 L22026 55918 "/>
<text x="22000" y="55993.7" textLength="915.354" font-size="734.908" lengthAdjust="spacingAndGlyphs" text-anchor="middle" opacity="0">lp</text>
<path d="M21816 55956 L21763 55918 L21737 55843 L21737 55168 "/>
<path d="M22026 55431 L22026 56218 "/>
<path d="M22026 55468 L22078 55431 L22183 55431 L22236 55468 L22262 55506 L22288 55581 L22288 55806 L22262 55881 L22236 55918 L22183 55956 L22078 55956 L22026 55918 "/>
<text x="22000" y="47993.7" textLength="1387.8" font-size="734.908" lengthAdjust="spacingAndGlyphs" text-anchor="middle" opacity="0">res</text>
<path d="M21501 47956 L21501 47431 "/>
<path d="M21501 47581 L21527 47506 L21553 47468 L21606 47431 L21658 47431 "/>
<path d="M22052 47918 L22000 47956 L21895 47956 L21842 47918 L21816 47843 L21816 47543 L21842 47468 L21895 47431 L22000 47431 L22052 47468 L22078 47543 L22078 47618 L21816 47693 "/>
<path d="M22288 47918 L22341 47956 L22446 47956 L22498 47918 L22524 47843 L22524 47806 L22498 47731 L22446 47693 L22367 47693 L22314 47656 L22288 47581 L22288 47543 L22314 47468 L22367 47431 L22446 47431 L22498 47468 "/>
<text x="22000" y="47993.7" textLength="1387.8" font-size="734.908" lengthAdjust="spacingAndGlyphs" text-anchor="middle" opacity="0">res</text>
<path d="M21501 47956 L21501 47431 "/>
<path d="M21501 47581 L21527 47506 L21553 47468 L21606 47431 L21658 47431 "/>
<path d="M22052 47918 L22000 47956 L21895 47956 L21842 47918 L21816 47843 L21816 47543 L21842 47468 L21895 47431 L22000 47431 L22052 47468 L22078 47543 L22078 47618 L21816 47693 "/>
<path d="M22288 47918 L22341 47956 L22446 47956 L22498 47918 L22524 47843 L22524 47806 L22498 47731 L22446 47693 L22367 47693 L22314 47656 L22288 47581 L22288 47543 L22314 47468 L22367 47431 L22446 47431 L22498 47468 "/>
<text x="22000" y="47993.7" textLength="1387.8" font-size="734.908" lengthAdjust="spacingAndGlyphs" text-anchor="middle" opacity="0">res</text>
<path d="M21501 47956 L21501 47431 "/>
<path d="M21501 47581 L21527 47506 L21553 47468 L21606 47431 L21658 47431 "/>
<path d="M22052 47918 L22000 47956 L21895 47956 L21842 47918 L21816 47843 L21816 47543 L21842 47468 L21895 47431 L22000 47431 L22052 47468 L22078 47543 L22078 47618 L21816 47693 "/>
<path d="M22288 47918 L22341 47956 L22446 47956 L22498 47918 L22524 47843 L22524 47806 L22498 47731 L22446 47693 L22367 47693 L22314 47656 L22288 47581 L22288 47543 L22314 47468 L22367 47431 L22446 47431 L22498 47468 "/>
<text x="22000" y="31993.7" textLength="1755.25" font-size="734.908" lengthAdjust="spacingAndGlyphs" text-anchor="middle" opacity="0">freq</text>
<path d="M21238 31431 L21448 31431 "/>
<path d="M21317 31956 L21317 31281 L21343 31206 L21396 31168 L21448 31168 "/>
<path d="M21632 31956 L21632 31431 "/>
<path d="M21632 31581 L21658 31506 L21685 31468 L21737 31431 L21790 31431 "/>
<path d="M22183 31918 L22131 31956 L22026 31956 L21973 31918 L21947 31843 L21947 31543 L21973 31468 L22026 31431 L22131 31431 L22183 31468 L22209 31543 L22209 31618 L21947 31693 "/>
<path d="M22682 31431 L22682 32218 "/>
<path d="M22682 31918 L22629 31956 L22524 31956 L22472 31918 L22446 31881 L22419 31806 L22419 31581 L22446 31506 L22472 31468 L22524 31431 L22629 31431 L22682 31468 "/>
<text x="22000" y="31993.7" textLength="1755.25" font-size="734.908" lengthAdjust="spacingAndGlyphs" text-anchor="middle" opacity="0">freq</text>
<path d="M21238 31431 L21448 31431 "/>
<path d="M21317 31956 L21317 31281 L21343 31206 L21396 31168 L21448 31168 "/>
<path d="M21632 31956 L21632 31431 "/>
<path d="M21632 31581 L21658 31506 L21685 31468 L21737 31431 L21790 31431 "/>
<path d="M22183 31918 L22131 31956 L22026 31956 L21973 31918 L21947 31843 L21947 31543 L21973 31468 L22026 31431 L22131 31431 L22183 31468 L22209 31543 L22209 31618 L21947 31693 "/>
<path d="M22682 31431 L22682 32218 "/>
<path d="M22682 31918 L22629 31956 L22524 31956 L22472 31918 L22446 31881 L22419 31806 L22419 31581 L22446 31506 L22472 31468 L22524 31431 L22629 31431 L22682 31468 "/>
<text x="22000" y="31993.7" textLength="1755.25" font-size="734.908" lengthAdjust="spacingAndGlyphs" text-anchor="middle" opacity="0">freq</text>
<path d="M21238 31431 L21448 31431 "/>
<path d="M21317 31956 L21317 31281 L21343 31206 L21396 31168 L21448 31168 "/>
<path d="M21632 31956 L21632 31431 "/>
<path d="M21632 31581 L21658 31506 L21685 31468 L21737 31431 L21790 31431 "/>
<path d="M22183 31918 L22131 31956 L22026 31956 L21973 31918 L21947 31843 L21947 31543 L21973 31468 L22026 31431 L22131 31431 L22183 31468 L22209 31543 L22209 31618 L21947 31693 "/>
<path d="M22682 31431 L22682 32218 "/>
<path d="M22682 31918 L22629 31956 L22524 31956 L22472 31918 L22446 31881 L22419 31806 L22419 31581 L22446 31506 L22472 31468 L22524 31431 L22629 31431 L22682 31468 "/>
<text x="18000" y="55993.7" textLength="1125.33" font-size="734.908" lengthAdjust="spacingAndGlyphs" text-anchor="middle" opacity="0">bp</text>
<path d="M17632 55956 L17632 55168 "/>
<path d="M17632 55468 L17685 55431 L17790 55431 L17842 55468 L17868 55506 L17895 55581 L17895 55806 L17868 55881 L17842 55918 L17790 55956 L17685 55956 L17632 55918 "/>
<path d="M18131 55431 L18131 56218 "/>
<path d="M18131 55468 L18183 55431 L18288 55431 L18341 55468 L18367 55506 L18393 55581 L18393 55806 L18367 55881 L18341 55918 L18288 55956 L18183 55956 L18131 55918 "/>
<text x="18000" y="55993.7" textLength="1125.33" font-size="734.908" lengthAdjust="spacingAndGlyphs" text-anchor="middle" opacity="0">bp</text>
<path d="M17632 55956 L17632 55168 "/>
<path d="M17632 55468 L17685 55431 L17790 55431 L17842 55468 L17868 55506 L17895 55581 L17895 55806 L17868 55881 L17842 55918 L17790 55956 L17685 55956 L17632 55918 "/>
<path d="M18131 55431 L18131 56218 "/>
<path d="M18131 55468 L18183 55431 L18288 55431 L18341 55468 L18367 55506 L18393 55581 L18393 55806 L18367 55881 L18341 55918 L18288 55956 L18183 55956 L18131 55918 "/>
<text x="18000" y="55993.7" textLength="1125.33" font-size="734.908" lengthAdjust="spacingAndGlyphs" text-anchor="middle" opacity="0">bp</text>
<path d="M17632 55956 L17632 55168 "/>
<path d="M17632 55468 L17685 55431 L17790 55431 L17842 55468 L17868 55506 L17895 55581 L17895 55806 L17868 55881 L17842 55918 L17790 55956 L17685 55956 L17632 55918 "/>
<path d="M18131 55431 L18131 56218 "/>
<path d="M18131 55468 L18183 55431 L18288 55431 L18341 55468 L18367 55506 L18393 55581 L18393 55806 L18367 55881 L18341 55918 L18288 55956 L18183 55956 L18131 55918 "/>
<text x="14000" y="55993.7" textLength="889.107" font-size="734.908" lengthAdjust="spacingAndGlyphs" text-anchor="middle" opacity="0">in</text>
<path d="M13750 55956 L13750 55431 "/>
<path d="M13750 55168 L13724 55206 L13750 55243 L13776 55206 L13750 55168 L13750 55243 "/>
<path d="M14013 55431 L14013 55956 "/>
<path d="M14013 55506 L14039 55468 L14091 55431 L14170 55431 L14223 55468 L14249 55543 L14249 55956 "/>
<text x="14000" y="55993.7" textLength="889.107" font-size="734.908" lengthAdjust="spacingAndGlyphs" text-anchor="middle" opacity="0">in</text>
<path d="M13750 55956 L13750 55431 "/>
<path d="M13750 55168 L13724 55206 L13750 55243 L13776 55206 L13750 55168 L13750 55243 "/>
<path d="M14013 55431 L14013 55956 "/>
<path d="M14013 55506 L14039 55468 L14091 55431 L14170 55431 L14223 55468 L14249 55543 L14249 55956 "/>
<text x="14000" y="55993.7" textLength="889.107" font-size="734.908" lengthAdjust="spacingAndGlyphs" text-anchor="middle" opacity="0">in</text>
<path d="M13750 55956 L13750 55431 "/>
<path d="M13750 55168 L13724 55206 L13750 55243 L13776 55206 L13750 55168 L13750 55243 "/>
<path d="M14013 55431 L14013 55956 "/>
<path d="M14013 55506 L14039 55468 L14091 55431 L14170 55431 L14223 55468 L14249 55543 L14249 55956 "/>
<text x="14000" y="31993.7" textLength="1020.34" font-size="734.908" lengthAdjust="spacingAndGlyphs" text-anchor="middle" opacity="0">cv</text>
<path d="M13921 31918 L13868 31956 L13763 31956 L13711 31918 L13685 31881 L13658 31806 L13658 31581 L13685 31506 L13711 31468 L13763 31431 L13868 31431 L13921 31468 "/>
<path d="M14104 31431 L14236 31956 L14367 31431 "/>
<text x="14000" y="31993.7" textLength="1020.34" font-size="734.908" lengthAdjust="spacingAndGlyphs" text-anchor="middle" opacity="0">cv</text>
<path d="M13921 31918 L13868 31956 L13763 31956 L13711 31918 L13685 31881 L13658 31806 L13658 31581 L13685 31506 L13711 31468 L13763 31431 L13868 31431 L13921 31468 "/>
<path d="M14104 31431 L14236 31956 L14367 31431 "/>
<text x="14000" y="31993.7" textLength="1020.34" font-size="734.908" lengthAdjust="spacingAndGlyphs" text-anchor="middle" opacity="0">cv</text>
<path d="M13921 31918 L13868 31956 L13763 31956 L13711 31918 L13685 31881 L13658 31806 L13658 31581 L13685 31506 L13711 31468 L13763 31431 L13868 31431 L13921 31468 "/>
<path d="M14104 31431 L14236 31956 L14367 31431 "/>
<text x="14000" y="23993.7" textLength="1177.82" font-size="734.908" lengthAdjust="spacingAndGlyphs" text-anchor="middle" opacity="0">fm</text>
<path d="M13527 23431 L13737 23431 "/>
<path d="M13606 23956 L13606 23281 L13632 23206 L13685 23168 L13737 23168 "/>
<path d="M13921 23956 L13921 23431 "/>
<path d="M13921 23506 L13947 23468 L14000 23431 L14078 23431 L14131 23468 L14157 23543 L14157 23956 "/>
<path d="M14157 23543 L14183 23468 L14236 23431 L14314 23431 L14367 23468 L14393 23543 L14393 23956 "/>
<text x="14000" y="23993.7" textLength="1177.82" font-size="734.908" lengthAdjust="spacingAndGlyphs" text-anchor="middle" opacity="0">fm</text>
<path d="M13527 23431 L13737 23431 "/>
<path d="M13606 23956 L13606 23281 L13632 23206 L13685 23168 L13737 23168 "/>
<path d="M13921 23956 L13921 23431 "/>
<path d="M13921 23506 L13947 23468 L14000 23431 L14078 23431 L14131 23468 L14157 23543 L14157 23956 "/>
<path d="M14157 23543 L14183 23468 L14236 23431 L14314 23431 L14367 23468 L14393 23543 L14393 23956 "/>
<text x="14000" y="23993.7" textLength="1177.82" font-size="734.908" lengthAdjust="spacingAndGlyphs" text-anchor="middle" opacity="0">fm</text>
<path d="M13527 23431 L13737 23431 "/>
<path d="M13606 23956 L13606 23281 L13632 23206 L13685 23168 L13737 23168 "/>
<path d="M13921 23956 L13921 23431 "/>
<path d="M13921 23506 L13947 23468 L14000 23431 L14078 23431 L14131 23468 L14157 23543 L14157 23956 "/>
<path d="M14157 23543 L14183 23468 L14236 23431 L14314 23431 L14367 23468 L14393 23543 L14393 23956 "/>
</g>
<g style="fill-opacity:1.0; stroke-width:0; stroke-opacity:1; stroke-linecap:round; stroke-linejoin:round;">
<path style="fill-opacity:1.0; stroke-width:0; stroke-opacity:1; stroke-linecap:round; stroke-linejoin:round;fill-rule:evenodd;" d="M 13100.5,59917.8 13142.4,59926.2 13260.6,59975.2 13367.1,60046.3 13457.6,60136.8 13528.8,60243.3 13577.8,60361.6 13602.8,60487.2 13602.8,60615.2 13577.8,60740.8 13528.8,60859.1 13457.6,60965.5 13367.1,61056.1 13260.6,61127.2 13142.4,61176.2 13100.5,61184.5 13016.8,61201.2 12888.7,61201.2 12805,61184.5 12763.2,61176.2 12644.9,61127.2 12538.4,61056.1 12447.9,60965.5 12376.7,60859.1 12327.7,60740.8 12302.8,60615.2 12302.8,60487.2 12327.7,60361.6 12376.7,60243.3 12447.9,60136.8 12538.4,60046.3 12644.9,59975.2 12763.2,59926.2 12805,59917.8 12888.7,59901.2 13016.8,59901.2 Z"/> 
<path style="fill-opacity:1.0; stroke-width:0; stroke-opacity:1; stroke-linecap:round; stroke-linejoin:round;fill-rule:evenodd;" d="M 14249.7,50744.7 14373.3,50769.3 14606.3,50865.7 14815.9,51005.8 14994.2,51184.1 15134.3,51393.7 15230.7,51626.7 15279.9,51873.9 15279.9,52126.1 15230.7,52373.3 15134.3,52606.3 14994.2,52815.9 14815.9,52994.2 14606.3,53134.3 14373.3,53230.7 14249.7,53255.3 14126.1,53279.9 13873.9,53279.9 13750.3,53255.3 13626.7,53230.7 13393.7,53134.3 13184.1,52994.2 13005.8,52815.9 12865.7,52606.3 12769.3,52373.3 12720.1,52126.1 12720.1,51873.9 12769.3,51626.7 12865.7,51393.7 13005.8,51184.1 13184.1,51005.8 13393.7,50865.7 13626.7,50769.3 13750.3,50744.7 13873.9,50720.1 14126.1,50720.1 Z"/> 
<path style="fill-opacity:1.0; stroke-width:0; stroke-opacity:1; stroke-linecap:round; stroke-linejoin:round;fill-rule:evenodd;" d="M 18249.7,50744.7 18373.3,50769.3 18606.3,50865.7 18815.9,51005.8 18994.2,51184.1 19134.3,51393.7 19230.7,51626.7 19279.9,51873.9 19279.9,52126.1 19230.7,52373.3 19134.3,52606.3 18994.2,52815.9 18815.9,52994.2 18606.3,53134.3 18373.3,53230.7 18249.7,53255.3 18126.1,53279.9 17873.9,53279.9 17750.3,53255.3 17626.7,53230.7 17393.7,53134.3 17184.1,52994.2 17005.8,52815.9 16865.7,52606.3 16769.3,52373.3 16720.1,52126.1 16720.1,51873.9 16769.3,51626.7 16865.7,51393.7 17005.8,51184.1 17184.1,51005.8 17393.7,50865.7 17626.7,50769.3 17750.3,50744.7 17873.9,50720.1 18126.1,50720.1 Z"/> 
<path style="fill-opacity:1.0; stroke-width:0; stroke-opacity:1; stroke-linecap:round; stroke-linejoin:round;fill-rule:evenodd;" d="M 22249.7,50744.7 22373.3,50769.3 22606.3,50865.7 22815.9,51005.8 22994.2,51184.1 23134.3,51393.7 23230.7,51626.7 23279.9,51873.9 23279.9,52126.1 23230.7,52373.3 23134.3,52606.3 22994.2,52815.9 22815.9,52994.2 22606.3,53134.3 22373.3,53230.7 22249.7,53255.3 22126.1,53279.9 21873.9,53279.9 21750.3,53255.3 21626.7,53230.7 21393.7,53134.3 21184.1,52994.2 21005.8,52815.9 20865.7,52606.3 20769.3,52373.3 20720.1,52126.1 20720.1,51873.9 20769.3,51626.7 20865.7,51393.7 21005.8,51184.1 21184.1,51005.8 21393.7,50865.7 21626.7,50769.3 21750.3,50744.7 21873.9,50720.1 22126.1,50720.1 Z"/> 
<path style="fill-opacity:1.0; stroke-width:0; stroke-opacity:1; stroke-linecap:round; stroke-linejoin:round;fill-rule:evenodd;" d="M 22335.7,42561.1 22430.8,42580 22699.5,42691.3 22941.4,42852.9 23147.1,43058.6 23308.7,43300.5 23420,43569.2 23476.8,43854.6 23476.8,44145.4 23420,44430.8 23308.7,44699.5 23147.1,44941.4 22941.4,45147.1 22699.5,45308.7 22430.8,45420 22335.7,45438.9 22145.5,45476.8 21854.5,45476.8 21664.3,45438.9 21569.2,45420 21300.5,45308.7 21058.6,45147.1 20852.9,44941.4 20691.3,44699.5 20580,44430.8 20523.2,44145.4 20523.2,43854.6 20580,43569.2 20691.3,43300.5 20852.9,43058.6 21058.6,42852.9 21300.5,42691.3 21569.2,42580 21664.3,42561.1 21854.5,42523.2 22145.5,42523.2 Z"/> 
<path style="fill-opacity:1.0; stroke-width:0; stroke-opacity:1; stroke-linecap:round; stroke-linejoin:round;fill-rule:evenodd;" d="M 22249.7,34744.7 22373.3,34769.3 22606.3,34865.7 22815.9,35005.8 22994.2,35184.1 23134.3,35393.7 23230.7,35626.7 23279.9,35873.9 23279.9,36126.1 23230.7,36373.3 23134.3,36606.3 22994.2,36815.9 22815.9,36994.2 22606.3,37134.3 22373.3,37230.7 22249.7,37255.3 22126.1,37279.9 21873.9,37279.9 21750.3,37255.3 21626.7,37230.7 21393.7,37134.3 21184.1,36994.2 21005.8,36815.9 20865.7,36606.3 20769.3,36373.3 20720.1,36126.1 20720.1,35873.9 20769.3,35626.7 20865.7,35393.7 21005.8,35184.1 21184.1,35005.8 21393.7,34865.7 21626.7,34769.3 21750.3,34744.7 21873.9,34720.1 22126.1,34720.1 Z"/> 
<path style="fill-opacity:1.0; stroke-width:0; stroke-opacity:1; stroke-linecap:round; stroke-linejoin:round;fill-rule:evenodd;" d="M 22335.7,26561.1 22430.8,26580 22699.5,26691.3 22941.4,26852.9 23147.1,27058.6 23308.7,27300.5 23420,27569.2 23476.8,27854.6 23476.8,28145.4 23420,28430.8 23308.7,28699.5 23147.1,28941.4 22941.4,29147.1 22699.5,29308.7 22430.8,29420 22335.7,29438.9 22145.5,29476.8 21854.5,29476.8 21664.3,29438.9 21569.2,29420 21300.5,29308.7 21058.6,29147.1 20852.9,28941.4 20691.3,28699.5 20580,28430.8 20523.2,28145.4 20523.2,27854.6 20580,27569.2 20691.3,27300.5 20852.9,27058.6 21058.6,26852.9 21300.5,26691.3 21569.2,26580 21664.3,26561.1 21854.5,26523.2 22145.5,26523.2 Z"/> 
<path style="fill-opacity:1.0; stroke-width:0; stroke-opacity:1; stroke-linecap:round; stroke-linejoin:round;fill-rule:evenodd;" d="M 14249.7,26744.7 14373.3,26769.3 14606.3,26865.7 14815.9,27005.8 14994.2,27184.1 15134.3,27393.7 15230.7,27626.7 15279.9,27873.9 15279.9,28126.1 15230.7,28373.3 15134.3,28606.3 14994.2,28815.9 14815.9,28994.2 14606.3,29134.3 14373.3,29230.7 14249.7,29255.3 14126.1,29279.9 13873.9,29279.9 13750.3,29255.3 13626.7,29230.7 13393.7,29134.3 13184.1,28994.2 13005.8,28815.9 12865.7,28606.3 12769.3,28373.3 12720.1,28126.1 12720.1,27873.9 12769.3,27626.7 12865.7,27393.7 13005.8,27184.1 13184.1,27005.8 13393.7,26865.7 13626.7,26769.3 13750.3,26744.7 13873.9,26720.1 14126.1,26720.1 Z"/> 
<path style="fill-opacity:1.0; stroke-width:0; stroke-opacity:1; stroke-linecap:round; stroke-linejoin:round;fill-rule:evenodd;" d="M 22335.7,18561.1 22430.8,18580 22699.5,18691.3 22941.4,18852.9 23147.1,19058.6 23308.7,19300.5 23420,19569.2 23476.8,19854.6 23476.8,20145.4 23420,20430.8 23308.7,20699.5 23147.1,20941.4 22941.4,21147.1 22699.5,21308.7 22430.8,21420 22335.7,21438.9 22145.5,21476.8 21854.5,21476.8 21664.3,21438.9 21569.2,21420 21300.5,21308.7 21058.6,21147.1 20852.9,20941.4 20691.3,20699.5 20580,20430.8 20523.2,20145.4 20523.2,19854.6 20580,19569.2 20691.3,19300.5 20852.9,19058.6 21058.6,18852.9 21300.5,18691.3 21569.2,18580 21664.3,18561.1 21854.5,18523.2 22145.5,18523.2 Z"/> 
<path style="fill-opacity:1.0; stroke-width:0; stroke-opacity:1; stroke-linecap:round; stroke-linejoin:round;fill-rule:evenodd;" d="M 14249.7,18744.7 14373.3,18769.3 14606.3,18865.7 14815.9,19005.8 14994.2,19184.1 15134.3,19393.7 15230.7,19626.7 15279.9,19873.9 15279.9,20126.1 15230.7,20373.3 15134.3,20606.3 14994.2,20815.9 14815.9,20994.2 14606.3,21134.3 14373.3,21230.7 14249.7,21255.3 14126.1,21279.9 13873.9,21279.9 13750.3,21255.3 13626.7,21230.7 13393.7,21134.3 13184.1,20994.2 13005.8,20815.9 12865.7,20606.3 12769.3,20373.3 12720.1,20126.1 12720.1,19873.9 12769.3,19626.7 12865.7,19393.7 13005.8,19184.1 13184.1,19005.8 13393.7,18865.7 13626.7,18769.3 13750.3,18744.7 13873.9,18720.1 14126.1,18720.1 Z"/> 
<path style="fill-opacity:1.0; stroke-width:0; stroke-opacity:1; stroke-linecap:round; stroke-linejoin:round;fill-rule:evenodd;" d="M 13100.5,11335.2 13142.4,11343.5 13260.6,11392.5 13367.1,11463.6 13457.6,11554.2 13528.8,11660.6 13577.8,11778.9 13602.8,11904.5 13602.8,12032.5 13577.8,12158.1 13528.8,12276.4 13457.6,12382.9 13367.1,12473.4 13260.6,12544.5 13142.4,12593.5 13100.5,12601.9 13016.8,12618.5 12888.7,12618.5 12805,12601.9 12763.2,12593.5 12644.9,12544.5 12538.4,12473.4 12447.9,12382.9 12376.7,12276.4 12327.7,12158.1 12302.8,12032.5 12302.8,11904.5 12327.7,11778.9 12376.7,11660.6 12447.9,11554.2 12538.4,11463.6 12644.9,11392.5 12763.2,11343.5 12805,11335.2 12888.7,11318.5 13016.8,11318.5 Z"/> 
</g> 
</g><g id="substrate-copper" style="fill:#417e5a; stroke:#417e5a;"><g style="fill-opacity:1; stroke-opacity:1; stroke-linecap:round; stroke-linejoin:round;" transform="translate(0 0) scale(1 1)">
</g>
<g style="fill-opacity:0.0; stroke-width:-0.000393701; stroke-opacity:1; stroke-linecap:round; stroke-linejoin:round;">
</g>
<g style="fill-opacity:0.0; stroke-width:98.4252; stroke-opacity:1; stroke-linecap:round; stroke-linejoin:round;">
<text x="23669.3" y="61452.8" textLength="1729" font-size="734.908" lengthAdjust="spacingAndGlyphs" text-anchor="middle" opacity="0">R01</text>
<path d="M23314 61415 L23131 61040 "/>
<path d="M23000 61415 L23000 60627 L23209 60627 L23262 60665 L23288 60702 L23314 60777 L23314 60890 L23288 60965 L23262 61002 L23209 61040 L23000 61040 "/>
<path d="M23656 60627 L23708 60627 L23761 60665 L23787 60702 L23813 60777 L23839 60927 L23839 61115 L23813 61265 L23787 61340 L23761 61377 L23708 61415 L23656 61415 L23603 61377 L23577 61340 L23551 61265 L23524 61115 L23524 60927 L23551 60777 L23577 60702 L23603 60665 L23656 60627 "/>
<path d="M24364 61415 L24049 61415 "/>
<path d="M24207 61415 L24207 60627 L24154 60740 L24102 60815 L24049 60852 "/>
<g>
</g>
<g>
</g>
<g>
</g>
<g>
</g>
<g>
</g>
<g>
</g>
<g>
</g>
<g>
</g>
<g>
</g>
<g>
</g>
<g>
</g>
<g>
</g>
<g>
</g>
<g>
</g>
</g>
<g style="fill-opacity:0.0; stroke-width:98.4252; stroke-opacity:1; stroke-linecap:round; stroke-linejoin:round;">
</g>
<g style="fill-opacity:1.0; stroke-width:0; stroke-opacity:1; stroke-linecap:round; stroke-linejoin:round;">
<circle cx="12952.8" cy="11968.5" r="68.8976"/> 
</g>
<g style="fill-opacity:1.0; stroke-width:59.0551; stroke-opacity:1; stroke-linecap:round; stroke-linejoin:round;">
</g>
<g style="fill-opacity:1.0; stroke-width:0; stroke-opacity:1; stroke-linecap:round; stroke-linejoin:round;">
<circle cx="12952.8" cy="60551.2" r="68.8976"/> 
</g>
<g style="fill-opacity:1.0; stroke-width:59.0551; stroke-opacity:1; stroke-linecap:round; stroke-linejoin:round;">
</g>
<g style="fill-opacity:1.0; stroke-width:0; stroke-opacity:1; stroke-linecap:round; stroke-linejoin:round;">
<circle cx="22000" cy="36000" r="68.8976"/> 
</g>
<g style="fill-opacity:1.0; stroke-width:59.0551; stroke-opacity:1; stroke-linecap:round; stroke-linejoin:round;">
</g>
<g style="fill-opacity:1.0; stroke-width:0; stroke-opacity:1; stroke-linecap:round; stroke-linejoin:round;">
<circle cx="22000" cy="52000" r="68.8976"/> 
</g>
<g style="fill-opacity:1.0; stroke-width:59.0551; stroke-opacity:1; stroke-linecap:round; stroke-linejoin:round;">
</g>
<g style="fill-opacity:1.0; stroke-width:0; stroke-opacity:1; stroke-linecap:round; stroke-linejoin:round;">
<circle cx="22000" cy="44000" r="68.8976"/> 
</g>
<g style="fill-opacity:1.0; stroke-width:59.0551; stroke-opacity:1; stroke-linecap:round; stroke-linejoin:round;">
</g>
<g style="fill-opacity:1.0; stroke-width:0; stroke-opacity:1; stroke-linecap:round; stroke-linejoin:round;">
<circle cx="22000" cy="28000" r="68.8976"/> 
</g>
<g style="fill-opacity:1.0; stroke-width:59.0551; stroke-opacity:1; stroke-linecap:round; stroke-linejoin:round;">
</g>
<g style="fill-opacity:1.0; stroke-width:0; stroke-opacity:1; stroke-linecap:round; stroke-linejoin:round;">
<circle cx="18000" cy="52000" r="68.8976"/> 
</g>
<g style="fill-opacity:1.0; stroke-width:59.0551; stroke-opacity:1; stroke-linecap:round; stroke-linejoin:round;">
</g>
<g style="fill-opacity:1.0; stroke-width:0; stroke-opacity:1; stroke-linecap:round; stroke-linejoin:round;">
<circle cx="14000" cy="52000" r="68.8976"/> 
</g>
<g style="fill-opacity:1.0; stroke-width:59.0551; stroke-opacity:1; stroke-linecap:round; stroke-linejoin:round;">
</g>
<g style="fill-opacity:1.0; stroke-width:0; stroke-opacity:1; stroke-linecap:round; stroke-linejoin:round;">
<circle cx="14000" cy="28000" r="68.8976"/> 
</g>
<g style="fill-opacity:1.0; stroke-width:59.0551; stroke-opacity:1; stroke-linecap:round; stroke-linejoin:round;">
</g>
<g style="fill-opacity:1.0; stroke-width:0; stroke-opacity:1; stroke-linecap:round; stroke-linejoin:round;">
<circle cx="22000" cy="20000" r="68.8976"/> 
</g>
<g style="fill-opacity:1.0; stroke-width:59.0551; stroke-opacity:1; stroke-linecap:round; stroke-linejoin:round;">
</g>
<g style="fill-opacity:1.0; stroke-width:0; stroke-opacity:1; stroke-linecap:round; stroke-linejoin:round;">
<circle cx="14000" cy="20000" r="68.8976"/> 
</g>
<g style="fill-opacity:1.0; stroke-width:59.0551; stroke-opacity:1; stroke-linecap:round; stroke-linejoin:round;">
</g>
<g style="fill-opacity:1.0; stroke-width:59.0551; stroke-opacity:1; stroke-linecap:round; stroke-linejoin:round;">
</g> 
</g><g id="substrate-pads" style="fill:#b5ae30; stroke:#b5ae30;" mask="url(#pads-mask)"><g style="fill-opacity:1; stroke-opacity:1; stroke-linecap:round; stroke-linejoin:round;" transform="translate(0 0) scale(1 1)">
</g>
<g style="fill-opacity:0.0; stroke-width:-0.000393701; stroke-opacity:1; stroke-linecap:round; stroke-linejoin:round;">
</g>
<g style="fill-opacity:0.0; stroke-width:98.4252; stroke-opacity:1; stroke-linecap:round; stroke-linejoin:round;">
<text x="23669.3" y="61452.8" textLength="1729" font-size="734.908" lengthAdjust="spacingAndGlyphs" text-anchor="middle" opacity="0">R01</text>
<path d="M23314 61415 L23131 61040 "/>
<path d="M23000 61415 L23000 60627 L23209 60627 L23262 60665 L23288 60702 L23314 60777 L23314 60890 L23288 60965 L23262 61002 L23209 61040 L23000 61040 "/>
<path d="M23656 60627 L23708 60627 L23761 60665 L23787 60702 L23813 60777 L23839 60927 L23839 61115 L23813 61265 L23787 61340 L23761 61377 L23708 61415 L23656 61415 L23603 61377 L23577 61340 L23551 61265 L23524 61115 L23524 60927 L23551 60777 L23577 60702 L23603 60665 L23656 60627 "/>
<path d="M24364 61415 L24049 61415 "/>
<path d="M24207 61415 L24207 60627 L24154 60740 L24102 60815 L24049 60852 "/>
<g>
</g>
<g>
</g>
<g>
</g>
<g>
</g>
<g>
</g>
<g>
</g>
<g>
</g>
<g>
</g>
<g>
</g>
<g>
</g>
<g>
</g>
<g>
</g>
<g>
</g>
<g>
</g>
</g>
<g style="fill-opacity:0.0; stroke-width:98.4252; stroke-opacity:1; stroke-linecap:round; stroke-linejoin:round;">
</g>
<g style="fill-opacity:1.0; stroke-width:0; stroke-opacity:1; stroke-linecap:round; stroke-linejoin:round;">
<circle cx="12952.8" cy="11968.5" r="68.8976"/> 
</g>
<g style="fill-opacity:1.0; stroke-width:59.0551; stroke-opacity:1; stroke-linecap:round; stroke-linejoin:round;">
</g>
<g style="fill-opacity:1.0; stroke-width:0; stroke-opacity:1; stroke-linecap:round; stroke-linejoin:round;">
<circle cx="12952.8" cy="60551.2" r="68.8976"/> 
</g>
<g style="fill-opacity:1.0; stroke-width:59.0551; stroke-opacity:1; stroke-linecap:round; stroke-linejoin:round;">
</g>
<g style="fill-opacity:1.0; stroke-width:0; stroke-opacity:1; stroke-linecap:round; stroke-linejoin:round;">
<circle cx="22000" cy="36000" r="68.8976"/> 
</g>
<g style="fill-opacity:1.0; stroke-width:59.0551; stroke-opacity:1; stroke-linecap:round; stroke-linejoin:round;">
</g>
<g style="fill-opacity:1.0; stroke-width:0; stroke-opacity:1; stroke-linecap:round; stroke-linejoin:round;">
<circle cx="22000" cy="52000" r="68.8976"/> 
</g>
<g style="fill-opacity:1.0; stroke-width:59.0551; stroke-opacity:1; stroke-linecap:round; stroke-linejoin:round;">
</g>
<g style="fill-opacity:1.0; stroke-width:0; stroke-opacity:1; stroke-linecap:round; stroke-linejoin:round;">
<circle cx="22000" cy="44000" r="68.8976"/> 
</g>
<g style="fill-opacity:1.0; stroke-width:59.0551; stroke-opacity:1; stroke-linecap:round; stroke-linejoin:round;">
</g>
<g style="fill-opacity:1.0; stroke-width:0; stroke-opacity:1; stroke-linecap:round; stroke-linejoin:round;">
<circle cx="22000" cy="28000" r="68.8976"/> 
</g>
<g style="fill-opacity:1.0; stroke-width:59.0551; stroke-opacity:1; stroke-linecap:round; stroke-linejoin:round;">
</g>
<g style="fill-opacity:1.0; stroke-width:0; stroke-opacity:1; stroke-linecap:round; stroke-linejoin:round;">
<circle cx="18000" cy="52000" r="68.8976"/> 
</g>
<g style="fill-opacity:1.0; stroke-width:59.0551; stroke-opacity:1; stroke-linecap:round; stroke-linejoin:round;">
</g>
<g style="fill-opacity:1.0; stroke-width:0; stroke-opacity:1; stroke-linecap:round; stroke-linejoin:round;">
<circle cx="14000" cy="52000" r="68.8976"/> 
</g>
<g style="fill-opacity:1.0; stroke-width:59.0551; stroke-opacity:1; stroke-linecap:round; stroke-linejoin:round;">
</g>
<g style="fill-opacity:1.0; stroke-width:0; stroke-opacity:1; stroke-linecap:round; stroke-linejoin:round;">
<circle cx="14000" cy="28000" r="68.8976"/> 
</g>
<g style="fill-opacity:1.0; stroke-width:59.0551; stroke-opacity:1; stroke-linecap:round; stroke-linejoin:round;">
</g>
<g style="fill-opacity:1.0; stroke-width:0; stroke-opacity:1; stroke-linecap:round; stroke-linejoin:round;">
<circle cx="22000" cy="20000" r="68.8976"/> 
</g>
<g style="fill-opacity:1.0; stroke-width:59.0551; stroke-opacity:1; stroke-linecap:round; stroke-linejoin:round;">
</g>
<g style="fill-opacity:1.0; stroke-width:0; stroke-opacity:1; stroke-linecap:round; stroke-linejoin:round;">
<circle cx="14000" cy="20000" r="68.8976"/> 
</g>
<g style="fill-opacity:1.0; stroke-width:59.0551; stroke-opacity:1; stroke-linecap:round; stroke-linejoin:round;">
</g>
<g style="fill-opacity:1.0; stroke-width:59.0551; stroke-opacity:1; stroke-linecap:round; stroke-linejoin:round;">
</g> 
</g><defs><mask id="pads-mask"><g style="fill:#ffffff; fill-opacity:1;stroke:#ffffff; stroke-opacity:1; stroke-linecap:round; stroke-linejoin:round;" transform="translate(0 0) scale(1 1)">
</g>
<g style="fill:#ffffff; fill-opacity:0.0;  stroke:#ffffff; stroke-width:-0.000393701; stroke-opacity:1;  stroke-linecap:round; stroke-linejoin:round;">
</g>
<g style="fill:#ffffff; fill-opacity:0.0;  stroke:#ffffff; stroke-width:98.4252; stroke-opacity:1;  stroke-linecap:round; stroke-linejoin:round;">
<path d="M14000 20000 L22000 20000 "/>
</g>
<g style="fill:#ffffff; fill-opacity:0.0;  stroke:#ffffff; stroke-width:137.795; stroke-opacity:1;  stroke-linecap:round; stroke-linejoin:round;">
<text x="19100" y="12690.6" textLength="9857.99" font-size="1574.8" lengthAdjust="spacingAndGlyphs" text-anchor="middle" opacity="0">&#1055;&#1054;&#1051;&#1048;&#1042;&#1054;&#1050;&#1057;</text>
<path d="M14516 12634 L14516 11453 L15191 11453 L15191 12634 "/>
<path d="M15978 11453 L16203 11453 L16315 11509 L16428 11621 L16484 11846 L16484 12240 L16428 12465 L16315 12578 L16203 12634 L15978 12634 L15866 12578 L15753 12465 L15697 12240 L15697 11846 L15753 11621 L15866 11509 L15978 11453 "/>
<path d="M17665 12634 L17665 11453 L17497 11453 L17328 11509 L17215 11621 L17159 11790 L17047 12465 L16990 12578 L16878 12634 L16822 12634 "/>
<path d="M18228 11453 L18228 12634 L18903 11453 L18903 12634 "/>
<path d="M19859 12015 L20028 12071 L20084 12128 L20140 12240 L20140 12409 L20084 12521 L20028 12578 L19915 12634 L19465 12634 L19465 11453 L19859 11453 L19971 11509 L20028 11565 L20084 11678 L20084 11790 L20028 11903 L19971 11959 L19859 12015 L19465 12015 "/>
<path d="M20871 11453 L21096 11453 L21209 11509 L21321 11621 L21377 11846 L21377 12240 L21321 12465 L21209 12578 L21096 12634 L20871 12634 L20759 12578 L20646 12465 L20590 12240 L20590 11846 L20646 11621 L20759 11509 L20871 11453 "/>
<path d="M21884 12634 L21884 11453 "/>
<path d="M22558 12634 L22052 11959 "/>
<path d="M22558 11453 L21884 12128 "/>
<path d="M23740 12521 L23683 12578 L23515 12634 L23402 12634 L23233 12578 L23121 12465 L23065 12353 L23008 12128 L23008 11959 L23065 11734 L23121 11621 L23233 11509 L23402 11453 L23515 11453 L23683 11509 L23740 11565 "/>
</g>
<g style="fill:#ffffff; fill-opacity:0.0;  stroke:#ffffff; stroke-width:98.4252; stroke-opacity:1;  stroke-linecap:round; stroke-linejoin:round;">
<text x="22000" y="39993.7" textLength="4168.64" font-size="734.908" lengthAdjust="spacingAndGlyphs" text-anchor="middle" opacity="0">soft/hard</text>
<path d="M20110 39918 L20162 39956 L20267 39956 L20320 39918 L20346 39843 L20346 39806 L20320 39731 L20267 39693 L20188 39693 L20136 39656 L20110 39581 L20110 39543 L20136 39468 L20188 39431 L20267 39431 L20320 39468 "/>
<path d="M20661 39956 L20608 39918 L20582 39881 L20556 39806 L20556 39581 L20582 39506 L20608 39468 L20661 39431 L20740 39431 L20792 39468 L20818 39506 L20845 39581 L20845 39806 L20818 39881 L20792 39918 L20740 39956 L20661 39956 "/>
<path d="M21002 39431 L21212 39431 "/>
<path d="M21081 39956 L21081 39281 L21107 39206 L21160 39168 L21212 39168 "/>
<path d="M21317 39431 L21527 39431 "/>
<path d="M21396 39168 L21396 39843 L21422 39918 L21475 39956 L21527 39956 "/>
<path d="M22104 39131 L21632 40143 "/>
<path d="M22288 39956 L22288 39168 "/>
<path d="M22524 39956 L22524 39543 L22498 39468 L22446 39431 L22367 39431 L22314 39468 L22288 39506 "/>
<path d="M23023 39956 L23023 39543 L22997 39468 L22944 39431 L22839 39431 L22787 39468 "/>
<path d="M23023 39918 L22971 39956 L22839 39956 L22787 39918 L22761 39843 L22761 39768 L22787 39693 L22839 39656 L22971 39656 L23023 39618 "/>
<path d="M23286 39956 L23286 39431 "/>
<path d="M23286 39581 L23312 39506 L23338 39468 L23391 39431 L23443 39431 "/>
<path d="M23863 39956 L23863 39168 "/>
<path d="M23863 39918 L23811 39956 L23706 39956 L23653 39918 L23627 39881 L23601 39806 L23601 39581 L23627 39506 L23653 39468 L23706 39431 L23811 39431 L23863 39468 "/>
<text x="22000" y="39993.7" textLength="4117.45" font-size="734.908" lengthAdjust="spacingAndGlyphs" text-anchor="middle" opacity="0">soft/hard</text>
<path d="M20110 39918 L20162 39956 L20267 39956 L20320 39918 L20346 39843 L20346 39806 L20320 39731 L20267 39693 L20188 39693 L20136 39656 L20110 39581 L20110 39543 L20136 39468 L20188 39431 L20267 39431 L20320 39468 "/>
<path d="M20661 39956 L20608 39918 L20582 39881 L20556 39806 L20556 39581 L20582 39506 L20608 39468 L20661 39431 L20740 39431 L20792 39468 L20818 39506 L20845 39581 L20845 39806 L20818 39881 L20792 39918 L20740 39956 L20661 39956 "/>
<path d="M21002 39431 L21212 39431 "/>
<path d="M21081 39956 L21081 39281 L21107 39206 L21160 39168 L21212 39168 "/>
<path d="M21317 39431 L21527 39431 "/>
<path d="M21396 39168 L21396 39843 L21422 39918 L21475 39956 L21527 39956 "/>
<path d="M22104 39131 L21632 40143 "/>
<path d="M22288 39956 L22288 39168 "/>
<path d="M22524 39956 L22524 39543 L22498 39468 L22446 39431 L22367 39431 L22314 39468 L22288 39506 "/>
<path d="M23023 39956 L23023 39543 L22997 39468 L22944 39431 L22839 39431 L22787 39468 "/>
<path d="M23023 39918 L22971 39956 L22839 39956 L22787 39918 L22761 39843 L22761 39768 L22787 39693 L22839 39656 L22971 39656 L23023 39618 "/>
<path d="M23286 39956 L23286 39431 "/>
<path d="M23286 39581 L23312 39506 L23338 39468 L23391 39431 L23443 39431 "/>
<path d="M23863 39956 L23863 39168 "/>
<path d="M23863 39918 L23811 39956 L23706 39956 L23653 39918 L23627 39881 L23601 39806 L23601 39581 L23627 39506 L23653 39468 L23706 39431 L23811 39431 L23863 39468 "/>
<text x="22000" y="39993.7" textLength="4117.45" font-size="734.908" lengthAdjust="spacingAndGlyphs" text-anchor="middle" opacity="0">soft/hard</text>
<path d="M20110 39918 L20162 39956 L20267 39956 L20320 39918 L20346 39843 L20346 39806 L20320 39731 L20267 39693 L20188 39693 L20136 39656 L20110 39581 L20110 39543 L20136 39468 L20188 39431 L20267 39431 L20320 39468 "/>
<path d="M20661 39956 L20608 39918 L20582 39881 L20556 39806 L20556 39581 L20582 39506 L20608 39468 L20661 39431 L20740 39431 L20792 39468 L20818 39506 L20845 39581 L20845 39806 L20818 39881 L20792 39918 L20740 39956 L20661 39956 "/>
<path d="M21002 39431 L21212 39431 "/>
<path d="M21081 39956 L21081 39281 L21107 39206 L21160 39168 L21212 39168 "/>
<path d="M21317 39431 L21527 39431 "/>
<path d="M21396 39168 L21396 39843 L21422 39918 L21475 39956 L21527 39956 "/>
<path d="M22104 39131 L21632 40143 "/>
<path d="M22288 39956 L22288 39168 "/>
<path d="M22524 39956 L22524 39543 L22498 39468 L22446 39431 L22367 39431 L22314 39468 L22288 39506 "/>
<path d="M23023 39956 L23023 39543 L22997 39468 L22944 39431 L22839 39431 L22787 39468 "/>
<path d="M23023 39918 L22971 39956 L22839 39956 L22787 39918 L22761 39843 L22761 39768 L22787 39693 L22839 39656 L22971 39656 L23023 39618 "/>
<path d="M23286 39956 L23286 39431 "/>
<path d="M23286 39581 L23312 39506 L23338 39468 L23391 39431 L23443 39431 "/>
<path d="M23863 39956 L23863 39168 "/>
<path d="M23863 39918 L23811 39956 L23706 39956 L23653 39918 L23627 39881 L23601 39806 L23601 39581 L23627 39506 L23653 39468 L23706 39431 L23811 39431 L23863 39468 "/>
<text x="22000" y="55993.7" textLength="915.354" font-size="734.908" lengthAdjust="spacingAndGlyphs" text-anchor="middle" opacity="0">lp</text>
<path d="M21816 55956 L21763 55918 L21737 55843 L21737 55168 "/>
<path d="M22026 55431 L22026 56218 "/>
<path d="M22026 55468 L22078 55431 L22183 55431 L22236 55468 L22262 55506 L22288 55581 L22288 55806 L22262 55881 L22236 55918 L22183 55956 L22078 55956 L22026 55918 "/>
<text x="22000" y="55993.7" textLength="915.354" font-size="734.908" lengthAdjust="spacingAndGlyphs" text-anchor="middle" opacity="0">lp</text>
<path d="M21816 55956 L21763 55918 L21737 55843 L21737 55168 "/>
<path d="M22026 55431 L22026 56218 "/>
<path d="M22026 55468 L22078 55431 L22183 55431 L22236 55468 L22262 55506 L22288 55581 L22288 55806 L22262 55881 L22236 55918 L22183 55956 L22078 55956 L22026 55918 "/>
<text x="22000" y="55993.7" textLength="915.354" font-size="734.908" lengthAdjust="spacingAndGlyphs" text-anchor="middle" opacity="0">lp</text>
<path d="M21816 55956 L21763 55918 L21737 55843 L21737 55168 "/>
<path d="M22026 55431 L22026 56218 "/>
<path d="M22026 55468 L22078 55431 L22183 55431 L22236 55468 L22262 55506 L22288 55581 L22288 55806 L22262 55881 L22236 55918 L22183 55956 L22078 55956 L22026 55918 "/>
<text x="22000" y="47993.7" textLength="1387.8" font-size="734.908" lengthAdjust="spacingAndGlyphs" text-anchor="middle" opacity="0">res</text>
<path d="M21501 47956 L21501 47431 "/>
<path d="M21501 47581 L21527 47506 L21553 47468 L21606 47431 L21658 47431 "/>
<path d="M22052 47918 L22000 47956 L21895 47956 L21842 47918 L21816 47843 L21816 47543 L21842 47468 L21895 47431 L22000 47431 L22052 47468 L22078 47543 L22078 47618 L21816 47693 "/>
<path d="M22288 47918 L22341 47956 L22446 47956 L22498 47918 L22524 47843 L22524 47806 L22498 47731 L22446 47693 L22367 47693 L22314 47656 L22288 47581 L22288 47543 L22314 47468 L22367 47431 L22446 47431 L22498 47468 "/>
<text x="22000" y="47993.7" textLength="1387.8" font-size="734.908" lengthAdjust="spacingAndGlyphs" text-anchor="middle" opacity="0">res</text>
<path d="M21501 47956 L21501 47431 "/>
<path d="M21501 47581 L21527 47506 L21553 47468 L21606 47431 L21658 47431 "/>
<path d="M22052 47918 L22000 47956 L21895 47956 L21842 47918 L21816 47843 L21816 47543 L21842 47468 L21895 47431 L22000 47431 L22052 47468 L22078 47543 L22078 47618 L21816 47693 "/>
<path d="M22288 47918 L22341 47956 L22446 47956 L22498 47918 L22524 47843 L22524 47806 L22498 47731 L22446 47693 L22367 47693 L22314 47656 L22288 47581 L22288 47543 L22314 47468 L22367 47431 L22446 47431 L22498 47468 "/>
<text x="22000" y="47993.7" textLength="1387.8" font-size="734.908" lengthAdjust="spacingAndGlyphs" text-anchor="middle" opacity="0">res</text>
<path d="M21501 47956 L21501 47431 "/>
<path d="M21501 47581 L21527 47506 L21553 47468 L21606 47431 L21658 47431 "/>
<path d="M22052 47918 L22000 47956 L21895 47956 L21842 47918 L21816 47843 L21816 47543 L21842 47468 L21895 47431 L22000 47431 L22052 47468 L22078 47543 L22078 47618 L21816 47693 "/>
<path d="M22288 47918 L22341 47956 L22446 47956 L22498 47918 L22524 47843 L22524 47806 L22498 47731 L22446 47693 L22367 47693 L22314 47656 L22288 47581 L22288 47543 L22314 47468 L22367 47431 L22446 47431 L22498 47468 "/>
<text x="22000" y="31993.7" textLength="1755.25" font-size="734.908" lengthAdjust="spacingAndGlyphs" text-anchor="middle" opacity="0">freq</text>
<path d="M21238 31431 L21448 31431 "/>
<path d="M21317 31956 L21317 31281 L21343 31206 L21396 31168 L21448 31168 "/>
<path d="M21632 31956 L21632 31431 "/>
<path d="M21632 31581 L21658 31506 L21685 31468 L21737 31431 L21790 31431 "/>
<path d="M22183 31918 L22131 31956 L22026 31956 L21973 31918 L21947 31843 L21947 31543 L21973 31468 L22026 31431 L22131 31431 L22183 31468 L22209 31543 L22209 31618 L21947 31693 "/>
<path d="M22682 31431 L22682 32218 "/>
<path d="M22682 31918 L22629 31956 L22524 31956 L22472 31918 L22446 31881 L22419 31806 L22419 31581 L22446 31506 L22472 31468 L22524 31431 L22629 31431 L22682 31468 "/>
<text x="22000" y="31993.7" textLength="1755.25" font-size="734.908" lengthAdjust="spacingAndGlyphs" text-anchor="middle" opacity="0">freq</text>
<path d="M21238 31431 L21448 31431 "/>
<path d="M21317 31956 L21317 31281 L21343 31206 L21396 31168 L21448 31168 "/>
<path d="M21632 31956 L21632 31431 "/>
<path d="M21632 31581 L21658 31506 L21685 31468 L21737 31431 L21790 31431 "/>
<path d="M22183 31918 L22131 31956 L22026 31956 L21973 31918 L21947 31843 L21947 31543 L21973 31468 L22026 31431 L22131 31431 L22183 31468 L22209 31543 L22209 31618 L21947 31693 "/>
<path d="M22682 31431 L22682 32218 "/>
<path d="M22682 31918 L22629 31956 L22524 31956 L22472 31918 L22446 31881 L22419 31806 L22419 31581 L22446 31506 L22472 31468 L22524 31431 L22629 31431 L22682 31468 "/>
<text x="22000" y="31993.7" textLength="1755.25" font-size="734.908" lengthAdjust="spacingAndGlyphs" text-anchor="middle" opacity="0">freq</text>
<path d="M21238 31431 L21448 31431 "/>
<path d="M21317 31956 L21317 31281 L21343 31206 L21396 31168 L21448 31168 "/>
<path d="M21632 31956 L21632 31431 "/>
<path d="M21632 31581 L21658 31506 L21685 31468 L21737 31431 L21790 31431 "/>
<path d="M22183 31918 L22131 31956 L22026 31956 L21973 31918 L21947 31843 L21947 31543 L21973 31468 L22026 31431 L22131 31431 L22183 31468 L22209 31543 L22209 31618 L21947 31693 "/>
<path d="M22682 31431 L22682 32218 "/>
<path d="M22682 31918 L22629 31956 L22524 31956 L22472 31918 L22446 31881 L22419 31806 L22419 31581 L22446 31506 L22472 31468 L22524 31431 L22629 31431 L22682 31468 "/>
<text x="18000" y="55993.7" textLength="1125.33" font-size="734.908" lengthAdjust="spacingAndGlyphs" text-anchor="middle" opacity="0">bp</text>
<path d="M17632 55956 L17632 55168 "/>
<path d="M17632 55468 L17685 55431 L17790 55431 L17842 55468 L17868 55506 L17895 55581 L17895 55806 L17868 55881 L17842 55918 L17790 55956 L17685 55956 L17632 55918 "/>
<path d="M18131 55431 L18131 56218 "/>
<path d="M18131 55468 L18183 55431 L18288 55431 L18341 55468 L18367 55506 L18393 55581 L18393 55806 L18367 55881 L18341 55918 L18288 55956 L18183 55956 L18131 55918 "/>
<text x="18000" y="55993.7" textLength="1125.33" font-size="734.908" lengthAdjust="spacingAndGlyphs" text-anchor="middle" opacity="0">bp</text>
<path d="M17632 55956 L17632 55168 "/>
<path d="M17632 55468 L17685 55431 L17790 55431 L17842 55468 L17868 55506 L17895 55581 L17895 55806 L17868 55881 L17842 55918 L17790 55956 L17685 55956 L17632 55918 "/>
<path d="M18131 55431 L18131 56218 "/>
<path d="M18131 55468 L18183 55431 L18288 55431 L18341 55468 L18367 55506 L18393 55581 L18393 55806 L18367 55881 L18341 55918 L18288 55956 L18183 55956 L18131 55918 "/>
<text x="18000" y="55993.7" textLength="1125.33" font-size="734.908" lengthAdjust="spacingAndGlyphs" text-anchor="middle" opacity="0">bp</text>
<path d="M17632 55956 L17632 55168 "/>
<path d="M17632 55468 L17685 55431 L17790 55431 L17842 55468 L17868 55506 L17895 55581 L17895 55806 L17868 55881 L17842 55918 L17790 55956 L17685 55956 L17632 55918 "/>
<path d="M18131 55431 L18131 56218 "/>
<path d="M18131 55468 L18183 55431 L18288 55431 L18341 55468 L18367 55506 L18393 55581 L18393 55806 L18367 55881 L18341 55918 L18288 55956 L18183 55956 L18131 55918 "/>
<text x="14000" y="55993.7" textLength="889.107" font-size="734.908" lengthAdjust="spacingAndGlyphs" text-anchor="middle" opacity="0">in</text>
<path d="M13750 55956 L13750 55431 "/>
<path d="M13750 55168 L13724 55206 L13750 55243 L13776 55206 L13750 55168 L13750 55243 "/>
<path d="M14013 55431 L14013 55956 "/>
<path d="M14013 55506 L14039 55468 L14091 55431 L14170 55431 L14223 55468 L14249 55543 L14249 55956 "/>
<text x="14000" y="55993.7" textLength="889.107" font-size="734.908" lengthAdjust="spacingAndGlyphs" text-anchor="middle" opacity="0">in</text>
<path d="M13750 55956 L13750 55431 "/>
<path d="M13750 55168 L13724 55206 L13750 55243 L13776 55206 L13750 55168 L13750 55243 "/>
<path d="M14013 55431 L14013 55956 "/>
<path d="M14013 55506 L14039 55468 L14091 55431 L14170 55431 L14223 55468 L14249 55543 L14249 55956 "/>
<text x="14000" y="55993.7" textLength="889.107" font-size="734.908" lengthAdjust="spacingAndGlyphs" text-anchor="middle" opacity="0">in</text>
<path d="M13750 55956 L13750 55431 "/>
<path d="M13750 55168 L13724 55206 L13750 55243 L13776 55206 L13750 55168 L13750 55243 "/>
<path d="M14013 55431 L14013 55956 "/>
<path d="M14013 55506 L14039 55468 L14091 55431 L14170 55431 L14223 55468 L14249 55543 L14249 55956 "/>
<text x="14000" y="31993.7" textLength="1020.34" font-size="734.908" lengthAdjust="spacingAndGlyphs" text-anchor="middle" opacity="0">cv</text>
<path d="M13921 31918 L13868 31956 L13763 31956 L13711 31918 L13685 31881 L13658 31806 L13658 31581 L13685 31506 L13711 31468 L13763 31431 L13868 31431 L13921 31468 "/>
<path d="M14104 31431 L14236 31956 L14367 31431 "/>
<text x="14000" y="31993.7" textLength="1020.34" font-size="734.908" lengthAdjust="spacingAndGlyphs" text-anchor="middle" opacity="0">cv</text>
<path d="M13921 31918 L13868 31956 L13763 31956 L13711 31918 L13685 31881 L13658 31806 L13658 31581 L13685 31506 L13711 31468 L13763 31431 L13868 31431 L13921 31468 "/>
<path d="M14104 31431 L14236 31956 L14367 31431 "/>
<text x="14000" y="31993.7" textLength="1020.34" font-size="734.908" lengthAdjust="spacingAndGlyphs" text-anchor="middle" opacity="0">cv</text>
<path d="M13921 31918 L13868 31956 L13763 31956 L13711 31918 L13685 31881 L13658 31806 L13658 31581 L13685 31506 L13711 31468 L13763 31431 L13868 31431 L13921 31468 "/>
<path d="M14104 31431 L14236 31956 L14367 31431 "/>
<text x="14000" y="23993.7" textLength="1177.82" font-size="734.908" lengthAdjust="spacingAndGlyphs" text-anchor="middle" opacity="0">fm</text>
<path d="M13527 23431 L13737 23431 "/>
<path d="M13606 23956 L13606 23281 L13632 23206 L13685 23168 L13737 23168 "/>
<path d="M13921 23956 L13921 23431 "/>
<path d="M13921 23506 L13947 23468 L14000 23431 L14078 23431 L14131 23468 L14157 23543 L14157 23956 "/>
<path d="M14157 23543 L14183 23468 L14236 23431 L14314 23431 L14367 23468 L14393 23543 L14393 23956 "/>
<text x="14000" y="23993.7" textLength="1177.82" font-size="734.908" lengthAdjust="spacingAndGlyphs" text-anchor="middle" opacity="0">fm</text>
<path d="M13527 23431 L13737 23431 "/>
<path d="M13606 23956 L13606 23281 L13632 23206 L13685 23168 L13737 23168 "/>
<path d="M13921 23956 L13921 23431 "/>
<path d="M13921 23506 L13947 23468 L14000 23431 L14078 23431 L14131 23468 L14157 23543 L14157 23956 "/>
<path d="M14157 23543 L14183 23468 L14236 23431 L14314 23431 L14367 23468 L14393 23543 L14393 23956 "/>
<text x="14000" y="23993.7" textLength="1177.82" font-size="734.908" lengthAdjust="spacingAndGlyphs" text-anchor="middle" opacity="0">fm</text>
<path d="M13527 23431 L13737 23431 "/>
<path d="M13606 23956 L13606 23281 L13632 23206 L13685 23168 L13737 23168 "/>
<path d="M13921 23956 L13921 23431 "/>
<path d="M13921 23506 L13947 23468 L14000 23431 L14078 23431 L14131 23468 L14157 23543 L14157 23956 "/>
<path d="M14157 23543 L14183 23468 L14236 23431 L14314 23431 L14367 23468 L14393 23543 L14393 23956 "/>
</g>
<g style="fill:#ffffff; fill-opacity:1.0;  stroke:#ffffff; stroke-width:0; stroke-opacity:1;  stroke-linecap:round; stroke-linejoin:round;">
<path style="fill:#ffffff; fill-opacity:1.0;  stroke:#ffffff; stroke-width:0; stroke-opacity:1;  stroke-linecap:round; stroke-linejoin:round;fill-rule:evenodd;" d="M 13100.5,59917.8 13142.4,59926.2 13260.6,59975.2 13367.1,60046.3 13457.6,60136.8 13528.8,60243.3 13577.8,60361.6 13602.8,60487.2 13602.8,60615.2 13577.8,60740.8 13528.8,60859.1 13457.6,60965.5 13367.1,61056.1 13260.6,61127.2 13142.4,61176.2 13100.5,61184.5 13016.8,61201.2 12888.7,61201.2 12805,61184.5 12763.2,61176.2 12644.9,61127.2 12538.4,61056.1 12447.9,60965.5 12376.7,60859.1 12327.7,60740.8 12302.8,60615.2 12302.8,60487.2 12327.7,60361.6 12376.7,60243.3 12447.9,60136.8 12538.4,60046.3 12644.9,59975.2 12763.2,59926.2 12805,59917.8 12888.7,59901.2 13016.8,59901.2 Z"/> 
<path style="fill:#ffffff; fill-opacity:1.0;  stroke:#ffffff; stroke-width:0; stroke-opacity:1;  stroke-linecap:round; stroke-linejoin:round;fill-rule:evenodd;" d="M 14249.7,50744.7 14373.3,50769.3 14606.3,50865.7 14815.9,51005.8 14994.2,51184.1 15134.3,51393.7 15230.7,51626.7 15279.9,51873.9 15279.9,52126.1 15230.7,52373.3 15134.3,52606.3 14994.2,52815.9 14815.9,52994.2 14606.3,53134.3 14373.3,53230.7 14249.7,53255.3 14126.1,53279.9 13873.9,53279.9 13750.3,53255.3 13626.7,53230.7 13393.7,53134.3 13184.1,52994.2 13005.8,52815.9 12865.7,52606.3 12769.3,52373.3 12720.1,52126.1 12720.1,51873.9 12769.3,51626.7 12865.7,51393.7 13005.8,51184.1 13184.1,51005.8 13393.7,50865.7 13626.7,50769.3 13750.3,50744.7 13873.9,50720.1 14126.1,50720.1 Z"/> 
<path style="fill:#ffffff; fill-opacity:1.0;  stroke:#ffffff; stroke-width:0; stroke-opacity:1;  stroke-linecap:round; stroke-linejoin:round;fill-rule:evenodd;" d="M 18249.7,50744.7 18373.3,50769.3 18606.3,50865.7 18815.9,51005.8 18994.2,51184.1 19134.3,51393.7 19230.7,51626.7 19279.9,51873.9 19279.9,52126.1 19230.7,52373.3 19134.3,52606.3 18994.2,52815.9 18815.9,52994.2 18606.3,53134.3 18373.3,53230.7 18249.7,53255.3 18126.1,53279.9 17873.9,53279.9 17750.3,53255.3 17626.7,53230.7 17393.7,53134.3 17184.1,52994.2 17005.8,52815.9 16865.7,52606.3 16769.3,52373.3 16720.1,52126.1 16720.1,51873.9 16769.3,51626.7 16865.7,51393.7 17005.8,51184.1 17184.1,51005.8 17393.7,50865.7 17626.7,50769.3 17750.3,50744.7 17873.9,50720.1 18126.1,50720.1 Z"/> 
<path style="fill:#ffffff; fill-opacity:1.0;  stroke:#ffffff; stroke-width:0; stroke-opacity:1;  stroke-linecap:round; stroke-linejoin:round;fill-rule:evenodd;" d="M 22249.7,50744.7 22373.3,50769.3 22606.3,50865.7 22815.9,51005.8 22994.2,51184.1 23134.3,51393.7 23230.7,51626.7 23279.9,51873.9 23279.9,52126.1 23230.7,52373.3 23134.3,52606.3 22994.2,52815.9 22815.9,52994.2 22606.3,53134.3 22373.3,53230.7 22249.7,53255.3 22126.1,53279.9 21873.9,53279.9 21750.3,53255.3 21626.7,53230.7 21393.7,53134.3 21184.1,52994.2 21005.8,52815.9 20865.7,52606.3 20769.3,52373.3 20720.1,52126.1 20720.1,51873.9 20769.3,51626.7 20865.7,51393.7 21005.8,51184.1 21184.1,51005.8 21393.7,50865.7 21626.7,50769.3 21750.3,50744.7 21873.9,50720.1 22126.1,50720.1 Z"/> 
<path style="fill:#ffffff; fill-opacity:1.0;  stroke:#ffffff; stroke-width:0; stroke-opacity:1;  stroke-linecap:round; stroke-linejoin:round;fill-rule:evenodd;" d="M 22335.7,42561.1 22430.8,42580 22699.5,42691.3 22941.4,42852.9 23147.1,43058.6 23308.7,43300.5 23420,43569.2 23476.8,43854.6 23476.8,44145.4 23420,44430.8 23308.7,44699.5 23147.1,44941.4 22941.4,45147.1 22699.5,45308.7 22430.8,45420 22335.7,45438.9 22145.5,45476.8 21854.5,45476.8 21664.3,45438.9 21569.2,45420 21300.5,45308.7 21058.6,45147.1 20852.9,44941.4 20691.3,44699.5 20580,44430.8 20523.2,44145.4 20523.2,43854.6 20580,43569.2 20691.3,43300.5 20852.9,43058.6 21058.6,42852.9 21300.5,42691.3 21569.2,42580 21664.3,42561.1 21854.5,42523.2 22145.5,42523.2 Z"/> 
<path style="fill:#ffffff; fill-opacity:1.0;  stroke:#ffffff; stroke-width:0; stroke-opacity:1;  stroke-linecap:round; stroke-linejoin:round;fill-rule:evenodd;" d="M 22249.7,34744.7 22373.3,34769.3 22606.3,34865.7 22815.9,35005.8 22994.2,35184.1 23134.3,35393.7 23230.7,35626.7 23279.9,35873.9 23279.9,36126.1 23230.7,36373.3 23134.3,36606.3 22994.2,36815.9 22815.9,36994.2 22606.3,37134.3 22373.3,37230.7 22249.7,37255.3 22126.1,37279.9 21873.9,37279.9 21750.3,37255.3 21626.7,37230.7 21393.7,37134.3 21184.1,36994.2 21005.8,36815.9 20865.7,36606.3 20769.3,36373.3 20720.1,36126.1 20720.1,35873.9 20769.3,35626.7 20865.7,35393.7 21005.8,35184.1 21184.1,35005.8 21393.7,34865.7 21626.7,34769.3 21750.3,34744.7 21873.9,34720.1 22126.1,34720.1 Z"/> 
<path style="fill:#ffffff; fill-opacity:1.0;  stroke:#ffffff; stroke-width:0; stroke-opacity:1;  stroke-linecap:round; stroke-linejoin:round;fill-rule:evenodd;" d="M 22335.7,26561.1 22430.8,26580 22699.5,26691.3 22941.4,26852.9 23147.1,27058.6 23308.7,27300.5 23420,27569.2 23476.8,27854.6 23476.8,28145.4 23420,28430.8 23308.7,28699.5 23147.1,28941.4 22941.4,29147.1 22699.5,29308.7 22430.8,29420 22335.7,29438.9 22145.5,29476.8 21854.5,29476.8 21664.3,29438.9 21569.2,29420 21300.5,29308.7 21058.6,29147.1 20852.9,28941.4 20691.3,28699.5 20580,28430.8 20523.2,28145.4 20523.2,27854.6 20580,27569.2 20691.3,27300.5 20852.9,27058.6 21058.6,26852.9 21300.5,26691.3 21569.2,26580 21664.3,26561.1 21854.5,26523.2 22145.5,26523.2 Z"/> 
<path style="fill:#ffffff; fill-opacity:1.0;  stroke:#ffffff; stroke-width:0; stroke-opacity:1;  stroke-linecap:round; stroke-linejoin:round;fill-rule:evenodd;" d="M 14249.7,26744.7 14373.3,26769.3 14606.3,26865.7 14815.9,27005.8 14994.2,27184.1 15134.3,27393.7 15230.7,27626.7 15279.9,27873.9 15279.9,28126.1 15230.7,28373.3 15134.3,28606.3 14994.2,28815.9 14815.9,28994.2 14606.3,29134.3 14373.3,29230.7 14249.7,29255.3 14126.1,29279.9 13873.9,29279.9 13750.3,29255.3 13626.7,29230.7 13393.7,29134.3 13184.1,28994.2 13005.8,28815.9 12865.7,28606.3 12769.3,28373.3 12720.1,28126.1 12720.1,27873.9 12769.3,27626.7 12865.7,27393.7 13005.8,27184.1 13184.1,27005.8 13393.7,26865.7 13626.7,26769.3 13750.3,26744.7 13873.9,26720.1 14126.1,26720.1 Z"/> 
<path style="fill:#ffffff; fill-opacity:1.0;  stroke:#ffffff; stroke-width:0; stroke-opacity:1;  stroke-linecap:round; stroke-linejoin:round;fill-rule:evenodd;" d="M 22335.7,18561.1 22430.8,18580 22699.5,18691.3 22941.4,18852.9 23147.1,19058.6 23308.7,19300.5 23420,19569.2 23476.8,19854.6 23476.8,20145.4 23420,20430.8 23308.7,20699.5 23147.1,20941.4 22941.4,21147.1 22699.5,21308.7 22430.8,21420 22335.7,21438.9 22145.5,21476.8 21854.5,21476.8 21664.3,21438.9 21569.2,21420 21300.5,21308.7 21058.6,21147.1 20852.9,20941.4 20691.3,20699.5 20580,20430.8 20523.2,20145.4 20523.2,19854.6 20580,19569.2 20691.3,19300.5 20852.9,19058.6 21058.6,18852.9 21300.5,18691.3 21569.2,18580 21664.3,18561.1 21854.5,18523.2 22145.5,18523.2 Z"/> 
<path style="fill:#ffffff; fill-opacity:1.0;  stroke:#ffffff; stroke-width:0; stroke-opacity:1;  stroke-linecap:round; stroke-linejoin:round;fill-rule:evenodd;" d="M 14249.7,18744.7 14373.3,18769.3 14606.3,18865.7 14815.9,19005.8 14994.2,19184.1 15134.3,19393.7 15230.7,19626.7 15279.9,19873.9 15279.9,20126.1 15230.7,20373.3 15134.3,20606.3 14994.2,20815.9 14815.9,20994.2 14606.3,21134.3 14373.3,21230.7 14249.7,21255.3 14126.1,21279.9 13873.9,21279.9 13750.3,21255.3 13626.7,21230.7 13393.7,21134.3 13184.1,20994.2 13005.8,20815.9 12865.7,20606.3 12769.3,20373.3 12720.1,20126.1 12720.1,19873.9 12769.3,19626.7 12865.7,19393.7 13005.8,19184.1 13184.1,19005.8 13393.7,18865.7 13626.7,18769.3 13750.3,18744.7 13873.9,18720.1 14126.1,18720.1 Z"/> 
<path style="fill:#ffffff; fill-opacity:1.0;  stroke:#ffffff; stroke-width:0; stroke-opacity:1;  stroke-linecap:round; stroke-linejoin:round;fill-rule:evenodd;" d="M 13100.5,11335.2 13142.4,11343.5 13260.6,11392.5 13367.1,11463.6 13457.6,11554.2 13528.8,11660.6 13577.8,11778.9 13602.8,11904.5 13602.8,12032.5 13577.8,12158.1 13528.8,12276.4 13457.6,12382.9 13367.1,12473.4 13260.6,12544.5 13142.4,12593.5 13100.5,12601.9 13016.8,12618.5 12888.7,12618.5 12805,12601.9 12763.2,12593.5 12644.9,12544.5 12538.4,12473.4 12447.9,12382.9 12376.7,12276.4 12327.7,12158.1 12302.8,12032.5 12302.8,11904.5 12327.7,11778.9 12376.7,11660.6 12447.9,11554.2 12538.4,11463.6 12644.9,11392.5 12763.2,11343.5 12805,11335.2 12888.7,11318.5 13016.8,11318.5 Z"/> 
</g> 
</mask></defs><defs><mask id="pads-mask-silkscreen"><g style="fill:#000000; fill-opacity:1;stroke:#000000; stroke-opacity:1; stroke-linecap:round; stroke-linejoin:round;" transform="translate(0 0) scale(1 1)">
</g>
<g style="fill:#000000; fill-opacity:0.0;  stroke:#000000; stroke-width:-0.000393701; stroke-opacity:1;  stroke-linecap:round; stroke-linejoin:round;">
</g>
<g style="fill:#000000; fill-opacity:0.0;  stroke:#000000; stroke-width:98.4252; stroke-opacity:1;  stroke-linecap:round; stroke-linejoin:round;">
<path d="M14000 20000 L22000 20000 "/>
</g>
<g style="fill:#000000; fill-opacity:0.0;  stroke:#000000; stroke-width:137.795; stroke-opacity:1;  stroke-linecap:round; stroke-linejoin:round;">
<text x="19100" y="12690.6" textLength="9857.99" font-size="1574.8" lengthAdjust="spacingAndGlyphs" text-anchor="middle" opacity="0">&#1055;&#1054;&#1051;&#1048;&#1042;&#1054;&#1050;&#1057;</text>
<path d="M14516 12634 L14516 11453 L15191 11453 L15191 12634 "/>
<path d="M15978 11453 L16203 11453 L16315 11509 L16428 11621 L16484 11846 L16484 12240 L16428 12465 L16315 12578 L16203 12634 L15978 12634 L15866 12578 L15753 12465 L15697 12240 L15697 11846 L15753 11621 L15866 11509 L15978 11453 "/>
<path d="M17665 12634 L17665 11453 L17497 11453 L17328 11509 L17215 11621 L17159 11790 L17047 12465 L16990 12578 L16878 12634 L16822 12634 "/>
<path d="M18228 11453 L18228 12634 L18903 11453 L18903 12634 "/>
<path d="M19859 12015 L20028 12071 L20084 12128 L20140 12240 L20140 12409 L20084 12521 L20028 12578 L19915 12634 L19465 12634 L19465 11453 L19859 11453 L19971 11509 L20028 11565 L20084 11678 L20084 11790 L20028 11903 L19971 11959 L19859 12015 L19465 12015 "/>
<path d="M20871 11453 L21096 11453 L21209 11509 L21321 11621 L21377 11846 L21377 12240 L21321 12465 L21209 12578 L21096 12634 L20871 12634 L20759 12578 L20646 12465 L20590 12240 L20590 11846 L20646 11621 L20759 11509 L20871 11453 "/>
<path d="M21884 12634 L21884 11453 "/>
<path d="M22558 12634 L22052 11959 "/>
<path d="M22558 11453 L21884 12128 "/>
<path d="M23740 12521 L23683 12578 L23515 12634 L23402 12634 L23233 12578 L23121 12465 L23065 12353 L23008 12128 L23008 11959 L23065 11734 L23121 11621 L23233 11509 L23402 11453 L23515 11453 L23683 11509 L23740 11565 "/>
</g>
<g style="fill:#000000; fill-opacity:0.0;  stroke:#000000; stroke-width:98.4252; stroke-opacity:1;  stroke-linecap:round; stroke-linejoin:round;">
<text x="22000" y="39993.7" textLength="4168.64" font-size="734.908" lengthAdjust="spacingAndGlyphs" text-anchor="middle" opacity="0">soft/hard</text>
<path d="M20110 39918 L20162 39956 L20267 39956 L20320 39918 L20346 39843 L20346 39806 L20320 39731 L20267 39693 L20188 39693 L20136 39656 L20110 39581 L20110 39543 L20136 39468 L20188 39431 L20267 39431 L20320 39468 "/>
<path d="M20661 39956 L20608 39918 L20582 39881 L20556 39806 L20556 39581 L20582 39506 L20608 39468 L20661 39431 L20740 39431 L20792 39468 L20818 39506 L20845 39581 L20845 39806 L20818 39881 L20792 39918 L20740 39956 L20661 39956 "/>
<path d="M21002 39431 L21212 39431 "/>
<path d="M21081 39956 L21081 39281 L21107 39206 L21160 39168 L21212 39168 "/>
<path d="M21317 39431 L21527 39431 "/>
<path d="M21396 39168 L21396 39843 L21422 39918 L21475 39956 L21527 39956 "/>
<path d="M22104 39131 L21632 40143 "/>
<path d="M22288 39956 L22288 39168 "/>
<path d="M22524 39956 L22524 39543 L22498 39468 L22446 39431 L22367 39431 L22314 39468 L22288 39506 "/>
<path d="M23023 39956 L23023 39543 L22997 39468 L22944 39431 L22839 39431 L22787 39468 "/>
<path d="M23023 39918 L22971 39956 L22839 39956 L22787 39918 L22761 39843 L22761 39768 L22787 39693 L22839 39656 L22971 39656 L23023 39618 "/>
<path d="M23286 39956 L23286 39431 "/>
<path d="M23286 39581 L23312 39506 L23338 39468 L23391 39431 L23443 39431 "/>
<path d="M23863 39956 L23863 39168 "/>
<path d="M23863 39918 L23811 39956 L23706 39956 L23653 39918 L23627 39881 L23601 39806 L23601 39581 L23627 39506 L23653 39468 L23706 39431 L23811 39431 L23863 39468 "/>
<text x="22000" y="39993.7" textLength="4117.45" font-size="734.908" lengthAdjust="spacingAndGlyphs" text-anchor="middle" opacity="0">soft/hard</text>
<path d="M20110 39918 L20162 39956 L20267 39956 L20320 39918 L20346 39843 L20346 39806 L20320 39731 L20267 39693 L20188 39693 L20136 39656 L20110 39581 L20110 39543 L20136 39468 L20188 39431 L20267 39431 L20320 39468 "/>
<path d="M20661 39956 L20608 39918 L20582 39881 L20556 39806 L20556 39581 L20582 39506 L20608 39468 L20661 39431 L20740 39431 L20792 39468 L20818 39506 L20845 39581 L20845 39806 L20818 39881 L20792 39918 L20740 39956 L20661 39956 "/>
<path d="M21002 39431 L21212 39431 "/>
<path d="M21081 39956 L21081 39281 L21107 39206 L21160 39168 L21212 39168 "/>
<path d="M21317 39431 L21527 39431 "/>
<path d="M21396 39168 L21396 39843 L21422 39918 L21475 39956 L21527 39956 "/>
<path d="M22104 39131 L21632 40143 "/>
<path d="M22288 39956 L22288 39168 "/>
<path d="M22524 39956 L22524 39543 L22498 39468 L22446 39431 L22367 39431 L22314 39468 L22288 39506 "/>
<path d="M23023 39956 L23023 39543 L22997 39468 L22944 39431 L22839 39431 L22787 39468 "/>
<path d="M23023 39918 L22971 39956 L22839 39956 L22787 39918 L22761 39843 L22761 39768 L22787 39693 L22839 39656 L22971 39656 L23023 39618 "/>
<path d="M23286 39956 L23286 39431 "/>
<path d="M23286 39581 L23312 39506 L23338 39468 L23391 39431 L23443 39431 "/>
<path d="M23863 39956 L23863 39168 "/>
<path d="M23863 39918 L23811 39956 L23706 39956 L23653 39918 L23627 39881 L23601 39806 L23601 39581 L23627 39506 L23653 39468 L23706 39431 L23811 39431 L23863 39468 "/>
<text x="22000" y="39993.7" textLength="4117.45" font-size="734.908" lengthAdjust="spacingAndGlyphs" text-anchor="middle" opacity="0">soft/hard</text>
<path d="M20110 39918 L20162 39956 L20267 39956 L20320 39918 L20346 39843 L20346 39806 L20320 39731 L20267 39693 L20188 39693 L20136 39656 L20110 39581 L20110 39543 L20136 39468 L20188 39431 L20267 39431 L20320 39468 "/>
<path d="M20661 39956 L20608 39918 L20582 39881 L20556 39806 L20556 39581 L20582 39506 L20608 39468 L20661 39431 L20740 39431 L20792 39468 L20818 39506 L20845 39581 L20845 39806 L20818 39881 L20792 39918 L20740 39956 L20661 39956 "/>
<path d="M21002 39431 L21212 39431 "/>
<path d="M21081 39956 L21081 39281 L21107 39206 L21160 39168 L21212 39168 "/>
<path d="M21317 39431 L21527 39431 "/>
<path d="M21396 39168 L21396 39843 L21422 39918 L21475 39956 L21527 39956 "/>
<path d="M22104 39131 L21632 40143 "/>
<path d="M22288 39956 L22288 39168 "/>
<path d="M22524 39956 L22524 39543 L22498 39468 L22446 39431 L22367 39431 L22314 39468 L22288 39506 "/>
<path d="M23023 39956 L23023 39543 L22997 39468 L22944 39431 L22839 39431 L22787 39468 "/>
<path d="M23023 39918 L22971 39956 L22839 39956 L22787 39918 L22761 39843 L22761 39768 L22787 39693 L22839 39656 L22971 39656 L23023 39618 "/>
<path d="M23286 39956 L23286 39431 "/>
<path d="M23286 39581 L23312 39506 L23338 39468 L23391 39431 L23443 39431 "/>
<path d="M23863 39956 L23863 39168 "/>
<path d="M23863 39918 L23811 39956 L23706 39956 L23653 39918 L23627 39881 L23601 39806 L23601 39581 L23627 39506 L23653 39468 L23706 39431 L23811 39431 L23863 39468 "/>
<text x="22000" y="55993.7" textLength="915.354" font-size="734.908" lengthAdjust="spacingAndGlyphs" text-anchor="middle" opacity="0">lp</text>
<path d="M21816 55956 L21763 55918 L21737 55843 L21737 55168 "/>
<path d="M22026 55431 L22026 56218 "/>
<path d="M22026 55468 L22078 55431 L22183 55431 L22236 55468 L22262 55506 L22288 55581 L22288 55806 L22262 55881 L22236 55918 L22183 55956 L22078 55956 L22026 55918 "/>
<text x="22000" y="55993.7" textLength="915.354" font-size="734.908" lengthAdjust="spacingAndGlyphs" text-anchor="middle" opacity="0">lp</text>
<path d="M21816 55956 L21763 55918 L21737 55843 L21737 55168 "/>
<path d="M22026 55431 L22026 56218 "/>
<path d="M22026 55468 L22078 55431 L22183 55431 L22236 55468 L22262 55506 L22288 55581 L22288 55806 L22262 55881 L22236 55918 L22183 55956 L22078 55956 L22026 55918 "/>
<text x="22000" y="55993.7" textLength="915.354" font-size="734.908" lengthAdjust="spacingAndGlyphs" text-anchor="middle" opacity="0">lp</text>
<path d="M21816 55956 L21763 55918 L21737 55843 L21737 55168 "/>
<path d="M22026 55431 L22026 56218 "/>
<path d="M22026 55468 L22078 55431 L22183 55431 L22236 55468 L22262 55506 L22288 55581 L22288 55806 L22262 55881 L22236 55918 L22183 55956 L22078 55956 L22026 55918 "/>
<text x="22000" y="47993.7" textLength="1387.8" font-size="734.908" lengthAdjust="spacingAndGlyphs" text-anchor="middle" opacity="0">res</text>
<path d="M21501 47956 L21501 47431 "/>
<path d="M21501 47581 L21527 47506 L21553 47468 L21606 47431 L21658 47431 "/>
<path d="M22052 47918 L22000 47956 L21895 47956 L21842 47918 L21816 47843 L21816 47543 L21842 47468 L21895 47431 L22000 47431 L22052 47468 L22078 47543 L22078 47618 L21816 47693 "/>
<path d="M22288 47918 L22341 47956 L22446 47956 L22498 47918 L22524 47843 L22524 47806 L22498 47731 L22446 47693 L22367 47693 L22314 47656 L22288 47581 L22288 47543 L22314 47468 L22367 47431 L22446 47431 L22498 47468 "/>
<text x="22000" y="47993.7" textLength="1387.8" font-size="734.908" lengthAdjust="spacingAndGlyphs" text-anchor="middle" opacity="0">res</text>
<path d="M21501 47956 L21501 47431 "/>
<path d="M21501 47581 L21527 47506 L21553 47468 L21606 47431 L21658 47431 "/>
<path d="M22052 47918 L22000 47956 L21895 47956 L21842 47918 L21816 47843 L21816 47543 L21842 47468 L21895 47431 L22000 47431 L22052 47468 L22078 47543 L22078 47618 L21816 47693 "/>
<path d="M22288 47918 L22341 47956 L22446 47956 L22498 47918 L22524 47843 L22524 47806 L22498 47731 L22446 47693 L22367 47693 L22314 47656 L22288 47581 L22288 47543 L22314 47468 L22367 47431 L22446 47431 L22498 47468 "/>
<text x="22000" y="47993.7" textLength="1387.8" font-size="734.908" lengthAdjust="spacingAndGlyphs" text-anchor="middle" opacity="0">res</text>
<path d="M21501 47956 L21501 47431 "/>
<path d="M21501 47581 L21527 47506 L21553 47468 L21606 47431 L21658 47431 "/>
<path d="M22052 47918 L22000 47956 L21895 47956 L21842 47918 L21816 47843 L21816 47543 L21842 47468 L21895 47431 L22000 47431 L22052 47468 L22078 47543 L22078 47618 L21816 47693 "/>
<path d="M22288 47918 L22341 47956 L22446 47956 L22498 47918 L22524 47843 L22524 47806 L22498 47731 L22446 47693 L22367 47693 L22314 47656 L22288 47581 L22288 47543 L22314 47468 L22367 47431 L22446 47431 L22498 47468 "/>
<text x="22000" y="31993.7" textLength="1755.25" font-size="734.908" lengthAdjust="spacingAndGlyphs" text-anchor="middle" opacity="0">freq</text>
<path d="M21238 31431 L21448 31431 "/>
<path d="M21317 31956 L21317 31281 L21343 31206 L21396 31168 L21448 31168 "/>
<path d="M21632 31956 L21632 31431 "/>
<path d="M21632 31581 L21658 31506 L21685 31468 L21737 31431 L21790 31431 "/>
<path d="M22183 31918 L22131 31956 L22026 31956 L21973 31918 L21947 31843 L21947 31543 L21973 31468 L22026 31431 L22131 31431 L22183 31468 L22209 31543 L22209 31618 L21947 31693 "/>
<path d="M22682 31431 L22682 32218 "/>
<path d="M22682 31918 L22629 31956 L22524 31956 L22472 31918 L22446 31881 L22419 31806 L22419 31581 L22446 31506 L22472 31468 L22524 31431 L22629 31431 L22682 31468 "/>
<text x="22000" y="31993.7" textLength="1755.25" font-size="734.908" lengthAdjust="spacingAndGlyphs" text-anchor="middle" opacity="0">freq</text>
<path d="M21238 31431 L21448 31431 "/>
<path d="M21317 31956 L21317 31281 L21343 31206 L21396 31168 L21448 31168 "/>
<path d="M21632 31956 L21632 31431 "/>
<path d="M21632 31581 L21658 31506 L21685 31468 L21737 31431 L21790 31431 "/>
<path d="M22183 31918 L22131 31956 L22026 31956 L21973 31918 L21947 31843 L21947 31543 L21973 31468 L22026 31431 L22131 31431 L22183 31468 L22209 31543 L22209 31618 L21947 31693 "/>
<path d="M22682 31431 L22682 32218 "/>
<path d="M22682 31918 L22629 31956 L22524 31956 L22472 31918 L22446 31881 L22419 31806 L22419 31581 L22446 31506 L22472 31468 L22524 31431 L22629 31431 L22682 31468 "/>
<text x="22000" y="31993.7" textLength="1755.25" font-size="734.908" lengthAdjust="spacingAndGlyphs" text-anchor="middle" opacity="0">freq</text>
<path d="M21238 31431 L21448 31431 "/>
<path d="M21317 31956 L21317 31281 L21343 31206 L21396 31168 L21448 31168 "/>
<path d="M21632 31956 L21632 31431 "/>
<path d="M21632 31581 L21658 31506 L21685 31468 L21737 31431 L21790 31431 "/>
<path d="M22183 31918 L22131 31956 L22026 31956 L21973 31918 L21947 31843 L21947 31543 L21973 31468 L22026 31431 L22131 31431 L22183 31468 L22209 31543 L22209 31618 L21947 31693 "/>
<path d="M22682 31431 L22682 32218 "/>
<path d="M22682 31918 L22629 31956 L22524 31956 L22472 31918 L22446 31881 L22419 31806 L22419 31581 L22446 31506 L22472 31468 L22524 31431 L22629 31431 L22682 31468 "/>
<text x="18000" y="55993.7" textLength="1125.33" font-size="734.908" lengthAdjust="spacingAndGlyphs" text-anchor="middle" opacity="0">bp</text>
<path d="M17632 55956 L17632 55168 "/>
<path d="M17632 55468 L17685 55431 L17790 55431 L17842 55468 L17868 55506 L17895 55581 L17895 55806 L17868 55881 L17842 55918 L17790 55956 L17685 55956 L17632 55918 "/>
<path d="M18131 55431 L18131 56218 "/>
<path d="M18131 55468 L18183 55431 L18288 55431 L18341 55468 L18367 55506 L18393 55581 L18393 55806 L18367 55881 L18341 55918 L18288 55956 L18183 55956 L18131 55918 "/>
<text x="18000" y="55993.7" textLength="1125.33" font-size="734.908" lengthAdjust="spacingAndGlyphs" text-anchor="middle" opacity="0">bp</text>
<path d="M17632 55956 L17632 55168 "/>
<path d="M17632 55468 L17685 55431 L17790 55431 L17842 55468 L17868 55506 L17895 55581 L17895 55806 L17868 55881 L17842 55918 L17790 55956 L17685 55956 L17632 55918 "/>
<path d="M18131 55431 L18131 56218 "/>
<path d="M18131 55468 L18183 55431 L18288 55431 L18341 55468 L18367 55506 L18393 55581 L18393 55806 L18367 55881 L18341 55918 L18288 55956 L18183 55956 L18131 55918 "/>
<text x="18000" y="55993.7" textLength="1125.33" font-size="734.908" lengthAdjust="spacingAndGlyphs" text-anchor="middle" opacity="0">bp</text>
<path d="M17632 55956 L17632 55168 "/>
<path d="M17632 55468 L17685 55431 L17790 55431 L17842 55468 L17868 55506 L17895 55581 L17895 55806 L17868 55881 L17842 55918 L17790 55956 L17685 55956 L17632 55918 "/>
<path d="M18131 55431 L18131 56218 "/>
<path d="M18131 55468 L18183 55431 L18288 55431 L18341 55468 L18367 55506 L18393 55581 L18393 55806 L18367 55881 L18341 55918 L18288 55956 L18183 55956 L18131 55918 "/>
<text x="14000" y="55993.7" textLength="889.107" font-size="734.908" lengthAdjust="spacingAndGlyphs" text-anchor="middle" opacity="0">in</text>
<path d="M13750 55956 L13750 55431 "/>
<path d="M13750 55168 L13724 55206 L13750 55243 L13776 55206 L13750 55168 L13750 55243 "/>
<path d="M14013 55431 L14013 55956 "/>
<path d="M14013 55506 L14039 55468 L14091 55431 L14170 55431 L14223 55468 L14249 55543 L14249 55956 "/>
<text x="14000" y="55993.7" textLength="889.107" font-size="734.908" lengthAdjust="spacingAndGlyphs" text-anchor="middle" opacity="0">in</text>
<path d="M13750 55956 L13750 55431 "/>
<path d="M13750 55168 L13724 55206 L13750 55243 L13776 55206 L13750 55168 L13750 55243 "/>
<path d="M14013 55431 L14013 55956 "/>
<path d="M14013 55506 L14039 55468 L14091 55431 L14170 55431 L14223 55468 L14249 55543 L14249 55956 "/>
<text x="14000" y="55993.7" textLength="889.107" font-size="734.908" lengthAdjust="spacingAndGlyphs" text-anchor="middle" opacity="0">in</text>
<path d="M13750 55956 L13750 55431 "/>
<path d="M13750 55168 L13724 55206 L13750 55243 L13776 55206 L13750 55168 L13750 55243 "/>
<path d="M14013 55431 L14013 55956 "/>
<path d="M14013 55506 L14039 55468 L14091 55431 L14170 55431 L14223 55468 L14249 55543 L14249 55956 "/>
<text x="14000" y="31993.7" textLength="1020.34" font-size="734.908" lengthAdjust="spacingAndGlyphs" text-anchor="middle" opacity="0">cv</text>
<path d="M13921 31918 L13868 31956 L13763 31956 L13711 31918 L13685 31881 L13658 31806 L13658 31581 L13685 31506 L13711 31468 L13763 31431 L13868 31431 L13921 31468 "/>
<path d="M14104 31431 L14236 31956 L14367 31431 "/>
<text x="14000" y="31993.7" textLength="1020.34" font-size="734.908" lengthAdjust="spacingAndGlyphs" text-anchor="middle" opacity="0">cv</text>
<path d="M13921 31918 L13868 31956 L13763 31956 L13711 31918 L13685 31881 L13658 31806 L13658 31581 L13685 31506 L13711 31468 L13763 31431 L13868 31431 L13921 31468 "/>
<path d="M14104 31431 L14236 31956 L14367 31431 "/>
<text x="14000" y="31993.7" textLength="1020.34" font-size="734.908" lengthAdjust="spacingAndGlyphs" text-anchor="middle" opacity="0">cv</text>
<path d="M13921 31918 L13868 31956 L13763 31956 L13711 31918 L13685 31881 L13658 31806 L13658 31581 L13685 31506 L13711 31468 L13763 31431 L13868 31431 L13921 31468 "/>
<path d="M14104 31431 L14236 31956 L14367 31431 "/>
<text x="14000" y="23993.7" textLength="1177.82" font-size="734.908" lengthAdjust="spacingAndGlyphs" text-anchor="middle" opacity="0">fm</text>
<path d="M13527 23431 L13737 23431 "/>
<path d="M13606 23956 L13606 23281 L13632 23206 L13685 23168 L13737 23168 "/>
<path d="M13921 23956 L13921 23431 "/>
<path d="M13921 23506 L13947 23468 L14000 23431 L14078 23431 L14131 23468 L14157 23543 L14157 23956 "/>
<path d="M14157 23543 L14183 23468 L14236 23431 L14314 23431 L14367 23468 L14393 23543 L14393 23956 "/>
<text x="14000" y="23993.7" textLength="1177.82" font-size="734.908" lengthAdjust="spacingAndGlyphs" text-anchor="middle" opacity="0">fm</text>
<path d="M13527 23431 L13737 23431 "/>
<path d="M13606 23956 L13606 23281 L13632 23206 L13685 23168 L13737 23168 "/>
<path d="M13921 23956 L13921 23431 "/>
<path d="M13921 23506 L13947 23468 L14000 23431 L14078 23431 L14131 23468 L14157 23543 L14157 23956 "/>
<path d="M14157 23543 L14183 23468 L14236 23431 L14314 23431 L14367 23468 L14393 23543 L14393 23956 "/>
<text x="14000" y="23993.7" textLength="1177.82" font-size="734.908" lengthAdjust="spacingAndGlyphs" text-anchor="middle" opacity="0">fm</text>
<path d="M13527 23431 L13737 23431 "/>
<path d="M13606 23956 L13606 23281 L13632 23206 L13685 23168 L13737 23168 "/>
<path d="M13921 23956 L13921 23431 "/>
<path d="M13921 23506 L13947 23468 L14000 23431 L14078 23431 L14131 23468 L14157 23543 L14157 23956 "/>
<path d="M14157 23543 L14183 23468 L14236 23431 L14314 23431 L14367 23468 L14393 23543 L14393 23956 "/>
</g>
<g style="fill:#000000; fill-opacity:1.0;  stroke:#000000; stroke-width:0; stroke-opacity:1;  stroke-linecap:round; stroke-linejoin:round;">
<path style="fill:#000000; fill-opacity:1.0;  stroke:#000000; stroke-width:0; stroke-opacity:1;  stroke-linecap:round; stroke-linejoin:round;fill-rule:evenodd;" d="M 13100.5,59917.8 13142.4,59926.2 13260.6,59975.2 13367.1,60046.3 13457.6,60136.8 13528.8,60243.3 13577.8,60361.6 13602.8,60487.2 13602.8,60615.2 13577.8,60740.8 13528.8,60859.1 13457.6,60965.5 13367.1,61056.1 13260.6,61127.2 13142.4,61176.2 13100.5,61184.5 13016.8,61201.2 12888.7,61201.2 12805,61184.5 12763.2,61176.2 12644.9,61127.2 12538.4,61056.1 12447.9,60965.5 12376.7,60859.1 12327.7,60740.8 12302.8,60615.2 12302.8,60487.2 12327.7,60361.6 12376.7,60243.3 12447.9,60136.8 12538.4,60046.3 12644.9,59975.2 12763.2,59926.2 12805,59917.8 12888.7,59901.2 13016.8,59901.2 Z"/> 
<path style="fill:#000000; fill-opacity:1.0;  stroke:#000000; stroke-width:0; stroke-opacity:1;  stroke-linecap:round; stroke-linejoin:round;fill-rule:evenodd;" d="M 14249.7,50744.7 14373.3,50769.3 14606.3,50865.7 14815.9,51005.8 14994.2,51184.1 15134.3,51393.7 15230.7,51626.7 15279.9,51873.9 15279.9,52126.1 15230.7,52373.3 15134.3,52606.3 14994.2,52815.9 14815.9,52994.2 14606.3,53134.3 14373.3,53230.7 14249.7,53255.3 14126.1,53279.9 13873.9,53279.9 13750.3,53255.3 13626.7,53230.7 13393.7,53134.3 13184.1,52994.2 13005.8,52815.9 12865.7,52606.3 12769.3,52373.3 12720.1,52126.1 12720.1,51873.9 12769.3,51626.7 12865.7,51393.7 13005.8,51184.1 13184.1,51005.8 13393.7,50865.7 13626.7,50769.3 13750.3,50744.7 13873.9,50720.1 14126.1,50720.1 Z"/> 
<path style="fill:#000000; fill-opacity:1.0;  stroke:#000000; stroke-width:0; stroke-opacity:1;  stroke-linecap:round; stroke-linejoin:round;fill-rule:evenodd;" d="M 18249.7,50744.7 18373.3,50769.3 18606.3,50865.7 18815.9,51005.8 18994.2,51184.1 19134.3,51393.7 19230.7,51626.7 19279.9,51873.9 19279.9,52126.1 19230.7,52373.3 19134.3,52606.3 18994.2,52815.9 18815.9,52994.2 18606.3,53134.3 18373.3,53230.7 18249.7,53255.3 18126.1,53279.9 17873.9,53279.9 17750.3,53255.3 17626.7,53230.7 17393.7,53134.3 17184.1,52994.2 17005.8,52815.9 16865.7,52606.3 16769.3,52373.3 16720.1,52126.1 16720.1,51873.9 16769.3,51626.7 16865.7,51393.7 17005.8,51184.1 17184.1,51005.8 17393.7,50865.7 17626.7,50769.3 17750.3,50744.7 17873.9,50720.1 18126.1,50720.1 Z"/> 
<path style="fill:#000000; fill-opacity:1.0;  stroke:#000000; stroke-width:0; stroke-opacity:1;  stroke-linecap:round; stroke-linejoin:round;fill-rule:evenodd;" d="M 22249.7,50744.7 22373.3,50769.3 22606.3,50865.7 22815.9,51005.8 22994.2,51184.1 23134.3,51393.7 23230.7,51626.7 23279.9,51873.9 23279.9,52126.1 23230.7,52373.3 23134.3,52606.3 22994.2,52815.9 22815.9,52994.2 22606.3,53134.3 22373.3,53230.7 22249.7,53255.3 22126.1,53279.9 21873.9,53279.9 21750.3,53255.3 21626.7,53230.7 21393.7,53134.3 21184.1,52994.2 21005.8,52815.9 20865.7,52606.3 20769.3,52373.3 20720.1,52126.1 20720.1,51873.9 20769.3,51626.7 20865.7,51393.7 21005.8,51184.1 21184.1,51005.8 21393.7,50865.7 21626.7,50769.3 21750.3,50744.7 21873.9,50720.1 22126.1,50720.1 Z"/> 
<path style="fill:#000000; fill-opacity:1.0;  stroke:#000000; stroke-width:0; stroke-opacity:1;  stroke-linecap:round; stroke-linejoin:round;fill-rule:evenodd;" d="M 22335.7,42561.1 22430.8,42580 22699.5,42691.3 22941.4,42852.9 23147.1,43058.6 23308.7,43300.5 23420,43569.2 23476.8,43854.6 23476.8,44145.4 23420,44430.8 23308.7,44699.5 23147.1,44941.4 22941.4,45147.1 22699.5,45308.7 22430.8,45420 22335.7,45438.9 22145.5,45476.8 21854.5,45476.8 21664.3,45438.9 21569.2,45420 21300.5,45308.7 21058.6,45147.1 20852.9,44941.4 20691.3,44699.5 20580,44430.8 20523.2,44145.4 20523.2,43854.6 20580,43569.2 20691.3,43300.5 20852.9,43058.6 21058.6,42852.9 21300.5,42691.3 21569.2,42580 21664.3,42561.1 21854.5,42523.2 22145.5,42523.2 Z"/> 
<path style="fill:#000000; fill-opacity:1.0;  stroke:#000000; stroke-width:0; stroke-opacity:1;  stroke-linecap:round; stroke-linejoin:round;fill-rule:evenodd;" d="M 22249.7,34744.7 22373.3,34769.3 22606.3,34865.7 22815.9,35005.8 22994.2,35184.1 23134.3,35393.7 23230.7,35626.7 23279.9,35873.9 23279.9,36126.1 23230.7,36373.3 23134.3,36606.3 22994.2,36815.9 22815.9,36994.2 22606.3,37134.3 22373.3,37230.7 22249.7,37255.3 22126.1,37279.9 21873.9,37279.9 21750.3,37255.3 21626.7,37230.7 21393.7,37134.3 21184.1,36994.2 21005.8,36815.9 20865.7,36606.3 20769.3,36373.3 20720.1,36126.1 20720.1,35873.9 20769.3,35626.7 20865.7,35393.7 21005.8,35184.1 21184.1,35005.8 21393.7,34865.7 21626.7,34769.3 21750.3,34744.7 21873.9,34720.1 22126.1,34720.1 Z"/> 
<path style="fill:#000000; fill-opacity:1.0;  stroke:#000000; stroke-width:0; stroke-opacity:1;  stroke-linecap:round; stroke-linejoin:round;fill-rule:evenodd;" d="M 22335.7,26561.1 22430.8,26580 22699.5,26691.3 22941.4,26852.9 23147.1,27058.6 23308.7,27300.5 23420,27569.2 23476.8,27854.6 23476.8,28145.4 23420,28430.8 23308.7,28699.5 23147.1,28941.4 22941.4,29147.1 22699.5,29308.7 22430.8,29420 22335.7,29438.9 22145.5,29476.8 21854.5,29476.8 21664.3,29438.9 21569.2,29420 21300.5,29308.7 21058.6,29147.1 20852.9,28941.4 20691.3,28699.5 20580,28430.8 20523.2,28145.4 20523.2,27854.6 20580,27569.2 20691.3,27300.5 20852.9,27058.6 21058.6,26852.9 21300.5,26691.3 21569.2,26580 21664.3,26561.1 21854.5,26523.2 22145.5,26523.2 Z"/> 
<path style="fill:#000000; fill-opacity:1.0;  stroke:#000000; stroke-width:0; stroke-opacity:1;  stroke-linecap:round; stroke-linejoin:round;fill-rule:evenodd;" d="M 14249.7,26744.7 14373.3,26769.3 14606.3,26865.7 14815.9,27005.8 14994.2,27184.1 15134.3,27393.7 15230.7,27626.7 15279.9,27873.9 15279.9,28126.1 15230.7,28373.3 15134.3,28606.3 14994.2,28815.9 14815.9,28994.2 14606.3,29134.3 14373.3,29230.7 14249.7,29255.3 14126.1,29279.9 13873.9,29279.9 13750.3,29255.3 13626.7,29230.7 13393.7,29134.3 13184.1,28994.2 13005.8,28815.9 12865.7,28606.3 12769.3,28373.3 12720.1,28126.1 12720.1,27873.9 12769.3,27626.7 12865.7,27393.7 13005.8,27184.1 13184.1,27005.8 13393.7,26865.7 13626.7,26769.3 13750.3,26744.7 13873.9,26720.1 14126.1,26720.1 Z"/> 
<path style="fill:#000000; fill-opacity:1.0;  stroke:#000000; stroke-width:0; stroke-opacity:1;  stroke-linecap:round; stroke-linejoin:round;fill-rule:evenodd;" d="M 22335.7,18561.1 22430.8,18580 22699.5,18691.3 22941.4,18852.9 23147.1,19058.6 23308.7,19300.5 23420,19569.2 23476.8,19854.6 23476.8,20145.4 23420,20430.8 23308.7,20699.5 23147.1,20941.4 22941.4,21147.1 22699.5,21308.7 22430.8,21420 22335.7,21438.9 22145.5,21476.8 21854.5,21476.8 21664.3,21438.9 21569.2,21420 21300.5,21308.7 21058.6,21147.1 20852.9,20941.4 20691.3,20699.5 20580,20430.8 20523.2,20145.4 20523.2,19854.6 20580,19569.2 20691.3,19300.5 20852.9,19058.6 21058.6,18852.9 21300.5,18691.3 21569.2,18580 21664.3,18561.1 21854.5,18523.2 22145.5,18523.2 Z"/> 
<path style="fill:#000000; fill-opacity:1.0;  stroke:#000000; stroke-width:0; stroke-opacity:1;  stroke-linecap:round; stroke-linejoin:round;fill-rule:evenodd;" d="M 14249.7,18744.7 14373.3,18769.3 14606.3,18865.7 14815.9,19005.8 14994.2,19184.1 15134.3,19393.7 15230.7,19626.7 15279.9,19873.9 15279.9,20126.1 15230.7,20373.3 15134.3,20606.3 14994.2,20815.9 14815.9,20994.2 14606.3,21134.3 14373.3,21230.7 14249.7,21255.3 14126.1,21279.9 13873.9,21279.9 13750.3,21255.3 13626.7,21230.7 13393.7,21134.3 13184.1,20994.2 13005.8,20815.9 12865.7,20606.3 12769.3,20373.3 12720.1,20126.1 12720.1,19873.9 12769.3,19626.7 12865.7,19393.7 13005.8,19184.1 13184.1,19005.8 13393.7,18865.7 13626.7,18769.3 13750.3,18744.7 13873.9,18720.1 14126.1,18720.1 Z"/> 
<path style="fill:#000000; fill-opacity:1.0;  stroke:#000000; stroke-width:0; stroke-opacity:1;  stroke-linecap:round; stroke-linejoin:round;fill-rule:evenodd;" d="M 13100.5,11335.2 13142.4,11343.5 13260.6,11392.5 13367.1,11463.6 13457.6,11554.2 13528.8,11660.6 13577.8,11778.9 13602.8,11904.5 13602.8,12032.5 13577.8,12158.1 13528.8,12276.4 13457.6,12382.9 13367.1,12473.4 13260.6,12544.5 13142.4,12593.5 13100.5,12601.9 13016.8,12618.5 12888.7,12618.5 12805,12601.9 12763.2,12593.5 12644.9,12544.5 12538.4,12473.4 12447.9,12382.9 12376.7,12276.4 12327.7,12158.1 12302.8,12032.5 12302.8,11904.5 12327.7,11778.9 12376.7,11660.6 12447.9,11554.2 12538.4,11463.6 12644.9,11392.5 12763.2,11343.5 12805,11335.2 12888.7,11318.5 13016.8,11318.5 Z"/> 
</g> 
<rect x="9976" y="9976" width="15913" height="52579" fill="white"/></mask></defs><g id="substrate-silk" style="fill:#000000; stroke:#000000;" mask="url(#pads-mask-silkscreen)"><g style="fill-opacity:1; stroke-opacity:1; stroke-linecap:round; stroke-linejoin:round;" transform="translate(0 0) scale(1 1)">
</g>
<g style="fill-opacity:0.0; stroke-width:-0.000393701; stroke-opacity:1; stroke-linecap:round; stroke-linejoin:round;">
<g>
</g>
</g> 
</g><g id="substrate-outline" style="fill:#000000; stroke:#000000;"><g style="fill-opacity:1; stroke-opacity:1; stroke-linecap:round; stroke-linejoin:round;" transform="translate(0 0) scale(1 1)">
</g>
<g style="fill-opacity:0.0; stroke-width:-0.000393701; stroke-opacity:1; stroke-linecap:round; stroke-linejoin:round;">
</g>
<g style="fill-opacity:0.0; stroke-width:47.2441; stroke-opacity:1; stroke-linecap:round; stroke-linejoin:round;">
<path d="M25866 62519 L10000 62519 "/>
<path d="M25866 10000 L25866 62519 "/>
<path d="M10000 10000 L10000 62519 "/>
<path d="M10000 10000 L25866 10000 "/>
<g>
</g>
<g>
</g>
<g>
</g>
<g>
</g>
<g>
</g>
<g>
</g>
<g>
</g>
<g>
</g>
<g>
</g>
<g>
</g>
<g>
</g>
<g>
</g>
</g> 
</g><defs><mask id="hole-mask"><g><rect x="9976" y="9976" fill="white" width="15913" height="52579"/><polyline stroke-linecap="round" stroke="black" stroke-width="1259" points="0.0 0 0.0 0" transform="translate(12952 11968) rotate(-0.0)"/><polyline stroke-linecap="round" stroke="black" stroke-width="1259" points="0.0 0 0.0 0" transform="translate(12952 60551) rotate(-0.0)"/><polyline stroke-linecap="round" stroke="black" stroke-width="2519" points="0.0 0 0.0 0" transform="translate(22000 36000) rotate(-0.0)"/><polyline stroke-linecap="round" stroke="black" stroke-width="2519" points="0.0 0 0.0 0" transform="translate(22000 52000) rotate(-0.0)"/><polyline stroke-linecap="round" stroke="black" stroke-width="2913" points="0.0 0 0.0 0" transform="translate(22000 44000) rotate(-0.0)"/><polyline stroke-linecap="round" stroke="black" stroke-width="2913" points="0.0 0 0.0 0" transform="translate(22000 28000) rotate(-0.0)"/><polyline stroke-linecap="round" stroke="black" stroke-width="2519" points="0.0 0 0.0 0" transform="translate(18000 52000) rotate(-0.0)"/><polyline stroke-linecap="round" stroke="black" stroke-width="2519" points="0.0 0 0.0 0" transform="translate(14000 52000) rotate(-0.0)"/><polyline stroke-linecap="round" stroke="black" stroke-width="2519" points="0.0 0 0.0 0" transform="translate(14000 28000) rotate(-0.0)"/><polyline stroke-linecap="round" stroke="black" stroke-width="2913" points="0.0 0 0.0 0" transform="translate(22000 20000) rotate(-0.0)"/><polyline stroke-linecap="round" stroke="black" stroke-width="2519" points="0.0 0 0.0 0" transform="translate(14000 20000) rotate(-0.0)"/></g></mask></defs></g></g><g transform="translate(-9977, -9977)" id="highlightContainer"/><g transform="translate(-9977, -9977)" id="componentContainer"/></svg>