<?xml version="1.0" standalone="no"?>
 <!DOCTYPE svg PUBLIC "-//W3C//DTD SVG 1.1//EN" 
 "http://www.w3.org/Graphics/SVG/1.1/DTD/svg11.dtd"> 
<svg
  xmlns:svg="http://www.w3.org/2000/svg"
  xmlns="http://www.w3.org/2000/svg"
  xmlns:xlink="http://www.w3.org/1999/xlink"
  version="1.1"
  width="297.0022mm" height="210.0072mm" viewBox="0.0000 0.0000 297.0022 210.0072">
<title>SVG Image created as panel-B_Cu.svg date 2023/11/07 16:39:00 </title>
  <desc>Image generated by PCBNEW </desc>
<g style="fill:#000000; fill-opacity:1.0000;stroke:#000000; stroke-opacity:1.0000;
stroke-linecap:round; stroke-linejoin:round;"
 transform="translate(0 0) scale(1 1)">
</g>
<g style="fill:#000000; fill-opacity:0.0; 
stroke:#000000; stroke-width:0.0000; stroke-opacity:1; 
stroke-linecap:round; stroke-linejoin:round;">
<g >
</g>
<g >
</g>
<g >
</g>
<g >
</g>
<g >
</g>
<g >
</g>
<g >
</g>
<g >
</g>
<g >
</g>
<g >
</g>
<g >
</g>
<g >
</g>
<g >
</g>
<g >
</g>
<g >
</g>
<g >
</g>
<g >
</g>
<g >
</g>
<g >
</g>
<g >
</g>
<g >
</g>
<g >
</g>
<g >
</g>
<g >
</g>
<g >
</g>
<g >
</g>
<g style="fill:#000000; fill-opacity:0.0; 
stroke:#000000; stroke-width:0.0000; stroke-opacity:1; 
stroke-linecap:round; stroke-linejoin:round;">
<g >
</g>
<g style="fill:#000000; fill-opacity:1.0000; 
stroke:#000000; stroke-width:0.0000; stroke-opacity:1; 
stroke-linecap:round; stroke-linejoin:round;">
<path style="fill:#000000; fill-opacity:1.0000; 
stroke:#000000; stroke-width:0.0000; stroke-opacity:1; 
stroke-linecap:round; stroke-linejoin:round;fill-rule:evenodd;"
d="M 85.3050,158.1050
26.0950,158.1050
26.0950,153.5799
30.6650,153.5799
30.6650,154.0201
30.7509,154.4519
30.9194,154.8587
31.1640,155.2247
31.4753,155.5360
31.8413,155.7806
32.2481,155.9491
32.6799,156.0350
33.1201,156.0350
33.5519,155.9491
33.9587,155.7806
34.3247,155.5360
34.6360,155.2247
34.8806,154.8587
35.0491,154.4519
35.1350,154.0201
35.1350,153.5799
76.3850,153.5799
76.3850,154.0201
76.4709,154.4519
76.6394,154.8587
76.8840,155.2247
77.1953,155.5360
77.5613,155.7806
77.9681,155.9491
78.3999,156.0350
78.8401,156.0350
79.2719,155.9491
79.6787,155.7806
80.0447,155.5360
80.3560,155.2247
80.6006,154.8587
80.7691,154.4519
80.8550,154.0201
80.8550,153.5799
80.7691,153.1481
80.6006,152.7413
80.3560,152.3753
80.0447,152.0640
79.6787,151.8194
79.2719,151.6509
78.8401,151.5650
78.3999,151.5650
77.9681,151.6509
77.5613,151.8194
77.1953,152.0640
76.8840,152.3753
76.6394,152.7413
76.4709,153.1481
76.3850,153.5799
35.1350,153.5799
35.0491,153.1481
34.8806,152.7413
34.6360,152.3753
34.3247,152.0640
33.9587,151.8194
33.5519,151.6509
33.1201,151.5650
32.6799,151.5650
32.2481,151.6509
31.8413,151.8194
31.4753,152.0640
31.1640,152.3753
30.9194,152.7413
30.7509,153.1481
30.6650,153.5799
26.0950,153.5799
26.0950,131.7023
31.7250,131.7023
31.7250,132.4577
31.8724,133.1986
32.1615,133.8966
32.5812,134.5247
33.1153,135.0588
33.7434,135.4785
34.4414,135.7676
35.1823,135.9150
35.9377,135.9150
36.6786,135.7676
37.3766,135.4785
38.0047,135.0588
38.5388,134.5247
38.9585,133.8966
39.2476,133.1986
39.3950,132.4577
39.3950,131.7023
39.3852,131.6530
51.5450,131.6530
51.5450,132.5070
51.7116,133.3445
52.0384,134.1334
52.5128,134.8434
53.1166,135.4472
53.8266,135.9216
54.6155,136.2484
55.4530,136.4150
56.3070,136.4150
57.1445,136.2484
57.9334,135.9216
58.6434,135.4472
59.2472,134.8434
59.7216,134.1334
60.0484,133.3445
60.2150,132.5070
60.2150,131.6530
71.8650,131.6530
71.8650,132.5070
72.0316,133.3445
72.3584,134.1334
72.8328,134.8434
73.4366,135.4472
74.1466,135.9216
74.9355,136.2484
75.7730,136.4150
76.6270,136.4150
77.4645,136.2484
78.2534,135.9216
78.9634,135.4472
79.5672,134.8434
80.0416,134.1334
80.3684,133.3445
80.5350,132.5070
80.5350,131.6530
80.3684,130.8155
80.0416,130.0266
79.5672,129.3166
78.9634,128.7128
78.2534,128.2384
77.4645,127.9116
76.6270,127.7450
75.7730,127.7450
74.9355,127.9116
74.1466,128.2384
73.4366,128.7128
72.8328,129.3166
72.3584,130.0266
72.0316,130.8155
71.8650,131.6530
60.2150,131.6530
60.0484,130.8155
59.7216,130.0266
59.2472,129.3166
58.6434,128.7128
57.9334,128.2384
57.1445,127.9116
56.3070,127.7450
55.4530,127.7450
54.6155,127.9116
53.8266,128.2384
53.1166,128.7128
52.5128,129.3166
52.0384,130.0266
51.7116,130.8155
51.5450,131.6530
39.3852,131.6530
39.2476,130.9614
38.9585,130.2634
38.5388,129.6353
38.0047,129.1012
37.3766,128.6815
36.6786,128.3924
35.9377,128.2450
35.1823,128.2450
34.4414,128.3924
33.7434,128.6815
33.1153,129.1012
32.5812,129.6353
32.1615,130.2634
31.8724,130.9614
31.7250,131.7023
26.0950,131.7023
26.0950,111.3823
31.7250,111.3823
31.7250,112.1377
31.8724,112.8786
32.1615,113.5766
32.5812,114.2047
33.1153,114.7388
33.7434,115.1585
34.4414,115.4476
35.1823,115.5950
35.9377,115.5950
36.6786,115.4476
37.3766,115.1585
38.0047,114.7388
38.5388,114.2047
38.9585,113.5766
39.2476,112.8786
39.3950,112.1377
39.3950,111.3823
52.0450,111.3823
52.0450,112.1377
52.1924,112.8786
52.4815,113.5766
52.9012,114.2047
53.4353,114.7388
54.0634,115.1585
54.7614,115.4476
55.5023,115.5950
56.2577,115.5950
56.9986,115.4476
57.6966,115.1585
58.3247,114.7388
58.8588,114.2047
59.2785,113.5766
59.5676,112.8786
59.7150,112.1377
59.7150,111.7563
63.9130,111.7563
63.9138,111.8193
63.9139,111.8233
63.9167,111.8862
63.9170,111.8903
63.9218,111.9531
63.9221,111.9571
63.9289,112.0198
63.9294,112.0236
63.9381,112.0860
63.9387,112.0901
63.9494,112.1522
63.9502,112.1562
63.9629,112.2179
63.9638,112.2217
63.9784,112.2830
63.9793,112.2869
63.9958,112.3477
63.9969,112.3515
64.0153,112.4117
64.0166,112.4155
64.0369,112.4752
64.0383,112.4791
64.0605,112.5380
64.0619,112.5415
64.0859,112.5998
64.0874,112.6035
64.1132,112.6610
64.1150,112.6648
64.1427,112.7214
64.1445,112.7249
64.1739,112.7806
64.1757,112.7840
64.2068,112.8388
64.2090,112.8424
64.2419,112.8961
64.2439,112.8994
64.2784,112.9521
64.2807,112.9554
64.3169,113.0070
64.3193,113.0103
64.3571,113.0607
64.3595,113.0638
64.3988,113.1130
64.4014,113.1162
64.4423,113.1641
64.4449,113.1670
64.4873,113.2137
64.4901,113.2167
64.5339,113.2619
64.5366,113.2646
64.5818,113.3085
64.5848,113.3113
64.6314,113.3537
64.6344,113.3564
64.6823,113.3973
64.6854,113.3998
64.7346,113.4392
64.7377,113.4416
64.7881,113.4795
64.7914,113.4819
64.8429,113.5181
64.8462,113.5204
64.8989,113.5550
64.9023,113.5571
64.9560,113.5900
64.9594,113.5920
65.0141,113.6232
65.0176,113.6251
65.0733,113.6546
65.0769,113.6565
65.1335,113.6842
65.1371,113.6859
65.1945,113.7118
65.1984,113.7134
65.2567,113.7374
65.2600,113.7388
65.3189,113.7611
65.3230,113.7625
65.3826,113.7828
65.3863,113.7840
65.4466,113.8025
65.4504,113.8036
65.5112,113.8202
65.5151,113.8212
65.5763,113.8358
65.5802,113.8367
65.6420,113.8494
65.6458,113.8501
65.7078,113.8609
65.7119,113.8616
65.7743,113.8704
65.7783,113.8709
65.8410,113.8777
65.8450,113.8780
65.9078,113.8828
65.9117,113.8831
65.9746,113.8860
65.9785,113.8861
66.0381,113.8870
66.0462,113.8863
66.0530,113.8868
66.1375,113.8848
66.1426,113.8845
66.2055,113.8805
66.2093,113.8802
66.2720,113.8743
66.2762,113.8739
66.3387,113.8659
66.3424,113.8654
66.4046,113.8556
66.4088,113.8548
66.4707,113.8429
66.4745,113.8421
66.5360,113.8283
66.5399,113.8274
66.6009,113.8117
66.6047,113.8106
66.6652,113.7930
66.6690,113.7919
66.7289,113.7724
66.7328,113.7710
66.7920,113.7496
66.7957,113.7482
66.8543,113.7249
66.8580,113.7234
66.9158,113.6983
66.9194,113.6967
66.9764,113.6698
66.9800,113.6680
67.0360,113.6394
67.0396,113.6375
67.0948,113.6070
67.0981,113.6051
67.1523,113.5730
67.1559,113.5707
67.2090,113.5368
67.2122,113.5348
67.2643,113.4993
67.2676,113.4969
67.3185,113.4598
67.3217,113.4574
67.3714,113.4187
67.3744,113.4163
67.4229,113.3761
67.4261,113.3734
67.4733,113.3316
67.4762,113.3289
67.5220,113.2857
67.5250,113.2828
67.5694,113.2381
67.5720,113.2354
67.6151,113.1894
67.6180,113.1863
67.6595,113.1389
67.6619,113.1360
67.7020,113.0874
67.7046,113.0842
67.7431,113.0343
67.7454,113.0311
67.7823,112.9801
67.7848,112.9766
67.8200,112.9243
67.8220,112.9212
67.8556,112.8680
67.8577,112.8646
67.8897,112.8102
67.8917,112.8065
67.9218,112.7512
67.9236,112.7479
67.9521,112.6917
67.9539,112.6879
67.9805,112.6308
67.9821,112.6274
68.0070,112.5695
68.0085,112.5657
68.0315,112.5071
68.0330,112.5032
68.0541,112.4438
68.0553,112.4402
68.0746,112.3802
68.0758,112.3762
68.0931,112.3157
68.0941,112.3120
68.1096,112.2509
68.1106,112.2469
68.1241,112.1853
68.1249,112.1813
68.1364,112.1194
68.1370,112.1157
68.1467,112.0534
68.1473,112.0492
68.1549,111.9867
68.1553,111.9829
68.1610,111.9202
68.1613,111.9162
68.1650,111.8533
68.1652,111.8492
68.1669,111.7862
68.1669,111.7822
68.1666,111.7192
68.1665,111.7152
68.1642,111.6522
68.1640,111.6483
68.1598,111.5854
68.1595,111.5814
68.1533,111.5188
68.1528,111.5148
68.1446,111.4523
68.1440,111.4482
68.1338,111.3860
68.1332,111.3823
72.3650,111.3823
72.3650,112.1377
72.5124,112.8786
72.8015,113.5766
73.2212,114.2047
73.7553,114.7388
74.3834,115.1585
75.0814,115.4476
75.8223,115.5950
76.5777,115.5950
77.3186,115.4476
78.0166,115.1585
78.6447,114.7388
79.1788,114.2047
79.5985,113.5766
79.8876,112.8786
80.0350,112.1377
80.0350,111.3823
79.8876,110.6414
79.5985,109.9434
79.1788,109.3153
78.6447,108.7812
78.0166,108.3615
77.3186,108.0724
76.5777,107.9250
75.8223,107.9250
75.0814,108.0724
74.3834,108.3615
73.7553,108.7812
73.2212,109.3153
72.8015,109.9434
72.5124,110.6414
72.3650,111.3823
68.1332,111.3823
68.1331,111.3822
68.1210,111.3204
68.1202,111.3166
68.1062,111.2552
68.1052,111.2512
68.0892,111.1902
68.0882,111.1863
68.0703,111.1259
68.0691,111.1221
68.0493,111.0623
68.0480,111.0587
68.0264,110.9995
68.0249,110.9956
68.0014,110.9372
67.9998,110.9334
67.9744,110.8757
67.9729,110.8723
67.9458,110.8154
67.9439,110.8117
67.9150,110.7558
67.9131,110.7523
67.8824,110.6972
67.8804,110.6937
67.8480,110.6397
67.8459,110.6363
67.8118,110.5833
67.8096,110.5800
67.7739,110.5281
67.7717,110.5249
67.7344,110.4741
67.7318,110.4707
67.6928,110.4212
67.6904,110.4183
67.6500,110.3700
67.6473,110.3669
67.6053,110.3199
67.6026,110.3169
67.5592,110.2713
67.5564,110.2685
67.5115,110.2242
67.5086,110.2214
67.4624,110.1786
67.4595,110.1761
67.4120,110.1347
67.4089,110.1320
67.3601,110.0922
67.3569,110.0897
67.3068,110.0514
67.3036,110.0490
67.2524,110.0124
67.2492,110.0102
67.1968,109.9751
67.1934,109.9729
67.1400,109.9395
67.1364,109.9373
67.0819,109.9057
67.0787,109.9039
67.0233,109.8739
67.0197,109.8720
66.9634,109.8438
66.9596,109.8421
66.9023,109.8157
66.8986,109.8140
66.8406,109.7895
66.8372,109.7881
66.7785,109.7653
66.7746,109.7639
66.7151,109.7430
66.7113,109.7417
66.6513,109.7227
66.6474,109.7216
66.5867,109.7045
66.5828,109.7034
66.5217,109.6883
66.5180,109.6875
66.4564,109.6742
66.4524,109.6734
66.3904,109.6621
66.3864,109.6614
66.3241,109.6521
66.3202,109.6516
66.2576,109.6442
66.2536,109.6438
66.1908,109.6384
66.1868,109.6381
66.1239,109.6347
66.1200,109.6345
66.0570,109.6330
66.0528,109.6330
65.9898,109.6336
65.9860,109.6337
65.9231,109.6362
65.9190,109.6364
65.8562,109.6409
65.8522,109.6413
65.7895,109.6478
65.7855,109.6483
65.7231,109.6568
65.7193,109.6573
65.6571,109.6677
65.6530,109.6685
65.5912,109.6809
65.5873,109.6817
65.5260,109.6960
65.5221,109.6970
65.4612,109.7133
65.4575,109.7144
65.3972,109.7325
65.3932,109.7337
65.3334,109.7538
65.3297,109.7551
65.2707,109.7770
65.2671,109.7784
65.2087,109.8021
65.2048,109.8038
65.1473,109.8294
65.1438,109.8310
65.0870,109.8584
65.0833,109.8603
65.0275,109.8895
65.0241,109.8913
64.9692,109.9222
64.9658,109.9242
64.9119,109.9568
64.9085,109.9589
64.8556,109.9932
64.8521,109.9956
64.8004,110.0316
64.7974,110.0338
64.7468,110.0713
64.7435,110.0738
64.6941,110.1130
64.6910,110.1155
64.6429,110.1562
64.6400,110.1588
64.5932,110.2009
64.5900,110.2038
64.5446,110.2475
64.5420,110.2501
64.4979,110.2951
64.4950,110.2981
64.4524,110.3445
64.4499,110.3474
64.4087,110.3951
64.4060,110.3983
64.3664,110.4473
64.3639,110.4504
64.3259,110.5006
64.3237,110.5038
64.2872,110.5552
64.2848,110.5585
64.2500,110.6110
64.2478,110.6145
64.2147,110.6681
64.2128,110.6713
64.1813,110.7259
64.1793,110.7296
64.1496,110.7852
64.1478,110.7887
64.1199,110.8451
64.1182,110.8486
64.0920,110.9059
64.0903,110.9098
64.0660,110.9680
64.0646,110.9715
64.0421,111.0303
64.0407,111.0341
64.0201,111.0936
64.0189,111.0973
64.0001,111.1575
63.9989,111.1615
63.9821,111.2222
63.9811,111.2261
63.9662,111.2873
63.9653,111.2911
63.9523,111.3528
63.9516,111.3568
63.9406,111.4188
63.9399,111.4227
63.9308,111.4851
63.9303,111.4891
63.9232,111.5517
63.9228,111.5557
63.9177,111.6185
63.9175,111.6225
63.9144,111.6854
63.9142,111.6893
63.9130,111.7523
63.9130,111.7563
59.7150,111.7563
59.7150,111.3823
59.5676,110.6414
59.2785,109.9434
58.8588,109.3153
58.3247,108.7812
57.6966,108.3615
56.9986,108.0724
56.2577,107.9250
55.5023,107.9250
54.7614,108.0724
54.0634,108.3615
53.4353,108.7812
52.9012,109.3153
52.4815,109.9434
52.1924,110.6414
52.0450,111.3823
39.3950,111.3823
39.2476,110.6414
38.9585,109.9434
38.5388,109.3153
38.0047,108.7812
37.3766,108.3615
36.6786,108.0724
35.9377,107.9250
35.1823,107.9250
34.4414,108.0724
33.7434,108.3615
33.1153,108.7812
32.5812,109.3153
32.1615,109.9434
31.8724,110.6414
31.7250,111.3823
26.0950,111.3823
26.0950,104.1363
41.0530,104.1363
41.0538,104.1993
41.0539,104.2033
41.0567,104.2662
41.0570,104.2703
41.0618,104.3331
41.0621,104.3371
41.0689,104.3998
41.0694,104.4036
41.0781,104.4660
41.0787,104.4701
41.0894,104.5322
41.0902,104.5362
41.1029,104.5979
41.1038,104.6017
41.1184,104.6630
41.1193,104.6669
41.1358,104.7277
41.1369,104.7315
41.1553,104.7917
41.1566,104.7955
41.1769,104.8552
41.1783,104.8591
41.2005,104.9180
41.2019,104.9215
41.2259,104.9798
41.2274,104.9835
41.2532,105.0410
41.2550,105.0448
41.2827,105.1014
41.2845,105.1049
41.3139,105.1606
41.3157,105.1640
41.3468,105.2188
41.3490,105.2224
41.3819,105.2761
41.3839,105.2794
41.4184,105.3321
41.4207,105.3354
41.4569,105.3870
41.4593,105.3903
41.4971,105.4407
41.4995,105.4438
41.5388,105.4930
41.5414,105.4962
41.5823,105.5441
41.5849,105.5470
41.6273,105.5937
41.6301,105.5967
41.6739,105.6419
41.6766,105.6446
41.7218,105.6885
41.7248,105.6913
41.7714,105.7337
41.7744,105.7364
41.8223,105.7773
41.8254,105.7798
41.8746,105.8192
41.8777,105.8216
41.9281,105.8595
41.9314,105.8619
41.9829,105.8981
41.9862,105.9004
42.0389,105.9350
42.0423,105.9371
42.0960,105.9700
42.0994,105.9720
42.1541,106.0032
42.1576,106.0051
42.2133,106.0346
42.2169,106.0365
42.2735,106.0642
42.2771,106.0659
42.3345,106.0918
42.3384,106.0934
42.3967,106.1174
42.4000,106.1188
42.4589,106.1411
42.4630,106.1425
42.5226,106.1628
42.5262,106.1640
42.5865,106.1825
42.5904,106.1836
42.6512,106.2002
42.6551,106.2012
42.7163,106.2158
42.7202,106.2167
42.7820,106.2294
42.7858,106.2301
42.8478,106.2409
42.8519,106.2416
42.9143,106.2504
42.9183,106.2509
42.9810,106.2577
42.9850,106.2580
43.0478,106.2628
43.0517,106.2631
43.1146,106.2660
43.1188,106.2661
43.1884,106.2670
43.1951,106.2664
43.2037,106.2669
43.2782,106.2647
43.2826,106.2645
43.3455,106.2605
43.3493,106.2602
43.4120,106.2543
43.4162,106.2539
43.4787,106.2459
43.4824,106.2454
43.5446,106.2356
43.5488,106.2348
43.6107,106.2229
43.6145,106.2221
43.6760,106.2083
43.6799,106.2074
43.7409,106.1917
43.7447,106.1906
43.8052,106.1730
43.8090,106.1719
43.8689,106.1524
43.8728,106.1510
43.9320,106.1296
43.9357,106.1282
43.9943,106.1049
43.9980,106.1034
44.0558,106.0783
44.0594,106.0767
44.1164,106.0498
44.1200,106.0480
44.1760,106.0194
44.1796,106.0175
44.2348,105.9870
44.2381,105.9851
44.2923,105.9530
44.2959,105.9507
44.3490,105.9168
44.3522,105.9148
44.4043,105.8793
44.4076,105.8769
44.4585,105.8398
44.4617,105.8374
44.5114,105.7987
44.5144,105.7963
44.5629,105.7561
44.5661,105.7534
44.6133,105.7116
44.6162,105.7089
44.6620,105.6657
44.6650,105.6628
44.7094,105.6181
44.7120,105.6154
44.7551,105.5694
44.7580,105.5663
44.7995,105.5189
44.8019,105.5160
44.8420,105.4674
44.8446,105.4642
44.8831,105.4143
44.8854,105.4111
44.9223,105.3601
44.9248,105.3566
44.9600,105.3043
44.9620,105.3012
44.9956,105.2480
44.9977,105.2446
45.0297,105.1902
45.0317,105.1865
45.0618,105.1312
45.0636,105.1279
45.0921,105.0717
45.0939,105.0679
45.1205,105.0108
45.1221,105.0074
45.1470,104.9495
45.1485,104.9457
45.1715,104.8871
45.1730,104.8832
45.1941,104.8238
45.1953,104.8202
45.2146,104.7602
45.2158,104.7562
45.2331,104.6957
45.2341,104.6920
45.2496,104.6309
45.2506,104.6269
45.2641,104.5653
45.2649,104.5613
45.2764,104.4994
45.2770,104.4957
45.2867,104.4334
45.2873,104.4292
45.2949,104.3667
45.2953,104.3629
45.3010,104.3002
45.3013,104.2962
45.3050,104.2333
45.3052,104.2292
45.3069,104.1662
45.3069,104.1622
45.3066,104.0992
45.3065,104.0952
45.3042,104.0322
45.3040,104.0283
45.2998,103.9654
45.2995,103.9614
45.2933,103.8988
45.2928,103.8948
45.2846,103.8323
45.2840,103.8282
45.2738,103.7660
45.2731,103.7622
45.2610,103.7004
45.2602,103.6966
45.2462,103.6352
45.2452,103.6312
45.2292,103.5702
45.2282,103.5663
45.2103,103.5059
45.2091,103.5021
45.1893,103.4423
45.1880,103.4387
45.1664,103.3795
45.1649,103.3756
45.1414,103.3172
45.1398,103.3134
45.1144,103.2557
45.1129,103.2523
45.0858,103.1954
45.0839,103.1917
45.0550,103.1358
45.0531,103.1323
45.0224,103.0772
45.0204,103.0737
44.9880,103.0197
44.9859,103.0163
44.9518,102.9633
44.9496,102.9600
44.9139,102.9081
44.9117,102.9049
44.8744,102.8541
44.8718,102.8507
44.8328,102.8012
44.8304,102.7983
44.7900,102.7500
44.7873,102.7469
44.7453,102.6999
44.7426,102.6969
44.6992,102.6513
44.6964,102.6485
44.6515,102.6042
44.6486,102.6014
44.6024,102.5586
44.5995,102.5561
44.5520,102.5147
44.5489,102.5120
44.5001,102.4722
44.4969,102.4697
44.4468,102.4314
44.4436,102.4290
44.3924,102.3924
44.3892,102.3902
44.3368,102.3551
44.3334,102.3529
44.2800,102.3195
44.2764,102.3173
44.2219,102.2857
44.2187,102.2839
44.1633,102.2539
44.1597,102.2520
44.1034,102.2238
44.0996,102.2221
44.0423,102.1957
44.0386,102.1940
43.9806,102.1695
43.9772,102.1681
43.9185,102.1453
43.9146,102.1439
43.8551,102.1230
43.8513,102.1217
43.7913,102.1027
43.7874,102.1016
43.7267,102.0845
43.7228,102.0834
43.6617,102.0683
43.6580,102.0675
43.5964,102.0542
43.5924,102.0534
43.5304,102.0421
43.5264,102.0414
43.4641,102.0321
43.4602,102.0316
43.3976,102.0242
43.3936,102.0238
43.3308,102.0184
43.3268,102.0181
43.2639,102.0147
43.2600,102.0145
43.1970,102.0130
43.1928,102.0130
43.1298,102.0136
43.1260,102.0137
43.0631,102.0162
43.0590,102.0164
42.9962,102.0209
42.9922,102.0213
42.9295,102.0278
42.9255,102.0283
42.8631,102.0368
42.8593,102.0373
42.7971,102.0477
42.7930,102.0485
42.7312,102.0609
42.7273,102.0617
42.6660,102.0760
42.6621,102.0770
42.6012,102.0933
42.5975,102.0944
42.5372,102.1125
42.5332,102.1137
42.4734,102.1338
42.4697,102.1351
42.4107,102.1570
42.4071,102.1584
42.3487,102.1821
42.3448,102.1838
42.2873,102.2094
42.2838,102.2110
42.2270,102.2384
42.2233,102.2403
42.1675,102.2695
42.1641,102.2713
42.1092,102.3022
42.1058,102.3042
42.0519,102.3368
42.0485,102.3389
41.9956,102.3732
41.9921,102.3756
41.9404,102.4116
41.9374,102.4138
41.8868,102.4513
41.8835,102.4538
41.8341,102.4930
41.8310,102.4955
41.7829,102.5362
41.7800,102.5388
41.7332,102.5809
41.7300,102.5838
41.6846,102.6275
41.6820,102.6301
41.6379,102.6751
41.6350,102.6781
41.5924,102.7245
41.5899,102.7274
41.5487,102.7751
41.5460,102.7783
41.5064,102.8273
41.5039,102.8304
41.4659,102.8806
41.4637,102.8838
41.4272,102.9352
41.4248,102.9385
41.3900,102.9910
41.3878,102.9945
41.3547,103.0481
41.3528,103.0513
41.3213,103.1059
41.3193,103.1096
41.2896,103.1652
41.2878,103.1687
41.2599,103.2251
41.2582,103.2286
41.2320,103.2859
41.2303,103.2898
41.2060,103.3480
41.2046,103.3515
41.1821,103.4103
41.1807,103.4141
41.1601,103.4736
41.1589,103.4773
41.1401,103.5375
41.1389,103.5415
41.1221,103.6022
41.1211,103.6061
41.1062,103.6673
41.1053,103.6711
41.0923,103.7328
41.0916,103.7368
41.0806,103.7988
41.0799,103.8027
41.0708,103.8651
41.0703,103.8691
41.0632,103.9317
41.0628,103.9357
41.0577,103.9985
41.0575,104.0025
41.0544,104.0654
41.0542,104.0693
41.0530,104.1323
41.0530,104.1363
26.0950,104.1363
26.0950,91.0623
31.7250,91.0623
31.7250,91.8177
31.8724,92.5586
32.1615,93.2566
32.5812,93.8847
33.1153,94.4188
33.7434,94.8385
34.4414,95.1276
35.1823,95.2750
35.9377,95.2750
36.6786,95.1276
37.3766,94.8385
38.0047,94.4188
38.5388,93.8847
38.9585,93.2566
39.2476,92.5586
39.3950,91.8177
39.3950,91.0623
46.9650,91.0623
46.9650,91.8177
47.1124,92.5586
47.4015,93.2566
47.8212,93.8847
48.3553,94.4188
48.9834,94.8385
49.6814,95.1276
50.4223,95.2750
51.1777,95.2750
51.9186,95.1276
52.6166,94.8385
53.2447,94.4188
53.7788,93.8847
54.1985,93.2566
54.4876,92.5586
54.6350,91.8177
54.6350,91.0623
57.1250,91.0623
57.1250,91.8177
57.2724,92.5586
57.5615,93.2566
57.9812,93.8847
58.5153,94.4188
59.1434,94.8385
59.8414,95.1276
60.5823,95.2750
61.3377,95.2750
62.0786,95.1276
62.7766,94.8385
63.4047,94.4188
63.9388,93.8847
64.3585,93.2566
64.6476,92.5586
64.7950,91.8177
64.7950,91.0623
72.3650,91.0623
72.3650,91.8177
72.5124,92.5586
72.8015,93.2566
73.2212,93.8847
73.7553,94.4188
74.3834,94.8385
75.0814,95.1276
75.8223,95.2750
76.5777,95.2750
77.3186,95.1276
78.0166,94.8385
78.6447,94.4188
79.1788,93.8847
79.5985,93.2566
79.8876,92.5586
80.0350,91.8177
80.0350,91.0623
79.8876,90.3214
79.5985,89.6234
79.1788,88.9953
78.6447,88.4612
78.0166,88.0415
77.3186,87.7524
76.5777,87.6050
75.8223,87.6050
75.0814,87.7524
74.3834,88.0415
73.7553,88.4612
73.2212,88.9953
72.8015,89.6234
72.5124,90.3214
72.3650,91.0623
64.7950,91.0623
64.6476,90.3214
64.3585,89.6234
63.9388,88.9953
63.4047,88.4612
62.7766,88.0415
62.0786,87.7524
61.3377,87.6050
60.5823,87.6050
59.8414,87.7524
59.1434,88.0415
58.5153,88.4612
57.9812,88.9953
57.5615,89.6234
57.2724,90.3214
57.1250,91.0623
54.6350,91.0623
54.4876,90.3214
54.1985,89.6234
53.7788,88.9953
53.2447,88.4612
52.6166,88.0415
51.9186,87.7524
51.1777,87.6050
50.4223,87.6050
49.6814,87.7524
48.9834,88.0415
48.3553,88.4612
47.8212,88.9953
47.4015,89.6234
47.1124,90.3214
46.9650,91.0623
39.3950,91.0623
39.2476,90.3214
38.9585,89.6234
38.5388,88.9953
38.0047,88.4612
37.3766,88.0415
36.6786,87.7524
35.9377,87.6050
35.1823,87.6050
34.4414,87.7524
33.7434,88.0415
33.1153,88.4612
32.5812,88.9953
32.1615,89.6234
31.8724,90.3214
31.7250,91.0623
26.0950,91.0623
26.0950,70.7423
31.7250,70.7423
31.7250,71.4977
31.8724,72.2386
32.1615,72.9366
32.5812,73.5647
33.1153,74.0988
33.7434,74.5185
34.4414,74.8076
35.1823,74.9550
35.9377,74.9550
36.6786,74.8076
37.3766,74.5185
38.0047,74.0988
38.5388,73.5647
38.9585,72.9366
39.2476,72.2386
39.3950,71.4977
39.3950,70.7423
52.0450,70.7423
52.0450,71.4977
52.1924,72.2386
52.4815,72.9366
52.9012,73.5647
53.4353,74.0988
54.0634,74.5185
54.7614,74.8076
55.5023,74.9550
56.2577,74.9550
56.9986,74.8076
57.6966,74.5185
58.3247,74.0988
58.8588,73.5647
59.2785,72.9366
59.5676,72.2386
59.7150,71.4977
59.7150,71.1163
63.9130,71.1163
63.9138,71.1793
63.9139,71.1833
63.9167,71.2462
63.9170,71.2503
63.9218,71.3131
63.9221,71.3171
63.9289,71.3798
63.9294,71.3836
63.9381,71.4460
63.9387,71.4501
63.9494,71.5122
63.9502,71.5162
63.9629,71.5779
63.9638,71.5817
63.9784,71.6430
63.9793,71.6469
63.9958,71.7077
63.9969,71.7115
64.0153,71.7717
64.0166,71.7755
64.0369,71.8352
64.0383,71.8391
64.0605,71.8980
64.0619,71.9015
64.0859,71.9598
64.0874,71.9635
64.1132,72.0210
64.1150,72.0248
64.1427,72.0814
64.1445,72.0849
64.1739,72.1406
64.1757,72.1440
64.2068,72.1988
64.2090,72.2024
64.2419,72.2561
64.2439,72.2594
64.2784,72.3121
64.2807,72.3154
64.3169,72.3670
64.3193,72.3703
64.3571,72.4207
64.3595,72.4238
64.3988,72.4730
64.4014,72.4762
64.4423,72.5241
64.4449,72.5270
64.4873,72.5737
64.4901,72.5767
64.5339,72.6219
64.5366,72.6246
64.5818,72.6685
64.5848,72.6713
64.6314,72.7137
64.6344,72.7164
64.6823,72.7573
64.6854,72.7598
64.7346,72.7992
64.7377,72.8016
64.7881,72.8395
64.7914,72.8419
64.8429,72.8781
64.8462,72.8804
64.8989,72.9150
64.9023,72.9171
64.9560,72.9500
64.9594,72.9520
65.0141,72.9832
65.0176,72.9851
65.0733,73.0146
65.0769,73.0165
65.1335,73.0442
65.1371,73.0459
65.1945,73.0718
65.1984,73.0734
65.2567,73.0974
65.2600,73.0988
65.3189,73.1211
65.3230,73.1225
65.3826,73.1428
65.3863,73.1440
65.4466,73.1625
65.4504,73.1636
65.5112,73.1802
65.5151,73.1812
65.5763,73.1958
65.5802,73.1967
65.6420,73.2094
65.6458,73.2101
65.7078,73.2209
65.7119,73.2216
65.7743,73.2304
65.7783,73.2309
65.8410,73.2377
65.8450,73.2380
65.9078,73.2428
65.9117,73.2431
65.9746,73.2460
65.9790,73.2461
66.0586,73.2470
66.0652,73.2463
66.0743,73.2469
66.1388,73.2447
66.1426,73.2445
66.2055,73.2405
66.2093,73.2402
66.2720,73.2343
66.2762,73.2339
66.3387,73.2259
66.3424,73.2254
66.4046,73.2156
66.4088,73.2148
66.4707,73.2029
66.4745,73.2021
66.5360,73.1883
66.5399,73.1874
66.6009,73.1717
66.6047,73.1706
66.6652,73.1530
66.6690,73.1519
66.7289,73.1324
66.7328,73.1310
66.7920,73.1096
66.7957,73.1082
66.8543,73.0849
66.8580,73.0834
66.9158,73.0583
66.9194,73.0567
66.9764,73.0298
66.9800,73.0280
67.0360,72.9994
67.0396,72.9975
67.0948,72.9670
67.0981,72.9651
67.1523,72.9330
67.1559,72.9307
67.2090,72.8968
67.2122,72.8948
67.2643,72.8593
67.2676,72.8569
67.3185,72.8198
67.3217,72.8174
67.3714,72.7787
67.3744,72.7763
67.4229,72.7361
67.4261,72.7334
67.4733,72.6916
67.4762,72.6889
67.5220,72.6457
67.5250,72.6428
67.5694,72.5981
67.5720,72.5954
67.6151,72.5494
67.6180,72.5463
67.6595,72.4989
67.6619,72.4960
67.7020,72.4474
67.7046,72.4442
67.7431,72.3943
67.7454,72.3911
67.7823,72.3401
67.7848,72.3366
67.8200,72.2843
67.8220,72.2812
67.8556,72.2280
67.8577,72.2246
67.8897,72.1702
67.8917,72.1665
67.9218,72.1112
67.9236,72.1079
67.9521,72.0517
67.9539,72.0479
67.9805,71.9908
67.9821,71.9874
68.0070,71.9295
68.0085,71.9257
68.0315,71.8671
68.0330,71.8632
68.0541,71.8038
68.0553,71.8002
68.0746,71.7402
68.0758,71.7362
68.0931,71.6757
68.0941,71.6720
68.1096,71.6109
68.1106,71.6069
68.1241,71.5453
68.1249,71.5413
68.1364,71.4794
68.1370,71.4757
68.1467,71.4134
68.1473,71.4092
68.1549,71.3467
68.1553,71.3429
68.1610,71.2802
68.1613,71.2762
68.1650,71.2133
68.1652,71.2092
68.1669,71.1462
68.1669,71.1422
68.1666,71.0792
68.1665,71.0752
68.1642,71.0122
68.1640,71.0083
68.1598,70.9454
68.1595,70.9414
68.1533,70.8788
68.1528,70.8748
68.1446,70.8123
68.1440,70.8082
68.1338,70.7460
68.1332,70.7423
72.3650,70.7423
72.3650,71.4977
72.5124,72.2386
72.8015,72.9366
73.2212,73.5647
73.7553,74.0988
74.3834,74.5185
75.0814,74.8076
75.8223,74.9550
76.5777,74.9550
77.3186,74.8076
78.0166,74.5185
78.6447,74.0988
79.1788,73.5647
79.5985,72.9366
79.8876,72.2386
80.0350,71.4977
80.0350,70.7423
79.8876,70.0014
79.5985,69.3034
79.1788,68.6753
78.6447,68.1412
78.0166,67.7215
77.3186,67.4324
76.5777,67.2850
75.8223,67.2850
75.0814,67.4324
74.3834,67.7215
73.7553,68.1412
73.2212,68.6753
72.8015,69.3034
72.5124,70.0014
72.3650,70.7423
68.1332,70.7423
68.1331,70.7422
68.1210,70.6804
68.1202,70.6766
68.1062,70.6152
68.1052,70.6112
68.0892,70.5502
68.0882,70.5463
68.0703,70.4859
68.0691,70.4821
68.0493,70.4223
68.0480,70.4187
68.0264,70.3595
68.0249,70.3556
68.0014,70.2972
67.9998,70.2934
67.9744,70.2357
67.9729,70.2323
67.9458,70.1754
67.9439,70.1717
67.9150,70.1158
67.9131,70.1123
67.8824,70.0572
67.8804,70.0537
67.8480,69.9997
67.8459,69.9963
67.8118,69.9433
67.8096,69.9400
67.7739,69.8881
67.7717,69.8849
67.7344,69.8341
67.7318,69.8307
67.6928,69.7812
67.6904,69.7783
67.6500,69.7300
67.6473,69.7269
67.6053,69.6799
67.6026,69.6769
67.5592,69.6313
67.5564,69.6285
67.5115,69.5842
67.5086,69.5814
67.4624,69.5386
67.4595,69.5361
67.4120,69.4947
67.4089,69.4920
67.3601,69.4522
67.3569,69.4497
67.3068,69.4114
67.3036,69.4090
67.2524,69.3724
67.2492,69.3702
67.1968,69.3351
67.1934,69.3329
67.1400,69.2995
67.1364,69.2973
67.0819,69.2657
67.0787,69.2639
67.0233,69.2339
67.0197,69.2320
66.9634,69.2038
66.9596,69.2021
66.9023,69.1757
66.8986,69.1740
66.8406,69.1495
66.8372,69.1481
66.7785,69.1253
66.7746,69.1239
66.7151,69.1030
66.7113,69.1017
66.6513,69.0827
66.6474,69.0816
66.5867,69.0645
66.5828,69.0634
66.5217,69.0483
66.5180,69.0475
66.4564,69.0342
66.4524,69.0334
66.3904,69.0221
66.3864,69.0214
66.3241,69.0121
66.3202,69.0116
66.2576,69.0042
66.2536,69.0038
66.1908,68.9984
66.1868,68.9981
66.1239,68.9947
66.1200,68.9945
66.0570,68.9930
66.0528,68.9930
65.9898,68.9936
65.9860,68.9937
65.9231,68.9962
65.9190,68.9964
65.8562,69.0009
65.8522,69.0013
65.7895,69.0078
65.7855,69.0083
65.7231,69.0168
65.7193,69.0173
65.6571,69.0277
65.6530,69.0285
65.5912,69.0409
65.5873,69.0417
65.5260,69.0560
65.5221,69.0570
65.4612,69.0733
65.4575,69.0744
65.3972,69.0925
65.3932,69.0937
65.3334,69.1138
65.3297,69.1151
65.2707,69.1370
65.2671,69.1384
65.2087,69.1621
65.2048,69.1638
65.1473,69.1894
65.1438,69.1910
65.0870,69.2184
65.0833,69.2203
65.0275,69.2495
65.0241,69.2513
64.9692,69.2822
64.9658,69.2842
64.9119,69.3168
64.9085,69.3189
64.8556,69.3532
64.8521,69.3556
64.8004,69.3916
64.7974,69.3938
64.7468,69.4313
64.7435,69.4338
64.6941,69.4730
64.6910,69.4755
64.6429,69.5162
64.6400,69.5188
64.5932,69.5609
64.5900,69.5638
64.5446,69.6075
64.5420,69.6101
64.4979,69.6551
64.4950,69.6581
64.4524,69.7045
64.4499,69.7074
64.4087,69.7551
64.4060,69.7583
64.3664,69.8073
64.3639,69.8104
64.3259,69.8606
64.3237,69.8638
64.2872,69.9152
64.2848,69.9185
64.2500,69.9710
64.2478,69.9745
64.2147,70.0281
64.2128,70.0313
64.1813,70.0859
64.1793,70.0896
64.1496,70.1452
64.1478,70.1487
64.1199,70.2051
64.1182,70.2086
64.0920,70.2659
64.0903,70.2698
64.0660,70.3280
64.0646,70.3315
64.0421,70.3903
64.0407,70.3941
64.0201,70.4536
64.0189,70.4573
64.0001,70.5175
63.9989,70.5215
63.9821,70.5822
63.9811,70.5861
63.9662,70.6473
63.9653,70.6511
63.9523,70.7128
63.9516,70.7168
63.9406,70.7788
63.9399,70.7827
63.9308,70.8451
63.9303,70.8491
63.9232,70.9117
63.9228,70.9157
63.9177,70.9785
63.9175,70.9825
63.9144,71.0454
63.9142,71.0493
63.9130,71.1123
63.9130,71.1163
59.7150,71.1163
59.7150,70.7423
59.5676,70.0014
59.2785,69.3034
58.8588,68.6753
58.3247,68.1412
57.6966,67.7215
56.9986,67.4324
56.2577,67.2850
55.5023,67.2850
54.7614,67.4324
54.0634,67.7215
53.4353,68.1412
52.9012,68.6753
52.4815,69.3034
52.1924,70.0014
52.0450,70.7423
39.3950,70.7423
39.2476,70.0014
38.9585,69.3034
38.5388,68.6753
38.0047,68.1412
37.3766,67.7215
36.6786,67.4324
35.9377,67.2850
35.1823,67.2850
34.4414,67.4324
33.7434,67.7215
33.1153,68.1412
32.5812,68.6753
32.1615,69.3034
31.8724,70.0014
31.7250,70.7423
26.0950,70.7423
26.0950,50.4223
31.7250,50.4223
31.7250,51.1777
31.8724,51.9186
32.1615,52.6166
32.5812,53.2447
33.1153,53.7788
33.7434,54.1985
34.4414,54.4876
35.1823,54.6350
35.9377,54.6350
36.6786,54.4876
37.3766,54.1985
38.0047,53.7788
38.5388,53.2447
38.9585,52.6166
39.2476,51.9186
39.3950,51.1777
39.3950,50.4223
39.3852,50.3730
51.5450,50.3730
51.5450,51.2270
51.7116,52.0645
52.0384,52.8534
52.5128,53.5634
53.1166,54.1672
53.8266,54.6416
54.6155,54.9684
55.4530,55.1350
56.3070,55.1350
57.1445,54.9684
57.9334,54.6416
58.6434,54.1672
59.2472,53.5634
59.7216,52.8534
60.0484,52.0645
60.2150,51.2270
60.2150,50.3730
71.8650,50.3730
71.8650,51.2270
72.0316,52.0645
72.3584,52.8534
72.8328,53.5634
73.4366,54.1672
74.1466,54.6416
74.9355,54.9684
75.7730,55.1350
76.6270,55.1350
77.4645,54.9684
78.2534,54.6416
78.9634,54.1672
79.5672,53.5634
80.0416,52.8534
80.3684,52.0645
80.5350,51.2270
80.5350,50.3730
80.3684,49.5355
80.0416,48.7466
79.5672,48.0366
78.9634,47.4328
78.2534,46.9584
77.4645,46.6316
76.6270,46.4650
75.7730,46.4650
74.9355,46.6316
74.1466,46.9584
73.4366,47.4328
72.8328,48.0366
72.3584,48.7466
72.0316,49.5355
71.8650,50.3730
60.2150,50.3730
60.0484,49.5355
59.7216,48.7466
59.2472,48.0366
58.6434,47.4328
57.9334,46.9584
57.1445,46.6316
56.3070,46.4650
55.4530,46.4650
54.6155,46.6316
53.8266,46.9584
53.1166,47.4328
52.5128,48.0366
52.0384,48.7466
51.7116,49.5355
51.5450,50.3730
39.3852,50.3730
39.2476,49.6814
38.9585,48.9834
38.5388,48.3553
38.0047,47.8212
37.3766,47.4015
36.6786,47.1124
35.9377,46.9650
35.1823,46.9650
34.4414,47.1124
33.7434,47.4015
33.1153,47.8212
32.5812,48.3553
32.1615,48.9834
31.8724,49.6814
31.7250,50.4223
26.0950,50.4223
26.0950,30.1799
30.6650,30.1799
30.6650,30.6201
30.7509,31.0519
30.9194,31.4587
31.1640,31.8247
31.4753,32.1360
31.8413,32.3806
32.2481,32.5491
32.6799,32.6350
33.1201,32.6350
33.5519,32.5491
33.9587,32.3806
34.3247,32.1360
34.6360,31.8247
34.8806,31.4587
35.0491,31.0519
35.1350,30.6201
35.1350,30.1799
76.3850,30.1799
76.3850,30.6201
76.4709,31.0519
76.6394,31.4587
76.8840,31.8247
77.1953,32.1360
77.5613,32.3806
77.9681,32.5491
78.3999,32.6350
78.8401,32.6350
79.2719,32.5491
79.6787,32.3806
80.0447,32.1360
80.3560,31.8247
80.6006,31.4587
80.7691,31.0519
80.8550,30.6201
80.8550,30.1799
80.7691,29.7481
80.6006,29.3413
80.3560,28.9753
80.0447,28.6640
79.6787,28.4194
79.2719,28.2509
78.8401,28.1650
78.3999,28.1650
77.9681,28.2509
77.5613,28.4194
77.1953,28.6640
76.8840,28.9753
76.6394,29.3413
76.4709,29.7481
76.3850,30.1799
35.1350,30.1799
35.0491,29.7481
34.8806,29.3413
34.6360,28.9753
34.3247,28.6640
33.9587,28.4194
33.5519,28.2509
33.1201,28.1650
32.6799,28.1650
32.2481,28.2509
31.8413,28.4194
31.4753,28.6640
31.1640,28.9753
30.9194,29.3413
30.7509,29.7481
30.6650,30.1799
26.0950,30.1799
26.0950,26.0950
85.3050,26.0950
Z" /> 
</g>
</g>
</g>
<g style="fill:#FFFFFF; fill-opacity:1.0000; 
stroke:#FFFFFF; stroke-width:0.0000; stroke-opacity:1; 
stroke-linecap:round; stroke-linejoin:round;">
<circle cx="32.9000" cy="30.4000" r="0.1750" /> 
</g>
<g style="fill:#FFFFFF; fill-opacity:1.0000; 
stroke:#FFFFFF; stroke-width:0.0212; stroke-opacity:1; 
stroke-linecap:round; stroke-linejoin:round;">
</g>
<g style="fill:#FFFFFF; fill-opacity:1.0000; 
stroke:#FFFFFF; stroke-width:0.0000; stroke-opacity:1; 
stroke-linecap:round; stroke-linejoin:round;">
<circle cx="78.6200" cy="30.4000" r="0.1750" /> 
</g>
<g style="fill:#FFFFFF; fill-opacity:1.0000; 
stroke:#FFFFFF; stroke-width:0.0212; stroke-opacity:1; 
stroke-linecap:round; stroke-linejoin:round;">
</g>
<g style="fill:#FFFFFF; fill-opacity:1.0000; 
stroke:#FFFFFF; stroke-width:0.0000; stroke-opacity:1; 
stroke-linecap:round; stroke-linejoin:round;">
<circle cx="32.9000" cy="153.8000" r="0.1750" /> 
</g>
<g style="fill:#FFFFFF; fill-opacity:1.0000; 
stroke:#FFFFFF; stroke-width:0.0212; stroke-opacity:1; 
stroke-linecap:round; stroke-linejoin:round;">
</g>
<g style="fill:#FFFFFF; fill-opacity:1.0000; 
stroke:#FFFFFF; stroke-width:0.0000; stroke-opacity:1; 
stroke-linecap:round; stroke-linejoin:round;">
<circle cx="78.6200" cy="153.8000" r="0.1750" /> 
</g>
<g style="fill:#FFFFFF; fill-opacity:1.0000; 
stroke:#FFFFFF; stroke-width:0.0212; stroke-opacity:1; 
stroke-linecap:round; stroke-linejoin:round;">
</g>
<g style="fill:#FFFFFF; fill-opacity:1.0000; 
stroke:#FFFFFF; stroke-width:0.0000; stroke-opacity:1; 
stroke-linecap:round; stroke-linejoin:round;">
<circle cx="35.5600" cy="132.0800" r="0.1750" /> 
</g>
<g style="fill:#FFFFFF; fill-opacity:1.0000; 
stroke:#FFFFFF; stroke-width:0.0212; stroke-opacity:1; 
stroke-linecap:round; stroke-linejoin:round;">
</g>
<g style="fill:#FFFFFF; fill-opacity:1.0000; 
stroke:#FFFFFF; stroke-width:0.0000; stroke-opacity:1; 
stroke-linecap:round; stroke-linejoin:round;">
<circle cx="55.8800" cy="132.0800" r="0.1750" /> 
</g>
<g style="fill:#FFFFFF; fill-opacity:1.0000; 
stroke:#FFFFFF; stroke-width:0.0212; stroke-opacity:1; 
stroke-linecap:round; stroke-linejoin:round;">
</g>
<g style="fill:#FFFFFF; fill-opacity:1.0000; 
stroke:#FFFFFF; stroke-width:0.0000; stroke-opacity:1; 
stroke-linecap:round; stroke-linejoin:round;">
<circle cx="76.2000" cy="50.8000" r="0.1750" /> 
</g>
<g style="fill:#FFFFFF; fill-opacity:1.0000; 
stroke:#FFFFFF; stroke-width:0.0212; stroke-opacity:1; 
stroke-linecap:round; stroke-linejoin:round;">
</g>
<g style="fill:#FFFFFF; fill-opacity:1.0000; 
stroke:#FFFFFF; stroke-width:0.0000; stroke-opacity:1; 
stroke-linecap:round; stroke-linejoin:round;">
<circle cx="35.5600" cy="50.8000" r="0.1750" /> 
</g>
<g style="fill:#FFFFFF; fill-opacity:1.0000; 
stroke:#FFFFFF; stroke-width:0.0212; stroke-opacity:1; 
stroke-linecap:round; stroke-linejoin:round;">
</g>
<g style="fill:#FFFFFF; fill-opacity:1.0000; 
stroke:#FFFFFF; stroke-width:0.0000; stroke-opacity:1; 
stroke-linecap:round; stroke-linejoin:round;">
<circle cx="55.8800" cy="50.8000" r="0.1750" /> 
</g>
<g style="fill:#FFFFFF; fill-opacity:1.0000; 
stroke:#FFFFFF; stroke-width:0.0212; stroke-opacity:1; 
stroke-linecap:round; stroke-linejoin:round;">
</g>
<g style="fill:#FFFFFF; fill-opacity:1.0000; 
stroke:#FFFFFF; stroke-width:0.0000; stroke-opacity:1; 
stroke-linecap:round; stroke-linejoin:round;">
<circle cx="76.2000" cy="132.0800" r="0.1750" /> 
</g>
<g style="fill:#FFFFFF; fill-opacity:1.0000; 
stroke:#FFFFFF; stroke-width:0.0212; stroke-opacity:1; 
stroke-linecap:round; stroke-linejoin:round;">
</g>
<g style="fill:#FFFFFF; fill-opacity:1.0000; 
stroke:#FFFFFF; stroke-width:0.0000; stroke-opacity:1; 
stroke-linecap:round; stroke-linejoin:round;">
<circle cx="76.2000" cy="71.1200" r="0.1750" /> 
</g>
<g style="fill:#FFFFFF; fill-opacity:1.0000; 
stroke:#FFFFFF; stroke-width:0.0212; stroke-opacity:1; 
stroke-linecap:round; stroke-linejoin:round;">
</g>
<g style="fill:#FFFFFF; fill-opacity:1.0000; 
stroke:#FFFFFF; stroke-width:0.0000; stroke-opacity:1; 
stroke-linecap:round; stroke-linejoin:round;">
<circle cx="55.8800" cy="71.1200" r="0.1750" /> 
</g>
<g style="fill:#FFFFFF; fill-opacity:1.0000; 
stroke:#FFFFFF; stroke-width:0.0212; stroke-opacity:1; 
stroke-linecap:round; stroke-linejoin:round;">
</g>
<g style="fill:#FFFFFF; fill-opacity:1.0000; 
stroke:#FFFFFF; stroke-width:0.0000; stroke-opacity:1; 
stroke-linecap:round; stroke-linejoin:round;">
<circle cx="35.5600" cy="71.1200" r="0.1750" /> 
</g>
<g style="fill:#FFFFFF; fill-opacity:1.0000; 
stroke:#FFFFFF; stroke-width:0.0212; stroke-opacity:1; 
stroke-linecap:round; stroke-linejoin:round;">
</g>
<g style="fill:#FFFFFF; fill-opacity:1.0000; 
stroke:#FFFFFF; stroke-width:0.0000; stroke-opacity:1; 
stroke-linecap:round; stroke-linejoin:round;">
<circle cx="35.5600" cy="111.7600" r="0.1750" /> 
</g>
<g style="fill:#FFFFFF; fill-opacity:1.0000; 
stroke:#FFFFFF; stroke-width:0.0212; stroke-opacity:1; 
stroke-linecap:round; stroke-linejoin:round;">
</g>
<g style="fill:#FFFFFF; fill-opacity:1.0000; 
stroke:#FFFFFF; stroke-width:0.0000; stroke-opacity:1; 
stroke-linecap:round; stroke-linejoin:round;">
<circle cx="55.8800" cy="111.7600" r="0.1750" /> 
</g>
<g style="fill:#FFFFFF; fill-opacity:1.0000; 
stroke:#FFFFFF; stroke-width:0.0212; stroke-opacity:1; 
stroke-linecap:round; stroke-linejoin:round;">
</g>
<g style="fill:#FFFFFF; fill-opacity:1.0000; 
stroke:#FFFFFF; stroke-width:0.0000; stroke-opacity:1; 
stroke-linecap:round; stroke-linejoin:round;">
<circle cx="76.2000" cy="111.7600" r="0.1750" /> 
</g>
<g style="fill:#FFFFFF; fill-opacity:1.0000; 
stroke:#FFFFFF; stroke-width:0.0212; stroke-opacity:1; 
stroke-linecap:round; stroke-linejoin:round;">
</g>
<g style="fill:#FFFFFF; fill-opacity:1.0000; 
stroke:#FFFFFF; stroke-width:0.0000; stroke-opacity:1; 
stroke-linecap:round; stroke-linejoin:round;">
<circle cx="76.2000" cy="91.4400" r="0.1750" /> 
</g>
<g style="fill:#FFFFFF; fill-opacity:1.0000; 
stroke:#FFFFFF; stroke-width:0.0212; stroke-opacity:1; 
stroke-linecap:round; stroke-linejoin:round;">
</g>
<g style="fill:#FFFFFF; fill-opacity:1.0000; 
stroke:#FFFFFF; stroke-width:0.0000; stroke-opacity:1; 
stroke-linecap:round; stroke-linejoin:round;">
<circle cx="50.8000" cy="91.4400" r="0.1750" /> 
</g>
<g style="fill:#FFFFFF; fill-opacity:1.0000; 
stroke:#FFFFFF; stroke-width:0.0212; stroke-opacity:1; 
stroke-linecap:round; stroke-linejoin:round;">
</g>
<g style="fill:#FFFFFF; fill-opacity:1.0000; 
stroke:#FFFFFF; stroke-width:0.0000; stroke-opacity:1; 
stroke-linecap:round; stroke-linejoin:round;">
<circle cx="60.9600" cy="91.4400" r="0.1750" /> 
</g>
<g style="fill:#FFFFFF; fill-opacity:1.0000; 
stroke:#FFFFFF; stroke-width:0.0212; stroke-opacity:1; 
stroke-linecap:round; stroke-linejoin:round;">
</g>
<g style="fill:#FFFFFF; fill-opacity:1.0000; 
stroke:#FFFFFF; stroke-width:0.0000; stroke-opacity:1; 
stroke-linecap:round; stroke-linejoin:round;">
<circle cx="35.5600" cy="91.4400" r="0.1750" /> 
</g>
<g style="fill:#FFFFFF; fill-opacity:1.0000; 
stroke:#FFFFFF; stroke-width:0.0212; stroke-opacity:1; 
stroke-linecap:round; stroke-linejoin:round;">
</g>
<g style="fill:#000000; fill-opacity:1.0000; 
stroke:#000000; stroke-width:0.0212; stroke-opacity:1; 
stroke-linecap:round; stroke-linejoin:round;">
</g> 
</svg>
