<?xml version="1.0" standalone="no"?>
 <!DOCTYPE svg PUBLIC "-//W3C//DTD SVG 1.1//EN" 
 "http://www.w3.org/Graphics/SVG/1.1/DTD/svg11.dtd"> 
<svg
  xmlns:svg="http://www.w3.org/2000/svg"
  xmlns="http://www.w3.org/2000/svg"
  xmlns:xlink="http://www.w3.org/1999/xlink"
  version="1.1"
  width="297.0022mm" height="210.0072mm" viewBox="0.0000 0.0000 297.0022 210.0072">
<title>SVG Image created as main-F_CrtYd.svg date 2023/11/06 21:16:05 </title>
  <desc>Image generated by PCBNEW </desc>
<g style="fill:#000000; fill-opacity:1.0000;stroke:#000000; stroke-opacity:1.0000;
stroke-linecap:round; stroke-linejoin:round;"
 transform="translate(0 0) scale(1 1)">
</g>
<g style="fill:#000000; fill-opacity:0.0; 
stroke:#000000; stroke-width:0.0000; stroke-opacity:1; 
stroke-linecap:round; stroke-linejoin:round;">
</g>
<g style="fill:#000000; fill-opacity:0.0; 
stroke:#000000; stroke-width:0.0500; stroke-opacity:1; 
stroke-linecap:round; stroke-linejoin:round;">
<path d="M60.9300 97.3160
L63.5300 97.3160
" />
<path d="M63.5300 97.3160
L63.5300 92.7160
" />
<path d="M60.9300 92.7160
L60.9300 97.3160
" />
<path d="M63.5300 92.7160
L60.9300 92.7160
" />
<path d="M48.5440 98.2640
L45.9440 98.2640
" />
<path d="M45.9440 98.2640
L45.9440 102.8640
" />
<path d="M48.5440 102.8640
L48.5440 98.2640
" />
<path d="M45.9440 102.8640
L48.5440 102.8640
" />
<circle cx="28.6820" cy="39.1160" r="2.7500" /> 
<circle cx="35.0320" cy="39.1160" r="2.7500" /> 
<path d="M58.0690 50.8930
L55.4690 50.8930
" />
<path d="M55.4690 50.8930
L55.4690 55.4930
" />
<path d="M58.0690 55.4930
L58.0690 50.8930
" />
<path d="M55.4690 55.4930
L58.0690 55.4930
" />
<path d="M41.5590 55.9730
L38.9590 55.9730
" />
<path d="M38.9590 55.9730
L38.9590 60.5730
" />
<path d="M41.5590 60.5730
L41.5590 55.9730
" />
<path d="M38.9590 60.5730
L41.5590 60.5730
" />
<path d="M63.5300 70.7050
L60.9300 70.7050
" />
<path d="M60.9300 70.7050
L60.9300 75.3050
" />
<path d="M63.5300 75.3050
L63.5300 70.7050
" />
<path d="M60.9300 75.3050
L63.5300 75.3050
" />
<path d="M48.2900 75.7850
L45.6900 75.7850
" />
<path d="M45.6900 75.7850
L45.6900 80.3850
" />
<path d="M48.2900 80.3850
L48.2900 75.7850
" />
<path d="M45.6900 80.3850
L48.2900 80.3850
" />
<path d="M44.5470 97.4430
L47.1470 97.4430
" />
<path d="M47.1470 97.4430
L47.1470 92.8430
" />
<path d="M44.5470 92.8430
L44.5470 97.4430
" />
<path d="M47.1470 92.8430
L44.5470 92.8430
" />
<path d="M32.9230 97.8830
L30.3230 97.8830
" />
<path d="M30.3230 97.8830
L30.3230 102.4830
" />
<path d="M32.9230 102.4830
L32.9230 97.8830
" />
<path d="M30.3230 102.4830
L32.9230 102.4830
" />
<circle cx="27.9400" cy="27.9400" r="2.4500" /> 
<circle cx="63.1600" cy="27.9400" r="2.4500" /> 
<circle cx="63.1600" cy="134.6200" r="2.4500" /> 
<circle cx="27.9400" cy="134.6200" r="2.4500" /> 
<path d="M54.6400 121.3780
L52.0400 121.3780
" />
<path d="M52.0400 121.3780
L52.0400 125.9780
" />
<path d="M54.6400 125.9780
L54.6400 121.3780
" />
<path d="M52.0400 125.9780
L54.6400 125.9780
" />
<path d="M38.8920 126.2040
L36.2920 126.2040
" />
<path d="M36.2920 126.2040
L36.2920 130.8040
" />
<path d="M38.8920 130.8040
L38.8920 126.2040
" />
<path d="M36.2920 130.8040
L38.8920 130.8040
" />
<circle cx="31.4960" cy="129.0480" r="2.7500" /> 
<circle cx="59.4360" cy="128.6378" r="2.7500" /> 
<path d="M54.0300 62.5350
L49.2900 62.5350
" />
<path d="M54.0300 62.5350
L54.0300 69.6350
" />
<path d="M49.2900 69.6350
L49.2900 62.5350
" />
<path d="M49.2900 69.6350
L54.0300 69.6350
" />
<path d="M43.2140 69.1910
L43.2140 66.1910
" />
<path d="M43.2140 66.1910
L30.9540 66.1910
" />
<path d="M30.9540 69.1910
L43.2140 69.1910
" />
<path d="M30.9540 66.1910
L30.9540 69.1910
" />
<path d="M30.0750 56.4810
L27.0750 56.4810
" />
<path d="M27.0750 56.4810
L27.0750 68.7410
" />
<path d="M30.0750 68.7410
L30.0750 56.4810
" />
<path d="M27.0750 68.7410
L30.0750 68.7410
" />
<path d="M43.2140 64.8730
L43.2140 61.8730
" />
<path d="M43.2140 61.8730
L30.9540 61.8730
" />
<path d="M30.9540 64.8730
L43.2140 64.8730
" />
<path d="M30.9540 61.8730
L30.9540 64.8730
" />
<path d="M43.1560 70.1970
L40.1560 70.1970
" />
<path d="M40.1560 70.1970
L40.1560 82.4570
" />
<path d="M43.1560 82.4570
L43.1560 70.1970
" />
<path d="M40.1560 82.4570
L43.1560 82.4570
" />
<path d="M47.1510 90.6540
L47.1510 87.6540
" />
<path d="M47.1510 87.6540
L34.8910 87.6540
" />
<path d="M34.8910 90.6540
L47.1510 90.6540
" />
<path d="M34.8910 87.6540
L34.8910 90.6540
" />
<path d="M41.7590 50.4430
L38.7590 50.4430
" />
<path d="M38.7590 50.4430
L38.7590 55.5330
" />
<path d="M41.7590 55.5330
L41.7590 50.4430
" />
<path d="M38.7590 55.5330
L41.7590 55.5330
" />
<path d="M38.5840 70.1970
L35.5840 70.1970
" />
<path d="M35.5840 70.1970
L35.5840 82.4570
" />
<path d="M38.5840 82.4570
L38.5840 70.1970
" />
<path d="M35.5840 82.4570
L38.5840 82.4570
" />
<path d="M34.0120 70.1970
L31.0120 70.1970
" />
<path d="M31.0120 70.1970
L31.0120 82.4570
" />
<path d="M34.0120 82.4570
L34.0120 70.1970
" />
<path d="M31.0120 82.4570
L34.0120 82.4570
" />
<path d="M63.7300 56.2270
L60.7300 56.2270
" />
<path d="M60.7300 56.2270
L60.7300 68.4870
" />
<path d="M63.7300 68.4870
L63.7300 56.2270
" />
<path d="M60.7300 68.4870
L63.7300 68.4870
" />
<path d="M55.9040 68.4870
L58.9040 68.4870
" />
<path d="M58.9040 68.4870
L58.9040 56.2270
" />
<path d="M55.9040 56.2270
L55.9040 68.4870
" />
<path d="M58.9040 56.2270
L55.9040 56.2270
" />
<path d="M44.2300 107.4180
L44.2300 104.4180
" />
<path d="M44.2300 104.4180
L31.9700 104.4180
" />
<path d="M31.9700 107.4180
L44.2300 107.4180
" />
<path d="M31.9700 104.4180
L31.9700 107.4180
" />
<path d="M59.2160 107.4180
L59.2160 104.4180
" />
<path d="M59.2160 104.4180
L46.9560 104.4180
" />
<path d="M46.9560 107.4180
L59.2160 107.4180
" />
<path d="M46.9560 104.4180
L46.9560 107.4180
" />
<path d="M60.6130 86.3360
L60.6130 83.3360
" />
<path d="M60.6130 83.3360
L48.3530 83.3360
" />
<path d="M48.3530 86.3360
L60.6130 86.3360
" />
<path d="M48.3530 83.3360
L48.3530 86.3360
" />
<path d="M46.9560 108.9900
L46.9560 111.9900
" />
<path d="M46.9560 111.9900
L59.2160 111.9900
" />
<path d="M59.2160 108.9900
L46.9560 108.9900
" />
<path d="M59.2160 111.9900
L59.2160 108.9900
" />
<path d="M31.9700 108.9900
L31.9700 111.9900
" />
<path d="M31.9700 111.9900
L44.2300 111.9900
" />
<path d="M44.2300 108.9900
L31.9700 108.9900
" />
<path d="M44.2300 111.9900
L44.2300 108.9900
" />
<path d="M34.8910 83.3360
L34.8910 86.3360
" />
<path d="M34.8910 86.3360
L47.1510 86.3360
" />
<path d="M47.1510 83.3360
L34.8910 83.3360
" />
<path d="M47.1510 86.3360
L47.1510 83.3360
" />
<path d="M30.4560 112.7420
L27.4560 112.7420
" />
<path d="M27.4560 112.7420
L27.4560 125.0020
" />
<path d="M30.4560 125.0020
L30.4560 112.7420
" />
<path d="M27.4560 125.0020
L30.4560 125.0020
" />
<path d="M63.4760 112.7420
L60.4760 112.7420
" />
<path d="M60.4760 112.7420
L60.4760 125.0020
" />
<path d="M63.4760 125.0020
L63.4760 112.7420
" />
<path d="M60.4760 125.0020
L63.4760 125.0020
" />
<path d="M34.7740 112.7420
L31.7740 112.7420
" />
<path d="M31.7740 112.7420
L31.7740 125.0020
" />
<path d="M34.7740 125.0020
L34.7740 112.7420
" />
<path d="M31.7740 125.0020
L34.7740 125.0020
" />
<path d="M59.1580 112.7420
L56.1580 112.7420
" />
<path d="M56.1580 112.7420
L56.1580 125.0020
" />
<path d="M59.1580 125.0020
L59.1580 112.7420
" />
<path d="M56.1580 125.0020
L59.1580 125.0020
" />
<path d="M36.0920 125.7060
L39.0920 125.7060
" />
<path d="M39.0920 125.7060
L39.0920 120.6160
" />
<path d="M36.0920 120.6160
L36.0920 125.7060
" />
<path d="M39.0920 120.6160
L36.0920 120.6160
" />
<path d="M52.0940 131.5480
L55.0940 131.5480
" />
<path d="M55.0940 131.5480
L55.0940 126.4580
" />
<path d="M52.0940 126.4580
L52.0940 131.5480
" />
<path d="M55.0940 126.4580
L52.0940 126.4580
" />
<path d="M43.5350 50.3430
L43.5350 61.1430
" />
<path d="M43.5350 61.1430
L54.2350 61.1430
" />
<path d="M54.2350 50.3430
L43.5350 50.3430
" />
<path d="M54.2350 61.1430
L54.2350 50.3430
" />
<path d="M49.5040 70.1550
L49.5040 80.9550
" />
<path d="M49.5040 80.9550
L60.2040 80.9550
" />
<path d="M60.2040 70.1550
L49.5040 70.1550
" />
<path d="M60.2040 80.9550
L60.2040 70.1550
" />
<path d="M40.1060 120.5740
L40.1060 131.3740
" />
<path d="M40.1060 131.3740
L50.8060 131.3740
" />
<path d="M50.8060 120.5740
L40.1060 120.5740
" />
<path d="M50.8060 131.3740
L50.8060 120.5740
" />
<path d="M49.5040 92.3800
L49.5040 103.1800
" />
<path d="M49.5040 103.1800
L60.2040 103.1800
" />
<path d="M60.2040 92.3800
L49.5040 92.3800
" />
<path d="M60.2040 103.1800
L60.2040 92.3800
" />
<path d="M33.3750 92.2530
L33.3750 103.0530
" />
<path d="M33.3750 103.0530
L44.0750 103.0530
" />
<path d="M44.0750 92.2530
L33.3750 92.2530
" />
<path d="M44.0750 103.0530
L44.0750 92.2530
" />
<path d="M25.6320 71.8600
L29.1820 71.8600
" />
<path d="M25.6320 108.4600
L25.6320 71.8600
" />
<path d="M29.1820 71.8600
L29.1820 108.4600
" />
<path d="M29.1820 108.4600
L25.6320 108.4600
" />
<g >
</g>
<g >
</g>
<g >
</g>
<g >
</g>
<g >
</g>
<g >
</g>
<g >
</g>
<g >
</g>
<g >
</g>
<g >
</g>
<g >
</g>
<g >
</g>
<g >
</g>
<g >
</g>
<g >
</g>
<g >
</g>
<g >
</g>
<g >
</g>
<g >
</g>
<g >
</g>
<g >
</g>
<g >
</g>
<g >
</g>
<g >
</g>
<g >
</g>
<g >
</g>
<g >
</g>
<g >
</g>
<g >
</g>
<g >
</g>
<g >
</g>
<g >
</g>
<g >
</g>
<g >
</g>
<g >
</g>
<g >
</g>
<g >
</g>
<g >
</g>
<g >
</g>
<g >
</g>
<g >
</g>
<g >
</g>
<g >
</g>
<g >
</g>
<g >
</g>
<g >
</g>
<g >
</g>
<g >
</g>
<g >
</g>
<g >
</g>
<g >
</g>
<g >
</g>
</g> 
</svg>
