<?xml version="1.0" standalone="no"?>
 <!DOCTYPE svg PUBLIC "-//W3C//DTD SVG 1.1//EN" 
 "http://www.w3.org/Graphics/SVG/1.1/DTD/svg11.dtd"> 
<svg
  xmlns:svg="http://www.w3.org/2000/svg"
  xmlns="http://www.w3.org/2000/svg"
  xmlns:xlink="http://www.w3.org/1999/xlink"
  version="1.1"
  width="297.0022mm" height="210.0072mm" viewBox="0.0000 0.0000 297.0022 210.0072">
<title>SVG Image created as main-F_CrtYd.svg date 2023/11/06 07:09:41 </title>
  <desc>Image generated by PCBNEW </desc>
<g style="fill:#000000; fill-opacity:1.0000;stroke:#000000; stroke-opacity:1.0000;
stroke-linecap:round; stroke-linejoin:round;"
 transform="translate(0 0) scale(1 1)">
</g>
<g style="fill:#000000; fill-opacity:0.0; 
stroke:#000000; stroke-width:0.0000; stroke-opacity:1; 
stroke-linecap:round; stroke-linejoin:round;">
</g>
<g style="fill:#000000; fill-opacity:0.0; 
stroke:#000000; stroke-width:0.0500; stroke-opacity:1; 
stroke-linecap:round; stroke-linejoin:round;">
<circle cx="88.5600" cy="53.3400" r="2.4500" /> 
<circle cx="53.3400" cy="156.4400" r="2.4500" /> 
<circle cx="88.5600" cy="156.4400" r="2.4500" /> 
<circle cx="87.6100" cy="65.0240" r="3.4000" /> 
<circle cx="79.9900" cy="65.0240" r="3.4000" /> 
<path d="M70.5780 84.8100
L70.5780 87.9100
" />
<path d="M70.5780 87.9100
L75.1780 87.9100
" />
<path d="M75.1780 84.8100
L70.5780 84.8100
" />
<path d="M75.1780 87.9100
L75.1780 84.8100
" />
<path d="M60.9660 136.1180
L60.9660 139.2180
" />
<path d="M60.9660 139.2180
L65.5660 139.2180
" />
<path d="M65.5660 136.1180
L60.9660 136.1180
" />
<path d="M65.5660 139.2180
L65.5660 136.1180
" />
<path d="M70.5780 119.6080
L70.5780 122.7080
" />
<path d="M70.5780 122.7080
L75.1780 122.7080
" />
<path d="M75.1780 119.6080
L70.5780 119.6080
" />
<path d="M75.1780 122.7080
L75.1780 119.6080
" />
<path d="M60.9260 103.0980
L60.9260 106.1980
" />
<path d="M60.9260 106.1980
L65.5260 106.1980
" />
<path d="M65.5260 103.0980
L60.9260 103.0980
" />
<path d="M65.5260 106.1980
L65.5260 103.0980
" />
<path d="M70.5780 103.0980
L70.5780 106.1980
" />
<path d="M70.5780 106.1980
L75.1780 106.1980
" />
<path d="M75.1780 103.0980
L70.5780 103.0980
" />
<path d="M75.1780 106.1980
L75.1780 103.0980
" />
<path d="M60.9260 119.8620
L60.9260 122.9620
" />
<path d="M60.9260 122.9620
L65.5260 122.9620
" />
<path d="M65.5260 119.8620
L60.9260 119.8620
" />
<path d="M65.5260 122.9620
L65.5260 119.8620
" />
<path d="M73.6260 141.7060
L73.6260 144.8060
" />
<path d="M73.6260 144.8060
L78.2260 144.8060
" />
<path d="M78.2260 141.7060
L73.6260 141.7060
" />
<path d="M78.2260 144.8060
L78.2260 141.7060
" />
<path d="M78.2260 151.9180
L78.2260 148.8180
" />
<path d="M78.2260 148.8180
L73.6260 148.8180
" />
<path d="M73.6260 151.9180
L78.2260 151.9180
" />
<path d="M73.6260 148.8180
L73.6260 151.9180
" />
<path d="M73.6260 72.1100
L73.6260 75.2100
" />
<path d="M73.6260 75.2100
L78.2260 75.2100
" />
<path d="M78.2260 72.1100
L73.6260 72.1100
" />
<path d="M78.2260 75.2100
L78.2260 72.1100
" />
<path d="M78.2260 82.8300
L78.2260 79.7300
" />
<path d="M78.2260 79.7300
L73.6260 79.7300
" />
<path d="M73.6260 82.8300
L78.2260 82.8300
" />
<path d="M73.6260 79.7300
L73.6260 82.8300
" />
<circle cx="53.3400" cy="53.3400" r="2.4500" /> 
<path d="M75.6260 64.5500
L75.6260 62.4500
" />
<path d="M75.6260 62.4500
L68.6460 62.4500
" />
<path d="M68.6460 64.5500
L75.6260 64.5500
" />
<path d="M68.6460 62.4500
L68.6460 64.5500
" />
<path d="M75.6260 68.1060
L75.6260 66.0060
" />
<path d="M75.6260 66.0060
L68.6460 66.0060
" />
<path d="M68.6460 68.1060
L75.6260 68.1060
" />
<path d="M68.6460 66.0060
L68.6460 68.1060
" />
<path d="M54.9300 111.2180
L54.9300 113.3180
" />
<path d="M54.9300 113.3180
L61.9100 113.3180
" />
<path d="M61.9100 111.2180
L54.9300 111.2180
" />
<path d="M61.9100 113.3180
L61.9100 111.2180
" />
<path d="M74.7420 111.2180
L74.7420 113.3180
" />
<path d="M74.7420 113.3180
L81.7220 113.3180
" />
<path d="M81.7220 111.2180
L74.7420 111.2180
" />
<path d="M81.7220 113.3180
L81.7220 111.2180
" />
<path d="M54.9300 107.6620
L54.9300 109.7620
" />
<path d="M54.9300 109.7620
L61.9100 109.7620
" />
<path d="M61.9100 107.6620
L54.9300 107.6620
" />
<path d="M61.9100 109.7620
L61.9100 107.6620
" />
<path d="M74.7420 107.6620
L74.7420 109.7620
" />
<path d="M74.7420 109.7620
L81.7220 109.7620
" />
<path d="M81.7220 107.6620
L74.7420 107.6620
" />
<path d="M81.7220 109.7620
L81.7220 107.6620
" />
<path d="M82.3620 84.8020
L82.3620 86.9020
" />
<path d="M82.3620 86.9020
L89.3420 86.9020
" />
<path d="M89.3420 84.8020
L82.3620 84.8020
" />
<path d="M89.3420 86.9020
L89.3420 84.8020
" />
<path d="M82.3620 145.7620
L82.3620 147.8620
" />
<path d="M82.3620 147.8620
L89.3420 147.8620
" />
<path d="M89.3420 145.7620
L82.3620 145.7620
" />
<path d="M89.3420 147.8620
L89.3420 145.7620
" />
<path d="M82.3620 81.2460
L82.3620 83.3460
" />
<path d="M82.3620 83.3460
L89.3420 83.3460
" />
<path d="M89.3420 81.2460
L82.3620 81.2460
" />
<path d="M89.3420 83.3460
L89.3420 81.2460
" />
<path d="M89.3420 151.9260
L89.3420 149.8260
" />
<path d="M89.3420 149.8260
L82.3620 149.8260
" />
<path d="M82.3620 151.9260
L89.3420 151.9260
" />
<path d="M82.3620 149.8260
L82.3620 151.9260
" />
<path d="M62.9660 72.4785
L62.9660 83.1785
" />
<path d="M62.9660 83.1785
L72.7660 83.1785
" />
<path d="M72.7660 72.4785
L62.9660 72.4785
" />
<path d="M72.7660 83.1785
L72.7660 72.4785
" />
<path d="M62.9660 141.7060
L62.9660 152.4060
" />
<path d="M62.9660 152.4060
L72.7660 152.4060
" />
<path d="M72.7660 141.7060
L62.9660 141.7060
" />
<path d="M72.7660 152.4060
L72.7660 141.7060
" />
<path d="M62.9660 89.7104
L62.9660 100.5104
" />
<path d="M62.9660 100.5104
L73.6660 100.5104
" />
<path d="M73.6660 89.7104
L62.9660 89.7104
" />
<path d="M73.6660 100.5104
L73.6660 89.7104
" />
<path d="M62.9660 124.3740
L62.9660 135.1740
" />
<path d="M62.9660 135.1740
L73.6660 135.1740
" />
<path d="M73.6660 124.3740
L62.9660 124.3740
" />
<path d="M73.6660 135.1740
L73.6660 124.3740
" />
<path d="M62.9660 107.0420
L62.9660 117.8420
" />
<path d="M62.9660 117.8420
L73.6660 117.8420
" />
<path d="M73.6660 107.0420
L62.9660 107.0420
" />
<path d="M73.6660 117.8420
L73.6660 107.0420
" />
<path d="M87.1000 112.5000
L90.6500 112.5000
" />
<path d="M87.1000 121.1500
L87.1000 112.5000
" />
<path d="M90.6500 112.5000
L90.6500 121.1500
" />
<path d="M90.6500 121.1500
L87.1000 121.1500
" />
<path d="M51.0700 88.2000
L54.6200 88.2000
" />
<path d="M51.0700 101.9000
L51.0700 88.2000
" />
<path d="M54.6200 88.2000
L54.6200 101.9000
" />
<path d="M54.6200 101.9000
L51.0700 101.9000
" />
<g >
</g>
<g >
</g>
<g >
</g>
<g >
</g>
<g >
</g>
<g >
</g>
<g >
</g>
<g >
</g>
<g >
</g>
<g >
</g>
<g >
</g>
<g >
</g>
<g >
</g>
<g >
</g>
<g >
</g>
<g >
</g>
<g >
</g>
<g >
</g>
<g >
</g>
<g >
</g>
<g >
</g>
<g >
</g>
<g >
</g>
<g >
</g>
<g >
</g>
<g >
</g>
<g >
</g>
<g >
</g>
<g >
</g>
<g >
</g>
<g >
</g>
<g >
</g>
<g >
</g>
<g >
</g>
<g >
</g>
<g >
</g>
<g >
</g>
<g >
</g>
<g >
</g>
<g >
</g>
</g> 
</svg>
