<?xml version="1.0" standalone="no"?>
 <!DOCTYPE svg PUBLIC "-//W3C//DTD SVG 1.1//EN" 
 "http://www.w3.org/Graphics/SVG/1.1/DTD/svg11.dtd"> 
<svg
  xmlns:svg="http://www.w3.org/2000/svg"
  xmlns="http://www.w3.org/2000/svg"
  xmlns:xlink="http://www.w3.org/1999/xlink"
  version="1.1"
  width="297.0022mm" height="210.0072mm" viewBox="0.0000 0.0000 297.0022 210.0072">
<title>SVG Image created as mount-B_Fab.svg date 2023/11/08 17:25:44 </title>
  <desc>Image generated by PCBNEW </desc>
<g style="fill:#000000; fill-opacity:1.0000;stroke:#000000; stroke-opacity:1.0000;
stroke-linecap:round; stroke-linejoin:round;"
 transform="translate(0 0) scale(1 1)">
</g>
<g style="fill:#000000; fill-opacity:0.0; 
stroke:#000000; stroke-width:0.0000; stroke-opacity:1; 
stroke-linecap:round; stroke-linejoin:round;">
</g>
<g style="fill:#000000; fill-opacity:0.0; 
stroke:#000000; stroke-width:0.1500; stroke-opacity:1; 
stroke-linecap:round; stroke-linejoin:round;">
<text x="27.4320" y="109.5100"
transform="scale(-1 1) translate(-54.864000 0)"
textLength="9.0595" font-size="1.3333" lengthAdjust="spacingAndGlyphs"
text-anchor="middle" opacity="0">01x14 Male</text>
<g class="stroked-text"><desc>01x14 Male</desc>
<path d="M31.4082 108.4648
L31.3130 108.4648
" />
<path d="M31.3130 108.4648
L31.2177 108.5124
" />
<path d="M31.2177 108.5124
L31.1701 108.5601
" />
<path d="M31.1701 108.5601
L31.1225 108.6553
" />
<path d="M31.1225 108.6553
L31.0749 108.8458
" />
<path d="M31.0749 108.8458
L31.0749 109.0839
" />
<path d="M31.0749 109.0839
L31.1225 109.2743
" />
<path d="M31.1225 109.2743
L31.1701 109.3696
" />
<path d="M31.1701 109.3696
L31.2177 109.4172
" />
<path d="M31.2177 109.4172
L31.3130 109.4648
" />
<path d="M31.3130 109.4648
L31.4082 109.4648
" />
<path d="M31.4082 109.4648
L31.5034 109.4172
" />
<path d="M31.5034 109.4172
L31.5510 109.3696
" />
<path d="M31.5510 109.3696
L31.5987 109.2743
" />
<path d="M31.5987 109.2743
L31.6463 109.0839
" />
<path d="M31.6463 109.0839
L31.6463 108.8458
" />
<path d="M31.6463 108.8458
L31.5987 108.6553
" />
<path d="M31.5987 108.6553
L31.5510 108.5601
" />
<path d="M31.5510 108.5601
L31.5034 108.5124
" />
<path d="M31.5034 108.5124
L31.4082 108.4648
" />
<path d="M30.1225 109.4648
L30.6939 109.4648
" />
<path d="M30.4082 109.4648
L30.4082 108.4648
" />
<path d="M30.4082 108.4648
L30.5034 108.6077
" />
<path d="M30.5034 108.6077
L30.5987 108.7029
" />
<path d="M30.5987 108.7029
L30.6939 108.7505
" />
<path d="M29.7891 109.4648
L29.2653 108.7982
" />
<path d="M29.7891 108.7982
L29.2653 109.4648
" />
<path d="M28.3606 109.4648
L28.9320 109.4648
" />
<path d="M28.6463 109.4648
L28.6463 108.4648
" />
<path d="M28.6463 108.4648
L28.7415 108.6077
" />
<path d="M28.7415 108.6077
L28.8368 108.7029
" />
<path d="M28.8368 108.7029
L28.9320 108.7505
" />
<path d="M27.5034 108.7982
L27.5034 109.4648
" />
<path d="M27.7415 108.4172
L27.9796 109.1315
" />
<path d="M27.9796 109.1315
L27.3606 109.1315
" />
<path d="M26.2177 109.4648
L26.2177 108.4648
" />
<path d="M26.2177 108.4648
L25.8844 109.1791
" />
<path d="M25.8844 109.1791
L25.5510 108.4648
" />
<path d="M25.5510 108.4648
L25.5510 109.4648
" />
<path d="M24.6463 109.4648
L24.6463 108.9410
" />
<path d="M24.6463 108.9410
L24.6939 108.8458
" />
<path d="M24.6939 108.8458
L24.7891 108.7982
" />
<path d="M24.7891 108.7982
L24.9796 108.7982
" />
<path d="M24.9796 108.7982
L25.0749 108.8458
" />
<path d="M24.6463 109.4172
L24.7415 109.4648
" />
<path d="M24.7415 109.4648
L24.9796 109.4648
" />
<path d="M24.9796 109.4648
L25.0749 109.4172
" />
<path d="M25.0749 109.4172
L25.1225 109.3220
" />
<path d="M25.1225 109.3220
L25.1225 109.2267
" />
<path d="M25.1225 109.2267
L25.0749 109.1315
" />
<path d="M25.0749 109.1315
L24.9796 109.0839
" />
<path d="M24.9796 109.0839
L24.7415 109.0839
" />
<path d="M24.7415 109.0839
L24.6463 109.0362
" />
<path d="M24.0272 109.4648
L24.1225 109.4172
" />
<path d="M24.1225 109.4172
L24.1701 109.3220
" />
<path d="M24.1701 109.3220
L24.1701 108.4648
" />
<path d="M23.2653 109.4172
L23.3606 109.4648
" />
<path d="M23.3606 109.4648
L23.5510 109.4648
" />
<path d="M23.5510 109.4648
L23.6463 109.4172
" />
<path d="M23.6463 109.4172
L23.6939 109.3220
" />
<path d="M23.6939 109.3220
L23.6939 108.9410
" />
<path d="M23.6939 108.9410
L23.6463 108.8458
" />
<path d="M23.6463 108.8458
L23.5510 108.7982
" />
<path d="M23.5510 108.7982
L23.3606 108.7982
" />
<path d="M23.3606 108.7982
L23.2653 108.8458
" />
<path d="M23.2653 108.8458
L23.2177 108.9410
" />
<path d="M23.2177 108.9410
L23.2177 109.0362
" />
<path d="M23.2177 109.0362
L23.6939 109.1315
" />
</g><g transform="rotate(-90.000000 27.4320 90.1700)">
<text x="27.4320" y="90.6700"
transform="scale(-1 1) translate(-54.864000 0)"
textLength="1.9643" font-size="1.3333" lengthAdjust="spacingAndGlyphs"
text-anchor="middle" opacity="0">J6</text>
</g>
<g class="stroked-text"><desc>J6</desc>
<path d="M26.8868 89.8367
L27.6011 89.8367
" />
<path d="M27.6011 89.8367
L27.7440 89.7890
" />
<path d="M27.7440 89.7890
L27.8392 89.6938
" />
<path d="M27.8392 89.6938
L27.8868 89.5510
" />
<path d="M27.8868 89.5510
L27.8868 89.4557
" />
<path d="M26.8868 90.7414
L26.8868 90.5510
" />
<path d="M26.8868 90.5510
L26.9344 90.4557
" />
<path d="M26.9344 90.4557
L26.9821 90.4081
" />
<path d="M26.9821 90.4081
L27.1249 90.3129
" />
<path d="M27.1249 90.3129
L27.3154 90.2652
" />
<path d="M27.3154 90.2652
L27.6963 90.2652
" />
<path d="M27.6963 90.2652
L27.7916 90.3129
" />
<path d="M27.7916 90.3129
L27.8392 90.3605
" />
<path d="M27.8392 90.3605
L27.8868 90.4557
" />
<path d="M27.8868 90.4557
L27.8868 90.6462
" />
<path d="M27.8868 90.6462
L27.8392 90.7414
" />
<path d="M27.8392 90.7414
L27.7916 90.7890
" />
<path d="M27.7916 90.7890
L27.6963 90.8367
" />
<path d="M27.6963 90.8367
L27.4582 90.8367
" />
<path d="M27.4582 90.8367
L27.3630 90.7890
" />
<path d="M27.3630 90.7890
L27.3154 90.7414
" />
<path d="M27.3154 90.7414
L27.2678 90.6462
" />
<path d="M27.2678 90.6462
L27.2678 90.4557
" />
<path d="M27.2678 90.4557
L27.3154 90.3605
" />
<path d="M27.3154 90.3605
L27.3630 90.3129
" />
<path d="M27.3630 90.3129
L27.4582 90.2652
" />
</g></g>
<g style="fill:#000000; fill-opacity:0.0; 
stroke:#000000; stroke-width:0.1000; stroke-opacity:1; 
stroke-linecap:round; stroke-linejoin:round;">
<path d="M28.7020 107.9500
L28.7020 73.0250
" />
<path d="M28.7020 73.0250
L28.0670 72.3900
" />
<path d="M28.0670 72.3900
L26.1620 72.3900
" />
<path d="M26.1620 107.9500
L28.7020 107.9500
" />
<path d="M26.1620 72.3900
L26.1620 107.9500
" />
<g >
</g>
<g >
</g>
<g >
</g>
<g >
</g>
<g >
</g>
<g >
</g>
<g >
</g>
<g >
</g>
<g >
</g>
<g >
</g>
<g >
</g>
<g >
</g>
<g >
</g>
<g >
</g>
<g >
</g>
<g >
</g>
<g >
</g>
<g >
</g>
<g >
</g>
<g >
</g>
<g >
</g>
<g >
</g>
<g >
</g>
<g >
</g>
<g >
</g>
<g >
</g>
</g> 
</svg>
