<?xml version="1.0" standalone="no"?>
 <!DOCTYPE svg PUBLIC "-//W3C//DTD SVG 1.1//EN" 
 "http://www.w3.org/Graphics/SVG/1.1/DTD/svg11.dtd"> 
<svg
  xmlns:svg="http://www.w3.org/2000/svg"
  xmlns="http://www.w3.org/2000/svg"
  xmlns:xlink="http://www.w3.org/1999/xlink"
  version="1.1"
  width="297.0022mm" height="210.0072mm" viewBox="0.0000 0.0000 297.0022 210.0072">
<title>SVG Image created as panel-mask.svg date 2023/11/04 16:17:02 </title>
  <desc>Image generated by PCBNEW </desc>
<g style="fill:#000000; fill-opacity:1.0000;stroke:#000000; stroke-opacity:1.0000;
stroke-linecap:round; stroke-linejoin:round;"
 transform="translate(0 0) scale(1 1)">
</g>
<g style="fill:#000000; fill-opacity:0.0; 
stroke:#000000; stroke-width:0.0000; stroke-opacity:1; 
stroke-linecap:round; stroke-linejoin:round;">
<g >
</g>
<g style="fill:#000000; fill-opacity:1.0000; 
stroke:#000000; stroke-width:0.0000; stroke-opacity:1; 
stroke-linecap:round; stroke-linejoin:round;">
<path style="fill:#000000; fill-opacity:1.0000; 
stroke:#000000; stroke-width:0.0000; stroke-opacity:1; 
stroke-linecap:round; stroke-linejoin:round;fill-rule:evenodd;"
d="M 32.9631,152.1540
33.0234,152.1540
33.0892,152.1639
33.1583,152.1693
33.2139,152.1827
33.2673,152.1907
33.3370,152.2122
33.4102,152.2298
33.4575,152.2494
33.5031,152.2635
33.5746,152.2979
33.6495,152.3289
33.6880,152.3525
33.7253,152.3705
33.7963,152.4189
33.8704,152.4643
33.9001,152.4897
33.9292,152.5095
33.9970,152.5724
34.0674,152.6326
34.0888,152.6576
34.1100,152.6773
34.1719,152.7549
34.2357,152.8296
34.2497,152.8524
34.2638,152.8702
34.3171,152.9624
34.3711,153.0505
34.3790,153.0696
34.3872,153.0838
34.4290,153.1905
34.4702,153.2898
34.4736,153.3040
34.4773,153.3135
34.5052,153.4354
34.5307,153.5417
34.5313,153.5501
34.5322,153.5540
34.5437,153.7070
34.5510,153.8000
34.5437,153.8930
34.5322,154.0460
34.5313,154.0499
34.5307,154.0583
34.5052,154.1646
34.4773,154.2865
34.4736,154.2960
34.4702,154.3102
34.4290,154.4096
34.3872,154.5162
34.3790,154.5304
34.3711,154.5495
34.3171,154.6376
34.2638,154.7298
34.2497,154.7475
34.2357,154.7704
34.1719,154.8451
34.1100,154.9227
34.0888,154.9424
34.0674,154.9674
33.9969,155.0276
33.9292,155.0905
33.9001,155.1103
33.8704,155.1357
33.7963,155.1811
33.7253,155.2295
33.6880,155.2475
33.6495,155.2711
33.5746,155.3021
33.5031,155.3365
33.4575,155.3506
33.4102,155.3702
33.3370,155.3878
33.2673,155.4093
33.2140,155.4173
33.1583,155.4307
33.0892,155.4361
33.0234,155.4460
32.9631,155.4460
32.9000,155.4510
32.8369,155.4460
32.7766,155.4460
32.7108,155.4361
32.6417,155.4307
32.5860,155.4173
32.5327,155.4093
32.4630,155.3878
32.3898,155.3702
32.3425,155.3506
32.2969,155.3365
32.2254,155.3021
32.1505,155.2711
32.1120,155.2475
32.0747,155.2295
32.0037,155.1811
31.9296,155.1357
31.8999,155.1103
31.8708,155.0905
31.8030,155.0276
31.7326,154.9674
31.7112,154.9424
31.6900,154.9227
31.6281,154.8451
31.5643,154.7704
31.5503,154.7476
31.5362,154.7298
31.4829,154.6376
31.4289,154.5495
31.4210,154.5304
31.4128,154.5162
31.3709,154.4095
31.3298,154.3102
31.3264,154.2960
31.3227,154.2865
31.2948,154.1645
31.2693,154.0583
31.2687,154.0499
31.2678,154.0460
31.2563,153.8927
31.2490,153.8000
31.2563,153.7073
31.2678,153.5540
31.2687,153.5501
31.2693,153.5417
31.2948,153.4355
31.3227,153.3135
31.3264,153.3040
31.3298,153.2898
31.3709,153.1905
31.4128,153.0838
31.4210,153.0696
31.4289,153.0505
31.4829,152.9624
31.5362,152.8702
31.5503,152.8524
31.5643,152.8296
31.6281,152.7549
31.6900,152.6773
31.7112,152.6576
31.7326,152.6326
31.8030,152.5724
31.8708,152.5095
31.8999,152.4897
31.9296,152.4643
32.0037,152.4189
32.0747,152.3705
32.1120,152.3525
32.1505,152.3289
32.2254,152.2979
32.2969,152.2635
32.3425,152.2494
32.3898,152.2298
32.4630,152.2122
32.5327,152.1907
32.5861,152.1827
32.6417,152.1693
32.7108,152.1639
32.7766,152.1540
32.8369,152.1540
32.9000,152.1490
Z" /> 
<path style="fill:#000000; fill-opacity:1.0000; 
stroke:#000000; stroke-width:0.0000; stroke-opacity:1; 
stroke-linecap:round; stroke-linejoin:round;fill-rule:evenodd;"
d="M 36.0046,140.7052
36.0451,140.7628
36.0479,140.8332
35.7146,142.1666
35.7137,142.1688
35.7137,142.1699
35.5804,142.6461
35.5660,142.6787
35.5635,142.6809
35.5624,142.6841
35.4957,142.7793
35.4714,142.8053
35.4681,142.8066
35.4660,142.8094
35.3327,142.9046
35.3011,142.9210
35.2307,142.9244
35.1697,142.8893
35.1373,142.8267
35.1439,142.7566
35.1873,142.7012
35.3032,142.6184
35.3454,142.5582
35.4640,142.1344
35.1387,140.8332
35.1351,140.7978
35.1577,140.7311
35.2127,140.6872
35.2828,140.6800
35.3456,140.7118
35.3813,140.7726
35.5933,141.6208
35.8054,140.7726
35.8189,140.7396
35.8702,140.6914
35.9394,140.6786
Z" /> 
<path style="fill:#000000; fill-opacity:1.0000; 
stroke:#000000; stroke-width:0.0000; stroke-opacity:1; 
stroke-linecap:round; stroke-linejoin:round;fill-rule:evenodd;"
d="M 31.5786,140.0225
31.6318,140.0687
31.6517,140.1362
31.6517,142.1362
31.6466,142.1715
31.6085,142.2307
31.5445,142.2600
31.4747,142.2499
31.4628,142.2396
31.4622,142.2399
31.4609,142.2414
31.4573,142.2425
31.4344,142.2543
31.4134,142.2553
31.3933,142.2612
31.1267,142.2612
31.1224,142.2606
31.1205,142.2611
31.1169,142.2598
31.0914,142.2562
31.0738,142.2448
31.0540,142.2380
30.9207,142.1427
30.8950,142.1181
30.8937,142.1149
30.8909,142.1127
30.8243,142.0174
30.8094,141.9881
30.8087,141.9871
30.7420,141.7966
30.7352,141.7617
30.7359,141.7585
30.7350,141.7553
30.7350,141.7340
30.9850,141.7340
31.0390,141.8882
31.0834,141.9517
31.1667,142.0112
31.3533,142.0112
31.4017,141.9767
31.4017,140.9625
31.3533,140.9279
31.1667,140.9279
31.0834,140.9874
31.0390,141.0509
30.9850,141.2051
30.9850,141.7340
30.7350,141.7340
30.7350,141.1839
30.7401,141.1486
30.7418,141.1459
30.7420,141.1426
30.8087,140.9521
30.8239,140.9229
30.8243,140.9217
30.8909,140.8265
30.9153,140.8005
30.9185,140.7992
30.9207,140.7964
31.0540,140.7012
31.0578,140.6992
31.0591,140.6977
31.0627,140.6967
31.0856,140.6848
31.1066,140.6838
31.1267,140.6779
31.3933,140.6779
31.3976,140.6785
31.3995,140.6781
31.4017,140.6788
31.4017,140.1362
31.4067,140.1010
31.4448,140.0418
31.5089,140.0125
Z" /> 
<path style="fill:#000000; fill-opacity:1.0000; 
stroke:#000000; stroke-width:0.0000; stroke-opacity:1; 
stroke-linecap:round; stroke-linejoin:round;fill-rule:evenodd;"
d="M 32.5976,140.6785
32.5995,140.6781
32.6030,140.6793
32.6285,140.6830
32.6462,140.6943
32.6660,140.7012
32.7993,140.7964
32.8020,140.7990
32.8036,140.7996
32.8056,140.8025
32.8250,140.8210
32.8327,140.8401
32.8446,140.8568
32.9113,141.0473
32.9182,141.0822
32.9174,141.0855
32.9183,141.0886
32.9183,141.2791
32.9163,141.2932
32.9169,141.2978
32.9151,141.3018
32.9133,141.3143
32.8986,141.3371
32.8872,141.3616
32.8799,141.3663
32.8752,141.3736
32.8506,141.3848
32.8277,141.3993
32.2517,141.5639
32.2517,141.8293
32.2982,141.9623
32.3667,142.0112
32.5533,142.0112
32.6540,141.9393
32.6856,141.9229
32.7560,141.9195
32.8170,141.9546
32.8494,142.0172
32.8428,142.0873
32.7993,142.1427
32.6660,142.2380
32.6622,142.2399
32.6609,142.2414
32.6573,142.2425
32.6344,142.2543
32.6134,142.2553
32.5933,142.2612
32.3267,142.2612
32.3224,142.2606
32.3205,142.2611
32.3169,142.2598
32.2914,142.2562
32.2738,142.2448
32.2540,142.2380
32.1207,142.1427
32.1180,142.1402
32.1164,142.1395
32.1144,142.1367
32.0950,142.1181
32.0873,142.0990
32.0754,142.0823
32.0087,141.8918
32.0018,141.8569
32.0026,141.8537
32.0017,141.8505
32.0017,141.3039
32.2517,141.3039
32.6683,141.1848
32.6683,141.1099
32.6218,140.9768
32.5533,140.9279
32.3667,140.9279
32.2982,140.9768
32.2517,141.1099
32.2517,141.3039
32.0017,141.3039
32.0017,141.0886
32.0067,141.0534
32.0085,141.0506
32.0087,141.0473
32.0754,140.8568
32.0771,140.8536
32.0772,140.8519
32.0794,140.8491
32.0918,140.8253
32.1080,140.8126
32.1207,140.7964
32.2540,140.7012
32.2578,140.6992
32.2591,140.6977
32.2627,140.6967
32.2856,140.6848
32.3066,140.6838
32.3267,140.6779
32.5933,140.6779
Z" /> 
<path style="fill:#000000; fill-opacity:1.0000; 
stroke:#000000; stroke-width:0.0000; stroke-opacity:1; 
stroke-linecap:round; stroke-linejoin:round;fill-rule:evenodd;"
d="M 34.5309,140.6785
34.5328,140.6781
34.5364,140.6793
34.5619,140.6830
34.5795,140.6943
34.5993,140.7012
34.7327,140.7964
34.7353,140.7990
34.7369,140.7996
34.7390,140.8025
34.7584,140.8210
34.7660,140.8401
34.7780,140.8568
34.8446,141.0473
34.8515,141.0822
34.8507,141.0855
34.8517,141.0886
34.8517,142.1362
34.8466,142.1715
34.8085,142.2307
34.7445,142.2600
34.6747,142.2499
34.6628,142.2396
34.6622,142.2399
34.6609,142.2414
34.6573,142.2425
34.6344,142.2543
34.6134,142.2553
34.5933,142.2612
34.2600,142.2612
34.2558,142.2606
34.2539,142.2611
34.2503,142.2598
34.2248,142.2562
34.2071,142.2448
34.1873,142.2380
34.0540,142.1427
34.0513,142.1402
34.0497,142.1395
34.0477,142.1367
34.0283,142.1181
34.0207,142.0990
34.0087,142.0823
33.9420,141.8918
33.9352,141.8569
33.9359,141.8537
33.9350,141.8505
33.9350,141.8293
34.1850,141.8293
34.2316,141.9623
34.3001,142.0112
34.5533,142.0112
34.6017,141.9767
34.6017,141.4969
34.5933,141.4993
34.3001,141.4993
34.2316,141.5483
34.1850,141.6813
34.1850,141.8293
33.9350,141.8293
33.9350,141.6600
33.9401,141.6248
33.9418,141.6221
33.9420,141.6188
34.0087,141.4283
34.0104,141.4250
34.0106,141.4233
34.0127,141.4205
34.0251,141.3967
34.0413,141.3840
34.0540,141.3679
34.1873,141.2726
34.1911,141.2707
34.1924,141.2692
34.1961,141.2681
34.2189,141.2563
34.2399,141.2552
34.2600,141.2493
34.5533,141.2493
34.6017,141.2148
34.6017,141.1099
34.5551,140.9768
34.4866,140.9279
34.3001,140.9279
34.1993,140.9999
34.1677,141.0162
34.0974,141.0197
34.0363,140.9845
34.0040,140.9220
34.0106,140.8519
34.0540,140.7964
34.1873,140.7012
34.1911,140.6992
34.1924,140.6977
34.1961,140.6967
34.2189,140.6848
34.2399,140.6838
34.2600,140.6779
34.5267,140.6779
Z" /> 
<path style="fill:#000000; fill-opacity:1.0000; 
stroke:#000000; stroke-width:0.0000; stroke-opacity:1; 
stroke-linecap:round; stroke-linejoin:round;fill-rule:evenodd;"
d="M 37.9309,140.6785
37.9328,140.6781
37.9364,140.6793
37.9619,140.6830
37.9795,140.6943
37.9993,140.7012
38.1327,140.7964
38.1584,140.8210
38.1597,140.8243
38.1624,140.8265
38.2291,140.9217
38.2439,140.9510
38.2446,140.9521
38.3113,141.1426
38.3182,141.1775
38.3174,141.1807
38.3183,141.1839
38.3183,141.7553
38.3133,141.7905
38.3115,141.7933
38.3113,141.7966
38.2446,141.9871
38.2295,142.0162
38.2291,142.0174
38.1624,142.1127
38.1381,142.1386
38.1348,142.1400
38.1327,142.1427
37.9993,142.2380
37.9955,142.2399
37.9942,142.2414
37.9906,142.2425
37.9677,142.2543
37.9468,142.2553
37.9267,142.2612
37.7267,142.2612
37.7224,142.2606
37.7205,142.2611
37.7170,142.2598
37.6914,142.2562
37.6738,142.2448
37.6540,142.2380
37.5207,142.1427
37.4950,142.1181
37.4937,142.1149
37.4909,142.1127
37.4243,142.0174
37.4094,141.9881
37.4087,141.9871
37.3420,141.7966
37.3352,141.7617
37.3359,141.7585
37.3350,141.7553
37.3350,141.7340
37.5850,141.7340
37.6390,141.8882
37.6834,141.9517
37.7667,142.0112
37.8866,142.0112
37.9699,141.9517
38.0144,141.8882
38.0683,141.7340
38.0683,141.2051
38.0144,141.0509
37.9699,140.9874
37.8866,140.9279
37.7667,140.9279
37.6834,140.9874
37.6390,141.0509
37.5850,141.2051
37.5850,141.7340
37.3350,141.7340
37.3350,141.1839
37.3401,141.1486
37.3418,141.1459
37.3420,141.1426
37.4087,140.9521
37.4239,140.9229
37.4243,140.9217
37.4909,140.8265
37.5153,140.8005
37.5185,140.7992
37.5207,140.7964
37.6540,140.7012
37.6578,140.6992
37.6591,140.6977
37.6627,140.6967
37.6856,140.6848
37.7066,140.6838
37.7267,140.6779
37.9267,140.6779
Z" /> 
<path style="fill:#000000; fill-opacity:1.0000; 
stroke:#000000; stroke-width:0.0000; stroke-opacity:1; 
stroke-linecap:round; stroke-linejoin:round;fill-rule:evenodd;"
d="M 39.4453,140.6892
39.4985,140.7353
39.5183,140.8029
39.5183,142.1362
39.5133,142.1715
39.4752,142.2307
39.4111,142.2600
39.3414,142.2499
39.2997,142.2138
39.2660,142.2380
39.2622,142.2399
39.2609,142.2414
39.2573,142.2425
39.2344,142.2543
39.2134,142.2553
39.1933,142.2612
38.9933,142.2612
38.9891,142.2606
38.9872,142.2611
38.9836,142.2598
38.9581,142.2562
38.9405,142.2448
38.9207,142.2380
38.7873,142.1427
38.7847,142.1402
38.7831,142.1395
38.7810,142.1367
38.7616,142.1181
38.7540,142.0990
38.7420,142.0823
38.6754,141.8918
38.6685,141.8569
38.6693,141.8537
38.6683,141.8505
38.6683,140.8029
38.6734,140.7677
38.7115,140.7084
38.7755,140.6792
38.8453,140.6892
38.8985,140.7353
38.9183,140.8029
38.9183,141.8293
38.9649,141.9623
39.0334,142.0112
39.1533,142.0112
39.2366,141.9517
39.2683,141.9064
39.2683,140.8029
39.2734,140.7677
39.3115,140.7084
39.3755,140.6792
Z" /> 
<path style="fill:#000000; fill-opacity:1.0000; 
stroke:#000000; stroke-width:0.0000; stroke-opacity:1; 
stroke-linecap:round; stroke-linejoin:round;fill-rule:evenodd;"
d="M 40.1119,140.0225
40.1652,140.0687
40.1850,140.1362
40.1850,140.6779
40.3933,140.6779
40.4286,140.6830
40.4878,140.7210
40.5171,140.7851
40.5070,140.8548
40.4609,140.9081
40.3933,140.9279
40.1850,140.9279
40.1850,141.8293
40.2316,141.9623
40.3001,142.0112
40.3933,142.0112
40.4286,142.0163
40.4878,142.0544
40.5171,142.1184
40.5070,142.1882
40.4609,142.2414
40.3933,142.2612
40.2600,142.2612
40.2558,142.2606
40.2539,142.2611
40.2503,142.2598
40.2248,142.2562
40.2071,142.2448
40.1873,142.2380
40.0540,142.1427
40.0513,142.1402
40.0497,142.1395
40.0477,142.1367
40.0283,142.1181
40.0207,142.0990
40.0087,142.0823
39.9420,141.8918
39.9352,141.8569
39.9359,141.8537
39.9350,141.8505
39.9350,140.9279
39.8600,140.9279
39.8248,140.9228
39.7655,140.8848
39.7363,140.8207
39.7463,140.7510
39.7924,140.6977
39.8600,140.6779
39.9350,140.6779
39.9350,140.1362
39.9401,140.1010
39.9781,140.0418
40.0422,140.0125
Z" /> 
<path style="fill:#000000; fill-opacity:1.0000; 
stroke:#000000; stroke-width:0.0000; stroke-opacity:1; 
stroke-linecap:round; stroke-linejoin:round;fill-rule:evenodd;"
d="M 54.9509,140.6785
54.9528,140.6781
54.9564,140.6793
54.9819,140.6830
54.9995,140.6943
55.0193,140.7012
55.1527,140.7964
55.1784,140.8210
55.1797,140.8243
55.1824,140.8265
55.2491,140.9217
55.2639,140.9510
55.2646,140.9521
55.3313,141.1426
55.3382,141.1775
55.3374,141.1807
55.3383,141.1839
55.3383,141.7553
55.3333,141.7905
55.3315,141.7933
55.3313,141.7966
55.2646,141.9871
55.2495,142.0162
55.2491,142.0174
55.1824,142.1127
55.1581,142.1386
55.1548,142.1400
55.1527,142.1427
55.0193,142.2380
55.0155,142.2399
55.0142,142.2414
55.0106,142.2425
54.9877,142.2543
54.9668,142.2553
54.9467,142.2612
54.7467,142.2612
54.7424,142.2606
54.7405,142.2611
54.7370,142.2598
54.7114,142.2562
54.6938,142.2448
54.6740,142.2380
54.5407,142.1427
54.5150,142.1181
54.5137,142.1149
54.5109,142.1127
54.4443,142.0174
54.4294,141.9881
54.4287,141.9871
54.3620,141.7966
54.3552,141.7617
54.3559,141.7585
54.3550,141.7553
54.3550,141.7340
54.6050,141.7340
54.6590,141.8882
54.7034,141.9517
54.7867,142.0112
54.9066,142.0112
54.9899,141.9517
55.0344,141.8882
55.0883,141.7340
55.0883,141.2051
55.0344,141.0509
54.9899,140.9874
54.9066,140.9279
54.7867,140.9279
54.7034,140.9874
54.6590,141.0509
54.6050,141.2051
54.6050,141.7340
54.3550,141.7340
54.3550,141.1839
54.3601,141.1486
54.3618,141.1459
54.3620,141.1426
54.4287,140.9521
54.4439,140.9229
54.4443,140.9217
54.5109,140.8265
54.5353,140.8005
54.5385,140.7992
54.5407,140.7964
54.6740,140.7012
54.6778,140.6992
54.6791,140.6977
54.6827,140.6967
54.7056,140.6848
54.7266,140.6838
54.7467,140.6779
54.9467,140.6779
Z" /> 
<path style="fill:#000000; fill-opacity:1.0000; 
stroke:#000000; stroke-width:0.0000; stroke-opacity:1; 
stroke-linecap:round; stroke-linejoin:round;fill-rule:evenodd;"
d="M 56.4653,140.6892
56.5185,140.7353
56.5383,140.8029
56.5383,142.1362
56.5333,142.1715
56.4952,142.2307
56.4311,142.2600
56.3614,142.2499
56.3197,142.2138
56.2860,142.2380
56.2822,142.2399
56.2809,142.2414
56.2773,142.2425
56.2544,142.2543
56.2334,142.2553
56.2133,142.2612
56.0133,142.2612
56.0091,142.2606
56.0072,142.2611
56.0036,142.2598
55.9781,142.2562
55.9605,142.2448
55.9407,142.2380
55.8073,142.1427
55.8047,142.1402
55.8031,142.1395
55.8010,142.1367
55.7816,142.1181
55.7740,142.0990
55.7620,142.0823
55.6954,141.8918
55.6885,141.8569
55.6893,141.8537
55.6883,141.8505
55.6883,140.8029
55.6934,140.7677
55.7315,140.7084
55.7955,140.6792
55.8653,140.6892
55.9185,140.7353
55.9383,140.8029
55.9383,141.8293
55.9849,141.9623
56.0534,142.0112
56.1733,142.0112
56.2566,141.9517
56.2883,141.9064
56.2883,140.8029
56.2934,140.7677
56.3315,140.7084
56.3955,140.6792
Z" /> 
<path style="fill:#000000; fill-opacity:1.0000; 
stroke:#000000; stroke-width:0.0000; stroke-opacity:1; 
stroke-linecap:round; stroke-linejoin:round;fill-rule:evenodd;"
d="M 57.1319,140.0225
57.1852,140.0687
57.2050,140.1362
57.2050,140.6779
57.4133,140.6779
57.4485,140.6830
57.5078,140.7210
57.5371,140.7851
57.5270,140.8548
57.4809,140.9081
57.4133,140.9279
57.2050,140.9279
57.2050,141.8293
57.2516,141.9623
57.3201,142.0112
57.4133,142.0112
57.4485,142.0163
57.5078,142.0544
57.5371,142.1184
57.5270,142.1882
57.4809,142.2414
57.4133,142.2612
57.2800,142.2612
57.2758,142.2606
57.2739,142.2611
57.2703,142.2598
57.2448,142.2562
57.2271,142.2448
57.2073,142.2380
57.0740,142.1427
57.0713,142.1402
57.0697,142.1395
57.0677,142.1367
57.0483,142.1181
57.0407,142.0990
57.0287,142.0823
56.9620,141.8918
56.9552,141.8569
56.9559,141.8537
56.9550,141.8505
56.9550,140.9279
56.8800,140.9279
56.8448,140.9228
56.7855,140.8848
56.7563,140.8207
56.7663,140.7510
56.8124,140.6977
56.8800,140.6779
56.9550,140.6779
56.9550,140.1362
56.9601,140.1010
56.9981,140.0418
57.0622,140.0125
Z" /> 
<path style="fill:#000000; fill-opacity:1.0000; 
stroke:#000000; stroke-width:0.0000; stroke-opacity:1; 
stroke-linecap:round; stroke-linejoin:round;fill-rule:evenodd;"
d="M 33.4453,140.0225
33.4985,140.0687
33.5183,140.1362
33.5183,141.8293
33.5649,141.9623
33.6660,142.0345
33.6917,142.0591
33.7178,142.1245
33.7044,142.1937
33.6557,142.2446
33.5872,142.2611
33.5207,142.2380
33.3873,142.1427
33.3847,142.1402
33.3831,142.1395
33.3810,142.1367
33.3616,142.1181
33.3540,142.0990
33.3420,142.0823
33.2754,141.8918
33.2685,141.8569
33.2693,141.8537
33.2683,141.8505
33.2683,140.1362
33.2734,140.1010
33.3115,140.0418
33.3755,140.0125
Z" /> 
<path style="fill:#000000; fill-opacity:1.0000; 
stroke:#000000; stroke-width:0.0000; stroke-opacity:1; 
stroke-linecap:round; stroke-linejoin:round;fill-rule:evenodd;"
d="M 36.0860,128.8718
36.4297,128.9475
36.7633,129.0599
37.0828,129.2077
37.3844,129.3892
37.6647,129.6022
37.9202,129.8443
38.1481,130.1126
38.3456,130.4039
38.5105,130.7149
38.6408,131.0420
38.7350,131.3811
38.7919,131.7285
38.8110,132.0800
38.7919,132.4315
38.7350,132.7789
38.6408,133.1180
38.5105,133.4451
38.3456,133.7561
38.1481,134.0474
37.9202,134.3157
37.6647,134.5578
37.3844,134.7708
37.0828,134.9523
36.7633,135.1001
36.4297,135.2125
36.0860,135.2882
35.7360,135.3262
35.3840,135.3262
35.0340,135.2882
34.6903,135.2125
34.3567,135.1001
34.0372,134.9523
33.7356,134.7708
33.4553,134.5578
33.1998,134.3157
32.9719,134.0474
32.7744,133.7561
32.6095,133.4451
32.4792,133.1180
32.3850,132.7789
32.3281,132.4315
32.3090,132.0800
32.3281,131.7285
32.3850,131.3811
32.4792,131.0420
32.6095,130.7149
32.7744,130.4039
32.9719,130.1126
33.1998,129.8443
33.4553,129.6022
33.7356,129.3892
34.0372,129.2077
34.3567,129.0599
34.6903,128.9475
35.0340,128.8718
35.3840,128.8338
35.7360,128.8338
Z" /> 
<path style="fill:#000000; fill-opacity:1.0000; 
stroke:#000000; stroke-width:0.0000; stroke-opacity:1; 
stroke-linecap:round; stroke-linejoin:round;fill-rule:evenodd;"
d="M 56.4060,128.8718
56.7497,128.9475
57.0833,129.0599
57.4028,129.2077
57.7044,129.3892
57.9847,129.6022
58.2402,129.8443
58.4681,130.1126
58.6656,130.4039
58.8305,130.7149
58.9608,131.0420
59.0550,131.3811
59.1119,131.7285
59.1310,132.0800
59.1119,132.4315
59.0550,132.7789
58.9608,133.1180
58.8305,133.4451
58.6656,133.7561
58.4681,134.0474
58.2402,134.3157
57.9847,134.5578
57.7044,134.7708
57.4028,134.9523
57.0833,135.1001
56.7497,135.2125
56.4060,135.2882
56.0560,135.3262
55.7040,135.3262
55.3540,135.2882
55.0103,135.2125
54.6767,135.1001
54.3572,134.9523
54.0556,134.7708
53.7753,134.5578
53.5198,134.3157
53.2919,134.0474
53.0944,133.7561
52.9295,133.4451
52.7992,133.1180
52.7050,132.7789
52.6481,132.4315
52.6290,132.0800
52.6481,131.7285
52.7050,131.3811
52.7992,131.0420
52.9295,130.7149
53.0944,130.4039
53.2919,130.1126
53.5198,129.8443
53.7753,129.6022
54.0556,129.3892
54.3572,129.2077
54.6767,129.0599
55.0103,128.9475
55.3540,128.8718
55.7040,128.8338
56.0560,128.8338
Z" /> 
<path style="fill:#000000; fill-opacity:1.0000; 
stroke:#000000; stroke-width:0.0000; stroke-opacity:1; 
stroke-linecap:round; stroke-linejoin:round;fill-rule:evenodd;"
d="M 36.5357,119.6964
36.5629,119.6966
36.5701,119.7013
36.5786,119.7025
36.5991,119.7203
36.6218,119.7352
36.6253,119.7430
36.6318,119.7487
36.6395,119.7747
36.6505,119.7995
36.6492,119.8080
36.6517,119.8162
36.6517,121.6912
36.9267,121.6912
36.9619,121.6963
37.0211,121.7344
37.0504,121.7984
37.0404,121.8682
36.9942,121.9214
36.9267,121.9412
36.1267,121.9412
36.0915,121.9362
36.0322,121.8981
36.0029,121.8340
36.0130,121.7643
36.0591,121.7111
36.1267,121.6912
36.4017,121.6912
36.4017,120.3080
36.3624,120.3641
36.3381,120.3901
36.3348,120.3914
36.3327,120.3941
36.1993,120.4894
36.1677,120.5057
36.0974,120.5092
36.0363,120.4741
36.0040,120.4115
36.0106,120.3414
36.0540,120.2859
36.1699,120.2032
36.2847,120.0392
36.4134,119.7634
36.4329,119.7336
36.4402,119.7290
36.4448,119.7218
36.4695,119.7105
36.4924,119.6960
36.5010,119.6961
36.5089,119.6925
Z" /> 
<path style="fill:#000000; fill-opacity:1.0000; 
stroke:#000000; stroke-width:0.0000; stroke-opacity:1; 
stroke-linecap:round; stroke-linejoin:round;fill-rule:evenodd;"
d="M 56.9842,119.6918
56.9861,119.6914
56.9897,119.6926
57.0152,119.6963
57.0329,119.7076
57.0527,119.7145
57.1860,119.8098
57.2117,119.8343
57.2130,119.8376
57.2157,119.8398
57.2824,119.9350
57.2972,119.9644
57.2980,119.9654
57.3646,120.1559
57.3715,120.1908
57.3707,120.1940
57.3717,120.1972
57.3717,120.3877
57.3682,120.4120
57.3684,120.4161
57.3017,120.7018
57.2888,120.7349
57.2844,120.7392
57.2824,120.7451
56.6201,121.6912
57.2467,121.6912
57.2819,121.6963
57.3411,121.7344
57.3704,121.7984
57.3604,121.8682
57.3142,121.9214
57.2467,121.9412
56.3800,121.9412
56.3448,121.9362
56.3350,121.9299
56.3236,121.9278
56.3059,121.9112
56.2855,121.8981
56.2807,121.8875
56.2723,121.8796
56.2663,121.8561
56.2563,121.8340
56.2579,121.8225
56.2551,121.8113
56.2628,121.7883
56.2663,121.7643
56.2739,121.7555
56.2776,121.7446
57.0638,120.6215
57.1217,120.3733
57.1217,120.2184
57.0677,120.0643
57.0232,120.0007
56.9399,119.9412
56.6867,119.9412
56.6034,120.0007
56.5491,120.0784
56.5247,120.1043
56.4596,120.1310
56.3903,120.1183
56.3389,120.0701
56.3218,120.0018
56.3443,119.9350
56.4109,119.8398
56.4353,119.8138
56.4385,119.8125
56.4407,119.8098
56.5740,119.7145
56.5778,119.7126
56.5791,119.7111
56.5827,119.7100
56.6056,119.6982
56.6266,119.6971
56.6467,119.6912
56.9800,119.6912
Z" /> 
<path style="fill:#000000; fill-opacity:1.0000; 
stroke:#000000; stroke-width:0.0000; stroke-opacity:1; 
stroke-linecap:round; stroke-linejoin:round;fill-rule:evenodd;"
d="M 34.3119,120.3692
34.3652,120.4153
34.3850,120.4829
34.3850,121.8162
34.3799,121.8515
34.3419,121.9107
34.2778,121.9400
34.2081,121.9299
34.1548,121.8838
34.1350,121.8162
34.1350,120.4829
34.1401,120.4477
34.1781,120.3884
34.2422,120.3592
Z" /> 
<path style="fill:#000000; fill-opacity:1.0000; 
stroke:#000000; stroke-width:0.0000; stroke-opacity:1; 
stroke-linecap:round; stroke-linejoin:round;fill-rule:evenodd;"
d="M 35.3309,120.3585
35.3328,120.3581
35.3364,120.3593
35.3619,120.3630
35.3795,120.3743
35.3993,120.3812
35.5327,120.4764
35.5353,120.4790
35.5369,120.4796
35.5390,120.4825
35.5584,120.5010
35.5660,120.5201
35.5780,120.5368
35.6446,120.7273
35.6515,120.7622
35.6507,120.7655
35.6517,120.7686
35.6517,121.8162
35.6466,121.8515
35.6085,121.9107
35.5445,121.9400
35.4747,121.9299
35.4215,121.8838
35.4017,121.8162
35.4017,120.7899
35.3551,120.6568
35.2866,120.6079
35.1667,120.6079
35.0834,120.6674
35.0517,120.7128
35.0517,121.8162
35.0466,121.8515
35.0085,121.9107
34.9445,121.9400
34.8747,121.9299
34.8215,121.8838
34.8017,121.8162
34.8017,120.4829
34.8067,120.4477
34.8448,120.3884
34.9089,120.3592
34.9786,120.3692
35.0203,120.4053
35.0540,120.3812
35.0578,120.3792
35.0591,120.3777
35.0627,120.3767
35.0856,120.3648
35.1066,120.3638
35.1267,120.3579
35.3267,120.3579
Z" /> 
<path style="fill:#000000; fill-opacity:1.0000; 
stroke:#000000; stroke-width:0.0000; stroke-opacity:1; 
stroke-linecap:round; stroke-linejoin:round;fill-rule:evenodd;"
d="M 54.6319,120.3692
54.6852,120.4153
54.7050,120.4829
54.7050,121.8162
54.6999,121.8515
54.6619,121.9107
54.5978,121.9400
54.5281,121.9299
54.4748,121.8838
54.4550,121.8162
54.4550,120.4829
54.4601,120.4477
54.4981,120.3884
54.5622,120.3592
Z" /> 
<path style="fill:#000000; fill-opacity:1.0000; 
stroke:#000000; stroke-width:0.0000; stroke-opacity:1; 
stroke-linecap:round; stroke-linejoin:round;fill-rule:evenodd;"
d="M 55.6509,120.3585
55.6528,120.3581
55.6564,120.3593
55.6819,120.3630
55.6995,120.3743
55.7193,120.3812
55.8527,120.4764
55.8553,120.4790
55.8569,120.4796
55.8590,120.4825
55.8784,120.5010
55.8860,120.5201
55.8980,120.5368
55.9646,120.7273
55.9715,120.7622
55.9707,120.7655
55.9717,120.7686
55.9717,121.8162
55.9666,121.8515
55.9285,121.9107
55.8645,121.9400
55.7947,121.9299
55.7415,121.8838
55.7217,121.8162
55.7217,120.7899
55.6751,120.6568
55.6066,120.6079
55.4867,120.6079
55.4034,120.6674
55.3717,120.7128
55.3717,121.8162
55.3666,121.8515
55.3285,121.9107
55.2645,121.9400
55.1947,121.9299
55.1415,121.8838
55.1217,121.8162
55.1217,120.4829
55.1267,120.4477
55.1648,120.3884
55.2289,120.3592
55.2986,120.3692
55.3403,120.4053
55.3740,120.3812
55.3778,120.3792
55.3791,120.3777
55.3827,120.3767
55.4056,120.3648
55.4266,120.3638
55.4467,120.3579
55.6467,120.3579
Z" /> 
<path style="fill:#000000; fill-opacity:1.0000; 
stroke:#000000; stroke-width:0.0000; stroke-opacity:1; 
stroke-linecap:round; stroke-linejoin:round;fill-rule:evenodd;"
d="M 34.2771,119.6974
34.3074,119.7006
34.3094,119.7022
34.3119,119.7025
34.3139,119.7042
34.3164,119.7047
34.3386,119.7255
34.3624,119.7446
34.4291,119.8398
34.4322,119.8461
34.4344,119.8481
34.4355,119.8526
34.4451,119.8715
34.4460,119.8943
34.4516,119.9164
34.4474,119.9288
34.4479,119.9419
34.4363,119.9616
34.4291,119.9832
34.3624,120.0784
34.3479,120.0939
34.3455,120.0979
34.3432,120.0990
34.3419,120.1012
34.3404,120.1018
34.3381,120.1043
34.3099,120.1159
34.2827,120.1296
34.2801,120.1294
34.2778,120.1304
34.2753,120.1301
34.2729,120.1310
34.2429,120.1255
34.2126,120.1224
34.2106,120.1208
34.2081,120.1204
34.2061,120.1187
34.2036,120.1183
34.1814,120.0974
34.1576,120.0784
34.0909,119.9832
34.0878,119.9769
34.0856,119.9748
34.0845,119.9704
34.0749,119.9514
34.0740,119.9286
34.0684,119.9065
34.0726,119.8941
34.0721,119.8810
34.0836,119.8614
34.0909,119.8398
34.1576,119.7446
34.1721,119.7291
34.1745,119.7251
34.1768,119.7239
34.1781,119.7218
34.1796,119.7211
34.1819,119.7186
34.2101,119.7071
34.2373,119.6933
34.2399,119.6936
34.2422,119.6925
34.2447,119.6929
34.2471,119.6919
Z" /> 
<path style="fill:#000000; fill-opacity:1.0000; 
stroke:#000000; stroke-width:0.0000; stroke-opacity:1; 
stroke-linecap:round; stroke-linejoin:round;fill-rule:evenodd;"
d="M 54.5971,119.6974
54.6274,119.7006
54.6294,119.7022
54.6319,119.7025
54.6339,119.7042
54.6364,119.7047
54.6586,119.7255
54.6824,119.7446
54.7491,119.8398
54.7522,119.8461
54.7544,119.8481
54.7555,119.8526
54.7651,119.8715
54.7660,119.8943
54.7716,119.9164
54.7674,119.9288
54.7679,119.9419
54.7563,119.9616
54.7491,119.9832
54.6824,120.0784
54.6679,120.0939
54.6655,120.0979
54.6632,120.0990
54.6619,120.1012
54.6604,120.1018
54.6581,120.1043
54.6299,120.1159
54.6027,120.1296
54.6001,120.1294
54.5978,120.1304
54.5953,120.1301
54.5929,120.1310
54.5629,120.1255
54.5326,120.1224
54.5306,120.1208
54.5281,120.1204
54.5261,120.1187
54.5236,120.1183
54.5014,120.0974
54.4776,120.0784
54.4109,119.9832
54.4078,119.9769
54.4056,119.9748
54.4045,119.9704
54.3949,119.9514
54.3940,119.9286
54.3884,119.9065
54.3926,119.8941
54.3921,119.8810
54.4036,119.8614
54.4109,119.8398
54.4776,119.7446
54.4921,119.7291
54.4945,119.7251
54.4968,119.7239
54.4981,119.7218
54.4996,119.7211
54.5019,119.7186
54.5301,119.7071
54.5573,119.6933
54.5599,119.6936
54.5622,119.6925
54.5647,119.6929
54.5671,119.6919
Z" /> 
<path style="fill:#000000; fill-opacity:1.0000; 
stroke:#000000; stroke-width:0.0000; stroke-opacity:1; 
stroke-linecap:round; stroke-linejoin:round;fill-rule:evenodd;"
d="M 36.0860,108.5518
36.4297,108.6275
36.7633,108.7399
37.0828,108.8877
37.3844,109.0692
37.6647,109.2822
37.9202,109.5243
38.1481,109.7926
38.3456,110.0839
38.5105,110.3949
38.6408,110.7220
38.7350,111.0611
38.7919,111.4085
38.8110,111.7600
38.7919,112.1115
38.7350,112.4589
38.6408,112.7980
38.5105,113.1251
38.3456,113.4361
38.1481,113.7274
37.9202,113.9957
37.6647,114.2378
37.3844,114.4508
37.0828,114.6323
36.7633,114.7801
36.4297,114.8925
36.0860,114.9682
35.7360,115.0062
35.3840,115.0062
35.0340,114.9682
34.6903,114.8925
34.3567,114.7801
34.0372,114.6323
33.7356,114.4508
33.4553,114.2378
33.1998,113.9957
32.9719,113.7274
32.7744,113.4361
32.6095,113.1251
32.4792,112.7980
32.3850,112.4589
32.3281,112.1115
32.3090,111.7600
32.3281,111.4085
32.3850,111.0611
32.4792,110.7220
32.6095,110.3949
32.7744,110.0839
32.9719,109.7926
33.1998,109.5243
33.4553,109.2822
33.7356,109.0692
34.0372,108.8877
34.3567,108.7399
34.6903,108.6275
35.0340,108.5518
35.3840,108.5138
35.7360,108.5138
Z" /> 
<path style="fill:#000000; fill-opacity:1.0000; 
stroke:#000000; stroke-width:0.0000; stroke-opacity:1; 
stroke-linecap:round; stroke-linejoin:round;fill-rule:evenodd;"
d="M 56.4060,108.5518
56.7497,108.6275
57.0833,108.7399
57.4028,108.8877
57.7044,109.0692
57.9847,109.2822
58.2402,109.5243
58.4681,109.7926
58.6656,110.0839
58.8305,110.3949
58.9608,110.7220
59.0550,111.0611
59.1119,111.4085
59.1310,111.7600
59.1119,112.1115
59.0550,112.4589
58.9608,112.7980
58.8305,113.1251
58.6656,113.4361
58.4681,113.7274
58.2402,113.9957
57.9847,114.2378
57.7044,114.4508
57.4028,114.6323
57.0833,114.7801
56.7497,114.8925
56.4060,114.9682
56.0560,115.0062
55.7040,115.0062
55.3540,114.9682
55.0103,114.8925
54.6767,114.7801
54.3572,114.6323
54.0556,114.4508
53.7753,114.2378
53.5198,113.9957
53.2919,113.7274
53.0944,113.4361
52.9295,113.1251
52.7992,112.7980
52.7050,112.4589
52.6481,112.1115
52.6290,111.7600
52.6481,111.4085
52.7050,111.0611
52.7992,110.7220
52.9295,110.3949
53.0944,110.0839
53.2919,109.7926
53.5198,109.5243
53.7753,109.2822
54.0556,109.0692
54.3572,108.8877
54.6767,108.7399
55.0103,108.6275
55.3540,108.5518
55.7040,108.5138
56.0560,108.5138
Z" /> 
<path style="fill:#000000; fill-opacity:1.0000; 
stroke:#000000; stroke-width:0.0000; stroke-opacity:1; 
stroke-linecap:round; stroke-linejoin:round;fill-rule:evenodd;"
d="M 38.2046,100.0652
38.2451,100.1228
38.2479,100.1932
37.9146,101.5266
37.9137,101.5288
37.9137,101.5299
37.7804,102.0061
37.7660,102.0387
37.7635,102.0409
37.7624,102.0441
37.6957,102.1393
37.6714,102.1653
37.6681,102.1666
37.6660,102.1694
37.5327,102.2646
37.5011,102.2810
37.4307,102.2844
37.3697,102.2493
37.3373,102.1867
37.3439,102.1166
37.3873,102.0612
37.5032,101.9784
37.5454,101.9182
37.6640,101.4944
37.3387,100.1932
37.3351,100.1578
37.3577,100.0911
37.4127,100.0472
37.4828,100.0400
37.5456,100.0718
37.5813,100.1326
37.7933,100.9808
38.0054,100.1326
38.0189,100.0996
38.0702,100.0514
38.1394,100.0386
Z" /> 
<path style="fill:#000000; fill-opacity:1.0000; 
stroke:#000000; stroke-width:0.0000; stroke-opacity:1; 
stroke-linecap:round; stroke-linejoin:round;fill-rule:evenodd;"
d="M 33.7786,99.3825
33.8318,99.4287
33.8517,99.4962
33.8517,101.4962
33.8466,101.5315
33.8085,101.5907
33.7445,101.6200
33.6747,101.6099
33.6628,101.5996
33.6622,101.5999
33.6609,101.6014
33.6573,101.6025
33.6344,101.6143
33.6134,101.6153
33.5933,101.6212
33.3267,101.6212
33.3224,101.6206
33.3205,101.6211
33.3169,101.6198
33.2914,101.6162
33.2738,101.6048
33.2540,101.5980
33.1207,101.5027
33.0950,101.4781
33.0937,101.4749
33.0909,101.4727
33.0243,101.3774
33.0094,101.3481
33.0087,101.3471
32.9420,101.1566
32.9352,101.1217
32.9359,101.1185
32.9350,101.1153
32.9350,101.0940
33.1850,101.0940
33.2390,101.2482
33.2834,101.3117
33.3667,101.3712
33.5533,101.3712
33.6017,101.3367
33.6017,100.3225
33.5533,100.2879
33.3667,100.2879
33.2834,100.3474
33.2390,100.4109
33.1850,100.5651
33.1850,101.0940
32.9350,101.0940
32.9350,100.5439
32.9401,100.5086
32.9418,100.5059
32.9420,100.5026
33.0087,100.3121
33.0239,100.2829
33.0243,100.2817
33.0909,100.1865
33.1153,100.1605
33.1185,100.1592
33.1207,100.1564
33.2540,100.0612
33.2578,100.0592
33.2591,100.0577
33.2627,100.0567
33.2856,100.0448
33.3066,100.0438
33.3267,100.0379
33.5933,100.0379
33.5976,100.0385
33.5995,100.0381
33.6017,100.0388
33.6017,99.4962
33.6067,99.4610
33.6448,99.4018
33.7089,99.3725
Z" /> 
<path style="fill:#000000; fill-opacity:1.0000; 
stroke:#000000; stroke-width:0.0000; stroke-opacity:1; 
stroke-linecap:round; stroke-linejoin:round;fill-rule:evenodd;"
d="M 34.7976,100.0385
34.7995,100.0381
34.8030,100.0393
34.8285,100.0430
34.8462,100.0543
34.8660,100.0612
34.9993,100.1564
35.0020,100.1590
35.0036,100.1596
35.0056,100.1625
35.0250,100.1810
35.0327,100.2001
35.0446,100.2168
35.1113,100.4073
35.1182,100.4422
35.1174,100.4455
35.1183,100.4486
35.1183,100.6391
35.1163,100.6532
35.1169,100.6578
35.1151,100.6618
35.1133,100.6743
35.0986,100.6971
35.0872,100.7216
35.0799,100.7263
35.0752,100.7336
35.0506,100.7448
35.0277,100.7593
34.4517,100.9239
34.4517,101.1893
34.4982,101.3223
34.5667,101.3712
34.7533,101.3712
34.8540,101.2993
34.8856,101.2829
34.9560,101.2795
35.0170,101.3146
35.0494,101.3772
35.0428,101.4473
34.9993,101.5027
34.8660,101.5980
34.8622,101.5999
34.8609,101.6014
34.8573,101.6025
34.8344,101.6143
34.8134,101.6153
34.7933,101.6212
34.5267,101.6212
34.5224,101.6206
34.5205,101.6211
34.5170,101.6198
34.4914,101.6162
34.4738,101.6048
34.4540,101.5980
34.3207,101.5027
34.3180,101.5002
34.3164,101.4995
34.3144,101.4967
34.2950,101.4781
34.2873,101.4590
34.2754,101.4423
34.2087,101.2518
34.2018,101.2169
34.2026,101.2137
34.2017,101.2105
34.2017,100.6639
34.4517,100.6639
34.8683,100.5448
34.8683,100.4699
34.8218,100.3368
34.7533,100.2879
34.5667,100.2879
34.4982,100.3368
34.4517,100.4699
34.4517,100.6639
34.2017,100.6639
34.2017,100.4486
34.2067,100.4134
34.2085,100.4106
34.2087,100.4073
34.2754,100.2168
34.2771,100.2136
34.2772,100.2119
34.2794,100.2091
34.2918,100.1853
34.3080,100.1726
34.3207,100.1564
34.4540,100.0612
34.4578,100.0592
34.4591,100.0577
34.4627,100.0567
34.4856,100.0448
34.5066,100.0438
34.5267,100.0379
34.7933,100.0379
Z" /> 
<path style="fill:#000000; fill-opacity:1.0000; 
stroke:#000000; stroke-width:0.0000; stroke-opacity:1; 
stroke-linecap:round; stroke-linejoin:round;fill-rule:evenodd;"
d="M 36.7309,100.0385
36.7328,100.0381
36.7364,100.0393
36.7619,100.0430
36.7795,100.0543
36.7993,100.0612
36.9327,100.1564
36.9353,100.1590
36.9369,100.1596
36.9390,100.1625
36.9584,100.1810
36.9660,100.2001
36.9780,100.2168
37.0446,100.4073
37.0515,100.4422
37.0507,100.4455
37.0517,100.4486
37.0517,101.4962
37.0466,101.5315
37.0085,101.5907
36.9445,101.6200
36.8747,101.6099
36.8628,101.5996
36.8622,101.5999
36.8609,101.6014
36.8573,101.6025
36.8344,101.6143
36.8134,101.6153
36.7933,101.6212
36.4600,101.6212
36.4558,101.6206
36.4539,101.6211
36.4503,101.6198
36.4248,101.6162
36.4071,101.6048
36.3873,101.5980
36.2540,101.5027
36.2513,101.5002
36.2497,101.4995
36.2477,101.4967
36.2283,101.4781
36.2207,101.4590
36.2087,101.4423
36.1420,101.2518
36.1352,101.2169
36.1359,101.2137
36.1350,101.2105
36.1350,101.1893
36.3850,101.1893
36.4316,101.3223
36.5001,101.3712
36.7533,101.3712
36.8017,101.3367
36.8017,100.8569
36.7933,100.8593
36.5001,100.8593
36.4316,100.9083
36.3850,101.0413
36.3850,101.1893
36.1350,101.1893
36.1350,101.0200
36.1401,100.9848
36.1418,100.9821
36.1420,100.9788
36.2087,100.7883
36.2104,100.7850
36.2106,100.7833
36.2127,100.7805
36.2251,100.7567
36.2413,100.7440
36.2540,100.7279
36.3873,100.6326
36.3911,100.6307
36.3924,100.6292
36.3961,100.6281
36.4189,100.6163
36.4399,100.6152
36.4600,100.6093
36.7533,100.6093
36.8017,100.5748
36.8017,100.4699
36.7551,100.3368
36.6866,100.2879
36.5001,100.2879
36.3993,100.3599
36.3677,100.3762
36.2974,100.3797
36.2363,100.3445
36.2040,100.2820
36.2106,100.2119
36.2540,100.1564
36.3873,100.0612
36.3911,100.0592
36.3924,100.0577
36.3961,100.0567
36.4189,100.0448
36.4399,100.0438
36.4600,100.0379
36.7267,100.0379
Z" /> 
<path style="fill:#000000; fill-opacity:1.0000; 
stroke:#000000; stroke-width:0.0000; stroke-opacity:1; 
stroke-linecap:round; stroke-linejoin:round;fill-rule:evenodd;"
d="M 35.6453,99.3825
35.6985,99.4287
35.7183,99.4962
35.7183,101.1893
35.7649,101.3223
35.8660,101.3945
35.8917,101.4191
35.9178,101.4845
35.9044,101.5537
35.8557,101.6046
35.7872,101.6211
35.7207,101.5980
35.5873,101.5027
35.5847,101.5002
35.5831,101.4995
35.5810,101.4967
35.5616,101.4781
35.5540,101.4590
35.5420,101.4423
35.4754,101.2518
35.4685,101.2169
35.4693,101.2137
35.4683,101.2105
35.4683,99.4962
35.4734,99.4610
35.5115,99.4018
35.5755,99.3725
Z" /> 
<path style="fill:#000000; fill-opacity:1.0000; 
stroke:#000000; stroke-width:0.0000; stroke-opacity:1; 
stroke-linecap:round; stroke-linejoin:round;fill-rule:evenodd;"
d="M 56.8396,100.0530
56.8895,100.1027
57.1467,100.5702
57.4038,100.1027
57.4252,100.0742
57.4871,100.0407
57.5574,100.0459
57.6136,100.0883
57.6380,100.1544
57.6229,100.2231
57.2893,100.8296
57.6229,101.4360
57.6354,101.4693
57.6306,101.5396
57.5885,101.5961
57.5226,101.6209
57.4538,101.6061
57.4038,101.5565
57.1467,101.0889
56.8895,101.5565
56.8681,101.5849
56.8062,101.6185
56.7360,101.6132
56.6797,101.5708
56.6553,101.5048
56.6705,101.4360
57.0040,100.8296
56.6705,100.2231
56.6579,100.1898
56.6627,100.1196
56.7048,100.0631
56.7707,100.0382
Z" /> 
<path style="fill:#000000; fill-opacity:1.0000; 
stroke:#000000; stroke-width:0.0000; stroke-opacity:1; 
stroke-linecap:round; stroke-linejoin:round;fill-rule:evenodd;"
d="M 54.7842,100.0385
54.7861,100.0381
54.7897,100.0393
54.8152,100.0430
54.8329,100.0543
54.8527,100.0612
54.9800,100.1521
55.1073,100.0612
55.1111,100.0592
55.1124,100.0577
55.1161,100.0567
55.1389,100.0448
55.1599,100.0438
55.1800,100.0379
55.3800,100.0379
55.3842,100.0385
55.3861,100.0381
55.3897,100.0393
55.4152,100.0430
55.4329,100.0543
55.4527,100.0612
55.5860,100.1564
55.5887,100.1590
55.5903,100.1596
55.5923,100.1625
55.6117,100.1810
55.6193,100.2001
55.6313,100.2168
55.6980,100.4073
55.7048,100.4422
55.7041,100.4455
55.7050,100.4486
55.7050,101.4962
55.6999,101.5315
55.6619,101.5907
55.5978,101.6200
55.5281,101.6099
55.4748,101.5638
55.4550,101.4962
55.4550,100.4699
55.4084,100.3368
55.3399,100.2879
55.2201,100.2879
55.1516,100.3368
55.1050,100.4699
55.1050,101.4962
55.0999,101.5315
55.0619,101.5907
54.9978,101.6200
54.9281,101.6099
54.8748,101.5638
54.8550,101.4962
54.8550,100.4699
54.8084,100.3368
54.7399,100.2879
54.6201,100.2879
54.5368,100.3474
54.5050,100.3928
54.5050,101.4962
54.4999,101.5315
54.4619,101.5907
54.3978,101.6200
54.3281,101.6099
54.2748,101.5638
54.2550,101.4962
54.2550,100.1629
54.2601,100.1277
54.2981,100.0684
54.3622,100.0392
54.4319,100.0492
54.4736,100.0853
54.5073,100.0612
54.5111,100.0592
54.5124,100.0577
54.5161,100.0567
54.5389,100.0448
54.5599,100.0438
54.5800,100.0379
54.7800,100.0379
Z" /> 
<path style="fill:#000000; fill-opacity:1.0000; 
stroke:#000000; stroke-width:0.0000; stroke-opacity:1; 
stroke-linecap:round; stroke-linejoin:round;fill-rule:evenodd;"
d="M 56.2986,100.0492
56.3518,100.0953
56.3717,100.1629
56.3717,101.4962
56.3666,101.5315
56.3285,101.5907
56.2645,101.6200
56.1947,101.6099
56.1415,101.5638
56.1217,101.4962
56.1217,100.1629
56.1267,100.1277
56.1648,100.0684
56.2289,100.0392
Z" /> 
<path style="fill:#000000; fill-opacity:1.0000; 
stroke:#000000; stroke-width:0.0000; stroke-opacity:1; 
stroke-linecap:round; stroke-linejoin:round;fill-rule:evenodd;"
d="M 56.2638,99.3774
56.2941,99.3806
56.2961,99.3822
56.2986,99.3825
56.3005,99.3842
56.3030,99.3847
56.3253,99.4055
56.3491,99.4246
56.4157,99.5198
56.4189,99.5261
56.4211,99.5281
56.4222,99.5326
56.4318,99.5515
56.4327,99.5743
56.4382,99.5964
56.4341,99.6088
56.4346,99.6219
56.4230,99.6416
56.4157,99.6632
56.3491,99.7584
56.3345,99.7739
56.3322,99.7779
56.3299,99.7790
56.3285,99.7812
56.3271,99.7818
56.3247,99.7843
56.2965,99.7959
56.2693,99.8096
56.2668,99.8094
56.2645,99.8104
56.2619,99.8101
56.2596,99.8110
56.2296,99.8055
56.1993,99.8024
56.1973,99.8008
56.1947,99.8004
56.1928,99.7987
56.1903,99.7983
56.1681,99.7774
56.1443,99.7584
56.0776,99.6632
56.0744,99.6569
56.0723,99.6548
56.0711,99.6504
56.0615,99.6314
56.0606,99.6086
56.0551,99.5865
56.0593,99.5741
56.0588,99.5610
56.0703,99.5414
56.0776,99.5198
56.1443,99.4246
56.1588,99.4091
56.1611,99.4051
56.1634,99.4039
56.1648,99.4018
56.1663,99.4011
56.1686,99.3986
56.1968,99.3871
56.2240,99.3733
56.2265,99.3736
56.2289,99.3725
56.2314,99.3729
56.2338,99.3719
Z" /> 
<path style="fill:#000000; fill-opacity:1.0000; 
stroke:#000000; stroke-width:0.0000; stroke-opacity:1; 
stroke-linecap:round; stroke-linejoin:round;fill-rule:evenodd;"
d="M 36.1280,87.7323
36.5002,87.8087
36.8627,87.9225
37.2119,88.0723
37.5441,88.2567
37.8560,88.4738
38.1443,88.7213
38.4061,88.9967
38.6387,89.2972
38.8397,89.6196
39.0070,89.9608
39.1390,90.3171
39.2342,90.6849
39.2918,91.0605
39.3110,91.4400
39.2918,91.8195
39.2342,92.1951
39.1390,92.5629
39.0070,92.9192
38.8397,93.2604
38.6387,93.5828
38.4061,93.8833
38.1443,94.1587
37.8560,94.4062
37.5441,94.6233
37.2119,94.8077
36.8627,94.9575
36.5002,95.0713
36.1280,95.1477
35.7500,95.1862
35.3700,95.1862
34.9920,95.1477
34.6198,95.0713
34.2573,94.9575
33.9081,94.8077
33.5759,94.6233
33.2640,94.4062
32.9757,94.1587
32.7139,93.8833
32.4813,93.5828
32.2803,93.2604
32.1130,92.9192
31.9810,92.5629
31.8858,92.1951
31.8282,91.8195
31.8090,91.4400
31.8282,91.0605
31.8858,90.6849
31.9810,90.3171
32.1130,89.9608
32.2803,89.6196
32.4813,89.2972
32.7139,88.9967
32.9757,88.7213
33.2640,88.4738
33.5759,88.2567
33.9081,88.0723
34.2573,87.9225
34.6198,87.8087
34.9920,87.7323
35.3700,87.6938
35.7500,87.6938
Z" /> 
<path style="fill:#000000; fill-opacity:1.0000; 
stroke:#000000; stroke-width:0.0000; stroke-opacity:1; 
stroke-linecap:round; stroke-linejoin:round;fill-rule:evenodd;"
d="M 56.4480,87.7323
56.8202,87.8087
57.1827,87.9225
57.5319,88.0723
57.8641,88.2567
58.1760,88.4738
58.4643,88.7213
58.7261,88.9967
58.9587,89.2972
59.1597,89.6196
59.3270,89.9608
59.4590,90.3171
59.5542,90.6849
59.6118,91.0605
59.6310,91.4400
59.6118,91.8195
59.5542,92.1951
59.4590,92.5629
59.3270,92.9192
59.1597,93.2604
58.9587,93.5828
58.7261,93.8833
58.4643,94.1587
58.1760,94.4062
57.8641,94.6233
57.5319,94.8077
57.1827,94.9575
56.8202,95.0713
56.4480,95.1477
56.0700,95.1862
55.6900,95.1862
55.3120,95.1477
54.9398,95.0713
54.5773,94.9575
54.2281,94.8077
53.8959,94.6233
53.5840,94.4062
53.2957,94.1587
53.0339,93.8833
52.8013,93.5828
52.6003,93.2604
52.4330,92.9192
52.3010,92.5629
52.2058,92.1951
52.1482,91.8195
52.1290,91.4400
52.1482,91.0605
52.2058,90.6849
52.3010,90.3171
52.4330,89.9608
52.6003,89.6196
52.8013,89.2972
53.0339,88.9967
53.2957,88.7213
53.5840,88.4738
53.8959,88.2567
54.2281,88.0723
54.5773,87.9225
54.9398,87.8087
55.3120,87.7323
55.6900,87.6938
56.0700,87.6938
Z" /> 
<path style="fill:#000000; fill-opacity:1.0000; 
stroke:#000000; stroke-width:0.0000; stroke-opacity:1; 
stroke-linecap:round; stroke-linejoin:round;fill-rule:evenodd;"
d="M 35.2309,79.7185
35.2328,79.7181
35.2364,79.7193
35.2619,79.7230
35.2795,79.7343
35.2993,79.7412
35.4327,79.8364
35.4584,79.8610
35.4845,79.9264
35.4710,79.9956
35.4223,80.0465
35.3539,80.0630
35.2873,80.0399
35.1866,79.9679
35.0001,79.9679
34.9168,80.0274
34.8723,80.0909
34.8183,80.2451
34.8183,80.7740
34.8723,80.9282
34.9168,80.9917
35.0001,81.0512
35.1866,81.0512
35.2873,80.9793
35.3189,80.9629
35.3893,80.9595
35.4503,80.9946
35.4827,81.0572
35.4761,81.1273
35.4327,81.1827
35.2993,81.2780
35.2955,81.2799
35.2942,81.2814
35.2906,81.2825
35.2677,81.2943
35.2468,81.2953
35.2267,81.3012
34.9600,81.3012
34.9558,81.3006
34.9539,81.3011
34.9503,81.2998
34.9248,81.2962
34.9071,81.2848
34.8873,81.2780
34.7540,81.1827
34.7283,81.1581
34.7270,81.1549
34.7243,81.1527
34.6576,81.0574
34.6428,81.0281
34.6420,81.0271
34.5754,80.8366
34.5685,80.8017
34.5693,80.7985
34.5683,80.7953
34.5683,80.2239
34.5734,80.1886
34.5752,80.1859
34.5754,80.1826
34.6420,79.9921
34.6572,79.9629
34.6576,79.9617
34.7243,79.8665
34.7486,79.8405
34.7518,79.8392
34.7540,79.8364
34.8873,79.7412
34.8911,79.7392
34.8924,79.7377
34.8961,79.7367
34.9189,79.7248
34.9399,79.7238
34.9600,79.7179
35.2267,79.7179
Z" /> 
<path style="fill:#000000; fill-opacity:1.0000; 
stroke:#000000; stroke-width:0.0000; stroke-opacity:1; 
stroke-linecap:round; stroke-linejoin:round;fill-rule:evenodd;"
d="M 36.5713,79.7452
36.6117,79.8028
36.6146,79.8732
36.2813,81.2066
36.2678,81.2395
36.2640,81.2431
36.2623,81.2480
36.2386,81.2670
36.2165,81.2877
36.2114,81.2887
36.2073,81.2920
36.1771,81.2951
36.1472,81.3006
36.1424,81.2986
36.1372,81.2991
36.1101,81.2854
36.0820,81.2740
36.0790,81.2697
36.0744,81.2673
36.0590,81.2411
36.0416,81.2163
36.0414,81.2111
36.0387,81.2066
35.7054,79.8732
35.7018,79.8378
35.7243,79.7711
35.7794,79.7272
35.8495,79.7200
35.9123,79.7518
35.9479,79.8126
36.1600,80.6608
36.3721,79.8126
36.3855,79.7796
36.4368,79.7314
36.5061,79.7186
Z" /> 
<path style="fill:#000000; fill-opacity:1.0000; 
stroke:#000000; stroke-width:0.0000; stroke-opacity:1; 
stroke-linecap:round; stroke-linejoin:round;fill-rule:evenodd;"
d="M 56.4480,67.4123
56.8202,67.4887
57.1827,67.6025
57.5319,67.7523
57.8641,67.9367
58.1760,68.1538
58.4643,68.4013
58.7261,68.6767
58.9587,68.9772
59.1597,69.2996
59.3270,69.6408
59.4590,69.9971
59.5542,70.3649
59.6118,70.7405
59.6310,71.1200
59.6118,71.4995
59.5542,71.8751
59.4590,72.2429
59.3270,72.5992
59.1597,72.9404
58.9587,73.2628
58.7261,73.5633
58.4643,73.8387
58.1760,74.0862
57.8641,74.3033
57.5319,74.4877
57.1827,74.6375
56.8202,74.7513
56.4480,74.8277
56.0700,74.8662
55.6900,74.8662
55.3120,74.8277
54.9398,74.7513
54.5773,74.6375
54.2281,74.4877
53.8959,74.3033
53.5840,74.0862
53.2957,73.8387
53.0339,73.5633
52.8013,73.2628
52.6003,72.9404
52.4330,72.5992
52.3010,72.2429
52.2058,71.8751
52.1482,71.4995
52.1290,71.1200
52.1482,70.7405
52.2058,70.3649
52.3010,69.9971
52.4330,69.6408
52.6003,69.2996
52.8013,68.9772
53.0339,68.6767
53.2957,68.4013
53.5840,68.1538
53.8959,67.9367
54.2281,67.7523
54.5773,67.6025
54.9398,67.4887
55.3120,67.4123
55.6900,67.3738
56.0700,67.3738
Z" /> 
<path style="fill:#000000; fill-opacity:1.0000; 
stroke:#000000; stroke-width:0.0000; stroke-opacity:1; 
stroke-linecap:round; stroke-linejoin:round;fill-rule:evenodd;"
d="M 36.0860,67.9118
36.4297,67.9875
36.7633,68.0999
37.0828,68.2477
37.3844,68.4292
37.6647,68.6422
37.9202,68.8843
38.1481,69.1526
38.3456,69.4439
38.5105,69.7549
38.6408,70.0820
38.7350,70.4211
38.7919,70.7685
38.8005,70.9267
38.8726,70.9950
50.8000,70.9950
50.8352,71.0001
50.8451,71.0064
50.8469,71.0068
50.8780,71.0275
50.8945,71.0381
50.9044,71.0599
50.9132,71.0731
50.9154,71.0839
50.9237,71.1022
50.9217,71.1160
50.9226,71.1200
50.9176,71.1450
50.9137,71.1719
50.8969,71.1913
50.8867,71.2067
50.8794,71.2115
50.8676,71.2252
50.8522,71.2297
50.8469,71.2332
50.8259,71.2374
50.8000,71.2450
50.7877,71.2450
38.8726,71.2450
38.8005,71.3133
38.7919,71.4715
38.7350,71.8189
38.6408,72.1580
38.5105,72.4851
38.3456,72.7961
38.1481,73.0874
37.9202,73.3557
37.6647,73.5978
37.3844,73.8108
37.0828,73.9923
36.7633,74.1401
36.4297,74.2525
36.0860,74.3282
35.7360,74.3662
35.3840,74.3662
35.0340,74.3282
34.6903,74.2525
34.3567,74.1401
34.0372,73.9923
33.7356,73.8108
33.4553,73.5978
33.1998,73.3557
32.9719,73.0874
32.7744,72.7961
32.6095,72.4851
32.4792,72.1580
32.3850,71.8189
32.3281,71.4715
32.3090,71.1200
32.3281,70.7685
32.3850,70.4211
32.4792,70.0820
32.6095,69.7549
32.7744,69.4439
32.9719,69.1526
33.1998,68.8843
33.4553,68.6422
33.7356,68.4292
34.0372,68.2477
34.3567,68.0999
34.6903,67.9875
35.0340,67.9118
35.3840,67.8738
35.7360,67.8738
Z" /> 
<path style="fill:#000000; fill-opacity:1.0000; 
stroke:#000000; stroke-width:0.0000; stroke-opacity:1; 
stroke-linecap:round; stroke-linejoin:round;fill-rule:evenodd;"
d="M 34.1642,59.3985
34.1661,59.3981
34.1697,59.3993
34.1952,59.4030
34.2129,59.4143
34.2327,59.4212
34.3660,59.5164
34.3687,59.5190
34.3703,59.5196
34.3723,59.5225
34.3917,59.5410
34.3993,59.5601
34.4113,59.5768
34.4780,59.7673
34.4848,59.8022
34.4841,59.8055
34.4850,59.8086
34.4850,59.9991
34.4830,60.0132
34.4836,60.0178
34.4817,60.0218
34.4799,60.0343
34.4653,60.0571
34.4539,60.0816
34.4465,60.0863
34.4419,60.0936
34.4172,60.1048
34.3943,60.1193
33.8183,60.2839
33.8183,60.5493
33.8649,60.6823
33.9334,60.7312
34.1199,60.7312
34.2207,60.6593
34.2523,60.6429
34.3226,60.6395
34.3837,60.6746
34.4160,60.7372
34.4094,60.8073
34.3660,60.8627
34.2327,60.9580
34.2289,60.9599
34.2276,60.9614
34.2239,60.9625
34.2011,60.9743
34.1801,60.9753
34.1600,60.9812
33.8933,60.9812
33.8891,60.9806
33.8872,60.9811
33.8836,60.9798
33.8581,60.9762
33.8405,60.9648
33.8207,60.9580
33.6873,60.8627
33.6847,60.8602
33.6831,60.8595
33.6810,60.8567
33.6616,60.8381
33.6540,60.8190
33.6420,60.8023
33.5754,60.6118
33.5685,60.5769
33.5693,60.5737
33.5683,60.5705
33.5683,60.0239
33.8183,60.0239
34.2350,59.9048
34.2350,59.8299
34.1884,59.6968
34.1199,59.6479
33.9334,59.6479
33.8649,59.6968
33.8183,59.8299
33.8183,60.0239
33.5683,60.0239
33.5683,59.8086
33.5734,59.7734
33.5752,59.7706
33.5754,59.7673
33.6420,59.5768
33.6437,59.5736
33.6439,59.5719
33.6460,59.5691
33.6584,59.5453
33.6746,59.5326
33.6873,59.5164
33.8207,59.4212
33.8245,59.4192
33.8258,59.4177
33.8294,59.4167
33.8523,59.4048
33.8732,59.4038
33.8933,59.3979
34.1600,59.3979
Z" /> 
<path style="fill:#000000; fill-opacity:1.0000; 
stroke:#000000; stroke-width:0.0000; stroke-opacity:1; 
stroke-linecap:round; stroke-linejoin:round;fill-rule:evenodd;"
d="M 35.4309,59.3985
35.4328,59.3981
35.4364,59.3993
35.4619,59.4030
35.4795,59.4143
35.4993,59.4212
35.6327,59.5164
35.6584,59.5410
35.6845,59.6064
35.6710,59.6756
35.6223,59.7265
35.5539,59.7430
35.4873,59.7199
35.3866,59.6479
35.2001,59.6479
35.1168,59.7074
35.0723,59.7709
35.0183,59.9251
35.0183,60.4540
35.0723,60.6082
35.1168,60.6717
35.2001,60.7312
35.3866,60.7312
35.4873,60.6593
35.5189,60.6429
35.5893,60.6395
35.6503,60.6746
35.6827,60.7372
35.6761,60.8073
35.6327,60.8627
35.4993,60.9580
35.4955,60.9599
35.4942,60.9614
35.4906,60.9625
35.4677,60.9743
35.4468,60.9753
35.4267,60.9812
35.1600,60.9812
35.1558,60.9806
35.1539,60.9811
35.1503,60.9798
35.1248,60.9762
35.1071,60.9648
35.0873,60.9580
34.9540,60.8627
34.9283,60.8381
34.9270,60.8349
34.9243,60.8327
34.8576,60.7374
34.8428,60.7081
34.8420,60.7071
34.7754,60.5166
34.7685,60.4817
34.7693,60.4785
34.7683,60.4753
34.7683,59.9039
34.7734,59.8686
34.7752,59.8659
34.7754,59.8626
34.8420,59.6721
34.8572,59.6429
34.8576,59.6417
34.9243,59.5465
34.9486,59.5205
34.9518,59.5192
34.9540,59.5164
35.0873,59.4212
35.0911,59.4192
35.0924,59.4177
35.0961,59.4167
35.1189,59.4048
35.1399,59.4038
35.1600,59.3979
35.4267,59.3979
Z" /> 
<path style="fill:#000000; fill-opacity:1.0000; 
stroke:#000000; stroke-width:0.0000; stroke-opacity:1; 
stroke-linecap:round; stroke-linejoin:round;fill-rule:evenodd;"
d="M 38.1642,59.3985
38.1661,59.3981
38.1697,59.3993
38.1952,59.4030
38.2129,59.4143
38.2327,59.4212
38.3660,59.5164
38.3917,59.5410
38.4178,59.6064
38.4044,59.6756
38.3557,59.7265
38.2872,59.7430
38.2207,59.7199
38.1199,59.6479
37.9334,59.6479
37.8501,59.7074
37.8056,59.7709
37.7517,59.9251
37.7517,60.4540
37.8056,60.6082
37.8501,60.6717
37.9334,60.7312
38.1199,60.7312
38.2207,60.6593
38.2523,60.6429
38.3226,60.6395
38.3837,60.6746
38.4160,60.7372
38.4094,60.8073
38.3660,60.8627
38.2327,60.9580
38.2289,60.9599
38.2276,60.9614
38.2239,60.9625
38.2011,60.9743
38.1801,60.9753
38.1600,60.9812
37.8933,60.9812
37.8891,60.9806
37.8872,60.9811
37.8836,60.9798
37.8581,60.9762
37.8405,60.9648
37.8207,60.9580
37.6873,60.8627
37.6616,60.8381
37.6603,60.8349
37.6576,60.8327
37.5909,60.7374
37.5761,60.7081
37.5754,60.7071
37.5087,60.5166
37.5018,60.4817
37.5026,60.4785
37.5017,60.4753
37.5017,59.9039
37.5067,59.8686
37.5085,59.8659
37.5087,59.8626
37.5754,59.6721
37.5905,59.6429
37.5909,59.6417
37.6576,59.5465
37.6819,59.5205
37.6852,59.5192
37.6873,59.5164
37.8207,59.4212
37.8245,59.4192
37.8258,59.4177
37.8294,59.4167
37.8523,59.4048
37.8732,59.4038
37.8933,59.3979
38.1600,59.3979
Z" /> 
<path style="fill:#000000; fill-opacity:1.0000; 
stroke:#000000; stroke-width:0.0000; stroke-opacity:1; 
stroke-linecap:round; stroke-linejoin:round;fill-rule:evenodd;"
d="M 33.3285,59.4030
33.3878,59.4410
33.4171,59.5051
33.4070,59.5748
33.3609,59.6281
33.2933,59.6479
33.2001,59.6479
33.1168,59.7074
33.0723,59.7709
33.0183,59.9251
33.0183,60.8562
33.0133,60.8915
32.9752,60.9507
32.9111,60.9800
32.8414,60.9699
32.7882,60.9238
32.7683,60.8562
32.7683,59.5229
32.7734,59.4877
32.8115,59.4284
32.8755,59.3992
32.9453,59.4092
32.9985,59.4553
33.0056,59.4796
33.0873,59.4212
33.0911,59.4192
33.0924,59.4177
33.0961,59.4167
33.1189,59.4048
33.1399,59.4038
33.1600,59.3979
33.2933,59.3979
Z" /> 
<path style="fill:#000000; fill-opacity:1.0000; 
stroke:#000000; stroke-width:0.0000; stroke-opacity:1; 
stroke-linecap:round; stroke-linejoin:round;fill-rule:evenodd;"
d="M 36.2119,59.4092
36.2652,59.4553
36.2850,59.5229
36.2850,60.8562
36.2799,60.8915
36.2419,60.9507
36.1778,60.9800
36.1081,60.9699
36.0548,60.9238
36.0350,60.8562
36.0350,59.5229
36.0401,59.4877
36.0781,59.4284
36.1422,59.3992
Z" /> 
<path style="fill:#000000; fill-opacity:1.0000; 
stroke:#000000; stroke-width:0.0000; stroke-opacity:1; 
stroke-linecap:round; stroke-linejoin:round;fill-rule:evenodd;"
d="M 37.2619,59.4030
37.3211,59.4410
37.3504,59.5051
37.3404,59.5748
37.2942,59.6281
37.2267,59.6479
37.1334,59.6479
37.0501,59.7074
37.0056,59.7709
36.9517,59.9251
36.9517,60.8562
36.9466,60.8915
36.9085,60.9507
36.8445,60.9800
36.7747,60.9699
36.7215,60.9238
36.7017,60.8562
36.7017,59.5229
36.7067,59.4877
36.7448,59.4284
36.8089,59.3992
36.8786,59.4092
36.9318,59.4553
36.9389,59.4796
37.0207,59.4212
37.0245,59.4192
37.0258,59.4177
37.0294,59.4167
37.0523,59.4048
37.0732,59.4038
37.0933,59.3979
37.2267,59.3979
Z" /> 
<path style="fill:#000000; fill-opacity:1.0000; 
stroke:#000000; stroke-width:0.0000; stroke-opacity:1; 
stroke-linecap:round; stroke-linejoin:round;fill-rule:evenodd;"
d="M 36.1771,58.7374
36.2074,58.7406
36.2094,58.7422
36.2119,58.7425
36.2139,58.7442
36.2164,58.7447
36.2386,58.7655
36.2624,58.7846
36.3291,58.8798
36.3322,58.8861
36.3344,58.8881
36.3355,58.8926
36.3451,58.9115
36.3460,58.9343
36.3516,58.9564
36.3474,58.9688
36.3479,58.9819
36.3363,59.0016
36.3291,59.0232
36.2624,59.1184
36.2479,59.1339
36.2455,59.1379
36.2432,59.1390
36.2419,59.1412
36.2404,59.1418
36.2381,59.1443
36.2099,59.1559
36.1827,59.1696
36.1801,59.1694
36.1778,59.1704
36.1753,59.1701
36.1729,59.1710
36.1429,59.1655
36.1126,59.1624
36.1106,59.1608
36.1081,59.1604
36.1061,59.1587
36.1036,59.1583
36.0814,59.1374
36.0576,59.1184
35.9909,59.0232
35.9878,59.0169
35.9856,59.0148
35.9845,59.0104
35.9749,58.9914
35.9740,58.9686
35.9684,58.9465
35.9726,58.9341
35.9721,58.9210
35.9836,58.9014
35.9909,58.8798
36.0576,58.7846
36.0721,58.7691
36.0745,58.7651
36.0768,58.7639
36.0781,58.7618
36.0796,58.7611
36.0819,58.7586
36.1101,58.7471
36.1373,58.7333
36.1399,58.7336
36.1422,58.7325
36.1447,58.7329
36.1471,58.7319
Z" /> 
<path style="fill:#000000; fill-opacity:1.0000; 
stroke:#000000; stroke-width:0.0000; stroke-opacity:1; 
stroke-linecap:round; stroke-linejoin:round;fill-rule:evenodd;"
d="M 56.4480,47.0923
56.8202,47.1687
57.1827,47.2825
57.5319,47.4323
57.8641,47.6167
58.1760,47.8338
58.4643,48.0813
58.7261,48.3567
58.9587,48.6572
59.1597,48.9796
59.3270,49.3208
59.4590,49.6771
59.5542,50.0449
59.6118,50.4205
59.6310,50.8000
59.6118,51.1795
59.5542,51.5551
59.4590,51.9229
59.3270,52.2792
59.1597,52.6204
58.9587,52.9428
58.7261,53.2433
58.4643,53.5187
58.1760,53.7662
57.8641,53.9833
57.5319,54.1677
57.1827,54.3175
56.8202,54.4313
56.4480,54.5077
56.0700,54.5462
55.6900,54.5462
55.3120,54.5077
54.9398,54.4313
54.5773,54.3175
54.2281,54.1677
53.8959,53.9833
53.5840,53.7662
53.2957,53.5187
53.0339,53.2433
52.8013,52.9428
52.6003,52.6204
52.4330,52.2792
52.3010,51.9229
52.2058,51.5551
52.1482,51.1795
52.1290,50.8000
52.1482,50.4205
52.2058,50.0449
52.3010,49.6771
52.4330,49.3208
52.6003,48.9796
52.8013,48.6572
53.0339,48.3567
53.2957,48.0813
53.5840,47.8338
53.8959,47.6167
54.2281,47.4323
54.5773,47.2825
54.9398,47.1687
55.3120,47.0923
55.6900,47.0538
56.0700,47.0538
Z" /> 
<path style="fill:#000000; fill-opacity:1.0000; 
stroke:#000000; stroke-width:0.0000; stroke-opacity:1; 
stroke-linecap:round; stroke-linejoin:round;fill-rule:evenodd;"
d="M 36.0860,47.5918
36.4297,47.6675
36.7633,47.7799
37.0828,47.9277
37.3844,48.1092
37.6647,48.3222
37.9202,48.5643
38.1481,48.8326
38.3456,49.1239
38.5105,49.4349
38.6408,49.7620
38.7350,50.1011
38.7919,50.4485
38.8005,50.6067
38.8726,50.6750
50.8000,50.6750
50.8352,50.6801
50.8451,50.6864
50.8469,50.6868
50.8780,50.7075
50.8945,50.7181
50.9044,50.7399
50.9132,50.7531
50.9154,50.7639
50.9237,50.7822
50.9217,50.7960
50.9226,50.8000
50.9176,50.8250
50.9137,50.8519
50.8969,50.8713
50.8867,50.8867
50.8794,50.8915
50.8676,50.9052
50.8522,50.9097
50.8469,50.9132
50.8259,50.9174
50.8000,50.9250
50.7877,50.9250
38.8726,50.9250
38.8005,50.9933
38.7919,51.1515
38.7350,51.4989
38.6408,51.8380
38.5105,52.1651
38.3456,52.4761
38.1481,52.7674
37.9202,53.0357
37.6647,53.2778
37.3844,53.4908
37.0828,53.6723
36.7633,53.8201
36.4297,53.9325
36.0860,54.0082
35.7360,54.0462
35.3840,54.0462
35.0340,54.0082
34.6903,53.9325
34.3567,53.8201
34.0372,53.6723
33.7356,53.4908
33.4553,53.2778
33.1998,53.0357
32.9719,52.7674
32.7744,52.4761
32.6095,52.1651
32.4792,51.8380
32.3850,51.4989
32.3281,51.1515
32.3090,50.8000
32.3281,50.4485
32.3850,50.1011
32.4792,49.7620
32.6095,49.4349
32.7744,49.1239
32.9719,48.8326
33.1998,48.5643
33.4553,48.3222
33.7356,48.1092
34.0372,47.9277
34.3567,47.7799
34.6903,47.6675
35.0340,47.5918
35.3840,47.5538
35.7360,47.5538
Z" /> 
<path style="fill:#000000; fill-opacity:1.0000; 
stroke:#000000; stroke-width:0.0000; stroke-opacity:1; 
stroke-linecap:round; stroke-linejoin:round;fill-rule:evenodd;"
d="M 32.9631,28.7540
33.0234,28.7540
33.0892,28.7639
33.1583,28.7693
33.2139,28.7827
33.2673,28.7907
33.3370,28.8122
33.4102,28.8298
33.4575,28.8494
33.5031,28.8635
33.5746,28.8979
33.6495,28.9289
33.6880,28.9525
33.7253,28.9705
33.7963,29.0189
33.8704,29.0643
33.9001,29.0897
33.9292,29.1095
33.9970,29.1724
34.0674,29.2326
34.0888,29.2576
34.1100,29.2773
34.1719,29.3549
34.2357,29.4296
34.2497,29.4524
34.2638,29.4702
34.3171,29.5624
34.3711,29.6505
34.3790,29.6696
34.3872,29.6838
34.4290,29.7905
34.4702,29.8898
34.4736,29.9040
34.4773,29.9135
34.5052,30.0354
34.5307,30.1417
34.5313,30.1501
34.5322,30.1540
34.5437,30.3070
34.5510,30.4000
34.5437,30.4930
34.5322,30.6460
34.5313,30.6499
34.5307,30.6583
34.5052,30.7646
34.4773,30.8865
34.4736,30.8960
34.4702,30.9102
34.4290,31.0096
34.3872,31.1162
34.3790,31.1304
34.3711,31.1495
34.3171,31.2376
34.2638,31.3298
34.2497,31.3475
34.2357,31.3704
34.1719,31.4451
34.1100,31.5227
34.0888,31.5424
34.0674,31.5674
33.9969,31.6276
33.9292,31.6905
33.9001,31.7103
33.8704,31.7357
33.7963,31.7811
33.7253,31.8295
33.6880,31.8475
33.6495,31.8711
33.5746,31.9021
33.5031,31.9365
33.4575,31.9506
33.4102,31.9702
33.3370,31.9878
33.2673,32.0093
33.2140,32.0173
33.1583,32.0307
33.0892,32.0361
33.0234,32.0460
32.9631,32.0460
32.9000,32.0510
32.8369,32.0460
32.7766,32.0460
32.7108,32.0361
32.6417,32.0307
32.5860,32.0173
32.5327,32.0093
32.4630,31.9878
32.3898,31.9702
32.3425,31.9506
32.2969,31.9365
32.2254,31.9021
32.1505,31.8711
32.1120,31.8475
32.0747,31.8295
32.0037,31.7811
31.9296,31.7357
31.8999,31.7103
31.8708,31.6905
31.8030,31.6276
31.7326,31.5674
31.7112,31.5424
31.6900,31.5227
31.6281,31.4451
31.5643,31.3704
31.5503,31.3476
31.5362,31.3298
31.4829,31.2376
31.4289,31.1495
31.4210,31.1304
31.4128,31.1162
31.3709,31.0095
31.3298,30.9102
31.3264,30.8960
31.3227,30.8865
31.2948,30.7645
31.2693,30.6583
31.2687,30.6499
31.2678,30.6460
31.2563,30.4927
31.2490,30.4000
31.2563,30.3073
31.2678,30.1540
31.2687,30.1501
31.2693,30.1417
31.2948,30.0355
31.3227,29.9135
31.3264,29.9040
31.3298,29.8898
31.3709,29.7905
31.4128,29.6838
31.4210,29.6696
31.4289,29.6505
31.4829,29.5624
31.5362,29.4702
31.5503,29.4524
31.5643,29.4296
31.6281,29.3549
31.6900,29.2773
31.7112,29.2576
31.7326,29.2326
31.8030,29.1724
31.8708,29.1095
31.8999,29.0897
31.9296,29.0643
32.0037,29.0189
32.0747,28.9705
32.1120,28.9525
32.1505,28.9289
32.2254,28.8979
32.2969,28.8635
32.3425,28.8494
32.3898,28.8298
32.4630,28.8122
32.5327,28.7907
32.5861,28.7827
32.6417,28.7693
32.7108,28.7639
32.7766,28.7540
32.8369,28.7540
32.9000,28.7490
Z" /> 
<path style="fill:#000000; fill-opacity:1.0000; 
stroke:#000000; stroke-width:0.0000; stroke-opacity:1; 
stroke-linecap:round; stroke-linejoin:round;fill-rule:evenodd;"
d="M 42.0099,29.6752
42.0363,29.6784
42.0363,29.6784
42.0476,29.6797
42.0576,29.6850
42.0578,29.6851
42.0729,29.6906
42.0766,29.6915
42.0766,29.6915
42.0840,29.6931
42.0907,29.6965
42.0907,29.6965
42.3586,29.8304
42.3586,29.8304
42.3697,29.8360
42.3884,29.8484
42.3937,29.8505
42.3963,29.8536
42.4049,29.8593
42.4238,29.8856
42.4269,29.8896
42.4480,29.9143
42.5908,30.2000
42.6050,30.2397
42.6048,30.2511
42.6048,30.2512
42.6066,30.2673
42.6093,30.2782
42.6093,30.5639
42.6042,30.6058
42.5989,30.6159
42.5983,30.6179
42.5978,30.6191
42.5970,30.6210
42.5950,30.6332
42.5813,30.6512
42.5758,30.6599
42.5653,30.6800
42.5583,30.6848
42.5581,30.6851
42.5534,30.6887
42.5519,30.6901
42.5444,30.6999
42.5239,30.7096
42.5150,30.7147
42.4963,30.7276
42.4879,30.7286
42.4862,30.7293
42.4795,30.7310
42.4755,30.7323
42.4686,30.7355
42.0488,30.8195
41.2374,30.9818
41.1807,31.0509
41.1807,31.3648
41.1874,31.3931
41.2694,31.5572
41.2981,31.5859
41.4622,31.6680
41.4906,31.6747
41.9494,31.6747
41.9778,31.6680
42.2132,31.5503
42.2422,31.5399
42.2422,31.5399
42.2529,31.5361
42.2642,31.5363
42.2643,31.5363
42.3243,31.5375
42.3243,31.5375
42.3366,31.5377
42.4100,31.5781
42.4562,31.6480
42.4647,31.7313
42.4335,31.8090
42.3697,31.8633
42.0840,32.0062
42.0442,32.0204
42.0329,32.0201
42.0327,32.0202
42.0167,32.0220
42.0057,32.0247
41.9981,32.0247
41.4343,32.0247
41.4343,32.0247
41.3924,32.0196
41.3823,32.0143
41.3822,32.0143
41.3671,32.0087
41.3560,32.0062
41.0703,31.8633
41.0516,31.8510
41.0463,31.8488
41.0437,31.8457
41.0351,31.8400
41.0244,31.8252
41.0162,31.8138
41.0131,31.8097
40.9969,31.7908
40.9969,31.7908
40.9920,31.7851
40.9887,31.7783
40.8492,31.4993
40.8492,31.4993
40.8388,31.4703
40.8388,31.4703
40.8350,31.4596
40.8352,31.4483
40.8352,31.4481
40.8334,31.4321
40.8325,31.4284
40.8325,31.4284
40.8307,31.4211
40.8307,30.5429
41.1807,30.5429
41.2722,30.6179
42.2053,30.4313
42.2593,30.3209
42.2593,30.3195
42.1938,30.1885
42.1706,30.1421
42.1419,30.1134
41.9778,30.0313
41.9494,30.0247
41.4906,30.0247
41.4622,30.0313
41.2981,30.1134
41.2694,30.1421
41.1874,30.3062
41.1807,30.3345
41.1807,30.5429
40.8307,30.5429
40.8307,30.2782
40.8320,30.2673
40.8344,30.2476
40.8344,30.2476
40.8358,30.2363
40.8411,30.2263
40.8411,30.2261
40.8467,30.2110
40.8475,30.2074
40.8475,30.2073
40.8492,30.2000
40.8526,30.1932
40.8526,30.1932
40.9865,29.9254
40.9865,29.9254
40.9920,29.9143
41.0044,29.8956
41.0065,29.8903
41.0097,29.8876
41.0153,29.8791
41.0245,29.8724
41.0245,29.8724
41.0416,29.8601
41.0456,29.8570
41.0646,29.8409
41.0703,29.8360
41.0771,29.8326
41.0771,29.8326
41.3560,29.6931
41.3560,29.6931
41.3851,29.6828
41.3851,29.6828
41.3958,29.6790
41.4071,29.6792
41.4073,29.6791
41.4233,29.6774
41.4269,29.6765
41.4269,29.6765
41.4343,29.6747
42.0057,29.6747
Z" /> 
<path style="fill:#000000; fill-opacity:1.0000; 
stroke:#000000; stroke-width:0.0000; stroke-opacity:1; 
stroke-linecap:round; stroke-linejoin:round;fill-rule:evenodd;"
d="M 44.7242,29.6752
44.7506,29.6784
44.7506,29.6784
44.7619,29.6797
44.7719,29.6850
44.7721,29.6851
44.7872,29.6906
44.7909,29.6915
44.7909,29.6915
44.7983,29.6931
44.8050,29.6965
44.8050,29.6965
45.0840,29.8360
45.0840,29.8360
45.0840,29.8360
45.1192,29.8593
45.1681,29.9273
45.1798,30.0102
45.1517,30.0891
45.0901,30.1458
45.0092,30.1675
44.9275,30.1490
44.8929,30.1318
44.6921,30.0313
44.6637,30.0247
44.2048,30.0247
44.1765,30.0313
43.9756,30.1318
43.9593,30.1436
43.8710,30.2318
43.8593,30.2482
43.7588,30.4490
43.7521,30.4774
43.7521,31.2220
43.7588,31.2503
43.8593,31.4512
43.8710,31.4675
43.9593,31.5558
43.9756,31.5675
44.1765,31.6680
44.2048,31.6747
44.6637,31.6747
44.6921,31.6680
44.9274,31.5503
44.9275,31.5503
44.9565,31.5399
44.9565,31.5399
44.9672,31.5361
44.9785,31.5363
44.9785,31.5363
45.0386,31.5375
45.0386,31.5375
45.0509,31.5377
45.1243,31.5781
45.1705,31.6480
45.1790,31.7313
45.1478,31.8090
45.0840,31.8633
44.7983,32.0062
44.7784,32.0133
44.7692,32.0165
44.7692,32.0165
44.7585,32.0204
44.7472,32.0201
44.7470,32.0202
44.7310,32.0220
44.7200,32.0247
44.7124,32.0247
44.1486,32.0247
44.1486,32.0247
44.1067,32.0196
44.0966,32.0143
44.0965,32.0143
44.0813,32.0087
44.0703,32.0062
44.0635,32.0028
44.0635,32.0028
43.7846,31.8633
43.7846,31.8633
43.7846,31.8633
43.7725,31.8553
43.7589,31.8463
43.7589,31.8463
43.7494,31.8400
43.7452,31.8342
43.7391,31.8305
43.5963,31.6877
43.5702,31.6545
43.5681,31.6476
43.5635,31.6422
43.5601,31.6354
43.5601,31.6354
43.4206,31.3565
43.4138,31.3374
43.4064,31.3168
43.4067,31.3054
43.4066,31.3053
43.4048,31.2892
43.4040,31.2856
43.4039,31.2856
43.4021,31.2782
43.4021,30.4211
43.4035,30.4101
43.4059,30.3905
43.4059,30.3905
43.4072,30.3792
43.4125,30.3691
43.4126,30.3690
43.4181,30.3539
43.4189,30.3502
43.4190,30.3502
43.4206,30.3428
43.4240,30.3361
43.4240,30.3361
43.5635,30.0571
43.5635,30.0571
43.5805,30.0314
43.5805,30.0314
43.5868,30.0219
43.5926,30.0177
43.5963,30.0116
43.6016,30.0063
43.6016,30.0063
43.7391,29.8688
43.7391,29.8688
43.7391,29.8688
43.7468,29.8627
43.7634,29.8498
43.7634,29.8498
43.7723,29.8428
43.7791,29.8406
43.7846,29.8360
43.7913,29.8326
43.7914,29.8326
44.0703,29.6931
44.0703,29.6931
44.0993,29.6828
44.0993,29.6828
44.1100,29.6790
44.1214,29.6792
44.1216,29.6791
44.1376,29.6774
44.1412,29.6765
44.1412,29.6765
44.1486,29.6747
44.7200,29.6747
Z" /> 
<path style="fill:#000000; fill-opacity:1.0000; 
stroke:#000000; stroke-width:0.0000; stroke-opacity:1; 
stroke-linecap:round; stroke-linejoin:round;fill-rule:evenodd;"
d="M 49.8670,29.6752
49.8935,29.6784
49.8935,29.6784
49.9047,29.6797
49.9148,29.6850
49.9150,29.6851
49.9301,29.6906
49.9337,29.6915
49.9337,29.6915
49.9411,29.6931
49.9479,29.6965
49.9479,29.6965
50.2268,29.8360
50.2268,29.8360
50.2268,29.8360
50.2268,29.8360
50.2476,29.8498
50.2620,29.8593
50.2662,29.8651
50.2723,29.8688
50.4152,30.0116
50.4412,30.0448
50.4433,30.0517
50.4480,30.0571
50.5908,30.3428
50.6050,30.3826
50.6048,30.3939
50.6048,30.3941
50.6066,30.4101
50.6093,30.4211
50.6093,31.2782
50.6042,31.3201
50.5989,31.3302
50.5989,31.3303
50.5933,31.3455
50.5908,31.3565
50.5874,31.3633
50.5874,31.3633
50.4502,31.6377
50.4480,31.6422
50.4247,31.6774
50.4189,31.6816
50.4152,31.6877
50.2723,31.8305
50.2391,31.8566
50.2323,31.8587
50.2268,31.8633
49.9411,32.0062
49.9014,32.0204
49.8900,32.0201
49.8899,32.0202
49.8738,32.0220
49.8629,32.0247
49.8553,32.0247
49.4343,32.0247
49.4343,32.0247
49.3924,32.0196
49.3823,32.0143
49.3822,32.0143
49.3671,32.0087
49.3560,32.0062
49.3493,32.0028
49.3493,32.0028
49.0703,31.8633
49.0703,31.8633
49.0703,31.8633
49.0582,31.8553
49.0446,31.8463
49.0446,31.8463
49.0351,31.8400
49.0309,31.8342
49.0248,31.8305
48.8820,31.6877
48.8560,31.6545
48.8538,31.6476
48.8492,31.6422
48.8458,31.6354
48.8458,31.6354
48.7063,31.3565
48.6995,31.3374
48.6922,31.3168
48.6924,31.3054
48.6923,31.3053
48.6906,31.2892
48.6897,31.2856
48.6897,31.2856
48.6879,31.2782
48.6879,31.2220
49.0379,31.2220
49.0445,31.2503
49.1450,31.4512
49.1568,31.4675
49.2450,31.5558
49.2614,31.5675
49.4622,31.6680
49.4906,31.6747
49.8066,31.6747
49.8349,31.6680
50.0358,31.5675
50.0521,31.5558
50.1404,31.4675
50.1522,31.4511
50.2526,31.2503
50.2593,31.2220
50.2593,30.4774
50.2526,30.4490
50.1522,30.2482
50.1404,30.2318
50.0521,30.1436
50.0358,30.1318
49.8349,30.0313
49.8066,30.0247
49.4906,30.0247
49.4622,30.0313
49.2614,30.1318
49.2450,30.1436
49.1568,30.2318
49.1450,30.2482
49.0445,30.4490
49.0379,30.4774
49.0379,31.2220
48.6879,31.2220
48.6879,30.4211
48.6892,30.4101
48.6916,30.3905
48.6916,30.3905
48.6929,30.3792
48.6982,30.3691
48.6983,30.3690
48.7038,30.3539
48.7047,30.3502
48.7047,30.3502
48.7063,30.3428
48.7097,30.3361
48.7097,30.3361
48.8492,30.0571
48.8492,30.0571
48.8662,30.0314
48.8662,30.0314
48.8725,30.0219
48.8783,30.0177
48.8820,30.0116
48.8873,30.0063
48.8873,30.0063
49.0248,29.8688
49.0248,29.8688
49.0248,29.8688
49.0326,29.8627
49.0491,29.8498
49.0491,29.8498
49.0580,29.8428
49.0649,29.8406
49.0703,29.8360
49.0771,29.8326
49.0771,29.8326
49.3560,29.6931
49.3560,29.6931
49.3851,29.6828
49.3851,29.6828
49.3958,29.6790
49.4071,29.6792
49.4073,29.6791
49.4233,29.6774
49.4269,29.6765
49.4269,29.6765
49.4343,29.6747
49.8629,29.6747
Z" /> 
<path style="fill:#000000; fill-opacity:1.0000; 
stroke:#000000; stroke-width:0.0000; stroke-opacity:1; 
stroke-linecap:round; stroke-linejoin:round;fill-rule:evenodd;"
d="M 46.3205,28.6789
46.3793,28.7013
46.3793,28.7013
46.3908,28.7056
46.4114,28.7288
46.4382,28.7591
46.4382,28.7591
46.4464,28.7683
46.4664,28.8497
46.4664,28.8572
46.4664,29.6459
46.5786,29.7200
46.6417,29.6931
46.6708,29.6828
46.6708,29.6828
46.6815,29.6790
46.6928,29.6792
46.6930,29.6791
46.7090,29.6774
46.7126,29.6765
46.7127,29.6765
46.7200,29.6747
47.1486,29.6747
47.1528,29.6752
47.1792,29.6784
47.1792,29.6784
47.1905,29.6797
47.2005,29.6850
47.2007,29.6851
47.2158,29.6906
47.2194,29.6915
47.2195,29.6915
47.2268,29.6931
47.2336,29.6965
47.2336,29.6965
47.5014,29.8304
47.5014,29.8304
47.5125,29.8360
47.5312,29.8484
47.5365,29.8505
47.5392,29.8536
47.5477,29.8593
47.5667,29.8856
47.5698,29.8896
47.5908,29.9143
47.7337,30.2000
47.7478,30.2397
47.7476,30.2511
47.7476,30.2512
47.7494,30.2673
47.7521,30.2782
47.7521,31.8497
47.7471,31.8915
47.7081,31.9657
47.6392,32.0133
47.5560,32.0234
47.4777,31.9937
47.4433,31.9548
47.4304,31.9402
47.4303,31.9402
47.4222,31.9310
47.4202,31.9227
47.4040,31.8570
47.4040,31.8570
47.4021,31.8497
47.4021,30.3345
47.3955,30.3062
47.3680,30.2512
47.3134,30.1421
47.2847,30.1134
47.1206,30.0313
47.0923,30.0247
46.7763,30.0247
46.7479,30.0313
46.5471,30.1318
46.5307,30.1436
46.4855,30.1888
46.4664,30.2348
46.4664,31.8497
46.4613,31.8915
46.4224,31.9657
46.3535,32.0133
46.2703,32.0234
46.1920,31.9937
46.1576,31.9548
46.1446,31.9402
46.1446,31.9402
46.1365,31.9310
46.1344,31.9227
46.1182,31.8570
46.1182,31.8570
46.1164,31.8497
46.1164,28.8497
46.1215,28.8078
46.1268,28.7977
46.1268,28.7977
46.1547,28.7445
46.1547,28.7445
46.1604,28.7336
46.1674,28.7288
46.1674,28.7288
46.2192,28.6930
46.2192,28.6930
46.2294,28.6860
46.2378,28.6850
46.2378,28.6850
46.3003,28.6774
46.3003,28.6774
46.3125,28.6759
Z" /> 
</g>
</g> 
</svg>
