<?xml version="1.0" standalone="no"?>
 <!DOCTYPE svg PUBLIC "-//W3C//DTD SVG 1.1//EN" 
 "http://www.w3.org/Graphics/SVG/1.1/DTD/svg11.dtd"> 
<svg
  xmlns:svg="http://www.w3.org/2000/svg"
  xmlns="http://www.w3.org/2000/svg"
  xmlns:xlink="http://www.w3.org/1999/xlink"
  version="1.1"
  width="297.0022mm" height="210.0072mm" viewBox="0.0000 0.0000 297.0022 210.0072">
<title>SVG Image created as mount-B_Paste.svg date 2023/11/06 21:18:11 </title>
  <desc>Image generated by PCBNEW </desc>
<g style="fill:#000000; fill-opacity:1.0000;stroke:#000000; stroke-opacity:1.0000;
stroke-linecap:round; stroke-linejoin:round;"
 transform="translate(0 0) scale(1 1)">
</g>
<g style="fill:#000000; fill-opacity:0.0; 
stroke:#000000; stroke-width:0.0000; stroke-opacity:1; 
stroke-linecap:round; stroke-linejoin:round;">
<g >
</g>
<g >
</g>
<g >
</g>
<g >
</g>
<g >
</g>
<g >
</g>
<g >
</g>
<g >
</g>
<g >
</g>
<g >
</g>
<g >
</g>
<g >
</g>
<g >
</g>
<g >
</g>
<g >
</g>
<g >
</g>
<g >
</g>
<g >
</g>
<g >
</g>
<g >
</g>
<g >
</g>
<g >
</g>
<g >
</g>
<g >
</g>
<g style="fill:#000000; fill-opacity:0.0; 
stroke:#000000; stroke-width:0.0000; stroke-opacity:1; 
stroke-linecap:round; stroke-linejoin:round;">
</g>
<g style="fill:#000000; fill-opacity:0.0; 
stroke:#000000; stroke-width:0.0000; stroke-opacity:1; 
stroke-linecap:round; stroke-linejoin:round;">
</g>
<g style="fill:#000000; fill-opacity:1.0000; 
stroke:#000000; stroke-width:0.0000; stroke-opacity:1; 
stroke-linecap:round; stroke-linejoin:round;">
<path style="fill:#000000; fill-opacity:1.0000; 
stroke:#000000; stroke-width:0.0000; stroke-opacity:1; 
stroke-linecap:round; stroke-linejoin:round;fill-rule:evenodd;"
d="M 73.7280,68.4470
73.7109,68.5331
73.6621,68.6061
73.5891,68.6549
73.5030,68.6720
73.0530,68.6720
72.9669,68.6549
72.8939,68.6061
72.8451,68.5331
72.8280,68.4470
72.8280,67.6970
72.8451,67.6109
72.8939,67.5379
72.9669,67.4891
73.0530,67.4720
73.5030,67.4720
73.5891,67.4891
73.6621,67.5379
73.7109,67.6109
73.7280,67.6970
Z" /> 
<path style="fill:#000000; fill-opacity:1.0000; 
stroke:#000000; stroke-width:0.0000; stroke-opacity:1; 
stroke-linecap:round; stroke-linejoin:round;fill-rule:evenodd;"
d="M 70.4280,68.4470
70.4109,68.5331
70.3621,68.6061
70.2891,68.6549
70.2030,68.6720
69.7530,68.6720
69.6669,68.6549
69.5939,68.6061
69.5451,68.5331
69.5280,68.4470
69.5280,67.6970
69.5451,67.6109
69.5939,67.5379
69.6669,67.4891
69.7530,67.4720
70.2030,67.4720
70.2891,67.4891
70.3621,67.5379
70.4109,67.6109
70.4280,67.6970
Z" /> 
</g>
<g >
</g>
<g style="fill:#000000; fill-opacity:1.0000; 
stroke:#000000; stroke-width:0.0000; stroke-opacity:1; 
stroke-linecap:round; stroke-linejoin:round;">
<path style="fill:#000000; fill-opacity:1.0000; 
stroke:#000000; stroke-width:0.0000; stroke-opacity:1; 
stroke-linecap:round; stroke-linejoin:round;fill-rule:evenodd;"
d="M 89.9840,81.1470
89.9669,81.2331
89.9181,81.3061
89.8451,81.3549
89.7590,81.3720
89.3090,81.3720
89.2229,81.3549
89.1499,81.3061
89.1011,81.2331
89.0840,81.1470
89.0840,80.3970
89.1011,80.3109
89.1499,80.2379
89.2229,80.1891
89.3090,80.1720
89.7590,80.1720
89.8451,80.1891
89.9181,80.2379
89.9669,80.3109
89.9840,80.3970
Z" /> 
<path style="fill:#000000; fill-opacity:1.0000; 
stroke:#000000; stroke-width:0.0000; stroke-opacity:1; 
stroke-linecap:round; stroke-linejoin:round;fill-rule:evenodd;"
d="M 86.6840,81.1470
86.6669,81.2331
86.6181,81.3061
86.5451,81.3549
86.4590,81.3720
86.0090,81.3720
85.9229,81.3549
85.8499,81.3061
85.8011,81.2331
85.7840,81.1470
85.7840,80.3970
85.8011,80.3109
85.8499,80.2379
85.9229,80.1891
86.0090,80.1720
86.4590,80.1720
86.5451,80.1891
86.6181,80.2379
86.6669,80.3109
86.6840,80.3970
Z" /> 
</g>
<g >
</g>
<g style="fill:#000000; fill-opacity:1.0000; 
stroke:#000000; stroke-width:0.0000; stroke-opacity:1; 
stroke-linecap:round; stroke-linejoin:round;">
<path style="fill:#000000; fill-opacity:1.0000; 
stroke:#000000; stroke-width:0.0000; stroke-opacity:1; 
stroke-linecap:round; stroke-linejoin:round;fill-rule:evenodd;"
d="M 73.8540,109.0870
73.8369,109.1731
73.7881,109.2461
73.7151,109.2949
73.6290,109.3120
73.1790,109.3120
73.0929,109.2949
73.0199,109.2461
72.9711,109.1731
72.9540,109.0870
72.9540,108.3370
72.9711,108.2509
73.0199,108.1779
73.0929,108.1291
73.1790,108.1120
73.6290,108.1120
73.7151,108.1291
73.7881,108.1779
73.8369,108.2509
73.8540,108.3370
Z" /> 
<path style="fill:#000000; fill-opacity:1.0000; 
stroke:#000000; stroke-width:0.0000; stroke-opacity:1; 
stroke-linecap:round; stroke-linejoin:round;fill-rule:evenodd;"
d="M 70.5540,109.0870
70.5369,109.1731
70.4881,109.2461
70.4151,109.2949
70.3290,109.3120
69.8790,109.3120
69.7929,109.2949
69.7199,109.2461
69.6711,109.1731
69.6540,109.0870
69.6540,108.3370
69.6711,108.2509
69.7199,108.1779
69.7929,108.1291
69.8790,108.1120
70.3290,108.1120
70.4151,108.1291
70.4881,108.1779
70.5369,108.2509
70.5540,108.3370
Z" /> 
</g>
<g >
</g>
<g style="fill:#000000; fill-opacity:1.0000; 
stroke:#000000; stroke-width:0.0000; stroke-opacity:1; 
stroke-linecap:round; stroke-linejoin:round;">
<path style="fill:#000000; fill-opacity:1.0000; 
stroke:#000000; stroke-width:0.0000; stroke-opacity:1; 
stroke-linecap:round; stroke-linejoin:round;fill-rule:evenodd;"
d="M 88.9680,98.9270
88.9509,99.0131
88.9021,99.0861
88.8291,99.1349
88.7430,99.1520
88.2930,99.1520
88.2069,99.1349
88.1339,99.0861
88.0851,99.0131
88.0680,98.9270
88.0680,98.1770
88.0851,98.0909
88.1339,98.0179
88.2069,97.9691
88.2930,97.9520
88.7430,97.9520
88.8291,97.9691
88.9021,98.0179
88.9509,98.0909
88.9680,98.1770
Z" /> 
<path style="fill:#000000; fill-opacity:1.0000; 
stroke:#000000; stroke-width:0.0000; stroke-opacity:1; 
stroke-linecap:round; stroke-linejoin:round;fill-rule:evenodd;"
d="M 85.6680,98.9270
85.6509,99.0131
85.6021,99.0861
85.5291,99.1349
85.4430,99.1520
84.9930,99.1520
84.9069,99.1349
84.8339,99.0861
84.7851,99.0131
84.7680,98.9270
84.7680,98.1770
84.7851,98.0909
84.8339,98.0179
84.9069,97.9691
84.9930,97.9520
85.4430,97.9520
85.5291,97.9691
85.6021,98.0179
85.6509,98.0909
85.6680,98.1770
Z" /> 
</g>
<g >
</g>
<g style="fill:#000000; fill-opacity:1.0000; 
stroke:#000000; stroke-width:0.0000; stroke-opacity:1; 
stroke-linecap:round; stroke-linejoin:round;">
<path style="fill:#000000; fill-opacity:1.0000; 
stroke:#000000; stroke-width:0.0000; stroke-opacity:1; 
stroke-linecap:round; stroke-linejoin:round;fill-rule:evenodd;"
d="M 85.7840,151.0090
85.8011,150.9229
85.8499,150.8499
85.9229,150.8011
86.0090,150.7840
86.4590,150.7840
86.5451,150.8011
86.6181,150.8499
86.6669,150.9229
86.6840,151.0090
86.6840,151.7590
86.6669,151.8451
86.6181,151.9181
86.5451,151.9669
86.4590,151.9840
86.0090,151.9840
85.9229,151.9669
85.8499,151.9181
85.8011,151.8451
85.7840,151.7590
Z" /> 
<path style="fill:#000000; fill-opacity:1.0000; 
stroke:#000000; stroke-width:0.0000; stroke-opacity:1; 
stroke-linecap:round; stroke-linejoin:round;fill-rule:evenodd;"
d="M 89.0840,151.0090
89.1011,150.9229
89.1499,150.8499
89.2229,150.8011
89.3090,150.7840
89.7590,150.7840
89.8451,150.8011
89.9181,150.8499
89.9669,150.9229
89.9840,151.0090
89.9840,151.7590
89.9669,151.8451
89.9181,151.9181
89.8451,151.9669
89.7590,151.9840
89.3090,151.9840
89.2229,151.9669
89.1499,151.9181
89.1011,151.8451
89.0840,151.7590
Z" /> 
</g>
<g >
</g>
<g style="fill:#000000; fill-opacity:1.0000; 
stroke:#000000; stroke-width:0.0000; stroke-opacity:1; 
stroke-linecap:round; stroke-linejoin:round;">
<path style="fill:#000000; fill-opacity:1.0000; 
stroke:#000000; stroke-width:0.0000; stroke-opacity:1; 
stroke-linecap:round; stroke-linejoin:round;fill-rule:evenodd;"
d="M 65.9720,144.4050
65.9891,144.3189
66.0379,144.2459
66.1109,144.1971
66.1970,144.1800
66.6470,144.1800
66.7331,144.1971
66.8061,144.2459
66.8549,144.3189
66.8720,144.4050
66.8720,145.1550
66.8549,145.2411
66.8061,145.3141
66.7331,145.3629
66.6470,145.3800
66.1970,145.3800
66.1109,145.3629
66.0379,145.3141
65.9891,145.2411
65.9720,145.1550
Z" /> 
<path style="fill:#000000; fill-opacity:1.0000; 
stroke:#000000; stroke-width:0.0000; stroke-opacity:1; 
stroke-linecap:round; stroke-linejoin:round;fill-rule:evenodd;"
d="M 69.2720,144.4050
69.2891,144.3189
69.3379,144.2459
69.4109,144.1971
69.4970,144.1800
69.9470,144.1800
70.0331,144.1971
70.1061,144.2459
70.1549,144.3189
70.1720,144.4050
70.1720,145.1550
70.1549,145.2411
70.1061,145.3141
70.0331,145.3629
69.9470,145.3800
69.4970,145.3800
69.4109,145.3629
69.3379,145.3141
69.2891,145.2411
69.2720,145.1550
Z" /> 
</g>
<g >
</g>
<g style="fill:#000000; fill-opacity:1.0000; 
stroke:#000000; stroke-width:0.0000; stroke-opacity:1; 
stroke-linecap:round; stroke-linejoin:round;">
<path style="fill:#000000; fill-opacity:1.0000; 
stroke:#000000; stroke-width:0.0000; stroke-opacity:1; 
stroke-linecap:round; stroke-linejoin:round;fill-rule:evenodd;"
d="M 71.3360,70.4610
71.3934,70.4724
71.4421,70.5049
71.4746,70.5536
71.4860,70.6110
71.4860,71.7860
71.4746,71.8434
71.4421,71.8921
71.3934,71.9246
71.3360,71.9360
71.0360,71.9360
70.9786,71.9246
70.9299,71.8921
70.8974,71.8434
70.8860,71.7860
70.8860,70.6110
70.8974,70.5536
70.9299,70.5049
70.9786,70.4724
71.0360,70.4610
Z" /> 
<path style="fill:#000000; fill-opacity:1.0000; 
stroke:#000000; stroke-width:0.0000; stroke-opacity:1; 
stroke-linecap:round; stroke-linejoin:round;fill-rule:evenodd;"
d="M 73.2360,70.4610
73.2934,70.4724
73.3421,70.5049
73.3746,70.5536
73.3860,70.6110
73.3860,71.7860
73.3746,71.8434
73.3421,71.8921
73.2934,71.9246
73.2360,71.9360
72.9360,71.9360
72.8786,71.9246
72.8299,71.8921
72.7974,71.8434
72.7860,71.7860
72.7860,70.6110
72.7974,70.5536
72.8299,70.5049
72.8786,70.4724
72.9360,70.4610
Z" /> 
<path style="fill:#000000; fill-opacity:1.0000; 
stroke:#000000; stroke-width:0.0000; stroke-opacity:1; 
stroke-linecap:round; stroke-linejoin:round;fill-rule:evenodd;"
d="M 72.2860,72.3360
72.3434,72.3474
72.3921,72.3799
72.4246,72.4286
72.4360,72.4860
72.4360,73.6610
72.4246,73.7184
72.3921,73.7671
72.3434,73.7996
72.2860,73.8110
71.9860,73.8110
71.9286,73.7996
71.8799,73.7671
71.8474,73.7184
71.8360,73.6610
71.8360,72.4860
71.8474,72.4286
71.8799,72.3799
71.9286,72.3474
71.9860,72.3360
Z" /> 
</g>
<g >
</g>
<g style="fill:#000000; fill-opacity:1.0000; 
stroke:#000000; stroke-width:0.0000; stroke-opacity:1; 
stroke-linecap:round; stroke-linejoin:round;">
<path style="fill:#000000; fill-opacity:1.0000; 
stroke:#000000; stroke-width:0.0000; stroke-opacity:1; 
stroke-linecap:round; stroke-linejoin:round;fill-rule:evenodd;"
d="M 87.5920,70.9690
87.6494,70.9804
87.6981,71.0129
87.7306,71.0616
87.7420,71.1190
87.7420,72.2940
87.7306,72.3514
87.6981,72.4001
87.6494,72.4326
87.5920,72.4440
87.2920,72.4440
87.2346,72.4326
87.1859,72.4001
87.1534,72.3514
87.1420,72.2940
87.1420,71.1190
87.1534,71.0616
87.1859,71.0129
87.2346,70.9804
87.2920,70.9690
Z" /> 
<path style="fill:#000000; fill-opacity:1.0000; 
stroke:#000000; stroke-width:0.0000; stroke-opacity:1; 
stroke-linecap:round; stroke-linejoin:round;fill-rule:evenodd;"
d="M 89.4920,70.9690
89.5494,70.9804
89.5981,71.0129
89.6306,71.0616
89.6420,71.1190
89.6420,72.2940
89.6306,72.3514
89.5981,72.4001
89.5494,72.4326
89.4920,72.4440
89.1920,72.4440
89.1346,72.4326
89.0859,72.4001
89.0534,72.3514
89.0420,72.2940
89.0420,71.1190
89.0534,71.0616
89.0859,71.0129
89.1346,70.9804
89.1920,70.9690
Z" /> 
<path style="fill:#000000; fill-opacity:1.0000; 
stroke:#000000; stroke-width:0.0000; stroke-opacity:1; 
stroke-linecap:round; stroke-linejoin:round;fill-rule:evenodd;"
d="M 88.5420,72.8440
88.5994,72.8554
88.6481,72.8879
88.6806,72.9366
88.6920,72.9940
88.6920,74.1690
88.6806,74.2264
88.6481,74.2751
88.5994,74.3076
88.5420,74.3190
88.2420,74.3190
88.1846,74.3076
88.1359,74.2751
88.1034,74.2264
88.0920,74.1690
88.0920,72.9940
88.1034,72.9366
88.1359,72.8879
88.1846,72.8554
88.2420,72.8440
Z" /> 
</g>
<g >
</g>
<g style="fill:#000000; fill-opacity:1.0000; 
stroke:#000000; stroke-width:0.0000; stroke-opacity:1; 
stroke-linecap:round; stroke-linejoin:round;">
<path style="fill:#000000; fill-opacity:1.0000; 
stroke:#000000; stroke-width:0.0000; stroke-opacity:1; 
stroke-linecap:round; stroke-linejoin:round;fill-rule:evenodd;"
d="M 71.3360,111.1010
71.3934,111.1124
71.4421,111.1449
71.4746,111.1936
71.4860,111.2510
71.4860,112.4260
71.4746,112.4834
71.4421,112.5321
71.3934,112.5646
71.3360,112.5760
71.0360,112.5760
70.9786,112.5646
70.9299,112.5321
70.8974,112.4834
70.8860,112.4260
70.8860,111.2510
70.8974,111.1936
70.9299,111.1449
70.9786,111.1124
71.0360,111.1010
Z" /> 
<path style="fill:#000000; fill-opacity:1.0000; 
stroke:#000000; stroke-width:0.0000; stroke-opacity:1; 
stroke-linecap:round; stroke-linejoin:round;fill-rule:evenodd;"
d="M 73.2360,111.1010
73.2934,111.1124
73.3421,111.1449
73.3746,111.1936
73.3860,111.2510
73.3860,112.4260
73.3746,112.4834
73.3421,112.5321
73.2934,112.5646
73.2360,112.5760
72.9360,112.5760
72.8786,112.5646
72.8299,112.5321
72.7974,112.4834
72.7860,112.4260
72.7860,111.2510
72.7974,111.1936
72.8299,111.1449
72.8786,111.1124
72.9360,111.1010
Z" /> 
<path style="fill:#000000; fill-opacity:1.0000; 
stroke:#000000; stroke-width:0.0000; stroke-opacity:1; 
stroke-linecap:round; stroke-linejoin:round;fill-rule:evenodd;"
d="M 72.2860,112.9760
72.3434,112.9874
72.3921,113.0199
72.4246,113.0686
72.4360,113.1260
72.4360,114.3010
72.4246,114.3584
72.3921,114.4071
72.3434,114.4396
72.2860,114.4510
71.9860,114.4510
71.9286,114.4396
71.8799,114.4071
71.8474,114.3584
71.8360,114.3010
71.8360,113.1260
71.8474,113.0686
71.8799,113.0199
71.9286,112.9874
71.9860,112.9760
Z" /> 
</g>
<g >
</g>
<g style="fill:#000000; fill-opacity:1.0000; 
stroke:#000000; stroke-width:0.0000; stroke-opacity:1; 
stroke-linecap:round; stroke-linejoin:round;">
<path style="fill:#000000; fill-opacity:1.0000; 
stroke:#000000; stroke-width:0.0000; stroke-opacity:1; 
stroke-linecap:round; stroke-linejoin:round;fill-rule:evenodd;"
d="M 86.5760,104.4970
86.6334,104.5084
86.6821,104.5409
86.7146,104.5896
86.7260,104.6470
86.7260,105.8220
86.7146,105.8794
86.6821,105.9281
86.6334,105.9606
86.5760,105.9720
86.2760,105.9720
86.2186,105.9606
86.1699,105.9281
86.1374,105.8794
86.1260,105.8220
86.1260,104.6470
86.1374,104.5896
86.1699,104.5409
86.2186,104.5084
86.2760,104.4970
Z" /> 
<path style="fill:#000000; fill-opacity:1.0000; 
stroke:#000000; stroke-width:0.0000; stroke-opacity:1; 
stroke-linecap:round; stroke-linejoin:round;fill-rule:evenodd;"
d="M 88.4760,104.4970
88.5334,104.5084
88.5821,104.5409
88.6146,104.5896
88.6260,104.6470
88.6260,105.8220
88.6146,105.8794
88.5821,105.9281
88.5334,105.9606
88.4760,105.9720
88.1760,105.9720
88.1186,105.9606
88.0699,105.9281
88.0374,105.8794
88.0260,105.8220
88.0260,104.6470
88.0374,104.5896
88.0699,104.5409
88.1186,104.5084
88.1760,104.4970
Z" /> 
<path style="fill:#000000; fill-opacity:1.0000; 
stroke:#000000; stroke-width:0.0000; stroke-opacity:1; 
stroke-linecap:round; stroke-linejoin:round;fill-rule:evenodd;"
d="M 87.5260,106.3720
87.5834,106.3834
87.6321,106.4159
87.6646,106.4646
87.6760,106.5220
87.6760,107.6970
87.6646,107.7544
87.6321,107.8031
87.5834,107.8356
87.5260,107.8470
87.2260,107.8470
87.1686,107.8356
87.1199,107.8031
87.0874,107.7544
87.0760,107.6970
87.0760,106.5220
87.0874,106.4646
87.1199,106.4159
87.1686,106.3834
87.2260,106.3720
Z" /> 
</g>
<g >
</g>
<g style="fill:#000000; fill-opacity:1.0000; 
stroke:#000000; stroke-width:0.0000; stroke-opacity:1; 
stroke-linecap:round; stroke-linejoin:round;">
<path style="fill:#000000; fill-opacity:1.0000; 
stroke:#000000; stroke-width:0.0000; stroke-opacity:1; 
stroke-linecap:round; stroke-linejoin:round;fill-rule:evenodd;"
d="M 86.5760,145.6450
86.6334,145.6564
86.6821,145.6889
86.7146,145.7376
86.7260,145.7950
86.7260,146.9700
86.7146,147.0274
86.6821,147.0761
86.6334,147.1086
86.5760,147.1200
86.2760,147.1200
86.2186,147.1086
86.1699,147.0761
86.1374,147.0274
86.1260,146.9700
86.1260,145.7950
86.1374,145.7376
86.1699,145.6889
86.2186,145.6564
86.2760,145.6450
Z" /> 
<path style="fill:#000000; fill-opacity:1.0000; 
stroke:#000000; stroke-width:0.0000; stroke-opacity:1; 
stroke-linecap:round; stroke-linejoin:round;fill-rule:evenodd;"
d="M 88.4760,145.6450
88.5334,145.6564
88.5821,145.6889
88.6146,145.7376
88.6260,145.7950
88.6260,146.9700
88.6146,147.0274
88.5821,147.0761
88.5334,147.1086
88.4760,147.1200
88.1760,147.1200
88.1186,147.1086
88.0699,147.0761
88.0374,147.0274
88.0260,146.9700
88.0260,145.7950
88.0374,145.7376
88.0699,145.6889
88.1186,145.6564
88.1760,145.6450
Z" /> 
<path style="fill:#000000; fill-opacity:1.0000; 
stroke:#000000; stroke-width:0.0000; stroke-opacity:1; 
stroke-linecap:round; stroke-linejoin:round;fill-rule:evenodd;"
d="M 87.5260,147.5200
87.5834,147.5314
87.6321,147.5639
87.6646,147.6126
87.6760,147.6700
87.6760,148.8450
87.6646,148.9024
87.6321,148.9511
87.5834,148.9836
87.5260,148.9950
87.2260,148.9950
87.1686,148.9836
87.1199,148.9511
87.0874,148.9024
87.0760,148.8450
87.0760,147.6700
87.0874,147.6126
87.1199,147.5639
87.1686,147.5314
87.2260,147.5200
Z" /> 
</g>
<g >
</g>
<g style="fill:#000000; fill-opacity:1.0000; 
stroke:#000000; stroke-width:0.0000; stroke-opacity:1; 
stroke-linecap:round; stroke-linejoin:round;">
<path style="fill:#000000; fill-opacity:1.0000; 
stroke:#000000; stroke-width:0.0000; stroke-opacity:1; 
stroke-linecap:round; stroke-linejoin:round;fill-rule:evenodd;"
d="M 67.7800,151.7410
67.8374,151.7524
67.8861,151.7849
67.9186,151.8336
67.9300,151.8910
67.9300,153.0660
67.9186,153.1234
67.8861,153.1721
67.8374,153.2046
67.7800,153.2160
67.4800,153.2160
67.4226,153.2046
67.3739,153.1721
67.3414,153.1234
67.3300,153.0660
67.3300,151.8910
67.3414,151.8336
67.3739,151.7849
67.4226,151.7524
67.4800,151.7410
Z" /> 
<path style="fill:#000000; fill-opacity:1.0000; 
stroke:#000000; stroke-width:0.0000; stroke-opacity:1; 
stroke-linecap:round; stroke-linejoin:round;fill-rule:evenodd;"
d="M 69.6800,151.7410
69.7374,151.7524
69.7861,151.7849
69.8186,151.8336
69.8300,151.8910
69.8300,153.0660
69.8186,153.1234
69.7861,153.1721
69.7374,153.2046
69.6800,153.2160
69.3800,153.2160
69.3226,153.2046
69.2739,153.1721
69.2414,153.1234
69.2300,153.0660
69.2300,151.8910
69.2414,151.8336
69.2739,151.7849
69.3226,151.7524
69.3800,151.7410
Z" /> 
<path style="fill:#000000; fill-opacity:1.0000; 
stroke:#000000; stroke-width:0.0000; stroke-opacity:1; 
stroke-linecap:round; stroke-linejoin:round;fill-rule:evenodd;"
d="M 68.7300,153.6160
68.7874,153.6274
68.8361,153.6599
68.8686,153.7086
68.8800,153.7660
68.8800,154.9410
68.8686,154.9984
68.8361,155.0471
68.7874,155.0796
68.7300,155.0910
68.4300,155.0910
68.3726,155.0796
68.3239,155.0471
68.2914,154.9984
68.2800,154.9410
68.2800,153.7660
68.2914,153.7086
68.3239,153.6599
68.3726,153.6274
68.4300,153.6160
Z" /> 
</g>
<g >
</g>
<g style="fill:#000000; fill-opacity:1.0000; 
stroke:#000000; stroke-width:0.0000; stroke-opacity:1; 
stroke-linecap:round; stroke-linejoin:round;">
<path style="fill:#000000; fill-opacity:1.0000; 
stroke:#000000; stroke-width:0.0000; stroke-opacity:1; 
stroke-linecap:round; stroke-linejoin:round;fill-rule:evenodd;"
d="M 68.6560,71.5700
68.6370,71.6657
68.5828,71.7468
68.5017,71.8010
68.4060,71.8200
67.7060,71.8200
67.6103,71.8010
67.5292,71.7468
67.4750,71.6657
67.4560,71.5700
67.4560,70.6700
67.4750,70.5743
67.5292,70.4932
67.6103,70.4390
67.7060,70.4200
68.4060,70.4200
68.5017,70.4390
68.5828,70.4932
68.6370,70.5743
68.6560,70.6700
Z" /> 
<path style="fill:#000000; fill-opacity:1.0000; 
stroke:#000000; stroke-width:0.0000; stroke-opacity:1; 
stroke-linecap:round; stroke-linejoin:round;fill-rule:evenodd;"
d="M 66.6560,71.5700
66.6370,71.6657
66.5828,71.7468
66.5017,71.8010
66.4060,71.8200
65.7060,71.8200
65.6103,71.8010
65.5292,71.7468
65.4750,71.6657
65.4560,71.5700
65.4560,70.6700
65.4750,70.5743
65.5292,70.4932
65.6103,70.4390
65.7060,70.4200
66.4060,70.4200
66.5017,70.4390
66.5828,70.4932
66.6370,70.5743
66.6560,70.6700
Z" /> 
</g>
<g >
</g>
<g style="fill:#000000; fill-opacity:1.0000; 
stroke:#000000; stroke-width:0.0000; stroke-opacity:1; 
stroke-linecap:round; stroke-linejoin:round;">
<path style="fill:#000000; fill-opacity:1.0000; 
stroke:#000000; stroke-width:0.0000; stroke-opacity:1; 
stroke-linecap:round; stroke-linejoin:round;fill-rule:evenodd;"
d="M 89.9920,69.0300
89.9730,69.1257
89.9188,69.2068
89.8377,69.2610
89.7420,69.2800
89.0420,69.2800
88.9463,69.2610
88.8652,69.2068
88.8110,69.1257
88.7920,69.0300
88.7920,68.1300
88.8110,68.0343
88.8652,67.9532
88.9463,67.8990
89.0420,67.8800
89.7420,67.8800
89.8377,67.8990
89.9188,67.9532
89.9730,68.0343
89.9920,68.1300
Z" /> 
<path style="fill:#000000; fill-opacity:1.0000; 
stroke:#000000; stroke-width:0.0000; stroke-opacity:1; 
stroke-linecap:round; stroke-linejoin:round;fill-rule:evenodd;"
d="M 87.9920,69.0300
87.9730,69.1257
87.9188,69.2068
87.8377,69.2610
87.7420,69.2800
87.0420,69.2800
86.9463,69.2610
86.8652,69.2068
86.8110,69.1257
86.7920,69.0300
86.7920,68.1300
86.8110,68.0343
86.8652,67.9532
86.9463,67.8990
87.0420,67.8800
87.7420,67.8800
87.8377,67.8990
87.9188,67.9532
87.9730,68.0343
87.9920,68.1300
Z" /> 
</g>
<g >
</g>
<g style="fill:#000000; fill-opacity:1.0000; 
stroke:#000000; stroke-width:0.0000; stroke-opacity:1; 
stroke-linecap:round; stroke-linejoin:round;">
<path style="fill:#000000; fill-opacity:1.0000; 
stroke:#000000; stroke-width:0.0000; stroke-opacity:1; 
stroke-linecap:round; stroke-linejoin:round;fill-rule:evenodd;"
d="M 65.9640,73.7180
65.9830,73.6223
66.0372,73.5412
66.1183,73.4870
66.2140,73.4680
66.9140,73.4680
67.0097,73.4870
67.0908,73.5412
67.1450,73.6223
67.1640,73.7180
67.1640,74.6180
67.1450,74.7137
67.0908,74.7948
67.0097,74.8490
66.9140,74.8680
66.2140,74.8680
66.1183,74.8490
66.0372,74.7948
65.9830,74.7137
65.9640,74.6180
Z" /> 
<path style="fill:#000000; fill-opacity:1.0000; 
stroke:#000000; stroke-width:0.0000; stroke-opacity:1; 
stroke-linecap:round; stroke-linejoin:round;fill-rule:evenodd;"
d="M 67.9640,73.7180
67.9830,73.6223
68.0372,73.5412
68.1183,73.4870
68.2140,73.4680
68.9140,73.4680
69.0097,73.4870
69.0908,73.5412
69.1450,73.6223
69.1640,73.7180
69.1640,74.6180
69.1450,74.7137
69.0908,74.7948
69.0097,74.8490
68.9140,74.8680
68.2140,74.8680
68.1183,74.8490
68.0372,74.7948
67.9830,74.7137
67.9640,74.6180
Z" /> 
</g>
<g >
</g>
<g style="fill:#000000; fill-opacity:1.0000; 
stroke:#000000; stroke-width:0.0000; stroke-opacity:1; 
stroke-linecap:round; stroke-linejoin:round;">
<path style="fill:#000000; fill-opacity:1.0000; 
stroke:#000000; stroke-width:0.0000; stroke-opacity:1; 
stroke-linecap:round; stroke-linejoin:round;fill-rule:evenodd;"
d="M 85.7760,76.2580
85.7950,76.1623
85.8492,76.0812
85.9303,76.0270
86.0260,76.0080
86.7260,76.0080
86.8217,76.0270
86.9028,76.0812
86.9570,76.1623
86.9760,76.2580
86.9760,77.1580
86.9570,77.2537
86.9028,77.3348
86.8217,77.3890
86.7260,77.4080
86.0260,77.4080
85.9303,77.3890
85.8492,77.3348
85.7950,77.2537
85.7760,77.1580
Z" /> 
<path style="fill:#000000; fill-opacity:1.0000; 
stroke:#000000; stroke-width:0.0000; stroke-opacity:1; 
stroke-linecap:round; stroke-linejoin:round;fill-rule:evenodd;"
d="M 87.7760,76.2580
87.7950,76.1623
87.8492,76.0812
87.9303,76.0270
88.0260,76.0080
88.7260,76.0080
88.8217,76.0270
88.9028,76.0812
88.9570,76.1623
88.9760,76.2580
88.9760,77.1580
88.9570,77.2537
88.9028,77.3348
88.8217,77.3890
88.7260,77.4080
88.0260,77.4080
87.9303,77.3890
87.8492,77.3348
87.7950,77.2537
87.7760,77.1580
Z" /> 
</g>
<g >
</g>
<g style="fill:#000000; fill-opacity:1.0000; 
stroke:#000000; stroke-width:0.0000; stroke-opacity:1; 
stroke-linecap:round; stroke-linejoin:round;">
<path style="fill:#000000; fill-opacity:1.0000; 
stroke:#000000; stroke-width:0.0000; stroke-opacity:1; 
stroke-linecap:round; stroke-linejoin:round;fill-rule:evenodd;"
d="M 69.1480,112.2100
69.1290,112.3057
69.0748,112.3868
68.9937,112.4410
68.8980,112.4600
68.1980,112.4600
68.1023,112.4410
68.0212,112.3868
67.9670,112.3057
67.9480,112.2100
67.9480,111.3100
67.9670,111.2143
68.0212,111.1332
68.1023,111.0790
68.1980,111.0600
68.8980,111.0600
68.9937,111.0790
69.0748,111.1332
69.1290,111.2143
69.1480,111.3100
Z" /> 
<path style="fill:#000000; fill-opacity:1.0000; 
stroke:#000000; stroke-width:0.0000; stroke-opacity:1; 
stroke-linecap:round; stroke-linejoin:round;fill-rule:evenodd;"
d="M 67.1480,112.2100
67.1290,112.3057
67.0748,112.3868
66.9937,112.4410
66.8980,112.4600
66.1980,112.4600
66.1023,112.4410
66.0212,112.3868
65.9670,112.3057
65.9480,112.2100
65.9480,111.3100
65.9670,111.2143
66.0212,111.1332
66.1023,111.0790
66.1980,111.0600
66.8980,111.0600
66.9937,111.0790
67.0748,111.1332
67.1290,111.2143
67.1480,111.3100
Z" /> 
</g>
<g >
</g>
<g style="fill:#000000; fill-opacity:1.0000; 
stroke:#000000; stroke-width:0.0000; stroke-opacity:1; 
stroke-linecap:round; stroke-linejoin:round;">
<path style="fill:#000000; fill-opacity:1.0000; 
stroke:#000000; stroke-width:0.0000; stroke-opacity:1; 
stroke-linecap:round; stroke-linejoin:round;fill-rule:evenodd;"
d="M 88.9760,102.5580
88.9570,102.6537
88.9028,102.7348
88.8217,102.7890
88.7260,102.8080
88.0260,102.8080
87.9303,102.7890
87.8492,102.7348
87.7950,102.6537
87.7760,102.5580
87.7760,101.6580
87.7950,101.5623
87.8492,101.4812
87.9303,101.4270
88.0260,101.4080
88.7260,101.4080
88.8217,101.4270
88.9028,101.4812
88.9570,101.5623
88.9760,101.6580
Z" /> 
<path style="fill:#000000; fill-opacity:1.0000; 
stroke:#000000; stroke-width:0.0000; stroke-opacity:1; 
stroke-linecap:round; stroke-linejoin:round;fill-rule:evenodd;"
d="M 86.9760,102.5580
86.9570,102.6537
86.9028,102.7348
86.8217,102.7890
86.7260,102.8080
86.0260,102.8080
85.9303,102.7890
85.8492,102.7348
85.7950,102.6537
85.7760,102.5580
85.7760,101.6580
85.7950,101.5623
85.8492,101.4812
85.9303,101.4270
86.0260,101.4080
86.7260,101.4080
86.8217,101.4270
86.9028,101.4812
86.9570,101.5623
86.9760,101.6580
Z" /> 
</g>
<g >
</g>
<g style="fill:#000000; fill-opacity:1.0000; 
stroke:#000000; stroke-width:0.0000; stroke-opacity:1; 
stroke-linecap:round; stroke-linejoin:round;">
<path style="fill:#000000; fill-opacity:1.0000; 
stroke:#000000; stroke-width:0.0000; stroke-opacity:1; 
stroke-linecap:round; stroke-linejoin:round;fill-rule:evenodd;"
d="M 65.9800,114.8660
65.9990,114.7703
66.0532,114.6892
66.1343,114.6350
66.2300,114.6160
66.9300,114.6160
67.0257,114.6350
67.1068,114.6892
67.1610,114.7703
67.1800,114.8660
67.1800,115.7660
67.1610,115.8617
67.1068,115.9428
67.0257,115.9970
66.9300,116.0160
66.2300,116.0160
66.1343,115.9970
66.0532,115.9428
65.9990,115.8617
65.9800,115.7660
Z" /> 
<path style="fill:#000000; fill-opacity:1.0000; 
stroke:#000000; stroke-width:0.0000; stroke-opacity:1; 
stroke-linecap:round; stroke-linejoin:round;fill-rule:evenodd;"
d="M 67.9800,114.8660
67.9990,114.7703
68.0532,114.6892
68.1343,114.6350
68.2300,114.6160
68.9300,114.6160
69.0257,114.6350
69.1068,114.6892
69.1610,114.7703
69.1800,114.8660
69.1800,115.7660
69.1610,115.8617
69.1068,115.9428
69.0257,115.9970
68.9300,116.0160
68.2300,116.0160
68.1343,115.9970
68.0532,115.9428
67.9990,115.8617
67.9800,115.7660
Z" /> 
</g>
<g >
</g>
<g style="fill:#000000; fill-opacity:1.0000; 
stroke:#000000; stroke-width:0.0000; stroke-opacity:1; 
stroke-linecap:round; stroke-linejoin:round;">
<path style="fill:#000000; fill-opacity:1.0000; 
stroke:#000000; stroke-width:0.0000; stroke-opacity:1; 
stroke-linecap:round; stroke-linejoin:round;fill-rule:evenodd;"
d="M 85.2520,109.7860
85.2710,109.6903
85.3252,109.6092
85.4063,109.5550
85.5020,109.5360
86.2020,109.5360
86.2977,109.5550
86.3788,109.6092
86.4330,109.6903
86.4520,109.7860
86.4520,110.6860
86.4330,110.7817
86.3788,110.8628
86.2977,110.9170
86.2020,110.9360
85.5020,110.9360
85.4063,110.9170
85.3252,110.8628
85.2710,110.7817
85.2520,110.6860
Z" /> 
<path style="fill:#000000; fill-opacity:1.0000; 
stroke:#000000; stroke-width:0.0000; stroke-opacity:1; 
stroke-linecap:round; stroke-linejoin:round;fill-rule:evenodd;"
d="M 87.2520,109.7860
87.2710,109.6903
87.3252,109.6092
87.4063,109.5550
87.5020,109.5360
88.2020,109.5360
88.2977,109.5550
88.3788,109.6092
88.4330,109.6903
88.4520,109.7860
88.4520,110.6860
88.4330,110.7817
88.3788,110.8628
88.2977,110.9170
88.2020,110.9360
87.5020,110.9360
87.4063,110.9170
87.3252,110.8628
87.2710,110.7817
87.2520,110.6860
Z" /> 
</g>
<g >
</g>
<g style="fill:#000000; fill-opacity:1.0000; 
stroke:#000000; stroke-width:0.0000; stroke-opacity:1; 
stroke-linecap:round; stroke-linejoin:round;">
<path style="fill:#000000; fill-opacity:1.0000; 
stroke:#000000; stroke-width:0.0000; stroke-opacity:1; 
stroke-linecap:round; stroke-linejoin:round;fill-rule:evenodd;"
d="M 85.7600,142.8060
85.7790,142.7103
85.8332,142.6292
85.9143,142.5750
86.0100,142.5560
86.7100,142.5560
86.8057,142.5750
86.8868,142.6292
86.9410,142.7103
86.9600,142.8060
86.9600,143.7060
86.9410,143.8017
86.8868,143.8828
86.8057,143.9370
86.7100,143.9560
86.0100,143.9560
85.9143,143.9370
85.8332,143.8828
85.7790,143.8017
85.7600,143.7060
Z" /> 
<path style="fill:#000000; fill-opacity:1.0000; 
stroke:#000000; stroke-width:0.0000; stroke-opacity:1; 
stroke-linecap:round; stroke-linejoin:round;fill-rule:evenodd;"
d="M 87.7600,142.8060
87.7790,142.7103
87.8332,142.6292
87.9143,142.5750
88.0100,142.5560
88.7100,142.5560
88.8057,142.5750
88.8868,142.6292
88.9410,142.7103
88.9600,142.8060
88.9600,143.7060
88.9410,143.8017
88.8868,143.8828
88.8057,143.9370
88.7100,143.9560
88.0100,143.9560
87.9143,143.9370
87.8332,143.8828
87.7790,143.8017
87.7600,143.7060
Z" /> 
</g>
<g >
</g>
<g style="fill:#000000; fill-opacity:1.0000; 
stroke:#000000; stroke-width:0.0000; stroke-opacity:1; 
stroke-linecap:round; stroke-linejoin:round;">
<path style="fill:#000000; fill-opacity:1.0000; 
stroke:#000000; stroke-width:0.0000; stroke-opacity:1; 
stroke-linecap:round; stroke-linejoin:round;fill-rule:evenodd;"
d="M 66.9800,148.3940
66.9990,148.2983
67.0532,148.2172
67.1343,148.1630
67.2300,148.1440
67.9300,148.1440
68.0257,148.1630
68.1068,148.2172
68.1610,148.2983
68.1800,148.3940
68.1800,149.2940
68.1610,149.3897
68.1068,149.4708
68.0257,149.5250
67.9300,149.5440
67.2300,149.5440
67.1343,149.5250
67.0532,149.4708
66.9990,149.3897
66.9800,149.2940
Z" /> 
<path style="fill:#000000; fill-opacity:1.0000; 
stroke:#000000; stroke-width:0.0000; stroke-opacity:1; 
stroke-linecap:round; stroke-linejoin:round;fill-rule:evenodd;"
d="M 68.9800,148.3940
68.9990,148.2983
69.0532,148.2172
69.1343,148.1630
69.2300,148.1440
69.9300,148.1440
70.0257,148.1630
70.1068,148.2172
70.1610,148.2983
70.1800,148.3940
70.1800,149.2940
70.1610,149.3897
70.1068,149.4708
70.0257,149.5250
69.9300,149.5440
69.2300,149.5440
69.1343,149.5250
69.0532,149.4708
68.9990,149.3897
68.9800,149.2940
Z" /> 
</g>
<g >
</g>
<g style="fill:#000000; fill-opacity:1.0000; 
stroke:#000000; stroke-width:0.0000; stroke-opacity:1; 
stroke-linecap:round; stroke-linejoin:round;">
<path style="fill:#000000; fill-opacity:1.0000; 
stroke:#000000; stroke-width:0.0000; stroke-opacity:1; 
stroke-linecap:round; stroke-linejoin:round;fill-rule:evenodd;"
d="M 85.7600,139.7580
85.7790,139.6623
85.8332,139.5812
85.9143,139.5270
86.0100,139.5080
86.7100,139.5080
86.8057,139.5270
86.8868,139.5812
86.9410,139.6623
86.9600,139.7580
86.9600,140.6580
86.9410,140.7537
86.8868,140.8348
86.8057,140.8890
86.7100,140.9080
86.0100,140.9080
85.9143,140.8890
85.8332,140.8348
85.7790,140.7537
85.7600,140.6580
Z" /> 
<path style="fill:#000000; fill-opacity:1.0000; 
stroke:#000000; stroke-width:0.0000; stroke-opacity:1; 
stroke-linecap:round; stroke-linejoin:round;fill-rule:evenodd;"
d="M 87.7600,139.7580
87.7790,139.6623
87.8332,139.5812
87.9143,139.5270
88.0100,139.5080
88.7100,139.5080
88.8057,139.5270
88.8868,139.5812
88.9410,139.6623
88.9600,139.7580
88.9600,140.6580
88.9410,140.7537
88.8868,140.8348
88.8057,140.8890
88.7100,140.9080
88.0100,140.9080
87.9143,140.8890
87.8332,140.8348
87.7790,140.7537
87.7600,140.6580
Z" /> 
</g>
<g >
</g>
<g style="fill:#000000; fill-opacity:1.0000; 
stroke:#000000; stroke-width:0.0000; stroke-opacity:1; 
stroke-linecap:round; stroke-linejoin:round;">
<path style="fill:#000000; fill-opacity:1.0000; 
stroke:#000000; stroke-width:0.0000; stroke-opacity:1; 
stroke-linecap:round; stroke-linejoin:round;fill-rule:evenodd;"
d="M 65.9480,156.5220
65.9670,156.4263
66.0212,156.3452
66.1023,156.2910
66.1980,156.2720
66.8980,156.2720
66.9937,156.2910
67.0748,156.3452
67.1290,156.4263
67.1480,156.5220
67.1480,157.4220
67.1290,157.5177
67.0748,157.5988
66.9937,157.6530
66.8980,157.6720
66.1980,157.6720
66.1023,157.6530
66.0212,157.5988
65.9670,157.5177
65.9480,157.4220
Z" /> 
<path style="fill:#000000; fill-opacity:1.0000; 
stroke:#000000; stroke-width:0.0000; stroke-opacity:1; 
stroke-linecap:round; stroke-linejoin:round;fill-rule:evenodd;"
d="M 67.9480,156.5220
67.9670,156.4263
68.0212,156.3452
68.1023,156.2910
68.1980,156.2720
68.8980,156.2720
68.9937,156.2910
69.0748,156.3452
69.1290,156.4263
69.1480,156.5220
69.1480,157.4220
69.1290,157.5177
69.0748,157.5988
68.9937,157.6530
68.8980,157.6720
68.1980,157.6720
68.1023,157.6530
68.0212,157.5988
67.9670,157.5177
67.9480,157.4220
Z" /> 
</g>
<g >
</g>
<g >
</g>
<g >
</g>
<g >
</g>
<g >
</g>
</g> 
</svg>
