<?xml version="1.0" standalone="no"?>
 <!DOCTYPE svg PUBLIC "-//W3C//DTD SVG 1.1//EN" 
 "http://www.w3.org/Graphics/SVG/1.1/DTD/svg11.dtd"> 
<svg
  xmlns:svg="http://www.w3.org/2000/svg"
  xmlns="http://www.w3.org/2000/svg"
  xmlns:xlink="http://www.w3.org/1999/xlink"
  version="1.1"
  width="297.0022mm" height="210.0072mm" viewBox="0.0000 0.0000 297.0022 210.0072">
<title>SVG Image created as mount-Cmts_User.svg date 2023/11/06 17:56:13 </title>
  <desc>Image generated by PCBNEW </desc>
<g style="fill:#000000; fill-opacity:1.0000;stroke:#000000; stroke-opacity:1.0000;
stroke-linecap:round; stroke-linejoin:round;"
 transform="translate(0 0) scale(1 1)">
</g>
<g style="fill:#000000; fill-opacity:0.0; 
stroke:#000000; stroke-width:0.0000; stroke-opacity:1; 
stroke-linecap:round; stroke-linejoin:round;">
</g>
<g style="fill:#000000; fill-opacity:0.0; 
stroke:#000000; stroke-width:0.0510; stroke-opacity:1; 
stroke-linecap:round; stroke-linejoin:round;">
<text x="35.5600" y="40.8400"
textLength="2.7397" font-size="0.5333" lengthAdjust="spacingAndGlyphs"
text-anchor="middle" opacity="0">KEEPOUT</text>
<g class="stroked-text"><desc>KEEPOUT</desc>
<path d="M34.3219 40.8224
L34.3219 40.4224
" />
<path d="M34.5505 40.8224
L34.3790 40.5938
" />
<path d="M34.5505 40.4224
L34.3219 40.6510
" />
<path d="M34.7219 40.6129
L34.8552 40.6129
" />
<path d="M34.9124 40.8224
L34.7219 40.8224
" />
<path d="M34.7219 40.8224
L34.7219 40.4224
" />
<path d="M34.7219 40.4224
L34.9124 40.4224
" />
<path d="M35.0838 40.6129
L35.2171 40.6129
" />
<path d="M35.2743 40.8224
L35.0838 40.8224
" />
<path d="M35.0838 40.8224
L35.0838 40.4224
" />
<path d="M35.0838 40.4224
L35.2743 40.4224
" />
<path d="M35.4457 40.8224
L35.4457 40.4224
" />
<path d="M35.4457 40.4224
L35.5981 40.4224
" />
<path d="M35.5981 40.4224
L35.6362 40.4414
" />
<path d="M35.6362 40.4414
L35.6552 40.4605
" />
<path d="M35.6552 40.4605
L35.6743 40.4986
" />
<path d="M35.6743 40.4986
L35.6743 40.5557
" />
<path d="M35.6743 40.5557
L35.6552 40.5938
" />
<path d="M35.6552 40.5938
L35.6362 40.6129
" />
<path d="M35.6362 40.6129
L35.5981 40.6319
" />
<path d="M35.5981 40.6319
L35.4457 40.6319
" />
<path d="M35.9219 40.4224
L35.9981 40.4224
" />
<path d="M35.9981 40.4224
L36.0362 40.4414
" />
<path d="M36.0362 40.4414
L36.0743 40.4795
" />
<path d="M36.0743 40.4795
L36.0933 40.5557
" />
<path d="M36.0933 40.5557
L36.0933 40.6891
" />
<path d="M36.0933 40.6891
L36.0743 40.7653
" />
<path d="M36.0743 40.7653
L36.0362 40.8033
" />
<path d="M36.0362 40.8033
L35.9981 40.8224
" />
<path d="M35.9981 40.8224
L35.9219 40.8224
" />
<path d="M35.9219 40.8224
L35.8838 40.8033
" />
<path d="M35.8838 40.8033
L35.8457 40.7653
" />
<path d="M35.8457 40.7653
L35.8267 40.6891
" />
<path d="M35.8267 40.6891
L35.8267 40.5557
" />
<path d="M35.8267 40.5557
L35.8457 40.4795
" />
<path d="M35.8457 40.4795
L35.8838 40.4414
" />
<path d="M35.8838 40.4414
L35.9219 40.4224
" />
<path d="M36.2648 40.4224
L36.2648 40.7462
" />
<path d="M36.2648 40.7462
L36.2838 40.7843
" />
<path d="M36.2838 40.7843
L36.3029 40.8033
" />
<path d="M36.3029 40.8033
L36.3410 40.8224
" />
<path d="M36.3410 40.8224
L36.4171 40.8224
" />
<path d="M36.4171 40.8224
L36.4552 40.8033
" />
<path d="M36.4552 40.8033
L36.4743 40.7843
" />
<path d="M36.4743 40.7843
L36.4933 40.7462
" />
<path d="M36.4933 40.7462
L36.4933 40.4224
" />
<path d="M36.6267 40.4224
L36.8552 40.4224
" />
<path d="M36.7410 40.8224
L36.7410 40.4224
" />
</g><text x="35.5600" y="61.1600"
textLength="2.7397" font-size="0.5333" lengthAdjust="spacingAndGlyphs"
text-anchor="middle" opacity="0">KEEPOUT</text>
<g class="stroked-text"><desc>KEEPOUT</desc>
<path d="M34.3219 61.1424
L34.3219 60.7424
" />
<path d="M34.5505 61.1424
L34.3790 60.9138
" />
<path d="M34.5505 60.7424
L34.3219 60.9710
" />
<path d="M34.7219 60.9329
L34.8552 60.9329
" />
<path d="M34.9124 61.1424
L34.7219 61.1424
" />
<path d="M34.7219 61.1424
L34.7219 60.7424
" />
<path d="M34.7219 60.7424
L34.9124 60.7424
" />
<path d="M35.0838 60.9329
L35.2171 60.9329
" />
<path d="M35.2743 61.1424
L35.0838 61.1424
" />
<path d="M35.0838 61.1424
L35.0838 60.7424
" />
<path d="M35.0838 60.7424
L35.2743 60.7424
" />
<path d="M35.4457 61.1424
L35.4457 60.7424
" />
<path d="M35.4457 60.7424
L35.5981 60.7424
" />
<path d="M35.5981 60.7424
L35.6362 60.7614
" />
<path d="M35.6362 60.7614
L35.6552 60.7805
" />
<path d="M35.6552 60.7805
L35.6743 60.8186
" />
<path d="M35.6743 60.8186
L35.6743 60.8757
" />
<path d="M35.6743 60.8757
L35.6552 60.9138
" />
<path d="M35.6552 60.9138
L35.6362 60.9329
" />
<path d="M35.6362 60.9329
L35.5981 60.9519
" />
<path d="M35.5981 60.9519
L35.4457 60.9519
" />
<path d="M35.9219 60.7424
L35.9981 60.7424
" />
<path d="M35.9981 60.7424
L36.0362 60.7614
" />
<path d="M36.0362 60.7614
L36.0743 60.7995
" />
<path d="M36.0743 60.7995
L36.0933 60.8757
" />
<path d="M36.0933 60.8757
L36.0933 61.0091
" />
<path d="M36.0933 61.0091
L36.0743 61.0853
" />
<path d="M36.0743 61.0853
L36.0362 61.1233
" />
<path d="M36.0362 61.1233
L35.9981 61.1424
" />
<path d="M35.9981 61.1424
L35.9219 61.1424
" />
<path d="M35.9219 61.1424
L35.8838 61.1233
" />
<path d="M35.8838 61.1233
L35.8457 61.0853
" />
<path d="M35.8457 61.0853
L35.8267 61.0091
" />
<path d="M35.8267 61.0091
L35.8267 60.8757
" />
<path d="M35.8267 60.8757
L35.8457 60.7995
" />
<path d="M35.8457 60.7995
L35.8838 60.7614
" />
<path d="M35.8838 60.7614
L35.9219 60.7424
" />
<path d="M36.2648 60.7424
L36.2648 61.0662
" />
<path d="M36.2648 61.0662
L36.2838 61.1043
" />
<path d="M36.2838 61.1043
L36.3029 61.1233
" />
<path d="M36.3029 61.1233
L36.3410 61.1424
" />
<path d="M36.3410 61.1424
L36.4171 61.1424
" />
<path d="M36.4171 61.1424
L36.4552 61.1233
" />
<path d="M36.4552 61.1233
L36.4743 61.1043
" />
<path d="M36.4743 61.1043
L36.4933 61.0662
" />
<path d="M36.4933 61.0662
L36.4933 60.7424
" />
<path d="M36.6267 60.7424
L36.8552 60.7424
" />
<path d="M36.7410 61.1424
L36.7410 60.7424
" />
</g><text x="35.5600" y="122.1200"
textLength="2.7397" font-size="0.5333" lengthAdjust="spacingAndGlyphs"
text-anchor="middle" opacity="0">KEEPOUT</text>
<g class="stroked-text"><desc>KEEPOUT</desc>
<path d="M34.3219 122.1024
L34.3219 121.7024
" />
<path d="M34.5505 122.1024
L34.3790 121.8738
" />
<path d="M34.5505 121.7024
L34.3219 121.9310
" />
<path d="M34.7219 121.8929
L34.8552 121.8929
" />
<path d="M34.9124 122.1024
L34.7219 122.1024
" />
<path d="M34.7219 122.1024
L34.7219 121.7024
" />
<path d="M34.7219 121.7024
L34.9124 121.7024
" />
<path d="M35.0838 121.8929
L35.2171 121.8929
" />
<path d="M35.2743 122.1024
L35.0838 122.1024
" />
<path d="M35.0838 122.1024
L35.0838 121.7024
" />
<path d="M35.0838 121.7024
L35.2743 121.7024
" />
<path d="M35.4457 122.1024
L35.4457 121.7024
" />
<path d="M35.4457 121.7024
L35.5981 121.7024
" />
<path d="M35.5981 121.7024
L35.6362 121.7214
" />
<path d="M35.6362 121.7214
L35.6552 121.7405
" />
<path d="M35.6552 121.7405
L35.6743 121.7786
" />
<path d="M35.6743 121.7786
L35.6743 121.8357
" />
<path d="M35.6743 121.8357
L35.6552 121.8738
" />
<path d="M35.6552 121.8738
L35.6362 121.8929
" />
<path d="M35.6362 121.8929
L35.5981 121.9119
" />
<path d="M35.5981 121.9119
L35.4457 121.9119
" />
<path d="M35.9219 121.7024
L35.9981 121.7024
" />
<path d="M35.9981 121.7024
L36.0362 121.7214
" />
<path d="M36.0362 121.7214
L36.0743 121.7595
" />
<path d="M36.0743 121.7595
L36.0933 121.8357
" />
<path d="M36.0933 121.8357
L36.0933 121.9691
" />
<path d="M36.0933 121.9691
L36.0743 122.0453
" />
<path d="M36.0743 122.0453
L36.0362 122.0833
" />
<path d="M36.0362 122.0833
L35.9981 122.1024
" />
<path d="M35.9981 122.1024
L35.9219 122.1024
" />
<path d="M35.9219 122.1024
L35.8838 122.0833
" />
<path d="M35.8838 122.0833
L35.8457 122.0453
" />
<path d="M35.8457 122.0453
L35.8267 121.9691
" />
<path d="M35.8267 121.9691
L35.8267 121.8357
" />
<path d="M35.8267 121.8357
L35.8457 121.7595
" />
<path d="M35.8457 121.7595
L35.8838 121.7214
" />
<path d="M35.8838 121.7214
L35.9219 121.7024
" />
<path d="M36.2648 121.7024
L36.2648 122.0262
" />
<path d="M36.2648 122.0262
L36.2838 122.0643
" />
<path d="M36.2838 122.0643
L36.3029 122.0833
" />
<path d="M36.3029 122.0833
L36.3410 122.1024
" />
<path d="M36.3410 122.1024
L36.4171 122.1024
" />
<path d="M36.4171 122.1024
L36.4552 122.0833
" />
<path d="M36.4552 122.0833
L36.4743 122.0643
" />
<path d="M36.4743 122.0643
L36.4933 122.0262
" />
<path d="M36.4933 122.0262
L36.4933 121.7024
" />
<path d="M36.6267 121.7024
L36.8552 121.7024
" />
<path d="M36.7410 122.1024
L36.7410 121.7024
" />
</g><text x="45.7200" y="122.1200"
textLength="2.7397" font-size="0.5333" lengthAdjust="spacingAndGlyphs"
text-anchor="middle" opacity="0">KEEPOUT</text>
<g class="stroked-text"><desc>KEEPOUT</desc>
<path d="M44.4819 122.1024
L44.4819 121.7024
" />
<path d="M44.7105 122.1024
L44.5390 121.8738
" />
<path d="M44.7105 121.7024
L44.4819 121.9310
" />
<path d="M44.8819 121.8929
L45.0152 121.8929
" />
<path d="M45.0724 122.1024
L44.8819 122.1024
" />
<path d="M44.8819 122.1024
L44.8819 121.7024
" />
<path d="M44.8819 121.7024
L45.0724 121.7024
" />
<path d="M45.2438 121.8929
L45.3771 121.8929
" />
<path d="M45.4343 122.1024
L45.2438 122.1024
" />
<path d="M45.2438 122.1024
L45.2438 121.7024
" />
<path d="M45.2438 121.7024
L45.4343 121.7024
" />
<path d="M45.6057 122.1024
L45.6057 121.7024
" />
<path d="M45.6057 121.7024
L45.7581 121.7024
" />
<path d="M45.7581 121.7024
L45.7962 121.7214
" />
<path d="M45.7962 121.7214
L45.8152 121.7405
" />
<path d="M45.8152 121.7405
L45.8343 121.7786
" />
<path d="M45.8343 121.7786
L45.8343 121.8357
" />
<path d="M45.8343 121.8357
L45.8152 121.8738
" />
<path d="M45.8152 121.8738
L45.7962 121.8929
" />
<path d="M45.7962 121.8929
L45.7581 121.9119
" />
<path d="M45.7581 121.9119
L45.6057 121.9119
" />
<path d="M46.0819 121.7024
L46.1581 121.7024
" />
<path d="M46.1581 121.7024
L46.1962 121.7214
" />
<path d="M46.1962 121.7214
L46.2343 121.7595
" />
<path d="M46.2343 121.7595
L46.2533 121.8357
" />
<path d="M46.2533 121.8357
L46.2533 121.9691
" />
<path d="M46.2533 121.9691
L46.2343 122.0453
" />
<path d="M46.2343 122.0453
L46.1962 122.0833
" />
<path d="M46.1962 122.0833
L46.1581 122.1024
" />
<path d="M46.1581 122.1024
L46.0819 122.1024
" />
<path d="M46.0819 122.1024
L46.0438 122.0833
" />
<path d="M46.0438 122.0833
L46.0057 122.0453
" />
<path d="M46.0057 122.0453
L45.9867 121.9691
" />
<path d="M45.9867 121.9691
L45.9867 121.8357
" />
<path d="M45.9867 121.8357
L46.0057 121.7595
" />
<path d="M46.0057 121.7595
L46.0438 121.7214
" />
<path d="M46.0438 121.7214
L46.0819 121.7024
" />
<path d="M46.4248 121.7024
L46.4248 122.0262
" />
<path d="M46.4248 122.0262
L46.4438 122.0643
" />
<path d="M46.4438 122.0643
L46.4629 122.0833
" />
<path d="M46.4629 122.0833
L46.5010 122.1024
" />
<path d="M46.5010 122.1024
L46.5771 122.1024
" />
<path d="M46.5771 122.1024
L46.6152 122.0833
" />
<path d="M46.6152 122.0833
L46.6343 122.0643
" />
<path d="M46.6343 122.0643
L46.6533 122.0262
" />
<path d="M46.6533 122.0262
L46.6533 121.7024
" />
<path d="M46.7867 121.7024
L47.0152 121.7024
" />
<path d="M46.9010 122.1024
L46.9010 121.7024
" />
</g><text x="55.8800" y="122.1200"
textLength="2.7397" font-size="0.5333" lengthAdjust="spacingAndGlyphs"
text-anchor="middle" opacity="0">KEEPOUT</text>
<g class="stroked-text"><desc>KEEPOUT</desc>
<path d="M54.6419 122.1024
L54.6419 121.7024
" />
<path d="M54.8705 122.1024
L54.6990 121.8738
" />
<path d="M54.8705 121.7024
L54.6419 121.9310
" />
<path d="M55.0419 121.8929
L55.1752 121.8929
" />
<path d="M55.2324 122.1024
L55.0419 122.1024
" />
<path d="M55.0419 122.1024
L55.0419 121.7024
" />
<path d="M55.0419 121.7024
L55.2324 121.7024
" />
<path d="M55.4038 121.8929
L55.5371 121.8929
" />
<path d="M55.5943 122.1024
L55.4038 122.1024
" />
<path d="M55.4038 122.1024
L55.4038 121.7024
" />
<path d="M55.4038 121.7024
L55.5943 121.7024
" />
<path d="M55.7657 122.1024
L55.7657 121.7024
" />
<path d="M55.7657 121.7024
L55.9181 121.7024
" />
<path d="M55.9181 121.7024
L55.9562 121.7214
" />
<path d="M55.9562 121.7214
L55.9752 121.7405
" />
<path d="M55.9752 121.7405
L55.9943 121.7786
" />
<path d="M55.9943 121.7786
L55.9943 121.8357
" />
<path d="M55.9943 121.8357
L55.9752 121.8738
" />
<path d="M55.9752 121.8738
L55.9562 121.8929
" />
<path d="M55.9562 121.8929
L55.9181 121.9119
" />
<path d="M55.9181 121.9119
L55.7657 121.9119
" />
<path d="M56.2419 121.7024
L56.3181 121.7024
" />
<path d="M56.3181 121.7024
L56.3562 121.7214
" />
<path d="M56.3562 121.7214
L56.3943 121.7595
" />
<path d="M56.3943 121.7595
L56.4133 121.8357
" />
<path d="M56.4133 121.8357
L56.4133 121.9691
" />
<path d="M56.4133 121.9691
L56.3943 122.0453
" />
<path d="M56.3943 122.0453
L56.3562 122.0833
" />
<path d="M56.3562 122.0833
L56.3181 122.1024
" />
<path d="M56.3181 122.1024
L56.2419 122.1024
" />
<path d="M56.2419 122.1024
L56.2038 122.0833
" />
<path d="M56.2038 122.0833
L56.1657 122.0453
" />
<path d="M56.1657 122.0453
L56.1467 121.9691
" />
<path d="M56.1467 121.9691
L56.1467 121.8357
" />
<path d="M56.1467 121.8357
L56.1657 121.7595
" />
<path d="M56.1657 121.7595
L56.2038 121.7214
" />
<path d="M56.2038 121.7214
L56.2419 121.7024
" />
<path d="M56.5848 121.7024
L56.5848 122.0262
" />
<path d="M56.5848 122.0262
L56.6038 122.0643
" />
<path d="M56.6038 122.0643
L56.6229 122.0833
" />
<path d="M56.6229 122.0833
L56.6610 122.1024
" />
<path d="M56.6610 122.1024
L56.7371 122.1024
" />
<path d="M56.7371 122.1024
L56.7752 122.0833
" />
<path d="M56.7752 122.0833
L56.7943 122.0643
" />
<path d="M56.7943 122.0643
L56.8133 122.0262
" />
<path d="M56.8133 122.0262
L56.8133 121.7024
" />
<path d="M56.9467 121.7024
L57.1752 121.7024
" />
<path d="M57.0610 122.1024
L57.0610 121.7024
" />
</g></g>
<g style="fill:#000000; fill-opacity:0.0; 
stroke:#000000; stroke-width:0.1500; stroke-opacity:1; 
stroke-linecap:round; stroke-linejoin:round;">
<circle cx="27.9400" cy="27.9400" r="2.2000" /> 
<circle cx="63.1600" cy="27.9400" r="2.2000" /> 
<circle cx="63.1600" cy="134.6200" r="2.2000" /> 
<circle cx="27.9400" cy="134.6200" r="2.2000" /> 
</g>
<g style="fill:#000000; fill-opacity:0.0; 
stroke:#000000; stroke-width:0.0254; stroke-opacity:1; 
stroke-linecap:round; stroke-linejoin:round;">
<circle cx="55.8800" cy="81.2800" r="2.4765" /> 
<g >
</g>
<g >
</g>
<g >
</g>
<g >
</g>
<g >
</g>
<g >
</g>
<g >
</g>
<g >
</g>
<g >
</g>
<g >
</g>
<g >
</g>
<g >
</g>
<g >
</g>
<g >
</g>
<g >
</g>
<g >
</g>
<g >
</g>
<g >
</g>
<g >
</g>
<g >
</g>
<g >
</g>
<g >
</g>
<g >
</g>
<g >
</g>
<g >
</g>
<g >
</g>
</g> 
</svg>
