<?xml version="1.0" standalone="no"?>
 <!DOCTYPE svg PUBLIC "-//W3C//DTD SVG 1.1//EN" 
 "http://www.w3.org/Graphics/SVG/1.1/DTD/svg11.dtd"> 
<svg
  xmlns:svg="http://www.w3.org/2000/svg"
  xmlns="http://www.w3.org/2000/svg"
  xmlns:xlink="http://www.w3.org/1999/xlink"
  version="1.1"
  width="297.0022mm" height="210.0072mm" viewBox="0.0000 0.0000 297.0022 210.0072">
<title>SVG Image created as mount-F_Fab.svg date 2023/11/06 17:56:13 </title>
  <desc>Image generated by PCBNEW </desc>
<g style="fill:#000000; fill-opacity:1.0000;stroke:#000000; stroke-opacity:1.0000;
stroke-linecap:round; stroke-linejoin:round;"
 transform="translate(0 0) scale(1 1)">
</g>
<g style="fill:#000000; fill-opacity:0.0; 
stroke:#000000; stroke-width:0.0000; stroke-opacity:1; 
stroke-linecap:round; stroke-linejoin:round;">
</g>
<g style="fill:#000000; fill-opacity:0.0; 
stroke:#000000; stroke-width:0.1500; stroke-opacity:1; 
stroke-linecap:round; stroke-linejoin:round;">
<text x="53.3400" y="89.0580"
textLength="6.0595" font-size="1.3333" lengthAdjust="spacingAndGlyphs"
text-anchor="middle" opacity="0">1N4148</text>
<g class="stroked-text"><desc>1N4148</desc>
<path d="M51.1971 89.0128
L50.6257 89.0128
" />
<path d="M50.9114 89.0128
L50.9114 88.0128
" />
<path d="M50.9114 88.0128
L50.8162 88.1557
" />
<path d="M50.8162 88.1557
L50.7210 88.2509
" />
<path d="M50.7210 88.2509
L50.6257 88.2985
" />
<path d="M51.6257 89.0128
L51.6257 88.0128
" />
<path d="M51.6257 88.0128
L52.1971 89.0128
" />
<path d="M52.1971 89.0128
L52.1971 88.0128
" />
<path d="M53.1019 88.3462
L53.1019 89.0128
" />
<path d="M52.8638 87.9652
L52.6257 88.6795
" />
<path d="M52.6257 88.6795
L53.2448 88.6795
" />
<path d="M54.1495 89.0128
L53.5781 89.0128
" />
<path d="M53.8638 89.0128
L53.8638 88.0128
" />
<path d="M53.8638 88.0128
L53.7686 88.1557
" />
<path d="M53.7686 88.1557
L53.6733 88.2509
" />
<path d="M53.6733 88.2509
L53.5781 88.2985
" />
<path d="M55.0067 88.3462
L55.0067 89.0128
" />
<path d="M54.7686 87.9652
L54.5305 88.6795
" />
<path d="M54.5305 88.6795
L55.1495 88.6795
" />
<path d="M55.6733 88.4414
L55.5781 88.3938
" />
<path d="M55.5781 88.3938
L55.5305 88.3462
" />
<path d="M55.5305 88.3462
L55.4829 88.2509
" />
<path d="M55.4829 88.2509
L55.4829 88.2033
" />
<path d="M55.4829 88.2033
L55.5305 88.1081
" />
<path d="M55.5305 88.1081
L55.5781 88.0604
" />
<path d="M55.5781 88.0604
L55.6733 88.0128
" />
<path d="M55.6733 88.0128
L55.8638 88.0128
" />
<path d="M55.8638 88.0128
L55.9590 88.0604
" />
<path d="M55.9590 88.0604
L56.0067 88.1081
" />
<path d="M56.0067 88.1081
L56.0543 88.2033
" />
<path d="M56.0543 88.2033
L56.0543 88.2509
" />
<path d="M56.0543 88.2509
L56.0067 88.3462
" />
<path d="M56.0067 88.3462
L55.9590 88.3938
" />
<path d="M55.9590 88.3938
L55.8638 88.4414
" />
<path d="M55.8638 88.4414
L55.6733 88.4414
" />
<path d="M55.6733 88.4414
L55.5781 88.4890
" />
<path d="M55.5781 88.4890
L55.5305 88.5366
" />
<path d="M55.5305 88.5366
L55.4829 88.6319
" />
<path d="M55.4829 88.6319
L55.4829 88.8223
" />
<path d="M55.4829 88.8223
L55.5305 88.9176
" />
<path d="M55.5305 88.9176
L55.5781 88.9652
" />
<path d="M55.5781 88.9652
L55.6733 89.0128
" />
<path d="M55.6733 89.0128
L55.8638 89.0128
" />
<path d="M55.8638 89.0128
L55.9590 88.9652
" />
<path d="M55.9590 88.9652
L56.0067 88.9176
" />
<path d="M56.0067 88.9176
L56.0543 88.8223
" />
<path d="M56.0543 88.8223
L56.0543 88.6319
" />
<path d="M56.0543 88.6319
L56.0067 88.5366
" />
<path d="M56.0067 88.5366
L55.9590 88.4890
" />
<path d="M55.9590 88.4890
L55.8638 88.4414
" />
</g></g>
<g style="fill:#000000; fill-opacity:0.0; 
stroke:#000000; stroke-width:0.1200; stroke-opacity:1; 
stroke-linecap:round; stroke-linejoin:round;">
<text x="53.0400" y="91.0780"
textLength="1.7619" font-size="1.0667" lengthAdjust="spacingAndGlyphs"
text-anchor="middle" opacity="0">D1</text>
<g class="stroked-text"><desc>D1</desc>
<path d="M52.4495 91.0419
L52.4495 90.2419
" />
<path d="M52.4495 90.2419
L52.6400 90.2419
" />
<path d="M52.6400 90.2419
L52.7543 90.2799
" />
<path d="M52.7543 90.2799
L52.8305 90.3561
" />
<path d="M52.8305 90.3561
L52.8686 90.4323
" />
<path d="M52.8686 90.4323
L52.9067 90.5847
" />
<path d="M52.9067 90.5847
L52.9067 90.6990
" />
<path d="M52.9067 90.6990
L52.8686 90.8514
" />
<path d="M52.8686 90.8514
L52.8305 90.9276
" />
<path d="M52.8305 90.9276
L52.7543 91.0038
" />
<path d="M52.7543 91.0038
L52.6400 91.0419
" />
<path d="M52.6400 91.0419
L52.4495 91.0419
" />
<path d="M53.6686 91.0419
L53.2114 91.0419
" />
<path d="M53.4400 91.0419
L53.4400 90.2419
" />
<path d="M53.4400 90.2419
L53.3638 90.3561
" />
<path d="M53.3638 90.3561
L53.2876 90.4323
" />
<path d="M53.2876 90.4323
L53.2114 90.4704
" />
</g></g>
<g style="fill:#000000; fill-opacity:0.0; 
stroke:#000000; stroke-width:0.1500; stroke-opacity:1; 
stroke-linecap:round; stroke-linejoin:round;">
<text x="57.1500" y="92.9780"
textLength="1.2500" font-size="1.3333" lengthAdjust="spacingAndGlyphs"
text-anchor="middle" opacity="0">K</text>
<g class="stroked-text"><desc>K</desc>
<path d="M56.8881 92.9328
L56.8881 91.9328
" />
<path d="M57.4595 92.9328
L57.0310 92.3614
" />
<path d="M57.4595 91.9328
L56.8881 92.5042
" />
</g><text x="53.3520" y="96.4460"
textLength="6.0595" font-size="1.3333" lengthAdjust="spacingAndGlyphs"
text-anchor="middle" opacity="0">1N4148</text>
<g class="stroked-text"><desc>1N4148</desc>
<path d="M51.2091 96.4008
L50.6377 96.4008
" />
<path d="M50.9234 96.4008
L50.9234 95.4008
" />
<path d="M50.9234 95.4008
L50.8282 95.5437
" />
<path d="M50.8282 95.5437
L50.7330 95.6389
" />
<path d="M50.7330 95.6389
L50.6377 95.6865
" />
<path d="M51.6377 96.4008
L51.6377 95.4008
" />
<path d="M51.6377 95.4008
L52.2091 96.4008
" />
<path d="M52.2091 96.4008
L52.2091 95.4008
" />
<path d="M53.1139 95.7342
L53.1139 96.4008
" />
<path d="M52.8758 95.3532
L52.6377 96.0675
" />
<path d="M52.6377 96.0675
L53.2568 96.0675
" />
<path d="M54.1615 96.4008
L53.5901 96.4008
" />
<path d="M53.8758 96.4008
L53.8758 95.4008
" />
<path d="M53.8758 95.4008
L53.7806 95.5437
" />
<path d="M53.7806 95.5437
L53.6853 95.6389
" />
<path d="M53.6853 95.6389
L53.5901 95.6865
" />
<path d="M55.0187 95.7342
L55.0187 96.4008
" />
<path d="M54.7806 95.3532
L54.5425 96.0675
" />
<path d="M54.5425 96.0675
L55.1615 96.0675
" />
<path d="M55.6853 95.8294
L55.5901 95.7818
" />
<path d="M55.5901 95.7818
L55.5425 95.7342
" />
<path d="M55.5425 95.7342
L55.4949 95.6389
" />
<path d="M55.4949 95.6389
L55.4949 95.5913
" />
<path d="M55.4949 95.5913
L55.5425 95.4961
" />
<path d="M55.5425 95.4961
L55.5901 95.4484
" />
<path d="M55.5901 95.4484
L55.6853 95.4008
" />
<path d="M55.6853 95.4008
L55.8758 95.4008
" />
<path d="M55.8758 95.4008
L55.9710 95.4484
" />
<path d="M55.9710 95.4484
L56.0187 95.4961
" />
<path d="M56.0187 95.4961
L56.0663 95.5913
" />
<path d="M56.0663 95.5913
L56.0663 95.6389
" />
<path d="M56.0663 95.6389
L56.0187 95.7342
" />
<path d="M56.0187 95.7342
L55.9710 95.7818
" />
<path d="M55.9710 95.7818
L55.8758 95.8294
" />
<path d="M55.8758 95.8294
L55.6853 95.8294
" />
<path d="M55.6853 95.8294
L55.5901 95.8770
" />
<path d="M55.5901 95.8770
L55.5425 95.9246
" />
<path d="M55.5425 95.9246
L55.4949 96.0199
" />
<path d="M55.4949 96.0199
L55.4949 96.2103
" />
<path d="M55.4949 96.2103
L55.5425 96.3056
" />
<path d="M55.5425 96.3056
L55.5901 96.3532
" />
<path d="M55.5901 96.3532
L55.6853 96.4008
" />
<path d="M55.6853 96.4008
L55.8758 96.4008
" />
<path d="M55.8758 96.4008
L55.9710 96.3532
" />
<path d="M55.9710 96.3532
L56.0187 96.3056
" />
<path d="M56.0187 96.3056
L56.0663 96.2103
" />
<path d="M56.0663 96.2103
L56.0663 96.0199
" />
<path d="M56.0663 96.0199
L56.0187 95.9246
" />
<path d="M56.0187 95.9246
L55.9710 95.8770
" />
<path d="M55.9710 95.8770
L55.8758 95.8294
" />
</g><text x="49.5420" y="92.5260"
textLength="1.2500" font-size="1.3333" lengthAdjust="spacingAndGlyphs"
text-anchor="middle" opacity="0">K</text>
<g class="stroked-text"><desc>K</desc>
<path d="M49.2801 92.4808
L49.2801 91.4808
" />
<path d="M49.8515 92.4808
L49.4230 91.9094
" />
<path d="M49.8515 91.4808
L49.2801 92.0522
" />
</g></g>
<g style="fill:#000000; fill-opacity:0.0; 
stroke:#000000; stroke-width:0.1200; stroke-opacity:1; 
stroke-linecap:round; stroke-linejoin:round;">
<text x="53.6520" y="94.2260"
textLength="1.7619" font-size="1.0667" lengthAdjust="spacingAndGlyphs"
text-anchor="middle" opacity="0">D2</text>
<g class="stroked-text"><desc>D2</desc>
<path d="M53.0615 94.1899
L53.0615 93.3899
" />
<path d="M53.0615 93.3899
L53.2520 93.3899
" />
<path d="M53.2520 93.3899
L53.3663 93.4279
" />
<path d="M53.3663 93.4279
L53.4425 93.5041
" />
<path d="M53.4425 93.5041
L53.4806 93.5803
" />
<path d="M53.4806 93.5803
L53.5187 93.7327
" />
<path d="M53.5187 93.7327
L53.5187 93.8470
" />
<path d="M53.5187 93.8470
L53.4806 93.9994
" />
<path d="M53.4806 93.9994
L53.4425 94.0756
" />
<path d="M53.4425 94.0756
L53.3663 94.1518
" />
<path d="M53.3663 94.1518
L53.2520 94.1899
" />
<path d="M53.2520 94.1899
L53.0615 94.1899
" />
<path d="M53.8234 93.4660
L53.8615 93.4279
" />
<path d="M53.8615 93.4279
L53.9377 93.3899
" />
<path d="M53.9377 93.3899
L54.1282 93.3899
" />
<path d="M54.1282 93.3899
L54.2044 93.4279
" />
<path d="M54.2044 93.4279
L54.2425 93.4660
" />
<path d="M54.2425 93.4660
L54.2806 93.5422
" />
<path d="M54.2806 93.5422
L54.2806 93.6184
" />
<path d="M54.2806 93.6184
L54.2425 93.7327
" />
<path d="M54.2425 93.7327
L53.7853 94.1899
" />
<path d="M53.7853 94.1899
L54.2806 94.1899
" />
</g></g>
<g style="fill:#000000; fill-opacity:0.0; 
stroke:#000000; stroke-width:0.1500; stroke-opacity:1; 
stroke-linecap:round; stroke-linejoin:round;">
<text x="35.5600" y="42.6200"
textLength="4.5357" font-size="1.3333" lengthAdjust="spacingAndGlyphs"
text-anchor="middle" opacity="0">FM_IN</text>
<g class="stroked-text"><desc>FM_IN</desc>
<path d="M33.9886 42.0510
L33.6552 42.0510
" />
<path d="M33.6552 42.5748
L33.6552 41.5748
" />
<path d="M33.6552 41.5748
L34.1314 41.5748
" />
<path d="M34.5124 42.5748
L34.5124 41.5748
" />
<path d="M34.5124 41.5748
L34.8457 42.2891
" />
<path d="M34.8457 42.2891
L35.1790 41.5748
" />
<path d="M35.1790 41.5748
L35.1790 42.5748
" />
<path d="M35.4171 42.6701
L36.1790 42.6701
" />
<path d="M36.4171 42.5748
L36.4171 41.5748
" />
<path d="M36.8933 42.5748
L36.8933 41.5748
" />
<path d="M36.8933 41.5748
L37.4648 42.5748
" />
<path d="M37.4648 42.5748
L37.4648 41.5748
" />
</g><text x="35.5600" y="39.6200"
textLength="1.9643" font-size="1.3333" lengthAdjust="spacingAndGlyphs"
text-anchor="middle" opacity="0">J1</text>
<g class="stroked-text"><desc>J1</desc>
<path d="M35.2267 38.5748
L35.2267 39.2891
" />
<path d="M35.2267 39.2891
L35.1790 39.4320
" />
<path d="M35.1790 39.4320
L35.0838 39.5272
" />
<path d="M35.0838 39.5272
L34.9410 39.5748
" />
<path d="M34.9410 39.5748
L34.8457 39.5748
" />
<path d="M36.2267 39.5748
L35.6552 39.5748
" />
<path d="M35.9410 39.5748
L35.9410 38.5748
" />
<path d="M35.9410 38.5748
L35.8457 38.7177
" />
<path d="M35.8457 38.7177
L35.7505 38.8129
" />
<path d="M35.7505 38.8129
L35.6552 38.8605
" />
</g><text x="35.5600" y="62.9400"
textLength="4.3929" font-size="1.3333" lengthAdjust="spacingAndGlyphs"
text-anchor="middle" opacity="0">CV_IN</text>
<g class="stroked-text"><desc>CV_IN</desc>
<path d="M34.2981 62.7996
L34.2505 62.8472
" />
<path d="M34.2505 62.8472
L34.1076 62.8948
" />
<path d="M34.1076 62.8948
L34.0124 62.8948
" />
<path d="M34.0124 62.8948
L33.8695 62.8472
" />
<path d="M33.8695 62.8472
L33.7743 62.7520
" />
<path d="M33.7743 62.7520
L33.7267 62.6567
" />
<path d="M33.7267 62.6567
L33.6790 62.4662
" />
<path d="M33.6790 62.4662
L33.6790 62.3234
" />
<path d="M33.6790 62.3234
L33.7267 62.1329
" />
<path d="M33.7267 62.1329
L33.7743 62.0377
" />
<path d="M33.7743 62.0377
L33.8695 61.9424
" />
<path d="M33.8695 61.9424
L34.0124 61.8948
" />
<path d="M34.0124 61.8948
L34.1076 61.8948
" />
<path d="M34.1076 61.8948
L34.2505 61.9424
" />
<path d="M34.2505 61.9424
L34.2981 61.9901
" />
<path d="M34.5838 61.8948
L34.9171 62.8948
" />
<path d="M34.9171 62.8948
L35.2505 61.8948
" />
<path d="M35.3457 62.9901
L36.1076 62.9901
" />
<path d="M36.3457 62.8948
L36.3457 61.8948
" />
<path d="M36.8219 62.8948
L36.8219 61.8948
" />
<path d="M36.8219 61.8948
L37.3933 62.8948
" />
<path d="M37.3933 62.8948
L37.3933 61.8948
" />
</g><text x="35.5600" y="59.9400"
textLength="1.9643" font-size="1.3333" lengthAdjust="spacingAndGlyphs"
text-anchor="middle" opacity="0">J2</text>
<g class="stroked-text"><desc>J2</desc>
<path d="M35.2267 58.8948
L35.2267 59.6091
" />
<path d="M35.2267 59.6091
L35.1790 59.7520
" />
<path d="M35.1790 59.7520
L35.0838 59.8472
" />
<path d="M35.0838 59.8472
L34.9410 59.8948
" />
<path d="M34.9410 59.8948
L34.8457 59.8948
" />
<path d="M35.6552 58.9901
L35.7029 58.9424
" />
<path d="M35.7029 58.9424
L35.7981 58.8948
" />
<path d="M35.7981 58.8948
L36.0362 58.8948
" />
<path d="M36.0362 58.8948
L36.1314 58.9424
" />
<path d="M36.1314 58.9424
L36.1790 58.9901
" />
<path d="M36.1790 58.9901
L36.2267 59.0853
" />
<path d="M36.2267 59.0853
L36.2267 59.1805
" />
<path d="M36.2267 59.1805
L36.1790 59.3234
" />
<path d="M36.1790 59.3234
L35.6076 59.8948
" />
<path d="M35.6076 59.8948
L36.2267 59.8948
" />
</g><text x="35.5600" y="120.9400"
textLength="4.5833" font-size="1.3333" lengthAdjust="spacingAndGlyphs"
text-anchor="middle" opacity="0">INPUT</text>
<g class="stroked-text"><desc>INPUT</desc>
<path d="M33.6314 120.8948
L33.6314 119.8948
" />
<path d="M34.1076 120.8948
L34.1076 119.8948
" />
<path d="M34.1076 119.8948
L34.6790 120.8948
" />
<path d="M34.6790 120.8948
L34.6790 119.8948
" />
<path d="M35.1552 120.8948
L35.1552 119.8948
" />
<path d="M35.1552 119.8948
L35.5362 119.8948
" />
<path d="M35.5362 119.8948
L35.6314 119.9424
" />
<path d="M35.6314 119.9424
L35.6790 119.9901
" />
<path d="M35.6790 119.9901
L35.7267 120.0853
" />
<path d="M35.7267 120.0853
L35.7267 120.2282
" />
<path d="M35.7267 120.2282
L35.6790 120.3234
" />
<path d="M35.6790 120.3234
L35.6314 120.3710
" />
<path d="M35.6314 120.3710
L35.5362 120.4186
" />
<path d="M35.5362 120.4186
L35.1552 120.4186
" />
<path d="M36.1552 119.8948
L36.1552 120.7043
" />
<path d="M36.1552 120.7043
L36.2029 120.7996
" />
<path d="M36.2029 120.7996
L36.2505 120.8472
" />
<path d="M36.2505 120.8472
L36.3457 120.8948
" />
<path d="M36.3457 120.8948
L36.5362 120.8948
" />
<path d="M36.5362 120.8948
L36.6314 120.8472
" />
<path d="M36.6314 120.8472
L36.6790 120.7996
" />
<path d="M36.6790 120.7996
L36.7267 120.7043
" />
<path d="M36.7267 120.7043
L36.7267 119.8948
" />
<path d="M37.0600 119.8948
L37.6314 119.8948
" />
<path d="M37.3457 120.8948
L37.3457 119.8948
" />
</g><text x="35.5600" y="123.9400"
textLength="1.9643" font-size="1.3333" lengthAdjust="spacingAndGlyphs"
text-anchor="middle" opacity="0">J3</text>
<g class="stroked-text"><desc>J3</desc>
<path d="M35.2267 122.8948
L35.2267 123.6091
" />
<path d="M35.2267 123.6091
L35.1790 123.7520
" />
<path d="M35.1790 123.7520
L35.0838 123.8472
" />
<path d="M35.0838 123.8472
L34.9410 123.8948
" />
<path d="M34.9410 123.8948
L34.8457 123.8948
" />
<path d="M35.6076 122.8948
L36.2267 122.8948
" />
<path d="M36.2267 122.8948
L35.8933 123.2758
" />
<path d="M35.8933 123.2758
L36.0362 123.2758
" />
<path d="M36.0362 123.2758
L36.1314 123.3234
" />
<path d="M36.1314 123.3234
L36.1790 123.3710
" />
<path d="M36.1790 123.3710
L36.2267 123.4662
" />
<path d="M36.2267 123.4662
L36.2267 123.7043
" />
<path d="M36.2267 123.7043
L36.1790 123.7996
" />
<path d="M36.1790 123.7996
L36.1314 123.8472
" />
<path d="M36.1314 123.8472
L36.0362 123.8948
" />
<path d="M36.0362 123.8948
L35.7505 123.8948
" />
<path d="M35.7505 123.8948
L35.6552 123.8472
" />
<path d="M35.6552 123.8472
L35.6076 123.7996
" />
</g><text x="45.7200" y="120.9400"
textLength="5.8690" font-size="1.3333" lengthAdjust="spacingAndGlyphs"
text-anchor="middle" opacity="0">BP_OUT</text>
<g class="stroked-text"><desc>BP_OUT</desc>
<path d="M43.4819 120.3710
L43.6248 120.4186
" />
<path d="M43.6248 120.4186
L43.6724 120.4662
" />
<path d="M43.6724 120.4662
L43.7200 120.5615
" />
<path d="M43.7200 120.5615
L43.7200 120.7043
" />
<path d="M43.7200 120.7043
L43.6724 120.7996
" />
<path d="M43.6724 120.7996
L43.6248 120.8472
" />
<path d="M43.6248 120.8472
L43.5295 120.8948
" />
<path d="M43.5295 120.8948
L43.1486 120.8948
" />
<path d="M43.1486 120.8948
L43.1486 119.8948
" />
<path d="M43.1486 119.8948
L43.4819 119.8948
" />
<path d="M43.4819 119.8948
L43.5771 119.9424
" />
<path d="M43.5771 119.9424
L43.6248 119.9901
" />
<path d="M43.6248 119.9901
L43.6724 120.0853
" />
<path d="M43.6724 120.0853
L43.6724 120.1805
" />
<path d="M43.6724 120.1805
L43.6248 120.2758
" />
<path d="M43.6248 120.2758
L43.5771 120.3234
" />
<path d="M43.5771 120.3234
L43.4819 120.3710
" />
<path d="M43.4819 120.3710
L43.1486 120.3710
" />
<path d="M44.1486 120.8948
L44.1486 119.8948
" />
<path d="M44.1486 119.8948
L44.5295 119.8948
" />
<path d="M44.5295 119.8948
L44.6248 119.9424
" />
<path d="M44.6248 119.9424
L44.6724 119.9901
" />
<path d="M44.6724 119.9901
L44.7200 120.0853
" />
<path d="M44.7200 120.0853
L44.7200 120.2282
" />
<path d="M44.7200 120.2282
L44.6724 120.3234
" />
<path d="M44.6724 120.3234
L44.6248 120.3710
" />
<path d="M44.6248 120.3710
L44.5295 120.4186
" />
<path d="M44.5295 120.4186
L44.1486 120.4186
" />
<path d="M44.9105 120.9901
L45.6724 120.9901
" />
<path d="M46.1010 119.8948
L46.2914 119.8948
" />
<path d="M46.2914 119.8948
L46.3867 119.9424
" />
<path d="M46.3867 119.9424
L46.4819 120.0377
" />
<path d="M46.4819 120.0377
L46.5295 120.2282
" />
<path d="M46.5295 120.2282
L46.5295 120.5615
" />
<path d="M46.5295 120.5615
L46.4819 120.7520
" />
<path d="M46.4819 120.7520
L46.3867 120.8472
" />
<path d="M46.3867 120.8472
L46.2914 120.8948
" />
<path d="M46.2914 120.8948
L46.1010 120.8948
" />
<path d="M46.1010 120.8948
L46.0057 120.8472
" />
<path d="M46.0057 120.8472
L45.9105 120.7520
" />
<path d="M45.9105 120.7520
L45.8629 120.5615
" />
<path d="M45.8629 120.5615
L45.8629 120.2282
" />
<path d="M45.8629 120.2282
L45.9105 120.0377
" />
<path d="M45.9105 120.0377
L46.0057 119.9424
" />
<path d="M46.0057 119.9424
L46.1010 119.8948
" />
<path d="M46.9581 119.8948
L46.9581 120.7043
" />
<path d="M46.9581 120.7043
L47.0057 120.7996
" />
<path d="M47.0057 120.7996
L47.0533 120.8472
" />
<path d="M47.0533 120.8472
L47.1486 120.8948
" />
<path d="M47.1486 120.8948
L47.3390 120.8948
" />
<path d="M47.3390 120.8948
L47.4343 120.8472
" />
<path d="M47.4343 120.8472
L47.4819 120.7996
" />
<path d="M47.4819 120.7996
L47.5295 120.7043
" />
<path d="M47.5295 120.7043
L47.5295 119.8948
" />
<path d="M47.8629 119.8948
L48.4343 119.8948
" />
<path d="M48.1486 120.8948
L48.1486 119.8948
" />
</g><text x="45.7200" y="123.9400"
textLength="1.9643" font-size="1.3333" lengthAdjust="spacingAndGlyphs"
text-anchor="middle" opacity="0">J4</text>
<g class="stroked-text"><desc>J4</desc>
<path d="M45.3867 122.8948
L45.3867 123.6091
" />
<path d="M45.3867 123.6091
L45.3390 123.7520
" />
<path d="M45.3390 123.7520
L45.2438 123.8472
" />
<path d="M45.2438 123.8472
L45.1010 123.8948
" />
<path d="M45.1010 123.8948
L45.0057 123.8948
" />
<path d="M46.2914 123.2282
L46.2914 123.8948
" />
<path d="M46.0533 122.8472
L45.8152 123.5615
" />
<path d="M45.8152 123.5615
L46.4343 123.5615
" />
</g><text x="55.8800" y="120.9400"
textLength="5.6786" font-size="1.3333" lengthAdjust="spacingAndGlyphs"
text-anchor="middle" opacity="0">LP_OUT</text>
<g class="stroked-text"><desc>LP_OUT</desc>
<path d="M53.8800 120.8948
L53.4038 120.8948
" />
<path d="M53.4038 120.8948
L53.4038 119.8948
" />
<path d="M54.2133 120.8948
L54.2133 119.8948
" />
<path d="M54.2133 119.8948
L54.5943 119.8948
" />
<path d="M54.5943 119.8948
L54.6895 119.9424
" />
<path d="M54.6895 119.9424
L54.7371 119.9901
" />
<path d="M54.7371 119.9901
L54.7848 120.0853
" />
<path d="M54.7848 120.0853
L54.7848 120.2282
" />
<path d="M54.7848 120.2282
L54.7371 120.3234
" />
<path d="M54.7371 120.3234
L54.6895 120.3710
" />
<path d="M54.6895 120.3710
L54.5943 120.4186
" />
<path d="M54.5943 120.4186
L54.2133 120.4186
" />
<path d="M54.9752 120.9901
L55.7371 120.9901
" />
<path d="M56.1657 119.8948
L56.3562 119.8948
" />
<path d="M56.3562 119.8948
L56.4514 119.9424
" />
<path d="M56.4514 119.9424
L56.5467 120.0377
" />
<path d="M56.5467 120.0377
L56.5943 120.2282
" />
<path d="M56.5943 120.2282
L56.5943 120.5615
" />
<path d="M56.5943 120.5615
L56.5467 120.7520
" />
<path d="M56.5467 120.7520
L56.4514 120.8472
" />
<path d="M56.4514 120.8472
L56.3562 120.8948
" />
<path d="M56.3562 120.8948
L56.1657 120.8948
" />
<path d="M56.1657 120.8948
L56.0705 120.8472
" />
<path d="M56.0705 120.8472
L55.9752 120.7520
" />
<path d="M55.9752 120.7520
L55.9276 120.5615
" />
<path d="M55.9276 120.5615
L55.9276 120.2282
" />
<path d="M55.9276 120.2282
L55.9752 120.0377
" />
<path d="M55.9752 120.0377
L56.0705 119.9424
" />
<path d="M56.0705 119.9424
L56.1657 119.8948
" />
<path d="M57.0229 119.8948
L57.0229 120.7043
" />
<path d="M57.0229 120.7043
L57.0705 120.7996
" />
<path d="M57.0705 120.7996
L57.1181 120.8472
" />
<path d="M57.1181 120.8472
L57.2133 120.8948
" />
<path d="M57.2133 120.8948
L57.4038 120.8948
" />
<path d="M57.4038 120.8948
L57.4990 120.8472
" />
<path d="M57.4990 120.8472
L57.5467 120.7996
" />
<path d="M57.5467 120.7996
L57.5943 120.7043
" />
<path d="M57.5943 120.7043
L57.5943 119.8948
" />
<path d="M57.9276 119.8948
L58.4990 119.8948
" />
<path d="M58.2133 120.8948
L58.2133 119.8948
" />
</g><text x="55.8800" y="123.9400"
textLength="1.9643" font-size="1.3333" lengthAdjust="spacingAndGlyphs"
text-anchor="middle" opacity="0">J5</text>
<g class="stroked-text"><desc>J5</desc>
<path d="M55.5467 122.8948
L55.5467 123.6091
" />
<path d="M55.5467 123.6091
L55.4990 123.7520
" />
<path d="M55.4990 123.7520
L55.4038 123.8472
" />
<path d="M55.4038 123.8472
L55.2610 123.8948
" />
<path d="M55.2610 123.8948
L55.1657 123.8948
" />
<path d="M56.4990 122.8948
L56.0229 122.8948
" />
<path d="M56.0229 122.8948
L55.9752 123.3710
" />
<path d="M55.9752 123.3710
L56.0229 123.3234
" />
<path d="M56.0229 123.3234
L56.1181 123.2758
" />
<path d="M56.1181 123.2758
L56.3562 123.2758
" />
<path d="M56.3562 123.2758
L56.4514 123.3234
" />
<path d="M56.4514 123.3234
L56.4990 123.3710
" />
<path d="M56.4990 123.3710
L56.5467 123.4662
" />
<path d="M56.5467 123.4662
L56.5467 123.7043
" />
<path d="M56.5467 123.7043
L56.4990 123.7996
" />
<path d="M56.4990 123.7996
L56.4514 123.8472
" />
<path d="M56.4514 123.8472
L56.3562 123.8948
" />
<path d="M56.3562 123.8948
L56.1181 123.8948
" />
<path d="M56.1181 123.8948
L56.0229 123.8472
" />
<path d="M56.0229 123.8472
L55.9752 123.7996
" />
</g><text x="36.5760" y="79.0700"
textLength="2.9643" font-size="1.3333" lengthAdjust="spacingAndGlyphs"
text-anchor="middle" opacity="0">47k</text>
<g class="stroked-text"><desc>47k</desc>
<path d="M35.8855 78.3582
L35.8855 79.0248
" />
<path d="M35.6474 77.9772
L35.4093 78.6915
" />
<path d="M35.4093 78.6915
L36.0284 78.6915
" />
<path d="M36.3141 78.0248
L36.9808 78.0248
" />
<path d="M36.9808 78.0248
L36.5522 79.0248
" />
<path d="M37.3617 79.0248
L37.3617 78.0248
" />
<path d="M37.4570 78.6439
L37.7427 79.0248
" />
<path d="M37.7427 78.3582
L37.3617 78.7391
" />
</g><text x="36.5760" y="76.7000"
textLength="2.2024" font-size="1.3333" lengthAdjust="spacingAndGlyphs"
text-anchor="middle" opacity="0">R1</text>
<g class="stroked-text"><desc>R1</desc>
<path d="M36.4093 76.6548
L36.0760 76.1786
" />
<path d="M35.8379 76.6548
L35.8379 75.6548
" />
<path d="M35.8379 75.6548
L36.2189 75.6548
" />
<path d="M36.2189 75.6548
L36.3141 75.7024
" />
<path d="M36.3141 75.7024
L36.3617 75.7501
" />
<path d="M36.3617 75.7501
L36.4093 75.8453
" />
<path d="M36.4093 75.8453
L36.4093 75.9882
" />
<path d="M36.4093 75.9882
L36.3617 76.0834
" />
<path d="M36.3617 76.0834
L36.3141 76.1310
" />
<path d="M36.3141 76.1310
L36.2189 76.1786
" />
<path d="M36.2189 76.1786
L35.8379 76.1786
" />
<path d="M37.3617 76.6548
L36.7903 76.6548
" />
<path d="M37.0760 76.6548
L37.0760 75.6548
" />
<path d="M37.0760 75.6548
L36.9808 75.7977
" />
<path d="M36.9808 75.7977
L36.8855 75.8929
" />
<path d="M36.8855 75.8929
L36.7903 75.9405
" />
</g><text x="48.2600" y="115.1380"
textLength="3.1071" font-size="1.3333" lengthAdjust="spacingAndGlyphs"
text-anchor="middle" opacity="0">100</text>
<g class="stroked-text"><desc>100</desc>
<path d="M47.5933 115.0928
L47.0219 115.0928
" />
<path d="M47.3076 115.0928
L47.3076 114.0928
" />
<path d="M47.3076 114.0928
L47.2124 114.2357
" />
<path d="M47.2124 114.2357
L47.1171 114.3309
" />
<path d="M47.1171 114.3309
L47.0219 114.3785
" />
<path d="M48.2124 114.0928
L48.3076 114.0928
" />
<path d="M48.3076 114.0928
L48.4029 114.1404
" />
<path d="M48.4029 114.1404
L48.4505 114.1881
" />
<path d="M48.4505 114.1881
L48.4981 114.2833
" />
<path d="M48.4981 114.2833
L48.5457 114.4738
" />
<path d="M48.5457 114.4738
L48.5457 114.7119
" />
<path d="M48.5457 114.7119
L48.4981 114.9023
" />
<path d="M48.4981 114.9023
L48.4505 114.9976
" />
<path d="M48.4505 114.9976
L48.4029 115.0452
" />
<path d="M48.4029 115.0452
L48.3076 115.0928
" />
<path d="M48.3076 115.0928
L48.2124 115.0928
" />
<path d="M48.2124 115.0928
L48.1171 115.0452
" />
<path d="M48.1171 115.0452
L48.0695 114.9976
" />
<path d="M48.0695 114.9976
L48.0219 114.9023
" />
<path d="M48.0219 114.9023
L47.9743 114.7119
" />
<path d="M47.9743 114.7119
L47.9743 114.4738
" />
<path d="M47.9743 114.4738
L48.0219 114.2833
" />
<path d="M48.0219 114.2833
L48.0695 114.1881
" />
<path d="M48.0695 114.1881
L48.1171 114.1404
" />
<path d="M48.1171 114.1404
L48.2124 114.0928
" />
<path d="M49.1648 114.0928
L49.2600 114.0928
" />
<path d="M49.2600 114.0928
L49.3552 114.1404
" />
<path d="M49.3552 114.1404
L49.4029 114.1881
" />
<path d="M49.4029 114.1881
L49.4505 114.2833
" />
<path d="M49.4505 114.2833
L49.4981 114.4738
" />
<path d="M49.4981 114.4738
L49.4981 114.7119
" />
<path d="M49.4981 114.7119
L49.4505 114.9023
" />
<path d="M49.4505 114.9023
L49.4029 114.9976
" />
<path d="M49.4029 114.9976
L49.3552 115.0452
" />
<path d="M49.3552 115.0452
L49.2600 115.0928
" />
<path d="M49.2600 115.0928
L49.1648 115.0928
" />
<path d="M49.1648 115.0928
L49.0695 115.0452
" />
<path d="M49.0695 115.0452
L49.0219 114.9976
" />
<path d="M49.0219 114.9976
L48.9743 114.9023
" />
<path d="M48.9743 114.9023
L48.9267 114.7119
" />
<path d="M48.9267 114.7119
L48.9267 114.4738
" />
<path d="M48.9267 114.4738
L48.9743 114.2833
" />
<path d="M48.9743 114.2833
L49.0219 114.1881
" />
<path d="M49.0219 114.1881
L49.0695 114.1404
" />
<path d="M49.0695 114.1404
L49.1648 114.0928
" />
</g><text x="48.2600" y="112.7680"
textLength="2.2024" font-size="1.3333" lengthAdjust="spacingAndGlyphs"
text-anchor="middle" opacity="0">R2</text>
<g class="stroked-text"><desc>R2</desc>
<path d="M48.0933 112.7228
L47.7600 112.2466
" />
<path d="M47.5219 112.7228
L47.5219 111.7228
" />
<path d="M47.5219 111.7228
L47.9029 111.7228
" />
<path d="M47.9029 111.7228
L47.9981 111.7704
" />
<path d="M47.9981 111.7704
L48.0457 111.8181
" />
<path d="M48.0457 111.8181
L48.0933 111.9133
" />
<path d="M48.0933 111.9133
L48.0933 112.0562
" />
<path d="M48.0933 112.0562
L48.0457 112.1514
" />
<path d="M48.0457 112.1514
L47.9981 112.1990
" />
<path d="M47.9981 112.1990
L47.9029 112.2466
" />
<path d="M47.9029 112.2466
L47.5219 112.2466
" />
<path d="M48.4743 111.8181
L48.5219 111.7704
" />
<path d="M48.5219 111.7704
L48.6171 111.7228
" />
<path d="M48.6171 111.7228
L48.8552 111.7228
" />
<path d="M48.8552 111.7228
L48.9505 111.7704
" />
<path d="M48.9505 111.7704
L48.9981 111.8181
" />
<path d="M48.9981 111.8181
L49.0457 111.9133
" />
<path d="M49.0457 111.9133
L49.0457 112.0085
" />
<path d="M49.0457 112.0085
L48.9981 112.1514
" />
<path d="M48.9981 112.1514
L48.4267 112.7228
" />
<path d="M48.4267 112.7228
L49.0457 112.7228
" />
</g><text x="36.8300" y="101.9300"
textLength="2.9643" font-size="1.3333" lengthAdjust="spacingAndGlyphs"
text-anchor="middle" opacity="0">27k</text>
<g class="stroked-text"><desc>27k</desc>
<path d="M35.6633 100.9801
L35.7110 100.9324
" />
<path d="M35.7110 100.9324
L35.8062 100.8848
" />
<path d="M35.8062 100.8848
L36.0443 100.8848
" />
<path d="M36.0443 100.8848
L36.1395 100.9324
" />
<path d="M36.1395 100.9324
L36.1871 100.9801
" />
<path d="M36.1871 100.9801
L36.2348 101.0753
" />
<path d="M36.2348 101.0753
L36.2348 101.1705
" />
<path d="M36.2348 101.1705
L36.1871 101.3134
" />
<path d="M36.1871 101.3134
L35.6157 101.8848
" />
<path d="M35.6157 101.8848
L36.2348 101.8848
" />
<path d="M36.5681 100.8848
L37.2348 100.8848
" />
<path d="M37.2348 100.8848
L36.8062 101.8848
" />
<path d="M37.6157 101.8848
L37.6157 100.8848
" />
<path d="M37.7110 101.5039
L37.9967 101.8848
" />
<path d="M37.9967 101.2182
L37.6157 101.5991
" />
</g><text x="36.8300" y="99.5600"
textLength="2.2024" font-size="1.3333" lengthAdjust="spacingAndGlyphs"
text-anchor="middle" opacity="0">R3</text>
<g class="stroked-text"><desc>R3</desc>
<path d="M36.6633 99.5148
L36.3300 99.0386
" />
<path d="M36.0919 99.5148
L36.0919 98.5148
" />
<path d="M36.0919 98.5148
L36.4729 98.5148
" />
<path d="M36.4729 98.5148
L36.5681 98.5624
" />
<path d="M36.5681 98.5624
L36.6157 98.6101
" />
<path d="M36.6157 98.6101
L36.6633 98.7053
" />
<path d="M36.6633 98.7053
L36.6633 98.8482
" />
<path d="M36.6633 98.8482
L36.6157 98.9434
" />
<path d="M36.6157 98.9434
L36.5681 98.9910
" />
<path d="M36.5681 98.9910
L36.4729 99.0386
" />
<path d="M36.4729 99.0386
L36.0919 99.0386
" />
<path d="M36.9967 98.5148
L37.6157 98.5148
" />
<path d="M37.6157 98.5148
L37.2824 98.8958
" />
<path d="M37.2824 98.8958
L37.4252 98.8958
" />
<path d="M37.4252 98.8958
L37.5205 98.9434
" />
<path d="M37.5205 98.9434
L37.5681 98.9910
" />
<path d="M37.5681 98.9910
L37.6157 99.0862
" />
<path d="M37.6157 99.0862
L37.6157 99.3243
" />
<path d="M37.6157 99.3243
L37.5681 99.4196
" />
<path d="M37.5681 99.4196
L37.5205 99.4672
" />
<path d="M37.5205 99.4672
L37.4252 99.5148
" />
<path d="M37.4252 99.5148
L37.1395 99.5148
" />
<path d="M37.1395 99.5148
L37.0443 99.4672
" />
<path d="M37.0443 99.4672
L36.9967 99.4196
" />
</g><g transform="rotate(-90.000000 48.8520 102.8700)">
<text x="48.8520" y="103.3700"
textLength="3.1071" font-size="1.3333" lengthAdjust="spacingAndGlyphs"
text-anchor="middle" opacity="0">470</text>
</g>
<g class="stroked-text"><desc>470</desc>
<path d="M48.6402 103.6319
L49.3068 103.6319
" />
<path d="M48.2592 103.8700
L48.9735 104.1081
" />
<path d="M48.9735 104.1081
L48.9735 103.4890
" />
<path d="M48.3068 103.2033
L48.3068 102.5367
" />
<path d="M48.3068 102.5367
L49.3068 102.9652
" />
<path d="M48.3068 101.9652
L48.3068 101.8700
" />
<path d="M48.3068 101.8700
L48.3544 101.7748
" />
<path d="M48.3544 101.7748
L48.4021 101.7271
" />
<path d="M48.4021 101.7271
L48.4973 101.6795
" />
<path d="M48.4973 101.6795
L48.6878 101.6319
" />
<path d="M48.6878 101.6319
L48.9259 101.6319
" />
<path d="M48.9259 101.6319
L49.1163 101.6795
" />
<path d="M49.1163 101.6795
L49.2116 101.7271
" />
<path d="M49.2116 101.7271
L49.2592 101.7748
" />
<path d="M49.2592 101.7748
L49.3068 101.8700
" />
<path d="M49.3068 101.8700
L49.3068 101.9652
" />
<path d="M49.3068 101.9652
L49.2592 102.0605
" />
<path d="M49.2592 102.0605
L49.2116 102.1081
" />
<path d="M49.2116 102.1081
L49.1163 102.1557
" />
<path d="M49.1163 102.1557
L48.9259 102.2033
" />
<path d="M48.9259 102.2033
L48.6878 102.2033
" />
<path d="M48.6878 102.2033
L48.4973 102.1557
" />
<path d="M48.4973 102.1557
L48.4021 102.1081
" />
<path d="M48.4021 102.1081
L48.3544 102.0605
" />
<path d="M48.3544 102.0605
L48.3068 101.9652
" />
</g><g transform="rotate(-90.000000 46.4820 102.8700)">
<text x="46.4820" y="103.3700"
textLength="2.2024" font-size="1.3333" lengthAdjust="spacingAndGlyphs"
text-anchor="middle" opacity="0">R6</text>
</g>
<g class="stroked-text"><desc>R6</desc>
<path d="M46.9368 103.0367
L46.4606 103.3700
" />
<path d="M46.9368 103.6081
L45.9368 103.6081
" />
<path d="M45.9368 103.6081
L45.9368 103.2271
" />
<path d="M45.9368 103.2271
L45.9844 103.1319
" />
<path d="M45.9844 103.1319
L46.0321 103.0843
" />
<path d="M46.0321 103.0843
L46.1273 103.0367
" />
<path d="M46.1273 103.0367
L46.2702 103.0367
" />
<path d="M46.2702 103.0367
L46.3654 103.0843
" />
<path d="M46.3654 103.0843
L46.4130 103.1319
" />
<path d="M46.4130 103.1319
L46.4606 103.2271
" />
<path d="M46.4606 103.2271
L46.4606 103.6081
" />
<path d="M45.9368 102.1795
L45.9368 102.3700
" />
<path d="M45.9368 102.3700
L45.9844 102.4652
" />
<path d="M45.9844 102.4652
L46.0321 102.5129
" />
<path d="M46.0321 102.5129
L46.1749 102.6081
" />
<path d="M46.1749 102.6081
L46.3654 102.6557
" />
<path d="M46.3654 102.6557
L46.7463 102.6557
" />
<path d="M46.7463 102.6557
L46.8416 102.6081
" />
<path d="M46.8416 102.6081
L46.8892 102.5605
" />
<path d="M46.8892 102.5605
L46.9368 102.4652
" />
<path d="M46.9368 102.4652
L46.9368 102.2748
" />
<path d="M46.9368 102.2748
L46.8892 102.1795
" />
<path d="M46.8892 102.1795
L46.8416 102.1319
" />
<path d="M46.8416 102.1319
L46.7463 102.0843
" />
<path d="M46.7463 102.0843
L46.5082 102.0843
" />
<path d="M46.5082 102.0843
L46.4130 102.1319
" />
<path d="M46.4130 102.1319
L46.3654 102.1795
" />
<path d="M46.3654 102.1795
L46.3178 102.2748
" />
<path d="M46.3178 102.2748
L46.3178 102.4652
" />
<path d="M46.3178 102.4652
L46.3654 102.5605
" />
<path d="M46.3654 102.5605
L46.4130 102.6081
" />
<path d="M46.4130 102.6081
L46.5082 102.6557
" />
</g><text x="36.8300" y="106.5020"
textLength="2.0119" font-size="1.3333" lengthAdjust="spacingAndGlyphs"
text-anchor="middle" opacity="0">1k</text>
<g class="stroked-text"><desc>1k</desc>
<path d="M36.7110 106.4568
L36.1395 106.4568
" />
<path d="M36.4252 106.4568
L36.4252 105.4568
" />
<path d="M36.4252 105.4568
L36.3300 105.5997
" />
<path d="M36.3300 105.5997
L36.2348 105.6949
" />
<path d="M36.2348 105.6949
L36.1395 105.7425
" />
<path d="M37.1395 106.4568
L37.1395 105.4568
" />
<path d="M37.2348 106.0759
L37.5205 106.4568
" />
<path d="M37.5205 105.7902
L37.1395 106.1711
" />
</g><text x="36.8300" y="104.1320"
textLength="2.2024" font-size="1.3333" lengthAdjust="spacingAndGlyphs"
text-anchor="middle" opacity="0">R4</text>
<g class="stroked-text"><desc>R4</desc>
<path d="M36.6633 104.0868
L36.3300 103.6106
" />
<path d="M36.0919 104.0868
L36.0919 103.0868
" />
<path d="M36.0919 103.0868
L36.4729 103.0868
" />
<path d="M36.4729 103.0868
L36.5681 103.1344
" />
<path d="M36.5681 103.1344
L36.6157 103.1821
" />
<path d="M36.6157 103.1821
L36.6633 103.2773
" />
<path d="M36.6633 103.2773
L36.6633 103.4202
" />
<path d="M36.6633 103.4202
L36.6157 103.5154
" />
<path d="M36.6157 103.5154
L36.5681 103.5630
" />
<path d="M36.5681 103.5630
L36.4729 103.6106
" />
<path d="M36.4729 103.6106
L36.0919 103.6106
" />
<path d="M37.5205 103.4202
L37.5205 104.0868
" />
<path d="M37.2824 103.0392
L37.0443 103.7535
" />
<path d="M37.0443 103.7535
L37.6633 103.7535
" />
</g><text x="36.8300" y="111.0740"
textLength="2.0119" font-size="1.3333" lengthAdjust="spacingAndGlyphs"
text-anchor="middle" opacity="0">1k</text>
<g class="stroked-text"><desc>1k</desc>
<path d="M36.7110 111.0288
L36.1395 111.0288
" />
<path d="M36.4252 111.0288
L36.4252 110.0288
" />
<path d="M36.4252 110.0288
L36.3300 110.1717
" />
<path d="M36.3300 110.1717
L36.2348 110.2669
" />
<path d="M36.2348 110.2669
L36.1395 110.3145
" />
<path d="M37.1395 111.0288
L37.1395 110.0288
" />
<path d="M37.2348 110.6479
L37.5205 111.0288
" />
<path d="M37.5205 110.3622
L37.1395 110.7431
" />
</g><text x="36.8300" y="108.7040"
textLength="2.2024" font-size="1.3333" lengthAdjust="spacingAndGlyphs"
text-anchor="middle" opacity="0">R5</text>
<g class="stroked-text"><desc>R5</desc>
<path d="M36.6633 108.6588
L36.3300 108.1826
" />
<path d="M36.0919 108.6588
L36.0919 107.6588
" />
<path d="M36.0919 107.6588
L36.4729 107.6588
" />
<path d="M36.4729 107.6588
L36.5681 107.7064
" />
<path d="M36.5681 107.7064
L36.6157 107.7541
" />
<path d="M36.6157 107.7541
L36.6633 107.8493
" />
<path d="M36.6633 107.8493
L36.6633 107.9922
" />
<path d="M36.6633 107.9922
L36.6157 108.0874
" />
<path d="M36.6157 108.0874
L36.5681 108.1350
" />
<path d="M36.5681 108.1350
L36.4729 108.1826
" />
<path d="M36.4729 108.1826
L36.0919 108.1826
" />
<path d="M37.5681 107.6588
L37.0919 107.6588
" />
<path d="M37.0919 107.6588
L37.0443 108.1350
" />
<path d="M37.0443 108.1350
L37.0919 108.0874
" />
<path d="M37.0919 108.0874
L37.1871 108.0398
" />
<path d="M37.1871 108.0398
L37.4252 108.0398
" />
<path d="M37.4252 108.0398
L37.5205 108.0874
" />
<path d="M37.5205 108.0874
L37.5681 108.1350
" />
<path d="M37.5681 108.1350
L37.6157 108.2302
" />
<path d="M37.6157 108.2302
L37.6157 108.4683
" />
<path d="M37.6157 108.4683
L37.5681 108.5636
" />
<path d="M37.5681 108.5636
L37.5205 108.6112
" />
<path d="M37.5205 108.6112
L37.4252 108.6588
" />
<path d="M37.4252 108.6588
L37.1871 108.6588
" />
<path d="M37.1871 108.6588
L37.0919 108.6112
" />
<path d="M37.0919 108.6112
L37.0443 108.5636
" />
</g><g transform="rotate(-90.000000 63.2000 48.1400)">
<text x="63.2000" y="48.6400"
textLength="2.9643" font-size="1.3333" lengthAdjust="spacingAndGlyphs"
text-anchor="middle" opacity="0">47k</text>
</g>
<g class="stroked-text"><desc>47k</desc>
<path d="M62.9882 48.8305
L63.6548 48.8305
" />
<path d="M62.6072 49.0686
L63.3215 49.3067
" />
<path d="M63.3215 49.3067
L63.3215 48.6876
" />
<path d="M62.6548 48.4019
L62.6548 47.7352
" />
<path d="M62.6548 47.7352
L63.6548 48.1638
" />
<path d="M63.6548 47.3543
L62.6548 47.3543
" />
<path d="M63.2739 47.2590
L63.6548 46.9733
" />
<path d="M62.9882 46.9733
L63.3691 47.3543
" />
</g><g transform="rotate(-90.000000 55.8800 40.5200)">
<text x="55.8800" y="41.0200"
textLength="3.0595" font-size="1.3333" lengthAdjust="spacingAndGlyphs"
text-anchor="middle" opacity="0">RV1</text>
</g>
<g class="stroked-text"><desc>RV1</desc>
<path d="M56.3348 41.1152
L55.8586 41.4486
" />
<path d="M56.3348 41.6867
L55.3348 41.6867
" />
<path d="M55.3348 41.6867
L55.3348 41.3057
" />
<path d="M55.3348 41.3057
L55.3824 41.2105
" />
<path d="M55.3824 41.2105
L55.4301 41.1629
" />
<path d="M55.4301 41.1629
L55.5253 41.1152
" />
<path d="M55.5253 41.1152
L55.6682 41.1152
" />
<path d="M55.6682 41.1152
L55.7634 41.1629
" />
<path d="M55.7634 41.1629
L55.8110 41.2105
" />
<path d="M55.8110 41.2105
L55.8586 41.3057
" />
<path d="M55.8586 41.3057
L55.8586 41.6867
" />
<path d="M55.3348 40.8295
L56.3348 40.4962
" />
<path d="M56.3348 40.4962
L55.3348 40.1629
" />
<path d="M56.3348 39.3057
L56.3348 39.8771
" />
<path d="M56.3348 39.5914
L55.3348 39.5914
" />
<path d="M55.3348 39.5914
L55.4777 39.6867
" />
<path d="M55.4777 39.6867
L55.5729 39.7819
" />
<path d="M55.5729 39.7819
L55.6205 39.8771
" />
</g><g transform="rotate(-90.000000 63.2000 68.4600)">
<text x="63.2000" y="68.9600"
textLength="3.9167" font-size="1.3333" lengthAdjust="spacingAndGlyphs"
text-anchor="middle" opacity="0">100k</text>
</g>
<g class="stroked-text"><desc>100k</desc>
<path d="M63.6548 69.5314
L63.6548 70.1029
" />
<path d="M63.6548 69.8171
L62.6548 69.8171
" />
<path d="M62.6548 69.8171
L62.7977 69.9124
" />
<path d="M62.7977 69.9124
L62.8929 70.0076
" />
<path d="M62.8929 70.0076
L62.9405 70.1029
" />
<path d="M62.6548 68.9124
L62.6548 68.8171
" />
<path d="M62.6548 68.8171
L62.7024 68.7219
" />
<path d="M62.7024 68.7219
L62.7501 68.6743
" />
<path d="M62.7501 68.6743
L62.8453 68.6267
" />
<path d="M62.8453 68.6267
L63.0358 68.5790
" />
<path d="M63.0358 68.5790
L63.2739 68.5790
" />
<path d="M63.2739 68.5790
L63.4643 68.6267
" />
<path d="M63.4643 68.6267
L63.5596 68.6743
" />
<path d="M63.5596 68.6743
L63.6072 68.7219
" />
<path d="M63.6072 68.7219
L63.6548 68.8171
" />
<path d="M63.6548 68.8171
L63.6548 68.9124
" />
<path d="M63.6548 68.9124
L63.6072 69.0076
" />
<path d="M63.6072 69.0076
L63.5596 69.0552
" />
<path d="M63.5596 69.0552
L63.4643 69.1029
" />
<path d="M63.4643 69.1029
L63.2739 69.1505
" />
<path d="M63.2739 69.1505
L63.0358 69.1505
" />
<path d="M63.0358 69.1505
L62.8453 69.1029
" />
<path d="M62.8453 69.1029
L62.7501 69.0552
" />
<path d="M62.7501 69.0552
L62.7024 69.0076
" />
<path d="M62.7024 69.0076
L62.6548 68.9124
" />
<path d="M62.6548 67.9600
L62.6548 67.8648
" />
<path d="M62.6548 67.8648
L62.7024 67.7695
" />
<path d="M62.7024 67.7695
L62.7501 67.7219
" />
<path d="M62.7501 67.7219
L62.8453 67.6743
" />
<path d="M62.8453 67.6743
L63.0358 67.6267
" />
<path d="M63.0358 67.6267
L63.2739 67.6267
" />
<path d="M63.2739 67.6267
L63.4643 67.6743
" />
<path d="M63.4643 67.6743
L63.5596 67.7219
" />
<path d="M63.5596 67.7219
L63.6072 67.7695
" />
<path d="M63.6072 67.7695
L63.6548 67.8648
" />
<path d="M63.6548 67.8648
L63.6548 67.9600
" />
<path d="M63.6548 67.9600
L63.6072 68.0552
" />
<path d="M63.6072 68.0552
L63.5596 68.1029
" />
<path d="M63.5596 68.1029
L63.4643 68.1505
" />
<path d="M63.4643 68.1505
L63.2739 68.1981
" />
<path d="M63.2739 68.1981
L63.0358 68.1981
" />
<path d="M63.0358 68.1981
L62.8453 68.1505
" />
<path d="M62.8453 68.1505
L62.7501 68.1029
" />
<path d="M62.7501 68.1029
L62.7024 68.0552
" />
<path d="M62.7024 68.0552
L62.6548 67.9600
" />
<path d="M63.6548 67.1981
L62.6548 67.1981
" />
<path d="M63.2739 67.1029
L63.6548 66.8171
" />
<path d="M62.9882 66.8171
L63.3691 67.1981
" />
</g><g transform="rotate(-90.000000 55.8800 60.8400)">
<text x="55.8800" y="61.3400"
textLength="3.0595" font-size="1.3333" lengthAdjust="spacingAndGlyphs"
text-anchor="middle" opacity="0">RV2</text>
</g>
<g class="stroked-text"><desc>RV2</desc>
<path d="M56.3348 61.4352
L55.8586 61.7686
" />
<path d="M56.3348 62.0067
L55.3348 62.0067
" />
<path d="M55.3348 62.0067
L55.3348 61.6257
" />
<path d="M55.3348 61.6257
L55.3824 61.5305
" />
<path d="M55.3824 61.5305
L55.4301 61.4829
" />
<path d="M55.4301 61.4829
L55.5253 61.4352
" />
<path d="M55.5253 61.4352
L55.6682 61.4352
" />
<path d="M55.6682 61.4352
L55.7634 61.4829
" />
<path d="M55.7634 61.4829
L55.8110 61.5305
" />
<path d="M55.8110 61.5305
L55.8586 61.6257
" />
<path d="M55.8586 61.6257
L55.8586 62.0067
" />
<path d="M55.3348 61.1495
L56.3348 60.8162
" />
<path d="M56.3348 60.8162
L55.3348 60.4829
" />
<path d="M55.4301 60.1971
L55.3824 60.1495
" />
<path d="M55.3824 60.1495
L55.3348 60.0543
" />
<path d="M55.3348 60.0543
L55.3348 59.8162
" />
<path d="M55.3348 59.8162
L55.3824 59.7210
" />
<path d="M55.3824 59.7210
L55.4301 59.6733
" />
<path d="M55.4301 59.6733
L55.5253 59.6257
" />
<path d="M55.5253 59.6257
L55.6205 59.6257
" />
<path d="M55.6205 59.6257
L55.7634 59.6733
" />
<path d="M55.7634 59.6733
L56.3348 60.2448
" />
<path d="M56.3348 60.2448
L56.3348 59.6257
" />
</g><g transform="rotate(-90.000000 63.2000 109.1000)">
<text x="63.2000" y="109.6000"
textLength="3.9167" font-size="1.3333" lengthAdjust="spacingAndGlyphs"
text-anchor="middle" opacity="0">100k</text>
</g>
<g class="stroked-text"><desc>100k</desc>
<path d="M63.6548 110.1714
L63.6548 110.7429
" />
<path d="M63.6548 110.4571
L62.6548 110.4571
" />
<path d="M62.6548 110.4571
L62.7977 110.5524
" />
<path d="M62.7977 110.5524
L62.8929 110.6476
" />
<path d="M62.8929 110.6476
L62.9405 110.7429
" />
<path d="M62.6548 109.5524
L62.6548 109.4571
" />
<path d="M62.6548 109.4571
L62.7024 109.3619
" />
<path d="M62.7024 109.3619
L62.7501 109.3143
" />
<path d="M62.7501 109.3143
L62.8453 109.2667
" />
<path d="M62.8453 109.2667
L63.0358 109.2190
" />
<path d="M63.0358 109.2190
L63.2739 109.2190
" />
<path d="M63.2739 109.2190
L63.4643 109.2667
" />
<path d="M63.4643 109.2667
L63.5596 109.3143
" />
<path d="M63.5596 109.3143
L63.6072 109.3619
" />
<path d="M63.6072 109.3619
L63.6548 109.4571
" />
<path d="M63.6548 109.4571
L63.6548 109.5524
" />
<path d="M63.6548 109.5524
L63.6072 109.6476
" />
<path d="M63.6072 109.6476
L63.5596 109.6952
" />
<path d="M63.5596 109.6952
L63.4643 109.7429
" />
<path d="M63.4643 109.7429
L63.2739 109.7905
" />
<path d="M63.2739 109.7905
L63.0358 109.7905
" />
<path d="M63.0358 109.7905
L62.8453 109.7429
" />
<path d="M62.8453 109.7429
L62.7501 109.6952
" />
<path d="M62.7501 109.6952
L62.7024 109.6476
" />
<path d="M62.7024 109.6476
L62.6548 109.5524
" />
<path d="M62.6548 108.6000
L62.6548 108.5048
" />
<path d="M62.6548 108.5048
L62.7024 108.4095
" />
<path d="M62.7024 108.4095
L62.7501 108.3619
" />
<path d="M62.7501 108.3619
L62.8453 108.3143
" />
<path d="M62.8453 108.3143
L63.0358 108.2667
" />
<path d="M63.0358 108.2667
L63.2739 108.2667
" />
<path d="M63.2739 108.2667
L63.4643 108.3143
" />
<path d="M63.4643 108.3143
L63.5596 108.3619
" />
<path d="M63.5596 108.3619
L63.6072 108.4095
" />
<path d="M63.6072 108.4095
L63.6548 108.5048
" />
<path d="M63.6548 108.5048
L63.6548 108.6000
" />
<path d="M63.6548 108.6000
L63.6072 108.6952
" />
<path d="M63.6072 108.6952
L63.5596 108.7429
" />
<path d="M63.5596 108.7429
L63.4643 108.7905
" />
<path d="M63.4643 108.7905
L63.2739 108.8381
" />
<path d="M63.2739 108.8381
L63.0358 108.8381
" />
<path d="M63.0358 108.8381
L62.8453 108.7905
" />
<path d="M62.8453 108.7905
L62.7501 108.7429
" />
<path d="M62.7501 108.7429
L62.7024 108.6952
" />
<path d="M62.7024 108.6952
L62.6548 108.6000
" />
<path d="M63.6548 107.8381
L62.6548 107.8381
" />
<path d="M63.2739 107.7429
L63.6548 107.4571
" />
<path d="M62.9882 107.4571
L63.3691 107.8381
" />
</g><g transform="rotate(-90.000000 55.8800 101.4800)">
<text x="55.8800" y="101.9800"
textLength="3.0595" font-size="1.3333" lengthAdjust="spacingAndGlyphs"
text-anchor="middle" opacity="0">RV3</text>
</g>
<g class="stroked-text"><desc>RV3</desc>
<path d="M56.3348 102.0752
L55.8586 102.4086
" />
<path d="M56.3348 102.6467
L55.3348 102.6467
" />
<path d="M55.3348 102.6467
L55.3348 102.2657
" />
<path d="M55.3348 102.2657
L55.3824 102.1705
" />
<path d="M55.3824 102.1705
L55.4301 102.1229
" />
<path d="M55.4301 102.1229
L55.5253 102.0752
" />
<path d="M55.5253 102.0752
L55.6682 102.0752
" />
<path d="M55.6682 102.0752
L55.7634 102.1229
" />
<path d="M55.7634 102.1229
L55.8110 102.1705
" />
<path d="M55.8110 102.1705
L55.8586 102.2657
" />
<path d="M55.8586 102.2657
L55.8586 102.6467
" />
<path d="M55.3348 101.7895
L56.3348 101.4562
" />
<path d="M56.3348 101.4562
L55.3348 101.1229
" />
<path d="M55.3348 100.8848
L55.3348 100.2657
" />
<path d="M55.3348 100.2657
L55.7158 100.5990
" />
<path d="M55.7158 100.5990
L55.7158 100.4562
" />
<path d="M55.7158 100.4562
L55.7634 100.3610
" />
<path d="M55.7634 100.3610
L55.8110 100.3133
" />
<path d="M55.8110 100.3133
L55.9062 100.2657
" />
<path d="M55.9062 100.2657
L56.1443 100.2657
" />
<path d="M56.1443 100.2657
L56.2396 100.3133
" />
<path d="M56.2396 100.3133
L56.2872 100.3610
" />
<path d="M56.2872 100.3610
L56.3348 100.4562
" />
<path d="M56.3348 100.4562
L56.3348 100.7419
" />
<path d="M56.3348 100.7419
L56.2872 100.8371
" />
<path d="M56.2872 100.8371
L56.2396 100.8848
" />
</g></g>
<g style="fill:#000000; fill-opacity:0.0; 
stroke:#000000; stroke-width:0.1000; stroke-opacity:1; 
stroke-linecap:round; stroke-linejoin:round;">
<path d="M57.1500 90.6780
L55.3400 90.6780
" />
<path d="M55.3400 91.6780
L55.3400 89.6780
" />
<path d="M55.3400 89.6780
L51.3400 89.6780
" />
<path d="M54.8400 91.6780
L54.8400 89.6780
" />
<path d="M54.7400 91.6780
L54.7400 89.6780
" />
<path d="M54.6400 91.6780
L54.6400 89.6780
" />
<path d="M51.3400 91.6780
L55.3400 91.6780
" />
<path d="M51.3400 89.6780
L51.3400 91.6780
" />
<path d="M49.5300 90.6780
L51.3400 90.6780
" />
<path d="M49.5420 93.8260
L51.3520 93.8260
" />
<path d="M51.3520 92.8260
L51.3520 94.8260
" />
<path d="M51.3520 94.8260
L55.3520 94.8260
" />
<path d="M51.8520 92.8260
L51.8520 94.8260
" />
<path d="M51.9520 92.8260
L51.9520 94.8260
" />
<path d="M52.0520 92.8260
L52.0520 94.8260
" />
<path d="M55.3520 92.8260
L51.3520 92.8260
" />
<path d="M55.3520 94.8260
L55.3520 92.8260
" />
<path d="M57.1620 93.8260
L55.3520 93.8260
" />
<path d="M35.5600 47.1200
L35.5600 45.0900
" />
<circle cx="35.5600" cy="40.6400" r="1.8000" /> 
<path d="M35.5600 67.4400
L35.5600 65.4100
" />
<circle cx="35.5600" cy="60.9600" r="1.8000" /> 
<path d="M35.5600 115.4400
L35.5600 117.4700
" />
<circle cx="35.5600" cy="121.9200" r="1.8000" /> 
<path d="M45.7200 115.4400
L45.7200 117.4700
" />
<circle cx="45.7200" cy="121.9200" r="1.8000" /> 
<path d="M55.8800 115.4400
L55.8800 117.4700
" />
<circle cx="55.8800" cy="121.9200" r="1.8000" /> 
<path d="M31.4960 76.2000
L33.4260 76.2000
" />
<path d="M33.4260 74.9500
L33.4260 77.4500
" />
<path d="M33.4260 77.4500
L39.7260 77.4500
" />
<path d="M39.7260 74.9500
L33.4260 74.9500
" />
<path d="M39.7260 77.4500
L39.7260 74.9500
" />
<path d="M41.6560 76.2000
L39.7260 76.2000
" />
<path d="M43.1800 112.2680
L45.1100 112.2680
" />
<path d="M45.1100 111.0180
L45.1100 113.5180
" />
<path d="M45.1100 113.5180
L51.4100 113.5180
" />
<path d="M51.4100 111.0180
L45.1100 111.0180
" />
<path d="M51.4100 113.5180
L51.4100 111.0180
" />
<path d="M53.3400 112.2680
L51.4100 112.2680
" />
<path d="M31.7500 99.0600
L33.6800 99.0600
" />
<path d="M33.6800 97.8100
L33.6800 100.3100
" />
<path d="M33.6800 100.3100
L39.9800 100.3100
" />
<path d="M39.9800 97.8100
L33.6800 97.8100
" />
<path d="M39.9800 100.3100
L39.9800 97.8100
" />
<path d="M41.9100 99.0600
L39.9800 99.0600
" />
<path d="M46.4820 107.9500
L46.4820 106.0200
" />
<path d="M45.2320 106.0200
L47.7320 106.0200
" />
<path d="M47.7320 106.0200
L47.7320 99.7200
" />
<path d="M45.2320 99.7200
L45.2320 106.0200
" />
<path d="M47.7320 99.7200
L45.2320 99.7200
" />
<path d="M46.4820 97.7900
L46.4820 99.7200
" />
<path d="M31.7500 103.6320
L33.6800 103.6320
" />
<path d="M33.6800 102.3820
L33.6800 104.8820
" />
<path d="M33.6800 104.8820
L39.9800 104.8820
" />
<path d="M39.9800 102.3820
L33.6800 102.3820
" />
<path d="M39.9800 104.8820
L39.9800 102.3820
" />
<path d="M41.9100 103.6320
L39.9800 103.6320
" />
<path d="M31.7500 108.2040
L33.6800 108.2040
" />
<path d="M33.6800 106.9540
L33.6800 109.4540
" />
<path d="M33.6800 109.4540
L39.9800 109.4540
" />
<path d="M39.9800 106.9540
L33.6800 106.9540
" />
<path d="M39.9800 109.4540
L39.9800 106.9540
" />
<path d="M41.9100 108.2040
L39.9800 108.2040
" />
<path d="M51.0900 47.1400
L51.0900 35.7900
" />
<path d="M60.5900 47.1400
L51.0900 47.1400
" />
<path d="M60.5900 47.1400
L60.5900 35.7900
" />
<path d="M60.5900 35.7900
L51.0900 35.7900
" />
<circle cx="55.8400" cy="40.6400" r="3.5000" /> 
<path d="M51.0900 67.4600
L51.0900 56.1100
" />
<path d="M60.5900 67.4600
L51.0900 67.4600
" />
<path d="M60.5900 67.4600
L60.5900 56.1100
" />
<path d="M60.5900 56.1100
L51.0900 56.1100
" />
<circle cx="55.8400" cy="60.9600" r="3.5000" /> 
<path d="M51.0900 108.1000
L51.0900 96.7500
" />
<path d="M60.5900 108.1000
L51.0900 108.1000
" />
<path d="M60.5900 108.1000
L60.5900 96.7500
" />
<path d="M60.5900 96.7500
L51.0900 96.7500
" />
<circle cx="55.8400" cy="101.6000" r="3.5000" /> 
<g >
</g>
<g >
</g>
<g >
</g>
<g >
</g>
<g >
</g>
<g >
</g>
<g >
</g>
<g >
</g>
<g >
</g>
<g >
</g>
<g >
</g>
<g >
</g>
<g >
</g>
<g >
</g>
<g >
</g>
<g >
</g>
<g >
</g>
<g >
</g>
<g >
</g>
<g >
</g>
<g >
</g>
<g >
</g>
<g >
</g>
<g >
</g>
<g >
</g>
<g >
</g>
</g> 
</svg>
