<?xml version="1.0" standalone="no"?>
 <!DOCTYPE svg PUBLIC "-//W3C//DTD SVG 1.1//EN" 
 "http://www.w3.org/Graphics/SVG/1.1/DTD/svg11.dtd"> 
<svg
  xmlns:svg="http://www.w3.org/2000/svg"
  xmlns="http://www.w3.org/2000/svg"
  xmlns:xlink="http://www.w3.org/1999/xlink"
  version="1.1"
  width="297.0022mm" height="210.0072mm" viewBox="0.0000 0.0000 297.0022 210.0072">
<title>SVG Image created as panel-B_Cu.svg date 2023/11/06 17:30:21 </title>
  <desc>Image generated by PCBNEW </desc>
<g style="fill:#000000; fill-opacity:1.0000;stroke:#000000; stroke-opacity:1.0000;
stroke-linecap:round; stroke-linejoin:round;"
 transform="translate(0 0) scale(1 1)">
</g>
<g style="fill:#000000; fill-opacity:0.0; 
stroke:#000000; stroke-width:0.0000; stroke-opacity:1; 
stroke-linecap:round; stroke-linejoin:round;">
<g >
</g>
<g style="fill:#000000; fill-opacity:1.0000; 
stroke:#000000; stroke-width:0.0000; stroke-opacity:1; 
stroke-linecap:round; stroke-linejoin:round;">
<circle cx="58.3000" cy="53.8000" r="2.5000" /> 
</g>
<g style="fill:#000000; fill-opacity:1.0000; 
stroke:#000000; stroke-width:0.0212; stroke-opacity:1; 
stroke-linecap:round; stroke-linejoin:round;">
</g>
<g style="fill:#000000; fill-opacity:1.0000; 
stroke:#000000; stroke-width:0.0000; stroke-opacity:1; 
stroke-linecap:round; stroke-linejoin:round;">
<circle cx="58.3000" cy="53.8000" r="1.8000" /> 
</g>
<g style="fill:#000000; fill-opacity:1.0000; 
stroke:#000000; stroke-width:0.0212; stroke-opacity:1; 
stroke-linecap:round; stroke-linejoin:round;">
</g>
<g >
</g>
<g style="fill:#000000; fill-opacity:1.0000; 
stroke:#000000; stroke-width:0.0212; stroke-opacity:1; 
stroke-linecap:round; stroke-linejoin:round;">
</g>
<g style="fill:#000000; fill-opacity:1.0000; 
stroke:#000000; stroke-width:0.0000; stroke-opacity:1; 
stroke-linecap:round; stroke-linejoin:round;">
<circle cx="58.3000" cy="176.3000" r="2.5000" /> 
</g>
<g style="fill:#000000; fill-opacity:1.0000; 
stroke:#000000; stroke-width:0.0212; stroke-opacity:1; 
stroke-linecap:round; stroke-linejoin:round;">
</g>
<g style="fill:#000000; fill-opacity:1.0000; 
stroke:#000000; stroke-width:0.0000; stroke-opacity:1; 
stroke-linecap:round; stroke-linejoin:round;">
<circle cx="58.3000" cy="176.3000" r="1.8000" /> 
</g>
<g style="fill:#000000; fill-opacity:1.0000; 
stroke:#000000; stroke-width:0.0212; stroke-opacity:1; 
stroke-linecap:round; stroke-linejoin:round;">
</g>
<g >
</g>
<g >
</g>
<g >
</g>
<g >
</g>
<g >
</g>
<g >
</g>
<g >
</g>
<g >
</g>
<g >
</g>
<g >
</g>
<g >
</g>
<g >
</g>
<g >
</g>
<g >
</g>
<g >
</g>
<g >
</g>
<g style="fill:#000000; fill-opacity:1.0000; 
stroke:#000000; stroke-width:0.0212; stroke-opacity:1; 
stroke-linecap:round; stroke-linejoin:round;">
<g >
</g>
<g style="fill:#000000; fill-opacity:1.0000; 
stroke:#000000; stroke-width:0.0000; stroke-opacity:1; 
stroke-linecap:round; stroke-linejoin:round;">
<path style="fill:#000000; fill-opacity:1.0000; 
stroke:#000000; stroke-width:0.0000; stroke-opacity:1; 
stroke-linecap:round; stroke-linejoin:round;fill-rule:evenodd;"
d="M 56.2050,51.3927
56.2462,51.4202
56.2738,51.4614
56.2834,51.5100
56.2738,51.5586
56.2462,51.5998
55.9635,51.8825
55.6343,52.3752
55.4076,52.9226
55.2920,53.5037
55.2920,54.0963
55.4076,54.6774
55.6343,55.2248
55.9635,55.7175
56.3825,56.1365
56.8752,56.4657
57.4226,56.6924
58.0037,56.8080
58.5963,56.8080
59.1774,56.6924
59.7248,56.4657
60.2175,56.1365
60.6365,55.7175
60.9657,55.2248
61.1924,54.6774
61.3080,54.0963
61.3080,53.5037
61.1924,52.9226
60.9657,52.3752
60.6365,51.8825
60.3538,51.5998
60.3262,51.5586
60.3166,51.5100
60.3262,51.4614
60.3538,51.4202
60.3950,51.3927
60.4436,51.3830
90.3900,51.3830
90.4386,51.3927
90.4798,51.4202
90.5073,51.4614
90.5170,51.5100
90.5170,178.5900
90.5073,178.6386
90.4798,178.6798
90.4386,178.7073
90.3900,178.7170
60.4436,178.7170
60.3950,178.7073
60.3538,178.6798
60.3262,178.6386
60.3166,178.5900
60.3262,178.5414
60.3538,178.5002
60.6365,178.2175
60.9657,177.7248
61.1924,177.1774
61.3080,176.5963
61.3080,176.0037
61.1924,175.4226
60.9657,174.8752
60.6365,174.3825
60.2175,173.9635
59.7248,173.6343
59.1774,173.4076
58.5963,173.2920
58.0037,173.2920
57.4226,173.4076
56.8752,173.6343
56.3825,173.9635
55.9635,174.3825
55.6343,174.8752
55.4076,175.4226
55.2920,176.0037
55.2920,176.5963
55.4076,177.1774
55.6343,177.7248
55.9635,178.2175
56.2462,178.5002
56.2738,178.5414
56.2834,178.5900
56.2738,178.6386
56.2462,178.6798
56.2050,178.7073
56.1564,178.7170
51.5100,178.7170
51.4614,178.7073
51.4202,178.6798
51.3927,178.6386
51.3830,178.5900
51.3830,169.6658
77.7240,169.6658
77.7246,169.6714
77.7302,169.6720
84.8298,169.6720
84.8354,169.6714
84.8360,169.6658
84.8360,164.0902
84.8354,164.0846
84.8298,164.0840
77.7302,164.0840
77.7246,164.0846
77.7240,164.0902
77.7240,169.6658
51.3830,169.6658
51.3830,157.8452
77.5720,157.8452
77.7145,158.5616
77.9940,159.2364
78.3998,159.8437
78.9163,160.3602
79.5236,160.7660
80.1984,161.0455
80.9148,161.1880
81.6452,161.1880
82.3616,161.0455
83.0364,160.7660
83.6437,160.3602
84.1602,159.8437
84.5660,159.2364
84.8455,158.5616
84.9880,157.8452
84.9880,157.1148
84.8455,156.3984
84.5660,155.7236
84.1602,155.1163
83.6437,154.5998
83.0364,154.1940
82.3616,153.9145
81.6452,153.7720
80.9148,153.7720
80.1984,153.9145
79.5236,154.1940
78.9163,154.5998
78.3998,155.1163
77.9940,155.7236
77.7145,156.3984
77.5720,157.1148
77.5720,157.8452
51.3830,157.8452
51.3830,142.6052
57.2520,142.6052
57.3945,143.3216
57.6740,143.9964
58.0798,144.6037
58.5963,145.1202
59.2036,145.5260
59.8784,145.8055
60.5948,145.9480
61.3252,145.9480
62.0416,145.8055
62.7164,145.5260
63.3237,145.1202
63.8402,144.6037
64.2460,143.9964
64.5255,143.3216
64.6680,142.6052
64.6680,141.8748
64.5255,141.1584
64.2460,140.4836
63.8402,139.8763
63.6577,139.6938
67.5640,139.6938
67.5646,139.6994
67.5702,139.7000
73.9078,139.7000
73.9134,139.6994
73.9140,139.6938
73.9140,137.5744
77.0720,137.5744
77.2337,138.3874
77.5509,139.1532
78.0114,139.8424
78.5976,140.4286
79.2868,140.8891
80.0526,141.2063
80.8655,141.3680
81.6945,141.3680
82.5074,141.2063
83.2732,140.8891
83.9624,140.4286
84.5486,139.8424
85.0091,139.1532
85.3263,138.3874
85.4880,137.5744
85.4880,136.7455
85.3263,135.9326
85.0091,135.1668
84.5486,134.4776
83.9624,133.8914
83.2732,133.4309
82.5074,133.1137
81.6945,132.9520
80.8655,132.9520
80.0526,133.1137
79.2868,133.4309
78.5976,133.8914
78.0114,134.4776
77.5509,135.1668
77.2337,135.9326
77.0720,136.7455
77.0720,137.5744
73.9140,137.5744
73.9140,134.6262
73.9134,134.6206
73.9078,134.6200
67.5702,134.6200
67.5646,134.6206
67.5640,134.6262
67.5640,139.6938
63.6577,139.6938
63.3237,139.3598
62.7164,138.9540
62.0416,138.6745
61.3252,138.5320
60.5948,138.5320
59.8784,138.6745
59.2036,138.9540
58.5963,139.3598
58.0798,139.8763
57.6740,140.4836
57.3945,141.1584
57.2520,141.8748
57.2520,142.6052
51.3830,142.6052
51.3830,132.4452
57.2520,132.4452
57.3945,133.1616
57.6740,133.8364
58.0798,134.4437
58.5963,134.9602
59.2036,135.3660
59.8784,135.6455
60.5948,135.7880
61.3252,135.7880
62.0416,135.6455
62.7164,135.3660
63.3237,134.9602
63.7537,134.5302
63.8402,134.4437
64.2460,133.8364
64.5255,133.1616
64.6680,132.4452
64.6680,131.7148
64.5255,130.9984
64.2460,130.3236
63.8402,129.7163
63.3237,129.1998
62.7164,128.7940
62.0416,128.5145
61.3252,128.3720
60.5948,128.3720
59.8784,128.5145
59.2036,128.7940
58.5963,129.1998
58.0798,129.7163
57.6740,130.3236
57.3945,130.9984
57.2520,131.7148
57.2520,132.4452
51.3830,132.4452
51.3830,122.2852
57.2520,122.2852
57.3945,123.0016
57.6740,123.6764
58.0798,124.2837
58.5963,124.8002
59.2036,125.2060
59.8784,125.4855
60.5948,125.6280
61.3252,125.6280
62.0416,125.4855
62.7164,125.2060
63.3237,124.8002
63.8402,124.2837
64.2460,123.6764
64.5255,123.0016
64.6680,122.2852
64.6680,121.5548
64.5255,120.8384
64.2460,120.1636
63.8402,119.5563
63.6577,119.3738
67.5640,119.3738
67.5646,119.3794
67.5702,119.3800
73.9078,119.3800
73.9134,119.3794
73.9140,119.3738
73.9140,117.2544
77.0720,117.2544
77.2337,118.0674
77.5509,118.8332
78.0114,119.5224
78.5976,120.1086
79.2868,120.5691
80.0526,120.8863
80.8655,121.0480
81.6945,121.0480
82.5074,120.8863
83.2732,120.5691
83.9624,120.1086
84.5486,119.5224
85.0091,118.8332
85.3263,118.0674
85.4880,117.2544
85.4880,116.4256
85.3263,115.6126
85.0091,114.8468
84.5486,114.1576
83.9624,113.5714
83.2732,113.1109
82.5074,112.7937
81.6945,112.6320
80.8655,112.6320
80.0526,112.7937
79.2868,113.1109
78.5976,113.5714
78.0114,114.1576
77.5509,114.8468
77.2337,115.6126
77.0720,116.4256
77.0720,117.2544
73.9140,117.2544
73.9140,114.8142
73.9134,114.8086
73.9078,114.8080
67.5702,114.8080
67.5646,114.8086
67.5640,114.8142
67.5640,119.3738
63.6577,119.3738
63.3237,119.0398
62.7164,118.6340
62.0416,118.3545
61.3252,118.2120
60.5948,118.2120
59.8784,118.3545
59.2036,118.6340
58.5963,119.0398
58.0798,119.5563
57.6740,120.1636
57.3945,120.8384
57.2520,121.5548
57.2520,122.2852
51.3830,122.2852
51.3830,112.1252
57.2520,112.1252
57.3945,112.8416
57.6740,113.5164
58.0798,114.1237
58.5963,114.6402
59.2036,115.0460
59.8784,115.3255
60.5948,115.4680
61.3252,115.4680
62.0416,115.3255
62.7164,115.0460
63.2306,114.7024
63.3237,114.6402
63.8402,114.1237
64.2460,113.5164
64.5255,112.8416
64.6680,112.1252
64.6680,111.3948
64.5255,110.6784
64.2460,110.0036
63.8402,109.3963
63.3237,108.8798
62.7164,108.4740
62.0416,108.1945
61.3252,108.0520
60.5948,108.0520
59.8784,108.1945
59.2036,108.4740
58.5963,108.8798
58.0798,109.3963
57.6740,110.0036
57.3945,110.6784
57.2520,111.3948
57.2520,112.1252
51.3830,112.1252
51.3830,101.2552
57.2520,101.2552
57.3945,101.9716
57.6740,102.6464
58.0798,103.2537
58.5963,103.7702
59.2036,104.1760
59.8784,104.4555
60.5948,104.5980
61.3252,104.5980
62.0416,104.4555
62.7164,104.1760
63.3237,103.7702
63.8402,103.2537
64.2460,102.6464
64.5255,101.9716
64.6680,101.2552
64.6680,100.5248
64.5255,99.8084
64.2460,99.1336
64.1926,99.0538
67.5640,99.0538
67.5646,99.0594
67.5702,99.0600
73.9078,99.0600
73.9134,99.0594
73.9140,99.0538
73.9140,96.9344
77.0720,96.9344
77.2337,97.7474
77.5509,98.5132
78.0114,99.2024
78.5976,99.7886
79.2868,100.2491
80.0526,100.5663
80.8655,100.7280
81.6945,100.7280
82.5074,100.5663
83.2732,100.2491
83.9624,99.7886
84.5486,99.2024
85.0091,98.5132
85.3263,97.7474
85.4880,96.9344
85.4880,96.1055
85.3263,95.2926
85.0091,94.5268
84.5486,93.8376
83.9624,93.2514
83.2732,92.7909
82.5074,92.4737
81.6945,92.3120
80.8655,92.3120
80.0526,92.4737
79.2868,92.7909
78.5976,93.2514
78.0114,93.8376
77.5509,94.5268
77.2337,95.2926
77.0720,96.1055
77.0720,96.9344
73.9140,96.9344
73.9140,93.9862
73.9134,93.9806
73.9078,93.9800
67.5702,93.9800
67.5646,93.9806
67.5640,93.9862
67.5640,99.0538
64.1926,99.0538
63.8402,98.5263
63.3237,98.0098
62.7164,97.6040
62.0416,97.3245
61.3252,97.1820
60.5948,97.1820
59.8784,97.3245
59.2036,97.6040
58.5963,98.0098
58.0798,98.5263
57.6740,99.1336
57.3945,99.8084
57.2520,100.5248
57.2520,101.2552
51.3830,101.2552
51.3830,91.8052
57.2520,91.8052
57.3945,92.5216
57.6740,93.1964
58.0798,93.8037
58.5963,94.3202
59.2036,94.7260
59.8784,95.0055
60.5948,95.1480
61.3252,95.1480
62.0416,95.0055
62.7164,94.7260
63.3237,94.3202
63.7537,93.8902
63.8402,93.8037
64.2460,93.1964
64.5255,92.5216
64.6680,91.8052
64.6680,91.0748
64.5255,90.3584
64.2460,89.6836
63.8402,89.0763
63.3237,88.5598
62.7164,88.1540
62.0416,87.8745
61.3252,87.7320
60.5948,87.7320
59.8784,87.8745
59.2036,88.1540
58.5963,88.5598
58.0798,89.0763
57.6740,89.6836
57.3945,90.3584
57.2520,91.0748
57.2520,91.8052
51.3830,91.8052
51.3830,81.6452
57.2520,81.6452
57.3945,82.3616
57.6740,83.0364
58.0798,83.6437
58.5963,84.1602
59.2036,84.5660
59.8784,84.8455
60.5948,84.9880
61.3252,84.9880
62.0416,84.8455
62.7164,84.5660
63.3237,84.1602
63.8402,83.6437
64.2460,83.0364
64.5255,82.3616
64.6680,81.6452
64.6680,80.9148
64.5255,80.1984
64.2460,79.5236
63.8402,78.9163
63.6577,78.7338
67.5640,78.7338
67.5646,78.7394
67.5702,78.7400
73.9078,78.7400
73.9134,78.7394
73.9140,78.7338
73.9140,76.6144
77.0720,76.6144
77.2337,77.4274
77.5509,78.1932
78.0114,78.8824
78.5976,79.4686
79.2868,79.9291
80.0526,80.2463
80.8655,80.4080
81.6945,80.4080
82.5074,80.2463
83.2732,79.9291
83.9624,79.4686
84.5486,78.8824
85.0091,78.1932
85.3263,77.4274
85.4880,76.6144
85.4880,75.7856
85.3263,74.9726
85.0091,74.2068
84.5486,73.5176
83.9624,72.9314
83.2732,72.4709
82.5074,72.1537
81.6945,71.9920
80.8655,71.9920
80.0526,72.1537
79.2868,72.4709
78.5976,72.9314
78.0114,73.5176
77.5509,74.2068
77.2337,74.9726
77.0720,75.7856
77.0720,76.6144
73.9140,76.6144
73.9140,73.6662
73.9134,73.6606
73.9078,73.6600
67.5702,73.6600
67.5646,73.6606
67.5640,73.6662
67.5640,78.7338
63.6577,78.7338
63.3237,78.3998
62.7164,77.9940
62.0416,77.7145
61.3252,77.5720
60.5948,77.5720
59.8784,77.7145
59.2036,77.9940
58.5963,78.3998
58.0798,78.9163
57.6740,79.5236
57.3945,80.1984
57.2520,80.9148
57.2520,81.6452
51.3830,81.6452
51.3830,71.4852
57.2520,71.4852
57.3945,72.2016
57.6740,72.8764
58.0798,73.4837
58.5963,74.0002
59.2036,74.4060
59.8784,74.6855
60.5948,74.8280
61.3252,74.8280
62.0416,74.6855
62.7164,74.4060
63.3237,74.0002
63.7537,73.5702
63.8402,73.4837
64.2460,72.8764
64.5255,72.2016
64.6680,71.4852
64.6680,70.7548
64.5255,70.0384
64.2460,69.3636
63.8402,68.7563
63.3237,68.2398
62.7164,67.8340
62.0416,67.5545
61.3252,67.4120
60.5948,67.4120
59.8784,67.5545
59.2036,67.8340
58.5963,68.2398
58.0798,68.7563
57.6740,69.3636
57.3945,70.0384
57.2520,70.7548
57.2520,71.4852
51.3830,71.4852
51.3830,51.5100
51.3927,51.4614
51.4202,51.4202
51.4614,51.3927
51.5100,51.3830
56.1564,51.3830
Z" /> 
</g>
</g>
</g>
<g style="fill:#FFFFFF; fill-opacity:1.0000; 
stroke:#FFFFFF; stroke-width:0.0000; stroke-opacity:1; 
stroke-linecap:round; stroke-linejoin:round;">
<circle cx="58.3000" cy="53.8000" r="0.1750" /> 
</g>
<g style="fill:#FFFFFF; fill-opacity:1.0000; 
stroke:#FFFFFF; stroke-width:0.0212; stroke-opacity:1; 
stroke-linecap:round; stroke-linejoin:round;">
</g>
<g style="fill:#FFFFFF; fill-opacity:1.0000; 
stroke:#FFFFFF; stroke-width:0.0000; stroke-opacity:1; 
stroke-linecap:round; stroke-linejoin:round;">
<circle cx="58.3000" cy="176.3000" r="0.1750" /> 
</g>
<g style="fill:#FFFFFF; fill-opacity:1.0000; 
stroke:#FFFFFF; stroke-width:0.0212; stroke-opacity:1; 
stroke-linecap:round; stroke-linejoin:round;">
</g>
<g style="fill:#FFFFFF; fill-opacity:1.0000; 
stroke:#FFFFFF; stroke-width:0.0000; stroke-opacity:1; 
stroke-linecap:round; stroke-linejoin:round;">
<circle cx="60.9600" cy="71.1200" r="0.1750" /> 
</g>
<g style="fill:#FFFFFF; fill-opacity:1.0000; 
stroke:#FFFFFF; stroke-width:0.0212; stroke-opacity:1; 
stroke-linecap:round; stroke-linejoin:round;">
</g>
<g style="fill:#FFFFFF; fill-opacity:1.0000; 
stroke:#FFFFFF; stroke-width:0.0000; stroke-opacity:1; 
stroke-linecap:round; stroke-linejoin:round;">
<circle cx="60.9600" cy="81.2800" r="0.1750" /> 
</g>
<g style="fill:#FFFFFF; fill-opacity:1.0000; 
stroke:#FFFFFF; stroke-width:0.0212; stroke-opacity:1; 
stroke-linecap:round; stroke-linejoin:round;">
</g>
<g style="fill:#FFFFFF; fill-opacity:1.0000; 
stroke:#FFFFFF; stroke-width:0.0000; stroke-opacity:1; 
stroke-linecap:round; stroke-linejoin:round;">
<circle cx="60.9600" cy="91.4400" r="0.1750" /> 
</g>
<g style="fill:#FFFFFF; fill-opacity:1.0000; 
stroke:#FFFFFF; stroke-width:0.0212; stroke-opacity:1; 
stroke-linecap:round; stroke-linejoin:round;">
</g>
<g style="fill:#FFFFFF; fill-opacity:1.0000; 
stroke:#FFFFFF; stroke-width:0.0000; stroke-opacity:1; 
stroke-linecap:round; stroke-linejoin:round;">
<circle cx="60.9600" cy="100.8900" r="0.1750" /> 
</g>
<g style="fill:#FFFFFF; fill-opacity:1.0000; 
stroke:#FFFFFF; stroke-width:0.0212; stroke-opacity:1; 
stroke-linecap:round; stroke-linejoin:round;">
</g>
<g style="fill:#FFFFFF; fill-opacity:1.0000; 
stroke:#FFFFFF; stroke-width:0.0000; stroke-opacity:1; 
stroke-linecap:round; stroke-linejoin:round;">
<circle cx="60.9600" cy="111.7600" r="0.1750" /> 
</g>
<g style="fill:#FFFFFF; fill-opacity:1.0000; 
stroke:#FFFFFF; stroke-width:0.0212; stroke-opacity:1; 
stroke-linecap:round; stroke-linejoin:round;">
</g>
<g style="fill:#FFFFFF; fill-opacity:1.0000; 
stroke:#FFFFFF; stroke-width:0.0000; stroke-opacity:1; 
stroke-linecap:round; stroke-linejoin:round;">
<circle cx="60.9600" cy="121.9200" r="0.1750" /> 
</g>
<g style="fill:#FFFFFF; fill-opacity:1.0000; 
stroke:#FFFFFF; stroke-width:0.0212; stroke-opacity:1; 
stroke-linecap:round; stroke-linejoin:round;">
</g>
<g style="fill:#FFFFFF; fill-opacity:1.0000; 
stroke:#FFFFFF; stroke-width:0.0000; stroke-opacity:1; 
stroke-linecap:round; stroke-linejoin:round;">
<circle cx="60.9600" cy="132.0800" r="0.1750" /> 
</g>
<g style="fill:#FFFFFF; fill-opacity:1.0000; 
stroke:#FFFFFF; stroke-width:0.0212; stroke-opacity:1; 
stroke-linecap:round; stroke-linejoin:round;">
</g>
<g style="fill:#FFFFFF; fill-opacity:1.0000; 
stroke:#FFFFFF; stroke-width:0.0000; stroke-opacity:1; 
stroke-linecap:round; stroke-linejoin:round;">
<circle cx="60.9600" cy="142.2400" r="0.1750" /> 
</g>
<g style="fill:#FFFFFF; fill-opacity:1.0000; 
stroke:#FFFFFF; stroke-width:0.0212; stroke-opacity:1; 
stroke-linecap:round; stroke-linejoin:round;">
</g>
<g style="fill:#FFFFFF; fill-opacity:1.0000; 
stroke:#FFFFFF; stroke-width:0.0000; stroke-opacity:1; 
stroke-linecap:round; stroke-linejoin:round;">
<circle cx="81.2800" cy="76.2000" r="0.1750" /> 
</g>
<g style="fill:#FFFFFF; fill-opacity:1.0000; 
stroke:#FFFFFF; stroke-width:0.0212; stroke-opacity:1; 
stroke-linecap:round; stroke-linejoin:round;">
</g>
<g style="fill:#FFFFFF; fill-opacity:1.0000; 
stroke:#FFFFFF; stroke-width:0.0000; stroke-opacity:1; 
stroke-linecap:round; stroke-linejoin:round;">
<circle cx="81.2800" cy="96.5200" r="0.1750" /> 
</g>
<g style="fill:#FFFFFF; fill-opacity:1.0000; 
stroke:#FFFFFF; stroke-width:0.0212; stroke-opacity:1; 
stroke-linecap:round; stroke-linejoin:round;">
</g>
<g style="fill:#FFFFFF; fill-opacity:1.0000; 
stroke:#FFFFFF; stroke-width:0.0000; stroke-opacity:1; 
stroke-linecap:round; stroke-linejoin:round;">
<circle cx="81.2800" cy="116.8400" r="0.1750" /> 
</g>
<g style="fill:#FFFFFF; fill-opacity:1.0000; 
stroke:#FFFFFF; stroke-width:0.0212; stroke-opacity:1; 
stroke-linecap:round; stroke-linejoin:round;">
</g>
<g style="fill:#FFFFFF; fill-opacity:1.0000; 
stroke:#FFFFFF; stroke-width:0.0000; stroke-opacity:1; 
stroke-linecap:round; stroke-linejoin:round;">
<circle cx="81.2800" cy="137.1600" r="0.1750" /> 
</g>
<g style="fill:#FFFFFF; fill-opacity:1.0000; 
stroke:#FFFFFF; stroke-width:0.0212; stroke-opacity:1; 
stroke-linecap:round; stroke-linejoin:round;">
</g>
<g style="fill:#FFFFFF; fill-opacity:1.0000; 
stroke:#FFFFFF; stroke-width:0.0000; stroke-opacity:1; 
stroke-linecap:round; stroke-linejoin:round;">
<circle cx="81.2800" cy="157.4800" r="0.1750" /> 
</g>
<g style="fill:#FFFFFF; fill-opacity:1.0000; 
stroke:#FFFFFF; stroke-width:0.0212; stroke-opacity:1; 
stroke-linecap:round; stroke-linejoin:round;">
</g>
<g style="fill:#000000; fill-opacity:1.0000; 
stroke:#000000; stroke-width:0.0212; stroke-opacity:1; 
stroke-linecap:round; stroke-linejoin:round;">
</g> 
</svg>
