<?xml version="1.0" standalone="no"?>
 <!DOCTYPE svg PUBLIC "-//W3C//DTD SVG 1.1//EN" 
 "http://www.w3.org/Graphics/SVG/1.1/DTD/svg11.dtd"> 
<svg
  xmlns:svg="http://www.w3.org/2000/svg"
  xmlns="http://www.w3.org/2000/svg"
  xmlns:xlink="http://www.w3.org/1999/xlink"
  version="1.1"
  width="297.0022mm" height="210.0072mm" viewBox="0.0000 0.0000 297.0022 210.0072">
<title>SVG Image created as main-B_Fab.svg date 2023/11/06 19:01:54 </title>
  <desc>Image generated by PCBNEW </desc>
<g style="fill:#000000; fill-opacity:1.0000;stroke:#000000; stroke-opacity:1.0000;
stroke-linecap:round; stroke-linejoin:round;"
 transform="translate(0 0) scale(1 1)">
</g>
<g style="fill:#000000; fill-opacity:0.0; 
stroke:#000000; stroke-width:0.0000; stroke-opacity:1; 
stroke-linecap:round; stroke-linejoin:round;">
</g>
<g style="fill:#000000; fill-opacity:0.0; 
stroke:#000000; stroke-width:0.1500; stroke-opacity:1; 
stroke-linecap:round; stroke-linejoin:round;">
<g transform="rotate(-90.000000 30.0990 31.1150)">
<text x="30.0990" y="31.6150"
transform="scale(-1 1) translate(-60.198000 0)"
textLength="8.6786" font-size="1.3333" lengthAdjust="spacingAndGlyphs"
text-anchor="middle" opacity="0">IDC Header</text>
</g>
<g class="stroked-text"><desc>IDC Header</desc>
<path d="M30.5538 27.1388
L29.5538 27.1388
" />
<path d="M30.5538 27.6150
L29.5538 27.6150
" />
<path d="M29.5538 27.6150
L29.5538 27.8531
" />
<path d="M29.5538 27.8531
L29.6014 27.9960
" />
<path d="M29.6014 27.9960
L29.6967 28.0912
" />
<path d="M29.6967 28.0912
L29.7919 28.1388
" />
<path d="M29.7919 28.1388
L29.9824 28.1864
" />
<path d="M29.9824 28.1864
L30.1252 28.1864
" />
<path d="M30.1252 28.1864
L30.3157 28.1388
" />
<path d="M30.3157 28.1388
L30.4110 28.0912
" />
<path d="M30.4110 28.0912
L30.5062 27.9960
" />
<path d="M30.5062 27.9960
L30.5538 27.8531
" />
<path d="M30.5538 27.8531
L30.5538 27.6150
" />
<path d="M30.4586 29.1864
L30.5062 29.1388
" />
<path d="M30.5062 29.1388
L30.5538 28.9960
" />
<path d="M30.5538 28.9960
L30.5538 28.9007
" />
<path d="M30.5538 28.9007
L30.5062 28.7579
" />
<path d="M30.5062 28.7579
L30.4110 28.6626
" />
<path d="M30.4110 28.6626
L30.3157 28.6150
" />
<path d="M30.3157 28.6150
L30.1252 28.5674
" />
<path d="M30.1252 28.5674
L29.9824 28.5674
" />
<path d="M29.9824 28.5674
L29.7919 28.6150
" />
<path d="M29.7919 28.6150
L29.6967 28.6626
" />
<path d="M29.6967 28.6626
L29.6014 28.7579
" />
<path d="M29.6014 28.7579
L29.5538 28.9007
" />
<path d="M29.5538 28.9007
L29.5538 28.9960
" />
<path d="M29.5538 28.9960
L29.6014 29.1388
" />
<path d="M29.6014 29.1388
L29.6491 29.1864
" />
<path d="M30.5538 30.3769
L29.5538 30.3769
" />
<path d="M30.0300 30.3769
L30.0300 30.9483
" />
<path d="M30.5538 30.9483
L29.5538 30.9483
" />
<path d="M30.5062 31.8055
L30.5538 31.7102
" />
<path d="M30.5538 31.7102
L30.5538 31.5198
" />
<path d="M30.5538 31.5198
L30.5062 31.4245
" />
<path d="M30.5062 31.4245
L30.4110 31.3769
" />
<path d="M30.4110 31.3769
L30.0300 31.3769
" />
<path d="M30.0300 31.3769
L29.9348 31.4245
" />
<path d="M29.9348 31.4245
L29.8872 31.5198
" />
<path d="M29.8872 31.5198
L29.8872 31.7102
" />
<path d="M29.8872 31.7102
L29.9348 31.8055
" />
<path d="M29.9348 31.8055
L30.0300 31.8531
" />
<path d="M30.0300 31.8531
L30.1252 31.8531
" />
<path d="M30.1252 31.8531
L30.2205 31.3769
" />
<path d="M30.5538 32.7102
L30.0300 32.7102
" />
<path d="M30.0300 32.7102
L29.9348 32.6626
" />
<path d="M29.9348 32.6626
L29.8872 32.5674
" />
<path d="M29.8872 32.5674
L29.8872 32.3769
" />
<path d="M29.8872 32.3769
L29.9348 32.2817
" />
<path d="M30.5062 32.7102
L30.5538 32.6150
" />
<path d="M30.5538 32.6150
L30.5538 32.3769
" />
<path d="M30.5538 32.3769
L30.5062 32.2817
" />
<path d="M30.5062 32.2817
L30.4110 32.2340
" />
<path d="M30.4110 32.2340
L30.3157 32.2340
" />
<path d="M30.3157 32.2340
L30.2205 32.2817
" />
<path d="M30.2205 32.2817
L30.1729 32.3769
" />
<path d="M30.1729 32.3769
L30.1729 32.6150
" />
<path d="M30.1729 32.6150
L30.1252 32.7102
" />
<path d="M30.5538 33.6150
L29.5538 33.6150
" />
<path d="M30.5062 33.6150
L30.5538 33.5198
" />
<path d="M30.5538 33.5198
L30.5538 33.3293
" />
<path d="M30.5538 33.3293
L30.5062 33.2340
" />
<path d="M30.5062 33.2340
L30.4586 33.1864
" />
<path d="M30.4586 33.1864
L30.3633 33.1388
" />
<path d="M30.3633 33.1388
L30.0776 33.1388
" />
<path d="M30.0776 33.1388
L29.9824 33.1864
" />
<path d="M29.9824 33.1864
L29.9348 33.2340
" />
<path d="M29.9348 33.2340
L29.8872 33.3293
" />
<path d="M29.8872 33.3293
L29.8872 33.5198
" />
<path d="M29.8872 33.5198
L29.9348 33.6150
" />
<path d="M30.5062 34.4721
L30.5538 34.3769
" />
<path d="M30.5538 34.3769
L30.5538 34.1864
" />
<path d="M30.5538 34.1864
L30.5062 34.0912
" />
<path d="M30.5062 34.0912
L30.4110 34.0436
" />
<path d="M30.4110 34.0436
L30.0300 34.0436
" />
<path d="M30.0300 34.0436
L29.9348 34.0912
" />
<path d="M29.9348 34.0912
L29.8872 34.1864
" />
<path d="M29.8872 34.1864
L29.8872 34.3769
" />
<path d="M29.8872 34.3769
L29.9348 34.4721
" />
<path d="M29.9348 34.4721
L30.0300 34.5198
" />
<path d="M30.0300 34.5198
L30.1252 34.5198
" />
<path d="M30.1252 34.5198
L30.2205 34.0436
" />
<path d="M30.5538 34.9483
L29.8872 34.9483
" />
<path d="M30.0776 34.9483
L29.9824 34.9960
" />
<path d="M29.9824 34.9960
L29.9348 35.0436
" />
<path d="M29.9348 35.0436
L29.8872 35.1388
" />
<path d="M29.8872 35.1388
L29.8872 35.2340
" />
</g><g transform="rotate(-90.000000 41.7830 31.1150)">
<text x="41.7830" y="31.6150"
transform="scale(-1 1) translate(-83.566000 0)"
textLength="1.9643" font-size="1.3333" lengthAdjust="spacingAndGlyphs"
text-anchor="middle" opacity="0">J1</text>
</g>
<g class="stroked-text"><desc>J1</desc>
<path d="M41.2378 30.7817
L41.9521 30.7817
" />
<path d="M41.9521 30.7817
L42.0950 30.7340
" />
<path d="M42.0950 30.7340
L42.1902 30.6388
" />
<path d="M42.1902 30.6388
L42.2378 30.4960
" />
<path d="M42.2378 30.4960
L42.2378 30.4007
" />
<path d="M42.2378 31.7817
L42.2378 31.2102
" />
<path d="M42.2378 31.4960
L41.2378 31.4960
" />
<path d="M41.2378 31.4960
L41.3807 31.4007
" />
<path d="M41.3807 31.4007
L41.4759 31.3055
" />
<path d="M41.4759 31.3055
L41.5235 31.2102
" />
</g></g>
<g style="fill:#000000; fill-opacity:0.0; 
stroke:#000000; stroke-width:0.1000; stroke-opacity:1; 
stroke-linecap:round; stroke-linejoin:round;">
<path d="M31.6030 35.5650
L50.9630 35.5650
" />
<path d="M43.8330 35.5650
L43.8330 34.3650
" />
<path d="M50.9630 35.5650
L51.9630 34.5650
" />
<path d="M51.9630 34.5650
L51.9630 26.6650
" />
<path d="M32.7930 34.3650
L39.7330 34.3650
" />
<path d="M39.7330 34.3650
L39.7330 35.5650
" />
</g>
<g style="fill:#000000; fill-opacity:1.0000; 
stroke:#000000; stroke-width:0.0000; stroke-opacity:1; 
stroke-linecap:round; stroke-linejoin:round;">
<circle cx="39.7330" cy="34.3650" r="0.0500" /> 
</g>
<g style="fill:#000000; fill-opacity:1.0000; 
stroke:#000000; stroke-width:0.1000; stroke-opacity:1; 
stroke-linecap:round; stroke-linejoin:round;">
</g>
<g style="fill:#000000; fill-opacity:0.0; 
stroke:#000000; stroke-width:0.1000; stroke-opacity:1; 
stroke-linecap:round; stroke-linejoin:round;">
<path d="M43.8330 34.3650
L50.7730 34.3650
" />
<path d="M50.7730 34.3650
L50.7730 27.8650
" />
<path d="M32.7930 27.8650
L32.7930 34.3650
" />
<path d="M50.7730 27.8650
L32.7930 27.8650
" />
<path d="M31.6030 26.6650
L31.6030 35.5650
" />
<path d="M51.9630 26.6650
L31.6030 26.6650
" />
<g >
</g>
<g >
</g>
<g >
</g>
<g >
</g>
<g >
</g>
<g >
</g>
<g >
</g>
<g >
</g>
<g >
</g>
<g >
</g>
<g >
</g>
<g >
</g>
<g >
</g>
<g >
</g>
<g >
</g>
<g >
</g>
<g >
</g>
<g >
</g>
<g >
</g>
<g >
</g>
<g >
</g>
<g >
</g>
<g >
</g>
<g >
</g>
<g >
</g>
<g >
</g>
<g >
</g>
<g >
</g>
<g >
</g>
<g >
</g>
<g >
</g>
<g >
</g>
<g >
</g>
<g >
</g>
<g >
</g>
<g >
</g>
<g >
</g>
<g >
</g>
<g >
</g>
<g >
</g>
<g >
</g>
<g >
</g>
<g >
</g>
<g >
</g>
<g >
</g>
<g >
</g>
<g >
</g>
<g >
</g>
<g >
</g>
<g >
</g>
<g >
</g>
<g >
</g>
</g> 
</svg>
