<?xml version="1.0" standalone="no"?>
 <!DOCTYPE svg PUBLIC "-//W3C//DTD SVG 1.1//EN" 
 "http://www.w3.org/Graphics/SVG/1.1/DTD/svg11.dtd"> 
<svg
  xmlns:svg="http://www.w3.org/2000/svg"
  xmlns="http://www.w3.org/2000/svg"
  xmlns:xlink="http://www.w3.org/1999/xlink"
  version="1.1"
  width="297.0022mm" height="210.0072mm" viewBox="0.0000 0.0000 297.0022 210.0072">
<title>SVG Image created as mount-B_SilkS.svg date 2023/11/07 21:45:41 </title>
  <desc>Image generated by PCBNEW </desc>
<g style="fill:#000000; fill-opacity:1.0000;stroke:#000000; stroke-opacity:1.0000;
stroke-linecap:round; stroke-linejoin:round;"
 transform="translate(0 0) scale(1 1)">
</g>
<g style="fill:#000000; fill-opacity:0.0; 
stroke:#000000; stroke-width:0.0000; stroke-opacity:1; 
stroke-linecap:round; stroke-linejoin:round;">
</g>
<g style="fill:#000000; fill-opacity:0.0; 
stroke:#000000; stroke-width:0.1500; stroke-opacity:1; 
stroke-linecap:round; stroke-linejoin:round;">
<g transform="rotate(-90.000000 54.3600 61.2300)">
<text x="54.3600" y="61.6300"
transform="scale(-1 1) translate(-108.720000 0)"
textLength="5.8690" font-size="1.3333" lengthAdjust="spacingAndGlyphs"
text-anchor="start" opacity="0">produkt</text>
</g>
<g class="stroked-text"><desc>produkt</desc>
<path d="M54.1890 61.5668
L54.9890 61.5668
" />
<path d="M54.2271 61.5668
L54.1890 61.6620
" />
<path d="M54.1890 61.6620
L54.1890 61.8525
" />
<path d="M54.1890 61.8525
L54.2271 61.9477
" />
<path d="M54.2271 61.9477
L54.2652 61.9953
" />
<path d="M54.2652 61.9953
L54.3413 62.0430
" />
<path d="M54.3413 62.0430
L54.5699 62.0430
" />
<path d="M54.5699 62.0430
L54.6461 61.9953
" />
<path d="M54.6461 61.9953
L54.6842 61.9477
" />
<path d="M54.6842 61.9477
L54.7223 61.8525
" />
<path d="M54.7223 61.8525
L54.7223 61.6620
" />
<path d="M54.7223 61.6620
L54.6842 61.5668
" />
<path d="M54.7223 62.4715
L54.1890 62.4715
" />
<path d="M54.3413 62.4715
L54.2652 62.5192
" />
<path d="M54.2652 62.5192
L54.2271 62.5668
" />
<path d="M54.2271 62.5668
L54.1890 62.6620
" />
<path d="M54.1890 62.6620
L54.1890 62.7573
" />
<path d="M54.7223 63.2334
L54.6842 63.1382
" />
<path d="M54.6842 63.1382
L54.6461 63.0906
" />
<path d="M54.6461 63.0906
L54.5699 63.0430
" />
<path d="M54.5699 63.0430
L54.3413 63.0430
" />
<path d="M54.3413 63.0430
L54.2652 63.0906
" />
<path d="M54.2652 63.0906
L54.2271 63.1382
" />
<path d="M54.2271 63.1382
L54.1890 63.2334
" />
<path d="M54.1890 63.2334
L54.1890 63.3763
" />
<path d="M54.1890 63.3763
L54.2271 63.4715
" />
<path d="M54.2271 63.4715
L54.2652 63.5192
" />
<path d="M54.2652 63.5192
L54.3413 63.5668
" />
<path d="M54.3413 63.5668
L54.5699 63.5668
" />
<path d="M54.5699 63.5668
L54.6461 63.5192
" />
<path d="M54.6461 63.5192
L54.6842 63.4715
" />
<path d="M54.6842 63.4715
L54.7223 63.3763
" />
<path d="M54.7223 63.3763
L54.7223 63.2334
" />
<path d="M54.7223 64.4239
L53.9223 64.4239
" />
<path d="M54.6842 64.4239
L54.7223 64.3287
" />
<path d="M54.7223 64.3287
L54.7223 64.1382
" />
<path d="M54.7223 64.1382
L54.6842 64.0430
" />
<path d="M54.6842 64.0430
L54.6461 63.9954
" />
<path d="M54.6461 63.9954
L54.5699 63.9477
" />
<path d="M54.5699 63.9477
L54.3413 63.9477
" />
<path d="M54.3413 63.9477
L54.2652 63.9954
" />
<path d="M54.2652 63.9954
L54.2271 64.0430
" />
<path d="M54.2271 64.0430
L54.1890 64.1382
" />
<path d="M54.1890 64.1382
L54.1890 64.3287
" />
<path d="M54.1890 64.3287
L54.2271 64.4239
" />
<path d="M54.1890 65.3287
L54.7223 65.3287
" />
<path d="M54.1890 64.9001
L54.6080 64.9001
" />
<path d="M54.6080 64.9001
L54.6842 64.9477
" />
<path d="M54.6842 64.9477
L54.7223 65.0430
" />
<path d="M54.7223 65.0430
L54.7223 65.1858
" />
<path d="M54.7223 65.1858
L54.6842 65.2811
" />
<path d="M54.6842 65.2811
L54.6461 65.3287
" />
<path d="M54.7223 65.8049
L53.9223 65.8049
" />
<path d="M54.4175 65.9001
L54.7223 66.1858
" />
<path d="M54.1890 66.1858
L54.4937 65.8049
" />
<path d="M54.1890 66.4715
L54.1890 66.8525
" />
<path d="M53.9223 66.6144
L54.6080 66.6144
" />
<path d="M54.6080 66.6144
L54.6842 66.6620
" />
<path d="M54.6842 66.6620
L54.7223 66.7573
" />
<path d="M54.7223 66.7573
L54.7223 66.8525
" />
</g></g>
<g style="fill:#000000; fill-opacity:0.0; 
stroke:#000000; stroke-width:0.3000; stroke-opacity:1; 
stroke-linecap:round; stroke-linejoin:round;">
<g transform="rotate(-90.000000 52.3240 69.8500)">
<text x="52.3240" y="70.6000"
transform="scale(-1 1) translate(-104.648000 0)"
textLength="18.0238" font-size="2.6667" lengthAdjust="spacingAndGlyphs"
text-anchor="middle" opacity="0">elektrophon</text>
</g>
<g class="stroked-text"><desc>elektrophon</desc>
<path d="M52.9309 62.3262
L53.0023 62.1268
" />
<path d="M53.0023 62.1268
L53.0023 61.7458
" />
<path d="M53.0023 61.7458
L52.9309 61.5643
" />
<path d="M52.9309 61.5643
L52.7880 61.4869
" />
<path d="M52.7880 61.4869
L52.2166 61.5583
" />
<path d="M52.2166 61.5583
L52.0738 61.6714
" />
<path d="M52.0738 61.6714
L52.0023 61.8708
" />
<path d="M52.0023 61.8708
L52.0023 62.2518
" />
<path d="M52.0023 62.2518
L52.0738 62.4333
" />
<path d="M52.0738 62.4333
L52.2166 62.5107
" />
<path d="M52.2166 62.5107
L52.3595 62.4929
" />
<path d="M52.3595 62.4929
L52.5023 61.5226
" />
<path d="M53.0023 63.5554
L52.9309 63.3738
" />
<path d="M52.9309 63.3738
L52.7880 63.2964
" />
<path d="M52.7880 63.2964
L51.5023 63.4571
" />
<path d="M52.9309 65.0881
L53.0023 64.8887
" />
<path d="M53.0023 64.8887
L53.0023 64.5077
" />
<path d="M53.0023 64.5077
L52.9309 64.3262
" />
<path d="M52.9309 64.3262
L52.7880 64.2488
" />
<path d="M52.7880 64.2488
L52.2166 64.3202
" />
<path d="M52.2166 64.3202
L52.0738 64.4333
" />
<path d="M52.0738 64.4333
L52.0023 64.6327
" />
<path d="M52.0023 64.6327
L52.0023 65.0137
" />
<path d="M52.0023 65.0137
L52.0738 65.1952
" />
<path d="M52.0738 65.1952
L52.2166 65.2726
" />
<path d="M52.2166 65.2726
L52.3595 65.2548
" />
<path d="M52.3595 65.2548
L52.5023 64.2845
" />
<path d="M53.0023 66.0315
L51.5023 66.2190
" />
<path d="M52.4309 66.2935
L53.0023 66.7935
" />
<path d="M52.0023 66.9185
L52.5738 66.0851
" />
<path d="M52.0023 67.4899
L52.0023 68.2518
" />
<path d="M51.5023 67.8381
L52.7880 67.6774
" />
<path d="M52.7880 67.6774
L52.9309 67.7548
" />
<path d="M52.9309 67.7548
L53.0023 67.9363
" />
<path d="M53.0023 67.9363
L53.0023 68.1268
" />
<path d="M53.0023 68.7935
L52.0023 68.9185
" />
<path d="M52.2880 68.8827
L52.1452 68.9958
" />
<path d="M52.1452 68.9958
L52.0738 69.1000
" />
<path d="M52.0738 69.1000
L52.0023 69.2994
" />
<path d="M52.0023 69.2994
L52.0023 69.4899
" />
<path d="M53.0023 70.3173
L52.9309 70.1357
" />
<path d="M52.9309 70.1357
L52.8595 70.0494
" />
<path d="M52.8595 70.0494
L52.7166 69.9720
" />
<path d="M52.7166 69.9720
L52.2880 70.0256
" />
<path d="M52.2880 70.0256
L52.1452 70.1387
" />
<path d="M52.1452 70.1387
L52.0738 70.2429
" />
<path d="M52.0738 70.2429
L52.0023 70.4423
" />
<path d="M52.0023 70.4423
L52.0023 70.7280
" />
<path d="M52.0023 70.7280
L52.0738 70.9095
" />
<path d="M52.0738 70.9095
L52.1452 70.9958
" />
<path d="M52.1452 70.9958
L52.2880 71.0732
" />
<path d="M52.2880 71.0732
L52.7166 71.0196
" />
<path d="M52.7166 71.0196
L52.8595 70.9065
" />
<path d="M52.8595 70.9065
L52.9309 70.8024
" />
<path d="M52.9309 70.8024
L53.0023 70.6030
" />
<path d="M53.0023 70.6030
L53.0023 70.3173
" />
<path d="M52.0023 71.9661
L53.5023 71.7786
" />
<path d="M52.0738 71.9571
L52.0023 72.1565
" />
<path d="M52.0023 72.1565
L52.0023 72.5375
" />
<path d="M52.0023 72.5375
L52.0738 72.7190
" />
<path d="M52.0738 72.7190
L52.1452 72.8054
" />
<path d="M52.1452 72.8054
L52.2880 72.8827
" />
<path d="M52.2880 72.8827
L52.7166 72.8292
" />
<path d="M52.7166 72.8292
L52.8595 72.7161
" />
<path d="M52.8595 72.7161
L52.9309 72.6119
" />
<path d="M52.9309 72.6119
L53.0023 72.4125
" />
<path d="M53.0023 72.4125
L53.0023 72.0315
" />
<path d="M53.0023 72.0315
L52.9309 71.8500
" />
<path d="M53.0023 73.6506
L51.5023 73.8381
" />
<path d="M53.0023 74.5077
L52.2166 74.6060
" />
<path d="M52.2166 74.6060
L52.0738 74.5286
" />
<path d="M52.0738 74.5286
L52.0023 74.3470
" />
<path d="M52.0023 74.3470
L52.0023 74.0613
" />
<path d="M52.0023 74.0613
L52.0738 73.8619
" />
<path d="M52.0738 73.8619
L52.1452 73.7577
" />
<path d="M53.0023 75.7458
L52.9309 75.5643
" />
<path d="M52.9309 75.5643
L52.8595 75.4780
" />
<path d="M52.8595 75.4780
L52.7166 75.4006
" />
<path d="M52.7166 75.4006
L52.2880 75.4542
" />
<path d="M52.2880 75.4542
L52.1452 75.5673
" />
<path d="M52.1452 75.5673
L52.0738 75.6714
" />
<path d="M52.0738 75.6714
L52.0023 75.8708
" />
<path d="M52.0023 75.8708
L52.0023 76.1565
" />
<path d="M52.0023 76.1565
L52.0738 76.3381
" />
<path d="M52.0738 76.3381
L52.1452 76.4244
" />
<path d="M52.1452 76.4244
L52.2880 76.5018
" />
<path d="M52.2880 76.5018
L52.7166 76.4482
" />
<path d="M52.7166 76.4482
L52.8595 76.3351
" />
<path d="M52.8595 76.3351
L52.9309 76.2310
" />
<path d="M52.9309 76.2310
L53.0023 76.0315
" />
<path d="M53.0023 76.0315
L53.0023 75.7458
" />
<path d="M52.0023 77.3946
L53.0023 77.2696
" />
<path d="M52.1452 77.3768
L52.0738 77.4810
" />
<path d="M52.0738 77.4810
L52.0023 77.6804
" />
<path d="M52.0023 77.6804
L52.0023 77.9661
" />
<path d="M52.0023 77.9661
L52.0738 78.1476
" />
<path d="M52.0738 78.1476
L52.2166 78.2250
" />
<path d="M52.2166 78.2250
L53.0023 78.1268
" />
</g></g>
<g style="fill:#000000; fill-opacity:0.0; 
stroke:#000000; stroke-width:0.1500; stroke-opacity:1; 
stroke-linecap:round; stroke-linejoin:round;">
<g transform="rotate(-90.000000 54.3400 78.6800)">
<text x="54.3400" y="79.0800"
transform="scale(-1 1) translate(-108.680000 0)"
textLength="3.1548" font-size="1.3333" lengthAdjust="spacingAndGlyphs"
text-anchor="end" opacity="0">R02</text>
</g>
<g class="stroked-text"><desc>R02</desc>
<path d="M54.7023 76.4861
L54.3213 76.1527
" />
<path d="M54.7023 75.9146
L53.9023 75.9146
" />
<path d="M53.9023 75.9146
L53.9023 76.2956
" />
<path d="M53.9023 76.2956
L53.9404 76.3908
" />
<path d="M53.9404 76.3908
L53.9785 76.4385
" />
<path d="M53.9785 76.4385
L54.0547 76.4861
" />
<path d="M54.0547 76.4861
L54.1690 76.4861
" />
<path d="M54.1690 76.4861
L54.2452 76.4385
" />
<path d="M54.2452 76.4385
L54.2832 76.3908
" />
<path d="M54.2832 76.3908
L54.3213 76.2956
" />
<path d="M54.3213 76.2956
L54.3213 75.9146
" />
<path d="M53.9023 77.1051
L53.9023 77.2004
" />
<path d="M53.9023 77.2004
L53.9404 77.2956
" />
<path d="M53.9404 77.2956
L53.9785 77.3432
" />
<path d="M53.9785 77.3432
L54.0547 77.3908
" />
<path d="M54.0547 77.3908
L54.2071 77.4385
" />
<path d="M54.2071 77.4385
L54.3975 77.4385
" />
<path d="M54.3975 77.4385
L54.5499 77.3908
" />
<path d="M54.5499 77.3908
L54.6261 77.3432
" />
<path d="M54.6261 77.3432
L54.6642 77.2956
" />
<path d="M54.6642 77.2956
L54.7023 77.2004
" />
<path d="M54.7023 77.2004
L54.7023 77.1051
" />
<path d="M54.7023 77.1051
L54.6642 77.0099
" />
<path d="M54.6642 77.0099
L54.6261 76.9623
" />
<path d="M54.6261 76.9623
L54.5499 76.9146
" />
<path d="M54.5499 76.9146
L54.3975 76.8670
" />
<path d="M54.3975 76.8670
L54.2071 76.8670
" />
<path d="M54.2071 76.8670
L54.0547 76.9146
" />
<path d="M54.0547 76.9146
L53.9785 76.9623
" />
<path d="M53.9785 76.9623
L53.9404 77.0099
" />
<path d="M53.9404 77.0099
L53.9023 77.1051
" />
<path d="M53.9785 77.8194
L53.9404 77.8670
" />
<path d="M53.9404 77.8670
L53.9023 77.9623
" />
<path d="M53.9023 77.9623
L53.9023 78.2004
" />
<path d="M53.9023 78.2004
L53.9404 78.2956
" />
<path d="M53.9404 78.2956
L53.9785 78.3432
" />
<path d="M53.9785 78.3432
L54.0547 78.3908
" />
<path d="M54.0547 78.3908
L54.1309 78.3908
" />
<path d="M54.1309 78.3908
L54.2452 78.3432
" />
<path d="M54.2452 78.3432
L54.7023 77.7718
" />
<path d="M54.7023 77.7718
L54.7023 78.3908
" />
</g><text x="71.6280" y="66.5720"
transform="scale(-1 1) translate(-143.256000 0)"
textLength="2.2024" font-size="1.3333" lengthAdjust="spacingAndGlyphs"
text-anchor="middle" opacity="0">D1</text>
<g class="stroked-text"><desc>D1</desc>
<path d="M72.3661 66.5268
L72.3661 65.5268
" />
<path d="M72.3661 65.5268
L72.1280 65.5268
" />
<path d="M72.1280 65.5268
L71.9851 65.5744
" />
<path d="M71.9851 65.5744
L71.8899 65.6697
" />
<path d="M71.8899 65.6697
L71.8423 65.7649
" />
<path d="M71.8423 65.7649
L71.7947 65.9554
" />
<path d="M71.7947 65.9554
L71.7947 66.0982
" />
<path d="M71.7947 66.0982
L71.8423 66.2887
" />
<path d="M71.8423 66.2887
L71.8899 66.3840
" />
<path d="M71.8899 66.3840
L71.9851 66.4792
" />
<path d="M71.9851 66.4792
L72.1280 66.5268
" />
<path d="M72.1280 66.5268
L72.3661 66.5268
" />
<path d="M70.8423 66.5268
L71.4137 66.5268
" />
<path d="M71.1280 66.5268
L71.1280 65.5268
" />
<path d="M71.1280 65.5268
L71.2232 65.6697
" />
<path d="M71.2232 65.6697
L71.3185 65.7649
" />
<path d="M71.3185 65.7649
L71.4137 65.8125
" />
</g><text x="87.8840" y="79.2720"
transform="scale(-1 1) translate(-175.768000 0)"
textLength="2.2024" font-size="1.3333" lengthAdjust="spacingAndGlyphs"
text-anchor="middle" opacity="0">D2</text>
<g class="stroked-text"><desc>D2</desc>
<path d="M88.6221 79.2268
L88.6221 78.2268
" />
<path d="M88.6221 78.2268
L88.3840 78.2268
" />
<path d="M88.3840 78.2268
L88.2411 78.2744
" />
<path d="M88.2411 78.2744
L88.1459 78.3697
" />
<path d="M88.1459 78.3697
L88.0983 78.4649
" />
<path d="M88.0983 78.4649
L88.0507 78.6554
" />
<path d="M88.0507 78.6554
L88.0507 78.7982
" />
<path d="M88.0507 78.7982
L88.0983 78.9887
" />
<path d="M88.0983 78.9887
L88.1459 79.0840
" />
<path d="M88.1459 79.0840
L88.2411 79.1792
" />
<path d="M88.2411 79.1792
L88.3840 79.2268
" />
<path d="M88.3840 79.2268
L88.6221 79.2268
" />
<path d="M87.6697 78.3221
L87.6221 78.2744
" />
<path d="M87.6221 78.2744
L87.5269 78.2268
" />
<path d="M87.5269 78.2268
L87.2888 78.2268
" />
<path d="M87.2888 78.2268
L87.1935 78.2744
" />
<path d="M87.1935 78.2744
L87.1459 78.3221
" />
<path d="M87.1459 78.3221
L87.0983 78.4173
" />
<path d="M87.0983 78.4173
L87.0983 78.5125
" />
<path d="M87.0983 78.5125
L87.1459 78.6554
" />
<path d="M87.1459 78.6554
L87.7173 79.2268
" />
<path d="M87.7173 79.2268
L87.0983 79.2268
" />
</g><text x="71.7540" y="107.2120"
transform="scale(-1 1) translate(-143.508000 0)"
textLength="2.2024" font-size="1.3333" lengthAdjust="spacingAndGlyphs"
text-anchor="middle" opacity="0">D5</text>
<g class="stroked-text"><desc>D5</desc>
<path d="M72.4921 107.1668
L72.4921 106.1668
" />
<path d="M72.4921 106.1668
L72.2540 106.1668
" />
<path d="M72.2540 106.1668
L72.1111 106.2144
" />
<path d="M72.1111 106.2144
L72.0159 106.3097
" />
<path d="M72.0159 106.3097
L71.9683 106.4049
" />
<path d="M71.9683 106.4049
L71.9207 106.5954
" />
<path d="M71.9207 106.5954
L71.9207 106.7382
" />
<path d="M71.9207 106.7382
L71.9683 106.9287
" />
<path d="M71.9683 106.9287
L72.0159 107.0240
" />
<path d="M72.0159 107.0240
L72.1111 107.1192
" />
<path d="M72.1111 107.1192
L72.2540 107.1668
" />
<path d="M72.2540 107.1668
L72.4921 107.1668
" />
<path d="M71.0159 106.1668
L71.4921 106.1668
" />
<path d="M71.4921 106.1668
L71.5397 106.6430
" />
<path d="M71.5397 106.6430
L71.4921 106.5954
" />
<path d="M71.4921 106.5954
L71.3969 106.5478
" />
<path d="M71.3969 106.5478
L71.1588 106.5478
" />
<path d="M71.1588 106.5478
L71.0635 106.5954
" />
<path d="M71.0635 106.5954
L71.0159 106.6430
" />
<path d="M71.0159 106.6430
L70.9683 106.7382
" />
<path d="M70.9683 106.7382
L70.9683 106.9763
" />
<path d="M70.9683 106.9763
L71.0159 107.0716
" />
<path d="M71.0159 107.0716
L71.0635 107.1192
" />
<path d="M71.0635 107.1192
L71.1588 107.1668
" />
<path d="M71.1588 107.1668
L71.3969 107.1668
" />
<path d="M71.3969 107.1668
L71.4921 107.1192
" />
<path d="M71.4921 107.1192
L71.5397 107.0716
" />
</g><text x="86.8680" y="97.0520"
transform="scale(-1 1) translate(-173.736000 0)"
textLength="2.2024" font-size="1.3333" lengthAdjust="spacingAndGlyphs"
text-anchor="middle" opacity="0">D6</text>
<g class="stroked-text"><desc>D6</desc>
<path d="M87.6061 97.0068
L87.6061 96.0068
" />
<path d="M87.6061 96.0068
L87.3680 96.0068
" />
<path d="M87.3680 96.0068
L87.2251 96.0544
" />
<path d="M87.2251 96.0544
L87.1299 96.1497
" />
<path d="M87.1299 96.1497
L87.0823 96.2449
" />
<path d="M87.0823 96.2449
L87.0347 96.4354
" />
<path d="M87.0347 96.4354
L87.0347 96.5782
" />
<path d="M87.0347 96.5782
L87.0823 96.7687
" />
<path d="M87.0823 96.7687
L87.1299 96.8640
" />
<path d="M87.1299 96.8640
L87.2251 96.9592
" />
<path d="M87.2251 96.9592
L87.3680 97.0068
" />
<path d="M87.3680 97.0068
L87.6061 97.0068
" />
<path d="M86.1775 96.0068
L86.3680 96.0068
" />
<path d="M86.3680 96.0068
L86.4632 96.0544
" />
<path d="M86.4632 96.0544
L86.5109 96.1021
" />
<path d="M86.5109 96.1021
L86.6061 96.2449
" />
<path d="M86.6061 96.2449
L86.6537 96.4354
" />
<path d="M86.6537 96.4354
L86.6537 96.8163
" />
<path d="M86.6537 96.8163
L86.6061 96.9116
" />
<path d="M86.6061 96.9116
L86.5585 96.9592
" />
<path d="M86.5585 96.9592
L86.4632 97.0068
" />
<path d="M86.4632 97.0068
L86.2728 97.0068
" />
<path d="M86.2728 97.0068
L86.1775 96.9592
" />
<path d="M86.1775 96.9592
L86.1299 96.9116
" />
<path d="M86.1299 96.9116
L86.0823 96.8163
" />
<path d="M86.0823 96.8163
L86.0823 96.5782
" />
<path d="M86.0823 96.5782
L86.1299 96.4830
" />
<path d="M86.1299 96.4830
L86.1775 96.4354
" />
<path d="M86.1775 96.4354
L86.2728 96.3878
" />
<path d="M86.2728 96.3878
L86.4632 96.3878
" />
<path d="M86.4632 96.3878
L86.5585 96.4354
" />
<path d="M86.5585 96.4354
L86.6061 96.4830
" />
<path d="M86.6061 96.4830
L86.6537 96.5782
" />
</g><text x="87.8840" y="153.8840"
transform="scale(-1 1) translate(-175.768000 0)"
textLength="2.2024" font-size="1.3333" lengthAdjust="spacingAndGlyphs"
text-anchor="middle" opacity="0">D9</text>
<g class="stroked-text"><desc>D9</desc>
<path d="M88.6221 153.8388
L88.6221 152.8388
" />
<path d="M88.6221 152.8388
L88.3840 152.8388
" />
<path d="M88.3840 152.8388
L88.2411 152.8864
" />
<path d="M88.2411 152.8864
L88.1459 152.9817
" />
<path d="M88.1459 152.9817
L88.0983 153.0769
" />
<path d="M88.0983 153.0769
L88.0507 153.2674
" />
<path d="M88.0507 153.2674
L88.0507 153.4102
" />
<path d="M88.0507 153.4102
L88.0983 153.6007
" />
<path d="M88.0983 153.6007
L88.1459 153.6960
" />
<path d="M88.1459 153.6960
L88.2411 153.7912
" />
<path d="M88.2411 153.7912
L88.3840 153.8388
" />
<path d="M88.3840 153.8388
L88.6221 153.8388
" />
<path d="M87.5745 153.8388
L87.3840 153.8388
" />
<path d="M87.3840 153.8388
L87.2888 153.7912
" />
<path d="M87.2888 153.7912
L87.2411 153.7436
" />
<path d="M87.2411 153.7436
L87.1459 153.6007
" />
<path d="M87.1459 153.6007
L87.0983 153.4102
" />
<path d="M87.0983 153.4102
L87.0983 153.0293
" />
<path d="M87.0983 153.0293
L87.1459 152.9341
" />
<path d="M87.1459 152.9341
L87.1935 152.8864
" />
<path d="M87.1935 152.8864
L87.2888 152.8388
" />
<path d="M87.2888 152.8388
L87.4792 152.8388
" />
<path d="M87.4792 152.8388
L87.5745 152.8864
" />
<path d="M87.5745 152.8864
L87.6221 152.9341
" />
<path d="M87.6221 152.9341
L87.6697 153.0293
" />
<path d="M87.6697 153.0293
L87.6697 153.2674
" />
<path d="M87.6697 153.2674
L87.6221 153.3626
" />
<path d="M87.6221 153.3626
L87.5745 153.4102
" />
<path d="M87.5745 153.4102
L87.4792 153.4579
" />
<path d="M87.4792 153.4579
L87.2888 153.4579
" />
<path d="M87.2888 153.4579
L87.1935 153.4102
" />
<path d="M87.1935 153.4102
L87.1459 153.3626
" />
<path d="M87.1459 153.3626
L87.0983 153.2674
" />
</g><text x="68.0720" y="147.2800"
transform="scale(-1 1) translate(-136.144000 0)"
textLength="3.1548" font-size="1.3333" lengthAdjust="spacingAndGlyphs"
text-anchor="middle" opacity="0">D10</text>
<g class="stroked-text"><desc>D10</desc>
<path d="M69.2863 147.2348
L69.2863 146.2348
" />
<path d="M69.2863 146.2348
L69.0482 146.2348
" />
<path d="M69.0482 146.2348
L68.9053 146.2824
" />
<path d="M68.9053 146.2824
L68.8101 146.3777
" />
<path d="M68.8101 146.3777
L68.7625 146.4729
" />
<path d="M68.7625 146.4729
L68.7149 146.6634
" />
<path d="M68.7149 146.6634
L68.7149 146.8062
" />
<path d="M68.7149 146.8062
L68.7625 146.9967
" />
<path d="M68.7625 146.9967
L68.8101 147.0920
" />
<path d="M68.8101 147.0920
L68.9053 147.1872
" />
<path d="M68.9053 147.1872
L69.0482 147.2348
" />
<path d="M69.0482 147.2348
L69.2863 147.2348
" />
<path d="M67.7625 147.2348
L68.3339 147.2348
" />
<path d="M68.0482 147.2348
L68.0482 146.2348
" />
<path d="M68.0482 146.2348
L68.1434 146.3777
" />
<path d="M68.1434 146.3777
L68.2387 146.4729
" />
<path d="M68.2387 146.4729
L68.3339 146.5205
" />
<path d="M67.1434 146.2348
L67.0482 146.2348
" />
<path d="M67.0482 146.2348
L66.9530 146.2824
" />
<path d="M66.9530 146.2824
L66.9053 146.3301
" />
<path d="M66.9053 146.3301
L66.8577 146.4253
" />
<path d="M66.8577 146.4253
L66.8101 146.6158
" />
<path d="M66.8101 146.6158
L66.8101 146.8539
" />
<path d="M66.8101 146.8539
L66.8577 147.0443
" />
<path d="M66.8577 147.0443
L66.9053 147.1396
" />
<path d="M66.9053 147.1396
L66.9530 147.1872
" />
<path d="M66.9530 147.1872
L67.0482 147.2348
" />
<path d="M67.0482 147.2348
L67.1434 147.2348
" />
<path d="M67.1434 147.2348
L67.2387 147.1872
" />
<path d="M67.2387 147.1872
L67.2863 147.1396
" />
<path d="M67.2863 147.1396
L67.3339 147.0443
" />
<path d="M67.3339 147.0443
L67.3815 146.8539
" />
<path d="M67.3815 146.8539
L67.3815 146.6158
" />
<path d="M67.3815 146.6158
L67.3339 146.4253
" />
<path d="M67.3339 146.4253
L67.2863 146.3301
" />
<path d="M67.2863 146.3301
L67.2387 146.2824
" />
<path d="M67.2387 146.2824
L67.1434 146.2348
" />
</g><g transform="rotate(-90.000000 69.6360 72.1360)">
<text x="69.6360" y="72.6360"
transform="scale(-1 1) translate(-139.272000 0)"
textLength="2.2500" font-size="1.3333" lengthAdjust="spacingAndGlyphs"
text-anchor="middle" opacity="0">Q1</text>
</g>
<g class="stroked-text"><desc>Q1</desc>
<path d="M70.1861 72.0408
L70.1384 71.9455
" />
<path d="M70.1384 71.9455
L70.0432 71.8503
" />
<path d="M70.0432 71.8503
L69.9003 71.7074
" />
<path d="M69.9003 71.7074
L69.8527 71.6122
" />
<path d="M69.8527 71.6122
L69.8527 71.5170
" />
<path d="M70.0908 71.5646
L70.0432 71.4693
" />
<path d="M70.0432 71.4693
L69.9480 71.3741
" />
<path d="M69.9480 71.3741
L69.7575 71.3265
" />
<path d="M69.7575 71.3265
L69.4242 71.3265
" />
<path d="M69.4242 71.3265
L69.2337 71.3741
" />
<path d="M69.2337 71.3741
L69.1384 71.4693
" />
<path d="M69.1384 71.4693
L69.0908 71.5646
" />
<path d="M69.0908 71.5646
L69.0908 71.7550
" />
<path d="M69.0908 71.7550
L69.1384 71.8503
" />
<path d="M69.1384 71.8503
L69.2337 71.9455
" />
<path d="M69.2337 71.9455
L69.4242 71.9931
" />
<path d="M69.4242 71.9931
L69.7575 71.9931
" />
<path d="M69.7575 71.9931
L69.9480 71.9455
" />
<path d="M69.9480 71.9455
L70.0432 71.8503
" />
<path d="M70.0432 71.8503
L70.0908 71.7550
" />
<path d="M70.0908 71.7550
L70.0908 71.5646
" />
<path d="M70.0908 72.9455
L70.0908 72.3741
" />
<path d="M70.0908 72.6598
L69.0908 72.6598
" />
<path d="M69.0908 72.6598
L69.2337 72.5646
" />
<path d="M69.2337 72.5646
L69.3289 72.4693
" />
<path d="M69.3289 72.4693
L69.3765 72.3741
" />
</g><g transform="rotate(-90.000000 85.8920 72.6440)">
<text x="85.8920" y="73.1440"
transform="scale(-1 1) translate(-171.784000 0)"
textLength="2.2500" font-size="1.3333" lengthAdjust="spacingAndGlyphs"
text-anchor="middle" opacity="0">Q2</text>
</g>
<g class="stroked-text"><desc>Q2</desc>
<path d="M86.4421 72.5488
L86.3944 72.4535
" />
<path d="M86.3944 72.4535
L86.2992 72.3583
" />
<path d="M86.2992 72.3583
L86.1563 72.2154
" />
<path d="M86.1563 72.2154
L86.1087 72.1202
" />
<path d="M86.1087 72.1202
L86.1087 72.0250
" />
<path d="M86.3468 72.0726
L86.2992 71.9773
" />
<path d="M86.2992 71.9773
L86.2040 71.8821
" />
<path d="M86.2040 71.8821
L86.0135 71.8345
" />
<path d="M86.0135 71.8345
L85.6802 71.8345
" />
<path d="M85.6802 71.8345
L85.4897 71.8821
" />
<path d="M85.4897 71.8821
L85.3944 71.9773
" />
<path d="M85.3944 71.9773
L85.3468 72.0726
" />
<path d="M85.3468 72.0726
L85.3468 72.2630
" />
<path d="M85.3468 72.2630
L85.3944 72.3583
" />
<path d="M85.3944 72.3583
L85.4897 72.4535
" />
<path d="M85.4897 72.4535
L85.6802 72.5011
" />
<path d="M85.6802 72.5011
L86.0135 72.5011
" />
<path d="M86.0135 72.5011
L86.2040 72.4535
" />
<path d="M86.2040 72.4535
L86.2992 72.3583
" />
<path d="M86.2992 72.3583
L86.3468 72.2630
" />
<path d="M86.3468 72.2630
L86.3468 72.0726
" />
<path d="M85.4421 72.8821
L85.3944 72.9297
" />
<path d="M85.3944 72.9297
L85.3468 73.0250
" />
<path d="M85.3468 73.0250
L85.3468 73.2630
" />
<path d="M85.3468 73.2630
L85.3944 73.3583
" />
<path d="M85.3944 73.3583
L85.4421 73.4059
" />
<path d="M85.4421 73.4059
L85.5373 73.4535
" />
<path d="M85.5373 73.4535
L85.6325 73.4535
" />
<path d="M85.6325 73.4535
L85.7754 73.4059
" />
<path d="M85.7754 73.4059
L86.3468 72.8345
" />
<path d="M86.3468 72.8345
L86.3468 73.4535
" />
</g><g transform="rotate(-90.000000 74.6760 112.5220)">
<text x="74.6760" y="113.0220"
transform="scale(-1 1) translate(-149.352000 0)"
textLength="2.2500" font-size="1.3333" lengthAdjust="spacingAndGlyphs"
text-anchor="middle" opacity="0">Q3</text>
</g>
<g class="stroked-text"><desc>Q3</desc>
<path d="M75.2261 112.4268
L75.1784 112.3315
" />
<path d="M75.1784 112.3315
L75.0832 112.2363
" />
<path d="M75.0832 112.2363
L74.9403 112.0934
" />
<path d="M74.9403 112.0934
L74.8927 111.9982
" />
<path d="M74.8927 111.9982
L74.8927 111.9030
" />
<path d="M75.1308 111.9506
L75.0832 111.8553
" />
<path d="M75.0832 111.8553
L74.9880 111.7601
" />
<path d="M74.9880 111.7601
L74.7975 111.7125
" />
<path d="M74.7975 111.7125
L74.4642 111.7125
" />
<path d="M74.4642 111.7125
L74.2737 111.7601
" />
<path d="M74.2737 111.7601
L74.1784 111.8553
" />
<path d="M74.1784 111.8553
L74.1308 111.9506
" />
<path d="M74.1308 111.9506
L74.1308 112.1410
" />
<path d="M74.1308 112.1410
L74.1784 112.2363
" />
<path d="M74.1784 112.2363
L74.2737 112.3315
" />
<path d="M74.2737 112.3315
L74.4642 112.3791
" />
<path d="M74.4642 112.3791
L74.7975 112.3791
" />
<path d="M74.7975 112.3791
L74.9880 112.3315
" />
<path d="M74.9880 112.3315
L75.0832 112.2363
" />
<path d="M75.0832 112.2363
L75.1308 112.1410
" />
<path d="M75.1308 112.1410
L75.1308 111.9506
" />
<path d="M74.1308 112.7125
L74.1308 113.3315
" />
<path d="M74.1308 113.3315
L74.5118 112.9982
" />
<path d="M74.5118 112.9982
L74.5118 113.1410
" />
<path d="M74.5118 113.1410
L74.5594 113.2363
" />
<path d="M74.5594 113.2363
L74.6070 113.2839
" />
<path d="M74.6070 113.2839
L74.7022 113.3315
" />
<path d="M74.7022 113.3315
L74.9403 113.3315
" />
<path d="M74.9403 113.3315
L75.0356 113.2839
" />
<path d="M75.0356 113.2839
L75.0832 113.2363
" />
<path d="M75.0832 113.2363
L75.1308 113.1410
" />
<path d="M75.1308 113.1410
L75.1308 112.8553
" />
<path d="M75.1308 112.8553
L75.0832 112.7601
" />
<path d="M75.0832 112.7601
L75.0356 112.7125
" />
</g><g transform="rotate(-90.000000 84.8760 106.1720)">
<text x="84.8760" y="106.6720"
transform="scale(-1 1) translate(-169.752000 0)"
textLength="2.2500" font-size="1.3333" lengthAdjust="spacingAndGlyphs"
text-anchor="middle" opacity="0">Q4</text>
</g>
<g class="stroked-text"><desc>Q4</desc>
<path d="M85.4261 106.0768
L85.3784 105.9815
" />
<path d="M85.3784 105.9815
L85.2832 105.8863
" />
<path d="M85.2832 105.8863
L85.1403 105.7434
" />
<path d="M85.1403 105.7434
L85.0927 105.6482
" />
<path d="M85.0927 105.6482
L85.0927 105.5530
" />
<path d="M85.3308 105.6006
L85.2832 105.5053
" />
<path d="M85.2832 105.5053
L85.1880 105.4101
" />
<path d="M85.1880 105.4101
L84.9975 105.3625
" />
<path d="M84.9975 105.3625
L84.6642 105.3625
" />
<path d="M84.6642 105.3625
L84.4737 105.4101
" />
<path d="M84.4737 105.4101
L84.3784 105.5053
" />
<path d="M84.3784 105.5053
L84.3308 105.6006
" />
<path d="M84.3308 105.6006
L84.3308 105.7910
" />
<path d="M84.3308 105.7910
L84.3784 105.8863
" />
<path d="M84.3784 105.8863
L84.4737 105.9815
" />
<path d="M84.4737 105.9815
L84.6642 106.0291
" />
<path d="M84.6642 106.0291
L84.9975 106.0291
" />
<path d="M84.9975 106.0291
L85.1880 105.9815
" />
<path d="M85.1880 105.9815
L85.2832 105.8863
" />
<path d="M85.2832 105.8863
L85.3308 105.7910
" />
<path d="M85.3308 105.7910
L85.3308 105.6006
" />
<path d="M84.6642 106.8863
L85.3308 106.8863
" />
<path d="M84.2832 106.6482
L84.9975 106.4101
" />
<path d="M84.9975 106.4101
L84.9975 107.0291
" />
</g><g transform="rotate(-90.000000 84.8760 147.3200)">
<text x="84.8760" y="147.8200"
transform="scale(-1 1) translate(-169.752000 0)"
textLength="2.2500" font-size="1.3333" lengthAdjust="spacingAndGlyphs"
text-anchor="middle" opacity="0">Q5</text>
</g>
<g class="stroked-text"><desc>Q5</desc>
<path d="M85.4261 147.2248
L85.3784 147.1295
" />
<path d="M85.3784 147.1295
L85.2832 147.0343
" />
<path d="M85.2832 147.0343
L85.1403 146.8914
" />
<path d="M85.1403 146.8914
L85.0927 146.7962
" />
<path d="M85.0927 146.7962
L85.0927 146.7010
" />
<path d="M85.3308 146.7486
L85.2832 146.6533
" />
<path d="M85.2832 146.6533
L85.1880 146.5581
" />
<path d="M85.1880 146.5581
L84.9975 146.5105
" />
<path d="M84.9975 146.5105
L84.6642 146.5105
" />
<path d="M84.6642 146.5105
L84.4737 146.5581
" />
<path d="M84.4737 146.5581
L84.3784 146.6533
" />
<path d="M84.3784 146.6533
L84.3308 146.7486
" />
<path d="M84.3308 146.7486
L84.3308 146.9390
" />
<path d="M84.3308 146.9390
L84.3784 147.0343
" />
<path d="M84.3784 147.0343
L84.4737 147.1295
" />
<path d="M84.4737 147.1295
L84.6642 147.1771
" />
<path d="M84.6642 147.1771
L84.9975 147.1771
" />
<path d="M84.9975 147.1771
L85.1880 147.1295
" />
<path d="M85.1880 147.1295
L85.2832 147.0343
" />
<path d="M85.2832 147.0343
L85.3308 146.9390
" />
<path d="M85.3308 146.9390
L85.3308 146.7486
" />
<path d="M84.3308 148.0819
L84.3308 147.6057
" />
<path d="M84.3308 147.6057
L84.8070 147.5581
" />
<path d="M84.8070 147.5581
L84.7594 147.6057
" />
<path d="M84.7594 147.6057
L84.7118 147.7010
" />
<path d="M84.7118 147.7010
L84.7118 147.9390
" />
<path d="M84.7118 147.9390
L84.7594 148.0343
" />
<path d="M84.7594 148.0343
L84.8070 148.0819
" />
<path d="M84.8070 148.0819
L84.9022 148.1295
" />
<path d="M84.9022 148.1295
L85.1403 148.1295
" />
<path d="M85.1403 148.1295
L85.2356 148.0819
" />
<path d="M85.2356 148.0819
L85.2832 148.0343
" />
<path d="M85.2832 148.0343
L85.3308 147.9390
" />
<path d="M85.3308 147.9390
L85.3308 147.7010
" />
<path d="M85.3308 147.7010
L85.2832 147.6057
" />
<path d="M85.2832 147.6057
L85.2356 147.5581
" />
</g><g transform="rotate(-90.000000 66.0800 153.4160)">
<text x="66.0800" y="153.9160"
transform="scale(-1 1) translate(-132.160000 0)"
textLength="2.2500" font-size="1.3333" lengthAdjust="spacingAndGlyphs"
text-anchor="middle" opacity="0">Q6</text>
</g>
<g class="stroked-text"><desc>Q6</desc>
<path d="M66.6301 153.3208
L66.5824 153.2255
" />
<path d="M66.5824 153.2255
L66.4872 153.1303
" />
<path d="M66.4872 153.1303
L66.3443 152.9874
" />
<path d="M66.3443 152.9874
L66.2967 152.8922
" />
<path d="M66.2967 152.8922
L66.2967 152.7970
" />
<path d="M66.5348 152.8446
L66.4872 152.7493
" />
<path d="M66.4872 152.7493
L66.3920 152.6541
" />
<path d="M66.3920 152.6541
L66.2015 152.6065
" />
<path d="M66.2015 152.6065
L65.8682 152.6065
" />
<path d="M65.8682 152.6065
L65.6777 152.6541
" />
<path d="M65.6777 152.6541
L65.5824 152.7493
" />
<path d="M65.5824 152.7493
L65.5348 152.8446
" />
<path d="M65.5348 152.8446
L65.5348 153.0350
" />
<path d="M65.5348 153.0350
L65.5824 153.1303
" />
<path d="M65.5824 153.1303
L65.6777 153.2255
" />
<path d="M65.6777 153.2255
L65.8682 153.2731
" />
<path d="M65.8682 153.2731
L66.2015 153.2731
" />
<path d="M66.2015 153.2731
L66.3920 153.2255
" />
<path d="M66.3920 153.2255
L66.4872 153.1303
" />
<path d="M66.4872 153.1303
L66.5348 153.0350
" />
<path d="M66.5348 153.0350
L66.5348 152.8446
" />
<path d="M65.5348 154.1303
L65.5348 153.9398
" />
<path d="M65.5348 153.9398
L65.5824 153.8446
" />
<path d="M65.5824 153.8446
L65.6301 153.7970
" />
<path d="M65.6301 153.7970
L65.7729 153.7017
" />
<path d="M65.7729 153.7017
L65.9634 153.6541
" />
<path d="M65.9634 153.6541
L66.3443 153.6541
" />
<path d="M66.3443 153.6541
L66.4396 153.7017
" />
<path d="M66.4396 153.7017
L66.4872 153.7493
" />
<path d="M66.4872 153.7493
L66.5348 153.8446
" />
<path d="M66.5348 153.8446
L66.5348 154.0350
" />
<path d="M66.5348 154.0350
L66.4872 154.1303
" />
<path d="M66.4872 154.1303
L66.4396 154.1779
" />
<path d="M66.4396 154.1779
L66.3443 154.2255
" />
<path d="M66.3443 154.2255
L66.1062 154.2255
" />
<path d="M66.1062 154.2255
L66.0110 154.1779
" />
<path d="M66.0110 154.1779
L65.9634 154.1303
" />
<path d="M65.9634 154.1303
L65.9158 154.0350
" />
<path d="M65.9158 154.0350
L65.9158 153.8446
" />
<path d="M65.9158 153.8446
L65.9634 153.7493
" />
<path d="M65.9634 153.7493
L66.0110 153.7017
" />
<path d="M66.0110 153.7017
L66.1062 153.6541
" />
</g><text x="67.0560" y="69.9700"
transform="scale(-1 1) translate(-134.112000 0)"
textLength="2.2024" font-size="1.3333" lengthAdjust="spacingAndGlyphs"
text-anchor="middle" opacity="0">R3</text>
<g class="stroked-text"><desc>R3</desc>
<path d="M67.2227 69.9248
L67.5560 69.4486
" />
<path d="M67.7941 69.9248
L67.7941 68.9248
" />
<path d="M67.7941 68.9248
L67.4131 68.9248
" />
<path d="M67.4131 68.9248
L67.3179 68.9724
" />
<path d="M67.3179 68.9724
L67.2703 69.0201
" />
<path d="M67.2703 69.0201
L67.2227 69.1153
" />
<path d="M67.2227 69.1153
L67.2227 69.2582
" />
<path d="M67.2227 69.2582
L67.2703 69.3534
" />
<path d="M67.2703 69.3534
L67.3179 69.4010
" />
<path d="M67.3179 69.4010
L67.4131 69.4486
" />
<path d="M67.4131 69.4486
L67.7941 69.4486
" />
<path d="M66.8893 68.9248
L66.2703 68.9248
" />
<path d="M66.2703 68.9248
L66.6036 69.3058
" />
<path d="M66.6036 69.3058
L66.4608 69.3058
" />
<path d="M66.4608 69.3058
L66.3655 69.3534
" />
<path d="M66.3655 69.3534
L66.3179 69.4010
" />
<path d="M66.3179 69.4010
L66.2703 69.4962
" />
<path d="M66.2703 69.4962
L66.2703 69.7343
" />
<path d="M66.2703 69.7343
L66.3179 69.8296
" />
<path d="M66.3179 69.8296
L66.3655 69.8772
" />
<path d="M66.3655 69.8772
L66.4608 69.9248
" />
<path d="M66.4608 69.9248
L66.7465 69.9248
" />
<path d="M66.7465 69.9248
L66.8417 69.8772
" />
<path d="M66.8417 69.8772
L66.8893 69.8296
" />
</g><text x="88.3920" y="67.4300"
transform="scale(-1 1) translate(-176.784000 0)"
textLength="2.2024" font-size="1.3333" lengthAdjust="spacingAndGlyphs"
text-anchor="middle" opacity="0">R4</text>
<g class="stroked-text"><desc>R4</desc>
<path d="M88.5587 67.3848
L88.8920 66.9086
" />
<path d="M89.1301 67.3848
L89.1301 66.3848
" />
<path d="M89.1301 66.3848
L88.7491 66.3848
" />
<path d="M88.7491 66.3848
L88.6539 66.4324
" />
<path d="M88.6539 66.4324
L88.6063 66.4801
" />
<path d="M88.6063 66.4801
L88.5587 66.5753
" />
<path d="M88.5587 66.5753
L88.5587 66.7182
" />
<path d="M88.5587 66.7182
L88.6063 66.8134
" />
<path d="M88.6063 66.8134
L88.6539 66.8610
" />
<path d="M88.6539 66.8610
L88.7491 66.9086
" />
<path d="M88.7491 66.9086
L89.1301 66.9086
" />
<path d="M87.7015 66.7182
L87.7015 67.3848
" />
<path d="M87.9396 66.3372
L88.1777 67.0515
" />
<path d="M88.1777 67.0515
L87.5587 67.0515
" />
</g><text x="67.5640" y="76.3180"
transform="scale(-1 1) translate(-135.128000 0)"
textLength="2.2024" font-size="1.3333" lengthAdjust="spacingAndGlyphs"
text-anchor="middle" opacity="0">R5</text>
<g class="stroked-text"><desc>R5</desc>
<path d="M67.7307 76.2728
L68.0640 75.7966
" />
<path d="M68.3021 76.2728
L68.3021 75.2728
" />
<path d="M68.3021 75.2728
L67.9211 75.2728
" />
<path d="M67.9211 75.2728
L67.8259 75.3204
" />
<path d="M67.8259 75.3204
L67.7783 75.3681
" />
<path d="M67.7783 75.3681
L67.7307 75.4633
" />
<path d="M67.7307 75.4633
L67.7307 75.6062
" />
<path d="M67.7307 75.6062
L67.7783 75.7014
" />
<path d="M67.7783 75.7014
L67.8259 75.7490
" />
<path d="M67.8259 75.7490
L67.9211 75.7966
" />
<path d="M67.9211 75.7966
L68.3021 75.7966
" />
<path d="M66.8259 75.2728
L67.3021 75.2728
" />
<path d="M67.3021 75.2728
L67.3497 75.7490
" />
<path d="M67.3497 75.7490
L67.3021 75.7014
" />
<path d="M67.3021 75.7014
L67.2069 75.6538
" />
<path d="M67.2069 75.6538
L66.9688 75.6538
" />
<path d="M66.9688 75.6538
L66.8735 75.7014
" />
<path d="M66.8735 75.7014
L66.8259 75.7490
" />
<path d="M66.8259 75.7490
L66.7783 75.8442
" />
<path d="M66.7783 75.8442
L66.7783 76.0823
" />
<path d="M66.7783 76.0823
L66.8259 76.1776
" />
<path d="M66.8259 76.1776
L66.8735 76.2252
" />
<path d="M66.8735 76.2252
L66.9688 76.2728
" />
<path d="M66.9688 76.2728
L67.2069 76.2728
" />
<path d="M67.2069 76.2728
L67.3021 76.2252
" />
<path d="M67.3021 76.2252
L67.3497 76.1776
" />
</g><text x="87.6300" y="75.6840"
transform="scale(-1 1) translate(-175.260000 0)"
textLength="2.2024" font-size="1.3333" lengthAdjust="spacingAndGlyphs"
text-anchor="middle" opacity="0">R6</text>
<g class="stroked-text"><desc>R6</desc>
<path d="M87.7967 75.6388
L88.1300 75.1626
" />
<path d="M88.3681 75.6388
L88.3681 74.6388
" />
<path d="M88.3681 74.6388
L87.9871 74.6388
" />
<path d="M87.9871 74.6388
L87.8919 74.6864
" />
<path d="M87.8919 74.6864
L87.8443 74.7341
" />
<path d="M87.8443 74.7341
L87.7967 74.8293
" />
<path d="M87.7967 74.8293
L87.7967 74.9722
" />
<path d="M87.7967 74.9722
L87.8443 75.0674
" />
<path d="M87.8443 75.0674
L87.8919 75.1150
" />
<path d="M87.8919 75.1150
L87.9871 75.1626
" />
<path d="M87.9871 75.1626
L88.3681 75.1626
" />
<path d="M86.9395 74.6388
L87.1300 74.6388
" />
<path d="M87.1300 74.6388
L87.2252 74.6864
" />
<path d="M87.2252 74.6864
L87.2729 74.7341
" />
<path d="M87.2729 74.7341
L87.3681 74.8769
" />
<path d="M87.3681 74.8769
L87.4157 75.0674
" />
<path d="M87.4157 75.0674
L87.4157 75.4483
" />
<path d="M87.4157 75.4483
L87.3681 75.5436
" />
<path d="M87.3681 75.5436
L87.3205 75.5912
" />
<path d="M87.3205 75.5912
L87.2252 75.6388
" />
<path d="M87.2252 75.6388
L87.0348 75.6388
" />
<path d="M87.0348 75.6388
L86.9395 75.5912
" />
<path d="M86.9395 75.5912
L86.8919 75.5436
" />
<path d="M86.8919 75.5436
L86.8443 75.4483
" />
<path d="M86.8443 75.4483
L86.8443 75.2102
" />
<path d="M86.8443 75.2102
L86.8919 75.1150
" />
<path d="M86.8919 75.1150
L86.9395 75.0674
" />
<path d="M86.9395 75.0674
L87.0348 75.0198
" />
<path d="M87.0348 75.0198
L87.2252 75.0198
" />
<path d="M87.2252 75.0198
L87.3205 75.0674
" />
<path d="M87.3205 75.0674
L87.3681 75.1150
" />
<path d="M87.3681 75.1150
L87.4157 75.2102
" />
</g><text x="67.5480" y="110.6100"
transform="scale(-1 1) translate(-135.096000 0)"
textLength="2.2024" font-size="1.3333" lengthAdjust="spacingAndGlyphs"
text-anchor="middle" opacity="0">R7</text>
<g class="stroked-text"><desc>R7</desc>
<path d="M67.7147 110.5648
L68.0480 110.0886
" />
<path d="M68.2861 110.5648
L68.2861 109.5648
" />
<path d="M68.2861 109.5648
L67.9051 109.5648
" />
<path d="M67.9051 109.5648
L67.8099 109.6124
" />
<path d="M67.8099 109.6124
L67.7623 109.6601
" />
<path d="M67.7623 109.6601
L67.7147 109.7553
" />
<path d="M67.7147 109.7553
L67.7147 109.8982
" />
<path d="M67.7147 109.8982
L67.7623 109.9934
" />
<path d="M67.7623 109.9934
L67.8099 110.0410
" />
<path d="M67.8099 110.0410
L67.9051 110.0886
" />
<path d="M67.9051 110.0886
L68.2861 110.0886
" />
<path d="M67.3813 109.5648
L66.7147 109.5648
" />
<path d="M66.7147 109.5648
L67.1432 110.5648
" />
</g><text x="87.3760" y="100.9580"
transform="scale(-1 1) translate(-174.752000 0)"
textLength="2.2024" font-size="1.3333" lengthAdjust="spacingAndGlyphs"
text-anchor="middle" opacity="0">R8</text>
<g class="stroked-text"><desc>R8</desc>
<path d="M87.5427 100.9128
L87.8760 100.4366
" />
<path d="M88.1141 100.9128
L88.1141 99.9128
" />
<path d="M88.1141 99.9128
L87.7331 99.9128
" />
<path d="M87.7331 99.9128
L87.6379 99.9604
" />
<path d="M87.6379 99.9604
L87.5903 100.0081
" />
<path d="M87.5903 100.0081
L87.5427 100.1033
" />
<path d="M87.5427 100.1033
L87.5427 100.2462
" />
<path d="M87.5427 100.2462
L87.5903 100.3414
" />
<path d="M87.5903 100.3414
L87.6379 100.3890
" />
<path d="M87.6379 100.3890
L87.7331 100.4366
" />
<path d="M87.7331 100.4366
L88.1141 100.4366
" />
<path d="M86.9712 100.3414
L87.0665 100.2938
" />
<path d="M87.0665 100.2938
L87.1141 100.2462
" />
<path d="M87.1141 100.2462
L87.1617 100.1509
" />
<path d="M87.1617 100.1509
L87.1617 100.1033
" />
<path d="M87.1617 100.1033
L87.1141 100.0081
" />
<path d="M87.1141 100.0081
L87.0665 99.9604
" />
<path d="M87.0665 99.9604
L86.9712 99.9128
" />
<path d="M86.9712 99.9128
L86.7808 99.9128
" />
<path d="M86.7808 99.9128
L86.6855 99.9604
" />
<path d="M86.6855 99.9604
L86.6379 100.0081
" />
<path d="M86.6379 100.0081
L86.5903 100.1033
" />
<path d="M86.5903 100.1033
L86.5903 100.1509
" />
<path d="M86.5903 100.1509
L86.6379 100.2462
" />
<path d="M86.6379 100.2462
L86.6855 100.2938
" />
<path d="M86.6855 100.2938
L86.7808 100.3414
" />
<path d="M86.7808 100.3414
L86.9712 100.3414
" />
<path d="M86.9712 100.3414
L87.0665 100.3890
" />
<path d="M87.0665 100.3890
L87.1141 100.4366
" />
<path d="M87.1141 100.4366
L87.1617 100.5319
" />
<path d="M87.1617 100.5319
L87.1617 100.7223
" />
<path d="M87.1617 100.7223
L87.1141 100.8176
" />
<path d="M87.1141 100.8176
L87.0665 100.8652
" />
<path d="M87.0665 100.8652
L86.9712 100.9128
" />
<path d="M86.9712 100.9128
L86.7808 100.9128
" />
<path d="M86.7808 100.9128
L86.6855 100.8652
" />
<path d="M86.6855 100.8652
L86.6379 100.8176
" />
<path d="M86.6379 100.8176
L86.5903 100.7223
" />
<path d="M86.5903 100.7223
L86.5903 100.5319
" />
<path d="M86.5903 100.5319
L86.6379 100.4366
" />
<path d="M86.6379 100.4366
L86.6855 100.3890
" />
<path d="M86.6855 100.3890
L86.7808 100.3414
" />
</g><text x="67.5800" y="117.4660"
transform="scale(-1 1) translate(-135.160000 0)"
textLength="2.2024" font-size="1.3333" lengthAdjust="spacingAndGlyphs"
text-anchor="middle" opacity="0">R9</text>
<g class="stroked-text"><desc>R9</desc>
<path d="M67.7467 117.4208
L68.0800 116.9446
" />
<path d="M68.3181 117.4208
L68.3181 116.4208
" />
<path d="M68.3181 116.4208
L67.9371 116.4208
" />
<path d="M67.9371 116.4208
L67.8419 116.4684
" />
<path d="M67.8419 116.4684
L67.7943 116.5161
" />
<path d="M67.7943 116.5161
L67.7467 116.6113
" />
<path d="M67.7467 116.6113
L67.7467 116.7542
" />
<path d="M67.7467 116.7542
L67.7943 116.8494
" />
<path d="M67.7943 116.8494
L67.8419 116.8970
" />
<path d="M67.8419 116.8970
L67.9371 116.9446
" />
<path d="M67.9371 116.9446
L68.3181 116.9446
" />
<path d="M67.2705 117.4208
L67.0800 117.4208
" />
<path d="M67.0800 117.4208
L66.9848 117.3732
" />
<path d="M66.9848 117.3732
L66.9371 117.3256
" />
<path d="M66.9371 117.3256
L66.8419 117.1827
" />
<path d="M66.8419 117.1827
L66.7943 116.9922
" />
<path d="M66.7943 116.9922
L66.7943 116.6113
" />
<path d="M66.7943 116.6113
L66.8419 116.5161
" />
<path d="M66.8419 116.5161
L66.8895 116.4684
" />
<path d="M66.8895 116.4684
L66.9848 116.4208
" />
<path d="M66.9848 116.4208
L67.1752 116.4208
" />
<path d="M67.1752 116.4208
L67.2705 116.4684
" />
<path d="M67.2705 116.4684
L67.3181 116.5161
" />
<path d="M67.3181 116.5161
L67.3657 116.6113
" />
<path d="M67.3657 116.6113
L67.3657 116.8494
" />
<path d="M67.3657 116.8494
L67.3181 116.9446
" />
<path d="M67.3181 116.9446
L67.2705 116.9922
" />
<path d="M67.2705 116.9922
L67.1752 117.0399
" />
<path d="M67.1752 117.0399
L66.9848 117.0399
" />
<path d="M66.9848 117.0399
L66.8895 116.9922
" />
<path d="M66.8895 116.9922
L66.8419 116.9446
" />
<path d="M66.8419 116.9446
L66.7943 116.8494
" />
</g><text x="86.8520" y="112.3860"
transform="scale(-1 1) translate(-173.704000 0)"
textLength="3.1548" font-size="1.3333" lengthAdjust="spacingAndGlyphs"
text-anchor="middle" opacity="0">R10</text>
<g class="stroked-text"><desc>R10</desc>
<path d="M87.4949 112.3408
L87.8282 111.8646
" />
<path d="M88.0663 112.3408
L88.0663 111.3408
" />
<path d="M88.0663 111.3408
L87.6853 111.3408
" />
<path d="M87.6853 111.3408
L87.5901 111.3884
" />
<path d="M87.5901 111.3884
L87.5425 111.4361
" />
<path d="M87.5425 111.4361
L87.4949 111.5313
" />
<path d="M87.4949 111.5313
L87.4949 111.6742
" />
<path d="M87.4949 111.6742
L87.5425 111.7694
" />
<path d="M87.5425 111.7694
L87.5901 111.8170
" />
<path d="M87.5901 111.8170
L87.6853 111.8646
" />
<path d="M87.6853 111.8646
L88.0663 111.8646
" />
<path d="M86.5425 112.3408
L87.1139 112.3408
" />
<path d="M86.8282 112.3408
L86.8282 111.3408
" />
<path d="M86.8282 111.3408
L86.9234 111.4837
" />
<path d="M86.9234 111.4837
L87.0187 111.5789
" />
<path d="M87.0187 111.5789
L87.1139 111.6265
" />
<path d="M85.9234 111.3408
L85.8282 111.3408
" />
<path d="M85.8282 111.3408
L85.7330 111.3884
" />
<path d="M85.7330 111.3884
L85.6853 111.4361
" />
<path d="M85.6853 111.4361
L85.6377 111.5313
" />
<path d="M85.6377 111.5313
L85.5901 111.7218
" />
<path d="M85.5901 111.7218
L85.5901 111.9599
" />
<path d="M85.5901 111.9599
L85.6377 112.1503
" />
<path d="M85.6377 112.1503
L85.6853 112.2456
" />
<path d="M85.6853 112.2456
L85.7330 112.2932
" />
<path d="M85.7330 112.2932
L85.8282 112.3408
" />
<path d="M85.8282 112.3408
L85.9234 112.3408
" />
<path d="M85.9234 112.3408
L86.0187 112.2932
" />
<path d="M86.0187 112.2932
L86.0663 112.2456
" />
<path d="M86.0663 112.2456
L86.1139 112.1503
" />
<path d="M86.1139 112.1503
L86.1615 111.9599
" />
<path d="M86.1615 111.9599
L86.1615 111.7218
" />
<path d="M86.1615 111.7218
L86.1139 111.5313
" />
<path d="M86.1139 111.5313
L86.0663 111.4361
" />
<path d="M86.0663 111.4361
L86.0187 111.3884
" />
<path d="M86.0187 111.3884
L85.9234 111.3408
" />
</g><text x="87.3600" y="145.4060"
transform="scale(-1 1) translate(-174.720000 0)"
textLength="3.1548" font-size="1.3333" lengthAdjust="spacingAndGlyphs"
text-anchor="middle" opacity="0">R11</text>
<g class="stroked-text"><desc>R11</desc>
<path d="M88.0029 145.3608
L88.3362 144.8846
" />
<path d="M88.5743 145.3608
L88.5743 144.3608
" />
<path d="M88.5743 144.3608
L88.1933 144.3608
" />
<path d="M88.1933 144.3608
L88.0981 144.4084
" />
<path d="M88.0981 144.4084
L88.0505 144.4561
" />
<path d="M88.0505 144.4561
L88.0029 144.5513
" />
<path d="M88.0029 144.5513
L88.0029 144.6942
" />
<path d="M88.0029 144.6942
L88.0505 144.7894
" />
<path d="M88.0505 144.7894
L88.0981 144.8370
" />
<path d="M88.0981 144.8370
L88.1933 144.8846
" />
<path d="M88.1933 144.8846
L88.5743 144.8846
" />
<path d="M87.0505 145.3608
L87.6219 145.3608
" />
<path d="M87.3362 145.3608
L87.3362 144.3608
" />
<path d="M87.3362 144.3608
L87.4314 144.5037
" />
<path d="M87.4314 144.5037
L87.5267 144.5989
" />
<path d="M87.5267 144.5989
L87.6219 144.6465
" />
<path d="M86.0981 145.3608
L86.6695 145.3608
" />
<path d="M86.3838 145.3608
L86.3838 144.3608
" />
<path d="M86.3838 144.3608
L86.4790 144.5037
" />
<path d="M86.4790 144.5037
L86.5743 144.5989
" />
<path d="M86.5743 144.5989
L86.6695 144.6465
" />
</g><text x="68.5800" y="150.9940"
transform="scale(-1 1) translate(-137.160000 0)"
textLength="3.1548" font-size="1.3333" lengthAdjust="spacingAndGlyphs"
text-anchor="middle" opacity="0">R12</text>
<g class="stroked-text"><desc>R12</desc>
<path d="M69.2229 150.9488
L69.5562 150.4726
" />
<path d="M69.7943 150.9488
L69.7943 149.9488
" />
<path d="M69.7943 149.9488
L69.4133 149.9488
" />
<path d="M69.4133 149.9488
L69.3181 149.9964
" />
<path d="M69.3181 149.9964
L69.2705 150.0441
" />
<path d="M69.2705 150.0441
L69.2229 150.1393
" />
<path d="M69.2229 150.1393
L69.2229 150.2822
" />
<path d="M69.2229 150.2822
L69.2705 150.3774
" />
<path d="M69.2705 150.3774
L69.3181 150.4250
" />
<path d="M69.3181 150.4250
L69.4133 150.4726
" />
<path d="M69.4133 150.4726
L69.7943 150.4726
" />
<path d="M68.2705 150.9488
L68.8419 150.9488
" />
<path d="M68.5562 150.9488
L68.5562 149.9488
" />
<path d="M68.5562 149.9488
L68.6514 150.0917
" />
<path d="M68.6514 150.0917
L68.7467 150.1869
" />
<path d="M68.7467 150.1869
L68.8419 150.2345
" />
<path d="M67.8895 150.0441
L67.8419 149.9964
" />
<path d="M67.8419 149.9964
L67.7467 149.9488
" />
<path d="M67.7467 149.9488
L67.5086 149.9488
" />
<path d="M67.5086 149.9488
L67.4133 149.9964
" />
<path d="M67.4133 149.9964
L67.3657 150.0441
" />
<path d="M67.3657 150.0441
L67.3181 150.1393
" />
<path d="M67.3181 150.1393
L67.3181 150.2345
" />
<path d="M67.3181 150.2345
L67.3657 150.3774
" />
<path d="M67.3657 150.3774
L67.9371 150.9488
" />
<path d="M67.9371 150.9488
L67.3181 150.9488
" />
</g><text x="87.3600" y="142.3580"
transform="scale(-1 1) translate(-174.720000 0)"
textLength="3.1548" font-size="1.3333" lengthAdjust="spacingAndGlyphs"
text-anchor="middle" opacity="0">R13</text>
<g class="stroked-text"><desc>R13</desc>
<path d="M88.0029 142.3128
L88.3362 141.8366
" />
<path d="M88.5743 142.3128
L88.5743 141.3128
" />
<path d="M88.5743 141.3128
L88.1933 141.3128
" />
<path d="M88.1933 141.3128
L88.0981 141.3604
" />
<path d="M88.0981 141.3604
L88.0505 141.4081
" />
<path d="M88.0505 141.4081
L88.0029 141.5033
" />
<path d="M88.0029 141.5033
L88.0029 141.6462
" />
<path d="M88.0029 141.6462
L88.0505 141.7414
" />
<path d="M88.0505 141.7414
L88.0981 141.7890
" />
<path d="M88.0981 141.7890
L88.1933 141.8366
" />
<path d="M88.1933 141.8366
L88.5743 141.8366
" />
<path d="M87.0505 142.3128
L87.6219 142.3128
" />
<path d="M87.3362 142.3128
L87.3362 141.3128
" />
<path d="M87.3362 141.3128
L87.4314 141.4557
" />
<path d="M87.4314 141.4557
L87.5267 141.5509
" />
<path d="M87.5267 141.5509
L87.6219 141.5985
" />
<path d="M86.7171 141.3128
L86.0981 141.3128
" />
<path d="M86.0981 141.3128
L86.4314 141.6938
" />
<path d="M86.4314 141.6938
L86.2886 141.6938
" />
<path d="M86.2886 141.6938
L86.1933 141.7414
" />
<path d="M86.1933 141.7414
L86.1457 141.7890
" />
<path d="M86.1457 141.7890
L86.0981 141.8842
" />
<path d="M86.0981 141.8842
L86.0981 142.1223
" />
<path d="M86.0981 142.1223
L86.1457 142.2176
" />
<path d="M86.1457 142.2176
L86.1933 142.2652
" />
<path d="M86.1933 142.2652
L86.2886 142.3128
" />
<path d="M86.2886 142.3128
L86.5743 142.3128
" />
<path d="M86.5743 142.3128
L86.6695 142.2652
" />
<path d="M86.6695 142.2652
L86.7171 142.2176
" />
</g><text x="70.8660" y="157.2180"
transform="scale(-1 1) translate(-141.732000 0)"
textLength="3.1548" font-size="1.3333" lengthAdjust="spacingAndGlyphs"
text-anchor="middle" opacity="0">R14</text>
<g class="stroked-text"><desc>R14</desc>
<path d="M71.5089 157.1728
L71.8422 156.6966
" />
<path d="M72.0803 157.1728
L72.0803 156.1728
" />
<path d="M72.0803 156.1728
L71.6993 156.1728
" />
<path d="M71.6993 156.1728
L71.6041 156.2204
" />
<path d="M71.6041 156.2204
L71.5565 156.2681
" />
<path d="M71.5565 156.2681
L71.5089 156.3633
" />
<path d="M71.5089 156.3633
L71.5089 156.5062
" />
<path d="M71.5089 156.5062
L71.5565 156.6014
" />
<path d="M71.5565 156.6014
L71.6041 156.6490
" />
<path d="M71.6041 156.6490
L71.6993 156.6966
" />
<path d="M71.6993 156.6966
L72.0803 156.6966
" />
<path d="M70.5565 157.1728
L71.1279 157.1728
" />
<path d="M70.8422 157.1728
L70.8422 156.1728
" />
<path d="M70.8422 156.1728
L70.9374 156.3157
" />
<path d="M70.9374 156.3157
L71.0327 156.4109
" />
<path d="M71.0327 156.4109
L71.1279 156.4585
" />
<path d="M69.6993 156.5062
L69.6993 157.1728
" />
<path d="M69.9374 156.1252
L70.1755 156.8395
" />
<path d="M70.1755 156.8395
L69.5565 156.8395
" />
</g><text x="88.9000" y="112.0300"
transform="scale(-1 1) translate(-177.800000 0)"
textLength="1.9643" font-size="1.3333" lengthAdjust="spacingAndGlyphs"
text-anchor="middle" opacity="0">J8</text>
<g class="stroked-text"><desc>J8</desc>
<path d="M89.2333 110.9848
L89.2333 111.6991
" />
<path d="M89.2333 111.6991
L89.2810 111.8420
" />
<path d="M89.2810 111.8420
L89.3762 111.9372
" />
<path d="M89.3762 111.9372
L89.5190 111.9848
" />
<path d="M89.5190 111.9848
L89.6143 111.9848
" />
<path d="M88.6143 111.4134
L88.7095 111.3658
" />
<path d="M88.7095 111.3658
L88.7571 111.3182
" />
<path d="M88.7571 111.3182
L88.8048 111.2229
" />
<path d="M88.8048 111.2229
L88.8048 111.1753
" />
<path d="M88.8048 111.1753
L88.7571 111.0801
" />
<path d="M88.7571 111.0801
L88.7095 111.0324
" />
<path d="M88.7095 111.0324
L88.6143 110.9848
" />
<path d="M88.6143 110.9848
L88.4238 110.9848
" />
<path d="M88.4238 110.9848
L88.3286 111.0324
" />
<path d="M88.3286 111.0324
L88.2810 111.0801
" />
<path d="M88.2810 111.0801
L88.2333 111.1753
" />
<path d="M88.2333 111.1753
L88.2333 111.2229
" />
<path d="M88.2333 111.2229
L88.2810 111.3182
" />
<path d="M88.2810 111.3182
L88.3286 111.3658
" />
<path d="M88.3286 111.3658
L88.4238 111.4134
" />
<path d="M88.4238 111.4134
L88.6143 111.4134
" />
<path d="M88.6143 111.4134
L88.7095 111.4610
" />
<path d="M88.7095 111.4610
L88.7571 111.5086
" />
<path d="M88.7571 111.5086
L88.8048 111.6039
" />
<path d="M88.8048 111.6039
L88.8048 111.7943
" />
<path d="M88.8048 111.7943
L88.7571 111.8896
" />
<path d="M88.7571 111.8896
L88.7095 111.9372
" />
<path d="M88.7095 111.9372
L88.6143 111.9848
" />
<path d="M88.6143 111.9848
L88.4238 111.9848
" />
<path d="M88.4238 111.9848
L88.3286 111.9372
" />
<path d="M88.3286 111.9372
L88.2810 111.8896
" />
<path d="M88.2810 111.8896
L88.2333 111.7943
" />
<path d="M88.2333 111.7943
L88.2333 111.6039
" />
<path d="M88.2333 111.6039
L88.2810 111.5086
" />
<path d="M88.2810 111.5086
L88.3286 111.4610
" />
<path d="M88.3286 111.4610
L88.4238 111.4134
" />
</g><text x="52.8700" y="87.7300"
transform="scale(-1 1) translate(-105.740000 0)"
textLength="1.9643" font-size="1.3333" lengthAdjust="spacingAndGlyphs"
text-anchor="middle" opacity="0">J4</text>
<g class="stroked-text"><desc>J4</desc>
<path d="M53.2033 86.6848
L53.2033 87.3991
" />
<path d="M53.2033 87.3991
L53.2510 87.5420
" />
<path d="M53.2510 87.5420
L53.3462 87.6372
" />
<path d="M53.3462 87.6372
L53.4890 87.6848
" />
<path d="M53.4890 87.6848
L53.5843 87.6848
" />
<path d="M52.2986 87.0182
L52.2986 87.6848
" />
<path d="M52.5367 86.6372
L52.7748 87.3515
" />
<path d="M52.7748 87.3515
L52.1557 87.3515
" />
</g></g>
<g style="fill:#000000; fill-opacity:0.0; 
stroke:#000000; stroke-width:0.1200; stroke-opacity:1; 
stroke-linecap:round; stroke-linejoin:round;">
<path d="M73.9880 69.0720
L69.9780 69.0720
" />
<path d="M73.9880 67.0720
L73.9880 69.0720
" />
<path d="M73.9880 67.0720
L69.9780 67.0720
" />
<path d="M90.2440 81.7720
L86.2340 81.7720
" />
<path d="M90.2440 79.7720
L90.2440 81.7720
" />
<path d="M90.2440 79.7720
L86.2340 79.7720
" />
<path d="M74.1140 109.7120
L70.1040 109.7120
" />
<path d="M74.1140 107.7120
L74.1140 109.7120
" />
<path d="M74.1140 107.7120
L70.1040 107.7120
" />
<path d="M89.2280 99.5520
L85.2180 99.5520
" />
<path d="M89.2280 97.5520
L89.2280 99.5520
" />
<path d="M89.2280 97.5520
L85.2180 97.5520
" />
<path d="M85.5240 150.3840
L89.5340 150.3840
" />
<path d="M85.5240 152.3840
L85.5240 150.3840
" />
<path d="M85.5240 152.3840
L89.5340 152.3840
" />
<path d="M65.7120 143.7800
L69.7220 143.7800
" />
<path d="M65.7120 145.7800
L65.7120 143.7800
" />
<path d="M65.7120 145.7800
L69.7220 145.7800
" />
<path d="M73.6960 72.1360
L73.6960 71.4860
" />
<path d="M73.6960 72.1360
L73.6960 72.7860
" />
<path d="M70.5760 72.1360
L70.5760 70.4610
" />
<path d="M70.5760 72.1360
L70.5760 72.7860
" />
<path d="M89.9520 72.6440
L89.9520 71.9940
" />
<path d="M89.9520 72.6440
L89.9520 73.2940
" />
<path d="M86.8320 72.6440
L86.8320 70.9690
" />
<path d="M86.8320 72.6440
L86.8320 73.2940
" />
<path d="M73.6960 112.7760
L73.6960 112.1260
" />
<path d="M73.6960 112.7760
L73.6960 113.4260
" />
<path d="M70.5760 112.7760
L70.5760 111.1010
" />
<path d="M70.5760 112.7760
L70.5760 113.4260
" />
<path d="M88.9360 106.1720
L88.9360 105.5220
" />
<path d="M88.9360 106.1720
L88.9360 106.8220
" />
<path d="M85.8160 106.1720
L85.8160 104.4970
" />
<path d="M85.8160 106.1720
L85.8160 106.8220
" />
<path d="M88.9360 147.3200
L88.9360 146.6700
" />
<path d="M88.9360 147.3200
L88.9360 147.9700
" />
<path d="M85.8160 147.3200
L85.8160 145.6450
" />
<path d="M85.8160 147.3200
L85.8160 147.9700
" />
<path d="M70.1400 153.4160
L70.1400 152.7660
" />
<path d="M70.1400 153.4160
L70.1400 154.0660
" />
<path d="M67.0200 153.4160
L67.0200 151.7410
" />
<path d="M67.0200 153.4160
L67.0200 154.0660
" />
<path d="M67.2831 71.8550
L66.8289 71.8550
" />
<path d="M67.2831 70.3850
L66.8289 70.3850
" />
<path d="M88.6191 69.3150
L88.1649 69.3150
" />
<path d="M88.6191 67.8450
L88.1649 67.8450
" />
<path d="M67.3369 73.4330
L67.7911 73.4330
" />
<path d="M67.3369 74.9030
L67.7911 74.9030
" />
<path d="M87.1489 75.9730
L87.6031 75.9730
" />
<path d="M87.1489 77.4430
L87.6031 77.4430
" />
<path d="M67.7751 112.4950
L67.3209 112.4950
" />
<path d="M67.7751 111.0250
L67.3209 111.0250
" />
<path d="M87.6031 102.8430
L87.1489 102.8430
" />
<path d="M87.6031 101.3730
L87.1489 101.3730
" />
<path d="M67.3529 114.5810
L67.8071 114.5810
" />
<path d="M67.3529 116.0510
L67.8071 116.0510
" />
<path d="M86.6249 109.5010
L87.0791 109.5010
" />
<path d="M86.6249 110.9710
L87.0791 110.9710
" />
<path d="M87.1329 142.5210
L87.5871 142.5210
" />
<path d="M87.1329 143.9910
L87.5871 143.9910
" />
<path d="M68.3529 148.1090
L68.8071 148.1090
" />
<path d="M68.3529 149.5790
L68.8071 149.5790
" />
<path d="M87.1329 139.4730
L87.5871 139.4730
" />
<path d="M87.1329 140.9430
L87.5871 140.9430
" />
<path d="M67.3209 156.2370
L67.7751 156.2370
" />
<path d="M67.3209 157.7070
L67.7751 157.7070
" />
<path d="M90.2300 120.7100
L87.5700 120.7100
" />
<path d="M90.2300 115.5700
L90.2300 120.7100
" />
<path d="M90.2300 115.5700
L87.5700 115.5700
" />
<path d="M88.9000 112.9700
L87.5700 112.9700
" />
<path d="M87.5700 115.5700
L87.5700 120.7100
" />
<path d="M87.5700 112.9700
L87.5700 114.3000
" />
<path d="M54.2000 101.4900
L51.5400 101.4900
" />
<path d="M54.2000 91.2700
L54.2000 101.4900
" />
<path d="M54.2000 91.2700
L51.5400 91.2700
" />
<path d="M52.8700 88.6700
L51.5400 88.6700
" />
<path d="M51.5400 91.2700
L51.5400 101.4900
" />
<path d="M51.5400 88.6700
L51.5400 90.0000
" />
<g >
</g>
<g >
</g>
<g >
</g>
<g >
</g>
<g >
</g>
<g >
</g>
<g >
</g>
<g >
</g>
<g >
</g>
<g >
</g>
<g >
</g>
<g >
</g>
<g >
</g>
<g >
</g>
<g >
</g>
<g >
</g>
<g >
</g>
<g >
</g>
<g >
</g>
<g >
</g>
<g >
</g>
<g >
</g>
<g >
</g>
<g >
</g>
<g >
</g>
<g >
</g>
<g >
</g>
<g >
</g>
<g >
</g>
<g >
</g>
<g >
</g>
<g >
</g>
<g >
</g>
<g >
</g>
<g >
</g>
<g >
</g>
<g >
</g>
<g >
</g>
<g >
</g>
<g >
</g>
<g >
</g>
<g >
</g>
<g >
</g>
<g >
</g>
<g >
</g>
<g >
</g>
<g >
</g>
<g >
</g>
<g >
</g>
<g >
</g>
<g >
</g>
<g >
</g>
</g>
<g style="fill:#FFFFFF; fill-opacity:0.0; 
stroke:#FFFFFF; stroke-width:0.1200; stroke-opacity:1; 
stroke-linecap:round; stroke-linejoin:round;">
</g>
<g style="fill:#FFFFFF; fill-opacity:1.0000; 
stroke:#FFFFFF; stroke-width:0.0000; stroke-opacity:1; 
stroke-linecap:round; stroke-linejoin:round;">
<circle cx="54.8640" cy="141.9860" r="0.1750" /> 
</g>
<g style="fill:#FFFFFF; fill-opacity:1.0000; 
stroke:#FFFFFF; stroke-width:0.0212; stroke-opacity:1; 
stroke-linecap:round; stroke-linejoin:round;">
</g>
<g style="fill:#FFFFFF; fill-opacity:1.0000; 
stroke:#FFFFFF; stroke-width:0.0000; stroke-opacity:1; 
stroke-linecap:round; stroke-linejoin:round;">
<circle cx="75.1840" cy="148.8440" r="0.1750" /> 
</g>
<g style="fill:#FFFFFF; fill-opacity:1.0000; 
stroke:#FFFFFF; stroke-width:0.0212; stroke-opacity:1; 
stroke-linecap:round; stroke-linejoin:round;">
</g>
<g style="fill:#FFFFFF; fill-opacity:1.0000; 
stroke:#FFFFFF; stroke-width:0.0000; stroke-opacity:1; 
stroke-linecap:round; stroke-linejoin:round;">
<circle cx="67.0560" cy="117.3480" r="0.1750" /> 
</g>
<g style="fill:#FFFFFF; fill-opacity:1.0000; 
stroke:#FFFFFF; stroke-width:0.0212; stroke-opacity:1; 
stroke-linecap:round; stroke-linejoin:round;">
</g>
<g style="fill:#FFFFFF; fill-opacity:1.0000; 
stroke:#FFFFFF; stroke-width:0.0000; stroke-opacity:1; 
stroke-linecap:round; stroke-linejoin:round;">
<circle cx="83.8200" cy="110.2360" r="0.1750" /> 
</g>
<g style="fill:#FFFFFF; fill-opacity:1.0000; 
stroke:#FFFFFF; stroke-width:0.0212; stroke-opacity:1; 
stroke-linecap:round; stroke-linejoin:round;">
</g>
<g style="fill:#FFFFFF; fill-opacity:1.0000; 
stroke:#FFFFFF; stroke-width:0.0000; stroke-opacity:1; 
stroke-linecap:round; stroke-linejoin:round;">
<circle cx="81.2800" cy="80.2640" r="0.1750" /> 
</g>
<g style="fill:#FFFFFF; fill-opacity:1.0000; 
stroke:#FFFFFF; stroke-width:0.0212; stroke-opacity:1; 
stroke-linecap:round; stroke-linejoin:round;">
</g>
<g style="fill:#FFFFFF; fill-opacity:1.0000; 
stroke:#FFFFFF; stroke-width:0.0000; stroke-opacity:1; 
stroke-linecap:round; stroke-linejoin:round;">
<circle cx="66.5480" cy="75.6920" r="0.1750" /> 
</g>
<g style="fill:#FFFFFF; fill-opacity:1.0000; 
stroke:#FFFFFF; stroke-width:0.0212; stroke-opacity:1; 
stroke-linecap:round; stroke-linejoin:round;">
</g>
<g style="fill:#FFFFFF; fill-opacity:1.0000; 
stroke:#FFFFFF; stroke-width:0.0000; stroke-opacity:1; 
stroke-linecap:round; stroke-linejoin:round;">
<circle cx="88.5600" cy="53.3400" r="0.1750" /> 
</g>
<g style="fill:#FFFFFF; fill-opacity:1.0000; 
stroke:#FFFFFF; stroke-width:0.0212; stroke-opacity:1; 
stroke-linecap:round; stroke-linejoin:round;">
</g>
<g style="fill:#FFFFFF; fill-opacity:1.0000; 
stroke:#FFFFFF; stroke-width:0.0000; stroke-opacity:1; 
stroke-linecap:round; stroke-linejoin:round;">
<circle cx="53.3400" cy="156.4400" r="0.1750" /> 
</g>
<g style="fill:#FFFFFF; fill-opacity:1.0000; 
stroke:#FFFFFF; stroke-width:0.0212; stroke-opacity:1; 
stroke-linecap:round; stroke-linejoin:round;">
</g>
<g style="fill:#FFFFFF; fill-opacity:1.0000; 
stroke:#FFFFFF; stroke-width:0.0000; stroke-opacity:1; 
stroke-linecap:round; stroke-linejoin:round;">
<circle cx="88.5600" cy="156.4400" r="0.1750" /> 
</g>
<g style="fill:#FFFFFF; fill-opacity:1.0000; 
stroke:#FFFFFF; stroke-width:0.0212; stroke-opacity:1; 
stroke-linecap:round; stroke-linejoin:round;">
</g>
<g style="fill:#FFFFFF; fill-opacity:1.0000; 
stroke:#FFFFFF; stroke-width:0.0000; stroke-opacity:1; 
stroke-linecap:round; stroke-linejoin:round;">
<circle cx="53.3400" cy="53.3400" r="0.1750" /> 
</g>
<g style="fill:#FFFFFF; fill-opacity:1.0000; 
stroke:#FFFFFF; stroke-width:0.0212; stroke-opacity:1; 
stroke-linecap:round; stroke-linejoin:round;">
</g>
<g style="fill:#FFFFFF; fill-opacity:1.0000; 
stroke:#FFFFFF; stroke-width:0.0000; stroke-opacity:1; 
stroke-linecap:round; stroke-linejoin:round;">
<circle cx="59.6800" cy="76.2000" r="0.1750" /> 
</g>
<g style="fill:#FFFFFF; fill-opacity:1.0000; 
stroke:#FFFFFF; stroke-width:0.0212; stroke-opacity:1; 
stroke-linecap:round; stroke-linejoin:round;">
</g>
<g style="fill:#FFFFFF; fill-opacity:1.0000; 
stroke:#FFFFFF; stroke-width:0.0000; stroke-opacity:1; 
stroke-linecap:round; stroke-linejoin:round;">
<circle cx="62.2200" cy="76.2000" r="0.1750" /> 
</g>
<g style="fill:#FFFFFF; fill-opacity:1.0000; 
stroke:#FFFFFF; stroke-width:0.0212; stroke-opacity:1; 
stroke-linecap:round; stroke-linejoin:round;">
</g>
<g style="fill:#FFFFFF; fill-opacity:1.0000; 
stroke:#FFFFFF; stroke-width:0.0000; stroke-opacity:1; 
stroke-linecap:round; stroke-linejoin:round;">
<circle cx="79.4920" cy="76.2000" r="0.1750" /> 
</g>
<g style="fill:#FFFFFF; fill-opacity:1.0000; 
stroke:#FFFFFF; stroke-width:0.0212; stroke-opacity:1; 
stroke-linecap:round; stroke-linejoin:round;">
</g>
<g style="fill:#FFFFFF; fill-opacity:1.0000; 
stroke:#FFFFFF; stroke-width:0.0000; stroke-opacity:1; 
stroke-linecap:round; stroke-linejoin:round;">
<circle cx="82.0320" cy="76.2000" r="0.1750" /> 
</g>
<g style="fill:#FFFFFF; fill-opacity:1.0000; 
stroke:#FFFFFF; stroke-width:0.0212; stroke-opacity:1; 
stroke-linecap:round; stroke-linejoin:round;">
</g>
<g style="fill:#FFFFFF; fill-opacity:1.0000; 
stroke:#FFFFFF; stroke-width:0.0000; stroke-opacity:1; 
stroke-linecap:round; stroke-linejoin:round;">
<circle cx="59.6800" cy="116.8400" r="0.1750" /> 
</g>
<g style="fill:#FFFFFF; fill-opacity:1.0000; 
stroke:#FFFFFF; stroke-width:0.0212; stroke-opacity:1; 
stroke-linecap:round; stroke-linejoin:round;">
</g>
<g style="fill:#FFFFFF; fill-opacity:1.0000; 
stroke:#FFFFFF; stroke-width:0.0000; stroke-opacity:1; 
stroke-linecap:round; stroke-linejoin:round;">
<circle cx="62.2200" cy="116.8400" r="0.1750" /> 
</g>
<g style="fill:#FFFFFF; fill-opacity:1.0000; 
stroke:#FFFFFF; stroke-width:0.0212; stroke-opacity:1; 
stroke-linecap:round; stroke-linejoin:round;">
</g>
<g style="fill:#FFFFFF; fill-opacity:1.0000; 
stroke:#FFFFFF; stroke-width:0.0000; stroke-opacity:1; 
stroke-linecap:round; stroke-linejoin:round;">
<circle cx="80.0100" cy="116.8400" r="0.1750" /> 
</g>
<g style="fill:#FFFFFF; fill-opacity:1.0000; 
stroke:#FFFFFF; stroke-width:0.0212; stroke-opacity:1; 
stroke-linecap:round; stroke-linejoin:round;">
</g>
<g style="fill:#FFFFFF; fill-opacity:1.0000; 
stroke:#FFFFFF; stroke-width:0.0000; stroke-opacity:1; 
stroke-linecap:round; stroke-linejoin:round;">
<circle cx="82.5500" cy="116.8400" r="0.1750" /> 
</g>
<g style="fill:#FFFFFF; fill-opacity:1.0000; 
stroke:#FFFFFF; stroke-width:0.0212; stroke-opacity:1; 
stroke-linecap:round; stroke-linejoin:round;">
</g>
<g style="fill:#FFFFFF; fill-opacity:1.0000; 
stroke:#FFFFFF; stroke-width:0.0000; stroke-opacity:1; 
stroke-linecap:round; stroke-linejoin:round;">
<circle cx="80.0200" cy="156.4640" r="0.1750" /> 
</g>
<g style="fill:#FFFFFF; fill-opacity:1.0000; 
stroke:#FFFFFF; stroke-width:0.0212; stroke-opacity:1; 
stroke-linecap:round; stroke-linejoin:round;">
</g>
<g style="fill:#FFFFFF; fill-opacity:1.0000; 
stroke:#FFFFFF; stroke-width:0.0000; stroke-opacity:1; 
stroke-linecap:round; stroke-linejoin:round;">
<circle cx="82.5600" cy="156.4640" r="0.1750" /> 
</g>
<g style="fill:#FFFFFF; fill-opacity:1.0000; 
stroke:#FFFFFF; stroke-width:0.0212; stroke-opacity:1; 
stroke-linecap:round; stroke-linejoin:round;">
</g>
<g style="fill:#FFFFFF; fill-opacity:1.0000; 
stroke:#FFFFFF; stroke-width:0.0000; stroke-opacity:1; 
stroke-linecap:round; stroke-linejoin:round;">
<circle cx="59.7000" cy="156.4640" r="0.1750" /> 
</g>
<g style="fill:#FFFFFF; fill-opacity:1.0000; 
stroke:#FFFFFF; stroke-width:0.0212; stroke-opacity:1; 
stroke-linecap:round; stroke-linejoin:round;">
</g>
<g style="fill:#FFFFFF; fill-opacity:1.0000; 
stroke:#FFFFFF; stroke-width:0.0000; stroke-opacity:1; 
stroke-linecap:round; stroke-linejoin:round;">
<circle cx="62.2400" cy="156.4640" r="0.1750" /> 
</g>
<g style="fill:#FFFFFF; fill-opacity:1.0000; 
stroke:#FFFFFF; stroke-width:0.0212; stroke-opacity:1; 
stroke-linecap:round; stroke-linejoin:round;">
</g>
<g style="fill:#FFFFFF; fill-opacity:1.0000; 
stroke:#FFFFFF; stroke-width:0.0000; stroke-opacity:1; 
stroke-linecap:round; stroke-linejoin:round;">
<circle cx="60.9600" cy="59.5600" r="0.1750" /> 
</g>
<g style="fill:#FFFFFF; fill-opacity:1.0000; 
stroke:#FFFFFF; stroke-width:0.0212; stroke-opacity:1; 
stroke-linecap:round; stroke-linejoin:round;">
</g>
<g style="fill:#FFFFFF; fill-opacity:1.0000; 
stroke:#FFFFFF; stroke-width:0.0000; stroke-opacity:1; 
stroke-linecap:round; stroke-linejoin:round;">
<circle cx="60.9600" cy="70.9600" r="0.1750" /> 
</g>
<g style="fill:#FFFFFF; fill-opacity:1.0000; 
stroke:#FFFFFF; stroke-width:0.0212; stroke-opacity:1; 
stroke-linecap:round; stroke-linejoin:round;">
</g>
<g style="fill:#FFFFFF; fill-opacity:1.0000; 
stroke:#FFFFFF; stroke-width:0.0000; stroke-opacity:1; 
stroke-linecap:round; stroke-linejoin:round;">
<circle cx="60.9600" cy="62.6600" r="0.1750" /> 
</g>
<g style="fill:#FFFFFF; fill-opacity:1.0000; 
stroke:#FFFFFF; stroke-width:0.0212; stroke-opacity:1; 
stroke-linecap:round; stroke-linejoin:round;">
</g>
<g style="fill:#FFFFFF; fill-opacity:1.0000; 
stroke:#FFFFFF; stroke-width:0.0000; stroke-opacity:1; 
stroke-linecap:round; stroke-linejoin:round;">
<circle cx="60.9600" cy="100.2000" r="0.1750" /> 
</g>
<g style="fill:#FFFFFF; fill-opacity:1.0000; 
stroke:#FFFFFF; stroke-width:0.0212; stroke-opacity:1; 
stroke-linecap:round; stroke-linejoin:round;">
</g>
<g style="fill:#FFFFFF; fill-opacity:1.0000; 
stroke:#FFFFFF; stroke-width:0.0000; stroke-opacity:1; 
stroke-linecap:round; stroke-linejoin:round;">
<circle cx="60.9600" cy="111.6000" r="0.1750" /> 
</g>
<g style="fill:#FFFFFF; fill-opacity:1.0000; 
stroke:#FFFFFF; stroke-width:0.0212; stroke-opacity:1; 
stroke-linecap:round; stroke-linejoin:round;">
</g>
<g style="fill:#FFFFFF; fill-opacity:1.0000; 
stroke:#FFFFFF; stroke-width:0.0000; stroke-opacity:1; 
stroke-linecap:round; stroke-linejoin:round;">
<circle cx="60.9600" cy="103.3000" r="0.1750" /> 
</g>
<g style="fill:#FFFFFF; fill-opacity:1.0000; 
stroke:#FFFFFF; stroke-width:0.0212; stroke-opacity:1; 
stroke-linecap:round; stroke-linejoin:round;">
</g>
<g style="fill:#FFFFFF; fill-opacity:1.0000; 
stroke:#FFFFFF; stroke-width:0.0000; stroke-opacity:1; 
stroke-linecap:round; stroke-linejoin:round;">
<circle cx="60.9600" cy="140.8400" r="0.1750" /> 
</g>
<g style="fill:#FFFFFF; fill-opacity:1.0000; 
stroke:#FFFFFF; stroke-width:0.0212; stroke-opacity:1; 
stroke-linecap:round; stroke-linejoin:round;">
</g>
<g style="fill:#FFFFFF; fill-opacity:1.0000; 
stroke:#FFFFFF; stroke-width:0.0000; stroke-opacity:1; 
stroke-linecap:round; stroke-linejoin:round;">
<circle cx="60.9600" cy="152.2400" r="0.1750" /> 
</g>
<g style="fill:#FFFFFF; fill-opacity:1.0000; 
stroke:#FFFFFF; stroke-width:0.0212; stroke-opacity:1; 
stroke-linecap:round; stroke-linejoin:round;">
</g>
<g style="fill:#FFFFFF; fill-opacity:1.0000; 
stroke:#FFFFFF; stroke-width:0.0000; stroke-opacity:1; 
stroke-linecap:round; stroke-linejoin:round;">
<circle cx="60.9600" cy="143.9400" r="0.1750" /> 
</g>
<g style="fill:#FFFFFF; fill-opacity:1.0000; 
stroke:#FFFFFF; stroke-width:0.0212; stroke-opacity:1; 
stroke-linecap:round; stroke-linejoin:round;">
</g>
<g style="fill:#FFFFFF; fill-opacity:1.0000; 
stroke:#FFFFFF; stroke-width:0.0000; stroke-opacity:1; 
stroke-linecap:round; stroke-linejoin:round;">
<circle cx="81.2800" cy="59.5600" r="0.1750" /> 
</g>
<g style="fill:#FFFFFF; fill-opacity:1.0000; 
stroke:#FFFFFF; stroke-width:0.0212; stroke-opacity:1; 
stroke-linecap:round; stroke-linejoin:round;">
</g>
<g style="fill:#FFFFFF; fill-opacity:1.0000; 
stroke:#FFFFFF; stroke-width:0.0000; stroke-opacity:1; 
stroke-linecap:round; stroke-linejoin:round;">
<circle cx="81.2800" cy="70.9600" r="0.1750" /> 
</g>
<g style="fill:#FFFFFF; fill-opacity:1.0000; 
stroke:#FFFFFF; stroke-width:0.0212; stroke-opacity:1; 
stroke-linecap:round; stroke-linejoin:round;">
</g>
<g style="fill:#FFFFFF; fill-opacity:1.0000; 
stroke:#FFFFFF; stroke-width:0.0000; stroke-opacity:1; 
stroke-linecap:round; stroke-linejoin:round;">
<circle cx="81.2800" cy="62.6600" r="0.1750" /> 
</g>
<g style="fill:#FFFFFF; fill-opacity:1.0000; 
stroke:#FFFFFF; stroke-width:0.0212; stroke-opacity:1; 
stroke-linecap:round; stroke-linejoin:round;">
</g>
<g style="fill:#FFFFFF; fill-opacity:1.0000; 
stroke:#FFFFFF; stroke-width:0.0000; stroke-opacity:1; 
stroke-linecap:round; stroke-linejoin:round;">
<circle cx="81.2800" cy="100.3600" r="0.1750" /> 
</g>
<g style="fill:#FFFFFF; fill-opacity:1.0000; 
stroke:#FFFFFF; stroke-width:0.0212; stroke-opacity:1; 
stroke-linecap:round; stroke-linejoin:round;">
</g>
<g style="fill:#FFFFFF; fill-opacity:1.0000; 
stroke:#FFFFFF; stroke-width:0.0000; stroke-opacity:1; 
stroke-linecap:round; stroke-linejoin:round;">
<circle cx="81.2800" cy="111.7600" r="0.1750" /> 
</g>
<g style="fill:#FFFFFF; fill-opacity:1.0000; 
stroke:#FFFFFF; stroke-width:0.0212; stroke-opacity:1; 
stroke-linecap:round; stroke-linejoin:round;">
</g>
<g style="fill:#FFFFFF; fill-opacity:1.0000; 
stroke:#FFFFFF; stroke-width:0.0000; stroke-opacity:1; 
stroke-linecap:round; stroke-linejoin:round;">
<circle cx="81.2800" cy="103.4600" r="0.1750" /> 
</g>
<g style="fill:#FFFFFF; fill-opacity:1.0000; 
stroke:#FFFFFF; stroke-width:0.0212; stroke-opacity:1; 
stroke-linecap:round; stroke-linejoin:round;">
</g>
<g style="fill:#FFFFFF; fill-opacity:1.0000; 
stroke:#FFFFFF; stroke-width:0.0000; stroke-opacity:1; 
stroke-linecap:round; stroke-linejoin:round;">
<circle cx="81.2800" cy="140.8400" r="0.1750" /> 
</g>
<g style="fill:#FFFFFF; fill-opacity:1.0000; 
stroke:#FFFFFF; stroke-width:0.0212; stroke-opacity:1; 
stroke-linecap:round; stroke-linejoin:round;">
</g>
<g style="fill:#FFFFFF; fill-opacity:1.0000; 
stroke:#FFFFFF; stroke-width:0.0000; stroke-opacity:1; 
stroke-linecap:round; stroke-linejoin:round;">
<circle cx="81.2800" cy="152.2400" r="0.1750" /> 
</g>
<g style="fill:#FFFFFF; fill-opacity:1.0000; 
stroke:#FFFFFF; stroke-width:0.0212; stroke-opacity:1; 
stroke-linecap:round; stroke-linejoin:round;">
</g>
<g style="fill:#FFFFFF; fill-opacity:1.0000; 
stroke:#FFFFFF; stroke-width:0.0000; stroke-opacity:1; 
stroke-linecap:round; stroke-linejoin:round;">
<circle cx="81.2800" cy="143.9400" r="0.1750" /> 
</g>
<g style="fill:#FFFFFF; fill-opacity:1.0000; 
stroke:#FFFFFF; stroke-width:0.0212; stroke-opacity:1; 
stroke-linecap:round; stroke-linejoin:round;">
</g>
<g style="fill:#FFFFFF; fill-opacity:1.0000; 
stroke:#FFFFFF; stroke-width:0.0000; stroke-opacity:1; 
stroke-linecap:round; stroke-linejoin:round;">
<circle cx="53.8480" cy="146.3040" r="0.1750" /> 
</g>
<g style="fill:#FFFFFF; fill-opacity:1.0000; 
stroke:#FFFFFF; stroke-width:0.0212; stroke-opacity:1; 
stroke-linecap:round; stroke-linejoin:round;">
</g>
<g style="fill:#FFFFFF; fill-opacity:1.0000; 
stroke:#FFFFFF; stroke-width:0.0000; stroke-opacity:1; 
stroke-linecap:round; stroke-linejoin:round;">
<circle cx="53.8480" cy="151.3840" r="0.1750" /> 
</g>
<g style="fill:#FFFFFF; fill-opacity:1.0000; 
stroke:#FFFFFF; stroke-width:0.0212; stroke-opacity:1; 
stroke-linecap:round; stroke-linejoin:round;">
</g>
<g style="fill:#FFFFFF; fill-opacity:1.0000; 
stroke:#FFFFFF; stroke-width:0.0000; stroke-opacity:1; 
stroke-linecap:round; stroke-linejoin:round;">
<circle cx="73.1520" cy="146.8120" r="0.1750" /> 
</g>
<g style="fill:#FFFFFF; fill-opacity:1.0000; 
stroke:#FFFFFF; stroke-width:0.0212; stroke-opacity:1; 
stroke-linecap:round; stroke-linejoin:round;">
</g>
<g style="fill:#FFFFFF; fill-opacity:1.0000; 
stroke:#FFFFFF; stroke-width:0.0000; stroke-opacity:1; 
stroke-linecap:round; stroke-linejoin:round;">
<circle cx="73.1520" cy="151.8920" r="0.1750" /> 
</g>
<g style="fill:#FFFFFF; fill-opacity:1.0000; 
stroke:#FFFFFF; stroke-width:0.0212; stroke-opacity:1; 
stroke-linecap:round; stroke-linejoin:round;">
</g>
<g style="fill:#FFFFFF; fill-opacity:1.0000; 
stroke:#FFFFFF; stroke-width:1.1000; stroke-opacity:1; 
stroke-linecap:round; stroke-linejoin:round;">
</g>
<g style="fill:#FFFFFF; fill-opacity:0.0; 
stroke:#FFFFFF; stroke-width:1.1000; stroke-opacity:1; 
stroke-linecap:round; stroke-linejoin:round;">
<path d="M56.1200 86.7100
L56.1200 86.0100
" />
<path d="M65.7200 86.7100
L65.7200 86.0100
" />
</g>
<g style="fill:#FFFFFF; fill-opacity:1.0000; 
stroke:#FFFFFF; stroke-width:0.0000; stroke-opacity:1; 
stroke-linecap:round; stroke-linejoin:round;">
<circle cx="58.4200" cy="93.8600" r="0.1750" /> 
</g>
<g style="fill:#FFFFFF; fill-opacity:1.0000; 
stroke:#FFFFFF; stroke-width:0.0212; stroke-opacity:1; 
stroke-linecap:round; stroke-linejoin:round;">
</g>
<g style="fill:#FFFFFF; fill-opacity:1.0000; 
stroke:#FFFFFF; stroke-width:0.0000; stroke-opacity:1; 
stroke-linecap:round; stroke-linejoin:round;">
<circle cx="60.9200" cy="93.8600" r="0.1750" /> 
</g>
<g style="fill:#FFFFFF; fill-opacity:1.0000; 
stroke:#FFFFFF; stroke-width:0.0212; stroke-opacity:1; 
stroke-linecap:round; stroke-linejoin:round;">
</g>
<g style="fill:#FFFFFF; fill-opacity:1.0000; 
stroke:#FFFFFF; stroke-width:0.0000; stroke-opacity:1; 
stroke-linecap:round; stroke-linejoin:round;">
<circle cx="63.4200" cy="93.8600" r="0.1750" /> 
</g>
<g style="fill:#FFFFFF; fill-opacity:1.0000; 
stroke:#FFFFFF; stroke-width:0.0212; stroke-opacity:1; 
stroke-linecap:round; stroke-linejoin:round;">
</g>
<g style="fill:#FFFFFF; fill-opacity:1.0000; 
stroke:#FFFFFF; stroke-width:1.1000; stroke-opacity:1; 
stroke-linecap:round; stroke-linejoin:round;">
</g>
<g style="fill:#FFFFFF; fill-opacity:0.0; 
stroke:#FFFFFF; stroke-width:1.1000; stroke-opacity:1; 
stroke-linecap:round; stroke-linejoin:round;">
<path d="M56.1200 127.3500
L56.1200 126.6500
" />
<path d="M65.7200 127.3500
L65.7200 126.6500
" />
</g>
<g style="fill:#FFFFFF; fill-opacity:1.0000; 
stroke:#FFFFFF; stroke-width:0.0000; stroke-opacity:1; 
stroke-linecap:round; stroke-linejoin:round;">
<circle cx="58.4200" cy="134.5000" r="0.1750" /> 
</g>
<g style="fill:#FFFFFF; fill-opacity:1.0000; 
stroke:#FFFFFF; stroke-width:0.0212; stroke-opacity:1; 
stroke-linecap:round; stroke-linejoin:round;">
</g>
<g style="fill:#FFFFFF; fill-opacity:1.0000; 
stroke:#FFFFFF; stroke-width:0.0000; stroke-opacity:1; 
stroke-linecap:round; stroke-linejoin:round;">
<circle cx="60.9200" cy="134.5000" r="0.1750" /> 
</g>
<g style="fill:#FFFFFF; fill-opacity:1.0000; 
stroke:#FFFFFF; stroke-width:0.0212; stroke-opacity:1; 
stroke-linecap:round; stroke-linejoin:round;">
</g>
<g style="fill:#FFFFFF; fill-opacity:1.0000; 
stroke:#FFFFFF; stroke-width:0.0000; stroke-opacity:1; 
stroke-linecap:round; stroke-linejoin:round;">
<circle cx="63.4200" cy="134.5000" r="0.1750" /> 
</g>
<g style="fill:#FFFFFF; fill-opacity:1.0000; 
stroke:#FFFFFF; stroke-width:0.0212; stroke-opacity:1; 
stroke-linecap:round; stroke-linejoin:round;">
</g>
<g style="fill:#FFFFFF; fill-opacity:1.0000; 
stroke:#FFFFFF; stroke-width:1.1000; stroke-opacity:1; 
stroke-linecap:round; stroke-linejoin:round;">
</g>
<g style="fill:#FFFFFF; fill-opacity:0.0; 
stroke:#FFFFFF; stroke-width:1.1000; stroke-opacity:1; 
stroke-linecap:round; stroke-linejoin:round;">
<path d="M76.4400 86.7100
L76.4400 86.0100
" />
<path d="M86.0400 86.7100
L86.0400 86.0100
" />
</g>
<g style="fill:#FFFFFF; fill-opacity:1.0000; 
stroke:#FFFFFF; stroke-width:0.0000; stroke-opacity:1; 
stroke-linecap:round; stroke-linejoin:round;">
<circle cx="78.7400" cy="93.8600" r="0.1750" /> 
</g>
<g style="fill:#FFFFFF; fill-opacity:1.0000; 
stroke:#FFFFFF; stroke-width:0.0212; stroke-opacity:1; 
stroke-linecap:round; stroke-linejoin:round;">
</g>
<g style="fill:#FFFFFF; fill-opacity:1.0000; 
stroke:#FFFFFF; stroke-width:0.0000; stroke-opacity:1; 
stroke-linecap:round; stroke-linejoin:round;">
<circle cx="81.2400" cy="93.8600" r="0.1750" /> 
</g>
<g style="fill:#FFFFFF; fill-opacity:1.0000; 
stroke:#FFFFFF; stroke-width:0.0212; stroke-opacity:1; 
stroke-linecap:round; stroke-linejoin:round;">
</g>
<g style="fill:#FFFFFF; fill-opacity:1.0000; 
stroke:#FFFFFF; stroke-width:0.0000; stroke-opacity:1; 
stroke-linecap:round; stroke-linejoin:round;">
<circle cx="83.7400" cy="93.8600" r="0.1750" /> 
</g>
<g style="fill:#FFFFFF; fill-opacity:1.0000; 
stroke:#FFFFFF; stroke-width:0.0212; stroke-opacity:1; 
stroke-linecap:round; stroke-linejoin:round;">
</g>
<g style="fill:#FFFFFF; fill-opacity:1.0000; 
stroke:#FFFFFF; stroke-width:1.1000; stroke-opacity:1; 
stroke-linecap:round; stroke-linejoin:round;">
</g>
<g style="fill:#FFFFFF; fill-opacity:0.0; 
stroke:#FFFFFF; stroke-width:1.1000; stroke-opacity:1; 
stroke-linecap:round; stroke-linejoin:round;">
<path d="M76.4400 127.3500
L76.4400 126.6500
" />
<path d="M86.0400 127.3500
L86.0400 126.6500
" />
</g>
<g style="fill:#FFFFFF; fill-opacity:1.0000; 
stroke:#FFFFFF; stroke-width:0.0000; stroke-opacity:1; 
stroke-linecap:round; stroke-linejoin:round;">
<circle cx="78.7400" cy="134.5000" r="0.1750" /> 
</g>
<g style="fill:#FFFFFF; fill-opacity:1.0000; 
stroke:#FFFFFF; stroke-width:0.0212; stroke-opacity:1; 
stroke-linecap:round; stroke-linejoin:round;">
</g>
<g style="fill:#FFFFFF; fill-opacity:1.0000; 
stroke:#FFFFFF; stroke-width:0.0000; stroke-opacity:1; 
stroke-linecap:round; stroke-linejoin:round;">
<circle cx="81.2400" cy="134.5000" r="0.1750" /> 
</g>
<g style="fill:#FFFFFF; fill-opacity:1.0000; 
stroke:#FFFFFF; stroke-width:0.0212; stroke-opacity:1; 
stroke-linecap:round; stroke-linejoin:round;">
</g>
<g style="fill:#FFFFFF; fill-opacity:1.0000; 
stroke:#FFFFFF; stroke-width:0.0000; stroke-opacity:1; 
stroke-linecap:round; stroke-linejoin:round;">
<circle cx="83.7400" cy="134.5000" r="0.1750" /> 
</g>
<g style="fill:#FFFFFF; fill-opacity:1.0000; 
stroke:#FFFFFF; stroke-width:0.0212; stroke-opacity:1; 
stroke-linecap:round; stroke-linejoin:round;">
</g>
<g style="fill:#FFFFFF; fill-opacity:1.0000; 
stroke:#FFFFFF; stroke-width:0.0000; stroke-opacity:1; 
stroke-linecap:round; stroke-linejoin:round;">
<circle cx="88.9000" cy="114.3000" r="0.1750" /> 
</g>
<g style="fill:#FFFFFF; fill-opacity:1.0000; 
stroke:#FFFFFF; stroke-width:0.0212; stroke-opacity:1; 
stroke-linecap:round; stroke-linejoin:round;">
</g>
<g style="fill:#FFFFFF; fill-opacity:1.0000; 
stroke:#FFFFFF; stroke-width:0.0000; stroke-opacity:1; 
stroke-linecap:round; stroke-linejoin:round;">
<circle cx="88.9000" cy="116.8400" r="0.1750" /> 
</g>
<g style="fill:#FFFFFF; fill-opacity:1.0000; 
stroke:#FFFFFF; stroke-width:0.0212; stroke-opacity:1; 
stroke-linecap:round; stroke-linejoin:round;">
</g>
<g style="fill:#FFFFFF; fill-opacity:1.0000; 
stroke:#FFFFFF; stroke-width:0.0000; stroke-opacity:1; 
stroke-linecap:round; stroke-linejoin:round;">
<circle cx="88.9000" cy="119.3800" r="0.1750" /> 
</g>
<g style="fill:#FFFFFF; fill-opacity:1.0000; 
stroke:#FFFFFF; stroke-width:0.0212; stroke-opacity:1; 
stroke-linecap:round; stroke-linejoin:round;">
</g>
<g style="fill:#FFFFFF; fill-opacity:1.0000; 
stroke:#FFFFFF; stroke-width:0.0000; stroke-opacity:1; 
stroke-linecap:round; stroke-linejoin:round;">
<circle cx="52.8700" cy="90.0000" r="0.1750" /> 
</g>
<g style="fill:#FFFFFF; fill-opacity:1.0000; 
stroke:#FFFFFF; stroke-width:0.0212; stroke-opacity:1; 
stroke-linecap:round; stroke-linejoin:round;">
</g>
<g style="fill:#FFFFFF; fill-opacity:1.0000; 
stroke:#FFFFFF; stroke-width:0.0000; stroke-opacity:1; 
stroke-linecap:round; stroke-linejoin:round;">
<circle cx="52.8700" cy="92.5400" r="0.1750" /> 
</g>
<g style="fill:#FFFFFF; fill-opacity:1.0000; 
stroke:#FFFFFF; stroke-width:0.0212; stroke-opacity:1; 
stroke-linecap:round; stroke-linejoin:round;">
</g>
<g style="fill:#FFFFFF; fill-opacity:1.0000; 
stroke:#FFFFFF; stroke-width:0.0000; stroke-opacity:1; 
stroke-linecap:round; stroke-linejoin:round;">
<circle cx="52.8700" cy="95.0800" r="0.1750" /> 
</g>
<g style="fill:#FFFFFF; fill-opacity:1.0000; 
stroke:#FFFFFF; stroke-width:0.0212; stroke-opacity:1; 
stroke-linecap:round; stroke-linejoin:round;">
</g>
<g style="fill:#FFFFFF; fill-opacity:1.0000; 
stroke:#FFFFFF; stroke-width:0.0000; stroke-opacity:1; 
stroke-linecap:round; stroke-linejoin:round;">
<circle cx="52.8700" cy="97.6200" r="0.1750" /> 
</g>
<g style="fill:#FFFFFF; fill-opacity:1.0000; 
stroke:#FFFFFF; stroke-width:0.0212; stroke-opacity:1; 
stroke-linecap:round; stroke-linejoin:round;">
</g>
<g style="fill:#FFFFFF; fill-opacity:1.0000; 
stroke:#FFFFFF; stroke-width:0.0000; stroke-opacity:1; 
stroke-linecap:round; stroke-linejoin:round;">
<circle cx="52.8700" cy="100.1600" r="0.1750" /> 
</g>
<g style="fill:#FFFFFF; fill-opacity:1.0000; 
stroke:#FFFFFF; stroke-width:0.0212; stroke-opacity:1; 
stroke-linecap:round; stroke-linejoin:round;">
</g>
<g style="fill:#000000; fill-opacity:1.0000; 
stroke:#000000; stroke-width:0.0212; stroke-opacity:1; 
stroke-linecap:round; stroke-linejoin:round;">
</g> 
</svg>
