<?xml version="1.0" standalone="no"?>
 <!DOCTYPE svg PUBLIC "-//W3C//DTD SVG 1.1//EN" 
 "http://www.w3.org/Graphics/SVG/1.1/DTD/svg11.dtd"> 
<svg
  xmlns:svg="http://www.w3.org/2000/svg"
  xmlns="http://www.w3.org/2000/svg"
  xmlns:xlink="http://www.w3.org/1999/xlink"
  version="1.1"
  width="297.0022mm" height="210.0072mm" viewBox="0.0000 0.0000 297.0022 210.0072">
<title>SVG Image created as panel-B_Mask.svg date 2023/11/06 21:18:04 </title>
  <desc>Image generated by PCBNEW </desc>
<g style="fill:#000000; fill-opacity:1.0000;stroke:#000000; stroke-opacity:1.0000;
stroke-linecap:round; stroke-linejoin:round;"
 transform="translate(0 0) scale(1 1)">
</g>
<g style="fill:#000000; fill-opacity:0.0; 
stroke:#000000; stroke-width:0.0000; stroke-opacity:1; 
stroke-linecap:round; stroke-linejoin:round;">
</g>
<g style="fill:#000000; fill-opacity:0.0; 
stroke:#000000; stroke-width:0.1000; stroke-opacity:1; 
stroke-linecap:round; stroke-linejoin:round;">
</g>
<g style="fill:#000000; fill-opacity:1.0000; 
stroke:#000000; stroke-width:0.1000; stroke-opacity:1; 
stroke-linecap:round; stroke-linejoin:round;">
<path style="fill:#000000; fill-opacity:1.0000; 
stroke:#000000; stroke-width:0.1000; stroke-opacity:1; 
stroke-linecap:round; stroke-linejoin:round;fill-rule:evenodd;"
d="M 84.8360,169.6720
77.7240,169.6720
77.7240,164.0840
84.8360,164.0840
Z" /> 
<path style="fill:#000000; fill-opacity:1.0000; 
stroke:#000000; stroke-width:0.1000; stroke-opacity:1; 
stroke-linecap:round; stroke-linejoin:round;fill-rule:evenodd;"
d="M 73.9140,119.3800
67.5640,119.3800
67.5640,114.8080
73.9140,114.8080
Z" /> 
<path style="fill:#000000; fill-opacity:1.0000; 
stroke:#000000; stroke-width:0.1000; stroke-opacity:1; 
stroke-linecap:round; stroke-linejoin:round;fill-rule:evenodd;"
d="M 73.9140,99.0600
67.5640,99.0600
67.5640,93.9800
73.9140,93.9800
Z" /> 
<path style="fill:#000000; fill-opacity:1.0000; 
stroke:#000000; stroke-width:0.1000; stroke-opacity:1; 
stroke-linecap:round; stroke-linejoin:round;fill-rule:evenodd;"
d="M 73.9140,78.7400
67.5640,78.7400
67.5640,73.6600
73.9140,73.6600
Z" /> 
<path style="fill:#000000; fill-opacity:1.0000; 
stroke:#000000; stroke-width:0.1000; stroke-opacity:1; 
stroke-linecap:round; stroke-linejoin:round;fill-rule:evenodd;"
d="M 73.9140,139.7000
67.5640,139.7000
67.5640,134.6200
73.9140,134.6200
Z" /> 
</g>
<g style="fill:#000000; fill-opacity:1.0000; 
stroke:#000000; stroke-width:0.2500; stroke-opacity:1; 
stroke-linecap:round; stroke-linejoin:round;">
</g>
<g style="fill:#000000; fill-opacity:0.0; 
stroke:#000000; stroke-width:0.2500; stroke-opacity:1; 
stroke-linecap:round; stroke-linejoin:round;">
<text x="81.2800" y="167.6240"
textLength="3.8033" font-size="1.8667" lengthAdjust="spacingAndGlyphs"
text-anchor="middle" opacity="0">out</text>
<g class="stroked-text"><desc>out</desc>
<path d="M80.1467 167.5362
L80.0133 167.4410
" />
<path d="M80.0133 167.4410
L79.9467 167.3458
" />
<path d="M79.9467 167.3458
L79.8800 167.1553
" />
<path d="M79.8800 167.1553
L79.8800 166.5839
" />
<path d="M79.8800 166.5839
L79.9467 166.3934
" />
<path d="M79.9467 166.3934
L80.0133 166.2981
" />
<path d="M80.0133 166.2981
L80.1467 166.2029
" />
<path d="M80.1467 166.2029
L80.3467 166.2029
" />
<path d="M80.3467 166.2029
L80.4800 166.2981
" />
<path d="M80.4800 166.2981
L80.5467 166.3934
" />
<path d="M80.5467 166.3934
L80.6133 166.5839
" />
<path d="M80.6133 166.5839
L80.6133 167.1553
" />
<path d="M80.6133 167.1553
L80.5467 167.3458
" />
<path d="M80.5467 167.3458
L80.4800 167.4410
" />
<path d="M80.4800 167.4410
L80.3467 167.5362
" />
<path d="M80.3467 167.5362
L80.1467 167.5362
" />
<path d="M81.8133 166.2029
L81.8133 167.5362
" />
<path d="M81.2133 166.2029
L81.2133 167.2505
" />
<path d="M81.2133 167.2505
L81.2800 167.4410
" />
<path d="M81.2800 167.4410
L81.4133 167.5362
" />
<path d="M81.4133 167.5362
L81.6133 167.5362
" />
<path d="M81.6133 167.5362
L81.7467 167.4410
" />
<path d="M81.7467 167.4410
L81.8133 167.3458
" />
<path d="M82.2800 166.2029
L82.8133 166.2029
" />
<path d="M82.4800 165.5362
L82.4800 167.2505
" />
<path d="M82.4800 167.2505
L82.5467 167.4410
" />
<path d="M82.5467 167.4410
L82.6800 167.5362
" />
<path d="M82.6800 167.5362
L82.8133 167.5362
" />
</g><text x="71.1200" y="77.2000"
textLength="3.2033" font-size="1.8667" lengthAdjust="spacingAndGlyphs"
text-anchor="middle" opacity="0">#1</text>
<g class="stroked-text"><desc>#1</desc>
<path d="M70.0200 75.7789
L71.0200 75.7789
" />
<path d="M70.4200 74.9218
L70.0200 77.4932
" />
<path d="M70.8867 76.6360
L69.8867 76.6360
" />
<path d="M70.4867 77.4932
L70.8867 74.9218
" />
<path d="M72.2200 77.1122
L71.4200 77.1122
" />
<path d="M71.8200 77.1122
L71.8200 75.1122
" />
<path d="M71.8200 75.1122
L71.6867 75.3980
" />
<path d="M71.6867 75.3980
L71.5533 75.5884
" />
<path d="M71.5533 75.5884
L71.4200 75.6837
" />
</g><text x="71.1200" y="138.1600"
textLength="3.2033" font-size="1.8667" lengthAdjust="spacingAndGlyphs"
text-anchor="middle" opacity="0">#4</text>
<g class="stroked-text"><desc>#4</desc>
<path d="M70.0200 136.7389
L71.0200 136.7389
" />
<path d="M70.4200 135.8818
L70.0200 138.4532
" />
<path d="M70.8867 137.5960
L69.8867 137.5960
" />
<path d="M70.4867 138.4532
L70.8867 135.8818
" />
<path d="M72.0867 136.7389
L72.0867 138.0722
" />
<path d="M71.7533 135.9770
L71.4200 137.4056
" />
<path d="M71.4200 137.4056
L72.2867 137.4056
" />
</g><text x="71.1200" y="117.8400"
textLength="3.2033" font-size="1.8667" lengthAdjust="spacingAndGlyphs"
text-anchor="middle" opacity="0">#3</text>
<g class="stroked-text"><desc>#3</desc>
<path d="M70.0200 116.4189
L71.0200 116.4189
" />
<path d="M70.4200 115.5618
L70.0200 118.1332
" />
<path d="M70.8867 117.2760
L69.8867 117.2760
" />
<path d="M70.4867 118.1332
L70.8867 115.5618
" />
<path d="M71.3533 115.7522
L72.2200 115.7522
" />
<path d="M72.2200 115.7522
L71.7533 116.5141
" />
<path d="M71.7533 116.5141
L71.9533 116.5141
" />
<path d="M71.9533 116.5141
L72.0867 116.6094
" />
<path d="M72.0867 116.6094
L72.1533 116.7046
" />
<path d="M72.1533 116.7046
L72.2200 116.8951
" />
<path d="M72.2200 116.8951
L72.2200 117.3713
" />
<path d="M72.2200 117.3713
L72.1533 117.5618
" />
<path d="M72.1533 117.5618
L72.0867 117.6570
" />
<path d="M72.0867 117.6570
L71.9533 117.7522
" />
<path d="M71.9533 117.7522
L71.5533 117.7522
" />
<path d="M71.5533 117.7522
L71.4200 117.6570
" />
<path d="M71.4200 117.6570
L71.3533 117.5618
" />
</g><text x="71.1200" y="97.5200"
textLength="3.2033" font-size="1.8667" lengthAdjust="spacingAndGlyphs"
text-anchor="middle" opacity="0">#2</text>
<g class="stroked-text"><desc>#2</desc>
<path d="M70.0200 96.0989
L71.0200 96.0989
" />
<path d="M70.4200 95.2418
L70.0200 97.8132
" />
<path d="M70.8867 96.9560
L69.8867 96.9560
" />
<path d="M70.4867 97.8132
L70.8867 95.2418
" />
<path d="M71.4200 95.6227
L71.4867 95.5275
" />
<path d="M71.4867 95.5275
L71.6200 95.4322
" />
<path d="M71.6200 95.4322
L71.9533 95.4322
" />
<path d="M71.9533 95.4322
L72.0867 95.5275
" />
<path d="M72.0867 95.5275
L72.1533 95.6227
" />
<path d="M72.1533 95.6227
L72.2200 95.8132
" />
<path d="M72.2200 95.8132
L72.2200 96.0037
" />
<path d="M72.2200 96.0037
L72.1533 96.2894
" />
<path d="M72.1533 96.2894
L71.3533 97.4322
" />
<path d="M71.3533 97.4322
L72.2200 97.4322
" />
</g><g >
</g>
<g style="fill:#000000; fill-opacity:1.0000; 
stroke:#000000; stroke-width:0.0000; stroke-opacity:1; 
stroke-linecap:round; stroke-linejoin:round;">
<circle cx="58.3000" cy="53.8000" r="2.5000" /> 
</g>
<g style="fill:#000000; fill-opacity:1.0000; 
stroke:#000000; stroke-width:0.0212; stroke-opacity:1; 
stroke-linecap:round; stroke-linejoin:round;">
</g>
<g style="fill:#000000; fill-opacity:1.0000; 
stroke:#000000; stroke-width:0.0000; stroke-opacity:1; 
stroke-linecap:round; stroke-linejoin:round;">
<circle cx="58.3000" cy="53.8000" r="1.8000" /> 
</g>
<g style="fill:#000000; fill-opacity:1.0000; 
stroke:#000000; stroke-width:0.0212; stroke-opacity:1; 
stroke-linecap:round; stroke-linejoin:round;">
</g>
<g >
</g>
<g style="fill:#000000; fill-opacity:1.0000; 
stroke:#000000; stroke-width:0.0212; stroke-opacity:1; 
stroke-linecap:round; stroke-linejoin:round;">
</g>
<g style="fill:#000000; fill-opacity:1.0000; 
stroke:#000000; stroke-width:0.0000; stroke-opacity:1; 
stroke-linecap:round; stroke-linejoin:round;">
<circle cx="58.3000" cy="176.3000" r="2.5000" /> 
</g>
<g style="fill:#000000; fill-opacity:1.0000; 
stroke:#000000; stroke-width:0.0212; stroke-opacity:1; 
stroke-linecap:round; stroke-linejoin:round;">
</g>
<g style="fill:#000000; fill-opacity:1.0000; 
stroke:#000000; stroke-width:0.0000; stroke-opacity:1; 
stroke-linecap:round; stroke-linejoin:round;">
<circle cx="58.3000" cy="176.3000" r="1.8000" /> 
</g>
<g style="fill:#000000; fill-opacity:1.0000; 
stroke:#000000; stroke-width:0.0212; stroke-opacity:1; 
stroke-linecap:round; stroke-linejoin:round;">
</g>
<g >
</g>
<g style="fill:#000000; fill-opacity:1.0000; 
stroke:#000000; stroke-width:0.0212; stroke-opacity:1; 
stroke-linecap:round; stroke-linejoin:round;">
</g>
<g style="fill:#000000; fill-opacity:1.0000; 
stroke:#000000; stroke-width:0.0000; stroke-opacity:1; 
stroke-linecap:round; stroke-linejoin:round;">
<circle cx="60.9600" cy="71.1200" r="3.2000" /> 
</g>
<g style="fill:#000000; fill-opacity:1.0000; 
stroke:#000000; stroke-width:0.0212; stroke-opacity:1; 
stroke-linecap:round; stroke-linejoin:round;">
</g>
<g >
</g>
<g style="fill:#000000; fill-opacity:1.0000; 
stroke:#000000; stroke-width:0.0212; stroke-opacity:1; 
stroke-linecap:round; stroke-linejoin:round;">
</g>
<g style="fill:#000000; fill-opacity:1.0000; 
stroke:#000000; stroke-width:0.0000; stroke-opacity:1; 
stroke-linecap:round; stroke-linejoin:round;">
<circle cx="60.9600" cy="81.2800" r="3.2000" /> 
</g>
<g style="fill:#000000; fill-opacity:1.0000; 
stroke:#000000; stroke-width:0.0212; stroke-opacity:1; 
stroke-linecap:round; stroke-linejoin:round;">
</g>
<g >
</g>
<g style="fill:#000000; fill-opacity:1.0000; 
stroke:#000000; stroke-width:0.0212; stroke-opacity:1; 
stroke-linecap:round; stroke-linejoin:round;">
</g>
<g style="fill:#000000; fill-opacity:1.0000; 
stroke:#000000; stroke-width:0.0000; stroke-opacity:1; 
stroke-linecap:round; stroke-linejoin:round;">
<circle cx="60.9600" cy="91.4400" r="3.2000" /> 
</g>
<g style="fill:#000000; fill-opacity:1.0000; 
stroke:#000000; stroke-width:0.0212; stroke-opacity:1; 
stroke-linecap:round; stroke-linejoin:round;">
</g>
<g >
</g>
<g style="fill:#000000; fill-opacity:1.0000; 
stroke:#000000; stroke-width:0.0212; stroke-opacity:1; 
stroke-linecap:round; stroke-linejoin:round;">
</g>
<g style="fill:#000000; fill-opacity:1.0000; 
stroke:#000000; stroke-width:0.0000; stroke-opacity:1; 
stroke-linecap:round; stroke-linejoin:round;">
<circle cx="60.9600" cy="100.8900" r="3.2000" /> 
</g>
<g style="fill:#000000; fill-opacity:1.0000; 
stroke:#000000; stroke-width:0.0212; stroke-opacity:1; 
stroke-linecap:round; stroke-linejoin:round;">
</g>
<g >
</g>
<g style="fill:#000000; fill-opacity:1.0000; 
stroke:#000000; stroke-width:0.0212; stroke-opacity:1; 
stroke-linecap:round; stroke-linejoin:round;">
</g>
<g style="fill:#000000; fill-opacity:1.0000; 
stroke:#000000; stroke-width:0.0000; stroke-opacity:1; 
stroke-linecap:round; stroke-linejoin:round;">
<circle cx="60.9600" cy="111.7600" r="3.2000" /> 
</g>
<g style="fill:#000000; fill-opacity:1.0000; 
stroke:#000000; stroke-width:0.0212; stroke-opacity:1; 
stroke-linecap:round; stroke-linejoin:round;">
</g>
<g >
</g>
<g style="fill:#000000; fill-opacity:1.0000; 
stroke:#000000; stroke-width:0.0212; stroke-opacity:1; 
stroke-linecap:round; stroke-linejoin:round;">
</g>
<g style="fill:#000000; fill-opacity:1.0000; 
stroke:#000000; stroke-width:0.0000; stroke-opacity:1; 
stroke-linecap:round; stroke-linejoin:round;">
<circle cx="60.9600" cy="121.9200" r="3.2000" /> 
</g>
<g style="fill:#000000; fill-opacity:1.0000; 
stroke:#000000; stroke-width:0.0212; stroke-opacity:1; 
stroke-linecap:round; stroke-linejoin:round;">
</g>
<g >
</g>
<g style="fill:#000000; fill-opacity:1.0000; 
stroke:#000000; stroke-width:0.0212; stroke-opacity:1; 
stroke-linecap:round; stroke-linejoin:round;">
</g>
<g style="fill:#000000; fill-opacity:1.0000; 
stroke:#000000; stroke-width:0.0000; stroke-opacity:1; 
stroke-linecap:round; stroke-linejoin:round;">
<circle cx="60.9600" cy="132.0800" r="3.2000" /> 
</g>
<g style="fill:#000000; fill-opacity:1.0000; 
stroke:#000000; stroke-width:0.0212; stroke-opacity:1; 
stroke-linecap:round; stroke-linejoin:round;">
</g>
<g >
</g>
<g style="fill:#000000; fill-opacity:1.0000; 
stroke:#000000; stroke-width:0.0212; stroke-opacity:1; 
stroke-linecap:round; stroke-linejoin:round;">
</g>
<g style="fill:#000000; fill-opacity:1.0000; 
stroke:#000000; stroke-width:0.0000; stroke-opacity:1; 
stroke-linecap:round; stroke-linejoin:round;">
<circle cx="60.9600" cy="142.2400" r="3.2000" /> 
</g>
<g style="fill:#000000; fill-opacity:1.0000; 
stroke:#000000; stroke-width:0.0212; stroke-opacity:1; 
stroke-linecap:round; stroke-linejoin:round;">
</g>
<g >
</g>
<g style="fill:#000000; fill-opacity:1.0000; 
stroke:#000000; stroke-width:0.0212; stroke-opacity:1; 
stroke-linecap:round; stroke-linejoin:round;">
</g>
<g style="fill:#000000; fill-opacity:1.0000; 
stroke:#000000; stroke-width:0.0000; stroke-opacity:1; 
stroke-linecap:round; stroke-linejoin:round;">
<circle cx="81.2800" cy="76.2000" r="3.7000" /> 
</g>
<g style="fill:#000000; fill-opacity:1.0000; 
stroke:#000000; stroke-width:0.0212; stroke-opacity:1; 
stroke-linecap:round; stroke-linejoin:round;">
</g>
<g >
</g>
<g style="fill:#000000; fill-opacity:1.0000; 
stroke:#000000; stroke-width:0.0212; stroke-opacity:1; 
stroke-linecap:round; stroke-linejoin:round;">
</g>
<g style="fill:#000000; fill-opacity:1.0000; 
stroke:#000000; stroke-width:0.0000; stroke-opacity:1; 
stroke-linecap:round; stroke-linejoin:round;">
<circle cx="81.2800" cy="96.5200" r="3.7000" /> 
</g>
<g style="fill:#000000; fill-opacity:1.0000; 
stroke:#000000; stroke-width:0.0212; stroke-opacity:1; 
stroke-linecap:round; stroke-linejoin:round;">
</g>
<g >
</g>
<g style="fill:#000000; fill-opacity:1.0000; 
stroke:#000000; stroke-width:0.0212; stroke-opacity:1; 
stroke-linecap:round; stroke-linejoin:round;">
</g>
<g style="fill:#000000; fill-opacity:1.0000; 
stroke:#000000; stroke-width:0.0000; stroke-opacity:1; 
stroke-linecap:round; stroke-linejoin:round;">
<circle cx="81.2800" cy="116.8400" r="3.7000" /> 
</g>
<g style="fill:#000000; fill-opacity:1.0000; 
stroke:#000000; stroke-width:0.0212; stroke-opacity:1; 
stroke-linecap:round; stroke-linejoin:round;">
</g>
<g >
</g>
<g style="fill:#000000; fill-opacity:1.0000; 
stroke:#000000; stroke-width:0.0212; stroke-opacity:1; 
stroke-linecap:round; stroke-linejoin:round;">
</g>
<g style="fill:#000000; fill-opacity:1.0000; 
stroke:#000000; stroke-width:0.0000; stroke-opacity:1; 
stroke-linecap:round; stroke-linejoin:round;">
<circle cx="81.2800" cy="137.1600" r="3.7000" /> 
</g>
<g style="fill:#000000; fill-opacity:1.0000; 
stroke:#000000; stroke-width:0.0212; stroke-opacity:1; 
stroke-linecap:round; stroke-linejoin:round;">
</g>
<g >
</g>
<g style="fill:#000000; fill-opacity:1.0000; 
stroke:#000000; stroke-width:0.0212; stroke-opacity:1; 
stroke-linecap:round; stroke-linejoin:round;">
</g>
<g style="fill:#000000; fill-opacity:1.0000; 
stroke:#000000; stroke-width:0.0000; stroke-opacity:1; 
stroke-linecap:round; stroke-linejoin:round;">
<circle cx="81.2800" cy="157.4800" r="3.2000" /> 
</g>
<g style="fill:#000000; fill-opacity:1.0000; 
stroke:#000000; stroke-width:0.0212; stroke-opacity:1; 
stroke-linecap:round; stroke-linejoin:round;">
</g>
<g >
</g>
<g >
</g>
<g >
</g>
</g> 
</svg>
