<?xml version="1.0" standalone="no"?>
 <!DOCTYPE svg PUBLIC "-//W3C//DTD SVG 1.1//EN" 
 "http://www.w3.org/Graphics/SVG/1.1/DTD/svg11.dtd"> 
<svg
  xmlns:svg="http://www.w3.org/2000/svg"
  xmlns="http://www.w3.org/2000/svg"
  xmlns:xlink="http://www.w3.org/1999/xlink"
  version="1.1"
  width="297.0022mm" height="210.0072mm" viewBox="0.0000 0.0000 297.0022 210.0072">
<title>SVG Image created as mount-F_SilkS.svg date 2023/12/09 10:55:05 </title>
  <desc>Image generated by PCBNEW </desc>
<g style="fill:#000000; fill-opacity:1.0000;stroke:#000000; stroke-opacity:1.0000;
stroke-linecap:round; stroke-linejoin:round;"
 transform="translate(0 0) scale(1 1)">
</g>
<g style="fill:#000000; fill-opacity:0.0; 
stroke:#000000; stroke-width:0.0000; stroke-opacity:1; 
stroke-linecap:round; stroke-linejoin:round;">
</g>
<g style="fill:#F2EDA1; fill-opacity:0.0; 
stroke:#F2EDA1; stroke-width:0.0000; stroke-opacity:1; 
stroke-linecap:round; stroke-linejoin:round;">
</g>
<g style="fill:#F2EDA1; fill-opacity:0.0; 
stroke:#F2EDA1; stroke-width:0.1524; stroke-opacity:1; 
stroke-linecap:round; stroke-linejoin:round;">
<text x="8.2030" y="74.3700"
textLength="3.8929" font-size="1.6087" lengthAdjust="spacingAndGlyphs"
text-anchor="start" opacity="0">SW1</text>
<g class="stroked-text"><desc>SW1</desc>
<path d="M8.5331 74.1570
L8.7054 74.2144
" />
<path d="M8.7054 74.2144
L8.9927 74.2144
" />
<path d="M8.9927 74.2144
L9.1076 74.1570
" />
<path d="M9.1076 74.1570
L9.1650 74.0995
" />
<path d="M9.1650 74.0995
L9.2225 73.9846
" />
<path d="M9.2225 73.9846
L9.2225 73.8697
" />
<path d="M9.2225 73.8697
L9.1650 73.7548
" />
<path d="M9.1650 73.7548
L9.1076 73.6974
" />
<path d="M9.1076 73.6974
L8.9927 73.6399
" />
<path d="M8.9927 73.6399
L8.7629 73.5824
" />
<path d="M8.7629 73.5824
L8.6480 73.5250
" />
<path d="M8.6480 73.5250
L8.5905 73.4675
" />
<path d="M8.5905 73.4675
L8.5331 73.3526
" />
<path d="M8.5331 73.3526
L8.5331 73.2377
" />
<path d="M8.5331 73.2377
L8.5905 73.1228
" />
<path d="M8.5905 73.1228
L8.6480 73.0654
" />
<path d="M8.6480 73.0654
L8.7629 73.0079
" />
<path d="M8.7629 73.0079
L9.0501 73.0079
" />
<path d="M9.0501 73.0079
L9.2225 73.0654
" />
<path d="M9.6247 73.0079
L9.9119 74.2144
" />
<path d="M9.9119 74.2144
L10.1417 73.3526
" />
<path d="M10.1417 73.3526
L10.3715 74.2144
" />
<path d="M10.3715 74.2144
L10.6588 73.0079
" />
<path d="M11.7504 74.2144
L11.0610 74.2144
" />
<path d="M11.4057 74.2144
L11.4057 73.0079
" />
<path d="M11.4057 73.0079
L11.2908 73.1803
" />
<path d="M11.2908 73.1803
L11.1759 73.2952
" />
<path d="M11.1759 73.2952
L11.0610 73.3526
" />
</g><g transform="rotate(-90.000000 5.1550 83.8950)">
<text x="5.1550" y="83.8950"
textLength="6.0186" font-size="1.6087" lengthAdjust="spacingAndGlyphs"
text-anchor="start" opacity="0">Switch</text>
</g>
<g class="stroked-text"><desc>Switch</desc>
<path d="M4.9420 83.5649
L4.9994 83.3926
" />
<path d="M4.9994 83.3926
L4.9994 83.1053
" />
<path d="M4.9994 83.1053
L4.9420 82.9904
" />
<path d="M4.9420 82.9904
L4.8845 82.9330
" />
<path d="M4.8845 82.9330
L4.7696 82.8755
" />
<path d="M4.7696 82.8755
L4.6547 82.8755
" />
<path d="M4.6547 82.8755
L4.5398 82.9330
" />
<path d="M4.5398 82.9330
L4.4823 82.9904
" />
<path d="M4.4823 82.9904
L4.4249 83.1053
" />
<path d="M4.4249 83.1053
L4.3674 83.3351
" />
<path d="M4.3674 83.3351
L4.3100 83.4500
" />
<path d="M4.3100 83.4500
L4.2525 83.5075
" />
<path d="M4.2525 83.5075
L4.1376 83.5649
" />
<path d="M4.1376 83.5649
L4.0227 83.5649
" />
<path d="M4.0227 83.5649
L3.9078 83.5075
" />
<path d="M3.9078 83.5075
L3.8504 83.4500
" />
<path d="M3.8504 83.4500
L3.7929 83.3351
" />
<path d="M3.7929 83.3351
L3.7929 83.0479
" />
<path d="M3.7929 83.0479
L3.8504 82.8755
" />
<path d="M4.1951 82.4733
L4.9994 82.2435
" />
<path d="M4.9994 82.2435
L4.4249 82.0137
" />
<path d="M4.4249 82.0137
L4.9994 81.7839
" />
<path d="M4.9994 81.7839
L4.1951 81.5541
" />
<path d="M4.9994 81.0945
L4.1951 81.0945
" />
<path d="M3.7929 81.0945
L3.8504 81.1519
" />
<path d="M3.8504 81.1519
L3.9078 81.0945
" />
<path d="M3.9078 81.0945
L3.8504 81.0370
" />
<path d="M3.8504 81.0370
L3.7929 81.0945
" />
<path d="M3.7929 81.0945
L3.9078 81.0945
" />
<path d="M4.1951 80.6923
L4.1951 80.2327
" />
<path d="M3.7929 80.5200
L4.8271 80.5200
" />
<path d="M4.8271 80.5200
L4.9420 80.4625
" />
<path d="M4.9420 80.4625
L4.9994 80.3476
" />
<path d="M4.9994 80.3476
L4.9994 80.2327
" />
<path d="M4.9420 79.3135
L4.9994 79.4284
" />
<path d="M4.9994 79.4284
L4.9994 79.6582
" />
<path d="M4.9994 79.6582
L4.9420 79.7731
" />
<path d="M4.9420 79.7731
L4.8845 79.8305
" />
<path d="M4.8845 79.8305
L4.7696 79.8880
" />
<path d="M4.7696 79.8880
L4.4249 79.8880
" />
<path d="M4.4249 79.8880
L4.3100 79.8305
" />
<path d="M4.3100 79.8305
L4.2525 79.7731
" />
<path d="M4.2525 79.7731
L4.1951 79.6582
" />
<path d="M4.1951 79.6582
L4.1951 79.4284
" />
<path d="M4.1951 79.4284
L4.2525 79.3135
" />
<path d="M4.9994 78.7964
L3.7929 78.7964
" />
<path d="M4.9994 78.2793
L4.3674 78.2793
" />
<path d="M4.3674 78.2793
L4.2525 78.3368
" />
<path d="M4.2525 78.3368
L4.1951 78.4517
" />
<path d="M4.1951 78.4517
L4.1951 78.6240
" />
<path d="M4.1951 78.6240
L4.2525 78.7389
" />
<path d="M4.2525 78.7389
L4.3100 78.7964
" />
</g></g>
<g style="fill:#F2EDA1; fill-opacity:0.0; 
stroke:#F2EDA1; stroke-width:0.1500; stroke-opacity:1; 
stroke-linecap:round; stroke-linejoin:round;">
<g transform="rotate(-90.000000 4.6050 60.0850)">
<text x="4.6050" y="60.5850"
textLength="1.9643" font-size="1.3333" lengthAdjust="spacingAndGlyphs"
text-anchor="middle" opacity="0">J3</text>
</g>
<g class="stroked-text"><desc>J3</desc>
<path d="M4.0598 60.4183
L4.7741 60.4183
" />
<path d="M4.7741 60.4183
L4.9170 60.4660
" />
<path d="M4.9170 60.4660
L5.0122 60.5612
" />
<path d="M5.0122 60.5612
L5.0598 60.7040
" />
<path d="M5.0598 60.7040
L5.0598 60.7993
" />
<path d="M4.0598 60.0374
L4.0598 59.4183
" />
<path d="M4.0598 59.4183
L4.4408 59.7517
" />
<path d="M4.4408 59.7517
L4.4408 59.6088
" />
<path d="M4.4408 59.6088
L4.4884 59.5136
" />
<path d="M4.4884 59.5136
L4.5360 59.4660
" />
<path d="M4.5360 59.4660
L4.6312 59.4183
" />
<path d="M4.6312 59.4183
L4.8693 59.4183
" />
<path d="M4.8693 59.4183
L4.9646 59.4660
" />
<path d="M4.9646 59.4660
L5.0122 59.5136
" />
<path d="M5.0122 59.5136
L5.0598 59.6088
" />
<path d="M5.0598 59.6088
L5.0598 59.8945
" />
<path d="M5.0598 59.8945
L5.0122 59.9898
" />
<path d="M5.0122 59.9898
L4.9646 60.0374
" />
</g><g transform="rotate(-90.000000 23.3750 16.1050)">
<text x="23.3750" y="16.6050"
textLength="3.0595" font-size="1.3333" lengthAdjust="spacingAndGlyphs"
text-anchor="middle" opacity="0">RV2</text>
</g>
<g class="stroked-text"><desc>RV2</desc>
<path d="M23.8298 16.7002
L23.3536 17.0336
" />
<path d="M23.8298 17.2717
L22.8298 17.2717
" />
<path d="M22.8298 17.2717
L22.8298 16.8907
" />
<path d="M22.8298 16.8907
L22.8774 16.7955
" />
<path d="M22.8774 16.7955
L22.9251 16.7479
" />
<path d="M22.9251 16.7479
L23.0203 16.7002
" />
<path d="M23.0203 16.7002
L23.1632 16.7002
" />
<path d="M23.1632 16.7002
L23.2584 16.7479
" />
<path d="M23.2584 16.7479
L23.3060 16.7955
" />
<path d="M23.3060 16.7955
L23.3536 16.8907
" />
<path d="M23.3536 16.8907
L23.3536 17.2717
" />
<path d="M22.8298 16.4145
L23.8298 16.0812
" />
<path d="M23.8298 16.0812
L22.8298 15.7479
" />
<path d="M22.9251 15.4621
L22.8774 15.4145
" />
<path d="M22.8774 15.4145
L22.8298 15.3193
" />
<path d="M22.8298 15.3193
L22.8298 15.0812
" />
<path d="M22.8298 15.0812
L22.8774 14.9860
" />
<path d="M22.8774 14.9860
L22.9251 14.9383
" />
<path d="M22.9251 14.9383
L23.0203 14.8907
" />
<path d="M23.0203 14.8907
L23.1155 14.8907
" />
<path d="M23.1155 14.8907
L23.2584 14.9383
" />
<path d="M23.2584 14.9383
L23.8298 15.5098
" />
<path d="M23.8298 15.5098
L23.8298 14.8907
" />
</g><g transform="rotate(-90.000000 3.0550 36.4250)">
<text x="3.0550" y="36.9250"
textLength="3.0595" font-size="1.3333" lengthAdjust="spacingAndGlyphs"
text-anchor="middle" opacity="0">RV3</text>
</g>
<g class="stroked-text"><desc>RV3</desc>
<path d="M3.5098 37.0202
L3.0336 37.3536
" />
<path d="M3.5098 37.5917
L2.5098 37.5917
" />
<path d="M2.5098 37.5917
L2.5098 37.2107
" />
<path d="M2.5098 37.2107
L2.5574 37.1155
" />
<path d="M2.5574 37.1155
L2.6051 37.0679
" />
<path d="M2.6051 37.0679
L2.7003 37.0202
" />
<path d="M2.7003 37.0202
L2.8432 37.0202
" />
<path d="M2.8432 37.0202
L2.9384 37.0679
" />
<path d="M2.9384 37.0679
L2.9860 37.1155
" />
<path d="M2.9860 37.1155
L3.0336 37.2107
" />
<path d="M3.0336 37.2107
L3.0336 37.5917
" />
<path d="M2.5098 36.7345
L3.5098 36.4012
" />
<path d="M3.5098 36.4012
L2.5098 36.0679
" />
<path d="M2.5098 35.8298
L2.5098 35.2107
" />
<path d="M2.5098 35.2107
L2.8908 35.5440
" />
<path d="M2.8908 35.5440
L2.8908 35.4012
" />
<path d="M2.8908 35.4012
L2.9384 35.3060
" />
<path d="M2.9384 35.3060
L2.9860 35.2583
" />
<path d="M2.9860 35.2583
L3.0812 35.2107
" />
<path d="M3.0812 35.2107
L3.3193 35.2107
" />
<path d="M3.3193 35.2107
L3.4146 35.2583
" />
<path d="M3.4146 35.2583
L3.4622 35.3060
" />
<path d="M3.4622 35.3060
L3.5098 35.4012
" />
<path d="M3.5098 35.4012
L3.5098 35.6869
" />
<path d="M3.5098 35.6869
L3.4622 35.7821
" />
<path d="M3.4622 35.7821
L3.4146 35.8298
" />
</g><g transform="rotate(-90.000000 24.9250 60.0850)">
<text x="24.9250" y="60.5850"
textLength="1.9643" font-size="1.3333" lengthAdjust="spacingAndGlyphs"
text-anchor="middle" opacity="0">J4</text>
</g>
<g class="stroked-text"><desc>J4</desc>
<path d="M24.3798 60.4183
L25.0941 60.4183
" />
<path d="M25.0941 60.4183
L25.2370 60.4660
" />
<path d="M25.2370 60.4660
L25.3322 60.5612
" />
<path d="M25.3322 60.5612
L25.3798 60.7040
" />
<path d="M25.3798 60.7040
L25.3798 60.7993
" />
<path d="M24.7132 59.5136
L25.3798 59.5136
" />
<path d="M24.3322 59.7517
L25.0465 59.9898
" />
<path d="M25.0465 59.9898
L25.0465 59.3707
" />
</g><text x="6.1050" y="91.4650"
textLength="1.9643" font-size="1.3333" lengthAdjust="spacingAndGlyphs"
text-anchor="middle" opacity="0">J1</text>
<g class="stroked-text"><desc>J1</desc>
<path d="M5.7717 90.4198
L5.7717 91.1341
" />
<path d="M5.7717 91.1341
L5.7240 91.2770
" />
<path d="M5.7240 91.2770
L5.6288 91.3722
" />
<path d="M5.6288 91.3722
L5.4860 91.4198
" />
<path d="M5.4860 91.4198
L5.3907 91.4198
" />
<path d="M6.7717 91.4198
L6.2002 91.4198
" />
<path d="M6.4860 91.4198
L6.4860 90.4198
" />
<path d="M6.4860 90.4198
L6.3907 90.5627
" />
<path d="M6.3907 90.5627
L6.2955 90.6579
" />
<path d="M6.2955 90.6579
L6.2002 90.7055
" />
</g><g transform="rotate(-90.000000 4.6050 70.2450)">
<text x="4.6050" y="70.7450"
textLength="1.9643" font-size="1.3333" lengthAdjust="spacingAndGlyphs"
text-anchor="middle" opacity="0">J5</text>
</g>
<g class="stroked-text"><desc>J5</desc>
<path d="M4.0598 70.5783
L4.7741 70.5783
" />
<path d="M4.7741 70.5783
L4.9170 70.6260
" />
<path d="M4.9170 70.6260
L5.0122 70.7212
" />
<path d="M5.0122 70.7212
L5.0598 70.8640
" />
<path d="M5.0598 70.8640
L5.0598 70.9593
" />
<path d="M4.0598 69.6260
L4.0598 70.1021
" />
<path d="M4.0598 70.1021
L4.5360 70.1498
" />
<path d="M4.5360 70.1498
L4.4884 70.1021
" />
<path d="M4.4884 70.1021
L4.4408 70.0069
" />
<path d="M4.4408 70.0069
L4.4408 69.7688
" />
<path d="M4.4408 69.7688
L4.4884 69.6736
" />
<path d="M4.4884 69.6736
L4.5360 69.6260
" />
<path d="M4.5360 69.6260
L4.6312 69.5783
" />
<path d="M4.6312 69.5783
L4.8693 69.5783
" />
<path d="M4.8693 69.5783
L4.9646 69.6260
" />
<path d="M4.9646 69.6260
L5.0122 69.6736
" />
<path d="M5.0122 69.6736
L5.0598 69.7688
" />
<path d="M5.0598 69.7688
L5.0598 70.0069
" />
<path d="M5.0598 70.0069
L5.0122 70.1021
" />
<path d="M5.0122 70.1021
L4.9646 70.1498
" />
</g><text x="26.4250" y="91.4650"
textLength="1.9643" font-size="1.3333" lengthAdjust="spacingAndGlyphs"
text-anchor="middle" opacity="0">J7</text>
<g class="stroked-text"><desc>J7</desc>
<path d="M26.0917 90.4198
L26.0917 91.1341
" />
<path d="M26.0917 91.1341
L26.0440 91.2770
" />
<path d="M26.0440 91.2770
L25.9488 91.3722
" />
<path d="M25.9488 91.3722
L25.8060 91.4198
" />
<path d="M25.8060 91.4198
L25.7107 91.4198
" />
<path d="M26.4726 90.4198
L27.1393 90.4198
" />
<path d="M27.1393 90.4198
L26.7107 91.4198
" />
</g><text x="26.4250" y="76.3850"
textLength="1.9643" font-size="1.3333" lengthAdjust="spacingAndGlyphs"
text-anchor="middle" opacity="0">J8</text>
<g class="stroked-text"><desc>J8</desc>
<path d="M26.0917 75.3398
L26.0917 76.0541
" />
<path d="M26.0917 76.0541
L26.0440 76.1970
" />
<path d="M26.0440 76.1970
L25.9488 76.2922
" />
<path d="M25.9488 76.2922
L25.8060 76.3398
" />
<path d="M25.8060 76.3398
L25.7107 76.3398
" />
<path d="M26.7107 75.7684
L26.6155 75.7208
" />
<path d="M26.6155 75.7208
L26.5679 75.6732
" />
<path d="M26.5679 75.6732
L26.5202 75.5779
" />
<path d="M26.5202 75.5779
L26.5202 75.5303
" />
<path d="M26.5202 75.5303
L26.5679 75.4351
" />
<path d="M26.5679 75.4351
L26.6155 75.3874
" />
<path d="M26.6155 75.3874
L26.7107 75.3398
" />
<path d="M26.7107 75.3398
L26.9012 75.3398
" />
<path d="M26.9012 75.3398
L26.9964 75.3874
" />
<path d="M26.9964 75.3874
L27.0440 75.4351
" />
<path d="M27.0440 75.4351
L27.0917 75.5303
" />
<path d="M27.0917 75.5303
L27.0917 75.5779
" />
<path d="M27.0917 75.5779
L27.0440 75.6732
" />
<path d="M27.0440 75.6732
L26.9964 75.7208
" />
<path d="M26.9964 75.7208
L26.9012 75.7684
" />
<path d="M26.9012 75.7684
L26.7107 75.7684
" />
<path d="M26.7107 75.7684
L26.6155 75.8160
" />
<path d="M26.6155 75.8160
L26.5679 75.8636
" />
<path d="M26.5679 75.8636
L26.5202 75.9589
" />
<path d="M26.5202 75.9589
L26.5202 76.1493
" />
<path d="M26.5202 76.1493
L26.5679 76.2446
" />
<path d="M26.5679 76.2446
L26.6155 76.2922
" />
<path d="M26.6155 76.2922
L26.7107 76.3398
" />
<path d="M26.7107 76.3398
L26.9012 76.3398
" />
<path d="M26.9012 76.3398
L26.9964 76.2922
" />
<path d="M26.9964 76.2922
L27.0440 76.2446
" />
<path d="M27.0440 76.2446
L27.0917 76.1493
" />
<path d="M27.0917 76.1493
L27.0917 75.9589
" />
<path d="M27.0917 75.9589
L27.0440 75.8636
" />
<path d="M27.0440 75.8636
L26.9964 75.8160
" />
<path d="M26.9964 75.8160
L26.9012 75.7684
" />
</g><text x="16.2650" y="91.4650"
textLength="1.9643" font-size="1.3333" lengthAdjust="spacingAndGlyphs"
text-anchor="middle" opacity="0">J2</text>
<g class="stroked-text"><desc>J2</desc>
<path d="M15.9317 90.4198
L15.9317 91.1341
" />
<path d="M15.9317 91.1341
L15.8840 91.2770
" />
<path d="M15.8840 91.2770
L15.7888 91.3722
" />
<path d="M15.7888 91.3722
L15.6460 91.4198
" />
<path d="M15.6460 91.4198
L15.5507 91.4198
" />
<path d="M16.3602 90.5151
L16.4079 90.4674
" />
<path d="M16.4079 90.4674
L16.5031 90.4198
" />
<path d="M16.5031 90.4198
L16.7412 90.4198
" />
<path d="M16.7412 90.4198
L16.8364 90.4674
" />
<path d="M16.8364 90.4674
L16.8840 90.5151
" />
<path d="M16.8840 90.5151
L16.9317 90.6103
" />
<path d="M16.9317 90.6103
L16.9317 90.7055
" />
<path d="M16.9317 90.7055
L16.8840 90.8484
" />
<path d="M16.8840 90.8484
L16.3126 91.4198
" />
<path d="M16.3126 91.4198
L16.9317 91.4198
" />
</g><g transform="rotate(-90.000000 23.3750 36.4250)">
<text x="23.3750" y="36.9250"
textLength="3.0595" font-size="1.3333" lengthAdjust="spacingAndGlyphs"
text-anchor="middle" opacity="0">RV4</text>
</g>
<g class="stroked-text"><desc>RV4</desc>
<path d="M23.8298 37.0202
L23.3536 37.3536
" />
<path d="M23.8298 37.5917
L22.8298 37.5917
" />
<path d="M22.8298 37.5917
L22.8298 37.2107
" />
<path d="M22.8298 37.2107
L22.8774 37.1155
" />
<path d="M22.8774 37.1155
L22.9251 37.0679
" />
<path d="M22.9251 37.0679
L23.0203 37.0202
" />
<path d="M23.0203 37.0202
L23.1632 37.0202
" />
<path d="M23.1632 37.0202
L23.2584 37.0679
" />
<path d="M23.2584 37.0679
L23.3060 37.1155
" />
<path d="M23.3060 37.1155
L23.3536 37.2107
" />
<path d="M23.3536 37.2107
L23.3536 37.5917
" />
<path d="M22.8298 36.7345
L23.8298 36.4012
" />
<path d="M23.8298 36.4012
L22.8298 36.0679
" />
<path d="M23.1632 35.3060
L23.8298 35.3060
" />
<path d="M22.7822 35.5440
L23.4965 35.7821
" />
<path d="M23.4965 35.7821
L23.4965 35.1631
" />
</g><g transform="rotate(-90.000000 2.8150 16.1050)">
<text x="2.8150" y="16.6050"
textLength="3.0595" font-size="1.3333" lengthAdjust="spacingAndGlyphs"
text-anchor="middle" opacity="0">RV1</text>
</g>
<g class="stroked-text"><desc>RV1</desc>
<path d="M3.2698 16.7002
L2.7936 17.0336
" />
<path d="M3.2698 17.2717
L2.2698 17.2717
" />
<path d="M2.2698 17.2717
L2.2698 16.8907
" />
<path d="M2.2698 16.8907
L2.3174 16.7955
" />
<path d="M2.3174 16.7955
L2.3651 16.7479
" />
<path d="M2.3651 16.7479
L2.4603 16.7002
" />
<path d="M2.4603 16.7002
L2.6032 16.7002
" />
<path d="M2.6032 16.7002
L2.6984 16.7479
" />
<path d="M2.6984 16.7479
L2.7460 16.7955
" />
<path d="M2.7460 16.7955
L2.7936 16.8907
" />
<path d="M2.7936 16.8907
L2.7936 17.2717
" />
<path d="M2.2698 16.4145
L3.2698 16.0812
" />
<path d="M3.2698 16.0812
L2.2698 15.7479
" />
<path d="M3.2698 14.8907
L3.2698 15.4621
" />
<path d="M3.2698 15.1764
L2.2698 15.1764
" />
<path d="M2.2698 15.1764
L2.4127 15.2717
" />
<path d="M2.4127 15.2717
L2.5079 15.3669
" />
<path d="M2.5079 15.3669
L2.5555 15.4621
" />
</g><g transform="rotate(-90.000000 25.0850 70.2450)">
<text x="25.0850" y="70.7450"
textLength="1.9643" font-size="1.3333" lengthAdjust="spacingAndGlyphs"
text-anchor="middle" opacity="0">J6</text>
</g>
<g class="stroked-text"><desc>J6</desc>
<path d="M24.5398 70.5783
L25.2541 70.5783
" />
<path d="M25.2541 70.5783
L25.3970 70.6260
" />
<path d="M25.3970 70.6260
L25.4922 70.7212
" />
<path d="M25.4922 70.7212
L25.5398 70.8640
" />
<path d="M25.5398 70.8640
L25.5398 70.9593
" />
<path d="M24.5398 69.6736
L24.5398 69.8640
" />
<path d="M24.5398 69.8640
L24.5874 69.9593
" />
<path d="M24.5874 69.9593
L24.6351 70.0069
" />
<path d="M24.6351 70.0069
L24.7779 70.1021
" />
<path d="M24.7779 70.1021
L24.9684 70.1498
" />
<path d="M24.9684 70.1498
L25.3493 70.1498
" />
<path d="M25.3493 70.1498
L25.4446 70.1021
" />
<path d="M25.4446 70.1021
L25.4922 70.0545
" />
<path d="M25.4922 70.0545
L25.5398 69.9593
" />
<path d="M25.5398 69.9593
L25.5398 69.7688
" />
<path d="M25.5398 69.7688
L25.4922 69.6736
" />
<path d="M25.4922 69.6736
L25.4446 69.6260
" />
<path d="M25.4446 69.6260
L25.3493 69.5783
" />
<path d="M25.3493 69.5783
L25.1112 69.5783
" />
<path d="M25.1112 69.5783
L25.0160 69.6260
" />
<path d="M25.0160 69.6260
L24.9684 69.6736
" />
<path d="M24.9684 69.6736
L24.9208 69.7688
" />
<path d="M24.9208 69.7688
L24.9208 69.9593
" />
<path d="M24.9208 69.9593
L24.9684 70.0545
" />
<path d="M24.9684 70.0545
L25.0160 70.1021
" />
<path d="M25.0160 70.1021
L25.1112 70.1498
" />
</g></g>
<g style="fill:#F2EDA1; fill-opacity:0.0; 
stroke:#F2EDA1; stroke-width:0.1250; stroke-opacity:1; 
stroke-linecap:round; stroke-linejoin:round;">
<path d="M6.2350 87.8550
L6.2350 74.8550
" />
<path d="M6.3350 74.7550
L14.1350 74.7550
" />
<path d="M14.1350 87.9550
L6.3350 87.9550
" />
<path d="M14.2350 74.8550
L14.2350 87.8550
" />
<path d="M6.3615 74.7510 A0.1270 0.1270 0.0 0 0 6.2345 74.8780" />
<path d="M6.2345 87.8320 A0.1270 0.1270 0.0 0 0 6.3615 87.9590" />
<path d="M14.2355 74.8780 A0.1270 0.1270 0.0 0 0 14.1085 74.7510" />
<path d="M14.1085 87.9590 A0.1270 0.1270 0.0 0 0 14.2355 87.8320" />
<circle cx="10.2350" cy="81.3550" r="2.8055" /> 
<circle cx="10.2350" cy="81.3550" r="1.6813" /> 
<circle cx="10.2350" cy="81.3550" r="3.0000" /> 
</g>
<g style="fill:#F2EDA1; fill-opacity:0.0; 
stroke:#F2EDA1; stroke-width:0.1200; stroke-opacity:1; 
stroke-linecap:round; stroke-linejoin:round;">
<path d="M5.7350 60.4550
L16.2350 60.4550
" />
<path d="M2.7550 57.0150
L3.5550 57.0150
" />
<path d="M2.7550 57.0150
L2.7550 56.1550
" />
<path d="M16.2350 56.4550
L16.2350 60.4550
" />
<path d="M5.7350 56.3050
L5.7350 60.4550
" />
<path d="M5.7350 51.4550
L5.7350 55.6050
" />
<path d="M5.7350 51.4550
L16.2350 51.4550
" />
<path d="M16.2350 51.4550
L16.2350 55.4550
" />
<circle cx="10.2350" cy="55.9550" r="1.8000" /> 
<path d="M25.6350 21.9350
L25.6350 17.2150
" />
<path d="M26.8250 21.9350
L25.6450 21.9350
" />
<path d="M29.7250 21.9350
L29.1950 21.9350
" />
<path d="M32.1750 21.9350
L31.3450 21.9350
" />
<path d="M35.3850 21.9350
L33.8950 21.9350
" />
<path d="M35.3850 21.9350
L35.3850 17.2150
" />
<path d="M25.6450 13.4050
L25.6450 10.3450
" />
<path d="M35.3850 13.4050
L35.3850 10.3450
" />
<path d="M35.3850 10.3450
L25.6450 10.3450
" />
<path d="M5.3150 42.2550
L5.3150 37.5350
" />
<path d="M6.5050 42.2550
L5.3250 42.2550
" />
<path d="M9.4050 42.2550
L8.8750 42.2550
" />
<path d="M11.8550 42.2550
L11.0250 42.2550
" />
<path d="M15.0650 42.2550
L13.5750 42.2550
" />
<path d="M15.0650 42.2550
L15.0650 37.5350
" />
<path d="M5.3250 33.7250
L5.3250 30.6650
" />
<path d="M15.0650 33.7250
L15.0650 30.6650
" />
<path d="M15.0650 30.6650
L5.3250 30.6650
" />
<path d="M26.0550 60.4550
L36.5550 60.4550
" />
<path d="M23.0750 57.0150
L23.8750 57.0150
" />
<path d="M23.0750 57.0150
L23.0750 56.1550
" />
<path d="M36.5550 56.4550
L36.5550 60.4550
" />
<path d="M26.0550 56.3050
L26.0550 60.4550
" />
<path d="M26.0550 51.4550
L26.0550 55.6050
" />
<path d="M26.0550 51.4550
L36.5550 51.4550
" />
<path d="M36.5550 51.4550
L36.5550 55.4550
" />
<circle cx="30.5550" cy="55.9550" r="1.8000" /> 
<path d="M5.7350 92.0950
L5.7350 102.5950
" />
<path d="M9.1750 89.1150
L9.1750 89.9150
" />
<path d="M9.1750 89.1150
L10.0350 89.1150
" />
<path d="M9.7350 102.5950
L5.7350 102.5950
" />
<path d="M9.8850 92.0950
L5.7350 92.0950
" />
<path d="M14.7350 92.0950
L10.5850 92.0950
" />
<path d="M14.7350 92.0950
L14.7350 102.5950
" />
<path d="M14.7350 102.5950
L10.7350 102.5950
" />
<circle cx="10.2350" cy="96.5950" r="1.8000" /> 
<path d="M5.7350 70.6150
L16.2350 70.6150
" />
<path d="M2.7550 67.1750
L3.5550 67.1750
" />
<path d="M2.7550 67.1750
L2.7550 66.3150
" />
<path d="M16.2350 66.6150
L16.2350 70.6150
" />
<path d="M5.7350 66.4650
L5.7350 70.6150
" />
<path d="M5.7350 61.6150
L5.7350 65.7650
" />
<path d="M5.7350 61.6150
L16.2350 61.6150
" />
<path d="M16.2350 61.6150
L16.2350 65.6150
" />
<circle cx="10.2350" cy="66.1150" r="1.8000" /> 
<path d="M26.0550 92.0950
L26.0550 102.5950
" />
<path d="M29.4950 89.1150
L29.4950 89.9150
" />
<path d="M29.4950 89.1150
L30.3550 89.1150
" />
<path d="M30.0550 102.5950
L26.0550 102.5950
" />
<path d="M30.2050 92.0950
L26.0550 92.0950
" />
<path d="M35.0550 92.0950
L30.9050 92.0950
" />
<path d="M35.0550 92.0950
L35.0550 102.5950
" />
<path d="M35.0550 102.5950
L31.0550 102.5950
" />
<circle cx="30.5550" cy="96.5950" r="1.8000" /> 
<path d="M26.0550 77.0150
L26.0550 87.5150
" />
<path d="M29.4950 74.0350
L29.4950 74.8350
" />
<path d="M29.4950 74.0350
L30.3550 74.0350
" />
<path d="M30.0550 87.5150
L26.0550 87.5150
" />
<path d="M30.2050 77.0150
L26.0550 77.0150
" />
<path d="M35.0550 77.0150
L30.9050 77.0150
" />
<path d="M35.0550 77.0150
L35.0550 87.5150
" />
<path d="M35.0550 87.5150
L31.0550 87.5150
" />
<circle cx="30.5550" cy="81.5150" r="1.8000" /> 
<path d="M15.8950 92.0950
L15.8950 102.5950
" />
<path d="M19.3350 89.1150
L19.3350 89.9150
" />
<path d="M19.3350 89.1150
L20.1950 89.1150
" />
<path d="M19.8950 102.5950
L15.8950 102.5950
" />
<path d="M20.0450 92.0950
L15.8950 92.0950
" />
<path d="M24.8950 92.0950
L20.7450 92.0950
" />
<path d="M24.8950 92.0950
L24.8950 102.5950
" />
<path d="M24.8950 102.5950
L20.8950 102.5950
" />
<circle cx="20.3950" cy="96.5950" r="1.8000" /> 
<path d="M25.6350 42.2550
L25.6350 37.5350
" />
<path d="M26.8250 42.2550
L25.6450 42.2550
" />
<path d="M29.7250 42.2550
L29.1950 42.2550
" />
<path d="M32.1750 42.2550
L31.3450 42.2550
" />
<path d="M35.3850 42.2550
L33.8950 42.2550
" />
<path d="M35.3850 42.2550
L35.3850 37.5350
" />
<path d="M25.6450 33.7250
L25.6450 30.6650
" />
<path d="M35.3850 33.7250
L35.3850 30.6650
" />
<path d="M35.3850 30.6650
L25.6450 30.6650
" />
<path d="M5.0750 21.9350
L5.0750 17.2150
" />
<path d="M6.2650 21.9350
L5.0850 21.9350
" />
<path d="M9.1650 21.9350
L8.6350 21.9350
" />
<path d="M11.6150 21.9350
L10.7850 21.9350
" />
<path d="M14.8250 21.9350
L13.3350 21.9350
" />
<path d="M14.8250 21.9350
L14.8250 17.2150
" />
<path d="M5.0850 13.4050
L5.0850 10.3450
" />
<path d="M14.8250 13.4050
L14.8250 10.3450
" />
<path d="M14.8250 10.3450
L5.0850 10.3450
" />
<path d="M26.2150 70.6150
L36.7150 70.6150
" />
<path d="M23.2350 67.1750
L24.0350 67.1750
" />
<path d="M23.2350 67.1750
L23.2350 66.3150
" />
<path d="M36.7150 66.6150
L36.7150 70.6150
" />
<path d="M26.2150 66.4650
L26.2150 70.6150
" />
<path d="M26.2150 61.6150
L26.2150 65.7650
" />
<path d="M26.2150 61.6150
L36.7150 61.6150
" />
<path d="M36.7150 61.6150
L36.7150 65.6150
" />
<circle cx="30.7150" cy="66.1150" r="1.8000" /> 
<g >
</g>
<g >
</g>
<g >
</g>
<g >
</g>
<g >
</g>
<g >
</g>
<g >
</g>
<g >
</g>
<g >
</g>
<g >
</g>
<g >
</g>
<g >
</g>
<g >
</g>
<g >
</g>
<g >
</g>
<g >
</g>
<g >
</g>
<g >
</g>
<g >
</g>
<g >
</g>
</g>
<g style="fill:#FFFFFF; fill-opacity:0.0; 
stroke:#FFFFFF; stroke-width:0.1200; stroke-opacity:1; 
stroke-linecap:round; stroke-linejoin:round;">
</g>
<g style="fill:#FFFFFF; fill-opacity:1.0000; 
stroke:#FFFFFF; stroke-width:0.0000; stroke-opacity:1; 
stroke-linecap:round; stroke-linejoin:round;">
<circle cx="37.8350" cy="2.6150" r="0.1750" /> 
</g>
<g style="fill:#FFFFFF; fill-opacity:1.0000; 
stroke:#FFFFFF; stroke-width:0.0212; stroke-opacity:1; 
stroke-linecap:round; stroke-linejoin:round;">
</g>
<g style="fill:#FFFFFF; fill-opacity:1.0000; 
stroke:#FFFFFF; stroke-width:0.0000; stroke-opacity:1; 
stroke-linecap:round; stroke-linejoin:round;">
<circle cx="2.6150" cy="105.7150" r="0.1750" /> 
</g>
<g style="fill:#FFFFFF; fill-opacity:1.0000; 
stroke:#FFFFFF; stroke-width:0.0212; stroke-opacity:1; 
stroke-linecap:round; stroke-linejoin:round;">
</g>
<g style="fill:#FFFFFF; fill-opacity:1.0000; 
stroke:#FFFFFF; stroke-width:0.0000; stroke-opacity:1; 
stroke-linecap:round; stroke-linejoin:round;">
<circle cx="37.8350" cy="105.7150" r="0.1750" /> 
</g>
<g style="fill:#FFFFFF; fill-opacity:1.0000; 
stroke:#FFFFFF; stroke-width:0.0212; stroke-opacity:1; 
stroke-linecap:round; stroke-linejoin:round;">
</g>
<g style="fill:#FFFFFF; fill-opacity:1.0000; 
stroke:#FFFFFF; stroke-width:0.0000; stroke-opacity:1; 
stroke-linecap:round; stroke-linejoin:round;">
<circle cx="2.6150" cy="2.6150" r="0.1750" /> 
</g>
<g style="fill:#FFFFFF; fill-opacity:1.0000; 
stroke:#FFFFFF; stroke-width:0.0212; stroke-opacity:1; 
stroke-linecap:round; stroke-linejoin:round;">
</g>
<g style="fill:#FFFFFF; fill-opacity:1.0000; 
stroke:#FFFFFF; stroke-width:1.2000; stroke-opacity:1; 
stroke-linecap:round; stroke-linejoin:round;">
</g>
<g style="fill:#FFFFFF; fill-opacity:0.0; 
stroke:#FFFFFF; stroke-width:1.2000; stroke-opacity:1; 
stroke-linecap:round; stroke-linejoin:round;">
<path d="M9.7350 76.6550
L10.7350 76.6550
" />
<path d="M9.7350 81.3550
L10.7350 81.3550
" />
<path d="M9.7350 86.0550
L10.7350 86.0550
" />
</g>
<g style="fill:#FFFFFF; fill-opacity:1.0000; 
stroke:#FFFFFF; stroke-width:0.0000; stroke-opacity:1; 
stroke-linecap:round; stroke-linejoin:round;">
<circle cx="3.7550" cy="55.9550" r="0.1750" /> 
</g>
<g style="fill:#FFFFFF; fill-opacity:1.0000; 
stroke:#FFFFFF; stroke-width:0.0212; stroke-opacity:1; 
stroke-linecap:round; stroke-linejoin:round;">
</g>
<g style="fill:#FFFFFF; fill-opacity:1.0000; 
stroke:#FFFFFF; stroke-width:0.0000; stroke-opacity:1; 
stroke-linecap:round; stroke-linejoin:round;">
<circle cx="15.1550" cy="55.9550" r="0.1750" /> 
</g>
<g style="fill:#FFFFFF; fill-opacity:1.0000; 
stroke:#FFFFFF; stroke-width:0.0212; stroke-opacity:1; 
stroke-linecap:round; stroke-linejoin:round;">
</g>
<g style="fill:#FFFFFF; fill-opacity:1.0000; 
stroke:#FFFFFF; stroke-width:0.0000; stroke-opacity:1; 
stroke-linecap:round; stroke-linejoin:round;">
<circle cx="6.8550" cy="55.9550" r="0.1750" /> 
</g>
<g style="fill:#FFFFFF; fill-opacity:1.0000; 
stroke:#FFFFFF; stroke-width:0.0212; stroke-opacity:1; 
stroke-linecap:round; stroke-linejoin:round;">
</g>
<g style="fill:#FFFFFF; fill-opacity:1.0000; 
stroke:#FFFFFF; stroke-width:1.1000; stroke-opacity:1; 
stroke-linecap:round; stroke-linejoin:round;">
</g>
<g style="fill:#FFFFFF; fill-opacity:0.0; 
stroke:#FFFFFF; stroke-width:1.1000; stroke-opacity:1; 
stroke-linecap:round; stroke-linejoin:round;">
<path d="M25.7150 15.6650
L25.7150 14.9650
" />
<path d="M35.3150 15.6650
L35.3150 14.9650
" />
</g>
<g style="fill:#FFFFFF; fill-opacity:1.0000; 
stroke:#FFFFFF; stroke-width:0.0000; stroke-opacity:1; 
stroke-linecap:round; stroke-linejoin:round;">
<circle cx="28.0150" cy="22.8150" r="0.1750" /> 
</g>
<g style="fill:#FFFFFF; fill-opacity:1.0000; 
stroke:#FFFFFF; stroke-width:0.0212; stroke-opacity:1; 
stroke-linecap:round; stroke-linejoin:round;">
</g>
<g style="fill:#FFFFFF; fill-opacity:1.0000; 
stroke:#FFFFFF; stroke-width:0.0000; stroke-opacity:1; 
stroke-linecap:round; stroke-linejoin:round;">
<circle cx="30.5150" cy="22.8150" r="0.1750" /> 
</g>
<g style="fill:#FFFFFF; fill-opacity:1.0000; 
stroke:#FFFFFF; stroke-width:0.0212; stroke-opacity:1; 
stroke-linecap:round; stroke-linejoin:round;">
</g>
<g style="fill:#FFFFFF; fill-opacity:1.0000; 
stroke:#FFFFFF; stroke-width:0.0000; stroke-opacity:1; 
stroke-linecap:round; stroke-linejoin:round;">
<circle cx="33.0150" cy="22.8150" r="0.1750" /> 
</g>
<g style="fill:#FFFFFF; fill-opacity:1.0000; 
stroke:#FFFFFF; stroke-width:0.0212; stroke-opacity:1; 
stroke-linecap:round; stroke-linejoin:round;">
</g>
<g style="fill:#FFFFFF; fill-opacity:1.0000; 
stroke:#FFFFFF; stroke-width:1.1000; stroke-opacity:1; 
stroke-linecap:round; stroke-linejoin:round;">
</g>
<g style="fill:#FFFFFF; fill-opacity:0.0; 
stroke:#FFFFFF; stroke-width:1.1000; stroke-opacity:1; 
stroke-linecap:round; stroke-linejoin:round;">
<path d="M5.3950 35.9850
L5.3950 35.2850
" />
<path d="M14.9950 35.9850
L14.9950 35.2850
" />
</g>
<g style="fill:#FFFFFF; fill-opacity:1.0000; 
stroke:#FFFFFF; stroke-width:0.0000; stroke-opacity:1; 
stroke-linecap:round; stroke-linejoin:round;">
<circle cx="7.6950" cy="43.1350" r="0.1750" /> 
</g>
<g style="fill:#FFFFFF; fill-opacity:1.0000; 
stroke:#FFFFFF; stroke-width:0.0212; stroke-opacity:1; 
stroke-linecap:round; stroke-linejoin:round;">
</g>
<g style="fill:#FFFFFF; fill-opacity:1.0000; 
stroke:#FFFFFF; stroke-width:0.0000; stroke-opacity:1; 
stroke-linecap:round; stroke-linejoin:round;">
<circle cx="10.1950" cy="43.1350" r="0.1750" /> 
</g>
<g style="fill:#FFFFFF; fill-opacity:1.0000; 
stroke:#FFFFFF; stroke-width:0.0212; stroke-opacity:1; 
stroke-linecap:round; stroke-linejoin:round;">
</g>
<g style="fill:#FFFFFF; fill-opacity:1.0000; 
stroke:#FFFFFF; stroke-width:0.0000; stroke-opacity:1; 
stroke-linecap:round; stroke-linejoin:round;">
<circle cx="12.6950" cy="43.1350" r="0.1750" /> 
</g>
<g style="fill:#FFFFFF; fill-opacity:1.0000; 
stroke:#FFFFFF; stroke-width:0.0212; stroke-opacity:1; 
stroke-linecap:round; stroke-linejoin:round;">
</g>
<g style="fill:#FFFFFF; fill-opacity:1.0000; 
stroke:#FFFFFF; stroke-width:0.0000; stroke-opacity:1; 
stroke-linecap:round; stroke-linejoin:round;">
<circle cx="24.0750" cy="55.9550" r="0.1750" /> 
</g>
<g style="fill:#FFFFFF; fill-opacity:1.0000; 
stroke:#FFFFFF; stroke-width:0.0212; stroke-opacity:1; 
stroke-linecap:round; stroke-linejoin:round;">
</g>
<g style="fill:#FFFFFF; fill-opacity:1.0000; 
stroke:#FFFFFF; stroke-width:0.0000; stroke-opacity:1; 
stroke-linecap:round; stroke-linejoin:round;">
<circle cx="35.4750" cy="55.9550" r="0.1750" /> 
</g>
<g style="fill:#FFFFFF; fill-opacity:1.0000; 
stroke:#FFFFFF; stroke-width:0.0212; stroke-opacity:1; 
stroke-linecap:round; stroke-linejoin:round;">
</g>
<g style="fill:#FFFFFF; fill-opacity:1.0000; 
stroke:#FFFFFF; stroke-width:0.0000; stroke-opacity:1; 
stroke-linecap:round; stroke-linejoin:round;">
<circle cx="27.1750" cy="55.9550" r="0.1750" /> 
</g>
<g style="fill:#FFFFFF; fill-opacity:1.0000; 
stroke:#FFFFFF; stroke-width:0.0212; stroke-opacity:1; 
stroke-linecap:round; stroke-linejoin:round;">
</g>
<g style="fill:#FFFFFF; fill-opacity:1.0000; 
stroke:#FFFFFF; stroke-width:0.0000; stroke-opacity:1; 
stroke-linecap:round; stroke-linejoin:round;">
<circle cx="10.2350" cy="90.1150" r="0.1750" /> 
</g>
<g style="fill:#FFFFFF; fill-opacity:1.0000; 
stroke:#FFFFFF; stroke-width:0.0212; stroke-opacity:1; 
stroke-linecap:round; stroke-linejoin:round;">
</g>
<g style="fill:#FFFFFF; fill-opacity:1.0000; 
stroke:#FFFFFF; stroke-width:0.0000; stroke-opacity:1; 
stroke-linecap:round; stroke-linejoin:round;">
<circle cx="10.2350" cy="101.5150" r="0.1750" /> 
</g>
<g style="fill:#FFFFFF; fill-opacity:1.0000; 
stroke:#FFFFFF; stroke-width:0.0212; stroke-opacity:1; 
stroke-linecap:round; stroke-linejoin:round;">
</g>
<g style="fill:#FFFFFF; fill-opacity:1.0000; 
stroke:#FFFFFF; stroke-width:0.0000; stroke-opacity:1; 
stroke-linecap:round; stroke-linejoin:round;">
<circle cx="10.2350" cy="93.2150" r="0.1750" /> 
</g>
<g style="fill:#FFFFFF; fill-opacity:1.0000; 
stroke:#FFFFFF; stroke-width:0.0212; stroke-opacity:1; 
stroke-linecap:round; stroke-linejoin:round;">
</g>
<g style="fill:#FFFFFF; fill-opacity:1.0000; 
stroke:#FFFFFF; stroke-width:0.0000; stroke-opacity:1; 
stroke-linecap:round; stroke-linejoin:round;">
<circle cx="3.7550" cy="66.1150" r="0.1750" /> 
</g>
<g style="fill:#FFFFFF; fill-opacity:1.0000; 
stroke:#FFFFFF; stroke-width:0.0212; stroke-opacity:1; 
stroke-linecap:round; stroke-linejoin:round;">
</g>
<g style="fill:#FFFFFF; fill-opacity:1.0000; 
stroke:#FFFFFF; stroke-width:0.0000; stroke-opacity:1; 
stroke-linecap:round; stroke-linejoin:round;">
<circle cx="15.1550" cy="66.1150" r="0.1750" /> 
</g>
<g style="fill:#FFFFFF; fill-opacity:1.0000; 
stroke:#FFFFFF; stroke-width:0.0212; stroke-opacity:1; 
stroke-linecap:round; stroke-linejoin:round;">
</g>
<g style="fill:#FFFFFF; fill-opacity:1.0000; 
stroke:#FFFFFF; stroke-width:0.0000; stroke-opacity:1; 
stroke-linecap:round; stroke-linejoin:round;">
<circle cx="6.8550" cy="66.1150" r="0.1750" /> 
</g>
<g style="fill:#FFFFFF; fill-opacity:1.0000; 
stroke:#FFFFFF; stroke-width:0.0212; stroke-opacity:1; 
stroke-linecap:round; stroke-linejoin:round;">
</g>
<g style="fill:#FFFFFF; fill-opacity:1.0000; 
stroke:#FFFFFF; stroke-width:0.0000; stroke-opacity:1; 
stroke-linecap:round; stroke-linejoin:round;">
<circle cx="30.5550" cy="90.1150" r="0.1750" /> 
</g>
<g style="fill:#FFFFFF; fill-opacity:1.0000; 
stroke:#FFFFFF; stroke-width:0.0212; stroke-opacity:1; 
stroke-linecap:round; stroke-linejoin:round;">
</g>
<g style="fill:#FFFFFF; fill-opacity:1.0000; 
stroke:#FFFFFF; stroke-width:0.0000; stroke-opacity:1; 
stroke-linecap:round; stroke-linejoin:round;">
<circle cx="30.5550" cy="101.5150" r="0.1750" /> 
</g>
<g style="fill:#FFFFFF; fill-opacity:1.0000; 
stroke:#FFFFFF; stroke-width:0.0212; stroke-opacity:1; 
stroke-linecap:round; stroke-linejoin:round;">
</g>
<g style="fill:#FFFFFF; fill-opacity:1.0000; 
stroke:#FFFFFF; stroke-width:0.0000; stroke-opacity:1; 
stroke-linecap:round; stroke-linejoin:round;">
<circle cx="30.5550" cy="93.2150" r="0.1750" /> 
</g>
<g style="fill:#FFFFFF; fill-opacity:1.0000; 
stroke:#FFFFFF; stroke-width:0.0212; stroke-opacity:1; 
stroke-linecap:round; stroke-linejoin:round;">
</g>
<g style="fill:#FFFFFF; fill-opacity:1.0000; 
stroke:#FFFFFF; stroke-width:0.0000; stroke-opacity:1; 
stroke-linecap:round; stroke-linejoin:round;">
<circle cx="30.5550" cy="75.0350" r="0.1750" /> 
</g>
<g style="fill:#FFFFFF; fill-opacity:1.0000; 
stroke:#FFFFFF; stroke-width:0.0212; stroke-opacity:1; 
stroke-linecap:round; stroke-linejoin:round;">
</g>
<g style="fill:#FFFFFF; fill-opacity:1.0000; 
stroke:#FFFFFF; stroke-width:0.0000; stroke-opacity:1; 
stroke-linecap:round; stroke-linejoin:round;">
<circle cx="30.5550" cy="86.4350" r="0.1750" /> 
</g>
<g style="fill:#FFFFFF; fill-opacity:1.0000; 
stroke:#FFFFFF; stroke-width:0.0212; stroke-opacity:1; 
stroke-linecap:round; stroke-linejoin:round;">
</g>
<g style="fill:#FFFFFF; fill-opacity:1.0000; 
stroke:#FFFFFF; stroke-width:0.0000; stroke-opacity:1; 
stroke-linecap:round; stroke-linejoin:round;">
<circle cx="30.5550" cy="78.1350" r="0.1750" /> 
</g>
<g style="fill:#FFFFFF; fill-opacity:1.0000; 
stroke:#FFFFFF; stroke-width:0.0212; stroke-opacity:1; 
stroke-linecap:round; stroke-linejoin:round;">
</g>
<g style="fill:#FFFFFF; fill-opacity:1.0000; 
stroke:#FFFFFF; stroke-width:0.0000; stroke-opacity:1; 
stroke-linecap:round; stroke-linejoin:round;">
<circle cx="20.3950" cy="90.1150" r="0.1750" /> 
</g>
<g style="fill:#FFFFFF; fill-opacity:1.0000; 
stroke:#FFFFFF; stroke-width:0.0212; stroke-opacity:1; 
stroke-linecap:round; stroke-linejoin:round;">
</g>
<g style="fill:#FFFFFF; fill-opacity:1.0000; 
stroke:#FFFFFF; stroke-width:0.0000; stroke-opacity:1; 
stroke-linecap:round; stroke-linejoin:round;">
<circle cx="20.3950" cy="101.5150" r="0.1750" /> 
</g>
<g style="fill:#FFFFFF; fill-opacity:1.0000; 
stroke:#FFFFFF; stroke-width:0.0212; stroke-opacity:1; 
stroke-linecap:round; stroke-linejoin:round;">
</g>
<g style="fill:#FFFFFF; fill-opacity:1.0000; 
stroke:#FFFFFF; stroke-width:0.0000; stroke-opacity:1; 
stroke-linecap:round; stroke-linejoin:round;">
<circle cx="20.3950" cy="93.2150" r="0.1750" /> 
</g>
<g style="fill:#FFFFFF; fill-opacity:1.0000; 
stroke:#FFFFFF; stroke-width:0.0212; stroke-opacity:1; 
stroke-linecap:round; stroke-linejoin:round;">
</g>
<g style="fill:#FFFFFF; fill-opacity:1.0000; 
stroke:#FFFFFF; stroke-width:1.1000; stroke-opacity:1; 
stroke-linecap:round; stroke-linejoin:round;">
</g>
<g style="fill:#FFFFFF; fill-opacity:0.0; 
stroke:#FFFFFF; stroke-width:1.1000; stroke-opacity:1; 
stroke-linecap:round; stroke-linejoin:round;">
<path d="M25.7150 35.9850
L25.7150 35.2850
" />
<path d="M35.3150 35.9850
L35.3150 35.2850
" />
</g>
<g style="fill:#FFFFFF; fill-opacity:1.0000; 
stroke:#FFFFFF; stroke-width:0.0000; stroke-opacity:1; 
stroke-linecap:round; stroke-linejoin:round;">
<circle cx="28.0150" cy="43.1350" r="0.1750" /> 
</g>
<g style="fill:#FFFFFF; fill-opacity:1.0000; 
stroke:#FFFFFF; stroke-width:0.0212; stroke-opacity:1; 
stroke-linecap:round; stroke-linejoin:round;">
</g>
<g style="fill:#FFFFFF; fill-opacity:1.0000; 
stroke:#FFFFFF; stroke-width:0.0000; stroke-opacity:1; 
stroke-linecap:round; stroke-linejoin:round;">
<circle cx="30.5150" cy="43.1350" r="0.1750" /> 
</g>
<g style="fill:#FFFFFF; fill-opacity:1.0000; 
stroke:#FFFFFF; stroke-width:0.0212; stroke-opacity:1; 
stroke-linecap:round; stroke-linejoin:round;">
</g>
<g style="fill:#FFFFFF; fill-opacity:1.0000; 
stroke:#FFFFFF; stroke-width:0.0000; stroke-opacity:1; 
stroke-linecap:round; stroke-linejoin:round;">
<circle cx="33.0150" cy="43.1350" r="0.1750" /> 
</g>
<g style="fill:#FFFFFF; fill-opacity:1.0000; 
stroke:#FFFFFF; stroke-width:0.0212; stroke-opacity:1; 
stroke-linecap:round; stroke-linejoin:round;">
</g>
<g style="fill:#FFFFFF; fill-opacity:1.0000; 
stroke:#FFFFFF; stroke-width:1.1000; stroke-opacity:1; 
stroke-linecap:round; stroke-linejoin:round;">
</g>
<g style="fill:#FFFFFF; fill-opacity:0.0; 
stroke:#FFFFFF; stroke-width:1.1000; stroke-opacity:1; 
stroke-linecap:round; stroke-linejoin:round;">
<path d="M5.1550 15.6650
L5.1550 14.9650
" />
<path d="M14.7550 15.6650
L14.7550 14.9650
" />
</g>
<g style="fill:#FFFFFF; fill-opacity:1.0000; 
stroke:#FFFFFF; stroke-width:0.0000; stroke-opacity:1; 
stroke-linecap:round; stroke-linejoin:round;">
<circle cx="7.4550" cy="22.8150" r="0.1750" /> 
</g>
<g style="fill:#FFFFFF; fill-opacity:1.0000; 
stroke:#FFFFFF; stroke-width:0.0212; stroke-opacity:1; 
stroke-linecap:round; stroke-linejoin:round;">
</g>
<g style="fill:#FFFFFF; fill-opacity:1.0000; 
stroke:#FFFFFF; stroke-width:0.0000; stroke-opacity:1; 
stroke-linecap:round; stroke-linejoin:round;">
<circle cx="9.9550" cy="22.8150" r="0.1750" /> 
</g>
<g style="fill:#FFFFFF; fill-opacity:1.0000; 
stroke:#FFFFFF; stroke-width:0.0212; stroke-opacity:1; 
stroke-linecap:round; stroke-linejoin:round;">
</g>
<g style="fill:#FFFFFF; fill-opacity:1.0000; 
stroke:#FFFFFF; stroke-width:0.0000; stroke-opacity:1; 
stroke-linecap:round; stroke-linejoin:round;">
<circle cx="12.4550" cy="22.8150" r="0.1750" /> 
</g>
<g style="fill:#FFFFFF; fill-opacity:1.0000; 
stroke:#FFFFFF; stroke-width:0.0212; stroke-opacity:1; 
stroke-linecap:round; stroke-linejoin:round;">
</g>
<g style="fill:#FFFFFF; fill-opacity:1.0000; 
stroke:#FFFFFF; stroke-width:0.0000; stroke-opacity:1; 
stroke-linecap:round; stroke-linejoin:round;">
<circle cx="24.2350" cy="66.1150" r="0.1750" /> 
</g>
<g style="fill:#FFFFFF; fill-opacity:1.0000; 
stroke:#FFFFFF; stroke-width:0.0212; stroke-opacity:1; 
stroke-linecap:round; stroke-linejoin:round;">
</g>
<g style="fill:#FFFFFF; fill-opacity:1.0000; 
stroke:#FFFFFF; stroke-width:0.0000; stroke-opacity:1; 
stroke-linecap:round; stroke-linejoin:round;">
<circle cx="35.6350" cy="66.1150" r="0.1750" /> 
</g>
<g style="fill:#FFFFFF; fill-opacity:1.0000; 
stroke:#FFFFFF; stroke-width:0.0212; stroke-opacity:1; 
stroke-linecap:round; stroke-linejoin:round;">
</g>
<g style="fill:#FFFFFF; fill-opacity:1.0000; 
stroke:#FFFFFF; stroke-width:0.0000; stroke-opacity:1; 
stroke-linecap:round; stroke-linejoin:round;">
<circle cx="27.3350" cy="66.1150" r="0.1750" /> 
</g>
<g style="fill:#FFFFFF; fill-opacity:1.0000; 
stroke:#FFFFFF; stroke-width:0.0212; stroke-opacity:1; 
stroke-linecap:round; stroke-linejoin:round;">
</g>
<g style="fill:#000000; fill-opacity:1.0000; 
stroke:#000000; stroke-width:0.0212; stroke-opacity:1; 
stroke-linecap:round; stroke-linejoin:round;">
</g> 
</svg>
