<!DOCTYPE svg PUBLIC "-//W3C//DTD SVG 1.1//EN" "http://www.w3.org/Graphics/SVG/1.1/DTD/svg11.dtd">
<svg xmlns="http://www.w3.org/2000/svg" version="1.1" width="4.0715002cm" height="13.165cm" viewBox="0 0 16029 51830">
            <title>Picture generated by PcbDraw </title>
            <desc>Picture generated by PcbDraw</desc>
        <g transform="translate(-19971, -19407)" id="boardContainer"><g clip-path="url(#cut-off)" mask="url(#hole-mask)"><defs><clipPath id="cut-off"><path d=" M 23602.0 60031.0 L 32263.0 60031.0 L 32263.0 63968.0 L 23602.0 63968.0 L 23602.0 60031.0  M 35866.0 20000.0 L 20000.0 20000.0 L 20000.0 70590.0 L 35866.0 70590.0 L 35866.0 20000.0 " style="fill-rule: evenodd;"/></clipPath></defs><g id="substrate-board" style="fill:#f0f0f0; stroke:#f0f0f0;"><path d=" M 23602.0 60031.0 L 32263.0 60031.0 L 32263.0 63968.0 L 23602.0 63968.0 L 23602.0 60031.0  M 35866.0 20000.0 L 20000.0 20000.0 L 20000.0 70590.0 L 35866.0 70590.0 L 35866.0 20000.0 " style="fill-rule: evenodd;"/><g style="fill:#000000; stroke: #000000;"><g style="fill-opacity:1; stroke-opacity:1; stroke-linecap:round; stroke-linejoin:round;" transform="translate(0 0) scale(1 1)">
</g>
<g style="fill-opacity:0.0; stroke-width:-0.000393701; stroke-opacity:1; stroke-linecap:round; stroke-linejoin:round;">
</g>
<g style="fill-opacity:0.0; stroke-width:59.0551; stroke-opacity:1; stroke-linecap:round; stroke-linejoin:round;">
<path d="M32263 60031 L32263 63968 "/>
<path d="M23602 63968 L32263 63968 "/>
<path d="M23602 60031 L23602 63968 "/>
<path d="M23602 60031 L32263 60031 "/>
<path d="M20000 20000 L20000 70590 "/>
<path d="M35866 70590 L20000 70590 "/>
<path d="M35866 20000 L35866 70590 "/>
<path d="M20000 20000 L35866 20000 "/>
<g>
</g>
<g>
</g>
<g>
</g>
<g>
</g>
<g>
</g>
<g>
</g>
<g>
</g>
</g> 
</g></g><g id="substrate-clad" style="fill:#9c6b28; stroke:#9c6b28;"><g style="fill-opacity:1; stroke-opacity:1; stroke-linecap:round; stroke-linejoin:round;" transform="translate(0 0) scale(1 1)">
</g>
<g style="fill-opacity:0.0; stroke-width:-0.000393701; stroke-opacity:1; stroke-linecap:round; stroke-linejoin:round;">
</g>
<g style="fill-opacity:0.0; stroke-width:98.4252; stroke-opacity:1; stroke-linecap:round; stroke-linejoin:round;">
<text x="26000" y="54393.7" textLength="3149.61" font-size="1049.87" lengthAdjust="spacingAndGlyphs" text-anchor="middle" opacity="0">-15V</text>
<path d="M24612 54056 L25212 54056 "/>
<path d="M26000 54356 L25550 54356 "/>
<path d="M25775 54356 L25775 53568 L25700 53681 L25625 53756 L25550 53793 "/>
<path d="M26712 53568 L26337 53568 L26299 53943 L26337 53906 L26412 53868 L26599 53868 L26674 53906 L26712 53943 L26749 54018 L26749 54206 L26712 54281 L26674 54318 L26599 54356 L26412 54356 L26337 54318 L26299 54281 "/>
<path d="M26974 53568 L27237 54356 L27499 53568 "/>
<text x="26000" y="46393.7" textLength="3277.56" font-size="1049.87" lengthAdjust="spacingAndGlyphs" text-anchor="middle" opacity="0">+15V</text>
<path d="M24612 46056 L25212 46056 "/>
<path d="M24912 46356 L24912 45756 "/>
<path d="M26000 46356 L25550 46356 "/>
<path d="M25775 46356 L25775 45568 L25700 45681 L25625 45756 L25550 45793 "/>
<path d="M26712 45568 L26337 45568 L26299 45943 L26337 45906 L26412 45868 L26599 45868 L26674 45906 L26712 45943 L26749 46018 L26749 46206 L26712 46281 L26674 46318 L26599 46356 L26412 46356 L26337 46318 L26299 46281 "/>
<path d="M26974 45568 L27237 46356 L27499 45568 "/>
<text x="26000" y="38393.7" textLength="2527.65" font-size="1049.87" lengthAdjust="spacingAndGlyphs" text-anchor="middle" opacity="0">GND</text>
<path d="M25400 37606 L25325 37568 L25212 37568 L25100 37606 L25025 37681 L24987 37756 L24950 37906 L24950 38018 L24987 38168 L25025 38243 L25100 38318 L25212 38356 L25287 38356 L25400 38318 L25437 38281 L25437 38018 L25287 38018 "/>
<path d="M25775 38356 L25775 37568 L26224 38356 L26224 37568 "/>
<path d="M26599 38356 L26599 37568 L26787 37568 L26899 37606 L26974 37681 L27012 37756 L27049 37906 L27049 38018 L27012 38168 L26974 38243 L26899 38318 L26787 38356 L26599 38356 "/>
<text x="26000" y="30393.7" textLength="2527.65" font-size="1049.87" lengthAdjust="spacingAndGlyphs" text-anchor="middle" opacity="0">+5V</text>
<path d="M24987 30056 L25587 30056 "/>
<path d="M25287 30356 L25287 29756 "/>
<path d="M26337 29568 L25962 29568 L25925 29943 L25962 29906 L26037 29868 L26224 29868 L26299 29906 L26337 29943 L26374 30018 L26374 30206 L26337 30281 L26299 30318 L26224 30356 L26037 30356 L25962 30318 L25925 30281 "/>
<path d="M26599 29568 L26862 30356 L27124 29568 "/>
</g>
<g style="fill-opacity:0.0; stroke-width:137.795; stroke-opacity:1; stroke-linecap:round; stroke-linejoin:round;">
<text x="27933.1" y="21771.7" textLength="4233.69" font-size="1574.8" lengthAdjust="spacingAndGlyphs" text-anchor="middle" opacity="0">kraft</text>
<path d="M26161 21715 L26161 20534 "/>
<path d="M26273 21265 L26611 21715 "/>
<path d="M26611 20928 L26161 21377 "/>
<path d="M27117 21715 L27117 20928 "/>
<path d="M27117 21152 L27173 21040 L27230 20984 L27342 20928 L27455 20928 "/>
<path d="M28354 21715 L28354 21096 L28298 20984 L28186 20928 L27961 20928 L27848 20984 "/>
<path d="M28354 21659 L28242 21715 L27961 21715 L27848 21659 L27792 21546 L27792 21434 L27848 21321 L27961 21265 L28242 21265 L28354 21209 "/>
<path d="M28748 20928 L29198 20928 "/>
<path d="M28917 21715 L28917 20703 L28973 20590 L29086 20534 L29198 20534 "/>
<path d="M29423 20928 L29873 20928 "/>
<path d="M29592 20534 L29592 21546 L29648 21659 L29760 21715 L29873 21715 "/>
<g>
</g>
<g style="fill-opacity:1.0; stroke-width:0; stroke-opacity:1; stroke-linecap:round; stroke-linejoin:round;">
<circle cx="32000" cy="46000" r="2374.02"/> 
</g>
<g style="fill-opacity:1.0; stroke-width:59.0551; stroke-opacity:1; stroke-linecap:round; stroke-linejoin:round;">
</g>
<g>
</g>
<g style="fill-opacity:1.0; stroke-width:59.0551; stroke-opacity:1; stroke-linecap:round; stroke-linejoin:round;">
</g>
<g style="fill-opacity:1.0; stroke-width:0; stroke-opacity:1; stroke-linecap:round; stroke-linejoin:round;">
<circle cx="32000" cy="54000" r="2374.02"/> 
</g>
<g style="fill-opacity:1.0; stroke-width:59.0551; stroke-opacity:1; stroke-linecap:round; stroke-linejoin:round;">
</g>
<g>
</g>
<g style="fill-opacity:1.0; stroke-width:59.0551; stroke-opacity:1; stroke-linecap:round; stroke-linejoin:round;">
</g>
<g style="fill-opacity:1.0; stroke-width:0; stroke-opacity:1; stroke-linecap:round; stroke-linejoin:round;">
<circle cx="32000" cy="38000" r="2374.02"/> 
</g>
<g style="fill-opacity:1.0; stroke-width:59.0551; stroke-opacity:1; stroke-linecap:round; stroke-linejoin:round;">
</g>
<g>
</g>
<g style="fill-opacity:1.0; stroke-width:59.0551; stroke-opacity:1; stroke-linecap:round; stroke-linejoin:round;">
</g>
<g style="fill-opacity:1.0; stroke-width:0; stroke-opacity:1; stroke-linecap:round; stroke-linejoin:round;">
<circle cx="32000" cy="30000" r="2374.02"/> 
</g>
<g style="fill-opacity:1.0; stroke-width:59.0551; stroke-opacity:1; stroke-linecap:round; stroke-linejoin:round;">
</g>
<g>
</g>
<g style="fill-opacity:1.0; stroke-width:59.0551; stroke-opacity:1; stroke-linecap:round; stroke-linejoin:round;">
</g>
<g style="fill-opacity:1.0; stroke-width:0; stroke-opacity:1; stroke-linecap:round; stroke-linejoin:round;">
<circle cx="22952.8" cy="69409.4" r="629.921"/> 
</g>
<g style="fill-opacity:1.0; stroke-width:59.0551; stroke-opacity:1; stroke-linecap:round; stroke-linejoin:round;">
</g>
<g>
</g>
<g style="fill-opacity:1.0; stroke-width:59.0551; stroke-opacity:1; stroke-linecap:round; stroke-linejoin:round;">
</g>
<g style="fill-opacity:1.0; stroke-width:0; stroke-opacity:1; stroke-linecap:round; stroke-linejoin:round;">
<circle cx="22952.8" cy="21181.1" r="629.921"/> 
</g>
<g style="fill-opacity:1.0; stroke-width:59.0551; stroke-opacity:1; stroke-linecap:round; stroke-linejoin:round;">
</g>
<g>
</g>
<g>
</g>
<g>
</g>
</g> 
</g><g id="substrate-copper" style="fill:#417e5a; stroke:#417e5a;"><g style="fill-opacity:1; stroke-opacity:1; stroke-linecap:round; stroke-linejoin:round;" transform="translate(0 0) scale(1 1)">
</g>
<g style="fill-opacity:0.0; stroke-width:-0.000393701; stroke-opacity:1; stroke-linecap:round; stroke-linejoin:round;">
<g>
</g>
<g style="fill-opacity:1.0; stroke-width:0; stroke-opacity:1; stroke-linecap:round; stroke-linejoin:round;">
<circle cx="32000" cy="46000" r="2374.02"/> 
</g>
<g style="fill-opacity:1.0; stroke-width:59.0551; stroke-opacity:1; stroke-linecap:round; stroke-linejoin:round;">
</g>
<g>
</g>
<g style="fill-opacity:1.0; stroke-width:59.0551; stroke-opacity:1; stroke-linecap:round; stroke-linejoin:round;">
</g>
<g style="fill-opacity:1.0; stroke-width:0; stroke-opacity:1; stroke-linecap:round; stroke-linejoin:round;">
<circle cx="32000" cy="54000" r="2374.02"/> 
</g>
<g style="fill-opacity:1.0; stroke-width:59.0551; stroke-opacity:1; stroke-linecap:round; stroke-linejoin:round;">
</g>
<g>
</g>
<g style="fill-opacity:1.0; stroke-width:59.0551; stroke-opacity:1; stroke-linecap:round; stroke-linejoin:round;">
</g>
<g style="fill-opacity:1.0; stroke-width:0; stroke-opacity:1; stroke-linecap:round; stroke-linejoin:round;">
<circle cx="32000" cy="38000" r="2374.02"/> 
</g>
<g style="fill-opacity:1.0; stroke-width:59.0551; stroke-opacity:1; stroke-linecap:round; stroke-linejoin:round;">
</g>
<g>
</g>
<g style="fill-opacity:1.0; stroke-width:59.0551; stroke-opacity:1; stroke-linecap:round; stroke-linejoin:round;">
</g>
<g style="fill-opacity:1.0; stroke-width:0; stroke-opacity:1; stroke-linecap:round; stroke-linejoin:round;">
<circle cx="32000" cy="30000" r="2374.02"/> 
</g>
<g style="fill-opacity:1.0; stroke-width:59.0551; stroke-opacity:1; stroke-linecap:round; stroke-linejoin:round;">
</g>
<g>
</g>
<g>
</g>
<g>
</g>
<g>
</g>
<g>
</g>
</g>
<g style="fill-opacity:1.0; stroke-width:59.0551; stroke-opacity:1; stroke-linecap:round; stroke-linejoin:round;">
</g>
<g style="fill-opacity:1.0; stroke-width:0; stroke-opacity:1; stroke-linecap:round; stroke-linejoin:round;">
<circle cx="32000" cy="46000" r="68.8976"/> 
</g>
<g style="fill-opacity:1.0; stroke-width:59.0551; stroke-opacity:1; stroke-linecap:round; stroke-linejoin:round;">
</g>
<g style="fill-opacity:1.0; stroke-width:0; stroke-opacity:1; stroke-linecap:round; stroke-linejoin:round;">
<circle cx="32000" cy="54000" r="68.8976"/> 
</g>
<g style="fill-opacity:1.0; stroke-width:59.0551; stroke-opacity:1; stroke-linecap:round; stroke-linejoin:round;">
</g>
<g style="fill-opacity:1.0; stroke-width:0; stroke-opacity:1; stroke-linecap:round; stroke-linejoin:round;">
<circle cx="32000" cy="38000" r="68.8976"/> 
</g>
<g style="fill-opacity:1.0; stroke-width:59.0551; stroke-opacity:1; stroke-linecap:round; stroke-linejoin:round;">
</g>
<g style="fill-opacity:1.0; stroke-width:0; stroke-opacity:1; stroke-linecap:round; stroke-linejoin:round;">
<circle cx="32000" cy="30000" r="68.8976"/> 
</g>
<g style="fill-opacity:1.0; stroke-width:59.0551; stroke-opacity:1; stroke-linecap:round; stroke-linejoin:round;">
</g>
<g style="fill-opacity:1.0; stroke-width:0; stroke-opacity:1; stroke-linecap:round; stroke-linejoin:round;">
<circle cx="22952.8" cy="69409.4" r="68.8976"/> 
</g>
<g style="fill-opacity:1.0; stroke-width:59.0551; stroke-opacity:1; stroke-linecap:round; stroke-linejoin:round;">
</g>
<g style="fill-opacity:1.0; stroke-width:0; stroke-opacity:1; stroke-linecap:round; stroke-linejoin:round;">
<circle cx="22952.8" cy="21181.1" r="68.8976"/> 
</g>
<g style="fill-opacity:1.0; stroke-width:59.0551; stroke-opacity:1; stroke-linecap:round; stroke-linejoin:round;">
</g>
<g style="fill-opacity:1.0; stroke-width:59.0551; stroke-opacity:1; stroke-linecap:round; stroke-linejoin:round;">
</g> 
</g><g id="substrate-pads" style="fill:#b5ae30; stroke:#b5ae30;" mask="url(#pads-mask)"><g style="fill-opacity:1; stroke-opacity:1; stroke-linecap:round; stroke-linejoin:round;" transform="translate(0 0) scale(1 1)">
</g>
<g style="fill-opacity:0.0; stroke-width:-0.000393701; stroke-opacity:1; stroke-linecap:round; stroke-linejoin:round;">
<g>
</g>
<g style="fill-opacity:1.0; stroke-width:0; stroke-opacity:1; stroke-linecap:round; stroke-linejoin:round;">
<circle cx="32000" cy="46000" r="2374.02"/> 
</g>
<g style="fill-opacity:1.0; stroke-width:59.0551; stroke-opacity:1; stroke-linecap:round; stroke-linejoin:round;">
</g>
<g>
</g>
<g style="fill-opacity:1.0; stroke-width:59.0551; stroke-opacity:1; stroke-linecap:round; stroke-linejoin:round;">
</g>
<g style="fill-opacity:1.0; stroke-width:0; stroke-opacity:1; stroke-linecap:round; stroke-linejoin:round;">
<circle cx="32000" cy="54000" r="2374.02"/> 
</g>
<g style="fill-opacity:1.0; stroke-width:59.0551; stroke-opacity:1; stroke-linecap:round; stroke-linejoin:round;">
</g>
<g>
</g>
<g style="fill-opacity:1.0; stroke-width:59.0551; stroke-opacity:1; stroke-linecap:round; stroke-linejoin:round;">
</g>
<g style="fill-opacity:1.0; stroke-width:0; stroke-opacity:1; stroke-linecap:round; stroke-linejoin:round;">
<circle cx="32000" cy="38000" r="2374.02"/> 
</g>
<g style="fill-opacity:1.0; stroke-width:59.0551; stroke-opacity:1; stroke-linecap:round; stroke-linejoin:round;">
</g>
<g>
</g>
<g style="fill-opacity:1.0; stroke-width:59.0551; stroke-opacity:1; stroke-linecap:round; stroke-linejoin:round;">
</g>
<g style="fill-opacity:1.0; stroke-width:0; stroke-opacity:1; stroke-linecap:round; stroke-linejoin:round;">
<circle cx="32000" cy="30000" r="2374.02"/> 
</g>
<g style="fill-opacity:1.0; stroke-width:59.0551; stroke-opacity:1; stroke-linecap:round; stroke-linejoin:round;">
</g>
<g>
</g>
<g>
</g>
<g>
</g>
<g>
</g>
<g>
</g>
</g>
<g style="fill-opacity:1.0; stroke-width:59.0551; stroke-opacity:1; stroke-linecap:round; stroke-linejoin:round;">
</g>
<g style="fill-opacity:1.0; stroke-width:0; stroke-opacity:1; stroke-linecap:round; stroke-linejoin:round;">
<circle cx="32000" cy="46000" r="68.8976"/> 
</g>
<g style="fill-opacity:1.0; stroke-width:59.0551; stroke-opacity:1; stroke-linecap:round; stroke-linejoin:round;">
</g>
<g style="fill-opacity:1.0; stroke-width:0; stroke-opacity:1; stroke-linecap:round; stroke-linejoin:round;">
<circle cx="32000" cy="54000" r="68.8976"/> 
</g>
<g style="fill-opacity:1.0; stroke-width:59.0551; stroke-opacity:1; stroke-linecap:round; stroke-linejoin:round;">
</g>
<g style="fill-opacity:1.0; stroke-width:0; stroke-opacity:1; stroke-linecap:round; stroke-linejoin:round;">
<circle cx="32000" cy="38000" r="68.8976"/> 
</g>
<g style="fill-opacity:1.0; stroke-width:59.0551; stroke-opacity:1; stroke-linecap:round; stroke-linejoin:round;">
</g>
<g style="fill-opacity:1.0; stroke-width:0; stroke-opacity:1; stroke-linecap:round; stroke-linejoin:round;">
<circle cx="32000" cy="30000" r="68.8976"/> 
</g>
<g style="fill-opacity:1.0; stroke-width:59.0551; stroke-opacity:1; stroke-linecap:round; stroke-linejoin:round;">
</g>
<g style="fill-opacity:1.0; stroke-width:0; stroke-opacity:1; stroke-linecap:round; stroke-linejoin:round;">
<circle cx="22952.8" cy="69409.4" r="68.8976"/> 
</g>
<g style="fill-opacity:1.0; stroke-width:59.0551; stroke-opacity:1; stroke-linecap:round; stroke-linejoin:round;">
</g>
<g style="fill-opacity:1.0; stroke-width:0; stroke-opacity:1; stroke-linecap:round; stroke-linejoin:round;">
<circle cx="22952.8" cy="21181.1" r="68.8976"/> 
</g>
<g style="fill-opacity:1.0; stroke-width:59.0551; stroke-opacity:1; stroke-linecap:round; stroke-linejoin:round;">
</g>
<g style="fill-opacity:1.0; stroke-width:59.0551; stroke-opacity:1; stroke-linecap:round; stroke-linejoin:round;">
</g> 
</g><defs><mask id="pads-mask"><g style="fill:#ffffff; fill-opacity:1;stroke:#ffffff; stroke-opacity:1; stroke-linecap:round; stroke-linejoin:round;" transform="translate(0 0) scale(1 1)">
</g>
<g style="fill:#ffffff; fill-opacity:0.0;  stroke:#ffffff; stroke-width:-0.000393701; stroke-opacity:1;  stroke-linecap:round; stroke-linejoin:round;">
</g>
<g style="fill:#ffffff; fill-opacity:0.0;  stroke:#ffffff; stroke-width:98.4252; stroke-opacity:1;  stroke-linecap:round; stroke-linejoin:round;">
<text x="26000" y="54393.7" textLength="3328.74" font-size="1049.87" lengthAdjust="spacingAndGlyphs" text-anchor="middle" opacity="0">-15V</text>
<path d="M24612 54056 L25212 54056 "/>
<path d="M26000 54356 L25550 54356 "/>
<path d="M25775 54356 L25775 53568 L25700 53681 L25625 53756 L25550 53793 "/>
<path d="M26712 53568 L26337 53568 L26299 53943 L26337 53906 L26412 53868 L26599 53868 L26674 53906 L26712 53943 L26749 54018 L26749 54206 L26712 54281 L26674 54318 L26599 54356 L26412 54356 L26337 54318 L26299 54281 "/>
<path d="M26974 53568 L27237 54356 L27499 53568 "/>
<text x="26000" y="46393.7" textLength="3277.56" font-size="1049.87" lengthAdjust="spacingAndGlyphs" text-anchor="middle" opacity="0">+15V</text>
<path d="M24612 46056 L25212 46056 "/>
<path d="M24912 46356 L24912 45756 "/>
<path d="M26000 46356 L25550 46356 "/>
<path d="M25775 46356 L25775 45568 L25700 45681 L25625 45756 L25550 45793 "/>
<path d="M26712 45568 L26337 45568 L26299 45943 L26337 45906 L26412 45868 L26599 45868 L26674 45906 L26712 45943 L26749 46018 L26749 46206 L26712 46281 L26674 46318 L26599 46356 L26412 46356 L26337 46318 L26299 46281 "/>
<path d="M26974 45568 L27237 46356 L27499 45568 "/>
<text x="26000" y="38393.7" textLength="2527.65" font-size="1049.87" lengthAdjust="spacingAndGlyphs" text-anchor="middle" opacity="0">GND</text>
<path d="M25400 37606 L25325 37568 L25212 37568 L25100 37606 L25025 37681 L24987 37756 L24950 37906 L24950 38018 L24987 38168 L25025 38243 L25100 38318 L25212 38356 L25287 38356 L25400 38318 L25437 38281 L25437 38018 L25287 38018 "/>
<path d="M25775 38356 L25775 37568 L26224 38356 L26224 37568 "/>
<path d="M26599 38356 L26599 37568 L26787 37568 L26899 37606 L26974 37681 L27012 37756 L27049 37906 L27049 38018 L27012 38168 L26974 38243 L26899 38318 L26787 38356 L26599 38356 "/>
<text x="26000" y="30393.7" textLength="2527.65" font-size="1049.87" lengthAdjust="spacingAndGlyphs" text-anchor="middle" opacity="0">+5V</text>
<path d="M24987 30056 L25587 30056 "/>
<path d="M25287 30356 L25287 29756 "/>
<path d="M26337 29568 L25962 29568 L25925 29943 L25962 29906 L26037 29868 L26224 29868 L26299 29906 L26337 29943 L26374 30018 L26374 30206 L26337 30281 L26299 30318 L26224 30356 L26037 30356 L25962 30318 L25925 30281 "/>
<path d="M26599 29568 L26862 30356 L27124 29568 "/>
</g>
<g style="fill:#ffffff; fill-opacity:0.0;  stroke:#ffffff; stroke-width:137.795; stroke-opacity:1;  stroke-linecap:round; stroke-linejoin:round;">
<text x="27933.1" y="21771.7" textLength="4233.69" font-size="1574.8" lengthAdjust="spacingAndGlyphs" text-anchor="middle" opacity="0">kraft</text>
<path d="M26161 21715 L26161 20534 "/>
<path d="M26273 21265 L26611 21715 "/>
<path d="M26611 20928 L26161 21377 "/>
<path d="M27117 21715 L27117 20928 "/>
<path d="M27117 21152 L27173 21040 L27230 20984 L27342 20928 L27455 20928 "/>
<path d="M28354 21715 L28354 21096 L28298 20984 L28186 20928 L27961 20928 L27848 20984 "/>
<path d="M28354 21659 L28242 21715 L27961 21715 L27848 21659 L27792 21546 L27792 21434 L27848 21321 L27961 21265 L28242 21265 L28354 21209 "/>
<path d="M28748 20928 L29198 20928 "/>
<path d="M28917 21715 L28917 20703 L28973 20590 L29086 20534 L29198 20534 "/>
<path d="M29423 20928 L29873 20928 "/>
<path d="M29592 20534 L29592 21546 L29648 21659 L29760 21715 L29873 21715 "/>
<g>
</g>
<g style="fill:#ffffff; fill-opacity:1.0;  stroke:#ffffff; stroke-width:0; stroke-opacity:1;  stroke-linecap:round; stroke-linejoin:round;">
<circle cx="32000" cy="46000" r="2374.02"/> 
</g>
<g style="fill:#ffffff; fill-opacity:1.0;  stroke:#ffffff; stroke-width:59.0551; stroke-opacity:1;  stroke-linecap:round; stroke-linejoin:round;">
</g>
<g>
</g>
<g style="fill:#ffffff; fill-opacity:1.0;  stroke:#ffffff; stroke-width:59.0551; stroke-opacity:1;  stroke-linecap:round; stroke-linejoin:round;">
</g>
<g style="fill:#ffffff; fill-opacity:1.0;  stroke:#ffffff; stroke-width:0; stroke-opacity:1;  stroke-linecap:round; stroke-linejoin:round;">
<circle cx="32000" cy="54000" r="2374.02"/> 
</g>
<g style="fill:#ffffff; fill-opacity:1.0;  stroke:#ffffff; stroke-width:59.0551; stroke-opacity:1;  stroke-linecap:round; stroke-linejoin:round;">
</g>
<g>
</g>
<g style="fill:#ffffff; fill-opacity:1.0;  stroke:#ffffff; stroke-width:59.0551; stroke-opacity:1;  stroke-linecap:round; stroke-linejoin:round;">
</g>
<g style="fill:#ffffff; fill-opacity:1.0;  stroke:#ffffff; stroke-width:0; stroke-opacity:1;  stroke-linecap:round; stroke-linejoin:round;">
<circle cx="32000" cy="38000" r="2374.02"/> 
</g>
<g style="fill:#ffffff; fill-opacity:1.0;  stroke:#ffffff; stroke-width:59.0551; stroke-opacity:1;  stroke-linecap:round; stroke-linejoin:round;">
</g>
<g>
</g>
<g style="fill:#ffffff; fill-opacity:1.0;  stroke:#ffffff; stroke-width:59.0551; stroke-opacity:1;  stroke-linecap:round; stroke-linejoin:round;">
</g>
<g style="fill:#ffffff; fill-opacity:1.0;  stroke:#ffffff; stroke-width:0; stroke-opacity:1;  stroke-linecap:round; stroke-linejoin:round;">
<circle cx="32000" cy="30000" r="2374.02"/> 
</g>
<g style="fill:#ffffff; fill-opacity:1.0;  stroke:#ffffff; stroke-width:59.0551; stroke-opacity:1;  stroke-linecap:round; stroke-linejoin:round;">
</g>
<g>
</g>
<g style="fill:#ffffff; fill-opacity:1.0;  stroke:#ffffff; stroke-width:59.0551; stroke-opacity:1;  stroke-linecap:round; stroke-linejoin:round;">
</g>
<g style="fill:#ffffff; fill-opacity:1.0;  stroke:#ffffff; stroke-width:0; stroke-opacity:1;  stroke-linecap:round; stroke-linejoin:round;">
<circle cx="22952.8" cy="69409.4" r="629.921"/> 
</g>
<g style="fill:#ffffff; fill-opacity:1.0;  stroke:#ffffff; stroke-width:59.0551; stroke-opacity:1;  stroke-linecap:round; stroke-linejoin:round;">
</g>
<g>
</g>
<g style="fill:#ffffff; fill-opacity:1.0;  stroke:#ffffff; stroke-width:59.0551; stroke-opacity:1;  stroke-linecap:round; stroke-linejoin:round;">
</g>
<g style="fill:#ffffff; fill-opacity:1.0;  stroke:#ffffff; stroke-width:0; stroke-opacity:1;  stroke-linecap:round; stroke-linejoin:round;">
<circle cx="22952.8" cy="21181.1" r="629.921"/> 
</g>
<g style="fill:#ffffff; fill-opacity:1.0;  stroke:#ffffff; stroke-width:59.0551; stroke-opacity:1;  stroke-linecap:round; stroke-linejoin:round;">
</g>
<g>
</g>
<g>
</g>
<g>
</g>
</g> 
</mask></defs><defs><mask id="pads-mask-silkscreen"><g style="fill:#000000; fill-opacity:1;stroke:#000000; stroke-opacity:1; stroke-linecap:round; stroke-linejoin:round;" transform="translate(0 0) scale(1 1)">
</g>
<g style="fill:#000000; fill-opacity:0.0;  stroke:#000000; stroke-width:-0.000393701; stroke-opacity:1;  stroke-linecap:round; stroke-linejoin:round;">
</g>
<g style="fill:#000000; fill-opacity:0.0;  stroke:#000000; stroke-width:98.4252; stroke-opacity:1;  stroke-linecap:round; stroke-linejoin:round;">
<text x="26000" y="54393.7" textLength="3328.74" font-size="1049.87" lengthAdjust="spacingAndGlyphs" text-anchor="middle" opacity="0">-15V</text>
<path d="M24612 54056 L25212 54056 "/>
<path d="M26000 54356 L25550 54356 "/>
<path d="M25775 54356 L25775 53568 L25700 53681 L25625 53756 L25550 53793 "/>
<path d="M26712 53568 L26337 53568 L26299 53943 L26337 53906 L26412 53868 L26599 53868 L26674 53906 L26712 53943 L26749 54018 L26749 54206 L26712 54281 L26674 54318 L26599 54356 L26412 54356 L26337 54318 L26299 54281 "/>
<path d="M26974 53568 L27237 54356 L27499 53568 "/>
<text x="26000" y="46393.7" textLength="3277.56" font-size="1049.87" lengthAdjust="spacingAndGlyphs" text-anchor="middle" opacity="0">+15V</text>
<path d="M24612 46056 L25212 46056 "/>
<path d="M24912 46356 L24912 45756 "/>
<path d="M26000 46356 L25550 46356 "/>
<path d="M25775 46356 L25775 45568 L25700 45681 L25625 45756 L25550 45793 "/>
<path d="M26712 45568 L26337 45568 L26299 45943 L26337 45906 L26412 45868 L26599 45868 L26674 45906 L26712 45943 L26749 46018 L26749 46206 L26712 46281 L26674 46318 L26599 46356 L26412 46356 L26337 46318 L26299 46281 "/>
<path d="M26974 45568 L27237 46356 L27499 45568 "/>
<text x="26000" y="38393.7" textLength="2527.65" font-size="1049.87" lengthAdjust="spacingAndGlyphs" text-anchor="middle" opacity="0">GND</text>
<path d="M25400 37606 L25325 37568 L25212 37568 L25100 37606 L25025 37681 L24987 37756 L24950 37906 L24950 38018 L24987 38168 L25025 38243 L25100 38318 L25212 38356 L25287 38356 L25400 38318 L25437 38281 L25437 38018 L25287 38018 "/>
<path d="M25775 38356 L25775 37568 L26224 38356 L26224 37568 "/>
<path d="M26599 38356 L26599 37568 L26787 37568 L26899 37606 L26974 37681 L27012 37756 L27049 37906 L27049 38018 L27012 38168 L26974 38243 L26899 38318 L26787 38356 L26599 38356 "/>
<text x="26000" y="30393.7" textLength="2527.65" font-size="1049.87" lengthAdjust="spacingAndGlyphs" text-anchor="middle" opacity="0">+5V</text>
<path d="M24987 30056 L25587 30056 "/>
<path d="M25287 30356 L25287 29756 "/>
<path d="M26337 29568 L25962 29568 L25925 29943 L25962 29906 L26037 29868 L26224 29868 L26299 29906 L26337 29943 L26374 30018 L26374 30206 L26337 30281 L26299 30318 L26224 30356 L26037 30356 L25962 30318 L25925 30281 "/>
<path d="M26599 29568 L26862 30356 L27124 29568 "/>
</g>
<g style="fill:#000000; fill-opacity:0.0;  stroke:#000000; stroke-width:137.795; stroke-opacity:1;  stroke-linecap:round; stroke-linejoin:round;">
<text x="27933.1" y="21771.7" textLength="4233.69" font-size="1574.8" lengthAdjust="spacingAndGlyphs" text-anchor="middle" opacity="0">kraft</text>
<path d="M26161 21715 L26161 20534 "/>
<path d="M26273 21265 L26611 21715 "/>
<path d="M26611 20928 L26161 21377 "/>
<path d="M27117 21715 L27117 20928 "/>
<path d="M27117 21152 L27173 21040 L27230 20984 L27342 20928 L27455 20928 "/>
<path d="M28354 21715 L28354 21096 L28298 20984 L28186 20928 L27961 20928 L27848 20984 "/>
<path d="M28354 21659 L28242 21715 L27961 21715 L27848 21659 L27792 21546 L27792 21434 L27848 21321 L27961 21265 L28242 21265 L28354 21209 "/>
<path d="M28748 20928 L29198 20928 "/>
<path d="M28917 21715 L28917 20703 L28973 20590 L29086 20534 L29198 20534 "/>
<path d="M29423 20928 L29873 20928 "/>
<path d="M29592 20534 L29592 21546 L29648 21659 L29760 21715 L29873 21715 "/>
<g>
</g>
<g style="fill:#000000; fill-opacity:1.0;  stroke:#000000; stroke-width:0; stroke-opacity:1;  stroke-linecap:round; stroke-linejoin:round;">
<circle cx="32000" cy="46000" r="2374.02"/> 
</g>
<g style="fill:#000000; fill-opacity:1.0;  stroke:#000000; stroke-width:59.0551; stroke-opacity:1;  stroke-linecap:round; stroke-linejoin:round;">
</g>
<g>
</g>
<g style="fill:#000000; fill-opacity:1.0;  stroke:#000000; stroke-width:59.0551; stroke-opacity:1;  stroke-linecap:round; stroke-linejoin:round;">
</g>
<g style="fill:#000000; fill-opacity:1.0;  stroke:#000000; stroke-width:0; stroke-opacity:1;  stroke-linecap:round; stroke-linejoin:round;">
<circle cx="32000" cy="54000" r="2374.02"/> 
</g>
<g style="fill:#000000; fill-opacity:1.0;  stroke:#000000; stroke-width:59.0551; stroke-opacity:1;  stroke-linecap:round; stroke-linejoin:round;">
</g>
<g>
</g>
<g style="fill:#000000; fill-opacity:1.0;  stroke:#000000; stroke-width:59.0551; stroke-opacity:1;  stroke-linecap:round; stroke-linejoin:round;">
</g>
<g style="fill:#000000; fill-opacity:1.0;  stroke:#000000; stroke-width:0; stroke-opacity:1;  stroke-linecap:round; stroke-linejoin:round;">
<circle cx="32000" cy="38000" r="2374.02"/> 
</g>
<g style="fill:#000000; fill-opacity:1.0;  stroke:#000000; stroke-width:59.0551; stroke-opacity:1;  stroke-linecap:round; stroke-linejoin:round;">
</g>
<g>
</g>
<g style="fill:#000000; fill-opacity:1.0;  stroke:#000000; stroke-width:59.0551; stroke-opacity:1;  stroke-linecap:round; stroke-linejoin:round;">
</g>
<g style="fill:#000000; fill-opacity:1.0;  stroke:#000000; stroke-width:0; stroke-opacity:1;  stroke-linecap:round; stroke-linejoin:round;">
<circle cx="32000" cy="30000" r="2374.02"/> 
</g>
<g style="fill:#000000; fill-opacity:1.0;  stroke:#000000; stroke-width:59.0551; stroke-opacity:1;  stroke-linecap:round; stroke-linejoin:round;">
</g>
<g>
</g>
<g style="fill:#000000; fill-opacity:1.0;  stroke:#000000; stroke-width:59.0551; stroke-opacity:1;  stroke-linecap:round; stroke-linejoin:round;">
</g>
<g style="fill:#000000; fill-opacity:1.0;  stroke:#000000; stroke-width:0; stroke-opacity:1;  stroke-linecap:round; stroke-linejoin:round;">
<circle cx="22952.8" cy="69409.4" r="629.921"/> 
</g>
<g style="fill:#000000; fill-opacity:1.0;  stroke:#000000; stroke-width:59.0551; stroke-opacity:1;  stroke-linecap:round; stroke-linejoin:round;">
</g>
<g>
</g>
<g style="fill:#000000; fill-opacity:1.0;  stroke:#000000; stroke-width:59.0551; stroke-opacity:1;  stroke-linecap:round; stroke-linejoin:round;">
</g>
<g style="fill:#000000; fill-opacity:1.0;  stroke:#000000; stroke-width:0; stroke-opacity:1;  stroke-linecap:round; stroke-linejoin:round;">
<circle cx="22952.8" cy="21181.1" r="629.921"/> 
</g>
<g style="fill:#000000; fill-opacity:1.0;  stroke:#000000; stroke-width:59.0551; stroke-opacity:1;  stroke-linecap:round; stroke-linejoin:round;">
</g>
<g>
</g>
<g>
</g>
<g>
</g>
</g> 
<rect x="19970" y="19406" width="16029" height="51830" fill="white"/></mask></defs><g id="substrate-silk" style="fill:#000000; stroke:#000000;" mask="url(#pads-mask-silkscreen)"><g style="fill-opacity:1; stroke-opacity:1; stroke-linecap:round; stroke-linejoin:round;" transform="translate(0 0) scale(1 1)">
</g>
<g style="fill-opacity:0.0; stroke-width:-0.000393701; stroke-opacity:1; stroke-linecap:round; stroke-linejoin:round;">
</g>
<g style="fill-opacity:0.0; stroke-width:59.0551; stroke-opacity:1; stroke-linecap:round; stroke-linejoin:round;">
<text x="32000" y="46393.7" textLength="1341.49" font-size="524.934" lengthAdjust="spacingAndGlyphs" text-anchor="middle" opacity="0">H12</text>
<path d="M31512 46374 L31512 45981 "/>
<path d="M31512 46168 L31737 46168 "/>
<path d="M31737 46374 L31737 45981 "/>
<path d="M32131 46374 L31906 46374 "/>
<path d="M32018 46374 L32018 45981 L31981 46037 L31943 46074 L31906 46093 "/>
<path d="M32281 46018 L32299 46000 L32337 45981 L32431 45981 L32468 46000 L32487 46018 L32506 46056 L32506 46093 L32487 46149 L32262 46374 L32506 46374 "/>
<text x="32000" y="54393.7" textLength="1239.13" font-size="524.934" lengthAdjust="spacingAndGlyphs" text-anchor="middle" opacity="0">H11</text>
<path d="M31512 54374 L31512 53981 "/>
<path d="M31512 54168 L31737 54168 "/>
<path d="M31737 54374 L31737 53981 "/>
<path d="M32131 54374 L31906 54374 "/>
<path d="M32018 54374 L32018 53981 L31981 54037 L31943 54074 L31906 54093 "/>
<path d="M32506 54374 L32281 54374 "/>
<path d="M32393 54374 L32393 53981 L32356 54037 L32318 54074 L32281 54093 "/>
<text x="32000" y="38393.7" textLength="1239.13" font-size="524.934" lengthAdjust="spacingAndGlyphs" text-anchor="middle" opacity="0">H10</text>
<path d="M31512 38374 L31512 37981 "/>
<path d="M31512 38168 L31737 38168 "/>
<path d="M31737 38374 L31737 37981 "/>
<path d="M32131 38374 L31906 38374 "/>
<path d="M32018 38374 L32018 37981 L31981 38037 L31943 38074 L31906 38093 "/>
<path d="M32374 37981 L32412 37981 L32449 38000 L32468 38018 L32487 38056 L32506 38131 L32506 38224 L32487 38299 L32468 38337 L32449 38356 L32412 38374 L32374 38374 L32337 38356 L32318 38337 L32299 38299 L32281 38224 L32281 38131 L32299 38056 L32318 38018 L32337 38000 L32374 37981 "/>
<text x="32000" y="30393.7" textLength="864.173" font-size="524.934" lengthAdjust="spacingAndGlyphs" text-anchor="middle" opacity="0">H9</text>
<path d="M31700 30374 L31700 29981 "/>
<path d="M31700 30168 L31925 30168 "/>
<path d="M31925 30374 L31925 29981 "/>
<path d="M32131 30374 L32206 30374 L32243 30356 L32262 30337 L32299 30281 L32318 30206 L32318 30056 L32299 30018 L32281 30000 L32243 29981 L32168 29981 L32131 30000 L32112 30018 L32093 30056 L32093 30149 L32112 30187 L32131 30206 L32168 30224 L32243 30224 L32281 30206 L32299 30187 L32318 30149 "/>
<g>
</g>
</g> 
</g><g id="substrate-outline" style="fill:#000000; stroke:#000000;"><g style="fill-opacity:1; stroke-opacity:1; stroke-linecap:round; stroke-linejoin:round;" transform="translate(0 0) scale(1 1)">
</g>
<g style="fill-opacity:0.0; stroke-width:-0.000393701; stroke-opacity:1; stroke-linecap:round; stroke-linejoin:round;">
</g>
<g style="fill-opacity:0.0; stroke-width:59.0551; stroke-opacity:1; stroke-linecap:round; stroke-linejoin:round;">
<path d="M32263 60031 L32263 63968 "/>
<path d="M23602 63968 L32263 63968 "/>
<path d="M23602 60031 L23602 63968 "/>
<path d="M23602 60031 L32263 60031 "/>
<path d="M20000 20000 L20000 70590 "/>
<path d="M35866 70590 L20000 70590 "/>
<path d="M35866 20000 L35866 70590 "/>
<path d="M20000 20000 L35866 20000 "/>
<g>
</g>
<g>
</g>
<g>
</g>
<g>
</g>
<g>
</g>
<g>
</g>
<g>
</g>
</g> 
</g><defs><mask id="hole-mask"><g><rect x="19970" y="19406" fill="white" width="16029" height="51830"/><polyline stroke-linecap="round" stroke="black" stroke-width="4748" points="0.0 0 0.0 0" transform="translate(32000 46000) rotate(-0.0)"/><polyline stroke-linecap="round" stroke="black" stroke-width="4748" points="0.0 0 0.0 0" transform="translate(32000 54000) rotate(-0.0)"/><polyline stroke-linecap="round" stroke="black" stroke-width="4748" points="0.0 0 0.0 0" transform="translate(32000 38000) rotate(-0.0)"/><polyline stroke-linecap="round" stroke="black" stroke-width="4748" points="0.0 0 0.0 0" transform="translate(32000 30000) rotate(-0.0)"/><polyline stroke-linecap="round" stroke="black" stroke-width="1259" points="0.0 0 0.0 0" transform="translate(22952 69409) rotate(-0.0)"/><polyline stroke-linecap="round" stroke="black" stroke-width="1259" points="0.0 0 0.0 0" transform="translate(22952 21181) rotate(-0.0)"/></g></mask></defs></g></g><g transform="translate(-19971, -19407)" id="highlightContainer"/><g transform="translate(-19971, -19407)" id="componentContainer"/></svg>