<?xml version="1.0" encoding="utf-8" standalone="no"?>
<!DOCTYPE svg PUBLIC "-//W3C//DTD SVG 1.1//EN"
  "http://www.w3.org/Graphics/SVG/1.1/DTD/svg11.dtd">
<!-- Created with matplotlib (https://matplotlib.org/) -->
<svg height="352.15625pt" version="1.1" viewBox="0 0 568.470312 352.15625" width="568.470312pt" xmlns="http://www.w3.org/2000/svg" xmlns:xlink="http://www.w3.org/1999/xlink">
 <metadata>
  <rdf:RDF xmlns:cc="http://creativecommons.org/ns#" xmlns:dc="http://purl.org/dc/elements/1.1/" xmlns:rdf="http://www.w3.org/1999/02/22-rdf-syntax-ns#">
   <cc:Work>
    <dc:type rdf:resource="http://purl.org/dc/dcmitype/StillImage"/>
    <dc:date>2020-07-24T22:41:43.110172</dc:date>
    <dc:format>image/svg+xml</dc:format>
    <dc:creator>
     <cc:Agent>
      <dc:title>Matplotlib v3.3.0, https://matplotlib.org/</dc:title>
     </cc:Agent>
    </dc:creator>
   </cc:Work>
  </rdf:RDF>
 </metadata>
 <defs>
  <style type="text/css">*{stroke-linecap:butt;stroke-linejoin:round;}</style>
 </defs>
 <g id="figure_1">
  <g id="patch_1">
   <path d="M 0 352.15625 
L 568.470312 352.15625 
L 568.470312 0 
L 0 0 
z
" style="fill:none;"/>
  </g>
  <g id="axes_1">
   <g id="patch_2">
    <path d="M 42.620313 314.6 
L 561.270312 314.6 
L 561.270312 7.2 
L 42.620313 7.2 
z
" style="fill:#ffffff;"/>
   </g>
   <g id="matplotlib.axis_1">
    <g id="xtick_1">
     <g id="line2d_1">
      <path clip-path="url(#pc226771fab)" d="M 66.195312 314.6 
L 66.195312 7.2 
" style="fill:none;stroke:#b0b0b0;stroke-linecap:square;stroke-width:0.8;"/>
     </g>
     <g id="line2d_2">
      <defs>
       <path d="M 0 0 
L 0 3.5 
" id="me45415d0db" style="stroke:#000000;stroke-width:0.8;"/>
      </defs>
      <g>
       <use style="stroke:#000000;stroke-width:0.8;" x="66.195312" xlink:href="#me45415d0db" y="314.6"/>
      </g>
     </g>
     <g id="text_1">
      <!-- 0 -->
      <g transform="translate(63.014063 329.198437)scale(0.1 -0.1)">
       <defs>
        <path d="M 31.78125 66.40625 
Q 24.171875 66.40625 20.328125 58.90625 
Q 16.5 51.421875 16.5 36.375 
Q 16.5 21.390625 20.328125 13.890625 
Q 24.171875 6.390625 31.78125 6.390625 
Q 39.453125 6.390625 43.28125 13.890625 
Q 47.125 21.390625 47.125 36.375 
Q 47.125 51.421875 43.28125 58.90625 
Q 39.453125 66.40625 31.78125 66.40625 
z
M 31.78125 74.21875 
Q 44.046875 74.21875 50.515625 64.515625 
Q 56.984375 54.828125 56.984375 36.375 
Q 56.984375 17.96875 50.515625 8.265625 
Q 44.046875 -1.421875 31.78125 -1.421875 
Q 19.53125 -1.421875 13.0625 8.265625 
Q 6.59375 17.96875 6.59375 36.375 
Q 6.59375 54.828125 13.0625 64.515625 
Q 19.53125 74.21875 31.78125 74.21875 
z
" id="DejaVuSans-48"/>
       </defs>
       <use xlink:href="#DejaVuSans-48"/>
      </g>
     </g>
    </g>
    <g id="xtick_2">
     <g id="line2d_3">
      <path clip-path="url(#pc226771fab)" d="M 156.868389 314.6 
L 156.868389 7.2 
" style="fill:none;stroke:#b0b0b0;stroke-linecap:square;stroke-width:0.8;"/>
     </g>
     <g id="line2d_4">
      <g>
       <use style="stroke:#000000;stroke-width:0.8;" x="156.868389" xlink:href="#me45415d0db" y="314.6"/>
      </g>
     </g>
     <g id="text_2">
      <!-- 100 -->
      <g transform="translate(147.324639 329.198437)scale(0.1 -0.1)">
       <defs>
        <path d="M 12.40625 8.296875 
L 28.515625 8.296875 
L 28.515625 63.921875 
L 10.984375 60.40625 
L 10.984375 69.390625 
L 28.421875 72.90625 
L 38.28125 72.90625 
L 38.28125 8.296875 
L 54.390625 8.296875 
L 54.390625 0 
L 12.40625 0 
z
" id="DejaVuSans-49"/>
       </defs>
       <use xlink:href="#DejaVuSans-49"/>
       <use x="63.623047" xlink:href="#DejaVuSans-48"/>
       <use x="127.246094" xlink:href="#DejaVuSans-48"/>
      </g>
     </g>
    </g>
    <g id="xtick_3">
     <g id="line2d_5">
      <path clip-path="url(#pc226771fab)" d="M 247.541466 314.6 
L 247.541466 7.2 
" style="fill:none;stroke:#b0b0b0;stroke-linecap:square;stroke-width:0.8;"/>
     </g>
     <g id="line2d_6">
      <g>
       <use style="stroke:#000000;stroke-width:0.8;" x="247.541466" xlink:href="#me45415d0db" y="314.6"/>
      </g>
     </g>
     <g id="text_3">
      <!-- 200 -->
      <g transform="translate(237.997716 329.198437)scale(0.1 -0.1)">
       <defs>
        <path d="M 19.1875 8.296875 
L 53.609375 8.296875 
L 53.609375 0 
L 7.328125 0 
L 7.328125 8.296875 
Q 12.9375 14.109375 22.625 23.890625 
Q 32.328125 33.6875 34.8125 36.53125 
Q 39.546875 41.84375 41.421875 45.53125 
Q 43.3125 49.21875 43.3125 52.78125 
Q 43.3125 58.59375 39.234375 62.25 
Q 35.15625 65.921875 28.609375 65.921875 
Q 23.96875 65.921875 18.8125 64.3125 
Q 13.671875 62.703125 7.8125 59.421875 
L 7.8125 69.390625 
Q 13.765625 71.78125 18.9375 73 
Q 24.125 74.21875 28.421875 74.21875 
Q 39.75 74.21875 46.484375 68.546875 
Q 53.21875 62.890625 53.21875 53.421875 
Q 53.21875 48.921875 51.53125 44.890625 
Q 49.859375 40.875 45.40625 35.40625 
Q 44.1875 33.984375 37.640625 27.21875 
Q 31.109375 20.453125 19.1875 8.296875 
z
" id="DejaVuSans-50"/>
       </defs>
       <use xlink:href="#DejaVuSans-50"/>
       <use x="63.623047" xlink:href="#DejaVuSans-48"/>
       <use x="127.246094" xlink:href="#DejaVuSans-48"/>
      </g>
     </g>
    </g>
    <g id="xtick_4">
     <g id="line2d_7">
      <path clip-path="url(#pc226771fab)" d="M 338.214543 314.6 
L 338.214543 7.2 
" style="fill:none;stroke:#b0b0b0;stroke-linecap:square;stroke-width:0.8;"/>
     </g>
     <g id="line2d_8">
      <g>
       <use style="stroke:#000000;stroke-width:0.8;" x="338.214543" xlink:href="#me45415d0db" y="314.6"/>
      </g>
     </g>
     <g id="text_4">
      <!-- 300 -->
      <g transform="translate(328.670793 329.198437)scale(0.1 -0.1)">
       <defs>
        <path d="M 40.578125 39.3125 
Q 47.65625 37.796875 51.625 33 
Q 55.609375 28.21875 55.609375 21.1875 
Q 55.609375 10.40625 48.1875 4.484375 
Q 40.765625 -1.421875 27.09375 -1.421875 
Q 22.515625 -1.421875 17.65625 -0.515625 
Q 12.796875 0.390625 7.625 2.203125 
L 7.625 11.71875 
Q 11.71875 9.328125 16.59375 8.109375 
Q 21.484375 6.890625 26.8125 6.890625 
Q 36.078125 6.890625 40.9375 10.546875 
Q 45.796875 14.203125 45.796875 21.1875 
Q 45.796875 27.640625 41.28125 31.265625 
Q 36.765625 34.90625 28.71875 34.90625 
L 20.21875 34.90625 
L 20.21875 43.015625 
L 29.109375 43.015625 
Q 36.375 43.015625 40.234375 45.921875 
Q 44.09375 48.828125 44.09375 54.296875 
Q 44.09375 59.90625 40.109375 62.90625 
Q 36.140625 65.921875 28.71875 65.921875 
Q 24.65625 65.921875 20.015625 65.03125 
Q 15.375 64.15625 9.8125 62.3125 
L 9.8125 71.09375 
Q 15.4375 72.65625 20.34375 73.4375 
Q 25.25 74.21875 29.59375 74.21875 
Q 40.828125 74.21875 47.359375 69.109375 
Q 53.90625 64.015625 53.90625 55.328125 
Q 53.90625 49.265625 50.4375 45.09375 
Q 46.96875 40.921875 40.578125 39.3125 
z
" id="DejaVuSans-51"/>
       </defs>
       <use xlink:href="#DejaVuSans-51"/>
       <use x="63.623047" xlink:href="#DejaVuSans-48"/>
       <use x="127.246094" xlink:href="#DejaVuSans-48"/>
      </g>
     </g>
    </g>
    <g id="xtick_5">
     <g id="line2d_9">
      <path clip-path="url(#pc226771fab)" d="M 428.88762 314.6 
L 428.88762 7.2 
" style="fill:none;stroke:#b0b0b0;stroke-linecap:square;stroke-width:0.8;"/>
     </g>
     <g id="line2d_10">
      <g>
       <use style="stroke:#000000;stroke-width:0.8;" x="428.88762" xlink:href="#me45415d0db" y="314.6"/>
      </g>
     </g>
     <g id="text_5">
      <!-- 400 -->
      <g transform="translate(419.34387 329.198437)scale(0.1 -0.1)">
       <defs>
        <path d="M 37.796875 64.3125 
L 12.890625 25.390625 
L 37.796875 25.390625 
z
M 35.203125 72.90625 
L 47.609375 72.90625 
L 47.609375 25.390625 
L 58.015625 25.390625 
L 58.015625 17.1875 
L 47.609375 17.1875 
L 47.609375 0 
L 37.796875 0 
L 37.796875 17.1875 
L 4.890625 17.1875 
L 4.890625 26.703125 
z
" id="DejaVuSans-52"/>
       </defs>
       <use xlink:href="#DejaVuSans-52"/>
       <use x="63.623047" xlink:href="#DejaVuSans-48"/>
       <use x="127.246094" xlink:href="#DejaVuSans-48"/>
      </g>
     </g>
    </g>
    <g id="xtick_6">
     <g id="line2d_11">
      <path clip-path="url(#pc226771fab)" d="M 519.560697 314.6 
L 519.560697 7.2 
" style="fill:none;stroke:#b0b0b0;stroke-linecap:square;stroke-width:0.8;"/>
     </g>
     <g id="line2d_12">
      <g>
       <use style="stroke:#000000;stroke-width:0.8;" x="519.560697" xlink:href="#me45415d0db" y="314.6"/>
      </g>
     </g>
     <g id="text_6">
      <!-- 500 -->
      <g transform="translate(510.016947 329.198437)scale(0.1 -0.1)">
       <defs>
        <path d="M 10.796875 72.90625 
L 49.515625 72.90625 
L 49.515625 64.59375 
L 19.828125 64.59375 
L 19.828125 46.734375 
Q 21.96875 47.46875 24.109375 47.828125 
Q 26.265625 48.1875 28.421875 48.1875 
Q 40.625 48.1875 47.75 41.5 
Q 54.890625 34.8125 54.890625 23.390625 
Q 54.890625 11.625 47.5625 5.09375 
Q 40.234375 -1.421875 26.90625 -1.421875 
Q 22.3125 -1.421875 17.546875 -0.640625 
Q 12.796875 0.140625 7.71875 1.703125 
L 7.71875 11.625 
Q 12.109375 9.234375 16.796875 8.0625 
Q 21.484375 6.890625 26.703125 6.890625 
Q 35.15625 6.890625 40.078125 11.328125 
Q 45.015625 15.765625 45.015625 23.390625 
Q 45.015625 31 40.078125 35.4375 
Q 35.15625 39.890625 26.703125 39.890625 
Q 22.75 39.890625 18.8125 39.015625 
Q 14.890625 38.140625 10.796875 36.28125 
z
" id="DejaVuSans-53"/>
       </defs>
       <use xlink:href="#DejaVuSans-53"/>
       <use x="63.623047" xlink:href="#DejaVuSans-48"/>
       <use x="127.246094" xlink:href="#DejaVuSans-48"/>
      </g>
     </g>
    </g>
    <g id="text_7">
     <!-- t [s] -->
     <g transform="translate(291.889844 342.876562)scale(0.1 -0.1)">
      <defs>
       <path d="M 18.3125 70.21875 
L 18.3125 54.6875 
L 36.8125 54.6875 
L 36.8125 47.703125 
L 18.3125 47.703125 
L 18.3125 18.015625 
Q 18.3125 11.328125 20.140625 9.421875 
Q 21.96875 7.515625 27.59375 7.515625 
L 36.8125 7.515625 
L 36.8125 0 
L 27.59375 0 
Q 17.1875 0 13.234375 3.875 
Q 9.28125 7.765625 9.28125 18.015625 
L 9.28125 47.703125 
L 2.6875 47.703125 
L 2.6875 54.6875 
L 9.28125 54.6875 
L 9.28125 70.21875 
z
" id="DejaVuSans-116"/>
       <path id="DejaVuSans-32"/>
       <path d="M 8.59375 75.984375 
L 29.296875 75.984375 
L 29.296875 69 
L 17.578125 69 
L 17.578125 -6.203125 
L 29.296875 -6.203125 
L 29.296875 -13.1875 
L 8.59375 -13.1875 
z
" id="DejaVuSans-91"/>
       <path d="M 44.28125 53.078125 
L 44.28125 44.578125 
Q 40.484375 46.53125 36.375 47.5 
Q 32.28125 48.484375 27.875 48.484375 
Q 21.1875 48.484375 17.84375 46.4375 
Q 14.5 44.390625 14.5 40.28125 
Q 14.5 37.15625 16.890625 35.375 
Q 19.28125 33.59375 26.515625 31.984375 
L 29.59375 31.296875 
Q 39.15625 29.25 43.1875 25.515625 
Q 47.21875 21.78125 47.21875 15.09375 
Q 47.21875 7.46875 41.1875 3.015625 
Q 35.15625 -1.421875 24.609375 -1.421875 
Q 20.21875 -1.421875 15.453125 -0.5625 
Q 10.6875 0.296875 5.421875 2 
L 5.421875 11.28125 
Q 10.40625 8.6875 15.234375 7.390625 
Q 20.0625 6.109375 24.8125 6.109375 
Q 31.15625 6.109375 34.5625 8.28125 
Q 37.984375 10.453125 37.984375 14.40625 
Q 37.984375 18.0625 35.515625 20.015625 
Q 33.0625 21.96875 24.703125 23.78125 
L 21.578125 24.515625 
Q 13.234375 26.265625 9.515625 29.90625 
Q 5.8125 33.546875 5.8125 39.890625 
Q 5.8125 47.609375 11.28125 51.796875 
Q 16.75 56 26.8125 56 
Q 31.78125 56 36.171875 55.265625 
Q 40.578125 54.546875 44.28125 53.078125 
z
" id="DejaVuSans-115"/>
       <path d="M 30.421875 75.984375 
L 30.421875 -13.1875 
L 9.71875 -13.1875 
L 9.71875 -6.203125 
L 21.390625 -6.203125 
L 21.390625 69 
L 9.71875 69 
L 9.71875 75.984375 
z
" id="DejaVuSans-93"/>
      </defs>
      <use xlink:href="#DejaVuSans-116"/>
      <use x="39.208984" xlink:href="#DejaVuSans-32"/>
      <use x="70.996094" xlink:href="#DejaVuSans-91"/>
      <use x="110.009766" xlink:href="#DejaVuSans-115"/>
      <use x="162.109375" xlink:href="#DejaVuSans-93"/>
     </g>
    </g>
   </g>
   <g id="matplotlib.axis_2">
    <g id="ytick_1">
     <g id="line2d_13">
      <path clip-path="url(#pc226771fab)" d="M 42.620313 272.753953 
L 561.270312 272.753953 
" style="fill:none;stroke:#b0b0b0;stroke-linecap:square;stroke-width:0.8;"/>
     </g>
     <g id="line2d_14">
      <defs>
       <path d="M 0 0 
L -3.5 0 
" id="m49d0d12402" style="stroke:#000000;stroke-width:0.8;"/>
      </defs>
      <g>
       <use style="stroke:#000000;stroke-width:0.8;" x="42.620313" xlink:href="#m49d0d12402" y="272.753953"/>
      </g>
     </g>
     <g id="text_8">
      <!-- −4 -->
      <g transform="translate(20.878125 276.553172)scale(0.1 -0.1)">
       <defs>
        <path d="M 10.59375 35.5 
L 73.1875 35.5 
L 73.1875 27.203125 
L 10.59375 27.203125 
z
" id="DejaVuSans-8722"/>
       </defs>
       <use xlink:href="#DejaVuSans-8722"/>
       <use x="83.789062" xlink:href="#DejaVuSans-52"/>
      </g>
     </g>
    </g>
    <g id="ytick_2">
     <g id="line2d_15">
      <path clip-path="url(#pc226771fab)" d="M 42.620313 216.826977 
L 561.270312 216.826977 
" style="fill:none;stroke:#b0b0b0;stroke-linecap:square;stroke-width:0.8;"/>
     </g>
     <g id="line2d_16">
      <g>
       <use style="stroke:#000000;stroke-width:0.8;" x="42.620313" xlink:href="#m49d0d12402" y="216.826977"/>
      </g>
     </g>
     <g id="text_9">
      <!-- −2 -->
      <g transform="translate(20.878125 220.626195)scale(0.1 -0.1)">
       <use xlink:href="#DejaVuSans-8722"/>
       <use x="83.789062" xlink:href="#DejaVuSans-50"/>
      </g>
     </g>
    </g>
    <g id="ytick_3">
     <g id="line2d_17">
      <path clip-path="url(#pc226771fab)" d="M 42.620313 160.9 
L 561.270312 160.9 
" style="fill:none;stroke:#b0b0b0;stroke-linecap:square;stroke-width:0.8;"/>
     </g>
     <g id="line2d_18">
      <g>
       <use style="stroke:#000000;stroke-width:0.8;" x="42.620313" xlink:href="#m49d0d12402" y="160.9"/>
      </g>
     </g>
     <g id="text_10">
      <!-- 0 -->
      <g transform="translate(29.257813 164.699219)scale(0.1 -0.1)">
       <use xlink:href="#DejaVuSans-48"/>
      </g>
     </g>
    </g>
    <g id="ytick_4">
     <g id="line2d_19">
      <path clip-path="url(#pc226771fab)" d="M 42.620313 104.973023 
L 561.270312 104.973023 
" style="fill:none;stroke:#b0b0b0;stroke-linecap:square;stroke-width:0.8;"/>
     </g>
     <g id="line2d_20">
      <g>
       <use style="stroke:#000000;stroke-width:0.8;" x="42.620313" xlink:href="#m49d0d12402" y="104.973023"/>
      </g>
     </g>
     <g id="text_11">
      <!-- 2 -->
      <g transform="translate(29.257813 108.772242)scale(0.1 -0.1)">
       <use xlink:href="#DejaVuSans-50"/>
      </g>
     </g>
    </g>
    <g id="ytick_5">
     <g id="line2d_21">
      <path clip-path="url(#pc226771fab)" d="M 42.620313 49.046047 
L 561.270312 49.046047 
" style="fill:none;stroke:#b0b0b0;stroke-linecap:square;stroke-width:0.8;"/>
     </g>
     <g id="line2d_22">
      <g>
       <use style="stroke:#000000;stroke-width:0.8;" x="42.620313" xlink:href="#m49d0d12402" y="49.046047"/>
      </g>
     </g>
     <g id="text_12">
      <!-- 4 -->
      <g transform="translate(29.257813 52.845265)scale(0.1 -0.1)">
       <use xlink:href="#DejaVuSans-52"/>
      </g>
     </g>
    </g>
    <g id="text_13">
     <!-- [V] -->
     <g transform="translate(14.798438 168.221875)rotate(-90)scale(0.1 -0.1)">
      <defs>
       <path d="M 28.609375 0 
L 0.78125 72.90625 
L 11.078125 72.90625 
L 34.1875 11.53125 
L 57.328125 72.90625 
L 67.578125 72.90625 
L 39.796875 0 
z
" id="DejaVuSans-86"/>
      </defs>
      <use xlink:href="#DejaVuSans-91"/>
      <use x="39.013672" xlink:href="#DejaVuSans-86"/>
      <use x="107.421875" xlink:href="#DejaVuSans-93"/>
     </g>
    </g>
   </g>
   <g id="line2d_23">
    <path clip-path="url(#pc226771fab)" d="M 66.195312 160.9 
L 67.102043 160.7243 
L 71.635697 160.606897 
L 74.355889 160.379656 
L 76.169351 160.118534 
L 77.982812 159.481827 
L 78.889543 158.937314 
L 79.796274 158.137417 
L 80.703005 156.989992 
L 81.609736 155.27918 
L 82.516466 152.771544 
L 83.423197 149.045458 
L 84.329928 143.506743 
L 85.236659 135.31272 
L 86.143389 122.496758 
L 87.956851 90.269403 
L 89.770313 62.480028 
L 90.677043 50.809287 
L 91.583774 40.874743 
L 92.490505 32.833068 
L 93.397236 26.811085 
L 94.303966 22.903765 
L 95.210697 21.172727 
L 96.117428 21.645272 
L 97.024159 24.313948 
L 97.930889 29.136667 
L 98.83762 36.037373 
L 99.744351 44.907236 
L 100.651082 55.606375 
L 102.464543 81.791364 
L 104.278005 112.947039 
L 107.904928 182.150624 
L 110.62512 231.530597 
L 112.438582 259.319972 
L 113.345313 270.990713 
L 114.252043 280.925257 
L 115.158774 288.966932 
L 116.065505 294.988915 
L 116.972236 298.896235 
L 117.878966 300.627273 
L 118.785697 300.154728 
L 119.692428 297.486052 
L 120.599159 292.663333 
L 121.505889 285.762627 
L 122.41262 276.892764 
L 123.319351 266.193625 
L 125.132812 240.008636 
L 126.946274 208.852961 
L 130.573197 139.649376 
L 133.293389 90.269403 
L 135.106851 62.480028 
L 136.013582 50.809287 
L 136.920312 40.874743 
L 137.827043 32.833068 
L 138.733774 26.811085 
L 139.640505 22.903765 
L 140.547236 21.172727 
L 141.453966 21.645272 
L 142.360697 24.313948 
L 143.267428 29.136667 
L 144.174159 36.037373 
L 145.080889 44.907236 
L 145.98762 55.606375 
L 147.801082 81.791364 
L 149.614543 112.947039 
L 153.241466 182.150624 
L 155.961659 231.530597 
L 157.77512 259.319972 
L 158.681851 270.990713 
L 159.588582 280.925257 
L 160.495313 288.966932 
L 161.402043 294.988915 
L 162.308774 298.896235 
L 163.215505 300.627273 
L 164.122236 300.154728 
L 165.028966 297.486052 
L 165.935697 292.663333 
L 166.842428 285.762627 
L 167.749159 276.892764 
L 168.655889 266.193625 
L 170.469351 240.008636 
L 172.282813 208.852961 
L 175.909736 139.649376 
L 178.629928 90.269403 
L 180.443389 62.480028 
L 181.35012 50.809287 
L 182.256851 40.874743 
L 183.163582 32.833068 
L 184.070312 26.811085 
L 184.977043 22.903765 
L 185.883774 21.172727 
L 186.790505 21.645272 
L 187.697236 24.313948 
L 188.603966 29.136667 
L 189.510697 36.037373 
L 190.417428 44.907236 
L 191.324159 55.606375 
L 193.13762 81.791364 
L 194.951082 112.947039 
L 198.578005 182.150624 
L 201.298197 231.530597 
L 203.111659 259.319972 
L 204.018389 270.990713 
L 204.92512 280.925257 
L 205.831851 288.966932 
L 206.738582 294.988915 
L 207.645312 298.896235 
L 208.552043 300.627273 
L 209.458774 300.154728 
L 210.365505 297.486052 
L 211.272236 292.663333 
L 212.178966 285.762627 
L 213.085697 276.892764 
L 213.992428 266.193625 
L 215.805889 240.008636 
L 217.619351 208.852961 
L 221.246274 139.649376 
L 223.966466 90.269403 
L 225.779928 62.480028 
L 226.686659 50.809287 
L 227.593389 40.874743 
L 228.50012 32.833068 
L 229.406851 26.811085 
L 230.313582 22.903765 
L 231.220313 21.172727 
L 232.127043 21.645272 
L 233.033774 24.313948 
L 233.940505 29.136667 
L 234.847236 36.037373 
L 235.753966 44.907236 
L 236.660697 55.606375 
L 238.474159 81.791364 
L 240.28762 112.947039 
L 243.914543 182.150624 
L 246.634736 231.530597 
L 248.448197 259.319972 
L 249.354928 270.990713 
L 250.261659 280.925257 
L 251.168389 288.966932 
L 252.07512 294.988915 
L 252.981851 298.896235 
L 253.888582 300.627273 
L 254.795312 300.154728 
L 255.702043 297.486052 
L 256.608774 292.663333 
L 257.515505 285.762627 
L 258.422236 276.892764 
L 259.328966 266.193625 
L 261.142428 240.008636 
L 262.955889 208.852961 
L 266.582812 139.649376 
L 269.303005 90.269403 
L 271.116466 62.480028 
L 272.023197 50.809287 
L 272.929928 40.874743 
L 273.836659 32.833068 
L 274.743389 26.811085 
L 275.65012 22.903765 
L 276.556851 21.172727 
L 277.463582 21.645272 
L 278.370313 24.313948 
L 279.277043 29.136667 
L 280.183774 36.037373 
L 281.090505 44.907236 
L 281.997236 55.606375 
L 283.810697 81.791364 
L 285.624159 112.947039 
L 289.251082 182.150624 
L 291.971274 231.530597 
L 293.784736 259.319972 
L 294.691466 270.990713 
L 295.598197 280.925257 
L 296.504928 288.966932 
L 297.411659 294.988915 
L 298.318389 298.896235 
L 299.22512 300.627273 
L 300.131851 300.154728 
L 301.038582 297.486052 
L 301.945312 292.663333 
L 302.852043 285.762627 
L 303.758774 276.892764 
L 304.665505 266.193625 
L 306.478966 240.008636 
L 308.292428 208.852961 
L 311.919351 139.649376 
L 314.639543 90.269403 
L 316.453005 62.480028 
L 317.359736 50.809287 
L 318.266466 40.874743 
L 319.173197 32.833068 
L 320.079928 26.811085 
L 320.986659 22.903765 
L 321.893389 21.172727 
L 322.80012 21.645272 
L 323.706851 24.313948 
L 324.613582 29.136667 
L 325.520312 36.037373 
L 326.427043 44.907236 
L 327.333774 55.606375 
L 329.147236 81.791364 
L 330.960697 112.947039 
L 334.58762 182.150624 
L 337.307813 231.530597 
L 339.121274 259.319972 
L 340.028005 270.990713 
L 340.934736 280.925257 
L 341.841466 288.966932 
L 342.748197 294.988915 
L 343.654928 298.896235 
L 344.561659 300.627273 
L 345.468389 300.154728 
L 346.37512 297.486052 
L 347.281851 292.663333 
L 348.188582 285.762627 
L 349.095312 276.892764 
L 350.002043 266.193625 
L 351.815505 240.008636 
L 353.628966 208.852961 
L 357.255889 139.649376 
L 359.976082 90.269403 
L 361.789543 62.480028 
L 362.696274 50.809287 
L 363.603005 40.874743 
L 364.509736 32.833068 
L 365.416466 26.811085 
L 366.323197 22.903765 
L 367.229928 21.172727 
L 368.136659 21.645272 
L 369.043389 24.313948 
L 369.95012 29.136667 
L 370.856851 36.037373 
L 371.763582 44.907236 
L 372.670313 55.606375 
L 374.483774 81.791364 
L 376.297236 112.947039 
L 379.924159 182.150624 
L 382.644351 231.530597 
L 384.457812 259.319972 
L 385.364543 270.990713 
L 386.271274 280.925257 
L 387.178005 288.966932 
L 388.084736 294.988915 
L 388.991466 298.896235 
L 389.898197 300.627273 
L 390.804928 300.154728 
L 391.711659 297.486052 
L 392.618389 292.663333 
L 393.52512 285.762627 
L 394.431851 276.892764 
L 395.338582 266.193625 
L 397.152043 240.008636 
L 398.965505 208.852961 
L 402.592428 139.649376 
L 405.31262 90.269403 
L 407.126082 62.480028 
L 408.032812 50.809287 
L 408.939543 40.874743 
L 409.846274 32.833068 
L 410.753005 26.811085 
L 411.659736 22.903765 
L 412.566466 21.172727 
L 413.473197 21.645272 
L 414.379928 24.313948 
L 415.286659 29.136667 
L 416.193389 36.037373 
L 417.10012 44.907236 
L 418.006851 55.606375 
L 419.820312 81.791364 
L 421.633774 112.947039 
L 425.260697 182.150624 
L 427.980889 231.530597 
L 429.794351 259.319972 
L 430.701082 270.990713 
L 431.607813 280.925257 
L 432.514543 288.966932 
L 433.421274 294.988915 
L 434.328005 298.896235 
L 435.234736 300.627273 
L 436.141466 300.154728 
L 437.048197 297.486052 
L 437.954928 292.663333 
L 438.861659 285.762627 
L 439.768389 276.892764 
L 440.67512 266.193625 
L 442.488582 240.008636 
L 444.302043 208.852961 
L 447.928966 139.649376 
L 450.649159 90.269403 
L 452.46262 62.480028 
L 453.369351 50.809287 
L 454.276082 40.874743 
L 455.182813 32.833068 
L 456.089543 26.811085 
L 456.996274 22.903765 
L 457.903005 21.172727 
L 458.809736 21.645272 
L 459.716466 24.313948 
L 460.623197 29.136667 
L 461.529928 36.037373 
L 462.436659 44.907236 
L 463.343389 55.606375 
L 465.156851 81.791364 
L 466.970312 112.947039 
L 470.597236 182.150624 
L 473.317428 231.530597 
L 475.130889 259.319972 
L 476.03762 270.990713 
L 476.944351 280.925257 
L 477.851082 288.966932 
L 478.757812 294.988915 
L 479.664543 298.896235 
L 480.571274 300.627273 
L 481.478005 300.154728 
L 482.384736 297.486052 
L 483.291466 292.663333 
L 484.198197 285.762627 
L 485.104928 276.892764 
L 486.011659 266.193625 
L 487.82512 240.008636 
L 489.638582 208.852961 
L 493.265505 139.649376 
L 495.985697 90.269403 
L 497.799159 62.480028 
L 498.705889 50.809287 
L 499.61262 40.874743 
L 500.519351 32.833068 
L 501.426082 26.811085 
L 502.332812 22.903765 
L 503.239543 21.172727 
L 504.146274 21.645272 
L 505.053005 24.313948 
L 505.959736 29.136667 
L 506.866466 36.037373 
L 507.773197 44.907236 
L 508.679928 55.606375 
L 510.493389 81.791364 
L 512.306851 112.947039 
L 515.933774 182.150624 
L 518.653966 231.530597 
L 520.467428 259.319972 
L 521.374159 270.990713 
L 522.280889 280.925257 
L 523.18762 288.966932 
L 524.094351 294.988915 
L 525.001082 298.896235 
L 525.907812 300.627273 
L 526.814543 300.154728 
L 527.721274 297.486052 
L 528.628005 292.663333 
L 529.534736 285.762627 
L 530.441466 276.892764 
L 531.348197 266.193625 
L 533.161659 240.008636 
L 534.97512 208.852961 
L 536.788582 174.684226 
L 537.695312 160.9 
L 537.695312 160.9 
" style="fill:none;stroke:#1f77b4;stroke-linecap:square;stroke-width:1.5;"/>
   </g>
   <g id="line2d_24">
    <path clip-path="url(#pc226771fab)" d="M 66.195312 160.899713 
L 67.102043 161.052195 
L 71.635697 161.168216 
L 74.355889 161.395339 
L 76.169351 161.656434 
L 77.982812 162.293133 
L 78.889543 162.83764 
L 79.796274 163.637542 
L 80.703005 164.784967 
L 81.609736 166.495788 
L 82.516466 169.003441 
L 83.423197 172.729567 
L 84.329928 178.268374 
L 85.236659 186.462604 
L 86.143389 199.279062 
L 87.956851 231.508806 
L 89.770313 259.30192 
L 90.677043 270.974956 
L 91.583774 280.912062 
L 92.490505 288.956479 
L 93.397236 294.981388 
L 94.303966 298.891725 
L 95.210697 300.625869 
L 96.117428 300.156424 
L 97.024159 297.490842 
L 97.930889 292.671112 
L 98.83762 285.773292 
L 99.744351 276.906118 
L 100.651082 266.209477 
L 102.464543 240.028662 
L 104.278005 208.875884 
L 107.904928 139.67363 
L 110.62512 90.290619 
L 112.438582 62.497505 
L 113.345313 50.82447 
L 114.252043 40.887362 
L 115.158774 32.842946 
L 116.065505 26.818037 
L 116.972236 22.907701 
L 117.878966 21.173556 
L 118.785697 21.643001 
L 119.692428 24.308583 
L 120.599159 29.128314 
L 121.505889 36.026133 
L 122.41262 44.893308 
L 123.319351 55.589948 
L 125.132812 81.770763 
L 126.946274 112.92354 
L 130.573197 182.125795 
L 133.293389 231.508806 
L 135.106851 259.301921 
L 136.013582 270.974955 
L 136.920312 280.912063 
L 137.827043 288.956479 
L 138.733774 294.981388 
L 139.640505 298.891724 
L 140.547236 300.625869 
L 141.453966 300.156423 
L 142.360697 297.490842 
L 143.267428 292.671111 
L 144.174159 285.773293 
L 145.080889 276.906117 
L 145.98762 266.209477 
L 147.801082 240.028662 
L 149.614543 208.875885 
L 153.241466 139.67363 
L 155.961659 90.290619 
L 157.77512 62.497504 
L 158.681851 50.82447 
L 159.588582 40.887362 
L 160.495313 32.842947 
L 161.402043 26.818037 
L 162.308774 22.907701 
L 163.215505 21.173556 
L 164.122236 21.643002 
L 165.028966 24.308583 
L 165.935697 29.128314 
L 166.842428 36.026132 
L 167.749159 44.893308 
L 168.655889 55.589948 
L 170.469351 81.770763 
L 172.282813 112.92354 
L 175.909736 182.125795 
L 178.629928 231.508806 
L 180.443389 259.301921 
L 181.35012 270.974955 
L 182.256851 280.912063 
L 183.163582 288.956478 
L 184.070312 294.981388 
L 184.977043 298.891724 
L 185.883774 300.625869 
L 186.790505 300.156423 
L 187.697236 297.490842 
L 188.603966 292.671111 
L 189.510697 285.773293 
L 190.417428 276.906117 
L 191.324159 266.209477 
L 193.13762 240.028662 
L 194.951082 208.875885 
L 198.578005 139.67363 
L 201.298197 90.290619 
L 203.111659 62.497504 
L 204.018389 50.82447 
L 204.92512 40.887362 
L 205.831851 32.842947 
L 206.738582 26.818037 
L 207.645312 22.907701 
L 208.552043 21.173556 
L 209.458774 21.643002 
L 210.365505 24.308583 
L 211.272236 29.128314 
L 212.178966 36.026132 
L 213.085697 44.893308 
L 213.992428 55.589948 
L 215.805889 81.770763 
L 217.619351 112.92354 
L 221.246274 182.125795 
L 223.966466 231.508806 
L 225.779928 259.301921 
L 226.686659 270.974955 
L 227.593389 280.912063 
L 228.50012 288.956478 
L 229.406851 294.981388 
L 230.313582 298.891724 
L 231.220313 300.625869 
L 232.127043 300.156423 
L 233.033774 297.490842 
L 233.940505 292.671111 
L 234.847236 285.773293 
L 235.753966 276.906117 
L 236.660697 266.209477 
L 238.474159 240.028662 
L 240.28762 208.875885 
L 243.914543 139.67363 
L 246.634736 90.290619 
L 248.448197 62.497504 
L 249.354928 50.82447 
L 250.261659 40.887362 
L 251.168389 32.842946 
L 252.07512 26.818037 
L 252.981851 22.907701 
L 253.888582 21.173556 
L 254.795312 21.643001 
L 255.702043 24.308583 
L 256.608774 29.128314 
L 257.515505 36.026133 
L 258.422236 44.893308 
L 259.328966 55.589948 
L 261.142428 81.770763 
L 262.955889 112.92354 
L 266.582812 182.125795 
L 269.303005 231.508806 
L 271.116466 259.30192 
L 272.023197 270.974955 
L 272.929928 280.912063 
L 273.836659 288.956479 
L 274.743389 294.981388 
L 275.65012 298.891724 
L 276.556851 300.625869 
L 277.463582 300.156424 
L 278.370313 297.490842 
L 279.277043 292.671112 
L 280.183774 285.773292 
L 281.090505 276.906117 
L 281.997236 266.209477 
L 283.810697 240.028662 
L 285.624159 208.875884 
L 289.251082 139.67363 
L 291.971274 90.290619 
L 293.784736 62.497505 
L 294.691466 50.824469 
L 295.598197 40.887363 
L 296.504928 32.842946 
L 297.411659 26.818037 
L 298.318389 22.9077 
L 299.22512 21.173556 
L 300.131851 21.643001 
L 301.038582 24.308583 
L 301.945312 29.128313 
L 302.852043 36.026133 
L 303.758774 44.893307 
L 304.665505 55.589949 
L 306.478966 81.770763 
L 308.292428 112.923541 
L 311.919351 182.125796 
L 314.639543 231.508806 
L 316.453005 259.30192 
L 317.359736 270.974956 
L 318.266466 280.912062 
L 319.173197 288.956479 
L 320.079928 294.981387 
L 320.986659 298.891725 
L 321.893389 300.625868 
L 322.80012 300.156424 
L 323.706851 297.490841 
L 324.613582 292.671112 
L 325.520312 285.773292 
L 326.427043 276.906118 
L 327.333774 266.209476 
L 329.147236 240.028661 
L 330.960697 208.875884 
L 334.58762 139.673629 
L 337.307813 90.29062 
L 339.121274 62.497505 
L 340.028005 50.824469 
L 340.934736 40.887363 
L 341.841466 32.842945 
L 342.748197 26.818038 
L 343.654928 22.9077 
L 344.561659 21.173557 
L 345.468389 21.643 
L 346.37512 24.308584 
L 347.281851 29.128313 
L 348.188582 36.026134 
L 349.095312 44.893307 
L 350.002043 55.589949 
L 351.815505 81.770764 
L 353.628966 112.923541 
L 357.255889 182.125796 
L 359.976082 231.508805 
L 361.789543 259.301919 
L 362.696274 270.974956 
L 363.603005 280.912062 
L 364.509736 288.95648 
L 365.416466 294.981387 
L 366.323197 298.891725 
L 367.229928 300.625868 
L 368.136659 300.156425 
L 369.043389 297.490841 
L 369.95012 292.671113 
L 370.856851 285.773291 
L 371.763582 276.906118 
L 372.670313 266.209476 
L 374.483774 240.028661 
L 376.297236 208.875883 
L 379.924159 139.673628 
L 382.644351 90.29062 
L 384.457812 62.497506 
L 385.364543 50.824468 
L 386.271274 40.887364 
L 387.178005 32.842945 
L 388.084736 26.818038 
L 388.991466 22.907699 
L 389.898197 21.173558 
L 390.804928 21.643 
L 391.711659 24.308585 
L 392.618389 29.128312 
L 393.52512 36.026134 
L 394.431851 44.893306 
L 395.338582 55.58995 
L 397.152043 81.770765 
L 398.965505 112.923542 
L 402.592428 182.125797 
L 405.31262 231.508804 
L 407.126082 259.301919 
L 408.032812 270.974957 
L 408.939543 280.912061 
L 409.846274 288.956481 
L 410.753005 294.981386 
L 411.659736 298.891726 
L 412.566466 300.625867 
L 413.473197 300.156426 
L 414.379928 297.49084 
L 415.286659 292.671113 
L 416.193389 285.77329 
L 417.10012 276.906119 
L 418.006851 266.209475 
L 419.820312 240.02866 
L 421.633774 208.875883 
L 425.260697 139.673628 
L 427.980889 90.290621 
L 429.794351 62.497507 
L 430.701082 50.824468 
L 431.607813 40.887364 
L 432.514543 32.842944 
L 433.421274 26.818039 
L 434.328005 22.907699 
L 435.234736 21.173558 
L 436.141466 21.642999 
L 437.048197 24.308585 
L 437.954928 29.128311 
L 438.861659 36.026135 
L 439.768389 44.893306 
L 440.67512 55.58995 
L 442.488582 81.770765 
L 444.302043 112.923543 
L 447.928966 182.125798 
L 450.649159 231.508804 
L 452.46262 259.301918 
L 453.369351 270.974958 
L 454.276082 280.91206 
L 455.182813 288.956481 
L 456.089543 294.981386 
L 456.996274 298.891727 
L 457.903005 300.625866 
L 458.809736 300.156426 
L 459.716466 297.490839 
L 460.623197 292.671114 
L 461.529928 285.77329 
L 462.436659 276.90612 
L 463.343389 266.209474 
L 465.156851 240.028659 
L 466.970312 208.875882 
L 470.597236 139.673627 
L 473.317428 90.290622 
L 475.130889 62.497507 
L 476.03762 50.824467 
L 476.944351 40.887365 
L 477.851082 32.842943 
L 478.757812 26.81804 
L 479.664543 22.907698 
L 480.571274 21.173559 
L 481.478005 21.642998 
L 482.384736 24.308586 
L 483.291466 29.128311 
L 484.198197 36.026136 
L 485.104928 44.893305 
L 486.011659 55.589951 
L 487.82512 81.770766 
L 489.638582 112.923543 
L 493.265505 182.125798 
L 495.985697 231.508803 
L 497.799159 259.301917 
L 498.705889 270.974958 
L 499.61262 280.91206 
L 500.519351 288.956482 
L 501.426082 294.981385 
L 502.332812 298.891727 
L 503.239543 300.625866 
L 504.146274 300.156427 
L 505.053005 297.490839 
L 505.959736 292.671115 
L 506.866466 285.773289 
L 507.773197 276.90612 
L 508.679928 266.209474 
L 510.493389 240.028659 
L 512.306851 208.875881 
L 515.933774 139.673626 
L 518.653966 90.290622 
L 520.467428 62.497508 
L 521.374159 50.824466 
L 522.280889 40.887366 
L 523.18762 32.842943 
L 524.094351 26.81804 
L 525.001082 22.907697 
L 525.907812 21.17356 
L 526.814543 21.642998 
L 527.721274 24.308587 
L 528.628005 29.12831 
L 529.534736 36.026136 
L 530.441466 44.893304 
L 531.348197 55.589952 
L 533.161659 81.770767 
L 534.97512 112.923544 
L 536.788582 147.09084 
L 537.695312 160.874952 
L 537.695312 160.874952 
" style="fill:none;stroke:#ff7f0e;stroke-linecap:square;stroke-width:1.5;"/>
   </g>
   <g id="patch_3">
    <path d="M 42.620313 314.6 
L 42.620313 7.2 
" style="fill:none;stroke:#000000;stroke-linecap:square;stroke-linejoin:miter;stroke-width:0.8;"/>
   </g>
   <g id="patch_4">
    <path d="M 561.270312 314.6 
L 561.270312 7.2 
" style="fill:none;stroke:#000000;stroke-linecap:square;stroke-linejoin:miter;stroke-width:0.8;"/>
   </g>
   <g id="patch_5">
    <path d="M 42.620312 314.6 
L 561.270313 314.6 
" style="fill:none;stroke:#000000;stroke-linecap:square;stroke-linejoin:miter;stroke-width:0.8;"/>
   </g>
   <g id="patch_6">
    <path d="M 42.620312 7.2 
L 561.270313 7.2 
" style="fill:none;stroke:#000000;stroke-linecap:square;stroke-linejoin:miter;stroke-width:0.8;"/>
   </g>
   <g id="legend_1">
    <g id="patch_7">
     <path d="M 459.540313 68.68 
L 531.804375 68.68 
Q 533.804375 68.68 533.804375 66.68 
L 533.804375 38.32375 
Q 533.804375 36.32375 531.804375 36.32375 
L 459.540313 36.32375 
Q 457.540313 36.32375 457.540313 38.32375 
L 457.540313 66.68 
Q 457.540313 68.68 459.540313 68.68 
z
" style="fill:#ffffff;opacity:0.8;stroke:#cccccc;stroke-linejoin:miter;"/>
    </g>
    <g id="line2d_25">
     <path d="M 461.540313 44.422187 
L 481.540313 44.422187 
" style="fill:none;stroke:#1f77b4;stroke-linecap:square;stroke-width:1.5;"/>
    </g>
    <g id="line2d_26"/>
    <g id="text_14">
     <!-- Vin [V] -->
     <g transform="translate(489.540313 47.922187)scale(0.1 -0.1)">
      <defs>
       <path d="M 9.421875 54.6875 
L 18.40625 54.6875 
L 18.40625 0 
L 9.421875 0 
z
M 9.421875 75.984375 
L 18.40625 75.984375 
L 18.40625 64.59375 
L 9.421875 64.59375 
z
" id="DejaVuSans-105"/>
       <path d="M 54.890625 33.015625 
L 54.890625 0 
L 45.90625 0 
L 45.90625 32.71875 
Q 45.90625 40.484375 42.875 44.328125 
Q 39.84375 48.1875 33.796875 48.1875 
Q 26.515625 48.1875 22.3125 43.546875 
Q 18.109375 38.921875 18.109375 30.90625 
L 18.109375 0 
L 9.078125 0 
L 9.078125 54.6875 
L 18.109375 54.6875 
L 18.109375 46.1875 
Q 21.34375 51.125 25.703125 53.5625 
Q 30.078125 56 35.796875 56 
Q 45.21875 56 50.046875 50.171875 
Q 54.890625 44.34375 54.890625 33.015625 
z
" id="DejaVuSans-110"/>
      </defs>
      <use xlink:href="#DejaVuSans-86"/>
      <use x="66.158203" xlink:href="#DejaVuSans-105"/>
      <use x="93.941406" xlink:href="#DejaVuSans-110"/>
      <use x="157.320312" xlink:href="#DejaVuSans-32"/>
      <use x="189.107422" xlink:href="#DejaVuSans-91"/>
      <use x="228.121094" xlink:href="#DejaVuSans-86"/>
      <use x="296.529297" xlink:href="#DejaVuSans-93"/>
     </g>
    </g>
    <g id="line2d_27">
     <path d="M 461.540313 59.100312 
L 481.540313 59.100312 
" style="fill:none;stroke:#ff7f0e;stroke-linecap:square;stroke-width:1.5;"/>
    </g>
    <g id="line2d_28"/>
    <g id="text_15">
     <!-- Vout [V] -->
     <g transform="translate(489.540313 62.600312)scale(0.1 -0.1)">
      <defs>
       <path d="M 30.609375 48.390625 
Q 23.390625 48.390625 19.1875 42.75 
Q 14.984375 37.109375 14.984375 27.296875 
Q 14.984375 17.484375 19.15625 11.84375 
Q 23.34375 6.203125 30.609375 6.203125 
Q 37.796875 6.203125 41.984375 11.859375 
Q 46.1875 17.53125 46.1875 27.296875 
Q 46.1875 37.015625 41.984375 42.703125 
Q 37.796875 48.390625 30.609375 48.390625 
z
M 30.609375 56 
Q 42.328125 56 49.015625 48.375 
Q 55.71875 40.765625 55.71875 27.296875 
Q 55.71875 13.875 49.015625 6.21875 
Q 42.328125 -1.421875 30.609375 -1.421875 
Q 18.84375 -1.421875 12.171875 6.21875 
Q 5.515625 13.875 5.515625 27.296875 
Q 5.515625 40.765625 12.171875 48.375 
Q 18.84375 56 30.609375 56 
z
" id="DejaVuSans-111"/>
       <path d="M 8.5 21.578125 
L 8.5 54.6875 
L 17.484375 54.6875 
L 17.484375 21.921875 
Q 17.484375 14.15625 20.5 10.265625 
Q 23.53125 6.390625 29.59375 6.390625 
Q 36.859375 6.390625 41.078125 11.03125 
Q 45.3125 15.671875 45.3125 23.6875 
L 45.3125 54.6875 
L 54.296875 54.6875 
L 54.296875 0 
L 45.3125 0 
L 45.3125 8.40625 
Q 42.046875 3.421875 37.71875 1 
Q 33.40625 -1.421875 27.6875 -1.421875 
Q 18.265625 -1.421875 13.375 4.4375 
Q 8.5 10.296875 8.5 21.578125 
z
M 31.109375 56 
z
" id="DejaVuSans-117"/>
      </defs>
      <use xlink:href="#DejaVuSans-86"/>
      <use x="60.658203" xlink:href="#DejaVuSans-111"/>
      <use x="121.839844" xlink:href="#DejaVuSans-117"/>
      <use x="185.21875" xlink:href="#DejaVuSans-116"/>
      <use x="224.427734" xlink:href="#DejaVuSans-32"/>
      <use x="256.214844" xlink:href="#DejaVuSans-91"/>
      <use x="295.228516" xlink:href="#DejaVuSans-86"/>
      <use x="363.636719" xlink:href="#DejaVuSans-93"/>
     </g>
    </g>
   </g>
  </g>
 </g>
 <defs>
  <clipPath id="pc226771fab">
   <rect height="307.4" width="518.65" x="42.620313" y="7.2"/>
  </clipPath>
 </defs>
</svg>
