<?xml version="1.0" encoding="utf-8" standalone="no"?>
<!DOCTYPE svg PUBLIC "-//W3C//DTD SVG 1.1//EN"
  "http://www.w3.org/Graphics/SVG/1.1/DTD/svg11.dtd">
<!-- Created with matplotlib (https://matplotlib.org/) -->
<svg height="712.15625pt" version="1.1" viewBox="0 0 1432.470312 712.15625" width="1432.470312pt" xmlns="http://www.w3.org/2000/svg" xmlns:xlink="http://www.w3.org/1999/xlink">
 <metadata>
  <rdf:RDF xmlns:cc="http://creativecommons.org/ns#" xmlns:dc="http://purl.org/dc/elements/1.1/" xmlns:rdf="http://www.w3.org/1999/02/22-rdf-syntax-ns#">
   <cc:Work>
    <dc:type rdf:resource="http://purl.org/dc/dcmitype/StillImage"/>
    <dc:date>2020-07-24T13:21:56.971767</dc:date>
    <dc:format>image/svg+xml</dc:format>
    <dc:creator>
     <cc:Agent>
      <dc:title>Matplotlib v3.3.0, https://matplotlib.org/</dc:title>
     </cc:Agent>
    </dc:creator>
   </cc:Work>
  </rdf:RDF>
 </metadata>
 <defs>
  <style type="text/css">*{stroke-linecap:butt;stroke-linejoin:round;}</style>
 </defs>
 <g id="figure_1">
  <g id="patch_1">
   <path d="M -0 712.15625 
L 1432.470312 712.15625 
L 1432.470312 0 
L -0 0 
z
" style="fill:none;"/>
  </g>
  <g id="axes_1">
   <g id="patch_2">
    <path d="M 42.620313 674.6 
L 1425.270313 674.6 
L 1425.270313 7.2 
L 42.620313 7.2 
z
" style="fill:#ffffff;"/>
   </g>
   <g id="matplotlib.axis_1">
    <g id="xtick_1">
     <g id="line2d_1">
      <path clip-path="url(#p7fe8b00051)" d="M 105.46804 674.6 
L 105.46804 7.2 
" style="fill:none;stroke:#b0b0b0;stroke-linecap:square;stroke-width:0.8;"/>
     </g>
     <g id="line2d_2">
      <defs>
       <path d="M 0 0 
L 0 3.5 
" id="m6fc15c260d" style="stroke:#000000;stroke-width:0.8;"/>
      </defs>
      <g>
       <use style="stroke:#000000;stroke-width:0.8;" x="105.46804" xlink:href="#m6fc15c260d" y="674.6"/>
      </g>
     </g>
     <g id="text_1">
      <!-- 0 -->
      <g transform="translate(102.28679 689.198437)scale(0.1 -0.1)">
       <defs>
        <path d="M 31.78125 66.40625 
Q 24.171875 66.40625 20.328125 58.90625 
Q 16.5 51.421875 16.5 36.375 
Q 16.5 21.390625 20.328125 13.890625 
Q 24.171875 6.390625 31.78125 6.390625 
Q 39.453125 6.390625 43.28125 13.890625 
Q 47.125 21.390625 47.125 36.375 
Q 47.125 51.421875 43.28125 58.90625 
Q 39.453125 66.40625 31.78125 66.40625 
z
M 31.78125 74.21875 
Q 44.046875 74.21875 50.515625 64.515625 
Q 56.984375 54.828125 56.984375 36.375 
Q 56.984375 17.96875 50.515625 8.265625 
Q 44.046875 -1.421875 31.78125 -1.421875 
Q 19.53125 -1.421875 13.0625 8.265625 
Q 6.59375 17.96875 6.59375 36.375 
Q 6.59375 54.828125 13.0625 64.515625 
Q 19.53125 74.21875 31.78125 74.21875 
z
" id="DejaVuSans-48"/>
       </defs>
       <use xlink:href="#DejaVuSans-48"/>
      </g>
     </g>
    </g>
    <g id="xtick_2">
     <g id="line2d_3">
      <path clip-path="url(#p7fe8b00051)" d="M 347.190068 674.6 
L 347.190068 7.2 
" style="fill:none;stroke:#b0b0b0;stroke-linecap:square;stroke-width:0.8;"/>
     </g>
     <g id="line2d_4">
      <g>
       <use style="stroke:#000000;stroke-width:0.8;" x="347.190068" xlink:href="#m6fc15c260d" y="674.6"/>
      </g>
     </g>
     <g id="text_2">
      <!-- 100 -->
      <g transform="translate(337.646318 689.198437)scale(0.1 -0.1)">
       <defs>
        <path d="M 12.40625 8.296875 
L 28.515625 8.296875 
L 28.515625 63.921875 
L 10.984375 60.40625 
L 10.984375 69.390625 
L 28.421875 72.90625 
L 38.28125 72.90625 
L 38.28125 8.296875 
L 54.390625 8.296875 
L 54.390625 0 
L 12.40625 0 
z
" id="DejaVuSans-49"/>
       </defs>
       <use xlink:href="#DejaVuSans-49"/>
       <use x="63.623047" xlink:href="#DejaVuSans-48"/>
       <use x="127.246094" xlink:href="#DejaVuSans-48"/>
      </g>
     </g>
    </g>
    <g id="xtick_3">
     <g id="line2d_5">
      <path clip-path="url(#p7fe8b00051)" d="M 588.912096 674.6 
L 588.912096 7.2 
" style="fill:none;stroke:#b0b0b0;stroke-linecap:square;stroke-width:0.8;"/>
     </g>
     <g id="line2d_6">
      <g>
       <use style="stroke:#000000;stroke-width:0.8;" x="588.912096" xlink:href="#m6fc15c260d" y="674.6"/>
      </g>
     </g>
     <g id="text_3">
      <!-- 200 -->
      <g transform="translate(579.368346 689.198437)scale(0.1 -0.1)">
       <defs>
        <path d="M 19.1875 8.296875 
L 53.609375 8.296875 
L 53.609375 0 
L 7.328125 0 
L 7.328125 8.296875 
Q 12.9375 14.109375 22.625 23.890625 
Q 32.328125 33.6875 34.8125 36.53125 
Q 39.546875 41.84375 41.421875 45.53125 
Q 43.3125 49.21875 43.3125 52.78125 
Q 43.3125 58.59375 39.234375 62.25 
Q 35.15625 65.921875 28.609375 65.921875 
Q 23.96875 65.921875 18.8125 64.3125 
Q 13.671875 62.703125 7.8125 59.421875 
L 7.8125 69.390625 
Q 13.765625 71.78125 18.9375 73 
Q 24.125 74.21875 28.421875 74.21875 
Q 39.75 74.21875 46.484375 68.546875 
Q 53.21875 62.890625 53.21875 53.421875 
Q 53.21875 48.921875 51.53125 44.890625 
Q 49.859375 40.875 45.40625 35.40625 
Q 44.1875 33.984375 37.640625 27.21875 
Q 31.109375 20.453125 19.1875 8.296875 
z
" id="DejaVuSans-50"/>
       </defs>
       <use xlink:href="#DejaVuSans-50"/>
       <use x="63.623047" xlink:href="#DejaVuSans-48"/>
       <use x="127.246094" xlink:href="#DejaVuSans-48"/>
      </g>
     </g>
    </g>
    <g id="xtick_4">
     <g id="line2d_7">
      <path clip-path="url(#p7fe8b00051)" d="M 830.634124 674.6 
L 830.634124 7.2 
" style="fill:none;stroke:#b0b0b0;stroke-linecap:square;stroke-width:0.8;"/>
     </g>
     <g id="line2d_8">
      <g>
       <use style="stroke:#000000;stroke-width:0.8;" x="830.634124" xlink:href="#m6fc15c260d" y="674.6"/>
      </g>
     </g>
     <g id="text_4">
      <!-- 300 -->
      <g transform="translate(821.090374 689.198437)scale(0.1 -0.1)">
       <defs>
        <path d="M 40.578125 39.3125 
Q 47.65625 37.796875 51.625 33 
Q 55.609375 28.21875 55.609375 21.1875 
Q 55.609375 10.40625 48.1875 4.484375 
Q 40.765625 -1.421875 27.09375 -1.421875 
Q 22.515625 -1.421875 17.65625 -0.515625 
Q 12.796875 0.390625 7.625 2.203125 
L 7.625 11.71875 
Q 11.71875 9.328125 16.59375 8.109375 
Q 21.484375 6.890625 26.8125 6.890625 
Q 36.078125 6.890625 40.9375 10.546875 
Q 45.796875 14.203125 45.796875 21.1875 
Q 45.796875 27.640625 41.28125 31.265625 
Q 36.765625 34.90625 28.71875 34.90625 
L 20.21875 34.90625 
L 20.21875 43.015625 
L 29.109375 43.015625 
Q 36.375 43.015625 40.234375 45.921875 
Q 44.09375 48.828125 44.09375 54.296875 
Q 44.09375 59.90625 40.109375 62.90625 
Q 36.140625 65.921875 28.71875 65.921875 
Q 24.65625 65.921875 20.015625 65.03125 
Q 15.375 64.15625 9.8125 62.3125 
L 9.8125 71.09375 
Q 15.4375 72.65625 20.34375 73.4375 
Q 25.25 74.21875 29.59375 74.21875 
Q 40.828125 74.21875 47.359375 69.109375 
Q 53.90625 64.015625 53.90625 55.328125 
Q 53.90625 49.265625 50.4375 45.09375 
Q 46.96875 40.921875 40.578125 39.3125 
z
" id="DejaVuSans-51"/>
       </defs>
       <use xlink:href="#DejaVuSans-51"/>
       <use x="63.623047" xlink:href="#DejaVuSans-48"/>
       <use x="127.246094" xlink:href="#DejaVuSans-48"/>
      </g>
     </g>
    </g>
    <g id="xtick_5">
     <g id="line2d_9">
      <path clip-path="url(#p7fe8b00051)" d="M 1072.356152 674.6 
L 1072.356152 7.2 
" style="fill:none;stroke:#b0b0b0;stroke-linecap:square;stroke-width:0.8;"/>
     </g>
     <g id="line2d_10">
      <g>
       <use style="stroke:#000000;stroke-width:0.8;" x="1072.356152" xlink:href="#m6fc15c260d" y="674.6"/>
      </g>
     </g>
     <g id="text_5">
      <!-- 400 -->
      <g transform="translate(1062.812402 689.198437)scale(0.1 -0.1)">
       <defs>
        <path d="M 37.796875 64.3125 
L 12.890625 25.390625 
L 37.796875 25.390625 
z
M 35.203125 72.90625 
L 47.609375 72.90625 
L 47.609375 25.390625 
L 58.015625 25.390625 
L 58.015625 17.1875 
L 47.609375 17.1875 
L 47.609375 0 
L 37.796875 0 
L 37.796875 17.1875 
L 4.890625 17.1875 
L 4.890625 26.703125 
z
" id="DejaVuSans-52"/>
       </defs>
       <use xlink:href="#DejaVuSans-52"/>
       <use x="63.623047" xlink:href="#DejaVuSans-48"/>
       <use x="127.246094" xlink:href="#DejaVuSans-48"/>
      </g>
     </g>
    </g>
    <g id="xtick_6">
     <g id="line2d_11">
      <path clip-path="url(#p7fe8b00051)" d="M 1314.07818 674.6 
L 1314.07818 7.2 
" style="fill:none;stroke:#b0b0b0;stroke-linecap:square;stroke-width:0.8;"/>
     </g>
     <g id="line2d_12">
      <g>
       <use style="stroke:#000000;stroke-width:0.8;" x="1314.07818" xlink:href="#m6fc15c260d" y="674.6"/>
      </g>
     </g>
     <g id="text_6">
      <!-- 500 -->
      <g transform="translate(1304.53443 689.198437)scale(0.1 -0.1)">
       <defs>
        <path d="M 10.796875 72.90625 
L 49.515625 72.90625 
L 49.515625 64.59375 
L 19.828125 64.59375 
L 19.828125 46.734375 
Q 21.96875 47.46875 24.109375 47.828125 
Q 26.265625 48.1875 28.421875 48.1875 
Q 40.625 48.1875 47.75 41.5 
Q 54.890625 34.8125 54.890625 23.390625 
Q 54.890625 11.625 47.5625 5.09375 
Q 40.234375 -1.421875 26.90625 -1.421875 
Q 22.3125 -1.421875 17.546875 -0.640625 
Q 12.796875 0.140625 7.71875 1.703125 
L 7.71875 11.625 
Q 12.109375 9.234375 16.796875 8.0625 
Q 21.484375 6.890625 26.703125 6.890625 
Q 35.15625 6.890625 40.078125 11.328125 
Q 45.015625 15.765625 45.015625 23.390625 
Q 45.015625 31 40.078125 35.4375 
Q 35.15625 39.890625 26.703125 39.890625 
Q 22.75 39.890625 18.8125 39.015625 
Q 14.890625 38.140625 10.796875 36.28125 
z
" id="DejaVuSans-53"/>
       </defs>
       <use xlink:href="#DejaVuSans-53"/>
       <use x="63.623047" xlink:href="#DejaVuSans-48"/>
       <use x="127.246094" xlink:href="#DejaVuSans-48"/>
      </g>
     </g>
    </g>
    <g id="text_7">
     <!-- t [s] -->
     <g transform="translate(723.889844 702.876562)scale(0.1 -0.1)">
      <defs>
       <path d="M 18.3125 70.21875 
L 18.3125 54.6875 
L 36.8125 54.6875 
L 36.8125 47.703125 
L 18.3125 47.703125 
L 18.3125 18.015625 
Q 18.3125 11.328125 20.140625 9.421875 
Q 21.96875 7.515625 27.59375 7.515625 
L 36.8125 7.515625 
L 36.8125 0 
L 27.59375 0 
Q 17.1875 0 13.234375 3.875 
Q 9.28125 7.765625 9.28125 18.015625 
L 9.28125 47.703125 
L 2.6875 47.703125 
L 2.6875 54.6875 
L 9.28125 54.6875 
L 9.28125 70.21875 
z
" id="DejaVuSans-116"/>
       <path id="DejaVuSans-32"/>
       <path d="M 8.59375 75.984375 
L 29.296875 75.984375 
L 29.296875 69 
L 17.578125 69 
L 17.578125 -6.203125 
L 29.296875 -6.203125 
L 29.296875 -13.1875 
L 8.59375 -13.1875 
z
" id="DejaVuSans-91"/>
       <path d="M 44.28125 53.078125 
L 44.28125 44.578125 
Q 40.484375 46.53125 36.375 47.5 
Q 32.28125 48.484375 27.875 48.484375 
Q 21.1875 48.484375 17.84375 46.4375 
Q 14.5 44.390625 14.5 40.28125 
Q 14.5 37.15625 16.890625 35.375 
Q 19.28125 33.59375 26.515625 31.984375 
L 29.59375 31.296875 
Q 39.15625 29.25 43.1875 25.515625 
Q 47.21875 21.78125 47.21875 15.09375 
Q 47.21875 7.46875 41.1875 3.015625 
Q 35.15625 -1.421875 24.609375 -1.421875 
Q 20.21875 -1.421875 15.453125 -0.5625 
Q 10.6875 0.296875 5.421875 2 
L 5.421875 11.28125 
Q 10.40625 8.6875 15.234375 7.390625 
Q 20.0625 6.109375 24.8125 6.109375 
Q 31.15625 6.109375 34.5625 8.28125 
Q 37.984375 10.453125 37.984375 14.40625 
Q 37.984375 18.0625 35.515625 20.015625 
Q 33.0625 21.96875 24.703125 23.78125 
L 21.578125 24.515625 
Q 13.234375 26.265625 9.515625 29.90625 
Q 5.8125 33.546875 5.8125 39.890625 
Q 5.8125 47.609375 11.28125 51.796875 
Q 16.75 56 26.8125 56 
Q 31.78125 56 36.171875 55.265625 
Q 40.578125 54.546875 44.28125 53.078125 
z
" id="DejaVuSans-115"/>
       <path d="M 30.421875 75.984375 
L 30.421875 -13.1875 
L 9.71875 -13.1875 
L 9.71875 -6.203125 
L 21.390625 -6.203125 
L 21.390625 69 
L 9.71875 69 
L 9.71875 75.984375 
z
" id="DejaVuSans-93"/>
      </defs>
      <use xlink:href="#DejaVuSans-116"/>
      <use x="39.208984" xlink:href="#DejaVuSans-32"/>
      <use x="70.996094" xlink:href="#DejaVuSans-91"/>
      <use x="110.009766" xlink:href="#DejaVuSans-115"/>
      <use x="162.109375" xlink:href="#DejaVuSans-93"/>
     </g>
    </g>
   </g>
   <g id="matplotlib.axis_2">
    <g id="ytick_1">
     <g id="line2d_13">
      <path clip-path="url(#p7fe8b00051)" d="M 42.620313 583.750164 
L 1425.270313 583.750164 
" style="fill:none;stroke:#b0b0b0;stroke-linecap:square;stroke-width:0.8;"/>
     </g>
     <g id="line2d_14">
      <defs>
       <path d="M 0 0 
L -3.5 0 
" id="m223bb680e9" style="stroke:#000000;stroke-width:0.8;"/>
      </defs>
      <g>
       <use style="stroke:#000000;stroke-width:0.8;" x="42.620313" xlink:href="#m223bb680e9" y="583.750164"/>
      </g>
     </g>
     <g id="text_8">
      <!-- −4 -->
      <g transform="translate(20.878125 587.549383)scale(0.1 -0.1)">
       <defs>
        <path d="M 10.59375 35.5 
L 73.1875 35.5 
L 73.1875 27.203125 
L 10.59375 27.203125 
z
" id="DejaVuSans-8722"/>
       </defs>
       <use xlink:href="#DejaVuSans-8722"/>
       <use x="83.789062" xlink:href="#DejaVuSans-52"/>
      </g>
     </g>
    </g>
    <g id="ytick_2">
     <g id="line2d_15">
      <path clip-path="url(#p7fe8b00051)" d="M 42.620313 462.325082 
L 1425.270313 462.325082 
" style="fill:none;stroke:#b0b0b0;stroke-linecap:square;stroke-width:0.8;"/>
     </g>
     <g id="line2d_16">
      <g>
       <use style="stroke:#000000;stroke-width:0.8;" x="42.620313" xlink:href="#m223bb680e9" y="462.325082"/>
      </g>
     </g>
     <g id="text_9">
      <!-- −2 -->
      <g transform="translate(20.878125 466.124301)scale(0.1 -0.1)">
       <use xlink:href="#DejaVuSans-8722"/>
       <use x="83.789062" xlink:href="#DejaVuSans-50"/>
      </g>
     </g>
    </g>
    <g id="ytick_3">
     <g id="line2d_17">
      <path clip-path="url(#p7fe8b00051)" d="M 42.620313 340.9 
L 1425.270313 340.9 
" style="fill:none;stroke:#b0b0b0;stroke-linecap:square;stroke-width:0.8;"/>
     </g>
     <g id="line2d_18">
      <g>
       <use style="stroke:#000000;stroke-width:0.8;" x="42.620313" xlink:href="#m223bb680e9" y="340.9"/>
      </g>
     </g>
     <g id="text_10">
      <!-- 0 -->
      <g transform="translate(29.257813 344.699219)scale(0.1 -0.1)">
       <use xlink:href="#DejaVuSans-48"/>
      </g>
     </g>
    </g>
    <g id="ytick_4">
     <g id="line2d_19">
      <path clip-path="url(#p7fe8b00051)" d="M 42.620313 219.474918 
L 1425.270313 219.474918 
" style="fill:none;stroke:#b0b0b0;stroke-linecap:square;stroke-width:0.8;"/>
     </g>
     <g id="line2d_20">
      <g>
       <use style="stroke:#000000;stroke-width:0.8;" x="42.620313" xlink:href="#m223bb680e9" y="219.474918"/>
      </g>
     </g>
     <g id="text_11">
      <!-- 2 -->
      <g transform="translate(29.257813 223.274137)scale(0.1 -0.1)">
       <use xlink:href="#DejaVuSans-50"/>
      </g>
     </g>
    </g>
    <g id="ytick_5">
     <g id="line2d_21">
      <path clip-path="url(#p7fe8b00051)" d="M 42.620313 98.049836 
L 1425.270313 98.049836 
" style="fill:none;stroke:#b0b0b0;stroke-linecap:square;stroke-width:0.8;"/>
     </g>
     <g id="line2d_22">
      <g>
       <use style="stroke:#000000;stroke-width:0.8;" x="42.620313" xlink:href="#m223bb680e9" y="98.049836"/>
      </g>
     </g>
     <g id="text_12">
      <!-- 4 -->
      <g transform="translate(29.257813 101.849054)scale(0.1 -0.1)">
       <use xlink:href="#DejaVuSans-52"/>
      </g>
     </g>
    </g>
    <g id="text_13">
     <!-- [V] -->
     <g transform="translate(14.798438 348.221875)rotate(-90)scale(0.1 -0.1)">
      <defs>
       <path d="M 28.609375 0 
L 0.78125 72.90625 
L 11.078125 72.90625 
L 34.1875 11.53125 
L 57.328125 72.90625 
L 67.578125 72.90625 
L 39.796875 0 
z
" id="DejaVuSans-86"/>
      </defs>
      <use xlink:href="#DejaVuSans-91"/>
      <use x="39.013672" xlink:href="#DejaVuSans-86"/>
      <use x="107.421875" xlink:href="#DejaVuSans-93"/>
     </g>
    </g>
   </g>
   <g id="line2d_23">
    <path clip-path="url(#p7fe8b00051)" d="M 105.46804 340.9 
L 107.88526 340.518532 
L 117.554141 340.388001 
L 124.805802 339.94339 
L 129.640243 339.491496 
L 132.057463 339.204122 
L 134.474683 338.629377 
L 136.891903 337.825785 
L 139.309124 336.637885 
L 141.726344 334.90508 
L 144.143564 332.409434 
L 146.560785 328.694314 
L 148.978005 323.253338 
L 151.395225 315.163842 
L 153.812445 303.15734 
L 156.229666 285.393483 
L 158.646886 257.609328 
L 161.064106 221.679747 
L 163.481326 187.63034 
L 165.898547 155.998088 
L 168.315767 127.281849 
L 170.732987 101.934496 
L 173.150208 80.355771 
L 175.567428 62.885985 
L 177.984648 49.800646 
L 180.401868 41.306118 
L 182.819089 37.536364 
L 185.236309 38.550835 
L 187.653529 44.333534 
L 190.07075 54.793263 
L 192.48797 69.765067 
L 194.90519 89.01283 
L 197.32241 112.233004 
L 199.739631 139.059393 
L 202.156851 169.06893 
L 204.574071 201.788344 
L 206.991292 236.701633 
L 211.825732 310.881504 
L 219.077393 424.190672 
L 221.494613 460.120253 
L 223.911833 494.16966 
L 226.329054 525.801912 
L 228.746274 554.518151 
L 231.163494 579.865504 
L 233.580715 601.444229 
L 235.997935 618.914015 
L 238.415155 631.999354 
L 240.832375 640.493882 
L 243.249596 644.263636 
L 245.666816 643.249165 
L 248.084036 637.466466 
L 250.501257 627.006737 
L 252.918477 612.034933 
L 255.335697 592.78717 
L 257.752917 569.566996 
L 260.170138 542.740607 
L 262.587358 512.73107 
L 265.004578 480.011656 
L 267.421799 445.098367 
L 272.256239 370.918496 
L 279.5079 257.609328 
L 281.92512 221.679747 
L 284.34234 187.63034 
L 286.759561 155.998088 
L 289.176781 127.281849 
L 291.594001 101.934496 
L 294.011222 80.355771 
L 296.428442 62.885985 
L 298.845662 49.800646 
L 301.262882 41.306118 
L 303.680103 37.536364 
L 306.097323 38.550835 
L 308.514543 44.333534 
L 310.931764 54.793263 
L 313.348984 69.765067 
L 315.766204 89.01283 
L 318.183424 112.233004 
L 320.600645 139.059393 
L 323.017865 169.06893 
L 325.435085 201.788344 
L 327.852306 236.701633 
L 332.686746 310.881504 
L 339.938407 424.190672 
L 342.355627 460.120253 
L 344.772847 494.16966 
L 347.190068 525.801912 
L 349.607288 554.518151 
L 352.024508 579.865504 
L 354.441729 601.444229 
L 356.858949 618.914015 
L 359.276169 631.999354 
L 361.693389 640.493882 
L 364.11061 644.263636 
L 366.52783 643.249165 
L 368.94505 637.466466 
L 371.362271 627.006737 
L 373.779491 612.034933 
L 376.196711 592.78717 
L 378.613931 569.566996 
L 381.031152 542.740607 
L 383.448372 512.73107 
L 385.865592 480.011656 
L 388.282812 445.098367 
L 393.117253 370.918496 
L 400.368914 257.609328 
L 402.786134 221.679747 
L 405.203354 187.63034 
L 407.620575 155.998088 
L 410.037795 127.281849 
L 412.455015 101.934496 
L 414.872236 80.355771 
L 417.289456 62.885985 
L 419.706676 49.800646 
L 422.123896 41.306118 
L 424.541117 37.536364 
L 426.958337 38.550835 
L 429.375557 44.333534 
L 431.792778 54.793263 
L 434.209998 69.765067 
L 436.627218 89.01283 
L 439.044438 112.233004 
L 441.461659 139.059393 
L 443.878879 169.06893 
L 446.296099 201.788344 
L 448.713319 236.701633 
L 453.54776 310.881504 
L 460.799421 424.190672 
L 463.216641 460.120253 
L 465.633861 494.16966 
L 468.051082 525.801912 
L 470.468302 554.518151 
L 472.885522 579.865504 
L 475.302743 601.444229 
L 477.719963 618.914015 
L 480.137183 631.999354 
L 482.554403 640.493882 
L 484.971624 644.263636 
L 487.388844 643.249165 
L 489.806064 637.466466 
L 492.223285 627.006737 
L 494.640505 612.034933 
L 497.057725 592.78717 
L 499.474945 569.566996 
L 501.892166 542.740607 
L 504.309386 512.73107 
L 506.726606 480.011656 
L 509.143826 445.098367 
L 513.978267 370.918496 
L 521.229928 257.609328 
L 523.647148 221.679747 
L 526.064368 187.63034 
L 528.481589 155.998088 
L 530.898809 127.281849 
L 533.316029 101.934496 
L 535.73325 80.355771 
L 538.15047 62.885985 
L 540.56769 49.800646 
L 542.98491 41.306118 
L 545.402131 37.536364 
L 547.819351 38.550835 
L 550.236571 44.333534 
L 552.653792 54.793263 
L 555.071012 69.765067 
L 557.488232 89.01283 
L 559.905452 112.233004 
L 562.322673 139.059393 
L 564.739893 169.06893 
L 567.157113 201.788344 
L 569.574333 236.701633 
L 574.408774 310.881504 
L 581.660435 424.190672 
L 584.077655 460.120253 
L 586.494875 494.16966 
L 588.912096 525.801912 
L 591.329316 554.518151 
L 593.746536 579.865504 
L 596.163757 601.444229 
L 598.580977 618.914015 
L 600.998197 631.999354 
L 603.415417 640.493882 
L 605.832638 644.263636 
L 608.249858 643.249165 
L 610.667078 637.466466 
L 613.084299 627.006737 
L 615.501519 612.034933 
L 617.918739 592.78717 
L 620.335959 569.566996 
L 622.75318 542.740607 
L 625.1704 512.73107 
L 627.58762 480.011656 
L 630.00484 445.098367 
L 634.839281 370.918496 
L 642.090942 257.609328 
L 644.508162 221.679747 
L 646.925382 187.63034 
L 649.342603 155.998088 
L 651.759823 127.281849 
L 654.177043 101.934496 
L 656.594264 80.355771 
L 659.011484 62.885985 
L 661.428704 49.800646 
L 663.845924 41.306118 
L 666.263145 37.536364 
L 668.680365 38.550835 
L 671.097585 44.333534 
L 673.514806 54.793263 
L 675.932026 69.765067 
L 678.349246 89.01283 
L 680.766466 112.233004 
L 683.183687 139.059393 
L 685.600907 169.06893 
L 688.018127 201.788344 
L 690.435347 236.701633 
L 695.269788 310.881504 
L 702.521449 424.190672 
L 704.938669 460.120253 
L 707.355889 494.16966 
L 709.77311 525.801912 
L 712.19033 554.518151 
L 714.60755 579.865504 
L 717.024771 601.444229 
L 719.441991 618.914015 
L 721.859211 631.999354 
L 724.276431 640.493882 
L 726.693652 644.263636 
L 729.110872 643.249165 
L 731.528092 637.466466 
L 733.945312 627.006737 
L 736.362533 612.034933 
L 738.779753 592.78717 
L 741.196973 569.566996 
L 743.614194 542.740607 
L 746.031414 512.73107 
L 748.448634 480.011656 
L 750.865854 445.098367 
L 755.700295 370.918496 
L 762.951956 257.609328 
L 765.369176 221.679747 
L 767.786396 187.63034 
L 770.203617 155.998088 
L 772.620837 127.281849 
L 775.038057 101.934496 
L 777.455278 80.355771 
L 779.872498 62.885985 
L 782.289718 49.800646 
L 784.706938 41.306118 
L 787.124159 37.536364 
L 789.541379 38.550835 
L 791.958599 44.333534 
L 794.375819 54.793263 
L 796.79304 69.765067 
L 799.21026 89.01283 
L 801.62748 112.233004 
L 804.044701 139.059393 
L 806.461921 169.06893 
L 808.879141 201.788344 
L 811.296361 236.701633 
L 816.130802 310.881504 
L 823.382463 424.190672 
L 825.799683 460.120253 
L 828.216903 494.16966 
L 830.634124 525.801912 
L 833.051344 554.518151 
L 835.468564 579.865504 
L 837.885785 601.444229 
L 840.303005 618.914015 
L 842.720225 631.999354 
L 845.137445 640.493882 
L 847.554666 644.263636 
L 849.971886 643.249165 
L 852.389106 637.466466 
L 854.806326 627.006737 
L 857.223547 612.034933 
L 859.640767 592.78717 
L 862.057987 569.566996 
L 864.475208 542.740607 
L 866.892428 512.73107 
L 869.309648 480.011656 
L 871.726868 445.098367 
L 876.561309 370.918496 
L 883.81297 257.609328 
L 886.23019 221.679747 
L 888.64741 187.63034 
L 891.064631 155.998088 
L 893.481851 127.281849 
L 895.899071 101.934496 
L 898.316292 80.355771 
L 900.733512 62.885985 
L 903.150732 49.800646 
L 905.567952 41.306118 
L 907.985173 37.536364 
L 910.402393 38.550835 
L 912.819613 44.333534 
L 915.236833 54.793263 
L 917.654054 69.765067 
L 920.071274 89.01283 
L 922.488494 112.233004 
L 924.905715 139.059393 
L 927.322935 169.06893 
L 929.740155 201.788344 
L 932.157375 236.701633 
L 936.991816 310.881504 
L 944.243477 424.190672 
L 946.660697 460.120253 
L 949.077917 494.16966 
L 951.495138 525.801912 
L 953.912358 554.518151 
L 956.329578 579.865504 
L 958.746799 601.444229 
L 961.164019 618.914015 
L 963.581239 631.999354 
L 965.998459 640.493882 
L 968.41568 644.263636 
L 970.8329 643.249165 
L 973.25012 637.466466 
L 975.66734 627.006737 
L 978.084561 612.034933 
L 980.501781 592.78717 
L 982.919001 569.566996 
L 985.336222 542.740607 
L 987.753442 512.73107 
L 990.170662 480.011656 
L 992.587882 445.098367 
L 997.422323 370.918496 
L 1004.673984 257.609328 
L 1007.091204 221.679747 
L 1009.508424 187.63034 
L 1011.925645 155.998088 
L 1014.342865 127.281849 
L 1016.760085 101.934496 
L 1019.177306 80.355771 
L 1021.594526 62.885985 
L 1024.011746 49.800646 
L 1026.428966 41.306118 
L 1028.846187 37.536364 
L 1031.263407 38.550835 
L 1033.680627 44.333534 
L 1036.097847 54.793263 
L 1038.515068 69.765067 
L 1040.932288 89.01283 
L 1043.349508 112.233004 
L 1045.766729 139.059393 
L 1048.183949 169.06893 
L 1050.601169 201.788344 
L 1053.018389 236.701633 
L 1057.85283 310.881504 
L 1065.104491 424.190672 
L 1067.521711 460.120253 
L 1069.938931 494.16966 
L 1072.356152 525.801912 
L 1074.773372 554.518151 
L 1077.190592 579.865504 
L 1079.607813 601.444229 
L 1082.025033 618.914015 
L 1084.442253 631.999354 
L 1086.859473 640.493882 
L 1089.276694 644.263636 
L 1091.693914 643.249165 
L 1094.111134 637.466466 
L 1096.528354 627.006737 
L 1098.945575 612.034933 
L 1101.362795 592.78717 
L 1103.780015 569.566996 
L 1106.197236 542.740607 
L 1108.614456 512.73107 
L 1111.031676 480.011656 
L 1113.448896 445.098367 
L 1118.283337 370.918496 
L 1125.534998 257.609328 
L 1127.952218 221.679747 
L 1130.369438 187.63034 
L 1132.786659 155.998088 
L 1135.203879 127.281849 
L 1137.621099 101.934496 
L 1140.038319 80.355771 
L 1142.45554 62.885985 
L 1144.87276 49.800646 
L 1147.28998 41.306118 
L 1149.707201 37.536364 
L 1152.124421 38.550835 
L 1154.541641 44.333534 
L 1156.958861 54.793263 
L 1159.376082 69.765067 
L 1161.793302 89.01283 
L 1164.210522 112.233004 
L 1166.627743 139.059393 
L 1169.044963 169.06893 
L 1171.462183 201.788344 
L 1173.879403 236.701633 
L 1178.713844 310.881504 
L 1185.965505 424.190672 
L 1188.382725 460.120253 
L 1190.799945 494.16966 
L 1193.217166 525.801912 
L 1195.634386 554.518151 
L 1198.051606 579.865504 
L 1200.468826 601.444229 
L 1202.886047 618.914015 
L 1205.303267 631.999354 
L 1207.720487 640.493882 
L 1210.137708 644.263636 
L 1212.554928 643.249165 
L 1214.972148 637.466466 
L 1217.389368 627.006737 
L 1219.806589 612.034933 
L 1222.223809 592.78717 
L 1224.641029 569.566996 
L 1227.05825 542.740607 
L 1229.47547 512.73107 
L 1231.89269 480.011656 
L 1234.30991 445.098367 
L 1239.144351 370.918496 
L 1246.396012 257.609328 
L 1248.813232 221.679747 
L 1251.230452 187.63034 
L 1253.647673 155.998088 
L 1256.064893 127.281849 
L 1258.482113 101.934496 
L 1260.899333 80.355771 
L 1263.316554 62.885985 
L 1265.733774 49.800646 
L 1268.150994 41.306118 
L 1270.568215 37.536364 
L 1272.985435 38.550835 
L 1275.402655 44.333534 
L 1277.819875 54.793263 
L 1280.237096 69.765067 
L 1282.654316 89.01283 
L 1285.071536 112.233004 
L 1287.488757 139.059393 
L 1289.905977 169.06893 
L 1292.323197 201.788344 
L 1294.740417 236.701633 
L 1299.574858 310.881504 
L 1306.826519 424.190672 
L 1309.243739 460.120253 
L 1311.660959 494.16966 
L 1314.07818 525.801912 
L 1316.4954 554.518151 
L 1318.91262 579.865504 
L 1321.32984 601.444229 
L 1323.747061 618.914015 
L 1326.164281 631.999354 
L 1328.581501 640.493882 
L 1330.998722 644.263636 
L 1333.415942 643.249165 
L 1335.833162 637.466466 
L 1338.250382 627.006737 
L 1340.667603 612.034933 
L 1343.084823 592.78717 
L 1345.502043 569.566996 
L 1347.919264 542.740607 
L 1350.336484 512.73107 
L 1352.753704 480.011656 
L 1355.170924 445.098367 
L 1360.005365 370.918496 
L 1362.422585 340.9 
L 1362.422585 340.9 
" style="fill:none;stroke:#1f77b4;stroke-linecap:square;stroke-width:1.5;"/>
   </g>
   <g id="line2d_24">
    <path clip-path="url(#p7fe8b00051)" d="M 105.46804 340.899291 
L 107.88526 341.230508 
L 117.554141 341.35681 
L 124.805802 341.802238 
L 129.640243 342.25419 
L 132.057463 342.54164 
L 134.474683 343.116345 
L 136.891903 343.919961 
L 139.309124 345.107849 
L 141.726344 346.840666 
L 144.143564 349.336315 
L 146.560785 353.051457 
L 148.978005 358.492472 
L 151.395225 366.582063 
L 153.812445 378.588773 
L 156.229666 396.353091 
L 158.646886 424.138341 
L 161.064106 460.070119 
L 163.481326 494.122552 
L 165.898547 525.758512 
L 168.315767 554.479182 
L 170.732987 579.831519 
L 173.150208 601.415803 
L 175.567428 618.891535 
L 177.984648 631.983215 
L 180.401868 640.484275 
L 182.819089 644.260753 
L 185.236309 643.252988 
L 187.653529 637.476976 
L 190.07075 627.023705 
L 192.48797 612.058133 
L 194.90519 592.816173 
L 197.32241 569.601384 
L 199.739631 542.779775 
L 202.156851 512.774442 
L 204.574071 480.058483 
L 206.991292 445.147953 
L 211.825732 370.971138 
L 219.077393 257.66024 
L 221.494613 221.728464 
L 223.911833 187.676029 
L 226.329054 156.040071 
L 228.746274 127.319399 
L 231.163494 101.967063 
L 233.580715 80.382778 
L 235.997935 62.907048 
L 238.415155 49.815367 
L 240.832375 41.314308 
L 243.249596 37.537828 
L 245.666816 38.545595 
L 248.084036 44.321605 
L 250.501257 54.774877 
L 252.918477 69.740448 
L 255.335697 88.98241 
L 257.752917 112.197197 
L 260.170138 139.018808 
L 262.587358 169.024139 
L 265.004578 201.7401 
L 267.421799 236.650628 
L 272.256239 310.827443 
L 279.5079 424.138343 
L 281.92512 460.070118 
L 284.34234 494.122553 
L 286.759561 525.758511 
L 289.176781 554.479184 
L 291.594001 579.831518 
L 294.011222 601.415805 
L 296.428442 618.891534 
L 298.845662 631.983216 
L 301.262882 640.484274 
L 303.680103 644.260754 
L 306.097323 643.252987 
L 308.514543 637.476978 
L 310.931764 627.023704 
L 313.348984 612.058135 
L 315.766204 592.816171 
L 318.183424 569.601385 
L 320.600645 542.779774 
L 323.017865 512.774443 
L 325.435085 480.058482 
L 327.852306 445.147954 
L 332.686746 370.971139 
L 339.938407 257.660239 
L 342.355627 221.728465 
L 344.772847 187.676028 
L 347.190068 156.040072 
L 349.607288 127.319398 
L 352.024508 101.967064 
L 354.441729 80.382777 
L 356.858949 62.907048 
L 359.276169 49.815366 
L 361.693389 41.314308 
L 364.11061 37.537827 
L 366.52783 38.545595 
L 368.94505 44.321604 
L 371.362271 54.774878 
L 373.779491 69.740447 
L 376.196711 88.982411 
L 378.613931 112.197196 
L 381.031152 139.018809 
L 383.448372 169.024139 
L 385.865592 201.7401 
L 388.282812 236.650628 
L 393.117253 310.827443 
L 400.368914 424.138343 
L 402.786134 460.070117 
L 405.203354 494.122554 
L 407.620575 525.75851 
L 410.037795 554.479184 
L 412.455015 579.831517 
L 414.872236 601.415805 
L 417.289456 618.891533 
L 419.706676 631.983216 
L 422.123896 640.484274 
L 424.541117 644.260755 
L 426.958337 643.252986 
L 429.375557 637.476978 
L 431.792778 627.023704 
L 434.209998 612.058135 
L 436.627218 592.816171 
L 439.044438 569.601386 
L 441.461659 542.779773 
L 443.878879 512.774443 
L 446.296099 480.058481 
L 448.713319 445.147954 
L 453.54776 370.971139 
L 460.799421 257.660238 
L 463.216641 221.728465 
L 465.633861 187.676028 
L 468.051082 156.040072 
L 470.468302 127.319398 
L 472.885522 101.967064 
L 475.302743 80.382777 
L 477.719963 62.907049 
L 480.137183 49.815366 
L 482.554403 41.314308 
L 484.971624 37.537827 
L 487.388844 38.545596 
L 489.806064 44.321604 
L 492.223285 54.774878 
L 494.640505 69.740447 
L 497.057725 88.982411 
L 499.474945 112.197196 
L 501.892166 139.018809 
L 504.309386 169.024139 
L 506.726606 201.7401 
L 509.143826 236.650628 
L 513.978267 310.827443 
L 521.229928 424.138343 
L 523.647148 460.070117 
L 526.064368 494.122554 
L 528.481589 525.75851 
L 530.898809 554.479184 
L 533.316029 579.831518 
L 535.73325 601.415805 
L 538.15047 618.891534 
L 540.56769 631.983216 
L 542.98491 640.484274 
L 545.402131 644.260755 
L 547.819351 643.252987 
L 550.236571 637.476978 
L 552.653792 627.023704 
L 555.071012 612.058135 
L 557.488232 592.816171 
L 559.905452 569.601385 
L 562.322673 542.779774 
L 564.739893 512.774443 
L 567.157113 480.058482 
L 569.574333 445.147954 
L 574.408774 370.971139 
L 581.660435 257.660239 
L 584.077655 221.728464 
L 586.494875 187.676029 
L 588.912096 156.040071 
L 591.329316 127.319398 
L 593.746536 101.967064 
L 596.163757 80.382777 
L 598.580977 62.907048 
L 600.998197 49.815366 
L 603.415417 41.314308 
L 605.832638 37.537828 
L 608.249858 38.545595 
L 610.667078 44.321605 
L 613.084299 54.774878 
L 615.501519 69.740448 
L 617.918739 88.98241 
L 620.335959 112.197197 
L 622.75318 139.018808 
L 625.1704 169.024139 
L 627.58762 201.7401 
L 630.00484 236.650628 
L 634.839281 310.827444 
L 642.090942 424.138343 
L 644.508162 460.070118 
L 646.925382 494.122553 
L 649.342603 525.758511 
L 651.759823 554.479183 
L 654.177043 579.831518 
L 656.594264 601.415804 
L 659.011484 618.891534 
L 661.428704 631.983215 
L 663.845924 640.484275 
L 666.263145 644.260754 
L 668.680365 643.252987 
L 671.097585 637.476977 
L 673.514806 627.023705 
L 675.932026 612.058134 
L 678.349246 592.816172 
L 680.766466 569.601384 
L 683.183687 542.779774 
L 685.600907 512.774442 
L 688.018127 480.058483 
L 690.435347 445.147953 
L 695.269788 370.971138 
L 702.521449 257.66024 
L 704.938669 221.728464 
L 707.355889 187.676029 
L 709.77311 156.040071 
L 712.19033 127.319399 
L 714.60755 101.967063 
L 717.024771 80.382778 
L 719.441991 62.907047 
L 721.859211 49.815367 
L 724.276431 41.314307 
L 726.693652 37.537829 
L 729.110872 38.545594 
L 731.528092 44.321606 
L 733.945312 54.774877 
L 736.362533 69.740449 
L 738.779753 88.982409 
L 741.196973 112.197198 
L 743.614194 139.018807 
L 746.031414 169.02414 
L 748.448634 201.740099 
L 750.865854 236.650629 
L 755.700295 310.827445 
L 762.951956 424.138342 
L 765.369176 460.070119 
L 767.786396 494.122552 
L 770.203617 525.758512 
L 772.620837 554.479182 
L 775.038057 579.831519 
L 777.455278 601.415803 
L 779.872498 618.891535 
L 782.289718 631.983214 
L 784.706938 640.484276 
L 787.124159 644.260753 
L 789.541379 643.252989 
L 791.958599 637.476976 
L 794.375819 627.023706 
L 796.79304 612.058133 
L 799.21026 592.816173 
L 801.62748 569.601383 
L 804.044701 542.779776 
L 806.461921 512.774441 
L 808.879141 480.058484 
L 811.296361 445.147952 
L 816.130802 370.971137 
L 823.382463 257.660241 
L 825.799683 221.728462 
L 828.216903 187.676031 
L 830.634124 156.040069 
L 833.051344 127.3194 
L 835.468564 101.967062 
L 837.885785 80.38278 
L 840.303005 62.907046 
L 842.720225 49.815368 
L 845.137445 41.314306 
L 847.554666 37.53783 
L 849.971886 38.545593 
L 852.389106 44.321607 
L 854.806326 54.774875 
L 857.223547 69.74045 
L 859.640767 88.982408 
L 862.057987 112.197199 
L 864.475208 139.018806 
L 866.892428 169.024141 
L 869.309648 201.740097 
L 871.726868 236.650631 
L 876.561309 310.827446 
L 883.81297 424.13834 
L 886.23019 460.07012 
L 888.64741 494.122551 
L 891.064631 525.758513 
L 893.481851 554.479181 
L 895.899071 579.831521 
L 898.316292 601.415802 
L 900.733512 618.891537 
L 903.150732 631.983213 
L 905.567952 640.484277 
L 907.985173 644.260751 
L 910.402393 643.25299 
L 912.819613 637.476974 
L 915.236833 627.023707 
L 917.654054 612.058131 
L 920.071274 592.816175 
L 922.488494 569.601382 
L 924.905715 542.779777 
L 927.322935 512.77444 
L 929.740155 480.058485 
L 932.157375 445.147951 
L 936.991816 370.971135 
L 944.243477 257.660242 
L 946.660697 221.728461 
L 949.077917 187.676032 
L 951.495138 156.040068 
L 953.912358 127.319402 
L 956.329578 101.96706 
L 958.746799 80.382781 
L 961.164019 62.907044 
L 963.581239 49.81537 
L 965.998459 41.314304 
L 968.41568 37.537831 
L 970.8329 38.545591 
L 973.25012 44.321608 
L 975.66734 54.774874 
L 978.084561 69.740451 
L 980.501781 88.982407 
L 982.919001 112.197201 
L 985.336222 139.018804 
L 987.753442 169.024143 
L 990.170662 201.740096 
L 992.587882 236.650632 
L 997.422323 310.827447 
L 1004.673984 424.138339 
L 1007.091204 460.070122 
L 1009.508424 494.122549 
L 1011.925645 525.758515 
L 1014.342865 554.479179 
L 1016.760085 579.831522 
L 1019.177306 601.4158 
L 1021.594526 618.891538 
L 1024.011746 631.983211 
L 1026.428966 640.484278 
L 1028.846187 644.26075 
L 1031.263407 643.252991 
L 1033.680627 637.476973 
L 1036.097847 627.023709 
L 1038.515068 612.05813 
L 1040.932288 592.816176 
L 1043.349508 569.601381 
L 1045.766729 542.779778 
L 1048.183949 512.774438 
L 1050.601169 480.058487 
L 1053.018389 445.147949 
L 1057.85283 370.971134 
L 1065.104491 257.660244 
L 1067.521711 221.728459 
L 1069.938931 187.676033 
L 1072.356152 156.040066 
L 1074.773372 127.319403 
L 1077.190592 101.967059 
L 1079.607813 80.382782 
L 1082.025033 62.907043 
L 1084.442253 49.815371 
L 1086.859473 41.314303 
L 1089.276694 37.537833 
L 1091.693914 38.54559 
L 1094.111134 44.32161 
L 1096.528354 54.774872 
L 1098.945575 69.740453 
L 1101.362795 88.982405 
L 1103.780015 112.197202 
L 1106.197236 139.018803 
L 1108.614456 169.024144 
L 1111.031676 201.740095 
L 1113.448896 236.650634 
L 1118.283337 310.827449 
L 1125.534998 424.138337 
L 1127.952218 460.070123 
L 1130.369438 494.122548 
L 1132.786659 525.758516 
L 1135.203879 554.479178 
L 1137.621099 579.831524 
L 1140.038319 601.415799 
L 1142.45554 618.89154 
L 1144.87276 631.98321 
L 1147.28998 640.48428 
L 1149.707201 644.260748 
L 1152.124421 643.252993 
L 1154.541641 637.476971 
L 1156.958861 627.02371 
L 1159.376082 612.058129 
L 1161.793302 592.816178 
L 1164.210522 569.601379 
L 1166.627743 542.77978 
L 1169.044963 512.774437 
L 1171.462183 480.058488 
L 1173.879403 445.147948 
L 1178.713844 370.971132 
L 1185.965505 257.660245 
L 1188.382725 221.728458 
L 1190.799945 187.676035 
L 1193.217166 156.040065 
L 1195.634386 127.319405 
L 1198.051606 101.967058 
L 1200.468826 80.382784 
L 1202.886047 62.907042 
L 1205.303267 49.815373 
L 1207.720487 41.314301 
L 1210.137708 37.537834 
L 1212.554928 38.545588 
L 1214.972148 44.321611 
L 1217.389368 54.774871 
L 1219.806589 69.740454 
L 1222.223809 88.982404 
L 1224.641029 112.197204 
L 1227.05825 139.018801 
L 1229.47547 169.024146 
L 1231.89269 201.740093 
L 1234.30991 236.650635 
L 1239.144351 310.82745 
L 1246.396012 424.138336 
L 1248.813232 460.070125 
L 1251.230452 494.122546 
L 1253.647673 525.758518 
L 1256.064893 554.479176 
L 1258.482113 579.831525 
L 1260.899333 601.415797 
L 1263.316554 618.891541 
L 1265.733774 631.983209 
L 1268.150994 640.484281 
L 1270.568215 644.260747 
L 1272.985435 643.252994 
L 1275.402655 637.47697 
L 1277.819875 627.023712 
L 1280.237096 612.058127 
L 1282.654316 592.816179 
L 1285.071536 569.601378 
L 1287.488757 542.779781 
L 1289.905977 512.774435 
L 1292.323197 480.05849 
L 1294.740417 445.147946 
L 1299.574858 370.971131 
L 1306.826519 257.660247 
L 1309.243739 221.728457 
L 1311.660959 187.676036 
L 1314.07818 156.040064 
L 1316.4954 127.319406 
L 1318.91262 101.967056 
L 1321.32984 80.382785 
L 1323.747061 62.90704 
L 1326.164281 49.815374 
L 1328.581501 41.3143 
L 1330.998722 37.537836 
L 1333.415942 38.545587 
L 1335.833162 44.321613 
L 1338.250382 54.77487 
L 1340.667603 69.740456 
L 1343.084823 88.982402 
L 1345.502043 112.197205 
L 1347.919264 139.0188 
L 1350.336484 169.024147 
L 1352.753704 201.740092 
L 1355.170924 236.650636 
L 1360.005365 310.827452 
L 1362.422585 340.845726 
L 1362.422585 340.845726 
" style="fill:none;stroke:#ff7f0e;stroke-linecap:square;stroke-width:1.5;"/>
   </g>
   <g id="patch_3">
    <path d="M 42.620313 674.6 
L 42.620313 7.2 
" style="fill:none;stroke:#000000;stroke-linecap:square;stroke-linejoin:miter;stroke-width:0.8;"/>
   </g>
   <g id="patch_4">
    <path d="M 1425.270313 674.6 
L 1425.270313 7.2 
" style="fill:none;stroke:#000000;stroke-linecap:square;stroke-linejoin:miter;stroke-width:0.8;"/>
   </g>
   <g id="patch_5">
    <path d="M 42.620313 674.6 
L 1425.270313 674.6 
" style="fill:none;stroke:#000000;stroke-linecap:square;stroke-linejoin:miter;stroke-width:0.8;"/>
   </g>
   <g id="patch_6">
    <path d="M 42.620313 7.2 
L 1425.270313 7.2 
" style="fill:none;stroke:#000000;stroke-linecap:square;stroke-linejoin:miter;stroke-width:0.8;"/>
   </g>
   <g id="legend_1">
    <g id="patch_7">
     <path d="M 1150.740313 140.68 
L 1223.004375 140.68 
Q 1225.004375 140.68 1225.004375 138.68 
L 1225.004375 110.32375 
Q 1225.004375 108.32375 1223.004375 108.32375 
L 1150.740313 108.32375 
Q 1148.740313 108.32375 1148.740313 110.32375 
L 1148.740313 138.68 
Q 1148.740313 140.68 1150.740313 140.68 
z
" style="fill:#ffffff;opacity:0.8;stroke:#cccccc;stroke-linejoin:miter;"/>
    </g>
    <g id="line2d_25">
     <path d="M 1152.740313 116.422187 
L 1172.740313 116.422187 
" style="fill:none;stroke:#1f77b4;stroke-linecap:square;stroke-width:1.5;"/>
    </g>
    <g id="line2d_26"/>
    <g id="text_14">
     <!-- Vin [V] -->
     <g transform="translate(1180.740313 119.922187)scale(0.1 -0.1)">
      <defs>
       <path d="M 9.421875 54.6875 
L 18.40625 54.6875 
L 18.40625 0 
L 9.421875 0 
z
M 9.421875 75.984375 
L 18.40625 75.984375 
L 18.40625 64.59375 
L 9.421875 64.59375 
z
" id="DejaVuSans-105"/>
       <path d="M 54.890625 33.015625 
L 54.890625 0 
L 45.90625 0 
L 45.90625 32.71875 
Q 45.90625 40.484375 42.875 44.328125 
Q 39.84375 48.1875 33.796875 48.1875 
Q 26.515625 48.1875 22.3125 43.546875 
Q 18.109375 38.921875 18.109375 30.90625 
L 18.109375 0 
L 9.078125 0 
L 9.078125 54.6875 
L 18.109375 54.6875 
L 18.109375 46.1875 
Q 21.34375 51.125 25.703125 53.5625 
Q 30.078125 56 35.796875 56 
Q 45.21875 56 50.046875 50.171875 
Q 54.890625 44.34375 54.890625 33.015625 
z
" id="DejaVuSans-110"/>
      </defs>
      <use xlink:href="#DejaVuSans-86"/>
      <use x="66.158203" xlink:href="#DejaVuSans-105"/>
      <use x="93.941406" xlink:href="#DejaVuSans-110"/>
      <use x="157.320312" xlink:href="#DejaVuSans-32"/>
      <use x="189.107422" xlink:href="#DejaVuSans-91"/>
      <use x="228.121094" xlink:href="#DejaVuSans-86"/>
      <use x="296.529297" xlink:href="#DejaVuSans-93"/>
     </g>
    </g>
    <g id="line2d_27">
     <path d="M 1152.740313 131.100312 
L 1172.740313 131.100312 
" style="fill:none;stroke:#ff7f0e;stroke-linecap:square;stroke-width:1.5;"/>
    </g>
    <g id="line2d_28"/>
    <g id="text_15">
     <!-- Vout [V] -->
     <g transform="translate(1180.740313 134.600312)scale(0.1 -0.1)">
      <defs>
       <path d="M 30.609375 48.390625 
Q 23.390625 48.390625 19.1875 42.75 
Q 14.984375 37.109375 14.984375 27.296875 
Q 14.984375 17.484375 19.15625 11.84375 
Q 23.34375 6.203125 30.609375 6.203125 
Q 37.796875 6.203125 41.984375 11.859375 
Q 46.1875 17.53125 46.1875 27.296875 
Q 46.1875 37.015625 41.984375 42.703125 
Q 37.796875 48.390625 30.609375 48.390625 
z
M 30.609375 56 
Q 42.328125 56 49.015625 48.375 
Q 55.71875 40.765625 55.71875 27.296875 
Q 55.71875 13.875 49.015625 6.21875 
Q 42.328125 -1.421875 30.609375 -1.421875 
Q 18.84375 -1.421875 12.171875 6.21875 
Q 5.515625 13.875 5.515625 27.296875 
Q 5.515625 40.765625 12.171875 48.375 
Q 18.84375 56 30.609375 56 
z
" id="DejaVuSans-111"/>
       <path d="M 8.5 21.578125 
L 8.5 54.6875 
L 17.484375 54.6875 
L 17.484375 21.921875 
Q 17.484375 14.15625 20.5 10.265625 
Q 23.53125 6.390625 29.59375 6.390625 
Q 36.859375 6.390625 41.078125 11.03125 
Q 45.3125 15.671875 45.3125 23.6875 
L 45.3125 54.6875 
L 54.296875 54.6875 
L 54.296875 0 
L 45.3125 0 
L 45.3125 8.40625 
Q 42.046875 3.421875 37.71875 1 
Q 33.40625 -1.421875 27.6875 -1.421875 
Q 18.265625 -1.421875 13.375 4.4375 
Q 8.5 10.296875 8.5 21.578125 
z
M 31.109375 56 
z
" id="DejaVuSans-117"/>
      </defs>
      <use xlink:href="#DejaVuSans-86"/>
      <use x="60.658203" xlink:href="#DejaVuSans-111"/>
      <use x="121.839844" xlink:href="#DejaVuSans-117"/>
      <use x="185.21875" xlink:href="#DejaVuSans-116"/>
      <use x="224.427734" xlink:href="#DejaVuSans-32"/>
      <use x="256.214844" xlink:href="#DejaVuSans-91"/>
      <use x="295.228516" xlink:href="#DejaVuSans-86"/>
      <use x="363.636719" xlink:href="#DejaVuSans-93"/>
     </g>
    </g>
   </g>
  </g>
 </g>
 <defs>
  <clipPath id="p7fe8b00051">
   <rect height="667.4" width="1382.65" x="42.620313" y="7.2"/>
  </clipPath>
 </defs>
</svg>
