<?xml version="1.0" encoding="utf-8" standalone="no"?>
<!DOCTYPE svg PUBLIC "-//W3C//DTD SVG 1.1//EN"
  "http://www.w3.org/Graphics/SVG/1.1/DTD/svg11.dtd">
<!-- Created with matplotlib (https://matplotlib.org/) -->
<svg height="352.15625pt" version="1.1" viewBox="0 0 712.470312 352.15625" width="712.470312pt" xmlns="http://www.w3.org/2000/svg" xmlns:xlink="http://www.w3.org/1999/xlink">
 <metadata>
  <rdf:RDF xmlns:cc="http://creativecommons.org/ns#" xmlns:dc="http://purl.org/dc/elements/1.1/" xmlns:rdf="http://www.w3.org/1999/02/22-rdf-syntax-ns#">
   <cc:Work>
    <dc:type rdf:resource="http://purl.org/dc/dcmitype/StillImage"/>
    <dc:date>2020-07-24T21:55:04.658610</dc:date>
    <dc:format>image/svg+xml</dc:format>
    <dc:creator>
     <cc:Agent>
      <dc:title>Matplotlib v3.3.0, https://matplotlib.org/</dc:title>
     </cc:Agent>
    </dc:creator>
   </cc:Work>
  </rdf:RDF>
 </metadata>
 <defs>
  <style type="text/css">*{stroke-linecap:butt;stroke-linejoin:round;}</style>
 </defs>
 <g id="figure_1">
  <g id="patch_1">
   <path d="M 0 352.15625 
L 712.470312 352.15625 
L 712.470312 0 
L 0 0 
z
" style="fill:none;"/>
  </g>
  <g id="axes_1">
   <g id="patch_2">
    <path d="M 42.620313 314.6 
L 705.270313 314.6 
L 705.270313 7.2 
L 42.620313 7.2 
z
" style="fill:#ffffff;"/>
   </g>
   <g id="matplotlib.axis_1">
    <g id="xtick_1">
     <g id="line2d_1">
      <path clip-path="url(#pf6a4d25b32)" d="M 72.740767 314.6 
L 72.740767 7.2 
" style="fill:none;stroke:#b0b0b0;stroke-linecap:square;stroke-width:0.8;"/>
     </g>
     <g id="line2d_2">
      <defs>
       <path d="M 0 0 
L 0 3.5 
" id="ma5d81f10d0" style="stroke:#000000;stroke-width:0.8;"/>
      </defs>
      <g>
       <use style="stroke:#000000;stroke-width:0.8;" x="72.740767" xlink:href="#ma5d81f10d0" y="314.6"/>
      </g>
     </g>
     <g id="text_1">
      <!-- 0 -->
      <g transform="translate(69.559517 329.198437)scale(0.1 -0.1)">
       <defs>
        <path d="M 31.78125 66.40625 
Q 24.171875 66.40625 20.328125 58.90625 
Q 16.5 51.421875 16.5 36.375 
Q 16.5 21.390625 20.328125 13.890625 
Q 24.171875 6.390625 31.78125 6.390625 
Q 39.453125 6.390625 43.28125 13.890625 
Q 47.125 21.390625 47.125 36.375 
Q 47.125 51.421875 43.28125 58.90625 
Q 39.453125 66.40625 31.78125 66.40625 
z
M 31.78125 74.21875 
Q 44.046875 74.21875 50.515625 64.515625 
Q 56.984375 54.828125 56.984375 36.375 
Q 56.984375 17.96875 50.515625 8.265625 
Q 44.046875 -1.421875 31.78125 -1.421875 
Q 19.53125 -1.421875 13.0625 8.265625 
Q 6.59375 17.96875 6.59375 36.375 
Q 6.59375 54.828125 13.0625 64.515625 
Q 19.53125 74.21875 31.78125 74.21875 
z
" id="DejaVuSans-48"/>
       </defs>
       <use xlink:href="#DejaVuSans-48"/>
      </g>
     </g>
    </g>
    <g id="xtick_2">
     <g id="line2d_3">
      <path clip-path="url(#pf6a4d25b32)" d="M 188.588669 314.6 
L 188.588669 7.2 
" style="fill:none;stroke:#b0b0b0;stroke-linecap:square;stroke-width:0.8;"/>
     </g>
     <g id="line2d_4">
      <g>
       <use style="stroke:#000000;stroke-width:0.8;" x="188.588669" xlink:href="#ma5d81f10d0" y="314.6"/>
      </g>
     </g>
     <g id="text_2">
      <!-- 100 -->
      <g transform="translate(179.044919 329.198437)scale(0.1 -0.1)">
       <defs>
        <path d="M 12.40625 8.296875 
L 28.515625 8.296875 
L 28.515625 63.921875 
L 10.984375 60.40625 
L 10.984375 69.390625 
L 28.421875 72.90625 
L 38.28125 72.90625 
L 38.28125 8.296875 
L 54.390625 8.296875 
L 54.390625 0 
L 12.40625 0 
z
" id="DejaVuSans-49"/>
       </defs>
       <use xlink:href="#DejaVuSans-49"/>
       <use x="63.623047" xlink:href="#DejaVuSans-48"/>
       <use x="127.246094" xlink:href="#DejaVuSans-48"/>
      </g>
     </g>
    </g>
    <g id="xtick_3">
     <g id="line2d_5">
      <path clip-path="url(#pf6a4d25b32)" d="M 304.436571 314.6 
L 304.436571 7.2 
" style="fill:none;stroke:#b0b0b0;stroke-linecap:square;stroke-width:0.8;"/>
     </g>
     <g id="line2d_6">
      <g>
       <use style="stroke:#000000;stroke-width:0.8;" x="304.436571" xlink:href="#ma5d81f10d0" y="314.6"/>
      </g>
     </g>
     <g id="text_3">
      <!-- 200 -->
      <g transform="translate(294.892821 329.198437)scale(0.1 -0.1)">
       <defs>
        <path d="M 19.1875 8.296875 
L 53.609375 8.296875 
L 53.609375 0 
L 7.328125 0 
L 7.328125 8.296875 
Q 12.9375 14.109375 22.625 23.890625 
Q 32.328125 33.6875 34.8125 36.53125 
Q 39.546875 41.84375 41.421875 45.53125 
Q 43.3125 49.21875 43.3125 52.78125 
Q 43.3125 58.59375 39.234375 62.25 
Q 35.15625 65.921875 28.609375 65.921875 
Q 23.96875 65.921875 18.8125 64.3125 
Q 13.671875 62.703125 7.8125 59.421875 
L 7.8125 69.390625 
Q 13.765625 71.78125 18.9375 73 
Q 24.125 74.21875 28.421875 74.21875 
Q 39.75 74.21875 46.484375 68.546875 
Q 53.21875 62.890625 53.21875 53.421875 
Q 53.21875 48.921875 51.53125 44.890625 
Q 49.859375 40.875 45.40625 35.40625 
Q 44.1875 33.984375 37.640625 27.21875 
Q 31.109375 20.453125 19.1875 8.296875 
z
" id="DejaVuSans-50"/>
       </defs>
       <use xlink:href="#DejaVuSans-50"/>
       <use x="63.623047" xlink:href="#DejaVuSans-48"/>
       <use x="127.246094" xlink:href="#DejaVuSans-48"/>
      </g>
     </g>
    </g>
    <g id="xtick_4">
     <g id="line2d_7">
      <path clip-path="url(#pf6a4d25b32)" d="M 420.284473 314.6 
L 420.284473 7.2 
" style="fill:none;stroke:#b0b0b0;stroke-linecap:square;stroke-width:0.8;"/>
     </g>
     <g id="line2d_8">
      <g>
       <use style="stroke:#000000;stroke-width:0.8;" x="420.284473" xlink:href="#ma5d81f10d0" y="314.6"/>
      </g>
     </g>
     <g id="text_4">
      <!-- 300 -->
      <g transform="translate(410.740723 329.198437)scale(0.1 -0.1)">
       <defs>
        <path d="M 40.578125 39.3125 
Q 47.65625 37.796875 51.625 33 
Q 55.609375 28.21875 55.609375 21.1875 
Q 55.609375 10.40625 48.1875 4.484375 
Q 40.765625 -1.421875 27.09375 -1.421875 
Q 22.515625 -1.421875 17.65625 -0.515625 
Q 12.796875 0.390625 7.625 2.203125 
L 7.625 11.71875 
Q 11.71875 9.328125 16.59375 8.109375 
Q 21.484375 6.890625 26.8125 6.890625 
Q 36.078125 6.890625 40.9375 10.546875 
Q 45.796875 14.203125 45.796875 21.1875 
Q 45.796875 27.640625 41.28125 31.265625 
Q 36.765625 34.90625 28.71875 34.90625 
L 20.21875 34.90625 
L 20.21875 43.015625 
L 29.109375 43.015625 
Q 36.375 43.015625 40.234375 45.921875 
Q 44.09375 48.828125 44.09375 54.296875 
Q 44.09375 59.90625 40.109375 62.90625 
Q 36.140625 65.921875 28.71875 65.921875 
Q 24.65625 65.921875 20.015625 65.03125 
Q 15.375 64.15625 9.8125 62.3125 
L 9.8125 71.09375 
Q 15.4375 72.65625 20.34375 73.4375 
Q 25.25 74.21875 29.59375 74.21875 
Q 40.828125 74.21875 47.359375 69.109375 
Q 53.90625 64.015625 53.90625 55.328125 
Q 53.90625 49.265625 50.4375 45.09375 
Q 46.96875 40.921875 40.578125 39.3125 
z
" id="DejaVuSans-51"/>
       </defs>
       <use xlink:href="#DejaVuSans-51"/>
       <use x="63.623047" xlink:href="#DejaVuSans-48"/>
       <use x="127.246094" xlink:href="#DejaVuSans-48"/>
      </g>
     </g>
    </g>
    <g id="xtick_5">
     <g id="line2d_9">
      <path clip-path="url(#pf6a4d25b32)" d="M 536.132375 314.6 
L 536.132375 7.2 
" style="fill:none;stroke:#b0b0b0;stroke-linecap:square;stroke-width:0.8;"/>
     </g>
     <g id="line2d_10">
      <g>
       <use style="stroke:#000000;stroke-width:0.8;" x="536.132375" xlink:href="#ma5d81f10d0" y="314.6"/>
      </g>
     </g>
     <g id="text_5">
      <!-- 400 -->
      <g transform="translate(526.588625 329.198437)scale(0.1 -0.1)">
       <defs>
        <path d="M 37.796875 64.3125 
L 12.890625 25.390625 
L 37.796875 25.390625 
z
M 35.203125 72.90625 
L 47.609375 72.90625 
L 47.609375 25.390625 
L 58.015625 25.390625 
L 58.015625 17.1875 
L 47.609375 17.1875 
L 47.609375 0 
L 37.796875 0 
L 37.796875 17.1875 
L 4.890625 17.1875 
L 4.890625 26.703125 
z
" id="DejaVuSans-52"/>
       </defs>
       <use xlink:href="#DejaVuSans-52"/>
       <use x="63.623047" xlink:href="#DejaVuSans-48"/>
       <use x="127.246094" xlink:href="#DejaVuSans-48"/>
      </g>
     </g>
    </g>
    <g id="xtick_6">
     <g id="line2d_11">
      <path clip-path="url(#pf6a4d25b32)" d="M 651.980278 314.6 
L 651.980278 7.2 
" style="fill:none;stroke:#b0b0b0;stroke-linecap:square;stroke-width:0.8;"/>
     </g>
     <g id="line2d_12">
      <g>
       <use style="stroke:#000000;stroke-width:0.8;" x="651.980278" xlink:href="#ma5d81f10d0" y="314.6"/>
      </g>
     </g>
     <g id="text_6">
      <!-- 500 -->
      <g transform="translate(642.436528 329.198437)scale(0.1 -0.1)">
       <defs>
        <path d="M 10.796875 72.90625 
L 49.515625 72.90625 
L 49.515625 64.59375 
L 19.828125 64.59375 
L 19.828125 46.734375 
Q 21.96875 47.46875 24.109375 47.828125 
Q 26.265625 48.1875 28.421875 48.1875 
Q 40.625 48.1875 47.75 41.5 
Q 54.890625 34.8125 54.890625 23.390625 
Q 54.890625 11.625 47.5625 5.09375 
Q 40.234375 -1.421875 26.90625 -1.421875 
Q 22.3125 -1.421875 17.546875 -0.640625 
Q 12.796875 0.140625 7.71875 1.703125 
L 7.71875 11.625 
Q 12.109375 9.234375 16.796875 8.0625 
Q 21.484375 6.890625 26.703125 6.890625 
Q 35.15625 6.890625 40.078125 11.328125 
Q 45.015625 15.765625 45.015625 23.390625 
Q 45.015625 31 40.078125 35.4375 
Q 35.15625 39.890625 26.703125 39.890625 
Q 22.75 39.890625 18.8125 39.015625 
Q 14.890625 38.140625 10.796875 36.28125 
z
" id="DejaVuSans-53"/>
       </defs>
       <use xlink:href="#DejaVuSans-53"/>
       <use x="63.623047" xlink:href="#DejaVuSans-48"/>
       <use x="127.246094" xlink:href="#DejaVuSans-48"/>
      </g>
     </g>
    </g>
    <g id="text_7">
     <!-- t [s] -->
     <g transform="translate(363.889844 342.876562)scale(0.1 -0.1)">
      <defs>
       <path d="M 18.3125 70.21875 
L 18.3125 54.6875 
L 36.8125 54.6875 
L 36.8125 47.703125 
L 18.3125 47.703125 
L 18.3125 18.015625 
Q 18.3125 11.328125 20.140625 9.421875 
Q 21.96875 7.515625 27.59375 7.515625 
L 36.8125 7.515625 
L 36.8125 0 
L 27.59375 0 
Q 17.1875 0 13.234375 3.875 
Q 9.28125 7.765625 9.28125 18.015625 
L 9.28125 47.703125 
L 2.6875 47.703125 
L 2.6875 54.6875 
L 9.28125 54.6875 
L 9.28125 70.21875 
z
" id="DejaVuSans-116"/>
       <path id="DejaVuSans-32"/>
       <path d="M 8.59375 75.984375 
L 29.296875 75.984375 
L 29.296875 69 
L 17.578125 69 
L 17.578125 -6.203125 
L 29.296875 -6.203125 
L 29.296875 -13.1875 
L 8.59375 -13.1875 
z
" id="DejaVuSans-91"/>
       <path d="M 44.28125 53.078125 
L 44.28125 44.578125 
Q 40.484375 46.53125 36.375 47.5 
Q 32.28125 48.484375 27.875 48.484375 
Q 21.1875 48.484375 17.84375 46.4375 
Q 14.5 44.390625 14.5 40.28125 
Q 14.5 37.15625 16.890625 35.375 
Q 19.28125 33.59375 26.515625 31.984375 
L 29.59375 31.296875 
Q 39.15625 29.25 43.1875 25.515625 
Q 47.21875 21.78125 47.21875 15.09375 
Q 47.21875 7.46875 41.1875 3.015625 
Q 35.15625 -1.421875 24.609375 -1.421875 
Q 20.21875 -1.421875 15.453125 -0.5625 
Q 10.6875 0.296875 5.421875 2 
L 5.421875 11.28125 
Q 10.40625 8.6875 15.234375 7.390625 
Q 20.0625 6.109375 24.8125 6.109375 
Q 31.15625 6.109375 34.5625 8.28125 
Q 37.984375 10.453125 37.984375 14.40625 
Q 37.984375 18.0625 35.515625 20.015625 
Q 33.0625 21.96875 24.703125 23.78125 
L 21.578125 24.515625 
Q 13.234375 26.265625 9.515625 29.90625 
Q 5.8125 33.546875 5.8125 39.890625 
Q 5.8125 47.609375 11.28125 51.796875 
Q 16.75 56 26.8125 56 
Q 31.78125 56 36.171875 55.265625 
Q 40.578125 54.546875 44.28125 53.078125 
z
" id="DejaVuSans-115"/>
       <path d="M 30.421875 75.984375 
L 30.421875 -13.1875 
L 9.71875 -13.1875 
L 9.71875 -6.203125 
L 21.390625 -6.203125 
L 21.390625 69 
L 9.71875 69 
L 9.71875 75.984375 
z
" id="DejaVuSans-93"/>
      </defs>
      <use xlink:href="#DejaVuSans-116"/>
      <use x="39.208984" xlink:href="#DejaVuSans-32"/>
      <use x="70.996094" xlink:href="#DejaVuSans-91"/>
      <use x="110.009766" xlink:href="#DejaVuSans-115"/>
      <use x="162.109375" xlink:href="#DejaVuSans-93"/>
     </g>
    </g>
   </g>
   <g id="matplotlib.axis_2">
    <g id="ytick_1">
     <g id="line2d_13">
      <path clip-path="url(#pf6a4d25b32)" d="M 42.620313 272.753953 
L 705.270313 272.753953 
" style="fill:none;stroke:#b0b0b0;stroke-linecap:square;stroke-width:0.8;"/>
     </g>
     <g id="line2d_14">
      <defs>
       <path d="M 0 0 
L -3.5 0 
" id="m2d063f7d23" style="stroke:#000000;stroke-width:0.8;"/>
      </defs>
      <g>
       <use style="stroke:#000000;stroke-width:0.8;" x="42.620313" xlink:href="#m2d063f7d23" y="272.753953"/>
      </g>
     </g>
     <g id="text_8">
      <!-- −4 -->
      <g transform="translate(20.878125 276.553172)scale(0.1 -0.1)">
       <defs>
        <path d="M 10.59375 35.5 
L 73.1875 35.5 
L 73.1875 27.203125 
L 10.59375 27.203125 
z
" id="DejaVuSans-8722"/>
       </defs>
       <use xlink:href="#DejaVuSans-8722"/>
       <use x="83.789062" xlink:href="#DejaVuSans-52"/>
      </g>
     </g>
    </g>
    <g id="ytick_2">
     <g id="line2d_15">
      <path clip-path="url(#pf6a4d25b32)" d="M 42.620313 216.826977 
L 705.270313 216.826977 
" style="fill:none;stroke:#b0b0b0;stroke-linecap:square;stroke-width:0.8;"/>
     </g>
     <g id="line2d_16">
      <g>
       <use style="stroke:#000000;stroke-width:0.8;" x="42.620313" xlink:href="#m2d063f7d23" y="216.826977"/>
      </g>
     </g>
     <g id="text_9">
      <!-- −2 -->
      <g transform="translate(20.878125 220.626195)scale(0.1 -0.1)">
       <use xlink:href="#DejaVuSans-8722"/>
       <use x="83.789062" xlink:href="#DejaVuSans-50"/>
      </g>
     </g>
    </g>
    <g id="ytick_3">
     <g id="line2d_17">
      <path clip-path="url(#pf6a4d25b32)" d="M 42.620313 160.9 
L 705.270313 160.9 
" style="fill:none;stroke:#b0b0b0;stroke-linecap:square;stroke-width:0.8;"/>
     </g>
     <g id="line2d_18">
      <g>
       <use style="stroke:#000000;stroke-width:0.8;" x="42.620313" xlink:href="#m2d063f7d23" y="160.9"/>
      </g>
     </g>
     <g id="text_10">
      <!-- 0 -->
      <g transform="translate(29.257813 164.699219)scale(0.1 -0.1)">
       <use xlink:href="#DejaVuSans-48"/>
      </g>
     </g>
    </g>
    <g id="ytick_4">
     <g id="line2d_19">
      <path clip-path="url(#pf6a4d25b32)" d="M 42.620313 104.973023 
L 705.270313 104.973023 
" style="fill:none;stroke:#b0b0b0;stroke-linecap:square;stroke-width:0.8;"/>
     </g>
     <g id="line2d_20">
      <g>
       <use style="stroke:#000000;stroke-width:0.8;" x="42.620313" xlink:href="#m2d063f7d23" y="104.973023"/>
      </g>
     </g>
     <g id="text_11">
      <!-- 2 -->
      <g transform="translate(29.257813 108.772242)scale(0.1 -0.1)">
       <use xlink:href="#DejaVuSans-50"/>
      </g>
     </g>
    </g>
    <g id="ytick_5">
     <g id="line2d_21">
      <path clip-path="url(#pf6a4d25b32)" d="M 42.620313 49.046047 
L 705.270313 49.046047 
" style="fill:none;stroke:#b0b0b0;stroke-linecap:square;stroke-width:0.8;"/>
     </g>
     <g id="line2d_22">
      <g>
       <use style="stroke:#000000;stroke-width:0.8;" x="42.620313" xlink:href="#m2d063f7d23" y="49.046047"/>
      </g>
     </g>
     <g id="text_12">
      <!-- 4 -->
      <g transform="translate(29.257813 52.845265)scale(0.1 -0.1)">
       <use xlink:href="#DejaVuSans-52"/>
      </g>
     </g>
    </g>
    <g id="text_13">
     <!-- [V] -->
     <g transform="translate(14.798438 168.221875)rotate(-90)scale(0.1 -0.1)">
      <defs>
       <path d="M 28.609375 0 
L 0.78125 72.90625 
L 11.078125 72.90625 
L 34.1875 11.53125 
L 57.328125 72.90625 
L 67.578125 72.90625 
L 39.796875 0 
z
" id="DejaVuSans-86"/>
      </defs>
      <use xlink:href="#DejaVuSans-91"/>
      <use x="39.013672" xlink:href="#DejaVuSans-86"/>
      <use x="107.421875" xlink:href="#DejaVuSans-93"/>
     </g>
    </g>
   </g>
   <g id="line2d_23">
    <path clip-path="url(#pf6a4d25b32)" d="M 72.740767 160.9 
L 73.899246 160.7243 
L 79.691641 160.606897 
L 83.167078 160.379656 
L 85.484036 160.118534 
L 87.800994 159.481827 
L 88.959473 158.937314 
L 90.117952 158.137417 
L 91.276431 156.989992 
L 92.43491 155.27918 
L 93.593389 152.771544 
L 94.751868 149.045458 
L 95.910347 143.506743 
L 97.068826 135.31272 
L 98.227306 122.496758 
L 100.544264 90.269403 
L 102.861222 62.480028 
L 104.019701 50.809287 
L 105.17818 40.874743 
L 106.336659 32.833068 
L 107.495138 26.811085 
L 108.653617 22.903765 
L 109.812096 21.172727 
L 110.970575 21.645272 
L 112.129054 24.313948 
L 113.287533 29.136667 
L 114.446012 36.037373 
L 115.604491 44.907236 
L 116.76297 55.606375 
L 117.921449 67.966058 
L 120.238407 96.86426 
L 122.555365 129.786064 
L 128.34776 215.850219 
L 130.664718 246.097089 
L 131.823197 259.319972 
L 132.981676 270.990713 
L 134.140155 280.925257 
L 135.298634 288.966932 
L 136.457113 294.988915 
L 137.615592 298.896235 
L 138.774071 300.627273 
L 139.93255 300.154728 
L 141.091029 297.486052 
L 142.249508 292.663333 
L 143.407987 285.762627 
L 144.566466 276.892764 
L 145.724945 266.193625 
L 146.883424 253.833942 
L 149.200382 224.93574 
L 151.51734 192.013936 
L 157.309736 105.949781 
L 159.626694 75.702911 
L 160.785173 62.480028 
L 161.943652 50.809287 
L 163.102131 40.874743 
L 164.26061 32.833068 
L 165.419089 26.811085 
L 166.577568 22.903765 
L 167.736047 21.172727 
L 168.894526 21.645272 
L 170.053005 24.313948 
L 171.211484 29.136667 
L 172.369963 36.037373 
L 173.528442 44.907236 
L 174.686921 55.606375 
L 175.8454 67.966058 
L 178.162358 96.86426 
L 180.479316 129.786064 
L 186.271711 215.850219 
L 188.588669 246.097089 
L 189.747148 259.319972 
L 190.905627 270.990713 
L 192.064106 280.925257 
L 193.222585 288.966932 
L 194.381064 294.988915 
L 195.539543 298.896235 
L 196.698022 300.627273 
L 197.856501 300.154728 
L 199.01498 297.486052 
L 200.173459 292.663333 
L 201.331938 285.762627 
L 202.490417 276.892764 
L 203.648896 266.193625 
L 204.807375 253.833942 
L 207.124333 224.93574 
L 209.441292 192.013936 
L 215.233687 105.949781 
L 217.550645 75.702911 
L 218.709124 62.480028 
L 219.867603 50.809287 
L 221.026082 40.874743 
L 222.184561 32.833068 
L 223.34304 26.811085 
L 224.501519 22.903765 
L 225.659998 21.172727 
L 226.818477 21.645272 
L 227.976956 24.313948 
L 229.135435 29.136667 
L 230.293914 36.037373 
L 231.452393 44.907236 
L 232.610872 55.606375 
L 233.769351 67.966058 
L 236.086309 96.86426 
L 238.403267 129.786064 
L 244.195662 215.850219 
L 246.51262 246.097089 
L 247.671099 259.319972 
L 248.829578 270.990713 
L 249.988057 280.925257 
L 251.146536 288.966932 
L 252.305015 294.988915 
L 253.463494 298.896235 
L 254.621973 300.627273 
L 255.780452 300.154728 
L 256.938931 297.486052 
L 258.09741 292.663333 
L 259.255889 285.762627 
L 260.414368 276.892764 
L 261.572847 266.193625 
L 262.731326 253.833942 
L 265.048285 224.93574 
L 267.365243 192.013936 
L 273.157638 105.949781 
L 275.474596 75.702911 
L 276.633075 62.480028 
L 277.791554 50.809287 
L 278.950033 40.874743 
L 280.108512 32.833068 
L 281.266991 26.811085 
L 282.42547 22.903765 
L 283.583949 21.172727 
L 284.742428 21.645272 
L 285.900907 24.313948 
L 287.059386 29.136667 
L 288.217865 36.037373 
L 289.376344 44.907236 
L 290.534823 55.606375 
L 291.693302 67.966058 
L 294.01026 96.86426 
L 296.327218 129.786064 
L 302.119613 215.850219 
L 304.436571 246.097089 
L 305.59505 259.319972 
L 306.753529 270.990713 
L 307.912008 280.925257 
L 309.070487 288.966932 
L 310.228966 294.988915 
L 311.387445 298.896235 
L 312.545924 300.627273 
L 313.704403 300.154728 
L 314.862882 297.486052 
L 316.021361 292.663333 
L 317.17984 285.762627 
L 318.338319 276.892764 
L 319.496799 266.193625 
L 320.655278 253.833942 
L 322.972236 224.93574 
L 325.289194 192.013936 
L 331.081589 105.949781 
L 333.398547 75.702911 
L 334.557026 62.480028 
L 335.715505 50.809287 
L 336.873984 40.874743 
L 338.032463 32.833068 
L 339.190942 26.811085 
L 340.349421 22.903765 
L 341.5079 21.172727 
L 342.666379 21.645272 
L 343.824858 24.313948 
L 344.983337 29.136667 
L 346.141816 36.037373 
L 347.300295 44.907236 
L 348.458774 55.606375 
L 349.617253 67.966058 
L 351.934211 96.86426 
L 354.251169 129.786064 
L 360.043564 215.850219 
L 362.360522 246.097089 
L 363.519001 259.319972 
L 364.67748 270.990713 
L 365.835959 280.925257 
L 366.994438 288.966932 
L 368.152917 294.988915 
L 369.311396 298.896235 
L 370.469875 300.627273 
L 371.628354 300.154728 
L 372.786833 297.486052 
L 373.945313 292.663333 
L 375.103792 285.762627 
L 376.262271 276.892764 
L 377.42075 266.193625 
L 378.579229 253.833942 
L 380.896187 224.93574 
L 383.213145 192.013936 
L 389.00554 105.949781 
L 391.322498 75.702911 
L 392.480977 62.480028 
L 393.639456 50.809287 
L 394.797935 40.874743 
L 395.956414 32.833068 
L 397.114893 26.811085 
L 398.273372 22.903765 
L 399.431851 21.172727 
L 400.59033 21.645272 
L 401.748809 24.313948 
L 402.907288 29.136667 
L 404.065767 36.037373 
L 405.224246 44.907236 
L 406.382725 55.606375 
L 407.541204 67.966058 
L 409.858162 96.86426 
L 412.17512 129.786064 
L 417.967515 215.850219 
L 420.284473 246.097089 
L 421.442952 259.319972 
L 422.601431 270.990713 
L 423.75991 280.925257 
L 424.918389 288.966932 
L 426.076868 294.988915 
L 427.235347 298.896235 
L 428.393826 300.627273 
L 429.552306 300.154728 
L 430.710785 297.486052 
L 431.869264 292.663333 
L 433.027743 285.762627 
L 434.186222 276.892764 
L 435.344701 266.193625 
L 436.50318 253.833942 
L 438.820138 224.93574 
L 441.137096 192.013936 
L 446.929491 105.949781 
L 449.246449 75.702911 
L 450.404928 62.480028 
L 451.563407 50.809287 
L 452.721886 40.874743 
L 453.880365 32.833068 
L 455.038844 26.811085 
L 456.197323 22.903765 
L 457.355802 21.172727 
L 458.514281 21.645272 
L 459.67276 24.313948 
L 460.831239 29.136667 
L 461.989718 36.037373 
L 463.148197 44.907236 
L 464.306676 55.606375 
L 465.465155 67.966058 
L 467.782113 96.86426 
L 470.099071 129.786064 
L 475.891466 215.850219 
L 478.208424 246.097089 
L 479.366903 259.319972 
L 480.525382 270.990713 
L 481.683861 280.925257 
L 482.84234 288.966932 
L 484.000819 294.988915 
L 485.159299 298.896235 
L 486.317778 300.627273 
L 487.476257 300.154728 
L 488.634736 297.486052 
L 489.793215 292.663333 
L 490.951694 285.762627 
L 492.110173 276.892764 
L 493.268652 266.193625 
L 494.427131 253.833942 
L 496.744089 224.93574 
L 499.061047 192.013936 
L 504.853442 105.949781 
L 507.1704 75.702911 
L 508.328879 62.480028 
L 509.487358 50.809287 
L 510.645837 40.874743 
L 511.804316 32.833068 
L 512.962795 26.811085 
L 514.121274 22.903765 
L 515.279753 21.172727 
L 516.438232 21.645272 
L 517.596711 24.313948 
L 518.75519 29.136667 
L 519.913669 36.037373 
L 521.072148 44.907236 
L 522.230627 55.606375 
L 523.389106 67.966058 
L 525.706064 96.86426 
L 528.023022 129.786064 
L 533.815417 215.850219 
L 536.132375 246.097089 
L 537.290854 259.319972 
L 538.449333 270.990713 
L 539.607813 280.925257 
L 540.766292 288.966932 
L 541.924771 294.988915 
L 543.08325 298.896235 
L 544.241729 300.627273 
L 545.400208 300.154728 
L 546.558687 297.486052 
L 547.717166 292.663333 
L 548.875645 285.762627 
L 550.034124 276.892764 
L 551.192603 266.193625 
L 552.351082 253.833942 
L 554.66804 224.93574 
L 556.984998 192.013936 
L 562.777393 105.949781 
L 565.094351 75.702911 
L 566.25283 62.480028 
L 567.411309 50.809287 
L 568.569788 40.874743 
L 569.728267 32.833068 
L 570.886746 26.811085 
L 572.045225 22.903765 
L 573.203704 21.172727 
L 574.362183 21.645272 
L 575.520662 24.313948 
L 576.679141 29.136667 
L 577.83762 36.037373 
L 578.996099 44.907236 
L 580.154578 55.606375 
L 581.313057 67.966058 
L 583.630015 96.86426 
L 585.946973 129.786064 
L 591.739368 215.850219 
L 594.056326 246.097089 
L 595.214806 259.319972 
L 596.373285 270.990713 
L 597.531764 280.925257 
L 598.690243 288.966932 
L 599.848722 294.988915 
L 601.007201 298.896235 
L 602.16568 300.627273 
L 603.324159 300.154728 
L 604.482638 297.486052 
L 605.641117 292.663333 
L 606.799596 285.762627 
L 607.958075 276.892764 
L 609.116554 266.193625 
L 610.275033 253.833942 
L 612.591991 224.93574 
L 614.908949 192.013936 
L 620.701344 105.949781 
L 623.018302 75.702911 
L 624.176781 62.480028 
L 625.33526 50.809287 
L 626.493739 40.874743 
L 627.652218 32.833068 
L 628.810697 26.811085 
L 629.969176 22.903765 
L 631.127655 21.172727 
L 632.286134 21.645272 
L 633.444613 24.313948 
L 634.603092 29.136667 
L 635.761571 36.037373 
L 636.92005 44.907236 
L 638.078529 55.606375 
L 639.237008 67.966058 
L 641.553966 96.86426 
L 643.870924 129.786064 
L 649.663319 215.850219 
L 651.980278 246.097089 
L 653.138757 259.319972 
L 654.297236 270.990713 
L 655.455715 280.925257 
L 656.614194 288.966932 
L 657.772673 294.988915 
L 658.931152 298.896235 
L 660.089631 300.627273 
L 661.24811 300.154728 
L 662.406589 297.486052 
L 663.565068 292.663333 
L 664.723547 285.762627 
L 665.882026 276.892764 
L 667.040505 266.193625 
L 668.198984 253.833942 
L 670.515942 224.93574 
L 672.8329 192.013936 
L 673.991379 174.684226 
L 675.149858 160.9 
L 675.149858 160.9 
" style="fill:none;stroke:#1f77b4;stroke-linecap:square;stroke-width:1.5;"/>
   </g>
   <g id="line2d_24">
    <path clip-path="url(#pf6a4d25b32)" d="M 72.740767 160.899713 
L 73.899246 161.052195 
L 79.691641 161.168216 
L 83.167078 161.395339 
L 85.484036 161.656434 
L 87.800994 162.293133 
L 88.959473 162.83764 
L 90.117952 163.637542 
L 91.276431 164.784967 
L 92.43491 166.495788 
L 93.593389 169.003441 
L 94.751868 172.729567 
L 95.910347 178.268374 
L 97.068826 186.462604 
L 98.227306 199.279062 
L 100.544264 231.508806 
L 102.861222 259.30192 
L 104.019701 270.974956 
L 105.17818 280.912062 
L 106.336659 288.956479 
L 107.495138 294.981388 
L 108.653617 298.891725 
L 109.812096 300.625869 
L 110.970575 300.156424 
L 112.129054 297.490842 
L 113.287533 292.671112 
L 114.446012 285.773292 
L 115.604491 276.906118 
L 116.76297 266.209477 
L 117.921449 253.852014 
L 120.238407 224.957375 
L 122.555365 192.037757 
L 128.34776 105.972385 
L 130.664718 75.722426 
L 131.823197 62.497505 
L 132.981676 50.82447 
L 134.140155 40.887362 
L 135.298634 32.842946 
L 136.457113 26.818037 
L 137.615592 22.907701 
L 138.774071 21.173556 
L 139.93255 21.643001 
L 141.091029 24.308583 
L 142.249508 29.128314 
L 143.407987 36.026133 
L 144.566466 44.893308 
L 145.724945 55.589948 
L 146.883424 67.947412 
L 149.200382 96.842051 
L 151.51734 129.761668 
L 157.309736 215.82704 
L 159.626694 246.076999 
L 160.785173 259.301921 
L 161.943652 270.974955 
L 163.102131 280.912063 
L 164.26061 288.956479 
L 165.419089 294.981388 
L 166.577568 298.891724 
L 167.736047 300.625869 
L 168.894526 300.156423 
L 170.053005 297.490842 
L 171.211484 292.671111 
L 172.369963 285.773293 
L 173.528442 276.906117 
L 174.686921 266.209477 
L 175.8454 253.852013 
L 178.162358 224.957374 
L 180.479316 192.037756 
L 186.271711 105.972385 
L 188.588669 75.722426 
L 189.747148 62.497504 
L 190.905627 50.82447 
L 192.064106 40.887362 
L 193.222585 32.842947 
L 194.381064 26.818037 
L 195.539543 22.907701 
L 196.698022 21.173556 
L 197.856501 21.643002 
L 199.01498 24.308583 
L 200.173459 29.128314 
L 201.331938 36.026132 
L 202.490417 44.893308 
L 203.648896 55.589948 
L 204.807375 67.947412 
L 207.124333 96.842051 
L 209.441292 129.761669 
L 215.233687 215.82704 
L 217.550645 246.076999 
L 218.709124 259.301921 
L 219.867603 270.974955 
L 221.026082 280.912063 
L 222.184561 288.956478 
L 223.34304 294.981388 
L 224.501519 298.891724 
L 225.659998 300.625869 
L 226.818477 300.156423 
L 227.976956 297.490842 
L 229.135435 292.671111 
L 230.293914 285.773293 
L 231.452393 276.906117 
L 232.610872 266.209477 
L 233.769351 253.852013 
L 236.086309 224.957374 
L 238.403267 192.037756 
L 244.195662 105.972385 
L 246.51262 75.722426 
L 247.671099 62.497504 
L 248.829578 50.82447 
L 249.988057 40.887362 
L 251.146536 32.842947 
L 252.305015 26.818037 
L 253.463494 22.907701 
L 254.621973 21.173556 
L 255.780452 21.643002 
L 256.938931 24.308583 
L 258.09741 29.128314 
L 259.255889 36.026132 
L 260.414368 44.893308 
L 261.572847 55.589948 
L 262.731326 67.947412 
L 265.048285 96.842051 
L 267.365243 129.761669 
L 273.157638 215.82704 
L 275.474596 246.076999 
L 276.633075 259.301921 
L 277.791554 270.974955 
L 278.950033 280.912063 
L 280.108512 288.956478 
L 281.266991 294.981388 
L 282.42547 298.891724 
L 283.583949 300.625869 
L 284.742428 300.156423 
L 285.900907 297.490842 
L 287.059386 292.671111 
L 288.217865 285.773293 
L 289.376344 276.906117 
L 290.534823 266.209477 
L 291.693302 253.852013 
L 294.01026 224.957374 
L 296.327218 192.037756 
L 302.119613 105.972385 
L 304.436571 75.722426 
L 305.59505 62.497504 
L 306.753529 50.82447 
L 307.912008 40.887362 
L 309.070487 32.842946 
L 310.228966 26.818037 
L 311.387445 22.907701 
L 312.545924 21.173556 
L 313.704403 21.643001 
L 314.862882 24.308583 
L 316.021361 29.128314 
L 317.17984 36.026133 
L 318.338319 44.893308 
L 319.496799 55.589948 
L 320.655278 67.947412 
L 322.972236 96.842051 
L 325.289194 129.761668 
L 331.081589 215.82704 
L 333.398547 246.076999 
L 334.557026 259.30192 
L 335.715505 270.974955 
L 336.873984 280.912063 
L 338.032463 288.956479 
L 339.190942 294.981388 
L 340.349421 298.891724 
L 341.5079 300.625869 
L 342.666379 300.156424 
L 343.824858 297.490842 
L 344.983337 292.671112 
L 346.141816 285.773292 
L 347.300295 276.906117 
L 348.458774 266.209477 
L 349.617253 253.852014 
L 351.934211 224.957375 
L 354.251169 192.037757 
L 360.043564 105.972384 
L 362.360522 75.722426 
L 363.519001 62.497505 
L 364.67748 50.824469 
L 365.835959 40.887363 
L 366.994438 32.842946 
L 368.152917 26.818037 
L 369.311396 22.9077 
L 370.469875 21.173556 
L 371.628354 21.643001 
L 372.786833 24.308583 
L 373.945313 29.128313 
L 375.103792 36.026133 
L 376.262271 44.893307 
L 377.42075 55.589949 
L 378.579229 67.947411 
L 380.896187 96.84205 
L 383.213145 129.761668 
L 389.00554 215.827041 
L 391.322498 246.077 
L 392.480977 259.30192 
L 393.639456 270.974956 
L 394.797935 280.912062 
L 395.956414 288.956479 
L 397.114893 294.981387 
L 398.273372 298.891725 
L 399.431851 300.625868 
L 400.59033 300.156424 
L 401.748809 297.490841 
L 402.907288 292.671112 
L 404.065767 285.773292 
L 405.224246 276.906118 
L 406.382725 266.209476 
L 407.541204 253.852014 
L 409.858162 224.957375 
L 412.17512 192.037757 
L 417.967515 105.972384 
L 420.284473 75.722425 
L 421.442952 62.497505 
L 422.601431 50.824469 
L 423.75991 40.887363 
L 424.918389 32.842945 
L 426.076868 26.818038 
L 427.235347 22.9077 
L 428.393826 21.173557 
L 429.552306 21.643 
L 430.710785 24.308584 
L 431.869264 29.128313 
L 433.027743 36.026134 
L 434.186222 44.893307 
L 435.344701 55.589949 
L 436.50318 67.94741 
L 438.820138 96.842049 
L 441.137096 129.761667 
L 446.929491 215.827041 
L 449.246449 246.077 
L 450.404928 259.301919 
L 451.563407 270.974956 
L 452.721886 280.912062 
L 453.880365 288.95648 
L 455.038844 294.981387 
L 456.197323 298.891725 
L 457.355802 300.625868 
L 458.514281 300.156425 
L 459.67276 297.490841 
L 460.831239 292.671113 
L 461.989718 285.773291 
L 463.148197 276.906118 
L 464.306676 266.209476 
L 465.465155 253.852015 
L 467.782113 224.957376 
L 470.099071 192.037758 
L 475.891466 105.972383 
L 478.208424 75.722424 
L 479.366903 62.497506 
L 480.525382 50.824468 
L 481.683861 40.887364 
L 482.84234 32.842945 
L 484.000819 26.818038 
L 485.159299 22.907699 
L 486.317778 21.173558 
L 487.476257 21.643 
L 488.634736 24.308585 
L 489.793215 29.128312 
L 490.951694 36.026134 
L 492.110173 44.893306 
L 493.268652 55.58995 
L 494.427131 67.94741 
L 496.744089 96.842049 
L 499.061047 129.761667 
L 504.853442 215.827042 
L 507.1704 246.077001 
L 508.328879 259.301919 
L 509.487358 270.974957 
L 510.645837 280.912061 
L 511.804316 288.956481 
L 512.962795 294.981386 
L 514.121274 298.891726 
L 515.279753 300.625867 
L 516.438232 300.156426 
L 517.596711 297.49084 
L 518.75519 292.671113 
L 519.913669 285.77329 
L 521.072148 276.906119 
L 522.230627 266.209475 
L 523.389106 253.852015 
L 525.706064 224.957377 
L 528.023022 192.037759 
L 533.815417 105.972383 
L 536.132375 75.722424 
L 537.290854 62.497507 
L 538.449333 50.824468 
L 539.607813 40.887364 
L 540.766292 32.842944 
L 541.924771 26.818039 
L 543.08325 22.907699 
L 544.241729 21.173558 
L 545.400208 21.642999 
L 546.558687 24.308585 
L 547.717166 29.128311 
L 548.875645 36.026135 
L 550.034124 44.893306 
L 551.192603 55.58995 
L 552.351082 67.947409 
L 554.66804 96.842048 
L 556.984998 129.761666 
L 562.777393 215.827043 
L 565.094351 246.077002 
L 566.25283 259.301918 
L 567.411309 270.974958 
L 568.569788 280.91206 
L 569.728267 288.956481 
L 570.886746 294.981386 
L 572.045225 298.891727 
L 573.203704 300.625866 
L 574.362183 300.156426 
L 575.520662 297.490839 
L 576.679141 292.671114 
L 577.83762 285.77329 
L 578.996099 276.90612 
L 580.154578 266.209474 
L 581.313057 253.852016 
L 583.630015 224.957377 
L 585.946973 192.037759 
L 591.739368 105.972382 
L 594.056326 75.722423 
L 595.214806 62.497507 
L 596.373285 50.824467 
L 597.531764 40.887365 
L 598.690243 32.842943 
L 599.848722 26.81804 
L 601.007201 22.907698 
L 602.16568 21.173559 
L 603.324159 21.642998 
L 604.482638 24.308586 
L 605.641117 29.128311 
L 606.799596 36.026136 
L 607.958075 44.893305 
L 609.116554 55.589951 
L 610.275033 67.947409 
L 612.591991 96.842047 
L 614.908949 129.761665 
L 620.701344 215.827043 
L 623.018302 246.077002 
L 624.176781 259.301917 
L 625.33526 270.974958 
L 626.493739 280.91206 
L 627.652218 288.956482 
L 628.810697 294.981385 
L 629.969176 298.891727 
L 631.127655 300.625866 
L 632.286134 300.156427 
L 633.444613 297.490839 
L 634.603092 292.671115 
L 635.761571 285.773289 
L 636.92005 276.90612 
L 638.078529 266.209474 
L 639.237008 253.852017 
L 641.553966 224.957378 
L 643.870924 192.03776 
L 649.663319 105.972381 
L 651.980278 75.722422 
L 653.138757 62.497508 
L 654.297236 50.824466 
L 655.455715 40.887366 
L 656.614194 32.842943 
L 657.772673 26.81804 
L 658.931152 22.907697 
L 660.089631 21.17356 
L 661.24811 21.642998 
L 662.406589 24.308587 
L 663.565068 29.12831 
L 664.723547 36.026136 
L 665.882026 44.893304 
L 667.040505 55.589952 
L 668.198984 67.947408 
L 670.515942 96.842047 
L 672.8329 129.761665 
L 673.991379 147.09084 
L 675.149858 160.874952 
L 675.149858 160.874952 
" style="fill:none;stroke:#ff7f0e;stroke-linecap:square;stroke-width:1.5;"/>
   </g>
   <g id="patch_3">
    <path d="M 42.620313 314.6 
L 42.620313 7.2 
" style="fill:none;stroke:#000000;stroke-linecap:square;stroke-linejoin:miter;stroke-width:0.8;"/>
   </g>
   <g id="patch_4">
    <path d="M 705.270313 314.6 
L 705.270313 7.2 
" style="fill:none;stroke:#000000;stroke-linecap:square;stroke-linejoin:miter;stroke-width:0.8;"/>
   </g>
   <g id="patch_5">
    <path d="M 42.620313 314.6 
L 705.270313 314.6 
" style="fill:none;stroke:#000000;stroke-linecap:square;stroke-linejoin:miter;stroke-width:0.8;"/>
   </g>
   <g id="patch_6">
    <path d="M 42.620313 7.2 
L 705.270313 7.2 
" style="fill:none;stroke:#000000;stroke-linecap:square;stroke-linejoin:miter;stroke-width:0.8;"/>
   </g>
   <g id="legend_1">
    <g id="patch_7">
     <path d="M 574.740313 68.68 
L 647.004375 68.68 
Q 649.004375 68.68 649.004375 66.68 
L 649.004375 38.32375 
Q 649.004375 36.32375 647.004375 36.32375 
L 574.740313 36.32375 
Q 572.740313 36.32375 572.740313 38.32375 
L 572.740313 66.68 
Q 572.740313 68.68 574.740313 68.68 
z
" style="fill:#ffffff;opacity:0.8;stroke:#cccccc;stroke-linejoin:miter;"/>
    </g>
    <g id="line2d_25">
     <path d="M 576.740313 44.422187 
L 596.740313 44.422187 
" style="fill:none;stroke:#1f77b4;stroke-linecap:square;stroke-width:1.5;"/>
    </g>
    <g id="line2d_26"/>
    <g id="text_14">
     <!-- Vin [V] -->
     <g transform="translate(604.740313 47.922187)scale(0.1 -0.1)">
      <defs>
       <path d="M 9.421875 54.6875 
L 18.40625 54.6875 
L 18.40625 0 
L 9.421875 0 
z
M 9.421875 75.984375 
L 18.40625 75.984375 
L 18.40625 64.59375 
L 9.421875 64.59375 
z
" id="DejaVuSans-105"/>
       <path d="M 54.890625 33.015625 
L 54.890625 0 
L 45.90625 0 
L 45.90625 32.71875 
Q 45.90625 40.484375 42.875 44.328125 
Q 39.84375 48.1875 33.796875 48.1875 
Q 26.515625 48.1875 22.3125 43.546875 
Q 18.109375 38.921875 18.109375 30.90625 
L 18.109375 0 
L 9.078125 0 
L 9.078125 54.6875 
L 18.109375 54.6875 
L 18.109375 46.1875 
Q 21.34375 51.125 25.703125 53.5625 
Q 30.078125 56 35.796875 56 
Q 45.21875 56 50.046875 50.171875 
Q 54.890625 44.34375 54.890625 33.015625 
z
" id="DejaVuSans-110"/>
      </defs>
      <use xlink:href="#DejaVuSans-86"/>
      <use x="66.158203" xlink:href="#DejaVuSans-105"/>
      <use x="93.941406" xlink:href="#DejaVuSans-110"/>
      <use x="157.320312" xlink:href="#DejaVuSans-32"/>
      <use x="189.107422" xlink:href="#DejaVuSans-91"/>
      <use x="228.121094" xlink:href="#DejaVuSans-86"/>
      <use x="296.529297" xlink:href="#DejaVuSans-93"/>
     </g>
    </g>
    <g id="line2d_27">
     <path d="M 576.740313 59.100312 
L 596.740313 59.100312 
" style="fill:none;stroke:#ff7f0e;stroke-linecap:square;stroke-width:1.5;"/>
    </g>
    <g id="line2d_28"/>
    <g id="text_15">
     <!-- Vout [V] -->
     <g transform="translate(604.740313 62.600312)scale(0.1 -0.1)">
      <defs>
       <path d="M 30.609375 48.390625 
Q 23.390625 48.390625 19.1875 42.75 
Q 14.984375 37.109375 14.984375 27.296875 
Q 14.984375 17.484375 19.15625 11.84375 
Q 23.34375 6.203125 30.609375 6.203125 
Q 37.796875 6.203125 41.984375 11.859375 
Q 46.1875 17.53125 46.1875 27.296875 
Q 46.1875 37.015625 41.984375 42.703125 
Q 37.796875 48.390625 30.609375 48.390625 
z
M 30.609375 56 
Q 42.328125 56 49.015625 48.375 
Q 55.71875 40.765625 55.71875 27.296875 
Q 55.71875 13.875 49.015625 6.21875 
Q 42.328125 -1.421875 30.609375 -1.421875 
Q 18.84375 -1.421875 12.171875 6.21875 
Q 5.515625 13.875 5.515625 27.296875 
Q 5.515625 40.765625 12.171875 48.375 
Q 18.84375 56 30.609375 56 
z
" id="DejaVuSans-111"/>
       <path d="M 8.5 21.578125 
L 8.5 54.6875 
L 17.484375 54.6875 
L 17.484375 21.921875 
Q 17.484375 14.15625 20.5 10.265625 
Q 23.53125 6.390625 29.59375 6.390625 
Q 36.859375 6.390625 41.078125 11.03125 
Q 45.3125 15.671875 45.3125 23.6875 
L 45.3125 54.6875 
L 54.296875 54.6875 
L 54.296875 0 
L 45.3125 0 
L 45.3125 8.40625 
Q 42.046875 3.421875 37.71875 1 
Q 33.40625 -1.421875 27.6875 -1.421875 
Q 18.265625 -1.421875 13.375 4.4375 
Q 8.5 10.296875 8.5 21.578125 
z
M 31.109375 56 
z
" id="DejaVuSans-117"/>
      </defs>
      <use xlink:href="#DejaVuSans-86"/>
      <use x="60.658203" xlink:href="#DejaVuSans-111"/>
      <use x="121.839844" xlink:href="#DejaVuSans-117"/>
      <use x="185.21875" xlink:href="#DejaVuSans-116"/>
      <use x="224.427734" xlink:href="#DejaVuSans-32"/>
      <use x="256.214844" xlink:href="#DejaVuSans-91"/>
      <use x="295.228516" xlink:href="#DejaVuSans-86"/>
      <use x="363.636719" xlink:href="#DejaVuSans-93"/>
     </g>
    </g>
   </g>
  </g>
 </g>
 <defs>
  <clipPath id="pf6a4d25b32">
   <rect height="307.4" width="662.65" x="42.620313" y="7.2"/>
  </clipPath>
 </defs>
</svg>
