<?xml version="1.0" standalone="no"?>
 <!DOCTYPE svg PUBLIC "-//W3C//DTD SVG 1.1//EN" 
 "http://www.w3.org/Graphics/SVG/1.1/DTD/svg11.dtd"> 
<svg
  xmlns:svg="http://www.w3.org/2000/svg"
  xmlns="http://www.w3.org/2000/svg"
  xmlns:xlink="http://www.w3.org/1999/xlink"
  version="1.1"
  width="297.0022mm" height="210.0072mm" viewBox="0.0000 0.0000 297.0022 210.0072">
<title>SVG Image created as panel-B_Cu.svg date 2023/11/08 17:27:13 </title>
  <desc>Image generated by PCBNEW </desc>
<g style="fill:#000000; fill-opacity:1.0000;stroke:#000000; stroke-opacity:1.0000;
stroke-linecap:round; stroke-linejoin:round;"
 transform="translate(0 0) scale(1 1)">
</g>
<g style="fill:#000000; fill-opacity:0.0; 
stroke:#000000; stroke-width:0.0000; stroke-opacity:1; 
stroke-linecap:round; stroke-linejoin:round;">
<g >
</g>
<g >
</g>
<g >
</g>
<g >
</g>
<g >
</g>
<g >
</g>
<g >
</g>
<g >
</g>
<g >
</g>
<g >
</g>
<g >
</g>
<g >
</g>
<g >
</g>
<g >
</g>
<g >
</g>
<g >
</g>
<g >
</g>
<g >
</g>
<g >
</g>
<g style="fill:#000000; fill-opacity:0.0; 
stroke:#000000; stroke-width:0.0000; stroke-opacity:1; 
stroke-linecap:round; stroke-linejoin:round;">
<g >
</g>
<g style="fill:#000000; fill-opacity:1.0000; 
stroke:#000000; stroke-width:0.0000; stroke-opacity:1; 
stroke-linecap:round; stroke-linejoin:round;">
<path style="fill:#000000; fill-opacity:1.0000; 
stroke:#000000; stroke-width:0.0000; stroke-opacity:1; 
stroke-linecap:round; stroke-linejoin:round;fill-rule:evenodd;"
d="M 85.3050,158.1050
26.0950,158.1050
26.0950,153.5799
30.6650,153.5799
30.6650,154.0201
30.7509,154.4519
30.9194,154.8587
31.1640,155.2247
31.4753,155.5360
31.8413,155.7806
32.2481,155.9491
32.6799,156.0350
33.1201,156.0350
33.5519,155.9491
33.9587,155.7806
34.3247,155.5360
34.6360,155.2247
34.8806,154.8587
35.0491,154.4519
35.1350,154.0201
35.1350,153.5799
76.3850,153.5799
76.3850,154.0201
76.4709,154.4519
76.6394,154.8587
76.8840,155.2247
77.1953,155.5360
77.5613,155.7806
77.9681,155.9491
78.3999,156.0350
78.8401,156.0350
79.2719,155.9491
79.6787,155.7806
80.0447,155.5360
80.3560,155.2247
80.6006,154.8587
80.7691,154.4519
80.8550,154.0201
80.8550,153.5799
80.7691,153.1481
80.6006,152.7413
80.3560,152.3753
80.0447,152.0640
79.6787,151.8194
79.2719,151.6509
78.8401,151.5650
78.3999,151.5650
77.9681,151.6509
77.5613,151.8194
77.1953,152.0640
76.8840,152.3753
76.6394,152.7413
76.4709,153.1481
76.3850,153.5799
35.1350,153.5799
35.0491,153.1481
34.8806,152.7413
34.6360,152.3753
34.3247,152.0640
33.9587,151.8194
33.5519,151.6509
33.1201,151.5650
32.6799,151.5650
32.2481,151.6509
31.8413,151.8194
31.4753,152.0640
31.1640,152.3753
30.9194,152.7413
30.7509,153.1481
30.6650,153.5799
26.0950,153.5799
26.0950,131.7023
31.7250,131.7023
31.7250,132.4577
31.8724,133.1986
32.1615,133.8966
32.5812,134.5247
33.1153,135.0588
33.7434,135.4785
34.4414,135.7676
35.1823,135.9150
35.9377,135.9150
36.6786,135.7676
37.3766,135.4785
38.0047,135.0588
38.5388,134.5247
38.9585,133.8966
39.2476,133.1986
39.3950,132.4577
39.3950,132.0763
42.3230,132.0763
42.3238,132.1393
42.3239,132.1433
42.3267,132.2062
42.3270,132.2103
42.3318,132.2731
42.3321,132.2771
42.3389,132.3398
42.3394,132.3436
42.3481,132.4060
42.3487,132.4101
42.3594,132.4722
42.3602,132.4762
42.3729,132.5379
42.3738,132.5417
42.3884,132.6030
42.3893,132.6069
42.4058,132.6677
42.4069,132.6715
42.4253,132.7317
42.4266,132.7355
42.4469,132.7952
42.4483,132.7991
42.4705,132.8580
42.4719,132.8615
42.4959,132.9198
42.4974,132.9235
42.5232,132.9810
42.5250,132.9848
42.5527,133.0414
42.5545,133.0449
42.5839,133.1006
42.5857,133.1040
42.6168,133.1588
42.6190,133.1624
42.6519,133.2161
42.6539,133.2194
42.6884,133.2721
42.6907,133.2754
42.7269,133.3270
42.7293,133.3303
42.7671,133.3807
42.7695,133.3838
42.8088,133.4330
42.8114,133.4362
42.8523,133.4841
42.8549,133.4870
42.8973,133.5337
42.9001,133.5367
42.9439,133.5819
42.9466,133.5846
42.9918,133.6285
42.9948,133.6313
43.0414,133.6737
43.0444,133.6764
43.0923,133.7173
43.0954,133.7198
43.1446,133.7592
43.1477,133.7616
43.1981,133.7995
43.2014,133.8019
43.2529,133.8381
43.2562,133.8404
43.3089,133.8750
43.3123,133.8771
43.3660,133.9100
43.3694,133.9120
43.4241,133.9432
43.4276,133.9451
43.4833,133.9746
43.4869,133.9765
43.5435,134.0042
43.5471,134.0059
43.6045,134.0318
43.6084,134.0334
43.6667,134.0574
43.6700,134.0588
43.7289,134.0811
43.7330,134.0825
43.7926,134.1028
43.7963,134.1040
43.8565,134.1225
43.8603,134.1236
43.9211,134.1402
43.9251,134.1412
43.9863,134.1558
43.9902,134.1567
44.0520,134.1694
44.0558,134.1701
44.1178,134.1809
44.1219,134.1816
44.1843,134.1904
44.1883,134.1909
44.2510,134.1977
44.2550,134.1980
44.3178,134.2028
44.3217,134.2031
44.3846,134.2060
44.3886,134.2061
44.4516,134.2070
44.4674,134.2055
44.4855,134.2067
44.5485,134.2047
44.5526,134.2045
44.6155,134.2005
44.6193,134.2002
44.6820,134.1943
44.6862,134.1939
44.7487,134.1859
44.7524,134.1854
44.8146,134.1756
44.8188,134.1748
44.8807,134.1629
44.8845,134.1621
44.9460,134.1483
44.9499,134.1474
45.0109,134.1317
45.0147,134.1306
45.0752,134.1130
45.0790,134.1119
45.1389,134.0924
45.1428,134.0910
45.2020,134.0696
45.2057,134.0682
45.2643,134.0449
45.2680,134.0434
45.3258,134.0183
45.3294,134.0167
45.3864,133.9898
45.3900,133.9880
45.4460,133.9594
45.4496,133.9575
45.5048,133.9270
45.5081,133.9251
45.5623,133.8930
45.5659,133.8907
45.6190,133.8568
45.6222,133.8548
45.6743,133.8193
45.6776,133.8169
45.7285,133.7798
45.7317,133.7774
45.7814,133.7387
45.7844,133.7363
45.8329,133.6961
45.8361,133.6934
45.8833,133.6516
45.8862,133.6489
45.9320,133.6057
45.9350,133.6028
45.9794,133.5581
45.9820,133.5554
46.0251,133.5094
46.0280,133.5063
46.0695,133.4589
46.0719,133.4560
46.1120,133.4074
46.1146,133.4042
46.1531,133.3543
46.1554,133.3511
46.1923,133.3001
46.1948,133.2966
46.2300,133.2443
46.2320,133.2412
46.2656,133.1880
46.2677,133.1846
46.2997,133.1302
46.3017,133.1265
46.3318,133.0712
46.3336,133.0679
46.3621,133.0117
46.3639,133.0079
46.3905,132.9508
46.3921,132.9474
46.4170,132.8895
46.4185,132.8857
46.4415,132.8271
46.4430,132.8232
46.4641,132.7638
46.4653,132.7602
46.4846,132.7002
46.4858,132.6962
46.5031,132.6357
46.5041,132.6320
46.5196,132.5709
46.5206,132.5669
46.5341,132.5053
46.5349,132.5013
46.5464,132.4394
46.5470,132.4357
46.5567,132.3734
46.5573,132.3692
46.5649,132.3067
46.5653,132.3029
46.5710,132.2402
46.5713,132.2362
46.5750,132.1733
46.5752,132.1692
46.5769,132.1062
46.5769,132.1022
46.5766,132.0392
46.5765,132.0352
46.5742,131.9722
46.5740,131.9683
46.5698,131.9054
46.5695,131.9014
46.5633,131.8388
46.5628,131.8348
46.5546,131.7723
46.5540,131.7682
46.5438,131.7060
46.5431,131.7022
46.5335,131.6530
51.5450,131.6530
51.5450,132.5070
51.7116,133.3445
52.0384,134.1334
52.5128,134.8434
53.1166,135.4472
53.8266,135.9216
54.6155,136.2484
55.4530,136.4150
56.3070,136.4150
57.1445,136.2484
57.9334,135.9216
58.6434,135.4472
59.2472,134.8434
59.7216,134.1334
60.0484,133.3445
60.2150,132.5070
60.2150,131.7023
72.3650,131.7023
72.3650,132.4577
72.5124,133.1986
72.8015,133.8966
73.2212,134.5247
73.7553,135.0588
74.3834,135.4785
75.0814,135.7676
75.8223,135.9150
76.5777,135.9150
77.3186,135.7676
78.0166,135.4785
78.6447,135.0588
79.1788,134.5247
79.5985,133.8966
79.8876,133.1986
80.0350,132.4577
80.0350,131.7023
79.8876,130.9614
79.5985,130.2634
79.1788,129.6353
78.6447,129.1012
78.0166,128.6815
77.3186,128.3924
76.5777,128.2450
75.8223,128.2450
75.0814,128.3924
74.3834,128.6815
73.7553,129.1012
73.2212,129.6353
72.8015,130.2634
72.5124,130.9614
72.3650,131.7023
60.2150,131.7023
60.2150,131.6530
60.0484,130.8155
59.7216,130.0266
59.2472,129.3166
58.6434,128.7128
57.9334,128.2384
57.1445,127.9116
56.3070,127.7450
55.4530,127.7450
54.6155,127.9116
53.8266,128.2384
53.1166,128.7128
52.5128,129.3166
52.0384,130.0266
51.7116,130.8155
51.5450,131.6530
46.5335,131.6530
46.5310,131.6404
46.5302,131.6366
46.5162,131.5752
46.5152,131.5712
46.4992,131.5102
46.4982,131.5063
46.4803,131.4459
46.4791,131.4421
46.4593,131.3823
46.4580,131.3787
46.4364,131.3195
46.4349,131.3156
46.4114,131.2572
46.4098,131.2534
46.3844,131.1957
46.3829,131.1923
46.3558,131.1354
46.3539,131.1317
46.3250,131.0758
46.3231,131.0723
46.2924,131.0172
46.2904,131.0137
46.2580,130.9597
46.2559,130.9563
46.2218,130.9033
46.2196,130.9000
46.1839,130.8481
46.1817,130.8449
46.1444,130.7941
46.1418,130.7907
46.1028,130.7412
46.1004,130.7383
46.0600,130.6900
46.0573,130.6869
46.0153,130.6399
46.0126,130.6369
45.9692,130.5913
45.9664,130.5885
45.9215,130.5442
45.9186,130.5414
45.8724,130.4986
45.8695,130.4961
45.8220,130.4547
45.8189,130.4520
45.7701,130.4122
45.7669,130.4097
45.7168,130.3714
45.7136,130.3690
45.6624,130.3324
45.6592,130.3302
45.6068,130.2951
45.6034,130.2929
45.5500,130.2595
45.5464,130.2573
45.4919,130.2257
45.4887,130.2239
45.4333,130.1939
45.4297,130.1920
45.3734,130.1638
45.3696,130.1621
45.3123,130.1357
45.3086,130.1340
45.2506,130.1095
45.2472,130.1081
45.1885,130.0853
45.1846,130.0839
45.1251,130.0630
45.1213,130.0617
45.0613,130.0427
45.0574,130.0416
44.9967,130.0245
44.9928,130.0234
44.9317,130.0083
44.9280,130.0075
44.8664,129.9942
44.8624,129.9934
44.8004,129.9821
44.7964,129.9814
44.7341,129.9721
44.7302,129.9716
44.6676,129.9642
44.6636,129.9638
44.6008,129.9584
44.5968,129.9581
44.5339,129.9547
44.5300,129.9545
44.4670,129.9530
44.4628,129.9530
44.3998,129.9536
44.3960,129.9537
44.3331,129.9562
44.3290,129.9564
44.2662,129.9609
44.2622,129.9613
44.1995,129.9678
44.1955,129.9683
44.1331,129.9768
44.1293,129.9773
44.0671,129.9877
44.0630,129.9885
44.0012,130.0009
43.9973,130.0017
43.9360,130.0160
43.9321,130.0170
43.8712,130.0333
43.8675,130.0344
43.8072,130.0525
43.8032,130.0537
43.7434,130.0738
43.7397,130.0751
43.6807,130.0970
43.6771,130.0984
43.6187,130.1221
43.6148,130.1238
43.5573,130.1494
43.5538,130.1510
43.4970,130.1784
43.4933,130.1803
43.4375,130.2095
43.4341,130.2113
43.3792,130.2422
43.3758,130.2442
43.3219,130.2768
43.3185,130.2789
43.2656,130.3132
43.2621,130.3156
43.2104,130.3516
43.2074,130.3538
43.1568,130.3913
43.1535,130.3938
43.1041,130.4330
43.1010,130.4356
43.0529,130.4762
43.0500,130.4788
43.0032,130.5209
43.0000,130.5238
42.9546,130.5675
42.9520,130.5701
42.9079,130.6151
42.9050,130.6181
42.8624,130.6645
42.8599,130.6674
42.8187,130.7151
42.8160,130.7183
42.7764,130.7673
42.7739,130.7704
42.7359,130.8206
42.7337,130.8238
42.6972,130.8752
42.6948,130.8785
42.6600,130.9310
42.6578,130.9345
42.6247,130.9881
42.6228,130.9913
42.5913,131.0459
42.5893,131.0496
42.5596,131.1052
42.5578,131.1087
42.5299,131.1651
42.5282,131.1686
42.5020,131.2259
42.5003,131.2298
42.4760,131.2880
42.4746,131.2915
42.4521,131.3503
42.4507,131.3542
42.4301,131.4136
42.4289,131.4173
42.4101,131.4775
42.4089,131.4815
42.3921,131.5422
42.3911,131.5461
42.3762,131.6073
42.3753,131.6111
42.3623,131.6728
42.3616,131.6768
42.3506,131.7388
42.3499,131.7427
42.3408,131.8051
42.3403,131.8091
42.3332,131.8717
42.3328,131.8757
42.3277,131.9385
42.3275,131.9425
42.3244,132.0054
42.3242,132.0093
42.3230,132.0723
42.3230,132.0763
39.3950,132.0763
39.3950,131.7023
39.2476,130.9614
38.9585,130.2634
38.5388,129.6353
38.0047,129.1012
37.3766,128.6815
36.6786,128.3924
35.9377,128.2450
35.1823,128.2450
34.4414,128.3924
33.7434,128.6815
33.1153,129.1012
32.5812,129.6353
32.1615,130.2634
31.8724,130.9614
31.7250,131.7023
26.0950,131.7023
26.0950,91.0130
51.5450,91.0130
51.5450,91.8670
51.7116,92.7045
52.0384,93.4934
52.5128,94.2034
53.1166,94.8072
53.8266,95.2816
54.6155,95.6084
55.4530,95.7750
56.3070,95.7750
57.1445,95.6084
57.9334,95.2816
58.6434,94.8072
59.2472,94.2034
59.7216,93.4934
60.0484,92.7045
60.2150,91.8670
60.2150,91.0130
71.8650,91.0130
71.8650,91.8670
72.0316,92.7045
72.3584,93.4934
72.8328,94.2034
73.4366,94.8072
74.1466,95.2816
74.9355,95.6084
75.7730,95.7750
76.6270,95.7750
77.4645,95.6084
78.2534,95.2816
78.9634,94.8072
79.5672,94.2034
80.0416,93.4934
80.3684,92.7045
80.5350,91.8670
80.5350,91.0130
80.3684,90.1755
80.0416,89.3866
79.5672,88.6766
78.9634,88.0728
78.2534,87.5984
77.4645,87.2716
76.6270,87.1050
75.7730,87.1050
74.9355,87.2716
74.1466,87.5984
73.4366,88.0728
72.8328,88.6766
72.3584,89.3866
72.0316,90.1755
71.8650,91.0130
60.2150,91.0130
60.0484,90.1755
59.7216,89.3866
59.2472,88.6766
58.6434,88.0728
57.9334,87.5984
57.1445,87.2716
56.3070,87.1050
55.4530,87.1050
54.6155,87.2716
53.8266,87.5984
53.1166,88.0728
52.5128,88.6766
52.0384,89.3866
51.7116,90.1755
51.5450,91.0130
26.0950,91.0130
26.0950,70.7423
31.7250,70.7423
31.7250,71.4977
31.8724,72.2386
32.1615,72.9366
32.5812,73.5647
33.1153,74.0988
33.7434,74.5185
34.4414,74.8076
35.1823,74.9550
35.9377,74.9550
36.6786,74.8076
37.3766,74.5185
38.0047,74.0988
38.5388,73.5647
38.9585,72.9366
39.2476,72.2386
39.3950,71.4977
39.3950,70.7423
39.3852,70.6930
51.5450,70.6930
51.5450,71.5470
51.7116,72.3845
52.0384,73.1734
52.5128,73.8834
53.1166,74.4872
53.8266,74.9616
54.6155,75.2884
55.4530,75.4550
56.3070,75.4550
57.1445,75.2884
57.9334,74.9616
58.6434,74.4872
59.2472,73.8834
59.7216,73.1734
60.0484,72.3845
60.2150,71.5470
60.2150,70.6930
71.8650,70.6930
71.8650,71.5470
72.0316,72.3845
72.3584,73.1734
72.8328,73.8834
73.4366,74.4872
74.1466,74.9616
74.9355,75.2884
75.7730,75.4550
76.6270,75.4550
77.4645,75.2884
78.2534,74.9616
78.9634,74.4872
79.5672,73.8834
80.0416,73.1734
80.3684,72.3845
80.5350,71.5470
80.5350,70.6930
80.3684,69.8555
80.0416,69.0666
79.5672,68.3566
78.9634,67.7528
78.2534,67.2784
77.4645,66.9516
76.6270,66.7850
75.7730,66.7850
74.9355,66.9516
74.1466,67.2784
73.4366,67.7528
72.8328,68.3566
72.3584,69.0666
72.0316,69.8555
71.8650,70.6930
60.2150,70.6930
60.0484,69.8555
59.7216,69.0666
59.2472,68.3566
58.6434,67.7528
57.9334,67.2784
57.1445,66.9516
56.3070,66.7850
55.4530,66.7850
54.6155,66.9516
53.8266,67.2784
53.1166,67.7528
52.5128,68.3566
52.0384,69.0666
51.7116,69.8555
51.5450,70.6930
39.3852,70.6930
39.2476,70.0014
38.9585,69.3034
38.5388,68.6753
38.0047,68.1412
37.3766,67.7215
36.6786,67.4324
35.9377,67.2850
35.1823,67.2850
34.4414,67.4324
33.7434,67.7215
33.1153,68.1412
32.5812,68.6753
32.1615,69.3034
31.8724,70.0014
31.7250,70.7423
26.0950,70.7423
26.0950,50.3730
31.2250,50.3730
31.2250,51.2270
31.3916,52.0645
31.7184,52.8534
32.1928,53.5634
32.7966,54.1672
33.5066,54.6416
34.2955,54.9684
35.1330,55.1350
35.9870,55.1350
36.8245,54.9684
37.6134,54.6416
38.3234,54.1672
38.9272,53.5634
39.4016,52.8534
39.7284,52.0645
39.8950,51.2270
39.8950,50.3730
51.5450,50.3730
51.5450,51.2270
51.7116,52.0645
52.0384,52.8534
52.5128,53.5634
53.1166,54.1672
53.8266,54.6416
54.6155,54.9684
55.4530,55.1350
56.3070,55.1350
57.1445,54.9684
57.9334,54.6416
58.6434,54.1672
59.2472,53.5634
59.7216,52.8534
60.0484,52.0645
60.2150,51.2270
60.2150,50.3730
71.8650,50.3730
71.8650,51.2270
72.0316,52.0645
72.3584,52.8534
72.8328,53.5634
73.4366,54.1672
74.1466,54.6416
74.9355,54.9684
75.7730,55.1350
76.6270,55.1350
77.4645,54.9684
78.2534,54.6416
78.9634,54.1672
79.5672,53.5634
80.0416,52.8534
80.3684,52.0645
80.5350,51.2270
80.5350,50.3730
80.3684,49.5355
80.0416,48.7466
79.5672,48.0366
78.9634,47.4328
78.2534,46.9584
77.4645,46.6316
76.6270,46.4650
75.7730,46.4650
74.9355,46.6316
74.1466,46.9584
73.4366,47.4328
72.8328,48.0366
72.3584,48.7466
72.0316,49.5355
71.8650,50.3730
60.2150,50.3730
60.0484,49.5355
59.7216,48.7466
59.2472,48.0366
58.6434,47.4328
57.9334,46.9584
57.1445,46.6316
56.3070,46.4650
55.4530,46.4650
54.6155,46.6316
53.8266,46.9584
53.1166,47.4328
52.5128,48.0366
52.0384,48.7466
51.7116,49.5355
51.5450,50.3730
39.8950,50.3730
39.7284,49.5355
39.4016,48.7466
38.9272,48.0366
38.3234,47.4328
37.6134,46.9584
36.8245,46.6316
35.9870,46.4650
35.1330,46.4650
34.2955,46.6316
33.5066,46.9584
32.7966,47.4328
32.1928,48.0366
31.7184,48.7466
31.3916,49.5355
31.2250,50.3730
26.0950,50.3730
26.0950,30.1799
30.6650,30.1799
30.6650,30.6201
30.7509,31.0519
30.9194,31.4587
31.1640,31.8247
31.4753,32.1360
31.8413,32.3806
32.2481,32.5491
32.6799,32.6350
33.1201,32.6350
33.5519,32.5491
33.9587,32.3806
34.3247,32.1360
34.6360,31.8247
34.8806,31.4587
35.0491,31.0519
35.1350,30.6201
35.1350,30.1799
76.3850,30.1799
76.3850,30.6201
76.4709,31.0519
76.6394,31.4587
76.8840,31.8247
77.1953,32.1360
77.5613,32.3806
77.9681,32.5491
78.3999,32.6350
78.8401,32.6350
79.2719,32.5491
79.6787,32.3806
80.0447,32.1360
80.3560,31.8247
80.6006,31.4587
80.7691,31.0519
80.8550,30.6201
80.8550,30.1799
80.7691,29.7481
80.6006,29.3413
80.3560,28.9753
80.0447,28.6640
79.6787,28.4194
79.2719,28.2509
78.8401,28.1650
78.3999,28.1650
77.9681,28.2509
77.5613,28.4194
77.1953,28.6640
76.8840,28.9753
76.6394,29.3413
76.4709,29.7481
76.3850,30.1799
35.1350,30.1799
35.0491,29.7481
34.8806,29.3413
34.6360,28.9753
34.3247,28.6640
33.9587,28.4194
33.5519,28.2509
33.1201,28.1650
32.6799,28.1650
32.2481,28.2509
31.8413,28.4194
31.4753,28.6640
31.1640,28.9753
30.9194,29.3413
30.7509,29.7481
30.6650,30.1799
26.0950,30.1799
26.0950,26.0950
85.3050,26.0950
Z" /> 
</g>
</g>
</g>
<g style="fill:#FFFFFF; fill-opacity:1.0000; 
stroke:#FFFFFF; stroke-width:0.0000; stroke-opacity:1; 
stroke-linecap:round; stroke-linejoin:round;">
<circle cx="35.5600" cy="71.1200" r="0.1750" /> 
</g>
<g style="fill:#FFFFFF; fill-opacity:1.0000; 
stroke:#FFFFFF; stroke-width:0.0212; stroke-opacity:1; 
stroke-linecap:round; stroke-linejoin:round;">
</g>
<g style="fill:#FFFFFF; fill-opacity:1.0000; 
stroke:#FFFFFF; stroke-width:0.0000; stroke-opacity:1; 
stroke-linecap:round; stroke-linejoin:round;">
<circle cx="35.5600" cy="132.0800" r="0.1750" /> 
</g>
<g style="fill:#FFFFFF; fill-opacity:1.0000; 
stroke:#FFFFFF; stroke-width:0.0212; stroke-opacity:1; 
stroke-linecap:round; stroke-linejoin:round;">
</g>
<g style="fill:#FFFFFF; fill-opacity:1.0000; 
stroke:#FFFFFF; stroke-width:0.0000; stroke-opacity:1; 
stroke-linecap:round; stroke-linejoin:round;">
<circle cx="35.5600" cy="50.8000" r="0.1750" /> 
</g>
<g style="fill:#FFFFFF; fill-opacity:1.0000; 
stroke:#FFFFFF; stroke-width:0.0212; stroke-opacity:1; 
stroke-linecap:round; stroke-linejoin:round;">
</g>
<g style="fill:#FFFFFF; fill-opacity:1.0000; 
stroke:#FFFFFF; stroke-width:0.0000; stroke-opacity:1; 
stroke-linecap:round; stroke-linejoin:round;">
<circle cx="55.8800" cy="50.8000" r="0.1750" /> 
</g>
<g style="fill:#FFFFFF; fill-opacity:1.0000; 
stroke:#FFFFFF; stroke-width:0.0212; stroke-opacity:1; 
stroke-linecap:round; stroke-linejoin:round;">
</g>
<g style="fill:#FFFFFF; fill-opacity:1.0000; 
stroke:#FFFFFF; stroke-width:0.0000; stroke-opacity:1; 
stroke-linecap:round; stroke-linejoin:round;">
<circle cx="55.8800" cy="71.1200" r="0.1750" /> 
</g>
<g style="fill:#FFFFFF; fill-opacity:1.0000; 
stroke:#FFFFFF; stroke-width:0.0212; stroke-opacity:1; 
stroke-linecap:round; stroke-linejoin:round;">
</g>
<g style="fill:#FFFFFF; fill-opacity:1.0000; 
stroke:#FFFFFF; stroke-width:0.0000; stroke-opacity:1; 
stroke-linecap:round; stroke-linejoin:round;">
<circle cx="55.8800" cy="91.4400" r="0.1750" /> 
</g>
<g style="fill:#FFFFFF; fill-opacity:1.0000; 
stroke:#FFFFFF; stroke-width:0.0212; stroke-opacity:1; 
stroke-linecap:round; stroke-linejoin:round;">
</g>
<g style="fill:#FFFFFF; fill-opacity:1.0000; 
stroke:#FFFFFF; stroke-width:0.0000; stroke-opacity:1; 
stroke-linecap:round; stroke-linejoin:round;">
<circle cx="55.8800" cy="132.0800" r="0.1750" /> 
</g>
<g style="fill:#FFFFFF; fill-opacity:1.0000; 
stroke:#FFFFFF; stroke-width:0.0212; stroke-opacity:1; 
stroke-linecap:round; stroke-linejoin:round;">
</g>
<g style="fill:#FFFFFF; fill-opacity:1.0000; 
stroke:#FFFFFF; stroke-width:0.0000; stroke-opacity:1; 
stroke-linecap:round; stroke-linejoin:round;">
<circle cx="76.2000" cy="50.8000" r="0.1750" /> 
</g>
<g style="fill:#FFFFFF; fill-opacity:1.0000; 
stroke:#FFFFFF; stroke-width:0.0212; stroke-opacity:1; 
stroke-linecap:round; stroke-linejoin:round;">
</g>
<g style="fill:#FFFFFF; fill-opacity:1.0000; 
stroke:#FFFFFF; stroke-width:0.0000; stroke-opacity:1; 
stroke-linecap:round; stroke-linejoin:round;">
<circle cx="76.2000" cy="71.1200" r="0.1750" /> 
</g>
<g style="fill:#FFFFFF; fill-opacity:1.0000; 
stroke:#FFFFFF; stroke-width:0.0212; stroke-opacity:1; 
stroke-linecap:round; stroke-linejoin:round;">
</g>
<g style="fill:#FFFFFF; fill-opacity:1.0000; 
stroke:#FFFFFF; stroke-width:0.0000; stroke-opacity:1; 
stroke-linecap:round; stroke-linejoin:round;">
<circle cx="76.2000" cy="91.4400" r="0.1750" /> 
</g>
<g style="fill:#FFFFFF; fill-opacity:1.0000; 
stroke:#FFFFFF; stroke-width:0.0212; stroke-opacity:1; 
stroke-linecap:round; stroke-linejoin:round;">
</g>
<g style="fill:#FFFFFF; fill-opacity:1.0000; 
stroke:#FFFFFF; stroke-width:0.0000; stroke-opacity:1; 
stroke-linecap:round; stroke-linejoin:round;">
<circle cx="76.2000" cy="132.0800" r="0.1750" /> 
</g>
<g style="fill:#FFFFFF; fill-opacity:1.0000; 
stroke:#FFFFFF; stroke-width:0.0212; stroke-opacity:1; 
stroke-linecap:round; stroke-linejoin:round;">
</g>
<g style="fill:#FFFFFF; fill-opacity:1.0000; 
stroke:#FFFFFF; stroke-width:0.0000; stroke-opacity:1; 
stroke-linecap:round; stroke-linejoin:round;">
<circle cx="32.9000" cy="30.4000" r="0.1750" /> 
</g>
<g style="fill:#FFFFFF; fill-opacity:1.0000; 
stroke:#FFFFFF; stroke-width:0.0212; stroke-opacity:1; 
stroke-linecap:round; stroke-linejoin:round;">
</g>
<g style="fill:#FFFFFF; fill-opacity:1.0000; 
stroke:#FFFFFF; stroke-width:0.0000; stroke-opacity:1; 
stroke-linecap:round; stroke-linejoin:round;">
<circle cx="78.6200" cy="30.4000" r="0.1750" /> 
</g>
<g style="fill:#FFFFFF; fill-opacity:1.0000; 
stroke:#FFFFFF; stroke-width:0.0212; stroke-opacity:1; 
stroke-linecap:round; stroke-linejoin:round;">
</g>
<g style="fill:#FFFFFF; fill-opacity:1.0000; 
stroke:#FFFFFF; stroke-width:0.0000; stroke-opacity:1; 
stroke-linecap:round; stroke-linejoin:round;">
<circle cx="32.9000" cy="153.8000" r="0.1750" /> 
</g>
<g style="fill:#FFFFFF; fill-opacity:1.0000; 
stroke:#FFFFFF; stroke-width:0.0212; stroke-opacity:1; 
stroke-linecap:round; stroke-linejoin:round;">
</g>
<g style="fill:#FFFFFF; fill-opacity:1.0000; 
stroke:#FFFFFF; stroke-width:0.0000; stroke-opacity:1; 
stroke-linecap:round; stroke-linejoin:round;">
<circle cx="78.6200" cy="153.8000" r="0.1750" /> 
</g>
<g style="fill:#FFFFFF; fill-opacity:1.0000; 
stroke:#FFFFFF; stroke-width:0.0212; stroke-opacity:1; 
stroke-linecap:round; stroke-linejoin:round;">
</g>
<g style="fill:#000000; fill-opacity:1.0000; 
stroke:#000000; stroke-width:0.0212; stroke-opacity:1; 
stroke-linecap:round; stroke-linejoin:round;">
</g> 
</svg>
