<?xml version="1.0" standalone="no"?>
 <!DOCTYPE svg PUBLIC "-//W3C//DTD SVG 1.1//EN" 
 "http://www.w3.org/Graphics/SVG/1.1/DTD/svg11.dtd"> 
<svg
  xmlns:svg="http://www.w3.org/2000/svg"
  xmlns="http://www.w3.org/2000/svg"
  xmlns:xlink="http://www.w3.org/1999/xlink"
  version="1.1"
  width="297.0022mm" height="210.0072mm" viewBox="0.0000 0.0000 297.0022 210.0072">
<title>SVG Image created as panel-B_Mask.svg date 2023/11/08 17:27:13 </title>
  <desc>Image generated by PCBNEW </desc>
<g style="fill:#000000; fill-opacity:1.0000;stroke:#000000; stroke-opacity:1.0000;
stroke-linecap:round; stroke-linejoin:round;"
 transform="translate(0 0) scale(1 1)">
</g>
<g style="fill:#000000; fill-opacity:0.0; 
stroke:#000000; stroke-width:0.0000; stroke-opacity:1; 
stroke-linecap:round; stroke-linejoin:round;">
<g >
</g>
<g style="fill:#000000; fill-opacity:1.0000; 
stroke:#000000; stroke-width:0.0000; stroke-opacity:1; 
stroke-linecap:round; stroke-linejoin:round;">
<path style="fill:#000000; fill-opacity:1.0000; 
stroke:#000000; stroke-width:0.0000; stroke-opacity:1; 
stroke-linecap:round; stroke-linejoin:round;fill-rule:evenodd;"
d="M 32.9631,152.1540
33.0234,152.1540
33.0892,152.1639
33.1583,152.1693
33.2139,152.1827
33.2673,152.1907
33.3370,152.2122
33.4102,152.2298
33.4575,152.2494
33.5031,152.2635
33.5746,152.2979
33.6495,152.3289
33.6880,152.3525
33.7253,152.3705
33.7963,152.4189
33.8704,152.4643
33.9001,152.4897
33.9292,152.5095
33.9970,152.5724
34.0674,152.6326
34.0888,152.6576
34.1100,152.6773
34.1719,152.7549
34.2357,152.8296
34.2497,152.8524
34.2638,152.8702
34.3171,152.9624
34.3711,153.0505
34.3790,153.0696
34.3872,153.0838
34.4290,153.1905
34.4702,153.2898
34.4736,153.3040
34.4773,153.3135
34.5052,153.4354
34.5307,153.5417
34.5313,153.5501
34.5322,153.5540
34.5437,153.7070
34.5510,153.8000
34.5437,153.8930
34.5322,154.0460
34.5313,154.0499
34.5307,154.0583
34.5052,154.1646
34.4773,154.2865
34.4736,154.2960
34.4702,154.3102
34.4290,154.4096
34.3872,154.5162
34.3790,154.5304
34.3711,154.5495
34.3171,154.6376
34.2638,154.7298
34.2497,154.7475
34.2357,154.7704
34.1719,154.8451
34.1100,154.9227
34.0888,154.9424
34.0674,154.9674
33.9969,155.0276
33.9292,155.0905
33.9001,155.1103
33.8704,155.1357
33.7963,155.1811
33.7253,155.2295
33.6880,155.2475
33.6495,155.2711
33.5746,155.3021
33.5031,155.3365
33.4575,155.3506
33.4102,155.3702
33.3370,155.3878
33.2673,155.4093
33.2140,155.4173
33.1583,155.4307
33.0892,155.4361
33.0234,155.4460
32.9631,155.4460
32.9000,155.4510
32.8369,155.4460
32.7766,155.4460
32.7108,155.4361
32.6417,155.4307
32.5860,155.4173
32.5327,155.4093
32.4630,155.3878
32.3898,155.3702
32.3425,155.3506
32.2969,155.3365
32.2254,155.3021
32.1505,155.2711
32.1120,155.2475
32.0747,155.2295
32.0037,155.1811
31.9296,155.1357
31.8999,155.1103
31.8708,155.0905
31.8030,155.0276
31.7326,154.9674
31.7112,154.9424
31.6900,154.9227
31.6281,154.8451
31.5643,154.7704
31.5503,154.7476
31.5362,154.7298
31.4829,154.6376
31.4289,154.5495
31.4210,154.5304
31.4128,154.5162
31.3709,154.4095
31.3298,154.3102
31.3264,154.2960
31.3227,154.2865
31.2948,154.1645
31.2693,154.0583
31.2687,154.0499
31.2678,154.0460
31.2563,153.8927
31.2490,153.8000
31.2563,153.7073
31.2678,153.5540
31.2687,153.5501
31.2693,153.5417
31.2948,153.4355
31.3227,153.3135
31.3264,153.3040
31.3298,153.2898
31.3709,153.1905
31.4128,153.0838
31.4210,153.0696
31.4289,153.0505
31.4829,152.9624
31.5362,152.8702
31.5503,152.8524
31.5643,152.8296
31.6281,152.7549
31.6900,152.6773
31.7112,152.6576
31.7326,152.6326
31.8030,152.5724
31.8708,152.5095
31.8999,152.4897
31.9296,152.4643
32.0037,152.4189
32.0747,152.3705
32.1120,152.3525
32.1505,152.3289
32.2254,152.2979
32.2969,152.2635
32.3425,152.2494
32.3898,152.2298
32.4630,152.2122
32.5327,152.1907
32.5861,152.1827
32.6417,152.1693
32.7108,152.1639
32.7766,152.1540
32.8369,152.1540
32.9000,152.1490
Z" /> 
<path style="fill:#000000; fill-opacity:1.0000; 
stroke:#000000; stroke-width:0.0000; stroke-opacity:1; 
stroke-linecap:round; stroke-linejoin:round;fill-rule:evenodd;"
d="M 78.6831,152.1540
78.7434,152.1540
78.8092,152.1639
78.8783,152.1693
78.9339,152.1827
78.9873,152.1907
79.0570,152.2122
79.1302,152.2298
79.1775,152.2494
79.2231,152.2635
79.2946,152.2979
79.3695,152.3289
79.4080,152.3525
79.4453,152.3705
79.5163,152.4189
79.5904,152.4643
79.6201,152.4897
79.6492,152.5095
79.7170,152.5724
79.7874,152.6326
79.8088,152.6576
79.8300,152.6773
79.8919,152.7549
79.9557,152.8296
79.9697,152.8524
79.9838,152.8702
80.0371,152.9624
80.0911,153.0505
80.0990,153.0696
80.1072,153.0838
80.1490,153.1905
80.1902,153.2898
80.1936,153.3040
80.1973,153.3135
80.2252,153.4354
80.2507,153.5417
80.2513,153.5501
80.2522,153.5540
80.2637,153.7070
80.2710,153.8000
80.2637,153.8930
80.2522,154.0460
80.2513,154.0499
80.2507,154.0583
80.2252,154.1646
80.1973,154.2865
80.1936,154.2960
80.1902,154.3102
80.1490,154.4096
80.1072,154.5162
80.0990,154.5304
80.0911,154.5495
80.0371,154.6376
79.9838,154.7298
79.9697,154.7475
79.9557,154.7704
79.8919,154.8451
79.8300,154.9227
79.8088,154.9424
79.7874,154.9674
79.7169,155.0276
79.6492,155.0905
79.6201,155.1103
79.5904,155.1357
79.5163,155.1811
79.4453,155.2295
79.4080,155.2475
79.3695,155.2711
79.2946,155.3021
79.2231,155.3365
79.1775,155.3506
79.1302,155.3702
79.0570,155.3878
78.9873,155.4093
78.9340,155.4173
78.8783,155.4307
78.8092,155.4361
78.7434,155.4460
78.6831,155.4460
78.6200,155.4510
78.5569,155.4460
78.4966,155.4460
78.4308,155.4361
78.3617,155.4307
78.3060,155.4173
78.2527,155.4093
78.1830,155.3878
78.1098,155.3702
78.0625,155.3506
78.0169,155.3365
77.9454,155.3021
77.8705,155.2711
77.8320,155.2475
77.7947,155.2295
77.7237,155.1811
77.6496,155.1357
77.6199,155.1103
77.5908,155.0905
77.5230,155.0276
77.4526,154.9674
77.4312,154.9424
77.4100,154.9227
77.3481,154.8451
77.2843,154.7704
77.2703,154.7476
77.2562,154.7298
77.2029,154.6376
77.1489,154.5495
77.1410,154.5304
77.1328,154.5162
77.0909,154.4095
77.0498,154.3102
77.0464,154.2960
77.0427,154.2865
77.0148,154.1645
76.9893,154.0583
76.9887,154.0499
76.9878,154.0460
76.9763,153.8927
76.9690,153.8000
76.9763,153.7073
76.9878,153.5540
76.9887,153.5501
76.9893,153.5417
77.0148,153.4355
77.0427,153.3135
77.0464,153.3040
77.0498,153.2898
77.0909,153.1905
77.1328,153.0838
77.1410,153.0696
77.1489,153.0505
77.2029,152.9624
77.2562,152.8702
77.2703,152.8524
77.2843,152.8296
77.3481,152.7549
77.4100,152.6773
77.4312,152.6576
77.4526,152.6326
77.5230,152.5724
77.5908,152.5095
77.6199,152.4897
77.6496,152.4643
77.7237,152.4189
77.7947,152.3705
77.8320,152.3525
77.8705,152.3289
77.9454,152.2979
78.0169,152.2635
78.0625,152.2494
78.1098,152.2298
78.1830,152.2122
78.2527,152.1907
78.3061,152.1827
78.3617,152.1693
78.4308,152.1639
78.4966,152.1540
78.5569,152.1540
78.6200,152.1490
Z" /> 
<path style="fill:#000000; fill-opacity:1.0000; 
stroke:#000000; stroke-width:0.0000; stroke-opacity:1; 
stroke-linecap:round; stroke-linejoin:round;fill-rule:evenodd;"
d="M 56.4480,128.3723
56.8202,128.4487
57.1827,128.5625
57.5319,128.7123
57.8641,128.8967
58.1760,129.1138
58.4643,129.3613
58.7261,129.6367
58.9587,129.9372
59.1597,130.2596
59.3270,130.6008
59.4590,130.9571
59.5542,131.3249
59.6118,131.7005
59.6310,132.0800
59.6118,132.4595
59.5542,132.8351
59.4590,133.2029
59.3270,133.5592
59.1597,133.9004
58.9587,134.2228
58.7261,134.5233
58.4643,134.7987
58.1760,135.0462
57.8641,135.2633
57.5319,135.4477
57.1827,135.5975
56.8202,135.7113
56.4480,135.7877
56.0700,135.8262
55.6900,135.8262
55.3120,135.7877
54.9398,135.7113
54.5773,135.5975
54.2281,135.4477
53.8959,135.2633
53.5840,135.0462
53.2957,134.7987
53.0339,134.5233
52.8013,134.2228
52.6003,133.9004
52.4330,133.5592
52.3010,133.2029
52.2058,132.8351
52.1482,132.4595
52.1290,132.0800
52.1482,131.7005
52.2058,131.3249
52.3010,130.9571
52.4330,130.6008
52.6003,130.2596
52.8013,129.9372
53.0339,129.6367
53.2957,129.3613
53.5840,129.1138
53.8959,128.8967
54.2281,128.7123
54.5773,128.5625
54.9398,128.4487
55.3120,128.3723
55.6900,128.3338
56.0700,128.3338
Z" /> 
<path style="fill:#000000; fill-opacity:1.0000; 
stroke:#000000; stroke-width:0.0000; stroke-opacity:1; 
stroke-linecap:round; stroke-linejoin:round;fill-rule:evenodd;"
d="M 36.0860,128.8718
36.4297,128.9475
36.7633,129.0599
37.0828,129.2077
37.3844,129.3892
37.6647,129.6022
37.9202,129.8443
38.1481,130.1126
38.3456,130.4039
38.5105,130.7149
38.6408,131.0420
38.7350,131.3811
38.7919,131.7285
38.8110,132.0800
38.7919,132.4315
38.7350,132.7789
38.6408,133.1180
38.5105,133.4451
38.3456,133.7561
38.1481,134.0474
37.9202,134.3157
37.6647,134.5578
37.3844,134.7708
37.0828,134.9523
36.7633,135.1001
36.4297,135.2125
36.0860,135.2882
35.7360,135.3262
35.3840,135.3262
35.0340,135.2882
34.6903,135.2125
34.3567,135.1001
34.0372,134.9523
33.7356,134.7708
33.4553,134.5578
33.1998,134.3157
32.9719,134.0474
32.7744,133.7561
32.6095,133.4451
32.4792,133.1180
32.3850,132.7789
32.3281,132.4315
32.3090,132.0800
32.3281,131.7285
32.3850,131.3811
32.4792,131.0420
32.6095,130.7149
32.7744,130.4039
32.9719,130.1126
33.1998,129.8443
33.4553,129.6022
33.7356,129.3892
34.0372,129.2077
34.3567,129.0599
34.6903,128.9475
35.0340,128.8718
35.3840,128.8338
35.7360,128.8338
Z" /> 
<path style="fill:#000000; fill-opacity:1.0000; 
stroke:#000000; stroke-width:0.0000; stroke-opacity:1; 
stroke-linecap:round; stroke-linejoin:round;fill-rule:evenodd;"
d="M 76.7260,128.8718
77.0697,128.9475
77.4033,129.0599
77.7228,129.2077
78.0244,129.3892
78.3047,129.6022
78.5602,129.8443
78.7881,130.1126
78.9856,130.4039
79.1505,130.7149
79.2808,131.0420
79.3750,131.3811
79.4319,131.7285
79.4510,132.0800
79.4319,132.4315
79.3750,132.7789
79.2808,133.1180
79.1505,133.4451
78.9856,133.7561
78.7881,134.0474
78.5602,134.3157
78.3047,134.5578
78.0244,134.7708
77.7228,134.9523
77.4033,135.1001
77.0697,135.2125
76.7260,135.2882
76.3760,135.3262
76.0240,135.3262
75.6740,135.2882
75.3303,135.2125
74.9967,135.1001
74.6772,134.9523
74.3756,134.7708
74.0953,134.5578
73.8398,134.3157
73.6119,134.0474
73.4144,133.7561
73.2495,133.4451
73.1192,133.1180
73.0250,132.7789
72.9681,132.4315
72.9490,132.0800
72.9681,131.7285
73.0250,131.3811
73.1192,131.0420
73.2495,130.7149
73.4144,130.4039
73.6119,130.1126
73.8398,129.8443
74.0953,129.6022
74.3756,129.3892
74.6772,129.2077
74.9967,129.0599
75.3303,128.9475
75.6740,128.8718
76.0240,128.8338
76.3760,128.8338
Z" /> 
<path style="fill:#000000; fill-opacity:1.0000; 
stroke:#000000; stroke-width:0.0000; stroke-opacity:1; 
stroke-linecap:round; stroke-linejoin:round;fill-rule:evenodd;"
d="M 44.5193,130.0850
44.5865,130.0850
44.6594,130.0950
44.7346,130.1004
44.7966,130.1138
44.8569,130.1221
44.9339,130.1437
45.0135,130.1610
45.0672,130.1810
45.1197,130.1958
45.1990,130.2302
45.2808,130.2607
45.3258,130.2853
45.3700,130.3045
45.4495,130.3528
45.5313,130.3975
45.5674,130.4245
45.6032,130.4463
45.6806,130.5092
45.7597,130.5685
45.7873,130.5961
45.8149,130.6185
45.8877,130.6964
45.9615,130.7703
45.9812,130.7966
46.0012,130.8180
46.0667,130.9109
46.1325,130.9987
46.1453,131.0222
46.1586,131.0410
46.2144,131.1487
46.2693,131.2492
46.2765,131.2685
46.2842,131.2833
46.3277,131.4059
46.3690,131.5165
46.3721,131.5306
46.3756,131.5405
46.4045,131.6799
46.4296,131.7954
46.4302,131.8036
46.4311,131.8077
46.4433,131.9862
46.4500,132.0800
46.4433,132.1739
46.4311,132.3523
46.4302,132.3564
46.4296,132.3646
46.4045,132.4801
46.3756,132.6195
46.3721,132.6293
46.3690,132.6435
46.3277,132.7541
46.2842,132.8767
46.2765,132.8915
46.2693,132.9108
46.2144,133.0113
46.1586,133.1190
46.1453,133.1378
46.1325,133.1613
46.0667,133.2491
46.0012,133.3420
45.9812,133.3634
45.9615,133.3897
45.8876,133.4636
45.8149,133.5415
45.7873,133.5639
45.7597,133.5915
45.6805,133.6508
45.6032,133.7137
45.5674,133.7354
45.5313,133.7625
45.4495,133.8072
45.3700,133.8555
45.3258,133.8747
45.2808,133.8993
45.1990,133.9298
45.1197,133.9642
45.0672,133.9789
45.0135,133.9990
44.9339,134.0163
44.8569,134.0379
44.7966,134.0462
44.7346,134.0596
44.6594,134.0650
44.5865,134.0750
44.5193,134.0750
44.4500,134.0800
44.3807,134.0750
44.3135,134.0750
44.2406,134.0650
44.1654,134.0596
44.1034,134.0462
44.0431,134.0379
43.9661,134.0163
43.8865,133.9990
43.8328,133.9789
43.7803,133.9642
43.7010,133.9298
43.6192,133.8993
43.5742,133.8747
43.5300,133.8555
43.4505,133.8072
43.3687,133.7625
43.3326,133.7354
43.2968,133.7137
43.2194,133.6508
43.1403,133.5915
43.1127,133.5639
43.0851,133.5415
43.0123,133.4636
42.9385,133.3897
42.9188,133.3634
42.8988,133.3420
42.8333,133.2491
42.7675,133.1613
42.7547,133.1378
42.7414,133.1190
42.6856,133.0113
42.6307,132.9108
42.6235,132.8915
42.6158,132.8767
42.5723,132.7541
42.5310,132.6435
42.5279,132.6294
42.5244,132.6195
42.4955,132.4800
42.4704,132.3646
42.4698,132.3564
42.4689,132.3523
42.4567,132.1735
42.4500,132.0800
42.4567,131.9865
42.4689,131.8077
42.4698,131.8036
42.4704,131.7954
42.4954,131.6800
42.5244,131.5405
42.5279,131.5306
42.5310,131.5165
42.5723,131.4059
42.6158,131.2833
42.6235,131.2685
42.6307,131.2492
42.6856,131.1487
42.7414,131.0410
42.7547,131.0222
42.7675,130.9987
42.8332,130.9109
42.8988,130.8180
42.9188,130.7966
42.9385,130.7703
43.0123,130.6964
43.0851,130.6185
43.1127,130.5961
43.1403,130.5685
43.2194,130.5092
43.2968,130.4463
43.3326,130.4245
43.3687,130.3975
43.4505,130.3528
43.5300,130.3045
43.5742,130.2853
43.6192,130.2607
43.7010,130.2302
43.7803,130.1958
43.8328,130.1810
43.8865,130.1610
43.9661,130.1437
44.0431,130.1221
44.1034,130.1138
44.1654,130.1004
44.2406,130.0950
44.3135,130.0850
44.3807,130.0850
44.4500,130.0800
Z" /> 
<path style="fill:#000000; fill-opacity:1.0000; 
stroke:#000000; stroke-width:0.0000; stroke-opacity:1; 
stroke-linecap:round; stroke-linejoin:round;fill-rule:evenodd;"
d="M 56.4480,87.7323
56.8202,87.8087
57.1827,87.9225
57.5319,88.0723
57.8641,88.2567
58.1760,88.4738
58.4643,88.7213
58.7261,88.9967
58.9587,89.2972
59.1597,89.6196
59.3270,89.9608
59.4590,90.3171
59.5542,90.6849
59.6118,91.0605
59.6310,91.4400
59.6118,91.8195
59.5542,92.1951
59.4590,92.5629
59.3270,92.9192
59.1597,93.2604
58.9587,93.5828
58.7261,93.8833
58.4643,94.1587
58.1760,94.4062
57.8641,94.6233
57.5319,94.8077
57.1827,94.9575
56.8202,95.0713
56.4480,95.1477
56.0700,95.1862
55.6900,95.1862
55.3120,95.1477
54.9398,95.0713
54.5773,94.9575
54.2281,94.8077
53.8959,94.6233
53.5840,94.4062
53.2957,94.1587
53.0339,93.8833
52.8013,93.5828
52.6003,93.2604
52.4330,92.9192
52.3010,92.5629
52.2058,92.1951
52.1482,91.8195
52.1290,91.4400
52.1482,91.0605
52.2058,90.6849
52.3010,90.3171
52.4330,89.9608
52.6003,89.6196
52.8013,89.2972
53.0339,88.9967
53.2957,88.7213
53.5840,88.4738
53.8959,88.2567
54.2281,88.0723
54.5773,87.9225
54.9398,87.8087
55.3120,87.7323
55.6900,87.6938
56.0700,87.6938
Z" /> 
<path style="fill:#000000; fill-opacity:1.0000; 
stroke:#000000; stroke-width:0.0000; stroke-opacity:1; 
stroke-linecap:round; stroke-linejoin:round;fill-rule:evenodd;"
d="M 76.7680,87.7323
77.1402,87.8087
77.5027,87.9225
77.8519,88.0723
78.1841,88.2567
78.4960,88.4738
78.7843,88.7213
79.0461,88.9967
79.2787,89.2972
79.4797,89.6196
79.6470,89.9608
79.7790,90.3171
79.8742,90.6849
79.9318,91.0605
79.9510,91.4400
79.9318,91.8195
79.8742,92.1951
79.7790,92.5629
79.6470,92.9192
79.4797,93.2604
79.2787,93.5828
79.0461,93.8833
78.7843,94.1587
78.4960,94.4062
78.1841,94.6233
77.8519,94.8077
77.5027,94.9575
77.1402,95.0713
76.7680,95.1477
76.3900,95.1862
76.0100,95.1862
75.6320,95.1477
75.2598,95.0713
74.8973,94.9575
74.5481,94.8077
74.2159,94.6233
73.9040,94.4062
73.6157,94.1587
73.3539,93.8833
73.1213,93.5828
72.9203,93.2604
72.7530,92.9192
72.6210,92.5629
72.5258,92.1951
72.4682,91.8195
72.4490,91.4400
72.4682,91.0605
72.5258,90.6849
72.6210,90.3171
72.7530,89.9608
72.9203,89.6196
73.1213,89.2972
73.3539,88.9967
73.6157,88.7213
73.9040,88.4738
74.2159,88.2567
74.5481,88.0723
74.8973,87.9225
75.2598,87.8087
75.6320,87.7323
76.0100,87.6938
76.3900,87.6938
Z" /> 
<path style="fill:#000000; fill-opacity:1.0000; 
stroke:#000000; stroke-width:0.0000; stroke-opacity:1; 
stroke-linecap:round; stroke-linejoin:round;fill-rule:evenodd;"
d="M 56.4480,67.4123
56.8202,67.4887
57.1827,67.6025
57.5319,67.7523
57.8641,67.9367
58.1760,68.1538
58.4643,68.4013
58.7261,68.6767
58.9587,68.9772
59.1597,69.2996
59.3270,69.6408
59.4590,69.9971
59.5542,70.3649
59.6118,70.7405
59.6310,71.1200
59.6118,71.4995
59.5542,71.8751
59.4590,72.2429
59.3270,72.5992
59.1597,72.9404
58.9587,73.2628
58.7261,73.5633
58.4643,73.8387
58.1760,74.0862
57.8641,74.3033
57.5319,74.4877
57.1827,74.6375
56.8202,74.7513
56.4480,74.8277
56.0700,74.8662
55.6900,74.8662
55.3120,74.8277
54.9398,74.7513
54.5773,74.6375
54.2281,74.4877
53.8959,74.3033
53.5840,74.0862
53.2957,73.8387
53.0339,73.5633
52.8013,73.2628
52.6003,72.9404
52.4330,72.5992
52.3010,72.2429
52.2058,71.8751
52.1482,71.4995
52.1290,71.1200
52.1482,70.7405
52.2058,70.3649
52.3010,69.9971
52.4330,69.6408
52.6003,69.2996
52.8013,68.9772
53.0339,68.6767
53.2957,68.4013
53.5840,68.1538
53.8959,67.9367
54.2281,67.7523
54.5773,67.6025
54.9398,67.4887
55.3120,67.4123
55.6900,67.3738
56.0700,67.3738
Z" /> 
<path style="fill:#000000; fill-opacity:1.0000; 
stroke:#000000; stroke-width:0.0000; stroke-opacity:1; 
stroke-linecap:round; stroke-linejoin:round;fill-rule:evenodd;"
d="M 76.7680,67.4123
77.1402,67.4887
77.5027,67.6025
77.8519,67.7523
78.1841,67.9367
78.4960,68.1538
78.7843,68.4013
79.0461,68.6767
79.2787,68.9772
79.4797,69.2996
79.6470,69.6408
79.7790,69.9971
79.8742,70.3649
79.9318,70.7405
79.9510,71.1200
79.9318,71.4995
79.8742,71.8751
79.7790,72.2429
79.6470,72.5992
79.4797,72.9404
79.2787,73.2628
79.0461,73.5633
78.7843,73.8387
78.4960,74.0862
78.1841,74.3033
77.8519,74.4877
77.5027,74.6375
77.1402,74.7513
76.7680,74.8277
76.3900,74.8662
76.0100,74.8662
75.6320,74.8277
75.2598,74.7513
74.8973,74.6375
74.5481,74.4877
74.2159,74.3033
73.9040,74.0862
73.6157,73.8387
73.3539,73.5633
73.1213,73.2628
72.9203,72.9404
72.7530,72.5992
72.6210,72.2429
72.5258,71.8751
72.4682,71.4995
72.4490,71.1200
72.4682,70.7405
72.5258,70.3649
72.6210,69.9971
72.7530,69.6408
72.9203,69.2996
73.1213,68.9772
73.3539,68.6767
73.6157,68.4013
73.9040,68.1538
74.2159,67.9367
74.5481,67.7523
74.8973,67.6025
75.2598,67.4887
75.6320,67.4123
76.0100,67.3738
76.3900,67.3738
Z" /> 
<path style="fill:#000000; fill-opacity:1.0000; 
stroke:#000000; stroke-width:0.0000; stroke-opacity:1; 
stroke-linecap:round; stroke-linejoin:round;fill-rule:evenodd;"
d="M 36.0860,67.9118
36.4297,67.9875
36.7633,68.0999
37.0828,68.2477
37.3844,68.4292
37.6647,68.6422
37.9202,68.8843
38.1481,69.1526
38.3456,69.4439
38.5105,69.7549
38.6408,70.0820
38.7350,70.4211
38.7919,70.7685
38.8110,71.1200
38.7919,71.4715
38.7350,71.8189
38.6408,72.1580
38.5105,72.4851
38.3456,72.7961
38.1481,73.0874
37.9202,73.3557
37.6647,73.5978
37.3844,73.8108
37.0828,73.9923
36.7633,74.1401
36.4297,74.2525
36.0860,74.3282
35.7360,74.3662
35.3840,74.3662
35.0340,74.3282
34.6903,74.2525
34.3567,74.1401
34.0372,73.9923
33.7356,73.8108
33.4553,73.5978
33.1998,73.3557
32.9719,73.0874
32.7744,72.7961
32.6095,72.4851
32.4792,72.1580
32.3850,71.8189
32.3281,71.4715
32.3090,71.1200
32.3281,70.7685
32.3850,70.4211
32.4792,70.0820
32.6095,69.7549
32.7744,69.4439
32.9719,69.1526
33.1998,68.8843
33.4553,68.6422
33.7356,68.4292
34.0372,68.2477
34.3567,68.0999
34.6903,67.9875
35.0340,67.9118
35.3840,67.8738
35.7360,67.8738
Z" /> 
<path style="fill:#000000; fill-opacity:1.0000; 
stroke:#000000; stroke-width:0.0000; stroke-opacity:1; 
stroke-linecap:round; stroke-linejoin:round;fill-rule:evenodd;"
d="M 36.1280,47.0923
36.5002,47.1687
36.8627,47.2825
37.2119,47.4323
37.5441,47.6167
37.8560,47.8338
38.1443,48.0813
38.4061,48.3567
38.6387,48.6572
38.8397,48.9796
39.0070,49.3208
39.1390,49.6771
39.2342,50.0449
39.2918,50.4205
39.3110,50.8000
39.2918,51.1795
39.2342,51.5551
39.1390,51.9229
39.0070,52.2792
38.8397,52.6204
38.6387,52.9428
38.4061,53.2433
38.1443,53.5187
37.8560,53.7662
37.5441,53.9833
37.2119,54.1677
36.8627,54.3175
36.5002,54.4313
36.1280,54.5077
35.7500,54.5462
35.3700,54.5462
34.9920,54.5077
34.6198,54.4313
34.2573,54.3175
33.9081,54.1677
33.5759,53.9833
33.2640,53.7662
32.9757,53.5187
32.7139,53.2433
32.4813,52.9428
32.2803,52.6204
32.1130,52.2792
31.9810,51.9229
31.8858,51.5551
31.8282,51.1795
31.8090,50.8000
31.8282,50.4205
31.8858,50.0449
31.9810,49.6771
32.1130,49.3208
32.2803,48.9796
32.4813,48.6572
32.7139,48.3567
32.9757,48.0813
33.2640,47.8338
33.5759,47.6167
33.9081,47.4323
34.2573,47.2825
34.6198,47.1687
34.9920,47.0923
35.3700,47.0538
35.7500,47.0538
Z" /> 
<path style="fill:#000000; fill-opacity:1.0000; 
stroke:#000000; stroke-width:0.0000; stroke-opacity:1; 
stroke-linecap:round; stroke-linejoin:round;fill-rule:evenodd;"
d="M 56.4480,47.0923
56.8202,47.1687
57.1827,47.2825
57.5319,47.4323
57.8641,47.6167
58.1760,47.8338
58.4643,48.0813
58.7261,48.3567
58.9587,48.6572
59.1597,48.9796
59.3270,49.3208
59.4590,49.6771
59.5542,50.0449
59.6118,50.4205
59.6310,50.8000
59.6118,51.1795
59.5542,51.5551
59.4590,51.9229
59.3270,52.2792
59.1597,52.6204
58.9587,52.9428
58.7261,53.2433
58.4643,53.5187
58.1760,53.7662
57.8641,53.9833
57.5319,54.1677
57.1827,54.3175
56.8202,54.4313
56.4480,54.5077
56.0700,54.5462
55.6900,54.5462
55.3120,54.5077
54.9398,54.4313
54.5773,54.3175
54.2281,54.1677
53.8959,53.9833
53.5840,53.7662
53.2957,53.5187
53.0339,53.2433
52.8013,52.9428
52.6003,52.6204
52.4330,52.2792
52.3010,51.9229
52.2058,51.5551
52.1482,51.1795
52.1290,50.8000
52.1482,50.4205
52.2058,50.0449
52.3010,49.6771
52.4330,49.3208
52.6003,48.9796
52.8013,48.6572
53.0339,48.3567
53.2957,48.0813
53.5840,47.8338
53.8959,47.6167
54.2281,47.4323
54.5773,47.2825
54.9398,47.1687
55.3120,47.0923
55.6900,47.0538
56.0700,47.0538
Z" /> 
<path style="fill:#000000; fill-opacity:1.0000; 
stroke:#000000; stroke-width:0.0000; stroke-opacity:1; 
stroke-linecap:round; stroke-linejoin:round;fill-rule:evenodd;"
d="M 76.7680,47.0923
77.1402,47.1687
77.5027,47.2825
77.8519,47.4323
78.1841,47.6167
78.4960,47.8338
78.7843,48.0813
79.0461,48.3567
79.2787,48.6572
79.4797,48.9796
79.6470,49.3208
79.7790,49.6771
79.8742,50.0449
79.9318,50.4205
79.9510,50.8000
79.9318,51.1795
79.8742,51.5551
79.7790,51.9229
79.6470,52.2792
79.4797,52.6204
79.2787,52.9428
79.0461,53.2433
78.7843,53.5187
78.4960,53.7662
78.1841,53.9833
77.8519,54.1677
77.5027,54.3175
77.1402,54.4313
76.7680,54.5077
76.3900,54.5462
76.0100,54.5462
75.6320,54.5077
75.2598,54.4313
74.8973,54.3175
74.5481,54.1677
74.2159,53.9833
73.9040,53.7662
73.6157,53.5187
73.3539,53.2433
73.1213,52.9428
72.9203,52.6204
72.7530,52.2792
72.6210,51.9229
72.5258,51.5551
72.4682,51.1795
72.4490,50.8000
72.4682,50.4205
72.5258,50.0449
72.6210,49.6771
72.7530,49.3208
72.9203,48.9796
73.1213,48.6572
73.3539,48.3567
73.6157,48.0813
73.9040,47.8338
74.2159,47.6167
74.5481,47.4323
74.8973,47.2825
75.2598,47.1687
75.6320,47.0923
76.0100,47.0538
76.3900,47.0538
Z" /> 
<path style="fill:#000000; fill-opacity:1.0000; 
stroke:#000000; stroke-width:0.0000; stroke-opacity:1; 
stroke-linecap:round; stroke-linejoin:round;fill-rule:evenodd;"
d="M 32.9631,28.7540
33.0234,28.7540
33.0892,28.7639
33.1583,28.7693
33.2139,28.7827
33.2673,28.7907
33.3370,28.8122
33.4102,28.8298
33.4575,28.8494
33.5031,28.8635
33.5746,28.8979
33.6495,28.9289
33.6880,28.9525
33.7253,28.9705
33.7963,29.0189
33.8704,29.0643
33.9001,29.0897
33.9292,29.1095
33.9970,29.1724
34.0674,29.2326
34.0888,29.2576
34.1100,29.2773
34.1719,29.3549
34.2357,29.4296
34.2497,29.4524
34.2638,29.4702
34.3171,29.5624
34.3711,29.6505
34.3790,29.6696
34.3872,29.6838
34.4290,29.7905
34.4702,29.8898
34.4736,29.9040
34.4773,29.9135
34.5052,30.0354
34.5307,30.1417
34.5313,30.1501
34.5322,30.1540
34.5437,30.3070
34.5510,30.4000
34.5437,30.4930
34.5322,30.6460
34.5313,30.6499
34.5307,30.6583
34.5052,30.7646
34.4773,30.8865
34.4736,30.8960
34.4702,30.9102
34.4290,31.0096
34.3872,31.1162
34.3790,31.1304
34.3711,31.1495
34.3171,31.2376
34.2638,31.3298
34.2497,31.3475
34.2357,31.3704
34.1719,31.4451
34.1100,31.5227
34.0888,31.5424
34.0674,31.5674
33.9969,31.6276
33.9292,31.6905
33.9001,31.7103
33.8704,31.7357
33.7963,31.7811
33.7253,31.8295
33.6880,31.8475
33.6495,31.8711
33.5746,31.9021
33.5031,31.9365
33.4575,31.9506
33.4102,31.9702
33.3370,31.9878
33.2673,32.0093
33.2140,32.0173
33.1583,32.0307
33.0892,32.0361
33.0234,32.0460
32.9631,32.0460
32.9000,32.0510
32.8369,32.0460
32.7766,32.0460
32.7108,32.0361
32.6417,32.0307
32.5860,32.0173
32.5327,32.0093
32.4630,31.9878
32.3898,31.9702
32.3425,31.9506
32.2969,31.9365
32.2254,31.9021
32.1505,31.8711
32.1120,31.8475
32.0747,31.8295
32.0037,31.7811
31.9296,31.7357
31.8999,31.7103
31.8708,31.6905
31.8030,31.6276
31.7326,31.5674
31.7112,31.5424
31.6900,31.5227
31.6281,31.4451
31.5643,31.3704
31.5503,31.3476
31.5362,31.3298
31.4829,31.2376
31.4289,31.1495
31.4210,31.1304
31.4128,31.1162
31.3709,31.0095
31.3298,30.9102
31.3264,30.8960
31.3227,30.8865
31.2948,30.7645
31.2693,30.6583
31.2687,30.6499
31.2678,30.6460
31.2563,30.4927
31.2490,30.4000
31.2563,30.3073
31.2678,30.1540
31.2687,30.1501
31.2693,30.1417
31.2948,30.0355
31.3227,29.9135
31.3264,29.9040
31.3298,29.8898
31.3709,29.7905
31.4128,29.6838
31.4210,29.6696
31.4289,29.6505
31.4829,29.5624
31.5362,29.4702
31.5503,29.4524
31.5643,29.4296
31.6281,29.3549
31.6900,29.2773
31.7112,29.2576
31.7326,29.2326
31.8030,29.1724
31.8708,29.1095
31.8999,29.0897
31.9296,29.0643
32.0037,29.0189
32.0747,28.9705
32.1120,28.9525
32.1505,28.9289
32.2254,28.8979
32.2969,28.8635
32.3425,28.8494
32.3898,28.8298
32.4630,28.8122
32.5327,28.7907
32.5861,28.7827
32.6417,28.7693
32.7108,28.7639
32.7766,28.7540
32.8369,28.7540
32.9000,28.7490
Z" /> 
<path style="fill:#000000; fill-opacity:1.0000; 
stroke:#000000; stroke-width:0.0000; stroke-opacity:1; 
stroke-linecap:round; stroke-linejoin:round;fill-rule:evenodd;"
d="M 78.6831,28.7540
78.7434,28.7540
78.8092,28.7639
78.8783,28.7693
78.9339,28.7827
78.9873,28.7907
79.0570,28.8122
79.1302,28.8298
79.1775,28.8494
79.2231,28.8635
79.2946,28.8979
79.3695,28.9289
79.4080,28.9525
79.4453,28.9705
79.5163,29.0189
79.5904,29.0643
79.6201,29.0897
79.6492,29.1095
79.7170,29.1724
79.7874,29.2326
79.8088,29.2576
79.8300,29.2773
79.8919,29.3549
79.9557,29.4296
79.9697,29.4524
79.9838,29.4702
80.0371,29.5624
80.0911,29.6505
80.0990,29.6696
80.1072,29.6838
80.1490,29.7905
80.1902,29.8898
80.1936,29.9040
80.1973,29.9135
80.2252,30.0354
80.2507,30.1417
80.2513,30.1501
80.2522,30.1540
80.2637,30.3070
80.2710,30.4000
80.2637,30.4930
80.2522,30.6460
80.2513,30.6499
80.2507,30.6583
80.2252,30.7646
80.1973,30.8865
80.1936,30.8960
80.1902,30.9102
80.1490,31.0096
80.1072,31.1162
80.0990,31.1304
80.0911,31.1495
80.0371,31.2376
79.9838,31.3298
79.9697,31.3475
79.9557,31.3704
79.8919,31.4451
79.8300,31.5227
79.8088,31.5424
79.7874,31.5674
79.7169,31.6276
79.6492,31.6905
79.6201,31.7103
79.5904,31.7357
79.5163,31.7811
79.4453,31.8295
79.4080,31.8475
79.3695,31.8711
79.2946,31.9021
79.2231,31.9365
79.1775,31.9506
79.1302,31.9702
79.0570,31.9878
78.9873,32.0093
78.9340,32.0173
78.8783,32.0307
78.8092,32.0361
78.7434,32.0460
78.6831,32.0460
78.6200,32.0510
78.5569,32.0460
78.4966,32.0460
78.4308,32.0361
78.3617,32.0307
78.3060,32.0173
78.2527,32.0093
78.1830,31.9878
78.1098,31.9702
78.0625,31.9506
78.0169,31.9365
77.9454,31.9021
77.8705,31.8711
77.8320,31.8475
77.7947,31.8295
77.7237,31.7811
77.6496,31.7357
77.6199,31.7103
77.5908,31.6905
77.5230,31.6276
77.4526,31.5674
77.4312,31.5424
77.4100,31.5227
77.3481,31.4451
77.2843,31.3704
77.2703,31.3476
77.2562,31.3298
77.2029,31.2376
77.1489,31.1495
77.1410,31.1304
77.1328,31.1162
77.0909,31.0095
77.0498,30.9102
77.0464,30.8960
77.0427,30.8865
77.0148,30.7645
76.9893,30.6583
76.9887,30.6499
76.9878,30.6460
76.9763,30.4927
76.9690,30.4000
76.9763,30.3073
76.9878,30.1540
76.9887,30.1501
76.9893,30.1417
77.0148,30.0355
77.0427,29.9135
77.0464,29.9040
77.0498,29.8898
77.0909,29.7905
77.1328,29.6838
77.1410,29.6696
77.1489,29.6505
77.2029,29.5624
77.2562,29.4702
77.2703,29.4524
77.2843,29.4296
77.3481,29.3549
77.4100,29.2773
77.4312,29.2576
77.4526,29.2326
77.5230,29.1724
77.5908,29.1095
77.6199,29.0897
77.6496,29.0643
77.7237,29.0189
77.7947,28.9705
77.8320,28.9525
77.8705,28.9289
77.9454,28.8979
78.0169,28.8635
78.0625,28.8494
78.1098,28.8298
78.1830,28.8122
78.2527,28.7907
78.3061,28.7827
78.3617,28.7693
78.4308,28.7639
78.4966,28.7540
78.5569,28.7540
78.6200,28.7490
Z" /> 
</g>
</g> 
</svg>
