<?xml version="1.0" encoding="utf-8" standalone="no"?>
<!DOCTYPE svg PUBLIC "-//W3C//DTD SVG 1.1//EN"
  "http://www.w3.org/Graphics/SVG/1.1/DTD/svg11.dtd">
<svg height="304.1344pt" version="1.1" viewBox="0 0 313.12128 304.1344" width="313.12128pt" xmlns="http://www.w3.org/2000/svg" xmlns:xlink="http://www.w3.org/1999/xlink">
 <metadata>
  <rdf:RDF xmlns:cc="http://creativecommons.org/ns#" xmlns:dc="http://purl.org/dc/elements/1.1/" xmlns:rdf="http://www.w3.org/1999/02/22-rdf-syntax-ns#">
   <cc:Work>
    <dc:type rdf:resource="http://purl.org/dc/dcmitype/StillImage"/>
    <dc:date>2021-06-22T10:44:57.866685</dc:date>
    <dc:format>image/svg+xml</dc:format>
    <dc:creator>
     <cc:Agent>
      <dc:title>Matplotlib v3.4.2, https://matplotlib.org/</dc:title>
     </cc:Agent>
    </dc:creator>
   </cc:Work>
  </rdf:RDF>
 </metadata>
 <defs>
  <style type="text/css">*{stroke-linecap:butt;stroke-linejoin:round;}</style>
 </defs>
 <g id="figure_1">
  <g id="patch_1">
   <path d="M 0 304.1344 
L 313.12128 304.1344 
L 313.12128 0 
L 0 0 
z
" style="fill:none;"/>
  </g>
  <g id="axes_1">
   <g id="line2d_1">
    <path clip-path="url(#p79d61a4799)" d="M 72.3984 138.304 
L 112.7904 138.304 
L 131.64 138.304 
M 166.6464 138.304 
L 207.0384 138.304 
" style="fill:none;stroke:#000000;stroke-linecap:round;stroke-width:1.2;"/>
   </g>
   <g id="line2d_2">
    <path clip-path="url(#p79d61a4799)" d="M 166.6464 138.304 
L 185.496 138.304 
" style="fill:none;stroke:#000000;stroke-linecap:round;stroke-width:1.2;"/>
   </g>
   <g id="line2d_3">
    <path clip-path="url(#p79d61a4799)" d="M 131.64 138.304 
L 131.64 165.232 
L 166.6464 138.304 
L 131.64 111.376 
L 131.64 138.304 
" style="fill:none;stroke:#000000;stroke-linecap:round;stroke-width:1.2;"/>
   </g>
   <g id="line2d_4">
    <path clip-path="url(#p79d61a4799)" d="M 135.40992 146.3824 
L 145.104 146.3824 
L 145.104 130.2256 
M 149.41248 130.2256 
L 139.7184 130.2256 
L 139.7184 146.3824 
" style="fill:none;stroke:#000000;stroke-linecap:round;"/>
   </g>
   <g id="line2d_5">
    <path clip-path="url(#p79d61a4799)" d="M 72.3984 138.304 
L 72.3984 195.0976 
M 84.6384 195.0976 
L 60.1584 195.0976 
M 84.6384 203.9104 
L 60.1584 203.9104 
M 72.3984 203.9104 
L 72.3984 260.704 
" style="fill:none;stroke:#000000;stroke-linecap:round;stroke-width:1.2;"/>
   </g>
   <g id="line2d_6">
    <path clip-path="url(#p79d61a4799)" d="M 72.3984 260.704 
L 72.3984 280.288 
L 60.1584 280.288 
L 84.6384 280.288 
M 63.8304 286.1632 
L 80.9664 286.1632 
M 69.9504 292.0384 
L 74.8464 292.0384 
" style="fill:none;stroke:#000000;stroke-linecap:round;stroke-width:1.2;"/>
   </g>
   <g id="line2d_7">
    <path clip-path="url(#p79d61a4799)" d="M 72.3984 138.304 
L 72.3984 107.704 
L 72.3984 77.104 
" style="fill:none;stroke:#000000;stroke-linecap:round;stroke-width:1.2;"/>
   </g>
   <g id="line2d_8">
    <path clip-path="url(#p79d61a4799)" d="M 72.3984 77.104 
L 109.1184 77.104 
L 113.1984 64.864 
L 121.3584 89.344 
L 129.5184 64.864 
L 137.6784 89.344 
L 145.8384 64.864 
L 153.9984 89.344 
L 158.0784 77.104 
L 194.7984 77.104 
" style="fill:none;stroke:#000000;stroke-linecap:round;stroke-width:1.2;"/>
   </g>
   <g id="line2d_9">
    <path clip-path="url(#p79d61a4799)" d="M 194.7984 77.104 
L 194.7984 107.704 
L 194.7984 138.304 
" style="fill:none;stroke:#000000;stroke-linecap:round;stroke-width:1.2;"/>
   </g>
   <g id="line2d_10">
    <path clip-path="url(#p79d61a4799)" d="M 212.424 138.304 
L 227.724 138.304 
L 243.024 138.304 
" style="fill:none;stroke:#000000;stroke-linecap:round;stroke-width:1.2;"/>
   </g>
   <g id="text_1">
    <!-- $C_1$ -->
    <g transform="translate(38.7424 195.528656)scale(0.14 -0.14)">
     <defs>
      <path d="M 4447 4306 
L 4319 3641 
Q 4019 3944 3683 4091 
Q 3347 4238 2956 4238 
Q 2422 4238 2017 3981 
Q 1613 3725 1319 3200 
Q 1131 2863 1032 2486 
Q 934 2109 934 1728 
Q 934 1091 1264 756 
Q 1594 422 2222 422 
Q 2656 422 3056 561 
Q 3456 700 3834 978 
L 3688 231 
Q 3316 72 2936 -9 
Q 2556 -91 2175 -91 
Q 1278 -91 773 396 
Q 269 884 269 1753 
Q 269 2309 461 2846 
Q 653 3384 1013 3828 
Q 1394 4300 1883 4525 
Q 2372 4750 3022 4750 
Q 3422 4750 3780 4639 
Q 4138 4528 4447 4306 
z
" id="DejaVuSans-Oblique-43" transform="scale(0.015625)"/>
      <path d="M 794 531 
L 1825 531 
L 1825 4091 
L 703 3866 
L 703 4441 
L 1819 4666 
L 2450 4666 
L 2450 531 
L 3481 531 
L 3481 0 
L 794 0 
L 794 531 
z
" id="DejaVuSans-31" transform="scale(0.015625)"/>
     </defs>
     <use transform="translate(0 0.78125)" xlink:href="#DejaVuSans-Oblique-43"/>
     <use transform="translate(69.824219 -15.625)scale(0.7)" xlink:href="#DejaVuSans-31"/>
    </g>
    <!-- 0.1u -->
    <g transform="translate(24.125525 211.205594)scale(0.14 -0.14)">
     <defs>
      <path d="M 2034 4250 
Q 1547 4250 1301 3770 
Q 1056 3291 1056 2328 
Q 1056 1369 1301 889 
Q 1547 409 2034 409 
Q 2525 409 2770 889 
Q 3016 1369 3016 2328 
Q 3016 3291 2770 3770 
Q 2525 4250 2034 4250 
z
M 2034 4750 
Q 2819 4750 3233 4129 
Q 3647 3509 3647 2328 
Q 3647 1150 3233 529 
Q 2819 -91 2034 -91 
Q 1250 -91 836 529 
Q 422 1150 422 2328 
Q 422 3509 836 4129 
Q 1250 4750 2034 4750 
z
" id="DejaVuSans-30" transform="scale(0.015625)"/>
      <path d="M 684 794 
L 1344 794 
L 1344 0 
L 684 0 
L 684 794 
z
" id="DejaVuSans-2e" transform="scale(0.015625)"/>
      <path d="M 544 1381 
L 544 3500 
L 1119 3500 
L 1119 1403 
Q 1119 906 1312 657 
Q 1506 409 1894 409 
Q 2359 409 2629 706 
Q 2900 1003 2900 1516 
L 2900 3500 
L 3475 3500 
L 3475 0 
L 2900 0 
L 2900 538 
Q 2691 219 2414 64 
Q 2138 -91 1772 -91 
Q 1169 -91 856 284 
Q 544 659 544 1381 
z
M 1991 3584 
L 1991 3584 
z
" id="DejaVuSans-75" transform="scale(0.015625)"/>
     </defs>
     <use xlink:href="#DejaVuSans-30"/>
     <use x="63.623047" xlink:href="#DejaVuSans-2e"/>
     <use x="95.410156" xlink:href="#DejaVuSans-31"/>
     <use x="159.033203" xlink:href="#DejaVuSans-75"/>
    </g>
   </g>
   <g id="text_2">
    <!-- $R_1$ -->
    <g transform="translate(125.4084 41.3795)scale(0.14 -0.14)">
     <defs>
      <path d="M 1613 4147 
L 1294 2491 
L 2106 2491 
Q 2584 2491 2879 2755 
Q 3175 3019 3175 3444 
Q 3175 3784 2976 3965 
Q 2778 4147 2406 4147 
L 1613 4147 
z
M 2772 2241 
Q 2972 2194 3105 2009 
Q 3238 1825 3413 1275 
L 3809 0 
L 3144 0 
L 2778 1197 
Q 2638 1659 2453 1815 
Q 2269 1972 1888 1972 
L 1191 1972 
L 806 0 
L 172 0 
L 1081 4666 
L 2503 4666 
Q 3150 4666 3495 4373 
Q 3841 4081 3841 3531 
Q 3841 3044 3547 2687 
Q 3253 2331 2772 2241 
z
" id="DejaVuSans-Oblique-52" transform="scale(0.015625)"/>
     </defs>
     <use transform="translate(0 0.09375)" xlink:href="#DejaVuSans-Oblique-52"/>
     <use transform="translate(69.482422 -16.3125)scale(0.7)" xlink:href="#DejaVuSans-31"/>
    </g>
    <!-- 100k -->
    <g transform="translate(116.183713 57.056437)scale(0.14 -0.14)">
     <defs>
      <path d="M 581 4863 
L 1159 4863 
L 1159 1991 
L 2875 3500 
L 3609 3500 
L 1753 1863 
L 3688 0 
L 2938 0 
L 1159 1709 
L 1159 0 
L 581 0 
L 581 4863 
z
" id="DejaVuSans-6b" transform="scale(0.015625)"/>
     </defs>
     <use xlink:href="#DejaVuSans-31"/>
     <use x="63.623047" xlink:href="#DejaVuSans-30"/>
     <use x="127.246094" xlink:href="#DejaVuSans-30"/>
     <use x="190.869141" xlink:href="#DejaVuSans-6b"/>
    </g>
   </g>
   <g id="patch_2">
    <path clip-path="url(#p79d61a4799)" d="M 72.3984 141.976 
C 73.372226 141.976 74.306297 141.589095 74.994896 140.900496 
C 75.683495 140.211897 76.0704 139.277826 76.0704 138.304 
C 76.0704 137.330174 75.683495 136.396103 74.994896 135.707504 
C 74.306297 135.018905 73.372226 134.632 72.3984 134.632 
C 71.424574 134.632 70.490503 135.018905 69.801904 135.707504 
C 69.113305 136.396103 68.7264 137.330174 68.7264 138.304 
C 68.7264 139.277826 69.113305 140.211897 69.801904 140.900496 
C 70.490503 141.589095 71.424574 141.976 72.3984 141.976 
z
" style="stroke:#000000;stroke-linejoin:miter;stroke-width:1.2;"/>
   </g>
   <g id="patch_3">
    <path clip-path="url(#p79d61a4799)" d="M 194.7984 141.976 
C 195.772226 141.976 196.706297 141.589095 197.394896 140.900496 
C 198.083495 140.211897 198.4704 139.277826 198.4704 138.304 
C 198.4704 137.330174 198.083495 136.396103 197.394896 135.707504 
C 196.706297 135.018905 195.772226 134.632 194.7984 134.632 
C 193.824574 134.632 192.890503 135.018905 192.201904 135.707504 
C 191.513305 136.396103 191.1264 137.330174 191.1264 138.304 
C 191.1264 139.277826 191.513305 140.211897 192.201904 140.900496 
C 192.890503 141.589095 193.824574 141.976 194.7984 141.976 
z
" style="stroke:#000000;stroke-linejoin:miter;stroke-width:1.2;"/>
   </g>
   <g id="patch_4">
    <path clip-path="url(#p79d61a4799)" d="M 243.024 141.976 
C 243.997826 141.976 244.931897 141.589095 245.620496 140.900496 
C 246.309095 140.211897 246.696 139.277826 246.696 138.304 
C 246.696 137.330174 246.309095 136.396103 245.620496 135.707504 
C 244.931897 135.018905 243.997826 134.632 243.024 134.632 
C 242.050174 134.632 241.116103 135.018905 240.427504 135.707504 
C 239.738905 136.396103 239.352 137.330174 239.352 138.304 
C 239.352 139.277826 239.738905 140.211897 240.427504 140.900496 
C 241.116103 141.589095 242.050174 141.976 243.024 141.976 
z
" style="fill:#ffffff;stroke:#000000;stroke-linejoin:miter;stroke-width:1.2;"/>
   </g>
   <g id="text_3">
    <!-- OUT -->
    <g transform="translate(251.592 142.167125)scale(0.14 -0.14)">
     <defs>
      <path d="M 2522 4238 
Q 1834 4238 1429 3725 
Q 1025 3213 1025 2328 
Q 1025 1447 1429 934 
Q 1834 422 2522 422 
Q 3209 422 3611 934 
Q 4013 1447 4013 2328 
Q 4013 3213 3611 3725 
Q 3209 4238 2522 4238 
z
M 2522 4750 
Q 3503 4750 4090 4092 
Q 4678 3434 4678 2328 
Q 4678 1225 4090 567 
Q 3503 -91 2522 -91 
Q 1538 -91 948 565 
Q 359 1222 359 2328 
Q 359 3434 948 4092 
Q 1538 4750 2522 4750 
z
" id="DejaVuSans-4f" transform="scale(0.015625)"/>
      <path d="M 556 4666 
L 1191 4666 
L 1191 1831 
Q 1191 1081 1462 751 
Q 1734 422 2344 422 
Q 2950 422 3222 751 
Q 3494 1081 3494 1831 
L 3494 4666 
L 4128 4666 
L 4128 1753 
Q 4128 841 3676 375 
Q 3225 -91 2344 -91 
Q 1459 -91 1007 375 
Q 556 841 556 1753 
L 556 4666 
z
" id="DejaVuSans-55" transform="scale(0.015625)"/>
      <path d="M -19 4666 
L 3928 4666 
L 3928 4134 
L 2272 4134 
L 2272 0 
L 1638 0 
L 1638 4134 
L -19 4134 
L -19 4666 
z
" id="DejaVuSans-54" transform="scale(0.015625)"/>
     </defs>
     <use xlink:href="#DejaVuSans-4f"/>
     <use x="78.710938" xlink:href="#DejaVuSans-55"/>
     <use x="151.904297" xlink:href="#DejaVuSans-54"/>
    </g>
   </g>
  </g>
 </g>
 <defs>
  <clipPath id="p79d61a4799">
   <rect height="289.7344" width="298.72128" x="7.2" y="7.2"/>
  </clipPath>
 </defs>
</svg>
