<?xml version="1.0" standalone="no"?>
 <!DOCTYPE svg PUBLIC "-//W3C//DTD SVG 1.1//EN" 
 "http://www.w3.org/Graphics/SVG/1.1/DTD/svg11.dtd"> 
<svg
  xmlns:svg="http://www.w3.org/2000/svg"
  xmlns="http://www.w3.org/2000/svg"
  xmlns:xlink="http://www.w3.org/1999/xlink"
  version="1.1"
  width="297.0022mm" height="210.0072mm" viewBox="0.0000 0.0000 297.0022 210.0072">
<title>SVG Image created as main-Cmts_User.svg date 2023/11/06 19:00:11 </title>
  <desc>Image generated by PCBNEW </desc>
<g style="fill:#000000; fill-opacity:1.0000;stroke:#000000; stroke-opacity:1.0000;
stroke-linecap:round; stroke-linejoin:round;"
 transform="translate(0 0) scale(1 1)">
</g>
<g style="fill:#000000; fill-opacity:0.0; 
stroke:#000000; stroke-width:0.0000; stroke-opacity:1; 
stroke-linecap:round; stroke-linejoin:round;">
</g>
<g style="fill:#000000; fill-opacity:0.0; 
stroke:#000000; stroke-width:0.0510; stroke-opacity:1; 
stroke-linecap:round; stroke-linejoin:round;">
<text x="102.1080" y="49.9840"
textLength="2.7397" font-size="0.5333" lengthAdjust="spacingAndGlyphs"
text-anchor="middle" opacity="0">KEEPOUT</text>
<g class="stroked-text"><desc>KEEPOUT</desc>
<path d="M100.8699 49.9664
L100.8699 49.5664
" />
<path d="M101.0985 49.9664
L100.9270 49.7378
" />
<path d="M101.0985 49.5664
L100.8699 49.7950
" />
<path d="M101.2699 49.7569
L101.4032 49.7569
" />
<path d="M101.4604 49.9664
L101.2699 49.9664
" />
<path d="M101.2699 49.9664
L101.2699 49.5664
" />
<path d="M101.2699 49.5664
L101.4604 49.5664
" />
<path d="M101.6318 49.7569
L101.7651 49.7569
" />
<path d="M101.8223 49.9664
L101.6318 49.9664
" />
<path d="M101.6318 49.9664
L101.6318 49.5664
" />
<path d="M101.6318 49.5664
L101.8223 49.5664
" />
<path d="M101.9937 49.9664
L101.9937 49.5664
" />
<path d="M101.9937 49.5664
L102.1461 49.5664
" />
<path d="M102.1461 49.5664
L102.1842 49.5854
" />
<path d="M102.1842 49.5854
L102.2032 49.6045
" />
<path d="M102.2032 49.6045
L102.2223 49.6426
" />
<path d="M102.2223 49.6426
L102.2223 49.6997
" />
<path d="M102.2223 49.6997
L102.2032 49.7378
" />
<path d="M102.2032 49.7378
L102.1842 49.7569
" />
<path d="M102.1842 49.7569
L102.1461 49.7759
" />
<path d="M102.1461 49.7759
L101.9937 49.7759
" />
<path d="M102.4699 49.5664
L102.5461 49.5664
" />
<path d="M102.5461 49.5664
L102.5842 49.5854
" />
<path d="M102.5842 49.5854
L102.6223 49.6235
" />
<path d="M102.6223 49.6235
L102.6413 49.6997
" />
<path d="M102.6413 49.6997
L102.6413 49.8331
" />
<path d="M102.6413 49.8331
L102.6223 49.9093
" />
<path d="M102.6223 49.9093
L102.5842 49.9473
" />
<path d="M102.5842 49.9473
L102.5461 49.9664
" />
<path d="M102.5461 49.9664
L102.4699 49.9664
" />
<path d="M102.4699 49.9664
L102.4318 49.9473
" />
<path d="M102.4318 49.9473
L102.3937 49.9093
" />
<path d="M102.3937 49.9093
L102.3747 49.8331
" />
<path d="M102.3747 49.8331
L102.3747 49.6997
" />
<path d="M102.3747 49.6997
L102.3937 49.6235
" />
<path d="M102.3937 49.6235
L102.4318 49.5854
" />
<path d="M102.4318 49.5854
L102.4699 49.5664
" />
<path d="M102.8128 49.5664
L102.8128 49.8902
" />
<path d="M102.8128 49.8902
L102.8318 49.9283
" />
<path d="M102.8318 49.9283
L102.8509 49.9473
" />
<path d="M102.8509 49.9473
L102.8890 49.9664
" />
<path d="M102.8890 49.9664
L102.9651 49.9664
" />
<path d="M102.9651 49.9664
L103.0032 49.9473
" />
<path d="M103.0032 49.9473
L103.0223 49.9283
" />
<path d="M103.0223 49.9283
L103.0413 49.8902
" />
<path d="M103.0413 49.8902
L103.0413 49.5664
" />
<path d="M103.1747 49.5664
L103.4032 49.5664
" />
<path d="M103.2890 49.9664
L103.2890 49.5664
" />
</g><text x="117.8560" y="49.9840"
textLength="2.7397" font-size="0.5333" lengthAdjust="spacingAndGlyphs"
text-anchor="middle" opacity="0">KEEPOUT</text>
<g class="stroked-text"><desc>KEEPOUT</desc>
<path d="M116.6179 49.9664
L116.6179 49.5664
" />
<path d="M116.8465 49.9664
L116.6750 49.7378
" />
<path d="M116.8465 49.5664
L116.6179 49.7950
" />
<path d="M117.0179 49.7569
L117.1512 49.7569
" />
<path d="M117.2084 49.9664
L117.0179 49.9664
" />
<path d="M117.0179 49.9664
L117.0179 49.5664
" />
<path d="M117.0179 49.5664
L117.2084 49.5664
" />
<path d="M117.3798 49.7569
L117.5131 49.7569
" />
<path d="M117.5703 49.9664
L117.3798 49.9664
" />
<path d="M117.3798 49.9664
L117.3798 49.5664
" />
<path d="M117.3798 49.5664
L117.5703 49.5664
" />
<path d="M117.7417 49.9664
L117.7417 49.5664
" />
<path d="M117.7417 49.5664
L117.8941 49.5664
" />
<path d="M117.8941 49.5664
L117.9322 49.5854
" />
<path d="M117.9322 49.5854
L117.9512 49.6045
" />
<path d="M117.9512 49.6045
L117.9703 49.6426
" />
<path d="M117.9703 49.6426
L117.9703 49.6997
" />
<path d="M117.9703 49.6997
L117.9512 49.7378
" />
<path d="M117.9512 49.7378
L117.9322 49.7569
" />
<path d="M117.9322 49.7569
L117.8941 49.7759
" />
<path d="M117.8941 49.7759
L117.7417 49.7759
" />
<path d="M118.2179 49.5664
L118.2941 49.5664
" />
<path d="M118.2941 49.5664
L118.3322 49.5854
" />
<path d="M118.3322 49.5854
L118.3703 49.6235
" />
<path d="M118.3703 49.6235
L118.3893 49.6997
" />
<path d="M118.3893 49.6997
L118.3893 49.8331
" />
<path d="M118.3893 49.8331
L118.3703 49.9093
" />
<path d="M118.3703 49.9093
L118.3322 49.9473
" />
<path d="M118.3322 49.9473
L118.2941 49.9664
" />
<path d="M118.2941 49.9664
L118.2179 49.9664
" />
<path d="M118.2179 49.9664
L118.1798 49.9473
" />
<path d="M118.1798 49.9473
L118.1417 49.9093
" />
<path d="M118.1417 49.9093
L118.1227 49.8331
" />
<path d="M118.1227 49.8331
L118.1227 49.6997
" />
<path d="M118.1227 49.6997
L118.1417 49.6235
" />
<path d="M118.1417 49.6235
L118.1798 49.5854
" />
<path d="M118.1798 49.5854
L118.2179 49.5664
" />
<path d="M118.5608 49.5664
L118.5608 49.8902
" />
<path d="M118.5608 49.8902
L118.5798 49.9283
" />
<path d="M118.5798 49.9283
L118.5989 49.9473
" />
<path d="M118.5989 49.9473
L118.6370 49.9664
" />
<path d="M118.6370 49.9664
L118.7131 49.9664
" />
<path d="M118.7131 49.9664
L118.7512 49.9473
" />
<path d="M118.7512 49.9473
L118.7703 49.9283
" />
<path d="M118.7703 49.9283
L118.7893 49.8902
" />
<path d="M118.7893 49.8902
L118.7893 49.5664
" />
<path d="M118.9227 49.5664
L119.1512 49.5664
" />
<path d="M119.0370 49.9664
L119.0370 49.5664
" />
</g><text x="165.1000" y="49.9840"
textLength="2.7397" font-size="0.5333" lengthAdjust="spacingAndGlyphs"
text-anchor="middle" opacity="0">KEEPOUT</text>
<g class="stroked-text"><desc>KEEPOUT</desc>
<path d="M163.8619 49.9664
L163.8619 49.5664
" />
<path d="M164.0905 49.9664
L163.9190 49.7378
" />
<path d="M164.0905 49.5664
L163.8619 49.7950
" />
<path d="M164.2619 49.7569
L164.3952 49.7569
" />
<path d="M164.4524 49.9664
L164.2619 49.9664
" />
<path d="M164.2619 49.9664
L164.2619 49.5664
" />
<path d="M164.2619 49.5664
L164.4524 49.5664
" />
<path d="M164.6238 49.7569
L164.7571 49.7569
" />
<path d="M164.8143 49.9664
L164.6238 49.9664
" />
<path d="M164.6238 49.9664
L164.6238 49.5664
" />
<path d="M164.6238 49.5664
L164.8143 49.5664
" />
<path d="M164.9857 49.9664
L164.9857 49.5664
" />
<path d="M164.9857 49.5664
L165.1381 49.5664
" />
<path d="M165.1381 49.5664
L165.1762 49.5854
" />
<path d="M165.1762 49.5854
L165.1952 49.6045
" />
<path d="M165.1952 49.6045
L165.2143 49.6426
" />
<path d="M165.2143 49.6426
L165.2143 49.6997
" />
<path d="M165.2143 49.6997
L165.1952 49.7378
" />
<path d="M165.1952 49.7378
L165.1762 49.7569
" />
<path d="M165.1762 49.7569
L165.1381 49.7759
" />
<path d="M165.1381 49.7759
L164.9857 49.7759
" />
<path d="M165.4619 49.5664
L165.5381 49.5664
" />
<path d="M165.5381 49.5664
L165.5762 49.5854
" />
<path d="M165.5762 49.5854
L165.6143 49.6235
" />
<path d="M165.6143 49.6235
L165.6333 49.6997
" />
<path d="M165.6333 49.6997
L165.6333 49.8331
" />
<path d="M165.6333 49.8331
L165.6143 49.9093
" />
<path d="M165.6143 49.9093
L165.5762 49.9473
" />
<path d="M165.5762 49.9473
L165.5381 49.9664
" />
<path d="M165.5381 49.9664
L165.4619 49.9664
" />
<path d="M165.4619 49.9664
L165.4238 49.9473
" />
<path d="M165.4238 49.9473
L165.3857 49.9093
" />
<path d="M165.3857 49.9093
L165.3667 49.8331
" />
<path d="M165.3667 49.8331
L165.3667 49.6997
" />
<path d="M165.3667 49.6997
L165.3857 49.6235
" />
<path d="M165.3857 49.6235
L165.4238 49.5854
" />
<path d="M165.4238 49.5854
L165.4619 49.5664
" />
<path d="M165.8048 49.5664
L165.8048 49.8902
" />
<path d="M165.8048 49.8902
L165.8238 49.9283
" />
<path d="M165.8238 49.9283
L165.8429 49.9473
" />
<path d="M165.8429 49.9473
L165.8810 49.9664
" />
<path d="M165.8810 49.9664
L165.9571 49.9664
" />
<path d="M165.9571 49.9664
L165.9952 49.9473
" />
<path d="M165.9952 49.9473
L166.0143 49.9283
" />
<path d="M166.0143 49.9283
L166.0333 49.8902
" />
<path d="M166.0333 49.8902
L166.0333 49.5664
" />
<path d="M166.1667 49.5664
L166.3952 49.5664
" />
<path d="M166.2810 49.9664
L166.2810 49.5664
" />
</g><text x="133.6040" y="49.9840"
textLength="2.7397" font-size="0.5333" lengthAdjust="spacingAndGlyphs"
text-anchor="middle" opacity="0">KEEPOUT</text>
<g class="stroked-text"><desc>KEEPOUT</desc>
<path d="M132.3659 49.9664
L132.3659 49.5664
" />
<path d="M132.5945 49.9664
L132.4230 49.7378
" />
<path d="M132.5945 49.5664
L132.3659 49.7950
" />
<path d="M132.7659 49.7569
L132.8992 49.7569
" />
<path d="M132.9564 49.9664
L132.7659 49.9664
" />
<path d="M132.7659 49.9664
L132.7659 49.5664
" />
<path d="M132.7659 49.5664
L132.9564 49.5664
" />
<path d="M133.1278 49.7569
L133.2611 49.7569
" />
<path d="M133.3183 49.9664
L133.1278 49.9664
" />
<path d="M133.1278 49.9664
L133.1278 49.5664
" />
<path d="M133.1278 49.5664
L133.3183 49.5664
" />
<path d="M133.4897 49.9664
L133.4897 49.5664
" />
<path d="M133.4897 49.5664
L133.6421 49.5664
" />
<path d="M133.6421 49.5664
L133.6802 49.5854
" />
<path d="M133.6802 49.5854
L133.6992 49.6045
" />
<path d="M133.6992 49.6045
L133.7183 49.6426
" />
<path d="M133.7183 49.6426
L133.7183 49.6997
" />
<path d="M133.7183 49.6997
L133.6992 49.7378
" />
<path d="M133.6992 49.7378
L133.6802 49.7569
" />
<path d="M133.6802 49.7569
L133.6421 49.7759
" />
<path d="M133.6421 49.7759
L133.4897 49.7759
" />
<path d="M133.9659 49.5664
L134.0421 49.5664
" />
<path d="M134.0421 49.5664
L134.0802 49.5854
" />
<path d="M134.0802 49.5854
L134.1183 49.6235
" />
<path d="M134.1183 49.6235
L134.1373 49.6997
" />
<path d="M134.1373 49.6997
L134.1373 49.8331
" />
<path d="M134.1373 49.8331
L134.1183 49.9093
" />
<path d="M134.1183 49.9093
L134.0802 49.9473
" />
<path d="M134.0802 49.9473
L134.0421 49.9664
" />
<path d="M134.0421 49.9664
L133.9659 49.9664
" />
<path d="M133.9659 49.9664
L133.9278 49.9473
" />
<path d="M133.9278 49.9473
L133.8897 49.9093
" />
<path d="M133.8897 49.9093
L133.8707 49.8331
" />
<path d="M133.8707 49.8331
L133.8707 49.6997
" />
<path d="M133.8707 49.6997
L133.8897 49.6235
" />
<path d="M133.8897 49.6235
L133.9278 49.5854
" />
<path d="M133.9278 49.5854
L133.9659 49.5664
" />
<path d="M134.3088 49.5664
L134.3088 49.8902
" />
<path d="M134.3088 49.8902
L134.3278 49.9283
" />
<path d="M134.3278 49.9283
L134.3469 49.9473
" />
<path d="M134.3469 49.9473
L134.3850 49.9664
" />
<path d="M134.3850 49.9664
L134.4611 49.9664
" />
<path d="M134.4611 49.9664
L134.4992 49.9473
" />
<path d="M134.4992 49.9473
L134.5183 49.9283
" />
<path d="M134.5183 49.9283
L134.5373 49.8902
" />
<path d="M134.5373 49.8902
L134.5373 49.5664
" />
<path d="M134.6707 49.5664
L134.8992 49.5664
" />
<path d="M134.7850 49.9664
L134.7850 49.5664
" />
</g><text x="149.3520" y="49.9840"
textLength="2.7397" font-size="0.5333" lengthAdjust="spacingAndGlyphs"
text-anchor="middle" opacity="0">KEEPOUT</text>
<g class="stroked-text"><desc>KEEPOUT</desc>
<path d="M148.1139 49.9664
L148.1139 49.5664
" />
<path d="M148.3425 49.9664
L148.1710 49.7378
" />
<path d="M148.3425 49.5664
L148.1139 49.7950
" />
<path d="M148.5139 49.7569
L148.6472 49.7569
" />
<path d="M148.7044 49.9664
L148.5139 49.9664
" />
<path d="M148.5139 49.9664
L148.5139 49.5664
" />
<path d="M148.5139 49.5664
L148.7044 49.5664
" />
<path d="M148.8758 49.7569
L149.0091 49.7569
" />
<path d="M149.0663 49.9664
L148.8758 49.9664
" />
<path d="M148.8758 49.9664
L148.8758 49.5664
" />
<path d="M148.8758 49.5664
L149.0663 49.5664
" />
<path d="M149.2377 49.9664
L149.2377 49.5664
" />
<path d="M149.2377 49.5664
L149.3901 49.5664
" />
<path d="M149.3901 49.5664
L149.4282 49.5854
" />
<path d="M149.4282 49.5854
L149.4472 49.6045
" />
<path d="M149.4472 49.6045
L149.4663 49.6426
" />
<path d="M149.4663 49.6426
L149.4663 49.6997
" />
<path d="M149.4663 49.6997
L149.4472 49.7378
" />
<path d="M149.4472 49.7378
L149.4282 49.7569
" />
<path d="M149.4282 49.7569
L149.3901 49.7759
" />
<path d="M149.3901 49.7759
L149.2377 49.7759
" />
<path d="M149.7139 49.5664
L149.7901 49.5664
" />
<path d="M149.7901 49.5664
L149.8282 49.5854
" />
<path d="M149.8282 49.5854
L149.8663 49.6235
" />
<path d="M149.8663 49.6235
L149.8853 49.6997
" />
<path d="M149.8853 49.6997
L149.8853 49.8331
" />
<path d="M149.8853 49.8331
L149.8663 49.9093
" />
<path d="M149.8663 49.9093
L149.8282 49.9473
" />
<path d="M149.8282 49.9473
L149.7901 49.9664
" />
<path d="M149.7901 49.9664
L149.7139 49.9664
" />
<path d="M149.7139 49.9664
L149.6758 49.9473
" />
<path d="M149.6758 49.9473
L149.6377 49.9093
" />
<path d="M149.6377 49.9093
L149.6187 49.8331
" />
<path d="M149.6187 49.8331
L149.6187 49.6997
" />
<path d="M149.6187 49.6997
L149.6377 49.6235
" />
<path d="M149.6377 49.6235
L149.6758 49.5854
" />
<path d="M149.6758 49.5854
L149.7139 49.5664
" />
<path d="M150.0568 49.5664
L150.0568 49.8902
" />
<path d="M150.0568 49.8902
L150.0758 49.9283
" />
<path d="M150.0758 49.9283
L150.0949 49.9473
" />
<path d="M150.0949 49.9473
L150.1330 49.9664
" />
<path d="M150.1330 49.9664
L150.2091 49.9664
" />
<path d="M150.2091 49.9664
L150.2472 49.9473
" />
<path d="M150.2472 49.9473
L150.2663 49.9283
" />
<path d="M150.2663 49.9283
L150.2853 49.8902
" />
<path d="M150.2853 49.8902
L150.2853 49.5664
" />
<path d="M150.4187 49.5664
L150.6472 49.5664
" />
<path d="M150.5330 49.9664
L150.5330 49.5664
" />
</g><text x="180.8480" y="49.9840"
textLength="2.7397" font-size="0.5333" lengthAdjust="spacingAndGlyphs"
text-anchor="middle" opacity="0">KEEPOUT</text>
<g class="stroked-text"><desc>KEEPOUT</desc>
<path d="M179.6099 49.9664
L179.6099 49.5664
" />
<path d="M179.8385 49.9664
L179.6670 49.7378
" />
<path d="M179.8385 49.5664
L179.6099 49.7950
" />
<path d="M180.0099 49.7569
L180.1432 49.7569
" />
<path d="M180.2004 49.9664
L180.0099 49.9664
" />
<path d="M180.0099 49.9664
L180.0099 49.5664
" />
<path d="M180.0099 49.5664
L180.2004 49.5664
" />
<path d="M180.3718 49.7569
L180.5051 49.7569
" />
<path d="M180.5623 49.9664
L180.3718 49.9664
" />
<path d="M180.3718 49.9664
L180.3718 49.5664
" />
<path d="M180.3718 49.5664
L180.5623 49.5664
" />
<path d="M180.7337 49.9664
L180.7337 49.5664
" />
<path d="M180.7337 49.5664
L180.8861 49.5664
" />
<path d="M180.8861 49.5664
L180.9242 49.5854
" />
<path d="M180.9242 49.5854
L180.9432 49.6045
" />
<path d="M180.9432 49.6045
L180.9623 49.6426
" />
<path d="M180.9623 49.6426
L180.9623 49.6997
" />
<path d="M180.9623 49.6997
L180.9432 49.7378
" />
<path d="M180.9432 49.7378
L180.9242 49.7569
" />
<path d="M180.9242 49.7569
L180.8861 49.7759
" />
<path d="M180.8861 49.7759
L180.7337 49.7759
" />
<path d="M181.2099 49.5664
L181.2861 49.5664
" />
<path d="M181.2861 49.5664
L181.3242 49.5854
" />
<path d="M181.3242 49.5854
L181.3623 49.6235
" />
<path d="M181.3623 49.6235
L181.3813 49.6997
" />
<path d="M181.3813 49.6997
L181.3813 49.8331
" />
<path d="M181.3813 49.8331
L181.3623 49.9093
" />
<path d="M181.3623 49.9093
L181.3242 49.9473
" />
<path d="M181.3242 49.9473
L181.2861 49.9664
" />
<path d="M181.2861 49.9664
L181.2099 49.9664
" />
<path d="M181.2099 49.9664
L181.1718 49.9473
" />
<path d="M181.1718 49.9473
L181.1337 49.9093
" />
<path d="M181.1337 49.9093
L181.1147 49.8331
" />
<path d="M181.1147 49.8331
L181.1147 49.6997
" />
<path d="M181.1147 49.6997
L181.1337 49.6235
" />
<path d="M181.1337 49.6235
L181.1718 49.5854
" />
<path d="M181.1718 49.5854
L181.2099 49.5664
" />
<path d="M181.5528 49.5664
L181.5528 49.8902
" />
<path d="M181.5528 49.8902
L181.5718 49.9283
" />
<path d="M181.5718 49.9283
L181.5909 49.9473
" />
<path d="M181.5909 49.9473
L181.6290 49.9664
" />
<path d="M181.6290 49.9664
L181.7051 49.9664
" />
<path d="M181.7051 49.9664
L181.7432 49.9473
" />
<path d="M181.7432 49.9473
L181.7623 49.9283
" />
<path d="M181.7623 49.9283
L181.7813 49.8902
" />
<path d="M181.7813 49.8902
L181.7813 49.5664
" />
<path d="M181.9147 49.5664
L182.1432 49.5664
" />
<path d="M182.0290 49.9664
L182.0290 49.5664
" />
</g><g >
</g>
<g >
</g>
<g >
</g>
<g >
</g>
<g >
</g>
<g >
</g>
<g >
</g>
<g >
</g>
<g >
</g>
<g >
</g>
<g >
</g>
<g >
</g>
<g >
</g>
<g >
</g>
<g >
</g>
<g >
</g>
<g >
</g>
<g >
</g>
<g >
</g>
<g >
</g>
<g >
</g>
<g >
</g>
<g >
</g>
<g >
</g>
<g >
</g>
<g >
</g>
<g >
</g>
<g >
</g>
<g >
</g>
<g >
</g>
<g >
</g>
<g >
</g>
<g >
</g>
<g >
</g>
<g >
</g>
<g >
</g>
<g >
</g>
<g >
</g>
<g >
</g>
<g >
</g>
<g >
</g>
<g >
</g>
<g >
</g>
<g >
</g>
<g >
</g>
<g >
</g>
<g >
</g>
<g >
</g>
<g >
</g>
</g> 
</svg>
