<!DOCTYPE svg PUBLIC "-//W3C//DTD SVG 1.1//EN" "http://www.w3.org/Graphics/SVG/1.1/DTD/svg11.dtd">
<svg xmlns="http://www.w3.org/2000/svg" version="1.1" width="4.0700002cm" height="13.4680002cm" viewBox="0 0 16023 53023">
            <title>Picture generated by PcbDraw </title>
            <desc>Picture generated by PcbDraw</desc>
        <g transform="translate(-9977, -9977)" id="boardContainer"><g clip-path="url(#cut-off)" mask="url(#hole-mask)"><defs><clipPath id="cut-off"><path d=" M 10000.0 10000.0 L 25866.0 10000.0 L 25866.0 62519.0 L 10000.0 62519.0 L 10000.0 10000.0 " style="fill-rule: evenodd;"/></clipPath></defs><g id="substrate-board" style="fill:#f0f0f0; stroke:#f0f0f0;"><path d=" M 10000.0 10000.0 L 25866.0 10000.0 L 25866.0 62519.0 L 10000.0 62519.0 L 10000.0 10000.0 " style="fill-rule: evenodd;"/><g style="fill:#000000; stroke: #000000;"><g style="fill-opacity:1; stroke-opacity:1; stroke-linecap:round; stroke-linejoin:round;" transform="translate(0 0) scale(1 1)">
</g>
<g style="fill-opacity:0.0; stroke-width:-0.000393701; stroke-opacity:1; stroke-linecap:round; stroke-linejoin:round;">
</g>
<g style="fill-opacity:0.0; stroke-width:47.2441; stroke-opacity:1; stroke-linecap:round; stroke-linejoin:round;">
<path d="M25866 62519 L10000 62519 "/>
<path d="M25866 10000 L25866 62519 "/>
<path d="M10000 10000 L10000 62519 "/>
<path d="M10000 10000 L25866 10000 "/>
<g>
</g>
<g>
</g>
<g>
</g>
<g>
</g>
<g>
</g>
<g>
</g>
<g>
</g>
<g>
</g>
<g>
</g>
<g>
</g>
<g>
</g>
<g>
</g>
<g>
</g>
<g>
</g>
<g>
</g>
<g>
</g>
</g> 
</g></g><g id="substrate-clad" style="fill:#9c6b28; stroke:#9c6b28;"><g style="fill-opacity:1; stroke-opacity:1; stroke-linecap:round; stroke-linejoin:round;" transform="translate(0 0) scale(1 1)">
</g>
<g style="fill-opacity:0.0; stroke-width:-0.000393701; stroke-opacity:1; stroke-linecap:round; stroke-linejoin:round;">
</g>
<g style="fill-opacity:0.0; stroke-width:98.4252; stroke-opacity:1; stroke-linecap:round; stroke-linejoin:round;">
<g transform="rotate(-90 11500 44000)">
<text x="11500" y="44393.7" textLength="1076.12" font-size="734.908" lengthAdjust="spacingAndGlyphs" text-anchor="middle" opacity="0">#4</text>
</g>
<path d="M11331 44433 L11331 44039 "/>
<path d="M10993 44275 L12006 44433 "/>
<path d="M11668 44091 L11668 44485 "/>
<path d="M12006 44249 L10993 44091 "/>
<path d="M11331 43619 L11856 43619 "/>
<path d="M11031 43750 L11593 43881 L11593 43540 "/>
<g transform="rotate(-90 11500 36000)">
<text x="11500" y="36393.7" textLength="1204.07" font-size="734.908" lengthAdjust="spacingAndGlyphs" text-anchor="middle" opacity="0">#3</text>
</g>
<path d="M11331 36433 L11331 36039 "/>
<path d="M10993 36275 L12006 36433 "/>
<path d="M11668 36091 L11668 36485 "/>
<path d="M12006 36249 L10993 36091 "/>
<path d="M11068 35908 L11068 35566 L11368 35750 L11368 35671 L11406 35619 L11443 35593 L11518 35566 L11706 35566 L11781 35593 L11818 35619 L11856 35671 L11856 35829 L11818 35881 L11781 35908 "/>
<g transform="rotate(-90 11500 28000)">
<text x="11500" y="28393.7" textLength="1204.07" font-size="734.908" lengthAdjust="spacingAndGlyphs" text-anchor="middle" opacity="0">#2</text>
</g>
<path d="M11331 28433 L11331 28039 "/>
<path d="M10993 28275 L12006 28433 "/>
<path d="M11668 28091 L11668 28485 "/>
<path d="M12006 28249 L10993 28091 "/>
<path d="M11143 27881 L11106 27855 L11068 27803 L11068 27671 L11106 27619 L11143 27593 L11218 27566 L11293 27566 L11406 27593 L11856 27908 L11856 27566 "/>
<g transform="rotate(-90 11500 20000)">
<text x="11500" y="20393.7" textLength="1204.07" font-size="734.908" lengthAdjust="spacingAndGlyphs" text-anchor="middle" opacity="0">#1</text>
</g>
<path d="M11331 20433 L11331 20039 "/>
<path d="M10993 20275 L12006 20433 "/>
<path d="M11668 20091 L11668 20485 "/>
<path d="M12006 20249 L10993 20091 "/>
<path d="M11856 19566 L11856 19881 "/>
<path d="M11856 19724 L11068 19724 L11181 19776 L11256 19829 L11293 19881 "/>
<path d="M22000 44000 L22000 52000 "/>
<path d="M22000 44000 L22000 15000 "/>
<path d="M22000 44000 L14000 46000 "/>
<path d="M14000 42000 L22000 44000 "/>
<path d="M22000 36000 L14000 38000 "/>
<path d="M14000 34000 L22000 36000 "/>
<path d="M22000 28000 L14000 30000 "/>
<path d="M14000 26000 L22000 28000 "/>
<path d="M22000 20000 L14000 22000 "/>
<path d="M14000 18000 L22000 20000 "/>
<text x="22000" y="55992.1" textLength="1440.29" font-size="734.908" lengthAdjust="spacingAndGlyphs" text-anchor="middle" opacity="0">out</text>
<path d="M21553 55954 L21501 55917 L21475 55879 L21448 55804 L21448 55579 L21475 55504 L21501 55467 L21553 55429 L21632 55429 L21685 55467 L21711 55504 L21737 55579 L21737 55804 L21711 55879 L21685 55917 L21632 55954 L21553 55954 "/>
<path d="M22209 55429 L22209 55954 "/>
<path d="M21973 55429 L21973 55842 L22000 55917 L22052 55954 L22131 55954 L22183 55917 L22209 55879 "/>
<path d="M22393 55429 L22603 55429 "/>
<path d="M22472 55167 L22472 55842 L22498 55917 L22551 55954 L22603 55954 "/>
</g>
<g style="fill-opacity:0.0; stroke-width:137.795; stroke-opacity:1; stroke-linecap:round; stroke-linejoin:round;">
<text x="17933.1" y="12590.6" textLength="7327.05" font-size="1574.8" lengthAdjust="spacingAndGlyphs" text-anchor="middle" opacity="0">kontrast</text>
<path d="M14614 12534 L14614 11353 "/>
<path d="M14727 12084 L15064 12534 "/>
<path d="M15064 11746 L14614 12196 "/>
<path d="M15739 12534 L15627 12478 L15570 12421 L15514 12309 L15514 11971 L15570 11859 L15627 11803 L15739 11746 L15908 11746 L16020 11803 L16077 11859 L16133 11971 L16133 12309 L16077 12421 L16020 12478 L15908 12534 L15739 12534 "/>
<path d="M16639 11746 L16639 12534 "/>
<path d="M16639 11859 L16695 11803 L16808 11746 L16976 11746 L17089 11803 L17145 11915 L17145 12534 "/>
<path d="M17539 11746 L17989 11746 "/>
<path d="M17708 11353 L17708 12365 L17764 12478 L17876 12534 L17989 12534 "/>
<path d="M18383 12534 L18383 11746 "/>
<path d="M18383 11971 L18439 11859 L18495 11803 L18607 11746 L18720 11746 "/>
<path d="M19620 12534 L19620 11915 L19564 11803 L19451 11746 L19226 11746 L19114 11803 "/>
<path d="M19620 12478 L19507 12534 L19226 12534 L19114 12478 L19057 12365 L19057 12253 L19114 12140 L19226 12084 L19507 12084 L19620 12028 "/>
<path d="M20126 12478 L20239 12534 L20464 12534 L20576 12478 L20632 12365 L20632 12309 L20576 12196 L20464 12140 L20295 12140 L20182 12084 L20126 11971 L20126 11915 L20182 11803 L20295 11746 L20464 11746 L20576 11803 "/>
<path d="M20970 11746 L21420 11746 "/>
<path d="M21138 11353 L21138 12365 L21195 12478 L21307 12534 L21420 12534 "/>
</g>
<g style="fill-opacity:1.0; stroke-width:0; stroke-opacity:1; stroke-linecap:round; stroke-linejoin:round;">
<path style="fill-opacity:1.0; stroke-width:0; stroke-opacity:1; stroke-linecap:round; stroke-linejoin:round;fill-rule:evenodd;" d="M 13100.5,59917.8 13142.4,59926.2 13260.6,59975.2 13367.1,60046.3 13457.6,60136.8 13528.8,60243.3 13577.8,60361.6 13602.8,60487.2 13602.8,60615.2 13577.8,60740.8 13528.8,60859.1 13457.6,60965.5 13367.1,61056.1 13260.6,61127.2 13142.4,61176.2 13100.5,61184.5 13016.8,61201.2 12888.7,61201.2 12805,61184.5 12763.2,61176.2 12644.9,61127.2 12538.4,61056.1 12447.9,60965.5 12376.7,60859.1 12327.7,60740.8 12302.8,60615.2 12302.8,60487.2 12327.7,60361.6 12376.7,60243.3 12447.9,60136.8 12538.4,60046.3 12644.9,59975.2 12763.2,59926.2 12805,59917.8 12888.7,59901.2 13016.8,59901.2 Z"/> 
<path style="fill-opacity:1.0; stroke-width:0; stroke-opacity:1; stroke-linecap:round; stroke-linejoin:round;fill-rule:evenodd;" d="M 22249.7,50744.7 22373.3,50769.3 22606.3,50865.7 22815.9,51005.8 22994.2,51184.1 23134.3,51393.7 23230.7,51626.7 23279.9,51873.9 23279.9,52126.1 23230.7,52373.3 23134.3,52606.3 22994.2,52815.9 22815.9,52994.2 22606.3,53134.3 22373.3,53230.7 22249.7,53255.3 22126.1,53279.9 21873.9,53279.9 21750.3,53255.3 21626.7,53230.7 21393.7,53134.3 21184.1,52994.2 21005.8,52815.9 20865.7,52606.3 20769.3,52373.3 20720.1,52126.1 20720.1,51873.9 20769.3,51626.7 20865.7,51393.7 21005.8,51184.1 21184.1,51005.8 21393.7,50865.7 21626.7,50769.3 21750.3,50744.7 21873.9,50720.1 22126.1,50720.1 Z"/> 
<path style="fill-opacity:1.0; stroke-width:0; stroke-opacity:1; stroke-linecap:round; stroke-linejoin:round;fill-rule:evenodd;" d="M 14249.7,44744.7 14373.3,44769.3 14606.3,44865.7 14815.9,45005.8 14994.2,45184.1 15134.3,45393.7 15230.7,45626.7 15279.9,45873.9 15279.9,46126.1 15230.7,46373.3 15134.3,46606.3 14994.2,46815.9 14815.9,46994.2 14606.3,47134.3 14373.3,47230.7 14249.7,47255.3 14126.1,47279.9 13873.9,47279.9 13750.3,47255.3 13626.7,47230.7 13393.7,47134.3 13184.1,46994.2 13005.8,46815.9 12865.7,46606.3 12769.3,46373.3 12720.1,46126.1 12720.1,45873.9 12769.3,45626.7 12865.7,45393.7 13005.8,45184.1 13184.1,45005.8 13393.7,44865.7 13626.7,44769.3 13750.3,44744.7 13873.9,44720.1 14126.1,44720.1 Z"/> 
<path style="fill-opacity:1.0; stroke-width:0; stroke-opacity:1; stroke-linecap:round; stroke-linejoin:round;fill-rule:evenodd;" d="M 22335.7,42561.1 22430.8,42580 22699.5,42691.3 22941.4,42852.9 23147.1,43058.6 23308.7,43300.5 23420,43569.2 23476.8,43854.6 23476.8,44145.4 23420,44430.8 23308.7,44699.5 23147.1,44941.4 22941.4,45147.1 22699.5,45308.7 22430.8,45420 22335.7,45438.9 22145.5,45476.8 21854.5,45476.8 21664.3,45438.9 21569.2,45420 21300.5,45308.7 21058.6,45147.1 20852.9,44941.4 20691.3,44699.5 20580,44430.8 20523.2,44145.4 20523.2,43854.6 20580,43569.2 20691.3,43300.5 20852.9,43058.6 21058.6,42852.9 21300.5,42691.3 21569.2,42580 21664.3,42561.1 21854.5,42523.2 22145.5,42523.2 Z"/> 
<path style="fill-opacity:1.0; stroke-width:0; stroke-opacity:1; stroke-linecap:round; stroke-linejoin:round;fill-rule:evenodd;" d="M 14249.7,40744.7 14373.3,40769.3 14606.3,40865.7 14815.9,41005.8 14994.2,41184.1 15134.3,41393.7 15230.7,41626.7 15279.9,41873.9 15279.9,42126.1 15230.7,42373.3 15134.3,42606.3 14994.2,42815.9 14815.9,42994.2 14606.3,43134.3 14373.3,43230.7 14249.7,43255.3 14126.1,43279.9 13873.9,43279.9 13750.3,43255.3 13626.7,43230.7 13393.7,43134.3 13184.1,42994.2 13005.8,42815.9 12865.7,42606.3 12769.3,42373.3 12720.1,42126.1 12720.1,41873.9 12769.3,41626.7 12865.7,41393.7 13005.8,41184.1 13184.1,41005.8 13393.7,40865.7 13626.7,40769.3 13750.3,40744.7 13873.9,40720.1 14126.1,40720.1 Z"/> 
<path style="fill-opacity:1.0; stroke-width:0; stroke-opacity:1; stroke-linecap:round; stroke-linejoin:round;fill-rule:evenodd;" d="M 14249.7,36744.7 14373.3,36769.3 14606.3,36865.7 14815.9,37005.8 14994.2,37184.1 15134.3,37393.7 15230.7,37626.7 15279.9,37873.9 15279.9,38126.1 15230.7,38373.3 15134.3,38606.3 14994.2,38815.9 14815.9,38994.2 14606.3,39134.3 14373.3,39230.7 14249.7,39255.3 14126.1,39279.9 13873.9,39279.9 13750.3,39255.3 13626.7,39230.7 13393.7,39134.3 13184.1,38994.2 13005.8,38815.9 12865.7,38606.3 12769.3,38373.3 12720.1,38126.1 12720.1,37873.9 12769.3,37626.7 12865.7,37393.7 13005.8,37184.1 13184.1,37005.8 13393.7,36865.7 13626.7,36769.3 13750.3,36744.7 13873.9,36720.1 14126.1,36720.1 Z"/> 
<path style="fill-opacity:1.0; stroke-width:0; stroke-opacity:1; stroke-linecap:round; stroke-linejoin:round;fill-rule:evenodd;" d="M 22335.7,34561.1 22430.8,34580 22699.5,34691.3 22941.4,34852.9 23147.1,35058.6 23308.7,35300.5 23420,35569.2 23476.8,35854.6 23476.8,36145.4 23420,36430.8 23308.7,36699.5 23147.1,36941.4 22941.4,37147.1 22699.5,37308.7 22430.8,37420 22335.7,37438.9 22145.5,37476.8 21854.5,37476.8 21664.3,37438.9 21569.2,37420 21300.5,37308.7 21058.6,37147.1 20852.9,36941.4 20691.3,36699.5 20580,36430.8 20523.2,36145.4 20523.2,35854.6 20580,35569.2 20691.3,35300.5 20852.9,35058.6 21058.6,34852.9 21300.5,34691.3 21569.2,34580 21664.3,34561.1 21854.5,34523.2 22145.5,34523.2 Z"/> 
<path style="fill-opacity:1.0; stroke-width:0; stroke-opacity:1; stroke-linecap:round; stroke-linejoin:round;fill-rule:evenodd;" d="M 14249.7,32744.7 14373.3,32769.3 14606.3,32865.7 14815.9,33005.8 14994.2,33184.1 15134.3,33393.7 15230.7,33626.7 15279.9,33873.9 15279.9,34126.1 15230.7,34373.3 15134.3,34606.3 14994.2,34815.9 14815.9,34994.2 14606.3,35134.3 14373.3,35230.7 14249.7,35255.3 14126.1,35279.9 13873.9,35279.9 13750.3,35255.3 13626.7,35230.7 13393.7,35134.3 13184.1,34994.2 13005.8,34815.9 12865.7,34606.3 12769.3,34373.3 12720.1,34126.1 12720.1,33873.9 12769.3,33626.7 12865.7,33393.7 13005.8,33184.1 13184.1,33005.8 13393.7,32865.7 13626.7,32769.3 13750.3,32744.7 13873.9,32720.1 14126.1,32720.1 Z"/> 
<path style="fill-opacity:1.0; stroke-width:0; stroke-opacity:1; stroke-linecap:round; stroke-linejoin:round;fill-rule:evenodd;" d="M 14249.7,28744.7 14373.3,28769.3 14606.3,28865.7 14815.9,29005.8 14994.2,29184.1 15134.3,29393.7 15230.7,29626.7 15279.9,29873.9 15279.9,30126.1 15230.7,30373.3 15134.3,30606.3 14994.2,30815.9 14815.9,30994.2 14606.3,31134.3 14373.3,31230.7 14249.7,31255.3 14126.1,31279.9 13873.9,31279.9 13750.3,31255.3 13626.7,31230.7 13393.7,31134.3 13184.1,30994.2 13005.8,30815.9 12865.7,30606.3 12769.3,30373.3 12720.1,30126.1 12720.1,29873.9 12769.3,29626.7 12865.7,29393.7 13005.8,29184.1 13184.1,29005.8 13393.7,28865.7 13626.7,28769.3 13750.3,28744.7 13873.9,28720.1 14126.1,28720.1 Z"/> 
<path style="fill-opacity:1.0; stroke-width:0; stroke-opacity:1; stroke-linecap:round; stroke-linejoin:round;fill-rule:evenodd;" d="M 22335.7,26561.1 22430.8,26580 22699.5,26691.3 22941.4,26852.9 23147.1,27058.6 23308.7,27300.5 23420,27569.2 23476.8,27854.6 23476.8,28145.4 23420,28430.8 23308.7,28699.5 23147.1,28941.4 22941.4,29147.1 22699.5,29308.7 22430.8,29420 22335.7,29438.9 22145.5,29476.8 21854.5,29476.8 21664.3,29438.9 21569.2,29420 21300.5,29308.7 21058.6,29147.1 20852.9,28941.4 20691.3,28699.5 20580,28430.8 20523.2,28145.4 20523.2,27854.6 20580,27569.2 20691.3,27300.5 20852.9,27058.6 21058.6,26852.9 21300.5,26691.3 21569.2,26580 21664.3,26561.1 21854.5,26523.2 22145.5,26523.2 Z"/> 
<path style="fill-opacity:1.0; stroke-width:0; stroke-opacity:1; stroke-linecap:round; stroke-linejoin:round;fill-rule:evenodd;" d="M 14249.7,24744.7 14373.3,24769.3 14606.3,24865.7 14815.9,25005.8 14994.2,25184.1 15134.3,25393.7 15230.7,25626.7 15279.9,25873.9 15279.9,26126.1 15230.7,26373.3 15134.3,26606.3 14994.2,26815.9 14815.9,26994.2 14606.3,27134.3 14373.3,27230.7 14249.7,27255.3 14126.1,27279.9 13873.9,27279.9 13750.3,27255.3 13626.7,27230.7 13393.7,27134.3 13184.1,26994.2 13005.8,26815.9 12865.7,26606.3 12769.3,26373.3 12720.1,26126.1 12720.1,25873.9 12769.3,25626.7 12865.7,25393.7 13005.8,25184.1 13184.1,25005.8 13393.7,24865.7 13626.7,24769.3 13750.3,24744.7 13873.9,24720.1 14126.1,24720.1 Z"/> 
<path style="fill-opacity:1.0; stroke-width:0; stroke-opacity:1; stroke-linecap:round; stroke-linejoin:round;fill-rule:evenodd;" d="M 14249.7,20744.7 14373.3,20769.3 14606.3,20865.7 14815.9,21005.8 14994.2,21184.1 15134.3,21393.7 15230.7,21626.7 15279.9,21873.9 15279.9,22126.1 15230.7,22373.3 15134.3,22606.3 14994.2,22815.9 14815.9,22994.2 14606.3,23134.3 14373.3,23230.7 14249.7,23255.3 14126.1,23279.9 13873.9,23279.9 13750.3,23255.3 13626.7,23230.7 13393.7,23134.3 13184.1,22994.2 13005.8,22815.9 12865.7,22606.3 12769.3,22373.3 12720.1,22126.1 12720.1,21873.9 12769.3,21626.7 12865.7,21393.7 13005.8,21184.1 13184.1,21005.8 13393.7,20865.7 13626.7,20769.3 13750.3,20744.7 13873.9,20720.1 14126.1,20720.1 Z"/> 
<path style="fill-opacity:1.0; stroke-width:0; stroke-opacity:1; stroke-linecap:round; stroke-linejoin:round;fill-rule:evenodd;" d="M 22335.7,18561.1 22430.8,18580 22699.5,18691.3 22941.4,18852.9 23147.1,19058.6 23308.7,19300.5 23420,19569.2 23476.8,19854.6 23476.8,20145.4 23420,20430.8 23308.7,20699.5 23147.1,20941.4 22941.4,21147.1 22699.5,21308.7 22430.8,21420 22335.7,21438.9 22145.5,21476.8 21854.5,21476.8 21664.3,21438.9 21569.2,21420 21300.5,21308.7 21058.6,21147.1 20852.9,20941.4 20691.3,20699.5 20580,20430.8 20523.2,20145.4 20523.2,19854.6 20580,19569.2 20691.3,19300.5 20852.9,19058.6 21058.6,18852.9 21300.5,18691.3 21569.2,18580 21664.3,18561.1 21854.5,18523.2 22145.5,18523.2 Z"/> 
<path style="fill-opacity:1.0; stroke-width:0; stroke-opacity:1; stroke-linecap:round; stroke-linejoin:round;fill-rule:evenodd;" d="M 14249.7,16744.7 14373.3,16769.3 14606.3,16865.7 14815.9,17005.8 14994.2,17184.1 15134.3,17393.7 15230.7,17626.7 15279.9,17873.9 15279.9,18126.1 15230.7,18373.3 15134.3,18606.3 14994.2,18815.9 14815.9,18994.2 14606.3,19134.3 14373.3,19230.7 14249.7,19255.3 14126.1,19279.9 13873.9,19279.9 13750.3,19255.3 13626.7,19230.7 13393.7,19134.3 13184.1,18994.2 13005.8,18815.9 12865.7,18606.3 12769.3,18373.3 12720.1,18126.1 12720.1,17873.9 12769.3,17626.7 12865.7,17393.7 13005.8,17184.1 13184.1,17005.8 13393.7,16865.7 13626.7,16769.3 13750.3,16744.7 13873.9,16720.1 14126.1,16720.1 Z"/> 
<path style="fill-opacity:1.0; stroke-width:0; stroke-opacity:1; stroke-linecap:round; stroke-linejoin:round;fill-rule:evenodd;" d="M 13100.5,11335.2 13142.4,11343.5 13260.6,11392.5 13367.1,11463.6 13457.6,11554.2 13528.8,11660.6 13577.8,11778.9 13602.8,11904.5 13602.8,12032.5 13577.8,12158.1 13528.8,12276.4 13457.6,12382.9 13367.1,12473.4 13260.6,12544.5 13142.4,12593.5 13100.5,12601.9 13016.8,12618.5 12888.7,12618.5 12805,12601.9 12763.2,12593.5 12644.9,12544.5 12538.4,12473.4 12447.9,12382.9 12376.7,12276.4 12327.7,12158.1 12302.8,12032.5 12302.8,11904.5 12327.7,11778.9 12376.7,11660.6 12447.9,11554.2 12538.4,11463.6 12644.9,11392.5 12763.2,11343.5 12805,11335.2 12888.7,11318.5 13016.8,11318.5 Z"/> 
</g> 
</g><g id="substrate-copper" style="fill:#417e5a; stroke:#417e5a;"><g style="fill-opacity:1; stroke-opacity:1; stroke-linecap:round; stroke-linejoin:round;" transform="translate(0 0) scale(1 1)">
</g>
<g style="fill-opacity:0.0; stroke-width:-0.000393701; stroke-opacity:1; stroke-linecap:round; stroke-linejoin:round;">
</g>
<g style="fill-opacity:0.0; stroke-width:98.4252; stroke-opacity:1; stroke-linecap:round; stroke-linejoin:round;">
<text x="23669.3" y="61452.8" textLength="1780.18" font-size="734.908" lengthAdjust="spacingAndGlyphs" text-anchor="middle" opacity="0">R01</text>
<path d="M23314 61415 L23131 61040 "/>
<path d="M23000 61415 L23000 60627 L23209 60627 L23262 60665 L23288 60702 L23314 60777 L23314 60890 L23288 60965 L23262 61002 L23209 61040 L23000 61040 "/>
<path d="M23656 60627 L23708 60627 L23761 60665 L23787 60702 L23813 60777 L23839 60927 L23839 61115 L23813 61265 L23787 61340 L23761 61377 L23708 61415 L23656 61415 L23603 61377 L23577 61340 L23551 61265 L23524 61115 L23524 60927 L23551 60777 L23577 60702 L23603 60665 L23656 60627 "/>
<path d="M24364 61415 L24049 61415 "/>
<path d="M24207 61415 L24207 60627 L24154 60740 L24102 60815 L24049 60852 "/>
<g>
</g>
<g>
</g>
<g>
</g>
<g>
</g>
<g>
</g>
<g>
</g>
<g>
</g>
<g>
</g>
<g>
</g>
<g>
</g>
<g>
</g>
<g>
</g>
<g>
</g>
<g>
</g>
<g>
</g>
<g>
</g>
<g>
</g>
<g>
</g>
</g>
<g style="fill-opacity:0.0; stroke-width:98.4252; stroke-opacity:1; stroke-linecap:round; stroke-linejoin:round;">
</g>
<g style="fill-opacity:1.0; stroke-width:0; stroke-opacity:1; stroke-linecap:round; stroke-linejoin:round;">
<circle cx="12952.8" cy="60551.2" r="68.8976"/> 
</g>
<g style="fill-opacity:1.0; stroke-width:59.0551; stroke-opacity:1; stroke-linecap:round; stroke-linejoin:round;">
</g>
<g style="fill-opacity:1.0; stroke-width:0; stroke-opacity:1; stroke-linecap:round; stroke-linejoin:round;">
<circle cx="12952.8" cy="11968.5" r="68.8976"/> 
</g>
<g style="fill-opacity:1.0; stroke-width:59.0551; stroke-opacity:1; stroke-linecap:round; stroke-linejoin:round;">
</g>
<g style="fill-opacity:1.0; stroke-width:0; stroke-opacity:1; stroke-linecap:round; stroke-linejoin:round;">
<circle cx="22000" cy="52000" r="68.8976"/> 
</g>
<g style="fill-opacity:1.0; stroke-width:59.0551; stroke-opacity:1; stroke-linecap:round; stroke-linejoin:round;">
</g>
<g style="fill-opacity:1.0; stroke-width:0; stroke-opacity:1; stroke-linecap:round; stroke-linejoin:round;">
<circle cx="22000" cy="20000" r="68.8976"/> 
</g>
<g style="fill-opacity:1.0; stroke-width:59.0551; stroke-opacity:1; stroke-linecap:round; stroke-linejoin:round;">
</g>
<g style="fill-opacity:1.0; stroke-width:0; stroke-opacity:1; stroke-linecap:round; stroke-linejoin:round;">
<circle cx="14000" cy="18000" r="68.8976"/> 
</g>
<g style="fill-opacity:1.0; stroke-width:59.0551; stroke-opacity:1; stroke-linecap:round; stroke-linejoin:round;">
</g>
<g style="fill-opacity:1.0; stroke-width:0; stroke-opacity:1; stroke-linecap:round; stroke-linejoin:round;">
<circle cx="22000" cy="44000" r="68.8976"/> 
</g>
<g style="fill-opacity:1.0; stroke-width:59.0551; stroke-opacity:1; stroke-linecap:round; stroke-linejoin:round;">
</g>
<g style="fill-opacity:1.0; stroke-width:0; stroke-opacity:1; stroke-linecap:round; stroke-linejoin:round;">
<circle cx="22000" cy="36000" r="68.8976"/> 
</g>
<g style="fill-opacity:1.0; stroke-width:59.0551; stroke-opacity:1; stroke-linecap:round; stroke-linejoin:round;">
</g>
<g style="fill-opacity:1.0; stroke-width:0; stroke-opacity:1; stroke-linecap:round; stroke-linejoin:round;">
<circle cx="22000" cy="28000" r="68.8976"/> 
</g>
<g style="fill-opacity:1.0; stroke-width:59.0551; stroke-opacity:1; stroke-linecap:round; stroke-linejoin:round;">
</g>
<g style="fill-opacity:1.0; stroke-width:0; stroke-opacity:1; stroke-linecap:round; stroke-linejoin:round;">
<circle cx="14000" cy="46000" r="68.8976"/> 
</g>
<g style="fill-opacity:1.0; stroke-width:59.0551; stroke-opacity:1; stroke-linecap:round; stroke-linejoin:round;">
</g>
<g style="fill-opacity:1.0; stroke-width:0; stroke-opacity:1; stroke-linecap:round; stroke-linejoin:round;">
<circle cx="14000" cy="42000" r="68.8976"/> 
</g>
<g style="fill-opacity:1.0; stroke-width:59.0551; stroke-opacity:1; stroke-linecap:round; stroke-linejoin:round;">
</g>
<g style="fill-opacity:1.0; stroke-width:0; stroke-opacity:1; stroke-linecap:round; stroke-linejoin:round;">
<circle cx="14000" cy="38000" r="68.8976"/> 
</g>
<g style="fill-opacity:1.0; stroke-width:59.0551; stroke-opacity:1; stroke-linecap:round; stroke-linejoin:round;">
</g>
<g style="fill-opacity:1.0; stroke-width:0; stroke-opacity:1; stroke-linecap:round; stroke-linejoin:round;">
<circle cx="14000" cy="34000" r="68.8976"/> 
</g>
<g style="fill-opacity:1.0; stroke-width:59.0551; stroke-opacity:1; stroke-linecap:round; stroke-linejoin:round;">
</g>
<g style="fill-opacity:1.0; stroke-width:0; stroke-opacity:1; stroke-linecap:round; stroke-linejoin:round;">
<circle cx="14000" cy="30000" r="68.8976"/> 
</g>
<g style="fill-opacity:1.0; stroke-width:59.0551; stroke-opacity:1; stroke-linecap:round; stroke-linejoin:round;">
</g>
<g style="fill-opacity:1.0; stroke-width:0; stroke-opacity:1; stroke-linecap:round; stroke-linejoin:round;">
<circle cx="14000" cy="26000" r="68.8976"/> 
</g>
<g style="fill-opacity:1.0; stroke-width:59.0551; stroke-opacity:1; stroke-linecap:round; stroke-linejoin:round;">
</g>
<g style="fill-opacity:1.0; stroke-width:0; stroke-opacity:1; stroke-linecap:round; stroke-linejoin:round;">
<circle cx="14000" cy="22000" r="68.8976"/> 
</g>
<g style="fill-opacity:1.0; stroke-width:59.0551; stroke-opacity:1; stroke-linecap:round; stroke-linejoin:round;">
</g>
<g style="fill-opacity:1.0; stroke-width:59.0551; stroke-opacity:1; stroke-linecap:round; stroke-linejoin:round;">
</g> 
</g><g id="substrate-pads" style="fill:#b5ae30; stroke:#b5ae30;" mask="url(#pads-mask)"><g style="fill-opacity:1; stroke-opacity:1; stroke-linecap:round; stroke-linejoin:round;" transform="translate(0 0) scale(1 1)">
</g>
<g style="fill-opacity:0.0; stroke-width:-0.000393701; stroke-opacity:1; stroke-linecap:round; stroke-linejoin:round;">
</g>
<g style="fill-opacity:0.0; stroke-width:98.4252; stroke-opacity:1; stroke-linecap:round; stroke-linejoin:round;">
<text x="23669.3" y="61452.8" textLength="1729" font-size="734.908" lengthAdjust="spacingAndGlyphs" text-anchor="middle" opacity="0">R01</text>
<path d="M23314 61415 L23131 61040 "/>
<path d="M23000 61415 L23000 60627 L23209 60627 L23262 60665 L23288 60702 L23314 60777 L23314 60890 L23288 60965 L23262 61002 L23209 61040 L23000 61040 "/>
<path d="M23656 60627 L23708 60627 L23761 60665 L23787 60702 L23813 60777 L23839 60927 L23839 61115 L23813 61265 L23787 61340 L23761 61377 L23708 61415 L23656 61415 L23603 61377 L23577 61340 L23551 61265 L23524 61115 L23524 60927 L23551 60777 L23577 60702 L23603 60665 L23656 60627 "/>
<path d="M24364 61415 L24049 61415 "/>
<path d="M24207 61415 L24207 60627 L24154 60740 L24102 60815 L24049 60852 "/>
<g>
</g>
<g>
</g>
<g>
</g>
<g>
</g>
<g>
</g>
<g>
</g>
<g>
</g>
<g>
</g>
<g>
</g>
<g>
</g>
<g>
</g>
<g>
</g>
<g>
</g>
<g>
</g>
<g>
</g>
<g>
</g>
<g>
</g>
<g>
</g>
</g>
<g style="fill-opacity:0.0; stroke-width:98.4252; stroke-opacity:1; stroke-linecap:round; stroke-linejoin:round;">
</g>
<g style="fill-opacity:1.0; stroke-width:0; stroke-opacity:1; stroke-linecap:round; stroke-linejoin:round;">
<circle cx="12952.8" cy="60551.2" r="68.8976"/> 
</g>
<g style="fill-opacity:1.0; stroke-width:59.0551; stroke-opacity:1; stroke-linecap:round; stroke-linejoin:round;">
</g>
<g style="fill-opacity:1.0; stroke-width:0; stroke-opacity:1; stroke-linecap:round; stroke-linejoin:round;">
<circle cx="12952.8" cy="11968.5" r="68.8976"/> 
</g>
<g style="fill-opacity:1.0; stroke-width:59.0551; stroke-opacity:1; stroke-linecap:round; stroke-linejoin:round;">
</g>
<g style="fill-opacity:1.0; stroke-width:0; stroke-opacity:1; stroke-linecap:round; stroke-linejoin:round;">
<circle cx="22000" cy="52000" r="68.8976"/> 
</g>
<g style="fill-opacity:1.0; stroke-width:59.0551; stroke-opacity:1; stroke-linecap:round; stroke-linejoin:round;">
</g>
<g style="fill-opacity:1.0; stroke-width:0; stroke-opacity:1; stroke-linecap:round; stroke-linejoin:round;">
<circle cx="22000" cy="20000" r="68.8976"/> 
</g>
<g style="fill-opacity:1.0; stroke-width:59.0551; stroke-opacity:1; stroke-linecap:round; stroke-linejoin:round;">
</g>
<g style="fill-opacity:1.0; stroke-width:0; stroke-opacity:1; stroke-linecap:round; stroke-linejoin:round;">
<circle cx="14000" cy="18000" r="68.8976"/> 
</g>
<g style="fill-opacity:1.0; stroke-width:59.0551; stroke-opacity:1; stroke-linecap:round; stroke-linejoin:round;">
</g>
<g style="fill-opacity:1.0; stroke-width:0; stroke-opacity:1; stroke-linecap:round; stroke-linejoin:round;">
<circle cx="22000" cy="44000" r="68.8976"/> 
</g>
<g style="fill-opacity:1.0; stroke-width:59.0551; stroke-opacity:1; stroke-linecap:round; stroke-linejoin:round;">
</g>
<g style="fill-opacity:1.0; stroke-width:0; stroke-opacity:1; stroke-linecap:round; stroke-linejoin:round;">
<circle cx="22000" cy="36000" r="68.8976"/> 
</g>
<g style="fill-opacity:1.0; stroke-width:59.0551; stroke-opacity:1; stroke-linecap:round; stroke-linejoin:round;">
</g>
<g style="fill-opacity:1.0; stroke-width:0; stroke-opacity:1; stroke-linecap:round; stroke-linejoin:round;">
<circle cx="22000" cy="28000" r="68.8976"/> 
</g>
<g style="fill-opacity:1.0; stroke-width:59.0551; stroke-opacity:1; stroke-linecap:round; stroke-linejoin:round;">
</g>
<g style="fill-opacity:1.0; stroke-width:0; stroke-opacity:1; stroke-linecap:round; stroke-linejoin:round;">
<circle cx="14000" cy="46000" r="68.8976"/> 
</g>
<g style="fill-opacity:1.0; stroke-width:59.0551; stroke-opacity:1; stroke-linecap:round; stroke-linejoin:round;">
</g>
<g style="fill-opacity:1.0; stroke-width:0; stroke-opacity:1; stroke-linecap:round; stroke-linejoin:round;">
<circle cx="14000" cy="42000" r="68.8976"/> 
</g>
<g style="fill-opacity:1.0; stroke-width:59.0551; stroke-opacity:1; stroke-linecap:round; stroke-linejoin:round;">
</g>
<g style="fill-opacity:1.0; stroke-width:0; stroke-opacity:1; stroke-linecap:round; stroke-linejoin:round;">
<circle cx="14000" cy="38000" r="68.8976"/> 
</g>
<g style="fill-opacity:1.0; stroke-width:59.0551; stroke-opacity:1; stroke-linecap:round; stroke-linejoin:round;">
</g>
<g style="fill-opacity:1.0; stroke-width:0; stroke-opacity:1; stroke-linecap:round; stroke-linejoin:round;">
<circle cx="14000" cy="34000" r="68.8976"/> 
</g>
<g style="fill-opacity:1.0; stroke-width:59.0551; stroke-opacity:1; stroke-linecap:round; stroke-linejoin:round;">
</g>
<g style="fill-opacity:1.0; stroke-width:0; stroke-opacity:1; stroke-linecap:round; stroke-linejoin:round;">
<circle cx="14000" cy="30000" r="68.8976"/> 
</g>
<g style="fill-opacity:1.0; stroke-width:59.0551; stroke-opacity:1; stroke-linecap:round; stroke-linejoin:round;">
</g>
<g style="fill-opacity:1.0; stroke-width:0; stroke-opacity:1; stroke-linecap:round; stroke-linejoin:round;">
<circle cx="14000" cy="26000" r="68.8976"/> 
</g>
<g style="fill-opacity:1.0; stroke-width:59.0551; stroke-opacity:1; stroke-linecap:round; stroke-linejoin:round;">
</g>
<g style="fill-opacity:1.0; stroke-width:0; stroke-opacity:1; stroke-linecap:round; stroke-linejoin:round;">
<circle cx="14000" cy="22000" r="68.8976"/> 
</g>
<g style="fill-opacity:1.0; stroke-width:59.0551; stroke-opacity:1; stroke-linecap:round; stroke-linejoin:round;">
</g>
<g style="fill-opacity:1.0; stroke-width:59.0551; stroke-opacity:1; stroke-linecap:round; stroke-linejoin:round;">
</g> 
</g><defs><mask id="pads-mask"><g style="fill:#ffffff; fill-opacity:1;stroke:#ffffff; stroke-opacity:1; stroke-linecap:round; stroke-linejoin:round;" transform="translate(0 0) scale(1 1)">
</g>
<g style="fill:#ffffff; fill-opacity:0.0;  stroke:#ffffff; stroke-width:-0.000393701; stroke-opacity:1;  stroke-linecap:round; stroke-linejoin:round;">
</g>
<g style="fill:#ffffff; fill-opacity:0.0;  stroke:#ffffff; stroke-width:98.4252; stroke-opacity:1;  stroke-linecap:round; stroke-linejoin:round;">
<g transform="rotate(-90 11500 44000)">
<text x="11500" y="44393.7" textLength="1204.07" font-size="734.908" lengthAdjust="spacingAndGlyphs" text-anchor="middle" opacity="0">#4</text>
</g>
<path d="M11331 44433 L11331 44039 "/>
<path d="M10993 44275 L12006 44433 "/>
<path d="M11668 44091 L11668 44485 "/>
<path d="M12006 44249 L10993 44091 "/>
<path d="M11331 43619 L11856 43619 "/>
<path d="M11031 43750 L11593 43881 L11593 43540 "/>
<g transform="rotate(-90 11500 36000)">
<text x="11500" y="36393.7" textLength="1204.07" font-size="734.908" lengthAdjust="spacingAndGlyphs" text-anchor="middle" opacity="0">#3</text>
</g>
<path d="M11331 36433 L11331 36039 "/>
<path d="M10993 36275 L12006 36433 "/>
<path d="M11668 36091 L11668 36485 "/>
<path d="M12006 36249 L10993 36091 "/>
<path d="M11068 35908 L11068 35566 L11368 35750 L11368 35671 L11406 35619 L11443 35593 L11518 35566 L11706 35566 L11781 35593 L11818 35619 L11856 35671 L11856 35829 L11818 35881 L11781 35908 "/>
<g transform="rotate(-90 11500 28000)">
<text x="11500" y="28393.7" textLength="1204.07" font-size="734.908" lengthAdjust="spacingAndGlyphs" text-anchor="middle" opacity="0">#2</text>
</g>
<path d="M11331 28433 L11331 28039 "/>
<path d="M10993 28275 L12006 28433 "/>
<path d="M11668 28091 L11668 28485 "/>
<path d="M12006 28249 L10993 28091 "/>
<path d="M11143 27881 L11106 27855 L11068 27803 L11068 27671 L11106 27619 L11143 27593 L11218 27566 L11293 27566 L11406 27593 L11856 27908 L11856 27566 "/>
<g transform="rotate(-90 11500 20000)">
<text x="11500" y="20393.7" textLength="1204.07" font-size="734.908" lengthAdjust="spacingAndGlyphs" text-anchor="middle" opacity="0">#1</text>
</g>
<path d="M11331 20433 L11331 20039 "/>
<path d="M10993 20275 L12006 20433 "/>
<path d="M11668 20091 L11668 20485 "/>
<path d="M12006 20249 L10993 20091 "/>
<path d="M11856 19566 L11856 19881 "/>
<path d="M11856 19724 L11068 19724 L11181 19776 L11256 19829 L11293 19881 "/>
<path d="M22000 44000 L22000 52000 "/>
<path d="M22000 44000 L22000 15000 "/>
<path d="M22000 44000 L14000 46000 "/>
<path d="M14000 42000 L22000 44000 "/>
<path d="M22000 36000 L14000 38000 "/>
<path d="M14000 34000 L22000 36000 "/>
<path d="M22000 28000 L14000 30000 "/>
<path d="M14000 26000 L22000 28000 "/>
<path d="M22000 20000 L14000 22000 "/>
<path d="M14000 18000 L22000 20000 "/>
<text x="22000" y="55992.1" textLength="1440.29" font-size="734.908" lengthAdjust="spacingAndGlyphs" text-anchor="middle" opacity="0">out</text>
<path d="M21553 55954 L21501 55917 L21475 55879 L21448 55804 L21448 55579 L21475 55504 L21501 55467 L21553 55429 L21632 55429 L21685 55467 L21711 55504 L21737 55579 L21737 55804 L21711 55879 L21685 55917 L21632 55954 L21553 55954 "/>
<path d="M22209 55429 L22209 55954 "/>
<path d="M21973 55429 L21973 55842 L22000 55917 L22052 55954 L22131 55954 L22183 55917 L22209 55879 "/>
<path d="M22393 55429 L22603 55429 "/>
<path d="M22472 55167 L22472 55842 L22498 55917 L22551 55954 L22603 55954 "/>
</g>
<g style="fill:#ffffff; fill-opacity:0.0;  stroke:#ffffff; stroke-width:137.795; stroke-opacity:1;  stroke-linecap:round; stroke-linejoin:round;">
<text x="17933.1" y="12590.6" textLength="7327.05" font-size="1574.8" lengthAdjust="spacingAndGlyphs" text-anchor="middle" opacity="0">kontrast</text>
<path d="M14614 12534 L14614 11353 "/>
<path d="M14727 12084 L15064 12534 "/>
<path d="M15064 11746 L14614 12196 "/>
<path d="M15739 12534 L15627 12478 L15570 12421 L15514 12309 L15514 11971 L15570 11859 L15627 11803 L15739 11746 L15908 11746 L16020 11803 L16077 11859 L16133 11971 L16133 12309 L16077 12421 L16020 12478 L15908 12534 L15739 12534 "/>
<path d="M16639 11746 L16639 12534 "/>
<path d="M16639 11859 L16695 11803 L16808 11746 L16976 11746 L17089 11803 L17145 11915 L17145 12534 "/>
<path d="M17539 11746 L17989 11746 "/>
<path d="M17708 11353 L17708 12365 L17764 12478 L17876 12534 L17989 12534 "/>
<path d="M18383 12534 L18383 11746 "/>
<path d="M18383 11971 L18439 11859 L18495 11803 L18607 11746 L18720 11746 "/>
<path d="M19620 12534 L19620 11915 L19564 11803 L19451 11746 L19226 11746 L19114 11803 "/>
<path d="M19620 12478 L19507 12534 L19226 12534 L19114 12478 L19057 12365 L19057 12253 L19114 12140 L19226 12084 L19507 12084 L19620 12028 "/>
<path d="M20126 12478 L20239 12534 L20464 12534 L20576 12478 L20632 12365 L20632 12309 L20576 12196 L20464 12140 L20295 12140 L20182 12084 L20126 11971 L20126 11915 L20182 11803 L20295 11746 L20464 11746 L20576 11803 "/>
<path d="M20970 11746 L21420 11746 "/>
<path d="M21138 11353 L21138 12365 L21195 12478 L21307 12534 L21420 12534 "/>
</g>
<g style="fill:#ffffff; fill-opacity:1.0;  stroke:#ffffff; stroke-width:0; stroke-opacity:1;  stroke-linecap:round; stroke-linejoin:round;">
<path style="fill:#ffffff; fill-opacity:1.0;  stroke:#ffffff; stroke-width:0; stroke-opacity:1;  stroke-linecap:round; stroke-linejoin:round;fill-rule:evenodd;" d="M 13100.5,59917.8 13142.4,59926.2 13260.6,59975.2 13367.1,60046.3 13457.6,60136.8 13528.8,60243.3 13577.8,60361.6 13602.8,60487.2 13602.8,60615.2 13577.8,60740.8 13528.8,60859.1 13457.6,60965.5 13367.1,61056.1 13260.6,61127.2 13142.4,61176.2 13100.5,61184.5 13016.8,61201.2 12888.7,61201.2 12805,61184.5 12763.2,61176.2 12644.9,61127.2 12538.4,61056.1 12447.9,60965.5 12376.7,60859.1 12327.7,60740.8 12302.8,60615.2 12302.8,60487.2 12327.7,60361.6 12376.7,60243.3 12447.9,60136.8 12538.4,60046.3 12644.9,59975.2 12763.2,59926.2 12805,59917.8 12888.7,59901.2 13016.8,59901.2 Z"/> 
<path style="fill:#ffffff; fill-opacity:1.0;  stroke:#ffffff; stroke-width:0; stroke-opacity:1;  stroke-linecap:round; stroke-linejoin:round;fill-rule:evenodd;" d="M 22249.7,50744.7 22373.3,50769.3 22606.3,50865.7 22815.9,51005.8 22994.2,51184.1 23134.3,51393.7 23230.7,51626.7 23279.9,51873.9 23279.9,52126.1 23230.7,52373.3 23134.3,52606.3 22994.2,52815.9 22815.9,52994.2 22606.3,53134.3 22373.3,53230.7 22249.7,53255.3 22126.1,53279.9 21873.9,53279.9 21750.3,53255.3 21626.7,53230.7 21393.7,53134.3 21184.1,52994.2 21005.8,52815.9 20865.7,52606.3 20769.3,52373.3 20720.1,52126.1 20720.1,51873.9 20769.3,51626.7 20865.7,51393.7 21005.8,51184.1 21184.1,51005.8 21393.7,50865.7 21626.7,50769.3 21750.3,50744.7 21873.9,50720.1 22126.1,50720.1 Z"/> 
<path style="fill:#ffffff; fill-opacity:1.0;  stroke:#ffffff; stroke-width:0; stroke-opacity:1;  stroke-linecap:round; stroke-linejoin:round;fill-rule:evenodd;" d="M 14249.7,44744.7 14373.3,44769.3 14606.3,44865.7 14815.9,45005.8 14994.2,45184.1 15134.3,45393.7 15230.7,45626.7 15279.9,45873.9 15279.9,46126.1 15230.7,46373.3 15134.3,46606.3 14994.2,46815.9 14815.9,46994.2 14606.3,47134.3 14373.3,47230.7 14249.7,47255.3 14126.1,47279.9 13873.9,47279.9 13750.3,47255.3 13626.7,47230.7 13393.7,47134.3 13184.1,46994.2 13005.8,46815.9 12865.7,46606.3 12769.3,46373.3 12720.1,46126.1 12720.1,45873.9 12769.3,45626.7 12865.7,45393.7 13005.8,45184.1 13184.1,45005.8 13393.7,44865.7 13626.7,44769.3 13750.3,44744.7 13873.9,44720.1 14126.1,44720.1 Z"/> 
<path style="fill:#ffffff; fill-opacity:1.0;  stroke:#ffffff; stroke-width:0; stroke-opacity:1;  stroke-linecap:round; stroke-linejoin:round;fill-rule:evenodd;" d="M 22335.7,42561.1 22430.8,42580 22699.5,42691.3 22941.4,42852.9 23147.1,43058.6 23308.7,43300.5 23420,43569.2 23476.8,43854.6 23476.8,44145.4 23420,44430.8 23308.7,44699.5 23147.1,44941.4 22941.4,45147.1 22699.5,45308.7 22430.8,45420 22335.7,45438.9 22145.5,45476.8 21854.5,45476.8 21664.3,45438.9 21569.2,45420 21300.5,45308.7 21058.6,45147.1 20852.9,44941.4 20691.3,44699.5 20580,44430.8 20523.2,44145.4 20523.2,43854.6 20580,43569.2 20691.3,43300.5 20852.9,43058.6 21058.6,42852.9 21300.5,42691.3 21569.2,42580 21664.3,42561.1 21854.5,42523.2 22145.5,42523.2 Z"/> 
<path style="fill:#ffffff; fill-opacity:1.0;  stroke:#ffffff; stroke-width:0; stroke-opacity:1;  stroke-linecap:round; stroke-linejoin:round;fill-rule:evenodd;" d="M 14249.7,40744.7 14373.3,40769.3 14606.3,40865.7 14815.9,41005.8 14994.2,41184.1 15134.3,41393.7 15230.7,41626.7 15279.9,41873.9 15279.9,42126.1 15230.7,42373.3 15134.3,42606.3 14994.2,42815.9 14815.9,42994.2 14606.3,43134.3 14373.3,43230.7 14249.7,43255.3 14126.1,43279.9 13873.9,43279.9 13750.3,43255.3 13626.7,43230.7 13393.7,43134.3 13184.1,42994.2 13005.8,42815.9 12865.7,42606.3 12769.3,42373.3 12720.1,42126.1 12720.1,41873.9 12769.3,41626.7 12865.7,41393.7 13005.8,41184.1 13184.1,41005.8 13393.7,40865.7 13626.7,40769.3 13750.3,40744.7 13873.9,40720.1 14126.1,40720.1 Z"/> 
<path style="fill:#ffffff; fill-opacity:1.0;  stroke:#ffffff; stroke-width:0; stroke-opacity:1;  stroke-linecap:round; stroke-linejoin:round;fill-rule:evenodd;" d="M 14249.7,36744.7 14373.3,36769.3 14606.3,36865.7 14815.9,37005.8 14994.2,37184.1 15134.3,37393.7 15230.7,37626.7 15279.9,37873.9 15279.9,38126.1 15230.7,38373.3 15134.3,38606.3 14994.2,38815.9 14815.9,38994.2 14606.3,39134.3 14373.3,39230.7 14249.7,39255.3 14126.1,39279.9 13873.9,39279.9 13750.3,39255.3 13626.7,39230.7 13393.7,39134.3 13184.1,38994.2 13005.8,38815.9 12865.7,38606.3 12769.3,38373.3 12720.1,38126.1 12720.1,37873.9 12769.3,37626.7 12865.7,37393.7 13005.8,37184.1 13184.1,37005.8 13393.7,36865.7 13626.7,36769.3 13750.3,36744.7 13873.9,36720.1 14126.1,36720.1 Z"/> 
<path style="fill:#ffffff; fill-opacity:1.0;  stroke:#ffffff; stroke-width:0; stroke-opacity:1;  stroke-linecap:round; stroke-linejoin:round;fill-rule:evenodd;" d="M 22335.7,34561.1 22430.8,34580 22699.5,34691.3 22941.4,34852.9 23147.1,35058.6 23308.7,35300.5 23420,35569.2 23476.8,35854.6 23476.8,36145.4 23420,36430.8 23308.7,36699.5 23147.1,36941.4 22941.4,37147.1 22699.5,37308.7 22430.8,37420 22335.7,37438.9 22145.5,37476.8 21854.5,37476.8 21664.3,37438.9 21569.2,37420 21300.5,37308.7 21058.6,37147.1 20852.9,36941.4 20691.3,36699.5 20580,36430.8 20523.2,36145.4 20523.2,35854.6 20580,35569.2 20691.3,35300.5 20852.9,35058.6 21058.6,34852.9 21300.5,34691.3 21569.2,34580 21664.3,34561.1 21854.5,34523.2 22145.5,34523.2 Z"/> 
<path style="fill:#ffffff; fill-opacity:1.0;  stroke:#ffffff; stroke-width:0; stroke-opacity:1;  stroke-linecap:round; stroke-linejoin:round;fill-rule:evenodd;" d="M 14249.7,32744.7 14373.3,32769.3 14606.3,32865.7 14815.9,33005.8 14994.2,33184.1 15134.3,33393.7 15230.7,33626.7 15279.9,33873.9 15279.9,34126.1 15230.7,34373.3 15134.3,34606.3 14994.2,34815.9 14815.9,34994.2 14606.3,35134.3 14373.3,35230.7 14249.7,35255.3 14126.1,35279.9 13873.9,35279.9 13750.3,35255.3 13626.7,35230.7 13393.7,35134.3 13184.1,34994.2 13005.8,34815.9 12865.7,34606.3 12769.3,34373.3 12720.1,34126.1 12720.1,33873.9 12769.3,33626.7 12865.7,33393.7 13005.8,33184.1 13184.1,33005.8 13393.7,32865.7 13626.7,32769.3 13750.3,32744.7 13873.9,32720.1 14126.1,32720.1 Z"/> 
<path style="fill:#ffffff; fill-opacity:1.0;  stroke:#ffffff; stroke-width:0; stroke-opacity:1;  stroke-linecap:round; stroke-linejoin:round;fill-rule:evenodd;" d="M 14249.7,28744.7 14373.3,28769.3 14606.3,28865.7 14815.9,29005.8 14994.2,29184.1 15134.3,29393.7 15230.7,29626.7 15279.9,29873.9 15279.9,30126.1 15230.7,30373.3 15134.3,30606.3 14994.2,30815.9 14815.9,30994.2 14606.3,31134.3 14373.3,31230.7 14249.7,31255.3 14126.1,31279.9 13873.9,31279.9 13750.3,31255.3 13626.7,31230.7 13393.7,31134.3 13184.1,30994.2 13005.8,30815.9 12865.7,30606.3 12769.3,30373.3 12720.1,30126.1 12720.1,29873.9 12769.3,29626.7 12865.7,29393.7 13005.8,29184.1 13184.1,29005.8 13393.7,28865.7 13626.7,28769.3 13750.3,28744.7 13873.9,28720.1 14126.1,28720.1 Z"/> 
<path style="fill:#ffffff; fill-opacity:1.0;  stroke:#ffffff; stroke-width:0; stroke-opacity:1;  stroke-linecap:round; stroke-linejoin:round;fill-rule:evenodd;" d="M 22335.7,26561.1 22430.8,26580 22699.5,26691.3 22941.4,26852.9 23147.1,27058.6 23308.7,27300.5 23420,27569.2 23476.8,27854.6 23476.8,28145.4 23420,28430.8 23308.7,28699.5 23147.1,28941.4 22941.4,29147.1 22699.5,29308.7 22430.8,29420 22335.7,29438.9 22145.5,29476.8 21854.5,29476.8 21664.3,29438.9 21569.2,29420 21300.5,29308.7 21058.6,29147.1 20852.9,28941.4 20691.3,28699.5 20580,28430.8 20523.2,28145.4 20523.2,27854.6 20580,27569.2 20691.3,27300.5 20852.9,27058.6 21058.6,26852.9 21300.5,26691.3 21569.2,26580 21664.3,26561.1 21854.5,26523.2 22145.5,26523.2 Z"/> 
<path style="fill:#ffffff; fill-opacity:1.0;  stroke:#ffffff; stroke-width:0; stroke-opacity:1;  stroke-linecap:round; stroke-linejoin:round;fill-rule:evenodd;" d="M 14249.7,24744.7 14373.3,24769.3 14606.3,24865.7 14815.9,25005.8 14994.2,25184.1 15134.3,25393.7 15230.7,25626.7 15279.9,25873.9 15279.9,26126.1 15230.7,26373.3 15134.3,26606.3 14994.2,26815.9 14815.9,26994.2 14606.3,27134.3 14373.3,27230.7 14249.7,27255.3 14126.1,27279.9 13873.9,27279.9 13750.3,27255.3 13626.7,27230.7 13393.7,27134.3 13184.1,26994.2 13005.8,26815.9 12865.7,26606.3 12769.3,26373.3 12720.1,26126.1 12720.1,25873.9 12769.3,25626.7 12865.7,25393.7 13005.8,25184.1 13184.1,25005.8 13393.7,24865.7 13626.7,24769.3 13750.3,24744.7 13873.9,24720.1 14126.1,24720.1 Z"/> 
<path style="fill:#ffffff; fill-opacity:1.0;  stroke:#ffffff; stroke-width:0; stroke-opacity:1;  stroke-linecap:round; stroke-linejoin:round;fill-rule:evenodd;" d="M 14249.7,20744.7 14373.3,20769.3 14606.3,20865.7 14815.9,21005.8 14994.2,21184.1 15134.3,21393.7 15230.7,21626.7 15279.9,21873.9 15279.9,22126.1 15230.7,22373.3 15134.3,22606.3 14994.2,22815.9 14815.9,22994.2 14606.3,23134.3 14373.3,23230.7 14249.7,23255.3 14126.1,23279.9 13873.9,23279.9 13750.3,23255.3 13626.7,23230.7 13393.7,23134.3 13184.1,22994.2 13005.8,22815.9 12865.7,22606.3 12769.3,22373.3 12720.1,22126.1 12720.1,21873.9 12769.3,21626.7 12865.7,21393.7 13005.8,21184.1 13184.1,21005.8 13393.7,20865.7 13626.7,20769.3 13750.3,20744.7 13873.9,20720.1 14126.1,20720.1 Z"/> 
<path style="fill:#ffffff; fill-opacity:1.0;  stroke:#ffffff; stroke-width:0; stroke-opacity:1;  stroke-linecap:round; stroke-linejoin:round;fill-rule:evenodd;" d="M 22335.7,18561.1 22430.8,18580 22699.5,18691.3 22941.4,18852.9 23147.1,19058.6 23308.7,19300.5 23420,19569.2 23476.8,19854.6 23476.8,20145.4 23420,20430.8 23308.7,20699.5 23147.1,20941.4 22941.4,21147.1 22699.5,21308.7 22430.8,21420 22335.7,21438.9 22145.5,21476.8 21854.5,21476.8 21664.3,21438.9 21569.2,21420 21300.5,21308.7 21058.6,21147.1 20852.9,20941.4 20691.3,20699.5 20580,20430.8 20523.2,20145.4 20523.2,19854.6 20580,19569.2 20691.3,19300.5 20852.9,19058.6 21058.6,18852.9 21300.5,18691.3 21569.2,18580 21664.3,18561.1 21854.5,18523.2 22145.5,18523.2 Z"/> 
<path style="fill:#ffffff; fill-opacity:1.0;  stroke:#ffffff; stroke-width:0; stroke-opacity:1;  stroke-linecap:round; stroke-linejoin:round;fill-rule:evenodd;" d="M 14249.7,16744.7 14373.3,16769.3 14606.3,16865.7 14815.9,17005.8 14994.2,17184.1 15134.3,17393.7 15230.7,17626.7 15279.9,17873.9 15279.9,18126.1 15230.7,18373.3 15134.3,18606.3 14994.2,18815.9 14815.9,18994.2 14606.3,19134.3 14373.3,19230.7 14249.7,19255.3 14126.1,19279.9 13873.9,19279.9 13750.3,19255.3 13626.7,19230.7 13393.7,19134.3 13184.1,18994.2 13005.8,18815.9 12865.7,18606.3 12769.3,18373.3 12720.1,18126.1 12720.1,17873.9 12769.3,17626.7 12865.7,17393.7 13005.8,17184.1 13184.1,17005.8 13393.7,16865.7 13626.7,16769.3 13750.3,16744.7 13873.9,16720.1 14126.1,16720.1 Z"/> 
<path style="fill:#ffffff; fill-opacity:1.0;  stroke:#ffffff; stroke-width:0; stroke-opacity:1;  stroke-linecap:round; stroke-linejoin:round;fill-rule:evenodd;" d="M 13100.5,11335.2 13142.4,11343.5 13260.6,11392.5 13367.1,11463.6 13457.6,11554.2 13528.8,11660.6 13577.8,11778.9 13602.8,11904.5 13602.8,12032.5 13577.8,12158.1 13528.8,12276.4 13457.6,12382.9 13367.1,12473.4 13260.6,12544.5 13142.4,12593.5 13100.5,12601.9 13016.8,12618.5 12888.7,12618.5 12805,12601.9 12763.2,12593.5 12644.9,12544.5 12538.4,12473.4 12447.9,12382.9 12376.7,12276.4 12327.7,12158.1 12302.8,12032.5 12302.8,11904.5 12327.7,11778.9 12376.7,11660.6 12447.9,11554.2 12538.4,11463.6 12644.9,11392.5 12763.2,11343.5 12805,11335.2 12888.7,11318.5 13016.8,11318.5 Z"/> 
</g> 
</mask></defs><defs><mask id="pads-mask-silkscreen"><g style="fill:#000000; fill-opacity:1;stroke:#000000; stroke-opacity:1; stroke-linecap:round; stroke-linejoin:round;" transform="translate(0 0) scale(1 1)">
</g>
<g style="fill:#000000; fill-opacity:0.0;  stroke:#000000; stroke-width:-0.000393701; stroke-opacity:1;  stroke-linecap:round; stroke-linejoin:round;">
</g>
<g style="fill:#000000; fill-opacity:0.0;  stroke:#000000; stroke-width:98.4252; stroke-opacity:1;  stroke-linecap:round; stroke-linejoin:round;">
<g transform="rotate(-90 11500 44000)">
<text x="11500" y="44393.7" textLength="1204.07" font-size="734.908" lengthAdjust="spacingAndGlyphs" text-anchor="middle" opacity="0">#4</text>
</g>
<path d="M11331 44433 L11331 44039 "/>
<path d="M10993 44275 L12006 44433 "/>
<path d="M11668 44091 L11668 44485 "/>
<path d="M12006 44249 L10993 44091 "/>
<path d="M11331 43619 L11856 43619 "/>
<path d="M11031 43750 L11593 43881 L11593 43540 "/>
<g transform="rotate(-90 11500 36000)">
<text x="11500" y="36393.7" textLength="1204.07" font-size="734.908" lengthAdjust="spacingAndGlyphs" text-anchor="middle" opacity="0">#3</text>
</g>
<path d="M11331 36433 L11331 36039 "/>
<path d="M10993 36275 L12006 36433 "/>
<path d="M11668 36091 L11668 36485 "/>
<path d="M12006 36249 L10993 36091 "/>
<path d="M11068 35908 L11068 35566 L11368 35750 L11368 35671 L11406 35619 L11443 35593 L11518 35566 L11706 35566 L11781 35593 L11818 35619 L11856 35671 L11856 35829 L11818 35881 L11781 35908 "/>
<g transform="rotate(-90 11500 28000)">
<text x="11500" y="28393.7" textLength="1204.07" font-size="734.908" lengthAdjust="spacingAndGlyphs" text-anchor="middle" opacity="0">#2</text>
</g>
<path d="M11331 28433 L11331 28039 "/>
<path d="M10993 28275 L12006 28433 "/>
<path d="M11668 28091 L11668 28485 "/>
<path d="M12006 28249 L10993 28091 "/>
<path d="M11143 27881 L11106 27855 L11068 27803 L11068 27671 L11106 27619 L11143 27593 L11218 27566 L11293 27566 L11406 27593 L11856 27908 L11856 27566 "/>
<g transform="rotate(-90 11500 20000)">
<text x="11500" y="20393.7" textLength="1204.07" font-size="734.908" lengthAdjust="spacingAndGlyphs" text-anchor="middle" opacity="0">#1</text>
</g>
<path d="M11331 20433 L11331 20039 "/>
<path d="M10993 20275 L12006 20433 "/>
<path d="M11668 20091 L11668 20485 "/>
<path d="M12006 20249 L10993 20091 "/>
<path d="M11856 19566 L11856 19881 "/>
<path d="M11856 19724 L11068 19724 L11181 19776 L11256 19829 L11293 19881 "/>
<path d="M22000 44000 L22000 52000 "/>
<path d="M22000 44000 L22000 15000 "/>
<path d="M22000 44000 L14000 46000 "/>
<path d="M14000 42000 L22000 44000 "/>
<path d="M22000 36000 L14000 38000 "/>
<path d="M14000 34000 L22000 36000 "/>
<path d="M22000 28000 L14000 30000 "/>
<path d="M14000 26000 L22000 28000 "/>
<path d="M22000 20000 L14000 22000 "/>
<path d="M14000 18000 L22000 20000 "/>
<text x="22000" y="55992.1" textLength="1440.29" font-size="734.908" lengthAdjust="spacingAndGlyphs" text-anchor="middle" opacity="0">out</text>
<path d="M21553 55954 L21501 55917 L21475 55879 L21448 55804 L21448 55579 L21475 55504 L21501 55467 L21553 55429 L21632 55429 L21685 55467 L21711 55504 L21737 55579 L21737 55804 L21711 55879 L21685 55917 L21632 55954 L21553 55954 "/>
<path d="M22209 55429 L22209 55954 "/>
<path d="M21973 55429 L21973 55842 L22000 55917 L22052 55954 L22131 55954 L22183 55917 L22209 55879 "/>
<path d="M22393 55429 L22603 55429 "/>
<path d="M22472 55167 L22472 55842 L22498 55917 L22551 55954 L22603 55954 "/>
</g>
<g style="fill:#000000; fill-opacity:0.0;  stroke:#000000; stroke-width:137.795; stroke-opacity:1;  stroke-linecap:round; stroke-linejoin:round;">
<text x="17933.1" y="12590.6" textLength="7327.05" font-size="1574.8" lengthAdjust="spacingAndGlyphs" text-anchor="middle" opacity="0">kontrast</text>
<path d="M14614 12534 L14614 11353 "/>
<path d="M14727 12084 L15064 12534 "/>
<path d="M15064 11746 L14614 12196 "/>
<path d="M15739 12534 L15627 12478 L15570 12421 L15514 12309 L15514 11971 L15570 11859 L15627 11803 L15739 11746 L15908 11746 L16020 11803 L16077 11859 L16133 11971 L16133 12309 L16077 12421 L16020 12478 L15908 12534 L15739 12534 "/>
<path d="M16639 11746 L16639 12534 "/>
<path d="M16639 11859 L16695 11803 L16808 11746 L16976 11746 L17089 11803 L17145 11915 L17145 12534 "/>
<path d="M17539 11746 L17989 11746 "/>
<path d="M17708 11353 L17708 12365 L17764 12478 L17876 12534 L17989 12534 "/>
<path d="M18383 12534 L18383 11746 "/>
<path d="M18383 11971 L18439 11859 L18495 11803 L18607 11746 L18720 11746 "/>
<path d="M19620 12534 L19620 11915 L19564 11803 L19451 11746 L19226 11746 L19114 11803 "/>
<path d="M19620 12478 L19507 12534 L19226 12534 L19114 12478 L19057 12365 L19057 12253 L19114 12140 L19226 12084 L19507 12084 L19620 12028 "/>
<path d="M20126 12478 L20239 12534 L20464 12534 L20576 12478 L20632 12365 L20632 12309 L20576 12196 L20464 12140 L20295 12140 L20182 12084 L20126 11971 L20126 11915 L20182 11803 L20295 11746 L20464 11746 L20576 11803 "/>
<path d="M20970 11746 L21420 11746 "/>
<path d="M21138 11353 L21138 12365 L21195 12478 L21307 12534 L21420 12534 "/>
</g>
<g style="fill:#000000; fill-opacity:1.0;  stroke:#000000; stroke-width:0; stroke-opacity:1;  stroke-linecap:round; stroke-linejoin:round;">
<path style="fill:#000000; fill-opacity:1.0;  stroke:#000000; stroke-width:0; stroke-opacity:1;  stroke-linecap:round; stroke-linejoin:round;fill-rule:evenodd;" d="M 13100.5,59917.8 13142.4,59926.2 13260.6,59975.2 13367.1,60046.3 13457.6,60136.8 13528.8,60243.3 13577.8,60361.6 13602.8,60487.2 13602.8,60615.2 13577.8,60740.8 13528.8,60859.1 13457.6,60965.5 13367.1,61056.1 13260.6,61127.2 13142.4,61176.2 13100.5,61184.5 13016.8,61201.2 12888.7,61201.2 12805,61184.5 12763.2,61176.2 12644.9,61127.2 12538.4,61056.1 12447.9,60965.5 12376.7,60859.1 12327.7,60740.8 12302.8,60615.2 12302.8,60487.2 12327.7,60361.6 12376.7,60243.3 12447.9,60136.8 12538.4,60046.3 12644.9,59975.2 12763.2,59926.2 12805,59917.8 12888.7,59901.2 13016.8,59901.2 Z"/> 
<path style="fill:#000000; fill-opacity:1.0;  stroke:#000000; stroke-width:0; stroke-opacity:1;  stroke-linecap:round; stroke-linejoin:round;fill-rule:evenodd;" d="M 22249.7,50744.7 22373.3,50769.3 22606.3,50865.7 22815.9,51005.8 22994.2,51184.1 23134.3,51393.7 23230.7,51626.7 23279.9,51873.9 23279.9,52126.1 23230.7,52373.3 23134.3,52606.3 22994.2,52815.9 22815.9,52994.2 22606.3,53134.3 22373.3,53230.7 22249.7,53255.3 22126.1,53279.9 21873.9,53279.9 21750.3,53255.3 21626.7,53230.7 21393.7,53134.3 21184.1,52994.2 21005.8,52815.9 20865.7,52606.3 20769.3,52373.3 20720.1,52126.1 20720.1,51873.9 20769.3,51626.7 20865.7,51393.7 21005.8,51184.1 21184.1,51005.8 21393.7,50865.7 21626.7,50769.3 21750.3,50744.7 21873.9,50720.1 22126.1,50720.1 Z"/> 
<path style="fill:#000000; fill-opacity:1.0;  stroke:#000000; stroke-width:0; stroke-opacity:1;  stroke-linecap:round; stroke-linejoin:round;fill-rule:evenodd;" d="M 14249.7,44744.7 14373.3,44769.3 14606.3,44865.7 14815.9,45005.8 14994.2,45184.1 15134.3,45393.7 15230.7,45626.7 15279.9,45873.9 15279.9,46126.1 15230.7,46373.3 15134.3,46606.3 14994.2,46815.9 14815.9,46994.2 14606.3,47134.3 14373.3,47230.7 14249.7,47255.3 14126.1,47279.9 13873.9,47279.9 13750.3,47255.3 13626.7,47230.7 13393.7,47134.3 13184.1,46994.2 13005.8,46815.9 12865.7,46606.3 12769.3,46373.3 12720.1,46126.1 12720.1,45873.9 12769.3,45626.7 12865.7,45393.7 13005.8,45184.1 13184.1,45005.8 13393.7,44865.7 13626.7,44769.3 13750.3,44744.7 13873.9,44720.1 14126.1,44720.1 Z"/> 
<path style="fill:#000000; fill-opacity:1.0;  stroke:#000000; stroke-width:0; stroke-opacity:1;  stroke-linecap:round; stroke-linejoin:round;fill-rule:evenodd;" d="M 22335.7,42561.1 22430.8,42580 22699.5,42691.3 22941.4,42852.9 23147.1,43058.6 23308.7,43300.5 23420,43569.2 23476.8,43854.6 23476.8,44145.4 23420,44430.8 23308.7,44699.5 23147.1,44941.4 22941.4,45147.1 22699.5,45308.7 22430.8,45420 22335.7,45438.9 22145.5,45476.8 21854.5,45476.8 21664.3,45438.9 21569.2,45420 21300.5,45308.7 21058.6,45147.1 20852.9,44941.4 20691.3,44699.5 20580,44430.8 20523.2,44145.4 20523.2,43854.6 20580,43569.2 20691.3,43300.5 20852.9,43058.6 21058.6,42852.9 21300.5,42691.3 21569.2,42580 21664.3,42561.1 21854.5,42523.2 22145.5,42523.2 Z"/> 
<path style="fill:#000000; fill-opacity:1.0;  stroke:#000000; stroke-width:0; stroke-opacity:1;  stroke-linecap:round; stroke-linejoin:round;fill-rule:evenodd;" d="M 14249.7,40744.7 14373.3,40769.3 14606.3,40865.7 14815.9,41005.8 14994.2,41184.1 15134.3,41393.7 15230.7,41626.7 15279.9,41873.9 15279.9,42126.1 15230.7,42373.3 15134.3,42606.3 14994.2,42815.9 14815.9,42994.2 14606.3,43134.3 14373.3,43230.7 14249.7,43255.3 14126.1,43279.9 13873.9,43279.9 13750.3,43255.3 13626.7,43230.7 13393.7,43134.3 13184.1,42994.2 13005.8,42815.9 12865.7,42606.3 12769.3,42373.3 12720.1,42126.1 12720.1,41873.9 12769.3,41626.7 12865.7,41393.7 13005.8,41184.1 13184.1,41005.8 13393.7,40865.7 13626.7,40769.3 13750.3,40744.7 13873.9,40720.1 14126.1,40720.1 Z"/> 
<path style="fill:#000000; fill-opacity:1.0;  stroke:#000000; stroke-width:0; stroke-opacity:1;  stroke-linecap:round; stroke-linejoin:round;fill-rule:evenodd;" d="M 14249.7,36744.7 14373.3,36769.3 14606.3,36865.7 14815.9,37005.8 14994.2,37184.1 15134.3,37393.7 15230.7,37626.7 15279.9,37873.9 15279.9,38126.1 15230.7,38373.3 15134.3,38606.3 14994.2,38815.9 14815.9,38994.2 14606.3,39134.3 14373.3,39230.7 14249.7,39255.3 14126.1,39279.9 13873.9,39279.9 13750.3,39255.3 13626.7,39230.7 13393.7,39134.3 13184.1,38994.2 13005.8,38815.9 12865.7,38606.3 12769.3,38373.3 12720.1,38126.1 12720.1,37873.9 12769.3,37626.7 12865.7,37393.7 13005.8,37184.1 13184.1,37005.8 13393.7,36865.7 13626.7,36769.3 13750.3,36744.7 13873.9,36720.1 14126.1,36720.1 Z"/> 
<path style="fill:#000000; fill-opacity:1.0;  stroke:#000000; stroke-width:0; stroke-opacity:1;  stroke-linecap:round; stroke-linejoin:round;fill-rule:evenodd;" d="M 22335.7,34561.1 22430.8,34580 22699.5,34691.3 22941.4,34852.9 23147.1,35058.6 23308.7,35300.5 23420,35569.2 23476.8,35854.6 23476.8,36145.4 23420,36430.8 23308.7,36699.5 23147.1,36941.4 22941.4,37147.1 22699.5,37308.7 22430.8,37420 22335.7,37438.9 22145.5,37476.8 21854.5,37476.8 21664.3,37438.9 21569.2,37420 21300.5,37308.7 21058.6,37147.1 20852.9,36941.4 20691.3,36699.5 20580,36430.8 20523.2,36145.4 20523.2,35854.6 20580,35569.2 20691.3,35300.5 20852.9,35058.6 21058.6,34852.9 21300.5,34691.3 21569.2,34580 21664.3,34561.1 21854.5,34523.2 22145.5,34523.2 Z"/> 
<path style="fill:#000000; fill-opacity:1.0;  stroke:#000000; stroke-width:0; stroke-opacity:1;  stroke-linecap:round; stroke-linejoin:round;fill-rule:evenodd;" d="M 14249.7,32744.7 14373.3,32769.3 14606.3,32865.7 14815.9,33005.8 14994.2,33184.1 15134.3,33393.7 15230.7,33626.7 15279.9,33873.9 15279.9,34126.1 15230.7,34373.3 15134.3,34606.3 14994.2,34815.9 14815.9,34994.2 14606.3,35134.3 14373.3,35230.7 14249.7,35255.3 14126.1,35279.9 13873.9,35279.9 13750.3,35255.3 13626.7,35230.7 13393.7,35134.3 13184.1,34994.2 13005.8,34815.9 12865.7,34606.3 12769.3,34373.3 12720.1,34126.1 12720.1,33873.9 12769.3,33626.7 12865.7,33393.7 13005.8,33184.1 13184.1,33005.8 13393.7,32865.7 13626.7,32769.3 13750.3,32744.7 13873.9,32720.1 14126.1,32720.1 Z"/> 
<path style="fill:#000000; fill-opacity:1.0;  stroke:#000000; stroke-width:0; stroke-opacity:1;  stroke-linecap:round; stroke-linejoin:round;fill-rule:evenodd;" d="M 14249.7,28744.7 14373.3,28769.3 14606.3,28865.7 14815.9,29005.8 14994.2,29184.1 15134.3,29393.7 15230.7,29626.7 15279.9,29873.9 15279.9,30126.1 15230.7,30373.3 15134.3,30606.3 14994.2,30815.9 14815.9,30994.2 14606.3,31134.3 14373.3,31230.7 14249.7,31255.3 14126.1,31279.9 13873.9,31279.9 13750.3,31255.3 13626.7,31230.7 13393.7,31134.3 13184.1,30994.2 13005.8,30815.9 12865.7,30606.3 12769.3,30373.3 12720.1,30126.1 12720.1,29873.9 12769.3,29626.7 12865.7,29393.7 13005.8,29184.1 13184.1,29005.8 13393.7,28865.7 13626.7,28769.3 13750.3,28744.7 13873.9,28720.1 14126.1,28720.1 Z"/> 
<path style="fill:#000000; fill-opacity:1.0;  stroke:#000000; stroke-width:0; stroke-opacity:1;  stroke-linecap:round; stroke-linejoin:round;fill-rule:evenodd;" d="M 22335.7,26561.1 22430.8,26580 22699.5,26691.3 22941.4,26852.9 23147.1,27058.6 23308.7,27300.5 23420,27569.2 23476.8,27854.6 23476.8,28145.4 23420,28430.8 23308.7,28699.5 23147.1,28941.4 22941.4,29147.1 22699.5,29308.7 22430.8,29420 22335.7,29438.9 22145.5,29476.8 21854.5,29476.8 21664.3,29438.9 21569.2,29420 21300.5,29308.7 21058.6,29147.1 20852.9,28941.4 20691.3,28699.5 20580,28430.8 20523.2,28145.4 20523.2,27854.6 20580,27569.2 20691.3,27300.5 20852.9,27058.6 21058.6,26852.9 21300.5,26691.3 21569.2,26580 21664.3,26561.1 21854.5,26523.2 22145.5,26523.2 Z"/> 
<path style="fill:#000000; fill-opacity:1.0;  stroke:#000000; stroke-width:0; stroke-opacity:1;  stroke-linecap:round; stroke-linejoin:round;fill-rule:evenodd;" d="M 14249.7,24744.7 14373.3,24769.3 14606.3,24865.7 14815.9,25005.8 14994.2,25184.1 15134.3,25393.7 15230.7,25626.7 15279.9,25873.9 15279.9,26126.1 15230.7,26373.3 15134.3,26606.3 14994.2,26815.9 14815.9,26994.2 14606.3,27134.3 14373.3,27230.7 14249.7,27255.3 14126.1,27279.9 13873.9,27279.9 13750.3,27255.3 13626.7,27230.7 13393.7,27134.3 13184.1,26994.2 13005.8,26815.9 12865.7,26606.3 12769.3,26373.3 12720.1,26126.1 12720.1,25873.9 12769.3,25626.7 12865.7,25393.7 13005.8,25184.1 13184.1,25005.8 13393.7,24865.7 13626.7,24769.3 13750.3,24744.7 13873.9,24720.1 14126.1,24720.1 Z"/> 
<path style="fill:#000000; fill-opacity:1.0;  stroke:#000000; stroke-width:0; stroke-opacity:1;  stroke-linecap:round; stroke-linejoin:round;fill-rule:evenodd;" d="M 14249.7,20744.7 14373.3,20769.3 14606.3,20865.7 14815.9,21005.8 14994.2,21184.1 15134.3,21393.7 15230.7,21626.7 15279.9,21873.9 15279.9,22126.1 15230.7,22373.3 15134.3,22606.3 14994.2,22815.9 14815.9,22994.2 14606.3,23134.3 14373.3,23230.7 14249.7,23255.3 14126.1,23279.9 13873.9,23279.9 13750.3,23255.3 13626.7,23230.7 13393.7,23134.3 13184.1,22994.2 13005.8,22815.9 12865.7,22606.3 12769.3,22373.3 12720.1,22126.1 12720.1,21873.9 12769.3,21626.7 12865.7,21393.7 13005.8,21184.1 13184.1,21005.8 13393.7,20865.7 13626.7,20769.3 13750.3,20744.7 13873.9,20720.1 14126.1,20720.1 Z"/> 
<path style="fill:#000000; fill-opacity:1.0;  stroke:#000000; stroke-width:0; stroke-opacity:1;  stroke-linecap:round; stroke-linejoin:round;fill-rule:evenodd;" d="M 22335.7,18561.1 22430.8,18580 22699.5,18691.3 22941.4,18852.9 23147.1,19058.6 23308.7,19300.5 23420,19569.2 23476.8,19854.6 23476.8,20145.4 23420,20430.8 23308.7,20699.5 23147.1,20941.4 22941.4,21147.1 22699.5,21308.7 22430.8,21420 22335.7,21438.9 22145.5,21476.8 21854.5,21476.8 21664.3,21438.9 21569.2,21420 21300.5,21308.7 21058.6,21147.1 20852.9,20941.4 20691.3,20699.5 20580,20430.8 20523.2,20145.4 20523.2,19854.6 20580,19569.2 20691.3,19300.5 20852.9,19058.6 21058.6,18852.9 21300.5,18691.3 21569.2,18580 21664.3,18561.1 21854.5,18523.2 22145.5,18523.2 Z"/> 
<path style="fill:#000000; fill-opacity:1.0;  stroke:#000000; stroke-width:0; stroke-opacity:1;  stroke-linecap:round; stroke-linejoin:round;fill-rule:evenodd;" d="M 14249.7,16744.7 14373.3,16769.3 14606.3,16865.7 14815.9,17005.8 14994.2,17184.1 15134.3,17393.7 15230.7,17626.7 15279.9,17873.9 15279.9,18126.1 15230.7,18373.3 15134.3,18606.3 14994.2,18815.9 14815.9,18994.2 14606.3,19134.3 14373.3,19230.7 14249.7,19255.3 14126.1,19279.9 13873.9,19279.9 13750.3,19255.3 13626.7,19230.7 13393.7,19134.3 13184.1,18994.2 13005.8,18815.9 12865.7,18606.3 12769.3,18373.3 12720.1,18126.1 12720.1,17873.9 12769.3,17626.7 12865.7,17393.7 13005.8,17184.1 13184.1,17005.8 13393.7,16865.7 13626.7,16769.3 13750.3,16744.7 13873.9,16720.1 14126.1,16720.1 Z"/> 
<path style="fill:#000000; fill-opacity:1.0;  stroke:#000000; stroke-width:0; stroke-opacity:1;  stroke-linecap:round; stroke-linejoin:round;fill-rule:evenodd;" d="M 13100.5,11335.2 13142.4,11343.5 13260.6,11392.5 13367.1,11463.6 13457.6,11554.2 13528.8,11660.6 13577.8,11778.9 13602.8,11904.5 13602.8,12032.5 13577.8,12158.1 13528.8,12276.4 13457.6,12382.9 13367.1,12473.4 13260.6,12544.5 13142.4,12593.5 13100.5,12601.9 13016.8,12618.5 12888.7,12618.5 12805,12601.9 12763.2,12593.5 12644.9,12544.5 12538.4,12473.4 12447.9,12382.9 12376.7,12276.4 12327.7,12158.1 12302.8,12032.5 12302.8,11904.5 12327.7,11778.9 12376.7,11660.6 12447.9,11554.2 12538.4,11463.6 12644.9,11392.5 12763.2,11343.5 12805,11335.2 12888.7,11318.5 13016.8,11318.5 Z"/> 
</g> 
<rect x="9976" y="9976" width="16023" height="53023" fill="white"/></mask></defs><g id="substrate-silk" style="fill:#000000; stroke:#000000;" mask="url(#pads-mask-silkscreen)"><g style="fill-opacity:1; stroke-opacity:1; stroke-linecap:round; stroke-linejoin:round;" transform="translate(0 0) scale(1 1)">
</g>
<g style="fill-opacity:0.0; stroke-width:-0.000393701; stroke-opacity:1; stroke-linecap:round; stroke-linejoin:round;">
<g>
</g>
</g> 
</g><g id="substrate-outline" style="fill:#000000; stroke:#000000;"><g style="fill-opacity:1; stroke-opacity:1; stroke-linecap:round; stroke-linejoin:round;" transform="translate(0 0) scale(1 1)">
</g>
<g style="fill-opacity:0.0; stroke-width:-0.000393701; stroke-opacity:1; stroke-linecap:round; stroke-linejoin:round;">
</g>
<g style="fill-opacity:0.0; stroke-width:47.2441; stroke-opacity:1; stroke-linecap:round; stroke-linejoin:round;">
<path d="M25866 62519 L10000 62519 "/>
<path d="M25866 10000 L25866 62519 "/>
<path d="M10000 10000 L10000 62519 "/>
<path d="M10000 10000 L25866 10000 "/>
<g>
</g>
<g>
</g>
<g>
</g>
<g>
</g>
<g>
</g>
<g>
</g>
<g>
</g>
<g>
</g>
<g>
</g>
<g>
</g>
<g>
</g>
<g>
</g>
<g>
</g>
<g>
</g>
<g>
</g>
<g>
</g>
</g> 
</g><defs><mask id="hole-mask"><g><rect x="9976" y="9976" fill="white" width="16023" height="53023"/><polyline stroke-linecap="round" stroke="black" stroke-width="1259" points="0.0 0 0.0 0" transform="translate(12952 60551) rotate(-0.0)"/><polyline stroke-linecap="round" stroke="black" stroke-width="1259" points="0.0 0 0.0 0" transform="translate(12952 11968) rotate(-0.0)"/><polyline stroke-linecap="round" stroke="black" stroke-width="2519" points="0.0 0 0.0 0" transform="translate(22000 52000) rotate(-0.0)"/><polyline stroke-linecap="round" stroke="black" stroke-width="2913" points="0.0 0 0.0 0" transform="translate(22000 20000) rotate(-0.0)"/><polyline stroke-linecap="round" stroke="black" stroke-width="2519" points="0.0 0 0.0 0" transform="translate(14000 18000) rotate(-0.0)"/><polyline stroke-linecap="round" stroke="black" stroke-width="2913" points="0.0 0 0.0 0" transform="translate(22000 44000) rotate(-0.0)"/><polyline stroke-linecap="round" stroke="black" stroke-width="2913" points="0.0 0 0.0 0" transform="translate(22000 36000) rotate(-0.0)"/><polyline stroke-linecap="round" stroke="black" stroke-width="2913" points="0.0 0 0.0 0" transform="translate(22000 28000) rotate(-0.0)"/><polyline stroke-linecap="round" stroke="black" stroke-width="2519" points="0.0 0 0.0 0" transform="translate(14000 46000) rotate(-0.0)"/><polyline stroke-linecap="round" stroke="black" stroke-width="2519" points="0.0 0 0.0 0" transform="translate(14000 42000) rotate(-0.0)"/><polyline stroke-linecap="round" stroke="black" stroke-width="2519" points="0.0 0 0.0 0" transform="translate(14000 38000) rotate(-0.0)"/><polyline stroke-linecap="round" stroke="black" stroke-width="2519" points="0.0 0 0.0 0" transform="translate(14000 34000) rotate(-0.0)"/><polyline stroke-linecap="round" stroke="black" stroke-width="2519" points="0.0 0 0.0 0" transform="translate(14000 30000) rotate(-0.0)"/><polyline stroke-linecap="round" stroke="black" stroke-width="2519" points="0.0 0 0.0 0" transform="translate(14000 26000) rotate(-0.0)"/><polyline stroke-linecap="round" stroke="black" stroke-width="2519" points="0.0 0 0.0 0" transform="translate(14000 22000) rotate(-0.0)"/></g></mask></defs></g></g><g transform="translate(-9977, -9977)" id="highlightContainer"/><g transform="translate(-9977, -9977)" id="componentContainer"/></svg>