<?xml version="1.0" encoding="utf-8" standalone="no"?>
<!DOCTYPE svg PUBLIC "-//W3C//DTD SVG 1.1//EN"
  "http://www.w3.org/Graphics/SVG/1.1/DTD/svg11.dtd">
<svg height="434.844pt" version="1.1" viewBox="0 0 381.2226 434.844" width="381.2226pt" xmlns="http://www.w3.org/2000/svg" xmlns:xlink="http://www.w3.org/1999/xlink">
 <metadata>
  <rdf:RDF xmlns:cc="http://creativecommons.org/ns#" xmlns:dc="http://purl.org/dc/elements/1.1/" xmlns:rdf="http://www.w3.org/1999/02/22-rdf-syntax-ns#">
   <cc:Work>
    <dc:type rdf:resource="http://purl.org/dc/dcmitype/StillImage"/>
    <dc:date>2021-06-25T19:09:46.008160</dc:date>
    <dc:format>image/svg+xml</dc:format>
    <dc:creator>
     <cc:Agent>
      <dc:title>Matplotlib v3.4.2, https://matplotlib.org/</dc:title>
     </cc:Agent>
    </dc:creator>
   </cc:Work>
  </rdf:RDF>
 </metadata>
 <defs>
  <style type="text/css">*{stroke-linecap:butt;stroke-linejoin:round;}</style>
 </defs>
 <g id="figure_1">
  <g id="patch_1">
   <path d="M 0 434.844 
L 381.2226 434.844 
L 381.2226 0 
L 0 0 
z
" style="fill:none;"/>
  </g>
  <g id="axes_1">
   <g id="patch_2">
    <path clip-path="url(#p154cecd07e)" d="M 282.6918 261.18 
L 285.7518 255.06 
L 288.8118 261.18 
z
"/>
   </g>
   <g id="patch_3">
    <path clip-path="url(#p154cecd07e)" d="M 282.6918 184.68 
L 285.7518 178.56 
L 288.8118 184.68 
z
"/>
   </g>
   <g id="patch_4">
    <path clip-path="url(#p154cecd07e)" d="M 282.6918 108.18 
L 285.7518 102.06 
L 288.8118 108.18 
z
"/>
   </g>
   <g id="patch_5">
    <path clip-path="url(#p154cecd07e)" d="M 282.6918 31.68 
L 285.7518 25.56 
L 288.8118 31.68 
z
"/>
   </g>
   <g id="patch_6">
    <path clip-path="url(#p154cecd07e)" d="M 232.2018 336.15 
C 236.259407 336.15 240.151372 334.537895 243.020534 331.668734 
C 245.889695 328.799572 247.5018 324.907607 247.5018 320.85 
C 247.5018 316.792393 245.889695 312.900428 243.020534 310.031266 
C 240.151372 307.162105 236.259407 305.55 232.2018 305.55 
C 228.144193 305.55 224.252228 307.162105 221.383066 310.031266 
C 218.513905 312.900428 216.9018 316.792393 216.9018 320.85 
C 216.9018 324.907607 218.513905 328.799572 221.383066 331.668734 
C 224.252228 334.537895 228.144193 336.15 232.2018 336.15 
z
" style="fill:none;stroke:#000000;stroke-linejoin:miter;stroke-width:1.1;"/>
   </g>
   <g id="line2d_1">
    <path clip-path="url(#p154cecd07e)" d="M 92.2068 285.66 
L 33.3018 285.66 
L 33.3018 255.06 
L 39.4218 255.06 
L 39.4218 285.66 
" style="fill:none;stroke:#000000;stroke-linecap:round;stroke-width:1.1;"/>
   </g>
   <g id="line2d_2">
    <path clip-path="url(#p154cecd07e)" d="M 92.2068 255.06 
L 60.8418 255.06 
L 56.2518 259.65 
L 51.6618 255.06 
" style="fill:none;stroke:#000000;stroke-linecap:round;stroke-width:1.1;"/>
   </g>
   <g id="line2d_3">
    <path clip-path="url(#p154cecd07e)" d="M 94.5018 285.66 
L 94.5018 297.9 
L 86.8518 297.9 
L 102.1518 297.9 
M 89.1468 301.572 
L 99.8568 301.572 
M 92.9718 305.244 
L 96.0318 305.244 
" style="fill:none;stroke:#000000;stroke-linecap:round;stroke-width:1.1;"/>
   </g>
   <g id="line2d_4">
    <path clip-path="url(#p154cecd07e)" d="M 94.5018 255.06 
L 132.7518 255.06 
L 171.0018 255.06 
" style="fill:none;stroke:#000000;stroke-linecap:round;stroke-width:1.1;"/>
   </g>
   <g id="line2d_5">
    <path clip-path="url(#p154cecd07e)" d="M 171.0018 255.06 
L 171.0018 270.36 
L 193.9518 255.06 
L 171.0018 239.76 
L 171.0018 255.06 
" style="fill:none;stroke:#000000;stroke-linecap:round;stroke-width:1.1;"/>
   </g>
   <g id="line2d_6">
    <path clip-path="url(#p154cecd07e)" d="M 193.9518 255.06 
L 232.2018 255.06 
L 270.4518 255.06 
" style="fill:none;stroke:#000000;stroke-linecap:round;stroke-width:1.1;"/>
   </g>
   <g id="line2d_7">
    <path clip-path="url(#p154cecd07e)" d="M 272.7468 291.78 
L 331.6518 291.78 
L 331.6518 261.18 
L 325.5318 261.18 
L 325.5318 291.78 
" style="fill:none;stroke:#000000;stroke-linecap:round;stroke-width:1.1;"/>
   </g>
   <g id="line2d_8">
    <path clip-path="url(#p154cecd07e)" d="M 272.7468 255.06 
L 304.1118 255.06 
L 308.7018 259.65 
L 313.2918 255.06 
" style="fill:none;stroke:#000000;stroke-linecap:round;stroke-width:1.1;"/>
   </g>
   <g id="line2d_9">
    <path clip-path="url(#p154cecd07e)" d="M 270.4518 267.3 
L 285.7518 267.3 
" style="fill:none;stroke:#000000;stroke-linecap:round;stroke-width:1.1;"/>
   </g>
   <g id="line2d_10">
    <path clip-path="url(#p154cecd07e)" d="M 285.7518 267.3 
L 285.7518 261.18 
" style="fill:none;stroke:#000000;stroke-linecap:square;stroke-width:1.1;"/>
   </g>
   <g id="line2d_11">
    <path clip-path="url(#p154cecd07e)" d="M 270.4518 291.78 
L 270.4518 304.02 
L 262.8018 304.02 
L 278.1018 304.02 
M 265.0968 307.692 
L 275.8068 307.692 
M 268.9218 311.364 
L 271.9818 311.364 
" style="fill:none;stroke:#000000;stroke-linecap:round;stroke-width:1.1;"/>
   </g>
   <g id="line2d_12">
    <path clip-path="url(#p154cecd07e)" d="M 92.2068 209.16 
L 33.3018 209.16 
L 33.3018 178.56 
L 39.4218 178.56 
L 39.4218 209.16 
" style="fill:none;stroke:#000000;stroke-linecap:round;stroke-width:1.1;"/>
   </g>
   <g id="line2d_13">
    <path clip-path="url(#p154cecd07e)" d="M 92.2068 178.56 
L 60.8418 178.56 
L 56.2518 183.15 
L 51.6618 178.56 
" style="fill:none;stroke:#000000;stroke-linecap:round;stroke-width:1.1;"/>
   </g>
   <g id="line2d_14">
    <path clip-path="url(#p154cecd07e)" d="M 94.5018 209.16 
L 94.5018 221.4 
L 86.8518 221.4 
L 102.1518 221.4 
M 89.1468 225.072 
L 99.8568 225.072 
M 92.9718 228.744 
L 96.0318 228.744 
" style="fill:none;stroke:#000000;stroke-linecap:round;stroke-width:1.1;"/>
   </g>
   <g id="line2d_15">
    <path clip-path="url(#p154cecd07e)" d="M 94.5018 178.56 
L 132.7518 178.56 
L 171.0018 178.56 
" style="fill:none;stroke:#000000;stroke-linecap:round;stroke-width:1.1;"/>
   </g>
   <g id="line2d_16">
    <path clip-path="url(#p154cecd07e)" d="M 171.0018 178.56 
L 171.0018 193.86 
L 193.9518 178.56 
L 171.0018 163.26 
L 171.0018 178.56 
" style="fill:none;stroke:#000000;stroke-linecap:round;stroke-width:1.1;"/>
   </g>
   <g id="line2d_17">
    <path clip-path="url(#p154cecd07e)" d="M 193.9518 178.56 
L 232.2018 178.56 
L 270.4518 178.56 
" style="fill:none;stroke:#000000;stroke-linecap:round;stroke-width:1.1;"/>
   </g>
   <g id="line2d_18">
    <path clip-path="url(#p154cecd07e)" d="M 272.7468 215.28 
L 331.6518 215.28 
L 331.6518 184.68 
L 325.5318 184.68 
L 325.5318 215.28 
" style="fill:none;stroke:#000000;stroke-linecap:round;stroke-width:1.1;"/>
   </g>
   <g id="line2d_19">
    <path clip-path="url(#p154cecd07e)" d="M 272.7468 178.56 
L 304.1118 178.56 
L 308.7018 183.15 
L 313.2918 178.56 
" style="fill:none;stroke:#000000;stroke-linecap:round;stroke-width:1.1;"/>
   </g>
   <g id="line2d_20">
    <path clip-path="url(#p154cecd07e)" d="M 270.4518 190.8 
L 285.7518 190.8 
" style="fill:none;stroke:#000000;stroke-linecap:round;stroke-width:1.1;"/>
   </g>
   <g id="line2d_21">
    <path clip-path="url(#p154cecd07e)" d="M 285.7518 190.8 
L 285.7518 184.68 
" style="fill:none;stroke:#000000;stroke-linecap:square;stroke-width:1.1;"/>
   </g>
   <g id="line2d_22">
    <path clip-path="url(#p154cecd07e)" d="M 270.4518 215.28 
L 270.4518 227.52 
L 262.8018 227.52 
L 278.1018 227.52 
M 265.0968 231.192 
L 275.8068 231.192 
M 268.9218 234.864 
L 271.9818 234.864 
" style="fill:none;stroke:#000000;stroke-linecap:round;stroke-width:1.1;"/>
   </g>
   <g id="line2d_23">
    <path clip-path="url(#p154cecd07e)" d="M 92.2068 132.66 
L 33.3018 132.66 
L 33.3018 102.06 
L 39.4218 102.06 
L 39.4218 132.66 
" style="fill:none;stroke:#000000;stroke-linecap:round;stroke-width:1.1;"/>
   </g>
   <g id="line2d_24">
    <path clip-path="url(#p154cecd07e)" d="M 92.2068 102.06 
L 60.8418 102.06 
L 56.2518 106.65 
L 51.6618 102.06 
" style="fill:none;stroke:#000000;stroke-linecap:round;stroke-width:1.1;"/>
   </g>
   <g id="line2d_25">
    <path clip-path="url(#p154cecd07e)" d="M 94.5018 132.66 
L 94.5018 144.9 
L 86.8518 144.9 
L 102.1518 144.9 
M 89.1468 148.572 
L 99.8568 148.572 
M 92.9718 152.244 
L 96.0318 152.244 
" style="fill:none;stroke:#000000;stroke-linecap:round;stroke-width:1.1;"/>
   </g>
   <g id="line2d_26">
    <path clip-path="url(#p154cecd07e)" d="M 94.5018 102.06 
L 132.7518 102.06 
L 171.0018 102.06 
" style="fill:none;stroke:#000000;stroke-linecap:round;stroke-width:1.1;"/>
   </g>
   <g id="line2d_27">
    <path clip-path="url(#p154cecd07e)" d="M 171.0018 102.06 
L 171.0018 117.36 
L 193.9518 102.06 
L 171.0018 86.76 
L 171.0018 102.06 
" style="fill:none;stroke:#000000;stroke-linecap:round;stroke-width:1.1;"/>
   </g>
   <g id="line2d_28">
    <path clip-path="url(#p154cecd07e)" d="M 193.9518 102.06 
L 232.2018 102.06 
L 270.4518 102.06 
" style="fill:none;stroke:#000000;stroke-linecap:round;stroke-width:1.1;"/>
   </g>
   <g id="line2d_29">
    <path clip-path="url(#p154cecd07e)" d="M 272.7468 138.78 
L 331.6518 138.78 
L 331.6518 108.18 
L 325.5318 108.18 
L 325.5318 138.78 
" style="fill:none;stroke:#000000;stroke-linecap:round;stroke-width:1.1;"/>
   </g>
   <g id="line2d_30">
    <path clip-path="url(#p154cecd07e)" d="M 272.7468 102.06 
L 304.1118 102.06 
L 308.7018 106.65 
L 313.2918 102.06 
" style="fill:none;stroke:#000000;stroke-linecap:round;stroke-width:1.1;"/>
   </g>
   <g id="line2d_31">
    <path clip-path="url(#p154cecd07e)" d="M 270.4518 114.3 
L 285.7518 114.3 
" style="fill:none;stroke:#000000;stroke-linecap:round;stroke-width:1.1;"/>
   </g>
   <g id="line2d_32">
    <path clip-path="url(#p154cecd07e)" d="M 285.7518 114.3 
L 285.7518 108.18 
" style="fill:none;stroke:#000000;stroke-linecap:square;stroke-width:1.1;"/>
   </g>
   <g id="line2d_33">
    <path clip-path="url(#p154cecd07e)" d="M 270.4518 138.78 
L 270.4518 151.02 
L 262.8018 151.02 
L 278.1018 151.02 
M 265.0968 154.692 
L 275.8068 154.692 
M 268.9218 158.364 
L 271.9818 158.364 
" style="fill:none;stroke:#000000;stroke-linecap:round;stroke-width:1.1;"/>
   </g>
   <g id="line2d_34">
    <path clip-path="url(#p154cecd07e)" d="M 92.2068 56.16 
L 33.3018 56.16 
L 33.3018 25.56 
L 39.4218 25.56 
L 39.4218 56.16 
" style="fill:none;stroke:#000000;stroke-linecap:round;stroke-width:1.1;"/>
   </g>
   <g id="line2d_35">
    <path clip-path="url(#p154cecd07e)" d="M 92.2068 25.56 
L 60.8418 25.56 
L 56.2518 30.15 
L 51.6618 25.56 
" style="fill:none;stroke:#000000;stroke-linecap:round;stroke-width:1.1;"/>
   </g>
   <g id="line2d_36">
    <path clip-path="url(#p154cecd07e)" d="M 94.5018 56.16 
L 94.5018 68.4 
L 86.8518 68.4 
L 102.1518 68.4 
M 89.1468 72.072 
L 99.8568 72.072 
M 92.9718 75.744 
L 96.0318 75.744 
" style="fill:none;stroke:#000000;stroke-linecap:round;stroke-width:1.1;"/>
   </g>
   <g id="line2d_37">
    <path clip-path="url(#p154cecd07e)" d="M 94.5018 25.56 
L 132.7518 25.56 
L 171.0018 25.56 
" style="fill:none;stroke:#000000;stroke-linecap:round;stroke-width:1.1;"/>
   </g>
   <g id="line2d_38">
    <path clip-path="url(#p154cecd07e)" d="M 171.0018 25.56 
L 171.0018 40.86 
L 193.9518 25.56 
L 171.0018 10.26 
L 171.0018 25.56 
" style="fill:none;stroke:#000000;stroke-linecap:round;stroke-width:1.1;"/>
   </g>
   <g id="line2d_39">
    <path clip-path="url(#p154cecd07e)" d="M 193.9518 25.56 
L 232.2018 25.56 
L 270.4518 25.56 
" style="fill:none;stroke:#000000;stroke-linecap:round;stroke-width:1.1;"/>
   </g>
   <g id="line2d_40">
    <path clip-path="url(#p154cecd07e)" d="M 272.7468 62.28 
L 331.6518 62.28 
L 331.6518 31.68 
L 325.5318 31.68 
L 325.5318 62.28 
" style="fill:none;stroke:#000000;stroke-linecap:round;stroke-width:1.1;"/>
   </g>
   <g id="line2d_41">
    <path clip-path="url(#p154cecd07e)" d="M 272.7468 25.56 
L 304.1118 25.56 
L 308.7018 30.15 
L 313.2918 25.56 
" style="fill:none;stroke:#000000;stroke-linecap:round;stroke-width:1.1;"/>
   </g>
   <g id="line2d_42">
    <path clip-path="url(#p154cecd07e)" d="M 270.4518 37.8 
L 285.7518 37.8 
" style="fill:none;stroke:#000000;stroke-linecap:round;stroke-width:1.1;"/>
   </g>
   <g id="line2d_43">
    <path clip-path="url(#p154cecd07e)" d="M 285.7518 37.8 
L 285.7518 31.68 
" style="fill:none;stroke:#000000;stroke-linecap:square;stroke-width:1.1;"/>
   </g>
   <g id="line2d_44">
    <path clip-path="url(#p154cecd07e)" d="M 270.4518 62.28 
L 270.4518 74.52 
L 262.8018 74.52 
L 278.1018 74.52 
M 265.0968 78.192 
L 275.8068 78.192 
M 268.9218 81.864 
L 271.9818 81.864 
" style="fill:none;stroke:#000000;stroke-linecap:round;stroke-width:1.1;"/>
   </g>
   <g id="line2d_45">
    <path clip-path="url(#p154cecd07e)" d="M 270.4518 37.8 
L 251.3268 37.8 
L 232.2018 37.8 
" style="fill:none;stroke:#000000;stroke-linecap:round;stroke-width:1.1;"/>
   </g>
   <g id="line2d_46">
    <path clip-path="url(#p154cecd07e)" d="M 232.2018 37.8 
L 232.2018 76.05 
L 232.2018 114.3 
" style="fill:none;stroke:#000000;stroke-linecap:round;stroke-width:1.1;"/>
   </g>
   <g id="line2d_47">
    <path clip-path="url(#p154cecd07e)" d="M 270.4518 114.3 
L 251.3268 114.3 
L 232.2018 114.3 
" style="fill:none;stroke:#000000;stroke-linecap:round;stroke-width:1.1;"/>
   </g>
   <g id="line2d_48">
    <path clip-path="url(#p154cecd07e)" d="M 232.2018 114.3 
L 232.2018 152.55 
L 232.2018 190.8 
" style="fill:none;stroke:#000000;stroke-linecap:round;stroke-width:1.1;"/>
   </g>
   <g id="line2d_49">
    <path clip-path="url(#p154cecd07e)" d="M 270.4518 190.8 
L 251.3268 190.8 
L 232.2018 190.8 
" style="fill:none;stroke:#000000;stroke-linecap:round;stroke-width:1.1;"/>
   </g>
   <g id="line2d_50">
    <path clip-path="url(#p154cecd07e)" d="M 232.2018 190.8 
L 232.2018 229.05 
L 232.2018 267.3 
" style="fill:none;stroke:#000000;stroke-linecap:round;stroke-width:1.1;"/>
   </g>
   <g id="line2d_51">
    <path clip-path="url(#p154cecd07e)" d="M 270.4518 267.3 
L 251.3268 267.3 
L 232.2018 267.3 
" style="fill:none;stroke:#000000;stroke-linecap:round;stroke-width:1.1;"/>
   </g>
   <g id="line2d_52">
    <path clip-path="url(#p154cecd07e)" d="M 232.2018 267.3 
L 232.2018 286.425 
L 232.2018 305.55 
" style="fill:none;stroke:#000000;stroke-linecap:round;stroke-width:1.1;"/>
   </g>
   <g id="line2d_53">
    <path clip-path="url(#p154cecd07e)" d="M 238.3218 320.85 
L 226.0818 320.85 
" style="fill:none;stroke:#000000;stroke-linecap:round;stroke-width:1.1;"/>
   </g>
   <g id="line2d_54">
    <path clip-path="url(#p154cecd07e)" d="M 232.2018 314.73 
L 232.2018 326.97 
" style="fill:none;stroke:#000000;stroke-linecap:round;stroke-width:1.1;"/>
   </g>
   <g id="line2d_55">
    <path clip-path="url(#p154cecd07e)" d="M 232.2018 336.15 
L 232.2018 355.275 
L 232.2018 374.4 
" style="fill:none;stroke:#000000;stroke-linecap:round;stroke-width:1.1;"/>
   </g>
   <g id="line2d_56">
    <path clip-path="url(#p154cecd07e)" d="M 232.2018 374.4 
L 251.3268 374.4 
L 270.4518 374.4 
" style="fill:none;stroke:#000000;stroke-linecap:round;stroke-width:1.1;"/>
   </g>
   <g id="line2d_57">
    <path clip-path="url(#p154cecd07e)" d="M 272.7468 405 
L 331.6518 405 
L 331.6518 374.4 
L 325.5318 374.4 
L 325.5318 405 
" style="fill:none;stroke:#000000;stroke-linecap:round;stroke-width:1.1;"/>
   </g>
   <g id="line2d_58">
    <path clip-path="url(#p154cecd07e)" d="M 272.7468 374.4 
L 304.1118 374.4 
L 308.7018 378.99 
L 313.2918 374.4 
" style="fill:none;stroke:#000000;stroke-linecap:round;stroke-width:1.1;"/>
   </g>
   <g id="line2d_59">
    <path clip-path="url(#p154cecd07e)" d="M 270.4518 405 
L 270.4518 417.24 
L 262.8018 417.24 
L 278.1018 417.24 
M 265.0968 420.912 
L 275.8068 420.912 
M 268.9218 424.584 
L 271.9818 424.584 
" style="fill:none;stroke:#000000;stroke-linecap:round;stroke-width:1.1;"/>
   </g>
   <g id="text_1">
    <!-- $IN_4$ -->
    <g transform="translate(8.9618 274.223125)scale(0.14 -0.14)">
     <defs>
      <path d="M 1081 4666 
L 1716 4666 
L 806 0 
L 172 0 
L 1081 4666 
z
" id="DejaVuSans-Oblique-49" transform="scale(0.015625)"/>
      <path d="M 1081 4666 
L 1931 4666 
L 3219 666 
L 4000 4666 
L 4616 4666 
L 3706 0 
L 2853 0 
L 1569 4025 
L 788 0 
L 172 0 
L 1081 4666 
z
" id="DejaVuSans-Oblique-4e" transform="scale(0.015625)"/>
      <path d="M 2419 4116 
L 825 1625 
L 2419 1625 
L 2419 4116 
z
M 2253 4666 
L 3047 4666 
L 3047 1625 
L 3713 1625 
L 3713 1100 
L 3047 1100 
L 3047 0 
L 2419 0 
L 2419 1100 
L 313 1100 
L 313 1709 
L 2253 4666 
z
" id="DejaVuSans-34" transform="scale(0.015625)"/>
     </defs>
     <use transform="translate(0 0.09375)" xlink:href="#DejaVuSans-Oblique-49"/>
     <use transform="translate(29.492188 0.09375)" xlink:href="#DejaVuSans-Oblique-4e"/>
     <use transform="translate(104.296875 -16.3125)scale(0.7)" xlink:href="#DejaVuSans-34"/>
    </g>
   </g>
   <g id="text_2">
    <!-- $OUT_4$ -->
    <g transform="translate(334.7118 276.900625)scale(0.14 -0.14)">
     <defs>
      <path d="M 2919 4238 
Q 2400 4238 2003 3986 
Q 1606 3734 1313 3219 
Q 1125 2891 1026 2522 
Q 928 2153 928 1778 
Q 928 1128 1239 775 
Q 1550 422 2119 422 
Q 2631 422 3032 676 
Q 3434 931 3719 1434 
Q 3909 1772 4009 2142 
Q 4109 2513 4109 2881 
Q 4109 3528 3796 3883 
Q 3484 4238 2919 4238 
z
M 2100 -91 
Q 1241 -91 748 418 
Q 256 928 256 1813 
Q 256 2319 448 2847 
Q 641 3375 978 3788 
Q 1375 4272 1862 4511 
Q 2350 4750 2938 4750 
Q 3794 4750 4287 4245 
Q 4781 3741 4781 2869 
Q 4781 2331 4593 1812 
Q 4406 1294 4056 872 
Q 3656 384 3173 146 
Q 2691 -91 2100 -91 
z
" id="DejaVuSans-Oblique-4f" transform="scale(0.015625)"/>
      <path d="M 991 4666 
L 1625 4666 
L 1075 1831 
Q 1041 1641 1027 1517 
Q 1013 1394 1013 1300 
Q 1013 869 1253 645 
Q 1494 422 1959 422 
Q 2563 422 2898 753 
Q 3234 1084 3378 1831 
L 3928 4666 
L 4563 4666 
L 4000 1753 
Q 3816 809 3300 359 
Q 2784 -91 1888 -91 
Q 1188 -91 780 261 
Q 372 613 372 1216 
Q 372 1325 387 1461 
Q 403 1597 434 1753 
L 991 4666 
z
" id="DejaVuSans-Oblique-55" transform="scale(0.015625)"/>
      <path d="M 378 4666 
L 4325 4666 
L 4225 4134 
L 2559 4134 
L 1759 0 
L 1125 0 
L 1925 4134 
L 275 4134 
L 378 4666 
z
" id="DejaVuSans-Oblique-54" transform="scale(0.015625)"/>
     </defs>
     <use transform="translate(0 0.78125)" xlink:href="#DejaVuSans-Oblique-4f"/>
     <use transform="translate(78.710938 0.78125)" xlink:href="#DejaVuSans-Oblique-55"/>
     <use transform="translate(151.904297 0.78125)" xlink:href="#DejaVuSans-Oblique-54"/>
     <use transform="translate(212.988281 -15.625)scale(0.7)" xlink:href="#DejaVuSans-34"/>
    </g>
   </g>
   <g id="text_3">
    <!-- $IN_3$ -->
    <g transform="translate(8.9618 197.723125)scale(0.14 -0.14)">
     <defs>
      <path d="M 2597 2516 
Q 3050 2419 3304 2112 
Q 3559 1806 3559 1356 
Q 3559 666 3084 287 
Q 2609 -91 1734 -91 
Q 1441 -91 1130 -33 
Q 819 25 488 141 
L 488 750 
Q 750 597 1062 519 
Q 1375 441 1716 441 
Q 2309 441 2620 675 
Q 2931 909 2931 1356 
Q 2931 1769 2642 2001 
Q 2353 2234 1838 2234 
L 1294 2234 
L 1294 2753 
L 1863 2753 
Q 2328 2753 2575 2939 
Q 2822 3125 2822 3475 
Q 2822 3834 2567 4026 
Q 2313 4219 1838 4219 
Q 1578 4219 1281 4162 
Q 984 4106 628 3988 
L 628 4550 
Q 988 4650 1302 4700 
Q 1616 4750 1894 4750 
Q 2613 4750 3031 4423 
Q 3450 4097 3450 3541 
Q 3450 3153 3228 2886 
Q 3006 2619 2597 2516 
z
" id="DejaVuSans-33" transform="scale(0.015625)"/>
     </defs>
     <use transform="translate(0 0.09375)" xlink:href="#DejaVuSans-Oblique-49"/>
     <use transform="translate(29.492188 0.09375)" xlink:href="#DejaVuSans-Oblique-4e"/>
     <use transform="translate(104.296875 -16.3125)scale(0.7)" xlink:href="#DejaVuSans-33"/>
    </g>
   </g>
   <g id="text_4">
    <!-- $OUT_3$ -->
    <g transform="translate(334.7118 200.400625)scale(0.14 -0.14)">
     <use transform="translate(0 0.78125)" xlink:href="#DejaVuSans-Oblique-4f"/>
     <use transform="translate(78.710938 0.78125)" xlink:href="#DejaVuSans-Oblique-55"/>
     <use transform="translate(151.904297 0.78125)" xlink:href="#DejaVuSans-Oblique-54"/>
     <use transform="translate(212.988281 -15.625)scale(0.7)" xlink:href="#DejaVuSans-33"/>
    </g>
   </g>
   <g id="text_5">
    <!-- $IN_2$ -->
    <g transform="translate(8.9618 121.223125)scale(0.14 -0.14)">
     <defs>
      <path d="M 1228 531 
L 3431 531 
L 3431 0 
L 469 0 
L 469 531 
Q 828 903 1448 1529 
Q 2069 2156 2228 2338 
Q 2531 2678 2651 2914 
Q 2772 3150 2772 3378 
Q 2772 3750 2511 3984 
Q 2250 4219 1831 4219 
Q 1534 4219 1204 4116 
Q 875 4013 500 3803 
L 500 4441 
Q 881 4594 1212 4672 
Q 1544 4750 1819 4750 
Q 2544 4750 2975 4387 
Q 3406 4025 3406 3419 
Q 3406 3131 3298 2873 
Q 3191 2616 2906 2266 
Q 2828 2175 2409 1742 
Q 1991 1309 1228 531 
z
" id="DejaVuSans-32" transform="scale(0.015625)"/>
     </defs>
     <use transform="translate(0 0.09375)" xlink:href="#DejaVuSans-Oblique-49"/>
     <use transform="translate(29.492188 0.09375)" xlink:href="#DejaVuSans-Oblique-4e"/>
     <use transform="translate(104.296875 -16.3125)scale(0.7)" xlink:href="#DejaVuSans-32"/>
    </g>
   </g>
   <g id="text_6">
    <!-- $OUT_2$ -->
    <g transform="translate(334.7118 123.900625)scale(0.14 -0.14)">
     <use transform="translate(0 0.78125)" xlink:href="#DejaVuSans-Oblique-4f"/>
     <use transform="translate(78.710938 0.78125)" xlink:href="#DejaVuSans-Oblique-55"/>
     <use transform="translate(151.904297 0.78125)" xlink:href="#DejaVuSans-Oblique-54"/>
     <use transform="translate(212.988281 -15.625)scale(0.7)" xlink:href="#DejaVuSans-32"/>
    </g>
   </g>
   <g id="text_7">
    <!-- $IN_1$ -->
    <g transform="translate(8.9618 44.723125)scale(0.14 -0.14)">
     <defs>
      <path d="M 794 531 
L 1825 531 
L 1825 4091 
L 703 3866 
L 703 4441 
L 1819 4666 
L 2450 4666 
L 2450 531 
L 3481 531 
L 3481 0 
L 794 0 
L 794 531 
z
" id="DejaVuSans-31" transform="scale(0.015625)"/>
     </defs>
     <use transform="translate(0 0.09375)" xlink:href="#DejaVuSans-Oblique-49"/>
     <use transform="translate(29.492188 0.09375)" xlink:href="#DejaVuSans-Oblique-4e"/>
     <use transform="translate(104.296875 -16.3125)scale(0.7)" xlink:href="#DejaVuSans-31"/>
    </g>
   </g>
   <g id="text_8">
    <!-- $OUT_1$ -->
    <g transform="translate(334.7118 47.400625)scale(0.14 -0.14)">
     <use transform="translate(0 0.78125)" xlink:href="#DejaVuSans-Oblique-4f"/>
     <use transform="translate(78.710938 0.78125)" xlink:href="#DejaVuSans-Oblique-55"/>
     <use transform="translate(151.904297 0.78125)" xlink:href="#DejaVuSans-Oblique-54"/>
     <use transform="translate(212.988281 -15.625)scale(0.7)" xlink:href="#DejaVuSans-31"/>
    </g>
   </g>
   <g id="text_9">
    <!-- $OUT$ -->
    <g transform="translate(334.7118 393.563125)scale(0.14 -0.14)">
     <use transform="translate(0 0.78125)" xlink:href="#DejaVuSans-Oblique-4f"/>
     <use transform="translate(78.710938 0.78125)" xlink:href="#DejaVuSans-Oblique-55"/>
     <use transform="translate(151.904297 0.78125)" xlink:href="#DejaVuSans-Oblique-54"/>
    </g>
   </g>
   <g id="patch_7">
    <path clip-path="url(#p154cecd07e)" d="M 94.5018 287.955 
C 95.110441 287.955 95.694236 287.713184 96.12461 287.28281 
C 96.554984 286.852436 96.7968 286.268641 96.7968 285.66 
C 96.7968 285.051359 96.554984 284.467564 96.12461 284.03719 
C 95.694236 283.606816 95.110441 283.365 94.5018 283.365 
C 93.893159 283.365 93.309364 283.606816 92.87899 284.03719 
C 92.448616 284.467564 92.2068 285.051359 92.2068 285.66 
C 92.2068 286.268641 92.448616 286.852436 92.87899 287.28281 
C 93.309364 287.713184 93.893159 287.955 94.5018 287.955 
z
" style="fill:#ffffff;stroke:#000000;stroke-linejoin:miter;stroke-width:1.1;"/>
   </g>
   <g id="patch_8">
    <path clip-path="url(#p154cecd07e)" d="M 94.5018 257.355 
C 95.110441 257.355 95.694236 257.113184 96.12461 256.68281 
C 96.554984 256.252436 96.7968 255.668641 96.7968 255.06 
C 96.7968 254.451359 96.554984 253.867564 96.12461 253.43719 
C 95.694236 253.006816 95.110441 252.765 94.5018 252.765 
C 93.893159 252.765 93.309364 253.006816 92.87899 253.43719 
C 92.448616 253.867564 92.2068 254.451359 92.2068 255.06 
C 92.2068 255.668641 92.448616 256.252436 92.87899 256.68281 
C 93.309364 257.113184 93.893159 257.355 94.5018 257.355 
z
" style="fill:#ffffff;stroke:#000000;stroke-linejoin:miter;stroke-width:1.1;"/>
   </g>
   <g id="patch_9">
    <path clip-path="url(#p154cecd07e)" d="M 270.4518 294.075 
C 271.060441 294.075 271.644236 293.833184 272.07461 293.40281 
C 272.504984 292.972436 272.7468 292.388641 272.7468 291.78 
C 272.7468 291.171359 272.504984 290.587564 272.07461 290.15719 
C 271.644236 289.726816 271.060441 289.485 270.4518 289.485 
C 269.843159 289.485 269.259364 289.726816 268.82899 290.15719 
C 268.398616 290.587564 268.1568 291.171359 268.1568 291.78 
C 268.1568 292.388641 268.398616 292.972436 268.82899 293.40281 
C 269.259364 293.833184 269.843159 294.075 270.4518 294.075 
z
" style="fill:#ffffff;stroke:#000000;stroke-linejoin:miter;stroke-width:1.1;"/>
   </g>
   <g id="patch_10">
    <path clip-path="url(#p154cecd07e)" d="M 270.4518 257.355 
C 271.060441 257.355 271.644236 257.113184 272.07461 256.68281 
C 272.504984 256.252436 272.7468 255.668641 272.7468 255.06 
C 272.7468 254.451359 272.504984 253.867564 272.07461 253.43719 
C 271.644236 253.006816 271.060441 252.765 270.4518 252.765 
C 269.843159 252.765 269.259364 253.006816 268.82899 253.43719 
C 268.398616 253.867564 268.1568 254.451359 268.1568 255.06 
C 268.1568 255.668641 268.398616 256.252436 268.82899 256.68281 
C 269.259364 257.113184 269.843159 257.355 270.4518 257.355 
z
" style="fill:#ffffff;stroke:#000000;stroke-linejoin:miter;stroke-width:1.1;"/>
   </g>
   <g id="patch_11">
    <path clip-path="url(#p154cecd07e)" d="M 270.4518 269.595 
C 271.060441 269.595 271.644236 269.353184 272.07461 268.92281 
C 272.504984 268.492436 272.7468 267.908641 272.7468 267.3 
C 272.7468 266.691359 272.504984 266.107564 272.07461 265.67719 
C 271.644236 265.246816 271.060441 265.005 270.4518 265.005 
C 269.843159 265.005 269.259364 265.246816 268.82899 265.67719 
C 268.398616 266.107564 268.1568 266.691359 268.1568 267.3 
C 268.1568 267.908641 268.398616 268.492436 268.82899 268.92281 
C 269.259364 269.353184 269.843159 269.595 270.4518 269.595 
z
" style="fill:#ffffff;stroke:#000000;stroke-linejoin:miter;stroke-width:1.1;"/>
   </g>
   <g id="patch_12">
    <path clip-path="url(#p154cecd07e)" d="M 94.5018 211.455 
C 95.110441 211.455 95.694236 211.213184 96.12461 210.78281 
C 96.554984 210.352436 96.7968 209.768641 96.7968 209.16 
C 96.7968 208.551359 96.554984 207.967564 96.12461 207.53719 
C 95.694236 207.106816 95.110441 206.865 94.5018 206.865 
C 93.893159 206.865 93.309364 207.106816 92.87899 207.53719 
C 92.448616 207.967564 92.2068 208.551359 92.2068 209.16 
C 92.2068 209.768641 92.448616 210.352436 92.87899 210.78281 
C 93.309364 211.213184 93.893159 211.455 94.5018 211.455 
z
" style="fill:#ffffff;stroke:#000000;stroke-linejoin:miter;stroke-width:1.1;"/>
   </g>
   <g id="patch_13">
    <path clip-path="url(#p154cecd07e)" d="M 94.5018 180.855 
C 95.110441 180.855 95.694236 180.613184 96.12461 180.18281 
C 96.554984 179.752436 96.7968 179.168641 96.7968 178.56 
C 96.7968 177.951359 96.554984 177.367564 96.12461 176.93719 
C 95.694236 176.506816 95.110441 176.265 94.5018 176.265 
C 93.893159 176.265 93.309364 176.506816 92.87899 176.93719 
C 92.448616 177.367564 92.2068 177.951359 92.2068 178.56 
C 92.2068 179.168641 92.448616 179.752436 92.87899 180.18281 
C 93.309364 180.613184 93.893159 180.855 94.5018 180.855 
z
" style="fill:#ffffff;stroke:#000000;stroke-linejoin:miter;stroke-width:1.1;"/>
   </g>
   <g id="patch_14">
    <path clip-path="url(#p154cecd07e)" d="M 270.4518 217.575 
C 271.060441 217.575 271.644236 217.333184 272.07461 216.90281 
C 272.504984 216.472436 272.7468 215.888641 272.7468 215.28 
C 272.7468 214.671359 272.504984 214.087564 272.07461 213.65719 
C 271.644236 213.226816 271.060441 212.985 270.4518 212.985 
C 269.843159 212.985 269.259364 213.226816 268.82899 213.65719 
C 268.398616 214.087564 268.1568 214.671359 268.1568 215.28 
C 268.1568 215.888641 268.398616 216.472436 268.82899 216.90281 
C 269.259364 217.333184 269.843159 217.575 270.4518 217.575 
z
" style="fill:#ffffff;stroke:#000000;stroke-linejoin:miter;stroke-width:1.1;"/>
   </g>
   <g id="patch_15">
    <path clip-path="url(#p154cecd07e)" d="M 270.4518 180.855 
C 271.060441 180.855 271.644236 180.613184 272.07461 180.18281 
C 272.504984 179.752436 272.7468 179.168641 272.7468 178.56 
C 272.7468 177.951359 272.504984 177.367564 272.07461 176.93719 
C 271.644236 176.506816 271.060441 176.265 270.4518 176.265 
C 269.843159 176.265 269.259364 176.506816 268.82899 176.93719 
C 268.398616 177.367564 268.1568 177.951359 268.1568 178.56 
C 268.1568 179.168641 268.398616 179.752436 268.82899 180.18281 
C 269.259364 180.613184 269.843159 180.855 270.4518 180.855 
z
" style="fill:#ffffff;stroke:#000000;stroke-linejoin:miter;stroke-width:1.1;"/>
   </g>
   <g id="patch_16">
    <path clip-path="url(#p154cecd07e)" d="M 270.4518 193.095 
C 271.060441 193.095 271.644236 192.853184 272.07461 192.42281 
C 272.504984 191.992436 272.7468 191.408641 272.7468 190.8 
C 272.7468 190.191359 272.504984 189.607564 272.07461 189.17719 
C 271.644236 188.746816 271.060441 188.505 270.4518 188.505 
C 269.843159 188.505 269.259364 188.746816 268.82899 189.17719 
C 268.398616 189.607564 268.1568 190.191359 268.1568 190.8 
C 268.1568 191.408641 268.398616 191.992436 268.82899 192.42281 
C 269.259364 192.853184 269.843159 193.095 270.4518 193.095 
z
" style="fill:#ffffff;stroke:#000000;stroke-linejoin:miter;stroke-width:1.1;"/>
   </g>
   <g id="patch_17">
    <path clip-path="url(#p154cecd07e)" d="M 94.5018 134.955 
C 95.110441 134.955 95.694236 134.713184 96.12461 134.28281 
C 96.554984 133.852436 96.7968 133.268641 96.7968 132.66 
C 96.7968 132.051359 96.554984 131.467564 96.12461 131.03719 
C 95.694236 130.606816 95.110441 130.365 94.5018 130.365 
C 93.893159 130.365 93.309364 130.606816 92.87899 131.03719 
C 92.448616 131.467564 92.2068 132.051359 92.2068 132.66 
C 92.2068 133.268641 92.448616 133.852436 92.87899 134.28281 
C 93.309364 134.713184 93.893159 134.955 94.5018 134.955 
z
" style="fill:#ffffff;stroke:#000000;stroke-linejoin:miter;stroke-width:1.1;"/>
   </g>
   <g id="patch_18">
    <path clip-path="url(#p154cecd07e)" d="M 94.5018 104.355 
C 95.110441 104.355 95.694236 104.113184 96.12461 103.68281 
C 96.554984 103.252436 96.7968 102.668641 96.7968 102.06 
C 96.7968 101.451359 96.554984 100.867564 96.12461 100.43719 
C 95.694236 100.006816 95.110441 99.765 94.5018 99.765 
C 93.893159 99.765 93.309364 100.006816 92.87899 100.43719 
C 92.448616 100.867564 92.2068 101.451359 92.2068 102.06 
C 92.2068 102.668641 92.448616 103.252436 92.87899 103.68281 
C 93.309364 104.113184 93.893159 104.355 94.5018 104.355 
z
" style="fill:#ffffff;stroke:#000000;stroke-linejoin:miter;stroke-width:1.1;"/>
   </g>
   <g id="patch_19">
    <path clip-path="url(#p154cecd07e)" d="M 270.4518 141.075 
C 271.060441 141.075 271.644236 140.833184 272.07461 140.40281 
C 272.504984 139.972436 272.7468 139.388641 272.7468 138.78 
C 272.7468 138.171359 272.504984 137.587564 272.07461 137.15719 
C 271.644236 136.726816 271.060441 136.485 270.4518 136.485 
C 269.843159 136.485 269.259364 136.726816 268.82899 137.15719 
C 268.398616 137.587564 268.1568 138.171359 268.1568 138.78 
C 268.1568 139.388641 268.398616 139.972436 268.82899 140.40281 
C 269.259364 140.833184 269.843159 141.075 270.4518 141.075 
z
" style="fill:#ffffff;stroke:#000000;stroke-linejoin:miter;stroke-width:1.1;"/>
   </g>
   <g id="patch_20">
    <path clip-path="url(#p154cecd07e)" d="M 270.4518 104.355 
C 271.060441 104.355 271.644236 104.113184 272.07461 103.68281 
C 272.504984 103.252436 272.7468 102.668641 272.7468 102.06 
C 272.7468 101.451359 272.504984 100.867564 272.07461 100.43719 
C 271.644236 100.006816 271.060441 99.765 270.4518 99.765 
C 269.843159 99.765 269.259364 100.006816 268.82899 100.43719 
C 268.398616 100.867564 268.1568 101.451359 268.1568 102.06 
C 268.1568 102.668641 268.398616 103.252436 268.82899 103.68281 
C 269.259364 104.113184 269.843159 104.355 270.4518 104.355 
z
" style="fill:#ffffff;stroke:#000000;stroke-linejoin:miter;stroke-width:1.1;"/>
   </g>
   <g id="patch_21">
    <path clip-path="url(#p154cecd07e)" d="M 270.4518 116.595 
C 271.060441 116.595 271.644236 116.353184 272.07461 115.92281 
C 272.504984 115.492436 272.7468 114.908641 272.7468 114.3 
C 272.7468 113.691359 272.504984 113.107564 272.07461 112.67719 
C 271.644236 112.246816 271.060441 112.005 270.4518 112.005 
C 269.843159 112.005 269.259364 112.246816 268.82899 112.67719 
C 268.398616 113.107564 268.1568 113.691359 268.1568 114.3 
C 268.1568 114.908641 268.398616 115.492436 268.82899 115.92281 
C 269.259364 116.353184 269.843159 116.595 270.4518 116.595 
z
" style="fill:#ffffff;stroke:#000000;stroke-linejoin:miter;stroke-width:1.1;"/>
   </g>
   <g id="patch_22">
    <path clip-path="url(#p154cecd07e)" d="M 94.5018 58.455 
C 95.110441 58.455 95.694236 58.213184 96.12461 57.78281 
C 96.554984 57.352436 96.7968 56.768641 96.7968 56.16 
C 96.7968 55.551359 96.554984 54.967564 96.12461 54.53719 
C 95.694236 54.106816 95.110441 53.865 94.5018 53.865 
C 93.893159 53.865 93.309364 54.106816 92.87899 54.53719 
C 92.448616 54.967564 92.2068 55.551359 92.2068 56.16 
C 92.2068 56.768641 92.448616 57.352436 92.87899 57.78281 
C 93.309364 58.213184 93.893159 58.455 94.5018 58.455 
z
" style="fill:#ffffff;stroke:#000000;stroke-linejoin:miter;stroke-width:1.1;"/>
   </g>
   <g id="patch_23">
    <path clip-path="url(#p154cecd07e)" d="M 94.5018 27.855 
C 95.110441 27.855 95.694236 27.613184 96.12461 27.18281 
C 96.554984 26.752436 96.7968 26.168641 96.7968 25.56 
C 96.7968 24.951359 96.554984 24.367564 96.12461 23.93719 
C 95.694236 23.506816 95.110441 23.265 94.5018 23.265 
C 93.893159 23.265 93.309364 23.506816 92.87899 23.93719 
C 92.448616 24.367564 92.2068 24.951359 92.2068 25.56 
C 92.2068 26.168641 92.448616 26.752436 92.87899 27.18281 
C 93.309364 27.613184 93.893159 27.855 94.5018 27.855 
z
" style="fill:#ffffff;stroke:#000000;stroke-linejoin:miter;stroke-width:1.1;"/>
   </g>
   <g id="patch_24">
    <path clip-path="url(#p154cecd07e)" d="M 270.4518 64.575 
C 271.060441 64.575 271.644236 64.333184 272.07461 63.90281 
C 272.504984 63.472436 272.7468 62.888641 272.7468 62.28 
C 272.7468 61.671359 272.504984 61.087564 272.07461 60.65719 
C 271.644236 60.226816 271.060441 59.985 270.4518 59.985 
C 269.843159 59.985 269.259364 60.226816 268.82899 60.65719 
C 268.398616 61.087564 268.1568 61.671359 268.1568 62.28 
C 268.1568 62.888641 268.398616 63.472436 268.82899 63.90281 
C 269.259364 64.333184 269.843159 64.575 270.4518 64.575 
z
" style="fill:#ffffff;stroke:#000000;stroke-linejoin:miter;stroke-width:1.1;"/>
   </g>
   <g id="patch_25">
    <path clip-path="url(#p154cecd07e)" d="M 270.4518 27.855 
C 271.060441 27.855 271.644236 27.613184 272.07461 27.18281 
C 272.504984 26.752436 272.7468 26.168641 272.7468 25.56 
C 272.7468 24.951359 272.504984 24.367564 272.07461 23.93719 
C 271.644236 23.506816 271.060441 23.265 270.4518 23.265 
C 269.843159 23.265 269.259364 23.506816 268.82899 23.93719 
C 268.398616 24.367564 268.1568 24.951359 268.1568 25.56 
C 268.1568 26.168641 268.398616 26.752436 268.82899 27.18281 
C 269.259364 27.613184 269.843159 27.855 270.4518 27.855 
z
" style="fill:#ffffff;stroke:#000000;stroke-linejoin:miter;stroke-width:1.1;"/>
   </g>
   <g id="patch_26">
    <path clip-path="url(#p154cecd07e)" d="M 270.4518 40.095 
C 271.060441 40.095 271.644236 39.853184 272.07461 39.42281 
C 272.504984 38.992436 272.7468 38.408641 272.7468 37.8 
C 272.7468 37.191359 272.504984 36.607564 272.07461 36.17719 
C 271.644236 35.746816 271.060441 35.505 270.4518 35.505 
C 269.843159 35.505 269.259364 35.746816 268.82899 36.17719 
C 268.398616 36.607564 268.1568 37.191359 268.1568 37.8 
C 268.1568 38.408641 268.398616 38.992436 268.82899 39.42281 
C 269.259364 39.853184 269.843159 40.095 270.4518 40.095 
z
" style="fill:#ffffff;stroke:#000000;stroke-linejoin:miter;stroke-width:1.1;"/>
   </g>
   <g id="patch_27">
    <path clip-path="url(#p154cecd07e)" d="M 232.2018 116.595 
C 232.810441 116.595 233.394236 116.353184 233.82461 115.92281 
C 234.254984 115.492436 234.4968 114.908641 234.4968 114.3 
C 234.4968 113.691359 234.254984 113.107564 233.82461 112.67719 
C 233.394236 112.246816 232.810441 112.005 232.2018 112.005 
C 231.593159 112.005 231.009364 112.246816 230.57899 112.67719 
C 230.148616 113.107564 229.9068 113.691359 229.9068 114.3 
C 229.9068 114.908641 230.148616 115.492436 230.57899 115.92281 
C 231.009364 116.353184 231.593159 116.595 232.2018 116.595 
z
" style="stroke:#000000;stroke-linejoin:miter;stroke-width:1.1;"/>
   </g>
   <g id="patch_28">
    <path clip-path="url(#p154cecd07e)" d="M 232.2018 193.095 
C 232.810441 193.095 233.394236 192.853184 233.82461 192.42281 
C 234.254984 191.992436 234.4968 191.408641 234.4968 190.8 
C 234.4968 190.191359 234.254984 189.607564 233.82461 189.17719 
C 233.394236 188.746816 232.810441 188.505 232.2018 188.505 
C 231.593159 188.505 231.009364 188.746816 230.57899 189.17719 
C 230.148616 189.607564 229.9068 190.191359 229.9068 190.8 
C 229.9068 191.408641 230.148616 191.992436 230.57899 192.42281 
C 231.009364 192.853184 231.593159 193.095 232.2018 193.095 
z
" style="stroke:#000000;stroke-linejoin:miter;stroke-width:1.1;"/>
   </g>
   <g id="patch_29">
    <path clip-path="url(#p154cecd07e)" d="M 232.2018 269.595 
C 232.810441 269.595 233.394236 269.353184 233.82461 268.92281 
C 234.254984 268.492436 234.4968 267.908641 234.4968 267.3 
C 234.4968 266.691359 234.254984 266.107564 233.82461 265.67719 
C 233.394236 265.246816 232.810441 265.005 232.2018 265.005 
C 231.593159 265.005 231.009364 265.246816 230.57899 265.67719 
C 230.148616 266.107564 229.9068 266.691359 229.9068 267.3 
C 229.9068 267.908641 230.148616 268.492436 230.57899 268.92281 
C 231.009364 269.353184 231.593159 269.595 232.2018 269.595 
z
" style="stroke:#000000;stroke-linejoin:miter;stroke-width:1.1;"/>
   </g>
   <g id="patch_30">
    <path clip-path="url(#p154cecd07e)" d="M 270.4518 407.295 
C 271.060441 407.295 271.644236 407.053184 272.07461 406.62281 
C 272.504984 406.192436 272.7468 405.608641 272.7468 405 
C 272.7468 404.391359 272.504984 403.807564 272.07461 403.37719 
C 271.644236 402.946816 271.060441 402.705 270.4518 402.705 
C 269.843159 402.705 269.259364 402.946816 268.82899 403.37719 
C 268.398616 403.807564 268.1568 404.391359 268.1568 405 
C 268.1568 405.608641 268.398616 406.192436 268.82899 406.62281 
C 269.259364 407.053184 269.843159 407.295 270.4518 407.295 
z
" style="fill:#ffffff;stroke:#000000;stroke-linejoin:miter;stroke-width:1.1;"/>
   </g>
   <g id="patch_31">
    <path clip-path="url(#p154cecd07e)" d="M 270.4518 376.695 
C 271.060441 376.695 271.644236 376.453184 272.07461 376.02281 
C 272.504984 375.592436 272.7468 375.008641 272.7468 374.4 
C 272.7468 373.791359 272.504984 373.207564 272.07461 372.77719 
C 271.644236 372.346816 271.060441 372.105 270.4518 372.105 
C 269.843159 372.105 269.259364 372.346816 268.82899 372.77719 
C 268.398616 373.207564 268.1568 373.791359 268.1568 374.4 
C 268.1568 375.008641 268.398616 375.592436 268.82899 376.02281 
C 269.259364 376.453184 269.843159 376.695 270.4518 376.695 
z
" style="fill:#ffffff;stroke:#000000;stroke-linejoin:miter;stroke-width:1.1;"/>
   </g>
  </g>
 </g>
 <defs>
  <clipPath id="p154cecd07e">
   <rect height="420.444" width="366.8226" x="7.2" y="7.2"/>
  </clipPath>
 </defs>
</svg>
