<?xml version="1.0" standalone="no"?>
 <!DOCTYPE svg PUBLIC "-//W3C//DTD SVG 1.1//EN" 
 "http://www.w3.org/Graphics/SVG/1.1/DTD/svg11.dtd"> 
<svg
  xmlns:svg="http://www.w3.org/2000/svg"
  xmlns="http://www.w3.org/2000/svg"
  xmlns:xlink="http://www.w3.org/1999/xlink"
  version="1.1"
  width="297.0022mm" height="210.0072mm" viewBox="0.0000 0.0000 297.0022 210.0072">
<title>SVG Image created as main-Cmts_User.svg date 2023/11/06 17:58:07 </title>
  <desc>Image generated by PCBNEW </desc>
<g style="fill:#000000; fill-opacity:1.0000;stroke:#000000; stroke-opacity:1.0000;
stroke-linecap:round; stroke-linejoin:round;"
 transform="translate(0 0) scale(1 1)">
</g>
<g style="fill:#000000; fill-opacity:0.0; 
stroke:#000000; stroke-width:0.0000; stroke-opacity:1; 
stroke-linecap:round; stroke-linejoin:round;">
</g>
<g style="fill:#000000; fill-opacity:0.0; 
stroke:#000000; stroke-width:0.0510; stroke-opacity:1; 
stroke-linecap:round; stroke-linejoin:round;">
<g transform="rotate(-90.000000 60.9600 60.9600)">
<text x="60.9600" y="61.1600"
textLength="2.7397" font-size="0.5333" lengthAdjust="spacingAndGlyphs"
text-anchor="middle" opacity="0">KEEPOUT</text>
</g>
<g class="stroked-text"><desc>KEEPOUT</desc>
<path d="M61.1424 62.1981
L60.7424 62.1981
" />
<path d="M61.1424 61.9695
L60.9138 62.1410
" />
<path d="M60.7424 61.9695
L60.9710 62.1981
" />
<path d="M60.9329 61.7981
L60.9329 61.6648
" />
<path d="M61.1424 61.6076
L61.1424 61.7981
" />
<path d="M61.1424 61.7981
L60.7424 61.7981
" />
<path d="M60.7424 61.7981
L60.7424 61.6076
" />
<path d="M60.9329 61.4362
L60.9329 61.3029
" />
<path d="M61.1424 61.2457
L61.1424 61.4362
" />
<path d="M61.1424 61.4362
L60.7424 61.4362
" />
<path d="M60.7424 61.4362
L60.7424 61.2457
" />
<path d="M61.1424 61.0743
L60.7424 61.0743
" />
<path d="M60.7424 61.0743
L60.7424 60.9219
" />
<path d="M60.7424 60.9219
L60.7614 60.8838
" />
<path d="M60.7614 60.8838
L60.7805 60.8648
" />
<path d="M60.7805 60.8648
L60.8186 60.8457
" />
<path d="M60.8186 60.8457
L60.8757 60.8457
" />
<path d="M60.8757 60.8457
L60.9138 60.8648
" />
<path d="M60.9138 60.8648
L60.9329 60.8838
" />
<path d="M60.9329 60.8838
L60.9519 60.9219
" />
<path d="M60.9519 60.9219
L60.9519 61.0743
" />
<path d="M60.7424 60.5981
L60.7424 60.5219
" />
<path d="M60.7424 60.5219
L60.7614 60.4838
" />
<path d="M60.7614 60.4838
L60.7995 60.4457
" />
<path d="M60.7995 60.4457
L60.8757 60.4267
" />
<path d="M60.8757 60.4267
L61.0091 60.4267
" />
<path d="M61.0091 60.4267
L61.0853 60.4457
" />
<path d="M61.0853 60.4457
L61.1233 60.4838
" />
<path d="M61.1233 60.4838
L61.1424 60.5219
" />
<path d="M61.1424 60.5219
L61.1424 60.5981
" />
<path d="M61.1424 60.5981
L61.1233 60.6362
" />
<path d="M61.1233 60.6362
L61.0853 60.6743
" />
<path d="M61.0853 60.6743
L61.0091 60.6933
" />
<path d="M61.0091 60.6933
L60.8757 60.6933
" />
<path d="M60.8757 60.6933
L60.7995 60.6743
" />
<path d="M60.7995 60.6743
L60.7614 60.6362
" />
<path d="M60.7614 60.6362
L60.7424 60.5981
" />
<path d="M60.7424 60.2552
L61.0662 60.2552
" />
<path d="M61.0662 60.2552
L61.1043 60.2362
" />
<path d="M61.1043 60.2362
L61.1233 60.2171
" />
<path d="M61.1233 60.2171
L61.1424 60.1790
" />
<path d="M61.1424 60.1790
L61.1424 60.1029
" />
<path d="M61.1424 60.1029
L61.1233 60.0648
" />
<path d="M61.1233 60.0648
L61.1043 60.0457
" />
<path d="M61.1043 60.0457
L61.0662 60.0267
" />
<path d="M61.0662 60.0267
L60.7424 60.0267
" />
<path d="M60.7424 59.8933
L60.7424 59.6648
" />
<path d="M61.1424 59.7790
L60.7424 59.7790
" />
</g><g transform="rotate(-90.000000 60.9600 81.2800)">
<text x="60.9600" y="81.4800"
textLength="2.7397" font-size="0.5333" lengthAdjust="spacingAndGlyphs"
text-anchor="middle" opacity="0">KEEPOUT</text>
</g>
<g class="stroked-text"><desc>KEEPOUT</desc>
<path d="M61.1424 82.5181
L60.7424 82.5181
" />
<path d="M61.1424 82.2895
L60.9138 82.4610
" />
<path d="M60.7424 82.2895
L60.9710 82.5181
" />
<path d="M60.9329 82.1181
L60.9329 81.9848
" />
<path d="M61.1424 81.9276
L61.1424 82.1181
" />
<path d="M61.1424 82.1181
L60.7424 82.1181
" />
<path d="M60.7424 82.1181
L60.7424 81.9276
" />
<path d="M60.9329 81.7562
L60.9329 81.6229
" />
<path d="M61.1424 81.5657
L61.1424 81.7562
" />
<path d="M61.1424 81.7562
L60.7424 81.7562
" />
<path d="M60.7424 81.7562
L60.7424 81.5657
" />
<path d="M61.1424 81.3943
L60.7424 81.3943
" />
<path d="M60.7424 81.3943
L60.7424 81.2419
" />
<path d="M60.7424 81.2419
L60.7614 81.2038
" />
<path d="M60.7614 81.2038
L60.7805 81.1848
" />
<path d="M60.7805 81.1848
L60.8186 81.1657
" />
<path d="M60.8186 81.1657
L60.8757 81.1657
" />
<path d="M60.8757 81.1657
L60.9138 81.1848
" />
<path d="M60.9138 81.1848
L60.9329 81.2038
" />
<path d="M60.9329 81.2038
L60.9519 81.2419
" />
<path d="M60.9519 81.2419
L60.9519 81.3943
" />
<path d="M60.7424 80.9181
L60.7424 80.8419
" />
<path d="M60.7424 80.8419
L60.7614 80.8038
" />
<path d="M60.7614 80.8038
L60.7995 80.7657
" />
<path d="M60.7995 80.7657
L60.8757 80.7467
" />
<path d="M60.8757 80.7467
L61.0091 80.7467
" />
<path d="M61.0091 80.7467
L61.0853 80.7657
" />
<path d="M61.0853 80.7657
L61.1233 80.8038
" />
<path d="M61.1233 80.8038
L61.1424 80.8419
" />
<path d="M61.1424 80.8419
L61.1424 80.9181
" />
<path d="M61.1424 80.9181
L61.1233 80.9562
" />
<path d="M61.1233 80.9562
L61.0853 80.9943
" />
<path d="M61.0853 80.9943
L61.0091 81.0133
" />
<path d="M61.0091 81.0133
L60.8757 81.0133
" />
<path d="M60.8757 81.0133
L60.7995 80.9943
" />
<path d="M60.7995 80.9943
L60.7614 80.9562
" />
<path d="M60.7614 80.9562
L60.7424 80.9181
" />
<path d="M60.7424 80.5752
L61.0662 80.5752
" />
<path d="M61.0662 80.5752
L61.1043 80.5562
" />
<path d="M61.1043 80.5562
L61.1233 80.5371
" />
<path d="M61.1233 80.5371
L61.1424 80.4990
" />
<path d="M61.1424 80.4990
L61.1424 80.4229
" />
<path d="M61.1424 80.4229
L61.1233 80.3848
" />
<path d="M61.1233 80.3848
L61.1043 80.3657
" />
<path d="M61.1043 80.3657
L61.0662 80.3467
" />
<path d="M61.0662 80.3467
L60.7424 80.3467
" />
<path d="M60.7424 80.2133
L60.7424 79.9848
" />
<path d="M61.1424 80.0990
L60.7424 80.0990
" />
</g><g transform="rotate(-90.000000 60.9600 101.6000)">
<text x="60.9600" y="101.8000"
textLength="2.7397" font-size="0.5333" lengthAdjust="spacingAndGlyphs"
text-anchor="middle" opacity="0">KEEPOUT</text>
</g>
<g class="stroked-text"><desc>KEEPOUT</desc>
<path d="M61.1424 102.8381
L60.7424 102.8381
" />
<path d="M61.1424 102.6095
L60.9138 102.7810
" />
<path d="M60.7424 102.6095
L60.9710 102.8381
" />
<path d="M60.9329 102.4381
L60.9329 102.3048
" />
<path d="M61.1424 102.2476
L61.1424 102.4381
" />
<path d="M61.1424 102.4381
L60.7424 102.4381
" />
<path d="M60.7424 102.4381
L60.7424 102.2476
" />
<path d="M60.9329 102.0762
L60.9329 101.9429
" />
<path d="M61.1424 101.8857
L61.1424 102.0762
" />
<path d="M61.1424 102.0762
L60.7424 102.0762
" />
<path d="M60.7424 102.0762
L60.7424 101.8857
" />
<path d="M61.1424 101.7143
L60.7424 101.7143
" />
<path d="M60.7424 101.7143
L60.7424 101.5619
" />
<path d="M60.7424 101.5619
L60.7614 101.5238
" />
<path d="M60.7614 101.5238
L60.7805 101.5048
" />
<path d="M60.7805 101.5048
L60.8186 101.4857
" />
<path d="M60.8186 101.4857
L60.8757 101.4857
" />
<path d="M60.8757 101.4857
L60.9138 101.5048
" />
<path d="M60.9138 101.5048
L60.9329 101.5238
" />
<path d="M60.9329 101.5238
L60.9519 101.5619
" />
<path d="M60.9519 101.5619
L60.9519 101.7143
" />
<path d="M60.7424 101.2381
L60.7424 101.1619
" />
<path d="M60.7424 101.1619
L60.7614 101.1238
" />
<path d="M60.7614 101.1238
L60.7995 101.0857
" />
<path d="M60.7995 101.0857
L60.8757 101.0667
" />
<path d="M60.8757 101.0667
L61.0091 101.0667
" />
<path d="M61.0091 101.0667
L61.0853 101.0857
" />
<path d="M61.0853 101.0857
L61.1233 101.1238
" />
<path d="M61.1233 101.1238
L61.1424 101.1619
" />
<path d="M61.1424 101.1619
L61.1424 101.2381
" />
<path d="M61.1424 101.2381
L61.1233 101.2762
" />
<path d="M61.1233 101.2762
L61.0853 101.3143
" />
<path d="M61.0853 101.3143
L61.0091 101.3333
" />
<path d="M61.0091 101.3333
L60.8757 101.3333
" />
<path d="M60.8757 101.3333
L60.7995 101.3143
" />
<path d="M60.7995 101.3143
L60.7614 101.2762
" />
<path d="M60.7614 101.2762
L60.7424 101.2381
" />
<path d="M60.7424 100.8952
L61.0662 100.8952
" />
<path d="M61.0662 100.8952
L61.1043 100.8762
" />
<path d="M61.1043 100.8762
L61.1233 100.8571
" />
<path d="M61.1233 100.8571
L61.1424 100.8190
" />
<path d="M61.1424 100.8190
L61.1424 100.7429
" />
<path d="M61.1424 100.7429
L61.1233 100.7048
" />
<path d="M61.1233 100.7048
L61.1043 100.6857
" />
<path d="M61.1043 100.6857
L61.0662 100.6667
" />
<path d="M61.0662 100.6667
L60.7424 100.6667
" />
<path d="M60.7424 100.5333
L60.7424 100.3048
" />
<path d="M61.1424 100.4190
L60.7424 100.4190
" />
</g><g transform="rotate(-90.000000 60.9600 121.9200)">
<text x="60.9600" y="122.1200"
textLength="2.7397" font-size="0.5333" lengthAdjust="spacingAndGlyphs"
text-anchor="middle" opacity="0">KEEPOUT</text>
</g>
<g class="stroked-text"><desc>KEEPOUT</desc>
<path d="M61.1424 123.1581
L60.7424 123.1581
" />
<path d="M61.1424 122.9295
L60.9138 123.1010
" />
<path d="M60.7424 122.9295
L60.9710 123.1581
" />
<path d="M60.9329 122.7581
L60.9329 122.6248
" />
<path d="M61.1424 122.5676
L61.1424 122.7581
" />
<path d="M61.1424 122.7581
L60.7424 122.7581
" />
<path d="M60.7424 122.7581
L60.7424 122.5676
" />
<path d="M60.9329 122.3962
L60.9329 122.2629
" />
<path d="M61.1424 122.2057
L61.1424 122.3962
" />
<path d="M61.1424 122.3962
L60.7424 122.3962
" />
<path d="M60.7424 122.3962
L60.7424 122.2057
" />
<path d="M61.1424 122.0343
L60.7424 122.0343
" />
<path d="M60.7424 122.0343
L60.7424 121.8819
" />
<path d="M60.7424 121.8819
L60.7614 121.8438
" />
<path d="M60.7614 121.8438
L60.7805 121.8248
" />
<path d="M60.7805 121.8248
L60.8186 121.8057
" />
<path d="M60.8186 121.8057
L60.8757 121.8057
" />
<path d="M60.8757 121.8057
L60.9138 121.8248
" />
<path d="M60.9138 121.8248
L60.9329 121.8438
" />
<path d="M60.9329 121.8438
L60.9519 121.8819
" />
<path d="M60.9519 121.8819
L60.9519 122.0343
" />
<path d="M60.7424 121.5581
L60.7424 121.4819
" />
<path d="M60.7424 121.4819
L60.7614 121.4438
" />
<path d="M60.7614 121.4438
L60.7995 121.4057
" />
<path d="M60.7995 121.4057
L60.8757 121.3867
" />
<path d="M60.8757 121.3867
L61.0091 121.3867
" />
<path d="M61.0091 121.3867
L61.0853 121.4057
" />
<path d="M61.0853 121.4057
L61.1233 121.4438
" />
<path d="M61.1233 121.4438
L61.1424 121.4819
" />
<path d="M61.1424 121.4819
L61.1424 121.5581
" />
<path d="M61.1424 121.5581
L61.1233 121.5962
" />
<path d="M61.1233 121.5962
L61.0853 121.6343
" />
<path d="M61.0853 121.6343
L61.0091 121.6533
" />
<path d="M61.0091 121.6533
L60.8757 121.6533
" />
<path d="M60.8757 121.6533
L60.7995 121.6343
" />
<path d="M60.7995 121.6343
L60.7614 121.5962
" />
<path d="M60.7614 121.5962
L60.7424 121.5581
" />
<path d="M60.7424 121.2152
L61.0662 121.2152
" />
<path d="M61.0662 121.2152
L61.1043 121.1962
" />
<path d="M61.1043 121.1962
L61.1233 121.1771
" />
<path d="M61.1233 121.1771
L61.1424 121.1390
" />
<path d="M61.1424 121.1390
L61.1424 121.0629
" />
<path d="M61.1424 121.0629
L61.1233 121.0248
" />
<path d="M61.1233 121.0248
L61.1043 121.0057
" />
<path d="M61.1043 121.0057
L61.0662 120.9867
" />
<path d="M61.0662 120.9867
L60.7424 120.9867
" />
<path d="M60.7424 120.8533
L60.7424 120.6248
" />
<path d="M61.1424 120.7390
L60.7424 120.7390
" />
</g><g transform="rotate(-90.000000 60.9600 71.1200)">
<text x="60.9600" y="71.3200"
textLength="2.7397" font-size="0.5333" lengthAdjust="spacingAndGlyphs"
text-anchor="middle" opacity="0">KEEPOUT</text>
</g>
<g class="stroked-text"><desc>KEEPOUT</desc>
<path d="M61.1424 72.3581
L60.7424 72.3581
" />
<path d="M61.1424 72.1295
L60.9138 72.3010
" />
<path d="M60.7424 72.1295
L60.9710 72.3581
" />
<path d="M60.9329 71.9581
L60.9329 71.8248
" />
<path d="M61.1424 71.7676
L61.1424 71.9581
" />
<path d="M61.1424 71.9581
L60.7424 71.9581
" />
<path d="M60.7424 71.9581
L60.7424 71.7676
" />
<path d="M60.9329 71.5962
L60.9329 71.4629
" />
<path d="M61.1424 71.4057
L61.1424 71.5962
" />
<path d="M61.1424 71.5962
L60.7424 71.5962
" />
<path d="M60.7424 71.5962
L60.7424 71.4057
" />
<path d="M61.1424 71.2343
L60.7424 71.2343
" />
<path d="M60.7424 71.2343
L60.7424 71.0819
" />
<path d="M60.7424 71.0819
L60.7614 71.0438
" />
<path d="M60.7614 71.0438
L60.7805 71.0248
" />
<path d="M60.7805 71.0248
L60.8186 71.0057
" />
<path d="M60.8186 71.0057
L60.8757 71.0057
" />
<path d="M60.8757 71.0057
L60.9138 71.0248
" />
<path d="M60.9138 71.0248
L60.9329 71.0438
" />
<path d="M60.9329 71.0438
L60.9519 71.0819
" />
<path d="M60.9519 71.0819
L60.9519 71.2343
" />
<path d="M60.7424 70.7581
L60.7424 70.6819
" />
<path d="M60.7424 70.6819
L60.7614 70.6438
" />
<path d="M60.7614 70.6438
L60.7995 70.6057
" />
<path d="M60.7995 70.6057
L60.8757 70.5867
" />
<path d="M60.8757 70.5867
L61.0091 70.5867
" />
<path d="M61.0091 70.5867
L61.0853 70.6057
" />
<path d="M61.0853 70.6057
L61.1233 70.6438
" />
<path d="M61.1233 70.6438
L61.1424 70.6819
" />
<path d="M61.1424 70.6819
L61.1424 70.7581
" />
<path d="M61.1424 70.7581
L61.1233 70.7962
" />
<path d="M61.1233 70.7962
L61.0853 70.8343
" />
<path d="M61.0853 70.8343
L61.0091 70.8533
" />
<path d="M61.0091 70.8533
L60.8757 70.8533
" />
<path d="M60.8757 70.8533
L60.7995 70.8343
" />
<path d="M60.7995 70.8343
L60.7614 70.7962
" />
<path d="M60.7614 70.7962
L60.7424 70.7581
" />
<path d="M60.7424 70.4152
L61.0662 70.4152
" />
<path d="M61.0662 70.4152
L61.1043 70.3962
" />
<path d="M61.1043 70.3962
L61.1233 70.3771
" />
<path d="M61.1233 70.3771
L61.1424 70.3390
" />
<path d="M61.1424 70.3390
L61.1424 70.2629
" />
<path d="M61.1424 70.2629
L61.1233 70.2248
" />
<path d="M61.1233 70.2248
L61.1043 70.2057
" />
<path d="M61.1043 70.2057
L61.0662 70.1867
" />
<path d="M61.0662 70.1867
L60.7424 70.1867
" />
<path d="M60.7424 70.0533
L60.7424 69.8248
" />
<path d="M61.1424 69.9390
L60.7424 69.9390
" />
</g><g transform="rotate(-90.000000 60.9600 91.4400)">
<text x="60.9600" y="91.6400"
textLength="2.7397" font-size="0.5333" lengthAdjust="spacingAndGlyphs"
text-anchor="middle" opacity="0">KEEPOUT</text>
</g>
<g class="stroked-text"><desc>KEEPOUT</desc>
<path d="M61.1424 92.6781
L60.7424 92.6781
" />
<path d="M61.1424 92.4495
L60.9138 92.6210
" />
<path d="M60.7424 92.4495
L60.9710 92.6781
" />
<path d="M60.9329 92.2781
L60.9329 92.1448
" />
<path d="M61.1424 92.0876
L61.1424 92.2781
" />
<path d="M61.1424 92.2781
L60.7424 92.2781
" />
<path d="M60.7424 92.2781
L60.7424 92.0876
" />
<path d="M60.9329 91.9162
L60.9329 91.7829
" />
<path d="M61.1424 91.7257
L61.1424 91.9162
" />
<path d="M61.1424 91.9162
L60.7424 91.9162
" />
<path d="M60.7424 91.9162
L60.7424 91.7257
" />
<path d="M61.1424 91.5543
L60.7424 91.5543
" />
<path d="M60.7424 91.5543
L60.7424 91.4019
" />
<path d="M60.7424 91.4019
L60.7614 91.3638
" />
<path d="M60.7614 91.3638
L60.7805 91.3448
" />
<path d="M60.7805 91.3448
L60.8186 91.3257
" />
<path d="M60.8186 91.3257
L60.8757 91.3257
" />
<path d="M60.8757 91.3257
L60.9138 91.3448
" />
<path d="M60.9138 91.3448
L60.9329 91.3638
" />
<path d="M60.9329 91.3638
L60.9519 91.4019
" />
<path d="M60.9519 91.4019
L60.9519 91.5543
" />
<path d="M60.7424 91.0781
L60.7424 91.0019
" />
<path d="M60.7424 91.0019
L60.7614 90.9638
" />
<path d="M60.7614 90.9638
L60.7995 90.9257
" />
<path d="M60.7995 90.9257
L60.8757 90.9067
" />
<path d="M60.8757 90.9067
L61.0091 90.9067
" />
<path d="M61.0091 90.9067
L61.0853 90.9257
" />
<path d="M61.0853 90.9257
L61.1233 90.9638
" />
<path d="M61.1233 90.9638
L61.1424 91.0019
" />
<path d="M61.1424 91.0019
L61.1424 91.0781
" />
<path d="M61.1424 91.0781
L61.1233 91.1162
" />
<path d="M61.1233 91.1162
L61.0853 91.1543
" />
<path d="M61.0853 91.1543
L61.0091 91.1733
" />
<path d="M61.0091 91.1733
L60.8757 91.1733
" />
<path d="M60.8757 91.1733
L60.7995 91.1543
" />
<path d="M60.7995 91.1543
L60.7614 91.1162
" />
<path d="M60.7614 91.1162
L60.7424 91.0781
" />
<path d="M60.7424 90.7352
L61.0662 90.7352
" />
<path d="M61.0662 90.7352
L61.1043 90.7162
" />
<path d="M61.1043 90.7162
L61.1233 90.6971
" />
<path d="M61.1233 90.6971
L61.1424 90.6590
" />
<path d="M61.1424 90.6590
L61.1424 90.5829
" />
<path d="M61.1424 90.5829
L61.1233 90.5448
" />
<path d="M61.1233 90.5448
L61.1043 90.5257
" />
<path d="M61.1043 90.5257
L61.0662 90.5067
" />
<path d="M61.0662 90.5067
L60.7424 90.5067
" />
<path d="M60.7424 90.3733
L60.7424 90.1448
" />
<path d="M61.1424 90.2590
L60.7424 90.2590
" />
</g><g transform="rotate(-90.000000 60.9600 111.7600)">
<text x="60.9600" y="111.9600"
textLength="2.7397" font-size="0.5333" lengthAdjust="spacingAndGlyphs"
text-anchor="middle" opacity="0">KEEPOUT</text>
</g>
<g class="stroked-text"><desc>KEEPOUT</desc>
<path d="M61.1424 112.9981
L60.7424 112.9981
" />
<path d="M61.1424 112.7695
L60.9138 112.9410
" />
<path d="M60.7424 112.7695
L60.9710 112.9981
" />
<path d="M60.9329 112.5981
L60.9329 112.4648
" />
<path d="M61.1424 112.4076
L61.1424 112.5981
" />
<path d="M61.1424 112.5981
L60.7424 112.5981
" />
<path d="M60.7424 112.5981
L60.7424 112.4076
" />
<path d="M60.9329 112.2362
L60.9329 112.1029
" />
<path d="M61.1424 112.0457
L61.1424 112.2362
" />
<path d="M61.1424 112.2362
L60.7424 112.2362
" />
<path d="M60.7424 112.2362
L60.7424 112.0457
" />
<path d="M61.1424 111.8743
L60.7424 111.8743
" />
<path d="M60.7424 111.8743
L60.7424 111.7219
" />
<path d="M60.7424 111.7219
L60.7614 111.6838
" />
<path d="M60.7614 111.6838
L60.7805 111.6648
" />
<path d="M60.7805 111.6648
L60.8186 111.6457
" />
<path d="M60.8186 111.6457
L60.8757 111.6457
" />
<path d="M60.8757 111.6457
L60.9138 111.6648
" />
<path d="M60.9138 111.6648
L60.9329 111.6838
" />
<path d="M60.9329 111.6838
L60.9519 111.7219
" />
<path d="M60.9519 111.7219
L60.9519 111.8743
" />
<path d="M60.7424 111.3981
L60.7424 111.3219
" />
<path d="M60.7424 111.3219
L60.7614 111.2838
" />
<path d="M60.7614 111.2838
L60.7995 111.2457
" />
<path d="M60.7995 111.2457
L60.8757 111.2267
" />
<path d="M60.8757 111.2267
L61.0091 111.2267
" />
<path d="M61.0091 111.2267
L61.0853 111.2457
" />
<path d="M61.0853 111.2457
L61.1233 111.2838
" />
<path d="M61.1233 111.2838
L61.1424 111.3219
" />
<path d="M61.1424 111.3219
L61.1424 111.3981
" />
<path d="M61.1424 111.3981
L61.1233 111.4362
" />
<path d="M61.1233 111.4362
L61.0853 111.4743
" />
<path d="M61.0853 111.4743
L61.0091 111.4933
" />
<path d="M61.0091 111.4933
L60.8757 111.4933
" />
<path d="M60.8757 111.4933
L60.7995 111.4743
" />
<path d="M60.7995 111.4743
L60.7614 111.4362
" />
<path d="M60.7614 111.4362
L60.7424 111.3981
" />
<path d="M60.7424 111.0552
L61.0662 111.0552
" />
<path d="M61.0662 111.0552
L61.1043 111.0362
" />
<path d="M61.1043 111.0362
L61.1233 111.0171
" />
<path d="M61.1233 111.0171
L61.1424 110.9790
" />
<path d="M61.1424 110.9790
L61.1424 110.9029
" />
<path d="M61.1424 110.9029
L61.1233 110.8648
" />
<path d="M61.1233 110.8648
L61.1043 110.8457
" />
<path d="M61.1043 110.8457
L61.0662 110.8267
" />
<path d="M61.0662 110.8267
L60.7424 110.8267
" />
<path d="M60.7424 110.6933
L60.7424 110.4648
" />
<path d="M61.1424 110.5790
L60.7424 110.5790
" />
</g><g transform="rotate(-90.000000 60.9600 132.0800)">
<text x="60.9600" y="132.2800"
textLength="2.7397" font-size="0.5333" lengthAdjust="spacingAndGlyphs"
text-anchor="middle" opacity="0">KEEPOUT</text>
</g>
<g class="stroked-text"><desc>KEEPOUT</desc>
<path d="M61.1424 133.3181
L60.7424 133.3181
" />
<path d="M61.1424 133.0895
L60.9138 133.2610
" />
<path d="M60.7424 133.0895
L60.9710 133.3181
" />
<path d="M60.9329 132.9181
L60.9329 132.7848
" />
<path d="M61.1424 132.7276
L61.1424 132.9181
" />
<path d="M61.1424 132.9181
L60.7424 132.9181
" />
<path d="M60.7424 132.9181
L60.7424 132.7276
" />
<path d="M60.9329 132.5562
L60.9329 132.4229
" />
<path d="M61.1424 132.3657
L61.1424 132.5562
" />
<path d="M61.1424 132.5562
L60.7424 132.5562
" />
<path d="M60.7424 132.5562
L60.7424 132.3657
" />
<path d="M61.1424 132.1943
L60.7424 132.1943
" />
<path d="M60.7424 132.1943
L60.7424 132.0419
" />
<path d="M60.7424 132.0419
L60.7614 132.0038
" />
<path d="M60.7614 132.0038
L60.7805 131.9848
" />
<path d="M60.7805 131.9848
L60.8186 131.9657
" />
<path d="M60.8186 131.9657
L60.8757 131.9657
" />
<path d="M60.8757 131.9657
L60.9138 131.9848
" />
<path d="M60.9138 131.9848
L60.9329 132.0038
" />
<path d="M60.9329 132.0038
L60.9519 132.0419
" />
<path d="M60.9519 132.0419
L60.9519 132.1943
" />
<path d="M60.7424 131.7181
L60.7424 131.6419
" />
<path d="M60.7424 131.6419
L60.7614 131.6038
" />
<path d="M60.7614 131.6038
L60.7995 131.5657
" />
<path d="M60.7995 131.5657
L60.8757 131.5467
" />
<path d="M60.8757 131.5467
L61.0091 131.5467
" />
<path d="M61.0091 131.5467
L61.0853 131.5657
" />
<path d="M61.0853 131.5657
L61.1233 131.6038
" />
<path d="M61.1233 131.6038
L61.1424 131.6419
" />
<path d="M61.1424 131.6419
L61.1424 131.7181
" />
<path d="M61.1424 131.7181
L61.1233 131.7562
" />
<path d="M61.1233 131.7562
L61.0853 131.7943
" />
<path d="M61.0853 131.7943
L61.0091 131.8133
" />
<path d="M61.0091 131.8133
L60.8757 131.8133
" />
<path d="M60.8757 131.8133
L60.7995 131.7943
" />
<path d="M60.7995 131.7943
L60.7614 131.7562
" />
<path d="M60.7614 131.7562
L60.7424 131.7181
" />
<path d="M60.7424 131.3752
L61.0662 131.3752
" />
<path d="M61.0662 131.3752
L61.1043 131.3562
" />
<path d="M61.1043 131.3562
L61.1233 131.3371
" />
<path d="M61.1233 131.3371
L61.1424 131.2990
" />
<path d="M61.1424 131.2990
L61.1424 131.2229
" />
<path d="M61.1424 131.2229
L61.1233 131.1848
" />
<path d="M61.1233 131.1848
L61.1043 131.1657
" />
<path d="M61.1043 131.1657
L61.0662 131.1467
" />
<path d="M61.0662 131.1467
L60.7424 131.1467
" />
<path d="M60.7424 131.0133
L60.7424 130.7848
" />
<path d="M61.1424 130.8990
L60.7424 130.8990
" />
</g><text x="81.2800" y="147.5200"
textLength="2.7397" font-size="0.5333" lengthAdjust="spacingAndGlyphs"
text-anchor="middle" opacity="0">KEEPOUT</text>
<g class="stroked-text"><desc>KEEPOUT</desc>
<path d="M80.0419 147.5024
L80.0419 147.1024
" />
<path d="M80.2705 147.5024
L80.0990 147.2738
" />
<path d="M80.2705 147.1024
L80.0419 147.3310
" />
<path d="M80.4419 147.2929
L80.5752 147.2929
" />
<path d="M80.6324 147.5024
L80.4419 147.5024
" />
<path d="M80.4419 147.5024
L80.4419 147.1024
" />
<path d="M80.4419 147.1024
L80.6324 147.1024
" />
<path d="M80.8038 147.2929
L80.9371 147.2929
" />
<path d="M80.9943 147.5024
L80.8038 147.5024
" />
<path d="M80.8038 147.5024
L80.8038 147.1024
" />
<path d="M80.8038 147.1024
L80.9943 147.1024
" />
<path d="M81.1657 147.5024
L81.1657 147.1024
" />
<path d="M81.1657 147.1024
L81.3181 147.1024
" />
<path d="M81.3181 147.1024
L81.3562 147.1214
" />
<path d="M81.3562 147.1214
L81.3752 147.1405
" />
<path d="M81.3752 147.1405
L81.3943 147.1786
" />
<path d="M81.3943 147.1786
L81.3943 147.2357
" />
<path d="M81.3943 147.2357
L81.3752 147.2738
" />
<path d="M81.3752 147.2738
L81.3562 147.2929
" />
<path d="M81.3562 147.2929
L81.3181 147.3119
" />
<path d="M81.3181 147.3119
L81.1657 147.3119
" />
<path d="M81.6419 147.1024
L81.7181 147.1024
" />
<path d="M81.7181 147.1024
L81.7562 147.1214
" />
<path d="M81.7562 147.1214
L81.7943 147.1595
" />
<path d="M81.7943 147.1595
L81.8133 147.2357
" />
<path d="M81.8133 147.2357
L81.8133 147.3691
" />
<path d="M81.8133 147.3691
L81.7943 147.4453
" />
<path d="M81.7943 147.4453
L81.7562 147.4833
" />
<path d="M81.7562 147.4833
L81.7181 147.5024
" />
<path d="M81.7181 147.5024
L81.6419 147.5024
" />
<path d="M81.6419 147.5024
L81.6038 147.4833
" />
<path d="M81.6038 147.4833
L81.5657 147.4453
" />
<path d="M81.5657 147.4453
L81.5467 147.3691
" />
<path d="M81.5467 147.3691
L81.5467 147.2357
" />
<path d="M81.5467 147.2357
L81.5657 147.1595
" />
<path d="M81.5657 147.1595
L81.6038 147.1214
" />
<path d="M81.6038 147.1214
L81.6419 147.1024
" />
<path d="M81.9848 147.1024
L81.9848 147.4262
" />
<path d="M81.9848 147.4262
L82.0038 147.4643
" />
<path d="M82.0038 147.4643
L82.0229 147.4833
" />
<path d="M82.0229 147.4833
L82.0610 147.5024
" />
<path d="M82.0610 147.5024
L82.1371 147.5024
" />
<path d="M82.1371 147.5024
L82.1752 147.4833
" />
<path d="M82.1752 147.4833
L82.1943 147.4643
" />
<path d="M82.1943 147.4643
L82.2133 147.4262
" />
<path d="M82.2133 147.4262
L82.2133 147.1024
" />
<path d="M82.3467 147.1024
L82.5752 147.1024
" />
<path d="M82.4610 147.5024
L82.4610 147.1024
" />
</g><g >
</g>
<g >
</g>
<g >
</g>
<g >
</g>
<g >
</g>
<g >
</g>
<g >
</g>
<g >
</g>
<g >
</g>
<g >
</g>
<g >
</g>
<g >
</g>
<g >
</g>
<g >
</g>
<g >
</g>
<g >
</g>
<g >
</g>
<g >
</g>
<g >
</g>
<g >
</g>
<g >
</g>
<g >
</g>
<g >
</g>
<g >
</g>
<g >
</g>
<g >
</g>
<g >
</g>
<g >
</g>
<g >
</g>
<g >
</g>
<g >
</g>
<g >
</g>
<g >
</g>
<g >
</g>
<g >
</g>
<g >
</g>
<g >
</g>
<g >
</g>
<g >
</g>
<g >
</g>
<g >
</g>
<g >
</g>
<g >
</g>
<g >
</g>
<g >
</g>
<g >
</g>
<g >
</g>
<g >
</g>
<g >
</g>
<g >
</g>
<g >
</g>
<g >
</g>
<g >
</g>
<g >
</g>
<g >
</g>
<g >
</g>
<g >
</g>
<g >
</g>
<g >
</g>
<g >
</g>
<g >
</g>
<g >
</g>
<g >
</g>
<g >
</g>
<g >
</g>
<g >
</g>
<g >
</g>
<g >
</g>
<g >
</g>
<g >
</g>
<g >
</g>
<g >
</g>
<g >
</g>
<g >
</g>
<g >
</g>
<g >
</g>
<g >
</g>
<g >
</g>
<g >
</g>
<g >
</g>
<g >
</g>
<g >
</g>
</g> 
</svg>
