<?xml version="1.0" standalone="no"?>
 <!DOCTYPE svg PUBLIC "-//W3C//DTD SVG 1.1//EN" 
 "http://www.w3.org/Graphics/SVG/1.1/DTD/svg11.dtd"> 
<svg
  xmlns:svg="http://www.w3.org/2000/svg"
  xmlns="http://www.w3.org/2000/svg"
  xmlns:xlink="http://www.w3.org/1999/xlink"
  version="1.1"
  width="297.0022mm" height="210.0072mm" viewBox="0.0000 0.0000 297.0022 210.0072">
<title>SVG Image created as mount-F_SilkS.svg date 2023/11/07 17:54:11 </title>
  <desc>Image generated by PCBNEW </desc>
<g style="fill:#000000; fill-opacity:1.0000;stroke:#000000; stroke-opacity:1.0000;
stroke-linecap:round; stroke-linejoin:round;"
 transform="translate(0 0) scale(1 1)">
</g>
<g style="fill:#000000; fill-opacity:0.0; 
stroke:#000000; stroke-width:0.0000; stroke-opacity:1; 
stroke-linecap:round; stroke-linejoin:round;">
</g>
<g style="fill:#000000; fill-opacity:0.0; 
stroke:#000000; stroke-width:0.1500; stroke-opacity:1; 
stroke-linecap:round; stroke-linejoin:round;">
<text x="53.0860" y="89.4000"
textLength="2.2024" font-size="1.3333" lengthAdjust="spacingAndGlyphs"
text-anchor="middle" opacity="0">D1</text>
<g class="stroked-text"><desc>D1</desc>
<path d="M52.3479 89.3548
L52.3479 88.3548
" />
<path d="M52.3479 88.3548
L52.5860 88.3548
" />
<path d="M52.5860 88.3548
L52.7289 88.4024
" />
<path d="M52.7289 88.4024
L52.8241 88.4977
" />
<path d="M52.8241 88.4977
L52.8717 88.5929
" />
<path d="M52.8717 88.5929
L52.9193 88.7834
" />
<path d="M52.9193 88.7834
L52.9193 88.9262
" />
<path d="M52.9193 88.9262
L52.8717 89.1167
" />
<path d="M52.8717 89.1167
L52.8241 89.2120
" />
<path d="M52.8241 89.2120
L52.7289 89.3072
" />
<path d="M52.7289 89.3072
L52.5860 89.3548
" />
<path d="M52.5860 89.3548
L52.3479 89.3548
" />
<path d="M53.8717 89.3548
L53.3003 89.3548
" />
<path d="M53.5860 89.3548
L53.5860 88.3548
" />
<path d="M53.5860 88.3548
L53.4908 88.4977
" />
<path d="M53.4908 88.4977
L53.3955 88.5929
" />
<path d="M53.3955 88.5929
L53.3003 88.6405
" />
</g><text x="58.8350" y="91.1600"
textLength="1.2500" font-size="1.3333" lengthAdjust="spacingAndGlyphs"
text-anchor="middle" opacity="0">K</text>
<g class="stroked-text"><desc>K</desc>
<path d="M58.5731 91.1148
L58.5731 90.1148
" />
<path d="M59.1445 91.1148
L58.7160 90.5434
" />
<path d="M59.1445 90.1148
L58.5731 90.6862
" />
</g><text x="53.3520" y="96.2580"
textLength="2.2024" font-size="1.3333" lengthAdjust="spacingAndGlyphs"
text-anchor="middle" opacity="0">D2</text>
<g class="stroked-text"><desc>D2</desc>
<path d="M52.6139 96.2128
L52.6139 95.2128
" />
<path d="M52.6139 95.2128
L52.8520 95.2128
" />
<path d="M52.8520 95.2128
L52.9949 95.2604
" />
<path d="M52.9949 95.2604
L53.0901 95.3557
" />
<path d="M53.0901 95.3557
L53.1377 95.4509
" />
<path d="M53.1377 95.4509
L53.1853 95.6414
" />
<path d="M53.1853 95.6414
L53.1853 95.7842
" />
<path d="M53.1853 95.7842
L53.1377 95.9747
" />
<path d="M53.1377 95.9747
L53.0901 96.0700
" />
<path d="M53.0901 96.0700
L52.9949 96.1652
" />
<path d="M52.9949 96.1652
L52.8520 96.2128
" />
<path d="M52.8520 96.2128
L52.6139 96.2128
" />
<path d="M53.5663 95.3081
L53.6139 95.2604
" />
<path d="M53.6139 95.2604
L53.7091 95.2128
" />
<path d="M53.7091 95.2128
L53.9472 95.2128
" />
<path d="M53.9472 95.2128
L54.0425 95.2604
" />
<path d="M54.0425 95.2604
L54.0901 95.3081
" />
<path d="M54.0901 95.3081
L54.1377 95.4033
" />
<path d="M54.1377 95.4033
L54.1377 95.4985
" />
<path d="M54.1377 95.4985
L54.0901 95.6414
" />
<path d="M54.0901 95.6414
L53.5187 96.2128
" />
<path d="M53.5187 96.2128
L54.1377 96.2128
" />
</g><text x="47.8100" y="94.2100"
textLength="1.2500" font-size="1.3333" lengthAdjust="spacingAndGlyphs"
text-anchor="middle" opacity="0">K</text>
<g class="stroked-text"><desc>K</desc>
<path d="M47.5481 94.1648
L47.5481 93.1648
" />
<path d="M48.1195 94.1648
L47.6910 93.5934
" />
<path d="M48.1195 93.1648
L47.5481 93.7362
" />
</g><text x="39.6900" y="46.7700"
textLength="1.9643" font-size="1.3333" lengthAdjust="spacingAndGlyphs"
text-anchor="middle" opacity="0">J1</text>
<g class="stroked-text"><desc>J1</desc>
<path d="M39.3567 45.7248
L39.3567 46.4391
" />
<path d="M39.3567 46.4391
L39.3090 46.5820
" />
<path d="M39.3090 46.5820
L39.2138 46.6772
" />
<path d="M39.2138 46.6772
L39.0710 46.7248
" />
<path d="M39.0710 46.7248
L38.9757 46.7248
" />
<path d="M40.3567 46.7248
L39.7852 46.7248
" />
<path d="M40.0710 46.7248
L40.0710 45.7248
" />
<path d="M40.0710 45.7248
L39.9757 45.8677
" />
<path d="M39.9757 45.8677
L39.8805 45.9629
" />
<path d="M39.8805 45.9629
L39.7852 46.0105
" />
</g><text x="39.6900" y="67.0900"
textLength="1.9643" font-size="1.3333" lengthAdjust="spacingAndGlyphs"
text-anchor="middle" opacity="0">J2</text>
<g class="stroked-text"><desc>J2</desc>
<path d="M39.3567 66.0448
L39.3567 66.7591
" />
<path d="M39.3567 66.7591
L39.3090 66.9020
" />
<path d="M39.3090 66.9020
L39.2138 66.9972
" />
<path d="M39.2138 66.9972
L39.0710 67.0448
" />
<path d="M39.0710 67.0448
L38.9757 67.0448
" />
<path d="M39.7852 66.1401
L39.8329 66.0924
" />
<path d="M39.8329 66.0924
L39.9281 66.0448
" />
<path d="M39.9281 66.0448
L40.1662 66.0448
" />
<path d="M40.1662 66.0448
L40.2614 66.0924
" />
<path d="M40.2614 66.0924
L40.3090 66.1401
" />
<path d="M40.3090 66.1401
L40.3567 66.2353
" />
<path d="M40.3567 66.2353
L40.3567 66.3305
" />
<path d="M40.3567 66.3305
L40.3090 66.4734
" />
<path d="M40.3090 66.4734
L39.7376 67.0448
" />
<path d="M39.7376 67.0448
L40.3567 67.0448
" />
</g><text x="31.4300" y="116.7900"
textLength="1.9643" font-size="1.3333" lengthAdjust="spacingAndGlyphs"
text-anchor="middle" opacity="0">J3</text>
<g class="stroked-text"><desc>J3</desc>
<path d="M31.0967 115.7448
L31.0967 116.4591
" />
<path d="M31.0967 116.4591
L31.0490 116.6020
" />
<path d="M31.0490 116.6020
L30.9538 116.6972
" />
<path d="M30.9538 116.6972
L30.8110 116.7448
" />
<path d="M30.8110 116.7448
L30.7157 116.7448
" />
<path d="M31.4776 115.7448
L32.0967 115.7448
" />
<path d="M32.0967 115.7448
L31.7633 116.1258
" />
<path d="M31.7633 116.1258
L31.9062 116.1258
" />
<path d="M31.9062 116.1258
L32.0014 116.1734
" />
<path d="M32.0014 116.1734
L32.0490 116.2210
" />
<path d="M32.0490 116.2210
L32.0967 116.3162
" />
<path d="M32.0967 116.3162
L32.0967 116.5543
" />
<path d="M32.0967 116.5543
L32.0490 116.6496
" />
<path d="M32.0490 116.6496
L32.0014 116.6972
" />
<path d="M32.0014 116.6972
L31.9062 116.7448
" />
<path d="M31.9062 116.7448
L31.6205 116.7448
" />
<path d="M31.6205 116.7448
L31.5252 116.6972
" />
<path d="M31.5252 116.6972
L31.4776 116.6496
" />
</g><text x="41.5900" y="116.7900"
textLength="1.9643" font-size="1.3333" lengthAdjust="spacingAndGlyphs"
text-anchor="middle" opacity="0">J4</text>
<g class="stroked-text"><desc>J4</desc>
<path d="M41.2567 115.7448
L41.2567 116.4591
" />
<path d="M41.2567 116.4591
L41.2090 116.6020
" />
<path d="M41.2090 116.6020
L41.1138 116.6972
" />
<path d="M41.1138 116.6972
L40.9710 116.7448
" />
<path d="M40.9710 116.7448
L40.8757 116.7448
" />
<path d="M42.1614 116.0782
L42.1614 116.7448
" />
<path d="M41.9233 115.6972
L41.6852 116.4115
" />
<path d="M41.6852 116.4115
L42.3043 116.4115
" />
</g><text x="51.7500" y="116.7900"
textLength="1.9643" font-size="1.3333" lengthAdjust="spacingAndGlyphs"
text-anchor="middle" opacity="0">J5</text>
<g class="stroked-text"><desc>J5</desc>
<path d="M51.4167 115.7448
L51.4167 116.4591
" />
<path d="M51.4167 116.4591
L51.3690 116.6020
" />
<path d="M51.3690 116.6020
L51.2738 116.6972
" />
<path d="M51.2738 116.6972
L51.1310 116.7448
" />
<path d="M51.1310 116.7448
L51.0357 116.7448
" />
<path d="M52.3690 115.7448
L51.8929 115.7448
" />
<path d="M51.8929 115.7448
L51.8452 116.2210
" />
<path d="M51.8452 116.2210
L51.8929 116.1734
" />
<path d="M51.8929 116.1734
L51.9881 116.1258
" />
<path d="M51.9881 116.1258
L52.2262 116.1258
" />
<path d="M52.2262 116.1258
L52.3214 116.1734
" />
<path d="M52.3214 116.1734
L52.3690 116.2210
" />
<path d="M52.3690 116.2210
L52.4167 116.3162
" />
<path d="M52.4167 116.3162
L52.4167 116.5543
" />
<path d="M52.4167 116.5543
L52.3690 116.6496
" />
<path d="M52.3690 116.6496
L52.3214 116.6972
" />
<path d="M52.3214 116.6972
L52.2262 116.7448
" />
<path d="M52.2262 116.7448
L51.9881 116.7448
" />
<path d="M51.9881 116.7448
L51.8929 116.6972
" />
<path d="M51.8929 116.6972
L51.8452 116.6496
" />
</g><text x="36.5760" y="74.3300"
textLength="2.2024" font-size="1.3333" lengthAdjust="spacingAndGlyphs"
text-anchor="middle" opacity="0">R1</text>
<g class="stroked-text"><desc>R1</desc>
<path d="M36.4093 74.2848
L36.0760 73.8086
" />
<path d="M35.8379 74.2848
L35.8379 73.2848
" />
<path d="M35.8379 73.2848
L36.2189 73.2848
" />
<path d="M36.2189 73.2848
L36.3141 73.3324
" />
<path d="M36.3141 73.3324
L36.3617 73.3801
" />
<path d="M36.3617 73.3801
L36.4093 73.4753
" />
<path d="M36.4093 73.4753
L36.4093 73.6182
" />
<path d="M36.4093 73.6182
L36.3617 73.7134
" />
<path d="M36.3617 73.7134
L36.3141 73.7610
" />
<path d="M36.3141 73.7610
L36.2189 73.8086
" />
<path d="M36.2189 73.8086
L35.8379 73.8086
" />
<path d="M37.3617 74.2848
L36.7903 74.2848
" />
<path d="M37.0760 74.2848
L37.0760 73.2848
" />
<path d="M37.0760 73.2848
L36.9808 73.4277
" />
<path d="M36.9808 73.4277
L36.8855 73.5229
" />
<path d="M36.8855 73.5229
L36.7903 73.5705
" />
</g><text x="48.2600" y="110.3980"
textLength="2.2024" font-size="1.3333" lengthAdjust="spacingAndGlyphs"
text-anchor="middle" opacity="0">R2</text>
<g class="stroked-text"><desc>R2</desc>
<path d="M48.0933 110.3528
L47.7600 109.8766
" />
<path d="M47.5219 110.3528
L47.5219 109.3528
" />
<path d="M47.5219 109.3528
L47.9029 109.3528
" />
<path d="M47.9029 109.3528
L47.9981 109.4004
" />
<path d="M47.9981 109.4004
L48.0457 109.4481
" />
<path d="M48.0457 109.4481
L48.0933 109.5433
" />
<path d="M48.0933 109.5433
L48.0933 109.6862
" />
<path d="M48.0933 109.6862
L48.0457 109.7814
" />
<path d="M48.0457 109.7814
L47.9981 109.8290
" />
<path d="M47.9981 109.8290
L47.9029 109.8766
" />
<path d="M47.9029 109.8766
L47.5219 109.8766
" />
<path d="M48.4743 109.4481
L48.5219 109.4004
" />
<path d="M48.5219 109.4004
L48.6171 109.3528
" />
<path d="M48.6171 109.3528
L48.8552 109.3528
" />
<path d="M48.8552 109.3528
L48.9505 109.4004
" />
<path d="M48.9505 109.4004
L48.9981 109.4481
" />
<path d="M48.9981 109.4481
L49.0457 109.5433
" />
<path d="M49.0457 109.5433
L49.0457 109.6385
" />
<path d="M49.0457 109.6385
L48.9981 109.7814
" />
<path d="M48.9981 109.7814
L48.4267 110.3528
" />
<path d="M48.4267 110.3528
L49.0457 110.3528
" />
</g><text x="36.8300" y="97.4440"
textLength="2.2024" font-size="1.3333" lengthAdjust="spacingAndGlyphs"
text-anchor="middle" opacity="0">R3</text>
<g class="stroked-text"><desc>R3</desc>
<path d="M36.6633 97.3988
L36.3300 96.9226
" />
<path d="M36.0919 97.3988
L36.0919 96.3988
" />
<path d="M36.0919 96.3988
L36.4729 96.3988
" />
<path d="M36.4729 96.3988
L36.5681 96.4464
" />
<path d="M36.5681 96.4464
L36.6157 96.4941
" />
<path d="M36.6157 96.4941
L36.6633 96.5893
" />
<path d="M36.6633 96.5893
L36.6633 96.7322
" />
<path d="M36.6633 96.7322
L36.6157 96.8274
" />
<path d="M36.6157 96.8274
L36.5681 96.8750
" />
<path d="M36.5681 96.8750
L36.4729 96.9226
" />
<path d="M36.4729 96.9226
L36.0919 96.9226
" />
<path d="M36.9967 96.3988
L37.6157 96.3988
" />
<path d="M37.6157 96.3988
L37.2824 96.7798
" />
<path d="M37.2824 96.7798
L37.4252 96.7798
" />
<path d="M37.4252 96.7798
L37.5205 96.8274
" />
<path d="M37.5205 96.8274
L37.5681 96.8750
" />
<path d="M37.5681 96.8750
L37.6157 96.9702
" />
<path d="M37.6157 96.9702
L37.6157 97.2083
" />
<path d="M37.6157 97.2083
L37.5681 97.3036
" />
<path d="M37.5681 97.3036
L37.5205 97.3512
" />
<path d="M37.5205 97.3512
L37.4252 97.3988
" />
<path d="M37.4252 97.3988
L37.1395 97.3988
" />
<path d="M37.1395 97.3988
L37.0443 97.3512
" />
<path d="M37.0443 97.3512
L36.9967 97.3036
" />
</g><g transform="rotate(-90.000000 44.1120 102.8700)">
<text x="44.1120" y="103.3700"
textLength="2.2024" font-size="1.3333" lengthAdjust="spacingAndGlyphs"
text-anchor="middle" opacity="0">R6</text>
</g>
<g class="stroked-text"><desc>R6</desc>
<path d="M44.5668 103.0367
L44.0906 103.3700
" />
<path d="M44.5668 103.6081
L43.5668 103.6081
" />
<path d="M43.5668 103.6081
L43.5668 103.2271
" />
<path d="M43.5668 103.2271
L43.6144 103.1319
" />
<path d="M43.6144 103.1319
L43.6621 103.0843
" />
<path d="M43.6621 103.0843
L43.7573 103.0367
" />
<path d="M43.7573 103.0367
L43.9002 103.0367
" />
<path d="M43.9002 103.0367
L43.9954 103.0843
" />
<path d="M43.9954 103.0843
L44.0430 103.1319
" />
<path d="M44.0430 103.1319
L44.0906 103.2271
" />
<path d="M44.0906 103.2271
L44.0906 103.6081
" />
<path d="M43.5668 102.1795
L43.5668 102.3700
" />
<path d="M43.5668 102.3700
L43.6144 102.4652
" />
<path d="M43.6144 102.4652
L43.6621 102.5129
" />
<path d="M43.6621 102.5129
L43.8049 102.6081
" />
<path d="M43.8049 102.6081
L43.9954 102.6557
" />
<path d="M43.9954 102.6557
L44.3763 102.6557
" />
<path d="M44.3763 102.6557
L44.4716 102.6081
" />
<path d="M44.4716 102.6081
L44.5192 102.5605
" />
<path d="M44.5192 102.5605
L44.5668 102.4652
" />
<path d="M44.5668 102.4652
L44.5668 102.2748
" />
<path d="M44.5668 102.2748
L44.5192 102.1795
" />
<path d="M44.5192 102.1795
L44.4716 102.1319
" />
<path d="M44.4716 102.1319
L44.3763 102.0843
" />
<path d="M44.3763 102.0843
L44.1382 102.0843
" />
<path d="M44.1382 102.0843
L44.0430 102.1319
" />
<path d="M44.0430 102.1319
L43.9954 102.1795
" />
<path d="M43.9954 102.1795
L43.9478 102.2748
" />
<path d="M43.9478 102.2748
L43.9478 102.4652
" />
<path d="M43.9478 102.4652
L43.9954 102.5605
" />
<path d="M43.9954 102.5605
L44.0430 102.6081
" />
<path d="M44.0430 102.6081
L44.1382 102.6557
" />
</g><text x="36.8300" y="102.0160"
textLength="2.2024" font-size="1.3333" lengthAdjust="spacingAndGlyphs"
text-anchor="middle" opacity="0">R4</text>
<g class="stroked-text"><desc>R4</desc>
<path d="M36.6633 101.9708
L36.3300 101.4946
" />
<path d="M36.0919 101.9708
L36.0919 100.9708
" />
<path d="M36.0919 100.9708
L36.4729 100.9708
" />
<path d="M36.4729 100.9708
L36.5681 101.0184
" />
<path d="M36.5681 101.0184
L36.6157 101.0661
" />
<path d="M36.6157 101.0661
L36.6633 101.1613
" />
<path d="M36.6633 101.1613
L36.6633 101.3042
" />
<path d="M36.6633 101.3042
L36.6157 101.3994
" />
<path d="M36.6157 101.3994
L36.5681 101.4470
" />
<path d="M36.5681 101.4470
L36.4729 101.4946
" />
<path d="M36.4729 101.4946
L36.0919 101.4946
" />
<path d="M37.5205 101.3042
L37.5205 101.9708
" />
<path d="M37.2824 100.9232
L37.0443 101.6375
" />
<path d="M37.0443 101.6375
L37.6633 101.6375
" />
</g><text x="36.8300" y="106.5880"
textLength="2.2024" font-size="1.3333" lengthAdjust="spacingAndGlyphs"
text-anchor="middle" opacity="0">R5</text>
<g class="stroked-text"><desc>R5</desc>
<path d="M36.6633 106.5428
L36.3300 106.0666
" />
<path d="M36.0919 106.5428
L36.0919 105.5428
" />
<path d="M36.0919 105.5428
L36.4729 105.5428
" />
<path d="M36.4729 105.5428
L36.5681 105.5904
" />
<path d="M36.5681 105.5904
L36.6157 105.6381
" />
<path d="M36.6157 105.6381
L36.6633 105.7333
" />
<path d="M36.6633 105.7333
L36.6633 105.8762
" />
<path d="M36.6633 105.8762
L36.6157 105.9714
" />
<path d="M36.6157 105.9714
L36.5681 106.0190
" />
<path d="M36.5681 106.0190
L36.4729 106.0666
" />
<path d="M36.4729 106.0666
L36.0919 106.0666
" />
<path d="M37.5681 105.5428
L37.0919 105.5428
" />
<path d="M37.0919 105.5428
L37.0443 106.0190
" />
<path d="M37.0443 106.0190
L37.0919 105.9714
" />
<path d="M37.0919 105.9714
L37.1871 105.9238
" />
<path d="M37.1871 105.9238
L37.4252 105.9238
" />
<path d="M37.4252 105.9238
L37.5205 105.9714
" />
<path d="M37.5205 105.9714
L37.5681 106.0190
" />
<path d="M37.5681 106.0190
L37.6157 106.1142
" />
<path d="M37.6157 106.1142
L37.6157 106.3523
" />
<path d="M37.6157 106.3523
L37.5681 106.4476
" />
<path d="M37.5681 106.4476
L37.5205 106.4952
" />
<path d="M37.5205 106.4952
L37.4252 106.5428
" />
<path d="M37.4252 106.5428
L37.1871 106.5428
" />
<path d="M37.1871 106.5428
L37.0919 106.4952
" />
<path d="M37.0919 106.4952
L37.0443 106.4476
" />
</g><g transform="rotate(-90.000000 63.2460 43.4340)">
<text x="63.2460" y="43.9340"
textLength="3.0595" font-size="1.3333" lengthAdjust="spacingAndGlyphs"
text-anchor="middle" opacity="0">RV1</text>
</g>
<g class="stroked-text"><desc>RV1</desc>
<path d="M63.7008 44.0292
L63.2246 44.3626
" />
<path d="M63.7008 44.6007
L62.7008 44.6007
" />
<path d="M62.7008 44.6007
L62.7008 44.2197
" />
<path d="M62.7008 44.2197
L62.7484 44.1245
" />
<path d="M62.7484 44.1245
L62.7961 44.0769
" />
<path d="M62.7961 44.0769
L62.8913 44.0292
" />
<path d="M62.8913 44.0292
L63.0342 44.0292
" />
<path d="M63.0342 44.0292
L63.1294 44.0769
" />
<path d="M63.1294 44.0769
L63.1770 44.1245
" />
<path d="M63.1770 44.1245
L63.2246 44.2197
" />
<path d="M63.2246 44.2197
L63.2246 44.6007
" />
<path d="M62.7008 43.7435
L63.7008 43.4102
" />
<path d="M63.7008 43.4102
L62.7008 43.0769
" />
<path d="M63.7008 42.2197
L63.7008 42.7911
" />
<path d="M63.7008 42.5054
L62.7008 42.5054
" />
<path d="M62.7008 42.5054
L62.8437 42.6007
" />
<path d="M62.8437 42.6007
L62.9389 42.6959
" />
<path d="M62.9389 42.6959
L62.9865 42.7911
" />
</g><g transform="rotate(-90.000000 63.2460 63.5000)">
<text x="63.2460" y="64.0000"
textLength="3.0595" font-size="1.3333" lengthAdjust="spacingAndGlyphs"
text-anchor="middle" opacity="0">RV2</text>
</g>
<g class="stroked-text"><desc>RV2</desc>
<path d="M63.7008 64.0952
L63.2246 64.4286
" />
<path d="M63.7008 64.6667
L62.7008 64.6667
" />
<path d="M62.7008 64.6667
L62.7008 64.2857
" />
<path d="M62.7008 64.2857
L62.7484 64.1905
" />
<path d="M62.7484 64.1905
L62.7961 64.1429
" />
<path d="M62.7961 64.1429
L62.8913 64.0952
" />
<path d="M62.8913 64.0952
L63.0342 64.0952
" />
<path d="M63.0342 64.0952
L63.1294 64.1429
" />
<path d="M63.1294 64.1429
L63.1770 64.1905
" />
<path d="M63.1770 64.1905
L63.2246 64.2857
" />
<path d="M63.2246 64.2857
L63.2246 64.6667
" />
<path d="M62.7008 63.8095
L63.7008 63.4762
" />
<path d="M63.7008 63.4762
L62.7008 63.1429
" />
<path d="M62.7961 62.8571
L62.7484 62.8095
" />
<path d="M62.7484 62.8095
L62.7008 62.7143
" />
<path d="M62.7008 62.7143
L62.7008 62.4762
" />
<path d="M62.7008 62.4762
L62.7484 62.3810
" />
<path d="M62.7484 62.3810
L62.7961 62.3333
" />
<path d="M62.7961 62.3333
L62.8913 62.2857
" />
<path d="M62.8913 62.2857
L62.9865 62.2857
" />
<path d="M62.9865 62.2857
L63.1294 62.3333
" />
<path d="M63.1294 62.3333
L63.7008 62.9048
" />
<path d="M63.7008 62.9048
L63.7008 62.2857
" />
</g><g transform="rotate(-90.000000 63.2460 104.3940)">
<text x="63.2460" y="104.8940"
textLength="3.0595" font-size="1.3333" lengthAdjust="spacingAndGlyphs"
text-anchor="middle" opacity="0">RV3</text>
</g>
<g class="stroked-text"><desc>RV3</desc>
<path d="M63.7008 104.9892
L63.2246 105.3226
" />
<path d="M63.7008 105.5607
L62.7008 105.5607
" />
<path d="M62.7008 105.5607
L62.7008 105.1797
" />
<path d="M62.7008 105.1797
L62.7484 105.0845
" />
<path d="M62.7484 105.0845
L62.7961 105.0369
" />
<path d="M62.7961 105.0369
L62.8913 104.9892
" />
<path d="M62.8913 104.9892
L63.0342 104.9892
" />
<path d="M63.0342 104.9892
L63.1294 105.0369
" />
<path d="M63.1294 105.0369
L63.1770 105.0845
" />
<path d="M63.1770 105.0845
L63.2246 105.1797
" />
<path d="M63.2246 105.1797
L63.2246 105.5607
" />
<path d="M62.7008 104.7035
L63.7008 104.3702
" />
<path d="M63.7008 104.3702
L62.7008 104.0369
" />
<path d="M62.7008 103.7988
L62.7008 103.1797
" />
<path d="M62.7008 103.1797
L63.0818 103.5130
" />
<path d="M63.0818 103.5130
L63.0818 103.3702
" />
<path d="M63.0818 103.3702
L63.1294 103.2750
" />
<path d="M63.1294 103.2750
L63.1770 103.2273
" />
<path d="M63.1770 103.2273
L63.2722 103.1797
" />
<path d="M63.2722 103.1797
L63.5103 103.1797
" />
<path d="M63.5103 103.1797
L63.6056 103.2273
" />
<path d="M63.6056 103.2273
L63.6532 103.2750
" />
<path d="M63.6532 103.2750
L63.7008 103.3702
" />
<path d="M63.7008 103.3702
L63.7008 103.6559
" />
<path d="M63.7008 103.6559
L63.6532 103.7511
" />
<path d="M63.6532 103.7511
L63.6056 103.7988
" />
</g></g>
<g style="fill:#000000; fill-opacity:0.0; 
stroke:#000000; stroke-width:0.1524; stroke-opacity:1; 
stroke-linecap:round; stroke-linejoin:round;">
<text x="53.8480" y="74.2950"
textLength="3.8929" font-size="1.6087" lengthAdjust="spacingAndGlyphs"
text-anchor="start" opacity="0">SW1</text>
<g class="stroked-text"><desc>SW1</desc>
<path d="M54.1781 74.0820
L54.3504 74.1394
" />
<path d="M54.3504 74.1394
L54.6377 74.1394
" />
<path d="M54.6377 74.1394
L54.7526 74.0820
" />
<path d="M54.7526 74.0820
L54.8100 74.0245
" />
<path d="M54.8100 74.0245
L54.8675 73.9096
" />
<path d="M54.8675 73.9096
L54.8675 73.7947
" />
<path d="M54.8675 73.7947
L54.8100 73.6798
" />
<path d="M54.8100 73.6798
L54.7526 73.6223
" />
<path d="M54.7526 73.6223
L54.6377 73.5649
" />
<path d="M54.6377 73.5649
L54.4079 73.5074
" />
<path d="M54.4079 73.5074
L54.2930 73.4500
" />
<path d="M54.2930 73.4500
L54.2355 73.3925
" />
<path d="M54.2355 73.3925
L54.1781 73.2776
" />
<path d="M54.1781 73.2776
L54.1781 73.1627
" />
<path d="M54.1781 73.1627
L54.2355 73.0478
" />
<path d="M54.2355 73.0478
L54.2930 72.9904
" />
<path d="M54.2930 72.9904
L54.4079 72.9329
" />
<path d="M54.4079 72.9329
L54.6951 72.9329
" />
<path d="M54.6951 72.9329
L54.8675 72.9904
" />
<path d="M55.2697 72.9329
L55.5569 74.1394
" />
<path d="M55.5569 74.1394
L55.7867 73.2776
" />
<path d="M55.7867 73.2776
L56.0165 74.1394
" />
<path d="M56.0165 74.1394
L56.3038 72.9329
" />
<path d="M57.3954 74.1394
L56.7060 74.1394
" />
<path d="M57.0507 74.1394
L57.0507 72.9329
" />
<path d="M57.0507 72.9329
L56.9358 73.1053
" />
<path d="M56.9358 73.1053
L56.8209 73.2202
" />
<path d="M56.8209 73.2202
L56.7060 73.2776
" />
</g><g transform="rotate(-90.000000 61.9760 85.5980)">
<text x="61.9760" y="85.5980"
textLength="8.1443" font-size="1.6087" lengthAdjust="spacingAndGlyphs"
text-anchor="start" opacity="0">SW_SPDT</text>
</g>
<g class="stroked-text"><desc>SW_SPDT</desc>
<path d="M61.7630 85.2679
L61.8204 85.0956
" />
<path d="M61.8204 85.0956
L61.8204 84.8083
" />
<path d="M61.8204 84.8083
L61.7630 84.6934
" />
<path d="M61.7630 84.6934
L61.7055 84.6360
" />
<path d="M61.7055 84.6360
L61.5906 84.5785
" />
<path d="M61.5906 84.5785
L61.4757 84.5785
" />
<path d="M61.4757 84.5785
L61.3608 84.6360
" />
<path d="M61.3608 84.6360
L61.3033 84.6934
" />
<path d="M61.3033 84.6934
L61.2459 84.8083
" />
<path d="M61.2459 84.8083
L61.1884 85.0381
" />
<path d="M61.1884 85.0381
L61.1310 85.1530
" />
<path d="M61.1310 85.1530
L61.0735 85.2105
" />
<path d="M61.0735 85.2105
L60.9586 85.2679
" />
<path d="M60.9586 85.2679
L60.8437 85.2679
" />
<path d="M60.8437 85.2679
L60.7288 85.2105
" />
<path d="M60.7288 85.2105
L60.6714 85.1530
" />
<path d="M60.6714 85.1530
L60.6139 85.0381
" />
<path d="M60.6139 85.0381
L60.6139 84.7509
" />
<path d="M60.6139 84.7509
L60.6714 84.5785
" />
<path d="M60.6139 84.1763
L61.8204 83.8891
" />
<path d="M61.8204 83.8891
L60.9586 83.6593
" />
<path d="M60.9586 83.6593
L61.8204 83.4295
" />
<path d="M61.8204 83.4295
L60.6139 83.1422
" />
<path d="M61.9353 82.9698
L61.9353 82.0506
" />
<path d="M61.7630 81.8208
L61.8204 81.6484
" />
<path d="M61.8204 81.6484
L61.8204 81.3612
" />
<path d="M61.8204 81.3612
L61.7630 81.2463
" />
<path d="M61.7630 81.2463
L61.7055 81.1888
" />
<path d="M61.7055 81.1888
L61.5906 81.1314
" />
<path d="M61.5906 81.1314
L61.4757 81.1314
" />
<path d="M61.4757 81.1314
L61.3608 81.1888
" />
<path d="M61.3608 81.1888
L61.3033 81.2463
" />
<path d="M61.3033 81.2463
L61.2459 81.3612
" />
<path d="M61.2459 81.3612
L61.1884 81.5910
" />
<path d="M61.1884 81.5910
L61.1310 81.7059
" />
<path d="M61.1310 81.7059
L61.0735 81.7633
" />
<path d="M61.0735 81.7633
L60.9586 81.8208
" />
<path d="M60.9586 81.8208
L60.8437 81.8208
" />
<path d="M60.8437 81.8208
L60.7288 81.7633
" />
<path d="M60.7288 81.7633
L60.6714 81.7059
" />
<path d="M60.6714 81.7059
L60.6139 81.5910
" />
<path d="M60.6139 81.5910
L60.6139 81.3037
" />
<path d="M60.6139 81.3037
L60.6714 81.1314
" />
<path d="M61.8204 80.6143
L60.6139 80.6143
" />
<path d="M60.6139 80.6143
L60.6139 80.1547
" />
<path d="M60.6139 80.1547
L60.6714 80.0398
" />
<path d="M60.6714 80.0398
L60.7288 79.9823
" />
<path d="M60.7288 79.9823
L60.8437 79.9249
" />
<path d="M60.8437 79.9249
L61.0161 79.9249
" />
<path d="M61.0161 79.9249
L61.1310 79.9823
" />
<path d="M61.1310 79.9823
L61.1884 80.0398
" />
<path d="M61.1884 80.0398
L61.2459 80.1547
" />
<path d="M61.2459 80.1547
L61.2459 80.6143
" />
<path d="M61.8204 79.4078
L60.6139 79.4078
" />
<path d="M60.6139 79.4078
L60.6139 79.1205
" />
<path d="M60.6139 79.1205
L60.6714 78.9482
" />
<path d="M60.6714 78.9482
L60.7863 78.8333
" />
<path d="M60.7863 78.8333
L60.9012 78.7758
" />
<path d="M60.9012 78.7758
L61.1310 78.7184
" />
<path d="M61.1310 78.7184
L61.3033 78.7184
" />
<path d="M61.3033 78.7184
L61.5332 78.7758
" />
<path d="M61.5332 78.7758
L61.6481 78.8333
" />
<path d="M61.6481 78.8333
L61.7630 78.9482
" />
<path d="M61.7630 78.9482
L61.8204 79.1205
" />
<path d="M61.8204 79.1205
L61.8204 79.4078
" />
<path d="M60.6139 78.3736
L60.6139 77.6842
" />
<path d="M61.8204 78.0289
L60.6139 78.0289
" />
</g></g>
<g style="fill:#000000; fill-opacity:0.0; 
stroke:#000000; stroke-width:0.3000; stroke-opacity:1; 
stroke-linecap:round; stroke-linejoin:round;">
<text x="40.9100" y="134.7940"
textLength="18.0238" font-size="2.6667" lengthAdjust="spacingAndGlyphs"
text-anchor="middle" opacity="0">elektrophon</text>
<g class="stroked-text"><desc>elektrophon</desc>
<path d="M33.3862 134.6509
L33.1868 134.7223
" />
<path d="M33.1868 134.7223
L32.8058 134.7223
" />
<path d="M32.8058 134.7223
L32.6243 134.6509
" />
<path d="M32.6243 134.6509
L32.5469 134.5080
" />
<path d="M32.5469 134.5080
L32.6183 133.9366
" />
<path d="M32.6183 133.9366
L32.7314 133.7938
" />
<path d="M32.7314 133.7938
L32.9308 133.7223
" />
<path d="M32.9308 133.7223
L33.3118 133.7223
" />
<path d="M33.3118 133.7223
L33.4933 133.7938
" />
<path d="M33.4933 133.7938
L33.5707 133.9366
" />
<path d="M33.5707 133.9366
L33.5529 134.0795
" />
<path d="M33.5529 134.0795
L32.5826 134.2223
" />
<path d="M34.6154 134.7223
L34.4338 134.6509
" />
<path d="M34.4338 134.6509
L34.3564 134.5080
" />
<path d="M34.3564 134.5080
L34.5171 133.2223
" />
<path d="M36.1481 134.6509
L35.9487 134.7223
" />
<path d="M35.9487 134.7223
L35.5677 134.7223
" />
<path d="M35.5677 134.7223
L35.3862 134.6509
" />
<path d="M35.3862 134.6509
L35.3088 134.5080
" />
<path d="M35.3088 134.5080
L35.3802 133.9366
" />
<path d="M35.3802 133.9366
L35.4933 133.7938
" />
<path d="M35.4933 133.7938
L35.6927 133.7223
" />
<path d="M35.6927 133.7223
L36.0737 133.7223
" />
<path d="M36.0737 133.7223
L36.2552 133.7938
" />
<path d="M36.2552 133.7938
L36.3326 133.9366
" />
<path d="M36.3326 133.9366
L36.3148 134.0795
" />
<path d="M36.3148 134.0795
L35.3445 134.2223
" />
<path d="M37.0915 134.7223
L37.2790 133.2223
" />
<path d="M37.3535 134.1509
L37.8535 134.7223
" />
<path d="M37.9785 133.7223
L37.1451 134.2938
" />
<path d="M38.5499 133.7223
L39.3118 133.7223
" />
<path d="M38.8981 133.2223
L38.7374 134.5080
" />
<path d="M38.7374 134.5080
L38.8148 134.6509
" />
<path d="M38.8148 134.6509
L38.9963 134.7223
" />
<path d="M38.9963 134.7223
L39.1868 134.7223
" />
<path d="M39.8535 134.7223
L39.9785 133.7223
" />
<path d="M39.9427 134.0080
L40.0558 133.8652
" />
<path d="M40.0558 133.8652
L40.1600 133.7938
" />
<path d="M40.1600 133.7938
L40.3594 133.7223
" />
<path d="M40.3594 133.7223
L40.5499 133.7223
" />
<path d="M41.3773 134.7223
L41.1957 134.6509
" />
<path d="M41.1957 134.6509
L41.1094 134.5795
" />
<path d="M41.1094 134.5795
L41.0320 134.4366
" />
<path d="M41.0320 134.4366
L41.0856 134.0080
" />
<path d="M41.0856 134.0080
L41.1987 133.8652
" />
<path d="M41.1987 133.8652
L41.3029 133.7938
" />
<path d="M41.3029 133.7938
L41.5023 133.7223
" />
<path d="M41.5023 133.7223
L41.7880 133.7223
" />
<path d="M41.7880 133.7223
L41.9695 133.7938
" />
<path d="M41.9695 133.7938
L42.0558 133.8652
" />
<path d="M42.0558 133.8652
L42.1332 134.0080
" />
<path d="M42.1332 134.0080
L42.0796 134.4366
" />
<path d="M42.0796 134.4366
L41.9665 134.5795
" />
<path d="M41.9665 134.5795
L41.8624 134.6509
" />
<path d="M41.8624 134.6509
L41.6630 134.7223
" />
<path d="M41.6630 134.7223
L41.3773 134.7223
" />
<path d="M43.0261 133.7223
L42.8386 135.2223
" />
<path d="M43.0171 133.7938
L43.2165 133.7223
" />
<path d="M43.2165 133.7223
L43.5975 133.7223
" />
<path d="M43.5975 133.7223
L43.7790 133.7938
" />
<path d="M43.7790 133.7938
L43.8654 133.8652
" />
<path d="M43.8654 133.8652
L43.9427 134.0080
" />
<path d="M43.9427 134.0080
L43.8892 134.4366
" />
<path d="M43.8892 134.4366
L43.7761 134.5795
" />
<path d="M43.7761 134.5795
L43.6719 134.6509
" />
<path d="M43.6719 134.6509
L43.4725 134.7223
" />
<path d="M43.4725 134.7223
L43.0915 134.7223
" />
<path d="M43.0915 134.7223
L42.9100 134.6509
" />
<path d="M44.7106 134.7223
L44.8981 133.2223
" />
<path d="M45.5677 134.7223
L45.6660 133.9366
" />
<path d="M45.6660 133.9366
L45.5886 133.7938
" />
<path d="M45.5886 133.7938
L45.4070 133.7223
" />
<path d="M45.4070 133.7223
L45.1213 133.7223
" />
<path d="M45.1213 133.7223
L44.9219 133.7938
" />
<path d="M44.9219 133.7938
L44.8177 133.8652
" />
<path d="M46.8058 134.7223
L46.6243 134.6509
" />
<path d="M46.6243 134.6509
L46.5380 134.5795
" />
<path d="M46.5380 134.5795
L46.4606 134.4366
" />
<path d="M46.4606 134.4366
L46.5142 134.0080
" />
<path d="M46.5142 134.0080
L46.6273 133.8652
" />
<path d="M46.6273 133.8652
L46.7314 133.7938
" />
<path d="M46.7314 133.7938
L46.9308 133.7223
" />
<path d="M46.9308 133.7223
L47.2165 133.7223
" />
<path d="M47.2165 133.7223
L47.3981 133.7938
" />
<path d="M47.3981 133.7938
L47.4844 133.8652
" />
<path d="M47.4844 133.8652
L47.5618 134.0080
" />
<path d="M47.5618 134.0080
L47.5082 134.4366
" />
<path d="M47.5082 134.4366
L47.3951 134.5795
" />
<path d="M47.3951 134.5795
L47.2910 134.6509
" />
<path d="M47.2910 134.6509
L47.0915 134.7223
" />
<path d="M47.0915 134.7223
L46.8058 134.7223
" />
<path d="M48.4546 133.7223
L48.3296 134.7223
" />
<path d="M48.4368 133.8652
L48.5410 133.7938
" />
<path d="M48.5410 133.7938
L48.7404 133.7223
" />
<path d="M48.7404 133.7223
L49.0261 133.7223
" />
<path d="M49.0261 133.7223
L49.2076 133.7938
" />
<path d="M49.2076 133.7938
L49.2850 133.9366
" />
<path d="M49.2850 133.9366
L49.1868 134.7223
" />
</g></g>
<g style="fill:#000000; fill-opacity:0.0; 
stroke:#000000; stroke-width:0.1500; stroke-opacity:1; 
stroke-linecap:round; stroke-linejoin:round;">
<text x="32.3700" y="136.4500"
textLength="8.4881" font-size="1.3333" lengthAdjust="spacingAndGlyphs"
text-anchor="start" opacity="0">ПОЛИВОКС</text>
<g class="stroked-text"><desc>ПОЛИВОКС</desc>
<path d="M32.7068 136.4123
L32.7068 135.6123
" />
<path d="M32.7068 135.6123
L33.2782 135.6123
" />
<path d="M33.2782 135.6123
L33.2782 136.4123
" />
<path d="M33.9449 135.6123
L34.1353 135.6123
" />
<path d="M34.1353 135.6123
L34.2306 135.6504
" />
<path d="M34.2306 135.6504
L34.3258 135.7266
" />
<path d="M34.3258 135.7266
L34.3734 135.8790
" />
<path d="M34.3734 135.8790
L34.3734 136.1456
" />
<path d="M34.3734 136.1456
L34.3258 136.2980
" />
<path d="M34.3258 136.2980
L34.2306 136.3742
" />
<path d="M34.2306 136.3742
L34.1353 136.4123
" />
<path d="M34.1353 136.4123
L33.9449 136.4123
" />
<path d="M33.9449 136.4123
L33.8496 136.3742
" />
<path d="M33.8496 136.3742
L33.7544 136.2980
" />
<path d="M33.7544 136.2980
L33.7068 136.1456
" />
<path d="M33.7068 136.1456
L33.7068 135.8790
" />
<path d="M33.7068 135.8790
L33.7544 135.7266
" />
<path d="M33.7544 135.7266
L33.8496 135.6504
" />
<path d="M33.8496 135.6504
L33.9449 135.6123
" />
<path d="M35.3734 136.4123
L35.3734 135.6123
" />
<path d="M35.3734 135.6123
L35.2306 135.6123
" />
<path d="M35.2306 135.6123
L35.0877 135.6504
" />
<path d="M35.0877 135.6504
L34.9925 135.7266
" />
<path d="M34.9925 135.7266
L34.9449 135.8409
" />
<path d="M34.9449 135.8409
L34.8496 136.2980
" />
<path d="M34.8496 136.2980
L34.8020 136.3742
" />
<path d="M34.8020 136.3742
L34.7068 136.4123
" />
<path d="M34.7068 136.4123
L34.6592 136.4123
" />
<path d="M35.8496 135.6123
L35.8496 136.4123
" />
<path d="M35.8496 136.4123
L36.4211 135.6123
" />
<path d="M36.4211 135.6123
L36.4211 136.4123
" />
<path d="M37.2306 135.9932
L37.3734 136.0313
" />
<path d="M37.3734 136.0313
L37.4211 136.0694
" />
<path d="M37.4211 136.0694
L37.4687 136.1456
" />
<path d="M37.4687 136.1456
L37.4687 136.2599
" />
<path d="M37.4687 136.2599
L37.4211 136.3361
" />
<path d="M37.4211 136.3361
L37.3734 136.3742
" />
<path d="M37.3734 136.3742
L37.2782 136.4123
" />
<path d="M37.2782 136.4123
L36.8973 136.4123
" />
<path d="M36.8973 136.4123
L36.8973 135.6123
" />
<path d="M36.8973 135.6123
L37.2306 135.6123
" />
<path d="M37.2306 135.6123
L37.3258 135.6504
" />
<path d="M37.3258 135.6504
L37.3734 135.6885
" />
<path d="M37.3734 135.6885
L37.4211 135.7647
" />
<path d="M37.4211 135.7647
L37.4211 135.8409
" />
<path d="M37.4211 135.8409
L37.3734 135.9171
" />
<path d="M37.3734 135.9171
L37.3258 135.9552
" />
<path d="M37.3258 135.9552
L37.2306 135.9932
" />
<path d="M37.2306 135.9932
L36.8973 135.9932
" />
<path d="M38.0877 135.6123
L38.2782 135.6123
" />
<path d="M38.2782 135.6123
L38.3734 135.6504
" />
<path d="M38.3734 135.6504
L38.4687 135.7266
" />
<path d="M38.4687 135.7266
L38.5163 135.8790
" />
<path d="M38.5163 135.8790
L38.5163 136.1456
" />
<path d="M38.5163 136.1456
L38.4687 136.2980
" />
<path d="M38.4687 136.2980
L38.3734 136.3742
" />
<path d="M38.3734 136.3742
L38.2782 136.4123
" />
<path d="M38.2782 136.4123
L38.0877 136.4123
" />
<path d="M38.0877 136.4123
L37.9925 136.3742
" />
<path d="M37.9925 136.3742
L37.8973 136.2980
" />
<path d="M37.8973 136.2980
L37.8496 136.1456
" />
<path d="M37.8496 136.1456
L37.8496 135.8790
" />
<path d="M37.8496 135.8790
L37.8973 135.7266
" />
<path d="M37.8973 135.7266
L37.9925 135.6504
" />
<path d="M37.9925 135.6504
L38.0877 135.6123
" />
<path d="M38.9449 136.4123
L38.9449 135.6123
" />
<path d="M39.5163 136.4123
L39.0877 135.9552
" />
<path d="M39.5163 135.6123
L38.9449 136.0694
" />
<path d="M40.5163 136.3361
L40.4687 136.3742
" />
<path d="M40.4687 136.3742
L40.3258 136.4123
" />
<path d="M40.3258 136.4123
L40.2306 136.4123
" />
<path d="M40.2306 136.4123
L40.0877 136.3742
" />
<path d="M40.0877 136.3742
L39.9925 136.2980
" />
<path d="M39.9925 136.2980
L39.9449 136.2218
" />
<path d="M39.9449 136.2218
L39.8973 136.0694
" />
<path d="M39.8973 136.0694
L39.8973 135.9552
" />
<path d="M39.8973 135.9552
L39.9449 135.8028
" />
<path d="M39.9449 135.8028
L39.9925 135.7266
" />
<path d="M39.9925 135.7266
L40.0877 135.6504
" />
<path d="M40.0877 135.6504
L40.2306 135.6123
" />
<path d="M40.2306 135.6123
L40.3258 135.6123
" />
<path d="M40.3258 135.6123
L40.4687 135.6504
" />
<path d="M40.4687 135.6504
L40.5163 135.6885
" />
</g><text x="49.4900" y="136.4800"
textLength="3.1548" font-size="1.3333" lengthAdjust="spacingAndGlyphs"
text-anchor="end" opacity="0">R01</text>
<g class="stroked-text"><desc>R01</desc>
<path d="M47.2961 136.4423
L46.9627 136.0613
" />
<path d="M46.7246 136.4423
L46.7246 135.6423
" />
<path d="M46.7246 135.6423
L47.1056 135.6423
" />
<path d="M47.1056 135.6423
L47.2008 135.6804
" />
<path d="M47.2008 135.6804
L47.2485 135.7185
" />
<path d="M47.2485 135.7185
L47.2961 135.7947
" />
<path d="M47.2961 135.7947
L47.2961 135.9090
" />
<path d="M47.2961 135.9090
L47.2485 135.9852
" />
<path d="M47.2485 135.9852
L47.2008 136.0232
" />
<path d="M47.2008 136.0232
L47.1056 136.0613
" />
<path d="M47.1056 136.0613
L46.7246 136.0613
" />
<path d="M47.9151 135.6423
L48.0104 135.6423
" />
<path d="M48.0104 135.6423
L48.1056 135.6804
" />
<path d="M48.1056 135.6804
L48.1532 135.7185
" />
<path d="M48.1532 135.7185
L48.2008 135.7947
" />
<path d="M48.2008 135.7947
L48.2485 135.9471
" />
<path d="M48.2485 135.9471
L48.2485 136.1375
" />
<path d="M48.2485 136.1375
L48.2008 136.2899
" />
<path d="M48.2008 136.2899
L48.1532 136.3661
" />
<path d="M48.1532 136.3661
L48.1056 136.4042
" />
<path d="M48.1056 136.4042
L48.0104 136.4423
" />
<path d="M48.0104 136.4423
L47.9151 136.4423
" />
<path d="M47.9151 136.4423
L47.8199 136.4042
" />
<path d="M47.8199 136.4042
L47.7723 136.3661
" />
<path d="M47.7723 136.3661
L47.7246 136.2899
" />
<path d="M47.7246 136.2899
L47.6770 136.1375
" />
<path d="M47.6770 136.1375
L47.6770 135.9471
" />
<path d="M47.6770 135.9471
L47.7246 135.7947
" />
<path d="M47.7246 135.7947
L47.7723 135.7185
" />
<path d="M47.7723 135.7185
L47.8199 135.6804
" />
<path d="M47.8199 135.6804
L47.9151 135.6423
" />
<path d="M49.2008 136.4423
L48.6294 136.4423
" />
<path d="M48.9151 136.4423
L48.9151 135.6423
" />
<path d="M48.9151 135.6423
L48.8199 135.7566
" />
<path d="M48.8199 135.7566
L48.7246 135.8328
" />
<path d="M48.7246 135.8328
L48.6294 135.8709
" />
</g></g>
<g style="fill:#000000; fill-opacity:0.0; 
stroke:#000000; stroke-width:0.1200; stroke-opacity:1; 
stroke-linecap:round; stroke-linejoin:round;">
<path d="M56.1100 90.6780
L55.4600 90.6780
" />
<path d="M55.4600 91.7980
L55.4600 89.5580
" />
<path d="M55.4600 89.5580
L51.2200 89.5580
" />
<path d="M54.8600 91.7980
L54.8600 89.5580
" />
<path d="M54.7400 91.7980
L54.7400 89.5580
" />
<path d="M54.6200 91.7980
L54.6200 89.5580
" />
<path d="M51.2200 91.7980
L55.4600 91.7980
" />
<path d="M51.2200 89.5580
L51.2200 91.7980
" />
<path d="M50.5700 90.6780
L51.2200 90.6780
" />
<path d="M50.5820 93.8260
L51.2320 93.8260
" />
<path d="M51.2320 92.7060
L51.2320 94.9460
" />
<path d="M51.2320 94.9460
L55.4720 94.9460
" />
<path d="M51.8320 92.7060
L51.8320 94.9460
" />
<path d="M51.9520 92.7060
L51.9520 94.9460
" />
<path d="M52.0720 92.7060
L52.0720 94.9460
" />
<path d="M55.4720 92.7060
L51.2320 92.7060
" />
<path d="M55.4720 94.9460
L55.4720 92.7060
" />
<path d="M56.1220 93.8260
L55.4720 93.8260
" />
<path d="M40.0600 45.1400
L40.0600 34.6400
" />
<path d="M36.0600 34.6400
L40.0600 34.6400
" />
<path d="M35.9600 45.1400
L40.0600 45.1400
" />
<path d="M31.0600 45.1400
L35.1600 45.1400
" />
<path d="M31.0600 45.1400
L31.0600 34.6400
" />
<path d="M31.0600 34.6400
L35.0600 34.6400
" />
<circle cx="35.5600" cy="40.6400" r="1.8000" /> 
<path d="M40.0600 65.4600
L40.0600 54.9600
" />
<path d="M36.0600 54.9600
L40.0600 54.9600
" />
<path d="M35.9600 65.4600
L40.0600 65.4600
" />
<path d="M31.0600 65.4600
L35.1600 65.4600
" />
<path d="M31.0600 65.4600
L31.0600 54.9600
" />
<path d="M31.0600 54.9600
L35.0600 54.9600
" />
<circle cx="35.5600" cy="60.9600" r="1.8000" /> 
<path d="M31.0600 117.4200
L31.0600 127.9200
" />
<path d="M35.0600 127.9200
L31.0600 127.9200
" />
<path d="M35.1600 117.4200
L31.0600 117.4200
" />
<path d="M40.0600 117.4200
L35.9600 117.4200
" />
<path d="M40.0600 117.4200
L40.0600 127.9200
" />
<path d="M40.0600 127.9200
L36.0600 127.9200
" />
<circle cx="35.5600" cy="121.9200" r="1.8000" /> 
<path d="M41.2200 117.4200
L41.2200 127.9200
" />
<path d="M45.2200 127.9200
L41.2200 127.9200
" />
<path d="M45.3200 117.4200
L41.2200 117.4200
" />
<path d="M50.2200 117.4200
L46.1200 117.4200
" />
<path d="M50.2200 117.4200
L50.2200 127.9200
" />
<path d="M50.2200 127.9200
L46.2200 127.9200
" />
<circle cx="45.7200" cy="121.9200" r="1.8000" /> 
<path d="M51.3800 117.4200
L51.3800 127.9200
" />
<path d="M55.3800 127.9200
L51.3800 127.9200
" />
<path d="M55.4800 117.4200
L51.3800 117.4200
" />
<path d="M60.3800 117.4200
L56.2800 117.4200
" />
<path d="M60.3800 117.4200
L60.3800 127.9200
" />
<path d="M60.3800 127.9200
L56.3800 127.9200
" />
<circle cx="55.8800" cy="121.9200" r="1.8000" /> 
<path d="M32.5360 76.2000
L33.3060 76.2000
" />
<path d="M33.3060 74.8300
L33.3060 77.5700
" />
<path d="M33.3060 77.5700
L39.8460 77.5700
" />
<path d="M39.8460 74.8300
L33.3060 74.8300
" />
<path d="M39.8460 77.5700
L39.8460 74.8300
" />
<path d="M40.6160 76.2000
L39.8460 76.2000
" />
<path d="M44.2200 112.2680
L44.9900 112.2680
" />
<path d="M44.9900 110.8980
L44.9900 113.6380
" />
<path d="M44.9900 113.6380
L51.5300 113.6380
" />
<path d="M51.5300 110.8980
L44.9900 110.8980
" />
<path d="M51.5300 113.6380
L51.5300 110.8980
" />
<path d="M52.3000 112.2680
L51.5300 112.2680
" />
<path d="M32.7900 99.0600
L33.5600 99.0600
" />
<path d="M33.5600 97.6900
L33.5600 100.4300
" />
<path d="M33.5600 100.4300
L40.1000 100.4300
" />
<path d="M40.1000 97.6900
L33.5600 97.6900
" />
<path d="M40.1000 100.4300
L40.1000 97.6900
" />
<path d="M40.8700 99.0600
L40.1000 99.0600
" />
<path d="M46.4820 106.9100
L46.4820 106.1400
" />
<path d="M45.1120 106.1400
L47.8520 106.1400
" />
<path d="M47.8520 106.1400
L47.8520 99.6000
" />
<path d="M45.1120 99.6000
L45.1120 106.1400
" />
<path d="M47.8520 99.6000
L45.1120 99.6000
" />
<path d="M46.4820 98.8300
L46.4820 99.6000
" />
<path d="M32.7900 103.6320
L33.5600 103.6320
" />
<path d="M33.5600 102.2620
L33.5600 105.0020
" />
<path d="M33.5600 105.0020
L40.1000 105.0020
" />
<path d="M40.1000 102.2620
L33.5600 102.2620
" />
<path d="M40.1000 105.0020
L40.1000 102.2620
" />
<path d="M40.8700 103.6320
L40.1000 103.6320
" />
<path d="M32.7900 108.2040
L33.5600 108.2040
" />
<path d="M33.5600 106.8340
L33.5600 109.5740
" />
<path d="M33.5600 109.5740
L40.1000 109.5740
" />
<path d="M40.1000 106.8340
L33.5600 106.8340
" />
<path d="M40.1000 109.5740
L40.1000 106.8340
" />
<path d="M40.8700 108.2040
L40.1000 108.2040
" />
<path d="M50.9600 47.2600
L50.9600 42.5400
" />
<path d="M52.1500 47.2600
L50.9700 47.2600
" />
<path d="M55.0500 47.2600
L54.5200 47.2600
" />
<path d="M57.5000 47.2600
L56.6700 47.2600
" />
<path d="M60.7100 47.2600
L59.2200 47.2600
" />
<path d="M60.7100 47.2600
L60.7100 42.5400
" />
<path d="M50.9700 38.7300
L50.9700 35.6700
" />
<path d="M60.7100 38.7300
L60.7100 35.6700
" />
<path d="M60.7100 35.6700
L50.9700 35.6700
" />
<path d="M50.9600 67.5800
L50.9600 62.8600
" />
<path d="M52.1500 67.5800
L50.9700 67.5800
" />
<path d="M55.0500 67.5800
L54.5200 67.5800
" />
<path d="M57.5000 67.5800
L56.6700 67.5800
" />
<path d="M60.7100 67.5800
L59.2200 67.5800
" />
<path d="M60.7100 67.5800
L60.7100 62.8600
" />
<path d="M50.9700 59.0500
L50.9700 55.9900
" />
<path d="M60.7100 59.0500
L60.7100 55.9900
" />
<path d="M60.7100 55.9900
L50.9700 55.9900
" />
<path d="M50.9600 108.2200
L50.9600 103.5000
" />
<path d="M52.1500 108.2200
L50.9700 108.2200
" />
<path d="M55.0500 108.2200
L54.5200 108.2200
" />
<path d="M57.5000 108.2200
L56.6700 108.2200
" />
<path d="M60.7100 108.2200
L59.2200 108.2200
" />
<path d="M60.7100 108.2200
L60.7100 103.5000
" />
<path d="M50.9700 99.6900
L50.9700 96.6300
" />
<path d="M60.7100 99.6900
L60.7100 96.6300
" />
<path d="M60.7100 96.6300
L50.9700 96.6300
" />
</g>
<g style="fill:#000000; fill-opacity:0.0; 
stroke:#000000; stroke-width:0.1250; stroke-opacity:1; 
stroke-linecap:round; stroke-linejoin:round;">
<path d="M51.8800 87.7800
L51.8800 74.7800
" />
<path d="M51.9800 74.6800
L59.7800 74.6800
" />
<path d="M59.7800 87.8800
L51.9800 87.8800
" />
<path d="M59.8800 74.7800
L59.8800 87.7800
" />
<path d="M52.0065 74.6760 A0.1270 0.1270 0.0 0 0 51.8795 74.8030" />
<path d="M51.8795 87.7570 A0.1270 0.1270 0.0 0 0 52.0065 87.8840" />
<path d="M59.8805 74.8030 A0.1270 0.1270 0.0 0 0 59.7535 74.6760" />
<path d="M59.7535 87.8840 A0.1270 0.1270 0.0 0 0 59.8805 87.7570" />
<circle cx="55.8800" cy="81.2800" r="2.8055" /> 
<circle cx="55.8800" cy="81.2800" r="1.6813" /> 
<circle cx="55.8800" cy="81.2800" r="3.0000" /> 
<g >
</g>
<g >
</g>
<g >
</g>
<g >
</g>
<g >
</g>
<g >
</g>
<g >
</g>
<g >
</g>
<g >
</g>
<g >
</g>
<g >
</g>
<g >
</g>
<g >
</g>
<g >
</g>
<g >
</g>
<g >
</g>
<g >
</g>
<g >
</g>
<g >
</g>
<g >
</g>
<g >
</g>
<g >
</g>
<g >
</g>
<g >
</g>
<g >
</g>
<g >
</g>
</g>
<g style="fill:#FFFFFF; fill-opacity:0.0; 
stroke:#FFFFFF; stroke-width:0.1250; stroke-opacity:1; 
stroke-linecap:round; stroke-linejoin:round;">
</g>
<g style="fill:#FFFFFF; fill-opacity:1.0000; 
stroke:#FFFFFF; stroke-width:0.0000; stroke-opacity:1; 
stroke-linecap:round; stroke-linejoin:round;">
<circle cx="27.9400" cy="27.9400" r="0.1750" /> 
</g>
<g style="fill:#FFFFFF; fill-opacity:1.0000; 
stroke:#FFFFFF; stroke-width:0.0212; stroke-opacity:1; 
stroke-linecap:round; stroke-linejoin:round;">
</g>
<g style="fill:#FFFFFF; fill-opacity:1.0000; 
stroke:#FFFFFF; stroke-width:0.0000; stroke-opacity:1; 
stroke-linecap:round; stroke-linejoin:round;">
<circle cx="63.1600" cy="27.9400" r="0.1750" /> 
</g>
<g style="fill:#FFFFFF; fill-opacity:1.0000; 
stroke:#FFFFFF; stroke-width:0.0212; stroke-opacity:1; 
stroke-linecap:round; stroke-linejoin:round;">
</g>
<g style="fill:#FFFFFF; fill-opacity:1.0000; 
stroke:#FFFFFF; stroke-width:0.0000; stroke-opacity:1; 
stroke-linecap:round; stroke-linejoin:round;">
<circle cx="63.1600" cy="134.6200" r="0.1750" /> 
</g>
<g style="fill:#FFFFFF; fill-opacity:1.0000; 
stroke:#FFFFFF; stroke-width:0.0212; stroke-opacity:1; 
stroke-linecap:round; stroke-linejoin:round;">
</g>
<g style="fill:#FFFFFF; fill-opacity:1.0000; 
stroke:#FFFFFF; stroke-width:0.0000; stroke-opacity:1; 
stroke-linecap:round; stroke-linejoin:round;">
<circle cx="27.9400" cy="134.6200" r="0.1750" /> 
</g>
<g style="fill:#FFFFFF; fill-opacity:1.0000; 
stroke:#FFFFFF; stroke-width:0.0212; stroke-opacity:1; 
stroke-linecap:round; stroke-linejoin:round;">
</g>
<g style="fill:#FFFFFF; fill-opacity:1.0000; 
stroke:#FFFFFF; stroke-width:0.0000; stroke-opacity:1; 
stroke-linecap:round; stroke-linejoin:round;">
<circle cx="57.1500" cy="90.6780" r="0.1750" /> 
</g>
<g style="fill:#FFFFFF; fill-opacity:1.0000; 
stroke:#FFFFFF; stroke-width:0.0212; stroke-opacity:1; 
stroke-linecap:round; stroke-linejoin:round;">
</g>
<g style="fill:#FFFFFF; fill-opacity:1.0000; 
stroke:#FFFFFF; stroke-width:0.0000; stroke-opacity:1; 
stroke-linecap:round; stroke-linejoin:round;">
<circle cx="49.5300" cy="90.6780" r="0.1750" /> 
</g>
<g style="fill:#FFFFFF; fill-opacity:1.0000; 
stroke:#FFFFFF; stroke-width:0.0212; stroke-opacity:1; 
stroke-linecap:round; stroke-linejoin:round;">
</g>
<g style="fill:#FFFFFF; fill-opacity:1.0000; 
stroke:#FFFFFF; stroke-width:0.0000; stroke-opacity:1; 
stroke-linecap:round; stroke-linejoin:round;">
<circle cx="49.5420" cy="93.8260" r="0.1750" /> 
</g>
<g style="fill:#FFFFFF; fill-opacity:1.0000; 
stroke:#FFFFFF; stroke-width:0.0212; stroke-opacity:1; 
stroke-linecap:round; stroke-linejoin:round;">
</g>
<g style="fill:#FFFFFF; fill-opacity:1.0000; 
stroke:#FFFFFF; stroke-width:0.0000; stroke-opacity:1; 
stroke-linecap:round; stroke-linejoin:round;">
<circle cx="57.1620" cy="93.8260" r="0.1750" /> 
</g>
<g style="fill:#FFFFFF; fill-opacity:1.0000; 
stroke:#FFFFFF; stroke-width:0.0212; stroke-opacity:1; 
stroke-linecap:round; stroke-linejoin:round;">
</g>
<g style="fill:#FFFFFF; fill-opacity:1.0000; 
stroke:#FFFFFF; stroke-width:0.0000; stroke-opacity:1; 
stroke-linecap:round; stroke-linejoin:round;">
<circle cx="35.5600" cy="47.1200" r="0.1750" /> 
</g>
<g style="fill:#FFFFFF; fill-opacity:1.0000; 
stroke:#FFFFFF; stroke-width:0.0212; stroke-opacity:1; 
stroke-linecap:round; stroke-linejoin:round;">
</g>
<g style="fill:#FFFFFF; fill-opacity:1.0000; 
stroke:#FFFFFF; stroke-width:0.0000; stroke-opacity:1; 
stroke-linecap:round; stroke-linejoin:round;">
<circle cx="35.5600" cy="35.7200" r="0.1750" /> 
</g>
<g style="fill:#FFFFFF; fill-opacity:1.0000; 
stroke:#FFFFFF; stroke-width:0.0212; stroke-opacity:1; 
stroke-linecap:round; stroke-linejoin:round;">
</g>
<g style="fill:#FFFFFF; fill-opacity:1.0000; 
stroke:#FFFFFF; stroke-width:0.0000; stroke-opacity:1; 
stroke-linecap:round; stroke-linejoin:round;">
<circle cx="35.5600" cy="44.0200" r="0.1750" /> 
</g>
<g style="fill:#FFFFFF; fill-opacity:1.0000; 
stroke:#FFFFFF; stroke-width:0.0212; stroke-opacity:1; 
stroke-linecap:round; stroke-linejoin:round;">
</g>
<g style="fill:#FFFFFF; fill-opacity:1.0000; 
stroke:#FFFFFF; stroke-width:0.0000; stroke-opacity:1; 
stroke-linecap:round; stroke-linejoin:round;">
<circle cx="35.5600" cy="67.4400" r="0.1750" /> 
</g>
<g style="fill:#FFFFFF; fill-opacity:1.0000; 
stroke:#FFFFFF; stroke-width:0.0212; stroke-opacity:1; 
stroke-linecap:round; stroke-linejoin:round;">
</g>
<g style="fill:#FFFFFF; fill-opacity:1.0000; 
stroke:#FFFFFF; stroke-width:0.0000; stroke-opacity:1; 
stroke-linecap:round; stroke-linejoin:round;">
<circle cx="35.5600" cy="56.0400" r="0.1750" /> 
</g>
<g style="fill:#FFFFFF; fill-opacity:1.0000; 
stroke:#FFFFFF; stroke-width:0.0212; stroke-opacity:1; 
stroke-linecap:round; stroke-linejoin:round;">
</g>
<g style="fill:#FFFFFF; fill-opacity:1.0000; 
stroke:#FFFFFF; stroke-width:0.0000; stroke-opacity:1; 
stroke-linecap:round; stroke-linejoin:round;">
<circle cx="35.5600" cy="64.3400" r="0.1750" /> 
</g>
<g style="fill:#FFFFFF; fill-opacity:1.0000; 
stroke:#FFFFFF; stroke-width:0.0212; stroke-opacity:1; 
stroke-linecap:round; stroke-linejoin:round;">
</g>
<g style="fill:#FFFFFF; fill-opacity:1.0000; 
stroke:#FFFFFF; stroke-width:0.0000; stroke-opacity:1; 
stroke-linecap:round; stroke-linejoin:round;">
<circle cx="35.5600" cy="115.4400" r="0.1750" /> 
</g>
<g style="fill:#FFFFFF; fill-opacity:1.0000; 
stroke:#FFFFFF; stroke-width:0.0212; stroke-opacity:1; 
stroke-linecap:round; stroke-linejoin:round;">
</g>
<g style="fill:#FFFFFF; fill-opacity:1.0000; 
stroke:#FFFFFF; stroke-width:0.0000; stroke-opacity:1; 
stroke-linecap:round; stroke-linejoin:round;">
<circle cx="35.5600" cy="126.8400" r="0.1750" /> 
</g>
<g style="fill:#FFFFFF; fill-opacity:1.0000; 
stroke:#FFFFFF; stroke-width:0.0212; stroke-opacity:1; 
stroke-linecap:round; stroke-linejoin:round;">
</g>
<g style="fill:#FFFFFF; fill-opacity:1.0000; 
stroke:#FFFFFF; stroke-width:0.0000; stroke-opacity:1; 
stroke-linecap:round; stroke-linejoin:round;">
<circle cx="35.5600" cy="118.5400" r="0.1750" /> 
</g>
<g style="fill:#FFFFFF; fill-opacity:1.0000; 
stroke:#FFFFFF; stroke-width:0.0212; stroke-opacity:1; 
stroke-linecap:round; stroke-linejoin:round;">
</g>
<g style="fill:#FFFFFF; fill-opacity:1.0000; 
stroke:#FFFFFF; stroke-width:0.0000; stroke-opacity:1; 
stroke-linecap:round; stroke-linejoin:round;">
<circle cx="45.7200" cy="115.4400" r="0.1750" /> 
</g>
<g style="fill:#FFFFFF; fill-opacity:1.0000; 
stroke:#FFFFFF; stroke-width:0.0212; stroke-opacity:1; 
stroke-linecap:round; stroke-linejoin:round;">
</g>
<g style="fill:#FFFFFF; fill-opacity:1.0000; 
stroke:#FFFFFF; stroke-width:0.0000; stroke-opacity:1; 
stroke-linecap:round; stroke-linejoin:round;">
<circle cx="45.7200" cy="126.8400" r="0.1750" /> 
</g>
<g style="fill:#FFFFFF; fill-opacity:1.0000; 
stroke:#FFFFFF; stroke-width:0.0212; stroke-opacity:1; 
stroke-linecap:round; stroke-linejoin:round;">
</g>
<g style="fill:#FFFFFF; fill-opacity:1.0000; 
stroke:#FFFFFF; stroke-width:0.0000; stroke-opacity:1; 
stroke-linecap:round; stroke-linejoin:round;">
<circle cx="45.7200" cy="118.5400" r="0.1750" /> 
</g>
<g style="fill:#FFFFFF; fill-opacity:1.0000; 
stroke:#FFFFFF; stroke-width:0.0212; stroke-opacity:1; 
stroke-linecap:round; stroke-linejoin:round;">
</g>
<g style="fill:#FFFFFF; fill-opacity:1.0000; 
stroke:#FFFFFF; stroke-width:0.0000; stroke-opacity:1; 
stroke-linecap:round; stroke-linejoin:round;">
<circle cx="55.8800" cy="115.4400" r="0.1750" /> 
</g>
<g style="fill:#FFFFFF; fill-opacity:1.0000; 
stroke:#FFFFFF; stroke-width:0.0212; stroke-opacity:1; 
stroke-linecap:round; stroke-linejoin:round;">
</g>
<g style="fill:#FFFFFF; fill-opacity:1.0000; 
stroke:#FFFFFF; stroke-width:0.0000; stroke-opacity:1; 
stroke-linecap:round; stroke-linejoin:round;">
<circle cx="55.8800" cy="126.8400" r="0.1750" /> 
</g>
<g style="fill:#FFFFFF; fill-opacity:1.0000; 
stroke:#FFFFFF; stroke-width:0.0212; stroke-opacity:1; 
stroke-linecap:round; stroke-linejoin:round;">
</g>
<g style="fill:#FFFFFF; fill-opacity:1.0000; 
stroke:#FFFFFF; stroke-width:0.0000; stroke-opacity:1; 
stroke-linecap:round; stroke-linejoin:round;">
<circle cx="55.8800" cy="118.5400" r="0.1750" /> 
</g>
<g style="fill:#FFFFFF; fill-opacity:1.0000; 
stroke:#FFFFFF; stroke-width:0.0212; stroke-opacity:1; 
stroke-linecap:round; stroke-linejoin:round;">
</g>
<g style="fill:#FFFFFF; fill-opacity:1.0000; 
stroke:#FFFFFF; stroke-width:0.0000; stroke-opacity:1; 
stroke-linecap:round; stroke-linejoin:round;">
<circle cx="31.4960" cy="76.2000" r="0.1750" /> 
</g>
<g style="fill:#FFFFFF; fill-opacity:1.0000; 
stroke:#FFFFFF; stroke-width:0.0212; stroke-opacity:1; 
stroke-linecap:round; stroke-linejoin:round;">
</g>
<g style="fill:#FFFFFF; fill-opacity:1.0000; 
stroke:#FFFFFF; stroke-width:0.0000; stroke-opacity:1; 
stroke-linecap:round; stroke-linejoin:round;">
<circle cx="41.6560" cy="76.2000" r="0.1750" /> 
</g>
<g style="fill:#FFFFFF; fill-opacity:1.0000; 
stroke:#FFFFFF; stroke-width:0.0212; stroke-opacity:1; 
stroke-linecap:round; stroke-linejoin:round;">
</g>
<g style="fill:#FFFFFF; fill-opacity:1.0000; 
stroke:#FFFFFF; stroke-width:0.0000; stroke-opacity:1; 
stroke-linecap:round; stroke-linejoin:round;">
<circle cx="43.1800" cy="112.2680" r="0.1750" /> 
</g>
<g style="fill:#FFFFFF; fill-opacity:1.0000; 
stroke:#FFFFFF; stroke-width:0.0212; stroke-opacity:1; 
stroke-linecap:round; stroke-linejoin:round;">
</g>
<g style="fill:#FFFFFF; fill-opacity:1.0000; 
stroke:#FFFFFF; stroke-width:0.0000; stroke-opacity:1; 
stroke-linecap:round; stroke-linejoin:round;">
<circle cx="53.3400" cy="112.2680" r="0.1750" /> 
</g>
<g style="fill:#FFFFFF; fill-opacity:1.0000; 
stroke:#FFFFFF; stroke-width:0.0212; stroke-opacity:1; 
stroke-linecap:round; stroke-linejoin:round;">
</g>
<g style="fill:#FFFFFF; fill-opacity:1.0000; 
stroke:#FFFFFF; stroke-width:0.0000; stroke-opacity:1; 
stroke-linecap:round; stroke-linejoin:round;">
<circle cx="31.7500" cy="99.0600" r="0.1750" /> 
</g>
<g style="fill:#FFFFFF; fill-opacity:1.0000; 
stroke:#FFFFFF; stroke-width:0.0212; stroke-opacity:1; 
stroke-linecap:round; stroke-linejoin:round;">
</g>
<g style="fill:#FFFFFF; fill-opacity:1.0000; 
stroke:#FFFFFF; stroke-width:0.0000; stroke-opacity:1; 
stroke-linecap:round; stroke-linejoin:round;">
<circle cx="41.9100" cy="99.0600" r="0.1750" /> 
</g>
<g style="fill:#FFFFFF; fill-opacity:1.0000; 
stroke:#FFFFFF; stroke-width:0.0212; stroke-opacity:1; 
stroke-linecap:round; stroke-linejoin:round;">
</g>
<g style="fill:#FFFFFF; fill-opacity:1.0000; 
stroke:#FFFFFF; stroke-width:0.0000; stroke-opacity:1; 
stroke-linecap:round; stroke-linejoin:round;">
<circle cx="46.4820" cy="107.9500" r="0.1750" /> 
</g>
<g style="fill:#FFFFFF; fill-opacity:1.0000; 
stroke:#FFFFFF; stroke-width:0.0212; stroke-opacity:1; 
stroke-linecap:round; stroke-linejoin:round;">
</g>
<g style="fill:#FFFFFF; fill-opacity:1.0000; 
stroke:#FFFFFF; stroke-width:0.0000; stroke-opacity:1; 
stroke-linecap:round; stroke-linejoin:round;">
<circle cx="46.4820" cy="97.7900" r="0.1750" /> 
</g>
<g style="fill:#FFFFFF; fill-opacity:1.0000; 
stroke:#FFFFFF; stroke-width:0.0212; stroke-opacity:1; 
stroke-linecap:round; stroke-linejoin:round;">
</g>
<g style="fill:#FFFFFF; fill-opacity:1.0000; 
stroke:#FFFFFF; stroke-width:0.0000; stroke-opacity:1; 
stroke-linecap:round; stroke-linejoin:round;">
<circle cx="31.7500" cy="103.6320" r="0.1750" /> 
</g>
<g style="fill:#FFFFFF; fill-opacity:1.0000; 
stroke:#FFFFFF; stroke-width:0.0212; stroke-opacity:1; 
stroke-linecap:round; stroke-linejoin:round;">
</g>
<g style="fill:#FFFFFF; fill-opacity:1.0000; 
stroke:#FFFFFF; stroke-width:0.0000; stroke-opacity:1; 
stroke-linecap:round; stroke-linejoin:round;">
<circle cx="41.9100" cy="103.6320" r="0.1750" /> 
</g>
<g style="fill:#FFFFFF; fill-opacity:1.0000; 
stroke:#FFFFFF; stroke-width:0.0212; stroke-opacity:1; 
stroke-linecap:round; stroke-linejoin:round;">
</g>
<g style="fill:#FFFFFF; fill-opacity:1.0000; 
stroke:#FFFFFF; stroke-width:0.0000; stroke-opacity:1; 
stroke-linecap:round; stroke-linejoin:round;">
<circle cx="31.7500" cy="108.2040" r="0.1750" /> 
</g>
<g style="fill:#FFFFFF; fill-opacity:1.0000; 
stroke:#FFFFFF; stroke-width:0.0212; stroke-opacity:1; 
stroke-linecap:round; stroke-linejoin:round;">
</g>
<g style="fill:#FFFFFF; fill-opacity:1.0000; 
stroke:#FFFFFF; stroke-width:0.0000; stroke-opacity:1; 
stroke-linecap:round; stroke-linejoin:round;">
<circle cx="41.9100" cy="108.2040" r="0.1750" /> 
</g>
<g style="fill:#FFFFFF; fill-opacity:1.0000; 
stroke:#FFFFFF; stroke-width:0.0212; stroke-opacity:1; 
stroke-linecap:round; stroke-linejoin:round;">
</g>
<g style="fill:#FFFFFF; fill-opacity:1.0000; 
stroke:#FFFFFF; stroke-width:1.1000; stroke-opacity:1; 
stroke-linecap:round; stroke-linejoin:round;">
</g>
<g style="fill:#FFFFFF; fill-opacity:0.0; 
stroke:#FFFFFF; stroke-width:1.1000; stroke-opacity:1; 
stroke-linecap:round; stroke-linejoin:round;">
<path d="M51.0400 40.9900
L51.0400 40.2900
" />
<path d="M60.6400 40.9900
L60.6400 40.2900
" />
</g>
<g style="fill:#FFFFFF; fill-opacity:1.0000; 
stroke:#FFFFFF; stroke-width:0.0000; stroke-opacity:1; 
stroke-linecap:round; stroke-linejoin:round;">
<circle cx="53.3400" cy="48.1400" r="0.1750" /> 
</g>
<g style="fill:#FFFFFF; fill-opacity:1.0000; 
stroke:#FFFFFF; stroke-width:0.0212; stroke-opacity:1; 
stroke-linecap:round; stroke-linejoin:round;">
</g>
<g style="fill:#FFFFFF; fill-opacity:1.0000; 
stroke:#FFFFFF; stroke-width:0.0000; stroke-opacity:1; 
stroke-linecap:round; stroke-linejoin:round;">
<circle cx="55.8400" cy="48.1400" r="0.1750" /> 
</g>
<g style="fill:#FFFFFF; fill-opacity:1.0000; 
stroke:#FFFFFF; stroke-width:0.0212; stroke-opacity:1; 
stroke-linecap:round; stroke-linejoin:round;">
</g>
<g style="fill:#FFFFFF; fill-opacity:1.0000; 
stroke:#FFFFFF; stroke-width:0.0000; stroke-opacity:1; 
stroke-linecap:round; stroke-linejoin:round;">
<circle cx="58.3400" cy="48.1400" r="0.1750" /> 
</g>
<g style="fill:#FFFFFF; fill-opacity:1.0000; 
stroke:#FFFFFF; stroke-width:0.0212; stroke-opacity:1; 
stroke-linecap:round; stroke-linejoin:round;">
</g>
<g style="fill:#FFFFFF; fill-opacity:1.0000; 
stroke:#FFFFFF; stroke-width:1.1000; stroke-opacity:1; 
stroke-linecap:round; stroke-linejoin:round;">
</g>
<g style="fill:#FFFFFF; fill-opacity:0.0; 
stroke:#FFFFFF; stroke-width:1.1000; stroke-opacity:1; 
stroke-linecap:round; stroke-linejoin:round;">
<path d="M51.0400 61.3100
L51.0400 60.6100
" />
<path d="M60.6400 61.3100
L60.6400 60.6100
" />
</g>
<g style="fill:#FFFFFF; fill-opacity:1.0000; 
stroke:#FFFFFF; stroke-width:0.0000; stroke-opacity:1; 
stroke-linecap:round; stroke-linejoin:round;">
<circle cx="53.3400" cy="68.4600" r="0.1750" /> 
</g>
<g style="fill:#FFFFFF; fill-opacity:1.0000; 
stroke:#FFFFFF; stroke-width:0.0212; stroke-opacity:1; 
stroke-linecap:round; stroke-linejoin:round;">
</g>
<g style="fill:#FFFFFF; fill-opacity:1.0000; 
stroke:#FFFFFF; stroke-width:0.0000; stroke-opacity:1; 
stroke-linecap:round; stroke-linejoin:round;">
<circle cx="55.8400" cy="68.4600" r="0.1750" /> 
</g>
<g style="fill:#FFFFFF; fill-opacity:1.0000; 
stroke:#FFFFFF; stroke-width:0.0212; stroke-opacity:1; 
stroke-linecap:round; stroke-linejoin:round;">
</g>
<g style="fill:#FFFFFF; fill-opacity:1.0000; 
stroke:#FFFFFF; stroke-width:0.0000; stroke-opacity:1; 
stroke-linecap:round; stroke-linejoin:round;">
<circle cx="58.3400" cy="68.4600" r="0.1750" /> 
</g>
<g style="fill:#FFFFFF; fill-opacity:1.0000; 
stroke:#FFFFFF; stroke-width:0.0212; stroke-opacity:1; 
stroke-linecap:round; stroke-linejoin:round;">
</g>
<g style="fill:#FFFFFF; fill-opacity:1.0000; 
stroke:#FFFFFF; stroke-width:1.1000; stroke-opacity:1; 
stroke-linecap:round; stroke-linejoin:round;">
</g>
<g style="fill:#FFFFFF; fill-opacity:0.0; 
stroke:#FFFFFF; stroke-width:1.1000; stroke-opacity:1; 
stroke-linecap:round; stroke-linejoin:round;">
<path d="M51.0400 101.9500
L51.0400 101.2500
" />
<path d="M60.6400 101.9500
L60.6400 101.2500
" />
</g>
<g style="fill:#FFFFFF; fill-opacity:1.0000; 
stroke:#FFFFFF; stroke-width:0.0000; stroke-opacity:1; 
stroke-linecap:round; stroke-linejoin:round;">
<circle cx="53.3400" cy="109.1000" r="0.1750" /> 
</g>
<g style="fill:#FFFFFF; fill-opacity:1.0000; 
stroke:#FFFFFF; stroke-width:0.0212; stroke-opacity:1; 
stroke-linecap:round; stroke-linejoin:round;">
</g>
<g style="fill:#FFFFFF; fill-opacity:1.0000; 
stroke:#FFFFFF; stroke-width:0.0000; stroke-opacity:1; 
stroke-linecap:round; stroke-linejoin:round;">
<circle cx="55.8400" cy="109.1000" r="0.1750" /> 
</g>
<g style="fill:#FFFFFF; fill-opacity:1.0000; 
stroke:#FFFFFF; stroke-width:0.0212; stroke-opacity:1; 
stroke-linecap:round; stroke-linejoin:round;">
</g>
<g style="fill:#FFFFFF; fill-opacity:1.0000; 
stroke:#FFFFFF; stroke-width:0.0000; stroke-opacity:1; 
stroke-linecap:round; stroke-linejoin:round;">
<circle cx="58.3400" cy="109.1000" r="0.1750" /> 
</g>
<g style="fill:#FFFFFF; fill-opacity:1.0000; 
stroke:#FFFFFF; stroke-width:0.0212; stroke-opacity:1; 
stroke-linecap:round; stroke-linejoin:round;">
</g>
<g style="fill:#FFFFFF; fill-opacity:1.0000; 
stroke:#FFFFFF; stroke-width:1.2000; stroke-opacity:1; 
stroke-linecap:round; stroke-linejoin:round;">
</g>
<g style="fill:#FFFFFF; fill-opacity:0.0; 
stroke:#FFFFFF; stroke-width:1.2000; stroke-opacity:1; 
stroke-linecap:round; stroke-linejoin:round;">
<path d="M55.3800 76.5800
L56.3800 76.5800
" />
<path d="M55.3800 81.2800
L56.3800 81.2800
" />
<path d="M55.3800 85.9800
L56.3800 85.9800
" />
</g>
<g style="fill:#FFFFFF; fill-opacity:1.0000; 
stroke:#FFFFFF; stroke-width:0.0000; stroke-opacity:1; 
stroke-linecap:round; stroke-linejoin:round;">
<circle cx="27.4320" cy="73.6600" r="0.1750" /> 
</g>
<g style="fill:#FFFFFF; fill-opacity:1.0000; 
stroke:#FFFFFF; stroke-width:0.0212; stroke-opacity:1; 
stroke-linecap:round; stroke-linejoin:round;">
</g>
<g style="fill:#FFFFFF; fill-opacity:1.0000; 
stroke:#FFFFFF; stroke-width:0.0000; stroke-opacity:1; 
stroke-linecap:round; stroke-linejoin:round;">
<circle cx="27.4320" cy="76.2000" r="0.1750" /> 
</g>
<g style="fill:#FFFFFF; fill-opacity:1.0000; 
stroke:#FFFFFF; stroke-width:0.0212; stroke-opacity:1; 
stroke-linecap:round; stroke-linejoin:round;">
</g>
<g style="fill:#FFFFFF; fill-opacity:1.0000; 
stroke:#FFFFFF; stroke-width:0.0000; stroke-opacity:1; 
stroke-linecap:round; stroke-linejoin:round;">
<circle cx="27.4320" cy="78.7400" r="0.1750" /> 
</g>
<g style="fill:#FFFFFF; fill-opacity:1.0000; 
stroke:#FFFFFF; stroke-width:0.0212; stroke-opacity:1; 
stroke-linecap:round; stroke-linejoin:round;">
</g>
<g style="fill:#FFFFFF; fill-opacity:1.0000; 
stroke:#FFFFFF; stroke-width:0.0000; stroke-opacity:1; 
stroke-linecap:round; stroke-linejoin:round;">
<circle cx="27.4320" cy="81.2800" r="0.1750" /> 
</g>
<g style="fill:#FFFFFF; fill-opacity:1.0000; 
stroke:#FFFFFF; stroke-width:0.0212; stroke-opacity:1; 
stroke-linecap:round; stroke-linejoin:round;">
</g>
<g style="fill:#FFFFFF; fill-opacity:1.0000; 
stroke:#FFFFFF; stroke-width:0.0000; stroke-opacity:1; 
stroke-linecap:round; stroke-linejoin:round;">
<circle cx="27.4320" cy="83.8200" r="0.1750" /> 
</g>
<g style="fill:#FFFFFF; fill-opacity:1.0000; 
stroke:#FFFFFF; stroke-width:0.0212; stroke-opacity:1; 
stroke-linecap:round; stroke-linejoin:round;">
</g>
<g style="fill:#FFFFFF; fill-opacity:1.0000; 
stroke:#FFFFFF; stroke-width:0.0000; stroke-opacity:1; 
stroke-linecap:round; stroke-linejoin:round;">
<circle cx="27.4320" cy="86.3600" r="0.1750" /> 
</g>
<g style="fill:#FFFFFF; fill-opacity:1.0000; 
stroke:#FFFFFF; stroke-width:0.0212; stroke-opacity:1; 
stroke-linecap:round; stroke-linejoin:round;">
</g>
<g style="fill:#FFFFFF; fill-opacity:1.0000; 
stroke:#FFFFFF; stroke-width:0.0000; stroke-opacity:1; 
stroke-linecap:round; stroke-linejoin:round;">
<circle cx="27.4320" cy="88.9000" r="0.1750" /> 
</g>
<g style="fill:#FFFFFF; fill-opacity:1.0000; 
stroke:#FFFFFF; stroke-width:0.0212; stroke-opacity:1; 
stroke-linecap:round; stroke-linejoin:round;">
</g>
<g style="fill:#FFFFFF; fill-opacity:1.0000; 
stroke:#FFFFFF; stroke-width:0.0000; stroke-opacity:1; 
stroke-linecap:round; stroke-linejoin:round;">
<circle cx="27.4320" cy="91.4400" r="0.1750" /> 
</g>
<g style="fill:#FFFFFF; fill-opacity:1.0000; 
stroke:#FFFFFF; stroke-width:0.0212; stroke-opacity:1; 
stroke-linecap:round; stroke-linejoin:round;">
</g>
<g style="fill:#FFFFFF; fill-opacity:1.0000; 
stroke:#FFFFFF; stroke-width:0.0000; stroke-opacity:1; 
stroke-linecap:round; stroke-linejoin:round;">
<circle cx="27.4320" cy="93.9800" r="0.1750" /> 
</g>
<g style="fill:#FFFFFF; fill-opacity:1.0000; 
stroke:#FFFFFF; stroke-width:0.0212; stroke-opacity:1; 
stroke-linecap:round; stroke-linejoin:round;">
</g>
<g style="fill:#FFFFFF; fill-opacity:1.0000; 
stroke:#FFFFFF; stroke-width:0.0000; stroke-opacity:1; 
stroke-linecap:round; stroke-linejoin:round;">
<circle cx="27.4320" cy="96.5200" r="0.1750" /> 
</g>
<g style="fill:#FFFFFF; fill-opacity:1.0000; 
stroke:#FFFFFF; stroke-width:0.0212; stroke-opacity:1; 
stroke-linecap:round; stroke-linejoin:round;">
</g>
<g style="fill:#FFFFFF; fill-opacity:1.0000; 
stroke:#FFFFFF; stroke-width:0.0000; stroke-opacity:1; 
stroke-linecap:round; stroke-linejoin:round;">
<circle cx="27.4320" cy="99.0600" r="0.1750" /> 
</g>
<g style="fill:#FFFFFF; fill-opacity:1.0000; 
stroke:#FFFFFF; stroke-width:0.0212; stroke-opacity:1; 
stroke-linecap:round; stroke-linejoin:round;">
</g>
<g style="fill:#FFFFFF; fill-opacity:1.0000; 
stroke:#FFFFFF; stroke-width:0.0000; stroke-opacity:1; 
stroke-linecap:round; stroke-linejoin:round;">
<circle cx="27.4320" cy="101.6000" r="0.1750" /> 
</g>
<g style="fill:#FFFFFF; fill-opacity:1.0000; 
stroke:#FFFFFF; stroke-width:0.0212; stroke-opacity:1; 
stroke-linecap:round; stroke-linejoin:round;">
</g>
<g style="fill:#FFFFFF; fill-opacity:1.0000; 
stroke:#FFFFFF; stroke-width:0.0000; stroke-opacity:1; 
stroke-linecap:round; stroke-linejoin:round;">
<circle cx="27.4320" cy="104.1400" r="0.1750" /> 
</g>
<g style="fill:#FFFFFF; fill-opacity:1.0000; 
stroke:#FFFFFF; stroke-width:0.0212; stroke-opacity:1; 
stroke-linecap:round; stroke-linejoin:round;">
</g>
<g style="fill:#FFFFFF; fill-opacity:1.0000; 
stroke:#FFFFFF; stroke-width:0.0000; stroke-opacity:1; 
stroke-linecap:round; stroke-linejoin:round;">
<circle cx="27.4320" cy="106.6800" r="0.1750" /> 
</g>
<g style="fill:#FFFFFF; fill-opacity:1.0000; 
stroke:#FFFFFF; stroke-width:0.0212; stroke-opacity:1; 
stroke-linecap:round; stroke-linejoin:round;">
</g>
<g style="fill:#000000; fill-opacity:1.0000; 
stroke:#000000; stroke-width:0.0212; stroke-opacity:1; 
stroke-linecap:round; stroke-linejoin:round;">
</g> 
</svg>
