<?xml version="1.0" standalone="no"?>
 <!DOCTYPE svg PUBLIC "-//W3C//DTD SVG 1.1//EN" 
 "http://www.w3.org/Graphics/SVG/1.1/DTD/svg11.dtd"> 
<svg
  xmlns:svg="http://www.w3.org/2000/svg"
  xmlns="http://www.w3.org/2000/svg"
  xmlns:xlink="http://www.w3.org/1999/xlink"
  version="1.1"
  width="297.0022mm" height="210.0072mm" viewBox="0.0000 0.0000 297.0022 210.0072">
<title>SVG Image created as main-B_Fab.svg date 2023/11/08 17:08:21 </title>
  <desc>Image generated by PCBNEW </desc>
<g style="fill:#000000; fill-opacity:1.0000;stroke:#000000; stroke-opacity:1.0000;
stroke-linecap:round; stroke-linejoin:round;"
 transform="translate(0 0) scale(1 1)">
</g>
<g style="fill:#000000; fill-opacity:0.0; 
stroke:#000000; stroke-width:0.0000; stroke-opacity:1; 
stroke-linecap:round; stroke-linejoin:round;">
</g>
<g style="fill:#000000; fill-opacity:0.0; 
stroke:#000000; stroke-width:0.1500; stroke-opacity:1; 
stroke-linecap:round; stroke-linejoin:round;">
<g transform="rotate(-90.000000 64.0040 56.1340)">
<text x="64.0040" y="56.6340"
transform="scale(-1 1) translate(-128.008000 0)"
textLength="5.6310" font-size="1.3333" lengthAdjust="spacingAndGlyphs"
text-anchor="middle" opacity="0">10 Pos</text>
</g>
<g class="stroked-text"><desc>10 Pos</desc>
<path d="M64.4588 54.2054
L64.4588 53.6340
" />
<path d="M64.4588 53.9197
L63.4588 53.9197
" />
<path d="M63.4588 53.9197
L63.6017 53.8245
" />
<path d="M63.6017 53.8245
L63.6969 53.7292
" />
<path d="M63.6969 53.7292
L63.7445 53.6340
" />
<path d="M63.4588 54.8245
L63.4588 54.9197
" />
<path d="M63.4588 54.9197
L63.5064 55.0150
" />
<path d="M63.5064 55.0150
L63.5541 55.0626
" />
<path d="M63.5541 55.0626
L63.6493 55.1102
" />
<path d="M63.6493 55.1102
L63.8398 55.1578
" />
<path d="M63.8398 55.1578
L64.0779 55.1578
" />
<path d="M64.0779 55.1578
L64.2683 55.1102
" />
<path d="M64.2683 55.1102
L64.3636 55.0626
" />
<path d="M64.3636 55.0626
L64.4112 55.0150
" />
<path d="M64.4112 55.0150
L64.4588 54.9197
" />
<path d="M64.4588 54.9197
L64.4588 54.8245
" />
<path d="M64.4588 54.8245
L64.4112 54.7292
" />
<path d="M64.4112 54.7292
L64.3636 54.6816
" />
<path d="M64.3636 54.6816
L64.2683 54.6340
" />
<path d="M64.2683 54.6340
L64.0779 54.5864
" />
<path d="M64.0779 54.5864
L63.8398 54.5864
" />
<path d="M63.8398 54.5864
L63.6493 54.6340
" />
<path d="M63.6493 54.6340
L63.5541 54.6816
" />
<path d="M63.5541 54.6816
L63.5064 54.7292
" />
<path d="M63.5064 54.7292
L63.4588 54.8245
" />
<path d="M64.4588 56.3483
L63.4588 56.3483
" />
<path d="M63.4588 56.3483
L63.4588 56.7292
" />
<path d="M63.4588 56.7292
L63.5064 56.8245
" />
<path d="M63.5064 56.8245
L63.5541 56.8721
" />
<path d="M63.5541 56.8721
L63.6493 56.9197
" />
<path d="M63.6493 56.9197
L63.7922 56.9197
" />
<path d="M63.7922 56.9197
L63.8874 56.8721
" />
<path d="M63.8874 56.8721
L63.9350 56.8245
" />
<path d="M63.9350 56.8245
L63.9826 56.7292
" />
<path d="M63.9826 56.7292
L63.9826 56.3483
" />
<path d="M64.4588 57.4911
L64.4112 57.3959
" />
<path d="M64.4112 57.3959
L64.3636 57.3483
" />
<path d="M64.3636 57.3483
L64.2683 57.3007
" />
<path d="M64.2683 57.3007
L63.9826 57.3007
" />
<path d="M63.9826 57.3007
L63.8874 57.3483
" />
<path d="M63.8874 57.3483
L63.8398 57.3959
" />
<path d="M63.8398 57.3959
L63.7922 57.4911
" />
<path d="M63.7922 57.4911
L63.7922 57.6340
" />
<path d="M63.7922 57.6340
L63.8398 57.7292
" />
<path d="M63.8398 57.7292
L63.8874 57.7769
" />
<path d="M63.8874 57.7769
L63.9826 57.8245
" />
<path d="M63.9826 57.8245
L64.2683 57.8245
" />
<path d="M64.2683 57.8245
L64.3636 57.7769
" />
<path d="M64.3636 57.7769
L64.4112 57.7292
" />
<path d="M64.4112 57.7292
L64.4588 57.6340
" />
<path d="M64.4588 57.6340
L64.4588 57.4911
" />
<path d="M64.4112 58.2054
L64.4588 58.3007
" />
<path d="M64.4588 58.3007
L64.4588 58.4911
" />
<path d="M64.4588 58.4911
L64.4112 58.5864
" />
<path d="M64.4112 58.5864
L64.3160 58.6340
" />
<path d="M64.3160 58.6340
L64.2683 58.6340
" />
<path d="M64.2683 58.6340
L64.1731 58.5864
" />
<path d="M64.1731 58.5864
L64.1255 58.4911
" />
<path d="M64.1255 58.4911
L64.1255 58.3483
" />
<path d="M64.1255 58.3483
L64.0779 58.2530
" />
<path d="M64.0779 58.2530
L63.9826 58.2054
" />
<path d="M63.9826 58.2054
L63.9350 58.2054
" />
<path d="M63.9350 58.2054
L63.8398 58.2530
" />
<path d="M63.8398 58.2530
L63.7922 58.3483
" />
<path d="M63.7922 58.3483
L63.7922 58.4911
" />
<path d="M63.7922 58.4911
L63.8398 58.5864
" />
</g><text x="75.1840" y="56.6340"
transform="scale(-1 1) translate(-150.368000 0)"
textLength="1.9643" font-size="1.3333" lengthAdjust="spacingAndGlyphs"
text-anchor="middle" opacity="0">J1</text>
<g class="stroked-text"><desc>J1</desc>
<path d="M75.5173 55.5888
L75.5173 56.3031
" />
<path d="M75.5173 56.3031
L75.5650 56.4460
" />
<path d="M75.5650 56.4460
L75.6602 56.5412
" />
<path d="M75.6602 56.5412
L75.8030 56.5888
" />
<path d="M75.8030 56.5888
L75.8983 56.5888
" />
<path d="M74.5173 56.5888
L75.0888 56.5888
" />
<path d="M74.8030 56.5888
L74.8030 55.5888
" />
<path d="M74.8030 55.5888
L74.8983 55.7317
" />
<path d="M74.8983 55.7317
L74.9935 55.8269
" />
<path d="M74.9935 55.8269
L75.0888 55.8745
" />
</g><text x="84.8210" y="69.1610"
transform="scale(-1 1) translate(-169.642000 0)"
textLength="3.9167" font-size="1.3333" lengthAdjust="spacingAndGlyphs"
text-anchor="middle" opacity="0">100k</text>
<g class="stroked-text"><desc>100k</desc>
<path d="M85.8924 69.1158
L86.4639 69.1158
" />
<path d="M86.1781 69.1158
L86.1781 68.1158
" />
<path d="M86.1781 68.1158
L86.2734 68.2587
" />
<path d="M86.2734 68.2587
L86.3686 68.3539
" />
<path d="M86.3686 68.3539
L86.4639 68.4015
" />
<path d="M85.2734 68.1158
L85.1781 68.1158
" />
<path d="M85.1781 68.1158
L85.0829 68.1634
" />
<path d="M85.0829 68.1634
L85.0353 68.2111
" />
<path d="M85.0353 68.2111
L84.9877 68.3063
" />
<path d="M84.9877 68.3063
L84.9400 68.4968
" />
<path d="M84.9400 68.4968
L84.9400 68.7349
" />
<path d="M84.9400 68.7349
L84.9877 68.9253
" />
<path d="M84.9877 68.9253
L85.0353 69.0206
" />
<path d="M85.0353 69.0206
L85.0829 69.0682
" />
<path d="M85.0829 69.0682
L85.1781 69.1158
" />
<path d="M85.1781 69.1158
L85.2734 69.1158
" />
<path d="M85.2734 69.1158
L85.3686 69.0682
" />
<path d="M85.3686 69.0682
L85.4162 69.0206
" />
<path d="M85.4162 69.0206
L85.4639 68.9253
" />
<path d="M85.4639 68.9253
L85.5115 68.7349
" />
<path d="M85.5115 68.7349
L85.5115 68.4968
" />
<path d="M85.5115 68.4968
L85.4639 68.3063
" />
<path d="M85.4639 68.3063
L85.4162 68.2111
" />
<path d="M85.4162 68.2111
L85.3686 68.1634
" />
<path d="M85.3686 68.1634
L85.2734 68.1158
" />
<path d="M84.3210 68.1158
L84.2258 68.1158
" />
<path d="M84.2258 68.1158
L84.1305 68.1634
" />
<path d="M84.1305 68.1634
L84.0829 68.2111
" />
<path d="M84.0829 68.2111
L84.0353 68.3063
" />
<path d="M84.0353 68.3063
L83.9877 68.4968
" />
<path d="M83.9877 68.4968
L83.9877 68.7349
" />
<path d="M83.9877 68.7349
L84.0353 68.9253
" />
<path d="M84.0353 68.9253
L84.0829 69.0206
" />
<path d="M84.0829 69.0206
L84.1305 69.0682
" />
<path d="M84.1305 69.0682
L84.2258 69.1158
" />
<path d="M84.2258 69.1158
L84.3210 69.1158
" />
<path d="M84.3210 69.1158
L84.4162 69.0682
" />
<path d="M84.4162 69.0682
L84.4639 69.0206
" />
<path d="M84.4639 69.0206
L84.5115 68.9253
" />
<path d="M84.5115 68.9253
L84.5591 68.7349
" />
<path d="M84.5591 68.7349
L84.5591 68.4968
" />
<path d="M84.5591 68.4968
L84.5115 68.3063
" />
<path d="M84.5115 68.3063
L84.4639 68.2111
" />
<path d="M84.4639 68.2111
L84.4162 68.1634
" />
<path d="M84.4162 68.1634
L84.3210 68.1158
" />
<path d="M83.5591 69.1158
L83.5591 68.1158
" />
<path d="M83.4639 68.7349
L83.1781 69.1158
" />
<path d="M83.1781 68.4492
L83.5591 68.8301
" />
</g><g transform="rotate(-90.000000 81.0560 74.6760)">
<text x="81.0560" y="75.1760"
transform="scale(-1 1) translate(-162.112000 0)"
textLength="3.0595" font-size="1.3333" lengthAdjust="spacingAndGlyphs"
text-anchor="middle" opacity="0">RV1</text>
</g>
<g class="stroked-text"><desc>RV1</desc>
<path d="M81.5108 74.0808
L81.0346 73.7474
" />
<path d="M81.5108 73.5093
L80.5108 73.5093
" />
<path d="M80.5108 73.5093
L80.5108 73.8903
" />
<path d="M80.5108 73.8903
L80.5584 73.9855
" />
<path d="M80.5584 73.9855
L80.6061 74.0331
" />
<path d="M80.6061 74.0331
L80.7013 74.0808
" />
<path d="M80.7013 74.0808
L80.8442 74.0808
" />
<path d="M80.8442 74.0808
L80.9394 74.0331
" />
<path d="M80.9394 74.0331
L80.9870 73.9855
" />
<path d="M80.9870 73.9855
L81.0346 73.8903
" />
<path d="M81.0346 73.8903
L81.0346 73.5093
" />
<path d="M80.5108 74.3665
L81.5108 74.6998
" />
<path d="M81.5108 74.6998
L80.5108 75.0331
" />
<path d="M81.5108 75.8903
L81.5108 75.3189
" />
<path d="M81.5108 75.6046
L80.5108 75.6046
" />
<path d="M80.5108 75.6046
L80.6537 75.5093
" />
<path d="M80.6537 75.5093
L80.7489 75.4141
" />
<path d="M80.7489 75.4141
L80.7965 75.3189
" />
</g><text x="84.8210" y="133.1690"
transform="scale(-1 1) translate(-169.642000 0)"
textLength="3.9167" font-size="1.3333" lengthAdjust="spacingAndGlyphs"
text-anchor="middle" opacity="0">100k</text>
<g class="stroked-text"><desc>100k</desc>
<path d="M85.8924 133.1238
L86.4639 133.1238
" />
<path d="M86.1781 133.1238
L86.1781 132.1238
" />
<path d="M86.1781 132.1238
L86.2734 132.2667
" />
<path d="M86.2734 132.2667
L86.3686 132.3619
" />
<path d="M86.3686 132.3619
L86.4639 132.4095
" />
<path d="M85.2734 132.1238
L85.1781 132.1238
" />
<path d="M85.1781 132.1238
L85.0829 132.1714
" />
<path d="M85.0829 132.1714
L85.0353 132.2191
" />
<path d="M85.0353 132.2191
L84.9877 132.3143
" />
<path d="M84.9877 132.3143
L84.9400 132.5048
" />
<path d="M84.9400 132.5048
L84.9400 132.7429
" />
<path d="M84.9400 132.7429
L84.9877 132.9333
" />
<path d="M84.9877 132.9333
L85.0353 133.0286
" />
<path d="M85.0353 133.0286
L85.0829 133.0762
" />
<path d="M85.0829 133.0762
L85.1781 133.1238
" />
<path d="M85.1781 133.1238
L85.2734 133.1238
" />
<path d="M85.2734 133.1238
L85.3686 133.0762
" />
<path d="M85.3686 133.0762
L85.4162 133.0286
" />
<path d="M85.4162 133.0286
L85.4639 132.9333
" />
<path d="M85.4639 132.9333
L85.5115 132.7429
" />
<path d="M85.5115 132.7429
L85.5115 132.5048
" />
<path d="M85.5115 132.5048
L85.4639 132.3143
" />
<path d="M85.4639 132.3143
L85.4162 132.2191
" />
<path d="M85.4162 132.2191
L85.3686 132.1714
" />
<path d="M85.3686 132.1714
L85.2734 132.1238
" />
<path d="M84.3210 132.1238
L84.2258 132.1238
" />
<path d="M84.2258 132.1238
L84.1305 132.1714
" />
<path d="M84.1305 132.1714
L84.0829 132.2191
" />
<path d="M84.0829 132.2191
L84.0353 132.3143
" />
<path d="M84.0353 132.3143
L83.9877 132.5048
" />
<path d="M83.9877 132.5048
L83.9877 132.7429
" />
<path d="M83.9877 132.7429
L84.0353 132.9333
" />
<path d="M84.0353 132.9333
L84.0829 133.0286
" />
<path d="M84.0829 133.0286
L84.1305 133.0762
" />
<path d="M84.1305 133.0762
L84.2258 133.1238
" />
<path d="M84.2258 133.1238
L84.3210 133.1238
" />
<path d="M84.3210 133.1238
L84.4162 133.0762
" />
<path d="M84.4162 133.0762
L84.4639 133.0286
" />
<path d="M84.4639 133.0286
L84.5115 132.9333
" />
<path d="M84.5115 132.9333
L84.5591 132.7429
" />
<path d="M84.5591 132.7429
L84.5591 132.5048
" />
<path d="M84.5591 132.5048
L84.5115 132.3143
" />
<path d="M84.5115 132.3143
L84.4639 132.2191
" />
<path d="M84.4639 132.2191
L84.4162 132.1714
" />
<path d="M84.4162 132.1714
L84.3210 132.1238
" />
<path d="M83.5591 133.1238
L83.5591 132.1238
" />
<path d="M83.4639 132.7429
L83.1781 133.1238
" />
<path d="M83.1781 132.4572
L83.5591 132.8381
" />
</g><g transform="rotate(-90.000000 81.0560 138.6840)">
<text x="81.0560" y="139.1840"
transform="scale(-1 1) translate(-162.112000 0)"
textLength="3.0595" font-size="1.3333" lengthAdjust="spacingAndGlyphs"
text-anchor="middle" opacity="0">RV2</text>
</g>
<g class="stroked-text"><desc>RV2</desc>
<path d="M81.5108 138.0888
L81.0346 137.7554
" />
<path d="M81.5108 137.5173
L80.5108 137.5173
" />
<path d="M80.5108 137.5173
L80.5108 137.8983
" />
<path d="M80.5108 137.8983
L80.5584 137.9935
" />
<path d="M80.5584 137.9935
L80.6061 138.0411
" />
<path d="M80.6061 138.0411
L80.7013 138.0888
" />
<path d="M80.7013 138.0888
L80.8442 138.0888
" />
<path d="M80.8442 138.0888
L80.9394 138.0411
" />
<path d="M80.9394 138.0411
L80.9870 137.9935
" />
<path d="M80.9870 137.9935
L81.0346 137.8983
" />
<path d="M81.0346 137.8983
L81.0346 137.5173
" />
<path d="M80.5108 138.3745
L81.5108 138.7078
" />
<path d="M81.5108 138.7078
L80.5108 139.0411
" />
<path d="M80.6061 139.3269
L80.5584 139.3745
" />
<path d="M80.5584 139.3745
L80.5108 139.4697
" />
<path d="M80.5108 139.4697
L80.5108 139.7078
" />
<path d="M80.5108 139.7078
L80.5584 139.8030
" />
<path d="M80.5584 139.8030
L80.6061 139.8507
" />
<path d="M80.6061 139.8507
L80.7013 139.8983
" />
<path d="M80.7013 139.8983
L80.7965 139.8983
" />
<path d="M80.7965 139.8983
L80.9394 139.8507
" />
<path d="M80.9394 139.8507
L81.5108 139.2792
" />
<path d="M81.5108 139.2792
L81.5108 139.8983
" />
</g></g>
<g style="fill:#000000; fill-opacity:0.0; 
stroke:#000000; stroke-width:0.1000; stroke-opacity:1; 
stroke-linecap:round; stroke-linejoin:round;">
<path d="M65.0040 60.5840
L84.3640 60.5840
" />
<path d="M77.2340 60.5840
L77.2340 59.3840
" />
<path d="M84.3640 60.5840
L85.3640 59.5840
" />
<path d="M85.3640 59.5840
L85.3640 51.6840
" />
<path d="M66.1940 59.3840
L73.1340 59.3840
" />
<path d="M73.1340 59.3840
L73.1340 60.5840
" />
</g>
<g style="fill:#000000; fill-opacity:1.0000; 
stroke:#000000; stroke-width:0.0000; stroke-opacity:1; 
stroke-linecap:round; stroke-linejoin:round;">
<circle cx="73.1340" cy="59.3840" r="0.0500" /> 
</g>
<g style="fill:#000000; fill-opacity:1.0000; 
stroke:#000000; stroke-width:0.1000; stroke-opacity:1; 
stroke-linecap:round; stroke-linejoin:round;">
</g>
<g style="fill:#000000; fill-opacity:0.0; 
stroke:#000000; stroke-width:0.1000; stroke-opacity:1; 
stroke-linecap:round; stroke-linejoin:round;">
<path d="M77.2340 59.3840
L84.1740 59.3840
" />
<path d="M84.1740 59.3840
L84.1740 52.8840
" />
<path d="M66.1940 52.8840
L66.1940 59.3840
" />
<path d="M84.1740 52.8840
L66.1940 52.8840
" />
<path d="M65.0040 51.6840
L65.0040 60.5840
" />
<path d="M85.3640 51.6840
L65.0040 51.6840
" />
<path d="M80.0560 69.9110
L89.5860 69.9110
" />
<path d="M80.0560 79.4410
L80.0560 69.9110
" />
<path d="M83.9450 73.1160
L83.9460 76.2350
" />
<path d="M83.9450 73.1160
L83.9460 76.2350
" />
<path d="M89.5860 69.9110
L89.5860 79.4410
" />
<path d="M89.5860 79.4410
L80.0560 79.4410
" />
<circle cx="83.9450" cy="74.6760" r="1.5750" /> 
<path d="M80.0560 133.9190
L89.5860 133.9190
" />
<path d="M80.0560 143.4490
L80.0560 133.9190
" />
<path d="M83.9450 137.1240
L83.9460 140.2430
" />
<path d="M83.9450 137.1240
L83.9460 140.2430
" />
<path d="M89.5860 133.9190
L89.5860 143.4490
" />
<path d="M89.5860 143.4490
L80.0560 143.4490
" />
<circle cx="83.9450" cy="138.6840" r="1.5750" /> 
<g >
</g>
<g >
</g>
<g >
</g>
<g >
</g>
<g >
</g>
<g >
</g>
<g >
</g>
<g >
</g>
<g >
</g>
<g >
</g>
<g >
</g>
<g >
</g>
<g >
</g>
<g >
</g>
<g >
</g>
<g >
</g>
<g >
</g>
<g >
</g>
<g >
</g>
<g >
</g>
<g >
</g>
<g >
</g>
<g >
</g>
<g >
</g>
<g >
</g>
<g >
</g>
<g >
</g>
<g >
</g>
<g >
</g>
<g >
</g>
<g >
</g>
<g >
</g>
<g >
</g>
<g >
</g>
<g >
</g>
<g >
</g>
<g >
</g>
<g >
</g>
<g >
</g>
<g >
</g>
</g> 
</svg>
