<?xml version="1.0" standalone="no"?>
 <!DOCTYPE svg PUBLIC "-//W3C//DTD SVG 1.1//EN" 
 "http://www.w3.org/Graphics/SVG/1.1/DTD/svg11.dtd"> 
<svg
  xmlns:svg="http://www.w3.org/2000/svg"
  xmlns="http://www.w3.org/2000/svg"
  xmlns:xlink="http://www.w3.org/1999/xlink"
  version="1.1"
  width="297.0022mm" height="210.0072mm" viewBox="0.0000 0.0000 297.0022 210.0072">
<title>SVG Image created as mount-Cmts_User.svg date 2023/11/08 17:25:39 </title>
  <desc>Image generated by PCBNEW </desc>
<g style="fill:#000000; fill-opacity:1.0000;stroke:#000000; stroke-opacity:1.0000;
stroke-linecap:round; stroke-linejoin:round;"
 transform="translate(0 0) scale(1 1)">
</g>
<g style="fill:#000000; fill-opacity:0.0; 
stroke:#000000; stroke-width:0.0000; stroke-opacity:1; 
stroke-linecap:round; stroke-linejoin:round;">
</g>
<g style="fill:#000000; fill-opacity:0.0; 
stroke:#000000; stroke-width:0.0510; stroke-opacity:1; 
stroke-linecap:round; stroke-linejoin:round;">
<text x="60.9600" y="127.2000"
textLength="2.7397" font-size="0.5333" lengthAdjust="spacingAndGlyphs"
text-anchor="middle" opacity="0">KEEPOUT</text>
<g class="stroked-text"><desc>KEEPOUT</desc>
<path d="M59.7219 127.1824
L59.7219 126.7824
" />
<path d="M59.9505 127.1824
L59.7790 126.9538
" />
<path d="M59.9505 126.7824
L59.7219 127.0110
" />
<path d="M60.1219 126.9729
L60.2552 126.9729
" />
<path d="M60.3124 127.1824
L60.1219 127.1824
" />
<path d="M60.1219 127.1824
L60.1219 126.7824
" />
<path d="M60.1219 126.7824
L60.3124 126.7824
" />
<path d="M60.4838 126.9729
L60.6171 126.9729
" />
<path d="M60.6743 127.1824
L60.4838 127.1824
" />
<path d="M60.4838 127.1824
L60.4838 126.7824
" />
<path d="M60.4838 126.7824
L60.6743 126.7824
" />
<path d="M60.8457 127.1824
L60.8457 126.7824
" />
<path d="M60.8457 126.7824
L60.9981 126.7824
" />
<path d="M60.9981 126.7824
L61.0362 126.8014
" />
<path d="M61.0362 126.8014
L61.0552 126.8205
" />
<path d="M61.0552 126.8205
L61.0743 126.8586
" />
<path d="M61.0743 126.8586
L61.0743 126.9157
" />
<path d="M61.0743 126.9157
L61.0552 126.9538
" />
<path d="M61.0552 126.9538
L61.0362 126.9729
" />
<path d="M61.0362 126.9729
L60.9981 126.9919
" />
<path d="M60.9981 126.9919
L60.8457 126.9919
" />
<path d="M61.3219 126.7824
L61.3981 126.7824
" />
<path d="M61.3981 126.7824
L61.4362 126.8014
" />
<path d="M61.4362 126.8014
L61.4743 126.8395
" />
<path d="M61.4743 126.8395
L61.4933 126.9157
" />
<path d="M61.4933 126.9157
L61.4933 127.0491
" />
<path d="M61.4933 127.0491
L61.4743 127.1253
" />
<path d="M61.4743 127.1253
L61.4362 127.1633
" />
<path d="M61.4362 127.1633
L61.3981 127.1824
" />
<path d="M61.3981 127.1824
L61.3219 127.1824
" />
<path d="M61.3219 127.1824
L61.2838 127.1633
" />
<path d="M61.2838 127.1633
L61.2457 127.1253
" />
<path d="M61.2457 127.1253
L61.2267 127.0491
" />
<path d="M61.2267 127.0491
L61.2267 126.9157
" />
<path d="M61.2267 126.9157
L61.2457 126.8395
" />
<path d="M61.2457 126.8395
L61.2838 126.8014
" />
<path d="M61.2838 126.8014
L61.3219 126.7824
" />
<path d="M61.6648 126.7824
L61.6648 127.1062
" />
<path d="M61.6648 127.1062
L61.6838 127.1443
" />
<path d="M61.6838 127.1443
L61.7029 127.1633
" />
<path d="M61.7029 127.1633
L61.7410 127.1824
" />
<path d="M61.7410 127.1824
L61.8171 127.1824
" />
<path d="M61.8171 127.1824
L61.8552 127.1633
" />
<path d="M61.8552 127.1633
L61.8743 127.1443
" />
<path d="M61.8743 127.1443
L61.8933 127.1062
" />
<path d="M61.8933 127.1062
L61.8933 126.7824
" />
<path d="M62.0267 126.7824
L62.2552 126.7824
" />
<path d="M62.1410 127.1824
L62.1410 126.7824
" />
</g><text x="81.2800" y="127.2000"
textLength="2.7397" font-size="0.5333" lengthAdjust="spacingAndGlyphs"
text-anchor="middle" opacity="0">KEEPOUT</text>
<g class="stroked-text"><desc>KEEPOUT</desc>
<path d="M80.0419 127.1824
L80.0419 126.7824
" />
<path d="M80.2705 127.1824
L80.0990 126.9538
" />
<path d="M80.2705 126.7824
L80.0419 127.0110
" />
<path d="M80.4419 126.9729
L80.5752 126.9729
" />
<path d="M80.6324 127.1824
L80.4419 127.1824
" />
<path d="M80.4419 127.1824
L80.4419 126.7824
" />
<path d="M80.4419 126.7824
L80.6324 126.7824
" />
<path d="M80.8038 126.9729
L80.9371 126.9729
" />
<path d="M80.9943 127.1824
L80.8038 127.1824
" />
<path d="M80.8038 127.1824
L80.8038 126.7824
" />
<path d="M80.8038 126.7824
L80.9943 126.7824
" />
<path d="M81.1657 127.1824
L81.1657 126.7824
" />
<path d="M81.1657 126.7824
L81.3181 126.7824
" />
<path d="M81.3181 126.7824
L81.3562 126.8014
" />
<path d="M81.3562 126.8014
L81.3752 126.8205
" />
<path d="M81.3752 126.8205
L81.3943 126.8586
" />
<path d="M81.3943 126.8586
L81.3943 126.9157
" />
<path d="M81.3943 126.9157
L81.3752 126.9538
" />
<path d="M81.3752 126.9538
L81.3562 126.9729
" />
<path d="M81.3562 126.9729
L81.3181 126.9919
" />
<path d="M81.3181 126.9919
L81.1657 126.9919
" />
<path d="M81.6419 126.7824
L81.7181 126.7824
" />
<path d="M81.7181 126.7824
L81.7562 126.8014
" />
<path d="M81.7562 126.8014
L81.7943 126.8395
" />
<path d="M81.7943 126.8395
L81.8133 126.9157
" />
<path d="M81.8133 126.9157
L81.8133 127.0491
" />
<path d="M81.8133 127.0491
L81.7943 127.1253
" />
<path d="M81.7943 127.1253
L81.7562 127.1633
" />
<path d="M81.7562 127.1633
L81.7181 127.1824
" />
<path d="M81.7181 127.1824
L81.6419 127.1824
" />
<path d="M81.6419 127.1824
L81.6038 127.1633
" />
<path d="M81.6038 127.1633
L81.5657 127.1253
" />
<path d="M81.5657 127.1253
L81.5467 127.0491
" />
<path d="M81.5467 127.0491
L81.5467 126.9157
" />
<path d="M81.5467 126.9157
L81.5657 126.8395
" />
<path d="M81.5657 126.8395
L81.6038 126.8014
" />
<path d="M81.6038 126.8014
L81.6419 126.7824
" />
<path d="M81.9848 126.7824
L81.9848 127.1062
" />
<path d="M81.9848 127.1062
L82.0038 127.1443
" />
<path d="M82.0038 127.1443
L82.0229 127.1633
" />
<path d="M82.0229 127.1633
L82.0610 127.1824
" />
<path d="M82.0610 127.1824
L82.1371 127.1824
" />
<path d="M82.1371 127.1824
L82.1752 127.1633
" />
<path d="M82.1752 127.1633
L82.1943 127.1443
" />
<path d="M82.1943 127.1443
L82.2133 127.1062
" />
<path d="M82.2133 127.1062
L82.2133 126.7824
" />
<path d="M82.3467 126.7824
L82.5752 126.7824
" />
<path d="M82.4610 127.1824
L82.4610 126.7824
" />
</g><text x="60.9600" y="86.5600"
textLength="2.7397" font-size="0.5333" lengthAdjust="spacingAndGlyphs"
text-anchor="middle" opacity="0">KEEPOUT</text>
<g class="stroked-text"><desc>KEEPOUT</desc>
<path d="M59.7219 86.5424
L59.7219 86.1424
" />
<path d="M59.9505 86.5424
L59.7790 86.3138
" />
<path d="M59.9505 86.1424
L59.7219 86.3710
" />
<path d="M60.1219 86.3329
L60.2552 86.3329
" />
<path d="M60.3124 86.5424
L60.1219 86.5424
" />
<path d="M60.1219 86.5424
L60.1219 86.1424
" />
<path d="M60.1219 86.1424
L60.3124 86.1424
" />
<path d="M60.4838 86.3329
L60.6171 86.3329
" />
<path d="M60.6743 86.5424
L60.4838 86.5424
" />
<path d="M60.4838 86.5424
L60.4838 86.1424
" />
<path d="M60.4838 86.1424
L60.6743 86.1424
" />
<path d="M60.8457 86.5424
L60.8457 86.1424
" />
<path d="M60.8457 86.1424
L60.9981 86.1424
" />
<path d="M60.9981 86.1424
L61.0362 86.1614
" />
<path d="M61.0362 86.1614
L61.0552 86.1805
" />
<path d="M61.0552 86.1805
L61.0743 86.2186
" />
<path d="M61.0743 86.2186
L61.0743 86.2757
" />
<path d="M61.0743 86.2757
L61.0552 86.3138
" />
<path d="M61.0552 86.3138
L61.0362 86.3329
" />
<path d="M61.0362 86.3329
L60.9981 86.3519
" />
<path d="M60.9981 86.3519
L60.8457 86.3519
" />
<path d="M61.3219 86.1424
L61.3981 86.1424
" />
<path d="M61.3981 86.1424
L61.4362 86.1614
" />
<path d="M61.4362 86.1614
L61.4743 86.1995
" />
<path d="M61.4743 86.1995
L61.4933 86.2757
" />
<path d="M61.4933 86.2757
L61.4933 86.4091
" />
<path d="M61.4933 86.4091
L61.4743 86.4853
" />
<path d="M61.4743 86.4853
L61.4362 86.5233
" />
<path d="M61.4362 86.5233
L61.3981 86.5424
" />
<path d="M61.3981 86.5424
L61.3219 86.5424
" />
<path d="M61.3219 86.5424
L61.2838 86.5233
" />
<path d="M61.2838 86.5233
L61.2457 86.4853
" />
<path d="M61.2457 86.4853
L61.2267 86.4091
" />
<path d="M61.2267 86.4091
L61.2267 86.2757
" />
<path d="M61.2267 86.2757
L61.2457 86.1995
" />
<path d="M61.2457 86.1995
L61.2838 86.1614
" />
<path d="M61.2838 86.1614
L61.3219 86.1424
" />
<path d="M61.6648 86.1424
L61.6648 86.4662
" />
<path d="M61.6648 86.4662
L61.6838 86.5043
" />
<path d="M61.6838 86.5043
L61.7029 86.5233
" />
<path d="M61.7029 86.5233
L61.7410 86.5424
" />
<path d="M61.7410 86.5424
L61.8171 86.5424
" />
<path d="M61.8171 86.5424
L61.8552 86.5233
" />
<path d="M61.8552 86.5233
L61.8743 86.5043
" />
<path d="M61.8743 86.5043
L61.8933 86.4662
" />
<path d="M61.8933 86.4662
L61.8933 86.1424
" />
<path d="M62.0267 86.1424
L62.2552 86.1424
" />
<path d="M62.1410 86.5424
L62.1410 86.1424
" />
</g><text x="60.9600" y="66.2400"
textLength="2.7397" font-size="0.5333" lengthAdjust="spacingAndGlyphs"
text-anchor="middle" opacity="0">KEEPOUT</text>
<g class="stroked-text"><desc>KEEPOUT</desc>
<path d="M59.7219 66.2224
L59.7219 65.8224
" />
<path d="M59.9505 66.2224
L59.7790 65.9938
" />
<path d="M59.9505 65.8224
L59.7219 66.0510
" />
<path d="M60.1219 66.0129
L60.2552 66.0129
" />
<path d="M60.3124 66.2224
L60.1219 66.2224
" />
<path d="M60.1219 66.2224
L60.1219 65.8224
" />
<path d="M60.1219 65.8224
L60.3124 65.8224
" />
<path d="M60.4838 66.0129
L60.6171 66.0129
" />
<path d="M60.6743 66.2224
L60.4838 66.2224
" />
<path d="M60.4838 66.2224
L60.4838 65.8224
" />
<path d="M60.4838 65.8224
L60.6743 65.8224
" />
<path d="M60.8457 66.2224
L60.8457 65.8224
" />
<path d="M60.8457 65.8224
L60.9981 65.8224
" />
<path d="M60.9981 65.8224
L61.0362 65.8414
" />
<path d="M61.0362 65.8414
L61.0552 65.8605
" />
<path d="M61.0552 65.8605
L61.0743 65.8986
" />
<path d="M61.0743 65.8986
L61.0743 65.9557
" />
<path d="M61.0743 65.9557
L61.0552 65.9938
" />
<path d="M61.0552 65.9938
L61.0362 66.0129
" />
<path d="M61.0362 66.0129
L60.9981 66.0319
" />
<path d="M60.9981 66.0319
L60.8457 66.0319
" />
<path d="M61.3219 65.8224
L61.3981 65.8224
" />
<path d="M61.3981 65.8224
L61.4362 65.8414
" />
<path d="M61.4362 65.8414
L61.4743 65.8795
" />
<path d="M61.4743 65.8795
L61.4933 65.9557
" />
<path d="M61.4933 65.9557
L61.4933 66.0891
" />
<path d="M61.4933 66.0891
L61.4743 66.1653
" />
<path d="M61.4743 66.1653
L61.4362 66.2033
" />
<path d="M61.4362 66.2033
L61.3981 66.2224
" />
<path d="M61.3981 66.2224
L61.3219 66.2224
" />
<path d="M61.3219 66.2224
L61.2838 66.2033
" />
<path d="M61.2838 66.2033
L61.2457 66.1653
" />
<path d="M61.2457 66.1653
L61.2267 66.0891
" />
<path d="M61.2267 66.0891
L61.2267 65.9557
" />
<path d="M61.2267 65.9557
L61.2457 65.8795
" />
<path d="M61.2457 65.8795
L61.2838 65.8414
" />
<path d="M61.2838 65.8414
L61.3219 65.8224
" />
<path d="M61.6648 65.8224
L61.6648 66.1462
" />
<path d="M61.6648 66.1462
L61.6838 66.1843
" />
<path d="M61.6838 66.1843
L61.7029 66.2033
" />
<path d="M61.7029 66.2033
L61.7410 66.2224
" />
<path d="M61.7410 66.2224
L61.8171 66.2224
" />
<path d="M61.8171 66.2224
L61.8552 66.2033
" />
<path d="M61.8552 66.2033
L61.8743 66.1843
" />
<path d="M61.8743 66.1843
L61.8933 66.1462
" />
<path d="M61.8933 66.1462
L61.8933 65.8224
" />
<path d="M62.0267 65.8224
L62.2552 65.8224
" />
<path d="M62.1410 66.2224
L62.1410 65.8224
" />
</g><text x="81.2800" y="147.5200"
textLength="2.7397" font-size="0.5333" lengthAdjust="spacingAndGlyphs"
text-anchor="middle" opacity="0">KEEPOUT</text>
<g class="stroked-text"><desc>KEEPOUT</desc>
<path d="M80.0419 147.5024
L80.0419 147.1024
" />
<path d="M80.2705 147.5024
L80.0990 147.2738
" />
<path d="M80.2705 147.1024
L80.0419 147.3310
" />
<path d="M80.4419 147.2929
L80.5752 147.2929
" />
<path d="M80.6324 147.5024
L80.4419 147.5024
" />
<path d="M80.4419 147.5024
L80.4419 147.1024
" />
<path d="M80.4419 147.1024
L80.6324 147.1024
" />
<path d="M80.8038 147.2929
L80.9371 147.2929
" />
<path d="M80.9943 147.5024
L80.8038 147.5024
" />
<path d="M80.8038 147.5024
L80.8038 147.1024
" />
<path d="M80.8038 147.1024
L80.9943 147.1024
" />
<path d="M81.1657 147.5024
L81.1657 147.1024
" />
<path d="M81.1657 147.1024
L81.3181 147.1024
" />
<path d="M81.3181 147.1024
L81.3562 147.1214
" />
<path d="M81.3562 147.1214
L81.3752 147.1405
" />
<path d="M81.3752 147.1405
L81.3943 147.1786
" />
<path d="M81.3943 147.1786
L81.3943 147.2357
" />
<path d="M81.3943 147.2357
L81.3752 147.2738
" />
<path d="M81.3752 147.2738
L81.3562 147.2929
" />
<path d="M81.3562 147.2929
L81.3181 147.3119
" />
<path d="M81.3181 147.3119
L81.1657 147.3119
" />
<path d="M81.6419 147.1024
L81.7181 147.1024
" />
<path d="M81.7181 147.1024
L81.7562 147.1214
" />
<path d="M81.7562 147.1214
L81.7943 147.1595
" />
<path d="M81.7943 147.1595
L81.8133 147.2357
" />
<path d="M81.8133 147.2357
L81.8133 147.3691
" />
<path d="M81.8133 147.3691
L81.7943 147.4453
" />
<path d="M81.7943 147.4453
L81.7562 147.4833
" />
<path d="M81.7562 147.4833
L81.7181 147.5024
" />
<path d="M81.7181 147.5024
L81.6419 147.5024
" />
<path d="M81.6419 147.5024
L81.6038 147.4833
" />
<path d="M81.6038 147.4833
L81.5657 147.4453
" />
<path d="M81.5657 147.4453
L81.5467 147.3691
" />
<path d="M81.5467 147.3691
L81.5467 147.2357
" />
<path d="M81.5467 147.2357
L81.5657 147.1595
" />
<path d="M81.5657 147.1595
L81.6038 147.1214
" />
<path d="M81.6038 147.1214
L81.6419 147.1024
" />
<path d="M81.9848 147.1024
L81.9848 147.4262
" />
<path d="M81.9848 147.4262
L82.0038 147.4643
" />
<path d="M82.0038 147.4643
L82.0229 147.4833
" />
<path d="M82.0229 147.4833
L82.0610 147.5024
" />
<path d="M82.0610 147.5024
L82.1371 147.5024
" />
<path d="M82.1371 147.5024
L82.1752 147.4833
" />
<path d="M82.1752 147.4833
L82.1943 147.4643
" />
<path d="M82.1943 147.4643
L82.2133 147.4262
" />
<path d="M82.2133 147.4262
L82.2133 147.1024
" />
<path d="M82.3467 147.1024
L82.5752 147.1024
" />
<path d="M82.4610 147.5024
L82.4610 147.1024
" />
</g><text x="60.9600" y="147.5200"
textLength="2.7397" font-size="0.5333" lengthAdjust="spacingAndGlyphs"
text-anchor="middle" opacity="0">KEEPOUT</text>
<g class="stroked-text"><desc>KEEPOUT</desc>
<path d="M59.7219 147.5024
L59.7219 147.1024
" />
<path d="M59.9505 147.5024
L59.7790 147.2738
" />
<path d="M59.9505 147.1024
L59.7219 147.3310
" />
<path d="M60.1219 147.2929
L60.2552 147.2929
" />
<path d="M60.3124 147.5024
L60.1219 147.5024
" />
<path d="M60.1219 147.5024
L60.1219 147.1024
" />
<path d="M60.1219 147.1024
L60.3124 147.1024
" />
<path d="M60.4838 147.2929
L60.6171 147.2929
" />
<path d="M60.6743 147.5024
L60.4838 147.5024
" />
<path d="M60.4838 147.5024
L60.4838 147.1024
" />
<path d="M60.4838 147.1024
L60.6743 147.1024
" />
<path d="M60.8457 147.5024
L60.8457 147.1024
" />
<path d="M60.8457 147.1024
L60.9981 147.1024
" />
<path d="M60.9981 147.1024
L61.0362 147.1214
" />
<path d="M61.0362 147.1214
L61.0552 147.1405
" />
<path d="M61.0552 147.1405
L61.0743 147.1786
" />
<path d="M61.0743 147.1786
L61.0743 147.2357
" />
<path d="M61.0743 147.2357
L61.0552 147.2738
" />
<path d="M61.0552 147.2738
L61.0362 147.2929
" />
<path d="M61.0362 147.2929
L60.9981 147.3119
" />
<path d="M60.9981 147.3119
L60.8457 147.3119
" />
<path d="M61.3219 147.1024
L61.3981 147.1024
" />
<path d="M61.3981 147.1024
L61.4362 147.1214
" />
<path d="M61.4362 147.1214
L61.4743 147.1595
" />
<path d="M61.4743 147.1595
L61.4933 147.2357
" />
<path d="M61.4933 147.2357
L61.4933 147.3691
" />
<path d="M61.4933 147.3691
L61.4743 147.4453
" />
<path d="M61.4743 147.4453
L61.4362 147.4833
" />
<path d="M61.4362 147.4833
L61.3981 147.5024
" />
<path d="M61.3981 147.5024
L61.3219 147.5024
" />
<path d="M61.3219 147.5024
L61.2838 147.4833
" />
<path d="M61.2838 147.4833
L61.2457 147.4453
" />
<path d="M61.2457 147.4453
L61.2267 147.3691
" />
<path d="M61.2267 147.3691
L61.2267 147.2357
" />
<path d="M61.2267 147.2357
L61.2457 147.1595
" />
<path d="M61.2457 147.1595
L61.2838 147.1214
" />
<path d="M61.2838 147.1214
L61.3219 147.1024
" />
<path d="M61.6648 147.1024
L61.6648 147.4262
" />
<path d="M61.6648 147.4262
L61.6838 147.4643
" />
<path d="M61.6838 147.4643
L61.7029 147.4833
" />
<path d="M61.7029 147.4833
L61.7410 147.5024
" />
<path d="M61.7410 147.5024
L61.8171 147.5024
" />
<path d="M61.8171 147.5024
L61.8552 147.4833
" />
<path d="M61.8552 147.4833
L61.8743 147.4643
" />
<path d="M61.8743 147.4643
L61.8933 147.4262
" />
<path d="M61.8933 147.4262
L61.8933 147.1024
" />
<path d="M62.0267 147.1024
L62.2552 147.1024
" />
<path d="M62.1410 147.5024
L62.1410 147.1024
" />
</g></g>
<g style="fill:#000000; fill-opacity:0.0; 
stroke:#000000; stroke-width:0.1500; stroke-opacity:1; 
stroke-linecap:round; stroke-linejoin:round;">
<circle cx="53.3400" cy="53.3400" r="2.2000" /> 
<circle cx="91.4400" cy="53.3400" r="2.2000" /> 
<circle cx="91.4400" cy="160.0200" r="2.2000" /> 
<circle cx="53.3400" cy="160.0200" r="2.2000" /> 
<g >
</g>
<g >
</g>
<g >
</g>
<g >
</g>
<g >
</g>
<g >
</g>
<g >
</g>
<g >
</g>
<g >
</g>
<g >
</g>
<g >
</g>
<g >
</g>
<g >
</g>
<g >
</g>
<g >
</g>
<g >
</g>
<g >
</g>
<g >
</g>
<g >
</g>
<g >
</g>
<g >
</g>
<g >
</g>
<g >
</g>
</g> 
</svg>
