<?xml version="1.0" standalone="no"?>
 <!DOCTYPE svg PUBLIC "-//W3C//DTD SVG 1.1//EN" 
 "http://www.w3.org/Graphics/SVG/1.1/DTD/svg11.dtd"> 
<svg
  xmlns:svg="http://www.w3.org/2000/svg"
  xmlns="http://www.w3.org/2000/svg"
  xmlns:xlink="http://www.w3.org/1999/xlink"
  version="1.1"
  width="297.0022mm" height="210.0072mm" viewBox="0.0000 0.0000 297.0022 210.0072">
<title>SVG Image created as mount-F_CrtYd.svg date 2023/11/08 17:25:39 </title>
  <desc>Image generated by PCBNEW </desc>
<g style="fill:#000000; fill-opacity:1.0000;stroke:#000000; stroke-opacity:1.0000;
stroke-linecap:round; stroke-linejoin:round;"
 transform="translate(0 0) scale(1 1)">
</g>
<g style="fill:#000000; fill-opacity:0.0; 
stroke:#000000; stroke-width:0.0000; stroke-opacity:1; 
stroke-linecap:round; stroke-linejoin:round;">
</g>
<g style="fill:#000000; fill-opacity:0.0; 
stroke:#000000; stroke-width:0.0500; stroke-opacity:1; 
stroke-linecap:round; stroke-linejoin:round;">
<path d="M54.3320 92.9300
L51.3320 92.9300
" />
<path d="M51.3320 92.9300
L51.3320 105.1900
" />
<path d="M54.3320 105.1900
L54.3320 92.9300
" />
<path d="M51.3320 105.1900
L54.3320 105.1900
" />
<path d="M54.3320 106.1380
L51.3320 106.1380
" />
<path d="M51.3320 106.1380
L51.3320 118.3980
" />
<path d="M54.3320 118.3980
L54.3320 106.1380
" />
<path d="M51.3320 118.3980
L54.3320 118.3980
" />
<path d="M70.0700 96.5440
L70.0700 99.5440
" />
<path d="M70.0700 99.5440
L82.3300 99.5440
" />
<path d="M82.3300 96.5440
L70.0700 96.5440
" />
<path d="M82.3300 99.5440
L82.3300 96.5440
" />
<path d="M54.5100 115.3300
L67.3300 115.3300
" />
<path d="M67.3300 115.3300
L67.3300 101.5800
" />
<path d="M54.5100 101.5800
L54.5100 115.3300
" />
<path d="M67.3300 101.5800
L54.5100 101.5800
" />
<path d="M74.8300 95.0100
L87.6500 95.0100
" />
<path d="M87.6500 95.0100
L87.6500 81.2600
" />
<path d="M74.8300 81.2600
L74.8300 95.0100
" />
<path d="M87.6500 81.2600
L74.8300 81.2600
" />
<path d="M74.8300 115.3300
L87.6500 115.3300
" />
<path d="M87.6500 115.3300
L87.6500 101.5800
" />
<path d="M74.8300 101.5800
L74.8300 115.3300
" />
<path d="M87.6500 101.5800
L74.8300 101.5800
" />
<path d="M74.8300 74.6900
L87.6500 74.6900
" />
<path d="M87.6500 74.6900
L87.6500 60.9400
" />
<path d="M74.8300 60.9400
L74.8300 74.6900
" />
<path d="M87.6500 60.9400
L74.8300 60.9400
" />
<path d="M55.9600 133.5000
L55.9600 119.1000
" />
<path d="M65.9600 119.1000
L55.9600 119.1000
" />
<path d="M65.9600 133.5000
L55.9600 133.5000
" />
<path d="M65.9600 133.5000
L65.9600 119.1000
" />
<path d="M76.2800 133.5000
L76.2800 119.1000
" />
<path d="M86.2800 119.1000
L76.2800 119.1000
" />
<path d="M86.2800 133.5000
L76.2800 133.5000
" />
<path d="M86.2800 133.5000
L86.2800 119.1000
" />
<path d="M65.9600 79.8600
L65.9600 94.2600
" />
<path d="M55.9600 94.2600
L65.9600 94.2600
" />
<path d="M55.9600 79.8600
L65.9600 79.8600
" />
<path d="M55.9600 79.8600
L55.9600 94.2600
" />
<path d="M55.9600 72.5400
L55.9600 58.1400
" />
<path d="M65.9600 58.1400
L55.9600 58.1400
" />
<path d="M65.9600 72.5400
L55.9600 72.5400
" />
<path d="M65.9600 72.5400
L65.9600 58.1400
" />
<path d="M76.2800 153.8200
L76.2800 139.4200
" />
<path d="M86.2800 139.4200
L76.2800 139.4200
" />
<path d="M86.2800 153.8200
L76.2800 153.8200
" />
<path d="M86.2800 153.8200
L86.2800 139.4200
" />
<path d="M55.9600 153.8200
L55.9600 139.4200
" />
<path d="M65.9600 139.4200
L55.9600 139.4200
" />
<path d="M65.9600 153.8200
L55.9600 153.8200
" />
<path d="M65.9600 153.8200
L65.9600 139.4200
" />
<circle cx="53.3400" cy="53.3400" r="2.4500" /> 
<circle cx="91.4400" cy="53.3400" r="2.4500" /> 
<circle cx="91.4400" cy="160.0200" r="2.4500" /> 
<circle cx="53.3400" cy="160.0200" r="2.4500" /> 
<path d="M51.0320 63.0970
L51.0320 92.0970
" />
<path d="M51.0320 92.0970
L54.6320 92.0970
" />
<path d="M54.6320 63.0970
L51.0320 63.0970
" />
<path d="M54.6320 92.0970
L54.6320 63.0970
" />
<path d="M67.5880 153.4500
L70.5880 153.4500
" />
<path d="M70.5880 153.4500
L70.5880 141.1900
" />
<path d="M67.5880 141.1900
L67.5880 153.4500
" />
<path d="M70.5880 141.1900
L67.5880 141.1900
" />
<g >
</g>
<g >
</g>
<g >
</g>
<g >
</g>
<g >
</g>
<g >
</g>
<g >
</g>
<g >
</g>
<g >
</g>
<g >
</g>
<g >
</g>
<g >
</g>
<g >
</g>
<g >
</g>
<g >
</g>
<g >
</g>
<g >
</g>
<g >
</g>
<g >
</g>
<g >
</g>
<g >
</g>
<g >
</g>
<g >
</g>
</g> 
</svg>
