<?xml version="1.0" standalone="no"?>
 <!DOCTYPE svg PUBLIC "-//W3C//DTD SVG 1.1//EN" 
 "http://www.w3.org/Graphics/SVG/1.1/DTD/svg11.dtd"> 
<svg
  xmlns:svg="http://www.w3.org/2000/svg"
  xmlns="http://www.w3.org/2000/svg"
  xmlns:xlink="http://www.w3.org/1999/xlink"
  version="1.1"
  width="297.0022mm" height="210.0072mm" viewBox="0.0000 0.0000 297.0022 210.0072">
<title>SVG Image created as mount-B_Cu.svg date 2023/11/08 17:25:38 </title>
  <desc>Image generated by PCBNEW </desc>
<g style="fill:#000000; fill-opacity:1.0000;stroke:#000000; stroke-opacity:1.0000;
stroke-linecap:round; stroke-linejoin:round;"
 transform="translate(0 0) scale(1 1)">
</g>
<g style="fill:#000000; fill-opacity:0.0; 
stroke:#000000; stroke-width:0.0000; stroke-opacity:1; 
stroke-linecap:round; stroke-linejoin:round;">
<g >
</g>
<g style="fill:#000000; fill-opacity:1.0000; 
stroke:#000000; stroke-width:0.0000; stroke-opacity:1; 
stroke-linecap:round; stroke-linejoin:round;">
<circle cx="52.8320" cy="93.9800" r="0.8000" /> 
</g>
<g style="fill:#000000; fill-opacity:1.0000; 
stroke:#000000; stroke-width:0.0212; stroke-opacity:1; 
stroke-linecap:round; stroke-linejoin:round;">
</g>
<g style="fill:#000000; fill-opacity:1.0000; 
stroke:#000000; stroke-width:0.0000; stroke-opacity:1; 
stroke-linecap:round; stroke-linejoin:round;">
<circle cx="52.8320" cy="104.1400" r="0.8000" /> 
</g>
<g >
</g>
<g style="fill:#000000; fill-opacity:1.0000; 
stroke:#000000; stroke-width:0.0000; stroke-opacity:1; 
stroke-linecap:round; stroke-linejoin:round;">
<circle cx="52.8320" cy="107.1880" r="0.8000" /> 
</g>
<g style="fill:#000000; fill-opacity:1.0000; 
stroke:#000000; stroke-width:0.0212; stroke-opacity:1; 
stroke-linecap:round; stroke-linejoin:round;">
</g>
<g style="fill:#000000; fill-opacity:1.0000; 
stroke:#000000; stroke-width:0.0000; stroke-opacity:1; 
stroke-linecap:round; stroke-linejoin:round;">
<circle cx="52.8320" cy="117.3480" r="0.8000" /> 
</g>
<g >
</g>
<g style="fill:#000000; fill-opacity:1.0000; 
stroke:#000000; stroke-width:0.0000; stroke-opacity:1; 
stroke-linecap:round; stroke-linejoin:round;">
<circle cx="71.1200" cy="98.0440" r="0.8000" /> 
</g>
<g style="fill:#000000; fill-opacity:1.0000; 
stroke:#000000; stroke-width:0.0212; stroke-opacity:1; 
stroke-linecap:round; stroke-linejoin:round;">
</g>
<g style="fill:#000000; fill-opacity:1.0000; 
stroke:#000000; stroke-width:0.0000; stroke-opacity:1; 
stroke-linecap:round; stroke-linejoin:round;">
<circle cx="81.2800" cy="98.0440" r="0.8000" /> 
</g>
<g >
</g>
<g style="fill:#000000; fill-opacity:1.0000; 
stroke:#000000; stroke-width:0.0000; stroke-opacity:1; 
stroke-linecap:round; stroke-linejoin:round;">
</g>
<g style="fill:#000000; fill-opacity:1.0000; 
stroke:#000000; stroke-width:2.7200; stroke-opacity:1; 
stroke-linecap:round; stroke-linejoin:round;">
</g>
<g style="fill:#000000; fill-opacity:0.0; 
stroke:#000000; stroke-width:2.7200; stroke-opacity:1; 
stroke-linecap:round; stroke-linejoin:round;">
<path d="M56.1200 106.9400
L56.1200 106.4200
" />
<path d="M65.7200 106.9400
L65.7200 106.4200
" />
</g>
<g style="fill:#000000; fill-opacity:0.0; 
stroke:#000000; stroke-width:0.0000; stroke-opacity:1; 
stroke-linecap:round; stroke-linejoin:round;">
</g>
<g style="fill:#000000; fill-opacity:1.0000; 
stroke:#000000; stroke-width:0.0000; stroke-opacity:1; 
stroke-linecap:round; stroke-linejoin:round;">
<path style="fill:#000000; fill-opacity:1.0000; 
stroke:#000000; stroke-width:0.0000; stroke-opacity:1; 
stroke-linecap:round; stroke-linejoin:round;fill-rule:evenodd;"
d="M 59.3200,113.2800
59.3200,115.0800
57.5200,115.0800
57.5200,113.2800
Z" /> 
<circle cx="60.9200" cy="114.1800" r="0.9000" /> 
</g>
<g style="fill:#000000; fill-opacity:1.0000; 
stroke:#000000; stroke-width:0.0212; stroke-opacity:1; 
stroke-linecap:round; stroke-linejoin:round;">
</g>
<g style="fill:#000000; fill-opacity:1.0000; 
stroke:#000000; stroke-width:0.0000; stroke-opacity:1; 
stroke-linecap:round; stroke-linejoin:round;">
<circle cx="63.4200" cy="114.1800" r="0.9000" /> 
</g>
<g style="fill:#000000; fill-opacity:1.0000; 
stroke:#000000; stroke-width:0.0212; stroke-opacity:1; 
stroke-linecap:round; stroke-linejoin:round;">
</g>
<g >
</g>
<g style="fill:#000000; fill-opacity:1.0000; 
stroke:#000000; stroke-width:0.0212; stroke-opacity:1; 
stroke-linecap:round; stroke-linejoin:round;">
</g>
<g style="fill:#000000; fill-opacity:1.0000; 
stroke:#000000; stroke-width:2.7200; stroke-opacity:1; 
stroke-linecap:round; stroke-linejoin:round;">
</g>
<g style="fill:#000000; fill-opacity:0.0; 
stroke:#000000; stroke-width:2.7200; stroke-opacity:1; 
stroke-linecap:round; stroke-linejoin:round;">
<path d="M76.4400 86.6200
L76.4400 86.1000
" />
<path d="M86.0400 86.6200
L86.0400 86.1000
" />
</g>
<g style="fill:#000000; fill-opacity:0.0; 
stroke:#000000; stroke-width:0.0000; stroke-opacity:1; 
stroke-linecap:round; stroke-linejoin:round;">
</g>
<g style="fill:#000000; fill-opacity:1.0000; 
stroke:#000000; stroke-width:0.0000; stroke-opacity:1; 
stroke-linecap:round; stroke-linejoin:round;">
<path style="fill:#000000; fill-opacity:1.0000; 
stroke:#000000; stroke-width:0.0000; stroke-opacity:1; 
stroke-linecap:round; stroke-linejoin:round;fill-rule:evenodd;"
d="M 79.6400,92.9600
79.6400,94.7600
77.8400,94.7600
77.8400,92.9600
Z" /> 
<circle cx="81.2400" cy="93.8600" r="0.9000" /> 
</g>
<g style="fill:#000000; fill-opacity:1.0000; 
stroke:#000000; stroke-width:0.0212; stroke-opacity:1; 
stroke-linecap:round; stroke-linejoin:round;">
</g>
<g style="fill:#000000; fill-opacity:1.0000; 
stroke:#000000; stroke-width:0.0000; stroke-opacity:1; 
stroke-linecap:round; stroke-linejoin:round;">
<circle cx="83.7400" cy="93.8600" r="0.9000" /> 
</g>
<g style="fill:#000000; fill-opacity:1.0000; 
stroke:#000000; stroke-width:0.0212; stroke-opacity:1; 
stroke-linecap:round; stroke-linejoin:round;">
</g>
<g >
</g>
<g style="fill:#000000; fill-opacity:1.0000; 
stroke:#000000; stroke-width:0.0212; stroke-opacity:1; 
stroke-linecap:round; stroke-linejoin:round;">
</g>
<g style="fill:#000000; fill-opacity:1.0000; 
stroke:#000000; stroke-width:2.7200; stroke-opacity:1; 
stroke-linecap:round; stroke-linejoin:round;">
</g>
<g style="fill:#000000; fill-opacity:0.0; 
stroke:#000000; stroke-width:2.7200; stroke-opacity:1; 
stroke-linecap:round; stroke-linejoin:round;">
<path d="M76.4400 106.9400
L76.4400 106.4200
" />
<path d="M86.0400 106.9400
L86.0400 106.4200
" />
</g>
<g style="fill:#000000; fill-opacity:0.0; 
stroke:#000000; stroke-width:0.0000; stroke-opacity:1; 
stroke-linecap:round; stroke-linejoin:round;">
</g>
<g style="fill:#000000; fill-opacity:1.0000; 
stroke:#000000; stroke-width:0.0000; stroke-opacity:1; 
stroke-linecap:round; stroke-linejoin:round;">
<path style="fill:#000000; fill-opacity:1.0000; 
stroke:#000000; stroke-width:0.0000; stroke-opacity:1; 
stroke-linecap:round; stroke-linejoin:round;fill-rule:evenodd;"
d="M 79.6400,113.2800
79.6400,115.0800
77.8400,115.0800
77.8400,113.2800
Z" /> 
<circle cx="81.2400" cy="114.1800" r="0.9000" /> 
</g>
<g style="fill:#000000; fill-opacity:1.0000; 
stroke:#000000; stroke-width:0.0212; stroke-opacity:1; 
stroke-linecap:round; stroke-linejoin:round;">
</g>
<g style="fill:#000000; fill-opacity:1.0000; 
stroke:#000000; stroke-width:0.0000; stroke-opacity:1; 
stroke-linecap:round; stroke-linejoin:round;">
<circle cx="83.7400" cy="114.1800" r="0.9000" /> 
</g>
<g style="fill:#000000; fill-opacity:1.0000; 
stroke:#000000; stroke-width:0.0212; stroke-opacity:1; 
stroke-linecap:round; stroke-linejoin:round;">
</g>
<g >
</g>
<g style="fill:#000000; fill-opacity:1.0000; 
stroke:#000000; stroke-width:0.0212; stroke-opacity:1; 
stroke-linecap:round; stroke-linejoin:round;">
</g>
<g style="fill:#000000; fill-opacity:1.0000; 
stroke:#000000; stroke-width:2.7200; stroke-opacity:1; 
stroke-linecap:round; stroke-linejoin:round;">
</g>
<g style="fill:#000000; fill-opacity:0.0; 
stroke:#000000; stroke-width:2.7200; stroke-opacity:1; 
stroke-linecap:round; stroke-linejoin:round;">
<path d="M76.4400 66.3000
L76.4400 65.7800
" />
<path d="M86.0400 66.3000
L86.0400 65.7800
" />
</g>
<g style="fill:#000000; fill-opacity:0.0; 
stroke:#000000; stroke-width:0.0000; stroke-opacity:1; 
stroke-linecap:round; stroke-linejoin:round;">
</g>
<g style="fill:#000000; fill-opacity:1.0000; 
stroke:#000000; stroke-width:0.0000; stroke-opacity:1; 
stroke-linecap:round; stroke-linejoin:round;">
<path style="fill:#000000; fill-opacity:1.0000; 
stroke:#000000; stroke-width:0.0000; stroke-opacity:1; 
stroke-linecap:round; stroke-linejoin:round;fill-rule:evenodd;"
d="M 79.6400,72.6400
79.6400,74.4400
77.8400,74.4400
77.8400,72.6400
Z" /> 
<circle cx="81.2400" cy="73.5400" r="0.9000" /> 
</g>
<g style="fill:#000000; fill-opacity:1.0000; 
stroke:#000000; stroke-width:0.0212; stroke-opacity:1; 
stroke-linecap:round; stroke-linejoin:round;">
</g>
<g style="fill:#000000; fill-opacity:1.0000; 
stroke:#000000; stroke-width:0.0000; stroke-opacity:1; 
stroke-linecap:round; stroke-linejoin:round;">
<circle cx="83.7400" cy="73.5400" r="0.9000" /> 
</g>
<g style="fill:#000000; fill-opacity:1.0000; 
stroke:#000000; stroke-width:0.0212; stroke-opacity:1; 
stroke-linecap:round; stroke-linejoin:round;">
</g>
<g >
</g>
<g style="fill:#000000; fill-opacity:1.0000; 
stroke:#000000; stroke-width:0.0212; stroke-opacity:1; 
stroke-linecap:round; stroke-linejoin:round;">
</g>
<g style="fill:#000000; fill-opacity:1.0000; 
stroke:#000000; stroke-width:0.0000; stroke-opacity:1; 
stroke-linecap:round; stroke-linejoin:round;">
<path style="fill:#000000; fill-opacity:1.0000; 
stroke:#000000; stroke-width:0.0000; stroke-opacity:1; 
stroke-linecap:round; stroke-linejoin:round;fill-rule:evenodd;"
d="M 61.9250,119.6050
61.9250,121.4350
59.9950,121.4350
59.9950,119.6050
Z" /> 
<circle cx="60.9600" cy="131.9200" r="1.0650" /> 
</g>
<g style="fill:#000000; fill-opacity:1.0000; 
stroke:#000000; stroke-width:0.0212; stroke-opacity:1; 
stroke-linecap:round; stroke-linejoin:round;">
</g>
<g style="fill:#000000; fill-opacity:1.0000; 
stroke:#000000; stroke-width:0.0000; stroke-opacity:1; 
stroke-linecap:round; stroke-linejoin:round;">
<circle cx="60.9600" cy="123.6200" r="1.0650" /> 
</g>
<g style="fill:#000000; fill-opacity:1.0000; 
stroke:#000000; stroke-width:0.0212; stroke-opacity:1; 
stroke-linecap:round; stroke-linejoin:round;">
</g>
<g >
</g>
<g style="fill:#000000; fill-opacity:1.0000; 
stroke:#000000; stroke-width:0.0212; stroke-opacity:1; 
stroke-linecap:round; stroke-linejoin:round;">
</g>
<g style="fill:#000000; fill-opacity:1.0000; 
stroke:#000000; stroke-width:0.0000; stroke-opacity:1; 
stroke-linecap:round; stroke-linejoin:round;">
<path style="fill:#000000; fill-opacity:1.0000; 
stroke:#000000; stroke-width:0.0000; stroke-opacity:1; 
stroke-linecap:round; stroke-linejoin:round;fill-rule:evenodd;"
d="M 82.2450,119.6050
82.2450,121.4350
80.3150,121.4350
80.3150,119.6050
Z" /> 
<circle cx="81.2800" cy="131.9200" r="1.0650" /> 
</g>
<g style="fill:#000000; fill-opacity:1.0000; 
stroke:#000000; stroke-width:0.0212; stroke-opacity:1; 
stroke-linecap:round; stroke-linejoin:round;">
</g>
<g style="fill:#000000; fill-opacity:1.0000; 
stroke:#000000; stroke-width:0.0000; stroke-opacity:1; 
stroke-linecap:round; stroke-linejoin:round;">
<circle cx="81.2800" cy="123.6200" r="1.0650" /> 
</g>
<g style="fill:#000000; fill-opacity:1.0000; 
stroke:#000000; stroke-width:0.0212; stroke-opacity:1; 
stroke-linecap:round; stroke-linejoin:round;">
</g>
<g >
</g>
<g style="fill:#000000; fill-opacity:1.0000; 
stroke:#000000; stroke-width:0.0212; stroke-opacity:1; 
stroke-linecap:round; stroke-linejoin:round;">
</g>
<g style="fill:#000000; fill-opacity:1.0000; 
stroke:#000000; stroke-width:0.0000; stroke-opacity:1; 
stroke-linecap:round; stroke-linejoin:round;">
<path style="fill:#000000; fill-opacity:1.0000; 
stroke:#000000; stroke-width:0.0000; stroke-opacity:1; 
stroke-linecap:round; stroke-linejoin:round;fill-rule:evenodd;"
d="M 59.9950,93.7550
59.9950,91.9250
61.9250,91.9250
61.9250,93.7550
Z" /> 
<circle cx="60.9600" cy="81.4400" r="1.0650" /> 
</g>
<g style="fill:#000000; fill-opacity:1.0000; 
stroke:#000000; stroke-width:0.0212; stroke-opacity:1; 
stroke-linecap:round; stroke-linejoin:round;">
</g>
<g style="fill:#000000; fill-opacity:1.0000; 
stroke:#000000; stroke-width:0.0000; stroke-opacity:1; 
stroke-linecap:round; stroke-linejoin:round;">
<circle cx="60.9600" cy="89.7400" r="1.0650" /> 
</g>
<g style="fill:#000000; fill-opacity:1.0000; 
stroke:#000000; stroke-width:0.0212; stroke-opacity:1; 
stroke-linecap:round; stroke-linejoin:round;">
</g>
<g >
</g>
<g style="fill:#000000; fill-opacity:1.0000; 
stroke:#000000; stroke-width:0.0212; stroke-opacity:1; 
stroke-linecap:round; stroke-linejoin:round;">
</g>
<g style="fill:#000000; fill-opacity:1.0000; 
stroke:#000000; stroke-width:0.0000; stroke-opacity:1; 
stroke-linecap:round; stroke-linejoin:round;">
<path style="fill:#000000; fill-opacity:1.0000; 
stroke:#000000; stroke-width:0.0000; stroke-opacity:1; 
stroke-linecap:round; stroke-linejoin:round;fill-rule:evenodd;"
d="M 61.9250,58.6450
61.9250,60.4750
59.9950,60.4750
59.9950,58.6450
Z" /> 
<circle cx="60.9600" cy="70.9600" r="1.0650" /> 
</g>
<g style="fill:#000000; fill-opacity:1.0000; 
stroke:#000000; stroke-width:0.0212; stroke-opacity:1; 
stroke-linecap:round; stroke-linejoin:round;">
</g>
<g style="fill:#000000; fill-opacity:1.0000; 
stroke:#000000; stroke-width:0.0000; stroke-opacity:1; 
stroke-linecap:round; stroke-linejoin:round;">
<circle cx="60.9600" cy="62.6600" r="1.0650" /> 
</g>
<g style="fill:#000000; fill-opacity:1.0000; 
stroke:#000000; stroke-width:0.0212; stroke-opacity:1; 
stroke-linecap:round; stroke-linejoin:round;">
</g>
<g >
</g>
<g style="fill:#000000; fill-opacity:1.0000; 
stroke:#000000; stroke-width:0.0212; stroke-opacity:1; 
stroke-linecap:round; stroke-linejoin:round;">
</g>
<g style="fill:#000000; fill-opacity:1.0000; 
stroke:#000000; stroke-width:0.0000; stroke-opacity:1; 
stroke-linecap:round; stroke-linejoin:round;">
<path style="fill:#000000; fill-opacity:1.0000; 
stroke:#000000; stroke-width:0.0000; stroke-opacity:1; 
stroke-linecap:round; stroke-linejoin:round;fill-rule:evenodd;"
d="M 82.2450,139.9250
82.2450,141.7550
80.3150,141.7550
80.3150,139.9250
Z" /> 
<circle cx="81.2800" cy="152.2400" r="1.0650" /> 
</g>
<g style="fill:#000000; fill-opacity:1.0000; 
stroke:#000000; stroke-width:0.0212; stroke-opacity:1; 
stroke-linecap:round; stroke-linejoin:round;">
</g>
<g style="fill:#000000; fill-opacity:1.0000; 
stroke:#000000; stroke-width:0.0000; stroke-opacity:1; 
stroke-linecap:round; stroke-linejoin:round;">
<circle cx="81.2800" cy="143.9400" r="1.0650" /> 
</g>
<g style="fill:#000000; fill-opacity:1.0000; 
stroke:#000000; stroke-width:0.0212; stroke-opacity:1; 
stroke-linecap:round; stroke-linejoin:round;">
</g>
<g >
</g>
<g style="fill:#000000; fill-opacity:1.0000; 
stroke:#000000; stroke-width:0.0212; stroke-opacity:1; 
stroke-linecap:round; stroke-linejoin:round;">
</g>
<g style="fill:#000000; fill-opacity:1.0000; 
stroke:#000000; stroke-width:0.0000; stroke-opacity:1; 
stroke-linecap:round; stroke-linejoin:round;">
<path style="fill:#000000; fill-opacity:1.0000; 
stroke:#000000; stroke-width:0.0000; stroke-opacity:1; 
stroke-linecap:round; stroke-linejoin:round;fill-rule:evenodd;"
d="M 61.9250,139.9250
61.9250,141.7550
59.9950,141.7550
59.9950,139.9250
Z" /> 
<circle cx="60.9600" cy="152.2400" r="1.0650" /> 
</g>
<g style="fill:#000000; fill-opacity:1.0000; 
stroke:#000000; stroke-width:0.0212; stroke-opacity:1; 
stroke-linecap:round; stroke-linejoin:round;">
</g>
<g style="fill:#000000; fill-opacity:1.0000; 
stroke:#000000; stroke-width:0.0000; stroke-opacity:1; 
stroke-linecap:round; stroke-linejoin:round;">
<circle cx="60.9600" cy="143.9400" r="1.0650" /> 
</g>
<g style="fill:#000000; fill-opacity:1.0000; 
stroke:#000000; stroke-width:0.0212; stroke-opacity:1; 
stroke-linecap:round; stroke-linejoin:round;">
</g>
<g >
</g>
<g >
</g>
<g >
</g>
<g >
</g>
<g >
</g>
<g style="fill:#000000; fill-opacity:1.0000; 
stroke:#000000; stroke-width:0.0212; stroke-opacity:1; 
stroke-linecap:round; stroke-linejoin:round;">
</g>
<g style="fill:#000000; fill-opacity:1.0000; 
stroke:#000000; stroke-width:0.0000; stroke-opacity:1; 
stroke-linecap:round; stroke-linejoin:round;">
<path style="fill:#000000; fill-opacity:1.0000; 
stroke:#000000; stroke-width:0.0000; stroke-opacity:1; 
stroke-linecap:round; stroke-linejoin:round;fill-rule:evenodd;"
d="M 51.9820,65.7470
51.9820,64.0470
53.6820,64.0470
53.6820,65.7470
Z" /> 
<circle cx="52.8320" cy="67.4370" r="0.8500" /> 
<circle cx="52.8320" cy="69.9770" r="0.8500" /> 
<circle cx="52.8320" cy="72.5170" r="0.8500" /> 
<circle cx="52.8320" cy="75.0570" r="0.8500" /> 
<circle cx="52.8320" cy="77.5970" r="0.8500" /> 
<circle cx="52.8320" cy="80.1370" r="0.8500" /> 
<circle cx="52.8320" cy="82.6770" r="0.8500" /> 
<circle cx="52.8320" cy="85.2170" r="0.8500" /> 
<circle cx="52.8320" cy="87.7570" r="0.8500" /> 
<circle cx="52.8320" cy="90.2970" r="0.8500" /> 
</g>
<g >
</g>
<g style="fill:#000000; fill-opacity:1.0000; 
stroke:#000000; stroke-width:0.0000; stroke-opacity:1; 
stroke-linecap:round; stroke-linejoin:round;">
<circle cx="69.0880" cy="152.4000" r="0.8000" /> 
</g>
<g style="fill:#000000; fill-opacity:1.0000; 
stroke:#000000; stroke-width:0.0212; stroke-opacity:1; 
stroke-linecap:round; stroke-linejoin:round;">
</g>
<g style="fill:#000000; fill-opacity:1.0000; 
stroke:#000000; stroke-width:0.0000; stroke-opacity:1; 
stroke-linecap:round; stroke-linejoin:round;">
<circle cx="69.0880" cy="142.2400" r="0.8000" /> 
</g>
<g >
</g>
<g >
</g>
<g >
</g>
<g style="fill:#000000; fill-opacity:1.0000; 
stroke:#000000; stroke-width:0.0000; stroke-opacity:1; 
stroke-linecap:round; stroke-linejoin:round;">
</g>
<g style="fill:#000000; fill-opacity:1.0000; 
stroke:#000000; stroke-width:0.3810; stroke-opacity:1; 
stroke-linecap:round; stroke-linejoin:round;">
</g>
<g style="fill:#000000; fill-opacity:0.0; 
stroke:#000000; stroke-width:0.3810; stroke-opacity:1; 
stroke-linecap:round; stroke-linejoin:round;">
<path d="M57.2165 68.0505
L78.2505 68.0505
" />
<path d="M78.2505 68.0505
L83.7400 73.5400
" />
<path d="M51.5915 64.9065
L51.5915 92.7395
" />
<path d="M51.5915 92.7395
L52.8320 93.9800
" />
<path d="M52.8320 64.8970
L54.0630 64.8970
" />
<path d="M54.0630 64.8970
L57.2165 68.0505
" />
<path d="M52.8320 64.8970
L51.6010 64.8970
" />
<path d="M51.6010 64.8970
L51.5915 64.9065
" />
</g>
<g style="fill:#000000; fill-opacity:0.0; 
stroke:#000000; stroke-width:0.2500; stroke-opacity:1; 
stroke-linecap:round; stroke-linejoin:round;">
<path d="M53.3080 83.8520
L53.3960 83.8520
" />
<path d="M80.3400 72.6400
L81.2400 73.5400
" />
<path d="M68.3260 68.8340
L78.2320 68.8340
" />
<path d="M54.0070 83.2410
L54.0070 83.1530
" />
<path d="M78.2320 68.8340
L80.3400 70.9420
" />
<path d="M80.3400 70.9420
L80.3400 72.6400
" />
<path d="M52.8320 85.2170
L52.8320 84.3280
" />
<path d="M53.3960 83.8520
L54.0070 83.2410
" />
<path d="M52.8320 84.3280
L53.3080 83.8520
" />
<path d="M54.0070 83.1530
L68.3260 68.8340
" />
<path d="M52.8320 82.6770
L60.9600 74.5490
" />
<path d="M60.9600 74.5490
L60.9600 70.9600
" />
<path d="M69.0880 142.2400
L69.0880 128.8320
" />
<path d="M69.0880 128.8320
L83.7400 114.1800
" />
</g>
<g >
</g>
<g style="fill:#000000; fill-opacity:0.0; 
stroke:#000000; stroke-width:0.2500; stroke-opacity:1; 
stroke-linecap:round; stroke-linejoin:round;">
<g >
</g>
<g style="fill:#000000; fill-opacity:1.0000; 
stroke:#000000; stroke-width:0.0000; stroke-opacity:1; 
stroke-linecap:round; stroke-linejoin:round;">
<path style="fill:#000000; fill-opacity:1.0000; 
stroke:#000000; stroke-width:0.0000; stroke-opacity:1; 
stroke-linecap:round; stroke-linejoin:round;fill-rule:evenodd;"
d="M 93.8466,50.8955
93.8931,50.9492
93.9045,51.0015
93.9045,162.3585
93.8845,162.4266
93.8308,162.4731
93.7785,162.4845
51.0015,162.4845
50.9334,162.4645
50.8869,162.4108
50.8755,162.3585
50.8755,160.0200
51.9843,160.0200
52.0049,160.2554
52.0661,160.4837
52.0661,160.4837
52.1660,160.6978
52.3015,160.8914
52.3015,160.8914
52.3015,160.8914
52.4686,161.0585
52.4686,161.0585
52.4686,161.0585
52.6622,161.1940
52.6622,161.1940
52.7383,161.2295
52.8763,161.2939
53.1046,161.3551
53.2810,161.3705
53.2810,161.3705
53.3990,161.3705
53.3990,161.3705
53.5754,161.3551
53.8037,161.2939
54.0178,161.1940
54.2114,161.0585
54.3785,160.8914
54.5140,160.6978
54.6139,160.4837
54.6751,160.2554
54.6957,160.0200
54.6957,160.0200
90.0843,160.0200
90.1049,160.2554
90.1661,160.4837
90.1661,160.4837
90.2660,160.6978
90.4015,160.8914
90.4015,160.8914
90.4015,160.8914
90.5686,161.0585
90.5686,161.0585
90.5686,161.0585
90.7622,161.1940
90.7622,161.1940
90.8383,161.2295
90.9763,161.2939
91.2046,161.3551
91.3810,161.3705
91.3810,161.3705
91.4990,161.3705
91.4990,161.3705
91.6754,161.3551
91.9037,161.2939
92.1178,161.1940
92.3114,161.0585
92.4785,160.8914
92.6140,160.6978
92.7139,160.4837
92.7751,160.2554
92.7957,160.0200
92.7751,159.7846
92.7139,159.5563
92.6140,159.3422
92.6140,159.3422
92.6140,159.3422
92.4785,159.1486
92.4785,159.1486
92.4785,159.1486
92.3114,158.9815
92.3114,158.9815
92.3114,158.9815
92.1178,158.8460
92.1178,158.8460
91.9037,158.7461
91.9037,158.7461
91.6754,158.6849
91.5431,158.6734
91.4990,158.6695
91.3810,158.6695
91.3457,158.6726
91.2046,158.6849
90.9763,158.7461
90.9763,158.7461
90.7622,158.8460
90.5686,158.9815
90.5686,158.9815
90.4015,159.1486
90.4015,159.1486
90.2660,159.3422
90.1661,159.5563
90.1661,159.5563
90.1049,159.7846
90.0843,160.0200
54.6957,160.0200
54.6751,159.7846
54.6139,159.5563
54.5140,159.3422
54.5140,159.3422
54.5140,159.3422
54.3785,159.1486
54.3785,159.1486
54.3785,159.1486
54.2114,158.9815
54.2114,158.9815
54.2114,158.9815
54.0178,158.8460
54.0178,158.8460
53.8037,158.7461
53.8037,158.7461
53.5754,158.6849
53.4431,158.6734
53.3990,158.6695
53.2810,158.6695
53.2457,158.6726
53.1046,158.6849
52.8763,158.7461
52.8763,158.7461
52.6622,158.8460
52.4686,158.9815
52.4686,158.9815
52.3015,159.1486
52.3015,159.1486
52.1660,159.3422
52.0661,159.5563
52.0661,159.5563
52.0049,159.7846
51.9843,160.0200
50.8755,160.0200
50.8755,152.2400
59.3816,152.2400
59.4011,152.4869
59.4589,152.7277
59.5537,152.9566
59.6831,153.1677
59.6831,153.1677
59.8439,153.3561
60.0323,153.5169
60.0323,153.5169
60.2434,153.6463
60.4723,153.7411
60.7131,153.7989
60.9600,153.8184
61.2069,153.7989
61.4477,153.7411
61.6766,153.6463
61.8877,153.5169
62.0761,153.3561
62.2369,153.1677
62.3663,152.9566
62.4611,152.7277
62.5189,152.4869
62.5258,152.4000
67.7745,152.4000
67.7945,152.6281
67.8537,152.8492
67.9505,153.0567
68.0818,153.2443
68.2437,153.4062
68.4313,153.5375
68.6388,153.6343
68.8599,153.6935
69.0880,153.7135
69.3161,153.6935
69.5372,153.6343
69.7447,153.5375
69.9323,153.4062
70.0942,153.2443
70.2255,153.0567
70.3223,152.8492
70.3815,152.6281
70.4015,152.4000
70.3875,152.2400
79.7016,152.2400
79.7211,152.4869
79.7789,152.7277
79.8737,152.9566
80.0031,153.1677
80.0031,153.1677
80.1639,153.3561
80.3523,153.5169
80.3523,153.5169
80.5634,153.6463
80.7923,153.7411
81.0331,153.7989
81.2800,153.8184
81.5269,153.7989
81.7677,153.7411
81.9966,153.6463
82.2077,153.5169
82.3961,153.3561
82.5569,153.1677
82.6863,152.9566
82.7811,152.7277
82.8389,152.4869
82.8584,152.2400
82.8389,151.9931
82.7811,151.7523
82.6863,151.5234
82.5569,151.3123
82.5569,151.3123
82.3961,151.1239
82.2077,150.9631
82.2077,150.9631
82.2077,150.9631
81.9966,150.8337
81.7677,150.7389
81.5269,150.6811
81.5269,150.6811
81.2800,150.6616
81.0331,150.6811
80.7923,150.7389
80.5634,150.8337
80.3523,150.9631
80.3523,150.9631
80.1639,151.1239
80.0031,151.3123
80.0031,151.3123
79.8737,151.5234
79.7789,151.7523
79.7211,151.9931
79.7016,152.2400
70.3875,152.2400
70.3815,152.1719
70.3223,151.9508
70.2255,151.7433
70.0942,151.5557
69.9323,151.3938
69.8158,151.3123
69.7447,151.2625
69.5372,151.1657
69.5372,151.1657
69.3813,151.1239
69.3161,151.1065
69.0880,151.0865
68.8599,151.1065
68.6388,151.1657
68.6388,151.1657
68.4312,151.2625
68.2437,151.3938
68.2437,151.3938
68.0818,151.5557
68.0818,151.5557
67.9505,151.7432
67.8537,151.9508
67.8537,151.9508
67.7945,152.1719
67.7745,152.4000
62.5258,152.4000
62.5384,152.2400
62.5189,151.9931
62.4611,151.7523
62.3663,151.5234
62.2369,151.3123
62.2369,151.3123
62.0761,151.1239
61.8877,150.9631
61.8877,150.9631
61.8877,150.9631
61.6766,150.8337
61.4477,150.7389
61.2069,150.6811
61.2069,150.6811
60.9600,150.6616
60.7131,150.6811
60.4723,150.7389
60.2434,150.8337
60.0323,150.9631
60.0323,150.9631
59.8439,151.1239
59.6831,151.3123
59.6831,151.3123
59.5537,151.5234
59.4589,151.7523
59.4011,151.9931
59.3816,152.2400
50.8755,152.2400
50.8755,143.9400
59.3816,143.9400
59.4011,144.1869
59.4589,144.4277
59.5537,144.6566
59.6831,144.8677
59.6831,144.8677
59.8439,145.0561
60.0323,145.2169
60.0323,145.2169
60.2434,145.3463
60.4723,145.4411
60.7131,145.4989
60.9600,145.5184
61.2069,145.4989
61.4477,145.4411
61.6766,145.3463
61.8877,145.2169
62.0761,145.0561
62.2369,144.8677
62.3663,144.6566
62.4611,144.4277
62.5189,144.1869
62.5384,143.9400
79.7016,143.9400
79.7211,144.1869
79.7789,144.4277
79.8737,144.6566
80.0031,144.8677
80.0031,144.8677
80.1639,145.0561
80.3523,145.2169
80.3523,145.2169
80.5634,145.3463
80.7923,145.4411
81.0331,145.4989
81.2800,145.5184
81.5269,145.4989
81.7677,145.4411
81.9966,145.3463
82.2077,145.2169
82.3961,145.0561
82.5569,144.8677
82.6863,144.6566
82.7811,144.4277
82.8389,144.1869
82.8584,143.9400
82.8389,143.6931
82.7811,143.4523
82.6863,143.2234
82.5569,143.0123
82.5569,143.0123
82.3961,142.8239
82.2077,142.6631
82.2077,142.6631
82.2077,142.6631
81.9966,142.5337
81.9283,142.5054
81.8731,142.4609
81.8506,142.3935
81.8682,142.3247
81.9202,142.2763
81.9766,142.2630
82.2936,142.2630
82.2936,142.2630
82.3541,142.2565
82.4910,142.2054
82.4910,142.2054
82.6079,142.1179
82.6954,142.0010
82.6954,142.0010
82.7465,141.8641
82.7530,141.8036
82.7530,141.8036
82.7530,141.0940
81.8346,141.0940
81.8648,141.0300
81.8936,140.8786
81.8840,140.7248
81.8389,140.5860
82.7530,140.5860
82.7530,139.8764
82.7530,139.8764
82.7465,139.8159
82.6954,139.6790
82.6954,139.6790
82.6079,139.5621
82.4910,139.4746
82.3541,139.4235
82.2936,139.4170
81.5340,139.4170
81.5340,140.2835
81.5063,140.2683
81.3571,140.2300
81.2416,140.2300
81.1271,140.2445
81.0260,140.2845
81.0260,139.4170
80.2664,139.4170
80.2059,139.4235
80.0690,139.4746
80.0690,139.4746
79.9521,139.5621
79.8646,139.6790
79.8646,139.6790
79.8135,139.8159
79.8070,139.8764
79.8070,140.5860
80.7254,140.5860
80.6952,140.6500
80.6664,140.8014
80.6760,140.9552
80.7211,141.0940
79.8070,141.0940
79.8070,141.8036
79.8135,141.8641
79.8646,142.0010
79.8646,142.0010
79.9521,142.1179
80.0690,142.2054
80.2059,142.2565
80.2664,142.2630
80.2664,142.2630
80.5834,142.2630
80.6516,142.2830
80.6981,142.3367
80.7082,142.4069
80.6787,142.4715
80.6317,142.5054
80.6082,142.5151
80.5634,142.5337
80.3523,142.6631
80.3523,142.6631
80.1639,142.8239
80.0031,143.0123
80.0031,143.0123
79.8737,143.2234
79.7789,143.4523
79.7211,143.6931
79.7016,143.9400
62.5384,143.9400
62.5189,143.6931
62.4611,143.4523
62.3663,143.2234
62.2369,143.0123
62.2369,143.0123
62.0761,142.8239
61.8877,142.6631
61.8877,142.6631
61.8877,142.6631
61.6766,142.5337
61.6083,142.5054
61.5531,142.4609
61.5306,142.3935
61.5482,142.3247
61.6002,142.2763
61.6566,142.2630
61.9736,142.2630
61.9736,142.2630
62.0341,142.2565
62.0783,142.2400
67.7745,142.2400
67.7945,142.4681
67.8120,142.5337
67.8537,142.6892
67.8537,142.6892
67.9505,142.8967
68.0314,143.0123
68.0818,143.0843
68.2437,143.2462
68.4313,143.3775
68.6388,143.4743
68.8599,143.5335
69.0880,143.5535
69.3161,143.5335
69.5372,143.4743
69.7447,143.3775
69.9323,143.2462
70.0942,143.0843
70.2255,142.8967
70.3223,142.6892
70.3815,142.4681
70.4015,142.2400
70.3815,142.0119
70.3223,141.7908
70.2255,141.5833
70.0942,141.3957
69.9323,141.2338
69.8404,141.1695
69.7752,141.1238
69.7309,141.0684
69.7215,141.0206
69.7215,131.9200
79.7016,131.9200
79.7211,132.1669
79.7789,132.4077
79.8737,132.6366
80.0031,132.8477
80.0031,132.8477
80.1639,133.0361
80.3523,133.1969
80.3523,133.1969
80.5634,133.3263
80.7923,133.4211
81.0331,133.4789
81.2800,133.4984
81.5269,133.4789
81.7677,133.4211
81.9966,133.3263
82.2077,133.1969
82.3961,133.0361
82.5569,132.8477
82.6863,132.6366
82.7811,132.4077
82.8389,132.1669
82.8584,131.9200
82.8389,131.6731
82.7811,131.4323
82.6863,131.2034
82.5569,130.9923
82.5569,130.9923
82.3961,130.8039
82.2077,130.6431
82.2077,130.6431
82.2077,130.6431
81.9966,130.5137
81.7677,130.4189
81.5269,130.3611
81.5269,130.3611
81.2800,130.3416
81.0331,130.3611
80.7923,130.4189
80.5634,130.5137
80.3523,130.6431
80.3523,130.6431
80.1639,130.8039
80.0031,130.9923
80.0031,130.9923
79.8737,131.2034
79.7789,131.4323
79.7211,131.6731
79.7016,131.9200
69.7215,131.9200
69.7215,129.1466
69.7415,129.0785
69.7584,129.0575
75.1959,123.6200
79.7016,123.6200
79.7211,123.8669
79.7789,124.1077
79.8737,124.3366
80.0031,124.5477
80.0031,124.5477
80.1639,124.7361
80.3523,124.8969
80.3523,124.8969
80.5634,125.0263
80.7923,125.1211
81.0331,125.1789
81.2800,125.1984
81.5269,125.1789
81.7677,125.1211
81.9966,125.0263
82.2077,124.8969
82.3961,124.7361
82.5569,124.5477
82.6863,124.3366
82.7811,124.1077
82.8389,123.8669
82.8584,123.6200
82.8389,123.3731
82.7811,123.1323
82.6863,122.9034
82.5569,122.6923
82.5569,122.6923
82.3961,122.5039
82.2077,122.3431
82.2077,122.3431
82.2077,122.3431
81.9966,122.2137
81.9283,122.1854
81.8731,122.1409
81.8506,122.0735
81.8682,122.0047
81.9202,121.9563
81.9766,121.9430
82.2936,121.9430
82.2936,121.9430
82.3541,121.9365
82.4910,121.8854
82.4910,121.8854
82.6079,121.7979
82.6954,121.6810
82.6954,121.6810
82.7465,121.5441
82.7530,121.4836
82.7530,121.4836
82.7530,120.7740
81.8346,120.7740
81.8648,120.7100
81.8936,120.5586
81.8840,120.4048
81.8389,120.2660
82.7530,120.2660
82.7530,119.5564
82.7530,119.5564
82.7465,119.4959
82.6954,119.3590
82.6954,119.3590
82.6079,119.2421
82.4910,119.1546
82.3541,119.1035
82.2936,119.0970
81.5340,119.0970
81.5340,119.9635
81.5063,119.9483
81.3571,119.9100
81.2416,119.9100
81.1271,119.9245
81.0260,119.9645
81.0260,119.0970
80.2664,119.0970
80.2059,119.1035
80.0690,119.1546
80.0690,119.1546
79.9521,119.2421
79.8646,119.3590
79.8646,119.3590
79.8135,119.4959
79.8070,119.5564
79.8070,120.2660
80.7254,120.2660
80.6952,120.3300
80.6664,120.4814
80.6760,120.6352
80.7211,120.7740
79.8070,120.7740
79.8070,121.4836
79.8135,121.5441
79.8646,121.6810
79.8646,121.6810
79.9521,121.7979
80.0690,121.8854
80.2059,121.9365
80.2664,121.9430
80.2664,121.9430
80.5834,121.9430
80.6516,121.9630
80.6981,122.0167
80.7082,122.0869
80.6787,122.1515
80.6317,122.1854
80.6082,122.1951
80.5634,122.2137
80.3523,122.3431
80.3523,122.3431
80.1639,122.5039
80.0031,122.6923
80.0031,122.6923
79.8737,122.9034
79.7789,123.1323
79.7211,123.3731
79.7016,123.6200
75.1959,123.6200
76.4728,122.3431
83.2427,115.5732
83.3050,115.5392
83.3727,115.5431
83.3930,115.5501
83.3930,115.5501
83.6233,115.5885
83.6233,115.5885
83.8567,115.5885
83.8567,115.5885
84.0870,115.5501
84.3077,115.4743
84.5130,115.3632
84.6972,115.2198
84.7091,115.2069
84.8553,115.0481
84.9830,114.8527
85.0767,114.6389
85.1341,114.4126
85.1533,114.1800
85.1341,113.9474
85.0767,113.7211
84.9830,113.5073
84.8845,113.3566
84.8553,113.3119
84.6972,113.1402
84.6972,113.1402
84.6051,113.0685
84.5130,112.9968
84.3077,112.8857
84.3077,112.8857
84.3077,112.8857
84.0870,112.8099
84.0869,112.8099
83.9884,112.7935
83.8567,112.7715
83.6233,112.7715
83.5081,112.7907
83.3931,112.8099
83.3930,112.8099
83.1723,112.8857
83.1723,112.8857
82.9670,112.9968
82.9670,112.9968
82.7828,113.1402
82.7828,113.1402
82.6247,113.3119
82.5955,113.3566
82.5415,113.4027
82.4711,113.4123
82.4068,113.3823
82.3845,113.3566
82.3553,113.3119
82.1972,113.1402
82.1972,113.1402
82.1051,113.0685
82.0130,112.9968
81.8077,112.8857
81.8077,112.8857
81.8077,112.8857
81.5870,112.8099
81.5869,112.8099
81.4884,112.7935
81.3567,112.7715
81.1233,112.7715
81.0081,112.7907
80.8931,112.8099
80.8930,112.8099
80.6723,112.8857
80.6723,112.8857
80.4670,112.9968
80.4195,113.0338
80.3003,113.1266
80.2342,113.1526
80.1646,113.1388
80.1135,113.0896
80.1048,113.0712
80.0909,113.0338
80.0909,113.0338
80.0033,112.9167
79.8862,112.8291
79.8862,112.8291
79.7492,112.7780
79.7492,112.7780
79.6886,112.7715
79.6886,112.7715
77.7914,112.7715
77.7913,112.7715
77.7308,112.7780
77.7308,112.7780
77.5938,112.8291
77.5938,112.8291
77.4767,112.9167
77.3891,113.0338
77.3891,113.0338
77.3380,113.1708
77.3380,113.1708
77.3315,113.2313
77.3315,115.1286
77.3380,115.1892
77.3380,115.1892
77.3891,115.3262
77.3891,115.3262
77.4767,115.4433
77.5938,115.5309
77.5938,115.5309
77.5938,115.5309
77.6452,115.5501
77.7308,115.5820
77.7308,115.5820
77.7913,115.5885
77.7914,115.5885
77.7914,115.5885
77.7914,115.5885
79.6886,115.5885
79.6886,115.5885
79.6886,115.5885
79.6886,115.5885
79.7492,115.5820
79.7492,115.5820
79.7492,115.5820
79.8862,115.5309
79.8868,115.5304
80.0033,115.4433
80.0909,115.3262
80.0909,115.3262
80.0909,115.3262
80.0909,115.3262
80.1048,115.2888
80.1474,115.2320
80.2139,115.2072
80.2833,115.2223
80.3003,115.2334
80.3715,115.2888
80.4670,115.3632
80.6723,115.4743
80.8930,115.5501
81.1233,115.5885
81.1233,115.5885
81.1314,115.5885
81.1995,115.6085
81.2460,115.6622
81.2561,115.7324
81.2266,115.7970
81.2205,115.8036
68.6993,128.3248
68.6869,128.3347
68.6871,128.3349
68.6810,128.3400
68.6330,128.3911
68.6119,128.4122
68.6076,128.4178
68.6037,128.4223
68.5714,128.4567
68.5714,128.4567
68.5617,128.4744
68.5508,128.4909
68.5384,128.5070
68.5196,128.5503
68.5170,128.5556
68.4943,128.5969
68.4943,128.5969
68.4893,128.6166
68.4829,128.6353
68.4748,128.6539
68.4674,128.7005
68.4662,128.7063
68.4545,128.7520
68.4545,128.7722
68.4529,128.7919
68.4498,128.8119
68.4498,128.8119
68.4542,128.8589
68.4545,128.8648
68.4545,141.0206
68.4345,141.0887
68.4008,141.1238
68.2437,141.2338
68.2437,141.2338
68.0818,141.3957
68.0818,141.3957
67.9505,141.5832
67.8537,141.7908
67.8537,141.7908
67.7974,142.0010
67.7945,142.0119
67.7745,142.2400
62.0783,142.2400
62.1710,142.2054
62.1710,142.2054
62.2879,142.1179
62.3754,142.0010
62.3754,142.0010
62.4265,141.8641
62.4330,141.8036
62.4330,141.8036
62.4330,141.0940
61.5146,141.0940
61.5448,141.0300
61.5736,140.8786
61.5640,140.7248
61.5189,140.5860
62.4330,140.5860
62.4330,139.8764
62.4330,139.8764
62.4265,139.8159
62.3754,139.6790
62.3754,139.6790
62.2879,139.5621
62.1710,139.4746
62.0341,139.4235
61.9736,139.4170
61.2140,139.4170
61.2140,140.2835
61.1863,140.2683
61.0371,140.2300
60.9216,140.2300
60.8071,140.2445
60.7060,140.2845
60.7060,139.4170
59.9464,139.4170
59.8859,139.4235
59.7490,139.4746
59.7490,139.4746
59.6321,139.5621
59.5446,139.6790
59.5446,139.6790
59.4935,139.8159
59.4870,139.8764
59.4870,140.5860
60.4054,140.5860
60.3752,140.6500
60.3464,140.8014
60.3560,140.9552
60.4011,141.0940
59.4870,141.0940
59.4870,141.8036
59.4935,141.8641
59.5446,142.0010
59.5446,142.0010
59.6321,142.1179
59.7490,142.2054
59.8859,142.2565
59.9464,142.2630
59.9464,142.2630
60.2634,142.2630
60.3316,142.2830
60.3781,142.3367
60.3882,142.4069
60.3587,142.4715
60.3117,142.5054
60.2882,142.5151
60.2434,142.5337
60.0323,142.6631
60.0323,142.6631
59.8439,142.8239
59.6831,143.0123
59.6831,143.0123
59.5537,143.2234
59.4589,143.4523
59.4011,143.6931
59.3816,143.9400
50.8755,143.9400
50.8755,131.9200
59.3816,131.9200
59.4011,132.1669
59.4589,132.4077
59.5537,132.6366
59.6831,132.8477
59.6831,132.8477
59.8439,133.0361
60.0323,133.1969
60.0323,133.1969
60.2434,133.3263
60.4723,133.4211
60.7131,133.4789
60.9600,133.4984
61.2069,133.4789
61.4477,133.4211
61.6766,133.3263
61.8877,133.1969
62.0761,133.0361
62.2369,132.8477
62.3663,132.6366
62.4611,132.4077
62.5189,132.1669
62.5384,131.9200
62.5189,131.6731
62.4611,131.4323
62.3663,131.2034
62.2369,130.9923
62.2369,130.9923
62.0761,130.8039
61.8877,130.6431
61.8877,130.6431
61.8877,130.6431
61.6766,130.5137
61.4477,130.4189
61.2069,130.3611
61.2069,130.3611
60.9600,130.3416
60.7131,130.3611
60.4723,130.4189
60.2434,130.5137
60.0323,130.6431
60.0323,130.6431
59.8439,130.8039
59.6831,130.9923
59.6831,130.9923
59.5537,131.2034
59.4589,131.4323
59.4011,131.6731
59.3816,131.9200
50.8755,131.9200
50.8755,123.6200
59.3816,123.6200
59.4011,123.8669
59.4589,124.1077
59.5537,124.3366
59.6831,124.5477
59.6831,124.5477
59.8439,124.7361
60.0323,124.8969
60.0323,124.8969
60.2434,125.0263
60.4723,125.1211
60.7131,125.1789
60.9600,125.1984
61.2069,125.1789
61.4477,125.1211
61.6766,125.0263
61.8877,124.8969
62.0761,124.7361
62.2369,124.5477
62.3663,124.3366
62.4611,124.1077
62.5189,123.8669
62.5384,123.6200
62.5189,123.3731
62.4611,123.1323
62.3663,122.9034
62.2369,122.6923
62.2369,122.6923
62.0761,122.5039
61.8877,122.3431
61.8877,122.3431
61.8877,122.3431
61.6766,122.2137
61.6083,122.1854
61.5531,122.1409
61.5306,122.0735
61.5482,122.0047
61.6002,121.9563
61.6566,121.9430
61.9736,121.9430
61.9736,121.9430
62.0341,121.9365
62.1710,121.8854
62.1710,121.8854
62.2879,121.7979
62.3754,121.6810
62.3754,121.6810
62.4265,121.5441
62.4330,121.4836
62.4330,121.4836
62.4330,120.7740
61.5146,120.7740
61.5448,120.7100
61.5736,120.5586
61.5640,120.4048
61.5189,120.2660
62.4330,120.2660
62.4330,119.5564
62.4330,119.5564
62.4265,119.4959
62.3754,119.3590
62.3754,119.3590
62.2879,119.2421
62.1710,119.1546
62.0341,119.1035
61.9736,119.0970
61.2140,119.0970
61.2140,119.9635
61.1863,119.9483
61.0371,119.9100
60.9216,119.9100
60.8071,119.9245
60.7060,119.9645
60.7060,119.0970
59.9464,119.0970
59.8859,119.1035
59.7490,119.1546
59.7490,119.1546
59.6321,119.2421
59.5446,119.3590
59.5446,119.3590
59.4935,119.4959
59.4870,119.5564
59.4870,120.2660
60.4054,120.2660
60.3752,120.3300
60.3464,120.4814
60.3560,120.6352
60.4011,120.7740
59.4870,120.7740
59.4870,121.4836
59.4935,121.5441
59.5446,121.6810
59.5446,121.6810
59.6321,121.7979
59.7490,121.8854
59.8859,121.9365
59.9464,121.9430
59.9464,121.9430
60.2634,121.9430
60.3316,121.9630
60.3781,122.0167
60.3882,122.0869
60.3587,122.1515
60.3117,122.1854
60.2882,122.1951
60.2434,122.2137
60.0323,122.3431
60.0323,122.3431
59.8439,122.5039
59.6831,122.6923
59.6831,122.6923
59.5537,122.9034
59.4589,123.1323
59.4011,123.3731
59.3816,123.6200
50.8755,123.6200
50.8755,117.3480
51.5185,117.3480
51.5385,117.5761
51.5977,117.7972
51.6945,118.0047
51.8258,118.1923
51.9877,118.3542
52.1753,118.4855
52.3828,118.5823
52.6039,118.6415
52.8320,118.6615
53.0601,118.6415
53.2812,118.5823
53.4887,118.4855
53.6763,118.3542
53.8382,118.1923
53.9695,118.0047
54.0663,117.7972
54.1255,117.5761
54.1455,117.3480
54.1255,117.1199
54.0663,116.8988
53.9695,116.6913
53.8382,116.5037
53.6763,116.3418
53.4887,116.2105
53.4887,116.2105
53.2812,116.1137
53.2812,116.1137
53.1878,116.0887
53.0601,116.0545
52.8320,116.0345
52.6039,116.0545
52.3828,116.1137
52.3828,116.1137
52.1752,116.2105
51.9877,116.3418
51.9877,116.3418
51.8258,116.5037
51.8258,116.5037
51.6945,116.6912
51.5977,116.8988
51.5977,116.8988
51.5385,117.1199
51.5185,117.3480
50.8755,117.3480
50.8755,115.1286
57.0120,115.1286
57.0185,115.1891
57.0696,115.3260
57.0696,115.3260
57.1571,115.4429
57.2740,115.5304
57.4109,115.5815
57.4714,115.5880
57.4714,115.5880
58.1660,115.5880
58.1660,114.6137
58.2777,114.6647
58.3842,114.6800
58.4558,114.6800
58.5623,114.6647
58.6740,114.6137
58.6740,115.5880
59.3686,115.5880
59.3686,115.5880
59.4291,115.5815
59.5660,115.5304
59.5660,115.5304
59.6829,115.4429
59.7704,115.3260
59.7704,115.3260
59.7844,115.2885
59.8270,115.2317
59.8935,115.2069
59.9629,115.2220
59.9799,115.2331
60.1470,115.3632
60.3523,115.4743
60.5730,115.5501
60.8033,115.5885
60.8033,115.5885
61.0367,115.5885
61.0367,115.5885
61.2670,115.5501
61.4877,115.4743
61.6930,115.3632
61.8772,115.2198
61.9055,115.1891
61.9611,115.1286
62.0353,115.0481
62.0645,115.0034
62.1185,114.9573
62.1889,114.9477
62.2532,114.9777
62.2755,115.0034
62.3047,115.0481
62.3047,115.0481
62.4628,115.2198
62.4628,115.2198
62.5286,115.2711
62.6470,115.3632
62.8523,115.4743
63.0730,115.5501
63.3033,115.5885
63.3033,115.5885
63.5367,115.5885
63.5367,115.5885
63.7670,115.5501
63.9877,115.4743
64.1930,115.3632
64.3772,115.2198
64.3891,115.2069
64.5353,115.0481
64.6630,114.8527
64.7567,114.6389
64.8141,114.4126
64.8333,114.1800
64.8141,113.9474
64.7567,113.7211
64.6630,113.5073
64.5645,113.3566
64.5353,113.3119
64.3772,113.1402
64.3772,113.1402
64.2851,113.0685
64.1930,112.9968
63.9877,112.8857
63.9877,112.8857
63.9877,112.8857
63.7670,112.8099
63.7669,112.8099
63.6684,112.7935
63.5367,112.7715
63.3033,112.7715
63.1881,112.7907
63.0731,112.8099
63.0730,112.8099
62.8523,112.8857
62.8523,112.8857
62.6470,112.9968
62.6470,112.9968
62.4628,113.1402
62.4628,113.1402
62.3047,113.3119
62.2755,113.3566
62.2215,113.4027
62.1511,113.4123
62.0868,113.3823
62.0645,113.3566
62.0353,113.3119
61.8772,113.1402
61.8772,113.1402
61.7851,113.0685
61.6930,112.9968
61.4877,112.8857
61.4877,112.8857
61.4877,112.8857
61.2670,112.8099
61.2669,112.8099
61.1684,112.7935
61.0367,112.7715
60.8033,112.7715
60.6881,112.7907
60.5731,112.8099
60.5730,112.8099
60.3523,112.8857
60.3523,112.8857
60.1470,112.9968
60.1470,112.9968
59.9799,113.1269
59.9138,113.1529
59.8442,113.1392
59.7930,113.0899
59.7844,113.0715
59.7704,113.0340
59.7704,113.0340
59.6829,112.9171
59.5660,112.8296
59.4291,112.7785
59.3686,112.7720
58.6740,112.7720
58.6740,113.7463
58.5623,113.6953
58.4558,113.6800
58.3842,113.6800
58.2777,113.6953
58.1660,113.7463
58.1660,112.7720
57.4714,112.7720
57.4109,112.7785
57.2740,112.8296
57.2740,112.8296
57.1571,112.9171
57.0696,113.0340
57.0696,113.0340
57.0185,113.1709
57.0120,113.2314
57.0120,113.9260
57.9889,113.9260
57.9605,113.9702
57.9200,114.1081
57.9200,114.2519
57.9605,114.3898
57.9889,114.4340
57.0120,114.4340
57.0120,115.1286
50.8755,115.1286
50.8755,107.1880
51.5185,107.1880
51.5385,107.4161
51.5555,107.4798
51.5977,107.6372
51.5977,107.6372
51.6945,107.8447
51.7848,107.9737
51.8258,108.0323
51.9877,108.1942
52.1753,108.3255
52.3828,108.4223
52.6039,108.4815
52.8320,108.5015
53.0601,108.4815
53.2812,108.4223
53.4887,108.3255
53.6763,108.1942
53.8382,108.0323
53.9695,107.8447
54.0663,107.6372
54.0975,107.5208
54.1344,107.4602
54.1983,107.4291
54.2688,107.4376
54.3235,107.4828
54.3369,107.5084
54.4236,107.7352
54.4236,107.7352
54.5575,107.9737
54.5575,107.9737
54.7247,108.1902
54.7247,108.1902
54.9216,108.3801
54.9216,108.3801
55.1440,108.5392
55.1440,108.5392
55.3873,108.6643
55.3873,108.6643
55.6461,108.7526
55.6461,108.7526
55.9151,108.8023
56.1884,108.8122
56.3511,108.7944
56.4603,108.7823
56.4603,108.7823
56.4603,108.7823
56.7249,108.7132
56.9766,108.6062
57.2101,108.4637
57.4203,108.2887
57.6029,108.0850
57.7538,107.8569
57.8699,107.6093
57.9487,107.3474
57.9885,107.0768
57.9885,107.0083
63.8515,107.0083
63.8665,107.2128
63.8665,107.2128
63.9147,107.4291
63.9259,107.4798
63.9259,107.4798
64.0236,107.7352
64.0236,107.7352
64.1575,107.9737
64.1575,107.9737
64.3247,108.1902
64.3247,108.1902
64.5216,108.3801
64.5216,108.3801
64.7440,108.5392
64.7440,108.5392
64.9873,108.6643
64.9873,108.6643
65.2461,108.7526
65.2461,108.7526
65.5151,108.8023
65.7884,108.8122
65.9511,108.7944
66.0603,108.7823
66.0603,108.7823
66.0603,108.7823
66.3249,108.7132
66.5766,108.6062
66.8101,108.4637
67.0203,108.2887
67.2029,108.0850
67.3538,107.8569
67.4699,107.6093
67.5487,107.3474
67.5885,107.0768
67.5885,107.0083
74.5715,107.0083
74.5865,107.2128
74.5865,107.2128
74.6347,107.4291
74.6459,107.4798
74.6459,107.4798
74.7436,107.7352
74.7436,107.7352
74.8775,107.9737
74.8775,107.9737
75.0447,108.1902
75.0447,108.1902
75.2416,108.3801
75.2416,108.3801
75.4640,108.5392
75.4640,108.5392
75.7073,108.6643
75.7073,108.6643
75.9661,108.7526
75.9661,108.7526
76.2351,108.8023
76.5084,108.8122
76.6711,108.7944
76.7803,108.7823
76.7803,108.7823
76.7803,108.7823
77.0449,108.7132
77.2966,108.6062
77.5301,108.4637
77.7403,108.2887
77.9229,108.0850
78.0738,107.8569
78.1899,107.6093
78.2687,107.3474
78.3085,107.0768
78.3085,107.0083
84.1715,107.0083
84.1865,107.2128
84.1865,107.2128
84.2347,107.4291
84.2459,107.4798
84.2459,107.4798
84.3436,107.7352
84.3436,107.7352
84.4775,107.9737
84.4775,107.9737
84.6447,108.1902
84.6447,108.1902
84.8416,108.3801
84.8416,108.3801
85.0640,108.5392
85.0640,108.5392
85.3073,108.6643
85.3073,108.6643
85.5661,108.7526
85.5661,108.7526
85.8351,108.8023
86.1084,108.8122
86.2711,108.7944
86.3803,108.7823
86.3803,108.7823
86.3803,108.7823
86.6449,108.7132
86.8966,108.6062
87.1301,108.4637
87.3403,108.2887
87.5229,108.0850
87.6738,107.8569
87.7899,107.6093
87.8687,107.3474
87.9085,107.0768
87.9085,106.3517
87.9079,106.3437
87.8935,106.1472
87.8935,106.1472
87.8341,105.8802
87.7364,105.6248
87.7364,105.6248
87.7364,105.6248
87.6025,105.3863
87.6025,105.3863
87.4353,105.1698
87.4353,105.1698
87.2384,104.9799
87.2384,104.9799
87.0160,104.8208
87.0160,104.8208
86.7727,104.6957
86.7727,104.6957
86.5139,104.6074
86.5139,104.6074
86.2449,104.5577
86.2449,104.5577
86.0101,104.5492
85.9716,104.5478
85.9716,104.5478
85.9716,104.5478
85.6997,104.5777
85.6997,104.5777
85.4351,104.6468
85.1834,104.7538
85.1834,104.7538
84.9499,104.8963
84.7807,105.0371
84.7396,105.0713
84.5571,105.2750
84.5571,105.2750
84.4062,105.5031
84.2901,105.7507
84.2113,106.0126
84.2113,106.0127
84.1715,106.2832
84.1715,107.0083
78.3085,107.0083
78.3085,106.3517
78.3079,106.3437
78.2935,106.1472
78.2935,106.1472
78.2341,105.8802
78.1364,105.6248
78.1364,105.6248
78.1364,105.6248
78.0025,105.3863
78.0025,105.3863
77.8353,105.1698
77.8353,105.1698
77.6384,104.9799
77.6384,104.9799
77.4160,104.8208
77.4160,104.8208
77.1727,104.6957
77.1727,104.6957
76.9139,104.6074
76.9139,104.6074
76.6449,104.5577
76.6449,104.5577
76.4101,104.5492
76.3716,104.5478
76.3716,104.5478
76.3716,104.5478
76.0997,104.5777
76.0997,104.5777
75.8351,104.6468
75.5834,104.7538
75.5834,104.7538
75.3499,104.8963
75.1807,105.0371
75.1396,105.0713
74.9571,105.2750
74.9571,105.2750
74.8062,105.5031
74.6901,105.7507
74.6113,106.0126
74.6113,106.0127
74.5715,106.2832
74.5715,107.0083
67.5885,107.0083
67.5885,106.3517
67.5879,106.3437
67.5735,106.1472
67.5735,106.1472
67.5141,105.8802
67.4164,105.6248
67.4164,105.6248
67.4164,105.6248
67.2825,105.3863
67.2825,105.3863
67.1153,105.1698
67.1153,105.1698
66.9184,104.9799
66.9184,104.9799
66.6960,104.8208
66.6960,104.8208
66.4527,104.6957
66.4527,104.6957
66.1939,104.6074
66.1939,104.6074
65.9249,104.5577
65.9249,104.5577
65.6901,104.5492
65.6516,104.5478
65.6516,104.5478
65.6516,104.5478
65.3797,104.5777
65.3797,104.5777
65.1151,104.6468
64.8634,104.7538
64.8634,104.7538
64.6299,104.8963
64.4607,105.0371
64.4196,105.0713
64.2371,105.2750
64.2371,105.2750
64.0862,105.5031
63.9701,105.7507
63.8913,106.0126
63.8913,106.0127
63.8515,106.2832
63.8515,107.0083
57.9885,107.0083
57.9885,106.3517
57.9879,106.3437
57.9735,106.1472
57.9735,106.1472
57.9141,105.8802
57.8164,105.6248
57.8164,105.6248
57.8164,105.6248
57.6825,105.3863
57.6825,105.3863
57.5153,105.1698
57.5153,105.1698
57.3184,104.9799
57.3184,104.9799
57.0960,104.8208
57.0960,104.8208
56.8527,104.6957
56.8527,104.6957
56.5939,104.6074
56.5939,104.6074
56.3249,104.5577
56.3249,104.5577
56.0901,104.5492
56.0516,104.5478
56.0516,104.5478
56.0516,104.5478
55.7797,104.5777
55.7797,104.5777
55.5151,104.6468
55.2634,104.7538
55.2634,104.7538
55.0299,104.8963
54.8607,105.0371
54.8196,105.0713
54.6371,105.2750
54.6371,105.2750
54.4862,105.5031
54.3701,105.7507
54.2913,106.0126
54.2913,106.0127
54.2515,106.2832
54.2515,106.5676
54.2315,106.6357
54.1778,106.6822
54.1076,106.6923
54.0430,106.6628
54.0113,106.6209
53.9865,106.5676
53.9695,106.5313
53.8382,106.3437
53.6763,106.1818
53.4887,106.0505
53.4076,106.0126
53.2812,105.9537
53.2812,105.9537
53.1878,105.9287
53.0601,105.8945
52.8320,105.8745
52.6039,105.8945
52.3828,105.9537
52.3828,105.9537
52.1752,106.0505
51.9877,106.1818
51.9877,106.1818
51.8258,106.3437
51.8258,106.3437
51.6945,106.5312
51.5977,106.7388
51.5977,106.7388
51.5385,106.9599
51.5185,107.1880
50.8755,107.1880
50.8755,104.1400
51.5185,104.1400
51.5385,104.3681
51.5977,104.5892
51.5977,104.5892
51.6945,104.7967
51.8258,104.9843
51.9877,105.1462
52.1753,105.2775
52.3828,105.3743
52.6039,105.4335
52.8320,105.4535
53.0601,105.4335
53.2812,105.3743
53.4887,105.2775
53.6763,105.1462
53.8382,104.9843
53.9695,104.7967
54.0663,104.5892
54.1255,104.3681
54.1455,104.1400
54.1255,103.9119
54.0663,103.6908
53.9695,103.4833
53.8382,103.2957
53.6763,103.1338
53.4887,103.0025
53.2812,102.9057
53.2812,102.9057
53.1878,102.8807
53.0601,102.8465
52.8320,102.8265
52.6039,102.8465
52.3828,102.9057
52.3828,102.9057
52.1752,103.0025
51.9877,103.1338
51.9877,103.1338
51.8258,103.2957
51.8258,103.2957
51.6945,103.4832
51.5977,103.6908
51.5977,103.6908
51.5385,103.9119
51.5185,104.1400
50.8755,104.1400
50.8755,98.0440
69.8065,98.0440
69.8265,98.2721
69.8857,98.4932
69.9825,98.7007
70.1138,98.8883
70.2757,99.0502
70.4633,99.1815
70.6708,99.2783
70.8919,99.3375
71.1200,99.3575
71.3481,99.3375
71.5692,99.2783
71.7767,99.1815
71.9643,99.0502
72.1262,98.8883
72.2575,98.7007
72.3543,98.4932
72.4135,98.2721
72.4335,98.0440
79.9665,98.0440
79.9865,98.2721
80.0457,98.4932
80.1425,98.7007
80.2738,98.8883
80.4357,99.0502
80.6233,99.1815
80.8308,99.2783
81.0519,99.3375
81.2800,99.3575
81.5081,99.3375
81.7292,99.2783
81.9367,99.1815
82.1243,99.0502
82.2862,98.8883
82.4175,98.7007
82.5143,98.4932
82.5735,98.2721
82.5935,98.0440
82.5735,97.8159
82.5143,97.5948
82.4175,97.3873
82.2862,97.1997
82.1243,97.0378
81.9367,96.9065
81.7292,96.8097
81.7292,96.8097
81.6358,96.7847
81.5081,96.7505
81.2800,96.7305
81.0519,96.7505
80.8308,96.8097
80.8308,96.8097
80.6232,96.9065
80.4357,97.0378
80.4357,97.0378
80.2738,97.1997
80.2738,97.1997
80.1425,97.3872
80.0457,97.5948
80.0457,97.5948
79.9865,97.8159
79.9665,98.0440
72.4335,98.0440
72.4135,97.8159
72.3543,97.5948
72.2575,97.3873
72.1262,97.1997
71.9643,97.0378
71.7767,96.9065
71.7767,96.9065
71.5692,96.8097
71.5692,96.8097
71.4758,96.7847
71.3481,96.7505
71.1200,96.7305
70.8919,96.7505
70.6708,96.8097
70.6708,96.8097
70.4633,96.9065
70.2757,97.0378
70.2757,97.0378
70.1138,97.1997
70.1138,97.1997
69.9825,97.3872
69.8857,97.5948
69.8857,97.5948
69.8265,97.8159
69.8065,98.0440
50.8755,98.0440
50.8755,93.3190
50.8955,93.2509
50.9492,93.2044
51.0194,93.1943
51.0840,93.2238
51.0850,93.2246
51.1107,93.2474
51.1135,93.2500
51.3135,93.4500
51.5036,93.6401
51.5376,93.7025
51.5385,93.7464
51.5389,93.7464
51.5386,93.7504
51.5386,93.7511
51.5385,93.7519
51.5227,93.9319
51.5185,93.9800
51.5302,94.1140
51.5385,94.2081
51.5977,94.4292
51.5977,94.4292
51.6945,94.6367
51.8148,94.8086
51.8258,94.8243
51.9877,94.9862
52.1753,95.1175
52.3828,95.2143
52.6039,95.2735
52.8320,95.2935
53.0601,95.2735
53.2812,95.2143
53.4887,95.1175
53.6763,94.9862
53.8382,94.8243
53.8492,94.8086
77.3320,94.8086
77.3385,94.8691
77.3896,95.0060
77.3896,95.0060
77.4771,95.1229
77.5940,95.2104
77.7309,95.2615
77.7914,95.2680
77.7914,95.2680
78.4860,95.2680
78.4860,94.2937
78.5977,94.3447
78.7042,94.3600
78.7758,94.3600
78.8823,94.3447
78.9940,94.2937
78.9940,95.2680
79.6886,95.2680
79.6886,95.2680
79.7491,95.2615
79.8860,95.2104
79.8860,95.2104
80.0029,95.1229
80.0904,95.0060
80.0904,95.0060
80.1044,94.9685
80.1470,94.9117
80.2135,94.8869
80.2829,94.9020
80.2999,94.9131
80.4670,95.0432
80.6723,95.1543
80.8930,95.2301
81.1233,95.2685
81.1233,95.2685
81.3567,95.2685
81.3567,95.2685
81.5870,95.2301
81.8077,95.1543
82.0130,95.0432
82.1972,94.8998
82.2255,94.8691
82.2397,94.8536
82.3553,94.7281
82.3845,94.6834
82.4385,94.6373
82.5089,94.6277
82.5732,94.6577
82.5955,94.6834
82.6247,94.7281
82.6247,94.7281
82.7828,94.8998
82.7828,94.8998
82.8486,94.9511
82.9670,95.0432
83.1723,95.1543
83.3930,95.2301
83.6233,95.2685
83.6233,95.2685
83.8567,95.2685
83.8567,95.2685
84.0870,95.2301
84.3077,95.1543
84.5130,95.0432
84.6972,94.8998
84.7091,94.8869
84.8553,94.7281
84.9830,94.5327
85.0767,94.3189
85.1341,94.0926
85.1533,93.8600
85.1341,93.6274
85.0767,93.4011
84.9830,93.1873
84.9284,93.1038
84.8553,92.9919
84.6972,92.8202
84.6972,92.8202
84.5664,92.7184
84.5130,92.6768
84.3077,92.5657
84.3077,92.5657
84.3077,92.5657
84.0870,92.4899
84.0869,92.4899
83.9884,92.4735
83.8567,92.4515
83.6233,92.4515
83.5081,92.4707
83.3931,92.4899
83.3930,92.4899
83.1723,92.5657
83.1723,92.5657
83.1492,92.5782
82.9670,92.6768
82.9670,92.6768
82.7828,92.8202
82.7828,92.8202
82.6247,92.9919
82.5955,93.0366
82.5415,93.0827
82.4711,93.0923
82.4068,93.0623
82.3845,93.0366
82.3553,92.9919
82.3215,92.9552
82.1972,92.8202
82.1972,92.8202
82.0664,92.7184
82.0130,92.6768
81.8077,92.5657
81.8077,92.5657
81.8077,92.5657
81.5870,92.4899
81.5869,92.4899
81.4884,92.4735
81.3567,92.4515
81.1233,92.4515
81.0081,92.4707
80.8931,92.4899
80.8930,92.4899
80.6723,92.5657
80.6723,92.5657
80.6492,92.5782
80.4670,92.6768
80.4670,92.6768
80.2999,92.8069
80.2338,92.8329
80.1642,92.8192
80.1130,92.7699
80.1044,92.7515
80.0904,92.7140
80.0904,92.7140
80.0029,92.5971
79.8860,92.5096
79.7491,92.4585
79.6886,92.4520
78.9940,92.4520
78.9940,93.4263
78.8823,93.3753
78.7758,93.3600
78.7042,93.3600
78.5977,93.3753
78.4860,93.4263
78.4860,92.4520
77.7914,92.4520
77.7309,92.4585
77.5940,92.5096
77.5940,92.5096
77.4771,92.5971
77.3896,92.7140
77.3896,92.7140
77.3385,92.8509
77.3320,92.9114
77.3320,93.6060
78.3089,93.6060
78.2805,93.6502
78.2400,93.7881
78.2400,93.9319
78.2805,94.0698
78.3089,94.1140
77.3320,94.1140
77.3320,94.8086
53.8492,94.8086
53.9695,94.6367
54.0663,94.4292
54.1255,94.2081
54.1455,93.9800
54.1255,93.7519
54.0663,93.5308
53.9695,93.3233
53.8382,93.1357
53.6763,92.9738
53.6497,92.9552
53.4887,92.8425
53.2812,92.7457
53.2812,92.7457
53.1208,92.7027
53.0601,92.6865
52.8320,92.6665
52.6039,92.6865
52.6031,92.6866
52.6027,92.6866
52.5984,92.6869
52.5984,92.6861
52.5325,92.6787
52.4921,92.6516
52.3274,92.4869
52.2934,92.4246
52.2905,92.3978
52.2905,91.7234
52.3105,91.6552
52.3642,91.6088
52.4344,91.5987
52.4574,91.6042
52.4975,91.6180
52.4975,91.6180
52.5780,91.6314
52.5780,90.7307
52.6897,90.7817
52.7962,90.7970
52.8678,90.7970
52.9743,90.7817
53.0860,90.7307
53.0860,91.6314
53.1665,91.6180
53.1665,91.6180
53.3794,91.5449
53.3794,91.5449
53.5773,91.4378
53.5773,91.4378
53.7549,91.2995
53.9073,91.1340
54.0304,90.9455
54.1208,90.7395
54.1208,90.7394
54.1685,90.5510
53.2631,90.5510
53.2915,90.5068
53.3320,90.3689
53.3320,90.2251
53.2915,90.0872
53.2631,90.0430
54.1685,90.0430
54.1685,90.0430
54.1208,89.8545
54.1208,89.8545
54.0706,89.7400
59.3816,89.7400
59.4011,89.9869
59.4589,90.2277
59.5537,90.4566
59.6831,90.6677
59.6831,90.6677
59.8439,90.8561
59.9487,90.9455
60.0323,91.0169
60.2434,91.1463
60.3117,91.1746
60.3669,91.2191
60.3894,91.2865
60.3718,91.3553
60.3198,91.4037
60.2634,91.4170
59.9464,91.4170
59.8859,91.4235
59.7490,91.4746
59.7490,91.4746
59.6321,91.5621
59.5446,91.6790
59.5446,91.6790
59.4935,91.8159
59.4870,91.8764
59.4870,92.5860
60.4054,92.5860
60.3752,92.6500
60.3464,92.8014
60.3560,92.9552
60.4011,93.0940
59.4870,93.0940
59.4870,93.8036
59.4935,93.8641
59.5446,94.0010
59.5446,94.0010
59.6321,94.1179
59.7490,94.2054
59.8859,94.2565
59.9464,94.2630
59.9464,94.2630
60.7060,94.2630
60.7060,93.3965
60.7337,93.4117
60.8829,93.4500
60.9984,93.4500
61.1129,93.4355
61.2140,93.3955
61.2140,94.2630
61.9736,94.2630
61.9736,94.2630
62.0341,94.2565
62.1710,94.2054
62.1710,94.2054
62.2879,94.1179
62.3754,94.0010
62.3754,94.0010
62.4265,93.8641
62.4330,93.8036
62.4330,93.8036
62.4330,93.0940
61.5146,93.0940
61.5448,93.0300
61.5736,92.8786
61.5640,92.7248
61.5189,92.5860
62.4330,92.5860
62.4330,91.8764
62.4330,91.8764
62.4265,91.8159
62.3754,91.6790
62.3754,91.6790
62.2879,91.5621
62.1710,91.4746
62.0341,91.4235
61.9736,91.4170
61.6566,91.4170
61.5884,91.3970
61.5419,91.3433
61.5318,91.2731
61.5613,91.2085
61.6083,91.1746
61.6766,91.1463
61.8877,91.0169
62.0761,90.8561
62.2369,90.6677
62.3663,90.4566
62.4611,90.2277
62.5189,89.9869
62.5384,89.7400
62.5189,89.4931
62.4611,89.2523
62.3663,89.0234
62.2369,88.8123
62.2369,88.8123
62.0761,88.6239
61.8877,88.4631
61.8877,88.4631
61.8877,88.4631
61.6766,88.3337
61.5619,88.2862
61.4477,88.2389
61.3658,88.2192
61.2069,88.1811
61.2069,88.1811
60.9600,88.1616
60.7131,88.1811
60.4723,88.2389
60.2434,88.3337
60.0323,88.4631
60.0323,88.4631
59.8439,88.6239
59.6831,88.8123
59.6831,88.8123
59.5537,89.0234
59.4589,89.2523
59.4011,89.4931
59.3816,89.7400
54.0706,89.7400
54.0304,89.6485
53.9073,89.4600
53.7549,89.2945
53.5773,89.1562
53.5773,89.1562
53.5438,89.1381
53.4934,89.0881
53.4780,89.0188
53.5026,88.9522
53.5438,88.9165
53.5776,88.8982
53.7552,88.7599
53.9077,88.5943
54.0309,88.4058
54.1213,88.1996
54.1766,87.9814
54.1952,87.7570
54.1766,87.5326
54.1468,87.4152
54.1213,87.3144
54.1213,87.3144
54.1213,87.3144
54.0309,87.1082
53.9780,87.0273
53.9077,86.9197
53.9077,86.9197
53.7552,86.7541
53.6707,86.6883
74.5715,86.6883
74.5865,86.8928
74.5865,86.8928
74.6345,87.1082
74.6459,87.1598
74.6459,87.1598
74.7436,87.4152
74.7436,87.4152
74.8775,87.6537
74.8775,87.6537
75.0447,87.8702
75.0447,87.8702
75.0447,87.8702
75.2416,88.0601
75.4366,88.1996
75.4640,88.2192
75.4640,88.2192
75.7073,88.3443
75.7073,88.3443
75.9661,88.4326
75.9661,88.4326
76.2351,88.4823
76.5084,88.4922
76.6711,88.4744
76.7803,88.4623
76.7803,88.4623
76.7803,88.4623
77.0449,88.3932
77.2966,88.2862
77.5301,88.1437
77.7403,87.9687
77.9229,87.7650
78.0738,87.5369
78.1899,87.2893
78.2687,87.0274
78.3085,86.7568
78.3085,86.6883
84.1715,86.6883
84.1865,86.8928
84.1865,86.8928
84.2345,87.1082
84.2459,87.1598
84.2459,87.1598
84.3436,87.4152
84.3436,87.4152
84.4775,87.6537
84.4775,87.6537
84.6447,87.8702
84.6447,87.8702
84.6447,87.8702
84.8416,88.0601
85.0366,88.1996
85.0640,88.2192
85.0640,88.2192
85.3073,88.3443
85.3073,88.3443
85.5661,88.4326
85.5661,88.4326
85.8351,88.4823
86.1084,88.4922
86.2711,88.4744
86.3803,88.4623
86.3803,88.4623
86.3803,88.4623
86.6449,88.3932
86.8966,88.2862
87.1301,88.1437
87.3403,87.9687
87.5229,87.7650
87.6738,87.5369
87.7899,87.2893
87.8687,87.0274
87.9085,86.7568
87.9085,86.0317
87.8935,85.8272
87.8341,85.5602
87.7364,85.3048
87.7364,85.3048
87.7364,85.3048
87.6025,85.0663
87.6025,85.0663
87.4353,84.8498
87.4353,84.8498
87.2384,84.6599
87.2384,84.6599
87.0160,84.5008
87.0160,84.5008
86.7727,84.3757
86.7727,84.3757
86.5139,84.2874
86.5139,84.2874
86.2449,84.2377
86.2449,84.2377
86.0101,84.2292
85.9716,84.2278
85.9716,84.2278
85.9716,84.2278
85.6997,84.2577
85.6997,84.2577
85.4351,84.3268
85.1834,84.4338
85.1834,84.4338
84.9499,84.5763
84.7807,84.7171
84.7396,84.7513
84.5571,84.9550
84.5571,84.9550
84.4062,85.1831
84.2901,85.4307
84.2113,85.6926
84.2113,85.6927
84.1715,85.9632
84.1715,86.6883
78.3085,86.6883
78.3085,86.0317
78.2935,85.8272
78.2341,85.5602
78.1364,85.3048
78.1364,85.3048
78.1364,85.3048
78.0025,85.0663
78.0025,85.0663
77.8353,84.8498
77.8353,84.8498
77.6384,84.6599
77.6384,84.6599
77.4160,84.5008
77.4160,84.5008
77.1727,84.3757
77.1727,84.3757
76.9139,84.2874
76.9139,84.2874
76.6449,84.2377
76.6449,84.2377
76.4101,84.2292
76.3716,84.2278
76.3716,84.2278
76.3716,84.2278
76.0997,84.2577
76.0997,84.2577
75.8351,84.3268
75.5834,84.4338
75.5834,84.4338
75.3499,84.5763
75.1807,84.7171
75.1396,84.7513
74.9571,84.9550
74.9571,84.9550
74.8062,85.1831
74.6901,85.4307
74.6113,85.6926
74.6113,85.6927
74.5715,85.9632
74.5715,86.6883
53.6707,86.6883
53.6707,86.6883
53.5776,86.6158
53.5443,86.5978
53.4939,86.5478
53.4786,86.4785
53.5031,86.4119
53.5443,86.3762
53.5776,86.3582
53.7552,86.2199
53.9077,86.0543
54.0309,85.8658
54.1213,85.6596
54.1766,85.4414
54.1952,85.2170
54.1766,84.9926
54.1670,84.9550
54.1213,84.7744
54.1213,84.7744
54.1213,84.7744
54.0309,84.5682
53.9077,84.3797
53.9077,84.3797
53.9070,84.3786
53.8864,84.3106
53.9059,84.2423
53.9233,84.2206
54.3957,83.7482
54.4081,83.7383
54.4079,83.7381
54.4140,83.7330
54.4140,83.7330
54.4620,83.6819
54.4831,83.6608
54.4874,83.6552
54.4913,83.6507
54.5236,83.6163
54.5333,83.5986
54.5442,83.5820
54.5566,83.5660
54.5754,83.5227
54.5780,83.5174
54.6007,83.4761
54.6007,83.4761
54.6036,83.4687
54.6060,83.4696
54.6323,83.4236
56.6159,81.4400
59.3816,81.4400
59.4011,81.6869
59.4589,81.9277
59.5537,82.1566
59.6831,82.3677
59.6831,82.3677
59.8439,82.5561
60.0323,82.7169
60.0323,82.7169
60.2434,82.8463
60.4723,82.9411
60.7131,82.9989
60.9600,83.0184
61.2069,82.9989
61.4477,82.9411
61.6766,82.8463
61.8877,82.7169
62.0761,82.5561
62.2369,82.3677
62.3663,82.1566
62.4611,81.9277
62.5189,81.6869
62.5384,81.4400
62.5189,81.1931
62.4611,80.9523
62.3663,80.7234
62.2369,80.5123
62.2369,80.5123
62.0761,80.3239
61.8877,80.1631
61.8877,80.1631
61.8877,80.1631
61.6766,80.0337
61.4477,79.9389
61.2069,79.8811
61.2069,79.8811
60.9600,79.8616
60.7131,79.8811
60.4723,79.9389
60.2434,80.0337
60.0323,80.1631
60.0323,80.1631
59.8439,80.3239
59.6831,80.5123
59.6831,80.5123
59.5537,80.7234
59.4589,80.9523
59.4011,81.1931
59.3816,81.4400
56.6159,81.4400
68.5515,69.5044
68.6138,69.4704
68.6406,69.4675
77.9174,69.4675
77.9855,69.4875
78.0065,69.5044
79.6696,71.1675
79.7036,71.2298
79.7065,71.2566
79.7065,72.0060
79.6865,72.0741
79.6328,72.1206
79.5805,72.1320
78.9940,72.1320
78.9940,73.1063
78.8823,73.0553
78.7758,73.0400
78.7042,73.0400
78.5977,73.0553
78.4860,73.1063
78.4860,72.1320
77.7914,72.1320
77.7309,72.1385
77.5940,72.1896
77.5940,72.1896
77.4771,72.2771
77.3896,72.3940
77.3896,72.3940
77.3385,72.5309
77.3320,72.5914
77.3320,73.2860
78.3089,73.2860
78.2805,73.3302
78.2400,73.4681
78.2400,73.6119
78.2805,73.7498
78.3089,73.7940
77.3320,73.7940
77.3320,74.4886
77.3385,74.5491
77.3896,74.6860
77.3896,74.6860
77.4771,74.8029
77.5940,74.8904
77.7309,74.9415
77.7914,74.9480
77.7914,74.9480
78.4860,74.9480
78.4860,73.9737
78.5977,74.0247
78.7042,74.0400
78.7758,74.0400
78.8823,74.0247
78.9940,73.9737
78.9940,74.9480
79.6886,74.9480
79.6886,74.9480
79.7491,74.9415
79.8860,74.8904
79.8860,74.8904
80.0029,74.8029
80.0904,74.6860
80.0904,74.6860
80.1044,74.6485
80.1470,74.5917
80.2135,74.5669
80.2829,74.5820
80.2999,74.5931
80.4670,74.7232
80.6723,74.8343
80.8930,74.9101
81.1233,74.9485
81.1233,74.9485
81.3567,74.9485
81.3567,74.9485
81.5870,74.9101
81.8077,74.8343
82.0130,74.7232
82.1972,74.5798
82.2071,74.5691
82.2812,74.4886
82.3553,74.4081
82.3845,74.3634
82.4385,74.3173
82.5089,74.3077
82.5732,74.3377
82.5955,74.3634
82.6247,74.4081
82.6247,74.4081
82.7828,74.5798
82.7828,74.5798
82.8272,74.6144
82.9670,74.7232
83.1723,74.8343
83.3930,74.9101
83.6233,74.9485
83.6233,74.9485
83.8567,74.9485
83.8567,74.9485
84.0870,74.9101
84.3077,74.8343
84.5130,74.7232
84.6972,74.5798
84.7071,74.5691
84.8553,74.4081
84.8767,74.3754
84.9830,74.2127
85.0767,73.9989
85.1341,73.7726
85.1533,73.5400
85.1341,73.3074
85.0982,73.1658
85.0767,73.0811
85.0767,73.0811
84.9830,72.8673
84.8553,72.6719
84.6972,72.5002
84.6972,72.5002
84.5853,72.4131
84.5130,72.3568
84.3077,72.2457
84.3077,72.2457
84.3077,72.2457
84.0870,72.1699
84.0869,72.1699
83.9884,72.1535
83.8567,72.1315
83.6233,72.1315
83.5082,72.1507
83.4274,72.1642
83.3569,72.1557
83.3175,72.1290
81.1655,69.9770
78.7610,67.5725
78.7585,67.5698
78.7174,67.5235
78.7074,67.5166
78.6665,67.4883
78.6635,67.4861
78.6148,67.4479
78.6058,67.4439
78.5859,67.4327
78.5777,67.4270
78.5777,67.4270
78.5777,67.4270
78.5668,67.4229
78.5199,67.4051
78.5164,67.4036
78.4600,67.3783
78.4600,67.3783
78.4502,67.3765
78.4283,67.3704
78.4190,67.3668
78.4190,67.3668
78.3682,67.3607
78.3576,67.3594
78.3539,67.3588
78.2930,67.3477
78.2930,67.3477
78.2313,67.3514
78.2275,67.3515
78.2089,67.3515
78.1408,67.3315
78.0943,67.2779
78.0842,67.2076
78.0948,67.1720
78.1899,66.9693
78.2687,66.7074
78.3085,66.4368
78.3085,66.3683
84.1715,66.3683
84.1865,66.5728
84.1865,66.5728
84.2345,66.7882
84.2459,66.8398
84.2459,66.8398
84.3436,67.0952
84.3436,67.0952
84.4775,67.3337
84.4775,67.3337
84.6447,67.5502
84.6447,67.5502
84.6447,67.5502
84.8416,67.7401
85.0366,67.8796
85.0640,67.8992
85.0640,67.8992
85.3073,68.0243
85.3073,68.0243
85.5661,68.1126
85.5661,68.1126
85.8351,68.1623
86.1084,68.1722
86.2711,68.1544
86.3803,68.1423
86.3803,68.1423
86.3803,68.1423
86.6449,68.0732
86.8966,67.9662
87.1301,67.8237
87.3403,67.6487
87.5229,67.4450
87.6738,67.2169
87.7899,66.9693
87.8687,66.7074
87.9085,66.4368
87.9085,65.7117
87.8935,65.5072
87.8341,65.2402
87.7364,64.9848
87.7364,64.9848
87.7364,64.9848
87.6025,64.7463
87.6025,64.7463
87.4353,64.5298
87.4353,64.5298
87.2384,64.3399
87.2384,64.3399
87.0160,64.1808
87.0160,64.1808
86.7727,64.0557
86.7727,64.0557
86.5139,63.9674
86.5139,63.9674
86.2449,63.9177
86.2449,63.9177
86.0101,63.9092
85.9716,63.9078
85.9716,63.9078
85.9716,63.9078
85.6997,63.9377
85.6997,63.9377
85.4351,64.0068
85.1834,64.1138
85.1834,64.1138
84.9499,64.2563
84.8133,64.3700
84.7396,64.4313
84.5571,64.6350
84.5571,64.6350
84.4062,64.8631
84.2901,65.1107
84.2113,65.3726
84.2113,65.3727
84.1715,65.6432
84.1715,66.3683
78.3085,66.3683
78.3085,65.7117
78.2935,65.5072
78.2341,65.2402
78.1364,64.9848
78.1364,64.9848
78.1364,64.9848
78.0025,64.7463
78.0025,64.7463
77.8353,64.5298
77.8353,64.5298
77.6384,64.3399
77.6384,64.3399
77.4160,64.1808
77.4160,64.1808
77.1727,64.0557
77.1727,64.0557
76.9139,63.9674
76.9139,63.9674
76.6449,63.9177
76.6449,63.9177
76.4101,63.9092
76.3716,63.9078
76.3716,63.9078
76.3716,63.9078
76.0997,63.9377
76.0997,63.9377
75.8351,64.0068
75.5834,64.1138
75.5834,64.1138
75.3499,64.2563
75.2133,64.3700
75.1396,64.4313
74.9571,64.6350
74.9571,64.6350
74.8062,64.8631
74.6901,65.1107
74.6113,65.3726
74.6113,65.3727
74.5715,65.6432
74.5715,66.3683
74.5865,66.5728
74.5865,66.5728
74.6345,66.7882
74.6459,66.8398
74.6459,66.8398
74.7436,67.0952
74.7822,67.1638
74.7981,67.2330
74.7740,67.2998
74.7177,67.3430
74.6723,67.3515
57.5582,67.3515
57.4901,67.3315
57.4691,67.3146
56.1202,65.9657
54.5735,64.4190
54.5710,64.4163
54.5299,64.3699
54.5199,64.3631
54.4790,64.3348
54.4760,64.3326
54.4273,64.2944
54.4182,64.2904
54.3984,64.2791
54.3902,64.2735
54.3902,64.2735
54.3902,64.2735
54.3793,64.2694
54.3324,64.2516
54.3289,64.2501
54.2655,64.2216
54.2668,64.2187
54.2198,64.1873
54.1915,64.1222
54.1905,64.1065
54.1905,63.9984
54.1905,63.9983
54.1840,63.9378
54.1840,63.9378
54.1329,63.8008
54.1329,63.8008
54.0453,63.6837
53.9282,63.5961
53.9282,63.5961
53.7912,63.5450
53.7912,63.5450
53.7306,63.5385
53.7306,63.5385
51.9334,63.5385
51.9333,63.5385
51.8728,63.5450
51.8728,63.5450
51.7358,63.5961
51.7358,63.5961
51.6187,63.6837
51.5311,63.8008
51.5311,63.8008
51.4800,63.9378
51.4800,63.9378
51.4735,63.9983
51.4735,63.9984
51.4735,64.1065
51.4535,64.1746
51.3998,64.2211
51.3984,64.2217
51.3351,64.2501
51.3316,64.2516
51.2738,64.2735
51.2656,64.2792
51.2458,64.2903
51.2367,64.2944
51.2367,64.2944
51.2115,64.3142
51.1923,64.3266
51.1915,64.3270
51.1915,64.3270
51.1775,64.3394
51.1715,64.3441
51.1341,64.3699
51.1341,64.3700
51.1039,64.4040
51.0985,64.4094
51.0851,64.4213
51.0208,64.4515
50.9504,64.4422
50.8963,64.3963
50.8755,64.3284
50.8755,64.3270
50.8755,62.6600
59.3816,62.6600
59.4011,62.9069
59.4589,63.1477
59.5537,63.3766
59.6569,63.5450
59.6831,63.5877
59.6831,63.5877
59.8439,63.7761
60.0098,63.9177
60.0323,63.9369
60.2434,64.0663
60.4723,64.1611
60.7131,64.2189
60.9600,64.2384
61.2069,64.2189
61.4477,64.1611
61.6766,64.0663
61.8877,63.9369
62.0761,63.7761
62.2369,63.5877
62.3663,63.3766
62.4611,63.1477
62.5189,62.9069
62.5384,62.6600
62.5189,62.4131
62.4611,62.1723
62.3663,61.9434
62.2369,61.7323
62.2369,61.7323
62.0761,61.5439
61.8877,61.3831
61.8877,61.3831
61.8877,61.3831
61.6766,61.2537
61.6083,61.2254
61.5531,61.1809
61.5306,61.1135
61.5482,61.0447
61.6002,60.9963
61.6566,60.9830
61.9736,60.9830
61.9736,60.9830
62.0341,60.9765
62.1710,60.9254
62.1710,60.9254
62.2879,60.8379
62.3754,60.7210
62.3754,60.7210
62.4265,60.5841
62.4330,60.5236
62.4330,60.5236
62.4330,59.8140
61.5146,59.8140
61.5448,59.7500
61.5736,59.5986
61.5640,59.4448
61.5189,59.3060
62.4330,59.3060
62.4330,58.5964
62.4330,58.5964
62.4265,58.5359
62.3754,58.3990
62.3754,58.3990
62.2879,58.2821
62.1710,58.1946
62.0341,58.1435
61.9736,58.1370
61.2140,58.1370
61.2140,59.0035
61.1863,58.9883
61.0371,58.9500
60.9216,58.9500
60.8071,58.9645
60.7060,59.0045
60.7060,58.1370
59.9464,58.1370
59.8859,58.1435
59.7490,58.1946
59.7490,58.1946
59.6321,58.2821
59.5446,58.3990
59.5446,58.3990
59.4935,58.5359
59.4870,58.5964
59.4870,59.3060
60.4054,59.3060
60.3752,59.3700
60.3464,59.5214
60.3560,59.6752
60.4011,59.8140
59.4870,59.8140
59.4870,60.5236
59.4935,60.5841
59.5446,60.7210
59.5446,60.7210
59.6321,60.8379
59.7490,60.9254
59.8859,60.9765
59.9464,60.9830
59.9464,60.9830
60.2634,60.9830
60.3316,61.0030
60.3781,61.0567
60.3882,61.1269
60.3587,61.1915
60.3117,61.2254
60.2882,61.2351
60.2434,61.2537
60.0323,61.3831
60.0323,61.3831
59.8439,61.5439
59.6831,61.7323
59.6831,61.7323
59.5537,61.9434
59.4589,62.1723
59.4589,62.1723
59.4011,62.4131
59.3816,62.6600
50.8755,62.6600
50.8755,53.3400
51.9843,53.3400
52.0049,53.5754
52.0661,53.8037
52.0661,53.8037
52.1660,54.0178
52.3015,54.2114
52.3015,54.2114
52.3015,54.2114
52.4686,54.3785
52.4686,54.3785
52.4686,54.3785
52.6622,54.5140
52.6622,54.5140
52.7383,54.5495
52.8763,54.6139
53.1046,54.6751
53.2810,54.6905
53.2810,54.6905
53.3990,54.6905
53.3990,54.6905
53.5754,54.6751
53.8037,54.6139
54.0178,54.5140
54.2114,54.3785
54.3785,54.2114
54.5140,54.0178
54.6139,53.8037
54.6751,53.5754
54.6957,53.3400
54.6957,53.3400
90.0843,53.3400
90.1049,53.5754
90.1661,53.8037
90.1661,53.8037
90.2660,54.0178
90.4015,54.2114
90.4015,54.2114
90.4015,54.2114
90.5686,54.3785
90.5686,54.3785
90.5686,54.3785
90.7622,54.5140
90.7622,54.5140
90.8383,54.5495
90.9763,54.6139
91.2046,54.6751
91.3810,54.6905
91.3810,54.6905
91.4990,54.6905
91.4990,54.6905
91.6754,54.6751
91.9037,54.6139
92.1178,54.5140
92.3114,54.3785
92.4785,54.2114
92.6140,54.0178
92.7139,53.8037
92.7751,53.5754
92.7957,53.3400
92.7751,53.1046
92.7139,52.8763
92.6140,52.6622
92.6140,52.6622
92.6140,52.6622
92.4785,52.4686
92.4785,52.4686
92.4785,52.4686
92.3114,52.3015
92.3114,52.3015
92.3114,52.3015
92.1178,52.1660
92.1178,52.1660
91.9037,52.0661
91.9037,52.0661
91.6754,52.0049
91.5431,51.9934
91.4990,51.9895
91.3810,51.9895
91.3457,51.9926
91.2046,52.0049
90.9763,52.0661
90.9763,52.0661
90.7622,52.1660
90.5686,52.3015
90.5686,52.3015
90.4015,52.4686
90.4015,52.4686
90.2660,52.6622
90.1661,52.8763
90.1661,52.8763
90.1049,53.1046
90.0843,53.3400
54.6957,53.3400
54.6751,53.1046
54.6139,52.8763
54.5140,52.6622
54.5140,52.6622
54.5140,52.6622
54.3785,52.4686
54.3785,52.4686
54.3785,52.4686
54.2114,52.3015
54.2114,52.3015
54.2114,52.3015
54.0178,52.1660
54.0178,52.1660
53.8037,52.0661
53.8037,52.0661
53.5754,52.0049
53.4431,51.9934
53.3990,51.9895
53.2810,51.9895
53.2457,51.9926
53.1046,52.0049
52.8763,52.0661
52.8763,52.0661
52.6622,52.1660
52.4686,52.3015
52.4686,52.3015
52.3015,52.4686
52.3015,52.4686
52.1660,52.6622
52.0661,52.8763
52.0661,52.8763
52.0049,53.1046
51.9843,53.3400
50.8755,53.3400
50.8755,51.0015
50.8955,50.9334
50.9492,50.8869
51.0015,50.8755
93.7785,50.8755
Z" /> 
</g>
</g>
</g>
<g style="fill:#FFFFFF; fill-opacity:1.0000; 
stroke:#FFFFFF; stroke-width:0.0000; stroke-opacity:1; 
stroke-linecap:round; stroke-linejoin:round;">
<circle cx="52.8320" cy="93.9800" r="0.1750" /> 
</g>
<g style="fill:#FFFFFF; fill-opacity:1.0000; 
stroke:#FFFFFF; stroke-width:0.0212; stroke-opacity:1; 
stroke-linecap:round; stroke-linejoin:round;">
</g>
<g style="fill:#FFFFFF; fill-opacity:1.0000; 
stroke:#FFFFFF; stroke-width:0.0000; stroke-opacity:1; 
stroke-linecap:round; stroke-linejoin:round;">
<circle cx="52.8320" cy="104.1400" r="0.1750" /> 
</g>
<g style="fill:#FFFFFF; fill-opacity:1.0000; 
stroke:#FFFFFF; stroke-width:0.0212; stroke-opacity:1; 
stroke-linecap:round; stroke-linejoin:round;">
</g>
<g style="fill:#FFFFFF; fill-opacity:1.0000; 
stroke:#FFFFFF; stroke-width:0.0000; stroke-opacity:1; 
stroke-linecap:round; stroke-linejoin:round;">
<circle cx="52.8320" cy="107.1880" r="0.1750" /> 
</g>
<g style="fill:#FFFFFF; fill-opacity:1.0000; 
stroke:#FFFFFF; stroke-width:0.0212; stroke-opacity:1; 
stroke-linecap:round; stroke-linejoin:round;">
</g>
<g style="fill:#FFFFFF; fill-opacity:1.0000; 
stroke:#FFFFFF; stroke-width:0.0000; stroke-opacity:1; 
stroke-linecap:round; stroke-linejoin:round;">
<circle cx="52.8320" cy="117.3480" r="0.1750" /> 
</g>
<g style="fill:#FFFFFF; fill-opacity:1.0000; 
stroke:#FFFFFF; stroke-width:0.0212; stroke-opacity:1; 
stroke-linecap:round; stroke-linejoin:round;">
</g>
<g style="fill:#FFFFFF; fill-opacity:1.0000; 
stroke:#FFFFFF; stroke-width:0.0000; stroke-opacity:1; 
stroke-linecap:round; stroke-linejoin:round;">
<circle cx="71.1200" cy="98.0440" r="0.1750" /> 
</g>
<g style="fill:#FFFFFF; fill-opacity:1.0000; 
stroke:#FFFFFF; stroke-width:0.0212; stroke-opacity:1; 
stroke-linecap:round; stroke-linejoin:round;">
</g>
<g style="fill:#FFFFFF; fill-opacity:1.0000; 
stroke:#FFFFFF; stroke-width:0.0000; stroke-opacity:1; 
stroke-linecap:round; stroke-linejoin:round;">
<circle cx="81.2800" cy="98.0440" r="0.1750" /> 
</g>
<g style="fill:#FFFFFF; fill-opacity:1.0000; 
stroke:#FFFFFF; stroke-width:0.0212; stroke-opacity:1; 
stroke-linecap:round; stroke-linejoin:round;">
</g>
<g style="fill:#FFFFFF; fill-opacity:1.0000; 
stroke:#FFFFFF; stroke-width:1.1000; stroke-opacity:1; 
stroke-linecap:round; stroke-linejoin:round;">
</g>
<g style="fill:#FFFFFF; fill-opacity:0.0; 
stroke:#FFFFFF; stroke-width:1.1000; stroke-opacity:1; 
stroke-linecap:round; stroke-linejoin:round;">
<path d="M56.1200 107.0300
L56.1200 106.3300
" />
<path d="M65.7200 107.0300
L65.7200 106.3300
" />
</g>
<g style="fill:#FFFFFF; fill-opacity:1.0000; 
stroke:#FFFFFF; stroke-width:0.0000; stroke-opacity:1; 
stroke-linecap:round; stroke-linejoin:round;">
<circle cx="58.4200" cy="114.1800" r="0.1750" /> 
</g>
<g style="fill:#FFFFFF; fill-opacity:1.0000; 
stroke:#FFFFFF; stroke-width:0.0212; stroke-opacity:1; 
stroke-linecap:round; stroke-linejoin:round;">
</g>
<g style="fill:#FFFFFF; fill-opacity:1.0000; 
stroke:#FFFFFF; stroke-width:0.0000; stroke-opacity:1; 
stroke-linecap:round; stroke-linejoin:round;">
<circle cx="60.9200" cy="114.1800" r="0.1750" /> 
</g>
<g style="fill:#FFFFFF; fill-opacity:1.0000; 
stroke:#FFFFFF; stroke-width:0.0212; stroke-opacity:1; 
stroke-linecap:round; stroke-linejoin:round;">
</g>
<g style="fill:#FFFFFF; fill-opacity:1.0000; 
stroke:#FFFFFF; stroke-width:0.0000; stroke-opacity:1; 
stroke-linecap:round; stroke-linejoin:round;">
<circle cx="63.4200" cy="114.1800" r="0.1750" /> 
</g>
<g style="fill:#FFFFFF; fill-opacity:1.0000; 
stroke:#FFFFFF; stroke-width:0.0212; stroke-opacity:1; 
stroke-linecap:round; stroke-linejoin:round;">
</g>
<g style="fill:#FFFFFF; fill-opacity:1.0000; 
stroke:#FFFFFF; stroke-width:1.1000; stroke-opacity:1; 
stroke-linecap:round; stroke-linejoin:round;">
</g>
<g style="fill:#FFFFFF; fill-opacity:0.0; 
stroke:#FFFFFF; stroke-width:1.1000; stroke-opacity:1; 
stroke-linecap:round; stroke-linejoin:round;">
<path d="M76.4400 86.7100
L76.4400 86.0100
" />
<path d="M86.0400 86.7100
L86.0400 86.0100
" />
</g>
<g style="fill:#FFFFFF; fill-opacity:1.0000; 
stroke:#FFFFFF; stroke-width:0.0000; stroke-opacity:1; 
stroke-linecap:round; stroke-linejoin:round;">
<circle cx="78.7400" cy="93.8600" r="0.1750" /> 
</g>
<g style="fill:#FFFFFF; fill-opacity:1.0000; 
stroke:#FFFFFF; stroke-width:0.0212; stroke-opacity:1; 
stroke-linecap:round; stroke-linejoin:round;">
</g>
<g style="fill:#FFFFFF; fill-opacity:1.0000; 
stroke:#FFFFFF; stroke-width:0.0000; stroke-opacity:1; 
stroke-linecap:round; stroke-linejoin:round;">
<circle cx="81.2400" cy="93.8600" r="0.1750" /> 
</g>
<g style="fill:#FFFFFF; fill-opacity:1.0000; 
stroke:#FFFFFF; stroke-width:0.0212; stroke-opacity:1; 
stroke-linecap:round; stroke-linejoin:round;">
</g>
<g style="fill:#FFFFFF; fill-opacity:1.0000; 
stroke:#FFFFFF; stroke-width:0.0000; stroke-opacity:1; 
stroke-linecap:round; stroke-linejoin:round;">
<circle cx="83.7400" cy="93.8600" r="0.1750" /> 
</g>
<g style="fill:#FFFFFF; fill-opacity:1.0000; 
stroke:#FFFFFF; stroke-width:0.0212; stroke-opacity:1; 
stroke-linecap:round; stroke-linejoin:round;">
</g>
<g style="fill:#FFFFFF; fill-opacity:1.0000; 
stroke:#FFFFFF; stroke-width:1.1000; stroke-opacity:1; 
stroke-linecap:round; stroke-linejoin:round;">
</g>
<g style="fill:#FFFFFF; fill-opacity:0.0; 
stroke:#FFFFFF; stroke-width:1.1000; stroke-opacity:1; 
stroke-linecap:round; stroke-linejoin:round;">
<path d="M76.4400 107.0300
L76.4400 106.3300
" />
<path d="M86.0400 107.0300
L86.0400 106.3300
" />
</g>
<g style="fill:#FFFFFF; fill-opacity:1.0000; 
stroke:#FFFFFF; stroke-width:0.0000; stroke-opacity:1; 
stroke-linecap:round; stroke-linejoin:round;">
<circle cx="78.7400" cy="114.1800" r="0.1750" /> 
</g>
<g style="fill:#FFFFFF; fill-opacity:1.0000; 
stroke:#FFFFFF; stroke-width:0.0212; stroke-opacity:1; 
stroke-linecap:round; stroke-linejoin:round;">
</g>
<g style="fill:#FFFFFF; fill-opacity:1.0000; 
stroke:#FFFFFF; stroke-width:0.0000; stroke-opacity:1; 
stroke-linecap:round; stroke-linejoin:round;">
<circle cx="81.2400" cy="114.1800" r="0.1750" /> 
</g>
<g style="fill:#FFFFFF; fill-opacity:1.0000; 
stroke:#FFFFFF; stroke-width:0.0212; stroke-opacity:1; 
stroke-linecap:round; stroke-linejoin:round;">
</g>
<g style="fill:#FFFFFF; fill-opacity:1.0000; 
stroke:#FFFFFF; stroke-width:0.0000; stroke-opacity:1; 
stroke-linecap:round; stroke-linejoin:round;">
<circle cx="83.7400" cy="114.1800" r="0.1750" /> 
</g>
<g style="fill:#FFFFFF; fill-opacity:1.0000; 
stroke:#FFFFFF; stroke-width:0.0212; stroke-opacity:1; 
stroke-linecap:round; stroke-linejoin:round;">
</g>
<g style="fill:#FFFFFF; fill-opacity:1.0000; 
stroke:#FFFFFF; stroke-width:1.1000; stroke-opacity:1; 
stroke-linecap:round; stroke-linejoin:round;">
</g>
<g style="fill:#FFFFFF; fill-opacity:0.0; 
stroke:#FFFFFF; stroke-width:1.1000; stroke-opacity:1; 
stroke-linecap:round; stroke-linejoin:round;">
<path d="M76.4400 66.3900
L76.4400 65.6900
" />
<path d="M86.0400 66.3900
L86.0400 65.6900
" />
</g>
<g style="fill:#FFFFFF; fill-opacity:1.0000; 
stroke:#FFFFFF; stroke-width:0.0000; stroke-opacity:1; 
stroke-linecap:round; stroke-linejoin:round;">
<circle cx="78.7400" cy="73.5400" r="0.1750" /> 
</g>
<g style="fill:#FFFFFF; fill-opacity:1.0000; 
stroke:#FFFFFF; stroke-width:0.0212; stroke-opacity:1; 
stroke-linecap:round; stroke-linejoin:round;">
</g>
<g style="fill:#FFFFFF; fill-opacity:1.0000; 
stroke:#FFFFFF; stroke-width:0.0000; stroke-opacity:1; 
stroke-linecap:round; stroke-linejoin:round;">
<circle cx="81.2400" cy="73.5400" r="0.1750" /> 
</g>
<g style="fill:#FFFFFF; fill-opacity:1.0000; 
stroke:#FFFFFF; stroke-width:0.0212; stroke-opacity:1; 
stroke-linecap:round; stroke-linejoin:round;">
</g>
<g style="fill:#FFFFFF; fill-opacity:1.0000; 
stroke:#FFFFFF; stroke-width:0.0000; stroke-opacity:1; 
stroke-linecap:round; stroke-linejoin:round;">
<circle cx="83.7400" cy="73.5400" r="0.1750" /> 
</g>
<g style="fill:#FFFFFF; fill-opacity:1.0000; 
stroke:#FFFFFF; stroke-width:0.0212; stroke-opacity:1; 
stroke-linecap:round; stroke-linejoin:round;">
</g>
<g style="fill:#FFFFFF; fill-opacity:1.0000; 
stroke:#FFFFFF; stroke-width:0.0000; stroke-opacity:1; 
stroke-linecap:round; stroke-linejoin:round;">
<circle cx="60.9600" cy="120.5200" r="0.1750" /> 
</g>
<g style="fill:#FFFFFF; fill-opacity:1.0000; 
stroke:#FFFFFF; stroke-width:0.0212; stroke-opacity:1; 
stroke-linecap:round; stroke-linejoin:round;">
</g>
<g style="fill:#FFFFFF; fill-opacity:1.0000; 
stroke:#FFFFFF; stroke-width:0.0000; stroke-opacity:1; 
stroke-linecap:round; stroke-linejoin:round;">
<circle cx="60.9600" cy="131.9200" r="0.1750" /> 
</g>
<g style="fill:#FFFFFF; fill-opacity:1.0000; 
stroke:#FFFFFF; stroke-width:0.0212; stroke-opacity:1; 
stroke-linecap:round; stroke-linejoin:round;">
</g>
<g style="fill:#FFFFFF; fill-opacity:1.0000; 
stroke:#FFFFFF; stroke-width:0.0000; stroke-opacity:1; 
stroke-linecap:round; stroke-linejoin:round;">
<circle cx="60.9600" cy="123.6200" r="0.1750" /> 
</g>
<g style="fill:#FFFFFF; fill-opacity:1.0000; 
stroke:#FFFFFF; stroke-width:0.0212; stroke-opacity:1; 
stroke-linecap:round; stroke-linejoin:round;">
</g>
<g style="fill:#FFFFFF; fill-opacity:1.0000; 
stroke:#FFFFFF; stroke-width:0.0000; stroke-opacity:1; 
stroke-linecap:round; stroke-linejoin:round;">
<circle cx="81.2800" cy="120.5200" r="0.1750" /> 
</g>
<g style="fill:#FFFFFF; fill-opacity:1.0000; 
stroke:#FFFFFF; stroke-width:0.0212; stroke-opacity:1; 
stroke-linecap:round; stroke-linejoin:round;">
</g>
<g style="fill:#FFFFFF; fill-opacity:1.0000; 
stroke:#FFFFFF; stroke-width:0.0000; stroke-opacity:1; 
stroke-linecap:round; stroke-linejoin:round;">
<circle cx="81.2800" cy="131.9200" r="0.1750" /> 
</g>
<g style="fill:#FFFFFF; fill-opacity:1.0000; 
stroke:#FFFFFF; stroke-width:0.0212; stroke-opacity:1; 
stroke-linecap:round; stroke-linejoin:round;">
</g>
<g style="fill:#FFFFFF; fill-opacity:1.0000; 
stroke:#FFFFFF; stroke-width:0.0000; stroke-opacity:1; 
stroke-linecap:round; stroke-linejoin:round;">
<circle cx="81.2800" cy="123.6200" r="0.1750" /> 
</g>
<g style="fill:#FFFFFF; fill-opacity:1.0000; 
stroke:#FFFFFF; stroke-width:0.0212; stroke-opacity:1; 
stroke-linecap:round; stroke-linejoin:round;">
</g>
<g style="fill:#FFFFFF; fill-opacity:1.0000; 
stroke:#FFFFFF; stroke-width:0.0000; stroke-opacity:1; 
stroke-linecap:round; stroke-linejoin:round;">
<circle cx="60.9600" cy="92.8400" r="0.1750" /> 
</g>
<g style="fill:#FFFFFF; fill-opacity:1.0000; 
stroke:#FFFFFF; stroke-width:0.0212; stroke-opacity:1; 
stroke-linecap:round; stroke-linejoin:round;">
</g>
<g style="fill:#FFFFFF; fill-opacity:1.0000; 
stroke:#FFFFFF; stroke-width:0.0000; stroke-opacity:1; 
stroke-linecap:round; stroke-linejoin:round;">
<circle cx="60.9600" cy="81.4400" r="0.1750" /> 
</g>
<g style="fill:#FFFFFF; fill-opacity:1.0000; 
stroke:#FFFFFF; stroke-width:0.0212; stroke-opacity:1; 
stroke-linecap:round; stroke-linejoin:round;">
</g>
<g style="fill:#FFFFFF; fill-opacity:1.0000; 
stroke:#FFFFFF; stroke-width:0.0000; stroke-opacity:1; 
stroke-linecap:round; stroke-linejoin:round;">
<circle cx="60.9600" cy="89.7400" r="0.1750" /> 
</g>
<g style="fill:#FFFFFF; fill-opacity:1.0000; 
stroke:#FFFFFF; stroke-width:0.0212; stroke-opacity:1; 
stroke-linecap:round; stroke-linejoin:round;">
</g>
<g style="fill:#FFFFFF; fill-opacity:1.0000; 
stroke:#FFFFFF; stroke-width:0.0000; stroke-opacity:1; 
stroke-linecap:round; stroke-linejoin:round;">
<circle cx="60.9600" cy="59.5600" r="0.1750" /> 
</g>
<g style="fill:#FFFFFF; fill-opacity:1.0000; 
stroke:#FFFFFF; stroke-width:0.0212; stroke-opacity:1; 
stroke-linecap:round; stroke-linejoin:round;">
</g>
<g style="fill:#FFFFFF; fill-opacity:1.0000; 
stroke:#FFFFFF; stroke-width:0.0000; stroke-opacity:1; 
stroke-linecap:round; stroke-linejoin:round;">
<circle cx="60.9600" cy="70.9600" r="0.1750" /> 
</g>
<g style="fill:#FFFFFF; fill-opacity:1.0000; 
stroke:#FFFFFF; stroke-width:0.0212; stroke-opacity:1; 
stroke-linecap:round; stroke-linejoin:round;">
</g>
<g style="fill:#FFFFFF; fill-opacity:1.0000; 
stroke:#FFFFFF; stroke-width:0.0000; stroke-opacity:1; 
stroke-linecap:round; stroke-linejoin:round;">
<circle cx="60.9600" cy="62.6600" r="0.1750" /> 
</g>
<g style="fill:#FFFFFF; fill-opacity:1.0000; 
stroke:#FFFFFF; stroke-width:0.0212; stroke-opacity:1; 
stroke-linecap:round; stroke-linejoin:round;">
</g>
<g style="fill:#FFFFFF; fill-opacity:1.0000; 
stroke:#FFFFFF; stroke-width:0.0000; stroke-opacity:1; 
stroke-linecap:round; stroke-linejoin:round;">
<circle cx="81.2800" cy="140.8400" r="0.1750" /> 
</g>
<g style="fill:#FFFFFF; fill-opacity:1.0000; 
stroke:#FFFFFF; stroke-width:0.0212; stroke-opacity:1; 
stroke-linecap:round; stroke-linejoin:round;">
</g>
<g style="fill:#FFFFFF; fill-opacity:1.0000; 
stroke:#FFFFFF; stroke-width:0.0000; stroke-opacity:1; 
stroke-linecap:round; stroke-linejoin:round;">
<circle cx="81.2800" cy="152.2400" r="0.1750" /> 
</g>
<g style="fill:#FFFFFF; fill-opacity:1.0000; 
stroke:#FFFFFF; stroke-width:0.0212; stroke-opacity:1; 
stroke-linecap:round; stroke-linejoin:round;">
</g>
<g style="fill:#FFFFFF; fill-opacity:1.0000; 
stroke:#FFFFFF; stroke-width:0.0000; stroke-opacity:1; 
stroke-linecap:round; stroke-linejoin:round;">
<circle cx="81.2800" cy="143.9400" r="0.1750" /> 
</g>
<g style="fill:#FFFFFF; fill-opacity:1.0000; 
stroke:#FFFFFF; stroke-width:0.0212; stroke-opacity:1; 
stroke-linecap:round; stroke-linejoin:round;">
</g>
<g style="fill:#FFFFFF; fill-opacity:1.0000; 
stroke:#FFFFFF; stroke-width:0.0000; stroke-opacity:1; 
stroke-linecap:round; stroke-linejoin:round;">
<circle cx="60.9600" cy="140.8400" r="0.1750" /> 
</g>
<g style="fill:#FFFFFF; fill-opacity:1.0000; 
stroke:#FFFFFF; stroke-width:0.0212; stroke-opacity:1; 
stroke-linecap:round; stroke-linejoin:round;">
</g>
<g style="fill:#FFFFFF; fill-opacity:1.0000; 
stroke:#FFFFFF; stroke-width:0.0000; stroke-opacity:1; 
stroke-linecap:round; stroke-linejoin:round;">
<circle cx="60.9600" cy="152.2400" r="0.1750" /> 
</g>
<g style="fill:#FFFFFF; fill-opacity:1.0000; 
stroke:#FFFFFF; stroke-width:0.0212; stroke-opacity:1; 
stroke-linecap:round; stroke-linejoin:round;">
</g>
<g style="fill:#FFFFFF; fill-opacity:1.0000; 
stroke:#FFFFFF; stroke-width:0.0000; stroke-opacity:1; 
stroke-linecap:round; stroke-linejoin:round;">
<circle cx="60.9600" cy="143.9400" r="0.1750" /> 
</g>
<g style="fill:#FFFFFF; fill-opacity:1.0000; 
stroke:#FFFFFF; stroke-width:0.0212; stroke-opacity:1; 
stroke-linecap:round; stroke-linejoin:round;">
</g>
<g style="fill:#FFFFFF; fill-opacity:1.0000; 
stroke:#FFFFFF; stroke-width:0.0000; stroke-opacity:1; 
stroke-linecap:round; stroke-linejoin:round;">
<circle cx="53.3400" cy="53.3400" r="0.1750" /> 
</g>
<g style="fill:#FFFFFF; fill-opacity:1.0000; 
stroke:#FFFFFF; stroke-width:0.0212; stroke-opacity:1; 
stroke-linecap:round; stroke-linejoin:round;">
</g>
<g style="fill:#FFFFFF; fill-opacity:1.0000; 
stroke:#FFFFFF; stroke-width:0.0000; stroke-opacity:1; 
stroke-linecap:round; stroke-linejoin:round;">
<circle cx="91.4400" cy="53.3400" r="0.1750" /> 
</g>
<g style="fill:#FFFFFF; fill-opacity:1.0000; 
stroke:#FFFFFF; stroke-width:0.0212; stroke-opacity:1; 
stroke-linecap:round; stroke-linejoin:round;">
</g>
<g style="fill:#FFFFFF; fill-opacity:1.0000; 
stroke:#FFFFFF; stroke-width:0.0000; stroke-opacity:1; 
stroke-linecap:round; stroke-linejoin:round;">
<circle cx="91.4400" cy="160.0200" r="0.1750" /> 
</g>
<g style="fill:#FFFFFF; fill-opacity:1.0000; 
stroke:#FFFFFF; stroke-width:0.0212; stroke-opacity:1; 
stroke-linecap:round; stroke-linejoin:round;">
</g>
<g style="fill:#FFFFFF; fill-opacity:1.0000; 
stroke:#FFFFFF; stroke-width:0.0000; stroke-opacity:1; 
stroke-linecap:round; stroke-linejoin:round;">
<circle cx="53.3400" cy="160.0200" r="0.1750" /> 
</g>
<g style="fill:#FFFFFF; fill-opacity:1.0000; 
stroke:#FFFFFF; stroke-width:0.0212; stroke-opacity:1; 
stroke-linecap:round; stroke-linejoin:round;">
</g>
<g style="fill:#FFFFFF; fill-opacity:1.0000; 
stroke:#FFFFFF; stroke-width:0.0000; stroke-opacity:1; 
stroke-linecap:round; stroke-linejoin:round;">
<circle cx="52.8320" cy="64.8970" r="0.1750" /> 
</g>
<g style="fill:#FFFFFF; fill-opacity:1.0000; 
stroke:#FFFFFF; stroke-width:0.0212; stroke-opacity:1; 
stroke-linecap:round; stroke-linejoin:round;">
</g>
<g style="fill:#FFFFFF; fill-opacity:1.0000; 
stroke:#FFFFFF; stroke-width:0.0000; stroke-opacity:1; 
stroke-linecap:round; stroke-linejoin:round;">
<circle cx="52.8320" cy="67.4370" r="0.1750" /> 
</g>
<g style="fill:#FFFFFF; fill-opacity:1.0000; 
stroke:#FFFFFF; stroke-width:0.0212; stroke-opacity:1; 
stroke-linecap:round; stroke-linejoin:round;">
</g>
<g style="fill:#FFFFFF; fill-opacity:1.0000; 
stroke:#FFFFFF; stroke-width:0.0000; stroke-opacity:1; 
stroke-linecap:round; stroke-linejoin:round;">
<circle cx="52.8320" cy="69.9770" r="0.1750" /> 
</g>
<g style="fill:#FFFFFF; fill-opacity:1.0000; 
stroke:#FFFFFF; stroke-width:0.0212; stroke-opacity:1; 
stroke-linecap:round; stroke-linejoin:round;">
</g>
<g style="fill:#FFFFFF; fill-opacity:1.0000; 
stroke:#FFFFFF; stroke-width:0.0000; stroke-opacity:1; 
stroke-linecap:round; stroke-linejoin:round;">
<circle cx="52.8320" cy="72.5170" r="0.1750" /> 
</g>
<g style="fill:#FFFFFF; fill-opacity:1.0000; 
stroke:#FFFFFF; stroke-width:0.0212; stroke-opacity:1; 
stroke-linecap:round; stroke-linejoin:round;">
</g>
<g style="fill:#FFFFFF; fill-opacity:1.0000; 
stroke:#FFFFFF; stroke-width:0.0000; stroke-opacity:1; 
stroke-linecap:round; stroke-linejoin:round;">
<circle cx="52.8320" cy="75.0570" r="0.1750" /> 
</g>
<g style="fill:#FFFFFF; fill-opacity:1.0000; 
stroke:#FFFFFF; stroke-width:0.0212; stroke-opacity:1; 
stroke-linecap:round; stroke-linejoin:round;">
</g>
<g style="fill:#FFFFFF; fill-opacity:1.0000; 
stroke:#FFFFFF; stroke-width:0.0000; stroke-opacity:1; 
stroke-linecap:round; stroke-linejoin:round;">
<circle cx="52.8320" cy="77.5970" r="0.1750" /> 
</g>
<g style="fill:#FFFFFF; fill-opacity:1.0000; 
stroke:#FFFFFF; stroke-width:0.0212; stroke-opacity:1; 
stroke-linecap:round; stroke-linejoin:round;">
</g>
<g style="fill:#FFFFFF; fill-opacity:1.0000; 
stroke:#FFFFFF; stroke-width:0.0000; stroke-opacity:1; 
stroke-linecap:round; stroke-linejoin:round;">
<circle cx="52.8320" cy="80.1370" r="0.1750" /> 
</g>
<g style="fill:#FFFFFF; fill-opacity:1.0000; 
stroke:#FFFFFF; stroke-width:0.0212; stroke-opacity:1; 
stroke-linecap:round; stroke-linejoin:round;">
</g>
<g style="fill:#FFFFFF; fill-opacity:1.0000; 
stroke:#FFFFFF; stroke-width:0.0000; stroke-opacity:1; 
stroke-linecap:round; stroke-linejoin:round;">
<circle cx="52.8320" cy="82.6770" r="0.1750" /> 
</g>
<g style="fill:#FFFFFF; fill-opacity:1.0000; 
stroke:#FFFFFF; stroke-width:0.0212; stroke-opacity:1; 
stroke-linecap:round; stroke-linejoin:round;">
</g>
<g style="fill:#FFFFFF; fill-opacity:1.0000; 
stroke:#FFFFFF; stroke-width:0.0000; stroke-opacity:1; 
stroke-linecap:round; stroke-linejoin:round;">
<circle cx="52.8320" cy="85.2170" r="0.1750" /> 
</g>
<g style="fill:#FFFFFF; fill-opacity:1.0000; 
stroke:#FFFFFF; stroke-width:0.0212; stroke-opacity:1; 
stroke-linecap:round; stroke-linejoin:round;">
</g>
<g style="fill:#FFFFFF; fill-opacity:1.0000; 
stroke:#FFFFFF; stroke-width:0.0000; stroke-opacity:1; 
stroke-linecap:round; stroke-linejoin:round;">
<circle cx="52.8320" cy="87.7570" r="0.1750" /> 
</g>
<g style="fill:#FFFFFF; fill-opacity:1.0000; 
stroke:#FFFFFF; stroke-width:0.0212; stroke-opacity:1; 
stroke-linecap:round; stroke-linejoin:round;">
</g>
<g style="fill:#FFFFFF; fill-opacity:1.0000; 
stroke:#FFFFFF; stroke-width:0.0000; stroke-opacity:1; 
stroke-linecap:round; stroke-linejoin:round;">
<circle cx="52.8320" cy="90.2970" r="0.1750" /> 
</g>
<g style="fill:#FFFFFF; fill-opacity:1.0000; 
stroke:#FFFFFF; stroke-width:0.0212; stroke-opacity:1; 
stroke-linecap:round; stroke-linejoin:round;">
</g>
<g style="fill:#FFFFFF; fill-opacity:1.0000; 
stroke:#FFFFFF; stroke-width:0.0000; stroke-opacity:1; 
stroke-linecap:round; stroke-linejoin:round;">
<circle cx="69.0880" cy="152.4000" r="0.1750" /> 
</g>
<g style="fill:#FFFFFF; fill-opacity:1.0000; 
stroke:#FFFFFF; stroke-width:0.0212; stroke-opacity:1; 
stroke-linecap:round; stroke-linejoin:round;">
</g>
<g style="fill:#FFFFFF; fill-opacity:1.0000; 
stroke:#FFFFFF; stroke-width:0.0000; stroke-opacity:1; 
stroke-linecap:round; stroke-linejoin:round;">
<circle cx="69.0880" cy="142.2400" r="0.1750" /> 
</g>
<g style="fill:#FFFFFF; fill-opacity:1.0000; 
stroke:#FFFFFF; stroke-width:0.0212; stroke-opacity:1; 
stroke-linecap:round; stroke-linejoin:round;">
</g>
<g style="fill:#000000; fill-opacity:1.0000; 
stroke:#000000; stroke-width:0.0212; stroke-opacity:1; 
stroke-linecap:round; stroke-linejoin:round;">
</g> 
</svg>
