<?xml version="1.0" standalone="no"?>
 <!DOCTYPE svg PUBLIC "-//W3C//DTD SVG 1.1//EN" 
 "http://www.w3.org/Graphics/SVG/1.1/DTD/svg11.dtd"> 
<svg
  xmlns:svg="http://www.w3.org/2000/svg"
  xmlns="http://www.w3.org/2000/svg"
  xmlns:xlink="http://www.w3.org/1999/xlink"
  version="1.1"
  width="297.0022mm" height="210.0072mm" viewBox="0.0000 0.0000 297.0022 210.0072">
<title>SVG Image created as mount-F_Fab.svg date 2023/11/08 17:25:39 </title>
  <desc>Image generated by PCBNEW </desc>
<g style="fill:#000000; fill-opacity:1.0000;stroke:#000000; stroke-opacity:1.0000;
stroke-linecap:round; stroke-linejoin:round;"
 transform="translate(0 0) scale(1 1)">
</g>
<g style="fill:#000000; fill-opacity:0.0; 
stroke:#000000; stroke-width:0.0000; stroke-opacity:1; 
stroke-linecap:round; stroke-linejoin:round;">
</g>
<g style="fill:#000000; fill-opacity:0.0; 
stroke:#000000; stroke-width:0.1500; stroke-opacity:1; 
stroke-linecap:round; stroke-linejoin:round;">
<g transform="rotate(-90.000000 50.4620 99.0600)">
<text x="50.4620" y="99.5600"
textLength="3.1071" font-size="1.3333" lengthAdjust="spacingAndGlyphs"
text-anchor="middle" opacity="0">360</text>
</g>
<g class="stroked-text"><desc>360</desc>
<path d="M49.9168 100.3457
L49.9168 99.7267
" />
<path d="M49.9168 99.7267
L50.2978 100.0600
" />
<path d="M50.2978 100.0600
L50.2978 99.9171
" />
<path d="M50.2978 99.9171
L50.3454 99.8219
" />
<path d="M50.3454 99.8219
L50.3930 99.7743
" />
<path d="M50.3930 99.7743
L50.4882 99.7267
" />
<path d="M50.4882 99.7267
L50.7263 99.7267
" />
<path d="M50.7263 99.7267
L50.8216 99.7743
" />
<path d="M50.8216 99.7743
L50.8692 99.8219
" />
<path d="M50.8692 99.8219
L50.9168 99.9171
" />
<path d="M50.9168 99.9171
L50.9168 100.2029
" />
<path d="M50.9168 100.2029
L50.8692 100.2981
" />
<path d="M50.8692 100.2981
L50.8216 100.3457
" />
<path d="M49.9168 98.8695
L49.9168 99.0600
" />
<path d="M49.9168 99.0600
L49.9644 99.1552
" />
<path d="M49.9644 99.1552
L50.0121 99.2029
" />
<path d="M50.0121 99.2029
L50.1549 99.2981
" />
<path d="M50.1549 99.2981
L50.3454 99.3457
" />
<path d="M50.3454 99.3457
L50.7263 99.3457
" />
<path d="M50.7263 99.3457
L50.8216 99.2981
" />
<path d="M50.8216 99.2981
L50.8692 99.2505
" />
<path d="M50.8692 99.2505
L50.9168 99.1552
" />
<path d="M50.9168 99.1552
L50.9168 98.9648
" />
<path d="M50.9168 98.9648
L50.8692 98.8695
" />
<path d="M50.8692 98.8695
L50.8216 98.8219
" />
<path d="M50.8216 98.8219
L50.7263 98.7743
" />
<path d="M50.7263 98.7743
L50.4882 98.7743
" />
<path d="M50.4882 98.7743
L50.3930 98.8219
" />
<path d="M50.3930 98.8219
L50.3454 98.8695
" />
<path d="M50.3454 98.8695
L50.2978 98.9648
" />
<path d="M50.2978 98.9648
L50.2978 99.1552
" />
<path d="M50.2978 99.1552
L50.3454 99.2505
" />
<path d="M50.3454 99.2505
L50.3930 99.2981
" />
<path d="M50.3930 99.2981
L50.4882 99.3457
" />
<path d="M49.9168 98.1552
L49.9168 98.0600
" />
<path d="M49.9168 98.0600
L49.9644 97.9648
" />
<path d="M49.9644 97.9648
L50.0121 97.9171
" />
<path d="M50.0121 97.9171
L50.1073 97.8695
" />
<path d="M50.1073 97.8695
L50.2978 97.8219
" />
<path d="M50.2978 97.8219
L50.5359 97.8219
" />
<path d="M50.5359 97.8219
L50.7263 97.8695
" />
<path d="M50.7263 97.8695
L50.8216 97.9171
" />
<path d="M50.8216 97.9171
L50.8692 97.9648
" />
<path d="M50.8692 97.9648
L50.9168 98.0600
" />
<path d="M50.9168 98.0600
L50.9168 98.1552
" />
<path d="M50.9168 98.1552
L50.8692 98.2505
" />
<path d="M50.8692 98.2505
L50.8216 98.2981
" />
<path d="M50.8216 98.2981
L50.7263 98.3457
" />
<path d="M50.7263 98.3457
L50.5359 98.3933
" />
<path d="M50.5359 98.3933
L50.2978 98.3933
" />
<path d="M50.2978 98.3933
L50.1073 98.3457
" />
<path d="M50.1073 98.3457
L50.0121 98.2981
" />
<path d="M50.0121 98.2981
L49.9644 98.2505
" />
<path d="M49.9644 98.2505
L49.9168 98.1552
" />
</g><g transform="rotate(-90.000000 52.8320 99.0600)">
<text x="52.8320" y="99.5600"
textLength="2.2024" font-size="1.3333" lengthAdjust="spacingAndGlyphs"
text-anchor="middle" opacity="0">R1</text>
</g>
<g class="stroked-text"><desc>R1</desc>
<path d="M53.2868 99.2267
L52.8106 99.5600
" />
<path d="M53.2868 99.7981
L52.2868 99.7981
" />
<path d="M52.2868 99.7981
L52.2868 99.4171
" />
<path d="M52.2868 99.4171
L52.3344 99.3219
" />
<path d="M52.3344 99.3219
L52.3821 99.2743
" />
<path d="M52.3821 99.2743
L52.4773 99.2267
" />
<path d="M52.4773 99.2267
L52.6202 99.2267
" />
<path d="M52.6202 99.2267
L52.7154 99.2743
" />
<path d="M52.7154 99.2743
L52.7630 99.3219
" />
<path d="M52.7630 99.3219
L52.8106 99.4171
" />
<path d="M52.8106 99.4171
L52.8106 99.7981
" />
<path d="M53.2868 98.2743
L53.2868 98.8457
" />
<path d="M53.2868 98.5600
L52.2868 98.5600
" />
<path d="M52.2868 98.5600
L52.4297 98.6552
" />
<path d="M52.4297 98.6552
L52.5249 98.7505
" />
<path d="M52.5249 98.7505
L52.5725 98.8457
" />
</g><g transform="rotate(-90.000000 50.4620 112.2680)">
<text x="50.4620" y="112.7680"
textLength="3.9167" font-size="1.3333" lengthAdjust="spacingAndGlyphs"
text-anchor="middle" opacity="0">300k</text>
</g>
<g class="stroked-text"><desc>300k</desc>
<path d="M49.9168 113.9585
L49.9168 113.3394
" />
<path d="M49.9168 113.3394
L50.2978 113.6728
" />
<path d="M50.2978 113.6728
L50.2978 113.5299
" />
<path d="M50.2978 113.5299
L50.3454 113.4347
" />
<path d="M50.3454 113.4347
L50.3930 113.3870
" />
<path d="M50.3930 113.3870
L50.4882 113.3394
" />
<path d="M50.4882 113.3394
L50.7263 113.3394
" />
<path d="M50.7263 113.3394
L50.8216 113.3870
" />
<path d="M50.8216 113.3870
L50.8692 113.4347
" />
<path d="M50.8692 113.4347
L50.9168 113.5299
" />
<path d="M50.9168 113.5299
L50.9168 113.8156
" />
<path d="M50.9168 113.8156
L50.8692 113.9109
" />
<path d="M50.8692 113.9109
L50.8216 113.9585
" />
<path d="M49.9168 112.7204
L49.9168 112.6251
" />
<path d="M49.9168 112.6251
L49.9644 112.5299
" />
<path d="M49.9644 112.5299
L50.0121 112.4823
" />
<path d="M50.0121 112.4823
L50.1073 112.4347
" />
<path d="M50.1073 112.4347
L50.2978 112.3870
" />
<path d="M50.2978 112.3870
L50.5359 112.3870
" />
<path d="M50.5359 112.3870
L50.7263 112.4347
" />
<path d="M50.7263 112.4347
L50.8216 112.4823
" />
<path d="M50.8216 112.4823
L50.8692 112.5299
" />
<path d="M50.8692 112.5299
L50.9168 112.6251
" />
<path d="M50.9168 112.6251
L50.9168 112.7204
" />
<path d="M50.9168 112.7204
L50.8692 112.8156
" />
<path d="M50.8692 112.8156
L50.8216 112.8632
" />
<path d="M50.8216 112.8632
L50.7263 112.9109
" />
<path d="M50.7263 112.9109
L50.5359 112.9585
" />
<path d="M50.5359 112.9585
L50.2978 112.9585
" />
<path d="M50.2978 112.9585
L50.1073 112.9109
" />
<path d="M50.1073 112.9109
L50.0121 112.8632
" />
<path d="M50.0121 112.8632
L49.9644 112.8156
" />
<path d="M49.9644 112.8156
L49.9168 112.7204
" />
<path d="M49.9168 111.7680
L49.9168 111.6728
" />
<path d="M49.9168 111.6728
L49.9644 111.5775
" />
<path d="M49.9644 111.5775
L50.0121 111.5299
" />
<path d="M50.0121 111.5299
L50.1073 111.4823
" />
<path d="M50.1073 111.4823
L50.2978 111.4347
" />
<path d="M50.2978 111.4347
L50.5359 111.4347
" />
<path d="M50.5359 111.4347
L50.7263 111.4823
" />
<path d="M50.7263 111.4823
L50.8216 111.5299
" />
<path d="M50.8216 111.5299
L50.8692 111.5775
" />
<path d="M50.8692 111.5775
L50.9168 111.6728
" />
<path d="M50.9168 111.6728
L50.9168 111.7680
" />
<path d="M50.9168 111.7680
L50.8692 111.8632
" />
<path d="M50.8692 111.8632
L50.8216 111.9109
" />
<path d="M50.8216 111.9109
L50.7263 111.9585
" />
<path d="M50.7263 111.9585
L50.5359 112.0061
" />
<path d="M50.5359 112.0061
L50.2978 112.0061
" />
<path d="M50.2978 112.0061
L50.1073 111.9585
" />
<path d="M50.1073 111.9585
L50.0121 111.9109
" />
<path d="M50.0121 111.9109
L49.9644 111.8632
" />
<path d="M49.9644 111.8632
L49.9168 111.7680
" />
<path d="M50.9168 111.0061
L49.9168 111.0061
" />
<path d="M50.5359 110.9109
L50.9168 110.6251
" />
<path d="M50.2502 110.6251
L50.6311 111.0061
" />
</g><g transform="rotate(-90.000000 52.8320 112.2680)">
<text x="52.8320" y="112.7680"
textLength="2.2024" font-size="1.3333" lengthAdjust="spacingAndGlyphs"
text-anchor="middle" opacity="0">R2</text>
</g>
<g class="stroked-text"><desc>R2</desc>
<path d="M53.2868 112.4347
L52.8106 112.7680
" />
<path d="M53.2868 113.0061
L52.2868 113.0061
" />
<path d="M52.2868 113.0061
L52.2868 112.6251
" />
<path d="M52.2868 112.6251
L52.3344 112.5299
" />
<path d="M52.3344 112.5299
L52.3821 112.4823
" />
<path d="M52.3821 112.4823
L52.4773 112.4347
" />
<path d="M52.4773 112.4347
L52.6202 112.4347
" />
<path d="M52.6202 112.4347
L52.7154 112.4823
" />
<path d="M52.7154 112.4823
L52.7630 112.5299
" />
<path d="M52.7630 112.5299
L52.8106 112.6251
" />
<path d="M52.8106 112.6251
L52.8106 113.0061
" />
<path d="M52.3821 112.0537
L52.3344 112.0061
" />
<path d="M52.3344 112.0061
L52.2868 111.9109
" />
<path d="M52.2868 111.9109
L52.2868 111.6728
" />
<path d="M52.2868 111.6728
L52.3344 111.5775
" />
<path d="M52.3344 111.5775
L52.3821 111.5299
" />
<path d="M52.3821 111.5299
L52.4773 111.4823
" />
<path d="M52.4773 111.4823
L52.5725 111.4823
" />
<path d="M52.5725 111.4823
L52.7154 111.5299
" />
<path d="M52.7154 111.5299
L53.2868 112.1013
" />
<path d="M53.2868 112.1013
L53.2868 111.4823
" />
</g><text x="76.2000" y="100.9140"
textLength="3.9167" font-size="1.3333" lengthAdjust="spacingAndGlyphs"
text-anchor="middle" opacity="0">100k</text>
<g class="stroked-text"><desc>100k</desc>
<path d="M75.1286 100.8688
L74.5571 100.8688
" />
<path d="M74.8429 100.8688
L74.8429 99.8688
" />
<path d="M74.8429 99.8688
L74.7476 100.0117
" />
<path d="M74.7476 100.0117
L74.6524 100.1069
" />
<path d="M74.6524 100.1069
L74.5571 100.1545
" />
<path d="M75.7476 99.8688
L75.8429 99.8688
" />
<path d="M75.8429 99.8688
L75.9381 99.9164
" />
<path d="M75.9381 99.9164
L75.9857 99.9641
" />
<path d="M75.9857 99.9641
L76.0333 100.0593
" />
<path d="M76.0333 100.0593
L76.0810 100.2498
" />
<path d="M76.0810 100.2498
L76.0810 100.4879
" />
<path d="M76.0810 100.4879
L76.0333 100.6783
" />
<path d="M76.0333 100.6783
L75.9857 100.7736
" />
<path d="M75.9857 100.7736
L75.9381 100.8212
" />
<path d="M75.9381 100.8212
L75.8429 100.8688
" />
<path d="M75.8429 100.8688
L75.7476 100.8688
" />
<path d="M75.7476 100.8688
L75.6524 100.8212
" />
<path d="M75.6524 100.8212
L75.6048 100.7736
" />
<path d="M75.6048 100.7736
L75.5571 100.6783
" />
<path d="M75.5571 100.6783
L75.5095 100.4879
" />
<path d="M75.5095 100.4879
L75.5095 100.2498
" />
<path d="M75.5095 100.2498
L75.5571 100.0593
" />
<path d="M75.5571 100.0593
L75.6048 99.9641
" />
<path d="M75.6048 99.9641
L75.6524 99.9164
" />
<path d="M75.6524 99.9164
L75.7476 99.8688
" />
<path d="M76.7000 99.8688
L76.7952 99.8688
" />
<path d="M76.7952 99.8688
L76.8905 99.9164
" />
<path d="M76.8905 99.9164
L76.9381 99.9641
" />
<path d="M76.9381 99.9641
L76.9857 100.0593
" />
<path d="M76.9857 100.0593
L77.0333 100.2498
" />
<path d="M77.0333 100.2498
L77.0333 100.4879
" />
<path d="M77.0333 100.4879
L76.9857 100.6783
" />
<path d="M76.9857 100.6783
L76.9381 100.7736
" />
<path d="M76.9381 100.7736
L76.8905 100.8212
" />
<path d="M76.8905 100.8212
L76.7952 100.8688
" />
<path d="M76.7952 100.8688
L76.7000 100.8688
" />
<path d="M76.7000 100.8688
L76.6048 100.8212
" />
<path d="M76.6048 100.8212
L76.5571 100.7736
" />
<path d="M76.5571 100.7736
L76.5095 100.6783
" />
<path d="M76.5095 100.6783
L76.4619 100.4879
" />
<path d="M76.4619 100.4879
L76.4619 100.2498
" />
<path d="M76.4619 100.2498
L76.5095 100.0593
" />
<path d="M76.5095 100.0593
L76.5571 99.9641
" />
<path d="M76.5571 99.9641
L76.6048 99.9164
" />
<path d="M76.6048 99.9164
L76.7000 99.8688
" />
<path d="M77.4619 100.8688
L77.4619 99.8688
" />
<path d="M77.5571 100.4879
L77.8429 100.8688
" />
<path d="M77.8429 100.2022
L77.4619 100.5831
" />
</g><text x="76.2000" y="98.5440"
textLength="2.2024" font-size="1.3333" lengthAdjust="spacingAndGlyphs"
text-anchor="middle" opacity="0">R3</text>
<g class="stroked-text"><desc>R3</desc>
<path d="M76.0333 98.4988
L75.7000 98.0226
" />
<path d="M75.4619 98.4988
L75.4619 97.4988
" />
<path d="M75.4619 97.4988
L75.8429 97.4988
" />
<path d="M75.8429 97.4988
L75.9381 97.5464
" />
<path d="M75.9381 97.5464
L75.9857 97.5941
" />
<path d="M75.9857 97.5941
L76.0333 97.6893
" />
<path d="M76.0333 97.6893
L76.0333 97.8322
" />
<path d="M76.0333 97.8322
L75.9857 97.9274
" />
<path d="M75.9857 97.9274
L75.9381 97.9750
" />
<path d="M75.9381 97.9750
L75.8429 98.0226
" />
<path d="M75.8429 98.0226
L75.4619 98.0226
" />
<path d="M76.3667 97.4988
L76.9857 97.4988
" />
<path d="M76.9857 97.4988
L76.6524 97.8798
" />
<path d="M76.6524 97.8798
L76.7952 97.8798
" />
<path d="M76.7952 97.8798
L76.8905 97.9274
" />
<path d="M76.8905 97.9274
L76.9381 97.9750
" />
<path d="M76.9381 97.9750
L76.9857 98.0702
" />
<path d="M76.9857 98.0702
L76.9857 98.3083
" />
<path d="M76.9857 98.3083
L76.9381 98.4036
" />
<path d="M76.9381 98.4036
L76.8905 98.4512
" />
<path d="M76.8905 98.4512
L76.7952 98.4988
" />
<path d="M76.7952 98.4988
L76.5095 98.4988
" />
<path d="M76.5095 98.4988
L76.4143 98.4512
" />
<path d="M76.4143 98.4512
L76.3667 98.4036
" />
</g><g transform="rotate(-90.000000 68.2800 114.1800)">
<text x="68.2800" y="114.6800"
textLength="3.9167" font-size="1.3333" lengthAdjust="spacingAndGlyphs"
text-anchor="middle" opacity="0">100k</text>
</g>
<g class="stroked-text"><desc>100k</desc>
<path d="M68.7348 115.2514
L68.7348 115.8229
" />
<path d="M68.7348 115.5371
L67.7348 115.5371
" />
<path d="M67.7348 115.5371
L67.8777 115.6324
" />
<path d="M67.8777 115.6324
L67.9729 115.7276
" />
<path d="M67.9729 115.7276
L68.0205 115.8229
" />
<path d="M67.7348 114.6324
L67.7348 114.5371
" />
<path d="M67.7348 114.5371
L67.7824 114.4419
" />
<path d="M67.7824 114.4419
L67.8301 114.3943
" />
<path d="M67.8301 114.3943
L67.9253 114.3467
" />
<path d="M67.9253 114.3467
L68.1158 114.2990
" />
<path d="M68.1158 114.2990
L68.3539 114.2990
" />
<path d="M68.3539 114.2990
L68.5443 114.3467
" />
<path d="M68.5443 114.3467
L68.6396 114.3943
" />
<path d="M68.6396 114.3943
L68.6872 114.4419
" />
<path d="M68.6872 114.4419
L68.7348 114.5371
" />
<path d="M68.7348 114.5371
L68.7348 114.6324
" />
<path d="M68.7348 114.6324
L68.6872 114.7276
" />
<path d="M68.6872 114.7276
L68.6396 114.7752
" />
<path d="M68.6396 114.7752
L68.5443 114.8229
" />
<path d="M68.5443 114.8229
L68.3539 114.8705
" />
<path d="M68.3539 114.8705
L68.1158 114.8705
" />
<path d="M68.1158 114.8705
L67.9253 114.8229
" />
<path d="M67.9253 114.8229
L67.8301 114.7752
" />
<path d="M67.8301 114.7752
L67.7824 114.7276
" />
<path d="M67.7824 114.7276
L67.7348 114.6324
" />
<path d="M67.7348 113.6800
L67.7348 113.5848
" />
<path d="M67.7348 113.5848
L67.7824 113.4895
" />
<path d="M67.7824 113.4895
L67.8301 113.4419
" />
<path d="M67.8301 113.4419
L67.9253 113.3943
" />
<path d="M67.9253 113.3943
L68.1158 113.3467
" />
<path d="M68.1158 113.3467
L68.3539 113.3467
" />
<path d="M68.3539 113.3467
L68.5443 113.3943
" />
<path d="M68.5443 113.3943
L68.6396 113.4419
" />
<path d="M68.6396 113.4419
L68.6872 113.4895
" />
<path d="M68.6872 113.4895
L68.7348 113.5848
" />
<path d="M68.7348 113.5848
L68.7348 113.6800
" />
<path d="M68.7348 113.6800
L68.6872 113.7752
" />
<path d="M68.6872 113.7752
L68.6396 113.8229
" />
<path d="M68.6396 113.8229
L68.5443 113.8705
" />
<path d="M68.5443 113.8705
L68.3539 113.9181
" />
<path d="M68.3539 113.9181
L68.1158 113.9181
" />
<path d="M68.1158 113.9181
L67.9253 113.8705
" />
<path d="M67.9253 113.8705
L67.8301 113.8229
" />
<path d="M67.8301 113.8229
L67.7824 113.7752
" />
<path d="M67.7824 113.7752
L67.7348 113.6800
" />
<path d="M68.7348 112.9181
L67.7348 112.9181
" />
<path d="M68.3539 112.8229
L68.7348 112.5371
" />
<path d="M68.0682 112.5371
L68.4491 112.9181
" />
</g><g transform="rotate(-90.000000 60.9600 106.5600)">
<text x="60.9600" y="107.0600"
textLength="3.0595" font-size="1.3333" lengthAdjust="spacingAndGlyphs"
text-anchor="middle" opacity="0">RV1</text>
</g>
<g class="stroked-text"><desc>RV1</desc>
<path d="M61.4148 107.1552
L60.9386 107.4886
" />
<path d="M61.4148 107.7267
L60.4148 107.7267
" />
<path d="M60.4148 107.7267
L60.4148 107.3457
" />
<path d="M60.4148 107.3457
L60.4624 107.2505
" />
<path d="M60.4624 107.2505
L60.5101 107.2029
" />
<path d="M60.5101 107.2029
L60.6053 107.1552
" />
<path d="M60.6053 107.1552
L60.7482 107.1552
" />
<path d="M60.7482 107.1552
L60.8434 107.2029
" />
<path d="M60.8434 107.2029
L60.8910 107.2505
" />
<path d="M60.8910 107.2505
L60.9386 107.3457
" />
<path d="M60.9386 107.3457
L60.9386 107.7267
" />
<path d="M60.4148 106.8695
L61.4148 106.5362
" />
<path d="M61.4148 106.5362
L60.4148 106.2029
" />
<path d="M61.4148 105.3457
L61.4148 105.9171
" />
<path d="M61.4148 105.6314
L60.4148 105.6314
" />
<path d="M60.4148 105.6314
L60.5577 105.7267
" />
<path d="M60.5577 105.7267
L60.6529 105.8219
" />
<path d="M60.6529 105.8219
L60.7005 105.9171
" />
</g><g transform="rotate(-90.000000 88.6000 93.8600)">
<text x="88.6000" y="94.3600"
textLength="2.9643" font-size="1.3333" lengthAdjust="spacingAndGlyphs"
text-anchor="middle" opacity="0">10k</text>
</g>
<g class="stroked-text"><desc>10k</desc>
<path d="M89.0548 94.4552
L89.0548 95.0267
" />
<path d="M89.0548 94.7410
L88.0548 94.7410
" />
<path d="M88.0548 94.7410
L88.1977 94.8362
" />
<path d="M88.1977 94.8362
L88.2929 94.9314
" />
<path d="M88.2929 94.9314
L88.3405 95.0267
" />
<path d="M88.0548 93.8362
L88.0548 93.7410
" />
<path d="M88.0548 93.7410
L88.1024 93.6457
" />
<path d="M88.1024 93.6457
L88.1501 93.5981
" />
<path d="M88.1501 93.5981
L88.2453 93.5505
" />
<path d="M88.2453 93.5505
L88.4358 93.5029
" />
<path d="M88.4358 93.5029
L88.6739 93.5029
" />
<path d="M88.6739 93.5029
L88.8643 93.5505
" />
<path d="M88.8643 93.5505
L88.9596 93.5981
" />
<path d="M88.9596 93.5981
L89.0072 93.6457
" />
<path d="M89.0072 93.6457
L89.0548 93.7410
" />
<path d="M89.0548 93.7410
L89.0548 93.8362
" />
<path d="M89.0548 93.8362
L89.0072 93.9314
" />
<path d="M89.0072 93.9314
L88.9596 93.9790
" />
<path d="M88.9596 93.9790
L88.8643 94.0267
" />
<path d="M88.8643 94.0267
L88.6739 94.0743
" />
<path d="M88.6739 94.0743
L88.4358 94.0743
" />
<path d="M88.4358 94.0743
L88.2453 94.0267
" />
<path d="M88.2453 94.0267
L88.1501 93.9790
" />
<path d="M88.1501 93.9790
L88.1024 93.9314
" />
<path d="M88.1024 93.9314
L88.0548 93.8362
" />
<path d="M89.0548 93.0743
L88.0548 93.0743
" />
<path d="M88.6739 92.9790
L89.0548 92.6933
" />
<path d="M88.3882 92.6933
L88.7691 93.0743
" />
</g><g transform="rotate(-90.000000 81.2800 86.2400)">
<text x="81.2800" y="86.7400"
textLength="3.0595" font-size="1.3333" lengthAdjust="spacingAndGlyphs"
text-anchor="middle" opacity="0">RV2</text>
</g>
<g class="stroked-text"><desc>RV2</desc>
<path d="M81.7348 86.8352
L81.2586 87.1686
" />
<path d="M81.7348 87.4067
L80.7348 87.4067
" />
<path d="M80.7348 87.4067
L80.7348 87.0257
" />
<path d="M80.7348 87.0257
L80.7824 86.9305
" />
<path d="M80.7824 86.9305
L80.8301 86.8829
" />
<path d="M80.8301 86.8829
L80.9253 86.8352
" />
<path d="M80.9253 86.8352
L81.0682 86.8352
" />
<path d="M81.0682 86.8352
L81.1634 86.8829
" />
<path d="M81.1634 86.8829
L81.2110 86.9305
" />
<path d="M81.2110 86.9305
L81.2586 87.0257
" />
<path d="M81.2586 87.0257
L81.2586 87.4067
" />
<path d="M80.7348 86.5495
L81.7348 86.2162
" />
<path d="M81.7348 86.2162
L80.7348 85.8829
" />
<path d="M80.8301 85.5971
L80.7824 85.5495
" />
<path d="M80.7824 85.5495
L80.7348 85.4543
" />
<path d="M80.7348 85.4543
L80.7348 85.2162
" />
<path d="M80.7348 85.2162
L80.7824 85.1210
" />
<path d="M80.7824 85.1210
L80.8301 85.0733
" />
<path d="M80.8301 85.0733
L80.9253 85.0257
" />
<path d="M80.9253 85.0257
L81.0205 85.0257
" />
<path d="M81.0205 85.0257
L81.1634 85.0733
" />
<path d="M81.1634 85.0733
L81.7348 85.6448
" />
<path d="M81.7348 85.6448
L81.7348 85.0257
" />
</g><g transform="rotate(-90.000000 88.6000 114.1800)">
<text x="88.6000" y="114.6800"
textLength="6.0595" font-size="1.3333" lengthAdjust="spacingAndGlyphs"
text-anchor="middle" opacity="0">10k LIN</text>
</g>
<g class="stroked-text"><desc>10k LIN</desc>
<path d="M89.0548 116.3229
L89.0548 116.8943
" />
<path d="M89.0548 116.6086
L88.0548 116.6086
" />
<path d="M88.0548 116.6086
L88.1977 116.7038
" />
<path d="M88.1977 116.7038
L88.2929 116.7990
" />
<path d="M88.2929 116.7990
L88.3405 116.8943
" />
<path d="M88.0548 115.7038
L88.0548 115.6086
" />
<path d="M88.0548 115.6086
L88.1024 115.5133
" />
<path d="M88.1024 115.5133
L88.1501 115.4657
" />
<path d="M88.1501 115.4657
L88.2453 115.4181
" />
<path d="M88.2453 115.4181
L88.4358 115.3705
" />
<path d="M88.4358 115.3705
L88.6739 115.3705
" />
<path d="M88.6739 115.3705
L88.8643 115.4181
" />
<path d="M88.8643 115.4181
L88.9596 115.4657
" />
<path d="M88.9596 115.4657
L89.0072 115.5133
" />
<path d="M89.0072 115.5133
L89.0548 115.6086
" />
<path d="M89.0548 115.6086
L89.0548 115.7038
" />
<path d="M89.0548 115.7038
L89.0072 115.7990
" />
<path d="M89.0072 115.7990
L88.9596 115.8467
" />
<path d="M88.9596 115.8467
L88.8643 115.8943
" />
<path d="M88.8643 115.8943
L88.6739 115.9419
" />
<path d="M88.6739 115.9419
L88.4358 115.9419
" />
<path d="M88.4358 115.9419
L88.2453 115.8943
" />
<path d="M88.2453 115.8943
L88.1501 115.8467
" />
<path d="M88.1501 115.8467
L88.1024 115.7990
" />
<path d="M88.1024 115.7990
L88.0548 115.7038
" />
<path d="M89.0548 114.9419
L88.0548 114.9419
" />
<path d="M88.6739 114.8467
L89.0548 114.5610
" />
<path d="M88.3882 114.5610
L88.7691 114.9419
" />
<path d="M89.0548 112.8943
L89.0548 113.3705
" />
<path d="M89.0548 113.3705
L88.0548 113.3705
" />
<path d="M89.0548 112.5610
L88.0548 112.5610
" />
<path d="M89.0548 112.0848
L88.0548 112.0848
" />
<path d="M88.0548 112.0848
L89.0548 111.5133
" />
<path d="M89.0548 111.5133
L88.0548 111.5133
" />
</g><g transform="rotate(-90.000000 81.2800 106.5600)">
<text x="81.2800" y="107.0600"
textLength="3.0595" font-size="1.3333" lengthAdjust="spacingAndGlyphs"
text-anchor="middle" opacity="0">RV3</text>
</g>
<g class="stroked-text"><desc>RV3</desc>
<path d="M81.7348 107.1552
L81.2586 107.4886
" />
<path d="M81.7348 107.7267
L80.7348 107.7267
" />
<path d="M80.7348 107.7267
L80.7348 107.3457
" />
<path d="M80.7348 107.3457
L80.7824 107.2505
" />
<path d="M80.7824 107.2505
L80.8301 107.2029
" />
<path d="M80.8301 107.2029
L80.9253 107.1552
" />
<path d="M80.9253 107.1552
L81.0682 107.1552
" />
<path d="M81.0682 107.1552
L81.1634 107.2029
" />
<path d="M81.1634 107.2029
L81.2110 107.2505
" />
<path d="M81.2110 107.2505
L81.2586 107.3457
" />
<path d="M81.2586 107.3457
L81.2586 107.7267
" />
<path d="M80.7348 106.8695
L81.7348 106.5362
" />
<path d="M81.7348 106.5362
L80.7348 106.2029
" />
<path d="M80.7348 105.9648
L80.7348 105.3457
" />
<path d="M80.7348 105.3457
L81.1158 105.6790
" />
<path d="M81.1158 105.6790
L81.1158 105.5362
" />
<path d="M81.1158 105.5362
L81.1634 105.4410
" />
<path d="M81.1634 105.4410
L81.2110 105.3933
" />
<path d="M81.2110 105.3933
L81.3062 105.3457
" />
<path d="M81.3062 105.3457
L81.5443 105.3457
" />
<path d="M81.5443 105.3457
L81.6396 105.3933
" />
<path d="M81.6396 105.3933
L81.6872 105.4410
" />
<path d="M81.6872 105.4410
L81.7348 105.5362
" />
<path d="M81.7348 105.5362
L81.7348 105.8219
" />
<path d="M81.7348 105.8219
L81.6872 105.9171
" />
<path d="M81.6872 105.9171
L81.6396 105.9648
" />
</g><g transform="rotate(-90.000000 88.6000 73.5400)">
<text x="88.6000" y="74.0400"
textLength="2.9643" font-size="1.3333" lengthAdjust="spacingAndGlyphs"
text-anchor="middle" opacity="0">10k</text>
</g>
<g class="stroked-text"><desc>10k</desc>
<path d="M89.0548 74.1352
L89.0548 74.7067
" />
<path d="M89.0548 74.4210
L88.0548 74.4210
" />
<path d="M88.0548 74.4210
L88.1977 74.5162
" />
<path d="M88.1977 74.5162
L88.2929 74.6114
" />
<path d="M88.2929 74.6114
L88.3405 74.7067
" />
<path d="M88.0548 73.5162
L88.0548 73.4210
" />
<path d="M88.0548 73.4210
L88.1024 73.3257
" />
<path d="M88.1024 73.3257
L88.1501 73.2781
" />
<path d="M88.1501 73.2781
L88.2453 73.2305
" />
<path d="M88.2453 73.2305
L88.4358 73.1829
" />
<path d="M88.4358 73.1829
L88.6739 73.1829
" />
<path d="M88.6739 73.1829
L88.8643 73.2305
" />
<path d="M88.8643 73.2305
L88.9596 73.2781
" />
<path d="M88.9596 73.2781
L89.0072 73.3257
" />
<path d="M89.0072 73.3257
L89.0548 73.4210
" />
<path d="M89.0548 73.4210
L89.0548 73.5162
" />
<path d="M89.0548 73.5162
L89.0072 73.6114
" />
<path d="M89.0072 73.6114
L88.9596 73.6590
" />
<path d="M88.9596 73.6590
L88.8643 73.7067
" />
<path d="M88.8643 73.7067
L88.6739 73.7543
" />
<path d="M88.6739 73.7543
L88.4358 73.7543
" />
<path d="M88.4358 73.7543
L88.2453 73.7067
" />
<path d="M88.2453 73.7067
L88.1501 73.6590
" />
<path d="M88.1501 73.6590
L88.1024 73.6114
" />
<path d="M88.1024 73.6114
L88.0548 73.5162
" />
<path d="M89.0548 72.7543
L88.0548 72.7543
" />
<path d="M88.6739 72.6590
L89.0548 72.3733
" />
<path d="M88.3882 72.3733
L88.7691 72.7543
" />
</g><g transform="rotate(-90.000000 81.2800 65.9200)">
<text x="81.2800" y="66.4200"
textLength="3.0595" font-size="1.3333" lengthAdjust="spacingAndGlyphs"
text-anchor="middle" opacity="0">RV4</text>
</g>
<g class="stroked-text"><desc>RV4</desc>
<path d="M81.7348 66.5152
L81.2586 66.8486
" />
<path d="M81.7348 67.0867
L80.7348 67.0867
" />
<path d="M80.7348 67.0867
L80.7348 66.7057
" />
<path d="M80.7348 66.7057
L80.7824 66.6105
" />
<path d="M80.7824 66.6105
L80.8301 66.5629
" />
<path d="M80.8301 66.5629
L80.9253 66.5152
" />
<path d="M80.9253 66.5152
L81.0682 66.5152
" />
<path d="M81.0682 66.5152
L81.1634 66.5629
" />
<path d="M81.1634 66.5629
L81.2110 66.6105
" />
<path d="M81.2110 66.6105
L81.2586 66.7057
" />
<path d="M81.2586 66.7057
L81.2586 67.0867
" />
<path d="M80.7348 66.2295
L81.7348 65.8962
" />
<path d="M81.7348 65.8962
L80.7348 65.5629
" />
<path d="M81.0682 64.8010
L81.7348 64.8010
" />
<path d="M80.6872 65.0390
L81.4015 65.2771
" />
<path d="M81.4015 65.2771
L81.4015 64.6581
" />
</g><text x="60.9600" y="126.0200"
textLength="1.7738" font-size="1.3333" lengthAdjust="spacingAndGlyphs"
text-anchor="middle" opacity="0">IN</text>
<g class="stroked-text"><desc>IN</desc>
<path d="M60.4362 125.9748
L60.4362 124.9748
" />
<path d="M60.9124 125.9748
L60.9124 124.9748
" />
<path d="M60.9124 124.9748
L61.4838 125.9748
" />
<path d="M61.4838 125.9748
L61.4838 124.9748
" />
</g><text x="60.9600" y="129.0200"
textLength="1.9643" font-size="1.3333" lengthAdjust="spacingAndGlyphs"
text-anchor="middle" opacity="0">J2</text>
<g class="stroked-text"><desc>J2</desc>
<path d="M60.6267 127.9748
L60.6267 128.6891
" />
<path d="M60.6267 128.6891
L60.5790 128.8320
" />
<path d="M60.5790 128.8320
L60.4838 128.9272
" />
<path d="M60.4838 128.9272
L60.3410 128.9748
" />
<path d="M60.3410 128.9748
L60.2457 128.9748
" />
<path d="M61.0552 128.0701
L61.1029 128.0224
" />
<path d="M61.1029 128.0224
L61.1981 127.9748
" />
<path d="M61.1981 127.9748
L61.4362 127.9748
" />
<path d="M61.4362 127.9748
L61.5314 128.0224
" />
<path d="M61.5314 128.0224
L61.5790 128.0701
" />
<path d="M61.5790 128.0701
L61.6267 128.1653
" />
<path d="M61.6267 128.1653
L61.6267 128.2605
" />
<path d="M61.6267 128.2605
L61.5790 128.4034
" />
<path d="M61.5790 128.4034
L61.0076 128.9748
" />
<path d="M61.0076 128.9748
L61.6267 128.9748
" />
</g><text x="81.2800" y="126.0200"
textLength="1.7738" font-size="1.3333" lengthAdjust="spacingAndGlyphs"
text-anchor="middle" opacity="0">IN</text>
<g class="stroked-text"><desc>IN</desc>
<path d="M80.7562 125.9748
L80.7562 124.9748
" />
<path d="M81.2324 125.9748
L81.2324 124.9748
" />
<path d="M81.2324 124.9748
L81.8038 125.9748
" />
<path d="M81.8038 125.9748
L81.8038 124.9748
" />
</g><text x="81.2800" y="129.0200"
textLength="1.9643" font-size="1.3333" lengthAdjust="spacingAndGlyphs"
text-anchor="middle" opacity="0">J3</text>
<g class="stroked-text"><desc>J3</desc>
<path d="M80.9467 127.9748
L80.9467 128.6891
" />
<path d="M80.9467 128.6891
L80.8990 128.8320
" />
<path d="M80.8990 128.8320
L80.8038 128.9272
" />
<path d="M80.8038 128.9272
L80.6610 128.9748
" />
<path d="M80.6610 128.9748
L80.5657 128.9748
" />
<path d="M81.3276 127.9748
L81.9467 127.9748
" />
<path d="M81.9467 127.9748
L81.6133 128.3558
" />
<path d="M81.6133 128.3558
L81.7562 128.3558
" />
<path d="M81.7562 128.3558
L81.8514 128.4034
" />
<path d="M81.8514 128.4034
L81.8990 128.4510
" />
<path d="M81.8990 128.4510
L81.9467 128.5462
" />
<path d="M81.9467 128.5462
L81.9467 128.7843
" />
<path d="M81.9467 128.7843
L81.8990 128.8796
" />
<path d="M81.8990 128.8796
L81.8514 128.9272
" />
<path d="M81.8514 128.9272
L81.7562 128.9748
" />
<path d="M81.7562 128.9748
L81.4705 128.9748
" />
<path d="M81.4705 128.9748
L81.3752 128.9272
" />
<path d="M81.3752 128.9272
L81.3276 128.8796
" />
</g><text x="60.9600" y="88.3400"
textLength="2.1071" font-size="1.3333" lengthAdjust="spacingAndGlyphs"
text-anchor="middle" opacity="0">CV</text>
<g class="stroked-text"><desc>CV</desc>
<path d="M60.8410 88.1996
L60.7933 88.2472
" />
<path d="M60.7933 88.2472
L60.6505 88.2948
" />
<path d="M60.6505 88.2948
L60.5552 88.2948
" />
<path d="M60.5552 88.2948
L60.4124 88.2472
" />
<path d="M60.4124 88.2472
L60.3171 88.1520
" />
<path d="M60.3171 88.1520
L60.2695 88.0567
" />
<path d="M60.2695 88.0567
L60.2219 87.8662
" />
<path d="M60.2219 87.8662
L60.2219 87.7234
" />
<path d="M60.2219 87.7234
L60.2695 87.5329
" />
<path d="M60.2695 87.5329
L60.3171 87.4377
" />
<path d="M60.3171 87.4377
L60.4124 87.3424
" />
<path d="M60.4124 87.3424
L60.5552 87.2948
" />
<path d="M60.5552 87.2948
L60.6505 87.2948
" />
<path d="M60.6505 87.2948
L60.7933 87.3424
" />
<path d="M60.7933 87.3424
L60.8410 87.3901
" />
<path d="M61.1267 87.2948
L61.4600 88.2948
" />
<path d="M61.4600 88.2948
L61.7933 87.2948
" />
</g><text x="60.9600" y="85.3400"
textLength="1.9643" font-size="1.3333" lengthAdjust="spacingAndGlyphs"
text-anchor="middle" opacity="0">J1</text>
<g class="stroked-text"><desc>J1</desc>
<path d="M60.6267 84.2948
L60.6267 85.0091
" />
<path d="M60.6267 85.0091
L60.5790 85.1520
" />
<path d="M60.5790 85.1520
L60.4838 85.2472
" />
<path d="M60.4838 85.2472
L60.3410 85.2948
" />
<path d="M60.3410 85.2948
L60.2457 85.2948
" />
<path d="M61.6267 85.2948
L61.0552 85.2948
" />
<path d="M61.3410 85.2948
L61.3410 84.2948
" />
<path d="M61.3410 84.2948
L61.2457 84.4377
" />
<path d="M61.2457 84.4377
L61.1505 84.5329
" />
<path d="M61.1505 84.5329
L61.0552 84.5805
" />
</g><text x="60.9600" y="65.0600"
textLength="5.6310" font-size="1.3333" lengthAdjust="spacingAndGlyphs"
text-anchor="middle" opacity="0">RECIRC</text>
<g class="stroked-text"><desc>RECIRC</desc>
<path d="M59.0790 65.0148
L58.7457 64.5386
" />
<path d="M58.5076 65.0148
L58.5076 64.0148
" />
<path d="M58.5076 64.0148
L58.8886 64.0148
" />
<path d="M58.8886 64.0148
L58.9838 64.0624
" />
<path d="M58.9838 64.0624
L59.0314 64.1101
" />
<path d="M59.0314 64.1101
L59.0790 64.2053
" />
<path d="M59.0790 64.2053
L59.0790 64.3482
" />
<path d="M59.0790 64.3482
L59.0314 64.4434
" />
<path d="M59.0314 64.4434
L58.9838 64.4910
" />
<path d="M58.9838 64.4910
L58.8886 64.5386
" />
<path d="M58.8886 64.5386
L58.5076 64.5386
" />
<path d="M59.5076 64.4910
L59.8410 64.4910
" />
<path d="M59.9838 65.0148
L59.5076 65.0148
" />
<path d="M59.5076 65.0148
L59.5076 64.0148
" />
<path d="M59.5076 64.0148
L59.9838 64.0148
" />
<path d="M60.9838 64.9196
L60.9362 64.9672
" />
<path d="M60.9362 64.9672
L60.7933 65.0148
" />
<path d="M60.7933 65.0148
L60.6981 65.0148
" />
<path d="M60.6981 65.0148
L60.5552 64.9672
" />
<path d="M60.5552 64.9672
L60.4600 64.8720
" />
<path d="M60.4600 64.8720
L60.4124 64.7767
" />
<path d="M60.4124 64.7767
L60.3648 64.5862
" />
<path d="M60.3648 64.5862
L60.3648 64.4434
" />
<path d="M60.3648 64.4434
L60.4124 64.2529
" />
<path d="M60.4124 64.2529
L60.4600 64.1577
" />
<path d="M60.4600 64.1577
L60.5552 64.0624
" />
<path d="M60.5552 64.0624
L60.6981 64.0148
" />
<path d="M60.6981 64.0148
L60.7933 64.0148
" />
<path d="M60.7933 64.0148
L60.9362 64.0624
" />
<path d="M60.9362 64.0624
L60.9838 64.1101
" />
<path d="M61.4124 65.0148
L61.4124 64.0148
" />
<path d="M62.4600 65.0148
L62.1267 64.5386
" />
<path d="M61.8886 65.0148
L61.8886 64.0148
" />
<path d="M61.8886 64.0148
L62.2695 64.0148
" />
<path d="M62.2695 64.0148
L62.3648 64.0624
" />
<path d="M62.3648 64.0624
L62.4124 64.1101
" />
<path d="M62.4124 64.1101
L62.4600 64.2053
" />
<path d="M62.4600 64.2053
L62.4600 64.3482
" />
<path d="M62.4600 64.3482
L62.4124 64.4434
" />
<path d="M62.4124 64.4434
L62.3648 64.4910
" />
<path d="M62.3648 64.4910
L62.2695 64.5386
" />
<path d="M62.2695 64.5386
L61.8886 64.5386
" />
<path d="M63.4600 64.9196
L63.4124 64.9672
" />
<path d="M63.4124 64.9672
L63.2695 65.0148
" />
<path d="M63.2695 65.0148
L63.1743 65.0148
" />
<path d="M63.1743 65.0148
L63.0314 64.9672
" />
<path d="M63.0314 64.9672
L62.9362 64.8720
" />
<path d="M62.9362 64.8720
L62.8886 64.7767
" />
<path d="M62.8886 64.7767
L62.8410 64.5862
" />
<path d="M62.8410 64.5862
L62.8410 64.4434
" />
<path d="M62.8410 64.4434
L62.8886 64.2529
" />
<path d="M62.8886 64.2529
L62.9362 64.1577
" />
<path d="M62.9362 64.1577
L63.0314 64.0624
" />
<path d="M63.0314 64.0624
L63.1743 64.0148
" />
<path d="M63.1743 64.0148
L63.2695 64.0148
" />
<path d="M63.2695 64.0148
L63.4124 64.0624
" />
<path d="M63.4124 64.0624
L63.4600 64.1101
" />
</g><text x="60.9600" y="68.0600"
textLength="1.9643" font-size="1.3333" lengthAdjust="spacingAndGlyphs"
text-anchor="middle" opacity="0">J5</text>
<g class="stroked-text"><desc>J5</desc>
<path d="M60.6267 67.0148
L60.6267 67.7291
" />
<path d="M60.6267 67.7291
L60.5790 67.8720
" />
<path d="M60.5790 67.8720
L60.4838 67.9672
" />
<path d="M60.4838 67.9672
L60.3410 68.0148
" />
<path d="M60.3410 68.0148
L60.2457 68.0148
" />
<path d="M61.5790 67.0148
L61.1029 67.0148
" />
<path d="M61.1029 67.0148
L61.0552 67.4910
" />
<path d="M61.0552 67.4910
L61.1029 67.4434
" />
<path d="M61.1029 67.4434
L61.1981 67.3958
" />
<path d="M61.1981 67.3958
L61.4362 67.3958
" />
<path d="M61.4362 67.3958
L61.5314 67.4434
" />
<path d="M61.5314 67.4434
L61.5790 67.4910
" />
<path d="M61.5790 67.4910
L61.6267 67.5862
" />
<path d="M61.6267 67.5862
L61.6267 67.8243
" />
<path d="M61.6267 67.8243
L61.5790 67.9196
" />
<path d="M61.5790 67.9196
L61.5314 67.9672
" />
<path d="M61.5314 67.9672
L61.4362 68.0148
" />
<path d="M61.4362 68.0148
L61.1981 68.0148
" />
<path d="M61.1981 68.0148
L61.1029 67.9672
" />
<path d="M61.1029 67.9672
L61.0552 67.9196
" />
</g><text x="81.2800" y="146.3400"
textLength="8.0595" font-size="1.3333" lengthAdjust="spacingAndGlyphs"
text-anchor="middle" opacity="0">Mixed OUT</text>
<g class="stroked-text"><desc>Mixed OUT</desc>
<path d="M77.6133 146.2948
L77.6133 145.2948
" />
<path d="M77.6133 145.2948
L77.9467 146.0091
" />
<path d="M77.9467 146.0091
L78.2800 145.2948
" />
<path d="M78.2800 145.2948
L78.2800 146.2948
" />
<path d="M78.7562 146.2948
L78.7562 145.6282
" />
<path d="M78.7562 145.2948
L78.7086 145.3424
" />
<path d="M78.7086 145.3424
L78.7562 145.3901
" />
<path d="M78.7562 145.3901
L78.8038 145.3424
" />
<path d="M78.8038 145.3424
L78.7562 145.2948
" />
<path d="M78.7562 145.2948
L78.7562 145.3901
" />
<path d="M79.1371 146.2948
L79.6610 145.6282
" />
<path d="M79.1371 145.6282
L79.6610 146.2948
" />
<path d="M80.4229 146.2472
L80.3276 146.2948
" />
<path d="M80.3276 146.2948
L80.1371 146.2948
" />
<path d="M80.1371 146.2948
L80.0419 146.2472
" />
<path d="M80.0419 146.2472
L79.9943 146.1520
" />
<path d="M79.9943 146.1520
L79.9943 145.7710
" />
<path d="M79.9943 145.7710
L80.0419 145.6758
" />
<path d="M80.0419 145.6758
L80.1371 145.6282
" />
<path d="M80.1371 145.6282
L80.3276 145.6282
" />
<path d="M80.3276 145.6282
L80.4229 145.6758
" />
<path d="M80.4229 145.6758
L80.4705 145.7710
" />
<path d="M80.4705 145.7710
L80.4705 145.8662
" />
<path d="M80.4705 145.8662
L79.9943 145.9615
" />
<path d="M81.3276 146.2948
L81.3276 145.2948
" />
<path d="M81.3276 146.2472
L81.2324 146.2948
" />
<path d="M81.2324 146.2948
L81.0419 146.2948
" />
<path d="M81.0419 146.2948
L80.9467 146.2472
" />
<path d="M80.9467 146.2472
L80.8990 146.1996
" />
<path d="M80.8990 146.1996
L80.8514 146.1043
" />
<path d="M80.8514 146.1043
L80.8514 145.8186
" />
<path d="M80.8514 145.8186
L80.8990 145.7234
" />
<path d="M80.8990 145.7234
L80.9467 145.6758
" />
<path d="M80.9467 145.6758
L81.0419 145.6282
" />
<path d="M81.0419 145.6282
L81.2324 145.6282
" />
<path d="M81.2324 145.6282
L81.3276 145.6758
" />
<path d="M82.7562 145.2948
L82.9467 145.2948
" />
<path d="M82.9467 145.2948
L83.0419 145.3424
" />
<path d="M83.0419 145.3424
L83.1371 145.4377
" />
<path d="M83.1371 145.4377
L83.1848 145.6282
" />
<path d="M83.1848 145.6282
L83.1848 145.9615
" />
<path d="M83.1848 145.9615
L83.1371 146.1520
" />
<path d="M83.1371 146.1520
L83.0419 146.2472
" />
<path d="M83.0419 146.2472
L82.9467 146.2948
" />
<path d="M82.9467 146.2948
L82.7562 146.2948
" />
<path d="M82.7562 146.2948
L82.6610 146.2472
" />
<path d="M82.6610 146.2472
L82.5657 146.1520
" />
<path d="M82.5657 146.1520
L82.5181 145.9615
" />
<path d="M82.5181 145.9615
L82.5181 145.6282
" />
<path d="M82.5181 145.6282
L82.5657 145.4377
" />
<path d="M82.5657 145.4377
L82.6610 145.3424
" />
<path d="M82.6610 145.3424
L82.7562 145.2948
" />
<path d="M83.6133 145.2948
L83.6133 146.1043
" />
<path d="M83.6133 146.1043
L83.6610 146.1996
" />
<path d="M83.6610 146.1996
L83.7086 146.2472
" />
<path d="M83.7086 146.2472
L83.8038 146.2948
" />
<path d="M83.8038 146.2948
L83.9943 146.2948
" />
<path d="M83.9943 146.2948
L84.0895 146.2472
" />
<path d="M84.0895 146.2472
L84.1371 146.1996
" />
<path d="M84.1371 146.1996
L84.1848 146.1043
" />
<path d="M84.1848 146.1043
L84.1848 145.2948
" />
<path d="M84.5181 145.2948
L85.0895 145.2948
" />
<path d="M84.8038 146.2948
L84.8038 145.2948
" />
</g><text x="81.2800" y="149.3400"
textLength="1.9643" font-size="1.3333" lengthAdjust="spacingAndGlyphs"
text-anchor="middle" opacity="0">J6</text>
<g class="stroked-text"><desc>J6</desc>
<path d="M80.9467 148.2948
L80.9467 149.0091
" />
<path d="M80.9467 149.0091
L80.8990 149.1520
" />
<path d="M80.8990 149.1520
L80.8038 149.2472
" />
<path d="M80.8038 149.2472
L80.6610 149.2948
" />
<path d="M80.6610 149.2948
L80.5657 149.2948
" />
<path d="M81.8514 148.2948
L81.6610 148.2948
" />
<path d="M81.6610 148.2948
L81.5657 148.3424
" />
<path d="M81.5657 148.3424
L81.5181 148.3901
" />
<path d="M81.5181 148.3901
L81.4229 148.5329
" />
<path d="M81.4229 148.5329
L81.3752 148.7234
" />
<path d="M81.3752 148.7234
L81.3752 149.1043
" />
<path d="M81.3752 149.1043
L81.4229 149.1996
" />
<path d="M81.4229 149.1996
L81.4705 149.2472
" />
<path d="M81.4705 149.2472
L81.5657 149.2948
" />
<path d="M81.5657 149.2948
L81.7562 149.2948
" />
<path d="M81.7562 149.2948
L81.8514 149.2472
" />
<path d="M81.8514 149.2472
L81.8990 149.1996
" />
<path d="M81.8990 149.1996
L81.9467 149.1043
" />
<path d="M81.9467 149.1043
L81.9467 148.8662
" />
<path d="M81.9467 148.8662
L81.8990 148.7710
" />
<path d="M81.8990 148.7710
L81.8514 148.7234
" />
<path d="M81.8514 148.7234
L81.7562 148.6758
" />
<path d="M81.7562 148.6758
L81.5657 148.6758
" />
<path d="M81.5657 148.6758
L81.4705 148.7234
" />
<path d="M81.4705 148.7234
L81.4229 148.7710
" />
<path d="M81.4229 148.7710
L81.3752 148.8662
" />
</g><text x="60.9600" y="146.3400"
textLength="9.5833" font-size="1.3333" lengthAdjust="spacingAndGlyphs"
text-anchor="middle" opacity="0">delayed OUT</text>
<g class="stroked-text"><desc>delayed OUT</desc>
<path d="M56.9600 146.2948
L56.9600 145.2948
" />
<path d="M56.9600 146.2472
L56.8648 146.2948
" />
<path d="M56.8648 146.2948
L56.6743 146.2948
" />
<path d="M56.6743 146.2948
L56.5790 146.2472
" />
<path d="M56.5790 146.2472
L56.5314 146.1996
" />
<path d="M56.5314 146.1996
L56.4838 146.1043
" />
<path d="M56.4838 146.1043
L56.4838 145.8186
" />
<path d="M56.4838 145.8186
L56.5314 145.7234
" />
<path d="M56.5314 145.7234
L56.5790 145.6758
" />
<path d="M56.5790 145.6758
L56.6743 145.6282
" />
<path d="M56.6743 145.6282
L56.8648 145.6282
" />
<path d="M56.8648 145.6282
L56.9600 145.6758
" />
<path d="M57.8171 146.2472
L57.7219 146.2948
" />
<path d="M57.7219 146.2948
L57.5314 146.2948
" />
<path d="M57.5314 146.2948
L57.4362 146.2472
" />
<path d="M57.4362 146.2472
L57.3886 146.1520
" />
<path d="M57.3886 146.1520
L57.3886 145.7710
" />
<path d="M57.3886 145.7710
L57.4362 145.6758
" />
<path d="M57.4362 145.6758
L57.5314 145.6282
" />
<path d="M57.5314 145.6282
L57.7219 145.6282
" />
<path d="M57.7219 145.6282
L57.8171 145.6758
" />
<path d="M57.8171 145.6758
L57.8648 145.7710
" />
<path d="M57.8648 145.7710
L57.8648 145.8662
" />
<path d="M57.8648 145.8662
L57.3886 145.9615
" />
<path d="M58.4362 146.2948
L58.3410 146.2472
" />
<path d="M58.3410 146.2472
L58.2933 146.1520
" />
<path d="M58.2933 146.1520
L58.2933 145.2948
" />
<path d="M59.2457 146.2948
L59.2457 145.7710
" />
<path d="M59.2457 145.7710
L59.1981 145.6758
" />
<path d="M59.1981 145.6758
L59.1029 145.6282
" />
<path d="M59.1029 145.6282
L58.9124 145.6282
" />
<path d="M58.9124 145.6282
L58.8171 145.6758
" />
<path d="M59.2457 146.2472
L59.1505 146.2948
" />
<path d="M59.1505 146.2948
L58.9124 146.2948
" />
<path d="M58.9124 146.2948
L58.8171 146.2472
" />
<path d="M58.8171 146.2472
L58.7695 146.1520
" />
<path d="M58.7695 146.1520
L58.7695 146.0567
" />
<path d="M58.7695 146.0567
L58.8171 145.9615
" />
<path d="M58.8171 145.9615
L58.9124 145.9139
" />
<path d="M58.9124 145.9139
L59.1505 145.9139
" />
<path d="M59.1505 145.9139
L59.2457 145.8662
" />
<path d="M59.6267 145.6282
L59.8648 146.2948
" />
<path d="M60.1029 145.6282
L59.8648 146.2948
" />
<path d="M59.8648 146.2948
L59.7695 146.5329
" />
<path d="M59.7695 146.5329
L59.7219 146.5805
" />
<path d="M59.7219 146.5805
L59.6267 146.6282
" />
<path d="M60.8648 146.2472
L60.7695 146.2948
" />
<path d="M60.7695 146.2948
L60.5790 146.2948
" />
<path d="M60.5790 146.2948
L60.4838 146.2472
" />
<path d="M60.4838 146.2472
L60.4362 146.1520
" />
<path d="M60.4362 146.1520
L60.4362 145.7710
" />
<path d="M60.4362 145.7710
L60.4838 145.6758
" />
<path d="M60.4838 145.6758
L60.5790 145.6282
" />
<path d="M60.5790 145.6282
L60.7695 145.6282
" />
<path d="M60.7695 145.6282
L60.8648 145.6758
" />
<path d="M60.8648 145.6758
L60.9124 145.7710
" />
<path d="M60.9124 145.7710
L60.9124 145.8662
" />
<path d="M60.9124 145.8662
L60.4362 145.9615
" />
<path d="M61.7695 146.2948
L61.7695 145.2948
" />
<path d="M61.7695 146.2472
L61.6743 146.2948
" />
<path d="M61.6743 146.2948
L61.4838 146.2948
" />
<path d="M61.4838 146.2948
L61.3886 146.2472
" />
<path d="M61.3886 146.2472
L61.3410 146.1996
" />
<path d="M61.3410 146.1996
L61.2933 146.1043
" />
<path d="M61.2933 146.1043
L61.2933 145.8186
" />
<path d="M61.2933 145.8186
L61.3410 145.7234
" />
<path d="M61.3410 145.7234
L61.3886 145.6758
" />
<path d="M61.3886 145.6758
L61.4838 145.6282
" />
<path d="M61.4838 145.6282
L61.6743 145.6282
" />
<path d="M61.6743 145.6282
L61.7695 145.6758
" />
<path d="M63.1981 145.2948
L63.3886 145.2948
" />
<path d="M63.3886 145.2948
L63.4838 145.3424
" />
<path d="M63.4838 145.3424
L63.5790 145.4377
" />
<path d="M63.5790 145.4377
L63.6267 145.6282
" />
<path d="M63.6267 145.6282
L63.6267 145.9615
" />
<path d="M63.6267 145.9615
L63.5790 146.1520
" />
<path d="M63.5790 146.1520
L63.4838 146.2472
" />
<path d="M63.4838 146.2472
L63.3886 146.2948
" />
<path d="M63.3886 146.2948
L63.1981 146.2948
" />
<path d="M63.1981 146.2948
L63.1029 146.2472
" />
<path d="M63.1029 146.2472
L63.0076 146.1520
" />
<path d="M63.0076 146.1520
L62.9600 145.9615
" />
<path d="M62.9600 145.9615
L62.9600 145.6282
" />
<path d="M62.9600 145.6282
L63.0076 145.4377
" />
<path d="M63.0076 145.4377
L63.1029 145.3424
" />
<path d="M63.1029 145.3424
L63.1981 145.2948
" />
<path d="M64.0552 145.2948
L64.0552 146.1043
" />
<path d="M64.0552 146.1043
L64.1029 146.1996
" />
<path d="M64.1029 146.1996
L64.1505 146.2472
" />
<path d="M64.1505 146.2472
L64.2457 146.2948
" />
<path d="M64.2457 146.2948
L64.4362 146.2948
" />
<path d="M64.4362 146.2948
L64.5314 146.2472
" />
<path d="M64.5314 146.2472
L64.5790 146.1996
" />
<path d="M64.5790 146.1996
L64.6267 146.1043
" />
<path d="M64.6267 146.1043
L64.6267 145.2948
" />
<path d="M64.9600 145.2948
L65.5314 145.2948
" />
<path d="M65.2457 146.2948
L65.2457 145.2948
" />
</g><text x="60.9600" y="149.3400"
textLength="1.9643" font-size="1.3333" lengthAdjust="spacingAndGlyphs"
text-anchor="middle" opacity="0">J7</text>
<g class="stroked-text"><desc>J7</desc>
<path d="M60.6267 148.2948
L60.6267 149.0091
" />
<path d="M60.6267 149.0091
L60.5790 149.1520
" />
<path d="M60.5790 149.1520
L60.4838 149.2472
" />
<path d="M60.4838 149.2472
L60.3410 149.2948
" />
<path d="M60.3410 149.2948
L60.2457 149.2948
" />
<path d="M61.0076 148.2948
L61.6743 148.2948
" />
<path d="M61.6743 148.2948
L61.2457 149.2948
" />
</g><text x="52.8320" y="93.1270"
textLength="13.5357" font-size="1.3333" lengthAdjust="spacingAndGlyphs"
text-anchor="middle" opacity="0">Conn_01x11_Male</text>
<g class="stroked-text"><desc>Conn_01x11_Male</desc>
<path d="M46.9987 92.9866
L46.9510 93.0342
" />
<path d="M46.9510 93.0342
L46.8082 93.0818
" />
<path d="M46.8082 93.0818
L46.7130 93.0818
" />
<path d="M46.7130 93.0818
L46.5701 93.0342
" />
<path d="M46.5701 93.0342
L46.4749 92.9390
" />
<path d="M46.4749 92.9390
L46.4272 92.8437
" />
<path d="M46.4272 92.8437
L46.3796 92.6532
" />
<path d="M46.3796 92.6532
L46.3796 92.5104
" />
<path d="M46.3796 92.5104
L46.4272 92.3199
" />
<path d="M46.4272 92.3199
L46.4749 92.2247
" />
<path d="M46.4749 92.2247
L46.5701 92.1294
" />
<path d="M46.5701 92.1294
L46.7130 92.0818
" />
<path d="M46.7130 92.0818
L46.8082 92.0818
" />
<path d="M46.8082 92.0818
L46.9510 92.1294
" />
<path d="M46.9510 92.1294
L46.9987 92.1771
" />
<path d="M47.5701 93.0818
L47.4749 93.0342
" />
<path d="M47.4749 93.0342
L47.4272 92.9866
" />
<path d="M47.4272 92.9866
L47.3796 92.8913
" />
<path d="M47.3796 92.8913
L47.3796 92.6056
" />
<path d="M47.3796 92.6056
L47.4272 92.5104
" />
<path d="M47.4272 92.5104
L47.4749 92.4628
" />
<path d="M47.4749 92.4628
L47.5701 92.4152
" />
<path d="M47.5701 92.4152
L47.7130 92.4152
" />
<path d="M47.7130 92.4152
L47.8082 92.4628
" />
<path d="M47.8082 92.4628
L47.8558 92.5104
" />
<path d="M47.8558 92.5104
L47.9034 92.6056
" />
<path d="M47.9034 92.6056
L47.9034 92.8913
" />
<path d="M47.9034 92.8913
L47.8558 92.9866
" />
<path d="M47.8558 92.9866
L47.8082 93.0342
" />
<path d="M47.8082 93.0342
L47.7130 93.0818
" />
<path d="M47.7130 93.0818
L47.5701 93.0818
" />
<path d="M48.3320 92.4152
L48.3320 93.0818
" />
<path d="M48.3320 92.5104
L48.3796 92.4628
" />
<path d="M48.3796 92.4628
L48.4749 92.4152
" />
<path d="M48.4749 92.4152
L48.6177 92.4152
" />
<path d="M48.6177 92.4152
L48.7130 92.4628
" />
<path d="M48.7130 92.4628
L48.7606 92.5580
" />
<path d="M48.7606 92.5580
L48.7606 93.0818
" />
<path d="M49.2368 92.4152
L49.2368 93.0818
" />
<path d="M49.2368 92.5104
L49.2844 92.4628
" />
<path d="M49.2844 92.4628
L49.3796 92.4152
" />
<path d="M49.3796 92.4152
L49.5225 92.4152
" />
<path d="M49.5225 92.4152
L49.6177 92.4628
" />
<path d="M49.6177 92.4628
L49.6653 92.5580
" />
<path d="M49.6653 92.5580
L49.6653 93.0818
" />
<path d="M49.9034 93.1771
L50.6653 93.1771
" />
<path d="M51.0939 92.0818
L51.1891 92.0818
" />
<path d="M51.1891 92.0818
L51.2844 92.1294
" />
<path d="M51.2844 92.1294
L51.3320 92.1771
" />
<path d="M51.3320 92.1771
L51.3796 92.2723
" />
<path d="M51.3796 92.2723
L51.4272 92.4628
" />
<path d="M51.4272 92.4628
L51.4272 92.7009
" />
<path d="M51.4272 92.7009
L51.3796 92.8913
" />
<path d="M51.3796 92.8913
L51.3320 92.9866
" />
<path d="M51.3320 92.9866
L51.2844 93.0342
" />
<path d="M51.2844 93.0342
L51.1891 93.0818
" />
<path d="M51.1891 93.0818
L51.0939 93.0818
" />
<path d="M51.0939 93.0818
L50.9987 93.0342
" />
<path d="M50.9987 93.0342
L50.9510 92.9866
" />
<path d="M50.9510 92.9866
L50.9034 92.8913
" />
<path d="M50.9034 92.8913
L50.8558 92.7009
" />
<path d="M50.8558 92.7009
L50.8558 92.4628
" />
<path d="M50.8558 92.4628
L50.9034 92.2723
" />
<path d="M50.9034 92.2723
L50.9510 92.1771
" />
<path d="M50.9510 92.1771
L50.9987 92.1294
" />
<path d="M50.9987 92.1294
L51.0939 92.0818
" />
<path d="M52.3796 93.0818
L51.8082 93.0818
" />
<path d="M52.0939 93.0818
L52.0939 92.0818
" />
<path d="M52.0939 92.0818
L51.9987 92.2247
" />
<path d="M51.9987 92.2247
L51.9034 92.3199
" />
<path d="M51.9034 92.3199
L51.8082 92.3675
" />
<path d="M52.7130 93.0818
L53.2368 92.4152
" />
<path d="M52.7130 92.4152
L53.2368 93.0818
" />
<path d="M54.1415 93.0818
L53.5701 93.0818
" />
<path d="M53.8558 93.0818
L53.8558 92.0818
" />
<path d="M53.8558 92.0818
L53.7606 92.2247
" />
<path d="M53.7606 92.2247
L53.6653 92.3199
" />
<path d="M53.6653 92.3199
L53.5701 92.3675
" />
<path d="M55.0939 93.0818
L54.5225 93.0818
" />
<path d="M54.8082 93.0818
L54.8082 92.0818
" />
<path d="M54.8082 92.0818
L54.7130 92.2247
" />
<path d="M54.7130 92.2247
L54.6177 92.3199
" />
<path d="M54.6177 92.3199
L54.5225 92.3675
" />
<path d="M55.2844 93.1771
L56.0463 93.1771
" />
<path d="M56.2844 93.0818
L56.2844 92.0818
" />
<path d="M56.2844 92.0818
L56.6177 92.7961
" />
<path d="M56.6177 92.7961
L56.9510 92.0818
" />
<path d="M56.9510 92.0818
L56.9510 93.0818
" />
<path d="M57.8558 93.0818
L57.8558 92.5580
" />
<path d="M57.8558 92.5580
L57.8082 92.4628
" />
<path d="M57.8082 92.4628
L57.7130 92.4152
" />
<path d="M57.7130 92.4152
L57.5225 92.4152
" />
<path d="M57.5225 92.4152
L57.4272 92.4628
" />
<path d="M57.8558 93.0342
L57.7606 93.0818
" />
<path d="M57.7606 93.0818
L57.5225 93.0818
" />
<path d="M57.5225 93.0818
L57.4272 93.0342
" />
<path d="M57.4272 93.0342
L57.3796 92.9390
" />
<path d="M57.3796 92.9390
L57.3796 92.8437
" />
<path d="M57.3796 92.8437
L57.4272 92.7485
" />
<path d="M57.4272 92.7485
L57.5225 92.7009
" />
<path d="M57.5225 92.7009
L57.7606 92.7009
" />
<path d="M57.7606 92.7009
L57.8558 92.6532
" />
<path d="M58.4749 93.0818
L58.3796 93.0342
" />
<path d="M58.3796 93.0342
L58.3320 92.9390
" />
<path d="M58.3320 92.9390
L58.3320 92.0818
" />
<path d="M59.2368 93.0342
L59.1415 93.0818
" />
<path d="M59.1415 93.0818
L58.9510 93.0818
" />
<path d="M58.9510 93.0818
L58.8558 93.0342
" />
<path d="M58.8558 93.0342
L58.8082 92.9390
" />
<path d="M58.8082 92.9390
L58.8082 92.5580
" />
<path d="M58.8082 92.5580
L58.8558 92.4628
" />
<path d="M58.8558 92.4628
L58.9510 92.4152
" />
<path d="M58.9510 92.4152
L59.1415 92.4152
" />
<path d="M59.1415 92.4152
L59.2368 92.4628
" />
<path d="M59.2368 92.4628
L59.2844 92.5580
" />
<path d="M59.2844 92.5580
L59.2844 92.6532
" />
<path d="M59.2844 92.6532
L58.8082 92.7485
" />
</g><g transform="rotate(-90.000000 52.8320 77.5970)">
<text x="52.8320" y="78.0970"
textLength="1.9643" font-size="1.3333" lengthAdjust="spacingAndGlyphs"
text-anchor="middle" opacity="0">J4</text>
</g>
<g class="stroked-text"><desc>J4</desc>
<path d="M52.2868 77.9303
L53.0011 77.9303
" />
<path d="M53.0011 77.9303
L53.1440 77.9780
" />
<path d="M53.1440 77.9780
L53.2392 78.0732
" />
<path d="M53.2392 78.0732
L53.2868 78.2160
" />
<path d="M53.2868 78.2160
L53.2868 78.3113
" />
<path d="M52.6202 77.0256
L53.2868 77.0256
" />
<path d="M52.2392 77.2637
L52.9535 77.5018
" />
<path d="M52.9535 77.5018
L52.9535 76.8827
" />
</g><g transform="rotate(-90.000000 71.4580 147.3200)">
<text x="71.4580" y="147.8200"
textLength="2.0119" font-size="1.3333" lengthAdjust="spacingAndGlyphs"
text-anchor="middle" opacity="0">1k</text>
</g>
<g class="stroked-text"><desc>1k</desc>
<path d="M71.9128 147.4390
L71.9128 148.0105
" />
<path d="M71.9128 147.7248
L70.9128 147.7248
" />
<path d="M70.9128 147.7248
L71.0557 147.8200
" />
<path d="M71.0557 147.8200
L71.1509 147.9152
" />
<path d="M71.1509 147.9152
L71.1985 148.0105
" />
<path d="M71.9128 147.0105
L70.9128 147.0105
" />
<path d="M71.5319 146.9152
L71.9128 146.6295
" />
<path d="M71.2462 146.6295
L71.6271 147.0105
" />
</g><g transform="rotate(-90.000000 69.0880 147.3200)">
<text x="69.0880" y="147.8200"
textLength="2.2024" font-size="1.3333" lengthAdjust="spacingAndGlyphs"
text-anchor="middle" opacity="0">R4</text>
</g>
<g class="stroked-text"><desc>R4</desc>
<path d="M69.5428 147.4867
L69.0666 147.8200
" />
<path d="M69.5428 148.0581
L68.5428 148.0581
" />
<path d="M68.5428 148.0581
L68.5428 147.6771
" />
<path d="M68.5428 147.6771
L68.5904 147.5819
" />
<path d="M68.5904 147.5819
L68.6381 147.5343
" />
<path d="M68.6381 147.5343
L68.7333 147.4867
" />
<path d="M68.7333 147.4867
L68.8762 147.4867
" />
<path d="M68.8762 147.4867
L68.9714 147.5343
" />
<path d="M68.9714 147.5343
L69.0190 147.5819
" />
<path d="M69.0190 147.5819
L69.0666 147.6771
" />
<path d="M69.0666 147.6771
L69.0666 148.0581
" />
<path d="M68.8762 146.6295
L69.5428 146.6295
" />
<path d="M68.4952 146.8676
L69.2095 147.1057
" />
<path d="M69.2095 147.1057
L69.2095 146.4867
" />
</g></g>
<g style="fill:#000000; fill-opacity:0.0; 
stroke:#000000; stroke-width:0.1000; stroke-opacity:1; 
stroke-linecap:round; stroke-linejoin:round;">
<path d="M52.8320 93.9800
L52.8320 95.9100
" />
<path d="M54.0820 95.9100
L51.5820 95.9100
" />
<path d="M51.5820 95.9100
L51.5820 102.2100
" />
<path d="M54.0820 102.2100
L54.0820 95.9100
" />
<path d="M51.5820 102.2100
L54.0820 102.2100
" />
<path d="M52.8320 104.1400
L52.8320 102.2100
" />
<path d="M52.8320 107.1880
L52.8320 109.1180
" />
<path d="M54.0820 109.1180
L51.5820 109.1180
" />
<path d="M51.5820 109.1180
L51.5820 115.4180
" />
<path d="M54.0820 115.4180
L54.0820 109.1180
" />
<path d="M51.5820 115.4180
L54.0820 115.4180
" />
<path d="M52.8320 117.3480
L52.8320 115.4180
" />
<path d="M71.1200 98.0440
L73.0500 98.0440
" />
<path d="M73.0500 96.7940
L73.0500 99.2940
" />
<path d="M73.0500 99.2940
L79.3500 99.2940
" />
<path d="M79.3500 96.7940
L73.0500 96.7940
" />
<path d="M79.3500 99.2940
L79.3500 96.7940
" />
<path d="M81.2800 98.0440
L79.3500 98.0440
" />
<path d="M56.1700 113.1800
L56.1700 101.8300
" />
<path d="M65.6700 113.1800
L56.1700 113.1800
" />
<path d="M65.6700 113.1800
L65.6700 101.8300
" />
<path d="M65.6700 101.8300
L56.1700 101.8300
" />
<circle cx="60.9200" cy="106.6800" r="3.5000" /> 
<path d="M76.4900 92.8600
L76.4900 81.5100
" />
<path d="M85.9900 92.8600
L76.4900 92.8600
" />
<path d="M85.9900 92.8600
L85.9900 81.5100
" />
<path d="M85.9900 81.5100
L76.4900 81.5100
" />
<circle cx="81.2400" cy="86.3600" r="3.5000" /> 
<path d="M76.4900 113.1800
L76.4900 101.8300
" />
<path d="M85.9900 113.1800
L76.4900 113.1800
" />
<path d="M85.9900 113.1800
L85.9900 101.8300
" />
<path d="M85.9900 101.8300
L76.4900 101.8300
" />
<circle cx="81.2400" cy="106.6800" r="3.5000" /> 
<path d="M76.4900 72.5400
L76.4900 61.1900
" />
<path d="M85.9900 72.5400
L76.4900 72.5400
" />
<path d="M85.9900 72.5400
L85.9900 61.1900
" />
<path d="M85.9900 61.1900
L76.4900 61.1900
" />
<circle cx="81.2400" cy="66.0400" r="3.5000" /> 
<path d="M60.9600 120.5200
L60.9600 122.5500
" />
<circle cx="60.9600" cy="127.0000" r="1.8000" /> 
<path d="M81.2800 120.5200
L81.2800 122.5500
" />
<circle cx="81.2800" cy="127.0000" r="1.8000" /> 
<path d="M60.9600 92.8400
L60.9600 90.8100
" />
<circle cx="60.9600" cy="86.3600" r="1.8000" /> 
<path d="M60.9600 59.5600
L60.9600 61.5900
" />
<circle cx="60.9600" cy="66.0400" r="1.8000" /> 
<path d="M81.2800 140.8400
L81.2800 142.8700
" />
<circle cx="81.2800" cy="147.3200" r="1.8000" /> 
<path d="M60.9600 140.8400
L60.9600 142.8700
" />
<circle cx="60.9600" cy="147.3200" r="1.8000" /> 
<path d="M51.5620 64.2620
L52.1970 63.6270
" />
<path d="M51.5620 91.5670
L51.5620 64.2620
" />
<path d="M52.1970 63.6270
L54.1020 63.6270
" />
<path d="M54.1020 63.6270
L54.1020 91.5670
" />
<path d="M54.1020 91.5670
L51.5620 91.5670
" />
<path d="M69.0880 152.4000
L69.0880 150.4700
" />
<path d="M67.8380 150.4700
L70.3380 150.4700
" />
<path d="M70.3380 150.4700
L70.3380 144.1700
" />
<path d="M67.8380 144.1700
L67.8380 150.4700
" />
<path d="M70.3380 144.1700
L67.8380 144.1700
" />
<path d="M69.0880 142.2400
L69.0880 144.1700
" />
<g >
</g>
<g >
</g>
<g >
</g>
<g >
</g>
<g >
</g>
<g >
</g>
<g >
</g>
<g >
</g>
<g >
</g>
<g >
</g>
<g >
</g>
<g >
</g>
<g >
</g>
<g >
</g>
<g >
</g>
<g >
</g>
<g >
</g>
<g >
</g>
<g >
</g>
<g >
</g>
<g >
</g>
<g >
</g>
<g >
</g>
</g> 
</svg>
