<?xml version="1.0" standalone="no"?>
 <!DOCTYPE svg PUBLIC "-//W3C//DTD SVG 1.1//EN" 
 "http://www.w3.org/Graphics/SVG/1.1/DTD/svg11.dtd"> 
<svg
  xmlns:svg="http://www.w3.org/2000/svg"
  xmlns="http://www.w3.org/2000/svg"
  xmlns:xlink="http://www.w3.org/1999/xlink"
  version="1.1"
  width="297.0022mm" height="210.0072mm" viewBox="0.0000 0.0000 297.0022 210.0072">
<title>SVG Image created as mount-F_SilkS.svg date 2023/11/08 17:25:39 </title>
  <desc>Image generated by PCBNEW </desc>
<g style="fill:#000000; fill-opacity:1.0000;stroke:#000000; stroke-opacity:1.0000;
stroke-linecap:round; stroke-linejoin:round;"
 transform="translate(0 0) scale(1 1)">
</g>
<g style="fill:#000000; fill-opacity:0.0; 
stroke:#000000; stroke-width:0.0000; stroke-opacity:1; 
stroke-linecap:round; stroke-linejoin:round;">
</g>
<g style="fill:#000000; fill-opacity:0.0; 
stroke:#000000; stroke-width:0.1500; stroke-opacity:1; 
stroke-linecap:round; stroke-linejoin:round;">
<g transform="rotate(-90.000000 55.2020 99.0600)">
<text x="55.2020" y="99.5600"
textLength="2.2024" font-size="1.3333" lengthAdjust="spacingAndGlyphs"
text-anchor="middle" opacity="0">R1</text>
</g>
<g class="stroked-text"><desc>R1</desc>
<path d="M55.6568 99.2267
L55.1806 99.5600
" />
<path d="M55.6568 99.7981
L54.6568 99.7981
" />
<path d="M54.6568 99.7981
L54.6568 99.4171
" />
<path d="M54.6568 99.4171
L54.7044 99.3219
" />
<path d="M54.7044 99.3219
L54.7521 99.2743
" />
<path d="M54.7521 99.2743
L54.8473 99.2267
" />
<path d="M54.8473 99.2267
L54.9902 99.2267
" />
<path d="M54.9902 99.2267
L55.0854 99.2743
" />
<path d="M55.0854 99.2743
L55.1330 99.3219
" />
<path d="M55.1330 99.3219
L55.1806 99.4171
" />
<path d="M55.1806 99.4171
L55.1806 99.7981
" />
<path d="M55.6568 98.2743
L55.6568 98.8457
" />
<path d="M55.6568 98.5600
L54.6568 98.5600
" />
<path d="M54.6568 98.5600
L54.7997 98.6552
" />
<path d="M54.7997 98.6552
L54.8949 98.7505
" />
<path d="M54.8949 98.7505
L54.9425 98.8457
" />
</g><g transform="rotate(-90.000000 55.2020 112.2680)">
<text x="55.2020" y="112.7680"
textLength="2.2024" font-size="1.3333" lengthAdjust="spacingAndGlyphs"
text-anchor="middle" opacity="0">R2</text>
</g>
<g class="stroked-text"><desc>R2</desc>
<path d="M55.6568 112.4347
L55.1806 112.7680
" />
<path d="M55.6568 113.0061
L54.6568 113.0061
" />
<path d="M54.6568 113.0061
L54.6568 112.6251
" />
<path d="M54.6568 112.6251
L54.7044 112.5299
" />
<path d="M54.7044 112.5299
L54.7521 112.4823
" />
<path d="M54.7521 112.4823
L54.8473 112.4347
" />
<path d="M54.8473 112.4347
L54.9902 112.4347
" />
<path d="M54.9902 112.4347
L55.0854 112.4823
" />
<path d="M55.0854 112.4823
L55.1330 112.5299
" />
<path d="M55.1330 112.5299
L55.1806 112.6251
" />
<path d="M55.1806 112.6251
L55.1806 113.0061
" />
<path d="M54.7521 112.0537
L54.7044 112.0061
" />
<path d="M54.7044 112.0061
L54.6568 111.9109
" />
<path d="M54.6568 111.9109
L54.6568 111.6728
" />
<path d="M54.6568 111.6728
L54.7044 111.5775
" />
<path d="M54.7044 111.5775
L54.7521 111.5299
" />
<path d="M54.7521 111.5299
L54.8473 111.4823
" />
<path d="M54.8473 111.4823
L54.9425 111.4823
" />
<path d="M54.9425 111.4823
L55.0854 111.5299
" />
<path d="M55.0854 111.5299
L55.6568 112.1013
" />
<path d="M55.6568 112.1013
L55.6568 111.4823
" />
</g><text x="76.2000" y="96.1740"
textLength="2.2024" font-size="1.3333" lengthAdjust="spacingAndGlyphs"
text-anchor="middle" opacity="0">R3</text>
<g class="stroked-text"><desc>R3</desc>
<path d="M76.0333 96.1288
L75.7000 95.6526
" />
<path d="M75.4619 96.1288
L75.4619 95.1288
" />
<path d="M75.4619 95.1288
L75.8429 95.1288
" />
<path d="M75.8429 95.1288
L75.9381 95.1764
" />
<path d="M75.9381 95.1764
L75.9857 95.2241
" />
<path d="M75.9857 95.2241
L76.0333 95.3193
" />
<path d="M76.0333 95.3193
L76.0333 95.4622
" />
<path d="M76.0333 95.4622
L75.9857 95.5574
" />
<path d="M75.9857 95.5574
L75.9381 95.6050
" />
<path d="M75.9381 95.6050
L75.8429 95.6526
" />
<path d="M75.8429 95.6526
L75.4619 95.6526
" />
<path d="M76.3667 95.1288
L76.9857 95.1288
" />
<path d="M76.9857 95.1288
L76.6524 95.5098
" />
<path d="M76.6524 95.5098
L76.7952 95.5098
" />
<path d="M76.7952 95.5098
L76.8905 95.5574
" />
<path d="M76.8905 95.5574
L76.9381 95.6050
" />
<path d="M76.9381 95.6050
L76.9857 95.7002
" />
<path d="M76.9857 95.7002
L76.9857 95.9383
" />
<path d="M76.9857 95.9383
L76.9381 96.0336
" />
<path d="M76.9381 96.0336
L76.8905 96.0812
" />
<path d="M76.8905 96.0812
L76.7952 96.1288
" />
<path d="M76.7952 96.1288
L76.5095 96.1288
" />
<path d="M76.5095 96.1288
L76.4143 96.0812
" />
<path d="M76.4143 96.0812
L76.3667 96.0336
" />
</g><text x="60.7060" y="101.3380"
textLength="3.0595" font-size="1.3333" lengthAdjust="spacingAndGlyphs"
text-anchor="middle" opacity="0">RV1</text>
<g class="stroked-text"><desc>RV1</desc>
<path d="M60.1108 101.2928
L59.7774 100.8166
" />
<path d="M59.5393 101.2928
L59.5393 100.2928
" />
<path d="M59.5393 100.2928
L59.9203 100.2928
" />
<path d="M59.9203 100.2928
L60.0155 100.3404
" />
<path d="M60.0155 100.3404
L60.0631 100.3881
" />
<path d="M60.0631 100.3881
L60.1108 100.4833
" />
<path d="M60.1108 100.4833
L60.1108 100.6262
" />
<path d="M60.1108 100.6262
L60.0631 100.7214
" />
<path d="M60.0631 100.7214
L60.0155 100.7690
" />
<path d="M60.0155 100.7690
L59.9203 100.8166
" />
<path d="M59.9203 100.8166
L59.5393 100.8166
" />
<path d="M60.3965 100.2928
L60.7298 101.2928
" />
<path d="M60.7298 101.2928
L61.0631 100.2928
" />
<path d="M61.9203 101.2928
L61.3489 101.2928
" />
<path d="M61.6346 101.2928
L61.6346 100.2928
" />
<path d="M61.6346 100.2928
L61.5393 100.4357
" />
<path d="M61.5393 100.4357
L61.4441 100.5309
" />
<path d="M61.4441 100.5309
L61.3489 100.5785
" />
</g><g transform="rotate(-90.000000 74.1000 87.1500)">
<text x="74.1000" y="87.6500"
textLength="3.0595" font-size="1.3333" lengthAdjust="spacingAndGlyphs"
text-anchor="middle" opacity="0">RV2</text>
</g>
<g class="stroked-text"><desc>RV2</desc>
<path d="M74.5548 87.7452
L74.0786 88.0786
" />
<path d="M74.5548 88.3167
L73.5548 88.3167
" />
<path d="M73.5548 88.3167
L73.5548 87.9357
" />
<path d="M73.5548 87.9357
L73.6024 87.8405
" />
<path d="M73.6024 87.8405
L73.6501 87.7929
" />
<path d="M73.6501 87.7929
L73.7453 87.7452
" />
<path d="M73.7453 87.7452
L73.8882 87.7452
" />
<path d="M73.8882 87.7452
L73.9834 87.7929
" />
<path d="M73.9834 87.7929
L74.0310 87.8405
" />
<path d="M74.0310 87.8405
L74.0786 87.9357
" />
<path d="M74.0786 87.9357
L74.0786 88.3167
" />
<path d="M73.5548 87.4595
L74.5548 87.1262
" />
<path d="M74.5548 87.1262
L73.5548 86.7929
" />
<path d="M73.6501 86.5071
L73.6024 86.4595
" />
<path d="M73.6024 86.4595
L73.5548 86.3643
" />
<path d="M73.5548 86.3643
L73.5548 86.1262
" />
<path d="M73.5548 86.1262
L73.6024 86.0310
" />
<path d="M73.6024 86.0310
L73.6501 85.9833
" />
<path d="M73.6501 85.9833
L73.7453 85.9357
" />
<path d="M73.7453 85.9357
L73.8405 85.9357
" />
<path d="M73.8405 85.9357
L73.9834 85.9833
" />
<path d="M73.9834 85.9833
L74.5548 86.5548
" />
<path d="M74.5548 86.5548
L74.5548 85.9357
" />
</g><g transform="rotate(-90.000000 74.1000 107.4700)">
<text x="74.1000" y="107.9700"
textLength="3.0595" font-size="1.3333" lengthAdjust="spacingAndGlyphs"
text-anchor="middle" opacity="0">RV3</text>
</g>
<g class="stroked-text"><desc>RV3</desc>
<path d="M74.5548 108.0652
L74.0786 108.3986
" />
<path d="M74.5548 108.6367
L73.5548 108.6367
" />
<path d="M73.5548 108.6367
L73.5548 108.2557
" />
<path d="M73.5548 108.2557
L73.6024 108.1605
" />
<path d="M73.6024 108.1605
L73.6501 108.1129
" />
<path d="M73.6501 108.1129
L73.7453 108.0652
" />
<path d="M73.7453 108.0652
L73.8882 108.0652
" />
<path d="M73.8882 108.0652
L73.9834 108.1129
" />
<path d="M73.9834 108.1129
L74.0310 108.1605
" />
<path d="M74.0310 108.1605
L74.0786 108.2557
" />
<path d="M74.0786 108.2557
L74.0786 108.6367
" />
<path d="M73.5548 107.7795
L74.5548 107.4462
" />
<path d="M74.5548 107.4462
L73.5548 107.1129
" />
<path d="M73.5548 106.8748
L73.5548 106.2557
" />
<path d="M73.5548 106.2557
L73.9358 106.5890
" />
<path d="M73.9358 106.5890
L73.9358 106.4462
" />
<path d="M73.9358 106.4462
L73.9834 106.3510
" />
<path d="M73.9834 106.3510
L74.0310 106.3033
" />
<path d="M74.0310 106.3033
L74.1262 106.2557
" />
<path d="M74.1262 106.2557
L74.3643 106.2557
" />
<path d="M74.3643 106.2557
L74.4596 106.3033
" />
<path d="M74.4596 106.3033
L74.5072 106.3510
" />
<path d="M74.5072 106.3510
L74.5548 106.4462
" />
<path d="M74.5548 106.4462
L74.5548 106.7319
" />
<path d="M74.5548 106.7319
L74.5072 106.8271
" />
<path d="M74.5072 106.8271
L74.4596 106.8748
" />
</g><g transform="rotate(-90.000000 74.1000 66.8300)">
<text x="74.1000" y="67.3300"
textLength="3.0595" font-size="1.3333" lengthAdjust="spacingAndGlyphs"
text-anchor="middle" opacity="0">RV4</text>
</g>
<g class="stroked-text"><desc>RV4</desc>
<path d="M74.5548 67.4252
L74.0786 67.7586
" />
<path d="M74.5548 67.9967
L73.5548 67.9967
" />
<path d="M73.5548 67.9967
L73.5548 67.6157
" />
<path d="M73.5548 67.6157
L73.6024 67.5205
" />
<path d="M73.6024 67.5205
L73.6501 67.4729
" />
<path d="M73.6501 67.4729
L73.7453 67.4252
" />
<path d="M73.7453 67.4252
L73.8882 67.4252
" />
<path d="M73.8882 67.4252
L73.9834 67.4729
" />
<path d="M73.9834 67.4729
L74.0310 67.5205
" />
<path d="M74.0310 67.5205
L74.0786 67.6157
" />
<path d="M74.0786 67.6157
L74.0786 67.9967
" />
<path d="M73.5548 67.1395
L74.5548 66.8062
" />
<path d="M74.5548 66.8062
L73.5548 66.4729
" />
<path d="M73.8882 65.7110
L74.5548 65.7110
" />
<path d="M73.5072 65.9490
L74.2215 66.1871
" />
<path d="M74.2215 66.1871
L74.2215 65.5681
" />
</g><text x="56.8300" y="121.8700"
textLength="1.9643" font-size="1.3333" lengthAdjust="spacingAndGlyphs"
text-anchor="middle" opacity="0">J2</text>
<g class="stroked-text"><desc>J2</desc>
<path d="M56.4967 120.8248
L56.4967 121.5391
" />
<path d="M56.4967 121.5391
L56.4490 121.6820
" />
<path d="M56.4490 121.6820
L56.3538 121.7772
" />
<path d="M56.3538 121.7772
L56.2110 121.8248
" />
<path d="M56.2110 121.8248
L56.1157 121.8248
" />
<path d="M56.9252 120.9201
L56.9729 120.8724
" />
<path d="M56.9729 120.8724
L57.0681 120.8248
" />
<path d="M57.0681 120.8248
L57.3062 120.8248
" />
<path d="M57.3062 120.8248
L57.4014 120.8724
" />
<path d="M57.4014 120.8724
L57.4490 120.9201
" />
<path d="M57.4490 120.9201
L57.4967 121.0153
" />
<path d="M57.4967 121.0153
L57.4967 121.1105
" />
<path d="M57.4967 121.1105
L57.4490 121.2534
" />
<path d="M57.4490 121.2534
L56.8776 121.8248
" />
<path d="M56.8776 121.8248
L57.4967 121.8248
" />
</g><text x="77.1500" y="121.8700"
textLength="1.9643" font-size="1.3333" lengthAdjust="spacingAndGlyphs"
text-anchor="middle" opacity="0">J3</text>
<g class="stroked-text"><desc>J3</desc>
<path d="M76.8167 120.8248
L76.8167 121.5391
" />
<path d="M76.8167 121.5391
L76.7690 121.6820
" />
<path d="M76.7690 121.6820
L76.6738 121.7772
" />
<path d="M76.6738 121.7772
L76.5310 121.8248
" />
<path d="M76.5310 121.8248
L76.4357 121.8248
" />
<path d="M77.1976 120.8248
L77.8167 120.8248
" />
<path d="M77.8167 120.8248
L77.4833 121.2058
" />
<path d="M77.4833 121.2058
L77.6262 121.2058
" />
<path d="M77.6262 121.2058
L77.7214 121.2534
" />
<path d="M77.7214 121.2534
L77.7690 121.3010
" />
<path d="M77.7690 121.3010
L77.8167 121.3962
" />
<path d="M77.8167 121.3962
L77.8167 121.6343
" />
<path d="M77.8167 121.6343
L77.7690 121.7296
" />
<path d="M77.7690 121.7296
L77.7214 121.7772
" />
<path d="M77.7214 121.7772
L77.6262 121.8248
" />
<path d="M77.6262 121.8248
L77.3405 121.8248
" />
<path d="M77.3405 121.8248
L77.2452 121.7772
" />
<path d="M77.2452 121.7772
L77.1976 121.7296
" />
</g><text x="65.0900" y="92.4900"
textLength="1.9643" font-size="1.3333" lengthAdjust="spacingAndGlyphs"
text-anchor="middle" opacity="0">J1</text>
<g class="stroked-text"><desc>J1</desc>
<path d="M64.7567 91.4448
L64.7567 92.1591
" />
<path d="M64.7567 92.1591
L64.7090 92.3020
" />
<path d="M64.7090 92.3020
L64.6138 92.3972
" />
<path d="M64.6138 92.3972
L64.4710 92.4448
" />
<path d="M64.4710 92.4448
L64.3757 92.4448
" />
<path d="M65.7567 92.4448
L65.1852 92.4448
" />
<path d="M65.4710 92.4448
L65.4710 91.4448
" />
<path d="M65.4710 91.4448
L65.3757 91.5877
" />
<path d="M65.3757 91.5877
L65.2805 91.6829
" />
<path d="M65.2805 91.6829
L65.1852 91.7305
" />
</g><text x="56.8300" y="60.9100"
textLength="1.9643" font-size="1.3333" lengthAdjust="spacingAndGlyphs"
text-anchor="middle" opacity="0">J5</text>
<g class="stroked-text"><desc>J5</desc>
<path d="M56.4967 59.8648
L56.4967 60.5791
" />
<path d="M56.4967 60.5791
L56.4490 60.7220
" />
<path d="M56.4490 60.7220
L56.3538 60.8172
" />
<path d="M56.3538 60.8172
L56.2110 60.8648
" />
<path d="M56.2110 60.8648
L56.1157 60.8648
" />
<path d="M57.4490 59.8648
L56.9729 59.8648
" />
<path d="M56.9729 59.8648
L56.9252 60.3410
" />
<path d="M56.9252 60.3410
L56.9729 60.2934
" />
<path d="M56.9729 60.2934
L57.0681 60.2458
" />
<path d="M57.0681 60.2458
L57.3062 60.2458
" />
<path d="M57.3062 60.2458
L57.4014 60.2934
" />
<path d="M57.4014 60.2934
L57.4490 60.3410
" />
<path d="M57.4490 60.3410
L57.4967 60.4362
" />
<path d="M57.4967 60.4362
L57.4967 60.6743
" />
<path d="M57.4967 60.6743
L57.4490 60.7696
" />
<path d="M57.4490 60.7696
L57.4014 60.8172
" />
<path d="M57.4014 60.8172
L57.3062 60.8648
" />
<path d="M57.3062 60.8648
L57.0681 60.8648
" />
<path d="M57.0681 60.8648
L56.9729 60.8172
" />
<path d="M56.9729 60.8172
L56.9252 60.7696
" />
</g><text x="77.1500" y="142.1900"
textLength="1.9643" font-size="1.3333" lengthAdjust="spacingAndGlyphs"
text-anchor="middle" opacity="0">J6</text>
<g class="stroked-text"><desc>J6</desc>
<path d="M76.8167 141.1448
L76.8167 141.8591
" />
<path d="M76.8167 141.8591
L76.7690 142.0020
" />
<path d="M76.7690 142.0020
L76.6738 142.0972
" />
<path d="M76.6738 142.0972
L76.5310 142.1448
" />
<path d="M76.5310 142.1448
L76.4357 142.1448
" />
<path d="M77.7214 141.1448
L77.5310 141.1448
" />
<path d="M77.5310 141.1448
L77.4357 141.1924
" />
<path d="M77.4357 141.1924
L77.3881 141.2401
" />
<path d="M77.3881 141.2401
L77.2929 141.3829
" />
<path d="M77.2929 141.3829
L77.2452 141.5734
" />
<path d="M77.2452 141.5734
L77.2452 141.9543
" />
<path d="M77.2452 141.9543
L77.2929 142.0496
" />
<path d="M77.2929 142.0496
L77.3405 142.0972
" />
<path d="M77.3405 142.0972
L77.4357 142.1448
" />
<path d="M77.4357 142.1448
L77.6262 142.1448
" />
<path d="M77.6262 142.1448
L77.7214 142.0972
" />
<path d="M77.7214 142.0972
L77.7690 142.0496
" />
<path d="M77.7690 142.0496
L77.8167 141.9543
" />
<path d="M77.8167 141.9543
L77.8167 141.7162
" />
<path d="M77.8167 141.7162
L77.7690 141.6210
" />
<path d="M77.7690 141.6210
L77.7214 141.5734
" />
<path d="M77.7214 141.5734
L77.6262 141.5258
" />
<path d="M77.6262 141.5258
L77.4357 141.5258
" />
<path d="M77.4357 141.5258
L77.3405 141.5734
" />
<path d="M77.3405 141.5734
L77.2929 141.6210
" />
<path d="M77.2929 141.6210
L77.2452 141.7162
" />
</g><text x="56.8300" y="142.1900"
textLength="1.9643" font-size="1.3333" lengthAdjust="spacingAndGlyphs"
text-anchor="middle" opacity="0">J7</text>
<g class="stroked-text"><desc>J7</desc>
<path d="M56.4967 141.1448
L56.4967 141.8591
" />
<path d="M56.4967 141.8591
L56.4490 142.0020
" />
<path d="M56.4490 142.0020
L56.3538 142.0972
" />
<path d="M56.3538 142.0972
L56.2110 142.1448
" />
<path d="M56.2110 142.1448
L56.1157 142.1448
" />
<path d="M56.8776 141.1448
L57.5443 141.1448
" />
<path d="M57.5443 141.1448
L57.1157 142.1448
" />
</g><text x="52.8320" y="63.0670"
textLength="1.9643" font-size="1.3333" lengthAdjust="spacingAndGlyphs"
text-anchor="middle" opacity="0">J4</text>
<g class="stroked-text"><desc>J4</desc>
<path d="M52.4987 62.0218
L52.4987 62.7361
" />
<path d="M52.4987 62.7361
L52.4510 62.8790
" />
<path d="M52.4510 62.8790
L52.3558 62.9742
" />
<path d="M52.3558 62.9742
L52.2130 63.0218
" />
<path d="M52.2130 63.0218
L52.1177 63.0218
" />
<path d="M53.4034 62.3552
L53.4034 63.0218
" />
<path d="M53.1653 61.9742
L52.9272 62.6885
" />
<path d="M52.9272 62.6885
L53.5463 62.6885
" />
</g><g transform="rotate(-90.000000 66.7180 147.3200)">
<text x="66.7180" y="147.8200"
textLength="2.2024" font-size="1.3333" lengthAdjust="spacingAndGlyphs"
text-anchor="middle" opacity="0">R4</text>
</g>
<g class="stroked-text"><desc>R4</desc>
<path d="M67.1728 147.4867
L66.6966 147.8200
" />
<path d="M67.1728 148.0581
L66.1728 148.0581
" />
<path d="M66.1728 148.0581
L66.1728 147.6771
" />
<path d="M66.1728 147.6771
L66.2204 147.5819
" />
<path d="M66.2204 147.5819
L66.2681 147.5343
" />
<path d="M66.2681 147.5343
L66.3633 147.4867
" />
<path d="M66.3633 147.4867
L66.5062 147.4867
" />
<path d="M66.5062 147.4867
L66.6014 147.5343
" />
<path d="M66.6014 147.5343
L66.6490 147.5819
" />
<path d="M66.6490 147.5819
L66.6966 147.6771
" />
<path d="M66.6966 147.6771
L66.6966 148.0581
" />
<path d="M66.5062 146.6295
L67.1728 146.6295
" />
<path d="M66.1252 146.8676
L66.8395 147.1057
" />
<path d="M66.8395 147.1057
L66.8395 146.4867
" />
</g></g>
<g style="fill:#000000; fill-opacity:0.0; 
stroke:#000000; stroke-width:0.3000; stroke-opacity:1; 
stroke-linecap:round; stroke-linejoin:round;">
<text x="66.3500" y="159.8340"
textLength="18.0238" font-size="2.6667" lengthAdjust="spacingAndGlyphs"
text-anchor="middle" opacity="0">elektrophon</text>
<g class="stroked-text"><desc>elektrophon</desc>
<path d="M58.8262 159.6909
L58.6268 159.7623
" />
<path d="M58.6268 159.7623
L58.2458 159.7623
" />
<path d="M58.2458 159.7623
L58.0643 159.6909
" />
<path d="M58.0643 159.6909
L57.9869 159.5480
" />
<path d="M57.9869 159.5480
L58.0583 158.9766
" />
<path d="M58.0583 158.9766
L58.1714 158.8338
" />
<path d="M58.1714 158.8338
L58.3708 158.7623
" />
<path d="M58.3708 158.7623
L58.7518 158.7623
" />
<path d="M58.7518 158.7623
L58.9333 158.8338
" />
<path d="M58.9333 158.8338
L59.0107 158.9766
" />
<path d="M59.0107 158.9766
L58.9929 159.1195
" />
<path d="M58.9929 159.1195
L58.0226 159.2623
" />
<path d="M60.0554 159.7623
L59.8738 159.6909
" />
<path d="M59.8738 159.6909
L59.7964 159.5480
" />
<path d="M59.7964 159.5480
L59.9571 158.2623
" />
<path d="M61.5881 159.6909
L61.3887 159.7623
" />
<path d="M61.3887 159.7623
L61.0077 159.7623
" />
<path d="M61.0077 159.7623
L60.8262 159.6909
" />
<path d="M60.8262 159.6909
L60.7488 159.5480
" />
<path d="M60.7488 159.5480
L60.8202 158.9766
" />
<path d="M60.8202 158.9766
L60.9333 158.8338
" />
<path d="M60.9333 158.8338
L61.1327 158.7623
" />
<path d="M61.1327 158.7623
L61.5137 158.7623
" />
<path d="M61.5137 158.7623
L61.6952 158.8338
" />
<path d="M61.6952 158.8338
L61.7726 158.9766
" />
<path d="M61.7726 158.9766
L61.7548 159.1195
" />
<path d="M61.7548 159.1195
L60.7845 159.2623
" />
<path d="M62.5315 159.7623
L62.7190 158.2623
" />
<path d="M62.7935 159.1909
L63.2935 159.7623
" />
<path d="M63.4185 158.7623
L62.5851 159.3338
" />
<path d="M63.9899 158.7623
L64.7518 158.7623
" />
<path d="M64.3381 158.2623
L64.1774 159.5480
" />
<path d="M64.1774 159.5480
L64.2548 159.6909
" />
<path d="M64.2548 159.6909
L64.4363 159.7623
" />
<path d="M64.4363 159.7623
L64.6268 159.7623
" />
<path d="M65.2935 159.7623
L65.4185 158.7623
" />
<path d="M65.3827 159.0480
L65.4958 158.9052
" />
<path d="M65.4958 158.9052
L65.6000 158.8338
" />
<path d="M65.6000 158.8338
L65.7994 158.7623
" />
<path d="M65.7994 158.7623
L65.9899 158.7623
" />
<path d="M66.8173 159.7623
L66.6357 159.6909
" />
<path d="M66.6357 159.6909
L66.5494 159.6195
" />
<path d="M66.5494 159.6195
L66.4720 159.4766
" />
<path d="M66.4720 159.4766
L66.5256 159.0480
" />
<path d="M66.5256 159.0480
L66.6387 158.9052
" />
<path d="M66.6387 158.9052
L66.7429 158.8338
" />
<path d="M66.7429 158.8338
L66.9423 158.7623
" />
<path d="M66.9423 158.7623
L67.2280 158.7623
" />
<path d="M67.2280 158.7623
L67.4095 158.8338
" />
<path d="M67.4095 158.8338
L67.4958 158.9052
" />
<path d="M67.4958 158.9052
L67.5732 159.0480
" />
<path d="M67.5732 159.0480
L67.5196 159.4766
" />
<path d="M67.5196 159.4766
L67.4065 159.6195
" />
<path d="M67.4065 159.6195
L67.3024 159.6909
" />
<path d="M67.3024 159.6909
L67.1030 159.7623
" />
<path d="M67.1030 159.7623
L66.8173 159.7623
" />
<path d="M68.4661 158.7623
L68.2786 160.2623
" />
<path d="M68.4571 158.8338
L68.6565 158.7623
" />
<path d="M68.6565 158.7623
L69.0375 158.7623
" />
<path d="M69.0375 158.7623
L69.2190 158.8338
" />
<path d="M69.2190 158.8338
L69.3054 158.9052
" />
<path d="M69.3054 158.9052
L69.3827 159.0480
" />
<path d="M69.3827 159.0480
L69.3292 159.4766
" />
<path d="M69.3292 159.4766
L69.2161 159.6195
" />
<path d="M69.2161 159.6195
L69.1119 159.6909
" />
<path d="M69.1119 159.6909
L68.9125 159.7623
" />
<path d="M68.9125 159.7623
L68.5315 159.7623
" />
<path d="M68.5315 159.7623
L68.3500 159.6909
" />
<path d="M70.1506 159.7623
L70.3381 158.2623
" />
<path d="M71.0077 159.7623
L71.1060 158.9766
" />
<path d="M71.1060 158.9766
L71.0286 158.8338
" />
<path d="M71.0286 158.8338
L70.8470 158.7623
" />
<path d="M70.8470 158.7623
L70.5613 158.7623
" />
<path d="M70.5613 158.7623
L70.3619 158.8338
" />
<path d="M70.3619 158.8338
L70.2577 158.9052
" />
<path d="M72.2458 159.7623
L72.0643 159.6909
" />
<path d="M72.0643 159.6909
L71.9780 159.6195
" />
<path d="M71.9780 159.6195
L71.9006 159.4766
" />
<path d="M71.9006 159.4766
L71.9542 159.0480
" />
<path d="M71.9542 159.0480
L72.0673 158.9052
" />
<path d="M72.0673 158.9052
L72.1714 158.8338
" />
<path d="M72.1714 158.8338
L72.3708 158.7623
" />
<path d="M72.3708 158.7623
L72.6565 158.7623
" />
<path d="M72.6565 158.7623
L72.8381 158.8338
" />
<path d="M72.8381 158.8338
L72.9244 158.9052
" />
<path d="M72.9244 158.9052
L73.0018 159.0480
" />
<path d="M73.0018 159.0480
L72.9482 159.4766
" />
<path d="M72.9482 159.4766
L72.8351 159.6195
" />
<path d="M72.8351 159.6195
L72.7310 159.6909
" />
<path d="M72.7310 159.6909
L72.5315 159.7623
" />
<path d="M72.5315 159.7623
L72.2458 159.7623
" />
<path d="M73.8946 158.7623
L73.7696 159.7623
" />
<path d="M73.8768 158.9052
L73.9810 158.8338
" />
<path d="M73.9810 158.8338
L74.1804 158.7623
" />
<path d="M74.1804 158.7623
L74.4661 158.7623
" />
<path d="M74.4661 158.7623
L74.6476 158.8338
" />
<path d="M74.6476 158.8338
L74.7250 158.9766
" />
<path d="M74.7250 158.9766
L74.6268 159.7623
" />
</g></g>
<g style="fill:#000000; fill-opacity:0.0; 
stroke:#000000; stroke-width:0.1500; stroke-opacity:1; 
stroke-linecap:round; stroke-linejoin:round;">
<text x="57.8100" y="161.4900"
textLength="3.7738" font-size="1.3333" lengthAdjust="spacingAndGlyphs"
text-anchor="start" opacity="0">echo</text>
<g class="stroked-text"><desc>echo</desc>
<path d="M58.5277 161.4142
L58.4325 161.4523
" />
<path d="M58.4325 161.4523
L58.2420 161.4523
" />
<path d="M58.2420 161.4523
L58.1468 161.4142
" />
<path d="M58.1468 161.4142
L58.0992 161.3380
" />
<path d="M58.0992 161.3380
L58.0992 161.0332
" />
<path d="M58.0992 161.0332
L58.1468 160.9571
" />
<path d="M58.1468 160.9571
L58.2420 160.9190
" />
<path d="M58.2420 160.9190
L58.4325 160.9190
" />
<path d="M58.4325 160.9190
L58.5277 160.9571
" />
<path d="M58.5277 160.9571
L58.5754 161.0332
" />
<path d="M58.5754 161.0332
L58.5754 161.1094
" />
<path d="M58.5754 161.1094
L58.0992 161.1856
" />
<path d="M59.4325 161.4142
L59.3373 161.4523
" />
<path d="M59.3373 161.4523
L59.1468 161.4523
" />
<path d="M59.1468 161.4523
L59.0515 161.4142
" />
<path d="M59.0515 161.4142
L59.0039 161.3761
" />
<path d="M59.0039 161.3761
L58.9563 161.2999
" />
<path d="M58.9563 161.2999
L58.9563 161.0713
" />
<path d="M58.9563 161.0713
L59.0039 160.9952
" />
<path d="M59.0039 160.9952
L59.0515 160.9571
" />
<path d="M59.0515 160.9571
L59.1468 160.9190
" />
<path d="M59.1468 160.9190
L59.3373 160.9190
" />
<path d="M59.3373 160.9190
L59.4325 160.9571
" />
<path d="M59.8611 161.4523
L59.8611 160.6523
" />
<path d="M60.2896 161.4523
L60.2896 161.0332
" />
<path d="M60.2896 161.0332
L60.2420 160.9571
" />
<path d="M60.2420 160.9571
L60.1468 160.9190
" />
<path d="M60.1468 160.9190
L60.0039 160.9190
" />
<path d="M60.0039 160.9190
L59.9087 160.9571
" />
<path d="M59.9087 160.9571
L59.8611 160.9952
" />
<path d="M60.9087 161.4523
L60.8134 161.4142
" />
<path d="M60.8134 161.4142
L60.7658 161.3761
" />
<path d="M60.7658 161.3761
L60.7182 161.2999
" />
<path d="M60.7182 161.2999
L60.7182 161.0713
" />
<path d="M60.7182 161.0713
L60.7658 160.9952
" />
<path d="M60.7658 160.9952
L60.8134 160.9571
" />
<path d="M60.8134 160.9571
L60.9087 160.9190
" />
<path d="M60.9087 160.9190
L61.0515 160.9190
" />
<path d="M61.0515 160.9190
L61.1468 160.9571
" />
<path d="M61.1468 160.9571
L61.1944 160.9952
" />
<path d="M61.1944 160.9952
L61.2420 161.0713
" />
<path d="M61.2420 161.0713
L61.2420 161.2999
" />
<path d="M61.2420 161.2999
L61.1944 161.3761
" />
<path d="M61.1944 161.3761
L61.1468 161.4142
" />
<path d="M61.1468 161.4142
L61.0515 161.4523
" />
<path d="M61.0515 161.4523
L60.9087 161.4523
" />
</g><text x="74.9300" y="161.5200"
textLength="3.1548" font-size="1.3333" lengthAdjust="spacingAndGlyphs"
text-anchor="end" opacity="0">R01</text>
<g class="stroked-text"><desc>R01</desc>
<path d="M72.7361 161.4823
L72.4027 161.1013
" />
<path d="M72.1646 161.4823
L72.1646 160.6823
" />
<path d="M72.1646 160.6823
L72.5456 160.6823
" />
<path d="M72.5456 160.6823
L72.6408 160.7204
" />
<path d="M72.6408 160.7204
L72.6885 160.7585
" />
<path d="M72.6885 160.7585
L72.7361 160.8347
" />
<path d="M72.7361 160.8347
L72.7361 160.9490
" />
<path d="M72.7361 160.9490
L72.6885 161.0252
" />
<path d="M72.6885 161.0252
L72.6408 161.0632
" />
<path d="M72.6408 161.0632
L72.5456 161.1013
" />
<path d="M72.5456 161.1013
L72.1646 161.1013
" />
<path d="M73.3551 160.6823
L73.4504 160.6823
" />
<path d="M73.4504 160.6823
L73.5456 160.7204
" />
<path d="M73.5456 160.7204
L73.5932 160.7585
" />
<path d="M73.5932 160.7585
L73.6408 160.8347
" />
<path d="M73.6408 160.8347
L73.6885 160.9871
" />
<path d="M73.6885 160.9871
L73.6885 161.1775
" />
<path d="M73.6885 161.1775
L73.6408 161.3299
" />
<path d="M73.6408 161.3299
L73.5932 161.4061
" />
<path d="M73.5932 161.4061
L73.5456 161.4442
" />
<path d="M73.5456 161.4442
L73.4504 161.4823
" />
<path d="M73.4504 161.4823
L73.3551 161.4823
" />
<path d="M73.3551 161.4823
L73.2599 161.4442
" />
<path d="M73.2599 161.4442
L73.2123 161.4061
" />
<path d="M73.2123 161.4061
L73.1646 161.3299
" />
<path d="M73.1646 161.3299
L73.1170 161.1775
" />
<path d="M73.1170 161.1775
L73.1170 160.9871
" />
<path d="M73.1170 160.9871
L73.1646 160.8347
" />
<path d="M73.1646 160.8347
L73.2123 160.7585
" />
<path d="M73.2123 160.7585
L73.2599 160.7204
" />
<path d="M73.2599 160.7204
L73.3551 160.6823
" />
<path d="M74.6408 161.4823
L74.0694 161.4823
" />
<path d="M74.3551 161.4823
L74.3551 160.6823
" />
<path d="M74.3551 160.6823
L74.2599 160.7966
" />
<path d="M74.2599 160.7966
L74.1646 160.8728
" />
<path d="M74.1646 160.8728
L74.0694 160.9109
" />
</g></g>
<g style="fill:#000000; fill-opacity:0.0; 
stroke:#000000; stroke-width:0.1200; stroke-opacity:1; 
stroke-linecap:round; stroke-linejoin:round;">
<path d="M52.8320 95.0200
L52.8320 95.7900
" />
<path d="M54.2020 95.7900
L51.4620 95.7900
" />
<path d="M51.4620 95.7900
L51.4620 102.3300
" />
<path d="M54.2020 102.3300
L54.2020 95.7900
" />
<path d="M51.4620 102.3300
L54.2020 102.3300
" />
<path d="M52.8320 103.1000
L52.8320 102.3300
" />
<path d="M52.8320 108.2280
L52.8320 108.9980
" />
<path d="M54.2020 108.9980
L51.4620 108.9980
" />
<path d="M51.4620 108.9980
L51.4620 115.5380
" />
<path d="M54.2020 115.5380
L54.2020 108.9980
" />
<path d="M51.4620 115.5380
L54.2020 115.5380
" />
<path d="M52.8320 116.3080
L52.8320 115.5380
" />
<path d="M72.1600 98.0440
L72.9300 98.0440
" />
<path d="M72.9300 96.6740
L72.9300 99.4140
" />
<path d="M72.9300 99.4140
L79.4700 99.4140
" />
<path d="M79.4700 96.6740
L72.9300 96.6740
" />
<path d="M79.4700 99.4140
L79.4700 96.6740
" />
<path d="M80.2400 98.0440
L79.4700 98.0440
" />
<path d="M56.0400 113.3000
L56.0400 108.5800
" />
<path d="M57.2300 113.3000
L56.0500 113.3000
" />
<path d="M60.1300 113.3000
L59.6000 113.3000
" />
<path d="M62.5800 113.3000
L61.7500 113.3000
" />
<path d="M65.7900 113.3000
L64.3000 113.3000
" />
<path d="M65.7900 113.3000
L65.7900 108.5800
" />
<path d="M56.0500 104.7700
L56.0500 101.7100
" />
<path d="M65.7900 104.7700
L65.7900 101.7100
" />
<path d="M65.7900 101.7100
L56.0500 101.7100
" />
<path d="M76.3600 92.9800
L76.3600 88.2600
" />
<path d="M77.5500 92.9800
L76.3700 92.9800
" />
<path d="M80.4500 92.9800
L79.9200 92.9800
" />
<path d="M82.9000 92.9800
L82.0700 92.9800
" />
<path d="M86.1100 92.9800
L84.6200 92.9800
" />
<path d="M86.1100 92.9800
L86.1100 88.2600
" />
<path d="M76.3700 84.4500
L76.3700 81.3900
" />
<path d="M86.1100 84.4500
L86.1100 81.3900
" />
<path d="M86.1100 81.3900
L76.3700 81.3900
" />
<path d="M76.3600 113.3000
L76.3600 108.5800
" />
<path d="M77.5500 113.3000
L76.3700 113.3000
" />
<path d="M80.4500 113.3000
L79.9200 113.3000
" />
<path d="M82.9000 113.3000
L82.0700 113.3000
" />
<path d="M86.1100 113.3000
L84.6200 113.3000
" />
<path d="M86.1100 113.3000
L86.1100 108.5800
" />
<path d="M76.3700 104.7700
L76.3700 101.7100
" />
<path d="M86.1100 104.7700
L86.1100 101.7100
" />
<path d="M86.1100 101.7100
L76.3700 101.7100
" />
<path d="M76.3600 72.6600
L76.3600 67.9400
" />
<path d="M77.5500 72.6600
L76.3700 72.6600
" />
<path d="M80.4500 72.6600
L79.9200 72.6600
" />
<path d="M82.9000 72.6600
L82.0700 72.6600
" />
<path d="M86.1100 72.6600
L84.6200 72.6600
" />
<path d="M86.1100 72.6600
L86.1100 67.9400
" />
<path d="M76.3700 64.1300
L76.3700 61.0700
" />
<path d="M86.1100 64.1300
L86.1100 61.0700
" />
<path d="M86.1100 61.0700
L76.3700 61.0700
" />
<path d="M56.4600 122.5000
L56.4600 133.0000
" />
<path d="M60.4600 133.0000
L56.4600 133.0000
" />
<path d="M60.5600 122.5000
L56.4600 122.5000
" />
<path d="M65.4600 122.5000
L61.3600 122.5000
" />
<path d="M65.4600 122.5000
L65.4600 133.0000
" />
<path d="M65.4600 133.0000
L61.4600 133.0000
" />
<circle cx="60.9600" cy="127.0000" r="1.8000" /> 
<path d="M76.7800 122.5000
L76.7800 133.0000
" />
<path d="M80.7800 133.0000
L76.7800 133.0000
" />
<path d="M80.8800 122.5000
L76.7800 122.5000
" />
<path d="M85.7800 122.5000
L81.6800 122.5000
" />
<path d="M85.7800 122.5000
L85.7800 133.0000
" />
<path d="M85.7800 133.0000
L81.7800 133.0000
" />
<circle cx="81.2800" cy="127.0000" r="1.8000" /> 
<path d="M65.4600 90.8600
L65.4600 80.3600
" />
<path d="M61.4600 80.3600
L65.4600 80.3600
" />
<path d="M61.3600 90.8600
L65.4600 90.8600
" />
<path d="M56.4600 90.8600
L60.5600 90.8600
" />
<path d="M56.4600 90.8600
L56.4600 80.3600
" />
<path d="M56.4600 80.3600
L60.4600 80.3600
" />
<circle cx="60.9600" cy="86.3600" r="1.8000" /> 
<path d="M56.4600 61.5400
L56.4600 72.0400
" />
<path d="M60.4600 72.0400
L56.4600 72.0400
" />
<path d="M60.5600 61.5400
L56.4600 61.5400
" />
<path d="M65.4600 61.5400
L61.3600 61.5400
" />
<path d="M65.4600 61.5400
L65.4600 72.0400
" />
<path d="M65.4600 72.0400
L61.4600 72.0400
" />
<circle cx="60.9600" cy="66.0400" r="1.8000" /> 
<path d="M76.7800 142.8200
L76.7800 153.3200
" />
<path d="M80.7800 153.3200
L76.7800 153.3200
" />
<path d="M80.8800 142.8200
L76.7800 142.8200
" />
<path d="M85.7800 142.8200
L81.6800 142.8200
" />
<path d="M85.7800 142.8200
L85.7800 153.3200
" />
<path d="M85.7800 153.3200
L81.7800 153.3200
" />
<circle cx="81.2800" cy="147.3200" r="1.8000" /> 
<path d="M56.4600 142.8200
L56.4600 153.3200
" />
<path d="M60.4600 153.3200
L56.4600 153.3200
" />
<path d="M60.5600 142.8200
L56.4600 142.8200
" />
<path d="M65.4600 142.8200
L61.3600 142.8200
" />
<path d="M65.4600 142.8200
L65.4600 153.3200
" />
<path d="M65.4600 153.3200
L61.4600 153.3200
" />
<circle cx="60.9600" cy="147.3200" r="1.8000" /> 
<path d="M51.5020 63.5670
L52.8320 63.5670
" />
<path d="M51.5020 64.8970
L51.5020 63.5670
" />
<path d="M51.5020 66.1670
L51.5020 91.6270
" />
<path d="M51.5020 66.1670
L54.1620 66.1670
" />
<path d="M51.5020 91.6270
L54.1620 91.6270
" />
<path d="M54.1620 66.1670
L54.1620 91.6270
" />
<path d="M69.0880 151.3600
L69.0880 150.5900
" />
<path d="M67.7180 150.5900
L70.4580 150.5900
" />
<path d="M70.4580 150.5900
L70.4580 144.0500
" />
<path d="M67.7180 144.0500
L67.7180 150.5900
" />
<path d="M70.4580 144.0500
L67.7180 144.0500
" />
<path d="M69.0880 143.2800
L69.0880 144.0500
" />
<g >
</g>
<g >
</g>
<g >
</g>
<g >
</g>
<g >
</g>
<g >
</g>
<g >
</g>
<g >
</g>
<g >
</g>
<g >
</g>
<g >
</g>
<g >
</g>
<g >
</g>
<g >
</g>
<g >
</g>
<g >
</g>
<g >
</g>
<g >
</g>
<g >
</g>
<g >
</g>
<g >
</g>
<g >
</g>
<g >
</g>
</g>
<g style="fill:#FFFFFF; fill-opacity:0.0; 
stroke:#FFFFFF; stroke-width:0.1200; stroke-opacity:1; 
stroke-linecap:round; stroke-linejoin:round;">
</g>
<g style="fill:#FFFFFF; fill-opacity:1.0000; 
stroke:#FFFFFF; stroke-width:0.0000; stroke-opacity:1; 
stroke-linecap:round; stroke-linejoin:round;">
<circle cx="52.8320" cy="93.9800" r="0.1750" /> 
</g>
<g style="fill:#FFFFFF; fill-opacity:1.0000; 
stroke:#FFFFFF; stroke-width:0.0212; stroke-opacity:1; 
stroke-linecap:round; stroke-linejoin:round;">
</g>
<g style="fill:#FFFFFF; fill-opacity:1.0000; 
stroke:#FFFFFF; stroke-width:0.0000; stroke-opacity:1; 
stroke-linecap:round; stroke-linejoin:round;">
<circle cx="52.8320" cy="104.1400" r="0.1750" /> 
</g>
<g style="fill:#FFFFFF; fill-opacity:1.0000; 
stroke:#FFFFFF; stroke-width:0.0212; stroke-opacity:1; 
stroke-linecap:round; stroke-linejoin:round;">
</g>
<g style="fill:#FFFFFF; fill-opacity:1.0000; 
stroke:#FFFFFF; stroke-width:0.0000; stroke-opacity:1; 
stroke-linecap:round; stroke-linejoin:round;">
<circle cx="52.8320" cy="107.1880" r="0.1750" /> 
</g>
<g style="fill:#FFFFFF; fill-opacity:1.0000; 
stroke:#FFFFFF; stroke-width:0.0212; stroke-opacity:1; 
stroke-linecap:round; stroke-linejoin:round;">
</g>
<g style="fill:#FFFFFF; fill-opacity:1.0000; 
stroke:#FFFFFF; stroke-width:0.0000; stroke-opacity:1; 
stroke-linecap:round; stroke-linejoin:round;">
<circle cx="52.8320" cy="117.3480" r="0.1750" /> 
</g>
<g style="fill:#FFFFFF; fill-opacity:1.0000; 
stroke:#FFFFFF; stroke-width:0.0212; stroke-opacity:1; 
stroke-linecap:round; stroke-linejoin:round;">
</g>
<g style="fill:#FFFFFF; fill-opacity:1.0000; 
stroke:#FFFFFF; stroke-width:0.0000; stroke-opacity:1; 
stroke-linecap:round; stroke-linejoin:round;">
<circle cx="71.1200" cy="98.0440" r="0.1750" /> 
</g>
<g style="fill:#FFFFFF; fill-opacity:1.0000; 
stroke:#FFFFFF; stroke-width:0.0212; stroke-opacity:1; 
stroke-linecap:round; stroke-linejoin:round;">
</g>
<g style="fill:#FFFFFF; fill-opacity:1.0000; 
stroke:#FFFFFF; stroke-width:0.0000; stroke-opacity:1; 
stroke-linecap:round; stroke-linejoin:round;">
<circle cx="81.2800" cy="98.0440" r="0.1750" /> 
</g>
<g style="fill:#FFFFFF; fill-opacity:1.0000; 
stroke:#FFFFFF; stroke-width:0.0212; stroke-opacity:1; 
stroke-linecap:round; stroke-linejoin:round;">
</g>
<g style="fill:#FFFFFF; fill-opacity:1.0000; 
stroke:#FFFFFF; stroke-width:1.1000; stroke-opacity:1; 
stroke-linecap:round; stroke-linejoin:round;">
</g>
<g style="fill:#FFFFFF; fill-opacity:0.0; 
stroke:#FFFFFF; stroke-width:1.1000; stroke-opacity:1; 
stroke-linecap:round; stroke-linejoin:round;">
<path d="M56.1200 107.0300
L56.1200 106.3300
" />
<path d="M65.7200 107.0300
L65.7200 106.3300
" />
</g>
<g style="fill:#FFFFFF; fill-opacity:1.0000; 
stroke:#FFFFFF; stroke-width:0.0000; stroke-opacity:1; 
stroke-linecap:round; stroke-linejoin:round;">
<circle cx="58.4200" cy="114.1800" r="0.1750" /> 
</g>
<g style="fill:#FFFFFF; fill-opacity:1.0000; 
stroke:#FFFFFF; stroke-width:0.0212; stroke-opacity:1; 
stroke-linecap:round; stroke-linejoin:round;">
</g>
<g style="fill:#FFFFFF; fill-opacity:1.0000; 
stroke:#FFFFFF; stroke-width:0.0000; stroke-opacity:1; 
stroke-linecap:round; stroke-linejoin:round;">
<circle cx="60.9200" cy="114.1800" r="0.1750" /> 
</g>
<g style="fill:#FFFFFF; fill-opacity:1.0000; 
stroke:#FFFFFF; stroke-width:0.0212; stroke-opacity:1; 
stroke-linecap:round; stroke-linejoin:round;">
</g>
<g style="fill:#FFFFFF; fill-opacity:1.0000; 
stroke:#FFFFFF; stroke-width:0.0000; stroke-opacity:1; 
stroke-linecap:round; stroke-linejoin:round;">
<circle cx="63.4200" cy="114.1800" r="0.1750" /> 
</g>
<g style="fill:#FFFFFF; fill-opacity:1.0000; 
stroke:#FFFFFF; stroke-width:0.0212; stroke-opacity:1; 
stroke-linecap:round; stroke-linejoin:round;">
</g>
<g style="fill:#FFFFFF; fill-opacity:1.0000; 
stroke:#FFFFFF; stroke-width:1.1000; stroke-opacity:1; 
stroke-linecap:round; stroke-linejoin:round;">
</g>
<g style="fill:#FFFFFF; fill-opacity:0.0; 
stroke:#FFFFFF; stroke-width:1.1000; stroke-opacity:1; 
stroke-linecap:round; stroke-linejoin:round;">
<path d="M76.4400 86.7100
L76.4400 86.0100
" />
<path d="M86.0400 86.7100
L86.0400 86.0100
" />
</g>
<g style="fill:#FFFFFF; fill-opacity:1.0000; 
stroke:#FFFFFF; stroke-width:0.0000; stroke-opacity:1; 
stroke-linecap:round; stroke-linejoin:round;">
<circle cx="78.7400" cy="93.8600" r="0.1750" /> 
</g>
<g style="fill:#FFFFFF; fill-opacity:1.0000; 
stroke:#FFFFFF; stroke-width:0.0212; stroke-opacity:1; 
stroke-linecap:round; stroke-linejoin:round;">
</g>
<g style="fill:#FFFFFF; fill-opacity:1.0000; 
stroke:#FFFFFF; stroke-width:0.0000; stroke-opacity:1; 
stroke-linecap:round; stroke-linejoin:round;">
<circle cx="81.2400" cy="93.8600" r="0.1750" /> 
</g>
<g style="fill:#FFFFFF; fill-opacity:1.0000; 
stroke:#FFFFFF; stroke-width:0.0212; stroke-opacity:1; 
stroke-linecap:round; stroke-linejoin:round;">
</g>
<g style="fill:#FFFFFF; fill-opacity:1.0000; 
stroke:#FFFFFF; stroke-width:0.0000; stroke-opacity:1; 
stroke-linecap:round; stroke-linejoin:round;">
<circle cx="83.7400" cy="93.8600" r="0.1750" /> 
</g>
<g style="fill:#FFFFFF; fill-opacity:1.0000; 
stroke:#FFFFFF; stroke-width:0.0212; stroke-opacity:1; 
stroke-linecap:round; stroke-linejoin:round;">
</g>
<g style="fill:#FFFFFF; fill-opacity:1.0000; 
stroke:#FFFFFF; stroke-width:1.1000; stroke-opacity:1; 
stroke-linecap:round; stroke-linejoin:round;">
</g>
<g style="fill:#FFFFFF; fill-opacity:0.0; 
stroke:#FFFFFF; stroke-width:1.1000; stroke-opacity:1; 
stroke-linecap:round; stroke-linejoin:round;">
<path d="M76.4400 107.0300
L76.4400 106.3300
" />
<path d="M86.0400 107.0300
L86.0400 106.3300
" />
</g>
<g style="fill:#FFFFFF; fill-opacity:1.0000; 
stroke:#FFFFFF; stroke-width:0.0000; stroke-opacity:1; 
stroke-linecap:round; stroke-linejoin:round;">
<circle cx="78.7400" cy="114.1800" r="0.1750" /> 
</g>
<g style="fill:#FFFFFF; fill-opacity:1.0000; 
stroke:#FFFFFF; stroke-width:0.0212; stroke-opacity:1; 
stroke-linecap:round; stroke-linejoin:round;">
</g>
<g style="fill:#FFFFFF; fill-opacity:1.0000; 
stroke:#FFFFFF; stroke-width:0.0000; stroke-opacity:1; 
stroke-linecap:round; stroke-linejoin:round;">
<circle cx="81.2400" cy="114.1800" r="0.1750" /> 
</g>
<g style="fill:#FFFFFF; fill-opacity:1.0000; 
stroke:#FFFFFF; stroke-width:0.0212; stroke-opacity:1; 
stroke-linecap:round; stroke-linejoin:round;">
</g>
<g style="fill:#FFFFFF; fill-opacity:1.0000; 
stroke:#FFFFFF; stroke-width:0.0000; stroke-opacity:1; 
stroke-linecap:round; stroke-linejoin:round;">
<circle cx="83.7400" cy="114.1800" r="0.1750" /> 
</g>
<g style="fill:#FFFFFF; fill-opacity:1.0000; 
stroke:#FFFFFF; stroke-width:0.0212; stroke-opacity:1; 
stroke-linecap:round; stroke-linejoin:round;">
</g>
<g style="fill:#FFFFFF; fill-opacity:1.0000; 
stroke:#FFFFFF; stroke-width:1.1000; stroke-opacity:1; 
stroke-linecap:round; stroke-linejoin:round;">
</g>
<g style="fill:#FFFFFF; fill-opacity:0.0; 
stroke:#FFFFFF; stroke-width:1.1000; stroke-opacity:1; 
stroke-linecap:round; stroke-linejoin:round;">
<path d="M76.4400 66.3900
L76.4400 65.6900
" />
<path d="M86.0400 66.3900
L86.0400 65.6900
" />
</g>
<g style="fill:#FFFFFF; fill-opacity:1.0000; 
stroke:#FFFFFF; stroke-width:0.0000; stroke-opacity:1; 
stroke-linecap:round; stroke-linejoin:round;">
<circle cx="78.7400" cy="73.5400" r="0.1750" /> 
</g>
<g style="fill:#FFFFFF; fill-opacity:1.0000; 
stroke:#FFFFFF; stroke-width:0.0212; stroke-opacity:1; 
stroke-linecap:round; stroke-linejoin:round;">
</g>
<g style="fill:#FFFFFF; fill-opacity:1.0000; 
stroke:#FFFFFF; stroke-width:0.0000; stroke-opacity:1; 
stroke-linecap:round; stroke-linejoin:round;">
<circle cx="81.2400" cy="73.5400" r="0.1750" /> 
</g>
<g style="fill:#FFFFFF; fill-opacity:1.0000; 
stroke:#FFFFFF; stroke-width:0.0212; stroke-opacity:1; 
stroke-linecap:round; stroke-linejoin:round;">
</g>
<g style="fill:#FFFFFF; fill-opacity:1.0000; 
stroke:#FFFFFF; stroke-width:0.0000; stroke-opacity:1; 
stroke-linecap:round; stroke-linejoin:round;">
<circle cx="83.7400" cy="73.5400" r="0.1750" /> 
</g>
<g style="fill:#FFFFFF; fill-opacity:1.0000; 
stroke:#FFFFFF; stroke-width:0.0212; stroke-opacity:1; 
stroke-linecap:round; stroke-linejoin:round;">
</g>
<g style="fill:#FFFFFF; fill-opacity:1.0000; 
stroke:#FFFFFF; stroke-width:0.0000; stroke-opacity:1; 
stroke-linecap:round; stroke-linejoin:round;">
<circle cx="60.9600" cy="120.5200" r="0.1750" /> 
</g>
<g style="fill:#FFFFFF; fill-opacity:1.0000; 
stroke:#FFFFFF; stroke-width:0.0212; stroke-opacity:1; 
stroke-linecap:round; stroke-linejoin:round;">
</g>
<g style="fill:#FFFFFF; fill-opacity:1.0000; 
stroke:#FFFFFF; stroke-width:0.0000; stroke-opacity:1; 
stroke-linecap:round; stroke-linejoin:round;">
<circle cx="60.9600" cy="131.9200" r="0.1750" /> 
</g>
<g style="fill:#FFFFFF; fill-opacity:1.0000; 
stroke:#FFFFFF; stroke-width:0.0212; stroke-opacity:1; 
stroke-linecap:round; stroke-linejoin:round;">
</g>
<g style="fill:#FFFFFF; fill-opacity:1.0000; 
stroke:#FFFFFF; stroke-width:0.0000; stroke-opacity:1; 
stroke-linecap:round; stroke-linejoin:round;">
<circle cx="60.9600" cy="123.6200" r="0.1750" /> 
</g>
<g style="fill:#FFFFFF; fill-opacity:1.0000; 
stroke:#FFFFFF; stroke-width:0.0212; stroke-opacity:1; 
stroke-linecap:round; stroke-linejoin:round;">
</g>
<g style="fill:#FFFFFF; fill-opacity:1.0000; 
stroke:#FFFFFF; stroke-width:0.0000; stroke-opacity:1; 
stroke-linecap:round; stroke-linejoin:round;">
<circle cx="81.2800" cy="120.5200" r="0.1750" /> 
</g>
<g style="fill:#FFFFFF; fill-opacity:1.0000; 
stroke:#FFFFFF; stroke-width:0.0212; stroke-opacity:1; 
stroke-linecap:round; stroke-linejoin:round;">
</g>
<g style="fill:#FFFFFF; fill-opacity:1.0000; 
stroke:#FFFFFF; stroke-width:0.0000; stroke-opacity:1; 
stroke-linecap:round; stroke-linejoin:round;">
<circle cx="81.2800" cy="131.9200" r="0.1750" /> 
</g>
<g style="fill:#FFFFFF; fill-opacity:1.0000; 
stroke:#FFFFFF; stroke-width:0.0212; stroke-opacity:1; 
stroke-linecap:round; stroke-linejoin:round;">
</g>
<g style="fill:#FFFFFF; fill-opacity:1.0000; 
stroke:#FFFFFF; stroke-width:0.0000; stroke-opacity:1; 
stroke-linecap:round; stroke-linejoin:round;">
<circle cx="81.2800" cy="123.6200" r="0.1750" /> 
</g>
<g style="fill:#FFFFFF; fill-opacity:1.0000; 
stroke:#FFFFFF; stroke-width:0.0212; stroke-opacity:1; 
stroke-linecap:round; stroke-linejoin:round;">
</g>
<g style="fill:#FFFFFF; fill-opacity:1.0000; 
stroke:#FFFFFF; stroke-width:0.0000; stroke-opacity:1; 
stroke-linecap:round; stroke-linejoin:round;">
<circle cx="60.9600" cy="92.8400" r="0.1750" /> 
</g>
<g style="fill:#FFFFFF; fill-opacity:1.0000; 
stroke:#FFFFFF; stroke-width:0.0212; stroke-opacity:1; 
stroke-linecap:round; stroke-linejoin:round;">
</g>
<g style="fill:#FFFFFF; fill-opacity:1.0000; 
stroke:#FFFFFF; stroke-width:0.0000; stroke-opacity:1; 
stroke-linecap:round; stroke-linejoin:round;">
<circle cx="60.9600" cy="81.4400" r="0.1750" /> 
</g>
<g style="fill:#FFFFFF; fill-opacity:1.0000; 
stroke:#FFFFFF; stroke-width:0.0212; stroke-opacity:1; 
stroke-linecap:round; stroke-linejoin:round;">
</g>
<g style="fill:#FFFFFF; fill-opacity:1.0000; 
stroke:#FFFFFF; stroke-width:0.0000; stroke-opacity:1; 
stroke-linecap:round; stroke-linejoin:round;">
<circle cx="60.9600" cy="89.7400" r="0.1750" /> 
</g>
<g style="fill:#FFFFFF; fill-opacity:1.0000; 
stroke:#FFFFFF; stroke-width:0.0212; stroke-opacity:1; 
stroke-linecap:round; stroke-linejoin:round;">
</g>
<g style="fill:#FFFFFF; fill-opacity:1.0000; 
stroke:#FFFFFF; stroke-width:0.0000; stroke-opacity:1; 
stroke-linecap:round; stroke-linejoin:round;">
<circle cx="60.9600" cy="59.5600" r="0.1750" /> 
</g>
<g style="fill:#FFFFFF; fill-opacity:1.0000; 
stroke:#FFFFFF; stroke-width:0.0212; stroke-opacity:1; 
stroke-linecap:round; stroke-linejoin:round;">
</g>
<g style="fill:#FFFFFF; fill-opacity:1.0000; 
stroke:#FFFFFF; stroke-width:0.0000; stroke-opacity:1; 
stroke-linecap:round; stroke-linejoin:round;">
<circle cx="60.9600" cy="70.9600" r="0.1750" /> 
</g>
<g style="fill:#FFFFFF; fill-opacity:1.0000; 
stroke:#FFFFFF; stroke-width:0.0212; stroke-opacity:1; 
stroke-linecap:round; stroke-linejoin:round;">
</g>
<g style="fill:#FFFFFF; fill-opacity:1.0000; 
stroke:#FFFFFF; stroke-width:0.0000; stroke-opacity:1; 
stroke-linecap:round; stroke-linejoin:round;">
<circle cx="60.9600" cy="62.6600" r="0.1750" /> 
</g>
<g style="fill:#FFFFFF; fill-opacity:1.0000; 
stroke:#FFFFFF; stroke-width:0.0212; stroke-opacity:1; 
stroke-linecap:round; stroke-linejoin:round;">
</g>
<g style="fill:#FFFFFF; fill-opacity:1.0000; 
stroke:#FFFFFF; stroke-width:0.0000; stroke-opacity:1; 
stroke-linecap:round; stroke-linejoin:round;">
<circle cx="81.2800" cy="140.8400" r="0.1750" /> 
</g>
<g style="fill:#FFFFFF; fill-opacity:1.0000; 
stroke:#FFFFFF; stroke-width:0.0212; stroke-opacity:1; 
stroke-linecap:round; stroke-linejoin:round;">
</g>
<g style="fill:#FFFFFF; fill-opacity:1.0000; 
stroke:#FFFFFF; stroke-width:0.0000; stroke-opacity:1; 
stroke-linecap:round; stroke-linejoin:round;">
<circle cx="81.2800" cy="152.2400" r="0.1750" /> 
</g>
<g style="fill:#FFFFFF; fill-opacity:1.0000; 
stroke:#FFFFFF; stroke-width:0.0212; stroke-opacity:1; 
stroke-linecap:round; stroke-linejoin:round;">
</g>
<g style="fill:#FFFFFF; fill-opacity:1.0000; 
stroke:#FFFFFF; stroke-width:0.0000; stroke-opacity:1; 
stroke-linecap:round; stroke-linejoin:round;">
<circle cx="81.2800" cy="143.9400" r="0.1750" /> 
</g>
<g style="fill:#FFFFFF; fill-opacity:1.0000; 
stroke:#FFFFFF; stroke-width:0.0212; stroke-opacity:1; 
stroke-linecap:round; stroke-linejoin:round;">
</g>
<g style="fill:#FFFFFF; fill-opacity:1.0000; 
stroke:#FFFFFF; stroke-width:0.0000; stroke-opacity:1; 
stroke-linecap:round; stroke-linejoin:round;">
<circle cx="60.9600" cy="140.8400" r="0.1750" /> 
</g>
<g style="fill:#FFFFFF; fill-opacity:1.0000; 
stroke:#FFFFFF; stroke-width:0.0212; stroke-opacity:1; 
stroke-linecap:round; stroke-linejoin:round;">
</g>
<g style="fill:#FFFFFF; fill-opacity:1.0000; 
stroke:#FFFFFF; stroke-width:0.0000; stroke-opacity:1; 
stroke-linecap:round; stroke-linejoin:round;">
<circle cx="60.9600" cy="152.2400" r="0.1750" /> 
</g>
<g style="fill:#FFFFFF; fill-opacity:1.0000; 
stroke:#FFFFFF; stroke-width:0.0212; stroke-opacity:1; 
stroke-linecap:round; stroke-linejoin:round;">
</g>
<g style="fill:#FFFFFF; fill-opacity:1.0000; 
stroke:#FFFFFF; stroke-width:0.0000; stroke-opacity:1; 
stroke-linecap:round; stroke-linejoin:round;">
<circle cx="60.9600" cy="143.9400" r="0.1750" /> 
</g>
<g style="fill:#FFFFFF; fill-opacity:1.0000; 
stroke:#FFFFFF; stroke-width:0.0212; stroke-opacity:1; 
stroke-linecap:round; stroke-linejoin:round;">
</g>
<g style="fill:#FFFFFF; fill-opacity:1.0000; 
stroke:#FFFFFF; stroke-width:0.0000; stroke-opacity:1; 
stroke-linecap:round; stroke-linejoin:round;">
<circle cx="53.3400" cy="53.3400" r="0.1750" /> 
</g>
<g style="fill:#FFFFFF; fill-opacity:1.0000; 
stroke:#FFFFFF; stroke-width:0.0212; stroke-opacity:1; 
stroke-linecap:round; stroke-linejoin:round;">
</g>
<g style="fill:#FFFFFF; fill-opacity:1.0000; 
stroke:#FFFFFF; stroke-width:0.0000; stroke-opacity:1; 
stroke-linecap:round; stroke-linejoin:round;">
<circle cx="91.4400" cy="53.3400" r="0.1750" /> 
</g>
<g style="fill:#FFFFFF; fill-opacity:1.0000; 
stroke:#FFFFFF; stroke-width:0.0212; stroke-opacity:1; 
stroke-linecap:round; stroke-linejoin:round;">
</g>
<g style="fill:#FFFFFF; fill-opacity:1.0000; 
stroke:#FFFFFF; stroke-width:0.0000; stroke-opacity:1; 
stroke-linecap:round; stroke-linejoin:round;">
<circle cx="91.4400" cy="160.0200" r="0.1750" /> 
</g>
<g style="fill:#FFFFFF; fill-opacity:1.0000; 
stroke:#FFFFFF; stroke-width:0.0212; stroke-opacity:1; 
stroke-linecap:round; stroke-linejoin:round;">
</g>
<g style="fill:#FFFFFF; fill-opacity:1.0000; 
stroke:#FFFFFF; stroke-width:0.0000; stroke-opacity:1; 
stroke-linecap:round; stroke-linejoin:round;">
<circle cx="53.3400" cy="160.0200" r="0.1750" /> 
</g>
<g style="fill:#FFFFFF; fill-opacity:1.0000; 
stroke:#FFFFFF; stroke-width:0.0212; stroke-opacity:1; 
stroke-linecap:round; stroke-linejoin:round;">
</g>
<g style="fill:#FFFFFF; fill-opacity:1.0000; 
stroke:#FFFFFF; stroke-width:0.0000; stroke-opacity:1; 
stroke-linecap:round; stroke-linejoin:round;">
<circle cx="52.8320" cy="64.8970" r="0.1750" /> 
</g>
<g style="fill:#FFFFFF; fill-opacity:1.0000; 
stroke:#FFFFFF; stroke-width:0.0212; stroke-opacity:1; 
stroke-linecap:round; stroke-linejoin:round;">
</g>
<g style="fill:#FFFFFF; fill-opacity:1.0000; 
stroke:#FFFFFF; stroke-width:0.0000; stroke-opacity:1; 
stroke-linecap:round; stroke-linejoin:round;">
<circle cx="52.8320" cy="67.4370" r="0.1750" /> 
</g>
<g style="fill:#FFFFFF; fill-opacity:1.0000; 
stroke:#FFFFFF; stroke-width:0.0212; stroke-opacity:1; 
stroke-linecap:round; stroke-linejoin:round;">
</g>
<g style="fill:#FFFFFF; fill-opacity:1.0000; 
stroke:#FFFFFF; stroke-width:0.0000; stroke-opacity:1; 
stroke-linecap:round; stroke-linejoin:round;">
<circle cx="52.8320" cy="69.9770" r="0.1750" /> 
</g>
<g style="fill:#FFFFFF; fill-opacity:1.0000; 
stroke:#FFFFFF; stroke-width:0.0212; stroke-opacity:1; 
stroke-linecap:round; stroke-linejoin:round;">
</g>
<g style="fill:#FFFFFF; fill-opacity:1.0000; 
stroke:#FFFFFF; stroke-width:0.0000; stroke-opacity:1; 
stroke-linecap:round; stroke-linejoin:round;">
<circle cx="52.8320" cy="72.5170" r="0.1750" /> 
</g>
<g style="fill:#FFFFFF; fill-opacity:1.0000; 
stroke:#FFFFFF; stroke-width:0.0212; stroke-opacity:1; 
stroke-linecap:round; stroke-linejoin:round;">
</g>
<g style="fill:#FFFFFF; fill-opacity:1.0000; 
stroke:#FFFFFF; stroke-width:0.0000; stroke-opacity:1; 
stroke-linecap:round; stroke-linejoin:round;">
<circle cx="52.8320" cy="75.0570" r="0.1750" /> 
</g>
<g style="fill:#FFFFFF; fill-opacity:1.0000; 
stroke:#FFFFFF; stroke-width:0.0212; stroke-opacity:1; 
stroke-linecap:round; stroke-linejoin:round;">
</g>
<g style="fill:#FFFFFF; fill-opacity:1.0000; 
stroke:#FFFFFF; stroke-width:0.0000; stroke-opacity:1; 
stroke-linecap:round; stroke-linejoin:round;">
<circle cx="52.8320" cy="77.5970" r="0.1750" /> 
</g>
<g style="fill:#FFFFFF; fill-opacity:1.0000; 
stroke:#FFFFFF; stroke-width:0.0212; stroke-opacity:1; 
stroke-linecap:round; stroke-linejoin:round;">
</g>
<g style="fill:#FFFFFF; fill-opacity:1.0000; 
stroke:#FFFFFF; stroke-width:0.0000; stroke-opacity:1; 
stroke-linecap:round; stroke-linejoin:round;">
<circle cx="52.8320" cy="80.1370" r="0.1750" /> 
</g>
<g style="fill:#FFFFFF; fill-opacity:1.0000; 
stroke:#FFFFFF; stroke-width:0.0212; stroke-opacity:1; 
stroke-linecap:round; stroke-linejoin:round;">
</g>
<g style="fill:#FFFFFF; fill-opacity:1.0000; 
stroke:#FFFFFF; stroke-width:0.0000; stroke-opacity:1; 
stroke-linecap:round; stroke-linejoin:round;">
<circle cx="52.8320" cy="82.6770" r="0.1750" /> 
</g>
<g style="fill:#FFFFFF; fill-opacity:1.0000; 
stroke:#FFFFFF; stroke-width:0.0212; stroke-opacity:1; 
stroke-linecap:round; stroke-linejoin:round;">
</g>
<g style="fill:#FFFFFF; fill-opacity:1.0000; 
stroke:#FFFFFF; stroke-width:0.0000; stroke-opacity:1; 
stroke-linecap:round; stroke-linejoin:round;">
<circle cx="52.8320" cy="85.2170" r="0.1750" /> 
</g>
<g style="fill:#FFFFFF; fill-opacity:1.0000; 
stroke:#FFFFFF; stroke-width:0.0212; stroke-opacity:1; 
stroke-linecap:round; stroke-linejoin:round;">
</g>
<g style="fill:#FFFFFF; fill-opacity:1.0000; 
stroke:#FFFFFF; stroke-width:0.0000; stroke-opacity:1; 
stroke-linecap:round; stroke-linejoin:round;">
<circle cx="52.8320" cy="87.7570" r="0.1750" /> 
</g>
<g style="fill:#FFFFFF; fill-opacity:1.0000; 
stroke:#FFFFFF; stroke-width:0.0212; stroke-opacity:1; 
stroke-linecap:round; stroke-linejoin:round;">
</g>
<g style="fill:#FFFFFF; fill-opacity:1.0000; 
stroke:#FFFFFF; stroke-width:0.0000; stroke-opacity:1; 
stroke-linecap:round; stroke-linejoin:round;">
<circle cx="52.8320" cy="90.2970" r="0.1750" /> 
</g>
<g style="fill:#FFFFFF; fill-opacity:1.0000; 
stroke:#FFFFFF; stroke-width:0.0212; stroke-opacity:1; 
stroke-linecap:round; stroke-linejoin:round;">
</g>
<g style="fill:#FFFFFF; fill-opacity:1.0000; 
stroke:#FFFFFF; stroke-width:0.0000; stroke-opacity:1; 
stroke-linecap:round; stroke-linejoin:round;">
<circle cx="69.0880" cy="152.4000" r="0.1750" /> 
</g>
<g style="fill:#FFFFFF; fill-opacity:1.0000; 
stroke:#FFFFFF; stroke-width:0.0212; stroke-opacity:1; 
stroke-linecap:round; stroke-linejoin:round;">
</g>
<g style="fill:#FFFFFF; fill-opacity:1.0000; 
stroke:#FFFFFF; stroke-width:0.0000; stroke-opacity:1; 
stroke-linecap:round; stroke-linejoin:round;">
<circle cx="69.0880" cy="142.2400" r="0.1750" /> 
</g>
<g style="fill:#FFFFFF; fill-opacity:1.0000; 
stroke:#FFFFFF; stroke-width:0.0212; stroke-opacity:1; 
stroke-linecap:round; stroke-linejoin:round;">
</g>
<g style="fill:#000000; fill-opacity:1.0000; 
stroke:#000000; stroke-width:0.0212; stroke-opacity:1; 
stroke-linecap:round; stroke-linejoin:round;">
</g> 
</svg>
