<?xml version="1.0" standalone="no"?>
 <!DOCTYPE svg PUBLIC "-//W3C//DTD SVG 1.1//EN" 
 "http://www.w3.org/Graphics/SVG/1.1/DTD/svg11.dtd"> 
<svg
  xmlns:svg="http://www.w3.org/2000/svg"
  xmlns="http://www.w3.org/2000/svg"
  xmlns:xlink="http://www.w3.org/1999/xlink"
  version="1.1"
  width="297.0022mm" height="210.0072mm" viewBox="0.0000 0.0000 297.0022 210.0072">
<title>SVG Image created as mount-B_SilkS.svg date 2023/11/08 17:25:39 </title>
  <desc>Image generated by PCBNEW </desc>
<g style="fill:#000000; fill-opacity:1.0000;stroke:#000000; stroke-opacity:1.0000;
stroke-linecap:round; stroke-linejoin:round;"
 transform="translate(0 0) scale(1 1)">
</g>
<g style="fill:#000000; fill-opacity:0.0; 
stroke:#000000; stroke-width:0.0000; stroke-opacity:1; 
stroke-linecap:round; stroke-linejoin:round;">
</g>
<g style="fill:#000000; fill-opacity:0.0; 
stroke:#000000; stroke-width:0.3000; stroke-opacity:1; 
stroke-linecap:round; stroke-linejoin:round;">
<text x="66.3500" y="159.8340"
transform="scale(-1 1) translate(-132.700000 0)"
textLength="18.0238" font-size="2.6667" lengthAdjust="spacingAndGlyphs"
text-anchor="middle" opacity="0">elektrophon</text>
<g class="stroked-text"><desc>elektrophon</desc>
<path d="M73.8738 159.6909
L74.0732 159.7623
" />
<path d="M74.0732 159.7623
L74.4542 159.7623
" />
<path d="M74.4542 159.7623
L74.6357 159.6909
" />
<path d="M74.6357 159.6909
L74.7131 159.5480
" />
<path d="M74.7131 159.5480
L74.6417 158.9766
" />
<path d="M74.6417 158.9766
L74.5286 158.8338
" />
<path d="M74.5286 158.8338
L74.3292 158.7623
" />
<path d="M74.3292 158.7623
L73.9482 158.7623
" />
<path d="M73.9482 158.7623
L73.7667 158.8338
" />
<path d="M73.7667 158.8338
L73.6893 158.9766
" />
<path d="M73.6893 158.9766
L73.7071 159.1195
" />
<path d="M73.7071 159.1195
L74.6774 159.2623
" />
<path d="M72.6446 159.7623
L72.8262 159.6909
" />
<path d="M72.8262 159.6909
L72.9036 159.5480
" />
<path d="M72.9036 159.5480
L72.7429 158.2623
" />
<path d="M71.1119 159.6909
L71.3113 159.7623
" />
<path d="M71.3113 159.7623
L71.6923 159.7623
" />
<path d="M71.6923 159.7623
L71.8738 159.6909
" />
<path d="M71.8738 159.6909
L71.9512 159.5480
" />
<path d="M71.9512 159.5480
L71.8798 158.9766
" />
<path d="M71.8798 158.9766
L71.7667 158.8338
" />
<path d="M71.7667 158.8338
L71.5673 158.7623
" />
<path d="M71.5673 158.7623
L71.1863 158.7623
" />
<path d="M71.1863 158.7623
L71.0048 158.8338
" />
<path d="M71.0048 158.8338
L70.9274 158.9766
" />
<path d="M70.9274 158.9766
L70.9452 159.1195
" />
<path d="M70.9452 159.1195
L71.9155 159.2623
" />
<path d="M70.1685 159.7623
L69.9810 158.2623
" />
<path d="M69.9065 159.1909
L69.4065 159.7623
" />
<path d="M69.2815 158.7623
L70.1149 159.3338
" />
<path d="M68.7101 158.7623
L67.9482 158.7623
" />
<path d="M68.3619 158.2623
L68.5226 159.5480
" />
<path d="M68.5226 159.5480
L68.4452 159.6909
" />
<path d="M68.4452 159.6909
L68.2637 159.7623
" />
<path d="M68.2637 159.7623
L68.0732 159.7623
" />
<path d="M67.4065 159.7623
L67.2815 158.7623
" />
<path d="M67.3173 159.0480
L67.2042 158.9052
" />
<path d="M67.2042 158.9052
L67.1000 158.8338
" />
<path d="M67.1000 158.8338
L66.9006 158.7623
" />
<path d="M66.9006 158.7623
L66.7101 158.7623
" />
<path d="M65.8827 159.7623
L66.0643 159.6909
" />
<path d="M66.0643 159.6909
L66.1506 159.6195
" />
<path d="M66.1506 159.6195
L66.2280 159.4766
" />
<path d="M66.2280 159.4766
L66.1744 159.0480
" />
<path d="M66.1744 159.0480
L66.0613 158.9052
" />
<path d="M66.0613 158.9052
L65.9571 158.8338
" />
<path d="M65.9571 158.8338
L65.7577 158.7623
" />
<path d="M65.7577 158.7623
L65.4720 158.7623
" />
<path d="M65.4720 158.7623
L65.2905 158.8338
" />
<path d="M65.2905 158.8338
L65.2042 158.9052
" />
<path d="M65.2042 158.9052
L65.1268 159.0480
" />
<path d="M65.1268 159.0480
L65.1804 159.4766
" />
<path d="M65.1804 159.4766
L65.2935 159.6195
" />
<path d="M65.2935 159.6195
L65.3976 159.6909
" />
<path d="M65.3976 159.6909
L65.5970 159.7623
" />
<path d="M65.5970 159.7623
L65.8827 159.7623
" />
<path d="M64.2339 158.7623
L64.4214 160.2623
" />
<path d="M64.2429 158.8338
L64.0435 158.7623
" />
<path d="M64.0435 158.7623
L63.6625 158.7623
" />
<path d="M63.6625 158.7623
L63.4810 158.8338
" />
<path d="M63.4810 158.8338
L63.3946 158.9052
" />
<path d="M63.3946 158.9052
L63.3173 159.0480
" />
<path d="M63.3173 159.0480
L63.3708 159.4766
" />
<path d="M63.3708 159.4766
L63.4839 159.6195
" />
<path d="M63.4839 159.6195
L63.5881 159.6909
" />
<path d="M63.5881 159.6909
L63.7875 159.7623
" />
<path d="M63.7875 159.7623
L64.1685 159.7623
" />
<path d="M64.1685 159.7623
L64.3500 159.6909
" />
<path d="M62.5494 159.7623
L62.3619 158.2623
" />
<path d="M61.6923 159.7623
L61.5940 158.9766
" />
<path d="M61.5940 158.9766
L61.6714 158.8338
" />
<path d="M61.6714 158.8338
L61.8530 158.7623
" />
<path d="M61.8530 158.7623
L62.1387 158.7623
" />
<path d="M62.1387 158.7623
L62.3381 158.8338
" />
<path d="M62.3381 158.8338
L62.4423 158.9052
" />
<path d="M60.4542 159.7623
L60.6357 159.6909
" />
<path d="M60.6357 159.6909
L60.7220 159.6195
" />
<path d="M60.7220 159.6195
L60.7994 159.4766
" />
<path d="M60.7994 159.4766
L60.7458 159.0480
" />
<path d="M60.7458 159.0480
L60.6327 158.9052
" />
<path d="M60.6327 158.9052
L60.5286 158.8338
" />
<path d="M60.5286 158.8338
L60.3292 158.7623
" />
<path d="M60.3292 158.7623
L60.0435 158.7623
" />
<path d="M60.0435 158.7623
L59.8619 158.8338
" />
<path d="M59.8619 158.8338
L59.7756 158.9052
" />
<path d="M59.7756 158.9052
L59.6982 159.0480
" />
<path d="M59.6982 159.0480
L59.7518 159.4766
" />
<path d="M59.7518 159.4766
L59.8649 159.6195
" />
<path d="M59.8649 159.6195
L59.9690 159.6909
" />
<path d="M59.9690 159.6909
L60.1685 159.7623
" />
<path d="M60.1685 159.7623
L60.4542 159.7623
" />
<path d="M58.8054 158.7623
L58.9304 159.7623
" />
<path d="M58.8232 158.9052
L58.7190 158.8338
" />
<path d="M58.7190 158.8338
L58.5196 158.7623
" />
<path d="M58.5196 158.7623
L58.2339 158.7623
" />
<path d="M58.2339 158.7623
L58.0524 158.8338
" />
<path d="M58.0524 158.8338
L57.9750 158.9766
" />
<path d="M57.9750 158.9766
L58.0732 159.7623
" />
</g></g>
<g style="fill:#000000; fill-opacity:0.0; 
stroke:#000000; stroke-width:0.1500; stroke-opacity:1; 
stroke-linecap:round; stroke-linejoin:round;">
<text x="74.9700" y="161.5200"
transform="scale(-1 1) translate(-149.940000 0)"
textLength="3.7738" font-size="1.3333" lengthAdjust="spacingAndGlyphs"
text-anchor="start" opacity="0">echo</text>
<g class="stroked-text"><desc>echo</desc>
<path d="M74.2523 161.4442
L74.3475 161.4823
" />
<path d="M74.3475 161.4823
L74.5380 161.4823
" />
<path d="M74.5380 161.4823
L74.6332 161.4442
" />
<path d="M74.6332 161.4442
L74.6808 161.3680
" />
<path d="M74.6808 161.3680
L74.6808 161.0632
" />
<path d="M74.6808 161.0632
L74.6332 160.9871
" />
<path d="M74.6332 160.9871
L74.5380 160.9490
" />
<path d="M74.5380 160.9490
L74.3475 160.9490
" />
<path d="M74.3475 160.9490
L74.2523 160.9871
" />
<path d="M74.2523 160.9871
L74.2046 161.0632
" />
<path d="M74.2046 161.0632
L74.2046 161.1394
" />
<path d="M74.2046 161.1394
L74.6808 161.2156
" />
<path d="M73.3475 161.4442
L73.4427 161.4823
" />
<path d="M73.4427 161.4823
L73.6332 161.4823
" />
<path d="M73.6332 161.4823
L73.7285 161.4442
" />
<path d="M73.7285 161.4442
L73.7761 161.4061
" />
<path d="M73.7761 161.4061
L73.8237 161.3299
" />
<path d="M73.8237 161.3299
L73.8237 161.1013
" />
<path d="M73.8237 161.1013
L73.7761 161.0252
" />
<path d="M73.7761 161.0252
L73.7285 160.9871
" />
<path d="M73.7285 160.9871
L73.6332 160.9490
" />
<path d="M73.6332 160.9490
L73.4427 160.9490
" />
<path d="M73.4427 160.9490
L73.3475 160.9871
" />
<path d="M72.9189 161.4823
L72.9189 160.6823
" />
<path d="M72.4904 161.4823
L72.4904 161.0632
" />
<path d="M72.4904 161.0632
L72.5380 160.9871
" />
<path d="M72.5380 160.9871
L72.6332 160.9490
" />
<path d="M72.6332 160.9490
L72.7761 160.9490
" />
<path d="M72.7761 160.9490
L72.8713 160.9871
" />
<path d="M72.8713 160.9871
L72.9189 161.0252
" />
<path d="M71.8713 161.4823
L71.9666 161.4442
" />
<path d="M71.9666 161.4442
L72.0142 161.4061
" />
<path d="M72.0142 161.4061
L72.0618 161.3299
" />
<path d="M72.0618 161.3299
L72.0618 161.1013
" />
<path d="M72.0618 161.1013
L72.0142 161.0252
" />
<path d="M72.0142 161.0252
L71.9666 160.9871
" />
<path d="M71.9666 160.9871
L71.8713 160.9490
" />
<path d="M71.8713 160.9490
L71.7285 160.9490
" />
<path d="M71.7285 160.9490
L71.6332 160.9871
" />
<path d="M71.6332 160.9871
L71.5856 161.0252
" />
<path d="M71.5856 161.0252
L71.5380 161.1013
" />
<path d="M71.5380 161.1013
L71.5380 161.3299
" />
<path d="M71.5380 161.3299
L71.5856 161.4061
" />
<path d="M71.5856 161.4061
L71.6332 161.4442
" />
<path d="M71.6332 161.4442
L71.7285 161.4823
" />
<path d="M71.7285 161.4823
L71.8713 161.4823
" />
</g><text x="57.6700" y="161.4900"
transform="scale(-1 1) translate(-115.340000 0)"
textLength="3.1548" font-size="1.3333" lengthAdjust="spacingAndGlyphs"
text-anchor="end" opacity="0">R01</text>
<g class="stroked-text"><desc>R01</desc>
<path d="M59.8639 161.4523
L60.1973 161.0713
" />
<path d="M60.4353 161.4523
L60.4353 160.6523
" />
<path d="M60.4353 160.6523
L60.0544 160.6523
" />
<path d="M60.0544 160.6523
L59.9592 160.6904
" />
<path d="M59.9592 160.6904
L59.9115 160.7285
" />
<path d="M59.9115 160.7285
L59.8639 160.8047
" />
<path d="M59.8639 160.8047
L59.8639 160.9190
" />
<path d="M59.8639 160.9190
L59.9115 160.9952
" />
<path d="M59.9115 160.9952
L59.9592 161.0332
" />
<path d="M59.9592 161.0332
L60.0544 161.0713
" />
<path d="M60.0544 161.0713
L60.4353 161.0713
" />
<path d="M59.2449 160.6523
L59.1496 160.6523
" />
<path d="M59.1496 160.6523
L59.0544 160.6904
" />
<path d="M59.0544 160.6904
L59.0068 160.7285
" />
<path d="M59.0068 160.7285
L58.9592 160.8047
" />
<path d="M58.9592 160.8047
L58.9115 160.9571
" />
<path d="M58.9115 160.9571
L58.9115 161.1475
" />
<path d="M58.9115 161.1475
L58.9592 161.2999
" />
<path d="M58.9592 161.2999
L59.0068 161.3761
" />
<path d="M59.0068 161.3761
L59.0544 161.4142
" />
<path d="M59.0544 161.4142
L59.1496 161.4523
" />
<path d="M59.1496 161.4523
L59.2449 161.4523
" />
<path d="M59.2449 161.4523
L59.3401 161.4142
" />
<path d="M59.3401 161.4142
L59.3877 161.3761
" />
<path d="M59.3877 161.3761
L59.4353 161.2999
" />
<path d="M59.4353 161.2999
L59.4830 161.1475
" />
<path d="M59.4830 161.1475
L59.4830 160.9571
" />
<path d="M59.4830 160.9571
L59.4353 160.8047
" />
<path d="M59.4353 160.8047
L59.3877 160.7285
" />
<path d="M59.3877 160.7285
L59.3401 160.6904
" />
<path d="M59.3401 160.6904
L59.2449 160.6523
" />
<path d="M57.9592 161.4523
L58.5306 161.4523
" />
<path d="M58.2449 161.4523
L58.2449 160.6523
" />
<path d="M58.2449 160.6523
L58.3401 160.7666
" />
<path d="M58.3401 160.7666
L58.4353 160.8428
" />
<path d="M58.4353 160.8428
L58.5306 160.8809
" />
</g><g >
</g>
<g >
</g>
<g >
</g>
<g >
</g>
<g >
</g>
<g >
</g>
<g >
</g>
<g >
</g>
<g >
</g>
<g >
</g>
<g >
</g>
<g >
</g>
<g >
</g>
<g >
</g>
<g >
</g>
<g >
</g>
<g >
</g>
<g >
</g>
<g >
</g>
<g >
</g>
<g >
</g>
<g >
</g>
<g >
</g>
</g>
<g style="fill:#FFFFFF; fill-opacity:0.0; 
stroke:#FFFFFF; stroke-width:0.1500; stroke-opacity:1; 
stroke-linecap:round; stroke-linejoin:round;">
</g>
<g style="fill:#FFFFFF; fill-opacity:1.0000; 
stroke:#FFFFFF; stroke-width:0.0000; stroke-opacity:1; 
stroke-linecap:round; stroke-linejoin:round;">
<circle cx="52.8320" cy="93.9800" r="0.1750" /> 
</g>
<g style="fill:#FFFFFF; fill-opacity:1.0000; 
stroke:#FFFFFF; stroke-width:0.0212; stroke-opacity:1; 
stroke-linecap:round; stroke-linejoin:round;">
</g>
<g style="fill:#FFFFFF; fill-opacity:1.0000; 
stroke:#FFFFFF; stroke-width:0.0000; stroke-opacity:1; 
stroke-linecap:round; stroke-linejoin:round;">
<circle cx="52.8320" cy="104.1400" r="0.1750" /> 
</g>
<g style="fill:#FFFFFF; fill-opacity:1.0000; 
stroke:#FFFFFF; stroke-width:0.0212; stroke-opacity:1; 
stroke-linecap:round; stroke-linejoin:round;">
</g>
<g style="fill:#FFFFFF; fill-opacity:1.0000; 
stroke:#FFFFFF; stroke-width:0.0000; stroke-opacity:1; 
stroke-linecap:round; stroke-linejoin:round;">
<circle cx="52.8320" cy="107.1880" r="0.1750" /> 
</g>
<g style="fill:#FFFFFF; fill-opacity:1.0000; 
stroke:#FFFFFF; stroke-width:0.0212; stroke-opacity:1; 
stroke-linecap:round; stroke-linejoin:round;">
</g>
<g style="fill:#FFFFFF; fill-opacity:1.0000; 
stroke:#FFFFFF; stroke-width:0.0000; stroke-opacity:1; 
stroke-linecap:round; stroke-linejoin:round;">
<circle cx="52.8320" cy="117.3480" r="0.1750" /> 
</g>
<g style="fill:#FFFFFF; fill-opacity:1.0000; 
stroke:#FFFFFF; stroke-width:0.0212; stroke-opacity:1; 
stroke-linecap:round; stroke-linejoin:round;">
</g>
<g style="fill:#FFFFFF; fill-opacity:1.0000; 
stroke:#FFFFFF; stroke-width:0.0000; stroke-opacity:1; 
stroke-linecap:round; stroke-linejoin:round;">
<circle cx="71.1200" cy="98.0440" r="0.1750" /> 
</g>
<g style="fill:#FFFFFF; fill-opacity:1.0000; 
stroke:#FFFFFF; stroke-width:0.0212; stroke-opacity:1; 
stroke-linecap:round; stroke-linejoin:round;">
</g>
<g style="fill:#FFFFFF; fill-opacity:1.0000; 
stroke:#FFFFFF; stroke-width:0.0000; stroke-opacity:1; 
stroke-linecap:round; stroke-linejoin:round;">
<circle cx="81.2800" cy="98.0440" r="0.1750" /> 
</g>
<g style="fill:#FFFFFF; fill-opacity:1.0000; 
stroke:#FFFFFF; stroke-width:0.0212; stroke-opacity:1; 
stroke-linecap:round; stroke-linejoin:round;">
</g>
<g style="fill:#FFFFFF; fill-opacity:1.0000; 
stroke:#FFFFFF; stroke-width:1.1000; stroke-opacity:1; 
stroke-linecap:round; stroke-linejoin:round;">
</g>
<g style="fill:#FFFFFF; fill-opacity:0.0; 
stroke:#FFFFFF; stroke-width:1.1000; stroke-opacity:1; 
stroke-linecap:round; stroke-linejoin:round;">
<path d="M56.1200 107.0300
L56.1200 106.3300
" />
<path d="M65.7200 107.0300
L65.7200 106.3300
" />
</g>
<g style="fill:#FFFFFF; fill-opacity:1.0000; 
stroke:#FFFFFF; stroke-width:0.0000; stroke-opacity:1; 
stroke-linecap:round; stroke-linejoin:round;">
<circle cx="58.4200" cy="114.1800" r="0.1750" /> 
</g>
<g style="fill:#FFFFFF; fill-opacity:1.0000; 
stroke:#FFFFFF; stroke-width:0.0212; stroke-opacity:1; 
stroke-linecap:round; stroke-linejoin:round;">
</g>
<g style="fill:#FFFFFF; fill-opacity:1.0000; 
stroke:#FFFFFF; stroke-width:0.0000; stroke-opacity:1; 
stroke-linecap:round; stroke-linejoin:round;">
<circle cx="60.9200" cy="114.1800" r="0.1750" /> 
</g>
<g style="fill:#FFFFFF; fill-opacity:1.0000; 
stroke:#FFFFFF; stroke-width:0.0212; stroke-opacity:1; 
stroke-linecap:round; stroke-linejoin:round;">
</g>
<g style="fill:#FFFFFF; fill-opacity:1.0000; 
stroke:#FFFFFF; stroke-width:0.0000; stroke-opacity:1; 
stroke-linecap:round; stroke-linejoin:round;">
<circle cx="63.4200" cy="114.1800" r="0.1750" /> 
</g>
<g style="fill:#FFFFFF; fill-opacity:1.0000; 
stroke:#FFFFFF; stroke-width:0.0212; stroke-opacity:1; 
stroke-linecap:round; stroke-linejoin:round;">
</g>
<g style="fill:#FFFFFF; fill-opacity:1.0000; 
stroke:#FFFFFF; stroke-width:1.1000; stroke-opacity:1; 
stroke-linecap:round; stroke-linejoin:round;">
</g>
<g style="fill:#FFFFFF; fill-opacity:0.0; 
stroke:#FFFFFF; stroke-width:1.1000; stroke-opacity:1; 
stroke-linecap:round; stroke-linejoin:round;">
<path d="M76.4400 86.7100
L76.4400 86.0100
" />
<path d="M86.0400 86.7100
L86.0400 86.0100
" />
</g>
<g style="fill:#FFFFFF; fill-opacity:1.0000; 
stroke:#FFFFFF; stroke-width:0.0000; stroke-opacity:1; 
stroke-linecap:round; stroke-linejoin:round;">
<circle cx="78.7400" cy="93.8600" r="0.1750" /> 
</g>
<g style="fill:#FFFFFF; fill-opacity:1.0000; 
stroke:#FFFFFF; stroke-width:0.0212; stroke-opacity:1; 
stroke-linecap:round; stroke-linejoin:round;">
</g>
<g style="fill:#FFFFFF; fill-opacity:1.0000; 
stroke:#FFFFFF; stroke-width:0.0000; stroke-opacity:1; 
stroke-linecap:round; stroke-linejoin:round;">
<circle cx="81.2400" cy="93.8600" r="0.1750" /> 
</g>
<g style="fill:#FFFFFF; fill-opacity:1.0000; 
stroke:#FFFFFF; stroke-width:0.0212; stroke-opacity:1; 
stroke-linecap:round; stroke-linejoin:round;">
</g>
<g style="fill:#FFFFFF; fill-opacity:1.0000; 
stroke:#FFFFFF; stroke-width:0.0000; stroke-opacity:1; 
stroke-linecap:round; stroke-linejoin:round;">
<circle cx="83.7400" cy="93.8600" r="0.1750" /> 
</g>
<g style="fill:#FFFFFF; fill-opacity:1.0000; 
stroke:#FFFFFF; stroke-width:0.0212; stroke-opacity:1; 
stroke-linecap:round; stroke-linejoin:round;">
</g>
<g style="fill:#FFFFFF; fill-opacity:1.0000; 
stroke:#FFFFFF; stroke-width:1.1000; stroke-opacity:1; 
stroke-linecap:round; stroke-linejoin:round;">
</g>
<g style="fill:#FFFFFF; fill-opacity:0.0; 
stroke:#FFFFFF; stroke-width:1.1000; stroke-opacity:1; 
stroke-linecap:round; stroke-linejoin:round;">
<path d="M76.4400 107.0300
L76.4400 106.3300
" />
<path d="M86.0400 107.0300
L86.0400 106.3300
" />
</g>
<g style="fill:#FFFFFF; fill-opacity:1.0000; 
stroke:#FFFFFF; stroke-width:0.0000; stroke-opacity:1; 
stroke-linecap:round; stroke-linejoin:round;">
<circle cx="78.7400" cy="114.1800" r="0.1750" /> 
</g>
<g style="fill:#FFFFFF; fill-opacity:1.0000; 
stroke:#FFFFFF; stroke-width:0.0212; stroke-opacity:1; 
stroke-linecap:round; stroke-linejoin:round;">
</g>
<g style="fill:#FFFFFF; fill-opacity:1.0000; 
stroke:#FFFFFF; stroke-width:0.0000; stroke-opacity:1; 
stroke-linecap:round; stroke-linejoin:round;">
<circle cx="81.2400" cy="114.1800" r="0.1750" /> 
</g>
<g style="fill:#FFFFFF; fill-opacity:1.0000; 
stroke:#FFFFFF; stroke-width:0.0212; stroke-opacity:1; 
stroke-linecap:round; stroke-linejoin:round;">
</g>
<g style="fill:#FFFFFF; fill-opacity:1.0000; 
stroke:#FFFFFF; stroke-width:0.0000; stroke-opacity:1; 
stroke-linecap:round; stroke-linejoin:round;">
<circle cx="83.7400" cy="114.1800" r="0.1750" /> 
</g>
<g style="fill:#FFFFFF; fill-opacity:1.0000; 
stroke:#FFFFFF; stroke-width:0.0212; stroke-opacity:1; 
stroke-linecap:round; stroke-linejoin:round;">
</g>
<g style="fill:#FFFFFF; fill-opacity:1.0000; 
stroke:#FFFFFF; stroke-width:1.1000; stroke-opacity:1; 
stroke-linecap:round; stroke-linejoin:round;">
</g>
<g style="fill:#FFFFFF; fill-opacity:0.0; 
stroke:#FFFFFF; stroke-width:1.1000; stroke-opacity:1; 
stroke-linecap:round; stroke-linejoin:round;">
<path d="M76.4400 66.3900
L76.4400 65.6900
" />
<path d="M86.0400 66.3900
L86.0400 65.6900
" />
</g>
<g style="fill:#FFFFFF; fill-opacity:1.0000; 
stroke:#FFFFFF; stroke-width:0.0000; stroke-opacity:1; 
stroke-linecap:round; stroke-linejoin:round;">
<circle cx="78.7400" cy="73.5400" r="0.1750" /> 
</g>
<g style="fill:#FFFFFF; fill-opacity:1.0000; 
stroke:#FFFFFF; stroke-width:0.0212; stroke-opacity:1; 
stroke-linecap:round; stroke-linejoin:round;">
</g>
<g style="fill:#FFFFFF; fill-opacity:1.0000; 
stroke:#FFFFFF; stroke-width:0.0000; stroke-opacity:1; 
stroke-linecap:round; stroke-linejoin:round;">
<circle cx="81.2400" cy="73.5400" r="0.1750" /> 
</g>
<g style="fill:#FFFFFF; fill-opacity:1.0000; 
stroke:#FFFFFF; stroke-width:0.0212; stroke-opacity:1; 
stroke-linecap:round; stroke-linejoin:round;">
</g>
<g style="fill:#FFFFFF; fill-opacity:1.0000; 
stroke:#FFFFFF; stroke-width:0.0000; stroke-opacity:1; 
stroke-linecap:round; stroke-linejoin:round;">
<circle cx="83.7400" cy="73.5400" r="0.1750" /> 
</g>
<g style="fill:#FFFFFF; fill-opacity:1.0000; 
stroke:#FFFFFF; stroke-width:0.0212; stroke-opacity:1; 
stroke-linecap:round; stroke-linejoin:round;">
</g>
<g style="fill:#FFFFFF; fill-opacity:1.0000; 
stroke:#FFFFFF; stroke-width:0.0000; stroke-opacity:1; 
stroke-linecap:round; stroke-linejoin:round;">
<circle cx="60.9600" cy="120.5200" r="0.1750" /> 
</g>
<g style="fill:#FFFFFF; fill-opacity:1.0000; 
stroke:#FFFFFF; stroke-width:0.0212; stroke-opacity:1; 
stroke-linecap:round; stroke-linejoin:round;">
</g>
<g style="fill:#FFFFFF; fill-opacity:1.0000; 
stroke:#FFFFFF; stroke-width:0.0000; stroke-opacity:1; 
stroke-linecap:round; stroke-linejoin:round;">
<circle cx="60.9600" cy="131.9200" r="0.1750" /> 
</g>
<g style="fill:#FFFFFF; fill-opacity:1.0000; 
stroke:#FFFFFF; stroke-width:0.0212; stroke-opacity:1; 
stroke-linecap:round; stroke-linejoin:round;">
</g>
<g style="fill:#FFFFFF; fill-opacity:1.0000; 
stroke:#FFFFFF; stroke-width:0.0000; stroke-opacity:1; 
stroke-linecap:round; stroke-linejoin:round;">
<circle cx="60.9600" cy="123.6200" r="0.1750" /> 
</g>
<g style="fill:#FFFFFF; fill-opacity:1.0000; 
stroke:#FFFFFF; stroke-width:0.0212; stroke-opacity:1; 
stroke-linecap:round; stroke-linejoin:round;">
</g>
<g style="fill:#FFFFFF; fill-opacity:1.0000; 
stroke:#FFFFFF; stroke-width:0.0000; stroke-opacity:1; 
stroke-linecap:round; stroke-linejoin:round;">
<circle cx="81.2800" cy="120.5200" r="0.1750" /> 
</g>
<g style="fill:#FFFFFF; fill-opacity:1.0000; 
stroke:#FFFFFF; stroke-width:0.0212; stroke-opacity:1; 
stroke-linecap:round; stroke-linejoin:round;">
</g>
<g style="fill:#FFFFFF; fill-opacity:1.0000; 
stroke:#FFFFFF; stroke-width:0.0000; stroke-opacity:1; 
stroke-linecap:round; stroke-linejoin:round;">
<circle cx="81.2800" cy="131.9200" r="0.1750" /> 
</g>
<g style="fill:#FFFFFF; fill-opacity:1.0000; 
stroke:#FFFFFF; stroke-width:0.0212; stroke-opacity:1; 
stroke-linecap:round; stroke-linejoin:round;">
</g>
<g style="fill:#FFFFFF; fill-opacity:1.0000; 
stroke:#FFFFFF; stroke-width:0.0000; stroke-opacity:1; 
stroke-linecap:round; stroke-linejoin:round;">
<circle cx="81.2800" cy="123.6200" r="0.1750" /> 
</g>
<g style="fill:#FFFFFF; fill-opacity:1.0000; 
stroke:#FFFFFF; stroke-width:0.0212; stroke-opacity:1; 
stroke-linecap:round; stroke-linejoin:round;">
</g>
<g style="fill:#FFFFFF; fill-opacity:1.0000; 
stroke:#FFFFFF; stroke-width:0.0000; stroke-opacity:1; 
stroke-linecap:round; stroke-linejoin:round;">
<circle cx="60.9600" cy="92.8400" r="0.1750" /> 
</g>
<g style="fill:#FFFFFF; fill-opacity:1.0000; 
stroke:#FFFFFF; stroke-width:0.0212; stroke-opacity:1; 
stroke-linecap:round; stroke-linejoin:round;">
</g>
<g style="fill:#FFFFFF; fill-opacity:1.0000; 
stroke:#FFFFFF; stroke-width:0.0000; stroke-opacity:1; 
stroke-linecap:round; stroke-linejoin:round;">
<circle cx="60.9600" cy="81.4400" r="0.1750" /> 
</g>
<g style="fill:#FFFFFF; fill-opacity:1.0000; 
stroke:#FFFFFF; stroke-width:0.0212; stroke-opacity:1; 
stroke-linecap:round; stroke-linejoin:round;">
</g>
<g style="fill:#FFFFFF; fill-opacity:1.0000; 
stroke:#FFFFFF; stroke-width:0.0000; stroke-opacity:1; 
stroke-linecap:round; stroke-linejoin:round;">
<circle cx="60.9600" cy="89.7400" r="0.1750" /> 
</g>
<g style="fill:#FFFFFF; fill-opacity:1.0000; 
stroke:#FFFFFF; stroke-width:0.0212; stroke-opacity:1; 
stroke-linecap:round; stroke-linejoin:round;">
</g>
<g style="fill:#FFFFFF; fill-opacity:1.0000; 
stroke:#FFFFFF; stroke-width:0.0000; stroke-opacity:1; 
stroke-linecap:round; stroke-linejoin:round;">
<circle cx="60.9600" cy="59.5600" r="0.1750" /> 
</g>
<g style="fill:#FFFFFF; fill-opacity:1.0000; 
stroke:#FFFFFF; stroke-width:0.0212; stroke-opacity:1; 
stroke-linecap:round; stroke-linejoin:round;">
</g>
<g style="fill:#FFFFFF; fill-opacity:1.0000; 
stroke:#FFFFFF; stroke-width:0.0000; stroke-opacity:1; 
stroke-linecap:round; stroke-linejoin:round;">
<circle cx="60.9600" cy="70.9600" r="0.1750" /> 
</g>
<g style="fill:#FFFFFF; fill-opacity:1.0000; 
stroke:#FFFFFF; stroke-width:0.0212; stroke-opacity:1; 
stroke-linecap:round; stroke-linejoin:round;">
</g>
<g style="fill:#FFFFFF; fill-opacity:1.0000; 
stroke:#FFFFFF; stroke-width:0.0000; stroke-opacity:1; 
stroke-linecap:round; stroke-linejoin:round;">
<circle cx="60.9600" cy="62.6600" r="0.1750" /> 
</g>
<g style="fill:#FFFFFF; fill-opacity:1.0000; 
stroke:#FFFFFF; stroke-width:0.0212; stroke-opacity:1; 
stroke-linecap:round; stroke-linejoin:round;">
</g>
<g style="fill:#FFFFFF; fill-opacity:1.0000; 
stroke:#FFFFFF; stroke-width:0.0000; stroke-opacity:1; 
stroke-linecap:round; stroke-linejoin:round;">
<circle cx="81.2800" cy="140.8400" r="0.1750" /> 
</g>
<g style="fill:#FFFFFF; fill-opacity:1.0000; 
stroke:#FFFFFF; stroke-width:0.0212; stroke-opacity:1; 
stroke-linecap:round; stroke-linejoin:round;">
</g>
<g style="fill:#FFFFFF; fill-opacity:1.0000; 
stroke:#FFFFFF; stroke-width:0.0000; stroke-opacity:1; 
stroke-linecap:round; stroke-linejoin:round;">
<circle cx="81.2800" cy="152.2400" r="0.1750" /> 
</g>
<g style="fill:#FFFFFF; fill-opacity:1.0000; 
stroke:#FFFFFF; stroke-width:0.0212; stroke-opacity:1; 
stroke-linecap:round; stroke-linejoin:round;">
</g>
<g style="fill:#FFFFFF; fill-opacity:1.0000; 
stroke:#FFFFFF; stroke-width:0.0000; stroke-opacity:1; 
stroke-linecap:round; stroke-linejoin:round;">
<circle cx="81.2800" cy="143.9400" r="0.1750" /> 
</g>
<g style="fill:#FFFFFF; fill-opacity:1.0000; 
stroke:#FFFFFF; stroke-width:0.0212; stroke-opacity:1; 
stroke-linecap:round; stroke-linejoin:round;">
</g>
<g style="fill:#FFFFFF; fill-opacity:1.0000; 
stroke:#FFFFFF; stroke-width:0.0000; stroke-opacity:1; 
stroke-linecap:round; stroke-linejoin:round;">
<circle cx="60.9600" cy="140.8400" r="0.1750" /> 
</g>
<g style="fill:#FFFFFF; fill-opacity:1.0000; 
stroke:#FFFFFF; stroke-width:0.0212; stroke-opacity:1; 
stroke-linecap:round; stroke-linejoin:round;">
</g>
<g style="fill:#FFFFFF; fill-opacity:1.0000; 
stroke:#FFFFFF; stroke-width:0.0000; stroke-opacity:1; 
stroke-linecap:round; stroke-linejoin:round;">
<circle cx="60.9600" cy="152.2400" r="0.1750" /> 
</g>
<g style="fill:#FFFFFF; fill-opacity:1.0000; 
stroke:#FFFFFF; stroke-width:0.0212; stroke-opacity:1; 
stroke-linecap:round; stroke-linejoin:round;">
</g>
<g style="fill:#FFFFFF; fill-opacity:1.0000; 
stroke:#FFFFFF; stroke-width:0.0000; stroke-opacity:1; 
stroke-linecap:round; stroke-linejoin:round;">
<circle cx="60.9600" cy="143.9400" r="0.1750" /> 
</g>
<g style="fill:#FFFFFF; fill-opacity:1.0000; 
stroke:#FFFFFF; stroke-width:0.0212; stroke-opacity:1; 
stroke-linecap:round; stroke-linejoin:round;">
</g>
<g style="fill:#FFFFFF; fill-opacity:1.0000; 
stroke:#FFFFFF; stroke-width:0.0000; stroke-opacity:1; 
stroke-linecap:round; stroke-linejoin:round;">
<circle cx="53.3400" cy="53.3400" r="0.1750" /> 
</g>
<g style="fill:#FFFFFF; fill-opacity:1.0000; 
stroke:#FFFFFF; stroke-width:0.0212; stroke-opacity:1; 
stroke-linecap:round; stroke-linejoin:round;">
</g>
<g style="fill:#FFFFFF; fill-opacity:1.0000; 
stroke:#FFFFFF; stroke-width:0.0000; stroke-opacity:1; 
stroke-linecap:round; stroke-linejoin:round;">
<circle cx="91.4400" cy="53.3400" r="0.1750" /> 
</g>
<g style="fill:#FFFFFF; fill-opacity:1.0000; 
stroke:#FFFFFF; stroke-width:0.0212; stroke-opacity:1; 
stroke-linecap:round; stroke-linejoin:round;">
</g>
<g style="fill:#FFFFFF; fill-opacity:1.0000; 
stroke:#FFFFFF; stroke-width:0.0000; stroke-opacity:1; 
stroke-linecap:round; stroke-linejoin:round;">
<circle cx="91.4400" cy="160.0200" r="0.1750" /> 
</g>
<g style="fill:#FFFFFF; fill-opacity:1.0000; 
stroke:#FFFFFF; stroke-width:0.0212; stroke-opacity:1; 
stroke-linecap:round; stroke-linejoin:round;">
</g>
<g style="fill:#FFFFFF; fill-opacity:1.0000; 
stroke:#FFFFFF; stroke-width:0.0000; stroke-opacity:1; 
stroke-linecap:round; stroke-linejoin:round;">
<circle cx="53.3400" cy="160.0200" r="0.1750" /> 
</g>
<g style="fill:#FFFFFF; fill-opacity:1.0000; 
stroke:#FFFFFF; stroke-width:0.0212; stroke-opacity:1; 
stroke-linecap:round; stroke-linejoin:round;">
</g>
<g style="fill:#FFFFFF; fill-opacity:1.0000; 
stroke:#FFFFFF; stroke-width:0.0000; stroke-opacity:1; 
stroke-linecap:round; stroke-linejoin:round;">
<circle cx="52.8320" cy="64.8970" r="0.1750" /> 
</g>
<g style="fill:#FFFFFF; fill-opacity:1.0000; 
stroke:#FFFFFF; stroke-width:0.0212; stroke-opacity:1; 
stroke-linecap:round; stroke-linejoin:round;">
</g>
<g style="fill:#FFFFFF; fill-opacity:1.0000; 
stroke:#FFFFFF; stroke-width:0.0000; stroke-opacity:1; 
stroke-linecap:round; stroke-linejoin:round;">
<circle cx="52.8320" cy="67.4370" r="0.1750" /> 
</g>
<g style="fill:#FFFFFF; fill-opacity:1.0000; 
stroke:#FFFFFF; stroke-width:0.0212; stroke-opacity:1; 
stroke-linecap:round; stroke-linejoin:round;">
</g>
<g style="fill:#FFFFFF; fill-opacity:1.0000; 
stroke:#FFFFFF; stroke-width:0.0000; stroke-opacity:1; 
stroke-linecap:round; stroke-linejoin:round;">
<circle cx="52.8320" cy="69.9770" r="0.1750" /> 
</g>
<g style="fill:#FFFFFF; fill-opacity:1.0000; 
stroke:#FFFFFF; stroke-width:0.0212; stroke-opacity:1; 
stroke-linecap:round; stroke-linejoin:round;">
</g>
<g style="fill:#FFFFFF; fill-opacity:1.0000; 
stroke:#FFFFFF; stroke-width:0.0000; stroke-opacity:1; 
stroke-linecap:round; stroke-linejoin:round;">
<circle cx="52.8320" cy="72.5170" r="0.1750" /> 
</g>
<g style="fill:#FFFFFF; fill-opacity:1.0000; 
stroke:#FFFFFF; stroke-width:0.0212; stroke-opacity:1; 
stroke-linecap:round; stroke-linejoin:round;">
</g>
<g style="fill:#FFFFFF; fill-opacity:1.0000; 
stroke:#FFFFFF; stroke-width:0.0000; stroke-opacity:1; 
stroke-linecap:round; stroke-linejoin:round;">
<circle cx="52.8320" cy="75.0570" r="0.1750" /> 
</g>
<g style="fill:#FFFFFF; fill-opacity:1.0000; 
stroke:#FFFFFF; stroke-width:0.0212; stroke-opacity:1; 
stroke-linecap:round; stroke-linejoin:round;">
</g>
<g style="fill:#FFFFFF; fill-opacity:1.0000; 
stroke:#FFFFFF; stroke-width:0.0000; stroke-opacity:1; 
stroke-linecap:round; stroke-linejoin:round;">
<circle cx="52.8320" cy="77.5970" r="0.1750" /> 
</g>
<g style="fill:#FFFFFF; fill-opacity:1.0000; 
stroke:#FFFFFF; stroke-width:0.0212; stroke-opacity:1; 
stroke-linecap:round; stroke-linejoin:round;">
</g>
<g style="fill:#FFFFFF; fill-opacity:1.0000; 
stroke:#FFFFFF; stroke-width:0.0000; stroke-opacity:1; 
stroke-linecap:round; stroke-linejoin:round;">
<circle cx="52.8320" cy="80.1370" r="0.1750" /> 
</g>
<g style="fill:#FFFFFF; fill-opacity:1.0000; 
stroke:#FFFFFF; stroke-width:0.0212; stroke-opacity:1; 
stroke-linecap:round; stroke-linejoin:round;">
</g>
<g style="fill:#FFFFFF; fill-opacity:1.0000; 
stroke:#FFFFFF; stroke-width:0.0000; stroke-opacity:1; 
stroke-linecap:round; stroke-linejoin:round;">
<circle cx="52.8320" cy="82.6770" r="0.1750" /> 
</g>
<g style="fill:#FFFFFF; fill-opacity:1.0000; 
stroke:#FFFFFF; stroke-width:0.0212; stroke-opacity:1; 
stroke-linecap:round; stroke-linejoin:round;">
</g>
<g style="fill:#FFFFFF; fill-opacity:1.0000; 
stroke:#FFFFFF; stroke-width:0.0000; stroke-opacity:1; 
stroke-linecap:round; stroke-linejoin:round;">
<circle cx="52.8320" cy="85.2170" r="0.1750" /> 
</g>
<g style="fill:#FFFFFF; fill-opacity:1.0000; 
stroke:#FFFFFF; stroke-width:0.0212; stroke-opacity:1; 
stroke-linecap:round; stroke-linejoin:round;">
</g>
<g style="fill:#FFFFFF; fill-opacity:1.0000; 
stroke:#FFFFFF; stroke-width:0.0000; stroke-opacity:1; 
stroke-linecap:round; stroke-linejoin:round;">
<circle cx="52.8320" cy="87.7570" r="0.1750" /> 
</g>
<g style="fill:#FFFFFF; fill-opacity:1.0000; 
stroke:#FFFFFF; stroke-width:0.0212; stroke-opacity:1; 
stroke-linecap:round; stroke-linejoin:round;">
</g>
<g style="fill:#FFFFFF; fill-opacity:1.0000; 
stroke:#FFFFFF; stroke-width:0.0000; stroke-opacity:1; 
stroke-linecap:round; stroke-linejoin:round;">
<circle cx="52.8320" cy="90.2970" r="0.1750" /> 
</g>
<g style="fill:#FFFFFF; fill-opacity:1.0000; 
stroke:#FFFFFF; stroke-width:0.0212; stroke-opacity:1; 
stroke-linecap:round; stroke-linejoin:round;">
</g>
<g style="fill:#FFFFFF; fill-opacity:1.0000; 
stroke:#FFFFFF; stroke-width:0.0000; stroke-opacity:1; 
stroke-linecap:round; stroke-linejoin:round;">
<circle cx="69.0880" cy="152.4000" r="0.1750" /> 
</g>
<g style="fill:#FFFFFF; fill-opacity:1.0000; 
stroke:#FFFFFF; stroke-width:0.0212; stroke-opacity:1; 
stroke-linecap:round; stroke-linejoin:round;">
</g>
<g style="fill:#FFFFFF; fill-opacity:1.0000; 
stroke:#FFFFFF; stroke-width:0.0000; stroke-opacity:1; 
stroke-linecap:round; stroke-linejoin:round;">
<circle cx="69.0880" cy="142.2400" r="0.1750" /> 
</g>
<g style="fill:#FFFFFF; fill-opacity:1.0000; 
stroke:#FFFFFF; stroke-width:0.0212; stroke-opacity:1; 
stroke-linecap:round; stroke-linejoin:round;">
</g>
<g style="fill:#000000; fill-opacity:1.0000; 
stroke:#000000; stroke-width:0.0212; stroke-opacity:1; 
stroke-linecap:round; stroke-linejoin:round;">
</g> 
</svg>
