<?xml version="1.0" encoding="utf-8" standalone="no"?>
<!DOCTYPE svg PUBLIC "-//W3C//DTD SVG 1.1//EN"
  "http://www.w3.org/Graphics/SVG/1.1/DTD/svg11.dtd">
<!-- Created with matplotlib (https://matplotlib.org/) -->
<svg height="429.030975pt" version="1.1" viewBox="0 0 1286.551603 429.030975" width="1286.551603pt" xmlns="http://www.w3.org/2000/svg" xmlns:xlink="http://www.w3.org/1999/xlink">
 <metadata>
  <rdf:RDF xmlns:cc="http://creativecommons.org/ns#" xmlns:dc="http://purl.org/dc/elements/1.1/" xmlns:rdf="http://www.w3.org/1999/02/22-rdf-syntax-ns#">
   <cc:Work>
    <dc:type rdf:resource="http://purl.org/dc/dcmitype/StillImage"/>
    <dc:date>2020-09-04T19:17:48.874814</dc:date>
    <dc:format>image/svg+xml</dc:format>
    <dc:creator>
     <cc:Agent>
      <dc:title>Matplotlib v3.3.0, https://matplotlib.org/</dc:title>
     </cc:Agent>
    </dc:creator>
   </cc:Work>
  </rdf:RDF>
 </metadata>
 <defs>
  <style type="text/css">*{stroke-linecap:butt;stroke-linejoin:round;}</style>
 </defs>
 <g id="figure_1">
  <g id="patch_1">
   <path d="M 0 429.030975 
L 1286.551603 429.030975 
L 1286.551603 0 
L 0 0 
z
" style="fill:none;"/>
  </g>
  <g id="axes_1">
   <g id="patch_2">
    <path d="M 58.523438 355.368 
L 412.404395 355.368 
L 412.404395 7.2 
L 58.523438 7.2 
z
" style="fill:#ffffff;"/>
   </g>
   <g id="matplotlib.axis_1">
    <g id="xtick_1">
     <g id="line2d_1">
      <path clip-path="url(#p18b09e9dec)" d="M 74.608936 355.368 
L 74.608936 7.2 
" style="fill:none;stroke:#b0b0b0;stroke-linecap:square;stroke-width:0.8;"/>
     </g>
     <g id="line2d_2">
      <defs>
       <path d="M 0 0 
L 0 3.5 
" id="md26db07ee6" style="stroke:#000000;stroke-width:0.8;"/>
      </defs>
      <g>
       <use style="stroke:#000000;stroke-width:0.8;" x="74.608936" xlink:href="#md26db07ee6" y="355.368"/>
      </g>
     </g>
     <g id="text_1">
      <!-- 0 -->
      <g transform="translate(71.427686 369.966438)scale(0.1 -0.1)">
       <defs>
        <path d="M 31.78125 66.40625 
Q 24.171875 66.40625 20.328125 58.90625 
Q 16.5 51.421875 16.5 36.375 
Q 16.5 21.390625 20.328125 13.890625 
Q 24.171875 6.390625 31.78125 6.390625 
Q 39.453125 6.390625 43.28125 13.890625 
Q 47.125 21.390625 47.125 36.375 
Q 47.125 51.421875 43.28125 58.90625 
Q 39.453125 66.40625 31.78125 66.40625 
z
M 31.78125 74.21875 
Q 44.046875 74.21875 50.515625 64.515625 
Q 56.984375 54.828125 56.984375 36.375 
Q 56.984375 17.96875 50.515625 8.265625 
Q 44.046875 -1.421875 31.78125 -1.421875 
Q 19.53125 -1.421875 13.0625 8.265625 
Q 6.59375 17.96875 6.59375 36.375 
Q 6.59375 54.828125 13.0625 64.515625 
Q 19.53125 74.21875 31.78125 74.21875 
z
" id="DejaVuSans-48"/>
       </defs>
       <use xlink:href="#DejaVuSans-48"/>
      </g>
     </g>
    </g>
    <g id="xtick_2">
     <g id="line2d_3">
      <path clip-path="url(#p18b09e9dec)" d="M 138.90592 355.368 
L 138.90592 7.2 
" style="fill:none;stroke:#b0b0b0;stroke-linecap:square;stroke-width:0.8;"/>
     </g>
     <g id="line2d_4">
      <g>
       <use style="stroke:#000000;stroke-width:0.8;" x="138.90592" xlink:href="#md26db07ee6" y="355.368"/>
      </g>
     </g>
     <g id="text_2">
      <!-- 2000 -->
      <g transform="translate(126.18092 369.966438)scale(0.1 -0.1)">
       <defs>
        <path d="M 19.1875 8.296875 
L 53.609375 8.296875 
L 53.609375 0 
L 7.328125 0 
L 7.328125 8.296875 
Q 12.9375 14.109375 22.625 23.890625 
Q 32.328125 33.6875 34.8125 36.53125 
Q 39.546875 41.84375 41.421875 45.53125 
Q 43.3125 49.21875 43.3125 52.78125 
Q 43.3125 58.59375 39.234375 62.25 
Q 35.15625 65.921875 28.609375 65.921875 
Q 23.96875 65.921875 18.8125 64.3125 
Q 13.671875 62.703125 7.8125 59.421875 
L 7.8125 69.390625 
Q 13.765625 71.78125 18.9375 73 
Q 24.125 74.21875 28.421875 74.21875 
Q 39.75 74.21875 46.484375 68.546875 
Q 53.21875 62.890625 53.21875 53.421875 
Q 53.21875 48.921875 51.53125 44.890625 
Q 49.859375 40.875 45.40625 35.40625 
Q 44.1875 33.984375 37.640625 27.21875 
Q 31.109375 20.453125 19.1875 8.296875 
z
" id="DejaVuSans-50"/>
       </defs>
       <use xlink:href="#DejaVuSans-50"/>
       <use x="63.623047" xlink:href="#DejaVuSans-48"/>
       <use x="127.246094" xlink:href="#DejaVuSans-48"/>
       <use x="190.869141" xlink:href="#DejaVuSans-48"/>
      </g>
     </g>
    </g>
    <g id="xtick_3">
     <g id="line2d_5">
      <path clip-path="url(#p18b09e9dec)" d="M 203.202904 355.368 
L 203.202904 7.2 
" style="fill:none;stroke:#b0b0b0;stroke-linecap:square;stroke-width:0.8;"/>
     </g>
     <g id="line2d_6">
      <g>
       <use style="stroke:#000000;stroke-width:0.8;" x="203.202904" xlink:href="#md26db07ee6" y="355.368"/>
      </g>
     </g>
     <g id="text_3">
      <!-- 4000 -->
      <g transform="translate(190.477904 369.966438)scale(0.1 -0.1)">
       <defs>
        <path d="M 37.796875 64.3125 
L 12.890625 25.390625 
L 37.796875 25.390625 
z
M 35.203125 72.90625 
L 47.609375 72.90625 
L 47.609375 25.390625 
L 58.015625 25.390625 
L 58.015625 17.1875 
L 47.609375 17.1875 
L 47.609375 0 
L 37.796875 0 
L 37.796875 17.1875 
L 4.890625 17.1875 
L 4.890625 26.703125 
z
" id="DejaVuSans-52"/>
       </defs>
       <use xlink:href="#DejaVuSans-52"/>
       <use x="63.623047" xlink:href="#DejaVuSans-48"/>
       <use x="127.246094" xlink:href="#DejaVuSans-48"/>
       <use x="190.869141" xlink:href="#DejaVuSans-48"/>
      </g>
     </g>
    </g>
    <g id="xtick_4">
     <g id="line2d_7">
      <path clip-path="url(#p18b09e9dec)" d="M 267.499888 355.368 
L 267.499888 7.2 
" style="fill:none;stroke:#b0b0b0;stroke-linecap:square;stroke-width:0.8;"/>
     </g>
     <g id="line2d_8">
      <g>
       <use style="stroke:#000000;stroke-width:0.8;" x="267.499888" xlink:href="#md26db07ee6" y="355.368"/>
      </g>
     </g>
     <g id="text_4">
      <!-- 6000 -->
      <g transform="translate(254.774888 369.966438)scale(0.1 -0.1)">
       <defs>
        <path d="M 33.015625 40.375 
Q 26.375 40.375 22.484375 35.828125 
Q 18.609375 31.296875 18.609375 23.390625 
Q 18.609375 15.53125 22.484375 10.953125 
Q 26.375 6.390625 33.015625 6.390625 
Q 39.65625 6.390625 43.53125 10.953125 
Q 47.40625 15.53125 47.40625 23.390625 
Q 47.40625 31.296875 43.53125 35.828125 
Q 39.65625 40.375 33.015625 40.375 
z
M 52.59375 71.296875 
L 52.59375 62.3125 
Q 48.875 64.0625 45.09375 64.984375 
Q 41.3125 65.921875 37.59375 65.921875 
Q 27.828125 65.921875 22.671875 59.328125 
Q 17.53125 52.734375 16.796875 39.40625 
Q 19.671875 43.65625 24.015625 45.921875 
Q 28.375 48.1875 33.59375 48.1875 
Q 44.578125 48.1875 50.953125 41.515625 
Q 57.328125 34.859375 57.328125 23.390625 
Q 57.328125 12.15625 50.6875 5.359375 
Q 44.046875 -1.421875 33.015625 -1.421875 
Q 20.359375 -1.421875 13.671875 8.265625 
Q 6.984375 17.96875 6.984375 36.375 
Q 6.984375 53.65625 15.1875 63.9375 
Q 23.390625 74.21875 37.203125 74.21875 
Q 40.921875 74.21875 44.703125 73.484375 
Q 48.484375 72.75 52.59375 71.296875 
z
" id="DejaVuSans-54"/>
       </defs>
       <use xlink:href="#DejaVuSans-54"/>
       <use x="63.623047" xlink:href="#DejaVuSans-48"/>
       <use x="127.246094" xlink:href="#DejaVuSans-48"/>
       <use x="190.869141" xlink:href="#DejaVuSans-48"/>
      </g>
     </g>
    </g>
    <g id="xtick_5">
     <g id="line2d_9">
      <path clip-path="url(#p18b09e9dec)" d="M 331.796873 355.368 
L 331.796873 7.2 
" style="fill:none;stroke:#b0b0b0;stroke-linecap:square;stroke-width:0.8;"/>
     </g>
     <g id="line2d_10">
      <g>
       <use style="stroke:#000000;stroke-width:0.8;" x="331.796873" xlink:href="#md26db07ee6" y="355.368"/>
      </g>
     </g>
     <g id="text_5">
      <!-- 8000 -->
      <g transform="translate(319.071873 369.966438)scale(0.1 -0.1)">
       <defs>
        <path d="M 31.78125 34.625 
Q 24.75 34.625 20.71875 30.859375 
Q 16.703125 27.09375 16.703125 20.515625 
Q 16.703125 13.921875 20.71875 10.15625 
Q 24.75 6.390625 31.78125 6.390625 
Q 38.8125 6.390625 42.859375 10.171875 
Q 46.921875 13.96875 46.921875 20.515625 
Q 46.921875 27.09375 42.890625 30.859375 
Q 38.875 34.625 31.78125 34.625 
z
M 21.921875 38.8125 
Q 15.578125 40.375 12.03125 44.71875 
Q 8.5 49.078125 8.5 55.328125 
Q 8.5 64.0625 14.71875 69.140625 
Q 20.953125 74.21875 31.78125 74.21875 
Q 42.671875 74.21875 48.875 69.140625 
Q 55.078125 64.0625 55.078125 55.328125 
Q 55.078125 49.078125 51.53125 44.71875 
Q 48 40.375 41.703125 38.8125 
Q 48.828125 37.15625 52.796875 32.3125 
Q 56.78125 27.484375 56.78125 20.515625 
Q 56.78125 9.90625 50.3125 4.234375 
Q 43.84375 -1.421875 31.78125 -1.421875 
Q 19.734375 -1.421875 13.25 4.234375 
Q 6.78125 9.90625 6.78125 20.515625 
Q 6.78125 27.484375 10.78125 32.3125 
Q 14.796875 37.15625 21.921875 38.8125 
z
M 18.3125 54.390625 
Q 18.3125 48.734375 21.84375 45.5625 
Q 25.390625 42.390625 31.78125 42.390625 
Q 38.140625 42.390625 41.71875 45.5625 
Q 45.3125 48.734375 45.3125 54.390625 
Q 45.3125 60.0625 41.71875 63.234375 
Q 38.140625 66.40625 31.78125 66.40625 
Q 25.390625 66.40625 21.84375 63.234375 
Q 18.3125 60.0625 18.3125 54.390625 
z
" id="DejaVuSans-56"/>
       </defs>
       <use xlink:href="#DejaVuSans-56"/>
       <use x="63.623047" xlink:href="#DejaVuSans-48"/>
       <use x="127.246094" xlink:href="#DejaVuSans-48"/>
       <use x="190.869141" xlink:href="#DejaVuSans-48"/>
      </g>
     </g>
    </g>
    <g id="xtick_6">
     <g id="line2d_11">
      <path clip-path="url(#p18b09e9dec)" d="M 396.093857 355.368 
L 396.093857 7.2 
" style="fill:none;stroke:#b0b0b0;stroke-linecap:square;stroke-width:0.8;"/>
     </g>
     <g id="line2d_12">
      <g>
       <use style="stroke:#000000;stroke-width:0.8;" x="396.093857" xlink:href="#md26db07ee6" y="355.368"/>
      </g>
     </g>
     <g id="text_6">
      <!-- 10000 -->
      <g transform="translate(380.187607 369.966438)scale(0.1 -0.1)">
       <defs>
        <path d="M 12.40625 8.296875 
L 28.515625 8.296875 
L 28.515625 63.921875 
L 10.984375 60.40625 
L 10.984375 69.390625 
L 28.421875 72.90625 
L 38.28125 72.90625 
L 38.28125 8.296875 
L 54.390625 8.296875 
L 54.390625 0 
L 12.40625 0 
z
" id="DejaVuSans-49"/>
       </defs>
       <use xlink:href="#DejaVuSans-49"/>
       <use x="63.623047" xlink:href="#DejaVuSans-48"/>
       <use x="127.246094" xlink:href="#DejaVuSans-48"/>
       <use x="190.869141" xlink:href="#DejaVuSans-48"/>
       <use x="254.492188" xlink:href="#DejaVuSans-48"/>
      </g>
     </g>
    </g>
    <g id="text_7">
     <!-- t [s] -->
     <g transform="translate(225.408447 383.644563)scale(0.1 -0.1)">
      <defs>
       <path d="M 18.3125 70.21875 
L 18.3125 54.6875 
L 36.8125 54.6875 
L 36.8125 47.703125 
L 18.3125 47.703125 
L 18.3125 18.015625 
Q 18.3125 11.328125 20.140625 9.421875 
Q 21.96875 7.515625 27.59375 7.515625 
L 36.8125 7.515625 
L 36.8125 0 
L 27.59375 0 
Q 17.1875 0 13.234375 3.875 
Q 9.28125 7.765625 9.28125 18.015625 
L 9.28125 47.703125 
L 2.6875 47.703125 
L 2.6875 54.6875 
L 9.28125 54.6875 
L 9.28125 70.21875 
z
" id="DejaVuSans-116"/>
       <path id="DejaVuSans-32"/>
       <path d="M 8.59375 75.984375 
L 29.296875 75.984375 
L 29.296875 69 
L 17.578125 69 
L 17.578125 -6.203125 
L 29.296875 -6.203125 
L 29.296875 -13.1875 
L 8.59375 -13.1875 
z
" id="DejaVuSans-91"/>
       <path d="M 44.28125 53.078125 
L 44.28125 44.578125 
Q 40.484375 46.53125 36.375 47.5 
Q 32.28125 48.484375 27.875 48.484375 
Q 21.1875 48.484375 17.84375 46.4375 
Q 14.5 44.390625 14.5 40.28125 
Q 14.5 37.15625 16.890625 35.375 
Q 19.28125 33.59375 26.515625 31.984375 
L 29.59375 31.296875 
Q 39.15625 29.25 43.1875 25.515625 
Q 47.21875 21.78125 47.21875 15.09375 
Q 47.21875 7.46875 41.1875 3.015625 
Q 35.15625 -1.421875 24.609375 -1.421875 
Q 20.21875 -1.421875 15.453125 -0.5625 
Q 10.6875 0.296875 5.421875 2 
L 5.421875 11.28125 
Q 10.40625 8.6875 15.234375 7.390625 
Q 20.0625 6.109375 24.8125 6.109375 
Q 31.15625 6.109375 34.5625 8.28125 
Q 37.984375 10.453125 37.984375 14.40625 
Q 37.984375 18.0625 35.515625 20.015625 
Q 33.0625 21.96875 24.703125 23.78125 
L 21.578125 24.515625 
Q 13.234375 26.265625 9.515625 29.90625 
Q 5.8125 33.546875 5.8125 39.890625 
Q 5.8125 47.609375 11.28125 51.796875 
Q 16.75 56 26.8125 56 
Q 31.78125 56 36.171875 55.265625 
Q 40.578125 54.546875 44.28125 53.078125 
z
" id="DejaVuSans-115"/>
       <path d="M 30.421875 75.984375 
L 30.421875 -13.1875 
L 9.71875 -13.1875 
L 9.71875 -6.203125 
L 21.390625 -6.203125 
L 21.390625 69 
L 9.71875 69 
L 9.71875 75.984375 
z
" id="DejaVuSans-93"/>
      </defs>
      <use xlink:href="#DejaVuSans-116"/>
      <use x="39.208984" xlink:href="#DejaVuSans-32"/>
      <use x="70.996094" xlink:href="#DejaVuSans-91"/>
      <use x="110.009766" xlink:href="#DejaVuSans-115"/>
      <use x="162.109375" xlink:href="#DejaVuSans-93"/>
     </g>
    </g>
   </g>
   <g id="matplotlib.axis_2">
    <g id="ytick_1">
     <g id="line2d_13">
      <path clip-path="url(#p18b09e9dec)" d="M 58.523438 336.065548 
L 412.404395 336.065548 
" style="fill:none;stroke:#b0b0b0;stroke-linecap:square;stroke-width:0.8;"/>
     </g>
     <g id="line2d_14">
      <defs>
       <path d="M 0 0 
L -3.5 0 
" id="m006c0b84f6" style="stroke:#000000;stroke-width:0.8;"/>
      </defs>
      <g>
       <use style="stroke:#000000;stroke-width:0.8;" x="58.523438" xlink:href="#m006c0b84f6" y="336.065548"/>
      </g>
     </g>
     <g id="text_8">
      <!-- −0.04 -->
      <g transform="translate(20.878125 339.864767)scale(0.1 -0.1)">
       <defs>
        <path d="M 10.59375 35.5 
L 73.1875 35.5 
L 73.1875 27.203125 
L 10.59375 27.203125 
z
" id="DejaVuSans-8722"/>
        <path d="M 10.6875 12.40625 
L 21 12.40625 
L 21 0 
L 10.6875 0 
z
" id="DejaVuSans-46"/>
       </defs>
       <use xlink:href="#DejaVuSans-8722"/>
       <use x="83.789062" xlink:href="#DejaVuSans-48"/>
       <use x="147.412109" xlink:href="#DejaVuSans-46"/>
       <use x="179.199219" xlink:href="#DejaVuSans-48"/>
       <use x="242.822266" xlink:href="#DejaVuSans-52"/>
      </g>
     </g>
    </g>
    <g id="ytick_2">
     <g id="line2d_15">
      <path clip-path="url(#p18b09e9dec)" d="M 58.523438 278.185783 
L 412.404395 278.185783 
" style="fill:none;stroke:#b0b0b0;stroke-linecap:square;stroke-width:0.8;"/>
     </g>
     <g id="line2d_16">
      <g>
       <use style="stroke:#000000;stroke-width:0.8;" x="58.523438" xlink:href="#m006c0b84f6" y="278.185783"/>
      </g>
     </g>
     <g id="text_9">
      <!-- −0.03 -->
      <g transform="translate(20.878125 281.985002)scale(0.1 -0.1)">
       <defs>
        <path d="M 40.578125 39.3125 
Q 47.65625 37.796875 51.625 33 
Q 55.609375 28.21875 55.609375 21.1875 
Q 55.609375 10.40625 48.1875 4.484375 
Q 40.765625 -1.421875 27.09375 -1.421875 
Q 22.515625 -1.421875 17.65625 -0.515625 
Q 12.796875 0.390625 7.625 2.203125 
L 7.625 11.71875 
Q 11.71875 9.328125 16.59375 8.109375 
Q 21.484375 6.890625 26.8125 6.890625 
Q 36.078125 6.890625 40.9375 10.546875 
Q 45.796875 14.203125 45.796875 21.1875 
Q 45.796875 27.640625 41.28125 31.265625 
Q 36.765625 34.90625 28.71875 34.90625 
L 20.21875 34.90625 
L 20.21875 43.015625 
L 29.109375 43.015625 
Q 36.375 43.015625 40.234375 45.921875 
Q 44.09375 48.828125 44.09375 54.296875 
Q 44.09375 59.90625 40.109375 62.90625 
Q 36.140625 65.921875 28.71875 65.921875 
Q 24.65625 65.921875 20.015625 65.03125 
Q 15.375 64.15625 9.8125 62.3125 
L 9.8125 71.09375 
Q 15.4375 72.65625 20.34375 73.4375 
Q 25.25 74.21875 29.59375 74.21875 
Q 40.828125 74.21875 47.359375 69.109375 
Q 53.90625 64.015625 53.90625 55.328125 
Q 53.90625 49.265625 50.4375 45.09375 
Q 46.96875 40.921875 40.578125 39.3125 
z
" id="DejaVuSans-51"/>
       </defs>
       <use xlink:href="#DejaVuSans-8722"/>
       <use x="83.789062" xlink:href="#DejaVuSans-48"/>
       <use x="147.412109" xlink:href="#DejaVuSans-46"/>
       <use x="179.199219" xlink:href="#DejaVuSans-48"/>
       <use x="242.822266" xlink:href="#DejaVuSans-51"/>
      </g>
     </g>
    </g>
    <g id="ytick_3">
     <g id="line2d_17">
      <path clip-path="url(#p18b09e9dec)" d="M 58.523438 220.306018 
L 412.404395 220.306018 
" style="fill:none;stroke:#b0b0b0;stroke-linecap:square;stroke-width:0.8;"/>
     </g>
     <g id="line2d_18">
      <g>
       <use style="stroke:#000000;stroke-width:0.8;" x="58.523438" xlink:href="#m006c0b84f6" y="220.306018"/>
      </g>
     </g>
     <g id="text_10">
      <!-- −0.02 -->
      <g transform="translate(20.878125 224.105237)scale(0.1 -0.1)">
       <use xlink:href="#DejaVuSans-8722"/>
       <use x="83.789062" xlink:href="#DejaVuSans-48"/>
       <use x="147.412109" xlink:href="#DejaVuSans-46"/>
       <use x="179.199219" xlink:href="#DejaVuSans-48"/>
       <use x="242.822266" xlink:href="#DejaVuSans-50"/>
      </g>
     </g>
    </g>
    <g id="ytick_4">
     <g id="line2d_19">
      <path clip-path="url(#p18b09e9dec)" d="M 58.523438 162.426253 
L 412.404395 162.426253 
" style="fill:none;stroke:#b0b0b0;stroke-linecap:square;stroke-width:0.8;"/>
     </g>
     <g id="line2d_20">
      <g>
       <use style="stroke:#000000;stroke-width:0.8;" x="58.523438" xlink:href="#m006c0b84f6" y="162.426253"/>
      </g>
     </g>
     <g id="text_11">
      <!-- −0.01 -->
      <g transform="translate(20.878125 166.225472)scale(0.1 -0.1)">
       <use xlink:href="#DejaVuSans-8722"/>
       <use x="83.789062" xlink:href="#DejaVuSans-48"/>
       <use x="147.412109" xlink:href="#DejaVuSans-46"/>
       <use x="179.199219" xlink:href="#DejaVuSans-48"/>
       <use x="242.822266" xlink:href="#DejaVuSans-49"/>
      </g>
     </g>
    </g>
    <g id="ytick_5">
     <g id="line2d_21">
      <path clip-path="url(#p18b09e9dec)" d="M 58.523438 104.546488 
L 412.404395 104.546488 
" style="fill:none;stroke:#b0b0b0;stroke-linecap:square;stroke-width:0.8;"/>
     </g>
     <g id="line2d_22">
      <g>
       <use style="stroke:#000000;stroke-width:0.8;" x="58.523438" xlink:href="#m006c0b84f6" y="104.546488"/>
      </g>
     </g>
     <g id="text_12">
      <!-- 0.00 -->
      <g transform="translate(29.257813 108.345707)scale(0.1 -0.1)">
       <use xlink:href="#DejaVuSans-48"/>
       <use x="63.623047" xlink:href="#DejaVuSans-46"/>
       <use x="95.410156" xlink:href="#DejaVuSans-48"/>
       <use x="159.033203" xlink:href="#DejaVuSans-48"/>
      </g>
     </g>
    </g>
    <g id="ytick_6">
     <g id="line2d_23">
      <path clip-path="url(#p18b09e9dec)" d="M 58.523438 46.666723 
L 412.404395 46.666723 
" style="fill:none;stroke:#b0b0b0;stroke-linecap:square;stroke-width:0.8;"/>
     </g>
     <g id="line2d_24">
      <g>
       <use style="stroke:#000000;stroke-width:0.8;" x="58.523438" xlink:href="#m006c0b84f6" y="46.666723"/>
      </g>
     </g>
     <g id="text_13">
      <!-- 0.01 -->
      <g transform="translate(29.257813 50.465942)scale(0.1 -0.1)">
       <use xlink:href="#DejaVuSans-48"/>
       <use x="63.623047" xlink:href="#DejaVuSans-46"/>
       <use x="95.410156" xlink:href="#DejaVuSans-48"/>
       <use x="159.033203" xlink:href="#DejaVuSans-49"/>
      </g>
     </g>
    </g>
    <g id="text_14">
     <!-- [V] -->
     <g transform="translate(14.798438 188.605875)rotate(-90)scale(0.1 -0.1)">
      <defs>
       <path d="M 28.609375 0 
L 0.78125 72.90625 
L 11.078125 72.90625 
L 34.1875 11.53125 
L 57.328125 72.90625 
L 67.578125 72.90625 
L 39.796875 0 
z
" id="DejaVuSans-86"/>
      </defs>
      <use xlink:href="#DejaVuSans-91"/>
      <use x="39.013672" xlink:href="#DejaVuSans-86"/>
      <use x="107.421875" xlink:href="#DejaVuSans-93"/>
     </g>
    </g>
   </g>
   <g id="line2d_25">
    <path clip-path="url(#p18b09e9dec)" d="M 74.608936 104.546488 
L 74.769678 104.464534 
L 74.833975 104.218674 
L 75.059014 100.818897 
L 77.438003 64.700289 
L 78.756091 47.8961 
L 79.816991 37.041712 
L 80.685001 30.29461 
L 81.392267 26.366273 
L 81.97094 24.259042 
L 82.421019 23.328409 
L 82.774653 23.037597 
L 83.03184 23.070549 
L 83.321177 23.353608 
L 83.67481 24.051909 
L 84.124889 25.495911 
L 84.671414 28.069703 
L 85.346532 32.44855 
L 86.150244 39.287961 
L 87.114699 49.598678 
L 88.304193 64.950774 
L 89.911618 88.908913 
L 93.930179 150.062484 
L 95.151822 164.765907 
L 96.148425 174.262308 
L 96.952138 180.013869 
L 97.627256 183.413636 
L 98.17378 185.163586 
L 98.591711 185.882432 
L 98.913196 186.06645 
L 99.170384 185.982016 
L 99.45972 185.641168 
L 99.845502 184.78373 
L 100.327729 183.071609 
L 100.906402 180.098805 
L 101.613669 175.159223 
L 102.44953 167.593774 
L 103.446133 156.399212 
L 104.699924 139.589691 
L 106.50024 112.075478 
L 109.650792 63.80975 
L 110.96888 47.163944 
L 111.997632 36.755888 
L 112.865641 30.08465 
L 113.572908 26.222691 
L 114.151581 24.171867 
L 114.60166 23.285912 
L 114.923145 23.037597 
L 115.180333 23.070549 
L 115.469669 23.353608 
L 115.823302 24.051909 
L 116.273381 25.495911 
L 116.819906 28.069703 
L 117.495024 32.44855 
L 118.298736 39.287961 
L 119.263191 49.598678 
L 120.452685 64.950774 
L 122.06011 88.908913 
L 126.078671 150.062484 
L 127.300314 164.765907 
L 128.296917 174.262308 
L 129.10063 180.013869 
L 129.775748 183.413636 
L 130.322272 185.163586 
L 130.740203 185.882432 
L 131.061688 186.06645 
L 131.318876 185.982016 
L 131.608212 185.641168 
L 131.993994 184.78373 
L 132.476221 183.071609 
L 133.054894 180.098805 
L 133.762161 175.159223 
L 134.598022 167.593774 
L 135.594625 156.399212 
L 136.848416 139.589691 
L 138.648732 112.075478 
L 141.799284 63.80975 
L 143.117372 47.163944 
L 144.146124 36.755888 
L 145.014133 30.08465 
L 145.7214 26.222691 
L 146.300073 24.171867 
L 146.750152 23.285912 
L 147.071637 23.037597 
L 147.328825 23.070549 
L 147.618161 23.353608 
L 147.971795 24.051909 
L 148.421874 25.495911 
L 148.968398 28.069703 
L 149.643516 32.44855 
L 150.447229 39.287961 
L 151.411683 49.598678 
L 152.601178 64.950774 
L 154.208602 88.908913 
L 158.227164 150.062484 
L 159.448806 164.765907 
L 160.44541 174.262308 
L 161.249122 180.013869 
L 161.92424 183.413636 
L 162.470765 185.163586 
L 162.888695 185.882432 
L 163.21018 186.06645 
L 163.467368 185.982016 
L 163.756704 185.641168 
L 164.142486 184.78373 
L 164.624714 183.071609 
L 165.203386 180.098805 
L 165.910653 175.159223 
L 166.746514 167.593774 
L 167.743117 156.399212 
L 168.996909 139.589691 
L 170.797224 112.075478 
L 173.947776 63.80975 
L 175.265864 47.163944 
L 176.294616 36.755888 
L 177.162626 30.08465 
L 177.869892 26.222691 
L 178.448565 24.171867 
L 178.898644 23.285912 
L 179.220129 23.037597 
L 179.477317 23.070549 
L 179.766653 23.353608 
L 180.120287 24.051909 
L 180.570366 25.495911 
L 181.11689 28.069703 
L 181.792008 32.44855 
L 182.595721 39.287961 
L 183.560175 49.598678 
L 184.74967 64.950774 
L 186.357094 88.908913 
L 190.375656 150.062484 
L 191.597298 164.765907 
L 192.593902 174.262308 
L 193.397614 180.013869 
L 194.072732 183.413636 
L 194.619257 185.163586 
L 195.037187 185.882432 
L 195.358672 186.06645 
L 195.61586 185.982016 
L 195.905196 185.641168 
L 196.290978 184.78373 
L 196.773206 183.071609 
L 197.351879 180.098805 
L 198.059145 175.159223 
L 198.895006 167.593774 
L 199.891609 156.399212 
L 201.145401 139.589691 
L 202.945716 112.075478 
L 206.096268 63.80975 
L 207.414357 47.163944 
L 208.443108 36.755888 
L 209.311118 30.08465 
L 210.018384 26.222691 
L 210.597057 24.171867 
L 211.047136 23.285912 
L 211.368621 23.037597 
L 211.625809 23.070549 
L 211.915146 23.353608 
L 212.268779 24.051909 
L 212.718858 25.495911 
L 213.265382 28.069703 
L 213.940501 32.44855 
L 214.744213 39.287961 
L 215.708668 49.598678 
L 216.898162 64.950774 
L 218.505586 88.908913 
L 222.524148 150.062484 
L 223.745791 164.765907 
L 224.742394 174.262308 
L 225.546106 180.013869 
L 226.221225 183.413636 
L 226.767749 185.163586 
L 227.185679 185.882432 
L 227.507164 186.06645 
L 227.764352 185.982016 
L 228.053689 185.641168 
L 228.43947 184.78373 
L 228.921698 183.071609 
L 229.500371 180.098805 
L 230.207638 175.159223 
L 231.043498 167.593774 
L 232.040102 156.399212 
L 233.293893 139.589691 
L 235.094208 112.075478 
L 238.244761 63.80975 
L 239.562849 47.163944 
L 240.591601 36.755888 
L 241.45961 30.08465 
L 242.166877 26.222691 
L 242.74555 24.171867 
L 243.195628 23.285912 
L 243.517113 23.037597 
L 243.774301 23.070549 
L 244.063638 23.353608 
L 244.417271 24.051909 
L 244.86735 25.495911 
L 245.413874 28.069703 
L 246.088993 32.44855 
L 246.892705 39.287961 
L 247.85716 49.598678 
L 249.046654 64.950774 
L 250.654079 88.908913 
L 254.67264 150.062484 
L 255.894283 164.765907 
L 256.890886 174.262308 
L 257.694598 180.013869 
L 258.369717 183.413636 
L 258.916241 185.163586 
L 259.334171 185.882432 
L 259.655656 186.06645 
L 259.912844 185.982016 
L 260.202181 185.641168 
L 260.587963 184.78373 
L 261.07019 183.071609 
L 261.648863 180.098805 
L 262.35613 175.159223 
L 263.191991 167.593774 
L 264.188594 156.399212 
L 265.442385 139.589691 
L 267.242701 112.075478 
L 270.393253 63.80975 
L 271.711341 47.163944 
L 272.740093 36.755888 
L 273.608102 30.08465 
L 274.315369 26.222691 
L 274.894042 24.171867 
L 275.344121 23.285912 
L 275.665605 23.037597 
L 275.922793 23.070549 
L 276.21213 23.353608 
L 276.565763 24.051909 
L 277.015842 25.495911 
L 277.562367 28.069703 
L 278.237485 32.44855 
L 279.041197 39.287961 
L 280.005652 49.598678 
L 281.195146 64.950774 
L 282.802571 88.908913 
L 286.821132 150.062484 
L 288.042775 164.765907 
L 289.039378 174.262308 
L 289.843091 180.013869 
L 290.518209 183.413636 
L 291.064733 185.163586 
L 291.482664 185.882432 
L 291.804149 186.06645 
L 292.061336 185.982016 
L 292.350673 185.641168 
L 292.736455 184.78373 
L 293.218682 183.071609 
L 293.797355 180.098805 
L 294.504622 175.159223 
L 295.340483 167.593774 
L 296.337086 156.399212 
L 297.590877 139.589691 
L 299.391193 112.075478 
L 302.541745 63.80975 
L 303.859833 47.163944 
L 304.888585 36.755888 
L 305.756594 30.08465 
L 306.463861 26.222691 
L 307.042534 24.171867 
L 307.492613 23.285912 
L 307.814098 23.037597 
L 308.071286 23.070549 
L 308.360622 23.353608 
L 308.714255 24.051909 
L 309.164334 25.495911 
L 309.710859 28.069703 
L 310.385977 32.44855 
L 311.189689 39.287961 
L 312.154144 49.598678 
L 313.343638 64.950774 
L 314.951063 88.908913 
L 318.969624 150.062484 
L 320.191267 164.765907 
L 321.18787 174.262308 
L 321.991583 180.013869 
L 322.666701 183.413636 
L 323.213225 185.163586 
L 323.631156 185.882432 
L 323.952641 186.06645 
L 324.209829 185.982016 
L 324.499165 185.641168 
L 324.884947 184.78373 
L 325.367174 183.071609 
L 325.945847 180.098805 
L 326.653114 175.159223 
L 327.488975 167.593774 
L 328.485578 156.399212 
L 329.739369 139.589691 
L 331.539685 112.075478 
L 334.690237 63.80975 
L 336.008325 47.163944 
L 337.037077 36.755888 
L 337.905086 30.08465 
L 338.612353 26.222691 
L 339.191026 24.171867 
L 339.641105 23.285912 
L 339.96259 23.037597 
L 340.219778 23.070549 
L 340.509114 23.353608 
L 340.862748 24.051909 
L 341.312826 25.495911 
L 341.859351 28.069703 
L 342.534469 32.44855 
L 343.338181 39.287961 
L 344.302636 49.598678 
L 345.49213 64.950774 
L 347.099555 88.908913 
L 351.118117 150.062484 
L 352.339759 164.765907 
L 353.336363 174.262308 
L 354.140075 180.013869 
L 354.815193 183.413636 
L 355.361718 185.163586 
L 355.779648 185.882432 
L 356.101133 186.06645 
L 356.358321 185.982016 
L 356.647657 185.641168 
L 357.033439 184.78373 
L 357.515666 183.071609 
L 358.094339 180.098805 
L 358.801606 175.159223 
L 359.637467 167.593774 
L 360.63407 156.399212 
L 361.887861 139.589691 
L 363.688177 112.075478 
L 366.838729 63.80975 
L 368.156817 47.163944 
L 369.185569 36.755888 
L 370.053578 30.08465 
L 370.760845 26.222691 
L 371.339518 24.171867 
L 371.789597 23.285912 
L 372.111082 23.037597 
L 372.36827 23.070549 
L 372.657606 23.353608 
L 373.01124 24.051909 
L 373.461319 25.495911 
L 374.007843 28.069703 
L 374.682961 32.44855 
L 375.486674 39.287961 
L 376.451128 49.598678 
L 377.640623 64.950774 
L 379.248047 88.908913 
L 383.266609 150.062484 
L 384.488251 164.765907 
L 385.484855 174.262308 
L 386.288567 180.013869 
L 386.963685 183.413636 
L 387.51021 185.163586 
L 387.92814 185.882432 
L 388.249625 186.06645 
L 388.506813 185.982016 
L 388.796149 185.641168 
L 389.181931 184.78373 
L 389.664159 183.071609 
L 390.242831 180.098805 
L 390.950098 175.159223 
L 391.785959 167.593774 
L 392.782562 156.399212 
L 394.036354 139.589691 
L 395.836669 112.075478 
L 396.318897 104.546488 
L 396.318897 104.546488 
" style="fill:none;stroke:#1f77b4;stroke-linecap:square;stroke-width:1.5;"/>
   </g>
   <g id="line2d_26">
    <path clip-path="url(#p18b09e9dec)" d="M 74.608936 145.306886 
L 74.866123 145.241323 
L 87.532629 125.267745 
L 94.283813 115.04579 
L 99.87765 106.967269 
L 104.860667 100.153587 
L 109.393604 94.325415 
L 113.605057 89.26801 
L 117.527173 84.898629 
L 121.256398 81.072808 
L 124.792732 77.75964 
L 128.168323 74.897742 
L 131.415321 72.433792 
L 134.533725 70.343489 
L 137.555683 68.583353 
L 140.481196 67.134221 
L 143.342412 65.964041 
L 146.139331 65.059884 
L 148.871952 64.408021 
L 151.572426 63.990461 
L 154.240751 63.800303 
L 156.909075 63.831766 
L 159.5774 64.084764 
L 162.277874 64.56566 
L 165.010495 65.281165 
L 167.775266 66.237325 
L 170.604333 67.454622 
L 173.497697 68.945674 
L 176.455359 70.722137 
L 179.509465 72.817924 
L 182.692166 75.276565 
L 186.003461 78.121916 
L 189.44335 81.375478 
L 193.043981 85.090229 
L 196.869651 89.363314 
L 200.920361 94.227951 
L 205.260408 99.794289 
L 209.986236 106.226194 
L 215.22644 113.74527 
L 221.238208 122.773912 
L 228.793104 134.545097 
L 252.679434 172.065399 
L 258.626905 180.815553 
L 263.802812 188.044542 
L 268.464343 194.18314 
L 272.772241 199.496699 
L 276.790803 204.107998 
L 280.584325 208.12888 
L 284.184956 211.626342 
L 287.624845 214.661258 
L 290.903991 217.262806 
L 294.054543 219.48416 
L 297.10865 221.36921 
L 300.066311 222.936567 
L 302.959675 224.218955 
L 305.756594 225.218832 
L 308.521364 225.9726 
L 311.253986 226.486227 
L 313.95446 226.766391 
L 316.622784 226.820395 
L 319.291109 226.65276 
L 321.959434 226.263941 
L 324.659908 225.646323 
L 327.392529 224.793608 
L 330.189448 223.686124 
L 333.050664 222.310926 
L 335.976177 220.655951 
L 338.998135 218.68791 
L 342.116539 216.388861 
L 345.363536 213.714636 
L 348.739128 210.642688 
L 352.275462 207.119803 
L 356.004687 203.08537 
L 359.958952 198.472852 
L 364.170404 193.212004 
L 368.703342 187.188171 
L 373.686358 180.189065 
L 379.312344 171.893089 
L 386.063528 161.523155 
L 395.965263 145.855971 
L 396.318897 145.306886 
L 396.318897 145.306886 
" style="fill:none;stroke:#ff7f0e;stroke-linecap:square;stroke-width:1.5;"/>
   </g>
   <g id="line2d_27">
    <path clip-path="url(#p18b09e9dec)" d="M 74.608936 248.260652 
L 75.509093 248.156004 
L 76.184212 247.794188 
L 77.020072 247.07207 
L 78.370309 245.560527 
L 80.009882 243.800644 
L 80.91004 243.153775 
L 81.617307 242.905674 
L 82.228128 242.915342 
L 82.806801 243.139018 
L 83.417622 243.618745 
L 84.092741 244.453636 
L 84.832156 245.741781 
L 85.668017 247.660486 
L 86.66462 250.546206 
L 87.886263 254.833796 
L 89.622281 261.846588 
L 92.258458 272.442565 
L 93.415803 276.173777 
L 94.283813 278.30194 
L 94.99108 279.510659 
L 95.569752 280.102386 
L 96.05198 280.29999 
L 96.46991 280.242377 
L 96.919989 279.933748 
L 97.402216 279.311476 
L 97.980889 278.158793 
L 98.623859 276.35455 
L 99.395423 273.469504 
L 100.295581 269.150162 
L 101.356481 262.858385 
L 102.642421 253.798647 
L 104.635627 237.913259 
L 107.014616 219.362239 
L 108.236258 211.550937 
L 109.168565 206.923665 
L 109.90798 204.26295 
L 110.518801 202.821283 
L 111.001029 202.201086 
L 111.354662 202.048923 
L 111.676147 202.138371 
L 112.02978 202.491348 
L 112.447711 203.256138 
L 112.962087 204.717049 
L 113.572908 207.192921 
L 114.280175 211.043066 
L 115.116036 216.888054 
L 116.112639 225.523071 
L 117.334282 238.168697 
L 119.0703 258.738833 
L 122.381595 298.276663 
L 123.635386 310.413787 
L 124.631989 318.023788 
L 125.435702 322.581476 
L 126.078671 325.103113 
L 126.593047 326.357391 
L 127.010978 326.860131 
L 127.332463 326.925982 
L 127.621799 326.744334 
L 127.975433 326.210879 
L 128.393363 325.138546 
L 128.907739 323.16563 
L 129.51856 319.902874 
L 130.257975 314.664531 
L 131.125985 306.831056 
L 132.186885 295.069092 
L 133.504973 277.786829 
L 135.594625 246.992258 
L 137.973614 212.788857 
L 139.259553 197.333401 
L 140.288305 187.481237 
L 141.124166 181.468186 
L 141.799284 178.05752 
L 142.345809 176.298331 
L 142.763739 175.576179 
L 143.085224 175.393431 
L 143.342412 175.481927 
L 143.631748 175.831102 
L 144.01753 176.706577 
L 144.499757 178.453509 
L 145.07843 181.487234 
L 145.785697 186.529798 
L 146.621558 194.253845 
L 147.618161 205.676779 
L 148.871952 222.797532 
L 150.736565 251.718541 
L 153.597781 295.824865 
L 154.915869 312.666788 
L 155.944621 323.187771 
L 156.81263 329.918429 
L 157.519897 333.802319 
L 158.09857 335.853122 
L 158.548649 336.728079 
L 158.870133 336.962834 
L 159.127321 336.915722 
L 159.416658 336.613334 
L 159.770291 335.886726 
L 160.22037 334.399689 
L 160.766895 331.764019 
L 161.442013 327.296129 
L 162.245725 320.336411 
L 163.21018 309.868374 
L 164.399674 294.318403 
L 166.039247 269.618536 
L 169.832769 211.473535 
L 171.08656 196.132478 
L 172.083164 186.461667 
L 172.919025 180.363925 
L 173.594143 176.892833 
L 174.140667 175.074466 
L 174.590746 174.255136 
L 174.912231 174.046681 
L 175.169419 174.105526 
L 175.458755 174.410067 
L 175.844537 175.204651 
L 176.326765 176.810724 
L 176.905438 179.607836 
L 177.612704 184.245919 
L 178.448565 191.306791 
L 179.477317 202.014227 
L 180.827554 218.620718 
L 183.528027 255.463512 
L 185.328343 278.301699 
L 186.582134 291.553547 
L 187.578737 299.942584 
L 188.414598 305.291697 
L 189.121865 308.528601 
L 189.700537 310.269119 
L 190.182765 311.088945 
L 190.536398 311.326562 
L 190.857883 311.277865 
L 191.179368 310.980141 
L 191.56515 310.299878 
L 192.047377 308.967035 
L 192.658199 306.541317 
L 193.397614 302.575512 
L 194.265623 296.630986 
L 195.358672 287.494725 
L 196.837503 273.058726 
L 201.241846 228.759989 
L 202.43134 219.570185 
L 203.427944 213.512315 
L 204.263804 209.724511 
L 204.971071 207.488641 
L 205.549744 206.330079 
L 206.031971 205.823256 
L 206.417753 205.713094 
L 206.771387 205.837572 
L 207.189317 206.254809 
L 207.671545 207.085681 
L 208.250217 208.548674 
L 208.957484 210.968229 
L 209.857642 214.918592 
L 211.014988 221.117103 
L 212.783155 231.995071 
L 215.419331 248.076783 
L 216.737419 254.75255 
L 217.79832 259.06676 
L 218.698477 261.881383 
L 219.50219 263.705887 
L 220.177308 264.735001 
L 220.755981 265.259882 
L 221.270357 265.460531 
L 221.784733 265.423807 
L 222.331257 265.141795 
L 222.942078 264.556227 
L 223.681494 263.512671 
L 224.6138 261.772714 
L 225.89974 258.848788 
L 229.275331 250.950906 
L 230.336232 249.126074 
L 231.204241 248.044885 
L 231.943656 247.452122 
L 232.618774 247.186947 
L 233.229596 247.174938 
L 233.872566 247.389692 
L 234.579832 247.8789 
L 235.383545 248.721734 
L 236.380148 250.109804 
L 237.891127 252.651172 
L 239.948631 256.052222 
L 240.945234 257.282744 
L 241.716798 257.911642 
L 242.359768 258.171303 
L 242.93844 258.173835 
L 243.484965 257.959678 
L 244.063638 257.49239 
L 244.706608 256.675026 
L 245.446023 255.345389 
L 246.281884 253.354366 
L 247.278487 250.356512 
L 248.50013 245.909302 
L 250.300445 238.390089 
L 252.743731 228.316555 
L 253.901076 224.47475 
L 254.769086 222.289663 
L 255.476352 221.057146 
L 256.055025 220.464215 
L 256.505104 220.283099 
L 256.923035 220.346306 
L 257.340965 220.640864 
L 257.823192 221.276841 
L 258.369717 222.389805 
L 259.012687 224.239558 
L 259.752102 227.086965 
L 260.620111 231.384996 
L 261.616714 237.504698 
L 262.838357 246.491574 
L 264.47793 260.369249 
L 267.982116 290.482729 
L 269.139462 298.365445 
L 270.071768 303.285456 
L 270.811183 306.095452 
L 271.389856 307.545705 
L 271.872083 308.219822 
L 272.225717 308.394031 
L 272.547202 308.312175 
L 272.900835 307.95432 
L 273.318766 307.16666 
L 273.833141 305.653687 
L 274.443963 303.084679 
L 275.15123 299.08958 
L 275.98709 293.031606 
L 276.983694 284.101225 
L 278.237485 270.697019 
L 280.0378 248.751578 
L 283.02761 212.339612 
L 284.281401 199.801969 
L 285.278005 191.894789 
L 286.081717 187.124759 
L 286.756835 184.351981 
L 287.271211 183.04371 
L 287.689142 182.511404 
L 288.010626 182.431973 
L 288.299963 182.608438 
L 288.653596 183.144844 
L 289.071527 184.234116 
L 289.585903 186.248254 
L 290.196724 189.589481 
L 290.936139 194.965596 
L 291.804149 203.01912 
L 292.865049 215.130269 
L 294.183137 232.953719 
L 296.24064 264.279227 
L 298.683926 300.684526 
L 299.969866 316.697868 
L 300.998617 326.918901 
L 301.834478 333.169037 
L 302.509596 336.724933 
L 303.056121 338.569127 
L 303.474051 339.33574 
L 303.795536 339.540249 
L 304.052724 339.461251 
L 304.34206 339.114265 
L 304.695694 338.319931 
L 305.145773 336.724689 
L 305.692297 333.923428 
L 306.367415 329.198949 
L 307.171128 321.861913 
L 308.135583 310.850133 
L 309.325077 294.526878 
L 310.996798 268.145665 
L 314.597429 210.533005 
L 315.851221 194.346686 
L 316.847824 184.082729 
L 317.683685 177.566437 
L 318.390952 173.681713 
L 318.937476 171.752794 
L 319.387555 170.883561 
L 319.70904 170.664282 
L 319.966228 170.730363 
L 320.255564 171.060844 
L 320.609197 171.831091 
L 321.059276 173.387614 
L 321.605801 176.126901 
L 322.280919 180.748293 
L 323.084631 187.920523 
L 324.049086 198.673108 
L 325.23858 214.592716 
L 326.910302 240.290319 
L 330.478785 295.844112 
L 331.732576 311.586169 
L 332.729179 321.548993 
L 333.56504 327.855825 
L 334.240158 331.462988 
L 334.818831 333.448679 
L 335.26891 334.27252 
L 335.590395 334.472423 
L 335.847583 334.399404 
L 336.136919 334.07092 
L 336.522701 333.230912 
L 337.004928 331.545841 
L 337.583601 328.620637 
L 338.290868 323.776023 
L 339.126729 316.400383 
L 340.155481 305.203605 
L 341.473569 288.239318 
L 343.820409 254.510316 
L 345.910061 225.827437 
L 347.228149 210.667339 
L 348.289049 200.903467 
L 349.157059 194.806548 
L 349.896474 191.062791 
L 350.507295 189.011753 
L 350.989523 188.065483 
L 351.375304 187.734943 
L 351.696789 187.746425 
L 352.018274 188.015332 
L 352.404056 188.671707 
L 352.886284 189.990298 
L 353.464956 192.272771 
L 354.172223 196.032608 
L 355.040233 201.958066 
L 356.101133 210.845608 
L 357.515666 224.724711 
L 362.177198 272.047587 
L 363.334544 280.853914 
L 364.298998 286.572335 
L 365.102711 290.088196 
L 365.777829 292.121803 
L 366.324353 293.14447 
L 366.774432 293.569693 
L 367.160214 293.638818 
L 367.513848 293.467596 
L 367.931778 292.98381 
L 368.414005 292.060964 
L 369.024827 290.36299 
L 369.764242 287.584842 
L 370.6644 283.27873 
L 371.821745 276.579388 
L 373.622061 264.658493 
L 376.258237 247.375885 
L 377.576326 240.177675 
L 378.669374 235.375924 
L 379.601681 232.238079 
L 380.405393 230.277016 
L 381.080511 229.164331 
L 381.659184 228.590581 
L 382.17356 228.364096 
L 382.655787 228.382568 
L 383.170163 228.633886 
L 383.748836 229.180499 
L 384.456103 230.187143 
L 385.324112 231.849746 
L 386.481458 234.605204 
L 389.021189 241.457107 
L 390.532168 245.111166 
L 391.625217 247.200291 
L 392.525374 248.466795 
L 393.296938 249.191246 
L 393.972057 249.543082 
L 394.615026 249.636205 
L 395.257996 249.503633 
L 395.965263 249.117877 
L 396.318897 248.847813 
L 396.318897 248.847813 
" style="fill:none;stroke:#2ca02c;stroke-linecap:square;stroke-width:1.5;"/>
   </g>
   <g id="patch_3">
    <path d="M 58.523438 355.368 
L 58.523438 7.2 
" style="fill:none;stroke:#000000;stroke-linecap:square;stroke-linejoin:miter;stroke-width:0.8;"/>
   </g>
   <g id="patch_4">
    <path d="M 412.404395 355.368 
L 412.404395 7.2 
" style="fill:none;stroke:#000000;stroke-linecap:square;stroke-linejoin:miter;stroke-width:0.8;"/>
   </g>
   <g id="patch_5">
    <path d="M 58.523438 355.368 
L 412.404395 355.368 
" style="fill:none;stroke:#000000;stroke-linecap:square;stroke-linejoin:miter;stroke-width:0.8;"/>
   </g>
   <g id="patch_6">
    <path d="M 58.523438 7.2 
L 412.404395 7.2 
" style="fill:none;stroke:#000000;stroke-linecap:square;stroke-linejoin:miter;stroke-width:0.8;"/>
   </g>
   <g id="text_15">
    <!-- output with a sine control voltage, biased for am (Vin_b is scaled). -->
    <g transform="translate(36.436416 419.0016)scale(0.12 -0.12)">
     <defs>
      <path d="M 30.609375 48.390625 
Q 23.390625 48.390625 19.1875 42.75 
Q 14.984375 37.109375 14.984375 27.296875 
Q 14.984375 17.484375 19.15625 11.84375 
Q 23.34375 6.203125 30.609375 6.203125 
Q 37.796875 6.203125 41.984375 11.859375 
Q 46.1875 17.53125 46.1875 27.296875 
Q 46.1875 37.015625 41.984375 42.703125 
Q 37.796875 48.390625 30.609375 48.390625 
z
M 30.609375 56 
Q 42.328125 56 49.015625 48.375 
Q 55.71875 40.765625 55.71875 27.296875 
Q 55.71875 13.875 49.015625 6.21875 
Q 42.328125 -1.421875 30.609375 -1.421875 
Q 18.84375 -1.421875 12.171875 6.21875 
Q 5.515625 13.875 5.515625 27.296875 
Q 5.515625 40.765625 12.171875 48.375 
Q 18.84375 56 30.609375 56 
z
" id="DejaVuSans-111"/>
      <path d="M 8.5 21.578125 
L 8.5 54.6875 
L 17.484375 54.6875 
L 17.484375 21.921875 
Q 17.484375 14.15625 20.5 10.265625 
Q 23.53125 6.390625 29.59375 6.390625 
Q 36.859375 6.390625 41.078125 11.03125 
Q 45.3125 15.671875 45.3125 23.6875 
L 45.3125 54.6875 
L 54.296875 54.6875 
L 54.296875 0 
L 45.3125 0 
L 45.3125 8.40625 
Q 42.046875 3.421875 37.71875 1 
Q 33.40625 -1.421875 27.6875 -1.421875 
Q 18.265625 -1.421875 13.375 4.4375 
Q 8.5 10.296875 8.5 21.578125 
z
M 31.109375 56 
z
" id="DejaVuSans-117"/>
      <path d="M 18.109375 8.203125 
L 18.109375 -20.796875 
L 9.078125 -20.796875 
L 9.078125 54.6875 
L 18.109375 54.6875 
L 18.109375 46.390625 
Q 20.953125 51.265625 25.265625 53.625 
Q 29.59375 56 35.59375 56 
Q 45.5625 56 51.78125 48.09375 
Q 58.015625 40.1875 58.015625 27.296875 
Q 58.015625 14.40625 51.78125 6.484375 
Q 45.5625 -1.421875 35.59375 -1.421875 
Q 29.59375 -1.421875 25.265625 0.953125 
Q 20.953125 3.328125 18.109375 8.203125 
z
M 48.6875 27.296875 
Q 48.6875 37.203125 44.609375 42.84375 
Q 40.53125 48.484375 33.40625 48.484375 
Q 26.265625 48.484375 22.1875 42.84375 
Q 18.109375 37.203125 18.109375 27.296875 
Q 18.109375 17.390625 22.1875 11.75 
Q 26.265625 6.109375 33.40625 6.109375 
Q 40.53125 6.109375 44.609375 11.75 
Q 48.6875 17.390625 48.6875 27.296875 
z
" id="DejaVuSans-112"/>
      <path d="M 4.203125 54.6875 
L 13.1875 54.6875 
L 24.421875 12.015625 
L 35.59375 54.6875 
L 46.1875 54.6875 
L 57.421875 12.015625 
L 68.609375 54.6875 
L 77.59375 54.6875 
L 63.28125 0 
L 52.6875 0 
L 40.921875 44.828125 
L 29.109375 0 
L 18.5 0 
z
" id="DejaVuSans-119"/>
      <path d="M 9.421875 54.6875 
L 18.40625 54.6875 
L 18.40625 0 
L 9.421875 0 
z
M 9.421875 75.984375 
L 18.40625 75.984375 
L 18.40625 64.59375 
L 9.421875 64.59375 
z
" id="DejaVuSans-105"/>
      <path d="M 54.890625 33.015625 
L 54.890625 0 
L 45.90625 0 
L 45.90625 32.71875 
Q 45.90625 40.484375 42.875 44.328125 
Q 39.84375 48.1875 33.796875 48.1875 
Q 26.515625 48.1875 22.3125 43.546875 
Q 18.109375 38.921875 18.109375 30.90625 
L 18.109375 0 
L 9.078125 0 
L 9.078125 75.984375 
L 18.109375 75.984375 
L 18.109375 46.1875 
Q 21.34375 51.125 25.703125 53.5625 
Q 30.078125 56 35.796875 56 
Q 45.21875 56 50.046875 50.171875 
Q 54.890625 44.34375 54.890625 33.015625 
z
" id="DejaVuSans-104"/>
      <path d="M 34.28125 27.484375 
Q 23.390625 27.484375 19.1875 25 
Q 14.984375 22.515625 14.984375 16.5 
Q 14.984375 11.71875 18.140625 8.90625 
Q 21.296875 6.109375 26.703125 6.109375 
Q 34.1875 6.109375 38.703125 11.40625 
Q 43.21875 16.703125 43.21875 25.484375 
L 43.21875 27.484375 
z
M 52.203125 31.203125 
L 52.203125 0 
L 43.21875 0 
L 43.21875 8.296875 
Q 40.140625 3.328125 35.546875 0.953125 
Q 30.953125 -1.421875 24.3125 -1.421875 
Q 15.921875 -1.421875 10.953125 3.296875 
Q 6 8.015625 6 15.921875 
Q 6 25.140625 12.171875 29.828125 
Q 18.359375 34.515625 30.609375 34.515625 
L 43.21875 34.515625 
L 43.21875 35.40625 
Q 43.21875 41.609375 39.140625 45 
Q 35.0625 48.390625 27.6875 48.390625 
Q 23 48.390625 18.546875 47.265625 
Q 14.109375 46.140625 10.015625 43.890625 
L 10.015625 52.203125 
Q 14.9375 54.109375 19.578125 55.046875 
Q 24.21875 56 28.609375 56 
Q 40.484375 56 46.34375 49.84375 
Q 52.203125 43.703125 52.203125 31.203125 
z
" id="DejaVuSans-97"/>
      <path d="M 54.890625 33.015625 
L 54.890625 0 
L 45.90625 0 
L 45.90625 32.71875 
Q 45.90625 40.484375 42.875 44.328125 
Q 39.84375 48.1875 33.796875 48.1875 
Q 26.515625 48.1875 22.3125 43.546875 
Q 18.109375 38.921875 18.109375 30.90625 
L 18.109375 0 
L 9.078125 0 
L 9.078125 54.6875 
L 18.109375 54.6875 
L 18.109375 46.1875 
Q 21.34375 51.125 25.703125 53.5625 
Q 30.078125 56 35.796875 56 
Q 45.21875 56 50.046875 50.171875 
Q 54.890625 44.34375 54.890625 33.015625 
z
" id="DejaVuSans-110"/>
      <path d="M 56.203125 29.59375 
L 56.203125 25.203125 
L 14.890625 25.203125 
Q 15.484375 15.921875 20.484375 11.0625 
Q 25.484375 6.203125 34.421875 6.203125 
Q 39.59375 6.203125 44.453125 7.46875 
Q 49.3125 8.734375 54.109375 11.28125 
L 54.109375 2.78125 
Q 49.265625 0.734375 44.1875 -0.34375 
Q 39.109375 -1.421875 33.890625 -1.421875 
Q 20.796875 -1.421875 13.15625 6.1875 
Q 5.515625 13.8125 5.515625 26.8125 
Q 5.515625 40.234375 12.765625 48.109375 
Q 20.015625 56 32.328125 56 
Q 43.359375 56 49.78125 48.890625 
Q 56.203125 41.796875 56.203125 29.59375 
z
M 47.21875 32.234375 
Q 47.125 39.59375 43.09375 43.984375 
Q 39.0625 48.390625 32.421875 48.390625 
Q 24.90625 48.390625 20.390625 44.140625 
Q 15.875 39.890625 15.1875 32.171875 
z
" id="DejaVuSans-101"/>
      <path d="M 48.78125 52.59375 
L 48.78125 44.1875 
Q 44.96875 46.296875 41.140625 47.34375 
Q 37.3125 48.390625 33.40625 48.390625 
Q 24.65625 48.390625 19.8125 42.84375 
Q 14.984375 37.3125 14.984375 27.296875 
Q 14.984375 17.28125 19.8125 11.734375 
Q 24.65625 6.203125 33.40625 6.203125 
Q 37.3125 6.203125 41.140625 7.25 
Q 44.96875 8.296875 48.78125 10.40625 
L 48.78125 2.09375 
Q 45.015625 0.34375 40.984375 -0.53125 
Q 36.96875 -1.421875 32.421875 -1.421875 
Q 20.0625 -1.421875 12.78125 6.34375 
Q 5.515625 14.109375 5.515625 27.296875 
Q 5.515625 40.671875 12.859375 48.328125 
Q 20.21875 56 33.015625 56 
Q 37.15625 56 41.109375 55.140625 
Q 45.0625 54.296875 48.78125 52.59375 
z
" id="DejaVuSans-99"/>
      <path d="M 41.109375 46.296875 
Q 39.59375 47.171875 37.8125 47.578125 
Q 36.03125 48 33.890625 48 
Q 26.265625 48 22.1875 43.046875 
Q 18.109375 38.09375 18.109375 28.8125 
L 18.109375 0 
L 9.078125 0 
L 9.078125 54.6875 
L 18.109375 54.6875 
L 18.109375 46.1875 
Q 20.953125 51.171875 25.484375 53.578125 
Q 30.03125 56 36.53125 56 
Q 37.453125 56 38.578125 55.875 
Q 39.703125 55.765625 41.0625 55.515625 
z
" id="DejaVuSans-114"/>
      <path d="M 9.421875 75.984375 
L 18.40625 75.984375 
L 18.40625 0 
L 9.421875 0 
z
" id="DejaVuSans-108"/>
      <path d="M 2.984375 54.6875 
L 12.5 54.6875 
L 29.59375 8.796875 
L 46.6875 54.6875 
L 56.203125 54.6875 
L 35.6875 0 
L 23.484375 0 
z
" id="DejaVuSans-118"/>
      <path d="M 45.40625 27.984375 
Q 45.40625 37.75 41.375 43.109375 
Q 37.359375 48.484375 30.078125 48.484375 
Q 22.859375 48.484375 18.828125 43.109375 
Q 14.796875 37.75 14.796875 27.984375 
Q 14.796875 18.265625 18.828125 12.890625 
Q 22.859375 7.515625 30.078125 7.515625 
Q 37.359375 7.515625 41.375 12.890625 
Q 45.40625 18.265625 45.40625 27.984375 
z
M 54.390625 6.78125 
Q 54.390625 -7.171875 48.1875 -13.984375 
Q 42 -20.796875 29.203125 -20.796875 
Q 24.46875 -20.796875 20.265625 -20.09375 
Q 16.0625 -19.390625 12.109375 -17.921875 
L 12.109375 -9.1875 
Q 16.0625 -11.328125 19.921875 -12.34375 
Q 23.78125 -13.375 27.78125 -13.375 
Q 36.625 -13.375 41.015625 -8.765625 
Q 45.40625 -4.15625 45.40625 5.171875 
L 45.40625 9.625 
Q 42.625 4.78125 38.28125 2.390625 
Q 33.9375 0 27.875 0 
Q 17.828125 0 11.671875 7.65625 
Q 5.515625 15.328125 5.515625 27.984375 
Q 5.515625 40.671875 11.671875 48.328125 
Q 17.828125 56 27.875 56 
Q 33.9375 56 38.28125 53.609375 
Q 42.625 51.21875 45.40625 46.390625 
L 45.40625 54.6875 
L 54.390625 54.6875 
z
" id="DejaVuSans-103"/>
      <path d="M 11.71875 12.40625 
L 22.015625 12.40625 
L 22.015625 4 
L 14.015625 -11.625 
L 7.71875 -11.625 
L 11.71875 4 
z
" id="DejaVuSans-44"/>
      <path d="M 48.6875 27.296875 
Q 48.6875 37.203125 44.609375 42.84375 
Q 40.53125 48.484375 33.40625 48.484375 
Q 26.265625 48.484375 22.1875 42.84375 
Q 18.109375 37.203125 18.109375 27.296875 
Q 18.109375 17.390625 22.1875 11.75 
Q 26.265625 6.109375 33.40625 6.109375 
Q 40.53125 6.109375 44.609375 11.75 
Q 48.6875 17.390625 48.6875 27.296875 
z
M 18.109375 46.390625 
Q 20.953125 51.265625 25.265625 53.625 
Q 29.59375 56 35.59375 56 
Q 45.5625 56 51.78125 48.09375 
Q 58.015625 40.1875 58.015625 27.296875 
Q 58.015625 14.40625 51.78125 6.484375 
Q 45.5625 -1.421875 35.59375 -1.421875 
Q 29.59375 -1.421875 25.265625 0.953125 
Q 20.953125 3.328125 18.109375 8.203125 
L 18.109375 0 
L 9.078125 0 
L 9.078125 75.984375 
L 18.109375 75.984375 
z
" id="DejaVuSans-98"/>
      <path d="M 45.40625 46.390625 
L 45.40625 75.984375 
L 54.390625 75.984375 
L 54.390625 0 
L 45.40625 0 
L 45.40625 8.203125 
Q 42.578125 3.328125 38.25 0.953125 
Q 33.9375 -1.421875 27.875 -1.421875 
Q 17.96875 -1.421875 11.734375 6.484375 
Q 5.515625 14.40625 5.515625 27.296875 
Q 5.515625 40.1875 11.734375 48.09375 
Q 17.96875 56 27.875 56 
Q 33.9375 56 38.25 53.625 
Q 42.578125 51.265625 45.40625 46.390625 
z
M 14.796875 27.296875 
Q 14.796875 17.390625 18.875 11.75 
Q 22.953125 6.109375 30.078125 6.109375 
Q 37.203125 6.109375 41.296875 11.75 
Q 45.40625 17.390625 45.40625 27.296875 
Q 45.40625 37.203125 41.296875 42.84375 
Q 37.203125 48.484375 30.078125 48.484375 
Q 22.953125 48.484375 18.875 42.84375 
Q 14.796875 37.203125 14.796875 27.296875 
z
" id="DejaVuSans-100"/>
      <path d="M 37.109375 75.984375 
L 37.109375 68.5 
L 28.515625 68.5 
Q 23.6875 68.5 21.796875 66.546875 
Q 19.921875 64.59375 19.921875 59.515625 
L 19.921875 54.6875 
L 34.71875 54.6875 
L 34.71875 47.703125 
L 19.921875 47.703125 
L 19.921875 0 
L 10.890625 0 
L 10.890625 47.703125 
L 2.296875 47.703125 
L 2.296875 54.6875 
L 10.890625 54.6875 
L 10.890625 58.5 
Q 10.890625 67.625 15.140625 71.796875 
Q 19.390625 75.984375 28.609375 75.984375 
z
" id="DejaVuSans-102"/>
      <path d="M 52 44.1875 
Q 55.375 50.25 60.0625 53.125 
Q 64.75 56 71.09375 56 
Q 79.640625 56 84.28125 50.015625 
Q 88.921875 44.046875 88.921875 33.015625 
L 88.921875 0 
L 79.890625 0 
L 79.890625 32.71875 
Q 79.890625 40.578125 77.09375 44.375 
Q 74.3125 48.1875 68.609375 48.1875 
Q 61.625 48.1875 57.5625 43.546875 
Q 53.515625 38.921875 53.515625 30.90625 
L 53.515625 0 
L 44.484375 0 
L 44.484375 32.71875 
Q 44.484375 40.625 41.703125 44.40625 
Q 38.921875 48.1875 33.109375 48.1875 
Q 26.21875 48.1875 22.15625 43.53125 
Q 18.109375 38.875 18.109375 30.90625 
L 18.109375 0 
L 9.078125 0 
L 9.078125 54.6875 
L 18.109375 54.6875 
L 18.109375 46.1875 
Q 21.1875 51.21875 25.484375 53.609375 
Q 29.78125 56 35.6875 56 
Q 41.65625 56 45.828125 52.96875 
Q 50 49.953125 52 44.1875 
z
" id="DejaVuSans-109"/>
      <path d="M 31 75.875 
Q 24.46875 64.65625 21.28125 53.65625 
Q 18.109375 42.671875 18.109375 31.390625 
Q 18.109375 20.125 21.3125 9.0625 
Q 24.515625 -2 31 -13.1875 
L 23.1875 -13.1875 
Q 15.875 -1.703125 12.234375 9.375 
Q 8.59375 20.453125 8.59375 31.390625 
Q 8.59375 42.28125 12.203125 53.3125 
Q 15.828125 64.359375 23.1875 75.875 
z
" id="DejaVuSans-40"/>
      <path d="M 50.984375 -16.609375 
L 50.984375 -23.578125 
L -0.984375 -23.578125 
L -0.984375 -16.609375 
z
" id="DejaVuSans-95"/>
      <path d="M 8.015625 75.875 
L 15.828125 75.875 
Q 23.140625 64.359375 26.78125 53.3125 
Q 30.421875 42.28125 30.421875 31.390625 
Q 30.421875 20.453125 26.78125 9.375 
Q 23.140625 -1.703125 15.828125 -13.1875 
L 8.015625 -13.1875 
Q 14.5 -2 17.703125 9.0625 
Q 20.90625 20.125 20.90625 31.390625 
Q 20.90625 42.671875 17.703125 53.65625 
Q 14.5 64.65625 8.015625 75.875 
z
" id="DejaVuSans-41"/>
     </defs>
     <use xlink:href="#DejaVuSans-111"/>
     <use x="61.181641" xlink:href="#DejaVuSans-117"/>
     <use x="124.560547" xlink:href="#DejaVuSans-116"/>
     <use x="163.769531" xlink:href="#DejaVuSans-112"/>
     <use x="227.246094" xlink:href="#DejaVuSans-117"/>
     <use x="290.625" xlink:href="#DejaVuSans-116"/>
     <use x="329.833984" xlink:href="#DejaVuSans-32"/>
     <use x="361.621094" xlink:href="#DejaVuSans-119"/>
     <use x="443.408203" xlink:href="#DejaVuSans-105"/>
     <use x="471.191406" xlink:href="#DejaVuSans-116"/>
     <use x="510.400391" xlink:href="#DejaVuSans-104"/>
     <use x="573.779297" xlink:href="#DejaVuSans-32"/>
     <use x="605.566406" xlink:href="#DejaVuSans-97"/>
     <use x="666.845703" xlink:href="#DejaVuSans-32"/>
     <use x="698.632812" xlink:href="#DejaVuSans-115"/>
     <use x="750.732422" xlink:href="#DejaVuSans-105"/>
     <use x="778.515625" xlink:href="#DejaVuSans-110"/>
     <use x="841.894531" xlink:href="#DejaVuSans-101"/>
     <use x="903.417969" xlink:href="#DejaVuSans-32"/>
     <use x="935.205078" xlink:href="#DejaVuSans-99"/>
     <use x="990.185547" xlink:href="#DejaVuSans-111"/>
     <use x="1051.367188" xlink:href="#DejaVuSans-110"/>
     <use x="1114.746094" xlink:href="#DejaVuSans-116"/>
     <use x="1153.955078" xlink:href="#DejaVuSans-114"/>
     <use x="1192.818359" xlink:href="#DejaVuSans-111"/>
     <use x="1254" xlink:href="#DejaVuSans-108"/>
     <use x="1281.783203" xlink:href="#DejaVuSans-32"/>
     <use x="1313.570312" xlink:href="#DejaVuSans-118"/>
     <use x="1372.75" xlink:href="#DejaVuSans-111"/>
     <use x="1433.931641" xlink:href="#DejaVuSans-108"/>
     <use x="1461.714844" xlink:href="#DejaVuSans-116"/>
     <use x="1500.923828" xlink:href="#DejaVuSans-97"/>
     <use x="1562.203125" xlink:href="#DejaVuSans-103"/>
     <use x="1625.679688" xlink:href="#DejaVuSans-101"/>
     <use x="1687.203125" xlink:href="#DejaVuSans-44"/>
     <use x="1718.990234" xlink:href="#DejaVuSans-32"/>
     <use x="1750.777344" xlink:href="#DejaVuSans-98"/>
     <use x="1814.253906" xlink:href="#DejaVuSans-105"/>
     <use x="1842.037109" xlink:href="#DejaVuSans-97"/>
     <use x="1903.316406" xlink:href="#DejaVuSans-115"/>
     <use x="1955.416016" xlink:href="#DejaVuSans-101"/>
     <use x="2016.939453" xlink:href="#DejaVuSans-100"/>
     <use x="2080.416016" xlink:href="#DejaVuSans-32"/>
     <use x="2112.203125" xlink:href="#DejaVuSans-102"/>
     <use x="2147.408203" xlink:href="#DejaVuSans-111"/>
     <use x="2208.589844" xlink:href="#DejaVuSans-114"/>
     <use x="2249.703125" xlink:href="#DejaVuSans-32"/>
     <use x="2281.490234" xlink:href="#DejaVuSans-97"/>
     <use x="2342.769531" xlink:href="#DejaVuSans-109"/>
     <use x="2440.181641" xlink:href="#DejaVuSans-32"/>
     <use x="2471.96875" xlink:href="#DejaVuSans-40"/>
     <use x="2510.982422" xlink:href="#DejaVuSans-86"/>
     <use x="2577.140625" xlink:href="#DejaVuSans-105"/>
     <use x="2604.923828" xlink:href="#DejaVuSans-110"/>
     <use x="2668.302734" xlink:href="#DejaVuSans-95"/>
     <use x="2718.302734" xlink:href="#DejaVuSans-98"/>
     <use x="2781.779297" xlink:href="#DejaVuSans-32"/>
     <use x="2813.566406" xlink:href="#DejaVuSans-105"/>
     <use x="2841.349609" xlink:href="#DejaVuSans-115"/>
     <use x="2893.449219" xlink:href="#DejaVuSans-32"/>
     <use x="2925.236328" xlink:href="#DejaVuSans-115"/>
     <use x="2977.335938" xlink:href="#DejaVuSans-99"/>
     <use x="3032.316406" xlink:href="#DejaVuSans-97"/>
     <use x="3093.595703" xlink:href="#DejaVuSans-108"/>
     <use x="3121.378906" xlink:href="#DejaVuSans-101"/>
     <use x="3182.902344" xlink:href="#DejaVuSans-100"/>
     <use x="3246.378906" xlink:href="#DejaVuSans-41"/>
     <use x="3285.392578" xlink:href="#DejaVuSans-46"/>
    </g>
   </g>
   <g id="legend_1">
    <g id="patch_7">
     <path d="M 343.628203 76.8336 
L 438.492266 76.8336 
Q 440.492266 76.8336 440.492266 74.8336 
L 440.492266 31.799225 
Q 440.492266 29.799225 438.492266 29.799225 
L 343.628203 29.799225 
Q 341.628203 29.799225 341.628203 31.799225 
L 341.628203 74.8336 
Q 341.628203 76.8336 343.628203 76.8336 
z
" style="fill:#ffffff;opacity:0.8;stroke:#cccccc;stroke-linejoin:miter;"/>
    </g>
    <g id="line2d_28">
     <path d="M 345.628203 37.897663 
L 365.628203 37.897663 
" style="fill:none;stroke:#1f77b4;stroke-linecap:square;stroke-width:1.5;"/>
    </g>
    <g id="line2d_29"/>
    <g id="text_16">
     <!-- Vinput b  [V] -->
     <g transform="translate(373.628203 41.397663)scale(0.1 -0.1)">
      <use xlink:href="#DejaVuSans-86"/>
      <use x="66.158203" xlink:href="#DejaVuSans-105"/>
      <use x="93.941406" xlink:href="#DejaVuSans-110"/>
      <use x="157.320312" xlink:href="#DejaVuSans-112"/>
      <use x="220.796875" xlink:href="#DejaVuSans-117"/>
      <use x="284.175781" xlink:href="#DejaVuSans-116"/>
      <use x="323.384766" xlink:href="#DejaVuSans-32"/>
      <use x="355.171875" xlink:href="#DejaVuSans-98"/>
      <use x="418.648438" xlink:href="#DejaVuSans-32"/>
      <use x="450.435547" xlink:href="#DejaVuSans-32"/>
      <use x="482.222656" xlink:href="#DejaVuSans-91"/>
      <use x="521.236328" xlink:href="#DejaVuSans-86"/>
      <use x="589.644531" xlink:href="#DejaVuSans-93"/>
     </g>
    </g>
    <g id="line2d_30">
     <path d="M 345.628203 52.575788 
L 365.628203 52.575788 
" style="fill:none;stroke:#ff7f0e;stroke-linecap:square;stroke-width:1.5;"/>
    </g>
    <g id="line2d_31"/>
    <g id="text_17">
     <!-- Vinput a [V] -->
     <g transform="translate(373.628203 56.075788)scale(0.1 -0.1)">
      <use xlink:href="#DejaVuSans-86"/>
      <use x="66.158203" xlink:href="#DejaVuSans-105"/>
      <use x="93.941406" xlink:href="#DejaVuSans-110"/>
      <use x="157.320312" xlink:href="#DejaVuSans-112"/>
      <use x="220.796875" xlink:href="#DejaVuSans-117"/>
      <use x="284.175781" xlink:href="#DejaVuSans-116"/>
      <use x="323.384766" xlink:href="#DejaVuSans-32"/>
      <use x="355.171875" xlink:href="#DejaVuSans-97"/>
      <use x="416.451172" xlink:href="#DejaVuSans-32"/>
      <use x="448.238281" xlink:href="#DejaVuSans-91"/>
      <use x="487.251953" xlink:href="#DejaVuSans-86"/>
      <use x="555.660156" xlink:href="#DejaVuSans-93"/>
     </g>
    </g>
    <g id="line2d_32">
     <path d="M 345.628203 67.253913 
L 365.628203 67.253913 
" style="fill:none;stroke:#2ca02c;stroke-linecap:square;stroke-width:1.5;"/>
    </g>
    <g id="line2d_33"/>
    <g id="text_18">
     <!-- Vout [V] -->
     <g transform="translate(373.628203 70.753913)scale(0.1 -0.1)">
      <use xlink:href="#DejaVuSans-86"/>
      <use x="60.658203" xlink:href="#DejaVuSans-111"/>
      <use x="121.839844" xlink:href="#DejaVuSans-117"/>
      <use x="185.21875" xlink:href="#DejaVuSans-116"/>
      <use x="224.427734" xlink:href="#DejaVuSans-32"/>
      <use x="256.214844" xlink:href="#DejaVuSans-91"/>
      <use x="295.228516" xlink:href="#DejaVuSans-86"/>
      <use x="363.636719" xlink:href="#DejaVuSans-93"/>
     </g>
    </g>
   </g>
  </g>
  <g id="axes_2">
   <g id="patch_8">
    <path d="M 491.997042 355.368 
L 845.877999 355.368 
L 845.877999 7.2 
L 491.997042 7.2 
z
" style="fill:#ffffff;"/>
   </g>
   <g id="matplotlib.axis_3">
    <g id="xtick_7">
     <g id="line2d_34">
      <g>
       <use style="stroke:#000000;stroke-width:0.8;" x="508.08254" xlink:href="#md26db07ee6" y="355.368"/>
      </g>
     </g>
     <g id="text_19">
      <!-- 0 -->
      <g transform="translate(504.90129 369.966438)scale(0.1 -0.1)">
       <use xlink:href="#DejaVuSans-48"/>
      </g>
     </g>
    </g>
    <g id="xtick_8">
     <g id="line2d_35">
      <g>
       <use style="stroke:#000000;stroke-width:0.8;" x="572.437403" xlink:href="#md26db07ee6" y="355.368"/>
      </g>
     </g>
     <g id="text_20">
      <!-- 1000 -->
      <g transform="translate(559.712403 369.966438)scale(0.1 -0.1)">
       <use xlink:href="#DejaVuSans-49"/>
       <use x="63.623047" xlink:href="#DejaVuSans-48"/>
       <use x="127.246094" xlink:href="#DejaVuSans-48"/>
       <use x="190.869141" xlink:href="#DejaVuSans-48"/>
      </g>
     </g>
    </g>
    <g id="xtick_9">
     <g id="line2d_36">
      <g>
       <use style="stroke:#000000;stroke-width:0.8;" x="636.792266" xlink:href="#md26db07ee6" y="355.368"/>
      </g>
     </g>
     <g id="text_21">
      <!-- 2000 -->
      <g transform="translate(624.067266 369.966438)scale(0.1 -0.1)">
       <use xlink:href="#DejaVuSans-50"/>
       <use x="63.623047" xlink:href="#DejaVuSans-48"/>
       <use x="127.246094" xlink:href="#DejaVuSans-48"/>
       <use x="190.869141" xlink:href="#DejaVuSans-48"/>
      </g>
     </g>
    </g>
    <g id="xtick_10">
     <g id="line2d_37">
      <g>
       <use style="stroke:#000000;stroke-width:0.8;" x="701.147129" xlink:href="#md26db07ee6" y="355.368"/>
      </g>
     </g>
     <g id="text_22">
      <!-- 3000 -->
      <g transform="translate(688.422129 369.966438)scale(0.1 -0.1)">
       <use xlink:href="#DejaVuSans-51"/>
       <use x="63.623047" xlink:href="#DejaVuSans-48"/>
       <use x="127.246094" xlink:href="#DejaVuSans-48"/>
       <use x="190.869141" xlink:href="#DejaVuSans-48"/>
      </g>
     </g>
    </g>
    <g id="xtick_11">
     <g id="line2d_38">
      <g>
       <use style="stroke:#000000;stroke-width:0.8;" x="765.501992" xlink:href="#md26db07ee6" y="355.368"/>
      </g>
     </g>
     <g id="text_23">
      <!-- 4000 -->
      <g transform="translate(752.776992 369.966438)scale(0.1 -0.1)">
       <use xlink:href="#DejaVuSans-52"/>
       <use x="63.623047" xlink:href="#DejaVuSans-48"/>
       <use x="127.246094" xlink:href="#DejaVuSans-48"/>
       <use x="190.869141" xlink:href="#DejaVuSans-48"/>
      </g>
     </g>
    </g>
    <g id="xtick_12">
     <g id="line2d_39">
      <g>
       <use style="stroke:#000000;stroke-width:0.8;" x="829.856855" xlink:href="#md26db07ee6" y="355.368"/>
      </g>
     </g>
     <g id="text_24">
      <!-- 5000 -->
      <g transform="translate(817.131855 369.966438)scale(0.1 -0.1)">
       <defs>
        <path d="M 10.796875 72.90625 
L 49.515625 72.90625 
L 49.515625 64.59375 
L 19.828125 64.59375 
L 19.828125 46.734375 
Q 21.96875 47.46875 24.109375 47.828125 
Q 26.265625 48.1875 28.421875 48.1875 
Q 40.625 48.1875 47.75 41.5 
Q 54.890625 34.8125 54.890625 23.390625 
Q 54.890625 11.625 47.5625 5.09375 
Q 40.234375 -1.421875 26.90625 -1.421875 
Q 22.3125 -1.421875 17.546875 -0.640625 
Q 12.796875 0.140625 7.71875 1.703125 
L 7.71875 11.625 
Q 12.109375 9.234375 16.796875 8.0625 
Q 21.484375 6.890625 26.703125 6.890625 
Q 35.15625 6.890625 40.078125 11.328125 
Q 45.015625 15.765625 45.015625 23.390625 
Q 45.015625 31 40.078125 35.4375 
Q 35.15625 39.890625 26.703125 39.890625 
Q 22.75 39.890625 18.8125 39.015625 
Q 14.890625 38.140625 10.796875 36.28125 
z
" id="DejaVuSans-53"/>
       </defs>
       <use xlink:href="#DejaVuSans-53"/>
       <use x="63.623047" xlink:href="#DejaVuSans-48"/>
       <use x="127.246094" xlink:href="#DejaVuSans-48"/>
       <use x="190.869141" xlink:href="#DejaVuSans-48"/>
      </g>
     </g>
    </g>
   </g>
   <g id="matplotlib.axis_4">
    <g id="ytick_7">
     <g id="line2d_40">
      <g>
       <use style="stroke:#000000;stroke-width:0.8;" x="491.997042" xlink:href="#m006c0b84f6" y="339.542244"/>
      </g>
     </g>
     <g id="text_25">
      <!-- 0.00 -->
      <g transform="translate(462.731417 343.341463)scale(0.1 -0.1)">
       <use xlink:href="#DejaVuSans-48"/>
       <use x="63.623047" xlink:href="#DejaVuSans-46"/>
       <use x="95.410156" xlink:href="#DejaVuSans-48"/>
       <use x="159.033203" xlink:href="#DejaVuSans-48"/>
      </g>
     </g>
    </g>
    <g id="ytick_8">
     <g id="line2d_41">
      <g>
       <use style="stroke:#000000;stroke-width:0.8;" x="491.997042" xlink:href="#m006c0b84f6" y="277.47369"/>
      </g>
     </g>
     <g id="text_26">
      <!-- 0.01 -->
      <g transform="translate(462.731417 281.272909)scale(0.1 -0.1)">
       <use xlink:href="#DejaVuSans-48"/>
       <use x="63.623047" xlink:href="#DejaVuSans-46"/>
       <use x="95.410156" xlink:href="#DejaVuSans-48"/>
       <use x="159.033203" xlink:href="#DejaVuSans-49"/>
      </g>
     </g>
    </g>
    <g id="ytick_9">
     <g id="line2d_42">
      <g>
       <use style="stroke:#000000;stroke-width:0.8;" x="491.997042" xlink:href="#m006c0b84f6" y="215.405136"/>
      </g>
     </g>
     <g id="text_27">
      <!-- 0.02 -->
      <g transform="translate(462.731417 219.204355)scale(0.1 -0.1)">
       <use xlink:href="#DejaVuSans-48"/>
       <use x="63.623047" xlink:href="#DejaVuSans-46"/>
       <use x="95.410156" xlink:href="#DejaVuSans-48"/>
       <use x="159.033203" xlink:href="#DejaVuSans-50"/>
      </g>
     </g>
    </g>
    <g id="ytick_10">
     <g id="line2d_43">
      <g>
       <use style="stroke:#000000;stroke-width:0.8;" x="491.997042" xlink:href="#m006c0b84f6" y="153.336582"/>
      </g>
     </g>
     <g id="text_28">
      <!-- 0.03 -->
      <g transform="translate(462.731417 157.135801)scale(0.1 -0.1)">
       <use xlink:href="#DejaVuSans-48"/>
       <use x="63.623047" xlink:href="#DejaVuSans-46"/>
       <use x="95.410156" xlink:href="#DejaVuSans-48"/>
       <use x="159.033203" xlink:href="#DejaVuSans-51"/>
      </g>
     </g>
    </g>
    <g id="ytick_11">
     <g id="line2d_44">
      <g>
       <use style="stroke:#000000;stroke-width:0.8;" x="491.997042" xlink:href="#m006c0b84f6" y="91.268029"/>
      </g>
     </g>
     <g id="text_29">
      <!-- 0.04 -->
      <g transform="translate(462.731417 95.067247)scale(0.1 -0.1)">
       <use xlink:href="#DejaVuSans-48"/>
       <use x="63.623047" xlink:href="#DejaVuSans-46"/>
       <use x="95.410156" xlink:href="#DejaVuSans-48"/>
       <use x="159.033203" xlink:href="#DejaVuSans-52"/>
      </g>
     </g>
    </g>
    <g id="ytick_12">
     <g id="line2d_45">
      <g>
       <use style="stroke:#000000;stroke-width:0.8;" x="491.997042" xlink:href="#m006c0b84f6" y="29.199475"/>
      </g>
     </g>
     <g id="text_30">
      <!-- 0.05 -->
      <g transform="translate(462.731417 32.998694)scale(0.1 -0.1)">
       <use xlink:href="#DejaVuSans-48"/>
       <use x="63.623047" xlink:href="#DejaVuSans-46"/>
       <use x="95.410156" xlink:href="#DejaVuSans-48"/>
       <use x="159.033203" xlink:href="#DejaVuSans-53"/>
      </g>
     </g>
    </g>
   </g>
   <g id="line2d_46">
    <path clip-path="url(#pda4a8d0c0d)" d="M 508.08254 23.025818 
L 508.146843 338.384035 
L 508.211146 335.036204 
L 508.339753 339.386403 
L 508.404057 339.043585 
L 508.46836 339.457743 
L 508.532664 338.704359 
L 508.596967 339.310865 
L 508.66127 294.914847 
L 508.725574 338.1672 
L 508.789877 294.697316 
L 508.854181 339.155084 
L 508.918484 338.424591 
L 508.982787 339.427068 
L 509.047091 338.945193 
L 509.111394 339.479157 
L 509.175698 339.451228 
L 509.240001 339.491338 
L 509.304304 339.34054 
L 509.368608 339.506428 
L 509.432911 339.39687 
L 509.625822 339.513165 
L 514.31997 339.539552 
L 705.043885 339.542169 
L 829.792501 339.542182 
L 829.792501 339.542182 
" style="fill:none;stroke:#1f77b4;stroke-linecap:square;stroke-width:1.5;"/>
   </g>
   <g id="patch_9">
    <path d="M 491.997042 355.368 
L 491.997042 7.2 
" style="fill:none;stroke:#000000;stroke-linecap:square;stroke-linejoin:miter;stroke-width:0.8;"/>
   </g>
   <g id="patch_10">
    <path d="M 845.877999 355.368 
L 845.877999 7.2 
" style="fill:none;stroke:#000000;stroke-linecap:square;stroke-linejoin:miter;stroke-width:0.8;"/>
   </g>
   <g id="patch_11">
    <path d="M 491.997042 355.368 
L 845.877999 355.368 
" style="fill:none;stroke:#000000;stroke-linecap:square;stroke-linejoin:miter;stroke-width:0.8;"/>
   </g>
   <g id="patch_12">
    <path d="M 491.997042 7.2 
L 845.877999 7.2 
" style="fill:none;stroke:#000000;stroke-linecap:square;stroke-linejoin:miter;stroke-width:0.8;"/>
   </g>
  </g>
  <g id="axes_3">
   <g id="patch_13">
    <path d="M 925.470646 355.368 
L 1279.351603 355.368 
L 1279.351603 7.2 
L 925.470646 7.2 
z
" style="fill:#ffffff;"/>
   </g>
   <g id="matplotlib.axis_5">
    <g id="xtick_13">
     <g id="line2d_47">
      <g>
       <use style="stroke:#000000;stroke-width:0.8;" x="941.556144" xlink:href="#md26db07ee6" y="355.368"/>
      </g>
     </g>
     <g id="text_31">
      <!-- 0 -->
      <g transform="translate(938.374894 369.966438)scale(0.1 -0.1)">
       <use xlink:href="#DejaVuSans-48"/>
      </g>
     </g>
    </g>
    <g id="xtick_14">
     <g id="line2d_48">
      <g>
       <use style="stroke:#000000;stroke-width:0.8;" x="1005.853128" xlink:href="#md26db07ee6" y="355.368"/>
      </g>
     </g>
     <g id="text_32">
      <!-- 2000 -->
      <g transform="translate(993.128128 369.966438)scale(0.1 -0.1)">
       <use xlink:href="#DejaVuSans-50"/>
       <use x="63.623047" xlink:href="#DejaVuSans-48"/>
       <use x="127.246094" xlink:href="#DejaVuSans-48"/>
       <use x="190.869141" xlink:href="#DejaVuSans-48"/>
      </g>
     </g>
    </g>
    <g id="xtick_15">
     <g id="line2d_49">
      <g>
       <use style="stroke:#000000;stroke-width:0.8;" x="1070.150112" xlink:href="#md26db07ee6" y="355.368"/>
      </g>
     </g>
     <g id="text_33">
      <!-- 4000 -->
      <g transform="translate(1057.425112 369.966438)scale(0.1 -0.1)">
       <use xlink:href="#DejaVuSans-52"/>
       <use x="63.623047" xlink:href="#DejaVuSans-48"/>
       <use x="127.246094" xlink:href="#DejaVuSans-48"/>
       <use x="190.869141" xlink:href="#DejaVuSans-48"/>
      </g>
     </g>
    </g>
    <g id="xtick_16">
     <g id="line2d_50">
      <g>
       <use style="stroke:#000000;stroke-width:0.8;" x="1134.447097" xlink:href="#md26db07ee6" y="355.368"/>
      </g>
     </g>
     <g id="text_34">
      <!-- 6000 -->
      <g transform="translate(1121.722097 369.966438)scale(0.1 -0.1)">
       <use xlink:href="#DejaVuSans-54"/>
       <use x="63.623047" xlink:href="#DejaVuSans-48"/>
       <use x="127.246094" xlink:href="#DejaVuSans-48"/>
       <use x="190.869141" xlink:href="#DejaVuSans-48"/>
      </g>
     </g>
    </g>
    <g id="xtick_17">
     <g id="line2d_51">
      <g>
       <use style="stroke:#000000;stroke-width:0.8;" x="1198.744081" xlink:href="#md26db07ee6" y="355.368"/>
      </g>
     </g>
     <g id="text_35">
      <!-- 8000 -->
      <g transform="translate(1186.019081 369.966438)scale(0.1 -0.1)">
       <use xlink:href="#DejaVuSans-56"/>
       <use x="63.623047" xlink:href="#DejaVuSans-48"/>
       <use x="127.246094" xlink:href="#DejaVuSans-48"/>
       <use x="190.869141" xlink:href="#DejaVuSans-48"/>
      </g>
     </g>
    </g>
    <g id="xtick_18">
     <g id="line2d_52">
      <g>
       <use style="stroke:#000000;stroke-width:0.8;" x="1263.041065" xlink:href="#md26db07ee6" y="355.368"/>
      </g>
     </g>
     <g id="text_36">
      <!-- 10000 -->
      <g transform="translate(1247.134815 369.966438)scale(0.1 -0.1)">
       <use xlink:href="#DejaVuSans-49"/>
       <use x="63.623047" xlink:href="#DejaVuSans-48"/>
       <use x="127.246094" xlink:href="#DejaVuSans-48"/>
       <use x="190.869141" xlink:href="#DejaVuSans-48"/>
       <use x="254.492188" xlink:href="#DejaVuSans-48"/>
      </g>
     </g>
    </g>
   </g>
   <g id="matplotlib.axis_6">
    <g id="ytick_13">
     <g id="line2d_53">
      <g>
       <use style="stroke:#000000;stroke-width:0.8;" x="925.470646" xlink:href="#m006c0b84f6" y="333.69146"/>
      </g>
     </g>
     <g id="text_37">
      <!-- −250 -->
      <g transform="translate(891.003458 337.490679)scale(0.1 -0.1)">
       <use xlink:href="#DejaVuSans-8722"/>
       <use x="83.789062" xlink:href="#DejaVuSans-50"/>
       <use x="147.412109" xlink:href="#DejaVuSans-53"/>
       <use x="211.035156" xlink:href="#DejaVuSans-48"/>
      </g>
     </g>
    </g>
    <g id="ytick_14">
     <g id="line2d_54">
      <g>
       <use style="stroke:#000000;stroke-width:0.8;" x="925.470646" xlink:href="#m006c0b84f6" y="277.187148"/>
      </g>
     </g>
     <g id="text_38">
      <!-- −200 -->
      <g transform="translate(891.003458 280.986367)scale(0.1 -0.1)">
       <use xlink:href="#DejaVuSans-8722"/>
       <use x="83.789062" xlink:href="#DejaVuSans-50"/>
       <use x="147.412109" xlink:href="#DejaVuSans-48"/>
       <use x="211.035156" xlink:href="#DejaVuSans-48"/>
      </g>
     </g>
    </g>
    <g id="ytick_15">
     <g id="line2d_55">
      <g>
       <use style="stroke:#000000;stroke-width:0.8;" x="925.470646" xlink:href="#m006c0b84f6" y="220.682837"/>
      </g>
     </g>
     <g id="text_39">
      <!-- −150 -->
      <g transform="translate(891.003458 224.482056)scale(0.1 -0.1)">
       <use xlink:href="#DejaVuSans-8722"/>
       <use x="83.789062" xlink:href="#DejaVuSans-49"/>
       <use x="147.412109" xlink:href="#DejaVuSans-53"/>
       <use x="211.035156" xlink:href="#DejaVuSans-48"/>
      </g>
     </g>
    </g>
    <g id="ytick_16">
     <g id="line2d_56">
      <g>
       <use style="stroke:#000000;stroke-width:0.8;" x="925.470646" xlink:href="#m006c0b84f6" y="164.178526"/>
      </g>
     </g>
     <g id="text_40">
      <!-- −100 -->
      <g transform="translate(891.003458 167.977744)scale(0.1 -0.1)">
       <use xlink:href="#DejaVuSans-8722"/>
       <use x="83.789062" xlink:href="#DejaVuSans-49"/>
       <use x="147.412109" xlink:href="#DejaVuSans-48"/>
       <use x="211.035156" xlink:href="#DejaVuSans-48"/>
      </g>
     </g>
    </g>
    <g id="ytick_17">
     <g id="line2d_57">
      <g>
       <use style="stroke:#000000;stroke-width:0.8;" x="925.470646" xlink:href="#m006c0b84f6" y="107.674214"/>
      </g>
     </g>
     <g id="text_41">
      <!-- −50 -->
      <g transform="translate(897.365958 111.473433)scale(0.1 -0.1)">
       <use xlink:href="#DejaVuSans-8722"/>
       <use x="83.789062" xlink:href="#DejaVuSans-53"/>
       <use x="147.412109" xlink:href="#DejaVuSans-48"/>
      </g>
     </g>
    </g>
    <g id="ytick_18">
     <g id="line2d_58">
      <g>
       <use style="stroke:#000000;stroke-width:0.8;" x="925.470646" xlink:href="#m006c0b84f6" y="51.169903"/>
      </g>
     </g>
     <g id="text_42">
      <!-- 0 -->
      <g transform="translate(912.108146 54.969121)scale(0.1 -0.1)">
       <use xlink:href="#DejaVuSans-48"/>
      </g>
     </g>
    </g>
   </g>
   <g id="line2d_59">
    <path clip-path="url(#p75efc156ae)" d="M 941.556144 339.542182 
L 941.620441 47.737062 
L 941.684738 51.029344 
L 941.781183 51.755394 
L 941.813332 51.015453 
L 941.84548 23.025818 
L 941.877629 52.350073 
L 941.909777 79.614241 
L 941.974074 50.459514 
L 942.07052 51.128669 
L 942.102668 51.097593 
L 942.134817 51.133672 
L 942.166965 50.986548 
L 942.199114 51.144245 
L 942.231262 51.30041 
L 942.295559 51.169264 
L 942.48845 51.152561 
L 948.403773 51.169487 
L 1262.655283 51.144245 
L 1262.687432 50.986548 
L 1262.751729 51.097593 
L 1262.783877 51.128669 
L 1262.880323 50.459514 
L 1262.912471 50.881426 
L 1262.94462 79.614241 
L 1262.976768 52.350073 
L 1263.008917 23.025818 
L 1263.073214 51.755394 
L 1263.233956 47.737062 
L 1263.266105 52.02207 
L 1263.266105 52.02207 
" style="fill:none;stroke:#1f77b4;stroke-linecap:square;stroke-width:1.5;"/>
   </g>
   <g id="patch_14">
    <path d="M 925.470646 355.368 
L 925.470646 7.2 
" style="fill:none;stroke:#000000;stroke-linecap:square;stroke-linejoin:miter;stroke-width:0.8;"/>
   </g>
   <g id="patch_15">
    <path d="M 1279.351603 355.368 
L 1279.351603 7.2 
" style="fill:none;stroke:#000000;stroke-linecap:square;stroke-linejoin:miter;stroke-width:0.8;"/>
   </g>
   <g id="patch_16">
    <path d="M 925.470646 355.368 
L 1279.351603 355.368 
" style="fill:none;stroke:#000000;stroke-linecap:square;stroke-linejoin:miter;stroke-width:0.8;"/>
   </g>
   <g id="patch_17">
    <path d="M 925.470646 7.2 
L 1279.351603 7.2 
" style="fill:none;stroke:#000000;stroke-linecap:square;stroke-linejoin:miter;stroke-width:0.8;"/>
   </g>
  </g>
 </g>
 <defs>
  <clipPath id="p18b09e9dec">
   <rect height="348.168" width="353.880957" x="58.523438" y="7.2"/>
  </clipPath>
  <clipPath id="pda4a8d0c0d">
   <rect height="348.168" width="353.880957" x="491.997042" y="7.2"/>
  </clipPath>
  <clipPath id="p75efc156ae">
   <rect height="348.168" width="353.880957" x="925.470646" y="7.2"/>
  </clipPath>
 </defs>
</svg>
