<?xml version="1.0" encoding="utf-8" standalone="no"?>
<!DOCTYPE svg PUBLIC "-//W3C//DTD SVG 1.1//EN"
  "http://www.w3.org/Graphics/SVG/1.1/DTD/svg11.dtd">
<!-- Created with matplotlib (https://matplotlib.org/) -->
<svg height="428.051945pt" version="1.1" viewBox="0 0 1278.293278 428.051945" width="1278.293278pt" xmlns="http://www.w3.org/2000/svg" xmlns:xlink="http://www.w3.org/1999/xlink">
 <metadata>
  <rdf:RDF xmlns:cc="http://creativecommons.org/ns#" xmlns:dc="http://purl.org/dc/elements/1.1/" xmlns:rdf="http://www.w3.org/1999/02/22-rdf-syntax-ns#">
   <cc:Work>
    <dc:type rdf:resource="http://purl.org/dc/dcmitype/StillImage"/>
    <dc:date>2020-08-23T14:48:16.367836</dc:date>
    <dc:format>image/svg+xml</dc:format>
    <dc:creator>
     <cc:Agent>
      <dc:title>Matplotlib v3.3.0, https://matplotlib.org/</dc:title>
     </cc:Agent>
    </dc:creator>
   </cc:Work>
  </rdf:RDF>
 </metadata>
 <defs>
  <style type="text/css">*{stroke-linecap:butt;stroke-linejoin:round;}</style>
 </defs>
 <g id="figure_1">
  <g id="patch_1">
   <path d="M 0 428.051945 
L 1278.293278 428.051945 
L 1278.293278 0 
L 0 0 
z
" style="fill:none;"/>
  </g>
  <g id="axes_1">
   <g id="patch_2">
    <path d="M 56.50625 355.158828 
L 402.896936 355.158828 
L 402.896936 10.840117 
L 56.50625 10.840117 
z
" style="fill:#ffffff;"/>
   </g>
   <g id="matplotlib.axis_1">
    <g id="xtick_1">
     <g id="line2d_1">
      <path clip-path="url(#p2229e04eeb)" d="M 72.251281 355.158828 
L 72.251281 10.840117 
" style="fill:none;stroke:#b0b0b0;stroke-linecap:square;stroke-width:0.8;"/>
     </g>
     <g id="line2d_2">
      <defs>
       <path d="M 0 0 
L 0 3.5 
" id="m0014944ce6" style="stroke:#000000;stroke-width:0.8;"/>
      </defs>
      <g>
       <use style="stroke:#000000;stroke-width:0.8;" x="72.251281" xlink:href="#m0014944ce6" y="355.158828"/>
      </g>
     </g>
     <g id="text_1">
      <!-- 0 -->
      <g transform="translate(69.070031 369.757266)scale(0.1 -0.1)">
       <defs>
        <path d="M 31.78125 66.40625 
Q 24.171875 66.40625 20.328125 58.90625 
Q 16.5 51.421875 16.5 36.375 
Q 16.5 21.390625 20.328125 13.890625 
Q 24.171875 6.390625 31.78125 6.390625 
Q 39.453125 6.390625 43.28125 13.890625 
Q 47.125 21.390625 47.125 36.375 
Q 47.125 51.421875 43.28125 58.90625 
Q 39.453125 66.40625 31.78125 66.40625 
z
M 31.78125 74.21875 
Q 44.046875 74.21875 50.515625 64.515625 
Q 56.984375 54.828125 56.984375 36.375 
Q 56.984375 17.96875 50.515625 8.265625 
Q 44.046875 -1.421875 31.78125 -1.421875 
Q 19.53125 -1.421875 13.0625 8.265625 
Q 6.59375 17.96875 6.59375 36.375 
Q 6.59375 54.828125 13.0625 64.515625 
Q 19.53125 74.21875 31.78125 74.21875 
z
" id="DejaVuSans-48"/>
       </defs>
       <use xlink:href="#DejaVuSans-48"/>
      </g>
     </g>
    </g>
    <g id="xtick_2">
     <g id="line2d_3">
      <path clip-path="url(#p2229e04eeb)" d="M 111.458989 355.158828 
L 111.458989 10.840117 
" style="fill:none;stroke:#b0b0b0;stroke-linecap:square;stroke-width:0.8;"/>
     </g>
     <g id="line2d_4">
      <g>
       <use style="stroke:#000000;stroke-width:0.8;" x="111.458989" xlink:href="#m0014944ce6" y="355.158828"/>
      </g>
     </g>
     <g id="text_2">
      <!-- 2500 -->
      <g transform="translate(98.733989 369.757266)scale(0.1 -0.1)">
       <defs>
        <path d="M 19.1875 8.296875 
L 53.609375 8.296875 
L 53.609375 0 
L 7.328125 0 
L 7.328125 8.296875 
Q 12.9375 14.109375 22.625 23.890625 
Q 32.328125 33.6875 34.8125 36.53125 
Q 39.546875 41.84375 41.421875 45.53125 
Q 43.3125 49.21875 43.3125 52.78125 
Q 43.3125 58.59375 39.234375 62.25 
Q 35.15625 65.921875 28.609375 65.921875 
Q 23.96875 65.921875 18.8125 64.3125 
Q 13.671875 62.703125 7.8125 59.421875 
L 7.8125 69.390625 
Q 13.765625 71.78125 18.9375 73 
Q 24.125 74.21875 28.421875 74.21875 
Q 39.75 74.21875 46.484375 68.546875 
Q 53.21875 62.890625 53.21875 53.421875 
Q 53.21875 48.921875 51.53125 44.890625 
Q 49.859375 40.875 45.40625 35.40625 
Q 44.1875 33.984375 37.640625 27.21875 
Q 31.109375 20.453125 19.1875 8.296875 
z
" id="DejaVuSans-50"/>
        <path d="M 10.796875 72.90625 
L 49.515625 72.90625 
L 49.515625 64.59375 
L 19.828125 64.59375 
L 19.828125 46.734375 
Q 21.96875 47.46875 24.109375 47.828125 
Q 26.265625 48.1875 28.421875 48.1875 
Q 40.625 48.1875 47.75 41.5 
Q 54.890625 34.8125 54.890625 23.390625 
Q 54.890625 11.625 47.5625 5.09375 
Q 40.234375 -1.421875 26.90625 -1.421875 
Q 22.3125 -1.421875 17.546875 -0.640625 
Q 12.796875 0.140625 7.71875 1.703125 
L 7.71875 11.625 
Q 12.109375 9.234375 16.796875 8.0625 
Q 21.484375 6.890625 26.703125 6.890625 
Q 35.15625 6.890625 40.078125 11.328125 
Q 45.015625 15.765625 45.015625 23.390625 
Q 45.015625 31 40.078125 35.4375 
Q 35.15625 39.890625 26.703125 39.890625 
Q 22.75 39.890625 18.8125 39.015625 
Q 14.890625 38.140625 10.796875 36.28125 
z
" id="DejaVuSans-53"/>
       </defs>
       <use xlink:href="#DejaVuSans-50"/>
       <use x="63.623047" xlink:href="#DejaVuSans-53"/>
       <use x="127.246094" xlink:href="#DejaVuSans-48"/>
       <use x="190.869141" xlink:href="#DejaVuSans-48"/>
      </g>
     </g>
    </g>
    <g id="xtick_3">
     <g id="line2d_5">
      <path clip-path="url(#p2229e04eeb)" d="M 150.666696 355.158828 
L 150.666696 10.840117 
" style="fill:none;stroke:#b0b0b0;stroke-linecap:square;stroke-width:0.8;"/>
     </g>
     <g id="line2d_6">
      <g>
       <use style="stroke:#000000;stroke-width:0.8;" x="150.666696" xlink:href="#m0014944ce6" y="355.158828"/>
      </g>
     </g>
     <g id="text_3">
      <!-- 5000 -->
      <g transform="translate(137.941696 369.757266)scale(0.1 -0.1)">
       <use xlink:href="#DejaVuSans-53"/>
       <use x="63.623047" xlink:href="#DejaVuSans-48"/>
       <use x="127.246094" xlink:href="#DejaVuSans-48"/>
       <use x="190.869141" xlink:href="#DejaVuSans-48"/>
      </g>
     </g>
    </g>
    <g id="xtick_4">
     <g id="line2d_7">
      <path clip-path="url(#p2229e04eeb)" d="M 189.874404 355.158828 
L 189.874404 10.840117 
" style="fill:none;stroke:#b0b0b0;stroke-linecap:square;stroke-width:0.8;"/>
     </g>
     <g id="line2d_8">
      <g>
       <use style="stroke:#000000;stroke-width:0.8;" x="189.874404" xlink:href="#m0014944ce6" y="355.158828"/>
      </g>
     </g>
     <g id="text_4">
      <!-- 7500 -->
      <g transform="translate(177.149404 369.757266)scale(0.1 -0.1)">
       <defs>
        <path d="M 8.203125 72.90625 
L 55.078125 72.90625 
L 55.078125 68.703125 
L 28.609375 0 
L 18.3125 0 
L 43.21875 64.59375 
L 8.203125 64.59375 
z
" id="DejaVuSans-55"/>
       </defs>
       <use xlink:href="#DejaVuSans-55"/>
       <use x="63.623047" xlink:href="#DejaVuSans-53"/>
       <use x="127.246094" xlink:href="#DejaVuSans-48"/>
       <use x="190.869141" xlink:href="#DejaVuSans-48"/>
      </g>
     </g>
    </g>
    <g id="xtick_5">
     <g id="line2d_9">
      <path clip-path="url(#p2229e04eeb)" d="M 229.082111 355.158828 
L 229.082111 10.840117 
" style="fill:none;stroke:#b0b0b0;stroke-linecap:square;stroke-width:0.8;"/>
     </g>
     <g id="line2d_10">
      <g>
       <use style="stroke:#000000;stroke-width:0.8;" x="229.082111" xlink:href="#m0014944ce6" y="355.158828"/>
      </g>
     </g>
     <g id="text_5">
      <!-- 10000 -->
      <g transform="translate(213.175861 369.757266)scale(0.1 -0.1)">
       <defs>
        <path d="M 12.40625 8.296875 
L 28.515625 8.296875 
L 28.515625 63.921875 
L 10.984375 60.40625 
L 10.984375 69.390625 
L 28.421875 72.90625 
L 38.28125 72.90625 
L 38.28125 8.296875 
L 54.390625 8.296875 
L 54.390625 0 
L 12.40625 0 
z
" id="DejaVuSans-49"/>
       </defs>
       <use xlink:href="#DejaVuSans-49"/>
       <use x="63.623047" xlink:href="#DejaVuSans-48"/>
       <use x="127.246094" xlink:href="#DejaVuSans-48"/>
       <use x="190.869141" xlink:href="#DejaVuSans-48"/>
       <use x="254.492188" xlink:href="#DejaVuSans-48"/>
      </g>
     </g>
    </g>
    <g id="xtick_6">
     <g id="line2d_11">
      <path clip-path="url(#p2229e04eeb)" d="M 268.289819 355.158828 
L 268.289819 10.840117 
" style="fill:none;stroke:#b0b0b0;stroke-linecap:square;stroke-width:0.8;"/>
     </g>
     <g id="line2d_12">
      <g>
       <use style="stroke:#000000;stroke-width:0.8;" x="268.289819" xlink:href="#m0014944ce6" y="355.158828"/>
      </g>
     </g>
     <g id="text_6">
      <!-- 12500 -->
      <g transform="translate(252.383569 369.757266)scale(0.1 -0.1)">
       <use xlink:href="#DejaVuSans-49"/>
       <use x="63.623047" xlink:href="#DejaVuSans-50"/>
       <use x="127.246094" xlink:href="#DejaVuSans-53"/>
       <use x="190.869141" xlink:href="#DejaVuSans-48"/>
       <use x="254.492188" xlink:href="#DejaVuSans-48"/>
      </g>
     </g>
    </g>
    <g id="xtick_7">
     <g id="line2d_13">
      <path clip-path="url(#p2229e04eeb)" d="M 307.497526 355.158828 
L 307.497526 10.840117 
" style="fill:none;stroke:#b0b0b0;stroke-linecap:square;stroke-width:0.8;"/>
     </g>
     <g id="line2d_14">
      <g>
       <use style="stroke:#000000;stroke-width:0.8;" x="307.497526" xlink:href="#m0014944ce6" y="355.158828"/>
      </g>
     </g>
     <g id="text_7">
      <!-- 15000 -->
      <g transform="translate(291.591276 369.757266)scale(0.1 -0.1)">
       <use xlink:href="#DejaVuSans-49"/>
       <use x="63.623047" xlink:href="#DejaVuSans-53"/>
       <use x="127.246094" xlink:href="#DejaVuSans-48"/>
       <use x="190.869141" xlink:href="#DejaVuSans-48"/>
       <use x="254.492188" xlink:href="#DejaVuSans-48"/>
      </g>
     </g>
    </g>
    <g id="xtick_8">
     <g id="line2d_15">
      <path clip-path="url(#p2229e04eeb)" d="M 346.705234 355.158828 
L 346.705234 10.840117 
" style="fill:none;stroke:#b0b0b0;stroke-linecap:square;stroke-width:0.8;"/>
     </g>
     <g id="line2d_16">
      <g>
       <use style="stroke:#000000;stroke-width:0.8;" x="346.705234" xlink:href="#m0014944ce6" y="355.158828"/>
      </g>
     </g>
     <g id="text_8">
      <!-- 17500 -->
      <g transform="translate(330.798984 369.757266)scale(0.1 -0.1)">
       <use xlink:href="#DejaVuSans-49"/>
       <use x="63.623047" xlink:href="#DejaVuSans-55"/>
       <use x="127.246094" xlink:href="#DejaVuSans-53"/>
       <use x="190.869141" xlink:href="#DejaVuSans-48"/>
       <use x="254.492188" xlink:href="#DejaVuSans-48"/>
      </g>
     </g>
    </g>
    <g id="xtick_9">
     <g id="line2d_17">
      <path clip-path="url(#p2229e04eeb)" d="M 385.912942 355.158828 
L 385.912942 10.840117 
" style="fill:none;stroke:#b0b0b0;stroke-linecap:square;stroke-width:0.8;"/>
     </g>
     <g id="line2d_18">
      <g>
       <use style="stroke:#000000;stroke-width:0.8;" x="385.912942" xlink:href="#m0014944ce6" y="355.158828"/>
      </g>
     </g>
     <g id="text_9">
      <!-- 20000 -->
      <g transform="translate(370.006692 369.757266)scale(0.1 -0.1)">
       <use xlink:href="#DejaVuSans-50"/>
       <use x="63.623047" xlink:href="#DejaVuSans-48"/>
       <use x="127.246094" xlink:href="#DejaVuSans-48"/>
       <use x="190.869141" xlink:href="#DejaVuSans-48"/>
       <use x="254.492188" xlink:href="#DejaVuSans-48"/>
      </g>
     </g>
    </g>
    <g id="text_10">
     <!-- t [s] -->
     <g transform="translate(219.646124 383.435391)scale(0.1 -0.1)">
      <defs>
       <path d="M 18.3125 70.21875 
L 18.3125 54.6875 
L 36.8125 54.6875 
L 36.8125 47.703125 
L 18.3125 47.703125 
L 18.3125 18.015625 
Q 18.3125 11.328125 20.140625 9.421875 
Q 21.96875 7.515625 27.59375 7.515625 
L 36.8125 7.515625 
L 36.8125 0 
L 27.59375 0 
Q 17.1875 0 13.234375 3.875 
Q 9.28125 7.765625 9.28125 18.015625 
L 9.28125 47.703125 
L 2.6875 47.703125 
L 2.6875 54.6875 
L 9.28125 54.6875 
L 9.28125 70.21875 
z
" id="DejaVuSans-116"/>
       <path id="DejaVuSans-32"/>
       <path d="M 8.59375 75.984375 
L 29.296875 75.984375 
L 29.296875 69 
L 17.578125 69 
L 17.578125 -6.203125 
L 29.296875 -6.203125 
L 29.296875 -13.1875 
L 8.59375 -13.1875 
z
" id="DejaVuSans-91"/>
       <path d="M 44.28125 53.078125 
L 44.28125 44.578125 
Q 40.484375 46.53125 36.375 47.5 
Q 32.28125 48.484375 27.875 48.484375 
Q 21.1875 48.484375 17.84375 46.4375 
Q 14.5 44.390625 14.5 40.28125 
Q 14.5 37.15625 16.890625 35.375 
Q 19.28125 33.59375 26.515625 31.984375 
L 29.59375 31.296875 
Q 39.15625 29.25 43.1875 25.515625 
Q 47.21875 21.78125 47.21875 15.09375 
Q 47.21875 7.46875 41.1875 3.015625 
Q 35.15625 -1.421875 24.609375 -1.421875 
Q 20.21875 -1.421875 15.453125 -0.5625 
Q 10.6875 0.296875 5.421875 2 
L 5.421875 11.28125 
Q 10.40625 8.6875 15.234375 7.390625 
Q 20.0625 6.109375 24.8125 6.109375 
Q 31.15625 6.109375 34.5625 8.28125 
Q 37.984375 10.453125 37.984375 14.40625 
Q 37.984375 18.0625 35.515625 20.015625 
Q 33.0625 21.96875 24.703125 23.78125 
L 21.578125 24.515625 
Q 13.234375 26.265625 9.515625 29.90625 
Q 5.8125 33.546875 5.8125 39.890625 
Q 5.8125 47.609375 11.28125 51.796875 
Q 16.75 56 26.8125 56 
Q 31.78125 56 36.171875 55.265625 
Q 40.578125 54.546875 44.28125 53.078125 
z
" id="DejaVuSans-115"/>
       <path d="M 30.421875 75.984375 
L 30.421875 -13.1875 
L 9.71875 -13.1875 
L 9.71875 -6.203125 
L 21.390625 -6.203125 
L 21.390625 69 
L 9.71875 69 
L 9.71875 75.984375 
z
" id="DejaVuSans-93"/>
      </defs>
      <use xlink:href="#DejaVuSans-116"/>
      <use x="39.208984" xlink:href="#DejaVuSans-32"/>
      <use x="70.996094" xlink:href="#DejaVuSans-91"/>
      <use x="110.009766" xlink:href="#DejaVuSans-115"/>
      <use x="162.109375" xlink:href="#DejaVuSans-93"/>
     </g>
    </g>
   </g>
   <g id="matplotlib.axis_2">
    <g id="ytick_1">
     <g id="line2d_19">
      <path clip-path="url(#p2229e04eeb)" d="M 56.50625 317.828726 
L 402.896936 317.828726 
" style="fill:none;stroke:#b0b0b0;stroke-linecap:square;stroke-width:0.8;"/>
     </g>
     <g id="line2d_20">
      <defs>
       <path d="M 0 0 
L -3.5 0 
" id="m0852b67a8e" style="stroke:#000000;stroke-width:0.8;"/>
      </defs>
      <g>
       <use style="stroke:#000000;stroke-width:0.8;" x="56.50625" xlink:href="#m0852b67a8e" y="317.828726"/>
      </g>
     </g>
     <g id="text_11">
      <!-- 3.985 -->
      <g transform="translate(20.878125 321.627945)scale(0.1 -0.1)">
       <defs>
        <path d="M 40.578125 39.3125 
Q 47.65625 37.796875 51.625 33 
Q 55.609375 28.21875 55.609375 21.1875 
Q 55.609375 10.40625 48.1875 4.484375 
Q 40.765625 -1.421875 27.09375 -1.421875 
Q 22.515625 -1.421875 17.65625 -0.515625 
Q 12.796875 0.390625 7.625 2.203125 
L 7.625 11.71875 
Q 11.71875 9.328125 16.59375 8.109375 
Q 21.484375 6.890625 26.8125 6.890625 
Q 36.078125 6.890625 40.9375 10.546875 
Q 45.796875 14.203125 45.796875 21.1875 
Q 45.796875 27.640625 41.28125 31.265625 
Q 36.765625 34.90625 28.71875 34.90625 
L 20.21875 34.90625 
L 20.21875 43.015625 
L 29.109375 43.015625 
Q 36.375 43.015625 40.234375 45.921875 
Q 44.09375 48.828125 44.09375 54.296875 
Q 44.09375 59.90625 40.109375 62.90625 
Q 36.140625 65.921875 28.71875 65.921875 
Q 24.65625 65.921875 20.015625 65.03125 
Q 15.375 64.15625 9.8125 62.3125 
L 9.8125 71.09375 
Q 15.4375 72.65625 20.34375 73.4375 
Q 25.25 74.21875 29.59375 74.21875 
Q 40.828125 74.21875 47.359375 69.109375 
Q 53.90625 64.015625 53.90625 55.328125 
Q 53.90625 49.265625 50.4375 45.09375 
Q 46.96875 40.921875 40.578125 39.3125 
z
" id="DejaVuSans-51"/>
        <path d="M 10.6875 12.40625 
L 21 12.40625 
L 21 0 
L 10.6875 0 
z
" id="DejaVuSans-46"/>
        <path d="M 10.984375 1.515625 
L 10.984375 10.5 
Q 14.703125 8.734375 18.5 7.8125 
Q 22.3125 6.890625 25.984375 6.890625 
Q 35.75 6.890625 40.890625 13.453125 
Q 46.046875 20.015625 46.78125 33.40625 
Q 43.953125 29.203125 39.59375 26.953125 
Q 35.25 24.703125 29.984375 24.703125 
Q 19.046875 24.703125 12.671875 31.3125 
Q 6.296875 37.9375 6.296875 49.421875 
Q 6.296875 60.640625 12.9375 67.421875 
Q 19.578125 74.21875 30.609375 74.21875 
Q 43.265625 74.21875 49.921875 64.515625 
Q 56.59375 54.828125 56.59375 36.375 
Q 56.59375 19.140625 48.40625 8.859375 
Q 40.234375 -1.421875 26.421875 -1.421875 
Q 22.703125 -1.421875 18.890625 -0.6875 
Q 15.09375 0.046875 10.984375 1.515625 
z
M 30.609375 32.421875 
Q 37.25 32.421875 41.125 36.953125 
Q 45.015625 41.5 45.015625 49.421875 
Q 45.015625 57.28125 41.125 61.84375 
Q 37.25 66.40625 30.609375 66.40625 
Q 23.96875 66.40625 20.09375 61.84375 
Q 16.21875 57.28125 16.21875 49.421875 
Q 16.21875 41.5 20.09375 36.953125 
Q 23.96875 32.421875 30.609375 32.421875 
z
" id="DejaVuSans-57"/>
        <path d="M 31.78125 34.625 
Q 24.75 34.625 20.71875 30.859375 
Q 16.703125 27.09375 16.703125 20.515625 
Q 16.703125 13.921875 20.71875 10.15625 
Q 24.75 6.390625 31.78125 6.390625 
Q 38.8125 6.390625 42.859375 10.171875 
Q 46.921875 13.96875 46.921875 20.515625 
Q 46.921875 27.09375 42.890625 30.859375 
Q 38.875 34.625 31.78125 34.625 
z
M 21.921875 38.8125 
Q 15.578125 40.375 12.03125 44.71875 
Q 8.5 49.078125 8.5 55.328125 
Q 8.5 64.0625 14.71875 69.140625 
Q 20.953125 74.21875 31.78125 74.21875 
Q 42.671875 74.21875 48.875 69.140625 
Q 55.078125 64.0625 55.078125 55.328125 
Q 55.078125 49.078125 51.53125 44.71875 
Q 48 40.375 41.703125 38.8125 
Q 48.828125 37.15625 52.796875 32.3125 
Q 56.78125 27.484375 56.78125 20.515625 
Q 56.78125 9.90625 50.3125 4.234375 
Q 43.84375 -1.421875 31.78125 -1.421875 
Q 19.734375 -1.421875 13.25 4.234375 
Q 6.78125 9.90625 6.78125 20.515625 
Q 6.78125 27.484375 10.78125 32.3125 
Q 14.796875 37.15625 21.921875 38.8125 
z
M 18.3125 54.390625 
Q 18.3125 48.734375 21.84375 45.5625 
Q 25.390625 42.390625 31.78125 42.390625 
Q 38.140625 42.390625 41.71875 45.5625 
Q 45.3125 48.734375 45.3125 54.390625 
Q 45.3125 60.0625 41.71875 63.234375 
Q 38.140625 66.40625 31.78125 66.40625 
Q 25.390625 66.40625 21.84375 63.234375 
Q 18.3125 60.0625 18.3125 54.390625 
z
" id="DejaVuSans-56"/>
       </defs>
       <use xlink:href="#DejaVuSans-51"/>
       <use x="63.623047" xlink:href="#DejaVuSans-46"/>
       <use x="95.410156" xlink:href="#DejaVuSans-57"/>
       <use x="159.033203" xlink:href="#DejaVuSans-56"/>
       <use x="222.65625" xlink:href="#DejaVuSans-53"/>
      </g>
     </g>
    </g>
    <g id="ytick_2">
     <g id="line2d_21">
      <path clip-path="url(#p2229e04eeb)" d="M 56.50625 273.99594 
L 402.896936 273.99594 
" style="fill:none;stroke:#b0b0b0;stroke-linecap:square;stroke-width:0.8;"/>
     </g>
     <g id="line2d_22">
      <g>
       <use style="stroke:#000000;stroke-width:0.8;" x="56.50625" xlink:href="#m0852b67a8e" y="273.99594"/>
      </g>
     </g>
     <g id="text_12">
      <!-- 3.990 -->
      <g transform="translate(20.878125 277.795158)scale(0.1 -0.1)">
       <use xlink:href="#DejaVuSans-51"/>
       <use x="63.623047" xlink:href="#DejaVuSans-46"/>
       <use x="95.410156" xlink:href="#DejaVuSans-57"/>
       <use x="159.033203" xlink:href="#DejaVuSans-57"/>
       <use x="222.65625" xlink:href="#DejaVuSans-48"/>
      </g>
     </g>
    </g>
    <g id="ytick_3">
     <g id="line2d_23">
      <path clip-path="url(#p2229e04eeb)" d="M 56.50625 230.163153 
L 402.896936 230.163153 
" style="fill:none;stroke:#b0b0b0;stroke-linecap:square;stroke-width:0.8;"/>
     </g>
     <g id="line2d_24">
      <g>
       <use style="stroke:#000000;stroke-width:0.8;" x="56.50625" xlink:href="#m0852b67a8e" y="230.163153"/>
      </g>
     </g>
     <g id="text_13">
      <!-- 3.995 -->
      <g transform="translate(20.878125 233.962372)scale(0.1 -0.1)">
       <use xlink:href="#DejaVuSans-51"/>
       <use x="63.623047" xlink:href="#DejaVuSans-46"/>
       <use x="95.410156" xlink:href="#DejaVuSans-57"/>
       <use x="159.033203" xlink:href="#DejaVuSans-57"/>
       <use x="222.65625" xlink:href="#DejaVuSans-53"/>
      </g>
     </g>
    </g>
    <g id="ytick_4">
     <g id="line2d_25">
      <path clip-path="url(#p2229e04eeb)" d="M 56.50625 186.330366 
L 402.896936 186.330366 
" style="fill:none;stroke:#b0b0b0;stroke-linecap:square;stroke-width:0.8;"/>
     </g>
     <g id="line2d_26">
      <g>
       <use style="stroke:#000000;stroke-width:0.8;" x="56.50625" xlink:href="#m0852b67a8e" y="186.330366"/>
      </g>
     </g>
     <g id="text_14">
      <!-- 4.000 -->
      <g transform="translate(20.878125 190.129585)scale(0.1 -0.1)">
       <defs>
        <path d="M 37.796875 64.3125 
L 12.890625 25.390625 
L 37.796875 25.390625 
z
M 35.203125 72.90625 
L 47.609375 72.90625 
L 47.609375 25.390625 
L 58.015625 25.390625 
L 58.015625 17.1875 
L 47.609375 17.1875 
L 47.609375 0 
L 37.796875 0 
L 37.796875 17.1875 
L 4.890625 17.1875 
L 4.890625 26.703125 
z
" id="DejaVuSans-52"/>
       </defs>
       <use xlink:href="#DejaVuSans-52"/>
       <use x="63.623047" xlink:href="#DejaVuSans-46"/>
       <use x="95.410156" xlink:href="#DejaVuSans-48"/>
       <use x="159.033203" xlink:href="#DejaVuSans-48"/>
       <use x="222.65625" xlink:href="#DejaVuSans-48"/>
      </g>
     </g>
    </g>
    <g id="ytick_5">
     <g id="line2d_27">
      <path clip-path="url(#p2229e04eeb)" d="M 56.50625 142.497579 
L 402.896936 142.497579 
" style="fill:none;stroke:#b0b0b0;stroke-linecap:square;stroke-width:0.8;"/>
     </g>
     <g id="line2d_28">
      <g>
       <use style="stroke:#000000;stroke-width:0.8;" x="56.50625" xlink:href="#m0852b67a8e" y="142.497579"/>
      </g>
     </g>
     <g id="text_15">
      <!-- 4.005 -->
      <g transform="translate(20.878125 146.296798)scale(0.1 -0.1)">
       <use xlink:href="#DejaVuSans-52"/>
       <use x="63.623047" xlink:href="#DejaVuSans-46"/>
       <use x="95.410156" xlink:href="#DejaVuSans-48"/>
       <use x="159.033203" xlink:href="#DejaVuSans-48"/>
       <use x="222.65625" xlink:href="#DejaVuSans-53"/>
      </g>
     </g>
    </g>
    <g id="ytick_6">
     <g id="line2d_29">
      <path clip-path="url(#p2229e04eeb)" d="M 56.50625 98.664792 
L 402.896936 98.664792 
" style="fill:none;stroke:#b0b0b0;stroke-linecap:square;stroke-width:0.8;"/>
     </g>
     <g id="line2d_30">
      <g>
       <use style="stroke:#000000;stroke-width:0.8;" x="56.50625" xlink:href="#m0852b67a8e" y="98.664792"/>
      </g>
     </g>
     <g id="text_16">
      <!-- 4.010 -->
      <g transform="translate(20.878125 102.464011)scale(0.1 -0.1)">
       <use xlink:href="#DejaVuSans-52"/>
       <use x="63.623047" xlink:href="#DejaVuSans-46"/>
       <use x="95.410156" xlink:href="#DejaVuSans-48"/>
       <use x="159.033203" xlink:href="#DejaVuSans-49"/>
       <use x="222.65625" xlink:href="#DejaVuSans-48"/>
      </g>
     </g>
    </g>
    <g id="ytick_7">
     <g id="line2d_31">
      <path clip-path="url(#p2229e04eeb)" d="M 56.50625 54.832006 
L 402.896936 54.832006 
" style="fill:none;stroke:#b0b0b0;stroke-linecap:square;stroke-width:0.8;"/>
     </g>
     <g id="line2d_32">
      <g>
       <use style="stroke:#000000;stroke-width:0.8;" x="56.50625" xlink:href="#m0852b67a8e" y="54.832006"/>
      </g>
     </g>
     <g id="text_17">
      <!-- 4.015 -->
      <g transform="translate(20.878125 58.631224)scale(0.1 -0.1)">
       <use xlink:href="#DejaVuSans-52"/>
       <use x="63.623047" xlink:href="#DejaVuSans-46"/>
       <use x="95.410156" xlink:href="#DejaVuSans-48"/>
       <use x="159.033203" xlink:href="#DejaVuSans-49"/>
       <use x="222.65625" xlink:href="#DejaVuSans-53"/>
      </g>
     </g>
    </g>
    <g id="ytick_8">
     <g id="line2d_33">
      <path clip-path="url(#p2229e04eeb)" d="M 56.50625 10.999219 
L 402.896936 10.999219 
" style="fill:none;stroke:#b0b0b0;stroke-linecap:square;stroke-width:0.8;"/>
     </g>
     <g id="line2d_34">
      <g>
       <use style="stroke:#000000;stroke-width:0.8;" x="56.50625" xlink:href="#m0852b67a8e" y="10.999219"/>
      </g>
     </g>
     <g id="text_18">
      <!-- 4.020 -->
      <g transform="translate(20.878125 14.798438)scale(0.1 -0.1)">
       <use xlink:href="#DejaVuSans-52"/>
       <use x="63.623047" xlink:href="#DejaVuSans-46"/>
       <use x="95.410156" xlink:href="#DejaVuSans-48"/>
       <use x="159.033203" xlink:href="#DejaVuSans-50"/>
       <use x="222.65625" xlink:href="#DejaVuSans-48"/>
      </g>
     </g>
    </g>
    <g id="text_19">
     <!-- [V] -->
     <g transform="translate(14.798438 190.321347)rotate(-90)scale(0.1 -0.1)">
      <defs>
       <path d="M 28.609375 0 
L 0.78125 72.90625 
L 11.078125 72.90625 
L 34.1875 11.53125 
L 57.328125 72.90625 
L 67.578125 72.90625 
L 39.796875 0 
z
" id="DejaVuSans-86"/>
      </defs>
      <use xlink:href="#DejaVuSans-91"/>
      <use x="39.013672" xlink:href="#DejaVuSans-86"/>
      <use x="107.421875" xlink:href="#DejaVuSans-93"/>
     </g>
    </g>
   </g>
   <g id="line2d_35">
    <path clip-path="url(#p2229e04eeb)" d="M 72.251281 186.330366 
L 72.392429 186.425149 
L 72.470844 186.90993 
L 72.533577 190.105263 
L 73.427512 245.280858 
L 74.117568 275.621393 
L 74.666476 291.079897 
L 75.074236 297.348372 
L 75.356532 299.065666 
L 75.466313 299.158791 
L 75.497679 299.12679 
L 75.623144 298.740175 
L 75.827024 297.23982 
L 76.125003 293.154563 
L 76.532763 284.102292 
L 77.065988 266.782989 
L 77.771726 235.948651 
L 78.853859 177.507626 
L 80.68878 78.823581 
L 81.457251 49.118411 
L 82.037525 34.329543 
L 82.460968 28.292056 
L 82.758947 26.585538 
L 82.868728 26.496033 
L 82.900095 26.524028 
L 83.025559 26.874253 
L 83.229439 28.255218 
L 83.527418 32.067004 
L 83.919495 40.249422 
L 84.437037 56.251007 
L 85.095726 84.179302 
L 86.005345 133.289969 
L 88.295075 262.196222 
L 88.42054 262.337342 
L 88.514638 262.866343 
L 88.640103 263.111854 
L 89.000814 263.924507 
L 89.063546 264.762167 
L 89.361525 279.619257 
L 90.145679 312.384278 
L 90.741636 329.030356 
L 91.180762 336.087542 
L 91.494424 338.275362 
L 91.635572 338.471279 
L 91.666938 338.448147 
L 91.792403 338.113345 
L 91.996283 336.745139 
L 92.294261 332.93022 
L 92.686338 324.718343 
L 93.20388 308.665127 
L 93.86257 280.710901 
L 94.787871 230.843625 
L 97.548094 75.379231 
L 98.253833 50.275157 
L 98.787058 38.380799 
L 99.179135 33.899825 
L 99.430064 32.995578 
L 99.524163 33.055102 
L 99.66531 33.552104 
L 99.884873 35.293613 
L 100.198535 39.799603 
L 100.621978 49.524943 
L 101.170886 67.915865 
L 101.876625 99.775573 
L 102.896025 157.122603 
L 105.138706 285.799747 
L 105.907177 316.416559 
L 106.487451 331.54075 
L 106.910895 337.675377 
L 107.208873 339.392389 
L 107.318655 339.47594 
L 107.350021 339.445387 
L 107.475486 339.081444 
L 107.679366 337.667689 
L 107.977344 333.790026 
L 108.385104 325.097579 
L 108.902646 308.782999 
L 109.577019 279.786936 
L 110.518004 228.552891 
L 113.184128 77.642774 
L 113.889867 51.843679 
L 114.423091 39.353408 
L 114.815169 34.41179 
L 115.081781 33.184447 
L 115.175879 33.167909 
L 115.191562 33.186316 
L 115.317027 33.551108 
L 115.520907 34.966189 
L 115.818886 38.845679 
L 116.226646 47.540425 
L 116.744188 63.857622 
L 117.41856 92.856649 
L 118.359545 144.094113 
L 121.025669 295.010648 
L 121.731408 320.810866 
L 122.264633 333.30187 
L 122.65671 338.243971 
L 122.923322 339.471617 
L 123.017421 339.488258 
L 123.033104 339.469868 
L 123.158569 339.105209 
L 123.362449 337.690335 
L 123.660427 333.811132 
L 124.068187 325.116746 
L 124.585729 308.799959 
L 125.260102 279.801397 
L 126.201087 228.564468 
L 128.867211 77.648939 
L 129.57295 51.848896 
L 130.106174 39.358007 
L 130.498252 34.415983 
L 130.764864 33.188384 
L 130.858962 33.171759 
L 130.874646 33.190152 
L 131.00011 33.554832 
L 131.20399 34.969737 
L 131.501969 38.848986 
L 131.909729 47.543428 
L 132.427271 63.860279 
L 133.101643 92.858914 
L 134.042628 144.095927 
L 136.708752 295.011613 
L 137.414491 320.811684 
L 137.947716 333.302591 
L 138.339793 338.244627 
L 138.606405 339.472234 
L 138.700504 339.488861 
L 138.716187 339.470469 
L 138.841652 339.105792 
L 139.045532 337.690891 
L 139.34351 333.81165 
L 139.75127 325.117217 
L 140.268812 308.800376 
L 140.943185 279.801752 
L 141.88417 228.564752 
L 144.550294 77.64909 
L 145.256033 51.849024 
L 145.789257 39.35812 
L 146.181335 34.416085 
L 146.447947 33.18848 
L 146.542045 33.171853 
L 146.557729 33.190246 
L 146.683193 33.554923 
L 146.887073 34.969825 
L 147.185052 38.849067 
L 147.592812 47.543502 
L 148.110354 63.860344 
L 148.784726 92.85897 
L 149.725711 144.095971 
L 152.391835 295.011637 
L 153.097574 320.811704 
L 153.630799 333.302609 
L 154.022876 338.244644 
L 154.289488 339.472249 
L 154.383587 339.488876 
L 154.39927 339.470483 
L 154.524735 339.105807 
L 154.728615 337.690905 
L 155.026593 333.811663 
L 155.434354 325.117228 
L 155.951895 308.800386 
L 156.626268 279.80176 
L 157.567253 228.564759 
L 160.233377 77.649094 
L 160.939116 51.849028 
L 161.47234 39.358123 
L 161.864418 34.416088 
L 162.13103 33.188483 
L 162.225128 33.171855 
L 162.240812 33.190248 
L 162.366276 33.554925 
L 162.570156 34.969827 
L 162.868135 38.849069 
L 163.275895 47.543504 
L 163.793437 63.860346 
L 164.467809 92.858971 
L 165.408794 144.095972 
L 168.074918 295.011638 
L 168.780657 320.811704 
L 169.313882 333.302609 
L 169.705959 338.244644 
L 169.972571 339.472249 
L 170.06667 339.488877 
L 170.082353 339.470484 
L 170.207818 339.105807 
L 170.411698 337.690905 
L 170.709676 333.811663 
L 171.117437 325.117228 
L 171.634978 308.800386 
L 172.309351 279.801761 
L 173.250336 228.56476 
L 175.91646 77.649094 
L 176.622199 51.849028 
L 177.155423 39.358123 
L 177.547501 34.416088 
L 177.814113 33.188483 
L 177.908211 33.171856 
L 177.923895 33.190248 
L 178.049359 33.554925 
L 178.253239 34.969827 
L 178.551218 38.849069 
L 178.958978 47.543504 
L 179.47652 63.860346 
L 180.150892 92.858971 
L 181.091877 144.095972 
L 183.758001 295.011638 
L 184.46374 320.811704 
L 184.996965 333.302609 
L 185.389042 338.244644 
L 185.655654 339.472249 
L 185.749753 339.488877 
L 185.765436 339.470484 
L 185.890901 339.105807 
L 186.094781 337.690905 
L 186.392759 333.811663 
L 186.80052 325.117228 
L 187.318061 308.800386 
L 187.992434 279.801761 
L 188.933419 228.56476 
L 191.599543 77.649094 
L 192.305282 51.849028 
L 192.838507 39.358123 
L 193.230584 34.416088 
L 193.497196 33.188483 
L 193.591294 33.171856 
L 193.606978 33.190248 
L 193.732442 33.554925 
L 193.936322 34.969827 
L 194.234301 38.849069 
L 194.642061 47.543504 
L 195.159603 63.860346 
L 195.833975 92.858971 
L 196.77496 144.095972 
L 199.441084 295.011638 
L 200.146823 320.811704 
L 200.680048 333.302609 
L 201.072125 338.244644 
L 201.338738 339.472249 
L 201.432836 339.488877 
L 201.448519 339.470484 
L 201.573984 339.105807 
L 201.777864 337.690905 
L 202.075842 333.811663 
L 202.483603 325.117228 
L 203.001144 308.800386 
L 203.675517 279.801761 
L 204.616502 228.56476 
L 207.282626 77.649094 
L 207.988365 51.849028 
L 208.52159 39.358123 
L 208.913667 34.416088 
L 209.180279 33.188483 
L 209.274378 33.171856 
L 209.290061 33.190248 
L 209.415525 33.554925 
L 209.619405 34.969827 
L 209.917384 38.849069 
L 210.325144 47.543504 
L 210.842686 63.860346 
L 211.517058 92.858971 
L 212.458043 144.095972 
L 215.124167 295.011638 
L 215.829906 320.811704 
L 216.363131 333.302609 
L 216.755208 338.244644 
L 217.021821 339.472249 
L 217.115919 339.488877 
L 217.131602 339.470484 
L 217.257067 339.105807 
L 217.460947 337.690905 
L 217.758925 333.811663 
L 218.166686 325.117228 
L 218.684227 308.800386 
L 219.3586 279.801761 
L 220.299585 228.56476 
L 222.965709 77.649094 
L 223.671448 51.849028 
L 224.204673 39.358123 
L 224.59675 34.416088 
L 224.863362 33.188483 
L 224.957461 33.171856 
L 224.973144 33.190248 
L 225.098608 33.554925 
L 225.302488 34.969827 
L 225.600467 38.849069 
L 226.008227 47.543504 
L 226.525769 63.860346 
L 227.200141 92.858971 
L 228.141126 144.095972 
L 230.80725 295.011638 
L 231.512989 320.811704 
L 232.046214 333.302609 
L 232.438291 338.244644 
L 232.704904 339.472249 
L 232.799002 339.488877 
L 232.814685 339.470484 
L 232.94015 339.105807 
L 233.14403 337.690905 
L 233.442008 333.811663 
L 233.849769 325.117228 
L 234.36731 308.800386 
L 235.041683 279.801761 
L 235.982668 228.56476 
L 238.648792 77.649094 
L 239.354531 51.849028 
L 239.887756 39.358123 
L 240.279833 34.416088 
L 240.546445 33.188483 
L 240.640544 33.171856 
L 240.656227 33.190248 
L 240.781691 33.554925 
L 240.985571 34.969827 
L 241.28355 38.849069 
L 241.69131 47.543504 
L 242.208852 63.860346 
L 242.883224 92.858971 
L 243.824209 144.095972 
L 245.988475 266.020774 
L 246.035524 266.618772 
L 247.572466 327.146878 
L 248.058642 336.152147 
L 248.40367 339.117138 
L 248.591867 339.507239 
L 248.60755 339.500455 
L 248.717331 339.283694 
L 248.905528 338.224371 
L 249.172141 335.248645 
L 249.548535 328.169667 
L 250.03471 314.293226 
L 250.662034 289.334266 
L 251.50892 245.728919 
L 254.849417 62.620943 
L 255.461057 44.402599 
L 255.931549 36.119688 
L 256.260894 33.477862 
L 256.433408 33.153492 
L 256.449091 33.160277 
L 256.558873 33.377037 
L 256.74707 34.436361 
L 257.013682 37.412087 
L 257.390076 44.491065 
L 257.876252 58.367505 
L 258.503575 83.326465 
L 259.350462 126.931813 
L 262.690958 310.039789 
L 263.302598 328.258133 
L 263.773091 336.541044 
L 264.102436 339.18287 
L 264.27495 339.50724 
L 264.290633 339.500455 
L 264.400414 339.283695 
L 264.588611 338.224371 
L 264.855224 335.248645 
L 265.231618 328.169667 
L 265.717793 314.293227 
L 266.345117 289.334267 
L 267.192003 245.728919 
L 270.5325 62.620943 
L 271.14414 44.402599 
L 271.614632 36.119688 
L 271.943977 33.477862 
L 272.116491 33.153492 
L 272.132174 33.160277 
L 272.241956 33.377037 
L 272.430153 34.436361 
L 272.696765 37.412087 
L 273.073159 44.491065 
L 273.559335 58.367505 
L 274.186658 83.326465 
L 275.033545 126.931813 
L 278.374041 310.039789 
L 278.985682 328.258133 
L 279.456174 336.541044 
L 279.785519 339.18287 
L 279.958033 339.50724 
L 279.973716 339.500455 
L 280.083497 339.283695 
L 280.271694 338.224371 
L 280.538307 335.248645 
L 280.914701 328.169667 
L 281.400876 314.293227 
L 282.0282 289.334267 
L 282.875086 245.728919 
L 286.215583 62.620943 
L 286.827223 44.402599 
L 287.297716 36.119688 
L 287.62706 33.477862 
L 287.799574 33.153492 
L 287.815257 33.160277 
L 287.925039 33.377037 
L 288.113236 34.436361 
L 288.379848 37.412087 
L 288.756242 44.491065 
L 289.242418 58.367505 
L 289.869741 83.326465 
L 290.716628 126.931813 
L 294.057124 310.039789 
L 294.668765 328.258133 
L 295.139257 336.541044 
L 295.468602 339.18287 
L 295.641116 339.50724 
L 295.656799 339.500455 
L 295.76658 339.283695 
L 295.954777 338.224371 
L 296.22139 335.248645 
L 296.597784 328.169667 
L 297.083959 314.293227 
L 297.711283 289.334267 
L 298.558169 245.728919 
L 301.898666 62.620943 
L 302.510306 44.402599 
L 302.980799 36.119688 
L 303.310143 33.477862 
L 303.482657 33.153492 
L 303.49834 33.160277 
L 303.608122 33.377037 
L 303.796319 34.436361 
L 304.062931 37.412087 
L 304.439325 44.491065 
L 304.925501 58.367505 
L 305.552824 83.326465 
L 306.399711 126.931813 
L 309.740207 310.039789 
L 310.351848 328.258133 
L 310.82234 336.541044 
L 311.151685 339.18287 
L 311.324199 339.50724 
L 311.339882 339.500455 
L 311.449663 339.283695 
L 311.63786 338.224371 
L 311.904473 335.248645 
L 312.280867 328.169667 
L 312.767042 314.293227 
L 313.394366 289.334267 
L 314.241252 245.728919 
L 317.581749 62.620943 
L 318.193389 44.402599 
L 318.663882 36.119688 
L 318.993226 33.477862 
L 319.16574 33.153492 
L 319.181423 33.160277 
L 319.291205 33.377037 
L 319.479402 34.436361 
L 319.746014 37.412087 
L 320.122408 44.491065 
L 320.608584 58.367505 
L 321.235907 83.326465 
L 322.082794 126.931813 
L 325.42329 310.039789 
L 326.034931 328.258133 
L 326.505423 336.541044 
L 326.834768 339.18287 
L 327.007282 339.50724 
L 327.022965 339.500455 
L 327.132746 339.283695 
L 327.320943 338.224371 
L 327.587556 335.248645 
L 327.96395 328.169667 
L 328.450125 314.293227 
L 329.077449 289.334267 
L 329.924335 245.728919 
L 333.264832 62.620943 
L 333.876472 44.402599 
L 334.346965 36.119688 
L 334.676309 33.477862 
L 334.848823 33.153492 
L 334.864506 33.160277 
L 334.974288 33.377037 
L 335.162485 34.436361 
L 335.429097 37.412087 
L 335.805491 44.491065 
L 336.291667 58.367505 
L 336.91899 83.326465 
L 337.765877 126.931813 
L 341.106373 310.039789 
L 341.718014 328.258133 
L 342.188506 336.541044 
L 342.517851 339.18287 
L 342.690365 339.50724 
L 342.706048 339.500455 
L 342.815829 339.283695 
L 343.004026 338.224371 
L 343.270639 335.248645 
L 343.647033 328.169667 
L 344.133208 314.293227 
L 344.760532 289.334267 
L 345.607418 245.728919 
L 348.947915 62.620943 
L 349.559555 44.402599 
L 350.030048 36.119688 
L 350.359392 33.477862 
L 350.531906 33.153492 
L 350.547589 33.160277 
L 350.657371 33.377037 
L 350.845568 34.436361 
L 351.11218 37.412087 
L 351.488574 44.491065 
L 351.97475 58.367505 
L 352.602073 83.326465 
L 353.44896 126.931813 
L 356.789456 310.039789 
L 357.401097 328.258133 
L 357.871589 336.541044 
L 358.200934 339.18287 
L 358.373448 339.50724 
L 358.389131 339.500455 
L 358.498912 339.283695 
L 358.687109 338.224371 
L 358.953722 335.248645 
L 359.330116 328.169667 
L 359.816291 314.293227 
L 360.443615 289.334267 
L 361.290501 245.728919 
L 364.630998 62.620943 
L 365.242638 44.402599 
L 365.713131 36.119688 
L 366.042475 33.477862 
L 366.214989 33.153492 
L 366.230672 33.160277 
L 366.340454 33.377037 
L 366.528651 34.436361 
L 366.795263 37.412087 
L 367.171657 44.491065 
L 367.657833 58.367505 
L 368.285156 83.326465 
L 369.132043 126.931813 
L 372.472539 310.039789 
L 373.08418 328.258133 
L 373.554672 336.541044 
L 373.884017 339.18287 
L 374.056531 339.50724 
L 374.072214 339.500455 
L 374.181995 339.283695 
L 374.370192 338.224371 
L 374.636805 335.248645 
L 375.013199 328.169667 
L 375.499374 314.293227 
L 376.126698 289.334267 
L 376.973584 245.728919 
L 380.314081 62.620943 
L 380.925721 44.402599 
L 381.396214 36.119688 
L 381.725558 33.477862 
L 381.898072 33.153492 
L 381.913755 33.160277 
L 382.023537 33.377037 
L 382.211734 34.436361 
L 382.478346 37.412087 
L 382.85474 44.491065 
L 383.340916 58.367505 
L 383.968239 83.326465 
L 384.815126 126.931813 
L 387.151905 264.091248 
L 387.151905 264.091248 
" style="fill:none;stroke:#1f77b4;stroke-linecap:square;stroke-width:1.5;"/>
   </g>
   <g id="patch_3">
    <path d="M 56.50625 355.158828 
L 56.50625 10.840117 
" style="fill:none;stroke:#000000;stroke-linecap:square;stroke-linejoin:miter;stroke-width:0.8;"/>
   </g>
   <g id="patch_4">
    <path d="M 402.896936 355.158828 
L 402.896936 10.840117 
" style="fill:none;stroke:#000000;stroke-linecap:square;stroke-linejoin:miter;stroke-width:0.8;"/>
   </g>
   <g id="patch_5">
    <path d="M 56.50625 355.158828 
L 402.896936 355.158828 
" style="fill:none;stroke:#000000;stroke-linecap:square;stroke-linejoin:miter;stroke-width:0.8;"/>
   </g>
   <g id="patch_6">
    <path d="M 56.50625 10.840117 
L 402.896936 10.840117 
" style="fill:none;stroke:#000000;stroke-linecap:square;stroke-linejoin:miter;stroke-width:0.8;"/>
   </g>
   <g id="text_20">
    <!-- output with a cv envelope (Vin_b is scaled). -->
    <g transform="translate(98.833156 418.02257)scale(0.12 -0.12)">
     <defs>
      <path d="M 30.609375 48.390625 
Q 23.390625 48.390625 19.1875 42.75 
Q 14.984375 37.109375 14.984375 27.296875 
Q 14.984375 17.484375 19.15625 11.84375 
Q 23.34375 6.203125 30.609375 6.203125 
Q 37.796875 6.203125 41.984375 11.859375 
Q 46.1875 17.53125 46.1875 27.296875 
Q 46.1875 37.015625 41.984375 42.703125 
Q 37.796875 48.390625 30.609375 48.390625 
z
M 30.609375 56 
Q 42.328125 56 49.015625 48.375 
Q 55.71875 40.765625 55.71875 27.296875 
Q 55.71875 13.875 49.015625 6.21875 
Q 42.328125 -1.421875 30.609375 -1.421875 
Q 18.84375 -1.421875 12.171875 6.21875 
Q 5.515625 13.875 5.515625 27.296875 
Q 5.515625 40.765625 12.171875 48.375 
Q 18.84375 56 30.609375 56 
z
" id="DejaVuSans-111"/>
      <path d="M 8.5 21.578125 
L 8.5 54.6875 
L 17.484375 54.6875 
L 17.484375 21.921875 
Q 17.484375 14.15625 20.5 10.265625 
Q 23.53125 6.390625 29.59375 6.390625 
Q 36.859375 6.390625 41.078125 11.03125 
Q 45.3125 15.671875 45.3125 23.6875 
L 45.3125 54.6875 
L 54.296875 54.6875 
L 54.296875 0 
L 45.3125 0 
L 45.3125 8.40625 
Q 42.046875 3.421875 37.71875 1 
Q 33.40625 -1.421875 27.6875 -1.421875 
Q 18.265625 -1.421875 13.375 4.4375 
Q 8.5 10.296875 8.5 21.578125 
z
M 31.109375 56 
z
" id="DejaVuSans-117"/>
      <path d="M 18.109375 8.203125 
L 18.109375 -20.796875 
L 9.078125 -20.796875 
L 9.078125 54.6875 
L 18.109375 54.6875 
L 18.109375 46.390625 
Q 20.953125 51.265625 25.265625 53.625 
Q 29.59375 56 35.59375 56 
Q 45.5625 56 51.78125 48.09375 
Q 58.015625 40.1875 58.015625 27.296875 
Q 58.015625 14.40625 51.78125 6.484375 
Q 45.5625 -1.421875 35.59375 -1.421875 
Q 29.59375 -1.421875 25.265625 0.953125 
Q 20.953125 3.328125 18.109375 8.203125 
z
M 48.6875 27.296875 
Q 48.6875 37.203125 44.609375 42.84375 
Q 40.53125 48.484375 33.40625 48.484375 
Q 26.265625 48.484375 22.1875 42.84375 
Q 18.109375 37.203125 18.109375 27.296875 
Q 18.109375 17.390625 22.1875 11.75 
Q 26.265625 6.109375 33.40625 6.109375 
Q 40.53125 6.109375 44.609375 11.75 
Q 48.6875 17.390625 48.6875 27.296875 
z
" id="DejaVuSans-112"/>
      <path d="M 4.203125 54.6875 
L 13.1875 54.6875 
L 24.421875 12.015625 
L 35.59375 54.6875 
L 46.1875 54.6875 
L 57.421875 12.015625 
L 68.609375 54.6875 
L 77.59375 54.6875 
L 63.28125 0 
L 52.6875 0 
L 40.921875 44.828125 
L 29.109375 0 
L 18.5 0 
z
" id="DejaVuSans-119"/>
      <path d="M 9.421875 54.6875 
L 18.40625 54.6875 
L 18.40625 0 
L 9.421875 0 
z
M 9.421875 75.984375 
L 18.40625 75.984375 
L 18.40625 64.59375 
L 9.421875 64.59375 
z
" id="DejaVuSans-105"/>
      <path d="M 54.890625 33.015625 
L 54.890625 0 
L 45.90625 0 
L 45.90625 32.71875 
Q 45.90625 40.484375 42.875 44.328125 
Q 39.84375 48.1875 33.796875 48.1875 
Q 26.515625 48.1875 22.3125 43.546875 
Q 18.109375 38.921875 18.109375 30.90625 
L 18.109375 0 
L 9.078125 0 
L 9.078125 75.984375 
L 18.109375 75.984375 
L 18.109375 46.1875 
Q 21.34375 51.125 25.703125 53.5625 
Q 30.078125 56 35.796875 56 
Q 45.21875 56 50.046875 50.171875 
Q 54.890625 44.34375 54.890625 33.015625 
z
" id="DejaVuSans-104"/>
      <path d="M 34.28125 27.484375 
Q 23.390625 27.484375 19.1875 25 
Q 14.984375 22.515625 14.984375 16.5 
Q 14.984375 11.71875 18.140625 8.90625 
Q 21.296875 6.109375 26.703125 6.109375 
Q 34.1875 6.109375 38.703125 11.40625 
Q 43.21875 16.703125 43.21875 25.484375 
L 43.21875 27.484375 
z
M 52.203125 31.203125 
L 52.203125 0 
L 43.21875 0 
L 43.21875 8.296875 
Q 40.140625 3.328125 35.546875 0.953125 
Q 30.953125 -1.421875 24.3125 -1.421875 
Q 15.921875 -1.421875 10.953125 3.296875 
Q 6 8.015625 6 15.921875 
Q 6 25.140625 12.171875 29.828125 
Q 18.359375 34.515625 30.609375 34.515625 
L 43.21875 34.515625 
L 43.21875 35.40625 
Q 43.21875 41.609375 39.140625 45 
Q 35.0625 48.390625 27.6875 48.390625 
Q 23 48.390625 18.546875 47.265625 
Q 14.109375 46.140625 10.015625 43.890625 
L 10.015625 52.203125 
Q 14.9375 54.109375 19.578125 55.046875 
Q 24.21875 56 28.609375 56 
Q 40.484375 56 46.34375 49.84375 
Q 52.203125 43.703125 52.203125 31.203125 
z
" id="DejaVuSans-97"/>
      <path d="M 48.78125 52.59375 
L 48.78125 44.1875 
Q 44.96875 46.296875 41.140625 47.34375 
Q 37.3125 48.390625 33.40625 48.390625 
Q 24.65625 48.390625 19.8125 42.84375 
Q 14.984375 37.3125 14.984375 27.296875 
Q 14.984375 17.28125 19.8125 11.734375 
Q 24.65625 6.203125 33.40625 6.203125 
Q 37.3125 6.203125 41.140625 7.25 
Q 44.96875 8.296875 48.78125 10.40625 
L 48.78125 2.09375 
Q 45.015625 0.34375 40.984375 -0.53125 
Q 36.96875 -1.421875 32.421875 -1.421875 
Q 20.0625 -1.421875 12.78125 6.34375 
Q 5.515625 14.109375 5.515625 27.296875 
Q 5.515625 40.671875 12.859375 48.328125 
Q 20.21875 56 33.015625 56 
Q 37.15625 56 41.109375 55.140625 
Q 45.0625 54.296875 48.78125 52.59375 
z
" id="DejaVuSans-99"/>
      <path d="M 2.984375 54.6875 
L 12.5 54.6875 
L 29.59375 8.796875 
L 46.6875 54.6875 
L 56.203125 54.6875 
L 35.6875 0 
L 23.484375 0 
z
" id="DejaVuSans-118"/>
      <path d="M 56.203125 29.59375 
L 56.203125 25.203125 
L 14.890625 25.203125 
Q 15.484375 15.921875 20.484375 11.0625 
Q 25.484375 6.203125 34.421875 6.203125 
Q 39.59375 6.203125 44.453125 7.46875 
Q 49.3125 8.734375 54.109375 11.28125 
L 54.109375 2.78125 
Q 49.265625 0.734375 44.1875 -0.34375 
Q 39.109375 -1.421875 33.890625 -1.421875 
Q 20.796875 -1.421875 13.15625 6.1875 
Q 5.515625 13.8125 5.515625 26.8125 
Q 5.515625 40.234375 12.765625 48.109375 
Q 20.015625 56 32.328125 56 
Q 43.359375 56 49.78125 48.890625 
Q 56.203125 41.796875 56.203125 29.59375 
z
M 47.21875 32.234375 
Q 47.125 39.59375 43.09375 43.984375 
Q 39.0625 48.390625 32.421875 48.390625 
Q 24.90625 48.390625 20.390625 44.140625 
Q 15.875 39.890625 15.1875 32.171875 
z
" id="DejaVuSans-101"/>
      <path d="M 54.890625 33.015625 
L 54.890625 0 
L 45.90625 0 
L 45.90625 32.71875 
Q 45.90625 40.484375 42.875 44.328125 
Q 39.84375 48.1875 33.796875 48.1875 
Q 26.515625 48.1875 22.3125 43.546875 
Q 18.109375 38.921875 18.109375 30.90625 
L 18.109375 0 
L 9.078125 0 
L 9.078125 54.6875 
L 18.109375 54.6875 
L 18.109375 46.1875 
Q 21.34375 51.125 25.703125 53.5625 
Q 30.078125 56 35.796875 56 
Q 45.21875 56 50.046875 50.171875 
Q 54.890625 44.34375 54.890625 33.015625 
z
" id="DejaVuSans-110"/>
      <path d="M 9.421875 75.984375 
L 18.40625 75.984375 
L 18.40625 0 
L 9.421875 0 
z
" id="DejaVuSans-108"/>
      <path d="M 31 75.875 
Q 24.46875 64.65625 21.28125 53.65625 
Q 18.109375 42.671875 18.109375 31.390625 
Q 18.109375 20.125 21.3125 9.0625 
Q 24.515625 -2 31 -13.1875 
L 23.1875 -13.1875 
Q 15.875 -1.703125 12.234375 9.375 
Q 8.59375 20.453125 8.59375 31.390625 
Q 8.59375 42.28125 12.203125 53.3125 
Q 15.828125 64.359375 23.1875 75.875 
z
" id="DejaVuSans-40"/>
      <path d="M 50.984375 -16.609375 
L 50.984375 -23.578125 
L -0.984375 -23.578125 
L -0.984375 -16.609375 
z
" id="DejaVuSans-95"/>
      <path d="M 48.6875 27.296875 
Q 48.6875 37.203125 44.609375 42.84375 
Q 40.53125 48.484375 33.40625 48.484375 
Q 26.265625 48.484375 22.1875 42.84375 
Q 18.109375 37.203125 18.109375 27.296875 
Q 18.109375 17.390625 22.1875 11.75 
Q 26.265625 6.109375 33.40625 6.109375 
Q 40.53125 6.109375 44.609375 11.75 
Q 48.6875 17.390625 48.6875 27.296875 
z
M 18.109375 46.390625 
Q 20.953125 51.265625 25.265625 53.625 
Q 29.59375 56 35.59375 56 
Q 45.5625 56 51.78125 48.09375 
Q 58.015625 40.1875 58.015625 27.296875 
Q 58.015625 14.40625 51.78125 6.484375 
Q 45.5625 -1.421875 35.59375 -1.421875 
Q 29.59375 -1.421875 25.265625 0.953125 
Q 20.953125 3.328125 18.109375 8.203125 
L 18.109375 0 
L 9.078125 0 
L 9.078125 75.984375 
L 18.109375 75.984375 
z
" id="DejaVuSans-98"/>
      <path d="M 45.40625 46.390625 
L 45.40625 75.984375 
L 54.390625 75.984375 
L 54.390625 0 
L 45.40625 0 
L 45.40625 8.203125 
Q 42.578125 3.328125 38.25 0.953125 
Q 33.9375 -1.421875 27.875 -1.421875 
Q 17.96875 -1.421875 11.734375 6.484375 
Q 5.515625 14.40625 5.515625 27.296875 
Q 5.515625 40.1875 11.734375 48.09375 
Q 17.96875 56 27.875 56 
Q 33.9375 56 38.25 53.625 
Q 42.578125 51.265625 45.40625 46.390625 
z
M 14.796875 27.296875 
Q 14.796875 17.390625 18.875 11.75 
Q 22.953125 6.109375 30.078125 6.109375 
Q 37.203125 6.109375 41.296875 11.75 
Q 45.40625 17.390625 45.40625 27.296875 
Q 45.40625 37.203125 41.296875 42.84375 
Q 37.203125 48.484375 30.078125 48.484375 
Q 22.953125 48.484375 18.875 42.84375 
Q 14.796875 37.203125 14.796875 27.296875 
z
" id="DejaVuSans-100"/>
      <path d="M 8.015625 75.875 
L 15.828125 75.875 
Q 23.140625 64.359375 26.78125 53.3125 
Q 30.421875 42.28125 30.421875 31.390625 
Q 30.421875 20.453125 26.78125 9.375 
Q 23.140625 -1.703125 15.828125 -13.1875 
L 8.015625 -13.1875 
Q 14.5 -2 17.703125 9.0625 
Q 20.90625 20.125 20.90625 31.390625 
Q 20.90625 42.671875 17.703125 53.65625 
Q 14.5 64.65625 8.015625 75.875 
z
" id="DejaVuSans-41"/>
     </defs>
     <use xlink:href="#DejaVuSans-111"/>
     <use x="61.181641" xlink:href="#DejaVuSans-117"/>
     <use x="124.560547" xlink:href="#DejaVuSans-116"/>
     <use x="163.769531" xlink:href="#DejaVuSans-112"/>
     <use x="227.246094" xlink:href="#DejaVuSans-117"/>
     <use x="290.625" xlink:href="#DejaVuSans-116"/>
     <use x="329.833984" xlink:href="#DejaVuSans-32"/>
     <use x="361.621094" xlink:href="#DejaVuSans-119"/>
     <use x="443.408203" xlink:href="#DejaVuSans-105"/>
     <use x="471.191406" xlink:href="#DejaVuSans-116"/>
     <use x="510.400391" xlink:href="#DejaVuSans-104"/>
     <use x="573.779297" xlink:href="#DejaVuSans-32"/>
     <use x="605.566406" xlink:href="#DejaVuSans-97"/>
     <use x="666.845703" xlink:href="#DejaVuSans-32"/>
     <use x="698.632812" xlink:href="#DejaVuSans-99"/>
     <use x="753.613281" xlink:href="#DejaVuSans-118"/>
     <use x="812.792969" xlink:href="#DejaVuSans-32"/>
     <use x="844.580078" xlink:href="#DejaVuSans-101"/>
     <use x="906.103516" xlink:href="#DejaVuSans-110"/>
     <use x="969.482422" xlink:href="#DejaVuSans-118"/>
     <use x="1028.662109" xlink:href="#DejaVuSans-101"/>
     <use x="1090.185547" xlink:href="#DejaVuSans-108"/>
     <use x="1117.96875" xlink:href="#DejaVuSans-111"/>
     <use x="1179.150391" xlink:href="#DejaVuSans-112"/>
     <use x="1242.626953" xlink:href="#DejaVuSans-101"/>
     <use x="1304.150391" xlink:href="#DejaVuSans-32"/>
     <use x="1335.9375" xlink:href="#DejaVuSans-40"/>
     <use x="1374.951172" xlink:href="#DejaVuSans-86"/>
     <use x="1441.109375" xlink:href="#DejaVuSans-105"/>
     <use x="1468.892578" xlink:href="#DejaVuSans-110"/>
     <use x="1532.271484" xlink:href="#DejaVuSans-95"/>
     <use x="1582.271484" xlink:href="#DejaVuSans-98"/>
     <use x="1645.748047" xlink:href="#DejaVuSans-32"/>
     <use x="1677.535156" xlink:href="#DejaVuSans-105"/>
     <use x="1705.318359" xlink:href="#DejaVuSans-115"/>
     <use x="1757.417969" xlink:href="#DejaVuSans-32"/>
     <use x="1789.205078" xlink:href="#DejaVuSans-115"/>
     <use x="1841.304688" xlink:href="#DejaVuSans-99"/>
     <use x="1896.285156" xlink:href="#DejaVuSans-97"/>
     <use x="1957.564453" xlink:href="#DejaVuSans-108"/>
     <use x="1985.347656" xlink:href="#DejaVuSans-101"/>
     <use x="2046.871094" xlink:href="#DejaVuSans-100"/>
     <use x="2110.347656" xlink:href="#DejaVuSans-41"/>
     <use x="2149.361328" xlink:href="#DejaVuSans-46"/>
    </g>
   </g>
   <g id="legend_1">
    <g id="patch_7">
     <path d="M 335.618799 79.703859 
L 406.876612 79.703859 
Q 408.876612 79.703859 408.876612 77.703859 
L 408.876612 64.025734 
Q 408.876612 62.025734 406.876612 62.025734 
L 335.618799 62.025734 
Q 333.618799 62.025734 333.618799 64.025734 
L 333.618799 77.703859 
Q 333.618799 79.703859 335.618799 79.703859 
z
" style="fill:#ffffff;opacity:0.8;stroke:#cccccc;stroke-linejoin:miter;"/>
    </g>
    <g id="line2d_36">
     <path d="M 337.618799 70.124171 
L 357.618799 70.124171 
" style="fill:none;stroke:#1f77b4;stroke-linecap:square;stroke-width:1.5;"/>
    </g>
    <g id="line2d_37"/>
    <g id="text_21">
     <!-- Vcv  [V] -->
     <g transform="translate(365.618799 73.624171)scale(0.1 -0.1)">
      <use xlink:href="#DejaVuSans-86"/>
      <use x="68.408203" xlink:href="#DejaVuSans-99"/>
      <use x="123.388672" xlink:href="#DejaVuSans-118"/>
      <use x="182.568359" xlink:href="#DejaVuSans-32"/>
      <use x="214.355469" xlink:href="#DejaVuSans-32"/>
      <use x="246.142578" xlink:href="#DejaVuSans-91"/>
      <use x="285.15625" xlink:href="#DejaVuSans-86"/>
      <use x="353.564453" xlink:href="#DejaVuSans-93"/>
     </g>
    </g>
   </g>
  </g>
  <g id="axes_2">
   <g id="patch_8">
    <path d="M 487.614583 355.158828 
L 834.00527 355.158828 
L 834.00527 10.840117 
L 487.614583 10.840117 
z
" style="fill:#ffffff;"/>
   </g>
   <g id="matplotlib.axis_3">
    <g id="xtick_10">
     <g id="line2d_38">
      <path clip-path="url(#pa74f3c542d)" d="M 503.359615 355.158828 
L 503.359615 10.840117 
" style="fill:none;stroke:#b0b0b0;stroke-linecap:square;stroke-width:0.8;"/>
     </g>
     <g id="line2d_39">
      <g>
       <use style="stroke:#000000;stroke-width:0.8;" x="503.359615" xlink:href="#m0014944ce6" y="355.158828"/>
      </g>
     </g>
     <g id="text_22">
      <!-- 0 -->
      <g transform="translate(500.178365 369.757266)scale(0.1 -0.1)">
       <use xlink:href="#DejaVuSans-48"/>
      </g>
     </g>
    </g>
    <g id="xtick_11">
     <g id="line2d_40">
      <path clip-path="url(#pa74f3c542d)" d="M 542.567322 355.158828 
L 542.567322 10.840117 
" style="fill:none;stroke:#b0b0b0;stroke-linecap:square;stroke-width:0.8;"/>
     </g>
     <g id="line2d_41">
      <g>
       <use style="stroke:#000000;stroke-width:0.8;" x="542.567322" xlink:href="#m0014944ce6" y="355.158828"/>
      </g>
     </g>
     <g id="text_23">
      <!-- 2500 -->
      <g transform="translate(529.842322 369.757266)scale(0.1 -0.1)">
       <use xlink:href="#DejaVuSans-50"/>
       <use x="63.623047" xlink:href="#DejaVuSans-53"/>
       <use x="127.246094" xlink:href="#DejaVuSans-48"/>
       <use x="190.869141" xlink:href="#DejaVuSans-48"/>
      </g>
     </g>
    </g>
    <g id="xtick_12">
     <g id="line2d_42">
      <path clip-path="url(#pa74f3c542d)" d="M 581.77503 355.158828 
L 581.77503 10.840117 
" style="fill:none;stroke:#b0b0b0;stroke-linecap:square;stroke-width:0.8;"/>
     </g>
     <g id="line2d_43">
      <g>
       <use style="stroke:#000000;stroke-width:0.8;" x="581.77503" xlink:href="#m0014944ce6" y="355.158828"/>
      </g>
     </g>
     <g id="text_24">
      <!-- 5000 -->
      <g transform="translate(569.05003 369.757266)scale(0.1 -0.1)">
       <use xlink:href="#DejaVuSans-53"/>
       <use x="63.623047" xlink:href="#DejaVuSans-48"/>
       <use x="127.246094" xlink:href="#DejaVuSans-48"/>
       <use x="190.869141" xlink:href="#DejaVuSans-48"/>
      </g>
     </g>
    </g>
    <g id="xtick_13">
     <g id="line2d_44">
      <path clip-path="url(#pa74f3c542d)" d="M 620.982737 355.158828 
L 620.982737 10.840117 
" style="fill:none;stroke:#b0b0b0;stroke-linecap:square;stroke-width:0.8;"/>
     </g>
     <g id="line2d_45">
      <g>
       <use style="stroke:#000000;stroke-width:0.8;" x="620.982737" xlink:href="#m0014944ce6" y="355.158828"/>
      </g>
     </g>
     <g id="text_25">
      <!-- 7500 -->
      <g transform="translate(608.257737 369.757266)scale(0.1 -0.1)">
       <use xlink:href="#DejaVuSans-55"/>
       <use x="63.623047" xlink:href="#DejaVuSans-53"/>
       <use x="127.246094" xlink:href="#DejaVuSans-48"/>
       <use x="190.869141" xlink:href="#DejaVuSans-48"/>
      </g>
     </g>
    </g>
    <g id="xtick_14">
     <g id="line2d_46">
      <path clip-path="url(#pa74f3c542d)" d="M 660.190445 355.158828 
L 660.190445 10.840117 
" style="fill:none;stroke:#b0b0b0;stroke-linecap:square;stroke-width:0.8;"/>
     </g>
     <g id="line2d_47">
      <g>
       <use style="stroke:#000000;stroke-width:0.8;" x="660.190445" xlink:href="#m0014944ce6" y="355.158828"/>
      </g>
     </g>
     <g id="text_26">
      <!-- 10000 -->
      <g transform="translate(644.284195 369.757266)scale(0.1 -0.1)">
       <use xlink:href="#DejaVuSans-49"/>
       <use x="63.623047" xlink:href="#DejaVuSans-48"/>
       <use x="127.246094" xlink:href="#DejaVuSans-48"/>
       <use x="190.869141" xlink:href="#DejaVuSans-48"/>
       <use x="254.492188" xlink:href="#DejaVuSans-48"/>
      </g>
     </g>
    </g>
    <g id="xtick_15">
     <g id="line2d_48">
      <path clip-path="url(#pa74f3c542d)" d="M 699.398152 355.158828 
L 699.398152 10.840117 
" style="fill:none;stroke:#b0b0b0;stroke-linecap:square;stroke-width:0.8;"/>
     </g>
     <g id="line2d_49">
      <g>
       <use style="stroke:#000000;stroke-width:0.8;" x="699.398152" xlink:href="#m0014944ce6" y="355.158828"/>
      </g>
     </g>
     <g id="text_27">
      <!-- 12500 -->
      <g transform="translate(683.491902 369.757266)scale(0.1 -0.1)">
       <use xlink:href="#DejaVuSans-49"/>
       <use x="63.623047" xlink:href="#DejaVuSans-50"/>
       <use x="127.246094" xlink:href="#DejaVuSans-53"/>
       <use x="190.869141" xlink:href="#DejaVuSans-48"/>
       <use x="254.492188" xlink:href="#DejaVuSans-48"/>
      </g>
     </g>
    </g>
    <g id="xtick_16">
     <g id="line2d_50">
      <path clip-path="url(#pa74f3c542d)" d="M 738.60586 355.158828 
L 738.60586 10.840117 
" style="fill:none;stroke:#b0b0b0;stroke-linecap:square;stroke-width:0.8;"/>
     </g>
     <g id="line2d_51">
      <g>
       <use style="stroke:#000000;stroke-width:0.8;" x="738.60586" xlink:href="#m0014944ce6" y="355.158828"/>
      </g>
     </g>
     <g id="text_28">
      <!-- 15000 -->
      <g transform="translate(722.69961 369.757266)scale(0.1 -0.1)">
       <use xlink:href="#DejaVuSans-49"/>
       <use x="63.623047" xlink:href="#DejaVuSans-53"/>
       <use x="127.246094" xlink:href="#DejaVuSans-48"/>
       <use x="190.869141" xlink:href="#DejaVuSans-48"/>
       <use x="254.492188" xlink:href="#DejaVuSans-48"/>
      </g>
     </g>
    </g>
    <g id="xtick_17">
     <g id="line2d_52">
      <path clip-path="url(#pa74f3c542d)" d="M 777.813567 355.158828 
L 777.813567 10.840117 
" style="fill:none;stroke:#b0b0b0;stroke-linecap:square;stroke-width:0.8;"/>
     </g>
     <g id="line2d_53">
      <g>
       <use style="stroke:#000000;stroke-width:0.8;" x="777.813567" xlink:href="#m0014944ce6" y="355.158828"/>
      </g>
     </g>
     <g id="text_29">
      <!-- 17500 -->
      <g transform="translate(761.907317 369.757266)scale(0.1 -0.1)">
       <use xlink:href="#DejaVuSans-49"/>
       <use x="63.623047" xlink:href="#DejaVuSans-55"/>
       <use x="127.246094" xlink:href="#DejaVuSans-53"/>
       <use x="190.869141" xlink:href="#DejaVuSans-48"/>
       <use x="254.492188" xlink:href="#DejaVuSans-48"/>
      </g>
     </g>
    </g>
    <g id="xtick_18">
     <g id="line2d_54">
      <path clip-path="url(#pa74f3c542d)" d="M 817.021275 355.158828 
L 817.021275 10.840117 
" style="fill:none;stroke:#b0b0b0;stroke-linecap:square;stroke-width:0.8;"/>
     </g>
     <g id="line2d_55">
      <g>
       <use style="stroke:#000000;stroke-width:0.8;" x="817.021275" xlink:href="#m0014944ce6" y="355.158828"/>
      </g>
     </g>
     <g id="text_30">
      <!-- 20000 -->
      <g transform="translate(801.115025 369.757266)scale(0.1 -0.1)">
       <use xlink:href="#DejaVuSans-50"/>
       <use x="63.623047" xlink:href="#DejaVuSans-48"/>
       <use x="127.246094" xlink:href="#DejaVuSans-48"/>
       <use x="190.869141" xlink:href="#DejaVuSans-48"/>
       <use x="254.492188" xlink:href="#DejaVuSans-48"/>
      </g>
     </g>
    </g>
    <g id="text_31">
     <!-- t [s] -->
     <g transform="translate(650.754458 383.435391)scale(0.1 -0.1)">
      <use xlink:href="#DejaVuSans-116"/>
      <use x="39.208984" xlink:href="#DejaVuSans-32"/>
      <use x="70.996094" xlink:href="#DejaVuSans-91"/>
      <use x="110.009766" xlink:href="#DejaVuSans-115"/>
      <use x="162.109375" xlink:href="#DejaVuSans-93"/>
     </g>
    </g>
   </g>
   <g id="matplotlib.axis_4">
    <g id="ytick_9">
     <g id="line2d_56">
      <path clip-path="url(#pa74f3c542d)" d="M 487.614583 340.136143 
L 834.00527 340.136143 
" style="fill:none;stroke:#b0b0b0;stroke-linecap:square;stroke-width:0.8;"/>
     </g>
     <g id="line2d_57">
      <g>
       <use style="stroke:#000000;stroke-width:0.8;" x="487.614583" xlink:href="#m0852b67a8e" y="340.136143"/>
      </g>
     </g>
     <g id="text_32">
      <!-- 0.010 -->
      <g transform="translate(443.606771 343.935361)scale(0.1 -0.1)">
       <defs>
        <path d="M 10.59375 35.5 
L 73.1875 35.5 
L 73.1875 27.203125 
L 10.59375 27.203125 
z
" id="DejaVuSans-8722"/>
       </defs>
       <use xlink:href="#DejaVuSans-8722"/>
       <use x="83.789062" xlink:href="#DejaVuSans-48"/>
       <use x="147.412109" xlink:href="#DejaVuSans-46"/>
       <use x="179.199219" xlink:href="#DejaVuSans-48"/>
       <use x="242.822266" xlink:href="#DejaVuSans-49"/>
       <use x="306.445312" xlink:href="#DejaVuSans-48"/>
      </g>
     </g>
    </g>
    <g id="ytick_10">
     <g id="line2d_58">
      <path clip-path="url(#pa74f3c542d)" d="M 487.614583 277.407293 
L 834.00527 277.407293 
" style="fill:none;stroke:#b0b0b0;stroke-linecap:square;stroke-width:0.8;"/>
     </g>
     <g id="line2d_59">
      <g>
       <use style="stroke:#000000;stroke-width:0.8;" x="487.614583" xlink:href="#m0852b67a8e" y="277.407293"/>
      </g>
     </g>
     <g id="text_33">
      <!-- 0.008 -->
      <g transform="translate(443.606771 281.206512)scale(0.1 -0.1)">
       <use xlink:href="#DejaVuSans-8722"/>
       <use x="83.789062" xlink:href="#DejaVuSans-48"/>
       <use x="147.412109" xlink:href="#DejaVuSans-46"/>
       <use x="179.199219" xlink:href="#DejaVuSans-48"/>
       <use x="242.822266" xlink:href="#DejaVuSans-48"/>
       <use x="306.445312" xlink:href="#DejaVuSans-56"/>
      </g>
     </g>
    </g>
    <g id="ytick_11">
     <g id="line2d_60">
      <path clip-path="url(#pa74f3c542d)" d="M 487.614583 214.678444 
L 834.00527 214.678444 
" style="fill:none;stroke:#b0b0b0;stroke-linecap:square;stroke-width:0.8;"/>
     </g>
     <g id="line2d_61">
      <g>
       <use style="stroke:#000000;stroke-width:0.8;" x="487.614583" xlink:href="#m0852b67a8e" y="214.678444"/>
      </g>
     </g>
     <g id="text_34">
      <!-- 0.006 -->
      <g transform="translate(443.606771 218.477663)scale(0.1 -0.1)">
       <defs>
        <path d="M 33.015625 40.375 
Q 26.375 40.375 22.484375 35.828125 
Q 18.609375 31.296875 18.609375 23.390625 
Q 18.609375 15.53125 22.484375 10.953125 
Q 26.375 6.390625 33.015625 6.390625 
Q 39.65625 6.390625 43.53125 10.953125 
Q 47.40625 15.53125 47.40625 23.390625 
Q 47.40625 31.296875 43.53125 35.828125 
Q 39.65625 40.375 33.015625 40.375 
z
M 52.59375 71.296875 
L 52.59375 62.3125 
Q 48.875 64.0625 45.09375 64.984375 
Q 41.3125 65.921875 37.59375 65.921875 
Q 27.828125 65.921875 22.671875 59.328125 
Q 17.53125 52.734375 16.796875 39.40625 
Q 19.671875 43.65625 24.015625 45.921875 
Q 28.375 48.1875 33.59375 48.1875 
Q 44.578125 48.1875 50.953125 41.515625 
Q 57.328125 34.859375 57.328125 23.390625 
Q 57.328125 12.15625 50.6875 5.359375 
Q 44.046875 -1.421875 33.015625 -1.421875 
Q 20.359375 -1.421875 13.671875 8.265625 
Q 6.984375 17.96875 6.984375 36.375 
Q 6.984375 53.65625 15.1875 63.9375 
Q 23.390625 74.21875 37.203125 74.21875 
Q 40.921875 74.21875 44.703125 73.484375 
Q 48.484375 72.75 52.59375 71.296875 
z
" id="DejaVuSans-54"/>
       </defs>
       <use xlink:href="#DejaVuSans-8722"/>
       <use x="83.789062" xlink:href="#DejaVuSans-48"/>
       <use x="147.412109" xlink:href="#DejaVuSans-46"/>
       <use x="179.199219" xlink:href="#DejaVuSans-48"/>
       <use x="242.822266" xlink:href="#DejaVuSans-48"/>
       <use x="306.445312" xlink:href="#DejaVuSans-54"/>
      </g>
     </g>
    </g>
    <g id="ytick_12">
     <g id="line2d_62">
      <path clip-path="url(#pa74f3c542d)" d="M 487.614583 151.949595 
L 834.00527 151.949595 
" style="fill:none;stroke:#b0b0b0;stroke-linecap:square;stroke-width:0.8;"/>
     </g>
     <g id="line2d_63">
      <g>
       <use style="stroke:#000000;stroke-width:0.8;" x="487.614583" xlink:href="#m0852b67a8e" y="151.949595"/>
      </g>
     </g>
     <g id="text_35">
      <!-- 0.004 -->
      <g transform="translate(443.606771 155.748814)scale(0.1 -0.1)">
       <use xlink:href="#DejaVuSans-8722"/>
       <use x="83.789062" xlink:href="#DejaVuSans-48"/>
       <use x="147.412109" xlink:href="#DejaVuSans-46"/>
       <use x="179.199219" xlink:href="#DejaVuSans-48"/>
       <use x="242.822266" xlink:href="#DejaVuSans-48"/>
       <use x="306.445312" xlink:href="#DejaVuSans-52"/>
      </g>
     </g>
    </g>
    <g id="ytick_13">
     <g id="line2d_64">
      <path clip-path="url(#pa74f3c542d)" d="M 487.614583 89.220746 
L 834.00527 89.220746 
" style="fill:none;stroke:#b0b0b0;stroke-linecap:square;stroke-width:0.8;"/>
     </g>
     <g id="line2d_65">
      <g>
       <use style="stroke:#000000;stroke-width:0.8;" x="487.614583" xlink:href="#m0852b67a8e" y="89.220746"/>
      </g>
     </g>
     <g id="text_36">
      <!-- 0.002 -->
      <g transform="translate(443.606771 93.019965)scale(0.1 -0.1)">
       <use xlink:href="#DejaVuSans-8722"/>
       <use x="83.789062" xlink:href="#DejaVuSans-48"/>
       <use x="147.412109" xlink:href="#DejaVuSans-46"/>
       <use x="179.199219" xlink:href="#DejaVuSans-48"/>
       <use x="242.822266" xlink:href="#DejaVuSans-48"/>
       <use x="306.445312" xlink:href="#DejaVuSans-50"/>
      </g>
     </g>
    </g>
    <g id="ytick_14">
     <g id="line2d_66">
      <path clip-path="url(#pa74f3c542d)" d="M 487.614583 26.491897 
L 834.00527 26.491897 
" style="fill:none;stroke:#b0b0b0;stroke-linecap:square;stroke-width:0.8;"/>
     </g>
     <g id="line2d_67">
      <g>
       <use style="stroke:#000000;stroke-width:0.8;" x="487.614583" xlink:href="#m0852b67a8e" y="26.491897"/>
      </g>
     </g>
     <g id="text_37">
      <!-- 0.000 -->
      <g transform="translate(451.986458 30.291116)scale(0.1 -0.1)">
       <use xlink:href="#DejaVuSans-48"/>
       <use x="63.623047" xlink:href="#DejaVuSans-46"/>
       <use x="95.410156" xlink:href="#DejaVuSans-48"/>
       <use x="159.033203" xlink:href="#DejaVuSans-48"/>
       <use x="222.65625" xlink:href="#DejaVuSans-48"/>
      </g>
     </g>
    </g>
    <g id="text_38">
     <!-- [V] -->
     <g transform="translate(437.527083 190.321347)rotate(-90)scale(0.1 -0.1)">
      <use xlink:href="#DejaVuSans-91"/>
      <use x="39.013672" xlink:href="#DejaVuSans-86"/>
      <use x="107.421875" xlink:href="#DejaVuSans-93"/>
     </g>
    </g>
   </g>
   <g id="line2d_68">
    <path clip-path="url(#pa74f3c542d)" d="M 503.359615 26.491 
L 519.387725 26.561044 
L 519.434775 27.090864 
L 519.481824 31.744156 
L 519.544556 71.478929 
L 519.622972 251.787332 
L 519.748436 333.16413 
L 519.889584 339.434536 
L 520.046415 339.50683 
L 520.203246 339.421778 
L 677.065442 26.491372 
L 682.052662 26.491015 
L 818.260238 26.491022 
L 818.260238 26.491022 
" style="fill:none;stroke:#1f77b4;stroke-linecap:square;stroke-width:1.5;"/>
   </g>
   <g id="patch_9">
    <path d="M 487.614583 355.158828 
L 487.614583 10.840117 
" style="fill:none;stroke:#000000;stroke-linecap:square;stroke-linejoin:miter;stroke-width:0.8;"/>
   </g>
   <g id="patch_10">
    <path d="M 834.00527 355.158828 
L 834.00527 10.840117 
" style="fill:none;stroke:#000000;stroke-linecap:square;stroke-linejoin:miter;stroke-width:0.8;"/>
   </g>
   <g id="patch_11">
    <path d="M 487.614583 355.158828 
L 834.00527 355.158828 
" style="fill:none;stroke:#000000;stroke-linecap:square;stroke-linejoin:miter;stroke-width:0.8;"/>
   </g>
   <g id="patch_12">
    <path d="M 487.614583 10.840117 
L 834.00527 10.840117 
" style="fill:none;stroke:#000000;stroke-linecap:square;stroke-linejoin:miter;stroke-width:0.8;"/>
   </g>
   <g id="text_39">
    <!-- scaled envelope -->
    <g transform="translate(612.057114 418.02257)scale(0.12 -0.12)">
     <use xlink:href="#DejaVuSans-115"/>
     <use x="52.099609" xlink:href="#DejaVuSans-99"/>
     <use x="107.080078" xlink:href="#DejaVuSans-97"/>
     <use x="168.359375" xlink:href="#DejaVuSans-108"/>
     <use x="196.142578" xlink:href="#DejaVuSans-101"/>
     <use x="257.666016" xlink:href="#DejaVuSans-100"/>
     <use x="321.142578" xlink:href="#DejaVuSans-32"/>
     <use x="352.929688" xlink:href="#DejaVuSans-101"/>
     <use x="414.453125" xlink:href="#DejaVuSans-110"/>
     <use x="477.832031" xlink:href="#DejaVuSans-118"/>
     <use x="537.011719" xlink:href="#DejaVuSans-101"/>
     <use x="598.535156" xlink:href="#DejaVuSans-108"/>
     <use x="626.318359" xlink:href="#DejaVuSans-111"/>
     <use x="687.5" xlink:href="#DejaVuSans-112"/>
     <use x="750.976562" xlink:href="#DejaVuSans-101"/>
    </g>
   </g>
   <g id="legend_2">
    <g id="patch_13">
     <path d="M 766.727132 79.703859 
L 804.880257 79.703859 
Q 806.880257 79.703859 806.880257 77.703859 
L 806.880257 64.025734 
Q 806.880257 62.025734 804.880257 62.025734 
L 766.727132 62.025734 
Q 764.727132 62.025734 764.727132 64.025734 
L 764.727132 77.703859 
Q 764.727132 79.703859 766.727132 79.703859 
z
" style="fill:#ffffff;opacity:0.8;stroke:#cccccc;stroke-linejoin:miter;"/>
    </g>
    <g id="line2d_69">
     <path d="M 768.727132 70.124171 
L 788.727132 70.124171 
" style="fill:none;stroke:#1f77b4;stroke-linecap:square;stroke-width:1.5;"/>
    </g>
    <g id="line2d_70"/>
    <g id="text_40">
     <!-- e -->
     <g transform="translate(796.727132 73.624171)scale(0.1 -0.1)">
      <use xlink:href="#DejaVuSans-101"/>
     </g>
    </g>
   </g>
  </g>
  <g id="axes_3">
   <g id="patch_14">
    <path d="M 918.722917 355.158828 
L 1265.113603 355.158828 
L 1265.113603 10.840117 
L 918.722917 10.840117 
z
" style="fill:#ffffff;"/>
   </g>
   <g id="matplotlib.axis_5">
    <g id="xtick_19">
     <g id="line2d_71">
      <path clip-path="url(#p24d7a43ff3)" d="M 934.467948 355.158828 
L 934.467948 10.840117 
" style="fill:none;stroke:#b0b0b0;stroke-linecap:square;stroke-width:0.8;"/>
     </g>
     <g id="line2d_72">
      <g>
       <use style="stroke:#000000;stroke-width:0.8;" x="934.467948" xlink:href="#m0014944ce6" y="355.158828"/>
      </g>
     </g>
     <g id="text_41">
      <!-- 0 -->
      <g transform="translate(931.286698 369.757266)scale(0.1 -0.1)">
       <use xlink:href="#DejaVuSans-48"/>
      </g>
     </g>
    </g>
    <g id="xtick_20">
     <g id="line2d_73">
      <path clip-path="url(#p24d7a43ff3)" d="M 973.675655 355.158828 
L 973.675655 10.840117 
" style="fill:none;stroke:#b0b0b0;stroke-linecap:square;stroke-width:0.8;"/>
     </g>
     <g id="line2d_74">
      <g>
       <use style="stroke:#000000;stroke-width:0.8;" x="973.675655" xlink:href="#m0014944ce6" y="355.158828"/>
      </g>
     </g>
     <g id="text_42">
      <!-- 2500 -->
      <g transform="translate(960.950655 369.757266)scale(0.1 -0.1)">
       <use xlink:href="#DejaVuSans-50"/>
       <use x="63.623047" xlink:href="#DejaVuSans-53"/>
       <use x="127.246094" xlink:href="#DejaVuSans-48"/>
       <use x="190.869141" xlink:href="#DejaVuSans-48"/>
      </g>
     </g>
    </g>
    <g id="xtick_21">
     <g id="line2d_75">
      <path clip-path="url(#p24d7a43ff3)" d="M 1012.883363 355.158828 
L 1012.883363 10.840117 
" style="fill:none;stroke:#b0b0b0;stroke-linecap:square;stroke-width:0.8;"/>
     </g>
     <g id="line2d_76">
      <g>
       <use style="stroke:#000000;stroke-width:0.8;" x="1012.883363" xlink:href="#m0014944ce6" y="355.158828"/>
      </g>
     </g>
     <g id="text_43">
      <!-- 5000 -->
      <g transform="translate(1000.158363 369.757266)scale(0.1 -0.1)">
       <use xlink:href="#DejaVuSans-53"/>
       <use x="63.623047" xlink:href="#DejaVuSans-48"/>
       <use x="127.246094" xlink:href="#DejaVuSans-48"/>
       <use x="190.869141" xlink:href="#DejaVuSans-48"/>
      </g>
     </g>
    </g>
    <g id="xtick_22">
     <g id="line2d_77">
      <path clip-path="url(#p24d7a43ff3)" d="M 1052.09107 355.158828 
L 1052.09107 10.840117 
" style="fill:none;stroke:#b0b0b0;stroke-linecap:square;stroke-width:0.8;"/>
     </g>
     <g id="line2d_78">
      <g>
       <use style="stroke:#000000;stroke-width:0.8;" x="1052.09107" xlink:href="#m0014944ce6" y="355.158828"/>
      </g>
     </g>
     <g id="text_44">
      <!-- 7500 -->
      <g transform="translate(1039.36607 369.757266)scale(0.1 -0.1)">
       <use xlink:href="#DejaVuSans-55"/>
       <use x="63.623047" xlink:href="#DejaVuSans-53"/>
       <use x="127.246094" xlink:href="#DejaVuSans-48"/>
       <use x="190.869141" xlink:href="#DejaVuSans-48"/>
      </g>
     </g>
    </g>
    <g id="xtick_23">
     <g id="line2d_79">
      <path clip-path="url(#p24d7a43ff3)" d="M 1091.298778 355.158828 
L 1091.298778 10.840117 
" style="fill:none;stroke:#b0b0b0;stroke-linecap:square;stroke-width:0.8;"/>
     </g>
     <g id="line2d_80">
      <g>
       <use style="stroke:#000000;stroke-width:0.8;" x="1091.298778" xlink:href="#m0014944ce6" y="355.158828"/>
      </g>
     </g>
     <g id="text_45">
      <!-- 10000 -->
      <g transform="translate(1075.392528 369.757266)scale(0.1 -0.1)">
       <use xlink:href="#DejaVuSans-49"/>
       <use x="63.623047" xlink:href="#DejaVuSans-48"/>
       <use x="127.246094" xlink:href="#DejaVuSans-48"/>
       <use x="190.869141" xlink:href="#DejaVuSans-48"/>
       <use x="254.492188" xlink:href="#DejaVuSans-48"/>
      </g>
     </g>
    </g>
    <g id="xtick_24">
     <g id="line2d_81">
      <path clip-path="url(#p24d7a43ff3)" d="M 1130.506486 355.158828 
L 1130.506486 10.840117 
" style="fill:none;stroke:#b0b0b0;stroke-linecap:square;stroke-width:0.8;"/>
     </g>
     <g id="line2d_82">
      <g>
       <use style="stroke:#000000;stroke-width:0.8;" x="1130.506486" xlink:href="#m0014944ce6" y="355.158828"/>
      </g>
     </g>
     <g id="text_46">
      <!-- 12500 -->
      <g transform="translate(1114.600236 369.757266)scale(0.1 -0.1)">
       <use xlink:href="#DejaVuSans-49"/>
       <use x="63.623047" xlink:href="#DejaVuSans-50"/>
       <use x="127.246094" xlink:href="#DejaVuSans-53"/>
       <use x="190.869141" xlink:href="#DejaVuSans-48"/>
       <use x="254.492188" xlink:href="#DejaVuSans-48"/>
      </g>
     </g>
    </g>
    <g id="xtick_25">
     <g id="line2d_83">
      <path clip-path="url(#p24d7a43ff3)" d="M 1169.714193 355.158828 
L 1169.714193 10.840117 
" style="fill:none;stroke:#b0b0b0;stroke-linecap:square;stroke-width:0.8;"/>
     </g>
     <g id="line2d_84">
      <g>
       <use style="stroke:#000000;stroke-width:0.8;" x="1169.714193" xlink:href="#m0014944ce6" y="355.158828"/>
      </g>
     </g>
     <g id="text_47">
      <!-- 15000 -->
      <g transform="translate(1153.807943 369.757266)scale(0.1 -0.1)">
       <use xlink:href="#DejaVuSans-49"/>
       <use x="63.623047" xlink:href="#DejaVuSans-53"/>
       <use x="127.246094" xlink:href="#DejaVuSans-48"/>
       <use x="190.869141" xlink:href="#DejaVuSans-48"/>
       <use x="254.492188" xlink:href="#DejaVuSans-48"/>
      </g>
     </g>
    </g>
    <g id="xtick_26">
     <g id="line2d_85">
      <path clip-path="url(#p24d7a43ff3)" d="M 1208.921901 355.158828 
L 1208.921901 10.840117 
" style="fill:none;stroke:#b0b0b0;stroke-linecap:square;stroke-width:0.8;"/>
     </g>
     <g id="line2d_86">
      <g>
       <use style="stroke:#000000;stroke-width:0.8;" x="1208.921901" xlink:href="#m0014944ce6" y="355.158828"/>
      </g>
     </g>
     <g id="text_48">
      <!-- 17500 -->
      <g transform="translate(1193.015651 369.757266)scale(0.1 -0.1)">
       <use xlink:href="#DejaVuSans-49"/>
       <use x="63.623047" xlink:href="#DejaVuSans-55"/>
       <use x="127.246094" xlink:href="#DejaVuSans-53"/>
       <use x="190.869141" xlink:href="#DejaVuSans-48"/>
       <use x="254.492188" xlink:href="#DejaVuSans-48"/>
      </g>
     </g>
    </g>
    <g id="xtick_27">
     <g id="line2d_87">
      <path clip-path="url(#p24d7a43ff3)" d="M 1248.129608 355.158828 
L 1248.129608 10.840117 
" style="fill:none;stroke:#b0b0b0;stroke-linecap:square;stroke-width:0.8;"/>
     </g>
     <g id="line2d_88">
      <g>
       <use style="stroke:#000000;stroke-width:0.8;" x="1248.129608" xlink:href="#m0014944ce6" y="355.158828"/>
      </g>
     </g>
     <g id="text_49">
      <!-- 20000 -->
      <g transform="translate(1232.223358 369.757266)scale(0.1 -0.1)">
       <use xlink:href="#DejaVuSans-50"/>
       <use x="63.623047" xlink:href="#DejaVuSans-48"/>
       <use x="127.246094" xlink:href="#DejaVuSans-48"/>
       <use x="190.869141" xlink:href="#DejaVuSans-48"/>
       <use x="254.492188" xlink:href="#DejaVuSans-48"/>
      </g>
     </g>
    </g>
    <g id="text_50">
     <!-- t [s] -->
     <g transform="translate(1081.862791 383.435391)scale(0.1 -0.1)">
      <use xlink:href="#DejaVuSans-116"/>
      <use x="39.208984" xlink:href="#DejaVuSans-32"/>
      <use x="70.996094" xlink:href="#DejaVuSans-91"/>
      <use x="110.009766" xlink:href="#DejaVuSans-115"/>
      <use x="162.109375" xlink:href="#DejaVuSans-93"/>
     </g>
    </g>
   </g>
   <g id="matplotlib.axis_6">
    <g id="ytick_15">
     <g id="line2d_89">
      <path clip-path="url(#p24d7a43ff3)" d="M 918.722917 310.498788 
L 1265.113603 310.498788 
" style="fill:none;stroke:#b0b0b0;stroke-linecap:square;stroke-width:0.8;"/>
     </g>
     <g id="line2d_90">
      <g>
       <use style="stroke:#000000;stroke-width:0.8;" x="918.722917" xlink:href="#m0852b67a8e" y="310.498788"/>
      </g>
     </g>
     <g id="text_51">
      <!-- 1.98 -->
      <g transform="translate(889.457292 314.298007)scale(0.1 -0.1)">
       <use xlink:href="#DejaVuSans-49"/>
       <use x="63.623047" xlink:href="#DejaVuSans-46"/>
       <use x="95.410156" xlink:href="#DejaVuSans-57"/>
       <use x="159.033203" xlink:href="#DejaVuSans-56"/>
      </g>
     </g>
    </g>
    <g id="ytick_16">
     <g id="line2d_91">
      <path clip-path="url(#p24d7a43ff3)" d="M 918.722917 253.879192 
L 1265.113603 253.879192 
" style="fill:none;stroke:#b0b0b0;stroke-linecap:square;stroke-width:0.8;"/>
     </g>
     <g id="line2d_92">
      <g>
       <use style="stroke:#000000;stroke-width:0.8;" x="918.722917" xlink:href="#m0852b67a8e" y="253.879192"/>
      </g>
     </g>
     <g id="text_52">
      <!-- 1.99 -->
      <g transform="translate(889.457292 257.67841)scale(0.1 -0.1)">
       <use xlink:href="#DejaVuSans-49"/>
       <use x="63.623047" xlink:href="#DejaVuSans-46"/>
       <use x="95.410156" xlink:href="#DejaVuSans-57"/>
       <use x="159.033203" xlink:href="#DejaVuSans-57"/>
      </g>
     </g>
    </g>
    <g id="ytick_17">
     <g id="line2d_93">
      <path clip-path="url(#p24d7a43ff3)" d="M 918.722917 197.259595 
L 1265.113603 197.259595 
" style="fill:none;stroke:#b0b0b0;stroke-linecap:square;stroke-width:0.8;"/>
     </g>
     <g id="line2d_94">
      <g>
       <use style="stroke:#000000;stroke-width:0.8;" x="918.722917" xlink:href="#m0852b67a8e" y="197.259595"/>
      </g>
     </g>
     <g id="text_53">
      <!-- 2.00 -->
      <g transform="translate(889.457292 201.058814)scale(0.1 -0.1)">
       <use xlink:href="#DejaVuSans-50"/>
       <use x="63.623047" xlink:href="#DejaVuSans-46"/>
       <use x="95.410156" xlink:href="#DejaVuSans-48"/>
       <use x="159.033203" xlink:href="#DejaVuSans-48"/>
      </g>
     </g>
    </g>
    <g id="ytick_18">
     <g id="line2d_95">
      <path clip-path="url(#p24d7a43ff3)" d="M 918.722917 140.639998 
L 1265.113603 140.639998 
" style="fill:none;stroke:#b0b0b0;stroke-linecap:square;stroke-width:0.8;"/>
     </g>
     <g id="line2d_96">
      <g>
       <use style="stroke:#000000;stroke-width:0.8;" x="918.722917" xlink:href="#m0852b67a8e" y="140.639998"/>
      </g>
     </g>
     <g id="text_54">
      <!-- 2.01 -->
      <g transform="translate(889.457292 144.439217)scale(0.1 -0.1)">
       <use xlink:href="#DejaVuSans-50"/>
       <use x="63.623047" xlink:href="#DejaVuSans-46"/>
       <use x="95.410156" xlink:href="#DejaVuSans-48"/>
       <use x="159.033203" xlink:href="#DejaVuSans-49"/>
      </g>
     </g>
    </g>
    <g id="ytick_19">
     <g id="line2d_97">
      <path clip-path="url(#p24d7a43ff3)" d="M 918.722917 84.020402 
L 1265.113603 84.020402 
" style="fill:none;stroke:#b0b0b0;stroke-linecap:square;stroke-width:0.8;"/>
     </g>
     <g id="line2d_98">
      <g>
       <use style="stroke:#000000;stroke-width:0.8;" x="918.722917" xlink:href="#m0852b67a8e" y="84.020402"/>
      </g>
     </g>
     <g id="text_55">
      <!-- 2.02 -->
      <g transform="translate(889.457292 87.81962)scale(0.1 -0.1)">
       <use xlink:href="#DejaVuSans-50"/>
       <use x="63.623047" xlink:href="#DejaVuSans-46"/>
       <use x="95.410156" xlink:href="#DejaVuSans-48"/>
       <use x="159.033203" xlink:href="#DejaVuSans-50"/>
      </g>
     </g>
    </g>
    <g id="ytick_20">
     <g id="line2d_99">
      <path clip-path="url(#p24d7a43ff3)" d="M 918.722917 27.400805 
L 1265.113603 27.400805 
" style="fill:none;stroke:#b0b0b0;stroke-linecap:square;stroke-width:0.8;"/>
     </g>
     <g id="line2d_100">
      <g>
       <use style="stroke:#000000;stroke-width:0.8;" x="918.722917" xlink:href="#m0852b67a8e" y="27.400805"/>
      </g>
     </g>
     <g id="text_56">
      <!-- 2.03 -->
      <g transform="translate(889.457292 31.200024)scale(0.1 -0.1)">
       <use xlink:href="#DejaVuSans-50"/>
       <use x="63.623047" xlink:href="#DejaVuSans-46"/>
       <use x="95.410156" xlink:href="#DejaVuSans-48"/>
       <use x="159.033203" xlink:href="#DejaVuSans-51"/>
      </g>
     </g>
    </g>
    <g id="text_57">
     <!-- [V] -->
     <g transform="translate(883.377604 190.321347)rotate(-90)scale(0.1 -0.1)">
      <use xlink:href="#DejaVuSans-91"/>
      <use x="39.013672" xlink:href="#DejaVuSans-86"/>
      <use x="107.421875" xlink:href="#DejaVuSans-93"/>
     </g>
    </g>
   </g>
   <g id="line2d_101">
    <path clip-path="url(#p24d7a43ff3)" d="M 934.467948 197.196422 
L 934.718877 197.089452 
L 939.721781 169.632603 
L 943.407305 150.604845 
L 946.512556 135.699212 
L 949.272778 123.508439 
L 950.464693 118.938308 
L 950.590157 118.882008 
L 950.621523 118.423704 
L 950.684256 111.926948 
L 950.950868 66.411886 
L 951.186114 62.337255 
L 951.295896 62.201362 
L 953.569943 54.26151 
L 955.655793 47.75796 
L 957.584812 42.450862 
L 959.357001 38.204882 
L 960.988041 34.850886 
L 962.493617 32.240368 
L 963.889412 30.246276 
L 965.191107 28.762684 
L 966.398705 27.715289 
L 967.512204 27.032887 
L 968.56297 26.640051 
L 969.582371 26.493096 
L 970.586088 26.574372 
L 971.589805 26.880137 
L 972.624889 27.43048 
L 973.722705 28.274381 
L 974.883253 29.456544 
L 976.122216 31.045413 
L 977.455278 33.128327 
L 978.882439 35.781682 
L 980.419381 39.120335 
L 982.081788 43.28061 
L 983.869659 48.373107 
L 985.798679 54.559362 
L 987.884529 62.017979 
L 990.142893 70.940036 
L 992.62082 81.66287 
L 995.365359 94.562271 
L 998.454927 110.191136 
L 1002.077719 129.715943 
L 1006.766961 156.297741 
L 1019.517307 229.227196 
L 1023.171465 248.462122 
L 1026.276716 263.659664 
L 1029.036938 276.091996 
L 1031.530549 286.328084 
L 1033.804596 294.755335 
L 1035.906129 301.715487 
L 1037.850831 307.407419 
L 1039.638703 311.977626 
L 1041.301109 315.63863 
L 1042.838052 318.506191 
L 1044.265212 320.715712 
L 1045.582591 322.362647 
L 1046.805872 323.551244 
L 1047.950737 324.364594 
L 1049.032869 324.866606 
L 1050.067953 325.103858 
L 1051.07167 325.107173 
L 1052.075387 324.887699 
L 1053.110471 324.428909 
L 1054.192604 323.698309 
L 1055.337469 322.648254 
L 1056.560749 321.214689 
L 1057.878128 319.315719 
L 1059.289606 316.879536 
L 1060.810865 313.799037 
L 1062.457588 309.947541 
L 1064.24546 305.178999 
L 1066.174479 299.379313 
L 1068.276012 292.331277 
L 1070.565742 283.84822 
L 1073.090719 273.612075 
L 1075.913674 261.207992 
L 1079.160072 245.903887 
L 1083.143575 225.995731 
L 1089.605005 192.376158 
L 1095.972337 159.659187 
L 1099.799009 141.141143 
L 1102.966992 126.872271 
L 1105.727214 115.4305 
L 1108.09536 106.469861 
L 1108.29924 106.219255 
L 1110.651702 97.369112 
L 1112.815968 90.065214 
L 1114.807719 84.101499 
L 1116.64264 79.283671 
L 1118.336413 75.435012 
L 1119.904721 72.399421 
L 1121.363248 70.042545 
L 1122.711993 68.269944 
L 1123.96664 66.976564 
L 1125.127188 66.088114 
L 1126.225004 65.52176 
L 1127.260087 65.232759 
L 1128.263805 65.180016 
L 1129.267522 65.351296 
L 1130.286922 65.754195 
L 1131.353372 66.421819 
L 1132.482554 67.401604 
L 1133.674468 68.738036 
L 1134.960481 70.524486 
L 1136.340592 72.833985 
L 1137.830485 75.774931 
L 1139.43016 79.438123 
L 1141.155299 83.958046 
L 1143.021586 89.488333 
L 1145.044704 96.199724 
L 1147.240335 104.275921 
L 1149.639847 113.972648 
L 1152.290288 125.634084 
L 1155.285757 139.852783 
L 1158.783084 157.582411 
L 1163.23708 181.390692 
L 1176.897045 255.221262 
L 1180.37869 272.359754 
L 1183.358475 285.952894 
L 1186.008916 297.04277 
L 1188.408428 306.159897 
L 1190.60406 313.658844 
L 1192.627177 319.802761 
L 1194.493464 324.782723 
L 1196.218603 328.77387 
L 1197.818278 331.931853 
L 1199.292488 334.367882 
L 1200.656916 336.209371 
L 1201.927246 337.561742 
L 1203.103477 338.499364 
L 1204.201293 339.099608 
L 1205.252059 339.42439 
L 1206.255777 339.505931 
L 1207.259494 339.36383 
L 1208.278894 338.990796 
L 1209.329661 338.365663 
L 1210.44316 337.437813 
L 1211.635074 336.144023 
L 1212.905404 334.426146 
L 1214.269832 332.196351 
L 1215.744042 329.346824 
L 1217.328033 325.786391 
L 1219.037489 321.380387 
L 1220.888093 315.974371 
L 1222.879845 309.450073 
L 1225.04411 301.578144 
L 1227.412256 292.098823 
L 1230.015647 280.732474 
L 1232.932701 266.968584 
L 1236.304564 249.942661 
L 1240.476264 227.666369 
L 1248.066876 185.632806 
L 1249.368572 178.528407 
L 1249.368572 178.528407 
" style="fill:none;stroke:#1f77b4;stroke-linecap:square;stroke-width:1.5;"/>
   </g>
   <g id="patch_15">
    <path d="M 918.722917 355.158828 
L 918.722917 10.840117 
" style="fill:none;stroke:#000000;stroke-linecap:square;stroke-linejoin:miter;stroke-width:0.8;"/>
   </g>
   <g id="patch_16">
    <path d="M 1265.113603 355.158828 
L 1265.113603 10.840117 
" style="fill:none;stroke:#000000;stroke-linecap:square;stroke-linejoin:miter;stroke-width:0.8;"/>
   </g>
   <g id="patch_17">
    <path d="M 918.722917 355.158828 
L 1265.113603 355.158828 
" style="fill:none;stroke:#000000;stroke-linecap:square;stroke-linejoin:miter;stroke-width:0.8;"/>
   </g>
   <g id="patch_18">
    <path d="M 918.722917 10.840117 
L 1265.113603 10.840117 
" style="fill:none;stroke:#000000;stroke-linecap:square;stroke-linejoin:miter;stroke-width:0.8;"/>
   </g>
   <g id="text_58">
    <!-- output with a cv envelope (Vin_b is scaled). -->
    <g transform="translate(961.049822 418.02257)scale(0.12 -0.12)">
     <use xlink:href="#DejaVuSans-111"/>
     <use x="61.181641" xlink:href="#DejaVuSans-117"/>
     <use x="124.560547" xlink:href="#DejaVuSans-116"/>
     <use x="163.769531" xlink:href="#DejaVuSans-112"/>
     <use x="227.246094" xlink:href="#DejaVuSans-117"/>
     <use x="290.625" xlink:href="#DejaVuSans-116"/>
     <use x="329.833984" xlink:href="#DejaVuSans-32"/>
     <use x="361.621094" xlink:href="#DejaVuSans-119"/>
     <use x="443.408203" xlink:href="#DejaVuSans-105"/>
     <use x="471.191406" xlink:href="#DejaVuSans-116"/>
     <use x="510.400391" xlink:href="#DejaVuSans-104"/>
     <use x="573.779297" xlink:href="#DejaVuSans-32"/>
     <use x="605.566406" xlink:href="#DejaVuSans-97"/>
     <use x="666.845703" xlink:href="#DejaVuSans-32"/>
     <use x="698.632812" xlink:href="#DejaVuSans-99"/>
     <use x="753.613281" xlink:href="#DejaVuSans-118"/>
     <use x="812.792969" xlink:href="#DejaVuSans-32"/>
     <use x="844.580078" xlink:href="#DejaVuSans-101"/>
     <use x="906.103516" xlink:href="#DejaVuSans-110"/>
     <use x="969.482422" xlink:href="#DejaVuSans-118"/>
     <use x="1028.662109" xlink:href="#DejaVuSans-101"/>
     <use x="1090.185547" xlink:href="#DejaVuSans-108"/>
     <use x="1117.96875" xlink:href="#DejaVuSans-111"/>
     <use x="1179.150391" xlink:href="#DejaVuSans-112"/>
     <use x="1242.626953" xlink:href="#DejaVuSans-101"/>
     <use x="1304.150391" xlink:href="#DejaVuSans-32"/>
     <use x="1335.9375" xlink:href="#DejaVuSans-40"/>
     <use x="1374.951172" xlink:href="#DejaVuSans-86"/>
     <use x="1441.109375" xlink:href="#DejaVuSans-105"/>
     <use x="1468.892578" xlink:href="#DejaVuSans-110"/>
     <use x="1532.271484" xlink:href="#DejaVuSans-95"/>
     <use x="1582.271484" xlink:href="#DejaVuSans-98"/>
     <use x="1645.748047" xlink:href="#DejaVuSans-32"/>
     <use x="1677.535156" xlink:href="#DejaVuSans-105"/>
     <use x="1705.318359" xlink:href="#DejaVuSans-115"/>
     <use x="1757.417969" xlink:href="#DejaVuSans-32"/>
     <use x="1789.205078" xlink:href="#DejaVuSans-115"/>
     <use x="1841.304688" xlink:href="#DejaVuSans-99"/>
     <use x="1896.285156" xlink:href="#DejaVuSans-97"/>
     <use x="1957.564453" xlink:href="#DejaVuSans-108"/>
     <use x="1985.347656" xlink:href="#DejaVuSans-101"/>
     <use x="2046.871094" xlink:href="#DejaVuSans-100"/>
     <use x="2110.347656" xlink:href="#DejaVuSans-41"/>
     <use x="2149.361328" xlink:href="#DejaVuSans-46"/>
    </g>
   </g>
   <g id="legend_3">
    <g id="patch_19">
     <path d="M 1197.835466 79.703859 
L 1269.093278 79.703859 
Q 1271.093278 79.703859 1271.093278 77.703859 
L 1271.093278 64.025734 
Q 1271.093278 62.025734 1269.093278 62.025734 
L 1197.835466 62.025734 
Q 1195.835466 62.025734 1195.835466 64.025734 
L 1195.835466 77.703859 
Q 1195.835466 79.703859 1197.835466 79.703859 
z
" style="fill:#ffffff;opacity:0.8;stroke:#cccccc;stroke-linejoin:miter;"/>
    </g>
    <g id="line2d_102">
     <path d="M 1199.835466 70.124171 
L 1219.835466 70.124171 
" style="fill:none;stroke:#1f77b4;stroke-linecap:square;stroke-width:1.5;"/>
    </g>
    <g id="line2d_103"/>
    <g id="text_59">
     <!-- Vcv  [V] -->
     <g transform="translate(1227.835466 73.624171)scale(0.1 -0.1)">
      <use xlink:href="#DejaVuSans-86"/>
      <use x="68.408203" xlink:href="#DejaVuSans-99"/>
      <use x="123.388672" xlink:href="#DejaVuSans-118"/>
      <use x="182.568359" xlink:href="#DejaVuSans-32"/>
      <use x="214.355469" xlink:href="#DejaVuSans-32"/>
      <use x="246.142578" xlink:href="#DejaVuSans-91"/>
      <use x="285.15625" xlink:href="#DejaVuSans-86"/>
      <use x="353.564453" xlink:href="#DejaVuSans-93"/>
     </g>
    </g>
   </g>
  </g>
 </g>
 <defs>
  <clipPath id="p2229e04eeb">
   <rect height="344.318711" width="346.390686" x="56.50625" y="10.840117"/>
  </clipPath>
  <clipPath id="pa74f3c542d">
   <rect height="344.318711" width="346.390686" x="487.614583" y="10.840117"/>
  </clipPath>
  <clipPath id="p24d7a43ff3">
   <rect height="344.318711" width="346.390686" x="918.722917" y="10.840117"/>
  </clipPath>
 </defs>
</svg>
