<?xml version="1.0" encoding="utf-8" standalone="no"?>
<!DOCTYPE svg PUBLIC "-//W3C//DTD SVG 1.1//EN"
  "http://www.w3.org/Graphics/SVG/1.1/DTD/svg11.dtd">
<!-- Created with matplotlib (https://matplotlib.org/) -->
<svg height="429.030975pt" version="1.1" viewBox="0 0 1288.510938 429.030975" width="1288.510938pt" xmlns="http://www.w3.org/2000/svg" xmlns:xlink="http://www.w3.org/1999/xlink">
 <metadata>
  <rdf:RDF xmlns:cc="http://creativecommons.org/ns#" xmlns:dc="http://purl.org/dc/elements/1.1/" xmlns:rdf="http://www.w3.org/1999/02/22-rdf-syntax-ns#">
   <cc:Work>
    <dc:type rdf:resource="http://purl.org/dc/dcmitype/StillImage"/>
    <dc:date>2020-08-23T15:01:22.758422</dc:date>
    <dc:format>image/svg+xml</dc:format>
    <dc:creator>
     <cc:Agent>
      <dc:title>Matplotlib v3.3.0, https://matplotlib.org/</dc:title>
     </cc:Agent>
    </dc:creator>
   </cc:Work>
  </rdf:RDF>
 </metadata>
 <defs>
  <style type="text/css">*{stroke-linecap:butt;stroke-linejoin:round;}</style>
 </defs>
 <g id="figure_1">
  <g id="patch_1">
   <path d="M 0 429.030975 
L 1288.510938 429.030975 
L 1288.510938 0 
L 0 0 
z
" style="fill:none;"/>
  </g>
  <g id="axes_1">
   <g id="patch_2">
    <path d="M 52.160938 355.368 
L 415.065839 355.368 
L 415.065839 7.2 
L 52.160938 7.2 
z
" style="fill:#ffffff;"/>
   </g>
   <g id="matplotlib.axis_1">
    <g id="xtick_1">
     <g id="line2d_1">
      <path clip-path="url(#pc7960d1f6a)" d="M 68.656615 355.368 
L 68.656615 7.2 
" style="fill:none;stroke:#b0b0b0;stroke-linecap:square;stroke-width:0.8;"/>
     </g>
     <g id="line2d_2">
      <defs>
       <path d="M 0 0 
L 0 3.5 
" id="m3b068a802d" style="stroke:#000000;stroke-width:0.8;"/>
      </defs>
      <g>
       <use style="stroke:#000000;stroke-width:0.8;" x="68.656615" xlink:href="#m3b068a802d" y="355.368"/>
      </g>
     </g>
     <g id="text_1">
      <!-- 0 -->
      <g transform="translate(65.475365 369.966437)scale(0.1 -0.1)">
       <defs>
        <path d="M 31.78125 66.40625 
Q 24.171875 66.40625 20.328125 58.90625 
Q 16.5 51.421875 16.5 36.375 
Q 16.5 21.390625 20.328125 13.890625 
Q 24.171875 6.390625 31.78125 6.390625 
Q 39.453125 6.390625 43.28125 13.890625 
Q 47.125 21.390625 47.125 36.375 
Q 47.125 51.421875 43.28125 58.90625 
Q 39.453125 66.40625 31.78125 66.40625 
z
M 31.78125 74.21875 
Q 44.046875 74.21875 50.515625 64.515625 
Q 56.984375 54.828125 56.984375 36.375 
Q 56.984375 17.96875 50.515625 8.265625 
Q 44.046875 -1.421875 31.78125 -1.421875 
Q 19.53125 -1.421875 13.0625 8.265625 
Q 6.59375 17.96875 6.59375 36.375 
Q 6.59375 54.828125 13.0625 64.515625 
Q 19.53125 74.21875 31.78125 74.21875 
z
" id="DejaVuSans-48"/>
       </defs>
       <use xlink:href="#DejaVuSans-48"/>
      </g>
     </g>
    </g>
    <g id="xtick_2">
     <g id="line2d_3">
      <path clip-path="url(#pc7960d1f6a)" d="M 109.88138 355.368 
L 109.88138 7.2 
" style="fill:none;stroke:#b0b0b0;stroke-linecap:square;stroke-width:0.8;"/>
     </g>
     <g id="line2d_4">
      <g>
       <use style="stroke:#000000;stroke-width:0.8;" x="109.88138" xlink:href="#m3b068a802d" y="355.368"/>
      </g>
     </g>
     <g id="text_2">
      <!-- 2500 -->
      <g transform="translate(97.15638 369.966437)scale(0.1 -0.1)">
       <defs>
        <path d="M 19.1875 8.296875 
L 53.609375 8.296875 
L 53.609375 0 
L 7.328125 0 
L 7.328125 8.296875 
Q 12.9375 14.109375 22.625 23.890625 
Q 32.328125 33.6875 34.8125 36.53125 
Q 39.546875 41.84375 41.421875 45.53125 
Q 43.3125 49.21875 43.3125 52.78125 
Q 43.3125 58.59375 39.234375 62.25 
Q 35.15625 65.921875 28.609375 65.921875 
Q 23.96875 65.921875 18.8125 64.3125 
Q 13.671875 62.703125 7.8125 59.421875 
L 7.8125 69.390625 
Q 13.765625 71.78125 18.9375 73 
Q 24.125 74.21875 28.421875 74.21875 
Q 39.75 74.21875 46.484375 68.546875 
Q 53.21875 62.890625 53.21875 53.421875 
Q 53.21875 48.921875 51.53125 44.890625 
Q 49.859375 40.875 45.40625 35.40625 
Q 44.1875 33.984375 37.640625 27.21875 
Q 31.109375 20.453125 19.1875 8.296875 
z
" id="DejaVuSans-50"/>
        <path d="M 10.796875 72.90625 
L 49.515625 72.90625 
L 49.515625 64.59375 
L 19.828125 64.59375 
L 19.828125 46.734375 
Q 21.96875 47.46875 24.109375 47.828125 
Q 26.265625 48.1875 28.421875 48.1875 
Q 40.625 48.1875 47.75 41.5 
Q 54.890625 34.8125 54.890625 23.390625 
Q 54.890625 11.625 47.5625 5.09375 
Q 40.234375 -1.421875 26.90625 -1.421875 
Q 22.3125 -1.421875 17.546875 -0.640625 
Q 12.796875 0.140625 7.71875 1.703125 
L 7.71875 11.625 
Q 12.109375 9.234375 16.796875 8.0625 
Q 21.484375 6.890625 26.703125 6.890625 
Q 35.15625 6.890625 40.078125 11.328125 
Q 45.015625 15.765625 45.015625 23.390625 
Q 45.015625 31 40.078125 35.4375 
Q 35.15625 39.890625 26.703125 39.890625 
Q 22.75 39.890625 18.8125 39.015625 
Q 14.890625 38.140625 10.796875 36.28125 
z
" id="DejaVuSans-53"/>
       </defs>
       <use xlink:href="#DejaVuSans-50"/>
       <use x="63.623047" xlink:href="#DejaVuSans-53"/>
       <use x="127.246094" xlink:href="#DejaVuSans-48"/>
       <use x="190.869141" xlink:href="#DejaVuSans-48"/>
      </g>
     </g>
    </g>
    <g id="xtick_3">
     <g id="line2d_5">
      <path clip-path="url(#pc7960d1f6a)" d="M 151.106144 355.368 
L 151.106144 7.2 
" style="fill:none;stroke:#b0b0b0;stroke-linecap:square;stroke-width:0.8;"/>
     </g>
     <g id="line2d_6">
      <g>
       <use style="stroke:#000000;stroke-width:0.8;" x="151.106144" xlink:href="#m3b068a802d" y="355.368"/>
      </g>
     </g>
     <g id="text_3">
      <!-- 5000 -->
      <g transform="translate(138.381144 369.966437)scale(0.1 -0.1)">
       <use xlink:href="#DejaVuSans-53"/>
       <use x="63.623047" xlink:href="#DejaVuSans-48"/>
       <use x="127.246094" xlink:href="#DejaVuSans-48"/>
       <use x="190.869141" xlink:href="#DejaVuSans-48"/>
      </g>
     </g>
    </g>
    <g id="xtick_4">
     <g id="line2d_7">
      <path clip-path="url(#pc7960d1f6a)" d="M 192.330909 355.368 
L 192.330909 7.2 
" style="fill:none;stroke:#b0b0b0;stroke-linecap:square;stroke-width:0.8;"/>
     </g>
     <g id="line2d_8">
      <g>
       <use style="stroke:#000000;stroke-width:0.8;" x="192.330909" xlink:href="#m3b068a802d" y="355.368"/>
      </g>
     </g>
     <g id="text_4">
      <!-- 7500 -->
      <g transform="translate(179.605909 369.966437)scale(0.1 -0.1)">
       <defs>
        <path d="M 8.203125 72.90625 
L 55.078125 72.90625 
L 55.078125 68.703125 
L 28.609375 0 
L 18.3125 0 
L 43.21875 64.59375 
L 8.203125 64.59375 
z
" id="DejaVuSans-55"/>
       </defs>
       <use xlink:href="#DejaVuSans-55"/>
       <use x="63.623047" xlink:href="#DejaVuSans-53"/>
       <use x="127.246094" xlink:href="#DejaVuSans-48"/>
       <use x="190.869141" xlink:href="#DejaVuSans-48"/>
      </g>
     </g>
    </g>
    <g id="xtick_5">
     <g id="line2d_9">
      <path clip-path="url(#pc7960d1f6a)" d="M 233.555674 355.368 
L 233.555674 7.2 
" style="fill:none;stroke:#b0b0b0;stroke-linecap:square;stroke-width:0.8;"/>
     </g>
     <g id="line2d_10">
      <g>
       <use style="stroke:#000000;stroke-width:0.8;" x="233.555674" xlink:href="#m3b068a802d" y="355.368"/>
      </g>
     </g>
     <g id="text_5">
      <!-- 10000 -->
      <g transform="translate(217.649424 369.966437)scale(0.1 -0.1)">
       <defs>
        <path d="M 12.40625 8.296875 
L 28.515625 8.296875 
L 28.515625 63.921875 
L 10.984375 60.40625 
L 10.984375 69.390625 
L 28.421875 72.90625 
L 38.28125 72.90625 
L 38.28125 8.296875 
L 54.390625 8.296875 
L 54.390625 0 
L 12.40625 0 
z
" id="DejaVuSans-49"/>
       </defs>
       <use xlink:href="#DejaVuSans-49"/>
       <use x="63.623047" xlink:href="#DejaVuSans-48"/>
       <use x="127.246094" xlink:href="#DejaVuSans-48"/>
       <use x="190.869141" xlink:href="#DejaVuSans-48"/>
       <use x="254.492188" xlink:href="#DejaVuSans-48"/>
      </g>
     </g>
    </g>
    <g id="xtick_6">
     <g id="line2d_11">
      <path clip-path="url(#pc7960d1f6a)" d="M 274.780439 355.368 
L 274.780439 7.2 
" style="fill:none;stroke:#b0b0b0;stroke-linecap:square;stroke-width:0.8;"/>
     </g>
     <g id="line2d_12">
      <g>
       <use style="stroke:#000000;stroke-width:0.8;" x="274.780439" xlink:href="#m3b068a802d" y="355.368"/>
      </g>
     </g>
     <g id="text_6">
      <!-- 12500 -->
      <g transform="translate(258.874189 369.966437)scale(0.1 -0.1)">
       <use xlink:href="#DejaVuSans-49"/>
       <use x="63.623047" xlink:href="#DejaVuSans-50"/>
       <use x="127.246094" xlink:href="#DejaVuSans-53"/>
       <use x="190.869141" xlink:href="#DejaVuSans-48"/>
       <use x="254.492188" xlink:href="#DejaVuSans-48"/>
      </g>
     </g>
    </g>
    <g id="xtick_7">
     <g id="line2d_13">
      <path clip-path="url(#pc7960d1f6a)" d="M 316.005203 355.368 
L 316.005203 7.2 
" style="fill:none;stroke:#b0b0b0;stroke-linecap:square;stroke-width:0.8;"/>
     </g>
     <g id="line2d_14">
      <g>
       <use style="stroke:#000000;stroke-width:0.8;" x="316.005203" xlink:href="#m3b068a802d" y="355.368"/>
      </g>
     </g>
     <g id="text_7">
      <!-- 15000 -->
      <g transform="translate(300.098953 369.966437)scale(0.1 -0.1)">
       <use xlink:href="#DejaVuSans-49"/>
       <use x="63.623047" xlink:href="#DejaVuSans-53"/>
       <use x="127.246094" xlink:href="#DejaVuSans-48"/>
       <use x="190.869141" xlink:href="#DejaVuSans-48"/>
       <use x="254.492188" xlink:href="#DejaVuSans-48"/>
      </g>
     </g>
    </g>
    <g id="xtick_8">
     <g id="line2d_15">
      <path clip-path="url(#pc7960d1f6a)" d="M 357.229968 355.368 
L 357.229968 7.2 
" style="fill:none;stroke:#b0b0b0;stroke-linecap:square;stroke-width:0.8;"/>
     </g>
     <g id="line2d_16">
      <g>
       <use style="stroke:#000000;stroke-width:0.8;" x="357.229968" xlink:href="#m3b068a802d" y="355.368"/>
      </g>
     </g>
     <g id="text_8">
      <!-- 17500 -->
      <g transform="translate(341.323718 369.966437)scale(0.1 -0.1)">
       <use xlink:href="#DejaVuSans-49"/>
       <use x="63.623047" xlink:href="#DejaVuSans-55"/>
       <use x="127.246094" xlink:href="#DejaVuSans-53"/>
       <use x="190.869141" xlink:href="#DejaVuSans-48"/>
       <use x="254.492188" xlink:href="#DejaVuSans-48"/>
      </g>
     </g>
    </g>
    <g id="xtick_9">
     <g id="line2d_17">
      <path clip-path="url(#pc7960d1f6a)" d="M 398.454733 355.368 
L 398.454733 7.2 
" style="fill:none;stroke:#b0b0b0;stroke-linecap:square;stroke-width:0.8;"/>
     </g>
     <g id="line2d_18">
      <g>
       <use style="stroke:#000000;stroke-width:0.8;" x="398.454733" xlink:href="#m3b068a802d" y="355.368"/>
      </g>
     </g>
     <g id="text_9">
      <!-- 20000 -->
      <g transform="translate(382.548483 369.966437)scale(0.1 -0.1)">
       <use xlink:href="#DejaVuSans-50"/>
       <use x="63.623047" xlink:href="#DejaVuSans-48"/>
       <use x="127.246094" xlink:href="#DejaVuSans-48"/>
       <use x="190.869141" xlink:href="#DejaVuSans-48"/>
       <use x="254.492188" xlink:href="#DejaVuSans-48"/>
      </g>
     </g>
    </g>
    <g id="text_10">
     <!-- t [s] -->
     <g transform="translate(223.55792 383.644562)scale(0.1 -0.1)">
      <defs>
       <path d="M 18.3125 70.21875 
L 18.3125 54.6875 
L 36.8125 54.6875 
L 36.8125 47.703125 
L 18.3125 47.703125 
L 18.3125 18.015625 
Q 18.3125 11.328125 20.140625 9.421875 
Q 21.96875 7.515625 27.59375 7.515625 
L 36.8125 7.515625 
L 36.8125 0 
L 27.59375 0 
Q 17.1875 0 13.234375 3.875 
Q 9.28125 7.765625 9.28125 18.015625 
L 9.28125 47.703125 
L 2.6875 47.703125 
L 2.6875 54.6875 
L 9.28125 54.6875 
L 9.28125 70.21875 
z
" id="DejaVuSans-116"/>
       <path id="DejaVuSans-32"/>
       <path d="M 8.59375 75.984375 
L 29.296875 75.984375 
L 29.296875 69 
L 17.578125 69 
L 17.578125 -6.203125 
L 29.296875 -6.203125 
L 29.296875 -13.1875 
L 8.59375 -13.1875 
z
" id="DejaVuSans-91"/>
       <path d="M 44.28125 53.078125 
L 44.28125 44.578125 
Q 40.484375 46.53125 36.375 47.5 
Q 32.28125 48.484375 27.875 48.484375 
Q 21.1875 48.484375 17.84375 46.4375 
Q 14.5 44.390625 14.5 40.28125 
Q 14.5 37.15625 16.890625 35.375 
Q 19.28125 33.59375 26.515625 31.984375 
L 29.59375 31.296875 
Q 39.15625 29.25 43.1875 25.515625 
Q 47.21875 21.78125 47.21875 15.09375 
Q 47.21875 7.46875 41.1875 3.015625 
Q 35.15625 -1.421875 24.609375 -1.421875 
Q 20.21875 -1.421875 15.453125 -0.5625 
Q 10.6875 0.296875 5.421875 2 
L 5.421875 11.28125 
Q 10.40625 8.6875 15.234375 7.390625 
Q 20.0625 6.109375 24.8125 6.109375 
Q 31.15625 6.109375 34.5625 8.28125 
Q 37.984375 10.453125 37.984375 14.40625 
Q 37.984375 18.0625 35.515625 20.015625 
Q 33.0625 21.96875 24.703125 23.78125 
L 21.578125 24.515625 
Q 13.234375 26.265625 9.515625 29.90625 
Q 5.8125 33.546875 5.8125 39.890625 
Q 5.8125 47.609375 11.28125 51.796875 
Q 16.75 56 26.8125 56 
Q 31.78125 56 36.171875 55.265625 
Q 40.578125 54.546875 44.28125 53.078125 
z
" id="DejaVuSans-115"/>
       <path d="M 30.421875 75.984375 
L 30.421875 -13.1875 
L 9.71875 -13.1875 
L 9.71875 -6.203125 
L 21.390625 -6.203125 
L 21.390625 69 
L 9.71875 69 
L 9.71875 75.984375 
z
" id="DejaVuSans-93"/>
      </defs>
      <use xlink:href="#DejaVuSans-116"/>
      <use x="39.208984" xlink:href="#DejaVuSans-32"/>
      <use x="70.996094" xlink:href="#DejaVuSans-91"/>
      <use x="110.009766" xlink:href="#DejaVuSans-115"/>
      <use x="162.109375" xlink:href="#DejaVuSans-93"/>
     </g>
    </g>
   </g>
   <g id="matplotlib.axis_2">
    <g id="ytick_1">
     <g id="line2d_19">
      <path clip-path="url(#pc7960d1f6a)" d="M 52.160938 315.408161 
L 415.065839 315.408161 
" style="fill:none;stroke:#b0b0b0;stroke-linecap:square;stroke-width:0.8;"/>
     </g>
     <g id="line2d_20">
      <defs>
       <path d="M 0 0 
L -3.5 0 
" id="ma332e5ddc0" style="stroke:#000000;stroke-width:0.8;"/>
      </defs>
      <g>
       <use style="stroke:#000000;stroke-width:0.8;" x="52.160938" xlink:href="#ma332e5ddc0" y="315.408161"/>
      </g>
     </g>
     <g id="text_11">
      <!-- −0.2 -->
      <g transform="translate(20.878125 319.20738)scale(0.1 -0.1)">
       <defs>
        <path d="M 10.59375 35.5 
L 73.1875 35.5 
L 73.1875 27.203125 
L 10.59375 27.203125 
z
" id="DejaVuSans-8722"/>
        <path d="M 10.6875 12.40625 
L 21 12.40625 
L 21 0 
L 10.6875 0 
z
" id="DejaVuSans-46"/>
       </defs>
       <use xlink:href="#DejaVuSans-8722"/>
       <use x="83.789062" xlink:href="#DejaVuSans-48"/>
       <use x="147.412109" xlink:href="#DejaVuSans-46"/>
       <use x="179.199219" xlink:href="#DejaVuSans-50"/>
      </g>
     </g>
    </g>
    <g id="ytick_2">
     <g id="line2d_21">
      <path clip-path="url(#pc7960d1f6a)" d="M 52.160938 248.957628 
L 415.065839 248.957628 
" style="fill:none;stroke:#b0b0b0;stroke-linecap:square;stroke-width:0.8;"/>
     </g>
     <g id="line2d_22">
      <g>
       <use style="stroke:#000000;stroke-width:0.8;" x="52.160938" xlink:href="#ma332e5ddc0" y="248.957628"/>
      </g>
     </g>
     <g id="text_12">
      <!-- −0.1 -->
      <g transform="translate(20.878125 252.756847)scale(0.1 -0.1)">
       <use xlink:href="#DejaVuSans-8722"/>
       <use x="83.789062" xlink:href="#DejaVuSans-48"/>
       <use x="147.412109" xlink:href="#DejaVuSans-46"/>
       <use x="179.199219" xlink:href="#DejaVuSans-49"/>
      </g>
     </g>
    </g>
    <g id="ytick_3">
     <g id="line2d_23">
      <path clip-path="url(#pc7960d1f6a)" d="M 52.160938 182.507096 
L 415.065839 182.507096 
" style="fill:none;stroke:#b0b0b0;stroke-linecap:square;stroke-width:0.8;"/>
     </g>
     <g id="line2d_24">
      <g>
       <use style="stroke:#000000;stroke-width:0.8;" x="52.160938" xlink:href="#ma332e5ddc0" y="182.507096"/>
      </g>
     </g>
     <g id="text_13">
      <!-- 0.0 -->
      <g transform="translate(29.257812 186.306314)scale(0.1 -0.1)">
       <use xlink:href="#DejaVuSans-48"/>
       <use x="63.623047" xlink:href="#DejaVuSans-46"/>
       <use x="95.410156" xlink:href="#DejaVuSans-48"/>
      </g>
     </g>
    </g>
    <g id="ytick_4">
     <g id="line2d_25">
      <path clip-path="url(#pc7960d1f6a)" d="M 52.160938 116.056563 
L 415.065839 116.056563 
" style="fill:none;stroke:#b0b0b0;stroke-linecap:square;stroke-width:0.8;"/>
     </g>
     <g id="line2d_26">
      <g>
       <use style="stroke:#000000;stroke-width:0.8;" x="52.160938" xlink:href="#ma332e5ddc0" y="116.056563"/>
      </g>
     </g>
     <g id="text_14">
      <!-- 0.1 -->
      <g transform="translate(29.257812 119.855782)scale(0.1 -0.1)">
       <use xlink:href="#DejaVuSans-48"/>
       <use x="63.623047" xlink:href="#DejaVuSans-46"/>
       <use x="95.410156" xlink:href="#DejaVuSans-49"/>
      </g>
     </g>
    </g>
    <g id="ytick_5">
     <g id="line2d_27">
      <path clip-path="url(#pc7960d1f6a)" d="M 52.160938 49.60603 
L 415.065839 49.60603 
" style="fill:none;stroke:#b0b0b0;stroke-linecap:square;stroke-width:0.8;"/>
     </g>
     <g id="line2d_28">
      <g>
       <use style="stroke:#000000;stroke-width:0.8;" x="52.160938" xlink:href="#ma332e5ddc0" y="49.60603"/>
      </g>
     </g>
     <g id="text_15">
      <!-- 0.2 -->
      <g transform="translate(29.257812 53.405249)scale(0.1 -0.1)">
       <use xlink:href="#DejaVuSans-48"/>
       <use x="63.623047" xlink:href="#DejaVuSans-46"/>
       <use x="95.410156" xlink:href="#DejaVuSans-50"/>
      </g>
     </g>
    </g>
    <g id="text_16">
     <!-- [V] -->
     <g transform="translate(14.798438 188.605875)rotate(-90)scale(0.1 -0.1)">
      <defs>
       <path d="M 28.609375 0 
L 0.78125 72.90625 
L 11.078125 72.90625 
L 34.1875 11.53125 
L 57.328125 72.90625 
L 67.578125 72.90625 
L 39.796875 0 
z
" id="DejaVuSans-86"/>
      </defs>
      <use xlink:href="#DejaVuSans-91"/>
      <use x="39.013672" xlink:href="#DejaVuSans-86"/>
      <use x="107.421875" xlink:href="#DejaVuSans-93"/>
     </g>
    </g>
   </g>
   <g id="line2d_29">
    <path clip-path="url(#pc7960d1f6a)" d="M 68.656615 102.766456 
L 68.805024 102.652223 
L 76.621239 79.258204 
L 80.760206 67.582877 
L 84.173616 58.599162 
L 87.158289 51.350332 
L 89.846144 45.388364 
L 92.30314 40.463077 
L 94.578747 36.387256 
L 96.689455 33.052025 
L 98.651754 30.355154 
L 100.498623 28.18631 
L 102.230063 26.488132 
L 103.862564 25.190858 
L 105.412615 24.236754 
L 106.896707 23.579839 
L 108.331328 23.18544 
L 109.73297 23.029707 
L 111.118123 23.099189 
L 112.503275 23.390541 
L 113.921407 23.917834 
L 115.389008 24.705849 
L 116.90608 25.776906 
L 118.5056 27.18462 
L 120.187571 28.967523 
L 121.968481 31.1854 
L 123.86482 33.908971 
L 125.893078 37.219322 
L 128.069746 41.206602 
L 130.427802 46.002805 
L 132.983738 51.71737 
L 135.803512 58.580809 
L 138.969574 66.890333 
L 142.663313 77.234954 
L 147.379426 91.148103 
L 161.346376 132.784975 
L 165.040115 142.851219 
L 168.206177 150.855635 
L 171.025951 157.399412 
L 173.598376 162.821377 
L 175.956433 167.286234 
L 178.1331 170.946396 
L 180.161359 173.935594 
L 182.057698 176.346379 
L 183.838608 178.260979 
L 185.520578 179.750263 
L 187.103609 180.863289 
L 188.62068 181.663432 
L 190.071792 182.182196 
L 191.489924 182.454661 
L 192.875076 182.496225 
L 194.260228 182.315745 
L 195.66187 181.907608 
L 197.096492 181.256172 
L 198.580583 180.335556 
L 200.130635 179.109322 
L 201.763135 177.53011 
L 203.494575 175.539333 
L 205.341445 173.06708 
L 207.303744 170.05932 
L 209.414452 166.404838 
L 211.673569 162.038261 
L 214.130565 156.792099 
L 216.818419 150.51283 
L 219.803092 142.956853 
L 223.200013 133.731232 
L 227.305999 121.903372 
L 233.341305 103.754453 
L 241.536788 79.210333 
L 245.675755 67.537922 
L 249.089165 58.557456 
L 252.073838 51.312046 
L 254.761693 45.353583 
L 257.218689 40.431819 
L 259.494296 36.359507 
L 261.605004 33.027716 
L 263.567303 30.334186 
L 265.397682 28.18631 
L 267.129122 26.488132 
L 268.761623 25.190858 
L 270.311674 24.236754 
L 271.795766 23.579839 
L 273.230387 23.18544 
L 274.632029 23.029707 
L 276.017181 23.099189 
L 277.402334 23.390541 
L 278.820465 23.917834 
L 280.288067 24.705849 
L 281.805138 25.776906 
L 283.404659 27.18462 
L 285.08663 28.967523 
L 286.86754 31.1854 
L 288.763879 33.908971 
L 290.792137 37.219322 
L 292.968805 41.206602 
L 295.326861 46.002805 
L 297.882797 51.71737 
L 300.702571 58.580809 
L 303.868633 66.890333 
L 307.562371 77.234954 
L 312.278485 91.148103 
L 326.245435 132.784975 
L 329.939174 142.851219 
L 333.105236 150.855635 
L 335.92501 157.399412 
L 338.497435 162.821377 
L 340.855491 167.286234 
L 343.032159 170.946396 
L 345.060417 173.935594 
L 346.956757 176.346379 
L 348.737666 178.260979 
L 350.419637 179.750263 
L 352.002668 180.863289 
L 353.519739 181.663432 
L 354.970851 182.182196 
L 356.388983 182.454661 
L 357.774135 182.496225 
L 359.159287 182.315745 
L 360.560929 181.907608 
L 361.995551 181.256172 
L 363.479642 180.335556 
L 365.029694 179.109322 
L 366.662194 177.53011 
L 368.393634 175.539333 
L 370.240504 173.06708 
L 372.202803 170.05932 
L 374.313511 166.404838 
L 376.572628 162.038261 
L 379.029624 156.792099 
L 381.717478 150.51283 
L 384.702151 142.956853 
L 388.099072 133.731232 
L 392.205058 121.903372 
L 398.240364 103.754453 
L 398.570162 102.766456 
L 398.570162 102.766456 
" style="fill:none;stroke:#1f77b4;stroke-linecap:square;stroke-width:1.5;"/>
   </g>
   <g id="line2d_30">
    <path clip-path="url(#pc7960d1f6a)" d="M 68.656615 182.507096 
L 68.755554 182.613981 
L 68.821514 183.602593 
L 70.437525 214.098884 
L 71.26202 225.764693 
L 71.888636 231.845373 
L 72.366844 234.615205 
L 72.713132 235.546978 
L 72.9275 235.662067 
L 73.108889 235.482568 
L 73.356238 234.830505 
L 73.686036 233.240243 
L 74.114774 229.982078 
L 74.675431 223.831715 
L 75.400986 213.134711 
L 76.423361 194.338264 
L 78.913336 147.281376 
L 79.688362 137.218819 
L 80.281999 132.129008 
L 80.727226 129.986613 
L 81.040534 129.380999 
L 81.221923 129.375921 
L 81.403312 129.624544 
L 81.667151 130.436342 
L 82.029929 132.408521 
L 82.491646 136.29391 
L 83.085283 143.363805 
L 83.860308 155.526779 
L 85.031091 177.930059 
L 86.96041 214.633651 
L 87.784906 226.149568 
L 88.411522 232.090198 
L 88.889729 234.743349 
L 89.219528 235.568412 
L 89.433896 235.656233 
L 89.615285 235.453685 
L 89.862634 234.770434 
L 90.208922 233.036686 
L 90.654149 229.522794 
L 91.231296 222.978286 
L 91.973342 211.754773 
L 93.045186 191.719301 
L 95.304303 148.807013 
L 96.095818 138.115607 
L 96.705945 132.571448 
L 97.167662 130.150948 
L 97.49746 129.409196 
L 97.695339 129.365891 
L 97.876728 129.591481 
L 98.124077 130.305892 
L 98.470365 132.082277 
L 98.915592 135.648213 
L 99.492739 142.253278 
L 100.234785 153.538914 
L 101.323118 173.953527 
L 103.532766 215.94819 
L 104.340771 226.898585 
L 104.950898 232.442743 
L 105.412615 234.863243 
L 105.742413 235.604995 
L 105.940292 235.648301 
L 106.121681 235.422711 
L 106.36903 234.708299 
L 106.715318 232.931914 
L 107.160545 229.365978 
L 107.737692 222.760913 
L 108.479738 211.475278 
L 109.568071 191.060664 
L 111.777719 149.066002 
L 112.585724 138.115607 
L 113.195851 132.571448 
L 113.657568 130.150948 
L 113.987366 129.409196 
L 114.185245 129.365891 
L 114.366634 129.591481 
L 114.613983 130.305892 
L 114.960271 132.082277 
L 115.405498 135.648213 
L 115.982645 142.253278 
L 116.724691 153.538914 
L 117.813024 173.953527 
L 120.022672 215.94819 
L 120.830677 226.898585 
L 121.440804 232.442743 
L 121.902521 234.863243 
L 122.232319 235.604995 
L 122.430198 235.648301 
L 122.611587 235.422711 
L 122.858936 234.708299 
L 123.205224 232.931914 
L 123.650451 229.365978 
L 124.227598 222.760913 
L 124.969643 211.475278 
L 126.057977 191.060664 
L 128.267625 149.066002 
L 129.07563 138.115607 
L 129.685757 132.571448 
L 130.147474 130.150948 
L 130.477272 129.409196 
L 130.675151 129.365891 
L 130.85654 129.591481 
L 131.103888 130.305892 
L 131.450177 132.082277 
L 131.895404 135.648213 
L 132.472551 142.253278 
L 133.214596 153.538914 
L 134.30293 173.953527 
L 136.512578 215.94819 
L 137.320583 226.898585 
L 137.93071 232.442743 
L 138.392427 234.863243 
L 138.722225 235.604995 
L 138.920104 235.648301 
L 139.101493 235.422711 
L 139.348841 234.708299 
L 139.695129 232.931914 
L 140.140357 229.365978 
L 140.717504 222.760913 
L 141.459549 211.475278 
L 142.547883 191.060664 
L 144.757531 149.066002 
L 145.565536 138.115607 
L 146.175662 132.571448 
L 146.63738 130.150948 
L 146.967178 129.409196 
L 147.165057 129.365891 
L 147.346446 129.591481 
L 147.593794 130.305892 
L 147.940082 132.082277 
L 148.38531 135.648213 
L 148.962457 142.253278 
L 149.704502 153.538914 
L 150.792836 173.953527 
L 153.002484 215.94819 
L 153.810489 226.898585 
L 154.420615 232.442743 
L 154.882333 234.863243 
L 155.212131 235.604995 
L 155.41001 235.648301 
L 155.591399 235.422711 
L 155.838747 234.708299 
L 156.185035 232.931914 
L 156.630263 229.365978 
L 157.20741 222.760913 
L 157.949455 211.475278 
L 159.037789 191.060664 
L 161.247436 149.066002 
L 162.055442 138.115607 
L 162.665568 132.571448 
L 163.127286 130.150948 
L 163.457084 129.409196 
L 163.654963 129.365891 
L 163.836352 129.591481 
L 164.0837 130.305892 
L 164.429988 132.082277 
L 164.875216 135.648213 
L 165.452362 142.253278 
L 166.194408 153.538914 
L 167.282742 173.953527 
L 169.492389 215.94819 
L 170.300395 226.898585 
L 170.910521 232.442743 
L 171.372239 234.863243 
L 171.702037 235.604995 
L 171.899916 235.648301 
L 172.081305 235.422711 
L 172.328653 234.708299 
L 172.674941 232.931914 
L 173.120169 229.365978 
L 173.697315 222.760913 
L 174.439361 211.475278 
L 175.527695 191.060664 
L 177.737342 149.066002 
L 178.545348 138.115607 
L 179.155474 132.571448 
L 179.617192 130.150948 
L 179.94699 129.409196 
L 180.144869 129.365891 
L 180.326258 129.591481 
L 180.573606 130.305892 
L 180.919894 132.082277 
L 181.365122 135.648213 
L 181.942268 142.253278 
L 182.684314 153.538914 
L 183.772648 173.953527 
L 185.982295 215.94819 
L 186.790301 226.898585 
L 187.400427 232.442743 
L 187.862145 234.863243 
L 188.191943 235.604995 
L 188.389822 235.648301 
L 188.571211 235.422711 
L 188.818559 234.708299 
L 189.164847 232.931914 
L 189.610075 229.365978 
L 190.187221 222.760913 
L 190.929267 211.475278 
L 192.017601 191.060664 
L 194.227248 149.066002 
L 195.035254 138.115607 
L 195.64538 132.571448 
L 196.107098 130.150948 
L 196.436896 129.409196 
L 196.634775 129.365891 
L 196.816163 129.591481 
L 197.063512 130.305892 
L 197.4098 132.082277 
L 197.855028 135.648213 
L 198.432174 142.253278 
L 199.17422 153.538914 
L 200.262554 173.953527 
L 202.472201 215.94819 
L 203.280207 226.898585 
L 203.890333 232.442743 
L 204.35205 234.863243 
L 204.681849 235.604995 
L 204.879727 235.648301 
L 205.061116 235.422711 
L 205.308465 234.708299 
L 205.654753 232.931914 
L 206.09998 229.365978 
L 206.677127 222.760913 
L 207.419173 211.475278 
L 208.507507 191.060664 
L 210.717154 149.066002 
L 211.52516 138.115607 
L 212.135286 132.571448 
L 212.597003 130.150948 
L 212.926802 129.409196 
L 213.12468 129.365891 
L 213.306069 129.591481 
L 213.553418 130.305892 
L 213.899706 132.082277 
L 214.344933 135.648213 
L 214.92208 142.253278 
L 215.664126 153.538914 
L 216.75246 173.953527 
L 218.962107 215.94819 
L 219.770112 226.898585 
L 220.380239 232.442743 
L 220.841956 234.863243 
L 221.171754 235.604995 
L 221.369633 235.648301 
L 221.551022 235.422711 
L 221.798371 234.708299 
L 222.144659 232.931914 
L 222.589886 229.365978 
L 223.167033 222.760913 
L 223.909079 211.475278 
L 224.997413 191.060664 
L 227.20706 149.066002 
L 228.015065 138.115607 
L 228.625192 132.571448 
L 229.086909 130.150948 
L 229.416707 129.409196 
L 229.614586 129.365891 
L 229.795975 129.591481 
L 230.043324 130.305892 
L 230.389612 132.082277 
L 230.834839 135.648213 
L 231.411986 142.253278 
L 232.154032 153.538914 
L 233.242366 173.953527 
L 235.452013 215.94819 
L 236.260018 226.898585 
L 236.870145 232.442743 
L 237.331862 234.863243 
L 237.66166 235.604995 
L 237.859539 235.648301 
L 238.040928 235.422711 
L 238.288277 234.708299 
L 238.634565 232.931914 
L 239.079792 229.365978 
L 239.656939 222.760913 
L 240.398985 211.475278 
L 241.487319 191.060664 
L 243.696966 149.066002 
L 244.504971 138.115607 
L 245.115098 132.571448 
L 245.576815 130.150948 
L 245.906613 129.409196 
L 246.104492 129.365891 
L 246.285881 129.591481 
L 246.53323 130.305892 
L 246.879518 132.082277 
L 247.324745 135.648213 
L 247.901892 142.253278 
L 248.643938 153.538914 
L 249.732271 173.953527 
L 251.941919 215.94819 
L 252.749924 226.898585 
L 253.360051 232.442743 
L 253.821768 234.863243 
L 254.151566 235.604995 
L 254.349445 235.648301 
L 254.530834 235.422711 
L 254.778183 234.708299 
L 255.124471 232.931914 
L 255.569698 229.365978 
L 256.146845 222.760913 
L 256.888891 211.475278 
L 257.977224 191.060664 
L 260.186872 149.066002 
L 260.994877 138.115607 
L 261.605004 132.571448 
L 262.066721 130.150948 
L 262.396519 129.409196 
L 262.594398 129.365891 
L 262.775787 129.591481 
L 263.023136 130.305892 
L 263.369424 132.082277 
L 263.814651 135.648213 
L 264.391798 142.253278 
L 265.133844 153.538914 
L 266.222177 173.953527 
L 268.431825 215.94819 
L 269.23983 226.898585 
L 269.849957 232.442743 
L 270.311674 234.863243 
L 270.641472 235.604995 
L 270.839351 235.648301 
L 271.02074 235.422711 
L 271.268089 234.708299 
L 271.614377 232.931914 
L 272.059604 229.365978 
L 272.636751 222.760913 
L 273.378797 211.475278 
L 274.46713 191.060664 
L 276.676778 149.066002 
L 277.484783 138.115607 
L 278.09491 132.571448 
L 278.556627 130.150948 
L 278.886425 129.409196 
L 279.084304 129.365891 
L 279.265693 129.591481 
L 279.513042 130.305892 
L 279.85933 132.082277 
L 280.304557 135.648213 
L 280.881704 142.253278 
L 281.623749 153.538914 
L 282.712083 173.953527 
L 284.921731 215.94819 
L 285.729736 226.898585 
L 286.339863 232.442743 
L 286.80158 234.863243 
L 287.131378 235.604995 
L 287.329257 235.648301 
L 287.510646 235.422711 
L 287.757994 234.708299 
L 288.104283 232.931914 
L 288.54951 229.365978 
L 289.126657 222.760913 
L 289.868702 211.475278 
L 290.957036 191.060664 
L 293.166684 149.066002 
L 293.974689 138.115607 
L 294.584816 132.571448 
L 295.046533 130.150948 
L 295.376331 129.409196 
L 295.57421 129.365891 
L 295.755599 129.591481 
L 296.002947 130.305892 
L 296.349235 132.082277 
L 296.794463 135.648213 
L 297.37161 142.253278 
L 298.113655 153.538914 
L 299.201989 173.953527 
L 301.411637 215.94819 
L 302.219642 226.898585 
L 302.829768 232.442743 
L 303.291486 234.863243 
L 303.621284 235.604995 
L 303.819163 235.648301 
L 304.000552 235.422711 
L 304.2479 234.708299 
L 304.594188 232.931914 
L 305.039416 229.365978 
L 305.616563 222.760913 
L 306.358608 211.475278 
L 307.446942 191.060664 
L 309.65659 149.066002 
L 310.464595 138.115607 
L 311.074721 132.571448 
L 311.536439 130.150948 
L 311.866237 129.409196 
L 312.064116 129.365891 
L 312.245505 129.591481 
L 312.492853 130.305892 
L 312.839141 132.082277 
L 313.284369 135.648213 
L 313.861516 142.253278 
L 314.603561 153.538914 
L 315.691895 173.953527 
L 317.901542 215.94819 
L 318.709548 226.898585 
L 319.319674 232.442743 
L 319.781392 234.863243 
L 320.11119 235.604995 
L 320.309069 235.648301 
L 320.490458 235.422711 
L 320.737806 234.708299 
L 321.084094 232.931914 
L 321.529322 229.365978 
L 322.106468 222.760913 
L 322.848514 211.475278 
L 323.936848 191.060664 
L 326.146495 149.066002 
L 326.954501 138.115607 
L 327.564627 132.571448 
L 328.026345 130.150948 
L 328.356143 129.409196 
L 328.554022 129.365891 
L 328.735411 129.591481 
L 328.982759 130.305892 
L 329.329047 132.082277 
L 329.774275 135.648213 
L 330.351421 142.253278 
L 331.093467 153.538914 
L 332.181801 173.953527 
L 334.391448 215.94819 
L 335.199454 226.898585 
L 335.80958 232.442743 
L 336.271298 234.863243 
L 336.601096 235.604995 
L 336.798975 235.648301 
L 336.980364 235.422711 
L 337.227712 234.708299 
L 337.574 232.931914 
L 338.019228 229.365978 
L 338.596374 222.760913 
L 339.33842 211.475278 
L 340.426754 191.060664 
L 342.636401 149.066002 
L 343.444407 138.115607 
L 344.054533 132.571448 
L 344.516251 130.150948 
L 344.846049 129.409196 
L 345.043928 129.365891 
L 345.225317 129.591481 
L 345.472665 130.305892 
L 345.818953 132.082277 
L 346.264181 135.648213 
L 346.841327 142.253278 
L 347.583373 153.538914 
L 348.671707 173.953527 
L 350.881354 215.94819 
L 351.68936 226.898585 
L 352.299486 232.442743 
L 352.761204 234.863243 
L 353.091002 235.604995 
L 353.288881 235.648301 
L 353.470269 235.422711 
L 353.717618 234.708299 
L 354.063906 232.931914 
L 354.509134 229.365978 
L 355.08628 222.760913 
L 355.828326 211.475278 
L 356.91666 191.060664 
L 359.126307 149.066002 
L 359.934313 138.115607 
L 360.544439 132.571448 
L 361.006156 130.150948 
L 361.335955 129.409196 
L 361.533833 129.365891 
L 361.715222 129.591481 
L 361.962571 130.305892 
L 362.308859 132.082277 
L 362.754086 135.648213 
L 363.331233 142.253278 
L 364.073279 153.538914 
L 365.161613 173.953527 
L 367.37126 215.94819 
L 368.179266 226.898585 
L 368.789392 232.442743 
L 369.251109 234.863243 
L 369.580908 235.604995 
L 369.778786 235.648301 
L 369.960175 235.422711 
L 370.207524 234.708299 
L 370.553812 232.931914 
L 370.999039 229.365978 
L 371.576186 222.760913 
L 372.318232 211.475278 
L 373.406566 191.060664 
L 375.616213 149.066002 
L 376.424218 138.115607 
L 377.034345 132.571448 
L 377.496062 130.150948 
L 377.82586 129.409196 
L 378.023739 129.365891 
L 378.205128 129.591481 
L 378.452477 130.305892 
L 378.798765 132.082277 
L 379.243992 135.648213 
L 379.821139 142.253278 
L 380.563185 153.538914 
L 381.651519 173.953527 
L 383.861166 215.94819 
L 384.669171 226.898585 
L 385.279298 232.442743 
L 385.741015 234.863243 
L 386.070813 235.604995 
L 386.268692 235.648301 
L 386.450081 235.422711 
L 386.69743 234.708299 
L 387.043718 232.931914 
L 387.488945 229.365978 
L 388.066092 222.760913 
L 388.808138 211.475278 
L 389.896472 191.060664 
L 392.106119 149.066002 
L 392.914124 138.115607 
L 393.524251 132.571448 
L 393.985968 130.150948 
L 394.315766 129.409196 
L 394.513645 129.365891 
L 394.695034 129.591481 
L 394.942383 130.305892 
L 395.288671 132.082277 
L 395.733898 135.648213 
L 396.311045 142.253278 
L 397.053091 153.538914 
L 398.141425 173.953527 
L 398.570162 182.507096 
L 398.570162 182.507096 
" style="fill:none;stroke:#ff7f0e;stroke-linecap:square;stroke-width:1.5;"/>
   </g>
   <g id="line2d_31">
    <path clip-path="url(#pc7960d1f6a)" d="M 68.656615 182.507096 
L 68.739064 182.554011 
L 68.788534 183.127731 
L 70.998181 248.858377 
L 71.756717 264.623087 
L 72.333864 272.49481 
L 72.762601 275.693086 
L 73.04293 276.480628 
L 73.191339 276.467814 
L 73.356238 276.099823 
L 73.603587 274.844143 
L 73.933385 271.852283 
L 74.362122 265.732617 
L 74.906289 254.468898 
L 75.598865 235.007391 
L 76.5223 202.077791 
L 79.473993 91.568094 
L 80.150079 76.062382 
L 80.661266 68.712278 
L 81.040534 65.933772 
L 81.271393 65.406714 
L 81.386822 65.479452 
L 81.551721 65.975202 
L 81.79907 67.586239 
L 82.145358 71.586669 
L 82.590585 79.67038 
L 83.151242 94.326052 
L 83.860308 119.209223 
L 84.833213 161.973706 
L 87.438618 280.442208 
L 88.164174 302.274172 
L 88.72483 313.234111 
L 89.137078 317.633403 
L 89.417406 318.767582 
L 89.532836 318.789574 
L 89.549326 318.771404 
L 89.697735 318.367602 
L 89.928593 316.879018 
L 90.241902 313.189436 
L 90.654149 305.454962 
L 91.181826 290.989135 
L 91.857912 265.699556 
L 92.764857 222.43439 
L 95.86496 66.573421 
L 96.541046 46.340899 
L 97.052233 36.822133 
L 97.431501 33.236322 
L 97.662359 32.549976 
L 97.761299 32.606121 
L 97.909708 33.085503 
L 98.140567 34.772989 
L 98.470365 39.158008 
L 98.899102 48.252661 
L 99.443269 65.026722 
L 100.135845 93.880815 
L 101.09226 144.142714 
L 103.829584 294.077174 
L 104.55514 319.909227 
L 105.115797 332.844844 
L 105.528044 338.068594 
L 105.808373 339.466671 
L 105.923802 339.529557 
L 105.940292 339.514064 
L 106.072211 339.169834 
L 106.28658 337.776706 
L 106.583398 334.156696 
L 106.979156 326.339427 
L 107.490343 311.42396 
L 108.149939 284.95161 
L 109.023904 239.954667 
L 112.321886 59.851779 
L 112.981482 39.309373 
L 113.492669 29.563581 
L 113.855447 26.125139 
L 114.086306 25.472407 
L 114.185245 25.559772 
L 114.333654 26.103273 
L 114.564513 27.927717 
L 114.894311 32.574086 
L 115.323049 42.091866 
L 115.883705 60.083356 
L 116.592771 90.6607 
L 117.598656 144.813395 
L 120.022672 278.986769 
L 120.797697 308.519316 
L 121.391334 323.592228 
L 121.836561 330.144872 
L 122.14987 332.222586 
L 122.314769 332.467674 
L 122.331259 332.460001 
L 122.446688 332.242759 
L 122.628077 331.325261 
L 122.908405 328.5364 
L 123.287673 322.175644 
L 123.78237 309.628094 
L 124.408987 287.500626 
L 125.249972 249.01025 
L 126.783533 166.005008 
L 128.069746 101.848894 
L 128.877751 71.739637 
L 129.487878 56.268623 
L 129.966085 49.020572 
L 130.312373 46.553634 
L 130.510252 46.201727 
L 130.625681 46.350724 
L 130.80707 47.10887 
L 131.070909 49.341426 
L 131.433687 54.542969 
L 131.911894 64.982497 
L 132.52202 83.648411 
L 133.330026 115.851275 
L 134.698688 181.058668 
L 136.1498 246.718968 
L 136.974295 274.756231 
L 137.617401 289.766326 
L 138.112098 296.727304 
L 138.474876 299.200957 
L 138.689245 299.610874 
L 138.804675 299.509814 
L 138.969574 298.978057 
L 139.233412 297.19238 
L 139.59619 292.910489 
L 140.074397 284.210265 
L 140.684524 268.57808 
L 141.492529 241.587652 
L 142.894171 185.725398 
L 144.312303 132.441396 
L 145.136798 109.207186 
L 145.779905 96.778009 
L 146.274602 90.988484 
L 146.63738 88.890817 
L 146.868239 88.50153 
L 147.000158 88.605884 
L 147.181547 89.132386 
L 147.445385 90.674973 
L 147.808163 94.247202 
L 148.28637 101.360671 
L 148.912987 114.341352 
L 149.753972 136.841805 
L 153.134403 233.075251 
L 153.793999 243.72718 
L 154.321676 249.083887 
L 154.717434 251.197872 
L 154.981272 251.704921 
L 155.129681 251.677835 
L 155.31107 251.344827 
L 155.574909 250.285358 
L 155.937687 247.760648 
L 156.415894 242.678351 
L 157.04251 233.382336 
L 157.899986 216.974076 
L 161.099027 152.155095 
L 161.791603 143.827167 
L 162.33577 139.615842 
L 162.764508 137.783246 
L 163.061326 137.271998 
L 163.259205 137.266809 
L 163.457084 137.522655 
L 163.737412 138.316423 
L 164.11668 140.151436 
L 164.627867 143.880195 
L 165.303953 150.663633 
L 166.276858 162.957519 
L 168.618424 193.303486 
L 169.40994 200.480139 
L 170.036556 204.374823 
L 170.547743 206.316713 
L 170.943501 207.066877 
L 171.22383 207.215612 
L 171.471178 207.095537 
L 171.767996 206.657215 
L 172.163754 205.611326 
L 172.691431 203.496212 
L 173.400497 199.6276 
L 174.554791 191.878164 
L 176.220271 180.95053 
L 177.061256 176.853786 
L 177.737342 174.576104 
L 178.281509 173.435721 
L 178.726737 172.94751 
L 179.106005 172.825511 
L 179.468782 172.938928 
L 179.89752 173.328969 
L 180.441687 174.155579 
L 181.216712 175.790267 
L 184.168406 182.461035 
L 184.910451 183.414726 
L 185.553558 183.904933 
L 186.180174 184.108886 
L 186.83977 184.085757 
L 187.680756 183.815459 
L 190.797348 182.602295 
L 192.050581 182.508475 
L 194.276718 182.377629 
L 195.381542 182.043824 
L 198.547604 180.89119 
L 199.17422 181.034027 
L 199.767857 181.407885 
L 200.394473 182.086343 
L 201.103539 183.211437 
L 201.977504 185.051864 
L 204.863238 191.52469 
L 205.390915 192.058621 
L 205.803162 192.188151 
L 206.14945 192.072716 
L 206.528718 191.688661 
L 206.957456 190.908333 
L 207.468643 189.478301 
L 208.078769 187.062605 
L 208.837305 183.076213 
L 209.909149 176.095097 
L 211.904427 162.978439 
L 212.613493 159.775577 
L 213.12468 158.343988 
L 213.503948 157.849365 
L 213.767787 157.818842 
L 214.015135 158.037464 
L 214.328444 158.671702 
L 214.724201 160.061451 
L 215.202409 162.630719 
L 215.796045 167.148387 
L 216.538091 174.675831 
L 217.560465 187.598293 
L 219.869052 217.456317 
L 220.578118 223.62749 
L 221.105795 226.5331 
L 221.485063 227.589557 
L 221.732411 227.77671 
L 221.9138 227.65184 
L 222.144659 227.164108 
L 222.457967 225.901888 
L 222.870215 223.175373 
L 223.381402 218.126086 
L 224.008018 209.545403 
L 224.816024 195.139922 
L 226.069257 168.1609 
L 227.685267 134.3819 
L 228.476783 122.251329 
L 229.05393 116.394546 
L 229.482667 113.963405 
L 229.779485 113.317886 
L 229.944384 113.340458 
L 230.125773 113.686126 
L 230.389612 114.79667 
L 230.7359 117.356213 
L 231.181127 122.476354 
L 231.741784 131.751604 
L 232.45085 147.567651 
L 233.407265 174.462477 
L 236.144589 254.601014 
L 236.837165 267.514758 
L 237.364842 273.72944 
L 237.74411 276.033817 
L 237.991458 276.509698 
L 238.123378 276.424104 
L 238.304767 275.916387 
L 238.568605 274.366194 
L 238.931383 270.662151 
L 239.3931 263.352882 
L 239.970247 250.326576 
L 240.695803 228.529406 
L 241.718177 190.358353 
L 244.076234 100.197986 
L 244.834769 80.304646 
L 245.395426 70.642598 
L 245.824164 66.530244 
L 246.104492 65.466108 
L 246.236411 65.420689 
L 246.252901 65.435673 
L 246.401311 65.777963 
L 246.632169 67.054791 
L 246.945477 70.236998 
L 247.357725 76.936608 
L 247.885402 89.52085 
L 248.544998 111.014307 
L 249.418963 147.390052 
L 252.716944 292.850533 
L 253.360051 308.767338 
L 253.838258 315.921943 
L 254.184546 318.423798 
L 254.398915 318.809917 
L 254.514344 318.645356 
L 254.695733 317.857889 
L 254.959572 315.558884 
L 255.32235 310.184235 
L 255.784067 299.73728 
L 256.377704 280.755372 
L 257.136239 248.692363 
L 258.257553 190.509315 
L 260.236342 87.625134 
L 261.044347 57.191857 
L 261.654473 41.711128 
L 262.116191 34.891 
L 262.445989 32.750406 
L 262.594398 32.545289 
L 262.627378 32.564 
L 262.759297 32.873007 
L 262.957176 34.03893 
L 263.253994 37.361017 
L 263.649752 44.679024 
L 264.160939 58.814568 
L 264.804045 83.419617 
L 265.645031 124.876106 
L 267.228062 216.763748 
L 268.481294 283.217813 
L 269.27281 314.361863 
L 269.866447 330.060283 
L 270.328164 337.156242 
L 270.641472 339.296208 
L 270.806371 339.538929 
L 270.822861 339.529557 
L 270.93829 339.292596 
L 271.136169 338.189593 
L 271.416498 335.12948 
L 271.795766 328.244234 
L 272.290463 314.71604 
L 272.917079 290.836918 
L 273.741574 250.024973 
L 275.143216 167.31052 
L 276.561348 88.263142 
L 277.385844 53.923302 
L 278.01246 36.257699 
L 278.490667 28.335163 
L 278.820465 25.816326 
L 279.001854 25.471673 
L 279.018344 25.477058 
L 279.133774 25.686 
L 279.315163 26.618476 
L 279.595491 29.500812 
L 279.974759 36.13098 
L 280.452966 48.771479 
L 281.063093 71.22057 
L 281.871098 109.915975 
L 283.20678 186.61832 
L 284.707362 269.113547 
L 285.531857 303.117737 
L 286.158474 320.854711 
L 286.636681 329.051494 
L 286.982969 331.960607 
L 287.197338 332.469501 
L 287.296277 332.370878 
L 287.461176 331.740104 
L 287.708525 329.709213 
L 288.054813 324.719159 
L 288.50004 314.76595 
L 289.077187 296.400096 
L 289.819233 265.102894 
L 290.924056 207.848269 
L 292.935825 103.280932 
L 293.74383 72.764597 
L 294.370447 56.596718 
L 294.848654 49.196712 
L 295.194942 46.617676 
L 295.409311 46.201727 
L 295.52474 46.350724 
L 295.706129 47.10887 
L 295.969968 49.341426 
L 296.332746 54.542969 
L 296.810953 64.982497 
L 297.421079 83.648411 
L 298.229085 115.851275 
L 299.597747 181.058668 
L 301.048859 246.718968 
L 301.873354 274.756231 
L 302.51646 289.766326 
L 303.011157 296.727304 
L 303.373935 299.200957 
L 303.588304 299.610874 
L 303.703733 299.509814 
L 303.868633 298.978057 
L 304.132471 297.19238 
L 304.495249 292.910489 
L 304.973456 284.210265 
L 305.583583 268.57808 
L 306.391588 241.587652 
L 307.79323 185.725398 
L 309.211362 132.441396 
L 310.035857 109.207186 
L 310.678964 96.778009 
L 311.173661 90.988484 
L 311.536439 88.890817 
L 311.767297 88.50153 
L 311.899217 88.605884 
L 312.080606 89.132386 
L 312.344444 90.674973 
L 312.707222 94.247202 
L 313.185429 101.360671 
L 313.812046 114.341352 
L 314.653031 136.841805 
L 318.033462 233.075251 
L 318.693058 243.72718 
L 319.220735 249.083887 
L 319.616493 251.197872 
L 319.880331 251.704921 
L 320.02874 251.677835 
L 320.210129 251.344827 
L 320.473968 250.285358 
L 320.836746 247.760648 
L 321.314953 242.678351 
L 321.941569 233.382336 
L 322.799045 216.974076 
L 325.998086 152.155095 
L 326.690662 143.827167 
L 327.234829 139.615842 
L 327.663567 137.783246 
L 327.960385 137.271998 
L 328.158264 137.266809 
L 328.356143 137.522655 
L 328.636471 138.316423 
L 329.015739 140.151436 
L 329.526926 143.880195 
L 330.203012 150.663633 
L 331.175917 162.957519 
L 333.517483 193.303486 
L 334.308999 200.480139 
L 334.935615 204.374823 
L 335.446802 206.316713 
L 335.84256 207.066877 
L 336.122888 207.215612 
L 336.370237 207.095537 
L 336.667055 206.657215 
L 337.062813 205.611326 
L 337.59049 203.496212 
L 338.299556 199.6276 
L 339.453849 191.878164 
L 341.11933 180.95053 
L 341.960315 176.853786 
L 342.636401 174.576104 
L 343.180568 173.435721 
L 343.625796 172.94751 
L 344.005063 172.825511 
L 344.367841 172.938928 
L 344.796579 173.328969 
L 345.340746 174.155579 
L 346.115771 175.790267 
L 349.067465 182.461035 
L 349.80951 183.414726 
L 350.452617 183.904933 
L 351.079233 184.108886 
L 351.738829 184.085757 
L 352.579815 183.815459 
L 355.696407 182.602295 
L 356.94964 182.508475 
L 359.175777 182.377629 
L 360.280601 182.043824 
L 363.446663 180.89119 
L 364.073279 181.034027 
L 364.666916 181.407885 
L 365.293532 182.086343 
L 366.002598 183.211437 
L 366.876563 185.051864 
L 369.762297 191.52469 
L 370.289973 192.058621 
L 370.702221 192.188151 
L 371.048509 192.072716 
L 371.427777 191.688661 
L 371.856515 190.908333 
L 372.367702 189.478301 
L 372.977828 187.062605 
L 373.736364 183.076213 
L 374.808208 176.095097 
L 376.803486 162.978439 
L 377.512552 159.775577 
L 378.023739 158.343988 
L 378.403007 157.849365 
L 378.666846 157.818842 
L 378.914194 158.037464 
L 379.227502 158.671702 
L 379.62326 160.061451 
L 380.101467 162.630719 
L 380.695104 167.148387 
L 381.43715 174.675831 
L 382.459524 187.598293 
L 384.768111 217.456317 
L 385.477177 223.62749 
L 386.004854 226.5331 
L 386.384122 227.589557 
L 386.63147 227.77671 
L 386.812859 227.65184 
L 387.043718 227.164108 
L 387.357026 225.901888 
L 387.769274 223.175373 
L 388.280461 218.126086 
L 388.907077 209.545403 
L 389.715083 195.139922 
L 390.968315 168.1609 
L 392.584326 134.3819 
L 393.375842 122.251329 
L 393.952988 116.394546 
L 394.381726 113.963405 
L 394.678544 113.317886 
L 394.843443 113.340458 
L 395.024832 113.686126 
L 395.288671 114.79667 
L 395.634959 117.356213 
L 396.080186 122.476354 
L 396.640843 131.751604 
L 397.349909 147.567651 
L 398.306324 174.462477 
L 398.570162 182.467902 
L 398.570162 182.467902 
" style="fill:none;stroke:#2ca02c;stroke-linecap:square;stroke-width:1.5;"/>
   </g>
   <g id="patch_3">
    <path d="M 52.160938 355.368 
L 52.160938 7.2 
" style="fill:none;stroke:#000000;stroke-linecap:square;stroke-linejoin:miter;stroke-width:0.8;"/>
   </g>
   <g id="patch_4">
    <path d="M 415.065839 355.368 
L 415.065839 7.2 
" style="fill:none;stroke:#000000;stroke-linecap:square;stroke-linejoin:miter;stroke-width:0.8;"/>
   </g>
   <g id="patch_5">
    <path d="M 52.160938 355.368 
L 415.065839 355.368 
" style="fill:none;stroke:#000000;stroke-linecap:square;stroke-linejoin:miter;stroke-width:0.8;"/>
   </g>
   <g id="patch_6">
    <path d="M 52.160938 7.2 
L 415.065839 7.2 
" style="fill:none;stroke:#000000;stroke-linecap:square;stroke-linejoin:miter;stroke-width:0.8;"/>
   </g>
   <g id="text_17">
    <!-- output with a sine control voltage, biased for am (Vin_b is scaled). -->
    <g transform="translate(34.585888 419.0016)scale(0.12 -0.12)">
     <defs>
      <path d="M 30.609375 48.390625 
Q 23.390625 48.390625 19.1875 42.75 
Q 14.984375 37.109375 14.984375 27.296875 
Q 14.984375 17.484375 19.15625 11.84375 
Q 23.34375 6.203125 30.609375 6.203125 
Q 37.796875 6.203125 41.984375 11.859375 
Q 46.1875 17.53125 46.1875 27.296875 
Q 46.1875 37.015625 41.984375 42.703125 
Q 37.796875 48.390625 30.609375 48.390625 
z
M 30.609375 56 
Q 42.328125 56 49.015625 48.375 
Q 55.71875 40.765625 55.71875 27.296875 
Q 55.71875 13.875 49.015625 6.21875 
Q 42.328125 -1.421875 30.609375 -1.421875 
Q 18.84375 -1.421875 12.171875 6.21875 
Q 5.515625 13.875 5.515625 27.296875 
Q 5.515625 40.765625 12.171875 48.375 
Q 18.84375 56 30.609375 56 
z
" id="DejaVuSans-111"/>
      <path d="M 8.5 21.578125 
L 8.5 54.6875 
L 17.484375 54.6875 
L 17.484375 21.921875 
Q 17.484375 14.15625 20.5 10.265625 
Q 23.53125 6.390625 29.59375 6.390625 
Q 36.859375 6.390625 41.078125 11.03125 
Q 45.3125 15.671875 45.3125 23.6875 
L 45.3125 54.6875 
L 54.296875 54.6875 
L 54.296875 0 
L 45.3125 0 
L 45.3125 8.40625 
Q 42.046875 3.421875 37.71875 1 
Q 33.40625 -1.421875 27.6875 -1.421875 
Q 18.265625 -1.421875 13.375 4.4375 
Q 8.5 10.296875 8.5 21.578125 
z
M 31.109375 56 
z
" id="DejaVuSans-117"/>
      <path d="M 18.109375 8.203125 
L 18.109375 -20.796875 
L 9.078125 -20.796875 
L 9.078125 54.6875 
L 18.109375 54.6875 
L 18.109375 46.390625 
Q 20.953125 51.265625 25.265625 53.625 
Q 29.59375 56 35.59375 56 
Q 45.5625 56 51.78125 48.09375 
Q 58.015625 40.1875 58.015625 27.296875 
Q 58.015625 14.40625 51.78125 6.484375 
Q 45.5625 -1.421875 35.59375 -1.421875 
Q 29.59375 -1.421875 25.265625 0.953125 
Q 20.953125 3.328125 18.109375 8.203125 
z
M 48.6875 27.296875 
Q 48.6875 37.203125 44.609375 42.84375 
Q 40.53125 48.484375 33.40625 48.484375 
Q 26.265625 48.484375 22.1875 42.84375 
Q 18.109375 37.203125 18.109375 27.296875 
Q 18.109375 17.390625 22.1875 11.75 
Q 26.265625 6.109375 33.40625 6.109375 
Q 40.53125 6.109375 44.609375 11.75 
Q 48.6875 17.390625 48.6875 27.296875 
z
" id="DejaVuSans-112"/>
      <path d="M 4.203125 54.6875 
L 13.1875 54.6875 
L 24.421875 12.015625 
L 35.59375 54.6875 
L 46.1875 54.6875 
L 57.421875 12.015625 
L 68.609375 54.6875 
L 77.59375 54.6875 
L 63.28125 0 
L 52.6875 0 
L 40.921875 44.828125 
L 29.109375 0 
L 18.5 0 
z
" id="DejaVuSans-119"/>
      <path d="M 9.421875 54.6875 
L 18.40625 54.6875 
L 18.40625 0 
L 9.421875 0 
z
M 9.421875 75.984375 
L 18.40625 75.984375 
L 18.40625 64.59375 
L 9.421875 64.59375 
z
" id="DejaVuSans-105"/>
      <path d="M 54.890625 33.015625 
L 54.890625 0 
L 45.90625 0 
L 45.90625 32.71875 
Q 45.90625 40.484375 42.875 44.328125 
Q 39.84375 48.1875 33.796875 48.1875 
Q 26.515625 48.1875 22.3125 43.546875 
Q 18.109375 38.921875 18.109375 30.90625 
L 18.109375 0 
L 9.078125 0 
L 9.078125 75.984375 
L 18.109375 75.984375 
L 18.109375 46.1875 
Q 21.34375 51.125 25.703125 53.5625 
Q 30.078125 56 35.796875 56 
Q 45.21875 56 50.046875 50.171875 
Q 54.890625 44.34375 54.890625 33.015625 
z
" id="DejaVuSans-104"/>
      <path d="M 34.28125 27.484375 
Q 23.390625 27.484375 19.1875 25 
Q 14.984375 22.515625 14.984375 16.5 
Q 14.984375 11.71875 18.140625 8.90625 
Q 21.296875 6.109375 26.703125 6.109375 
Q 34.1875 6.109375 38.703125 11.40625 
Q 43.21875 16.703125 43.21875 25.484375 
L 43.21875 27.484375 
z
M 52.203125 31.203125 
L 52.203125 0 
L 43.21875 0 
L 43.21875 8.296875 
Q 40.140625 3.328125 35.546875 0.953125 
Q 30.953125 -1.421875 24.3125 -1.421875 
Q 15.921875 -1.421875 10.953125 3.296875 
Q 6 8.015625 6 15.921875 
Q 6 25.140625 12.171875 29.828125 
Q 18.359375 34.515625 30.609375 34.515625 
L 43.21875 34.515625 
L 43.21875 35.40625 
Q 43.21875 41.609375 39.140625 45 
Q 35.0625 48.390625 27.6875 48.390625 
Q 23 48.390625 18.546875 47.265625 
Q 14.109375 46.140625 10.015625 43.890625 
L 10.015625 52.203125 
Q 14.9375 54.109375 19.578125 55.046875 
Q 24.21875 56 28.609375 56 
Q 40.484375 56 46.34375 49.84375 
Q 52.203125 43.703125 52.203125 31.203125 
z
" id="DejaVuSans-97"/>
      <path d="M 54.890625 33.015625 
L 54.890625 0 
L 45.90625 0 
L 45.90625 32.71875 
Q 45.90625 40.484375 42.875 44.328125 
Q 39.84375 48.1875 33.796875 48.1875 
Q 26.515625 48.1875 22.3125 43.546875 
Q 18.109375 38.921875 18.109375 30.90625 
L 18.109375 0 
L 9.078125 0 
L 9.078125 54.6875 
L 18.109375 54.6875 
L 18.109375 46.1875 
Q 21.34375 51.125 25.703125 53.5625 
Q 30.078125 56 35.796875 56 
Q 45.21875 56 50.046875 50.171875 
Q 54.890625 44.34375 54.890625 33.015625 
z
" id="DejaVuSans-110"/>
      <path d="M 56.203125 29.59375 
L 56.203125 25.203125 
L 14.890625 25.203125 
Q 15.484375 15.921875 20.484375 11.0625 
Q 25.484375 6.203125 34.421875 6.203125 
Q 39.59375 6.203125 44.453125 7.46875 
Q 49.3125 8.734375 54.109375 11.28125 
L 54.109375 2.78125 
Q 49.265625 0.734375 44.1875 -0.34375 
Q 39.109375 -1.421875 33.890625 -1.421875 
Q 20.796875 -1.421875 13.15625 6.1875 
Q 5.515625 13.8125 5.515625 26.8125 
Q 5.515625 40.234375 12.765625 48.109375 
Q 20.015625 56 32.328125 56 
Q 43.359375 56 49.78125 48.890625 
Q 56.203125 41.796875 56.203125 29.59375 
z
M 47.21875 32.234375 
Q 47.125 39.59375 43.09375 43.984375 
Q 39.0625 48.390625 32.421875 48.390625 
Q 24.90625 48.390625 20.390625 44.140625 
Q 15.875 39.890625 15.1875 32.171875 
z
" id="DejaVuSans-101"/>
      <path d="M 48.78125 52.59375 
L 48.78125 44.1875 
Q 44.96875 46.296875 41.140625 47.34375 
Q 37.3125 48.390625 33.40625 48.390625 
Q 24.65625 48.390625 19.8125 42.84375 
Q 14.984375 37.3125 14.984375 27.296875 
Q 14.984375 17.28125 19.8125 11.734375 
Q 24.65625 6.203125 33.40625 6.203125 
Q 37.3125 6.203125 41.140625 7.25 
Q 44.96875 8.296875 48.78125 10.40625 
L 48.78125 2.09375 
Q 45.015625 0.34375 40.984375 -0.53125 
Q 36.96875 -1.421875 32.421875 -1.421875 
Q 20.0625 -1.421875 12.78125 6.34375 
Q 5.515625 14.109375 5.515625 27.296875 
Q 5.515625 40.671875 12.859375 48.328125 
Q 20.21875 56 33.015625 56 
Q 37.15625 56 41.109375 55.140625 
Q 45.0625 54.296875 48.78125 52.59375 
z
" id="DejaVuSans-99"/>
      <path d="M 41.109375 46.296875 
Q 39.59375 47.171875 37.8125 47.578125 
Q 36.03125 48 33.890625 48 
Q 26.265625 48 22.1875 43.046875 
Q 18.109375 38.09375 18.109375 28.8125 
L 18.109375 0 
L 9.078125 0 
L 9.078125 54.6875 
L 18.109375 54.6875 
L 18.109375 46.1875 
Q 20.953125 51.171875 25.484375 53.578125 
Q 30.03125 56 36.53125 56 
Q 37.453125 56 38.578125 55.875 
Q 39.703125 55.765625 41.0625 55.515625 
z
" id="DejaVuSans-114"/>
      <path d="M 9.421875 75.984375 
L 18.40625 75.984375 
L 18.40625 0 
L 9.421875 0 
z
" id="DejaVuSans-108"/>
      <path d="M 2.984375 54.6875 
L 12.5 54.6875 
L 29.59375 8.796875 
L 46.6875 54.6875 
L 56.203125 54.6875 
L 35.6875 0 
L 23.484375 0 
z
" id="DejaVuSans-118"/>
      <path d="M 45.40625 27.984375 
Q 45.40625 37.75 41.375 43.109375 
Q 37.359375 48.484375 30.078125 48.484375 
Q 22.859375 48.484375 18.828125 43.109375 
Q 14.796875 37.75 14.796875 27.984375 
Q 14.796875 18.265625 18.828125 12.890625 
Q 22.859375 7.515625 30.078125 7.515625 
Q 37.359375 7.515625 41.375 12.890625 
Q 45.40625 18.265625 45.40625 27.984375 
z
M 54.390625 6.78125 
Q 54.390625 -7.171875 48.1875 -13.984375 
Q 42 -20.796875 29.203125 -20.796875 
Q 24.46875 -20.796875 20.265625 -20.09375 
Q 16.0625 -19.390625 12.109375 -17.921875 
L 12.109375 -9.1875 
Q 16.0625 -11.328125 19.921875 -12.34375 
Q 23.78125 -13.375 27.78125 -13.375 
Q 36.625 -13.375 41.015625 -8.765625 
Q 45.40625 -4.15625 45.40625 5.171875 
L 45.40625 9.625 
Q 42.625 4.78125 38.28125 2.390625 
Q 33.9375 0 27.875 0 
Q 17.828125 0 11.671875 7.65625 
Q 5.515625 15.328125 5.515625 27.984375 
Q 5.515625 40.671875 11.671875 48.328125 
Q 17.828125 56 27.875 56 
Q 33.9375 56 38.28125 53.609375 
Q 42.625 51.21875 45.40625 46.390625 
L 45.40625 54.6875 
L 54.390625 54.6875 
z
" id="DejaVuSans-103"/>
      <path d="M 11.71875 12.40625 
L 22.015625 12.40625 
L 22.015625 4 
L 14.015625 -11.625 
L 7.71875 -11.625 
L 11.71875 4 
z
" id="DejaVuSans-44"/>
      <path d="M 48.6875 27.296875 
Q 48.6875 37.203125 44.609375 42.84375 
Q 40.53125 48.484375 33.40625 48.484375 
Q 26.265625 48.484375 22.1875 42.84375 
Q 18.109375 37.203125 18.109375 27.296875 
Q 18.109375 17.390625 22.1875 11.75 
Q 26.265625 6.109375 33.40625 6.109375 
Q 40.53125 6.109375 44.609375 11.75 
Q 48.6875 17.390625 48.6875 27.296875 
z
M 18.109375 46.390625 
Q 20.953125 51.265625 25.265625 53.625 
Q 29.59375 56 35.59375 56 
Q 45.5625 56 51.78125 48.09375 
Q 58.015625 40.1875 58.015625 27.296875 
Q 58.015625 14.40625 51.78125 6.484375 
Q 45.5625 -1.421875 35.59375 -1.421875 
Q 29.59375 -1.421875 25.265625 0.953125 
Q 20.953125 3.328125 18.109375 8.203125 
L 18.109375 0 
L 9.078125 0 
L 9.078125 75.984375 
L 18.109375 75.984375 
z
" id="DejaVuSans-98"/>
      <path d="M 45.40625 46.390625 
L 45.40625 75.984375 
L 54.390625 75.984375 
L 54.390625 0 
L 45.40625 0 
L 45.40625 8.203125 
Q 42.578125 3.328125 38.25 0.953125 
Q 33.9375 -1.421875 27.875 -1.421875 
Q 17.96875 -1.421875 11.734375 6.484375 
Q 5.515625 14.40625 5.515625 27.296875 
Q 5.515625 40.1875 11.734375 48.09375 
Q 17.96875 56 27.875 56 
Q 33.9375 56 38.25 53.625 
Q 42.578125 51.265625 45.40625 46.390625 
z
M 14.796875 27.296875 
Q 14.796875 17.390625 18.875 11.75 
Q 22.953125 6.109375 30.078125 6.109375 
Q 37.203125 6.109375 41.296875 11.75 
Q 45.40625 17.390625 45.40625 27.296875 
Q 45.40625 37.203125 41.296875 42.84375 
Q 37.203125 48.484375 30.078125 48.484375 
Q 22.953125 48.484375 18.875 42.84375 
Q 14.796875 37.203125 14.796875 27.296875 
z
" id="DejaVuSans-100"/>
      <path d="M 37.109375 75.984375 
L 37.109375 68.5 
L 28.515625 68.5 
Q 23.6875 68.5 21.796875 66.546875 
Q 19.921875 64.59375 19.921875 59.515625 
L 19.921875 54.6875 
L 34.71875 54.6875 
L 34.71875 47.703125 
L 19.921875 47.703125 
L 19.921875 0 
L 10.890625 0 
L 10.890625 47.703125 
L 2.296875 47.703125 
L 2.296875 54.6875 
L 10.890625 54.6875 
L 10.890625 58.5 
Q 10.890625 67.625 15.140625 71.796875 
Q 19.390625 75.984375 28.609375 75.984375 
z
" id="DejaVuSans-102"/>
      <path d="M 52 44.1875 
Q 55.375 50.25 60.0625 53.125 
Q 64.75 56 71.09375 56 
Q 79.640625 56 84.28125 50.015625 
Q 88.921875 44.046875 88.921875 33.015625 
L 88.921875 0 
L 79.890625 0 
L 79.890625 32.71875 
Q 79.890625 40.578125 77.09375 44.375 
Q 74.3125 48.1875 68.609375 48.1875 
Q 61.625 48.1875 57.5625 43.546875 
Q 53.515625 38.921875 53.515625 30.90625 
L 53.515625 0 
L 44.484375 0 
L 44.484375 32.71875 
Q 44.484375 40.625 41.703125 44.40625 
Q 38.921875 48.1875 33.109375 48.1875 
Q 26.21875 48.1875 22.15625 43.53125 
Q 18.109375 38.875 18.109375 30.90625 
L 18.109375 0 
L 9.078125 0 
L 9.078125 54.6875 
L 18.109375 54.6875 
L 18.109375 46.1875 
Q 21.1875 51.21875 25.484375 53.609375 
Q 29.78125 56 35.6875 56 
Q 41.65625 56 45.828125 52.96875 
Q 50 49.953125 52 44.1875 
z
" id="DejaVuSans-109"/>
      <path d="M 31 75.875 
Q 24.46875 64.65625 21.28125 53.65625 
Q 18.109375 42.671875 18.109375 31.390625 
Q 18.109375 20.125 21.3125 9.0625 
Q 24.515625 -2 31 -13.1875 
L 23.1875 -13.1875 
Q 15.875 -1.703125 12.234375 9.375 
Q 8.59375 20.453125 8.59375 31.390625 
Q 8.59375 42.28125 12.203125 53.3125 
Q 15.828125 64.359375 23.1875 75.875 
z
" id="DejaVuSans-40"/>
      <path d="M 50.984375 -16.609375 
L 50.984375 -23.578125 
L -0.984375 -23.578125 
L -0.984375 -16.609375 
z
" id="DejaVuSans-95"/>
      <path d="M 8.015625 75.875 
L 15.828125 75.875 
Q 23.140625 64.359375 26.78125 53.3125 
Q 30.421875 42.28125 30.421875 31.390625 
Q 30.421875 20.453125 26.78125 9.375 
Q 23.140625 -1.703125 15.828125 -13.1875 
L 8.015625 -13.1875 
Q 14.5 -2 17.703125 9.0625 
Q 20.90625 20.125 20.90625 31.390625 
Q 20.90625 42.671875 17.703125 53.65625 
Q 14.5 64.65625 8.015625 75.875 
z
" id="DejaVuSans-41"/>
     </defs>
     <use xlink:href="#DejaVuSans-111"/>
     <use x="61.181641" xlink:href="#DejaVuSans-117"/>
     <use x="124.560547" xlink:href="#DejaVuSans-116"/>
     <use x="163.769531" xlink:href="#DejaVuSans-112"/>
     <use x="227.246094" xlink:href="#DejaVuSans-117"/>
     <use x="290.625" xlink:href="#DejaVuSans-116"/>
     <use x="329.833984" xlink:href="#DejaVuSans-32"/>
     <use x="361.621094" xlink:href="#DejaVuSans-119"/>
     <use x="443.408203" xlink:href="#DejaVuSans-105"/>
     <use x="471.191406" xlink:href="#DejaVuSans-116"/>
     <use x="510.400391" xlink:href="#DejaVuSans-104"/>
     <use x="573.779297" xlink:href="#DejaVuSans-32"/>
     <use x="605.566406" xlink:href="#DejaVuSans-97"/>
     <use x="666.845703" xlink:href="#DejaVuSans-32"/>
     <use x="698.632812" xlink:href="#DejaVuSans-115"/>
     <use x="750.732422" xlink:href="#DejaVuSans-105"/>
     <use x="778.515625" xlink:href="#DejaVuSans-110"/>
     <use x="841.894531" xlink:href="#DejaVuSans-101"/>
     <use x="903.417969" xlink:href="#DejaVuSans-32"/>
     <use x="935.205078" xlink:href="#DejaVuSans-99"/>
     <use x="990.185547" xlink:href="#DejaVuSans-111"/>
     <use x="1051.367188" xlink:href="#DejaVuSans-110"/>
     <use x="1114.746094" xlink:href="#DejaVuSans-116"/>
     <use x="1153.955078" xlink:href="#DejaVuSans-114"/>
     <use x="1192.818359" xlink:href="#DejaVuSans-111"/>
     <use x="1254" xlink:href="#DejaVuSans-108"/>
     <use x="1281.783203" xlink:href="#DejaVuSans-32"/>
     <use x="1313.570312" xlink:href="#DejaVuSans-118"/>
     <use x="1372.75" xlink:href="#DejaVuSans-111"/>
     <use x="1433.931641" xlink:href="#DejaVuSans-108"/>
     <use x="1461.714844" xlink:href="#DejaVuSans-116"/>
     <use x="1500.923828" xlink:href="#DejaVuSans-97"/>
     <use x="1562.203125" xlink:href="#DejaVuSans-103"/>
     <use x="1625.679688" xlink:href="#DejaVuSans-101"/>
     <use x="1687.203125" xlink:href="#DejaVuSans-44"/>
     <use x="1718.990234" xlink:href="#DejaVuSans-32"/>
     <use x="1750.777344" xlink:href="#DejaVuSans-98"/>
     <use x="1814.253906" xlink:href="#DejaVuSans-105"/>
     <use x="1842.037109" xlink:href="#DejaVuSans-97"/>
     <use x="1903.316406" xlink:href="#DejaVuSans-115"/>
     <use x="1955.416016" xlink:href="#DejaVuSans-101"/>
     <use x="2016.939453" xlink:href="#DejaVuSans-100"/>
     <use x="2080.416016" xlink:href="#DejaVuSans-32"/>
     <use x="2112.203125" xlink:href="#DejaVuSans-102"/>
     <use x="2147.408203" xlink:href="#DejaVuSans-111"/>
     <use x="2208.589844" xlink:href="#DejaVuSans-114"/>
     <use x="2249.703125" xlink:href="#DejaVuSans-32"/>
     <use x="2281.490234" xlink:href="#DejaVuSans-97"/>
     <use x="2342.769531" xlink:href="#DejaVuSans-109"/>
     <use x="2440.181641" xlink:href="#DejaVuSans-32"/>
     <use x="2471.96875" xlink:href="#DejaVuSans-40"/>
     <use x="2510.982422" xlink:href="#DejaVuSans-86"/>
     <use x="2577.140625" xlink:href="#DejaVuSans-105"/>
     <use x="2604.923828" xlink:href="#DejaVuSans-110"/>
     <use x="2668.302734" xlink:href="#DejaVuSans-95"/>
     <use x="2718.302734" xlink:href="#DejaVuSans-98"/>
     <use x="2781.779297" xlink:href="#DejaVuSans-32"/>
     <use x="2813.566406" xlink:href="#DejaVuSans-105"/>
     <use x="2841.349609" xlink:href="#DejaVuSans-115"/>
     <use x="2893.449219" xlink:href="#DejaVuSans-32"/>
     <use x="2925.236328" xlink:href="#DejaVuSans-115"/>
     <use x="2977.335938" xlink:href="#DejaVuSans-99"/>
     <use x="3032.316406" xlink:href="#DejaVuSans-97"/>
     <use x="3093.595703" xlink:href="#DejaVuSans-108"/>
     <use x="3121.378906" xlink:href="#DejaVuSans-101"/>
     <use x="3182.902344" xlink:href="#DejaVuSans-100"/>
     <use x="3246.378906" xlink:href="#DejaVuSans-41"/>
     <use x="3285.392578" xlink:href="#DejaVuSans-46"/>
    </g>
   </g>
   <g id="legend_1">
    <g id="patch_7">
     <path d="M 344.484859 76.8336 
L 439.348922 76.8336 
Q 441.348922 76.8336 441.348922 74.8336 
L 441.348922 31.799225 
Q 441.348922 29.799225 439.348922 29.799225 
L 344.484859 29.799225 
Q 342.484859 29.799225 342.484859 31.799225 
L 342.484859 74.8336 
Q 342.484859 76.8336 344.484859 76.8336 
z
" style="fill:#ffffff;opacity:0.8;stroke:#cccccc;stroke-linejoin:miter;"/>
    </g>
    <g id="line2d_32">
     <path d="M 346.484859 37.897662 
L 366.484859 37.897662 
" style="fill:none;stroke:#1f77b4;stroke-linecap:square;stroke-width:1.5;"/>
    </g>
    <g id="line2d_33"/>
    <g id="text_18">
     <!-- Vinput b  [V] -->
     <g transform="translate(374.484859 41.397662)scale(0.1 -0.1)">
      <use xlink:href="#DejaVuSans-86"/>
      <use x="66.158203" xlink:href="#DejaVuSans-105"/>
      <use x="93.941406" xlink:href="#DejaVuSans-110"/>
      <use x="157.320312" xlink:href="#DejaVuSans-112"/>
      <use x="220.796875" xlink:href="#DejaVuSans-117"/>
      <use x="284.175781" xlink:href="#DejaVuSans-116"/>
      <use x="323.384766" xlink:href="#DejaVuSans-32"/>
      <use x="355.171875" xlink:href="#DejaVuSans-98"/>
      <use x="418.648438" xlink:href="#DejaVuSans-32"/>
      <use x="450.435547" xlink:href="#DejaVuSans-32"/>
      <use x="482.222656" xlink:href="#DejaVuSans-91"/>
      <use x="521.236328" xlink:href="#DejaVuSans-86"/>
      <use x="589.644531" xlink:href="#DejaVuSans-93"/>
     </g>
    </g>
    <g id="line2d_34">
     <path d="M 346.484859 52.575787 
L 366.484859 52.575787 
" style="fill:none;stroke:#ff7f0e;stroke-linecap:square;stroke-width:1.5;"/>
    </g>
    <g id="line2d_35"/>
    <g id="text_19">
     <!-- Vinput a [V] -->
     <g transform="translate(374.484859 56.075787)scale(0.1 -0.1)">
      <use xlink:href="#DejaVuSans-86"/>
      <use x="66.158203" xlink:href="#DejaVuSans-105"/>
      <use x="93.941406" xlink:href="#DejaVuSans-110"/>
      <use x="157.320312" xlink:href="#DejaVuSans-112"/>
      <use x="220.796875" xlink:href="#DejaVuSans-117"/>
      <use x="284.175781" xlink:href="#DejaVuSans-116"/>
      <use x="323.384766" xlink:href="#DejaVuSans-32"/>
      <use x="355.171875" xlink:href="#DejaVuSans-97"/>
      <use x="416.451172" xlink:href="#DejaVuSans-32"/>
      <use x="448.238281" xlink:href="#DejaVuSans-91"/>
      <use x="487.251953" xlink:href="#DejaVuSans-86"/>
      <use x="555.660156" xlink:href="#DejaVuSans-93"/>
     </g>
    </g>
    <g id="line2d_36">
     <path d="M 346.484859 67.253912 
L 366.484859 67.253912 
" style="fill:none;stroke:#2ca02c;stroke-linecap:square;stroke-width:1.5;"/>
    </g>
    <g id="line2d_37"/>
    <g id="text_20">
     <!-- Vout [V] -->
     <g transform="translate(374.484859 70.753912)scale(0.1 -0.1)">
      <use xlink:href="#DejaVuSans-86"/>
      <use x="60.658203" xlink:href="#DejaVuSans-111"/>
      <use x="121.839844" xlink:href="#DejaVuSans-117"/>
      <use x="185.21875" xlink:href="#DejaVuSans-116"/>
      <use x="224.427734" xlink:href="#DejaVuSans-32"/>
      <use x="256.214844" xlink:href="#DejaVuSans-91"/>
      <use x="295.228516" xlink:href="#DejaVuSans-86"/>
      <use x="363.636719" xlink:href="#DejaVuSans-93"/>
     </g>
    </g>
   </g>
  </g>
  <g id="axes_2">
   <g id="patch_8">
    <path d="M 485.283487 355.368 
L 848.188388 355.368 
L 848.188388 7.2 
L 485.283487 7.2 
z
" style="fill:#ffffff;"/>
   </g>
   <g id="matplotlib.axis_3">
    <g id="xtick_10">
     <g id="line2d_38">
      <g>
       <use style="stroke:#000000;stroke-width:0.8;" x="501.779164" xlink:href="#m3b068a802d" y="355.368"/>
      </g>
     </g>
     <g id="text_21">
      <!-- 0 -->
      <g transform="translate(498.597914 369.966437)scale(0.1 -0.1)">
       <use xlink:href="#DejaVuSans-48"/>
      </g>
     </g>
    </g>
    <g id="xtick_11">
     <g id="line2d_39">
      <g>
       <use style="stroke:#000000;stroke-width:0.8;" x="543.121714" xlink:href="#m3b068a802d" y="355.368"/>
      </g>
     </g>
     <g id="text_22">
      <!-- 50 -->
      <g transform="translate(536.759214 369.966437)scale(0.1 -0.1)">
       <use xlink:href="#DejaVuSans-53"/>
       <use x="63.623047" xlink:href="#DejaVuSans-48"/>
      </g>
     </g>
    </g>
    <g id="xtick_12">
     <g id="line2d_40">
      <g>
       <use style="stroke:#000000;stroke-width:0.8;" x="584.464263" xlink:href="#m3b068a802d" y="355.368"/>
      </g>
     </g>
     <g id="text_23">
      <!-- 100 -->
      <g transform="translate(574.920513 369.966437)scale(0.1 -0.1)">
       <use xlink:href="#DejaVuSans-49"/>
       <use x="63.623047" xlink:href="#DejaVuSans-48"/>
       <use x="127.246094" xlink:href="#DejaVuSans-48"/>
      </g>
     </g>
    </g>
    <g id="xtick_13">
     <g id="line2d_41">
      <g>
       <use style="stroke:#000000;stroke-width:0.8;" x="625.806813" xlink:href="#m3b068a802d" y="355.368"/>
      </g>
     </g>
     <g id="text_24">
      <!-- 150 -->
      <g transform="translate(616.263063 369.966437)scale(0.1 -0.1)">
       <use xlink:href="#DejaVuSans-49"/>
       <use x="63.623047" xlink:href="#DejaVuSans-53"/>
       <use x="127.246094" xlink:href="#DejaVuSans-48"/>
      </g>
     </g>
    </g>
    <g id="xtick_14">
     <g id="line2d_42">
      <g>
       <use style="stroke:#000000;stroke-width:0.8;" x="667.149363" xlink:href="#m3b068a802d" y="355.368"/>
      </g>
     </g>
     <g id="text_25">
      <!-- 200 -->
      <g transform="translate(657.605613 369.966437)scale(0.1 -0.1)">
       <use xlink:href="#DejaVuSans-50"/>
       <use x="63.623047" xlink:href="#DejaVuSans-48"/>
       <use x="127.246094" xlink:href="#DejaVuSans-48"/>
      </g>
     </g>
    </g>
    <g id="xtick_15">
     <g id="line2d_43">
      <g>
       <use style="stroke:#000000;stroke-width:0.8;" x="708.491913" xlink:href="#m3b068a802d" y="355.368"/>
      </g>
     </g>
     <g id="text_26">
      <!-- 250 -->
      <g transform="translate(698.948163 369.966437)scale(0.1 -0.1)">
       <use xlink:href="#DejaVuSans-50"/>
       <use x="63.623047" xlink:href="#DejaVuSans-53"/>
       <use x="127.246094" xlink:href="#DejaVuSans-48"/>
      </g>
     </g>
    </g>
    <g id="xtick_16">
     <g id="line2d_44">
      <g>
       <use style="stroke:#000000;stroke-width:0.8;" x="749.834463" xlink:href="#m3b068a802d" y="355.368"/>
      </g>
     </g>
     <g id="text_27">
      <!-- 300 -->
      <g transform="translate(740.290713 369.966437)scale(0.1 -0.1)">
       <defs>
        <path d="M 40.578125 39.3125 
Q 47.65625 37.796875 51.625 33 
Q 55.609375 28.21875 55.609375 21.1875 
Q 55.609375 10.40625 48.1875 4.484375 
Q 40.765625 -1.421875 27.09375 -1.421875 
Q 22.515625 -1.421875 17.65625 -0.515625 
Q 12.796875 0.390625 7.625 2.203125 
L 7.625 11.71875 
Q 11.71875 9.328125 16.59375 8.109375 
Q 21.484375 6.890625 26.8125 6.890625 
Q 36.078125 6.890625 40.9375 10.546875 
Q 45.796875 14.203125 45.796875 21.1875 
Q 45.796875 27.640625 41.28125 31.265625 
Q 36.765625 34.90625 28.71875 34.90625 
L 20.21875 34.90625 
L 20.21875 43.015625 
L 29.109375 43.015625 
Q 36.375 43.015625 40.234375 45.921875 
Q 44.09375 48.828125 44.09375 54.296875 
Q 44.09375 59.90625 40.109375 62.90625 
Q 36.140625 65.921875 28.71875 65.921875 
Q 24.65625 65.921875 20.015625 65.03125 
Q 15.375 64.15625 9.8125 62.3125 
L 9.8125 71.09375 
Q 15.4375 72.65625 20.34375 73.4375 
Q 25.25 74.21875 29.59375 74.21875 
Q 40.828125 74.21875 47.359375 69.109375 
Q 53.90625 64.015625 53.90625 55.328125 
Q 53.90625 49.265625 50.4375 45.09375 
Q 46.96875 40.921875 40.578125 39.3125 
z
" id="DejaVuSans-51"/>
       </defs>
       <use xlink:href="#DejaVuSans-51"/>
       <use x="63.623047" xlink:href="#DejaVuSans-48"/>
       <use x="127.246094" xlink:href="#DejaVuSans-48"/>
      </g>
     </g>
    </g>
    <g id="xtick_17">
     <g id="line2d_45">
      <g>
       <use style="stroke:#000000;stroke-width:0.8;" x="791.177012" xlink:href="#m3b068a802d" y="355.368"/>
      </g>
     </g>
     <g id="text_28">
      <!-- 350 -->
      <g transform="translate(781.633262 369.966437)scale(0.1 -0.1)">
       <use xlink:href="#DejaVuSans-51"/>
       <use x="63.623047" xlink:href="#DejaVuSans-53"/>
       <use x="127.246094" xlink:href="#DejaVuSans-48"/>
      </g>
     </g>
    </g>
    <g id="xtick_18">
     <g id="line2d_46">
      <g>
       <use style="stroke:#000000;stroke-width:0.8;" x="832.519562" xlink:href="#m3b068a802d" y="355.368"/>
      </g>
     </g>
     <g id="text_29">
      <!-- 400 -->
      <g transform="translate(822.975812 369.966437)scale(0.1 -0.1)">
       <defs>
        <path d="M 37.796875 64.3125 
L 12.890625 25.390625 
L 37.796875 25.390625 
z
M 35.203125 72.90625 
L 47.609375 72.90625 
L 47.609375 25.390625 
L 58.015625 25.390625 
L 58.015625 17.1875 
L 47.609375 17.1875 
L 47.609375 0 
L 37.796875 0 
L 37.796875 17.1875 
L 4.890625 17.1875 
L 4.890625 26.703125 
z
" id="DejaVuSans-52"/>
       </defs>
       <use xlink:href="#DejaVuSans-52"/>
       <use x="63.623047" xlink:href="#DejaVuSans-48"/>
       <use x="127.246094" xlink:href="#DejaVuSans-48"/>
      </g>
     </g>
    </g>
   </g>
   <g id="matplotlib.axis_4">
    <g id="ytick_6">
     <g id="line2d_47">
      <g>
       <use style="stroke:#000000;stroke-width:0.8;" x="485.283487" xlink:href="#ma332e5ddc0" y="339.542693"/>
      </g>
     </g>
     <g id="text_30">
      <!-- 0 -->
      <g transform="translate(471.920987 343.341912)scale(0.1 -0.1)">
       <use xlink:href="#DejaVuSans-48"/>
      </g>
     </g>
    </g>
    <g id="ytick_7">
     <g id="line2d_48">
      <g>
       <use style="stroke:#000000;stroke-width:0.8;" x="485.283487" xlink:href="#ma332e5ddc0" y="274.060815"/>
      </g>
     </g>
     <g id="text_31">
      <!-- 5 -->
      <g transform="translate(471.920987 277.860034)scale(0.1 -0.1)">
       <use xlink:href="#DejaVuSans-53"/>
      </g>
     </g>
    </g>
    <g id="ytick_8">
     <g id="line2d_49">
      <g>
       <use style="stroke:#000000;stroke-width:0.8;" x="485.283487" xlink:href="#ma332e5ddc0" y="208.578937"/>
      </g>
     </g>
     <g id="text_32">
      <!-- 10 -->
      <g transform="translate(465.558487 212.378156)scale(0.1 -0.1)">
       <use xlink:href="#DejaVuSans-49"/>
       <use x="63.623047" xlink:href="#DejaVuSans-48"/>
      </g>
     </g>
    </g>
    <g id="ytick_9">
     <g id="line2d_50">
      <g>
       <use style="stroke:#000000;stroke-width:0.8;" x="485.283487" xlink:href="#ma332e5ddc0" y="143.097059"/>
      </g>
     </g>
     <g id="text_33">
      <!-- 15 -->
      <g transform="translate(465.558487 146.896277)scale(0.1 -0.1)">
       <use xlink:href="#DejaVuSans-49"/>
       <use x="63.623047" xlink:href="#DejaVuSans-53"/>
      </g>
     </g>
    </g>
    <g id="ytick_10">
     <g id="line2d_51">
      <g>
       <use style="stroke:#000000;stroke-width:0.8;" x="485.283487" xlink:href="#ma332e5ddc0" y="77.61518"/>
      </g>
     </g>
     <g id="text_34">
      <!-- 20 -->
      <g transform="translate(465.558487 81.414399)scale(0.1 -0.1)">
       <use xlink:href="#DejaVuSans-50"/>
       <use x="63.623047" xlink:href="#DejaVuSans-48"/>
      </g>
     </g>
    </g>
    <g id="ytick_11">
     <g id="line2d_52">
      <g>
       <use style="stroke:#000000;stroke-width:0.8;" x="485.283487" xlink:href="#ma332e5ddc0" y="12.133302"/>
      </g>
     </g>
     <g id="text_35">
      <!-- 25 -->
      <g transform="translate(465.558487 15.932521)scale(0.1 -0.1)">
       <use xlink:href="#DejaVuSans-50"/>
       <use x="63.623047" xlink:href="#DejaVuSans-53"/>
      </g>
     </g>
    </g>
   </g>
   <g id="line2d_53">
    <path clip-path="url(#p2814f55b81)" d="M 501.779164 339.542182 
L 508.512093 339.529804 
L 515.245023 339.517058 
L 521.977952 339.503217 
L 528.710882 339.489075 
L 535.443812 339.474021 
L 542.176741 339.457722 
L 548.909671 339.439774 
L 555.6426 339.419599 
L 562.37553 339.396549 
L 569.108459 339.369377 
L 575.841389 339.3369 
L 582.574318 339.286968 
L 589.307248 339.243651 
L 596.040177 338.960133 
L 602.773107 339.061207 
L 609.506036 336.68141 
L 616.238966 338.409814 
L 622.971896 183.508687 
L 629.704825 336.622073 
L 636.437755 23.025818 
L 643.170684 336.402589 
L 649.903614 182.880811 
L 656.636543 338.084199 
L 663.369473 337.881731 
L 670.102402 338.886302 
L 676.835332 339.028306 
L 683.568261 339.091585 
L 690.301191 339.157745 
L 697.03412 339.191001 
L 703.76705 339.224474 
L 710.499979 339.251087 
L 717.232909 339.273269 
L 723.965839 339.291896 
L 730.698768 339.307857 
L 737.431698 339.321684 
L 744.164627 339.333803 
L 750.897557 339.344518 
L 757.630486 339.353916 
L 764.363416 339.362671 
L 771.096345 339.370375 
L 777.829275 339.377503 
L 784.562204 339.384122 
L 791.295134 339.389889 
L 798.028063 339.395368 
L 804.760993 339.400444 
L 811.493923 339.405167 
L 818.226852 339.409582 
L 824.959782 339.413723 
L 831.692711 339.417624 
" style="fill:none;stroke:#1f77b4;stroke-linecap:square;stroke-width:1.5;"/>
   </g>
   <g id="patch_9">
    <path d="M 485.283487 355.368 
L 485.283487 7.2 
" style="fill:none;stroke:#000000;stroke-linecap:square;stroke-linejoin:miter;stroke-width:0.8;"/>
   </g>
   <g id="patch_10">
    <path d="M 848.188388 355.368 
L 848.188388 7.2 
" style="fill:none;stroke:#000000;stroke-linecap:square;stroke-linejoin:miter;stroke-width:0.8;"/>
   </g>
   <g id="patch_11">
    <path d="M 485.283487 355.368 
L 848.188388 355.368 
" style="fill:none;stroke:#000000;stroke-linecap:square;stroke-linejoin:miter;stroke-width:0.8;"/>
   </g>
   <g id="patch_12">
    <path d="M 485.283487 7.2 
L 848.188388 7.2 
" style="fill:none;stroke:#000000;stroke-linecap:square;stroke-linejoin:miter;stroke-width:0.8;"/>
   </g>
  </g>
  <g id="axes_3">
   <g id="patch_13">
    <path d="M 918.406036 355.368 
L 1281.310938 355.368 
L 1281.310938 7.2 
L 918.406036 7.2 
z
" style="fill:#ffffff;"/>
   </g>
   <g id="matplotlib.axis_5">
    <g id="xtick_19">
     <g id="line2d_54">
      <g>
       <use style="stroke:#000000;stroke-width:0.8;" x="934.901713" xlink:href="#m3b068a802d" y="355.368"/>
      </g>
     </g>
     <g id="text_36">
      <!-- 0 -->
      <g transform="translate(931.720463 369.966437)scale(0.1 -0.1)">
       <use xlink:href="#DejaVuSans-48"/>
      </g>
     </g>
    </g>
    <g id="xtick_20">
     <g id="line2d_55">
      <g>
       <use style="stroke:#000000;stroke-width:0.8;" x="976.244263" xlink:href="#m3b068a802d" y="355.368"/>
      </g>
     </g>
     <g id="text_37">
      <!-- 50 -->
      <g transform="translate(969.881763 369.966437)scale(0.1 -0.1)">
       <use xlink:href="#DejaVuSans-53"/>
       <use x="63.623047" xlink:href="#DejaVuSans-48"/>
      </g>
     </g>
    </g>
    <g id="xtick_21">
     <g id="line2d_56">
      <g>
       <use style="stroke:#000000;stroke-width:0.8;" x="1017.586812" xlink:href="#m3b068a802d" y="355.368"/>
      </g>
     </g>
     <g id="text_38">
      <!-- 100 -->
      <g transform="translate(1008.043062 369.966437)scale(0.1 -0.1)">
       <use xlink:href="#DejaVuSans-49"/>
       <use x="63.623047" xlink:href="#DejaVuSans-48"/>
       <use x="127.246094" xlink:href="#DejaVuSans-48"/>
      </g>
     </g>
    </g>
    <g id="xtick_22">
     <g id="line2d_57">
      <g>
       <use style="stroke:#000000;stroke-width:0.8;" x="1058.929362" xlink:href="#m3b068a802d" y="355.368"/>
      </g>
     </g>
     <g id="text_39">
      <!-- 150 -->
      <g transform="translate(1049.385612 369.966437)scale(0.1 -0.1)">
       <use xlink:href="#DejaVuSans-49"/>
       <use x="63.623047" xlink:href="#DejaVuSans-53"/>
       <use x="127.246094" xlink:href="#DejaVuSans-48"/>
      </g>
     </g>
    </g>
    <g id="xtick_23">
     <g id="line2d_58">
      <g>
       <use style="stroke:#000000;stroke-width:0.8;" x="1100.271912" xlink:href="#m3b068a802d" y="355.368"/>
      </g>
     </g>
     <g id="text_40">
      <!-- 200 -->
      <g transform="translate(1090.728162 369.966437)scale(0.1 -0.1)">
       <use xlink:href="#DejaVuSans-50"/>
       <use x="63.623047" xlink:href="#DejaVuSans-48"/>
       <use x="127.246094" xlink:href="#DejaVuSans-48"/>
      </g>
     </g>
    </g>
    <g id="xtick_24">
     <g id="line2d_59">
      <g>
       <use style="stroke:#000000;stroke-width:0.8;" x="1141.614462" xlink:href="#m3b068a802d" y="355.368"/>
      </g>
     </g>
     <g id="text_41">
      <!-- 250 -->
      <g transform="translate(1132.070712 369.966437)scale(0.1 -0.1)">
       <use xlink:href="#DejaVuSans-50"/>
       <use x="63.623047" xlink:href="#DejaVuSans-53"/>
       <use x="127.246094" xlink:href="#DejaVuSans-48"/>
      </g>
     </g>
    </g>
    <g id="xtick_25">
     <g id="line2d_60">
      <g>
       <use style="stroke:#000000;stroke-width:0.8;" x="1182.957012" xlink:href="#m3b068a802d" y="355.368"/>
      </g>
     </g>
     <g id="text_42">
      <!-- 300 -->
      <g transform="translate(1173.413262 369.966437)scale(0.1 -0.1)">
       <use xlink:href="#DejaVuSans-51"/>
       <use x="63.623047" xlink:href="#DejaVuSans-48"/>
       <use x="127.246094" xlink:href="#DejaVuSans-48"/>
      </g>
     </g>
    </g>
    <g id="xtick_26">
     <g id="line2d_61">
      <g>
       <use style="stroke:#000000;stroke-width:0.8;" x="1224.299561" xlink:href="#m3b068a802d" y="355.368"/>
      </g>
     </g>
     <g id="text_43">
      <!-- 350 -->
      <g transform="translate(1214.755811 369.966437)scale(0.1 -0.1)">
       <use xlink:href="#DejaVuSans-51"/>
       <use x="63.623047" xlink:href="#DejaVuSans-53"/>
       <use x="127.246094" xlink:href="#DejaVuSans-48"/>
      </g>
     </g>
    </g>
    <g id="xtick_27">
     <g id="line2d_62">
      <g>
       <use style="stroke:#000000;stroke-width:0.8;" x="1265.642111" xlink:href="#m3b068a802d" y="355.368"/>
      </g>
     </g>
     <g id="text_44">
      <!-- 400 -->
      <g transform="translate(1256.098361 369.966437)scale(0.1 -0.1)">
       <use xlink:href="#DejaVuSans-52"/>
       <use x="63.623047" xlink:href="#DejaVuSans-48"/>
       <use x="127.246094" xlink:href="#DejaVuSans-48"/>
      </g>
     </g>
    </g>
   </g>
   <g id="matplotlib.axis_6">
    <g id="ytick_12">
     <g id="line2d_63">
      <g>
       <use style="stroke:#000000;stroke-width:0.8;" x="918.406036" xlink:href="#ma332e5ddc0" y="339.542182"/>
      </g>
     </g>
     <g id="text_45">
      <!-- 0 -->
      <g transform="translate(905.043536 343.341401)scale(0.1 -0.1)">
       <use xlink:href="#DejaVuSans-48"/>
      </g>
     </g>
    </g>
    <g id="ytick_13">
     <g id="line2d_64">
      <g>
       <use style="stroke:#000000;stroke-width:0.8;" x="918.406036" xlink:href="#ma332e5ddc0" y="288.246315"/>
      </g>
     </g>
     <g id="text_46">
      <!-- 1 -->
      <g transform="translate(905.043536 292.045534)scale(0.1 -0.1)">
       <use xlink:href="#DejaVuSans-49"/>
      </g>
     </g>
    </g>
    <g id="ytick_14">
     <g id="line2d_65">
      <g>
       <use style="stroke:#000000;stroke-width:0.8;" x="918.406036" xlink:href="#ma332e5ddc0" y="236.950448"/>
      </g>
     </g>
     <g id="text_47">
      <!-- 2 -->
      <g transform="translate(905.043536 240.749667)scale(0.1 -0.1)">
       <use xlink:href="#DejaVuSans-50"/>
      </g>
     </g>
    </g>
    <g id="ytick_15">
     <g id="line2d_66">
      <g>
       <use style="stroke:#000000;stroke-width:0.8;" x="918.406036" xlink:href="#ma332e5ddc0" y="185.654582"/>
      </g>
     </g>
     <g id="text_48">
      <!-- 3 -->
      <g transform="translate(905.043536 189.4538)scale(0.1 -0.1)">
       <use xlink:href="#DejaVuSans-51"/>
      </g>
     </g>
    </g>
    <g id="ytick_16">
     <g id="line2d_67">
      <g>
       <use style="stroke:#000000;stroke-width:0.8;" x="918.406036" xlink:href="#ma332e5ddc0" y="134.358715"/>
      </g>
     </g>
     <g id="text_49">
      <!-- 4 -->
      <g transform="translate(905.043536 138.157933)scale(0.1 -0.1)">
       <use xlink:href="#DejaVuSans-52"/>
      </g>
     </g>
    </g>
    <g id="ytick_17">
     <g id="line2d_68">
      <g>
       <use style="stroke:#000000;stroke-width:0.8;" x="918.406036" xlink:href="#ma332e5ddc0" y="83.062848"/>
      </g>
     </g>
     <g id="text_50">
      <!-- 5 -->
      <g transform="translate(905.043536 86.862067)scale(0.1 -0.1)">
       <use xlink:href="#DejaVuSans-53"/>
      </g>
     </g>
    </g>
    <g id="ytick_18">
     <g id="line2d_69">
      <g>
       <use style="stroke:#000000;stroke-width:0.8;" x="918.406036" xlink:href="#ma332e5ddc0" y="31.766981"/>
      </g>
     </g>
     <g id="text_51">
      <!-- 6 -->
      <g transform="translate(905.043536 35.5662)scale(0.1 -0.1)">
       <defs>
        <path d="M 33.015625 40.375 
Q 26.375 40.375 22.484375 35.828125 
Q 18.609375 31.296875 18.609375 23.390625 
Q 18.609375 15.53125 22.484375 10.953125 
Q 26.375 6.390625 33.015625 6.390625 
Q 39.65625 6.390625 43.53125 10.953125 
Q 47.40625 15.53125 47.40625 23.390625 
Q 47.40625 31.296875 43.53125 35.828125 
Q 39.65625 40.375 33.015625 40.375 
z
M 52.59375 71.296875 
L 52.59375 62.3125 
Q 48.875 64.0625 45.09375 64.984375 
Q 41.3125 65.921875 37.59375 65.921875 
Q 27.828125 65.921875 22.671875 59.328125 
Q 17.53125 52.734375 16.796875 39.40625 
Q 19.671875 43.65625 24.015625 45.921875 
Q 28.375 48.1875 33.59375 48.1875 
Q 44.578125 48.1875 50.953125 41.515625 
Q 57.328125 34.859375 57.328125 23.390625 
Q 57.328125 12.15625 50.6875 5.359375 
Q 44.046875 -1.421875 33.015625 -1.421875 
Q 20.359375 -1.421875 13.671875 8.265625 
Q 6.984375 17.96875 6.984375 36.375 
Q 6.984375 53.65625 15.1875 63.9375 
Q 23.390625 74.21875 37.203125 74.21875 
Q 40.921875 74.21875 44.703125 73.484375 
Q 48.484375 72.75 52.59375 71.296875 
z
" id="DejaVuSans-54"/>
       </defs>
       <use xlink:href="#DejaVuSans-54"/>
      </g>
     </g>
    </g>
   </g>
   <g id="line2d_70">
    <path clip-path="url(#p565d77ec13)" d="M 934.901713 339.542182 
L 941.634642 339.539989 
L 948.367572 339.533162 
L 955.100502 339.519499 
L 961.833431 339.494527 
L 968.566361 339.445567 
L 975.29929 339.349966 
L 982.03222 338.343069 
L 988.765149 338.228624 
L 995.498079 25.568137 
L 1002.231008 334.487223 
L 1008.963938 23.025818 
L 1015.696867 337.522547 
L 1022.429797 339.504093 
L 1029.162726 339.074045 
L 1035.895656 339.236433 
L 1042.628585 339.320632 
L 1049.361515 339.373254 
L 1056.094445 339.408071 
L 1062.827374 339.43251 
L 1069.560304 339.450372 
L 1076.293233 339.463885 
L 1083.026163 339.474413 
L 1089.759092 339.482721 
L 1096.492022 339.489358 
L 1103.224951 339.494624 
L 1109.957881 339.498594 
L 1116.69081 339.499314 
L 1123.42374 339.497939 
L 1130.156669 338.824113 
L 1136.889599 339.537506 
L 1143.622529 338.865167 
L 1150.355458 339.505517 
L 1157.088388 339.516363 
L 1163.821317 339.518472 
L 1170.554247 339.520818 
L 1177.287176 339.522571 
L 1184.020106 339.524007 
L 1190.753035 339.525233 
L 1197.485965 339.526307 
L 1204.218894 339.527262 
L 1210.951824 339.52812 
L 1217.684753 339.528897 
L 1224.417683 339.529606 
L 1231.150612 339.530254 
L 1237.883542 339.530849 
L 1244.616472 339.531396 
L 1251.349401 339.531898 
L 1258.082331 339.53235 
L 1264.81526 339.531489 
" style="fill:none;stroke:#1f77b4;stroke-linecap:square;stroke-width:1.5;"/>
   </g>
   <g id="patch_14">
    <path d="M 918.406036 355.368 
L 918.406036 7.2 
" style="fill:none;stroke:#000000;stroke-linecap:square;stroke-linejoin:miter;stroke-width:0.8;"/>
   </g>
   <g id="patch_15">
    <path d="M 1281.310938 355.368 
L 1281.310938 7.2 
" style="fill:none;stroke:#000000;stroke-linecap:square;stroke-linejoin:miter;stroke-width:0.8;"/>
   </g>
   <g id="patch_16">
    <path d="M 918.406036 355.368 
L 1281.310938 355.368 
" style="fill:none;stroke:#000000;stroke-linecap:square;stroke-linejoin:miter;stroke-width:0.8;"/>
   </g>
   <g id="patch_17">
    <path d="M 918.406036 7.2 
L 1281.310938 7.2 
" style="fill:none;stroke:#000000;stroke-linecap:square;stroke-linejoin:miter;stroke-width:0.8;"/>
   </g>
  </g>
 </g>
 <defs>
  <clipPath id="pc7960d1f6a">
   <rect height="348.168" width="362.904902" x="52.160938" y="7.2"/>
  </clipPath>
  <clipPath id="p2814f55b81">
   <rect height="348.168" width="362.904902" x="485.283487" y="7.2"/>
  </clipPath>
  <clipPath id="p565d77ec13">
   <rect height="348.168" width="362.904902" x="918.406036" y="7.2"/>
  </clipPath>
 </defs>
</svg>
