<?xml version="1.0" encoding="utf-8" standalone="no"?>
<!DOCTYPE svg PUBLIC "-//W3C//DTD SVG 1.1//EN"
  "http://www.w3.org/Graphics/SVG/1.1/DTD/svg11.dtd">
<!-- Created with matplotlib (https://matplotlib.org/) -->
<svg height="404.658447pt" version="1.1" viewBox="0 0 1078.870418 404.658447" width="1078.870418pt" xmlns="http://www.w3.org/2000/svg" xmlns:xlink="http://www.w3.org/1999/xlink">
 <metadata>
  <rdf:RDF xmlns:cc="http://creativecommons.org/ns#" xmlns:dc="http://purl.org/dc/elements/1.1/" xmlns:rdf="http://www.w3.org/1999/02/22-rdf-syntax-ns#">
   <cc:Work>
    <dc:type rdf:resource="http://purl.org/dc/dcmitype/StillImage"/>
    <dc:date>2020-09-05T11:16:33.512511</dc:date>
    <dc:format>image/svg+xml</dc:format>
    <dc:creator>
     <cc:Agent>
      <dc:title>Matplotlib v3.3.0, https://matplotlib.org/</dc:title>
     </cc:Agent>
    </dc:creator>
   </cc:Work>
  </rdf:RDF>
 </metadata>
 <defs>
  <style type="text/css">*{stroke-linecap:butt;stroke-linejoin:round;}</style>
 </defs>
 <g id="figure_1">
  <g id="patch_1">
   <path d="M 0 404.658447 
L 1078.870418 404.658447 
L 1078.870418 0 
L 0 0 
z
" style="fill:none;"/>
  </g>
  <g id="axes_1">
   <g id="patch_2">
    <path d="M 64.885938 335.397072 
L 360.297702 335.397072 
L 360.297702 9.237072 
L 64.885938 9.237072 
z
" style="fill:#ffffff;"/>
   </g>
   <g id="matplotlib.axis_1">
    <g id="xtick_1">
     <g id="line2d_1">
      <path clip-path="url(#p2ffddf95ae)" d="M 78.313745 335.397072 
L 78.313745 9.237072 
" style="fill:none;stroke:#b0b0b0;stroke-linecap:square;stroke-width:0.8;"/>
     </g>
     <g id="line2d_2">
      <defs>
       <path d="M 0 0 
L 0 3.5 
" id="m08c6da96f9" style="stroke:#000000;stroke-width:0.8;"/>
      </defs>
      <g>
       <use style="stroke:#000000;stroke-width:0.8;" x="78.313745" xlink:href="#m08c6da96f9" y="335.397072"/>
      </g>
     </g>
     <g id="text_1">
      <!-- 0.0 -->
      <g transform="translate(70.362182 349.995509)scale(0.1 -0.1)">
       <defs>
        <path d="M 31.78125 66.40625 
Q 24.171875 66.40625 20.328125 58.90625 
Q 16.5 51.421875 16.5 36.375 
Q 16.5 21.390625 20.328125 13.890625 
Q 24.171875 6.390625 31.78125 6.390625 
Q 39.453125 6.390625 43.28125 13.890625 
Q 47.125 21.390625 47.125 36.375 
Q 47.125 51.421875 43.28125 58.90625 
Q 39.453125 66.40625 31.78125 66.40625 
z
M 31.78125 74.21875 
Q 44.046875 74.21875 50.515625 64.515625 
Q 56.984375 54.828125 56.984375 36.375 
Q 56.984375 17.96875 50.515625 8.265625 
Q 44.046875 -1.421875 31.78125 -1.421875 
Q 19.53125 -1.421875 13.0625 8.265625 
Q 6.59375 17.96875 6.59375 36.375 
Q 6.59375 54.828125 13.0625 64.515625 
Q 19.53125 74.21875 31.78125 74.21875 
z
" id="DejaVuSans-48"/>
        <path d="M 10.6875 12.40625 
L 21 12.40625 
L 21 0 
L 10.6875 0 
z
" id="DejaVuSans-46"/>
       </defs>
       <use xlink:href="#DejaVuSans-48"/>
       <use x="63.623047" xlink:href="#DejaVuSans-46"/>
       <use x="95.410156" xlink:href="#DejaVuSans-48"/>
      </g>
     </g>
    </g>
    <g id="xtick_2">
     <g id="line2d_3">
      <path clip-path="url(#p2ffddf95ae)" d="M 111.883264 335.397072 
L 111.883264 9.237072 
" style="fill:none;stroke:#b0b0b0;stroke-linecap:square;stroke-width:0.8;"/>
     </g>
     <g id="line2d_4">
      <g>
       <use style="stroke:#000000;stroke-width:0.8;" x="111.883264" xlink:href="#m08c6da96f9" y="335.397072"/>
      </g>
     </g>
     <g id="text_2">
      <!-- 2.5 -->
      <g transform="translate(103.931701 349.995509)scale(0.1 -0.1)">
       <defs>
        <path d="M 19.1875 8.296875 
L 53.609375 8.296875 
L 53.609375 0 
L 7.328125 0 
L 7.328125 8.296875 
Q 12.9375 14.109375 22.625 23.890625 
Q 32.328125 33.6875 34.8125 36.53125 
Q 39.546875 41.84375 41.421875 45.53125 
Q 43.3125 49.21875 43.3125 52.78125 
Q 43.3125 58.59375 39.234375 62.25 
Q 35.15625 65.921875 28.609375 65.921875 
Q 23.96875 65.921875 18.8125 64.3125 
Q 13.671875 62.703125 7.8125 59.421875 
L 7.8125 69.390625 
Q 13.765625 71.78125 18.9375 73 
Q 24.125 74.21875 28.421875 74.21875 
Q 39.75 74.21875 46.484375 68.546875 
Q 53.21875 62.890625 53.21875 53.421875 
Q 53.21875 48.921875 51.53125 44.890625 
Q 49.859375 40.875 45.40625 35.40625 
Q 44.1875 33.984375 37.640625 27.21875 
Q 31.109375 20.453125 19.1875 8.296875 
z
" id="DejaVuSans-50"/>
        <path d="M 10.796875 72.90625 
L 49.515625 72.90625 
L 49.515625 64.59375 
L 19.828125 64.59375 
L 19.828125 46.734375 
Q 21.96875 47.46875 24.109375 47.828125 
Q 26.265625 48.1875 28.421875 48.1875 
Q 40.625 48.1875 47.75 41.5 
Q 54.890625 34.8125 54.890625 23.390625 
Q 54.890625 11.625 47.5625 5.09375 
Q 40.234375 -1.421875 26.90625 -1.421875 
Q 22.3125 -1.421875 17.546875 -0.640625 
Q 12.796875 0.140625 7.71875 1.703125 
L 7.71875 11.625 
Q 12.109375 9.234375 16.796875 8.0625 
Q 21.484375 6.890625 26.703125 6.890625 
Q 35.15625 6.890625 40.078125 11.328125 
Q 45.015625 15.765625 45.015625 23.390625 
Q 45.015625 31 40.078125 35.4375 
Q 35.15625 39.890625 26.703125 39.890625 
Q 22.75 39.890625 18.8125 39.015625 
Q 14.890625 38.140625 10.796875 36.28125 
z
" id="DejaVuSans-53"/>
       </defs>
       <use xlink:href="#DejaVuSans-50"/>
       <use x="63.623047" xlink:href="#DejaVuSans-46"/>
       <use x="95.410156" xlink:href="#DejaVuSans-53"/>
      </g>
     </g>
    </g>
    <g id="xtick_3">
     <g id="line2d_5">
      <path clip-path="url(#p2ffddf95ae)" d="M 145.452782 335.397072 
L 145.452782 9.237072 
" style="fill:none;stroke:#b0b0b0;stroke-linecap:square;stroke-width:0.8;"/>
     </g>
     <g id="line2d_6">
      <g>
       <use style="stroke:#000000;stroke-width:0.8;" x="145.452782" xlink:href="#m08c6da96f9" y="335.397072"/>
      </g>
     </g>
     <g id="text_3">
      <!-- 5.0 -->
      <g transform="translate(137.50122 349.995509)scale(0.1 -0.1)">
       <use xlink:href="#DejaVuSans-53"/>
       <use x="63.623047" xlink:href="#DejaVuSans-46"/>
       <use x="95.410156" xlink:href="#DejaVuSans-48"/>
      </g>
     </g>
    </g>
    <g id="xtick_4">
     <g id="line2d_7">
      <path clip-path="url(#p2ffddf95ae)" d="M 179.022301 335.397072 
L 179.022301 9.237072 
" style="fill:none;stroke:#b0b0b0;stroke-linecap:square;stroke-width:0.8;"/>
     </g>
     <g id="line2d_8">
      <g>
       <use style="stroke:#000000;stroke-width:0.8;" x="179.022301" xlink:href="#m08c6da96f9" y="335.397072"/>
      </g>
     </g>
     <g id="text_4">
      <!-- 7.5 -->
      <g transform="translate(171.070739 349.995509)scale(0.1 -0.1)">
       <defs>
        <path d="M 8.203125 72.90625 
L 55.078125 72.90625 
L 55.078125 68.703125 
L 28.609375 0 
L 18.3125 0 
L 43.21875 64.59375 
L 8.203125 64.59375 
z
" id="DejaVuSans-55"/>
       </defs>
       <use xlink:href="#DejaVuSans-55"/>
       <use x="63.623047" xlink:href="#DejaVuSans-46"/>
       <use x="95.410156" xlink:href="#DejaVuSans-53"/>
      </g>
     </g>
    </g>
    <g id="xtick_5">
     <g id="line2d_9">
      <path clip-path="url(#p2ffddf95ae)" d="M 212.59182 335.397072 
L 212.59182 9.237072 
" style="fill:none;stroke:#b0b0b0;stroke-linecap:square;stroke-width:0.8;"/>
     </g>
     <g id="line2d_10">
      <g>
       <use style="stroke:#000000;stroke-width:0.8;" x="212.59182" xlink:href="#m08c6da96f9" y="335.397072"/>
      </g>
     </g>
     <g id="text_5">
      <!-- 10.0 -->
      <g transform="translate(201.459007 349.995509)scale(0.1 -0.1)">
       <defs>
        <path d="M 12.40625 8.296875 
L 28.515625 8.296875 
L 28.515625 63.921875 
L 10.984375 60.40625 
L 10.984375 69.390625 
L 28.421875 72.90625 
L 38.28125 72.90625 
L 38.28125 8.296875 
L 54.390625 8.296875 
L 54.390625 0 
L 12.40625 0 
z
" id="DejaVuSans-49"/>
       </defs>
       <use xlink:href="#DejaVuSans-49"/>
       <use x="63.623047" xlink:href="#DejaVuSans-48"/>
       <use x="127.246094" xlink:href="#DejaVuSans-46"/>
       <use x="159.033203" xlink:href="#DejaVuSans-48"/>
      </g>
     </g>
    </g>
    <g id="xtick_6">
     <g id="line2d_11">
      <path clip-path="url(#p2ffddf95ae)" d="M 246.161339 335.397072 
L 246.161339 9.237072 
" style="fill:none;stroke:#b0b0b0;stroke-linecap:square;stroke-width:0.8;"/>
     </g>
     <g id="line2d_12">
      <g>
       <use style="stroke:#000000;stroke-width:0.8;" x="246.161339" xlink:href="#m08c6da96f9" y="335.397072"/>
      </g>
     </g>
     <g id="text_6">
      <!-- 12.5 -->
      <g transform="translate(235.028526 349.995509)scale(0.1 -0.1)">
       <use xlink:href="#DejaVuSans-49"/>
       <use x="63.623047" xlink:href="#DejaVuSans-50"/>
       <use x="127.246094" xlink:href="#DejaVuSans-46"/>
       <use x="159.033203" xlink:href="#DejaVuSans-53"/>
      </g>
     </g>
    </g>
    <g id="xtick_7">
     <g id="line2d_13">
      <path clip-path="url(#p2ffddf95ae)" d="M 279.730857 335.397072 
L 279.730857 9.237072 
" style="fill:none;stroke:#b0b0b0;stroke-linecap:square;stroke-width:0.8;"/>
     </g>
     <g id="line2d_14">
      <g>
       <use style="stroke:#000000;stroke-width:0.8;" x="279.730857" xlink:href="#m08c6da96f9" y="335.397072"/>
      </g>
     </g>
     <g id="text_7">
      <!-- 15.0 -->
      <g transform="translate(268.598045 349.995509)scale(0.1 -0.1)">
       <use xlink:href="#DejaVuSans-49"/>
       <use x="63.623047" xlink:href="#DejaVuSans-53"/>
       <use x="127.246094" xlink:href="#DejaVuSans-46"/>
       <use x="159.033203" xlink:href="#DejaVuSans-48"/>
      </g>
     </g>
    </g>
    <g id="xtick_8">
     <g id="line2d_15">
      <path clip-path="url(#p2ffddf95ae)" d="M 313.300376 335.397072 
L 313.300376 9.237072 
" style="fill:none;stroke:#b0b0b0;stroke-linecap:square;stroke-width:0.8;"/>
     </g>
     <g id="line2d_16">
      <g>
       <use style="stroke:#000000;stroke-width:0.8;" x="313.300376" xlink:href="#m08c6da96f9" y="335.397072"/>
      </g>
     </g>
     <g id="text_8">
      <!-- 17.5 -->
      <g transform="translate(302.167564 349.995509)scale(0.1 -0.1)">
       <use xlink:href="#DejaVuSans-49"/>
       <use x="63.623047" xlink:href="#DejaVuSans-55"/>
       <use x="127.246094" xlink:href="#DejaVuSans-46"/>
       <use x="159.033203" xlink:href="#DejaVuSans-53"/>
      </g>
     </g>
    </g>
    <g id="xtick_9">
     <g id="line2d_17">
      <path clip-path="url(#p2ffddf95ae)" d="M 346.869895 335.397072 
L 346.869895 9.237072 
" style="fill:none;stroke:#b0b0b0;stroke-linecap:square;stroke-width:0.8;"/>
     </g>
     <g id="line2d_18">
      <g>
       <use style="stroke:#000000;stroke-width:0.8;" x="346.869895" xlink:href="#m08c6da96f9" y="335.397072"/>
      </g>
     </g>
     <g id="text_9">
      <!-- 20.0 -->
      <g transform="translate(335.737082 349.995509)scale(0.1 -0.1)">
       <use xlink:href="#DejaVuSans-50"/>
       <use x="63.623047" xlink:href="#DejaVuSans-48"/>
       <use x="127.246094" xlink:href="#DejaVuSans-46"/>
       <use x="159.033203" xlink:href="#DejaVuSans-48"/>
      </g>
     </g>
    </g>
    <g id="text_10">
     <!-- t [s] -->
     <g transform="translate(202.536351 363.673634)scale(0.1 -0.1)">
      <defs>
       <path d="M 18.3125 70.21875 
L 18.3125 54.6875 
L 36.8125 54.6875 
L 36.8125 47.703125 
L 18.3125 47.703125 
L 18.3125 18.015625 
Q 18.3125 11.328125 20.140625 9.421875 
Q 21.96875 7.515625 27.59375 7.515625 
L 36.8125 7.515625 
L 36.8125 0 
L 27.59375 0 
Q 17.1875 0 13.234375 3.875 
Q 9.28125 7.765625 9.28125 18.015625 
L 9.28125 47.703125 
L 2.6875 47.703125 
L 2.6875 54.6875 
L 9.28125 54.6875 
L 9.28125 70.21875 
z
" id="DejaVuSans-116"/>
       <path id="DejaVuSans-32"/>
       <path d="M 8.59375 75.984375 
L 29.296875 75.984375 
L 29.296875 69 
L 17.578125 69 
L 17.578125 -6.203125 
L 29.296875 -6.203125 
L 29.296875 -13.1875 
L 8.59375 -13.1875 
z
" id="DejaVuSans-91"/>
       <path d="M 44.28125 53.078125 
L 44.28125 44.578125 
Q 40.484375 46.53125 36.375 47.5 
Q 32.28125 48.484375 27.875 48.484375 
Q 21.1875 48.484375 17.84375 46.4375 
Q 14.5 44.390625 14.5 40.28125 
Q 14.5 37.15625 16.890625 35.375 
Q 19.28125 33.59375 26.515625 31.984375 
L 29.59375 31.296875 
Q 39.15625 29.25 43.1875 25.515625 
Q 47.21875 21.78125 47.21875 15.09375 
Q 47.21875 7.46875 41.1875 3.015625 
Q 35.15625 -1.421875 24.609375 -1.421875 
Q 20.21875 -1.421875 15.453125 -0.5625 
Q 10.6875 0.296875 5.421875 2 
L 5.421875 11.28125 
Q 10.40625 8.6875 15.234375 7.390625 
Q 20.0625 6.109375 24.8125 6.109375 
Q 31.15625 6.109375 34.5625 8.28125 
Q 37.984375 10.453125 37.984375 14.40625 
Q 37.984375 18.0625 35.515625 20.015625 
Q 33.0625 21.96875 24.703125 23.78125 
L 21.578125 24.515625 
Q 13.234375 26.265625 9.515625 29.90625 
Q 5.8125 33.546875 5.8125 39.890625 
Q 5.8125 47.609375 11.28125 51.796875 
Q 16.75 56 26.8125 56 
Q 31.78125 56 36.171875 55.265625 
Q 40.578125 54.546875 44.28125 53.078125 
z
" id="DejaVuSans-115"/>
       <path d="M 30.421875 75.984375 
L 30.421875 -13.1875 
L 9.71875 -13.1875 
L 9.71875 -6.203125 
L 21.390625 -6.203125 
L 21.390625 69 
L 9.71875 69 
L 9.71875 75.984375 
z
" id="DejaVuSans-93"/>
      </defs>
      <use xlink:href="#DejaVuSans-116"/>
      <use x="39.208984" xlink:href="#DejaVuSans-32"/>
      <use x="70.996094" xlink:href="#DejaVuSans-91"/>
      <use x="110.009766" xlink:href="#DejaVuSans-115"/>
      <use x="162.109375" xlink:href="#DejaVuSans-93"/>
     </g>
    </g>
   </g>
   <g id="matplotlib.axis_2">
    <g id="ytick_1">
     <g id="line2d_19">
      <path clip-path="url(#p2ffddf95ae)" d="M 64.885938 332.945829 
L 360.297702 332.945829 
" style="fill:none;stroke:#b0b0b0;stroke-linecap:square;stroke-width:0.8;"/>
     </g>
     <g id="line2d_20">
      <defs>
       <path d="M 0 0 
L -3.5 0 
" id="m50aefca1c3" style="stroke:#000000;stroke-width:0.8;"/>
      </defs>
      <g>
       <use style="stroke:#000000;stroke-width:0.8;" x="64.885938" xlink:href="#m50aefca1c3" y="332.945829"/>
      </g>
     </g>
     <g id="text_11">
      <!-- −0.008 -->
      <g transform="translate(20.878125 336.745047)scale(0.1 -0.1)">
       <defs>
        <path d="M 10.59375 35.5 
L 73.1875 35.5 
L 73.1875 27.203125 
L 10.59375 27.203125 
z
" id="DejaVuSans-8722"/>
        <path d="M 31.78125 34.625 
Q 24.75 34.625 20.71875 30.859375 
Q 16.703125 27.09375 16.703125 20.515625 
Q 16.703125 13.921875 20.71875 10.15625 
Q 24.75 6.390625 31.78125 6.390625 
Q 38.8125 6.390625 42.859375 10.171875 
Q 46.921875 13.96875 46.921875 20.515625 
Q 46.921875 27.09375 42.890625 30.859375 
Q 38.875 34.625 31.78125 34.625 
z
M 21.921875 38.8125 
Q 15.578125 40.375 12.03125 44.71875 
Q 8.5 49.078125 8.5 55.328125 
Q 8.5 64.0625 14.71875 69.140625 
Q 20.953125 74.21875 31.78125 74.21875 
Q 42.671875 74.21875 48.875 69.140625 
Q 55.078125 64.0625 55.078125 55.328125 
Q 55.078125 49.078125 51.53125 44.71875 
Q 48 40.375 41.703125 38.8125 
Q 48.828125 37.15625 52.796875 32.3125 
Q 56.78125 27.484375 56.78125 20.515625 
Q 56.78125 9.90625 50.3125 4.234375 
Q 43.84375 -1.421875 31.78125 -1.421875 
Q 19.734375 -1.421875 13.25 4.234375 
Q 6.78125 9.90625 6.78125 20.515625 
Q 6.78125 27.484375 10.78125 32.3125 
Q 14.796875 37.15625 21.921875 38.8125 
z
M 18.3125 54.390625 
Q 18.3125 48.734375 21.84375 45.5625 
Q 25.390625 42.390625 31.78125 42.390625 
Q 38.140625 42.390625 41.71875 45.5625 
Q 45.3125 48.734375 45.3125 54.390625 
Q 45.3125 60.0625 41.71875 63.234375 
Q 38.140625 66.40625 31.78125 66.40625 
Q 25.390625 66.40625 21.84375 63.234375 
Q 18.3125 60.0625 18.3125 54.390625 
z
" id="DejaVuSans-56"/>
       </defs>
       <use xlink:href="#DejaVuSans-8722"/>
       <use x="83.789062" xlink:href="#DejaVuSans-48"/>
       <use x="147.412109" xlink:href="#DejaVuSans-46"/>
       <use x="179.199219" xlink:href="#DejaVuSans-48"/>
       <use x="242.822266" xlink:href="#DejaVuSans-48"/>
       <use x="306.445312" xlink:href="#DejaVuSans-56"/>
      </g>
     </g>
    </g>
    <g id="ytick_2">
     <g id="line2d_21">
      <path clip-path="url(#p2ffddf95ae)" d="M 64.885938 292.702502 
L 360.297702 292.702502 
" style="fill:none;stroke:#b0b0b0;stroke-linecap:square;stroke-width:0.8;"/>
     </g>
     <g id="line2d_22">
      <g>
       <use style="stroke:#000000;stroke-width:0.8;" x="64.885938" xlink:href="#m50aefca1c3" y="292.702502"/>
      </g>
     </g>
     <g id="text_12">
      <!-- −0.006 -->
      <g transform="translate(20.878125 296.501721)scale(0.1 -0.1)">
       <defs>
        <path d="M 33.015625 40.375 
Q 26.375 40.375 22.484375 35.828125 
Q 18.609375 31.296875 18.609375 23.390625 
Q 18.609375 15.53125 22.484375 10.953125 
Q 26.375 6.390625 33.015625 6.390625 
Q 39.65625 6.390625 43.53125 10.953125 
Q 47.40625 15.53125 47.40625 23.390625 
Q 47.40625 31.296875 43.53125 35.828125 
Q 39.65625 40.375 33.015625 40.375 
z
M 52.59375 71.296875 
L 52.59375 62.3125 
Q 48.875 64.0625 45.09375 64.984375 
Q 41.3125 65.921875 37.59375 65.921875 
Q 27.828125 65.921875 22.671875 59.328125 
Q 17.53125 52.734375 16.796875 39.40625 
Q 19.671875 43.65625 24.015625 45.921875 
Q 28.375 48.1875 33.59375 48.1875 
Q 44.578125 48.1875 50.953125 41.515625 
Q 57.328125 34.859375 57.328125 23.390625 
Q 57.328125 12.15625 50.6875 5.359375 
Q 44.046875 -1.421875 33.015625 -1.421875 
Q 20.359375 -1.421875 13.671875 8.265625 
Q 6.984375 17.96875 6.984375 36.375 
Q 6.984375 53.65625 15.1875 63.9375 
Q 23.390625 74.21875 37.203125 74.21875 
Q 40.921875 74.21875 44.703125 73.484375 
Q 48.484375 72.75 52.59375 71.296875 
z
" id="DejaVuSans-54"/>
       </defs>
       <use xlink:href="#DejaVuSans-8722"/>
       <use x="83.789062" xlink:href="#DejaVuSans-48"/>
       <use x="147.412109" xlink:href="#DejaVuSans-46"/>
       <use x="179.199219" xlink:href="#DejaVuSans-48"/>
       <use x="242.822266" xlink:href="#DejaVuSans-48"/>
       <use x="306.445312" xlink:href="#DejaVuSans-54"/>
      </g>
     </g>
    </g>
    <g id="ytick_3">
     <g id="line2d_23">
      <path clip-path="url(#p2ffddf95ae)" d="M 64.885938 252.459176 
L 360.297702 252.459176 
" style="fill:none;stroke:#b0b0b0;stroke-linecap:square;stroke-width:0.8;"/>
     </g>
     <g id="line2d_24">
      <g>
       <use style="stroke:#000000;stroke-width:0.8;" x="64.885938" xlink:href="#m50aefca1c3" y="252.459176"/>
      </g>
     </g>
     <g id="text_13">
      <!-- −0.004 -->
      <g transform="translate(20.878125 256.258395)scale(0.1 -0.1)">
       <defs>
        <path d="M 37.796875 64.3125 
L 12.890625 25.390625 
L 37.796875 25.390625 
z
M 35.203125 72.90625 
L 47.609375 72.90625 
L 47.609375 25.390625 
L 58.015625 25.390625 
L 58.015625 17.1875 
L 47.609375 17.1875 
L 47.609375 0 
L 37.796875 0 
L 37.796875 17.1875 
L 4.890625 17.1875 
L 4.890625 26.703125 
z
" id="DejaVuSans-52"/>
       </defs>
       <use xlink:href="#DejaVuSans-8722"/>
       <use x="83.789062" xlink:href="#DejaVuSans-48"/>
       <use x="147.412109" xlink:href="#DejaVuSans-46"/>
       <use x="179.199219" xlink:href="#DejaVuSans-48"/>
       <use x="242.822266" xlink:href="#DejaVuSans-48"/>
       <use x="306.445312" xlink:href="#DejaVuSans-52"/>
      </g>
     </g>
    </g>
    <g id="ytick_4">
     <g id="line2d_25">
      <path clip-path="url(#p2ffddf95ae)" d="M 64.885938 212.21585 
L 360.297702 212.21585 
" style="fill:none;stroke:#b0b0b0;stroke-linecap:square;stroke-width:0.8;"/>
     </g>
     <g id="line2d_26">
      <g>
       <use style="stroke:#000000;stroke-width:0.8;" x="64.885938" xlink:href="#m50aefca1c3" y="212.21585"/>
      </g>
     </g>
     <g id="text_14">
      <!-- −0.002 -->
      <g transform="translate(20.878125 216.015069)scale(0.1 -0.1)">
       <use xlink:href="#DejaVuSans-8722"/>
       <use x="83.789062" xlink:href="#DejaVuSans-48"/>
       <use x="147.412109" xlink:href="#DejaVuSans-46"/>
       <use x="179.199219" xlink:href="#DejaVuSans-48"/>
       <use x="242.822266" xlink:href="#DejaVuSans-48"/>
       <use x="306.445312" xlink:href="#DejaVuSans-50"/>
      </g>
     </g>
    </g>
    <g id="ytick_5">
     <g id="line2d_27">
      <path clip-path="url(#p2ffddf95ae)" d="M 64.885938 171.972524 
L 360.297702 171.972524 
" style="fill:none;stroke:#b0b0b0;stroke-linecap:square;stroke-width:0.8;"/>
     </g>
     <g id="line2d_28">
      <g>
       <use style="stroke:#000000;stroke-width:0.8;" x="64.885938" xlink:href="#m50aefca1c3" y="171.972524"/>
      </g>
     </g>
     <g id="text_15">
      <!-- 0.000 -->
      <g transform="translate(29.257813 175.771742)scale(0.1 -0.1)">
       <use xlink:href="#DejaVuSans-48"/>
       <use x="63.623047" xlink:href="#DejaVuSans-46"/>
       <use x="95.410156" xlink:href="#DejaVuSans-48"/>
       <use x="159.033203" xlink:href="#DejaVuSans-48"/>
       <use x="222.65625" xlink:href="#DejaVuSans-48"/>
      </g>
     </g>
    </g>
    <g id="ytick_6">
     <g id="line2d_29">
      <path clip-path="url(#p2ffddf95ae)" d="M 64.885938 131.729197 
L 360.297702 131.729197 
" style="fill:none;stroke:#b0b0b0;stroke-linecap:square;stroke-width:0.8;"/>
     </g>
     <g id="line2d_30">
      <g>
       <use style="stroke:#000000;stroke-width:0.8;" x="64.885938" xlink:href="#m50aefca1c3" y="131.729197"/>
      </g>
     </g>
     <g id="text_16">
      <!-- 0.002 -->
      <g transform="translate(29.257813 135.528416)scale(0.1 -0.1)">
       <use xlink:href="#DejaVuSans-48"/>
       <use x="63.623047" xlink:href="#DejaVuSans-46"/>
       <use x="95.410156" xlink:href="#DejaVuSans-48"/>
       <use x="159.033203" xlink:href="#DejaVuSans-48"/>
       <use x="222.65625" xlink:href="#DejaVuSans-50"/>
      </g>
     </g>
    </g>
    <g id="ytick_7">
     <g id="line2d_31">
      <path clip-path="url(#p2ffddf95ae)" d="M 64.885938 91.485871 
L 360.297702 91.485871 
" style="fill:none;stroke:#b0b0b0;stroke-linecap:square;stroke-width:0.8;"/>
     </g>
     <g id="line2d_32">
      <g>
       <use style="stroke:#000000;stroke-width:0.8;" x="64.885938" xlink:href="#m50aefca1c3" y="91.485871"/>
      </g>
     </g>
     <g id="text_17">
      <!-- 0.004 -->
      <g transform="translate(29.257813 95.28509)scale(0.1 -0.1)">
       <use xlink:href="#DejaVuSans-48"/>
       <use x="63.623047" xlink:href="#DejaVuSans-46"/>
       <use x="95.410156" xlink:href="#DejaVuSans-48"/>
       <use x="159.033203" xlink:href="#DejaVuSans-48"/>
       <use x="222.65625" xlink:href="#DejaVuSans-52"/>
      </g>
     </g>
    </g>
    <g id="ytick_8">
     <g id="line2d_33">
      <path clip-path="url(#p2ffddf95ae)" d="M 64.885938 51.242545 
L 360.297702 51.242545 
" style="fill:none;stroke:#b0b0b0;stroke-linecap:square;stroke-width:0.8;"/>
     </g>
     <g id="line2d_34">
      <g>
       <use style="stroke:#000000;stroke-width:0.8;" x="64.885938" xlink:href="#m50aefca1c3" y="51.242545"/>
      </g>
     </g>
     <g id="text_18">
      <!-- 0.006 -->
      <g transform="translate(29.257813 55.041764)scale(0.1 -0.1)">
       <use xlink:href="#DejaVuSans-48"/>
       <use x="63.623047" xlink:href="#DejaVuSans-46"/>
       <use x="95.410156" xlink:href="#DejaVuSans-48"/>
       <use x="159.033203" xlink:href="#DejaVuSans-48"/>
       <use x="222.65625" xlink:href="#DejaVuSans-54"/>
      </g>
     </g>
    </g>
    <g id="ytick_9">
     <g id="line2d_35">
      <path clip-path="url(#p2ffddf95ae)" d="M 64.885938 10.999219 
L 360.297702 10.999219 
" style="fill:none;stroke:#b0b0b0;stroke-linecap:square;stroke-width:0.8;"/>
     </g>
     <g id="line2d_36">
      <g>
       <use style="stroke:#000000;stroke-width:0.8;" x="64.885938" xlink:href="#m50aefca1c3" y="10.999219"/>
      </g>
     </g>
     <g id="text_19">
      <!-- 0.008 -->
      <g transform="translate(29.257813 14.798438)scale(0.1 -0.1)">
       <use xlink:href="#DejaVuSans-48"/>
       <use x="63.623047" xlink:href="#DejaVuSans-46"/>
       <use x="95.410156" xlink:href="#DejaVuSans-48"/>
       <use x="159.033203" xlink:href="#DejaVuSans-48"/>
       <use x="222.65625" xlink:href="#DejaVuSans-56"/>
      </g>
     </g>
    </g>
    <g id="text_20">
     <!-- [V] -->
     <g transform="translate(14.798438 179.638947)rotate(-90)scale(0.1 -0.1)">
      <defs>
       <path d="M 28.609375 0 
L 0.78125 72.90625 
L 11.078125 72.90625 
L 34.1875 11.53125 
L 57.328125 72.90625 
L 67.578125 72.90625 
L 39.796875 0 
z
" id="DejaVuSans-86"/>
      </defs>
      <use xlink:href="#DejaVuSans-91"/>
      <use x="39.013672" xlink:href="#DejaVuSans-86"/>
      <use x="107.421875" xlink:href="#DejaVuSans-93"/>
     </g>
    </g>
   </g>
   <g id="line2d_37">
    <path clip-path="url(#p2ffddf95ae)" d="M 78.313745 171.972524 
L 79.767708 82.833566 
L 80.49281 51.254292 
L 81.016494 36.858249 
L 81.392473 31.469815 
L 81.634173 30.291364 
L 81.701312 30.285211 
L 81.728168 30.321906 
L 81.849018 30.763674 
L 82.050435 32.501781 
L 82.345847 37.283298 
L 82.748681 47.918534 
L 83.272366 68.238552 
L 83.98404 105.492958 
L 85.179114 182.007142 
L 86.49504 261.801829 
L 87.206713 292.690755 
L 87.730398 307.086798 
L 88.106376 312.475233 
L 88.348077 313.653683 
L 88.415216 313.659836 
L 88.442072 313.623142 
L 88.562922 313.181374 
L 88.764339 311.443266 
L 89.059751 306.661749 
L 89.462585 296.026513 
L 89.986269 275.706495 
L 90.697943 238.452089 
L 91.893018 161.937906 
L 93.208943 82.143219 
L 93.920617 51.254292 
L 94.444302 36.858249 
L 94.82028 31.469815 
L 95.061981 30.291364 
L 95.12912 30.285211 
L 95.155975 30.321906 
L 95.276826 30.763674 
L 95.478243 32.501781 
L 95.773655 37.283298 
L 96.176489 47.918534 
L 96.700173 68.238552 
L 97.411847 105.492958 
L 98.606922 182.007142 
L 99.922847 261.801829 
L 100.634521 292.690755 
L 101.158205 307.086798 
L 101.534184 312.475233 
L 101.775884 313.653683 
L 101.843023 313.659836 
L 101.869879 313.623142 
L 101.990729 313.181374 
L 102.192146 311.443266 
L 102.487558 306.661749 
L 102.890392 296.026513 
L 103.414077 275.706495 
L 104.125751 238.452089 
L 105.320826 161.937906 
L 106.636751 82.143219 
L 107.348425 51.254292 
L 107.872109 36.858249 
L 108.248088 31.469815 
L 108.489788 30.291364 
L 108.556927 30.285211 
L 108.583783 30.321906 
L 108.704633 30.763674 
L 108.90605 32.501781 
L 109.201462 37.283298 
L 109.604296 47.918534 
L 110.127981 68.238552 
L 110.839655 105.492958 
L 112.034729 182.007142 
L 113.350655 261.801829 
L 114.062328 292.690755 
L 114.586013 307.086798 
L 114.961991 312.475233 
L 115.203692 313.653683 
L 115.270831 313.659836 
L 115.297687 313.623142 
L 115.418537 313.181374 
L 115.619954 311.443266 
L 115.915366 306.661749 
L 116.3182 296.026513 
L 116.841884 275.706495 
L 117.553558 238.452089 
L 118.748633 161.937906 
L 120.064558 82.143219 
L 120.776232 51.254292 
L 121.299917 36.858249 
L 121.675895 31.469815 
L 121.917596 30.291364 
L 121.984735 30.285211 
L 122.01159 30.321906 
L 122.132441 30.763674 
L 122.333858 32.501781 
L 122.629269 37.283298 
L 123.032104 47.918534 
L 123.555788 68.238552 
L 124.267462 105.492958 
L 125.462537 182.007142 
L 126.778462 261.801829 
L 127.490136 292.690755 
L 128.01382 307.086798 
L 128.389799 312.475233 
L 128.631499 313.653683 
L 128.698638 313.659836 
L 128.725494 313.623142 
L 128.846344 313.181374 
L 129.047761 311.443266 
L 129.343173 306.661749 
L 129.746007 296.026513 
L 130.269692 275.706495 
L 130.981366 238.452089 
L 132.176441 161.937906 
L 133.492366 82.143219 
L 134.20404 51.254292 
L 134.727724 36.858249 
L 135.103703 31.469815 
L 135.345403 30.291364 
L 135.412542 30.285211 
L 135.439398 30.321906 
L 135.560248 30.763674 
L 135.761665 32.501781 
L 136.057077 37.283298 
L 136.459911 47.918534 
L 136.983596 68.238552 
L 137.695269 105.492958 
L 138.890344 182.007142 
L 140.206269 261.801829 
L 140.917943 292.690755 
L 141.441628 307.086798 
L 141.817606 312.475233 
L 142.059307 313.653683 
L 142.126446 313.659836 
L 142.153302 313.623142 
L 142.274152 313.181374 
L 142.475569 311.443266 
L 142.770981 306.661749 
L 143.173815 296.026513 
L 143.697499 275.706495 
L 144.409173 238.452089 
L 145.604248 161.937906 
L 146.920173 82.143219 
L 147.631847 51.254292 
L 148.155532 36.858249 
L 148.53151 31.469815 
L 148.773211 30.291364 
L 148.84035 30.285211 
L 148.867205 30.321906 
L 148.988056 30.763674 
L 149.189473 32.501781 
L 149.484884 37.283298 
L 149.887719 47.918534 
L 150.411403 68.238552 
L 151.123077 105.492958 
L 152.318152 182.007142 
L 153.634077 261.801829 
L 154.345751 292.690755 
L 154.869435 307.086798 
L 155.245414 312.475233 
L 155.487114 313.653683 
L 155.554253 313.659836 
L 155.581109 313.623142 
L 155.701959 313.181374 
L 155.903376 311.443266 
L 156.198788 306.661749 
L 156.601622 296.026513 
L 157.125307 275.706495 
L 157.836981 238.452089 
L 159.032056 161.937906 
L 160.347981 82.143219 
L 161.059655 51.254292 
L 161.583339 36.858249 
L 161.959318 31.469815 
L 162.201018 30.291364 
L 162.268157 30.285211 
L 162.295013 30.321906 
L 162.415863 30.763674 
L 162.61728 32.501781 
L 162.912692 37.283298 
L 163.315526 47.918534 
L 163.839211 68.238552 
L 164.550884 105.492958 
L 165.745959 182.007142 
L 167.061884 261.801829 
L 167.773558 292.690755 
L 168.297243 307.086798 
L 168.673221 312.475233 
L 168.914922 313.653683 
L 168.982061 313.659836 
L 169.008917 313.623142 
L 169.129767 313.181374 
L 169.331184 311.443266 
L 169.626596 306.661749 
L 170.02943 296.026513 
L 170.553114 275.706495 
L 171.264788 238.452089 
L 172.459863 161.937906 
L 173.775788 82.143219 
L 174.487462 51.254292 
L 175.011146 36.858249 
L 175.387125 31.469815 
L 175.628826 30.291364 
L 175.695965 30.285211 
L 175.72282 30.321906 
L 175.843671 30.763674 
L 176.045088 32.501781 
L 176.340499 37.283298 
L 176.743334 47.918534 
L 177.267018 68.238552 
L 177.978692 105.492958 
L 179.173767 182.007142 
L 180.489692 261.801829 
L 181.201366 292.690755 
L 181.72505 307.086798 
L 182.101029 312.475233 
L 182.342729 313.653683 
L 182.409868 313.659836 
L 182.436724 313.623142 
L 182.557574 313.181374 
L 182.758991 311.443266 
L 183.054403 306.661749 
L 183.457237 296.026513 
L 183.980922 275.706495 
L 184.692596 238.452089 
L 185.887671 161.937906 
L 187.203596 82.143219 
L 187.915269 51.254292 
L 188.438954 36.858249 
L 188.814933 31.469815 
L 189.056633 30.291364 
L 189.123772 30.285211 
L 189.150628 30.321906 
L 189.271478 30.763674 
L 189.472895 32.501781 
L 189.768307 37.283298 
L 190.171141 47.918534 
L 190.694826 68.238552 
L 191.406499 105.492958 
L 192.601574 182.007142 
L 193.917499 261.801829 
L 194.629173 292.690755 
L 195.152858 307.086798 
L 195.528836 312.475233 
L 195.770537 313.653683 
L 195.837676 313.659836 
L 195.864532 313.623142 
L 195.985382 313.181374 
L 196.186799 311.443266 
L 196.482211 306.661749 
L 196.885045 296.026513 
L 197.408729 275.706495 
L 198.120403 238.452089 
L 199.315478 161.937906 
L 200.631403 82.143219 
L 201.343077 51.254292 
L 201.866761 36.858249 
L 202.24274 31.469815 
L 202.484441 30.291364 
L 202.55158 30.285211 
L 202.578435 30.321906 
L 202.699286 30.763674 
L 202.900703 32.501781 
L 203.196114 37.283298 
L 203.598949 47.918534 
L 204.122633 68.238552 
L 204.834307 105.492958 
L 206.029382 182.007142 
L 207.345307 261.801829 
L 208.056981 292.690755 
L 208.580665 307.086798 
L 208.956644 312.475233 
L 209.198344 313.653683 
L 209.265483 313.659836 
L 209.292339 313.623142 
L 209.413189 313.181374 
L 209.614606 311.443266 
L 209.910018 306.661749 
L 210.312852 296.026513 
L 210.836537 275.706495 
L 211.548211 238.452089 
L 212.743286 161.937906 
L 214.059211 82.143219 
L 214.770884 51.254292 
L 215.294569 36.858249 
L 215.670548 31.469815 
L 215.912248 30.291364 
L 215.979387 30.285211 
L 216.006243 30.321906 
L 216.127093 30.763674 
L 216.32851 32.501781 
L 216.623922 37.283298 
L 217.026756 47.918534 
L 217.550441 68.238552 
L 218.262114 105.492958 
L 219.457189 182.007142 
L 220.773114 261.801829 
L 221.484788 292.690755 
L 222.008473 307.086798 
L 222.384451 312.475233 
L 222.626152 313.653683 
L 222.693291 313.659836 
L 222.720146 313.623142 
L 222.840997 313.181374 
L 223.042414 311.443266 
L 223.337826 306.661749 
L 223.74066 296.026513 
L 224.264344 275.706495 
L 224.976018 238.452089 
L 226.171093 161.937906 
L 227.487018 82.143219 
L 228.198692 51.254292 
L 228.722376 36.858249 
L 229.098355 31.469815 
L 229.340056 30.291364 
L 229.407195 30.285211 
L 229.43405 30.321906 
L 229.5549 30.763674 
L 229.756318 32.501781 
L 230.051729 37.283298 
L 230.454564 47.918534 
L 230.978248 68.238552 
L 231.689922 105.492958 
L 232.884997 182.007142 
L 234.200922 261.801829 
L 234.912596 292.690755 
L 235.43628 307.086798 
L 235.812259 312.475233 
L 236.053959 313.653683 
L 236.121098 313.659836 
L 236.147954 313.623142 
L 236.268804 313.181374 
L 236.470221 311.443266 
L 236.765633 306.661749 
L 237.168467 296.026513 
L 237.692152 275.706495 
L 238.403826 238.452089 
L 239.5989 161.937906 
L 240.914826 82.143219 
L 241.626499 51.254292 
L 242.150184 36.858249 
L 242.526163 31.469815 
L 242.767863 30.291364 
L 242.835002 30.285211 
L 242.861858 30.321906 
L 242.982708 30.763674 
L 243.184125 32.501781 
L 243.479537 37.283298 
L 243.882371 47.918534 
L 244.406056 68.238552 
L 245.117729 105.492958 
L 246.312804 182.007142 
L 247.628729 261.801829 
L 248.340403 292.690755 
L 248.864088 307.086798 
L 249.240066 312.475233 
L 249.481767 313.653683 
L 249.548906 313.659836 
L 249.575761 313.623142 
L 249.696612 313.181374 
L 249.898029 311.443266 
L 250.193441 306.661749 
L 250.596275 296.026513 
L 251.119959 275.706495 
L 251.831633 238.452089 
L 253.026708 161.937906 
L 254.342633 82.143219 
L 255.054307 51.254292 
L 255.577991 36.858249 
L 255.95397 31.469815 
L 256.195671 30.291364 
L 256.26281 30.285211 
L 256.289665 30.321906 
L 256.410515 30.763674 
L 256.611933 32.501781 
L 256.907344 37.283298 
L 257.310179 47.918534 
L 257.833863 68.238552 
L 258.545537 105.492958 
L 259.740612 182.007142 
L 261.056537 261.801829 
L 261.768211 292.690755 
L 262.291895 307.086798 
L 262.667874 312.475233 
L 262.909574 313.653683 
L 262.976713 313.659836 
L 263.003569 313.623142 
L 263.124419 313.181374 
L 263.325836 311.443266 
L 263.621248 306.661749 
L 264.024082 296.026513 
L 264.547767 275.706495 
L 265.259441 238.452089 
L 266.454515 161.937906 
L 267.770441 82.143219 
L 268.482114 51.254292 
L 269.005799 36.858249 
L 269.381777 31.469815 
L 269.623478 30.291364 
L 269.690617 30.285211 
L 269.717473 30.321906 
L 269.838323 30.763674 
L 270.03974 32.501781 
L 270.335152 37.283298 
L 270.737986 47.918534 
L 271.261671 68.238552 
L 271.973344 105.492958 
L 273.168419 182.007142 
L 274.484344 261.801829 
L 275.196018 292.690755 
L 275.719703 307.086798 
L 276.095681 312.475233 
L 276.337382 313.653683 
L 276.404521 313.659836 
L 276.431376 313.623142 
L 276.552227 313.181374 
L 276.753644 311.443266 
L 277.049056 306.661749 
L 277.45189 296.026513 
L 277.975574 275.706495 
L 278.687248 238.452089 
L 279.882323 161.937906 
L 281.198248 82.143219 
L 281.909922 51.254292 
L 282.433606 36.858249 
L 282.809585 31.469815 
L 283.051286 30.291364 
L 283.118425 30.285211 
L 283.14528 30.321906 
L 283.26613 30.763674 
L 283.467548 32.501781 
L 283.762959 37.283298 
L 284.165794 47.918534 
L 284.689478 68.238552 
L 285.401152 105.492958 
L 286.596227 182.007142 
L 287.912152 261.801829 
L 288.623826 292.690755 
L 289.14751 307.086798 
L 289.523489 312.475233 
L 289.765189 313.653683 
L 289.832328 313.659836 
L 289.859184 313.623142 
L 289.980034 313.181374 
L 290.181451 311.443266 
L 290.476863 306.661749 
L 290.879697 296.026513 
L 291.403382 275.706495 
L 292.115056 238.452089 
L 293.31013 161.937906 
L 294.626056 82.143219 
L 295.337729 51.254292 
L 295.861414 36.858249 
L 296.237392 31.469815 
L 296.479093 30.291364 
L 296.546232 30.285211 
L 296.573088 30.321906 
L 296.693938 30.763674 
L 296.895355 32.501781 
L 297.190767 37.283298 
L 297.593601 47.918534 
L 298.117286 68.238552 
L 298.828959 105.492958 
L 300.024034 182.007142 
L 301.339959 261.801829 
L 302.051633 292.690755 
L 302.575318 307.086798 
L 302.951296 312.475233 
L 303.192997 313.653683 
L 303.260136 313.659836 
L 303.286991 313.623142 
L 303.407842 313.181374 
L 303.609259 311.443266 
L 303.904671 306.661749 
L 304.307505 296.026513 
L 304.831189 275.706495 
L 305.542863 238.452089 
L 306.737938 161.937906 
L 308.053863 82.143219 
L 308.765537 51.254292 
L 309.289221 36.858249 
L 309.6652 31.469815 
L 309.9069 30.291364 
L 309.97404 30.285211 
L 310.000895 30.321906 
L 310.121745 30.763674 
L 310.323163 32.501781 
L 310.618574 37.283298 
L 311.021409 47.918534 
L 311.545093 68.238552 
L 312.256767 105.492958 
L 313.451842 182.007142 
L 314.767767 261.801829 
L 315.479441 292.690755 
L 316.003125 307.086798 
L 316.379104 312.475233 
L 316.620804 313.653683 
L 316.687943 313.659836 
L 316.714799 313.623142 
L 316.835649 313.181374 
L 317.037066 311.443266 
L 317.332478 306.661749 
L 317.735312 296.026513 
L 318.258997 275.706495 
L 318.970671 238.452089 
L 320.165745 161.937906 
L 321.481671 82.143219 
L 322.193344 51.254292 
L 322.717029 36.858249 
L 323.093007 31.469815 
L 323.334708 30.291364 
L 323.401847 30.285211 
L 323.428703 30.321906 
L 323.549553 30.763674 
L 323.75097 32.501781 
L 324.046382 37.283298 
L 324.449216 47.918534 
L 324.9729 68.238552 
L 325.684574 105.492958 
L 326.879649 182.007142 
L 328.195574 261.801829 
L 328.907248 292.690755 
L 329.430933 307.086798 
L 329.806911 312.475233 
L 330.048612 313.653683 
L 330.115751 313.659836 
L 330.142606 313.623142 
L 330.263457 313.181374 
L 330.464874 311.443266 
L 330.760286 306.661749 
L 331.16312 296.026513 
L 331.686804 275.706495 
L 332.398478 238.452089 
L 333.593553 161.937906 
L 334.909478 82.143219 
L 335.621152 51.254292 
L 336.144836 36.858249 
L 336.520815 31.469815 
L 336.762515 30.291364 
L 336.829655 30.285211 
L 336.85651 30.321906 
L 336.97736 30.763674 
L 337.178777 32.501781 
L 337.474189 37.283298 
L 337.877023 47.918534 
L 338.400708 68.238552 
L 339.112382 105.492958 
L 340.307457 182.007142 
L 341.623382 261.801829 
L 342.335056 292.690755 
L 342.85874 307.086798 
L 343.234719 312.475233 
L 343.476419 313.653683 
L 343.543558 313.659836 
L 343.570414 313.623142 
L 343.691264 313.181374 
L 343.892681 311.443266 
L 344.188093 306.661749 
L 344.590927 296.026513 
L 345.114612 275.706495 
L 345.826286 238.452089 
L 346.869895 171.972524 
L 346.869895 171.972524 
" style="fill:none;stroke:#1f77b4;stroke-linecap:square;stroke-width:1.5;"/>
   </g>
   <g id="line2d_38">
    <path clip-path="url(#p2ffddf95ae)" d="M 78.313745 171.972524 
L 85.071692 127.906598 
L 88.616633 106.274229 
L 91.530467 89.818619 
L 94.068323 76.718725 
L 96.337622 66.136191 
L 98.392077 57.580831 
L 100.258542 50.722182 
L 101.977302 45.222647 
L 103.548355 40.911728 
L 104.98513 37.588534 
L 106.301056 35.077254 
L 107.509558 33.227851 
L 108.610638 31.928878 
L 109.617724 31.066155 
L 110.557671 30.543177 
L 111.443906 30.300615 
L 112.289858 30.296316 
L 113.13581 30.51398 
L 114.008617 30.970834 
L 114.935136 31.713083 
L 115.928794 32.802 
L 117.016446 34.338657 
L 118.198093 36.411911 
L 119.473735 39.114945 
L 120.870227 42.616252 
L 122.387569 47.045902 
L 124.039189 52.582242 
L 125.838515 59.423653 
L 127.798975 67.783596 
L 129.947425 77.948593 
L 132.337574 90.367972 
L 135.036564 105.609355 
L 138.205526 124.834887 
L 142.301007 151.15016 
L 153.996628 227.12596 
L 157.192446 245.956873 
L 159.904863 260.659478 
L 162.308441 272.502723 
L 164.470318 282.073878 
L 166.430778 289.782425 
L 168.230104 295.986905 
L 169.881724 300.90965 
L 171.385638 304.723283 
L 172.768703 307.650807 
L 174.030917 309.827024 
L 175.185708 311.397079 
L 176.246505 312.480774 
L 177.226735 313.174523 
L 178.126398 313.549881 
L 178.985778 313.67417 
L 179.831729 313.572752 
L 180.691109 313.242572 
L 181.590772 312.65221 
L 182.557574 311.739958 
L 183.591515 310.44794 
L 184.719451 308.668999 
L 185.941382 306.312391 
L 187.270735 303.250243 
L 188.720938 299.33105 
L 190.291991 294.424345 
L 192.010751 288.299714 
L 193.877216 280.798424 
L 195.918243 271.648232 
L 198.174114 260.481597 
L 200.698542 246.82365 
L 203.598949 229.856101 
L 207.103606 207.963793 
L 212.259884 174.173353 
L 219.363195 127.821987 
L 222.908136 106.195355 
L 225.82197 89.746092 
L 228.359826 76.652827 
L 230.629125 66.07701 
L 232.68358 57.528308 
L 234.550045 50.67613 
L 236.268804 45.182865 
L 237.839858 40.877904 
L 239.276633 37.560319 
L 240.592558 35.054288 
L 241.801061 33.209784 
L 242.902141 31.915325 
L 243.909227 31.056762 
L 244.849173 30.537686 
L 245.735409 30.298813 
L 246.58136 30.298038 
L 247.427312 30.519223 
L 248.30012 30.979702 
L 249.226638 31.725782 
L 250.220296 32.818781 
L 251.307949 34.359864 
L 252.489596 36.437865 
L 253.765237 39.145933 
L 255.161729 42.652624 
L 256.679072 47.087948 
L 258.330692 52.630221 
L 260.130018 59.47777 
L 262.090478 67.843962 
L 264.238927 78.015222 
L 266.629077 90.440775 
L 269.328066 105.688035 
L 272.497029 124.918859 
L 276.59251 151.238231 
L 288.261275 227.043936 
L 291.457093 245.880923 
L 294.16951 260.590021 
L 296.573088 272.439956 
L 298.734965 282.017808 
L 300.695425 289.732927 
L 302.494751 295.943806 
L 304.146371 300.872694 
L 305.650286 304.692115 
L 307.03335 307.625098 
L 308.295564 309.80639 
L 309.450355 311.381153 
L 310.511152 312.469215 
L 311.491382 313.167024 
L 312.404473 313.549881 
L 313.263852 313.67417 
L 314.109804 313.572752 
L 314.969184 313.242572 
L 315.868847 312.65221 
L 316.835649 311.739958 
L 317.86959 310.44794 
L 318.997526 308.668999 
L 320.219457 306.312391 
L 321.54881 303.250243 
L 322.999013 299.33105 
L 324.570066 294.424345 
L 326.288826 288.299714 
L 328.155291 280.798424 
L 330.196318 271.648232 
L 332.452189 260.481597 
L 334.976617 246.82365 
L 337.877023 229.856101 
L 341.381681 207.963793 
L 346.537959 174.173353 
L 346.869895 171.972524 
L 346.869895 171.972524 
" style="fill:none;stroke:#ff7f0e;stroke-linecap:square;stroke-width:1.5;"/>
   </g>
   <g id="line2d_39">
    <path clip-path="url(#p2ffddf95ae)" d="M 78.313745 171.972524 
L 78.330933 169.717526 
L 78.545778 156.576318 
L 79.163457 137.210189 
L 79.713997 125.765934 
L 80.130259 120.989539 
L 80.412243 119.713422 
L 80.533093 119.653455 
L 80.559949 119.679691 
L 80.694227 120.025706 
L 80.909072 121.317421 
L 81.217911 124.728765 
L 81.634173 132.079506 
L 82.184713 146.140785 
L 82.950098 172.059923 
L 85.581949 266.55015 
L 86.119061 276.711983 
L 86.508467 280.575365 
L 86.750168 281.367401 
L 86.85759 281.311806 
L 87.005296 280.820437 
L 87.233569 279.110349 
L 87.555836 274.734605 
L 87.985526 265.413382 
L 88.536066 248.062212 
L 89.261168 217.512155 
L 90.523382 152.967601 
L 91.731884 95.450652 
L 92.416703 72.442164 
L 92.913532 62.250859 
L 93.262655 58.832955 
L 93.464072 58.342041 
L 93.558066 58.490297 
L 93.7192 59.306016 
L 93.9609 61.858144 
L 94.296596 68.011535 
L 94.739713 80.580765 
L 95.330537 104.400808 
L 96.136205 146.874322 
L 98.687489 288.410018 
L 99.278312 307.245294 
L 99.708002 315.060818 
L 100.003414 317.312858 
L 100.124264 317.479639 
L 100.15112 317.456733 
L 100.27197 317.083258 
L 100.473387 315.477925 
L 100.768799 310.918939 
L 101.158205 301.016575 
L 101.668462 281.808721 
L 102.35328 246.641578 
L 103.414077 178.784588 
L 104.971703 81.116791 
L 105.683376 49.830683 
L 106.193633 35.780176 
L 106.569612 30.524682 
L 106.797884 29.543671 
L 106.878451 29.600992 
L 107.012729 30.164895 
L 107.227574 32.279535 
L 107.536414 37.891679 
L 107.952676 50.052983 
L 108.503216 73.467614 
L 109.255173 116.148221 
L 112.222719 296.453252 
L 112.759831 312.707719 
L 113.162665 319.148686 
L 113.417794 320.544141 
L 113.484933 320.560656 
L 113.525216 320.500301 
L 113.659494 319.91891 
L 113.874339 317.778018 
L 114.183179 312.13367 
L 114.599441 299.940103 
L 115.149981 276.491859 
L 115.88851 234.570434 
L 117.392425 132.674599 
L 118.439794 70.141005 
L 119.111184 42.009564 
L 119.608013 29.2703 
L 119.970564 24.765064 
L 120.185409 24.062527 
L 120.265975 24.17808 
L 120.413681 24.924695 
L 120.641954 27.426205 
L 120.977649 33.999389 
L 121.420767 47.636008 
L 122.01159 73.486088 
L 122.857542 121.61537 
L 125.140269 256.665017 
L 125.784804 280.649657 
L 126.268205 291.585817 
L 126.617328 295.398576 
L 126.832173 296.001706 
L 126.926168 295.847744 
L 127.087302 294.99611 
L 127.34243 292.150993 
L 127.691553 285.384036 
L 128.161526 271.409092 
L 128.792633 245.156803 
L 129.719152 196.054729 
L 131.6259 93.645541 
L 132.324146 68.205688 
L 132.847831 56.257475 
L 133.22381 51.846439 
L 133.46551 50.899867 
L 133.559505 50.930752 
L 133.572933 50.953308 
L 133.720638 51.498924 
L 133.948911 53.400741 
L 134.271179 58.201009 
L 134.714296 68.562294 
L 135.30512 88.19962 
L 136.164499 125.12755 
L 138.312949 220.257634 
L 138.997767 240.020148 
L 139.508023 249.200872 
L 139.884002 252.697766 
L 140.13913 253.471332 
L 140.246553 253.41373 
L 140.394259 252.969077 
L 140.622532 251.466641 
L 140.958227 247.532558 
L 141.414772 239.15561 
L 142.019023 223.550588 
L 142.932114 193.429178 
L 144.838863 129.651724 
L 145.550537 113.494585 
L 146.087649 105.826259 
L 146.477056 102.918677 
L 146.732184 102.239169 
L 146.866462 102.266809 
L 147.027596 102.644363 
L 147.269296 103.8968 
L 147.618419 107.087426 
L 148.088392 113.713153 
L 148.732927 126.336827 
L 149.780296 151.99818 
L 151.284211 187.948539 
L 152.036168 200.858331 
L 152.600136 207.198538 
L 153.043253 209.994546 
L 153.352093 210.799872 
L 153.540082 210.840896 
L 153.714644 210.583944 
L 153.969772 209.71725 
L 154.332323 207.547362 
L 154.815724 203.142832 
L 155.500542 194.606676 
L 156.829895 174.478653 
L 157.957831 159.011073 
L 158.669505 152.030953 
L 159.220045 148.584657 
L 159.636307 147.182854 
L 159.931719 146.811572 
L 160.133136 146.845212 
L 160.361409 147.152109 
L 160.670248 147.994253 
L 161.099938 149.897958 
L 161.690761 153.642276 
L 162.644136 161.344044 
L 164.228617 174.003345 
L 164.980574 178.266445 
L 165.571398 180.454817 
L 166.041371 181.436421 
L 166.403922 181.752507 
L 166.699334 181.746599 
L 167.021601 181.495624 
L 167.437863 180.843438 
L 168.001831 179.497443 
L 168.955205 176.540505 
L 170.365125 172.287744 
L 171.103655 170.733683 
L 171.707906 169.936794 
L 172.23159 169.588487 
L 172.728419 169.519044 
L 173.278959 169.680443 
L 174.017489 170.156515 
L 176.179366 171.683391 
L 177.038745 171.939168 
L 178.072687 171.995563 
L 180.167425 172.062393 
L 183.108114 172.44714 
L 183.739221 172.161654 
L 184.383756 171.610631 
L 185.122286 170.662452 
L 186.290505 168.729658 
L 187.324446 167.187884 
L 187.888414 166.714374 
L 188.304676 166.633148 
L 188.667227 166.788535 
L 189.056633 167.218185 
L 189.513179 168.092717 
L 190.050291 169.642958 
L 190.721681 172.318233 
L 191.675056 177.15187 
L 193.353532 185.691057 
L 193.957783 187.643911 
L 194.374045 188.353367 
L 194.669457 188.484107 
L 194.911157 188.34011 
L 195.193141 187.871308 
L 195.555692 186.775737 
L 196.012237 184.597754 
L 196.576205 180.721941 
L 197.314735 173.935172 
L 198.576949 159.809866 
L 199.704884 148.189628 
L 200.335991 143.768405 
L 200.765681 142.069927 
L 201.061093 141.624806 
L 201.235655 141.659272 
L 201.437072 141.984298 
L 201.705628 142.904657 
L 202.068179 145.042374 
L 202.538152 149.327181 
L 203.128975 156.977964 
L 203.921216 170.465638 
L 206.700772 220.760505 
L 207.224457 225.478875 
L 207.587007 227.09184 
L 207.81528 227.351188 
L 207.949558 227.220305 
L 208.150975 226.622608 
L 208.432959 224.96737 
L 208.808938 221.275439 
L 209.292339 214.110423 
L 209.910018 201.365735 
L 210.769398 178.515072 
L 213.025269 116.250294 
L 213.616093 106.479305 
L 214.045783 102.518334 
L 214.327767 101.531783 
L 214.448617 101.518965 
L 214.462045 101.532974 
L 214.609751 101.892405 
L 214.838023 103.19349 
L 215.160291 106.575763 
L 215.576553 113.574871 
L 216.113665 126.712714 
L 216.825339 150.13915 
L 217.98013 196.824194 
L 219.336339 249.289434 
L 220.034585 268.349793 
L 220.531414 276.69475 
L 220.880537 279.555219 
L 221.095382 280.006744 
L 221.202804 279.84987 
L 221.377366 279.045855 
L 221.632494 276.644829 
L 221.981617 271.022077 
L 222.438163 259.74788 
L 223.028986 239.196421 
L 223.848082 202.082477 
L 226.37251 81.938418 
L 226.949906 66.330768 
L 227.366168 60.033493 
L 227.648152 58.339162 
L 227.742146 58.250456 
L 227.78243 58.285996 
L 227.90328 58.658249 
L 228.104697 60.165172 
L 228.400109 64.368064 
L 228.789515 73.435265 
L 229.299772 90.972155 
L 229.98459 123.022106 
L 231.058815 185.517746 
L 232.562729 270.918904 
L 233.274403 299.345307 
L 233.78466 312.04474 
L 234.147211 316.605654 
L 234.375483 317.475127 
L 234.45605 317.406584 
L 234.590328 316.855302 
L 234.805173 314.83835 
L 235.114013 309.518433 
L 235.530275 297.986 
L 236.067387 276.314323 
L 236.792489 237.119623 
L 238.06813 153.432718 
L 239.290061 79.03149 
L 239.988307 48.902823 
L 240.498564 35.256809 
L 240.861114 30.419977 
L 241.089387 29.538261 
L 241.169954 29.630737 
L 241.304232 30.253147 
L 241.519077 32.460642 
L 241.827917 38.202888 
L 242.244179 50.528723 
L 242.794719 74.131807 
L 243.546676 116.99512 
L 246.473938 295.425371 
L 247.024478 312.405589 
L 247.427312 319.017 
L 247.682441 320.523255 
L 247.763007 320.560639 
L 247.789863 320.526257 
L 247.910713 320.08191 
L 248.11213 318.292251 
L 248.407542 313.328984 
L 248.810376 302.248056 
L 249.334061 281.03185 
L 250.045735 242.080563 
L 251.24081 162.007906 
L 252.556735 78.508692 
L 253.268409 46.197596 
L 253.792093 31.1094 
L 254.181499 25.286014 
L 254.4232 24.08222 
L 254.490339 24.078103 
L 254.517195 24.116627 
L 254.638045 24.573356 
L 254.839462 26.358072 
L 255.134874 31.244743 
L 255.537708 42.056227 
L 256.07482 63.178371 
L 256.81335 102.129441 
L 258.411259 202.501192 
L 259.391489 255.456164 
L 260.049451 280.25547 
L 260.54628 291.585817 
L 260.895403 295.398576 
L 261.110248 296.001706 
L 261.204243 295.847744 
L 261.365376 294.99611 
L 261.620505 292.150993 
L 261.969628 285.384036 
L 262.439601 271.409092 
L 263.070708 245.156803 
L 263.997227 196.054729 
L 265.903975 93.645541 
L 266.602221 68.205688 
L 267.125906 56.257475 
L 267.501884 51.846439 
L 267.743585 50.899867 
L 267.83758 50.930752 
L 267.851007 50.953308 
L 267.998713 51.498924 
L 268.226986 53.400741 
L 268.549253 58.201009 
L 268.992371 68.562294 
L 269.583195 88.19962 
L 270.442574 125.12755 
L 272.591023 220.257634 
L 273.275842 240.020148 
L 273.786098 249.200872 
L 274.162077 252.697766 
L 274.417205 253.471332 
L 274.524628 253.41373 
L 274.672334 252.969077 
L 274.900606 251.466641 
L 275.236302 247.532558 
L 275.692847 239.15561 
L 276.297098 223.550588 
L 277.210189 193.429178 
L 279.116938 129.651725 
L 279.828612 113.494585 
L 280.365724 105.826259 
L 280.75513 102.918677 
L 281.010259 102.239169 
L 281.144537 102.266809 
L 281.305671 102.644363 
L 281.547371 103.8968 
L 281.896494 107.087426 
L 282.366467 113.713153 
L 283.011002 126.336827 
L 284.058371 151.99818 
L 285.562286 187.948539 
L 286.314243 200.858331 
L 286.878211 207.198538 
L 287.321328 209.994546 
L 287.630168 210.799872 
L 287.818157 210.840896 
L 287.992719 210.583944 
L 288.247847 209.71725 
L 288.610398 207.547362 
L 289.093799 203.142832 
L 289.778617 194.606676 
L 291.10797 174.478653 
L 292.235906 159.011073 
L 292.94758 152.030953 
L 293.49812 148.584657 
L 293.914382 147.182854 
L 294.209794 146.811572 
L 294.411211 146.845212 
L 294.639483 147.152109 
L 294.948323 147.994253 
L 295.378013 149.897958 
L 295.968836 153.642276 
L 296.922211 161.344044 
L 298.506692 174.003345 
L 299.258649 178.266445 
L 299.849473 180.454817 
L 300.319446 181.436421 
L 300.681997 181.752507 
L 300.977409 181.746599 
L 301.299676 181.495624 
L 301.715938 180.843438 
L 302.279906 179.497443 
L 303.23328 176.540505 
L 304.6432 172.287744 
L 305.381729 170.733683 
L 305.985981 169.936794 
L 306.509665 169.588487 
L 307.006494 169.519044 
L 307.557034 169.680443 
L 308.295564 170.156515 
L 310.457441 171.68339 
L 311.31682 171.939168 
L 312.350761 171.995563 
L 314.445499 172.062393 
L 317.386189 172.44714 
L 318.017296 172.161654 
L 318.661831 171.610631 
L 319.40036 170.662452 
L 320.56858 168.729658 
L 321.602521 167.187884 
L 322.166489 166.714374 
L 322.582751 166.633148 
L 322.945302 166.788535 
L 323.334708 167.218185 
L 323.791253 168.092717 
L 324.328366 169.642958 
L 324.999756 172.318233 
L 325.95313 177.15187 
L 327.631606 185.691057 
L 328.235858 187.643911 
L 328.65212 188.353367 
L 328.947532 188.484107 
L 329.189232 188.34011 
L 329.471216 187.871308 
L 329.833767 186.775737 
L 330.290312 184.597754 
L 330.85428 180.721941 
L 331.59281 173.935172 
L 332.855023 159.809866 
L 333.982959 148.189628 
L 334.614066 143.768405 
L 335.043756 142.069927 
L 335.339168 141.624806 
L 335.513729 141.659272 
L 335.715146 141.984298 
L 335.983703 142.904657 
L 336.346253 145.042374 
L 336.816227 149.327181 
L 337.40705 156.977964 
L 338.199291 170.465638 
L 340.978847 220.760505 
L 341.502532 225.478875 
L 341.865082 227.09184 
L 342.093355 227.351188 
L 342.227633 227.220305 
L 342.42905 226.622608 
L 342.711034 224.96737 
L 343.087013 221.275439 
L 343.570414 214.110423 
L 344.188093 201.365735 
L 345.047473 178.515072 
L 346.869895 126.039743 
L 346.869895 126.039743 
" style="fill:none;stroke:#2ca02c;stroke-linecap:square;stroke-width:1.5;"/>
   </g>
   <g id="patch_3">
    <path d="M 64.885938 335.397072 
L 64.885938 9.237072 
" style="fill:none;stroke:#000000;stroke-linecap:square;stroke-linejoin:miter;stroke-width:0.8;"/>
   </g>
   <g id="patch_4">
    <path d="M 360.297702 335.397072 
L 360.297702 9.237072 
" style="fill:none;stroke:#000000;stroke-linecap:square;stroke-linejoin:miter;stroke-width:0.8;"/>
   </g>
   <g id="patch_5">
    <path d="M 64.885938 335.397072 
L 360.297702 335.397072 
" style="fill:none;stroke:#000000;stroke-linecap:square;stroke-linejoin:miter;stroke-width:0.8;"/>
   </g>
   <g id="patch_6">
    <path d="M 64.885938 9.237072 
L 360.297702 9.237072 
" style="fill:none;stroke:#000000;stroke-linecap:square;stroke-linejoin:miter;stroke-width:0.8;"/>
   </g>
   <g id="text_21">
    <!-- output with a sine control voltage, biased for am (Vin_b is scaled). -->
    <g transform="translate(13.56432 394.629072)scale(0.12 -0.12)">
     <defs>
      <path d="M 30.609375 48.390625 
Q 23.390625 48.390625 19.1875 42.75 
Q 14.984375 37.109375 14.984375 27.296875 
Q 14.984375 17.484375 19.15625 11.84375 
Q 23.34375 6.203125 30.609375 6.203125 
Q 37.796875 6.203125 41.984375 11.859375 
Q 46.1875 17.53125 46.1875 27.296875 
Q 46.1875 37.015625 41.984375 42.703125 
Q 37.796875 48.390625 30.609375 48.390625 
z
M 30.609375 56 
Q 42.328125 56 49.015625 48.375 
Q 55.71875 40.765625 55.71875 27.296875 
Q 55.71875 13.875 49.015625 6.21875 
Q 42.328125 -1.421875 30.609375 -1.421875 
Q 18.84375 -1.421875 12.171875 6.21875 
Q 5.515625 13.875 5.515625 27.296875 
Q 5.515625 40.765625 12.171875 48.375 
Q 18.84375 56 30.609375 56 
z
" id="DejaVuSans-111"/>
      <path d="M 8.5 21.578125 
L 8.5 54.6875 
L 17.484375 54.6875 
L 17.484375 21.921875 
Q 17.484375 14.15625 20.5 10.265625 
Q 23.53125 6.390625 29.59375 6.390625 
Q 36.859375 6.390625 41.078125 11.03125 
Q 45.3125 15.671875 45.3125 23.6875 
L 45.3125 54.6875 
L 54.296875 54.6875 
L 54.296875 0 
L 45.3125 0 
L 45.3125 8.40625 
Q 42.046875 3.421875 37.71875 1 
Q 33.40625 -1.421875 27.6875 -1.421875 
Q 18.265625 -1.421875 13.375 4.4375 
Q 8.5 10.296875 8.5 21.578125 
z
M 31.109375 56 
z
" id="DejaVuSans-117"/>
      <path d="M 18.109375 8.203125 
L 18.109375 -20.796875 
L 9.078125 -20.796875 
L 9.078125 54.6875 
L 18.109375 54.6875 
L 18.109375 46.390625 
Q 20.953125 51.265625 25.265625 53.625 
Q 29.59375 56 35.59375 56 
Q 45.5625 56 51.78125 48.09375 
Q 58.015625 40.1875 58.015625 27.296875 
Q 58.015625 14.40625 51.78125 6.484375 
Q 45.5625 -1.421875 35.59375 -1.421875 
Q 29.59375 -1.421875 25.265625 0.953125 
Q 20.953125 3.328125 18.109375 8.203125 
z
M 48.6875 27.296875 
Q 48.6875 37.203125 44.609375 42.84375 
Q 40.53125 48.484375 33.40625 48.484375 
Q 26.265625 48.484375 22.1875 42.84375 
Q 18.109375 37.203125 18.109375 27.296875 
Q 18.109375 17.390625 22.1875 11.75 
Q 26.265625 6.109375 33.40625 6.109375 
Q 40.53125 6.109375 44.609375 11.75 
Q 48.6875 17.390625 48.6875 27.296875 
z
" id="DejaVuSans-112"/>
      <path d="M 4.203125 54.6875 
L 13.1875 54.6875 
L 24.421875 12.015625 
L 35.59375 54.6875 
L 46.1875 54.6875 
L 57.421875 12.015625 
L 68.609375 54.6875 
L 77.59375 54.6875 
L 63.28125 0 
L 52.6875 0 
L 40.921875 44.828125 
L 29.109375 0 
L 18.5 0 
z
" id="DejaVuSans-119"/>
      <path d="M 9.421875 54.6875 
L 18.40625 54.6875 
L 18.40625 0 
L 9.421875 0 
z
M 9.421875 75.984375 
L 18.40625 75.984375 
L 18.40625 64.59375 
L 9.421875 64.59375 
z
" id="DejaVuSans-105"/>
      <path d="M 54.890625 33.015625 
L 54.890625 0 
L 45.90625 0 
L 45.90625 32.71875 
Q 45.90625 40.484375 42.875 44.328125 
Q 39.84375 48.1875 33.796875 48.1875 
Q 26.515625 48.1875 22.3125 43.546875 
Q 18.109375 38.921875 18.109375 30.90625 
L 18.109375 0 
L 9.078125 0 
L 9.078125 75.984375 
L 18.109375 75.984375 
L 18.109375 46.1875 
Q 21.34375 51.125 25.703125 53.5625 
Q 30.078125 56 35.796875 56 
Q 45.21875 56 50.046875 50.171875 
Q 54.890625 44.34375 54.890625 33.015625 
z
" id="DejaVuSans-104"/>
      <path d="M 34.28125 27.484375 
Q 23.390625 27.484375 19.1875 25 
Q 14.984375 22.515625 14.984375 16.5 
Q 14.984375 11.71875 18.140625 8.90625 
Q 21.296875 6.109375 26.703125 6.109375 
Q 34.1875 6.109375 38.703125 11.40625 
Q 43.21875 16.703125 43.21875 25.484375 
L 43.21875 27.484375 
z
M 52.203125 31.203125 
L 52.203125 0 
L 43.21875 0 
L 43.21875 8.296875 
Q 40.140625 3.328125 35.546875 0.953125 
Q 30.953125 -1.421875 24.3125 -1.421875 
Q 15.921875 -1.421875 10.953125 3.296875 
Q 6 8.015625 6 15.921875 
Q 6 25.140625 12.171875 29.828125 
Q 18.359375 34.515625 30.609375 34.515625 
L 43.21875 34.515625 
L 43.21875 35.40625 
Q 43.21875 41.609375 39.140625 45 
Q 35.0625 48.390625 27.6875 48.390625 
Q 23 48.390625 18.546875 47.265625 
Q 14.109375 46.140625 10.015625 43.890625 
L 10.015625 52.203125 
Q 14.9375 54.109375 19.578125 55.046875 
Q 24.21875 56 28.609375 56 
Q 40.484375 56 46.34375 49.84375 
Q 52.203125 43.703125 52.203125 31.203125 
z
" id="DejaVuSans-97"/>
      <path d="M 54.890625 33.015625 
L 54.890625 0 
L 45.90625 0 
L 45.90625 32.71875 
Q 45.90625 40.484375 42.875 44.328125 
Q 39.84375 48.1875 33.796875 48.1875 
Q 26.515625 48.1875 22.3125 43.546875 
Q 18.109375 38.921875 18.109375 30.90625 
L 18.109375 0 
L 9.078125 0 
L 9.078125 54.6875 
L 18.109375 54.6875 
L 18.109375 46.1875 
Q 21.34375 51.125 25.703125 53.5625 
Q 30.078125 56 35.796875 56 
Q 45.21875 56 50.046875 50.171875 
Q 54.890625 44.34375 54.890625 33.015625 
z
" id="DejaVuSans-110"/>
      <path d="M 56.203125 29.59375 
L 56.203125 25.203125 
L 14.890625 25.203125 
Q 15.484375 15.921875 20.484375 11.0625 
Q 25.484375 6.203125 34.421875 6.203125 
Q 39.59375 6.203125 44.453125 7.46875 
Q 49.3125 8.734375 54.109375 11.28125 
L 54.109375 2.78125 
Q 49.265625 0.734375 44.1875 -0.34375 
Q 39.109375 -1.421875 33.890625 -1.421875 
Q 20.796875 -1.421875 13.15625 6.1875 
Q 5.515625 13.8125 5.515625 26.8125 
Q 5.515625 40.234375 12.765625 48.109375 
Q 20.015625 56 32.328125 56 
Q 43.359375 56 49.78125 48.890625 
Q 56.203125 41.796875 56.203125 29.59375 
z
M 47.21875 32.234375 
Q 47.125 39.59375 43.09375 43.984375 
Q 39.0625 48.390625 32.421875 48.390625 
Q 24.90625 48.390625 20.390625 44.140625 
Q 15.875 39.890625 15.1875 32.171875 
z
" id="DejaVuSans-101"/>
      <path d="M 48.78125 52.59375 
L 48.78125 44.1875 
Q 44.96875 46.296875 41.140625 47.34375 
Q 37.3125 48.390625 33.40625 48.390625 
Q 24.65625 48.390625 19.8125 42.84375 
Q 14.984375 37.3125 14.984375 27.296875 
Q 14.984375 17.28125 19.8125 11.734375 
Q 24.65625 6.203125 33.40625 6.203125 
Q 37.3125 6.203125 41.140625 7.25 
Q 44.96875 8.296875 48.78125 10.40625 
L 48.78125 2.09375 
Q 45.015625 0.34375 40.984375 -0.53125 
Q 36.96875 -1.421875 32.421875 -1.421875 
Q 20.0625 -1.421875 12.78125 6.34375 
Q 5.515625 14.109375 5.515625 27.296875 
Q 5.515625 40.671875 12.859375 48.328125 
Q 20.21875 56 33.015625 56 
Q 37.15625 56 41.109375 55.140625 
Q 45.0625 54.296875 48.78125 52.59375 
z
" id="DejaVuSans-99"/>
      <path d="M 41.109375 46.296875 
Q 39.59375 47.171875 37.8125 47.578125 
Q 36.03125 48 33.890625 48 
Q 26.265625 48 22.1875 43.046875 
Q 18.109375 38.09375 18.109375 28.8125 
L 18.109375 0 
L 9.078125 0 
L 9.078125 54.6875 
L 18.109375 54.6875 
L 18.109375 46.1875 
Q 20.953125 51.171875 25.484375 53.578125 
Q 30.03125 56 36.53125 56 
Q 37.453125 56 38.578125 55.875 
Q 39.703125 55.765625 41.0625 55.515625 
z
" id="DejaVuSans-114"/>
      <path d="M 9.421875 75.984375 
L 18.40625 75.984375 
L 18.40625 0 
L 9.421875 0 
z
" id="DejaVuSans-108"/>
      <path d="M 2.984375 54.6875 
L 12.5 54.6875 
L 29.59375 8.796875 
L 46.6875 54.6875 
L 56.203125 54.6875 
L 35.6875 0 
L 23.484375 0 
z
" id="DejaVuSans-118"/>
      <path d="M 45.40625 27.984375 
Q 45.40625 37.75 41.375 43.109375 
Q 37.359375 48.484375 30.078125 48.484375 
Q 22.859375 48.484375 18.828125 43.109375 
Q 14.796875 37.75 14.796875 27.984375 
Q 14.796875 18.265625 18.828125 12.890625 
Q 22.859375 7.515625 30.078125 7.515625 
Q 37.359375 7.515625 41.375 12.890625 
Q 45.40625 18.265625 45.40625 27.984375 
z
M 54.390625 6.78125 
Q 54.390625 -7.171875 48.1875 -13.984375 
Q 42 -20.796875 29.203125 -20.796875 
Q 24.46875 -20.796875 20.265625 -20.09375 
Q 16.0625 -19.390625 12.109375 -17.921875 
L 12.109375 -9.1875 
Q 16.0625 -11.328125 19.921875 -12.34375 
Q 23.78125 -13.375 27.78125 -13.375 
Q 36.625 -13.375 41.015625 -8.765625 
Q 45.40625 -4.15625 45.40625 5.171875 
L 45.40625 9.625 
Q 42.625 4.78125 38.28125 2.390625 
Q 33.9375 0 27.875 0 
Q 17.828125 0 11.671875 7.65625 
Q 5.515625 15.328125 5.515625 27.984375 
Q 5.515625 40.671875 11.671875 48.328125 
Q 17.828125 56 27.875 56 
Q 33.9375 56 38.28125 53.609375 
Q 42.625 51.21875 45.40625 46.390625 
L 45.40625 54.6875 
L 54.390625 54.6875 
z
" id="DejaVuSans-103"/>
      <path d="M 11.71875 12.40625 
L 22.015625 12.40625 
L 22.015625 4 
L 14.015625 -11.625 
L 7.71875 -11.625 
L 11.71875 4 
z
" id="DejaVuSans-44"/>
      <path d="M 48.6875 27.296875 
Q 48.6875 37.203125 44.609375 42.84375 
Q 40.53125 48.484375 33.40625 48.484375 
Q 26.265625 48.484375 22.1875 42.84375 
Q 18.109375 37.203125 18.109375 27.296875 
Q 18.109375 17.390625 22.1875 11.75 
Q 26.265625 6.109375 33.40625 6.109375 
Q 40.53125 6.109375 44.609375 11.75 
Q 48.6875 17.390625 48.6875 27.296875 
z
M 18.109375 46.390625 
Q 20.953125 51.265625 25.265625 53.625 
Q 29.59375 56 35.59375 56 
Q 45.5625 56 51.78125 48.09375 
Q 58.015625 40.1875 58.015625 27.296875 
Q 58.015625 14.40625 51.78125 6.484375 
Q 45.5625 -1.421875 35.59375 -1.421875 
Q 29.59375 -1.421875 25.265625 0.953125 
Q 20.953125 3.328125 18.109375 8.203125 
L 18.109375 0 
L 9.078125 0 
L 9.078125 75.984375 
L 18.109375 75.984375 
z
" id="DejaVuSans-98"/>
      <path d="M 45.40625 46.390625 
L 45.40625 75.984375 
L 54.390625 75.984375 
L 54.390625 0 
L 45.40625 0 
L 45.40625 8.203125 
Q 42.578125 3.328125 38.25 0.953125 
Q 33.9375 -1.421875 27.875 -1.421875 
Q 17.96875 -1.421875 11.734375 6.484375 
Q 5.515625 14.40625 5.515625 27.296875 
Q 5.515625 40.1875 11.734375 48.09375 
Q 17.96875 56 27.875 56 
Q 33.9375 56 38.25 53.625 
Q 42.578125 51.265625 45.40625 46.390625 
z
M 14.796875 27.296875 
Q 14.796875 17.390625 18.875 11.75 
Q 22.953125 6.109375 30.078125 6.109375 
Q 37.203125 6.109375 41.296875 11.75 
Q 45.40625 17.390625 45.40625 27.296875 
Q 45.40625 37.203125 41.296875 42.84375 
Q 37.203125 48.484375 30.078125 48.484375 
Q 22.953125 48.484375 18.875 42.84375 
Q 14.796875 37.203125 14.796875 27.296875 
z
" id="DejaVuSans-100"/>
      <path d="M 37.109375 75.984375 
L 37.109375 68.5 
L 28.515625 68.5 
Q 23.6875 68.5 21.796875 66.546875 
Q 19.921875 64.59375 19.921875 59.515625 
L 19.921875 54.6875 
L 34.71875 54.6875 
L 34.71875 47.703125 
L 19.921875 47.703125 
L 19.921875 0 
L 10.890625 0 
L 10.890625 47.703125 
L 2.296875 47.703125 
L 2.296875 54.6875 
L 10.890625 54.6875 
L 10.890625 58.5 
Q 10.890625 67.625 15.140625 71.796875 
Q 19.390625 75.984375 28.609375 75.984375 
z
" id="DejaVuSans-102"/>
      <path d="M 52 44.1875 
Q 55.375 50.25 60.0625 53.125 
Q 64.75 56 71.09375 56 
Q 79.640625 56 84.28125 50.015625 
Q 88.921875 44.046875 88.921875 33.015625 
L 88.921875 0 
L 79.890625 0 
L 79.890625 32.71875 
Q 79.890625 40.578125 77.09375 44.375 
Q 74.3125 48.1875 68.609375 48.1875 
Q 61.625 48.1875 57.5625 43.546875 
Q 53.515625 38.921875 53.515625 30.90625 
L 53.515625 0 
L 44.484375 0 
L 44.484375 32.71875 
Q 44.484375 40.625 41.703125 44.40625 
Q 38.921875 48.1875 33.109375 48.1875 
Q 26.21875 48.1875 22.15625 43.53125 
Q 18.109375 38.875 18.109375 30.90625 
L 18.109375 0 
L 9.078125 0 
L 9.078125 54.6875 
L 18.109375 54.6875 
L 18.109375 46.1875 
Q 21.1875 51.21875 25.484375 53.609375 
Q 29.78125 56 35.6875 56 
Q 41.65625 56 45.828125 52.96875 
Q 50 49.953125 52 44.1875 
z
" id="DejaVuSans-109"/>
      <path d="M 31 75.875 
Q 24.46875 64.65625 21.28125 53.65625 
Q 18.109375 42.671875 18.109375 31.390625 
Q 18.109375 20.125 21.3125 9.0625 
Q 24.515625 -2 31 -13.1875 
L 23.1875 -13.1875 
Q 15.875 -1.703125 12.234375 9.375 
Q 8.59375 20.453125 8.59375 31.390625 
Q 8.59375 42.28125 12.203125 53.3125 
Q 15.828125 64.359375 23.1875 75.875 
z
" id="DejaVuSans-40"/>
      <path d="M 50.984375 -16.609375 
L 50.984375 -23.578125 
L -0.984375 -23.578125 
L -0.984375 -16.609375 
z
" id="DejaVuSans-95"/>
      <path d="M 8.015625 75.875 
L 15.828125 75.875 
Q 23.140625 64.359375 26.78125 53.3125 
Q 30.421875 42.28125 30.421875 31.390625 
Q 30.421875 20.453125 26.78125 9.375 
Q 23.140625 -1.703125 15.828125 -13.1875 
L 8.015625 -13.1875 
Q 14.5 -2 17.703125 9.0625 
Q 20.90625 20.125 20.90625 31.390625 
Q 20.90625 42.671875 17.703125 53.65625 
Q 14.5 64.65625 8.015625 75.875 
z
" id="DejaVuSans-41"/>
     </defs>
     <use xlink:href="#DejaVuSans-111"/>
     <use x="61.181641" xlink:href="#DejaVuSans-117"/>
     <use x="124.560547" xlink:href="#DejaVuSans-116"/>
     <use x="163.769531" xlink:href="#DejaVuSans-112"/>
     <use x="227.246094" xlink:href="#DejaVuSans-117"/>
     <use x="290.625" xlink:href="#DejaVuSans-116"/>
     <use x="329.833984" xlink:href="#DejaVuSans-32"/>
     <use x="361.621094" xlink:href="#DejaVuSans-119"/>
     <use x="443.408203" xlink:href="#DejaVuSans-105"/>
     <use x="471.191406" xlink:href="#DejaVuSans-116"/>
     <use x="510.400391" xlink:href="#DejaVuSans-104"/>
     <use x="573.779297" xlink:href="#DejaVuSans-32"/>
     <use x="605.566406" xlink:href="#DejaVuSans-97"/>
     <use x="666.845703" xlink:href="#DejaVuSans-32"/>
     <use x="698.632812" xlink:href="#DejaVuSans-115"/>
     <use x="750.732422" xlink:href="#DejaVuSans-105"/>
     <use x="778.515625" xlink:href="#DejaVuSans-110"/>
     <use x="841.894531" xlink:href="#DejaVuSans-101"/>
     <use x="903.417969" xlink:href="#DejaVuSans-32"/>
     <use x="935.205078" xlink:href="#DejaVuSans-99"/>
     <use x="990.185547" xlink:href="#DejaVuSans-111"/>
     <use x="1051.367188" xlink:href="#DejaVuSans-110"/>
     <use x="1114.746094" xlink:href="#DejaVuSans-116"/>
     <use x="1153.955078" xlink:href="#DejaVuSans-114"/>
     <use x="1192.818359" xlink:href="#DejaVuSans-111"/>
     <use x="1254" xlink:href="#DejaVuSans-108"/>
     <use x="1281.783203" xlink:href="#DejaVuSans-32"/>
     <use x="1313.570312" xlink:href="#DejaVuSans-118"/>
     <use x="1372.75" xlink:href="#DejaVuSans-111"/>
     <use x="1433.931641" xlink:href="#DejaVuSans-108"/>
     <use x="1461.714844" xlink:href="#DejaVuSans-116"/>
     <use x="1500.923828" xlink:href="#DejaVuSans-97"/>
     <use x="1562.203125" xlink:href="#DejaVuSans-103"/>
     <use x="1625.679688" xlink:href="#DejaVuSans-101"/>
     <use x="1687.203125" xlink:href="#DejaVuSans-44"/>
     <use x="1718.990234" xlink:href="#DejaVuSans-32"/>
     <use x="1750.777344" xlink:href="#DejaVuSans-98"/>
     <use x="1814.253906" xlink:href="#DejaVuSans-105"/>
     <use x="1842.037109" xlink:href="#DejaVuSans-97"/>
     <use x="1903.316406" xlink:href="#DejaVuSans-115"/>
     <use x="1955.416016" xlink:href="#DejaVuSans-101"/>
     <use x="2016.939453" xlink:href="#DejaVuSans-100"/>
     <use x="2080.416016" xlink:href="#DejaVuSans-32"/>
     <use x="2112.203125" xlink:href="#DejaVuSans-102"/>
     <use x="2147.408203" xlink:href="#DejaVuSans-111"/>
     <use x="2208.589844" xlink:href="#DejaVuSans-114"/>
     <use x="2249.703125" xlink:href="#DejaVuSans-32"/>
     <use x="2281.490234" xlink:href="#DejaVuSans-97"/>
     <use x="2342.769531" xlink:href="#DejaVuSans-109"/>
     <use x="2440.181641" xlink:href="#DejaVuSans-32"/>
     <use x="2471.96875" xlink:href="#DejaVuSans-40"/>
     <use x="2510.982422" xlink:href="#DejaVuSans-86"/>
     <use x="2577.140625" xlink:href="#DejaVuSans-105"/>
     <use x="2604.923828" xlink:href="#DejaVuSans-110"/>
     <use x="2668.302734" xlink:href="#DejaVuSans-95"/>
     <use x="2718.302734" xlink:href="#DejaVuSans-98"/>
     <use x="2781.779297" xlink:href="#DejaVuSans-32"/>
     <use x="2813.566406" xlink:href="#DejaVuSans-105"/>
     <use x="2841.349609" xlink:href="#DejaVuSans-115"/>
     <use x="2893.449219" xlink:href="#DejaVuSans-32"/>
     <use x="2925.236328" xlink:href="#DejaVuSans-115"/>
     <use x="2977.335938" xlink:href="#DejaVuSans-99"/>
     <use x="3032.316406" xlink:href="#DejaVuSans-97"/>
     <use x="3093.595703" xlink:href="#DejaVuSans-108"/>
     <use x="3121.378906" xlink:href="#DejaVuSans-101"/>
     <use x="3182.902344" xlink:href="#DejaVuSans-100"/>
     <use x="3246.378906" xlink:href="#DejaVuSans-41"/>
     <use x="3285.392578" xlink:href="#DejaVuSans-46"/>
    </g>
   </g>
  </g>
  <g id="axes_2">
   <g id="patch_7">
    <path d="M 419.380055 335.397072 
L 714.79182 335.397072 
L 714.79182 9.237072 
L 419.380055 9.237072 
z
" style="fill:#ffffff;"/>
   </g>
   <g id="matplotlib.axis_3">
    <g id="xtick_10">
     <g id="line2d_40">
      <g>
       <use style="stroke:#000000;stroke-width:0.8;" x="432.807863" xlink:href="#m08c6da96f9" y="335.397072"/>
      </g>
     </g>
     <g id="text_22">
      <!-- 0 -->
      <g transform="translate(429.626613 349.995509)scale(0.1 -0.1)">
       <use xlink:href="#DejaVuSans-48"/>
      </g>
     </g>
    </g>
    <g id="xtick_11">
     <g id="line2d_41">
      <g>
       <use style="stroke:#000000;stroke-width:0.8;" x="486.529837" xlink:href="#m08c6da96f9" y="335.397072"/>
      </g>
     </g>
     <g id="text_23">
      <!-- 1000 -->
      <g transform="translate(473.804837 349.995509)scale(0.1 -0.1)">
       <use xlink:href="#DejaVuSans-49"/>
       <use x="63.623047" xlink:href="#DejaVuSans-48"/>
       <use x="127.246094" xlink:href="#DejaVuSans-48"/>
       <use x="190.869141" xlink:href="#DejaVuSans-48"/>
      </g>
     </g>
    </g>
    <g id="xtick_12">
     <g id="line2d_42">
      <g>
       <use style="stroke:#000000;stroke-width:0.8;" x="540.251811" xlink:href="#m08c6da96f9" y="335.397072"/>
      </g>
     </g>
     <g id="text_24">
      <!-- 2000 -->
      <g transform="translate(527.526811 349.995509)scale(0.1 -0.1)">
       <use xlink:href="#DejaVuSans-50"/>
       <use x="63.623047" xlink:href="#DejaVuSans-48"/>
       <use x="127.246094" xlink:href="#DejaVuSans-48"/>
       <use x="190.869141" xlink:href="#DejaVuSans-48"/>
      </g>
     </g>
    </g>
    <g id="xtick_13">
     <g id="line2d_43">
      <g>
       <use style="stroke:#000000;stroke-width:0.8;" x="593.973786" xlink:href="#m08c6da96f9" y="335.397072"/>
      </g>
     </g>
     <g id="text_25">
      <!-- 3000 -->
      <g transform="translate(581.248786 349.995509)scale(0.1 -0.1)">
       <defs>
        <path d="M 40.578125 39.3125 
Q 47.65625 37.796875 51.625 33 
Q 55.609375 28.21875 55.609375 21.1875 
Q 55.609375 10.40625 48.1875 4.484375 
Q 40.765625 -1.421875 27.09375 -1.421875 
Q 22.515625 -1.421875 17.65625 -0.515625 
Q 12.796875 0.390625 7.625 2.203125 
L 7.625 11.71875 
Q 11.71875 9.328125 16.59375 8.109375 
Q 21.484375 6.890625 26.8125 6.890625 
Q 36.078125 6.890625 40.9375 10.546875 
Q 45.796875 14.203125 45.796875 21.1875 
Q 45.796875 27.640625 41.28125 31.265625 
Q 36.765625 34.90625 28.71875 34.90625 
L 20.21875 34.90625 
L 20.21875 43.015625 
L 29.109375 43.015625 
Q 36.375 43.015625 40.234375 45.921875 
Q 44.09375 48.828125 44.09375 54.296875 
Q 44.09375 59.90625 40.109375 62.90625 
Q 36.140625 65.921875 28.71875 65.921875 
Q 24.65625 65.921875 20.015625 65.03125 
Q 15.375 64.15625 9.8125 62.3125 
L 9.8125 71.09375 
Q 15.4375 72.65625 20.34375 73.4375 
Q 25.25 74.21875 29.59375 74.21875 
Q 40.828125 74.21875 47.359375 69.109375 
Q 53.90625 64.015625 53.90625 55.328125 
Q 53.90625 49.265625 50.4375 45.09375 
Q 46.96875 40.921875 40.578125 39.3125 
z
" id="DejaVuSans-51"/>
       </defs>
       <use xlink:href="#DejaVuSans-51"/>
       <use x="63.623047" xlink:href="#DejaVuSans-48"/>
       <use x="127.246094" xlink:href="#DejaVuSans-48"/>
       <use x="190.869141" xlink:href="#DejaVuSans-48"/>
      </g>
     </g>
    </g>
    <g id="xtick_14">
     <g id="line2d_44">
      <g>
       <use style="stroke:#000000;stroke-width:0.8;" x="647.69576" xlink:href="#m08c6da96f9" y="335.397072"/>
      </g>
     </g>
     <g id="text_26">
      <!-- 4000 -->
      <g transform="translate(634.97076 349.995509)scale(0.1 -0.1)">
       <use xlink:href="#DejaVuSans-52"/>
       <use x="63.623047" xlink:href="#DejaVuSans-48"/>
       <use x="127.246094" xlink:href="#DejaVuSans-48"/>
       <use x="190.869141" xlink:href="#DejaVuSans-48"/>
      </g>
     </g>
    </g>
    <g id="xtick_15">
     <g id="line2d_45">
      <g>
       <use style="stroke:#000000;stroke-width:0.8;" x="701.417734" xlink:href="#m08c6da96f9" y="335.397072"/>
      </g>
     </g>
     <g id="text_27">
      <!-- 5000 -->
      <g transform="translate(688.692734 349.995509)scale(0.1 -0.1)">
       <use xlink:href="#DejaVuSans-53"/>
       <use x="63.623047" xlink:href="#DejaVuSans-48"/>
       <use x="127.246094" xlink:href="#DejaVuSans-48"/>
       <use x="190.869141" xlink:href="#DejaVuSans-48"/>
      </g>
     </g>
    </g>
   </g>
   <g id="matplotlib.axis_4">
    <g id="ytick_10">
     <g id="line2d_46">
      <g>
       <use style="stroke:#000000;stroke-width:0.8;" x="419.380055" xlink:href="#m50aefca1c3" y="320.581106"/>
      </g>
     </g>
     <g id="text_28">
      <!-- 0.0000 -->
      <g transform="translate(377.38943 324.380325)scale(0.1 -0.1)">
       <use xlink:href="#DejaVuSans-48"/>
       <use x="63.623047" xlink:href="#DejaVuSans-46"/>
       <use x="95.410156" xlink:href="#DejaVuSans-48"/>
       <use x="159.033203" xlink:href="#DejaVuSans-48"/>
       <use x="222.65625" xlink:href="#DejaVuSans-48"/>
       <use x="286.279297" xlink:href="#DejaVuSans-48"/>
      </g>
     </g>
    </g>
    <g id="ytick_11">
     <g id="line2d_47">
      <g>
       <use style="stroke:#000000;stroke-width:0.8;" x="419.380055" xlink:href="#m50aefca1c3" y="279.16169"/>
      </g>
     </g>
     <g id="text_29">
      <!-- 0.0005 -->
      <g transform="translate(377.38943 282.960908)scale(0.1 -0.1)">
       <use xlink:href="#DejaVuSans-48"/>
       <use x="63.623047" xlink:href="#DejaVuSans-46"/>
       <use x="95.410156" xlink:href="#DejaVuSans-48"/>
       <use x="159.033203" xlink:href="#DejaVuSans-48"/>
       <use x="222.65625" xlink:href="#DejaVuSans-48"/>
       <use x="286.279297" xlink:href="#DejaVuSans-53"/>
      </g>
     </g>
    </g>
    <g id="ytick_12">
     <g id="line2d_48">
      <g>
       <use style="stroke:#000000;stroke-width:0.8;" x="419.380055" xlink:href="#m50aefca1c3" y="237.742273"/>
      </g>
     </g>
     <g id="text_30">
      <!-- 0.0010 -->
      <g transform="translate(377.38943 241.541492)scale(0.1 -0.1)">
       <use xlink:href="#DejaVuSans-48"/>
       <use x="63.623047" xlink:href="#DejaVuSans-46"/>
       <use x="95.410156" xlink:href="#DejaVuSans-48"/>
       <use x="159.033203" xlink:href="#DejaVuSans-48"/>
       <use x="222.65625" xlink:href="#DejaVuSans-49"/>
       <use x="286.279297" xlink:href="#DejaVuSans-48"/>
      </g>
     </g>
    </g>
    <g id="ytick_13">
     <g id="line2d_49">
      <g>
       <use style="stroke:#000000;stroke-width:0.8;" x="419.380055" xlink:href="#m50aefca1c3" y="196.322857"/>
      </g>
     </g>
     <g id="text_31">
      <!-- 0.0015 -->
      <g transform="translate(377.38943 200.122076)scale(0.1 -0.1)">
       <use xlink:href="#DejaVuSans-48"/>
       <use x="63.623047" xlink:href="#DejaVuSans-46"/>
       <use x="95.410156" xlink:href="#DejaVuSans-48"/>
       <use x="159.033203" xlink:href="#DejaVuSans-48"/>
       <use x="222.65625" xlink:href="#DejaVuSans-49"/>
       <use x="286.279297" xlink:href="#DejaVuSans-53"/>
      </g>
     </g>
    </g>
    <g id="ytick_14">
     <g id="line2d_50">
      <g>
       <use style="stroke:#000000;stroke-width:0.8;" x="419.380055" xlink:href="#m50aefca1c3" y="154.903441"/>
      </g>
     </g>
     <g id="text_32">
      <!-- 0.0020 -->
      <g transform="translate(377.38943 158.70266)scale(0.1 -0.1)">
       <use xlink:href="#DejaVuSans-48"/>
       <use x="63.623047" xlink:href="#DejaVuSans-46"/>
       <use x="95.410156" xlink:href="#DejaVuSans-48"/>
       <use x="159.033203" xlink:href="#DejaVuSans-48"/>
       <use x="222.65625" xlink:href="#DejaVuSans-50"/>
       <use x="286.279297" xlink:href="#DejaVuSans-48"/>
      </g>
     </g>
    </g>
    <g id="ytick_15">
     <g id="line2d_51">
      <g>
       <use style="stroke:#000000;stroke-width:0.8;" x="419.380055" xlink:href="#m50aefca1c3" y="113.484025"/>
      </g>
     </g>
     <g id="text_33">
      <!-- 0.0025 -->
      <g transform="translate(377.38943 117.283243)scale(0.1 -0.1)">
       <use xlink:href="#DejaVuSans-48"/>
       <use x="63.623047" xlink:href="#DejaVuSans-46"/>
       <use x="95.410156" xlink:href="#DejaVuSans-48"/>
       <use x="159.033203" xlink:href="#DejaVuSans-48"/>
       <use x="222.65625" xlink:href="#DejaVuSans-50"/>
       <use x="286.279297" xlink:href="#DejaVuSans-53"/>
      </g>
     </g>
    </g>
    <g id="ytick_16">
     <g id="line2d_52">
      <g>
       <use style="stroke:#000000;stroke-width:0.8;" x="419.380055" xlink:href="#m50aefca1c3" y="72.064608"/>
      </g>
     </g>
     <g id="text_34">
      <!-- 0.0030 -->
      <g transform="translate(377.38943 75.863827)scale(0.1 -0.1)">
       <use xlink:href="#DejaVuSans-48"/>
       <use x="63.623047" xlink:href="#DejaVuSans-46"/>
       <use x="95.410156" xlink:href="#DejaVuSans-48"/>
       <use x="159.033203" xlink:href="#DejaVuSans-48"/>
       <use x="222.65625" xlink:href="#DejaVuSans-51"/>
       <use x="286.279297" xlink:href="#DejaVuSans-48"/>
      </g>
     </g>
    </g>
    <g id="ytick_17">
     <g id="line2d_53">
      <g>
       <use style="stroke:#000000;stroke-width:0.8;" x="419.380055" xlink:href="#m50aefca1c3" y="30.645192"/>
      </g>
     </g>
     <g id="text_35">
      <!-- 0.0035 -->
      <g transform="translate(377.38943 34.444411)scale(0.1 -0.1)">
       <use xlink:href="#DejaVuSans-48"/>
       <use x="63.623047" xlink:href="#DejaVuSans-46"/>
       <use x="95.410156" xlink:href="#DejaVuSans-48"/>
       <use x="159.033203" xlink:href="#DejaVuSans-48"/>
       <use x="222.65625" xlink:href="#DejaVuSans-51"/>
       <use x="286.279297" xlink:href="#DejaVuSans-53"/>
      </g>
     </g>
    </g>
   </g>
   <g id="line2d_54">
    <path clip-path="url(#pf921a2d73b)" d="M 432.807863 316.157903 
L 432.83471 317.504681 
L 432.861558 293.318766 
L 432.9421 317.680661 
L 432.968948 319.816884 
L 433.049491 317.957081 
L 433.076338 318.172411 
L 433.103186 318.137745 
L 433.130033 317.200481 
L 433.156881 318.361149 
L 433.183728 317.770789 
L 433.210576 318.603298 
L 433.237424 313.999453 
L 433.264271 318.850183 
L 433.344814 24.062526 
L 433.317966 319.185885 
L 433.398509 165.58777 
L 433.532747 318.489256 
L 433.559594 317.565404 
L 433.613289 318.736478 
L 433.881765 319.722616 
L 433.908613 319.219839 
L 433.93546 319.127887 
L 433.962308 319.290498 
L 434.096546 319.416402 
L 434.606649 319.735948 
L 435.465771 320.001054 
L 436.969235 320.20354 
L 440.029856 320.354215 
L 447.815649 320.461498 
L 474.904838 320.542324 
L 594.108007 320.569351 
L 701.364012 320.571617 
L 701.364012 320.571617 
" style="fill:none;stroke:#1f77b4;stroke-linecap:square;stroke-width:1.5;"/>
   </g>
   <g id="patch_8">
    <path d="M 419.380055 335.397072 
L 419.380055 9.237072 
" style="fill:none;stroke:#000000;stroke-linecap:square;stroke-linejoin:miter;stroke-width:0.8;"/>
   </g>
   <g id="patch_9">
    <path d="M 714.79182 335.397072 
L 714.79182 9.237072 
" style="fill:none;stroke:#000000;stroke-linecap:square;stroke-linejoin:miter;stroke-width:0.8;"/>
   </g>
   <g id="patch_10">
    <path d="M 419.380055 335.397072 
L 714.79182 335.397072 
" style="fill:none;stroke:#000000;stroke-linecap:square;stroke-linejoin:miter;stroke-width:0.8;"/>
   </g>
   <g id="patch_11">
    <path d="M 419.380055 9.237072 
L 714.79182 9.237072 
" style="fill:none;stroke:#000000;stroke-linecap:square;stroke-linejoin:miter;stroke-width:0.8;"/>
   </g>
  </g>
  <g id="axes_3">
   <g id="patch_12">
    <path d="M 773.874173 335.397072 
L 1069.285938 335.397072 
L 1069.285938 9.237072 
L 773.874173 9.237072 
z
" style="fill:#ffffff;"/>
   </g>
   <g id="matplotlib.axis_5">
    <g id="xtick_16">
     <g id="line2d_55">
      <g>
       <use style="stroke:#000000;stroke-width:0.8;" x="787.30198" xlink:href="#m08c6da96f9" y="335.397072"/>
      </g>
     </g>
     <g id="text_36">
      <!-- 0 -->
      <g transform="translate(784.12073 349.995509)scale(0.1 -0.1)">
       <use xlink:href="#DejaVuSans-48"/>
      </g>
     </g>
    </g>
    <g id="xtick_17">
     <g id="line2d_56">
      <g>
       <use style="stroke:#000000;stroke-width:0.8;" x="820.859754" xlink:href="#m08c6da96f9" y="335.397072"/>
      </g>
     </g>
     <g id="text_37">
      <!-- 2500 -->
      <g transform="translate(808.134754 349.995509)scale(0.1 -0.1)">
       <use xlink:href="#DejaVuSans-50"/>
       <use x="63.623047" xlink:href="#DejaVuSans-53"/>
       <use x="127.246094" xlink:href="#DejaVuSans-48"/>
       <use x="190.869141" xlink:href="#DejaVuSans-48"/>
      </g>
     </g>
    </g>
    <g id="xtick_18">
     <g id="line2d_57">
      <g>
       <use style="stroke:#000000;stroke-width:0.8;" x="854.417527" xlink:href="#m08c6da96f9" y="335.397072"/>
      </g>
     </g>
     <g id="text_38">
      <!-- 5000 -->
      <g transform="translate(841.692527 349.995509)scale(0.1 -0.1)">
       <use xlink:href="#DejaVuSans-53"/>
       <use x="63.623047" xlink:href="#DejaVuSans-48"/>
       <use x="127.246094" xlink:href="#DejaVuSans-48"/>
       <use x="190.869141" xlink:href="#DejaVuSans-48"/>
      </g>
     </g>
    </g>
    <g id="xtick_19">
     <g id="line2d_58">
      <g>
       <use style="stroke:#000000;stroke-width:0.8;" x="887.975301" xlink:href="#m08c6da96f9" y="335.397072"/>
      </g>
     </g>
     <g id="text_39">
      <!-- 7500 -->
      <g transform="translate(875.250301 349.995509)scale(0.1 -0.1)">
       <use xlink:href="#DejaVuSans-55"/>
       <use x="63.623047" xlink:href="#DejaVuSans-53"/>
       <use x="127.246094" xlink:href="#DejaVuSans-48"/>
       <use x="190.869141" xlink:href="#DejaVuSans-48"/>
      </g>
     </g>
    </g>
    <g id="xtick_20">
     <g id="line2d_59">
      <g>
       <use style="stroke:#000000;stroke-width:0.8;" x="921.533074" xlink:href="#m08c6da96f9" y="335.397072"/>
      </g>
     </g>
     <g id="text_40">
      <!-- 10000 -->
      <g transform="translate(905.626824 349.995509)scale(0.1 -0.1)">
       <use xlink:href="#DejaVuSans-49"/>
       <use x="63.623047" xlink:href="#DejaVuSans-48"/>
       <use x="127.246094" xlink:href="#DejaVuSans-48"/>
       <use x="190.869141" xlink:href="#DejaVuSans-48"/>
       <use x="254.492188" xlink:href="#DejaVuSans-48"/>
      </g>
     </g>
    </g>
    <g id="xtick_21">
     <g id="line2d_60">
      <g>
       <use style="stroke:#000000;stroke-width:0.8;" x="955.090848" xlink:href="#m08c6da96f9" y="335.397072"/>
      </g>
     </g>
     <g id="text_41">
      <!-- 12500 -->
      <g transform="translate(939.184598 349.995509)scale(0.1 -0.1)">
       <use xlink:href="#DejaVuSans-49"/>
       <use x="63.623047" xlink:href="#DejaVuSans-50"/>
       <use x="127.246094" xlink:href="#DejaVuSans-53"/>
       <use x="190.869141" xlink:href="#DejaVuSans-48"/>
       <use x="254.492188" xlink:href="#DejaVuSans-48"/>
      </g>
     </g>
    </g>
    <g id="xtick_22">
     <g id="line2d_61">
      <g>
       <use style="stroke:#000000;stroke-width:0.8;" x="988.648621" xlink:href="#m08c6da96f9" y="335.397072"/>
      </g>
     </g>
     <g id="text_42">
      <!-- 15000 -->
      <g transform="translate(972.742371 349.995509)scale(0.1 -0.1)">
       <use xlink:href="#DejaVuSans-49"/>
       <use x="63.623047" xlink:href="#DejaVuSans-53"/>
       <use x="127.246094" xlink:href="#DejaVuSans-48"/>
       <use x="190.869141" xlink:href="#DejaVuSans-48"/>
       <use x="254.492188" xlink:href="#DejaVuSans-48"/>
      </g>
     </g>
    </g>
    <g id="xtick_23">
     <g id="line2d_62">
      <g>
       <use style="stroke:#000000;stroke-width:0.8;" x="1022.206395" xlink:href="#m08c6da96f9" y="335.397072"/>
      </g>
     </g>
     <g id="text_43">
      <!-- 17500 -->
      <g transform="translate(1006.300145 349.995509)scale(0.1 -0.1)">
       <use xlink:href="#DejaVuSans-49"/>
       <use x="63.623047" xlink:href="#DejaVuSans-55"/>
       <use x="127.246094" xlink:href="#DejaVuSans-53"/>
       <use x="190.869141" xlink:href="#DejaVuSans-48"/>
       <use x="254.492188" xlink:href="#DejaVuSans-48"/>
      </g>
     </g>
    </g>
    <g id="xtick_24">
     <g id="line2d_63">
      <g>
       <use style="stroke:#000000;stroke-width:0.8;" x="1055.764168" xlink:href="#m08c6da96f9" y="335.397072"/>
      </g>
     </g>
     <g id="text_44">
      <!-- 20000 -->
      <g transform="translate(1039.857918 349.995509)scale(0.1 -0.1)">
       <use xlink:href="#DejaVuSans-50"/>
       <use x="63.623047" xlink:href="#DejaVuSans-48"/>
       <use x="127.246094" xlink:href="#DejaVuSans-48"/>
       <use x="190.869141" xlink:href="#DejaVuSans-48"/>
       <use x="254.492188" xlink:href="#DejaVuSans-48"/>
      </g>
     </g>
    </g>
   </g>
   <g id="matplotlib.axis_6">
    <g id="ytick_18">
     <g id="line2d_64">
      <g>
       <use style="stroke:#000000;stroke-width:0.8;" x="773.874173" xlink:href="#m50aefca1c3" y="333.446025"/>
      </g>
     </g>
     <g id="text_45">
      <!-- −15 -->
      <g transform="translate(745.769485 337.245243)scale(0.1 -0.1)">
       <use xlink:href="#DejaVuSans-8722"/>
       <use x="83.789062" xlink:href="#DejaVuSans-49"/>
       <use x="147.412109" xlink:href="#DejaVuSans-53"/>
      </g>
     </g>
    </g>
    <g id="ytick_19">
     <g id="line2d_65">
      <g>
       <use style="stroke:#000000;stroke-width:0.8;" x="773.874173" xlink:href="#m50aefca1c3" y="295.418892"/>
      </g>
     </g>
     <g id="text_46">
      <!-- −10 -->
      <g transform="translate(745.769485 299.21811)scale(0.1 -0.1)">
       <use xlink:href="#DejaVuSans-8722"/>
       <use x="83.789062" xlink:href="#DejaVuSans-49"/>
       <use x="147.412109" xlink:href="#DejaVuSans-48"/>
      </g>
     </g>
    </g>
    <g id="ytick_20">
     <g id="line2d_66">
      <g>
       <use style="stroke:#000000;stroke-width:0.8;" x="773.874173" xlink:href="#m50aefca1c3" y="257.391759"/>
      </g>
     </g>
     <g id="text_47">
      <!-- −5 -->
      <g transform="translate(752.131985 261.190977)scale(0.1 -0.1)">
       <use xlink:href="#DejaVuSans-8722"/>
       <use x="83.789062" xlink:href="#DejaVuSans-53"/>
      </g>
     </g>
    </g>
    <g id="ytick_21">
     <g id="line2d_67">
      <g>
       <use style="stroke:#000000;stroke-width:0.8;" x="773.874173" xlink:href="#m50aefca1c3" y="219.364626"/>
      </g>
     </g>
     <g id="text_48">
      <!-- 0 -->
      <g transform="translate(760.511673 223.163844)scale(0.1 -0.1)">
       <use xlink:href="#DejaVuSans-48"/>
      </g>
     </g>
    </g>
    <g id="ytick_22">
     <g id="line2d_68">
      <g>
       <use style="stroke:#000000;stroke-width:0.8;" x="773.874173" xlink:href="#m50aefca1c3" y="181.337492"/>
      </g>
     </g>
     <g id="text_49">
      <!-- 5 -->
      <g transform="translate(760.511673 185.136711)scale(0.1 -0.1)">
       <use xlink:href="#DejaVuSans-53"/>
      </g>
     </g>
    </g>
    <g id="ytick_23">
     <g id="line2d_69">
      <g>
       <use style="stroke:#000000;stroke-width:0.8;" x="773.874173" xlink:href="#m50aefca1c3" y="143.310359"/>
      </g>
     </g>
     <g id="text_50">
      <!-- 10 -->
      <g transform="translate(754.149173 147.109578)scale(0.1 -0.1)">
       <use xlink:href="#DejaVuSans-49"/>
       <use x="63.623047" xlink:href="#DejaVuSans-48"/>
      </g>
     </g>
    </g>
    <g id="ytick_24">
     <g id="line2d_70">
      <g>
       <use style="stroke:#000000;stroke-width:0.8;" x="773.874173" xlink:href="#m50aefca1c3" y="105.283226"/>
      </g>
     </g>
     <g id="text_51">
      <!-- 15 -->
      <g transform="translate(754.149173 109.082445)scale(0.1 -0.1)">
       <use xlink:href="#DejaVuSans-49"/>
       <use x="63.623047" xlink:href="#DejaVuSans-53"/>
      </g>
     </g>
    </g>
    <g id="ytick_25">
     <g id="line2d_71">
      <g>
       <use style="stroke:#000000;stroke-width:0.8;" x="773.874173" xlink:href="#m50aefca1c3" y="67.256093"/>
      </g>
     </g>
     <g id="text_52">
      <!-- 20 -->
      <g transform="translate(754.149173 71.055312)scale(0.1 -0.1)">
       <use xlink:href="#DejaVuSans-50"/>
       <use x="63.623047" xlink:href="#DejaVuSans-48"/>
      </g>
     </g>
    </g>
    <g id="ytick_26">
     <g id="line2d_72">
      <g>
       <use style="stroke:#000000;stroke-width:0.8;" x="773.874173" xlink:href="#m50aefca1c3" y="29.22896"/>
      </g>
     </g>
     <g id="text_53">
      <!-- 25 -->
      <g transform="translate(754.149173 33.028179)scale(0.1 -0.1)">
       <use xlink:href="#DejaVuSans-50"/>
       <use x="63.623047" xlink:href="#DejaVuSans-53"/>
      </g>
     </g>
    </g>
   </g>
   <g id="line2d_73">
    <path clip-path="url(#p194b1e564c)" d="M 787.30198 223.427189 
L 787.315403 222.185104 
L 787.328826 244.27708 
L 787.382519 219.906473 
L 787.422788 221.484421 
L 787.489904 219.584716 
L 787.463058 221.79537 
L 787.503327 220.598917 
L 787.51675 223.530514 
L 787.530173 219.743739 
L 787.570442 24.062526 
L 787.597289 320.571617 
L 787.637558 220.383362 
L 787.650981 221.555184 
L 787.73152 220.110144 
L 787.812058 219.664868 
L 787.852328 219.847519 
L 787.865751 220.067302 
L 787.94629 219.730775 
L 788.322137 219.536544 
L 789.127523 219.440007 
L 792.295377 219.393264 
L 816.940206 219.372936 
L 1054.851397 219.536544 
L 1055.240667 219.743762 
L 1055.307783 220.067302 
L 1055.348052 219.889607 
L 1055.361475 219.664868 
L 1055.442014 220.110144 
L 1055.482283 220.194306 
L 1055.549398 223.529069 
L 1055.562822 220.205339 
L 1055.576245 320.571617 
L 1055.603091 24.062526 
L 1055.670206 220.598917 
L 1055.68363 219.584716 
L 1055.710476 221.79537 
L 1055.764168 221.627132 
L 1055.777591 221.727904 
L 1055.791014 219.906473 
L 1055.831284 222.063108 
L 1055.844707 244.27708 
L 1055.85813 222.185104 
" style="fill:none;stroke:#1f77b4;stroke-linecap:square;stroke-width:1.5;"/>
   </g>
   <g id="patch_13">
    <path d="M 773.874173 335.397072 
L 773.874173 9.237072 
" style="fill:none;stroke:#000000;stroke-linecap:square;stroke-linejoin:miter;stroke-width:0.8;"/>
   </g>
   <g id="patch_14">
    <path d="M 1069.285938 335.397072 
L 1069.285938 9.237072 
" style="fill:none;stroke:#000000;stroke-linecap:square;stroke-linejoin:miter;stroke-width:0.8;"/>
   </g>
   <g id="patch_15">
    <path d="M 773.874173 335.397072 
L 1069.285938 335.397072 
" style="fill:none;stroke:#000000;stroke-linecap:square;stroke-linejoin:miter;stroke-width:0.8;"/>
   </g>
   <g id="patch_16">
    <path d="M 773.874173 9.237072 
L 1069.285938 9.237072 
" style="fill:none;stroke:#000000;stroke-linecap:square;stroke-linejoin:miter;stroke-width:0.8;"/>
   </g>
  </g>
 </g>
 <defs>
  <clipPath id="p2ffddf95ae">
   <rect height="326.16" width="295.411765" x="64.885938" y="9.237072"/>
  </clipPath>
  <clipPath id="pf921a2d73b">
   <rect height="326.16" width="295.411765" x="419.380055" y="9.237072"/>
  </clipPath>
  <clipPath id="p194b1e564c">
   <rect height="326.16" width="295.411765" x="773.874173" y="9.237072"/>
  </clipPath>
 </defs>
</svg>
