<?xml version="1.0" encoding="utf-8" standalone="no"?>
<!DOCTYPE svg PUBLIC "-//W3C//DTD SVG 1.1//EN"
  "http://www.w3.org/Graphics/SVG/1.1/DTD/svg11.dtd">
<!-- Created with matplotlib (https://matplotlib.org/) -->
<svg height="250.054pt" version="1.1" viewBox="0 0 270.595343 250.054" width="270.595343pt" xmlns="http://www.w3.org/2000/svg" xmlns:xlink="http://www.w3.org/1999/xlink">
 <metadata>
  <rdf:RDF xmlns:cc="http://creativecommons.org/ns#" xmlns:dc="http://purl.org/dc/elements/1.1/" xmlns:rdf="http://www.w3.org/1999/02/22-rdf-syntax-ns#">
   <cc:Work>
    <dc:type rdf:resource="http://purl.org/dc/dcmitype/StillImage"/>
    <dc:date>2021-03-29T15:57:43.184787</dc:date>
    <dc:format>image/svg+xml</dc:format>
    <dc:creator>
     <cc:Agent>
      <dc:title>Matplotlib v3.3.4, https://matplotlib.org/</dc:title>
     </cc:Agent>
    </dc:creator>
   </cc:Work>
  </rdf:RDF>
 </metadata>
 <defs>
  <style type="text/css">*{stroke-linecap:butt;stroke-linejoin:round;}</style>
 </defs>
 <g id="figure_1">
  <g id="patch_1">
   <path d="M 0 250.054 
L 270.595343 250.054 
L 270.595343 0 
L 0 0 
z
" style="fill:none;"/>
  </g>
  <g id="axes_1">
   <g id="patch_2">
    <path clip-path="url(#p030caa3fab)" d="M 53.0286 159.01 
L 60.6786 156.715 
L 60.6786 158.9947 
L 67.4106 158.9947 
L 67.4106 159.0253 
L 60.6786 159.0253 
L 60.6786 161.305 
z
" style="stroke:#000000;stroke-linejoin:miter;stroke-width:2;"/>
   </g>
   <g id="line2d_1">
    <path clip-path="url(#p030caa3fab)" d="M 144.8286 116.935 
L 144.8286 78.685 
L 211.079543 116.935 
L 144.8286 155.185 
L 144.8286 116.935 
M 211.079543 116.935 
" style="fill:none;stroke:#000000;stroke-linecap:round;stroke-width:2;"/>
   </g>
   <g id="line2d_2">
    <path clip-path="url(#p030caa3fab)" d="M 150.049968 97.81 
L 156.169968 97.81 
" style="fill:none;stroke:#000000;stroke-linecap:round;stroke-width:2;"/>
   </g>
   <g id="line2d_3">
    <path clip-path="url(#p030caa3fab)" d="M 150.049968 136.06 
L 156.169968 136.06 
" style="fill:none;stroke:#000000;stroke-linecap:round;stroke-width:2;"/>
   </g>
   <g id="line2d_4">
    <path clip-path="url(#p030caa3fab)" d="M 153.109968 139.12 
L 153.109968 133 
" style="fill:none;stroke:#000000;stroke-linecap:round;stroke-width:2;"/>
   </g>
   <g id="line2d_5">
    <path clip-path="url(#p030caa3fab)" d="M 144.8286 97.81 
L 141.0036 97.81 
L 137.1786 97.81 
" style="fill:none;stroke:#000000;stroke-linecap:round;stroke-width:2;"/>
   </g>
   <g id="line2d_6">
    <path clip-path="url(#p030caa3fab)" d="M 137.1786 97.81 
L 121.8786 97.81 
L 119.3286 105.46 
L 114.2286 90.16 
L 109.1286 105.46 
L 104.0286 90.16 
L 98.9286 105.46 
L 93.8286 90.16 
L 91.2786 97.81 
L 75.9786 97.81 
" style="fill:none;stroke:#000000;stroke-linecap:round;stroke-width:2;"/>
   </g>
   <g id="line2d_7">
    <path clip-path="url(#p030caa3fab)" d="M 75.9786 97.81 
L 75.9786 113.11 
L 83.6286 115.66 
L 68.3286 120.76 
L 83.6286 125.86 
L 68.3286 130.96 
L 83.6286 136.06 
L 68.3286 141.16 
L 75.9786 143.71 
L 75.9786 159.01 
" style="fill:none;stroke:#000000;stroke-linecap:round;stroke-width:2;"/>
   </g>
   <g id="line2d_8">
    <path clip-path="url(#p030caa3fab)" d="M 75.9786 159.01 
L 75.9786 174.31 
L 83.6286 176.86 
L 68.3286 181.96 
L 83.6286 187.06 
L 68.3286 192.16 
L 83.6286 197.26 
L 68.3286 202.36 
L 75.9786 204.91 
L 75.9786 220.21 
" style="fill:none;stroke:#000000;stroke-linecap:round;stroke-width:2;"/>
   </g>
   <g id="line2d_9">
    <path clip-path="url(#p030caa3fab)" d="M 75.9786 220.21 
L 75.9786 232.45 
L 68.3286 232.45 
L 83.6286 232.45 
M 70.6236 236.122 
L 81.3336 236.122 
M 74.4486 239.794 
L 77.5086 239.794 
" style="fill:none;stroke:#000000;stroke-linecap:round;stroke-width:2;"/>
   </g>
   <g id="line2d_10">
    <path clip-path="url(#p030caa3fab)" d="M 75.9786 97.81 
L 60.6786 97.81 
L 45.3786 97.81 
" style="fill:none;stroke:#000000;stroke-linecap:round;stroke-width:2;"/>
   </g>
   <g id="line2d_11">
    <path clip-path="url(#p030caa3fab)" d="M 45.3786 97.81 
L 45.3786 113.11 
L 45.3786 128.41 
" style="fill:none;stroke:#000000;stroke-linecap:round;stroke-width:2;"/>
   </g>
   <g id="line2d_12">
    <path clip-path="url(#p030caa3fab)" d="M 45.3786 128.41 
L 45.3786 143.71 
L 53.0286 146.26 
L 37.7286 151.36 
L 53.0286 156.46 
L 37.7286 161.56 
L 53.0286 166.66 
L 37.7286 171.76 
L 45.3786 174.31 
L 45.3786 189.61 
" style="fill:none;stroke:#000000;stroke-linecap:round;stroke-width:2;"/>
   </g>
   <g id="line2d_13">
    <path clip-path="url(#p030caa3fab)" d="M 45.3786 189.61 
L 45.3786 204.91 
L 45.3786 220.21 
" style="fill:none;stroke:#000000;stroke-linecap:round;stroke-width:2;"/>
   </g>
   <g id="line2d_14">
    <path clip-path="url(#p030caa3fab)" d="M 45.3786 220.21 
L 45.3786 232.45 
L 37.7286 232.45 
L 53.0286 232.45 
M 40.0236 236.122 
L 50.7336 236.122 
M 43.8486 239.794 
L 46.9086 239.794 
" style="fill:none;stroke:#000000;stroke-linecap:round;stroke-width:2;"/>
   </g>
   <g id="line2d_15">
    <path clip-path="url(#p030caa3fab)" d="M 45.3786 97.81 
L 37.7286 97.81 
L 30.0786 97.81 
" style="fill:none;stroke:#000000;stroke-linecap:round;stroke-width:2;"/>
   </g>
   <g id="line2d_16">
    <path clip-path="url(#p030caa3fab)" d="M 67.4106 159.01 
L 71.6946 159.01 
L 75.9786 159.01 
" style="fill:none;stroke:#000000;stroke-linecap:round;stroke-width:2;"/>
   </g>
   <g id="line2d_17">
    <path clip-path="url(#p030caa3fab)" d="M 75.9786 159.01 
L 91.2786 159.01 
L 106.5786 159.01 
" style="fill:none;stroke:#000000;stroke-linecap:round;stroke-width:2;"/>
   </g>
   <g id="line2d_18">
    <path clip-path="url(#p030caa3fab)" d="M 106.5786 159.01 
L 106.5786 141.262 
L 106.5786 123.514 
" style="fill:none;stroke:#000000;stroke-linecap:round;stroke-width:2;"/>
   </g>
   <g id="line2d_19">
    <path clip-path="url(#p030caa3fab)" d="M 106.5786 123.514 
L 125.8566 123.514 
L 145.1346 123.514 
" style="fill:none;stroke:#000000;stroke-linecap:round;stroke-width:2;"/>
   </g>
   <g id="line2d_20">
    <path clip-path="url(#p030caa3fab)" d="M 137.1786 97.81 
L 137.1786 67.21 
L 137.1786 36.61 
" style="fill:none;stroke:#000000;stroke-linecap:round;stroke-width:2;"/>
   </g>
   <g id="line2d_21">
    <path clip-path="url(#p030caa3fab)" d="M 137.1786 36.61 
L 162.654072 36.61 
L 165.204072 28.96 
L 170.304072 44.26 
L 175.404072 28.96 
L 180.504072 44.26 
L 185.604072 28.96 
L 190.704072 44.26 
L 193.254072 36.61 
L 218.729543 36.61 
" style="fill:none;stroke:#000000;stroke-linecap:round;stroke-width:2;"/>
   </g>
   <g id="line2d_22">
    <path clip-path="url(#p030caa3fab)" d="M 218.729543 36.61 
L 218.729543 76.7725 
L 218.729543 116.935 
" style="fill:none;stroke:#000000;stroke-linecap:round;stroke-width:2;"/>
   </g>
   <g id="line2d_23">
    <path clip-path="url(#p030caa3fab)" d="M 211.079543 116.935 
L 218.729543 116.935 
L 226.379543 116.935 
" style="fill:none;stroke:#000000;stroke-linecap:round;stroke-width:2;"/>
   </g>
   <g id="text_1">
    <!-- $U_1$ -->
    <g transform="translate(169.484072 72.713437)scale(0.14 -0.14)">
     <defs>
      <path d="M 15.484375 72.90625 
L 25.390625 72.90625 
L 16.796875 28.609375 
Q 16.265625 25.640625 16.046875 23.703125 
Q 15.828125 21.78125 15.828125 20.3125 
Q 15.828125 13.578125 19.578125 10.078125 
Q 23.34375 6.59375 30.609375 6.59375 
Q 40.046875 6.59375 45.28125 11.765625 
Q 50.53125 16.9375 52.78125 28.609375 
L 61.375 72.90625 
L 71.296875 72.90625 
L 62.5 27.390625 
Q 59.625 12.640625 51.5625 5.609375 
Q 43.5 -1.421875 29.5 -1.421875 
Q 18.5625 -1.421875 12.1875 4.078125 
Q 5.8125 9.578125 5.8125 19 
Q 5.8125 20.703125 6.046875 22.828125 
Q 6.296875 24.953125 6.78125 27.390625 
z
" id="DejaVuSans-Oblique-85"/>
      <path d="M 12.40625 8.296875 
L 28.515625 8.296875 
L 28.515625 63.921875 
L 10.984375 60.40625 
L 10.984375 69.390625 
L 28.421875 72.90625 
L 38.28125 72.90625 
L 38.28125 8.296875 
L 54.390625 8.296875 
L 54.390625 0 
L 12.40625 0 
z
" id="DejaVuSans-49"/>
     </defs>
     <use transform="translate(0 0.09375)" xlink:href="#DejaVuSans-Oblique-85"/>
     <use transform="translate(73.193359 -16.3125)scale(0.7)" xlink:href="#DejaVuSans-49"/>
    </g>
   </g>
   <g id="text_2">
    <!-- $R_1$ -->
    <g transform="translate(98.3886 84.188437)scale(0.14 -0.14)">
     <defs>
      <path d="M 25.203125 64.796875 
L 20.21875 38.921875 
L 32.90625 38.921875 
Q 40.375 38.921875 44.984375 43.046875 
Q 49.609375 47.171875 49.609375 53.8125 
Q 49.609375 59.125 46.5 61.953125 
Q 43.40625 64.796875 37.59375 64.796875 
z
M 43.3125 35.015625 
Q 46.4375 34.28125 48.515625 31.390625 
Q 50.59375 28.515625 53.328125 19.921875 
L 59.515625 0 
L 49.125 0 
L 43.40625 18.703125 
Q 41.21875 25.921875 38.328125 28.359375 
Q 35.453125 30.8125 29.5 30.8125 
L 18.609375 30.8125 
L 12.59375 0 
L 2.6875 0 
L 16.890625 72.90625 
L 39.109375 72.90625 
Q 49.21875 72.90625 54.609375 68.328125 
Q 60.015625 63.765625 60.015625 55.171875 
Q 60.015625 47.5625 55.421875 41.984375 
Q 50.828125 36.421875 43.3125 35.015625 
z
" id="DejaVuSans-Oblique-82"/>
     </defs>
     <use transform="translate(0 0.09375)" xlink:href="#DejaVuSans-Oblique-82"/>
     <use transform="translate(69.482422 -16.3125)scale(0.7)" xlink:href="#DejaVuSans-49"/>
    </g>
   </g>
   <g id="text_3">
    <!-- $R_3$ -->
    <g transform="translate(48.8886 132.273125)scale(0.14 -0.14)">
     <defs>
      <path d="M 40.578125 39.3125 
Q 47.65625 37.796875 51.625 33 
Q 55.609375 28.21875 55.609375 21.1875 
Q 55.609375 10.40625 48.1875 4.484375 
Q 40.765625 -1.421875 27.09375 -1.421875 
Q 22.515625 -1.421875 17.65625 -0.515625 
Q 12.796875 0.390625 7.625 2.203125 
L 7.625 11.71875 
Q 11.71875 9.328125 16.59375 8.109375 
Q 21.484375 6.890625 26.8125 6.890625 
Q 36.078125 6.890625 40.9375 10.546875 
Q 45.796875 14.203125 45.796875 21.1875 
Q 45.796875 27.640625 41.28125 31.265625 
Q 36.765625 34.90625 28.71875 34.90625 
L 20.21875 34.90625 
L 20.21875 43.015625 
L 29.109375 43.015625 
Q 36.375 43.015625 40.234375 45.921875 
Q 44.09375 48.828125 44.09375 54.296875 
Q 44.09375 59.90625 40.109375 62.90625 
Q 36.140625 65.921875 28.71875 65.921875 
Q 24.65625 65.921875 20.015625 65.03125 
Q 15.375 64.15625 9.8125 62.3125 
L 9.8125 71.09375 
Q 15.4375 72.65625 20.34375 73.4375 
Q 25.25 74.21875 29.59375 74.21875 
Q 40.828125 74.21875 47.359375 69.109375 
Q 53.90625 64.015625 53.90625 55.328125 
Q 53.90625 49.265625 50.4375 45.09375 
Q 46.96875 40.921875 40.578125 39.3125 
z
" id="DejaVuSans-51"/>
     </defs>
     <use transform="translate(0 0.09375)" xlink:href="#DejaVuSans-Oblique-82"/>
     <use transform="translate(69.482422 -16.3125)scale(0.7)" xlink:href="#DejaVuSans-51"/>
    </g>
   </g>
   <g id="text_4">
    <!-- $R_4$ -->
    <g transform="translate(48.8886 193.473125)scale(0.14 -0.14)">
     <defs>
      <path d="M 37.796875 64.3125 
L 12.890625 25.390625 
L 37.796875 25.390625 
z
M 35.203125 72.90625 
L 47.609375 72.90625 
L 47.609375 25.390625 
L 58.015625 25.390625 
L 58.015625 17.1875 
L 47.609375 17.1875 
L 47.609375 0 
L 37.796875 0 
L 37.796875 17.1875 
L 4.890625 17.1875 
L 4.890625 26.703125 
z
" id="DejaVuSans-52"/>
     </defs>
     <use transform="translate(0 0.09375)" xlink:href="#DejaVuSans-Oblique-82"/>
     <use transform="translate(69.482422 -16.3125)scale(0.7)" xlink:href="#DejaVuSans-52"/>
    </g>
   </g>
   <g id="text_5">
    <!-- $UV_1$ -->
    <g transform="translate(8.2086 162.873125)scale(0.14 -0.14)">
     <defs>
      <path d="M 20.609375 0 
L 7.8125 72.90625 
L 17.484375 72.90625 
L 28.078125 10.203125 
L 63.484375 72.90625 
L 74.21875 72.90625 
L 32.078125 0 
z
" id="DejaVuSans-Oblique-86"/>
     </defs>
     <use transform="translate(0 0.09375)" xlink:href="#DejaVuSans-Oblique-85"/>
     <use transform="translate(73.193359 0.09375)" xlink:href="#DejaVuSans-Oblique-86"/>
     <use transform="translate(141.601562 -16.3125)scale(0.7)" xlink:href="#DejaVuSans-49"/>
    </g>
   </g>
   <g id="text_6">
    <!-- $IN$ -->
    <g transform="translate(12.3186 101.673125)scale(0.14 -0.14)">
     <defs>
      <path d="M 16.890625 72.90625 
L 26.8125 72.90625 
L 12.59375 0 
L 2.6875 0 
z
" id="DejaVuSans-Oblique-73"/>
      <path d="M 16.890625 72.90625 
L 30.171875 72.90625 
L 50.296875 10.40625 
L 62.5 72.90625 
L 72.125 72.90625 
L 57.90625 0 
L 44.578125 0 
L 24.515625 62.890625 
L 12.3125 0 
L 2.6875 0 
z
" id="DejaVuSans-Oblique-78"/>
     </defs>
     <use transform="translate(0 0.09375)" xlink:href="#DejaVuSans-Oblique-73"/>
     <use transform="translate(29.492188 0.09375)" xlink:href="#DejaVuSans-Oblique-78"/>
    </g>
   </g>
   <g id="text_7">
    <!-- $R_2$ -->
    <g transform="translate(169.764072 22.988438)scale(0.14 -0.14)">
     <defs>
      <path d="M 19.1875 8.296875 
L 53.609375 8.296875 
L 53.609375 0 
L 7.328125 0 
L 7.328125 8.296875 
Q 12.9375 14.109375 22.625 23.890625 
Q 32.328125 33.6875 34.8125 36.53125 
Q 39.546875 41.84375 41.421875 45.53125 
Q 43.3125 49.21875 43.3125 52.78125 
Q 43.3125 58.59375 39.234375 62.25 
Q 35.15625 65.921875 28.609375 65.921875 
Q 23.96875 65.921875 18.8125 64.3125 
Q 13.671875 62.703125 7.8125 59.421875 
L 7.8125 69.390625 
Q 13.765625 71.78125 18.9375 73 
Q 24.125 74.21875 28.421875 74.21875 
Q 39.75 74.21875 46.484375 68.546875 
Q 53.21875 62.890625 53.21875 53.421875 
Q 53.21875 48.921875 51.53125 44.890625 
Q 49.859375 40.875 45.40625 35.40625 
Q 44.1875 33.984375 37.640625 27.21875 
Q 31.109375 20.453125 19.1875 8.296875 
z
" id="DejaVuSans-50"/>
     </defs>
     <use transform="translate(0 0.09375)" xlink:href="#DejaVuSans-Oblique-82"/>
     <use transform="translate(69.482422 -16.3125)scale(0.7)" xlink:href="#DejaVuSans-50"/>
    </g>
   </g>
   <g id="text_8">
    <!-- $OUT$ -->
    <g transform="translate(229.439543 120.798125)scale(0.14 -0.14)">
     <defs>
      <path d="M 45.609375 66.21875 
Q 37.5 66.21875 31.296875 62.28125 
Q 25.09375 58.34375 20.515625 50.296875 
Q 17.578125 45.171875 16.03125 39.40625 
Q 14.5 33.640625 14.5 27.78125 
Q 14.5 17.625 19.359375 12.109375 
Q 24.21875 6.59375 33.109375 6.59375 
Q 41.109375 6.59375 47.375 10.5625 
Q 53.65625 14.546875 58.109375 22.40625 
Q 61.078125 27.6875 62.640625 33.46875 
Q 64.203125 39.265625 64.203125 45.015625 
Q 64.203125 55.125 59.3125 60.671875 
Q 54.4375 66.21875 45.609375 66.21875 
z
M 32.8125 -1.421875 
Q 19.390625 -1.421875 11.6875 6.53125 
Q 4 14.5 4 28.328125 
Q 4 36.234375 7 44.484375 
Q 10.015625 52.734375 15.28125 59.1875 
Q 21.484375 66.75 29.09375 70.484375 
Q 36.71875 74.21875 45.90625 74.21875 
Q 59.28125 74.21875 66.984375 66.328125 
Q 74.703125 58.453125 74.703125 44.828125 
Q 74.703125 36.421875 71.765625 28.3125 
Q 68.84375 20.21875 63.375 13.625 
Q 57.125 6 49.578125 2.28125 
Q 42.046875 -1.421875 32.8125 -1.421875 
z
" id="DejaVuSans-Oblique-79"/>
      <path d="M 5.90625 72.90625 
L 67.578125 72.90625 
L 66.015625 64.59375 
L 39.984375 64.59375 
L 27.484375 0 
L 17.578125 0 
L 30.078125 64.59375 
L 4.296875 64.59375 
z
" id="DejaVuSans-Oblique-84"/>
     </defs>
     <use transform="translate(0 0.78125)" xlink:href="#DejaVuSans-Oblique-79"/>
     <use transform="translate(78.710938 0.78125)" xlink:href="#DejaVuSans-Oblique-85"/>
     <use transform="translate(151.904297 0.78125)" xlink:href="#DejaVuSans-Oblique-84"/>
    </g>
   </g>
   <g id="patch_3">
    <path clip-path="url(#p030caa3fab)" d="M 75.9786 100.105 
C 76.587241 100.105 77.171036 99.863184 77.60141 99.43281 
C 78.031784 99.002436 78.2736 98.418641 78.2736 97.81 
C 78.2736 97.201359 78.031784 96.617564 77.60141 96.18719 
C 77.171036 95.756816 76.587241 95.515 75.9786 95.515 
C 75.369959 95.515 74.786164 95.756816 74.35579 96.18719 
C 73.925416 96.617564 73.6836 97.201359 73.6836 97.81 
C 73.6836 98.418641 73.925416 99.002436 74.35579 99.43281 
C 74.786164 99.863184 75.369959 100.105 75.9786 100.105 
z
" style="stroke:#000000;stroke-linejoin:miter;stroke-width:2;"/>
   </g>
   <g id="patch_4">
    <path clip-path="url(#p030caa3fab)" d="M 75.9786 161.305 
C 76.587241 161.305 77.171036 161.063184 77.60141 160.63281 
C 78.031784 160.202436 78.2736 159.618641 78.2736 159.01 
C 78.2736 158.401359 78.031784 157.817564 77.60141 157.38719 
C 77.171036 156.956816 76.587241 156.715 75.9786 156.715 
C 75.369959 156.715 74.786164 156.956816 74.35579 157.38719 
C 73.925416 157.817564 73.6836 158.401359 73.6836 159.01 
C 73.6836 159.618641 73.925416 160.202436 74.35579 160.63281 
C 74.786164 161.063184 75.369959 161.305 75.9786 161.305 
z
" style="stroke:#000000;stroke-linejoin:miter;stroke-width:2;"/>
   </g>
   <g id="patch_5">
    <path clip-path="url(#p030caa3fab)" d="M 137.1786 100.105 
C 137.787241 100.105 138.371036 99.863184 138.80141 99.43281 
C 139.231784 99.002436 139.4736 98.418641 139.4736 97.81 
C 139.4736 97.201359 139.231784 96.617564 138.80141 96.18719 
C 138.371036 95.756816 137.787241 95.515 137.1786 95.515 
C 136.569959 95.515 135.986164 95.756816 135.55579 96.18719 
C 135.125416 96.617564 134.8836 97.201359 134.8836 97.81 
C 134.8836 98.418641 135.125416 99.002436 135.55579 99.43281 
C 135.986164 99.863184 136.569959 100.105 137.1786 100.105 
z
" style="stroke:#000000;stroke-linejoin:miter;stroke-width:2;"/>
   </g>
   <g id="patch_6">
    <path clip-path="url(#p030caa3fab)" d="M 218.729543 119.23 
C 219.338185 119.23 219.921979 118.988184 220.352353 118.55781 
C 220.782728 118.127436 221.024543 117.543641 221.024543 116.935 
C 221.024543 116.326359 220.782728 115.742564 220.352353 115.31219 
C 219.921979 114.881816 219.338185 114.64 218.729543 114.64 
C 218.120902 114.64 217.537108 114.881816 217.106733 115.31219 
C 216.676359 115.742564 216.434543 116.326359 216.434543 116.935 
C 216.434543 117.543641 216.676359 118.127436 217.106733 118.55781 
C 217.537108 118.988184 218.120902 119.23 218.729543 119.23 
z
" style="stroke:#000000;stroke-linejoin:miter;stroke-width:2;"/>
   </g>
  </g>
 </g>
 <defs>
  <clipPath id="p030caa3fab">
   <rect height="235.654" width="256.195343" x="7.2" y="7.2"/>
  </clipPath>
 </defs>
</svg>
