<?xml version="1.0" encoding="utf-8" standalone="no"?>
<!DOCTYPE svg PUBLIC "-//W3C//DTD SVG 1.1//EN"
  "http://www.w3.org/Graphics/SVG/1.1/DTD/svg11.dtd">
<svg height="250.054pt" version="1.1" viewBox="0 0 270.595343 250.054" width="270.595343pt" xmlns="http://www.w3.org/2000/svg" xmlns:xlink="http://www.w3.org/1999/xlink">
 <metadata>
  <rdf:RDF xmlns:cc="http://creativecommons.org/ns#" xmlns:dc="http://purl.org/dc/elements/1.1/" xmlns:rdf="http://www.w3.org/1999/02/22-rdf-syntax-ns#">
   <cc:Work>
    <dc:type rdf:resource="http://purl.org/dc/dcmitype/StillImage"/>
    <dc:date>2021-05-20T16:27:04.194590</dc:date>
    <dc:format>image/svg+xml</dc:format>
    <dc:creator>
     <cc:Agent>
      <dc:title>Matplotlib v3.4.2, https://matplotlib.org/</dc:title>
     </cc:Agent>
    </dc:creator>
   </cc:Work>
  </rdf:RDF>
 </metadata>
 <defs>
  <style type="text/css">*{stroke-linecap:butt;stroke-linejoin:round;}</style>
 </defs>
 <g id="figure_1">
  <g id="patch_1">
   <path d="M 0 250.054 
L 270.595343 250.054 
L 270.595343 0 
L 0 0 
z
" style="fill:none;"/>
  </g>
  <g id="axes_1">
   <g id="patch_2">
    <path clip-path="url(#p3b521529e6)" d="M 60.6786 161.305 
L 53.0286 159.01 
L 60.6786 156.715 
z
"/>
   </g>
   <g id="line2d_1">
    <path clip-path="url(#p3b521529e6)" d="M 144.8286 116.935 
L 144.8286 78.685 
L 211.079543 116.935 
L 144.8286 155.185 
L 144.8286 116.935 
M 211.079543 116.935 
" style="fill:none;stroke:#000000;stroke-linecap:round;stroke-width:2;"/>
   </g>
   <g id="line2d_2">
    <path clip-path="url(#p3b521529e6)" d="M 150.049968 97.81 
L 156.169968 97.81 
" style="fill:none;stroke:#000000;stroke-linecap:round;stroke-width:2;"/>
   </g>
   <g id="line2d_3">
    <path clip-path="url(#p3b521529e6)" d="M 150.049968 136.06 
L 156.169968 136.06 
" style="fill:none;stroke:#000000;stroke-linecap:round;stroke-width:2;"/>
   </g>
   <g id="line2d_4">
    <path clip-path="url(#p3b521529e6)" d="M 153.109968 139.12 
L 153.109968 133 
" style="fill:none;stroke:#000000;stroke-linecap:round;stroke-width:2;"/>
   </g>
   <g id="line2d_5">
    <path clip-path="url(#p3b521529e6)" d="M 144.8286 97.81 
L 141.0036 97.81 
L 137.1786 97.81 
" style="fill:none;stroke:#000000;stroke-linecap:round;stroke-width:2;"/>
   </g>
   <g id="line2d_6">
    <path clip-path="url(#p3b521529e6)" d="M 137.1786 97.81 
L 121.8786 97.81 
L 119.3286 105.46 
L 114.2286 90.16 
L 109.1286 105.46 
L 104.0286 90.16 
L 98.9286 105.46 
L 93.8286 90.16 
L 91.2786 97.81 
L 75.9786 97.81 
" style="fill:none;stroke:#000000;stroke-linecap:round;stroke-width:2;"/>
   </g>
   <g id="line2d_7">
    <path clip-path="url(#p3b521529e6)" d="M 75.9786 97.81 
L 75.9786 113.11 
L 83.6286 115.66 
L 68.3286 120.76 
L 83.6286 125.86 
L 68.3286 130.96 
L 83.6286 136.06 
L 68.3286 141.16 
L 75.9786 143.71 
L 75.9786 159.01 
" style="fill:none;stroke:#000000;stroke-linecap:round;stroke-width:2;"/>
   </g>
   <g id="line2d_8">
    <path clip-path="url(#p3b521529e6)" d="M 75.9786 159.01 
L 75.9786 174.31 
L 83.6286 176.86 
L 68.3286 181.96 
L 83.6286 187.06 
L 68.3286 192.16 
L 83.6286 197.26 
L 68.3286 202.36 
L 75.9786 204.91 
L 75.9786 220.21 
" style="fill:none;stroke:#000000;stroke-linecap:round;stroke-width:2;"/>
   </g>
   <g id="line2d_9">
    <path clip-path="url(#p3b521529e6)" d="M 75.9786 220.21 
L 75.9786 232.45 
L 68.3286 232.45 
L 83.6286 232.45 
M 70.6236 236.122 
L 81.3336 236.122 
M 74.4486 239.794 
L 77.5086 239.794 
" style="fill:none;stroke:#000000;stroke-linecap:round;stroke-width:2;"/>
   </g>
   <g id="line2d_10">
    <path clip-path="url(#p3b521529e6)" d="M 75.9786 97.81 
L 60.6786 97.81 
L 45.3786 97.81 
" style="fill:none;stroke:#000000;stroke-linecap:round;stroke-width:2;"/>
   </g>
   <g id="line2d_11">
    <path clip-path="url(#p3b521529e6)" d="M 45.3786 97.81 
L 45.3786 113.11 
L 45.3786 128.41 
" style="fill:none;stroke:#000000;stroke-linecap:round;stroke-width:2;"/>
   </g>
   <g id="line2d_12">
    <path clip-path="url(#p3b521529e6)" d="M 45.3786 128.41 
L 45.3786 143.71 
L 53.0286 146.26 
L 37.7286 151.36 
L 53.0286 156.46 
L 37.7286 161.56 
L 53.0286 166.66 
L 37.7286 171.76 
L 45.3786 174.31 
L 45.3786 189.61 
" style="fill:none;stroke:#000000;stroke-linecap:round;stroke-width:2;"/>
   </g>
   <g id="line2d_13">
    <path clip-path="url(#p3b521529e6)" d="M 67.4106 159.01 
L 60.6786 159.01 
" style="fill:none;stroke:#000000;stroke-linecap:square;stroke-width:2;"/>
   </g>
   <g id="line2d_14">
    <path clip-path="url(#p3b521529e6)" d="M 45.3786 189.61 
L 45.3786 204.91 
L 45.3786 220.21 
" style="fill:none;stroke:#000000;stroke-linecap:round;stroke-width:2;"/>
   </g>
   <g id="line2d_15">
    <path clip-path="url(#p3b521529e6)" d="M 45.3786 220.21 
L 45.3786 232.45 
L 37.7286 232.45 
L 53.0286 232.45 
M 40.0236 236.122 
L 50.7336 236.122 
M 43.8486 239.794 
L 46.9086 239.794 
" style="fill:none;stroke:#000000;stroke-linecap:round;stroke-width:2;"/>
   </g>
   <g id="line2d_16">
    <path clip-path="url(#p3b521529e6)" d="M 45.3786 97.81 
L 37.7286 97.81 
L 30.0786 97.81 
" style="fill:none;stroke:#000000;stroke-linecap:round;stroke-width:2;"/>
   </g>
   <g id="line2d_17">
    <path clip-path="url(#p3b521529e6)" d="M 67.4106 159.01 
L 71.6946 159.01 
L 75.9786 159.01 
" style="fill:none;stroke:#000000;stroke-linecap:round;stroke-width:2;"/>
   </g>
   <g id="line2d_18">
    <path clip-path="url(#p3b521529e6)" d="M 75.9786 159.01 
L 91.2786 159.01 
L 106.5786 159.01 
" style="fill:none;stroke:#000000;stroke-linecap:round;stroke-width:2;"/>
   </g>
   <g id="line2d_19">
    <path clip-path="url(#p3b521529e6)" d="M 106.5786 159.01 
L 106.5786 141.262 
L 106.5786 123.514 
" style="fill:none;stroke:#000000;stroke-linecap:round;stroke-width:2;"/>
   </g>
   <g id="line2d_20">
    <path clip-path="url(#p3b521529e6)" d="M 106.5786 123.514 
L 125.8566 123.514 
L 145.1346 123.514 
" style="fill:none;stroke:#000000;stroke-linecap:round;stroke-width:2;"/>
   </g>
   <g id="line2d_21">
    <path clip-path="url(#p3b521529e6)" d="M 137.1786 97.81 
L 137.1786 67.21 
L 137.1786 36.61 
" style="fill:none;stroke:#000000;stroke-linecap:round;stroke-width:2;"/>
   </g>
   <g id="line2d_22">
    <path clip-path="url(#p3b521529e6)" d="M 137.1786 36.61 
L 162.654072 36.61 
L 165.204072 28.96 
L 170.304072 44.26 
L 175.404072 28.96 
L 180.504072 44.26 
L 185.604072 28.96 
L 190.704072 44.26 
L 193.254072 36.61 
L 218.729543 36.61 
" style="fill:none;stroke:#000000;stroke-linecap:round;stroke-width:2;"/>
   </g>
   <g id="line2d_23">
    <path clip-path="url(#p3b521529e6)" d="M 218.729543 36.61 
L 218.729543 76.7725 
L 218.729543 116.935 
" style="fill:none;stroke:#000000;stroke-linecap:round;stroke-width:2;"/>
   </g>
   <g id="line2d_24">
    <path clip-path="url(#p3b521529e6)" d="M 211.079543 116.935 
L 218.729543 116.935 
L 226.379543 116.935 
" style="fill:none;stroke:#000000;stroke-linecap:round;stroke-width:2;"/>
   </g>
   <g id="text_1">
    <!-- $U_1$ -->
    <g transform="translate(169.484072 72.713437)scale(0.14 -0.14)">
     <defs>
      <path d="M 991 4666 
L 1625 4666 
L 1075 1831 
Q 1041 1641 1027 1517 
Q 1013 1394 1013 1300 
Q 1013 869 1253 645 
Q 1494 422 1959 422 
Q 2563 422 2898 753 
Q 3234 1084 3378 1831 
L 3928 4666 
L 4563 4666 
L 4000 1753 
Q 3816 809 3300 359 
Q 2784 -91 1888 -91 
Q 1188 -91 780 261 
Q 372 613 372 1216 
Q 372 1325 387 1461 
Q 403 1597 434 1753 
L 991 4666 
z
" id="DejaVuSans-Oblique-55" transform="scale(0.015625)"/>
      <path d="M 794 531 
L 1825 531 
L 1825 4091 
L 703 3866 
L 703 4441 
L 1819 4666 
L 2450 4666 
L 2450 531 
L 3481 531 
L 3481 0 
L 794 0 
L 794 531 
z
" id="DejaVuSans-31" transform="scale(0.015625)"/>
     </defs>
     <use transform="translate(0 0.09375)" xlink:href="#DejaVuSans-Oblique-55"/>
     <use transform="translate(73.193359 -16.3125)scale(0.7)" xlink:href="#DejaVuSans-31"/>
    </g>
   </g>
   <g id="text_2">
    <!-- $R_1$ -->
    <g transform="translate(98.3886 84.188437)scale(0.14 -0.14)">
     <defs>
      <path d="M 1613 4147 
L 1294 2491 
L 2106 2491 
Q 2584 2491 2879 2755 
Q 3175 3019 3175 3444 
Q 3175 3784 2976 3965 
Q 2778 4147 2406 4147 
L 1613 4147 
z
M 2772 2241 
Q 2972 2194 3105 2009 
Q 3238 1825 3413 1275 
L 3809 0 
L 3144 0 
L 2778 1197 
Q 2638 1659 2453 1815 
Q 2269 1972 1888 1972 
L 1191 1972 
L 806 0 
L 172 0 
L 1081 4666 
L 2503 4666 
Q 3150 4666 3495 4373 
Q 3841 4081 3841 3531 
Q 3841 3044 3547 2687 
Q 3253 2331 2772 2241 
z
" id="DejaVuSans-Oblique-52" transform="scale(0.015625)"/>
     </defs>
     <use transform="translate(0 0.09375)" xlink:href="#DejaVuSans-Oblique-52"/>
     <use transform="translate(69.482422 -16.3125)scale(0.7)" xlink:href="#DejaVuSans-31"/>
    </g>
   </g>
   <g id="text_3">
    <!-- $R_3$ -->
    <g transform="translate(48.8886 132.273125)scale(0.14 -0.14)">
     <defs>
      <path d="M 2597 2516 
Q 3050 2419 3304 2112 
Q 3559 1806 3559 1356 
Q 3559 666 3084 287 
Q 2609 -91 1734 -91 
Q 1441 -91 1130 -33 
Q 819 25 488 141 
L 488 750 
Q 750 597 1062 519 
Q 1375 441 1716 441 
Q 2309 441 2620 675 
Q 2931 909 2931 1356 
Q 2931 1769 2642 2001 
Q 2353 2234 1838 2234 
L 1294 2234 
L 1294 2753 
L 1863 2753 
Q 2328 2753 2575 2939 
Q 2822 3125 2822 3475 
Q 2822 3834 2567 4026 
Q 2313 4219 1838 4219 
Q 1578 4219 1281 4162 
Q 984 4106 628 3988 
L 628 4550 
Q 988 4650 1302 4700 
Q 1616 4750 1894 4750 
Q 2613 4750 3031 4423 
Q 3450 4097 3450 3541 
Q 3450 3153 3228 2886 
Q 3006 2619 2597 2516 
z
" id="DejaVuSans-33" transform="scale(0.015625)"/>
     </defs>
     <use transform="translate(0 0.09375)" xlink:href="#DejaVuSans-Oblique-52"/>
     <use transform="translate(69.482422 -16.3125)scale(0.7)" xlink:href="#DejaVuSans-33"/>
    </g>
   </g>
   <g id="text_4">
    <!-- $R_4$ -->
    <g transform="translate(48.8886 193.473125)scale(0.14 -0.14)">
     <defs>
      <path d="M 2419 4116 
L 825 1625 
L 2419 1625 
L 2419 4116 
z
M 2253 4666 
L 3047 4666 
L 3047 1625 
L 3713 1625 
L 3713 1100 
L 3047 1100 
L 3047 0 
L 2419 0 
L 2419 1100 
L 313 1100 
L 313 1709 
L 2253 4666 
z
" id="DejaVuSans-34" transform="scale(0.015625)"/>
     </defs>
     <use transform="translate(0 0.09375)" xlink:href="#DejaVuSans-Oblique-52"/>
     <use transform="translate(69.482422 -16.3125)scale(0.7)" xlink:href="#DejaVuSans-34"/>
    </g>
   </g>
   <g id="text_5">
    <!-- $UV_1$ -->
    <g transform="translate(8.2086 162.873125)scale(0.14 -0.14)">
     <defs>
      <path d="M 1319 0 
L 500 4666 
L 1119 4666 
L 1797 653 
L 4063 4666 
L 4750 4666 
L 2053 0 
L 1319 0 
z
" id="DejaVuSans-Oblique-56" transform="scale(0.015625)"/>
     </defs>
     <use transform="translate(0 0.09375)" xlink:href="#DejaVuSans-Oblique-55"/>
     <use transform="translate(73.193359 0.09375)" xlink:href="#DejaVuSans-Oblique-56"/>
     <use transform="translate(141.601562 -16.3125)scale(0.7)" xlink:href="#DejaVuSans-31"/>
    </g>
   </g>
   <g id="text_6">
    <!-- $IN$ -->
    <g transform="translate(12.3186 101.673125)scale(0.14 -0.14)">
     <defs>
      <path d="M 1081 4666 
L 1716 4666 
L 806 0 
L 172 0 
L 1081 4666 
z
" id="DejaVuSans-Oblique-49" transform="scale(0.015625)"/>
      <path d="M 1081 4666 
L 1931 4666 
L 3219 666 
L 4000 4666 
L 4616 4666 
L 3706 0 
L 2853 0 
L 1569 4025 
L 788 0 
L 172 0 
L 1081 4666 
z
" id="DejaVuSans-Oblique-4e" transform="scale(0.015625)"/>
     </defs>
     <use transform="translate(0 0.09375)" xlink:href="#DejaVuSans-Oblique-49"/>
     <use transform="translate(29.492188 0.09375)" xlink:href="#DejaVuSans-Oblique-4e"/>
    </g>
   </g>
   <g id="text_7">
    <!-- $R_2$ -->
    <g transform="translate(169.764072 22.988438)scale(0.14 -0.14)">
     <defs>
      <path d="M 1228 531 
L 3431 531 
L 3431 0 
L 469 0 
L 469 531 
Q 828 903 1448 1529 
Q 2069 2156 2228 2338 
Q 2531 2678 2651 2914 
Q 2772 3150 2772 3378 
Q 2772 3750 2511 3984 
Q 2250 4219 1831 4219 
Q 1534 4219 1204 4116 
Q 875 4013 500 3803 
L 500 4441 
Q 881 4594 1212 4672 
Q 1544 4750 1819 4750 
Q 2544 4750 2975 4387 
Q 3406 4025 3406 3419 
Q 3406 3131 3298 2873 
Q 3191 2616 2906 2266 
Q 2828 2175 2409 1742 
Q 1991 1309 1228 531 
z
" id="DejaVuSans-32" transform="scale(0.015625)"/>
     </defs>
     <use transform="translate(0 0.09375)" xlink:href="#DejaVuSans-Oblique-52"/>
     <use transform="translate(69.482422 -16.3125)scale(0.7)" xlink:href="#DejaVuSans-32"/>
    </g>
   </g>
   <g id="text_8">
    <!-- $OUT$ -->
    <g transform="translate(229.439543 120.798125)scale(0.14 -0.14)">
     <defs>
      <path d="M 2919 4238 
Q 2400 4238 2003 3986 
Q 1606 3734 1313 3219 
Q 1125 2891 1026 2522 
Q 928 2153 928 1778 
Q 928 1128 1239 775 
Q 1550 422 2119 422 
Q 2631 422 3032 676 
Q 3434 931 3719 1434 
Q 3909 1772 4009 2142 
Q 4109 2513 4109 2881 
Q 4109 3528 3796 3883 
Q 3484 4238 2919 4238 
z
M 2100 -91 
Q 1241 -91 748 418 
Q 256 928 256 1813 
Q 256 2319 448 2847 
Q 641 3375 978 3788 
Q 1375 4272 1862 4511 
Q 2350 4750 2938 4750 
Q 3794 4750 4287 4245 
Q 4781 3741 4781 2869 
Q 4781 2331 4593 1812 
Q 4406 1294 4056 872 
Q 3656 384 3173 146 
Q 2691 -91 2100 -91 
z
" id="DejaVuSans-Oblique-4f" transform="scale(0.015625)"/>
      <path d="M 378 4666 
L 4325 4666 
L 4225 4134 
L 2559 4134 
L 1759 0 
L 1125 0 
L 1925 4134 
L 275 4134 
L 378 4666 
z
" id="DejaVuSans-Oblique-54" transform="scale(0.015625)"/>
     </defs>
     <use transform="translate(0 0.78125)" xlink:href="#DejaVuSans-Oblique-4f"/>
     <use transform="translate(78.710938 0.78125)" xlink:href="#DejaVuSans-Oblique-55"/>
     <use transform="translate(151.904297 0.78125)" xlink:href="#DejaVuSans-Oblique-54"/>
    </g>
   </g>
   <g id="patch_3">
    <path clip-path="url(#p3b521529e6)" d="M 75.9786 100.105 
C 76.587241 100.105 77.171036 99.863184 77.60141 99.43281 
C 78.031784 99.002436 78.2736 98.418641 78.2736 97.81 
C 78.2736 97.201359 78.031784 96.617564 77.60141 96.18719 
C 77.171036 95.756816 76.587241 95.515 75.9786 95.515 
C 75.369959 95.515 74.786164 95.756816 74.35579 96.18719 
C 73.925416 96.617564 73.6836 97.201359 73.6836 97.81 
C 73.6836 98.418641 73.925416 99.002436 74.35579 99.43281 
C 74.786164 99.863184 75.369959 100.105 75.9786 100.105 
z
" style="stroke:#000000;stroke-linejoin:miter;stroke-width:2;"/>
   </g>
   <g id="patch_4">
    <path clip-path="url(#p3b521529e6)" d="M 75.9786 161.305 
C 76.587241 161.305 77.171036 161.063184 77.60141 160.63281 
C 78.031784 160.202436 78.2736 159.618641 78.2736 159.01 
C 78.2736 158.401359 78.031784 157.817564 77.60141 157.38719 
C 77.171036 156.956816 76.587241 156.715 75.9786 156.715 
C 75.369959 156.715 74.786164 156.956816 74.35579 157.38719 
C 73.925416 157.817564 73.6836 158.401359 73.6836 159.01 
C 73.6836 159.618641 73.925416 160.202436 74.35579 160.63281 
C 74.786164 161.063184 75.369959 161.305 75.9786 161.305 
z
" style="stroke:#000000;stroke-linejoin:miter;stroke-width:2;"/>
   </g>
   <g id="patch_5">
    <path clip-path="url(#p3b521529e6)" d="M 137.1786 100.105 
C 137.787241 100.105 138.371036 99.863184 138.80141 99.43281 
C 139.231784 99.002436 139.4736 98.418641 139.4736 97.81 
C 139.4736 97.201359 139.231784 96.617564 138.80141 96.18719 
C 138.371036 95.756816 137.787241 95.515 137.1786 95.515 
C 136.569959 95.515 135.986164 95.756816 135.55579 96.18719 
C 135.125416 96.617564 134.8836 97.201359 134.8836 97.81 
C 134.8836 98.418641 135.125416 99.002436 135.55579 99.43281 
C 135.986164 99.863184 136.569959 100.105 137.1786 100.105 
z
" style="stroke:#000000;stroke-linejoin:miter;stroke-width:2;"/>
   </g>
   <g id="patch_6">
    <path clip-path="url(#p3b521529e6)" d="M 218.729543 119.23 
C 219.338185 119.23 219.921979 118.988184 220.352353 118.55781 
C 220.782728 118.127436 221.024543 117.543641 221.024543 116.935 
C 221.024543 116.326359 220.782728 115.742564 220.352353 115.31219 
C 219.921979 114.881816 219.338185 114.64 218.729543 114.64 
C 218.120902 114.64 217.537108 114.881816 217.106733 115.31219 
C 216.676359 115.742564 216.434543 116.326359 216.434543 116.935 
C 216.434543 117.543641 216.676359 118.127436 217.106733 118.55781 
C 217.537108 118.988184 218.120902 119.23 218.729543 119.23 
z
" style="stroke:#000000;stroke-linejoin:miter;stroke-width:2;"/>
   </g>
  </g>
 </g>
 <defs>
  <clipPath id="p3b521529e6">
   <rect height="235.654" width="256.195343" x="7.2" y="7.2"/>
  </clipPath>
 </defs>
</svg>
