<?xml version="1.0" encoding="utf-8" standalone="no"?>
<!DOCTYPE svg PUBLIC "-//W3C//DTD SVG 1.1//EN"
  "http://www.w3.org/Graphics/SVG/1.1/DTD/svg11.dtd">
<svg height="223.7125pt" version="1.1" viewBox="0 0 546.84 223.7125" width="546.84pt" xmlns="http://www.w3.org/2000/svg" xmlns:xlink="http://www.w3.org/1999/xlink">
 <metadata>
  <rdf:RDF xmlns:cc="http://creativecommons.org/ns#" xmlns:dc="http://purl.org/dc/elements/1.1/" xmlns:rdf="http://www.w3.org/1999/02/22-rdf-syntax-ns#">
   <cc:Work>
    <dc:type rdf:resource="http://purl.org/dc/dcmitype/StillImage"/>
    <dc:date>2021-06-28T14:06:26.925538</dc:date>
    <dc:format>image/svg+xml</dc:format>
    <dc:creator>
     <cc:Agent>
      <dc:title>Matplotlib v3.4.2, https://matplotlib.org/</dc:title>
     </cc:Agent>
    </dc:creator>
   </cc:Work>
  </rdf:RDF>
 </metadata>
 <defs>
  <style type="text/css">*{stroke-linecap:butt;stroke-linejoin:round;}</style>
 </defs>
 <g id="figure_1">
  <g id="patch_1">
   <path d="M 0 223.7125 
L 546.84 223.7125 
L 546.84 0 
L 0 0 
z
" style="fill:none;"/>
  </g>
  <g id="axes_1">
   <g id="patch_2">
    <path clip-path="url(#p3572afd981)" d="M 66.105 169.312 
C 67.078826 169.312 68.012897 168.925095 68.701496 168.236496 
C 69.390095 167.547897 69.777 166.613826 69.777 165.64 
C 69.777 164.666174 69.390095 163.732103 68.701496 163.043504 
C 68.012897 162.354905 67.078826 161.968 66.105 161.968 
C 65.131174 161.968 64.197103 162.354905 63.508504 163.043504 
C 62.819905 163.732103 62.433 164.666174 62.433 165.64 
C 62.433 166.613826 62.819905 167.547897 63.508504 168.236496 
C 64.197103 168.925095 65.131174 169.312 66.105 169.312 
z
" style="fill:none;stroke:#000000;stroke-linejoin:miter;stroke-width:1.2;"/>
   </g>
   <g id="patch_3">
    <path clip-path="url(#p3572afd981)" d="M 142.605 169.312 
C 143.578826 169.312 144.512897 168.925095 145.201496 168.236496 
C 145.890095 167.547897 146.277 166.613826 146.277 165.64 
C 146.277 164.666174 145.890095 163.732103 145.201496 163.043504 
C 144.512897 162.354905 143.578826 161.968 142.605 161.968 
C 141.631174 161.968 140.697103 162.354905 140.008504 163.043504 
C 139.319905 163.732103 138.933 164.666174 138.933 165.64 
C 138.933 166.613826 139.319905 167.547897 140.008504 168.236496 
C 140.697103 168.925095 141.631174 169.312 142.605 169.312 
z
" style="fill:none;stroke:#000000;stroke-linejoin:miter;stroke-width:1.2;"/>
   </g>
   <g id="patch_4">
    <path clip-path="url(#p3572afd981)" d="M 295.605 169.312 
C 296.578826 169.312 297.512897 168.925095 298.201496 168.236496 
C 298.890095 167.547897 299.277 166.613826 299.277 165.64 
C 299.277 164.666174 298.890095 163.732103 298.201496 163.043504 
C 297.512897 162.354905 296.578826 161.968 295.605 161.968 
C 294.631174 161.968 293.697103 162.354905 293.008504 163.043504 
C 292.319905 163.732103 291.933 164.666174 291.933 165.64 
C 291.933 166.613826 292.319905 167.547897 293.008504 168.236496 
C 293.697103 168.925095 294.631174 169.312 295.605 169.312 
z
" style="fill:none;stroke:#000000;stroke-linejoin:miter;stroke-width:1.2;"/>
   </g>
   <g id="patch_5">
    <path clip-path="url(#p3572afd981)" d="M 448.605 169.312 
C 449.578826 169.312 450.512897 168.925095 451.201496 168.236496 
C 451.890095 167.547897 452.277 166.613826 452.277 165.64 
C 452.277 164.666174 451.890095 163.732103 451.201496 163.043504 
C 450.512897 162.354905 449.578826 161.968 448.605 161.968 
C 447.631174 161.968 446.697103 162.354905 446.008504 163.043504 
C 445.319905 163.732103 444.933 164.666174 444.933 165.64 
C 444.933 166.613826 445.319905 167.547897 446.008504 168.236496 
C 446.697103 168.925095 447.631174 169.312 448.605 169.312 
z
" style="fill:none;stroke:#000000;stroke-linejoin:miter;stroke-width:1.2;"/>
   </g>
   <g id="patch_6">
    <path clip-path="url(#p3572afd981)" d="M 490.68 165.64 
L 500.2425 156.0775 
L 536.58 156.0775 
L 536.58 175.2025 
L 500.2425 175.2025 
z
" style="fill:none;stroke:#000000;stroke-linecap:round;stroke-width:1.2;"/>
   </g>
   <g id="patch_7">
    <path clip-path="url(#p3572afd981)" d="M 175.1175 203.89 
L 184.68 194.3275 
L 221.0175 194.3275 
L 221.0175 213.4525 
L 184.68 213.4525 
z
" style="fill:none;stroke:#000000;stroke-linecap:round;stroke-width:1.2;"/>
   </g>
   <g id="patch_8">
    <path clip-path="url(#p3572afd981)" d="M 328.1175 203.89 
L 337.68 194.3275 
L 374.0175 194.3275 
L 374.0175 213.4525 
L 337.68 213.4525 
z
" style="fill:none;stroke:#000000;stroke-linecap:round;stroke-width:1.2;"/>
   </g>
   <g id="line2d_1">
    <path clip-path="url(#p3572afd981)" d="M 12.555 165.64 
L 31.833 165.64 
L 42.543 165.64 
M 69.777 165.64 
L 89.055 165.64 
" style="fill:none;stroke:#000000;stroke-linecap:round;stroke-width:1.2;"/>
   </g>
   <g id="line2d_2">
    <path clip-path="url(#p3572afd981)" d="M 69.777 165.64 
L 73.143 165.64 
" style="fill:none;stroke:#000000;stroke-linecap:round;stroke-width:1.2;"/>
   </g>
   <g id="line2d_3">
    <path clip-path="url(#p3572afd981)" d="M 42.543 165.64 
L 42.543 180.94 
L 62.433 165.64 
L 42.543 150.34 
L 42.543 165.64 
" style="fill:none;stroke:#000000;stroke-linecap:round;stroke-width:1.2;"/>
   </g>
   <g id="line2d_4">
    <path clip-path="url(#p3572afd981)" d="M 89.055 165.64 
L 108.333 165.64 
L 119.043 165.64 
M 146.277 165.64 
L 165.555 165.64 
" style="fill:none;stroke:#000000;stroke-linecap:round;stroke-width:1.2;"/>
   </g>
   <g id="line2d_5">
    <path clip-path="url(#p3572afd981)" d="M 146.277 165.64 
L 149.643 165.64 
" style="fill:none;stroke:#000000;stroke-linecap:round;stroke-width:1.2;"/>
   </g>
   <g id="line2d_6">
    <path clip-path="url(#p3572afd981)" d="M 119.043 165.64 
L 119.043 180.94 
L 138.933 165.64 
L 119.043 150.34 
L 119.043 165.64 
" style="fill:none;stroke:#000000;stroke-linecap:round;stroke-width:1.2;"/>
   </g>
   <g id="line2d_7">
    <path clip-path="url(#p3572afd981)" d="M 165.555 165.64 
L 188.505 165.64 
L 191.055 157.99 
L 196.155 173.29 
L 201.255 157.99 
L 206.355 173.29 
L 211.455 157.99 
L 216.555 173.29 
L 219.105 165.64 
L 242.055 165.64 
" style="fill:none;stroke:#000000;stroke-linecap:round;stroke-width:1.2;"/>
   </g>
   <g id="line2d_8">
    <path clip-path="url(#p3572afd981)" d="M 242.055 165.64 
L 261.333 165.64 
L 272.043 165.64 
M 299.277 165.64 
L 318.555 165.64 
" style="fill:none;stroke:#000000;stroke-linecap:round;stroke-width:1.2;"/>
   </g>
   <g id="line2d_9">
    <path clip-path="url(#p3572afd981)" d="M 299.277 165.64 
L 302.643 165.64 
" style="fill:none;stroke:#000000;stroke-linecap:round;stroke-width:1.2;"/>
   </g>
   <g id="line2d_10">
    <path clip-path="url(#p3572afd981)" d="M 272.043 165.64 
L 272.043 180.94 
L 291.933 165.64 
L 272.043 150.34 
L 272.043 165.64 
" style="fill:none;stroke:#000000;stroke-linecap:round;stroke-width:1.2;"/>
   </g>
   <g id="line2d_11">
    <path clip-path="url(#p3572afd981)" d="M 318.555 165.64 
L 341.505 165.64 
L 344.055 157.99 
L 349.155 173.29 
L 354.255 157.99 
L 359.355 173.29 
L 364.455 157.99 
L 369.555 173.29 
L 372.105 165.64 
L 395.055 165.64 
" style="fill:none;stroke:#000000;stroke-linecap:round;stroke-width:1.2;"/>
   </g>
   <g id="line2d_12">
    <path clip-path="url(#p3572afd981)" d="M 395.055 165.64 
L 414.333 165.64 
L 425.043 165.64 
M 452.277 165.64 
L 471.555 165.64 
" style="fill:none;stroke:#000000;stroke-linecap:round;stroke-width:1.2;"/>
   </g>
   <g id="line2d_13">
    <path clip-path="url(#p3572afd981)" d="M 452.277 165.64 
L 455.643 165.64 
" style="fill:none;stroke:#000000;stroke-linecap:round;stroke-width:1.2;"/>
   </g>
   <g id="line2d_14">
    <path clip-path="url(#p3572afd981)" d="M 425.043 165.64 
L 425.043 180.94 
L 444.933 165.64 
L 425.043 150.34 
L 425.043 165.64 
" style="fill:none;stroke:#000000;stroke-linecap:round;stroke-width:1.2;"/>
   </g>
   <g id="line2d_15">
    <path clip-path="url(#p3572afd981)" d="M 471.555 165.64 
L 481.1175 165.64 
L 490.68 165.64 
" style="fill:none;stroke:#000000;stroke-linecap:round;stroke-width:1.2;"/>
   </g>
   <g id="line2d_16">
    <path clip-path="url(#p3572afd981)" d="M 12.555 165.64 
L 12.555 146.515 
L 12.555 127.39 
" style="fill:none;stroke:#000000;stroke-linecap:round;stroke-width:1.2;"/>
   </g>
   <g id="line2d_17">
    <path clip-path="url(#p3572afd981)" d="M 12.555 127.39 
L 73.755 127.39 
L 76.305 119.74 
L 81.405 135.04 
L 86.505 119.74 
L 91.605 135.04 
L 96.705 119.74 
L 101.805 135.04 
L 104.355 127.39 
L 165.555 127.39 
" style="fill:none;stroke:#000000;stroke-linecap:round;stroke-width:1.2;"/>
   </g>
   <g id="line2d_18">
    <path clip-path="url(#p3572afd981)" d="M 165.555 127.39 
L 165.555 146.515 
L 165.555 165.64 
" style="fill:none;stroke:#000000;stroke-linecap:round;stroke-width:1.2;"/>
   </g>
   <g id="line2d_19">
    <path clip-path="url(#p3572afd981)" d="M 12.555 165.64 
L 12.555 108.265 
L 12.555 50.89 
" style="fill:none;stroke:#000000;stroke-linecap:round;stroke-width:1.2;"/>
   </g>
   <g id="line2d_20">
    <path clip-path="url(#p3572afd981)" d="M 12.555 50.89 
L 150.255 50.89 
L 152.805 43.24 
L 157.905 58.54 
L 163.005 43.24 
L 168.105 58.54 
L 173.205 43.24 
L 178.305 58.54 
L 180.855 50.89 
L 318.555 50.89 
" style="fill:none;stroke:#000000;stroke-linecap:round;stroke-width:1.2;"/>
   </g>
   <g id="line2d_21">
    <path clip-path="url(#p3572afd981)" d="M 318.555 50.89 
L 318.555 108.265 
L 318.555 165.64 
" style="fill:none;stroke:#000000;stroke-linecap:round;stroke-width:1.2;"/>
   </g>
   <g id="line2d_22">
    <path clip-path="url(#p3572afd981)" d="M 242.055 165.64 
L 242.055 146.515 
L 242.055 127.39 
" style="fill:none;stroke:#000000;stroke-linecap:round;stroke-width:1.2;"/>
   </g>
   <g id="line2d_23">
    <path clip-path="url(#p3572afd981)" d="M 242.055 127.39 
L 277.551 127.39 
M 277.551 119.74 
L 277.551 135.04 
M 283.059 119.74 
L 283.059 135.04 
M 283.059 127.39 
L 318.555 127.39 
" style="fill:none;stroke:#000000;stroke-linecap:round;stroke-width:1.2;"/>
   </g>
   <g id="line2d_24">
    <path clip-path="url(#p3572afd981)" d="M 318.555 127.39 
L 318.555 146.515 
L 318.555 165.64 
" style="fill:none;stroke:#000000;stroke-linecap:round;stroke-width:1.2;"/>
   </g>
   <g id="line2d_25">
    <path clip-path="url(#p3572afd981)" d="M 395.055 165.64 
L 395.055 146.515 
L 395.055 127.39 
" style="fill:none;stroke:#000000;stroke-linecap:round;stroke-width:1.2;"/>
   </g>
   <g id="line2d_26">
    <path clip-path="url(#p3572afd981)" d="M 395.055 127.39 
L 418.005 127.39 
L 420.555 119.74 
L 425.655 135.04 
L 430.755 119.74 
L 435.855 135.04 
L 440.955 119.74 
L 446.055 135.04 
L 448.605 127.39 
L 471.555 127.39 
" style="fill:none;stroke:#000000;stroke-linecap:round;stroke-width:1.2;"/>
   </g>
   <g id="line2d_27">
    <path clip-path="url(#p3572afd981)" d="M 471.555 127.39 
L 471.555 146.515 
L 471.555 165.64 
" style="fill:none;stroke:#000000;stroke-linecap:round;stroke-width:1.2;"/>
   </g>
   <g id="line2d_28">
    <path clip-path="url(#p3572afd981)" d="M 165.555 165.64 
L 165.555 184.765 
L 165.555 203.89 
" style="fill:none;stroke:#000000;stroke-linecap:round;stroke-width:1.2;"/>
   </g>
   <g id="line2d_29">
    <path clip-path="url(#p3572afd981)" d="M 165.555 203.89 
L 170.33625 203.89 
L 175.1175 203.89 
" style="fill:none;stroke:#000000;stroke-linecap:round;stroke-width:1.2;"/>
   </g>
   <g id="line2d_30">
    <path clip-path="url(#p3572afd981)" d="M 318.555 165.64 
L 318.555 184.765 
L 318.555 203.89 
" style="fill:none;stroke:#000000;stroke-linecap:round;stroke-width:1.2;"/>
   </g>
   <g id="line2d_31">
    <path clip-path="url(#p3572afd981)" d="M 318.555 203.89 
L 323.33625 203.89 
L 328.1175 203.89 
" style="fill:none;stroke:#000000;stroke-linecap:round;stroke-width:1.2;"/>
   </g>
   <g id="text_1">
    <!-- $R_3$ -->
    <g transform="translate(195.615 136.3415)scale(0.14 -0.14)">
     <defs>
      <path d="M 1613 4147 
L 1294 2491 
L 2106 2491 
Q 2584 2491 2879 2755 
Q 3175 3019 3175 3444 
Q 3175 3784 2976 3965 
Q 2778 4147 2406 4147 
L 1613 4147 
z
M 2772 2241 
Q 2972 2194 3105 2009 
Q 3238 1825 3413 1275 
L 3809 0 
L 3144 0 
L 2778 1197 
Q 2638 1659 2453 1815 
Q 2269 1972 1888 1972 
L 1191 1972 
L 806 0 
L 172 0 
L 1081 4666 
L 2503 4666 
Q 3150 4666 3495 4373 
Q 3841 4081 3841 3531 
Q 3841 3044 3547 2687 
Q 3253 2331 2772 2241 
z
" id="DejaVuSans-Oblique-52" transform="scale(0.015625)"/>
      <path d="M 2597 2516 
Q 3050 2419 3304 2112 
Q 3559 1806 3559 1356 
Q 3559 666 3084 287 
Q 2609 -91 1734 -91 
Q 1441 -91 1130 -33 
Q 819 25 488 141 
L 488 750 
Q 750 597 1062 519 
Q 1375 441 1716 441 
Q 2309 441 2620 675 
Q 2931 909 2931 1356 
Q 2931 1769 2642 2001 
Q 2353 2234 1838 2234 
L 1294 2234 
L 1294 2753 
L 1863 2753 
Q 2328 2753 2575 2939 
Q 2822 3125 2822 3475 
Q 2822 3834 2567 4026 
Q 2313 4219 1838 4219 
Q 1578 4219 1281 4162 
Q 984 4106 628 3988 
L 628 4550 
Q 988 4650 1302 4700 
Q 1616 4750 1894 4750 
Q 2613 4750 3031 4423 
Q 3450 4097 3450 3541 
Q 3450 3153 3228 2886 
Q 3006 2619 2597 2516 
z
" id="DejaVuSans-33" transform="scale(0.015625)"/>
     </defs>
     <use transform="translate(0 0.09375)" xlink:href="#DejaVuSans-Oblique-52"/>
     <use transform="translate(69.482422 -16.3125)scale(0.7)" xlink:href="#DejaVuSans-33"/>
    </g>
    <!-- 120k -->
    <g transform="translate(186.390312 152.018437)scale(0.14 -0.14)">
     <defs>
      <path d="M 794 531 
L 1825 531 
L 1825 4091 
L 703 3866 
L 703 4441 
L 1819 4666 
L 2450 4666 
L 2450 531 
L 3481 531 
L 3481 0 
L 794 0 
L 794 531 
z
" id="DejaVuSans-31" transform="scale(0.015625)"/>
      <path d="M 1228 531 
L 3431 531 
L 3431 0 
L 469 0 
L 469 531 
Q 828 903 1448 1529 
Q 2069 2156 2228 2338 
Q 2531 2678 2651 2914 
Q 2772 3150 2772 3378 
Q 2772 3750 2511 3984 
Q 2250 4219 1831 4219 
Q 1534 4219 1204 4116 
Q 875 4013 500 3803 
L 500 4441 
Q 881 4594 1212 4672 
Q 1544 4750 1819 4750 
Q 2544 4750 2975 4387 
Q 3406 4025 3406 3419 
Q 3406 3131 3298 2873 
Q 3191 2616 2906 2266 
Q 2828 2175 2409 1742 
Q 1991 1309 1228 531 
z
" id="DejaVuSans-32" transform="scale(0.015625)"/>
      <path d="M 2034 4250 
Q 1547 4250 1301 3770 
Q 1056 3291 1056 2328 
Q 1056 1369 1301 889 
Q 1547 409 2034 409 
Q 2525 409 2770 889 
Q 3016 1369 3016 2328 
Q 3016 3291 2770 3770 
Q 2525 4250 2034 4250 
z
M 2034 4750 
Q 2819 4750 3233 4129 
Q 3647 3509 3647 2328 
Q 3647 1150 3233 529 
Q 2819 -91 2034 -91 
Q 1250 -91 836 529 
Q 422 1150 422 2328 
Q 422 3509 836 4129 
Q 1250 4750 2034 4750 
z
" id="DejaVuSans-30" transform="scale(0.015625)"/>
      <path d="M 581 4863 
L 1159 4863 
L 1159 1991 
L 2875 3500 
L 3609 3500 
L 1753 1863 
L 3688 0 
L 2938 0 
L 1159 1709 
L 1159 0 
L 581 0 
L 581 4863 
z
" id="DejaVuSans-6b" transform="scale(0.015625)"/>
     </defs>
     <use xlink:href="#DejaVuSans-31"/>
     <use x="63.623047" xlink:href="#DejaVuSans-32"/>
     <use x="127.246094" xlink:href="#DejaVuSans-30"/>
     <use x="190.869141" xlink:href="#DejaVuSans-6b"/>
    </g>
   </g>
   <g id="text_2">
    <!-- $R_4$ -->
    <g transform="translate(348.615 136.3415)scale(0.14 -0.14)">
     <defs>
      <path d="M 2419 4116 
L 825 1625 
L 2419 1625 
L 2419 4116 
z
M 2253 4666 
L 3047 4666 
L 3047 1625 
L 3713 1625 
L 3713 1100 
L 3047 1100 
L 3047 0 
L 2419 0 
L 2419 1100 
L 313 1100 
L 313 1709 
L 2253 4666 
z
" id="DejaVuSans-34" transform="scale(0.015625)"/>
     </defs>
     <use transform="translate(0 0.09375)" xlink:href="#DejaVuSans-Oblique-52"/>
     <use transform="translate(69.482422 -16.3125)scale(0.7)" xlink:href="#DejaVuSans-34"/>
    </g>
    <!-- 100k -->
    <g transform="translate(339.390312 152.018437)scale(0.14 -0.14)">
     <use xlink:href="#DejaVuSans-31"/>
     <use x="63.623047" xlink:href="#DejaVuSans-30"/>
     <use x="127.246094" xlink:href="#DejaVuSans-30"/>
     <use x="190.869141" xlink:href="#DejaVuSans-6b"/>
    </g>
   </g>
   <g id="text_3">
    <!-- Sine -->
    <g transform="translate(500.659688 168.95125)scale(0.12 -0.12)">
     <defs>
      <path d="M 3425 4513 
L 3425 3897 
Q 3066 4069 2747 4153 
Q 2428 4238 2131 4238 
Q 1616 4238 1336 4038 
Q 1056 3838 1056 3469 
Q 1056 3159 1242 3001 
Q 1428 2844 1947 2747 
L 2328 2669 
Q 3034 2534 3370 2195 
Q 3706 1856 3706 1288 
Q 3706 609 3251 259 
Q 2797 -91 1919 -91 
Q 1588 -91 1214 -16 
Q 841 59 441 206 
L 441 856 
Q 825 641 1194 531 
Q 1563 422 1919 422 
Q 2459 422 2753 634 
Q 3047 847 3047 1241 
Q 3047 1584 2836 1778 
Q 2625 1972 2144 2069 
L 1759 2144 
Q 1053 2284 737 2584 
Q 422 2884 422 3419 
Q 422 4038 858 4394 
Q 1294 4750 2059 4750 
Q 2388 4750 2728 4690 
Q 3069 4631 3425 4513 
z
" id="DejaVuSans-53" transform="scale(0.015625)"/>
      <path d="M 603 3500 
L 1178 3500 
L 1178 0 
L 603 0 
L 603 3500 
z
M 603 4863 
L 1178 4863 
L 1178 4134 
L 603 4134 
L 603 4863 
z
" id="DejaVuSans-69" transform="scale(0.015625)"/>
      <path d="M 3513 2113 
L 3513 0 
L 2938 0 
L 2938 2094 
Q 2938 2591 2744 2837 
Q 2550 3084 2163 3084 
Q 1697 3084 1428 2787 
Q 1159 2491 1159 1978 
L 1159 0 
L 581 0 
L 581 3500 
L 1159 3500 
L 1159 2956 
Q 1366 3272 1645 3428 
Q 1925 3584 2291 3584 
Q 2894 3584 3203 3211 
Q 3513 2838 3513 2113 
z
" id="DejaVuSans-6e" transform="scale(0.015625)"/>
      <path d="M 3597 1894 
L 3597 1613 
L 953 1613 
Q 991 1019 1311 708 
Q 1631 397 2203 397 
Q 2534 397 2845 478 
Q 3156 559 3463 722 
L 3463 178 
Q 3153 47 2828 -22 
Q 2503 -91 2169 -91 
Q 1331 -91 842 396 
Q 353 884 353 1716 
Q 353 2575 817 3079 
Q 1281 3584 2069 3584 
Q 2775 3584 3186 3129 
Q 3597 2675 3597 1894 
z
M 3022 2063 
Q 3016 2534 2758 2815 
Q 2500 3097 2075 3097 
Q 1594 3097 1305 2825 
Q 1016 2553 972 2059 
L 3022 2063 
z
" id="DejaVuSans-65" transform="scale(0.015625)"/>
     </defs>
     <use xlink:href="#DejaVuSans-53"/>
     <use x="63.476562" xlink:href="#DejaVuSans-69"/>
     <use x="91.259766" xlink:href="#DejaVuSans-6e"/>
     <use x="154.638672" xlink:href="#DejaVuSans-65"/>
    </g>
   </g>
   <g id="text_4">
    <!-- $R_1$ -->
    <g transform="translate(80.865 98.0915)scale(0.14 -0.14)">
     <use transform="translate(0 0.09375)" xlink:href="#DejaVuSans-Oblique-52"/>
     <use transform="translate(69.482422 -16.3125)scale(0.7)" xlink:href="#DejaVuSans-31"/>
    </g>
    <!-- 1M -->
    <g transform="translate(78.561562 113.768437)scale(0.14 -0.14)">
     <defs>
      <path d="M 628 4666 
L 1569 4666 
L 2759 1491 
L 3956 4666 
L 4897 4666 
L 4897 0 
L 4281 0 
L 4281 4097 
L 3078 897 
L 2444 897 
L 1241 4097 
L 1241 0 
L 628 0 
L 628 4666 
z
" id="DejaVuSans-4d" transform="scale(0.015625)"/>
     </defs>
     <use xlink:href="#DejaVuSans-31"/>
     <use x="63.623047" xlink:href="#DejaVuSans-4d"/>
    </g>
   </g>
   <g id="text_5">
    <!-- $R_2$ -->
    <g transform="translate(157.365 21.5915)scale(0.14 -0.14)">
     <use transform="translate(0 0.09375)" xlink:href="#DejaVuSans-Oblique-52"/>
     <use transform="translate(69.482422 -16.3125)scale(0.7)" xlink:href="#DejaVuSans-32"/>
    </g>
    <!-- 680k -->
    <g transform="translate(148.140312 37.268438)scale(0.14 -0.14)">
     <defs>
      <path d="M 2113 2584 
Q 1688 2584 1439 2293 
Q 1191 2003 1191 1497 
Q 1191 994 1439 701 
Q 1688 409 2113 409 
Q 2538 409 2786 701 
Q 3034 994 3034 1497 
Q 3034 2003 2786 2293 
Q 2538 2584 2113 2584 
z
M 3366 4563 
L 3366 3988 
Q 3128 4100 2886 4159 
Q 2644 4219 2406 4219 
Q 1781 4219 1451 3797 
Q 1122 3375 1075 2522 
Q 1259 2794 1537 2939 
Q 1816 3084 2150 3084 
Q 2853 3084 3261 2657 
Q 3669 2231 3669 1497 
Q 3669 778 3244 343 
Q 2819 -91 2113 -91 
Q 1303 -91 875 529 
Q 447 1150 447 2328 
Q 447 3434 972 4092 
Q 1497 4750 2381 4750 
Q 2619 4750 2861 4703 
Q 3103 4656 3366 4563 
z
" id="DejaVuSans-36" transform="scale(0.015625)"/>
      <path d="M 2034 2216 
Q 1584 2216 1326 1975 
Q 1069 1734 1069 1313 
Q 1069 891 1326 650 
Q 1584 409 2034 409 
Q 2484 409 2743 651 
Q 3003 894 3003 1313 
Q 3003 1734 2745 1975 
Q 2488 2216 2034 2216 
z
M 1403 2484 
Q 997 2584 770 2862 
Q 544 3141 544 3541 
Q 544 4100 942 4425 
Q 1341 4750 2034 4750 
Q 2731 4750 3128 4425 
Q 3525 4100 3525 3541 
Q 3525 3141 3298 2862 
Q 3072 2584 2669 2484 
Q 3125 2378 3379 2068 
Q 3634 1759 3634 1313 
Q 3634 634 3220 271 
Q 2806 -91 2034 -91 
Q 1263 -91 848 271 
Q 434 634 434 1313 
Q 434 1759 690 2068 
Q 947 2378 1403 2484 
z
M 1172 3481 
Q 1172 3119 1398 2916 
Q 1625 2713 2034 2713 
Q 2441 2713 2670 2916 
Q 2900 3119 2900 3481 
Q 2900 3844 2670 4047 
Q 2441 4250 2034 4250 
Q 1625 4250 1398 4047 
Q 1172 3844 1172 3481 
z
" id="DejaVuSans-38" transform="scale(0.015625)"/>
     </defs>
     <use xlink:href="#DejaVuSans-36"/>
     <use x="63.623047" xlink:href="#DejaVuSans-38"/>
     <use x="127.246094" xlink:href="#DejaVuSans-30"/>
     <use x="190.869141" xlink:href="#DejaVuSans-6b"/>
    </g>
   </g>
   <g id="text_6">
    <!-- $C_1$ -->
    <g transform="translate(272.045 98.0915)scale(0.14 -0.14)">
     <defs>
      <path d="M 4447 4306 
L 4319 3641 
Q 4019 3944 3683 4091 
Q 3347 4238 2956 4238 
Q 2422 4238 2017 3981 
Q 1613 3725 1319 3200 
Q 1131 2863 1032 2486 
Q 934 2109 934 1728 
Q 934 1091 1264 756 
Q 1594 422 2222 422 
Q 2656 422 3056 561 
Q 3456 700 3834 978 
L 3688 231 
Q 3316 72 2936 -9 
Q 2556 -91 2175 -91 
Q 1278 -91 773 396 
Q 269 884 269 1753 
Q 269 2309 461 2846 
Q 653 3384 1013 3828 
Q 1394 4300 1883 4525 
Q 2372 4750 3022 4750 
Q 3422 4750 3780 4639 
Q 4138 4528 4447 4306 
z
" id="DejaVuSans-Oblique-43" transform="scale(0.015625)"/>
     </defs>
     <use transform="translate(0 0.78125)" xlink:href="#DejaVuSans-Oblique-43"/>
     <use transform="translate(69.824219 -15.625)scale(0.7)" xlink:href="#DejaVuSans-31"/>
    </g>
    <!-- 470n -->
    <g transform="translate(262.5075 113.768437)scale(0.14 -0.14)">
     <defs>
      <path d="M 525 4666 
L 3525 4666 
L 3525 4397 
L 1831 0 
L 1172 0 
L 2766 4134 
L 525 4134 
L 525 4666 
z
" id="DejaVuSans-37" transform="scale(0.015625)"/>
     </defs>
     <use xlink:href="#DejaVuSans-34"/>
     <use x="63.623047" xlink:href="#DejaVuSans-37"/>
     <use x="127.246094" xlink:href="#DejaVuSans-30"/>
     <use x="190.869141" xlink:href="#DejaVuSans-6e"/>
    </g>
   </g>
   <g id="text_7">
    <!-- $R_5$ -->
    <g transform="translate(425.115 98.0915)scale(0.14 -0.14)">
     <defs>
      <path d="M 691 4666 
L 3169 4666 
L 3169 4134 
L 1269 4134 
L 1269 2991 
Q 1406 3038 1543 3061 
Q 1681 3084 1819 3084 
Q 2600 3084 3056 2656 
Q 3513 2228 3513 1497 
Q 3513 744 3044 326 
Q 2575 -91 1722 -91 
Q 1428 -91 1123 -41 
Q 819 9 494 109 
L 494 744 
Q 775 591 1075 516 
Q 1375 441 1709 441 
Q 2250 441 2565 725 
Q 2881 1009 2881 1497 
Q 2881 1984 2565 2268 
Q 2250 2553 1709 2553 
Q 1456 2553 1204 2497 
Q 953 2441 691 2322 
L 691 4666 
z
" id="DejaVuSans-35" transform="scale(0.015625)"/>
     </defs>
     <use transform="translate(0 0.09375)" xlink:href="#DejaVuSans-Oblique-52"/>
     <use transform="translate(69.482422 -16.3125)scale(0.7)" xlink:href="#DejaVuSans-35"/>
    </g>
    <!-- 220k -->
    <g transform="translate(415.890312 113.768437)scale(0.14 -0.14)">
     <use xlink:href="#DejaVuSans-32"/>
     <use x="63.623047" xlink:href="#DejaVuSans-32"/>
     <use x="127.246094" xlink:href="#DejaVuSans-30"/>
     <use x="190.869141" xlink:href="#DejaVuSans-6b"/>
    </g>
   </g>
   <g id="text_8">
    <!-- Sqr -->
    <g transform="translate(187.982812 207.20125)scale(0.12 -0.12)">
     <defs>
      <path d="M 947 1747 
Q 947 1113 1208 752 
Q 1469 391 1925 391 
Q 2381 391 2643 752 
Q 2906 1113 2906 1747 
Q 2906 2381 2643 2742 
Q 2381 3103 1925 3103 
Q 1469 3103 1208 2742 
Q 947 2381 947 1747 
z
M 2906 525 
Q 2725 213 2448 61 
Q 2172 -91 1784 -91 
Q 1150 -91 751 415 
Q 353 922 353 1747 
Q 353 2572 751 3078 
Q 1150 3584 1784 3584 
Q 2172 3584 2448 3432 
Q 2725 3281 2906 2969 
L 2906 3500 
L 3481 3500 
L 3481 -1331 
L 2906 -1331 
L 2906 525 
z
" id="DejaVuSans-71" transform="scale(0.015625)"/>
      <path d="M 2631 2963 
Q 2534 3019 2420 3045 
Q 2306 3072 2169 3072 
Q 1681 3072 1420 2755 
Q 1159 2438 1159 1844 
L 1159 0 
L 581 0 
L 581 3500 
L 1159 3500 
L 1159 2956 
Q 1341 3275 1631 3429 
Q 1922 3584 2338 3584 
Q 2397 3584 2469 3576 
Q 2541 3569 2628 3553 
L 2631 2963 
z
" id="DejaVuSans-72" transform="scale(0.015625)"/>
     </defs>
     <use xlink:href="#DejaVuSans-53"/>
     <use x="63.476562" xlink:href="#DejaVuSans-71"/>
     <use x="126.953125" xlink:href="#DejaVuSans-72"/>
    </g>
   </g>
   <g id="text_9">
    <!-- Tri -->
    <g transform="translate(344.154375 207.20125)scale(0.12 -0.12)">
     <defs>
      <path d="M -19 4666 
L 3928 4666 
L 3928 4134 
L 2272 4134 
L 2272 0 
L 1638 0 
L 1638 4134 
L -19 4134 
L -19 4666 
z
" id="DejaVuSans-54" transform="scale(0.015625)"/>
     </defs>
     <use xlink:href="#DejaVuSans-54"/>
     <use x="46.333984" xlink:href="#DejaVuSans-72"/>
     <use x="87.447266" xlink:href="#DejaVuSans-69"/>
    </g>
   </g>
   <g id="patch_9">
    <path clip-path="url(#p3572afd981)" d="M 242.055 167.935 
C 242.663641 167.935 243.247436 167.693184 243.67781 167.26281 
C 244.108184 166.832436 244.35 166.248641 244.35 165.64 
C 244.35 165.031359 244.108184 164.447564 243.67781 164.01719 
C 243.247436 163.586816 242.663641 163.345 242.055 163.345 
C 241.446359 163.345 240.862564 163.586816 240.43219 164.01719 
C 240.001816 164.447564 239.76 165.031359 239.76 165.64 
C 239.76 166.248641 240.001816 166.832436 240.43219 167.26281 
C 240.862564 167.693184 241.446359 167.935 242.055 167.935 
z
" style="stroke:#000000;stroke-linejoin:miter;stroke-width:1.2;"/>
   </g>
   <g id="patch_10">
    <path clip-path="url(#p3572afd981)" d="M 395.055 167.935 
C 395.663641 167.935 396.247436 167.693184 396.67781 167.26281 
C 397.108184 166.832436 397.35 166.248641 397.35 165.64 
C 397.35 165.031359 397.108184 164.447564 396.67781 164.01719 
C 396.247436 163.586816 395.663641 163.345 395.055 163.345 
C 394.446359 163.345 393.862564 163.586816 393.43219 164.01719 
C 393.001816 164.447564 392.76 165.031359 392.76 165.64 
C 392.76 166.248641 393.001816 166.832436 393.43219 167.26281 
C 393.862564 167.693184 394.446359 167.935 395.055 167.935 
z
" style="stroke:#000000;stroke-linejoin:miter;stroke-width:1.2;"/>
   </g>
   <g id="patch_11">
    <path clip-path="url(#p3572afd981)" d="M 12.555 129.685 
C 13.163641 129.685 13.747436 129.443184 14.17781 129.01281 
C 14.608184 128.582436 14.85 127.998641 14.85 127.39 
C 14.85 126.781359 14.608184 126.197564 14.17781 125.76719 
C 13.747436 125.336816 13.163641 125.095 12.555 125.095 
C 11.946359 125.095 11.362564 125.336816 10.93219 125.76719 
C 10.501816 126.197564 10.26 126.781359 10.26 127.39 
C 10.26 127.998641 10.501816 128.582436 10.93219 129.01281 
C 11.362564 129.443184 11.946359 129.685 12.555 129.685 
z
" style="stroke:#000000;stroke-linejoin:miter;stroke-width:1.2;"/>
   </g>
   <g id="patch_12">
    <path clip-path="url(#p3572afd981)" d="M 165.555 167.935 
C 166.163641 167.935 166.747436 167.693184 167.17781 167.26281 
C 167.608184 166.832436 167.85 166.248641 167.85 165.64 
C 167.85 165.031359 167.608184 164.447564 167.17781 164.01719 
C 166.747436 163.586816 166.163641 163.345 165.555 163.345 
C 164.946359 163.345 164.362564 163.586816 163.93219 164.01719 
C 163.501816 164.447564 163.26 165.031359 163.26 165.64 
C 163.26 166.248641 163.501816 166.832436 163.93219 167.26281 
C 164.362564 167.693184 164.946359 167.935 165.555 167.935 
z
" style="stroke:#000000;stroke-linejoin:miter;stroke-width:1.2;"/>
   </g>
   <g id="patch_13">
    <path clip-path="url(#p3572afd981)" d="M 318.555 129.685 
C 319.163641 129.685 319.747436 129.443184 320.17781 129.01281 
C 320.608184 128.582436 320.85 127.998641 320.85 127.39 
C 320.85 126.781359 320.608184 126.197564 320.17781 125.76719 
C 319.747436 125.336816 319.163641 125.095 318.555 125.095 
C 317.946359 125.095 317.362564 125.336816 316.93219 125.76719 
C 316.501816 126.197564 316.26 126.781359 316.26 127.39 
C 316.26 127.998641 316.501816 128.582436 316.93219 129.01281 
C 317.362564 129.443184 317.946359 129.685 318.555 129.685 
z
" style="stroke:#000000;stroke-linejoin:miter;stroke-width:1.2;"/>
   </g>
   <g id="patch_14">
    <path clip-path="url(#p3572afd981)" d="M 318.555 167.935 
C 319.163641 167.935 319.747436 167.693184 320.17781 167.26281 
C 320.608184 166.832436 320.85 166.248641 320.85 165.64 
C 320.85 165.031359 320.608184 164.447564 320.17781 164.01719 
C 319.747436 163.586816 319.163641 163.345 318.555 163.345 
C 317.946359 163.345 317.362564 163.586816 316.93219 164.01719 
C 316.501816 164.447564 316.26 165.031359 316.26 165.64 
C 316.26 166.248641 316.501816 166.832436 316.93219 167.26281 
C 317.362564 167.693184 317.946359 167.935 318.555 167.935 
z
" style="stroke:#000000;stroke-linejoin:miter;stroke-width:1.2;"/>
   </g>
   <g id="patch_15">
    <path clip-path="url(#p3572afd981)" d="M 471.555 167.935 
C 472.163641 167.935 472.747436 167.693184 473.17781 167.26281 
C 473.608184 166.832436 473.85 166.248641 473.85 165.64 
C 473.85 165.031359 473.608184 164.447564 473.17781 164.01719 
C 472.747436 163.586816 472.163641 163.345 471.555 163.345 
C 470.946359 163.345 470.362564 163.586816 469.93219 164.01719 
C 469.501816 164.447564 469.26 165.031359 469.26 165.64 
C 469.26 166.248641 469.501816 166.832436 469.93219 167.26281 
C 470.362564 167.693184 470.946359 167.935 471.555 167.935 
z
" style="stroke:#000000;stroke-linejoin:miter;stroke-width:1.2;"/>
   </g>
  </g>
 </g>
 <defs>
  <clipPath id="p3572afd981">
   <rect height="209.3125" width="532.44" x="7.2" y="7.2"/>
  </clipPath>
 </defs>
</svg>
