<?xml version="1.0" encoding="utf-8" standalone="no"?>
<!DOCTYPE svg PUBLIC "-//W3C//DTD SVG 1.1//EN"
  "http://www.w3.org/Graphics/SVG/1.1/DTD/svg11.dtd">
<svg height="280.15625pt" version="1.1" viewBox="0 0 422.698321 280.15625" width="422.698321pt" xmlns="http://www.w3.org/2000/svg" xmlns:xlink="http://www.w3.org/1999/xlink">
 <metadata>
  <rdf:RDF xmlns:cc="http://creativecommons.org/ns#" xmlns:dc="http://purl.org/dc/elements/1.1/" xmlns:rdf="http://www.w3.org/1999/02/22-rdf-syntax-ns#">
   <cc:Work>
    <dc:type rdf:resource="http://purl.org/dc/dcmitype/StillImage"/>
    <dc:date>2021-04-05T12:59:11.037222</dc:date>
    <dc:format>image/svg+xml</dc:format>
    <dc:creator>
     <cc:Agent>
      <dc:title>Matplotlib v3.4.1, https://matplotlib.org/</dc:title>
     </cc:Agent>
    </dc:creator>
   </cc:Work>
  </rdf:RDF>
 </metadata>
 <defs>
  <style type="text/css">*{stroke-linecap:butt;stroke-linejoin:round;}</style>
 </defs>
 <g id="figure_1">
  <g id="patch_1">
   <path d="M 0 280.15625 
L 422.698321 280.15625 
L 422.698321 0 
L 0 0 
z
" style="fill:none;"/>
  </g>
  <g id="axes_1">
   <g id="patch_2">
    <path d="M 42.620313 242.6 
L 414.925994 242.6 
L 414.925994 7.2 
L 42.620313 7.2 
z
" style="fill:#ffffff;"/>
   </g>
   <g id="matplotlib.axis_1">
    <g id="xtick_1">
     <g id="line2d_1">
      <defs>
       <path d="M 0 0 
L 0 3.5 
" id="m20b4a8e402" style="stroke:#000000;stroke-width:0.8;"/>
      </defs>
      <g>
       <use style="stroke:#000000;stroke-width:0.8;" x="59.416059" xlink:href="#m20b4a8e402" y="242.6"/>
      </g>
     </g>
     <g id="text_1">
      <!-- 98.00 -->
      <g transform="translate(45.101997 257.198438)scale(0.1 -0.1)">
       <defs>
        <path d="M 703 97 
L 703 672 
Q 941 559 1184 500 
Q 1428 441 1663 441 
Q 2288 441 2617 861 
Q 2947 1281 2994 2138 
Q 2813 1869 2534 1725 
Q 2256 1581 1919 1581 
Q 1219 1581 811 2004 
Q 403 2428 403 3163 
Q 403 3881 828 4315 
Q 1253 4750 1959 4750 
Q 2769 4750 3195 4129 
Q 3622 3509 3622 2328 
Q 3622 1225 3098 567 
Q 2575 -91 1691 -91 
Q 1453 -91 1209 -44 
Q 966 3 703 97 
z
M 1959 2075 
Q 2384 2075 2632 2365 
Q 2881 2656 2881 3163 
Q 2881 3666 2632 3958 
Q 2384 4250 1959 4250 
Q 1534 4250 1286 3958 
Q 1038 3666 1038 3163 
Q 1038 2656 1286 2365 
Q 1534 2075 1959 2075 
z
" id="DejaVuSans-39" transform="scale(0.015625)"/>
        <path d="M 2034 2216 
Q 1584 2216 1326 1975 
Q 1069 1734 1069 1313 
Q 1069 891 1326 650 
Q 1584 409 2034 409 
Q 2484 409 2743 651 
Q 3003 894 3003 1313 
Q 3003 1734 2745 1975 
Q 2488 2216 2034 2216 
z
M 1403 2484 
Q 997 2584 770 2862 
Q 544 3141 544 3541 
Q 544 4100 942 4425 
Q 1341 4750 2034 4750 
Q 2731 4750 3128 4425 
Q 3525 4100 3525 3541 
Q 3525 3141 3298 2862 
Q 3072 2584 2669 2484 
Q 3125 2378 3379 2068 
Q 3634 1759 3634 1313 
Q 3634 634 3220 271 
Q 2806 -91 2034 -91 
Q 1263 -91 848 271 
Q 434 634 434 1313 
Q 434 1759 690 2068 
Q 947 2378 1403 2484 
z
M 1172 3481 
Q 1172 3119 1398 2916 
Q 1625 2713 2034 2713 
Q 2441 2713 2670 2916 
Q 2900 3119 2900 3481 
Q 2900 3844 2670 4047 
Q 2441 4250 2034 4250 
Q 1625 4250 1398 4047 
Q 1172 3844 1172 3481 
z
" id="DejaVuSans-38" transform="scale(0.015625)"/>
        <path d="M 684 794 
L 1344 794 
L 1344 0 
L 684 0 
L 684 794 
z
" id="DejaVuSans-2e" transform="scale(0.015625)"/>
        <path d="M 2034 4250 
Q 1547 4250 1301 3770 
Q 1056 3291 1056 2328 
Q 1056 1369 1301 889 
Q 1547 409 2034 409 
Q 2525 409 2770 889 
Q 3016 1369 3016 2328 
Q 3016 3291 2770 3770 
Q 2525 4250 2034 4250 
z
M 2034 4750 
Q 2819 4750 3233 4129 
Q 3647 3509 3647 2328 
Q 3647 1150 3233 529 
Q 2819 -91 2034 -91 
Q 1250 -91 836 529 
Q 422 1150 422 2328 
Q 422 3509 836 4129 
Q 1250 4750 2034 4750 
z
" id="DejaVuSans-30" transform="scale(0.015625)"/>
       </defs>
       <use xlink:href="#DejaVuSans-39"/>
       <use x="63.623047" xlink:href="#DejaVuSans-38"/>
       <use x="127.246094" xlink:href="#DejaVuSans-2e"/>
       <use x="159.033203" xlink:href="#DejaVuSans-30"/>
       <use x="222.65625" xlink:href="#DejaVuSans-30"/>
      </g>
     </g>
    </g>
    <g id="xtick_2">
     <g id="line2d_2">
      <g>
       <use style="stroke:#000000;stroke-width:0.8;" x="101.739428" xlink:href="#m20b4a8e402" y="242.6"/>
      </g>
     </g>
     <g id="text_2">
      <!-- 98.25 -->
      <g transform="translate(87.425365 257.198438)scale(0.1 -0.1)">
       <defs>
        <path d="M 1228 531 
L 3431 531 
L 3431 0 
L 469 0 
L 469 531 
Q 828 903 1448 1529 
Q 2069 2156 2228 2338 
Q 2531 2678 2651 2914 
Q 2772 3150 2772 3378 
Q 2772 3750 2511 3984 
Q 2250 4219 1831 4219 
Q 1534 4219 1204 4116 
Q 875 4013 500 3803 
L 500 4441 
Q 881 4594 1212 4672 
Q 1544 4750 1819 4750 
Q 2544 4750 2975 4387 
Q 3406 4025 3406 3419 
Q 3406 3131 3298 2873 
Q 3191 2616 2906 2266 
Q 2828 2175 2409 1742 
Q 1991 1309 1228 531 
z
" id="DejaVuSans-32" transform="scale(0.015625)"/>
        <path d="M 691 4666 
L 3169 4666 
L 3169 4134 
L 1269 4134 
L 1269 2991 
Q 1406 3038 1543 3061 
Q 1681 3084 1819 3084 
Q 2600 3084 3056 2656 
Q 3513 2228 3513 1497 
Q 3513 744 3044 326 
Q 2575 -91 1722 -91 
Q 1428 -91 1123 -41 
Q 819 9 494 109 
L 494 744 
Q 775 591 1075 516 
Q 1375 441 1709 441 
Q 2250 441 2565 725 
Q 2881 1009 2881 1497 
Q 2881 1984 2565 2268 
Q 2250 2553 1709 2553 
Q 1456 2553 1204 2497 
Q 953 2441 691 2322 
L 691 4666 
z
" id="DejaVuSans-35" transform="scale(0.015625)"/>
       </defs>
       <use xlink:href="#DejaVuSans-39"/>
       <use x="63.623047" xlink:href="#DejaVuSans-38"/>
       <use x="127.246094" xlink:href="#DejaVuSans-2e"/>
       <use x="159.033203" xlink:href="#DejaVuSans-32"/>
       <use x="222.65625" xlink:href="#DejaVuSans-35"/>
      </g>
     </g>
    </g>
    <g id="xtick_3">
     <g id="line2d_3">
      <g>
       <use style="stroke:#000000;stroke-width:0.8;" x="144.062797" xlink:href="#m20b4a8e402" y="242.6"/>
      </g>
     </g>
     <g id="text_3">
      <!-- 98.50 -->
      <g transform="translate(129.748734 257.198438)scale(0.1 -0.1)">
       <use xlink:href="#DejaVuSans-39"/>
       <use x="63.623047" xlink:href="#DejaVuSans-38"/>
       <use x="127.246094" xlink:href="#DejaVuSans-2e"/>
       <use x="159.033203" xlink:href="#DejaVuSans-35"/>
       <use x="222.65625" xlink:href="#DejaVuSans-30"/>
      </g>
     </g>
    </g>
    <g id="xtick_4">
     <g id="line2d_4">
      <g>
       <use style="stroke:#000000;stroke-width:0.8;" x="186.386165" xlink:href="#m20b4a8e402" y="242.6"/>
      </g>
     </g>
     <g id="text_4">
      <!-- 98.75 -->
      <g transform="translate(172.072103 257.198438)scale(0.1 -0.1)">
       <defs>
        <path d="M 525 4666 
L 3525 4666 
L 3525 4397 
L 1831 0 
L 1172 0 
L 2766 4134 
L 525 4134 
L 525 4666 
z
" id="DejaVuSans-37" transform="scale(0.015625)"/>
       </defs>
       <use xlink:href="#DejaVuSans-39"/>
       <use x="63.623047" xlink:href="#DejaVuSans-38"/>
       <use x="127.246094" xlink:href="#DejaVuSans-2e"/>
       <use x="159.033203" xlink:href="#DejaVuSans-37"/>
       <use x="222.65625" xlink:href="#DejaVuSans-35"/>
      </g>
     </g>
    </g>
    <g id="xtick_5">
     <g id="line2d_5">
      <g>
       <use style="stroke:#000000;stroke-width:0.8;" x="228.709534" xlink:href="#m20b4a8e402" y="242.6"/>
      </g>
     </g>
     <g id="text_5">
      <!-- 99.00 -->
      <g transform="translate(214.395472 257.198438)scale(0.1 -0.1)">
       <use xlink:href="#DejaVuSans-39"/>
       <use x="63.623047" xlink:href="#DejaVuSans-39"/>
       <use x="127.246094" xlink:href="#DejaVuSans-2e"/>
       <use x="159.033203" xlink:href="#DejaVuSans-30"/>
       <use x="222.65625" xlink:href="#DejaVuSans-30"/>
      </g>
     </g>
    </g>
    <g id="xtick_6">
     <g id="line2d_6">
      <g>
       <use style="stroke:#000000;stroke-width:0.8;" x="271.032903" xlink:href="#m20b4a8e402" y="242.6"/>
      </g>
     </g>
     <g id="text_6">
      <!-- 99.25 -->
      <g transform="translate(256.71884 257.198438)scale(0.1 -0.1)">
       <use xlink:href="#DejaVuSans-39"/>
       <use x="63.623047" xlink:href="#DejaVuSans-39"/>
       <use x="127.246094" xlink:href="#DejaVuSans-2e"/>
       <use x="159.033203" xlink:href="#DejaVuSans-32"/>
       <use x="222.65625" xlink:href="#DejaVuSans-35"/>
      </g>
     </g>
    </g>
    <g id="xtick_7">
     <g id="line2d_7">
      <g>
       <use style="stroke:#000000;stroke-width:0.8;" x="313.356271" xlink:href="#m20b4a8e402" y="242.6"/>
      </g>
     </g>
     <g id="text_7">
      <!-- 99.50 -->
      <g transform="translate(299.042209 257.198438)scale(0.1 -0.1)">
       <use xlink:href="#DejaVuSans-39"/>
       <use x="63.623047" xlink:href="#DejaVuSans-39"/>
       <use x="127.246094" xlink:href="#DejaVuSans-2e"/>
       <use x="159.033203" xlink:href="#DejaVuSans-35"/>
       <use x="222.65625" xlink:href="#DejaVuSans-30"/>
      </g>
     </g>
    </g>
    <g id="xtick_8">
     <g id="line2d_8">
      <g>
       <use style="stroke:#000000;stroke-width:0.8;" x="355.67964" xlink:href="#m20b4a8e402" y="242.6"/>
      </g>
     </g>
     <g id="text_8">
      <!-- 99.75 -->
      <g transform="translate(341.365578 257.198438)scale(0.1 -0.1)">
       <use xlink:href="#DejaVuSans-39"/>
       <use x="63.623047" xlink:href="#DejaVuSans-39"/>
       <use x="127.246094" xlink:href="#DejaVuSans-2e"/>
       <use x="159.033203" xlink:href="#DejaVuSans-37"/>
       <use x="222.65625" xlink:href="#DejaVuSans-35"/>
      </g>
     </g>
    </g>
    <g id="xtick_9">
     <g id="line2d_9">
      <g>
       <use style="stroke:#000000;stroke-width:0.8;" x="398.003009" xlink:href="#m20b4a8e402" y="242.6"/>
      </g>
     </g>
     <g id="text_9">
      <!-- 100.00 -->
      <g transform="translate(380.507696 257.198438)scale(0.1 -0.1)">
       <defs>
        <path d="M 794 531 
L 1825 531 
L 1825 4091 
L 703 3866 
L 703 4441 
L 1819 4666 
L 2450 4666 
L 2450 531 
L 3481 531 
L 3481 0 
L 794 0 
L 794 531 
z
" id="DejaVuSans-31" transform="scale(0.015625)"/>
       </defs>
       <use xlink:href="#DejaVuSans-31"/>
       <use x="63.623047" xlink:href="#DejaVuSans-30"/>
       <use x="127.246094" xlink:href="#DejaVuSans-30"/>
       <use x="190.869141" xlink:href="#DejaVuSans-2e"/>
       <use x="222.65625" xlink:href="#DejaVuSans-30"/>
       <use x="286.279297" xlink:href="#DejaVuSans-30"/>
      </g>
     </g>
    </g>
    <g id="text_10">
     <!-- time (ms) -->
     <g transform="translate(204.511435 270.876562)scale(0.1 -0.1)">
      <defs>
       <path d="M 1172 4494 
L 1172 3500 
L 2356 3500 
L 2356 3053 
L 1172 3053 
L 1172 1153 
Q 1172 725 1289 603 
Q 1406 481 1766 481 
L 2356 481 
L 2356 0 
L 1766 0 
Q 1100 0 847 248 
Q 594 497 594 1153 
L 594 3053 
L 172 3053 
L 172 3500 
L 594 3500 
L 594 4494 
L 1172 4494 
z
" id="DejaVuSans-74" transform="scale(0.015625)"/>
       <path d="M 603 3500 
L 1178 3500 
L 1178 0 
L 603 0 
L 603 3500 
z
M 603 4863 
L 1178 4863 
L 1178 4134 
L 603 4134 
L 603 4863 
z
" id="DejaVuSans-69" transform="scale(0.015625)"/>
       <path d="M 3328 2828 
Q 3544 3216 3844 3400 
Q 4144 3584 4550 3584 
Q 5097 3584 5394 3201 
Q 5691 2819 5691 2113 
L 5691 0 
L 5113 0 
L 5113 2094 
Q 5113 2597 4934 2840 
Q 4756 3084 4391 3084 
Q 3944 3084 3684 2787 
Q 3425 2491 3425 1978 
L 3425 0 
L 2847 0 
L 2847 2094 
Q 2847 2600 2669 2842 
Q 2491 3084 2119 3084 
Q 1678 3084 1418 2786 
Q 1159 2488 1159 1978 
L 1159 0 
L 581 0 
L 581 3500 
L 1159 3500 
L 1159 2956 
Q 1356 3278 1631 3431 
Q 1906 3584 2284 3584 
Q 2666 3584 2933 3390 
Q 3200 3197 3328 2828 
z
" id="DejaVuSans-6d" transform="scale(0.015625)"/>
       <path d="M 3597 1894 
L 3597 1613 
L 953 1613 
Q 991 1019 1311 708 
Q 1631 397 2203 397 
Q 2534 397 2845 478 
Q 3156 559 3463 722 
L 3463 178 
Q 3153 47 2828 -22 
Q 2503 -91 2169 -91 
Q 1331 -91 842 396 
Q 353 884 353 1716 
Q 353 2575 817 3079 
Q 1281 3584 2069 3584 
Q 2775 3584 3186 3129 
Q 3597 2675 3597 1894 
z
M 3022 2063 
Q 3016 2534 2758 2815 
Q 2500 3097 2075 3097 
Q 1594 3097 1305 2825 
Q 1016 2553 972 2059 
L 3022 2063 
z
" id="DejaVuSans-65" transform="scale(0.015625)"/>
       <path id="DejaVuSans-20" transform="scale(0.015625)"/>
       <path d="M 1984 4856 
Q 1566 4138 1362 3434 
Q 1159 2731 1159 2009 
Q 1159 1288 1364 580 
Q 1569 -128 1984 -844 
L 1484 -844 
Q 1016 -109 783 600 
Q 550 1309 550 2009 
Q 550 2706 781 3412 
Q 1013 4119 1484 4856 
L 1984 4856 
z
" id="DejaVuSans-28" transform="scale(0.015625)"/>
       <path d="M 2834 3397 
L 2834 2853 
Q 2591 2978 2328 3040 
Q 2066 3103 1784 3103 
Q 1356 3103 1142 2972 
Q 928 2841 928 2578 
Q 928 2378 1081 2264 
Q 1234 2150 1697 2047 
L 1894 2003 
Q 2506 1872 2764 1633 
Q 3022 1394 3022 966 
Q 3022 478 2636 193 
Q 2250 -91 1575 -91 
Q 1294 -91 989 -36 
Q 684 19 347 128 
L 347 722 
Q 666 556 975 473 
Q 1284 391 1588 391 
Q 1994 391 2212 530 
Q 2431 669 2431 922 
Q 2431 1156 2273 1281 
Q 2116 1406 1581 1522 
L 1381 1569 
Q 847 1681 609 1914 
Q 372 2147 372 2553 
Q 372 3047 722 3315 
Q 1072 3584 1716 3584 
Q 2034 3584 2315 3537 
Q 2597 3491 2834 3397 
z
" id="DejaVuSans-73" transform="scale(0.015625)"/>
       <path d="M 513 4856 
L 1013 4856 
Q 1481 4119 1714 3412 
Q 1947 2706 1947 2009 
Q 1947 1309 1714 600 
Q 1481 -109 1013 -844 
L 513 -844 
Q 928 -128 1133 580 
Q 1338 1288 1338 2009 
Q 1338 2731 1133 3434 
Q 928 4138 513 4856 
z
" id="DejaVuSans-29" transform="scale(0.015625)"/>
      </defs>
      <use xlink:href="#DejaVuSans-74"/>
      <use x="39.208984" xlink:href="#DejaVuSans-69"/>
      <use x="66.992188" xlink:href="#DejaVuSans-6d"/>
      <use x="164.404297" xlink:href="#DejaVuSans-65"/>
      <use x="225.927734" xlink:href="#DejaVuSans-20"/>
      <use x="257.714844" xlink:href="#DejaVuSans-28"/>
      <use x="296.728516" xlink:href="#DejaVuSans-6d"/>
      <use x="394.140625" xlink:href="#DejaVuSans-73"/>
      <use x="446.240234" xlink:href="#DejaVuSans-29"/>
     </g>
    </g>
   </g>
   <g id="matplotlib.axis_2">
    <g id="ytick_1">
     <g id="line2d_10">
      <defs>
       <path d="M 0 0 
L -3.5 0 
" id="m19855ede87" style="stroke:#000000;stroke-width:0.8;"/>
      </defs>
      <g>
       <use style="stroke:#000000;stroke-width:0.8;" x="42.620313" xlink:href="#m19855ede87" y="219.906054"/>
      </g>
     </g>
     <g id="text_11">
      <!-- −1 -->
      <g transform="translate(20.878125 223.705272)scale(0.1 -0.1)">
       <defs>
        <path d="M 678 2272 
L 4684 2272 
L 4684 1741 
L 678 1741 
L 678 2272 
z
" id="DejaVuSans-2212" transform="scale(0.015625)"/>
       </defs>
       <use xlink:href="#DejaVuSans-2212"/>
       <use x="83.789062" xlink:href="#DejaVuSans-31"/>
      </g>
     </g>
    </g>
    <g id="ytick_2">
     <g id="line2d_11">
      <g>
       <use style="stroke:#000000;stroke-width:0.8;" x="42.620313" xlink:href="#m19855ede87" y="186.922701"/>
      </g>
     </g>
     <g id="text_12">
      <!-- 0 -->
      <g transform="translate(29.257813 190.72192)scale(0.1 -0.1)">
       <use xlink:href="#DejaVuSans-30"/>
      </g>
     </g>
    </g>
    <g id="ytick_3">
     <g id="line2d_12">
      <g>
       <use style="stroke:#000000;stroke-width:0.8;" x="42.620313" xlink:href="#m19855ede87" y="153.939348"/>
      </g>
     </g>
     <g id="text_13">
      <!-- 1 -->
      <g transform="translate(29.257813 157.738567)scale(0.1 -0.1)">
       <use xlink:href="#DejaVuSans-31"/>
      </g>
     </g>
    </g>
    <g id="ytick_4">
     <g id="line2d_13">
      <g>
       <use style="stroke:#000000;stroke-width:0.8;" x="42.620313" xlink:href="#m19855ede87" y="120.955995"/>
      </g>
     </g>
     <g id="text_14">
      <!-- 2 -->
      <g transform="translate(29.257813 124.755214)scale(0.1 -0.1)">
       <use xlink:href="#DejaVuSans-32"/>
      </g>
     </g>
    </g>
    <g id="ytick_5">
     <g id="line2d_14">
      <g>
       <use style="stroke:#000000;stroke-width:0.8;" x="42.620313" xlink:href="#m19855ede87" y="87.972643"/>
      </g>
     </g>
     <g id="text_15">
      <!-- 3 -->
      <g transform="translate(29.257813 91.771861)scale(0.1 -0.1)">
       <defs>
        <path d="M 2597 2516 
Q 3050 2419 3304 2112 
Q 3559 1806 3559 1356 
Q 3559 666 3084 287 
Q 2609 -91 1734 -91 
Q 1441 -91 1130 -33 
Q 819 25 488 141 
L 488 750 
Q 750 597 1062 519 
Q 1375 441 1716 441 
Q 2309 441 2620 675 
Q 2931 909 2931 1356 
Q 2931 1769 2642 2001 
Q 2353 2234 1838 2234 
L 1294 2234 
L 1294 2753 
L 1863 2753 
Q 2328 2753 2575 2939 
Q 2822 3125 2822 3475 
Q 2822 3834 2567 4026 
Q 2313 4219 1838 4219 
Q 1578 4219 1281 4162 
Q 984 4106 628 3988 
L 628 4550 
Q 988 4650 1302 4700 
Q 1616 4750 1894 4750 
Q 2613 4750 3031 4423 
Q 3450 4097 3450 3541 
Q 3450 3153 3228 2886 
Q 3006 2619 2597 2516 
z
" id="DejaVuSans-33" transform="scale(0.015625)"/>
       </defs>
       <use xlink:href="#DejaVuSans-33"/>
      </g>
     </g>
    </g>
    <g id="ytick_6">
     <g id="line2d_15">
      <g>
       <use style="stroke:#000000;stroke-width:0.8;" x="42.620313" xlink:href="#m19855ede87" y="54.98929"/>
      </g>
     </g>
     <g id="text_16">
      <!-- 4 -->
      <g transform="translate(29.257813 58.788509)scale(0.1 -0.1)">
       <defs>
        <path d="M 2419 4116 
L 825 1625 
L 2419 1625 
L 2419 4116 
z
M 2253 4666 
L 3047 4666 
L 3047 1625 
L 3713 1625 
L 3713 1100 
L 3047 1100 
L 3047 0 
L 2419 0 
L 2419 1100 
L 313 1100 
L 313 1709 
L 2253 4666 
z
" id="DejaVuSans-34" transform="scale(0.015625)"/>
       </defs>
       <use xlink:href="#DejaVuSans-34"/>
      </g>
     </g>
    </g>
    <g id="ytick_7">
     <g id="line2d_16">
      <g>
       <use style="stroke:#000000;stroke-width:0.8;" x="42.620313" xlink:href="#m19855ede87" y="22.005937"/>
      </g>
     </g>
     <g id="text_17">
      <!-- 5 -->
      <g transform="translate(29.257813 25.805156)scale(0.1 -0.1)">
       <use xlink:href="#DejaVuSans-35"/>
      </g>
     </g>
    </g>
    <g id="text_18">
     <!-- IN [V] -->
     <g transform="translate(14.798438 139.026563)rotate(-90)scale(0.1 -0.1)">
      <defs>
       <path d="M 628 4666 
L 1259 4666 
L 1259 0 
L 628 0 
L 628 4666 
z
" id="DejaVuSans-49" transform="scale(0.015625)"/>
       <path d="M 628 4666 
L 1478 4666 
L 3547 763 
L 3547 4666 
L 4159 4666 
L 4159 0 
L 3309 0 
L 1241 3903 
L 1241 0 
L 628 0 
L 628 4666 
z
" id="DejaVuSans-4e" transform="scale(0.015625)"/>
       <path d="M 550 4863 
L 1875 4863 
L 1875 4416 
L 1125 4416 
L 1125 -397 
L 1875 -397 
L 1875 -844 
L 550 -844 
L 550 4863 
z
" id="DejaVuSans-5b" transform="scale(0.015625)"/>
       <path d="M 1831 0 
L 50 4666 
L 709 4666 
L 2188 738 
L 3669 4666 
L 4325 4666 
L 2547 0 
L 1831 0 
z
" id="DejaVuSans-56" transform="scale(0.015625)"/>
       <path d="M 1947 4863 
L 1947 -844 
L 622 -844 
L 622 -397 
L 1369 -397 
L 1369 4416 
L 622 4416 
L 622 4863 
L 1947 4863 
z
" id="DejaVuSans-5d" transform="scale(0.015625)"/>
      </defs>
      <use xlink:href="#DejaVuSans-49"/>
      <use x="29.492188" xlink:href="#DejaVuSans-4e"/>
      <use x="104.296875" xlink:href="#DejaVuSans-20"/>
      <use x="136.083984" xlink:href="#DejaVuSans-5b"/>
      <use x="175.097656" xlink:href="#DejaVuSans-56"/>
      <use x="243.505859" xlink:href="#DejaVuSans-5d"/>
     </g>
    </g>
   </g>
   <g id="line2d_17">
    <path clip-path="url(#p0ceea55dae)" d="M 59.543298 186.446028 
L 61.744113 186.422833 
L 63.944928 186.383402 
L 66.484331 186.353263 
L 69.700907 186.301097 
L 73.256069 186.254528 
L 77.488406 186.189666 
L 82.736504 186.117613 
L 89.33895 186.020708 
L 97.972917 185.900706 
L 108.976993 185.74583 
L 112.701449 185.616165 
L 113.71721 185.389699 
L 114.22509 185.037521 
L 114.394384 184.804744 
L 114.563677 184.356941 
L 114.732971 183.35223 
L 114.902264 164.338973 
L 115.160674 18.770401 
L 115.265778 26.636917 
L 115.349508 20.265155 
L 115.430064 24.909978 
L 115.521152 21.317457 
L 115.617158 24.129989 
L 115.741858 21.830459 
L 115.911152 23.812921 
L 116.080445 22.063614 
L 116.249739 23.621094 
L 116.419032 22.242552 
L 116.588326 23.478546 
L 116.757619 22.381112 
L 116.926913 23.372658 
L 117.096206 22.489267 
L 117.2655 23.294111 
L 117.434793 22.574473 
L 117.604087 23.236061 
L 117.77338 22.642315 
L 117.942674 23.193447 
L 118.111967 22.696984 
L 118.281261 23.162505 
L 118.450554 22.741632 
L 118.619848 23.140424 
L 118.789141 22.778638 
L 118.958434 23.125091 
L 119.127728 22.809798 
L 119.297021 23.114918 
L 119.466315 22.836475 
L 119.635608 23.1087 
L 119.804902 22.859703 
L 119.974195 23.105526 
L 120.143489 22.880268 
L 120.312782 23.104701 
L 120.482076 22.898773 
L 120.651369 23.105697 
L 120.820663 22.915676 
L 120.989956 23.108108 
L 121.15925 22.931329 
L 121.328543 23.111625 
L 121.497837 22.946002 
L 121.66713 23.11601 
L 121.836424 22.959903 
L 122.005717 23.12108 
L 122.17501 22.973192 
L 122.344304 23.126693 
L 122.513597 22.985992 
L 122.682891 23.132741 
L 122.852184 22.998399 
L 123.021478 23.139138 
L 123.190771 23.010488 
L 123.360065 23.145819 
L 123.529358 23.022315 
L 123.698652 23.152733 
L 123.867945 23.033926 
L 124.037239 23.15984 
L 124.206532 23.045355 
L 124.375826 23.167107 
L 124.545119 23.056631 
L 124.714413 23.17451 
L 124.883706 23.067774 
L 125.053 23.182028 
L 125.222293 23.0788 
L 125.391586 23.189645 
L 125.56088 23.089722 
L 125.730173 23.197344 
L 125.899467 23.100545 
L 126.06876 23.205108 
L 126.238054 23.111266 
L 126.407347 23.212906 
L 126.576641 23.121868 
L 126.745934 23.220728 
L 126.915228 23.13238 
L 127.084521 23.228598 
L 127.253815 23.142828 
L 127.423108 23.236522 
L 127.592402 23.15322 
L 127.761695 23.244497 
L 127.930989 23.163561 
L 128.100282 23.25252 
L 128.269576 23.173853 
L 128.438869 23.260587 
L 128.608163 23.1841 
L 128.777456 23.268696 
L 128.946749 23.194303 
L 129.116043 23.276845 
L 129.285336 23.204465 
L 129.45463 23.28503 
L 129.623923 23.214588 
L 129.793217 23.29325 
L 129.96251 23.224674 
L 130.131804 23.301504 
L 130.301097 23.234723 
L 130.470391 23.309789 
L 130.639684 23.244738 
L 130.808978 23.318105 
L 130.978271 23.254721 
L 131.147565 23.326449 
L 131.316858 23.264672 
L 131.486152 23.334821 
L 131.655445 23.274593 
L 131.824739 23.343218 
L 131.994032 23.284484 
L 132.163325 23.351641 
L 132.332619 23.294348 
L 132.501912 23.360088 
L 132.671206 23.304185 
L 132.840499 23.368558 
L 133.009793 23.313996 
L 133.517673 23.385561 
L 134.025554 23.343284 
L 134.533434 23.411214 
L 135.041315 23.372379 
L 135.549195 23.437065 
L 136.057075 23.401326 
L 136.564956 23.463002 
L 137.072836 23.430061 
L 137.580717 23.489062 
L 138.088597 23.458658 
L 138.596478 23.515231 
L 139.104358 23.487133 
L 139.612238 23.541504 
L 140.120119 23.515509 
L 140.627999 23.567884 
L 141.13588 23.543826 
L 141.64376 23.594385 
L 142.15164 23.572057 
L 142.659521 23.620899 
L 143.167401 23.600134 
L 143.675282 23.647414 
L 144.183162 23.628099 
L 144.691043 23.673953 
L 145.198923 23.655978 
L 145.706803 23.700519 
L 146.214684 23.683779 
L 146.722564 23.727108 
L 147.230445 23.711508 
L 147.738325 23.753715 
L 148.246206 23.739171 
L 149.092673 23.789212 
L 149.93914 23.785141 
L 150.785608 23.833605 
L 151.632075 23.830955 
L 152.478542 23.878008 
L 153.32501 23.876627 
L 154.171477 23.922407 
L 155.017945 23.922166 
L 155.864412 23.966791 
L 156.710879 23.967578 
L 157.557347 24.011144 
L 158.403814 24.012859 
L 159.250281 24.055439 
L 160.096749 24.057989 
L 160.943216 24.099559 
L 161.789684 24.102321 
L 162.974738 24.169979 
L 163.651912 24.262019 
L 164.159792 24.395139 
L 164.836966 24.87719 
L 165.175553 25.490142 
L 165.344847 26.099694 
L 165.51414 27.343538 
L 165.731203 51.875135 
L 165.780012 66.866591 
L 165.903737 188.283265 
L 165.948761 184.618367 
L 165.992514 187.734475 
L 166.080333 186.46837 
L 166.113767 186.716961 
L 166.171604 186.518724 
L 166.271465 186.751979 
L 166.400244 186.559916 
L 166.569537 186.769452 
L 166.738831 186.568158 
L 166.908124 186.764591 
L 167.077417 186.567266 
L 167.246711 186.757951 
L 167.416004 186.565599 
L 167.585298 186.750988 
L 167.754591 186.563562 
L 167.923885 186.743893 
L 168.093178 186.561302 
L 168.262472 186.736755 
L 168.431765 186.558889 
L 168.601059 186.72962 
L 168.770352 186.556364 
L 168.939646 186.722509 
L 169.108939 186.553747 
L 169.278233 186.715436 
L 169.447526 186.551051 
L 169.61682 186.708405 
L 169.786113 186.548282 
L 169.955407 186.701419 
L 170.1247 186.545445 
L 170.293993 186.694479 
L 170.463287 186.542542 
L 170.63258 186.687586 
L 170.801874 186.539578 
L 170.971167 186.68074 
L 171.140461 186.536552 
L 171.309754 186.673939 
L 171.479048 186.533469 
L 171.648341 186.667184 
L 171.817635 186.530329 
L 171.986928 186.660473 
L 172.156222 186.527134 
L 172.325515 186.653805 
L 172.494809 186.523886 
L 172.664102 186.647181 
L 172.833396 186.520586 
L 173.002689 186.640599 
L 173.171983 186.517236 
L 173.341276 186.634057 
L 173.51057 186.513838 
L 173.679863 186.627557 
L 173.849156 186.510393 
L 174.01845 186.621095 
L 174.187743 186.506903 
L 174.357037 186.614672 
L 174.52633 186.503369 
L 174.695624 186.608287 
L 174.864917 186.499793 
L 175.034211 186.601939 
L 175.203504 186.496175 
L 175.372798 186.595627 
L 175.542091 186.492518 
L 175.711385 186.58935 
L 175.880678 186.488823 
L 176.049972 186.583109 
L 176.219265 186.485091 
L 176.388559 186.576901 
L 176.557852 186.480932 
L 176.727146 186.570692 
L 176.896439 186.477183 
L 177.065732 186.564528 
L 177.235026 186.473393 
L 177.404319 186.558062 
L 177.573613 186.469534 
L 177.742906 186.552023 
L 177.9122 186.465652 
L 178.081493 186.546013 
L 178.250787 186.461746 
L 178.42008 186.540037 
L 178.589374 186.457822 
L 178.758667 186.5341 
L 178.927961 186.453888 
L 179.097254 186.528213 
L 179.266548 186.449959 
L 179.435841 186.522383 
L 179.605135 186.446024 
L 179.774428 186.516587 
L 179.943722 186.442065 
L 180.113015 186.510814 
L 180.282309 186.438079 
L 180.451602 186.505062 
L 180.620895 186.434066 
L 180.790189 186.499332 
L 180.959482 186.430027 
L 181.128776 186.493622 
L 181.298069 186.425963 
L 181.467363 186.487934 
L 181.636656 186.421874 
L 181.80595 186.482265 
L 181.975243 186.417762 
L 182.144537 186.476616 
L 182.31383 186.413628 
L 182.483124 186.470987 
L 182.821711 186.465376 
L 183.329591 186.401095 
L 183.837471 186.448645 
L 184.345352 186.388388 
L 184.853232 186.432082 
L 185.361113 186.375511 
L 185.868993 186.415661 
L 186.376874 186.362487 
L 186.884754 186.399373 
L 187.392634 186.349332 
L 187.900515 186.383211 
L 188.408395 186.336056 
L 188.916276 186.367166 
L 189.424156 186.322672 
L 189.932037 186.351231 
L 190.439917 186.30919 
L 190.947797 186.335397 
L 191.455678 186.295619 
L 191.963558 186.319658 
L 192.471439 186.281969 
L 192.979319 186.304009 
L 193.4872 186.268248 
L 194.333667 186.283272 
L 195.180134 186.24524 
L 196.026602 186.257541 
L 196.873069 186.222084 
L 197.719536 186.232001 
L 198.566004 186.198806 
L 199.412471 186.206633 
L 200.258939 186.175428 
L 201.443993 186.176394 
L 202.629047 186.142564 
L 203.814102 186.141365 
L 204.999156 186.10958 
L 206.18421 186.106565 
L 207.707851 186.071768 
L 209.231493 186.062076 
L 210.755134 186.029031 
L 212.617362 186.012956 
L 214.47959 185.97697 
L 216.680406 185.954685 
L 218.881221 185.915595 
L 221.420623 185.887305 
L 223.960025 185.844997 
L 226.838014 185.810998 
L 230.05459 185.760715 
L 233.44046 185.709283 
L 235.133394 185.598977 
L 235.979862 185.401312 
L 236.487742 185.08913 
L 236.826329 184.508464 
L 236.995623 183.660714 
L 237.164916 172.300361 
L 237.44643 17.9 
L 237.550079 27.372059 
L 237.621103 19.943454 
L 237.703632 22.761617 
L 237.745366 22.874575 
L 237.775947 22.862858 
L 238.467315 22.890594 
L 239.990957 22.920813 
L 241.853185 22.982911 
L 243.715413 23.023788 
L 245.577641 23.085056 
L 247.439869 23.126574 
L 249.302098 23.186663 
L 251.502913 23.237329 
L 253.703728 23.305383 
L 255.904543 23.356682 
L 258.274652 23.420816 
L 260.814054 23.496644 
L 263.353456 23.558035 
L 266.231445 23.642075 
L 269.109434 23.712871 
L 272.32601 23.804644 
L 275.542586 23.884767 
L 279.097749 23.984251 
L 282.991499 24.082279 
L 286.208075 24.331464 
L 286.715956 24.552739 
L 287.054543 24.837153 
L 287.39313 25.39536 
L 287.562423 25.931203 
L 287.731716 26.961336 
L 287.90101 30.6785 
L 288.195729 191.39785 
L 288.273463 182.809675 
L 288.349573 186.586111 
L 288.424778 186.664176 
L 288.60048 186.681153 
L 289.10836 186.648874 
L 289.61624 186.674534 
L 290.124121 186.636874 
L 290.632001 186.659408 
L 291.139882 186.623554 
L 291.817056 186.614477 
L 292.663523 186.628207 
L 293.50999 186.591446 
L 294.356458 186.602151 
L 295.202925 186.568066 
L 296.049393 186.576144 
L 296.89586 186.544415 
L 297.911621 186.530123 
L 299.096675 186.529535 
L 300.281729 186.496578 
L 301.466784 186.493693 
L 302.990425 186.458513 
L 304.514066 186.448459 
L 306.037708 186.415527 
L 307.899936 186.398406 
L 309.931457 186.368486 
L 312.132273 186.328866 
L 314.671675 186.298999 
L 317.549664 186.25152 
L 321.104827 186.205409 
L 325.16787 186.1467 
L 330.077381 186.072908 
L 336.002653 185.991377 
L 343.282272 185.886418 
L 352.42412 185.759162 
L 356.995043 185.630449 
L 358.010804 185.435644 
L 358.518685 185.172377 
L 358.857272 184.734265 
L 359.026565 184.210037 
L 359.195859 182.882507 
L 359.365152 162.828445 
L 359.62306 18.848617 
L 359.72953 26.56692 
L 359.814077 20.296598 
L 359.89558 24.889626 
L 359.988177 21.324576 
L 360.085863 24.128266 
L 360.213278 21.827227 
L 360.382571 23.815014 
L 360.551865 22.061205 
L 360.721158 23.62248 
L 360.890452 22.240807 
L 361.059745 23.479373 
L 361.229039 22.379893 
L 361.398332 23.373039 
L 361.567626 22.488462 
L 361.736919 23.294142 
L 361.906213 22.573989 
L 362.075506 23.235819 
L 362.2448 22.642078 
L 362.414093 23.192995 
L 362.583387 22.696935 
L 362.75268 23.161893 
L 362.921974 22.741725 
L 363.091267 23.139692 
L 363.260561 22.778836 
L 363.429854 23.124272 
L 363.599147 22.810073 
L 363.768441 23.114036 
L 363.937734 22.836804 
L 364.107028 23.107774 
L 364.276321 22.860068 
L 364.445615 23.104572 
L 364.614908 22.880657 
L 364.784202 23.10373 
L 364.953495 22.899175 
L 365.122789 23.104717 
L 365.292082 22.916083 
L 365.461376 23.107127 
L 365.630669 22.931735 
L 365.799963 23.110648 
L 365.969256 22.946403 
L 366.13855 23.11504 
L 366.307843 22.960296 
L 366.477137 23.120119 
L 366.64643 22.973574 
L 366.815724 23.125744 
L 366.985017 22.986362 
L 367.15431 23.131805 
L 367.323604 22.998756 
L 367.492897 23.138216 
L 367.662191 23.01083 
L 367.831484 23.144912 
L 368.000778 23.022643 
L 368.170071 23.151841 
L 368.339365 23.034239 
L 368.508658 23.158962 
L 368.677952 23.045654 
L 368.847245 23.166244 
L 369.016539 23.056915 
L 369.185832 23.173662 
L 369.355126 23.068044 
L 369.524419 23.181194 
L 369.693713 23.079056 
L 369.863006 23.188825 
L 370.0323 23.089965 
L 370.201593 23.196538 
L 370.370886 23.100775 
L 370.54018 23.204316 
L 370.709473 23.111484 
L 370.878767 23.212129 
L 371.04806 23.122075 
L 371.217354 23.219964 
L 371.386647 23.132575 
L 371.555941 23.227846 
L 371.725234 23.143011 
L 371.894528 23.235782 
L 372.063821 23.153392 
L 372.233115 23.243769 
L 372.402408 23.163722 
L 372.571702 23.251802 
L 372.740995 23.174004 
L 372.910289 23.25988 
L 373.079582 23.18424 
L 373.248876 23.267999 
L 373.418169 23.194434 
L 373.587462 23.276157 
L 373.756756 23.204586 
L 373.926049 23.284352 
L 374.095343 23.2147 
L 374.264636 23.292582 
L 374.43393 23.224776 
L 374.603223 23.300844 
L 374.772517 23.234817 
L 374.94181 23.309138 
L 375.111104 23.244824 
L 375.280397 23.317462 
L 375.449691 23.254798 
L 375.618984 23.325814 
L 375.788278 23.264741 
L 375.957571 23.334194 
L 376.126865 23.274654 
L 376.296158 23.342599 
L 376.465452 23.284539 
L 376.634745 23.351029 
L 376.804039 23.294396 
L 376.973332 23.359483 
L 377.142625 23.304226 
L 377.481212 23.31403 
L 377.989093 23.384976 
L 378.496973 23.343299 
L 379.004854 23.410708 
L 379.512734 23.372435 
L 380.020615 23.436516 
L 380.528495 23.401308 
L 381.036375 23.462467 
L 381.544256 23.430029 
L 382.052136 23.48854 
L 382.560017 23.458613 
L 383.067897 23.514723 
L 383.575778 23.487077 
L 384.083658 23.541007 
L 384.591538 23.515441 
L 385.099419 23.567397 
L 385.607299 23.543748 
L 386.11518 23.593908 
L 386.62306 23.57197 
L 387.13094 23.620432 
L 387.638821 23.600039 
L 388.146701 23.646956 
L 388.654582 23.627997 
L 389.162462 23.673504 
L 389.670343 23.655868 
L 390.178223 23.700078 
L 390.686103 23.683662 
L 391.193984 23.726673 
L 391.701864 23.711385 
L 392.209745 23.753287 
L 392.886919 23.771037 
L 393.733386 23.766637 
L 394.579853 23.815432 
L 395.426321 23.812503 
L 396.272788 23.859842 
L 397.119255 23.858223 
L 397.965723 23.904252 
L 398.003009 23.882296 
L 398.003009 23.882296 
" style="fill:none;stroke:#0000ff;stroke-linecap:square;stroke-width:1.5;"/>
   </g>
   <g id="line2d_18">
    <path clip-path="url(#p0ceea55dae)" d="M 59.543298 159.738154 
L 77.319113 133.25782 
L 92.216939 111.480765 
L 105.591123 92.350086 
L 114.732971 79.482189 
L 114.902264 78.691764 
L 115.160674 67.001673 
L 115.349508 61.189322 
L 115.741858 61.840178 
L 121.497837 74.437161 
L 132.671206 98.682458 
L 147.907619 131.146024 
L 161.789684 160.168766 
L 165.51414 167.894596 
L 165.780012 169.402191 
L 166.271465 181.746877 
L 166.400244 182.495987 
L 166.569537 182.635016 
L 167.077417 182.059814 
L 168.939646 179.330405 
L 197.719536 136.06502 
L 212.786656 113.986531 
L 225.991547 95.046082 
L 236.995623 79.546392 
L 237.164916 78.975355 
L 237.33421 73.7903 
L 237.550079 61.121371 
L 237.959435 61.771742 
L 240.16025 66.534749 
L 253.195848 94.960753 
L 268.43226 127.490961 
L 282.145032 156.226858 
L 287.90101 168.245709 
L 288.195729 177.220802 
L 288.424778 181.688504 
L 288.60048 182.522406 
L 288.769773 182.551028 
L 289.277654 181.949941 
L 291.139882 179.215828 
L 319.411892 136.704024 
L 334.479011 114.612906 
L 347.683902 95.659956 
L 359.195859 79.416108 
L 359.365152 78.592032 
L 359.62306 66.855428 
L 359.814077 61.148377 
L 360.213278 61.815877 
L 365.969256 74.414367 
L 377.142625 98.660161 
L 392.379038 131.124129 
L 398.003009 142.944594 
L 398.003009 142.944594 
" style="fill:none;stroke:#008000;stroke-linecap:square;stroke-width:1.5;"/>
   </g>
   <g id="line2d_19">
    <path clip-path="url(#p0ceea55dae)" d="M 42.620313 66.983236 
L 414.925994 66.983236 
" style="fill:none;stroke:#808080;stroke-dasharray:1.5,2.475;stroke-dashoffset:0;stroke-width:1.5;"/>
   </g>
   <g id="line2d_20">
    <path clip-path="url(#p0ceea55dae)" d="M 42.620313 231.9 
L 414.925994 231.9 
" style="fill:none;stroke:#808080;stroke-dasharray:1.5,2.475;stroke-dashoffset:0;stroke-width:1.5;"/>
   </g>
   <g id="patch_3">
    <path d="M 42.620313 242.6 
L 42.620313 7.2 
" style="fill:none;stroke:#000000;stroke-linecap:square;stroke-linejoin:miter;stroke-width:0.8;"/>
   </g>
   <g id="patch_4">
    <path d="M 414.925994 242.6 
L 414.925994 7.2 
" style="fill:none;stroke:#000000;stroke-linecap:square;stroke-linejoin:miter;stroke-width:0.8;"/>
   </g>
   <g id="patch_5">
    <path d="M 42.620312 242.6 
L 414.925994 242.6 
" style="fill:none;stroke:#000000;stroke-linecap:square;stroke-linejoin:miter;stroke-width:0.8;"/>
   </g>
   <g id="patch_6">
    <path d="M 42.620312 7.2 
L 414.925994 7.2 
" style="fill:none;stroke:#000000;stroke-linecap:square;stroke-linejoin:miter;stroke-width:0.8;"/>
   </g>
   <g id="legend_1">
    <g id="patch_7">
     <path d="M 48.343369 89.59 
L 171.155869 89.59 
Q 173.155869 89.59 173.155869 87.59 
L 173.155869 59.23375 
Q 173.155869 57.23375 171.155869 57.23375 
L 48.343369 57.23375 
Q 46.343369 57.23375 46.343369 59.23375 
L 46.343369 87.59 
Q 46.343369 89.59 48.343369 89.59 
z
" style="fill:#ffffff;opacity:0.8;stroke:#cccccc;stroke-linejoin:miter;"/>
    </g>
    <g id="line2d_21">
     <path d="M 50.343369 65.332188 
L 70.343369 65.332188 
" style="fill:none;stroke:#0000ff;stroke-linecap:square;stroke-width:1.5;"/>
    </g>
    <g id="line2d_22"/>
    <g id="text_19">
     <!-- Vin [V] -->
     <g transform="translate(78.343369 68.832188)scale(0.1 -0.1)">
      <defs>
       <path d="M 3513 2113 
L 3513 0 
L 2938 0 
L 2938 2094 
Q 2938 2591 2744 2837 
Q 2550 3084 2163 3084 
Q 1697 3084 1428 2787 
Q 1159 2491 1159 1978 
L 1159 0 
L 581 0 
L 581 3500 
L 1159 3500 
L 1159 2956 
Q 1366 3272 1645 3428 
Q 1925 3584 2291 3584 
Q 2894 3584 3203 3211 
Q 3513 2838 3513 2113 
z
" id="DejaVuSans-6e" transform="scale(0.015625)"/>
      </defs>
      <use xlink:href="#DejaVuSans-56"/>
      <use x="66.158203" xlink:href="#DejaVuSans-69"/>
      <use x="93.941406" xlink:href="#DejaVuSans-6e"/>
      <use x="157.320312" xlink:href="#DejaVuSans-20"/>
      <use x="189.107422" xlink:href="#DejaVuSans-5b"/>
      <use x="228.121094" xlink:href="#DejaVuSans-56"/>
      <use x="296.529297" xlink:href="#DejaVuSans-5d"/>
     </g>
    </g>
    <g id="line2d_23">
     <path d="M 50.343369 80.010313 
L 70.343369 80.010313 
" style="fill:none;stroke:#008000;stroke-linecap:square;stroke-width:1.5;"/>
    </g>
    <g id="line2d_24"/>
    <g id="text_20">
     <!-- Vout (R2=100 kΩ) -->
     <g transform="translate(78.343369 83.510313)scale(0.1 -0.1)">
      <defs>
       <path d="M 1959 3097 
Q 1497 3097 1228 2736 
Q 959 2375 959 1747 
Q 959 1119 1226 758 
Q 1494 397 1959 397 
Q 2419 397 2687 759 
Q 2956 1122 2956 1747 
Q 2956 2369 2687 2733 
Q 2419 3097 1959 3097 
z
M 1959 3584 
Q 2709 3584 3137 3096 
Q 3566 2609 3566 1747 
Q 3566 888 3137 398 
Q 2709 -91 1959 -91 
Q 1206 -91 779 398 
Q 353 888 353 1747 
Q 353 2609 779 3096 
Q 1206 3584 1959 3584 
z
" id="DejaVuSans-6f" transform="scale(0.015625)"/>
       <path d="M 544 1381 
L 544 3500 
L 1119 3500 
L 1119 1403 
Q 1119 906 1312 657 
Q 1506 409 1894 409 
Q 2359 409 2629 706 
Q 2900 1003 2900 1516 
L 2900 3500 
L 3475 3500 
L 3475 0 
L 2900 0 
L 2900 538 
Q 2691 219 2414 64 
Q 2138 -91 1772 -91 
Q 1169 -91 856 284 
Q 544 659 544 1381 
z
M 1991 3584 
L 1991 3584 
z
" id="DejaVuSans-75" transform="scale(0.015625)"/>
       <path d="M 2841 2188 
Q 3044 2119 3236 1894 
Q 3428 1669 3622 1275 
L 4263 0 
L 3584 0 
L 2988 1197 
Q 2756 1666 2539 1819 
Q 2322 1972 1947 1972 
L 1259 1972 
L 1259 0 
L 628 0 
L 628 4666 
L 2053 4666 
Q 2853 4666 3247 4331 
Q 3641 3997 3641 3322 
Q 3641 2881 3436 2590 
Q 3231 2300 2841 2188 
z
M 1259 4147 
L 1259 2491 
L 2053 2491 
Q 2509 2491 2742 2702 
Q 2975 2913 2975 3322 
Q 2975 3731 2742 3939 
Q 2509 4147 2053 4147 
L 1259 4147 
z
" id="DejaVuSans-52" transform="scale(0.015625)"/>
       <path d="M 678 2906 
L 4684 2906 
L 4684 2381 
L 678 2381 
L 678 2906 
z
M 678 1631 
L 4684 1631 
L 4684 1100 
L 678 1100 
L 678 1631 
z
" id="DejaVuSans-3d" transform="scale(0.015625)"/>
       <path d="M 581 4863 
L 1159 4863 
L 1159 1991 
L 2875 3500 
L 3609 3500 
L 1753 1863 
L 3688 0 
L 2938 0 
L 1159 1709 
L 1159 0 
L 581 0 
L 581 4863 
z
" id="DejaVuSans-6b" transform="scale(0.015625)"/>
       <path d="M 4647 556 
L 4647 0 
L 2772 0 
L 2772 556 
Q 3325 859 3634 1378 
Q 3944 1897 3944 2528 
Q 3944 3278 3531 3731 
Q 3119 4184 2444 4184 
Q 1769 4184 1355 3729 
Q 941 3275 941 2528 
Q 941 1897 1250 1378 
Q 1563 859 2119 556 
L 2119 0 
L 244 0 
L 244 556 
L 1241 556 
Q 747 991 519 1456 
Q 294 1922 294 2497 
Q 294 3491 894 4106 
Q 1491 4722 2444 4722 
Q 3391 4722 3994 4106 
Q 4594 3494 4594 2528 
Q 4594 1922 4372 1459 
Q 4150 997 3647 556 
L 4647 556 
z
" id="DejaVuSans-3a9" transform="scale(0.015625)"/>
      </defs>
      <use xlink:href="#DejaVuSans-56"/>
      <use x="60.658203" xlink:href="#DejaVuSans-6f"/>
      <use x="121.839844" xlink:href="#DejaVuSans-75"/>
      <use x="185.21875" xlink:href="#DejaVuSans-74"/>
      <use x="224.427734" xlink:href="#DejaVuSans-20"/>
      <use x="256.214844" xlink:href="#DejaVuSans-28"/>
      <use x="295.228516" xlink:href="#DejaVuSans-52"/>
      <use x="364.710938" xlink:href="#DejaVuSans-32"/>
      <use x="428.333984" xlink:href="#DejaVuSans-3d"/>
      <use x="512.123047" xlink:href="#DejaVuSans-31"/>
      <use x="575.746094" xlink:href="#DejaVuSans-30"/>
      <use x="639.369141" xlink:href="#DejaVuSans-30"/>
      <use x="702.992188" xlink:href="#DejaVuSans-20"/>
      <use x="734.779297" xlink:href="#DejaVuSans-6b"/>
      <use x="792.689453" xlink:href="#DejaVuSans-3a9"/>
      <use x="869.105469" xlink:href="#DejaVuSans-29"/>
     </g>
    </g>
   </g>
  </g>
 </g>
 <defs>
  <clipPath id="p0ceea55dae">
   <rect height="235.4" width="372.305682" x="42.620313" y="7.2"/>
  </clipPath>
 </defs>
</svg>
