<?xml version="1.0" encoding="utf-8" standalone="no"?>
<!DOCTYPE svg PUBLIC "-//W3C//DTD SVG 1.1//EN"
  "http://www.w3.org/Graphics/SVG/1.1/DTD/svg11.dtd">
<svg height="338.794pt" version="1.1" viewBox="0 0 293.3955 338.794" width="293.3955pt" xmlns="http://www.w3.org/2000/svg" xmlns:xlink="http://www.w3.org/1999/xlink">
 <metadata>
  <rdf:RDF xmlns:cc="http://creativecommons.org/ns#" xmlns:dc="http://purl.org/dc/elements/1.1/" xmlns:rdf="http://www.w3.org/1999/02/22-rdf-syntax-ns#">
   <cc:Work>
    <dc:type rdf:resource="http://purl.org/dc/dcmitype/StillImage"/>
    <dc:date>2021-06-08T14:35:33.872655</dc:date>
    <dc:format>image/svg+xml</dc:format>
    <dc:creator>
     <cc:Agent>
      <dc:title>Matplotlib v3.4.2, https://matplotlib.org/</dc:title>
     </cc:Agent>
    </dc:creator>
   </cc:Work>
  </rdf:RDF>
 </metadata>
 <defs>
  <style type="text/css">*{stroke-linecap:butt;stroke-linejoin:round;}</style>
 </defs>
 <g id="figure_1">
  <g id="patch_1">
   <path d="M 0 338.794 
L 293.3955 338.794 
L 293.3955 0 
L 0 0 
z
" style="fill:none;"/>
  </g>
  <g id="axes_1">
   <g id="patch_2">
    <path clip-path="url(#p8d03c91787)" d="M 62.1066 81.745 
L 54.4566 79.45 
L 62.1066 77.155 
z
"/>
   </g>
   <g id="patch_3">
    <path clip-path="url(#p8d03c91787)" d="M 200.4186 249.28 
C 204.881968 249.28 209.163129 247.506685 212.319207 244.350607 
C 215.475285 241.194529 217.2486 236.913368 217.2486 232.45 
C 217.2486 227.986632 215.475285 223.705471 212.319207 220.549393 
C 209.163129 217.393315 204.881968 215.62 200.4186 215.62 
C 195.955232 215.62 191.674071 217.393315 188.517993 220.549393 
C 185.361915 223.705471 183.5886 227.986632 183.5886 232.45 
C 183.5886 236.913368 185.361915 241.194529 188.517993 244.350607 
C 191.674071 247.506685 195.955232 249.28 200.4186 249.28 
z
" style="fill:none;stroke:#000000;stroke-linejoin:miter;stroke-width:1.2;"/>
   </g>
   <g id="patch_4">
    <path clip-path="url(#p8d03c91787)" d="M 201.446672 225.180482 
L 194.8086 226.84 
L 197.463829 220.533832 
z
"/>
   </g>
   <g id="patch_5">
    <path clip-path="url(#p8d03c91787)" d="M 261.6696 208.837 
C 266.132968 208.837 270.414129 207.063685 273.570207 203.907607 
C 276.726285 200.751529 278.4996 196.470368 278.4996 192.007 
C 278.4996 187.543632 276.726285 183.262471 273.570207 180.106393 
C 270.414129 176.950315 266.132968 175.177 261.6696 175.177 
C 257.206232 175.177 252.925071 176.950315 249.768993 180.106393 
C 246.612915 183.262471 244.8396 187.543632 244.8396 192.007 
C 244.8396 196.470368 246.612915 200.751529 249.768993 203.907607 
C 252.925071 207.063685 257.206232 208.837 261.6696 208.837 
z
" style="fill:none;stroke:#000000;stroke-linejoin:miter;stroke-width:1.2;"/>
   </g>
   <g id="patch_6">
    <path clip-path="url(#p8d03c91787)" d="M 262.697672 184.737482 
L 256.0596 186.397 
L 258.714829 180.090832 
z
"/>
   </g>
   <g id="line2d_1">
    <path clip-path="url(#p8d03c91787)" d="M 46.8066 41.2 
L 46.8066 64.15 
L 54.4566 66.7 
L 39.1566 71.8 
L 54.4566 76.9 
L 39.1566 82 
L 54.4566 87.1 
L 39.1566 92.2 
L 46.8066 94.75 
L 46.8066 117.7 
" style="fill:none;stroke:#000000;stroke-linecap:round;stroke-width:1.2;"/>
   </g>
   <g id="line2d_2">
    <path clip-path="url(#p8d03c91787)" d="M 68.8386 79.45 
L 62.1066 79.45 
" style="fill:none;stroke:#000000;stroke-linecap:square;stroke-width:1.2;"/>
   </g>
   <g id="line2d_3">
    <path clip-path="url(#p8d03c91787)" d="M 68.8386 79.45 
L 91.7886 79.45 
L 94.3386 71.8 
L 99.4386 87.1 
L 104.5386 71.8 
L 109.6386 87.1 
L 114.7386 71.8 
L 119.8386 87.1 
L 122.3886 79.45 
L 145.3386 79.45 
" style="fill:none;stroke:#000000;stroke-linecap:round;stroke-width:1.2;"/>
   </g>
   <g id="line2d_4">
    <path clip-path="url(#p8d03c91787)" d="M 145.3386 79.45 
L 145.3386 117.7 
L 145.3386 155.95 
" style="fill:none;stroke:#000000;stroke-linecap:round;stroke-width:1.2;"/>
   </g>
   <g id="line2d_5">
    <path clip-path="url(#p8d03c91787)" d="M 145.3386 155.95 
L 122.3886 155.95 
L 119.8386 163.6 
L 114.7386 148.3 
L 109.6386 163.6 
L 104.5386 148.3 
L 99.4386 163.6 
L 94.3386 148.3 
L 91.7886 155.95 
L 68.8386 155.95 
" style="fill:none;stroke:#000000;stroke-linecap:round;stroke-width:1.2;"/>
   </g>
   <g id="line2d_6">
    <path clip-path="url(#p8d03c91787)" d="M 46.8066 41.2 
L 46.8066 28.96 
" style="fill:none;stroke:#000000;stroke-linecap:round;stroke-width:1.2;"/>
   </g>
   <g id="line2d_7">
    <path clip-path="url(#p8d03c91787)" d="M 46.8066 28.96 
L 41.0691 28.96 
" style="fill:none;stroke:#000000;stroke-linecap:round;stroke-width:1.2;"/>
   </g>
   <g id="line2d_8">
    <path clip-path="url(#p8d03c91787)" d="M 46.8066 28.96 
L 52.5441 28.96 
" style="fill:none;stroke:#000000;stroke-linecap:round;stroke-width:1.2;"/>
   </g>
   <g id="line2d_9">
    <path clip-path="url(#p8d03c91787)" d="M 46.8066 117.7 
L 46.8066 129.94 
L 39.1566 129.94 
L 54.4566 129.94 
M 41.4516 133.612 
L 52.1616 133.612 
M 45.2766 137.284 
L 48.3366 137.284 
" style="fill:none;stroke:#000000;stroke-linecap:round;stroke-width:1.2;"/>
   </g>
   <g id="line2d_10">
    <path clip-path="url(#p8d03c91787)" d="M 145.3386 155.95 
L 145.3386 194.2 
L 145.3386 232.45 
" style="fill:none;stroke:#000000;stroke-linecap:round;stroke-width:1.2;"/>
   </g>
   <g id="line2d_11">
    <path clip-path="url(#p8d03c91787)" d="M 145.3386 232.45 
L 145.3386 255.4 
L 152.9886 257.95 
L 137.6886 263.05 
L 152.9886 268.15 
L 137.6886 273.25 
L 152.9886 278.35 
L 137.6886 283.45 
L 145.3386 286 
L 145.3386 308.95 
" style="fill:none;stroke:#000000;stroke-linecap:round;stroke-width:1.2;"/>
   </g>
   <g id="line2d_12">
    <path clip-path="url(#p8d03c91787)" d="M 145.3386 308.95 
L 145.3386 321.19 
L 137.6886 321.19 
L 152.9886 321.19 
M 139.9836 324.862 
L 150.6936 324.862 
M 143.8086 328.534 
L 146.8686 328.534 
" style="fill:none;stroke:#000000;stroke-linecap:round;stroke-width:1.2;"/>
   </g>
   <g id="line2d_13">
    <path clip-path="url(#p8d03c91787)" d="M 145.3386 232.45 
L 164.4636 232.45 
L 183.5886 232.45 
" style="fill:none;stroke:#000000;stroke-linecap:round;stroke-width:1.2;"/>
   </g>
   <g id="line2d_14">
    <path clip-path="url(#p8d03c91787)" d="M 183.5886 232.45 
L 194.8086 232.45 
" style="fill:none;stroke:#000000;stroke-linecap:round;stroke-width:1.2;"/>
   </g>
   <g id="line2d_15">
    <path clip-path="url(#p8d03c91787)" d="M 194.8086 221.23 
L 194.8086 243.67 
" style="fill:none;stroke:#000000;stroke-linecap:round;stroke-width:1.2;"/>
   </g>
   <g id="line2d_16">
    <path clip-path="url(#p8d03c91787)" d="M 194.8086 226.84 
L 206.5896 216.742 
L 206.5896 211.132 
" style="fill:none;stroke:#000000;stroke-linecap:round;stroke-width:1.2;"/>
   </g>
   <g id="line2d_17">
    <path clip-path="url(#p8d03c91787)" d="M 194.8086 238.06 
L 206.5896 248.158 
L 206.5896 253.768 
" style="fill:none;stroke:#000000;stroke-linecap:round;stroke-width:1.2;"/>
   </g>
   <g id="line2d_18">
    <path clip-path="url(#p8d03c91787)" d="M 206.5896 216.742 
L 199.45525 222.857157 
" style="fill:none;stroke:#000000;stroke-linecap:square;stroke-width:1.2;"/>
   </g>
   <g id="line2d_19">
    <path clip-path="url(#p8d03c91787)" d="M 206.5896 253.768 
L 206.5896 263.3305 
L 206.5896 272.893 
" style="fill:none;stroke:#000000;stroke-linecap:round;stroke-width:1.2;"/>
   </g>
   <g id="line2d_20">
    <path clip-path="url(#p8d03c91787)" d="M 206.5896 272.893 
L 206.5896 285.133 
L 198.9396 285.133 
L 214.2396 285.133 
M 201.2346 288.805 
L 211.9446 288.805 
M 205.0596 292.477 
L 208.1196 292.477 
" style="fill:none;stroke:#000000;stroke-linecap:round;stroke-width:1.2;"/>
   </g>
   <g id="line2d_21">
    <path clip-path="url(#p8d03c91787)" d="M 206.5896 211.132 
L 206.5896 201.5695 
L 206.5896 192.007 
" style="fill:none;stroke:#000000;stroke-linecap:round;stroke-width:1.2;"/>
   </g>
   <g id="line2d_22">
    <path clip-path="url(#p8d03c91787)" d="M 206.5896 192.007 
L 206.5896 169.057 
L 198.9396 166.507 
L 214.2396 161.407 
L 198.9396 156.307 
L 214.2396 151.207 
L 198.9396 146.107 
L 214.2396 141.007 
L 206.5896 138.457 
L 206.5896 115.507 
" style="fill:none;stroke:#000000;stroke-linecap:round;stroke-width:1.2;"/>
   </g>
   <g id="line2d_23">
    <path clip-path="url(#p8d03c91787)" d="M 206.5896 115.507 
L 206.5896 103.267 
" style="fill:none;stroke:#000000;stroke-linecap:round;stroke-width:1.2;"/>
   </g>
   <g id="line2d_24">
    <path clip-path="url(#p8d03c91787)" d="M 206.5896 103.267 
L 200.8521 103.267 
" style="fill:none;stroke:#000000;stroke-linecap:round;stroke-width:1.2;"/>
   </g>
   <g id="line2d_25">
    <path clip-path="url(#p8d03c91787)" d="M 206.5896 103.267 
L 212.3271 103.267 
" style="fill:none;stroke:#000000;stroke-linecap:round;stroke-width:1.2;"/>
   </g>
   <g id="line2d_26">
    <path clip-path="url(#p8d03c91787)" d="M 206.5896 192.007 
L 225.7146 192.007 
L 244.8396 192.007 
" style="fill:none;stroke:#000000;stroke-linecap:round;stroke-width:1.2;"/>
   </g>
   <g id="line2d_27">
    <path clip-path="url(#p8d03c91787)" d="M 244.8396 192.007 
L 256.0596 192.007 
" style="fill:none;stroke:#000000;stroke-linecap:round;stroke-width:1.2;"/>
   </g>
   <g id="line2d_28">
    <path clip-path="url(#p8d03c91787)" d="M 256.0596 180.787 
L 256.0596 203.227 
" style="fill:none;stroke:#000000;stroke-linecap:round;stroke-width:1.2;"/>
   </g>
   <g id="line2d_29">
    <path clip-path="url(#p8d03c91787)" d="M 256.0596 186.397 
L 267.8406 176.299 
L 267.8406 170.689 
" style="fill:none;stroke:#000000;stroke-linecap:round;stroke-width:1.2;"/>
   </g>
   <g id="line2d_30">
    <path clip-path="url(#p8d03c91787)" d="M 256.0596 197.617 
L 267.8406 207.715 
L 267.8406 213.325 
" style="fill:none;stroke:#000000;stroke-linecap:round;stroke-width:1.2;"/>
   </g>
   <g id="line2d_31">
    <path clip-path="url(#p8d03c91787)" d="M 267.8406 176.299 
L 260.70625 182.414157 
" style="fill:none;stroke:#000000;stroke-linecap:square;stroke-width:1.2;"/>
   </g>
   <g id="line2d_32">
    <path clip-path="url(#p8d03c91787)" d="M 267.8406 170.689 
L 267.8406 161.1265 
L 267.8406 151.564 
" style="fill:none;stroke:#000000;stroke-linecap:round;stroke-width:1.2;"/>
   </g>
   <g id="line2d_33">
    <path clip-path="url(#p8d03c91787)" d="M 267.8406 213.325 
L 267.8406 225.565 
L 260.1906 225.565 
L 275.4906 225.565 
M 262.4856 229.237 
L 273.1956 229.237 
M 266.3106 232.909 
L 269.3706 232.909 
" style="fill:none;stroke:#000000;stroke-linecap:round;stroke-width:1.2;"/>
   </g>
   <g id="text_1">
    <!-- RV1 -->
    <g transform="translate(8.654413 75.474656)scale(0.14 -0.14)">
     <defs>
      <path d="M 2841 2188 
Q 3044 2119 3236 1894 
Q 3428 1669 3622 1275 
L 4263 0 
L 3584 0 
L 2988 1197 
Q 2756 1666 2539 1819 
Q 2322 1972 1947 1972 
L 1259 1972 
L 1259 0 
L 628 0 
L 628 4666 
L 2053 4666 
Q 2853 4666 3247 4331 
Q 3641 3997 3641 3322 
Q 3641 2881 3436 2590 
Q 3231 2300 2841 2188 
z
M 1259 4147 
L 1259 2491 
L 2053 2491 
Q 2509 2491 2742 2702 
Q 2975 2913 2975 3322 
Q 2975 3731 2742 3939 
Q 2509 4147 2053 4147 
L 1259 4147 
z
" id="DejaVuSans-52" transform="scale(0.015625)"/>
      <path d="M 1831 0 
L 50 4666 
L 709 4666 
L 2188 738 
L 3669 4666 
L 4325 4666 
L 2547 0 
L 1831 0 
z
" id="DejaVuSans-56" transform="scale(0.015625)"/>
      <path d="M 794 531 
L 1825 531 
L 1825 4091 
L 703 3866 
L 703 4441 
L 1819 4666 
L 2450 4666 
L 2450 531 
L 3481 531 
L 3481 0 
L 794 0 
L 794 531 
z
" id="DejaVuSans-31" transform="scale(0.015625)"/>
     </defs>
     <use xlink:href="#DejaVuSans-52"/>
     <use x="63.982422" xlink:href="#DejaVuSans-56"/>
     <use x="132.390625" xlink:href="#DejaVuSans-31"/>
    </g>
    <!-- 50k -->
    <g transform="translate(10.174725 91.151594)scale(0.14 -0.14)">
     <defs>
      <path d="M 691 4666 
L 3169 4666 
L 3169 4134 
L 1269 4134 
L 1269 2991 
Q 1406 3038 1543 3061 
Q 1681 3084 1819 3084 
Q 2600 3084 3056 2656 
Q 3513 2228 3513 1497 
Q 3513 744 3044 326 
Q 2575 -91 1722 -91 
Q 1428 -91 1123 -41 
Q 819 9 494 109 
L 494 744 
Q 775 591 1075 516 
Q 1375 441 1709 441 
Q 2250 441 2565 725 
Q 2881 1009 2881 1497 
Q 2881 1984 2565 2268 
Q 2250 2553 1709 2553 
Q 1456 2553 1204 2497 
Q 953 2441 691 2322 
L 691 4666 
z
" id="DejaVuSans-35" transform="scale(0.015625)"/>
      <path d="M 2034 4250 
Q 1547 4250 1301 3770 
Q 1056 3291 1056 2328 
Q 1056 1369 1301 889 
Q 1547 409 2034 409 
Q 2525 409 2770 889 
Q 3016 1369 3016 2328 
Q 3016 3291 2770 3770 
Q 2525 4250 2034 4250 
z
M 2034 4750 
Q 2819 4750 3233 4129 
Q 3647 3509 3647 2328 
Q 3647 1150 3233 529 
Q 2819 -91 2034 -91 
Q 1250 -91 836 529 
Q 422 1150 422 2328 
Q 422 3509 836 4129 
Q 1250 4750 2034 4750 
z
" id="DejaVuSans-30" transform="scale(0.015625)"/>
      <path d="M 581 4863 
L 1159 4863 
L 1159 1991 
L 2875 3500 
L 3609 3500 
L 1753 1863 
L 3688 0 
L 2938 0 
L 1159 1709 
L 1159 0 
L 581 0 
L 581 4863 
z
" id="DejaVuSans-6b" transform="scale(0.015625)"/>
     </defs>
     <use xlink:href="#DejaVuSans-35"/>
     <use x="63.623047" xlink:href="#DejaVuSans-30"/>
     <use x="127.246094" xlink:href="#DejaVuSans-6b"/>
    </g>
   </g>
   <g id="text_2">
    <!-- R1 -->
    <g transform="translate(97.770944 50.1515)scale(0.14 -0.14)">
     <use xlink:href="#DejaVuSans-52"/>
     <use x="69.482422" xlink:href="#DejaVuSans-31"/>
    </g>
    <!-- 1M -->
    <g transform="translate(96.595163 65.828437)scale(0.14 -0.14)">
     <defs>
      <path d="M 628 4666 
L 1569 4666 
L 2759 1491 
L 3956 4666 
L 4897 4666 
L 4897 0 
L 4281 0 
L 4281 4097 
L 3078 897 
L 2444 897 
L 1241 4097 
L 1241 0 
L 628 0 
L 628 4666 
z
" id="DejaVuSans-4d" transform="scale(0.015625)"/>
     </defs>
     <use xlink:href="#DejaVuSans-31"/>
     <use x="63.623047" xlink:href="#DejaVuSans-4d"/>
    </g>
   </g>
   <g id="text_3">
    <!-- R2 -->
    <g transform="translate(97.770944 126.6515)scale(0.14 -0.14)">
     <defs>
      <path d="M 1228 531 
L 3431 531 
L 3431 0 
L 469 0 
L 469 531 
Q 828 903 1448 1529 
Q 2069 2156 2228 2338 
Q 2531 2678 2651 2914 
Q 2772 3150 2772 3378 
Q 2772 3750 2511 3984 
Q 2250 4219 1831 4219 
Q 1534 4219 1204 4116 
Q 875 4013 500 3803 
L 500 4441 
Q 881 4594 1212 4672 
Q 1544 4750 1819 4750 
Q 2544 4750 2975 4387 
Q 3406 4025 3406 3419 
Q 3406 3131 3298 2873 
Q 3191 2616 2906 2266 
Q 2828 2175 2409 1742 
Q 1991 1309 1228 531 
z
" id="DejaVuSans-32" transform="scale(0.015625)"/>
     </defs>
     <use xlink:href="#DejaVuSans-52"/>
     <use x="69.482422" xlink:href="#DejaVuSans-32"/>
    </g>
    <!-- 100k -->
    <g transform="translate(89.673913 142.328437)scale(0.14 -0.14)">
     <use xlink:href="#DejaVuSans-31"/>
     <use x="63.623047" xlink:href="#DejaVuSans-30"/>
     <use x="127.246094" xlink:href="#DejaVuSans-30"/>
     <use x="190.869141" xlink:href="#DejaVuSans-6b"/>
    </g>
   </g>
   <g id="text_4">
    <!-- +15V -->
    <g transform="translate(27.244881 22.988437)scale(0.14 -0.14)">
     <defs>
      <path d="M 2944 4013 
L 2944 2272 
L 4684 2272 
L 4684 1741 
L 2944 1741 
L 2944 0 
L 2419 0 
L 2419 1741 
L 678 1741 
L 678 2272 
L 2419 2272 
L 2419 4013 
L 2944 4013 
z
" id="DejaVuSans-2b" transform="scale(0.015625)"/>
     </defs>
     <use xlink:href="#DejaVuSans-2b"/>
     <use x="83.789062" xlink:href="#DejaVuSans-31"/>
     <use x="147.412109" xlink:href="#DejaVuSans-35"/>
     <use x="211.035156" xlink:href="#DejaVuSans-56"/>
    </g>
   </g>
   <g id="text_5">
    <!-- R3 -->
    <g transform="translate(115.993288 266.724656)scale(0.14 -0.14)">
     <defs>
      <path d="M 2597 2516 
Q 3050 2419 3304 2112 
Q 3559 1806 3559 1356 
Q 3559 666 3084 287 
Q 2609 -91 1734 -91 
Q 1441 -91 1130 -33 
Q 819 25 488 141 
L 488 750 
Q 750 597 1062 519 
Q 1375 441 1716 441 
Q 2309 441 2620 675 
Q 2931 909 2931 1356 
Q 2931 1769 2642 2001 
Q 2353 2234 1838 2234 
L 1294 2234 
L 1294 2753 
L 1863 2753 
Q 2328 2753 2575 2939 
Q 2822 3125 2822 3475 
Q 2822 3834 2567 4026 
Q 2313 4219 1838 4219 
Q 1578 4219 1281 4162 
Q 984 4106 628 3988 
L 628 4550 
Q 988 4650 1302 4700 
Q 1616 4750 1894 4750 
Q 2613 4750 3031 4423 
Q 3450 4097 3450 3541 
Q 3450 3153 3228 2886 
Q 3006 2619 2597 2516 
z
" id="DejaVuSans-33" transform="scale(0.015625)"/>
     </defs>
     <use xlink:href="#DejaVuSans-52"/>
     <use x="69.482422" xlink:href="#DejaVuSans-33"/>
    </g>
    <!-- 2.2k -->
    <g transform="translate(104.25735 282.401594)scale(0.14 -0.14)">
     <defs>
      <path d="M 684 794 
L 1344 794 
L 1344 0 
L 684 0 
L 684 794 
z
" id="DejaVuSans-2e" transform="scale(0.015625)"/>
     </defs>
     <use xlink:href="#DejaVuSans-32"/>
     <use x="63.623047" xlink:href="#DejaVuSans-2e"/>
     <use x="95.410156" xlink:href="#DejaVuSans-32"/>
     <use x="159.033203" xlink:href="#DejaVuSans-6b"/>
    </g>
   </g>
   <g id="text_6">
    <!-- R4 -->
    <g transform="translate(177.244288 149.781656)scale(0.14 -0.14)">
     <defs>
      <path d="M 2419 4116 
L 825 1625 
L 2419 1625 
L 2419 4116 
z
M 2253 4666 
L 3047 4666 
L 3047 1625 
L 3713 1625 
L 3713 1100 
L 3047 1100 
L 3047 0 
L 2419 0 
L 2419 1100 
L 313 1100 
L 313 1709 
L 2253 4666 
z
" id="DejaVuSans-34" transform="scale(0.015625)"/>
     </defs>
     <use xlink:href="#DejaVuSans-52"/>
     <use x="69.482422" xlink:href="#DejaVuSans-34"/>
    </g>
    <!-- 1M -->
    <g transform="translate(174.892725 165.458594)scale(0.14 -0.14)">
     <use xlink:href="#DejaVuSans-31"/>
     <use x="63.623047" xlink:href="#DejaVuSans-4d"/>
    </g>
   </g>
   <g id="text_7">
    <!-- +15V -->
    <g transform="translate(187.027881 97.295437)scale(0.14 -0.14)">
     <use xlink:href="#DejaVuSans-2b"/>
     <use x="83.789062" xlink:href="#DejaVuSans-31"/>
     <use x="147.412109" xlink:href="#DejaVuSans-35"/>
     <use x="211.035156" xlink:href="#DejaVuSans-56"/>
    </g>
   </g>
   <g id="text_8">
    <!-- $I_{cv}$ -->
    <g transform="translate(259.9306 145.592437)scale(0.14 -0.14)">
     <defs>
      <path d="M 1081 4666 
L 1716 4666 
L 806 0 
L 172 0 
L 1081 4666 
z
" id="DejaVuSans-Oblique-49" transform="scale(0.015625)"/>
      <path d="M 3431 3366 
L 3316 2797 
Q 3109 2947 2876 3022 
Q 2644 3097 2394 3097 
Q 2119 3097 1870 3000 
Q 1622 2903 1453 2725 
Q 1184 2453 1037 2087 
Q 891 1722 891 1331 
Q 891 859 1127 628 
Q 1363 397 1844 397 
Q 2081 397 2348 469 
Q 2616 541 2906 684 
L 2797 116 
Q 2547 13 2283 -39 
Q 2019 -91 1741 -91 
Q 1044 -91 669 257 
Q 294 606 294 1253 
Q 294 1797 489 2255 
Q 684 2713 1069 3078 
Q 1331 3328 1684 3456 
Q 2038 3584 2456 3584 
Q 2700 3584 2940 3529 
Q 3181 3475 3431 3366 
z
" id="DejaVuSans-Oblique-63" transform="scale(0.015625)"/>
      <path d="M 459 3500 
L 1069 3500 
L 1581 525 
L 3256 3500 
L 3866 3500 
L 1875 0 
L 1100 0 
L 459 3500 
z
" id="DejaVuSans-Oblique-76" transform="scale(0.015625)"/>
     </defs>
     <use transform="translate(0 0.09375)" xlink:href="#DejaVuSans-Oblique-49"/>
     <use transform="translate(29.492188 -16.3125)scale(0.7)" xlink:href="#DejaVuSans-Oblique-63"/>
     <use transform="translate(67.978516 -16.3125)scale(0.7)" xlink:href="#DejaVuSans-Oblique-76"/>
    </g>
   </g>
   <g id="patch_7">
    <path clip-path="url(#p8d03c91787)" d="M 145.3386 158.245 
C 145.947241 158.245 146.531036 158.003184 146.96141 157.57281 
C 147.391784 157.142436 147.6336 156.558641 147.6336 155.95 
C 147.6336 155.341359 147.391784 154.757564 146.96141 154.32719 
C 146.531036 153.896816 145.947241 153.655 145.3386 153.655 
C 144.729959 153.655 144.146164 153.896816 143.71579 154.32719 
C 143.285416 154.757564 143.0436 155.341359 143.0436 155.95 
C 143.0436 156.558641 143.285416 157.142436 143.71579 157.57281 
C 144.146164 158.003184 144.729959 158.245 145.3386 158.245 
z
" style="stroke:#000000;stroke-linejoin:miter;stroke-width:1.2;"/>
   </g>
   <g id="patch_8">
    <path clip-path="url(#p8d03c91787)" d="M 68.8386 158.245 
C 69.447241 158.245 70.031036 158.003184 70.46141 157.57281 
C 70.891784 157.142436 71.1336 156.558641 71.1336 155.95 
C 71.1336 155.341359 70.891784 154.757564 70.46141 154.32719 
C 70.031036 153.896816 69.447241 153.655 68.8386 153.655 
C 68.229959 153.655 67.646164 153.896816 67.21579 154.32719 
C 66.785416 154.757564 66.5436 155.341359 66.5436 155.95 
C 66.5436 156.558641 66.785416 157.142436 67.21579 157.57281 
C 67.646164 158.003184 68.229959 158.245 68.8386 158.245 
z
" style="fill:#ffffff;stroke:#000000;stroke-linejoin:miter;stroke-width:1.2;"/>
   </g>
   <g id="patch_9">
    <path clip-path="url(#p8d03c91787)" d="M 145.3386 234.745 
C 145.947241 234.745 146.531036 234.503184 146.96141 234.07281 
C 147.391784 233.642436 147.6336 233.058641 147.6336 232.45 
C 147.6336 231.841359 147.391784 231.257564 146.96141 230.82719 
C 146.531036 230.396816 145.947241 230.155 145.3386 230.155 
C 144.729959 230.155 144.146164 230.396816 143.71579 230.82719 
C 143.285416 231.257564 143.0436 231.841359 143.0436 232.45 
C 143.0436 233.058641 143.285416 233.642436 143.71579 234.07281 
C 144.146164 234.503184 144.729959 234.745 145.3386 234.745 
z
" style="stroke:#000000;stroke-linejoin:miter;stroke-width:1.2;"/>
   </g>
   <g id="patch_10">
    <path clip-path="url(#p8d03c91787)" d="M 206.5896 194.302 
C 207.198241 194.302 207.782036 194.060184 208.21241 193.62981 
C 208.642784 193.199436 208.8846 192.615641 208.8846 192.007 
C 208.8846 191.398359 208.642784 190.814564 208.21241 190.38419 
C 207.782036 189.953816 207.198241 189.712 206.5896 189.712 
C 205.980959 189.712 205.397164 189.953816 204.96679 190.38419 
C 204.536416 190.814564 204.2946 191.398359 204.2946 192.007 
C 204.2946 192.615641 204.536416 193.199436 204.96679 193.62981 
C 205.397164 194.060184 205.980959 194.302 206.5896 194.302 
z
" style="stroke:#000000;stroke-linejoin:miter;stroke-width:1.2;"/>
   </g>
   <g id="text_9">
    <!-- CV -->
    <g transform="translate(44.130788 159.813125)scale(0.14 -0.14)">
     <defs>
      <path d="M 4122 4306 
L 4122 3641 
Q 3803 3938 3442 4084 
Q 3081 4231 2675 4231 
Q 1875 4231 1450 3742 
Q 1025 3253 1025 2328 
Q 1025 1406 1450 917 
Q 1875 428 2675 428 
Q 3081 428 3442 575 
Q 3803 722 4122 1019 
L 4122 359 
Q 3791 134 3420 21 
Q 3050 -91 2638 -91 
Q 1578 -91 968 557 
Q 359 1206 359 2328 
Q 359 3453 968 4101 
Q 1578 4750 2638 4750 
Q 3056 4750 3426 4639 
Q 3797 4528 4122 4306 
z
" id="DejaVuSans-43" transform="scale(0.015625)"/>
     </defs>
     <use xlink:href="#DejaVuSans-43"/>
     <use x="69.824219" xlink:href="#DejaVuSans-56"/>
    </g>
   </g>
  </g>
 </g>
 <defs>
  <clipPath id="p8d03c91787">
   <rect height="324.394" width="278.9955" x="7.2" y="7.2"/>
  </clipPath>
 </defs>
</svg>
