<?xml version="1.0" encoding="utf-8" standalone="no"?>
<!DOCTYPE svg PUBLIC "-//W3C//DTD SVG 1.1//EN"
  "http://www.w3.org/Graphics/SVG/1.1/DTD/svg11.dtd">
<svg height="287.08pt" version="1.1" viewBox="0 0 239.550938 287.08" width="239.550938pt" xmlns="http://www.w3.org/2000/svg" xmlns:xlink="http://www.w3.org/1999/xlink">
 <metadata>
  <rdf:RDF xmlns:cc="http://creativecommons.org/ns#" xmlns:dc="http://purl.org/dc/elements/1.1/" xmlns:rdf="http://www.w3.org/1999/02/22-rdf-syntax-ns#">
   <cc:Work>
    <dc:type rdf:resource="http://purl.org/dc/dcmitype/StillImage"/>
    <dc:date>2021-06-06T12:25:56.268019</dc:date>
    <dc:format>image/svg+xml</dc:format>
    <dc:creator>
     <cc:Agent>
      <dc:title>Matplotlib v3.4.2, https://matplotlib.org/</dc:title>
     </cc:Agent>
    </dc:creator>
   </cc:Work>
  </rdf:RDF>
 </metadata>
 <defs>
  <style type="text/css">*{stroke-linecap:butt;stroke-linejoin:round;}</style>
 </defs>
 <g id="figure_1">
  <g id="patch_1">
   <path d="M 0 287.08 
L 239.550938 287.08 
L 239.550938 0 
L 0 0 
z
" style="fill:none;"/>
  </g>
  <g id="axes_1">
   <g id="patch_2">
    <path clip-path="url(#pc6c8deee15)" d="M 73.516875 261.18 
L 165.316875 261.18 
L 165.316875 10.26 
L 73.516875 10.26 
z
" style="fill:none;stroke:#000000;stroke-linecap:round;stroke-width:2;"/>
   </g>
   <g id="patch_3">
    <path clip-path="url(#pc6c8deee15)" d="M 73.516875 245.88 
L 73.516875 227.52 
L 55.156875 227.52 
L 55.156875 245.88 
z
" style="fill:none;stroke:#000000;stroke-linecap:round;stroke-width:2;"/>
   </g>
   <g id="patch_4">
    <path clip-path="url(#pc6c8deee15)" d="M 165.316875 245.88 
L 165.316875 227.52 
L 183.676875 227.52 
L 183.676875 245.88 
z
" style="fill:none;stroke:#000000;stroke-linecap:round;stroke-width:2;"/>
   </g>
   <g id="patch_5">
    <path clip-path="url(#pc6c8deee15)" d="M 73.516875 212.22 
L 73.516875 193.86 
L 55.156875 193.86 
L 55.156875 212.22 
z
" style="fill:none;stroke:#000000;stroke-linecap:round;stroke-width:2;"/>
   </g>
   <g id="patch_6">
    <path clip-path="url(#pc6c8deee15)" d="M 165.316875 212.22 
L 165.316875 193.86 
L 183.676875 193.86 
L 183.676875 212.22 
z
" style="fill:none;stroke:#000000;stroke-linecap:round;stroke-width:2;"/>
   </g>
   <g id="patch_7">
    <path clip-path="url(#pc6c8deee15)" d="M 73.516875 178.56 
L 73.516875 160.2 
L 55.156875 160.2 
L 55.156875 178.56 
z
" style="fill:none;stroke:#000000;stroke-linecap:round;stroke-width:2;"/>
   </g>
   <g id="patch_8">
    <path clip-path="url(#pc6c8deee15)" d="M 165.316875 178.56 
L 165.316875 160.2 
L 183.676875 160.2 
L 183.676875 178.56 
z
" style="fill:none;stroke:#000000;stroke-linecap:round;stroke-width:2;"/>
   </g>
   <g id="patch_9">
    <path clip-path="url(#pc6c8deee15)" d="M 73.516875 144.9 
L 73.516875 126.54 
L 55.156875 126.54 
L 55.156875 144.9 
z
" style="fill:none;stroke:#000000;stroke-linecap:round;stroke-width:2;"/>
   </g>
   <g id="patch_10">
    <path clip-path="url(#pc6c8deee15)" d="M 165.316875 144.9 
L 165.316875 126.54 
L 183.676875 126.54 
L 183.676875 144.9 
z
" style="fill:none;stroke:#000000;stroke-linecap:round;stroke-width:2;"/>
   </g>
   <g id="patch_11">
    <path clip-path="url(#pc6c8deee15)" d="M 73.516875 111.24 
L 73.516875 92.88 
L 55.156875 92.88 
L 55.156875 111.24 
z
" style="fill:none;stroke:#000000;stroke-linecap:round;stroke-width:2;"/>
   </g>
   <g id="patch_12">
    <path clip-path="url(#pc6c8deee15)" d="M 165.316875 111.24 
L 165.316875 92.88 
L 183.676875 92.88 
L 183.676875 111.24 
z
" style="fill:none;stroke:#000000;stroke-linecap:round;stroke-width:2;"/>
   </g>
   <g id="patch_13">
    <path clip-path="url(#pc6c8deee15)" d="M 73.516875 77.58 
L 73.516875 59.22 
L 55.156875 59.22 
L 55.156875 77.58 
z
" style="fill:none;stroke:#000000;stroke-linecap:round;stroke-width:2;"/>
   </g>
   <g id="patch_14">
    <path clip-path="url(#pc6c8deee15)" d="M 165.316875 77.58 
L 165.316875 59.22 
L 183.676875 59.22 
L 183.676875 77.58 
z
" style="fill:none;stroke:#000000;stroke-linecap:round;stroke-width:2;"/>
   </g>
   <g id="patch_15">
    <path clip-path="url(#pc6c8deee15)" d="M 73.516875 43.92 
L 73.516875 25.56 
L 55.156875 25.56 
L 55.156875 43.92 
z
" style="fill:none;stroke:#000000;stroke-linecap:round;stroke-width:2;"/>
   </g>
   <g id="patch_16">
    <path clip-path="url(#pc6c8deee15)" d="M 165.316875 43.92 
L 165.316875 25.56 
L 183.676875 25.56 
L 183.676875 43.92 
z
" style="fill:none;stroke:#000000;stroke-linecap:round;stroke-width:2;"/>
   </g>
   <g id="patch_17">
    <path clip-path="url(#pc6c8deee15)" d="M 104.116875 82.3995 
C 105.090701 82.3995 106.024772 82.012595 106.713371 81.323996 
C 107.40197 80.635397 107.788875 79.701326 107.788875 78.7275 
C 107.788875 77.753674 107.40197 76.819603 106.713371 76.131004 
C 106.024772 75.442405 105.090701 75.0555 104.116875 75.0555 
C 103.143049 75.0555 102.208978 75.442405 101.520379 76.131004 
C 100.83178 76.819603 100.444875 77.753674 100.444875 78.7275 
C 100.444875 79.701326 100.83178 80.635397 101.520379 81.323996 
C 102.208978 82.012595 103.143049 82.3995 104.116875 82.3995 
z
" style="fill:none;stroke:#000000;stroke-linejoin:miter;stroke-width:0.9;"/>
   </g>
   <g id="patch_18">
    <path clip-path="url(#pc6c8deee15)" d="M 104.116875 149.7195 
C 105.090701 149.7195 106.024772 149.332595 106.713371 148.643996 
C 107.40197 147.955397 107.788875 147.021326 107.788875 146.0475 
C 107.788875 145.073674 107.40197 144.139603 106.713371 143.451004 
C 106.024772 142.762405 105.090701 142.3755 104.116875 142.3755 
C 103.143049 142.3755 102.208978 142.762405 101.520379 143.451004 
C 100.83178 144.139603 100.444875 145.073674 100.444875 146.0475 
C 100.444875 147.021326 100.83178 147.955397 101.520379 148.643996 
C 102.208978 149.332595 103.143049 149.7195 104.116875 149.7195 
z
" style="fill:none;stroke:#000000;stroke-linejoin:miter;stroke-width:0.9;"/>
   </g>
   <g id="patch_19">
    <path clip-path="url(#pc6c8deee15)" d="M 104.116875 217.0395 
C 105.090701 217.0395 106.024772 216.652595 106.713371 215.963996 
C 107.40197 215.275397 107.788875 214.341326 107.788875 213.3675 
C 107.788875 212.393674 107.40197 211.459603 106.713371 210.771004 
C 106.024772 210.082405 105.090701 209.6955 104.116875 209.6955 
C 103.143049 209.6955 102.208978 210.082405 101.520379 210.771004 
C 100.83178 211.459603 100.444875 212.393674 100.444875 213.3675 
C 100.444875 214.341326 100.83178 215.275397 101.520379 215.963996 
C 102.208978 216.652595 103.143049 217.0395 104.116875 217.0395 
z
" style="fill:none;stroke:#000000;stroke-linejoin:miter;stroke-width:0.9;"/>
   </g>
   <g id="patch_20">
    <path clip-path="url(#pc6c8deee15)" d="M 134.716875 196.3845 
C 135.690701 196.3845 136.624772 195.997595 137.313371 195.308996 
C 138.00197 194.620397 138.388875 193.686326 138.388875 192.7125 
C 138.388875 191.738674 138.00197 190.804603 137.313371 190.116004 
C 136.624772 189.427405 135.690701 189.0405 134.716875 189.0405 
C 133.743049 189.0405 132.808978 189.427405 132.120379 190.116004 
C 131.43178 190.804603 131.044875 191.738674 131.044875 192.7125 
C 131.044875 193.686326 131.43178 194.620397 132.120379 195.308996 
C 132.808978 195.997595 133.743049 196.3845 134.716875 196.3845 
z
" style="fill:none;stroke:#000000;stroke-linejoin:miter;stroke-width:0.9;"/>
   </g>
   <g id="patch_21">
    <path clip-path="url(#pc6c8deee15)" d="M 134.716875 129.0645 
C 135.690701 129.0645 136.624772 128.677595 137.313371 127.988996 
C 138.00197 127.300397 138.388875 126.366326 138.388875 125.3925 
C 138.388875 124.418674 138.00197 123.484603 137.313371 122.796004 
C 136.624772 122.107405 135.690701 121.7205 134.716875 121.7205 
C 133.743049 121.7205 132.808978 122.107405 132.120379 122.796004 
C 131.43178 123.484603 131.044875 124.418674 131.044875 125.3925 
C 131.044875 126.366326 131.43178 127.300397 132.120379 127.988996 
C 132.808978 128.677595 133.743049 129.0645 134.716875 129.0645 
z
" style="fill:none;stroke:#000000;stroke-linejoin:miter;stroke-width:0.9;"/>
   </g>
   <g id="patch_22">
    <path clip-path="url(#pc6c8deee15)" d="M 134.716875 61.7445 
C 135.690701 61.7445 136.624772 61.357595 137.313371 60.668996 
C 138.00197 59.980397 138.388875 59.046326 138.388875 58.0725 
C 138.388875 57.098674 138.00197 56.164603 137.313371 55.476004 
C 136.624772 54.787405 135.690701 54.4005 134.716875 54.4005 
C 133.743049 54.4005 132.808978 54.787405 132.120379 55.476004 
C 131.43178 56.164603 131.044875 57.098674 131.044875 58.0725 
C 131.044875 59.046326 131.43178 59.980397 132.120379 60.668996 
C 132.808978 61.357595 133.743049 61.7445 134.716875 61.7445 
z
" style="fill:none;stroke:#000000;stroke-linejoin:miter;stroke-width:0.9;"/>
   </g>
   <g id="line2d_1">
    <path clip-path="url(#pc6c8deee15)" d="M 110.236875 10.26 
L 110.255736 10.848165 
L 110.312243 11.433912 
L 110.406162 12.014836 
L 110.537108 12.588549 
L 110.704543 13.152693 
L 110.907779 13.704951 
L 111.145981 14.243053 
L 111.418169 14.764787 
L 111.723226 15.26801 
L 112.059898 15.750655 
L 112.426801 16.210737 
L 112.822428 16.646366 
L 113.245153 17.055752 
L 113.693239 17.437213 
L 114.164844 17.789181 
L 114.658031 18.110211 
L 115.170773 18.398982 
L 115.700964 18.654308 
L 116.246424 18.87514 
L 116.804912 19.060571 
L 117.374133 19.209838 
L 117.951748 19.322329 
L 118.535384 19.39758 
L 119.122642 19.435283 
L 119.711108 19.435283 
L 120.298366 19.39758 
L 120.882002 19.322329 
L 121.459617 19.209838 
L 122.028838 19.060571 
L 122.587326 18.87514 
L 123.132786 18.654308 
L 123.662977 18.398982 
L 124.175719 18.110211 
L 124.668906 17.789181 
L 125.140511 17.437213 
L 125.588597 17.055752 
L 126.011322 16.646366 
L 126.406949 16.210737 
L 126.773852 15.750655 
L 127.110524 15.26801 
L 127.415581 14.764787 
L 127.687769 14.243053 
L 127.925971 13.704951 
L 128.129207 13.152693 
L 128.296642 12.588549 
L 128.427588 12.014836 
L 128.521507 11.433912 
L 128.578014 10.848165 
L 128.596875 10.26 
" style="fill:none;stroke:#000000;stroke-linecap:round;stroke-width:2;"/>
   </g>
   <g id="line2d_2">
    <path clip-path="url(#pc6c8deee15)" d="M 73.516875 34.74 
L 88.816875 34.74 
L 104.116875 34.74 
" style="fill:none;stroke:#000000;stroke-linecap:round;stroke-width:0.9;"/>
   </g>
   <g id="line2d_3">
    <path clip-path="url(#pc6c8deee15)" d="M 104.116875 34.74 
L 104.116875 44.4555 
L 104.116875 55.1655 
M 104.116875 82.3995 
L 104.116875 92.115 
" style="fill:none;stroke:#000000;stroke-linecap:round;stroke-width:0.9;"/>
   </g>
   <g id="line2d_4">
    <path clip-path="url(#pc6c8deee15)" d="M 104.116875 82.3995 
L 104.116875 85.7655 
" style="fill:none;stroke:#000000;stroke-linecap:round;stroke-width:0.9;"/>
   </g>
   <g id="line2d_5">
    <path clip-path="url(#pc6c8deee15)" d="M 104.116875 55.1655 
L 88.816875 55.1655 
L 104.116875 75.0555 
L 119.416875 55.1655 
L 104.116875 55.1655 
" style="fill:none;stroke:#000000;stroke-linecap:round;stroke-width:0.9;"/>
   </g>
   <g id="line2d_6">
    <path clip-path="url(#pc6c8deee15)" d="M 104.116875 92.115 
L 94.554375 92.115 
L 84.991875 92.115 
" style="fill:none;stroke:#000000;stroke-linecap:round;stroke-width:0.9;"/>
   </g>
   <g id="line2d_7">
    <path clip-path="url(#pc6c8deee15)" d="M 84.991875 92.115 
L 84.991875 80.2575 
L 84.991875 68.4 
" style="fill:none;stroke:#000000;stroke-linecap:round;stroke-width:0.9;"/>
   </g>
   <g id="line2d_8">
    <path clip-path="url(#pc6c8deee15)" d="M 84.991875 68.4 
L 79.254375 68.4 
L 73.516875 68.4 
" style="fill:none;stroke:#000000;stroke-linecap:round;stroke-width:0.9;"/>
   </g>
   <g id="line2d_9">
    <path clip-path="url(#pc6c8deee15)" d="M 73.516875 102.06 
L 88.816875 102.06 
L 104.116875 102.06 
" style="fill:none;stroke:#000000;stroke-linecap:round;stroke-width:0.9;"/>
   </g>
   <g id="line2d_10">
    <path clip-path="url(#pc6c8deee15)" d="M 104.116875 102.06 
L 104.116875 111.7755 
L 104.116875 122.4855 
M 104.116875 149.7195 
L 104.116875 159.435 
" style="fill:none;stroke:#000000;stroke-linecap:round;stroke-width:0.9;"/>
   </g>
   <g id="line2d_11">
    <path clip-path="url(#pc6c8deee15)" d="M 104.116875 149.7195 
L 104.116875 153.0855 
" style="fill:none;stroke:#000000;stroke-linecap:round;stroke-width:0.9;"/>
   </g>
   <g id="line2d_12">
    <path clip-path="url(#pc6c8deee15)" d="M 104.116875 122.4855 
L 88.816875 122.4855 
L 104.116875 142.3755 
L 119.416875 122.4855 
L 104.116875 122.4855 
" style="fill:none;stroke:#000000;stroke-linecap:round;stroke-width:0.9;"/>
   </g>
   <g id="line2d_13">
    <path clip-path="url(#pc6c8deee15)" d="M 104.116875 159.435 
L 94.554375 159.435 
L 84.991875 159.435 
" style="fill:none;stroke:#000000;stroke-linecap:round;stroke-width:0.9;"/>
   </g>
   <g id="line2d_14">
    <path clip-path="url(#pc6c8deee15)" d="M 84.991875 159.435 
L 84.991875 147.5775 
L 84.991875 135.72 
" style="fill:none;stroke:#000000;stroke-linecap:round;stroke-width:0.9;"/>
   </g>
   <g id="line2d_15">
    <path clip-path="url(#pc6c8deee15)" d="M 84.991875 135.72 
L 79.254375 135.72 
L 73.516875 135.72 
" style="fill:none;stroke:#000000;stroke-linecap:round;stroke-width:0.9;"/>
   </g>
   <g id="line2d_16">
    <path clip-path="url(#pc6c8deee15)" d="M 73.516875 169.38 
L 88.816875 169.38 
L 104.116875 169.38 
" style="fill:none;stroke:#000000;stroke-linecap:round;stroke-width:0.9;"/>
   </g>
   <g id="line2d_17">
    <path clip-path="url(#pc6c8deee15)" d="M 104.116875 169.38 
L 104.116875 179.0955 
L 104.116875 189.8055 
M 104.116875 217.0395 
L 104.116875 226.755 
" style="fill:none;stroke:#000000;stroke-linecap:round;stroke-width:0.9;"/>
   </g>
   <g id="line2d_18">
    <path clip-path="url(#pc6c8deee15)" d="M 104.116875 217.0395 
L 104.116875 220.4055 
" style="fill:none;stroke:#000000;stroke-linecap:round;stroke-width:0.9;"/>
   </g>
   <g id="line2d_19">
    <path clip-path="url(#pc6c8deee15)" d="M 104.116875 189.8055 
L 88.816875 189.8055 
L 104.116875 209.6955 
L 119.416875 189.8055 
L 104.116875 189.8055 
" style="fill:none;stroke:#000000;stroke-linecap:round;stroke-width:0.9;"/>
   </g>
   <g id="line2d_20">
    <path clip-path="url(#pc6c8deee15)" d="M 104.116875 226.755 
L 94.554375 226.755 
L 84.991875 226.755 
" style="fill:none;stroke:#000000;stroke-linecap:round;stroke-width:0.9;"/>
   </g>
   <g id="line2d_21">
    <path clip-path="url(#pc6c8deee15)" d="M 84.991875 226.755 
L 84.991875 214.8975 
L 84.991875 203.04 
" style="fill:none;stroke:#000000;stroke-linecap:round;stroke-width:0.9;"/>
   </g>
   <g id="line2d_22">
    <path clip-path="url(#pc6c8deee15)" d="M 84.991875 203.04 
L 79.254375 203.04 
L 73.516875 203.04 
" style="fill:none;stroke:#000000;stroke-linecap:round;stroke-width:0.9;"/>
   </g>
   <g id="line2d_23">
    <path clip-path="url(#pc6c8deee15)" d="M 165.316875 236.7 
L 150.016875 236.7 
L 134.716875 236.7 
" style="fill:none;stroke:#000000;stroke-linecap:round;stroke-width:0.9;"/>
   </g>
   <g id="line2d_24">
    <path clip-path="url(#pc6c8deee15)" d="M 134.716875 236.7 
L 134.716875 226.9845 
L 134.716875 216.2745 
M 134.716875 189.0405 
L 134.716875 179.325 
" style="fill:none;stroke:#000000;stroke-linecap:round;stroke-width:0.9;"/>
   </g>
   <g id="line2d_25">
    <path clip-path="url(#pc6c8deee15)" d="M 134.716875 189.0405 
L 134.716875 185.6745 
" style="fill:none;stroke:#000000;stroke-linecap:round;stroke-width:0.9;"/>
   </g>
   <g id="line2d_26">
    <path clip-path="url(#pc6c8deee15)" d="M 134.716875 216.2745 
L 150.016875 216.2745 
L 134.716875 196.3845 
L 119.416875 216.2745 
L 134.716875 216.2745 
" style="fill:none;stroke:#000000;stroke-linecap:round;stroke-width:0.9;"/>
   </g>
   <g id="line2d_27">
    <path clip-path="url(#pc6c8deee15)" d="M 134.716875 179.325 
L 144.279375 179.325 
L 153.841875 179.325 
" style="fill:none;stroke:#000000;stroke-linecap:round;stroke-width:0.9;"/>
   </g>
   <g id="line2d_28">
    <path clip-path="url(#pc6c8deee15)" d="M 153.841875 179.325 
L 153.841875 191.1825 
L 153.841875 203.04 
" style="fill:none;stroke:#000000;stroke-linecap:round;stroke-width:0.9;"/>
   </g>
   <g id="line2d_29">
    <path clip-path="url(#pc6c8deee15)" d="M 153.841875 203.04 
L 159.579375 203.04 
L 165.316875 203.04 
" style="fill:none;stroke:#000000;stroke-linecap:round;stroke-width:0.9;"/>
   </g>
   <g id="line2d_30">
    <path clip-path="url(#pc6c8deee15)" d="M 165.316875 169.38 
L 150.016875 169.38 
L 134.716875 169.38 
" style="fill:none;stroke:#000000;stroke-linecap:round;stroke-width:0.9;"/>
   </g>
   <g id="line2d_31">
    <path clip-path="url(#pc6c8deee15)" d="M 134.716875 169.38 
L 134.716875 159.6645 
L 134.716875 148.9545 
M 134.716875 121.7205 
L 134.716875 112.005 
" style="fill:none;stroke:#000000;stroke-linecap:round;stroke-width:0.9;"/>
   </g>
   <g id="line2d_32">
    <path clip-path="url(#pc6c8deee15)" d="M 134.716875 121.7205 
L 134.716875 118.3545 
" style="fill:none;stroke:#000000;stroke-linecap:round;stroke-width:0.9;"/>
   </g>
   <g id="line2d_33">
    <path clip-path="url(#pc6c8deee15)" d="M 134.716875 148.9545 
L 150.016875 148.9545 
L 134.716875 129.0645 
L 119.416875 148.9545 
L 134.716875 148.9545 
" style="fill:none;stroke:#000000;stroke-linecap:round;stroke-width:0.9;"/>
   </g>
   <g id="line2d_34">
    <path clip-path="url(#pc6c8deee15)" d="M 134.716875 112.005 
L 144.279375 112.005 
L 153.841875 112.005 
" style="fill:none;stroke:#000000;stroke-linecap:round;stroke-width:0.9;"/>
   </g>
   <g id="line2d_35">
    <path clip-path="url(#pc6c8deee15)" d="M 153.841875 112.005 
L 153.841875 123.8625 
L 153.841875 135.72 
" style="fill:none;stroke:#000000;stroke-linecap:round;stroke-width:0.9;"/>
   </g>
   <g id="line2d_36">
    <path clip-path="url(#pc6c8deee15)" d="M 153.841875 135.72 
L 159.579375 135.72 
L 165.316875 135.72 
" style="fill:none;stroke:#000000;stroke-linecap:round;stroke-width:0.9;"/>
   </g>
   <g id="line2d_37">
    <path clip-path="url(#pc6c8deee15)" d="M 165.316875 102.06 
L 150.016875 102.06 
L 134.716875 102.06 
" style="fill:none;stroke:#000000;stroke-linecap:round;stroke-width:0.9;"/>
   </g>
   <g id="line2d_38">
    <path clip-path="url(#pc6c8deee15)" d="M 134.716875 102.06 
L 134.716875 92.3445 
L 134.716875 81.6345 
M 134.716875 54.4005 
L 134.716875 44.685 
" style="fill:none;stroke:#000000;stroke-linecap:round;stroke-width:0.9;"/>
   </g>
   <g id="line2d_39">
    <path clip-path="url(#pc6c8deee15)" d="M 134.716875 54.4005 
L 134.716875 51.0345 
" style="fill:none;stroke:#000000;stroke-linecap:round;stroke-width:0.9;"/>
   </g>
   <g id="line2d_40">
    <path clip-path="url(#pc6c8deee15)" d="M 134.716875 81.6345 
L 150.016875 81.6345 
L 134.716875 61.7445 
L 119.416875 81.6345 
L 134.716875 81.6345 
" style="fill:none;stroke:#000000;stroke-linecap:round;stroke-width:0.9;"/>
   </g>
   <g id="line2d_41">
    <path clip-path="url(#pc6c8deee15)" d="M 134.716875 44.685 
L 144.279375 44.685 
L 153.841875 44.685 
" style="fill:none;stroke:#000000;stroke-linecap:round;stroke-width:0.9;"/>
   </g>
   <g id="line2d_42">
    <path clip-path="url(#pc6c8deee15)" d="M 153.841875 44.685 
L 153.841875 56.5425 
L 153.841875 68.4 
" style="fill:none;stroke:#000000;stroke-linecap:round;stroke-width:0.9;"/>
   </g>
   <g id="line2d_43">
    <path clip-path="url(#pc6c8deee15)" d="M 153.841875 68.4 
L 159.579375 68.4 
L 165.316875 68.4 
" style="fill:none;stroke:#000000;stroke-linecap:round;stroke-width:0.9;"/>
   </g>
   <g id="text_1">
    <!-- 7 -->
    <g transform="translate(61.155625 239.459375)scale(0.1 -0.1)">
     <defs>
      <path d="M 525 4666 
L 3525 4666 
L 3525 4397 
L 1831 0 
L 1172 0 
L 2766 4134 
L 525 4134 
L 525 4666 
z
" id="DejaVuSans-37" transform="scale(0.015625)"/>
     </defs>
     <use xlink:href="#DejaVuSans-37"/>
    </g>
   </g>
   <g id="text_2">
    <!-- 8 -->
    <g transform="translate(171.315625 239.459375)scale(0.1 -0.1)">
     <defs>
      <path d="M 2034 2216 
Q 1584 2216 1326 1975 
Q 1069 1734 1069 1313 
Q 1069 891 1326 650 
Q 1584 409 2034 409 
Q 2484 409 2743 651 
Q 3003 894 3003 1313 
Q 3003 1734 2745 1975 
Q 2488 2216 2034 2216 
z
M 1403 2484 
Q 997 2584 770 2862 
Q 544 3141 544 3541 
Q 544 4100 942 4425 
Q 1341 4750 2034 4750 
Q 2731 4750 3128 4425 
Q 3525 4100 3525 3541 
Q 3525 3141 3298 2862 
Q 3072 2584 2669 2484 
Q 3125 2378 3379 2068 
Q 3634 1759 3634 1313 
Q 3634 634 3220 271 
Q 2806 -91 2034 -91 
Q 1263 -91 848 271 
Q 434 634 434 1313 
Q 434 1759 690 2068 
Q 947 2378 1403 2484 
z
M 1172 3481 
Q 1172 3119 1398 2916 
Q 1625 2713 2034 2713 
Q 2441 2713 2670 2916 
Q 2900 3119 2900 3481 
Q 2900 3844 2670 4047 
Q 2441 4250 2034 4250 
Q 1625 4250 1398 4047 
Q 1172 3844 1172 3481 
z
" id="DejaVuSans-38" transform="scale(0.015625)"/>
     </defs>
     <use xlink:href="#DejaVuSans-38"/>
    </g>
   </g>
   <g id="text_3">
    <!-- 6 -->
    <g transform="translate(61.155625 205.799375)scale(0.1 -0.1)">
     <defs>
      <path d="M 2113 2584 
Q 1688 2584 1439 2293 
Q 1191 2003 1191 1497 
Q 1191 994 1439 701 
Q 1688 409 2113 409 
Q 2538 409 2786 701 
Q 3034 994 3034 1497 
Q 3034 2003 2786 2293 
Q 2538 2584 2113 2584 
z
M 3366 4563 
L 3366 3988 
Q 3128 4100 2886 4159 
Q 2644 4219 2406 4219 
Q 1781 4219 1451 3797 
Q 1122 3375 1075 2522 
Q 1259 2794 1537 2939 
Q 1816 3084 2150 3084 
Q 2853 3084 3261 2657 
Q 3669 2231 3669 1497 
Q 3669 778 3244 343 
Q 2819 -91 2113 -91 
Q 1303 -91 875 529 
Q 447 1150 447 2328 
Q 447 3434 972 4092 
Q 1497 4750 2381 4750 
Q 2619 4750 2861 4703 
Q 3103 4656 3366 4563 
z
" id="DejaVuSans-36" transform="scale(0.015625)"/>
     </defs>
     <use xlink:href="#DejaVuSans-36"/>
    </g>
   </g>
   <g id="text_4">
    <!-- 9 -->
    <g transform="translate(171.315625 205.799375)scale(0.1 -0.1)">
     <defs>
      <path d="M 703 97 
L 703 672 
Q 941 559 1184 500 
Q 1428 441 1663 441 
Q 2288 441 2617 861 
Q 2947 1281 2994 2138 
Q 2813 1869 2534 1725 
Q 2256 1581 1919 1581 
Q 1219 1581 811 2004 
Q 403 2428 403 3163 
Q 403 3881 828 4315 
Q 1253 4750 1959 4750 
Q 2769 4750 3195 4129 
Q 3622 3509 3622 2328 
Q 3622 1225 3098 567 
Q 2575 -91 1691 -91 
Q 1453 -91 1209 -44 
Q 966 3 703 97 
z
M 1959 2075 
Q 2384 2075 2632 2365 
Q 2881 2656 2881 3163 
Q 2881 3666 2632 3958 
Q 2384 4250 1959 4250 
Q 1534 4250 1286 3958 
Q 1038 3666 1038 3163 
Q 1038 2656 1286 2365 
Q 1534 2075 1959 2075 
z
" id="DejaVuSans-39" transform="scale(0.015625)"/>
     </defs>
     <use xlink:href="#DejaVuSans-39"/>
    </g>
   </g>
   <g id="text_5">
    <!-- 5 -->
    <g transform="translate(61.155625 172.139375)scale(0.1 -0.1)">
     <defs>
      <path d="M 691 4666 
L 3169 4666 
L 3169 4134 
L 1269 4134 
L 1269 2991 
Q 1406 3038 1543 3061 
Q 1681 3084 1819 3084 
Q 2600 3084 3056 2656 
Q 3513 2228 3513 1497 
Q 3513 744 3044 326 
Q 2575 -91 1722 -91 
Q 1428 -91 1123 -41 
Q 819 9 494 109 
L 494 744 
Q 775 591 1075 516 
Q 1375 441 1709 441 
Q 2250 441 2565 725 
Q 2881 1009 2881 1497 
Q 2881 1984 2565 2268 
Q 2250 2553 1709 2553 
Q 1456 2553 1204 2497 
Q 953 2441 691 2322 
L 691 4666 
z
" id="DejaVuSans-35" transform="scale(0.015625)"/>
     </defs>
     <use xlink:href="#DejaVuSans-35"/>
    </g>
   </g>
   <g id="text_6">
    <!-- 10 -->
    <g transform="translate(168.134375 172.139375)scale(0.1 -0.1)">
     <defs>
      <path d="M 794 531 
L 1825 531 
L 1825 4091 
L 703 3866 
L 703 4441 
L 1819 4666 
L 2450 4666 
L 2450 531 
L 3481 531 
L 3481 0 
L 794 0 
L 794 531 
z
" id="DejaVuSans-31" transform="scale(0.015625)"/>
      <path d="M 2034 4250 
Q 1547 4250 1301 3770 
Q 1056 3291 1056 2328 
Q 1056 1369 1301 889 
Q 1547 409 2034 409 
Q 2525 409 2770 889 
Q 3016 1369 3016 2328 
Q 3016 3291 2770 3770 
Q 2525 4250 2034 4250 
z
M 2034 4750 
Q 2819 4750 3233 4129 
Q 3647 3509 3647 2328 
Q 3647 1150 3233 529 
Q 2819 -91 2034 -91 
Q 1250 -91 836 529 
Q 422 1150 422 2328 
Q 422 3509 836 4129 
Q 1250 4750 2034 4750 
z
" id="DejaVuSans-30" transform="scale(0.015625)"/>
     </defs>
     <use xlink:href="#DejaVuSans-31"/>
     <use x="63.623047" xlink:href="#DejaVuSans-30"/>
    </g>
   </g>
   <g id="text_7">
    <!-- 4 -->
    <g transform="translate(61.155625 138.479375)scale(0.1 -0.1)">
     <defs>
      <path d="M 2419 4116 
L 825 1625 
L 2419 1625 
L 2419 4116 
z
M 2253 4666 
L 3047 4666 
L 3047 1625 
L 3713 1625 
L 3713 1100 
L 3047 1100 
L 3047 0 
L 2419 0 
L 2419 1100 
L 313 1100 
L 313 1709 
L 2253 4666 
z
" id="DejaVuSans-34" transform="scale(0.015625)"/>
     </defs>
     <use xlink:href="#DejaVuSans-34"/>
    </g>
   </g>
   <g id="text_8">
    <!-- 11 -->
    <g transform="translate(168.134375 138.479375)scale(0.1 -0.1)">
     <use xlink:href="#DejaVuSans-31"/>
     <use x="63.623047" xlink:href="#DejaVuSans-31"/>
    </g>
   </g>
   <g id="text_9">
    <!-- 3 -->
    <g transform="translate(61.155625 104.819375)scale(0.1 -0.1)">
     <defs>
      <path d="M 2597 2516 
Q 3050 2419 3304 2112 
Q 3559 1806 3559 1356 
Q 3559 666 3084 287 
Q 2609 -91 1734 -91 
Q 1441 -91 1130 -33 
Q 819 25 488 141 
L 488 750 
Q 750 597 1062 519 
Q 1375 441 1716 441 
Q 2309 441 2620 675 
Q 2931 909 2931 1356 
Q 2931 1769 2642 2001 
Q 2353 2234 1838 2234 
L 1294 2234 
L 1294 2753 
L 1863 2753 
Q 2328 2753 2575 2939 
Q 2822 3125 2822 3475 
Q 2822 3834 2567 4026 
Q 2313 4219 1838 4219 
Q 1578 4219 1281 4162 
Q 984 4106 628 3988 
L 628 4550 
Q 988 4650 1302 4700 
Q 1616 4750 1894 4750 
Q 2613 4750 3031 4423 
Q 3450 4097 3450 3541 
Q 3450 3153 3228 2886 
Q 3006 2619 2597 2516 
z
" id="DejaVuSans-33" transform="scale(0.015625)"/>
     </defs>
     <use xlink:href="#DejaVuSans-33"/>
    </g>
   </g>
   <g id="text_10">
    <!-- 12 -->
    <g transform="translate(168.134375 104.819375)scale(0.1 -0.1)">
     <defs>
      <path d="M 1228 531 
L 3431 531 
L 3431 0 
L 469 0 
L 469 531 
Q 828 903 1448 1529 
Q 2069 2156 2228 2338 
Q 2531 2678 2651 2914 
Q 2772 3150 2772 3378 
Q 2772 3750 2511 3984 
Q 2250 4219 1831 4219 
Q 1534 4219 1204 4116 
Q 875 4013 500 3803 
L 500 4441 
Q 881 4594 1212 4672 
Q 1544 4750 1819 4750 
Q 2544 4750 2975 4387 
Q 3406 4025 3406 3419 
Q 3406 3131 3298 2873 
Q 3191 2616 2906 2266 
Q 2828 2175 2409 1742 
Q 1991 1309 1228 531 
z
" id="DejaVuSans-32" transform="scale(0.015625)"/>
     </defs>
     <use xlink:href="#DejaVuSans-31"/>
     <use x="63.623047" xlink:href="#DejaVuSans-32"/>
    </g>
   </g>
   <g id="text_11">
    <!-- 2 -->
    <g transform="translate(61.155625 71.159375)scale(0.1 -0.1)">
     <use xlink:href="#DejaVuSans-32"/>
    </g>
   </g>
   <g id="text_12">
    <!-- 13 -->
    <g transform="translate(168.134375 71.159375)scale(0.1 -0.1)">
     <use xlink:href="#DejaVuSans-31"/>
     <use x="63.623047" xlink:href="#DejaVuSans-33"/>
    </g>
   </g>
   <g id="text_13">
    <!-- 1 -->
    <g transform="translate(61.155625 37.499375)scale(0.1 -0.1)">
     <use xlink:href="#DejaVuSans-31"/>
    </g>
   </g>
   <g id="text_14">
    <!-- 14 -->
    <g transform="translate(168.134375 37.499375)scale(0.1 -0.1)">
     <use xlink:href="#DejaVuSans-31"/>
     <use x="63.623047" xlink:href="#DejaVuSans-34"/>
    </g>
   </g>
   <g id="text_15">
    <!-- Input A -->
    <g transform="translate(16.184375 37.499375)scale(0.1 -0.1)">
     <defs>
      <path d="M 628 4666 
L 1259 4666 
L 1259 0 
L 628 0 
L 628 4666 
z
" id="DejaVuSans-49" transform="scale(0.015625)"/>
      <path d="M 3513 2113 
L 3513 0 
L 2938 0 
L 2938 2094 
Q 2938 2591 2744 2837 
Q 2550 3084 2163 3084 
Q 1697 3084 1428 2787 
Q 1159 2491 1159 1978 
L 1159 0 
L 581 0 
L 581 3500 
L 1159 3500 
L 1159 2956 
Q 1366 3272 1645 3428 
Q 1925 3584 2291 3584 
Q 2894 3584 3203 3211 
Q 3513 2838 3513 2113 
z
" id="DejaVuSans-6e" transform="scale(0.015625)"/>
      <path d="M 1159 525 
L 1159 -1331 
L 581 -1331 
L 581 3500 
L 1159 3500 
L 1159 2969 
Q 1341 3281 1617 3432 
Q 1894 3584 2278 3584 
Q 2916 3584 3314 3078 
Q 3713 2572 3713 1747 
Q 3713 922 3314 415 
Q 2916 -91 2278 -91 
Q 1894 -91 1617 61 
Q 1341 213 1159 525 
z
M 3116 1747 
Q 3116 2381 2855 2742 
Q 2594 3103 2138 3103 
Q 1681 3103 1420 2742 
Q 1159 2381 1159 1747 
Q 1159 1113 1420 752 
Q 1681 391 2138 391 
Q 2594 391 2855 752 
Q 3116 1113 3116 1747 
z
" id="DejaVuSans-70" transform="scale(0.015625)"/>
      <path d="M 544 1381 
L 544 3500 
L 1119 3500 
L 1119 1403 
Q 1119 906 1312 657 
Q 1506 409 1894 409 
Q 2359 409 2629 706 
Q 2900 1003 2900 1516 
L 2900 3500 
L 3475 3500 
L 3475 0 
L 2900 0 
L 2900 538 
Q 2691 219 2414 64 
Q 2138 -91 1772 -91 
Q 1169 -91 856 284 
Q 544 659 544 1381 
z
M 1991 3584 
L 1991 3584 
z
" id="DejaVuSans-75" transform="scale(0.015625)"/>
      <path d="M 1172 4494 
L 1172 3500 
L 2356 3500 
L 2356 3053 
L 1172 3053 
L 1172 1153 
Q 1172 725 1289 603 
Q 1406 481 1766 481 
L 2356 481 
L 2356 0 
L 1766 0 
Q 1100 0 847 248 
Q 594 497 594 1153 
L 594 3053 
L 172 3053 
L 172 3500 
L 594 3500 
L 594 4494 
L 1172 4494 
z
" id="DejaVuSans-74" transform="scale(0.015625)"/>
      <path id="DejaVuSans-20" transform="scale(0.015625)"/>
      <path d="M 2188 4044 
L 1331 1722 
L 3047 1722 
L 2188 4044 
z
M 1831 4666 
L 2547 4666 
L 4325 0 
L 3669 0 
L 3244 1197 
L 1141 1197 
L 716 0 
L 50 0 
L 1831 4666 
z
" id="DejaVuSans-41" transform="scale(0.015625)"/>
     </defs>
     <use xlink:href="#DejaVuSans-49"/>
     <use x="29.492188" xlink:href="#DejaVuSans-6e"/>
     <use x="92.871094" xlink:href="#DejaVuSans-70"/>
     <use x="156.347656" xlink:href="#DejaVuSans-75"/>
     <use x="219.726562" xlink:href="#DejaVuSans-74"/>
     <use x="258.935547" xlink:href="#DejaVuSans-20"/>
     <use x="290.722656" xlink:href="#DejaVuSans-41"/>
    </g>
   </g>
   <g id="text_16">
    <!-- Output A -->
    <g transform="translate(7.342187 71.159375)scale(0.1 -0.1)">
     <defs>
      <path d="M 2522 4238 
Q 1834 4238 1429 3725 
Q 1025 3213 1025 2328 
Q 1025 1447 1429 934 
Q 1834 422 2522 422 
Q 3209 422 3611 934 
Q 4013 1447 4013 2328 
Q 4013 3213 3611 3725 
Q 3209 4238 2522 4238 
z
M 2522 4750 
Q 3503 4750 4090 4092 
Q 4678 3434 4678 2328 
Q 4678 1225 4090 567 
Q 3503 -91 2522 -91 
Q 1538 -91 948 565 
Q 359 1222 359 2328 
Q 359 3434 948 4092 
Q 1538 4750 2522 4750 
z
" id="DejaVuSans-4f" transform="scale(0.015625)"/>
     </defs>
     <use xlink:href="#DejaVuSans-4f"/>
     <use x="78.710938" xlink:href="#DejaVuSans-75"/>
     <use x="142.089844" xlink:href="#DejaVuSans-74"/>
     <use x="181.298828" xlink:href="#DejaVuSans-70"/>
     <use x="244.775391" xlink:href="#DejaVuSans-75"/>
     <use x="308.154297" xlink:href="#DejaVuSans-74"/>
     <use x="347.363281" xlink:href="#DejaVuSans-20"/>
     <use x="379.150391" xlink:href="#DejaVuSans-41"/>
    </g>
   </g>
   <g id="text_17">
    <!-- Input B -->
    <g transform="translate(16.164062 104.819375)scale(0.1 -0.1)">
     <defs>
      <path d="M 1259 2228 
L 1259 519 
L 2272 519 
Q 2781 519 3026 730 
Q 3272 941 3272 1375 
Q 3272 1813 3026 2020 
Q 2781 2228 2272 2228 
L 1259 2228 
z
M 1259 4147 
L 1259 2741 
L 2194 2741 
Q 2656 2741 2882 2914 
Q 3109 3088 3109 3444 
Q 3109 3797 2882 3972 
Q 2656 4147 2194 4147 
L 1259 4147 
z
M 628 4666 
L 2241 4666 
Q 2963 4666 3353 4366 
Q 3744 4066 3744 3513 
Q 3744 3084 3544 2831 
Q 3344 2578 2956 2516 
Q 3422 2416 3680 2098 
Q 3938 1781 3938 1306 
Q 3938 681 3513 340 
Q 3088 0 2303 0 
L 628 0 
L 628 4666 
z
" id="DejaVuSans-42" transform="scale(0.015625)"/>
     </defs>
     <use xlink:href="#DejaVuSans-49"/>
     <use x="29.492188" xlink:href="#DejaVuSans-6e"/>
     <use x="92.871094" xlink:href="#DejaVuSans-70"/>
     <use x="156.347656" xlink:href="#DejaVuSans-75"/>
     <use x="219.726562" xlink:href="#DejaVuSans-74"/>
     <use x="258.935547" xlink:href="#DejaVuSans-20"/>
     <use x="290.722656" xlink:href="#DejaVuSans-42"/>
    </g>
   </g>
   <g id="text_18">
    <!-- Output B -->
    <g transform="translate(7.321875 138.479375)scale(0.1 -0.1)">
     <use xlink:href="#DejaVuSans-4f"/>
     <use x="78.710938" xlink:href="#DejaVuSans-75"/>
     <use x="142.089844" xlink:href="#DejaVuSans-74"/>
     <use x="181.298828" xlink:href="#DejaVuSans-70"/>
     <use x="244.775391" xlink:href="#DejaVuSans-75"/>
     <use x="308.154297" xlink:href="#DejaVuSans-74"/>
     <use x="347.363281" xlink:href="#DejaVuSans-20"/>
     <use x="379.150391" xlink:href="#DejaVuSans-42"/>
    </g>
   </g>
   <g id="text_19">
    <!-- Input C -->
    <g transform="translate(16.042187 172.139375)scale(0.1 -0.1)">
     <defs>
      <path d="M 4122 4306 
L 4122 3641 
Q 3803 3938 3442 4084 
Q 3081 4231 2675 4231 
Q 1875 4231 1450 3742 
Q 1025 3253 1025 2328 
Q 1025 1406 1450 917 
Q 1875 428 2675 428 
Q 3081 428 3442 575 
Q 3803 722 4122 1019 
L 4122 359 
Q 3791 134 3420 21 
Q 3050 -91 2638 -91 
Q 1578 -91 968 557 
Q 359 1206 359 2328 
Q 359 3453 968 4101 
Q 1578 4750 2638 4750 
Q 3056 4750 3426 4639 
Q 3797 4528 4122 4306 
z
" id="DejaVuSans-43" transform="scale(0.015625)"/>
     </defs>
     <use xlink:href="#DejaVuSans-49"/>
     <use x="29.492188" xlink:href="#DejaVuSans-6e"/>
     <use x="92.871094" xlink:href="#DejaVuSans-70"/>
     <use x="156.347656" xlink:href="#DejaVuSans-75"/>
     <use x="219.726562" xlink:href="#DejaVuSans-74"/>
     <use x="258.935547" xlink:href="#DejaVuSans-20"/>
     <use x="290.722656" xlink:href="#DejaVuSans-43"/>
    </g>
   </g>
   <g id="text_20">
    <!-- Output C -->
    <g transform="translate(7.2 205.799375)scale(0.1 -0.1)">
     <use xlink:href="#DejaVuSans-4f"/>
     <use x="78.710938" xlink:href="#DejaVuSans-75"/>
     <use x="142.089844" xlink:href="#DejaVuSans-74"/>
     <use x="181.298828" xlink:href="#DejaVuSans-70"/>
     <use x="244.775391" xlink:href="#DejaVuSans-75"/>
     <use x="308.154297" xlink:href="#DejaVuSans-74"/>
     <use x="347.363281" xlink:href="#DejaVuSans-20"/>
     <use x="379.150391" xlink:href="#DejaVuSans-43"/>
    </g>
   </g>
   <g id="text_21">
    <!-- GND -->
    <g transform="translate(29.167187 239.459375)scale(0.1 -0.1)">
     <defs>
      <path d="M 3809 666 
L 3809 1919 
L 2778 1919 
L 2778 2438 
L 4434 2438 
L 4434 434 
Q 4069 175 3628 42 
Q 3188 -91 2688 -91 
Q 1594 -91 976 548 
Q 359 1188 359 2328 
Q 359 3472 976 4111 
Q 1594 4750 2688 4750 
Q 3144 4750 3555 4637 
Q 3966 4525 4313 4306 
L 4313 3634 
Q 3963 3931 3569 4081 
Q 3175 4231 2741 4231 
Q 1884 4231 1454 3753 
Q 1025 3275 1025 2328 
Q 1025 1384 1454 906 
Q 1884 428 2741 428 
Q 3075 428 3337 486 
Q 3600 544 3809 666 
z
" id="DejaVuSans-47" transform="scale(0.015625)"/>
      <path d="M 628 4666 
L 1478 4666 
L 3547 763 
L 3547 4666 
L 4159 4666 
L 4159 0 
L 3309 0 
L 1241 3903 
L 1241 0 
L 628 0 
L 628 4666 
z
" id="DejaVuSans-4e" transform="scale(0.015625)"/>
      <path d="M 1259 4147 
L 1259 519 
L 2022 519 
Q 2988 519 3436 956 
Q 3884 1394 3884 2338 
Q 3884 3275 3436 3711 
Q 2988 4147 2022 4147 
L 1259 4147 
z
M 628 4666 
L 1925 4666 
Q 3281 4666 3915 4102 
Q 4550 3538 4550 2338 
Q 4550 1131 3912 565 
Q 3275 0 1925 0 
L 628 0 
L 628 4666 
z
" id="DejaVuSans-44" transform="scale(0.015625)"/>
     </defs>
     <use xlink:href="#DejaVuSans-47"/>
     <use x="77.490234" xlink:href="#DejaVuSans-4e"/>
     <use x="152.294922" xlink:href="#DejaVuSans-44"/>
    </g>
   </g>
   <g id="text_22">
    <!-- Output D -->
    <g transform="translate(186.736875 239.459375)scale(0.1 -0.1)">
     <use xlink:href="#DejaVuSans-4f"/>
     <use x="78.710938" xlink:href="#DejaVuSans-75"/>
     <use x="142.089844" xlink:href="#DejaVuSans-74"/>
     <use x="181.298828" xlink:href="#DejaVuSans-70"/>
     <use x="244.775391" xlink:href="#DejaVuSans-75"/>
     <use x="308.154297" xlink:href="#DejaVuSans-74"/>
     <use x="347.363281" xlink:href="#DejaVuSans-20"/>
     <use x="379.150391" xlink:href="#DejaVuSans-44"/>
    </g>
   </g>
   <g id="text_23">
    <!-- Input D -->
    <g transform="translate(186.736875 205.799375)scale(0.1 -0.1)">
     <use xlink:href="#DejaVuSans-49"/>
     <use x="29.492188" xlink:href="#DejaVuSans-6e"/>
     <use x="92.871094" xlink:href="#DejaVuSans-70"/>
     <use x="156.347656" xlink:href="#DejaVuSans-75"/>
     <use x="219.726562" xlink:href="#DejaVuSans-74"/>
     <use x="258.935547" xlink:href="#DejaVuSans-20"/>
     <use x="290.722656" xlink:href="#DejaVuSans-44"/>
    </g>
   </g>
   <g id="text_24">
    <!-- Output E -->
    <g transform="translate(186.736875 172.139375)scale(0.1 -0.1)">
     <defs>
      <path d="M 628 4666 
L 3578 4666 
L 3578 4134 
L 1259 4134 
L 1259 2753 
L 3481 2753 
L 3481 2222 
L 1259 2222 
L 1259 531 
L 3634 531 
L 3634 0 
L 628 0 
L 628 4666 
z
" id="DejaVuSans-45" transform="scale(0.015625)"/>
     </defs>
     <use xlink:href="#DejaVuSans-4f"/>
     <use x="78.710938" xlink:href="#DejaVuSans-75"/>
     <use x="142.089844" xlink:href="#DejaVuSans-74"/>
     <use x="181.298828" xlink:href="#DejaVuSans-70"/>
     <use x="244.775391" xlink:href="#DejaVuSans-75"/>
     <use x="308.154297" xlink:href="#DejaVuSans-74"/>
     <use x="347.363281" xlink:href="#DejaVuSans-20"/>
     <use x="379.150391" xlink:href="#DejaVuSans-45"/>
    </g>
   </g>
   <g id="text_25">
    <!-- Input E -->
    <g transform="translate(186.736875 138.479375)scale(0.1 -0.1)">
     <use xlink:href="#DejaVuSans-49"/>
     <use x="29.492188" xlink:href="#DejaVuSans-6e"/>
     <use x="92.871094" xlink:href="#DejaVuSans-70"/>
     <use x="156.347656" xlink:href="#DejaVuSans-75"/>
     <use x="219.726562" xlink:href="#DejaVuSans-74"/>
     <use x="258.935547" xlink:href="#DejaVuSans-20"/>
     <use x="290.722656" xlink:href="#DejaVuSans-45"/>
    </g>
   </g>
   <g id="text_26">
    <!-- Output F -->
    <g transform="translate(186.736875 104.819375)scale(0.1 -0.1)">
     <defs>
      <path d="M 628 4666 
L 3309 4666 
L 3309 4134 
L 1259 4134 
L 1259 2759 
L 3109 2759 
L 3109 2228 
L 1259 2228 
L 1259 0 
L 628 0 
L 628 4666 
z
" id="DejaVuSans-46" transform="scale(0.015625)"/>
     </defs>
     <use xlink:href="#DejaVuSans-4f"/>
     <use x="78.710938" xlink:href="#DejaVuSans-75"/>
     <use x="142.089844" xlink:href="#DejaVuSans-74"/>
     <use x="181.298828" xlink:href="#DejaVuSans-70"/>
     <use x="244.775391" xlink:href="#DejaVuSans-75"/>
     <use x="308.154297" xlink:href="#DejaVuSans-74"/>
     <use x="347.363281" xlink:href="#DejaVuSans-20"/>
     <use x="379.150391" xlink:href="#DejaVuSans-46"/>
    </g>
   </g>
   <g id="text_27">
    <!-- Input F -->
    <g transform="translate(186.736875 71.159375)scale(0.1 -0.1)">
     <use xlink:href="#DejaVuSans-49"/>
     <use x="29.492188" xlink:href="#DejaVuSans-6e"/>
     <use x="92.871094" xlink:href="#DejaVuSans-70"/>
     <use x="156.347656" xlink:href="#DejaVuSans-75"/>
     <use x="219.726562" xlink:href="#DejaVuSans-74"/>
     <use x="258.935547" xlink:href="#DejaVuSans-20"/>
     <use x="290.722656" xlink:href="#DejaVuSans-46"/>
    </g>
   </g>
   <g id="text_28">
    <!-- $V_{dd}$ -->
    <g transform="translate(186.736875 37.499375)scale(0.1 -0.1)">
     <defs>
      <path d="M 1319 0 
L 500 4666 
L 1119 4666 
L 1797 653 
L 4063 4666 
L 4750 4666 
L 2053 0 
L 1319 0 
z
" id="DejaVuSans-Oblique-56" transform="scale(0.015625)"/>
      <path d="M 2675 525 
Q 2444 222 2128 65 
Q 1813 -91 1428 -91 
Q 903 -91 598 267 
Q 294 625 294 1247 
Q 294 1766 478 2236 
Q 663 2706 1013 3078 
Q 1244 3325 1534 3454 
Q 1825 3584 2144 3584 
Q 2481 3584 2739 3421 
Q 2997 3259 3138 2956 
L 3513 4863 
L 4091 4863 
L 3144 0 
L 2566 0 
L 2675 525 
z
M 891 1350 
Q 891 897 1095 644 
Q 1300 391 1663 391 
Q 1931 391 2161 520 
Q 2391 650 2566 903 
Q 2750 1166 2856 1509 
Q 2963 1853 2963 2188 
Q 2963 2622 2758 2865 
Q 2553 3109 2194 3109 
Q 1922 3109 1687 2981 
Q 1453 2853 1288 2613 
Q 1106 2353 998 2009 
Q 891 1666 891 1350 
z
" id="DejaVuSans-Oblique-64" transform="scale(0.015625)"/>
     </defs>
     <use transform="translate(0 0.09375)" xlink:href="#DejaVuSans-Oblique-56"/>
     <use transform="translate(68.408203 -16.3125)scale(0.7)" xlink:href="#DejaVuSans-Oblique-64"/>
     <use transform="translate(112.841797 -16.3125)scale(0.7)" xlink:href="#DejaVuSans-Oblique-64"/>
    </g>
   </g>
   <g id="text_29">
    <!-- CD4069 -->
    <g transform="translate(91.323906 274.877812)scale(0.14 -0.14)">
     <use xlink:href="#DejaVuSans-43"/>
     <use x="69.824219" xlink:href="#DejaVuSans-44"/>
     <use x="146.826172" xlink:href="#DejaVuSans-34"/>
     <use x="210.449219" xlink:href="#DejaVuSans-30"/>
     <use x="274.072266" xlink:href="#DejaVuSans-36"/>
     <use x="337.695312" xlink:href="#DejaVuSans-39"/>
    </g>
   </g>
  </g>
 </g>
 <defs>
  <clipPath id="pc6c8deee15">
   <rect height="272.68" width="218.688" x="11.602875" y="7.2"/>
  </clipPath>
 </defs>
</svg>
