<?xml version="1.0" encoding="utf-8" standalone="no"?>
<!DOCTYPE svg PUBLIC "-//W3C//DTD SVG 1.1//EN"
  "http://www.w3.org/Graphics/SVG/1.1/DTD/svg11.dtd">
<svg height="114.7pt" version="1.1" viewBox="0 0 359.5068 114.7" width="359.5068pt" xmlns="http://www.w3.org/2000/svg" xmlns:xlink="http://www.w3.org/1999/xlink">
 <metadata>
  <rdf:RDF xmlns:cc="http://creativecommons.org/ns#" xmlns:dc="http://purl.org/dc/elements/1.1/" xmlns:rdf="http://www.w3.org/1999/02/22-rdf-syntax-ns#">
   <cc:Work>
    <dc:type rdf:resource="http://purl.org/dc/dcmitype/StillImage"/>
    <dc:date>2021-06-21T16:18:55.198678</dc:date>
    <dc:format>image/svg+xml</dc:format>
    <dc:creator>
     <cc:Agent>
      <dc:title>Matplotlib v3.4.2, https://matplotlib.org/</dc:title>
     </cc:Agent>
    </dc:creator>
   </cc:Work>
  </rdf:RDF>
 </metadata>
 <defs>
  <style type="text/css">*{stroke-linecap:butt;stroke-linejoin:round;}</style>
 </defs>
 <g id="figure_1">
  <g id="patch_1">
   <path d="M 0 114.7 
L 359.5068 114.7 
L 359.5068 0 
L 0 0 
z
" style="fill:none;"/>
  </g>
  <g id="axes_1">
   <g id="patch_2">
    <path clip-path="url(#p6faf4e8de0)" d="M 165.6468 92.812 
C 166.620626 92.812 167.554697 92.425095 168.243296 91.736496 
C 168.931895 91.047897 169.3188 90.113826 169.3188 89.14 
C 169.3188 88.166174 168.931895 87.232103 168.243296 86.543504 
C 167.554697 85.854905 166.620626 85.468 165.6468 85.468 
C 164.672974 85.468 163.738903 85.854905 163.050304 86.543504 
C 162.361705 87.232103 161.9748 88.166174 161.9748 89.14 
C 161.9748 90.113826 162.361705 91.047897 163.050304 91.736496 
C 163.738903 92.425095 164.672974 92.812 165.6468 92.812 
z
" style="fill:none;stroke:#000000;stroke-linejoin:miter;stroke-width:1.2;"/>
   </g>
   <g id="patch_3">
    <path clip-path="url(#p6faf4e8de0)" d="M 242.1468 92.812 
C 243.120626 92.812 244.054697 92.425095 244.743296 91.736496 
C 245.431895 91.047897 245.8188 90.113826 245.8188 89.14 
C 245.8188 88.166174 245.431895 87.232103 244.743296 86.543504 
C 244.054697 85.854905 243.120626 85.468 242.1468 85.468 
C 241.172974 85.468 240.238903 85.854905 239.550304 86.543504 
C 238.861705 87.232103 238.4748 88.166174 238.4748 89.14 
C 238.4748 90.113826 238.861705 91.047897 239.550304 91.736496 
C 240.238903 92.425095 241.172974 92.812 242.1468 92.812 
z
" style="fill:none;stroke:#000000;stroke-linejoin:miter;stroke-width:1.2;"/>
   </g>
   <g id="patch_4">
    <path clip-path="url(#p6faf4e8de0)" d="M 303.3468 89.14 
L 312.9093 79.5775 
L 349.2468 79.5775 
L 349.2468 98.7025 
L 312.9093 98.7025 
z
" style="fill:none;stroke:#000000;stroke-linecap:round;stroke-width:1.2;"/>
   </g>
   <g id="line2d_1">
    <path clip-path="url(#p6faf4e8de0)" d="M 35.5968 89.14 
L 58.5468 89.14 
L 61.0968 81.49 
L 66.1968 96.79 
L 71.2968 81.49 
L 76.3968 96.79 
L 81.4968 81.49 
L 86.5968 96.79 
L 89.1468 89.14 
L 112.0968 89.14 
" style="fill:none;stroke:#000000;stroke-linecap:round;stroke-width:1.2;"/>
   </g>
   <g id="line2d_2">
    <path clip-path="url(#p6faf4e8de0)" d="M 112.0968 89.14 
L 131.3748 89.14 
L 142.0848 89.14 
M 169.3188 89.14 
L 188.5968 89.14 
" style="fill:none;stroke:#000000;stroke-linecap:round;stroke-width:1.2;"/>
   </g>
   <g id="line2d_3">
    <path clip-path="url(#p6faf4e8de0)" d="M 169.3188 89.14 
L 172.6848 89.14 
" style="fill:none;stroke:#000000;stroke-linecap:round;stroke-width:1.2;"/>
   </g>
   <g id="line2d_4">
    <path clip-path="url(#p6faf4e8de0)" d="M 142.0848 89.14 
L 142.0848 104.44 
L 161.9748 89.14 
L 142.0848 73.84 
L 142.0848 89.14 
" style="fill:none;stroke:#000000;stroke-linecap:round;stroke-width:1.2;"/>
   </g>
   <g id="line2d_5">
    <path clip-path="url(#p6faf4e8de0)" d="M 188.5968 89.14 
L 207.8748 89.14 
L 218.5848 89.14 
M 245.8188 89.14 
L 265.0968 89.14 
" style="fill:none;stroke:#000000;stroke-linecap:round;stroke-width:1.2;"/>
   </g>
   <g id="line2d_6">
    <path clip-path="url(#p6faf4e8de0)" d="M 245.8188 89.14 
L 249.1848 89.14 
" style="fill:none;stroke:#000000;stroke-linecap:round;stroke-width:1.2;"/>
   </g>
   <g id="line2d_7">
    <path clip-path="url(#p6faf4e8de0)" d="M 218.5848 89.14 
L 218.5848 104.44 
L 238.4748 89.14 
L 218.5848 73.84 
L 218.5848 89.14 
" style="fill:none;stroke:#000000;stroke-linecap:round;stroke-width:1.2;"/>
   </g>
   <g id="line2d_8">
    <path clip-path="url(#p6faf4e8de0)" d="M 265.0968 89.14 
L 284.2218 89.14 
L 303.3468 89.14 
" style="fill:none;stroke:#000000;stroke-linecap:round;stroke-width:1.2;"/>
   </g>
   <g id="line2d_9">
    <path clip-path="url(#p6faf4e8de0)" d="M 112.0968 89.14 
L 112.0968 70.015 
L 112.0968 50.89 
" style="fill:none;stroke:#000000;stroke-linecap:round;stroke-width:1.2;"/>
   </g>
   <g id="line2d_10">
    <path clip-path="url(#p6faf4e8de0)" d="M 112.0968 50.89 
L 173.2968 50.89 
L 175.8468 43.24 
L 180.9468 58.54 
L 186.0468 43.24 
L 191.1468 58.54 
L 196.2468 43.24 
L 201.3468 58.54 
L 203.8968 50.89 
L 265.0968 50.89 
" style="fill:none;stroke:#000000;stroke-linecap:round;stroke-width:1.2;"/>
   </g>
   <g id="line2d_11">
    <path clip-path="url(#p6faf4e8de0)" d="M 265.0968 50.89 
L 265.0968 70.015 
L 265.0968 89.14 
" style="fill:none;stroke:#000000;stroke-linecap:round;stroke-width:1.2;"/>
   </g>
   <g id="text_1">
    <!-- $R_S$ -->
    <g transform="translate(65.6568 59.8415)scale(0.14 -0.14)">
     <defs>
      <path d="M 1613 4147 
L 1294 2491 
L 2106 2491 
Q 2584 2491 2879 2755 
Q 3175 3019 3175 3444 
Q 3175 3784 2976 3965 
Q 2778 4147 2406 4147 
L 1613 4147 
z
M 2772 2241 
Q 2972 2194 3105 2009 
Q 3238 1825 3413 1275 
L 3809 0 
L 3144 0 
L 2778 1197 
Q 2638 1659 2453 1815 
Q 2269 1972 1888 1972 
L 1191 1972 
L 806 0 
L 172 0 
L 1081 4666 
L 2503 4666 
Q 3150 4666 3495 4373 
Q 3841 4081 3841 3531 
Q 3841 3044 3547 2687 
Q 3253 2331 2772 2241 
z
" id="DejaVuSans-Oblique-52" transform="scale(0.015625)"/>
      <path d="M 3859 4513 
L 3738 3897 
Q 3422 4066 3111 4152 
Q 2800 4238 2509 4238 
Q 1944 4238 1609 3991 
Q 1275 3744 1275 3334 
Q 1275 3109 1398 2989 
Q 1522 2869 2034 2731 
L 2413 2638 
Q 3053 2472 3303 2217 
Q 3553 1963 3553 1503 
Q 3553 797 2998 353 
Q 2444 -91 1538 -91 
Q 1166 -91 791 -17 
Q 416 56 38 206 
L 166 856 
Q 513 641 861 531 
Q 1209 422 1556 422 
Q 2147 422 2503 684 
Q 2859 947 2859 1369 
Q 2859 1650 2717 1795 
Q 2575 1941 2106 2059 
L 1728 2156 
Q 1081 2325 845 2545 
Q 609 2766 609 3163 
Q 609 3859 1145 4304 
Q 1681 4750 2541 4750 
Q 2875 4750 3203 4690 
Q 3531 4631 3859 4513 
z
" id="DejaVuSans-Oblique-53" transform="scale(0.015625)"/>
     </defs>
     <use transform="translate(0 0.09375)" xlink:href="#DejaVuSans-Oblique-52"/>
     <use transform="translate(69.482422 -16.3125)scale(0.7)" xlink:href="#DejaVuSans-Oblique-53"/>
    </g>
    <!-- 1M -->
    <g transform="translate(63.353363 75.518438)scale(0.14 -0.14)">
     <defs>
      <path d="M 794 531 
L 1825 531 
L 1825 4091 
L 703 3866 
L 703 4441 
L 1819 4666 
L 2450 4666 
L 2450 531 
L 3481 531 
L 3481 0 
L 794 0 
L 794 531 
z
" id="DejaVuSans-31" transform="scale(0.015625)"/>
      <path d="M 628 4666 
L 1569 4666 
L 2759 1491 
L 3956 4666 
L 4897 4666 
L 4897 0 
L 4281 0 
L 4281 4097 
L 3078 897 
L 2444 897 
L 1241 4097 
L 1241 0 
L 628 0 
L 628 4666 
z
" id="DejaVuSans-4d" transform="scale(0.015625)"/>
     </defs>
     <use xlink:href="#DejaVuSans-31"/>
     <use x="63.623047" xlink:href="#DejaVuSans-4d"/>
    </g>
   </g>
   <g id="text_2">
    <!-- Out -->
    <g transform="translate(315.418988 92.45125)scale(0.12 -0.12)">
     <defs>
      <path d="M 2522 4238 
Q 1834 4238 1429 3725 
Q 1025 3213 1025 2328 
Q 1025 1447 1429 934 
Q 1834 422 2522 422 
Q 3209 422 3611 934 
Q 4013 1447 4013 2328 
Q 4013 3213 3611 3725 
Q 3209 4238 2522 4238 
z
M 2522 4750 
Q 3503 4750 4090 4092 
Q 4678 3434 4678 2328 
Q 4678 1225 4090 567 
Q 3503 -91 2522 -91 
Q 1538 -91 948 565 
Q 359 1222 359 2328 
Q 359 3434 948 4092 
Q 1538 4750 2522 4750 
z
" id="DejaVuSans-4f" transform="scale(0.015625)"/>
      <path d="M 544 1381 
L 544 3500 
L 1119 3500 
L 1119 1403 
Q 1119 906 1312 657 
Q 1506 409 1894 409 
Q 2359 409 2629 706 
Q 2900 1003 2900 1516 
L 2900 3500 
L 3475 3500 
L 3475 0 
L 2900 0 
L 2900 538 
Q 2691 219 2414 64 
Q 2138 -91 1772 -91 
Q 1169 -91 856 284 
Q 544 659 544 1381 
z
M 1991 3584 
L 1991 3584 
z
" id="DejaVuSans-75" transform="scale(0.015625)"/>
      <path d="M 1172 4494 
L 1172 3500 
L 2356 3500 
L 2356 3053 
L 1172 3053 
L 1172 1153 
Q 1172 725 1289 603 
Q 1406 481 1766 481 
L 2356 481 
L 2356 0 
L 1766 0 
Q 1100 0 847 248 
Q 594 497 594 1153 
L 594 3053 
L 172 3053 
L 172 3500 
L 594 3500 
L 594 4494 
L 1172 4494 
z
" id="DejaVuSans-74" transform="scale(0.015625)"/>
     </defs>
     <use xlink:href="#DejaVuSans-4f"/>
     <use x="78.710938" xlink:href="#DejaVuSans-75"/>
     <use x="142.089844" xlink:href="#DejaVuSans-74"/>
    </g>
   </g>
   <g id="text_3">
    <!-- $R_f$ -->
    <g transform="translate(181.8068 21.5915)scale(0.14 -0.14)">
     <defs>
      <path d="M 3059 4863 
L 2969 4384 
L 2419 4384 
Q 2106 4384 1964 4261 
Q 1822 4138 1753 3809 
L 1691 3500 
L 2638 3500 
L 2553 3053 
L 1606 3053 
L 1013 0 
L 434 0 
L 1031 3053 
L 481 3053 
L 563 3500 
L 1113 3500 
L 1159 3744 
Q 1278 4363 1576 4613 
Q 1875 4863 2516 4863 
L 3059 4863 
z
" id="DejaVuSans-Oblique-66" transform="scale(0.015625)"/>
     </defs>
     <use transform="translate(0 0.09375)" xlink:href="#DejaVuSans-Oblique-52"/>
     <use transform="translate(69.482422 -16.3125)scale(0.7)" xlink:href="#DejaVuSans-Oblique-66"/>
    </g>
    <!-- 1M -->
    <g transform="translate(178.103363 37.268437)scale(0.14 -0.14)">
     <use xlink:href="#DejaVuSans-31"/>
     <use x="63.623047" xlink:href="#DejaVuSans-4d"/>
    </g>
   </g>
   <g id="patch_5">
    <path clip-path="url(#p6faf4e8de0)" d="M 35.5968 91.435 
C 36.205441 91.435 36.789236 91.193184 37.21961 90.76281 
C 37.649984 90.332436 37.8918 89.748641 37.8918 89.14 
C 37.8918 88.531359 37.649984 87.947564 37.21961 87.51719 
C 36.789236 87.086816 36.205441 86.845 35.5968 86.845 
C 34.988159 86.845 34.404364 87.086816 33.97399 87.51719 
C 33.543616 87.947564 33.3018 88.531359 33.3018 89.14 
C 33.3018 89.748641 33.543616 90.332436 33.97399 90.76281 
C 34.404364 91.193184 34.988159 91.435 35.5968 91.435 
z
" style="fill:#ffffff;stroke:#000000;stroke-linejoin:miter;stroke-width:1.2;"/>
   </g>
   <g id="patch_6">
    <path clip-path="url(#p6faf4e8de0)" d="M 112.0968 91.435 
C 112.705441 91.435 113.289236 91.193184 113.71961 90.76281 
C 114.149984 90.332436 114.3918 89.748641 114.3918 89.14 
C 114.3918 88.531359 114.149984 87.947564 113.71961 87.51719 
C 113.289236 87.086816 112.705441 86.845 112.0968 86.845 
C 111.488159 86.845 110.904364 87.086816 110.47399 87.51719 
C 110.043616 87.947564 109.8018 88.531359 109.8018 89.14 
C 109.8018 89.748641 110.043616 90.332436 110.47399 90.76281 
C 110.904364 91.193184 111.488159 91.435 112.0968 91.435 
z
" style="stroke:#000000;stroke-linejoin:miter;stroke-width:1.2;"/>
   </g>
   <g id="patch_7">
    <path clip-path="url(#p6faf4e8de0)" d="M 265.0968 91.435 
C 265.705441 91.435 266.289236 91.193184 266.71961 90.76281 
C 267.149984 90.332436 267.3918 89.748641 267.3918 89.14 
C 267.3918 88.531359 267.149984 87.947564 266.71961 87.51719 
C 266.289236 87.086816 265.705441 86.845 265.0968 86.845 
C 264.488159 86.845 263.904364 87.086816 263.47399 87.51719 
C 263.043616 87.947564 262.8018 88.531359 262.8018 89.14 
C 262.8018 89.748641 263.043616 90.332436 263.47399 90.76281 
C 263.904364 91.193184 264.488159 91.435 265.0968 91.435 
z
" style="stroke:#000000;stroke-linejoin:miter;stroke-width:1.2;"/>
   </g>
   <g id="text_4">
    <!-- $IN_1$ -->
    <g transform="translate(8.9618 93.003125)scale(0.14 -0.14)">
     <defs>
      <path d="M 1081 4666 
L 1716 4666 
L 806 0 
L 172 0 
L 1081 4666 
z
" id="DejaVuSans-Oblique-49" transform="scale(0.015625)"/>
      <path d="M 1081 4666 
L 1931 4666 
L 3219 666 
L 4000 4666 
L 4616 4666 
L 3706 0 
L 2853 0 
L 1569 4025 
L 788 0 
L 172 0 
L 1081 4666 
z
" id="DejaVuSans-Oblique-4e" transform="scale(0.015625)"/>
     </defs>
     <use transform="translate(0 0.09375)" xlink:href="#DejaVuSans-Oblique-49"/>
     <use transform="translate(29.492188 0.09375)" xlink:href="#DejaVuSans-Oblique-4e"/>
     <use transform="translate(104.296875 -16.3125)scale(0.7)" xlink:href="#DejaVuSans-31"/>
    </g>
   </g>
  </g>
 </g>
 <defs>
  <clipPath id="p6faf4e8de0">
   <rect height="100.3" width="345.1068" x="7.2" y="7.2"/>
  </clipPath>
 </defs>
</svg>
