<?xml version="1.0" encoding="utf-8" standalone="no"?>
<!DOCTYPE svg PUBLIC "-//W3C//DTD SVG 1.1//EN"
  "http://www.w3.org/Graphics/SVG/1.1/DTD/svg11.dtd">
<svg height="280.15625pt" version="1.1" viewBox="0 0 424.453125 280.15625" width="424.453125pt" xmlns="http://www.w3.org/2000/svg" xmlns:xlink="http://www.w3.org/1999/xlink">
 <metadata>
  <rdf:RDF xmlns:cc="http://creativecommons.org/ns#" xmlns:dc="http://purl.org/dc/elements/1.1/" xmlns:rdf="http://www.w3.org/1999/02/22-rdf-syntax-ns#">
   <cc:Work>
    <dc:type rdf:resource="http://purl.org/dc/dcmitype/StillImage"/>
    <dc:date>2021-06-21T16:18:56.195438</dc:date>
    <dc:format>image/svg+xml</dc:format>
    <dc:creator>
     <cc:Agent>
      <dc:title>Matplotlib v3.4.2, https://matplotlib.org/</dc:title>
     </cc:Agent>
    </dc:creator>
   </cc:Work>
  </rdf:RDF>
 </metadata>
 <defs>
  <style type="text/css">*{stroke-linecap:butt;stroke-linejoin:round;}</style>
 </defs>
 <g id="figure_1">
  <g id="patch_1">
   <path d="M 0 280.15625 
L 424.453125 280.15625 
L 424.453125 0 
L 0 0 
z
" style="fill:none;"/>
  </g>
  <g id="axes_1">
   <g id="patch_2">
    <path d="M 40.603125 242.6 
L 417.253125 242.6 
L 417.253125 7.2 
L 40.603125 7.2 
z
" style="fill:#ffffff;"/>
   </g>
   <g id="matplotlib.axis_1">
    <g id="xtick_1">
     <g id="line2d_1">
      <defs>
       <path d="M 0 0 
L 0 3.5 
" id="mdb4d7f9514" style="stroke:#000000;stroke-width:0.8;"/>
      </defs>
      <g>
       <use style="stroke:#000000;stroke-width:0.8;" x="57.72358" xlink:href="#mdb4d7f9514" y="242.6"/>
      </g>
     </g>
     <g id="text_1">
      <!-- 0 -->
      <g transform="translate(54.54233 257.198437)scale(0.1 -0.1)">
       <defs>
        <path d="M 2034 4250 
Q 1547 4250 1301 3770 
Q 1056 3291 1056 2328 
Q 1056 1369 1301 889 
Q 1547 409 2034 409 
Q 2525 409 2770 889 
Q 3016 1369 3016 2328 
Q 3016 3291 2770 3770 
Q 2525 4250 2034 4250 
z
M 2034 4750 
Q 2819 4750 3233 4129 
Q 3647 3509 3647 2328 
Q 3647 1150 3233 529 
Q 2819 -91 2034 -91 
Q 1250 -91 836 529 
Q 422 1150 422 2328 
Q 422 3509 836 4129 
Q 1250 4750 2034 4750 
z
" id="DejaVuSans-30" transform="scale(0.015625)"/>
       </defs>
       <use xlink:href="#DejaVuSans-30"/>
      </g>
     </g>
    </g>
    <g id="xtick_2">
     <g id="line2d_2">
      <g>
       <use style="stroke:#000000;stroke-width:0.8;" x="126.205398" xlink:href="#mdb4d7f9514" y="242.6"/>
      </g>
     </g>
     <g id="text_2">
      <!-- 2 -->
      <g transform="translate(123.024148 257.198437)scale(0.1 -0.1)">
       <defs>
        <path d="M 1228 531 
L 3431 531 
L 3431 0 
L 469 0 
L 469 531 
Q 828 903 1448 1529 
Q 2069 2156 2228 2338 
Q 2531 2678 2651 2914 
Q 2772 3150 2772 3378 
Q 2772 3750 2511 3984 
Q 2250 4219 1831 4219 
Q 1534 4219 1204 4116 
Q 875 4013 500 3803 
L 500 4441 
Q 881 4594 1212 4672 
Q 1544 4750 1819 4750 
Q 2544 4750 2975 4387 
Q 3406 4025 3406 3419 
Q 3406 3131 3298 2873 
Q 3191 2616 2906 2266 
Q 2828 2175 2409 1742 
Q 1991 1309 1228 531 
z
" id="DejaVuSans-32" transform="scale(0.015625)"/>
       </defs>
       <use xlink:href="#DejaVuSans-32"/>
      </g>
     </g>
    </g>
    <g id="xtick_3">
     <g id="line2d_3">
      <g>
       <use style="stroke:#000000;stroke-width:0.8;" x="194.687216" xlink:href="#mdb4d7f9514" y="242.6"/>
      </g>
     </g>
     <g id="text_3">
      <!-- 4 -->
      <g transform="translate(191.505966 257.198437)scale(0.1 -0.1)">
       <defs>
        <path d="M 2419 4116 
L 825 1625 
L 2419 1625 
L 2419 4116 
z
M 2253 4666 
L 3047 4666 
L 3047 1625 
L 3713 1625 
L 3713 1100 
L 3047 1100 
L 3047 0 
L 2419 0 
L 2419 1100 
L 313 1100 
L 313 1709 
L 2253 4666 
z
" id="DejaVuSans-34" transform="scale(0.015625)"/>
       </defs>
       <use xlink:href="#DejaVuSans-34"/>
      </g>
     </g>
    </g>
    <g id="xtick_4">
     <g id="line2d_4">
      <g>
       <use style="stroke:#000000;stroke-width:0.8;" x="263.169034" xlink:href="#mdb4d7f9514" y="242.6"/>
      </g>
     </g>
     <g id="text_4">
      <!-- 6 -->
      <g transform="translate(259.987784 257.198437)scale(0.1 -0.1)">
       <defs>
        <path d="M 2113 2584 
Q 1688 2584 1439 2293 
Q 1191 2003 1191 1497 
Q 1191 994 1439 701 
Q 1688 409 2113 409 
Q 2538 409 2786 701 
Q 3034 994 3034 1497 
Q 3034 2003 2786 2293 
Q 2538 2584 2113 2584 
z
M 3366 4563 
L 3366 3988 
Q 3128 4100 2886 4159 
Q 2644 4219 2406 4219 
Q 1781 4219 1451 3797 
Q 1122 3375 1075 2522 
Q 1259 2794 1537 2939 
Q 1816 3084 2150 3084 
Q 2853 3084 3261 2657 
Q 3669 2231 3669 1497 
Q 3669 778 3244 343 
Q 2819 -91 2113 -91 
Q 1303 -91 875 529 
Q 447 1150 447 2328 
Q 447 3434 972 4092 
Q 1497 4750 2381 4750 
Q 2619 4750 2861 4703 
Q 3103 4656 3366 4563 
z
" id="DejaVuSans-36" transform="scale(0.015625)"/>
       </defs>
       <use xlink:href="#DejaVuSans-36"/>
      </g>
     </g>
    </g>
    <g id="xtick_5">
     <g id="line2d_5">
      <g>
       <use style="stroke:#000000;stroke-width:0.8;" x="331.650852" xlink:href="#mdb4d7f9514" y="242.6"/>
      </g>
     </g>
     <g id="text_5">
      <!-- 8 -->
      <g transform="translate(328.469602 257.198437)scale(0.1 -0.1)">
       <defs>
        <path d="M 2034 2216 
Q 1584 2216 1326 1975 
Q 1069 1734 1069 1313 
Q 1069 891 1326 650 
Q 1584 409 2034 409 
Q 2484 409 2743 651 
Q 3003 894 3003 1313 
Q 3003 1734 2745 1975 
Q 2488 2216 2034 2216 
z
M 1403 2484 
Q 997 2584 770 2862 
Q 544 3141 544 3541 
Q 544 4100 942 4425 
Q 1341 4750 2034 4750 
Q 2731 4750 3128 4425 
Q 3525 4100 3525 3541 
Q 3525 3141 3298 2862 
Q 3072 2584 2669 2484 
Q 3125 2378 3379 2068 
Q 3634 1759 3634 1313 
Q 3634 634 3220 271 
Q 2806 -91 2034 -91 
Q 1263 -91 848 271 
Q 434 634 434 1313 
Q 434 1759 690 2068 
Q 947 2378 1403 2484 
z
M 1172 3481 
Q 1172 3119 1398 2916 
Q 1625 2713 2034 2713 
Q 2441 2713 2670 2916 
Q 2900 3119 2900 3481 
Q 2900 3844 2670 4047 
Q 2441 4250 2034 4250 
Q 1625 4250 1398 4047 
Q 1172 3844 1172 3481 
z
" id="DejaVuSans-38" transform="scale(0.015625)"/>
       </defs>
       <use xlink:href="#DejaVuSans-38"/>
      </g>
     </g>
    </g>
    <g id="xtick_6">
     <g id="line2d_6">
      <g>
       <use style="stroke:#000000;stroke-width:0.8;" x="400.13267" xlink:href="#mdb4d7f9514" y="242.6"/>
      </g>
     </g>
     <g id="text_6">
      <!-- 10 -->
      <g transform="translate(393.77017 257.198437)scale(0.1 -0.1)">
       <defs>
        <path d="M 794 531 
L 1825 531 
L 1825 4091 
L 703 3866 
L 703 4441 
L 1819 4666 
L 2450 4666 
L 2450 531 
L 3481 531 
L 3481 0 
L 794 0 
L 794 531 
z
" id="DejaVuSans-31" transform="scale(0.015625)"/>
       </defs>
       <use xlink:href="#DejaVuSans-31"/>
       <use x="63.623047" xlink:href="#DejaVuSans-30"/>
      </g>
     </g>
    </g>
    <g id="text_7">
     <!-- time (ms) -->
     <g transform="translate(204.666406 270.876562)scale(0.1 -0.1)">
      <defs>
       <path d="M 1172 4494 
L 1172 3500 
L 2356 3500 
L 2356 3053 
L 1172 3053 
L 1172 1153 
Q 1172 725 1289 603 
Q 1406 481 1766 481 
L 2356 481 
L 2356 0 
L 1766 0 
Q 1100 0 847 248 
Q 594 497 594 1153 
L 594 3053 
L 172 3053 
L 172 3500 
L 594 3500 
L 594 4494 
L 1172 4494 
z
" id="DejaVuSans-74" transform="scale(0.015625)"/>
       <path d="M 603 3500 
L 1178 3500 
L 1178 0 
L 603 0 
L 603 3500 
z
M 603 4863 
L 1178 4863 
L 1178 4134 
L 603 4134 
L 603 4863 
z
" id="DejaVuSans-69" transform="scale(0.015625)"/>
       <path d="M 3328 2828 
Q 3544 3216 3844 3400 
Q 4144 3584 4550 3584 
Q 5097 3584 5394 3201 
Q 5691 2819 5691 2113 
L 5691 0 
L 5113 0 
L 5113 2094 
Q 5113 2597 4934 2840 
Q 4756 3084 4391 3084 
Q 3944 3084 3684 2787 
Q 3425 2491 3425 1978 
L 3425 0 
L 2847 0 
L 2847 2094 
Q 2847 2600 2669 2842 
Q 2491 3084 2119 3084 
Q 1678 3084 1418 2786 
Q 1159 2488 1159 1978 
L 1159 0 
L 581 0 
L 581 3500 
L 1159 3500 
L 1159 2956 
Q 1356 3278 1631 3431 
Q 1906 3584 2284 3584 
Q 2666 3584 2933 3390 
Q 3200 3197 3328 2828 
z
" id="DejaVuSans-6d" transform="scale(0.015625)"/>
       <path d="M 3597 1894 
L 3597 1613 
L 953 1613 
Q 991 1019 1311 708 
Q 1631 397 2203 397 
Q 2534 397 2845 478 
Q 3156 559 3463 722 
L 3463 178 
Q 3153 47 2828 -22 
Q 2503 -91 2169 -91 
Q 1331 -91 842 396 
Q 353 884 353 1716 
Q 353 2575 817 3079 
Q 1281 3584 2069 3584 
Q 2775 3584 3186 3129 
Q 3597 2675 3597 1894 
z
M 3022 2063 
Q 3016 2534 2758 2815 
Q 2500 3097 2075 3097 
Q 1594 3097 1305 2825 
Q 1016 2553 972 2059 
L 3022 2063 
z
" id="DejaVuSans-65" transform="scale(0.015625)"/>
       <path id="DejaVuSans-20" transform="scale(0.015625)"/>
       <path d="M 1984 4856 
Q 1566 4138 1362 3434 
Q 1159 2731 1159 2009 
Q 1159 1288 1364 580 
Q 1569 -128 1984 -844 
L 1484 -844 
Q 1016 -109 783 600 
Q 550 1309 550 2009 
Q 550 2706 781 3412 
Q 1013 4119 1484 4856 
L 1984 4856 
z
" id="DejaVuSans-28" transform="scale(0.015625)"/>
       <path d="M 2834 3397 
L 2834 2853 
Q 2591 2978 2328 3040 
Q 2066 3103 1784 3103 
Q 1356 3103 1142 2972 
Q 928 2841 928 2578 
Q 928 2378 1081 2264 
Q 1234 2150 1697 2047 
L 1894 2003 
Q 2506 1872 2764 1633 
Q 3022 1394 3022 966 
Q 3022 478 2636 193 
Q 2250 -91 1575 -91 
Q 1294 -91 989 -36 
Q 684 19 347 128 
L 347 722 
Q 666 556 975 473 
Q 1284 391 1588 391 
Q 1994 391 2212 530 
Q 2431 669 2431 922 
Q 2431 1156 2273 1281 
Q 2116 1406 1581 1522 
L 1381 1569 
Q 847 1681 609 1914 
Q 372 2147 372 2553 
Q 372 3047 722 3315 
Q 1072 3584 1716 3584 
Q 2034 3584 2315 3537 
Q 2597 3491 2834 3397 
z
" id="DejaVuSans-73" transform="scale(0.015625)"/>
       <path d="M 513 4856 
L 1013 4856 
Q 1481 4119 1714 3412 
Q 1947 2706 1947 2009 
Q 1947 1309 1714 600 
Q 1481 -109 1013 -844 
L 513 -844 
Q 928 -128 1133 580 
Q 1338 1288 1338 2009 
Q 1338 2731 1133 3434 
Q 928 4138 513 4856 
z
" id="DejaVuSans-29" transform="scale(0.015625)"/>
      </defs>
      <use xlink:href="#DejaVuSans-74"/>
      <use x="39.208984" xlink:href="#DejaVuSans-69"/>
      <use x="66.992188" xlink:href="#DejaVuSans-6d"/>
      <use x="164.404297" xlink:href="#DejaVuSans-65"/>
      <use x="225.927734" xlink:href="#DejaVuSans-20"/>
      <use x="257.714844" xlink:href="#DejaVuSans-28"/>
      <use x="296.728516" xlink:href="#DejaVuSans-6d"/>
      <use x="394.140625" xlink:href="#DejaVuSans-73"/>
      <use x="446.240234" xlink:href="#DejaVuSans-29"/>
     </g>
    </g>
   </g>
   <g id="matplotlib.axis_2">
    <g id="ytick_1">
     <g id="line2d_7">
      <defs>
       <path d="M 0 0 
L -3.5 0 
" id="m52e5a63bb7" style="stroke:#000000;stroke-width:0.8;"/>
      </defs>
      <g>
       <use style="stroke:#000000;stroke-width:0.8;" x="40.603125" xlink:href="#m52e5a63bb7" y="231.9"/>
      </g>
     </g>
     <g id="text_8">
      <!-- 0 -->
      <g transform="translate(27.240625 235.699219)scale(0.1 -0.1)">
       <use xlink:href="#DejaVuSans-30"/>
      </g>
     </g>
    </g>
    <g id="ytick_2">
     <g id="line2d_8">
      <g>
       <use style="stroke:#000000;stroke-width:0.8;" x="40.603125" xlink:href="#m52e5a63bb7" y="201.804619"/>
      </g>
     </g>
     <g id="text_9">
      <!-- 2 -->
      <g transform="translate(27.240625 205.603838)scale(0.1 -0.1)">
       <use xlink:href="#DejaVuSans-32"/>
      </g>
     </g>
    </g>
    <g id="ytick_3">
     <g id="line2d_9">
      <g>
       <use style="stroke:#000000;stroke-width:0.8;" x="40.603125" xlink:href="#m52e5a63bb7" y="171.709238"/>
      </g>
     </g>
     <g id="text_10">
      <!-- 4 -->
      <g transform="translate(27.240625 175.508457)scale(0.1 -0.1)">
       <use xlink:href="#DejaVuSans-34"/>
      </g>
     </g>
    </g>
    <g id="ytick_4">
     <g id="line2d_10">
      <g>
       <use style="stroke:#000000;stroke-width:0.8;" x="40.603125" xlink:href="#m52e5a63bb7" y="141.613857"/>
      </g>
     </g>
     <g id="text_11">
      <!-- 6 -->
      <g transform="translate(27.240625 145.413075)scale(0.1 -0.1)">
       <use xlink:href="#DejaVuSans-36"/>
      </g>
     </g>
    </g>
    <g id="ytick_5">
     <g id="line2d_11">
      <g>
       <use style="stroke:#000000;stroke-width:0.8;" x="40.603125" xlink:href="#m52e5a63bb7" y="111.518476"/>
      </g>
     </g>
     <g id="text_12">
      <!-- 8 -->
      <g transform="translate(27.240625 115.317694)scale(0.1 -0.1)">
       <use xlink:href="#DejaVuSans-38"/>
      </g>
     </g>
    </g>
    <g id="ytick_6">
     <g id="line2d_12">
      <g>
       <use style="stroke:#000000;stroke-width:0.8;" x="40.603125" xlink:href="#m52e5a63bb7" y="81.423094"/>
      </g>
     </g>
     <g id="text_13">
      <!-- 10 -->
      <g transform="translate(20.878125 85.222313)scale(0.1 -0.1)">
       <use xlink:href="#DejaVuSans-31"/>
       <use x="63.623047" xlink:href="#DejaVuSans-30"/>
      </g>
     </g>
    </g>
    <g id="ytick_7">
     <g id="line2d_13">
      <g>
       <use style="stroke:#000000;stroke-width:0.8;" x="40.603125" xlink:href="#m52e5a63bb7" y="51.327713"/>
      </g>
     </g>
     <g id="text_14">
      <!-- 12 -->
      <g transform="translate(20.878125 55.126932)scale(0.1 -0.1)">
       <use xlink:href="#DejaVuSans-31"/>
       <use x="63.623047" xlink:href="#DejaVuSans-32"/>
      </g>
     </g>
    </g>
    <g id="ytick_8">
     <g id="line2d_14">
      <g>
       <use style="stroke:#000000;stroke-width:0.8;" x="40.603125" xlink:href="#m52e5a63bb7" y="21.232332"/>
      </g>
     </g>
     <g id="text_15">
      <!-- 14 -->
      <g transform="translate(20.878125 25.031551)scale(0.1 -0.1)">
       <use xlink:href="#DejaVuSans-31"/>
       <use x="63.623047" xlink:href="#DejaVuSans-34"/>
      </g>
     </g>
    </g>
    <g id="text_16">
     <!-- IN [V] -->
     <g transform="translate(14.798438 139.026562)rotate(-90)scale(0.1 -0.1)">
      <defs>
       <path d="M 628 4666 
L 1259 4666 
L 1259 0 
L 628 0 
L 628 4666 
z
" id="DejaVuSans-49" transform="scale(0.015625)"/>
       <path d="M 628 4666 
L 1478 4666 
L 3547 763 
L 3547 4666 
L 4159 4666 
L 4159 0 
L 3309 0 
L 1241 3903 
L 1241 0 
L 628 0 
L 628 4666 
z
" id="DejaVuSans-4e" transform="scale(0.015625)"/>
       <path d="M 550 4863 
L 1875 4863 
L 1875 4416 
L 1125 4416 
L 1125 -397 
L 1875 -397 
L 1875 -844 
L 550 -844 
L 550 4863 
z
" id="DejaVuSans-5b" transform="scale(0.015625)"/>
       <path d="M 1831 0 
L 50 4666 
L 709 4666 
L 2188 738 
L 3669 4666 
L 4325 4666 
L 2547 0 
L 1831 0 
z
" id="DejaVuSans-56" transform="scale(0.015625)"/>
       <path d="M 1947 4863 
L 1947 -844 
L 622 -844 
L 622 -397 
L 1369 -397 
L 1369 4416 
L 622 4416 
L 622 4863 
L 1947 4863 
z
" id="DejaVuSans-5d" transform="scale(0.015625)"/>
      </defs>
      <use xlink:href="#DejaVuSans-49"/>
      <use x="29.492188" xlink:href="#DejaVuSans-4e"/>
      <use x="104.296875" xlink:href="#DejaVuSans-20"/>
      <use x="136.083984" xlink:href="#DejaVuSans-5b"/>
      <use x="175.097656" xlink:href="#DejaVuSans-56"/>
      <use x="243.505859" xlink:href="#DejaVuSans-5d"/>
     </g>
    </g>
   </g>
   <g id="line2d_15">
    <path clip-path="url(#pe4bad09684)" d="M 57.72358 231.812294 
L 61.50362 231.802276 
L 84.47927 231.702865 
L 85.506497 231.361447 
L 86.602206 230.763587 
L 87.800638 229.847696 
L 89.067552 228.587768 
L 90.402947 226.936563 
L 92.080752 224.488078 
L 93.929761 221.380128 
L 95.813011 217.770979 
L 97.798984 213.477532 
L 99.784956 208.653667 
L 101.702447 203.41083 
L 103.448734 197.995655 
L 104.989574 192.509454 
L 106.32497 186.947527 
L 107.45492 181.294095 
L 108.242461 176.223515 
L 108.858797 170.790934 
L 109.303929 164.948942 
L 109.612097 157.769333 
L 109.779022 147.238395 
L 109.805872 136.059785 
L 109.959983 32.834211 
L 110.165429 20.08827 
L 110.370874 18.070094 
L 110.507838 17.9 
L 110.542079 17.917923 
L 110.713283 18.072206 
L 112.322606 20.920026 
L 113.658001 23.519177 
L 116.568479 29.867044 
L 118.280524 34.105714 
L 119.992569 38.823995 
L 121.601892 43.831217 
L 123.176974 49.482095 
L 124.512369 55.128938 
L 125.642319 60.857133 
L 126.635306 67.063165 
L 127.457088 73.644447 
L 128.107665 80.667498 
L 128.552797 87.878163 
L 129.134892 101.783124 
L 129.374579 110.939597 
L 129.408819 113.823173 
L 129.618925 213.491994 
L 129.824371 222.190521 
L 130.029816 223.574326 
L 130.16678 223.651997 
L 130.337984 223.500618 
L 131.29673 221.919755 
L 133.282703 218.177168 
L 135.268675 213.934969 
L 137.32313 208.99307 
L 139.274862 203.695007 
L 140.986907 198.431976 
L 142.527748 193.014188 
L 143.897384 187.390432 
L 145.061575 181.649922 
L 145.849116 176.693567 
L 146.465453 171.45271 
L 146.944825 165.435506 
L 147.252994 158.749901 
L 147.424198 150.023235 
L 147.654519 27.150175 
L 147.859965 19.201839 
L 148.06541 17.97468 
L 148.099651 17.997572 
L 148.202374 17.939107 
L 148.510542 18.369754 
L 148.613265 18.506871 
L 148.989915 19.188998 
L 149.298083 19.725766 
L 149.94866 20.942163 
L 150.530756 22.045016 
L 152.071596 25.166365 
L 153.133065 27.457135 
L 156.454433 35.58541 
L 157.961033 39.867713 
L 159.433392 44.554098 
L 161.008474 50.330591 
L 162.343869 56.141031 
L 163.439578 61.890493 
L 164.398324 68.119334 
L 165.185865 74.707832 
L 165.802201 81.726137 
L 166.247333 89.502176 
L 166.829428 104.218879 
L 167.02859 114.171265 
L 167.224998 212.649685 
L 167.430444 222.07835 
L 167.635889 223.577218 
L 167.841335 223.631381 
L 169.895789 220.132098 
L 174.44983 210.220376 
L 175.750985 206.863936 
L 177.120621 203.022361 
L 178.524498 198.687031 
L 180.339267 192.261944 
L 181.571939 187.122306 
L 182.667648 181.699305 
L 183.455189 176.760454 
L 184.105767 171.195531 
L 184.550898 165.582201 
L 184.859067 159.029491 
L 185.043111 149.704015 
L 185.086917 140.074743 
L 185.285761 28.165204 
L 185.491206 19.36543 
L 185.696652 17.982788 
L 185.833615 17.916826 
L 186.039061 18.134225 
L 186.655397 19.173627 
L 188.161997 21.976765 
L 189.908283 25.516882 
L 192.305147 30.943327 
L 194.428083 36.414308 
L 196.277092 41.856669 
L 197.886415 47.312482 
L 199.256052 52.72121 
L 200.454483 58.324721 
L 201.515952 64.361753 
L 202.406215 70.736417 
L 203.125274 77.482636 
L 203.638888 84.245999 
L 204.118261 93.98088 
L 204.597633 107.866891 
L 204.666115 111.355716 
L 204.866164 212.290462 
L 205.07161 221.973277 
L 205.277055 223.519252 
L 205.44826 223.610334 
L 205.721677 223.285733 
L 206.680423 221.660574 
L 208.289745 218.637536 
L 210.549645 213.836754 
L 212.741064 208.530003 
L 214.795518 202.869466 
L 216.610286 197.1453 
L 218.082645 191.791728 
L 219.418041 186.094174 
L 220.479509 180.627454 
L 221.232809 175.597035 
L 221.814905 170.270547 
L 222.260036 164.110609 
L 222.533964 157.268198 
L 222.670927 149.077633 
L 222.904286 26.82341 
L 223.109732 19.133832 
L 223.315177 17.951765 
L 223.349418 17.985688 
L 223.452141 17.924053 
L 223.691827 18.258772 
L 223.79455 18.38132 
L 224.102718 18.94216 
L 224.273923 19.220406 
L 224.719055 20.046572 
L 225.095705 20.728833 
L 225.883245 22.245993 
L 226.533823 23.527202 
L 228.074664 26.773221 
L 229.06765 28.998599 
L 232.423259 37.558416 
L 234.546195 44.077969 
L 236.189759 50.041137 
L 237.559395 55.95664 
L 238.689345 61.865227 
L 239.61385 67.837365 
L 240.401391 74.338459 
L 241.017727 81.197546 
L 241.462859 88.69538 
L 242.044955 102.987579 
L 242.279387 113.668664 
L 242.487005 213.494192 
L 242.69245 222.194801 
L 242.897896 223.576676 
L 243.0691 223.636958 
L 243.377268 223.248402 
L 244.438736 221.432639 
L 246.8356 216.770006 
L 249.198223 211.453018 
L 250.944509 207.022844 
L 252.964723 201.248923 
L 254.539805 196.115588 
L 255.977923 190.734176 
L 257.210596 185.323078 
L 258.237823 179.862634 
L 258.956882 174.84842 
L 259.538977 169.190155 
L 259.949868 162.962895 
L 260.189555 156.241298 
L 260.317316 146.944808 
L 260.553808 26.265889 
L 260.759253 19.047732 
L 260.964699 17.942612 
L 261.204385 18.04842 
L 261.37559 18.272017 
L 262.026167 19.413454 
L 262.608262 20.468004 
L 264.491512 24.151746 
L 265.655703 26.612408 
L 266.991099 29.626113 
L 269.66189 36.39904 
L 271.682103 42.384392 
L 273.154462 47.417842 
L 274.592581 53.140881 
L 275.825253 59.007719 
L 276.852481 64.987332 
L 277.708503 71.256738 
L 278.427562 78.186089 
L 278.941176 85.310025 
L 279.45479 96.318569 
L 279.865681 109.166327 
L 279.934162 114.064034 
L 280.139662 213.089033 
L 280.345107 222.124656 
L 280.550553 223.56541 
L 280.687516 223.652881 
L 280.858721 223.508953 
L 282.159875 221.320166 
L 284.556739 216.638432 
L 286.85088 211.467303 
L 288.631407 206.946098 
L 290.377694 201.994843 
L 292.192462 196.136143 
L 293.63058 190.758032 
L 294.863253 185.351376 
L 295.89048 179.898407 
L 296.609539 174.89628 
L 297.191634 169.260287 
L 297.602525 163.081086 
L 297.842212 156.487474 
L 297.970564 147.777947 
L 298.215642 25.679872 
L 298.421088 18.967374 
L 298.626533 17.94709 
L 298.831979 18.006495 
L 300.407061 20.747622 
L 304.789897 29.977919 
L 307.323724 36.43355 
L 309.309697 42.313856 
L 310.987501 48.098542 
L 312.322897 53.494301 
L 313.521329 59.254446 
L 314.548556 65.293128 
L 315.404579 71.64883 
L 316.123638 78.724017 
L 316.603011 85.529287 
L 317.116624 96.628302 
L 317.493274 108.173485 
L 317.591717 114.625041 
L 317.800044 214.08323 
L 318.005489 222.294164 
L 318.210935 223.593466 
L 318.382139 223.636653 
L 318.656067 223.297053 
L 319.820257 221.302247 
L 321.703507 217.682876 
L 323.723721 213.29959 
L 325.709694 208.453719 
L 327.627185 203.184867 
L 329.373471 197.737834 
L 330.914312 192.210628 
L 332.249707 186.593269 
L 333.345417 181.04947 
L 334.132957 175.897332 
L 334.749294 170.324351 
L 335.194426 164.198041 
L 335.468353 157.447229 
L 335.615873 148.496163 
L 335.656734 131.667031 
L 335.802539 33.661285 
L 336.007984 20.213293 
L 336.21343 18.092159 
L 336.384634 17.90976 
L 336.59008 18.115527 
L 337.309139 19.33435 
L 339.500557 23.508705 
L 341.691975 28.192543 
L 343.780671 33.208201 
L 345.663921 38.310145 
L 347.375966 43.585831 
L 348.916807 49.063282 
L 350.252203 54.632058 
L 351.416394 60.445331 
L 352.40938 66.546681 
L 353.231162 72.971203 
L 353.881739 79.726125 
L 354.361112 87.0814 
L 354.943207 100.636184 
L 355.217134 110.605511 
L 355.275918 116.562336 
L 355.48525 214.446098 
L 355.690695 222.362805 
L 355.89614 223.611508 
L 356.067345 223.640419 
L 356.307031 223.353833 
L 358.053318 220.296958 
L 359.491436 217.474349 
L 361.066518 214.082103 
L 362.744322 210.107955 
L 364.93574 204.27651 
L 366.853231 198.422691 
L 368.496795 192.611828 
L 369.866431 186.913127 
L 370.996381 181.25113 
L 371.783922 176.166749 
L 372.400259 170.710113 
L 372.84539 164.820312 
L 373.119318 158.655695 
L 373.294242 149.36502 
L 373.33655 139.345073 
L 373.517876 29.860043 
L 373.723322 19.636046 
L 373.928767 18.016654 
L 374.099972 17.921366 
L 374.40814 18.318518 
L 375.264162 19.819952 
L 378.003435 25.191779 
L 380.331817 30.409385 
L 382.420512 35.714036 
L 384.166799 40.739006 
L 385.810362 46.143132 
L 387.248481 51.639511 
L 388.515394 57.374845 
L 389.576862 63.192381 
L 390.501367 69.513231 
L 391.254667 76.211413 
L 391.802522 82.912513 
L 392.247653 91.271697 
L 392.795508 105.87216 
L 392.956893 115.360055 
L 393.192124 216.30065 
L 393.39757 222.659843 
L 393.603015 223.638151 
L 393.739979 223.646151 
L 394.048147 223.255643 
L 394.972652 221.685606 
L 397.574961 216.635994 
L 400.006065 211.133006 
L 400.13267 210.82457 
L 400.13267 210.82457 
" style="fill:none;stroke:#ff0000;stroke-linecap:square;stroke-width:1.5;"/>
   </g>
   <g id="line2d_16">
    <path clip-path="url(#pe4bad09684)" d="M 57.72358 231.9 
L 57.737778 223.580237 
L 57.841381 198.639099 
L 63.112943 161.310827 
L 65.920697 143.94946 
L 68.523006 129.352991 
L 71.193797 115.830524 
L 74.172756 102.445136 
L 75.371188 97.544923 
L 76.501138 93.254409 
L 77.014752 91.37946 
L 77.254438 90.609352 
L 77.562606 89.548497 
L 77.596847 89.520686 
L 77.836534 88.732689 
L 77.870774 88.749431 
L 78.041979 88.20777 
L 78.07622 88.263358 
L 78.247424 87.794276 
L 78.281665 87.865783 
L 78.315906 87.681747 
L 78.350147 87.749598 
L 78.384388 87.578569 
L 78.418629 87.639087 
L 78.589834 87.301461 
L 78.624074 87.331233 
L 78.795279 87.041449 
L 78.898002 86.951282 
L 79.171929 86.589963 
L 79.617061 86.025226 
L 81.911202 83.458034 
L 82.97267 82.456046 
L 83.760211 81.781143 
L 86.910374 79.834529 
L 89.170274 79.23752 
L 95.265156 79.22165 
L 101.839411 80.000146 
L 105.263502 80.838799 
L 107.317956 81.620058 
L 107.968534 82.084709 
L 108.550629 82.780796 
L 109.030002 83.714958 
L 109.372411 84.842897 
L 109.612097 86.402278 
L 109.71482 88.036154 
L 109.787817 94.186487 
L 109.994224 166.934893 
L 110.028465 166.680973 
L 110.096947 166.703888 
L 110.199669 166.953065 
L 110.23391 166.740532 
L 110.302392 166.75563 
L 110.405115 166.962281 
L 110.507838 166.791806 
L 110.61056 166.967843 
L 110.713283 166.817075 
L 110.816006 166.970032 
L 110.918729 166.833274 
L 111.021451 166.968291 
L 111.124174 166.841328 
L 111.226897 166.962996 
L 111.329619 166.844957 
L 111.432342 166.957899 
L 111.535065 166.847085 
L 111.637788 166.953164 
L 111.74051 166.848018 
L 111.843233 166.94858 
L 111.945956 166.84798 
L 112.048679 166.943997 
L 112.151401 166.847134 
L 112.254124 166.939313 
L 112.356847 166.845599 
L 112.459569 166.934455 
L 112.562292 166.843465 
L 112.665015 166.929378 
L 112.767738 166.840797 
L 112.87046 166.924049 
L 112.973183 166.837645 
L 113.075906 166.918449 
L 113.178629 166.834048 
L 113.281351 166.912564 
L 113.384074 166.830034 
L 113.486797 166.906388 
L 113.589519 166.825626 
L 113.692242 166.899917 
L 113.794965 166.82084 
L 113.897688 166.89315 
L 114.00041 166.815692 
L 114.103133 166.886087 
L 114.205856 166.810191 
L 114.308579 166.878728 
L 114.411301 166.804347 
L 114.514024 166.871077 
L 114.616747 166.798167 
L 114.719469 166.863134 
L 114.822192 166.791656 
L 114.924915 166.8549 
L 115.027638 166.784818 
L 115.13036 166.846378 
L 115.233083 166.777657 
L 115.335806 166.837569 
L 115.438529 166.770176 
L 115.541251 166.828474 
L 115.643974 166.762376 
L 115.746697 166.819092 
L 115.849419 166.754259 
L 115.952142 166.809424 
L 116.054865 166.745826 
L 116.157588 166.799469 
L 116.26031 166.737076 
L 116.363033 166.789228 
L 116.465756 166.728009 
L 116.568479 166.778698 
L 116.671201 166.718625 
L 116.773924 166.767877 
L 116.876647 166.708921 
L 116.979369 166.756765 
L 117.082092 166.698896 
L 117.184815 166.745357 
L 117.287538 166.688548 
L 117.321779 166.737586 
L 117.492983 166.677874 
L 117.595706 166.721644 
L 117.76691 166.663128 
L 117.869633 166.705158 
L 118.040838 166.647787 
L 118.14356 166.688117 
L 118.314765 166.63184 
L 118.417488 166.670511 
L 118.588692 166.615275 
L 118.691415 166.652323 
L 118.862619 166.598078 
L 119.033824 166.628748 
L 119.205029 166.575667 
L 119.376233 166.604206 
L 119.547438 166.552209 
L 119.718642 166.578658 
L 119.889847 166.527663 
L 120.061051 166.552059 
L 120.232256 166.501982 
L 120.40346 166.524357 
L 120.574665 166.475115 
L 120.745869 166.495496 
L 120.917074 166.447004 
L 121.088279 166.465412 
L 121.259483 166.417581 
L 121.430688 166.434031 
L 121.601892 166.386771 
L 121.773097 166.401272 
L 121.944301 166.354489 
L 122.115506 166.367043 
L 122.28671 166.320637 
L 122.457915 166.331237 
L 122.629119 166.285106 
L 122.800324 166.293736 
L 122.971529 166.247769 
L 123.142733 166.254404 
L 123.313938 166.208481 
L 123.485142 166.213082 
L 123.656347 166.167075 
L 123.827551 166.169591 
L 124.067238 166.114317 
L 124.238442 166.114239 
L 124.478129 166.057832 
L 124.649333 166.055027 
L 124.889019 165.997137 
L 125.060224 165.991427 
L 125.29991 165.931637 
L 125.471115 165.922785 
L 125.710801 165.860586 
L 125.950488 165.835223 
L 126.190174 165.769403 
L 126.42986 165.737955 
L 126.669547 165.667355 
L 126.909233 165.628608 
L 127.217401 165.533738 
L 127.457088 165.484394 
L 127.765256 165.375692 
L 128.004942 165.299457 
L 128.895206 164.346682 
L 129.203374 163.313336 
L 129.340338 162.074602 
L 129.408819 158.74453 
L 129.467294 77.711523 
L 129.55666 78.521677 
L 129.584684 79.854529 
L 129.653166 79.775732 
L 129.687407 78.651422 
L 129.755889 78.703465 
L 129.79013 79.651632 
L 129.858612 79.601988 
L 129.892853 78.79244 
L 129.961334 78.830058 
L 129.995575 79.520504 
L 130.064057 79.486818 
L 130.098298 78.893586 
L 130.16678 78.920289 
L 130.201021 79.430333 
L 130.269503 79.406598 
L 130.303744 78.965333 
L 130.372225 78.984276 
L 130.406466 79.366356 
L 130.474948 79.349292 
L 130.509189 79.016269 
L 130.577671 79.029742 
L 130.611912 79.320162 
L 130.680394 79.307733 
L 130.714634 79.05252 
L 130.783116 79.062119 
L 130.885839 79.277295 
L 130.988562 79.085564 
L 131.091284 79.255695 
L 131.194007 79.103613 
L 131.29673 79.241011 
L 131.399453 79.118126 
L 131.502175 79.231619 
L 131.604898 79.130393 
L 131.707621 79.226345 
L 131.810344 79.141331 
L 131.913066 79.224338 
L 132.015789 79.151591 
L 132.118512 79.225028 
L 132.221234 79.161705 
L 132.323957 79.227867 
L 132.42668 79.171857 
L 132.529403 79.23256 
L 132.632125 79.182352 
L 132.734848 79.238865 
L 132.837571 79.19335 
L 133.008775 79.249473 
L 133.111498 79.208984 
L 133.282703 79.262319 
L 133.453907 79.230315 
L 133.625112 79.281209 
L 133.796316 79.253803 
L 133.967521 79.302992 
L 134.138725 79.279542 
L 134.30993 79.327487 
L 134.481134 79.307574 
L 134.652339 79.354577 
L 134.823544 79.337912 
L 134.994748 79.384184 
L 135.165953 79.370562 
L 135.337157 79.416256 
L 135.508362 79.405524 
L 135.679566 79.450765 
L 135.850771 79.442803 
L 136.021975 79.487695 
L 136.19318 79.482409 
L 136.364384 79.527046 
L 136.535589 79.524356 
L 136.775275 79.577476 
L 136.94648 79.577818 
L 137.186166 79.631446 
L 137.357371 79.634744 
L 137.597057 79.689014 
L 137.836744 79.705642 
L 138.07643 79.760838 
L 138.316116 79.781521 
L 138.555803 79.837844 
L 138.795489 79.862584 
L 139.103657 79.93248 
L 139.343344 79.961898 
L 139.651512 80.034583 
L 139.95968 80.082695 
L 140.33633 80.173511 
L 140.644498 80.229171 
L 141.021148 80.326223 
L 141.397798 80.406934 
L 141.84293 80.530119 
L 142.288062 80.643084 
L 142.870157 80.822768 
L 143.383771 80.981649 
L 144.171312 81.272808 
L 144.787648 81.527209 
L 145.23278 81.762108 
L 146.088803 82.593096 
L 146.499694 83.267597 
L 146.876344 84.213337 
L 147.184512 85.604144 
L 147.355716 87.38726 
L 147.424198 89.598556 
L 147.48233 168.079538 
L 147.559116 167.718728 
L 147.586037 165.925596 
L 147.654519 166.047639 
L 147.68876 167.534555 
L 147.757242 167.466157 
L 147.791483 166.241338 
L 147.859965 166.318976 
L 147.894206 167.353755 
L 147.962687 167.30792 
L 147.996928 166.445908 
L 148.06541 166.501209 
L 148.099651 167.235303 
L 148.168133 167.201497 
L 148.202374 166.583861 
L 148.270856 166.619233 
L 148.305096 167.149772 
L 148.373578 167.128046 
L 148.407819 166.677616 
L 148.476301 166.701485 
L 148.510542 167.090844 
L 148.579024 167.074716 
L 148.613265 166.740276 
L 148.681746 166.755738 
L 148.715987 167.046079 
L 148.784469 167.03378 
L 148.81871 166.780467 
L 148.887192 166.790996 
L 148.989915 167.002695 
L 149.092637 166.81483 
L 149.19536 166.9798 
L 149.298083 166.831005 
L 149.400806 166.962529 
L 149.503528 166.841656 
L 149.606251 166.949114 
L 149.708974 166.84828 
L 149.811696 166.938322 
L 149.914419 166.851931 
L 150.017142 166.929292 
L 150.119865 166.85336 
L 150.222587 166.921415 
L 150.32531 166.853101 
L 150.428033 166.914263 
L 150.530756 166.851538 
L 150.633478 166.907532 
L 150.736201 166.848946 
L 150.838924 166.901009 
L 150.941646 166.845524 
L 151.044369 166.894542 
L 151.147092 166.841415 
L 151.249815 166.888024 
L 151.421019 166.835046 
L 151.523742 166.87913 
L 151.694946 166.827812 
L 151.797669 166.869898 
L 151.83191 166.823908 
L 152.003115 166.862706 
L 152.174319 166.813391 
L 152.345524 166.850152 
L 152.516728 166.801879 
L 152.687933 166.836844 
L 152.859137 166.78944 
L 153.030342 166.822751 
L 153.201546 166.776113 
L 153.372751 166.807855 
L 153.543956 166.761922 
L 153.71516 166.792147 
L 153.886365 166.746877 
L 154.057569 166.775618 
L 154.228774 166.73098 
L 154.399978 166.758259 
L 154.571183 166.714228 
L 154.742387 166.74006 
L 154.913592 166.696612 
L 155.084796 166.721008 
L 155.256001 166.678118 
L 155.427206 166.701088 
L 155.59841 166.658729 
L 155.769615 166.68028 
L 155.940819 166.638425 
L 156.112024 166.658562 
L 156.283228 166.617179 
L 156.454433 166.635906 
L 156.625637 166.594962 
L 156.796842 166.612283 
L 156.968046 166.571741 
L 157.139251 166.587655 
L 157.310456 166.547476 
L 157.48166 166.561983 
L 157.652865 166.522124 
L 157.824069 166.535221 
L 157.995274 166.495636 
L 158.166478 166.507315 
L 158.337683 166.467954 
L 158.508887 166.478208 
L 158.680092 166.439017 
L 158.851296 166.447831 
L 159.022501 166.408753 
L 159.193706 166.41611 
L 159.433392 166.37057 
L 159.604596 166.376148 
L 159.844283 166.330201 
L 160.015487 166.333957 
L 160.255174 166.287458 
L 160.426378 166.289337 
L 160.666065 166.242125 
L 160.905751 166.233899 
L 161.145437 166.185619 
L 161.385124 166.174393 
L 161.62481 166.124744 
L 161.864496 166.110273 
L 162.104183 166.058895 
L 162.343869 166.040862 
L 162.583556 165.98731 
L 162.823242 165.9653 
L 163.13141 165.897217 
L 163.371096 165.869981 
L 163.679265 165.796421 
L 163.918951 165.762945 
L 164.227119 165.682212 
L 164.466806 165.641009 
L 164.774974 165.55062 
L 165.083142 165.479985 
L 165.459792 165.351427 
L 165.699478 165.258152 
L 166.487019 164.383105 
L 166.692465 163.852612 
L 166.863669 163.054429 
L 166.966392 161.898013 
L 167.02859 158.304444 
L 167.07264 77.756468 
L 167.161379 79.805736 
L 167.190757 78.657375 
L 167.259239 78.70315 
L 167.29348 79.668936 
L 167.361962 79.617403 
L 167.396203 78.785604 
L 167.464685 78.821688 
L 167.498926 79.53403 
L 167.567407 79.499865 
L 167.601648 78.883805 
L 167.67013 78.910257 
L 167.704371 79.442776 
L 167.772853 79.418818 
L 167.807094 78.955219 
L 167.875576 78.974233 
L 167.909817 79.378188 
L 167.978298 79.360946 
L 168.012539 79.006468 
L 168.081021 79.020084 
L 168.115262 79.331476 
L 168.183744 79.318885 
L 168.217985 79.04316 
L 168.286467 79.052906 
L 168.389189 79.287944 
L 168.491912 79.076422 
L 168.594635 79.265282 
L 168.697357 79.094146 
L 168.80008 79.249554 
L 168.902803 79.108322 
L 169.005526 79.23918 
L 169.108248 79.120242 
L 169.210971 79.232978 
L 169.313694 79.130826 
L 169.416417 79.230088 
L 169.519139 79.140731 
L 169.621862 79.229883 
L 169.724585 79.150421 
L 169.827307 79.232033 
L 169.93003 79.16038 
L 170.032753 79.235946 
L 170.135476 79.170517 
L 170.238198 79.241489 
L 170.340921 79.181163 
L 170.443644 79.248484 
L 170.546367 79.192429 
L 170.649089 79.256792 
L 170.751812 79.204391 
L 170.854535 79.26631 
L 170.957257 79.217101 
L 171.05998 79.276959 
L 171.162703 79.230592 
L 171.265426 79.288677 
L 171.299667 79.240032 
L 171.470871 79.301419 
L 171.573594 79.26 
L 171.744798 79.319939 
L 171.847521 79.281434 
L 172.018726 79.340149 
L 172.121448 79.304343 
L 172.292653 79.362002 
L 172.395376 79.328729 
L 172.429617 79.373533 
L 172.600821 79.347989 
L 172.772026 79.404101 
L 172.94323 79.381934 
L 173.114435 79.437126 
L 173.285639 79.418186 
L 173.456844 79.472585 
L 173.628048 79.456752 
L 173.799253 79.510472 
L 173.970457 79.497643 
L 174.141662 79.550791 
L 174.312867 79.540878 
L 174.484071 79.593558 
L 174.655276 79.586485 
L 174.82648 79.638798 
L 174.997685 79.634502 
L 175.168889 79.686547 
L 175.340094 79.684974 
L 175.511298 79.736854 
L 175.682503 79.737959 
L 175.853707 79.789776 
L 176.024912 79.793525 
L 176.264598 79.856833 
L 176.435803 79.863723 
L 176.675489 79.927903 
L 176.846694 79.937915 
L 177.08638 80.003159 
L 177.257585 80.016293 
L 177.497271 80.082809 
L 177.736957 80.113331 
L 177.976644 80.181616 
L 178.21633 80.216807 
L 178.524498 80.302875 
L 178.764185 80.343622 
L 179.072353 80.433853 
L 179.312039 80.480481 
L 179.620207 80.575621 
L 179.928376 80.647957 
L 180.305026 80.770112 
L 180.613194 80.853439 
L 181.058326 81.010265 
L 181.434976 81.132731 
L 181.948589 81.338739 
L 182.325239 81.487333 
L 183.626394 82.485725 
L 184.311212 83.700115 
L 184.722103 85.145864 
L 184.927548 86.735405 
L 185.043111 89.801169 
L 185.076451 95.192224 
L 185.186679 166.821431 
L 185.217279 166.735438 
L 185.285761 166.76079 
L 185.388483 166.863468 
L 185.491206 166.813495 
L 185.593929 166.884852 
L 185.62817 166.837787 
L 185.799374 166.899063 
L 185.970579 166.877806 
L 186.141783 166.911754 
L 186.347229 166.912735 
L 186.586915 166.897533 
L 186.929324 166.89712 
L 187.442938 166.897336 
L 188.298961 166.87744 
L 189.428911 166.850188 
L 190.764306 166.798613 
L 191.894256 166.750873 
L 193.092688 166.68345 
L 194.222638 166.616036 
L 195.558033 166.515573 
L 196.756465 166.415862 
L 198.43427 166.239477 
L 199.769665 166.069201 
L 203.467683 165.194287 
L 203.947056 164.737098 
L 204.289465 164.077589 
L 204.529152 163.072075 
L 204.631874 161.972146 
L 204.666115 161.079048 
L 204.724223 77.729514 
L 204.807451 79.269791 
L 204.934646 79.153258 
L 205.037369 79.230514 
L 205.140091 79.148213 
L 205.242814 79.219467 
L 205.345537 79.148965 
L 205.44826 79.213069 
L 205.579498 79.157792 
L 205.687436 79.199994 
L 205.858641 79.158078 
L 206.029845 79.195828 
L 206.20105 79.157097 
L 206.372255 79.193368 
L 206.543459 79.158831 
L 206.714664 79.194571 
L 206.885868 79.163829 
L 207.057073 79.199205 
L 207.228277 79.171939 
L 207.399482 79.207048 
L 207.570686 79.183015 
L 207.741891 79.217936 
L 207.913095 79.196941 
L 208.0843 79.231727 
L 208.255505 79.213608 
L 208.426709 79.248304 
L 208.597914 79.232923 
L 208.769118 79.26757 
L 208.940323 79.254806 
L 209.111527 79.289443 
L 209.282732 79.279193 
L 209.522418 79.319043 
L 209.693623 79.311688 
L 209.933309 79.352216 
L 210.172995 79.353967 
L 210.412682 79.395352 
L 210.652368 79.400884 
L 210.892055 79.443204 
L 211.131741 79.452406 
L 211.371427 79.495752 
L 211.611114 79.508536 
L 211.919282 79.561575 
L 212.158968 79.578381 
L 212.467136 79.633632 
L 212.775305 79.664365 
L 213.151955 79.7327 
L 213.460123 79.769424 
L 213.836773 79.84218 
L 214.213423 79.897189 
L 214.658555 79.988196 
L 215.069445 80.067621 
L 215.514577 80.151016 
L 216.096673 80.286888 
L 216.610286 80.402427 
L 217.329345 80.595397 
L 217.979923 80.777581 
L 219.041391 81.133855 
L 219.828932 81.439168 
L 220.924641 82.128821 
L 221.575218 82.969283 
L 221.986109 83.841125 
L 222.328518 85.070004 
L 222.533964 86.552708 
L 222.636686 88.455965 
L 222.670927 90.336537 
L 222.729071 168.092943 
L 222.809151 167.744229 
L 222.835805 165.902976 
L 222.904286 166.027744 
L 222.938527 167.552477 
L 223.007009 167.48162 
L 223.04125 166.226089 
L 223.109732 166.305692 
L 223.143973 167.365226 
L 223.212455 167.317763 
L 223.246695 166.43595 
L 223.315177 166.492704 
L 223.349418 167.242493 
L 223.4179 167.207548 
L 223.452141 166.57768 
L 223.520623 166.614056 
L 223.554864 167.153977 
L 223.623345 167.131484 
L 223.657586 166.674145 
L 223.726068 166.69874 
L 223.760309 167.093001 
L 223.828791 167.07634 
L 223.863032 166.738771 
L 223.931514 166.754764 
L 223.965755 167.046813 
L 224.034236 167.033716 
L 224.068477 166.780334 
L 224.136959 166.791239 
L 224.239682 167.002114 
L 224.342405 166.815907 
L 224.445127 166.97853 
L 224.54785 166.832687 
L 224.650573 166.960761 
L 224.753295 166.84378 
L 224.856018 166.946984 
L 224.958741 166.850728 
L 225.061464 166.935931 
L 225.164186 166.854618 
L 225.266909 166.926711 
L 225.369632 166.856224 
L 225.472355 166.918697 
L 225.575077 166.856097 
L 225.6778 166.911446 
L 225.780523 166.854632 
L 225.883245 166.904644 
L 225.985968 166.852114 
L 226.088691 166.898071 
L 226.259895 166.847462 
L 226.4311 166.887219 
L 226.602305 166.84002 
L 226.773509 166.876119 
L 226.944714 166.831141 
L 227.115918 166.864511 
L 227.287123 166.821071 
L 227.458327 166.852252 
L 227.629532 166.809956 
L 227.800736 166.839266 
L 227.971941 166.797883 
L 228.143145 166.82551 
L 228.31435 166.784904 
L 228.485555 166.810962 
L 228.656759 166.771049 
L 228.827964 166.795609 
L 228.999168 166.756334 
L 229.170373 166.779441 
L 229.341577 166.740764 
L 229.512782 166.762449 
L 229.683986 166.72434 
L 229.855191 166.744623 
L 230.026395 166.707055 
L 230.1976 166.725952 
L 230.368805 166.688896 
L 230.540009 166.70642 
L 230.711214 166.66985 
L 230.882418 166.68601 
L 231.053623 166.649896 
L 231.224827 166.6647 
L 231.396032 166.629011 
L 231.567236 166.642464 
L 231.738441 166.607168 
L 231.909645 166.619275 
L 232.08085 166.584334 
L 232.252055 166.595097 
L 232.491741 166.555575 
L 232.662945 166.564724 
L 232.902632 166.525263 
L 233.108077 166.5095 
L 233.347764 166.510602 
L 233.58745 166.471061 
L 233.827136 166.469912 
L 234.066823 166.430161 
L 234.306509 166.426708 
L 234.546195 166.3866 
L 234.785882 166.38077 
L 235.025568 166.34014 
L 235.265255 166.331839 
L 235.539182 166.302418 
L 235.84735 166.252904 
L 236.087036 166.240067 
L 236.395205 166.188646 
L 236.703373 166.163643 
L 237.011541 166.109498 
L 237.319709 166.079444 
L 237.696359 166.011446 
L 238.004527 165.974875 
L 238.381177 165.900299 
L 238.689345 165.855823 
L 239.065995 165.772402 
L 239.442645 165.702834 
L 239.887777 165.588719 
L 240.264427 165.498474 
L 240.846523 165.300643 
L 241.154691 165.126998 
L 241.736786 164.393774 
L 241.976473 163.758014 
L 242.181918 162.480585 
L 242.2504 161.13982 
L 242.279387 159.112145 
L 242.329511 77.733955 
L 242.418523 79.142269 
L 242.521246 79.265434 
L 242.623968 79.131119 
L 242.726691 79.241982 
L 242.829414 79.133793 
L 242.932136 79.229785 
L 243.034859 79.138141 
L 243.137582 79.221536 
L 243.240305 79.141661 
L 243.343027 79.215184 
L 243.44575 79.144122 
L 243.548473 79.209994 
L 243.651196 79.145712 
L 243.753918 79.205652 
L 243.856641 79.147032 
L 243.959364 79.202851 
L 244.062086 79.149121 
L 244.164809 79.201746 
L 244.267532 79.152099 
L 244.370255 79.202181 
L 244.472977 79.156013 
L 244.644182 79.204981 
L 244.815386 79.164731 
L 244.986591 79.211637 
L 245.157796 79.176113 
L 245.329 79.221569 
L 245.500205 79.190197 
L 245.671409 79.234548 
L 245.842614 79.206933 
L 246.013818 79.250409 
L 246.185023 79.226263 
L 246.356227 79.269023 
L 246.527432 79.248127 
L 246.698636 79.290291 
L 246.869841 79.272471 
L 247.041046 79.314136 
L 247.21225 79.299249 
L 247.383455 79.340497 
L 247.554659 79.328422 
L 247.725864 79.36933 
L 247.897068 79.359963 
L 248.068273 79.400601 
L 248.239477 79.393851 
L 248.479164 79.441316 
L 248.650368 79.437602 
L 248.890055 79.485496 
L 249.061259 79.48472 
L 249.300946 79.533144 
L 249.540632 79.543975 
L 249.780318 79.593152 
L 250.020005 79.607906 
L 250.259691 79.65799 
L 250.499377 79.676613 
L 250.807546 79.73815 
L 251.047232 79.761166 
L 251.3554 79.825001 
L 251.663568 79.864315 
L 252.040218 79.943457 
L 252.348386 79.989507 
L 252.725036 80.073668 
L 253.101686 80.14118 
L 253.546818 80.246971 
L 253.99195 80.341538 
L 254.574046 80.493527 
L 255.087659 80.625096 
L 255.806718 80.843305 
L 256.457296 81.053489 
L 258.648714 82.223681 
L 259.299291 83.136751 
L 259.710182 84.111451 
L 260.01835 85.392718 
L 260.223796 87.403789 
L 260.292277 89.655617 
L 260.317316 92.689515 
L 260.365853 168.074681 
L 260.442398 165.978391 
L 260.461036 167.495483 
L 260.553808 166.228645 
L 260.588049 167.366422 
L 260.656531 167.320237 
L 260.690772 166.380523 
L 260.759253 166.439654 
L 260.793494 167.246018 
L 260.861976 167.213389 
L 260.896217 166.535281 
L 260.964699 166.576292 
L 260.99894 167.157669 
L 261.067422 167.135516 
L 261.101662 166.644668 
L 261.170144 166.673031 
L 261.204385 167.098139 
L 261.272867 167.08224 
L 261.307108 166.720047 
L 261.37559 166.739307 
L 261.409831 167.054615 
L 261.478312 167.042425 
L 261.512553 166.770546 
L 261.581035 166.782919 
L 261.615276 167.020692 
L 261.683758 167.010593 
L 261.786481 166.810694 
L 261.889203 166.985813 
L 261.991926 166.829397 
L 262.094649 166.967293 
L 262.197372 166.841993 
L 262.300094 166.953082 
L 262.402817 166.85014 
L 262.50554 166.941818 
L 262.608262 166.855007 
L 262.710985 166.932543 
L 262.813708 166.857428 
L 262.916431 166.924583 
L 263.019153 166.857997 
L 263.121876 166.917461 
L 263.224599 166.857141 
L 263.327322 166.910841 
L 263.430044 166.855166 
L 263.532767 166.904484 
L 263.63549 166.852293 
L 263.738212 166.898222 
L 263.909417 166.847338 
L 264.01214 166.889821 
L 264.046381 166.844454 
L 264.217585 166.88338 
L 264.38879 166.836246 
L 264.559994 166.872227 
L 264.731199 166.826806 
L 264.902403 166.860428 
L 265.073608 166.816294 
L 265.244812 166.847903 
L 265.416017 166.804806 
L 265.587222 166.834609 
L 265.758426 166.7924 
L 265.929631 166.820523 
L 266.100835 166.779111 
L 266.27204 166.805633 
L 266.443244 166.764957 
L 266.614449 166.78993 
L 266.785653 166.749947 
L 266.956858 166.773409 
L 267.128062 166.734085 
L 267.299267 166.75606 
L 267.470472 166.717364 
L 267.641676 166.737875 
L 267.812881 166.699777 
L 267.984085 166.718839 
L 268.15529 166.681311 
L 268.326494 166.698938 
L 268.497699 166.661948 
L 268.668903 166.678151 
L 268.840108 166.641668 
L 269.011312 166.656458 
L 269.182517 166.620445 
L 269.353722 166.633829 
L 269.524926 166.59825 
L 269.696131 166.610235 
L 269.867335 166.57505 
L 270.03854 166.58564 
L 270.278226 166.545829 
L 270.449431 166.554746 
L 270.689117 166.515028 
L 270.894562 166.499008 
L 271.134249 166.499696 
L 271.373935 166.459937 
L 271.613622 166.458304 
L 271.853308 166.418351 
L 272.092994 166.414342 
L 272.332681 166.37404 
L 272.572367 166.367581 
L 272.812053 166.326756 
L 273.05174 166.317749 
L 273.359908 166.268689 
L 273.599594 166.256615 
L 273.907762 166.205802 
L 274.215931 166.181777 
L 274.524099 166.128439 
L 274.832267 166.099463 
L 275.140435 166.042858 
L 275.448603 166.008228 
L 275.825253 165.936071 
L 276.133422 165.893986 
L 276.510072 165.813809 
L 276.886722 165.748109 
L 277.331853 165.639621 
L 277.708503 165.555244 
L 278.222117 165.400522 
L 278.564526 165.27031 
L 278.872694 165.076419 
L 279.420549 164.340915 
L 279.728717 163.310471 
L 279.865681 162.059168 
L 279.934162 158.30302 
L 279.988 77.981142 
L 280.071327 78.639876 
L 280.105421 79.754577 
L 280.173903 79.6874 
L 280.208144 78.73526 
L 280.276625 78.77775 
L 280.310866 79.581996 
L 280.379348 79.539925 
L 280.413589 78.851305 
L 280.482071 78.882668 
L 280.516312 79.470875 
L 280.584794 79.442303 
L 280.619034 78.935891 
L 280.687516 78.958339 
L 280.721757 79.394323 
L 280.790239 79.374125 
L 280.82448 78.99628 
L 280.892962 79.012256 
L 280.927203 79.339821 
L 280.995684 79.325248 
L 281.029925 79.039256 
L 281.098407 79.050629 
L 281.132648 79.300325 
L 281.20113 79.289669 
L 281.303853 79.077947 
L 281.406575 79.263506 
L 281.509298 79.097734 
L 281.612021 79.244962 
L 281.714744 79.113124 
L 281.817466 79.232487 
L 281.920189 79.125698 
L 282.022912 79.224695 
L 282.125634 79.136543 
L 282.228357 79.220584 
L 282.33108 79.146431 
L 282.433803 79.219446 
L 282.536525 79.15592 
L 282.639248 79.220707 
L 282.741971 79.165408 
L 282.844694 79.224 
L 282.947416 79.175118 
L 283.050139 79.229031 
L 283.08438 79.18183 
L 283.255584 79.235588 
L 283.358307 79.196007 
L 283.392548 79.240728 
L 283.563753 79.20741 
L 283.734957 79.256007 
L 283.906162 79.228061 
L 284.077366 79.274444 
L 284.248571 79.250909 
L 284.419775 79.295771 
L 284.59098 79.276035 
L 284.762184 79.319809 
L 284.933389 79.303474 
L 285.104594 79.346442 
L 285.275798 79.333234 
L 285.447003 79.375592 
L 285.618207 79.365315 
L 285.789412 79.407208 
L 285.960616 79.399717 
L 286.131821 79.441259 
L 286.303025 79.436439 
L 286.542712 79.485312 
L 286.713916 79.48358 
L 286.953603 79.532846 
L 287.193289 79.542847 
L 287.432975 79.592729 
L 287.672662 79.606781 
L 287.912348 79.657448 
L 288.152034 79.675483 
L 288.460203 79.737478 
L 288.699889 79.760022 
L 289.008057 79.824202 
L 289.316225 79.863144 
L 289.624394 79.930157 
L 289.932562 79.975254 
L 290.309212 80.058991 
L 290.685862 80.125476 
L 291.130994 80.230472 
L 291.576125 80.323864 
L 292.158221 80.47438 
L 292.671834 80.604456 
L 293.459375 80.841352 
L 294.144194 81.067693 
L 294.931734 81.36201 
L 296.198648 82.117902 
L 296.678021 82.68044 
L 297.123153 83.470104 
L 297.534044 84.693854 
L 297.77373 86.078872 
L 297.910694 88.026984 
L 297.970564 91.57122 
L 298.019156 168.125631 
L 298.107407 166.280932 
L 298.122543 167.226602 
L 298.215642 166.451188 
L 298.249883 167.168056 
L 298.318365 167.145655 
L 298.352606 166.54795 
L 298.421088 166.587423 
L 298.455329 167.106966 
L 298.523811 167.089591 
L 298.558051 166.652195 
L 298.626533 166.679828 
L 298.660774 167.062554 
L 298.729256 167.05114 
L 298.763497 166.726099 
L 298.831979 166.745332 
L 298.86622 167.03152 
L 298.934701 167.022954 
L 298.968942 166.777128 
L 299.037424 166.790046 
L 299.140147 167.000686 
L 299.24287 166.818789 
L 299.345592 166.980493 
L 299.448315 166.835751 
L 299.551038 166.964418 
L 299.653761 166.847142 
L 299.756483 166.952052 
L 299.859206 166.854538 
L 299.961929 166.942207 
L 300.064651 166.858976 
L 300.167374 166.934046 
L 300.270097 166.86119 
L 300.37282 166.926979 
L 300.475542 166.86171 
L 300.578265 166.92059 
L 300.680988 166.860915 
L 300.783711 166.914585 
L 300.886433 166.859077 
L 300.989156 166.908756 
L 301.091879 166.856394 
L 301.194601 166.902959 
L 301.365806 166.851747 
L 301.468529 166.895106 
L 301.50277 166.849032 
L 301.673974 166.889037 
L 301.845179 166.841275 
L 302.016383 166.87845 
L 302.187588 166.832309 
L 302.358792 166.867175 
L 302.529997 166.82228 
L 302.701201 166.855144 
L 302.872406 166.811278 
L 303.043611 166.842326 
L 303.214815 166.799358 
L 303.38602 166.828705 
L 303.557224 166.786554 
L 303.728429 166.814274 
L 303.899633 166.772886 
L 304.070838 166.799027 
L 304.242042 166.758363 
L 304.413247 166.782961 
L 304.584451 166.74299 
L 304.755656 166.766071 
L 304.926861 166.726764 
L 305.098065 166.748349 
L 305.26927 166.709677 
L 305.440474 166.729784 
L 305.611679 166.691718 
L 305.782883 166.710363 
L 305.954088 166.672873 
L 306.125292 166.690068 
L 306.296497 166.653122 
L 306.467701 166.668879 
L 306.638906 166.632443 
L 306.810111 166.646772 
L 306.981315 166.610809 
L 307.15252 166.623718 
L 307.323724 166.588188 
L 307.494929 166.599683 
L 307.700374 166.584776 
L 307.940061 166.544869 
L 308.111265 166.553827 
L 308.350951 166.514027 
L 308.556397 166.497985 
L 308.796083 166.49868 
L 309.03577 166.45886 
L 309.275456 166.457215 
L 309.515142 166.417214 
L 309.754829 166.413175 
L 309.994515 166.372837 
L 310.234201 166.366331 
L 310.473888 166.325477 
L 310.713574 166.316409 
L 311.021742 166.267314 
L 311.261429 166.25516 
L 311.569597 166.204317 
L 311.877765 166.180176 
L 312.185933 166.126807 
L 312.494101 166.097692 
L 312.836511 166.04811 
L 313.213161 165.978485 
L 313.521329 165.939374 
L 313.897979 165.862602 
L 314.274629 165.80151 
L 314.719761 165.698962 
L 315.096411 165.621275 
L 315.610024 165.477838 
L 316.020915 165.352475 
L 316.329083 165.2144 
L 316.979661 164.50779 
L 317.219347 163.961079 
L 317.459033 162.742678 
L 317.566036 160.562216 
L 317.591717 157.804013 
L 317.635466 78.537694 
L 317.707086 79.239206 
L 317.868526 79.178186 
L 318.03973 79.203664 
L 318.210935 79.166839 
L 318.382139 79.197383 
L 318.553344 79.164322 
L 318.724548 79.193684 
L 318.895753 79.162484 
L 319.066957 79.190282 
L 319.238162 79.161481 
L 319.409367 79.189332 
L 319.580571 79.163804 
L 319.751776 79.191864 
L 319.92298 79.16941 
L 320.094185 79.197689 
L 320.265389 79.178141 
L 320.436594 79.206633 
L 320.607798 79.189844 
L 320.847485 79.221279 
L 321.018689 79.207627 
L 321.258376 79.239994 
L 321.498062 79.233296 
L 321.737748 79.26674 
L 321.977435 79.264041 
L 322.217121 79.298569 
L 322.456807 79.299678 
L 322.696494 79.335315 
L 322.93618 79.340076 
L 323.244348 79.383183 
L 323.484035 79.391961 
L 323.792203 79.437212 
L 324.100371 79.457543 
L 324.408539 79.505312 
L 324.716707 79.530764 
L 325.093357 79.590118 
L 325.470007 79.630783 
L 325.915139 79.704869 
L 326.291789 79.753547 
L 326.771162 79.832049 
L 327.284776 79.929495 
L 327.798389 80.018637 
L 328.448967 80.156892 
L 329.031062 80.279571 
L 329.887085 80.493233 
L 330.674626 80.705426 
L 333.824789 82.092069 
L 334.475367 82.9038 
L 334.920498 83.825937 
L 335.262907 85.043675 
L 335.468353 86.496562 
L 335.571076 88.301226 
L 335.633468 93.978782 
L 335.648796 118.294837 
L 335.698888 166.829167 
L 335.768298 166.791585 
L 335.939503 166.811891 
L 336.110707 166.864894 
L 336.281912 166.860292 
L 336.453116 166.899044 
L 336.624321 166.885453 
L 336.795525 166.914362 
L 336.96673 166.89301 
L 337.137934 166.914682 
L 337.34338 166.913159 
L 337.583066 166.8895 
L 337.822753 166.907786 
L 338.062439 166.883907 
L 338.302125 166.900086 
L 338.541812 166.876068 
L 338.781498 166.890268 
L 339.021184 166.866159 
L 339.260871 166.878487 
L 339.500557 166.854314 
L 339.740244 166.864861 
L 339.97993 166.840634 
L 340.219616 166.849477 
L 340.459303 166.825195 
L 340.698989 166.832398 
L 340.938675 166.808049 
L 341.178362 166.813665 
L 341.48653 166.786406 
L 341.794698 166.787186 
L 342.102866 166.75947 
L 342.411034 166.758023 
L 342.719203 166.729791 
L 343.027371 166.726149 
L 343.335539 166.697323 
L 343.643707 166.691498 
L 344.020357 166.657876 
L 344.397007 166.645222 
L 344.773657 166.610185 
L 345.150307 166.594369 
L 345.595439 166.552657 
L 346.040571 166.527851 
L 346.485703 166.483211 
L 346.930834 166.45357 
L 347.444448 166.399025 
L 347.958062 166.356685 
L 348.540157 166.28869 
L 349.053771 166.237367 
L 349.704348 166.150826 
L 350.286444 166.077646 
L 351.005503 165.962654 
L 351.65608 165.855101 
L 352.580584 165.659472 
L 353.299644 165.48008 
L 354.326871 164.95482 
L 354.772003 164.274578 
L 355.011689 163.521995 
L 355.182894 162.169393 
L 355.255655 159.273678 
L 355.275918 152.756955 
L 355.313895 78.745788 
L 355.388828 79.487806 
L 355.416768 78.960537 
L 355.48525 78.971245 
L 355.51949 79.419437 
L 355.587972 79.395462 
L 355.622213 78.996459 
L 355.690695 79.009059 
L 355.724936 79.358187 
L 355.793418 79.343269 
L 355.827659 79.032142 
L 355.89614 79.04235 
L 355.930381 79.318514 
L 355.998863 79.308114 
L 356.101586 79.067627 
L 356.204309 79.28273 
L 356.307031 79.086056 
L 356.409754 79.263807 
L 356.512477 79.099321 
L 356.6152 79.24941 
L 356.717922 79.108821 
L 356.820645 79.238499 
L 356.923368 79.116373 
L 357.02609 79.231138 
L 357.128813 79.123213 
L 357.231536 79.226732 
L 357.334259 79.129841 
L 357.436981 79.224772 
L 357.539704 79.136608 
L 357.642427 79.22488 
L 357.74515 79.143757 
L 357.847872 79.227061 
L 357.950595 79.151779 
L 358.053318 79.230534 
L 358.15604 79.160121 
L 358.258763 79.235423 
L 358.361486 79.169211 
L 358.464209 79.241617 
L 358.566931 79.179097 
L 358.669654 79.249025 
L 358.772377 79.189812 
L 358.8751 79.257577 
L 358.977822 79.201373 
L 359.080545 79.267216 
L 359.183268 79.213791 
L 359.28599 79.277898 
L 359.388713 79.227068 
L 359.491436 79.289589 
L 359.594159 79.241206 
L 359.696881 79.302259 
L 359.799604 79.256201 
L 359.902327 79.315886 
L 359.936568 79.266672 
L 360.107772 79.330451 
L 360.210495 79.288748 
L 360.3817 79.351302 
L 360.484422 79.312326 
L 360.655627 79.373762 
L 360.75835 79.337397 
L 360.929554 79.397811 
L 361.032277 79.363954 
L 361.203481 79.423431 
L 361.306204 79.391992 
L 361.477409 79.450613 
L 361.648613 79.429119 
L 361.819818 79.486778 
L 361.991022 79.468562 
L 362.162227 79.525373 
L 362.333431 79.510334 
L 362.504636 79.566409 
L 362.67584 79.554454 
L 362.847045 79.609904 
L 363.01825 79.600954 
L 363.189454 79.655888 
L 363.360659 79.649874 
L 363.531863 79.704401 
L 363.703068 79.701263 
L 363.874272 79.755494 
L 364.045477 79.755183 
L 364.216681 79.809229 
L 364.387886 79.811704 
L 364.55909 79.86568 
L 364.730295 79.870911 
L 364.969981 79.937128 
L 365.141186 79.945643 
L 365.380872 80.01279 
L 365.552077 80.02458 
L 365.791763 80.092877 
L 365.962968 80.107954 
L 366.202654 80.177638 
L 366.44234 80.211196 
L 366.682027 80.282829 
L 366.921713 80.321365 
L 367.229881 80.412054 
L 367.469568 80.456559 
L 367.777736 80.551882 
L 368.017422 80.602771 
L 368.32559 80.703619 
L 368.633759 80.782261 
L 369.010409 80.912622 
L 369.318577 81.003567 
L 369.763709 81.172394 
L 370.140359 81.306823 
L 370.653972 81.530486 
L 370.96214 81.676972 
L 372.05785 82.737045 
L 372.674186 84.010382 
L 373.016595 85.402901 
L 373.22204 87.440497 
L 373.301681 90.706423 
L 373.327717 97.895119 
L 373.449394 166.817648 
L 373.552117 166.774732 
L 373.65484 166.857812 
L 373.689081 166.810417 
L 373.860285 166.879058 
L 374.03149 166.865645 
L 374.202694 166.900113 
L 374.442381 166.897341 
L 374.853272 166.902867 
L 377.524062 166.855583 
L 378.448567 166.820491 
L 379.475794 166.779073 
L 380.776949 166.715657 
L 382.523235 166.611592 
L 389.782308 165.766898 
L 391.528594 165.296698 
L 392.007967 164.957691 
L 392.384617 164.429582 
L 392.658544 163.684761 
L 392.829749 162.65036 
L 392.932472 160.155597 
L 392.956893 156.31997 
L 392.994934 78.869955 
L 393.058945 79.097903 
L 393.089402 79.338052 
L 393.123642 79.089648 
L 393.157883 79.318647 
L 393.260606 79.088517 
L 393.363329 79.284007 
L 393.466052 79.096873 
L 393.568774 79.265008 
L 393.671497 79.106179 
L 393.77422 79.252045 
L 393.876942 79.113585 
L 393.979665 79.242224 
L 394.082388 79.119028 
L 394.185111 79.234408 
L 394.287833 79.122917 
L 394.390556 79.227994 
L 394.493279 79.125867 
L 394.596002 79.223349 
L 394.698724 79.129142 
L 394.801447 79.22073 
L 394.90417 79.133041 
L 395.006892 79.219891 
L 395.109615 79.137686 
L 395.212338 79.220645 
L 395.315061 79.143157 
L 395.417783 79.223185 
L 395.520506 79.149864 
L 395.623229 79.226702 
L 395.725952 79.157083 
L 395.828674 79.231485 
L 395.931397 79.165224 
L 396.03412 79.237452 
L 396.136842 79.174292 
L 396.239565 79.244549 
L 396.342288 79.184284 
L 396.445011 79.252731 
L 396.547733 79.195193 
L 396.650456 79.261962 
L 396.753179 79.207013 
L 396.855902 79.272209 
L 396.958624 79.219733 
L 397.061347 79.283447 
L 397.16407 79.233344 
L 397.266792 79.295654 
L 397.369515 79.247835 
L 397.472238 79.308811 
L 397.574961 79.263199 
L 397.746165 79.327804 
L 397.848888 79.285024 
L 398.020092 79.348426 
L 398.122815 79.308367 
L 398.29402 79.370651 
L 398.396742 79.333213 
L 398.567947 79.39446 
L 398.67067 79.359551 
L 398.841874 79.41984 
L 398.944597 79.387373 
L 399.115802 79.446779 
L 399.218524 79.416678 
L 399.252765 79.460832 
L 399.42397 79.439628 
L 399.595174 79.497664 
L 399.766379 79.479735 
L 399.937583 79.536928 
L 400.108788 79.522176 
L 400.13267 79.560287 
L 400.13267 79.560287 
" style="fill:none;stroke:#0000ff;stroke-linecap:square;stroke-width:1.5;"/>
   </g>
   <g id="patch_3">
    <path d="M 40.603125 242.6 
L 40.603125 7.2 
" style="fill:none;stroke:#000000;stroke-linecap:square;stroke-linejoin:miter;stroke-width:0.8;"/>
   </g>
   <g id="patch_4">
    <path d="M 417.253125 242.6 
L 417.253125 7.2 
" style="fill:none;stroke:#000000;stroke-linecap:square;stroke-linejoin:miter;stroke-width:0.8;"/>
   </g>
   <g id="patch_5">
    <path d="M 40.603125 242.6 
L 417.253125 242.6 
" style="fill:none;stroke:#000000;stroke-linecap:square;stroke-linejoin:miter;stroke-width:0.8;"/>
   </g>
   <g id="patch_6">
    <path d="M 40.603125 7.2 
L 417.253125 7.2 
" style="fill:none;stroke:#000000;stroke-linecap:square;stroke-linejoin:miter;stroke-width:0.8;"/>
   </g>
   <g id="legend_1">
    <g id="patch_7">
     <path d="M 46.369625 89.59 
L 169.182125 89.59 
Q 171.182125 89.59 171.182125 87.59 
L 171.182125 59.23375 
Q 171.182125 57.23375 169.182125 57.23375 
L 46.369625 57.23375 
Q 44.369625 57.23375 44.369625 59.23375 
L 44.369625 87.59 
Q 44.369625 89.59 46.369625 89.59 
z
" style="fill:#ffffff;opacity:0.8;stroke:#cccccc;stroke-linejoin:miter;"/>
    </g>
    <g id="line2d_17">
     <path d="M 48.369625 65.332187 
L 68.369625 65.332187 
" style="fill:none;stroke:#ff0000;stroke-linecap:square;stroke-width:1.5;"/>
    </g>
    <g id="line2d_18"/>
    <g id="text_17">
     <!-- Vin [V] -->
     <g transform="translate(76.369625 68.832187)scale(0.1 -0.1)">
      <defs>
       <path d="M 3513 2113 
L 3513 0 
L 2938 0 
L 2938 2094 
Q 2938 2591 2744 2837 
Q 2550 3084 2163 3084 
Q 1697 3084 1428 2787 
Q 1159 2491 1159 1978 
L 1159 0 
L 581 0 
L 581 3500 
L 1159 3500 
L 1159 2956 
Q 1366 3272 1645 3428 
Q 1925 3584 2291 3584 
Q 2894 3584 3203 3211 
Q 3513 2838 3513 2113 
z
" id="DejaVuSans-6e" transform="scale(0.015625)"/>
      </defs>
      <use xlink:href="#DejaVuSans-56"/>
      <use x="66.158203" xlink:href="#DejaVuSans-69"/>
      <use x="93.941406" xlink:href="#DejaVuSans-6e"/>
      <use x="157.320312" xlink:href="#DejaVuSans-20"/>
      <use x="189.107422" xlink:href="#DejaVuSans-5b"/>
      <use x="228.121094" xlink:href="#DejaVuSans-56"/>
      <use x="296.529297" xlink:href="#DejaVuSans-5d"/>
     </g>
    </g>
    <g id="line2d_19">
     <path d="M 48.369625 80.010312 
L 68.369625 80.010312 
" style="fill:none;stroke:#0000ff;stroke-linecap:square;stroke-width:1.5;"/>
    </g>
    <g id="line2d_20"/>
    <g id="text_18">
     <!-- Vout (R2=100 k) -->
     <g transform="translate(76.369625 83.510312)scale(0.1 -0.1)">
      <defs>
       <path d="M 1959 3097 
Q 1497 3097 1228 2736 
Q 959 2375 959 1747 
Q 959 1119 1226 758 
Q 1494 397 1959 397 
Q 2419 397 2687 759 
Q 2956 1122 2956 1747 
Q 2956 2369 2687 2733 
Q 2419 3097 1959 3097 
z
M 1959 3584 
Q 2709 3584 3137 3096 
Q 3566 2609 3566 1747 
Q 3566 888 3137 398 
Q 2709 -91 1959 -91 
Q 1206 -91 779 398 
Q 353 888 353 1747 
Q 353 2609 779 3096 
Q 1206 3584 1959 3584 
z
" id="DejaVuSans-6f" transform="scale(0.015625)"/>
       <path d="M 544 1381 
L 544 3500 
L 1119 3500 
L 1119 1403 
Q 1119 906 1312 657 
Q 1506 409 1894 409 
Q 2359 409 2629 706 
Q 2900 1003 2900 1516 
L 2900 3500 
L 3475 3500 
L 3475 0 
L 2900 0 
L 2900 538 
Q 2691 219 2414 64 
Q 2138 -91 1772 -91 
Q 1169 -91 856 284 
Q 544 659 544 1381 
z
M 1991 3584 
L 1991 3584 
z
" id="DejaVuSans-75" transform="scale(0.015625)"/>
       <path d="M 2841 2188 
Q 3044 2119 3236 1894 
Q 3428 1669 3622 1275 
L 4263 0 
L 3584 0 
L 2988 1197 
Q 2756 1666 2539 1819 
Q 2322 1972 1947 1972 
L 1259 1972 
L 1259 0 
L 628 0 
L 628 4666 
L 2053 4666 
Q 2853 4666 3247 4331 
Q 3641 3997 3641 3322 
Q 3641 2881 3436 2590 
Q 3231 2300 2841 2188 
z
M 1259 4147 
L 1259 2491 
L 2053 2491 
Q 2509 2491 2742 2702 
Q 2975 2913 2975 3322 
Q 2975 3731 2742 3939 
Q 2509 4147 2053 4147 
L 1259 4147 
z
" id="DejaVuSans-52" transform="scale(0.015625)"/>
       <path d="M 678 2906 
L 4684 2906 
L 4684 2381 
L 678 2381 
L 678 2906 
z
M 678 1631 
L 4684 1631 
L 4684 1100 
L 678 1100 
L 678 1631 
z
" id="DejaVuSans-3d" transform="scale(0.015625)"/>
       <path d="M 581 4863 
L 1159 4863 
L 1159 1991 
L 2875 3500 
L 3609 3500 
L 1753 1863 
L 3688 0 
L 2938 0 
L 1159 1709 
L 1159 0 
L 581 0 
L 581 4863 
z
" id="DejaVuSans-6b" transform="scale(0.015625)"/>
       <path d="M 4647 556 
L 4647 0 
L 2772 0 
L 2772 556 
Q 3325 859 3634 1378 
Q 3944 1897 3944 2528 
Q 3944 3278 3531 3731 
Q 3119 4184 2444 4184 
Q 1769 4184 1355 3729 
Q 941 3275 941 2528 
Q 941 1897 1250 1378 
Q 1563 859 2119 556 
L 2119 0 
L 244 0 
L 244 556 
L 1241 556 
Q 747 991 519 1456 
Q 294 1922 294 2497 
Q 294 3491 894 4106 
Q 1491 4722 2444 4722 
Q 3391 4722 3994 4106 
Q 4594 3494 4594 2528 
Q 4594 1922 4372 1459 
Q 4150 997 3647 556 
L 4647 556 
z
" id="DejaVuSans-3a9" transform="scale(0.015625)"/>
      </defs>
      <use xlink:href="#DejaVuSans-56"/>
      <use x="60.658203" xlink:href="#DejaVuSans-6f"/>
      <use x="121.839844" xlink:href="#DejaVuSans-75"/>
      <use x="185.21875" xlink:href="#DejaVuSans-74"/>
      <use x="224.427734" xlink:href="#DejaVuSans-20"/>
      <use x="256.214844" xlink:href="#DejaVuSans-28"/>
      <use x="295.228516" xlink:href="#DejaVuSans-52"/>
      <use x="364.710938" xlink:href="#DejaVuSans-32"/>
      <use x="428.333984" xlink:href="#DejaVuSans-3d"/>
      <use x="512.123047" xlink:href="#DejaVuSans-31"/>
      <use x="575.746094" xlink:href="#DejaVuSans-30"/>
      <use x="639.369141" xlink:href="#DejaVuSans-30"/>
      <use x="702.992188" xlink:href="#DejaVuSans-20"/>
      <use x="734.779297" xlink:href="#DejaVuSans-6b"/>
      <use x="792.689453" xlink:href="#DejaVuSans-3a9"/>
      <use x="869.105469" xlink:href="#DejaVuSans-29"/>
     </g>
    </g>
   </g>
  </g>
 </g>
 <defs>
  <clipPath id="pe4bad09684">
   <rect height="235.4" width="376.65" x="40.603125" y="7.2"/>
  </clipPath>
 </defs>
</svg>
