<?xml version="1.0" encoding="utf-8" standalone="no"?>
<!DOCTYPE svg PUBLIC "-//W3C//DTD SVG 1.1//EN"
  "http://www.w3.org/Graphics/SVG/1.1/DTD/svg11.dtd">
<svg height="280.15625pt" version="1.1" viewBox="0 0 422.698321 280.15625" width="422.698321pt" xmlns="http://www.w3.org/2000/svg" xmlns:xlink="http://www.w3.org/1999/xlink">
 <metadata>
  <rdf:RDF xmlns:cc="http://creativecommons.org/ns#" xmlns:dc="http://purl.org/dc/elements/1.1/" xmlns:rdf="http://www.w3.org/1999/02/22-rdf-syntax-ns#">
   <cc:Work>
    <dc:type rdf:resource="http://purl.org/dc/dcmitype/StillImage"/>
    <dc:date>2021-06-17T14:34:58.107286</dc:date>
    <dc:format>image/svg+xml</dc:format>
    <dc:creator>
     <cc:Agent>
      <dc:title>Matplotlib v3.4.2, https://matplotlib.org/</dc:title>
     </cc:Agent>
    </dc:creator>
   </cc:Work>
  </rdf:RDF>
 </metadata>
 <defs>
  <style type="text/css">*{stroke-linecap:butt;stroke-linejoin:round;}</style>
 </defs>
 <g id="figure_1">
  <g id="patch_1">
   <path d="M 0 280.15625 
L 422.698321 280.15625 
L 422.698321 0 
L 0 0 
z
" style="fill:none;"/>
  </g>
  <g id="axes_1">
   <g id="patch_2">
    <path d="M 42.620313 242.6 
L 414.925994 242.6 
L 414.925994 7.2 
L 42.620313 7.2 
z
" style="fill:#ffffff;"/>
   </g>
   <g id="matplotlib.axis_1">
    <g id="xtick_1">
     <g id="line2d_1">
      <defs>
       <path d="M 0 0 
L 0 3.5 
" id="me4ebf92096" style="stroke:#000000;stroke-width:0.8;"/>
      </defs>
      <g>
       <use style="stroke:#000000;stroke-width:0.8;" x="59.542307" xlink:href="#me4ebf92096" y="242.6"/>
      </g>
     </g>
     <g id="text_1">
      <!-- 98.00 -->
      <g transform="translate(45.228244 257.198437)scale(0.1 -0.1)">
       <defs>
        <path d="M 703 97 
L 703 672 
Q 941 559 1184 500 
Q 1428 441 1663 441 
Q 2288 441 2617 861 
Q 2947 1281 2994 2138 
Q 2813 1869 2534 1725 
Q 2256 1581 1919 1581 
Q 1219 1581 811 2004 
Q 403 2428 403 3163 
Q 403 3881 828 4315 
Q 1253 4750 1959 4750 
Q 2769 4750 3195 4129 
Q 3622 3509 3622 2328 
Q 3622 1225 3098 567 
Q 2575 -91 1691 -91 
Q 1453 -91 1209 -44 
Q 966 3 703 97 
z
M 1959 2075 
Q 2384 2075 2632 2365 
Q 2881 2656 2881 3163 
Q 2881 3666 2632 3958 
Q 2384 4250 1959 4250 
Q 1534 4250 1286 3958 
Q 1038 3666 1038 3163 
Q 1038 2656 1286 2365 
Q 1534 2075 1959 2075 
z
" id="DejaVuSans-39" transform="scale(0.015625)"/>
        <path d="M 2034 2216 
Q 1584 2216 1326 1975 
Q 1069 1734 1069 1313 
Q 1069 891 1326 650 
Q 1584 409 2034 409 
Q 2484 409 2743 651 
Q 3003 894 3003 1313 
Q 3003 1734 2745 1975 
Q 2488 2216 2034 2216 
z
M 1403 2484 
Q 997 2584 770 2862 
Q 544 3141 544 3541 
Q 544 4100 942 4425 
Q 1341 4750 2034 4750 
Q 2731 4750 3128 4425 
Q 3525 4100 3525 3541 
Q 3525 3141 3298 2862 
Q 3072 2584 2669 2484 
Q 3125 2378 3379 2068 
Q 3634 1759 3634 1313 
Q 3634 634 3220 271 
Q 2806 -91 2034 -91 
Q 1263 -91 848 271 
Q 434 634 434 1313 
Q 434 1759 690 2068 
Q 947 2378 1403 2484 
z
M 1172 3481 
Q 1172 3119 1398 2916 
Q 1625 2713 2034 2713 
Q 2441 2713 2670 2916 
Q 2900 3119 2900 3481 
Q 2900 3844 2670 4047 
Q 2441 4250 2034 4250 
Q 1625 4250 1398 4047 
Q 1172 3844 1172 3481 
z
" id="DejaVuSans-38" transform="scale(0.015625)"/>
        <path d="M 684 794 
L 1344 794 
L 1344 0 
L 684 0 
L 684 794 
z
" id="DejaVuSans-2e" transform="scale(0.015625)"/>
        <path d="M 2034 4250 
Q 1547 4250 1301 3770 
Q 1056 3291 1056 2328 
Q 1056 1369 1301 889 
Q 1547 409 2034 409 
Q 2525 409 2770 889 
Q 3016 1369 3016 2328 
Q 3016 3291 2770 3770 
Q 2525 4250 2034 4250 
z
M 2034 4750 
Q 2819 4750 3233 4129 
Q 3647 3509 3647 2328 
Q 3647 1150 3233 529 
Q 2819 -91 2034 -91 
Q 1250 -91 836 529 
Q 422 1150 422 2328 
Q 422 3509 836 4129 
Q 1250 4750 2034 4750 
z
" id="DejaVuSans-30" transform="scale(0.015625)"/>
       </defs>
       <use xlink:href="#DejaVuSans-39"/>
       <use x="63.623047" xlink:href="#DejaVuSans-38"/>
       <use x="127.246094" xlink:href="#DejaVuSans-2e"/>
       <use x="159.033203" xlink:href="#DejaVuSans-30"/>
       <use x="222.65625" xlink:href="#DejaVuSans-30"/>
      </g>
     </g>
    </g>
    <g id="xtick_2">
     <g id="line2d_2">
      <g>
       <use style="stroke:#000000;stroke-width:0.8;" x="101.849895" xlink:href="#me4ebf92096" y="242.6"/>
      </g>
     </g>
     <g id="text_2">
      <!-- 98.25 -->
      <g transform="translate(87.535832 257.198437)scale(0.1 -0.1)">
       <defs>
        <path d="M 1228 531 
L 3431 531 
L 3431 0 
L 469 0 
L 469 531 
Q 828 903 1448 1529 
Q 2069 2156 2228 2338 
Q 2531 2678 2651 2914 
Q 2772 3150 2772 3378 
Q 2772 3750 2511 3984 
Q 2250 4219 1831 4219 
Q 1534 4219 1204 4116 
Q 875 4013 500 3803 
L 500 4441 
Q 881 4594 1212 4672 
Q 1544 4750 1819 4750 
Q 2544 4750 2975 4387 
Q 3406 4025 3406 3419 
Q 3406 3131 3298 2873 
Q 3191 2616 2906 2266 
Q 2828 2175 2409 1742 
Q 1991 1309 1228 531 
z
" id="DejaVuSans-32" transform="scale(0.015625)"/>
        <path d="M 691 4666 
L 3169 4666 
L 3169 4134 
L 1269 4134 
L 1269 2991 
Q 1406 3038 1543 3061 
Q 1681 3084 1819 3084 
Q 2600 3084 3056 2656 
Q 3513 2228 3513 1497 
Q 3513 744 3044 326 
Q 2575 -91 1722 -91 
Q 1428 -91 1123 -41 
Q 819 9 494 109 
L 494 744 
Q 775 591 1075 516 
Q 1375 441 1709 441 
Q 2250 441 2565 725 
Q 2881 1009 2881 1497 
Q 2881 1984 2565 2268 
Q 2250 2553 1709 2553 
Q 1456 2553 1204 2497 
Q 953 2441 691 2322 
L 691 4666 
z
" id="DejaVuSans-35" transform="scale(0.015625)"/>
       </defs>
       <use xlink:href="#DejaVuSans-39"/>
       <use x="63.623047" xlink:href="#DejaVuSans-38"/>
       <use x="127.246094" xlink:href="#DejaVuSans-2e"/>
       <use x="159.033203" xlink:href="#DejaVuSans-32"/>
       <use x="222.65625" xlink:href="#DejaVuSans-35"/>
      </g>
     </g>
    </g>
    <g id="xtick_3">
     <g id="line2d_3">
      <g>
       <use style="stroke:#000000;stroke-width:0.8;" x="144.157482" xlink:href="#me4ebf92096" y="242.6"/>
      </g>
     </g>
     <g id="text_3">
      <!-- 98.50 -->
      <g transform="translate(129.84342 257.198437)scale(0.1 -0.1)">
       <use xlink:href="#DejaVuSans-39"/>
       <use x="63.623047" xlink:href="#DejaVuSans-38"/>
       <use x="127.246094" xlink:href="#DejaVuSans-2e"/>
       <use x="159.033203" xlink:href="#DejaVuSans-35"/>
       <use x="222.65625" xlink:href="#DejaVuSans-30"/>
      </g>
     </g>
    </g>
    <g id="xtick_4">
     <g id="line2d_4">
      <g>
       <use style="stroke:#000000;stroke-width:0.8;" x="186.46507" xlink:href="#me4ebf92096" y="242.6"/>
      </g>
     </g>
     <g id="text_4">
      <!-- 98.75 -->
      <g transform="translate(172.151008 257.198437)scale(0.1 -0.1)">
       <defs>
        <path d="M 525 4666 
L 3525 4666 
L 3525 4397 
L 1831 0 
L 1172 0 
L 2766 4134 
L 525 4134 
L 525 4666 
z
" id="DejaVuSans-37" transform="scale(0.015625)"/>
       </defs>
       <use xlink:href="#DejaVuSans-39"/>
       <use x="63.623047" xlink:href="#DejaVuSans-38"/>
       <use x="127.246094" xlink:href="#DejaVuSans-2e"/>
       <use x="159.033203" xlink:href="#DejaVuSans-37"/>
       <use x="222.65625" xlink:href="#DejaVuSans-35"/>
      </g>
     </g>
    </g>
    <g id="xtick_5">
     <g id="line2d_5">
      <g>
       <use style="stroke:#000000;stroke-width:0.8;" x="228.772658" xlink:href="#me4ebf92096" y="242.6"/>
      </g>
     </g>
     <g id="text_5">
      <!-- 99.00 -->
      <g transform="translate(214.458595 257.198437)scale(0.1 -0.1)">
       <use xlink:href="#DejaVuSans-39"/>
       <use x="63.623047" xlink:href="#DejaVuSans-39"/>
       <use x="127.246094" xlink:href="#DejaVuSans-2e"/>
       <use x="159.033203" xlink:href="#DejaVuSans-30"/>
       <use x="222.65625" xlink:href="#DejaVuSans-30"/>
      </g>
     </g>
    </g>
    <g id="xtick_6">
     <g id="line2d_6">
      <g>
       <use style="stroke:#000000;stroke-width:0.8;" x="271.080246" xlink:href="#me4ebf92096" y="242.6"/>
      </g>
     </g>
     <g id="text_6">
      <!-- 99.25 -->
      <g transform="translate(256.766183 257.198437)scale(0.1 -0.1)">
       <use xlink:href="#DejaVuSans-39"/>
       <use x="63.623047" xlink:href="#DejaVuSans-39"/>
       <use x="127.246094" xlink:href="#DejaVuSans-2e"/>
       <use x="159.033203" xlink:href="#DejaVuSans-32"/>
       <use x="222.65625" xlink:href="#DejaVuSans-35"/>
      </g>
     </g>
    </g>
    <g id="xtick_7">
     <g id="line2d_7">
      <g>
       <use style="stroke:#000000;stroke-width:0.8;" x="313.387833" xlink:href="#me4ebf92096" y="242.6"/>
      </g>
     </g>
     <g id="text_7">
      <!-- 99.50 -->
      <g transform="translate(299.073771 257.198437)scale(0.1 -0.1)">
       <use xlink:href="#DejaVuSans-39"/>
       <use x="63.623047" xlink:href="#DejaVuSans-39"/>
       <use x="127.246094" xlink:href="#DejaVuSans-2e"/>
       <use x="159.033203" xlink:href="#DejaVuSans-35"/>
       <use x="222.65625" xlink:href="#DejaVuSans-30"/>
      </g>
     </g>
    </g>
    <g id="xtick_8">
     <g id="line2d_8">
      <g>
       <use style="stroke:#000000;stroke-width:0.8;" x="355.695421" xlink:href="#me4ebf92096" y="242.6"/>
      </g>
     </g>
     <g id="text_8">
      <!-- 99.75 -->
      <g transform="translate(341.381359 257.198437)scale(0.1 -0.1)">
       <use xlink:href="#DejaVuSans-39"/>
       <use x="63.623047" xlink:href="#DejaVuSans-39"/>
       <use x="127.246094" xlink:href="#DejaVuSans-2e"/>
       <use x="159.033203" xlink:href="#DejaVuSans-37"/>
       <use x="222.65625" xlink:href="#DejaVuSans-35"/>
      </g>
     </g>
    </g>
    <g id="xtick_9">
     <g id="line2d_9">
      <g>
       <use style="stroke:#000000;stroke-width:0.8;" x="398.003009" xlink:href="#me4ebf92096" y="242.6"/>
      </g>
     </g>
     <g id="text_9">
      <!-- 100.00 -->
      <g transform="translate(380.507696 257.198437)scale(0.1 -0.1)">
       <defs>
        <path d="M 794 531 
L 1825 531 
L 1825 4091 
L 703 3866 
L 703 4441 
L 1819 4666 
L 2450 4666 
L 2450 531 
L 3481 531 
L 3481 0 
L 794 0 
L 794 531 
z
" id="DejaVuSans-31" transform="scale(0.015625)"/>
       </defs>
       <use xlink:href="#DejaVuSans-31"/>
       <use x="63.623047" xlink:href="#DejaVuSans-30"/>
       <use x="127.246094" xlink:href="#DejaVuSans-30"/>
       <use x="190.869141" xlink:href="#DejaVuSans-2e"/>
       <use x="222.65625" xlink:href="#DejaVuSans-30"/>
       <use x="286.279297" xlink:href="#DejaVuSans-30"/>
      </g>
     </g>
    </g>
    <g id="text_10">
     <!-- time (ms) -->
     <g transform="translate(204.511435 270.876562)scale(0.1 -0.1)">
      <defs>
       <path d="M 1172 4494 
L 1172 3500 
L 2356 3500 
L 2356 3053 
L 1172 3053 
L 1172 1153 
Q 1172 725 1289 603 
Q 1406 481 1766 481 
L 2356 481 
L 2356 0 
L 1766 0 
Q 1100 0 847 248 
Q 594 497 594 1153 
L 594 3053 
L 172 3053 
L 172 3500 
L 594 3500 
L 594 4494 
L 1172 4494 
z
" id="DejaVuSans-74" transform="scale(0.015625)"/>
       <path d="M 603 3500 
L 1178 3500 
L 1178 0 
L 603 0 
L 603 3500 
z
M 603 4863 
L 1178 4863 
L 1178 4134 
L 603 4134 
L 603 4863 
z
" id="DejaVuSans-69" transform="scale(0.015625)"/>
       <path d="M 3328 2828 
Q 3544 3216 3844 3400 
Q 4144 3584 4550 3584 
Q 5097 3584 5394 3201 
Q 5691 2819 5691 2113 
L 5691 0 
L 5113 0 
L 5113 2094 
Q 5113 2597 4934 2840 
Q 4756 3084 4391 3084 
Q 3944 3084 3684 2787 
Q 3425 2491 3425 1978 
L 3425 0 
L 2847 0 
L 2847 2094 
Q 2847 2600 2669 2842 
Q 2491 3084 2119 3084 
Q 1678 3084 1418 2786 
Q 1159 2488 1159 1978 
L 1159 0 
L 581 0 
L 581 3500 
L 1159 3500 
L 1159 2956 
Q 1356 3278 1631 3431 
Q 1906 3584 2284 3584 
Q 2666 3584 2933 3390 
Q 3200 3197 3328 2828 
z
" id="DejaVuSans-6d" transform="scale(0.015625)"/>
       <path d="M 3597 1894 
L 3597 1613 
L 953 1613 
Q 991 1019 1311 708 
Q 1631 397 2203 397 
Q 2534 397 2845 478 
Q 3156 559 3463 722 
L 3463 178 
Q 3153 47 2828 -22 
Q 2503 -91 2169 -91 
Q 1331 -91 842 396 
Q 353 884 353 1716 
Q 353 2575 817 3079 
Q 1281 3584 2069 3584 
Q 2775 3584 3186 3129 
Q 3597 2675 3597 1894 
z
M 3022 2063 
Q 3016 2534 2758 2815 
Q 2500 3097 2075 3097 
Q 1594 3097 1305 2825 
Q 1016 2553 972 2059 
L 3022 2063 
z
" id="DejaVuSans-65" transform="scale(0.015625)"/>
       <path id="DejaVuSans-20" transform="scale(0.015625)"/>
       <path d="M 1984 4856 
Q 1566 4138 1362 3434 
Q 1159 2731 1159 2009 
Q 1159 1288 1364 580 
Q 1569 -128 1984 -844 
L 1484 -844 
Q 1016 -109 783 600 
Q 550 1309 550 2009 
Q 550 2706 781 3412 
Q 1013 4119 1484 4856 
L 1984 4856 
z
" id="DejaVuSans-28" transform="scale(0.015625)"/>
       <path d="M 2834 3397 
L 2834 2853 
Q 2591 2978 2328 3040 
Q 2066 3103 1784 3103 
Q 1356 3103 1142 2972 
Q 928 2841 928 2578 
Q 928 2378 1081 2264 
Q 1234 2150 1697 2047 
L 1894 2003 
Q 2506 1872 2764 1633 
Q 3022 1394 3022 966 
Q 3022 478 2636 193 
Q 2250 -91 1575 -91 
Q 1294 -91 989 -36 
Q 684 19 347 128 
L 347 722 
Q 666 556 975 473 
Q 1284 391 1588 391 
Q 1994 391 2212 530 
Q 2431 669 2431 922 
Q 2431 1156 2273 1281 
Q 2116 1406 1581 1522 
L 1381 1569 
Q 847 1681 609 1914 
Q 372 2147 372 2553 
Q 372 3047 722 3315 
Q 1072 3584 1716 3584 
Q 2034 3584 2315 3537 
Q 2597 3491 2834 3397 
z
" id="DejaVuSans-73" transform="scale(0.015625)"/>
       <path d="M 513 4856 
L 1013 4856 
Q 1481 4119 1714 3412 
Q 1947 2706 1947 2009 
Q 1947 1309 1714 600 
Q 1481 -109 1013 -844 
L 513 -844 
Q 928 -128 1133 580 
Q 1338 1288 1338 2009 
Q 1338 2731 1133 3434 
Q 928 4138 513 4856 
z
" id="DejaVuSans-29" transform="scale(0.015625)"/>
      </defs>
      <use xlink:href="#DejaVuSans-74"/>
      <use x="39.208984" xlink:href="#DejaVuSans-69"/>
      <use x="66.992188" xlink:href="#DejaVuSans-6d"/>
      <use x="164.404297" xlink:href="#DejaVuSans-65"/>
      <use x="225.927734" xlink:href="#DejaVuSans-20"/>
      <use x="257.714844" xlink:href="#DejaVuSans-28"/>
      <use x="296.728516" xlink:href="#DejaVuSans-6d"/>
      <use x="394.140625" xlink:href="#DejaVuSans-73"/>
      <use x="446.240234" xlink:href="#DejaVuSans-29"/>
     </g>
    </g>
   </g>
   <g id="matplotlib.axis_2">
    <g id="ytick_1">
     <g id="line2d_10">
      <defs>
       <path d="M 0 0 
L -3.5 0 
" id="m86466fc2e4" style="stroke:#000000;stroke-width:0.8;"/>
      </defs>
      <g>
       <use style="stroke:#000000;stroke-width:0.8;" x="42.620313" xlink:href="#m86466fc2e4" y="219.862321"/>
      </g>
     </g>
     <g id="text_11">
      <!-- −1 -->
      <g transform="translate(20.878125 223.66154)scale(0.1 -0.1)">
       <defs>
        <path d="M 678 2272 
L 4684 2272 
L 4684 1741 
L 678 1741 
L 678 2272 
z
" id="DejaVuSans-2212" transform="scale(0.015625)"/>
       </defs>
       <use xlink:href="#DejaVuSans-2212"/>
       <use x="83.789062" xlink:href="#DejaVuSans-31"/>
      </g>
     </g>
    </g>
    <g id="ytick_2">
     <g id="line2d_11">
      <g>
       <use style="stroke:#000000;stroke-width:0.8;" x="42.620313" xlink:href="#m86466fc2e4" y="186.758704"/>
      </g>
     </g>
     <g id="text_12">
      <!-- 0 -->
      <g transform="translate(29.257813 190.557922)scale(0.1 -0.1)">
       <use xlink:href="#DejaVuSans-30"/>
      </g>
     </g>
    </g>
    <g id="ytick_3">
     <g id="line2d_12">
      <g>
       <use style="stroke:#000000;stroke-width:0.8;" x="42.620313" xlink:href="#m86466fc2e4" y="153.655086"/>
      </g>
     </g>
     <g id="text_13">
      <!-- 1 -->
      <g transform="translate(29.257813 157.454305)scale(0.1 -0.1)">
       <use xlink:href="#DejaVuSans-31"/>
      </g>
     </g>
    </g>
    <g id="ytick_4">
     <g id="line2d_13">
      <g>
       <use style="stroke:#000000;stroke-width:0.8;" x="42.620313" xlink:href="#m86466fc2e4" y="120.551469"/>
      </g>
     </g>
     <g id="text_14">
      <!-- 2 -->
      <g transform="translate(29.257813 124.350688)scale(0.1 -0.1)">
       <use xlink:href="#DejaVuSans-32"/>
      </g>
     </g>
    </g>
    <g id="ytick_5">
     <g id="line2d_14">
      <g>
       <use style="stroke:#000000;stroke-width:0.8;" x="42.620313" xlink:href="#m86466fc2e4" y="87.447852"/>
      </g>
     </g>
     <g id="text_15">
      <!-- 3 -->
      <g transform="translate(29.257813 91.24707)scale(0.1 -0.1)">
       <defs>
        <path d="M 2597 2516 
Q 3050 2419 3304 2112 
Q 3559 1806 3559 1356 
Q 3559 666 3084 287 
Q 2609 -91 1734 -91 
Q 1441 -91 1130 -33 
Q 819 25 488 141 
L 488 750 
Q 750 597 1062 519 
Q 1375 441 1716 441 
Q 2309 441 2620 675 
Q 2931 909 2931 1356 
Q 2931 1769 2642 2001 
Q 2353 2234 1838 2234 
L 1294 2234 
L 1294 2753 
L 1863 2753 
Q 2328 2753 2575 2939 
Q 2822 3125 2822 3475 
Q 2822 3834 2567 4026 
Q 2313 4219 1838 4219 
Q 1578 4219 1281 4162 
Q 984 4106 628 3988 
L 628 4550 
Q 988 4650 1302 4700 
Q 1616 4750 1894 4750 
Q 2613 4750 3031 4423 
Q 3450 4097 3450 3541 
Q 3450 3153 3228 2886 
Q 3006 2619 2597 2516 
z
" id="DejaVuSans-33" transform="scale(0.015625)"/>
       </defs>
       <use xlink:href="#DejaVuSans-33"/>
      </g>
     </g>
    </g>
    <g id="ytick_6">
     <g id="line2d_15">
      <g>
       <use style="stroke:#000000;stroke-width:0.8;" x="42.620313" xlink:href="#m86466fc2e4" y="54.344234"/>
      </g>
     </g>
     <g id="text_16">
      <!-- 4 -->
      <g transform="translate(29.257813 58.143453)scale(0.1 -0.1)">
       <defs>
        <path d="M 2419 4116 
L 825 1625 
L 2419 1625 
L 2419 4116 
z
M 2253 4666 
L 3047 4666 
L 3047 1625 
L 3713 1625 
L 3713 1100 
L 3047 1100 
L 3047 0 
L 2419 0 
L 2419 1100 
L 313 1100 
L 313 1709 
L 2253 4666 
z
" id="DejaVuSans-34" transform="scale(0.015625)"/>
       </defs>
       <use xlink:href="#DejaVuSans-34"/>
      </g>
     </g>
    </g>
    <g id="ytick_7">
     <g id="line2d_16">
      <g>
       <use style="stroke:#000000;stroke-width:0.8;" x="42.620313" xlink:href="#m86466fc2e4" y="21.240617"/>
      </g>
     </g>
     <g id="text_17">
      <!-- 5 -->
      <g transform="translate(29.257813 25.039836)scale(0.1 -0.1)">
       <use xlink:href="#DejaVuSans-35"/>
      </g>
     </g>
    </g>
    <g id="text_18">
     <!-- IN [V] -->
     <g transform="translate(14.798438 139.026562)rotate(-90)scale(0.1 -0.1)">
      <defs>
       <path d="M 628 4666 
L 1259 4666 
L 1259 0 
L 628 0 
L 628 4666 
z
" id="DejaVuSans-49" transform="scale(0.015625)"/>
       <path d="M 628 4666 
L 1478 4666 
L 3547 763 
L 3547 4666 
L 4159 4666 
L 4159 0 
L 3309 0 
L 1241 3903 
L 1241 0 
L 628 0 
L 628 4666 
z
" id="DejaVuSans-4e" transform="scale(0.015625)"/>
       <path d="M 550 4863 
L 1875 4863 
L 1875 4416 
L 1125 4416 
L 1125 -397 
L 1875 -397 
L 1875 -844 
L 550 -844 
L 550 4863 
z
" id="DejaVuSans-5b" transform="scale(0.015625)"/>
       <path d="M 1831 0 
L 50 4666 
L 709 4666 
L 2188 738 
L 3669 4666 
L 4325 4666 
L 2547 0 
L 1831 0 
z
" id="DejaVuSans-56" transform="scale(0.015625)"/>
       <path d="M 1947 4863 
L 1947 -844 
L 622 -844 
L 622 -397 
L 1369 -397 
L 1369 4416 
L 622 4416 
L 622 4863 
L 1947 4863 
z
" id="DejaVuSans-5d" transform="scale(0.015625)"/>
      </defs>
      <use xlink:href="#DejaVuSans-49"/>
      <use x="29.492188" xlink:href="#DejaVuSans-4e"/>
      <use x="104.296875" xlink:href="#DejaVuSans-20"/>
      <use x="136.083984" xlink:href="#DejaVuSans-5b"/>
      <use x="175.097656" xlink:href="#DejaVuSans-56"/>
      <use x="243.505859" xlink:href="#DejaVuSans-5d"/>
     </g>
    </g>
   </g>
   <g id="line2d_17">
    <path clip-path="url(#p368a1467d5)" d="M 59.543298 21.601222 
L 61.912523 21.844537 
L 62.927905 22.151943 
L 63.435596 22.502983 
L 63.774057 22.985121 
L 64.112518 24.144606 
L 64.620209 27.435144 
L 65.635591 36.144174 
L 73.081726 106.822632 
L 77.820176 157.780599 
L 80.358631 185.061261 
L 80.527862 185.933065 
L 80.866322 186.208275 
L 81.712474 186.399107 
L 83.743238 186.531684 
L 89.666301 186.620985 
L 99.952582 186.576384 
L 102.321807 186.407002 
L 102.998728 186.220308 
L 103.337189 185.998527 
L 103.506419 185.788065 
L 103.67565 185.39341 
L 104.014111 183.54391 
L 104.691032 177.642886 
L 106.214105 162.188213 
L 107.398718 146.339462 
L 109.767942 110.743025 
L 115.521774 22.615073 
L 115.691005 22.145096 
L 116.367926 21.825544 
L 117.552539 21.637809 
L 120.260224 21.498046 
L 127.642349 21.405608 
L 138.811552 21.542422 
L 142.026928 21.764435 
L 143.211541 22.019868 
L 143.888462 22.365523 
L 144.226923 22.717983 
L 144.565384 23.47782 
L 144.903844 25.173678 
L 145.580766 30.235044 
L 146.934609 42.720799 
L 150.149985 73.184516 
L 151.673058 86.414042 
L 153.534592 105.176831 
L 157.934581 152.404602 
L 160.980728 185.150806 
L 161.149958 185.960525 
L 161.488419 186.213533 
L 162.334571 186.400623 
L 164.365335 186.532109 
L 170.288397 186.621062 
L 180.619684 186.574722 
L 182.988909 186.397394 
L 183.665831 186.194277 
L 184.004291 185.941677 
L 184.173522 185.68931 
L 184.342752 185.184692 
L 184.681213 183.127398 
L 185.527364 175.515997 
L 186.711977 163.54362 
L 187.727359 150.350133 
L 189.758123 120.284267 
L 196.188877 22.399343 
L 196.527337 22.007291 
L 197.204259 21.772514 
L 198.558101 21.604577 
L 201.942709 21.472354 
L 210.347181 21.414739 
L 220.162541 21.575636 
L 222.870227 21.81403 
L 223.885609 22.077465 
L 224.3933 22.355777 
L 224.731761 22.700233 
L 225.070221 23.433613 
L 225.408682 25.093542 
L 226.085603 30.127698 
L 227.439446 42.596239 
L 230.654823 73.078706 
L 232.347126 87.909249 
L 234.377891 108.596173 
L 239.624032 165.117529 
L 241.654796 185.931605 
L 241.993256 186.208009 
L 242.839408 186.39903 
L 244.870172 186.531662 
L 250.793235 186.620982 
L 261.139855 186.574581 
L 263.50908 186.396576 
L 264.186002 186.19204 
L 264.524462 185.936875 
L 264.693693 185.681585 
L 264.862923 185.167489 
L 265.201384 183.092265 
L 266.047536 175.472701 
L 267.232148 163.49082 
L 268.24753 150.287266 
L 270.278294 120.215465 
L 276.709048 22.383707 
L 277.047508 21.97814 
L 278.401351 21.666955 
L 280.770576 21.517527 
L 286.920475 21.415955 
L 293.351229 21.431198 
L 301.305055 21.605289 
L 303.50505 21.826715 
L 304.520432 22.107794 
L 305.028123 22.414216 
L 305.366584 22.809085 
L 305.705044 23.709462 
L 306.212735 26.725214 
L 307.058887 33.710525 
L 308.920421 51.631939 
L 311.120415 72.280156 
L 312.981949 88.61545 
L 315.181944 111.155287 
L 321.105006 175.075721 
L 322.120388 185.552814 
L 322.289619 186.05529 
L 322.79731 186.289741 
L 323.981922 186.456244 
L 327.028068 186.573103 
L 336.566415 186.640391 
L 343.166399 186.497485 
L 344.351012 186.315406 
L 344.858703 186.078516 
L 345.197163 185.648154 
L 345.535624 184.178583 
L 346.043315 180.093255 
L 347.566388 165.255035 
L 348.58177 152.419176 
L 350.443304 125.136254 
L 357.212518 22.334432 
L 357.550979 21.995822 
L 358.2279 21.768326 
L 359.750974 21.591067 
L 363.304811 21.46542 
L 372.03179 21.418558 
L 381.339459 21.582677 
L 383.877914 21.810745 
L 384.893296 22.069745 
L 385.400987 22.341205 
L 385.739448 22.673805 
L 386.077909 23.367554 
L 386.416369 24.974521 
L 387.093291 29.964718 
L 388.277903 40.767718 
L 391.831741 74.309527 
L 393.185583 86.107657 
L 395.047117 104.83857 
L 398.003009 136.410386 
L 398.003009 136.410386 
" style="fill:none;stroke:#ff0000;stroke-linecap:square;stroke-width:1.5;"/>
   </g>
   <g id="line2d_18">
    <path clip-path="url(#p368a1467d5)" d="M 59.543298 186.502325 
L 59.712528 186.565192 
L 59.881759 186.501466 
L 60.050989 186.562364 
L 60.220219 186.500559 
L 60.38945 186.559791 
L 60.72791 186.557239 
L 61.235602 186.497707 
L 61.743293 186.549712 
L 62.250984 186.494662 
L 62.758675 186.542372 
L 63.266366 186.491441 
L 63.774057 186.535218 
L 64.281748 186.488108 
L 64.789439 186.528352 
L 65.29713 186.484777 
L 65.804821 186.521728 
L 66.312512 186.481339 
L 66.820203 186.515245 
L 67.327894 186.477771 
L 67.835585 186.50888 
L 68.343276 186.474075 
L 68.850967 186.502613 
L 69.358658 186.470252 
L 69.866349 186.496423 
L 70.712501 186.464977 
L 71.558653 186.48633 
L 72.404805 186.458227 
L 73.250956 186.476515 
L 74.097108 186.451292 
L 74.94326 186.466908 
L 75.789412 186.444183 
L 76.974024 186.455609 
L 78.158637 186.433981 
L 79.343249 186.442691 
L 80.866322 186.421951 
L 82.389395 186.425996 
L 84.081699 186.416745 
L 85.943233 186.397828 
L 88.143227 186.394822 
L 90.343222 186.172918 
L 90.681683 185.887006 
L 90.850913 185.376851 
L 91.020143 179.478389 
L 91.189374 140.742543 
L 91.46021 18.680219 
L 91.577965 24.388689 
L 91.708036 19.539548 
L 91.829525 23.46015 
L 91.998756 20.08333 
L 92.167986 23.000986 
L 92.337216 20.427413 
L 92.506447 22.676346 
L 92.675677 20.694273 
L 92.844907 22.437911 
L 93.014138 20.899181 
L 93.183368 22.260087 
L 93.352598 21.056137 
L 93.521829 22.126525 
L 93.691059 21.176627 
L 93.860289 22.025828 
L 94.02952 21.269509 
L 94.19875 21.949739 
L 94.367981 21.341487 
L 94.537211 21.892173 
L 94.706441 21.397615 
L 94.875672 21.848607 
L 95.044902 21.441702 
L 95.214132 21.815656 
L 95.383363 21.476621 
L 95.552593 21.790778 
L 95.721823 21.504545 
L 95.891054 21.772056 
L 96.060284 21.527119 
L 96.229514 21.758041 
L 96.398745 21.545593 
L 96.567975 21.747633 
L 96.737205 21.560917 
L 96.906436 21.739997 
L 97.075666 21.573816 
L 97.244897 21.734497 
L 97.414127 21.584844 
L 97.583357 21.730647 
L 97.752588 21.594421 
L 97.921818 21.728075 
L 98.091048 21.602874 
L 98.260279 21.726497 
L 98.429509 21.610448 
L 98.598739 21.725696 
L 98.76797 21.617336 
L 98.9372 21.725503 
L 99.10643 21.623683 
L 99.275661 21.725789 
L 99.444891 21.629604 
L 99.614121 21.726456 
L 99.783352 21.635184 
L 99.952582 21.727425 
L 100.121812 21.640492 
L 100.291043 21.728639 
L 100.460273 21.645579 
L 100.629504 21.730051 
L 100.798734 21.650486 
L 100.967964 21.731625 
L 101.137195 21.655245 
L 101.306425 21.733333 
L 101.475655 21.659881 
L 101.644886 21.735153 
L 101.814116 21.664412 
L 101.983346 21.737068 
L 102.152577 21.668853 
L 102.321807 21.739065 
L 102.491037 21.673218 
L 102.660268 21.741132 
L 102.829498 21.677514 
L 102.998728 21.74326 
L 103.167959 21.68175 
L 103.337189 21.745441 
L 103.506419 21.685928 
L 103.67565 21.747665 
L 103.84488 21.690042 
L 104.352571 21.752188 
L 104.860262 21.702142 
L 105.367953 21.759319 
L 105.875644 21.713741 
L 106.383335 21.766479 
L 106.891027 21.72502 
L 107.398718 21.773835 
L 107.906409 21.736036 
L 108.4141 21.781383 
L 108.921791 21.746849 
L 109.429482 21.789108 
L 109.937173 21.757492 
L 110.444864 21.796992 
L 110.952555 21.767987 
L 111.460246 21.805015 
L 111.967937 21.77835 
L 112.475628 21.81316 
L 112.983319 21.788597 
L 113.49101 21.821414 
L 114.337162 21.802101 
L 115.183314 21.835375 
L 116.029465 21.818913 
L 116.875617 21.849965 
L 117.721769 21.835877 
L 118.567921 21.86479 
L 119.414072 21.852615 
L 120.260224 21.879696 
L 121.275606 21.888233 
L 122.121758 21.884193 
L 123.814062 22.192438 
L 124.152522 22.53597 
L 124.321753 22.962961 
L 124.490983 24.237283 
L 124.660213 33.970846 
L 124.797389 69.6597 
L 124.966619 181.766031 
L 125.13585 189.002509 
L 125.288367 184.3016 
L 125.449818 188.512643 
L 125.611584 184.842165 
L 125.780815 188.125583 
L 125.950045 185.222236 
L 126.119275 187.820752 
L 126.288506 185.507981 
L 126.457736 187.577652 
L 126.626967 185.72673 
L 126.796197 187.386073 
L 126.965427 185.89589 
L 127.134658 187.235529 
L 127.303888 186.027329 
L 127.473118 187.117151 
L 127.642349 186.129732 
L 127.811579 187.023863 
L 127.980809 186.20966 
L 128.15004 186.950125 
L 128.31927 186.272138 
L 128.4885 186.891626 
L 128.657731 186.321042 
L 128.826961 186.845015 
L 128.996191 186.359367 
L 129.165422 186.807685 
L 129.334652 186.389437 
L 129.503883 186.77761 
L 129.673113 186.413059 
L 129.842343 186.753203 
L 130.011574 186.431641 
L 130.180804 186.73325 
L 130.350034 186.446267 
L 130.519265 186.71678 
L 130.688495 186.457795 
L 130.857725 186.703044 
L 131.026956 186.466892 
L 131.196186 186.691459 
L 131.365416 186.474075 
L 131.534647 186.681566 
L 131.703877 186.47975 
L 131.873107 186.67301 
L 132.042338 186.484236 
L 132.211568 186.66551 
L 132.380798 186.487778 
L 132.550029 186.658848 
L 132.719259 186.490572 
L 132.88849 186.652852 
L 133.05772 186.49277 
L 133.22695 186.647388 
L 133.396181 186.494491 
L 133.565411 186.642352 
L 133.734641 186.495827 
L 133.903872 186.63766 
L 134.073102 186.496853 
L 134.242332 186.633248 
L 134.411563 186.497626 
L 134.580793 186.629064 
L 134.750023 186.498191 
L 134.919254 186.62507 
L 135.088484 186.498584 
L 135.257714 186.621232 
L 135.426945 186.498834 
L 135.596175 186.617527 
L 135.765405 186.498961 
L 135.934636 186.613934 
L 136.103866 186.498985 
L 136.273097 186.610437 
L 136.442327 186.498919 
L 136.611557 186.607024 
L 136.780788 186.498775 
L 136.950018 186.603686 
L 137.119248 186.498561 
L 137.288479 186.600413 
L 137.457709 186.498285 
L 137.626939 186.5972 
L 137.79617 186.497952 
L 137.9654 186.59404 
L 138.13463 186.497569 
L 138.303861 186.590931 
L 138.473091 186.497137 
L 138.642321 186.587867 
L 138.811552 186.496662 
L 138.980782 186.584846 
L 139.150013 186.496145 
L 139.319243 186.581866 
L 139.488473 186.495589 
L 139.657704 186.578924 
L 139.826934 186.494997 
L 139.996164 186.576018 
L 140.165395 186.494109 
L 140.334625 186.573125 
L 140.503855 186.493482 
L 140.673086 186.57027 
L 140.842316 186.492816 
L 141.011546 186.567453 
L 141.180777 186.492115 
L 141.350007 186.56467 
L 141.519237 186.491381 
L 141.688468 186.561919 
L 141.857698 186.490615 
L 142.026928 186.559199 
L 142.196159 186.489819 
L 142.365389 186.556508 
L 142.53462 186.488995 
L 142.70385 186.553669 
L 142.87308 186.488129 
L 143.042311 186.551056 
L 143.211541 186.487241 
L 143.380771 186.548467 
L 143.550002 186.486332 
L 143.719232 186.5459 
L 143.888462 186.485403 
L 144.226923 186.484455 
L 144.734614 186.53836 
L 145.242305 186.481584 
L 145.749996 186.531163 
L 146.257687 186.478652 
L 146.765378 186.524186 
L 147.273069 186.475566 
L 147.78076 186.51737 
L 148.288451 186.472321 
L 148.796143 186.510692 
L 149.303834 186.468921 
L 149.811525 186.504132 
L 150.319216 186.465366 
L 150.826907 186.497671 
L 151.334598 186.461683 
L 151.842289 186.491343 
L 152.34998 186.45792 
L 152.857671 186.485144 
L 153.365362 186.454071 
L 154.211514 186.477041 
L 155.057666 186.447464 
L 155.903817 186.467134 
L 156.749969 186.440641 
L 157.596121 186.45744 
L 158.442273 186.433629 
L 159.288424 186.447932 
L 160.473037 186.425001 
L 161.657649 186.434761 
L 162.842262 186.414293 
L 164.365335 186.419582 
L 165.888408 186.400093 
L 167.749942 186.402902 
L 170.965318 186.165816 
L 171.303779 185.863939 
L 171.47301 185.308577 
L 171.64224 178.944804 
L 171.81147 131.58402 
L 172.086741 19.185755 
L 172.20714 23.931204 
L 172.354688 19.861941 
L 172.496627 23.207111 
L 172.665858 20.296061 
L 172.835088 22.802792 
L 173.004319 20.600596 
L 173.173549 22.517984 
L 173.342779 20.835232 
L 173.51201 22.310251 
L 173.68124 21.014044 
L 173.85047 22.156488 
L 174.019701 21.150166 
L 174.188931 22.041868 
L 174.358161 21.254119 
L 174.527392 21.956099 
L 174.696622 21.333907 
L 174.865852 21.891779 
L 175.035083 21.395527 
L 175.204313 21.843501 
L 175.373543 21.443458 
L 175.542774 21.807274 
L 175.712004 21.481048 
L 175.881234 21.780136 
L 176.050465 21.510806 
L 176.219695 21.759877 
L 176.388926 21.534616 
L 176.558156 21.74484 
L 176.727386 21.553896 
L 176.896617 21.73378 
L 177.065847 21.569717 
L 177.235077 21.725757 
L 177.404308 21.582891 
L 177.573538 21.720061 
L 177.742768 21.594032 
L 177.911999 21.716153 
L 178.081229 21.603609 
L 178.250459 21.713621 
L 178.41969 21.611978 
L 178.58892 21.712153 
L 178.75815 21.619412 
L 178.927381 21.71151 
L 179.096611 21.626118 
L 179.265841 21.71151 
L 179.435072 21.632256 
L 179.604302 21.712013 
L 179.773533 21.637949 
L 179.942763 21.71291 
L 180.111993 21.64329 
L 180.281224 21.714119 
L 180.450454 21.648353 
L 180.619684 21.715577 
L 180.788915 21.653194 
L 180.958145 21.717233 
L 181.127375 21.657855 
L 181.465836 21.66237 
L 181.973527 21.723055 
L 182.481218 21.675274 
L 182.988909 21.72971 
L 183.4966 21.687522 
L 184.004291 21.736871 
L 184.511982 21.699308 
L 185.019673 21.744265 
L 185.527364 21.710608 
L 186.035056 21.751821 
L 186.542747 21.721647 
L 187.050438 21.759568 
L 187.558129 21.732433 
L 188.06582 21.767478 
L 188.573511 21.743061 
L 189.250432 21.750016 
L 190.096584 21.783602 
L 190.942736 21.767157 
L 191.788887 21.797394 
L 192.635039 21.783996 
L 193.481191 21.811447 
L 194.327343 21.80059 
L 195.511955 21.828588 
L 196.696568 21.823658 
L 197.88118 21.849411 
L 199.235023 21.861494 
L 200.758096 21.863356 
L 202.281169 21.888192 
L 203.465782 21.934877 
L 204.481164 22.230136 
L 204.819624 22.639809 
L 204.988855 23.200983 
L 205.158085 25.605701 
L 205.327316 38.635962 
L 205.601251 189.61988 
L 205.658686 184.002497 
L 205.750497 185.464217 
L 205.785516 187.140576 
L 205.85465 186.030697 
L 205.947192 186.979739 
L 206.116422 186.179891 
L 206.285652 186.952334 
L 206.454883 186.258323 
L 206.624113 186.91472 
L 206.793343 186.309455 
L 206.962574 186.877731 
L 207.131804 186.345721 
L 207.301034 186.845806 
L 207.470265 186.373156 
L 207.639495 186.819229 
L 207.808726 186.394517 
L 207.977956 186.797218 
L 208.147186 186.411387 
L 208.316417 186.778884 
L 208.485647 186.424827 
L 208.654877 186.763459 
L 208.824108 186.43561 
L 208.993338 186.750328 
L 209.162568 186.444319 
L 209.331799 186.739004 
L 209.501029 186.451398 
L 209.670259 186.729109 
L 209.83949 186.457192 
L 210.00872 186.720345 
L 210.17795 186.461968 
L 210.347181 186.712483 
L 210.516411 186.465933 
L 210.685641 186.705343 
L 210.854872 186.469248 
L 211.024102 186.698783 
L 211.193333 186.472039 
L 211.362563 186.692692 
L 211.531793 186.474405 
L 211.701024 186.686985 
L 211.870254 186.476422 
L 212.039484 186.681594 
L 212.208715 186.478153 
L 212.377945 186.676464 
L 212.547175 186.479643 
L 212.716406 186.671554 
L 212.885636 186.480931 
L 213.054866 186.66683 
L 213.224097 186.482048 
L 213.393327 186.662266 
L 213.562557 186.483016 
L 213.731788 186.65784 
L 213.901018 186.483854 
L 214.070249 186.653535 
L 214.239479 186.484579 
L 214.408709 186.649339 
L 214.57794 186.485201 
L 214.74717 186.64524 
L 214.9164 186.485731 
L 215.085631 186.641229 
L 215.254861 186.486178 
L 215.424091 186.637299 
L 215.593322 186.486547 
L 215.762552 186.633443 
L 215.931782 186.486844 
L 216.101013 186.629657 
L 216.270243 186.487074 
L 216.439473 186.625937 
L 216.608704 186.487241 
L 216.777934 186.622278 
L 216.947164 186.487349 
L 217.116395 186.618678 
L 217.285625 186.487399 
L 217.454856 186.615133 
L 217.624086 186.487396 
L 217.793316 186.611642 
L 217.962547 186.48734 
L 218.131777 186.608202 
L 218.301007 186.487235 
L 218.470238 186.604811 
L 218.639468 186.487082 
L 218.808698 186.601468 
L 218.977929 186.486882 
L 219.147159 186.59817 
L 219.316389 186.486639 
L 219.48562 186.594917 
L 219.65485 186.486352 
L 219.82408 186.591706 
L 219.993311 186.486023 
L 220.162541 186.588537 
L 220.331771 186.485654 
L 220.501002 186.585408 
L 220.670232 186.485246 
L 220.839463 186.582318 
L 221.008693 186.484801 
L 221.177923 186.579266 
L 221.347154 186.484318 
L 221.516384 186.576251 
L 221.685614 186.4838 
L 221.854845 186.573271 
L 222.024075 186.483248 
L 222.193305 186.570325 
L 222.362536 186.482662 
L 222.531766 186.567414 
L 222.700996 186.482044 
L 222.870227 186.564535 
L 223.039457 186.481395 
L 223.208687 186.561688 
L 223.377918 186.480715 
L 223.547148 186.558873 
L 223.716379 186.480006 
L 223.885609 186.556088 
L 224.054839 186.479012 
L 224.22407 186.55331 
L 224.3933 186.478282 
L 224.56253 186.55057 
L 224.731761 186.477522 
L 224.900991 186.547866 
L 225.070221 186.47674 
L 225.239452 186.545209 
L 225.408682 186.475952 
L 225.577912 186.542402 
L 225.747143 186.475141 
L 225.916373 186.539872 
L 226.085603 186.474321 
L 226.254834 186.53737 
L 226.424064 186.473485 
L 226.593294 186.534894 
L 226.762525 186.47263 
L 226.931755 186.53244 
L 227.100986 186.471754 
L 227.439446 186.470858 
L 227.947137 186.525203 
L 228.454828 186.468043 
L 228.962519 186.518135 
L 229.47021 186.465045 
L 229.977902 186.511217 
L 230.485593 186.461866 
L 230.993284 186.504425 
L 231.500975 186.458516 
L 232.008666 186.497773 
L 232.516357 186.455055 
L 233.024048 186.491278 
L 233.531739 186.45149 
L 234.03943 186.484915 
L 234.547121 186.447818 
L 235.054812 186.478666 
L 235.562503 186.444043 
L 236.070194 186.472519 
L 236.577885 186.440175 
L 237.085576 186.466466 
L 237.762498 186.462478 
L 238.608649 186.432185 
L 239.454801 186.452664 
L 240.300953 186.4253 
L 241.147105 186.443046 
L 241.993256 186.418166 
L 242.839408 186.433319 
L 243.68556 186.410566 
L 244.870172 186.42175 
L 246.054785 186.39977 
L 247.239397 186.408485 
L 248.42401 186.390946 
L 249.608622 186.391081 
L 251.470156 186.174015 
L 251.808617 185.892463 
L 251.977847 185.370121 
L 252.147077 179.575035 
L 252.316308 141.430055 
L 252.556623 19.041092 
L 252.674572 24.089275 
L 252.762979 19.929101 
L 252.847585 23.059714 
L 253.016799 20.437463 
L 253.186029 22.697833 
L 253.355259 20.682853 
L 253.52449 22.451282 
L 253.69372 20.881608 
L 253.86295 22.271426 
L 254.032181 21.037427 
L 254.201411 22.136817 
L 254.370641 21.158373 
L 254.539872 22.03508 
L 254.709102 21.252226 
L 254.878332 21.957888 
L 255.047563 21.325304 
L 255.216793 21.899231 
L 255.386024 21.382505 
L 255.555254 21.854649 
L 255.724484 21.42757 
L 255.893715 21.82079 
L 256.062945 21.463348 
L 256.232175 21.795122 
L 256.401406 21.492011 
L 256.570636 21.775726 
L 256.739866 21.515213 
L 256.909097 21.76114 
L 257.078327 21.534216 
L 257.247557 21.750253 
L 257.416788 21.549984 
L 257.586018 21.742216 
L 257.755248 21.563256 
L 257.924479 21.736379 
L 258.093709 21.574596 
L 258.262939 21.732245 
L 258.43217 21.584438 
L 258.6014 21.729433 
L 258.770631 21.593115 
L 258.939861 21.72765 
L 259.109091 21.601787 
L 259.278322 21.727641 
L 259.447552 21.608798 
L 259.616782 21.727228 
L 259.786013 21.615246 
L 259.955243 21.727318 
L 260.124473 21.621249 
L 260.293704 21.727805 
L 260.462934 21.626898 
L 260.632164 21.72861 
L 260.801395 21.632264 
L 260.970625 21.729673 
L 261.139855 21.637402 
L 261.309086 21.730944 
L 261.478316 21.642356 
L 261.647547 21.732388 
L 261.816777 21.647157 
L 261.986007 21.733975 
L 262.155238 21.651832 
L 262.324468 21.73568 
L 262.493698 21.6564 
L 262.662929 21.737488 
L 262.832159 21.660877 
L 263.001389 21.739384 
L 263.17062 21.665277 
L 263.33985 21.741356 
L 263.50908 21.669608 
L 263.678311 21.743395 
L 263.847541 21.673878 
L 264.016771 21.745493 
L 264.186002 21.678094 
L 264.355232 21.747644 
L 264.524462 21.682258 
L 264.693693 21.749838 
L 264.862923 21.686369 
L 265.032154 21.751813 
L 265.201384 21.690381 
L 265.370614 21.754312 
L 265.539845 21.694366 
L 265.709075 21.756558 
L 265.878305 21.698304 
L 266.216766 21.702209 
L 266.724457 21.763506 
L 267.232148 21.713737 
L 267.739839 21.770695 
L 268.24753 21.724965 
L 268.755221 21.778069 
L 269.262912 21.735955 
L 269.770603 21.785628 
L 270.278294 21.746756 
L 270.785985 21.793359 
L 271.293677 21.757399 
L 271.801368 21.801239 
L 272.309059 21.76789 
L 272.81675 21.809259 
L 273.324441 21.778257 
L 273.832132 21.817397 
L 274.339823 21.788511 
L 274.847514 21.82564 
L 275.355205 21.798665 
L 275.862896 21.833975 
L 276.370587 21.808731 
L 276.878278 21.842454 
L 277.385969 21.818939 
L 278.232121 21.854207 
L 279.078273 21.835923 
L 279.924424 21.868992 
L 280.770576 21.852687 
L 281.616728 21.883843 
L 282.46288 21.868668 
L 283.309031 21.9054 
L 283.985953 21.950192 
L 284.493644 22.015965 
L 285.170565 22.384205 
L 285.339796 22.656891 
L 285.509026 23.220248 
L 285.678256 25.769844 
L 285.847487 39.517769 
L 286.122524 187.609069 
L 286.191878 185.255867 
L 286.260253 187.394354 
L 286.346674 186.912621 
L 286.431015 186.217778 
L 286.582015 186.859773 
L 286.751245 186.314926 
L 286.920475 186.840363 
L 287.089706 186.371763 
L 287.258936 186.812642 
L 287.428166 186.407887 
L 287.597397 186.785499 
L 287.766627 186.43328 
L 287.935857 186.762169 
L 288.105088 186.452394 
L 288.274318 186.742796 
L 288.443548 186.467005 
L 288.612779 186.726766 
L 288.782009 186.478338 
L 288.951239 186.713422 
L 289.12047 186.487167 
L 289.2897 186.702199 
L 289.458931 186.494061 
L 289.628161 186.692646 
L 289.797391 186.499446 
L 289.966622 186.684404 
L 290.135852 186.503649 
L 290.305082 186.677198 
L 290.474313 186.506923 
L 290.643543 186.670808 
L 290.812773 186.509463 
L 290.982004 186.665067 
L 291.151234 186.511421 
L 291.320464 186.659841 
L 291.489695 186.512916 
L 291.658925 186.655028 
L 291.828155 186.51404 
L 291.997386 186.650547 
L 292.166616 186.514864 
L 292.335847 186.646334 
L 292.505077 186.515445 
L 292.674307 186.64234 
L 292.843538 186.515828 
L 293.012768 186.638526 
L 293.181998 186.516046 
L 293.351229 186.634861 
L 293.520459 186.516128 
L 293.689689 186.631321 
L 293.85892 186.516096 
L 294.02815 186.627887 
L 294.19738 186.515965 
L 294.366611 186.624543 
L 294.535841 186.51575 
L 294.705071 186.621277 
L 294.874302 186.515462 
L 295.043532 186.61808 
L 295.212762 186.515109 
L 295.381993 186.614944 
L 295.551223 186.514699 
L 295.720454 186.611863 
L 295.889684 186.514237 
L 296.058914 186.608831 
L 296.228145 186.513727 
L 296.397375 186.605844 
L 296.566605 186.513174 
L 296.735836 186.602899 
L 296.905066 186.512581 
L 297.074296 186.599994 
L 297.243527 186.51195 
L 297.412757 186.597124 
L 297.581987 186.511284 
L 297.751218 186.59429 
L 297.920448 186.510584 
L 298.089678 186.591488 
L 298.258909 186.509853 
L 298.428139 186.588717 
L 298.597369 186.509091 
L 298.7666 186.585976 
L 298.93583 186.5083 
L 299.105061 186.583264 
L 299.274291 186.507262 
L 299.443521 186.58056 
L 299.612752 186.506447 
L 299.781982 186.577887 
L 299.951212 186.505601 
L 300.120443 186.575245 
L 300.289673 186.504726 
L 300.458903 186.57263 
L 300.628134 186.503824 
L 300.797364 186.569877 
L 300.966594 186.502881 
L 301.135825 186.567338 
L 301.305055 186.501918 
L 301.474285 186.564818 
L 301.643516 186.500935 
L 301.812746 186.562317 
L 301.981977 186.499931 
L 302.151207 186.559835 
L 302.320437 186.498908 
L 302.489668 186.557373 
L 302.828128 186.55493 
L 303.335819 186.495725 
L 303.84351 186.547709 
L 304.351201 186.492381 
L 304.858892 186.540647 
L 305.366584 186.4889 
L 305.874275 186.533771 
L 306.381966 186.485397 
L 306.889657 186.527187 
L 307.397348 186.481877 
L 307.905039 186.520765 
L 308.41273 186.478252 
L 308.920421 186.514455 
L 309.428112 186.474516 
L 309.935803 186.508239 
L 310.443494 186.470668 
L 310.951185 186.502098 
L 311.458876 186.466704 
L 311.966567 186.496018 
L 312.474258 186.462654 
L 312.981949 186.490039 
L 313.48964 186.458558 
L 313.997331 186.484156 
L 314.843483 186.453009 
L 315.689635 186.474513 
L 316.535787 186.445929 
L 317.381938 186.465039 
L 318.22809 186.438706 
L 319.074242 186.455711 
L 319.920394 186.431358 
L 320.766545 186.446509 
L 321.612697 186.4239 
L 322.79731 186.435475 
L 323.981922 186.412898 
L 325.166535 186.422414 
L 326.351147 186.401666 
L 327.53576 186.409542 
L 329.058833 186.391081 
L 330.412675 186.375348 
L 331.597288 186.288916 
L 332.104979 186.152196 
L 332.44344 185.776986 
L 332.61267 184.630455 
L 332.7819 176.837859 
L 333.05088 17.9 
L 333.087348 24.046904 
L 333.168095 22.514812 
L 333.200402 21.31063 
L 333.262281 22.031229 
L 333.351039 21.406454 
L 333.520269 21.892257 
L 333.689499 21.398231 
L 333.85873 21.830762 
L 334.02796 21.420679 
L 334.197191 21.797573 
L 334.366421 21.446041 
L 334.535651 21.775909 
L 334.704882 21.468546 
L 334.874112 21.760435 
L 335.043342 21.487575 
L 335.212573 21.749013 
L 335.381803 21.503613 
L 335.551033 21.740512 
L 335.720264 21.517268 
L 335.889494 21.734205 
L 336.058724 21.529063 
L 336.227955 21.729574 
L 336.397185 21.539411 
L 336.566415 21.726237 
L 336.735646 21.548631 
L 336.904876 21.723906 
L 337.074106 21.556967 
L 337.243337 21.724651 
L 337.412567 21.564868 
L 337.581798 21.723347 
L 337.751028 21.572135 
L 337.920258 21.722614 
L 338.089489 21.580839 
L 338.258719 21.722557 
L 338.427949 21.586871 
L 338.59718 21.72279 
L 338.76641 21.592644 
L 338.93564 21.723271 
L 339.104871 21.598208 
L 339.274101 21.723962 
L 339.443331 21.603597 
L 339.612562 21.724831 
L 339.781792 21.608837 
L 339.951022 21.725853 
L 340.120253 21.61395 
L 340.289483 21.727009 
L 340.458713 21.618952 
L 340.627944 21.728281 
L 340.797174 21.623858 
L 340.966405 21.729658 
L 341.135635 21.628677 
L 341.304865 21.731128 
L 341.474096 21.633419 
L 341.643326 21.732683 
L 341.812556 21.63809 
L 341.981787 21.734315 
L 342.151017 21.642696 
L 342.320247 21.736019 
L 342.489478 21.647243 
L 342.658708 21.737788 
L 342.827938 21.651734 
L 342.997169 21.739618 
L 343.166399 21.656172 
L 343.335629 21.741507 
L 343.50486 21.660561 
L 343.67409 21.743449 
L 343.843321 21.664903 
L 344.012551 21.745443 
L 344.181781 21.669201 
L 344.351012 21.747485 
L 344.520242 21.673456 
L 344.689472 21.749571 
L 344.858703 21.677669 
L 345.027933 21.751699 
L 345.197163 21.681492 
L 345.366394 21.753818 
L 345.535624 21.685667 
L 345.704854 21.755959 
L 345.874085 21.690057 
L 346.043315 21.758157 
L 346.212545 21.69404 
L 346.381776 21.760378 
L 346.551006 21.697992 
L 346.720236 21.762631 
L 346.889467 21.701918 
L 347.058697 21.764918 
L 347.227928 21.705817 
L 347.397158 21.767233 
L 347.566388 21.709683 
L 348.074079 21.771926 
L 348.58177 21.721082 
L 349.089461 21.779122 
L 349.597152 21.73223 
L 350.104843 21.786517 
L 350.612535 21.743174 
L 351.120226 21.7941 
L 351.627917 21.753942 
L 352.135608 21.801852 
L 352.643299 21.764554 
L 353.15099 21.809754 
L 353.658681 21.775026 
L 354.166372 21.817788 
L 354.674063 21.785374 
L 355.181754 21.82594 
L 355.689445 21.795611 
L 356.197136 21.834194 
L 356.704827 21.80575 
L 357.212518 21.842563 
L 357.720209 21.815974 
L 358.2279 21.851302 
L 358.735591 21.826258 
L 359.243282 21.860097 
L 359.750974 21.836445 
L 360.597125 21.871889 
L 361.443277 21.853246 
L 362.289429 21.886677 
L 363.135581 21.868998 
L 363.981732 21.91439 
L 364.658654 21.973971 
L 365.166345 22.069571 
L 365.674036 22.412868 
L 365.843266 22.684739 
L 366.012496 23.304981 
L 366.181727 27.008491 
L 366.350957 44.666653 
L 366.622537 189.482286 
L 366.688705 184.059048 
L 366.749546 188.268731 
L 366.81095 187.05979 
L 366.849208 186.159487 
L 366.892933 186.813385 
L 366.969992 186.314751 
L 367.124109 186.797165 
L 367.29334 186.37683 
L 367.46257 186.795894 
L 367.6318 186.410836 
L 367.801031 186.783575 
L 367.970261 186.430684 
L 368.139491 186.769077 
L 368.308722 186.444245 
L 368.477952 186.755639 
L 368.647183 186.454413 
L 368.816413 186.743815 
L 368.985643 186.462373 
L 369.154874 186.73348 
L 369.324104 186.46874 
L 369.493334 186.724383 
L 369.662565 186.473898 
L 369.831795 186.716283 
L 370.001025 186.478116 
L 370.170256 186.708981 
L 370.339486 186.481595 
L 370.508716 186.702318 
L 370.677947 186.484486 
L 370.847177 186.696171 
L 371.016407 186.486905 
L 371.185638 186.690441 
L 371.354868 186.488941 
L 371.524098 186.685052 
L 371.693329 186.490666 
L 371.862559 186.679945 
L 372.03179 186.492132 
L 372.20102 186.675071 
L 372.37025 186.493383 
L 372.539481 186.670394 
L 372.708711 186.494452 
L 372.877941 186.665884 
L 373.047172 186.495365 
L 373.216402 186.661518 
L 373.385632 186.496145 
L 373.554863 186.657278 
L 373.724093 186.496806 
L 373.893323 186.653148 
L 374.062554 186.497364 
L 374.231784 186.649116 
L 374.401014 186.497827 
L 374.570245 186.645174 
L 374.739475 186.498206 
L 374.908705 186.641313 
L 375.077936 186.498508 
L 375.247166 186.637526 
L 375.416397 186.498738 
L 375.585627 186.633808 
L 375.754857 186.498902 
L 375.924088 186.630155 
L 376.093318 186.499003 
L 376.262548 186.626563 
L 376.431779 186.499045 
L 376.601009 186.623028 
L 376.770239 186.499031 
L 376.93947 186.619547 
L 377.1087 186.498965 
L 377.27793 186.616119 
L 377.447161 186.498847 
L 377.616391 186.612741 
L 377.785621 186.498681 
L 377.954852 186.60941 
L 378.124082 186.498468 
L 378.293313 186.606126 
L 378.462543 186.498211 
L 378.631773 186.602886 
L 378.801004 186.49791 
L 378.970234 186.599689 
L 379.139464 186.497567 
L 379.308695 186.596534 
L 379.477925 186.497183 
L 379.647155 186.593418 
L 379.816386 186.496761 
L 379.985616 186.590342 
L 380.154846 186.4963 
L 380.324077 186.587303 
L 380.493307 186.495803 
L 380.662537 186.584301 
L 380.831768 186.49527 
L 381.000998 186.581334 
L 381.170228 186.494703 
L 381.339459 186.578401 
L 381.508689 186.494102 
L 381.67792 186.575502 
L 381.84715 186.493468 
L 382.01638 186.572636 
L 382.185611 186.492804 
L 382.354841 186.569801 
L 382.524071 186.492108 
L 382.693302 186.566996 
L 382.862532 186.491117 
L 383.031762 186.564198 
L 383.200993 186.490397 
L 383.370223 186.561436 
L 383.539453 186.489644 
L 383.708684 186.558706 
L 383.877914 186.488859 
L 384.047144 186.556008 
L 384.216375 186.488043 
L 384.385605 186.553125 
L 384.554836 186.487181 
L 384.724066 186.550513 
L 384.893296 186.486297 
L 385.062527 186.547923 
L 385.231757 186.485393 
L 385.400987 186.545356 
L 385.570218 186.484468 
L 385.739448 186.542814 
L 386.247139 186.482578 
L 386.75483 186.535407 
L 387.262521 186.479733 
L 387.770212 186.528304 
L 388.277903 186.476762 
L 388.785594 186.521383 
L 389.293285 186.473628 
L 389.800976 186.514614 
L 390.308667 186.470335 
L 390.816358 186.507976 
L 391.32405 186.466885 
L 391.831741 186.501445 
L 392.339432 186.463282 
L 392.847123 186.495025 
L 393.354814 186.459579 
L 393.862505 186.488747 
L 394.370196 186.455793 
L 394.877887 186.482587 
L 395.385578 186.451918 
L 396.23173 186.474526 
L 397.077881 186.445271 
L 397.924033 186.464663 
L 398.003009 186.441795 
L 398.003009 186.441795 
" style="fill:none;stroke:#0000ff;stroke-linecap:square;stroke-width:1.5;"/>
   </g>
   <g id="line2d_19">
    <path clip-path="url(#p368a1467d5)" d="M 59.543298 147.769534 
L 67.666355 128.173553 
L 90.173992 75.073387 
L 91.020143 73.038729 
L 91.189374 72.161808 
L 91.829525 64.126334 
L 91.998756 64.234736 
L 92.506447 65.587243 
L 94.706441 73.097228 
L 109.091021 122.418128 
L 124.660213 175.00211 
L 124.797389 175.780089 
L 125.13585 178.674926 
L 125.288367 179.139889 
L 125.780815 181.611754 
L 125.950045 181.966859 
L 126.119275 181.871471 
L 126.626967 180.917326 
L 128.657731 176.025081 
L 145.580766 134.57189 
L 160.303806 99.836813 
L 167.580711 82.548796 
L 171.64224 73.004264 
L 171.81147 72.018776 
L 172.496627 64.074024 
L 172.835088 64.740842 
L 173.85047 68.031452 
L 193.481191 135.121632 
L 205.327316 175.225456 
L 205.71267 178.318396 
L 206.285652 181.184802 
L 206.454883 181.765748 
L 206.624113 181.811288 
L 206.962574 181.282112 
L 207.977956 178.952809 
L 215.762552 159.807925 
L 227.608677 130.984885 
L 250.962465 75.859611 
L 252.147077 73.041207 
L 252.316308 72.172152 
L 253.016799 64.048979 
L 253.355259 64.752779 
L 254.370641 68.048987 
L 264.016771 101.372465 
L 271.124446 125.467263 
L 285.847487 175.248301 
L 286.304503 178.69437 
L 286.920475 181.671422 
L 287.089706 181.908662 
L 287.428166 181.482735 
L 288.274318 179.59259 
L 293.181998 167.537459 
L 307.397348 132.819802 
L 330.581906 78.048972 
L 332.7819 72.838471 
L 333.520269 64.149974 
L 333.85873 64.815972 
L 334.874112 68.102018 
L 357.043288 143.702278 
L 366.350957 175.346806 
L 366.688705 178.200121 
L 367.46257 181.778429 
L 367.6318 181.845589 
L 367.970261 181.326759 
L 368.985643 179.000866 
L 377.27793 158.608677 
L 388.785594 130.629773 
L 398.003009 108.844743 
L 398.003009 108.844743 
" style="fill:none;stroke:#008000;stroke-linecap:square;stroke-width:1.5;"/>
   </g>
   <g id="line2d_20">
    <path clip-path="url(#p368a1467d5)" d="M 42.620313 66.381913 
L 414.925994 66.381913 
" style="fill:none;stroke:#808080;stroke-dasharray:1.5,2.475;stroke-dashoffset:0;stroke-width:1.5;"/>
   </g>
   <g id="line2d_21">
    <path clip-path="url(#p368a1467d5)" d="M 42.620313 231.9 
L 414.925994 231.9 
" style="fill:none;stroke:#808080;stroke-dasharray:1.5,2.475;stroke-dashoffset:0;stroke-width:1.5;"/>
   </g>
   <g id="patch_3">
    <path d="M 42.620313 242.6 
L 42.620313 7.2 
" style="fill:none;stroke:#000000;stroke-linecap:square;stroke-linejoin:miter;stroke-width:0.8;"/>
   </g>
   <g id="patch_4">
    <path d="M 414.925994 242.6 
L 414.925994 7.2 
" style="fill:none;stroke:#000000;stroke-linecap:square;stroke-linejoin:miter;stroke-width:0.8;"/>
   </g>
   <g id="patch_5">
    <path d="M 42.620312 242.6 
L 414.925994 242.6 
" style="fill:none;stroke:#000000;stroke-linecap:square;stroke-linejoin:miter;stroke-width:0.8;"/>
   </g>
   <g id="patch_6">
    <path d="M 42.620312 7.2 
L 414.925994 7.2 
" style="fill:none;stroke:#000000;stroke-linecap:square;stroke-linejoin:miter;stroke-width:0.8;"/>
   </g>
   <g id="legend_1">
    <g id="patch_7">
     <path d="M 48.343369 89.59 
L 171.155869 89.59 
Q 173.155869 89.59 173.155869 87.59 
L 173.155869 44.555625 
Q 173.155869 42.555625 171.155869 42.555625 
L 48.343369 42.555625 
Q 46.343369 42.555625 46.343369 44.555625 
L 46.343369 87.59 
Q 46.343369 89.59 48.343369 89.59 
z
" style="fill:#ffffff;opacity:0.8;stroke:#cccccc;stroke-linejoin:miter;"/>
    </g>
    <g id="line2d_22">
     <path d="M 50.343369 50.654062 
L 70.343369 50.654062 
" style="fill:none;stroke:#ff0000;stroke-linecap:square;stroke-width:1.5;"/>
    </g>
    <g id="line2d_23"/>
    <g id="text_19">
     <!-- Vin [V] -->
     <g transform="translate(78.343369 54.154062)scale(0.1 -0.1)">
      <defs>
       <path d="M 3513 2113 
L 3513 0 
L 2938 0 
L 2938 2094 
Q 2938 2591 2744 2837 
Q 2550 3084 2163 3084 
Q 1697 3084 1428 2787 
Q 1159 2491 1159 1978 
L 1159 0 
L 581 0 
L 581 3500 
L 1159 3500 
L 1159 2956 
Q 1366 3272 1645 3428 
Q 1925 3584 2291 3584 
Q 2894 3584 3203 3211 
Q 3513 2838 3513 2113 
z
" id="DejaVuSans-6e" transform="scale(0.015625)"/>
      </defs>
      <use xlink:href="#DejaVuSans-56"/>
      <use x="66.158203" xlink:href="#DejaVuSans-69"/>
      <use x="93.941406" xlink:href="#DejaVuSans-6e"/>
      <use x="157.320312" xlink:href="#DejaVuSans-20"/>
      <use x="189.107422" xlink:href="#DejaVuSans-5b"/>
      <use x="228.121094" xlink:href="#DejaVuSans-56"/>
      <use x="296.529297" xlink:href="#DejaVuSans-5d"/>
     </g>
    </g>
    <g id="line2d_24">
     <path d="M 50.343369 65.332187 
L 70.343369 65.332187 
" style="fill:none;stroke:#0000ff;stroke-linecap:square;stroke-width:1.5;"/>
    </g>
    <g id="line2d_25"/>
    <g id="text_20">
     <!-- Vout (R2=100 kΩ) -->
     <g transform="translate(78.343369 68.832187)scale(0.1 -0.1)">
      <defs>
       <path d="M 1959 3097 
Q 1497 3097 1228 2736 
Q 959 2375 959 1747 
Q 959 1119 1226 758 
Q 1494 397 1959 397 
Q 2419 397 2687 759 
Q 2956 1122 2956 1747 
Q 2956 2369 2687 2733 
Q 2419 3097 1959 3097 
z
M 1959 3584 
Q 2709 3584 3137 3096 
Q 3566 2609 3566 1747 
Q 3566 888 3137 398 
Q 2709 -91 1959 -91 
Q 1206 -91 779 398 
Q 353 888 353 1747 
Q 353 2609 779 3096 
Q 1206 3584 1959 3584 
z
" id="DejaVuSans-6f" transform="scale(0.015625)"/>
       <path d="M 544 1381 
L 544 3500 
L 1119 3500 
L 1119 1403 
Q 1119 906 1312 657 
Q 1506 409 1894 409 
Q 2359 409 2629 706 
Q 2900 1003 2900 1516 
L 2900 3500 
L 3475 3500 
L 3475 0 
L 2900 0 
L 2900 538 
Q 2691 219 2414 64 
Q 2138 -91 1772 -91 
Q 1169 -91 856 284 
Q 544 659 544 1381 
z
M 1991 3584 
L 1991 3584 
z
" id="DejaVuSans-75" transform="scale(0.015625)"/>
       <path d="M 2841 2188 
Q 3044 2119 3236 1894 
Q 3428 1669 3622 1275 
L 4263 0 
L 3584 0 
L 2988 1197 
Q 2756 1666 2539 1819 
Q 2322 1972 1947 1972 
L 1259 1972 
L 1259 0 
L 628 0 
L 628 4666 
L 2053 4666 
Q 2853 4666 3247 4331 
Q 3641 3997 3641 3322 
Q 3641 2881 3436 2590 
Q 3231 2300 2841 2188 
z
M 1259 4147 
L 1259 2491 
L 2053 2491 
Q 2509 2491 2742 2702 
Q 2975 2913 2975 3322 
Q 2975 3731 2742 3939 
Q 2509 4147 2053 4147 
L 1259 4147 
z
" id="DejaVuSans-52" transform="scale(0.015625)"/>
       <path d="M 678 2906 
L 4684 2906 
L 4684 2381 
L 678 2381 
L 678 2906 
z
M 678 1631 
L 4684 1631 
L 4684 1100 
L 678 1100 
L 678 1631 
z
" id="DejaVuSans-3d" transform="scale(0.015625)"/>
       <path d="M 581 4863 
L 1159 4863 
L 1159 1991 
L 2875 3500 
L 3609 3500 
L 1753 1863 
L 3688 0 
L 2938 0 
L 1159 1709 
L 1159 0 
L 581 0 
L 581 4863 
z
" id="DejaVuSans-6b" transform="scale(0.015625)"/>
       <path d="M 4647 556 
L 4647 0 
L 2772 0 
L 2772 556 
Q 3325 859 3634 1378 
Q 3944 1897 3944 2528 
Q 3944 3278 3531 3731 
Q 3119 4184 2444 4184 
Q 1769 4184 1355 3729 
Q 941 3275 941 2528 
Q 941 1897 1250 1378 
Q 1563 859 2119 556 
L 2119 0 
L 244 0 
L 244 556 
L 1241 556 
Q 747 991 519 1456 
Q 294 1922 294 2497 
Q 294 3491 894 4106 
Q 1491 4722 2444 4722 
Q 3391 4722 3994 4106 
Q 4594 3494 4594 2528 
Q 4594 1922 4372 1459 
Q 4150 997 3647 556 
L 4647 556 
z
" id="DejaVuSans-3a9" transform="scale(0.015625)"/>
      </defs>
      <use xlink:href="#DejaVuSans-56"/>
      <use x="60.658203" xlink:href="#DejaVuSans-6f"/>
      <use x="121.839844" xlink:href="#DejaVuSans-75"/>
      <use x="185.21875" xlink:href="#DejaVuSans-74"/>
      <use x="224.427734" xlink:href="#DejaVuSans-20"/>
      <use x="256.214844" xlink:href="#DejaVuSans-28"/>
      <use x="295.228516" xlink:href="#DejaVuSans-52"/>
      <use x="364.710938" xlink:href="#DejaVuSans-32"/>
      <use x="428.333984" xlink:href="#DejaVuSans-3d"/>
      <use x="512.123047" xlink:href="#DejaVuSans-31"/>
      <use x="575.746094" xlink:href="#DejaVuSans-30"/>
      <use x="639.369141" xlink:href="#DejaVuSans-30"/>
      <use x="702.992188" xlink:href="#DejaVuSans-20"/>
      <use x="734.779297" xlink:href="#DejaVuSans-6b"/>
      <use x="792.689453" xlink:href="#DejaVuSans-3a9"/>
      <use x="869.105469" xlink:href="#DejaVuSans-29"/>
     </g>
    </g>
    <g id="line2d_26">
     <path d="M 50.343369 80.010312 
L 70.343369 80.010312 
" style="fill:none;stroke:#008000;stroke-linecap:square;stroke-width:1.5;"/>
    </g>
    <g id="line2d_27"/>
    <g id="text_21">
     <!-- Vout (R2=125 kΩ) -->
     <g transform="translate(78.343369 83.510312)scale(0.1 -0.1)">
      <use xlink:href="#DejaVuSans-56"/>
      <use x="60.658203" xlink:href="#DejaVuSans-6f"/>
      <use x="121.839844" xlink:href="#DejaVuSans-75"/>
      <use x="185.21875" xlink:href="#DejaVuSans-74"/>
      <use x="224.427734" xlink:href="#DejaVuSans-20"/>
      <use x="256.214844" xlink:href="#DejaVuSans-28"/>
      <use x="295.228516" xlink:href="#DejaVuSans-52"/>
      <use x="364.710938" xlink:href="#DejaVuSans-32"/>
      <use x="428.333984" xlink:href="#DejaVuSans-3d"/>
      <use x="512.123047" xlink:href="#DejaVuSans-31"/>
      <use x="575.746094" xlink:href="#DejaVuSans-32"/>
      <use x="639.369141" xlink:href="#DejaVuSans-35"/>
      <use x="702.992188" xlink:href="#DejaVuSans-20"/>
      <use x="734.779297" xlink:href="#DejaVuSans-6b"/>
      <use x="792.689453" xlink:href="#DejaVuSans-3a9"/>
      <use x="869.105469" xlink:href="#DejaVuSans-29"/>
     </g>
    </g>
   </g>
  </g>
 </g>
 <defs>
  <clipPath id="p368a1467d5">
   <rect height="235.4" width="372.305682" x="42.620313" y="7.2"/>
  </clipPath>
 </defs>
</svg>
