<?xml version="1.0" encoding="utf-8" standalone="no"?>
<!DOCTYPE svg PUBLIC "-//W3C//DTD SVG 1.1//EN"
  "http://www.w3.org/Graphics/SVG/1.1/DTD/svg11.dtd">
<svg height="304.1344pt" version="1.1" viewBox="0 0 322.47264 304.1344" width="322.47264pt" xmlns="http://www.w3.org/2000/svg" xmlns:xlink="http://www.w3.org/1999/xlink">
 <metadata>
  <rdf:RDF xmlns:cc="http://creativecommons.org/ns#" xmlns:dc="http://purl.org/dc/elements/1.1/" xmlns:rdf="http://www.w3.org/1999/02/22-rdf-syntax-ns#">
   <cc:Work>
    <dc:type rdf:resource="http://purl.org/dc/dcmitype/StillImage"/>
    <dc:date>2021-04-05T13:03:58.969384</dc:date>
    <dc:format>image/svg+xml</dc:format>
    <dc:creator>
     <cc:Agent>
      <dc:title>Matplotlib v3.4.1, https://matplotlib.org/</dc:title>
     </cc:Agent>
    </dc:creator>
   </cc:Work>
  </rdf:RDF>
 </metadata>
 <defs>
  <style type="text/css">*{stroke-linecap:butt;stroke-linejoin:round;}</style>
 </defs>
 <g id="figure_1">
  <g id="patch_1">
   <path d="M 0 304.1344 
L 322.47264 304.1344 
L 322.47264 0 
L 0 0 
z
" style="fill:none;"/>
  </g>
  <g id="axes_1">
   <g id="line2d_1">
    <path clip-path="url(#p6cbf6cc65a)" d="M 51.14976 138.304 
L 66.44976 138.304 
L 81.74976 138.304 
" style="fill:none;stroke:#000000;stroke-linecap:round;stroke-width:1.2;"/>
   </g>
   <g id="line2d_2">
    <path clip-path="url(#p6cbf6cc65a)" d="M 81.74976 138.304 
L 122.14176 138.304 
L 140.99136 138.304 
M 175.99776 138.304 
L 216.38976 138.304 
" style="fill:none;stroke:#000000;stroke-linecap:round;stroke-width:1.2;"/>
   </g>
   <g id="line2d_3">
    <path clip-path="url(#p6cbf6cc65a)" d="M 175.99776 138.304 
L 194.84736 138.304 
" style="fill:none;stroke:#000000;stroke-linecap:round;stroke-width:1.2;"/>
   </g>
   <g id="line2d_4">
    <path clip-path="url(#p6cbf6cc65a)" d="M 140.99136 138.304 
L 140.99136 165.232 
L 175.99776 138.304 
L 140.99136 111.376 
L 140.99136 138.304 
" style="fill:none;stroke:#000000;stroke-linecap:round;stroke-width:1.2;"/>
   </g>
   <g id="line2d_5">
    <path clip-path="url(#p6cbf6cc65a)" d="M 144.76128 146.3824 
L 154.45536 146.3824 
L 154.45536 130.2256 
M 158.76384 130.2256 
L 149.06976 130.2256 
L 149.06976 146.3824 
" style="fill:none;stroke:#000000;stroke-linecap:round;"/>
   </g>
   <g id="line2d_6">
    <path clip-path="url(#p6cbf6cc65a)" d="M 81.74976 138.304 
L 81.74976 195.0976 
M 93.98976 195.0976 
L 69.50976 195.0976 
M 93.98976 203.9104 
L 69.50976 203.9104 
M 81.74976 203.9104 
L 81.74976 260.704 
" style="fill:none;stroke:#000000;stroke-linecap:round;stroke-width:1.2;"/>
   </g>
   <g id="line2d_7">
    <path clip-path="url(#p6cbf6cc65a)" d="M 81.74976 260.704 
L 81.74976 280.288 
L 69.50976 280.288 
L 93.98976 280.288 
M 73.18176 286.1632 
L 90.31776 286.1632 
M 79.30176 292.0384 
L 84.19776 292.0384 
" style="fill:none;stroke:#000000;stroke-linecap:round;stroke-width:1.2;"/>
   </g>
   <g id="line2d_8">
    <path clip-path="url(#p6cbf6cc65a)" d="M 81.74976 138.304 
L 81.74976 107.704 
L 81.74976 77.104 
" style="fill:none;stroke:#000000;stroke-linecap:round;stroke-width:1.2;"/>
   </g>
   <g id="line2d_9">
    <path clip-path="url(#p6cbf6cc65a)" d="M 81.74976 77.104 
L 118.46976 77.104 
L 122.54976 64.864 
L 130.70976 89.344 
L 138.86976 64.864 
L 147.02976 89.344 
L 155.18976 64.864 
L 163.34976 89.344 
L 167.42976 77.104 
L 204.14976 77.104 
" style="fill:none;stroke:#000000;stroke-linecap:round;stroke-width:1.2;"/>
   </g>
   <g id="line2d_10">
    <path clip-path="url(#p6cbf6cc65a)" d="M 204.14976 77.104 
L 204.14976 107.704 
L 204.14976 138.304 
" style="fill:none;stroke:#000000;stroke-linecap:round;stroke-width:1.2;"/>
   </g>
   <g id="line2d_11">
    <path clip-path="url(#p6cbf6cc65a)" d="M 221.77536 138.304 
L 237.07536 138.304 
L 252.37536 138.304 
" style="fill:none;stroke:#000000;stroke-linecap:round;stroke-width:1.2;"/>
   </g>
   <g id="text_1">
    <!-- $C_1$ -->
    <g transform="translate(48.09376 195.528656)scale(0.14 -0.14)">
     <defs>
      <path d="M 4447 4306 
L 4319 3641 
Q 4019 3944 3683 4091 
Q 3347 4238 2956 4238 
Q 2422 4238 2017 3981 
Q 1613 3725 1319 3200 
Q 1131 2863 1032 2486 
Q 934 2109 934 1728 
Q 934 1091 1264 756 
Q 1594 422 2222 422 
Q 2656 422 3056 561 
Q 3456 700 3834 978 
L 3688 231 
Q 3316 72 2936 -9 
Q 2556 -91 2175 -91 
Q 1278 -91 773 396 
Q 269 884 269 1753 
Q 269 2309 461 2846 
Q 653 3384 1013 3828 
Q 1394 4300 1883 4525 
Q 2372 4750 3022 4750 
Q 3422 4750 3780 4639 
Q 4138 4528 4447 4306 
z
" id="DejaVuSans-Oblique-43" transform="scale(0.015625)"/>
      <path d="M 794 531 
L 1825 531 
L 1825 4091 
L 703 3866 
L 703 4441 
L 1819 4666 
L 2450 4666 
L 2450 531 
L 3481 531 
L 3481 0 
L 794 0 
L 794 531 
z
" id="DejaVuSans-31" transform="scale(0.015625)"/>
     </defs>
     <use transform="translate(0 0.78125)" xlink:href="#DejaVuSans-Oblique-43"/>
     <use transform="translate(69.824219 -15.625)scale(0.7)" xlink:href="#DejaVuSans-31"/>
    </g>
    <!-- 0.1u -->
    <g transform="translate(33.476885 211.205594)scale(0.14 -0.14)">
     <defs>
      <path d="M 2034 4250 
Q 1547 4250 1301 3770 
Q 1056 3291 1056 2328 
Q 1056 1369 1301 889 
Q 1547 409 2034 409 
Q 2525 409 2770 889 
Q 3016 1369 3016 2328 
Q 3016 3291 2770 3770 
Q 2525 4250 2034 4250 
z
M 2034 4750 
Q 2819 4750 3233 4129 
Q 3647 3509 3647 2328 
Q 3647 1150 3233 529 
Q 2819 -91 2034 -91 
Q 1250 -91 836 529 
Q 422 1150 422 2328 
Q 422 3509 836 4129 
Q 1250 4750 2034 4750 
z
" id="DejaVuSans-30" transform="scale(0.015625)"/>
      <path d="M 684 794 
L 1344 794 
L 1344 0 
L 684 0 
L 684 794 
z
" id="DejaVuSans-2e" transform="scale(0.015625)"/>
      <path d="M 544 1381 
L 544 3500 
L 1119 3500 
L 1119 1403 
Q 1119 906 1312 657 
Q 1506 409 1894 409 
Q 2359 409 2629 706 
Q 2900 1003 2900 1516 
L 2900 3500 
L 3475 3500 
L 3475 0 
L 2900 0 
L 2900 538 
Q 2691 219 2414 64 
Q 2138 -91 1772 -91 
Q 1169 -91 856 284 
Q 544 659 544 1381 
z
M 1991 3584 
L 1991 3584 
z
" id="DejaVuSans-75" transform="scale(0.015625)"/>
     </defs>
     <use xlink:href="#DejaVuSans-30"/>
     <use x="63.623047" xlink:href="#DejaVuSans-2e"/>
     <use x="95.410156" xlink:href="#DejaVuSans-31"/>
     <use x="159.033203" xlink:href="#DejaVuSans-75"/>
    </g>
   </g>
   <g id="text_2">
    <!-- $R_1$ -->
    <g transform="translate(134.75976 41.3795)scale(0.14 -0.14)">
     <defs>
      <path d="M 1613 4147 
L 1294 2491 
L 2106 2491 
Q 2584 2491 2879 2755 
Q 3175 3019 3175 3444 
Q 3175 3784 2976 3965 
Q 2778 4147 2406 4147 
L 1613 4147 
z
M 2772 2241 
Q 2972 2194 3105 2009 
Q 3238 1825 3413 1275 
L 3809 0 
L 3144 0 
L 2778 1197 
Q 2638 1659 2453 1815 
Q 2269 1972 1888 1972 
L 1191 1972 
L 806 0 
L 172 0 
L 1081 4666 
L 2503 4666 
Q 3150 4666 3495 4373 
Q 3841 4081 3841 3531 
Q 3841 3044 3547 2687 
Q 3253 2331 2772 2241 
z
" id="DejaVuSans-Oblique-52" transform="scale(0.015625)"/>
     </defs>
     <use transform="translate(0 0.09375)" xlink:href="#DejaVuSans-Oblique-52"/>
     <use transform="translate(69.482422 -16.3125)scale(0.7)" xlink:href="#DejaVuSans-31"/>
    </g>
    <!-- 100k -->
    <g transform="translate(125.535073 57.056437)scale(0.14 -0.14)">
     <defs>
      <path d="M 581 4863 
L 1159 4863 
L 1159 1991 
L 2875 3500 
L 3609 3500 
L 1753 1863 
L 3688 0 
L 2938 0 
L 1159 1709 
L 1159 0 
L 581 0 
L 581 4863 
z
" id="DejaVuSans-6b" transform="scale(0.015625)"/>
     </defs>
     <use xlink:href="#DejaVuSans-31"/>
     <use x="63.623047" xlink:href="#DejaVuSans-30"/>
     <use x="127.246094" xlink:href="#DejaVuSans-30"/>
     <use x="190.869141" xlink:href="#DejaVuSans-6b"/>
    </g>
   </g>
   <g id="patch_2">
    <path clip-path="url(#p6cbf6cc65a)" d="M 51.14976 141.976 
C 52.123586 141.976 53.057657 141.589095 53.746256 140.900496 
C 54.434855 140.211897 54.82176 139.277826 54.82176 138.304 
C 54.82176 137.330174 54.434855 136.396103 53.746256 135.707504 
C 53.057657 135.018905 52.123586 134.632 51.14976 134.632 
C 50.175934 134.632 49.241863 135.018905 48.553264 135.707504 
C 47.864665 136.396103 47.47776 137.330174 47.47776 138.304 
C 47.47776 139.277826 47.864665 140.211897 48.553264 140.900496 
C 49.241863 141.589095 50.175934 141.976 51.14976 141.976 
z
" style="fill:#ffffff;stroke:#000000;stroke-linejoin:miter;stroke-width:1.2;"/>
   </g>
   <g id="patch_3">
    <path clip-path="url(#p6cbf6cc65a)" d="M 81.74976 141.976 
C 82.723586 141.976 83.657657 141.589095 84.346256 140.900496 
C 85.034855 140.211897 85.42176 139.277826 85.42176 138.304 
C 85.42176 137.330174 85.034855 136.396103 84.346256 135.707504 
C 83.657657 135.018905 82.723586 134.632 81.74976 134.632 
C 80.775934 134.632 79.841863 135.018905 79.153264 135.707504 
C 78.464665 136.396103 78.07776 137.330174 78.07776 138.304 
C 78.07776 139.277826 78.464665 140.211897 79.153264 140.900496 
C 79.841863 141.589095 80.775934 141.976 81.74976 141.976 
z
" style="stroke:#000000;stroke-linejoin:miter;stroke-width:1.2;"/>
   </g>
   <g id="patch_4">
    <path clip-path="url(#p6cbf6cc65a)" d="M 204.14976 141.976 
C 205.123586 141.976 206.057657 141.589095 206.746256 140.900496 
C 207.434855 140.211897 207.82176 139.277826 207.82176 138.304 
C 207.82176 137.330174 207.434855 136.396103 206.746256 135.707504 
C 206.057657 135.018905 205.123586 134.632 204.14976 134.632 
C 203.175934 134.632 202.241863 135.018905 201.553264 135.707504 
C 200.864665 136.396103 200.47776 137.330174 200.47776 138.304 
C 200.47776 139.277826 200.864665 140.211897 201.553264 140.900496 
C 202.241863 141.589095 203.175934 141.976 204.14976 141.976 
z
" style="stroke:#000000;stroke-linejoin:miter;stroke-width:1.2;"/>
   </g>
   <g id="patch_5">
    <path clip-path="url(#p6cbf6cc65a)" d="M 252.37536 141.976 
C 253.349186 141.976 254.283257 141.589095 254.971856 140.900496 
C 255.660455 140.211897 256.04736 139.277826 256.04736 138.304 
C 256.04736 137.330174 255.660455 136.396103 254.971856 135.707504 
C 254.283257 135.018905 253.349186 134.632 252.37536 134.632 
C 251.401534 134.632 250.467463 135.018905 249.778864 135.707504 
C 249.090265 136.396103 248.70336 137.330174 248.70336 138.304 
C 248.70336 139.277826 249.090265 140.211897 249.778864 140.900496 
C 250.467463 141.589095 251.401534 141.976 252.37536 141.976 
z
" style="fill:#ffffff;stroke:#000000;stroke-linejoin:miter;stroke-width:1.2;"/>
   </g>
   <g id="text_3">
    <!-- CV -->
    <g transform="translate(23.228948 142.167125)scale(0.14 -0.14)">
     <defs>
      <path d="M 4122 4306 
L 4122 3641 
Q 3803 3938 3442 4084 
Q 3081 4231 2675 4231 
Q 1875 4231 1450 3742 
Q 1025 3253 1025 2328 
Q 1025 1406 1450 917 
Q 1875 428 2675 428 
Q 3081 428 3442 575 
Q 3803 722 4122 1019 
L 4122 359 
Q 3791 134 3420 21 
Q 3050 -91 2638 -91 
Q 1578 -91 968 557 
Q 359 1206 359 2328 
Q 359 3453 968 4101 
Q 1578 4750 2638 4750 
Q 3056 4750 3426 4639 
Q 3797 4528 4122 4306 
z
" id="DejaVuSans-43" transform="scale(0.015625)"/>
      <path d="M 1831 0 
L 50 4666 
L 709 4666 
L 2188 738 
L 3669 4666 
L 4325 4666 
L 2547 0 
L 1831 0 
z
" id="DejaVuSans-56" transform="scale(0.015625)"/>
     </defs>
     <use xlink:href="#DejaVuSans-43"/>
     <use x="69.824219" xlink:href="#DejaVuSans-56"/>
    </g>
   </g>
   <g id="text_4">
    <!-- OUT -->
    <g transform="translate(260.94336 142.167125)scale(0.14 -0.14)">
     <defs>
      <path d="M 2522 4238 
Q 1834 4238 1429 3725 
Q 1025 3213 1025 2328 
Q 1025 1447 1429 934 
Q 1834 422 2522 422 
Q 3209 422 3611 934 
Q 4013 1447 4013 2328 
Q 4013 3213 3611 3725 
Q 3209 4238 2522 4238 
z
M 2522 4750 
Q 3503 4750 4090 4092 
Q 4678 3434 4678 2328 
Q 4678 1225 4090 567 
Q 3503 -91 2522 -91 
Q 1538 -91 948 565 
Q 359 1222 359 2328 
Q 359 3434 948 4092 
Q 1538 4750 2522 4750 
z
" id="DejaVuSans-4f" transform="scale(0.015625)"/>
      <path d="M 556 4666 
L 1191 4666 
L 1191 1831 
Q 1191 1081 1462 751 
Q 1734 422 2344 422 
Q 2950 422 3222 751 
Q 3494 1081 3494 1831 
L 3494 4666 
L 4128 4666 
L 4128 1753 
Q 4128 841 3676 375 
Q 3225 -91 2344 -91 
Q 1459 -91 1007 375 
Q 556 841 556 1753 
L 556 4666 
z
" id="DejaVuSans-55" transform="scale(0.015625)"/>
      <path d="M -19 4666 
L 3928 4666 
L 3928 4134 
L 2272 4134 
L 2272 0 
L 1638 0 
L 1638 4134 
L -19 4134 
L -19 4666 
z
" id="DejaVuSans-54" transform="scale(0.015625)"/>
     </defs>
     <use xlink:href="#DejaVuSans-4f"/>
     <use x="78.710938" xlink:href="#DejaVuSans-55"/>
     <use x="151.904297" xlink:href="#DejaVuSans-54"/>
    </g>
   </g>
  </g>
 </g>
 <defs>
  <clipPath id="p6cbf6cc65a">
   <rect height="289.7344" width="308.07264" x="7.2" y="7.2"/>
  </clipPath>
 </defs>
</svg>
