<?xml version="1.0" standalone="no"?>
 <!DOCTYPE svg PUBLIC "-//W3C//DTD SVG 1.1//EN" 
 "http://www.w3.org/Graphics/SVG/1.1/DTD/svg11.dtd"> 
<svg
  xmlns:svg="http://www.w3.org/2000/svg"
  xmlns="http://www.w3.org/2000/svg"
  xmlns:xlink="http://www.w3.org/1999/xlink"
  version="1.1"
  width="297.0022mm" height="210.0072mm" viewBox="0.0000 0.0000 297.0022 210.0072">
<title>SVG Image created as main-Dwgs_User.svg date 2023/11/06 07:06:10 </title>
  <desc>Image generated by PCBNEW </desc>
<g style="fill:#000000; fill-opacity:1.0000;stroke:#000000; stroke-opacity:1.0000;
stroke-linecap:round; stroke-linejoin:round;"
 transform="translate(0 0) scale(1 1)">
</g>
<g style="fill:#000000; fill-opacity:0.0; 
stroke:#000000; stroke-width:0.0000; stroke-opacity:1; 
stroke-linecap:round; stroke-linejoin:round;">
</g>
<g style="fill:#000000; fill-opacity:0.0; 
stroke:#000000; stroke-width:0.1500; stroke-opacity:1; 
stroke-linecap:round; stroke-linejoin:round;">
<path d="M106.9340 78.4860
L106.6800 78.4860
" />
</g>
<g style="fill:#000000; fill-opacity:0.0; 
stroke:#000000; stroke-width:0.1200; stroke-opacity:1; 
stroke-linecap:round; stroke-linejoin:round;">
<path d="M101.5280 51.1340
L103.4680 49.1940
" />
<path d="M102.1980 51.2640
L103.5880 49.8740
" />
<path d="M101.0380 50.7940
L103.1180 48.7140
" />
<path d="M100.6980 49.3240
L101.6480 48.3740
" />
<path d="M100.6880 50.1790
L102.5080 48.3640
" />
<circle cx="102.1080" cy="49.7840" r="1.5000" /> 
<path d="M116.4360 50.1790
L118.2560 48.3640
" />
<path d="M117.2760 51.1340
L119.2160 49.1940
" />
<path d="M116.7860 50.7940
L118.8660 48.7140
" />
<path d="M116.4460 49.3240
L117.3960 48.3740
" />
<path d="M117.9460 51.2640
L119.3360 49.8740
" />
<circle cx="117.8560" cy="49.7840" r="1.5000" /> 
<path d="M163.6800 50.1790
L165.5000 48.3640
" />
<path d="M165.1900 51.2640
L166.5800 49.8740
" />
<path d="M164.0300 50.7940
L166.1100 48.7140
" />
<path d="M164.5200 51.1340
L166.4600 49.1940
" />
<path d="M163.6900 49.3240
L164.6400 48.3740
" />
<circle cx="165.1000" cy="49.7840" r="1.5000" /> 
<path d="M132.5340 50.7940
L134.6140 48.7140
" />
<path d="M132.1840 50.1790
L134.0040 48.3640
" />
<path d="M132.1940 49.3240
L133.1440 48.3740
" />
<path d="M133.0240 51.1340
L134.9640 49.1940
" />
<path d="M133.6940 51.2640
L135.0840 49.8740
" />
<circle cx="133.6040" cy="49.7840" r="1.5000" /> 
<path d="M147.9420 49.3240
L148.8920 48.3740
" />
<path d="M147.9320 50.1790
L149.7520 48.3640
" />
<path d="M148.2820 50.7940
L150.3620 48.7140
" />
<path d="M148.7720 51.1340
L150.7120 49.1940
" />
<path d="M149.4420 51.2640
L150.8320 49.8740
" />
<circle cx="149.3520" cy="49.7840" r="1.5000" /> 
<path d="M180.9380 51.2640
L182.3280 49.8740
" />
<path d="M180.2680 51.1340
L182.2080 49.1940
" />
<path d="M179.7780 50.7940
L181.8580 48.7140
" />
<path d="M179.4280 50.1790
L181.2480 48.3640
" />
<path d="M179.4380 49.3240
L180.3880 48.3740
" />
<circle cx="180.8480" cy="49.7840" r="1.5000" /> 
<g >
</g>
<g >
</g>
<g >
</g>
<g >
</g>
<g >
</g>
<g >
</g>
<g >
</g>
<g >
</g>
<g >
</g>
<g >
</g>
<g >
</g>
<g >
</g>
<g >
</g>
<g >
</g>
<g >
</g>
<g >
</g>
<g >
</g>
<g >
</g>
<g >
</g>
<g >
</g>
<g >
</g>
<g >
</g>
<g >
</g>
<g >
</g>
<g >
</g>
<g >
</g>
<g >
</g>
<g >
</g>
<g >
</g>
<g >
</g>
<g >
</g>
<g >
</g>
<g >
</g>
<g >
</g>
<g >
</g>
<g >
</g>
<g >
</g>
<g >
</g>
<g >
</g>
<g >
</g>
<g >
</g>
<g >
</g>
<g >
</g>
<g >
</g>
<g >
</g>
<g >
</g>
<g >
</g>
<g >
</g>
<g >
</g>
</g> 
</svg>
