<?xml version="1.0" standalone="no"?>
 <!DOCTYPE svg PUBLIC "-//W3C//DTD SVG 1.1//EN" 
 "http://www.w3.org/Graphics/SVG/1.1/DTD/svg11.dtd"> 
<svg
  xmlns:svg="http://www.w3.org/2000/svg"
  xmlns="http://www.w3.org/2000/svg"
  xmlns:xlink="http://www.w3.org/1999/xlink"
  version="1.1"
  width="297.0022mm" height="210.0072mm" viewBox="0.0000 0.0000 297.0022 210.0072">
<title>SVG Image created as panel-F_Cu.svg date 2023/11/06 21:18:12 </title>
  <desc>Image generated by PCBNEW </desc>
<g style="fill:#000000; fill-opacity:1.0000;stroke:#000000; stroke-opacity:1.0000;
stroke-linecap:round; stroke-linejoin:round;"
 transform="translate(0 0) scale(1 1)">
</g>
<g style="fill:#000000; fill-opacity:0.0; 
stroke:#000000; stroke-width:0.0000; stroke-opacity:1; 
stroke-linecap:round; stroke-linejoin:round;">
</g>
<g style="fill:#000000; fill-opacity:0.0; 
stroke:#000000; stroke-width:0.2500; stroke-opacity:1; 
stroke-linecap:round; stroke-linejoin:round;">
</g>
<g style="fill:#000000; fill-opacity:1.0000; 
stroke:#000000; stroke-width:0.0000; stroke-opacity:1; 
stroke-linecap:round; stroke-linejoin:round;">
<path style="fill:#000000; fill-opacity:1.0000; 
stroke:#000000; stroke-width:0.0000; stroke-opacity:1; 
stroke-linecap:round; stroke-linejoin:round;fill-rule:evenodd;"
d="M 61.8359,127.3057
60.0837,127.3057
60.0837,124.9129
60.3694,124.9129
60.3791,124.9471
60.8350,125.9704
60.8350,126.8962
60.8548,126.9638
60.9081,127.0099
60.9778,127.0200
61.0419,126.9907
61.0799,126.9315
61.0850,126.8962
61.0850,125.9704
61.5408,124.9471
61.5502,124.8773
61.5204,124.8135
61.4608,124.7760
61.3903,124.7766
61.3314,124.8153
61.3125,124.8454
60.9600,125.6367
60.6075,124.8454
60.5619,124.7917
60.4945,124.7712
60.4267,124.7905
60.3801,124.8433
60.3694,124.9129
60.0837,124.9129
60.0837,124.4855
61.8359,124.4855
Z" /> 
</g>
<g style="fill:#000000; fill-opacity:1.0000; 
stroke:#000000; stroke-width:0.2500; stroke-opacity:1; 
stroke-linecap:round; stroke-linejoin:round;">
</g>
<g style="fill:#000000; fill-opacity:1.0000; 
stroke:#000000; stroke-width:0.0000; stroke-opacity:1; 
stroke-linecap:round; stroke-linejoin:round;">
<path style="fill:#000000; fill-opacity:1.0000; 
stroke:#000000; stroke-width:0.0000; stroke-opacity:1; 
stroke-linecap:round; stroke-linejoin:round;fill-rule:evenodd;"
d="M 60.0699,166.3874
60.1144,166.4509
60.1683,166.6051
60.1683,167.1340
60.1144,167.2882
60.0699,167.3517
59.9866,167.4112
59.8667,167.4112
59.7834,167.3517
59.7390,167.2882
59.6850,167.1340
59.6850,166.6051
59.7390,166.4509
59.7834,166.3874
59.8667,166.3279
59.9866,166.3279
Z" /> 
<path style="fill:#000000; fill-opacity:1.0000; 
stroke:#000000; stroke-width:0.0000; stroke-opacity:1; 
stroke-linecap:round; stroke-linejoin:round;fill-rule:evenodd;"
d="M 62.9028,167.9470
59.1493,167.9470
59.1493,167.1553
59.4350,167.1553
59.4359,167.1585
59.4352,167.1617
59.4420,167.1966
59.5087,167.3871
59.5094,167.3881
59.5243,167.4174
59.5909,167.5127
59.5937,167.5149
59.5950,167.5181
59.6207,167.5427
59.7540,167.6380
59.7738,167.6448
59.7914,167.6562
59.8169,167.6598
59.8205,167.6611
59.8224,167.6606
59.8267,167.6612
60.0267,167.6612
60.0468,167.6553
60.0677,167.6543
60.0906,167.6425
60.0942,167.6414
60.0955,167.6399
60.0993,167.6380
60.2327,167.5427
60.2348,167.5400
60.2381,167.5386
60.2624,167.5127
60.3291,167.4174
60.3295,167.4162
60.3446,167.3871
60.3924,167.2505
60.7683,167.2505
60.7693,167.2537
60.7685,167.2569
60.7754,167.2918
60.8420,167.4823
60.8540,167.4990
60.8616,167.5181
60.8810,167.5367
60.8831,167.5395
60.8847,167.5402
60.8873,167.5427
61.0207,167.6380
61.0405,167.6448
61.0581,167.6562
61.0836,167.6598
61.0872,167.6611
61.0891,167.6606
61.0933,167.6612
61.2933,167.6612
61.3134,167.6553
61.3344,167.6543
61.3573,167.6425
61.3609,167.6414
61.3622,167.6399
61.3660,167.6380
61.3997,167.6138
61.4414,167.6499
61.5111,167.6600
61.5752,167.6307
61.6133,167.5715
61.6183,167.5362
61.6183,166.2207
61.8363,166.2207
61.8655,166.2848
61.9248,166.3228
61.9600,166.3279
62.0350,166.3279
62.0350,167.2505
62.0359,167.2537
62.0352,167.2569
62.0420,167.2918
62.1087,167.4823
62.1207,167.4990
62.1283,167.5181
62.1477,167.5367
62.1497,167.5395
62.1513,167.5402
62.1540,167.5427
62.2873,167.6380
62.3071,167.6448
62.3248,167.6562
62.3503,167.6598
62.3539,167.6611
62.3558,167.6606
62.3600,167.6612
62.4933,167.6612
62.5609,167.6414
62.6070,167.5882
62.6171,167.5184
62.5878,167.4544
62.5285,167.4163
62.4933,167.4112
62.4001,167.4112
62.3316,167.3623
62.2850,167.2293
62.2850,166.3279
62.4933,166.3279
62.5609,166.3081
62.6070,166.2548
62.6171,166.1851
62.5878,166.1210
62.5285,166.0830
62.4933,166.0779
62.2850,166.0779
62.2850,165.5362
62.2652,165.4687
62.2119,165.4225
62.1422,165.4125
62.0781,165.4418
62.0401,165.5010
62.0350,165.5362
62.0350,166.0779
61.9600,166.0779
61.8924,166.0977
61.8463,166.1510
61.8363,166.2207
61.6183,166.2207
61.6183,166.2029
61.5985,166.1353
61.5453,166.0892
61.4755,166.0792
61.4115,166.1084
61.3734,166.1677
61.3683,166.2029
61.3683,167.3064
61.3366,167.3517
61.2533,167.4112
61.1334,167.4112
61.0649,167.3623
61.0183,167.2293
61.0183,166.2029
60.9985,166.1353
60.9453,166.0892
60.8755,166.0792
60.8115,166.1084
60.7734,166.1677
60.7683,166.2029
60.7683,167.2505
60.3924,167.2505
60.4113,167.1966
60.4115,167.1933
60.4133,167.1905
60.4183,167.1553
60.4183,166.5839
60.4174,166.5807
60.4182,166.5775
60.4113,166.5426
60.3446,166.3521
60.3439,166.3510
60.3291,166.3217
60.2624,166.2265
60.2597,166.2243
60.2584,166.2210
60.2327,166.1964
60.0993,166.1012
60.0795,166.0943
60.0619,166.0830
60.0364,166.0793
60.0328,166.0781
60.0309,166.0785
60.0267,166.0779
59.8267,166.0779
59.8066,166.0838
59.7856,166.0848
59.7627,166.0967
59.7591,166.0977
59.7578,166.0992
59.7540,166.1012
59.6207,166.1964
59.6185,166.1992
59.6153,166.2005
59.5909,166.2265
59.5243,166.3217
59.5239,166.3229
59.5087,166.3521
59.4420,166.5426
59.4418,166.5459
59.4401,166.5486
59.4350,166.5839
59.4350,167.1553
59.1493,167.1553
59.1493,165.1268
62.9028,165.1268
Z" /> 
</g>
<g style="fill:#000000; fill-opacity:1.0000; 
stroke:#000000; stroke-width:0.2500; stroke-opacity:1; 
stroke-linecap:round; stroke-linejoin:round;">
</g>
<g style="fill:#000000; fill-opacity:1.0000; 
stroke:#000000; stroke-width:0.0000; stroke-opacity:1; 
stroke-linecap:round; stroke-linejoin:round;">
<path style="fill:#000000; fill-opacity:1.0000; 
stroke:#000000; stroke-width:0.0000; stroke-opacity:1; 
stroke-linecap:round; stroke-linejoin:round;fill-rule:evenodd;"
d="M 82.1559,127.3057
80.4037,127.3057
80.4037,124.9129
80.6894,124.9129
80.6991,124.9471
81.1550,125.9704
81.1550,126.8962
81.1748,126.9638
81.2281,127.0099
81.2978,127.0200
81.3619,126.9907
81.3999,126.9315
81.4050,126.8962
81.4050,125.9704
81.8608,124.9471
81.8702,124.8773
81.8404,124.8135
81.7808,124.7760
81.7103,124.7766
81.6514,124.8153
81.6325,124.8454
81.2800,125.6367
80.9275,124.8454
80.8819,124.7917
80.8145,124.7712
80.7467,124.7905
80.7001,124.8433
80.6894,124.9129
80.4037,124.9129
80.4037,124.4855
82.1559,124.4855
Z" /> 
</g>
<g style="fill:#000000; fill-opacity:1.0000; 
stroke:#000000; stroke-width:0.3000; stroke-opacity:1; 
stroke-linecap:round; stroke-linejoin:round;">
</g>
<g style="fill:#000000; fill-opacity:0.0; 
stroke:#000000; stroke-width:0.3000; stroke-opacity:1; 
stroke-linecap:round; stroke-linejoin:round;">
<text x="86.1060" y="177.7880"
textLength="4.9571" font-size="2.0000" lengthAdjust="spacingAndGlyphs"
text-anchor="middle" opacity="0">R02</text>
<g class="stroked-text"><desc>R02</desc>
<path d="M85.1417 177.7163
L84.6417 177.0020
" />
<path d="M84.2846 177.7163
L84.2846 176.2163
" />
<path d="M84.2846 176.2163
L84.8560 176.2163
" />
<path d="M84.8560 176.2163
L84.9989 176.2878
" />
<path d="M84.9989 176.2878
L85.0703 176.3592
" />
<path d="M85.0703 176.3592
L85.1417 176.5020
" />
<path d="M85.1417 176.5020
L85.1417 176.7163
" />
<path d="M85.1417 176.7163
L85.0703 176.8592
" />
<path d="M85.0703 176.8592
L84.9989 176.9306
" />
<path d="M84.9989 176.9306
L84.8560 177.0020
" />
<path d="M84.8560 177.0020
L84.2846 177.0020
" />
<path d="M86.0703 176.2163
L86.2131 176.2163
" />
<path d="M86.2131 176.2163
L86.3560 176.2878
" />
<path d="M86.3560 176.2878
L86.4274 176.3592
" />
<path d="M86.4274 176.3592
L86.4989 176.5020
" />
<path d="M86.4989 176.5020
L86.5703 176.7878
" />
<path d="M86.5703 176.7878
L86.5703 177.1449
" />
<path d="M86.5703 177.1449
L86.4989 177.4306
" />
<path d="M86.4989 177.4306
L86.4274 177.5735
" />
<path d="M86.4274 177.5735
L86.3560 177.6449
" />
<path d="M86.3560 177.6449
L86.2131 177.7163
" />
<path d="M86.2131 177.7163
L86.0703 177.7163
" />
<path d="M86.0703 177.7163
L85.9274 177.6449
" />
<path d="M85.9274 177.6449
L85.8560 177.5735
" />
<path d="M85.8560 177.5735
L85.7846 177.4306
" />
<path d="M85.7846 177.4306
L85.7131 177.1449
" />
<path d="M85.7131 177.1449
L85.7131 176.7878
" />
<path d="M85.7131 176.7878
L85.7846 176.5020
" />
<path d="M85.7846 176.5020
L85.8560 176.3592
" />
<path d="M85.8560 176.3592
L85.9274 176.2878
" />
<path d="M85.9274 176.2878
L86.0703 176.2163
" />
<path d="M87.1417 176.3592
L87.2131 176.2878
" />
<path d="M87.2131 176.2878
L87.3560 176.2163
" />
<path d="M87.3560 176.2163
L87.7131 176.2163
" />
<path d="M87.7131 176.2163
L87.8560 176.2878
" />
<path d="M87.8560 176.2878
L87.9274 176.3592
" />
<path d="M87.9274 176.3592
L87.9989 176.5020
" />
<path d="M87.9989 176.5020
L87.9989 176.6449
" />
<path d="M87.9989 176.6449
L87.9274 176.8592
" />
<path d="M87.9274 176.8592
L87.0703 177.7163
" />
<path d="M87.0703 177.7163
L87.9989 177.7163
" />
</g></g>
<g style="fill:#000000; fill-opacity:0.0; 
stroke:#000000; stroke-width:0.2500; stroke-opacity:1; 
stroke-linecap:round; stroke-linejoin:round;">
</g>
<g style="fill:#000000; fill-opacity:1.0000; 
stroke:#000000; stroke-width:0.0000; stroke-opacity:1; 
stroke-linecap:round; stroke-linejoin:round;">
<path style="fill:#000000; fill-opacity:1.0000; 
stroke:#000000; stroke-width:0.0000; stroke-opacity:1; 
stroke-linecap:round; stroke-linejoin:round;fill-rule:evenodd;"
d="M 80.3899,166.3874
80.4344,166.4509
80.4883,166.6051
80.4883,167.1340
80.4344,167.2882
80.3899,167.3517
80.3066,167.4112
80.1867,167.4112
80.1034,167.3517
80.0590,167.2882
80.0050,167.1340
80.0050,166.6051
80.0590,166.4509
80.1034,166.3874
80.1867,166.3279
80.3066,166.3279
Z" /> 
<path style="fill:#000000; fill-opacity:1.0000; 
stroke:#000000; stroke-width:0.0000; stroke-opacity:1; 
stroke-linecap:round; stroke-linejoin:round;fill-rule:evenodd;"
d="M 83.2228,167.9470
79.4693,167.9470
79.4693,167.1553
79.7550,167.1553
79.7559,167.1585
79.7552,167.1617
79.7620,167.1966
79.8287,167.3871
79.8294,167.3881
79.8443,167.4174
79.9109,167.5127
79.9137,167.5149
79.9150,167.5181
79.9407,167.5427
80.0740,167.6380
80.0938,167.6448
80.1114,167.6562
80.1369,167.6598
80.1405,167.6611
80.1424,167.6606
80.1467,167.6612
80.3467,167.6612
80.3668,167.6553
80.3877,167.6543
80.4106,167.6425
80.4142,167.6414
80.4155,167.6399
80.4193,167.6380
80.5527,167.5427
80.5548,167.5400
80.5581,167.5386
80.5824,167.5127
80.6491,167.4174
80.6495,167.4162
80.6646,167.3871
80.7124,167.2505
81.0883,167.2505
81.0893,167.2537
81.0885,167.2569
81.0954,167.2918
81.1620,167.4823
81.1740,167.4990
81.1816,167.5181
81.2010,167.5367
81.2031,167.5395
81.2047,167.5402
81.2073,167.5427
81.3407,167.6380
81.3605,167.6448
81.3781,167.6562
81.4036,167.6598
81.4072,167.6611
81.4091,167.6606
81.4133,167.6612
81.6133,167.6612
81.6334,167.6553
81.6544,167.6543
81.6773,167.6425
81.6809,167.6414
81.6822,167.6399
81.6860,167.6380
81.7197,167.6138
81.7614,167.6499
81.8311,167.6600
81.8952,167.6307
81.9333,167.5715
81.9383,167.5362
81.9383,166.2207
82.1563,166.2207
82.1855,166.2848
82.2448,166.3228
82.2800,166.3279
82.3550,166.3279
82.3550,167.2505
82.3559,167.2537
82.3552,167.2569
82.3620,167.2918
82.4287,167.4823
82.4407,167.4990
82.4483,167.5181
82.4677,167.5367
82.4697,167.5395
82.4713,167.5402
82.4740,167.5427
82.6073,167.6380
82.6271,167.6448
82.6448,167.6562
82.6703,167.6598
82.6739,167.6611
82.6758,167.6606
82.6800,167.6612
82.8133,167.6612
82.8809,167.6414
82.9270,167.5882
82.9371,167.5184
82.9078,167.4544
82.8486,167.4163
82.8133,167.4112
82.7201,167.4112
82.6516,167.3623
82.6050,167.2293
82.6050,166.3279
82.8133,166.3279
82.8809,166.3081
82.9270,166.2548
82.9371,166.1851
82.9078,166.1210
82.8486,166.0830
82.8133,166.0779
82.6050,166.0779
82.6050,165.5362
82.5852,165.4687
82.5319,165.4225
82.4622,165.4125
82.3981,165.4418
82.3601,165.5010
82.3550,165.5362
82.3550,166.0779
82.2800,166.0779
82.2124,166.0977
82.1663,166.1510
82.1563,166.2207
81.9383,166.2207
81.9383,166.2029
81.9185,166.1353
81.8653,166.0892
81.7955,166.0792
81.7315,166.1084
81.6934,166.1677
81.6883,166.2029
81.6883,167.3064
81.6566,167.3517
81.5733,167.4112
81.4534,167.4112
81.3849,167.3623
81.3383,167.2293
81.3383,166.2029
81.3185,166.1353
81.2653,166.0892
81.1955,166.0792
81.1315,166.1084
81.0934,166.1677
81.0883,166.2029
81.0883,167.2505
80.7124,167.2505
80.7313,167.1966
80.7315,167.1933
80.7333,167.1905
80.7383,167.1553
80.7383,166.5839
80.7374,166.5807
80.7382,166.5775
80.7313,166.5426
80.6646,166.3521
80.6639,166.3510
80.6491,166.3217
80.5824,166.2265
80.5797,166.2243
80.5784,166.2210
80.5527,166.1964
80.4193,166.1012
80.3995,166.0943
80.3819,166.0830
80.3564,166.0793
80.3528,166.0781
80.3509,166.0785
80.3467,166.0779
80.1467,166.0779
80.1266,166.0838
80.1056,166.0848
80.0827,166.0967
80.0791,166.0977
80.0778,166.0992
80.0740,166.1012
79.9407,166.1964
79.9385,166.1992
79.9353,166.2005
79.9109,166.2265
79.8443,166.3217
79.8439,166.3229
79.8287,166.3521
79.7620,166.5426
79.7618,166.5459
79.7601,166.5486
79.7550,166.5839
79.7550,167.1553
79.4693,167.1553
79.4693,165.1268
83.2228,165.1268
Z" /> 
</g>
<g style="fill:#000000; fill-opacity:1.0000; 
stroke:#000000; stroke-width:0.2500; stroke-opacity:1; 
stroke-linecap:round; stroke-linejoin:round;">
</g>
<g style="fill:#000000; fill-opacity:1.0000; 
stroke:#000000; stroke-width:0.0000; stroke-opacity:1; 
stroke-linecap:round; stroke-linejoin:round;">
<path style="fill:#000000; fill-opacity:1.0000; 
stroke:#000000; stroke-width:0.0000; stroke-opacity:1; 
stroke-linecap:round; stroke-linejoin:round;fill-rule:evenodd;"
d="M 61.8363,86.6669
60.0837,86.6669
60.0837,86.2730
60.3695,86.2730
60.3982,86.3373
60.4571,86.3759
60.5276,86.3765
60.5871,86.3389
60.6066,86.3091
60.9600,85.5518
61.3134,86.3091
61.3600,86.3619
61.4277,86.3812
61.4951,86.3608
61.5408,86.3072
61.5502,86.2374
61.5399,86.2034
61.0979,85.2562
61.5399,84.3091
61.5505,84.2395
61.5218,84.1752
61.4629,84.1366
61.3924,84.1360
61.3329,84.1736
61.3134,84.2034
60.9600,84.9606
60.6066,84.2034
60.5600,84.1505
60.4923,84.1312
60.4249,84.1516
60.3792,84.2052
60.3698,84.2750
60.3801,84.3091
60.8221,85.2562
60.3801,86.2034
60.3695,86.2730
60.0837,86.2730
60.0837,83.8455
61.8363,83.8455
Z" /> 
</g>
<g style="fill:#000000; fill-opacity:1.0000; 
stroke:#000000; stroke-width:0.2500; stroke-opacity:1; 
stroke-linecap:round; stroke-linejoin:round;">
</g>
<g style="fill:#000000; fill-opacity:1.0000; 
stroke:#000000; stroke-width:0.0000; stroke-opacity:1; 
stroke-linecap:round; stroke-linejoin:round;">
<path style="fill:#000000; fill-opacity:1.0000; 
stroke:#000000; stroke-width:0.0000; stroke-opacity:1; 
stroke-linecap:round; stroke-linejoin:round;fill-rule:evenodd;"
d="M 82.1563,86.6669
80.4038,86.6669
80.4038,86.2730
80.6895,86.2730
80.7182,86.3373
80.7771,86.3759
80.8476,86.3765
80.9071,86.3389
80.9266,86.3091
81.2800,85.5518
81.6334,86.3091
81.6800,86.3619
81.7477,86.3812
81.8151,86.3608
81.8608,86.3072
81.8702,86.2374
81.8599,86.2034
81.4179,85.2562
81.8599,84.3091
81.8705,84.2395
81.8418,84.1752
81.7829,84.1366
81.7124,84.1360
81.6529,84.1736
81.6334,84.2034
81.2800,84.9606
80.9266,84.2034
80.8800,84.1505
80.8123,84.1312
80.7449,84.1516
80.6992,84.2052
80.6898,84.2750
80.7001,84.3091
81.1421,85.2562
80.7001,86.2034
80.6895,86.2730
80.4038,86.2730
80.4038,83.8455
82.1563,83.8455
Z" /> 
<g >
<circle cx="58.3000" cy="53.8000" r="1.8000" /> 
</g>
<g style="fill:#000000; fill-opacity:1.0000; 
stroke:#000000; stroke-width:0.0212; stroke-opacity:1; 
stroke-linecap:round; stroke-linejoin:round;">
</g>
<g style="fill:#000000; fill-opacity:1.0000; 
stroke:#000000; stroke-width:0.0000; stroke-opacity:1; 
stroke-linecap:round; stroke-linejoin:round;">
<circle cx="58.3000" cy="53.8000" r="2.5000" /> 
</g>
<g style="fill:#000000; fill-opacity:1.0000; 
stroke:#000000; stroke-width:0.0212; stroke-opacity:1; 
stroke-linecap:round; stroke-linejoin:round;">
</g>
<g >
</g>
<g style="fill:#000000; fill-opacity:1.0000; 
stroke:#000000; stroke-width:0.0212; stroke-opacity:1; 
stroke-linecap:round; stroke-linejoin:round;">
</g>
<g style="fill:#000000; fill-opacity:1.0000; 
stroke:#000000; stroke-width:0.0000; stroke-opacity:1; 
stroke-linecap:round; stroke-linejoin:round;">
<circle cx="58.3000" cy="176.3000" r="1.8000" /> 
</g>
<g style="fill:#000000; fill-opacity:1.0000; 
stroke:#000000; stroke-width:0.0212; stroke-opacity:1; 
stroke-linecap:round; stroke-linejoin:round;">
</g>
<g style="fill:#000000; fill-opacity:1.0000; 
stroke:#000000; stroke-width:0.0000; stroke-opacity:1; 
stroke-linecap:round; stroke-linejoin:round;">
<circle cx="58.3000" cy="176.3000" r="2.5000" /> 
</g>
<g style="fill:#000000; fill-opacity:1.0000; 
stroke:#000000; stroke-width:0.0212; stroke-opacity:1; 
stroke-linecap:round; stroke-linejoin:round;">
</g>
<g >
</g>
<g >
</g>
<g >
</g>
<g >
</g>
<g >
</g>
<g >
</g>
<g >
</g>
<g >
</g>
<g >
</g>
<g >
</g>
<g >
</g>
<g >
</g>
<g >
</g>
<g style="fill:#000000; fill-opacity:1.0000; 
stroke:#000000; stroke-width:0.0212; stroke-opacity:1; 
stroke-linecap:round; stroke-linejoin:round;">
<g >
</g>
<g style="fill:#000000; fill-opacity:1.0000; 
stroke:#000000; stroke-width:0.0000; stroke-opacity:1; 
stroke-linecap:round; stroke-linejoin:round;">
<path style="fill:#000000; fill-opacity:1.0000; 
stroke:#000000; stroke-width:0.0000; stroke-opacity:1; 
stroke-linecap:round; stroke-linejoin:round;fill-rule:evenodd;"
d="M 57.9794,50.8952
58.0252,50.9480
58.0351,51.0171
58.0061,51.0807
57.9473,51.1185
57.9347,51.1215
57.8989,51.1280
57.6525,51.1732
57.3407,51.2704
57.3406,51.2704
57.3406,51.2704
57.1509,51.3558
57.0427,51.4045
57.0427,51.4045
56.7631,51.5735
56.5060,51.7750
56.2750,52.0060
56.0735,52.2631
55.9045,52.5427
55.9045,52.5427
55.7704,52.8406
55.7704,52.8407
55.6732,53.1525
55.6143,53.4739
55.5946,53.8000
55.6143,54.1261
55.6732,54.4475
55.7704,54.7593
55.7704,54.7594
55.7704,54.7594
55.9045,55.0573
56.0689,55.3293
56.0735,55.3369
56.2750,55.5940
56.5060,55.8250
56.7631,56.0265
56.7631,56.0265
56.7631,56.0265
57.0427,56.1955
57.3406,56.3296
57.3407,56.3296
57.3407,56.3296
57.6525,56.4268
57.6525,56.4268
57.9739,56.4857
58.3000,56.5054
58.6261,56.4857
58.9475,56.4268
59.2594,56.3296
59.5573,56.1955
59.8369,56.0265
60.0940,55.8250
60.3250,55.5940
60.5265,55.3369
60.6955,55.0573
60.8296,54.7594
60.9268,54.4475
60.9857,54.1261
61.0054,53.8000
60.9857,53.4739
60.9268,53.1525
60.8296,52.8406
60.6955,52.5427
60.5265,52.2631
60.5265,52.2631
60.5265,52.2631
60.3250,52.0060
60.0940,51.7750
59.8369,51.5735
59.8293,51.5689
59.5573,51.4045
59.2594,51.2704
59.2594,51.2704
59.2593,51.2704
58.9475,51.1732
58.7080,51.1293
58.6653,51.1215
58.6029,51.0900
58.5674,51.0298
58.5701,50.9600
58.6101,50.9027
58.6747,50.8762
58.6876,50.8755
90.9005,50.8755
90.9675,50.8952
91.0133,50.9480
91.0245,50.9995
91.0245,179.1005
91.0048,179.1675
90.9520,179.2133
90.9005,179.2245
58.6876,179.2245
58.6206,179.2048
58.5748,179.1520
58.5649,179.0829
58.5939,179.0193
58.6527,178.9815
58.6653,178.9785
58.9475,178.9268
59.2594,178.8296
59.5573,178.6955
59.8369,178.5265
60.0940,178.3250
60.3250,178.0940
60.5265,177.8369
60.6955,177.5573
60.8296,177.2594
60.9268,176.9475
60.9857,176.6261
61.0054,176.3000
60.9857,175.9739
60.9268,175.6525
60.8787,175.4982
83.2876,175.4982
83.2876,178.5778
88.9244,178.5778
88.9244,175.4982
83.2876,175.4982
60.8787,175.4982
60.8296,175.3406
60.6955,175.0427
60.5265,174.7631
60.5265,174.7631
60.5265,174.7631
60.3250,174.5060
60.0940,174.2750
59.8369,174.0735
59.8293,174.0689
59.5573,173.9045
59.2594,173.7704
59.2594,173.7704
59.2593,173.7704
58.9475,173.6732
58.6261,173.6143
58.3260,173.5961
58.3000,173.5946
58.3000,173.5946
57.9739,173.6143
57.6525,173.6732
57.3407,173.7704
57.3406,173.7704
57.3406,173.7704
57.1509,173.8558
57.0427,173.9045
57.0427,173.9045
56.7631,174.0735
56.5060,174.2750
56.2750,174.5060
56.0735,174.7631
55.9045,175.0427
55.9045,175.0427
55.7704,175.3406
55.7704,175.3407
55.6732,175.6525
55.6143,175.9739
55.5946,176.3000
55.6143,176.6261
55.6732,176.9475
55.7704,177.2593
55.7704,177.2594
55.7704,177.2594
55.9045,177.5573
56.0689,177.8293
56.0735,177.8369
56.2750,178.0940
56.5060,178.3250
56.7631,178.5265
56.7631,178.5265
56.7631,178.5265
57.0427,178.6955
57.3406,178.8296
57.3407,178.8296
57.3407,178.8296
57.6525,178.9268
57.6525,178.9268
57.9347,178.9785
57.9971,179.0100
58.0326,179.0702
58.0299,179.1400
57.9899,179.1973
57.9253,179.2238
57.9124,179.2245
50.9995,179.2245
50.9325,179.2048
50.8867,179.1520
50.8755,179.1005
50.8755,164.8253
58.6346,164.8253
58.6346,168.4227
63.2854,168.4227
63.2854,164.8253
78.9546,164.8253
78.9546,168.4227
83.6054,168.4227
83.6054,164.8253
78.9546,164.8253
63.2854,164.8253
58.6346,164.8253
50.8755,164.8253
50.8755,157.6671
57.5095,157.6671
57.5500,158.0390
57.6304,158.4045
57.6916,158.5862
57.7499,158.7590
57.7499,158.7590
57.7499,158.7590
57.9070,159.0986
57.9070,159.0986
58.0999,159.4192
58.0999,159.4192
58.0999,159.4192
58.0999,159.4192
58.2618,159.6322
58.3263,159.7171
58.3263,159.7171
58.5836,159.9887
58.8688,160.2309
58.8688,160.2309
58.8688,160.2310
59.0198,160.3334
59.1785,160.4409
59.1785,160.4409
59.5090,160.6162
59.5090,160.6162
59.5091,160.6162
59.8566,160.7547
59.8566,160.7547
60.0548,160.8097
60.2172,160.8548
60.5864,160.9153
60.7265,160.9229
60.8665,160.9305
60.8665,160.9305
61.0535,160.9305
61.1655,160.9244
61.3336,160.9153
61.7028,160.8548
61.9551,160.7847
62.0634,160.7547
62.0634,160.7547
62.0634,160.7547
62.0634,160.7547
62.4110,160.6162
62.7415,160.4409
63.0512,160.2310
63.3364,159.9887
63.5937,159.7171
63.8201,159.4192
63.8201,159.4192
63.8201,159.4192
63.9401,159.2199
64.0130,159.0986
64.1701,158.7590
64.2896,158.4045
64.3700,158.0390
64.4105,157.6671
77.8295,157.6671
77.8700,158.0390
77.9504,158.4045
78.0116,158.5862
78.0699,158.7590
78.0699,158.7590
78.0699,158.7590
78.2270,159.0986
78.2270,159.0986
78.4199,159.4192
78.4199,159.4192
78.4199,159.4192
78.4199,159.4192
78.5818,159.6322
78.6463,159.7171
78.6463,159.7171
78.9036,159.9887
79.1888,160.2309
79.1888,160.2309
79.1888,160.2310
79.3398,160.3334
79.4985,160.4409
79.4985,160.4409
79.8290,160.6162
79.8290,160.6162
79.8291,160.6162
80.1766,160.7547
80.1766,160.7547
80.3748,160.8097
80.5372,160.8548
80.9064,160.9153
81.0465,160.9229
81.1865,160.9305
81.1865,160.9305
81.3735,160.9305
81.4855,160.9244
81.6536,160.9153
82.0228,160.8548
82.2751,160.7847
82.3834,160.7547
82.3834,160.7547
82.3834,160.7547
82.3834,160.7547
82.7310,160.6162
83.0615,160.4409
83.3712,160.2310
83.6564,159.9887
83.9137,159.7171
84.1401,159.4192
84.1401,159.4192
84.1401,159.4192
84.2601,159.2199
84.3330,159.0986
84.4901,158.7590
84.6096,158.4045
84.6900,158.0390
84.7305,157.6671
84.7305,157.2929
84.6900,156.9210
84.6096,156.5555
84.4901,156.2010
84.3330,155.8614
84.3330,155.8614
84.1401,155.5408
84.1401,155.5408
84.1401,155.5408
84.1401,155.5408
83.9137,155.2429
83.6564,154.9713
83.6564,154.9713
83.3712,154.7291
83.3712,154.7290
83.3712,154.7290
83.2919,154.6753
83.0615,154.5191
82.7310,154.3438
82.7309,154.3438
82.3834,154.2053
82.3834,154.2053
82.0229,154.1052
82.0228,154.1052
82.0228,154.1052
82.0228,154.1052
81.8959,154.0844
81.6536,154.0447
81.6536,154.0447
81.3735,154.0295
81.3735,154.0295
81.1865,154.0295
81.1865,154.0295
80.9064,154.0447
80.5371,154.1052
80.5371,154.1052
80.1766,154.2053
80.1766,154.2053
79.8291,154.3438
79.8290,154.3438
79.4985,154.5191
79.1888,154.7290
79.1888,154.7291
78.9036,154.9713
78.6463,155.2429
78.6463,155.2429
78.4199,155.5408
78.4199,155.5408
78.2270,155.8614
78.2270,155.8614
78.0699,156.2010
77.9504,156.5555
77.8700,156.9210
77.8295,157.2929
77.8295,157.6671
64.4105,157.6671
64.4105,157.6671
64.4105,157.2929
64.3700,156.9210
64.2896,156.5555
64.1701,156.2010
64.0130,155.8614
64.0130,155.8614
63.8201,155.5408
63.8201,155.5408
63.8201,155.5408
63.8201,155.5408
63.5937,155.2429
63.3364,154.9713
63.3364,154.9713
63.0512,154.7291
63.0512,154.7290
63.0512,154.7290
62.9719,154.6753
62.7415,154.5191
62.4110,154.3438
62.4109,154.3438
62.0634,154.2053
62.0634,154.2053
61.7029,154.1052
61.7028,154.1052
61.7028,154.1052
61.7028,154.1052
61.5759,154.0844
61.3336,154.0447
61.3336,154.0447
61.0535,154.0295
61.0535,154.0295
60.8665,154.0295
60.8665,154.0295
60.5864,154.0447
60.2171,154.1052
60.2171,154.1052
59.8566,154.2053
59.8566,154.2053
59.5091,154.3438
59.5090,154.3438
59.1785,154.5191
58.8688,154.7290
58.8688,154.7291
58.5836,154.9713
58.3263,155.2429
58.3263,155.2429
58.0999,155.5408
58.0999,155.5408
57.9070,155.8614
57.9070,155.8614
57.7499,156.2010
57.6304,156.5555
57.5500,156.9210
57.5095,157.2929
57.5095,157.6671
50.8755,157.6671
50.8755,137.3603
57.0095,137.3603
57.0500,137.7590
57.1307,138.1515
57.1307,138.1515
57.2506,138.5338
57.2507,138.5338
57.4087,138.9020
57.6031,139.2524
57.6031,139.2524
57.8320,139.5812
58.0930,139.8853
58.0930,139.8853
58.3834,140.1613
58.7003,140.4066
58.8302,140.4875
59.0403,140.6185
59.0404,140.6185
59.4001,140.7950
59.4001,140.7950
59.4001,140.7950
59.7758,140.9342
59.7758,140.9342
59.7758,140.9342
60.1637,141.0346
60.5598,141.0953
60.8599,141.1105
60.8599,141.1105
61.0601,141.1105
61.0601,141.1105
61.3602,141.0953
61.7563,141.0346
62.1442,140.9342
62.5199,140.7950
62.8796,140.6185
63.2197,140.4066
63.5366,140.1613
63.8270,139.8853
64.0880,139.5812
64.3169,139.2524
64.5113,138.9020
64.6694,138.5338
64.7893,138.1515
64.8700,137.7590
64.9105,137.3603
77.3295,137.3603
77.3700,137.7590
77.4507,138.1515
77.4507,138.1515
77.5706,138.5338
77.5707,138.5338
77.7287,138.9020
77.9231,139.2524
77.9231,139.2524
78.1520,139.5812
78.4130,139.8853
78.4130,139.8853
78.7034,140.1613
79.0203,140.4066
79.1502,140.4875
79.3603,140.6185
79.3604,140.6185
79.7201,140.7950
79.7201,140.7950
79.7201,140.7950
80.0958,140.9342
80.0958,140.9342
80.0958,140.9342
80.4837,141.0346
80.8798,141.0953
81.1799,141.1105
81.1799,141.1105
81.3801,141.1105
81.3801,141.1105
81.6802,141.0953
82.0763,141.0346
82.4642,140.9342
82.8399,140.7950
83.1996,140.6185
83.5397,140.4066
83.8566,140.1613
84.1470,139.8853
84.4080,139.5812
84.6369,139.2524
84.8313,138.9020
84.9894,138.5338
85.1093,138.1515
85.1900,137.7590
85.2305,137.3603
85.2305,136.9597
85.1900,136.5610
85.1093,136.1685
84.9894,135.7862
84.8313,135.4180
84.6369,135.0676
84.4080,134.7388
84.4080,134.7388
84.1470,134.4347
83.8566,134.1587
83.5397,133.9134
83.5397,133.9134
83.1997,133.7015
83.1996,133.7015
82.8399,133.5250
82.8399,133.5250
82.4642,133.3858
82.3885,133.3662
82.0763,133.2854
82.0762,133.2854
82.0762,133.2854
81.6802,133.2247
81.4434,133.2127
81.3801,133.2095
81.1799,133.2095
81.1293,133.2121
80.8798,133.2247
80.4838,133.2854
80.0958,133.3858
79.7201,133.5250
79.7201,133.5250
79.3604,133.7015
79.3603,133.7015
79.0203,133.9134
78.7035,134.1587
78.4130,134.4347
78.1520,134.7388
77.9231,135.0676
77.9231,135.0676
77.7287,135.4180
77.5707,135.7862
77.5706,135.7862
77.4507,136.1685
77.4507,136.1685
77.3700,136.5610
77.3295,136.9597
77.3295,137.3603
64.9105,137.3603
64.9105,137.3603
64.9105,136.9597
64.8700,136.5610
64.7893,136.1685
64.6694,135.7862
64.5113,135.4180
64.3169,135.0676
64.0880,134.7388
64.0880,134.7388
63.8270,134.4347
63.8270,134.4347
63.5366,134.1587
63.2197,133.9134
63.2197,133.9134
62.8797,133.7015
62.8796,133.7015
62.5199,133.5250
62.5199,133.5250
62.1442,133.3858
62.0685,133.3662
61.7563,133.2854
61.7562,133.2854
61.7562,133.2854
61.3602,133.2247
61.1234,133.2127
61.0601,133.2095
60.8599,133.2095
60.8093,133.2121
60.5598,133.2247
60.1638,133.2854
59.7758,133.3858
59.4001,133.5250
59.4001,133.5250
59.0404,133.7015
59.0403,133.7015
58.7003,133.9134
58.3835,134.1587
58.0930,134.4347
57.8320,134.7388
57.6031,135.0676
57.6031,135.0676
57.4087,135.4180
57.2507,135.7862
57.2506,135.7862
57.1307,136.1685
57.1307,136.1685
57.0500,136.5610
57.0095,136.9597
57.0095,137.3603
50.8755,137.3603
50.8755,124.1853
59.7013,124.1853
59.7013,127.7827
62.2187,127.7827
62.2187,124.1853
80.0213,124.1853
80.0213,127.7827
82.5387,127.7827
82.5387,124.1853
80.0213,124.1853
62.2187,124.1853
59.7013,124.1853
50.8755,124.1853
50.8755,117.0271
57.5095,117.0271
57.5500,117.3990
57.6304,117.7645
57.6916,117.9462
57.7499,118.1190
57.7499,118.1190
57.7499,118.1190
57.9070,118.4586
57.9070,118.4586
58.0999,118.7792
58.0999,118.7792
58.0999,118.7792
58.0999,118.7792
58.2618,118.9922
58.3263,119.0771
58.3263,119.0771
58.5836,119.3487
58.8688,119.5909
58.8688,119.5909
58.8688,119.5910
59.0198,119.6934
59.1785,119.8009
59.1785,119.8009
59.5090,119.9762
59.5090,119.9762
59.5091,119.9762
59.8566,120.1147
59.8566,120.1147
60.0548,120.1697
60.2172,120.2148
60.5864,120.2753
60.7265,120.2829
60.8665,120.2905
60.8665,120.2905
61.0535,120.2905
61.1655,120.2844
61.3336,120.2753
61.7028,120.2148
61.9551,120.1447
62.0634,120.1147
62.0634,120.1147
62.0634,120.1147
62.0634,120.1147
62.4110,119.9762
62.7415,119.8009
63.0512,119.5910
63.3364,119.3487
63.5937,119.0771
63.8201,118.7792
63.8201,118.7792
63.8201,118.7792
63.9401,118.5799
64.0130,118.4586
64.1701,118.1190
64.2896,117.7645
64.3700,117.3990
64.4105,117.0271
77.8295,117.0271
77.8700,117.3990
77.9504,117.7645
78.0116,117.9462
78.0699,118.1190
78.0699,118.1190
78.0699,118.1190
78.2270,118.4586
78.2270,118.4586
78.4199,118.7792
78.4199,118.7792
78.4199,118.7792
78.4199,118.7792
78.5818,118.9922
78.6463,119.0771
78.6463,119.0771
78.9036,119.3487
79.1888,119.5909
79.1888,119.5909
79.1888,119.5910
79.3398,119.6934
79.4985,119.8009
79.4985,119.8009
79.8290,119.9762
79.8290,119.9762
79.8291,119.9762
80.1766,120.1147
80.1766,120.1147
80.3748,120.1697
80.5372,120.2148
80.9064,120.2753
81.0465,120.2829
81.1865,120.2905
81.1865,120.2905
81.3735,120.2905
81.4855,120.2844
81.6536,120.2753
82.0228,120.2148
82.2751,120.1447
82.3834,120.1147
82.3834,120.1147
82.3834,120.1147
82.3834,120.1147
82.7310,119.9762
83.0615,119.8009
83.3712,119.5910
83.6564,119.3487
83.9137,119.0771
84.1401,118.7792
84.1401,118.7792
84.1401,118.7792
84.2601,118.5799
84.3330,118.4586
84.4901,118.1190
84.6096,117.7645
84.6900,117.3990
84.7305,117.0271
84.7305,116.6529
84.6900,116.2810
84.6096,115.9155
84.4901,115.5610
84.3330,115.2214
84.3330,115.2214
84.1401,114.9008
84.1401,114.9008
84.1401,114.9008
84.1401,114.9008
83.9137,114.6029
83.6564,114.3313
83.6564,114.3313
83.3712,114.0891
83.3712,114.0890
83.3712,114.0890
83.2919,114.0353
83.0615,113.8791
82.7310,113.7038
82.7309,113.7038
82.3834,113.5653
82.3834,113.5653
82.0229,113.4652
82.0228,113.4652
82.0228,113.4652
82.0228,113.4652
81.8959,113.4444
81.6536,113.4047
81.6536,113.4047
81.3735,113.3895
81.3735,113.3895
81.1865,113.3895
81.1865,113.3895
80.9064,113.4047
80.5371,113.4652
80.5371,113.4652
80.1766,113.5653
80.1766,113.5653
79.8291,113.7038
79.8290,113.7038
79.4985,113.8791
79.1888,114.0890
79.1888,114.0891
78.9036,114.3313
78.6463,114.6029
78.6463,114.6029
78.4199,114.9008
78.4199,114.9008
78.2270,115.2214
78.2270,115.2214
78.0699,115.5610
77.9504,115.9155
77.8700,116.2810
77.8295,116.6529
77.8295,117.0271
64.4105,117.0271
64.4105,117.0271
64.4105,116.6529
64.3700,116.2810
64.2896,115.9155
64.1701,115.5610
64.0130,115.2214
64.0130,115.2214
63.8201,114.9008
63.8201,114.9008
63.8201,114.9008
63.8201,114.9008
63.5937,114.6029
63.3364,114.3313
63.3364,114.3313
63.0512,114.0891
63.0512,114.0890
63.0512,114.0890
62.9719,114.0353
62.7415,113.8791
62.4110,113.7038
62.4109,113.7038
62.0634,113.5653
62.0634,113.5653
61.7029,113.4652
61.7028,113.4652
61.7028,113.4652
61.7028,113.4652
61.5759,113.4444
61.3336,113.4047
61.3336,113.4047
61.0535,113.3895
61.0535,113.3895
60.8665,113.3895
60.8665,113.3895
60.5864,113.4047
60.2171,113.4652
60.2171,113.4652
59.8566,113.5653
59.8566,113.5653
59.5091,113.7038
59.5090,113.7038
59.1785,113.8791
58.8688,114.0890
58.8688,114.0891
58.5836,114.3313
58.3263,114.6029
58.3263,114.6029
58.0999,114.9008
58.0999,114.9008
57.9070,115.2214
57.9070,115.2214
57.7499,115.5610
57.6304,115.9155
57.5500,116.2810
57.5095,116.6529
57.5095,117.0271
50.8755,117.0271
50.8755,96.7203
57.0095,96.7203
57.0500,97.1190
57.1307,97.5115
57.1307,97.5115
57.2506,97.8938
57.2507,97.8938
57.4087,98.2620
57.6031,98.6124
57.6031,98.6124
57.8320,98.9412
58.0930,99.2453
58.0930,99.2453
58.3834,99.5213
58.7003,99.7666
58.8302,99.8475
59.0403,99.9785
59.0404,99.9785
59.4001,100.1550
59.4001,100.1550
59.4001,100.1550
59.7758,100.2942
59.7758,100.2942
59.7758,100.2942
60.1637,100.3946
60.5598,100.4553
60.8599,100.4705
60.8599,100.4705
61.0601,100.4705
61.0601,100.4705
61.3602,100.4553
61.7563,100.3946
62.1442,100.2942
62.5199,100.1550
62.8796,99.9785
63.2197,99.7666
63.5366,99.5213
63.8270,99.2453
64.0880,98.9412
64.3169,98.6124
64.5113,98.2620
64.6694,97.8938
64.7893,97.5115
64.8700,97.1190
64.9105,96.7203
77.3295,96.7203
77.3700,97.1190
77.4507,97.5115
77.4507,97.5115
77.5706,97.8938
77.5707,97.8938
77.7287,98.2620
77.9231,98.6124
77.9231,98.6124
78.1520,98.9412
78.4130,99.2453
78.4130,99.2453
78.7034,99.5213
79.0203,99.7666
79.1502,99.8475
79.3603,99.9785
79.3604,99.9785
79.7201,100.1550
79.7201,100.1550
79.7201,100.1550
80.0958,100.2942
80.0958,100.2942
80.0958,100.2942
80.4837,100.3946
80.8798,100.4553
81.1799,100.4705
81.1799,100.4705
81.3801,100.4705
81.3801,100.4705
81.6802,100.4553
82.0763,100.3946
82.4642,100.2942
82.8399,100.1550
83.1996,99.9785
83.5397,99.7666
83.8566,99.5213
84.1470,99.2453
84.4080,98.9412
84.6369,98.6124
84.8313,98.2620
84.9894,97.8938
85.1093,97.5115
85.1900,97.1190
85.2305,96.7203
85.2305,96.3197
85.1900,95.9210
85.1093,95.5285
84.9894,95.1462
84.8313,94.7780
84.6369,94.4276
84.4080,94.0988
84.4080,94.0988
84.1470,93.7947
84.1470,93.7947
83.8566,93.5187
83.5397,93.2734
83.5397,93.2734
83.1997,93.0615
83.1996,93.0615
82.8399,92.8850
82.8399,92.8850
82.4642,92.7458
82.3885,92.7262
82.0763,92.6454
82.0762,92.6454
82.0762,92.6454
81.6802,92.5847
81.4434,92.5727
81.3801,92.5695
81.1799,92.5695
81.1293,92.5721
80.8798,92.5847
80.4838,92.6454
80.0958,92.7458
79.7201,92.8850
79.7201,92.8850
79.3604,93.0615
79.3603,93.0615
79.0203,93.2734
78.7035,93.5187
78.4130,93.7947
78.1520,94.0988
77.9231,94.4276
77.9231,94.4276
77.7287,94.7780
77.5707,95.1462
77.5706,95.1462
77.4507,95.5285
77.4507,95.5285
77.3700,95.9210
77.3295,96.3197
77.3295,96.7203
64.9105,96.7203
64.9105,96.7203
64.9105,96.3197
64.8700,95.9210
64.7893,95.5285
64.6694,95.1462
64.5113,94.7780
64.3169,94.4276
64.0880,94.0988
64.0880,94.0988
63.8270,93.7947
63.5366,93.5187
63.2197,93.2734
63.2197,93.2734
62.8797,93.0615
62.8796,93.0615
62.5199,92.8850
62.5199,92.8850
62.1442,92.7458
62.0685,92.7262
61.7563,92.6454
61.7562,92.6454
61.7562,92.6454
61.3602,92.5847
61.1234,92.5727
61.0601,92.5695
60.8599,92.5695
60.8093,92.5721
60.5598,92.5847
60.1638,92.6454
59.7758,92.7458
59.4001,92.8850
59.4001,92.8850
59.0404,93.0615
59.0403,93.0615
58.7003,93.2734
58.3835,93.5187
58.0930,93.7947
57.8320,94.0988
57.6031,94.4276
57.6031,94.4276
57.4087,94.7780
57.2507,95.1462
57.2506,95.1462
57.1307,95.5285
57.1307,95.5285
57.0500,95.9210
57.0095,96.3197
57.0095,96.7203
50.8755,96.7203
50.8755,83.5453
59.6346,83.5453
59.6346,87.1427
62.2854,87.1427
62.2854,83.5453
79.9546,83.5453
79.9546,87.1427
82.6054,87.1427
82.6054,83.5453
79.9546,83.5453
62.2854,83.5453
59.6346,83.5453
50.8755,83.5453
50.8755,76.3871
57.5095,76.3871
57.5500,76.7590
57.6304,77.1245
57.6916,77.3062
57.7499,77.4790
57.7499,77.4790
57.7499,77.4790
57.9070,77.8186
57.9070,77.8186
58.0999,78.1392
58.0999,78.1392
58.0999,78.1392
58.0999,78.1392
58.2618,78.3522
58.3263,78.4371
58.3263,78.4371
58.5836,78.7087
58.8688,78.9509
58.8688,78.9509
58.8688,78.9510
59.0198,79.0534
59.1785,79.1609
59.1785,79.1609
59.5090,79.3362
59.5090,79.3362
59.5091,79.3362
59.8566,79.4747
59.8566,79.4747
60.0548,79.5297
60.2172,79.5748
60.5864,79.6353
60.7265,79.6429
60.8665,79.6505
60.8665,79.6505
61.0535,79.6505
61.1655,79.6444
61.3336,79.6353
61.7028,79.5748
61.9551,79.5047
62.0634,79.4747
62.0634,79.4747
62.0634,79.4747
62.0634,79.4747
62.4110,79.3362
62.7415,79.1609
63.0512,78.9510
63.3364,78.7087
63.5937,78.4371
63.8201,78.1392
63.8201,78.1392
63.8201,78.1392
63.9401,77.9399
64.0130,77.8186
64.1701,77.4790
64.2896,77.1245
64.3700,76.7590
64.4105,76.3871
77.8295,76.3871
77.8700,76.7590
77.9504,77.1245
78.0116,77.3062
78.0699,77.4790
78.0699,77.4790
78.0699,77.4790
78.2270,77.8186
78.2270,77.8186
78.4199,78.1392
78.4199,78.1392
78.4199,78.1392
78.4199,78.1392
78.5818,78.3522
78.6463,78.4371
78.6463,78.4371
78.9036,78.7087
79.1888,78.9509
79.1888,78.9509
79.1888,78.9510
79.3398,79.0534
79.4985,79.1609
79.4985,79.1609
79.8290,79.3362
79.8290,79.3362
79.8291,79.3362
80.1766,79.4747
80.1766,79.4747
80.3748,79.5297
80.5372,79.5748
80.9064,79.6353
81.0465,79.6429
81.1865,79.6505
81.1865,79.6505
81.3735,79.6505
81.4855,79.6444
81.6536,79.6353
82.0228,79.5748
82.2751,79.5047
82.3834,79.4747
82.3834,79.4747
82.3834,79.4747
82.3834,79.4747
82.7310,79.3362
83.0615,79.1609
83.3712,78.9510
83.6564,78.7087
83.9137,78.4371
84.1401,78.1392
84.1401,78.1392
84.1401,78.1392
84.2601,77.9399
84.3330,77.8186
84.4901,77.4790
84.6096,77.1245
84.6900,76.7590
84.7305,76.3871
84.7305,76.0129
84.6900,75.6410
84.6096,75.2755
84.4901,74.9210
84.3330,74.5814
84.3330,74.5814
84.1401,74.2608
84.1401,74.2608
84.1401,74.2608
84.1401,74.2608
83.9137,73.9629
83.6564,73.6913
83.6564,73.6913
83.3712,73.4491
83.3712,73.4490
83.3712,73.4490
83.2919,73.3953
83.0615,73.2391
82.7310,73.0638
82.7309,73.0638
82.3834,72.9253
82.3834,72.9253
82.0229,72.8252
82.0228,72.8252
82.0228,72.8252
82.0228,72.8252
81.8959,72.8044
81.6536,72.7647
81.6536,72.7647
81.3735,72.7495
81.3735,72.7495
81.1865,72.7495
81.1865,72.7495
80.9064,72.7647
80.5371,72.8252
80.5371,72.8252
80.1766,72.9253
80.1766,72.9253
79.8291,73.0638
79.8290,73.0638
79.4985,73.2391
79.1888,73.4490
79.1888,73.4491
78.9036,73.6913
78.6463,73.9629
78.6463,73.9629
78.4199,74.2608
78.4199,74.2608
78.2270,74.5814
78.2270,74.5814
78.0699,74.9210
77.9504,75.2755
77.8700,75.6410
77.8295,76.0129
77.8295,76.3871
64.4105,76.3871
64.4105,76.3871
64.4105,76.0129
64.3700,75.6410
64.2896,75.2755
64.1701,74.9210
64.0130,74.5814
64.0130,74.5814
63.8201,74.2608
63.8201,74.2608
63.8201,74.2608
63.8201,74.2608
63.5937,73.9629
63.3364,73.6913
63.3364,73.6913
63.0512,73.4491
63.0512,73.4490
63.0512,73.4490
62.9719,73.3953
62.7415,73.2391
62.4110,73.0638
62.4109,73.0638
62.0634,72.9253
62.0634,72.9253
61.7029,72.8252
61.7028,72.8252
61.7028,72.8252
61.7028,72.8252
61.5759,72.8044
61.3336,72.7647
61.3336,72.7647
61.0535,72.7495
61.0535,72.7495
60.8665,72.7495
60.8665,72.7495
60.5864,72.7647
60.2171,72.8252
60.2171,72.8252
59.8566,72.9253
59.8566,72.9253
59.5091,73.0638
59.5090,73.0638
59.1785,73.2391
58.8688,73.4490
58.8688,73.4491
58.5836,73.6913
58.3263,73.9629
58.3263,73.9629
58.0999,74.2608
58.0999,74.2608
57.9070,74.5814
57.9070,74.5814
57.7499,74.9210
57.6304,75.2755
57.5500,75.6410
57.5095,76.0129
57.5095,76.3871
50.8755,76.3871
50.8755,50.9995
50.8952,50.9325
50.9480,50.8867
50.9995,50.8755
57.9124,50.8755
Z" /> 
</g>
</g>
</g>
<g style="fill:#FFFFFF; fill-opacity:1.0000; 
stroke:#FFFFFF; stroke-width:0.0000; stroke-opacity:1; 
stroke-linecap:round; stroke-linejoin:round;">
<circle cx="58.3000" cy="53.8000" r="0.1750" /> 
</g>
<g style="fill:#FFFFFF; fill-opacity:1.0000; 
stroke:#FFFFFF; stroke-width:0.0212; stroke-opacity:1; 
stroke-linecap:round; stroke-linejoin:round;">
</g>
<g style="fill:#FFFFFF; fill-opacity:1.0000; 
stroke:#FFFFFF; stroke-width:0.0000; stroke-opacity:1; 
stroke-linecap:round; stroke-linejoin:round;">
<circle cx="58.3000" cy="176.3000" r="0.1750" /> 
</g>
<g style="fill:#FFFFFF; fill-opacity:1.0000; 
stroke:#FFFFFF; stroke-width:0.0212; stroke-opacity:1; 
stroke-linecap:round; stroke-linejoin:round;">
</g>
<g style="fill:#FFFFFF; fill-opacity:1.0000; 
stroke:#FFFFFF; stroke-width:0.0000; stroke-opacity:1; 
stroke-linecap:round; stroke-linejoin:round;">
<circle cx="60.9600" cy="76.2000" r="0.1750" /> 
</g>
<g style="fill:#FFFFFF; fill-opacity:1.0000; 
stroke:#FFFFFF; stroke-width:0.0212; stroke-opacity:1; 
stroke-linecap:round; stroke-linejoin:round;">
</g>
<g style="fill:#FFFFFF; fill-opacity:1.0000; 
stroke:#FFFFFF; stroke-width:0.0000; stroke-opacity:1; 
stroke-linecap:round; stroke-linejoin:round;">
<circle cx="60.9600" cy="96.5200" r="0.1750" /> 
</g>
<g style="fill:#FFFFFF; fill-opacity:1.0000; 
stroke:#FFFFFF; stroke-width:0.0212; stroke-opacity:1; 
stroke-linecap:round; stroke-linejoin:round;">
</g>
<g style="fill:#FFFFFF; fill-opacity:1.0000; 
stroke:#FFFFFF; stroke-width:0.0000; stroke-opacity:1; 
stroke-linecap:round; stroke-linejoin:round;">
<circle cx="60.9600" cy="157.4800" r="0.1750" /> 
</g>
<g style="fill:#FFFFFF; fill-opacity:1.0000; 
stroke:#FFFFFF; stroke-width:0.0212; stroke-opacity:1; 
stroke-linecap:round; stroke-linejoin:round;">
</g>
<g style="fill:#FFFFFF; fill-opacity:1.0000; 
stroke:#FFFFFF; stroke-width:0.0000; stroke-opacity:1; 
stroke-linecap:round; stroke-linejoin:round;">
<circle cx="81.2800" cy="116.8400" r="0.1750" /> 
</g>
<g style="fill:#FFFFFF; fill-opacity:1.0000; 
stroke:#FFFFFF; stroke-width:0.0212; stroke-opacity:1; 
stroke-linecap:round; stroke-linejoin:round;">
</g>
<g style="fill:#FFFFFF; fill-opacity:1.0000; 
stroke:#FFFFFF; stroke-width:0.0000; stroke-opacity:1; 
stroke-linecap:round; stroke-linejoin:round;">
<circle cx="60.9600" cy="137.1600" r="0.1750" /> 
</g>
<g style="fill:#FFFFFF; fill-opacity:1.0000; 
stroke:#FFFFFF; stroke-width:0.0212; stroke-opacity:1; 
stroke-linecap:round; stroke-linejoin:round;">
</g>
<g style="fill:#FFFFFF; fill-opacity:1.0000; 
stroke:#FFFFFF; stroke-width:0.0000; stroke-opacity:1; 
stroke-linecap:round; stroke-linejoin:round;">
<circle cx="81.2800" cy="76.2000" r="0.1750" /> 
</g>
<g style="fill:#FFFFFF; fill-opacity:1.0000; 
stroke:#FFFFFF; stroke-width:0.0212; stroke-opacity:1; 
stroke-linecap:round; stroke-linejoin:round;">
</g>
<g style="fill:#FFFFFF; fill-opacity:1.0000; 
stroke:#FFFFFF; stroke-width:0.0000; stroke-opacity:1; 
stroke-linecap:round; stroke-linejoin:round;">
<circle cx="81.2800" cy="96.5200" r="0.1750" /> 
</g>
<g style="fill:#FFFFFF; fill-opacity:1.0000; 
stroke:#FFFFFF; stroke-width:0.0212; stroke-opacity:1; 
stroke-linecap:round; stroke-linejoin:round;">
</g>
<g style="fill:#FFFFFF; fill-opacity:1.0000; 
stroke:#FFFFFF; stroke-width:0.0000; stroke-opacity:1; 
stroke-linecap:round; stroke-linejoin:round;">
<circle cx="60.9600" cy="116.8400" r="0.1750" /> 
</g>
<g style="fill:#FFFFFF; fill-opacity:1.0000; 
stroke:#FFFFFF; stroke-width:0.0212; stroke-opacity:1; 
stroke-linecap:round; stroke-linejoin:round;">
</g>
<g style="fill:#FFFFFF; fill-opacity:1.0000; 
stroke:#FFFFFF; stroke-width:0.0000; stroke-opacity:1; 
stroke-linecap:round; stroke-linejoin:round;">
<circle cx="81.2800" cy="137.1600" r="0.1750" /> 
</g>
<g style="fill:#FFFFFF; fill-opacity:1.0000; 
stroke:#FFFFFF; stroke-width:0.0212; stroke-opacity:1; 
stroke-linecap:round; stroke-linejoin:round;">
</g>
<g style="fill:#FFFFFF; fill-opacity:1.0000; 
stroke:#FFFFFF; stroke-width:0.0000; stroke-opacity:1; 
stroke-linecap:round; stroke-linejoin:round;">
<circle cx="81.2800" cy="157.4800" r="0.1750" /> 
</g>
<g style="fill:#FFFFFF; fill-opacity:1.0000; 
stroke:#FFFFFF; stroke-width:0.0212; stroke-opacity:1; 
stroke-linecap:round; stroke-linejoin:round;">
</g>
<g style="fill:#000000; fill-opacity:1.0000; 
stroke:#000000; stroke-width:0.0212; stroke-opacity:1; 
stroke-linecap:round; stroke-linejoin:round;">
</g> 
</svg>
