<?xml version="1.0" standalone="no"?>
 <!DOCTYPE svg PUBLIC "-//W3C//DTD SVG 1.1//EN" 
 "http://www.w3.org/Graphics/SVG/1.1/DTD/svg11.dtd"> 
<svg
  xmlns:svg="http://www.w3.org/2000/svg"
  xmlns="http://www.w3.org/2000/svg"
  xmlns:xlink="http://www.w3.org/1999/xlink"
  version="1.1"
  width="297.0022mm" height="210.0072mm" viewBox="0.0000 0.0000 297.0022 210.0072">
<title>SVG Image created as panel-B_Mask.svg date 2023/11/07 21:45:18 </title>
  <desc>Image generated by PCBNEW </desc>
<g style="fill:#000000; fill-opacity:1.0000;stroke:#000000; stroke-opacity:1.0000;
stroke-linecap:round; stroke-linejoin:round;"
 transform="translate(0 0) scale(1 1)">
</g>
<g style="fill:#000000; fill-opacity:0.0; 
stroke:#000000; stroke-width:0.0000; stroke-opacity:1; 
stroke-linecap:round; stroke-linejoin:round;">
<g >
</g>
<g style="fill:#000000; fill-opacity:1.0000; 
stroke:#000000; stroke-width:0.0000; stroke-opacity:1; 
stroke-linecap:round; stroke-linejoin:round;">
<path style="fill:#000000; fill-opacity:1.0000; 
stroke:#000000; stroke-width:0.0000; stroke-opacity:1; 
stroke-linecap:round; stroke-linejoin:round;fill-rule:evenodd;"
d="M 32.9631,152.1540
33.0234,152.1540
33.0892,152.1639
33.1583,152.1693
33.2139,152.1827
33.2673,152.1907
33.3370,152.2122
33.4102,152.2298
33.4575,152.2494
33.5031,152.2635
33.5746,152.2979
33.6495,152.3289
33.6880,152.3525
33.7253,152.3705
33.7963,152.4189
33.8704,152.4643
33.9001,152.4897
33.9292,152.5095
33.9970,152.5724
34.0674,152.6326
34.0888,152.6576
34.1100,152.6773
34.1719,152.7549
34.2357,152.8296
34.2497,152.8524
34.2638,152.8702
34.3171,152.9624
34.3711,153.0505
34.3790,153.0696
34.3872,153.0838
34.4290,153.1905
34.4702,153.2898
34.4736,153.3040
34.4773,153.3135
34.5052,153.4354
34.5307,153.5417
34.5313,153.5501
34.5322,153.5540
34.5437,153.7070
34.5510,153.8000
34.5437,153.8930
34.5322,154.0460
34.5313,154.0499
34.5307,154.0583
34.5052,154.1646
34.4773,154.2865
34.4736,154.2960
34.4702,154.3102
34.4290,154.4096
34.3872,154.5162
34.3790,154.5304
34.3711,154.5495
34.3171,154.6376
34.2638,154.7298
34.2497,154.7475
34.2357,154.7704
34.1719,154.8451
34.1100,154.9227
34.0888,154.9424
34.0674,154.9674
33.9969,155.0276
33.9292,155.0905
33.9001,155.1103
33.8704,155.1357
33.7963,155.1811
33.7253,155.2295
33.6880,155.2475
33.6495,155.2711
33.5746,155.3021
33.5031,155.3365
33.4575,155.3506
33.4102,155.3702
33.3370,155.3878
33.2673,155.4093
33.2140,155.4173
33.1583,155.4307
33.0892,155.4361
33.0234,155.4460
32.9631,155.4460
32.9000,155.4510
32.8369,155.4460
32.7766,155.4460
32.7108,155.4361
32.6417,155.4307
32.5860,155.4173
32.5327,155.4093
32.4630,155.3878
32.3898,155.3702
32.3425,155.3506
32.2969,155.3365
32.2254,155.3021
32.1505,155.2711
32.1120,155.2475
32.0747,155.2295
32.0037,155.1811
31.9296,155.1357
31.8999,155.1103
31.8708,155.0905
31.8030,155.0276
31.7326,154.9674
31.7112,154.9424
31.6900,154.9227
31.6281,154.8451
31.5643,154.7704
31.5503,154.7476
31.5362,154.7298
31.4829,154.6376
31.4289,154.5495
31.4210,154.5304
31.4128,154.5162
31.3709,154.4095
31.3298,154.3102
31.3264,154.2960
31.3227,154.2865
31.2948,154.1645
31.2693,154.0583
31.2687,154.0499
31.2678,154.0460
31.2563,153.8927
31.2490,153.8000
31.2563,153.7073
31.2678,153.5540
31.2687,153.5501
31.2693,153.5417
31.2948,153.4355
31.3227,153.3135
31.3264,153.3040
31.3298,153.2898
31.3709,153.1905
31.4128,153.0838
31.4210,153.0696
31.4289,153.0505
31.4829,152.9624
31.5362,152.8702
31.5503,152.8524
31.5643,152.8296
31.6281,152.7549
31.6900,152.6773
31.7112,152.6576
31.7326,152.6326
31.8030,152.5724
31.8708,152.5095
31.8999,152.4897
31.9296,152.4643
32.0037,152.4189
32.0747,152.3705
32.1120,152.3525
32.1505,152.3289
32.2254,152.2979
32.2969,152.2635
32.3425,152.2494
32.3898,152.2298
32.4630,152.2122
32.5327,152.1907
32.5861,152.1827
32.6417,152.1693
32.7108,152.1639
32.7766,152.1540
32.8369,152.1540
32.9000,152.1490
Z" /> 
<path style="fill:#000000; fill-opacity:1.0000; 
stroke:#000000; stroke-width:0.0000; stroke-opacity:1; 
stroke-linecap:round; stroke-linejoin:round;fill-rule:evenodd;"
d="M 78.6831,152.1540
78.7434,152.1540
78.8092,152.1639
78.8783,152.1693
78.9339,152.1827
78.9873,152.1907
79.0570,152.2122
79.1302,152.2298
79.1775,152.2494
79.2231,152.2635
79.2946,152.2979
79.3695,152.3289
79.4080,152.3525
79.4453,152.3705
79.5163,152.4189
79.5904,152.4643
79.6201,152.4897
79.6492,152.5095
79.7170,152.5724
79.7874,152.6326
79.8088,152.6576
79.8300,152.6773
79.8919,152.7549
79.9557,152.8296
79.9697,152.8524
79.9838,152.8702
80.0371,152.9624
80.0911,153.0505
80.0990,153.0696
80.1072,153.0838
80.1490,153.1905
80.1902,153.2898
80.1936,153.3040
80.1973,153.3135
80.2252,153.4354
80.2507,153.5417
80.2513,153.5501
80.2522,153.5540
80.2637,153.7070
80.2710,153.8000
80.2637,153.8930
80.2522,154.0460
80.2513,154.0499
80.2507,154.0583
80.2252,154.1646
80.1973,154.2865
80.1936,154.2960
80.1902,154.3102
80.1490,154.4096
80.1072,154.5162
80.0990,154.5304
80.0911,154.5495
80.0371,154.6376
79.9838,154.7298
79.9697,154.7475
79.9557,154.7704
79.8919,154.8451
79.8300,154.9227
79.8088,154.9424
79.7874,154.9674
79.7169,155.0276
79.6492,155.0905
79.6201,155.1103
79.5904,155.1357
79.5163,155.1811
79.4453,155.2295
79.4080,155.2475
79.3695,155.2711
79.2946,155.3021
79.2231,155.3365
79.1775,155.3506
79.1302,155.3702
79.0570,155.3878
78.9873,155.4093
78.9340,155.4173
78.8783,155.4307
78.8092,155.4361
78.7434,155.4460
78.6831,155.4460
78.6200,155.4510
78.5569,155.4460
78.4966,155.4460
78.4308,155.4361
78.3617,155.4307
78.3060,155.4173
78.2527,155.4093
78.1830,155.3878
78.1098,155.3702
78.0625,155.3506
78.0169,155.3365
77.9454,155.3021
77.8705,155.2711
77.8320,155.2475
77.7947,155.2295
77.7237,155.1811
77.6496,155.1357
77.6199,155.1103
77.5908,155.0905
77.5230,155.0276
77.4526,154.9674
77.4312,154.9424
77.4100,154.9227
77.3481,154.8451
77.2843,154.7704
77.2703,154.7476
77.2562,154.7298
77.2029,154.6376
77.1489,154.5495
77.1410,154.5304
77.1328,154.5162
77.0909,154.4095
77.0498,154.3102
77.0464,154.2960
77.0427,154.2865
77.0148,154.1645
76.9893,154.0583
76.9887,154.0499
76.9878,154.0460
76.9763,153.8927
76.9690,153.8000
76.9763,153.7073
76.9878,153.5540
76.9887,153.5501
76.9893,153.5417
77.0148,153.4355
77.0427,153.3135
77.0464,153.3040
77.0498,153.2898
77.0909,153.1905
77.1328,153.0838
77.1410,153.0696
77.1489,153.0505
77.2029,152.9624
77.2562,152.8702
77.2703,152.8524
77.2843,152.8296
77.3481,152.7549
77.4100,152.6773
77.4312,152.6576
77.4526,152.6326
77.5230,152.5724
77.5908,152.5095
77.6199,152.4897
77.6496,152.4643
77.7237,152.4189
77.7947,152.3705
77.8320,152.3525
77.8705,152.3289
77.9454,152.2979
78.0169,152.2635
78.0625,152.2494
78.1098,152.2298
78.1830,152.2122
78.2527,152.1907
78.3061,152.1827
78.3617,152.1693
78.4308,152.1639
78.4966,152.1540
78.5569,152.1540
78.6200,152.1490
Z" /> 
<path style="fill:#000000; fill-opacity:1.0000; 
stroke:#000000; stroke-width:0.0000; stroke-opacity:1; 
stroke-linecap:round; stroke-linejoin:round;fill-rule:evenodd;"
d="M 56.4480,128.3723
56.8202,128.4487
57.1827,128.5625
57.5319,128.7123
57.8641,128.8967
58.1760,129.1138
58.4643,129.3613
58.7261,129.6367
58.9587,129.9372
59.1597,130.2596
59.3270,130.6008
59.4590,130.9571
59.5542,131.3249
59.6118,131.7005
59.6310,132.0800
59.6118,132.4595
59.5542,132.8351
59.4590,133.2029
59.3270,133.5592
59.1597,133.9004
58.9587,134.2228
58.7261,134.5233
58.4643,134.7987
58.1760,135.0462
57.8641,135.2633
57.5319,135.4477
57.1827,135.5975
56.8202,135.7113
56.4480,135.7877
56.0700,135.8262
55.6900,135.8262
55.3120,135.7877
54.9398,135.7113
54.5773,135.5975
54.2281,135.4477
53.8959,135.2633
53.5840,135.0462
53.2957,134.7987
53.0339,134.5233
52.8013,134.2228
52.6003,133.9004
52.4330,133.5592
52.3010,133.2029
52.2058,132.8351
52.1482,132.4595
52.1290,132.0800
52.1482,131.7005
52.2058,131.3249
52.3010,130.9571
52.4330,130.6008
52.6003,130.2596
52.8013,129.9372
53.0339,129.6367
53.2957,129.3613
53.5840,129.1138
53.8959,128.8967
54.2281,128.7123
54.5773,128.5625
54.9398,128.4487
55.3120,128.3723
55.6900,128.3338
56.0700,128.3338
Z" /> 
<path style="fill:#000000; fill-opacity:1.0000; 
stroke:#000000; stroke-width:0.0000; stroke-opacity:1; 
stroke-linecap:round; stroke-linejoin:round;fill-rule:evenodd;"
d="M 76.7680,128.3723
77.1402,128.4487
77.5027,128.5625
77.8519,128.7123
78.1841,128.8967
78.4960,129.1138
78.7843,129.3613
79.0461,129.6367
79.2787,129.9372
79.4797,130.2596
79.6470,130.6008
79.7790,130.9571
79.8742,131.3249
79.9318,131.7005
79.9510,132.0800
79.9318,132.4595
79.8742,132.8351
79.7790,133.2029
79.6470,133.5592
79.4797,133.9004
79.2787,134.2228
79.0461,134.5233
78.7843,134.7987
78.4960,135.0462
78.1841,135.2633
77.8519,135.4477
77.5027,135.5975
77.1402,135.7113
76.7680,135.7877
76.3900,135.8262
76.0100,135.8262
75.6320,135.7877
75.2598,135.7113
74.8973,135.5975
74.5481,135.4477
74.2159,135.2633
73.9040,135.0462
73.6157,134.7987
73.3539,134.5233
73.1213,134.2228
72.9203,133.9004
72.7530,133.5592
72.6210,133.2029
72.5258,132.8351
72.4682,132.4595
72.4490,132.0800
72.4682,131.7005
72.5258,131.3249
72.6210,130.9571
72.7530,130.6008
72.9203,130.2596
73.1213,129.9372
73.3539,129.6367
73.6157,129.3613
73.9040,129.1138
74.2159,128.8967
74.5481,128.7123
74.8973,128.5625
75.2598,128.4487
75.6320,128.3723
76.0100,128.3338
76.3900,128.3338
Z" /> 
<path style="fill:#000000; fill-opacity:1.0000; 
stroke:#000000; stroke-width:0.0000; stroke-opacity:1; 
stroke-linecap:round; stroke-linejoin:round;fill-rule:evenodd;"
d="M 36.0860,128.8718
36.4297,128.9475
36.7633,129.0599
37.0828,129.2077
37.3844,129.3892
37.6647,129.6022
37.9202,129.8443
38.1481,130.1126
38.3456,130.4039
38.5105,130.7149
38.6408,131.0420
38.7350,131.3811
38.7919,131.7285
38.8110,132.0800
38.7919,132.4315
38.7350,132.7789
38.6408,133.1180
38.5105,133.4451
38.3456,133.7561
38.1481,134.0474
37.9202,134.3157
37.6647,134.5578
37.3844,134.7708
37.0828,134.9523
36.7633,135.1001
36.4297,135.2125
36.0860,135.2882
35.7360,135.3262
35.3840,135.3262
35.0340,135.2882
34.6903,135.2125
34.3567,135.1001
34.0372,134.9523
33.7356,134.7708
33.4553,134.5578
33.1998,134.3157
32.9719,134.0474
32.7744,133.7561
32.6095,133.4451
32.4792,133.1180
32.3850,132.7789
32.3281,132.4315
32.3090,132.0800
32.3281,131.7285
32.3850,131.3811
32.4792,131.0420
32.6095,130.7149
32.7744,130.4039
32.9719,130.1126
33.1998,129.8443
33.4553,129.6022
33.7356,129.3892
34.0372,129.2077
34.3567,129.0599
34.6903,128.9475
35.0340,128.8718
35.3840,128.8338
35.7360,128.8338
Z" /> 
<path style="fill:#000000; fill-opacity:1.0000; 
stroke:#000000; stroke-width:0.0000; stroke-opacity:1; 
stroke-linecap:round; stroke-linejoin:round;fill-rule:evenodd;"
d="M 36.0860,108.5518
36.4297,108.6275
36.7633,108.7399
37.0828,108.8877
37.3844,109.0692
37.6647,109.2822
37.9202,109.5243
38.1481,109.7926
38.3456,110.0839
38.5105,110.3949
38.6408,110.7220
38.7350,111.0611
38.7919,111.4085
38.8110,111.7600
38.7919,112.1115
38.7350,112.4589
38.6408,112.7980
38.5105,113.1251
38.3456,113.4361
38.1481,113.7274
37.9202,113.9957
37.6647,114.2378
37.3844,114.4508
37.0828,114.6323
36.7633,114.7801
36.4297,114.8925
36.0860,114.9682
35.7360,115.0062
35.3840,115.0062
35.0340,114.9682
34.6903,114.8925
34.3567,114.7801
34.0372,114.6323
33.7356,114.4508
33.4553,114.2378
33.1998,113.9957
32.9719,113.7274
32.7744,113.4361
32.6095,113.1251
32.4792,112.7980
32.3850,112.4589
32.3281,112.1115
32.3090,111.7600
32.3281,111.4085
32.3850,111.0611
32.4792,110.7220
32.6095,110.3949
32.7744,110.0839
32.9719,109.7926
33.1998,109.5243
33.4553,109.2822
33.7356,109.0692
34.0372,108.8877
34.3567,108.7399
34.6903,108.6275
35.0340,108.5518
35.3840,108.5138
35.7360,108.5138
Z" /> 
<path style="fill:#000000; fill-opacity:1.0000; 
stroke:#000000; stroke-width:0.0000; stroke-opacity:1; 
stroke-linecap:round; stroke-linejoin:round;fill-rule:evenodd;"
d="M 56.4060,108.5518
56.7497,108.6275
57.0833,108.7399
57.4028,108.8877
57.7044,109.0692
57.9847,109.2822
58.2402,109.5243
58.4681,109.7926
58.6656,110.0839
58.8305,110.3949
58.9608,110.7220
59.0550,111.0611
59.1119,111.4085
59.1310,111.7600
59.1119,112.1115
59.0550,112.4589
58.9608,112.7980
58.8305,113.1251
58.6656,113.4361
58.4681,113.7274
58.2402,113.9957
57.9847,114.2378
57.7044,114.4508
57.4028,114.6323
57.0833,114.7801
56.7497,114.8925
56.4060,114.9682
56.0560,115.0062
55.7040,115.0062
55.3540,114.9682
55.0103,114.8925
54.6767,114.7801
54.3572,114.6323
54.0556,114.4508
53.7753,114.2378
53.5198,113.9957
53.2919,113.7274
53.0944,113.4361
52.9295,113.1251
52.7992,112.7980
52.7050,112.4589
52.6481,112.1115
52.6290,111.7600
52.6481,111.4085
52.7050,111.0611
52.7992,110.7220
52.9295,110.3949
53.0944,110.0839
53.2919,109.7926
53.5198,109.5243
53.7753,109.2822
54.0556,109.0692
54.3572,108.8877
54.6767,108.7399
55.0103,108.6275
55.3540,108.5518
55.7040,108.5138
56.0560,108.5138
Z" /> 
<path style="fill:#000000; fill-opacity:1.0000; 
stroke:#000000; stroke-width:0.0000; stroke-opacity:1; 
stroke-linecap:round; stroke-linejoin:round;fill-rule:evenodd;"
d="M 76.7260,108.5518
77.0697,108.6275
77.4033,108.7399
77.7228,108.8877
78.0244,109.0692
78.3047,109.2822
78.5602,109.5243
78.7881,109.7926
78.9856,110.0839
79.1505,110.3949
79.2808,110.7220
79.3750,111.0611
79.4319,111.4085
79.4510,111.7600
79.4319,112.1115
79.3750,112.4589
79.2808,112.7980
79.1505,113.1251
78.9856,113.4361
78.7881,113.7274
78.5602,113.9957
78.3047,114.2378
78.0244,114.4508
77.7228,114.6323
77.4033,114.7801
77.0697,114.8925
76.7260,114.9682
76.3760,115.0062
76.0240,115.0062
75.6740,114.9682
75.3303,114.8925
74.9967,114.7801
74.6772,114.6323
74.3756,114.4508
74.0953,114.2378
73.8398,113.9957
73.6119,113.7274
73.4144,113.4361
73.2495,113.1251
73.1192,112.7980
73.0250,112.4589
72.9681,112.1115
72.9490,111.7600
72.9681,111.4085
73.0250,111.0611
73.1192,110.7220
73.2495,110.3949
73.4144,110.0839
73.6119,109.7926
73.8398,109.5243
74.0953,109.2822
74.3756,109.0692
74.6772,108.8877
74.9967,108.7399
75.3303,108.6275
75.6740,108.5518
76.0240,108.5138
76.3760,108.5138
Z" /> 
<path style="fill:#000000; fill-opacity:1.0000; 
stroke:#000000; stroke-width:0.0000; stroke-opacity:1; 
stroke-linecap:round; stroke-linejoin:round;fill-rule:evenodd;"
d="M 66.1093,109.7650
66.1765,109.7650
66.2494,109.7750
66.3246,109.7804
66.3866,109.7938
66.4469,109.8021
66.5239,109.8237
66.6035,109.8410
66.6572,109.8610
66.7097,109.8758
66.7890,109.9102
66.8708,109.9407
66.9158,109.9653
66.9600,109.9845
67.0395,110.0328
67.1213,110.0775
67.1574,110.1045
67.1932,110.1263
67.2706,110.1892
67.3497,110.2485
67.3773,110.2761
67.4049,110.2985
67.4777,110.3764
67.5515,110.4503
67.5712,110.4766
67.5912,110.4980
67.6567,110.5909
67.7225,110.6787
67.7353,110.7022
67.7486,110.7210
67.8044,110.8287
67.8593,110.9292
67.8665,110.9485
67.8742,110.9633
67.9177,111.0859
67.9590,111.1965
67.9621,111.2106
67.9656,111.2205
67.9945,111.3599
68.0196,111.4754
68.0202,111.4836
68.0211,111.4877
68.0333,111.6662
68.0400,111.7600
68.0333,111.8539
68.0211,112.0323
68.0202,112.0364
68.0196,112.0446
67.9945,112.1601
67.9656,112.2995
67.9621,112.3093
67.9590,112.3235
67.9177,112.4341
67.8742,112.5567
67.8665,112.5715
67.8593,112.5908
67.8044,112.6913
67.7486,112.7990
67.7353,112.8178
67.7225,112.8413
67.6567,112.9291
67.5912,113.0220
67.5712,113.0434
67.5515,113.0697
67.4776,113.1436
67.4049,113.2215
67.3773,113.2439
67.3497,113.2715
67.2705,113.3308
67.1932,113.3937
67.1574,113.4154
67.1213,113.4425
67.0395,113.4872
66.9600,113.5355
66.9158,113.5547
66.8708,113.5793
66.7890,113.6098
66.7097,113.6442
66.6572,113.6589
66.6035,113.6790
66.5239,113.6963
66.4469,113.7179
66.3866,113.7262
66.3246,113.7396
66.2494,113.7450
66.1765,113.7550
66.1093,113.7550
66.0400,113.7600
65.9707,113.7550
65.9035,113.7550
65.8306,113.7450
65.7554,113.7396
65.6934,113.7262
65.6331,113.7179
65.5561,113.6963
65.4765,113.6790
65.4228,113.6589
65.3703,113.6442
65.2910,113.6098
65.2092,113.5793
65.1642,113.5547
65.1200,113.5355
65.0405,113.4872
64.9587,113.4425
64.9226,113.4154
64.8868,113.3937
64.8094,113.3308
64.7303,113.2715
64.7027,113.2439
64.6751,113.2215
64.6023,113.1436
64.5285,113.0697
64.5088,113.0434
64.4888,113.0220
64.4233,112.9291
64.3575,112.8413
64.3447,112.8178
64.3314,112.7990
64.2756,112.6913
64.2207,112.5908
64.2135,112.5715
64.2058,112.5567
64.1623,112.4341
64.1210,112.3235
64.1179,112.3094
64.1144,112.2995
64.0855,112.1600
64.0604,112.0446
64.0598,112.0364
64.0589,112.0323
64.0467,111.8535
64.0400,111.7600
64.0467,111.6665
64.0589,111.4877
64.0598,111.4836
64.0604,111.4754
64.0854,111.3600
64.1144,111.2205
64.1179,111.2106
64.1210,111.1965
64.1623,111.0859
64.2058,110.9633
64.2135,110.9485
64.2207,110.9292
64.2756,110.8287
64.3314,110.7210
64.3447,110.7022
64.3575,110.6787
64.4232,110.5909
64.4888,110.4980
64.5088,110.4766
64.5285,110.4503
64.6023,110.3764
64.6751,110.2985
64.7027,110.2761
64.7303,110.2485
64.8094,110.1892
64.8868,110.1263
64.9226,110.1045
64.9587,110.0775
65.0405,110.0328
65.1200,109.9845
65.1642,109.9653
65.2092,109.9407
65.2910,109.9102
65.3703,109.8758
65.4228,109.8610
65.4765,109.8410
65.5561,109.8237
65.6331,109.8021
65.6934,109.7938
65.7554,109.7804
65.8306,109.7750
65.9035,109.7650
65.9707,109.7650
66.0400,109.7600
Z" /> 
<path style="fill:#000000; fill-opacity:1.0000; 
stroke:#000000; stroke-width:0.0000; stroke-opacity:1; 
stroke-linecap:round; stroke-linejoin:round;fill-rule:evenodd;"
d="M 43.2493,102.1450
43.3165,102.1450
43.3894,102.1550
43.4646,102.1604
43.5266,102.1738
43.5869,102.1821
43.6639,102.2037
43.7435,102.2210
43.7972,102.2410
43.8497,102.2558
43.9290,102.2902
44.0108,102.3207
44.0558,102.3453
44.1000,102.3645
44.1795,102.4128
44.2613,102.4575
44.2974,102.4845
44.3332,102.5063
44.4106,102.5692
44.4897,102.6285
44.5173,102.6561
44.5449,102.6785
44.6177,102.7564
44.6915,102.8303
44.7112,102.8566
44.7312,102.8780
44.7967,102.9709
44.8625,103.0587
44.8753,103.0822
44.8886,103.1010
44.9444,103.2087
44.9993,103.3092
45.0065,103.3285
45.0142,103.3433
45.0577,103.4659
45.0990,103.5765
45.1021,103.5906
45.1056,103.6005
45.1345,103.7399
45.1596,103.8554
45.1602,103.8636
45.1611,103.8677
45.1733,104.0462
45.1800,104.1400
45.1733,104.2339
45.1611,104.4123
45.1602,104.4164
45.1596,104.4246
45.1345,104.5401
45.1056,104.6795
45.1021,104.6893
45.0990,104.7035
45.0577,104.8141
45.0142,104.9367
45.0065,104.9515
44.9993,104.9708
44.9444,105.0713
44.8886,105.1790
44.8753,105.1978
44.8625,105.2213
44.7967,105.3091
44.7312,105.4020
44.7112,105.4234
44.6915,105.4497
44.6176,105.5236
44.5449,105.6015
44.5173,105.6239
44.4897,105.6515
44.4105,105.7108
44.3332,105.7737
44.2974,105.7954
44.2613,105.8225
44.1795,105.8672
44.1000,105.9155
44.0558,105.9347
44.0108,105.9593
43.9290,105.9898
43.8497,106.0242
43.7972,106.0389
43.7435,106.0590
43.6639,106.0763
43.5869,106.0979
43.5266,106.1062
43.4646,106.1196
43.3894,106.1250
43.3165,106.1350
43.2493,106.1350
43.1800,106.1400
43.1107,106.1350
43.0435,106.1350
42.9706,106.1250
42.8954,106.1196
42.8334,106.1062
42.7731,106.0979
42.6961,106.0763
42.6165,106.0590
42.5628,106.0389
42.5103,106.0242
42.4310,105.9898
42.3492,105.9593
42.3042,105.9347
42.2600,105.9155
42.1805,105.8672
42.0987,105.8225
42.0626,105.7954
42.0268,105.7737
41.9494,105.7108
41.8703,105.6515
41.8427,105.6239
41.8151,105.6015
41.7423,105.5236
41.6685,105.4497
41.6488,105.4234
41.6288,105.4020
41.5633,105.3091
41.4975,105.2213
41.4847,105.1978
41.4714,105.1790
41.4156,105.0713
41.3607,104.9708
41.3535,104.9515
41.3458,104.9367
41.3023,104.8141
41.2610,104.7035
41.2579,104.6894
41.2544,104.6795
41.2255,104.5400
41.2004,104.4246
41.1998,104.4164
41.1989,104.4123
41.1867,104.2335
41.1800,104.1400
41.1867,104.0465
41.1989,103.8677
41.1998,103.8636
41.2004,103.8554
41.2254,103.7400
41.2544,103.6005
41.2579,103.5906
41.2610,103.5765
41.3023,103.4659
41.3458,103.3433
41.3535,103.3285
41.3607,103.3092
41.4156,103.2087
41.4714,103.1010
41.4847,103.0822
41.4975,103.0587
41.5632,102.9709
41.6288,102.8780
41.6488,102.8566
41.6685,102.8303
41.7423,102.7564
41.8151,102.6785
41.8427,102.6561
41.8703,102.6285
41.9494,102.5692
42.0268,102.5063
42.0626,102.4845
42.0987,102.4575
42.1805,102.4128
42.2600,102.3645
42.3042,102.3453
42.3492,102.3207
42.4310,102.2902
42.5103,102.2558
42.5628,102.2410
42.6165,102.2210
42.6961,102.2037
42.7731,102.1821
42.8334,102.1738
42.8954,102.1604
42.9706,102.1550
43.0435,102.1450
43.1107,102.1450
43.1800,102.1400
Z" /> 
<path style="fill:#000000; fill-opacity:1.0000; 
stroke:#000000; stroke-width:0.0000; stroke-opacity:1; 
stroke-linecap:round; stroke-linejoin:round;fill-rule:evenodd;"
d="M 36.0860,88.2318
36.4297,88.3075
36.7633,88.4199
37.0828,88.5677
37.3844,88.7492
37.6647,88.9622
37.9202,89.2043
38.1481,89.4726
38.3456,89.7639
38.5105,90.0749
38.6408,90.4020
38.7350,90.7411
38.7919,91.0885
38.8110,91.4400
38.7919,91.7915
38.7350,92.1389
38.6408,92.4780
38.5105,92.8051
38.3456,93.1161
38.1481,93.4074
37.9202,93.6757
37.6647,93.9178
37.3844,94.1308
37.0828,94.3123
36.7633,94.4601
36.4297,94.5725
36.0860,94.6482
35.7360,94.6862
35.3840,94.6862
35.0340,94.6482
34.6903,94.5725
34.3567,94.4601
34.0372,94.3123
33.7356,94.1308
33.4553,93.9178
33.1998,93.6757
32.9719,93.4074
32.7744,93.1161
32.6095,92.8051
32.4792,92.4780
32.3850,92.1389
32.3281,91.7915
32.3090,91.4400
32.3281,91.0885
32.3850,90.7411
32.4792,90.4020
32.6095,90.0749
32.7744,89.7639
32.9719,89.4726
33.1998,89.2043
33.4553,88.9622
33.7356,88.7492
34.0372,88.5677
34.3567,88.4199
34.6903,88.3075
35.0340,88.2318
35.3840,88.1938
35.7360,88.1938
Z" /> 
<path style="fill:#000000; fill-opacity:1.0000; 
stroke:#000000; stroke-width:0.0000; stroke-opacity:1; 
stroke-linecap:round; stroke-linejoin:round;fill-rule:evenodd;"
d="M 51.3260,88.2318
51.6697,88.3075
52.0033,88.4199
52.3228,88.5677
52.6244,88.7492
52.9047,88.9622
53.1602,89.2043
53.3881,89.4726
53.5856,89.7639
53.7505,90.0749
53.8808,90.4020
53.9750,90.7411
54.0319,91.0885
54.0510,91.4400
54.0319,91.7915
53.9750,92.1389
53.8808,92.4780
53.7505,92.8051
53.5856,93.1161
53.3881,93.4074
53.1602,93.6757
52.9047,93.9178
52.6244,94.1308
52.3228,94.3123
52.0033,94.4601
51.6697,94.5725
51.3260,94.6482
50.9760,94.6862
50.6240,94.6862
50.2740,94.6482
49.9303,94.5725
49.5967,94.4601
49.2772,94.3123
48.9756,94.1308
48.6953,93.9178
48.4398,93.6757
48.2119,93.4074
48.0144,93.1161
47.8495,92.8051
47.7192,92.4780
47.6250,92.1389
47.5681,91.7915
47.5490,91.4400
47.5681,91.0885
47.6250,90.7411
47.7192,90.4020
47.8495,90.0749
48.0144,89.7639
48.2119,89.4726
48.4398,89.2043
48.6953,88.9622
48.9756,88.7492
49.2772,88.5677
49.5967,88.4199
49.9303,88.3075
50.2740,88.2318
50.6240,88.1938
50.9760,88.1938
Z" /> 
<path style="fill:#000000; fill-opacity:1.0000; 
stroke:#000000; stroke-width:0.0000; stroke-opacity:1; 
stroke-linecap:round; stroke-linejoin:round;fill-rule:evenodd;"
d="M 61.4860,88.2318
61.8297,88.3075
62.1633,88.4199
62.4828,88.5677
62.7844,88.7492
63.0647,88.9622
63.3202,89.2043
63.5481,89.4726
63.7456,89.7639
63.9105,90.0749
64.0408,90.4020
64.1350,90.7411
64.1919,91.0885
64.2110,91.4400
64.1919,91.7915
64.1350,92.1389
64.0408,92.4780
63.9105,92.8051
63.7456,93.1161
63.5481,93.4074
63.3202,93.6757
63.0647,93.9178
62.7844,94.1308
62.4828,94.3123
62.1633,94.4601
61.8297,94.5725
61.4860,94.6482
61.1360,94.6862
60.7840,94.6862
60.4340,94.6482
60.0903,94.5725
59.7567,94.4601
59.4372,94.3123
59.1356,94.1308
58.8553,93.9178
58.5998,93.6757
58.3719,93.4074
58.1744,93.1161
58.0095,92.8051
57.8792,92.4780
57.7850,92.1389
57.7281,91.7915
57.7090,91.4400
57.7281,91.0885
57.7850,90.7411
57.8792,90.4020
58.0095,90.0749
58.1744,89.7639
58.3719,89.4726
58.5998,89.2043
58.8553,88.9622
59.1356,88.7492
59.4372,88.5677
59.7567,88.4199
60.0903,88.3075
60.4340,88.2318
60.7840,88.1938
61.1360,88.1938
Z" /> 
<path style="fill:#000000; fill-opacity:1.0000; 
stroke:#000000; stroke-width:0.0000; stroke-opacity:1; 
stroke-linecap:round; stroke-linejoin:round;fill-rule:evenodd;"
d="M 76.7260,88.2318
77.0697,88.3075
77.4033,88.4199
77.7228,88.5677
78.0244,88.7492
78.3047,88.9622
78.5602,89.2043
78.7881,89.4726
78.9856,89.7639
79.1505,90.0749
79.2808,90.4020
79.3750,90.7411
79.4319,91.0885
79.4510,91.4400
79.4319,91.7915
79.3750,92.1389
79.2808,92.4780
79.1505,92.8051
78.9856,93.1161
78.7881,93.4074
78.5602,93.6757
78.3047,93.9178
78.0244,94.1308
77.7228,94.3123
77.4033,94.4601
77.0697,94.5725
76.7260,94.6482
76.3760,94.6862
76.0240,94.6862
75.6740,94.6482
75.3303,94.5725
74.9967,94.4601
74.6772,94.3123
74.3756,94.1308
74.0953,93.9178
73.8398,93.6757
73.6119,93.4074
73.4144,93.1161
73.2495,92.8051
73.1192,92.4780
73.0250,92.1389
72.9681,91.7915
72.9490,91.4400
72.9681,91.0885
73.0250,90.7411
73.1192,90.4020
73.2495,90.0749
73.4144,89.7639
73.6119,89.4726
73.8398,89.2043
74.0953,88.9622
74.3756,88.7492
74.6772,88.5677
74.9967,88.4199
75.3303,88.3075
75.6740,88.2318
76.0240,88.1938
76.3760,88.1938
Z" /> 
<path style="fill:#000000; fill-opacity:1.0000; 
stroke:#000000; stroke-width:0.0000; stroke-opacity:1; 
stroke-linecap:round; stroke-linejoin:round;fill-rule:evenodd;"
d="M 36.0860,67.9118
36.4297,67.9875
36.7633,68.0999
37.0828,68.2477
37.3844,68.4292
37.6647,68.6422
37.9202,68.8843
38.1481,69.1526
38.3456,69.4439
38.5105,69.7549
38.6408,70.0820
38.7350,70.4211
38.7919,70.7685
38.8110,71.1200
38.7919,71.4715
38.7350,71.8189
38.6408,72.1580
38.5105,72.4851
38.3456,72.7961
38.1481,73.0874
37.9202,73.3557
37.6647,73.5978
37.3844,73.8108
37.0828,73.9923
36.7633,74.1401
36.4297,74.2525
36.0860,74.3282
35.7360,74.3662
35.3840,74.3662
35.0340,74.3282
34.6903,74.2525
34.3567,74.1401
34.0372,73.9923
33.7356,73.8108
33.4553,73.5978
33.1998,73.3557
32.9719,73.0874
32.7744,72.7961
32.6095,72.4851
32.4792,72.1580
32.3850,71.8189
32.3281,71.4715
32.3090,71.1200
32.3281,70.7685
32.3850,70.4211
32.4792,70.0820
32.6095,69.7549
32.7744,69.4439
32.9719,69.1526
33.1998,68.8843
33.4553,68.6422
33.7356,68.4292
34.0372,68.2477
34.3567,68.0999
34.6903,67.9875
35.0340,67.9118
35.3840,67.8738
35.7360,67.8738
Z" /> 
<path style="fill:#000000; fill-opacity:1.0000; 
stroke:#000000; stroke-width:0.0000; stroke-opacity:1; 
stroke-linecap:round; stroke-linejoin:round;fill-rule:evenodd;"
d="M 56.4060,67.9118
56.7497,67.9875
57.0833,68.0999
57.4028,68.2477
57.7044,68.4292
57.9847,68.6422
58.2402,68.8843
58.4681,69.1526
58.6656,69.4439
58.8305,69.7549
58.9608,70.0820
59.0550,70.4211
59.1119,70.7685
59.1310,71.1200
59.1119,71.4715
59.0550,71.8189
58.9608,72.1580
58.8305,72.4851
58.6656,72.7961
58.4681,73.0874
58.2402,73.3557
57.9847,73.5978
57.7044,73.8108
57.4028,73.9923
57.0833,74.1401
56.7497,74.2525
56.4060,74.3282
56.0560,74.3662
55.7040,74.3662
55.3540,74.3282
55.0103,74.2525
54.6767,74.1401
54.3572,73.9923
54.0556,73.8108
53.7753,73.5978
53.5198,73.3557
53.2919,73.0874
53.0944,72.7961
52.9295,72.4851
52.7992,72.1580
52.7050,71.8189
52.6481,71.4715
52.6290,71.1200
52.6481,70.7685
52.7050,70.4211
52.7992,70.0820
52.9295,69.7549
53.0944,69.4439
53.2919,69.1526
53.5198,68.8843
53.7753,68.6422
54.0556,68.4292
54.3572,68.2477
54.6767,68.0999
55.0103,67.9875
55.3540,67.9118
55.7040,67.8738
56.0560,67.8738
Z" /> 
<path style="fill:#000000; fill-opacity:1.0000; 
stroke:#000000; stroke-width:0.0000; stroke-opacity:1; 
stroke-linecap:round; stroke-linejoin:round;fill-rule:evenodd;"
d="M 76.7260,67.9118
77.0697,67.9875
77.4033,68.0999
77.7228,68.2477
78.0244,68.4292
78.3047,68.6422
78.5602,68.8843
78.7881,69.1526
78.9856,69.4439
79.1505,69.7549
79.2808,70.0820
79.3750,70.4211
79.4319,70.7685
79.4510,71.1200
79.4319,71.4715
79.3750,71.8189
79.2808,72.1580
79.1505,72.4851
78.9856,72.7961
78.7881,73.0874
78.5602,73.3557
78.3047,73.5978
78.0244,73.8108
77.7228,73.9923
77.4033,74.1401
77.0697,74.2525
76.7260,74.3282
76.3760,74.3662
76.0240,74.3662
75.6740,74.3282
75.3303,74.2525
74.9967,74.1401
74.6772,73.9923
74.3756,73.8108
74.0953,73.5978
73.8398,73.3557
73.6119,73.0874
73.4144,72.7961
73.2495,72.4851
73.1192,72.1580
73.0250,71.8189
72.9681,71.4715
72.9490,71.1200
72.9681,70.7685
73.0250,70.4211
73.1192,70.0820
73.2495,69.7549
73.4144,69.4439
73.6119,69.1526
73.8398,68.8843
74.0953,68.6422
74.3756,68.4292
74.6772,68.2477
74.9967,68.0999
75.3303,67.9875
75.6740,67.9118
76.0240,67.8738
76.3760,67.8738
Z" /> 
<path style="fill:#000000; fill-opacity:1.0000; 
stroke:#000000; stroke-width:0.0000; stroke-opacity:1; 
stroke-linecap:round; stroke-linejoin:round;fill-rule:evenodd;"
d="M 66.1093,69.1250
66.1765,69.1250
66.2494,69.1350
66.3246,69.1404
66.3866,69.1538
66.4469,69.1621
66.5239,69.1837
66.6035,69.2010
66.6572,69.2210
66.7097,69.2358
66.7890,69.2702
66.8708,69.3007
66.9158,69.3253
66.9600,69.3445
67.0395,69.3928
67.1213,69.4375
67.1574,69.4645
67.1932,69.4863
67.2706,69.5492
67.3497,69.6085
67.3773,69.6361
67.4049,69.6585
67.4777,69.7364
67.5515,69.8103
67.5712,69.8366
67.5912,69.8580
67.6567,69.9509
67.7225,70.0387
67.7353,70.0622
67.7486,70.0810
67.8044,70.1887
67.8593,70.2892
67.8665,70.3085
67.8742,70.3233
67.9177,70.4459
67.9590,70.5565
67.9621,70.5706
67.9656,70.5805
67.9945,70.7199
68.0196,70.8354
68.0202,70.8436
68.0211,70.8477
68.0333,71.0262
68.0400,71.1200
68.0333,71.2139
68.0211,71.3923
68.0202,71.3964
68.0196,71.4046
67.9945,71.5201
67.9656,71.6595
67.9621,71.6693
67.9590,71.6835
67.9177,71.7941
67.8742,71.9167
67.8665,71.9315
67.8593,71.9508
67.8044,72.0513
67.7486,72.1590
67.7353,72.1778
67.7225,72.2013
67.6567,72.2891
67.5912,72.3820
67.5712,72.4034
67.5515,72.4297
67.4776,72.5036
67.4049,72.5815
67.3773,72.6039
67.3497,72.6315
67.2705,72.6908
67.1932,72.7537
67.1574,72.7754
67.1213,72.8025
67.0395,72.8472
66.9600,72.8955
66.9158,72.9147
66.8708,72.9393
66.7890,72.9698
66.7097,73.0042
66.6572,73.0189
66.6035,73.0390
66.5239,73.0563
66.4469,73.0779
66.3866,73.0862
66.3246,73.0996
66.2494,73.1050
66.1765,73.1150
66.1093,73.1150
66.0400,73.1200
65.9707,73.1150
65.9035,73.1150
65.8306,73.1050
65.7554,73.0996
65.6934,73.0862
65.6331,73.0779
65.5561,73.0563
65.4765,73.0390
65.4228,73.0189
65.3703,73.0042
65.2910,72.9698
65.2092,72.9393
65.1642,72.9147
65.1200,72.8955
65.0405,72.8472
64.9587,72.8025
64.9226,72.7754
64.8868,72.7537
64.8094,72.6908
64.7303,72.6315
64.7027,72.6039
64.6751,72.5815
64.6023,72.5036
64.5285,72.4297
64.5088,72.4034
64.4888,72.3820
64.4233,72.2891
64.3575,72.2013
64.3447,72.1778
64.3314,72.1590
64.2756,72.0513
64.2207,71.9508
64.2135,71.9315
64.2058,71.9167
64.1623,71.7941
64.1210,71.6835
64.1179,71.6694
64.1144,71.6595
64.0855,71.5200
64.0604,71.4046
64.0598,71.3964
64.0589,71.3923
64.0467,71.2135
64.0400,71.1200
64.0467,71.0265
64.0589,70.8477
64.0598,70.8436
64.0604,70.8354
64.0854,70.7200
64.1144,70.5805
64.1179,70.5706
64.1210,70.5565
64.1623,70.4459
64.2058,70.3233
64.2135,70.3085
64.2207,70.2892
64.2756,70.1887
64.3314,70.0810
64.3447,70.0622
64.3575,70.0387
64.4232,69.9509
64.4888,69.8580
64.5088,69.8366
64.5285,69.8103
64.6023,69.7364
64.6751,69.6585
64.7027,69.6361
64.7303,69.6085
64.8094,69.5492
64.8868,69.4863
64.9226,69.4645
64.9587,69.4375
65.0405,69.3928
65.1200,69.3445
65.1642,69.3253
65.2092,69.3007
65.2910,69.2702
65.3703,69.2358
65.4228,69.2210
65.4765,69.2010
65.5561,69.1837
65.6331,69.1621
65.6934,69.1538
65.7554,69.1404
65.8306,69.1350
65.9035,69.1250
65.9707,69.1250
66.0400,69.1200
Z" /> 
<path style="fill:#000000; fill-opacity:1.0000; 
stroke:#000000; stroke-width:0.0000; stroke-opacity:1; 
stroke-linecap:round; stroke-linejoin:round;fill-rule:evenodd;"
d="M 56.4480,47.0923
56.8202,47.1687
57.1827,47.2825
57.5319,47.4323
57.8641,47.6167
58.1760,47.8338
58.4643,48.0813
58.7261,48.3567
58.9587,48.6572
59.1597,48.9796
59.3270,49.3208
59.4590,49.6771
59.5542,50.0449
59.6118,50.4205
59.6310,50.8000
59.6118,51.1795
59.5542,51.5551
59.4590,51.9229
59.3270,52.2792
59.1597,52.6204
58.9587,52.9428
58.7261,53.2433
58.4643,53.5187
58.1760,53.7662
57.8641,53.9833
57.5319,54.1677
57.1827,54.3175
56.8202,54.4313
56.4480,54.5077
56.0700,54.5462
55.6900,54.5462
55.3120,54.5077
54.9398,54.4313
54.5773,54.3175
54.2281,54.1677
53.8959,53.9833
53.5840,53.7662
53.2957,53.5187
53.0339,53.2433
52.8013,52.9428
52.6003,52.6204
52.4330,52.2792
52.3010,51.9229
52.2058,51.5551
52.1482,51.1795
52.1290,50.8000
52.1482,50.4205
52.2058,50.0449
52.3010,49.6771
52.4330,49.3208
52.6003,48.9796
52.8013,48.6572
53.0339,48.3567
53.2957,48.0813
53.5840,47.8338
53.8959,47.6167
54.2281,47.4323
54.5773,47.2825
54.9398,47.1687
55.3120,47.0923
55.6900,47.0538
56.0700,47.0538
Z" /> 
<path style="fill:#000000; fill-opacity:1.0000; 
stroke:#000000; stroke-width:0.0000; stroke-opacity:1; 
stroke-linecap:round; stroke-linejoin:round;fill-rule:evenodd;"
d="M 76.7680,47.0923
77.1402,47.1687
77.5027,47.2825
77.8519,47.4323
78.1841,47.6167
78.4960,47.8338
78.7843,48.0813
79.0461,48.3567
79.2787,48.6572
79.4797,48.9796
79.6470,49.3208
79.7790,49.6771
79.8742,50.0449
79.9318,50.4205
79.9510,50.8000
79.9318,51.1795
79.8742,51.5551
79.7790,51.9229
79.6470,52.2792
79.4797,52.6204
79.2787,52.9428
79.0461,53.2433
78.7843,53.5187
78.4960,53.7662
78.1841,53.9833
77.8519,54.1677
77.5027,54.3175
77.1402,54.4313
76.7680,54.5077
76.3900,54.5462
76.0100,54.5462
75.6320,54.5077
75.2598,54.4313
74.8973,54.3175
74.5481,54.1677
74.2159,53.9833
73.9040,53.7662
73.6157,53.5187
73.3539,53.2433
73.1213,52.9428
72.9203,52.6204
72.7530,52.2792
72.6210,51.9229
72.5258,51.5551
72.4682,51.1795
72.4490,50.8000
72.4682,50.4205
72.5258,50.0449
72.6210,49.6771
72.7530,49.3208
72.9203,48.9796
73.1213,48.6572
73.3539,48.3567
73.6157,48.0813
73.9040,47.8338
74.2159,47.6167
74.5481,47.4323
74.8973,47.2825
75.2598,47.1687
75.6320,47.0923
76.0100,47.0538
76.3900,47.0538
Z" /> 
<path style="fill:#000000; fill-opacity:1.0000; 
stroke:#000000; stroke-width:0.0000; stroke-opacity:1; 
stroke-linecap:round; stroke-linejoin:round;fill-rule:evenodd;"
d="M 36.0860,47.5918
36.4297,47.6675
36.7633,47.7799
37.0828,47.9277
37.3844,48.1092
37.6647,48.3222
37.9202,48.5643
38.1481,48.8326
38.3456,49.1239
38.5105,49.4349
38.6408,49.7620
38.7350,50.1011
38.7919,50.4485
38.8110,50.8000
38.7919,51.1515
38.7350,51.4989
38.6408,51.8380
38.5105,52.1651
38.3456,52.4761
38.1481,52.7674
37.9202,53.0357
37.6647,53.2778
37.3844,53.4908
37.0828,53.6723
36.7633,53.8201
36.4297,53.9325
36.0860,54.0082
35.7360,54.0462
35.3840,54.0462
35.0340,54.0082
34.6903,53.9325
34.3567,53.8201
34.0372,53.6723
33.7356,53.4908
33.4553,53.2778
33.1998,53.0357
32.9719,52.7674
32.7744,52.4761
32.6095,52.1651
32.4792,51.8380
32.3850,51.4989
32.3281,51.1515
32.3090,50.8000
32.3281,50.4485
32.3850,50.1011
32.4792,49.7620
32.6095,49.4349
32.7744,49.1239
32.9719,48.8326
33.1998,48.5643
33.4553,48.3222
33.7356,48.1092
34.0372,47.9277
34.3567,47.7799
34.6903,47.6675
35.0340,47.5918
35.3840,47.5538
35.7360,47.5538
Z" /> 
<path style="fill:#000000; fill-opacity:1.0000; 
stroke:#000000; stroke-width:0.0000; stroke-opacity:1; 
stroke-linecap:round; stroke-linejoin:round;fill-rule:evenodd;"
d="M 32.9631,28.7540
33.0234,28.7540
33.0892,28.7639
33.1583,28.7693
33.2139,28.7827
33.2673,28.7907
33.3370,28.8122
33.4102,28.8298
33.4575,28.8494
33.5031,28.8635
33.5746,28.8979
33.6495,28.9289
33.6880,28.9525
33.7253,28.9705
33.7963,29.0189
33.8704,29.0643
33.9001,29.0897
33.9292,29.1095
33.9970,29.1724
34.0674,29.2326
34.0888,29.2576
34.1100,29.2773
34.1719,29.3549
34.2357,29.4296
34.2497,29.4524
34.2638,29.4702
34.3171,29.5624
34.3711,29.6505
34.3790,29.6696
34.3872,29.6838
34.4290,29.7905
34.4702,29.8898
34.4736,29.9040
34.4773,29.9135
34.5052,30.0354
34.5307,30.1417
34.5313,30.1501
34.5322,30.1540
34.5437,30.3070
34.5510,30.4000
34.5437,30.4930
34.5322,30.6460
34.5313,30.6499
34.5307,30.6583
34.5052,30.7646
34.4773,30.8865
34.4736,30.8960
34.4702,30.9102
34.4290,31.0096
34.3872,31.1162
34.3790,31.1304
34.3711,31.1495
34.3171,31.2376
34.2638,31.3298
34.2497,31.3475
34.2357,31.3704
34.1719,31.4451
34.1100,31.5227
34.0888,31.5424
34.0674,31.5674
33.9969,31.6276
33.9292,31.6905
33.9001,31.7103
33.8704,31.7357
33.7963,31.7811
33.7253,31.8295
33.6880,31.8475
33.6495,31.8711
33.5746,31.9021
33.5031,31.9365
33.4575,31.9506
33.4102,31.9702
33.3370,31.9878
33.2673,32.0093
33.2140,32.0173
33.1583,32.0307
33.0892,32.0361
33.0234,32.0460
32.9631,32.0460
32.9000,32.0510
32.8369,32.0460
32.7766,32.0460
32.7108,32.0361
32.6417,32.0307
32.5860,32.0173
32.5327,32.0093
32.4630,31.9878
32.3898,31.9702
32.3425,31.9506
32.2969,31.9365
32.2254,31.9021
32.1505,31.8711
32.1120,31.8475
32.0747,31.8295
32.0037,31.7811
31.9296,31.7357
31.8999,31.7103
31.8708,31.6905
31.8030,31.6276
31.7326,31.5674
31.7112,31.5424
31.6900,31.5227
31.6281,31.4451
31.5643,31.3704
31.5503,31.3476
31.5362,31.3298
31.4829,31.2376
31.4289,31.1495
31.4210,31.1304
31.4128,31.1162
31.3709,31.0095
31.3298,30.9102
31.3264,30.8960
31.3227,30.8865
31.2948,30.7645
31.2693,30.6583
31.2687,30.6499
31.2678,30.6460
31.2563,30.4927
31.2490,30.4000
31.2563,30.3073
31.2678,30.1540
31.2687,30.1501
31.2693,30.1417
31.2948,30.0355
31.3227,29.9135
31.3264,29.9040
31.3298,29.8898
31.3709,29.7905
31.4128,29.6838
31.4210,29.6696
31.4289,29.6505
31.4829,29.5624
31.5362,29.4702
31.5503,29.4524
31.5643,29.4296
31.6281,29.3549
31.6900,29.2773
31.7112,29.2576
31.7326,29.2326
31.8030,29.1724
31.8708,29.1095
31.8999,29.0897
31.9296,29.0643
32.0037,29.0189
32.0747,28.9705
32.1120,28.9525
32.1505,28.9289
32.2254,28.8979
32.2969,28.8635
32.3425,28.8494
32.3898,28.8298
32.4630,28.8122
32.5327,28.7907
32.5861,28.7827
32.6417,28.7693
32.7108,28.7639
32.7766,28.7540
32.8369,28.7540
32.9000,28.7490
Z" /> 
<path style="fill:#000000; fill-opacity:1.0000; 
stroke:#000000; stroke-width:0.0000; stroke-opacity:1; 
stroke-linecap:round; stroke-linejoin:round;fill-rule:evenodd;"
d="M 78.6831,28.7540
78.7434,28.7540
78.8092,28.7639
78.8783,28.7693
78.9339,28.7827
78.9873,28.7907
79.0570,28.8122
79.1302,28.8298
79.1775,28.8494
79.2231,28.8635
79.2946,28.8979
79.3695,28.9289
79.4080,28.9525
79.4453,28.9705
79.5163,29.0189
79.5904,29.0643
79.6201,29.0897
79.6492,29.1095
79.7170,29.1724
79.7874,29.2326
79.8088,29.2576
79.8300,29.2773
79.8919,29.3549
79.9557,29.4296
79.9697,29.4524
79.9838,29.4702
80.0371,29.5624
80.0911,29.6505
80.0990,29.6696
80.1072,29.6838
80.1490,29.7905
80.1902,29.8898
80.1936,29.9040
80.1973,29.9135
80.2252,30.0354
80.2507,30.1417
80.2513,30.1501
80.2522,30.1540
80.2637,30.3070
80.2710,30.4000
80.2637,30.4930
80.2522,30.6460
80.2513,30.6499
80.2507,30.6583
80.2252,30.7646
80.1973,30.8865
80.1936,30.8960
80.1902,30.9102
80.1490,31.0096
80.1072,31.1162
80.0990,31.1304
80.0911,31.1495
80.0371,31.2376
79.9838,31.3298
79.9697,31.3475
79.9557,31.3704
79.8919,31.4451
79.8300,31.5227
79.8088,31.5424
79.7874,31.5674
79.7169,31.6276
79.6492,31.6905
79.6201,31.7103
79.5904,31.7357
79.5163,31.7811
79.4453,31.8295
79.4080,31.8475
79.3695,31.8711
79.2946,31.9021
79.2231,31.9365
79.1775,31.9506
79.1302,31.9702
79.0570,31.9878
78.9873,32.0093
78.9340,32.0173
78.8783,32.0307
78.8092,32.0361
78.7434,32.0460
78.6831,32.0460
78.6200,32.0510
78.5569,32.0460
78.4966,32.0460
78.4308,32.0361
78.3617,32.0307
78.3060,32.0173
78.2527,32.0093
78.1830,31.9878
78.1098,31.9702
78.0625,31.9506
78.0169,31.9365
77.9454,31.9021
77.8705,31.8711
77.8320,31.8475
77.7947,31.8295
77.7237,31.7811
77.6496,31.7357
77.6199,31.7103
77.5908,31.6905
77.5230,31.6276
77.4526,31.5674
77.4312,31.5424
77.4100,31.5227
77.3481,31.4451
77.2843,31.3704
77.2703,31.3476
77.2562,31.3298
77.2029,31.2376
77.1489,31.1495
77.1410,31.1304
77.1328,31.1162
77.0909,31.0095
77.0498,30.9102
77.0464,30.8960
77.0427,30.8865
77.0148,30.7645
76.9893,30.6583
76.9887,30.6499
76.9878,30.6460
76.9763,30.4927
76.9690,30.4000
76.9763,30.3073
76.9878,30.1540
76.9887,30.1501
76.9893,30.1417
77.0148,30.0355
77.0427,29.9135
77.0464,29.9040
77.0498,29.8898
77.0909,29.7905
77.1328,29.6838
77.1410,29.6696
77.1489,29.6505
77.2029,29.5624
77.2562,29.4702
77.2703,29.4524
77.2843,29.4296
77.3481,29.3549
77.4100,29.2773
77.4312,29.2576
77.4526,29.2326
77.5230,29.1724
77.5908,29.1095
77.6199,29.0897
77.6496,29.0643
77.7237,29.0189
77.7947,28.9705
77.8320,28.9525
77.8705,28.9289
77.9454,28.8979
78.0169,28.8635
78.0625,28.8494
78.1098,28.8298
78.1830,28.8122
78.2527,28.7907
78.3061,28.7827
78.3617,28.7693
78.4308,28.7639
78.4966,28.7540
78.5569,28.7540
78.6200,28.7490
Z" /> 
</g>
</g> 
</svg>
