<?xml version="1.0" standalone="no"?>
 <!DOCTYPE svg PUBLIC "-//W3C//DTD SVG 1.1//EN" 
 "http://www.w3.org/Graphics/SVG/1.1/DTD/svg11.dtd"> 
<svg
  xmlns:svg="http://www.w3.org/2000/svg"
  xmlns="http://www.w3.org/2000/svg"
  xmlns:xlink="http://www.w3.org/1999/xlink"
  version="1.1"
  width="297.0022mm" height="210.0072mm" viewBox="0.0000 0.0000 297.0022 210.0072">
<title>SVG Image created as mount-B_CrtYd.svg date 2023/11/07 18:46:14 </title>
  <desc>Image generated by PCBNEW </desc>
<g style="fill:#000000; fill-opacity:1.0000;stroke:#000000; stroke-opacity:1.0000;
stroke-linecap:round; stroke-linejoin:round;"
 transform="translate(0 0) scale(1 1)">
</g>
<g style="fill:#000000; fill-opacity:0.0; 
stroke:#000000; stroke-width:0.0000; stroke-opacity:1; 
stroke-linecap:round; stroke-linejoin:round;">
</g>
<g style="fill:#000000; fill-opacity:0.0; 
stroke:#000000; stroke-width:0.0500; stroke-opacity:1; 
stroke-linecap:round; stroke-linejoin:round;">
<path d="M73.9780 66.9220
L73.9780 69.2220
" />
<path d="M73.9780 66.9220
L69.2780 66.9220
" />
<path d="M69.2780 69.2220
L73.9780 69.2220
" />
<path d="M69.2780 66.9220
L69.2780 69.2220
" />
<path d="M90.2340 79.6220
L90.2340 81.9220
" />
<path d="M90.2340 79.6220
L85.5340 79.6220
" />
<path d="M85.5340 81.9220
L90.2340 81.9220
" />
<path d="M85.5340 79.6220
L85.5340 81.9220
" />
<path d="M74.1040 107.5620
L74.1040 109.8620
" />
<path d="M74.1040 107.5620
L69.4040 107.5620
" />
<path d="M69.4040 109.8620
L74.1040 109.8620
" />
<path d="M69.4040 107.5620
L69.4040 109.8620
" />
<path d="M89.2180 97.4020
L89.2180 99.7020
" />
<path d="M89.2180 97.4020
L84.5180 97.4020
" />
<path d="M84.5180 99.7020
L89.2180 99.7020
" />
<path d="M84.5180 97.4020
L84.5180 99.7020
" />
<path d="M85.5340 152.5340
L85.5340 150.2340
" />
<path d="M85.5340 152.5340
L90.2340 152.5340
" />
<path d="M90.2340 150.2340
L85.5340 150.2340
" />
<path d="M90.2340 152.5340
L90.2340 150.2340
" />
<path d="M65.7220 145.9300
L65.7220 143.6300
" />
<path d="M65.7220 145.9300
L70.4220 145.9300
" />
<path d="M70.4220 143.6300
L65.7220 143.6300
" />
<path d="M70.4220 145.9300
L70.4220 143.6300
" />
<path d="M73.8360 70.2160
L73.8360 74.0560
" />
<path d="M70.4360 70.2160
L73.8360 70.2160
" />
<path d="M73.8360 74.0560
L70.4360 74.0560
" />
<path d="M70.4360 74.0560
L70.4360 70.2160
" />
<path d="M90.0920 70.7240
L90.0920 74.5640
" />
<path d="M86.6920 70.7240
L90.0920 70.7240
" />
<path d="M90.0920 74.5640
L86.6920 74.5640
" />
<path d="M86.6920 74.5640
L86.6920 70.7240
" />
<path d="M73.8360 110.8560
L73.8360 114.6960
" />
<path d="M70.4360 110.8560
L73.8360 110.8560
" />
<path d="M73.8360 114.6960
L70.4360 114.6960
" />
<path d="M70.4360 114.6960
L70.4360 110.8560
" />
<path d="M89.0760 104.2520
L89.0760 108.0920
" />
<path d="M85.6760 104.2520
L89.0760 104.2520
" />
<path d="M89.0760 108.0920
L85.6760 108.0920
" />
<path d="M85.6760 108.0920
L85.6760 104.2520
" />
<path d="M89.0760 145.4000
L89.0760 149.2400
" />
<path d="M85.6760 145.4000
L89.0760 145.4000
" />
<path d="M89.0760 149.2400
L85.6760 149.2400
" />
<path d="M85.6760 149.2400
L85.6760 145.4000
" />
<path d="M70.2800 151.4960
L70.2800 155.3360
" />
<path d="M66.8800 151.4960
L70.2800 151.4960
" />
<path d="M70.2800 155.3360
L66.8800 155.3360
" />
<path d="M66.8800 155.3360
L66.8800 151.4960
" />
<path d="M68.9060 72.0700
L68.9060 70.1700
" />
<path d="M68.9060 70.1700
L65.2060 70.1700
" />
<path d="M65.2060 72.0700
L68.9060 72.0700
" />
<path d="M65.2060 70.1700
L65.2060 72.0700
" />
<path d="M90.2420 69.5300
L90.2420 67.6300
" />
<path d="M90.2420 67.6300
L86.5420 67.6300
" />
<path d="M86.5420 69.5300
L90.2420 69.5300
" />
<path d="M86.5420 67.6300
L86.5420 69.5300
" />
<path d="M65.7140 73.2180
L65.7140 75.1180
" />
<path d="M65.7140 75.1180
L69.4140 75.1180
" />
<path d="M69.4140 73.2180
L65.7140 73.2180
" />
<path d="M69.4140 75.1180
L69.4140 73.2180
" />
<path d="M85.5260 75.7580
L85.5260 77.6580
" />
<path d="M85.5260 77.6580
L89.2260 77.6580
" />
<path d="M89.2260 75.7580
L85.5260 75.7580
" />
<path d="M89.2260 77.6580
L89.2260 75.7580
" />
<path d="M69.3980 112.7100
L69.3980 110.8100
" />
<path d="M69.3980 110.8100
L65.6980 110.8100
" />
<path d="M65.6980 112.7100
L69.3980 112.7100
" />
<path d="M65.6980 110.8100
L65.6980 112.7100
" />
<path d="M89.2260 103.0580
L89.2260 101.1580
" />
<path d="M89.2260 101.1580
L85.5260 101.1580
" />
<path d="M85.5260 103.0580
L89.2260 103.0580
" />
<path d="M85.5260 101.1580
L85.5260 103.0580
" />
<path d="M65.7300 114.3660
L65.7300 116.2660
" />
<path d="M65.7300 116.2660
L69.4300 116.2660
" />
<path d="M69.4300 114.3660
L65.7300 114.3660
" />
<path d="M69.4300 116.2660
L69.4300 114.3660
" />
<path d="M85.0020 109.2860
L85.0020 111.1860
" />
<path d="M85.0020 111.1860
L88.7020 111.1860
" />
<path d="M88.7020 109.2860
L85.0020 109.2860
" />
<path d="M88.7020 111.1860
L88.7020 109.2860
" />
<path d="M85.5100 142.3060
L85.5100 144.2060
" />
<path d="M85.5100 144.2060
L89.2100 144.2060
" />
<path d="M89.2100 142.3060
L85.5100 142.3060
" />
<path d="M89.2100 144.2060
L89.2100 142.3060
" />
<path d="M66.7300 147.8940
L66.7300 149.7940
" />
<path d="M66.7300 149.7940
L70.4300 149.7940
" />
<path d="M70.4300 147.8940
L66.7300 147.8940
" />
<path d="M70.4300 149.7940
L70.4300 147.8940
" />
<path d="M85.5100 139.2580
L85.5100 141.1580
" />
<path d="M85.5100 141.1580
L89.2100 141.1580
" />
<path d="M89.2100 139.2580
L85.5100 139.2580
" />
<path d="M89.2100 141.1580
L89.2100 139.2580
" />
<path d="M65.6980 156.0220
L65.6980 157.9220
" />
<path d="M65.6980 157.9220
L69.3980 157.9220
" />
<path d="M69.3980 156.0220
L65.6980 156.0220
" />
<path d="M69.3980 157.9220
L69.3980 156.0220
" />
<path d="M90.7000 121.1500
L90.7000 112.5000
" />
<path d="M90.7000 112.5000
L87.1500 112.5000
" />
<path d="M87.1500 121.1500
L90.7000 121.1500
" />
<path d="M87.1500 112.5000
L87.1500 121.1500
" />
<path d="M54.6700 101.9000
L54.6700 88.2000
" />
<path d="M54.6700 88.2000
L51.1200 88.2000
" />
<path d="M51.1200 101.9000
L54.6700 101.9000
" />
<path d="M51.1200 88.2000
L51.1200 101.9000
" />
<g >
</g>
<g >
</g>
<g >
</g>
<g >
</g>
<g >
</g>
<g >
</g>
<g >
</g>
<g >
</g>
<g >
</g>
<g >
</g>
<g >
</g>
<g >
</g>
<g >
</g>
<g >
</g>
<g >
</g>
<g >
</g>
<g >
</g>
<g >
</g>
<g >
</g>
<g >
</g>
<g >
</g>
<g >
</g>
<g >
</g>
<g >
</g>
<g >
</g>
<g >
</g>
<g >
</g>
<g >
</g>
<g >
</g>
<g >
</g>
<g >
</g>
<g >
</g>
<g >
</g>
<g >
</g>
<g >
</g>
<g >
</g>
<g >
</g>
<g >
</g>
<g >
</g>
<g >
</g>
<g >
</g>
<g >
</g>
<g >
</g>
<g >
</g>
<g >
</g>
<g >
</g>
<g >
</g>
<g >
</g>
<g >
</g>
<g >
</g>
<g >
</g>
<g >
</g>
</g> 
</svg>
