<?xml version="1.0" encoding="utf-8" standalone="no"?>
<!DOCTYPE svg PUBLIC "-//W3C//DTD SVG 1.1//EN"
  "http://www.w3.org/Graphics/SVG/1.1/DTD/svg11.dtd">
<svg height="280.15625pt" version="1.1" viewBox="0 0 424.470313 280.15625" width="424.470313pt" xmlns="http://www.w3.org/2000/svg" xmlns:xlink="http://www.w3.org/1999/xlink">
 <metadata>
  <rdf:RDF xmlns:cc="http://creativecommons.org/ns#" xmlns:dc="http://purl.org/dc/elements/1.1/" xmlns:rdf="http://www.w3.org/1999/02/22-rdf-syntax-ns#">
   <cc:Work>
    <dc:type rdf:resource="http://purl.org/dc/dcmitype/StillImage"/>
    <dc:date>2021-06-25T19:01:57.662328</dc:date>
    <dc:format>image/svg+xml</dc:format>
    <dc:creator>
     <cc:Agent>
      <dc:title>Matplotlib v3.4.2, https://matplotlib.org/</dc:title>
     </cc:Agent>
    </dc:creator>
   </cc:Work>
  </rdf:RDF>
 </metadata>
 <defs>
  <style type="text/css">*{stroke-linecap:butt;stroke-linejoin:round;}</style>
 </defs>
 <g id="figure_1">
  <g id="patch_1">
   <path d="M 0 280.15625 
L 424.470313 280.15625 
L 424.470313 0 
L 0 0 
z
" style="fill:none;"/>
  </g>
  <g id="axes_1">
   <g id="patch_2">
    <path d="M 42.620313 242.6 
L 417.270312 242.6 
L 417.270312 7.2 
L 42.620313 7.2 
z
" style="fill:#ffffff;"/>
   </g>
   <g id="matplotlib.axis_1">
    <g id="xtick_1">
     <g id="line2d_1">
      <defs>
       <path d="M 0 0 
L 0 3.5 
" id="m12efe6072d" style="stroke:#000000;stroke-width:0.8;"/>
      </defs>
      <g>
       <use style="stroke:#000000;stroke-width:0.8;" x="59.630055" xlink:href="#m12efe6072d" y="242.6"/>
      </g>
     </g>
     <g id="text_1">
      <!-- 100 -->
      <g transform="translate(50.086305 257.198437)scale(0.1 -0.1)">
       <defs>
        <path d="M 794 531 
L 1825 531 
L 1825 4091 
L 703 3866 
L 703 4441 
L 1819 4666 
L 2450 4666 
L 2450 531 
L 3481 531 
L 3481 0 
L 794 0 
L 794 531 
z
" id="DejaVuSans-31" transform="scale(0.015625)"/>
        <path d="M 2034 4250 
Q 1547 4250 1301 3770 
Q 1056 3291 1056 2328 
Q 1056 1369 1301 889 
Q 1547 409 2034 409 
Q 2525 409 2770 889 
Q 3016 1369 3016 2328 
Q 3016 3291 2770 3770 
Q 2525 4250 2034 4250 
z
M 2034 4750 
Q 2819 4750 3233 4129 
Q 3647 3509 3647 2328 
Q 3647 1150 3233 529 
Q 2819 -91 2034 -91 
Q 1250 -91 836 529 
Q 422 1150 422 2328 
Q 422 3509 836 4129 
Q 1250 4750 2034 4750 
z
" id="DejaVuSans-30" transform="scale(0.015625)"/>
       </defs>
       <use xlink:href="#DejaVuSans-31"/>
       <use x="63.623047" xlink:href="#DejaVuSans-30"/>
       <use x="127.246094" xlink:href="#DejaVuSans-30"/>
      </g>
     </g>
    </g>
    <g id="xtick_2">
     <g id="line2d_2">
      <g>
       <use style="stroke:#000000;stroke-width:0.8;" x="127.752198" xlink:href="#m12efe6072d" y="242.6"/>
      </g>
     </g>
     <g id="text_2">
      <!-- 102 -->
      <g transform="translate(118.208448 257.198437)scale(0.1 -0.1)">
       <defs>
        <path d="M 1228 531 
L 3431 531 
L 3431 0 
L 469 0 
L 469 531 
Q 828 903 1448 1529 
Q 2069 2156 2228 2338 
Q 2531 2678 2651 2914 
Q 2772 3150 2772 3378 
Q 2772 3750 2511 3984 
Q 2250 4219 1831 4219 
Q 1534 4219 1204 4116 
Q 875 4013 500 3803 
L 500 4441 
Q 881 4594 1212 4672 
Q 1544 4750 1819 4750 
Q 2544 4750 2975 4387 
Q 3406 4025 3406 3419 
Q 3406 3131 3298 2873 
Q 3191 2616 2906 2266 
Q 2828 2175 2409 1742 
Q 1991 1309 1228 531 
z
" id="DejaVuSans-32" transform="scale(0.015625)"/>
       </defs>
       <use xlink:href="#DejaVuSans-31"/>
       <use x="63.623047" xlink:href="#DejaVuSans-30"/>
       <use x="127.246094" xlink:href="#DejaVuSans-32"/>
      </g>
     </g>
    </g>
    <g id="xtick_3">
     <g id="line2d_3">
      <g>
       <use style="stroke:#000000;stroke-width:0.8;" x="195.87434" xlink:href="#m12efe6072d" y="242.6"/>
      </g>
     </g>
     <g id="text_3">
      <!-- 104 -->
      <g transform="translate(186.33059 257.198437)scale(0.1 -0.1)">
       <defs>
        <path d="M 2419 4116 
L 825 1625 
L 2419 1625 
L 2419 4116 
z
M 2253 4666 
L 3047 4666 
L 3047 1625 
L 3713 1625 
L 3713 1100 
L 3047 1100 
L 3047 0 
L 2419 0 
L 2419 1100 
L 313 1100 
L 313 1709 
L 2253 4666 
z
" id="DejaVuSans-34" transform="scale(0.015625)"/>
       </defs>
       <use xlink:href="#DejaVuSans-31"/>
       <use x="63.623047" xlink:href="#DejaVuSans-30"/>
       <use x="127.246094" xlink:href="#DejaVuSans-34"/>
      </g>
     </g>
    </g>
    <g id="xtick_4">
     <g id="line2d_4">
      <g>
       <use style="stroke:#000000;stroke-width:0.8;" x="263.996482" xlink:href="#m12efe6072d" y="242.6"/>
      </g>
     </g>
     <g id="text_4">
      <!-- 106 -->
      <g transform="translate(254.452732 257.198437)scale(0.1 -0.1)">
       <defs>
        <path d="M 2113 2584 
Q 1688 2584 1439 2293 
Q 1191 2003 1191 1497 
Q 1191 994 1439 701 
Q 1688 409 2113 409 
Q 2538 409 2786 701 
Q 3034 994 3034 1497 
Q 3034 2003 2786 2293 
Q 2538 2584 2113 2584 
z
M 3366 4563 
L 3366 3988 
Q 3128 4100 2886 4159 
Q 2644 4219 2406 4219 
Q 1781 4219 1451 3797 
Q 1122 3375 1075 2522 
Q 1259 2794 1537 2939 
Q 1816 3084 2150 3084 
Q 2853 3084 3261 2657 
Q 3669 2231 3669 1497 
Q 3669 778 3244 343 
Q 2819 -91 2113 -91 
Q 1303 -91 875 529 
Q 447 1150 447 2328 
Q 447 3434 972 4092 
Q 1497 4750 2381 4750 
Q 2619 4750 2861 4703 
Q 3103 4656 3366 4563 
z
" id="DejaVuSans-36" transform="scale(0.015625)"/>
       </defs>
       <use xlink:href="#DejaVuSans-31"/>
       <use x="63.623047" xlink:href="#DejaVuSans-30"/>
       <use x="127.246094" xlink:href="#DejaVuSans-36"/>
      </g>
     </g>
    </g>
    <g id="xtick_5">
     <g id="line2d_5">
      <g>
       <use style="stroke:#000000;stroke-width:0.8;" x="332.118625" xlink:href="#m12efe6072d" y="242.6"/>
      </g>
     </g>
     <g id="text_5">
      <!-- 108 -->
      <g transform="translate(322.574875 257.198437)scale(0.1 -0.1)">
       <defs>
        <path d="M 2034 2216 
Q 1584 2216 1326 1975 
Q 1069 1734 1069 1313 
Q 1069 891 1326 650 
Q 1584 409 2034 409 
Q 2484 409 2743 651 
Q 3003 894 3003 1313 
Q 3003 1734 2745 1975 
Q 2488 2216 2034 2216 
z
M 1403 2484 
Q 997 2584 770 2862 
Q 544 3141 544 3541 
Q 544 4100 942 4425 
Q 1341 4750 2034 4750 
Q 2731 4750 3128 4425 
Q 3525 4100 3525 3541 
Q 3525 3141 3298 2862 
Q 3072 2584 2669 2484 
Q 3125 2378 3379 2068 
Q 3634 1759 3634 1313 
Q 3634 634 3220 271 
Q 2806 -91 2034 -91 
Q 1263 -91 848 271 
Q 434 634 434 1313 
Q 434 1759 690 2068 
Q 947 2378 1403 2484 
z
M 1172 3481 
Q 1172 3119 1398 2916 
Q 1625 2713 2034 2713 
Q 2441 2713 2670 2916 
Q 2900 3119 2900 3481 
Q 2900 3844 2670 4047 
Q 2441 4250 2034 4250 
Q 1625 4250 1398 4047 
Q 1172 3844 1172 3481 
z
" id="DejaVuSans-38" transform="scale(0.015625)"/>
       </defs>
       <use xlink:href="#DejaVuSans-31"/>
       <use x="63.623047" xlink:href="#DejaVuSans-30"/>
       <use x="127.246094" xlink:href="#DejaVuSans-38"/>
      </g>
     </g>
    </g>
    <g id="xtick_6">
     <g id="line2d_6">
      <g>
       <use style="stroke:#000000;stroke-width:0.8;" x="400.240767" xlink:href="#m12efe6072d" y="242.6"/>
      </g>
     </g>
     <g id="text_6">
      <!-- 110 -->
      <g transform="translate(390.697017 257.198437)scale(0.1 -0.1)">
       <use xlink:href="#DejaVuSans-31"/>
       <use x="63.623047" xlink:href="#DejaVuSans-31"/>
       <use x="127.246094" xlink:href="#DejaVuSans-30"/>
      </g>
     </g>
    </g>
    <g id="text_7">
     <!-- time (ms) -->
     <g transform="translate(205.683594 270.876562)scale(0.1 -0.1)">
      <defs>
       <path d="M 1172 4494 
L 1172 3500 
L 2356 3500 
L 2356 3053 
L 1172 3053 
L 1172 1153 
Q 1172 725 1289 603 
Q 1406 481 1766 481 
L 2356 481 
L 2356 0 
L 1766 0 
Q 1100 0 847 248 
Q 594 497 594 1153 
L 594 3053 
L 172 3053 
L 172 3500 
L 594 3500 
L 594 4494 
L 1172 4494 
z
" id="DejaVuSans-74" transform="scale(0.015625)"/>
       <path d="M 603 3500 
L 1178 3500 
L 1178 0 
L 603 0 
L 603 3500 
z
M 603 4863 
L 1178 4863 
L 1178 4134 
L 603 4134 
L 603 4863 
z
" id="DejaVuSans-69" transform="scale(0.015625)"/>
       <path d="M 3328 2828 
Q 3544 3216 3844 3400 
Q 4144 3584 4550 3584 
Q 5097 3584 5394 3201 
Q 5691 2819 5691 2113 
L 5691 0 
L 5113 0 
L 5113 2094 
Q 5113 2597 4934 2840 
Q 4756 3084 4391 3084 
Q 3944 3084 3684 2787 
Q 3425 2491 3425 1978 
L 3425 0 
L 2847 0 
L 2847 2094 
Q 2847 2600 2669 2842 
Q 2491 3084 2119 3084 
Q 1678 3084 1418 2786 
Q 1159 2488 1159 1978 
L 1159 0 
L 581 0 
L 581 3500 
L 1159 3500 
L 1159 2956 
Q 1356 3278 1631 3431 
Q 1906 3584 2284 3584 
Q 2666 3584 2933 3390 
Q 3200 3197 3328 2828 
z
" id="DejaVuSans-6d" transform="scale(0.015625)"/>
       <path d="M 3597 1894 
L 3597 1613 
L 953 1613 
Q 991 1019 1311 708 
Q 1631 397 2203 397 
Q 2534 397 2845 478 
Q 3156 559 3463 722 
L 3463 178 
Q 3153 47 2828 -22 
Q 2503 -91 2169 -91 
Q 1331 -91 842 396 
Q 353 884 353 1716 
Q 353 2575 817 3079 
Q 1281 3584 2069 3584 
Q 2775 3584 3186 3129 
Q 3597 2675 3597 1894 
z
M 3022 2063 
Q 3016 2534 2758 2815 
Q 2500 3097 2075 3097 
Q 1594 3097 1305 2825 
Q 1016 2553 972 2059 
L 3022 2063 
z
" id="DejaVuSans-65" transform="scale(0.015625)"/>
       <path id="DejaVuSans-20" transform="scale(0.015625)"/>
       <path d="M 1984 4856 
Q 1566 4138 1362 3434 
Q 1159 2731 1159 2009 
Q 1159 1288 1364 580 
Q 1569 -128 1984 -844 
L 1484 -844 
Q 1016 -109 783 600 
Q 550 1309 550 2009 
Q 550 2706 781 3412 
Q 1013 4119 1484 4856 
L 1984 4856 
z
" id="DejaVuSans-28" transform="scale(0.015625)"/>
       <path d="M 2834 3397 
L 2834 2853 
Q 2591 2978 2328 3040 
Q 2066 3103 1784 3103 
Q 1356 3103 1142 2972 
Q 928 2841 928 2578 
Q 928 2378 1081 2264 
Q 1234 2150 1697 2047 
L 1894 2003 
Q 2506 1872 2764 1633 
Q 3022 1394 3022 966 
Q 3022 478 2636 193 
Q 2250 -91 1575 -91 
Q 1294 -91 989 -36 
Q 684 19 347 128 
L 347 722 
Q 666 556 975 473 
Q 1284 391 1588 391 
Q 1994 391 2212 530 
Q 2431 669 2431 922 
Q 2431 1156 2273 1281 
Q 2116 1406 1581 1522 
L 1381 1569 
Q 847 1681 609 1914 
Q 372 2147 372 2553 
Q 372 3047 722 3315 
Q 1072 3584 1716 3584 
Q 2034 3584 2315 3537 
Q 2597 3491 2834 3397 
z
" id="DejaVuSans-73" transform="scale(0.015625)"/>
       <path d="M 513 4856 
L 1013 4856 
Q 1481 4119 1714 3412 
Q 1947 2706 1947 2009 
Q 1947 1309 1714 600 
Q 1481 -109 1013 -844 
L 513 -844 
Q 928 -128 1133 580 
Q 1338 1288 1338 2009 
Q 1338 2731 1133 3434 
Q 928 4138 513 4856 
z
" id="DejaVuSans-29" transform="scale(0.015625)"/>
      </defs>
      <use xlink:href="#DejaVuSans-74"/>
      <use x="39.208984" xlink:href="#DejaVuSans-69"/>
      <use x="66.992188" xlink:href="#DejaVuSans-6d"/>
      <use x="164.404297" xlink:href="#DejaVuSans-65"/>
      <use x="225.927734" xlink:href="#DejaVuSans-20"/>
      <use x="257.714844" xlink:href="#DejaVuSans-28"/>
      <use x="296.728516" xlink:href="#DejaVuSans-6d"/>
      <use x="394.140625" xlink:href="#DejaVuSans-73"/>
      <use x="446.240234" xlink:href="#DejaVuSans-29"/>
     </g>
    </g>
   </g>
   <g id="matplotlib.axis_2">
    <g id="ytick_1">
     <g id="line2d_7">
      <defs>
       <path d="M 0 0 
L -3.5 0 
" id="m01bb19285c" style="stroke:#000000;stroke-width:0.8;"/>
      </defs>
      <g>
       <use style="stroke:#000000;stroke-width:0.8;" x="42.620313" xlink:href="#m01bb19285c" y="210.500296"/>
      </g>
     </g>
     <g id="text_8">
      <!-- −4 -->
      <g transform="translate(20.878125 214.299515)scale(0.1 -0.1)">
       <defs>
        <path d="M 678 2272 
L 4684 2272 
L 4684 1741 
L 678 1741 
L 678 2272 
z
" id="DejaVuSans-2212" transform="scale(0.015625)"/>
       </defs>
       <use xlink:href="#DejaVuSans-2212"/>
       <use x="83.789062" xlink:href="#DejaVuSans-34"/>
      </g>
     </g>
    </g>
    <g id="ytick_2">
     <g id="line2d_8">
      <g>
       <use style="stroke:#000000;stroke-width:0.8;" x="42.620313" xlink:href="#m01bb19285c" y="167.700148"/>
      </g>
     </g>
     <g id="text_9">
      <!-- −2 -->
      <g transform="translate(20.878125 171.499367)scale(0.1 -0.1)">
       <use xlink:href="#DejaVuSans-2212"/>
       <use x="83.789062" xlink:href="#DejaVuSans-32"/>
      </g>
     </g>
    </g>
    <g id="ytick_3">
     <g id="line2d_9">
      <g>
       <use style="stroke:#000000;stroke-width:0.8;" x="42.620313" xlink:href="#m01bb19285c" y="124.9"/>
      </g>
     </g>
     <g id="text_10">
      <!-- 0 -->
      <g transform="translate(29.257813 128.699219)scale(0.1 -0.1)">
       <use xlink:href="#DejaVuSans-30"/>
      </g>
     </g>
    </g>
    <g id="ytick_4">
     <g id="line2d_10">
      <g>
       <use style="stroke:#000000;stroke-width:0.8;" x="42.620313" xlink:href="#m01bb19285c" y="82.099852"/>
      </g>
     </g>
     <g id="text_11">
      <!-- 2 -->
      <g transform="translate(29.257813 85.899071)scale(0.1 -0.1)">
       <use xlink:href="#DejaVuSans-32"/>
      </g>
     </g>
    </g>
    <g id="ytick_5">
     <g id="line2d_11">
      <g>
       <use style="stroke:#000000;stroke-width:0.8;" x="42.620313" xlink:href="#m01bb19285c" y="39.299704"/>
      </g>
     </g>
     <g id="text_12">
      <!-- 4 -->
      <g transform="translate(29.257813 43.098923)scale(0.1 -0.1)">
       <use xlink:href="#DejaVuSans-34"/>
      </g>
     </g>
    </g>
    <g id="text_13">
     <!-- IN [V] -->
     <g transform="translate(14.798438 139.026562)rotate(-90)scale(0.1 -0.1)">
      <defs>
       <path d="M 628 4666 
L 1259 4666 
L 1259 0 
L 628 0 
L 628 4666 
z
" id="DejaVuSans-49" transform="scale(0.015625)"/>
       <path d="M 628 4666 
L 1478 4666 
L 3547 763 
L 3547 4666 
L 4159 4666 
L 4159 0 
L 3309 0 
L 1241 3903 
L 1241 0 
L 628 0 
L 628 4666 
z
" id="DejaVuSans-4e" transform="scale(0.015625)"/>
       <path d="M 550 4863 
L 1875 4863 
L 1875 4416 
L 1125 4416 
L 1125 -397 
L 1875 -397 
L 1875 -844 
L 550 -844 
L 550 4863 
z
" id="DejaVuSans-5b" transform="scale(0.015625)"/>
       <path d="M 1831 0 
L 50 4666 
L 709 4666 
L 2188 738 
L 3669 4666 
L 4325 4666 
L 2547 0 
L 1831 0 
z
" id="DejaVuSans-56" transform="scale(0.015625)"/>
       <path d="M 1947 4863 
L 1947 -844 
L 622 -844 
L 622 -397 
L 1369 -397 
L 1369 4416 
L 622 4416 
L 622 4863 
L 1947 4863 
z
" id="DejaVuSans-5d" transform="scale(0.015625)"/>
      </defs>
      <use xlink:href="#DejaVuSans-49"/>
      <use x="29.492188" xlink:href="#DejaVuSans-4e"/>
      <use x="104.296875" xlink:href="#DejaVuSans-20"/>
      <use x="136.083984" xlink:href="#DejaVuSans-5b"/>
      <use x="175.097656" xlink:href="#DejaVuSans-56"/>
      <use x="243.505859" xlink:href="#DejaVuSans-5d"/>
     </g>
    </g>
   </g>
   <g id="line2d_12">
    <path clip-path="url(#pf3dbe042af)" d="M 59.649858 124.509134 
L 62.306622 74.189984 
L 63.703125 51.858618 
L 64.79308 37.71425 
L 65.712729 28.493094 
L 66.462072 23.016496 
L 67.075171 19.977786 
L 67.586088 18.468487 
L 67.960759 17.961638 
L 68.233248 17.913704 
L 68.505736 18.136026 
L 68.812286 18.708454 
L 69.221019 19.999304 
L 69.731935 22.449902 
L 70.345034 26.588483 
L 71.094378 33.346019 
L 71.979966 43.571826 
L 73.035859 58.567731 
L 74.364241 80.917685 
L 76.305722 117.900534 
L 79.405279 176.789996 
L 80.767722 198.431234 
L 81.857676 212.473773 
L 82.743264 221.306906 
L 83.492608 226.783504 
L 84.105707 229.822214 
L 84.616623 231.331513 
L 84.991295 231.838362 
L 85.263783 231.886296 
L 85.536272 231.663974 
L 85.842822 231.091546 
L 86.251555 229.800696 
L 86.762471 227.350098 
L 87.37557 223.211517 
L 88.124913 216.453981 
L 89.010501 206.228174 
L 90.066395 191.232269 
L 91.394776 168.882315 
L 93.336257 131.899466 
L 96.435815 73.010004 
L 97.798258 51.368766 
L 98.888212 37.326227 
L 99.7738 28.493094 
L 100.523143 23.016496 
L 101.136243 19.977786 
L 101.647159 18.468487 
L 102.02183 17.961638 
L 102.294319 17.913704 
L 102.566808 18.136026 
L 102.873357 18.708454 
L 103.28209 19.999304 
L 103.793006 22.449902 
L 104.406105 26.588483 
L 105.155449 33.346019 
L 106.041037 43.571826 
L 107.09693 58.567731 
L 108.425312 80.917685 
L 110.366793 117.900534 
L 113.46635 176.789996 
L 114.828793 198.431234 
L 115.918748 212.473773 
L 116.804335 221.306906 
L 117.553679 226.783504 
L 118.166778 229.822214 
L 118.677694 231.331513 
L 119.052366 231.838362 
L 119.324855 231.886296 
L 119.597343 231.663974 
L 119.903893 231.091546 
L 120.312626 229.800696 
L 120.823542 227.350098 
L 121.436641 223.211517 
L 122.185985 216.453981 
L 123.071572 206.228174 
L 124.127466 191.232269 
L 125.455847 168.882315 
L 127.397329 131.899466 
L 130.496886 73.010004 
L 131.859329 51.368766 
L 132.949283 37.326227 
L 133.834871 28.493094 
L 134.584215 23.016496 
L 135.197314 19.977786 
L 135.70823 18.468487 
L 136.082902 17.961638 
L 136.35539 17.913704 
L 136.627879 18.136026 
L 136.934428 18.708454 
L 137.343161 19.999304 
L 137.854077 22.449902 
L 138.467177 26.588483 
L 139.21652 33.346019 
L 140.102108 43.571826 
L 141.158001 58.567731 
L 142.486383 80.917685 
L 144.427864 117.900534 
L 147.527422 176.789996 
L 148.889864 198.431234 
L 149.979819 212.473773 
L 150.865407 221.306906 
L 151.61475 226.783504 
L 152.227849 229.822214 
L 152.738765 231.331513 
L 153.113437 231.838362 
L 153.385926 231.886296 
L 153.658414 231.663974 
L 153.964964 231.091546 
L 154.373697 229.800696 
L 154.884613 227.350098 
L 155.497712 223.211517 
L 156.247056 216.453981 
L 157.132644 206.228174 
L 158.188537 191.232269 
L 159.516919 168.882315 
L 161.4584 131.899466 
L 164.557957 73.010004 
L 165.9204 51.368766 
L 167.010354 37.326227 
L 167.895942 28.493094 
L 168.645286 23.016496 
L 169.258385 19.977786 
L 169.769301 18.468487 
L 170.143973 17.961638 
L 170.416461 17.913704 
L 170.68895 18.136026 
L 170.9955 18.708454 
L 171.404232 19.999304 
L 171.915149 22.449902 
L 172.528248 26.588483 
L 173.277591 33.346019 
L 174.163179 43.571826 
L 175.219072 58.567731 
L 176.547454 80.917685 
L 178.488935 117.900534 
L 181.588493 176.789996 
L 182.950936 198.431234 
L 184.04089 212.473773 
L 184.926478 221.306906 
L 185.675821 226.783504 
L 186.288921 229.822214 
L 186.799837 231.331513 
L 187.174508 231.838362 
L 187.446997 231.886296 
L 187.719486 231.663974 
L 188.026035 231.091546 
L 188.434768 229.800696 
L 188.945684 227.350098 
L 189.558783 223.211517 
L 190.308127 216.453981 
L 191.193715 206.228174 
L 192.249608 191.232269 
L 193.57799 168.882315 
L 195.519471 131.899466 
L 198.619028 73.010004 
L 199.981471 51.368766 
L 201.071425 37.326227 
L 201.957013 28.493094 
L 202.706357 23.016496 
L 203.319456 19.977786 
L 203.830372 18.468487 
L 204.205044 17.961638 
L 204.477533 17.913704 
L 204.750021 18.136026 
L 205.056571 18.708454 
L 205.465304 19.999304 
L 205.97622 22.449902 
L 206.589319 26.588483 
L 207.338663 33.346019 
L 208.22425 43.571826 
L 209.280144 58.567731 
L 210.608525 80.917685 
L 212.550006 117.900534 
L 215.649564 176.789996 
L 217.012007 198.431234 
L 218.101961 212.473773 
L 218.987549 221.306906 
L 219.736892 226.783504 
L 220.349992 229.822214 
L 220.860908 231.331513 
L 221.23558 231.838362 
L 221.508068 231.886296 
L 221.780557 231.663974 
L 222.087106 231.091546 
L 222.495839 229.800696 
L 223.006755 227.350098 
L 223.619855 223.211517 
L 224.369198 216.453981 
L 225.254786 206.228174 
L 226.310679 191.232269 
L 227.639061 168.882315 
L 229.580542 131.899466 
L 232.680099 73.010004 
L 234.042542 51.368766 
L 235.132497 37.326227 
L 236.018084 28.493094 
L 236.767428 23.016496 
L 237.380527 19.977786 
L 237.891443 18.468487 
L 238.266115 17.961638 
L 238.538604 17.913704 
L 238.811092 18.136026 
L 239.117642 18.708454 
L 239.526375 19.999304 
L 240.037291 22.449902 
L 240.65039 26.588483 
L 241.399734 33.346019 
L 242.285322 43.571826 
L 243.341215 58.567731 
L 244.669597 80.917685 
L 246.611078 117.900534 
L 249.710635 176.789996 
L 251.073078 198.431234 
L 252.163032 212.473773 
L 253.04862 221.306906 
L 253.797964 226.783504 
L 254.411063 229.822214 
L 254.921979 231.331513 
L 255.296651 231.838362 
L 255.569139 231.886296 
L 255.841628 231.663974 
L 256.148178 231.091546 
L 256.55691 229.800696 
L 257.067826 227.350098 
L 257.680926 223.211517 
L 258.430269 216.453981 
L 259.315857 206.228174 
L 260.37175 191.232269 
L 261.700132 168.882315 
L 263.641613 131.899466 
L 266.741171 73.010004 
L 268.103614 51.368766 
L 269.193568 37.326227 
L 270.079156 28.493094 
L 270.828499 23.016496 
L 271.441598 19.977786 
L 271.952515 18.468487 
L 272.327186 17.961638 
L 272.599675 17.913704 
L 272.872163 18.136026 
L 273.178713 18.708454 
L 273.587446 19.999304 
L 274.098362 22.449902 
L 274.711461 26.588483 
L 275.460805 33.346019 
L 276.346393 43.571826 
L 277.402286 58.567731 
L 278.730668 80.917685 
L 280.672149 117.900534 
L 283.771706 176.789996 
L 285.134149 198.431234 
L 286.224103 212.473773 
L 287.109691 221.306906 
L 287.859035 226.783504 
L 288.472134 229.822214 
L 288.98305 231.331513 
L 289.357722 231.838362 
L 289.63021 231.886296 
L 289.902699 231.663974 
L 290.209249 231.091546 
L 290.617982 229.800696 
L 291.128898 227.350098 
L 291.741997 223.211517 
L 292.49134 216.453981 
L 293.376928 206.228174 
L 294.432822 191.232269 
L 295.761203 168.882315 
L 297.702684 131.899466 
L 300.802242 73.010004 
L 302.164685 51.368766 
L 303.254639 37.326227 
L 304.140227 28.493094 
L 304.88957 23.016496 
L 305.50267 19.977786 
L 306.013586 18.468487 
L 306.388257 17.961638 
L 306.660746 17.913704 
L 306.933235 18.136026 
L 307.239784 18.708454 
L 307.648517 19.999304 
L 308.159433 22.449902 
L 308.772532 26.588483 
L 309.521876 33.346019 
L 310.407464 43.571826 
L 311.463357 58.567731 
L 312.791739 80.917685 
L 314.73322 117.900534 
L 317.832777 176.789996 
L 319.19522 198.431234 
L 320.285175 212.473773 
L 321.170762 221.306906 
L 321.920106 226.783504 
L 322.533205 229.822214 
L 323.044121 231.331513 
L 323.418793 231.838362 
L 323.691282 231.886296 
L 323.96377 231.663974 
L 324.27032 231.091546 
L 324.679053 229.800696 
L 325.189969 227.350098 
L 325.803068 223.211517 
L 326.552412 216.453981 
L 327.437999 206.228174 
L 328.493893 191.232269 
L 329.822274 168.882315 
L 331.763756 131.899466 
L 334.863313 73.010004 
L 336.225756 51.368766 
L 337.31571 37.326227 
L 338.201298 28.493094 
L 338.950642 23.016496 
L 339.563741 19.977786 
L 340.074657 18.468487 
L 340.449329 17.961638 
L 340.721817 17.913704 
L 340.994306 18.136026 
L 341.300855 18.708454 
L 341.709588 19.999304 
L 342.220504 22.449902 
L 342.833604 26.588483 
L 343.582947 33.346019 
L 344.468535 43.571826 
L 345.524428 58.567731 
L 346.85281 80.917685 
L 348.794291 117.900534 
L 351.893849 176.789996 
L 353.256291 198.431234 
L 354.346246 212.473773 
L 355.231834 221.306906 
L 355.981177 226.783504 
L 356.594276 229.822214 
L 357.105192 231.331513 
L 357.479864 231.838362 
L 357.752353 231.886296 
L 358.024841 231.663974 
L 358.331391 231.091546 
L 358.740124 229.800696 
L 359.25104 227.350098 
L 359.864139 223.211517 
L 360.613483 216.453981 
L 361.499071 206.228174 
L 362.554964 191.232269 
L 363.883346 168.882315 
L 365.824827 131.899466 
L 368.924384 73.010004 
L 370.286827 51.368766 
L 371.376781 37.326227 
L 372.262369 28.493094 
L 373.011713 23.016496 
L 373.624812 19.977786 
L 374.135728 18.468487 
L 374.5104 17.961638 
L 374.782888 17.913704 
L 375.055377 18.136026 
L 375.361927 18.708454 
L 375.770659 19.999304 
L 376.281576 22.449902 
L 376.894675 26.588483 
L 377.644018 33.346019 
L 378.529606 43.571826 
L 379.585499 58.567731 
L 380.913881 80.917685 
L 382.855362 117.900534 
L 385.95492 176.789996 
L 387.317363 198.431234 
L 388.407317 212.473773 
L 389.292905 221.306906 
L 390.042248 226.783504 
L 390.655348 229.822214 
L 391.166264 231.331513 
L 391.540935 231.838362 
L 391.813424 231.886296 
L 392.085913 231.663974 
L 392.392462 231.091546 
L 392.801195 229.800696 
L 393.312111 227.350098 
L 393.92521 223.211517 
L 394.674554 216.453981 
L 395.560142 206.228174 
L 396.616035 191.232269 
L 397.944417 168.882315 
L 399.885898 131.899466 
L 400.240767 124.9 
L 400.240767 124.9 
" style="fill:none;stroke:#0000ff;stroke-linecap:square;stroke-width:1.5;"/>
   </g>
   <g id="line2d_13">
    <path clip-path="url(#pf3dbe042af)" d="M 59.649858 81.260994 
L 65.474301 81.280758 
L 70.140668 80.888254 
L 73.001798 80.789851 
L 84.412257 81.050211 
L 99.46725 81.283223 
L 103.758945 80.920944 
L 106.79038 80.786208 
L 112.785129 80.918715 
L 133.460199 81.285696 
L 137.513467 80.945053 
L 140.681146 80.784823 
L 145.415635 80.884398 
L 167.52127 81.284384 
L 171.574538 80.943763 
L 174.742217 80.783551 
L 179.476706 80.883139 
L 201.582342 81.28318 
L 205.635609 80.942579 
L 208.803289 80.782383 
L 213.537777 80.881982 
L 235.643413 81.282073 
L 239.69668 80.941492 
L 242.86436 80.78131 
L 247.598849 80.88092 
L 269.704484 81.281056 
L 273.757751 80.940492 
L 276.925431 80.780325 
L 281.65992 80.879944 
L 303.765555 81.280122 
L 307.818822 80.939575 
L 310.986502 80.779419 
L 315.720991 80.879048 
L 337.826626 81.279264 
L 341.879894 80.938731 
L 345.047573 80.778588 
L 349.782062 80.878224 
L 371.887697 81.278476 
L 375.940965 80.937957 
L 379.108644 80.777824 
L 383.843133 80.877468 
L 400.240767 81.249454 
L 400.240767 81.249454 
" style="fill:none;stroke:#1f77b4;stroke-linecap:square;stroke-width:1.5;"/>
   </g>
   <g id="patch_3">
    <path d="M 42.620313 242.6 
L 42.620313 7.2 
" style="fill:none;stroke:#000000;stroke-linecap:square;stroke-linejoin:miter;stroke-width:0.8;"/>
   </g>
   <g id="patch_4">
    <path d="M 417.270312 242.6 
L 417.270312 7.2 
" style="fill:none;stroke:#000000;stroke-linecap:square;stroke-linejoin:miter;stroke-width:0.8;"/>
   </g>
   <g id="patch_5">
    <path d="M 42.620313 242.6 
L 417.270313 242.6 
" style="fill:none;stroke:#000000;stroke-linecap:square;stroke-linejoin:miter;stroke-width:0.8;"/>
   </g>
   <g id="patch_6">
    <path d="M 42.620313 7.2 
L 417.270313 7.2 
" style="fill:none;stroke:#000000;stroke-linecap:square;stroke-linejoin:miter;stroke-width:0.8;"/>
   </g>
   <g id="legend_1">
    <g id="patch_7">
     <path d="M 48.366813 89.59 
L 171.179313 89.59 
Q 173.179313 89.59 173.179313 87.59 
L 173.179313 59.23375 
Q 173.179313 57.23375 171.179313 57.23375 
L 48.366813 57.23375 
Q 46.366813 57.23375 46.366813 59.23375 
L 46.366813 87.59 
Q 46.366813 89.59 48.366813 89.59 
z
" style="fill:#ffffff;opacity:0.8;stroke:#cccccc;stroke-linejoin:miter;"/>
    </g>
    <g id="line2d_14">
     <path d="M 50.366813 65.332187 
L 70.366813 65.332187 
" style="fill:none;stroke:#0000ff;stroke-linecap:square;stroke-width:1.5;"/>
    </g>
    <g id="line2d_15"/>
    <g id="text_14">
     <!-- Vin [V] -->
     <g transform="translate(78.366813 68.832187)scale(0.1 -0.1)">
      <defs>
       <path d="M 3513 2113 
L 3513 0 
L 2938 0 
L 2938 2094 
Q 2938 2591 2744 2837 
Q 2550 3084 2163 3084 
Q 1697 3084 1428 2787 
Q 1159 2491 1159 1978 
L 1159 0 
L 581 0 
L 581 3500 
L 1159 3500 
L 1159 2956 
Q 1366 3272 1645 3428 
Q 1925 3584 2291 3584 
Q 2894 3584 3203 3211 
Q 3513 2838 3513 2113 
z
" id="DejaVuSans-6e" transform="scale(0.015625)"/>
      </defs>
      <use xlink:href="#DejaVuSans-56"/>
      <use x="66.158203" xlink:href="#DejaVuSans-69"/>
      <use x="93.941406" xlink:href="#DejaVuSans-6e"/>
      <use x="157.320312" xlink:href="#DejaVuSans-20"/>
      <use x="189.107422" xlink:href="#DejaVuSans-5b"/>
      <use x="228.121094" xlink:href="#DejaVuSans-56"/>
      <use x="296.529297" xlink:href="#DejaVuSans-5d"/>
     </g>
    </g>
    <g id="line2d_16">
     <path d="M 50.366813 80.010312 
L 70.366813 80.010312 
" style="fill:none;stroke:#1f77b4;stroke-linecap:square;stroke-width:1.5;"/>
    </g>
    <g id="line2d_17"/>
    <g id="text_15">
     <!-- Vout (R2=100 kΩ) -->
     <g transform="translate(78.366813 83.510312)scale(0.1 -0.1)">
      <defs>
       <path d="M 1959 3097 
Q 1497 3097 1228 2736 
Q 959 2375 959 1747 
Q 959 1119 1226 758 
Q 1494 397 1959 397 
Q 2419 397 2687 759 
Q 2956 1122 2956 1747 
Q 2956 2369 2687 2733 
Q 2419 3097 1959 3097 
z
M 1959 3584 
Q 2709 3584 3137 3096 
Q 3566 2609 3566 1747 
Q 3566 888 3137 398 
Q 2709 -91 1959 -91 
Q 1206 -91 779 398 
Q 353 888 353 1747 
Q 353 2609 779 3096 
Q 1206 3584 1959 3584 
z
" id="DejaVuSans-6f" transform="scale(0.015625)"/>
       <path d="M 544 1381 
L 544 3500 
L 1119 3500 
L 1119 1403 
Q 1119 906 1312 657 
Q 1506 409 1894 409 
Q 2359 409 2629 706 
Q 2900 1003 2900 1516 
L 2900 3500 
L 3475 3500 
L 3475 0 
L 2900 0 
L 2900 538 
Q 2691 219 2414 64 
Q 2138 -91 1772 -91 
Q 1169 -91 856 284 
Q 544 659 544 1381 
z
M 1991 3584 
L 1991 3584 
z
" id="DejaVuSans-75" transform="scale(0.015625)"/>
       <path d="M 2841 2188 
Q 3044 2119 3236 1894 
Q 3428 1669 3622 1275 
L 4263 0 
L 3584 0 
L 2988 1197 
Q 2756 1666 2539 1819 
Q 2322 1972 1947 1972 
L 1259 1972 
L 1259 0 
L 628 0 
L 628 4666 
L 2053 4666 
Q 2853 4666 3247 4331 
Q 3641 3997 3641 3322 
Q 3641 2881 3436 2590 
Q 3231 2300 2841 2188 
z
M 1259 4147 
L 1259 2491 
L 2053 2491 
Q 2509 2491 2742 2702 
Q 2975 2913 2975 3322 
Q 2975 3731 2742 3939 
Q 2509 4147 2053 4147 
L 1259 4147 
z
" id="DejaVuSans-52" transform="scale(0.015625)"/>
       <path d="M 678 2906 
L 4684 2906 
L 4684 2381 
L 678 2381 
L 678 2906 
z
M 678 1631 
L 4684 1631 
L 4684 1100 
L 678 1100 
L 678 1631 
z
" id="DejaVuSans-3d" transform="scale(0.015625)"/>
       <path d="M 581 4863 
L 1159 4863 
L 1159 1991 
L 2875 3500 
L 3609 3500 
L 1753 1863 
L 3688 0 
L 2938 0 
L 1159 1709 
L 1159 0 
L 581 0 
L 581 4863 
z
" id="DejaVuSans-6b" transform="scale(0.015625)"/>
       <path d="M 4647 556 
L 4647 0 
L 2772 0 
L 2772 556 
Q 3325 859 3634 1378 
Q 3944 1897 3944 2528 
Q 3944 3278 3531 3731 
Q 3119 4184 2444 4184 
Q 1769 4184 1355 3729 
Q 941 3275 941 2528 
Q 941 1897 1250 1378 
Q 1563 859 2119 556 
L 2119 0 
L 244 0 
L 244 556 
L 1241 556 
Q 747 991 519 1456 
Q 294 1922 294 2497 
Q 294 3491 894 4106 
Q 1491 4722 2444 4722 
Q 3391 4722 3994 4106 
Q 4594 3494 4594 2528 
Q 4594 1922 4372 1459 
Q 4150 997 3647 556 
L 4647 556 
z
" id="DejaVuSans-3a9" transform="scale(0.015625)"/>
      </defs>
      <use xlink:href="#DejaVuSans-56"/>
      <use x="60.658203" xlink:href="#DejaVuSans-6f"/>
      <use x="121.839844" xlink:href="#DejaVuSans-75"/>
      <use x="185.21875" xlink:href="#DejaVuSans-74"/>
      <use x="224.427734" xlink:href="#DejaVuSans-20"/>
      <use x="256.214844" xlink:href="#DejaVuSans-28"/>
      <use x="295.228516" xlink:href="#DejaVuSans-52"/>
      <use x="364.710938" xlink:href="#DejaVuSans-32"/>
      <use x="428.333984" xlink:href="#DejaVuSans-3d"/>
      <use x="512.123047" xlink:href="#DejaVuSans-31"/>
      <use x="575.746094" xlink:href="#DejaVuSans-30"/>
      <use x="639.369141" xlink:href="#DejaVuSans-30"/>
      <use x="702.992188" xlink:href="#DejaVuSans-20"/>
      <use x="734.779297" xlink:href="#DejaVuSans-6b"/>
      <use x="792.689453" xlink:href="#DejaVuSans-3a9"/>
      <use x="869.105469" xlink:href="#DejaVuSans-29"/>
     </g>
    </g>
   </g>
  </g>
 </g>
 <defs>
  <clipPath id="pf3dbe042af">
   <rect height="235.4" width="374.65" x="42.620313" y="7.2"/>
  </clipPath>
 </defs>
</svg>
