<?xml version="1.0" encoding="utf-8" standalone="no"?>
<!DOCTYPE svg PUBLIC "-//W3C//DTD SVG 1.1//EN"
  "http://www.w3.org/Graphics/SVG/1.1/DTD/svg11.dtd">
<!-- Created with matplotlib (https://matplotlib.org/) -->
<svg height="280.15625pt" version="1.1" viewBox="0 0 424.470313 280.15625" width="424.470313pt" xmlns="http://www.w3.org/2000/svg" xmlns:xlink="http://www.w3.org/1999/xlink">
 <metadata>
  <rdf:RDF xmlns:cc="http://creativecommons.org/ns#" xmlns:dc="http://purl.org/dc/elements/1.1/" xmlns:rdf="http://www.w3.org/1999/02/22-rdf-syntax-ns#">
   <cc:Work>
    <dc:type rdf:resource="http://purl.org/dc/dcmitype/StillImage"/>
    <dc:date>2021-03-29T15:52:24.585627</dc:date>
    <dc:format>image/svg+xml</dc:format>
    <dc:creator>
     <cc:Agent>
      <dc:title>Matplotlib v3.3.4, https://matplotlib.org/</dc:title>
     </cc:Agent>
    </dc:creator>
   </cc:Work>
  </rdf:RDF>
 </metadata>
 <defs>
  <style type="text/css">*{stroke-linecap:butt;stroke-linejoin:round;}</style>
 </defs>
 <g id="figure_1">
  <g id="patch_1">
   <path d="M 0 280.15625 
L 424.470313 280.15625 
L 424.470313 0 
L 0 0 
z
" style="fill:none;"/>
  </g>
  <g id="axes_1">
   <g id="patch_2">
    <path d="M 42.620313 242.6 
L 417.270312 242.6 
L 417.270312 7.2 
L 42.620313 7.2 
z
" style="fill:#ffffff;"/>
   </g>
   <g id="matplotlib.axis_1">
    <g id="xtick_1">
     <g id="line2d_1">
      <defs>
       <path d="M 0 0 
L 0 3.5 
" id="m8bb942aaba" style="stroke:#000000;stroke-width:0.8;"/>
      </defs>
      <g>
       <use style="stroke:#000000;stroke-width:0.8;" x="59.630055" xlink:href="#m8bb942aaba" y="242.6"/>
      </g>
     </g>
     <g id="text_1">
      <!-- 100 -->
      <g transform="translate(50.086305 257.198437)scale(0.1 -0.1)">
       <defs>
        <path d="M 12.40625 8.296875 
L 28.515625 8.296875 
L 28.515625 63.921875 
L 10.984375 60.40625 
L 10.984375 69.390625 
L 28.421875 72.90625 
L 38.28125 72.90625 
L 38.28125 8.296875 
L 54.390625 8.296875 
L 54.390625 0 
L 12.40625 0 
z
" id="DejaVuSans-49"/>
        <path d="M 31.78125 66.40625 
Q 24.171875 66.40625 20.328125 58.90625 
Q 16.5 51.421875 16.5 36.375 
Q 16.5 21.390625 20.328125 13.890625 
Q 24.171875 6.390625 31.78125 6.390625 
Q 39.453125 6.390625 43.28125 13.890625 
Q 47.125 21.390625 47.125 36.375 
Q 47.125 51.421875 43.28125 58.90625 
Q 39.453125 66.40625 31.78125 66.40625 
z
M 31.78125 74.21875 
Q 44.046875 74.21875 50.515625 64.515625 
Q 56.984375 54.828125 56.984375 36.375 
Q 56.984375 17.96875 50.515625 8.265625 
Q 44.046875 -1.421875 31.78125 -1.421875 
Q 19.53125 -1.421875 13.0625 8.265625 
Q 6.59375 17.96875 6.59375 36.375 
Q 6.59375 54.828125 13.0625 64.515625 
Q 19.53125 74.21875 31.78125 74.21875 
z
" id="DejaVuSans-48"/>
       </defs>
       <use xlink:href="#DejaVuSans-49"/>
       <use x="63.623047" xlink:href="#DejaVuSans-48"/>
       <use x="127.246094" xlink:href="#DejaVuSans-48"/>
      </g>
     </g>
    </g>
    <g id="xtick_2">
     <g id="line2d_2">
      <g>
       <use style="stroke:#000000;stroke-width:0.8;" x="127.752198" xlink:href="#m8bb942aaba" y="242.6"/>
      </g>
     </g>
     <g id="text_2">
      <!-- 102 -->
      <g transform="translate(118.208448 257.198437)scale(0.1 -0.1)">
       <defs>
        <path d="M 19.1875 8.296875 
L 53.609375 8.296875 
L 53.609375 0 
L 7.328125 0 
L 7.328125 8.296875 
Q 12.9375 14.109375 22.625 23.890625 
Q 32.328125 33.6875 34.8125 36.53125 
Q 39.546875 41.84375 41.421875 45.53125 
Q 43.3125 49.21875 43.3125 52.78125 
Q 43.3125 58.59375 39.234375 62.25 
Q 35.15625 65.921875 28.609375 65.921875 
Q 23.96875 65.921875 18.8125 64.3125 
Q 13.671875 62.703125 7.8125 59.421875 
L 7.8125 69.390625 
Q 13.765625 71.78125 18.9375 73 
Q 24.125 74.21875 28.421875 74.21875 
Q 39.75 74.21875 46.484375 68.546875 
Q 53.21875 62.890625 53.21875 53.421875 
Q 53.21875 48.921875 51.53125 44.890625 
Q 49.859375 40.875 45.40625 35.40625 
Q 44.1875 33.984375 37.640625 27.21875 
Q 31.109375 20.453125 19.1875 8.296875 
z
" id="DejaVuSans-50"/>
       </defs>
       <use xlink:href="#DejaVuSans-49"/>
       <use x="63.623047" xlink:href="#DejaVuSans-48"/>
       <use x="127.246094" xlink:href="#DejaVuSans-50"/>
      </g>
     </g>
    </g>
    <g id="xtick_3">
     <g id="line2d_3">
      <g>
       <use style="stroke:#000000;stroke-width:0.8;" x="195.87434" xlink:href="#m8bb942aaba" y="242.6"/>
      </g>
     </g>
     <g id="text_3">
      <!-- 104 -->
      <g transform="translate(186.33059 257.198437)scale(0.1 -0.1)">
       <defs>
        <path d="M 37.796875 64.3125 
L 12.890625 25.390625 
L 37.796875 25.390625 
z
M 35.203125 72.90625 
L 47.609375 72.90625 
L 47.609375 25.390625 
L 58.015625 25.390625 
L 58.015625 17.1875 
L 47.609375 17.1875 
L 47.609375 0 
L 37.796875 0 
L 37.796875 17.1875 
L 4.890625 17.1875 
L 4.890625 26.703125 
z
" id="DejaVuSans-52"/>
       </defs>
       <use xlink:href="#DejaVuSans-49"/>
       <use x="63.623047" xlink:href="#DejaVuSans-48"/>
       <use x="127.246094" xlink:href="#DejaVuSans-52"/>
      </g>
     </g>
    </g>
    <g id="xtick_4">
     <g id="line2d_4">
      <g>
       <use style="stroke:#000000;stroke-width:0.8;" x="263.996482" xlink:href="#m8bb942aaba" y="242.6"/>
      </g>
     </g>
     <g id="text_4">
      <!-- 106 -->
      <g transform="translate(254.452732 257.198437)scale(0.1 -0.1)">
       <defs>
        <path d="M 33.015625 40.375 
Q 26.375 40.375 22.484375 35.828125 
Q 18.609375 31.296875 18.609375 23.390625 
Q 18.609375 15.53125 22.484375 10.953125 
Q 26.375 6.390625 33.015625 6.390625 
Q 39.65625 6.390625 43.53125 10.953125 
Q 47.40625 15.53125 47.40625 23.390625 
Q 47.40625 31.296875 43.53125 35.828125 
Q 39.65625 40.375 33.015625 40.375 
z
M 52.59375 71.296875 
L 52.59375 62.3125 
Q 48.875 64.0625 45.09375 64.984375 
Q 41.3125 65.921875 37.59375 65.921875 
Q 27.828125 65.921875 22.671875 59.328125 
Q 17.53125 52.734375 16.796875 39.40625 
Q 19.671875 43.65625 24.015625 45.921875 
Q 28.375 48.1875 33.59375 48.1875 
Q 44.578125 48.1875 50.953125 41.515625 
Q 57.328125 34.859375 57.328125 23.390625 
Q 57.328125 12.15625 50.6875 5.359375 
Q 44.046875 -1.421875 33.015625 -1.421875 
Q 20.359375 -1.421875 13.671875 8.265625 
Q 6.984375 17.96875 6.984375 36.375 
Q 6.984375 53.65625 15.1875 63.9375 
Q 23.390625 74.21875 37.203125 74.21875 
Q 40.921875 74.21875 44.703125 73.484375 
Q 48.484375 72.75 52.59375 71.296875 
z
" id="DejaVuSans-54"/>
       </defs>
       <use xlink:href="#DejaVuSans-49"/>
       <use x="63.623047" xlink:href="#DejaVuSans-48"/>
       <use x="127.246094" xlink:href="#DejaVuSans-54"/>
      </g>
     </g>
    </g>
    <g id="xtick_5">
     <g id="line2d_5">
      <g>
       <use style="stroke:#000000;stroke-width:0.8;" x="332.118625" xlink:href="#m8bb942aaba" y="242.6"/>
      </g>
     </g>
     <g id="text_5">
      <!-- 108 -->
      <g transform="translate(322.574875 257.198437)scale(0.1 -0.1)">
       <defs>
        <path d="M 31.78125 34.625 
Q 24.75 34.625 20.71875 30.859375 
Q 16.703125 27.09375 16.703125 20.515625 
Q 16.703125 13.921875 20.71875 10.15625 
Q 24.75 6.390625 31.78125 6.390625 
Q 38.8125 6.390625 42.859375 10.171875 
Q 46.921875 13.96875 46.921875 20.515625 
Q 46.921875 27.09375 42.890625 30.859375 
Q 38.875 34.625 31.78125 34.625 
z
M 21.921875 38.8125 
Q 15.578125 40.375 12.03125 44.71875 
Q 8.5 49.078125 8.5 55.328125 
Q 8.5 64.0625 14.71875 69.140625 
Q 20.953125 74.21875 31.78125 74.21875 
Q 42.671875 74.21875 48.875 69.140625 
Q 55.078125 64.0625 55.078125 55.328125 
Q 55.078125 49.078125 51.53125 44.71875 
Q 48 40.375 41.703125 38.8125 
Q 48.828125 37.15625 52.796875 32.3125 
Q 56.78125 27.484375 56.78125 20.515625 
Q 56.78125 9.90625 50.3125 4.234375 
Q 43.84375 -1.421875 31.78125 -1.421875 
Q 19.734375 -1.421875 13.25 4.234375 
Q 6.78125 9.90625 6.78125 20.515625 
Q 6.78125 27.484375 10.78125 32.3125 
Q 14.796875 37.15625 21.921875 38.8125 
z
M 18.3125 54.390625 
Q 18.3125 48.734375 21.84375 45.5625 
Q 25.390625 42.390625 31.78125 42.390625 
Q 38.140625 42.390625 41.71875 45.5625 
Q 45.3125 48.734375 45.3125 54.390625 
Q 45.3125 60.0625 41.71875 63.234375 
Q 38.140625 66.40625 31.78125 66.40625 
Q 25.390625 66.40625 21.84375 63.234375 
Q 18.3125 60.0625 18.3125 54.390625 
z
" id="DejaVuSans-56"/>
       </defs>
       <use xlink:href="#DejaVuSans-49"/>
       <use x="63.623047" xlink:href="#DejaVuSans-48"/>
       <use x="127.246094" xlink:href="#DejaVuSans-56"/>
      </g>
     </g>
    </g>
    <g id="xtick_6">
     <g id="line2d_6">
      <g>
       <use style="stroke:#000000;stroke-width:0.8;" x="400.240767" xlink:href="#m8bb942aaba" y="242.6"/>
      </g>
     </g>
     <g id="text_6">
      <!-- 110 -->
      <g transform="translate(390.697017 257.198437)scale(0.1 -0.1)">
       <use xlink:href="#DejaVuSans-49"/>
       <use x="63.623047" xlink:href="#DejaVuSans-49"/>
       <use x="127.246094" xlink:href="#DejaVuSans-48"/>
      </g>
     </g>
    </g>
    <g id="text_7">
     <!-- time (ms) -->
     <g transform="translate(205.683594 270.876562)scale(0.1 -0.1)">
      <defs>
       <path d="M 18.3125 70.21875 
L 18.3125 54.6875 
L 36.8125 54.6875 
L 36.8125 47.703125 
L 18.3125 47.703125 
L 18.3125 18.015625 
Q 18.3125 11.328125 20.140625 9.421875 
Q 21.96875 7.515625 27.59375 7.515625 
L 36.8125 7.515625 
L 36.8125 0 
L 27.59375 0 
Q 17.1875 0 13.234375 3.875 
Q 9.28125 7.765625 9.28125 18.015625 
L 9.28125 47.703125 
L 2.6875 47.703125 
L 2.6875 54.6875 
L 9.28125 54.6875 
L 9.28125 70.21875 
z
" id="DejaVuSans-116"/>
       <path d="M 9.421875 54.6875 
L 18.40625 54.6875 
L 18.40625 0 
L 9.421875 0 
z
M 9.421875 75.984375 
L 18.40625 75.984375 
L 18.40625 64.59375 
L 9.421875 64.59375 
z
" id="DejaVuSans-105"/>
       <path d="M 52 44.1875 
Q 55.375 50.25 60.0625 53.125 
Q 64.75 56 71.09375 56 
Q 79.640625 56 84.28125 50.015625 
Q 88.921875 44.046875 88.921875 33.015625 
L 88.921875 0 
L 79.890625 0 
L 79.890625 32.71875 
Q 79.890625 40.578125 77.09375 44.375 
Q 74.3125 48.1875 68.609375 48.1875 
Q 61.625 48.1875 57.5625 43.546875 
Q 53.515625 38.921875 53.515625 30.90625 
L 53.515625 0 
L 44.484375 0 
L 44.484375 32.71875 
Q 44.484375 40.625 41.703125 44.40625 
Q 38.921875 48.1875 33.109375 48.1875 
Q 26.21875 48.1875 22.15625 43.53125 
Q 18.109375 38.875 18.109375 30.90625 
L 18.109375 0 
L 9.078125 0 
L 9.078125 54.6875 
L 18.109375 54.6875 
L 18.109375 46.1875 
Q 21.1875 51.21875 25.484375 53.609375 
Q 29.78125 56 35.6875 56 
Q 41.65625 56 45.828125 52.96875 
Q 50 49.953125 52 44.1875 
z
" id="DejaVuSans-109"/>
       <path d="M 56.203125 29.59375 
L 56.203125 25.203125 
L 14.890625 25.203125 
Q 15.484375 15.921875 20.484375 11.0625 
Q 25.484375 6.203125 34.421875 6.203125 
Q 39.59375 6.203125 44.453125 7.46875 
Q 49.3125 8.734375 54.109375 11.28125 
L 54.109375 2.78125 
Q 49.265625 0.734375 44.1875 -0.34375 
Q 39.109375 -1.421875 33.890625 -1.421875 
Q 20.796875 -1.421875 13.15625 6.1875 
Q 5.515625 13.8125 5.515625 26.8125 
Q 5.515625 40.234375 12.765625 48.109375 
Q 20.015625 56 32.328125 56 
Q 43.359375 56 49.78125 48.890625 
Q 56.203125 41.796875 56.203125 29.59375 
z
M 47.21875 32.234375 
Q 47.125 39.59375 43.09375 43.984375 
Q 39.0625 48.390625 32.421875 48.390625 
Q 24.90625 48.390625 20.390625 44.140625 
Q 15.875 39.890625 15.1875 32.171875 
z
" id="DejaVuSans-101"/>
       <path id="DejaVuSans-32"/>
       <path d="M 31 75.875 
Q 24.46875 64.65625 21.28125 53.65625 
Q 18.109375 42.671875 18.109375 31.390625 
Q 18.109375 20.125 21.3125 9.0625 
Q 24.515625 -2 31 -13.1875 
L 23.1875 -13.1875 
Q 15.875 -1.703125 12.234375 9.375 
Q 8.59375 20.453125 8.59375 31.390625 
Q 8.59375 42.28125 12.203125 53.3125 
Q 15.828125 64.359375 23.1875 75.875 
z
" id="DejaVuSans-40"/>
       <path d="M 44.28125 53.078125 
L 44.28125 44.578125 
Q 40.484375 46.53125 36.375 47.5 
Q 32.28125 48.484375 27.875 48.484375 
Q 21.1875 48.484375 17.84375 46.4375 
Q 14.5 44.390625 14.5 40.28125 
Q 14.5 37.15625 16.890625 35.375 
Q 19.28125 33.59375 26.515625 31.984375 
L 29.59375 31.296875 
Q 39.15625 29.25 43.1875 25.515625 
Q 47.21875 21.78125 47.21875 15.09375 
Q 47.21875 7.46875 41.1875 3.015625 
Q 35.15625 -1.421875 24.609375 -1.421875 
Q 20.21875 -1.421875 15.453125 -0.5625 
Q 10.6875 0.296875 5.421875 2 
L 5.421875 11.28125 
Q 10.40625 8.6875 15.234375 7.390625 
Q 20.0625 6.109375 24.8125 6.109375 
Q 31.15625 6.109375 34.5625 8.28125 
Q 37.984375 10.453125 37.984375 14.40625 
Q 37.984375 18.0625 35.515625 20.015625 
Q 33.0625 21.96875 24.703125 23.78125 
L 21.578125 24.515625 
Q 13.234375 26.265625 9.515625 29.90625 
Q 5.8125 33.546875 5.8125 39.890625 
Q 5.8125 47.609375 11.28125 51.796875 
Q 16.75 56 26.8125 56 
Q 31.78125 56 36.171875 55.265625 
Q 40.578125 54.546875 44.28125 53.078125 
z
" id="DejaVuSans-115"/>
       <path d="M 8.015625 75.875 
L 15.828125 75.875 
Q 23.140625 64.359375 26.78125 53.3125 
Q 30.421875 42.28125 30.421875 31.390625 
Q 30.421875 20.453125 26.78125 9.375 
Q 23.140625 -1.703125 15.828125 -13.1875 
L 8.015625 -13.1875 
Q 14.5 -2 17.703125 9.0625 
Q 20.90625 20.125 20.90625 31.390625 
Q 20.90625 42.671875 17.703125 53.65625 
Q 14.5 64.65625 8.015625 75.875 
z
" id="DejaVuSans-41"/>
      </defs>
      <use xlink:href="#DejaVuSans-116"/>
      <use x="39.208984" xlink:href="#DejaVuSans-105"/>
      <use x="66.992188" xlink:href="#DejaVuSans-109"/>
      <use x="164.404297" xlink:href="#DejaVuSans-101"/>
      <use x="225.927734" xlink:href="#DejaVuSans-32"/>
      <use x="257.714844" xlink:href="#DejaVuSans-40"/>
      <use x="296.728516" xlink:href="#DejaVuSans-109"/>
      <use x="394.140625" xlink:href="#DejaVuSans-115"/>
      <use x="446.240234" xlink:href="#DejaVuSans-41"/>
     </g>
    </g>
   </g>
   <g id="matplotlib.axis_2">
    <g id="ytick_1">
     <g id="line2d_7">
      <defs>
       <path d="M 0 0 
L -3.5 0 
" id="m2c4c0ea524" style="stroke:#000000;stroke-width:0.8;"/>
      </defs>
      <g>
       <use style="stroke:#000000;stroke-width:0.8;" x="42.620313" xlink:href="#m2c4c0ea524" y="210.500296"/>
      </g>
     </g>
     <g id="text_8">
      <!-- −4 -->
      <g transform="translate(20.878125 214.299515)scale(0.1 -0.1)">
       <defs>
        <path d="M 10.59375 35.5 
L 73.1875 35.5 
L 73.1875 27.203125 
L 10.59375 27.203125 
z
" id="DejaVuSans-8722"/>
       </defs>
       <use xlink:href="#DejaVuSans-8722"/>
       <use x="83.789062" xlink:href="#DejaVuSans-52"/>
      </g>
     </g>
    </g>
    <g id="ytick_2">
     <g id="line2d_8">
      <g>
       <use style="stroke:#000000;stroke-width:0.8;" x="42.620313" xlink:href="#m2c4c0ea524" y="167.700148"/>
      </g>
     </g>
     <g id="text_9">
      <!-- −2 -->
      <g transform="translate(20.878125 171.499367)scale(0.1 -0.1)">
       <use xlink:href="#DejaVuSans-8722"/>
       <use x="83.789062" xlink:href="#DejaVuSans-50"/>
      </g>
     </g>
    </g>
    <g id="ytick_3">
     <g id="line2d_9">
      <g>
       <use style="stroke:#000000;stroke-width:0.8;" x="42.620313" xlink:href="#m2c4c0ea524" y="124.9"/>
      </g>
     </g>
     <g id="text_10">
      <!-- 0 -->
      <g transform="translate(29.257813 128.699219)scale(0.1 -0.1)">
       <use xlink:href="#DejaVuSans-48"/>
      </g>
     </g>
    </g>
    <g id="ytick_4">
     <g id="line2d_10">
      <g>
       <use style="stroke:#000000;stroke-width:0.8;" x="42.620313" xlink:href="#m2c4c0ea524" y="82.099852"/>
      </g>
     </g>
     <g id="text_11">
      <!-- 2 -->
      <g transform="translate(29.257813 85.899071)scale(0.1 -0.1)">
       <use xlink:href="#DejaVuSans-50"/>
      </g>
     </g>
    </g>
    <g id="ytick_5">
     <g id="line2d_11">
      <g>
       <use style="stroke:#000000;stroke-width:0.8;" x="42.620313" xlink:href="#m2c4c0ea524" y="39.299704"/>
      </g>
     </g>
     <g id="text_12">
      <!-- 4 -->
      <g transform="translate(29.257813 43.098923)scale(0.1 -0.1)">
       <use xlink:href="#DejaVuSans-52"/>
      </g>
     </g>
    </g>
    <g id="text_13">
     <!-- IN [V] -->
     <g transform="translate(14.798438 139.026562)rotate(-90)scale(0.1 -0.1)">
      <defs>
       <path d="M 9.8125 72.90625 
L 19.671875 72.90625 
L 19.671875 0 
L 9.8125 0 
z
" id="DejaVuSans-73"/>
       <path d="M 9.8125 72.90625 
L 23.09375 72.90625 
L 55.421875 11.921875 
L 55.421875 72.90625 
L 64.984375 72.90625 
L 64.984375 0 
L 51.703125 0 
L 19.390625 60.984375 
L 19.390625 0 
L 9.8125 0 
z
" id="DejaVuSans-78"/>
       <path d="M 8.59375 75.984375 
L 29.296875 75.984375 
L 29.296875 69 
L 17.578125 69 
L 17.578125 -6.203125 
L 29.296875 -6.203125 
L 29.296875 -13.1875 
L 8.59375 -13.1875 
z
" id="DejaVuSans-91"/>
       <path d="M 28.609375 0 
L 0.78125 72.90625 
L 11.078125 72.90625 
L 34.1875 11.53125 
L 57.328125 72.90625 
L 67.578125 72.90625 
L 39.796875 0 
z
" id="DejaVuSans-86"/>
       <path d="M 30.421875 75.984375 
L 30.421875 -13.1875 
L 9.71875 -13.1875 
L 9.71875 -6.203125 
L 21.390625 -6.203125 
L 21.390625 69 
L 9.71875 69 
L 9.71875 75.984375 
z
" id="DejaVuSans-93"/>
      </defs>
      <use xlink:href="#DejaVuSans-73"/>
      <use x="29.492188" xlink:href="#DejaVuSans-78"/>
      <use x="104.296875" xlink:href="#DejaVuSans-32"/>
      <use x="136.083984" xlink:href="#DejaVuSans-91"/>
      <use x="175.097656" xlink:href="#DejaVuSans-86"/>
      <use x="243.505859" xlink:href="#DejaVuSans-93"/>
     </g>
    </g>
   </g>
   <g id="line2d_12">
    <path clip-path="url(#p3ec48459d7)" d="M 59.649858 124.509134 
L 62.306622 74.189984 
L 63.703125 51.858618 
L 64.79308 37.71425 
L 65.712729 28.493094 
L 66.462072 23.016496 
L 67.075171 19.977786 
L 67.586088 18.468487 
L 67.960759 17.961638 
L 68.233248 17.913704 
L 68.505736 18.136026 
L 68.812286 18.708454 
L 69.221019 19.999304 
L 69.731935 22.449902 
L 70.345034 26.588483 
L 71.094378 33.346019 
L 71.979966 43.571826 
L 73.035859 58.567731 
L 74.364241 80.917685 
L 76.305722 117.900534 
L 79.405279 176.789996 
L 80.767722 198.431234 
L 81.857676 212.473773 
L 82.743264 221.306906 
L 83.492608 226.783504 
L 84.105707 229.822214 
L 84.616623 231.331513 
L 84.991295 231.838362 
L 85.263783 231.886296 
L 85.536272 231.663974 
L 85.842822 231.091546 
L 86.251555 229.800696 
L 86.762471 227.350098 
L 87.37557 223.211517 
L 88.124913 216.453981 
L 89.010501 206.228174 
L 90.066395 191.232269 
L 91.394776 168.882315 
L 93.336257 131.899466 
L 96.435815 73.010004 
L 97.798258 51.368766 
L 98.888212 37.326227 
L 99.7738 28.493094 
L 100.523143 23.016496 
L 101.136243 19.977786 
L 101.647159 18.468487 
L 102.02183 17.961638 
L 102.294319 17.913704 
L 102.566808 18.136026 
L 102.873357 18.708454 
L 103.28209 19.999304 
L 103.793006 22.449902 
L 104.406105 26.588483 
L 105.155449 33.346019 
L 106.041037 43.571826 
L 107.09693 58.567731 
L 108.425312 80.917685 
L 110.366793 117.900534 
L 113.46635 176.789996 
L 114.828793 198.431234 
L 115.918748 212.473773 
L 116.804335 221.306906 
L 117.553679 226.783504 
L 118.166778 229.822214 
L 118.677694 231.331513 
L 119.052366 231.838362 
L 119.324855 231.886296 
L 119.597343 231.663974 
L 119.903893 231.091546 
L 120.312626 229.800696 
L 120.823542 227.350098 
L 121.436641 223.211517 
L 122.185985 216.453981 
L 123.071572 206.228174 
L 124.127466 191.232269 
L 125.455847 168.882315 
L 127.397329 131.899466 
L 130.496886 73.010004 
L 131.859329 51.368766 
L 132.949283 37.326227 
L 133.834871 28.493094 
L 134.584215 23.016496 
L 135.197314 19.977786 
L 135.70823 18.468487 
L 136.082902 17.961638 
L 136.35539 17.913704 
L 136.627879 18.136026 
L 136.934428 18.708454 
L 137.343161 19.999304 
L 137.854077 22.449902 
L 138.467177 26.588483 
L 139.21652 33.346019 
L 140.102108 43.571826 
L 141.158001 58.567731 
L 142.486383 80.917685 
L 144.427864 117.900534 
L 147.527422 176.789996 
L 148.889864 198.431234 
L 149.979819 212.473773 
L 150.865407 221.306906 
L 151.61475 226.783504 
L 152.227849 229.822214 
L 152.738765 231.331513 
L 153.113437 231.838362 
L 153.385926 231.886296 
L 153.658414 231.663974 
L 153.964964 231.091546 
L 154.373697 229.800696 
L 154.884613 227.350098 
L 155.497712 223.211517 
L 156.247056 216.453981 
L 157.132644 206.228174 
L 158.188537 191.232269 
L 159.516919 168.882315 
L 161.4584 131.899466 
L 164.557957 73.010004 
L 165.9204 51.368766 
L 167.010354 37.326227 
L 167.895942 28.493094 
L 168.645286 23.016496 
L 169.258385 19.977786 
L 169.769301 18.468487 
L 170.143973 17.961638 
L 170.416461 17.913704 
L 170.68895 18.136026 
L 170.9955 18.708454 
L 171.404232 19.999304 
L 171.915149 22.449902 
L 172.528248 26.588483 
L 173.277591 33.346019 
L 174.163179 43.571826 
L 175.219072 58.567731 
L 176.547454 80.917685 
L 178.488935 117.900534 
L 181.588493 176.789996 
L 182.950936 198.431234 
L 184.04089 212.473773 
L 184.926478 221.306906 
L 185.675821 226.783504 
L 186.288921 229.822214 
L 186.799837 231.331513 
L 187.174508 231.838362 
L 187.446997 231.886296 
L 187.719486 231.663974 
L 188.026035 231.091546 
L 188.434768 229.800696 
L 188.945684 227.350098 
L 189.558783 223.211517 
L 190.308127 216.453981 
L 191.193715 206.228174 
L 192.249608 191.232269 
L 193.57799 168.882315 
L 195.519471 131.899466 
L 198.619028 73.010004 
L 199.981471 51.368766 
L 201.071425 37.326227 
L 201.957013 28.493094 
L 202.706357 23.016496 
L 203.319456 19.977786 
L 203.830372 18.468487 
L 204.205044 17.961638 
L 204.477533 17.913704 
L 204.750021 18.136026 
L 205.056571 18.708454 
L 205.465304 19.999304 
L 205.97622 22.449902 
L 206.589319 26.588483 
L 207.338663 33.346019 
L 208.22425 43.571826 
L 209.280144 58.567731 
L 210.608525 80.917685 
L 212.550006 117.900534 
L 215.649564 176.789996 
L 217.012007 198.431234 
L 218.101961 212.473773 
L 218.987549 221.306906 
L 219.736892 226.783504 
L 220.349992 229.822214 
L 220.860908 231.331513 
L 221.23558 231.838362 
L 221.508068 231.886296 
L 221.780557 231.663974 
L 222.087106 231.091546 
L 222.495839 229.800696 
L 223.006755 227.350098 
L 223.619855 223.211517 
L 224.369198 216.453981 
L 225.254786 206.228174 
L 226.310679 191.232269 
L 227.639061 168.882315 
L 229.580542 131.899466 
L 232.680099 73.010004 
L 234.042542 51.368766 
L 235.132497 37.326227 
L 236.018084 28.493094 
L 236.767428 23.016496 
L 237.380527 19.977786 
L 237.891443 18.468487 
L 238.266115 17.961638 
L 238.538604 17.913704 
L 238.811092 18.136026 
L 239.117642 18.708454 
L 239.526375 19.999304 
L 240.037291 22.449902 
L 240.65039 26.588483 
L 241.399734 33.346019 
L 242.285322 43.571826 
L 243.341215 58.567731 
L 244.669597 80.917685 
L 246.611078 117.900534 
L 249.710635 176.789996 
L 251.073078 198.431234 
L 252.163032 212.473773 
L 253.04862 221.306906 
L 253.797964 226.783504 
L 254.411063 229.822214 
L 254.921979 231.331513 
L 255.296651 231.838362 
L 255.569139 231.886296 
L 255.841628 231.663974 
L 256.148178 231.091546 
L 256.55691 229.800696 
L 257.067826 227.350098 
L 257.680926 223.211517 
L 258.430269 216.453981 
L 259.315857 206.228174 
L 260.37175 191.232269 
L 261.700132 168.882315 
L 263.641613 131.899466 
L 266.741171 73.010004 
L 268.103614 51.368766 
L 269.193568 37.326227 
L 270.079156 28.493094 
L 270.828499 23.016496 
L 271.441598 19.977786 
L 271.952515 18.468487 
L 272.327186 17.961638 
L 272.599675 17.913704 
L 272.872163 18.136026 
L 273.178713 18.708454 
L 273.587446 19.999304 
L 274.098362 22.449902 
L 274.711461 26.588483 
L 275.460805 33.346019 
L 276.346393 43.571826 
L 277.402286 58.567731 
L 278.730668 80.917685 
L 280.672149 117.900534 
L 283.771706 176.789996 
L 285.134149 198.431234 
L 286.224103 212.473773 
L 287.109691 221.306906 
L 287.859035 226.783504 
L 288.472134 229.822214 
L 288.98305 231.331513 
L 289.357722 231.838362 
L 289.63021 231.886296 
L 289.902699 231.663974 
L 290.209249 231.091546 
L 290.617982 229.800696 
L 291.128898 227.350098 
L 291.741997 223.211517 
L 292.49134 216.453981 
L 293.376928 206.228174 
L 294.432822 191.232269 
L 295.761203 168.882315 
L 297.702684 131.899466 
L 300.802242 73.010004 
L 302.164685 51.368766 
L 303.254639 37.326227 
L 304.140227 28.493094 
L 304.88957 23.016496 
L 305.50267 19.977786 
L 306.013586 18.468487 
L 306.388257 17.961638 
L 306.660746 17.913704 
L 306.933235 18.136026 
L 307.239784 18.708454 
L 307.648517 19.999304 
L 308.159433 22.449902 
L 308.772532 26.588483 
L 309.521876 33.346019 
L 310.407464 43.571826 
L 311.463357 58.567731 
L 312.791739 80.917685 
L 314.73322 117.900534 
L 317.832777 176.789996 
L 319.19522 198.431234 
L 320.285175 212.473773 
L 321.170762 221.306906 
L 321.920106 226.783504 
L 322.533205 229.822214 
L 323.044121 231.331513 
L 323.418793 231.838362 
L 323.691282 231.886296 
L 323.96377 231.663974 
L 324.27032 231.091546 
L 324.679053 229.800696 
L 325.189969 227.350098 
L 325.803068 223.211517 
L 326.552412 216.453981 
L 327.437999 206.228174 
L 328.493893 191.232269 
L 329.822274 168.882315 
L 331.763756 131.899466 
L 334.863313 73.010004 
L 336.225756 51.368766 
L 337.31571 37.326227 
L 338.201298 28.493094 
L 338.950642 23.016496 
L 339.563741 19.977786 
L 340.074657 18.468487 
L 340.449329 17.961638 
L 340.721817 17.913704 
L 340.994306 18.136026 
L 341.300855 18.708454 
L 341.709588 19.999304 
L 342.220504 22.449902 
L 342.833604 26.588483 
L 343.582947 33.346019 
L 344.468535 43.571826 
L 345.524428 58.567731 
L 346.85281 80.917685 
L 348.794291 117.900534 
L 351.893849 176.789996 
L 353.256291 198.431234 
L 354.346246 212.473773 
L 355.231834 221.306906 
L 355.981177 226.783504 
L 356.594276 229.822214 
L 357.105192 231.331513 
L 357.479864 231.838362 
L 357.752353 231.886296 
L 358.024841 231.663974 
L 358.331391 231.091546 
L 358.740124 229.800696 
L 359.25104 227.350098 
L 359.864139 223.211517 
L 360.613483 216.453981 
L 361.499071 206.228174 
L 362.554964 191.232269 
L 363.883346 168.882315 
L 365.824827 131.899466 
L 368.924384 73.010004 
L 370.286827 51.368766 
L 371.376781 37.326227 
L 372.262369 28.493094 
L 373.011713 23.016496 
L 373.624812 19.977786 
L 374.135728 18.468487 
L 374.5104 17.961638 
L 374.782888 17.913704 
L 375.055377 18.136026 
L 375.361927 18.708454 
L 375.770659 19.999304 
L 376.281576 22.449902 
L 376.894675 26.588483 
L 377.644018 33.346019 
L 378.529606 43.571826 
L 379.585499 58.567731 
L 380.913881 80.917685 
L 382.855362 117.900534 
L 385.95492 176.789996 
L 387.317363 198.431234 
L 388.407317 212.473773 
L 389.292905 221.306906 
L 390.042248 226.783504 
L 390.655348 229.822214 
L 391.166264 231.331513 
L 391.540935 231.838362 
L 391.813424 231.886296 
L 392.085913 231.663974 
L 392.392462 231.091546 
L 392.801195 229.800696 
L 393.312111 227.350098 
L 393.92521 223.211517 
L 394.674554 216.453981 
L 395.560142 206.228174 
L 396.616035 191.232269 
L 397.944417 168.882315 
L 399.885898 131.899466 
L 400.240767 124.9 
L 400.240767 124.9 
" style="fill:none;stroke:#0000ff;stroke-linecap:square;stroke-width:1.5;"/>
   </g>
   <g id="line2d_13">
    <path clip-path="url(#p3ec48459d7)" d="M 59.649858 81.260994 
L 65.474301 81.280758 
L 70.140668 80.888254 
L 73.001798 80.789851 
L 84.412257 81.050211 
L 99.46725 81.283223 
L 103.758945 80.920944 
L 106.79038 80.786208 
L 112.785129 80.918715 
L 133.460199 81.285696 
L 137.513467 80.945053 
L 140.681146 80.784823 
L 145.415635 80.884398 
L 167.52127 81.284384 
L 171.574538 80.943763 
L 174.742217 80.783551 
L 179.476706 80.883139 
L 201.582342 81.28318 
L 205.635609 80.942579 
L 208.803289 80.782383 
L 213.537777 80.881982 
L 235.643413 81.282073 
L 239.69668 80.941492 
L 242.86436 80.78131 
L 247.598849 80.88092 
L 269.704484 81.281056 
L 273.757751 80.940492 
L 276.925431 80.780325 
L 281.65992 80.879944 
L 303.765555 81.280122 
L 307.818822 80.939575 
L 310.986502 80.779419 
L 315.720991 80.879048 
L 337.826626 81.279264 
L 341.879894 80.938731 
L 345.047573 80.778588 
L 349.782062 80.878224 
L 371.887697 81.278476 
L 375.940965 80.937957 
L 379.108644 80.777824 
L 383.843133 80.877468 
L 400.240767 81.249454 
L 400.240767 81.249454 
" style="fill:none;stroke:#1f77b4;stroke-linecap:square;stroke-width:1.5;"/>
   </g>
   <g id="patch_3">
    <path d="M 42.620313 242.6 
L 42.620313 7.2 
" style="fill:none;stroke:#000000;stroke-linecap:square;stroke-linejoin:miter;stroke-width:0.8;"/>
   </g>
   <g id="patch_4">
    <path d="M 417.270312 242.6 
L 417.270312 7.2 
" style="fill:none;stroke:#000000;stroke-linecap:square;stroke-linejoin:miter;stroke-width:0.8;"/>
   </g>
   <g id="patch_5">
    <path d="M 42.620313 242.6 
L 417.270313 242.6 
" style="fill:none;stroke:#000000;stroke-linecap:square;stroke-linejoin:miter;stroke-width:0.8;"/>
   </g>
   <g id="patch_6">
    <path d="M 42.620313 7.2 
L 417.270313 7.2 
" style="fill:none;stroke:#000000;stroke-linecap:square;stroke-linejoin:miter;stroke-width:0.8;"/>
   </g>
   <g id="legend_1">
    <g id="patch_7">
     <path d="M 48.366813 89.59 
L 171.179313 89.59 
Q 173.179313 89.59 173.179313 87.59 
L 173.179313 59.23375 
Q 173.179313 57.23375 171.179313 57.23375 
L 48.366813 57.23375 
Q 46.366813 57.23375 46.366813 59.23375 
L 46.366813 87.59 
Q 46.366813 89.59 48.366813 89.59 
z
" style="fill:#ffffff;opacity:0.8;stroke:#cccccc;stroke-linejoin:miter;"/>
    </g>
    <g id="line2d_14">
     <path d="M 50.366813 65.332187 
L 70.366813 65.332187 
" style="fill:none;stroke:#0000ff;stroke-linecap:square;stroke-width:1.5;"/>
    </g>
    <g id="line2d_15"/>
    <g id="text_14">
     <!-- Vin [V] -->
     <g transform="translate(78.366813 68.832187)scale(0.1 -0.1)">
      <defs>
       <path d="M 54.890625 33.015625 
L 54.890625 0 
L 45.90625 0 
L 45.90625 32.71875 
Q 45.90625 40.484375 42.875 44.328125 
Q 39.84375 48.1875 33.796875 48.1875 
Q 26.515625 48.1875 22.3125 43.546875 
Q 18.109375 38.921875 18.109375 30.90625 
L 18.109375 0 
L 9.078125 0 
L 9.078125 54.6875 
L 18.109375 54.6875 
L 18.109375 46.1875 
Q 21.34375 51.125 25.703125 53.5625 
Q 30.078125 56 35.796875 56 
Q 45.21875 56 50.046875 50.171875 
Q 54.890625 44.34375 54.890625 33.015625 
z
" id="DejaVuSans-110"/>
      </defs>
      <use xlink:href="#DejaVuSans-86"/>
      <use x="66.158203" xlink:href="#DejaVuSans-105"/>
      <use x="93.941406" xlink:href="#DejaVuSans-110"/>
      <use x="157.320312" xlink:href="#DejaVuSans-32"/>
      <use x="189.107422" xlink:href="#DejaVuSans-91"/>
      <use x="228.121094" xlink:href="#DejaVuSans-86"/>
      <use x="296.529297" xlink:href="#DejaVuSans-93"/>
     </g>
    </g>
    <g id="line2d_16">
     <path d="M 50.366813 80.010312 
L 70.366813 80.010312 
" style="fill:none;stroke:#1f77b4;stroke-linecap:square;stroke-width:1.5;"/>
    </g>
    <g id="line2d_17"/>
    <g id="text_15">
     <!-- Vout (R2=100 kΩ) -->
     <g transform="translate(78.366813 83.510312)scale(0.1 -0.1)">
      <defs>
       <path d="M 30.609375 48.390625 
Q 23.390625 48.390625 19.1875 42.75 
Q 14.984375 37.109375 14.984375 27.296875 
Q 14.984375 17.484375 19.15625 11.84375 
Q 23.34375 6.203125 30.609375 6.203125 
Q 37.796875 6.203125 41.984375 11.859375 
Q 46.1875 17.53125 46.1875 27.296875 
Q 46.1875 37.015625 41.984375 42.703125 
Q 37.796875 48.390625 30.609375 48.390625 
z
M 30.609375 56 
Q 42.328125 56 49.015625 48.375 
Q 55.71875 40.765625 55.71875 27.296875 
Q 55.71875 13.875 49.015625 6.21875 
Q 42.328125 -1.421875 30.609375 -1.421875 
Q 18.84375 -1.421875 12.171875 6.21875 
Q 5.515625 13.875 5.515625 27.296875 
Q 5.515625 40.765625 12.171875 48.375 
Q 18.84375 56 30.609375 56 
z
" id="DejaVuSans-111"/>
       <path d="M 8.5 21.578125 
L 8.5 54.6875 
L 17.484375 54.6875 
L 17.484375 21.921875 
Q 17.484375 14.15625 20.5 10.265625 
Q 23.53125 6.390625 29.59375 6.390625 
Q 36.859375 6.390625 41.078125 11.03125 
Q 45.3125 15.671875 45.3125 23.6875 
L 45.3125 54.6875 
L 54.296875 54.6875 
L 54.296875 0 
L 45.3125 0 
L 45.3125 8.40625 
Q 42.046875 3.421875 37.71875 1 
Q 33.40625 -1.421875 27.6875 -1.421875 
Q 18.265625 -1.421875 13.375 4.4375 
Q 8.5 10.296875 8.5 21.578125 
z
M 31.109375 56 
z
" id="DejaVuSans-117"/>
       <path d="M 44.390625 34.1875 
Q 47.5625 33.109375 50.5625 29.59375 
Q 53.5625 26.078125 56.59375 19.921875 
L 66.609375 0 
L 56 0 
L 46.6875 18.703125 
Q 43.0625 26.03125 39.671875 28.421875 
Q 36.28125 30.8125 30.421875 30.8125 
L 19.671875 30.8125 
L 19.671875 0 
L 9.8125 0 
L 9.8125 72.90625 
L 32.078125 72.90625 
Q 44.578125 72.90625 50.734375 67.671875 
Q 56.890625 62.453125 56.890625 51.90625 
Q 56.890625 45.015625 53.6875 40.46875 
Q 50.484375 35.9375 44.390625 34.1875 
z
M 19.671875 64.796875 
L 19.671875 38.921875 
L 32.078125 38.921875 
Q 39.203125 38.921875 42.84375 42.21875 
Q 46.484375 45.515625 46.484375 51.90625 
Q 46.484375 58.296875 42.84375 61.546875 
Q 39.203125 64.796875 32.078125 64.796875 
z
" id="DejaVuSans-82"/>
       <path d="M 10.59375 45.40625 
L 73.1875 45.40625 
L 73.1875 37.203125 
L 10.59375 37.203125 
z
M 10.59375 25.484375 
L 73.1875 25.484375 
L 73.1875 17.1875 
L 10.59375 17.1875 
z
" id="DejaVuSans-61"/>
       <path d="M 9.078125 75.984375 
L 18.109375 75.984375 
L 18.109375 31.109375 
L 44.921875 54.6875 
L 56.390625 54.6875 
L 27.390625 29.109375 
L 57.625 0 
L 45.90625 0 
L 18.109375 26.703125 
L 18.109375 0 
L 9.078125 0 
z
" id="DejaVuSans-107"/>
       <path d="M 72.609375 8.6875 
L 72.609375 0 
L 43.3125 0 
L 43.3125 8.6875 
Q 51.953125 13.421875 56.78125 21.53125 
Q 61.625 29.640625 61.625 39.5 
Q 61.625 51.21875 55.171875 58.296875 
Q 48.734375 65.375 38.1875 65.375 
Q 27.640625 65.375 21.171875 58.265625 
Q 14.703125 51.171875 14.703125 39.5 
Q 14.703125 29.640625 19.53125 21.53125 
Q 24.421875 13.421875 33.109375 8.6875 
L 33.109375 0 
L 3.8125 0 
L 3.8125 8.6875 
L 19.390625 8.6875 
Q 11.671875 15.484375 8.109375 22.75 
Q 4.59375 30.03125 4.59375 39.015625 
Q 4.59375 54.546875 13.96875 64.15625 
Q 23.296875 73.78125 38.1875 73.78125 
Q 52.984375 73.78125 62.40625 64.15625 
Q 71.78125 54.59375 71.78125 39.5 
Q 71.78125 30.03125 68.3125 22.796875 
Q 64.84375 15.578125 56.984375 8.6875 
z
" id="DejaVuSans-937"/>
      </defs>
      <use xlink:href="#DejaVuSans-86"/>
      <use x="60.658203" xlink:href="#DejaVuSans-111"/>
      <use x="121.839844" xlink:href="#DejaVuSans-117"/>
      <use x="185.21875" xlink:href="#DejaVuSans-116"/>
      <use x="224.427734" xlink:href="#DejaVuSans-32"/>
      <use x="256.214844" xlink:href="#DejaVuSans-40"/>
      <use x="295.228516" xlink:href="#DejaVuSans-82"/>
      <use x="364.710938" xlink:href="#DejaVuSans-50"/>
      <use x="428.333984" xlink:href="#DejaVuSans-61"/>
      <use x="512.123047" xlink:href="#DejaVuSans-49"/>
      <use x="575.746094" xlink:href="#DejaVuSans-48"/>
      <use x="639.369141" xlink:href="#DejaVuSans-48"/>
      <use x="702.992188" xlink:href="#DejaVuSans-32"/>
      <use x="734.779297" xlink:href="#DejaVuSans-107"/>
      <use x="792.689453" xlink:href="#DejaVuSans-937"/>
      <use x="869.105469" xlink:href="#DejaVuSans-41"/>
     </g>
    </g>
   </g>
  </g>
 </g>
 <defs>
  <clipPath id="p3ec48459d7">
   <rect height="235.4" width="374.65" x="42.620313" y="7.2"/>
  </clipPath>
 </defs>
</svg>
