<?xml version="1.0" encoding="utf-8" standalone="no"?>
<!DOCTYPE svg PUBLIC "-//W3C//DTD SVG 1.1//EN"
  "http://www.w3.org/Graphics/SVG/1.1/DTD/svg11.dtd">
<svg height="116.145pt" version="1.1" viewBox="0 0 401.277743 116.145" width="401.277743pt" xmlns="http://www.w3.org/2000/svg" xmlns:xlink="http://www.w3.org/1999/xlink">
 <metadata>
  <rdf:RDF xmlns:cc="http://creativecommons.org/ns#" xmlns:dc="http://purl.org/dc/elements/1.1/" xmlns:rdf="http://www.w3.org/1999/02/22-rdf-syntax-ns#">
   <cc:Work>
    <dc:type rdf:resource="http://purl.org/dc/dcmitype/StillImage"/>
    <dc:date>2021-05-17T15:20:34.353708</dc:date>
    <dc:format>image/svg+xml</dc:format>
    <dc:creator>
     <cc:Agent>
      <dc:title>Matplotlib v3.4.2, https://matplotlib.org/</dc:title>
     </cc:Agent>
    </dc:creator>
   </cc:Work>
  </rdf:RDF>
 </metadata>
 <defs>
  <style type="text/css">*{stroke-linecap:butt;stroke-linejoin:round;}</style>
 </defs>
 <g id="figure_1">
  <g id="patch_1">
   <path d="M 0 116.145 
L 401.277743 116.145 
L 401.277743 0 
L 0 0 
z
" style="fill:none;"/>
  </g>
  <g id="axes_1">
   <g id="patch_2">
    <path clip-path="url(#p1ff82cae8c)" d="M 320.637743 59.985 
L 331.347743 67.635 
L 320.637743 75.285 
z
" style="fill:none;stroke:#000000;stroke-linecap:round;stroke-width:0.9;"/>
   </g>
   <g id="patch_3">
    <path clip-path="url(#p1ff82cae8c)" d="M 330.775914 46.8716 
L 335.937743 42.7725 
L 335.026832 49.300696 
z
"/>
   </g>
   <g id="patch_4">
    <path clip-path="url(#p1ff82cae8c)" d="M 323.890914 46.8716 
L 329.052743 42.7725 
L 328.141832 49.300696 
z
"/>
   </g>
   <g id="line2d_1">
    <path clip-path="url(#p1ff82cae8c)" d="M 106.7418 67.635 
L 106.7418 29.385 
L 172.992743 67.635 
L 106.7418 105.885 
L 106.7418 67.635 
M 172.992743 67.635 
" style="fill:none;stroke:#000000;stroke-linecap:round;stroke-width:0.9;"/>
   </g>
   <g id="line2d_2">
    <path clip-path="url(#p1ff82cae8c)" d="M 111.963168 48.51 
L 118.083168 48.51 
" style="fill:none;stroke:#000000;stroke-linecap:round;stroke-width:0.9;"/>
   </g>
   <g id="line2d_3">
    <path clip-path="url(#p1ff82cae8c)" d="M 111.963168 86.76 
L 118.083168 86.76 
" style="fill:none;stroke:#000000;stroke-linecap:round;stroke-width:0.9;"/>
   </g>
   <g id="line2d_4">
    <path clip-path="url(#p1ff82cae8c)" d="M 115.023168 89.82 
L 115.023168 83.7 
" style="fill:none;stroke:#000000;stroke-linecap:round;stroke-width:0.9;"/>
   </g>
   <g id="line2d_5">
    <path clip-path="url(#p1ff82cae8c)" d="M 106.7418 86.76 
L 68.4918 86.76 
L 30.2418 86.76 
" style="fill:none;stroke:#000000;stroke-linecap:round;stroke-width:0.9;"/>
   </g>
   <g id="line2d_6">
    <path clip-path="url(#p1ff82cae8c)" d="M 106.7418 48.51 
L 97.1793 48.51 
L 87.6168 48.51 
" style="fill:none;stroke:#000000;stroke-linecap:round;stroke-width:0.9;"/>
   </g>
   <g id="line2d_7">
    <path clip-path="url(#p1ff82cae8c)" d="M 87.6168 48.51 
L 87.6168 29.385 
L 87.6168 10.26 
" style="fill:none;stroke:#000000;stroke-linecap:round;stroke-width:0.9;"/>
   </g>
   <g id="line2d_8">
    <path clip-path="url(#p1ff82cae8c)" d="M 87.6168 10.26 
L 139.867272 10.26 
L 192.117743 10.26 
" style="fill:none;stroke:#000000;stroke-linecap:round;stroke-width:0.9;"/>
   </g>
   <g id="line2d_9">
    <path clip-path="url(#p1ff82cae8c)" d="M 192.117743 10.26 
L 192.117743 38.9475 
L 192.117743 67.635 
" style="fill:none;stroke:#000000;stroke-linecap:round;stroke-width:0.9;"/>
   </g>
   <g id="line2d_10">
    <path clip-path="url(#p1ff82cae8c)" d="M 192.117743 67.635 
L 182.555243 67.635 
L 172.992743 67.635 
" style="fill:none;stroke:#000000;stroke-linecap:round;stroke-width:0.9;"/>
   </g>
   <g id="line2d_11">
    <path clip-path="url(#p1ff82cae8c)" d="M 192.117743 67.635 
L 201.680243 67.635 
L 211.242743 67.635 
" style="fill:none;stroke:#000000;stroke-linecap:round;stroke-width:0.9;"/>
   </g>
   <g id="line2d_12">
    <path clip-path="url(#p1ff82cae8c)" d="M 211.242743 67.635 
L 234.192743 67.635 
L 236.742743 59.985 
L 241.842743 75.285 
L 246.942743 59.985 
L 252.042743 75.285 
L 257.142743 59.985 
L 262.242743 75.285 
L 264.792743 67.635 
L 287.742743 67.635 
" style="fill:none;stroke:#000000;stroke-linecap:round;stroke-width:0.9;"/>
   </g>
   <g id="line2d_13">
    <path clip-path="url(#p1ff82cae8c)" d="M 287.742743 67.635 
L 320.637743 67.635 
M 331.347743 59.985 
L 331.347743 75.285 
M 331.347743 67.635 
L 364.242743 67.635 
" style="fill:none;stroke:#000000;stroke-linecap:round;stroke-width:0.9;"/>
   </g>
   <g id="line2d_14">
    <path clip-path="url(#p1ff82cae8c)" d="M 328.287743 56.16 
L 332.901373 48.086148 
" style="fill:none;stroke:#000000;stroke-linecap:square;stroke-width:0.9;"/>
   </g>
   <g id="line2d_15">
    <path clip-path="url(#p1ff82cae8c)" d="M 321.402743 56.16 
L 326.016373 48.086148 
" style="fill:none;stroke:#000000;stroke-linecap:square;stroke-width:0.9;"/>
   </g>
   <g id="line2d_16">
    <path clip-path="url(#p1ff82cae8c)" d="M 364.242743 67.635 
L 373.805243 67.635 
L 383.367743 67.635 
" style="fill:none;stroke:#000000;stroke-linecap:round;stroke-width:0.9;"/>
   </g>
   <g id="line2d_17">
    <path clip-path="url(#p1ff82cae8c)" d="M 383.367743 67.635 
L 383.367743 79.875 
L 375.717743 79.875 
L 391.017743 79.875 
M 378.012743 83.547 
L 388.722743 83.547 
M 381.837743 87.219 
L 384.897743 87.219 
" style="fill:none;stroke:#000000;stroke-linecap:round;stroke-width:0.9;"/>
   </g>
   <g id="text_1">
    <!-- $R_1$ -->
    <g transform="translate(241.302743 38.3365)scale(0.14 -0.14)">
     <defs>
      <path d="M 1613 4147 
L 1294 2491 
L 2106 2491 
Q 2584 2491 2879 2755 
Q 3175 3019 3175 3444 
Q 3175 3784 2976 3965 
Q 2778 4147 2406 4147 
L 1613 4147 
z
M 2772 2241 
Q 2972 2194 3105 2009 
Q 3238 1825 3413 1275 
L 3809 0 
L 3144 0 
L 2778 1197 
Q 2638 1659 2453 1815 
Q 2269 1972 1888 1972 
L 1191 1972 
L 806 0 
L 172 0 
L 1081 4666 
L 2503 4666 
Q 3150 4666 3495 4373 
Q 3841 4081 3841 3531 
Q 3841 3044 3547 2687 
Q 3253 2331 2772 2241 
z
" id="DejaVuSans-Oblique-52" transform="scale(0.015625)"/>
      <path d="M 794 531 
L 1825 531 
L 1825 4091 
L 703 3866 
L 703 4441 
L 1819 4666 
L 2450 4666 
L 2450 531 
L 3481 531 
L 3481 0 
L 794 0 
L 794 531 
z
" id="DejaVuSans-31" transform="scale(0.015625)"/>
     </defs>
     <use transform="translate(0 0.09375)" xlink:href="#DejaVuSans-Oblique-52"/>
     <use transform="translate(69.482422 -16.3125)scale(0.7)" xlink:href="#DejaVuSans-31"/>
    </g>
    <!-- 12k -->
    <g transform="translate(236.531806 54.013438)scale(0.14 -0.14)">
     <defs>
      <path d="M 1228 531 
L 3431 531 
L 3431 0 
L 469 0 
L 469 531 
Q 828 903 1448 1529 
Q 2069 2156 2228 2338 
Q 2531 2678 2651 2914 
Q 2772 3150 2772 3378 
Q 2772 3750 2511 3984 
Q 2250 4219 1831 4219 
Q 1534 4219 1204 4116 
Q 875 4013 500 3803 
L 500 4441 
Q 881 4594 1212 4672 
Q 1544 4750 1819 4750 
Q 2544 4750 2975 4387 
Q 3406 4025 3406 3419 
Q 3406 3131 3298 2873 
Q 3191 2616 2906 2266 
Q 2828 2175 2409 1742 
Q 1991 1309 1228 531 
z
" id="DejaVuSans-32" transform="scale(0.015625)"/>
      <path d="M 581 4863 
L 1159 4863 
L 1159 1991 
L 2875 3500 
L 3609 3500 
L 1753 1863 
L 3688 0 
L 2938 0 
L 1159 1709 
L 1159 0 
L 581 0 
L 581 4863 
z
" id="DejaVuSans-6b" transform="scale(0.015625)"/>
     </defs>
     <use xlink:href="#DejaVuSans-31"/>
     <use x="63.623047" xlink:href="#DejaVuSans-32"/>
     <use x="127.246094" xlink:href="#DejaVuSans-6b"/>
    </g>
   </g>
   <g id="text_2">
    <!-- $D_1$ -->
    <g transform="translate(317.242743 88.982813)scale(0.14 -0.14)">
     <defs>
      <path d="M 1081 4666 
L 2438 4666 
Q 3519 4666 4070 4208 
Q 4622 3750 4622 2847 
Q 4622 2250 4412 1698 
Q 4203 1147 3834 769 
Q 3463 381 2891 190 
Q 2319 0 1538 0 
L 172 0 
L 1081 4666 
z
M 1613 4147 
L 909 519 
L 1734 519 
Q 2794 519 3375 1128 
Q 3956 1738 3956 2847 
Q 3956 3519 3581 3833 
Q 3206 4147 2406 4147 
L 1613 4147 
z
" id="DejaVuSans-Oblique-44" transform="scale(0.015625)"/>
     </defs>
     <use transform="translate(0 0.09375)" xlink:href="#DejaVuSans-Oblique-44"/>
     <use transform="translate(77.001953 -16.3125)scale(0.7)" xlink:href="#DejaVuSans-31"/>
    </g>
   </g>
   <g id="patch_5">
    <path clip-path="url(#p1ff82cae8c)" d="M 30.2418 89.055 
C 30.850441 89.055 31.434236 88.813184 31.86461 88.38281 
C 32.294984 87.952436 32.5368 87.368641 32.5368 86.76 
C 32.5368 86.151359 32.294984 85.567564 31.86461 85.13719 
C 31.434236 84.706816 30.850441 84.465 30.2418 84.465 
C 29.633159 84.465 29.049364 84.706816 28.61899 85.13719 
C 28.188616 85.567564 27.9468 86.151359 27.9468 86.76 
C 27.9468 87.368641 28.188616 87.952436 28.61899 88.38281 
C 29.049364 88.813184 29.633159 89.055 30.2418 89.055 
z
" style="fill:#ffffff;stroke:#000000;stroke-linejoin:miter;stroke-width:0.9;"/>
   </g>
   <g id="patch_6">
    <path clip-path="url(#p1ff82cae8c)" d="M 192.117743 69.93 
C 192.726385 69.93 193.310179 69.688184 193.740553 69.25781 
C 194.170928 68.827436 194.412743 68.243641 194.412743 67.635 
C 194.412743 67.026359 194.170928 66.442564 193.740553 66.01219 
C 193.310179 65.581816 192.726385 65.34 192.117743 65.34 
C 191.509102 65.34 190.925308 65.581816 190.494933 66.01219 
C 190.064559 66.442564 189.822743 67.026359 189.822743 67.635 
C 189.822743 68.243641 190.064559 68.827436 190.494933 69.25781 
C 190.925308 69.688184 191.509102 69.93 192.117743 69.93 
z
" style="stroke:#000000;stroke-linejoin:miter;stroke-width:0.9;"/>
   </g>
   <g id="text_3">
    <!-- IN -->
    <g transform="translate(10.28305 90.623125)scale(0.14 -0.14)">
     <defs>
      <path d="M 628 4666 
L 1259 4666 
L 1259 0 
L 628 0 
L 628 4666 
z
" id="DejaVuSans-49" transform="scale(0.015625)"/>
      <path d="M 628 4666 
L 1478 4666 
L 3547 763 
L 3547 4666 
L 4159 4666 
L 4159 0 
L 3309 0 
L 1241 3903 
L 1241 0 
L 628 0 
L 628 4666 
z
" id="DejaVuSans-4e" transform="scale(0.015625)"/>
     </defs>
     <use xlink:href="#DejaVuSans-49"/>
     <use x="29.492188" xlink:href="#DejaVuSans-4e"/>
    </g>
   </g>
  </g>
 </g>
 <defs>
  <clipPath id="p1ff82cae8c">
   <rect height="101.745" width="386.877743" x="7.2" y="7.2"/>
  </clipPath>
 </defs>
</svg>
