<?xml version="1.0" encoding="utf-8" standalone="no"?>
<!DOCTYPE svg PUBLIC "-//W3C//DTD SVG 1.1//EN"
  "http://www.w3.org/Graphics/SVG/1.1/DTD/svg11.dtd">
<!-- Created with matplotlib (https://matplotlib.org/) -->
<svg height="116.145pt" version="1.1" viewBox="0 0 401.277743 116.145" width="401.277743pt" xmlns="http://www.w3.org/2000/svg" xmlns:xlink="http://www.w3.org/1999/xlink">
 <metadata>
  <rdf:RDF xmlns:cc="http://creativecommons.org/ns#" xmlns:dc="http://purl.org/dc/elements/1.1/" xmlns:rdf="http://www.w3.org/1999/02/22-rdf-syntax-ns#">
   <cc:Work>
    <dc:type rdf:resource="http://purl.org/dc/dcmitype/StillImage"/>
    <dc:date>2021-04-04T07:54:58.941152</dc:date>
    <dc:format>image/svg+xml</dc:format>
    <dc:creator>
     <cc:Agent>
      <dc:title>Matplotlib v3.3.4, https://matplotlib.org/</dc:title>
     </cc:Agent>
    </dc:creator>
   </cc:Work>
  </rdf:RDF>
 </metadata>
 <defs>
  <style type="text/css">*{stroke-linecap:butt;stroke-linejoin:round;}</style>
 </defs>
 <g id="figure_1">
  <g id="patch_1">
   <path d="M 0 116.145 
L 401.277743 116.145 
L 401.277743 0 
L 0 0 
z
" style="fill:none;"/>
  </g>
  <g id="axes_1">
   <g id="patch_2">
    <path clip-path="url(#pdfd8ce7055)" d="M 320.637743 59.985 
L 331.347743 67.635 
L 320.637743 75.285 
z
" style="fill:none;stroke:#000000;stroke-linecap:round;stroke-width:0.9;"/>
   </g>
   <g id="patch_3">
    <path clip-path="url(#pdfd8ce7055)" d="M 335.937743 42.7725 
L 334.495467 48.997059 
L 332.914657 48.093739 
L 328.301028 56.167591 
L 328.274459 56.152409 
L 332.888089 48.078557 
L 331.307279 47.175237 
z
" style="stroke:#000000;stroke-linejoin:miter;stroke-width:0.9;"/>
   </g>
   <g id="patch_4">
    <path clip-path="url(#pdfd8ce7055)" d="M 329.052743 42.7725 
L 327.610467 48.997059 
L 326.029657 48.093739 
L 321.416028 56.167591 
L 321.389459 56.152409 
L 326.003089 48.078557 
L 324.422279 47.175237 
z
" style="stroke:#000000;stroke-linejoin:miter;stroke-width:0.9;"/>
   </g>
   <g id="line2d_1">
    <path clip-path="url(#pdfd8ce7055)" d="M 106.7418 67.635 
L 106.7418 29.385 
L 172.992743 67.635 
L 106.7418 105.885 
L 106.7418 67.635 
M 172.992743 67.635 
" style="fill:none;stroke:#000000;stroke-linecap:round;stroke-width:0.9;"/>
   </g>
   <g id="line2d_2">
    <path clip-path="url(#pdfd8ce7055)" d="M 111.963168 48.51 
L 118.083168 48.51 
" style="fill:none;stroke:#000000;stroke-linecap:round;stroke-width:0.9;"/>
   </g>
   <g id="line2d_3">
    <path clip-path="url(#pdfd8ce7055)" d="M 111.963168 86.76 
L 118.083168 86.76 
" style="fill:none;stroke:#000000;stroke-linecap:round;stroke-width:0.9;"/>
   </g>
   <g id="line2d_4">
    <path clip-path="url(#pdfd8ce7055)" d="M 115.023168 89.82 
L 115.023168 83.7 
" style="fill:none;stroke:#000000;stroke-linecap:round;stroke-width:0.9;"/>
   </g>
   <g id="line2d_5">
    <path clip-path="url(#pdfd8ce7055)" d="M 106.7418 86.76 
L 68.4918 86.76 
L 30.2418 86.76 
" style="fill:none;stroke:#000000;stroke-linecap:round;stroke-width:0.9;"/>
   </g>
   <g id="line2d_6">
    <path clip-path="url(#pdfd8ce7055)" d="M 106.7418 48.51 
L 97.1793 48.51 
L 87.6168 48.51 
" style="fill:none;stroke:#000000;stroke-linecap:round;stroke-width:0.9;"/>
   </g>
   <g id="line2d_7">
    <path clip-path="url(#pdfd8ce7055)" d="M 87.6168 48.51 
L 87.6168 29.385 
L 87.6168 10.26 
" style="fill:none;stroke:#000000;stroke-linecap:round;stroke-width:0.9;"/>
   </g>
   <g id="line2d_8">
    <path clip-path="url(#pdfd8ce7055)" d="M 87.6168 10.26 
L 139.867272 10.26 
L 192.117743 10.26 
" style="fill:none;stroke:#000000;stroke-linecap:round;stroke-width:0.9;"/>
   </g>
   <g id="line2d_9">
    <path clip-path="url(#pdfd8ce7055)" d="M 192.117743 10.26 
L 192.117743 38.9475 
L 192.117743 67.635 
" style="fill:none;stroke:#000000;stroke-linecap:round;stroke-width:0.9;"/>
   </g>
   <g id="line2d_10">
    <path clip-path="url(#pdfd8ce7055)" d="M 192.117743 67.635 
L 182.555243 67.635 
L 172.992743 67.635 
" style="fill:none;stroke:#000000;stroke-linecap:round;stroke-width:0.9;"/>
   </g>
   <g id="line2d_11">
    <path clip-path="url(#pdfd8ce7055)" d="M 192.117743 67.635 
L 201.680243 67.635 
L 211.242743 67.635 
" style="fill:none;stroke:#000000;stroke-linecap:round;stroke-width:0.9;"/>
   </g>
   <g id="line2d_12">
    <path clip-path="url(#pdfd8ce7055)" d="M 211.242743 67.635 
L 234.192743 67.635 
L 236.742743 59.985 
L 241.842743 75.285 
L 246.942743 59.985 
L 252.042743 75.285 
L 257.142743 59.985 
L 262.242743 75.285 
L 264.792743 67.635 
L 287.742743 67.635 
" style="fill:none;stroke:#000000;stroke-linecap:round;stroke-width:0.9;"/>
   </g>
   <g id="line2d_13">
    <path clip-path="url(#pdfd8ce7055)" d="M 287.742743 67.635 
L 320.637743 67.635 
M 331.347743 59.985 
L 331.347743 75.285 
M 331.347743 67.635 
L 364.242743 67.635 
" style="fill:none;stroke:#000000;stroke-linecap:round;stroke-width:0.9;"/>
   </g>
   <g id="line2d_14">
    <path clip-path="url(#pdfd8ce7055)" d="M 364.242743 67.635 
L 373.805243 67.635 
L 383.367743 67.635 
" style="fill:none;stroke:#000000;stroke-linecap:round;stroke-width:0.9;"/>
   </g>
   <g id="line2d_15">
    <path clip-path="url(#pdfd8ce7055)" d="M 383.367743 67.635 
L 383.367743 79.875 
L 375.717743 79.875 
L 391.017743 79.875 
M 378.012743 83.547 
L 388.722743 83.547 
M 381.837743 87.219 
L 384.897743 87.219 
" style="fill:none;stroke:#000000;stroke-linecap:round;stroke-width:0.9;"/>
   </g>
   <g id="text_1">
    <!-- $R_1$ -->
    <g transform="translate(241.302743 38.3365)scale(0.14 -0.14)">
     <defs>
      <path d="M 25.203125 64.796875 
L 20.21875 38.921875 
L 32.90625 38.921875 
Q 40.375 38.921875 44.984375 43.046875 
Q 49.609375 47.171875 49.609375 53.8125 
Q 49.609375 59.125 46.5 61.953125 
Q 43.40625 64.796875 37.59375 64.796875 
z
M 43.3125 35.015625 
Q 46.4375 34.28125 48.515625 31.390625 
Q 50.59375 28.515625 53.328125 19.921875 
L 59.515625 0 
L 49.125 0 
L 43.40625 18.703125 
Q 41.21875 25.921875 38.328125 28.359375 
Q 35.453125 30.8125 29.5 30.8125 
L 18.609375 30.8125 
L 12.59375 0 
L 2.6875 0 
L 16.890625 72.90625 
L 39.109375 72.90625 
Q 49.21875 72.90625 54.609375 68.328125 
Q 60.015625 63.765625 60.015625 55.171875 
Q 60.015625 47.5625 55.421875 41.984375 
Q 50.828125 36.421875 43.3125 35.015625 
z
" id="DejaVuSans-Oblique-82"/>
      <path d="M 12.40625 8.296875 
L 28.515625 8.296875 
L 28.515625 63.921875 
L 10.984375 60.40625 
L 10.984375 69.390625 
L 28.421875 72.90625 
L 38.28125 72.90625 
L 38.28125 8.296875 
L 54.390625 8.296875 
L 54.390625 0 
L 12.40625 0 
z
" id="DejaVuSans-49"/>
     </defs>
     <use transform="translate(0 0.09375)" xlink:href="#DejaVuSans-Oblique-82"/>
     <use transform="translate(69.482422 -16.3125)scale(0.7)" xlink:href="#DejaVuSans-49"/>
    </g>
    <!-- 12k -->
    <g transform="translate(236.531806 54.013438)scale(0.14 -0.14)">
     <defs>
      <path d="M 19.1875 8.296875 
L 53.609375 8.296875 
L 53.609375 0 
L 7.328125 0 
L 7.328125 8.296875 
Q 12.9375 14.109375 22.625 23.890625 
Q 32.328125 33.6875 34.8125 36.53125 
Q 39.546875 41.84375 41.421875 45.53125 
Q 43.3125 49.21875 43.3125 52.78125 
Q 43.3125 58.59375 39.234375 62.25 
Q 35.15625 65.921875 28.609375 65.921875 
Q 23.96875 65.921875 18.8125 64.3125 
Q 13.671875 62.703125 7.8125 59.421875 
L 7.8125 69.390625 
Q 13.765625 71.78125 18.9375 73 
Q 24.125 74.21875 28.421875 74.21875 
Q 39.75 74.21875 46.484375 68.546875 
Q 53.21875 62.890625 53.21875 53.421875 
Q 53.21875 48.921875 51.53125 44.890625 
Q 49.859375 40.875 45.40625 35.40625 
Q 44.1875 33.984375 37.640625 27.21875 
Q 31.109375 20.453125 19.1875 8.296875 
z
" id="DejaVuSans-50"/>
      <path d="M 9.078125 75.984375 
L 18.109375 75.984375 
L 18.109375 31.109375 
L 44.921875 54.6875 
L 56.390625 54.6875 
L 27.390625 29.109375 
L 57.625 0 
L 45.90625 0 
L 18.109375 26.703125 
L 18.109375 0 
L 9.078125 0 
z
" id="DejaVuSans-107"/>
     </defs>
     <use xlink:href="#DejaVuSans-49"/>
     <use x="63.623047" xlink:href="#DejaVuSans-50"/>
     <use x="127.246094" xlink:href="#DejaVuSans-107"/>
    </g>
   </g>
   <g id="text_2">
    <!-- $D_1$ -->
    <g transform="translate(317.242743 88.982813)scale(0.14 -0.14)">
     <defs>
      <path d="M 16.890625 72.90625 
L 38.09375 72.90625 
Q 54.984375 72.90625 63.59375 65.75 
Q 72.21875 58.59375 72.21875 44.484375 
Q 72.21875 35.15625 68.9375 26.53125 
Q 65.671875 17.921875 59.90625 12.015625 
Q 54.109375 5.953125 45.171875 2.96875 
Q 36.234375 0 24.03125 0 
L 2.6875 0 
z
M 25.203125 64.796875 
L 14.203125 8.109375 
L 27.09375 8.109375 
Q 43.65625 8.109375 52.734375 17.625 
Q 61.8125 27.15625 61.8125 44.484375 
Q 61.8125 54.984375 55.953125 59.890625 
Q 50.09375 64.796875 37.59375 64.796875 
z
" id="DejaVuSans-Oblique-68"/>
     </defs>
     <use transform="translate(0 0.09375)" xlink:href="#DejaVuSans-Oblique-68"/>
     <use transform="translate(77.001953 -16.3125)scale(0.7)" xlink:href="#DejaVuSans-49"/>
    </g>
   </g>
   <g id="patch_5">
    <path clip-path="url(#pdfd8ce7055)" d="M 30.2418 89.055 
C 30.850441 89.055 31.434236 88.813184 31.86461 88.38281 
C 32.294984 87.952436 32.5368 87.368641 32.5368 86.76 
C 32.5368 86.151359 32.294984 85.567564 31.86461 85.13719 
C 31.434236 84.706816 30.850441 84.465 30.2418 84.465 
C 29.633159 84.465 29.049364 84.706816 28.61899 85.13719 
C 28.188616 85.567564 27.9468 86.151359 27.9468 86.76 
C 27.9468 87.368641 28.188616 87.952436 28.61899 88.38281 
C 29.049364 88.813184 29.633159 89.055 30.2418 89.055 
z
" style="fill:#ffffff;stroke:#000000;stroke-linejoin:miter;stroke-width:0.9;"/>
   </g>
   <g id="patch_6">
    <path clip-path="url(#pdfd8ce7055)" d="M 192.117743 69.93 
C 192.726385 69.93 193.310179 69.688184 193.740553 69.25781 
C 194.170928 68.827436 194.412743 68.243641 194.412743 67.635 
C 194.412743 67.026359 194.170928 66.442564 193.740553 66.01219 
C 193.310179 65.581816 192.726385 65.34 192.117743 65.34 
C 191.509102 65.34 190.925308 65.581816 190.494933 66.01219 
C 190.064559 66.442564 189.822743 67.026359 189.822743 67.635 
C 189.822743 68.243641 190.064559 68.827436 190.494933 69.25781 
C 190.925308 69.688184 191.509102 69.93 192.117743 69.93 
z
" style="stroke:#000000;stroke-linejoin:miter;stroke-width:0.9;"/>
   </g>
   <g id="text_3">
    <!-- IN -->
    <g transform="translate(10.28305 90.623125)scale(0.14 -0.14)">
     <defs>
      <path d="M 9.8125 72.90625 
L 19.671875 72.90625 
L 19.671875 0 
L 9.8125 0 
z
" id="DejaVuSans-73"/>
      <path d="M 9.8125 72.90625 
L 23.09375 72.90625 
L 55.421875 11.921875 
L 55.421875 72.90625 
L 64.984375 72.90625 
L 64.984375 0 
L 51.703125 0 
L 19.390625 60.984375 
L 19.390625 0 
L 9.8125 0 
z
" id="DejaVuSans-78"/>
     </defs>
     <use xlink:href="#DejaVuSans-73"/>
     <use x="29.492188" xlink:href="#DejaVuSans-78"/>
    </g>
   </g>
  </g>
 </g>
 <defs>
  <clipPath id="pdfd8ce7055">
   <rect height="101.745" width="386.877743" x="7.2" y="7.2"/>
  </clipPath>
 </defs>
</svg>
