<?xml version="1.0" encoding="utf-8" standalone="no"?>
<!DOCTYPE svg PUBLIC "-//W3C//DTD SVG 1.1//EN"
  "http://www.w3.org/Graphics/SVG/1.1/DTD/svg11.dtd">
<!-- Created with matplotlib (https://matplotlib.org/) -->
<svg height="280.15625pt" version="1.1" viewBox="0 0 424.470312 280.15625" width="424.470312pt" xmlns="http://www.w3.org/2000/svg" xmlns:xlink="http://www.w3.org/1999/xlink">
 <metadata>
  <rdf:RDF xmlns:cc="http://creativecommons.org/ns#" xmlns:dc="http://purl.org/dc/elements/1.1/" xmlns:rdf="http://www.w3.org/1999/02/22-rdf-syntax-ns#">
   <cc:Work>
    <dc:type rdf:resource="http://purl.org/dc/dcmitype/StillImage"/>
    <dc:date>2021-04-04T07:54:59.446048</dc:date>
    <dc:format>image/svg+xml</dc:format>
    <dc:creator>
     <cc:Agent>
      <dc:title>Matplotlib v3.3.4, https://matplotlib.org/</dc:title>
     </cc:Agent>
    </dc:creator>
   </cc:Work>
  </rdf:RDF>
 </metadata>
 <defs>
  <style type="text/css">*{stroke-linecap:butt;stroke-linejoin:round;}</style>
 </defs>
 <g id="figure_1">
  <g id="patch_1">
   <path d="M 0 280.15625 
L 424.470312 280.15625 
L 424.470312 0 
L 0 0 
z
" style="fill:none;"/>
  </g>
  <g id="axes_1">
   <g id="patch_2">
    <path d="M 42.620313 242.6 
L 417.270312 242.6 
L 417.270312 7.2 
L 42.620313 7.2 
z
" style="fill:#ffffff;"/>
   </g>
   <g id="matplotlib.axis_1">
    <g id="xtick_1">
     <g id="line2d_1">
      <defs>
       <path d="M 0 0 
L 0 3.5 
" id="m88feefac31" style="stroke:#000000;stroke-width:0.8;"/>
      </defs>
      <g>
       <use style="stroke:#000000;stroke-width:0.8;" x="59.649858" xlink:href="#m88feefac31" y="242.6"/>
      </g>
     </g>
     <g id="text_1">
      <!-- 0 -->
      <g transform="translate(56.468608 257.198437)scale(0.1 -0.1)">
       <defs>
        <path d="M 31.78125 66.40625 
Q 24.171875 66.40625 20.328125 58.90625 
Q 16.5 51.421875 16.5 36.375 
Q 16.5 21.390625 20.328125 13.890625 
Q 24.171875 6.390625 31.78125 6.390625 
Q 39.453125 6.390625 43.28125 13.890625 
Q 47.125 21.390625 47.125 36.375 
Q 47.125 51.421875 43.28125 58.90625 
Q 39.453125 66.40625 31.78125 66.40625 
z
M 31.78125 74.21875 
Q 44.046875 74.21875 50.515625 64.515625 
Q 56.984375 54.828125 56.984375 36.375 
Q 56.984375 17.96875 50.515625 8.265625 
Q 44.046875 -1.421875 31.78125 -1.421875 
Q 19.53125 -1.421875 13.0625 8.265625 
Q 6.59375 17.96875 6.59375 36.375 
Q 6.59375 54.828125 13.0625 64.515625 
Q 19.53125 74.21875 31.78125 74.21875 
z
" id="DejaVuSans-48"/>
       </defs>
       <use xlink:href="#DejaVuSans-48"/>
      </g>
     </g>
    </g>
    <g id="xtick_2">
     <g id="line2d_2">
      <g>
       <use style="stroke:#000000;stroke-width:0.8;" x="127.76804" xlink:href="#m88feefac31" y="242.6"/>
      </g>
     </g>
     <g id="text_2">
      <!-- 2 -->
      <g transform="translate(124.58679 257.198437)scale(0.1 -0.1)">
       <defs>
        <path d="M 19.1875 8.296875 
L 53.609375 8.296875 
L 53.609375 0 
L 7.328125 0 
L 7.328125 8.296875 
Q 12.9375 14.109375 22.625 23.890625 
Q 32.328125 33.6875 34.8125 36.53125 
Q 39.546875 41.84375 41.421875 45.53125 
Q 43.3125 49.21875 43.3125 52.78125 
Q 43.3125 58.59375 39.234375 62.25 
Q 35.15625 65.921875 28.609375 65.921875 
Q 23.96875 65.921875 18.8125 64.3125 
Q 13.671875 62.703125 7.8125 59.421875 
L 7.8125 69.390625 
Q 13.765625 71.78125 18.9375 73 
Q 24.125 74.21875 28.421875 74.21875 
Q 39.75 74.21875 46.484375 68.546875 
Q 53.21875 62.890625 53.21875 53.421875 
Q 53.21875 48.921875 51.53125 44.890625 
Q 49.859375 40.875 45.40625 35.40625 
Q 44.1875 33.984375 37.640625 27.21875 
Q 31.109375 20.453125 19.1875 8.296875 
z
" id="DejaVuSans-50"/>
       </defs>
       <use xlink:href="#DejaVuSans-50"/>
      </g>
     </g>
    </g>
    <g id="xtick_3">
     <g id="line2d_3">
      <g>
       <use style="stroke:#000000;stroke-width:0.8;" x="195.886222" xlink:href="#m88feefac31" y="242.6"/>
      </g>
     </g>
     <g id="text_3">
      <!-- 4 -->
      <g transform="translate(192.704972 257.198437)scale(0.1 -0.1)">
       <defs>
        <path d="M 37.796875 64.3125 
L 12.890625 25.390625 
L 37.796875 25.390625 
z
M 35.203125 72.90625 
L 47.609375 72.90625 
L 47.609375 25.390625 
L 58.015625 25.390625 
L 58.015625 17.1875 
L 47.609375 17.1875 
L 47.609375 0 
L 37.796875 0 
L 37.796875 17.1875 
L 4.890625 17.1875 
L 4.890625 26.703125 
z
" id="DejaVuSans-52"/>
       </defs>
       <use xlink:href="#DejaVuSans-52"/>
      </g>
     </g>
    </g>
    <g id="xtick_4">
     <g id="line2d_4">
      <g>
       <use style="stroke:#000000;stroke-width:0.8;" x="264.004403" xlink:href="#m88feefac31" y="242.6"/>
      </g>
     </g>
     <g id="text_4">
      <!-- 6 -->
      <g transform="translate(260.823153 257.198437)scale(0.1 -0.1)">
       <defs>
        <path d="M 33.015625 40.375 
Q 26.375 40.375 22.484375 35.828125 
Q 18.609375 31.296875 18.609375 23.390625 
Q 18.609375 15.53125 22.484375 10.953125 
Q 26.375 6.390625 33.015625 6.390625 
Q 39.65625 6.390625 43.53125 10.953125 
Q 47.40625 15.53125 47.40625 23.390625 
Q 47.40625 31.296875 43.53125 35.828125 
Q 39.65625 40.375 33.015625 40.375 
z
M 52.59375 71.296875 
L 52.59375 62.3125 
Q 48.875 64.0625 45.09375 64.984375 
Q 41.3125 65.921875 37.59375 65.921875 
Q 27.828125 65.921875 22.671875 59.328125 
Q 17.53125 52.734375 16.796875 39.40625 
Q 19.671875 43.65625 24.015625 45.921875 
Q 28.375 48.1875 33.59375 48.1875 
Q 44.578125 48.1875 50.953125 41.515625 
Q 57.328125 34.859375 57.328125 23.390625 
Q 57.328125 12.15625 50.6875 5.359375 
Q 44.046875 -1.421875 33.015625 -1.421875 
Q 20.359375 -1.421875 13.671875 8.265625 
Q 6.984375 17.96875 6.984375 36.375 
Q 6.984375 53.65625 15.1875 63.9375 
Q 23.390625 74.21875 37.203125 74.21875 
Q 40.921875 74.21875 44.703125 73.484375 
Q 48.484375 72.75 52.59375 71.296875 
z
" id="DejaVuSans-54"/>
       </defs>
       <use xlink:href="#DejaVuSans-54"/>
      </g>
     </g>
    </g>
    <g id="xtick_5">
     <g id="line2d_5">
      <g>
       <use style="stroke:#000000;stroke-width:0.8;" x="332.122585" xlink:href="#m88feefac31" y="242.6"/>
      </g>
     </g>
     <g id="text_5">
      <!-- 8 -->
      <g transform="translate(328.941335 257.198437)scale(0.1 -0.1)">
       <defs>
        <path d="M 31.78125 34.625 
Q 24.75 34.625 20.71875 30.859375 
Q 16.703125 27.09375 16.703125 20.515625 
Q 16.703125 13.921875 20.71875 10.15625 
Q 24.75 6.390625 31.78125 6.390625 
Q 38.8125 6.390625 42.859375 10.171875 
Q 46.921875 13.96875 46.921875 20.515625 
Q 46.921875 27.09375 42.890625 30.859375 
Q 38.875 34.625 31.78125 34.625 
z
M 21.921875 38.8125 
Q 15.578125 40.375 12.03125 44.71875 
Q 8.5 49.078125 8.5 55.328125 
Q 8.5 64.0625 14.71875 69.140625 
Q 20.953125 74.21875 31.78125 74.21875 
Q 42.671875 74.21875 48.875 69.140625 
Q 55.078125 64.0625 55.078125 55.328125 
Q 55.078125 49.078125 51.53125 44.71875 
Q 48 40.375 41.703125 38.8125 
Q 48.828125 37.15625 52.796875 32.3125 
Q 56.78125 27.484375 56.78125 20.515625 
Q 56.78125 9.90625 50.3125 4.234375 
Q 43.84375 -1.421875 31.78125 -1.421875 
Q 19.734375 -1.421875 13.25 4.234375 
Q 6.78125 9.90625 6.78125 20.515625 
Q 6.78125 27.484375 10.78125 32.3125 
Q 14.796875 37.15625 21.921875 38.8125 
z
M 18.3125 54.390625 
Q 18.3125 48.734375 21.84375 45.5625 
Q 25.390625 42.390625 31.78125 42.390625 
Q 38.140625 42.390625 41.71875 45.5625 
Q 45.3125 48.734375 45.3125 54.390625 
Q 45.3125 60.0625 41.71875 63.234375 
Q 38.140625 66.40625 31.78125 66.40625 
Q 25.390625 66.40625 21.84375 63.234375 
Q 18.3125 60.0625 18.3125 54.390625 
z
" id="DejaVuSans-56"/>
       </defs>
       <use xlink:href="#DejaVuSans-56"/>
      </g>
     </g>
    </g>
    <g id="xtick_6">
     <g id="line2d_6">
      <g>
       <use style="stroke:#000000;stroke-width:0.8;" x="400.240767" xlink:href="#m88feefac31" y="242.6"/>
      </g>
     </g>
     <g id="text_6">
      <!-- 10 -->
      <g transform="translate(393.878267 257.198437)scale(0.1 -0.1)">
       <defs>
        <path d="M 12.40625 8.296875 
L 28.515625 8.296875 
L 28.515625 63.921875 
L 10.984375 60.40625 
L 10.984375 69.390625 
L 28.421875 72.90625 
L 38.28125 72.90625 
L 38.28125 8.296875 
L 54.390625 8.296875 
L 54.390625 0 
L 12.40625 0 
z
" id="DejaVuSans-49"/>
       </defs>
       <use xlink:href="#DejaVuSans-49"/>
       <use x="63.623047" xlink:href="#DejaVuSans-48"/>
      </g>
     </g>
    </g>
    <g id="text_7">
     <!-- time (ms) -->
     <g transform="translate(205.683594 270.876562)scale(0.1 -0.1)">
      <defs>
       <path d="M 18.3125 70.21875 
L 18.3125 54.6875 
L 36.8125 54.6875 
L 36.8125 47.703125 
L 18.3125 47.703125 
L 18.3125 18.015625 
Q 18.3125 11.328125 20.140625 9.421875 
Q 21.96875 7.515625 27.59375 7.515625 
L 36.8125 7.515625 
L 36.8125 0 
L 27.59375 0 
Q 17.1875 0 13.234375 3.875 
Q 9.28125 7.765625 9.28125 18.015625 
L 9.28125 47.703125 
L 2.6875 47.703125 
L 2.6875 54.6875 
L 9.28125 54.6875 
L 9.28125 70.21875 
z
" id="DejaVuSans-116"/>
       <path d="M 9.421875 54.6875 
L 18.40625 54.6875 
L 18.40625 0 
L 9.421875 0 
z
M 9.421875 75.984375 
L 18.40625 75.984375 
L 18.40625 64.59375 
L 9.421875 64.59375 
z
" id="DejaVuSans-105"/>
       <path d="M 52 44.1875 
Q 55.375 50.25 60.0625 53.125 
Q 64.75 56 71.09375 56 
Q 79.640625 56 84.28125 50.015625 
Q 88.921875 44.046875 88.921875 33.015625 
L 88.921875 0 
L 79.890625 0 
L 79.890625 32.71875 
Q 79.890625 40.578125 77.09375 44.375 
Q 74.3125 48.1875 68.609375 48.1875 
Q 61.625 48.1875 57.5625 43.546875 
Q 53.515625 38.921875 53.515625 30.90625 
L 53.515625 0 
L 44.484375 0 
L 44.484375 32.71875 
Q 44.484375 40.625 41.703125 44.40625 
Q 38.921875 48.1875 33.109375 48.1875 
Q 26.21875 48.1875 22.15625 43.53125 
Q 18.109375 38.875 18.109375 30.90625 
L 18.109375 0 
L 9.078125 0 
L 9.078125 54.6875 
L 18.109375 54.6875 
L 18.109375 46.1875 
Q 21.1875 51.21875 25.484375 53.609375 
Q 29.78125 56 35.6875 56 
Q 41.65625 56 45.828125 52.96875 
Q 50 49.953125 52 44.1875 
z
" id="DejaVuSans-109"/>
       <path d="M 56.203125 29.59375 
L 56.203125 25.203125 
L 14.890625 25.203125 
Q 15.484375 15.921875 20.484375 11.0625 
Q 25.484375 6.203125 34.421875 6.203125 
Q 39.59375 6.203125 44.453125 7.46875 
Q 49.3125 8.734375 54.109375 11.28125 
L 54.109375 2.78125 
Q 49.265625 0.734375 44.1875 -0.34375 
Q 39.109375 -1.421875 33.890625 -1.421875 
Q 20.796875 -1.421875 13.15625 6.1875 
Q 5.515625 13.8125 5.515625 26.8125 
Q 5.515625 40.234375 12.765625 48.109375 
Q 20.015625 56 32.328125 56 
Q 43.359375 56 49.78125 48.890625 
Q 56.203125 41.796875 56.203125 29.59375 
z
M 47.21875 32.234375 
Q 47.125 39.59375 43.09375 43.984375 
Q 39.0625 48.390625 32.421875 48.390625 
Q 24.90625 48.390625 20.390625 44.140625 
Q 15.875 39.890625 15.1875 32.171875 
z
" id="DejaVuSans-101"/>
       <path id="DejaVuSans-32"/>
       <path d="M 31 75.875 
Q 24.46875 64.65625 21.28125 53.65625 
Q 18.109375 42.671875 18.109375 31.390625 
Q 18.109375 20.125 21.3125 9.0625 
Q 24.515625 -2 31 -13.1875 
L 23.1875 -13.1875 
Q 15.875 -1.703125 12.234375 9.375 
Q 8.59375 20.453125 8.59375 31.390625 
Q 8.59375 42.28125 12.203125 53.3125 
Q 15.828125 64.359375 23.1875 75.875 
z
" id="DejaVuSans-40"/>
       <path d="M 44.28125 53.078125 
L 44.28125 44.578125 
Q 40.484375 46.53125 36.375 47.5 
Q 32.28125 48.484375 27.875 48.484375 
Q 21.1875 48.484375 17.84375 46.4375 
Q 14.5 44.390625 14.5 40.28125 
Q 14.5 37.15625 16.890625 35.375 
Q 19.28125 33.59375 26.515625 31.984375 
L 29.59375 31.296875 
Q 39.15625 29.25 43.1875 25.515625 
Q 47.21875 21.78125 47.21875 15.09375 
Q 47.21875 7.46875 41.1875 3.015625 
Q 35.15625 -1.421875 24.609375 -1.421875 
Q 20.21875 -1.421875 15.453125 -0.5625 
Q 10.6875 0.296875 5.421875 2 
L 5.421875 11.28125 
Q 10.40625 8.6875 15.234375 7.390625 
Q 20.0625 6.109375 24.8125 6.109375 
Q 31.15625 6.109375 34.5625 8.28125 
Q 37.984375 10.453125 37.984375 14.40625 
Q 37.984375 18.0625 35.515625 20.015625 
Q 33.0625 21.96875 24.703125 23.78125 
L 21.578125 24.515625 
Q 13.234375 26.265625 9.515625 29.90625 
Q 5.8125 33.546875 5.8125 39.890625 
Q 5.8125 47.609375 11.28125 51.796875 
Q 16.75 56 26.8125 56 
Q 31.78125 56 36.171875 55.265625 
Q 40.578125 54.546875 44.28125 53.078125 
z
" id="DejaVuSans-115"/>
       <path d="M 8.015625 75.875 
L 15.828125 75.875 
Q 23.140625 64.359375 26.78125 53.3125 
Q 30.421875 42.28125 30.421875 31.390625 
Q 30.421875 20.453125 26.78125 9.375 
Q 23.140625 -1.703125 15.828125 -13.1875 
L 8.015625 -13.1875 
Q 14.5 -2 17.703125 9.0625 
Q 20.90625 20.125 20.90625 31.390625 
Q 20.90625 42.671875 17.703125 53.65625 
Q 14.5 64.65625 8.015625 75.875 
z
" id="DejaVuSans-41"/>
      </defs>
      <use xlink:href="#DejaVuSans-116"/>
      <use x="39.208984" xlink:href="#DejaVuSans-105"/>
      <use x="66.992188" xlink:href="#DejaVuSans-109"/>
      <use x="164.404297" xlink:href="#DejaVuSans-101"/>
      <use x="225.927734" xlink:href="#DejaVuSans-32"/>
      <use x="257.714844" xlink:href="#DejaVuSans-40"/>
      <use x="296.728516" xlink:href="#DejaVuSans-109"/>
      <use x="394.140625" xlink:href="#DejaVuSans-115"/>
      <use x="446.240234" xlink:href="#DejaVuSans-41"/>
     </g>
    </g>
   </g>
   <g id="matplotlib.axis_2">
    <g id="ytick_1">
     <g id="line2d_7">
      <defs>
       <path d="M 0 0 
L -3.5 0 
" id="md077d39745" style="stroke:#000000;stroke-width:0.8;"/>
      </defs>
      <g>
       <use style="stroke:#000000;stroke-width:0.8;" x="42.620313" xlink:href="#md077d39745" y="210.50032"/>
      </g>
     </g>
     <g id="text_8">
      <!-- −4 -->
      <g transform="translate(20.878125 214.299539)scale(0.1 -0.1)">
       <defs>
        <path d="M 10.59375 35.5 
L 73.1875 35.5 
L 73.1875 27.203125 
L 10.59375 27.203125 
z
" id="DejaVuSans-8722"/>
       </defs>
       <use xlink:href="#DejaVuSans-8722"/>
       <use x="83.789062" xlink:href="#DejaVuSans-52"/>
      </g>
     </g>
    </g>
    <g id="ytick_2">
     <g id="line2d_8">
      <g>
       <use style="stroke:#000000;stroke-width:0.8;" x="42.620313" xlink:href="#md077d39745" y="167.70016"/>
      </g>
     </g>
     <g id="text_9">
      <!-- −2 -->
      <g transform="translate(20.878125 171.499379)scale(0.1 -0.1)">
       <use xlink:href="#DejaVuSans-8722"/>
       <use x="83.789062" xlink:href="#DejaVuSans-50"/>
      </g>
     </g>
    </g>
    <g id="ytick_3">
     <g id="line2d_9">
      <g>
       <use style="stroke:#000000;stroke-width:0.8;" x="42.620313" xlink:href="#md077d39745" y="124.9"/>
      </g>
     </g>
     <g id="text_10">
      <!-- 0 -->
      <g transform="translate(29.257813 128.699219)scale(0.1 -0.1)">
       <use xlink:href="#DejaVuSans-48"/>
      </g>
     </g>
    </g>
    <g id="ytick_4">
     <g id="line2d_10">
      <g>
       <use style="stroke:#000000;stroke-width:0.8;" x="42.620313" xlink:href="#md077d39745" y="82.09984"/>
      </g>
     </g>
     <g id="text_11">
      <!-- 2 -->
      <g transform="translate(29.257813 85.899059)scale(0.1 -0.1)">
       <use xlink:href="#DejaVuSans-50"/>
      </g>
     </g>
    </g>
    <g id="ytick_5">
     <g id="line2d_11">
      <g>
       <use style="stroke:#000000;stroke-width:0.8;" x="42.620313" xlink:href="#md077d39745" y="39.29968"/>
      </g>
     </g>
     <g id="text_12">
      <!-- 4 -->
      <g transform="translate(29.257813 43.098898)scale(0.1 -0.1)">
       <use xlink:href="#DejaVuSans-52"/>
      </g>
     </g>
    </g>
    <g id="text_13">
     <!-- IN [V] -->
     <g transform="translate(14.798438 139.026562)rotate(-90)scale(0.1 -0.1)">
      <defs>
       <path d="M 9.8125 72.90625 
L 19.671875 72.90625 
L 19.671875 0 
L 9.8125 0 
z
" id="DejaVuSans-73"/>
       <path d="M 9.8125 72.90625 
L 23.09375 72.90625 
L 55.421875 11.921875 
L 55.421875 72.90625 
L 64.984375 72.90625 
L 64.984375 0 
L 51.703125 0 
L 19.390625 60.984375 
L 19.390625 0 
L 9.8125 0 
z
" id="DejaVuSans-78"/>
       <path d="M 8.59375 75.984375 
L 29.296875 75.984375 
L 29.296875 69 
L 17.578125 69 
L 17.578125 -6.203125 
L 29.296875 -6.203125 
L 29.296875 -13.1875 
L 8.59375 -13.1875 
z
" id="DejaVuSans-91"/>
       <path d="M 28.609375 0 
L 0.78125 72.90625 
L 11.078125 72.90625 
L 34.1875 11.53125 
L 57.328125 72.90625 
L 67.578125 72.90625 
L 39.796875 0 
z
" id="DejaVuSans-86"/>
       <path d="M 30.421875 75.984375 
L 30.421875 -13.1875 
L 9.71875 -13.1875 
L 9.71875 -6.203125 
L 21.390625 -6.203125 
L 21.390625 69 
L 9.71875 69 
L 9.71875 75.984375 
z
" id="DejaVuSans-93"/>
      </defs>
      <use xlink:href="#DejaVuSans-73"/>
      <use x="29.492188" xlink:href="#DejaVuSans-78"/>
      <use x="104.296875" xlink:href="#DejaVuSans-32"/>
      <use x="136.083984" xlink:href="#DejaVuSans-91"/>
      <use x="175.097656" xlink:href="#DejaVuSans-86"/>
      <use x="243.505859" xlink:href="#DejaVuSans-93"/>
     </g>
    </g>
   </g>
   <g id="line2d_12">
    <path clip-path="url(#p2c9ce3db52)" d="M 59.649858 124.9 
L 62.325698 74.199885 
L 63.722121 51.866827 
L 64.812012 37.720754 
L 65.731607 28.497952 
L 66.480907 23.019908 
L 67.093971 19.979966 
L 67.604857 18.469617 
L 67.979507 17.961992 
L 68.25198 17.913491 
L 68.524453 18.135248 
L 68.830984 18.707042 
L 69.239693 19.997055 
L 69.75058 22.446625 
L 70.363643 26.584011 
L 71.112943 33.340166 
L 71.99848 43.564485 
L 73.054312 58.558877 
L 74.382616 80.907407 
L 76.323984 117.889295 
L 79.423362 176.780162 
L 80.785725 198.423074 
L 81.875616 212.467327 
L 82.761153 221.302048 
L 83.510453 226.780092 
L 84.123516 229.820034 
L 84.634403 231.330383 
L 85.009053 231.838008 
L 85.281525 231.886509 
L 85.553998 231.664752 
L 85.86053 231.092958 
L 86.269239 229.802945 
L 86.780125 227.353375 
L 87.393189 223.215989 
L 88.142489 216.459834 
L 89.028025 206.235515 
L 90.083857 191.241123 
L 91.412162 168.892593 
L 93.35353 131.910705 
L 96.452907 73.019838 
L 97.815271 51.376926 
L 98.905162 37.332673 
L 99.790698 28.497952 
L 100.539998 23.019908 
L 101.153062 19.979966 
L 101.663948 18.469617 
L 102.038598 17.961992 
L 102.311071 17.913491 
L 102.583543 18.135248 
L 102.890075 18.707042 
L 103.298784 19.997055 
L 103.809671 22.446625 
L 104.422734 26.584011 
L 105.172034 33.340166 
L 106.057571 43.564485 
L 107.113403 58.558877 
L 108.441707 80.907407 
L 110.383075 117.889295 
L 113.482453 176.780162 
L 114.844816 198.423074 
L 115.934707 212.467327 
L 116.820243 221.302048 
L 117.569543 226.780092 
L 118.182607 229.820034 
L 118.693493 231.330383 
L 119.068143 231.838008 
L 119.340616 231.886509 
L 119.613089 231.664752 
L 119.919621 231.092958 
L 120.32833 229.802945 
L 120.839216 227.353375 
L 121.45228 223.215989 
L 122.20158 216.459834 
L 123.087116 206.235515 
L 124.142948 191.241123 
L 125.471253 168.892593 
L 127.412621 131.910705 
L 130.511998 73.019838 
L 131.874362 51.376926 
L 132.964253 37.332673 
L 133.849789 28.497952 
L 134.599089 23.019908 
L 135.212153 19.979966 
L 135.723039 18.469617 
L 136.097689 17.961992 
L 136.370162 17.913491 
L 136.642634 18.135248 
L 136.949166 18.707042 
L 137.357875 19.997055 
L 137.868762 22.446625 
L 138.481825 26.584011 
L 139.231125 33.340166 
L 140.116662 43.564485 
L 141.172493 58.558877 
L 142.500798 80.907407 
L 144.442166 117.889295 
L 147.541543 176.780162 
L 148.903907 198.423074 
L 149.993798 212.467327 
L 150.879334 221.302048 
L 151.628634 226.780092 
L 152.241698 229.820034 
L 152.752584 231.330383 
L 153.127234 231.838008 
L 153.399707 231.886509 
L 153.67218 231.664752 
L 153.978712 231.092958 
L 154.387421 229.802945 
L 154.898307 227.353375 
L 155.511371 223.215989 
L 156.260671 216.459834 
L 157.146207 206.235515 
L 158.202039 191.241123 
L 159.530343 168.892593 
L 161.471712 131.910705 
L 164.571089 73.019838 
L 165.933453 51.376926 
L 167.023343 37.332673 
L 167.90888 28.497952 
L 168.65818 23.019908 
L 169.271243 19.979966 
L 169.78213 18.469617 
L 170.15678 17.961992 
L 170.429253 17.913491 
L 170.701725 18.135248 
L 171.008257 18.707042 
L 171.416966 19.997055 
L 171.927853 22.446625 
L 172.540916 26.584011 
L 173.290216 33.340166 
L 174.175753 43.564485 
L 175.231584 58.558877 
L 176.559889 80.907407 
L 178.501257 117.889295 
L 181.600634 176.780162 
L 182.962998 198.423074 
L 184.052889 212.467327 
L 184.938425 221.302048 
L 185.687725 226.780092 
L 186.300789 229.820034 
L 186.811675 231.330383 
L 187.186325 231.838008 
L 187.458798 231.886509 
L 187.731271 231.664752 
L 188.037803 231.092958 
L 188.446512 229.802945 
L 188.957398 227.353375 
L 189.570462 223.215989 
L 190.319762 216.459834 
L 191.205298 206.235515 
L 192.26113 191.241123 
L 193.589434 168.892593 
L 195.530803 131.910705 
L 198.63018 73.019838 
L 199.992543 51.376926 
L 201.082434 37.332673 
L 201.967971 28.497952 
L 202.717271 23.019908 
L 203.330334 19.979966 
L 203.841221 18.469617 
L 204.215871 17.961992 
L 204.488343 17.913491 
L 204.760816 18.135248 
L 205.067348 18.707042 
L 205.476057 19.997055 
L 205.986943 22.446625 
L 206.600007 26.584011 
L 207.349307 33.340166 
L 208.234843 43.564485 
L 209.290675 58.558877 
L 210.61898 80.907407 
L 212.560348 117.889295 
L 215.659725 176.780162 
L 217.022089 198.423074 
L 218.11198 212.467327 
L 218.997516 221.302048 
L 219.746816 226.780092 
L 220.35988 229.820034 
L 220.870766 231.330383 
L 221.245416 231.838008 
L 221.517889 231.886509 
L 221.790362 231.664752 
L 222.096893 231.092958 
L 222.505603 229.802945 
L 223.016489 227.353375 
L 223.629553 223.215989 
L 224.378853 216.459834 
L 225.264389 206.235515 
L 226.320221 191.241123 
L 227.648525 168.892593 
L 229.589893 131.910705 
L 232.689271 73.019838 
L 234.051634 51.376926 
L 235.141525 37.332673 
L 236.027062 28.497952 
L 236.776362 23.019908 
L 237.389425 19.979966 
L 237.900312 18.469617 
L 238.274962 17.961992 
L 238.547434 17.913491 
L 238.819907 18.135248 
L 239.126439 18.707042 
L 239.535148 19.997055 
L 240.046034 22.446625 
L 240.659098 26.584011 
L 241.408398 33.340166 
L 242.293934 43.564485 
L 243.349766 58.558877 
L 244.678071 80.907407 
L 246.619439 117.889295 
L 249.718816 176.780162 
L 251.08118 198.423074 
L 252.171071 212.467327 
L 253.056607 221.302048 
L 253.805907 226.780092 
L 254.418971 229.820034 
L 254.929857 231.330383 
L 255.304507 231.838008 
L 255.57698 231.886509 
L 255.849453 231.664752 
L 256.155984 231.092958 
L 256.564693 229.802945 
L 257.07558 227.353375 
L 257.688643 223.215989 
L 258.437943 216.459834 
L 259.32348 206.235515 
L 260.379312 191.241123 
L 261.707616 168.892593 
L 263.648984 131.910705 
L 266.748362 73.019838 
L 268.110725 51.376926 
L 269.200616 37.332673 
L 270.086153 28.497952 
L 270.835453 23.019908 
L 271.448516 19.979966 
L 271.959403 18.469617 
L 272.334053 17.961992 
L 272.606525 17.913491 
L 272.878998 18.135248 
L 273.18553 18.707042 
L 273.594239 19.997055 
L 274.105125 22.446625 
L 274.718189 26.584011 
L 275.467489 33.340166 
L 276.353025 43.564485 
L 277.408857 58.558877 
L 278.737162 80.907407 
L 280.67853 117.889295 
L 283.777907 176.780162 
L 285.140271 198.423074 
L 286.230162 212.467327 
L 287.115698 221.302048 
L 287.864998 226.780092 
L 288.478062 229.820034 
L 288.988948 231.330383 
L 289.363598 231.838008 
L 289.636071 231.886509 
L 289.908543 231.664752 
L 290.215075 231.092958 
L 290.623784 229.802945 
L 291.134671 227.353375 
L 291.747734 223.215989 
L 292.497034 216.459834 
L 293.382571 206.235515 
L 294.438403 191.241123 
L 295.766707 168.892593 
L 297.708075 131.910705 
L 300.807453 73.019838 
L 302.169816 51.376926 
L 303.259707 37.332673 
L 304.145243 28.497952 
L 304.894543 23.019908 
L 305.507607 19.979966 
L 306.018493 18.469617 
L 306.393143 17.961992 
L 306.665616 17.913491 
L 306.938089 18.135248 
L 307.244621 18.707042 
L 307.65333 19.997055 
L 308.164216 22.446625 
L 308.77728 26.584011 
L 309.52658 33.340166 
L 310.412116 43.564485 
L 311.467948 58.558877 
L 312.796253 80.907407 
L 314.737621 117.889295 
L 317.836998 176.780162 
L 319.199362 198.423074 
L 320.289253 212.467327 
L 321.174789 221.302048 
L 321.924089 226.780092 
L 322.537153 229.820034 
L 323.048039 231.330383 
L 323.422689 231.838008 
L 323.695162 231.886509 
L 323.967634 231.664752 
L 324.274166 231.092958 
L 324.682875 229.802945 
L 325.193762 227.353375 
L 325.806825 223.215989 
L 326.556125 216.459834 
L 327.441662 206.235515 
L 328.497493 191.241123 
L 329.825798 168.892593 
L 331.767166 131.910705 
L 334.866543 73.019838 
L 336.228907 51.376926 
L 337.318798 37.332673 
L 338.204334 28.497952 
L 338.953634 23.019908 
L 339.566698 19.979966 
L 340.077584 18.469617 
L 340.452234 17.961992 
L 340.724707 17.913491 
L 340.99718 18.135248 
L 341.303712 18.707042 
L 341.712421 19.997055 
L 342.223307 22.446625 
L 342.836371 26.584011 
L 343.585671 33.340166 
L 344.471207 43.564485 
L 345.527039 58.558877 
L 346.855343 80.907407 
L 348.796712 117.889295 
L 351.896089 176.780162 
L 353.258453 198.423074 
L 354.348343 212.467327 
L 355.23388 221.302048 
L 355.98318 226.780092 
L 356.596243 229.820034 
L 357.10713 231.330383 
L 357.48178 231.838008 
L 357.754253 231.886509 
L 358.026725 231.664752 
L 358.333257 231.092958 
L 358.741966 229.802945 
L 359.252853 227.353375 
L 359.865916 223.215989 
L 360.615216 216.459834 
L 361.500753 206.235515 
L 362.556584 191.241123 
L 363.884889 168.892593 
L 365.826257 131.910705 
L 368.925634 73.019838 
L 370.287998 51.376926 
L 371.377889 37.332673 
L 372.263425 28.497952 
L 373.012725 23.019908 
L 373.625789 19.979966 
L 374.136675 18.469617 
L 374.511325 17.961992 
L 374.783798 17.913491 
L 375.056271 18.135248 
L 375.362803 18.707042 
L 375.771512 19.997055 
L 376.282398 22.446625 
L 376.895462 26.584011 
L 377.644762 33.340166 
L 378.530298 43.564485 
L 379.58613 58.558877 
L 380.914434 80.907407 
L 382.855803 117.889295 
L 385.95518 176.780162 
L 387.317543 198.423074 
L 388.407434 212.467327 
L 389.292971 221.302048 
L 390.042271 226.780092 
L 390.655334 229.820034 
L 391.166221 231.330383 
L 391.540871 231.838008 
L 391.813343 231.886509 
L 392.085816 231.664752 
L 392.392348 231.092958 
L 392.801057 229.802945 
L 393.311943 227.353375 
L 393.925007 223.215989 
L 394.674307 216.459834 
L 395.559843 206.235515 
L 396.615675 191.241123 
L 397.94398 168.892593 
L 399.885348 131.910705 
L 400.240767 124.9 
L 400.240767 124.9 
" style="fill:none;stroke:#0000ff;stroke-linecap:square;stroke-width:1.5;"/>
   </g>
   <g id="line2d_13">
    <path clip-path="url(#p2c9ce3db52)" d="M 59.649858 124.899765 
L 59.658636 124.761225 
L 61.13363 97.876181 
L 61.50828 94.978476 
L 61.951048 93.216326 
L 62.461934 92.062766 
L 63.074998 91.201869 
L 63.858357 90.492296 
L 64.812012 89.936238 
L 65.970021 89.522968 
L 67.332384 89.278127 
L 68.796925 89.241223 
L 70.227407 89.423355 
L 71.487593 89.800074 
L 72.509366 90.324233 
L 73.326784 90.98338 
L 73.973907 91.793267 
L 74.450734 92.731504 
L 74.825384 93.944603 
L 75.097857 95.518511 
L 75.336271 98.394577 
L 77.481993 140.638299 
L 78.163175 151.923675 
L 78.537825 154.821465 
L 78.980593 156.583651 
L 79.49148 157.737226 
L 80.104543 158.598129 
L 80.887903 159.307705 
L 81.841557 159.863763 
L 82.999566 160.27703 
L 84.36193 160.521867 
L 85.826471 160.558764 
L 87.256953 160.376625 
L 88.517139 159.999896 
L 89.538912 159.475726 
L 90.35633 158.816565 
L 91.003453 158.006656 
L 91.48028 157.068386 
L 91.85493 155.855224 
L 92.127403 154.281189 
L 92.365816 151.404803 
L 94.511539 109.161348 
L 95.192721 97.876181 
L 95.567371 94.978476 
L 96.010139 93.216326 
L 96.521025 92.062766 
L 97.134089 91.201869 
L 97.917448 90.492296 
L 98.871103 89.936238 
L 100.029112 89.522968 
L 101.391475 89.278127 
L 102.856016 89.241223 
L 104.286498 89.423355 
L 105.546684 89.800074 
L 106.568457 90.324233 
L 107.385875 90.98338 
L 108.032998 91.793267 
L 108.509825 92.731504 
L 108.884475 93.944603 
L 109.156948 95.518511 
L 109.395362 98.394577 
L 111.541084 140.638299 
L 112.222266 151.923675 
L 112.596916 154.821465 
L 113.039684 156.583651 
L 113.550571 157.737226 
L 114.163634 158.598129 
L 114.946993 159.307705 
L 115.900648 159.863763 
L 117.058657 160.27703 
L 118.421021 160.521867 
L 119.885562 160.558764 
L 121.316043 160.376625 
L 122.57623 159.999896 
L 123.598003 159.475726 
L 124.415421 158.816565 
L 125.062543 158.006656 
L 125.539371 157.068386 
L 125.914021 155.855224 
L 126.186493 154.281189 
L 126.424907 151.404803 
L 128.57063 109.161348 
L 129.251812 97.876181 
L 129.626462 94.978476 
L 130.06923 93.216326 
L 130.580116 92.062766 
L 131.19318 91.201869 
L 131.976539 90.492296 
L 132.930193 89.936238 
L 134.088203 89.522968 
L 135.450566 89.278127 
L 136.915107 89.241223 
L 138.345589 89.423355 
L 139.605775 89.800074 
L 140.627548 90.324233 
L 141.444966 90.98338 
L 142.092089 91.793267 
L 142.568916 92.731504 
L 142.943566 93.944603 
L 143.216039 95.518511 
L 143.454453 98.394577 
L 145.600175 140.638299 
L 146.281357 151.923675 
L 146.656007 154.821465 
L 147.098775 156.583651 
L 147.609662 157.737226 
L 148.222725 158.598129 
L 149.006084 159.307705 
L 149.959739 159.863763 
L 151.117748 160.27703 
L 152.480112 160.521867 
L 153.944653 160.558764 
L 155.375134 160.376625 
L 156.635321 159.999896 
L 157.657093 159.475726 
L 158.474512 158.816565 
L 159.121634 158.006656 
L 159.598462 157.068386 
L 159.973112 155.855224 
L 160.245584 154.281189 
L 160.483998 151.404803 
L 162.629721 109.161348 
L 163.310903 97.876181 
L 163.685553 94.978476 
L 164.128321 93.216326 
L 164.639207 92.062766 
L 165.252271 91.201869 
L 166.03563 90.492296 
L 166.989284 89.936238 
L 168.147293 89.522968 
L 169.509657 89.278127 
L 170.974198 89.241223 
L 172.40468 89.423355 
L 173.664866 89.800074 
L 174.686639 90.324233 
L 175.504057 90.98338 
L 176.15118 91.793267 
L 176.628007 92.731504 
L 177.002657 93.944603 
L 177.27513 95.518511 
L 177.513543 98.394577 
L 179.659266 140.638299 
L 180.340448 151.923675 
L 180.715098 154.821465 
L 181.157866 156.583651 
L 181.668753 157.737226 
L 182.281816 158.598129 
L 183.065175 159.307705 
L 184.01883 159.863763 
L 185.176839 160.27703 
L 186.539203 160.521867 
L 188.003743 160.558764 
L 189.434225 160.376625 
L 190.694412 159.999896 
L 191.716184 159.475726 
L 192.533603 158.816565 
L 193.180725 158.006656 
L 193.657553 157.068386 
L 194.032203 155.855224 
L 194.304675 154.281189 
L 194.543089 151.404803 
L 196.688812 109.161348 
L 197.369993 97.876181 
L 197.744643 94.978476 
L 198.187412 93.216326 
L 198.698298 92.062766 
L 199.311362 91.201869 
L 200.094721 90.492296 
L 201.048375 89.936238 
L 202.206384 89.522968 
L 203.568748 89.278127 
L 205.033289 89.241223 
L 206.463771 89.423355 
L 207.723957 89.800074 
L 208.74573 90.324233 
L 209.563148 90.98338 
L 210.210271 91.793267 
L 210.687098 92.731504 
L 211.061748 93.944603 
L 211.334221 95.518511 
L 211.572634 98.394577 
L 213.718357 140.638299 
L 214.399539 151.923675 
L 214.774189 154.821465 
L 215.216957 156.583651 
L 215.727843 157.737226 
L 216.340907 158.598129 
L 217.124266 159.307705 
L 218.077921 159.863763 
L 219.23593 160.27703 
L 220.598293 160.521867 
L 222.062834 160.558764 
L 223.493316 160.376625 
L 224.753503 159.999896 
L 225.775275 159.475726 
L 226.592693 158.816565 
L 227.239816 158.006656 
L 227.716643 157.068386 
L 228.091293 155.855224 
L 228.363766 154.281189 
L 228.60218 151.404803 
L 230.747903 109.161348 
L 231.429084 97.876181 
L 231.803734 94.978476 
L 232.246503 93.216326 
L 232.757389 92.062766 
L 233.370453 91.201869 
L 234.153812 90.492296 
L 235.107466 89.936238 
L 236.265475 89.522968 
L 237.627839 89.278127 
L 239.09238 89.241223 
L 240.522862 89.423355 
L 241.783048 89.800074 
L 242.804821 90.324233 
L 243.622239 90.98338 
L 244.269362 91.793267 
L 244.746189 92.731504 
L 245.120839 93.944603 
L 245.393312 95.518511 
L 245.631725 98.394577 
L 247.777448 140.638299 
L 248.45863 151.923675 
L 248.83328 154.821465 
L 249.276048 156.583651 
L 249.786934 157.737226 
L 250.399998 158.598129 
L 251.183357 159.307705 
L 252.137012 159.863763 
L 253.295021 160.27703 
L 254.657384 160.521867 
L 256.121925 160.558764 
L 257.552407 160.376625 
L 258.812593 159.999896 
L 259.834366 159.475726 
L 260.651784 158.816565 
L 261.298907 158.006656 
L 261.775734 157.068386 
L 262.150384 155.855224 
L 262.422857 154.281189 
L 262.661271 151.404803 
L 264.806993 109.161348 
L 265.488175 97.876181 
L 265.862825 94.978476 
L 266.305593 93.216326 
L 266.81648 92.062766 
L 267.429543 91.201869 
L 268.212903 90.492296 
L 269.166557 89.936238 
L 270.324566 89.522968 
L 271.68693 89.278127 
L 273.151471 89.241223 
L 274.581953 89.423355 
L 275.842139 89.800074 
L 276.863912 90.324233 
L 277.68133 90.98338 
L 278.328453 91.793267 
L 278.80528 92.731504 
L 279.17993 93.944603 
L 279.452403 95.518511 
L 279.690816 98.394577 
L 281.836539 140.638299 
L 282.517721 151.923675 
L 282.892371 154.821465 
L 283.335139 156.583651 
L 283.846025 157.737226 
L 284.459089 158.598129 
L 285.242448 159.307705 
L 286.196103 159.863763 
L 287.354112 160.27703 
L 288.716475 160.521867 
L 290.181016 160.558764 
L 291.611498 160.376625 
L 292.871684 159.999896 
L 293.893457 159.475726 
L 294.710875 158.816565 
L 295.357998 158.006656 
L 295.834825 157.068386 
L 296.209475 155.855224 
L 296.481948 154.281189 
L 296.720362 151.404803 
L 298.866084 109.161348 
L 299.547266 97.876181 
L 299.921916 94.978476 
L 300.364684 93.216326 
L 300.875571 92.062766 
L 301.488634 91.201869 
L 302.271993 90.492296 
L 303.225648 89.936238 
L 304.383657 89.522968 
L 305.746021 89.278127 
L 307.210562 89.241223 
L 308.641043 89.423355 
L 309.90123 89.800074 
L 310.923003 90.324233 
L 311.740421 90.98338 
L 312.387543 91.793267 
L 312.864371 92.731504 
L 313.239021 93.944603 
L 313.511493 95.518511 
L 313.749907 98.394577 
L 315.89563 140.638299 
L 316.576812 151.923675 
L 316.951462 154.821465 
L 317.39423 156.583651 
L 317.905116 157.737226 
L 318.51818 158.598129 
L 319.301539 159.307705 
L 320.255193 159.863763 
L 321.413203 160.27703 
L 322.775566 160.521867 
L 324.240107 160.558764 
L 325.670589 160.376625 
L 326.930775 159.999896 
L 327.952548 159.475726 
L 328.769966 158.816565 
L 329.417089 158.006656 
L 329.893916 157.068386 
L 330.268566 155.855224 
L 330.541039 154.281189 
L 330.779453 151.404803 
L 332.925175 109.161348 
L 333.606357 97.876181 
L 333.981007 94.978476 
L 334.423775 93.216326 
L 334.934662 92.062766 
L 335.547725 91.201869 
L 336.331084 90.492296 
L 337.284739 89.936238 
L 338.442748 89.522968 
L 339.805112 89.278127 
L 341.269653 89.241223 
L 342.700134 89.423355 
L 343.960321 89.800074 
L 344.982093 90.324233 
L 345.799512 90.98338 
L 346.446634 91.793267 
L 346.923462 92.731504 
L 347.298112 93.944603 
L 347.570584 95.518511 
L 347.808998 98.394577 
L 349.954721 140.638299 
L 350.635903 151.923675 
L 351.010553 154.821465 
L 351.453321 156.583651 
L 351.964207 157.737226 
L 352.577271 158.598129 
L 353.36063 159.307705 
L 354.314284 159.863763 
L 355.472293 160.27703 
L 356.834657 160.521867 
L 358.299198 160.558764 
L 359.72968 160.376625 
L 360.989866 159.999896 
L 362.011639 159.475726 
L 362.829057 158.816565 
L 363.47618 158.006656 
L 363.953007 157.068386 
L 364.327657 155.855224 
L 364.60013 154.281189 
L 364.838543 151.404803 
L 366.984266 109.161348 
L 367.665448 97.876181 
L 368.040098 94.978476 
L 368.482866 93.216326 
L 368.993753 92.062766 
L 369.606816 91.201869 
L 370.390175 90.492296 
L 371.34383 89.936238 
L 372.501839 89.522968 
L 373.864203 89.278127 
L 375.328743 89.241223 
L 376.759225 89.423355 
L 378.019412 89.800074 
L 379.041184 90.324233 
L 379.858603 90.98338 
L 380.505725 91.793267 
L 380.982553 92.731504 
L 381.357203 93.944603 
L 381.629675 95.518511 
L 381.868089 98.394577 
L 384.013812 140.638299 
L 384.694993 151.923675 
L 385.069643 154.821465 
L 385.512412 156.583651 
L 386.023298 157.737226 
L 386.636362 158.598129 
L 387.419721 159.307705 
L 388.373375 159.863763 
L 389.531384 160.27703 
L 390.893748 160.521867 
L 392.358289 160.558764 
L 393.788771 160.376625 
L 395.048957 159.999896 
L 396.07073 159.475726 
L 396.888148 158.816565 
L 397.535271 158.006656 
L 398.012098 157.068386 
L 398.386748 155.855224 
L 398.659221 154.281189 
L 398.897634 151.404803 
L 400.240767 124.934809 
L 400.240767 124.934809 
" style="fill:none;stroke:#ff0000;stroke-linecap:square;stroke-width:1.5;"/>
   </g>
   <g id="patch_3">
    <path d="M 42.620313 242.6 
L 42.620313 7.2 
" style="fill:none;stroke:#000000;stroke-linecap:square;stroke-linejoin:miter;stroke-width:0.8;"/>
   </g>
   <g id="patch_4">
    <path d="M 417.270312 242.6 
L 417.270312 7.2 
" style="fill:none;stroke:#000000;stroke-linecap:square;stroke-linejoin:miter;stroke-width:0.8;"/>
   </g>
   <g id="patch_5">
    <path d="M 42.620312 242.6 
L 417.270312 242.6 
" style="fill:none;stroke:#000000;stroke-linecap:square;stroke-linejoin:miter;stroke-width:0.8;"/>
   </g>
   <g id="patch_6">
    <path d="M 42.620312 7.2 
L 417.270312 7.2 
" style="fill:none;stroke:#000000;stroke-linecap:square;stroke-linejoin:miter;stroke-width:0.8;"/>
   </g>
   <g id="legend_1">
    <g id="patch_7">
     <path d="M 48.366813 89.59 
L 171.179313 89.59 
Q 173.179313 89.59 173.179313 87.59 
L 173.179313 59.23375 
Q 173.179313 57.23375 171.179313 57.23375 
L 48.366813 57.23375 
Q 46.366813 57.23375 46.366813 59.23375 
L 46.366813 87.59 
Q 46.366813 89.59 48.366813 89.59 
z
" style="fill:#ffffff;opacity:0.8;stroke:#cccccc;stroke-linejoin:miter;"/>
    </g>
    <g id="line2d_14">
     <path d="M 50.366813 65.332187 
L 70.366813 65.332187 
" style="fill:none;stroke:#0000ff;stroke-linecap:square;stroke-width:1.5;"/>
    </g>
    <g id="line2d_15"/>
    <g id="text_14">
     <!-- Vin [V] -->
     <g transform="translate(78.366813 68.832187)scale(0.1 -0.1)">
      <defs>
       <path d="M 54.890625 33.015625 
L 54.890625 0 
L 45.90625 0 
L 45.90625 32.71875 
Q 45.90625 40.484375 42.875 44.328125 
Q 39.84375 48.1875 33.796875 48.1875 
Q 26.515625 48.1875 22.3125 43.546875 
Q 18.109375 38.921875 18.109375 30.90625 
L 18.109375 0 
L 9.078125 0 
L 9.078125 54.6875 
L 18.109375 54.6875 
L 18.109375 46.1875 
Q 21.34375 51.125 25.703125 53.5625 
Q 30.078125 56 35.796875 56 
Q 45.21875 56 50.046875 50.171875 
Q 54.890625 44.34375 54.890625 33.015625 
z
" id="DejaVuSans-110"/>
      </defs>
      <use xlink:href="#DejaVuSans-86"/>
      <use x="66.158203" xlink:href="#DejaVuSans-105"/>
      <use x="93.941406" xlink:href="#DejaVuSans-110"/>
      <use x="157.320312" xlink:href="#DejaVuSans-32"/>
      <use x="189.107422" xlink:href="#DejaVuSans-91"/>
      <use x="228.121094" xlink:href="#DejaVuSans-86"/>
      <use x="296.529297" xlink:href="#DejaVuSans-93"/>
     </g>
    </g>
    <g id="line2d_16">
     <path d="M 50.366813 80.010312 
L 70.366813 80.010312 
" style="fill:none;stroke:#ff0000;stroke-linecap:square;stroke-width:1.5;"/>
    </g>
    <g id="line2d_17"/>
    <g id="text_15">
     <!-- Vout (R2=100 kΩ) -->
     <g transform="translate(78.366813 83.510312)scale(0.1 -0.1)">
      <defs>
       <path d="M 30.609375 48.390625 
Q 23.390625 48.390625 19.1875 42.75 
Q 14.984375 37.109375 14.984375 27.296875 
Q 14.984375 17.484375 19.15625 11.84375 
Q 23.34375 6.203125 30.609375 6.203125 
Q 37.796875 6.203125 41.984375 11.859375 
Q 46.1875 17.53125 46.1875 27.296875 
Q 46.1875 37.015625 41.984375 42.703125 
Q 37.796875 48.390625 30.609375 48.390625 
z
M 30.609375 56 
Q 42.328125 56 49.015625 48.375 
Q 55.71875 40.765625 55.71875 27.296875 
Q 55.71875 13.875 49.015625 6.21875 
Q 42.328125 -1.421875 30.609375 -1.421875 
Q 18.84375 -1.421875 12.171875 6.21875 
Q 5.515625 13.875 5.515625 27.296875 
Q 5.515625 40.765625 12.171875 48.375 
Q 18.84375 56 30.609375 56 
z
" id="DejaVuSans-111"/>
       <path d="M 8.5 21.578125 
L 8.5 54.6875 
L 17.484375 54.6875 
L 17.484375 21.921875 
Q 17.484375 14.15625 20.5 10.265625 
Q 23.53125 6.390625 29.59375 6.390625 
Q 36.859375 6.390625 41.078125 11.03125 
Q 45.3125 15.671875 45.3125 23.6875 
L 45.3125 54.6875 
L 54.296875 54.6875 
L 54.296875 0 
L 45.3125 0 
L 45.3125 8.40625 
Q 42.046875 3.421875 37.71875 1 
Q 33.40625 -1.421875 27.6875 -1.421875 
Q 18.265625 -1.421875 13.375 4.4375 
Q 8.5 10.296875 8.5 21.578125 
z
M 31.109375 56 
z
" id="DejaVuSans-117"/>
       <path d="M 44.390625 34.1875 
Q 47.5625 33.109375 50.5625 29.59375 
Q 53.5625 26.078125 56.59375 19.921875 
L 66.609375 0 
L 56 0 
L 46.6875 18.703125 
Q 43.0625 26.03125 39.671875 28.421875 
Q 36.28125 30.8125 30.421875 30.8125 
L 19.671875 30.8125 
L 19.671875 0 
L 9.8125 0 
L 9.8125 72.90625 
L 32.078125 72.90625 
Q 44.578125 72.90625 50.734375 67.671875 
Q 56.890625 62.453125 56.890625 51.90625 
Q 56.890625 45.015625 53.6875 40.46875 
Q 50.484375 35.9375 44.390625 34.1875 
z
M 19.671875 64.796875 
L 19.671875 38.921875 
L 32.078125 38.921875 
Q 39.203125 38.921875 42.84375 42.21875 
Q 46.484375 45.515625 46.484375 51.90625 
Q 46.484375 58.296875 42.84375 61.546875 
Q 39.203125 64.796875 32.078125 64.796875 
z
" id="DejaVuSans-82"/>
       <path d="M 10.59375 45.40625 
L 73.1875 45.40625 
L 73.1875 37.203125 
L 10.59375 37.203125 
z
M 10.59375 25.484375 
L 73.1875 25.484375 
L 73.1875 17.1875 
L 10.59375 17.1875 
z
" id="DejaVuSans-61"/>
       <path d="M 9.078125 75.984375 
L 18.109375 75.984375 
L 18.109375 31.109375 
L 44.921875 54.6875 
L 56.390625 54.6875 
L 27.390625 29.109375 
L 57.625 0 
L 45.90625 0 
L 18.109375 26.703125 
L 18.109375 0 
L 9.078125 0 
z
" id="DejaVuSans-107"/>
       <path d="M 72.609375 8.6875 
L 72.609375 0 
L 43.3125 0 
L 43.3125 8.6875 
Q 51.953125 13.421875 56.78125 21.53125 
Q 61.625 29.640625 61.625 39.5 
Q 61.625 51.21875 55.171875 58.296875 
Q 48.734375 65.375 38.1875 65.375 
Q 27.640625 65.375 21.171875 58.265625 
Q 14.703125 51.171875 14.703125 39.5 
Q 14.703125 29.640625 19.53125 21.53125 
Q 24.421875 13.421875 33.109375 8.6875 
L 33.109375 0 
L 3.8125 0 
L 3.8125 8.6875 
L 19.390625 8.6875 
Q 11.671875 15.484375 8.109375 22.75 
Q 4.59375 30.03125 4.59375 39.015625 
Q 4.59375 54.546875 13.96875 64.15625 
Q 23.296875 73.78125 38.1875 73.78125 
Q 52.984375 73.78125 62.40625 64.15625 
Q 71.78125 54.59375 71.78125 39.5 
Q 71.78125 30.03125 68.3125 22.796875 
Q 64.84375 15.578125 56.984375 8.6875 
z
" id="DejaVuSans-937"/>
      </defs>
      <use xlink:href="#DejaVuSans-86"/>
      <use x="60.658203" xlink:href="#DejaVuSans-111"/>
      <use x="121.839844" xlink:href="#DejaVuSans-117"/>
      <use x="185.21875" xlink:href="#DejaVuSans-116"/>
      <use x="224.427734" xlink:href="#DejaVuSans-32"/>
      <use x="256.214844" xlink:href="#DejaVuSans-40"/>
      <use x="295.228516" xlink:href="#DejaVuSans-82"/>
      <use x="364.710938" xlink:href="#DejaVuSans-50"/>
      <use x="428.333984" xlink:href="#DejaVuSans-61"/>
      <use x="512.123047" xlink:href="#DejaVuSans-49"/>
      <use x="575.746094" xlink:href="#DejaVuSans-48"/>
      <use x="639.369141" xlink:href="#DejaVuSans-48"/>
      <use x="702.992188" xlink:href="#DejaVuSans-32"/>
      <use x="734.779297" xlink:href="#DejaVuSans-107"/>
      <use x="792.689453" xlink:href="#DejaVuSans-937"/>
      <use x="869.105469" xlink:href="#DejaVuSans-41"/>
     </g>
    </g>
   </g>
  </g>
 </g>
 <defs>
  <clipPath id="p2c9ce3db52">
   <rect height="235.4" width="374.65" x="42.620313" y="7.2"/>
  </clipPath>
 </defs>
</svg>
