<?xml version="1.0" encoding="utf-8" standalone="no"?>
<!DOCTYPE svg PUBLIC "-//W3C//DTD SVG 1.1//EN"
  "http://www.w3.org/Graphics/SVG/1.1/DTD/svg11.dtd">
<svg height="304.93pt" version="1.1" viewBox="0 0 319.7778 304.93" width="319.7778pt" xmlns="http://www.w3.org/2000/svg" xmlns:xlink="http://www.w3.org/1999/xlink">
 <metadata>
  <rdf:RDF xmlns:cc="http://creativecommons.org/ns#" xmlns:dc="http://purl.org/dc/elements/1.1/" xmlns:rdf="http://www.w3.org/1999/02/22-rdf-syntax-ns#">
   <cc:Work>
    <dc:type rdf:resource="http://purl.org/dc/dcmitype/StillImage"/>
    <dc:date>2021-05-24T10:18:11.281205</dc:date>
    <dc:format>image/svg+xml</dc:format>
    <dc:creator>
     <cc:Agent>
      <dc:title>Matplotlib v3.4.2, https://matplotlib.org/</dc:title>
     </cc:Agent>
    </dc:creator>
   </cc:Work>
  </rdf:RDF>
 </metadata>
 <defs>
  <style type="text/css">*{stroke-linecap:butt;stroke-linejoin:round;}</style>
 </defs>
 <g id="figure_1">
  <g id="patch_1">
   <path d="M 0 304.93 
L 319.7778 304.93 
L 319.7778 0 
L 0 0 
z
" style="fill:none;"/>
  </g>
  <g id="axes_1">
   <g id="patch_2">
    <path clip-path="url(#p5aee9c0f25)" d="M 139.6368 93.118 
L 150.3468 100.768 
L 139.6368 108.418 
z
" style="fill:none;stroke:#000000;stroke-linecap:round;stroke-width:0.9;"/>
   </g>
   <g id="patch_3">
    <path clip-path="url(#p5aee9c0f25)" d="M 219.1968 117.598 
C 223.660168 117.598 227.941329 115.824685 231.097407 112.668607 
C 234.253485 109.512529 236.0268 105.231368 236.0268 100.768 
C 236.0268 96.304632 234.253485 92.023471 231.097407 88.867393 
C 227.941329 85.711315 223.660168 83.938 219.1968 83.938 
C 214.733432 83.938 210.452271 85.711315 207.296193 88.867393 
C 204.140115 92.023471 202.3668 96.304632 202.3668 100.768 
C 202.3668 105.231368 204.140115 109.512529 207.296193 112.668607 
C 210.452271 115.824685 214.733432 117.598 219.1968 117.598 
z
" style="fill:none;stroke:#000000;stroke-linejoin:miter;stroke-width:0.9;"/>
   </g>
   <g id="patch_4">
    <path clip-path="url(#p5aee9c0f25)" d="M 222.712571 110.169832 
L 225.3678 116.476 
L 218.729728 114.816482 
z
"/>
   </g>
   <g id="patch_5">
    <path clip-path="url(#p5aee9c0f25)" d="M 233.0178 154.981 
L 225.3678 165.691 
L 217.7178 154.981 
z
" style="fill:none;stroke:#000000;stroke-linecap:round;stroke-width:0.9;"/>
   </g>
   <g id="patch_6">
    <path clip-path="url(#p5aee9c0f25)" d="M 246.1312 165.11917 
L 250.2303 170.281 
L 243.702104 169.370089 
z
"/>
   </g>
   <g id="patch_7">
    <path clip-path="url(#p5aee9c0f25)" d="M 246.1312 158.23417 
L 250.2303 163.396 
L 243.702104 162.485089 
z
"/>
   </g>
   <g id="line2d_1">
    <path clip-path="url(#p5aee9c0f25)" d="M 30.2418 100.768 
L 53.1918 100.768 
L 55.7418 93.118 
L 60.8418 108.418 
L 65.9418 93.118 
L 71.0418 108.418 
L 76.1418 93.118 
L 81.2418 108.418 
L 83.7918 100.768 
L 106.7418 100.768 
" style="fill:none;stroke:#000000;stroke-linecap:round;stroke-width:0.9;"/>
   </g>
   <g id="line2d_2">
    <path clip-path="url(#p5aee9c0f25)" d="M 106.7418 100.768 
L 139.6368 100.768 
M 150.3468 93.118 
L 150.3468 108.418 
M 150.3468 100.768 
L 183.2418 100.768 
" style="fill:none;stroke:#000000;stroke-linecap:round;stroke-width:0.9;"/>
   </g>
   <g id="line2d_3">
    <path clip-path="url(#p5aee9c0f25)" d="M 183.2418 100.768 
L 192.8043 100.768 
L 202.3668 100.768 
" style="fill:none;stroke:#000000;stroke-linecap:round;stroke-width:0.9;"/>
   </g>
   <g id="line2d_4">
    <path clip-path="url(#p5aee9c0f25)" d="M 202.3668 100.768 
L 213.5868 100.768 
" style="fill:none;stroke:#000000;stroke-linecap:round;stroke-width:0.9;"/>
   </g>
   <g id="line2d_5">
    <path clip-path="url(#p5aee9c0f25)" d="M 213.5868 89.548 
L 213.5868 111.988 
" style="fill:none;stroke:#000000;stroke-linecap:round;stroke-width:0.9;"/>
   </g>
   <g id="line2d_6">
    <path clip-path="url(#p5aee9c0f25)" d="M 213.5868 95.158 
L 225.3678 85.06 
L 225.3678 79.45 
" style="fill:none;stroke:#000000;stroke-linecap:round;stroke-width:0.9;"/>
   </g>
   <g id="line2d_7">
    <path clip-path="url(#p5aee9c0f25)" d="M 213.5868 106.378 
L 225.3678 116.476 
L 225.3678 122.086 
" style="fill:none;stroke:#000000;stroke-linecap:round;stroke-width:0.9;"/>
   </g>
   <g id="line2d_8">
    <path clip-path="url(#p5aee9c0f25)" d="M 213.5868 106.378 
L 220.72115 112.493157 
" style="fill:none;stroke:#000000;stroke-linecap:square;stroke-width:0.9;"/>
   </g>
   <g id="line2d_9">
    <path clip-path="url(#p5aee9c0f25)" d="M 183.2418 100.768 
L 183.2418 136.264 
M 190.8918 136.264 
L 175.5918 136.264 
M 190.8918 141.772 
L 175.5918 141.772 
M 183.2418 141.772 
L 183.2418 177.268 
" style="fill:none;stroke:#000000;stroke-linecap:round;stroke-width:0.9;"/>
   </g>
   <g id="line2d_10">
    <path clip-path="url(#p5aee9c0f25)" d="M 183.2418 177.268 
L 183.2418 189.508 
L 175.5918 189.508 
L 190.8918 189.508 
M 177.8868 193.18 
L 188.5968 193.18 
M 181.7118 196.852 
L 184.7718 196.852 
" style="fill:none;stroke:#000000;stroke-linecap:round;stroke-width:0.9;"/>
   </g>
   <g id="line2d_11">
    <path clip-path="url(#p5aee9c0f25)" d="M 225.3678 122.086 
L 225.3678 154.981 
M 233.0178 165.691 
L 217.7178 165.691 
M 225.3678 165.691 
L 225.3678 198.586 
" style="fill:none;stroke:#000000;stroke-linecap:round;stroke-width:0.9;"/>
   </g>
   <g id="line2d_12">
    <path clip-path="url(#p5aee9c0f25)" d="M 236.8428 162.631 
L 244.916652 167.24463 
" style="fill:none;stroke:#000000;stroke-linecap:square;stroke-width:0.9;"/>
   </g>
   <g id="line2d_13">
    <path clip-path="url(#p5aee9c0f25)" d="M 236.8428 155.746 
L 244.916652 160.35963 
" style="fill:none;stroke:#000000;stroke-linecap:square;stroke-width:0.9;"/>
   </g>
   <g id="line2d_14">
    <path clip-path="url(#p5aee9c0f25)" d="M 225.3678 198.586 
L 225.3678 221.536 
L 233.0178 224.086 
L 217.7178 229.186 
L 233.0178 234.286 
L 217.7178 239.386 
L 233.0178 244.486 
L 217.7178 249.586 
L 225.3678 252.136 
L 225.3678 275.086 
" style="fill:none;stroke:#000000;stroke-linecap:round;stroke-width:0.9;"/>
   </g>
   <g id="line2d_15">
    <path clip-path="url(#p5aee9c0f25)" d="M 225.3678 275.086 
L 225.3678 287.326 
L 217.7178 287.326 
L 233.0178 287.326 
M 220.0128 290.998 
L 230.7228 290.998 
M 223.8378 294.67 
L 226.8978 294.67 
" style="fill:none;stroke:#000000;stroke-linecap:round;stroke-width:0.9;"/>
   </g>
   <g id="line2d_16">
    <path clip-path="url(#p5aee9c0f25)" d="M 225.3678 79.45 
L 225.3678 69.8875 
L 225.3678 60.325 
" style="fill:none;stroke:#000000;stroke-linecap:round;stroke-width:0.9;"/>
   </g>
   <g id="line2d_17">
    <path clip-path="url(#p5aee9c0f25)" d="M 225.3678 60.325 
L 225.3678 50.7625 
L 225.3678 41.2 
" style="fill:none;stroke:#000000;stroke-linecap:round;stroke-width:0.9;"/>
   </g>
   <g id="line2d_18">
    <path clip-path="url(#p5aee9c0f25)" d="M 225.3678 41.2 
L 225.3678 28.96 
" style="fill:none;stroke:#000000;stroke-linecap:round;stroke-width:0.9;"/>
   </g>
   <g id="line2d_19">
    <path clip-path="url(#p5aee9c0f25)" d="M 225.3678 28.96 
L 219.6303 28.96 
" style="fill:none;stroke:#000000;stroke-linecap:round;stroke-width:0.9;"/>
   </g>
   <g id="line2d_20">
    <path clip-path="url(#p5aee9c0f25)" d="M 225.3678 28.96 
L 231.1053 28.96 
" style="fill:none;stroke:#000000;stroke-linecap:round;stroke-width:0.9;"/>
   </g>
   <g id="line2d_21">
    <path clip-path="url(#p5aee9c0f25)" d="M 225.3678 60.325 
L 260.8638 60.325 
M 260.8638 52.675 
L 260.8638 67.975 
M 266.3718 52.675 
L 266.3718 67.975 
M 266.3718 60.325 
L 301.8678 60.325 
" style="fill:none;stroke:#000000;stroke-linecap:round;stroke-width:0.9;"/>
   </g>
   <g id="line2d_22">
    <path clip-path="url(#p5aee9c0f25)" d="M 301.8678 60.325 
L 301.8678 72.565 
L 294.2178 72.565 
L 309.5178 72.565 
M 296.5128 76.237 
L 307.2228 76.237 
M 300.3378 79.909 
L 303.3978 79.909 
" style="fill:none;stroke:#000000;stroke-linecap:round;stroke-width:0.9;"/>
   </g>
   <g id="text_1">
    <!-- $R_1$ -->
    <g transform="translate(60.3018 71.4695)scale(0.14 -0.14)">
     <defs>
      <path d="M 1613 4147 
L 1294 2491 
L 2106 2491 
Q 2584 2491 2879 2755 
Q 3175 3019 3175 3444 
Q 3175 3784 2976 3965 
Q 2778 4147 2406 4147 
L 1613 4147 
z
M 2772 2241 
Q 2972 2194 3105 2009 
Q 3238 1825 3413 1275 
L 3809 0 
L 3144 0 
L 2778 1197 
Q 2638 1659 2453 1815 
Q 2269 1972 1888 1972 
L 1191 1972 
L 806 0 
L 172 0 
L 1081 4666 
L 2503 4666 
Q 3150 4666 3495 4373 
Q 3841 4081 3841 3531 
Q 3841 3044 3547 2687 
Q 3253 2331 2772 2241 
z
" id="DejaVuSans-Oblique-52" transform="scale(0.015625)"/>
      <path d="M 794 531 
L 1825 531 
L 1825 4091 
L 703 3866 
L 703 4441 
L 1819 4666 
L 2450 4666 
L 2450 531 
L 3481 531 
L 3481 0 
L 794 0 
L 794 531 
z
" id="DejaVuSans-31" transform="scale(0.015625)"/>
     </defs>
     <use transform="translate(0 0.09375)" xlink:href="#DejaVuSans-Oblique-52"/>
     <use transform="translate(69.482422 -16.3125)scale(0.7)" xlink:href="#DejaVuSans-31"/>
    </g>
    <!-- 12k -->
    <g transform="translate(55.530862 87.146437)scale(0.14 -0.14)">
     <defs>
      <path d="M 1228 531 
L 3431 531 
L 3431 0 
L 469 0 
L 469 531 
Q 828 903 1448 1529 
Q 2069 2156 2228 2338 
Q 2531 2678 2651 2914 
Q 2772 3150 2772 3378 
Q 2772 3750 2511 3984 
Q 2250 4219 1831 4219 
Q 1534 4219 1204 4116 
Q 875 4013 500 3803 
L 500 4441 
Q 881 4594 1212 4672 
Q 1544 4750 1819 4750 
Q 2544 4750 2975 4387 
Q 3406 4025 3406 3419 
Q 3406 3131 3298 2873 
Q 3191 2616 2906 2266 
Q 2828 2175 2409 1742 
Q 1991 1309 1228 531 
z
" id="DejaVuSans-32" transform="scale(0.015625)"/>
      <path d="M 581 4863 
L 1159 4863 
L 1159 1991 
L 2875 3500 
L 3609 3500 
L 1753 1863 
L 3688 0 
L 2938 0 
L 1159 1709 
L 1159 0 
L 581 0 
L 581 4863 
z
" id="DejaVuSans-6b" transform="scale(0.015625)"/>
     </defs>
     <use xlink:href="#DejaVuSans-31"/>
     <use x="63.623047" xlink:href="#DejaVuSans-32"/>
     <use x="127.246094" xlink:href="#DejaVuSans-6b"/>
    </g>
   </g>
   <g id="text_2">
    <!-- $D_1$ -->
    <g transform="translate(136.2418 87.146437)scale(0.14 -0.14)">
     <defs>
      <path d="M 1081 4666 
L 2438 4666 
Q 3519 4666 4070 4208 
Q 4622 3750 4622 2847 
Q 4622 2250 4412 1698 
Q 4203 1147 3834 769 
Q 3463 381 2891 190 
Q 2319 0 1538 0 
L 172 0 
L 1081 4666 
z
M 1613 4147 
L 909 519 
L 1734 519 
Q 2794 519 3375 1128 
Q 3956 1738 3956 2847 
Q 3956 3519 3581 3833 
Q 3206 4147 2406 4147 
L 1613 4147 
z
" id="DejaVuSans-Oblique-44" transform="scale(0.015625)"/>
     </defs>
     <use transform="translate(0 0.09375)" xlink:href="#DejaVuSans-Oblique-44"/>
     <use transform="translate(77.001953 -16.3125)scale(0.7)" xlink:href="#DejaVuSans-31"/>
    </g>
   </g>
   <g id="text_3">
    <!-- $Q_1$ -->
    <g transform="translate(239.0868 104.886125)scale(0.14 -0.14)">
     <defs>
      <path d="M 2309 -84 
Q 2275 -88 2237 -89 
Q 2200 -91 2125 -91 
Q 1250 -91 756 411 
Q 263 913 263 1797 
Q 263 2319 452 2844 
Q 641 3369 978 3788 
Q 1369 4269 1858 4509 
Q 2347 4750 2938 4750 
Q 3794 4750 4287 4245 
Q 4781 3741 4781 2869 
Q 4781 1928 4265 1147 
Q 3750 366 2919 44 
L 3553 -825 
L 2847 -825 
L 2309 -84 
z
M 2919 4238 
Q 2400 4238 2003 3986 
Q 1606 3734 1313 3219 
Q 1125 2891 1026 2522 
Q 928 2153 928 1778 
Q 928 1128 1239 775 
Q 1550 422 2119 422 
Q 2631 422 3032 676 
Q 3434 931 3719 1434 
Q 3909 1772 4009 2142 
Q 4109 2513 4109 2881 
Q 4109 3528 3796 3883 
Q 3484 4238 2919 4238 
z
" id="DejaVuSans-Oblique-51" transform="scale(0.015625)"/>
     </defs>
     <use transform="translate(0 0.78125)" xlink:href="#DejaVuSans-Oblique-51"/>
     <use transform="translate(78.710938 -15.625)scale(0.7)" xlink:href="#DejaVuSans-31"/>
    </g>
   </g>
   <g id="text_4">
    <!-- $C_1$ -->
    <g transform="translate(156.0118 135.042656)scale(0.14 -0.14)">
     <defs>
      <path d="M 4447 4306 
L 4319 3641 
Q 4019 3944 3683 4091 
Q 3347 4238 2956 4238 
Q 2422 4238 2017 3981 
Q 1613 3725 1319 3200 
Q 1131 2863 1032 2486 
Q 934 2109 934 1728 
Q 934 1091 1264 756 
Q 1594 422 2222 422 
Q 2656 422 3056 561 
Q 3456 700 3834 978 
L 3688 231 
Q 3316 72 2936 -9 
Q 2556 -91 2175 -91 
Q 1278 -91 773 396 
Q 269 884 269 1753 
Q 269 2309 461 2846 
Q 653 3384 1013 3828 
Q 1394 4300 1883 4525 
Q 2372 4750 3022 4750 
Q 3422 4750 3780 4639 
Q 4138 4528 4447 4306 
z
" id="DejaVuSans-Oblique-43" transform="scale(0.015625)"/>
     </defs>
     <use transform="translate(0 0.78125)" xlink:href="#DejaVuSans-Oblique-43"/>
     <use transform="translate(69.824219 -15.625)scale(0.7)" xlink:href="#DejaVuSans-31"/>
    </g>
    <!-- 100n -->
    <g transform="translate(136.9368 150.719594)scale(0.14 -0.14)">
     <defs>
      <path d="M 2034 4250 
Q 1547 4250 1301 3770 
Q 1056 3291 1056 2328 
Q 1056 1369 1301 889 
Q 1547 409 2034 409 
Q 2525 409 2770 889 
Q 3016 1369 3016 2328 
Q 3016 3291 2770 3770 
Q 2525 4250 2034 4250 
z
M 2034 4750 
Q 2819 4750 3233 4129 
Q 3647 3509 3647 2328 
Q 3647 1150 3233 529 
Q 2819 -91 2034 -91 
Q 1250 -91 836 529 
Q 422 1150 422 2328 
Q 422 3509 836 4129 
Q 1250 4750 2034 4750 
z
" id="DejaVuSans-30" transform="scale(0.015625)"/>
      <path d="M 3513 2113 
L 3513 0 
L 2938 0 
L 2938 2094 
Q 2938 2591 2744 2837 
Q 2550 3084 2163 3084 
Q 1697 3084 1428 2787 
Q 1159 2491 1159 1978 
L 1159 0 
L 581 0 
L 581 3500 
L 1159 3500 
L 1159 2956 
Q 1366 3272 1645 3428 
Q 1925 3584 2291 3584 
Q 2894 3584 3203 3211 
Q 3513 2838 3513 2113 
z
" id="DejaVuSans-6e" transform="scale(0.015625)"/>
     </defs>
     <use xlink:href="#DejaVuSans-31"/>
     <use x="63.623047" xlink:href="#DejaVuSans-30"/>
     <use x="127.246094" xlink:href="#DejaVuSans-30"/>
     <use x="190.869141" xlink:href="#DejaVuSans-6e"/>
    </g>
   </g>
   <g id="text_5">
    <!-- $D_1$ -->
    <g transform="translate(258.1863 164.199125)scale(0.14 -0.14)">
     <use transform="translate(0 0.09375)" xlink:href="#DejaVuSans-Oblique-44"/>
     <use transform="translate(77.001953 -16.3125)scale(0.7)" xlink:href="#DejaVuSans-31"/>
    </g>
   </g>
   <g id="text_6">
    <!-- $R_2$ -->
    <g transform="translate(198.2778 232.860656)scale(0.14 -0.14)">
     <use transform="translate(0 0.09375)" xlink:href="#DejaVuSans-Oblique-52"/>
     <use transform="translate(69.482422 -16.3125)scale(0.7)" xlink:href="#DejaVuSans-32"/>
    </g>
    <!-- 470 -->
    <g transform="translate(187.9353 248.537594)scale(0.14 -0.14)">
     <defs>
      <path d="M 2419 4116 
L 825 1625 
L 2419 1625 
L 2419 4116 
z
M 2253 4666 
L 3047 4666 
L 3047 1625 
L 3713 1625 
L 3713 1100 
L 3047 1100 
L 3047 0 
L 2419 0 
L 2419 1100 
L 313 1100 
L 313 1709 
L 2253 4666 
z
" id="DejaVuSans-34" transform="scale(0.015625)"/>
      <path d="M 525 4666 
L 3525 4666 
L 3525 4397 
L 1831 0 
L 1172 0 
L 2766 4134 
L 525 4134 
L 525 4666 
z
" id="DejaVuSans-37" transform="scale(0.015625)"/>
     </defs>
     <use xlink:href="#DejaVuSans-34"/>
     <use x="63.623047" xlink:href="#DejaVuSans-37"/>
     <use x="127.246094" xlink:href="#DejaVuSans-30"/>
    </g>
   </g>
   <g id="text_7">
    <!-- +15V -->
    <g transform="translate(205.806081 22.988437)scale(0.14 -0.14)">
     <defs>
      <path d="M 2944 4013 
L 2944 2272 
L 4684 2272 
L 4684 1741 
L 2944 1741 
L 2944 0 
L 2419 0 
L 2419 1741 
L 678 1741 
L 678 2272 
L 2419 2272 
L 2419 4013 
L 2944 4013 
z
" id="DejaVuSans-2b" transform="scale(0.015625)"/>
      <path d="M 691 4666 
L 3169 4666 
L 3169 4134 
L 1269 4134 
L 1269 2991 
Q 1406 3038 1543 3061 
Q 1681 3084 1819 3084 
Q 2600 3084 3056 2656 
Q 3513 2228 3513 1497 
Q 3513 744 3044 326 
Q 2575 -91 1722 -91 
Q 1428 -91 1123 -41 
Q 819 9 494 109 
L 494 744 
Q 775 591 1075 516 
Q 1375 441 1709 441 
Q 2250 441 2565 725 
Q 2881 1009 2881 1497 
Q 2881 1984 2565 2268 
Q 2250 2553 1709 2553 
Q 1456 2553 1204 2497 
Q 953 2441 691 2322 
L 691 4666 
z
" id="DejaVuSans-35" transform="scale(0.015625)"/>
      <path d="M 1831 0 
L 50 4666 
L 709 4666 
L 2188 738 
L 3669 4666 
L 4325 4666 
L 2547 0 
L 1831 0 
z
" id="DejaVuSans-56" transform="scale(0.015625)"/>
     </defs>
     <use xlink:href="#DejaVuSans-2b"/>
     <use x="83.789062" xlink:href="#DejaVuSans-31"/>
     <use x="147.412109" xlink:href="#DejaVuSans-35"/>
     <use x="211.035156" xlink:href="#DejaVuSans-56"/>
    </g>
   </g>
   <g id="text_8">
    <!-- $C_2$ -->
    <g transform="translate(255.3578 31.0265)scale(0.14 -0.14)">
     <use transform="translate(0 0.78125)" xlink:href="#DejaVuSans-Oblique-43"/>
     <use transform="translate(69.824219 -15.625)scale(0.7)" xlink:href="#DejaVuSans-32"/>
    </g>
    <!-- 100n -->
    <g transform="translate(245.8203 46.703437)scale(0.14 -0.14)">
     <use xlink:href="#DejaVuSans-31"/>
     <use x="63.623047" xlink:href="#DejaVuSans-30"/>
     <use x="127.246094" xlink:href="#DejaVuSans-30"/>
     <use x="190.869141" xlink:href="#DejaVuSans-6e"/>
    </g>
   </g>
   <g id="patch_8">
    <path clip-path="url(#p5aee9c0f25)" d="M 30.2418 103.063 
C 30.850441 103.063 31.434236 102.821184 31.86461 102.39081 
C 32.294984 101.960436 32.5368 101.376641 32.5368 100.768 
C 32.5368 100.159359 32.294984 99.575564 31.86461 99.14519 
C 31.434236 98.714816 30.850441 98.473 30.2418 98.473 
C 29.633159 98.473 29.049364 98.714816 28.61899 99.14519 
C 28.188616 99.575564 27.9468 100.159359 27.9468 100.768 
C 27.9468 101.376641 28.188616 101.960436 28.61899 102.39081 
C 29.049364 102.821184 29.633159 103.063 30.2418 103.063 
z
" style="fill:#ffffff;stroke:#000000;stroke-linejoin:miter;stroke-width:0.9;"/>
   </g>
   <g id="patch_9">
    <path clip-path="url(#p5aee9c0f25)" d="M 183.2418 103.063 
C 183.850441 103.063 184.434236 102.821184 184.86461 102.39081 
C 185.294984 101.960436 185.5368 101.376641 185.5368 100.768 
C 185.5368 100.159359 185.294984 99.575564 184.86461 99.14519 
C 184.434236 98.714816 183.850441 98.473 183.2418 98.473 
C 182.633159 98.473 182.049364 98.714816 181.61899 99.14519 
C 181.188616 99.575564 180.9468 100.159359 180.9468 100.768 
C 180.9468 101.376641 181.188616 101.960436 181.61899 102.39081 
C 182.049364 102.821184 182.633159 103.063 183.2418 103.063 
z
" style="stroke:#000000;stroke-linejoin:miter;stroke-width:0.9;"/>
   </g>
   <g id="patch_10">
    <path clip-path="url(#p5aee9c0f25)" d="M 225.3678 62.62 
C 225.976441 62.62 226.560236 62.378184 226.99061 61.94781 
C 227.420984 61.517436 227.6628 60.933641 227.6628 60.325 
C 227.6628 59.716359 227.420984 59.132564 226.99061 58.70219 
C 226.560236 58.271816 225.976441 58.03 225.3678 58.03 
C 224.759159 58.03 224.175364 58.271816 223.74499 58.70219 
C 223.314616 59.132564 223.0728 59.716359 223.0728 60.325 
C 223.0728 60.933641 223.314616 61.517436 223.74499 61.94781 
C 224.175364 62.378184 224.759159 62.62 225.3678 62.62 
z
" style="stroke:#000000;stroke-linejoin:miter;stroke-width:0.9;"/>
   </g>
   <g id="text_9">
    <!-- IN -->
    <g transform="translate(10.28305 104.631125)scale(0.14 -0.14)">
     <defs>
      <path d="M 628 4666 
L 1259 4666 
L 1259 0 
L 628 0 
L 628 4666 
z
" id="DejaVuSans-49" transform="scale(0.015625)"/>
      <path d="M 628 4666 
L 1478 4666 
L 3547 763 
L 3547 4666 
L 4159 4666 
L 4159 0 
L 3309 0 
L 1241 3903 
L 1241 0 
L 628 0 
L 628 4666 
z
" id="DejaVuSans-4e" transform="scale(0.015625)"/>
     </defs>
     <use xlink:href="#DejaVuSans-49"/>
     <use x="29.492188" xlink:href="#DejaVuSans-4e"/>
    </g>
   </g>
  </g>
 </g>
 <defs>
  <clipPath id="p5aee9c0f25">
   <rect height="290.53" width="305.3778" x="7.2" y="7.2"/>
  </clipPath>
 </defs>
</svg>
