<?xml version="1.0" standalone="no"?>
 <!DOCTYPE svg PUBLIC "-//W3C//DTD SVG 1.1//EN" 
 "http://www.w3.org/Graphics/SVG/1.1/DTD/svg11.dtd"> 
<svg
  xmlns:svg="http://www.w3.org/2000/svg"
  xmlns="http://www.w3.org/2000/svg"
  xmlns:xlink="http://www.w3.org/1999/xlink"
  version="1.1"
  width="297.0022mm" height="210.0072mm" viewBox="0.0000 0.0000 297.0022 210.0072">
<title>SVG Image created as main-F_CrtYd.svg date 2023/11/07 21:19:06 </title>
  <desc>Image generated by PCBNEW </desc>
<g style="fill:#000000; fill-opacity:1.0000;stroke:#000000; stroke-opacity:1.0000;
stroke-linecap:round; stroke-linejoin:round;"
 transform="translate(0 0) scale(1 1)">
</g>
<g style="fill:#000000; fill-opacity:0.0; 
stroke:#000000; stroke-width:0.0000; stroke-opacity:1; 
stroke-linecap:round; stroke-linejoin:round;">
</g>
<g style="fill:#000000; fill-opacity:0.0; 
stroke:#000000; stroke-width:0.0500; stroke-opacity:1; 
stroke-linecap:round; stroke-linejoin:round;">
<path d="M54.4600 55.9600
L68.8600 55.9600
" />
<path d="M68.8600 65.9600
L68.8600 55.9600
" />
<path d="M54.4600 65.9600
L54.4600 55.9600
" />
<path d="M54.4600 65.9600
L68.8600 65.9600
" />
<path d="M54.4600 76.2800
L68.8600 76.2800
" />
<path d="M68.8600 86.2800
L68.8600 76.2800
" />
<path d="M54.4600 86.2800
L54.4600 76.2800
" />
<path d="M54.4600 86.2800
L68.8600 86.2800
" />
<path d="M54.4600 96.6000
L68.8600 96.6000
" />
<path d="M68.8600 106.6000
L68.8600 96.6000
" />
<path d="M54.4600 106.6000
L54.4600 96.6000
" />
<path d="M54.4600 106.6000
L68.8600 106.6000
" />
<path d="M54.4600 116.9200
L68.8600 116.9200
" />
<path d="M68.8600 126.9200
L68.8600 116.9200
" />
<path d="M54.4600 126.9200
L54.4600 116.9200
" />
<path d="M54.4600 126.9200
L68.8600 126.9200
" />
<path d="M54.4600 66.1200
L68.8600 66.1200
" />
<path d="M68.8600 76.1200
L68.8600 66.1200
" />
<path d="M54.4600 76.1200
L54.4600 66.1200
" />
<path d="M54.4600 76.1200
L68.8600 76.1200
" />
<path d="M54.4600 86.4400
L68.8600 86.4400
" />
<path d="M68.8600 96.4400
L68.8600 86.4400
" />
<path d="M54.4600 96.4400
L54.4600 86.4400
" />
<path d="M54.4600 96.4400
L68.8600 96.4400
" />
<path d="M54.4600 106.7600
L68.8600 106.7600
" />
<path d="M68.8600 116.7600
L68.8600 106.7600
" />
<path d="M54.4600 116.7600
L54.4600 106.7600
" />
<path d="M54.4600 116.7600
L68.8600 116.7600
" />
<path d="M54.4600 127.0800
L68.8600 127.0800
" />
<path d="M68.8600 137.0800
L68.8600 127.0800
" />
<path d="M54.4600 137.0800
L54.4600 127.0800
" />
<path d="M54.4600 137.0800
L68.8600 137.0800
" />
<path d="M76.2800 153.8200
L76.2800 139.4200
" />
<path d="M86.2800 139.4200
L76.2800 139.4200
" />
<path d="M86.2800 153.8200
L76.2800 153.8200
" />
<path d="M86.2800 153.8200
L86.2800 139.4200
" />
<path d="M74.8300 74.6900
L87.6500 74.6900
" />
<path d="M87.6500 74.6900
L87.6500 60.9400
" />
<path d="M74.8300 60.9400
L74.8300 74.6900
" />
<path d="M87.6500 60.9400
L74.8300 60.9400
" />
<path d="M74.8300 95.0100
L87.6500 95.0100
" />
<path d="M87.6500 95.0100
L87.6500 81.2600
" />
<path d="M74.8300 81.2600
L74.8300 95.0100
" />
<path d="M87.6500 81.2600
L74.8300 81.2600
" />
<path d="M74.8300 115.3300
L87.6500 115.3300
" />
<path d="M87.6500 115.3300
L87.6500 101.5800
" />
<path d="M74.8300 101.5800
L74.8300 115.3300
" />
<path d="M87.6500 101.5800
L74.8300 101.5800
" />
<path d="M74.8300 135.6500
L87.6500 135.6500
" />
<path d="M87.6500 135.6500
L87.6500 121.9000
" />
<path d="M74.8300 121.9000
L74.8300 135.6500
" />
<path d="M87.6500 121.9000
L74.8300 121.9000
" />
<path d="M78.8600 153.9600
L78.8600 158.4600
" />
<path d="M78.8600 158.4600
L83.7100 158.4600
" />
<path d="M83.7100 153.9600
L78.8600 153.9600
" />
<path d="M83.7100 158.4600
L83.7100 153.9600
" />
<path d="M69.3350 63.7900
L69.3350 68.2900
" />
<path d="M69.3350 68.2900
L74.1850 68.2900
" />
<path d="M74.1850 63.7900
L69.3350 63.7900
" />
<path d="M74.1850 68.2900
L74.1850 63.7900
" />
<path d="M69.3350 104.4300
L69.3350 108.9300
" />
<path d="M69.3350 108.9300
L74.1850 108.9300
" />
<path d="M74.1850 104.4300
L69.3350 104.4300
" />
<path d="M74.1850 108.9300
L74.1850 104.4300
" />
<path d="M69.3350 84.1100
L69.3350 88.6100
" />
<path d="M69.3350 88.6100
L74.1850 88.6100
" />
<path d="M74.1850 84.1100
L69.3350 84.1100
" />
<path d="M74.1850 88.6100
L74.1850 84.1100
" />
<path d="M69.3350 124.7500
L69.3350 129.2500
" />
<path d="M69.3350 129.2500
L74.1850 129.2500
" />
<path d="M74.1850 124.7500
L69.3350 124.7500
" />
<path d="M74.1850 129.2500
L74.1850 124.7500
" />
<g >
</g>
<g >
</g>
<g >
</g>
<g >
</g>
<g >
</g>
<g >
</g>
<g >
</g>
<g >
</g>
<g >
</g>
<g >
</g>
<g >
</g>
<g >
</g>
<g >
</g>
<g >
</g>
<g >
</g>
<g >
</g>
<g >
</g>
<g >
</g>
<g >
</g>
<g >
</g>
<g >
</g>
<g >
</g>
<g >
</g>
<g >
</g>
<g >
</g>
<g >
</g>
<g >
</g>
<g >
</g>
<g >
</g>
<g >
</g>
<g >
</g>
<g >
</g>
<g >
</g>
<g >
</g>
<g >
</g>
<g >
</g>
<g >
</g>
<g >
</g>
<g >
</g>
<g >
</g>
<g >
</g>
<g >
</g>
<g >
</g>
<g >
</g>
<g >
</g>
<g >
</g>
<g >
</g>
<g >
</g>
<g >
</g>
<g >
</g>
<g >
</g>
<g >
</g>
<g >
</g>
<g >
</g>
<g >
</g>
<g >
</g>
<g >
</g>
<g >
</g>
<g >
</g>
<g >
</g>
<g >
</g>
<g >
</g>
<g >
</g>
<g >
</g>
<g >
</g>
<g >
</g>
<g >
</g>
<g >
</g>
<g >
</g>
<g >
</g>
<g >
</g>
<g >
</g>
<g >
</g>
<g >
</g>
<g >
</g>
<g >
</g>
<g >
</g>
<g >
</g>
<g >
</g>
<g >
</g>
<g >
</g>
<g >
</g>
</g> 
</svg>
