<?xml version="1.0" encoding="utf-8" standalone="no"?>
<!DOCTYPE svg PUBLIC "-//W3C//DTD SVG 1.1//EN"
  "http://www.w3.org/Graphics/SVG/1.1/DTD/svg11.dtd">
<!-- Created with matplotlib (https://matplotlib.org/) -->
<svg height="278.26025pt" version="1.1" viewBox="0 0 418.623312 278.26025" width="418.623312pt" xmlns="http://www.w3.org/2000/svg" xmlns:xlink="http://www.w3.org/1999/xlink">
 <metadata>
  <rdf:RDF xmlns:cc="http://creativecommons.org/ns#" xmlns:dc="http://purl.org/dc/elements/1.1/" xmlns:rdf="http://www.w3.org/1999/02/22-rdf-syntax-ns#">
   <cc:Work>
    <dc:type rdf:resource="http://purl.org/dc/dcmitype/StillImage"/>
    <dc:date>2021-02-26T16:58:10.838739</dc:date>
    <dc:format>image/svg+xml</dc:format>
    <dc:creator>
     <cc:Agent>
      <dc:title>Matplotlib v3.3.4, https://matplotlib.org/</dc:title>
     </cc:Agent>
    </dc:creator>
   </cc:Work>
  </rdf:RDF>
 </metadata>
 <defs>
  <style type="text/css">*{stroke-linecap:butt;stroke-linejoin:round;}</style>
 </defs>
 <g id="figure_1">
  <g id="patch_1">
   <path d="M 0 278.26025 
L 418.623312 278.26025 
L 418.623312 0 
L 0 0 
z
" style="fill:none;"/>
  </g>
  <g id="axes_1">
   <g id="patch_2">
    <path d="M 42.620313 240.704 
L 411.423312 240.704 
L 411.423312 7.2 
L 42.620313 7.2 
z
" style="fill:#ffffff;"/>
   </g>
   <g id="matplotlib.axis_1">
    <g id="xtick_1">
     <g id="line2d_1">
      <defs>
       <path d="M 0 0 
L 0 3.5 
" id="ma985018913" style="stroke:#000000;stroke-width:0.8;"/>
      </defs>
      <g>
       <use style="stroke:#000000;stroke-width:0.8;" x="59.384085" xlink:href="#ma985018913" y="240.704"/>
      </g>
     </g>
     <g id="text_1">
      <!-- 0.0 -->
      <g transform="translate(51.432523 255.302437)scale(0.1 -0.1)">
       <defs>
        <path d="M 31.78125 66.40625 
Q 24.171875 66.40625 20.328125 58.90625 
Q 16.5 51.421875 16.5 36.375 
Q 16.5 21.390625 20.328125 13.890625 
Q 24.171875 6.390625 31.78125 6.390625 
Q 39.453125 6.390625 43.28125 13.890625 
Q 47.125 21.390625 47.125 36.375 
Q 47.125 51.421875 43.28125 58.90625 
Q 39.453125 66.40625 31.78125 66.40625 
z
M 31.78125 74.21875 
Q 44.046875 74.21875 50.515625 64.515625 
Q 56.984375 54.828125 56.984375 36.375 
Q 56.984375 17.96875 50.515625 8.265625 
Q 44.046875 -1.421875 31.78125 -1.421875 
Q 19.53125 -1.421875 13.0625 8.265625 
Q 6.59375 17.96875 6.59375 36.375 
Q 6.59375 54.828125 13.0625 64.515625 
Q 19.53125 74.21875 31.78125 74.21875 
z
" id="DejaVuSans-48"/>
        <path d="M 10.6875 12.40625 
L 21 12.40625 
L 21 0 
L 10.6875 0 
z
" id="DejaVuSans-46"/>
       </defs>
       <use xlink:href="#DejaVuSans-48"/>
       <use x="63.623047" xlink:href="#DejaVuSans-46"/>
       <use x="95.410156" xlink:href="#DejaVuSans-48"/>
      </g>
     </g>
    </g>
    <g id="xtick_2">
     <g id="line2d_2">
      <g>
       <use style="stroke:#000000;stroke-width:0.8;" x="126.439176" xlink:href="#ma985018913" y="240.704"/>
      </g>
     </g>
     <g id="text_2">
      <!-- 0.2 -->
      <g transform="translate(118.487614 255.302437)scale(0.1 -0.1)">
       <defs>
        <path d="M 19.1875 8.296875 
L 53.609375 8.296875 
L 53.609375 0 
L 7.328125 0 
L 7.328125 8.296875 
Q 12.9375 14.109375 22.625 23.890625 
Q 32.328125 33.6875 34.8125 36.53125 
Q 39.546875 41.84375 41.421875 45.53125 
Q 43.3125 49.21875 43.3125 52.78125 
Q 43.3125 58.59375 39.234375 62.25 
Q 35.15625 65.921875 28.609375 65.921875 
Q 23.96875 65.921875 18.8125 64.3125 
Q 13.671875 62.703125 7.8125 59.421875 
L 7.8125 69.390625 
Q 13.765625 71.78125 18.9375 73 
Q 24.125 74.21875 28.421875 74.21875 
Q 39.75 74.21875 46.484375 68.546875 
Q 53.21875 62.890625 53.21875 53.421875 
Q 53.21875 48.921875 51.53125 44.890625 
Q 49.859375 40.875 45.40625 35.40625 
Q 44.1875 33.984375 37.640625 27.21875 
Q 31.109375 20.453125 19.1875 8.296875 
z
" id="DejaVuSans-50"/>
       </defs>
       <use xlink:href="#DejaVuSans-48"/>
       <use x="63.623047" xlink:href="#DejaVuSans-46"/>
       <use x="95.410156" xlink:href="#DejaVuSans-50"/>
      </g>
     </g>
    </g>
    <g id="xtick_3">
     <g id="line2d_3">
      <g>
       <use style="stroke:#000000;stroke-width:0.8;" x="193.494267" xlink:href="#ma985018913" y="240.704"/>
      </g>
     </g>
     <g id="text_3">
      <!-- 0.4 -->
      <g transform="translate(185.542705 255.302437)scale(0.1 -0.1)">
       <defs>
        <path d="M 37.796875 64.3125 
L 12.890625 25.390625 
L 37.796875 25.390625 
z
M 35.203125 72.90625 
L 47.609375 72.90625 
L 47.609375 25.390625 
L 58.015625 25.390625 
L 58.015625 17.1875 
L 47.609375 17.1875 
L 47.609375 0 
L 37.796875 0 
L 37.796875 17.1875 
L 4.890625 17.1875 
L 4.890625 26.703125 
z
" id="DejaVuSans-52"/>
       </defs>
       <use xlink:href="#DejaVuSans-48"/>
       <use x="63.623047" xlink:href="#DejaVuSans-46"/>
       <use x="95.410156" xlink:href="#DejaVuSans-52"/>
      </g>
     </g>
    </g>
    <g id="xtick_4">
     <g id="line2d_4">
      <g>
       <use style="stroke:#000000;stroke-width:0.8;" x="260.549358" xlink:href="#ma985018913" y="240.704"/>
      </g>
     </g>
     <g id="text_4">
      <!-- 0.6 -->
      <g transform="translate(252.597795 255.302437)scale(0.1 -0.1)">
       <defs>
        <path d="M 33.015625 40.375 
Q 26.375 40.375 22.484375 35.828125 
Q 18.609375 31.296875 18.609375 23.390625 
Q 18.609375 15.53125 22.484375 10.953125 
Q 26.375 6.390625 33.015625 6.390625 
Q 39.65625 6.390625 43.53125 10.953125 
Q 47.40625 15.53125 47.40625 23.390625 
Q 47.40625 31.296875 43.53125 35.828125 
Q 39.65625 40.375 33.015625 40.375 
z
M 52.59375 71.296875 
L 52.59375 62.3125 
Q 48.875 64.0625 45.09375 64.984375 
Q 41.3125 65.921875 37.59375 65.921875 
Q 27.828125 65.921875 22.671875 59.328125 
Q 17.53125 52.734375 16.796875 39.40625 
Q 19.671875 43.65625 24.015625 45.921875 
Q 28.375 48.1875 33.59375 48.1875 
Q 44.578125 48.1875 50.953125 41.515625 
Q 57.328125 34.859375 57.328125 23.390625 
Q 57.328125 12.15625 50.6875 5.359375 
Q 44.046875 -1.421875 33.015625 -1.421875 
Q 20.359375 -1.421875 13.671875 8.265625 
Q 6.984375 17.96875 6.984375 36.375 
Q 6.984375 53.65625 15.1875 63.9375 
Q 23.390625 74.21875 37.203125 74.21875 
Q 40.921875 74.21875 44.703125 73.484375 
Q 48.484375 72.75 52.59375 71.296875 
z
" id="DejaVuSans-54"/>
       </defs>
       <use xlink:href="#DejaVuSans-48"/>
       <use x="63.623047" xlink:href="#DejaVuSans-46"/>
       <use x="95.410156" xlink:href="#DejaVuSans-54"/>
      </g>
     </g>
    </g>
    <g id="xtick_5">
     <g id="line2d_5">
      <g>
       <use style="stroke:#000000;stroke-width:0.8;" x="327.604449" xlink:href="#ma985018913" y="240.704"/>
      </g>
     </g>
     <g id="text_5">
      <!-- 0.8 -->
      <g transform="translate(319.652886 255.302437)scale(0.1 -0.1)">
       <defs>
        <path d="M 31.78125 34.625 
Q 24.75 34.625 20.71875 30.859375 
Q 16.703125 27.09375 16.703125 20.515625 
Q 16.703125 13.921875 20.71875 10.15625 
Q 24.75 6.390625 31.78125 6.390625 
Q 38.8125 6.390625 42.859375 10.171875 
Q 46.921875 13.96875 46.921875 20.515625 
Q 46.921875 27.09375 42.890625 30.859375 
Q 38.875 34.625 31.78125 34.625 
z
M 21.921875 38.8125 
Q 15.578125 40.375 12.03125 44.71875 
Q 8.5 49.078125 8.5 55.328125 
Q 8.5 64.0625 14.71875 69.140625 
Q 20.953125 74.21875 31.78125 74.21875 
Q 42.671875 74.21875 48.875 69.140625 
Q 55.078125 64.0625 55.078125 55.328125 
Q 55.078125 49.078125 51.53125 44.71875 
Q 48 40.375 41.703125 38.8125 
Q 48.828125 37.15625 52.796875 32.3125 
Q 56.78125 27.484375 56.78125 20.515625 
Q 56.78125 9.90625 50.3125 4.234375 
Q 43.84375 -1.421875 31.78125 -1.421875 
Q 19.734375 -1.421875 13.25 4.234375 
Q 6.78125 9.90625 6.78125 20.515625 
Q 6.78125 27.484375 10.78125 32.3125 
Q 14.796875 37.15625 21.921875 38.8125 
z
M 18.3125 54.390625 
Q 18.3125 48.734375 21.84375 45.5625 
Q 25.390625 42.390625 31.78125 42.390625 
Q 38.140625 42.390625 41.71875 45.5625 
Q 45.3125 48.734375 45.3125 54.390625 
Q 45.3125 60.0625 41.71875 63.234375 
Q 38.140625 66.40625 31.78125 66.40625 
Q 25.390625 66.40625 21.84375 63.234375 
Q 18.3125 60.0625 18.3125 54.390625 
z
" id="DejaVuSans-56"/>
       </defs>
       <use xlink:href="#DejaVuSans-48"/>
       <use x="63.623047" xlink:href="#DejaVuSans-46"/>
       <use x="95.410156" xlink:href="#DejaVuSans-56"/>
      </g>
     </g>
    </g>
    <g id="xtick_6">
     <g id="line2d_6">
      <g>
       <use style="stroke:#000000;stroke-width:0.8;" x="394.65954" xlink:href="#ma985018913" y="240.704"/>
      </g>
     </g>
     <g id="text_6">
      <!-- 1.0 -->
      <g transform="translate(386.707977 255.302437)scale(0.1 -0.1)">
       <defs>
        <path d="M 12.40625 8.296875 
L 28.515625 8.296875 
L 28.515625 63.921875 
L 10.984375 60.40625 
L 10.984375 69.390625 
L 28.421875 72.90625 
L 38.28125 72.90625 
L 38.28125 8.296875 
L 54.390625 8.296875 
L 54.390625 0 
L 12.40625 0 
z
" id="DejaVuSans-49"/>
       </defs>
       <use xlink:href="#DejaVuSans-49"/>
       <use x="63.623047" xlink:href="#DejaVuSans-46"/>
       <use x="95.410156" xlink:href="#DejaVuSans-48"/>
      </g>
     </g>
    </g>
    <g id="text_7">
     <!-- time (ms) -->
     <g transform="translate(202.760094 268.980562)scale(0.1 -0.1)">
      <defs>
       <path d="M 18.3125 70.21875 
L 18.3125 54.6875 
L 36.8125 54.6875 
L 36.8125 47.703125 
L 18.3125 47.703125 
L 18.3125 18.015625 
Q 18.3125 11.328125 20.140625 9.421875 
Q 21.96875 7.515625 27.59375 7.515625 
L 36.8125 7.515625 
L 36.8125 0 
L 27.59375 0 
Q 17.1875 0 13.234375 3.875 
Q 9.28125 7.765625 9.28125 18.015625 
L 9.28125 47.703125 
L 2.6875 47.703125 
L 2.6875 54.6875 
L 9.28125 54.6875 
L 9.28125 70.21875 
z
" id="DejaVuSans-116"/>
       <path d="M 9.421875 54.6875 
L 18.40625 54.6875 
L 18.40625 0 
L 9.421875 0 
z
M 9.421875 75.984375 
L 18.40625 75.984375 
L 18.40625 64.59375 
L 9.421875 64.59375 
z
" id="DejaVuSans-105"/>
       <path d="M 52 44.1875 
Q 55.375 50.25 60.0625 53.125 
Q 64.75 56 71.09375 56 
Q 79.640625 56 84.28125 50.015625 
Q 88.921875 44.046875 88.921875 33.015625 
L 88.921875 0 
L 79.890625 0 
L 79.890625 32.71875 
Q 79.890625 40.578125 77.09375 44.375 
Q 74.3125 48.1875 68.609375 48.1875 
Q 61.625 48.1875 57.5625 43.546875 
Q 53.515625 38.921875 53.515625 30.90625 
L 53.515625 0 
L 44.484375 0 
L 44.484375 32.71875 
Q 44.484375 40.625 41.703125 44.40625 
Q 38.921875 48.1875 33.109375 48.1875 
Q 26.21875 48.1875 22.15625 43.53125 
Q 18.109375 38.875 18.109375 30.90625 
L 18.109375 0 
L 9.078125 0 
L 9.078125 54.6875 
L 18.109375 54.6875 
L 18.109375 46.1875 
Q 21.1875 51.21875 25.484375 53.609375 
Q 29.78125 56 35.6875 56 
Q 41.65625 56 45.828125 52.96875 
Q 50 49.953125 52 44.1875 
z
" id="DejaVuSans-109"/>
       <path d="M 56.203125 29.59375 
L 56.203125 25.203125 
L 14.890625 25.203125 
Q 15.484375 15.921875 20.484375 11.0625 
Q 25.484375 6.203125 34.421875 6.203125 
Q 39.59375 6.203125 44.453125 7.46875 
Q 49.3125 8.734375 54.109375 11.28125 
L 54.109375 2.78125 
Q 49.265625 0.734375 44.1875 -0.34375 
Q 39.109375 -1.421875 33.890625 -1.421875 
Q 20.796875 -1.421875 13.15625 6.1875 
Q 5.515625 13.8125 5.515625 26.8125 
Q 5.515625 40.234375 12.765625 48.109375 
Q 20.015625 56 32.328125 56 
Q 43.359375 56 49.78125 48.890625 
Q 56.203125 41.796875 56.203125 29.59375 
z
M 47.21875 32.234375 
Q 47.125 39.59375 43.09375 43.984375 
Q 39.0625 48.390625 32.421875 48.390625 
Q 24.90625 48.390625 20.390625 44.140625 
Q 15.875 39.890625 15.1875 32.171875 
z
" id="DejaVuSans-101"/>
       <path id="DejaVuSans-32"/>
       <path d="M 31 75.875 
Q 24.46875 64.65625 21.28125 53.65625 
Q 18.109375 42.671875 18.109375 31.390625 
Q 18.109375 20.125 21.3125 9.0625 
Q 24.515625 -2 31 -13.1875 
L 23.1875 -13.1875 
Q 15.875 -1.703125 12.234375 9.375 
Q 8.59375 20.453125 8.59375 31.390625 
Q 8.59375 42.28125 12.203125 53.3125 
Q 15.828125 64.359375 23.1875 75.875 
z
" id="DejaVuSans-40"/>
       <path d="M 44.28125 53.078125 
L 44.28125 44.578125 
Q 40.484375 46.53125 36.375 47.5 
Q 32.28125 48.484375 27.875 48.484375 
Q 21.1875 48.484375 17.84375 46.4375 
Q 14.5 44.390625 14.5 40.28125 
Q 14.5 37.15625 16.890625 35.375 
Q 19.28125 33.59375 26.515625 31.984375 
L 29.59375 31.296875 
Q 39.15625 29.25 43.1875 25.515625 
Q 47.21875 21.78125 47.21875 15.09375 
Q 47.21875 7.46875 41.1875 3.015625 
Q 35.15625 -1.421875 24.609375 -1.421875 
Q 20.21875 -1.421875 15.453125 -0.5625 
Q 10.6875 0.296875 5.421875 2 
L 5.421875 11.28125 
Q 10.40625 8.6875 15.234375 7.390625 
Q 20.0625 6.109375 24.8125 6.109375 
Q 31.15625 6.109375 34.5625 8.28125 
Q 37.984375 10.453125 37.984375 14.40625 
Q 37.984375 18.0625 35.515625 20.015625 
Q 33.0625 21.96875 24.703125 23.78125 
L 21.578125 24.515625 
Q 13.234375 26.265625 9.515625 29.90625 
Q 5.8125 33.546875 5.8125 39.890625 
Q 5.8125 47.609375 11.28125 51.796875 
Q 16.75 56 26.8125 56 
Q 31.78125 56 36.171875 55.265625 
Q 40.578125 54.546875 44.28125 53.078125 
z
" id="DejaVuSans-115"/>
       <path d="M 8.015625 75.875 
L 15.828125 75.875 
Q 23.140625 64.359375 26.78125 53.3125 
Q 30.421875 42.28125 30.421875 31.390625 
Q 30.421875 20.453125 26.78125 9.375 
Q 23.140625 -1.703125 15.828125 -13.1875 
L 8.015625 -13.1875 
Q 14.5 -2 17.703125 9.0625 
Q 20.90625 20.125 20.90625 31.390625 
Q 20.90625 42.671875 17.703125 53.65625 
Q 14.5 64.65625 8.015625 75.875 
z
" id="DejaVuSans-41"/>
      </defs>
      <use xlink:href="#DejaVuSans-116"/>
      <use x="39.208984" xlink:href="#DejaVuSans-105"/>
      <use x="66.992188" xlink:href="#DejaVuSans-109"/>
      <use x="164.404297" xlink:href="#DejaVuSans-101"/>
      <use x="225.927734" xlink:href="#DejaVuSans-32"/>
      <use x="257.714844" xlink:href="#DejaVuSans-40"/>
      <use x="296.728516" xlink:href="#DejaVuSans-109"/>
      <use x="394.140625" xlink:href="#DejaVuSans-115"/>
      <use x="446.240234" xlink:href="#DejaVuSans-41"/>
     </g>
    </g>
   </g>
   <g id="matplotlib.axis_2">
    <g id="ytick_1">
     <g id="line2d_7">
      <defs>
       <path d="M 0 0 
L -3.5 0 
" id="m77d0fde636" style="stroke:#000000;stroke-width:0.8;"/>
      </defs>
      <g>
       <use style="stroke:#000000;stroke-width:0.8;" x="42.620313" xlink:href="#m77d0fde636" y="210.367413"/>
      </g>
     </g>
     <g id="text_8">
      <!-- −2 -->
      <g transform="translate(20.878125 214.166632)scale(0.1 -0.1)">
       <defs>
        <path d="M 10.59375 35.5 
L 73.1875 35.5 
L 73.1875 27.203125 
L 10.59375 27.203125 
z
" id="DejaVuSans-8722"/>
       </defs>
       <use xlink:href="#DejaVuSans-8722"/>
       <use x="83.789062" xlink:href="#DejaVuSans-50"/>
      </g>
     </g>
    </g>
    <g id="ytick_2">
     <g id="line2d_8">
      <g>
       <use style="stroke:#000000;stroke-width:0.8;" x="42.620313" xlink:href="#m77d0fde636" y="170.921766"/>
      </g>
     </g>
     <g id="text_9">
      <!-- −1 -->
      <g transform="translate(20.878125 174.720985)scale(0.1 -0.1)">
       <use xlink:href="#DejaVuSans-8722"/>
       <use x="83.789062" xlink:href="#DejaVuSans-49"/>
      </g>
     </g>
    </g>
    <g id="ytick_3">
     <g id="line2d_9">
      <g>
       <use style="stroke:#000000;stroke-width:0.8;" x="42.620313" xlink:href="#m77d0fde636" y="131.476119"/>
      </g>
     </g>
     <g id="text_10">
      <!-- 0 -->
      <g transform="translate(29.257813 135.275338)scale(0.1 -0.1)">
       <use xlink:href="#DejaVuSans-48"/>
      </g>
     </g>
    </g>
    <g id="ytick_4">
     <g id="line2d_10">
      <g>
       <use style="stroke:#000000;stroke-width:0.8;" x="42.620313" xlink:href="#m77d0fde636" y="92.030473"/>
      </g>
     </g>
     <g id="text_11">
      <!-- 1 -->
      <g transform="translate(29.257813 95.829691)scale(0.1 -0.1)">
       <use xlink:href="#DejaVuSans-49"/>
      </g>
     </g>
    </g>
    <g id="ytick_5">
     <g id="line2d_11">
      <g>
       <use style="stroke:#000000;stroke-width:0.8;" x="42.620313" xlink:href="#m77d0fde636" y="52.584826"/>
      </g>
     </g>
     <g id="text_12">
      <!-- 2 -->
      <g transform="translate(29.257813 56.384045)scale(0.1 -0.1)">
       <use xlink:href="#DejaVuSans-50"/>
      </g>
     </g>
    </g>
    <g id="ytick_6">
     <g id="line2d_12">
      <g>
       <use style="stroke:#000000;stroke-width:0.8;" x="42.620313" xlink:href="#m77d0fde636" y="13.139179"/>
      </g>
     </g>
     <g id="text_13">
      <!-- 3 -->
      <g transform="translate(29.257813 16.938398)scale(0.1 -0.1)">
       <defs>
        <path d="M 40.578125 39.3125 
Q 47.65625 37.796875 51.625 33 
Q 55.609375 28.21875 55.609375 21.1875 
Q 55.609375 10.40625 48.1875 4.484375 
Q 40.765625 -1.421875 27.09375 -1.421875 
Q 22.515625 -1.421875 17.65625 -0.515625 
Q 12.796875 0.390625 7.625 2.203125 
L 7.625 11.71875 
Q 11.71875 9.328125 16.59375 8.109375 
Q 21.484375 6.890625 26.8125 6.890625 
Q 36.078125 6.890625 40.9375 10.546875 
Q 45.796875 14.203125 45.796875 21.1875 
Q 45.796875 27.640625 41.28125 31.265625 
Q 36.765625 34.90625 28.71875 34.90625 
L 20.21875 34.90625 
L 20.21875 43.015625 
L 29.109375 43.015625 
Q 36.375 43.015625 40.234375 45.921875 
Q 44.09375 48.828125 44.09375 54.296875 
Q 44.09375 59.90625 40.109375 62.90625 
Q 36.140625 65.921875 28.71875 65.921875 
Q 24.65625 65.921875 20.015625 65.03125 
Q 15.375 64.15625 9.8125 62.3125 
L 9.8125 71.09375 
Q 15.4375 72.65625 20.34375 73.4375 
Q 25.25 74.21875 29.59375 74.21875 
Q 40.828125 74.21875 47.359375 69.109375 
Q 53.90625 64.015625 53.90625 55.328125 
Q 53.90625 49.265625 50.4375 45.09375 
Q 46.96875 40.921875 40.578125 39.3125 
z
" id="DejaVuSans-51"/>
       </defs>
       <use xlink:href="#DejaVuSans-51"/>
      </g>
     </g>
    </g>
    <g id="text_14">
     <!-- IN [V] -->
     <g transform="translate(14.798438 138.078563)rotate(-90)scale(0.1 -0.1)">
      <defs>
       <path d="M 9.8125 72.90625 
L 19.671875 72.90625 
L 19.671875 0 
L 9.8125 0 
z
" id="DejaVuSans-73"/>
       <path d="M 9.8125 72.90625 
L 23.09375 72.90625 
L 55.421875 11.921875 
L 55.421875 72.90625 
L 64.984375 72.90625 
L 64.984375 0 
L 51.703125 0 
L 19.390625 60.984375 
L 19.390625 0 
L 9.8125 0 
z
" id="DejaVuSans-78"/>
       <path d="M 8.59375 75.984375 
L 29.296875 75.984375 
L 29.296875 69 
L 17.578125 69 
L 17.578125 -6.203125 
L 29.296875 -6.203125 
L 29.296875 -13.1875 
L 8.59375 -13.1875 
z
" id="DejaVuSans-91"/>
       <path d="M 28.609375 0 
L 0.78125 72.90625 
L 11.078125 72.90625 
L 34.1875 11.53125 
L 57.328125 72.90625 
L 67.578125 72.90625 
L 39.796875 0 
z
" id="DejaVuSans-86"/>
       <path d="M 30.421875 75.984375 
L 30.421875 -13.1875 
L 9.71875 -13.1875 
L 9.71875 -6.203125 
L 21.390625 -6.203125 
L 21.390625 69 
L 9.71875 69 
L 9.71875 75.984375 
z
" id="DejaVuSans-93"/>
      </defs>
      <use xlink:href="#DejaVuSans-73"/>
      <use x="29.492188" xlink:href="#DejaVuSans-78"/>
      <use x="104.296875" xlink:href="#DejaVuSans-32"/>
      <use x="136.083984" xlink:href="#DejaVuSans-91"/>
      <use x="175.097656" xlink:href="#DejaVuSans-86"/>
      <use x="243.505859" xlink:href="#DejaVuSans-93"/>
     </g>
    </g>
   </g>
   <g id="line2d_13">
    <path clip-path="url(#p17c03ede4b)" d="M 59.384085 131.476119 
L 72.180739 108.053102 
L 78.886248 96.231879 
L 84.585931 86.613753 
L 89.615063 78.548391 
L 94.308919 71.443198 
L 98.6675 65.260071 
L 102.690805 59.943576 
L 106.378835 55.426491 
L 110.066865 51.272542 
L 113.41962 47.828068 
L 116.772374 44.713715 
L 119.789854 42.203237 
L 122.807333 39.978155 
L 125.824812 38.045583 
L 128.507015 36.57832 
L 131.189219 35.350778 
L 133.871423 34.366057 
L 136.553626 33.626644 
L 139.23583 33.134408 
L 141.918034 32.890591 
L 144.600237 32.89581 
L 147.282441 33.150051 
L 149.964644 33.652673 
L 152.646848 34.402405 
L 155.329052 35.397353 
L 158.011255 36.635005 
L 160.693459 38.112234 
L 163.375663 39.825308 
L 166.393142 42.029014 
L 169.410621 44.518674 
L 172.4281 47.286327 
L 175.780854 50.67675 
L 179.133609 54.386051 
L 182.821639 58.817079 
L 186.509669 63.595053 
L 190.532974 69.176228 
L 194.891555 75.620936 
L 199.585412 82.976631 
L 204.614544 91.272345 
L 210.314226 101.101452 
L 217.355011 113.7088 
L 228.419101 134.058104 
L 239.818466 154.899137 
L 246.523975 166.72036 
L 252.223658 176.338486 
L 257.25279 184.403848 
L 261.946646 191.509041 
L 266.305227 197.692168 
L 270.328533 203.008663 
L 274.016563 207.525748 
L 277.704593 211.679697 
L 281.057347 215.124171 
L 284.410102 218.238524 
L 287.427581 220.749002 
L 290.44506 222.974084 
L 293.462539 224.906656 
L 296.144743 226.373919 
L 298.826946 227.601461 
L 301.50915 228.586182 
L 304.191354 229.325595 
L 306.873557 229.817831 
L 309.555761 230.061648 
L 312.237964 230.056429 
L 314.920168 229.802188 
L 317.602372 229.299566 
L 320.284575 228.549834 
L 322.966779 227.554886 
L 325.648983 226.317234 
L 328.331186 224.840005 
L 331.01339 223.126931 
L 334.030869 220.923225 
L 337.048348 218.433565 
L 340.065827 215.665912 
L 343.418582 212.275489 
L 346.771336 208.566188 
L 350.459366 204.13516 
L 354.147396 199.357186 
L 358.170702 193.776011 
L 362.529283 187.331302 
L 367.223139 179.975608 
L 372.252271 171.679894 
L 377.951954 161.850787 
L 384.992738 149.243439 
L 394.65954 131.476119 
L 394.65954 131.476119 
" style="fill:none;stroke:#0000ff;stroke-linecap:square;stroke-width:1.5;"/>
   </g>
   <g id="line2d_14">
    <path clip-path="url(#p17c03ede4b)" d="M 59.384085 131.476119 
L 63.463577 131.564496 
L 65.47523 131.82436 
L 66.481056 131.755407 
L 67.822158 131.410142 
L 69.16326 130.817821 
L 70.839637 129.788997 
L 72.516014 128.499752 
L 74.527667 126.686634 
L 77.209871 123.943169 
L 80.562625 120.177442 
L 85.927033 113.770685 
L 97.661674 99.686506 
L 103.026081 93.645931 
L 107.719937 88.703056 
L 111.743243 84.77086 
L 115.766548 81.155706 
L 119.454578 78.145765 
L 122.807333 75.679282 
L 126.160087 73.483549 
L 129.177566 71.774058 
L 131.524494 70.728081 
L 133.871423 69.953888 
L 136.218351 69.408515 
L 139.23583 68.958787 
L 142.588584 68.689599 
L 146.947165 68.579627 
L 151.641022 68.681624 
L 156.334878 69.005266 
L 160.022908 69.473408 
L 162.705112 70.006445 
L 165.05204 70.692221 
L 167.398968 71.628911 
L 170.081172 72.964853 
L 172.763375 74.542113 
L 175.780854 76.566848 
L 179.133609 79.092404 
L 182.821639 82.171955 
L 186.509669 85.536856 
L 190.532974 89.499114 
L 195.226831 94.455874 
L 200.591238 100.477628 
L 207.632023 108.760561 
L 217.690286 120.593551 
L 221.378316 124.5654 
L 223.725244 126.813176 
L 225.736897 128.438502 
L 227.077999 129.253736 
L 228.419101 129.866588 
L 229.424927 130.1202 
L 230.430754 130.332696 
L 231.43658 130.828134 
L 233.112957 131.991782 
L 235.12461 133.693622 
L 237.471538 135.977325 
L 240.489017 139.246161 
L 244.512323 143.976427 
L 250.547281 151.466014 
L 262.281922 166.076896 
L 267.981604 172.780072 
L 272.675461 177.969589 
L 277.034042 182.461896 
L 281.057347 186.290513 
L 284.745377 189.50485 
L 288.433407 192.415184 
L 291.786162 194.781498 
L 295.138916 196.868977 
L 298.156395 198.500459 
L 301.173874 199.890745 
L 304.191354 201.034191 
L 307.208833 201.926188 
L 310.226312 202.563171 
L 312.908515 202.913228 
L 315.590719 203.058709 
L 318.272923 202.999195 
L 320.955126 202.734928 
L 323.63733 202.26681 
L 326.654809 201.498483 
L 329.672288 200.477383 
L 332.689767 199.207802 
L 335.707246 197.695092 
L 338.724725 195.945666 
L 342.07748 193.733354 
L 345.430234 191.249841 
L 349.118264 188.220802 
L 352.806294 184.900049 
L 356.8296 180.971399 
L 361.188181 176.392404 
L 365.882037 171.138694 
L 371.58172 164.40578 
L 379.963606 154.099814 
L 387.674942 144.706768 
L 391.698247 140.147791 
L 394.65954 137.135116 
L 394.65954 137.135116 
" style="fill:none;stroke:#ff0000;stroke-linecap:square;stroke-width:1.5;"/>
   </g>
   <g id="line2d_15">
    <path clip-path="url(#p17c03ede4b)" d="M 59.384085 131.476119 
L 63.463577 131.572055 
L 65.47523 131.798239 
L 66.481056 131.653904 
L 67.486883 131.272971 
L 68.492709 130.654103 
L 69.498535 129.79649 
L 70.504362 128.700142 
L 71.845464 126.870637 
L 73.186565 124.630068 
L 74.527667 121.992508 
L 76.204044 118.163513 
L 77.880422 113.778469 
L 79.892074 107.838685 
L 81.903727 101.226243 
L 84.250655 92.75519 
L 86.932859 82.208948 
L 89.950338 69.425822 
L 93.638368 52.771032 
L 98.332224 30.451368 
L 100.008602 22.825214 
L 100.679153 21.306694 
L 101.349704 20.450728 
L 102.020254 19.926023 
L 103.026081 19.445656 
L 104.367183 19.078661 
L 106.378835 18.779379 
L 109.73159 18.534423 
L 116.101824 18.337339 
L 128.842291 18.203384 
L 148.958818 18.219551 
L 178.798334 18.427137 
L 191.203525 18.731276 
L 198.24431 19.111255 
L 202.267615 19.525397 
L 204.949819 19.997029 
L 206.961472 20.572574 
L 208.302574 21.162873 
L 209.3084 21.800028 
L 210.314226 22.721488 
L 210.984777 23.590402 
L 211.655328 24.777073 
L 212.99643 27.778936 
L 214.672807 32.080162 
L 216.68446 37.946695 
L 219.031388 45.607275 
L 221.713592 55.179631 
L 237.806814 114.540141 
L 239.483191 119.588808 
L 241.494844 127.23543 
L 244.177047 138.322036 
L 247.194526 151.722921 
L 250.882556 169.204803 
L 255.241137 191.091382 
L 259.264443 211.275509 
L 259.934994 212.415692 
L 260.605544 212.964265 
L 261.611371 213.38425 
L 262.952473 213.662604 
L 265.299401 213.888714 
L 269.993257 214.061552 
L 280.722072 214.177633 
L 308.214659 214.209489 
L 352.135744 214.048482 
L 369.570067 213.805308 
L 376.946127 213.513069 
L 380.969433 213.149118 
L 383.316361 212.728082 
L 384.657463 212.317102 
L 385.663289 211.841487 
L 386.669115 211.091715 
L 387.339666 210.316613 
L 388.010217 209.170081 
L 389.686594 205.503357 
L 391.362972 201.306197 
L 393.7099 194.755272 
L 394.65954 191.900498 
L 394.65954 191.900498 
" style="fill:none;stroke:#1f77b4;stroke-linecap:square;stroke-width:1.5;"/>
   </g>
   <g id="line2d_16">
    <path clip-path="url(#p17c03ede4b)" d="M 59.384085 131.476119 
L 63.463577 131.573296 
L 65.47523 131.795212 
L 66.481056 131.639798 
L 67.486883 131.23568 
L 68.492709 130.576578 
L 69.498535 129.656565 
L 70.504362 128.470531 
L 71.845464 126.470358 
L 73.186565 123.990347 
L 74.527667 121.033949 
L 76.204044 116.680002 
L 77.880422 111.613837 
L 79.556799 105.86076 
L 81.568452 98.090802 
L 83.580104 89.426628 
L 85.927033 78.263922 
L 88.273961 66.054556 
L 90.956164 50.942512 
L 93.973644 32.641535 
L 95.650021 22.551344 
L 96.320572 20.751341 
L 96.991123 19.876406 
L 97.661674 19.385509 
L 98.6675 18.961456 
L 100.008602 18.651957 
L 102.35553 18.381086 
L 106.378835 18.182059 
L 114.760722 18.036851 
L 133.871423 17.96915 
L 174.439753 18.116334 
L 194.55628 18.376603 
L 204.614544 18.706237 
L 209.978951 19.082099 
L 213.331705 19.524122 
L 215.343358 19.971055 
L 217.019735 20.564789 
L 218.025562 21.101184 
L 219.031388 21.880113 
L 219.701939 22.619435 
L 220.37249 23.640792 
L 221.378316 25.844414 
L 223.054694 30.149621 
L 226.072173 38.734941 
L 228.083825 45.051262 
L 230.095478 52.06038 
L 232.442406 61.145757 
L 234.789334 71.16896 
L 237.471538 83.617283 
L 242.50067 107.60934 
L 243.506496 111.684239 
L 245.182874 120.158516 
L 247.529802 133.184872 
L 250.212005 149.289506 
L 253.229484 168.77445 
L 256.582239 191.916851 
L 259.264443 210.909525 
L 259.599718 212.041231 
L 260.270269 213.027724 
L 260.94082 213.458829 
L 261.946646 213.777373 
L 263.623024 214.018771 
L 266.975778 214.201583 
L 274.351838 214.31465 
L 296.480018 214.358723 
L 349.45354 214.228537 
L 374.263924 213.993744 
L 383.316361 213.708812 
L 387.674942 213.364673 
L 390.02187 212.987699 
L 391.698247 212.499404 
L 392.704074 212.016487 
L 393.7099 211.247941 
L 394.380451 210.455302 
L 394.65954 209.988556 
L 394.65954 209.988556 
" style="fill:none;stroke:#ff7f0e;stroke-linecap:square;stroke-width:1.5;"/>
   </g>
   <g id="line2d_17">
    <path clip-path="url(#p17c03ede4b)" d="M 59.384085 131.476119 
L 63.463577 131.577676 
L 65.47523 131.791597 
L 66.481056 131.620389 
L 67.486883 131.188498 
L 68.492709 130.484645 
L 69.498535 129.497419 
L 70.504362 128.216043 
L 71.510188 126.63168 
L 72.85129 124.036314 
L 74.192392 120.878795 
L 75.533494 117.151924 
L 76.874595 112.851899 
L 78.550973 106.669387 
L 80.22735 99.5922 
L 81.903727 91.626958 
L 83.91538 80.910781 
L 85.927033 68.953388 
L 88.273961 53.473195 
L 90.620889 36.40108 
L 92.632542 21.730175 
L 93.303093 20.065297 
L 93.973644 19.327521 
L 94.644194 18.925943 
L 95.650021 18.583702 
L 97.326398 18.293014 
L 100.343877 18.0655 
L 106.04356 17.912622 
L 119.789854 17.823692 
L 151.305746 17.865647 
L 194.221004 18.116598 
L 209.3084 18.40587 
L 216.68446 18.737666 
L 221.378316 19.155418 
L 224.731071 19.642011 
L 226.742724 20.14254 
L 228.083825 20.675954 
L 229.089652 21.278292 
L 230.095478 22.200978 
L 230.766029 23.127674 
L 231.43658 24.463134 
L 232.777682 27.856367 
L 234.118784 31.819726 
L 235.795161 37.56773 
L 237.471538 44.178531 
L 239.147915 51.621947 
L 241.159568 61.589497 
L 243.506496 74.484303 
L 249.87673 111.651436 
L 251.888383 125.805931 
L 254.235311 143.90423 
L 256.917514 166.538895 
L 259.599718 191.150449 
L 261.611371 210.472362 
L 261.946646 212.207415 
L 262.281922 212.904045 
L 262.952473 213.561802 
L 263.623024 213.854589 
L 264.964125 214.125285 
L 267.311054 214.30907 
L 272.675461 214.435413 
L 287.762856 214.487345 
L 340.736378 214.394992 
L 377.281403 214.16666 
L 388.680768 213.908968 
L 394.65954 213.579283 
L 394.65954 213.579283 
" style="fill:none;stroke:#2ca02c;stroke-linecap:square;stroke-width:1.5;"/>
   </g>
   <g id="patch_3">
    <path d="M 42.620313 240.704 
L 42.620313 7.2 
" style="fill:none;stroke:#000000;stroke-linecap:square;stroke-linejoin:miter;stroke-width:0.8;"/>
   </g>
   <g id="patch_4">
    <path d="M 411.423312 240.704 
L 411.423312 7.2 
" style="fill:none;stroke:#000000;stroke-linecap:square;stroke-linejoin:miter;stroke-width:0.8;"/>
   </g>
   <g id="patch_5">
    <path d="M 42.620313 240.704 
L 411.423312 240.704 
" style="fill:none;stroke:#000000;stroke-linecap:square;stroke-linejoin:miter;stroke-width:0.8;"/>
   </g>
   <g id="patch_6">
    <path d="M 42.620313 7.2 
L 411.423312 7.2 
" style="fill:none;stroke:#000000;stroke-linecap:square;stroke-linejoin:miter;stroke-width:0.8;"/>
   </g>
   <g id="legend_1">
    <g id="patch_7">
     <path d="M 280.654232 88.9264 
L 403.466732 88.9264 
Q 405.466732 88.9264 405.466732 86.9264 
L 405.466732 14.535775 
Q 405.466732 12.535775 403.466732 12.535775 
L 280.654232 12.535775 
Q 278.654232 12.535775 278.654232 14.535775 
L 278.654232 86.9264 
Q 278.654232 88.9264 280.654232 88.9264 
z
" style="fill:#ffffff;opacity:0.8;stroke:#cccccc;stroke-linejoin:miter;"/>
    </g>
    <g id="line2d_18">
     <path d="M 282.654232 20.634212 
L 302.654232 20.634212 
" style="fill:none;stroke:#0000ff;stroke-linecap:square;stroke-width:1.5;"/>
    </g>
    <g id="line2d_19"/>
    <g id="text_15">
     <!-- Vin [V] -->
     <g transform="translate(310.654232 24.134212)scale(0.1 -0.1)">
      <defs>
       <path d="M 54.890625 33.015625 
L 54.890625 0 
L 45.90625 0 
L 45.90625 32.71875 
Q 45.90625 40.484375 42.875 44.328125 
Q 39.84375 48.1875 33.796875 48.1875 
Q 26.515625 48.1875 22.3125 43.546875 
Q 18.109375 38.921875 18.109375 30.90625 
L 18.109375 0 
L 9.078125 0 
L 9.078125 54.6875 
L 18.109375 54.6875 
L 18.109375 46.1875 
Q 21.34375 51.125 25.703125 53.5625 
Q 30.078125 56 35.796875 56 
Q 45.21875 56 50.046875 50.171875 
Q 54.890625 44.34375 54.890625 33.015625 
z
" id="DejaVuSans-110"/>
      </defs>
      <use xlink:href="#DejaVuSans-86"/>
      <use x="66.158203" xlink:href="#DejaVuSans-105"/>
      <use x="93.941406" xlink:href="#DejaVuSans-110"/>
      <use x="157.320312" xlink:href="#DejaVuSans-32"/>
      <use x="189.107422" xlink:href="#DejaVuSans-91"/>
      <use x="228.121094" xlink:href="#DejaVuSans-86"/>
      <use x="296.529297" xlink:href="#DejaVuSans-93"/>
     </g>
    </g>
    <g id="line2d_20">
     <path d="M 282.654232 35.312337 
L 302.654232 35.312337 
" style="fill:none;stroke:#ff0000;stroke-linecap:square;stroke-width:1.5;"/>
    </g>
    <g id="line2d_21"/>
    <g id="text_16">
     <!-- Vout (R4=100 kΩ) -->
     <g transform="translate(310.654232 38.812337)scale(0.1 -0.1)">
      <defs>
       <path d="M 30.609375 48.390625 
Q 23.390625 48.390625 19.1875 42.75 
Q 14.984375 37.109375 14.984375 27.296875 
Q 14.984375 17.484375 19.15625 11.84375 
Q 23.34375 6.203125 30.609375 6.203125 
Q 37.796875 6.203125 41.984375 11.859375 
Q 46.1875 17.53125 46.1875 27.296875 
Q 46.1875 37.015625 41.984375 42.703125 
Q 37.796875 48.390625 30.609375 48.390625 
z
M 30.609375 56 
Q 42.328125 56 49.015625 48.375 
Q 55.71875 40.765625 55.71875 27.296875 
Q 55.71875 13.875 49.015625 6.21875 
Q 42.328125 -1.421875 30.609375 -1.421875 
Q 18.84375 -1.421875 12.171875 6.21875 
Q 5.515625 13.875 5.515625 27.296875 
Q 5.515625 40.765625 12.171875 48.375 
Q 18.84375 56 30.609375 56 
z
" id="DejaVuSans-111"/>
       <path d="M 8.5 21.578125 
L 8.5 54.6875 
L 17.484375 54.6875 
L 17.484375 21.921875 
Q 17.484375 14.15625 20.5 10.265625 
Q 23.53125 6.390625 29.59375 6.390625 
Q 36.859375 6.390625 41.078125 11.03125 
Q 45.3125 15.671875 45.3125 23.6875 
L 45.3125 54.6875 
L 54.296875 54.6875 
L 54.296875 0 
L 45.3125 0 
L 45.3125 8.40625 
Q 42.046875 3.421875 37.71875 1 
Q 33.40625 -1.421875 27.6875 -1.421875 
Q 18.265625 -1.421875 13.375 4.4375 
Q 8.5 10.296875 8.5 21.578125 
z
M 31.109375 56 
z
" id="DejaVuSans-117"/>
       <path d="M 44.390625 34.1875 
Q 47.5625 33.109375 50.5625 29.59375 
Q 53.5625 26.078125 56.59375 19.921875 
L 66.609375 0 
L 56 0 
L 46.6875 18.703125 
Q 43.0625 26.03125 39.671875 28.421875 
Q 36.28125 30.8125 30.421875 30.8125 
L 19.671875 30.8125 
L 19.671875 0 
L 9.8125 0 
L 9.8125 72.90625 
L 32.078125 72.90625 
Q 44.578125 72.90625 50.734375 67.671875 
Q 56.890625 62.453125 56.890625 51.90625 
Q 56.890625 45.015625 53.6875 40.46875 
Q 50.484375 35.9375 44.390625 34.1875 
z
M 19.671875 64.796875 
L 19.671875 38.921875 
L 32.078125 38.921875 
Q 39.203125 38.921875 42.84375 42.21875 
Q 46.484375 45.515625 46.484375 51.90625 
Q 46.484375 58.296875 42.84375 61.546875 
Q 39.203125 64.796875 32.078125 64.796875 
z
" id="DejaVuSans-82"/>
       <path d="M 10.59375 45.40625 
L 73.1875 45.40625 
L 73.1875 37.203125 
L 10.59375 37.203125 
z
M 10.59375 25.484375 
L 73.1875 25.484375 
L 73.1875 17.1875 
L 10.59375 17.1875 
z
" id="DejaVuSans-61"/>
       <path d="M 9.078125 75.984375 
L 18.109375 75.984375 
L 18.109375 31.109375 
L 44.921875 54.6875 
L 56.390625 54.6875 
L 27.390625 29.109375 
L 57.625 0 
L 45.90625 0 
L 18.109375 26.703125 
L 18.109375 0 
L 9.078125 0 
z
" id="DejaVuSans-107"/>
       <path d="M 72.609375 8.6875 
L 72.609375 0 
L 43.3125 0 
L 43.3125 8.6875 
Q 51.953125 13.421875 56.78125 21.53125 
Q 61.625 29.640625 61.625 39.5 
Q 61.625 51.21875 55.171875 58.296875 
Q 48.734375 65.375 38.1875 65.375 
Q 27.640625 65.375 21.171875 58.265625 
Q 14.703125 51.171875 14.703125 39.5 
Q 14.703125 29.640625 19.53125 21.53125 
Q 24.421875 13.421875 33.109375 8.6875 
L 33.109375 0 
L 3.8125 0 
L 3.8125 8.6875 
L 19.390625 8.6875 
Q 11.671875 15.484375 8.109375 22.75 
Q 4.59375 30.03125 4.59375 39.015625 
Q 4.59375 54.546875 13.96875 64.15625 
Q 23.296875 73.78125 38.1875 73.78125 
Q 52.984375 73.78125 62.40625 64.15625 
Q 71.78125 54.59375 71.78125 39.5 
Q 71.78125 30.03125 68.3125 22.796875 
Q 64.84375 15.578125 56.984375 8.6875 
z
" id="DejaVuSans-937"/>
      </defs>
      <use xlink:href="#DejaVuSans-86"/>
      <use x="60.658203" xlink:href="#DejaVuSans-111"/>
      <use x="121.839844" xlink:href="#DejaVuSans-117"/>
      <use x="185.21875" xlink:href="#DejaVuSans-116"/>
      <use x="224.427734" xlink:href="#DejaVuSans-32"/>
      <use x="256.214844" xlink:href="#DejaVuSans-40"/>
      <use x="295.228516" xlink:href="#DejaVuSans-82"/>
      <use x="364.710938" xlink:href="#DejaVuSans-52"/>
      <use x="428.333984" xlink:href="#DejaVuSans-61"/>
      <use x="512.123047" xlink:href="#DejaVuSans-49"/>
      <use x="575.746094" xlink:href="#DejaVuSans-48"/>
      <use x="639.369141" xlink:href="#DejaVuSans-48"/>
      <use x="702.992188" xlink:href="#DejaVuSans-32"/>
      <use x="734.779297" xlink:href="#DejaVuSans-107"/>
      <use x="792.689453" xlink:href="#DejaVuSans-937"/>
      <use x="869.105469" xlink:href="#DejaVuSans-41"/>
     </g>
    </g>
    <g id="line2d_22">
     <path d="M 282.654232 49.990462 
L 302.654232 49.990462 
" style="fill:none;stroke:#1f77b4;stroke-linecap:square;stroke-width:1.5;"/>
    </g>
    <g id="line2d_23"/>
    <g id="text_17">
     <!-- Vout (R4=500 kΩ) -->
     <g transform="translate(310.654232 53.490462)scale(0.1 -0.1)">
      <defs>
       <path d="M 10.796875 72.90625 
L 49.515625 72.90625 
L 49.515625 64.59375 
L 19.828125 64.59375 
L 19.828125 46.734375 
Q 21.96875 47.46875 24.109375 47.828125 
Q 26.265625 48.1875 28.421875 48.1875 
Q 40.625 48.1875 47.75 41.5 
Q 54.890625 34.8125 54.890625 23.390625 
Q 54.890625 11.625 47.5625 5.09375 
Q 40.234375 -1.421875 26.90625 -1.421875 
Q 22.3125 -1.421875 17.546875 -0.640625 
Q 12.796875 0.140625 7.71875 1.703125 
L 7.71875 11.625 
Q 12.109375 9.234375 16.796875 8.0625 
Q 21.484375 6.890625 26.703125 6.890625 
Q 35.15625 6.890625 40.078125 11.328125 
Q 45.015625 15.765625 45.015625 23.390625 
Q 45.015625 31 40.078125 35.4375 
Q 35.15625 39.890625 26.703125 39.890625 
Q 22.75 39.890625 18.8125 39.015625 
Q 14.890625 38.140625 10.796875 36.28125 
z
" id="DejaVuSans-53"/>
      </defs>
      <use xlink:href="#DejaVuSans-86"/>
      <use x="60.658203" xlink:href="#DejaVuSans-111"/>
      <use x="121.839844" xlink:href="#DejaVuSans-117"/>
      <use x="185.21875" xlink:href="#DejaVuSans-116"/>
      <use x="224.427734" xlink:href="#DejaVuSans-32"/>
      <use x="256.214844" xlink:href="#DejaVuSans-40"/>
      <use x="295.228516" xlink:href="#DejaVuSans-82"/>
      <use x="364.710938" xlink:href="#DejaVuSans-52"/>
      <use x="428.333984" xlink:href="#DejaVuSans-61"/>
      <use x="512.123047" xlink:href="#DejaVuSans-53"/>
      <use x="575.746094" xlink:href="#DejaVuSans-48"/>
      <use x="639.369141" xlink:href="#DejaVuSans-48"/>
      <use x="702.992188" xlink:href="#DejaVuSans-32"/>
      <use x="734.779297" xlink:href="#DejaVuSans-107"/>
      <use x="792.689453" xlink:href="#DejaVuSans-937"/>
      <use x="869.105469" xlink:href="#DejaVuSans-41"/>
     </g>
    </g>
    <g id="line2d_24">
     <path d="M 282.654232 64.668588 
L 302.654232 64.668588 
" style="fill:none;stroke:#ff7f0e;stroke-linecap:square;stroke-width:1.5;"/>
    </g>
    <g id="line2d_25"/>
    <g id="text_18">
     <!-- Vout (R4=1 MΩ) -->
     <g transform="translate(310.654232 68.168588)scale(0.1 -0.1)">
      <defs>
       <path d="M 9.8125 72.90625 
L 24.515625 72.90625 
L 43.109375 23.296875 
L 61.8125 72.90625 
L 76.515625 72.90625 
L 76.515625 0 
L 66.890625 0 
L 66.890625 64.015625 
L 48.09375 14.015625 
L 38.1875 14.015625 
L 19.390625 64.015625 
L 19.390625 0 
L 9.8125 0 
z
" id="DejaVuSans-77"/>
      </defs>
      <use xlink:href="#DejaVuSans-86"/>
      <use x="60.658203" xlink:href="#DejaVuSans-111"/>
      <use x="121.839844" xlink:href="#DejaVuSans-117"/>
      <use x="185.21875" xlink:href="#DejaVuSans-116"/>
      <use x="224.427734" xlink:href="#DejaVuSans-32"/>
      <use x="256.214844" xlink:href="#DejaVuSans-40"/>
      <use x="295.228516" xlink:href="#DejaVuSans-82"/>
      <use x="364.710938" xlink:href="#DejaVuSans-52"/>
      <use x="428.333984" xlink:href="#DejaVuSans-61"/>
      <use x="512.123047" xlink:href="#DejaVuSans-49"/>
      <use x="575.746094" xlink:href="#DejaVuSans-32"/>
      <use x="607.533203" xlink:href="#DejaVuSans-77"/>
      <use x="693.8125" xlink:href="#DejaVuSans-937"/>
      <use x="770.228516" xlink:href="#DejaVuSans-41"/>
     </g>
    </g>
    <g id="line2d_26">
     <path d="M 282.654232 79.346712 
L 302.654232 79.346712 
" style="fill:none;stroke:#2ca02c;stroke-linecap:square;stroke-width:1.5;"/>
    </g>
    <g id="line2d_27"/>
    <g id="text_19">
     <!-- Vout (R4=10 MΩ) -->
     <g transform="translate(310.654232 82.846712)scale(0.1 -0.1)">
      <use xlink:href="#DejaVuSans-86"/>
      <use x="60.658203" xlink:href="#DejaVuSans-111"/>
      <use x="121.839844" xlink:href="#DejaVuSans-117"/>
      <use x="185.21875" xlink:href="#DejaVuSans-116"/>
      <use x="224.427734" xlink:href="#DejaVuSans-32"/>
      <use x="256.214844" xlink:href="#DejaVuSans-40"/>
      <use x="295.228516" xlink:href="#DejaVuSans-82"/>
      <use x="364.710938" xlink:href="#DejaVuSans-52"/>
      <use x="428.333984" xlink:href="#DejaVuSans-61"/>
      <use x="512.123047" xlink:href="#DejaVuSans-49"/>
      <use x="575.746094" xlink:href="#DejaVuSans-48"/>
      <use x="639.369141" xlink:href="#DejaVuSans-32"/>
      <use x="671.15625" xlink:href="#DejaVuSans-77"/>
      <use x="757.435547" xlink:href="#DejaVuSans-937"/>
      <use x="833.851562" xlink:href="#DejaVuSans-41"/>
     </g>
    </g>
   </g>
  </g>
 </g>
 <defs>
  <clipPath id="p17c03ede4b">
   <rect height="233.504" width="368.803" x="42.620313" y="7.2"/>
  </clipPath>
 </defs>
</svg>
