<?xml version="1.0" encoding="utf-8" standalone="no"?>
<!DOCTYPE svg PUBLIC "-//W3C//DTD SVG 1.1//EN"
  "http://www.w3.org/Graphics/SVG/1.1/DTD/svg11.dtd">
<!-- Created with matplotlib (https://matplotlib.org/) -->
<svg height="158.254pt" version="1.1" viewBox="0 0 387.72 158.254" width="387.72pt" xmlns="http://www.w3.org/2000/svg" xmlns:xlink="http://www.w3.org/1999/xlink">
 <metadata>
  <rdf:RDF xmlns:cc="http://creativecommons.org/ns#" xmlns:dc="http://purl.org/dc/elements/1.1/" xmlns:rdf="http://www.w3.org/1999/02/22-rdf-syntax-ns#">
   <cc:Work>
    <dc:type rdf:resource="http://purl.org/dc/dcmitype/StillImage"/>
    <dc:date>2021-03-28T13:16:17.820787</dc:date>
    <dc:format>image/svg+xml</dc:format>
    <dc:creator>
     <cc:Agent>
      <dc:title>Matplotlib v3.3.4, https://matplotlib.org/</dc:title>
     </cc:Agent>
    </dc:creator>
   </cc:Work>
  </rdf:RDF>
 </metadata>
 <defs>
  <style type="text/css">*{stroke-linecap:butt;stroke-linejoin:round;}</style>
 </defs>
 <g id="figure_1">
  <g id="patch_1">
   <path d="M 0 158.254 
L 387.72 158.254 
L 387.72 0 
L 0 0 
z
" style="fill:none;"/>
  </g>
  <g id="axes_1">
   <g id="patch_2">
    <path clip-path="url(#p591c485e32)" d="M 56.16 67.21 
L 46.5975 76.7725 
L 10.26 76.7725 
L 10.26 57.6475 
L 46.5975 57.6475 
z
" style="fill:none;stroke:#000000;stroke-linecap:round;stroke-width:0.9;"/>
   </g>
   <g id="patch_3">
    <path clip-path="url(#p591c485e32)" d="M 224.46 70.882 
C 225.433826 70.882 226.367897 70.495095 227.056496 69.806496 
C 227.745095 69.117897 228.132 68.183826 228.132 67.21 
C 228.132 66.236174 227.745095 65.302103 227.056496 64.613504 
C 226.367897 63.924905 225.433826 63.538 224.46 63.538 
C 223.486174 63.538 222.552103 63.924905 221.863504 64.613504 
C 221.174905 65.302103 220.788 66.236174 220.788 67.21 
C 220.788 68.183826 221.174905 69.117897 221.863504 69.806496 
C 222.552103 70.495095 223.486174 70.882 224.46 70.882 
z
" style="fill:none;stroke:#000000;stroke-linejoin:miter;stroke-width:0.9;"/>
   </g>
   <g id="patch_4">
    <path clip-path="url(#p591c485e32)" d="M 331.56 67.21 
L 341.1225 57.6475 
L 377.46 57.6475 
L 377.46 76.7725 
L 341.1225 76.7725 
z
" style="fill:none;stroke:#000000;stroke-linecap:round;stroke-width:0.9;"/>
   </g>
   <g id="line2d_1">
    <path clip-path="url(#p591c485e32)" d="M 56.16 67.21 
L 71.46 67.21 
L 74.01 59.56 
L 79.11 74.86 
L 84.21 59.56 
L 89.31 74.86 
L 94.41 59.56 
L 99.51 74.86 
L 102.06 67.21 
L 117.36 67.21 
" style="fill:none;stroke:#000000;stroke-linecap:round;stroke-width:0.9;"/>
   </g>
   <g id="line2d_2">
    <path clip-path="url(#p591c485e32)" d="M 117.36 67.21 
L 145.206 67.21 
M 145.206 59.56 
L 145.206 74.86 
M 150.714 59.56 
L 150.714 74.86 
M 150.714 67.21 
L 178.56 67.21 
" style="fill:none;stroke:#000000;stroke-linecap:round;stroke-width:0.9;"/>
   </g>
   <g id="line2d_3">
    <path clip-path="url(#p591c485e32)" d="M 178.56 67.21 
L 190.188 67.21 
L 200.898 67.21 
M 228.132 67.21 
L 239.76 67.21 
" style="fill:none;stroke:#000000;stroke-linecap:round;stroke-width:0.9;"/>
   </g>
   <g id="line2d_4">
    <path clip-path="url(#p591c485e32)" d="M 228.132 67.21 
L 231.498 67.21 
" style="fill:none;stroke:#000000;stroke-linecap:round;stroke-width:0.9;"/>
   </g>
   <g id="line2d_5">
    <path clip-path="url(#p591c485e32)" d="M 200.898 67.21 
L 200.898 82.51 
L 220.788 67.21 
L 200.898 51.91 
L 200.898 67.21 
" style="fill:none;stroke:#000000;stroke-linecap:round;stroke-width:0.9;"/>
   </g>
   <g id="line2d_6">
    <path clip-path="url(#p591c485e32)" d="M 239.76 67.21 
L 267.606 67.21 
M 267.606 59.56 
L 267.606 74.86 
M 273.114 59.56 
L 273.114 74.86 
M 273.114 67.21 
L 300.96 67.21 
" style="fill:none;stroke:#000000;stroke-linecap:round;stroke-width:0.9;"/>
   </g>
   <g id="line2d_7">
    <path clip-path="url(#p591c485e32)" d="M 300.96 67.21 
L 300.96 82.51 
L 308.61 85.06 
L 293.31 90.16 
L 308.61 95.26 
L 293.31 100.36 
L 308.61 105.46 
L 293.31 110.56 
L 300.96 113.11 
L 300.96 128.41 
" style="fill:none;stroke:#000000;stroke-linecap:round;stroke-width:0.9;"/>
   </g>
   <g id="line2d_8">
    <path clip-path="url(#p591c485e32)" d="M 300.96 128.41 
L 300.96 140.65 
L 293.31 140.65 
L 308.61 140.65 
M 295.605 144.322 
L 306.315 144.322 
M 299.43 147.994 
L 302.49 147.994 
" style="fill:none;stroke:#000000;stroke-linecap:round;stroke-width:0.9;"/>
   </g>
   <g id="line2d_9">
    <path clip-path="url(#p591c485e32)" d="M 178.56 67.21 
L 178.56 51.91 
L 178.56 36.61 
" style="fill:none;stroke:#000000;stroke-linecap:round;stroke-width:0.9;"/>
   </g>
   <g id="line2d_10">
    <path clip-path="url(#p591c485e32)" d="M 178.56 36.61 
L 193.86 36.61 
L 196.41 28.96 
L 201.51 44.26 
L 206.61 28.96 
L 211.71 44.26 
L 216.81 28.96 
L 221.91 44.26 
L 224.46 36.61 
L 239.76 36.61 
" style="fill:none;stroke:#000000;stroke-linecap:round;stroke-width:0.9;"/>
   </g>
   <g id="line2d_11">
    <path clip-path="url(#p591c485e32)" d="M 239.76 36.61 
L 239.76 51.91 
L 239.76 67.21 
" style="fill:none;stroke:#000000;stroke-linecap:round;stroke-width:0.9;"/>
   </g>
   <g id="line2d_12">
    <path clip-path="url(#p591c485e32)" d="M 300.96 67.21 
L 316.26 67.21 
L 331.56 67.21 
" style="fill:none;stroke:#000000;stroke-linecap:round;stroke-width:0.9;"/>
   </g>
   <g id="text_1">
    <!-- IN -->
    <g transform="translate(26.95125 70.52125)scale(0.12 -0.12)">
     <defs>
      <path d="M 9.8125 72.90625 
L 19.671875 72.90625 
L 19.671875 0 
L 9.8125 0 
z
" id="DejaVuSans-73"/>
      <path d="M 9.8125 72.90625 
L 23.09375 72.90625 
L 55.421875 11.921875 
L 55.421875 72.90625 
L 64.984375 72.90625 
L 64.984375 0 
L 51.703125 0 
L 19.390625 60.984375 
L 19.390625 0 
L 9.8125 0 
z
" id="DejaVuSans-78"/>
     </defs>
     <use xlink:href="#DejaVuSans-73"/>
     <use x="29.492188" xlink:href="#DejaVuSans-78"/>
    </g>
   </g>
   <g id="text_2">
    <!-- $R_1$ -->
    <g transform="translate(78.57 53.588437)scale(0.14 -0.14)">
     <defs>
      <path d="M 25.203125 64.796875 
L 20.21875 38.921875 
L 32.90625 38.921875 
Q 40.375 38.921875 44.984375 43.046875 
Q 49.609375 47.171875 49.609375 53.8125 
Q 49.609375 59.125 46.5 61.953125 
Q 43.40625 64.796875 37.59375 64.796875 
z
M 43.3125 35.015625 
Q 46.4375 34.28125 48.515625 31.390625 
Q 50.59375 28.515625 53.328125 19.921875 
L 59.515625 0 
L 49.125 0 
L 43.40625 18.703125 
Q 41.21875 25.921875 38.328125 28.359375 
Q 35.453125 30.8125 29.5 30.8125 
L 18.609375 30.8125 
L 12.59375 0 
L 2.6875 0 
L 16.890625 72.90625 
L 39.109375 72.90625 
Q 49.21875 72.90625 54.609375 68.328125 
Q 60.015625 63.765625 60.015625 55.171875 
Q 60.015625 47.5625 55.421875 41.984375 
Q 50.828125 36.421875 43.3125 35.015625 
z
" id="DejaVuSans-Oblique-82"/>
      <path d="M 12.40625 8.296875 
L 28.515625 8.296875 
L 28.515625 63.921875 
L 10.984375 60.40625 
L 10.984375 69.390625 
L 28.421875 72.90625 
L 38.28125 72.90625 
L 38.28125 8.296875 
L 54.390625 8.296875 
L 54.390625 0 
L 12.40625 0 
z
" id="DejaVuSans-49"/>
     </defs>
     <use transform="translate(0 0.09375)" xlink:href="#DejaVuSans-Oblique-82"/>
     <use transform="translate(69.482422 -16.3125)scale(0.7)" xlink:href="#DejaVuSans-49"/>
    </g>
   </g>
   <g id="text_3">
    <!-- $C_1$ -->
    <g transform="translate(139.7 53.588437)scale(0.14 -0.14)">
     <defs>
      <path d="M 69.484375 67.28125 
L 67.484375 56.890625 
Q 62.796875 61.625 57.546875 63.921875 
Q 52.296875 66.21875 46.1875 66.21875 
Q 37.84375 66.21875 31.515625 62.203125 
Q 25.203125 58.203125 20.609375 50 
Q 17.671875 44.734375 16.125 38.84375 
Q 14.59375 32.953125 14.59375 27 
Q 14.59375 17.046875 19.75 11.8125 
Q 24.90625 6.59375 34.71875 6.59375 
Q 41.5 6.59375 47.75 8.765625 
Q 54 10.9375 59.90625 15.28125 
L 57.625 3.609375 
Q 51.8125 1.125 45.875 -0.140625 
Q 39.9375 -1.421875 33.984375 -1.421875 
Q 19.96875 -1.421875 12.078125 6.1875 
Q 4.203125 13.8125 4.203125 27.390625 
Q 4.203125 36.078125 7.203125 44.46875 
Q 10.203125 52.875 15.828125 59.8125 
Q 21.78125 67.1875 29.421875 70.703125 
Q 37.0625 74.21875 47.21875 74.21875 
Q 53.46875 74.21875 59.0625 72.484375 
Q 64.65625 70.75 69.484375 67.28125 
z
" id="DejaVuSans-Oblique-67"/>
     </defs>
     <use transform="translate(0 0.78125)" xlink:href="#DejaVuSans-Oblique-67"/>
     <use transform="translate(69.824219 -15.625)scale(0.7)" xlink:href="#DejaVuSans-49"/>
    </g>
   </g>
   <g id="text_4">
    <!-- $C_2$ -->
    <g transform="translate(262.1 53.588437)scale(0.14 -0.14)">
     <defs>
      <path d="M 19.1875 8.296875 
L 53.609375 8.296875 
L 53.609375 0 
L 7.328125 0 
L 7.328125 8.296875 
Q 12.9375 14.109375 22.625 23.890625 
Q 32.328125 33.6875 34.8125 36.53125 
Q 39.546875 41.84375 41.421875 45.53125 
Q 43.3125 49.21875 43.3125 52.78125 
Q 43.3125 58.59375 39.234375 62.25 
Q 35.15625 65.921875 28.609375 65.921875 
Q 23.96875 65.921875 18.8125 64.3125 
Q 13.671875 62.703125 7.8125 59.421875 
L 7.8125 69.390625 
Q 13.765625 71.78125 18.9375 73 
Q 24.125 74.21875 28.421875 74.21875 
Q 39.75 74.21875 46.484375 68.546875 
Q 53.21875 62.890625 53.21875 53.421875 
Q 53.21875 48.921875 51.53125 44.890625 
Q 49.859375 40.875 45.40625 35.40625 
Q 44.1875 33.984375 37.640625 27.21875 
Q 31.109375 20.453125 19.1875 8.296875 
z
" id="DejaVuSans-50"/>
     </defs>
     <use transform="translate(0 0.78125)" xlink:href="#DejaVuSans-Oblique-67"/>
     <use transform="translate(69.824219 -15.625)scale(0.7)" xlink:href="#DejaVuSans-50"/>
    </g>
   </g>
   <g id="text_5">
    <!-- $R_l$ -->
    <g transform="translate(277.37 101.673125)scale(0.14 -0.14)">
     <defs>
      <path d="M 18.3125 75.984375 
L 27.296875 75.984375 
L 12.5 0 
L 3.515625 0 
z
" id="DejaVuSans-Oblique-108"/>
     </defs>
     <use transform="translate(0 0.09375)" xlink:href="#DejaVuSans-Oblique-82"/>
     <use transform="translate(69.482422 -16.3125)scale(0.7)" xlink:href="#DejaVuSans-Oblique-108"/>
    </g>
   </g>
   <g id="text_6">
    <!-- $R_2$ -->
    <g transform="translate(200.97 22.988437)scale(0.14 -0.14)">
     <use transform="translate(0 0.09375)" xlink:href="#DejaVuSans-Oblique-82"/>
     <use transform="translate(69.482422 -16.3125)scale(0.7)" xlink:href="#DejaVuSans-50"/>
    </g>
   </g>
   <g id="text_7">
    <!-- OUT -->
    <g transform="translate(341.730938 70.52125)scale(0.12 -0.12)">
     <defs>
      <path d="M 39.40625 66.21875 
Q 28.65625 66.21875 22.328125 58.203125 
Q 16.015625 50.203125 16.015625 36.375 
Q 16.015625 22.609375 22.328125 14.59375 
Q 28.65625 6.59375 39.40625 6.59375 
Q 50.140625 6.59375 56.421875 14.59375 
Q 62.703125 22.609375 62.703125 36.375 
Q 62.703125 50.203125 56.421875 58.203125 
Q 50.140625 66.21875 39.40625 66.21875 
z
M 39.40625 74.21875 
Q 54.734375 74.21875 63.90625 63.9375 
Q 73.09375 53.65625 73.09375 36.375 
Q 73.09375 19.140625 63.90625 8.859375 
Q 54.734375 -1.421875 39.40625 -1.421875 
Q 24.03125 -1.421875 14.8125 8.828125 
Q 5.609375 19.09375 5.609375 36.375 
Q 5.609375 53.65625 14.8125 63.9375 
Q 24.03125 74.21875 39.40625 74.21875 
z
" id="DejaVuSans-79"/>
      <path d="M 8.6875 72.90625 
L 18.609375 72.90625 
L 18.609375 28.609375 
Q 18.609375 16.890625 22.84375 11.734375 
Q 27.09375 6.59375 36.625 6.59375 
Q 46.09375 6.59375 50.34375 11.734375 
Q 54.59375 16.890625 54.59375 28.609375 
L 54.59375 72.90625 
L 64.5 72.90625 
L 64.5 27.390625 
Q 64.5 13.140625 57.4375 5.859375 
Q 50.390625 -1.421875 36.625 -1.421875 
Q 22.796875 -1.421875 15.734375 5.859375 
Q 8.6875 13.140625 8.6875 27.390625 
z
" id="DejaVuSans-85"/>
      <path d="M -0.296875 72.90625 
L 61.375 72.90625 
L 61.375 64.59375 
L 35.5 64.59375 
L 35.5 0 
L 25.59375 0 
L 25.59375 64.59375 
L -0.296875 64.59375 
z
" id="DejaVuSans-84"/>
     </defs>
     <use xlink:href="#DejaVuSans-79"/>
     <use x="78.710938" xlink:href="#DejaVuSans-85"/>
     <use x="151.904297" xlink:href="#DejaVuSans-84"/>
    </g>
   </g>
   <g id="patch_5">
    <path clip-path="url(#p591c485e32)" d="M 178.56 69.505 
C 179.168641 69.505 179.752436 69.263184 180.18281 68.83281 
C 180.613184 68.402436 180.855 67.818641 180.855 67.21 
C 180.855 66.601359 180.613184 66.017564 180.18281 65.58719 
C 179.752436 65.156816 179.168641 64.915 178.56 64.915 
C 177.951359 64.915 177.367564 65.156816 176.93719 65.58719 
C 176.506816 66.017564 176.265 66.601359 176.265 67.21 
C 176.265 67.818641 176.506816 68.402436 176.93719 68.83281 
C 177.367564 69.263184 177.951359 69.505 178.56 69.505 
z
" style="stroke:#000000;stroke-linejoin:miter;stroke-width:0.9;"/>
   </g>
   <g id="patch_6">
    <path clip-path="url(#p591c485e32)" d="M 239.76 69.505 
C 240.368641 69.505 240.952436 69.263184 241.38281 68.83281 
C 241.813184 68.402436 242.055 67.818641 242.055 67.21 
C 242.055 66.601359 241.813184 66.017564 241.38281 65.58719 
C 240.952436 65.156816 240.368641 64.915 239.76 64.915 
C 239.151359 64.915 238.567564 65.156816 238.13719 65.58719 
C 237.706816 66.017564 237.465 66.601359 237.465 67.21 
C 237.465 67.818641 237.706816 68.402436 238.13719 68.83281 
C 238.567564 69.263184 239.151359 69.505 239.76 69.505 
z
" style="stroke:#000000;stroke-linejoin:miter;stroke-width:0.9;"/>
   </g>
   <g id="patch_7">
    <path clip-path="url(#p591c485e32)" d="M 300.96 69.505 
C 301.568641 69.505 302.152436 69.263184 302.58281 68.83281 
C 303.013184 68.402436 303.255 67.818641 303.255 67.21 
C 303.255 66.601359 303.013184 66.017564 302.58281 65.58719 
C 302.152436 65.156816 301.568641 64.915 300.96 64.915 
C 300.351359 64.915 299.767564 65.156816 299.33719 65.58719 
C 298.906816 66.017564 298.665 66.601359 298.665 67.21 
C 298.665 67.818641 298.906816 68.402436 299.33719 68.83281 
C 299.767564 69.263184 300.351359 69.505 300.96 69.505 
z
" style="stroke:#000000;stroke-linejoin:miter;stroke-width:0.9;"/>
   </g>
  </g>
 </g>
 <defs>
  <clipPath id="p591c485e32">
   <rect height="143.854" width="373.32" x="7.2" y="7.2"/>
  </clipPath>
 </defs>
</svg>
