<?xml version="1.0" standalone="no"?>
 <!DOCTYPE svg PUBLIC "-//W3C//DTD SVG 1.1//EN" 
 "http://www.w3.org/Graphics/SVG/1.1/DTD/svg11.dtd"> 
<svg
  xmlns:svg="http://www.w3.org/2000/svg"
  xmlns="http://www.w3.org/2000/svg"
  xmlns:xlink="http://www.w3.org/1999/xlink"
  version="1.1"
  width="297.0022mm" height="210.0072mm" viewBox="0.0000 0.0000 297.0022 210.0072">
<title>SVG Image created as panel-F_Mask.svg date 2023/11/07 21:19:07 </title>
  <desc>Image generated by PCBNEW </desc>
<g style="fill:#000000; fill-opacity:1.0000;stroke:#000000; stroke-opacity:1.0000;
stroke-linecap:round; stroke-linejoin:round;"
 transform="translate(0 0) scale(1 1)">
</g>
<g style="fill:#000000; fill-opacity:0.0; 
stroke:#000000; stroke-width:0.0000; stroke-opacity:1; 
stroke-linecap:round; stroke-linejoin:round;">
</g>
<g style="fill:#000000; fill-opacity:0.0; 
stroke:#000000; stroke-width:0.2500; stroke-opacity:1; 
stroke-linecap:round; stroke-linejoin:round;">
<text x="71.1200" y="77.2000"
textLength="3.2033" font-size="1.8667" lengthAdjust="spacingAndGlyphs"
text-anchor="middle" opacity="0">#1</text>
<g class="stroked-text"><desc>#1</desc>
<path d="M70.0200 75.7789
L71.0200 75.7789
" />
<path d="M70.4200 74.9218
L70.0200 77.4932
" />
<path d="M70.8867 76.6360
L69.8867 76.6360
" />
<path d="M70.4867 77.4932
L70.8867 74.9218
" />
<path d="M72.2200 77.1122
L71.4200 77.1122
" />
<path d="M71.8200 77.1122
L71.8200 75.1122
" />
<path d="M71.8200 75.1122
L71.6867 75.3980
" />
<path d="M71.6867 75.3980
L71.5533 75.5884
" />
<path d="M71.5533 75.5884
L71.4200 75.6837
" />
</g><text x="71.1200" y="138.1600"
textLength="3.2033" font-size="1.8667" lengthAdjust="spacingAndGlyphs"
text-anchor="middle" opacity="0">#4</text>
<g class="stroked-text"><desc>#4</desc>
<path d="M70.0200 136.7389
L71.0200 136.7389
" />
<path d="M70.4200 135.8818
L70.0200 138.4532
" />
<path d="M70.8867 137.5960
L69.8867 137.5960
" />
<path d="M70.4867 138.4532
L70.8867 135.8818
" />
<path d="M72.0867 136.7389
L72.0867 138.0722
" />
<path d="M71.7533 135.9770
L71.4200 137.4056
" />
<path d="M71.4200 137.4056
L72.2867 137.4056
" />
</g></g>
<g style="fill:#000000; fill-opacity:0.0; 
stroke:#000000; stroke-width:0.3500; stroke-opacity:1; 
stroke-linecap:round; stroke-linejoin:round;">
<text x="73.6600" y="55.3000"
textLength="16.1643" font-size="4.0000" lengthAdjust="spacingAndGlyphs"
text-anchor="middle" opacity="0">summe</text>
<g class="stroked-text"><desc>summe</desc>
<path d="M66.3743 55.0268
L66.6600 55.1697
" />
<path d="M66.6600 55.1697
L67.2314 55.1697
" />
<path d="M67.2314 55.1697
L67.5171 55.0268
" />
<path d="M67.5171 55.0268
L67.6600 54.7411
" />
<path d="M67.6600 54.7411
L67.6600 54.5982
" />
<path d="M67.6600 54.5982
L67.5171 54.3125
" />
<path d="M67.5171 54.3125
L67.2314 54.1697
" />
<path d="M67.2314 54.1697
L66.8029 54.1697
" />
<path d="M66.8029 54.1697
L66.5171 54.0268
" />
<path d="M66.5171 54.0268
L66.3743 53.7411
" />
<path d="M66.3743 53.7411
L66.3743 53.5982
" />
<path d="M66.3743 53.5982
L66.5171 53.3125
" />
<path d="M66.5171 53.3125
L66.8029 53.1697
" />
<path d="M66.8029 53.1697
L67.2314 53.1697
" />
<path d="M67.2314 53.1697
L67.5171 53.3125
" />
<path d="M70.2314 53.1697
L70.2314 55.1697
" />
<path d="M68.9457 53.1697
L68.9457 54.7411
" />
<path d="M68.9457 54.7411
L69.0886 55.0268
" />
<path d="M69.0886 55.0268
L69.3743 55.1697
" />
<path d="M69.3743 55.1697
L69.8029 55.1697
" />
<path d="M69.8029 55.1697
L70.0886 55.0268
" />
<path d="M70.0886 55.0268
L70.2314 54.8839
" />
<path d="M71.6600 55.1697
L71.6600 53.1697
" />
<path d="M71.6600 53.4554
L71.8029 53.3125
" />
<path d="M71.8029 53.3125
L72.0886 53.1697
" />
<path d="M72.0886 53.1697
L72.5171 53.1697
" />
<path d="M72.5171 53.1697
L72.8029 53.3125
" />
<path d="M72.8029 53.3125
L72.9457 53.5982
" />
<path d="M72.9457 53.5982
L72.9457 55.1697
" />
<path d="M72.9457 53.5982
L73.0886 53.3125
" />
<path d="M73.0886 53.3125
L73.3743 53.1697
" />
<path d="M73.3743 53.1697
L73.8029 53.1697
" />
<path d="M73.8029 53.1697
L74.0886 53.3125
" />
<path d="M74.0886 53.3125
L74.2314 53.5982
" />
<path d="M74.2314 53.5982
L74.2314 55.1697
" />
<path d="M75.6600 55.1697
L75.6600 53.1697
" />
<path d="M75.6600 53.4554
L75.8029 53.3125
" />
<path d="M75.8029 53.3125
L76.0886 53.1697
" />
<path d="M76.0886 53.1697
L76.5171 53.1697
" />
<path d="M76.5171 53.1697
L76.8029 53.3125
" />
<path d="M76.8029 53.3125
L76.9457 53.5982
" />
<path d="M76.9457 53.5982
L76.9457 55.1697
" />
<path d="M76.9457 53.5982
L77.0886 53.3125
" />
<path d="M77.0886 53.3125
L77.3743 53.1697
" />
<path d="M77.3743 53.1697
L77.8029 53.1697
" />
<path d="M77.8029 53.1697
L78.0886 53.3125
" />
<path d="M78.0886 53.3125
L78.2314 53.5982
" />
<path d="M78.2314 53.5982
L78.2314 55.1697
" />
<path d="M80.8029 55.0268
L80.5171 55.1697
" />
<path d="M80.5171 55.1697
L79.9457 55.1697
" />
<path d="M79.9457 55.1697
L79.6600 55.0268
" />
<path d="M79.6600 55.0268
L79.5171 54.7411
" />
<path d="M79.5171 54.7411
L79.5171 53.5982
" />
<path d="M79.5171 53.5982
L79.6600 53.3125
" />
<path d="M79.6600 53.3125
L79.9457 53.1697
" />
<path d="M79.9457 53.1697
L80.5171 53.1697
" />
<path d="M80.5171 53.1697
L80.8029 53.3125
" />
<path d="M80.8029 53.3125
L80.9457 53.5982
" />
<path d="M80.9457 53.5982
L80.9457 53.8839
" />
<path d="M80.9457 53.8839
L79.5171 54.1697
" />
</g></g>
<g style="fill:#000000; fill-opacity:0.0; 
stroke:#000000; stroke-width:0.2500; stroke-opacity:1; 
stroke-linecap:round; stroke-linejoin:round;">
<text x="71.1200" y="97.5200"
textLength="3.2033" font-size="1.8667" lengthAdjust="spacingAndGlyphs"
text-anchor="middle" opacity="0">#2</text>
<g class="stroked-text"><desc>#2</desc>
<path d="M70.0200 96.0989
L71.0200 96.0989
" />
<path d="M70.4200 95.2418
L70.0200 97.8132
" />
<path d="M70.8867 96.9560
L69.8867 96.9560
" />
<path d="M70.4867 97.8132
L70.8867 95.2418
" />
<path d="M71.4200 95.6227
L71.4867 95.5275
" />
<path d="M71.4867 95.5275
L71.6200 95.4322
" />
<path d="M71.6200 95.4322
L71.9533 95.4322
" />
<path d="M71.9533 95.4322
L72.0867 95.5275
" />
<path d="M72.0867 95.5275
L72.1533 95.6227
" />
<path d="M72.1533 95.6227
L72.2200 95.8132
" />
<path d="M72.2200 95.8132
L72.2200 96.0037
" />
<path d="M72.2200 96.0037
L72.1533 96.2894
" />
<path d="M72.1533 96.2894
L71.3533 97.4322
" />
<path d="M71.3533 97.4322
L72.2200 97.4322
" />
</g><text x="71.1200" y="117.8400"
textLength="3.2033" font-size="1.8667" lengthAdjust="spacingAndGlyphs"
text-anchor="middle" opacity="0">#3</text>
<g class="stroked-text"><desc>#3</desc>
<path d="M70.0200 116.4189
L71.0200 116.4189
" />
<path d="M70.4200 115.5618
L70.0200 118.1332
" />
<path d="M70.8867 117.2760
L69.8867 117.2760
" />
<path d="M70.4867 118.1332
L70.8867 115.5618
" />
<path d="M71.3533 115.7522
L72.2200 115.7522
" />
<path d="M72.2200 115.7522
L71.7533 116.5141
" />
<path d="M71.7533 116.5141
L71.9533 116.5141
" />
<path d="M71.9533 116.5141
L72.0867 116.6094
" />
<path d="M72.0867 116.6094
L72.1533 116.7046
" />
<path d="M72.1533 116.7046
L72.2200 116.8951
" />
<path d="M72.2200 116.8951
L72.2200 117.3713
" />
<path d="M72.2200 117.3713
L72.1533 117.5618
" />
<path d="M72.1533 117.5618
L72.0867 117.6570
" />
<path d="M72.0867 117.6570
L71.9533 117.7522
" />
<path d="M71.9533 117.7522
L71.5533 117.7522
" />
<path d="M71.5533 117.7522
L71.4200 117.6570
" />
<path d="M71.4200 117.6570
L71.3533 117.5618
" />
</g><text x="81.2800" y="167.6240"
textLength="3.8033" font-size="1.8667" lengthAdjust="spacingAndGlyphs"
text-anchor="middle" opacity="0">out</text>
<g class="stroked-text"><desc>out</desc>
<path d="M80.1467 167.5362
L80.0133 167.4410
" />
<path d="M80.0133 167.4410
L79.9467 167.3458
" />
<path d="M79.9467 167.3458
L79.8800 167.1553
" />
<path d="M79.8800 167.1553
L79.8800 166.5839
" />
<path d="M79.8800 166.5839
L79.9467 166.3934
" />
<path d="M79.9467 166.3934
L80.0133 166.2981
" />
<path d="M80.0133 166.2981
L80.1467 166.2029
" />
<path d="M80.1467 166.2029
L80.3467 166.2029
" />
<path d="M80.3467 166.2029
L80.4800 166.2981
" />
<path d="M80.4800 166.2981
L80.5467 166.3934
" />
<path d="M80.5467 166.3934
L80.6133 166.5839
" />
<path d="M80.6133 166.5839
L80.6133 167.1553
" />
<path d="M80.6133 167.1553
L80.5467 167.3458
" />
<path d="M80.5467 167.3458
L80.4800 167.4410
" />
<path d="M80.4800 167.4410
L80.3467 167.5362
" />
<path d="M80.3467 167.5362
L80.1467 167.5362
" />
<path d="M81.8133 166.2029
L81.8133 167.5362
" />
<path d="M81.2133 166.2029
L81.2133 167.2505
" />
<path d="M81.2133 167.2505
L81.2800 167.4410
" />
<path d="M81.2800 167.4410
L81.4133 167.5362
" />
<path d="M81.4133 167.5362
L81.6133 167.5362
" />
<path d="M81.6133 167.5362
L81.7467 167.4410
" />
<path d="M81.7467 167.4410
L81.8133 167.3458
" />
<path d="M82.2800 166.2029
L82.8133 166.2029
" />
<path d="M82.4800 165.5362
L82.4800 167.2505
" />
<path d="M82.4800 167.2505
L82.5467 167.4410
" />
<path d="M82.5467 167.4410
L82.6800 167.5362
" />
<path d="M82.6800 167.5362
L82.8133 167.5362
" />
</g><g >
</g>
<g style="fill:#000000; fill-opacity:1.0000; 
stroke:#000000; stroke-width:0.0000; stroke-opacity:1; 
stroke-linecap:round; stroke-linejoin:round;">
<circle cx="58.3000" cy="53.8000" r="2.5000" /> 
</g>
<g style="fill:#000000; fill-opacity:1.0000; 
stroke:#000000; stroke-width:0.0212; stroke-opacity:1; 
stroke-linecap:round; stroke-linejoin:round;">
</g>
<g style="fill:#000000; fill-opacity:1.0000; 
stroke:#000000; stroke-width:0.0000; stroke-opacity:1; 
stroke-linecap:round; stroke-linejoin:round;">
<circle cx="58.3000" cy="53.8000" r="1.8000" /> 
</g>
<g style="fill:#000000; fill-opacity:1.0000; 
stroke:#000000; stroke-width:0.0212; stroke-opacity:1; 
stroke-linecap:round; stroke-linejoin:round;">
</g>
<g >
</g>
<g style="fill:#000000; fill-opacity:1.0000; 
stroke:#000000; stroke-width:0.0212; stroke-opacity:1; 
stroke-linecap:round; stroke-linejoin:round;">
</g>
<g style="fill:#000000; fill-opacity:1.0000; 
stroke:#000000; stroke-width:0.0000; stroke-opacity:1; 
stroke-linecap:round; stroke-linejoin:round;">
<circle cx="58.3000" cy="176.3000" r="2.5000" /> 
</g>
<g style="fill:#000000; fill-opacity:1.0000; 
stroke:#000000; stroke-width:0.0212; stroke-opacity:1; 
stroke-linecap:round; stroke-linejoin:round;">
</g>
<g style="fill:#000000; fill-opacity:1.0000; 
stroke:#000000; stroke-width:0.0000; stroke-opacity:1; 
stroke-linecap:round; stroke-linejoin:round;">
<circle cx="58.3000" cy="176.3000" r="1.8000" /> 
</g>
<g style="fill:#000000; fill-opacity:1.0000; 
stroke:#000000; stroke-width:0.0212; stroke-opacity:1; 
stroke-linecap:round; stroke-linejoin:round;">
</g>
<g >
</g>
<g style="fill:#000000; fill-opacity:1.0000; 
stroke:#000000; stroke-width:0.0212; stroke-opacity:1; 
stroke-linecap:round; stroke-linejoin:round;">
</g>
<g style="fill:#000000; fill-opacity:1.0000; 
stroke:#000000; stroke-width:0.0000; stroke-opacity:1; 
stroke-linecap:round; stroke-linejoin:round;">
<circle cx="60.9600" cy="71.1200" r="3.2000" /> 
</g>
<g style="fill:#000000; fill-opacity:1.0000; 
stroke:#000000; stroke-width:0.0212; stroke-opacity:1; 
stroke-linecap:round; stroke-linejoin:round;">
</g>
<g >
</g>
<g style="fill:#000000; fill-opacity:1.0000; 
stroke:#000000; stroke-width:0.0212; stroke-opacity:1; 
stroke-linecap:round; stroke-linejoin:round;">
</g>
<g style="fill:#000000; fill-opacity:1.0000; 
stroke:#000000; stroke-width:0.0000; stroke-opacity:1; 
stroke-linecap:round; stroke-linejoin:round;">
<circle cx="60.9600" cy="81.2800" r="3.2000" /> 
</g>
<g style="fill:#000000; fill-opacity:1.0000; 
stroke:#000000; stroke-width:0.0212; stroke-opacity:1; 
stroke-linecap:round; stroke-linejoin:round;">
</g>
<g >
</g>
<g style="fill:#000000; fill-opacity:1.0000; 
stroke:#000000; stroke-width:0.0212; stroke-opacity:1; 
stroke-linecap:round; stroke-linejoin:round;">
</g>
<g style="fill:#000000; fill-opacity:1.0000; 
stroke:#000000; stroke-width:0.0000; stroke-opacity:1; 
stroke-linecap:round; stroke-linejoin:round;">
<circle cx="60.9600" cy="91.4400" r="3.2000" /> 
</g>
<g style="fill:#000000; fill-opacity:1.0000; 
stroke:#000000; stroke-width:0.0212; stroke-opacity:1; 
stroke-linecap:round; stroke-linejoin:round;">
</g>
<g >
</g>
<g style="fill:#000000; fill-opacity:1.0000; 
stroke:#000000; stroke-width:0.0212; stroke-opacity:1; 
stroke-linecap:round; stroke-linejoin:round;">
</g>
<g style="fill:#000000; fill-opacity:1.0000; 
stroke:#000000; stroke-width:0.0000; stroke-opacity:1; 
stroke-linecap:round; stroke-linejoin:round;">
<circle cx="60.9600" cy="100.8900" r="3.2000" /> 
</g>
<g style="fill:#000000; fill-opacity:1.0000; 
stroke:#000000; stroke-width:0.0212; stroke-opacity:1; 
stroke-linecap:round; stroke-linejoin:round;">
</g>
<g >
</g>
<g style="fill:#000000; fill-opacity:1.0000; 
stroke:#000000; stroke-width:0.0212; stroke-opacity:1; 
stroke-linecap:round; stroke-linejoin:round;">
</g>
<g style="fill:#000000; fill-opacity:1.0000; 
stroke:#000000; stroke-width:0.0000; stroke-opacity:1; 
stroke-linecap:round; stroke-linejoin:round;">
<circle cx="60.9600" cy="111.7600" r="3.2000" /> 
</g>
<g style="fill:#000000; fill-opacity:1.0000; 
stroke:#000000; stroke-width:0.0212; stroke-opacity:1; 
stroke-linecap:round; stroke-linejoin:round;">
</g>
<g >
</g>
<g style="fill:#000000; fill-opacity:1.0000; 
stroke:#000000; stroke-width:0.0212; stroke-opacity:1; 
stroke-linecap:round; stroke-linejoin:round;">
</g>
<g style="fill:#000000; fill-opacity:1.0000; 
stroke:#000000; stroke-width:0.0000; stroke-opacity:1; 
stroke-linecap:round; stroke-linejoin:round;">
<circle cx="60.9600" cy="121.9200" r="3.2000" /> 
</g>
<g style="fill:#000000; fill-opacity:1.0000; 
stroke:#000000; stroke-width:0.0212; stroke-opacity:1; 
stroke-linecap:round; stroke-linejoin:round;">
</g>
<g >
</g>
<g style="fill:#000000; fill-opacity:1.0000; 
stroke:#000000; stroke-width:0.0212; stroke-opacity:1; 
stroke-linecap:round; stroke-linejoin:round;">
</g>
<g style="fill:#000000; fill-opacity:1.0000; 
stroke:#000000; stroke-width:0.0000; stroke-opacity:1; 
stroke-linecap:round; stroke-linejoin:round;">
<circle cx="60.9600" cy="132.0800" r="3.2000" /> 
</g>
<g style="fill:#000000; fill-opacity:1.0000; 
stroke:#000000; stroke-width:0.0212; stroke-opacity:1; 
stroke-linecap:round; stroke-linejoin:round;">
</g>
<g >
</g>
<g style="fill:#000000; fill-opacity:1.0000; 
stroke:#000000; stroke-width:0.0212; stroke-opacity:1; 
stroke-linecap:round; stroke-linejoin:round;">
</g>
<g style="fill:#000000; fill-opacity:1.0000; 
stroke:#000000; stroke-width:0.0000; stroke-opacity:1; 
stroke-linecap:round; stroke-linejoin:round;">
<circle cx="60.9600" cy="142.2400" r="3.2000" /> 
</g>
<g style="fill:#000000; fill-opacity:1.0000; 
stroke:#000000; stroke-width:0.0212; stroke-opacity:1; 
stroke-linecap:round; stroke-linejoin:round;">
</g>
<g >
</g>
<g style="fill:#000000; fill-opacity:1.0000; 
stroke:#000000; stroke-width:0.0212; stroke-opacity:1; 
stroke-linecap:round; stroke-linejoin:round;">
</g>
<g style="fill:#000000; fill-opacity:1.0000; 
stroke:#000000; stroke-width:0.0000; stroke-opacity:1; 
stroke-linecap:round; stroke-linejoin:round;">
<circle cx="81.2800" cy="76.2000" r="3.7000" /> 
</g>
<g style="fill:#000000; fill-opacity:1.0000; 
stroke:#000000; stroke-width:0.0212; stroke-opacity:1; 
stroke-linecap:round; stroke-linejoin:round;">
</g>
<g >
</g>
<g style="fill:#000000; fill-opacity:1.0000; 
stroke:#000000; stroke-width:0.0212; stroke-opacity:1; 
stroke-linecap:round; stroke-linejoin:round;">
</g>
<g style="fill:#000000; fill-opacity:1.0000; 
stroke:#000000; stroke-width:0.0000; stroke-opacity:1; 
stroke-linecap:round; stroke-linejoin:round;">
<circle cx="81.2800" cy="96.5200" r="3.7000" /> 
</g>
<g style="fill:#000000; fill-opacity:1.0000; 
stroke:#000000; stroke-width:0.0212; stroke-opacity:1; 
stroke-linecap:round; stroke-linejoin:round;">
</g>
<g >
</g>
<g style="fill:#000000; fill-opacity:1.0000; 
stroke:#000000; stroke-width:0.0212; stroke-opacity:1; 
stroke-linecap:round; stroke-linejoin:round;">
</g>
<g style="fill:#000000; fill-opacity:1.0000; 
stroke:#000000; stroke-width:0.0000; stroke-opacity:1; 
stroke-linecap:round; stroke-linejoin:round;">
<circle cx="81.2800" cy="116.8400" r="3.7000" /> 
</g>
<g style="fill:#000000; fill-opacity:1.0000; 
stroke:#000000; stroke-width:0.0212; stroke-opacity:1; 
stroke-linecap:round; stroke-linejoin:round;">
</g>
<g >
</g>
<g style="fill:#000000; fill-opacity:1.0000; 
stroke:#000000; stroke-width:0.0212; stroke-opacity:1; 
stroke-linecap:round; stroke-linejoin:round;">
</g>
<g style="fill:#000000; fill-opacity:1.0000; 
stroke:#000000; stroke-width:0.0000; stroke-opacity:1; 
stroke-linecap:round; stroke-linejoin:round;">
<circle cx="81.2800" cy="137.1600" r="3.7000" /> 
</g>
<g style="fill:#000000; fill-opacity:1.0000; 
stroke:#000000; stroke-width:0.0212; stroke-opacity:1; 
stroke-linecap:round; stroke-linejoin:round;">
</g>
<g >
</g>
<g style="fill:#000000; fill-opacity:1.0000; 
stroke:#000000; stroke-width:0.0212; stroke-opacity:1; 
stroke-linecap:round; stroke-linejoin:round;">
</g>
<g style="fill:#000000; fill-opacity:1.0000; 
stroke:#000000; stroke-width:0.0000; stroke-opacity:1; 
stroke-linecap:round; stroke-linejoin:round;">
<circle cx="81.2800" cy="157.4800" r="3.2000" /> 
</g>
<g style="fill:#000000; fill-opacity:1.0000; 
stroke:#000000; stroke-width:0.0212; stroke-opacity:1; 
stroke-linecap:round; stroke-linejoin:round;">
</g>
<g >
</g>
<g >
</g>
<g >
</g>
</g> 
</svg>
