<?xml version="1.0" standalone="no"?>
 <!DOCTYPE svg PUBLIC "-//W3C//DTD SVG 1.1//EN" 
 "http://www.w3.org/Graphics/SVG/1.1/DTD/svg11.dtd"> 
<svg
  xmlns:svg="http://www.w3.org/2000/svg"
  xmlns="http://www.w3.org/2000/svg"
  xmlns:xlink="http://www.w3.org/1999/xlink"
  version="1.1"
  width="297.0022mm" height="210.0072mm" viewBox="0.0000 0.0000 297.0022 210.0072">
<title>SVG Image created as panel-F_Cu.svg date 2023/11/06 17:28:19 </title>
  <desc>Image generated by PCBNEW </desc>
<g style="fill:#000000; fill-opacity:1.0000;stroke:#000000; stroke-opacity:1.0000;
stroke-linecap:round; stroke-linejoin:round;"
 transform="translate(0 0) scale(1 1)">
</g>
<g style="fill:#000000; fill-opacity:0.0; 
stroke:#000000; stroke-width:0.0000; stroke-opacity:1; 
stroke-linecap:round; stroke-linejoin:round;">
</g>
<g style="fill:#000000; fill-opacity:0.0; 
stroke:#000000; stroke-width:0.2500; stroke-opacity:1; 
stroke-linecap:round; stroke-linejoin:round;">
</g>
<g style="fill:#000000; fill-opacity:1.0000; 
stroke:#000000; stroke-width:0.0000; stroke-opacity:1; 
stroke-linecap:round; stroke-linejoin:round;">
<path style="fill:#000000; fill-opacity:1.0000; 
stroke:#000000; stroke-width:0.0000; stroke-opacity:1; 
stroke-linecap:round; stroke-linejoin:round;fill-rule:evenodd;"
d="M 52.6932,100.3134
52.7377,100.3769
52.7917,100.5311
52.7917,101.0600
52.7377,101.2142
52.6932,101.2777
52.6099,101.3372
52.4901,101.3372
52.4068,101.2777
52.3623,101.2142
52.3083,101.0600
52.3083,100.5311
52.3623,100.3769
52.4068,100.3134
52.4901,100.2539
52.6099,100.2539
Z" /> 
<path style="fill:#000000; fill-opacity:1.0000; 
stroke:#000000; stroke-width:0.0000; stroke-opacity:1; 
stroke-linecap:round; stroke-linejoin:round;fill-rule:evenodd;"
d="M 58.3250,101.3027
58.2766,101.3372
58.0234,101.3372
57.9549,101.2883
57.9083,101.1553
57.9083,101.0073
57.9549,100.8743
58.0234,100.8253
58.3167,100.8253
58.3250,100.8229
Z" /> 
<path style="fill:#000000; fill-opacity:1.0000; 
stroke:#000000; stroke-width:0.0000; stroke-opacity:1; 
stroke-linecap:round; stroke-linejoin:round;fill-rule:evenodd;"
d="M 60.4583,100.2885
60.4583,101.3027
60.4099,101.3372
60.2234,101.3372
60.1401,101.2777
60.0956,101.2142
60.0417,101.0600
60.0417,100.5311
60.0956,100.3769
60.1401,100.3134
60.2234,100.2539
60.4099,100.2539
Z" /> 
<path style="fill:#000000; fill-opacity:1.0000; 
stroke:#000000; stroke-width:0.0000; stroke-opacity:1; 
stroke-linecap:round; stroke-linejoin:round;fill-rule:evenodd;"
d="M 60.9940,102.3444
50.6393,102.3444
50.6393,101.9552
54.7928,101.9552
54.8215,102.0195
54.8805,102.0581
54.9509,102.0587
55.0105,102.0211
55.0299,101.9913
55.2768,101.4622
56.4583,101.4622
56.4782,101.5298
56.5314,101.5759
56.6011,101.5860
56.6652,101.5567
56.7033,101.4975
56.7083,101.4622
56.7083,100.3588
56.7401,100.3134
56.8234,100.2539
56.9433,100.2539
57.0118,100.3028
57.0583,100.4359
57.0583,101.4622
57.0782,101.5298
57.1314,101.5759
57.2011,101.5860
57.2652,101.5567
57.3033,101.4975
57.3083,101.4622
57.3083,101.1765
57.6583,101.1765
57.6593,101.1797
57.6585,101.1829
57.6654,101.2178
57.7320,101.4083
57.7440,101.4250
57.7516,101.4441
57.7710,101.4627
57.7731,101.4655
57.7747,101.4662
57.7773,101.4687
57.9107,101.5640
57.9305,101.5708
57.9481,101.5822
57.9736,101.5858
57.9772,101.5871
57.9791,101.5866
57.9833,101.5872
58.3167,101.5872
58.3368,101.5813
58.3577,101.5803
58.3806,101.5685
58.3842,101.5674
58.3855,101.5659
58.3861,101.5656
58.3981,101.5759
58.4678,101.5860
58.5319,101.5567
58.5699,101.4975
58.5750,101.4622
58.9917,101.4622
59.0115,101.5298
59.0647,101.5759
59.1345,101.5860
59.1985,101.5567
59.2366,101.4975
59.2417,101.4622
59.2417,101.0813
59.7917,101.0813
59.7926,101.0845
59.7918,101.0877
59.7987,101.1226
59.8654,101.3131
59.8661,101.3141
59.8809,101.3434
59.9476,101.4387
59.9503,101.4409
59.9516,101.4441
59.9773,101.4687
60.1107,101.5640
60.1305,101.5708
60.1481,101.5822
60.1736,101.5858
60.1772,101.5871
60.1791,101.5866
60.1833,101.5872
60.4500,101.5872
60.4701,101.5813
60.4911,101.5803
60.5139,101.5685
60.5176,101.5674
60.5189,101.5659
60.5195,101.5656
60.5314,101.5759
60.6011,101.5860
60.6652,101.5567
60.7033,101.4975
60.7083,101.4622
60.7083,99.4622
60.6885,99.3947
60.6353,99.3485
60.5655,99.3385
60.5015,99.3678
60.4634,99.4270
60.4583,99.4622
60.4583,100.0048
60.4561,100.0041
60.4542,100.0045
60.4500,100.0039
60.1833,100.0039
60.1632,100.0098
60.1423,100.0108
60.1194,100.0227
60.1158,100.0237
60.1145,100.0252
60.1107,100.0272
59.9773,100.1224
59.9752,100.1252
59.9719,100.1265
59.9476,100.1525
59.8809,100.2477
59.8805,100.2489
59.8654,100.2781
59.7987,100.4686
59.7985,100.4719
59.7967,100.4746
59.7917,100.5099
59.7917,101.0813
59.2417,101.0813
59.2417,100.5311
59.2956,100.3769
59.3401,100.3134
59.4234,100.2539
59.5167,100.2539
59.5842,100.2341
59.6304,100.1808
59.6404,100.1111
59.6111,100.0470
59.5519,100.0090
59.5167,100.0039
59.3833,100.0039
59.3632,100.0098
59.3423,100.0108
59.3194,100.0227
59.3158,100.0237
59.3145,100.0252
59.3107,100.0272
59.2289,100.0856
59.2218,100.0613
59.1686,100.0152
59.0989,100.0052
59.0348,100.0344
58.9967,100.0937
58.9917,100.1289
58.9917,101.4622
58.5750,101.4622
58.5750,100.4146
58.5741,100.4115
58.5748,100.4082
58.5680,100.3733
58.5013,100.1828
58.4893,100.1661
58.4817,100.1470
58.4623,100.1285
58.4603,100.1256
58.4587,100.1250
58.4560,100.1224
58.3227,100.0272
58.3029,100.0203
58.2852,100.0090
58.2597,100.0053
58.2561,100.0041
58.2542,100.0045
58.2500,100.0039
57.9833,100.0039
57.9632,100.0098
57.9423,100.0108
57.9194,100.0227
57.9158,100.0237
57.9145,100.0252
57.9107,100.0272
57.7773,100.1224
57.7339,100.1779
57.7273,100.2480
57.7597,100.3105
57.8207,100.3457
57.8911,100.3422
57.9227,100.3259
58.0234,100.2539
58.2099,100.2539
58.2784,100.3028
58.3250,100.4359
58.3250,100.5408
58.2766,100.5753
57.9833,100.5753
57.9632,100.5812
57.9423,100.5823
57.9194,100.5941
57.9158,100.5952
57.9145,100.5967
57.9107,100.5986
57.7773,100.6939
57.7646,100.7100
57.7484,100.7227
57.7360,100.7465
57.7339,100.7493
57.7337,100.7510
57.7320,100.7543
57.6654,100.9448
57.6652,100.9480
57.6634,100.9508
57.6583,100.9860
57.6583,101.1765
57.3083,101.1765
57.3083,100.4146
57.3074,100.4115
57.3082,100.4082
57.3013,100.3733
57.2346,100.1828
57.2227,100.1661
57.2150,100.1470
57.1956,100.1285
57.1936,100.1256
57.1920,100.1250
57.1893,100.1224
57.0560,100.0272
57.0362,100.0203
57.0185,100.0090
56.9930,100.0053
56.9895,100.0041
56.9876,100.0045
56.9833,100.0039
56.7833,100.0039
56.7632,100.0098
56.7423,100.0108
56.7194,100.0227
56.7158,100.0237
56.7145,100.0252
56.7107,100.0272
56.7083,100.0289
56.7083,99.4622
56.6885,99.3947
56.6353,99.3485
56.5655,99.3385
56.5015,99.3678
56.4634,99.4270
56.4583,99.4622
56.4583,101.4622
55.2768,101.4622
56.2299,99.4199
56.2405,99.3502
56.2118,99.2859
56.1529,99.2474
56.0824,99.2468
56.0229,99.2844
56.0034,99.3141
54.8034,101.8856
54.7928,101.9552
50.6393,101.9552
50.6393,100.5099
50.9250,100.5099
50.9259,100.5130
50.9252,100.5162
50.9320,100.5512
50.9987,100.7416
51.0107,100.7583
51.0183,100.7775
51.0377,100.7960
51.0397,100.7989
51.0413,100.7995
51.0440,100.8020
51.1773,100.8973
51.1971,100.9042
51.2148,100.9155
51.2403,100.9192
51.2439,100.9204
51.2458,100.9200
51.2500,100.9206
51.4099,100.9206
51.4784,100.9695
51.5250,101.1025
51.5250,101.1553
51.4784,101.2883
51.4099,101.3372
51.2234,101.3372
51.1227,101.2653
51.0561,101.2421
50.9877,101.2587
50.9390,101.3096
50.9255,101.3787
50.9516,101.4441
50.9773,101.4687
51.1107,101.5640
51.1305,101.5708
51.1481,101.5822
51.1736,101.5858
51.1772,101.5871
51.1791,101.5866
51.1833,101.5872
51.4500,101.5872
51.4701,101.5813
51.4911,101.5803
51.5139,101.5685
51.5176,101.5674
51.5189,101.5659
51.5227,101.5640
51.6560,101.4687
51.6687,101.4525
51.6849,101.4399
51.6973,101.4160
51.6994,101.4133
51.6996,101.4116
51.7013,101.4083
51.7680,101.2178
51.7681,101.2145
51.7699,101.2117
51.7750,101.1765
51.7750,101.0813
52.0583,101.0813
52.0593,101.0845
52.0585,101.0877
52.0653,101.1226
52.1320,101.3131
52.1328,101.3141
52.1476,101.3434
52.2143,101.4387
52.2170,101.4409
52.2183,101.4441
52.2440,101.4687
52.3773,101.5640
52.3971,101.5708
52.4148,101.5822
52.4403,101.5858
52.4439,101.5871
52.4458,101.5866
52.4500,101.5872
52.6500,101.5872
52.6701,101.5813
52.6911,101.5803
52.7139,101.5685
52.7176,101.5674
52.7189,101.5659
52.7227,101.5640
52.8560,101.4687
52.8581,101.4660
52.8614,101.4646
52.8857,101.4387
52.9524,101.3434
52.9528,101.3422
52.9680,101.3131
53.0346,101.1226
53.0348,101.1193
53.0366,101.1165
53.0417,101.0813
53.0417,100.5099
53.0407,100.5067
53.0415,100.5035
53.0346,100.4686
52.9680,100.2781
52.9672,100.2770
52.9524,100.2477
52.8857,100.1525
52.8830,100.1503
52.8817,100.1470
52.8814,100.1467
53.1929,100.1467
53.2222,100.2108
53.2814,100.2488
53.3167,100.2539
53.3917,100.2539
53.3917,101.4622
53.4115,101.5298
53.4647,101.5759
53.5345,101.5860
53.5985,101.5567
53.6366,101.4975
53.6417,101.4622
53.6417,100.2539
53.8500,100.2539
53.9176,100.2341
53.9637,100.1808
53.9686,100.1467
53.9929,100.1467
54.0222,100.2108
54.0814,100.2488
54.1167,100.2539
54.1917,100.2539
54.1917,101.1765
54.1926,101.1797
54.1918,101.1829
54.1987,101.2178
54.2654,101.4083
54.2773,101.4250
54.2850,101.4441
54.3044,101.4627
54.3064,101.4655
54.3080,101.4662
54.3107,101.4687
54.4440,101.5640
54.4638,101.5708
54.4814,101.5822
54.5069,101.5858
54.5105,101.5871
54.5124,101.5866
54.5167,101.5872
54.6500,101.5872
54.7176,101.5674
54.7637,101.5142
54.7737,101.4444
54.7445,101.3804
54.6852,101.3423
54.6500,101.3372
54.5567,101.3372
54.4882,101.2883
54.4417,101.1553
54.4417,100.2539
54.6500,100.2539
54.7176,100.2341
54.7637,100.1808
54.7737,100.1111
54.7445,100.0470
54.6852,100.0090
54.6500,100.0039
54.4417,100.0039
54.4417,99.4622
54.4218,99.3947
54.3686,99.3485
54.2989,99.3385
54.2348,99.3678
54.1967,99.4270
54.1917,99.4622
54.1917,100.0039
54.1167,100.0039
54.0491,100.0237
54.0030,100.0770
53.9929,100.1467
53.9686,100.1467
53.9737,100.1111
53.9445,100.0470
53.8852,100.0090
53.8500,100.0039
53.6417,100.0039
53.6417,99.7692
53.6882,99.6362
53.7567,99.5872
53.8500,99.5872
53.9176,99.5674
53.9637,99.5142
53.9737,99.4444
53.9445,99.3804
53.8852,99.3423
53.8500,99.3372
53.7167,99.3372
53.6966,99.3431
53.6756,99.3442
53.6527,99.3560
53.6491,99.3571
53.6478,99.3586
53.6440,99.3605
53.5107,99.4558
53.4980,99.4720
53.4818,99.4846
53.4694,99.5084
53.4672,99.5112
53.4671,99.5129
53.4654,99.5162
53.3987,99.7067
53.3985,99.7100
53.3967,99.7127
53.3917,99.7480
53.3917,100.0039
53.3167,100.0039
53.2491,100.0237
53.2030,100.0770
53.1929,100.1467
52.8814,100.1467
52.8560,100.1224
52.7227,100.0272
52.7029,100.0203
52.6852,100.0090
52.6597,100.0053
52.6561,100.0041
52.6542,100.0045
52.6500,100.0039
52.4500,100.0039
52.4299,100.0098
52.4089,100.0108
52.3861,100.0227
52.3824,100.0237
52.3811,100.0252
52.3773,100.0272
52.2440,100.1224
52.2418,100.1252
52.2386,100.1265
52.2143,100.1525
52.1476,100.2477
52.1472,100.2489
52.1320,100.2781
52.0653,100.4686
52.0652,100.4719
52.0634,100.4746
52.0583,100.5099
52.0583,101.0813
51.7750,101.0813
51.7741,101.0781
51.7748,101.0749
51.7680,101.0400
51.7013,100.8495
51.6893,100.8328
51.6817,100.8137
51.6623,100.7951
51.6603,100.7923
51.6587,100.7917
51.6560,100.7891
51.5227,100.6939
51.5029,100.6870
51.4852,100.6756
51.4597,100.6720
51.4561,100.6707
51.4542,100.6712
51.4500,100.6706
51.2901,100.6706
51.2216,100.6216
51.1750,100.4886
51.1750,100.4359
51.2216,100.3028
51.2901,100.2539
51.4099,100.2539
51.5107,100.3259
51.5772,100.3490
51.6457,100.3325
51.6944,100.2816
51.7078,100.2124
51.6817,100.1470
51.6560,100.1224
51.5227,100.0272
51.5029,100.0203
51.4852,100.0090
51.4597,100.0053
51.4561,100.0041
51.4542,100.0045
51.4500,100.0039
51.2500,100.0039
51.2299,100.0098
51.2089,100.0108
51.1861,100.0227
51.1824,100.0237
51.1811,100.0252
51.1773,100.0272
51.0440,100.1224
51.0313,100.1386
51.0151,100.1513
51.0027,100.1751
51.0006,100.1779
51.0004,100.1796
50.9987,100.1828
50.9320,100.3733
50.9318,100.3766
50.9301,100.3794
50.9250,100.4146
50.9250,100.5099
50.6393,100.5099
50.6393,98.9611
60.9940,98.9611
Z" /> 
</g>
<g style="fill:#000000; fill-opacity:1.0000; 
stroke:#000000; stroke-width:0.2500; stroke-opacity:1; 
stroke-linecap:round; stroke-linejoin:round;">
</g>
<g style="fill:#000000; fill-opacity:1.0000; 
stroke:#000000; stroke-width:0.0000; stroke-opacity:1; 
stroke-linecap:round; stroke-linejoin:round;">
<path style="fill:#000000; fill-opacity:1.0000; 
stroke:#000000; stroke-width:0.0000; stroke-opacity:1; 
stroke-linecap:round; stroke-linejoin:round;fill-rule:evenodd;"
d="M 36.9381,81.6030
34.3204,81.6030
34.3204,80.8113
34.6061,80.8113
34.6071,80.8145
34.6063,80.8177
34.6132,80.8526
34.6798,81.0431
34.6806,81.0441
34.6954,81.0734
34.7621,81.1687
34.7648,81.1709
34.7661,81.1741
34.7918,81.1987
34.9252,81.2940
34.9449,81.3008
34.9626,81.3122
34.9881,81.3158
34.9917,81.3171
34.9936,81.3166
34.9978,81.3172
35.2645,81.3172
35.2846,81.3113
35.3055,81.3103
35.3284,81.2985
35.3321,81.2974
35.3333,81.2959
35.3371,81.2940
35.4705,81.1987
35.5139,81.1433
35.5205,81.0732
35.4881,81.0106
35.4271,80.9755
35.3568,80.9789
35.3252,80.9953
35.2244,81.0672
35.0379,81.0672
34.9546,81.0077
34.9101,80.9442
34.8561,80.7900
34.8561,80.2611
34.9101,80.1069
34.9546,80.0434
35.0379,79.9839
35.2244,79.9839
35.3252,80.0559
35.3917,80.0790
35.4601,80.0625
35.5088,80.0116
35.5223,79.9424
35.4962,79.8770
35.4719,79.8538
35.7396,79.8538
35.7432,79.8892
36.0765,81.2226
36.0792,81.2271
36.0794,81.2323
36.0968,81.2571
36.1122,81.2833
36.1168,81.2857
36.1199,81.2900
36.1479,81.3014
36.1750,81.3151
36.1802,81.3146
36.1851,81.3166
36.2149,81.3111
36.2451,81.3080
36.2492,81.3047
36.2543,81.3037
36.2764,81.2830
36.3001,81.2640
36.3018,81.2591
36.3056,81.2555
36.3191,81.2226
36.6524,79.8892
36.6495,79.8188
36.6091,79.7612
36.5439,79.7346
36.4746,79.7474
36.4233,79.7956
36.4099,79.8286
36.1978,80.6768
35.9857,79.8286
35.9501,79.7678
35.8873,79.7360
35.8172,79.7432
35.7621,79.7871
35.7396,79.8538
35.4719,79.8538
35.4705,79.8524
35.3371,79.7572
35.3173,79.7503
35.2997,79.7390
35.2742,79.7353
35.2706,79.7341
35.2687,79.7345
35.2645,79.7339
34.9978,79.7339
34.9777,79.7398
34.9568,79.7408
34.9339,79.7527
34.9302,79.7537
34.9289,79.7552
34.9252,79.7572
34.7918,79.8524
34.7897,79.8552
34.7864,79.8565
34.7621,79.8825
34.6954,79.9777
34.6950,79.9789
34.6798,80.0081
34.6132,80.1986
34.6130,80.2019
34.6112,80.2046
34.6061,80.2399
34.6061,80.8113
34.3204,80.8113
34.3204,79.4482
36.9381,79.4482
Z" /> 
</g>
<g style="fill:#000000; fill-opacity:1.0000; 
stroke:#000000; stroke-width:0.2500; stroke-opacity:1; 
stroke-linecap:round; stroke-linejoin:round;">
</g>
<g style="fill:#000000; fill-opacity:1.0000; 
stroke:#000000; stroke-width:0.0000; stroke-opacity:1; 
stroke-linecap:round; stroke-linejoin:round;">
<path style="fill:#000000; fill-opacity:1.0000; 
stroke:#000000; stroke-width:0.0000; stroke-opacity:1; 
stroke-linecap:round; stroke-linejoin:round;fill-rule:evenodd;"
d="M 56.3599,141.0134
56.4044,141.0769
56.4583,141.2311
56.4583,141.7600
56.4044,141.9142
56.3599,141.9777
56.2766,142.0372
56.0901,142.0372
56.0417,142.0027
56.0417,140.9885
56.0901,140.9539
56.2766,140.9539
Z" /> 
<path style="fill:#000000; fill-opacity:1.0000; 
stroke:#000000; stroke-width:0.0000; stroke-opacity:1; 
stroke-linecap:round; stroke-linejoin:round;fill-rule:evenodd;"
d="M 56.9940,143.2383
54.7726,143.2383
54.7726,142.8289
55.7917,142.8289
55.8115,142.8965
55.8647,142.9426
55.9345,142.9526
55.9985,142.9234
56.0366,142.8641
56.0417,142.8289
56.0417,142.2863
56.0439,142.2871
56.0458,142.2866
56.0500,142.2872
56.3167,142.2872
56.3368,142.2813
56.3577,142.2803
56.3806,142.2685
56.3842,142.2674
56.3855,142.2659
56.3893,142.2640
56.5227,142.1687
56.5248,142.1660
56.5281,142.1646
56.5524,142.1387
56.6191,142.0434
56.6195,142.0422
56.6346,142.0131
56.7013,141.8226
56.7015,141.8193
56.7033,141.8165
56.7083,141.7813
56.7083,141.2099
56.7074,141.2067
56.7082,141.2035
56.7013,141.1686
56.6346,140.9781
56.6339,140.9770
56.6191,140.9477
56.5524,140.8525
56.5497,140.8503
56.5484,140.8470
56.5227,140.8224
56.3893,140.7272
56.3695,140.7203
56.3519,140.7090
56.3264,140.7053
56.3228,140.7041
56.3209,140.7045
56.3167,140.7039
56.0500,140.7039
56.0299,140.7098
56.0089,140.7108
55.9861,140.7227
55.9824,140.7237
55.9811,140.7252
55.9805,140.7255
55.9686,140.7152
55.8989,140.7052
55.8348,140.7344
55.7967,140.7937
55.7917,140.8289
55.7917,142.8289
54.7726,142.8289
54.7726,141.8765
55.0583,141.8765
55.0593,141.8797
55.0585,141.8829
55.0654,141.9178
55.1320,142.1083
55.1440,142.1250
55.1516,142.1441
55.1710,142.1627
55.1731,142.1655
55.1747,142.1662
55.1773,142.1687
55.3107,142.2640
55.3772,142.2871
55.4457,142.2706
55.4944,142.2197
55.5078,142.1505
55.4817,142.0851
55.4560,142.0605
55.3549,141.9883
55.3083,141.8553
55.3083,140.1622
55.2885,140.0947
55.2353,140.0485
55.1655,140.0385
55.1015,140.0678
55.0634,140.1270
55.0583,140.1622
55.0583,141.8765
54.7726,141.8765
54.7726,139.7528
56.9940,139.7528
Z" /> 
</g>
<g style="fill:#000000; fill-opacity:1.0000; 
stroke:#000000; stroke-width:0.2500; stroke-opacity:1; 
stroke-linecap:round; stroke-linejoin:round;">
</g>
<g style="fill:#000000; fill-opacity:1.0000; 
stroke:#000000; stroke-width:0.0000; stroke-opacity:1; 
stroke-linecap:round; stroke-linejoin:round;">
<path style="fill:#000000; fill-opacity:1.0000; 
stroke:#000000; stroke-width:0.0000; stroke-opacity:1; 
stroke-linecap:round; stroke-linejoin:round;fill-rule:evenodd;"
d="M 57.5083,79.9885
57.5083,81.0027
57.4599,81.0372
57.2734,81.0372
57.1901,80.9777
57.1456,80.9142
57.0917,80.7600
57.0917,80.2311
57.1456,80.0769
57.1901,80.0134
57.2734,79.9539
57.4599,79.9539
Z" /> 
<path style="fill:#000000; fill-opacity:1.0000; 
stroke:#000000; stroke-width:0.0000; stroke-opacity:1; 
stroke-linecap:round; stroke-linejoin:round;fill-rule:evenodd;"
d="M 56.2618,80.0028
56.3083,80.1359
56.3083,80.2108
55.8917,80.3299
55.8917,80.1359
55.9382,80.0028
56.0067,79.9539
56.1933,79.9539
Z" /> 
<path style="fill:#000000; fill-opacity:1.0000; 
stroke:#000000; stroke-width:0.0000; stroke-opacity:1; 
stroke-linecap:round; stroke-linejoin:round;fill-rule:evenodd;"
d="M 58.0440,82.2383
53.5572,82.2383
53.5572,79.8467
53.8429,79.8467
53.8722,79.9108
53.9314,79.9488
53.9667,79.9539
54.0417,79.9539
54.0417,81.1622
54.0615,81.2298
54.1147,81.2759
54.1845,81.2860
54.2485,81.2567
54.2866,81.1975
54.2917,81.1622
54.8417,81.1622
54.8615,81.2298
54.9147,81.2759
54.9845,81.2860
55.0485,81.2567
55.0866,81.1975
55.0917,81.1622
55.0917,80.8765
55.6417,80.8765
55.6426,80.8797
55.6418,80.8829
55.6487,80.9178
55.7154,81.1083
55.7273,81.1250
55.7350,81.1441
55.7544,81.1627
55.7564,81.1655
55.7580,81.1662
55.7607,81.1687
55.8940,81.2640
55.9138,81.2708
55.9314,81.2822
55.9569,81.2858
55.9605,81.2871
55.9624,81.2866
55.9667,81.2872
56.2333,81.2872
56.2534,81.2813
56.2744,81.2803
56.2973,81.2685
56.3009,81.2674
56.3022,81.2659
56.3060,81.2640
56.4393,81.1687
56.4828,81.1133
56.4894,81.0432
56.4570,80.9806
56.3960,80.9455
56.3256,80.9489
56.2940,80.9653
56.1933,81.0372
56.0067,81.0372
55.9382,80.9883
55.8917,80.8553
55.8917,80.7813
56.8417,80.7813
56.8426,80.7845
56.8418,80.7877
56.8487,80.8226
56.9154,81.0131
56.9161,81.0141
56.9309,81.0434
56.9976,81.1387
57.0003,81.1409
57.0016,81.1441
57.0273,81.1687
57.1607,81.2640
57.1805,81.2708
57.1981,81.2822
57.2236,81.2858
57.2272,81.2871
57.2291,81.2866
57.2333,81.2872
57.5000,81.2872
57.5083,81.2848
57.5083,81.8289
57.5282,81.8965
57.5814,81.9426
57.6511,81.9526
57.7152,81.9234
57.7533,81.8641
57.7583,81.8289
57.7583,79.8289
57.7385,79.7613
57.6853,79.7152
57.6155,79.7052
57.5696,79.7261
57.5529,79.7203
57.5352,79.7090
57.5097,79.7053
57.5061,79.7041
57.5042,79.7045
57.5000,79.7039
57.2333,79.7039
57.2132,79.7098
57.1923,79.7108
57.1694,79.7227
57.1658,79.7237
57.1645,79.7252
57.1607,79.7272
57.0273,79.8224
57.0252,79.8252
57.0219,79.8265
56.9976,79.8525
56.9309,79.9477
56.9305,79.9489
56.9154,79.9781
56.8487,80.1686
56.8485,80.1719
56.8467,80.1746
56.8417,80.2099
56.8417,80.7813
55.8917,80.7813
55.8917,80.5899
56.4677,80.4253
56.4906,80.4108
56.5152,80.3996
56.5199,80.3923
56.5272,80.3876
56.5386,80.3631
56.5533,80.3403
56.5551,80.3278
56.5569,80.3238
56.5563,80.3192
56.5583,80.3051
56.5583,80.1146
56.5574,80.1115
56.5582,80.1082
56.5513,80.0733
56.4846,79.8828
56.4727,79.8661
56.4650,79.8470
56.4456,79.8285
56.4436,79.8256
56.4420,79.8250
56.4393,79.8224
56.3060,79.7272
56.2862,79.7203
56.2685,79.7090
56.2430,79.7053
56.2395,79.7041
56.2376,79.7045
56.2333,79.7039
55.9667,79.7039
55.9466,79.7098
55.9256,79.7108
55.9027,79.7227
55.8991,79.7237
55.8978,79.7252
55.8940,79.7272
55.7607,79.8224
55.7480,79.8386
55.7318,79.8513
55.7194,79.8751
55.7172,79.8779
55.7171,79.8796
55.7154,79.8828
55.6487,80.0733
55.6485,80.0766
55.6467,80.0794
55.6417,80.1146
55.6417,80.8765
55.0917,80.8765
55.0917,80.2311
55.1456,80.0769
55.1901,80.0134
55.2734,79.9539
55.3667,79.9539
55.4342,79.9341
55.4804,79.8808
55.4904,79.8111
55.4611,79.7470
55.4019,79.7090
55.3667,79.7039
55.2333,79.7039
55.2132,79.7098
55.1923,79.7108
55.1694,79.7227
55.1658,79.7237
55.1645,79.7252
55.1607,79.7272
55.0789,79.7856
55.0718,79.7613
55.0186,79.7152
54.9489,79.7052
54.8848,79.7344
54.8467,79.7937
54.8417,79.8289
54.8417,81.1622
54.2917,81.1622
54.2917,79.9539
54.5000,79.9539
54.5676,79.9341
54.6137,79.8808
54.6237,79.8111
54.5945,79.7470
54.5352,79.7090
54.5000,79.7039
54.2917,79.7039
54.2917,79.4692
54.3382,79.3362
54.4067,79.2872
54.5000,79.2872
54.5676,79.2674
54.6137,79.2142
54.6237,79.1444
54.5945,79.0804
54.5352,79.0423
54.5000,79.0372
54.3667,79.0372
54.3466,79.0431
54.3256,79.0442
54.3027,79.0560
54.2991,79.0571
54.2978,79.0586
54.2940,79.0605
54.1607,79.1558
54.1480,79.1720
54.1318,79.1846
54.1194,79.2084
54.1172,79.2112
54.1171,79.2129
54.1154,79.2162
54.0487,79.4067
54.0485,79.4100
54.0467,79.4127
54.0417,79.4480
54.0417,79.7039
53.9667,79.7039
53.8991,79.7237
53.8530,79.7770
53.8429,79.8467
53.5572,79.8467
53.5572,78.7515
58.0440,78.7515
Z" /> 
</g>
<g style="fill:#000000; fill-opacity:1.0000; 
stroke:#000000; stroke-width:0.2500; stroke-opacity:1; 
stroke-linecap:round; stroke-linejoin:round;">
</g>
<g style="fill:#000000; fill-opacity:1.0000; 
stroke:#000000; stroke-width:0.0000; stroke-opacity:1; 
stroke-linecap:round; stroke-linejoin:round;">
<path style="fill:#000000; fill-opacity:1.0000; 
stroke:#000000; stroke-width:0.0000; stroke-opacity:1; 
stroke-linecap:round; stroke-linejoin:round;fill-rule:evenodd;"
d="M 55.9784,120.6528
56.0250,120.7859
56.0250,120.8608
55.6083,120.9799
55.6083,120.7859
55.6549,120.6528
55.7234,120.6039
55.9099,120.6039
Z" /> 
<path style="fill:#000000; fill-opacity:1.0000; 
stroke:#000000; stroke-width:0.0000; stroke-opacity:1; 
stroke-linecap:round; stroke-linejoin:round;fill-rule:evenodd;"
d="M 57.6940,122.2230
54.2726,122.2230
54.2726,121.8122
54.5583,121.8122
54.5782,121.8798
54.6314,121.9259
54.7011,121.9360
54.7652,121.9067
54.8033,121.8475
54.8083,121.8122
54.8083,121.5265
55.3583,121.5265
55.3593,121.5297
55.3585,121.5329
55.3654,121.5678
55.4320,121.7583
55.4440,121.7750
55.4516,121.7941
55.4710,121.8127
55.4731,121.8155
55.4747,121.8162
55.4773,121.8187
55.6107,121.9140
55.6305,121.9208
55.6481,121.9322
55.6736,121.9358
55.6772,121.9371
55.6791,121.9366
55.6833,121.9372
55.9500,121.9372
55.9701,121.9313
55.9911,121.9303
56.0139,121.9185
56.0176,121.9174
56.0189,121.9159
56.0227,121.9140
56.1560,121.8187
56.1994,121.7633
56.2060,121.6932
56.1737,121.6306
56.1126,121.5955
56.0423,121.5989
56.0107,121.6153
55.9099,121.6872
55.7234,121.6872
55.6549,121.6383
55.6083,121.5053
55.6083,121.2399
56.1843,121.0753
56.2072,121.0608
56.2319,121.0496
56.2365,121.0423
56.2439,121.0376
56.2553,121.0131
56.2699,120.9903
56.2717,120.9778
56.2736,120.9738
56.2730,120.9692
56.2750,120.9551
56.2750,120.8599
56.5583,120.8599
56.5593,120.8630
56.5585,120.8662
56.5654,120.9012
56.6320,121.0916
56.6440,121.1083
56.6516,121.1275
56.6710,121.1460
56.6731,121.1489
56.6747,121.1495
56.6773,121.1520
56.8107,121.2473
56.8305,121.2542
56.8481,121.2655
56.8736,121.2692
56.8772,121.2704
56.8791,121.2700
56.8833,121.2706
57.0433,121.2706
57.1118,121.3195
57.1583,121.4525
57.1583,121.5053
57.1118,121.6383
57.0433,121.6872
56.8567,121.6872
56.7560,121.6153
56.6895,121.5921
56.6210,121.6087
56.5723,121.6596
56.5589,121.7287
56.5850,121.7941
56.6107,121.8187
56.7440,121.9140
56.7638,121.9208
56.7814,121.9322
56.8070,121.9358
56.8105,121.9371
56.8124,121.9366
56.8167,121.9372
57.0833,121.9372
57.1034,121.9313
57.1244,121.9303
57.1473,121.9185
57.1509,121.9174
57.1522,121.9159
57.1560,121.9140
57.2893,121.8187
57.3020,121.8025
57.3182,121.7899
57.3306,121.7660
57.3328,121.7633
57.3329,121.7616
57.3346,121.7583
57.4013,121.5678
57.4015,121.5645
57.4033,121.5617
57.4083,121.5265
57.4083,121.4313
57.4074,121.4281
57.4082,121.4249
57.4013,121.3900
57.3346,121.1995
57.3227,121.1828
57.3150,121.1637
57.2956,121.1451
57.2936,121.1423
57.2920,121.1417
57.2893,121.1391
57.1560,121.0439
57.1362,121.0370
57.1185,121.0256
57.0930,121.0220
57.0895,121.0207
57.0876,121.0212
57.0833,121.0206
56.9234,121.0206
56.8549,120.9716
56.8083,120.8386
56.8083,120.7859
56.8549,120.6528
56.9234,120.6039
57.0433,120.6039
57.1440,120.6759
57.2105,120.6990
57.2790,120.6825
57.3277,120.6316
57.3411,120.5624
57.3150,120.4970
57.2893,120.4724
57.1560,120.3772
57.1362,120.3703
57.1185,120.3590
57.0930,120.3553
57.0895,120.3541
57.0876,120.3545
57.0833,120.3539
56.8833,120.3539
56.8632,120.3598
56.8423,120.3608
56.8194,120.3727
56.8158,120.3737
56.8145,120.3752
56.8107,120.3772
56.6773,120.4724
56.6646,120.4886
56.6484,120.5013
56.6360,120.5251
56.6339,120.5279
56.6337,120.5296
56.6320,120.5328
56.5654,120.7233
56.5652,120.7266
56.5634,120.7294
56.5583,120.7646
56.5583,120.8599
56.2750,120.8599
56.2750,120.7646
56.2741,120.7615
56.2748,120.7582
56.2680,120.7233
56.2013,120.5328
56.1893,120.5161
56.1817,120.4970
56.1623,120.4785
56.1603,120.4756
56.1587,120.4750
56.1560,120.4724
56.0227,120.3772
56.0029,120.3703
55.9852,120.3590
55.9597,120.3553
55.9561,120.3541
55.9542,120.3545
55.9500,120.3539
55.6833,120.3539
55.6632,120.3598
55.6423,120.3608
55.6194,120.3727
55.6158,120.3737
55.6145,120.3752
55.6107,120.3772
55.4773,120.4724
55.4646,120.4886
55.4484,120.5013
55.4360,120.5251
55.4339,120.5279
55.4337,120.5296
55.4320,120.5328
55.3654,120.7233
55.3652,120.7266
55.3634,120.7294
55.3583,120.7646
55.3583,121.5265
54.8083,121.5265
54.8083,120.8811
54.8623,120.7269
54.9068,120.6634
54.9901,120.6039
55.0833,120.6039
55.1509,120.5841
55.1970,120.5308
55.2071,120.4611
55.1778,120.3970
55.1185,120.3590
55.0833,120.3539
54.9500,120.3539
54.9299,120.3598
54.9089,120.3608
54.8861,120.3727
54.8824,120.3737
54.8811,120.3752
54.8773,120.3772
54.7956,120.4356
54.7885,120.4113
54.7353,120.3652
54.6655,120.3552
54.6015,120.3844
54.5634,120.4437
54.5583,120.4789
54.5583,121.8122
54.2726,121.8122
54.2726,120.0682
57.6940,120.0682
Z" /> 
</g>
<g style="fill:#000000; fill-opacity:1.0000; 
stroke:#000000; stroke-width:0.2500; stroke-opacity:1; 
stroke-linecap:round; stroke-linejoin:round;">
</g>
<g style="fill:#000000; fill-opacity:1.0000; 
stroke:#000000; stroke-width:0.0000; stroke-opacity:1; 
stroke-linecap:round; stroke-linejoin:round;">
<path style="fill:#000000; fill-opacity:1.0000; 
stroke:#000000; stroke-width:0.0000; stroke-opacity:1; 
stroke-linecap:round; stroke-linejoin:round;fill-rule:evenodd;"
d="M 46.4766,141.0134
46.5210,141.0769
46.5750,141.2311
46.5750,141.7600
46.5210,141.9142
46.4766,141.9777
46.3933,142.0372
46.2067,142.0372
46.1583,142.0027
46.1583,140.9885
46.2067,140.9539
46.3933,140.9539
Z" /> 
<path style="fill:#000000; fill-opacity:1.0000; 
stroke:#000000; stroke-width:0.0000; stroke-opacity:1; 
stroke-linecap:round; stroke-linejoin:round;fill-rule:evenodd;"
d="M 45.2099,141.0134
45.2544,141.0769
45.3083,141.2311
45.3083,141.7600
45.2544,141.9142
45.2099,141.9777
45.1266,142.0372
44.9401,142.0372
44.8917,142.0027
44.8917,140.9885
44.9401,140.9539
45.1266,140.9539
Z" /> 
<path style="fill:#000000; fill-opacity:1.0000; 
stroke:#000000; stroke-width:0.0000; stroke-opacity:1; 
stroke-linecap:round; stroke-linejoin:round;fill-rule:evenodd;"
d="M 47.1107,143.2383
44.3560,143.2383
44.3560,142.8289
45.9083,142.8289
45.9282,142.8965
45.9814,142.9426
46.0511,142.9526
46.1152,142.9234
46.1533,142.8641
46.1583,142.8289
46.1583,142.2863
46.1605,142.2871
46.1624,142.2866
46.1667,142.2872
46.4333,142.2872
46.4534,142.2813
46.4744,142.2803
46.4973,142.2685
46.5009,142.2674
46.5022,142.2659
46.5060,142.2640
46.6393,142.1687
46.6415,142.1660
46.6447,142.1646
46.6691,142.1387
46.7357,142.0434
46.7361,142.0422
46.7513,142.0131
46.8180,141.8226
46.8181,141.8193
46.8199,141.8165
46.8250,141.7813
46.8250,141.2099
46.8241,141.2067
46.8248,141.2035
46.8180,141.1686
46.7513,140.9781
46.7506,140.9770
46.7357,140.9477
46.6691,140.8525
46.6663,140.8503
46.6650,140.8470
46.6393,140.8224
46.5060,140.7272
46.4862,140.7203
46.4686,140.7090
46.4430,140.7053
46.4395,140.7041
46.4376,140.7045
46.4333,140.7039
46.1667,140.7039
46.1466,140.7098
46.1256,140.7108
46.1027,140.7227
46.0991,140.7237
46.0978,140.7252
46.0972,140.7255
46.0853,140.7152
46.0155,140.7052
45.9515,140.7344
45.9134,140.7937
45.9083,140.8289
45.9083,142.8289
44.3560,142.8289
44.3560,142.1622
44.6417,142.1622
44.6615,142.2298
44.7147,142.2759
44.7845,142.2860
44.8304,142.2650
44.8471,142.2708
44.8648,142.2822
44.8903,142.2858
44.8939,142.2871
44.8958,142.2866
44.9000,142.2872
45.1667,142.2872
45.1868,142.2813
45.2077,142.2803
45.2306,142.2685
45.2342,142.2674
45.2355,142.2659
45.2393,142.2640
45.3727,142.1687
45.3748,142.1660
45.3781,142.1646
45.4024,142.1387
45.4691,142.0434
45.4695,142.0422
45.4846,142.0131
45.5513,141.8226
45.5515,141.8193
45.5533,141.8165
45.5583,141.7813
45.5583,141.2099
45.5574,141.2067
45.5582,141.2035
45.5513,141.1686
45.4846,140.9781
45.4839,140.9770
45.4691,140.9477
45.4024,140.8525
45.3997,140.8503
45.3984,140.8470
45.3727,140.8224
45.2393,140.7272
45.2195,140.7203
45.2019,140.7090
45.1764,140.7053
45.1728,140.7041
45.1709,140.7045
45.1667,140.7039
44.9000,140.7039
44.8917,140.7063
44.8917,140.1622
44.8718,140.0947
44.8186,140.0485
44.7489,140.0385
44.6848,140.0678
44.6467,140.1270
44.6417,140.1622
44.6417,142.1622
44.3560,142.1622
44.3560,139.7528
47.1107,139.7528
Z" /> 
</g>
<g style="fill:#000000; fill-opacity:1.0000; 
stroke:#000000; stroke-width:0.2500; stroke-opacity:1; 
stroke-linecap:round; stroke-linejoin:round;">
</g>
<g style="fill:#000000; fill-opacity:1.0000; 
stroke:#000000; stroke-width:0.0000; stroke-opacity:1; 
stroke-linecap:round; stroke-linejoin:round;">
<path style="fill:#000000; fill-opacity:1.0000; 
stroke:#000000; stroke-width:0.0000; stroke-opacity:1; 
stroke-linecap:round; stroke-linejoin:round;fill-rule:evenodd;"
d="M 37.0085,61.2517
33.9884,61.2517
33.9884,59.5267
34.2741,59.5267
34.3033,59.5908
34.3626,59.6288
34.3978,59.6339
34.4728,59.6339
34.4728,60.8422
34.4926,60.9098
34.5459,60.9559
34.6156,60.9660
34.6797,60.9367
34.7177,60.8775
34.7228,60.8422
35.2728,60.8422
35.2926,60.9098
35.3459,60.9559
35.4156,60.9660
35.4797,60.9367
35.5177,60.8775
35.5228,60.8422
35.5228,59.7388
35.5546,59.6934
35.6379,59.6339
35.7577,59.6339
35.8262,59.6828
35.8728,59.8159
35.8728,60.8422
35.8926,60.9098
35.9459,60.9559
36.0156,60.9660
36.0797,60.9367
36.1177,60.8775
36.1228,60.8422
36.1228,59.8159
36.1694,59.6828
36.2379,59.6339
36.3577,59.6339
36.4262,59.6828
36.4728,59.8159
36.4728,60.8422
36.4926,60.9098
36.5459,60.9559
36.6156,60.9660
36.6797,60.9367
36.7177,60.8775
36.7228,60.8422
36.7228,59.7946
36.7219,59.7915
36.7226,59.7882
36.7158,59.7533
36.6491,59.5628
36.6371,59.5461
36.6295,59.5270
36.6101,59.5085
36.6081,59.5056
36.6065,59.5050
36.6038,59.5024
36.4705,59.4072
36.4507,59.4003
36.4330,59.3890
36.4075,59.3853
36.4039,59.3841
36.4020,59.3845
36.3978,59.3839
36.1978,59.3839
36.1777,59.3898
36.1568,59.3908
36.1339,59.4027
36.1302,59.4037
36.1289,59.4052
36.1252,59.4072
35.9978,59.4981
35.8705,59.4072
35.8507,59.4003
35.8330,59.3890
35.8075,59.3853
35.8039,59.3841
35.8020,59.3845
35.7978,59.3839
35.5978,59.3839
35.5777,59.3898
35.5568,59.3908
35.5339,59.4027
35.5302,59.4037
35.5289,59.4052
35.5252,59.4072
35.4914,59.4313
35.4497,59.3952
35.3800,59.3852
35.3159,59.4144
35.2779,59.4737
35.2728,59.5089
35.2728,60.8422
34.7228,60.8422
34.7228,59.6339
34.9311,59.6339
34.9987,59.6141
35.0448,59.5608
35.0549,59.4911
35.0256,59.4270
34.9664,59.3890
34.9311,59.3839
34.7228,59.3839
34.7228,59.1492
34.7694,59.0162
34.8379,58.9672
34.9311,58.9672
34.9987,58.9474
35.0448,58.8942
35.0549,58.8244
35.0256,58.7604
34.9664,58.7223
34.9311,58.7172
34.7978,58.7172
34.7777,58.7231
34.7568,58.7242
34.7339,58.7360
34.7302,58.7371
34.7289,58.7386
34.7252,58.7405
34.5918,58.8358
34.5791,58.8520
34.5629,58.8646
34.5505,58.8884
34.5484,58.8912
34.5482,58.8929
34.5465,58.8962
34.4798,59.0867
34.4797,59.0900
34.4779,59.0927
34.4728,59.1280
34.4728,59.3839
34.3978,59.3839
34.3302,59.4037
34.2841,59.4570
34.2741,59.5267
33.9884,59.5267
33.9884,58.4315
37.0085,58.4315
Z" /> 
</g>
<g style="fill:#000000; fill-opacity:1.0000; 
stroke:#000000; stroke-width:0.2500; stroke-opacity:1; 
stroke-linecap:round; stroke-linejoin:round;">
</g>
<g style="fill:#000000; fill-opacity:1.0000; 
stroke:#000000; stroke-width:0.0000; stroke-opacity:1; 
stroke-linecap:round; stroke-linejoin:round;">
<path style="fill:#000000; fill-opacity:1.0000; 
stroke:#000000; stroke-width:0.0000; stroke-opacity:1; 
stroke-linecap:round; stroke-linejoin:round;fill-rule:evenodd;"
d="M 36.6440,142.5217
34.4894,142.5217
34.4894,142.1122
34.8417,142.1122
34.8615,142.1798
34.9147,142.2259
34.9845,142.2360
35.0485,142.2067
35.0866,142.1475
35.0917,142.1122
35.5083,142.1122
35.5282,142.1798
35.5814,142.2259
35.6511,142.2360
35.7152,142.2067
35.7533,142.1475
35.7583,142.1122
35.7583,141.0088
35.7901,140.9634
35.8734,140.9039
35.9933,140.9039
36.0618,140.9528
36.1083,141.0859
36.1083,142.1122
36.1282,142.1798
36.1814,142.2259
36.2511,142.2360
36.3152,142.2067
36.3533,142.1475
36.3583,142.1122
36.3583,141.0646
36.3574,141.0615
36.3582,141.0582
36.3513,141.0233
36.2846,140.8328
36.2727,140.8161
36.2650,140.7970
36.2456,140.7785
36.2436,140.7756
36.2420,140.7750
36.2393,140.7724
36.1060,140.6772
36.0862,140.6703
36.0686,140.6590
36.0430,140.6553
36.0395,140.6541
36.0376,140.6545
36.0333,140.6539
35.8333,140.6539
35.8132,140.6598
35.7923,140.6608
35.7694,140.6727
35.7658,140.6737
35.7645,140.6752
35.7607,140.6772
35.7269,140.7013
35.6853,140.6652
35.6155,140.6552
35.5515,140.6844
35.5134,140.7437
35.5083,140.7789
35.5083,142.1122
35.0917,142.1122
35.0917,140.7789
35.0718,140.7113
35.0186,140.6652
34.9489,140.6552
34.8848,140.6844
34.8467,140.7437
34.8417,140.7789
34.8417,142.1122
34.4894,142.1122
34.4894,140.2025
34.7751,140.2025
34.7806,140.2246
34.7815,140.2474
34.7911,140.2664
34.7923,140.2708
34.7944,140.2729
34.7976,140.2792
34.8643,140.3744
34.8881,140.3934
34.9103,140.4143
34.9128,140.4147
34.9147,140.4164
34.9173,140.4168
34.9193,140.4184
34.9496,140.4215
34.9796,140.4270
34.9819,140.4261
34.9845,140.4264
34.9868,140.4254
34.9893,140.4256
35.0165,140.4119
35.0447,140.4003
35.0471,140.3978
35.0485,140.3972
35.0499,140.3950
35.0522,140.3939
35.0545,140.3899
35.0691,140.3744
35.1357,140.2792
35.1430,140.2576
35.1546,140.2379
35.1540,140.2248
35.1582,140.2124
35.1527,140.1903
35.1518,140.1675
35.1422,140.1486
35.1411,140.1441
35.1389,140.1421
35.1357,140.1358
35.0691,140.0406
35.0453,140.0215
35.0230,140.0007
35.0205,140.0002
35.0186,139.9985
35.0161,139.9982
35.0141,139.9966
34.9838,139.9934
34.9538,139.9879
34.9514,139.9889
34.9489,139.9885
34.9465,139.9896
34.9440,139.9893
34.9168,140.0031
34.8886,140.0146
34.8863,140.0171
34.8848,140.0178
34.8834,140.0199
34.8811,140.0211
34.8788,140.0251
34.8643,140.0406
34.7976,140.1358
34.7903,140.1574
34.7788,140.1770
34.7793,140.1901
34.7751,140.2025
34.4894,140.2025
34.4894,139.7022
36.6440,139.7022
Z" /> 
<g >
</g>
<g >
</g>
<g >
</g>
<g >
</g>
<g >
</g>
<g >
</g>
<g >
</g>
<g >
</g>
<g >
</g>
<g >
</g>
<g style="fill:#000000; fill-opacity:1.0000; 
stroke:#000000; stroke-width:0.0000; stroke-opacity:1; 
stroke-linecap:round; stroke-linejoin:round;">
<circle cx="32.9000" cy="150.9000" r="1.8000" /> 
</g>
<g style="fill:#000000; fill-opacity:1.0000; 
stroke:#000000; stroke-width:0.0212; stroke-opacity:1; 
stroke-linecap:round; stroke-linejoin:round;">
</g>
<g style="fill:#000000; fill-opacity:1.0000; 
stroke:#000000; stroke-width:0.0000; stroke-opacity:1; 
stroke-linecap:round; stroke-linejoin:round;">
<circle cx="32.9000" cy="150.9000" r="2.5000" /> 
</g>
<g style="fill:#000000; fill-opacity:1.0000; 
stroke:#000000; stroke-width:0.0212; stroke-opacity:1; 
stroke-linecap:round; stroke-linejoin:round;">
</g>
<g >
</g>
<g style="fill:#000000; fill-opacity:1.0000; 
stroke:#000000; stroke-width:0.0212; stroke-opacity:1; 
stroke-linecap:round; stroke-linejoin:round;">
</g>
<g style="fill:#000000; fill-opacity:1.0000; 
stroke:#000000; stroke-width:0.0000; stroke-opacity:1; 
stroke-linecap:round; stroke-linejoin:round;">
<circle cx="32.9000" cy="28.4000" r="1.8000" /> 
</g>
<g style="fill:#000000; fill-opacity:1.0000; 
stroke:#000000; stroke-width:0.0212; stroke-opacity:1; 
stroke-linecap:round; stroke-linejoin:round;">
</g>
<g style="fill:#000000; fill-opacity:1.0000; 
stroke:#000000; stroke-width:0.0000; stroke-opacity:1; 
stroke-linecap:round; stroke-linejoin:round;">
<circle cx="32.9000" cy="28.4000" r="2.5000" /> 
</g>
<g style="fill:#000000; fill-opacity:1.0000; 
stroke:#000000; stroke-width:0.0212; stroke-opacity:1; 
stroke-linecap:round; stroke-linejoin:round;">
</g>
<g >
</g>
<g >
</g>
<g >
</g>
<g style="fill:#000000; fill-opacity:1.0000; 
stroke:#000000; stroke-width:0.0212; stroke-opacity:1; 
stroke-linecap:round; stroke-linejoin:round;">
<g >
</g>
<g style="fill:#000000; fill-opacity:1.0000; 
stroke:#000000; stroke-width:0.0000; stroke-opacity:1; 
stroke-linecap:round; stroke-linejoin:round;">
<path style="fill:#000000; fill-opacity:1.0000; 
stroke:#000000; stroke-width:0.0000; stroke-opacity:1; 
stroke-linecap:round; stroke-linejoin:round;fill-rule:evenodd;"
d="M 31.5934,25.4802
31.6392,25.5330
31.6491,25.6021
31.6201,25.6657
31.5820,25.6953
31.3932,25.7901
31.1004,25.9827
30.8320,26.2080
30.8319,26.2080
30.5914,26.4629
30.5914,26.4629
30.3822,26.7440
30.2070,27.0475
30.2069,27.0475
30.0681,27.3693
29.9676,27.7050
29.9676,27.7050
29.9068,28.0501
29.9068,28.0501
29.8864,28.4000
29.8864,28.4000
29.9068,28.7499
29.9068,28.7499
29.9676,29.0950
29.9676,29.0950
30.0681,29.4307
30.2069,29.7525
30.2070,29.7525
30.3822,30.0560
30.5914,30.3371
30.5914,30.3371
30.7157,30.4688
30.8319,30.5920
31.1004,30.8173
31.3932,31.0099
31.7064,31.1671
32.0357,31.2870
32.0357,31.2870
32.0357,31.2870
32.3767,31.3678
32.3767,31.3678
32.3767,31.3678
32.7248,31.4085
32.7248,31.4085
33.0752,31.4085
33.0752,31.4085
33.4233,31.3678
33.4233,31.3678
33.4233,31.3678
33.6984,31.3026
33.7643,31.2870
34.0936,31.1671
34.4068,31.0099
34.6996,30.8173
34.9681,30.5920
35.2086,30.3371
35.4178,30.0560
35.5930,29.7525
35.7319,29.4307
35.8324,29.0950
35.8932,28.7499
35.9136,28.4000
35.8932,28.0501
35.8932,28.0501
35.8324,27.7050
35.8324,27.7050
35.7319,27.3693
35.5931,27.0475
35.5930,27.0475
35.4178,26.7440
35.4178,26.7440
35.2086,26.4629
35.2085,26.4629
35.0923,26.3396
34.9681,26.2080
34.9680,26.2080
34.9680,26.2080
34.6996,25.9827
34.6996,25.9827
34.4068,25.7901
34.4030,25.7882
34.2180,25.6953
34.1669,25.6476
34.1497,25.5799
34.1719,25.5136
34.2263,25.4699
34.2736,25.4605
65.5155,25.4605
65.5825,25.4802
65.6283,25.5330
65.6395,25.5845
65.6395,153.7155
65.6198,153.7825
65.5670,153.8283
65.5155,153.8395
34.2736,153.8395
34.2066,153.8198
34.1608,153.7670
34.1509,153.6979
34.1799,153.6343
34.2180,153.6047
34.2748,153.5761
34.4068,153.5099
34.6996,153.3173
34.9681,153.0920
35.2086,152.8371
35.4178,152.5560
35.5930,152.2525
35.7319,151.9307
35.8324,151.5950
35.8932,151.2499
35.9136,150.9000
35.8932,150.5501
35.8932,150.5501
35.8324,150.2050
35.8324,150.2050
35.7319,149.8693
35.5931,149.5475
35.5930,149.5475
35.4178,149.2440
35.4178,149.2440
35.2086,148.9629
35.2085,148.9629
35.0923,148.8396
34.9681,148.7080
34.9680,148.7080
34.9680,148.7080
34.6996,148.4827
34.6996,148.4827
34.4068,148.2901
34.4015,148.2875
34.0936,148.1329
34.0936,148.1329
33.7643,148.0130
33.7643,148.0130
33.4233,147.9322
33.4233,147.9322
33.0752,147.8915
32.7248,147.8915
32.4202,147.9271
32.3767,147.9322
32.3767,147.9322
32.0357,148.0130
32.0357,148.0130
31.7064,148.1329
31.7064,148.1329
31.3932,148.2901
31.1004,148.4827
30.8320,148.7080
30.8319,148.7080
30.5914,148.9629
30.5914,148.9629
30.3822,149.2440
30.2070,149.5475
30.2069,149.5475
30.0681,149.8693
29.9676,150.2050
29.9676,150.2050
29.9068,150.5501
29.9068,150.5501
29.8864,150.9000
29.8864,150.9000
29.9068,151.2499
29.9068,151.2499
29.9676,151.5950
29.9676,151.5950
30.0681,151.9307
30.2069,152.2525
30.2070,152.2525
30.3822,152.5560
30.5914,152.8371
30.5914,152.8371
30.7157,152.9688
30.8319,153.0920
31.1004,153.3173
31.3932,153.5099
31.4948,153.5609
31.5820,153.6047
31.6331,153.6524
31.6503,153.7201
31.6281,153.7864
31.5737,153.8301
31.5264,153.8395
25.5845,153.8395
25.5175,153.8198
25.4717,153.7670
25.4605,153.7155
25.4605,139.7069
34.4941,139.7069
34.4941,142.5169
36.6392,142.5169
36.6392,139.7576
44.3612,139.7576
44.3612,143.2336
47.1058,143.2336
47.1058,139.7576
54.7775,139.7576
54.7775,143.2336
56.9892,143.2336
56.9892,139.7576
54.7775,139.7576
47.1058,139.7576
44.3612,139.7576
36.6392,139.7576
36.6392,139.7069
34.4941,139.7069
25.4605,139.7069
25.4605,132.2671
32.1095,132.2671
32.1500,132.6390
32.2304,133.0045
32.2916,133.1862
32.3499,133.3590
32.3499,133.3590
32.3499,133.3590
32.5070,133.6986
32.5070,133.6986
32.6999,134.0192
32.6999,134.0192
32.6999,134.0192
32.6999,134.0192
32.8618,134.2322
32.9263,134.3171
32.9263,134.3171
33.1836,134.5887
33.4688,134.8309
33.4688,134.8310
33.4688,134.8310
33.6198,134.9334
33.7785,135.0409
33.7785,135.0409
34.1090,135.2162
34.1090,135.2162
34.1091,135.2162
34.4566,135.3547
34.4566,135.3547
34.6548,135.4097
34.8172,135.4548
35.1864,135.5153
35.4665,135.5305
35.6535,135.5305
35.9336,135.5153
36.3028,135.4548
36.5551,135.3847
36.6634,135.3547
36.6634,135.3547
36.6634,135.3547
36.6634,135.3547
37.0110,135.2162
37.3415,135.0409
37.6512,134.8310
37.9364,134.5887
38.1937,134.3171
38.4201,134.0192
38.4201,134.0192
38.4201,134.0192
38.5401,133.8199
38.6130,133.6986
38.7701,133.3590
38.8896,133.0045
38.9700,132.6390
39.0105,132.2671
42.2695,132.2671
42.3100,132.6390
42.3904,133.0045
42.4516,133.1862
42.5099,133.3590
42.5099,133.3590
42.5099,133.3590
42.6670,133.6986
42.6670,133.6986
42.8599,134.0192
42.8599,134.0192
42.8599,134.0192
42.8599,134.0192
43.0218,134.2322
43.0863,134.3171
43.0863,134.3171
43.3436,134.5887
43.6288,134.8309
43.6288,134.8310
43.6288,134.8310
43.7798,134.9334
43.9385,135.0409
43.9385,135.0409
44.2690,135.2162
44.2690,135.2162
44.2691,135.2162
44.6166,135.3547
44.6166,135.3547
44.8148,135.4097
44.9772,135.4548
45.3464,135.5153
45.6265,135.5305
45.8135,135.5305
46.0936,135.5153
46.4628,135.4548
46.7151,135.3847
46.8234,135.3547
46.8234,135.3547
46.8234,135.3547
46.8234,135.3547
47.1710,135.2162
47.5015,135.0409
47.8112,134.8310
48.0964,134.5887
48.3537,134.3171
48.5801,134.0192
48.5801,134.0192
48.5801,134.0192
48.7001,133.8199
48.7730,133.6986
48.9301,133.3590
49.0496,133.0045
49.1300,132.6390
49.1705,132.2671
52.4295,132.2671
52.4700,132.6390
52.5504,133.0045
52.6116,133.1862
52.6699,133.3590
52.6699,133.3590
52.6699,133.3590
52.8270,133.6986
52.8270,133.6986
53.0199,134.0192
53.0199,134.0192
53.0199,134.0192
53.0199,134.0192
53.1818,134.2322
53.2463,134.3171
53.2463,134.3171
53.5036,134.5887
53.7888,134.8309
53.7888,134.8310
53.7888,134.8310
53.9398,134.9334
54.0985,135.0409
54.0985,135.0409
54.4290,135.2162
54.4290,135.2162
54.4291,135.2162
54.7766,135.3547
54.7766,135.3547
54.9748,135.4097
55.1372,135.4548
55.5064,135.5153
55.7865,135.5305
55.9735,135.5305
56.2536,135.5153
56.6228,135.4548
56.8751,135.3847
56.9834,135.3547
56.9834,135.3547
56.9834,135.3547
56.9834,135.3547
57.3310,135.2162
57.6615,135.0409
57.9712,134.8310
58.2564,134.5887
58.5137,134.3171
58.7401,134.0192
58.7401,134.0192
58.7401,134.0192
58.8601,133.8199
58.9330,133.6986
59.0901,133.3590
59.2096,133.0045
59.2900,132.6390
59.3305,132.2671
59.3305,131.8929
59.2900,131.5210
59.2096,131.1555
59.0901,130.8010
58.9330,130.4614
58.9330,130.4614
58.7401,130.1408
58.7401,130.1408
58.7401,130.1408
58.7401,130.1408
58.5137,129.8429
58.2564,129.5713
58.2564,129.5713
57.9712,129.3291
57.9712,129.3290
57.9712,129.3290
57.8919,129.2753
57.6615,129.1191
57.3310,128.9438
57.3309,128.9438
56.9834,128.8053
56.9834,128.8053
56.6229,128.7052
56.6228,128.7052
56.6228,128.7052
56.6228,128.7052
56.5262,128.6894
56.2536,128.6447
55.9735,128.6295
55.7865,128.6295
55.5064,128.6447
55.1371,128.7052
55.1371,128.7052
54.7766,128.8053
54.7766,128.8053
54.4291,128.9438
54.4290,128.9438
54.0985,129.1191
53.7888,129.3290
53.7888,129.3291
53.5036,129.5713
53.2463,129.8429
53.2463,129.8429
53.0199,130.1408
53.0199,130.1408
52.8270,130.4614
52.8270,130.4614
52.6699,130.8010
52.5504,131.1555
52.4700,131.5210
52.4295,131.8929
52.4295,132.2671
49.1705,132.2671
49.1705,132.2671
49.1705,131.8929
49.1300,131.5210
49.0496,131.1555
48.9301,130.8010
48.7730,130.4614
48.7730,130.4614
48.5801,130.1408
48.5801,130.1408
48.5801,130.1408
48.5801,130.1408
48.3537,129.8429
48.0964,129.5713
48.0964,129.5713
47.8112,129.3291
47.8112,129.3290
47.8112,129.3290
47.7319,129.2753
47.5015,129.1191
47.1710,128.9438
47.1709,128.9438
46.8234,128.8053
46.8234,128.8053
46.4629,128.7052
46.4628,128.7052
46.4628,128.7052
46.4628,128.7052
46.3662,128.6894
46.0936,128.6447
45.8135,128.6295
45.6265,128.6295
45.3464,128.6447
44.9771,128.7052
44.9771,128.7052
44.6166,128.8053
44.6166,128.8053
44.2691,128.9438
44.2690,128.9438
43.9385,129.1191
43.6288,129.3290
43.6288,129.3291
43.3436,129.5713
43.0863,129.8429
43.0863,129.8429
42.8599,130.1408
42.8599,130.1408
42.6670,130.4614
42.6670,130.4614
42.5099,130.8010
42.3904,131.1555
42.3100,131.5210
42.2695,131.8929
42.2695,132.2671
39.0105,132.2671
39.0105,132.2671
39.0105,131.8929
38.9700,131.5210
38.8896,131.1555
38.7701,130.8010
38.6130,130.4614
38.6130,130.4614
38.4201,130.1408
38.4201,130.1408
38.4201,130.1408
38.4201,130.1408
38.1937,129.8429
37.9364,129.5713
37.9364,129.5713
37.6512,129.3291
37.6512,129.3290
37.6512,129.3290
37.5719,129.2753
37.3415,129.1191
37.0110,128.9438
37.0109,128.9438
36.6634,128.8053
36.6634,128.8053
36.3029,128.7052
36.3028,128.7052
36.3028,128.7052
36.3028,128.7052
36.2062,128.6894
35.9336,128.6447
35.6535,128.6295
35.4665,128.6295
35.1864,128.6447
34.8171,128.7052
34.8171,128.7052
34.4566,128.8053
34.4566,128.8053
34.1091,128.9438
34.1090,128.9438
33.7785,129.1191
33.4688,129.3290
33.4688,129.3291
33.1836,129.5713
32.9263,129.8429
32.9263,129.8429
32.6999,130.1408
32.6999,130.1408
32.5070,130.4614
32.5070,130.4614
32.3499,130.8010
32.2304,131.1555
32.1500,131.5210
32.1095,131.8929
32.1095,132.2671
25.4605,132.2671
25.4605,120.0731
54.2809,120.0731
54.2809,122.2181
57.6892,122.2181
57.6892,120.0731
54.2809,120.0731
25.4605,120.0731
25.4605,111.9603
51.9295,111.9603
51.9700,112.3590
52.0507,112.7515
52.0507,112.7515
52.1706,113.1338
52.1707,113.1338
52.3287,113.5020
52.5231,113.8524
52.5231,113.8524
52.7520,114.1812
53.0130,114.4853
53.0130,114.4853
53.3034,114.7613
53.6203,115.0066
53.7502,115.0875
53.9603,115.2185
53.9604,115.2185
54.3201,115.3950
54.3201,115.3950
54.3201,115.3950
54.6958,115.5342
54.6958,115.5342
54.6958,115.5342
55.0837,115.6346
55.4798,115.6953
55.7799,115.7105
55.7799,115.7105
55.9801,115.7105
55.9801,115.7105
56.2802,115.6953
56.6763,115.6346
57.0642,115.5342
57.4399,115.3950
57.7996,115.2185
58.1397,115.0066
58.4566,114.7613
58.7470,114.4853
59.0080,114.1812
59.2369,113.8524
59.4313,113.5020
59.5894,113.1338
59.7093,112.7515
59.7900,112.3590
59.8305,111.9603
59.8305,111.5597
59.7900,111.1610
59.7093,110.7685
59.5894,110.3862
59.4313,110.0180
59.2369,109.6676
59.0080,109.3388
59.0080,109.3388
58.7470,109.0347
58.7470,109.0347
58.4566,108.7587
58.1397,108.5134
57.7997,108.3015
57.7996,108.3015
57.4399,108.1250
57.4399,108.1250
57.0642,107.9858
56.9885,107.9662
56.6763,107.8854
56.6762,107.8854
56.6762,107.8854
56.2802,107.8247
56.0618,107.8136
55.9801,107.8095
55.7799,107.8095
55.7013,107.8135
55.4798,107.8247
55.0838,107.8854
54.6958,107.9858
54.3201,108.1250
54.3201,108.1250
53.9604,108.3015
53.9603,108.3015
53.6203,108.5134
53.3035,108.7587
53.0130,109.0347
52.7520,109.3388
52.5231,109.6676
52.5231,109.6676
52.3287,110.0180
52.1707,110.3862
52.1706,110.3862
52.0507,110.7685
52.0507,110.7685
51.9700,111.1610
51.9295,111.5597
51.9295,111.9603
25.4605,111.9603
25.4605,98.9660
50.6442,98.9660
50.6442,102.3394
60.9888,102.3394
60.9888,98.9660
50.6442,98.9660
25.4605,98.9660
25.4605,91.6271
52.4295,91.6271
52.4700,91.9990
52.5504,92.3645
52.6116,92.5462
52.6699,92.7190
52.6699,92.7190
52.6699,92.7190
52.8270,93.0586
52.8270,93.0586
53.0199,93.3792
53.0199,93.3792
53.0199,93.3792
53.0199,93.3792
53.1818,93.5922
53.2463,93.6771
53.2463,93.6771
53.5036,93.9487
53.7888,94.1909
53.7888,94.1910
53.7888,94.1910
53.9398,94.2934
54.0985,94.4009
54.0985,94.4009
54.4290,94.5762
54.4290,94.5762
54.4291,94.5762
54.7766,94.7147
54.7766,94.7147
54.9748,94.7697
55.1372,94.8148
55.5064,94.8753
55.7865,94.8905
55.9735,94.8905
56.2536,94.8753
56.6228,94.8148
56.8751,94.7447
56.9834,94.7147
56.9834,94.7147
56.9834,94.7147
56.9834,94.7147
57.3310,94.5762
57.6615,94.4009
57.9712,94.1910
58.2564,93.9487
58.5137,93.6771
58.7401,93.3792
58.7401,93.3792
58.7401,93.3792
58.8601,93.1799
58.9330,93.0586
59.0901,92.7190
59.2096,92.3645
59.2900,91.9990
59.3305,91.6271
59.3305,91.2529
59.2900,90.8810
59.2096,90.5155
59.0901,90.1610
58.9330,89.8214
58.9330,89.8214
58.7401,89.5008
58.7401,89.5008
58.7401,89.5008
58.7401,89.5008
58.5137,89.2029
58.2564,88.9313
58.2564,88.9313
57.9712,88.6891
57.9712,88.6890
57.9712,88.6890
57.8919,88.6353
57.6615,88.4791
57.3310,88.3038
57.3309,88.3038
56.9834,88.1653
56.9834,88.1653
56.6229,88.0652
56.6228,88.0652
56.6228,88.0652
56.6228,88.0652
56.5262,88.0494
56.2536,88.0047
55.9735,87.9895
55.7865,87.9895
55.5064,88.0047
55.1371,88.0652
55.1371,88.0652
54.7766,88.1653
54.7766,88.1653
54.4291,88.3038
54.4290,88.3038
54.0985,88.4791
53.7888,88.6890
53.7888,88.6891
53.5036,88.9313
53.2463,89.2029
53.2463,89.2029
53.0199,89.5008
53.0199,89.5008
52.8270,89.8214
52.8270,89.8214
52.6699,90.1610
52.5504,90.5155
52.4700,90.8810
52.4295,91.2529
52.4295,91.6271
25.4605,91.6271
25.4605,79.4531
34.3253,79.4531
34.3253,81.5981
36.9325,81.5981
36.9325,79.4531
34.3253,79.4531
25.4605,79.4531
25.4605,78.7599
53.5620,78.7599
53.5620,82.2336
58.0388,82.2336
58.0388,78.7599
53.5620,78.7599
25.4605,78.7599
25.4605,71.3071
32.1095,71.3071
32.1500,71.6790
32.2304,72.0445
32.2916,72.2262
32.3499,72.3990
32.3499,72.3990
32.3499,72.3990
32.5070,72.7386
32.5070,72.7386
32.6999,73.0592
32.6999,73.0592
32.6999,73.0592
32.6999,73.0592
32.8163,73.2124
32.9263,73.3571
32.9263,73.3571
33.1836,73.6287
33.4688,73.8709
33.4688,73.8709
33.4688,73.8710
33.6198,73.9734
33.7785,74.0809
33.7785,74.0809
34.1090,74.2562
34.1090,74.2562
34.1091,74.2562
34.4566,74.3947
34.4566,74.3947
34.6548,74.4497
34.8172,74.4948
35.1864,74.5553
35.4665,74.5705
35.6535,74.5705
35.9336,74.5553
36.3028,74.4948
36.5551,74.4247
36.6634,74.3947
36.6634,74.3947
36.6634,74.3947
36.6634,74.3947
37.0110,74.2562
37.3415,74.0809
37.6512,73.8710
37.9364,73.6287
38.1937,73.3571
38.4201,73.0592
38.4201,73.0592
38.4201,73.0592
38.5401,72.8599
38.6130,72.7386
38.7701,72.3990
38.8896,72.0445
38.9700,71.6790
39.0091,71.3203
51.9295,71.3203
51.9660,71.6790
51.9700,71.7190
52.0369,72.0445
52.0507,72.1115
52.0507,72.1115
52.1706,72.4938
52.1707,72.4938
52.3287,72.8620
52.5231,73.2124
52.5231,73.2124
52.7520,73.5412
53.0130,73.8453
53.0130,73.8453
53.3034,74.1213
53.6203,74.3666
53.6654,74.3947
53.9603,74.5785
53.9604,74.5785
54.3201,74.7550
54.3201,74.7550
54.3201,74.7550
54.6958,74.8942
54.6958,74.8942
54.6958,74.8942
55.0837,74.9946
55.4798,75.0553
55.7799,75.0705
55.7799,75.0705
55.9801,75.0705
55.9801,75.0705
56.2802,75.0553
56.6763,74.9946
57.0642,74.8942
57.4399,74.7550
57.7996,74.5785
58.1397,74.3666
58.4566,74.1213
58.7470,73.8453
59.0080,73.5412
59.2369,73.2124
59.4313,72.8620
59.5894,72.4938
59.7093,72.1115
59.7900,71.7190
59.8305,71.3203
59.8305,70.9197
59.7900,70.5210
59.7093,70.1285
59.5894,69.7462
59.4313,69.3780
59.2369,69.0276
59.0080,68.6988
59.0080,68.6988
58.7470,68.3947
58.7199,68.3690
58.4566,68.1187
58.2823,67.9838
58.1397,67.8734
57.7997,67.6615
57.7996,67.6615
57.4399,67.4850
57.4399,67.4850
57.0642,67.3458
56.9885,67.3262
56.6763,67.2454
56.6762,67.2454
56.6762,67.2454
56.2802,67.1847
56.0618,67.1736
55.9801,67.1695
55.7799,67.1695
55.7013,67.1735
55.4798,67.1847
55.0838,67.2454
54.6958,67.3458
54.3201,67.4850
54.3201,67.4850
53.9604,67.6615
53.9603,67.6615
53.6203,67.8734
53.3035,68.1187
53.0130,68.3947
52.7520,68.6988
52.5231,69.0276
52.5231,69.0276
52.3287,69.3780
52.1707,69.7462
52.1706,69.7462
52.0507,70.1285
52.0507,70.1285
51.9700,70.5210
51.9295,70.9197
51.9295,71.3203
39.0091,71.3203
39.0105,71.3071
39.0105,70.9329
38.9700,70.5610
38.8896,70.1955
38.7701,69.8410
38.6130,69.5014
38.6130,69.5014
38.4201,69.1808
38.4201,69.1808
38.4201,69.1808
38.4201,69.1808
38.1937,68.8829
37.9364,68.6113
37.9364,68.6113
37.6512,68.3691
37.6512,68.3690
37.6512,68.3690
37.5719,68.3153
37.3415,68.1591
37.0110,67.9838
37.0109,67.9838
36.6634,67.8453
36.6634,67.8453
36.3029,67.7452
36.3028,67.7452
36.3028,67.7452
36.3028,67.7452
36.2062,67.7294
35.9336,67.6847
35.6535,67.6695
35.4665,67.6695
35.1864,67.6847
34.8171,67.7452
34.8171,67.7452
34.4566,67.8453
34.4566,67.8453
34.1091,67.9838
34.1090,67.9838
33.7785,68.1591
33.4688,68.3690
33.4688,68.3691
33.1836,68.6113
32.9263,68.8829
32.9263,68.8829
32.6999,69.1808
32.6999,69.1808
32.5070,69.5014
32.5070,69.5014
32.3499,69.8410
32.2304,70.1955
32.1500,70.5610
32.1095,70.9329
32.1095,71.3071
25.4605,71.3071
25.4605,58.4399
33.9931,58.4399
33.9931,61.2469
37.0036,61.2469
37.0036,58.4399
33.9931,58.4399
25.4605,58.4399
25.4605,50.9871
32.1095,50.9871
32.1500,51.3590
32.2304,51.7245
32.2916,51.9062
32.3499,52.0790
32.3499,52.0790
32.3499,52.0790
32.5070,52.4186
32.5070,52.4186
32.6999,52.7392
32.6999,52.7392
32.6999,52.7392
32.6999,52.7392
32.8163,52.8924
32.9263,53.0371
32.9263,53.0371
33.1836,53.3087
33.4688,53.5509
33.4688,53.5510
33.4688,53.5510
33.6198,53.6534
33.7785,53.7609
33.7785,53.7609
34.1090,53.9362
34.1090,53.9362
34.1091,53.9362
34.4566,54.0747
34.4566,54.0747
34.6548,54.1297
34.8172,54.1748
35.1864,54.2353
35.4665,54.2505
35.6535,54.2505
35.9336,54.2353
36.3028,54.1748
36.5551,54.1047
36.6634,54.0747
36.6634,54.0747
36.6634,54.0747
36.6634,54.0747
37.0110,53.9362
37.3415,53.7609
37.6512,53.5510
37.9364,53.3087
38.1937,53.0371
38.4201,52.7392
38.4201,52.7392
38.4201,52.7392
38.5401,52.5399
38.6130,52.4186
38.7701,52.0790
38.8896,51.7245
38.9700,51.3590
39.0091,51.0003
51.9295,51.0003
51.9660,51.3590
51.9700,51.3990
52.0369,51.7245
52.0507,51.7915
52.0507,51.7915
52.1706,52.1738
52.1707,52.1738
52.3287,52.5420
52.5231,52.8924
52.5231,52.8924
52.7520,53.2212
53.0130,53.5253
53.0130,53.5253
53.3034,53.8013
53.6203,54.0466
53.6654,54.0747
53.9603,54.2585
53.9604,54.2585
54.3201,54.4350
54.3201,54.4350
54.3201,54.4350
54.6958,54.5742
54.6958,54.5742
54.6958,54.5742
55.0837,54.6746
55.4798,54.7353
55.7799,54.7505
55.7799,54.7505
55.9801,54.7505
55.9801,54.7505
56.2802,54.7353
56.6763,54.6746
57.0642,54.5742
57.4399,54.4350
57.7996,54.2585
58.1397,54.0466
58.4566,53.8013
58.7470,53.5253
59.0080,53.2212
59.2369,52.8924
59.4313,52.5420
59.5894,52.1738
59.7093,51.7915
59.7900,51.3990
59.8305,51.0003
59.8305,50.5997
59.7900,50.2010
59.7093,49.8085
59.5894,49.4262
59.4313,49.0580
59.2369,48.7076
59.0080,48.3788
59.0080,48.3788
58.7470,48.0747
58.7199,48.0490
58.4566,47.7987
58.2823,47.6638
58.1397,47.5534
57.7997,47.3415
57.7996,47.3415
57.4399,47.1650
57.4399,47.1650
57.0642,47.0258
56.9885,47.0062
56.6763,46.9254
56.6762,46.9254
56.6762,46.9254
56.2802,46.8647
56.0618,46.8536
55.9801,46.8495
55.7799,46.8495
55.7013,46.8535
55.4798,46.8647
55.0838,46.9254
54.6958,47.0258
54.3201,47.1650
54.3201,47.1650
53.9604,47.3415
53.9603,47.3415
53.6203,47.5534
53.3035,47.7987
53.0130,48.0747
52.7520,48.3788
52.5231,48.7076
52.5231,48.7076
52.3287,49.0580
52.1707,49.4262
52.1706,49.4262
52.0507,49.8085
52.0507,49.8085
51.9700,50.2010
51.9295,50.5997
51.9295,51.0003
39.0091,51.0003
39.0105,50.9871
39.0105,50.6129
38.9700,50.2410
38.8896,49.8755
38.7701,49.5210
38.6130,49.1814
38.6130,49.1814
38.4201,48.8608
38.4201,48.8608
38.4201,48.8608
38.4201,48.8608
38.1937,48.5629
37.9364,48.2913
37.9364,48.2913
37.6512,48.0491
37.6512,48.0490
37.6512,48.0490
37.5719,47.9953
37.3415,47.8391
37.0110,47.6638
37.0109,47.6638
36.6634,47.5253
36.6634,47.5253
36.3029,47.4252
36.3028,47.4252
36.3028,47.4252
36.3028,47.4252
36.2062,47.4094
35.9336,47.3647
35.6535,47.3495
35.4665,47.3495
35.1864,47.3647
34.8171,47.4252
34.8171,47.4252
34.4566,47.5253
34.4566,47.5253
34.1091,47.6638
34.1090,47.6638
33.7785,47.8391
33.4688,48.0490
33.4688,48.0491
33.1836,48.2913
32.9263,48.5629
32.9263,48.5629
32.6999,48.8608
32.6999,48.8608
32.5070,49.1814
32.5070,49.1814
32.3499,49.5210
32.2304,49.8755
32.1500,50.2410
32.1095,50.6129
32.1095,50.9871
25.4605,50.9871
25.4605,25.5845
25.4802,25.5175
25.5330,25.4717
25.5845,25.4605
31.5264,25.4605
Z" /> 
</g>
</g>
</g>
<g style="fill:#FFFFFF; fill-opacity:1.0000; 
stroke:#FFFFFF; stroke-width:0.0000; stroke-opacity:1; 
stroke-linecap:round; stroke-linejoin:round;">
<circle cx="35.5600" cy="50.8000" r="0.1750" /> 
</g>
<g style="fill:#FFFFFF; fill-opacity:1.0000; 
stroke:#FFFFFF; stroke-width:0.0212; stroke-opacity:1; 
stroke-linecap:round; stroke-linejoin:round;">
</g>
<g style="fill:#FFFFFF; fill-opacity:1.0000; 
stroke:#FFFFFF; stroke-width:0.0000; stroke-opacity:1; 
stroke-linecap:round; stroke-linejoin:round;">
<circle cx="55.8800" cy="50.8000" r="0.1750" /> 
</g>
<g style="fill:#FFFFFF; fill-opacity:1.0000; 
stroke:#FFFFFF; stroke-width:0.0212; stroke-opacity:1; 
stroke-linecap:round; stroke-linejoin:round;">
</g>
<g style="fill:#FFFFFF; fill-opacity:1.0000; 
stroke:#FFFFFF; stroke-width:0.0000; stroke-opacity:1; 
stroke-linecap:round; stroke-linejoin:round;">
<circle cx="35.5600" cy="71.1200" r="0.1750" /> 
</g>
<g style="fill:#FFFFFF; fill-opacity:1.0000; 
stroke:#FFFFFF; stroke-width:0.0212; stroke-opacity:1; 
stroke-linecap:round; stroke-linejoin:round;">
</g>
<g style="fill:#FFFFFF; fill-opacity:1.0000; 
stroke:#FFFFFF; stroke-width:0.0000; stroke-opacity:1; 
stroke-linecap:round; stroke-linejoin:round;">
<circle cx="35.5600" cy="132.0800" r="0.1750" /> 
</g>
<g style="fill:#FFFFFF; fill-opacity:1.0000; 
stroke:#FFFFFF; stroke-width:0.0212; stroke-opacity:1; 
stroke-linecap:round; stroke-linejoin:round;">
</g>
<g style="fill:#FFFFFF; fill-opacity:1.0000; 
stroke:#FFFFFF; stroke-width:0.0000; stroke-opacity:1; 
stroke-linecap:round; stroke-linejoin:round;">
<circle cx="45.7200" cy="132.0800" r="0.1750" /> 
</g>
<g style="fill:#FFFFFF; fill-opacity:1.0000; 
stroke:#FFFFFF; stroke-width:0.0212; stroke-opacity:1; 
stroke-linecap:round; stroke-linejoin:round;">
</g>
<g style="fill:#FFFFFF; fill-opacity:1.0000; 
stroke:#FFFFFF; stroke-width:0.0000; stroke-opacity:1; 
stroke-linecap:round; stroke-linejoin:round;">
<circle cx="55.8800" cy="71.1200" r="0.1750" /> 
</g>
<g style="fill:#FFFFFF; fill-opacity:1.0000; 
stroke:#FFFFFF; stroke-width:0.0212; stroke-opacity:1; 
stroke-linecap:round; stroke-linejoin:round;">
</g>
<g style="fill:#FFFFFF; fill-opacity:1.0000; 
stroke:#FFFFFF; stroke-width:0.0000; stroke-opacity:1; 
stroke-linecap:round; stroke-linejoin:round;">
<circle cx="55.8800" cy="111.7600" r="0.1750" /> 
</g>
<g style="fill:#FFFFFF; fill-opacity:1.0000; 
stroke:#FFFFFF; stroke-width:0.0212; stroke-opacity:1; 
stroke-linecap:round; stroke-linejoin:round;">
</g>
<g style="fill:#FFFFFF; fill-opacity:1.0000; 
stroke:#FFFFFF; stroke-width:0.0000; stroke-opacity:1; 
stroke-linecap:round; stroke-linejoin:round;">
<circle cx="55.8800" cy="132.0800" r="0.1750" /> 
</g>
<g style="fill:#FFFFFF; fill-opacity:1.0000; 
stroke:#FFFFFF; stroke-width:0.0212; stroke-opacity:1; 
stroke-linecap:round; stroke-linejoin:round;">
</g>
<g style="fill:#FFFFFF; fill-opacity:1.0000; 
stroke:#FFFFFF; stroke-width:0.0000; stroke-opacity:1; 
stroke-linecap:round; stroke-linejoin:round;">
<circle cx="55.8800" cy="91.4400" r="0.1750" /> 
</g>
<g style="fill:#FFFFFF; fill-opacity:1.0000; 
stroke:#FFFFFF; stroke-width:0.0212; stroke-opacity:1; 
stroke-linecap:round; stroke-linejoin:round;">
</g>
<g style="fill:#FFFFFF; fill-opacity:1.0000; 
stroke:#FFFFFF; stroke-width:0.0000; stroke-opacity:1; 
stroke-linecap:round; stroke-linejoin:round;">
<circle cx="32.9000" cy="150.9000" r="0.1750" /> 
</g>
<g style="fill:#FFFFFF; fill-opacity:1.0000; 
stroke:#FFFFFF; stroke-width:0.0212; stroke-opacity:1; 
stroke-linecap:round; stroke-linejoin:round;">
</g>
<g style="fill:#FFFFFF; fill-opacity:1.0000; 
stroke:#FFFFFF; stroke-width:0.0000; stroke-opacity:1; 
stroke-linecap:round; stroke-linejoin:round;">
<circle cx="32.9000" cy="28.4000" r="0.1750" /> 
</g>
<g style="fill:#FFFFFF; fill-opacity:1.0000; 
stroke:#FFFFFF; stroke-width:0.0212; stroke-opacity:1; 
stroke-linecap:round; stroke-linejoin:round;">
</g>
<g style="fill:#000000; fill-opacity:1.0000; 
stroke:#000000; stroke-width:0.0212; stroke-opacity:1; 
stroke-linecap:round; stroke-linejoin:round;">
</g> 
</svg>
