<?xml version="1.0" standalone="no"?>
 <!DOCTYPE svg PUBLIC "-//W3C//DTD SVG 1.1//EN" 
 "http://www.w3.org/Graphics/SVG/1.1/DTD/svg11.dtd"> 
<svg
  xmlns:svg="http://www.w3.org/2000/svg"
  xmlns="http://www.w3.org/2000/svg"
  xmlns:xlink="http://www.w3.org/1999/xlink"
  version="1.1"
  width="297.0022mm" height="210.0072mm" viewBox="0.0000 0.0000 297.0022 210.0072">
<title>SVG Image created as panel-F_Cu.svg date 2023/11/08 17:24:06 </title>
  <desc>Image generated by PCBNEW </desc>
<g style="fill:#000000; fill-opacity:1.0000;stroke:#000000; stroke-opacity:1.0000;
stroke-linecap:round; stroke-linejoin:round;"
 transform="translate(0 0) scale(1 1)">
</g>
<g style="fill:#000000; fill-opacity:0.0; 
stroke:#000000; stroke-width:0.0000; stroke-opacity:1; 
stroke-linecap:round; stroke-linejoin:round;">
</g>
<g style="fill:#000000; fill-opacity:0.0; 
stroke:#000000; stroke-width:0.2500; stroke-opacity:1; 
stroke-linecap:round; stroke-linejoin:round;">
</g>
<g style="fill:#000000; fill-opacity:1.0000; 
stroke:#000000; stroke-width:0.0000; stroke-opacity:1; 
stroke-linecap:round; stroke-linejoin:round;">
<path style="fill:#000000; fill-opacity:1.0000; 
stroke:#000000; stroke-width:0.0000; stroke-opacity:1; 
stroke-linecap:round; stroke-linejoin:round;fill-rule:evenodd;"
d="M 57.2745,101.3351
57.2261,101.3696
56.9729,101.3696
56.9044,101.3207
56.8579,101.1877
56.8579,101.0397
56.9044,100.9067
56.9729,100.8577
57.2662,100.8577
57.2745,100.8553
Z" /> 
<path style="fill:#000000; fill-opacity:1.0000; 
stroke:#000000; stroke-width:0.0000; stroke-opacity:1; 
stroke-linecap:round; stroke-linejoin:round;fill-rule:evenodd;"
d="M 59.7436,101.9054
51.9888,101.9054
51.9888,100.5423
52.2745,100.5423
52.2755,100.5454
52.2747,100.5486
52.2816,100.5836
52.3482,100.7740
52.3602,100.7907
52.3678,100.8099
52.3872,100.8284
52.3893,100.8313
52.3909,100.8319
52.3936,100.8344
52.5269,100.9297
52.5467,100.9366
52.5643,100.9479
52.5898,100.9516
52.5934,100.9528
52.5953,100.9524
52.5995,100.9530
52.7595,100.9530
52.8280,101.0019
52.8745,101.1349
52.8745,101.1877
52.8280,101.3207
52.7595,101.3696
52.5729,101.3696
52.4722,101.2977
52.4057,101.2745
52.3372,101.2911
52.2885,101.3420
52.2751,101.4111
52.3012,101.4765
52.3269,101.5011
52.4602,101.5964
52.4800,101.6032
52.4977,101.6146
52.5232,101.6182
52.5267,101.6195
52.5286,101.6190
52.5329,101.6196
52.7995,101.6196
52.8197,101.6137
52.8406,101.6127
52.8635,101.6009
52.8671,101.5998
52.8684,101.5983
52.8722,101.5964
53.0055,101.5011
53.0182,101.4849
53.0344,101.4723
53.0468,101.4484
53.0490,101.4457
53.0491,101.4440
53.0509,101.4407
53.1175,101.2502
53.1177,101.2469
53.1195,101.2441
53.1245,101.2089
53.4745,101.2089
53.4755,101.2121
53.4747,101.2153
53.4816,101.2502
53.5482,101.4407
53.5602,101.4574
53.5678,101.4765
53.5872,101.4951
53.5893,101.4979
53.5909,101.4986
53.5936,101.5011
53.7269,101.5964
53.7467,101.6032
53.7643,101.6146
53.7898,101.6182
53.7934,101.6195
53.7953,101.6190
53.7995,101.6196
53.9995,101.6196
54.0197,101.6137
54.0406,101.6127
54.0635,101.6009
54.0671,101.5998
54.0684,101.5983
54.0722,101.5964
54.1060,101.5722
54.1476,101.6083
54.2173,101.6184
54.2814,101.5891
54.3195,101.5299
54.3245,101.4946
54.3245,100.5423
54.6745,100.5423
54.6755,100.5454
54.6747,100.5486
54.6816,100.5836
54.7482,100.7740
54.7602,100.7907
54.7678,100.8099
54.7872,100.8284
54.7893,100.8313
54.7909,100.8319
54.7936,100.8344
54.9269,100.9297
54.9467,100.9366
54.9643,100.9479
54.9898,100.9516
54.9934,100.9528
54.9953,100.9524
54.9995,100.9530
55.1595,100.9530
55.2280,101.0019
55.2745,101.1349
55.2745,101.1877
55.2280,101.3207
55.1595,101.3696
54.9729,101.3696
54.8722,101.2977
54.8057,101.2745
54.7372,101.2911
54.6885,101.3420
54.6751,101.4111
54.7012,101.4765
54.7269,101.5011
54.8602,101.5964
54.8800,101.6032
54.8977,101.6146
54.9232,101.6182
54.9267,101.6195
54.9286,101.6190
54.9329,101.6196
55.1995,101.6196
55.2197,101.6137
55.2406,101.6127
55.2635,101.6009
55.2671,101.5998
55.2684,101.5983
55.2722,101.5964
55.4055,101.5011
55.4182,101.4849
55.4344,101.4723
55.4468,101.4484
55.4490,101.4457
55.4491,101.4440
55.4509,101.4407
55.5175,101.2502
55.5177,101.2469
55.5195,101.2441
55.5245,101.2089
55.5245,101.1137
55.5236,101.1105
55.5244,101.1073
55.5175,101.0724
55.4509,100.8819
55.4389,100.8652
55.4312,100.8461
55.4118,100.8275
55.4098,100.8247
55.4082,100.8241
55.4055,100.8215
55.2722,100.7263
55.2524,100.7194
55.2348,100.7080
55.2093,100.7044
55.2057,100.7031
55.2038,100.7036
55.1995,100.7030
55.0396,100.7030
54.9711,100.6540
54.9245,100.5210
54.9245,100.4683
54.9711,100.3352
55.0396,100.2863
55.1595,100.2863
55.2602,100.3583
55.3267,100.3814
55.3952,100.3649
55.4439,100.3140
55.4573,100.2448
55.4312,100.1794
55.4309,100.1791
55.6758,100.1791
55.7051,100.2432
55.7643,100.2812
55.7995,100.2863
55.8745,100.2863
55.8745,101.2089
55.8755,101.2121
55.8747,101.2153
55.8816,101.2502
55.9482,101.4407
55.9602,101.4574
55.9678,101.4765
55.9872,101.4951
55.9893,101.4979
55.9909,101.4986
55.9936,101.5011
56.1269,101.5964
56.1467,101.6032
56.1643,101.6146
56.1898,101.6182
56.1934,101.6195
56.1953,101.6190
56.1995,101.6196
56.3329,101.6196
56.4005,101.5998
56.4466,101.5466
56.4566,101.4768
56.4273,101.4128
56.3681,101.3747
56.3329,101.3696
56.2396,101.3696
56.1711,101.3207
56.1320,101.2089
56.6079,101.2089
56.6088,101.2121
56.6080,101.2153
56.6149,101.2502
56.6816,101.4407
56.6935,101.4574
56.7012,101.4765
56.7206,101.4951
56.7226,101.4979
56.7242,101.4986
56.7269,101.5011
56.8602,101.5964
56.8800,101.6032
56.8977,101.6146
56.9232,101.6182
56.9267,101.6195
56.9286,101.6190
56.9329,101.6196
57.2662,101.6196
57.2863,101.6137
57.3073,101.6127
57.3301,101.6009
57.3338,101.5998
57.3351,101.5983
57.3357,101.5980
57.3476,101.6083
57.4173,101.6184
57.4814,101.5891
57.5195,101.5299
57.5245,101.4946
57.9412,101.4946
57.9610,101.5622
58.0143,101.6083
58.0840,101.6184
58.1481,101.5891
58.1861,101.5299
58.1912,101.4946
58.6079,101.4946
58.6277,101.5622
58.6809,101.6083
58.7507,101.6184
58.8147,101.5891
58.8528,101.5299
58.8579,101.4946
58.8579,100.3912
58.8896,100.3458
58.9729,100.2863
59.0928,100.2863
59.1613,100.3352
59.2079,100.4683
59.2079,101.4946
59.2277,101.5622
59.2809,101.6083
59.3507,101.6184
59.4147,101.5891
59.4528,101.5299
59.4579,101.4946
59.4579,100.4470
59.4569,100.4439
59.4577,100.4406
59.4509,100.4057
59.3842,100.2152
59.3722,100.1985
59.3646,100.1794
59.3452,100.1609
59.3431,100.1580
59.3415,100.1574
59.3389,100.1548
59.2055,100.0596
59.1857,100.0527
59.1681,100.0414
59.1426,100.0377
59.1390,100.0365
59.1371,100.0369
59.1329,100.0363
58.9329,100.0363
58.9128,100.0422
58.8918,100.0432
58.8689,100.0551
58.8653,100.0561
58.8640,100.0576
58.8602,100.0596
58.8265,100.0837
58.7848,100.0476
58.7151,100.0376
58.6510,100.0668
58.6129,100.1261
58.6079,100.1613
58.6079,101.4946
58.1912,101.4946
58.1912,100.1613
58.1714,100.0937
58.1181,100.0476
58.0484,100.0376
57.9843,100.0668
57.9463,100.1261
57.9412,100.1613
57.9412,101.4946
57.5245,101.4946
57.5245,100.4470
57.5236,100.4439
57.5244,100.4406
57.5175,100.4057
57.4509,100.2152
57.4389,100.1985
57.4312,100.1794
57.4118,100.1609
57.4098,100.1580
57.4082,100.1574
57.4055,100.1548
57.2722,100.0596
57.2524,100.0527
57.2348,100.0414
57.2093,100.0377
57.2057,100.0365
57.2038,100.0369
57.1995,100.0363
56.9329,100.0363
56.9128,100.0422
56.8918,100.0432
56.8689,100.0551
56.8653,100.0561
56.8640,100.0576
56.8602,100.0596
56.7269,100.1548
56.6834,100.2103
56.6768,100.2804
56.7092,100.3429
56.7702,100.3781
56.8406,100.3746
56.8722,100.3583
56.9729,100.2863
57.1595,100.2863
57.2280,100.3352
57.2745,100.4683
57.2745,100.5732
57.2261,100.6077
56.9329,100.6077
56.9128,100.6136
56.8918,100.6147
56.8689,100.6265
56.8653,100.6276
56.8640,100.6291
56.8602,100.6310
56.7269,100.7263
56.7142,100.7424
56.6980,100.7551
56.6856,100.7789
56.6834,100.7817
56.6833,100.7834
56.6816,100.7867
56.6149,100.9772
56.6147,100.9804
56.6129,100.9832
56.6079,101.0184
56.6079,101.2089
56.1320,101.2089
56.1245,101.1877
56.1245,100.2863
56.3329,100.2863
56.4005,100.2665
56.4466,100.2132
56.4566,100.1435
56.4273,100.0794
56.3681,100.0414
56.3329,100.0363
56.1245,100.0363
56.1245,99.5849
57.8746,99.5849
57.8802,99.6070
57.8811,99.6298
57.8907,99.6488
57.8918,99.6532
57.8940,99.6553
57.8971,99.6616
57.9638,99.7568
57.9876,99.7758
58.0098,99.7967
58.0123,99.7971
58.0143,99.7988
58.0168,99.7992
58.0188,99.8008
58.0491,99.8039
58.0791,99.8094
58.0815,99.8085
58.0840,99.8088
58.0863,99.8078
58.0889,99.8080
58.1161,99.7943
58.1443,99.7827
58.1466,99.7802
58.1481,99.7796
58.1494,99.7774
58.1517,99.7763
58.1541,99.7723
58.1686,99.7568
58.2353,99.6616
58.2426,99.6400
58.2541,99.6203
58.2536,99.6072
58.2578,99.5948
58.2522,99.5727
58.2513,99.5499
58.2417,99.5310
58.2406,99.5265
58.2384,99.5245
58.2353,99.5182
58.1686,99.4230
58.1448,99.4039
58.1226,99.3831
58.1201,99.3826
58.1181,99.3809
58.1156,99.3806
58.1136,99.3790
58.0833,99.3758
58.0533,99.3703
58.0509,99.3713
58.0484,99.3709
58.0461,99.3720
58.0435,99.3717
58.0163,99.3855
57.9881,99.3970
57.9858,99.3995
57.9843,99.4002
57.9830,99.4023
57.9807,99.4035
57.9783,99.4075
57.9638,99.4230
57.8971,99.5182
57.8899,99.5398
57.8783,99.5594
57.8788,99.5725
57.8746,99.5849
56.1245,99.5849
56.1245,99.4946
56.1047,99.4271
56.0515,99.3809
55.9817,99.3709
55.9177,99.4002
55.8796,99.4594
55.8745,99.4946
55.8745,100.0363
55.7995,100.0363
55.7320,100.0561
55.6858,100.1094
55.6758,100.1791
55.4309,100.1791
55.4055,100.1548
55.2722,100.0596
55.2524,100.0527
55.2348,100.0414
55.2093,100.0377
55.2057,100.0365
55.2038,100.0369
55.1995,100.0363
54.9995,100.0363
54.9794,100.0422
54.9585,100.0432
54.9356,100.0551
54.9320,100.0561
54.9307,100.0576
54.9269,100.0596
54.7936,100.1548
54.7809,100.1710
54.7646,100.1837
54.7523,100.2075
54.7501,100.2103
54.7499,100.2120
54.7482,100.2152
54.6816,100.4057
54.6814,100.4090
54.6796,100.4118
54.6745,100.4470
54.6745,100.5423
54.3245,100.5423
54.3245,100.1613
54.3047,100.0937
54.2515,100.0476
54.1818,100.0376
54.1177,100.0668
54.0796,100.1261
54.0745,100.1613
54.0745,101.2648
54.0428,101.3101
53.9595,101.3696
53.8396,101.3696
53.7711,101.3207
53.7245,101.1877
53.7245,100.1613
53.7047,100.0937
53.6515,100.0476
53.5817,100.0376
53.5177,100.0668
53.4796,100.1261
53.4745,100.1613
53.4745,101.2089
53.1245,101.2089
53.1245,101.1137
53.1236,101.1105
53.1244,101.1073
53.1175,101.0724
53.0509,100.8819
53.0389,100.8652
53.0312,100.8461
53.0118,100.8275
53.0098,100.8247
53.0082,100.8241
53.0055,100.8215
52.8722,100.7263
52.8524,100.7194
52.8348,100.7080
52.8093,100.7044
52.8057,100.7031
52.8038,100.7036
52.7995,100.7030
52.6396,100.7030
52.5711,100.6540
52.5245,100.5210
52.5245,100.4683
52.5711,100.3352
52.6396,100.2863
52.7595,100.2863
52.8602,100.3583
52.9267,100.3814
52.9952,100.3649
53.0439,100.3140
53.0573,100.2448
53.0312,100.1794
53.0055,100.1548
52.8722,100.0596
52.8524,100.0527
52.8348,100.0414
52.8093,100.0377
52.8057,100.0365
52.8038,100.0369
52.7995,100.0363
52.5995,100.0363
52.5794,100.0422
52.5585,100.0432
52.5356,100.0551
52.5320,100.0561
52.5307,100.0576
52.5269,100.0596
52.3936,100.1548
52.3809,100.1710
52.3646,100.1837
52.3523,100.2075
52.3501,100.2103
52.3499,100.2120
52.3482,100.2152
52.2816,100.4057
52.2814,100.4090
52.2796,100.4118
52.2745,100.4470
52.2745,100.5423
51.9888,100.5423
51.9888,99.0846
59.7436,99.0846
Z" /> 
</g>
<g style="fill:#000000; fill-opacity:1.0000; 
stroke:#000000; stroke-width:0.2500; stroke-opacity:1; 
stroke-linecap:round; stroke-linejoin:round;">
</g>
<g style="fill:#000000; fill-opacity:1.0000; 
stroke:#000000; stroke-width:0.0000; stroke-opacity:1; 
stroke-linecap:round; stroke-linejoin:round;">
<path style="fill:#000000; fill-opacity:1.0000; 
stroke:#000000; stroke-width:0.0000; stroke-opacity:1; 
stroke-linecap:round; stroke-linejoin:round;fill-rule:evenodd;"
d="M 53.7105,120.7060
53.7571,120.8391
53.7571,120.9140
53.3404,121.0331
53.3404,120.8391
53.3870,120.7060
53.4555,120.6571
53.6420,120.6571
Z" /> 
<path style="fill:#000000; fill-opacity:1.0000; 
stroke:#000000; stroke-width:0.0000; stroke-opacity:1; 
stroke-linecap:round; stroke-linejoin:round;fill-rule:evenodd;"
d="M 55.6438,120.7060
55.6904,120.8391
55.6904,120.9140
55.2737,121.0331
55.2737,120.8391
55.3203,120.7060
55.3888,120.6571
55.5753,120.6571
Z" /> 
<path style="fill:#000000; fill-opacity:1.0000; 
stroke:#000000; stroke-width:0.0000; stroke-opacity:1; 
stroke-linecap:round; stroke-linejoin:round;fill-rule:evenodd;"
d="M 56.8904,121.7059
56.8420,121.7404
56.5888,121.7404
56.5203,121.6915
56.4737,121.5585
56.4737,121.4105
56.5203,121.2775
56.5888,121.2285
56.8821,121.2285
56.8904,121.2261
Z" /> 
<path style="fill:#000000; fill-opacity:1.0000; 
stroke:#000000; stroke-width:0.0000; stroke-opacity:1; 
stroke-linecap:round; stroke-linejoin:round;fill-rule:evenodd;"
d="M 59.2438,120.7060
59.2904,120.8391
59.2904,120.9140
58.8737,121.0331
58.8737,120.8391
58.9203,120.7060
58.9888,120.6571
59.1753,120.6571
Z" /> 
<path style="fill:#000000; fill-opacity:1.0000; 
stroke:#000000; stroke-width:0.0000; stroke-opacity:1; 
stroke-linecap:round; stroke-linejoin:round;fill-rule:evenodd;"
d="M 59.8261,122.2762
52.0047,122.2762
52.0047,121.8654
52.2904,121.8654
52.3102,121.9330
52.3635,121.9791
52.4332,121.9892
52.4973,121.9599
52.5353,121.9007
52.5404,121.8654
52.5404,121.5797
53.0904,121.5797
53.0913,121.5829
53.0906,121.5861
53.0974,121.6210
53.1641,121.8115
53.1761,121.8282
53.1837,121.8473
53.2031,121.8659
53.2051,121.8687
53.2067,121.8694
53.2094,121.8719
53.3428,121.9672
53.3625,121.9740
53.3802,121.9854
53.4057,121.9890
53.4093,121.9903
53.4112,121.9898
53.4154,121.9904
53.6821,121.9904
53.7022,121.9845
53.7231,121.9835
53.7460,121.9717
53.7497,121.9706
53.7509,121.9691
53.7547,121.9672
53.8881,121.8719
53.9315,121.8165
53.9381,121.7464
53.9057,121.6838
53.8447,121.6487
53.7744,121.6521
53.7428,121.6685
53.6420,121.7404
53.4555,121.7404
53.3870,121.6915
53.3478,121.5797
54.3571,121.5797
54.3580,121.5829
54.3572,121.5861
54.3641,121.6210
54.4308,121.8115
54.4427,121.8282
54.4504,121.8473
54.4698,121.8659
54.4718,121.8687
54.4734,121.8694
54.4761,121.8719
54.6094,121.9672
54.6759,121.9903
54.7444,121.9738
54.7931,121.9229
54.8065,121.8537
54.7804,121.7883
54.7547,121.7637
54.6536,121.6915
54.6145,121.5797
55.0237,121.5797
55.0247,121.5829
55.0239,121.5861
55.0308,121.6210
55.0974,121.8115
55.1094,121.8282
55.1170,121.8473
55.1364,121.8659
55.1385,121.8687
55.1401,121.8694
55.1428,121.8719
55.2761,121.9672
55.2959,121.9740
55.3135,121.9854
55.3390,121.9890
55.3426,121.9903
55.3445,121.9898
55.3487,121.9904
55.6154,121.9904
55.6355,121.9845
55.6565,121.9835
55.6793,121.9717
55.6830,121.9706
55.6843,121.9691
55.6881,121.9672
55.8214,121.8719
55.8649,121.8165
55.8714,121.7464
55.8391,121.6838
55.7780,121.6487
55.7077,121.6521
55.6761,121.6685
55.5753,121.7404
55.3888,121.7404
55.3203,121.6915
55.2812,121.5797
56.2237,121.5797
56.2247,121.5829
56.2239,121.5861
56.2308,121.6210
56.2974,121.8115
56.3094,121.8282
56.3170,121.8473
56.3364,121.8659
56.3385,121.8687
56.3401,121.8694
56.3428,121.8719
56.4761,121.9672
56.4959,121.9740
56.5135,121.9854
56.5390,121.9890
56.5426,121.9903
56.5445,121.9898
56.5487,121.9904
56.8821,121.9904
56.9022,121.9845
56.9231,121.9835
56.9460,121.9717
56.9497,121.9706
56.9509,121.9691
56.9515,121.9688
56.9635,121.9791
57.0332,121.9892
57.0973,121.9599
57.1353,121.9007
57.1404,121.8654
57.1404,120.9131
57.4904,120.9131
57.4913,120.9162
57.4906,120.9194
57.4974,120.9544
57.5641,121.1448
57.5761,121.1615
57.5837,121.1807
57.6031,121.1992
57.6051,121.2021
57.6067,121.2027
57.6094,121.2052
57.7428,121.3005
57.7625,121.3074
57.7802,121.3187
57.8057,121.3224
57.8093,121.3236
57.8112,121.3232
57.8154,121.3238
57.9753,121.3238
58.0438,121.3727
58.0904,121.5057
58.0904,121.5585
58.0438,121.6915
57.9753,121.7404
57.7888,121.7404
57.6881,121.6685
57.6215,121.6453
57.5531,121.6619
57.5044,121.7128
57.4910,121.7819
57.5170,121.8473
57.5428,121.8719
57.6761,121.9672
57.6959,121.9740
57.7135,121.9854
57.7390,121.9890
57.7426,121.9903
57.7445,121.9898
57.7487,121.9904
58.0154,121.9904
58.0355,121.9845
58.0565,121.9835
58.0793,121.9717
58.0830,121.9706
58.0843,121.9691
58.0881,121.9672
58.2214,121.8719
58.2341,121.8557
58.2503,121.8431
58.2627,121.8192
58.2649,121.8165
58.2650,121.8148
58.2667,121.8115
58.3334,121.6210
58.3336,121.6177
58.3353,121.6149
58.3404,121.5797
58.6237,121.5797
58.6247,121.5829
58.6239,121.5861
58.6308,121.6210
58.6974,121.8115
58.7094,121.8282
58.7170,121.8473
58.7364,121.8659
58.7385,121.8687
58.7401,121.8694
58.7428,121.8719
58.8761,121.9672
58.8959,121.9740
58.9135,121.9854
58.9390,121.9890
58.9426,121.9903
58.9445,121.9898
58.9487,121.9904
59.2154,121.9904
59.2355,121.9845
59.2565,121.9835
59.2793,121.9717
59.2830,121.9706
59.2843,121.9691
59.2881,121.9672
59.4214,121.8719
59.4649,121.8165
59.4714,121.7464
59.4391,121.6838
59.3780,121.6487
59.3077,121.6521
59.2761,121.6685
59.1753,121.7404
58.9888,121.7404
58.9203,121.6915
58.8737,121.5585
58.8737,121.2931
59.4497,121.1285
59.4726,121.1140
59.4973,121.1028
59.5020,121.0955
59.5093,121.0908
59.5207,121.0663
59.5353,121.0435
59.5371,121.0310
59.5390,121.0270
59.5384,121.0224
59.5404,121.0083
59.5404,120.8178
59.5395,120.8147
59.5402,120.8114
59.5334,120.7765
59.4667,120.5860
59.4547,120.5693
59.4471,120.5502
59.4277,120.5317
59.4257,120.5288
59.4241,120.5282
59.4214,120.5256
59.2881,120.4304
59.2683,120.4235
59.2506,120.4122
59.2251,120.4085
59.2215,120.4073
59.2196,120.4077
59.2154,120.4071
58.9487,120.4071
58.9286,120.4130
58.9077,120.4140
58.8848,120.4259
58.8812,120.4269
58.8799,120.4284
58.8761,120.4304
58.7428,120.5256
58.7301,120.5418
58.7138,120.5545
58.7015,120.5783
58.6993,120.5811
58.6991,120.5828
58.6974,120.5860
58.6308,120.7765
58.6306,120.7798
58.6288,120.7826
58.6237,120.8178
58.6237,121.5797
58.3404,121.5797
58.3404,121.4845
58.3395,121.4813
58.3402,121.4781
58.3334,121.4432
58.2667,121.2527
58.2547,121.2360
58.2471,121.2169
58.2277,121.1983
58.2257,121.1955
58.2241,121.1949
58.2214,121.1923
58.0881,121.0971
58.0683,121.0902
58.0506,121.0788
58.0251,121.0752
58.0215,121.0739
58.0196,121.0744
58.0154,121.0738
57.8555,121.0738
57.7870,121.0248
57.7404,120.8918
57.7404,120.8391
57.7870,120.7060
57.8555,120.6571
57.9753,120.6571
58.0761,120.7291
58.1426,120.7522
58.2111,120.7357
58.2598,120.6848
58.2732,120.6156
58.2471,120.5502
58.2214,120.5256
58.0881,120.4304
58.0683,120.4235
58.0506,120.4122
58.0251,120.4085
58.0215,120.4073
58.0196,120.4077
58.0154,120.4071
57.8154,120.4071
57.7953,120.4130
57.7744,120.4140
57.7515,120.4259
57.7478,120.4269
57.7465,120.4284
57.7428,120.4304
57.6094,120.5256
57.5967,120.5418
57.5805,120.5545
57.5681,120.5783
57.5660,120.5811
57.5658,120.5828
57.5641,120.5860
57.4974,120.7765
57.4973,120.7798
57.4955,120.7826
57.4904,120.8178
57.4904,120.9131
57.1404,120.9131
57.1404,120.8178
57.1395,120.8147
57.1402,120.8114
57.1334,120.7765
57.0667,120.5860
57.0547,120.5693
57.0471,120.5502
57.0277,120.5317
57.0257,120.5288
57.0241,120.5282
57.0214,120.5256
56.8881,120.4304
56.8683,120.4235
56.8506,120.4122
56.8251,120.4085
56.8215,120.4073
56.8196,120.4077
56.8154,120.4071
56.5487,120.4071
56.5286,120.4130
56.5077,120.4140
56.4848,120.4259
56.4812,120.4269
56.4799,120.4284
56.4761,120.4304
56.3428,120.5256
56.2993,120.5811
56.2927,120.6512
56.3251,120.7137
56.3861,120.7489
56.4565,120.7454
56.4881,120.7291
56.5888,120.6571
56.7753,120.6571
56.8438,120.7060
56.8904,120.8391
56.8904,120.9440
56.8420,120.9785
56.5487,120.9785
56.5286,120.9844
56.5077,120.9855
56.4848,120.9973
56.4812,120.9984
56.4799,120.9999
56.4761,121.0018
56.3428,121.0971
56.3301,121.1132
56.3138,121.1259
56.3015,121.1497
56.2993,121.1525
56.2991,121.1542
56.2974,121.1575
56.2308,121.3480
56.2306,121.3512
56.2288,121.3540
56.2237,121.3892
56.2237,121.5797
55.2812,121.5797
55.2737,121.5585
55.2737,121.2931
55.8497,121.1285
55.8726,121.1140
55.8973,121.1028
55.9019,121.0955
55.9093,121.0908
55.9207,121.0663
55.9353,121.0435
55.9371,121.0310
55.9390,121.0270
55.9384,121.0224
55.9404,121.0083
55.9404,120.8178
55.9395,120.8147
55.9402,120.8114
55.9334,120.7765
55.8667,120.5860
55.8547,120.5693
55.8471,120.5502
55.8277,120.5317
55.8257,120.5288
55.8241,120.5282
55.8214,120.5256
55.6881,120.4304
55.6683,120.4235
55.6506,120.4122
55.6251,120.4085
55.6215,120.4073
55.6196,120.4077
55.6154,120.4071
55.3487,120.4071
55.3286,120.4130
55.3077,120.4140
55.2848,120.4259
55.2812,120.4269
55.2799,120.4284
55.2761,120.4304
55.1428,120.5256
55.1301,120.5418
55.1138,120.5545
55.1015,120.5783
55.0993,120.5811
55.0991,120.5828
55.0974,120.5860
55.0308,120.7765
55.0306,120.7798
55.0288,120.7826
55.0237,120.8178
55.0237,121.5797
54.6145,121.5797
54.6071,121.5585
54.6071,119.8654
54.5872,119.7979
54.5340,119.7517
54.4643,119.7417
54.4002,119.7710
54.3621,119.8302
54.3571,119.8654
54.3571,121.5797
53.3478,121.5797
53.3404,121.5585
53.3404,121.2931
53.9164,121.1285
53.9393,121.1140
53.9639,121.1028
53.9686,121.0955
53.9759,121.0908
53.9874,121.0663
54.0020,121.0435
54.0038,121.0310
54.0057,121.0270
54.0050,121.0224
54.0071,121.0083
54.0071,120.8178
54.0061,120.8147
54.0069,120.8114
54.0001,120.7765
53.9334,120.5860
53.9214,120.5693
53.9138,120.5502
53.8944,120.5317
53.8923,120.5288
53.8907,120.5282
53.8881,120.5256
53.7547,120.4304
53.7349,120.4235
53.7173,120.4122
53.6918,120.4085
53.6882,120.4073
53.6863,120.4077
53.6821,120.4071
53.4154,120.4071
53.3953,120.4130
53.3744,120.4140
53.3515,120.4259
53.3478,120.4269
53.3465,120.4284
53.3428,120.4304
53.2094,120.5256
53.1967,120.5418
53.1805,120.5545
53.1681,120.5783
53.1660,120.5811
53.1658,120.5828
53.1641,120.5860
53.0974,120.7765
53.0973,120.7798
53.0955,120.7826
53.0904,120.8178
53.0904,121.5797
52.5404,121.5797
52.5404,120.9343
52.5944,120.7801
52.6388,120.7166
52.7221,120.6571
52.8154,120.6571
52.8830,120.6373
52.9291,120.5840
52.9391,120.5143
52.9099,120.4502
52.8506,120.4122
52.8154,120.4071
52.6821,120.4071
52.6620,120.4130
52.6410,120.4140
52.6181,120.4259
52.6145,120.4269
52.6132,120.4284
52.6094,120.4304
52.5277,120.4888
52.5206,120.4645
52.4673,120.4184
52.3976,120.4084
52.3335,120.4376
52.2955,120.4969
52.2904,120.5321
52.2904,121.8654
52.0047,121.8654
52.0047,119.4560
59.8261,119.4560
Z" /> 
</g>
<g style="fill:#000000; fill-opacity:1.0000; 
stroke:#000000; stroke-width:0.2500; stroke-opacity:1; 
stroke-linecap:round; stroke-linejoin:round;">
</g>
<g style="fill:#000000; fill-opacity:1.0000; 
stroke:#000000; stroke-width:0.0000; stroke-opacity:1; 
stroke-linecap:round; stroke-linejoin:round;">
<path style="fill:#000000; fill-opacity:1.0000; 
stroke:#000000; stroke-width:0.0000; stroke-opacity:1; 
stroke-linecap:round; stroke-linejoin:round;fill-rule:evenodd;"
d="M 53.4492,60.6951
53.4008,60.7296
53.1476,60.7296
53.0791,60.6807
53.0325,60.5477
53.0325,60.3997
53.0791,60.2667
53.1476,60.2177
53.4409,60.2177
53.4492,60.2153
Z" /> 
<path style="fill:#000000; fill-opacity:1.0000; 
stroke:#000000; stroke-width:0.0000; stroke-opacity:1; 
stroke-linecap:round; stroke-linejoin:round;fill-rule:evenodd;"
d="M 56.3159,60.6951
56.2675,60.7296
56.0143,60.7296
55.9458,60.6807
55.8992,60.5477
55.8992,60.3997
55.9458,60.2667
56.0143,60.2177
56.3075,60.2177
56.3159,60.2153
Z" /> 
<path style="fill:#000000; fill-opacity:1.0000; 
stroke:#000000; stroke-width:0.0000; stroke-opacity:1; 
stroke-linecap:round; stroke-linejoin:round;fill-rule:evenodd;"
d="M 59.2515,61.2654
52.4968,61.2654
52.4968,60.5689
52.7825,60.5689
52.7835,60.5721
52.7827,60.5753
52.7896,60.6102
52.8562,60.8007
52.8682,60.8174
52.8758,60.8365
52.8952,60.8551
52.8973,60.8579
52.8989,60.8586
52.9016,60.8611
53.0349,60.9564
53.0547,60.9632
53.0723,60.9746
53.0978,60.9782
53.1014,60.9795
53.1033,60.9790
53.1075,60.9796
53.4409,60.9796
53.4610,60.9737
53.4819,60.9727
53.5048,60.9609
53.5085,60.9598
53.5097,60.9583
53.5103,60.9580
53.5223,60.9683
53.5920,60.9784
53.6561,60.9491
53.6941,60.8899
53.6992,60.8546
53.6992,59.8070
53.6983,59.8039
53.6990,59.8006
53.6922,59.7657
53.6255,59.5752
53.6135,59.5585
53.6059,59.5394
53.6056,59.5391
53.9171,59.5391
53.9464,59.6032
54.0057,59.6412
54.0409,59.6463
54.1159,59.6463
54.1159,60.5689
54.1168,60.5721
54.1160,60.5753
54.1229,60.6102
54.1896,60.8007
54.2015,60.8174
54.2092,60.8365
54.2286,60.8551
54.2306,60.8579
54.2322,60.8586
54.2349,60.8611
54.3682,60.9564
54.3880,60.9632
54.4057,60.9746
54.4312,60.9782
54.4347,60.9795
54.4366,60.9790
54.4409,60.9796
54.5742,60.9796
54.6418,60.9598
54.6879,60.9066
54.6979,60.8368
54.6687,60.7728
54.6094,60.7347
54.5742,60.7296
54.4809,60.7296
54.4124,60.6807
54.3659,60.5477
54.3659,59.6463
54.5742,59.6463
54.6418,59.6265
54.6879,59.5732
54.6928,59.5391
54.7171,59.5391
54.7464,59.6032
54.8057,59.6412
54.8409,59.6463
54.9159,59.6463
54.9159,60.5689
54.9168,60.5721
54.9160,60.5753
54.9229,60.6102
54.9896,60.8007
55.0015,60.8174
55.0092,60.8365
55.0286,60.8551
55.0306,60.8579
55.0322,60.8586
55.0349,60.8611
55.1682,60.9564
55.1880,60.9632
55.2057,60.9746
55.2312,60.9782
55.2347,60.9795
55.2366,60.9790
55.2409,60.9796
55.3742,60.9796
55.4418,60.9598
55.4879,60.9066
55.4979,60.8368
55.4687,60.7728
55.4094,60.7347
55.3742,60.7296
55.2809,60.7296
55.2124,60.6807
55.1733,60.5689
55.6492,60.5689
55.6501,60.5721
55.6494,60.5753
55.6562,60.6102
55.7229,60.8007
55.7349,60.8174
55.7425,60.8365
55.7619,60.8551
55.7639,60.8579
55.7655,60.8586
55.7682,60.8611
55.9016,60.9564
55.9213,60.9632
55.9390,60.9746
55.9645,60.9782
55.9681,60.9795
55.9700,60.9790
55.9742,60.9796
56.3075,60.9796
56.3277,60.9737
56.3486,60.9727
56.3715,60.9609
56.3751,60.9598
56.3764,60.9583
56.3770,60.9580
56.3889,60.9683
56.4587,60.9784
56.5227,60.9491
56.5608,60.8899
56.5659,60.8546
56.5659,60.4737
56.9159,60.4737
56.9168,60.4769
56.9160,60.4801
56.9229,60.5150
56.9896,60.7055
56.9903,60.7065
57.0051,60.7358
57.0718,60.8311
57.0745,60.8333
57.0758,60.8365
57.1016,60.8611
57.2349,60.9564
57.2547,60.9632
57.2723,60.9746
57.2978,60.9782
57.3014,60.9795
57.3033,60.9790
57.3075,60.9796
57.5742,60.9796
57.5943,60.9737
57.6153,60.9727
57.6381,60.9609
57.6418,60.9598
57.6431,60.9583
57.6469,60.9564
57.7802,60.8611
57.7853,60.8546
58.1825,60.8546
58.2024,60.9222
58.2556,60.9683
58.3253,60.9784
58.3894,60.9491
58.4275,60.8899
58.4325,60.8546
58.4325,60.3458
58.7302,60.9127
58.7792,60.9634
58.8478,60.9794
58.9141,60.9559
58.9573,60.9002
58.9634,60.8301
58.9515,60.7965
58.5869,60.1020
58.9433,59.5930
58.9658,59.5262
58.9486,59.4579
58.8973,59.4097
58.8280,59.3970
58.7628,59.4237
58.7385,59.4496
58.4325,59.8867
58.4325,58.8546
58.4127,58.7871
58.3595,58.7409
58.2898,58.7309
58.2257,58.7602
58.1876,58.8194
58.1825,58.8546
58.1825,60.8546
57.7853,60.8546
57.8237,60.8057
57.8302,60.7356
57.7979,60.6730
57.7368,60.6379
57.6665,60.6413
57.6349,60.6577
57.5341,60.7296
57.3476,60.7296
57.2643,60.6701
57.2198,60.6066
57.1659,60.4524
57.1659,59.9235
57.2198,59.7693
57.2643,59.7058
57.3476,59.6463
57.5341,59.6463
57.6349,59.7183
57.7014,59.7414
57.7699,59.7249
57.8186,59.6740
57.8320,59.6048
57.8059,59.5394
57.7802,59.5148
57.6469,59.4196
57.6271,59.4127
57.6094,59.4014
57.5839,59.3977
57.5803,59.3965
57.5784,59.3969
57.5742,59.3963
57.3075,59.3963
57.2874,59.4022
57.2665,59.4032
57.2436,59.4151
57.2400,59.4161
57.2387,59.4176
57.2349,59.4196
57.1016,59.5148
57.0994,59.5176
57.0961,59.5189
57.0718,59.5449
57.0051,59.6401
57.0047,59.6413
56.9896,59.6705
56.9229,59.8610
56.9227,59.8643
56.9209,59.8670
56.9159,59.9023
56.9159,60.4737
56.5659,60.4737
56.5659,59.8070
56.5649,59.8039
56.5657,59.8006
56.5589,59.7657
56.4922,59.5752
56.4802,59.5585
56.4726,59.5394
56.4532,59.5209
56.4511,59.5180
56.4495,59.5174
56.4469,59.5148
56.3135,59.4196
56.2937,59.4127
56.2761,59.4014
56.2506,59.3977
56.2470,59.3965
56.2451,59.3969
56.2409,59.3963
55.9742,59.3963
55.9541,59.4022
55.9332,59.4032
55.9103,59.4151
55.9066,59.4161
55.9053,59.4176
55.9016,59.4196
55.7682,59.5148
55.7248,59.5703
55.7182,59.6404
55.7505,59.7029
55.8116,59.7381
55.8819,59.7346
55.9135,59.7183
56.0143,59.6463
56.2008,59.6463
56.2693,59.6952
56.3159,59.8283
56.3159,59.9332
56.2675,59.9677
55.9742,59.9677
55.9541,59.9736
55.9332,59.9747
55.9103,59.9865
55.9066,59.9876
55.9053,59.9891
55.9016,59.9910
55.7682,60.0863
55.7555,60.1024
55.7393,60.1151
55.7269,60.1389
55.7248,60.1417
55.7246,60.1434
55.7229,60.1467
55.6562,60.3372
55.6561,60.3404
55.6543,60.3432
55.6492,60.3784
55.6492,60.5689
55.1733,60.5689
55.1659,60.5477
55.1659,59.6463
55.3742,59.6463
55.4418,59.6265
55.4879,59.5732
55.4979,59.5035
55.4687,59.4394
55.4094,59.4014
55.3742,59.3963
55.1659,59.3963
55.1659,58.8546
55.1460,58.7871
55.0928,58.7409
55.0231,58.7309
54.9590,58.7602
54.9209,58.8194
54.9159,58.8546
54.9159,59.3963
54.8409,59.3963
54.7733,59.4161
54.7272,59.4694
54.7171,59.5391
54.6928,59.5391
54.6979,59.5035
54.6687,59.4394
54.6094,59.4014
54.5742,59.3963
54.3659,59.3963
54.3659,58.8546
54.3460,58.7871
54.2928,58.7409
54.2231,58.7309
54.1590,58.7602
54.1209,58.8194
54.1159,58.8546
54.1159,59.3963
54.0409,59.3963
53.9733,59.4161
53.9272,59.4694
53.9171,59.5391
53.6056,59.5391
53.5865,59.5209
53.5845,59.5180
53.5829,59.5174
53.5802,59.5148
53.4469,59.4196
53.4271,59.4127
53.4094,59.4014
53.3839,59.3977
53.3803,59.3965
53.3784,59.3969
53.3742,59.3963
53.1075,59.3963
53.0874,59.4022
53.0665,59.4032
53.0436,59.4151
53.0400,59.4161
53.0387,59.4176
53.0349,59.4196
52.9016,59.5148
52.8581,59.5703
52.8515,59.6404
52.8839,59.7029
52.9449,59.7381
53.0153,59.7346
53.0469,59.7183
53.1476,59.6463
53.3341,59.6463
53.4026,59.6952
53.4492,59.8283
53.4492,59.9332
53.4008,59.9677
53.1075,59.9677
53.0874,59.9736
53.0665,59.9747
53.0436,59.9865
53.0400,59.9876
53.0387,59.9891
53.0349,59.9910
52.9016,60.0863
52.8889,60.1024
52.8726,60.1151
52.8603,60.1389
52.8581,60.1417
52.8579,60.1434
52.8562,60.1467
52.7896,60.3372
52.7894,60.3404
52.7876,60.3432
52.7825,60.3784
52.7825,60.5689
52.4968,60.5689
52.4968,58.4452
59.2515,58.4452
Z" /> 
</g>
<g style="fill:#000000; fill-opacity:1.0000; 
stroke:#000000; stroke-width:0.2500; stroke-opacity:1; 
stroke-linecap:round; stroke-linejoin:round;">
</g>
<g style="fill:#000000; fill-opacity:1.0000; 
stroke:#000000; stroke-width:0.0000; stroke-opacity:1; 
stroke-linecap:round; stroke-linejoin:round;">
<path style="fill:#000000; fill-opacity:1.0000; 
stroke:#000000; stroke-width:0.0000; stroke-opacity:1; 
stroke-linecap:round; stroke-linejoin:round;fill-rule:evenodd;"
d="M 53.7032,80.0009
53.7032,81.0151
53.6548,81.0496
53.4683,81.0496
53.3850,80.9901
53.3405,80.9266
53.2865,80.7724
53.2865,80.2435
53.3405,80.0893
53.3850,80.0258
53.4683,79.9663
53.6548,79.9663
Z" /> 
<path style="fill:#000000; fill-opacity:1.0000; 
stroke:#000000; stroke-width:0.0000; stroke-opacity:1; 
stroke-linecap:round; stroke-linejoin:round;fill-rule:evenodd;"
d="M 54.9233,80.0152
54.9699,80.1483
54.9699,80.2232
54.5532,80.3423
54.5532,80.1483
54.5998,80.0152
54.6683,79.9663
54.8548,79.9663
Z" /> 
<path style="fill:#000000; fill-opacity:1.0000; 
stroke:#000000; stroke-width:0.0000; stroke-opacity:1; 
stroke-linecap:round; stroke-linejoin:round;fill-rule:evenodd;"
d="M 57.3699,81.0151
57.3215,81.0496
57.0683,81.0496
56.9998,81.0007
56.9532,80.8677
56.9532,80.7197
56.9998,80.5867
57.0683,80.5377
57.3615,80.5377
57.3699,80.5353
Z" /> 
<path style="fill:#000000; fill-opacity:1.0000; 
stroke:#000000; stroke-width:0.0000; stroke-opacity:1; 
stroke-linecap:round; stroke-linejoin:round;fill-rule:evenodd;"
d="M 59.1019,82.2485
52.7508,82.2485
52.7508,80.7937
53.0365,80.7937
53.0375,80.7969
53.0367,80.8001
53.0436,80.8350
53.1102,81.0255
53.1110,81.0265
53.1258,81.0558
53.1925,81.1511
53.1952,81.1533
53.1965,81.1565
53.2222,81.1811
53.3556,81.2764
53.3753,81.2832
53.3930,81.2946
53.4185,81.2982
53.4221,81.2995
53.4240,81.2990
53.4282,81.2996
53.6949,81.2996
53.7150,81.2937
53.7359,81.2927
53.7588,81.2809
53.7625,81.2798
53.7637,81.2783
53.7643,81.2780
53.7763,81.2883
53.8460,81.2984
53.9101,81.2691
53.9481,81.2099
53.9532,81.1746
53.9532,80.8889
54.3032,80.8889
54.3041,80.8921
54.3034,80.8953
54.3102,80.9302
54.3769,81.1207
54.3889,81.1374
54.3965,81.1565
54.4159,81.1751
54.4179,81.1779
54.4195,81.1786
54.4222,81.1811
54.5556,81.2764
54.5753,81.2832
54.5930,81.2946
54.6185,81.2982
54.6221,81.2995
54.6240,81.2990
54.6282,81.2996
54.8949,81.2996
54.9150,81.2937
54.9359,81.2927
54.9588,81.2809
54.9625,81.2798
54.9637,81.2783
54.9675,81.2764
55.1009,81.1811
55.1443,81.1257
55.1509,81.0556
55.1185,80.9930
55.0575,80.9579
54.9872,80.9613
54.9556,80.9777
54.8548,81.0496
54.6683,81.0496
54.5998,81.0007
54.5532,80.8677
54.5532,80.7937
55.5032,80.7937
55.5041,80.7969
55.5034,80.8001
55.5102,80.8350
55.5769,81.0255
55.5776,81.0265
55.5925,81.0558
55.6591,81.1511
55.6619,81.1533
55.6632,81.1565
55.6889,81.1811
55.8222,81.2764
55.8420,81.2832
55.8597,81.2946
55.8852,81.2982
55.8887,81.2995
55.8906,81.2990
55.8949,81.2996
56.1615,81.2996
56.1817,81.2937
56.2026,81.2927
56.2255,81.2809
56.2291,81.2798
56.2304,81.2783
56.2342,81.2764
56.3675,81.1811
56.4110,81.1257
56.4176,81.0556
56.3852,80.9930
56.3242,80.9579
56.2538,80.9613
56.2222,80.9777
56.1215,81.0496
55.9349,81.0496
55.8516,80.9901
55.8072,80.9266
55.7940,80.8889
56.7032,80.8889
56.7041,80.8921
56.7034,80.8953
56.7102,80.9302
56.7769,81.1207
56.7889,81.1374
56.7965,81.1565
56.8159,81.1751
56.8179,81.1779
56.8195,81.1786
56.8222,81.1811
56.9556,81.2764
56.9753,81.2832
56.9930,81.2946
57.0185,81.2982
57.0221,81.2995
57.0240,81.2990
57.0282,81.2996
57.3615,81.2996
57.3817,81.2937
57.4026,81.2927
57.4255,81.2809
57.4291,81.2798
57.4304,81.2783
57.4310,81.2780
57.4429,81.2883
57.5127,81.2984
57.5767,81.2691
57.6148,81.2099
57.6199,81.1746
57.6199,80.1270
57.6189,80.1239
57.6197,80.1206
57.6129,80.0857
57.5462,79.8952
57.5342,79.8785
57.5266,79.8594
57.5072,79.8409
57.5051,79.8380
57.5035,79.8374
57.5023,79.8362
57.9033,79.8362
57.9069,79.8716
58.2322,81.1728
58.1136,81.5966
58.0714,81.6568
57.9556,81.7396
57.9121,81.7950
57.9055,81.8651
57.9379,81.9277
57.9989,81.9628
58.0693,81.9594
58.1009,81.9430
58.2342,81.8478
58.2364,81.8450
58.2396,81.8437
58.2639,81.8177
58.3306,81.7225
58.3317,81.7193
58.3342,81.7171
58.3486,81.6845
58.4819,81.2083
58.4819,81.2072
58.4828,81.2050
58.8161,79.8716
58.8133,79.8012
58.7728,79.7436
58.7076,79.7170
58.6384,79.7298
58.5871,79.7780
58.5736,79.8110
58.3615,80.6592
58.1495,79.8110
58.1138,79.7502
58.0510,79.7184
57.9809,79.7256
57.9259,79.7695
57.9033,79.8362
57.5023,79.8362
57.5009,79.8348
57.3675,79.7396
57.3477,79.7327
57.3301,79.7214
57.3046,79.7177
57.3010,79.7165
57.2991,79.7169
57.2949,79.7163
57.0282,79.7163
57.0081,79.7222
56.9872,79.7232
56.9643,79.7351
56.9606,79.7361
56.9593,79.7376
56.9556,79.7396
56.8222,79.8348
56.7788,79.8903
56.7722,79.9604
56.8045,80.0229
56.8656,80.0581
56.9359,80.0546
56.9675,80.0383
57.0683,79.9663
57.2548,79.9663
57.3233,80.0152
57.3699,80.1483
57.3699,80.2532
57.3215,80.2877
57.0282,80.2877
57.0081,80.2936
56.9872,80.2947
56.9643,80.3065
56.9606,80.3076
56.9593,80.3091
56.9556,80.3110
56.8222,80.4063
56.8095,80.4224
56.7933,80.4351
56.7809,80.4589
56.7788,80.4617
56.7786,80.4634
56.7769,80.4667
56.7102,80.6572
56.7101,80.6604
56.7083,80.6632
56.7032,80.6984
56.7032,80.8889
55.7940,80.8889
55.7532,80.7724
55.7532,80.2435
55.8072,80.0893
55.8516,80.0258
55.9349,79.9663
56.1215,79.9663
56.2222,80.0383
56.2887,80.0614
56.3572,80.0449
56.4059,79.9940
56.4193,79.9248
56.3932,79.8594
56.3675,79.8348
56.2342,79.7396
56.2144,79.7327
56.1968,79.7214
56.1713,79.7177
56.1677,79.7165
56.1658,79.7169
56.1615,79.7163
55.8949,79.7163
55.8748,79.7222
55.8538,79.7232
55.8309,79.7351
55.8273,79.7361
55.8260,79.7376
55.8222,79.7396
55.6889,79.8348
55.6867,79.8376
55.6835,79.8389
55.6591,79.8649
55.5925,79.9601
55.5921,79.9613
55.5769,79.9905
55.5102,80.1810
55.5101,80.1843
55.5083,80.1870
55.5032,80.2223
55.5032,80.7937
54.5532,80.7937
54.5532,80.6023
55.1292,80.4377
55.1521,80.4232
55.1767,80.4120
55.1814,80.4047
55.1887,80.4000
55.2002,80.3755
55.2148,80.3527
55.2166,80.3402
55.2185,80.3362
55.2178,80.3316
55.2199,80.3175
55.2199,80.1270
55.2189,80.1239
55.2197,80.1206
55.2129,80.0857
55.1462,79.8952
55.1342,79.8785
55.1266,79.8594
55.1072,79.8409
55.1051,79.8380
55.1035,79.8374
55.1009,79.8348
54.9675,79.7396
54.9477,79.7327
54.9301,79.7214
54.9046,79.7177
54.9010,79.7165
54.8991,79.7169
54.8949,79.7163
54.6282,79.7163
54.6081,79.7222
54.5872,79.7232
54.5643,79.7351
54.5606,79.7361
54.5593,79.7376
54.5556,79.7396
54.4222,79.8348
54.4095,79.8510
54.3933,79.8637
54.3809,79.8875
54.3788,79.8903
54.3786,79.8920
54.3769,79.8952
54.3102,80.0857
54.3101,80.0890
54.3083,80.0918
54.3032,80.1270
54.3032,80.8889
53.9532,80.8889
53.9532,79.1746
53.9334,79.1071
53.8801,79.0609
53.8104,79.0509
53.7463,79.0802
53.7083,79.1394
53.7032,79.1746
53.7032,79.7172
53.7010,79.7165
53.6991,79.7169
53.6949,79.7163
53.4282,79.7163
53.4081,79.7222
53.3872,79.7232
53.3643,79.7351
53.3606,79.7361
53.3593,79.7376
53.3556,79.7396
53.2222,79.8348
53.2201,79.8376
53.2168,79.8389
53.1925,79.8649
53.1258,79.9601
53.1254,79.9613
53.1102,79.9905
53.0436,80.1810
53.0434,80.1843
53.0416,80.1870
53.0365,80.2223
53.0365,80.7937
52.7508,80.7937
52.7508,78.7652
59.1019,78.7652
Z" /> 
</g>
<g style="fill:#000000; fill-opacity:1.0000; 
stroke:#000000; stroke-width:0.2500; stroke-opacity:1; 
stroke-linecap:round; stroke-linejoin:round;">
</g>
<g style="fill:#000000; fill-opacity:1.0000; 
stroke:#000000; stroke-width:0.0000; stroke-opacity:1; 
stroke-linecap:round; stroke-linejoin:round;">
<path style="fill:#000000; fill-opacity:1.0000; 
stroke:#000000; stroke-width:0.0000; stroke-opacity:1; 
stroke-linecap:round; stroke-linejoin:round;fill-rule:evenodd;"
d="M 36.6176,142.5441
34.4629,142.5441
34.4629,142.1346
34.8152,142.1346
34.8350,142.2022
34.8883,142.2483
34.9580,142.2584
35.0221,142.2291
35.0601,142.1699
35.0652,142.1346
35.4819,142.1346
35.5017,142.2022
35.5549,142.2483
35.6247,142.2584
35.6887,142.2291
35.7268,142.1699
35.7319,142.1346
35.7319,141.0312
35.7636,140.9858
35.8469,140.9263
35.9668,140.9263
36.0353,140.9752
36.0819,141.1083
36.0819,142.1346
36.1017,142.2022
36.1549,142.2483
36.2247,142.2584
36.2887,142.2291
36.3268,142.1699
36.3319,142.1346
36.3319,141.0870
36.3309,141.0839
36.3317,141.0806
36.3249,141.0457
36.2582,140.8552
36.2462,140.8385
36.2386,140.8194
36.2192,140.8009
36.2171,140.7980
36.2155,140.7974
36.2129,140.7948
36.0795,140.6996
36.0597,140.6927
36.0421,140.6814
36.0166,140.6777
36.0130,140.6765
36.0111,140.6769
36.0069,140.6763
35.8069,140.6763
35.7868,140.6822
35.7658,140.6832
35.7429,140.6951
35.7393,140.6961
35.7380,140.6976
35.7342,140.6996
35.7005,140.7237
35.6588,140.6876
35.5891,140.6776
35.5250,140.7068
35.4869,140.7661
35.4819,140.8013
35.4819,142.1346
35.0652,142.1346
35.0652,140.8013
35.0454,140.7337
34.9921,140.6876
34.9224,140.6776
34.8583,140.7068
34.8203,140.7661
34.8152,140.8013
34.8152,142.1346
34.4629,142.1346
34.4629,140.2249
34.7486,140.2249
34.7542,140.2470
34.7551,140.2698
34.7647,140.2888
34.7658,140.2932
34.7680,140.2953
34.7711,140.3016
34.8378,140.3968
34.8616,140.4158
34.8838,140.4367
34.8863,140.4371
34.8883,140.4388
34.8908,140.4392
34.8928,140.4408
34.9231,140.4439
34.9531,140.4494
34.9555,140.4485
34.9580,140.4488
34.9603,140.4478
34.9629,140.4480
34.9901,140.4343
35.0183,140.4227
35.0206,140.4202
35.0221,140.4196
35.0234,140.4174
35.0257,140.4163
35.0281,140.4123
35.0426,140.3968
35.1093,140.3016
35.1166,140.2800
35.1281,140.2603
35.1276,140.2472
35.1318,140.2348
35.1262,140.2127
35.1253,140.1899
35.1157,140.1710
35.1146,140.1665
35.1124,140.1645
35.1093,140.1582
35.0426,140.0630
35.0188,140.0439
34.9966,140.0231
34.9941,140.0226
34.9921,140.0209
34.9896,140.0206
34.9876,140.0190
34.9573,140.0158
34.9273,140.0103
34.9249,140.0113
34.9224,140.0109
34.9201,140.0120
34.9175,140.0117
34.8903,140.0255
34.8621,140.0370
34.8598,140.0395
34.8583,140.0402
34.8570,140.0423
34.8547,140.0435
34.8523,140.0475
34.8378,140.0630
34.7711,140.1582
34.7639,140.1798
34.7523,140.1994
34.7528,140.2125
34.7486,140.2249
34.4629,140.2249
34.4629,139.7246
36.6176,139.7246
Z" /> 
</g>
<g style="fill:#000000; fill-opacity:1.0000; 
stroke:#000000; stroke-width:0.2500; stroke-opacity:1; 
stroke-linecap:round; stroke-linejoin:round;">
</g>
<g style="fill:#000000; fill-opacity:1.0000; 
stroke:#000000; stroke-width:0.0000; stroke-opacity:1; 
stroke-linecap:round; stroke-linejoin:round;">
<path style="fill:#000000; fill-opacity:1.0000; 
stroke:#000000; stroke-width:0.0000; stroke-opacity:1; 
stroke-linecap:round; stroke-linejoin:round;fill-rule:evenodd;"
d="M 54.9922,140.9858
55.0367,141.0493
55.0907,141.2035
55.0907,141.7324
55.0367,141.8866
54.9922,141.9501
54.9089,142.0096
54.7891,142.0096
54.7058,141.9501
54.6613,141.8866
54.6073,141.7324
54.6073,141.2035
54.6613,141.0493
54.7058,140.9858
54.7891,140.9263
54.9089,140.9263
Z" /> 
<path style="fill:#000000; fill-opacity:1.0000; 
stroke:#000000; stroke-width:0.0000; stroke-opacity:1; 
stroke-linecap:round; stroke-linejoin:round;fill-rule:evenodd;"
d="M 57.8251,142.5454
54.0716,142.5454
54.0716,141.7537
54.3573,141.7537
54.3583,141.7569
54.3575,141.7601
54.3644,141.7950
54.4310,141.9855
54.4318,141.9865
54.4466,142.0158
54.5133,142.1111
54.5160,142.1133
54.5173,142.1165
54.5430,142.1411
54.6764,142.2364
54.6961,142.2432
54.7138,142.2546
54.7393,142.2582
54.7429,142.2595
54.7448,142.2590
54.7490,142.2596
54.9490,142.2596
54.9691,142.2537
54.9901,142.2527
55.0129,142.2409
55.0166,142.2398
55.0179,142.2383
55.0217,142.2364
55.1550,142.1411
55.1572,142.1384
55.1604,142.1370
55.1847,142.1111
55.2514,142.0158
55.2518,142.0146
55.2670,141.9855
55.3148,141.8489
55.6907,141.8489
55.6916,141.8521
55.6908,141.8553
55.6977,141.8902
55.7644,142.0807
55.7764,142.0974
55.7840,142.1165
55.8034,142.1351
55.8054,142.1379
55.8070,142.1386
55.8097,142.1411
55.9430,142.2364
55.9628,142.2432
55.9805,142.2546
56.0060,142.2582
56.0095,142.2595
56.0114,142.2590
56.0157,142.2596
56.2157,142.2596
56.2358,142.2537
56.2567,142.2527
56.2796,142.2409
56.2833,142.2398
56.2845,142.2383
56.2883,142.2364
56.3221,142.2122
56.3637,142.2483
56.4335,142.2584
56.4975,142.2291
56.5356,142.1699
56.5407,142.1346
56.5407,140.8191
56.7586,140.8191
56.7879,140.8832
56.8471,140.9212
56.8823,140.9263
56.9573,140.9263
56.9573,141.8489
56.9583,141.8521
56.9575,141.8553
56.9644,141.8902
57.0310,142.0807
57.0430,142.0974
57.0506,142.1165
57.0700,142.1351
57.0721,142.1379
57.0737,142.1386
57.0764,142.1411
57.2097,142.2364
57.2295,142.2432
57.2471,142.2546
57.2726,142.2582
57.2762,142.2595
57.2781,142.2590
57.2823,142.2596
57.4157,142.2596
57.4833,142.2398
57.5294,142.1866
57.5394,142.1168
57.5101,142.0528
57.4509,142.0147
57.4157,142.0096
57.3224,142.0096
57.2539,141.9607
57.2073,141.8277
57.2073,140.9263
57.4157,140.9263
57.4833,140.9065
57.5294,140.8532
57.5394,140.7835
57.5101,140.7194
57.4509,140.6814
57.4157,140.6763
57.2073,140.6763
57.2073,140.1346
57.1875,140.0671
57.1343,140.0209
57.0646,140.0109
57.0005,140.0402
56.9624,140.0994
56.9573,140.1346
56.9573,140.6763
56.8823,140.6763
56.8148,140.6961
56.7686,140.7494
56.7586,140.8191
56.5407,140.8191
56.5407,140.8013
56.5208,140.7337
56.4676,140.6876
56.3979,140.6776
56.3338,140.7068
56.2957,140.7661
56.2907,140.8013
56.2907,141.9048
56.2589,141.9501
56.1756,142.0096
56.0557,142.0096
55.9872,141.9607
55.9407,141.8277
55.9407,140.8013
55.9208,140.7337
55.8676,140.6876
55.7979,140.6776
55.7338,140.7068
55.6957,140.7661
55.6907,140.8013
55.6907,141.8489
55.3148,141.8489
55.3337,141.7950
55.3338,141.7917
55.3356,141.7889
55.3407,141.7537
55.3407,141.1823
55.3397,141.1791
55.3405,141.1759
55.3337,141.1410
55.2670,140.9505
55.2662,140.9494
55.2514,140.9201
55.1847,140.8249
55.1820,140.8227
55.1807,140.8194
55.1550,140.7948
55.0217,140.6996
55.0019,140.6927
54.9842,140.6814
54.9587,140.6777
54.9551,140.6765
54.9532,140.6769
54.9490,140.6763
54.7490,140.6763
54.7289,140.6822
54.7080,140.6832
54.6851,140.6951
54.6814,140.6961
54.6801,140.6976
54.6764,140.6996
54.5430,140.7948
54.5409,140.7976
54.5376,140.7989
54.5133,140.8249
54.4466,140.9201
54.4462,140.9213
54.4310,140.9505
54.3644,141.1410
54.3642,141.1443
54.3624,141.1470
54.3573,141.1823
54.3573,141.7537
54.0716,141.7537
54.0716,139.7252
57.8251,139.7252
Z" /> 
<g >
</g>
<g >
</g>
<g >
</g>
<g >
</g>
<g >
</g>
<g >
</g>
<g >
</g>
<g >
</g>
<g style="fill:#000000; fill-opacity:1.0000; 
stroke:#000000; stroke-width:0.0000; stroke-opacity:1; 
stroke-linecap:round; stroke-linejoin:round;">
<circle cx="32.9000" cy="28.4000" r="1.8000" /> 
</g>
<g style="fill:#000000; fill-opacity:1.0000; 
stroke:#000000; stroke-width:0.0212; stroke-opacity:1; 
stroke-linecap:round; stroke-linejoin:round;">
</g>
<g style="fill:#000000; fill-opacity:1.0000; 
stroke:#000000; stroke-width:0.0000; stroke-opacity:1; 
stroke-linecap:round; stroke-linejoin:round;">
<circle cx="32.9000" cy="28.4000" r="2.5000" /> 
</g>
<g style="fill:#000000; fill-opacity:1.0000; 
stroke:#000000; stroke-width:0.0212; stroke-opacity:1; 
stroke-linecap:round; stroke-linejoin:round;">
</g>
<g >
</g>
<g style="fill:#000000; fill-opacity:1.0000; 
stroke:#000000; stroke-width:0.0212; stroke-opacity:1; 
stroke-linecap:round; stroke-linejoin:round;">
</g>
<g style="fill:#000000; fill-opacity:1.0000; 
stroke:#000000; stroke-width:0.0000; stroke-opacity:1; 
stroke-linecap:round; stroke-linejoin:round;">
<circle cx="32.9000" cy="150.9000" r="1.8000" /> 
</g>
<g style="fill:#000000; fill-opacity:1.0000; 
stroke:#000000; stroke-width:0.0212; stroke-opacity:1; 
stroke-linecap:round; stroke-linejoin:round;">
</g>
<g style="fill:#000000; fill-opacity:1.0000; 
stroke:#000000; stroke-width:0.0000; stroke-opacity:1; 
stroke-linecap:round; stroke-linejoin:round;">
<circle cx="32.9000" cy="150.9000" r="2.5000" /> 
</g>
<g style="fill:#000000; fill-opacity:1.0000; 
stroke:#000000; stroke-width:0.0212; stroke-opacity:1; 
stroke-linecap:round; stroke-linejoin:round;">
</g>
<g >
</g>
<g >
</g>
<g >
</g>
<g style="fill:#000000; fill-opacity:1.0000; 
stroke:#000000; stroke-width:0.0212; stroke-opacity:1; 
stroke-linecap:round; stroke-linejoin:round;">
<g >
</g>
<g style="fill:#000000; fill-opacity:1.0000; 
stroke:#000000; stroke-width:0.0000; stroke-opacity:1; 
stroke-linecap:round; stroke-linejoin:round;">
<path style="fill:#000000; fill-opacity:1.0000; 
stroke:#000000; stroke-width:0.0000; stroke-opacity:1; 
stroke-linecap:round; stroke-linejoin:round;fill-rule:evenodd;"
d="M 31.5861,25.4805
31.6326,25.5342
31.6427,25.6044
31.6132,25.6690
31.5745,25.6991
31.3942,25.7897
31.3932,25.7901
31.1004,25.9827
30.8320,26.2080
30.8319,26.2080
30.5914,26.4629
30.3822,26.7440
30.3822,26.7440
30.2070,27.0475
30.2069,27.0475
30.0681,27.3693
30.0681,27.3693
29.9676,27.7050
29.9068,28.0501
29.9068,28.0502
29.8864,28.4000
29.9068,28.7498
29.9068,28.7499
29.9068,28.7499
29.9676,29.0950
30.0681,29.4307
30.2069,29.7525
30.3822,30.0560
30.5914,30.3371
30.8319,30.5920
30.8319,30.5920
30.8320,30.5920
31.1004,30.8173
31.1004,30.8173
31.1004,30.8173
31.3932,31.0099
31.7064,31.1671
31.8710,31.2271
32.0357,31.2870
32.0357,31.2870
32.0357,31.2870
32.3767,31.3678
32.5756,31.3911
32.7248,31.4085
32.7248,31.4085
33.0752,31.4085
33.2058,31.3932
33.4233,31.3678
33.7643,31.2870
34.0936,31.1671
34.4068,31.0099
34.6996,30.8173
34.9681,30.5920
35.2086,30.3371
35.4178,30.0560
35.5930,29.7525
35.7319,29.4307
35.8324,29.0950
35.8932,28.7499
35.9136,28.4000
35.8932,28.0501
35.8324,27.7050
35.7319,27.3693
35.5930,27.0475
35.4178,26.7440
35.2086,26.4629
34.9681,26.2080
34.9680,26.2080
34.9680,26.2080
34.6996,25.9827
34.6996,25.9827
34.4068,25.7901
34.2255,25.6991
34.1736,25.6507
34.1561,25.5818
34.1786,25.5145
34.2340,25.4700
34.2821,25.4605
65.5135,25.4605
65.5816,25.4805
65.6281,25.5342
65.6395,25.5865
65.6395,153.7110
65.6195,153.7791
65.5658,153.8256
65.5135,153.8370
34.2870,153.8370
34.2189,153.8170
34.1724,153.7633
34.1623,153.6931
34.1918,153.6285
34.2305,153.5984
34.4068,153.5099
34.6996,153.3173
34.9681,153.0920
35.2086,152.8371
35.4178,152.5560
35.5930,152.2525
35.7319,151.9307
35.8324,151.5950
35.8932,151.2499
35.9136,150.9000
35.8932,150.5501
35.8324,150.2050
35.7319,149.8693
35.5930,149.5475
35.4178,149.2440
35.2086,148.9629
34.9681,148.7080
34.9680,148.7080
34.9680,148.7080
34.6996,148.4827
34.6996,148.4827
34.4068,148.2901
34.0936,148.1329
34.0936,148.1329
34.0936,148.1329
33.7643,148.0130
33.7643,148.0130
33.7643,148.0130
33.7643,148.0130
33.5770,147.9686
33.4233,147.9322
33.4233,147.9322
33.0752,147.8915
33.0752,147.8915
32.7248,147.8915
32.7248,147.8915
32.3767,147.9322
32.3767,147.9322
32.0357,148.0130
32.0357,148.0130
31.7064,148.1329
31.7064,148.1329
31.3932,148.2901
31.1004,148.4827
30.8320,148.7080
30.8319,148.7080
30.5914,148.9629
30.3822,149.2440
30.3822,149.2440
30.2070,149.5475
30.2069,149.5475
30.0681,149.8693
30.0681,149.8693
29.9676,150.2050
29.9068,150.5501
29.9068,150.5502
29.8864,150.9000
29.9068,151.2498
29.9068,151.2499
29.9068,151.2499
29.9676,151.5950
30.0681,151.9307
30.2069,152.2525
30.3822,152.5560
30.5914,152.8371
30.8319,153.0920
30.8319,153.0920
30.8320,153.0920
31.1004,153.3173
31.1004,153.3173
31.1004,153.3173
31.3932,153.5099
31.5695,153.5984
31.6214,153.6468
31.6389,153.7157
31.6164,153.7830
31.5610,153.8275
31.5130,153.8370
25.6629,153.8370
25.5947,153.8170
25.5482,153.7633
25.5369,153.7111
25.5209,139.7293
34.4676,139.7293
34.4676,142.5393
36.6127,142.5393
36.6127,139.7300
54.0765,139.7300
54.0765,142.5405
57.8203,142.5405
57.8203,139.7300
54.0765,139.7300
36.6127,139.7300
36.6127,139.7293
34.4676,139.7293
25.5209,139.7293
25.5123,132.2671
32.1095,132.2671
32.1500,132.6390
32.1500,132.6391
32.2304,133.0045
32.2304,133.0045
32.3499,133.3590
32.3499,133.3590
32.5070,133.6986
32.5070,133.6986
32.6999,134.0192
32.9263,134.3171
32.9263,134.3171
32.9263,134.3171
33.1836,134.5887
33.4688,134.8310
33.7785,135.0409
33.7785,135.0409
33.9989,135.1578
34.1090,135.2162
34.4566,135.3547
34.8172,135.4548
34.8172,135.4548
34.9248,135.4724
35.1864,135.5153
35.3784,135.5257
35.4665,135.5305
35.4665,135.5305
35.6535,135.5305
35.7382,135.5259
35.9336,135.5153
36.2464,135.4640
36.3028,135.4548
36.3028,135.4548
36.3028,135.4548
36.6634,135.3547
37.0110,135.2162
37.3415,135.0409
37.6512,134.8310
37.9364,134.5887
38.1937,134.3171
38.4201,134.0192
38.6130,133.6986
38.7701,133.3590
38.8896,133.0045
38.9700,132.6390
39.0105,132.2671
52.4295,132.2671
52.4700,132.6390
52.4700,132.6391
52.5504,133.0045
52.5504,133.0045
52.6699,133.3590
52.6699,133.3590
52.8270,133.6986
52.8270,133.6986
53.0199,134.0192
53.2463,134.3171
53.2463,134.3171
53.2463,134.3171
53.5036,134.5887
53.5036,134.5887
53.7888,134.8310
54.0985,135.0409
54.0985,135.0409
54.3189,135.1578
54.4290,135.2162
54.7766,135.3547
55.1372,135.4548
55.1372,135.4548
55.2448,135.4724
55.5064,135.5153
55.6984,135.5257
55.7865,135.5305
55.7865,135.5305
55.9735,135.5305
56.0582,135.5259
56.2536,135.5153
56.5664,135.4640
56.6228,135.4548
56.6228,135.4548
56.6228,135.4548
56.9834,135.3547
57.3310,135.2162
57.6615,135.0409
57.9712,134.8310
58.2564,134.5887
58.5137,134.3171
58.7401,134.0192
58.9330,133.6986
59.0901,133.3590
59.2096,133.0045
59.2900,132.6390
59.3305,132.2671
59.3305,131.8929
59.2900,131.5210
59.2096,131.1555
59.0901,130.8010
59.0901,130.8010
58.9330,130.4614
58.9330,130.4614
58.7401,130.1408
58.5137,129.8429
58.5137,129.8429
58.5137,129.8429
58.2564,129.5713
58.2058,129.5283
57.9712,129.3290
57.6615,129.1191
57.6615,129.1191
57.6615,129.1191
57.3310,128.9438
57.3310,128.9438
57.3310,128.9438
57.3309,128.9438
57.3309,128.9438
56.9834,128.8053
56.6228,128.7052
56.2536,128.6447
55.9735,128.6295
55.9735,128.6295
55.7865,128.6295
55.7865,128.6295
55.5064,128.6447
55.1372,128.7052
54.7766,128.8053
54.4291,128.9438
54.4290,128.9438
54.0985,129.1191
54.0985,129.1191
53.7888,129.3290
53.5036,129.5713
53.2463,129.8429
53.2463,129.8429
53.0199,130.1408
53.0199,130.1408
52.8270,130.4614
52.8270,130.4614
52.6699,130.8010
52.6699,130.8010
52.5504,131.1555
52.5504,131.1555
52.4700,131.5209
52.4700,131.5210
52.4295,131.8929
52.4295,132.2671
39.0105,132.2671
39.0105,132.2671
39.0105,131.8929
38.9700,131.5210
38.8896,131.1555
38.7701,130.8010
38.7701,130.8010
38.6130,130.4614
38.6130,130.4614
38.4201,130.1408
38.1937,129.8429
38.1937,129.8429
38.1937,129.8429
37.9364,129.5713
37.8858,129.5283
37.6512,129.3290
37.3415,129.1191
37.3415,129.1191
37.3415,129.1191
37.0110,128.9438
37.0110,128.9438
37.0110,128.9438
37.0109,128.9438
37.0109,128.9438
36.6634,128.8053
36.3028,128.7052
35.9336,128.6447
35.6535,128.6295
35.6535,128.6295
35.4665,128.6295
35.4665,128.6295
35.1864,128.6447
34.8172,128.7052
34.4566,128.8053
34.1091,128.9438
34.1090,128.9438
33.7785,129.1191
33.7785,129.1191
33.4688,129.3290
33.1836,129.5713
32.9263,129.8429
32.9263,129.8429
32.6999,130.1408
32.6999,130.1408
32.5070,130.4614
32.5070,130.4614
32.3499,130.8010
32.3499,130.8010
32.2304,131.1555
32.2304,131.1555
32.1500,131.5209
32.1500,131.5210
32.1095,131.8929
32.1095,132.2671
25.5123,132.2671
25.4977,119.4608
52.0130,119.4608
52.0130,122.2713
59.8212,122.2713
59.8212,119.4608
52.0130,119.4608
25.4977,119.4608
25.4891,111.9603
51.9295,111.9603
51.9700,112.3590
52.0507,112.7515
52.1208,112.9749
52.1706,113.1338
52.3279,113.5003
52.3287,113.5020
52.5231,113.8524
52.5231,113.8524
52.7520,114.1812
52.7520,114.1812
52.7520,114.1812
53.0130,114.4853
53.3034,114.7613
53.6203,115.0066
53.9604,115.2185
54.2113,115.3416
54.3201,115.3950
54.3201,115.3950
54.3201,115.3950
54.6958,115.5342
55.0837,115.6346
55.0838,115.6346
55.0838,115.6346
55.4798,115.6953
55.4798,115.6953
55.4798,115.6953
55.4798,115.6953
55.4798,115.6953
55.7239,115.7077
55.7799,115.7105
55.7799,115.7105
55.9801,115.7105
55.9801,115.7105
56.0419,115.7074
56.2802,115.6953
56.2802,115.6953
56.2802,115.6953
56.6763,115.6346
57.0642,115.5342
57.4399,115.3950
57.7996,115.2185
58.1397,115.0066
58.4566,114.7613
58.7470,114.4853
59.0080,114.1812
59.2369,113.8524
59.4313,113.5020
59.5894,113.1338
59.7093,112.7515
59.7900,112.3590
59.8305,111.9603
59.8305,111.5597
59.7900,111.1610
59.7093,110.7685
59.5894,110.3862
59.4313,110.0180
59.2369,109.6676
59.0080,109.3388
58.7470,109.0347
58.4566,108.7587
58.1397,108.5134
58.0906,108.4828
57.7997,108.3015
57.7997,108.3015
57.7996,108.3015
57.6766,108.2411
57.4399,108.1250
57.4399,108.1250
57.0642,107.9858
57.0642,107.9858
57.0642,107.9858
56.6763,107.8854
56.6763,107.8854
56.6762,107.8854
56.6762,107.8854
56.2802,107.8247
56.2802,107.8247
56.0005,107.8105
55.9801,107.8095
55.7799,107.8095
55.7602,107.8105
55.4798,107.8247
55.4798,107.8247
55.0838,107.8854
55.0838,107.8854
54.6958,107.9858
54.3201,108.1250
54.3201,108.1250
53.9604,108.3015
53.9603,108.3015
53.6203,108.5134
53.6203,108.5134
53.3034,108.7587
53.0130,109.0347
52.7520,109.3388
52.5231,109.6676
52.3287,110.0180
52.1706,110.3862
52.0959,110.6245
52.0507,110.7685
51.9700,111.1610
51.9295,111.5597
51.9295,111.9603
25.4891,111.9603
25.4744,99.0893
51.9937,99.0893
51.9937,101.9005
59.7387,101.9005
59.7387,99.0893
51.9937,99.0893
25.4744,99.0893
25.4658,91.6403
51.9295,91.6403
51.9700,92.0390
52.0507,92.4315
52.1208,92.6549
52.1706,92.8138
52.3279,93.1803
52.3287,93.1820
52.5231,93.5324
52.7520,93.8612
52.7520,93.8612
52.7520,93.8612
53.0130,94.1653
53.3034,94.4413
53.6203,94.6866
53.9604,94.8985
54.2113,95.0216
54.3201,95.0750
54.3201,95.0750
54.3201,95.0750
54.6958,95.2142
55.0837,95.3146
55.0838,95.3146
55.0838,95.3146
55.4798,95.3753
55.4798,95.3753
55.4798,95.3753
55.4798,95.3753
55.4798,95.3753
55.7239,95.3877
55.7799,95.3905
55.7799,95.3905
55.9801,95.3905
55.9801,95.3905
56.0419,95.3874
56.2802,95.3753
56.2802,95.3753
56.2802,95.3753
56.6763,95.3146
57.0642,95.2142
57.4399,95.0750
57.7996,94.8985
58.1397,94.6866
58.4566,94.4413
58.7470,94.1653
59.0080,93.8612
59.2369,93.5324
59.4313,93.1820
59.5894,92.8138
59.7093,92.4315
59.7900,92.0390
59.8305,91.6403
59.8305,91.2397
59.7900,90.8410
59.7093,90.4485
59.5894,90.0662
59.4313,89.6980
59.2369,89.3476
59.0080,89.0188
58.7470,88.7147
58.4566,88.4387
58.1397,88.1934
58.0906,88.1628
57.7997,87.9815
57.7997,87.9815
57.7996,87.9815
57.6766,87.9211
57.4399,87.8050
57.4399,87.8050
57.0642,87.6658
57.0642,87.6658
57.0642,87.6658
56.6763,87.5654
56.6763,87.5654
56.6762,87.5654
56.6762,87.5654
56.2802,87.5047
56.2802,87.5047
56.0005,87.4905
55.9801,87.4895
55.7799,87.4895
55.7602,87.4905
55.4798,87.5047
55.4798,87.5047
55.0838,87.5654
55.0838,87.5654
54.6958,87.6658
54.3201,87.8050
54.3201,87.8050
53.9604,87.9815
53.9603,87.9815
53.6203,88.1934
53.6203,88.1934
53.3034,88.4387
53.0130,88.7147
52.7520,89.0188
52.5231,89.3476
52.3287,89.6980
52.1706,90.0662
52.0959,90.3045
52.0507,90.4485
51.9700,90.8410
51.9295,91.2397
51.9295,91.6403
25.4658,91.6403
25.4605,86.9661
25.4605,78.7700
52.7557,78.7700
52.7557,82.2437
59.0962,82.2437
59.0962,78.7700
52.7557,78.7700
25.4605,78.7700
25.4605,71.3203
51.9295,71.3203
51.9700,71.7190
52.0507,72.1115
52.1208,72.3349
52.1706,72.4938
52.3279,72.8603
52.3287,72.8620
52.5231,73.2124
52.5231,73.2124
52.7520,73.5412
52.7520,73.5412
52.7520,73.5412
53.0130,73.8453
53.3034,74.1213
53.6203,74.3666
53.9604,74.5785
54.2113,74.7016
54.3201,74.7550
54.3201,74.7550
54.3201,74.7550
54.6958,74.8942
55.0837,74.9946
55.0838,74.9946
55.0838,74.9946
55.4798,75.0553
55.4798,75.0553
55.4798,75.0553
55.4798,75.0553
55.4798,75.0553
55.7239,75.0677
55.7799,75.0705
55.7799,75.0705
55.9801,75.0705
55.9801,75.0705
56.0419,75.0674
56.2802,75.0553
56.2802,75.0553
56.2802,75.0553
56.6763,74.9946
57.0642,74.8942
57.4399,74.7550
57.7996,74.5785
58.1397,74.3666
58.4566,74.1213
58.7470,73.8453
59.0080,73.5412
59.2369,73.2124
59.4313,72.8620
59.5894,72.4938
59.7093,72.1115
59.7900,71.7190
59.8305,71.3203
59.8305,70.9197
59.7900,70.5210
59.7093,70.1285
59.5894,69.7462
59.4313,69.3780
59.2369,69.0276
59.0080,68.6988
58.7470,68.3947
58.4566,68.1187
58.1397,67.8734
58.0906,67.8428
57.7997,67.6615
57.7997,67.6615
57.7996,67.6615
57.6766,67.6011
57.4399,67.4850
57.4399,67.4850
57.0642,67.3458
57.0642,67.3458
57.0642,67.3458
56.6763,67.2454
56.6763,67.2454
56.6762,67.2454
56.6762,67.2454
56.2802,67.1847
56.2802,67.1847
56.0005,67.1705
55.9801,67.1695
55.7799,67.1695
55.7602,67.1705
55.4798,67.1847
55.4798,67.1847
55.0838,67.2454
55.0838,67.2454
54.6958,67.3458
54.3201,67.4850
54.3201,67.4850
53.9604,67.6615
53.9603,67.6615
53.6203,67.8734
53.6203,67.8734
53.3034,68.1187
53.0130,68.3947
52.7520,68.6988
52.5231,69.0276
52.3287,69.3780
52.1706,69.7462
52.0959,69.9845
52.0507,70.1285
51.9700,70.5210
51.9295,70.9197
51.9295,71.3203
25.4605,71.3203
25.4605,58.4500
52.5017,58.4500
52.5017,61.2605
59.2468,61.2605
59.2468,58.4500
52.5017,58.4500
25.4605,58.4500
25.4605,51.0003
51.9295,51.0003
51.9700,51.3990
52.0507,51.7915
52.1208,52.0149
52.1706,52.1738
52.3279,52.5403
52.3287,52.5420
52.5231,52.8924
52.7520,53.2212
52.7520,53.2212
52.7520,53.2212
53.0130,53.5253
53.3034,53.8013
53.6203,54.0466
53.9604,54.2585
54.2113,54.3816
54.3201,54.4350
54.3201,54.4350
54.3201,54.4350
54.6958,54.5742
55.0837,54.6746
55.0838,54.6746
55.0838,54.6746
55.4798,54.7353
55.4798,54.7353
55.4798,54.7353
55.4798,54.7353
55.4798,54.7353
55.7239,54.7477
55.7799,54.7505
55.7799,54.7505
55.9801,54.7505
55.9801,54.7505
56.0419,54.7474
56.2802,54.7353
56.2802,54.7353
56.2802,54.7353
56.6763,54.6746
57.0642,54.5742
57.4399,54.4350
57.7996,54.2585
58.1397,54.0466
58.4566,53.8013
58.7470,53.5253
59.0080,53.2212
59.2369,52.8924
59.4313,52.5420
59.5894,52.1738
59.7093,51.7915
59.7900,51.3990
59.8305,51.0003
59.8305,50.5997
59.7900,50.2010
59.7093,49.8085
59.5894,49.4262
59.4313,49.0580
59.2369,48.7076
59.0080,48.3788
58.7470,48.0747
58.4566,47.7987
58.1397,47.5534
58.0906,47.5228
57.7997,47.3415
57.7997,47.3415
57.7996,47.3415
57.6766,47.2811
57.4399,47.1650
57.4399,47.1650
57.0642,47.0258
57.0642,47.0258
57.0642,47.0258
56.6763,46.9254
56.6763,46.9254
56.6762,46.9254
56.6762,46.9254
56.2802,46.8647
56.2802,46.8647
56.0005,46.8505
55.9801,46.8495
55.7799,46.8495
55.7602,46.8505
55.4798,46.8647
55.4798,46.8647
55.0838,46.9254
55.0838,46.9254
54.6958,47.0258
54.3201,47.1650
54.3201,47.1650
53.9604,47.3415
53.9603,47.3415
53.6203,47.5534
53.6203,47.5534
53.3034,47.7987
53.0130,48.0747
52.7520,48.3788
52.5231,48.7076
52.3287,49.0580
52.1706,49.4262
52.0959,49.6645
52.0507,49.8085
51.9700,50.2010
51.9295,50.5997
51.9295,51.0003
25.4605,51.0003
25.4605,25.5865
25.4805,25.5184
25.5342,25.4719
25.5865,25.4605
31.5179,25.4605
Z" /> 
</g>
</g>
</g>
<g style="fill:#FFFFFF; fill-opacity:1.0000; 
stroke:#FFFFFF; stroke-width:0.0000; stroke-opacity:1; 
stroke-linecap:round; stroke-linejoin:round;">
<circle cx="35.5600" cy="132.0800" r="0.1750" /> 
</g>
<g style="fill:#FFFFFF; fill-opacity:1.0000; 
stroke:#FFFFFF; stroke-width:0.0212; stroke-opacity:1; 
stroke-linecap:round; stroke-linejoin:round;">
</g>
<g style="fill:#FFFFFF; fill-opacity:1.0000; 
stroke:#FFFFFF; stroke-width:0.0000; stroke-opacity:1; 
stroke-linecap:round; stroke-linejoin:round;">
<circle cx="55.8800" cy="50.8000" r="0.1750" /> 
</g>
<g style="fill:#FFFFFF; fill-opacity:1.0000; 
stroke:#FFFFFF; stroke-width:0.0212; stroke-opacity:1; 
stroke-linecap:round; stroke-linejoin:round;">
</g>
<g style="fill:#FFFFFF; fill-opacity:1.0000; 
stroke:#FFFFFF; stroke-width:0.0000; stroke-opacity:1; 
stroke-linecap:round; stroke-linejoin:round;">
<circle cx="55.8800" cy="71.1200" r="0.1750" /> 
</g>
<g style="fill:#FFFFFF; fill-opacity:1.0000; 
stroke:#FFFFFF; stroke-width:0.0212; stroke-opacity:1; 
stroke-linecap:round; stroke-linejoin:round;">
</g>
<g style="fill:#FFFFFF; fill-opacity:1.0000; 
stroke:#FFFFFF; stroke-width:0.0000; stroke-opacity:1; 
stroke-linecap:round; stroke-linejoin:round;">
<circle cx="55.8800" cy="91.4400" r="0.1750" /> 
</g>
<g style="fill:#FFFFFF; fill-opacity:1.0000; 
stroke:#FFFFFF; stroke-width:0.0212; stroke-opacity:1; 
stroke-linecap:round; stroke-linejoin:round;">
</g>
<g style="fill:#FFFFFF; fill-opacity:1.0000; 
stroke:#FFFFFF; stroke-width:0.0000; stroke-opacity:1; 
stroke-linecap:round; stroke-linejoin:round;">
<circle cx="55.8800" cy="111.7600" r="0.1750" /> 
</g>
<g style="fill:#FFFFFF; fill-opacity:1.0000; 
stroke:#FFFFFF; stroke-width:0.0212; stroke-opacity:1; 
stroke-linecap:round; stroke-linejoin:round;">
</g>
<g style="fill:#FFFFFF; fill-opacity:1.0000; 
stroke:#FFFFFF; stroke-width:0.0000; stroke-opacity:1; 
stroke-linecap:round; stroke-linejoin:round;">
<circle cx="55.8800" cy="132.0800" r="0.1750" /> 
</g>
<g style="fill:#FFFFFF; fill-opacity:1.0000; 
stroke:#FFFFFF; stroke-width:0.0212; stroke-opacity:1; 
stroke-linecap:round; stroke-linejoin:round;">
</g>
<g style="fill:#FFFFFF; fill-opacity:1.0000; 
stroke:#FFFFFF; stroke-width:0.0000; stroke-opacity:1; 
stroke-linecap:round; stroke-linejoin:round;">
<circle cx="32.9000" cy="28.4000" r="0.1750" /> 
</g>
<g style="fill:#FFFFFF; fill-opacity:1.0000; 
stroke:#FFFFFF; stroke-width:0.0212; stroke-opacity:1; 
stroke-linecap:round; stroke-linejoin:round;">
</g>
<g style="fill:#FFFFFF; fill-opacity:1.0000; 
stroke:#FFFFFF; stroke-width:0.0000; stroke-opacity:1; 
stroke-linecap:round; stroke-linejoin:round;">
<circle cx="32.9000" cy="150.9000" r="0.1750" /> 
</g>
<g style="fill:#FFFFFF; fill-opacity:1.0000; 
stroke:#FFFFFF; stroke-width:0.0212; stroke-opacity:1; 
stroke-linecap:round; stroke-linejoin:round;">
</g>
<g style="fill:#000000; fill-opacity:1.0000; 
stroke:#000000; stroke-width:0.0212; stroke-opacity:1; 
stroke-linecap:round; stroke-linejoin:round;">
</g> 
</svg>
