<?xml version="1.0" standalone="no"?>
 <!DOCTYPE svg PUBLIC "-//W3C//DTD SVG 1.1//EN" 
 "http://www.w3.org/Graphics/SVG/1.1/DTD/svg11.dtd"> 
<svg
  xmlns:svg="http://www.w3.org/2000/svg"
  xmlns="http://www.w3.org/2000/svg"
  xmlns:xlink="http://www.w3.org/1999/xlink"
  version="1.1"
  width="297.0022mm" height="210.0072mm" viewBox="0.0000 0.0000 297.0022 210.0072">
<title>SVG Image created as panel-F_Mask.svg date 2023/11/08 17:24:07 </title>
  <desc>Image generated by PCBNEW </desc>
<g style="fill:#000000; fill-opacity:1.0000;stroke:#000000; stroke-opacity:1.0000;
stroke-linecap:round; stroke-linejoin:round;"
 transform="translate(0 0) scale(1 1)">
</g>
<g style="fill:#000000; fill-opacity:0.0; 
stroke:#000000; stroke-width:0.0000; stroke-opacity:1; 
stroke-linecap:round; stroke-linejoin:round;">
</g>
<g style="fill:#000000; fill-opacity:0.0; 
stroke:#000000; stroke-width:0.2500; stroke-opacity:1; 
stroke-linecap:round; stroke-linejoin:round;">
<text x="55.8800" y="142.2200"
textLength="3.8033" font-size="1.8667" lengthAdjust="spacingAndGlyphs"
text-anchor="middle" opacity="0">out</text>
<g class="stroked-text"><desc>out</desc>
<path d="M54.7467 142.1322
L54.6133 142.0370
" />
<path d="M54.6133 142.0370
L54.5467 141.9418
" />
<path d="M54.5467 141.9418
L54.4800 141.7513
" />
<path d="M54.4800 141.7513
L54.4800 141.1799
" />
<path d="M54.4800 141.1799
L54.5467 140.9894
" />
<path d="M54.5467 140.9894
L54.6133 140.8941
" />
<path d="M54.6133 140.8941
L54.7467 140.7989
" />
<path d="M54.7467 140.7989
L54.9467 140.7989
" />
<path d="M54.9467 140.7989
L55.0800 140.8941
" />
<path d="M55.0800 140.8941
L55.1467 140.9894
" />
<path d="M55.1467 140.9894
L55.2133 141.1799
" />
<path d="M55.2133 141.1799
L55.2133 141.7513
" />
<path d="M55.2133 141.7513
L55.1467 141.9418
" />
<path d="M55.1467 141.9418
L55.0800 142.0370
" />
<path d="M55.0800 142.0370
L54.9467 142.1322
" />
<path d="M54.9467 142.1322
L54.7467 142.1322
" />
<path d="M56.4133 140.7989
L56.4133 142.1322
" />
<path d="M55.8133 140.7989
L55.8133 141.8465
" />
<path d="M55.8133 141.8465
L55.8800 142.0370
" />
<path d="M55.8800 142.0370
L56.0133 142.1322
" />
<path d="M56.0133 142.1322
L56.2133 142.1322
" />
<path d="M56.2133 142.1322
L56.3467 142.0370
" />
<path d="M56.3467 142.0370
L56.4133 141.9418
" />
<path d="M56.8800 140.7989
L57.4133 140.7989
" />
<path d="M57.0800 140.1322
L57.0800 141.8465
" />
<path d="M57.0800 141.8465
L57.1467 142.0370
" />
<path d="M57.1467 142.0370
L57.2800 142.1322
" />
<path d="M57.2800 142.1322
L57.4133 142.1322
" />
</g><text x="55.8700" y="81.2700"
textLength="6.4700" font-size="1.8667" lengthAdjust="spacingAndGlyphs"
text-anchor="middle" opacity="0">decay</text>
<g class="stroked-text"><desc>decay</desc>
<path d="M53.8033 81.1822
L53.8033 79.1822
" />
<path d="M53.8033 81.0870
L53.6700 81.1822
" />
<path d="M53.6700 81.1822
L53.4033 81.1822
" />
<path d="M53.4033 81.1822
L53.2700 81.0870
" />
<path d="M53.2700 81.0870
L53.2033 80.9918
" />
<path d="M53.2033 80.9918
L53.1367 80.8013
" />
<path d="M53.1367 80.8013
L53.1367 80.2299
" />
<path d="M53.1367 80.2299
L53.2033 80.0394
" />
<path d="M53.2033 80.0394
L53.2700 79.9441
" />
<path d="M53.2700 79.9441
L53.4033 79.8489
" />
<path d="M53.4033 79.8489
L53.6700 79.8489
" />
<path d="M53.6700 79.8489
L53.8033 79.9441
" />
<path d="M55.0033 81.0870
L54.8700 81.1822
" />
<path d="M54.8700 81.1822
L54.6033 81.1822
" />
<path d="M54.6033 81.1822
L54.4700 81.0870
" />
<path d="M54.4700 81.0870
L54.4033 80.8965
" />
<path d="M54.4033 80.8965
L54.4033 80.1346
" />
<path d="M54.4033 80.1346
L54.4700 79.9441
" />
<path d="M54.4700 79.9441
L54.6033 79.8489
" />
<path d="M54.6033 79.8489
L54.8700 79.8489
" />
<path d="M54.8700 79.8489
L55.0033 79.9441
" />
<path d="M55.0033 79.9441
L55.0700 80.1346
" />
<path d="M55.0700 80.1346
L55.0700 80.3251
" />
<path d="M55.0700 80.3251
L54.4033 80.5156
" />
<path d="M56.2700 81.0870
L56.1367 81.1822
" />
<path d="M56.1367 81.1822
L55.8700 81.1822
" />
<path d="M55.8700 81.1822
L55.7367 81.0870
" />
<path d="M55.7367 81.0870
L55.6700 80.9918
" />
<path d="M55.6700 80.9918
L55.6033 80.8013
" />
<path d="M55.6033 80.8013
L55.6033 80.2299
" />
<path d="M55.6033 80.2299
L55.6700 80.0394
" />
<path d="M55.6700 80.0394
L55.7367 79.9441
" />
<path d="M55.7367 79.9441
L55.8700 79.8489
" />
<path d="M55.8700 79.8489
L56.1367 79.8489
" />
<path d="M56.1367 79.8489
L56.2700 79.9441
" />
<path d="M57.4700 81.1822
L57.4700 80.1346
" />
<path d="M57.4700 80.1346
L57.4033 79.9441
" />
<path d="M57.4033 79.9441
L57.2700 79.8489
" />
<path d="M57.2700 79.8489
L57.0033 79.8489
" />
<path d="M57.0033 79.8489
L56.8700 79.9441
" />
<path d="M57.4700 81.0870
L57.3367 81.1822
" />
<path d="M57.3367 81.1822
L57.0033 81.1822
" />
<path d="M57.0033 81.1822
L56.8700 81.0870
" />
<path d="M56.8700 81.0870
L56.8033 80.8965
" />
<path d="M56.8033 80.8965
L56.8033 80.7060
" />
<path d="M56.8033 80.7060
L56.8700 80.5156
" />
<path d="M56.8700 80.5156
L57.0033 80.4203
" />
<path d="M57.0033 80.4203
L57.3367 80.4203
" />
<path d="M57.3367 80.4203
L57.4700 80.3251
" />
<path d="M58.0033 79.8489
L58.3367 81.1822
" />
<path d="M58.6700 79.8489
L58.3367 81.1822
" />
<path d="M58.3367 81.1822
L58.2033 81.6584
" />
<path d="M58.2033 81.6584
L58.1367 81.7537
" />
<path d="M58.1367 81.7537
L58.0033 81.8489
" />
</g><text x="35.5800" y="142.2000"
textLength="2.4033" font-size="1.8667" lengthAdjust="spacingAndGlyphs"
text-anchor="middle" opacity="0">in</text>
<g class="stroked-text"><desc>in</desc>
<path d="M34.9467 142.1122
L34.9467 140.7789
" />
<path d="M34.9467 140.1122
L34.8800 140.2075
" />
<path d="M34.8800 140.2075
L34.9467 140.3027
" />
<path d="M34.9467 140.3027
L35.0133 140.2075
" />
<path d="M35.0133 140.2075
L34.9467 140.1122
" />
<path d="M34.9467 140.1122
L34.9467 140.3027
" />
<path d="M35.6133 140.7789
L35.6133 142.1122
" />
<path d="M35.6133 140.9694
L35.6800 140.8741
" />
<path d="M35.6800 140.8741
L35.8133 140.7789
" />
<path d="M35.8133 140.7789
L36.0133 140.7789
" />
<path d="M36.0133 140.7789
L36.1467 140.8741
" />
<path d="M36.1467 140.8741
L36.2133 141.0646
" />
<path d="M36.2133 141.0646
L36.2133 142.1122
" />
</g><text x="55.8800" y="101.5800"
textLength="8.0033" font-size="1.8667" lengthAdjust="spacingAndGlyphs"
text-anchor="middle" opacity="0">sustain</text>
<g class="stroked-text"><desc>sustain</desc>
<path d="M52.3800 101.3970
L52.5133 101.4922
" />
<path d="M52.5133 101.4922
L52.7800 101.4922
" />
<path d="M52.7800 101.4922
L52.9133 101.3970
" />
<path d="M52.9133 101.3970
L52.9800 101.2065
" />
<path d="M52.9800 101.2065
L52.9800 101.1113
" />
<path d="M52.9800 101.1113
L52.9133 100.9208
" />
<path d="M52.9133 100.9208
L52.7800 100.8256
" />
<path d="M52.7800 100.8256
L52.5800 100.8256
" />
<path d="M52.5800 100.8256
L52.4467 100.7303
" />
<path d="M52.4467 100.7303
L52.3800 100.5399
" />
<path d="M52.3800 100.5399
L52.3800 100.4446
" />
<path d="M52.3800 100.4446
L52.4467 100.2541
" />
<path d="M52.4467 100.2541
L52.5800 100.1589
" />
<path d="M52.5800 100.1589
L52.7800 100.1589
" />
<path d="M52.7800 100.1589
L52.9133 100.2541
" />
<path d="M54.1800 100.1589
L54.1800 101.4922
" />
<path d="M53.5800 100.1589
L53.5800 101.2065
" />
<path d="M53.5800 101.2065
L53.6467 101.3970
" />
<path d="M53.6467 101.3970
L53.7800 101.4922
" />
<path d="M53.7800 101.4922
L53.9800 101.4922
" />
<path d="M53.9800 101.4922
L54.1133 101.3970
" />
<path d="M54.1133 101.3970
L54.1800 101.3018
" />
<path d="M54.7800 101.3970
L54.9133 101.4922
" />
<path d="M54.9133 101.4922
L55.1800 101.4922
" />
<path d="M55.1800 101.4922
L55.3133 101.3970
" />
<path d="M55.3133 101.3970
L55.3800 101.2065
" />
<path d="M55.3800 101.2065
L55.3800 101.1113
" />
<path d="M55.3800 101.1113
L55.3133 100.9208
" />
<path d="M55.3133 100.9208
L55.1800 100.8256
" />
<path d="M55.1800 100.8256
L54.9800 100.8256
" />
<path d="M54.9800 100.8256
L54.8467 100.7303
" />
<path d="M54.8467 100.7303
L54.7800 100.5399
" />
<path d="M54.7800 100.5399
L54.7800 100.4446
" />
<path d="M54.7800 100.4446
L54.8467 100.2541
" />
<path d="M54.8467 100.2541
L54.9800 100.1589
" />
<path d="M54.9800 100.1589
L55.1800 100.1589
" />
<path d="M55.1800 100.1589
L55.3133 100.2541
" />
<path d="M55.7800 100.1589
L56.3133 100.1589
" />
<path d="M55.9800 99.4922
L55.9800 101.2065
" />
<path d="M55.9800 101.2065
L56.0467 101.3970
" />
<path d="M56.0467 101.3970
L56.1800 101.4922
" />
<path d="M56.1800 101.4922
L56.3133 101.4922
" />
<path d="M57.3800 101.4922
L57.3800 100.4446
" />
<path d="M57.3800 100.4446
L57.3133 100.2541
" />
<path d="M57.3133 100.2541
L57.1800 100.1589
" />
<path d="M57.1800 100.1589
L56.9133 100.1589
" />
<path d="M56.9133 100.1589
L56.7800 100.2541
" />
<path d="M57.3800 101.3970
L57.2467 101.4922
" />
<path d="M57.2467 101.4922
L56.9133 101.4922
" />
<path d="M56.9133 101.4922
L56.7800 101.3970
" />
<path d="M56.7800 101.3970
L56.7133 101.2065
" />
<path d="M56.7133 101.2065
L56.7133 101.0160
" />
<path d="M56.7133 101.0160
L56.7800 100.8256
" />
<path d="M56.7800 100.8256
L56.9133 100.7303
" />
<path d="M56.9133 100.7303
L57.2467 100.7303
" />
<path d="M57.2467 100.7303
L57.3800 100.6351
" />
<path d="M58.0467 101.4922
L58.0467 100.1589
" />
<path d="M58.0467 99.4922
L57.9800 99.5875
" />
<path d="M57.9800 99.5875
L58.0467 99.6827
" />
<path d="M58.0467 99.6827
L58.1133 99.5875
" />
<path d="M58.1133 99.5875
L58.0467 99.4922
" />
<path d="M58.0467 99.4922
L58.0467 99.6827
" />
<path d="M58.7133 100.1589
L58.7133 101.4922
" />
<path d="M58.7133 100.3494
L58.7800 100.2541
" />
<path d="M58.7800 100.2541
L58.9133 100.1589
" />
<path d="M58.9133 100.1589
L59.1133 100.1589
" />
<path d="M59.1133 100.1589
L59.2467 100.2541
" />
<path d="M59.2467 100.2541
L59.3133 100.4446
" />
<path d="M59.3133 100.4446
L59.3133 101.4922
" />
</g><text x="55.8800" y="60.9500"
textLength="6.9367" font-size="1.8667" lengthAdjust="spacingAndGlyphs"
text-anchor="middle" opacity="0">attack</text>
<g class="stroked-text"><desc>attack</desc>
<path d="M53.5800 60.8622
L53.5800 59.8146
" />
<path d="M53.5800 59.8146
L53.5133 59.6241
" />
<path d="M53.5133 59.6241
L53.3800 59.5289
" />
<path d="M53.3800 59.5289
L53.1133 59.5289
" />
<path d="M53.1133 59.5289
L52.9800 59.6241
" />
<path d="M53.5800 60.7670
L53.4467 60.8622
" />
<path d="M53.4467 60.8622
L53.1133 60.8622
" />
<path d="M53.1133 60.8622
L52.9800 60.7670
" />
<path d="M52.9800 60.7670
L52.9133 60.5765
" />
<path d="M52.9133 60.5765
L52.9133 60.3860
" />
<path d="M52.9133 60.3860
L52.9800 60.1956
" />
<path d="M52.9800 60.1956
L53.1133 60.1003
" />
<path d="M53.1133 60.1003
L53.4467 60.1003
" />
<path d="M53.4467 60.1003
L53.5800 60.0051
" />
<path d="M54.0467 59.5289
L54.5800 59.5289
" />
<path d="M54.2467 58.8622
L54.2467 60.5765
" />
<path d="M54.2467 60.5765
L54.3133 60.7670
" />
<path d="M54.3133 60.7670
L54.4467 60.8622
" />
<path d="M54.4467 60.8622
L54.5800 60.8622
" />
<path d="M54.8467 59.5289
L55.3800 59.5289
" />
<path d="M55.0467 58.8622
L55.0467 60.5765
" />
<path d="M55.0467 60.5765
L55.1133 60.7670
" />
<path d="M55.1133 60.7670
L55.2467 60.8622
" />
<path d="M55.2467 60.8622
L55.3800 60.8622
" />
<path d="M56.4467 60.8622
L56.4467 59.8146
" />
<path d="M56.4467 59.8146
L56.3800 59.6241
" />
<path d="M56.3800 59.6241
L56.2467 59.5289
" />
<path d="M56.2467 59.5289
L55.9800 59.5289
" />
<path d="M55.9800 59.5289
L55.8467 59.6241
" />
<path d="M56.4467 60.7670
L56.3133 60.8622
" />
<path d="M56.3133 60.8622
L55.9800 60.8622
" />
<path d="M55.9800 60.8622
L55.8467 60.7670
" />
<path d="M55.8467 60.7670
L55.7800 60.5765
" />
<path d="M55.7800 60.5765
L55.7800 60.3860
" />
<path d="M55.7800 60.3860
L55.8467 60.1956
" />
<path d="M55.8467 60.1956
L55.9800 60.1003
" />
<path d="M55.9800 60.1003
L56.3133 60.1003
" />
<path d="M56.3133 60.1003
L56.4467 60.0051
" />
<path d="M57.7133 60.7670
L57.5800 60.8622
" />
<path d="M57.5800 60.8622
L57.3133 60.8622
" />
<path d="M57.3133 60.8622
L57.1800 60.7670
" />
<path d="M57.1800 60.7670
L57.1133 60.6718
" />
<path d="M57.1133 60.6718
L57.0467 60.4813
" />
<path d="M57.0467 60.4813
L57.0467 59.9099
" />
<path d="M57.0467 59.9099
L57.1133 59.7194
" />
<path d="M57.1133 59.7194
L57.1800 59.6241
" />
<path d="M57.1800 59.6241
L57.3133 59.5289
" />
<path d="M57.3133 59.5289
L57.5800 59.5289
" />
<path d="M57.5800 59.5289
L57.7133 59.6241
" />
<path d="M58.3133 60.8622
L58.3133 58.8622
" />
<path d="M58.4467 60.1003
L58.8467 60.8622
" />
<path d="M58.8467 59.5289
L58.3133 60.2908
" />
</g><text x="55.8800" y="121.9100"
textLength="8.0700" font-size="1.8667" lengthAdjust="spacingAndGlyphs"
text-anchor="middle" opacity="0">release</text>
<g class="stroked-text"><desc>release</desc>
<path d="M52.4133 121.8222
L52.4133 120.4889
" />
<path d="M52.4133 120.8699
L52.4800 120.6794
" />
<path d="M52.4800 120.6794
L52.5467 120.5841
" />
<path d="M52.5467 120.5841
L52.6800 120.4889
" />
<path d="M52.6800 120.4889
L52.8133 120.4889
" />
<path d="M53.8133 121.7270
L53.6800 121.8222
" />
<path d="M53.6800 121.8222
L53.4133 121.8222
" />
<path d="M53.4133 121.8222
L53.2800 121.7270
" />
<path d="M53.2800 121.7270
L53.2133 121.5365
" />
<path d="M53.2133 121.5365
L53.2133 120.7746
" />
<path d="M53.2133 120.7746
L53.2800 120.5841
" />
<path d="M53.2800 120.5841
L53.4133 120.4889
" />
<path d="M53.4133 120.4889
L53.6800 120.4889
" />
<path d="M53.6800 120.4889
L53.8133 120.5841
" />
<path d="M53.8133 120.5841
L53.8800 120.7746
" />
<path d="M53.8800 120.7746
L53.8800 120.9651
" />
<path d="M53.8800 120.9651
L53.2133 121.1556
" />
<path d="M54.6800 121.8222
L54.5467 121.7270
" />
<path d="M54.5467 121.7270
L54.4800 121.5365
" />
<path d="M54.4800 121.5365
L54.4800 119.8222
" />
<path d="M55.7467 121.7270
L55.6133 121.8222
" />
<path d="M55.6133 121.8222
L55.3467 121.8222
" />
<path d="M55.3467 121.8222
L55.2133 121.7270
" />
<path d="M55.2133 121.7270
L55.1467 121.5365
" />
<path d="M55.1467 121.5365
L55.1467 120.7746
" />
<path d="M55.1467 120.7746
L55.2133 120.5841
" />
<path d="M55.2133 120.5841
L55.3467 120.4889
" />
<path d="M55.3467 120.4889
L55.6133 120.4889
" />
<path d="M55.6133 120.4889
L55.7467 120.5841
" />
<path d="M55.7467 120.5841
L55.8133 120.7746
" />
<path d="M55.8133 120.7746
L55.8133 120.9651
" />
<path d="M55.8133 120.9651
L55.1467 121.1556
" />
<path d="M57.0133 121.8222
L57.0133 120.7746
" />
<path d="M57.0133 120.7746
L56.9467 120.5841
" />
<path d="M56.9467 120.5841
L56.8133 120.4889
" />
<path d="M56.8133 120.4889
L56.5467 120.4889
" />
<path d="M56.5467 120.4889
L56.4133 120.5841
" />
<path d="M57.0133 121.7270
L56.8800 121.8222
" />
<path d="M56.8800 121.8222
L56.5467 121.8222
" />
<path d="M56.5467 121.8222
L56.4133 121.7270
" />
<path d="M56.4133 121.7270
L56.3467 121.5365
" />
<path d="M56.3467 121.5365
L56.3467 121.3460
" />
<path d="M56.3467 121.3460
L56.4133 121.1556
" />
<path d="M56.4133 121.1556
L56.5467 121.0603
" />
<path d="M56.5467 121.0603
L56.8800 121.0603
" />
<path d="M56.8800 121.0603
L57.0133 120.9651
" />
<path d="M57.6133 121.7270
L57.7467 121.8222
" />
<path d="M57.7467 121.8222
L58.0133 121.8222
" />
<path d="M58.0133 121.8222
L58.1467 121.7270
" />
<path d="M58.1467 121.7270
L58.2133 121.5365
" />
<path d="M58.2133 121.5365
L58.2133 121.4413
" />
<path d="M58.2133 121.4413
L58.1467 121.2508
" />
<path d="M58.1467 121.2508
L58.0133 121.1556
" />
<path d="M58.0133 121.1556
L57.8133 121.1556
" />
<path d="M57.8133 121.1556
L57.6800 121.0603
" />
<path d="M57.6800 121.0603
L57.6133 120.8699
" />
<path d="M57.6133 120.8699
L57.6133 120.7746
" />
<path d="M57.6133 120.7746
L57.6800 120.5841
" />
<path d="M57.6800 120.5841
L57.8133 120.4889
" />
<path d="M57.8133 120.4889
L58.0133 120.4889
" />
<path d="M58.0133 120.4889
L58.1467 120.5841
" />
<path d="M59.3467 121.7270
L59.2133 121.8222
" />
<path d="M59.2133 121.8222
L58.9467 121.8222
" />
<path d="M58.9467 121.8222
L58.8133 121.7270
" />
<path d="M58.8133 121.7270
L58.7467 121.5365
" />
<path d="M58.7467 121.5365
L58.7467 120.7746
" />
<path d="M58.7467 120.7746
L58.8133 120.5841
" />
<path d="M58.8133 120.5841
L58.9467 120.4889
" />
<path d="M58.9467 120.4889
L59.2133 120.4889
" />
<path d="M59.2133 120.4889
L59.3467 120.5841
" />
<path d="M59.3467 120.5841
L59.4133 120.7746
" />
<path d="M59.4133 120.7746
L59.4133 120.9651
" />
<path d="M59.4133 120.9651
L58.7467 121.1556
" />
</g></g>
<g style="fill:#000000; fill-opacity:0.0; 
stroke:#000000; stroke-width:0.3500; stroke-opacity:1; 
stroke-linecap:round; stroke-linejoin:round;">
<text x="47.4980" y="29.8972"
textLength="10.1643" font-size="4.0000" lengthAdjust="spacingAndGlyphs"
text-anchor="middle" opacity="0">adsr</text>
<g class="stroked-text"><desc>adsr</desc>
<path d="M44.6409 29.7669
L44.6409 28.1954
" />
<path d="M44.6409 28.1954
L44.4980 27.9097
" />
<path d="M44.4980 27.9097
L44.2123 27.7669
" />
<path d="M44.2123 27.7669
L43.6409 27.7669
" />
<path d="M43.6409 27.7669
L43.3551 27.9097
" />
<path d="M44.6409 29.6240
L44.3551 29.7669
" />
<path d="M44.3551 29.7669
L43.6409 29.7669
" />
<path d="M43.6409 29.7669
L43.3551 29.6240
" />
<path d="M43.3551 29.6240
L43.2123 29.3383
" />
<path d="M43.2123 29.3383
L43.2123 29.0526
" />
<path d="M43.2123 29.0526
L43.3551 28.7669
" />
<path d="M43.3551 28.7669
L43.6409 28.6240
" />
<path d="M43.6409 28.6240
L44.3551 28.6240
" />
<path d="M44.3551 28.6240
L44.6409 28.4811
" />
<path d="M47.3551 29.7669
L47.3551 26.7669
" />
<path d="M47.3551 29.6240
L47.0694 29.7669
" />
<path d="M47.0694 29.7669
L46.4980 29.7669
" />
<path d="M46.4980 29.7669
L46.2123 29.6240
" />
<path d="M46.2123 29.6240
L46.0694 29.4811
" />
<path d="M46.0694 29.4811
L45.9266 29.1954
" />
<path d="M45.9266 29.1954
L45.9266 28.3383
" />
<path d="M45.9266 28.3383
L46.0694 28.0526
" />
<path d="M46.0694 28.0526
L46.2123 27.9097
" />
<path d="M46.2123 27.9097
L46.4980 27.7669
" />
<path d="M46.4980 27.7669
L47.0694 27.7669
" />
<path d="M47.0694 27.7669
L47.3551 27.9097
" />
<path d="M48.6409 29.6240
L48.9266 29.7669
" />
<path d="M48.9266 29.7669
L49.4980 29.7669
" />
<path d="M49.4980 29.7669
L49.7837 29.6240
" />
<path d="M49.7837 29.6240
L49.9266 29.3383
" />
<path d="M49.9266 29.3383
L49.9266 29.1954
" />
<path d="M49.9266 29.1954
L49.7837 28.9097
" />
<path d="M49.7837 28.9097
L49.4980 28.7669
" />
<path d="M49.4980 28.7669
L49.0694 28.7669
" />
<path d="M49.0694 28.7669
L48.7837 28.6240
" />
<path d="M48.7837 28.6240
L48.6409 28.3383
" />
<path d="M48.6409 28.3383
L48.6409 28.1954
" />
<path d="M48.6409 28.1954
L48.7837 27.9097
" />
<path d="M48.7837 27.9097
L49.0694 27.7669
" />
<path d="M49.0694 27.7669
L49.4980 27.7669
" />
<path d="M49.4980 27.7669
L49.7837 27.9097
" />
<path d="M51.2123 29.7669
L51.2123 27.7669
" />
<path d="M51.2123 28.3383
L51.3551 28.0526
" />
<path d="M51.3551 28.0526
L51.4980 27.9097
" />
<path d="M51.4980 27.9097
L51.7837 27.7669
" />
<path d="M51.7837 27.7669
L52.0694 27.7669
" />
</g></g>
<g style="fill:#000000; fill-opacity:0.0; 
stroke:#000000; stroke-width:2.0000; stroke-opacity:1; 
stroke-linecap:round; stroke-linejoin:round;">
<circle cx="45.7200" cy="132.0800" r="1.0000" /> 
<g >
</g>
<g style="fill:#000000; fill-opacity:1.0000; 
stroke:#000000; stroke-width:0.0000; stroke-opacity:1; 
stroke-linecap:round; stroke-linejoin:round;">
<circle cx="35.5600" cy="132.0800" r="3.2000" /> 
</g>
<g style="fill:#000000; fill-opacity:1.0000; 
stroke:#000000; stroke-width:0.0212; stroke-opacity:1; 
stroke-linecap:round; stroke-linejoin:round;">
</g>
<g >
</g>
<g style="fill:#000000; fill-opacity:1.0000; 
stroke:#000000; stroke-width:0.0212; stroke-opacity:1; 
stroke-linecap:round; stroke-linejoin:round;">
</g>
<g style="fill:#000000; fill-opacity:1.0000; 
stroke:#000000; stroke-width:0.0000; stroke-opacity:1; 
stroke-linecap:round; stroke-linejoin:round;">
<circle cx="55.8800" cy="50.8000" r="3.7000" /> 
</g>
<g style="fill:#000000; fill-opacity:1.0000; 
stroke:#000000; stroke-width:0.0212; stroke-opacity:1; 
stroke-linecap:round; stroke-linejoin:round;">
</g>
<g >
</g>
<g style="fill:#000000; fill-opacity:1.0000; 
stroke:#000000; stroke-width:0.0212; stroke-opacity:1; 
stroke-linecap:round; stroke-linejoin:round;">
</g>
<g style="fill:#000000; fill-opacity:1.0000; 
stroke:#000000; stroke-width:0.0000; stroke-opacity:1; 
stroke-linecap:round; stroke-linejoin:round;">
<circle cx="55.8800" cy="71.1200" r="3.7000" /> 
</g>
<g style="fill:#000000; fill-opacity:1.0000; 
stroke:#000000; stroke-width:0.0212; stroke-opacity:1; 
stroke-linecap:round; stroke-linejoin:round;">
</g>
<g >
</g>
<g style="fill:#000000; fill-opacity:1.0000; 
stroke:#000000; stroke-width:0.0212; stroke-opacity:1; 
stroke-linecap:round; stroke-linejoin:round;">
</g>
<g style="fill:#000000; fill-opacity:1.0000; 
stroke:#000000; stroke-width:0.0000; stroke-opacity:1; 
stroke-linecap:round; stroke-linejoin:round;">
<circle cx="55.8800" cy="91.4400" r="3.7000" /> 
</g>
<g style="fill:#000000; fill-opacity:1.0000; 
stroke:#000000; stroke-width:0.0212; stroke-opacity:1; 
stroke-linecap:round; stroke-linejoin:round;">
</g>
<g >
</g>
<g style="fill:#000000; fill-opacity:1.0000; 
stroke:#000000; stroke-width:0.0212; stroke-opacity:1; 
stroke-linecap:round; stroke-linejoin:round;">
</g>
<g style="fill:#000000; fill-opacity:1.0000; 
stroke:#000000; stroke-width:0.0000; stroke-opacity:1; 
stroke-linecap:round; stroke-linejoin:round;">
<circle cx="55.8800" cy="111.7600" r="3.7000" /> 
</g>
<g style="fill:#000000; fill-opacity:1.0000; 
stroke:#000000; stroke-width:0.0212; stroke-opacity:1; 
stroke-linecap:round; stroke-linejoin:round;">
</g>
<g >
</g>
<g >
</g>
<g style="fill:#000000; fill-opacity:1.0000; 
stroke:#000000; stroke-width:0.0212; stroke-opacity:1; 
stroke-linecap:round; stroke-linejoin:round;">
</g>
<g style="fill:#000000; fill-opacity:1.0000; 
stroke:#000000; stroke-width:0.0000; stroke-opacity:1; 
stroke-linecap:round; stroke-linejoin:round;">
<circle cx="55.8800" cy="132.0800" r="3.2000" /> 
</g>
<g style="fill:#000000; fill-opacity:1.0000; 
stroke:#000000; stroke-width:0.0212; stroke-opacity:1; 
stroke-linecap:round; stroke-linejoin:round;">
</g>
<g >
</g>
<g style="fill:#000000; fill-opacity:1.0000; 
stroke:#000000; stroke-width:0.0212; stroke-opacity:1; 
stroke-linecap:round; stroke-linejoin:round;">
</g>
<g style="fill:#000000; fill-opacity:1.0000; 
stroke:#000000; stroke-width:0.0000; stroke-opacity:1; 
stroke-linecap:round; stroke-linejoin:round;">
<circle cx="32.9000" cy="28.4000" r="1.8000" /> 
</g>
<g style="fill:#000000; fill-opacity:1.0000; 
stroke:#000000; stroke-width:0.0212; stroke-opacity:1; 
stroke-linecap:round; stroke-linejoin:round;">
</g>
<g style="fill:#000000; fill-opacity:1.0000; 
stroke:#000000; stroke-width:0.0000; stroke-opacity:1; 
stroke-linecap:round; stroke-linejoin:round;">
<circle cx="32.9000" cy="28.4000" r="2.5000" /> 
</g>
<g style="fill:#000000; fill-opacity:1.0000; 
stroke:#000000; stroke-width:0.0212; stroke-opacity:1; 
stroke-linecap:round; stroke-linejoin:round;">
</g>
<g >
</g>
<g style="fill:#000000; fill-opacity:1.0000; 
stroke:#000000; stroke-width:0.0212; stroke-opacity:1; 
stroke-linecap:round; stroke-linejoin:round;">
</g>
<g style="fill:#000000; fill-opacity:1.0000; 
stroke:#000000; stroke-width:0.0000; stroke-opacity:1; 
stroke-linecap:round; stroke-linejoin:round;">
<circle cx="32.9000" cy="150.9000" r="1.8000" /> 
</g>
<g style="fill:#000000; fill-opacity:1.0000; 
stroke:#000000; stroke-width:0.0212; stroke-opacity:1; 
stroke-linecap:round; stroke-linejoin:round;">
</g>
<g style="fill:#000000; fill-opacity:1.0000; 
stroke:#000000; stroke-width:0.0000; stroke-opacity:1; 
stroke-linecap:round; stroke-linejoin:round;">
<circle cx="32.9000" cy="150.9000" r="2.5000" /> 
</g>
<g style="fill:#000000; fill-opacity:1.0000; 
stroke:#000000; stroke-width:0.0212; stroke-opacity:1; 
stroke-linecap:round; stroke-linejoin:round;">
</g>
<g >
</g>
<g >
</g>
<g >
</g>
</g> 
</svg>
