<?xml version="1.0" encoding="utf-8" standalone="no"?>
<!DOCTYPE svg PUBLIC "-//W3C//DTD SVG 1.1//EN"
  "http://www.w3.org/Graphics/SVG/1.1/DTD/svg11.dtd">
<!-- Created with matplotlib (https://matplotlib.org/) -->
<svg height="428.030194pt" version="1.1" viewBox="0 0 1288.525 428.030194" width="1288.525pt" xmlns="http://www.w3.org/2000/svg" xmlns:xlink="http://www.w3.org/1999/xlink">
 <metadata>
  <rdf:RDF xmlns:cc="http://creativecommons.org/ns#" xmlns:dc="http://purl.org/dc/elements/1.1/" xmlns:rdf="http://www.w3.org/1999/02/22-rdf-syntax-ns#">
   <cc:Work>
    <dc:type rdf:resource="http://purl.org/dc/dcmitype/StillImage"/>
    <dc:date>2020-08-16T17:11:28.829023</dc:date>
    <dc:format>image/svg+xml</dc:format>
    <dc:creator>
     <cc:Agent>
      <dc:title>Matplotlib v3.3.0, https://matplotlib.org/</dc:title>
     </cc:Agent>
    </dc:creator>
   </cc:Work>
  </rdf:RDF>
 </metadata>
 <defs>
  <style type="text/css">*{stroke-linecap:butt;stroke-linejoin:round;}</style>
 </defs>
 <g id="figure_1">
  <g id="patch_1">
   <path d="M 0 428.030194 
L 1288.525 428.030194 
L 1288.525 0 
L 0 0 
z
" style="fill:none;"/>
  </g>
  <g id="axes_1">
   <g id="patch_2">
    <path d="M 52.160938 355.167219 
L 410.336673 355.167219 
L 410.336673 10.999219 
L 52.160938 10.999219 
z
" style="fill:#ffffff;"/>
   </g>
   <g id="matplotlib.axis_1">
    <g id="xtick_1">
     <g id="line2d_1">
      <path clip-path="url(#p87fc297bae)" d="M 68.441653 355.167219 
L 68.441653 10.999219 
" style="fill:none;stroke:#b0b0b0;stroke-linecap:square;stroke-width:0.8;"/>
     </g>
     <g id="line2d_2">
      <defs>
       <path d="M 0 0 
L 0 3.5 
" id="m95f4cf9383" style="stroke:#000000;stroke-width:0.8;"/>
      </defs>
      <g>
       <use style="stroke:#000000;stroke-width:0.8;" x="68.441653" xlink:href="#m95f4cf9383" y="355.167219"/>
      </g>
     </g>
     <g id="text_1">
      <!-- 0 -->
      <g transform="translate(65.260403 369.765656)scale(0.1 -0.1)">
       <defs>
        <path d="M 31.78125 66.40625 
Q 24.171875 66.40625 20.328125 58.90625 
Q 16.5 51.421875 16.5 36.375 
Q 16.5 21.390625 20.328125 13.890625 
Q 24.171875 6.390625 31.78125 6.390625 
Q 39.453125 6.390625 43.28125 13.890625 
Q 47.125 21.390625 47.125 36.375 
Q 47.125 51.421875 43.28125 58.90625 
Q 39.453125 66.40625 31.78125 66.40625 
z
M 31.78125 74.21875 
Q 44.046875 74.21875 50.515625 64.515625 
Q 56.984375 54.828125 56.984375 36.375 
Q 56.984375 17.96875 50.515625 8.265625 
Q 44.046875 -1.421875 31.78125 -1.421875 
Q 19.53125 -1.421875 13.0625 8.265625 
Q 6.59375 17.96875 6.59375 36.375 
Q 6.59375 54.828125 13.0625 64.515625 
Q 19.53125 74.21875 31.78125 74.21875 
z
" id="DejaVuSans-48"/>
       </defs>
       <use xlink:href="#DejaVuSans-48"/>
      </g>
     </g>
    </g>
    <g id="xtick_2">
     <g id="line2d_3">
      <path clip-path="url(#p87fc297bae)" d="M 109.1292 355.167219 
L 109.1292 10.999219 
" style="fill:none;stroke:#b0b0b0;stroke-linecap:square;stroke-width:0.8;"/>
     </g>
     <g id="line2d_4">
      <g>
       <use style="stroke:#000000;stroke-width:0.8;" x="109.1292" xlink:href="#m95f4cf9383" y="355.167219"/>
      </g>
     </g>
     <g id="text_2">
      <!-- 2500 -->
      <g transform="translate(96.4042 369.765656)scale(0.1 -0.1)">
       <defs>
        <path d="M 19.1875 8.296875 
L 53.609375 8.296875 
L 53.609375 0 
L 7.328125 0 
L 7.328125 8.296875 
Q 12.9375 14.109375 22.625 23.890625 
Q 32.328125 33.6875 34.8125 36.53125 
Q 39.546875 41.84375 41.421875 45.53125 
Q 43.3125 49.21875 43.3125 52.78125 
Q 43.3125 58.59375 39.234375 62.25 
Q 35.15625 65.921875 28.609375 65.921875 
Q 23.96875 65.921875 18.8125 64.3125 
Q 13.671875 62.703125 7.8125 59.421875 
L 7.8125 69.390625 
Q 13.765625 71.78125 18.9375 73 
Q 24.125 74.21875 28.421875 74.21875 
Q 39.75 74.21875 46.484375 68.546875 
Q 53.21875 62.890625 53.21875 53.421875 
Q 53.21875 48.921875 51.53125 44.890625 
Q 49.859375 40.875 45.40625 35.40625 
Q 44.1875 33.984375 37.640625 27.21875 
Q 31.109375 20.453125 19.1875 8.296875 
z
" id="DejaVuSans-50"/>
        <path d="M 10.796875 72.90625 
L 49.515625 72.90625 
L 49.515625 64.59375 
L 19.828125 64.59375 
L 19.828125 46.734375 
Q 21.96875 47.46875 24.109375 47.828125 
Q 26.265625 48.1875 28.421875 48.1875 
Q 40.625 48.1875 47.75 41.5 
Q 54.890625 34.8125 54.890625 23.390625 
Q 54.890625 11.625 47.5625 5.09375 
Q 40.234375 -1.421875 26.90625 -1.421875 
Q 22.3125 -1.421875 17.546875 -0.640625 
Q 12.796875 0.140625 7.71875 1.703125 
L 7.71875 11.625 
Q 12.109375 9.234375 16.796875 8.0625 
Q 21.484375 6.890625 26.703125 6.890625 
Q 35.15625 6.890625 40.078125 11.328125 
Q 45.015625 15.765625 45.015625 23.390625 
Q 45.015625 31 40.078125 35.4375 
Q 35.15625 39.890625 26.703125 39.890625 
Q 22.75 39.890625 18.8125 39.015625 
Q 14.890625 38.140625 10.796875 36.28125 
z
" id="DejaVuSans-53"/>
       </defs>
       <use xlink:href="#DejaVuSans-50"/>
       <use x="63.623047" xlink:href="#DejaVuSans-53"/>
       <use x="127.246094" xlink:href="#DejaVuSans-48"/>
       <use x="190.869141" xlink:href="#DejaVuSans-48"/>
      </g>
     </g>
    </g>
    <g id="xtick_3">
     <g id="line2d_5">
      <path clip-path="url(#p87fc297bae)" d="M 149.816748 355.167219 
L 149.816748 10.999219 
" style="fill:none;stroke:#b0b0b0;stroke-linecap:square;stroke-width:0.8;"/>
     </g>
     <g id="line2d_6">
      <g>
       <use style="stroke:#000000;stroke-width:0.8;" x="149.816748" xlink:href="#m95f4cf9383" y="355.167219"/>
      </g>
     </g>
     <g id="text_3">
      <!-- 5000 -->
      <g transform="translate(137.091748 369.765656)scale(0.1 -0.1)">
       <use xlink:href="#DejaVuSans-53"/>
       <use x="63.623047" xlink:href="#DejaVuSans-48"/>
       <use x="127.246094" xlink:href="#DejaVuSans-48"/>
       <use x="190.869141" xlink:href="#DejaVuSans-48"/>
      </g>
     </g>
    </g>
    <g id="xtick_4">
     <g id="line2d_7">
      <path clip-path="url(#p87fc297bae)" d="M 190.504295 355.167219 
L 190.504295 10.999219 
" style="fill:none;stroke:#b0b0b0;stroke-linecap:square;stroke-width:0.8;"/>
     </g>
     <g id="line2d_8">
      <g>
       <use style="stroke:#000000;stroke-width:0.8;" x="190.504295" xlink:href="#m95f4cf9383" y="355.167219"/>
      </g>
     </g>
     <g id="text_4">
      <!-- 7500 -->
      <g transform="translate(177.779295 369.765656)scale(0.1 -0.1)">
       <defs>
        <path d="M 8.203125 72.90625 
L 55.078125 72.90625 
L 55.078125 68.703125 
L 28.609375 0 
L 18.3125 0 
L 43.21875 64.59375 
L 8.203125 64.59375 
z
" id="DejaVuSans-55"/>
       </defs>
       <use xlink:href="#DejaVuSans-55"/>
       <use x="63.623047" xlink:href="#DejaVuSans-53"/>
       <use x="127.246094" xlink:href="#DejaVuSans-48"/>
       <use x="190.869141" xlink:href="#DejaVuSans-48"/>
      </g>
     </g>
    </g>
    <g id="xtick_5">
     <g id="line2d_9">
      <path clip-path="url(#p87fc297bae)" d="M 231.191843 355.167219 
L 231.191843 10.999219 
" style="fill:none;stroke:#b0b0b0;stroke-linecap:square;stroke-width:0.8;"/>
     </g>
     <g id="line2d_10">
      <g>
       <use style="stroke:#000000;stroke-width:0.8;" x="231.191843" xlink:href="#m95f4cf9383" y="355.167219"/>
      </g>
     </g>
     <g id="text_5">
      <!-- 10000 -->
      <g transform="translate(215.285593 369.765656)scale(0.1 -0.1)">
       <defs>
        <path d="M 12.40625 8.296875 
L 28.515625 8.296875 
L 28.515625 63.921875 
L 10.984375 60.40625 
L 10.984375 69.390625 
L 28.421875 72.90625 
L 38.28125 72.90625 
L 38.28125 8.296875 
L 54.390625 8.296875 
L 54.390625 0 
L 12.40625 0 
z
" id="DejaVuSans-49"/>
       </defs>
       <use xlink:href="#DejaVuSans-49"/>
       <use x="63.623047" xlink:href="#DejaVuSans-48"/>
       <use x="127.246094" xlink:href="#DejaVuSans-48"/>
       <use x="190.869141" xlink:href="#DejaVuSans-48"/>
       <use x="254.492188" xlink:href="#DejaVuSans-48"/>
      </g>
     </g>
    </g>
    <g id="xtick_6">
     <g id="line2d_11">
      <path clip-path="url(#p87fc297bae)" d="M 271.87939 355.167219 
L 271.87939 10.999219 
" style="fill:none;stroke:#b0b0b0;stroke-linecap:square;stroke-width:0.8;"/>
     </g>
     <g id="line2d_12">
      <g>
       <use style="stroke:#000000;stroke-width:0.8;" x="271.87939" xlink:href="#m95f4cf9383" y="355.167219"/>
      </g>
     </g>
     <g id="text_6">
      <!-- 12500 -->
      <g transform="translate(255.97314 369.765656)scale(0.1 -0.1)">
       <use xlink:href="#DejaVuSans-49"/>
       <use x="63.623047" xlink:href="#DejaVuSans-50"/>
       <use x="127.246094" xlink:href="#DejaVuSans-53"/>
       <use x="190.869141" xlink:href="#DejaVuSans-48"/>
       <use x="254.492188" xlink:href="#DejaVuSans-48"/>
      </g>
     </g>
    </g>
    <g id="xtick_7">
     <g id="line2d_13">
      <path clip-path="url(#p87fc297bae)" d="M 312.566938 355.167219 
L 312.566938 10.999219 
" style="fill:none;stroke:#b0b0b0;stroke-linecap:square;stroke-width:0.8;"/>
     </g>
     <g id="line2d_14">
      <g>
       <use style="stroke:#000000;stroke-width:0.8;" x="312.566938" xlink:href="#m95f4cf9383" y="355.167219"/>
      </g>
     </g>
     <g id="text_7">
      <!-- 15000 -->
      <g transform="translate(296.660688 369.765656)scale(0.1 -0.1)">
       <use xlink:href="#DejaVuSans-49"/>
       <use x="63.623047" xlink:href="#DejaVuSans-53"/>
       <use x="127.246094" xlink:href="#DejaVuSans-48"/>
       <use x="190.869141" xlink:href="#DejaVuSans-48"/>
       <use x="254.492188" xlink:href="#DejaVuSans-48"/>
      </g>
     </g>
    </g>
    <g id="xtick_8">
     <g id="line2d_15">
      <path clip-path="url(#p87fc297bae)" d="M 353.254485 355.167219 
L 353.254485 10.999219 
" style="fill:none;stroke:#b0b0b0;stroke-linecap:square;stroke-width:0.8;"/>
     </g>
     <g id="line2d_16">
      <g>
       <use style="stroke:#000000;stroke-width:0.8;" x="353.254485" xlink:href="#m95f4cf9383" y="355.167219"/>
      </g>
     </g>
     <g id="text_8">
      <!-- 17500 -->
      <g transform="translate(337.348235 369.765656)scale(0.1 -0.1)">
       <use xlink:href="#DejaVuSans-49"/>
       <use x="63.623047" xlink:href="#DejaVuSans-55"/>
       <use x="127.246094" xlink:href="#DejaVuSans-53"/>
       <use x="190.869141" xlink:href="#DejaVuSans-48"/>
       <use x="254.492188" xlink:href="#DejaVuSans-48"/>
      </g>
     </g>
    </g>
    <g id="xtick_9">
     <g id="line2d_17">
      <path clip-path="url(#p87fc297bae)" d="M 393.942032 355.167219 
L 393.942032 10.999219 
" style="fill:none;stroke:#b0b0b0;stroke-linecap:square;stroke-width:0.8;"/>
     </g>
     <g id="line2d_18">
      <g>
       <use style="stroke:#000000;stroke-width:0.8;" x="393.942032" xlink:href="#m95f4cf9383" y="355.167219"/>
      </g>
     </g>
     <g id="text_9">
      <!-- 20000 -->
      <g transform="translate(378.035782 369.765656)scale(0.1 -0.1)">
       <use xlink:href="#DejaVuSans-50"/>
       <use x="63.623047" xlink:href="#DejaVuSans-48"/>
       <use x="127.246094" xlink:href="#DejaVuSans-48"/>
       <use x="190.869141" xlink:href="#DejaVuSans-48"/>
       <use x="254.492188" xlink:href="#DejaVuSans-48"/>
      </g>
     </g>
    </g>
    <g id="text_10">
     <!-- t [s] -->
     <g transform="translate(221.193336 383.443781)scale(0.1 -0.1)">
      <defs>
       <path d="M 18.3125 70.21875 
L 18.3125 54.6875 
L 36.8125 54.6875 
L 36.8125 47.703125 
L 18.3125 47.703125 
L 18.3125 18.015625 
Q 18.3125 11.328125 20.140625 9.421875 
Q 21.96875 7.515625 27.59375 7.515625 
L 36.8125 7.515625 
L 36.8125 0 
L 27.59375 0 
Q 17.1875 0 13.234375 3.875 
Q 9.28125 7.765625 9.28125 18.015625 
L 9.28125 47.703125 
L 2.6875 47.703125 
L 2.6875 54.6875 
L 9.28125 54.6875 
L 9.28125 70.21875 
z
" id="DejaVuSans-116"/>
       <path id="DejaVuSans-32"/>
       <path d="M 8.59375 75.984375 
L 29.296875 75.984375 
L 29.296875 69 
L 17.578125 69 
L 17.578125 -6.203125 
L 29.296875 -6.203125 
L 29.296875 -13.1875 
L 8.59375 -13.1875 
z
" id="DejaVuSans-91"/>
       <path d="M 44.28125 53.078125 
L 44.28125 44.578125 
Q 40.484375 46.53125 36.375 47.5 
Q 32.28125 48.484375 27.875 48.484375 
Q 21.1875 48.484375 17.84375 46.4375 
Q 14.5 44.390625 14.5 40.28125 
Q 14.5 37.15625 16.890625 35.375 
Q 19.28125 33.59375 26.515625 31.984375 
L 29.59375 31.296875 
Q 39.15625 29.25 43.1875 25.515625 
Q 47.21875 21.78125 47.21875 15.09375 
Q 47.21875 7.46875 41.1875 3.015625 
Q 35.15625 -1.421875 24.609375 -1.421875 
Q 20.21875 -1.421875 15.453125 -0.5625 
Q 10.6875 0.296875 5.421875 2 
L 5.421875 11.28125 
Q 10.40625 8.6875 15.234375 7.390625 
Q 20.0625 6.109375 24.8125 6.109375 
Q 31.15625 6.109375 34.5625 8.28125 
Q 37.984375 10.453125 37.984375 14.40625 
Q 37.984375 18.0625 35.515625 20.015625 
Q 33.0625 21.96875 24.703125 23.78125 
L 21.578125 24.515625 
Q 13.234375 26.265625 9.515625 29.90625 
Q 5.8125 33.546875 5.8125 39.890625 
Q 5.8125 47.609375 11.28125 51.796875 
Q 16.75 56 26.8125 56 
Q 31.78125 56 36.171875 55.265625 
Q 40.578125 54.546875 44.28125 53.078125 
z
" id="DejaVuSans-115"/>
       <path d="M 30.421875 75.984375 
L 30.421875 -13.1875 
L 9.71875 -13.1875 
L 9.71875 -6.203125 
L 21.390625 -6.203125 
L 21.390625 69 
L 9.71875 69 
L 9.71875 75.984375 
z
" id="DejaVuSans-93"/>
      </defs>
      <use xlink:href="#DejaVuSans-116"/>
      <use x="39.208984" xlink:href="#DejaVuSans-32"/>
      <use x="70.996094" xlink:href="#DejaVuSans-91"/>
      <use x="110.009766" xlink:href="#DejaVuSans-115"/>
      <use x="162.109375" xlink:href="#DejaVuSans-93"/>
     </g>
    </g>
   </g>
   <g id="matplotlib.axis_2">
    <g id="ytick_1">
     <g id="line2d_19">
      <path clip-path="url(#p87fc297bae)" d="M 52.160938 316.261387 
L 410.336673 316.261387 
" style="fill:none;stroke:#b0b0b0;stroke-linecap:square;stroke-width:0.8;"/>
     </g>
     <g id="line2d_20">
      <defs>
       <path d="M 0 0 
L -3.5 0 
" id="m145f938a6d" style="stroke:#000000;stroke-width:0.8;"/>
      </defs>
      <g>
       <use style="stroke:#000000;stroke-width:0.8;" x="52.160938" xlink:href="#m145f938a6d" y="316.261387"/>
      </g>
     </g>
     <g id="text_11">
      <!-- −0.2 -->
      <g transform="translate(20.878125 320.060606)scale(0.1 -0.1)">
       <defs>
        <path d="M 10.59375 35.5 
L 73.1875 35.5 
L 73.1875 27.203125 
L 10.59375 27.203125 
z
" id="DejaVuSans-8722"/>
        <path d="M 10.6875 12.40625 
L 21 12.40625 
L 21 0 
L 10.6875 0 
z
" id="DejaVuSans-46"/>
       </defs>
       <use xlink:href="#DejaVuSans-8722"/>
       <use x="83.789062" xlink:href="#DejaVuSans-48"/>
       <use x="147.412109" xlink:href="#DejaVuSans-46"/>
       <use x="179.199219" xlink:href="#DejaVuSans-50"/>
      </g>
     </g>
    </g>
    <g id="ytick_2">
     <g id="line2d_21">
      <path clip-path="url(#p87fc297bae)" d="M 52.160938 250.439076 
L 410.336673 250.439076 
" style="fill:none;stroke:#b0b0b0;stroke-linecap:square;stroke-width:0.8;"/>
     </g>
     <g id="line2d_22">
      <g>
       <use style="stroke:#000000;stroke-width:0.8;" x="52.160938" xlink:href="#m145f938a6d" y="250.439076"/>
      </g>
     </g>
     <g id="text_12">
      <!-- −0.1 -->
      <g transform="translate(20.878125 254.238294)scale(0.1 -0.1)">
       <use xlink:href="#DejaVuSans-8722"/>
       <use x="83.789062" xlink:href="#DejaVuSans-48"/>
       <use x="147.412109" xlink:href="#DejaVuSans-46"/>
       <use x="179.199219" xlink:href="#DejaVuSans-49"/>
      </g>
     </g>
    </g>
    <g id="ytick_3">
     <g id="line2d_23">
      <path clip-path="url(#p87fc297bae)" d="M 52.160938 184.616764 
L 410.336673 184.616764 
" style="fill:none;stroke:#b0b0b0;stroke-linecap:square;stroke-width:0.8;"/>
     </g>
     <g id="line2d_24">
      <g>
       <use style="stroke:#000000;stroke-width:0.8;" x="52.160938" xlink:href="#m145f938a6d" y="184.616764"/>
      </g>
     </g>
     <g id="text_13">
      <!-- 0.0 -->
      <g transform="translate(29.257812 188.415983)scale(0.1 -0.1)">
       <use xlink:href="#DejaVuSans-48"/>
       <use x="63.623047" xlink:href="#DejaVuSans-46"/>
       <use x="95.410156" xlink:href="#DejaVuSans-48"/>
      </g>
     </g>
    </g>
    <g id="ytick_4">
     <g id="line2d_25">
      <path clip-path="url(#p87fc297bae)" d="M 52.160938 118.794453 
L 410.336673 118.794453 
" style="fill:none;stroke:#b0b0b0;stroke-linecap:square;stroke-width:0.8;"/>
     </g>
     <g id="line2d_26">
      <g>
       <use style="stroke:#000000;stroke-width:0.8;" x="52.160938" xlink:href="#m145f938a6d" y="118.794453"/>
      </g>
     </g>
     <g id="text_14">
      <!-- 0.1 -->
      <g transform="translate(29.257812 122.593672)scale(0.1 -0.1)">
       <use xlink:href="#DejaVuSans-48"/>
       <use x="63.623047" xlink:href="#DejaVuSans-46"/>
       <use x="95.410156" xlink:href="#DejaVuSans-49"/>
      </g>
     </g>
    </g>
    <g id="ytick_5">
     <g id="line2d_27">
      <path clip-path="url(#p87fc297bae)" d="M 52.160938 52.972142 
L 410.336673 52.972142 
" style="fill:none;stroke:#b0b0b0;stroke-linecap:square;stroke-width:0.8;"/>
     </g>
     <g id="line2d_28">
      <g>
       <use style="stroke:#000000;stroke-width:0.8;" x="52.160938" xlink:href="#m145f938a6d" y="52.972142"/>
      </g>
     </g>
     <g id="text_15">
      <!-- 0.2 -->
      <g transform="translate(29.257812 56.771361)scale(0.1 -0.1)">
       <use xlink:href="#DejaVuSans-48"/>
       <use x="63.623047" xlink:href="#DejaVuSans-46"/>
       <use x="95.410156" xlink:href="#DejaVuSans-50"/>
      </g>
     </g>
    </g>
    <g id="text_16">
     <!-- [V] -->
     <g transform="translate(14.798438 190.405094)rotate(-90)scale(0.1 -0.1)">
      <defs>
       <path d="M 28.609375 0 
L 0.78125 72.90625 
L 11.078125 72.90625 
L 34.1875 11.53125 
L 57.328125 72.90625 
L 67.578125 72.90625 
L 39.796875 0 
z
" id="DejaVuSans-86"/>
      </defs>
      <use xlink:href="#DejaVuSans-91"/>
      <use x="39.013672" xlink:href="#DejaVuSans-86"/>
      <use x="107.421875" xlink:href="#DejaVuSans-93"/>
     </g>
    </g>
   </g>
   <g id="line2d_29">
    <path clip-path="url(#p87fc297bae)" d="M 68.441653 105.629991 
L 68.588128 105.516837 
L 76.335037 82.249157 
L 80.436342 70.645488 
L 83.821546 61.71511 
L 86.783599 54.510534 
L 89.452702 48.587971 
L 91.893955 43.699402 
L 94.139908 39.686474 
L 96.22311 36.40666 
L 98.159837 33.758471 
L 99.98264 31.632694 
L 101.691517 29.972274 
L 103.302743 28.708131 
L 104.832595 27.783145 
L 106.297347 27.15188 
L 107.713274 26.780124 
L 109.09665 26.644403 
L 110.463752 26.731559 
L 111.847128 27.043416 
L 113.263055 27.594673 
L 114.711532 28.399805 
L 116.225108 29.499038 
L 117.82006 30.93849 
L 119.496387 32.756408 
L 121.286639 35.034573 
L 123.190817 37.827382 
L 125.225194 41.215408 
L 127.422322 45.319859 
L 129.798474 50.24588 
L 132.386202 56.138812 
L 135.234331 63.192847 
L 138.456784 71.787253 
L 142.248864 82.56033 
L 147.29412 97.617817 
L 158.751733 132.025009 
L 162.641463 142.865411 
L 165.912741 151.34292 
L 168.79342 158.20946 
L 171.397423 163.859635 
L 173.789851 168.533715 
L 176.003253 172.381292 
L 178.053906 175.511809 
L 179.974358 178.046949 
L 181.76461 180.052122 
L 183.457212 181.621245 
L 185.052164 182.803105 
L 186.565741 183.654218 
L 188.014217 184.219355 
L 189.413869 184.532046 
L 190.797245 184.614781 
L 192.164347 184.475264 
L 193.547724 184.110573 
L 194.96365 183.505555 
L 196.428402 182.634886 
L 197.958254 181.462743 
L 199.569481 179.942419 
L 201.278358 178.016 
L 203.084885 175.637241 
L 205.021612 172.709313 
L 207.088539 169.171513 
L 209.318217 164.902469 
L 211.72692 159.798483 
L 214.363473 153.67681 
L 217.292976 146.294548 
L 220.61308 137.305217 
L 224.60046 125.836042 
L 230.247891 108.841085 
L 239.231702 81.822891 
L 243.300457 70.334359 
L 246.669386 61.467914 
L 249.615164 54.321619 
L 252.267992 48.450836 
L 254.69297 43.607101 
L 256.938923 39.604636 
L 259.022125 36.33508 
L 260.958852 33.696842 
L 262.781654 31.580747 
L 264.490531 29.92964 
L 266.101758 28.674447 
L 267.63161 27.75808 
L 269.096362 27.13515 
L 270.512288 26.771502 
L 271.895665 26.643728 
L 273.262767 26.738738 
L 274.646143 27.058524 
L 276.06207 27.617851 
L 277.526822 28.441682 
L 279.040398 29.552176 
L 280.63535 31.003298 
L 282.327952 32.852488 
L 284.118204 35.146224 
L 286.022382 37.955008 
L 288.073034 41.388199 
L 290.270161 45.512574 
L 292.646314 50.45858 
L 295.234042 56.371236 
L 298.098446 63.486259 
L 301.337174 72.14642 
L 305.161804 83.035431 
L 310.288435 98.358755 
L 321.306623 131.462954 
L 325.228902 142.426996 
L 328.516456 150.977935 
L 331.413409 157.912515 
L 334.033688 163.624345 
L 336.426115 168.323001 
L 338.639518 172.19492 
L 340.69017 175.349207 
L 342.610623 177.907534 
L 344.41715 179.951833 
L 346.109752 181.539477 
L 347.704703 182.739112 
L 349.21828 183.607319 
L 350.666757 184.188964 
L 352.082684 184.520167 
L 353.46606 184.61615 
L 354.833162 184.489721 
L 356.216538 184.138234 
L 357.632465 183.546647 
L 359.097217 182.689744 
L 360.627069 181.531791 
L 362.238295 180.026149 
L 363.947172 178.114948 
L 365.7537 175.751806 
L 367.674152 172.866058 
L 369.741079 169.347941 
L 371.954482 165.131518 
L 374.363185 160.050797 
L 376.983463 153.991331 
L 379.896691 146.676814 
L 383.20052 137.759224 
L 387.139074 126.459068 
L 392.640031 109.931676 
L 394.055958 105.629991 
L 394.055958 105.629991 
" style="fill:none;stroke:#1f77b4;stroke-linecap:square;stroke-width:1.5;"/>
   </g>
   <g id="line2d_30">
    <path clip-path="url(#p87fc297bae)" d="M 68.441653 184.616764 
L 68.539303 184.722639 
L 68.604403 185.701905 
L 70.199355 215.909885 
L 71.029381 227.656873 
L 71.647831 233.610822 
L 72.119807 236.296731 
L 72.461582 237.176441 
L 72.673158 237.263431 
L 72.852183 237.062798 
L 73.096308 236.386006 
L 73.438084 234.66865 
L 73.877509 231.187977 
L 74.447135 224.705341 
L 75.179511 213.587935 
L 76.237387 193.741877 
L 78.467064 151.235282 
L 79.26454 140.463789 
L 79.866716 135.040703 
L 80.322417 132.69928 
L 80.631642 132.020851 
L 80.826942 131.977955 
L 81.005967 132.201412 
L 81.266368 132.972659 
L 81.608143 134.774414 
L 82.063844 138.517041 
L 82.649744 145.398869 
L 83.41467 157.323484 
L 84.553922 179.094972 
L 86.523199 216.702572 
L 87.33695 228.034705 
L 87.955401 233.849459 
L 88.411101 236.359177 
L 88.736601 237.176441 
L 88.948177 237.263431 
L 89.127202 237.062798 
L 89.371327 236.386006 
L 89.713103 234.66865 
L 90.152528 231.187977 
L 90.722154 224.705341 
L 91.45453 213.587935 
L 92.512406 193.741877 
L 94.742083 151.235282 
L 95.539559 140.463789 
L 96.141735 135.040703 
L 96.597436 132.69928 
L 96.906661 132.020851 
L 97.101961 131.977955 
L 97.280986 132.201412 
L 97.541387 132.972659 
L 97.883162 134.774414 
L 98.338863 138.517041 
L 98.924763 145.398869 
L 99.689689 157.323484 
L 100.828941 179.094972 
L 102.798218 216.702572 
L 103.611969 228.034705 
L 104.230419 233.849459 
L 104.68612 236.359177 
L 105.01162 237.176441 
L 105.223196 237.263431 
L 105.402221 237.062798 
L 105.646346 236.386006 
L 105.988122 234.66865 
L 106.427547 231.187977 
L 106.997173 224.705341 
L 107.729549 213.587935 
L 108.787425 193.741877 
L 111.017102 151.235282 
L 111.814578 140.463789 
L 112.416754 135.040703 
L 112.872455 132.69928 
L 113.18168 132.020851 
L 113.37698 131.977955 
L 113.556005 132.201412 
L 113.816406 132.972659 
L 114.158181 134.774414 
L 114.613882 138.517041 
L 115.199782 145.398869 
L 115.964708 157.323484 
L 117.10396 179.094972 
L 119.073237 216.702572 
L 119.886988 228.034705 
L 120.505438 233.849459 
L 120.961139 236.359177 
L 121.286639 237.176441 
L 121.498215 237.263431 
L 121.67724 237.062798 
L 121.921365 236.386006 
L 122.263141 234.66865 
L 122.702566 231.187977 
L 123.272192 224.705341 
L 124.004568 213.587935 
L 125.062444 193.741877 
L 127.292121 151.235282 
L 128.089597 140.463789 
L 128.691773 135.040703 
L 129.147474 132.69928 
L 129.456699 132.020851 
L 129.651999 131.977955 
L 129.831024 132.201412 
L 130.091425 132.972659 
L 130.4332 134.774414 
L 130.888901 138.517041 
L 131.474801 145.398869 
L 132.239727 157.323484 
L 133.378978 179.094972 
L 135.348256 216.702572 
L 136.162007 228.034705 
L 136.780457 233.849459 
L 137.236158 236.359177 
L 137.561658 237.176441 
L 137.773234 237.263431 
L 137.952259 237.062798 
L 138.196384 236.386006 
L 138.53816 234.66865 
L 138.977585 231.187977 
L 139.547211 224.705341 
L 140.279587 213.587935 
L 141.337463 193.741877 
L 143.56714 151.235282 
L 144.364616 140.463789 
L 144.966792 135.040703 
L 145.422493 132.69928 
L 145.731718 132.020851 
L 145.927018 131.977955 
L 146.106043 132.201412 
L 146.366444 132.972659 
L 146.708219 134.774414 
L 147.16392 138.517041 
L 147.74982 145.398869 
L 148.514746 157.323484 
L 149.653997 179.094972 
L 151.623275 216.702572 
L 152.437026 228.034705 
L 153.055476 233.849459 
L 153.511177 236.359177 
L 153.836677 237.176441 
L 154.048253 237.263431 
L 154.227278 237.062798 
L 154.471403 236.386006 
L 154.813178 234.66865 
L 155.252604 231.187977 
L 155.82223 224.705341 
L 156.554606 213.587935 
L 157.612482 193.741877 
L 159.842159 151.235282 
L 160.639635 140.463789 
L 161.241811 135.040703 
L 161.697512 132.69928 
L 162.006737 132.020851 
L 162.202037 131.977955 
L 162.381062 132.201412 
L 162.641463 132.972659 
L 162.983238 134.774414 
L 163.438939 138.517041 
L 164.024839 145.398869 
L 164.789765 157.323484 
L 165.929016 179.094972 
L 167.898294 216.702572 
L 168.712045 228.034705 
L 169.330495 233.849459 
L 169.786196 236.359177 
L 170.111696 237.176441 
L 170.323272 237.263431 
L 170.502297 237.062798 
L 170.746422 236.386006 
L 171.088197 234.66865 
L 171.527623 231.187977 
L 172.097249 224.705341 
L 172.829625 213.587935 
L 173.887501 193.741877 
L 176.117178 151.235282 
L 176.914654 140.463789 
L 177.51683 135.040703 
L 177.972531 132.69928 
L 178.281756 132.020851 
L 178.477056 131.977955 
L 178.656081 132.201412 
L 178.916482 132.972659 
L 179.258257 134.774414 
L 179.713958 138.517041 
L 180.299858 145.398869 
L 181.064784 157.323484 
L 182.204035 179.094972 
L 184.173313 216.702572 
L 184.987064 228.034705 
L 185.605514 233.849459 
L 186.061215 236.359177 
L 186.386715 237.176441 
L 186.598291 237.263431 
L 186.777316 237.062798 
L 187.021441 236.386006 
L 187.363216 234.66865 
L 187.802642 231.187977 
L 188.372268 224.705341 
L 189.104643 213.587935 
L 190.16252 193.741877 
L 192.392197 151.235282 
L 193.189673 140.463789 
L 193.791849 135.040703 
L 194.247549 132.69928 
L 194.556775 132.020851 
L 194.752075 131.977955 
L 194.9311 132.201412 
L 195.191501 132.972659 
L 195.533276 134.774414 
L 195.988977 138.517041 
L 196.574877 145.398869 
L 197.339803 157.323484 
L 198.479054 179.094972 
L 200.448332 216.702572 
L 201.262083 228.034705 
L 201.880533 233.849459 
L 202.336234 236.359177 
L 202.661734 237.176441 
L 202.87331 237.263431 
L 203.052335 237.062798 
L 203.29646 236.386006 
L 203.638235 234.66865 
L 204.077661 231.187977 
L 204.647287 224.705341 
L 205.379662 213.587935 
L 206.437539 193.741877 
L 208.667216 151.235282 
L 209.464692 140.463789 
L 210.066868 135.040703 
L 210.522568 132.69928 
L 210.831794 132.020851 
L 211.027094 131.977955 
L 211.206119 132.201412 
L 211.46652 132.972659 
L 211.808295 134.774414 
L 212.263996 138.517041 
L 212.849896 145.398869 
L 213.614822 157.323484 
L 214.754073 179.094972 
L 216.723351 216.702572 
L 217.537102 228.034705 
L 218.155552 233.849459 
L 218.611253 236.359177 
L 218.936753 237.176441 
L 219.148329 237.263431 
L 219.327354 237.062798 
L 219.571479 236.386006 
L 219.913254 234.66865 
L 220.35268 231.187977 
L 220.922306 224.705341 
L 221.654681 213.587935 
L 222.712558 193.741877 
L 224.942235 151.235282 
L 225.739711 140.463789 
L 226.341887 135.040703 
L 226.797587 132.69928 
L 227.106813 132.020851 
L 227.302113 131.977955 
L 227.481138 132.201412 
L 227.741539 132.972659 
L 228.083314 134.774414 
L 228.539014 138.517041 
L 229.124915 145.398869 
L 229.889841 157.323484 
L 231.029092 179.094972 
L 232.99837 216.702572 
L 233.812121 228.034705 
L 234.430571 233.849459 
L 234.886272 236.359177 
L 235.211772 237.176441 
L 235.423348 237.263431 
L 235.602373 237.062798 
L 235.846498 236.386006 
L 236.188273 234.66865 
L 236.627699 231.187977 
L 237.197325 224.705341 
L 237.9297 213.587935 
L 238.987577 193.741877 
L 241.217254 151.235282 
L 242.01473 140.463789 
L 242.616906 135.040703 
L 243.072606 132.69928 
L 243.381832 132.020851 
L 243.577132 131.977955 
L 243.756157 132.201412 
L 244.016558 132.972659 
L 244.358333 134.774414 
L 244.814033 138.517041 
L 245.399934 145.398869 
L 246.16486 157.323484 
L 247.304111 179.094972 
L 249.273389 216.702572 
L 250.08714 228.034705 
L 250.70559 233.849459 
L 251.161291 236.359177 
L 251.486791 237.176441 
L 251.698367 237.263431 
L 251.877392 237.062798 
L 252.121517 236.386006 
L 252.463292 234.66865 
L 252.902718 231.187977 
L 253.472344 224.705341 
L 254.204719 213.587935 
L 255.262596 193.741877 
L 257.492273 151.235282 
L 258.289749 140.463789 
L 258.891925 135.040703 
L 259.347625 132.69928 
L 259.656851 132.020851 
L 259.852151 131.977955 
L 260.031176 132.201412 
L 260.291577 132.972659 
L 260.633352 134.774414 
L 261.089052 138.517041 
L 261.674953 145.398869 
L 262.439879 157.323484 
L 263.57913 179.094972 
L 265.548408 216.702572 
L 266.362159 228.034705 
L 266.980609 233.849459 
L 267.43631 236.359177 
L 267.76181 237.176441 
L 267.973385 237.263431 
L 268.152411 237.062798 
L 268.396536 236.386006 
L 268.738311 234.66865 
L 269.177737 231.187977 
L 269.747363 224.705341 
L 270.479738 213.587935 
L 271.537615 193.741877 
L 273.767292 151.235282 
L 274.564768 140.463789 
L 275.166944 135.040703 
L 275.622644 132.69928 
L 275.93187 132.020851 
L 276.12717 131.977955 
L 276.306195 132.201412 
L 276.566596 132.972659 
L 276.908371 134.774414 
L 277.364071 138.517041 
L 277.949972 145.398869 
L 278.714898 157.323484 
L 279.854149 179.094972 
L 281.823427 216.702572 
L 282.637178 228.034705 
L 283.255628 233.849459 
L 283.711329 236.359177 
L 284.036829 237.176441 
L 284.248404 237.263431 
L 284.42743 237.062798 
L 284.671555 236.386006 
L 285.01333 234.66865 
L 285.452756 231.187977 
L 286.022382 224.705341 
L 286.754757 213.587935 
L 287.812634 193.741877 
L 290.042311 151.235282 
L 290.839787 140.463789 
L 291.441963 135.040703 
L 291.897663 132.69928 
L 292.206889 132.020851 
L 292.402189 131.977955 
L 292.581214 132.201412 
L 292.841614 132.972659 
L 293.18339 134.774414 
L 293.63909 138.517041 
L 294.224991 145.398869 
L 294.989917 157.323484 
L 296.129168 179.094972 
L 298.098446 216.702572 
L 298.912197 228.034705 
L 299.530647 233.849459 
L 299.986348 236.359177 
L 300.311848 237.176441 
L 300.523423 237.263431 
L 300.702449 237.062798 
L 300.946574 236.386006 
L 301.288349 234.66865 
L 301.727775 231.187977 
L 302.297401 224.705341 
L 303.029776 213.587935 
L 304.087653 193.741877 
L 306.31733 151.235282 
L 307.114806 140.463789 
L 307.716982 135.040703 
L 308.172682 132.69928 
L 308.481908 132.020851 
L 308.677208 131.977955 
L 308.856233 132.201412 
L 309.116633 132.972659 
L 309.458409 134.774414 
L 309.914109 138.517041 
L 310.50001 145.398869 
L 311.264936 157.323484 
L 312.404187 179.094972 
L 314.373465 216.702572 
L 315.187216 228.034705 
L 315.805666 233.849459 
L 316.261367 236.359177 
L 316.586867 237.176441 
L 316.798442 237.263431 
L 316.977468 237.062798 
L 317.221593 236.386006 
L 317.563368 234.66865 
L 318.002794 231.187977 
L 318.57242 224.705341 
L 319.304795 213.587935 
L 320.362672 193.741877 
L 322.592349 151.235282 
L 323.389825 140.463789 
L 323.992001 135.040703 
L 324.447701 132.69928 
L 324.756927 132.020851 
L 324.952227 131.977955 
L 325.131252 132.201412 
L 325.391652 132.972659 
L 325.733428 134.774414 
L 326.189128 138.517041 
L 326.775029 145.398869 
L 327.539955 157.323484 
L 328.679206 179.094972 
L 330.648484 216.702572 
L 331.462235 228.034705 
L 332.080685 233.849459 
L 332.536386 236.359177 
L 332.861886 237.176441 
L 333.073461 237.263431 
L 333.252487 237.062798 
L 333.496612 236.386006 
L 333.838387 234.66865 
L 334.277813 231.187977 
L 334.847438 224.705341 
L 335.579814 213.587935 
L 336.637691 193.741877 
L 338.867368 151.235282 
L 339.664844 140.463789 
L 340.26702 135.040703 
L 340.72272 132.69928 
L 341.031946 132.020851 
L 341.227246 131.977955 
L 341.406271 132.201412 
L 341.666671 132.972659 
L 342.008447 134.774414 
L 342.464147 138.517041 
L 343.050048 145.398869 
L 343.814974 157.323484 
L 344.954225 179.094972 
L 346.923503 216.702572 
L 347.737254 228.034705 
L 348.355704 233.849459 
L 348.811405 236.359177 
L 349.136905 237.176441 
L 349.34848 237.263431 
L 349.527506 237.062798 
L 349.771631 236.386006 
L 350.113406 234.66865 
L 350.552832 231.187977 
L 351.122457 224.705341 
L 351.854833 213.587935 
L 352.91271 193.741877 
L 355.142387 151.235282 
L 355.939863 140.463789 
L 356.542039 135.040703 
L 356.997739 132.69928 
L 357.306965 132.020851 
L 357.502265 131.977955 
L 357.68129 132.201412 
L 357.94169 132.972659 
L 358.283466 134.774414 
L 358.739166 138.517041 
L 359.325067 145.398869 
L 360.089993 157.323484 
L 361.229244 179.094972 
L 363.198522 216.702572 
L 364.012273 228.034705 
L 364.630723 233.849459 
L 365.086424 236.359177 
L 365.411924 237.176441 
L 365.623499 237.263431 
L 365.802525 237.062798 
L 366.04665 236.386006 
L 366.388425 234.66865 
L 366.827851 231.187977 
L 367.397476 224.705341 
L 368.129852 213.587935 
L 369.187729 193.741877 
L 371.417406 151.235282 
L 372.214882 140.463789 
L 372.817058 135.040703 
L 373.272758 132.69928 
L 373.581984 132.020851 
L 373.777284 131.977955 
L 373.956309 132.201412 
L 374.216709 132.972659 
L 374.558485 134.774414 
L 375.014185 138.517041 
L 375.600086 145.398869 
L 376.365012 157.323484 
L 377.504263 179.094972 
L 379.473541 216.702572 
L 380.287291 228.034705 
L 380.905742 233.849459 
L 381.361443 236.359177 
L 381.686943 237.176441 
L 381.898518 237.263431 
L 382.077544 237.062798 
L 382.321669 236.386006 
L 382.663444 234.66865 
L 383.10287 231.187977 
L 383.672495 224.705341 
L 384.404871 213.587935 
L 385.462748 193.741877 
L 387.692425 151.235282 
L 388.489901 140.463789 
L 389.092077 135.040703 
L 389.547777 132.69928 
L 389.857003 132.020851 
L 390.052303 131.977955 
L 390.231328 132.201412 
L 390.491728 132.972659 
L 390.833504 134.774414 
L 391.289204 138.517041 
L 391.875105 145.398869 
L 392.640031 157.323484 
L 393.779282 179.094972 
L 394.055958 184.616764 
L 394.055958 184.616764 
" style="fill:none;stroke:#ff7f0e;stroke-linecap:square;stroke-width:1.5;"/>
   </g>
   <g id="line2d_31">
    <path clip-path="url(#p87fc297bae)" d="M 68.441653 184.616764 
L 68.523028 184.660575 
L 68.571853 185.224884 
L 70.752705 250.061683 
L 71.517631 265.889632 
L 72.087257 273.546483 
L 72.494132 276.538494 
L 72.770808 277.315827 
L 72.917283 277.30334 
L 73.080033 276.940429 
L 73.324158 275.701772 
L 73.649659 272.750268 
L 74.072809 266.713124 
L 74.609885 255.601703 
L 75.293436 236.404619 
L 76.204837 203.924848 
L 79.13434 94.474826 
L 79.801616 79.32432 
L 80.306142 72.199386 
L 80.680467 69.558096 
L 80.908317 69.100651 
L 81.022242 69.204009 
L 81.201268 69.817018 
L 81.461668 71.694771 
L 81.819718 76.177737 
L 82.275419 85.000306 
L 82.86132 101.18073 
L 83.60997 128.741999 
L 84.684122 177.639958 
L 86.767324 273.439036 
L 87.548525 299.001444 
L 88.134426 311.793183 
L 88.573851 317.295929 
L 88.883077 318.941685 
L 89.029552 319.064341 
L 89.045827 319.051709 
L 89.176027 318.761069 
L 89.387602 317.569022 
L 89.680553 314.450672 
L 90.071153 307.677241 
L 90.575679 294.671423 
L 91.210404 272.079946 
L 92.056705 233.191657 
L 93.651657 146.837323 
L 94.872284 86.834102 
L 95.653484 58.543174 
L 96.239385 44.50877 
L 96.678811 38.541152 
L 96.988036 36.804953 
L 97.118236 36.693886 
L 97.134511 36.705963 
L 97.264711 37.010534 
L 97.476287 38.293753 
L 97.769237 41.67379 
L 98.159837 49.026847 
L 98.664363 63.134143 
L 99.315364 88.300007 
L 100.17794 131.3097 
L 103.530594 309.162877 
L 104.165319 327.709541 
L 104.65357 336.253988 
L 104.995345 339.090569 
L 105.206921 339.520055 
L 105.320846 339.328833 
L 105.499871 338.431086 
L 105.760271 335.828743 
L 106.118322 329.779806 
L 106.590297 317.596042 
L 107.192473 295.649044 
L 107.973674 258.236234 
L 109.1943 187.385283 
L 110.854352 93.240662 
L 111.668103 58.915085 
L 112.286554 41.073597 
L 112.758529 32.916918 
L 113.100305 30.117509 
L 113.295605 29.709731 
L 113.31188 29.714996 
L 113.425805 29.920817 
L 113.60483 30.840344 
L 113.881506 33.683462 
L 114.255831 40.22408 
L 114.744082 53.204218 
L 115.362532 76.217117 
L 116.176283 115.605526 
L 117.575935 196.36092 
L 118.975587 272.34096 
L 119.789338 305.233782 
L 120.407788 322.137793 
L 120.879764 329.737456 
L 121.221539 332.246197 
L 121.400565 332.544525 
L 121.41684 332.537003 
L 121.530765 332.323002 
L 121.726065 331.301728 
L 122.00274 328.455021 
L 122.377066 322.054895 
L 122.865316 309.524197 
L 123.500042 286.866752 
L 124.346343 247.747678 
L 126.071495 154.314328 
L 127.210746 99.557492 
L 127.975672 72.436919 
L 128.561573 58.552081 
L 129.017273 52.299139 
L 129.342774 50.348848 
L 129.505524 50.164334 
L 129.521799 50.174803 
L 129.651999 50.447164 
L 129.863574 51.600477 
L 130.156525 54.627612 
L 130.5634 61.497214 
L 131.084201 74.521274 
L 131.751477 97.287288 
L 132.679153 137.404629 
L 135.445906 262.32968 
L 136.178282 283.624575 
L 136.747907 294.357503 
L 137.171058 298.78308 
L 137.464008 300.041263 
L 137.610483 300.117193 
L 137.626758 300.102986 
L 137.773234 299.772461 
L 138.001084 298.540035 
L 138.326584 295.296288 
L 138.749735 288.583905 
L 139.303085 275.898049 
L 140.019186 253.920306 
L 141.077062 213.718461 
L 143.17654 133.142869 
L 143.974016 111.18862 
L 144.592467 99.570739 
L 145.080717 94.078585 
L 145.438768 92.171388 
L 145.650343 91.885991 
L 145.780543 92.017745 
L 145.975843 92.648513 
L 146.252519 94.413445 
L 146.643119 98.576136 
L 147.147645 106.639746 
L 147.798645 120.927753 
L 148.710046 146.374267 
L 151.50935 228.08715 
L 152.241725 241.804335 
L 152.811351 248.793148 
L 153.250777 251.85855 
L 153.560002 252.795176 
L 153.755302 252.874327 
L 153.918052 252.642736 
L 154.162178 251.799593 
L 154.503953 249.655716 
L 154.959654 245.161665 
L 155.545554 236.950809 
L 156.34303 222.308298 
L 157.791507 190.620822 
L 159.109784 163.80382 
L 159.923534 151.383883 
L 160.55826 144.713418 
L 161.062786 141.4608 
L 161.437111 140.232203 
L 161.697512 139.961414 
L 161.876537 140.045786 
L 162.104387 140.462427 
L 162.413612 141.559501 
L 162.836763 143.986151 
L 163.390113 148.587932 
L 164.138764 156.861612 
L 165.391941 173.639412 
L 166.921793 193.328908 
L 167.751819 201.329616 
L 168.402819 205.688422 
L 168.92362 207.867361 
L 169.330495 208.763534 
L 169.639721 208.988456 
L 169.883846 208.900551 
L 170.160521 208.532769 
L 170.534847 207.613908 
L 171.039372 205.695577 
L 171.706648 202.190292 
L 172.748249 195.344557 
L 174.652427 182.810028 
L 175.482453 178.845213 
L 176.133453 176.708765 
L 176.670529 175.620131 
L 177.109954 175.166466 
L 177.48428 175.06797 
L 177.858605 175.209457 
L 178.298031 175.643837 
L 178.867657 176.55905 
L 179.681407 178.339555 
L 182.236585 184.223417 
L 183.001511 185.320229 
L 183.668787 185.910189 
L 184.287238 186.170825 
L 184.921964 186.19859 
L 185.68689 185.999292 
L 187.102816 185.34311 
L 188.453643 184.82631 
L 189.576619 184.642342 
L 193.205948 184.275349 
L 194.50795 183.706248 
L 196.021527 183.085607 
L 196.737627 183.030058 
L 197.339803 183.200385 
L 197.925704 183.603677 
L 198.544154 184.311691 
L 199.260255 185.49412 
L 200.171656 187.47228 
L 202.726834 193.300534 
L 203.29646 193.968931 
L 203.719611 194.162787 
L 204.077661 194.090697 
L 204.435711 193.779486 
L 204.858862 193.080798 
L 205.347112 191.808447 
L 205.933013 189.618022 
L 206.665389 185.931459 
L 207.658165 179.640598 
L 209.952943 164.675838 
L 210.620219 161.858183 
L 211.108469 160.632723 
L 211.450245 160.268031 
L 211.69437 160.278382 
L 211.938495 160.526279 
L 212.24772 161.194187 
L 212.638321 162.619837 
L 213.126572 165.327169 
L 213.728747 170.047361 
L 214.477398 177.82682 
L 215.535274 191.41258 
L 217.602202 218.24042 
L 218.334578 224.8314 
L 218.871653 227.912743 
L 219.262254 229.061075 
L 219.506379 229.272511 
L 219.685404 229.169501 
L 219.913254 228.714516 
L 220.22248 227.505424 
L 220.629355 224.863504 
L 221.133881 219.940504 
L 221.752332 211.541797 
L 222.549808 197.400136 
L 223.786709 170.83472 
L 225.397936 137.148925 
L 226.179137 125.18082 
L 226.748762 119.401966 
L 227.171913 117.003008 
L 227.464863 116.365929 
L 227.627613 116.388105 
L 227.806639 116.729054 
L 228.067039 117.824604 
L 228.408814 120.349667 
L 228.84824 125.400748 
L 229.40159 134.550436 
L 230.101416 150.151244 
L 231.045367 176.678241 
L 233.747021 255.727231 
L 234.446846 268.709683 
L 234.967647 274.737774 
L 235.341972 276.931321 
L 235.569823 277.344562 
L 235.700023 277.260247 
L 235.879048 276.759492 
L 236.139448 275.230278 
L 236.497499 271.576178 
L 236.953199 264.365516 
L 237.522825 251.515536 
L 238.255201 229.466439 
L 239.280527 191.060533 
L 241.55903 103.933632 
L 242.307681 84.153603 
L 242.877306 74.27129 
L 243.300457 70.213115 
L 243.577132 69.162729 
L 243.707332 69.117713 
L 243.723607 69.132472 
L 243.870082 69.469972 
L 244.097933 70.729418 
L 244.407158 73.86865 
L 244.814033 80.477945 
L 245.334834 92.892247 
L 246.00211 114.696899 
L 246.880961 151.459046 
L 250.070865 292.473915 
L 250.721865 308.844664 
L 251.210116 316.221093 
L 251.551891 318.690305 
L 251.763467 319.071714 
L 251.877392 318.90958 
L 252.056417 318.132976 
L 252.316817 315.86517 
L 252.674868 310.563059 
L 253.146843 299.817646 
L 253.732744 280.930168 
L 254.49767 248.365654 
L 255.636921 188.932374 
L 257.508548 91.74567 
L 258.306024 61.515745 
L 258.9082 46.053073 
L 259.3639 39.168521 
L 259.689401 36.941642 
L 259.852151 36.687581 
L 259.868426 36.693886 
L 259.982351 36.899725 
L 260.161376 37.795077 
L 260.438052 40.549231 
L 260.812377 46.888754 
L 261.284353 59.015296 
L 261.886528 80.662451 
L 262.684004 118.23628 
L 263.937181 189.632635 
L 265.548408 278.641825 
L 266.362159 311.981781 
L 266.980609 329.146653 
L 267.452585 336.820048 
L 267.778085 339.222951 
L 267.95711 339.520055 
L 267.973385 339.510853 
L 268.087311 339.277367 
L 268.282611 338.189602 
L 268.559286 335.171048 
L 268.933612 328.378757 
L 269.421862 315.033048 
L 270.040313 291.47691 
L 270.854064 251.219892 
L 272.253715 168.653486 
L 273.653367 90.880885 
L 274.467118 57.228064 
L 275.085569 40.003875 
L 275.541269 32.536578 
L 275.86677 30.050329 
L 276.045795 29.709731 
L 276.06207 29.714996 
L 276.175995 29.920817 
L 276.35502 30.840344 
L 276.631696 33.683462 
L 277.006021 40.22408 
L 277.494272 53.204218 
L 278.112722 76.217117 
L 278.926473 115.605526 
L 280.326125 196.36092 
L 281.725777 272.34096 
L 282.539527 305.233782 
L 283.157978 322.137793 
L 283.629954 329.737456 
L 283.971729 332.246197 
L 284.150754 332.544525 
L 284.167029 332.537003 
L 284.280955 332.323002 
L 284.476255 331.301728 
L 284.75293 328.455021 
L 285.127255 322.054895 
L 285.615506 309.524197 
L 286.250232 286.866752 
L 287.096533 247.747678 
L 288.821685 154.314328 
L 289.960936 99.557492 
L 290.725862 72.436919 
L 291.311763 58.552081 
L 291.767463 52.299139 
L 292.092964 50.348848 
L 292.255714 50.164334 
L 292.271989 50.174803 
L 292.402189 50.447164 
L 292.613764 51.600477 
L 292.906715 54.627612 
L 293.31359 61.497214 
L 293.834391 74.521274 
L 294.501666 97.287288 
L 295.429343 137.404629 
L 298.196096 262.32968 
L 298.928472 283.624575 
L 299.498097 294.357503 
L 299.921248 298.78308 
L 300.214198 300.041263 
L 300.360673 300.117193 
L 300.376948 300.102986 
L 300.523423 299.772461 
L 300.751274 298.540035 
L 301.076774 295.296288 
L 301.499925 288.583905 
L 302.053275 275.898049 
L 302.769376 253.920306 
L 303.827252 213.718461 
L 305.92673 133.142869 
L 306.724206 111.18862 
L 307.342656 99.570739 
L 307.830907 94.078585 
L 308.188957 92.171388 
L 308.400533 91.885991 
L 308.530733 92.017745 
L 308.726033 92.648513 
L 309.002708 94.413445 
L 309.393309 98.576136 
L 309.897834 106.639746 
L 310.548835 120.927753 
L 311.460236 146.374267 
L 314.259539 228.08715 
L 314.991915 241.804335 
L 315.561541 248.793148 
L 316.000967 251.85855 
L 316.310192 252.795176 
L 316.505492 252.874327 
L 316.668242 252.642736 
L 316.912368 251.799593 
L 317.254143 249.655716 
L 317.709843 245.161665 
L 318.295744 236.950809 
L 319.09322 222.308298 
L 320.541697 190.620822 
L 321.859973 163.80382 
L 322.673724 151.383883 
L 323.30845 144.713418 
L 323.812976 141.4608 
L 324.187301 140.232203 
L 324.447701 139.961414 
L 324.626727 140.045786 
L 324.854577 140.462427 
L 325.163802 141.559501 
L 325.586953 143.986151 
L 326.140303 148.587932 
L 326.888954 156.861612 
L 328.142131 173.639412 
L 329.671982 193.328908 
L 330.502008 201.329616 
L 331.153009 205.688422 
L 331.67381 207.867361 
L 332.080685 208.763534 
L 332.389911 208.988456 
L 332.634036 208.900551 
L 332.910711 208.532769 
L 333.285037 207.613908 
L 333.789562 205.695577 
L 334.456838 202.190292 
L 335.498439 195.344557 
L 337.402616 182.810028 
L 338.232642 178.845213 
L 338.883643 176.708765 
L 339.420719 175.620131 
L 339.860144 175.166466 
L 340.23447 175.06797 
L 340.608795 175.209457 
L 341.048221 175.643837 
L 341.617846 176.55905 
L 342.431597 178.339555 
L 344.986775 184.223417 
L 345.751701 185.320229 
L 346.418977 185.910189 
L 347.037428 186.170825 
L 347.672153 186.19859 
L 348.437079 185.999292 
L 349.853006 185.34311 
L 351.203833 184.82631 
L 352.326809 184.642342 
L 355.956138 184.275349 
L 357.25814 183.706248 
L 358.771716 183.085607 
L 359.487817 183.030058 
L 360.089993 183.200385 
L 360.675894 183.603677 
L 361.294344 184.311691 
L 362.010445 185.49412 
L 362.921846 187.47228 
L 365.477024 193.300534 
L 366.04665 193.968931 
L 366.4698 194.162787 
L 366.827851 194.090697 
L 367.185901 193.779486 
L 367.609052 193.080798 
L 368.097302 191.808447 
L 368.683203 189.618022 
L 369.415579 185.931459 
L 370.408355 179.640598 
L 372.703133 164.675838 
L 373.370408 161.858183 
L 373.858659 160.632723 
L 374.200434 160.268031 
L 374.44456 160.278382 
L 374.688685 160.526279 
L 374.99791 161.194187 
L 375.388511 162.619837 
L 375.876761 165.327169 
L 376.478937 170.047361 
L 377.227588 177.82682 
L 378.285464 191.41258 
L 380.352392 218.24042 
L 381.084767 224.8314 
L 381.621843 227.912743 
L 382.012444 229.061075 
L 382.256569 229.272511 
L 382.435594 229.169501 
L 382.663444 228.714516 
L 382.97267 227.505424 
L 383.379545 224.863504 
L 383.884071 219.940504 
L 384.502521 211.541797 
L 385.299997 197.400136 
L 386.536899 170.83472 
L 388.148126 137.148925 
L 388.929327 125.18082 
L 389.498952 119.401966 
L 389.922103 117.003008 
L 390.215053 116.365929 
L 390.377803 116.388105 
L 390.556828 116.729054 
L 390.817229 117.824604 
L 391.159004 120.349667 
L 391.59843 125.400748 
L 392.15178 134.550436 
L 392.851606 150.151244 
L 393.795557 176.678241 
L 394.055958 184.574043 
L 394.055958 184.574043 
" style="fill:none;stroke:#2ca02c;stroke-linecap:square;stroke-width:1.5;"/>
   </g>
   <g id="patch_3">
    <path d="M 52.160938 355.167219 
L 52.160938 10.999219 
" style="fill:none;stroke:#000000;stroke-linecap:square;stroke-linejoin:miter;stroke-width:0.8;"/>
   </g>
   <g id="patch_4">
    <path d="M 410.336673 355.167219 
L 410.336673 10.999219 
" style="fill:none;stroke:#000000;stroke-linecap:square;stroke-linejoin:miter;stroke-width:0.8;"/>
   </g>
   <g id="patch_5">
    <path d="M 52.160938 355.167219 
L 410.336673 355.167219 
" style="fill:none;stroke:#000000;stroke-linecap:square;stroke-linejoin:miter;stroke-width:0.8;"/>
   </g>
   <g id="patch_6">
    <path d="M 52.160938 10.999219 
L 410.336673 10.999219 
" style="fill:none;stroke:#000000;stroke-linecap:square;stroke-linejoin:miter;stroke-width:0.8;"/>
   </g>
   <g id="text_17">
    <!-- output with a sine control voltage, biased for am (Vin_b is scaled). -->
    <g transform="translate(32.221305 418.000819)scale(0.12 -0.12)">
     <defs>
      <path d="M 30.609375 48.390625 
Q 23.390625 48.390625 19.1875 42.75 
Q 14.984375 37.109375 14.984375 27.296875 
Q 14.984375 17.484375 19.15625 11.84375 
Q 23.34375 6.203125 30.609375 6.203125 
Q 37.796875 6.203125 41.984375 11.859375 
Q 46.1875 17.53125 46.1875 27.296875 
Q 46.1875 37.015625 41.984375 42.703125 
Q 37.796875 48.390625 30.609375 48.390625 
z
M 30.609375 56 
Q 42.328125 56 49.015625 48.375 
Q 55.71875 40.765625 55.71875 27.296875 
Q 55.71875 13.875 49.015625 6.21875 
Q 42.328125 -1.421875 30.609375 -1.421875 
Q 18.84375 -1.421875 12.171875 6.21875 
Q 5.515625 13.875 5.515625 27.296875 
Q 5.515625 40.765625 12.171875 48.375 
Q 18.84375 56 30.609375 56 
z
" id="DejaVuSans-111"/>
      <path d="M 8.5 21.578125 
L 8.5 54.6875 
L 17.484375 54.6875 
L 17.484375 21.921875 
Q 17.484375 14.15625 20.5 10.265625 
Q 23.53125 6.390625 29.59375 6.390625 
Q 36.859375 6.390625 41.078125 11.03125 
Q 45.3125 15.671875 45.3125 23.6875 
L 45.3125 54.6875 
L 54.296875 54.6875 
L 54.296875 0 
L 45.3125 0 
L 45.3125 8.40625 
Q 42.046875 3.421875 37.71875 1 
Q 33.40625 -1.421875 27.6875 -1.421875 
Q 18.265625 -1.421875 13.375 4.4375 
Q 8.5 10.296875 8.5 21.578125 
z
M 31.109375 56 
z
" id="DejaVuSans-117"/>
      <path d="M 18.109375 8.203125 
L 18.109375 -20.796875 
L 9.078125 -20.796875 
L 9.078125 54.6875 
L 18.109375 54.6875 
L 18.109375 46.390625 
Q 20.953125 51.265625 25.265625 53.625 
Q 29.59375 56 35.59375 56 
Q 45.5625 56 51.78125 48.09375 
Q 58.015625 40.1875 58.015625 27.296875 
Q 58.015625 14.40625 51.78125 6.484375 
Q 45.5625 -1.421875 35.59375 -1.421875 
Q 29.59375 -1.421875 25.265625 0.953125 
Q 20.953125 3.328125 18.109375 8.203125 
z
M 48.6875 27.296875 
Q 48.6875 37.203125 44.609375 42.84375 
Q 40.53125 48.484375 33.40625 48.484375 
Q 26.265625 48.484375 22.1875 42.84375 
Q 18.109375 37.203125 18.109375 27.296875 
Q 18.109375 17.390625 22.1875 11.75 
Q 26.265625 6.109375 33.40625 6.109375 
Q 40.53125 6.109375 44.609375 11.75 
Q 48.6875 17.390625 48.6875 27.296875 
z
" id="DejaVuSans-112"/>
      <path d="M 4.203125 54.6875 
L 13.1875 54.6875 
L 24.421875 12.015625 
L 35.59375 54.6875 
L 46.1875 54.6875 
L 57.421875 12.015625 
L 68.609375 54.6875 
L 77.59375 54.6875 
L 63.28125 0 
L 52.6875 0 
L 40.921875 44.828125 
L 29.109375 0 
L 18.5 0 
z
" id="DejaVuSans-119"/>
      <path d="M 9.421875 54.6875 
L 18.40625 54.6875 
L 18.40625 0 
L 9.421875 0 
z
M 9.421875 75.984375 
L 18.40625 75.984375 
L 18.40625 64.59375 
L 9.421875 64.59375 
z
" id="DejaVuSans-105"/>
      <path d="M 54.890625 33.015625 
L 54.890625 0 
L 45.90625 0 
L 45.90625 32.71875 
Q 45.90625 40.484375 42.875 44.328125 
Q 39.84375 48.1875 33.796875 48.1875 
Q 26.515625 48.1875 22.3125 43.546875 
Q 18.109375 38.921875 18.109375 30.90625 
L 18.109375 0 
L 9.078125 0 
L 9.078125 75.984375 
L 18.109375 75.984375 
L 18.109375 46.1875 
Q 21.34375 51.125 25.703125 53.5625 
Q 30.078125 56 35.796875 56 
Q 45.21875 56 50.046875 50.171875 
Q 54.890625 44.34375 54.890625 33.015625 
z
" id="DejaVuSans-104"/>
      <path d="M 34.28125 27.484375 
Q 23.390625 27.484375 19.1875 25 
Q 14.984375 22.515625 14.984375 16.5 
Q 14.984375 11.71875 18.140625 8.90625 
Q 21.296875 6.109375 26.703125 6.109375 
Q 34.1875 6.109375 38.703125 11.40625 
Q 43.21875 16.703125 43.21875 25.484375 
L 43.21875 27.484375 
z
M 52.203125 31.203125 
L 52.203125 0 
L 43.21875 0 
L 43.21875 8.296875 
Q 40.140625 3.328125 35.546875 0.953125 
Q 30.953125 -1.421875 24.3125 -1.421875 
Q 15.921875 -1.421875 10.953125 3.296875 
Q 6 8.015625 6 15.921875 
Q 6 25.140625 12.171875 29.828125 
Q 18.359375 34.515625 30.609375 34.515625 
L 43.21875 34.515625 
L 43.21875 35.40625 
Q 43.21875 41.609375 39.140625 45 
Q 35.0625 48.390625 27.6875 48.390625 
Q 23 48.390625 18.546875 47.265625 
Q 14.109375 46.140625 10.015625 43.890625 
L 10.015625 52.203125 
Q 14.9375 54.109375 19.578125 55.046875 
Q 24.21875 56 28.609375 56 
Q 40.484375 56 46.34375 49.84375 
Q 52.203125 43.703125 52.203125 31.203125 
z
" id="DejaVuSans-97"/>
      <path d="M 54.890625 33.015625 
L 54.890625 0 
L 45.90625 0 
L 45.90625 32.71875 
Q 45.90625 40.484375 42.875 44.328125 
Q 39.84375 48.1875 33.796875 48.1875 
Q 26.515625 48.1875 22.3125 43.546875 
Q 18.109375 38.921875 18.109375 30.90625 
L 18.109375 0 
L 9.078125 0 
L 9.078125 54.6875 
L 18.109375 54.6875 
L 18.109375 46.1875 
Q 21.34375 51.125 25.703125 53.5625 
Q 30.078125 56 35.796875 56 
Q 45.21875 56 50.046875 50.171875 
Q 54.890625 44.34375 54.890625 33.015625 
z
" id="DejaVuSans-110"/>
      <path d="M 56.203125 29.59375 
L 56.203125 25.203125 
L 14.890625 25.203125 
Q 15.484375 15.921875 20.484375 11.0625 
Q 25.484375 6.203125 34.421875 6.203125 
Q 39.59375 6.203125 44.453125 7.46875 
Q 49.3125 8.734375 54.109375 11.28125 
L 54.109375 2.78125 
Q 49.265625 0.734375 44.1875 -0.34375 
Q 39.109375 -1.421875 33.890625 -1.421875 
Q 20.796875 -1.421875 13.15625 6.1875 
Q 5.515625 13.8125 5.515625 26.8125 
Q 5.515625 40.234375 12.765625 48.109375 
Q 20.015625 56 32.328125 56 
Q 43.359375 56 49.78125 48.890625 
Q 56.203125 41.796875 56.203125 29.59375 
z
M 47.21875 32.234375 
Q 47.125 39.59375 43.09375 43.984375 
Q 39.0625 48.390625 32.421875 48.390625 
Q 24.90625 48.390625 20.390625 44.140625 
Q 15.875 39.890625 15.1875 32.171875 
z
" id="DejaVuSans-101"/>
      <path d="M 48.78125 52.59375 
L 48.78125 44.1875 
Q 44.96875 46.296875 41.140625 47.34375 
Q 37.3125 48.390625 33.40625 48.390625 
Q 24.65625 48.390625 19.8125 42.84375 
Q 14.984375 37.3125 14.984375 27.296875 
Q 14.984375 17.28125 19.8125 11.734375 
Q 24.65625 6.203125 33.40625 6.203125 
Q 37.3125 6.203125 41.140625 7.25 
Q 44.96875 8.296875 48.78125 10.40625 
L 48.78125 2.09375 
Q 45.015625 0.34375 40.984375 -0.53125 
Q 36.96875 -1.421875 32.421875 -1.421875 
Q 20.0625 -1.421875 12.78125 6.34375 
Q 5.515625 14.109375 5.515625 27.296875 
Q 5.515625 40.671875 12.859375 48.328125 
Q 20.21875 56 33.015625 56 
Q 37.15625 56 41.109375 55.140625 
Q 45.0625 54.296875 48.78125 52.59375 
z
" id="DejaVuSans-99"/>
      <path d="M 41.109375 46.296875 
Q 39.59375 47.171875 37.8125 47.578125 
Q 36.03125 48 33.890625 48 
Q 26.265625 48 22.1875 43.046875 
Q 18.109375 38.09375 18.109375 28.8125 
L 18.109375 0 
L 9.078125 0 
L 9.078125 54.6875 
L 18.109375 54.6875 
L 18.109375 46.1875 
Q 20.953125 51.171875 25.484375 53.578125 
Q 30.03125 56 36.53125 56 
Q 37.453125 56 38.578125 55.875 
Q 39.703125 55.765625 41.0625 55.515625 
z
" id="DejaVuSans-114"/>
      <path d="M 9.421875 75.984375 
L 18.40625 75.984375 
L 18.40625 0 
L 9.421875 0 
z
" id="DejaVuSans-108"/>
      <path d="M 2.984375 54.6875 
L 12.5 54.6875 
L 29.59375 8.796875 
L 46.6875 54.6875 
L 56.203125 54.6875 
L 35.6875 0 
L 23.484375 0 
z
" id="DejaVuSans-118"/>
      <path d="M 45.40625 27.984375 
Q 45.40625 37.75 41.375 43.109375 
Q 37.359375 48.484375 30.078125 48.484375 
Q 22.859375 48.484375 18.828125 43.109375 
Q 14.796875 37.75 14.796875 27.984375 
Q 14.796875 18.265625 18.828125 12.890625 
Q 22.859375 7.515625 30.078125 7.515625 
Q 37.359375 7.515625 41.375 12.890625 
Q 45.40625 18.265625 45.40625 27.984375 
z
M 54.390625 6.78125 
Q 54.390625 -7.171875 48.1875 -13.984375 
Q 42 -20.796875 29.203125 -20.796875 
Q 24.46875 -20.796875 20.265625 -20.09375 
Q 16.0625 -19.390625 12.109375 -17.921875 
L 12.109375 -9.1875 
Q 16.0625 -11.328125 19.921875 -12.34375 
Q 23.78125 -13.375 27.78125 -13.375 
Q 36.625 -13.375 41.015625 -8.765625 
Q 45.40625 -4.15625 45.40625 5.171875 
L 45.40625 9.625 
Q 42.625 4.78125 38.28125 2.390625 
Q 33.9375 0 27.875 0 
Q 17.828125 0 11.671875 7.65625 
Q 5.515625 15.328125 5.515625 27.984375 
Q 5.515625 40.671875 11.671875 48.328125 
Q 17.828125 56 27.875 56 
Q 33.9375 56 38.28125 53.609375 
Q 42.625 51.21875 45.40625 46.390625 
L 45.40625 54.6875 
L 54.390625 54.6875 
z
" id="DejaVuSans-103"/>
      <path d="M 11.71875 12.40625 
L 22.015625 12.40625 
L 22.015625 4 
L 14.015625 -11.625 
L 7.71875 -11.625 
L 11.71875 4 
z
" id="DejaVuSans-44"/>
      <path d="M 48.6875 27.296875 
Q 48.6875 37.203125 44.609375 42.84375 
Q 40.53125 48.484375 33.40625 48.484375 
Q 26.265625 48.484375 22.1875 42.84375 
Q 18.109375 37.203125 18.109375 27.296875 
Q 18.109375 17.390625 22.1875 11.75 
Q 26.265625 6.109375 33.40625 6.109375 
Q 40.53125 6.109375 44.609375 11.75 
Q 48.6875 17.390625 48.6875 27.296875 
z
M 18.109375 46.390625 
Q 20.953125 51.265625 25.265625 53.625 
Q 29.59375 56 35.59375 56 
Q 45.5625 56 51.78125 48.09375 
Q 58.015625 40.1875 58.015625 27.296875 
Q 58.015625 14.40625 51.78125 6.484375 
Q 45.5625 -1.421875 35.59375 -1.421875 
Q 29.59375 -1.421875 25.265625 0.953125 
Q 20.953125 3.328125 18.109375 8.203125 
L 18.109375 0 
L 9.078125 0 
L 9.078125 75.984375 
L 18.109375 75.984375 
z
" id="DejaVuSans-98"/>
      <path d="M 45.40625 46.390625 
L 45.40625 75.984375 
L 54.390625 75.984375 
L 54.390625 0 
L 45.40625 0 
L 45.40625 8.203125 
Q 42.578125 3.328125 38.25 0.953125 
Q 33.9375 -1.421875 27.875 -1.421875 
Q 17.96875 -1.421875 11.734375 6.484375 
Q 5.515625 14.40625 5.515625 27.296875 
Q 5.515625 40.1875 11.734375 48.09375 
Q 17.96875 56 27.875 56 
Q 33.9375 56 38.25 53.625 
Q 42.578125 51.265625 45.40625 46.390625 
z
M 14.796875 27.296875 
Q 14.796875 17.390625 18.875 11.75 
Q 22.953125 6.109375 30.078125 6.109375 
Q 37.203125 6.109375 41.296875 11.75 
Q 45.40625 17.390625 45.40625 27.296875 
Q 45.40625 37.203125 41.296875 42.84375 
Q 37.203125 48.484375 30.078125 48.484375 
Q 22.953125 48.484375 18.875 42.84375 
Q 14.796875 37.203125 14.796875 27.296875 
z
" id="DejaVuSans-100"/>
      <path d="M 37.109375 75.984375 
L 37.109375 68.5 
L 28.515625 68.5 
Q 23.6875 68.5 21.796875 66.546875 
Q 19.921875 64.59375 19.921875 59.515625 
L 19.921875 54.6875 
L 34.71875 54.6875 
L 34.71875 47.703125 
L 19.921875 47.703125 
L 19.921875 0 
L 10.890625 0 
L 10.890625 47.703125 
L 2.296875 47.703125 
L 2.296875 54.6875 
L 10.890625 54.6875 
L 10.890625 58.5 
Q 10.890625 67.625 15.140625 71.796875 
Q 19.390625 75.984375 28.609375 75.984375 
z
" id="DejaVuSans-102"/>
      <path d="M 52 44.1875 
Q 55.375 50.25 60.0625 53.125 
Q 64.75 56 71.09375 56 
Q 79.640625 56 84.28125 50.015625 
Q 88.921875 44.046875 88.921875 33.015625 
L 88.921875 0 
L 79.890625 0 
L 79.890625 32.71875 
Q 79.890625 40.578125 77.09375 44.375 
Q 74.3125 48.1875 68.609375 48.1875 
Q 61.625 48.1875 57.5625 43.546875 
Q 53.515625 38.921875 53.515625 30.90625 
L 53.515625 0 
L 44.484375 0 
L 44.484375 32.71875 
Q 44.484375 40.625 41.703125 44.40625 
Q 38.921875 48.1875 33.109375 48.1875 
Q 26.21875 48.1875 22.15625 43.53125 
Q 18.109375 38.875 18.109375 30.90625 
L 18.109375 0 
L 9.078125 0 
L 9.078125 54.6875 
L 18.109375 54.6875 
L 18.109375 46.1875 
Q 21.1875 51.21875 25.484375 53.609375 
Q 29.78125 56 35.6875 56 
Q 41.65625 56 45.828125 52.96875 
Q 50 49.953125 52 44.1875 
z
" id="DejaVuSans-109"/>
      <path d="M 31 75.875 
Q 24.46875 64.65625 21.28125 53.65625 
Q 18.109375 42.671875 18.109375 31.390625 
Q 18.109375 20.125 21.3125 9.0625 
Q 24.515625 -2 31 -13.1875 
L 23.1875 -13.1875 
Q 15.875 -1.703125 12.234375 9.375 
Q 8.59375 20.453125 8.59375 31.390625 
Q 8.59375 42.28125 12.203125 53.3125 
Q 15.828125 64.359375 23.1875 75.875 
z
" id="DejaVuSans-40"/>
      <path d="M 50.984375 -16.609375 
L 50.984375 -23.578125 
L -0.984375 -23.578125 
L -0.984375 -16.609375 
z
" id="DejaVuSans-95"/>
      <path d="M 8.015625 75.875 
L 15.828125 75.875 
Q 23.140625 64.359375 26.78125 53.3125 
Q 30.421875 42.28125 30.421875 31.390625 
Q 30.421875 20.453125 26.78125 9.375 
Q 23.140625 -1.703125 15.828125 -13.1875 
L 8.015625 -13.1875 
Q 14.5 -2 17.703125 9.0625 
Q 20.90625 20.125 20.90625 31.390625 
Q 20.90625 42.671875 17.703125 53.65625 
Q 14.5 64.65625 8.015625 75.875 
z
" id="DejaVuSans-41"/>
     </defs>
     <use xlink:href="#DejaVuSans-111"/>
     <use x="61.181641" xlink:href="#DejaVuSans-117"/>
     <use x="124.560547" xlink:href="#DejaVuSans-116"/>
     <use x="163.769531" xlink:href="#DejaVuSans-112"/>
     <use x="227.246094" xlink:href="#DejaVuSans-117"/>
     <use x="290.625" xlink:href="#DejaVuSans-116"/>
     <use x="329.833984" xlink:href="#DejaVuSans-32"/>
     <use x="361.621094" xlink:href="#DejaVuSans-119"/>
     <use x="443.408203" xlink:href="#DejaVuSans-105"/>
     <use x="471.191406" xlink:href="#DejaVuSans-116"/>
     <use x="510.400391" xlink:href="#DejaVuSans-104"/>
     <use x="573.779297" xlink:href="#DejaVuSans-32"/>
     <use x="605.566406" xlink:href="#DejaVuSans-97"/>
     <use x="666.845703" xlink:href="#DejaVuSans-32"/>
     <use x="698.632812" xlink:href="#DejaVuSans-115"/>
     <use x="750.732422" xlink:href="#DejaVuSans-105"/>
     <use x="778.515625" xlink:href="#DejaVuSans-110"/>
     <use x="841.894531" xlink:href="#DejaVuSans-101"/>
     <use x="903.417969" xlink:href="#DejaVuSans-32"/>
     <use x="935.205078" xlink:href="#DejaVuSans-99"/>
     <use x="990.185547" xlink:href="#DejaVuSans-111"/>
     <use x="1051.367188" xlink:href="#DejaVuSans-110"/>
     <use x="1114.746094" xlink:href="#DejaVuSans-116"/>
     <use x="1153.955078" xlink:href="#DejaVuSans-114"/>
     <use x="1192.818359" xlink:href="#DejaVuSans-111"/>
     <use x="1254" xlink:href="#DejaVuSans-108"/>
     <use x="1281.783203" xlink:href="#DejaVuSans-32"/>
     <use x="1313.570312" xlink:href="#DejaVuSans-118"/>
     <use x="1372.75" xlink:href="#DejaVuSans-111"/>
     <use x="1433.931641" xlink:href="#DejaVuSans-108"/>
     <use x="1461.714844" xlink:href="#DejaVuSans-116"/>
     <use x="1500.923828" xlink:href="#DejaVuSans-97"/>
     <use x="1562.203125" xlink:href="#DejaVuSans-103"/>
     <use x="1625.679688" xlink:href="#DejaVuSans-101"/>
     <use x="1687.203125" xlink:href="#DejaVuSans-44"/>
     <use x="1718.990234" xlink:href="#DejaVuSans-32"/>
     <use x="1750.777344" xlink:href="#DejaVuSans-98"/>
     <use x="1814.253906" xlink:href="#DejaVuSans-105"/>
     <use x="1842.037109" xlink:href="#DejaVuSans-97"/>
     <use x="1903.316406" xlink:href="#DejaVuSans-115"/>
     <use x="1955.416016" xlink:href="#DejaVuSans-101"/>
     <use x="2016.939453" xlink:href="#DejaVuSans-100"/>
     <use x="2080.416016" xlink:href="#DejaVuSans-32"/>
     <use x="2112.203125" xlink:href="#DejaVuSans-102"/>
     <use x="2147.408203" xlink:href="#DejaVuSans-111"/>
     <use x="2208.589844" xlink:href="#DejaVuSans-114"/>
     <use x="2249.703125" xlink:href="#DejaVuSans-32"/>
     <use x="2281.490234" xlink:href="#DejaVuSans-97"/>
     <use x="2342.769531" xlink:href="#DejaVuSans-109"/>
     <use x="2440.181641" xlink:href="#DejaVuSans-32"/>
     <use x="2471.96875" xlink:href="#DejaVuSans-40"/>
     <use x="2510.982422" xlink:href="#DejaVuSans-86"/>
     <use x="2577.140625" xlink:href="#DejaVuSans-105"/>
     <use x="2604.923828" xlink:href="#DejaVuSans-110"/>
     <use x="2668.302734" xlink:href="#DejaVuSans-95"/>
     <use x="2718.302734" xlink:href="#DejaVuSans-98"/>
     <use x="2781.779297" xlink:href="#DejaVuSans-32"/>
     <use x="2813.566406" xlink:href="#DejaVuSans-105"/>
     <use x="2841.349609" xlink:href="#DejaVuSans-115"/>
     <use x="2893.449219" xlink:href="#DejaVuSans-32"/>
     <use x="2925.236328" xlink:href="#DejaVuSans-115"/>
     <use x="2977.335938" xlink:href="#DejaVuSans-99"/>
     <use x="3032.316406" xlink:href="#DejaVuSans-97"/>
     <use x="3093.595703" xlink:href="#DejaVuSans-108"/>
     <use x="3121.378906" xlink:href="#DejaVuSans-101"/>
     <use x="3182.902344" xlink:href="#DejaVuSans-100"/>
     <use x="3246.378906" xlink:href="#DejaVuSans-41"/>
     <use x="3285.392578" xlink:href="#DejaVuSans-46"/>
    </g>
   </g>
   <g id="legend_1">
    <g id="patch_7">
     <path d="M 340.701526 79.832819 
L 435.565588 79.832819 
Q 437.565588 79.832819 437.565588 77.832819 
L 437.565588 34.798444 
Q 437.565588 32.798444 435.565588 32.798444 
L 340.701526 32.798444 
Q 338.701526 32.798444 338.701526 34.798444 
L 338.701526 77.832819 
Q 338.701526 79.832819 340.701526 79.832819 
z
" style="fill:#ffffff;opacity:0.8;stroke:#cccccc;stroke-linejoin:miter;"/>
    </g>
    <g id="line2d_32">
     <path d="M 342.701526 40.896881 
L 362.701526 40.896881 
" style="fill:none;stroke:#1f77b4;stroke-linecap:square;stroke-width:1.5;"/>
    </g>
    <g id="line2d_33"/>
    <g id="text_18">
     <!-- Vinput b  [V] -->
     <g transform="translate(370.701526 44.396881)scale(0.1 -0.1)">
      <use xlink:href="#DejaVuSans-86"/>
      <use x="66.158203" xlink:href="#DejaVuSans-105"/>
      <use x="93.941406" xlink:href="#DejaVuSans-110"/>
      <use x="157.320312" xlink:href="#DejaVuSans-112"/>
      <use x="220.796875" xlink:href="#DejaVuSans-117"/>
      <use x="284.175781" xlink:href="#DejaVuSans-116"/>
      <use x="323.384766" xlink:href="#DejaVuSans-32"/>
      <use x="355.171875" xlink:href="#DejaVuSans-98"/>
      <use x="418.648438" xlink:href="#DejaVuSans-32"/>
      <use x="450.435547" xlink:href="#DejaVuSans-32"/>
      <use x="482.222656" xlink:href="#DejaVuSans-91"/>
      <use x="521.236328" xlink:href="#DejaVuSans-86"/>
      <use x="589.644531" xlink:href="#DejaVuSans-93"/>
     </g>
    </g>
    <g id="line2d_34">
     <path d="M 342.701526 55.575006 
L 362.701526 55.575006 
" style="fill:none;stroke:#ff7f0e;stroke-linecap:square;stroke-width:1.5;"/>
    </g>
    <g id="line2d_35"/>
    <g id="text_19">
     <!-- Vinput a [V] -->
     <g transform="translate(370.701526 59.075006)scale(0.1 -0.1)">
      <use xlink:href="#DejaVuSans-86"/>
      <use x="66.158203" xlink:href="#DejaVuSans-105"/>
      <use x="93.941406" xlink:href="#DejaVuSans-110"/>
      <use x="157.320312" xlink:href="#DejaVuSans-112"/>
      <use x="220.796875" xlink:href="#DejaVuSans-117"/>
      <use x="284.175781" xlink:href="#DejaVuSans-116"/>
      <use x="323.384766" xlink:href="#DejaVuSans-32"/>
      <use x="355.171875" xlink:href="#DejaVuSans-97"/>
      <use x="416.451172" xlink:href="#DejaVuSans-32"/>
      <use x="448.238281" xlink:href="#DejaVuSans-91"/>
      <use x="487.251953" xlink:href="#DejaVuSans-86"/>
      <use x="555.660156" xlink:href="#DejaVuSans-93"/>
     </g>
    </g>
    <g id="line2d_36">
     <path d="M 342.701526 70.253131 
L 362.701526 70.253131 
" style="fill:none;stroke:#2ca02c;stroke-linecap:square;stroke-width:1.5;"/>
    </g>
    <g id="line2d_37"/>
    <g id="text_20">
     <!-- Vout [V] -->
     <g transform="translate(370.701526 73.753131)scale(0.1 -0.1)">
      <use xlink:href="#DejaVuSans-86"/>
      <use x="60.658203" xlink:href="#DejaVuSans-111"/>
      <use x="121.839844" xlink:href="#DejaVuSans-117"/>
      <use x="185.21875" xlink:href="#DejaVuSans-116"/>
      <use x="224.427734" xlink:href="#DejaVuSans-32"/>
      <use x="256.214844" xlink:href="#DejaVuSans-91"/>
      <use x="295.228516" xlink:href="#DejaVuSans-86"/>
      <use x="363.636719" xlink:href="#DejaVuSans-93"/>
     </g>
    </g>
   </g>
  </g>
  <g id="axes_2">
   <g id="patch_8">
    <path d="M 483.67932 355.167219 
L 841.855055 355.167219 
L 841.855055 10.999219 
L 483.67932 10.999219 
z
" style="fill:#ffffff;"/>
   </g>
   <g id="matplotlib.axis_3">
    <g id="xtick_10">
     <g id="line2d_38">
      <g>
       <use style="stroke:#000000;stroke-width:0.8;" x="483.67932" xlink:href="#m95f4cf9383" y="355.167219"/>
      </g>
     </g>
     <g id="text_21">
      <!-- 0.0 -->
      <g transform="translate(475.727757 369.765656)scale(0.1 -0.1)">
       <use xlink:href="#DejaVuSans-48"/>
       <use x="63.623047" xlink:href="#DejaVuSans-46"/>
       <use x="95.410156" xlink:href="#DejaVuSans-48"/>
      </g>
     </g>
    </g>
    <g id="xtick_11">
     <g id="line2d_39">
      <g>
       <use style="stroke:#000000;stroke-width:0.8;" x="555.314467" xlink:href="#m95f4cf9383" y="355.167219"/>
      </g>
     </g>
     <g id="text_22">
      <!-- 0.2 -->
      <g transform="translate(547.362904 369.765656)scale(0.1 -0.1)">
       <use xlink:href="#DejaVuSans-48"/>
       <use x="63.623047" xlink:href="#DejaVuSans-46"/>
       <use x="95.410156" xlink:href="#DejaVuSans-50"/>
      </g>
     </g>
    </g>
    <g id="xtick_12">
     <g id="line2d_40">
      <g>
       <use style="stroke:#000000;stroke-width:0.8;" x="626.949614" xlink:href="#m95f4cf9383" y="355.167219"/>
      </g>
     </g>
     <g id="text_23">
      <!-- 0.4 -->
      <g transform="translate(618.998051 369.765656)scale(0.1 -0.1)">
       <defs>
        <path d="M 37.796875 64.3125 
L 12.890625 25.390625 
L 37.796875 25.390625 
z
M 35.203125 72.90625 
L 47.609375 72.90625 
L 47.609375 25.390625 
L 58.015625 25.390625 
L 58.015625 17.1875 
L 47.609375 17.1875 
L 47.609375 0 
L 37.796875 0 
L 37.796875 17.1875 
L 4.890625 17.1875 
L 4.890625 26.703125 
z
" id="DejaVuSans-52"/>
       </defs>
       <use xlink:href="#DejaVuSans-48"/>
       <use x="63.623047" xlink:href="#DejaVuSans-46"/>
       <use x="95.410156" xlink:href="#DejaVuSans-52"/>
      </g>
     </g>
    </g>
    <g id="xtick_13">
     <g id="line2d_41">
      <g>
       <use style="stroke:#000000;stroke-width:0.8;" x="698.584761" xlink:href="#m95f4cf9383" y="355.167219"/>
      </g>
     </g>
     <g id="text_24">
      <!-- 0.6 -->
      <g transform="translate(690.633199 369.765656)scale(0.1 -0.1)">
       <defs>
        <path d="M 33.015625 40.375 
Q 26.375 40.375 22.484375 35.828125 
Q 18.609375 31.296875 18.609375 23.390625 
Q 18.609375 15.53125 22.484375 10.953125 
Q 26.375 6.390625 33.015625 6.390625 
Q 39.65625 6.390625 43.53125 10.953125 
Q 47.40625 15.53125 47.40625 23.390625 
Q 47.40625 31.296875 43.53125 35.828125 
Q 39.65625 40.375 33.015625 40.375 
z
M 52.59375 71.296875 
L 52.59375 62.3125 
Q 48.875 64.0625 45.09375 64.984375 
Q 41.3125 65.921875 37.59375 65.921875 
Q 27.828125 65.921875 22.671875 59.328125 
Q 17.53125 52.734375 16.796875 39.40625 
Q 19.671875 43.65625 24.015625 45.921875 
Q 28.375 48.1875 33.59375 48.1875 
Q 44.578125 48.1875 50.953125 41.515625 
Q 57.328125 34.859375 57.328125 23.390625 
Q 57.328125 12.15625 50.6875 5.359375 
Q 44.046875 -1.421875 33.015625 -1.421875 
Q 20.359375 -1.421875 13.671875 8.265625 
Q 6.984375 17.96875 6.984375 36.375 
Q 6.984375 53.65625 15.1875 63.9375 
Q 23.390625 74.21875 37.203125 74.21875 
Q 40.921875 74.21875 44.703125 73.484375 
Q 48.484375 72.75 52.59375 71.296875 
z
" id="DejaVuSans-54"/>
       </defs>
       <use xlink:href="#DejaVuSans-48"/>
       <use x="63.623047" xlink:href="#DejaVuSans-46"/>
       <use x="95.410156" xlink:href="#DejaVuSans-54"/>
      </g>
     </g>
    </g>
    <g id="xtick_14">
     <g id="line2d_42">
      <g>
       <use style="stroke:#000000;stroke-width:0.8;" x="770.219908" xlink:href="#m95f4cf9383" y="355.167219"/>
      </g>
     </g>
     <g id="text_25">
      <!-- 0.8 -->
      <g transform="translate(762.268346 369.765656)scale(0.1 -0.1)">
       <defs>
        <path d="M 31.78125 34.625 
Q 24.75 34.625 20.71875 30.859375 
Q 16.703125 27.09375 16.703125 20.515625 
Q 16.703125 13.921875 20.71875 10.15625 
Q 24.75 6.390625 31.78125 6.390625 
Q 38.8125 6.390625 42.859375 10.171875 
Q 46.921875 13.96875 46.921875 20.515625 
Q 46.921875 27.09375 42.890625 30.859375 
Q 38.875 34.625 31.78125 34.625 
z
M 21.921875 38.8125 
Q 15.578125 40.375 12.03125 44.71875 
Q 8.5 49.078125 8.5 55.328125 
Q 8.5 64.0625 14.71875 69.140625 
Q 20.953125 74.21875 31.78125 74.21875 
Q 42.671875 74.21875 48.875 69.140625 
Q 55.078125 64.0625 55.078125 55.328125 
Q 55.078125 49.078125 51.53125 44.71875 
Q 48 40.375 41.703125 38.8125 
Q 48.828125 37.15625 52.796875 32.3125 
Q 56.78125 27.484375 56.78125 20.515625 
Q 56.78125 9.90625 50.3125 4.234375 
Q 43.84375 -1.421875 31.78125 -1.421875 
Q 19.734375 -1.421875 13.25 4.234375 
Q 6.78125 9.90625 6.78125 20.515625 
Q 6.78125 27.484375 10.78125 32.3125 
Q 14.796875 37.15625 21.921875 38.8125 
z
M 18.3125 54.390625 
Q 18.3125 48.734375 21.84375 45.5625 
Q 25.390625 42.390625 31.78125 42.390625 
Q 38.140625 42.390625 41.71875 45.5625 
Q 45.3125 48.734375 45.3125 54.390625 
Q 45.3125 60.0625 41.71875 63.234375 
Q 38.140625 66.40625 31.78125 66.40625 
Q 25.390625 66.40625 21.84375 63.234375 
Q 18.3125 60.0625 18.3125 54.390625 
z
" id="DejaVuSans-56"/>
       </defs>
       <use xlink:href="#DejaVuSans-48"/>
       <use x="63.623047" xlink:href="#DejaVuSans-46"/>
       <use x="95.410156" xlink:href="#DejaVuSans-56"/>
      </g>
     </g>
    </g>
    <g id="xtick_15">
     <g id="line2d_43">
      <g>
       <use style="stroke:#000000;stroke-width:0.8;" x="841.855055" xlink:href="#m95f4cf9383" y="355.167219"/>
      </g>
     </g>
     <g id="text_26">
      <!-- 1.0 -->
      <g transform="translate(833.903493 369.765656)scale(0.1 -0.1)">
       <use xlink:href="#DejaVuSans-49"/>
       <use x="63.623047" xlink:href="#DejaVuSans-46"/>
       <use x="95.410156" xlink:href="#DejaVuSans-48"/>
      </g>
     </g>
    </g>
   </g>
   <g id="matplotlib.axis_4">
    <g id="ytick_6">
     <g id="line2d_44">
      <g>
       <use style="stroke:#000000;stroke-width:0.8;" x="483.67932" xlink:href="#m145f938a6d" y="355.167219"/>
      </g>
     </g>
     <g id="text_27">
      <!-- 0.0 -->
      <g transform="translate(460.776195 358.966437)scale(0.1 -0.1)">
       <use xlink:href="#DejaVuSans-48"/>
       <use x="63.623047" xlink:href="#DejaVuSans-46"/>
       <use x="95.410156" xlink:href="#DejaVuSans-48"/>
      </g>
     </g>
    </g>
    <g id="ytick_7">
     <g id="line2d_45">
      <g>
       <use style="stroke:#000000;stroke-width:0.8;" x="483.67932" xlink:href="#m145f938a6d" y="286.333619"/>
      </g>
     </g>
     <g id="text_28">
      <!-- 0.2 -->
      <g transform="translate(460.776195 290.132837)scale(0.1 -0.1)">
       <use xlink:href="#DejaVuSans-48"/>
       <use x="63.623047" xlink:href="#DejaVuSans-46"/>
       <use x="95.410156" xlink:href="#DejaVuSans-50"/>
      </g>
     </g>
    </g>
    <g id="ytick_8">
     <g id="line2d_46">
      <g>
       <use style="stroke:#000000;stroke-width:0.8;" x="483.67932" xlink:href="#m145f938a6d" y="217.500019"/>
      </g>
     </g>
     <g id="text_29">
      <!-- 0.4 -->
      <g transform="translate(460.776195 221.299237)scale(0.1 -0.1)">
       <use xlink:href="#DejaVuSans-48"/>
       <use x="63.623047" xlink:href="#DejaVuSans-46"/>
       <use x="95.410156" xlink:href="#DejaVuSans-52"/>
      </g>
     </g>
    </g>
    <g id="ytick_9">
     <g id="line2d_47">
      <g>
       <use style="stroke:#000000;stroke-width:0.8;" x="483.67932" xlink:href="#m145f938a6d" y="148.666419"/>
      </g>
     </g>
     <g id="text_30">
      <!-- 0.6 -->
      <g transform="translate(460.776195 152.465638)scale(0.1 -0.1)">
       <use xlink:href="#DejaVuSans-48"/>
       <use x="63.623047" xlink:href="#DejaVuSans-46"/>
       <use x="95.410156" xlink:href="#DejaVuSans-54"/>
      </g>
     </g>
    </g>
    <g id="ytick_10">
     <g id="line2d_48">
      <g>
       <use style="stroke:#000000;stroke-width:0.8;" x="483.67932" xlink:href="#m145f938a6d" y="79.832819"/>
      </g>
     </g>
     <g id="text_31">
      <!-- 0.8 -->
      <g transform="translate(460.776195 83.632038)scale(0.1 -0.1)">
       <use xlink:href="#DejaVuSans-48"/>
       <use x="63.623047" xlink:href="#DejaVuSans-46"/>
       <use x="95.410156" xlink:href="#DejaVuSans-56"/>
      </g>
     </g>
    </g>
    <g id="ytick_11">
     <g id="line2d_49">
      <g>
       <use style="stroke:#000000;stroke-width:0.8;" x="483.67932" xlink:href="#m145f938a6d" y="10.999219"/>
      </g>
     </g>
     <g id="text_32">
      <!-- 1.0 -->
      <g transform="translate(460.776195 14.798438)scale(0.1 -0.1)">
       <use xlink:href="#DejaVuSans-49"/>
       <use x="63.623047" xlink:href="#DejaVuSans-46"/>
       <use x="95.410156" xlink:href="#DejaVuSans-48"/>
      </g>
     </g>
    </g>
   </g>
   <g id="patch_9">
    <path d="M 483.67932 355.167219 
L 483.67932 10.999219 
" style="fill:none;stroke:#000000;stroke-linecap:square;stroke-linejoin:miter;stroke-width:0.8;"/>
   </g>
   <g id="patch_10">
    <path d="M 841.855055 355.167219 
L 841.855055 10.999219 
" style="fill:none;stroke:#000000;stroke-linecap:square;stroke-linejoin:miter;stroke-width:0.8;"/>
   </g>
   <g id="patch_11">
    <path d="M 483.67932 355.167219 
L 841.855055 355.167219 
" style="fill:none;stroke:#000000;stroke-linecap:square;stroke-linejoin:miter;stroke-width:0.8;"/>
   </g>
   <g id="patch_12">
    <path d="M 483.67932 10.999219 
L 841.855055 10.999219 
" style="fill:none;stroke:#000000;stroke-linecap:square;stroke-linejoin:miter;stroke-width:0.8;"/>
   </g>
  </g>
  <g id="axes_3">
   <g id="patch_13">
    <path d="M 915.197702 355.167219 
L 1273.373438 355.167219 
L 1273.373438 10.999219 
L 915.197702 10.999219 
z
" style="fill:#ffffff;"/>
   </g>
   <g id="matplotlib.axis_5">
    <g id="xtick_16">
     <g id="line2d_50">
      <g>
       <use style="stroke:#000000;stroke-width:0.8;" x="915.197702" xlink:href="#m95f4cf9383" y="355.167219"/>
      </g>
     </g>
     <g id="text_33">
      <!-- 0.0 -->
      <g transform="translate(907.24614 369.765656)scale(0.1 -0.1)">
       <use xlink:href="#DejaVuSans-48"/>
       <use x="63.623047" xlink:href="#DejaVuSans-46"/>
       <use x="95.410156" xlink:href="#DejaVuSans-48"/>
      </g>
     </g>
    </g>
    <g id="xtick_17">
     <g id="line2d_51">
      <g>
       <use style="stroke:#000000;stroke-width:0.8;" x="986.832849" xlink:href="#m95f4cf9383" y="355.167219"/>
      </g>
     </g>
     <g id="text_34">
      <!-- 0.2 -->
      <g transform="translate(978.881287 369.765656)scale(0.1 -0.1)">
       <use xlink:href="#DejaVuSans-48"/>
       <use x="63.623047" xlink:href="#DejaVuSans-46"/>
       <use x="95.410156" xlink:href="#DejaVuSans-50"/>
      </g>
     </g>
    </g>
    <g id="xtick_18">
     <g id="line2d_52">
      <g>
       <use style="stroke:#000000;stroke-width:0.8;" x="1058.467996" xlink:href="#m95f4cf9383" y="355.167219"/>
      </g>
     </g>
     <g id="text_35">
      <!-- 0.4 -->
      <g transform="translate(1050.516434 369.765656)scale(0.1 -0.1)">
       <use xlink:href="#DejaVuSans-48"/>
       <use x="63.623047" xlink:href="#DejaVuSans-46"/>
       <use x="95.410156" xlink:href="#DejaVuSans-52"/>
      </g>
     </g>
    </g>
    <g id="xtick_19">
     <g id="line2d_53">
      <g>
       <use style="stroke:#000000;stroke-width:0.8;" x="1130.103143" xlink:href="#m95f4cf9383" y="355.167219"/>
      </g>
     </g>
     <g id="text_36">
      <!-- 0.6 -->
      <g transform="translate(1122.151581 369.765656)scale(0.1 -0.1)">
       <use xlink:href="#DejaVuSans-48"/>
       <use x="63.623047" xlink:href="#DejaVuSans-46"/>
       <use x="95.410156" xlink:href="#DejaVuSans-54"/>
      </g>
     </g>
    </g>
    <g id="xtick_20">
     <g id="line2d_54">
      <g>
       <use style="stroke:#000000;stroke-width:0.8;" x="1201.73829" xlink:href="#m95f4cf9383" y="355.167219"/>
      </g>
     </g>
     <g id="text_37">
      <!-- 0.8 -->
      <g transform="translate(1193.786728 369.765656)scale(0.1 -0.1)">
       <use xlink:href="#DejaVuSans-48"/>
       <use x="63.623047" xlink:href="#DejaVuSans-46"/>
       <use x="95.410156" xlink:href="#DejaVuSans-56"/>
      </g>
     </g>
    </g>
    <g id="xtick_21">
     <g id="line2d_55">
      <g>
       <use style="stroke:#000000;stroke-width:0.8;" x="1273.373438" xlink:href="#m95f4cf9383" y="355.167219"/>
      </g>
     </g>
     <g id="text_38">
      <!-- 1.0 -->
      <g transform="translate(1265.421875 369.765656)scale(0.1 -0.1)">
       <use xlink:href="#DejaVuSans-49"/>
       <use x="63.623047" xlink:href="#DejaVuSans-46"/>
       <use x="95.410156" xlink:href="#DejaVuSans-48"/>
      </g>
     </g>
    </g>
   </g>
   <g id="matplotlib.axis_6">
    <g id="ytick_12">
     <g id="line2d_56">
      <g>
       <use style="stroke:#000000;stroke-width:0.8;" x="915.197702" xlink:href="#m145f938a6d" y="355.167219"/>
      </g>
     </g>
     <g id="text_39">
      <!-- 0.0 -->
      <g transform="translate(892.294577 358.966437)scale(0.1 -0.1)">
       <use xlink:href="#DejaVuSans-48"/>
       <use x="63.623047" xlink:href="#DejaVuSans-46"/>
       <use x="95.410156" xlink:href="#DejaVuSans-48"/>
      </g>
     </g>
    </g>
    <g id="ytick_13">
     <g id="line2d_57">
      <g>
       <use style="stroke:#000000;stroke-width:0.8;" x="915.197702" xlink:href="#m145f938a6d" y="286.333619"/>
      </g>
     </g>
     <g id="text_40">
      <!-- 0.2 -->
      <g transform="translate(892.294577 290.132837)scale(0.1 -0.1)">
       <use xlink:href="#DejaVuSans-48"/>
       <use x="63.623047" xlink:href="#DejaVuSans-46"/>
       <use x="95.410156" xlink:href="#DejaVuSans-50"/>
      </g>
     </g>
    </g>
    <g id="ytick_14">
     <g id="line2d_58">
      <g>
       <use style="stroke:#000000;stroke-width:0.8;" x="915.197702" xlink:href="#m145f938a6d" y="217.500019"/>
      </g>
     </g>
     <g id="text_41">
      <!-- 0.4 -->
      <g transform="translate(892.294577 221.299237)scale(0.1 -0.1)">
       <use xlink:href="#DejaVuSans-48"/>
       <use x="63.623047" xlink:href="#DejaVuSans-46"/>
       <use x="95.410156" xlink:href="#DejaVuSans-52"/>
      </g>
     </g>
    </g>
    <g id="ytick_15">
     <g id="line2d_59">
      <g>
       <use style="stroke:#000000;stroke-width:0.8;" x="915.197702" xlink:href="#m145f938a6d" y="148.666419"/>
      </g>
     </g>
     <g id="text_42">
      <!-- 0.6 -->
      <g transform="translate(892.294577 152.465638)scale(0.1 -0.1)">
       <use xlink:href="#DejaVuSans-48"/>
       <use x="63.623047" xlink:href="#DejaVuSans-46"/>
       <use x="95.410156" xlink:href="#DejaVuSans-54"/>
      </g>
     </g>
    </g>
    <g id="ytick_16">
     <g id="line2d_60">
      <g>
       <use style="stroke:#000000;stroke-width:0.8;" x="915.197702" xlink:href="#m145f938a6d" y="79.832819"/>
      </g>
     </g>
     <g id="text_43">
      <!-- 0.8 -->
      <g transform="translate(892.294577 83.632038)scale(0.1 -0.1)">
       <use xlink:href="#DejaVuSans-48"/>
       <use x="63.623047" xlink:href="#DejaVuSans-46"/>
       <use x="95.410156" xlink:href="#DejaVuSans-56"/>
      </g>
     </g>
    </g>
    <g id="ytick_17">
     <g id="line2d_61">
      <g>
       <use style="stroke:#000000;stroke-width:0.8;" x="915.197702" xlink:href="#m145f938a6d" y="10.999219"/>
      </g>
     </g>
     <g id="text_44">
      <!-- 1.0 -->
      <g transform="translate(892.294577 14.798438)scale(0.1 -0.1)">
       <use xlink:href="#DejaVuSans-49"/>
       <use x="63.623047" xlink:href="#DejaVuSans-46"/>
       <use x="95.410156" xlink:href="#DejaVuSans-48"/>
      </g>
     </g>
    </g>
   </g>
   <g id="patch_14">
    <path d="M 915.197702 355.167219 
L 915.197702 10.999219 
" style="fill:none;stroke:#000000;stroke-linecap:square;stroke-linejoin:miter;stroke-width:0.8;"/>
   </g>
   <g id="patch_15">
    <path d="M 1273.373438 355.167219 
L 1273.373438 10.999219 
" style="fill:none;stroke:#000000;stroke-linecap:square;stroke-linejoin:miter;stroke-width:0.8;"/>
   </g>
   <g id="patch_16">
    <path d="M 915.197702 355.167219 
L 1273.373438 355.167219 
" style="fill:none;stroke:#000000;stroke-linecap:square;stroke-linejoin:miter;stroke-width:0.8;"/>
   </g>
   <g id="patch_17">
    <path d="M 915.197702 10.999219 
L 1273.373438 10.999219 
" style="fill:none;stroke:#000000;stroke-linecap:square;stroke-linejoin:miter;stroke-width:0.8;"/>
   </g>
  </g>
 </g>
 <defs>
  <clipPath id="p87fc297bae">
   <rect height="344.168" width="358.175735" x="52.160938" y="10.999219"/>
  </clipPath>
 </defs>
</svg>
