<?xml version="1.0" standalone="no"?>
 <!DOCTYPE svg PUBLIC "-//W3C//DTD SVG 1.1//EN" 
 "http://www.w3.org/Graphics/SVG/1.1/DTD/svg11.dtd"> 
<svg
  xmlns:svg="http://www.w3.org/2000/svg"
  xmlns="http://www.w3.org/2000/svg"
  xmlns:xlink="http://www.w3.org/1999/xlink"
  version="1.1"
  width="297.0022mm" height="210.0072mm" viewBox="0.0000 0.0000 297.0022 210.0072">
<title>SVG Image created as panel-mask.svg date 2023/11/04 16:16:54 </title>
  <desc>Image generated by PCBNEW </desc>
<g style="fill:#000000; fill-opacity:1.0000;stroke:#000000; stroke-opacity:1.0000;
stroke-linecap:round; stroke-linejoin:round;"
 transform="translate(0 0) scale(1 1)">
</g>
<g style="fill:#000000; fill-opacity:0.0; 
stroke:#000000; stroke-width:0.0000; stroke-opacity:1; 
stroke-linecap:round; stroke-linejoin:round;">
</g>
<g style="fill:#000000; fill-opacity:0.0; 
stroke:#000000; stroke-width:0.2500; stroke-opacity:1; 
stroke-linecap:round; stroke-linejoin:round;">
<text x="60.9600" y="126.7300"
textLength="2.7367" font-size="1.8667" lengthAdjust="spacingAndGlyphs"
text-anchor="middle" opacity="0">cv</text>
<g class="stroked-text"><desc>cv</desc>
<path d="M60.7600 126.5470
L60.6267 126.6422
" />
<path d="M60.6267 126.6422
L60.3600 126.6422
" />
<path d="M60.3600 126.6422
L60.2267 126.5470
" />
<path d="M60.2267 126.5470
L60.1600 126.4518
" />
<path d="M60.1600 126.4518
L60.0933 126.2613
" />
<path d="M60.0933 126.2613
L60.0933 125.6899
" />
<path d="M60.0933 125.6899
L60.1600 125.4994
" />
<path d="M60.1600 125.4994
L60.2267 125.4041
" />
<path d="M60.2267 125.4041
L60.3600 125.3089
" />
<path d="M60.3600 125.3089
L60.6267 125.3089
" />
<path d="M60.6267 125.3089
L60.7600 125.4041
" />
<path d="M61.2267 125.3089
L61.5600 126.6422
" />
<path d="M61.5600 126.6422
L61.8933 125.3089
" />
</g><text x="81.2800" y="167.3700"
textLength="3.8033" font-size="1.8667" lengthAdjust="spacingAndGlyphs"
text-anchor="middle" opacity="0">out</text>
<g class="stroked-text"><desc>out</desc>
<path d="M80.1467 167.2822
L80.0133 167.1870
" />
<path d="M80.0133 167.1870
L79.9467 167.0918
" />
<path d="M79.9467 167.0918
L79.8800 166.9013
" />
<path d="M79.8800 166.9013
L79.8800 166.3299
" />
<path d="M79.8800 166.3299
L79.9467 166.1394
" />
<path d="M79.9467 166.1394
L80.0133 166.0441
" />
<path d="M80.0133 166.0441
L80.1467 165.9489
" />
<path d="M80.1467 165.9489
L80.3467 165.9489
" />
<path d="M80.3467 165.9489
L80.4800 166.0441
" />
<path d="M80.4800 166.0441
L80.5467 166.1394
" />
<path d="M80.5467 166.1394
L80.6133 166.3299
" />
<path d="M80.6133 166.3299
L80.6133 166.9013
" />
<path d="M80.6133 166.9013
L80.5467 167.0918
" />
<path d="M80.5467 167.0918
L80.4800 167.1870
" />
<path d="M80.4800 167.1870
L80.3467 167.2822
" />
<path d="M80.3467 167.2822
L80.1467 167.2822
" />
<path d="M81.8133 165.9489
L81.8133 167.2822
" />
<path d="M81.2133 165.9489
L81.2133 166.9965
" />
<path d="M81.2133 166.9965
L81.2800 167.1870
" />
<path d="M81.2800 167.1870
L81.4133 167.2822
" />
<path d="M81.4133 167.2822
L81.6133 167.2822
" />
<path d="M81.6133 167.2822
L81.7467 167.1870
" />
<path d="M81.7467 167.1870
L81.8133 167.0918
" />
<path d="M82.2800 165.9489
L82.8133 165.9489
" />
<path d="M82.4800 165.2822
L82.4800 166.9965
" />
<path d="M82.4800 166.9965
L82.5467 167.1870
" />
<path d="M82.5467 167.1870
L82.6800 167.2822
" />
<path d="M82.6800 167.2822
L82.8133 167.2822
" />
</g><text x="81.2800" y="147.0500"
textLength="5.4033" font-size="1.8667" lengthAdjust="spacingAndGlyphs"
text-anchor="middle" opacity="0">level</text>
<g class="stroked-text"><desc>level</desc>
<path d="M79.3467 146.9622
L79.2133 146.8670
" />
<path d="M79.2133 146.8670
L79.1467 146.6765
" />
<path d="M79.1467 146.6765
L79.1467 144.9622
" />
<path d="M80.4133 146.8670
L80.2800 146.9622
" />
<path d="M80.2800 146.9622
L80.0133 146.9622
" />
<path d="M80.0133 146.9622
L79.8800 146.8670
" />
<path d="M79.8800 146.8670
L79.8133 146.6765
" />
<path d="M79.8133 146.6765
L79.8133 145.9146
" />
<path d="M79.8133 145.9146
L79.8800 145.7241
" />
<path d="M79.8800 145.7241
L80.0133 145.6289
" />
<path d="M80.0133 145.6289
L80.2800 145.6289
" />
<path d="M80.2800 145.6289
L80.4133 145.7241
" />
<path d="M80.4133 145.7241
L80.4800 145.9146
" />
<path d="M80.4800 145.9146
L80.4800 146.1051
" />
<path d="M80.4800 146.1051
L79.8133 146.2956
" />
<path d="M80.9467 145.6289
L81.2800 146.9622
" />
<path d="M81.2800 146.9622
L81.6133 145.6289
" />
<path d="M82.6800 146.8670
L82.5467 146.9622
" />
<path d="M82.5467 146.9622
L82.2800 146.9622
" />
<path d="M82.2800 146.9622
L82.1467 146.8670
" />
<path d="M82.1467 146.8670
L82.0800 146.6765
" />
<path d="M82.0800 146.6765
L82.0800 145.9146
" />
<path d="M82.0800 145.9146
L82.1467 145.7241
" />
<path d="M82.1467 145.7241
L82.2800 145.6289
" />
<path d="M82.2800 145.6289
L82.5467 145.6289
" />
<path d="M82.5467 145.6289
L82.6800 145.7241
" />
<path d="M82.6800 145.7241
L82.7467 145.9146
" />
<path d="M82.7467 145.9146
L82.7467 146.1051
" />
<path d="M82.7467 146.1051
L82.0800 146.2956
" />
<path d="M83.5467 146.9622
L83.4133 146.8670
" />
<path d="M83.4133 146.8670
L83.3467 146.6765
" />
<path d="M83.3467 146.6765
L83.3467 144.9622
" />
</g><text x="81.2800" y="147.0500"
textLength="5.4033" font-size="1.8667" lengthAdjust="spacingAndGlyphs"
text-anchor="middle" opacity="0">level</text>
<g class="stroked-text"><desc>level</desc>
<path d="M79.3467 146.9622
L79.2133 146.8670
" />
<path d="M79.2133 146.8670
L79.1467 146.6765
" />
<path d="M79.1467 146.6765
L79.1467 144.9622
" />
<path d="M80.4133 146.8670
L80.2800 146.9622
" />
<path d="M80.2800 146.9622
L80.0133 146.9622
" />
<path d="M80.0133 146.9622
L79.8800 146.8670
" />
<path d="M79.8800 146.8670
L79.8133 146.6765
" />
<path d="M79.8133 146.6765
L79.8133 145.9146
" />
<path d="M79.8133 145.9146
L79.8800 145.7241
" />
<path d="M79.8800 145.7241
L80.0133 145.6289
" />
<path d="M80.0133 145.6289
L80.2800 145.6289
" />
<path d="M80.2800 145.6289
L80.4133 145.7241
" />
<path d="M80.4133 145.7241
L80.4800 145.9146
" />
<path d="M80.4800 145.9146
L80.4800 146.1051
" />
<path d="M80.4800 146.1051
L79.8133 146.2956
" />
<path d="M80.9467 145.6289
L81.2800 146.9622
" />
<path d="M81.2800 146.9622
L81.6133 145.6289
" />
<path d="M82.6800 146.8670
L82.5467 146.9622
" />
<path d="M82.5467 146.9622
L82.2800 146.9622
" />
<path d="M82.2800 146.9622
L82.1467 146.8670
" />
<path d="M82.1467 146.8670
L82.0800 146.6765
" />
<path d="M82.0800 146.6765
L82.0800 145.9146
" />
<path d="M82.0800 145.9146
L82.1467 145.7241
" />
<path d="M82.1467 145.7241
L82.2800 145.6289
" />
<path d="M82.2800 145.6289
L82.5467 145.6289
" />
<path d="M82.5467 145.6289
L82.6800 145.7241
" />
<path d="M82.6800 145.7241
L82.7467 145.9146
" />
<path d="M82.7467 145.9146
L82.7467 146.1051
" />
<path d="M82.7467 146.1051
L82.0800 146.2956
" />
<path d="M83.5467 146.9622
L83.4133 146.8670
" />
<path d="M83.4133 146.8670
L83.3467 146.6765
" />
<path d="M83.3467 146.6765
L83.3467 144.9622
" />
</g><text x="60.9600" y="106.4100"
textLength="9.8033" font-size="1.8667" lengthAdjust="spacingAndGlyphs"
text-anchor="middle" opacity="0">feedback</text>
<g class="stroked-text"><desc>feedback</desc>
<path d="M56.4267 104.9889
L56.9600 104.9889
" />
<path d="M56.6267 106.3222
L56.6267 104.6080
" />
<path d="M56.6267 104.6080
L56.6933 104.4175
" />
<path d="M56.6933 104.4175
L56.8267 104.3222
" />
<path d="M56.8267 104.3222
L56.9600 104.3222
" />
<path d="M57.9600 106.2270
L57.8267 106.3222
" />
<path d="M57.8267 106.3222
L57.5600 106.3222
" />
<path d="M57.5600 106.3222
L57.4267 106.2270
" />
<path d="M57.4267 106.2270
L57.3600 106.0365
" />
<path d="M57.3600 106.0365
L57.3600 105.2746
" />
<path d="M57.3600 105.2746
L57.4267 105.0841
" />
<path d="M57.4267 105.0841
L57.5600 104.9889
" />
<path d="M57.5600 104.9889
L57.8267 104.9889
" />
<path d="M57.8267 104.9889
L57.9600 105.0841
" />
<path d="M57.9600 105.0841
L58.0267 105.2746
" />
<path d="M58.0267 105.2746
L58.0267 105.4651
" />
<path d="M58.0267 105.4651
L57.3600 105.6556
" />
<path d="M59.1600 106.2270
L59.0267 106.3222
" />
<path d="M59.0267 106.3222
L58.7600 106.3222
" />
<path d="M58.7600 106.3222
L58.6267 106.2270
" />
<path d="M58.6267 106.2270
L58.5600 106.0365
" />
<path d="M58.5600 106.0365
L58.5600 105.2746
" />
<path d="M58.5600 105.2746
L58.6267 105.0841
" />
<path d="M58.6267 105.0841
L58.7600 104.9889
" />
<path d="M58.7600 104.9889
L59.0267 104.9889
" />
<path d="M59.0267 104.9889
L59.1600 105.0841
" />
<path d="M59.1600 105.0841
L59.2267 105.2746
" />
<path d="M59.2267 105.2746
L59.2267 105.4651
" />
<path d="M59.2267 105.4651
L58.5600 105.6556
" />
<path d="M60.4267 106.3222
L60.4267 104.3222
" />
<path d="M60.4267 106.2270
L60.2933 106.3222
" />
<path d="M60.2933 106.3222
L60.0267 106.3222
" />
<path d="M60.0267 106.3222
L59.8933 106.2270
" />
<path d="M59.8933 106.2270
L59.8267 106.1318
" />
<path d="M59.8267 106.1318
L59.7600 105.9413
" />
<path d="M59.7600 105.9413
L59.7600 105.3699
" />
<path d="M59.7600 105.3699
L59.8267 105.1794
" />
<path d="M59.8267 105.1794
L59.8933 105.0841
" />
<path d="M59.8933 105.0841
L60.0267 104.9889
" />
<path d="M60.0267 104.9889
L60.2933 104.9889
" />
<path d="M60.2933 104.9889
L60.4267 105.0841
" />
<path d="M61.0933 106.3222
L61.0933 104.3222
" />
<path d="M61.0933 105.0841
L61.2267 104.9889
" />
<path d="M61.2267 104.9889
L61.4933 104.9889
" />
<path d="M61.4933 104.9889
L61.6267 105.0841
" />
<path d="M61.6267 105.0841
L61.6933 105.1794
" />
<path d="M61.6933 105.1794
L61.7600 105.3699
" />
<path d="M61.7600 105.3699
L61.7600 105.9413
" />
<path d="M61.7600 105.9413
L61.6933 106.1318
" />
<path d="M61.6933 106.1318
L61.6267 106.2270
" />
<path d="M61.6267 106.2270
L61.4933 106.3222
" />
<path d="M61.4933 106.3222
L61.2267 106.3222
" />
<path d="M61.2267 106.3222
L61.0933 106.2270
" />
<path d="M62.9600 106.3222
L62.9600 105.2746
" />
<path d="M62.9600 105.2746
L62.8933 105.0841
" />
<path d="M62.8933 105.0841
L62.7600 104.9889
" />
<path d="M62.7600 104.9889
L62.4933 104.9889
" />
<path d="M62.4933 104.9889
L62.3600 105.0841
" />
<path d="M62.9600 106.2270
L62.8267 106.3222
" />
<path d="M62.8267 106.3222
L62.4933 106.3222
" />
<path d="M62.4933 106.3222
L62.3600 106.2270
" />
<path d="M62.3600 106.2270
L62.2933 106.0365
" />
<path d="M62.2933 106.0365
L62.2933 105.8460
" />
<path d="M62.2933 105.8460
L62.3600 105.6556
" />
<path d="M62.3600 105.6556
L62.4933 105.5603
" />
<path d="M62.4933 105.5603
L62.8267 105.5603
" />
<path d="M62.8267 105.5603
L62.9600 105.4651
" />
<path d="M64.2267 106.2270
L64.0933 106.3222
" />
<path d="M64.0933 106.3222
L63.8267 106.3222
" />
<path d="M63.8267 106.3222
L63.6933 106.2270
" />
<path d="M63.6933 106.2270
L63.6267 106.1318
" />
<path d="M63.6267 106.1318
L63.5600 105.9413
" />
<path d="M63.5600 105.9413
L63.5600 105.3699
" />
<path d="M63.5600 105.3699
L63.6267 105.1794
" />
<path d="M63.6267 105.1794
L63.6933 105.0841
" />
<path d="M63.6933 105.0841
L63.8267 104.9889
" />
<path d="M63.8267 104.9889
L64.0933 104.9889
" />
<path d="M64.0933 104.9889
L64.2267 105.0841
" />
<path d="M64.8267 106.3222
L64.8267 104.3222
" />
<path d="M64.9600 105.5603
L65.3600 106.3222
" />
<path d="M65.3600 104.9889
L64.8267 105.7508
" />
</g><text x="60.9600" y="147.0500"
textLength="4.9367" font-size="1.8667" lengthAdjust="spacingAndGlyphs"
text-anchor="middle" opacity="0">gain</text>
<g class="stroked-text"><desc>gain</desc>
<path d="M59.6600 145.6289
L59.6600 147.2480
" />
<path d="M59.6600 147.2480
L59.5933 147.4384
" />
<path d="M59.5933 147.4384
L59.5267 147.5337
" />
<path d="M59.5267 147.5337
L59.3933 147.6289
" />
<path d="M59.3933 147.6289
L59.1933 147.6289
" />
<path d="M59.1933 147.6289
L59.0600 147.5337
" />
<path d="M59.6600 146.8670
L59.5267 146.9622
" />
<path d="M59.5267 146.9622
L59.2600 146.9622
" />
<path d="M59.2600 146.9622
L59.1267 146.8670
" />
<path d="M59.1267 146.8670
L59.0600 146.7718
" />
<path d="M59.0600 146.7718
L58.9933 146.5813
" />
<path d="M58.9933 146.5813
L58.9933 146.0099
" />
<path d="M58.9933 146.0099
L59.0600 145.8194
" />
<path d="M59.0600 145.8194
L59.1267 145.7241
" />
<path d="M59.1267 145.7241
L59.2600 145.6289
" />
<path d="M59.2600 145.6289
L59.5267 145.6289
" />
<path d="M59.5267 145.6289
L59.6600 145.7241
" />
<path d="M60.9267 146.9622
L60.9267 145.9146
" />
<path d="M60.9267 145.9146
L60.8600 145.7241
" />
<path d="M60.8600 145.7241
L60.7267 145.6289
" />
<path d="M60.7267 145.6289
L60.4600 145.6289
" />
<path d="M60.4600 145.6289
L60.3267 145.7241
" />
<path d="M60.9267 146.8670
L60.7933 146.9622
" />
<path d="M60.7933 146.9622
L60.4600 146.9622
" />
<path d="M60.4600 146.9622
L60.3267 146.8670
" />
<path d="M60.3267 146.8670
L60.2600 146.6765
" />
<path d="M60.2600 146.6765
L60.2600 146.4860
" />
<path d="M60.2600 146.4860
L60.3267 146.2956
" />
<path d="M60.3267 146.2956
L60.4600 146.2003
" />
<path d="M60.4600 146.2003
L60.7933 146.2003
" />
<path d="M60.7933 146.2003
L60.9267 146.1051
" />
<path d="M61.5933 146.9622
L61.5933 145.6289
" />
<path d="M61.5933 144.9622
L61.5267 145.0575
" />
<path d="M61.5267 145.0575
L61.5933 145.1527
" />
<path d="M61.5933 145.1527
L61.6600 145.0575
" />
<path d="M61.6600 145.0575
L61.5933 144.9622
" />
<path d="M61.5933 144.9622
L61.5933 145.1527
" />
<path d="M62.2600 145.6289
L62.2600 146.9622
" />
<path d="M62.2600 145.8194
L62.3267 145.7241
" />
<path d="M62.3267 145.7241
L62.4600 145.6289
" />
<path d="M62.4600 145.6289
L62.6600 145.6289
" />
<path d="M62.6600 145.6289
L62.7933 145.7241
" />
<path d="M62.7933 145.7241
L62.8600 145.9146
" />
<path d="M62.8600 145.9146
L62.8600 146.9622
" />
</g><text x="60.9600" y="86.0900"
textLength="2.4033" font-size="1.8667" lengthAdjust="spacingAndGlyphs"
text-anchor="middle" opacity="0">in</text>
<g class="stroked-text"><desc>in</desc>
<path d="M60.3267 86.0022
L60.3267 84.6689
" />
<path d="M60.3267 84.0022
L60.2600 84.0975
" />
<path d="M60.2600 84.0975
L60.3267 84.1927
" />
<path d="M60.3267 84.1927
L60.3933 84.0975
" />
<path d="M60.3933 84.0975
L60.3267 84.0022
" />
<path d="M60.3267 84.0022
L60.3267 84.1927
" />
<path d="M60.9933 84.6689
L60.9933 86.0022
" />
<path d="M60.9933 84.8594
L61.0600 84.7641
" />
<path d="M61.0600 84.7641
L61.1933 84.6689
" />
<path d="M61.1933 84.6689
L61.3933 84.6689
" />
<path d="M61.3933 84.6689
L61.5267 84.7641
" />
<path d="M61.5267 84.7641
L61.5933 84.9546
" />
<path d="M61.5933 84.9546
L61.5933 86.0022
" />
</g></g>
<g style="fill:#000000; fill-opacity:0.0; 
stroke:#000000; stroke-width:0.3500; stroke-opacity:1; 
stroke-linecap:round; stroke-linejoin:round;">
<text x="72.3900" y="55.3000"
textLength="18.1643" font-size="4.0000" lengthAdjust="spacingAndGlyphs"
text-anchor="middle" opacity="0">pentode</text>
<g class="stroked-text"><desc>pentode</desc>
<path d="M64.2471 53.1697
L64.2471 56.1697
" />
<path d="M64.2471 53.3125
L64.5329 53.1697
" />
<path d="M64.5329 53.1697
L65.1043 53.1697
" />
<path d="M65.1043 53.1697
L65.3900 53.3125
" />
<path d="M65.3900 53.3125
L65.5329 53.4554
" />
<path d="M65.5329 53.4554
L65.6757 53.7411
" />
<path d="M65.6757 53.7411
L65.6757 54.5982
" />
<path d="M65.6757 54.5982
L65.5329 54.8839
" />
<path d="M65.5329 54.8839
L65.3900 55.0268
" />
<path d="M65.3900 55.0268
L65.1043 55.1697
" />
<path d="M65.1043 55.1697
L64.5329 55.1697
" />
<path d="M64.5329 55.1697
L64.2471 55.0268
" />
<path d="M68.1043 55.0268
L67.8186 55.1697
" />
<path d="M67.8186 55.1697
L67.2471 55.1697
" />
<path d="M67.2471 55.1697
L66.9614 55.0268
" />
<path d="M66.9614 55.0268
L66.8186 54.7411
" />
<path d="M66.8186 54.7411
L66.8186 53.5982
" />
<path d="M66.8186 53.5982
L66.9614 53.3125
" />
<path d="M66.9614 53.3125
L67.2471 53.1697
" />
<path d="M67.2471 53.1697
L67.8186 53.1697
" />
<path d="M67.8186 53.1697
L68.1043 53.3125
" />
<path d="M68.1043 53.3125
L68.2471 53.5982
" />
<path d="M68.2471 53.5982
L68.2471 53.8839
" />
<path d="M68.2471 53.8839
L66.8186 54.1697
" />
<path d="M69.5329 53.1697
L69.5329 55.1697
" />
<path d="M69.5329 53.4554
L69.6757 53.3125
" />
<path d="M69.6757 53.3125
L69.9614 53.1697
" />
<path d="M69.9614 53.1697
L70.3900 53.1697
" />
<path d="M70.3900 53.1697
L70.6757 53.3125
" />
<path d="M70.6757 53.3125
L70.8186 53.5982
" />
<path d="M70.8186 53.5982
L70.8186 55.1697
" />
<path d="M71.8186 53.1697
L72.9614 53.1697
" />
<path d="M72.2471 52.1697
L72.2471 54.7411
" />
<path d="M72.2471 54.7411
L72.3900 55.0268
" />
<path d="M72.3900 55.0268
L72.6757 55.1697
" />
<path d="M72.6757 55.1697
L72.9614 55.1697
" />
<path d="M74.3900 55.1697
L74.1043 55.0268
" />
<path d="M74.1043 55.0268
L73.9614 54.8839
" />
<path d="M73.9614 54.8839
L73.8186 54.5982
" />
<path d="M73.8186 54.5982
L73.8186 53.7411
" />
<path d="M73.8186 53.7411
L73.9614 53.4554
" />
<path d="M73.9614 53.4554
L74.1043 53.3125
" />
<path d="M74.1043 53.3125
L74.3900 53.1697
" />
<path d="M74.3900 53.1697
L74.8186 53.1697
" />
<path d="M74.8186 53.1697
L75.1043 53.3125
" />
<path d="M75.1043 53.3125
L75.2471 53.4554
" />
<path d="M75.2471 53.4554
L75.3900 53.7411
" />
<path d="M75.3900 53.7411
L75.3900 54.5982
" />
<path d="M75.3900 54.5982
L75.2471 54.8839
" />
<path d="M75.2471 54.8839
L75.1043 55.0268
" />
<path d="M75.1043 55.0268
L74.8186 55.1697
" />
<path d="M74.8186 55.1697
L74.3900 55.1697
" />
<path d="M77.9614 55.1697
L77.9614 52.1697
" />
<path d="M77.9614 55.0268
L77.6757 55.1697
" />
<path d="M77.6757 55.1697
L77.1043 55.1697
" />
<path d="M77.1043 55.1697
L76.8186 55.0268
" />
<path d="M76.8186 55.0268
L76.6757 54.8839
" />
<path d="M76.6757 54.8839
L76.5329 54.5982
" />
<path d="M76.5329 54.5982
L76.5329 53.7411
" />
<path d="M76.5329 53.7411
L76.6757 53.4554
" />
<path d="M76.6757 53.4554
L76.8186 53.3125
" />
<path d="M76.8186 53.3125
L77.1043 53.1697
" />
<path d="M77.1043 53.1697
L77.6757 53.1697
" />
<path d="M77.6757 53.1697
L77.9614 53.3125
" />
<path d="M80.5329 55.0268
L80.2471 55.1697
" />
<path d="M80.2471 55.1697
L79.6757 55.1697
" />
<path d="M79.6757 55.1697
L79.3900 55.0268
" />
<path d="M79.3900 55.0268
L79.2471 54.7411
" />
<path d="M79.2471 54.7411
L79.2471 53.5982
" />
<path d="M79.2471 53.5982
L79.3900 53.3125
" />
<path d="M79.3900 53.3125
L79.6757 53.1697
" />
<path d="M79.6757 53.1697
L80.2471 53.1697
" />
<path d="M80.2471 53.1697
L80.5329 53.3125
" />
<path d="M80.5329 53.3125
L80.6757 53.5982
" />
<path d="M80.6757 53.5982
L80.6757 53.8839
" />
<path d="M80.6757 53.8839
L79.2471 54.1697
" />
</g><g >
</g>
<g style="fill:#000000; fill-opacity:1.0000; 
stroke:#000000; stroke-width:0.0000; stroke-opacity:1; 
stroke-linecap:round; stroke-linejoin:round;">
<circle cx="81.2800" cy="96.5200" r="3.7000" /> 
</g>
<g style="fill:#000000; fill-opacity:1.0000; 
stroke:#000000; stroke-width:0.0212; stroke-opacity:1; 
stroke-linecap:round; stroke-linejoin:round;">
</g>
<g >
</g>
<g style="fill:#000000; fill-opacity:1.0000; 
stroke:#000000; stroke-width:0.0212; stroke-opacity:1; 
stroke-linecap:round; stroke-linejoin:round;">
</g>
<g style="fill:#000000; fill-opacity:1.0000; 
stroke:#000000; stroke-width:0.0000; stroke-opacity:1; 
stroke-linecap:round; stroke-linejoin:round;">
<circle cx="81.2800" cy="137.1600" r="3.7000" /> 
</g>
<g style="fill:#000000; fill-opacity:1.0000; 
stroke:#000000; stroke-width:0.0212; stroke-opacity:1; 
stroke-linecap:round; stroke-linejoin:round;">
</g>
<g >
</g>
<g style="fill:#000000; fill-opacity:1.0000; 
stroke:#000000; stroke-width:0.0212; stroke-opacity:1; 
stroke-linecap:round; stroke-linejoin:round;">
</g>
<g style="fill:#000000; fill-opacity:1.0000; 
stroke:#000000; stroke-width:0.0000; stroke-opacity:1; 
stroke-linecap:round; stroke-linejoin:round;">
<circle cx="60.9600" cy="96.5200" r="3.2000" /> 
</g>
<g style="fill:#000000; fill-opacity:1.0000; 
stroke:#000000; stroke-width:0.0212; stroke-opacity:1; 
stroke-linecap:round; stroke-linejoin:round;">
</g>
<g >
</g>
<g style="fill:#000000; fill-opacity:1.0000; 
stroke:#000000; stroke-width:0.0212; stroke-opacity:1; 
stroke-linecap:round; stroke-linejoin:round;">
</g>
<g style="fill:#000000; fill-opacity:1.0000; 
stroke:#000000; stroke-width:0.0000; stroke-opacity:1; 
stroke-linecap:round; stroke-linejoin:round;">
<circle cx="60.9600" cy="76.2000" r="3.2000" /> 
</g>
<g style="fill:#000000; fill-opacity:1.0000; 
stroke:#000000; stroke-width:0.0212; stroke-opacity:1; 
stroke-linecap:round; stroke-linejoin:round;">
</g>
<g >
</g>
<g style="fill:#000000; fill-opacity:1.0000; 
stroke:#000000; stroke-width:0.0212; stroke-opacity:1; 
stroke-linecap:round; stroke-linejoin:round;">
</g>
<g style="fill:#000000; fill-opacity:1.0000; 
stroke:#000000; stroke-width:0.0000; stroke-opacity:1; 
stroke-linecap:round; stroke-linejoin:round;">
<circle cx="60.9600" cy="116.8400" r="3.2000" /> 
</g>
<g style="fill:#000000; fill-opacity:1.0000; 
stroke:#000000; stroke-width:0.0212; stroke-opacity:1; 
stroke-linecap:round; stroke-linejoin:round;">
</g>
<g >
</g>
<g style="fill:#000000; fill-opacity:1.0000; 
stroke:#000000; stroke-width:0.0212; stroke-opacity:1; 
stroke-linecap:round; stroke-linejoin:round;">
</g>
<g style="fill:#000000; fill-opacity:1.0000; 
stroke:#000000; stroke-width:0.0000; stroke-opacity:1; 
stroke-linecap:round; stroke-linejoin:round;">
<circle cx="81.2800" cy="157.4800" r="3.2000" /> 
</g>
<g style="fill:#000000; fill-opacity:1.0000; 
stroke:#000000; stroke-width:0.0212; stroke-opacity:1; 
stroke-linecap:round; stroke-linejoin:round;">
</g>
<g >
</g>
<g style="fill:#000000; fill-opacity:1.0000; 
stroke:#000000; stroke-width:0.0212; stroke-opacity:1; 
stroke-linecap:round; stroke-linejoin:round;">
</g>
<g style="fill:#000000; fill-opacity:1.0000; 
stroke:#000000; stroke-width:0.0000; stroke-opacity:1; 
stroke-linecap:round; stroke-linejoin:round;">
<circle cx="81.2800" cy="76.2000" r="3.7000" /> 
</g>
<g style="fill:#000000; fill-opacity:1.0000; 
stroke:#000000; stroke-width:0.0212; stroke-opacity:1; 
stroke-linecap:round; stroke-linejoin:round;">
</g>
<g >
</g>
<g style="fill:#000000; fill-opacity:1.0000; 
stroke:#000000; stroke-width:0.0212; stroke-opacity:1; 
stroke-linecap:round; stroke-linejoin:round;">
</g>
<g style="fill:#000000; fill-opacity:1.0000; 
stroke:#000000; stroke-width:0.0000; stroke-opacity:1; 
stroke-linecap:round; stroke-linejoin:round;">
<circle cx="81.2800" cy="116.8400" r="3.7000" /> 
</g>
<g style="fill:#000000; fill-opacity:1.0000; 
stroke:#000000; stroke-width:0.0212; stroke-opacity:1; 
stroke-linecap:round; stroke-linejoin:round;">
</g>
<g >
</g>
<g style="fill:#000000; fill-opacity:1.0000; 
stroke:#000000; stroke-width:0.0212; stroke-opacity:1; 
stroke-linecap:round; stroke-linejoin:round;">
</g>
<g style="fill:#000000; fill-opacity:1.0000; 
stroke:#000000; stroke-width:6.0000; stroke-opacity:1; 
stroke-linecap:round; stroke-linejoin:round;">
</g>
<g style="fill:#000000; fill-opacity:0.0; 
stroke:#000000; stroke-width:6.0000; stroke-opacity:1; 
stroke-linecap:round; stroke-linejoin:round;">
<path d="M70.3580 140.4920
L70.3580 112.4920
" />
</g>
<g >
</g>
<g style="fill:#000000; fill-opacity:0.0; 
stroke:#000000; stroke-width:6.0000; stroke-opacity:1; 
stroke-linecap:round; stroke-linejoin:round;">
</g>
<g style="fill:#000000; fill-opacity:1.0000; 
stroke:#000000; stroke-width:0.0000; stroke-opacity:1; 
stroke-linecap:round; stroke-linejoin:round;">
<circle cx="58.3000" cy="53.8000" r="1.8000" /> 
</g>
<g style="fill:#000000; fill-opacity:1.0000; 
stroke:#000000; stroke-width:0.0212; stroke-opacity:1; 
stroke-linecap:round; stroke-linejoin:round;">
</g>
<g style="fill:#000000; fill-opacity:1.0000; 
stroke:#000000; stroke-width:0.0000; stroke-opacity:1; 
stroke-linecap:round; stroke-linejoin:round;">
<circle cx="58.3000" cy="53.8000" r="2.5000" /> 
</g>
<g style="fill:#000000; fill-opacity:1.0000; 
stroke:#000000; stroke-width:0.0212; stroke-opacity:1; 
stroke-linecap:round; stroke-linejoin:round;">
</g>
<g >
</g>
<g style="fill:#000000; fill-opacity:1.0000; 
stroke:#000000; stroke-width:0.0212; stroke-opacity:1; 
stroke-linecap:round; stroke-linejoin:round;">
</g>
<g style="fill:#000000; fill-opacity:1.0000; 
stroke:#000000; stroke-width:0.0000; stroke-opacity:1; 
stroke-linecap:round; stroke-linejoin:round;">
<circle cx="60.9600" cy="137.1600" r="3.2000" /> 
</g>
<g style="fill:#000000; fill-opacity:1.0000; 
stroke:#000000; stroke-width:0.0212; stroke-opacity:1; 
stroke-linecap:round; stroke-linejoin:round;">
</g>
<g >
</g>
<g style="fill:#000000; fill-opacity:1.0000; 
stroke:#000000; stroke-width:0.0212; stroke-opacity:1; 
stroke-linecap:round; stroke-linejoin:round;">
</g>
<g style="fill:#000000; fill-opacity:1.0000; 
stroke:#000000; stroke-width:0.0000; stroke-opacity:1; 
stroke-linecap:round; stroke-linejoin:round;">
<circle cx="58.3000" cy="176.3000" r="1.8000" /> 
</g>
<g style="fill:#000000; fill-opacity:1.0000; 
stroke:#000000; stroke-width:0.0212; stroke-opacity:1; 
stroke-linecap:round; stroke-linejoin:round;">
</g>
<g style="fill:#000000; fill-opacity:1.0000; 
stroke:#000000; stroke-width:0.0000; stroke-opacity:1; 
stroke-linecap:round; stroke-linejoin:round;">
<circle cx="58.3000" cy="176.3000" r="2.5000" /> 
</g>
<g style="fill:#000000; fill-opacity:1.0000; 
stroke:#000000; stroke-width:0.0212; stroke-opacity:1; 
stroke-linecap:round; stroke-linejoin:round;">
</g>
<g >
</g>
<g >
</g>
<g >
</g>
</g> 
</svg>
