<?xml version="1.0" standalone="no"?>
 <!DOCTYPE svg PUBLIC "-//W3C//DTD SVG 1.1//EN" 
 "http://www.w3.org/Graphics/SVG/1.1/DTD/svg11.dtd"> 
<svg
  xmlns:svg="http://www.w3.org/2000/svg"
  xmlns="http://www.w3.org/2000/svg"
  xmlns:xlink="http://www.w3.org/1999/xlink"
  version="1.1"
  width="297.0022mm" height="210.0072mm" viewBox="0.0000 0.0000 297.0022 210.0072">
<title>SVG Image created as main-B_Fab.svg date 2023/11/06 17:57:51 </title>
  <desc>Image generated by PCBNEW </desc>
<g style="fill:#000000; fill-opacity:1.0000;stroke:#000000; stroke-opacity:1.0000;
stroke-linecap:round; stroke-linejoin:round;"
 transform="translate(0 0) scale(1 1)">
</g>
<g style="fill:#000000; fill-opacity:0.0; 
stroke:#000000; stroke-width:0.0000; stroke-opacity:1; 
stroke-linecap:round; stroke-linejoin:round;">
</g>
<g style="fill:#000000; fill-opacity:0.0; 
stroke:#000000; stroke-width:0.1500; stroke-opacity:1; 
stroke-linecap:round; stroke-linejoin:round;">
<g transform="rotate(-90.000000 29.9720 30.4800)">
<text x="29.9720" y="30.9800"
transform="scale(-1 1) translate(-59.944000 0)"
textLength="8.6786" font-size="1.3333" lengthAdjust="spacingAndGlyphs"
text-anchor="middle" opacity="0">IDC Header</text>
</g>
<g class="stroked-text"><desc>IDC Header</desc>
<path d="M30.4268 26.5038
L29.4268 26.5038
" />
<path d="M30.4268 26.9800
L29.4268 26.9800
" />
<path d="M29.4268 26.9800
L29.4268 27.2181
" />
<path d="M29.4268 27.2181
L29.4744 27.3610
" />
<path d="M29.4744 27.3610
L29.5697 27.4562
" />
<path d="M29.5697 27.4562
L29.6649 27.5038
" />
<path d="M29.6649 27.5038
L29.8554 27.5514
" />
<path d="M29.8554 27.5514
L29.9982 27.5514
" />
<path d="M29.9982 27.5514
L30.1887 27.5038
" />
<path d="M30.1887 27.5038
L30.2840 27.4562
" />
<path d="M30.2840 27.4562
L30.3792 27.3610
" />
<path d="M30.3792 27.3610
L30.4268 27.2181
" />
<path d="M30.4268 27.2181
L30.4268 26.9800
" />
<path d="M30.3316 28.5514
L30.3792 28.5038
" />
<path d="M30.3792 28.5038
L30.4268 28.3610
" />
<path d="M30.4268 28.3610
L30.4268 28.2657
" />
<path d="M30.4268 28.2657
L30.3792 28.1229
" />
<path d="M30.3792 28.1229
L30.2840 28.0276
" />
<path d="M30.2840 28.0276
L30.1887 27.9800
" />
<path d="M30.1887 27.9800
L29.9982 27.9324
" />
<path d="M29.9982 27.9324
L29.8554 27.9324
" />
<path d="M29.8554 27.9324
L29.6649 27.9800
" />
<path d="M29.6649 27.9800
L29.5697 28.0276
" />
<path d="M29.5697 28.0276
L29.4744 28.1229
" />
<path d="M29.4744 28.1229
L29.4268 28.2657
" />
<path d="M29.4268 28.2657
L29.4268 28.3610
" />
<path d="M29.4268 28.3610
L29.4744 28.5038
" />
<path d="M29.4744 28.5038
L29.5221 28.5514
" />
<path d="M30.4268 29.7419
L29.4268 29.7419
" />
<path d="M29.9030 29.7419
L29.9030 30.3133
" />
<path d="M30.4268 30.3133
L29.4268 30.3133
" />
<path d="M30.3792 31.1705
L30.4268 31.0752
" />
<path d="M30.4268 31.0752
L30.4268 30.8848
" />
<path d="M30.4268 30.8848
L30.3792 30.7895
" />
<path d="M30.3792 30.7895
L30.2840 30.7419
" />
<path d="M30.2840 30.7419
L29.9030 30.7419
" />
<path d="M29.9030 30.7419
L29.8078 30.7895
" />
<path d="M29.8078 30.7895
L29.7602 30.8848
" />
<path d="M29.7602 30.8848
L29.7602 31.0752
" />
<path d="M29.7602 31.0752
L29.8078 31.1705
" />
<path d="M29.8078 31.1705
L29.9030 31.2181
" />
<path d="M29.9030 31.2181
L29.9982 31.2181
" />
<path d="M29.9982 31.2181
L30.0935 30.7419
" />
<path d="M30.4268 32.0752
L29.9030 32.0752
" />
<path d="M29.9030 32.0752
L29.8078 32.0276
" />
<path d="M29.8078 32.0276
L29.7602 31.9324
" />
<path d="M29.7602 31.9324
L29.7602 31.7419
" />
<path d="M29.7602 31.7419
L29.8078 31.6467
" />
<path d="M30.3792 32.0752
L30.4268 31.9800
" />
<path d="M30.4268 31.9800
L30.4268 31.7419
" />
<path d="M30.4268 31.7419
L30.3792 31.6467
" />
<path d="M30.3792 31.6467
L30.2840 31.5990
" />
<path d="M30.2840 31.5990
L30.1887 31.5990
" />
<path d="M30.1887 31.5990
L30.0935 31.6467
" />
<path d="M30.0935 31.6467
L30.0459 31.7419
" />
<path d="M30.0459 31.7419
L30.0459 31.9800
" />
<path d="M30.0459 31.9800
L29.9982 32.0752
" />
<path d="M30.4268 32.9800
L29.4268 32.9800
" />
<path d="M30.3792 32.9800
L30.4268 32.8848
" />
<path d="M30.4268 32.8848
L30.4268 32.6943
" />
<path d="M30.4268 32.6943
L30.3792 32.5990
" />
<path d="M30.3792 32.5990
L30.3316 32.5514
" />
<path d="M30.3316 32.5514
L30.2363 32.5038
" />
<path d="M30.2363 32.5038
L29.9506 32.5038
" />
<path d="M29.9506 32.5038
L29.8554 32.5514
" />
<path d="M29.8554 32.5514
L29.8078 32.5990
" />
<path d="M29.8078 32.5990
L29.7602 32.6943
" />
<path d="M29.7602 32.6943
L29.7602 32.8848
" />
<path d="M29.7602 32.8848
L29.8078 32.9800
" />
<path d="M30.3792 33.8371
L30.4268 33.7419
" />
<path d="M30.4268 33.7419
L30.4268 33.5514
" />
<path d="M30.4268 33.5514
L30.3792 33.4562
" />
<path d="M30.3792 33.4562
L30.2840 33.4086
" />
<path d="M30.2840 33.4086
L29.9030 33.4086
" />
<path d="M29.9030 33.4086
L29.8078 33.4562
" />
<path d="M29.8078 33.4562
L29.7602 33.5514
" />
<path d="M29.7602 33.5514
L29.7602 33.7419
" />
<path d="M29.7602 33.7419
L29.8078 33.8371
" />
<path d="M29.8078 33.8371
L29.9030 33.8848
" />
<path d="M29.9030 33.8848
L29.9982 33.8848
" />
<path d="M29.9982 33.8848
L30.0935 33.4086
" />
<path d="M30.4268 34.3133
L29.7602 34.3133
" />
<path d="M29.9506 34.3133
L29.8554 34.3610
" />
<path d="M29.8554 34.3610
L29.8078 34.4086
" />
<path d="M29.8078 34.4086
L29.7602 34.5038
" />
<path d="M29.7602 34.5038
L29.7602 34.5990
" />
</g><g transform="rotate(-90.000000 41.6560 30.4800)">
<text x="41.6560" y="30.9800"
transform="scale(-1 1) translate(-83.312000 0)"
textLength="1.9643" font-size="1.3333" lengthAdjust="spacingAndGlyphs"
text-anchor="middle" opacity="0">J1</text>
</g>
<g class="stroked-text"><desc>J1</desc>
<path d="M41.1108 30.1467
L41.8251 30.1467
" />
<path d="M41.8251 30.1467
L41.9680 30.0990
" />
<path d="M41.9680 30.0990
L42.0632 30.0038
" />
<path d="M42.0632 30.0038
L42.1108 29.8610
" />
<path d="M42.1108 29.8610
L42.1108 29.7657
" />
<path d="M42.1108 31.1467
L42.1108 30.5752
" />
<path d="M42.1108 30.8610
L41.1108 30.8610
" />
<path d="M41.1108 30.8610
L41.2537 30.7657
" />
<path d="M41.2537 30.7657
L41.3489 30.6705
" />
<path d="M41.3489 30.6705
L41.3965 30.5752
" />
</g></g>
<g style="fill:#000000; fill-opacity:0.0; 
stroke:#000000; stroke-width:0.1000; stroke-opacity:1; 
stroke-linecap:round; stroke-linejoin:round;">
<path d="M31.4760 34.9300
L50.8360 34.9300
" />
<path d="M43.7060 34.9300
L43.7060 33.7300
" />
<path d="M50.8360 34.9300
L51.8360 33.9300
" />
<path d="M51.8360 33.9300
L51.8360 26.0300
" />
<path d="M32.6660 33.7300
L39.6060 33.7300
" />
<path d="M39.6060 33.7300
L39.6060 34.9300
" />
</g>
<g style="fill:#000000; fill-opacity:1.0000; 
stroke:#000000; stroke-width:0.0000; stroke-opacity:1; 
stroke-linecap:round; stroke-linejoin:round;">
<circle cx="39.6060" cy="33.7300" r="0.0500" /> 
</g>
<g style="fill:#000000; fill-opacity:1.0000; 
stroke:#000000; stroke-width:0.1000; stroke-opacity:1; 
stroke-linecap:round; stroke-linejoin:round;">
</g>
<g style="fill:#000000; fill-opacity:0.0; 
stroke:#000000; stroke-width:0.1000; stroke-opacity:1; 
stroke-linecap:round; stroke-linejoin:round;">
<path d="M43.7060 33.7300
L50.6460 33.7300
" />
<path d="M50.6460 33.7300
L50.6460 27.2300
" />
<path d="M32.6660 27.2300
L32.6660 33.7300
" />
<path d="M50.6460 27.2300
L32.6660 27.2300
" />
<path d="M31.4760 26.0300
L31.4760 34.9300
" />
<path d="M51.8360 26.0300
L31.4760 26.0300
" />
<g >
</g>
<g >
</g>
<g >
</g>
<g >
</g>
<g >
</g>
<g >
</g>
<g >
</g>
<g >
</g>
<g >
</g>
<g >
</g>
<g >
</g>
<g >
</g>
<g >
</g>
<g >
</g>
<g >
</g>
<g >
</g>
<g >
</g>
<g >
</g>
<g >
</g>
<g >
</g>
<g >
</g>
<g >
</g>
<g >
</g>
<g >
</g>
<g >
</g>
<g >
</g>
<g >
</g>
<g >
</g>
<g >
</g>
<g >
</g>
<g >
</g>
<g >
</g>
<g >
</g>
<g >
</g>
<g >
</g>
<g >
</g>
<g >
</g>
<g >
</g>
<g >
</g>
<g >
</g>
<g >
</g>
<g >
</g>
<g >
</g>
<g >
</g>
<g >
</g>
<g >
</g>
<g >
</g>
<g >
</g>
<g >
</g>
<g >
</g>
<g >
</g>
<g >
</g>
<g >
</g>
<g >
</g>
<g >
</g>
<g >
</g>
<g >
</g>
<g >
</g>
<g >
</g>
<g >
</g>
<g >
</g>
<g >
</g>
<g >
</g>
<g >
</g>
<g >
</g>
<g >
</g>
<g >
</g>
<g >
</g>
<g >
</g>
<g >
</g>
<g >
</g>
<g >
</g>
<g >
</g>
<g >
</g>
<g >
</g>
<g >
</g>
<g >
</g>
<g >
</g>
<g >
</g>
<g >
</g>
<g >
</g>
<g >
</g>
<g >
</g>
<g >
</g>
<g >
</g>
<g >
</g>
<g >
</g>
<g >
</g>
<g >
</g>
<g >
</g>
<g >
</g>
<g >
</g>
<g >
</g>
<g >
</g>
<g >
</g>
<g >
</g>
<g >
</g>
<g >
</g>
<g >
</g>
<g >
</g>
<g >
</g>
<g >
</g>
<g >
</g>
<g >
</g>
<g >
</g>
<g >
</g>
<g >
</g>
</g> 
</svg>
