<?xml version="1.0" encoding="utf-8" standalone="no"?>
<!DOCTYPE svg PUBLIC "-//W3C//DTD SVG 1.1//EN"
  "http://www.w3.org/Graphics/SVG/1.1/DTD/svg11.dtd">
<!-- Created with matplotlib (https://matplotlib.org/) -->
<svg height="344.06pt" version="1.1" viewBox="0 0 464.3 344.06" width="464.3pt" xmlns="http://www.w3.org/2000/svg" xmlns:xlink="http://www.w3.org/1999/xlink">
 <metadata>
  <rdf:RDF xmlns:cc="http://creativecommons.org/ns#" xmlns:dc="http://purl.org/dc/elements/1.1/" xmlns:rdf="http://www.w3.org/1999/02/22-rdf-syntax-ns#">
   <cc:Work>
    <dc:type rdf:resource="http://purl.org/dc/dcmitype/StillImage"/>
    <dc:date>2020-07-24T22:48:31.832567</dc:date>
    <dc:format>image/svg+xml</dc:format>
    <dc:creator>
     <cc:Agent>
      <dc:title>Matplotlib v3.3.0, https://matplotlib.org/</dc:title>
     </cc:Agent>
    </dc:creator>
   </cc:Work>
  </rdf:RDF>
 </metadata>
 <defs>
  <style type="text/css">*{stroke-linecap:butt;stroke-linejoin:round;}</style>
 </defs>
 <g id="figure_1">
  <g id="patch_1">
   <path d="M 0 344.06 
L 464.3 344.06 
L 464.3 0 
L 0 0 
z
" style="fill:none;"/>
  </g>
  <g id="axes_1">
   <g id="patch_2">
    <path d="M 10.7 333.36 
L 457.1 333.36 
L 457.1 7.2 
L 10.7 7.2 
z
" style="fill:#ffffff;"/>
   </g>
   <g id="EllipseCollection_1">
    <defs>
     <path d="M 0 1.398496 
C 0.370886 1.398496 0.72663 1.251142 0.988886 0.988886 
C 1.251142 0.72663 1.398496 0.370886 1.398496 -0 
C 1.398496 -0.370886 1.251142 -0.72663 0.988886 -0.988886 
C 0.72663 -1.251142 0.370886 -1.398496 0 -1.398496 
C -0.370886 -1.398496 -0.72663 -1.251142 -0.988886 -0.988886 
C -1.251142 -0.72663 -1.398496 -0.370886 -1.398496 0 
C -1.398496 0.370886 -1.251142 0.72663 -0.988886 0.988886 
C -0.72663 1.251142 -0.370886 1.398496 0 1.398496 
z
" id="C0_0_28bc4961ea"/>
    </defs>
    <g clip-path="url(#pcedbf2a0d1)">
     <use style="fill:#008000;" x="162.576692" xlink:href="#C0_0_28bc4961ea" y="116.857444"/>
    </g>
    <g clip-path="url(#pcedbf2a0d1)">
     <use style="fill:#008000;" x="126.215789" xlink:href="#C0_0_28bc4961ea" y="111.263459"/>
    </g>
    <g clip-path="url(#pcedbf2a0d1)">
     <use style="fill:#008000;" x="87.057895" xlink:href="#C0_0_28bc4961ea" y="111.263459"/>
    </g>
    <g clip-path="url(#pcedbf2a0d1)">
     <use style="fill:#008000;" x="101.042857" xlink:href="#C0_0_28bc4961ea" y="111.263459"/>
    </g>
    <g clip-path="url(#pcedbf2a0d1)">
     <use style="fill:#008000;" x="101.042857" xlink:href="#C0_0_28bc4961ea" y="128.045414"/>
    </g>
    <g clip-path="url(#pcedbf2a0d1)">
     <use style="fill:#008000;" x="260.471429" xlink:href="#C0_0_28bc4961ea" y="153.218346"/>
    </g>
    <g clip-path="url(#pcedbf2a0d1)">
     <use style="fill:#008000;" x="363.96015" xlink:href="#C0_0_28bc4961ea" y="164.406316"/>
    </g>
    <g clip-path="url(#pcedbf2a0d1)">
     <use style="fill:#008000;" x="299.629323" xlink:href="#C0_0_28bc4961ea" y="158.812331"/>
    </g>
    <g clip-path="url(#pcedbf2a0d1)">
     <use style="fill:#008000;" x="324.802256" xlink:href="#C0_0_28bc4961ea" y="158.812331"/>
    </g>
   </g>
   <g id="PathCollection_1">
    <path clip-path="url(#pcedbf2a0d1)" d="M 50.696992 111.263459 
L 50.696992 116.857444 
L 47.9 116.857444 
L 47.9 111.263459 
L 50.696992 111.263459 
" style="fill:none;stroke:#a52a2a;stroke-width:0.895038;"/>
    <path clip-path="url(#pcedbf2a0d1)" d="M 61.884962 102.872481 
L 61.884962 122.451429 
L 50.696992 122.451429 
L 50.696992 102.872481 
L 61.884962 102.872481 
" style="fill:none;stroke:#a52a2a;stroke-width:0.895038;"/>
    <path clip-path="url(#pcedbf2a0d1)" d="M 60.206767 111.822857 
L 60.766165 112.941654 
" style="fill:none;stroke:#a52a2a;stroke-width:0.895038;"/>
    <path clip-path="url(#pcedbf2a0d1)" d="M 56.290977 111.263459 
L 57.689474 112.661955 
L 59.08797 111.263459 
L 61.884962 111.263459 
" style="fill:none;stroke:#a52a2a;stroke-width:0.895038;"/>
    <path clip-path="url(#pcedbf2a0d1)" d="M 61.884962 116.857444 
L 60.206767 116.857444 
L 60.206767 111.822857 
L 59.647368 112.941654 
" style="fill:none;stroke:#a52a2a;stroke-width:0.895038;"/>
    <path clip-path="url(#pcedbf2a0d1)" d="M 61.884962 105.669474 
L 54.892481 105.669474 
L 54.892481 111.263459 
L 53.493985 112.661955 
L 52.095489 111.263459 
" style="fill:none;stroke:#a52a2a;stroke-width:0.895038;"/>
    <path clip-path="url(#pcedbf2a0d1)" d="M 67.478947 105.669474 
L 61.884962 105.669474 
" style="fill:none;stroke:#a52a2a;stroke-width:0.895038;"/>
    <path clip-path="url(#pcedbf2a0d1)" d="M 67.478947 111.263459 
L 61.884962 111.263459 
" style="fill:none;stroke:#a52a2a;stroke-width:0.895038;"/>
    <path clip-path="url(#pcedbf2a0d1)" d="M 67.478947 116.857444 
L 61.884962 116.857444 
" style="fill:none;stroke:#a52a2a;stroke-width:0.895038;"/>
   </g>
   <g id="PathCollection_2">
    <path clip-path="url(#pcedbf2a0d1)" d="M 417.103008 164.406316 
L 417.103008 170.000301 
L 419.9 170.000301 
L 419.9 164.406316 
L 417.103008 164.406316 
" style="fill:none;stroke:#a52a2a;stroke-width:0.895038;"/>
    <path clip-path="url(#pcedbf2a0d1)" d="M 405.915038 156.015338 
L 405.915038 175.594286 
L 417.103008 175.594286 
L 417.103008 156.015338 
L 405.915038 156.015338 
" style="fill:none;stroke:#a52a2a;stroke-width:0.895038;"/>
    <path clip-path="url(#pcedbf2a0d1)" d="M 407.593233 164.965714 
L 407.033835 166.084511 
" style="fill:none;stroke:#a52a2a;stroke-width:0.895038;"/>
    <path clip-path="url(#pcedbf2a0d1)" d="M 411.509023 164.406316 
L 410.110526 165.804812 
L 408.71203 164.406316 
L 405.915038 164.406316 
" style="fill:none;stroke:#a52a2a;stroke-width:0.895038;"/>
    <path clip-path="url(#pcedbf2a0d1)" d="M 405.915038 170.000301 
L 407.593233 170.000301 
L 407.593233 164.965714 
L 408.152632 166.084511 
" style="fill:none;stroke:#a52a2a;stroke-width:0.895038;"/>
    <path clip-path="url(#pcedbf2a0d1)" d="M 405.915038 158.812331 
L 412.907519 158.812331 
L 412.907519 164.406316 
L 414.306015 165.804812 
L 415.704511 164.406316 
" style="fill:none;stroke:#a52a2a;stroke-width:0.895038;"/>
    <path clip-path="url(#pcedbf2a0d1)" d="M 400.321053 158.812331 
L 405.915038 158.812331 
" style="fill:none;stroke:#a52a2a;stroke-width:0.895038;"/>
    <path clip-path="url(#pcedbf2a0d1)" d="M 400.321053 164.406316 
L 405.915038 164.406316 
" style="fill:none;stroke:#a52a2a;stroke-width:0.895038;"/>
    <path clip-path="url(#pcedbf2a0d1)" d="M 400.321053 170.000301 
L 405.915038 170.000301 
" style="fill:none;stroke:#a52a2a;stroke-width:0.895038;"/>
   </g>
   <g id="PathCollection_3">
    <defs>
     <path d="M 67.478947 -238.390526 
L 70.27594 -238.390526 
L 70.27594 -241.187519 
L 73.072932 -238.390526 
L 70.27594 -235.593534 
L 70.27594 -238.390526 
" id="m9ab545c8d4" style="stroke:#a52a2a;stroke-width:0.895038;"/>
    </defs>
    <g clip-path="url(#pcedbf2a0d1)">
     <use style="fill-opacity:0;stroke:#a52a2a;stroke-width:0.895038;" x="0" xlink:href="#m9ab545c8d4" y="344.06"/>
    </g>
   </g>
   <g id="PathCollection_4">
    <defs>
     <path d="M 400.321053 -185.247669 
L 397.52406 -185.247669 
L 397.52406 -182.450677 
L 394.727068 -185.247669 
L 397.52406 -188.044662 
L 397.52406 -185.247669 
" id="mf927e703f2" style="stroke:#a52a2a;stroke-width:0.895038;"/>
    </defs>
    <g clip-path="url(#pcedbf2a0d1)">
     <use style="fill-opacity:0;stroke:#a52a2a;stroke-width:0.895038;" x="0" xlink:href="#mf927e703f2" y="344.06"/>
    </g>
   </g>
   <g id="PathCollection_5">
    <path clip-path="url(#pcedbf2a0d1)" d="M 383.539098 166.64391 
L 372.351128 166.64391 
L 372.351128 162.168722 
L 383.539098 162.168722 
L 383.539098 166.64391 
" style="fill:none;stroke:#a52a2a;stroke-width:0.895038;"/>
    <path clip-path="url(#pcedbf2a0d1)" d="M 369.554135 164.406316 
L 372.351128 164.406316 
" style="fill:none;stroke:#a52a2a;stroke-width:0.895038;"/>
    <path clip-path="url(#pcedbf2a0d1)" d="M 386.33609 164.406316 
L 383.539098 164.406316 
" style="fill:none;stroke:#a52a2a;stroke-width:0.895038;"/>
   </g>
   <g id="PathCollection_6">
    <path clip-path="url(#pcedbf2a0d1)" d="M 89.295489 133.639398 
L 89.295489 122.451429 
L 84.820301 122.451429 
L 84.820301 133.639398 
L 89.295489 133.639398 
" style="fill:none;stroke:#a52a2a;stroke-width:0.895038;"/>
    <path clip-path="url(#pcedbf2a0d1)" d="M 92.65188 128.045414 
L 90.414286 128.045414 
" style="fill:none;stroke:#a52a2a;stroke-width:0.895038;"/>
    <path clip-path="url(#pcedbf2a0d1)" d="M 89.575188 128.045414 
L 92.092481 129.164211 
L 92.092481 126.926617 
L 89.575188 128.045414 
" style="fill:none;stroke:#a52a2a;stroke-width:0.895038;"/>
    <path clip-path="url(#pcedbf2a0d1)" d="M 87.057895 136.436391 
L 87.057895 133.639398 
" style="fill:none;stroke:#a52a2a;stroke-width:0.895038;"/>
    <path clip-path="url(#pcedbf2a0d1)" d="M 95.448872 128.045414 
L 92.65188 128.045414 
" style="fill:none;stroke:#a52a2a;stroke-width:0.895038;"/>
    <path clip-path="url(#pcedbf2a0d1)" d="M 87.057895 119.654436 
L 87.057895 122.451429 
" style="fill:none;stroke:#a52a2a;stroke-width:0.895038;"/>
   </g>
   <g id="PathCollection_7">
    <defs>
     <path d="M 87.057895 -207.623609 
L 87.057895 -204.826617 
L 89.854887 -204.826617 
L 87.057895 -202.029624 
L 84.260902 -204.826617 
L 87.057895 -204.826617 
" id="m48c465b71c" style="stroke:#a52a2a;stroke-width:0.895038;"/>
    </defs>
    <g clip-path="url(#pcedbf2a0d1)">
     <use style="fill-opacity:0;stroke:#a52a2a;stroke-width:0.895038;" x="0" xlink:href="#m48c465b71c" y="344.06"/>
    </g>
   </g>
   <g id="PathCollection_8">
    <path clip-path="url(#pcedbf2a0d1)" d="M 106.636842 109.025865 
L 117.824812 109.025865 
L 117.824812 113.501053 
L 106.636842 113.501053 
L 106.636842 109.025865 
" style="fill:none;stroke:#a52a2a;stroke-width:0.895038;"/>
    <path clip-path="url(#pcedbf2a0d1)" d="M 120.621805 111.263459 
L 117.824812 111.263459 
" style="fill:none;stroke:#a52a2a;stroke-width:0.895038;"/>
    <path clip-path="url(#pcedbf2a0d1)" d="M 103.83985 111.263459 
L 106.636842 111.263459 
" style="fill:none;stroke:#a52a2a;stroke-width:0.895038;"/>
   </g>
   <g id="PathCollection_9">
    <path clip-path="url(#pcedbf2a0d1)" d="M 140.200752 86.649925 
L 151.388722 86.649925 
L 151.388722 91.125113 
L 140.200752 91.125113 
L 140.200752 86.649925 
" style="fill:none;stroke:#a52a2a;stroke-width:0.895038;"/>
    <path clip-path="url(#pcedbf2a0d1)" d="M 154.185714 88.887519 
L 151.388722 88.887519 
" style="fill:none;stroke:#a52a2a;stroke-width:0.895038;"/>
    <path clip-path="url(#pcedbf2a0d1)" d="M 137.403759 88.887519 
L 140.200752 88.887519 
" style="fill:none;stroke:#a52a2a;stroke-width:0.895038;"/>
   </g>
   <g id="PathCollection_10">
    <path clip-path="url(#pcedbf2a0d1)" d="M 131.809774 128.045414 
L 154.185714 116.857444 
L 131.809774 105.669474 
L 131.809774 128.045414 
" style="fill:none;stroke:#a52a2a;stroke-width:0.895038;"/>
    <path clip-path="url(#pcedbf2a0d1)" d="M 159.779699 116.857444 
L 154.185714 116.857444 
" style="fill:none;stroke:#a52a2a;stroke-width:0.895038;"/>
    <path clip-path="url(#pcedbf2a0d1)" d="M 126.215789 111.263459 
L 131.809774 111.263459 
" style="fill:none;stroke:#a52a2a;stroke-width:0.895038;"/>
    <path clip-path="url(#pcedbf2a0d1)" d="M 126.215789 122.451429 
L 131.809774 122.451429 
" style="fill:none;stroke:#a52a2a;stroke-width:0.895038;"/>
   </g>
   <g id="PathCollection_11">
    <path clip-path="url(#pcedbf2a0d1)" d="M 103.280451 114.060451 
L 103.280451 125.248421 
L 98.805263 125.248421 
L 98.805263 114.060451 
L 103.280451 114.060451 
" style="fill:none;stroke:#a52a2a;stroke-width:0.895038;"/>
    <path clip-path="url(#pcedbf2a0d1)" d="M 101.042857 128.045414 
L 101.042857 125.248421 
" style="fill:none;stroke:#a52a2a;stroke-width:0.895038;"/>
    <path clip-path="url(#pcedbf2a0d1)" d="M 101.042857 111.263459 
L 101.042857 114.060451 
" style="fill:none;stroke:#a52a2a;stroke-width:0.895038;"/>
   </g>
   <g id="PathCollection_12">
    <path clip-path="url(#pcedbf2a0d1)" d="M 103.280451 130.842406 
L 103.280451 142.030376 
L 98.805263 142.030376 
L 98.805263 130.842406 
L 103.280451 130.842406 
" style="fill:none;stroke:#a52a2a;stroke-width:0.895038;"/>
    <path clip-path="url(#pcedbf2a0d1)" d="M 101.042857 144.827368 
L 101.042857 142.030376 
" style="fill:none;stroke:#a52a2a;stroke-width:0.895038;"/>
    <path clip-path="url(#pcedbf2a0d1)" d="M 101.042857 128.045414 
L 101.042857 130.842406 
" style="fill:none;stroke:#a52a2a;stroke-width:0.895038;"/>
   </g>
   <g id="PathCollection_13">
    <defs>
     <path d="M 101.042857 -199.232632 
L 101.042857 -196.435639 
L 103.83985 -196.435639 
L 101.042857 -193.638647 
L 98.245865 -196.435639 
L 101.042857 -196.435639 
" id="md759306afa" style="stroke:#a52a2a;stroke-width:0.895038;"/>
    </defs>
    <g clip-path="url(#pcedbf2a0d1)">
     <use style="fill-opacity:0;stroke:#a52a2a;stroke-width:0.895038;" x="0" xlink:href="#md759306afa" y="344.06"/>
    </g>
   </g>
   <g id="PathCollection_14">
    <path clip-path="url(#pcedbf2a0d1)" d="M 229.704511 105.110075 
L 218.516541 105.110075 
L 218.516541 100.634887 
L 229.704511 100.634887 
L 229.704511 105.110075 
" style="fill:none;stroke:#a52a2a;stroke-width:0.895038;"/>
    <path clip-path="url(#pcedbf2a0d1)" d="M 215.719549 102.872481 
L 218.516541 102.872481 
" style="fill:none;stroke:#a52a2a;stroke-width:0.895038;"/>
    <path clip-path="url(#pcedbf2a0d1)" d="M 232.501504 102.872481 
L 229.704511 102.872481 
" style="fill:none;stroke:#a52a2a;stroke-width:0.895038;"/>
   </g>
   <g id="PathCollection_15">
    <path clip-path="url(#pcedbf2a0d1)" d="M 288.441353 121.89203 
L 277.253383 121.89203 
L 277.253383 117.416842 
L 288.441353 117.416842 
L 288.441353 121.89203 
" style="fill:none;stroke:#a52a2a;stroke-width:0.895038;"/>
    <path clip-path="url(#pcedbf2a0d1)" d="M 274.456391 119.654436 
L 277.253383 119.654436 
" style="fill:none;stroke:#a52a2a;stroke-width:0.895038;"/>
    <path clip-path="url(#pcedbf2a0d1)" d="M 291.238346 119.654436 
L 288.441353 119.654436 
" style="fill:none;stroke:#a52a2a;stroke-width:0.895038;"/>
   </g>
   <g id="PathCollection_16">
    <defs>
     <path d="M 260.471429 -176.856692 
L 260.471429 -174.059699 
L 263.268421 -174.059699 
L 260.471429 -171.262707 
L 257.674436 -174.059699 
L 260.471429 -174.059699 
" id="m469e60d373" style="stroke:#a52a2a;stroke-width:0.895038;"/>
    </defs>
    <g clip-path="url(#pcedbf2a0d1)">
     <use style="fill-opacity:0;stroke:#a52a2a;stroke-width:0.895038;" x="0" xlink:href="#m469e60d373" y="344.06"/>
    </g>
   </g>
   <g id="PathCollection_17">
    <path clip-path="url(#pcedbf2a0d1)" d="M 319.208271 161.049925 
L 308.020301 161.049925 
L 308.020301 156.574737 
L 319.208271 156.574737 
L 319.208271 161.049925 
" style="fill:none;stroke:#a52a2a;stroke-width:0.895038;"/>
    <path clip-path="url(#pcedbf2a0d1)" d="M 305.223308 158.812331 
L 308.020301 158.812331 
" style="fill:none;stroke:#a52a2a;stroke-width:0.895038;"/>
    <path clip-path="url(#pcedbf2a0d1)" d="M 322.005263 158.812331 
L 319.208271 158.812331 
" style="fill:none;stroke:#a52a2a;stroke-width:0.895038;"/>
   </g>
   <g id="PathCollection_18">
    <path clip-path="url(#pcedbf2a0d1)" d="M 352.77218 127.486015 
L 341.584211 127.486015 
L 341.584211 123.010827 
L 352.77218 123.010827 
L 352.77218 127.486015 
" style="fill:none;stroke:#a52a2a;stroke-width:0.895038;"/>
    <path clip-path="url(#pcedbf2a0d1)" d="M 338.787218 125.248421 
L 341.584211 125.248421 
" style="fill:none;stroke:#a52a2a;stroke-width:0.895038;"/>
    <path clip-path="url(#pcedbf2a0d1)" d="M 355.569173 125.248421 
L 352.77218 125.248421 
" style="fill:none;stroke:#a52a2a;stroke-width:0.895038;"/>
   </g>
   <g id="PathCollection_19">
    <defs>
     <path d="M 324.802256 -171.262707 
L 324.802256 -168.465714 
L 327.599248 -168.465714 
L 324.802256 -165.668722 
L 322.005263 -168.465714 
L 324.802256 -168.465714 
" id="m6f15390681" style="stroke:#a52a2a;stroke-width:0.895038;"/>
    </defs>
    <g clip-path="url(#pcedbf2a0d1)">
     <use style="fill-opacity:0;stroke:#a52a2a;stroke-width:0.895038;" x="0" xlink:href="#m6f15390681" y="344.06"/>
    </g>
   </g>
   <g id="PathCollection_20">
    <path clip-path="url(#pcedbf2a0d1)" d="M 268.862406 170.000301 
L 291.238346 158.812331 
L 268.862406 147.624361 
L 268.862406 170.000301 
" style="fill:none;stroke:#a52a2a;stroke-width:0.895038;"/>
    <path clip-path="url(#pcedbf2a0d1)" d="M 296.832331 158.812331 
L 291.238346 158.812331 
" style="fill:none;stroke:#a52a2a;stroke-width:0.895038;"/>
    <path clip-path="url(#pcedbf2a0d1)" d="M 263.268421 153.218346 
L 268.862406 153.218346 
" style="fill:none;stroke:#a52a2a;stroke-width:0.895038;"/>
    <path clip-path="url(#pcedbf2a0d1)" d="M 263.268421 164.406316 
L 268.862406 164.406316 
" style="fill:none;stroke:#a52a2a;stroke-width:0.895038;"/>
   </g>
   <g id="PathCollection_21">
    <path clip-path="url(#pcedbf2a0d1)" d="M 333.193233 175.594286 
L 355.569173 164.406316 
L 333.193233 153.218346 
L 333.193233 175.594286 
" style="fill:none;stroke:#a52a2a;stroke-width:0.895038;"/>
    <path clip-path="url(#pcedbf2a0d1)" d="M 361.163158 164.406316 
L 355.569173 164.406316 
" style="fill:none;stroke:#a52a2a;stroke-width:0.895038;"/>
    <path clip-path="url(#pcedbf2a0d1)" d="M 327.599248 158.812331 
L 333.193233 158.812331 
" style="fill:none;stroke:#a52a2a;stroke-width:0.895038;"/>
    <path clip-path="url(#pcedbf2a0d1)" d="M 327.599248 170.000301 
L 333.193233 170.000301 
" style="fill:none;stroke:#a52a2a;stroke-width:0.895038;"/>
   </g>
   <g id="PathCollection_22">
    <path clip-path="url(#pcedbf2a0d1)" d="M 232.501504 248.31609 
L 232.501504 239.925113 
" style="fill:none;stroke:#a52a2a;stroke-width:0.895038;"/>
    <path clip-path="url(#pcedbf2a0d1)" d="M 232.501504 214.75218 
L 232.501504 223.143158 
" style="fill:none;stroke:#a52a2a;stroke-width:0.895038;"/>
   </g>
   <g id="PathCollection_23">
    <defs>
     <path d="M 232.501504 -95.74391 
L 232.501504 -92.946917 
L 230.823308 -92.946917 
L 232.501504 -90.149925 
L 234.179699 -92.946917 
L 232.501504 -92.946917 
" id="mbb34725e87" style="stroke:#a52a2a;stroke-width:0.895038;"/>
    </defs>
    <g clip-path="url(#pcedbf2a0d1)">
     <use style="fill-opacity:0;stroke:#a52a2a;stroke-width:0.895038;" x="0" xlink:href="#mbb34725e87" y="344.06"/>
    </g>
   </g>
   <g id="PathCollection_24">
    <path clip-path="url(#pcedbf2a0d1)" d="M 230.823308 211.955188 
L 232.501504 209.158195 
" style="fill:none;stroke:#a52a2a;stroke-width:0.895038;"/>
    <path clip-path="url(#pcedbf2a0d1)" d="M 232.501504 214.75218 
L 232.501504 209.158195 
" style="fill:none;stroke:#a52a2a;stroke-width:0.895038;"/>
    <path clip-path="url(#pcedbf2a0d1)" d="M 232.501504 209.158195 
L 234.179699 211.955188 
" style="fill:none;stroke:#a52a2a;stroke-width:0.895038;"/>
   </g>
   <g id="PathCollection_25">
    <path clip-path="url(#pcedbf2a0d1)" d="M 271.659398 248.31609 
L 271.659398 239.925113 
" style="fill:none;stroke:#a52a2a;stroke-width:0.895038;"/>
    <path clip-path="url(#pcedbf2a0d1)" d="M 271.659398 214.75218 
L 271.659398 223.143158 
" style="fill:none;stroke:#a52a2a;stroke-width:0.895038;"/>
   </g>
   <g id="PathCollection_26">
    <defs>
     <path d="M 271.659398 -95.74391 
L 271.659398 -92.946917 
L 269.981203 -92.946917 
L 271.659398 -90.149925 
L 273.337594 -92.946917 
L 271.659398 -92.946917 
" id="me5f8afea07" style="stroke:#a52a2a;stroke-width:0.895038;"/>
    </defs>
    <g clip-path="url(#pcedbf2a0d1)">
     <use style="fill-opacity:0;stroke:#a52a2a;stroke-width:0.895038;" x="0" xlink:href="#me5f8afea07" y="344.06"/>
    </g>
   </g>
   <g id="PathCollection_27">
    <path clip-path="url(#pcedbf2a0d1)" d="M 269.981203 211.955188 
L 271.659398 209.158195 
" style="fill:none;stroke:#a52a2a;stroke-width:0.895038;"/>
    <path clip-path="url(#pcedbf2a0d1)" d="M 271.659398 214.75218 
L 271.659398 209.158195 
" style="fill:none;stroke:#a52a2a;stroke-width:0.895038;"/>
    <path clip-path="url(#pcedbf2a0d1)" d="M 271.659398 209.158195 
L 273.337594 211.955188 
" style="fill:none;stroke:#a52a2a;stroke-width:0.895038;"/>
   </g>
   <g id="PathCollection_28">
    <path clip-path="url(#pcedbf2a0d1)" d="M 308.020301 248.31609 
L 308.020301 239.925113 
" style="fill:none;stroke:#a52a2a;stroke-width:0.895038;"/>
    <path clip-path="url(#pcedbf2a0d1)" d="M 308.020301 214.75218 
L 308.020301 223.143158 
" style="fill:none;stroke:#a52a2a;stroke-width:0.895038;"/>
   </g>
   <g id="PathCollection_29">
    <defs>
     <path d="M 308.020301 -95.74391 
L 308.020301 -92.946917 
L 306.342105 -92.946917 
L 308.020301 -90.149925 
L 309.698496 -92.946917 
L 308.020301 -92.946917 
" id="m4f880e05c7" style="stroke:#a52a2a;stroke-width:0.895038;"/>
    </defs>
    <g clip-path="url(#pcedbf2a0d1)">
     <use style="fill-opacity:0;stroke:#a52a2a;stroke-width:0.895038;" x="0" xlink:href="#m4f880e05c7" y="344.06"/>
    </g>
   </g>
   <g id="PathCollection_30">
    <path clip-path="url(#pcedbf2a0d1)" d="M 306.342105 211.955188 
L 308.020301 209.158195 
" style="fill:none;stroke:#a52a2a;stroke-width:0.895038;"/>
    <path clip-path="url(#pcedbf2a0d1)" d="M 308.020301 214.75218 
L 308.020301 209.158195 
" style="fill:none;stroke:#a52a2a;stroke-width:0.895038;"/>
    <path clip-path="url(#pcedbf2a0d1)" d="M 308.020301 209.158195 
L 309.698496 211.955188 
" style="fill:none;stroke:#a52a2a;stroke-width:0.895038;"/>
   </g>
   <g id="LineCollection_1">
    <path clip-path="url(#pcedbf2a0d1)" d="M 386.33609 164.406316 
L 400.321053 164.406316 
" style="fill:none;stroke:#008000;stroke-width:0.895038;"/>
    <path clip-path="url(#pcedbf2a0d1)" d="M 120.621805 111.263459 
L 126.215789 111.263459 
" style="fill:none;stroke:#008000;stroke-width:0.895038;"/>
    <path clip-path="url(#pcedbf2a0d1)" d="M 137.403759 88.887519 
L 126.215789 88.887519 
" style="fill:none;stroke:#008000;stroke-width:0.895038;"/>
    <path clip-path="url(#pcedbf2a0d1)" d="M 126.215789 88.887519 
L 126.215789 111.263459 
" style="fill:none;stroke:#008000;stroke-width:0.895038;"/>
    <path clip-path="url(#pcedbf2a0d1)" d="M 154.185714 88.887519 
L 162.576692 88.887519 
" style="fill:none;stroke:#008000;stroke-width:0.895038;"/>
    <path clip-path="url(#pcedbf2a0d1)" d="M 162.576692 88.887519 
L 162.576692 116.857444 
" style="fill:none;stroke:#008000;stroke-width:0.895038;"/>
    <path clip-path="url(#pcedbf2a0d1)" d="M 162.576692 116.857444 
L 159.779699 116.857444 
" style="fill:none;stroke:#008000;stroke-width:0.895038;"/>
    <path clip-path="url(#pcedbf2a0d1)" d="M 173.764662 116.857444 
L 162.576692 116.857444 
" style="fill:none;stroke:#008000;stroke-width:0.895038;"/>
    <path clip-path="url(#pcedbf2a0d1)" d="M 67.478947 111.263459 
L 87.057895 111.263459 
" style="fill:none;stroke:#008000;stroke-width:0.895038;"/>
    <path clip-path="url(#pcedbf2a0d1)" d="M 87.057895 111.263459 
L 101.042857 111.263459 
" style="fill:none;stroke:#008000;stroke-width:0.895038;"/>
    <path clip-path="url(#pcedbf2a0d1)" d="M 101.042857 111.263459 
L 103.83985 111.263459 
" style="fill:none;stroke:#008000;stroke-width:0.895038;"/>
    <path clip-path="url(#pcedbf2a0d1)" d="M 87.057895 111.263459 
L 87.057895 119.654436 
" style="fill:none;stroke:#008000;stroke-width:0.895038;"/>
    <path clip-path="url(#pcedbf2a0d1)" d="M 95.448872 128.045414 
L 101.042857 128.045414 
" style="fill:none;stroke:#008000;stroke-width:0.895038;"/>
    <path clip-path="url(#pcedbf2a0d1)" d="M 101.042857 128.045414 
L 126.215789 128.045414 
" style="fill:none;stroke:#008000;stroke-width:0.895038;"/>
    <path clip-path="url(#pcedbf2a0d1)" d="M 126.215789 128.045414 
L 126.215789 122.451429 
" style="fill:none;stroke:#008000;stroke-width:0.895038;"/>
    <path clip-path="url(#pcedbf2a0d1)" d="M 232.501504 102.872481 
L 235.298496 102.872481 
" style="fill:none;stroke:#008000;stroke-width:0.895038;"/>
    <path clip-path="url(#pcedbf2a0d1)" d="M 235.298496 153.218346 
L 260.471429 153.218346 
" style="fill:none;stroke:#008000;stroke-width:0.895038;"/>
    <path clip-path="url(#pcedbf2a0d1)" d="M 274.456391 119.654436 
L 260.471429 119.654436 
" style="fill:none;stroke:#008000;stroke-width:0.895038;"/>
    <path clip-path="url(#pcedbf2a0d1)" d="M 260.471429 119.654436 
L 260.471429 153.218346 
" style="fill:none;stroke:#008000;stroke-width:0.895038;"/>
    <path clip-path="url(#pcedbf2a0d1)" d="M 260.471429 153.218346 
L 263.268421 153.218346 
" style="fill:none;stroke:#008000;stroke-width:0.895038;"/>
    <path clip-path="url(#pcedbf2a0d1)" d="M 291.238346 119.654436 
L 299.629323 119.654436 
" style="fill:none;stroke:#008000;stroke-width:0.895038;"/>
    <path clip-path="url(#pcedbf2a0d1)" d="M 299.629323 119.654436 
L 299.629323 158.812331 
" style="fill:none;stroke:#008000;stroke-width:0.895038;"/>
    <path clip-path="url(#pcedbf2a0d1)" d="M 299.629323 158.812331 
L 296.832331 158.812331 
" style="fill:none;stroke:#008000;stroke-width:0.895038;"/>
    <path clip-path="url(#pcedbf2a0d1)" d="M 263.268421 164.406316 
L 260.471429 164.406316 
" style="fill:none;stroke:#008000;stroke-width:0.895038;"/>
    <path clip-path="url(#pcedbf2a0d1)" d="M 260.471429 164.406316 
L 260.471429 167.203308 
" style="fill:none;stroke:#008000;stroke-width:0.895038;"/>
    <path clip-path="url(#pcedbf2a0d1)" d="M 338.787218 125.248421 
L 324.802256 125.248421 
" style="fill:none;stroke:#008000;stroke-width:0.895038;"/>
    <path clip-path="url(#pcedbf2a0d1)" d="M 324.802256 125.248421 
L 324.802256 158.812331 
" style="fill:none;stroke:#008000;stroke-width:0.895038;"/>
    <path clip-path="url(#pcedbf2a0d1)" d="M 355.569173 125.248421 
L 363.96015 125.248421 
" style="fill:none;stroke:#008000;stroke-width:0.895038;"/>
    <path clip-path="url(#pcedbf2a0d1)" d="M 363.96015 125.248421 
L 363.96015 164.406316 
" style="fill:none;stroke:#008000;stroke-width:0.895038;"/>
    <path clip-path="url(#pcedbf2a0d1)" d="M 361.163158 164.406316 
L 363.96015 164.406316 
" style="fill:none;stroke:#008000;stroke-width:0.895038;"/>
    <path clip-path="url(#pcedbf2a0d1)" d="M 363.96015 164.406316 
L 369.554135 164.406316 
" style="fill:none;stroke:#008000;stroke-width:0.895038;"/>
    <path clip-path="url(#pcedbf2a0d1)" d="M 327.599248 158.812331 
L 324.802256 158.812331 
" style="fill:none;stroke:#008000;stroke-width:0.895038;"/>
    <path clip-path="url(#pcedbf2a0d1)" d="M 305.223308 158.812331 
L 299.629323 158.812331 
" style="fill:none;stroke:#008000;stroke-width:0.895038;"/>
    <path clip-path="url(#pcedbf2a0d1)" d="M 324.802256 158.812331 
L 322.005263 158.812331 
" style="fill:none;stroke:#008000;stroke-width:0.895038;"/>
    <path clip-path="url(#pcedbf2a0d1)" d="M 327.599248 170.000301 
L 324.802256 170.000301 
" style="fill:none;stroke:#008000;stroke-width:0.895038;"/>
    <path clip-path="url(#pcedbf2a0d1)" d="M 324.802256 170.000301 
L 324.802256 172.797293 
" style="fill:none;stroke:#008000;stroke-width:0.895038;"/>
    <path clip-path="url(#pcedbf2a0d1)" d="M 235.298496 102.872481 
L 235.298496 153.218346 
" style="fill:none;stroke:#008000;stroke-width:0.895038;"/>
   </g>
   <g id="LineCollection_2"/>
   <g id="LineCollection_3">
    <path clip-path="url(#pcedbf2a0d1)" d="M 400.319654 170.001699 
L 400.322451 169.998902 
" style="fill:none;stroke:#008000;stroke-width:0.895038;"/>
    <path clip-path="url(#pcedbf2a0d1)" d="M 400.322451 170.001699 
L 400.319654 169.998902 
" style="fill:none;stroke:#008000;stroke-width:0.895038;"/>
    <path clip-path="url(#pcedbf2a0d1)" d="M 67.477549 116.858842 
L 67.480346 116.856045 
" style="fill:none;stroke:#008000;stroke-width:0.895038;"/>
    <path clip-path="url(#pcedbf2a0d1)" d="M 67.480346 116.858842 
L 67.477549 116.856045 
" style="fill:none;stroke:#008000;stroke-width:0.895038;"/>
   </g>
   <g id="patch_3">
    <path d="M 10.7 333.36 
L 10.7 7.2 
" style="fill:none;stroke:#000000;stroke-linecap:square;stroke-linejoin:miter;stroke-width:0.8;"/>
   </g>
   <g id="patch_4">
    <path d="M 457.1 333.36 
L 457.1 7.2 
" style="fill:none;stroke:#000000;stroke-linecap:square;stroke-linejoin:miter;stroke-width:0.8;"/>
   </g>
   <g id="patch_5">
    <path d="M 10.7 333.36 
L 457.1 333.36 
" style="fill:none;stroke:#000000;stroke-linecap:square;stroke-linejoin:miter;stroke-width:0.8;"/>
   </g>
   <g id="patch_6">
    <path d="M 10.7 7.2 
L 457.1 7.2 
" style="fill:none;stroke:#000000;stroke-linecap:square;stroke-linejoin:miter;stroke-width:0.8;"/>
   </g>
   <g id="text_1">
    <g clip-path="url(#pcedbf2a0d1)">
     <!-- S -->
     <g style="fill:#a52a2a;" transform="translate(63.283459 105.50585)scale(0.044752 -0.044752)">
      <defs>
       <path d="M 53.515625 70.515625 
L 53.515625 60.890625 
Q 47.90625 63.578125 42.921875 64.890625 
Q 37.9375 66.21875 33.296875 66.21875 
Q 25.25 66.21875 20.875 63.09375 
Q 16.5 59.96875 16.5 54.203125 
Q 16.5 49.359375 19.40625 46.890625 
Q 22.3125 44.4375 30.421875 42.921875 
L 36.375 41.703125 
Q 47.40625 39.59375 52.65625 34.296875 
Q 57.90625 29 57.90625 20.125 
Q 57.90625 9.515625 50.796875 4.046875 
Q 43.703125 -1.421875 29.984375 -1.421875 
Q 24.8125 -1.421875 18.96875 -0.25 
Q 13.140625 0.921875 6.890625 3.21875 
L 6.890625 13.375 
Q 12.890625 10.015625 18.65625 8.296875 
Q 24.421875 6.59375 29.984375 6.59375 
Q 38.421875 6.59375 43.015625 9.90625 
Q 47.609375 13.234375 47.609375 19.390625 
Q 47.609375 24.75 44.3125 27.78125 
Q 41.015625 30.8125 33.5 32.328125 
L 27.484375 33.5 
Q 16.453125 35.6875 11.515625 40.375 
Q 6.59375 45.0625 6.59375 53.421875 
Q 6.59375 63.09375 13.40625 68.65625 
Q 20.21875 74.21875 32.171875 74.21875 
Q 37.3125 74.21875 42.625 73.28125 
Q 47.953125 72.359375 53.515625 70.515625 
z
" id="DejaVuSans-83"/>
      </defs>
      <use xlink:href="#DejaVuSans-83"/>
     </g>
    </g>
   </g>
   <g id="text_2">
    <g clip-path="url(#pcedbf2a0d1)">
     <!-- T -->
     <g style="fill:#a52a2a;" transform="translate(63.283459 111.099835)scale(0.044752 -0.044752)">
      <defs>
       <path d="M -0.296875 72.90625 
L 61.375 72.90625 
L 61.375 64.59375 
L 35.5 64.59375 
L 35.5 0 
L 25.59375 0 
L 25.59375 64.59375 
L -0.296875 64.59375 
z
" id="DejaVuSans-84"/>
      </defs>
      <use xlink:href="#DejaVuSans-84"/>
     </g>
    </g>
   </g>
   <g id="text_3">
    <g clip-path="url(#pcedbf2a0d1)">
     <!-- TN -->
     <g style="fill:#a52a2a;" transform="translate(63.283459 116.69382)scale(0.044752 -0.044752)">
      <defs>
       <path d="M 9.8125 72.90625 
L 23.09375 72.90625 
L 55.421875 11.921875 
L 55.421875 72.90625 
L 64.984375 72.90625 
L 64.984375 0 
L 51.703125 0 
L 19.390625 60.984375 
L 19.390625 0 
L 9.8125 0 
z
" id="DejaVuSans-78"/>
      </defs>
      <use xlink:href="#DejaVuSans-84"/>
      <use x="61.083984" xlink:href="#DejaVuSans-78"/>
     </g>
    </g>
   </g>
   <g id="text_4">
    <g clip-path="url(#pcedbf2a0d1)">
     <!-- J1 -->
     <g style="fill:#a52a2a;" transform="translate(55.997293 94.31788)scale(0.044752 -0.044752)">
      <defs>
       <path d="M 9.8125 72.90625 
L 19.671875 72.90625 
L 19.671875 5.078125 
Q 19.671875 -8.109375 14.671875 -14.0625 
Q 9.671875 -20.015625 -1.421875 -20.015625 
L -5.171875 -20.015625 
L -5.171875 -11.71875 
L -2.09375 -11.71875 
Q 4.4375 -11.71875 7.125 -8.046875 
Q 9.8125 -4.390625 9.8125 5.078125 
z
" id="DejaVuSans-74"/>
       <path d="M 12.40625 8.296875 
L 28.515625 8.296875 
L 28.515625 63.921875 
L 10.984375 60.40625 
L 10.984375 69.390625 
L 28.421875 72.90625 
L 38.28125 72.90625 
L 38.28125 8.296875 
L 54.390625 8.296875 
L 54.390625 0 
L 12.40625 0 
z
" id="DejaVuSans-49"/>
      </defs>
      <use xlink:href="#DejaVuSans-74"/>
      <use x="29.492188" xlink:href="#DejaVuSans-49"/>
     </g>
    </g>
   </g>
   <g id="text_5">
    <g clip-path="url(#pcedbf2a0d1)">
     <!-- IN -->
     <g style="fill:#a52a2a;" transform="translate(55.746962 99.408406)scale(0.044752 -0.044752)">
      <defs>
       <path d="M 9.8125 72.90625 
L 19.671875 72.90625 
L 19.671875 0 
L 9.8125 0 
z
" id="DejaVuSans-73"/>
      </defs>
      <use xlink:href="#DejaVuSans-73"/>
      <use x="29.492188" xlink:href="#DejaVuSans-78"/>
     </g>
    </g>
   </g>
   <g id="text_6">
    <g clip-path="url(#pcedbf2a0d1)">
     <!-- S -->
     <g style="fill:#a52a2a;" transform="translate(401.675496 158.648707)scale(0.044752 -0.044752)">
      <use xlink:href="#DejaVuSans-83"/>
     </g>
    </g>
   </g>
   <g id="text_7">
    <g clip-path="url(#pcedbf2a0d1)">
     <!-- T -->
     <g style="fill:#a52a2a;" transform="translate(401.78318 164.242692)scale(0.044752 -0.044752)">
      <use xlink:href="#DejaVuSans-84"/>
     </g>
    </g>
   </g>
   <g id="text_8">
    <g clip-path="url(#pcedbf2a0d1)">
     <!-- TN -->
     <g style="fill:#a52a2a;" transform="translate(398.43518 169.836677)scale(0.044752 -0.044752)">
      <use xlink:href="#DejaVuSans-84"/>
      <use x="61.083984" xlink:href="#DejaVuSans-78"/>
     </g>
    </g>
   </g>
   <g id="text_9">
    <g clip-path="url(#pcedbf2a0d1)">
     <!-- J2 -->
     <g style="fill:#a52a2a;" transform="translate(407.635188 147.460737)scale(0.044752 -0.044752)">
      <defs>
       <path d="M 19.1875 8.296875 
L 53.609375 8.296875 
L 53.609375 0 
L 7.328125 0 
L 7.328125 8.296875 
Q 12.9375 14.109375 22.625 23.890625 
Q 32.328125 33.6875 34.8125 36.53125 
Q 39.546875 41.84375 41.421875 45.53125 
Q 43.3125 49.21875 43.3125 52.78125 
Q 43.3125 58.59375 39.234375 62.25 
Q 35.15625 65.921875 28.609375 65.921875 
Q 23.96875 65.921875 18.8125 64.3125 
Q 13.671875 62.703125 7.8125 59.421875 
L 7.8125 69.390625 
Q 13.765625 71.78125 18.9375 73 
Q 24.125 74.21875 28.421875 74.21875 
Q 39.75 74.21875 46.484375 68.546875 
Q 53.21875 62.890625 53.21875 53.421875 
Q 53.21875 48.921875 51.53125 44.890625 
Q 49.859375 40.875 45.40625 35.40625 
Q 44.1875 33.984375 37.640625 27.21875 
Q 31.109375 20.453125 19.1875 8.296875 
z
" id="DejaVuSans-50"/>
      </defs>
      <use xlink:href="#DejaVuSans-74"/>
      <use x="29.492188" xlink:href="#DejaVuSans-50"/>
     </g>
    </g>
   </g>
   <g id="text_10">
    <g clip-path="url(#pcedbf2a0d1)">
     <!-- OUT -->
     <g style="fill:#a52a2a;" transform="translate(404.953222 152.551263)scale(0.044752 -0.044752)">
      <defs>
       <path d="M 39.40625 66.21875 
Q 28.65625 66.21875 22.328125 58.203125 
Q 16.015625 50.203125 16.015625 36.375 
Q 16.015625 22.609375 22.328125 14.59375 
Q 28.65625 6.59375 39.40625 6.59375 
Q 50.140625 6.59375 56.421875 14.59375 
Q 62.703125 22.609375 62.703125 36.375 
Q 62.703125 50.203125 56.421875 58.203125 
Q 50.140625 66.21875 39.40625 66.21875 
z
M 39.40625 74.21875 
Q 54.734375 74.21875 63.90625 63.9375 
Q 73.09375 53.65625 73.09375 36.375 
Q 73.09375 19.140625 63.90625 8.859375 
Q 54.734375 -1.421875 39.40625 -1.421875 
Q 24.03125 -1.421875 14.8125 8.828125 
Q 5.609375 19.09375 5.609375 36.375 
Q 5.609375 53.65625 14.8125 63.9375 
Q 24.03125 74.21875 39.40625 74.21875 
z
" id="DejaVuSans-79"/>
       <path d="M 8.6875 72.90625 
L 18.609375 72.90625 
L 18.609375 28.609375 
Q 18.609375 16.890625 22.84375 11.734375 
Q 27.09375 6.59375 36.625 6.59375 
Q 46.09375 6.59375 50.34375 11.734375 
Q 54.59375 16.890625 54.59375 28.609375 
L 54.59375 72.90625 
L 64.5 72.90625 
L 64.5 27.390625 
Q 64.5 13.140625 57.4375 5.859375 
Q 50.390625 -1.421875 36.625 -1.421875 
Q 22.796875 -1.421875 15.734375 5.859375 
Q 8.6875 13.140625 8.6875 27.390625 
z
" id="DejaVuSans-85"/>
      </defs>
      <use xlink:href="#DejaVuSans-79"/>
      <use x="78.710938" xlink:href="#DejaVuSans-85"/>
      <use x="151.904297" xlink:href="#DejaVuSans-84"/>
     </g>
    </g>
   </g>
   <g id="text_11">
    <g clip-path="url(#pcedbf2a0d1)">
     <!-- GND -->
     <g style="fill:#a52a2a;" transform="translate(78.391414 110.520508)rotate(-90)scale(0.044752 -0.044752)">
      <defs>
       <path d="M 59.515625 10.40625 
L 59.515625 29.984375 
L 43.40625 29.984375 
L 43.40625 38.09375 
L 69.28125 38.09375 
L 69.28125 6.78125 
Q 63.578125 2.734375 56.6875 0.65625 
Q 49.8125 -1.421875 42 -1.421875 
Q 24.90625 -1.421875 15.25 8.5625 
Q 5.609375 18.5625 5.609375 36.375 
Q 5.609375 54.25 15.25 64.234375 
Q 24.90625 74.21875 42 74.21875 
Q 49.125 74.21875 55.546875 72.453125 
Q 61.96875 70.703125 67.390625 67.28125 
L 67.390625 56.78125 
Q 61.921875 61.421875 55.765625 63.765625 
Q 49.609375 66.109375 42.828125 66.109375 
Q 29.4375 66.109375 22.71875 58.640625 
Q 16.015625 51.171875 16.015625 36.375 
Q 16.015625 21.625 22.71875 14.15625 
Q 29.4375 6.6875 42.828125 6.6875 
Q 48.046875 6.6875 52.140625 7.59375 
Q 56.25 8.5 59.515625 10.40625 
z
" id="DejaVuSans-71"/>
       <path d="M 19.671875 64.796875 
L 19.671875 8.109375 
L 31.59375 8.109375 
Q 46.6875 8.109375 53.6875 14.9375 
Q 60.6875 21.78125 60.6875 36.53125 
Q 60.6875 51.171875 53.6875 57.984375 
Q 46.6875 64.796875 31.59375 64.796875 
z
M 9.8125 72.90625 
L 30.078125 72.90625 
Q 51.265625 72.90625 61.171875 64.09375 
Q 71.09375 55.28125 71.09375 36.53125 
Q 71.09375 17.671875 61.125 8.828125 
Q 51.171875 0 30.078125 0 
L 9.8125 0 
z
" id="DejaVuSans-68"/>
      </defs>
      <use xlink:href="#DejaVuSans-71"/>
      <use x="77.490234" xlink:href="#DejaVuSans-78"/>
      <use x="152.294922" xlink:href="#DejaVuSans-68"/>
     </g>
    </g>
   </g>
   <g id="text_12">
    <g clip-path="url(#pcedbf2a0d1)">
     <!-- GND -->
     <g style="fill:#a52a2a;" transform="translate(391.878331 164.222763)rotate(-90)scale(0.044752 -0.044752)">
      <use xlink:href="#DejaVuSans-71"/>
      <use x="77.490234" xlink:href="#DejaVuSans-78"/>
      <use x="152.294922" xlink:href="#DejaVuSans-68"/>
     </g>
    </g>
   </g>
   <g id="text_13">
    <g clip-path="url(#pcedbf2a0d1)">
     <!-- R3 -->
     <g style="fill:#a52a2a;" transform="translate(381.753218 174.279)rotate(-90)scale(0.044752 -0.044752)">
      <defs>
       <path d="M 44.390625 34.1875 
Q 47.5625 33.109375 50.5625 29.59375 
Q 53.5625 26.078125 56.59375 19.921875 
L 66.609375 0 
L 56 0 
L 46.6875 18.703125 
Q 43.0625 26.03125 39.671875 28.421875 
Q 36.28125 30.8125 30.421875 30.8125 
L 19.671875 30.8125 
L 19.671875 0 
L 9.8125 0 
L 9.8125 72.90625 
L 32.078125 72.90625 
Q 44.578125 72.90625 50.734375 67.671875 
Q 56.890625 62.453125 56.890625 51.90625 
Q 56.890625 45.015625 53.6875 40.46875 
Q 50.484375 35.9375 44.390625 34.1875 
z
M 19.671875 64.796875 
L 19.671875 38.921875 
L 32.078125 38.921875 
Q 39.203125 38.921875 42.84375 42.21875 
Q 46.484375 45.515625 46.484375 51.90625 
Q 46.484375 58.296875 42.84375 61.546875 
Q 39.203125 64.796875 32.078125 64.796875 
z
" id="DejaVuSans-82"/>
       <path d="M 40.578125 39.3125 
Q 47.65625 37.796875 51.625 33 
Q 55.609375 28.21875 55.609375 21.1875 
Q 55.609375 10.40625 48.1875 4.484375 
Q 40.765625 -1.421875 27.09375 -1.421875 
Q 22.515625 -1.421875 17.65625 -0.515625 
Q 12.796875 0.390625 7.625 2.203125 
L 7.625 11.71875 
Q 11.71875 9.328125 16.59375 8.109375 
Q 21.484375 6.890625 26.8125 6.890625 
Q 36.078125 6.890625 40.9375 10.546875 
Q 45.796875 14.203125 45.796875 21.1875 
Q 45.796875 27.640625 41.28125 31.265625 
Q 36.765625 34.90625 28.71875 34.90625 
L 20.21875 34.90625 
L 20.21875 43.015625 
L 29.109375 43.015625 
Q 36.375 43.015625 40.234375 45.921875 
Q 44.09375 48.828125 44.09375 54.296875 
Q 44.09375 59.90625 40.109375 62.90625 
Q 36.140625 65.921875 28.71875 65.921875 
Q 24.65625 65.921875 20.015625 65.03125 
Q 15.375 64.15625 9.8125 62.3125 
L 9.8125 71.09375 
Q 15.4375 72.65625 20.34375 73.4375 
Q 25.25 74.21875 29.59375 74.21875 
Q 40.828125 74.21875 47.359375 69.109375 
Q 53.90625 64.015625 53.90625 55.328125 
Q 53.90625 49.265625 50.4375 45.09375 
Q 46.96875 40.921875 40.578125 39.3125 
z
" id="DejaVuSans-51"/>
      </defs>
      <use xlink:href="#DejaVuSans-82"/>
      <use x="69.482422" xlink:href="#DejaVuSans-51"/>
     </g>
    </g>
   </g>
   <g id="text_14">
    <g clip-path="url(#pcedbf2a0d1)">
     <!-- 1k -->
     <g style="fill:#a52a2a;" transform="translate(376.662692 173.760857)rotate(-90)scale(0.044752 -0.044752)">
      <defs>
       <path d="M 9.078125 75.984375 
L 18.109375 75.984375 
L 18.109375 31.109375 
L 44.921875 54.6875 
L 56.390625 54.6875 
L 27.390625 29.109375 
L 57.625 0 
L 45.90625 0 
L 18.109375 26.703125 
L 18.109375 0 
L 9.078125 0 
z
" id="DejaVuSans-107"/>
      </defs>
      <use xlink:href="#DejaVuSans-49"/>
      <use x="63.623047" xlink:href="#DejaVuSans-107"/>
     </g>
    </g>
   </g>
   <g id="text_15">
    <g clip-path="url(#pcedbf2a0d1)">
     <!-- 1 -->
     <g style="fill:#a52a2a;" transform="translate(86.894271 135.088241)rotate(-90)scale(0.044752 -0.044752)">
      <use xlink:href="#DejaVuSans-49"/>
     </g>
    </g>
   </g>
   <g id="text_16">
    <g clip-path="url(#pcedbf2a0d1)">
     <!-- 2 -->
     <g style="fill:#a52a2a;" transform="translate(91.253383 130.678782)scale(0.044752 -0.044752)">
      <use xlink:href="#DejaVuSans-50"/>
     </g>
    </g>
   </g>
   <g id="text_17">
    <g clip-path="url(#pcedbf2a0d1)">
     <!-- 3 -->
     <g style="fill:#a52a2a;" transform="translate(86.894271 123.849925)rotate(-90)scale(0.044752 -0.044752)">
      <use xlink:href="#DejaVuSans-51"/>
     </g>
    </g>
   </g>
   <g id="text_18">
    <g clip-path="url(#pcedbf2a0d1)">
     <!-- RV1 -->
     <g style="fill:#a52a2a;" transform="translate(74.425977 131.853519)scale(0.044752 -0.044752)">
      <defs>
       <path d="M 28.609375 0 
L 0.78125 72.90625 
L 11.078125 72.90625 
L 34.1875 11.53125 
L 57.328125 72.90625 
L 67.578125 72.90625 
L 39.796875 0 
z
" id="DejaVuSans-86"/>
      </defs>
      <use xlink:href="#DejaVuSans-82"/>
      <use x="63.982422" xlink:href="#DejaVuSans-86"/>
      <use x="132.390625" xlink:href="#DejaVuSans-49"/>
     </g>
    </g>
   </g>
   <g id="text_19">
    <g clip-path="url(#pcedbf2a0d1)">
     <!-- 10k -->
     <g style="fill:#a52a2a;" transform="translate(74.911955 126.762992)scale(0.044752 -0.044752)">
      <defs>
       <path d="M 31.78125 66.40625 
Q 24.171875 66.40625 20.328125 58.90625 
Q 16.5 51.421875 16.5 36.375 
Q 16.5 21.390625 20.328125 13.890625 
Q 24.171875 6.390625 31.78125 6.390625 
Q 39.453125 6.390625 43.28125 13.890625 
Q 47.125 21.390625 47.125 36.375 
Q 47.125 51.421875 43.28125 58.90625 
Q 39.453125 66.40625 31.78125 66.40625 
z
M 31.78125 74.21875 
Q 44.046875 74.21875 50.515625 64.515625 
Q 56.984375 54.828125 56.984375 36.375 
Q 56.984375 17.96875 50.515625 8.265625 
Q 44.046875 -1.421875 31.78125 -1.421875 
Q 19.53125 -1.421875 13.0625 8.265625 
Q 6.59375 17.96875 6.59375 36.375 
Q 6.59375 54.828125 13.0625 64.515625 
Q 19.53125 74.21875 31.78125 74.21875 
z
" id="DejaVuSans-48"/>
      </defs>
      <use xlink:href="#DejaVuSans-49"/>
      <use x="63.623047" xlink:href="#DejaVuSans-48"/>
      <use x="127.246094" xlink:href="#DejaVuSans-107"/>
     </g>
    </g>
   </g>
   <g id="text_20">
    <g clip-path="url(#pcedbf2a0d1)">
     <!-- GND -->
     <g style="fill:#a52a2a;" transform="translate(82.206861 147.348857)scale(0.044752 -0.044752)">
      <use xlink:href="#DejaVuSans-71"/>
      <use x="77.490234" xlink:href="#DejaVuSans-78"/>
      <use x="152.294922" xlink:href="#DejaVuSans-68"/>
     </g>
    </g>
   </g>
   <g id="text_21">
    <g clip-path="url(#pcedbf2a0d1)">
     <!-- R1 -->
     <g style="fill:#a52a2a;" transform="translate(109.25238 100.918782)scale(0.044752 -0.044752)">
      <use xlink:href="#DejaVuSans-82"/>
      <use x="69.482422" xlink:href="#DejaVuSans-49"/>
     </g>
    </g>
   </g>
   <g id="text_22">
    <g clip-path="url(#pcedbf2a0d1)">
     <!-- 10k -->
     <g style="fill:#a52a2a;" transform="translate(108.087782 106.009308)scale(0.044752 -0.044752)">
      <use xlink:href="#DejaVuSans-49"/>
      <use x="63.623047" xlink:href="#DejaVuSans-48"/>
      <use x="127.246094" xlink:href="#DejaVuSans-107"/>
     </g>
    </g>
   </g>
   <g id="text_23">
    <g clip-path="url(#pcedbf2a0d1)">
     <!-- R2 -->
     <g style="fill:#a52a2a;" transform="translate(142.816289 78.542842)scale(0.044752 -0.044752)">
      <use xlink:href="#DejaVuSans-82"/>
      <use x="69.482422" xlink:href="#DejaVuSans-50"/>
     </g>
    </g>
   </g>
   <g id="text_24">
    <g clip-path="url(#pcedbf2a0d1)">
     <!-- 10k -->
     <g style="fill:#a52a2a;" transform="translate(141.651692 83.633368)scale(0.044752 -0.044752)">
      <use xlink:href="#DejaVuSans-49"/>
      <use x="63.623047" xlink:href="#DejaVuSans-48"/>
      <use x="127.246094" xlink:href="#DejaVuSans-107"/>
     </g>
    </g>
   </g>
   <g id="text_25">
    <g clip-path="url(#pcedbf2a0d1)">
     <!-- 1 -->
     <g style="fill:#a52a2a;" transform="translate(155.584211 119.490812)scale(0.044752 -0.044752)">
      <use xlink:href="#DejaVuSans-49"/>
     </g>
    </g>
   </g>
   <g id="text_26">
    <g clip-path="url(#pcedbf2a0d1)">
     <!-- 2 -->
     <g style="fill:#a52a2a;" transform="translate(127.56394 113.896827)scale(0.044752 -0.044752)">
      <use xlink:href="#DejaVuSans-50"/>
     </g>
    </g>
   </g>
   <g id="text_27">
    <g clip-path="url(#pcedbf2a0d1)">
     <!-- - -->
     <g style="fill:#008000;" transform="translate(132.089474 112.498331)scale(0.044752 -0.044752)">
      <defs>
       <path d="M 4.890625 31.390625 
L 31.203125 31.390625 
L 31.203125 23.390625 
L 4.890625 23.390625 
z
" id="DejaVuSans-45"/>
      </defs>
      <use xlink:href="#DejaVuSans-45"/>
     </g>
    </g>
   </g>
   <g id="text_28">
    <g clip-path="url(#pcedbf2a0d1)">
     <!-- 3 -->
     <g style="fill:#a52a2a;" transform="translate(127.56394 125.084797)scale(0.044752 -0.044752)">
      <use xlink:href="#DejaVuSans-51"/>
     </g>
    </g>
   </g>
   <g id="text_29">
    <g clip-path="url(#pcedbf2a0d1)">
     <!-- + -->
     <g style="fill:#008000;" transform="translate(132.089474 123.686301)scale(0.044752 -0.044752)">
      <defs>
       <path d="M 46 62.703125 
L 46 35.5 
L 73.1875 35.5 
L 73.1875 27.203125 
L 46 27.203125 
L 46 0 
L 37.796875 0 
L 37.796875 27.203125 
L 10.59375 27.203125 
L 10.59375 35.5 
L 37.796875 35.5 
L 37.796875 62.703125 
z
" id="DejaVuSans-43"/>
      </defs>
      <use xlink:href="#DejaVuSans-43"/>
     </g>
    </g>
   </g>
   <g id="text_30">
    <g clip-path="url(#pcedbf2a0d1)">
     <!-- U1 -->
     <g style="fill:#a52a2a;" transform="translate(139.936436 97.562391)scale(0.044752 -0.044752)">
      <use xlink:href="#DejaVuSans-85"/>
      <use x="73.193359" xlink:href="#DejaVuSans-49"/>
     </g>
    </g>
   </g>
   <g id="text_31">
    <g clip-path="url(#pcedbf2a0d1)">
     <!-- OPA2134 -->
     <g style="fill:#a52a2a;" transform="translate(132.804455 102.652917)scale(0.044752 -0.044752)">
      <defs>
       <path d="M 19.671875 64.796875 
L 19.671875 37.40625 
L 32.078125 37.40625 
Q 38.96875 37.40625 42.71875 40.96875 
Q 46.484375 44.53125 46.484375 51.125 
Q 46.484375 57.671875 42.71875 61.234375 
Q 38.96875 64.796875 32.078125 64.796875 
z
M 9.8125 72.90625 
L 32.078125 72.90625 
Q 44.34375 72.90625 50.609375 67.359375 
Q 56.890625 61.8125 56.890625 51.125 
Q 56.890625 40.328125 50.609375 34.8125 
Q 44.34375 29.296875 32.078125 29.296875 
L 19.671875 29.296875 
L 19.671875 0 
L 9.8125 0 
z
" id="DejaVuSans-80"/>
       <path d="M 34.1875 63.1875 
L 20.796875 26.90625 
L 47.609375 26.90625 
z
M 28.609375 72.90625 
L 39.796875 72.90625 
L 67.578125 0 
L 57.328125 0 
L 50.6875 18.703125 
L 17.828125 18.703125 
L 11.1875 0 
L 0.78125 0 
z
" id="DejaVuSans-65"/>
       <path d="M 37.796875 64.3125 
L 12.890625 25.390625 
L 37.796875 25.390625 
z
M 35.203125 72.90625 
L 47.609375 72.90625 
L 47.609375 25.390625 
L 58.015625 25.390625 
L 58.015625 17.1875 
L 47.609375 17.1875 
L 47.609375 0 
L 37.796875 0 
L 37.796875 17.1875 
L 4.890625 17.1875 
L 4.890625 26.703125 
z
" id="DejaVuSans-52"/>
      </defs>
      <use xlink:href="#DejaVuSans-79"/>
      <use x="78.710938" xlink:href="#DejaVuSans-80"/>
      <use x="132.638672" xlink:href="#DejaVuSans-65"/>
      <use x="201.046875" xlink:href="#DejaVuSans-50"/>
      <use x="264.669922" xlink:href="#DejaVuSans-49"/>
      <use x="328.292969" xlink:href="#DejaVuSans-51"/>
      <use x="391.916016" xlink:href="#DejaVuSans-52"/>
     </g>
    </g>
   </g>
   <g id="text_32">
    <g clip-path="url(#pcedbf2a0d1)">
     <!-- R4 -->
     <g style="fill:#a52a2a;" transform="translate(113.857278 122.632883)rotate(-90)scale(0.044752 -0.044752)">
      <use xlink:href="#DejaVuSans-82"/>
      <use x="69.482422" xlink:href="#DejaVuSans-52"/>
     </g>
    </g>
   </g>
   <g id="text_33">
    <g clip-path="url(#pcedbf2a0d1)">
     <!-- 2.2k -->
     <g style="fill:#a52a2a;" transform="translate(108.766752 124.508617)rotate(-90)scale(0.044752 -0.044752)">
      <defs>
       <path d="M 10.6875 12.40625 
L 21 12.40625 
L 21 0 
L 10.6875 0 
z
" id="DejaVuSans-46"/>
      </defs>
      <use xlink:href="#DejaVuSans-50"/>
      <use x="63.623047" xlink:href="#DejaVuSans-46"/>
      <use x="95.410156" xlink:href="#DejaVuSans-50"/>
      <use x="159.033203" xlink:href="#DejaVuSans-107"/>
     </g>
    </g>
   </g>
   <g id="text_34">
    <g clip-path="url(#pcedbf2a0d1)">
     <!-- R5 -->
     <g style="fill:#a52a2a;" transform="translate(113.857278 139.414838)rotate(-90)scale(0.044752 -0.044752)">
      <defs>
       <path d="M 10.796875 72.90625 
L 49.515625 72.90625 
L 49.515625 64.59375 
L 19.828125 64.59375 
L 19.828125 46.734375 
Q 21.96875 47.46875 24.109375 47.828125 
Q 26.265625 48.1875 28.421875 48.1875 
Q 40.625 48.1875 47.75 41.5 
Q 54.890625 34.8125 54.890625 23.390625 
Q 54.890625 11.625 47.5625 5.09375 
Q 40.234375 -1.421875 26.90625 -1.421875 
Q 22.3125 -1.421875 17.546875 -0.640625 
Q 12.796875 0.140625 7.71875 1.703125 
L 7.71875 11.625 
Q 12.109375 9.234375 16.796875 8.0625 
Q 21.484375 6.890625 26.703125 6.890625 
Q 35.15625 6.890625 40.078125 11.328125 
Q 45.015625 15.765625 45.015625 23.390625 
Q 45.015625 31 40.078125 35.4375 
Q 35.15625 39.890625 26.703125 39.890625 
Q 22.75 39.890625 18.8125 39.015625 
Q 14.890625 38.140625 10.796875 36.28125 
z
" id="DejaVuSans-53"/>
      </defs>
      <use xlink:href="#DejaVuSans-82"/>
      <use x="69.482422" xlink:href="#DejaVuSans-53"/>
     </g>
    </g>
   </g>
   <g id="text_35">
    <g clip-path="url(#pcedbf2a0d1)">
     <!-- 2.2k -->
     <g style="fill:#a52a2a;" transform="translate(108.766752 141.290571)rotate(-90)scale(0.044752 -0.044752)">
      <use xlink:href="#DejaVuSans-50"/>
      <use x="63.623047" xlink:href="#DejaVuSans-46"/>
      <use x="95.410156" xlink:href="#DejaVuSans-50"/>
      <use x="159.033203" xlink:href="#DejaVuSans-107"/>
     </g>
    </g>
   </g>
   <g id="text_36">
    <g clip-path="url(#pcedbf2a0d1)">
     <!-- GND -->
     <g style="fill:#a52a2a;" transform="translate(96.191823 155.739835)scale(0.044752 -0.044752)">
      <use xlink:href="#DejaVuSans-71"/>
      <use x="77.490234" xlink:href="#DejaVuSans-78"/>
      <use x="152.294922" xlink:href="#DejaVuSans-68"/>
     </g>
    </g>
   </g>
   <g id="text_37">
    <g clip-path="url(#pcedbf2a0d1)">
     <!-- R21 -->
     <g style="fill:#a52a2a;" transform="translate(227.918632 115.592504)rotate(-90)scale(0.044752 -0.044752)">
      <use xlink:href="#DejaVuSans-82"/>
      <use x="69.482422" xlink:href="#DejaVuSans-50"/>
      <use x="133.105469" xlink:href="#DejaVuSans-49"/>
     </g>
    </g>
   </g>
   <g id="text_38">
    <g clip-path="url(#pcedbf2a0d1)">
     <!-- 10k -->
     <g style="fill:#a52a2a;" transform="translate(222.828105 115.074361)rotate(-90)scale(0.044752 -0.044752)">
      <use xlink:href="#DejaVuSans-49"/>
      <use x="63.623047" xlink:href="#DejaVuSans-48"/>
      <use x="127.246094" xlink:href="#DejaVuSans-107"/>
     </g>
    </g>
   </g>
   <g id="text_39">
    <g clip-path="url(#pcedbf2a0d1)">
     <!-- R25 -->
     <g style="fill:#a52a2a;" transform="translate(286.655474 132.374459)rotate(-90)scale(0.044752 -0.044752)">
      <use xlink:href="#DejaVuSans-82"/>
      <use x="69.482422" xlink:href="#DejaVuSans-50"/>
      <use x="133.105469" xlink:href="#DejaVuSans-53"/>
     </g>
    </g>
   </g>
   <g id="text_40">
    <g clip-path="url(#pcedbf2a0d1)">
     <!-- 10k -->
     <g style="fill:#a52a2a;" transform="translate(281.564947 131.856316)rotate(-90)scale(0.044752 -0.044752)">
      <use xlink:href="#DejaVuSans-49"/>
      <use x="63.623047" xlink:href="#DejaVuSans-48"/>
      <use x="127.246094" xlink:href="#DejaVuSans-107"/>
     </g>
    </g>
   </g>
   <g id="text_41">
    <g clip-path="url(#pcedbf2a0d1)">
     <!-- GND -->
     <g style="fill:#a52a2a;" transform="translate(255.620395 178.115774)scale(0.044752 -0.044752)">
      <use xlink:href="#DejaVuSans-71"/>
      <use x="77.490234" xlink:href="#DejaVuSans-78"/>
      <use x="152.294922" xlink:href="#DejaVuSans-68"/>
     </g>
    </g>
   </g>
   <g id="text_42">
    <g clip-path="url(#pcedbf2a0d1)">
     <!-- R26 -->
     <g style="fill:#a52a2a;" transform="translate(317.422391 171.532353)rotate(-90)scale(0.044752 -0.044752)">
      <defs>
       <path d="M 33.015625 40.375 
Q 26.375 40.375 22.484375 35.828125 
Q 18.609375 31.296875 18.609375 23.390625 
Q 18.609375 15.53125 22.484375 10.953125 
Q 26.375 6.390625 33.015625 6.390625 
Q 39.65625 6.390625 43.53125 10.953125 
Q 47.40625 15.53125 47.40625 23.390625 
Q 47.40625 31.296875 43.53125 35.828125 
Q 39.65625 40.375 33.015625 40.375 
z
M 52.59375 71.296875 
L 52.59375 62.3125 
Q 48.875 64.0625 45.09375 64.984375 
Q 41.3125 65.921875 37.59375 65.921875 
Q 27.828125 65.921875 22.671875 59.328125 
Q 17.53125 52.734375 16.796875 39.40625 
Q 19.671875 43.65625 24.015625 45.921875 
Q 28.375 48.1875 33.59375 48.1875 
Q 44.578125 48.1875 50.953125 41.515625 
Q 57.328125 34.859375 57.328125 23.390625 
Q 57.328125 12.15625 50.6875 5.359375 
Q 44.046875 -1.421875 33.015625 -1.421875 
Q 20.359375 -1.421875 13.671875 8.265625 
Q 6.984375 17.96875 6.984375 36.375 
Q 6.984375 53.65625 15.1875 63.9375 
Q 23.390625 74.21875 37.203125 74.21875 
Q 40.921875 74.21875 44.703125 73.484375 
Q 48.484375 72.75 52.59375 71.296875 
z
" id="DejaVuSans-54"/>
      </defs>
      <use xlink:href="#DejaVuSans-82"/>
      <use x="69.482422" xlink:href="#DejaVuSans-50"/>
      <use x="133.105469" xlink:href="#DejaVuSans-54"/>
     </g>
    </g>
   </g>
   <g id="text_43">
    <g clip-path="url(#pcedbf2a0d1)">
     <!-- 10k -->
     <g style="fill:#a52a2a;" transform="translate(312.331865 171.014211)rotate(-90)scale(0.044752 -0.044752)">
      <use xlink:href="#DejaVuSans-49"/>
      <use x="63.623047" xlink:href="#DejaVuSans-48"/>
      <use x="127.246094" xlink:href="#DejaVuSans-107"/>
     </g>
    </g>
   </g>
   <g id="text_44">
    <g clip-path="url(#pcedbf2a0d1)">
     <!-- R27 -->
     <g style="fill:#a52a2a;" transform="translate(350.986301 137.968444)rotate(-90)scale(0.044752 -0.044752)">
      <defs>
       <path d="M 8.203125 72.90625 
L 55.078125 72.90625 
L 55.078125 68.703125 
L 28.609375 0 
L 18.3125 0 
L 43.21875 64.59375 
L 8.203125 64.59375 
z
" id="DejaVuSans-55"/>
      </defs>
      <use xlink:href="#DejaVuSans-82"/>
      <use x="69.482422" xlink:href="#DejaVuSans-50"/>
      <use x="133.105469" xlink:href="#DejaVuSans-55"/>
     </g>
    </g>
   </g>
   <g id="text_45">
    <g clip-path="url(#pcedbf2a0d1)">
     <!-- 10k -->
     <g style="fill:#a52a2a;" transform="translate(345.895774 137.450301)rotate(-90)scale(0.044752 -0.044752)">
      <use xlink:href="#DejaVuSans-49"/>
      <use x="63.623047" xlink:href="#DejaVuSans-48"/>
      <use x="127.246094" xlink:href="#DejaVuSans-107"/>
     </g>
    </g>
   </g>
   <g id="text_46">
    <g clip-path="url(#pcedbf2a0d1)">
     <!-- GND -->
     <g style="fill:#a52a2a;" transform="translate(319.951222 183.709759)scale(0.044752 -0.044752)">
      <use xlink:href="#DejaVuSans-71"/>
      <use x="77.490234" xlink:href="#DejaVuSans-78"/>
      <use x="152.294922" xlink:href="#DejaVuSans-68"/>
     </g>
    </g>
   </g>
   <g id="text_47">
    <g clip-path="url(#pcedbf2a0d1)">
     <!-- 1 -->
     <g style="fill:#a52a2a;" transform="translate(292.636842 161.445699)scale(0.044752 -0.044752)">
      <use xlink:href="#DejaVuSans-49"/>
     </g>
    </g>
   </g>
   <g id="text_48">
    <g clip-path="url(#pcedbf2a0d1)">
     <!-- 2 -->
     <g style="fill:#a52a2a;" transform="translate(264.616571 155.851714)scale(0.044752 -0.044752)">
      <use xlink:href="#DejaVuSans-50"/>
     </g>
    </g>
   </g>
   <g id="text_49">
    <g clip-path="url(#pcedbf2a0d1)">
     <!-- - -->
     <g style="fill:#008000;" transform="translate(269.142105 154.453218)scale(0.044752 -0.044752)">
      <use xlink:href="#DejaVuSans-45"/>
     </g>
    </g>
   </g>
   <g id="text_50">
    <g clip-path="url(#pcedbf2a0d1)">
     <!-- 3 -->
     <g style="fill:#a52a2a;" transform="translate(264.616571 167.039684)scale(0.044752 -0.044752)">
      <use xlink:href="#DejaVuSans-51"/>
     </g>
    </g>
   </g>
   <g id="text_51">
    <g clip-path="url(#pcedbf2a0d1)">
     <!-- + -->
     <g style="fill:#008000;" transform="translate(269.142105 165.641188)scale(0.044752 -0.044752)">
      <use xlink:href="#DejaVuSans-43"/>
     </g>
    </g>
   </g>
   <g id="text_52">
    <g clip-path="url(#pcedbf2a0d1)">
     <!-- U2 -->
     <g style="fill:#a52a2a;" transform="translate(276.989068 139.517278)scale(0.044752 -0.044752)">
      <use xlink:href="#DejaVuSans-85"/>
      <use x="73.193359" xlink:href="#DejaVuSans-50"/>
     </g>
    </g>
   </g>
   <g id="text_53">
    <g clip-path="url(#pcedbf2a0d1)">
     <!-- OPA2134 -->
     <g style="fill:#a52a2a;" transform="translate(269.857086 144.607805)scale(0.044752 -0.044752)">
      <use xlink:href="#DejaVuSans-79"/>
      <use x="78.710938" xlink:href="#DejaVuSans-80"/>
      <use x="132.638672" xlink:href="#DejaVuSans-65"/>
      <use x="201.046875" xlink:href="#DejaVuSans-50"/>
      <use x="264.669922" xlink:href="#DejaVuSans-49"/>
      <use x="328.292969" xlink:href="#DejaVuSans-51"/>
      <use x="391.916016" xlink:href="#DejaVuSans-52"/>
     </g>
    </g>
   </g>
   <g id="text_54">
    <g clip-path="url(#pcedbf2a0d1)">
     <!-- 1 -->
     <g style="fill:#a52a2a;" transform="translate(356.967669 167.039684)scale(0.044752 -0.044752)">
      <use xlink:href="#DejaVuSans-49"/>
     </g>
    </g>
   </g>
   <g id="text_55">
    <g clip-path="url(#pcedbf2a0d1)">
     <!-- 2 -->
     <g style="fill:#a52a2a;" transform="translate(328.947398 161.445699)scale(0.044752 -0.044752)">
      <use xlink:href="#DejaVuSans-50"/>
     </g>
    </g>
   </g>
   <g id="text_56">
    <g clip-path="url(#pcedbf2a0d1)">
     <!-- - -->
     <g style="fill:#008000;" transform="translate(333.472932 160.047203)scale(0.044752 -0.044752)">
      <use xlink:href="#DejaVuSans-45"/>
     </g>
    </g>
   </g>
   <g id="text_57">
    <g clip-path="url(#pcedbf2a0d1)">
     <!-- 3 -->
     <g style="fill:#a52a2a;" transform="translate(328.947398 172.633669)scale(0.044752 -0.044752)">
      <use xlink:href="#DejaVuSans-51"/>
     </g>
    </g>
   </g>
   <g id="text_58">
    <g clip-path="url(#pcedbf2a0d1)">
     <!-- + -->
     <g style="fill:#008000;" transform="translate(333.472932 171.235173)scale(0.044752 -0.044752)">
      <use xlink:href="#DejaVuSans-43"/>
     </g>
    </g>
   </g>
   <g id="text_59">
    <g clip-path="url(#pcedbf2a0d1)">
     <!-- U3 -->
     <g style="fill:#a52a2a;" transform="translate(341.319895 145.111263)scale(0.044752 -0.044752)">
      <use xlink:href="#DejaVuSans-85"/>
      <use x="73.193359" xlink:href="#DejaVuSans-51"/>
     </g>
    </g>
   </g>
   <g id="text_60">
    <g clip-path="url(#pcedbf2a0d1)">
     <!-- OPA2134 -->
     <g style="fill:#a52a2a;" transform="translate(334.187914 150.201789)scale(0.044752 -0.044752)">
      <use xlink:href="#DejaVuSans-79"/>
      <use x="78.710938" xlink:href="#DejaVuSans-80"/>
      <use x="132.638672" xlink:href="#DejaVuSans-65"/>
      <use x="201.046875" xlink:href="#DejaVuSans-50"/>
      <use x="264.669922" xlink:href="#DejaVuSans-49"/>
      <use x="328.292969" xlink:href="#DejaVuSans-51"/>
      <use x="391.916016" xlink:href="#DejaVuSans-52"/>
     </g>
    </g>
   </g>
   <g id="text_61">
    <g clip-path="url(#pcedbf2a0d1)">
     <!-- 4 -->
     <g style="fill:#a52a2a;" transform="translate(232.33788 246.96794)rotate(-90)scale(0.044752 -0.044752)">
      <use xlink:href="#DejaVuSans-52"/>
     </g>
    </g>
   </g>
   <g id="text_62">
    <g clip-path="url(#pcedbf2a0d1)">
     <!-- V- -->
     <g style="fill:#008000;" transform="translate(233.736376 239.645414)rotate(-90)scale(0.044752 -0.044752)">
      <use xlink:href="#DejaVuSans-86"/>
      <use x="62.533203" xlink:href="#DejaVuSans-45"/>
     </g>
    </g>
   </g>
   <g id="text_63">
    <g clip-path="url(#pcedbf2a0d1)">
     <!-- 8 -->
     <g style="fill:#a52a2a;" transform="translate(232.33788 218.947669)rotate(-90)scale(0.044752 -0.044752)">
      <defs>
       <path d="M 31.78125 34.625 
Q 24.75 34.625 20.71875 30.859375 
Q 16.703125 27.09375 16.703125 20.515625 
Q 16.703125 13.921875 20.71875 10.15625 
Q 24.75 6.390625 31.78125 6.390625 
Q 38.8125 6.390625 42.859375 10.171875 
Q 46.921875 13.96875 46.921875 20.515625 
Q 46.921875 27.09375 42.890625 30.859375 
Q 38.875 34.625 31.78125 34.625 
z
M 21.921875 38.8125 
Q 15.578125 40.375 12.03125 44.71875 
Q 8.5 49.078125 8.5 55.328125 
Q 8.5 64.0625 14.71875 69.140625 
Q 20.953125 74.21875 31.78125 74.21875 
Q 42.671875 74.21875 48.875 69.140625 
Q 55.078125 64.0625 55.078125 55.328125 
Q 55.078125 49.078125 51.53125 44.71875 
Q 48 40.375 41.703125 38.8125 
Q 48.828125 37.15625 52.796875 32.3125 
Q 56.78125 27.484375 56.78125 20.515625 
Q 56.78125 9.90625 50.3125 4.234375 
Q 43.84375 -1.421875 31.78125 -1.421875 
Q 19.734375 -1.421875 13.25 4.234375 
Q 6.78125 9.90625 6.78125 20.515625 
Q 6.78125 27.484375 10.78125 32.3125 
Q 14.796875 37.15625 21.921875 38.8125 
z
M 18.3125 54.390625 
Q 18.3125 48.734375 21.84375 45.5625 
Q 25.390625 42.390625 31.78125 42.390625 
Q 38.140625 42.390625 41.71875 45.5625 
Q 45.3125 48.734375 45.3125 54.390625 
Q 45.3125 60.0625 41.71875 63.234375 
Q 38.140625 66.40625 31.78125 66.40625 
Q 25.390625 66.40625 21.84375 63.234375 
Q 18.3125 60.0625 18.3125 54.390625 
z
" id="DejaVuSans-56"/>
      </defs>
      <use xlink:href="#DejaVuSans-56"/>
     </g>
    </g>
   </g>
   <g id="text_64">
    <g clip-path="url(#pcedbf2a0d1)">
     <!-- V+ -->
     <g style="fill:#008000;" transform="translate(233.736376 230.234233)rotate(-90)scale(0.044752 -0.044752)">
      <use xlink:href="#DejaVuSans-86"/>
      <use x="68.408203" xlink:href="#DejaVuSans-43"/>
     </g>
    </g>
   </g>
   <g id="text_65">
    <g clip-path="url(#pcedbf2a0d1)">
     <!-- U3 -->
     <g style="fill:#a52a2a;" transform="translate(235.746015 230.195774)scale(0.044752 -0.044752)">
      <use xlink:href="#DejaVuSans-85"/>
      <use x="73.193359" xlink:href="#DejaVuSans-51"/>
     </g>
    </g>
   </g>
   <g id="text_66">
    <g clip-path="url(#pcedbf2a0d1)">
     <!-- OPA2134 -->
     <g style="fill:#a52a2a;" transform="translate(235.746015 235.286301)scale(0.044752 -0.044752)">
      <use xlink:href="#DejaVuSans-79"/>
      <use x="78.710938" xlink:href="#DejaVuSans-80"/>
      <use x="132.638672" xlink:href="#DejaVuSans-65"/>
      <use x="201.046875" xlink:href="#DejaVuSans-50"/>
      <use x="264.669922" xlink:href="#DejaVuSans-49"/>
      <use x="328.292969" xlink:href="#DejaVuSans-51"/>
      <use x="391.916016" xlink:href="#DejaVuSans-52"/>
     </g>
    </g>
   </g>
   <g id="text_67">
    <g clip-path="url(#pcedbf2a0d1)">
     <!-- -15V -->
     <g style="fill:#a52a2a;" transform="translate(226.477132 259.228556)scale(0.044752 -0.044752)">
      <use xlink:href="#DejaVuSans-45"/>
      <use x="36.083984" xlink:href="#DejaVuSans-49"/>
      <use x="99.707031" xlink:href="#DejaVuSans-53"/>
      <use x="163.330078" xlink:href="#DejaVuSans-86"/>
     </g>
    </g>
   </g>
   <g id="text_68">
    <g clip-path="url(#pcedbf2a0d1)">
     <!-- +15V -->
     <g style="fill:#a52a2a;" transform="translate(227.087575 206.309459)scale(0.044752 -0.044752)">
      <use xlink:href="#DejaVuSans-43"/>
      <use x="83.789062" xlink:href="#DejaVuSans-49"/>
      <use x="147.412109" xlink:href="#DejaVuSans-53"/>
      <use x="211.035156" xlink:href="#DejaVuSans-86"/>
     </g>
    </g>
   </g>
   <g id="text_69">
    <g clip-path="url(#pcedbf2a0d1)">
     <!-- 4 -->
     <g style="fill:#a52a2a;" transform="translate(271.495774 246.96794)rotate(-90)scale(0.044752 -0.044752)">
      <use xlink:href="#DejaVuSans-52"/>
     </g>
    </g>
   </g>
   <g id="text_70">
    <g clip-path="url(#pcedbf2a0d1)">
     <!-- V- -->
     <g style="fill:#008000;" transform="translate(272.894271 239.645414)rotate(-90)scale(0.044752 -0.044752)">
      <use xlink:href="#DejaVuSans-86"/>
      <use x="62.533203" xlink:href="#DejaVuSans-45"/>
     </g>
    </g>
   </g>
   <g id="text_71">
    <g clip-path="url(#pcedbf2a0d1)">
     <!-- 8 -->
     <g style="fill:#a52a2a;" transform="translate(271.495774 218.947669)rotate(-90)scale(0.044752 -0.044752)">
      <use xlink:href="#DejaVuSans-56"/>
     </g>
    </g>
   </g>
   <g id="text_72">
    <g clip-path="url(#pcedbf2a0d1)">
     <!-- V+ -->
     <g style="fill:#008000;" transform="translate(272.894271 230.234233)rotate(-90)scale(0.044752 -0.044752)">
      <use xlink:href="#DejaVuSans-86"/>
      <use x="68.408203" xlink:href="#DejaVuSans-43"/>
     </g>
    </g>
   </g>
   <g id="text_73">
    <g clip-path="url(#pcedbf2a0d1)">
     <!-- U1 -->
     <g style="fill:#a52a2a;" transform="translate(274.90391 230.195774)scale(0.044752 -0.044752)">
      <use xlink:href="#DejaVuSans-85"/>
      <use x="73.193359" xlink:href="#DejaVuSans-49"/>
     </g>
    </g>
   </g>
   <g id="text_74">
    <g clip-path="url(#pcedbf2a0d1)">
     <!-- OPA2134 -->
     <g style="fill:#a52a2a;" transform="translate(274.90391 235.286301)scale(0.044752 -0.044752)">
      <use xlink:href="#DejaVuSans-79"/>
      <use x="78.710938" xlink:href="#DejaVuSans-80"/>
      <use x="132.638672" xlink:href="#DejaVuSans-65"/>
      <use x="201.046875" xlink:href="#DejaVuSans-50"/>
      <use x="264.669922" xlink:href="#DejaVuSans-49"/>
      <use x="328.292969" xlink:href="#DejaVuSans-51"/>
      <use x="391.916016" xlink:href="#DejaVuSans-52"/>
     </g>
    </g>
   </g>
   <g id="text_75">
    <g clip-path="url(#pcedbf2a0d1)">
     <!-- -15V -->
     <g style="fill:#a52a2a;" transform="translate(265.635026 259.228556)scale(0.044752 -0.044752)">
      <use xlink:href="#DejaVuSans-45"/>
      <use x="36.083984" xlink:href="#DejaVuSans-49"/>
      <use x="99.707031" xlink:href="#DejaVuSans-53"/>
      <use x="163.330078" xlink:href="#DejaVuSans-86"/>
     </g>
    </g>
   </g>
   <g id="text_76">
    <g clip-path="url(#pcedbf2a0d1)">
     <!-- +15V -->
     <g style="fill:#a52a2a;" transform="translate(266.24547 206.309459)scale(0.044752 -0.044752)">
      <use xlink:href="#DejaVuSans-43"/>
      <use x="83.789062" xlink:href="#DejaVuSans-49"/>
      <use x="147.412109" xlink:href="#DejaVuSans-53"/>
      <use x="211.035156" xlink:href="#DejaVuSans-86"/>
     </g>
    </g>
   </g>
   <g id="text_77">
    <g clip-path="url(#pcedbf2a0d1)">
     <!-- 4 -->
     <g style="fill:#a52a2a;" transform="translate(307.856677 246.96794)rotate(-90)scale(0.044752 -0.044752)">
      <use xlink:href="#DejaVuSans-52"/>
     </g>
    </g>
   </g>
   <g id="text_78">
    <g clip-path="url(#pcedbf2a0d1)">
     <!-- V- -->
     <g style="fill:#008000;" transform="translate(309.255173 239.645414)rotate(-90)scale(0.044752 -0.044752)">
      <use xlink:href="#DejaVuSans-86"/>
      <use x="62.533203" xlink:href="#DejaVuSans-45"/>
     </g>
    </g>
   </g>
   <g id="text_79">
    <g clip-path="url(#pcedbf2a0d1)">
     <!-- 8 -->
     <g style="fill:#a52a2a;" transform="translate(307.856677 218.947669)rotate(-90)scale(0.044752 -0.044752)">
      <use xlink:href="#DejaVuSans-56"/>
     </g>
    </g>
   </g>
   <g id="text_80">
    <g clip-path="url(#pcedbf2a0d1)">
     <!-- V+ -->
     <g style="fill:#008000;" transform="translate(309.255173 230.234233)rotate(-90)scale(0.044752 -0.044752)">
      <use xlink:href="#DejaVuSans-86"/>
      <use x="68.408203" xlink:href="#DejaVuSans-43"/>
     </g>
    </g>
   </g>
   <g id="text_81">
    <g clip-path="url(#pcedbf2a0d1)">
     <!-- U2 -->
     <g style="fill:#a52a2a;" transform="translate(311.264812 230.195774)scale(0.044752 -0.044752)">
      <use xlink:href="#DejaVuSans-85"/>
      <use x="73.193359" xlink:href="#DejaVuSans-50"/>
     </g>
    </g>
   </g>
   <g id="text_82">
    <g clip-path="url(#pcedbf2a0d1)">
     <!-- OPA2134 -->
     <g style="fill:#a52a2a;" transform="translate(311.264812 235.286301)scale(0.044752 -0.044752)">
      <use xlink:href="#DejaVuSans-79"/>
      <use x="78.710938" xlink:href="#DejaVuSans-80"/>
      <use x="132.638672" xlink:href="#DejaVuSans-65"/>
      <use x="201.046875" xlink:href="#DejaVuSans-50"/>
      <use x="264.669922" xlink:href="#DejaVuSans-49"/>
      <use x="328.292969" xlink:href="#DejaVuSans-51"/>
      <use x="391.916016" xlink:href="#DejaVuSans-52"/>
     </g>
    </g>
   </g>
   <g id="text_83">
    <g clip-path="url(#pcedbf2a0d1)">
     <!-- -15V -->
     <g style="fill:#a52a2a;" transform="translate(301.995929 259.228556)scale(0.044752 -0.044752)">
      <use xlink:href="#DejaVuSans-45"/>
      <use x="36.083984" xlink:href="#DejaVuSans-49"/>
      <use x="99.707031" xlink:href="#DejaVuSans-53"/>
      <use x="163.330078" xlink:href="#DejaVuSans-86"/>
     </g>
    </g>
   </g>
   <g id="text_84">
    <g clip-path="url(#pcedbf2a0d1)">
     <!-- +15V -->
     <g style="fill:#a52a2a;" transform="translate(302.606372 206.309459)scale(0.044752 -0.044752)">
      <use xlink:href="#DejaVuSans-43"/>
      <use x="83.789062" xlink:href="#DejaVuSans-49"/>
      <use x="147.412109" xlink:href="#DejaVuSans-53"/>
      <use x="211.035156" xlink:href="#DejaVuSans-86"/>
     </g>
    </g>
   </g>
   <g id="text_85">
    <g clip-path="url(#pcedbf2a0d1)">
     <!-- MIX_1 -->
     <g transform="translate(202.387684 106.148459)scale(0.044752 -0.044752)">
      <defs>
       <path d="M 9.8125 72.90625 
L 24.515625 72.90625 
L 43.109375 23.296875 
L 61.8125 72.90625 
L 76.515625 72.90625 
L 76.515625 0 
L 66.890625 0 
L 66.890625 64.015625 
L 48.09375 14.015625 
L 38.1875 14.015625 
L 19.390625 64.015625 
L 19.390625 0 
L 9.8125 0 
z
" id="DejaVuSans-77"/>
       <path d="M 6.296875 72.90625 
L 16.890625 72.90625 
L 35.015625 45.796875 
L 53.21875 72.90625 
L 63.8125 72.90625 
L 40.375 37.890625 
L 65.375 0 
L 54.78125 0 
L 34.28125 31 
L 13.625 0 
L 2.984375 0 
L 29 38.921875 
z
" id="DejaVuSans-88"/>
       <path d="M 50.984375 -16.609375 
L 50.984375 -23.578125 
L -0.984375 -23.578125 
L -0.984375 -16.609375 
z
" id="DejaVuSans-95"/>
      </defs>
      <use xlink:href="#DejaVuSans-77"/>
      <use x="86.279297" xlink:href="#DejaVuSans-73"/>
      <use x="115.771484" xlink:href="#DejaVuSans-88"/>
      <use x="184.277344" xlink:href="#DejaVuSans-95"/>
      <use x="234.277344" xlink:href="#DejaVuSans-49"/>
     </g>
    </g>
   </g>
   <g id="text_86">
    <g clip-path="url(#pcedbf2a0d1)">
     <!-- MIX_1 -->
     <g transform="translate(173.764662 115.802278)scale(0.044752 -0.044752)">
      <use xlink:href="#DejaVuSans-77"/>
      <use x="86.279297" xlink:href="#DejaVuSans-73"/>
      <use x="115.771484" xlink:href="#DejaVuSans-88"/>
      <use x="184.277344" xlink:href="#DejaVuSans-95"/>
      <use x="234.277344" xlink:href="#DejaVuSans-49"/>
     </g>
    </g>
   </g>
  </g>
 </g>
 <defs>
  <clipPath id="pcedbf2a0d1">
   <rect height="326.16" width="446.4" x="10.7" y="7.2"/>
  </clipPath>
 </defs>
</svg>
