<?xml version="1.0" encoding="utf-8" standalone="no"?>
<!DOCTYPE svg PUBLIC "-//W3C//DTD SVG 1.1//EN"
  "http://www.w3.org/Graphics/SVG/1.1/DTD/svg11.dtd">
<!-- Created with matplotlib (https://matplotlib.org/) -->
<svg height="352.15625pt" version="1.1" viewBox="0 0 568.470312 352.15625" width="568.470312pt" xmlns="http://www.w3.org/2000/svg" xmlns:xlink="http://www.w3.org/1999/xlink">
 <metadata>
  <rdf:RDF xmlns:cc="http://creativecommons.org/ns#" xmlns:dc="http://purl.org/dc/elements/1.1/" xmlns:rdf="http://www.w3.org/1999/02/22-rdf-syntax-ns#">
   <cc:Work>
    <dc:type rdf:resource="http://purl.org/dc/dcmitype/StillImage"/>
    <dc:date>2020-07-27T13:15:33.520468</dc:date>
    <dc:format>image/svg+xml</dc:format>
    <dc:creator>
     <cc:Agent>
      <dc:title>Matplotlib v3.3.0, https://matplotlib.org/</dc:title>
     </cc:Agent>
    </dc:creator>
   </cc:Work>
  </rdf:RDF>
 </metadata>
 <defs>
  <style type="text/css">*{stroke-linecap:butt;stroke-linejoin:round;}</style>
 </defs>
 <g id="figure_1">
  <g id="patch_1">
   <path d="M 0 352.15625 
L 568.470312 352.15625 
L 568.470312 0 
L 0 0 
z
" style="fill:none;"/>
  </g>
  <g id="axes_1">
   <g id="patch_2">
    <path d="M 42.620313 314.6 
L 561.270312 314.6 
L 561.270312 7.2 
L 42.620313 7.2 
z
" style="fill:#ffffff;"/>
   </g>
   <g id="matplotlib.axis_1">
    <g id="xtick_1">
     <g id="line2d_1">
      <path clip-path="url(#p5199d0aa2e)" d="M 66.195312 314.6 
L 66.195312 7.2 
" style="fill:none;stroke:#b0b0b0;stroke-linecap:square;stroke-width:0.8;"/>
     </g>
     <g id="line2d_2">
      <defs>
       <path d="M 0 0 
L 0 3.5 
" id="m9107f8d1ed" style="stroke:#000000;stroke-width:0.8;"/>
      </defs>
      <g>
       <use style="stroke:#000000;stroke-width:0.8;" x="66.195312" xlink:href="#m9107f8d1ed" y="314.6"/>
      </g>
     </g>
     <g id="text_1">
      <!-- 0 -->
      <g transform="translate(63.014063 329.198437)scale(0.1 -0.1)">
       <defs>
        <path d="M 31.78125 66.40625 
Q 24.171875 66.40625 20.328125 58.90625 
Q 16.5 51.421875 16.5 36.375 
Q 16.5 21.390625 20.328125 13.890625 
Q 24.171875 6.390625 31.78125 6.390625 
Q 39.453125 6.390625 43.28125 13.890625 
Q 47.125 21.390625 47.125 36.375 
Q 47.125 51.421875 43.28125 58.90625 
Q 39.453125 66.40625 31.78125 66.40625 
z
M 31.78125 74.21875 
Q 44.046875 74.21875 50.515625 64.515625 
Q 56.984375 54.828125 56.984375 36.375 
Q 56.984375 17.96875 50.515625 8.265625 
Q 44.046875 -1.421875 31.78125 -1.421875 
Q 19.53125 -1.421875 13.0625 8.265625 
Q 6.59375 17.96875 6.59375 36.375 
Q 6.59375 54.828125 13.0625 64.515625 
Q 19.53125 74.21875 31.78125 74.21875 
z
" id="DejaVuSans-48"/>
       </defs>
       <use xlink:href="#DejaVuSans-48"/>
      </g>
     </g>
    </g>
    <g id="xtick_2">
     <g id="line2d_3">
      <path clip-path="url(#p5199d0aa2e)" d="M 170.97309 314.6 
L 170.97309 7.2 
" style="fill:none;stroke:#b0b0b0;stroke-linecap:square;stroke-width:0.8;"/>
     </g>
     <g id="line2d_4">
      <g>
       <use style="stroke:#000000;stroke-width:0.8;" x="170.97309" xlink:href="#m9107f8d1ed" y="314.6"/>
      </g>
     </g>
     <g id="text_2">
      <!-- 20000 -->
      <g transform="translate(155.06684 329.198437)scale(0.1 -0.1)">
       <defs>
        <path d="M 19.1875 8.296875 
L 53.609375 8.296875 
L 53.609375 0 
L 7.328125 0 
L 7.328125 8.296875 
Q 12.9375 14.109375 22.625 23.890625 
Q 32.328125 33.6875 34.8125 36.53125 
Q 39.546875 41.84375 41.421875 45.53125 
Q 43.3125 49.21875 43.3125 52.78125 
Q 43.3125 58.59375 39.234375 62.25 
Q 35.15625 65.921875 28.609375 65.921875 
Q 23.96875 65.921875 18.8125 64.3125 
Q 13.671875 62.703125 7.8125 59.421875 
L 7.8125 69.390625 
Q 13.765625 71.78125 18.9375 73 
Q 24.125 74.21875 28.421875 74.21875 
Q 39.75 74.21875 46.484375 68.546875 
Q 53.21875 62.890625 53.21875 53.421875 
Q 53.21875 48.921875 51.53125 44.890625 
Q 49.859375 40.875 45.40625 35.40625 
Q 44.1875 33.984375 37.640625 27.21875 
Q 31.109375 20.453125 19.1875 8.296875 
z
" id="DejaVuSans-50"/>
       </defs>
       <use xlink:href="#DejaVuSans-50"/>
       <use x="63.623047" xlink:href="#DejaVuSans-48"/>
       <use x="127.246094" xlink:href="#DejaVuSans-48"/>
       <use x="190.869141" xlink:href="#DejaVuSans-48"/>
       <use x="254.492188" xlink:href="#DejaVuSans-48"/>
      </g>
     </g>
    </g>
    <g id="xtick_3">
     <g id="line2d_5">
      <path clip-path="url(#p5199d0aa2e)" d="M 275.750868 314.6 
L 275.750868 7.2 
" style="fill:none;stroke:#b0b0b0;stroke-linecap:square;stroke-width:0.8;"/>
     </g>
     <g id="line2d_6">
      <g>
       <use style="stroke:#000000;stroke-width:0.8;" x="275.750868" xlink:href="#m9107f8d1ed" y="314.6"/>
      </g>
     </g>
     <g id="text_3">
      <!-- 40000 -->
      <g transform="translate(259.844618 329.198437)scale(0.1 -0.1)">
       <defs>
        <path d="M 37.796875 64.3125 
L 12.890625 25.390625 
L 37.796875 25.390625 
z
M 35.203125 72.90625 
L 47.609375 72.90625 
L 47.609375 25.390625 
L 58.015625 25.390625 
L 58.015625 17.1875 
L 47.609375 17.1875 
L 47.609375 0 
L 37.796875 0 
L 37.796875 17.1875 
L 4.890625 17.1875 
L 4.890625 26.703125 
z
" id="DejaVuSans-52"/>
       </defs>
       <use xlink:href="#DejaVuSans-52"/>
       <use x="63.623047" xlink:href="#DejaVuSans-48"/>
       <use x="127.246094" xlink:href="#DejaVuSans-48"/>
       <use x="190.869141" xlink:href="#DejaVuSans-48"/>
       <use x="254.492188" xlink:href="#DejaVuSans-48"/>
      </g>
     </g>
    </g>
    <g id="xtick_4">
     <g id="line2d_7">
      <path clip-path="url(#p5199d0aa2e)" d="M 380.528646 314.6 
L 380.528646 7.2 
" style="fill:none;stroke:#b0b0b0;stroke-linecap:square;stroke-width:0.8;"/>
     </g>
     <g id="line2d_8">
      <g>
       <use style="stroke:#000000;stroke-width:0.8;" x="380.528646" xlink:href="#m9107f8d1ed" y="314.6"/>
      </g>
     </g>
     <g id="text_4">
      <!-- 60000 -->
      <g transform="translate(364.622396 329.198437)scale(0.1 -0.1)">
       <defs>
        <path d="M 33.015625 40.375 
Q 26.375 40.375 22.484375 35.828125 
Q 18.609375 31.296875 18.609375 23.390625 
Q 18.609375 15.53125 22.484375 10.953125 
Q 26.375 6.390625 33.015625 6.390625 
Q 39.65625 6.390625 43.53125 10.953125 
Q 47.40625 15.53125 47.40625 23.390625 
Q 47.40625 31.296875 43.53125 35.828125 
Q 39.65625 40.375 33.015625 40.375 
z
M 52.59375 71.296875 
L 52.59375 62.3125 
Q 48.875 64.0625 45.09375 64.984375 
Q 41.3125 65.921875 37.59375 65.921875 
Q 27.828125 65.921875 22.671875 59.328125 
Q 17.53125 52.734375 16.796875 39.40625 
Q 19.671875 43.65625 24.015625 45.921875 
Q 28.375 48.1875 33.59375 48.1875 
Q 44.578125 48.1875 50.953125 41.515625 
Q 57.328125 34.859375 57.328125 23.390625 
Q 57.328125 12.15625 50.6875 5.359375 
Q 44.046875 -1.421875 33.015625 -1.421875 
Q 20.359375 -1.421875 13.671875 8.265625 
Q 6.984375 17.96875 6.984375 36.375 
Q 6.984375 53.65625 15.1875 63.9375 
Q 23.390625 74.21875 37.203125 74.21875 
Q 40.921875 74.21875 44.703125 73.484375 
Q 48.484375 72.75 52.59375 71.296875 
z
" id="DejaVuSans-54"/>
       </defs>
       <use xlink:href="#DejaVuSans-54"/>
       <use x="63.623047" xlink:href="#DejaVuSans-48"/>
       <use x="127.246094" xlink:href="#DejaVuSans-48"/>
       <use x="190.869141" xlink:href="#DejaVuSans-48"/>
       <use x="254.492188" xlink:href="#DejaVuSans-48"/>
      </g>
     </g>
    </g>
    <g id="xtick_5">
     <g id="line2d_9">
      <path clip-path="url(#p5199d0aa2e)" d="M 485.306424 314.6 
L 485.306424 7.2 
" style="fill:none;stroke:#b0b0b0;stroke-linecap:square;stroke-width:0.8;"/>
     </g>
     <g id="line2d_10">
      <g>
       <use style="stroke:#000000;stroke-width:0.8;" x="485.306424" xlink:href="#m9107f8d1ed" y="314.6"/>
      </g>
     </g>
     <g id="text_5">
      <!-- 80000 -->
      <g transform="translate(469.400174 329.198437)scale(0.1 -0.1)">
       <defs>
        <path d="M 31.78125 34.625 
Q 24.75 34.625 20.71875 30.859375 
Q 16.703125 27.09375 16.703125 20.515625 
Q 16.703125 13.921875 20.71875 10.15625 
Q 24.75 6.390625 31.78125 6.390625 
Q 38.8125 6.390625 42.859375 10.171875 
Q 46.921875 13.96875 46.921875 20.515625 
Q 46.921875 27.09375 42.890625 30.859375 
Q 38.875 34.625 31.78125 34.625 
z
M 21.921875 38.8125 
Q 15.578125 40.375 12.03125 44.71875 
Q 8.5 49.078125 8.5 55.328125 
Q 8.5 64.0625 14.71875 69.140625 
Q 20.953125 74.21875 31.78125 74.21875 
Q 42.671875 74.21875 48.875 69.140625 
Q 55.078125 64.0625 55.078125 55.328125 
Q 55.078125 49.078125 51.53125 44.71875 
Q 48 40.375 41.703125 38.8125 
Q 48.828125 37.15625 52.796875 32.3125 
Q 56.78125 27.484375 56.78125 20.515625 
Q 56.78125 9.90625 50.3125 4.234375 
Q 43.84375 -1.421875 31.78125 -1.421875 
Q 19.734375 -1.421875 13.25 4.234375 
Q 6.78125 9.90625 6.78125 20.515625 
Q 6.78125 27.484375 10.78125 32.3125 
Q 14.796875 37.15625 21.921875 38.8125 
z
M 18.3125 54.390625 
Q 18.3125 48.734375 21.84375 45.5625 
Q 25.390625 42.390625 31.78125 42.390625 
Q 38.140625 42.390625 41.71875 45.5625 
Q 45.3125 48.734375 45.3125 54.390625 
Q 45.3125 60.0625 41.71875 63.234375 
Q 38.140625 66.40625 31.78125 66.40625 
Q 25.390625 66.40625 21.84375 63.234375 
Q 18.3125 60.0625 18.3125 54.390625 
z
" id="DejaVuSans-56"/>
       </defs>
       <use xlink:href="#DejaVuSans-56"/>
       <use x="63.623047" xlink:href="#DejaVuSans-48"/>
       <use x="127.246094" xlink:href="#DejaVuSans-48"/>
       <use x="190.869141" xlink:href="#DejaVuSans-48"/>
       <use x="254.492188" xlink:href="#DejaVuSans-48"/>
      </g>
     </g>
    </g>
    <g id="text_6">
     <!-- t [s] -->
     <g transform="translate(291.889844 342.876562)scale(0.1 -0.1)">
      <defs>
       <path d="M 18.3125 70.21875 
L 18.3125 54.6875 
L 36.8125 54.6875 
L 36.8125 47.703125 
L 18.3125 47.703125 
L 18.3125 18.015625 
Q 18.3125 11.328125 20.140625 9.421875 
Q 21.96875 7.515625 27.59375 7.515625 
L 36.8125 7.515625 
L 36.8125 0 
L 27.59375 0 
Q 17.1875 0 13.234375 3.875 
Q 9.28125 7.765625 9.28125 18.015625 
L 9.28125 47.703125 
L 2.6875 47.703125 
L 2.6875 54.6875 
L 9.28125 54.6875 
L 9.28125 70.21875 
z
" id="DejaVuSans-116"/>
       <path id="DejaVuSans-32"/>
       <path d="M 8.59375 75.984375 
L 29.296875 75.984375 
L 29.296875 69 
L 17.578125 69 
L 17.578125 -6.203125 
L 29.296875 -6.203125 
L 29.296875 -13.1875 
L 8.59375 -13.1875 
z
" id="DejaVuSans-91"/>
       <path d="M 44.28125 53.078125 
L 44.28125 44.578125 
Q 40.484375 46.53125 36.375 47.5 
Q 32.28125 48.484375 27.875 48.484375 
Q 21.1875 48.484375 17.84375 46.4375 
Q 14.5 44.390625 14.5 40.28125 
Q 14.5 37.15625 16.890625 35.375 
Q 19.28125 33.59375 26.515625 31.984375 
L 29.59375 31.296875 
Q 39.15625 29.25 43.1875 25.515625 
Q 47.21875 21.78125 47.21875 15.09375 
Q 47.21875 7.46875 41.1875 3.015625 
Q 35.15625 -1.421875 24.609375 -1.421875 
Q 20.21875 -1.421875 15.453125 -0.5625 
Q 10.6875 0.296875 5.421875 2 
L 5.421875 11.28125 
Q 10.40625 8.6875 15.234375 7.390625 
Q 20.0625 6.109375 24.8125 6.109375 
Q 31.15625 6.109375 34.5625 8.28125 
Q 37.984375 10.453125 37.984375 14.40625 
Q 37.984375 18.0625 35.515625 20.015625 
Q 33.0625 21.96875 24.703125 23.78125 
L 21.578125 24.515625 
Q 13.234375 26.265625 9.515625 29.90625 
Q 5.8125 33.546875 5.8125 39.890625 
Q 5.8125 47.609375 11.28125 51.796875 
Q 16.75 56 26.8125 56 
Q 31.78125 56 36.171875 55.265625 
Q 40.578125 54.546875 44.28125 53.078125 
z
" id="DejaVuSans-115"/>
       <path d="M 30.421875 75.984375 
L 30.421875 -13.1875 
L 9.71875 -13.1875 
L 9.71875 -6.203125 
L 21.390625 -6.203125 
L 21.390625 69 
L 9.71875 69 
L 9.71875 75.984375 
z
" id="DejaVuSans-93"/>
      </defs>
      <use xlink:href="#DejaVuSans-116"/>
      <use x="39.208984" xlink:href="#DejaVuSans-32"/>
      <use x="70.996094" xlink:href="#DejaVuSans-91"/>
      <use x="110.009766" xlink:href="#DejaVuSans-115"/>
      <use x="162.109375" xlink:href="#DejaVuSans-93"/>
     </g>
    </g>
   </g>
   <g id="matplotlib.axis_2">
    <g id="ytick_1">
     <g id="line2d_11">
      <path clip-path="url(#p5199d0aa2e)" d="M 42.620313 282.922741 
L 561.270312 282.922741 
" style="fill:none;stroke:#b0b0b0;stroke-linecap:square;stroke-width:0.8;"/>
     </g>
     <g id="line2d_12">
      <defs>
       <path d="M 0 0 
L -3.5 0 
" id="m94001ac5a3" style="stroke:#000000;stroke-width:0.8;"/>
      </defs>
      <g>
       <use style="stroke:#000000;stroke-width:0.8;" x="42.620313" xlink:href="#m94001ac5a3" y="282.922741"/>
      </g>
     </g>
     <g id="text_7">
      <!-- −4 -->
      <g transform="translate(20.878125 286.72196)scale(0.1 -0.1)">
       <defs>
        <path d="M 10.59375 35.5 
L 73.1875 35.5 
L 73.1875 27.203125 
L 10.59375 27.203125 
z
" id="DejaVuSans-8722"/>
       </defs>
       <use xlink:href="#DejaVuSans-8722"/>
       <use x="83.789062" xlink:href="#DejaVuSans-52"/>
      </g>
     </g>
    </g>
    <g id="ytick_2">
     <g id="line2d_13">
      <path clip-path="url(#p5199d0aa2e)" d="M 42.620313 217.2879 
L 561.270312 217.2879 
" style="fill:none;stroke:#b0b0b0;stroke-linecap:square;stroke-width:0.8;"/>
     </g>
     <g id="line2d_14">
      <g>
       <use style="stroke:#000000;stroke-width:0.8;" x="42.620313" xlink:href="#m94001ac5a3" y="217.2879"/>
      </g>
     </g>
     <g id="text_8">
      <!-- −3 -->
      <g transform="translate(20.878125 221.087118)scale(0.1 -0.1)">
       <defs>
        <path d="M 40.578125 39.3125 
Q 47.65625 37.796875 51.625 33 
Q 55.609375 28.21875 55.609375 21.1875 
Q 55.609375 10.40625 48.1875 4.484375 
Q 40.765625 -1.421875 27.09375 -1.421875 
Q 22.515625 -1.421875 17.65625 -0.515625 
Q 12.796875 0.390625 7.625 2.203125 
L 7.625 11.71875 
Q 11.71875 9.328125 16.59375 8.109375 
Q 21.484375 6.890625 26.8125 6.890625 
Q 36.078125 6.890625 40.9375 10.546875 
Q 45.796875 14.203125 45.796875 21.1875 
Q 45.796875 27.640625 41.28125 31.265625 
Q 36.765625 34.90625 28.71875 34.90625 
L 20.21875 34.90625 
L 20.21875 43.015625 
L 29.109375 43.015625 
Q 36.375 43.015625 40.234375 45.921875 
Q 44.09375 48.828125 44.09375 54.296875 
Q 44.09375 59.90625 40.109375 62.90625 
Q 36.140625 65.921875 28.71875 65.921875 
Q 24.65625 65.921875 20.015625 65.03125 
Q 15.375 64.15625 9.8125 62.3125 
L 9.8125 71.09375 
Q 15.4375 72.65625 20.34375 73.4375 
Q 25.25 74.21875 29.59375 74.21875 
Q 40.828125 74.21875 47.359375 69.109375 
Q 53.90625 64.015625 53.90625 55.328125 
Q 53.90625 49.265625 50.4375 45.09375 
Q 46.96875 40.921875 40.578125 39.3125 
z
" id="DejaVuSans-51"/>
       </defs>
       <use xlink:href="#DejaVuSans-8722"/>
       <use x="83.789062" xlink:href="#DejaVuSans-51"/>
      </g>
     </g>
    </g>
    <g id="ytick_3">
     <g id="line2d_15">
      <path clip-path="url(#p5199d0aa2e)" d="M 42.620313 151.653059 
L 561.270312 151.653059 
" style="fill:none;stroke:#b0b0b0;stroke-linecap:square;stroke-width:0.8;"/>
     </g>
     <g id="line2d_16">
      <g>
       <use style="stroke:#000000;stroke-width:0.8;" x="42.620313" xlink:href="#m94001ac5a3" y="151.653059"/>
      </g>
     </g>
     <g id="text_9">
      <!-- −2 -->
      <g transform="translate(20.878125 155.452277)scale(0.1 -0.1)">
       <use xlink:href="#DejaVuSans-8722"/>
       <use x="83.789062" xlink:href="#DejaVuSans-50"/>
      </g>
     </g>
    </g>
    <g id="ytick_4">
     <g id="line2d_17">
      <path clip-path="url(#p5199d0aa2e)" d="M 42.620313 86.018217 
L 561.270312 86.018217 
" style="fill:none;stroke:#b0b0b0;stroke-linecap:square;stroke-width:0.8;"/>
     </g>
     <g id="line2d_18">
      <g>
       <use style="stroke:#000000;stroke-width:0.8;" x="42.620313" xlink:href="#m94001ac5a3" y="86.018217"/>
      </g>
     </g>
     <g id="text_10">
      <!-- −1 -->
      <g transform="translate(20.878125 89.817436)scale(0.1 -0.1)">
       <defs>
        <path d="M 12.40625 8.296875 
L 28.515625 8.296875 
L 28.515625 63.921875 
L 10.984375 60.40625 
L 10.984375 69.390625 
L 28.421875 72.90625 
L 38.28125 72.90625 
L 38.28125 8.296875 
L 54.390625 8.296875 
L 54.390625 0 
L 12.40625 0 
z
" id="DejaVuSans-49"/>
       </defs>
       <use xlink:href="#DejaVuSans-8722"/>
       <use x="83.789062" xlink:href="#DejaVuSans-49"/>
      </g>
     </g>
    </g>
    <g id="ytick_5">
     <g id="line2d_19">
      <path clip-path="url(#p5199d0aa2e)" d="M 42.620313 20.383376 
L 561.270312 20.383376 
" style="fill:none;stroke:#b0b0b0;stroke-linecap:square;stroke-width:0.8;"/>
     </g>
     <g id="line2d_20">
      <g>
       <use style="stroke:#000000;stroke-width:0.8;" x="42.620313" xlink:href="#m94001ac5a3" y="20.383376"/>
      </g>
     </g>
     <g id="text_11">
      <!-- 0 -->
      <g transform="translate(29.257813 24.182595)scale(0.1 -0.1)">
       <use xlink:href="#DejaVuSans-48"/>
      </g>
     </g>
    </g>
    <g id="text_12">
     <!-- [V] -->
     <g transform="translate(14.798438 168.221875)rotate(-90)scale(0.1 -0.1)">
      <defs>
       <path d="M 28.609375 0 
L 0.78125 72.90625 
L 11.078125 72.90625 
L 34.1875 11.53125 
L 57.328125 72.90625 
L 67.578125 72.90625 
L 39.796875 0 
z
" id="DejaVuSans-86"/>
      </defs>
      <use xlink:href="#DejaVuSans-91"/>
      <use x="39.013672" xlink:href="#DejaVuSans-86"/>
      <use x="107.421875" xlink:href="#DejaVuSans-93"/>
     </g>
    </g>
   </g>
   <g id="line2d_21">
    <path clip-path="url(#p5199d0aa2e)" d="M 66.195312 231.769578 
L 67.012579 231.87497 
L 67.164507 232.449627 
L 67.47884 234.750932 
L 67.945101 237.709553 
L 68.123224 237.859336 
L 72.282901 237.966558 
L 72.440068 238.550701 
L 72.791074 240.976192 
L 73.178751 243.029501 
L 73.356874 243.13238 
L 77.542746 243.229454 
L 77.699912 243.773114 
L 78.071874 246.141097 
L 78.41764 247.672403 
L 78.595763 247.735331 
L 82.80259 247.827492 
L 82.964996 248.364736 
L 83.808457 251.780842 
L 88.062435 251.871842 
L 88.22484 252.384982 
L 89.010674 255.35843 
L 93.327518 255.460657 
L 93.500401 256.013309 
L 94.186696 258.539358 
L 96.502285 258.536268 
L 98.582124 258.637458 
L 98.760246 259.182756 
L 99.39939 261.382939 
L 100.682918 261.381909 
L 103.836729 261.479577 
L 104.014851 261.99991 
L 104.617324 263.937291 
L 105.549846 263.937808 
L 109.091335 264.034501 
L 109.274696 264.55376 
L 109.830018 266.24053 
L 110.406296 266.244271 
L 114.34594 266.341532 
L 114.53454 266.861293 
L 115.047951 268.327254 
L 115.493257 268.333698 
L 119.600546 268.433419 
L 119.794385 268.954653 
L 120.271124 270.225982 
L 120.674518 270.233979 
L 124.849912 270.329406 
L 125.04899 270.843263 
L 125.499535 271.96051 
L 125.908168 271.968523 
L 130.104518 272.069062 
L 130.314074 272.602246 
L 130.722707 273.547178 
L 131.089429 273.557361 
L 135.353885 273.655846 
L 135.568679 274.182383 
L 135.956357 275.008317 
L 136.359751 275.017007 
L 140.603251 275.114645 
L 140.823285 275.635085 
L 141.184768 276.352943 
L 141.577685 276.362277 
L 145.852618 276.459762 
L 146.083129 276.9887 
L 146.423657 277.598585 
L 146.900396 277.605232 
L 151.101985 277.703524 
L 151.342974 278.239312 
L 151.657307 278.75108 
L 152.170718 278.757025 
L 156.351351 278.856612 
L 156.608057 279.40983 
L 156.901435 279.823619 
L 157.624401 279.826485 
L 161.600718 279.928311 
L 161.87314 280.494636 
L 162.145562 280.821503 
L 163.203818 280.82198 
L 166.844846 280.919736 
L 167.127746 281.480547 
L 167.384451 281.75174 
L 168.699412 281.751115 
L 172.094212 281.852015 
L 172.439979 282.494418 
L 172.660012 282.622914 
L 177.38549 282.785175 
L 177.919857 283.437639 
L 182.598185 283.549101 
L 183.216374 284.202205 
L 187.826596 284.291163 
L 188.497174 284.921281 
L 193.081201 285.020516 
L 193.688912 285.598993 
L 198.32009 285.689854 
L 198.938279 286.238403 
L 203.569457 286.333582 
L 204.150974 286.842896 
L 208.813585 286.936482 
L 209.379385 287.415075 
L 214.057712 287.507395 
L 214.613035 287.957482 
L 219.30184 288.048794 
L 219.841446 288.47241 
L 224.551207 288.568472 
L 225.059379 288.961913 
L 229.800574 289.062778 
L 230.282551 289.427775 
L 235.04994 289.533551 
L 235.510962 289.871704 
L 240.299307 289.982426 
L 240.739374 290.295216 
L 245.553912 290.416534 
L 245.962546 290.699674 
L 250.813757 290.837284 
L 251.185718 291.086322 
L 256.089318 291.257317 
L 256.419368 291.456498 
L 261.343924 291.636926 
L 261.658257 291.811247 
L 266.582812 291.984157 
L 266.897146 292.151453 
L 271.821701 292.317321 
L 272.136035 292.478023 
L 277.06059 292.63728 
L 277.374924 292.791784 
L 282.299479 292.944822 
L 282.619051 293.093534 
L 287.52789 293.231102 
L 287.85794 293.383896 
L 292.766779 293.516241 
L 293.096829 293.663569 
L 298.010907 293.7955 
L 298.335718 293.933148 
L 303.249796 294.060306 
L 303.579846 294.193217 
L 308.483446 294.311578 
L 308.818735 294.444258 
L 313.727574 294.562617 
L 314.062862 294.686772 
L 318.961224 294.797037 
L 319.301751 294.921192 
L 324.205351 295.031675 
L 324.54064 295.147953 
L 329.449479 295.258645 
L 329.784768 295.367443 
L 334.683129 295.470848 
L 335.023657 295.580019 
L 339.927257 295.683792 
L 340.267785 295.786017 
L 345.166146 295.886595 
L 345.506674 295.985773 
L 350.410274 296.086772 
L 350.750801 296.179571 
L 355.649162 296.277587 
L 355.98969 296.3677 
L 360.89329 296.46616 
L 361.233818 296.550402 
L 366.132179 296.646081 
L 366.477946 296.727941 
L 371.376307 296.824103 
L 371.716835 296.900564 
L 376.620435 296.997147 
L 376.960962 297.068453 
L 381.859324 297.162469 
L 382.20509 297.231826 
L 387.103451 297.326281 
L 387.449218 297.390878 
L 392.347579 297.485733 
L 392.693346 297.545799 
L 397.586468 297.63828 
L 397.937474 297.696754 
L 402.830596 297.789625 
L 403.18684 297.843897 
L 408.09044 297.944575 
L 408.446685 297.98738 
L 413.329329 298.085724 
L 413.690812 298.127393 
L 418.573457 298.225752 
L 418.945418 298.264017 
L 423.817585 298.362362 
L 424.194785 298.397425 
L 429.066951 298.497711 
L 429.459868 298.527695 
L 434.311079 298.627756 
L 434.714474 298.654993 
L 439.555207 298.754745 
L 439.974318 298.779398 
L 444.799335 298.87879 
L 445.234162 298.901027 
L 450.043462 298.999998 
L 450.494007 299.019981 
L 455.292829 299.119933 
L 455.785285 299.136285 
L 460.536957 299.235676 
L 461.055607 299.250156 
L 465.786324 299.350077 
L 466.362601 299.36155 
L 471.03569 299.461778 
L 471.685312 299.470592 
L 476.285057 299.570874 
L 477.034218 299.57734 
L 481.539662 299.678153 
L 482.498379 299.681687 
L 486.804746 299.783603 
L 488.365935 299.783264 
L 495.689901 299.882778 
L 502.217557 299.996223 
L 503.066257 300.08161 
L 511.621362 300.173556 
L 517.960418 300.286853 
L 518.651951 300.361757 
L 528.333418 300.451115 
L 531.282912 300.536487 
L 537.695312 300.623124 
L 537.695312 300.623124 
" style="fill:none;stroke:#1f77b4;stroke-linecap:square;stroke-width:1.5;"/>
   </g>
   <g id="line2d_22">
    <path clip-path="url(#p5199d0aa2e)" d="M 66.195312 34.423878 
L 67.044012 33.914691 
L 67.206418 34.219883 
L 67.588857 35.597825 
L 67.924146 36.400191 
L 68.070835 36.366523 
L 70.349751 34.376311 
L 72.204318 33.110733 
L 72.345768 33.177891 
L 72.539607 33.620794 
L 73.210185 35.319141 
L 73.409262 35.175256 
L 75.159051 33.819477 
L 77.176024 32.542013 
L 77.589896 32.430062 
L 77.773257 32.791402 
L 78.454313 34.323128 
L 78.784363 34.089098 
L 80.733229 32.795316 
L 82.760679 31.70322 
L 82.902129 31.821644 
L 83.148357 32.417076 
L 83.60414 33.417995 
L 83.771785 33.372268 
L 85.940685 32.07872 
L 88.03624 31.075225 
L 88.188168 31.232661 
L 88.497263 31.996943 
L 88.83779 32.600719 
L 89.015912 32.546637 
L 91.326262 31.327385 
L 93.31704 30.495932 
L 93.484685 30.710662 
L 94.181457 31.833015 
L 97.848679 30.175338 
L 98.624035 29.984994 
L 98.838829 30.358131 
L 99.315568 31.166023 
L 99.556557 31.077909 
L 102.296496 29.934287 
L 103.862924 29.45647 
L 104.06724 29.772327 
L 104.554457 30.532383 
L 104.847835 30.426119 
L 107.823524 29.313895 
L 109.128007 28.985776 
L 109.353279 29.343484 
L 109.77239 29.946297 
L 110.044813 29.863017 
L 113.245774 28.778941 
L 114.387851 28.542518 
L 114.634079 28.932138 
L 115.00604 29.405686 
L 115.315135 29.315866 
L 118.757085 28.260652 
L 119.647696 28.128906 
L 119.920118 28.554639 
L 120.244929 28.9051 
L 120.622129 28.799003 
L 124.320785 27.770942 
L 124.902301 27.737616 
L 125.206157 28.196032 
L 125.489057 28.440101 
L 126.023424 28.295137 
L 129.968307 27.303246 
L 130.167385 27.382304 
L 130.879874 27.972837 
L 134.992401 27.001836 
L 135.406274 27.02441 
L 136.12924 27.569621 
L 140.487996 26.627881 
L 140.681835 26.725148 
L 141.289546 27.21431 
L 145.784513 26.325907 
L 145.98359 26.478785 
L 146.45509 26.879296 
L 149.582707 26.275308 
L 151.149135 26.103946 
L 151.803996 26.532481 
L 156.298962 25.776194 
L 156.524235 25.969507 
L 156.901435 26.251449 
L 158.232112 26.021382 
L 161.616435 25.560222 
L 162.334162 25.935741 
L 166.82389 25.299262 
L 167.112029 25.569842 
L 167.38969 25.697948 
L 171.58604 25.097954 
L 172.15184 25.130969 
L 172.686207 25.440012 
L 177.343579 24.880881 
L 178.050829 25.188549 
L 182.587707 24.681978 
L 183.27924 24.971139 
L 187.837074 24.497868 
L 188.497174 24.768184 
L 193.08644 24.324676 
L 193.709868 24.57795 
L 198.335807 24.161693 
L 198.93304 24.397823 
L 203.585174 24.008258 
L 204.150974 24.228832 
L 208.83454 23.863756 
L 209.374146 24.069156 
L 214.083907 23.727614 
L 214.602557 23.918226 
L 219.333274 23.599296 
L 219.830968 23.775959 
L 224.58264 23.478304 
L 225.059379 23.641791 
L 229.832007 23.364161 
L 230.293029 23.514785 
L 235.081374 23.256436 
L 235.526679 23.394905 
L 240.33074 23.154708 
L 240.760329 23.281687 
L 245.574868 23.055562 
L 245.999218 23.174366 
L 250.824235 22.964754 
L 251.238107 23.072927 
L 256.068362 22.875963 
L 256.476996 22.976999 
L 261.317729 22.794745 
L 261.715885 22.886241 
L 266.561857 22.715071 
L 266.960012 22.800037 
L 271.805985 22.639583 
L 272.198901 22.718687 
L 277.055351 22.570642 
L 277.443029 22.641344 
L 282.299479 22.502703 
L 282.687157 22.568032 
L 287.543607 22.438242 
L 287.931285 22.498513 
L 292.792974 22.379426 
L 293.175412 22.43256 
L 298.037101 22.321225 
L 298.424779 22.369727 
L 303.281229 22.265919 
L 303.668907 22.31029 
L 308.541074 22.219625 
L 308.928751 22.253199 
L 313.785201 22.169351 
L 314.183357 22.199148 
L 319.034568 22.123352 
L 319.437962 22.147756 
L 324.283935 22.079413 
L 324.703046 22.098504 
L 329.533301 22.037398 
L 329.968129 22.051639 
L 334.782668 21.997173 
L 335.238451 22.00685 
L 340.032035 21.958622 
L 340.519251 21.96386 
L 345.281401 21.921641 
L 345.810529 21.92259 
L 350.536007 21.887123 
L 351.138479 21.882167 
L 355.795851 21.854391 
L 356.550251 21.841241 
L 361.060935 21.822684 
L 362.161101 21.796807 
L 367.143285 21.771364 
L 373.503296 21.71179 
L 381.644529 21.620937 
L 383.975835 21.655467 
L 392.169457 21.574854 
L 393.390118 21.627773 
L 402.615801 21.525366 
L 404.575146 21.563851 
L 413.172162 21.493083 
L 413.999907 21.541518 
L 423.628985 21.450026 
L 424.650568 21.496537 
L 434.138196 21.418998 
L 434.950224 21.461776 
L 444.636929 21.389338 
L 445.365135 21.427541 
L 455.130424 21.361224 
L 455.821957 21.395131 
L 465.629157 21.336508 
L 466.284018 21.36502 
L 476.122651 21.312674 
L 476.761796 21.336824 
L 486.621385 21.291675 
L 487.260529 21.310296 
L 497.120118 21.272103 
L 497.76974 21.285451 
L 507.613612 21.252762 
L 508.294668 21.262078 
L 518.117585 21.236225 
L 518.877224 21.239488 
L 528.621557 21.220155 
L 529.533124 21.21744 
L 537.695312 21.174742 
L 537.695312 21.174742 
" style="fill:none;stroke:#ff7f0e;stroke-linecap:square;stroke-width:1.5;"/>
   </g>
   <g id="patch_3">
    <path d="M 42.620313 314.6 
L 42.620313 7.2 
" style="fill:none;stroke:#000000;stroke-linecap:square;stroke-linejoin:miter;stroke-width:0.8;"/>
   </g>
   <g id="patch_4">
    <path d="M 561.270312 314.6 
L 561.270312 7.2 
" style="fill:none;stroke:#000000;stroke-linecap:square;stroke-linejoin:miter;stroke-width:0.8;"/>
   </g>
   <g id="patch_5">
    <path d="M 42.620312 314.6 
L 561.270312 314.6 
" style="fill:none;stroke:#000000;stroke-linecap:square;stroke-linejoin:miter;stroke-width:0.8;"/>
   </g>
   <g id="patch_6">
    <path d="M 42.620312 7.2 
L 561.270312 7.2 
" style="fill:none;stroke:#000000;stroke-linecap:square;stroke-linejoin:miter;stroke-width:0.8;"/>
   </g>
   <g id="legend_1">
    <g id="patch_7">
     <path d="M 96.485313 68.68 
L 167.89 68.68 
Q 169.89 68.68 169.89 66.68 
L 169.89 38.32375 
Q 169.89 36.32375 167.89 36.32375 
L 96.485313 36.32375 
Q 94.485313 36.32375 94.485313 38.32375 
L 94.485313 66.68 
Q 94.485313 68.68 96.485313 68.68 
z
" style="fill:#ffffff;opacity:0.8;stroke:#cccccc;stroke-linejoin:miter;"/>
    </g>
    <g id="line2d_23">
     <path d="M 98.485313 44.422187 
L 118.485313 44.422187 
" style="fill:none;stroke:#1f77b4;stroke-linecap:square;stroke-width:1.5;"/>
    </g>
    <g id="line2d_24"/>
    <g id="text_13">
     <!-- Vin [V] -->
     <g transform="translate(126.485313 47.922187)scale(0.1 -0.1)">
      <defs>
       <path d="M 9.421875 54.6875 
L 18.40625 54.6875 
L 18.40625 0 
L 9.421875 0 
z
M 9.421875 75.984375 
L 18.40625 75.984375 
L 18.40625 64.59375 
L 9.421875 64.59375 
z
" id="DejaVuSans-105"/>
       <path d="M 54.890625 33.015625 
L 54.890625 0 
L 45.90625 0 
L 45.90625 32.71875 
Q 45.90625 40.484375 42.875 44.328125 
Q 39.84375 48.1875 33.796875 48.1875 
Q 26.515625 48.1875 22.3125 43.546875 
Q 18.109375 38.921875 18.109375 30.90625 
L 18.109375 0 
L 9.078125 0 
L 9.078125 54.6875 
L 18.109375 54.6875 
L 18.109375 46.1875 
Q 21.34375 51.125 25.703125 53.5625 
Q 30.078125 56 35.796875 56 
Q 45.21875 56 50.046875 50.171875 
Q 54.890625 44.34375 54.890625 33.015625 
z
" id="DejaVuSans-110"/>
      </defs>
      <use xlink:href="#DejaVuSans-86"/>
      <use x="66.158203" xlink:href="#DejaVuSans-105"/>
      <use x="93.941406" xlink:href="#DejaVuSans-110"/>
      <use x="157.320312" xlink:href="#DejaVuSans-32"/>
      <use x="189.107422" xlink:href="#DejaVuSans-91"/>
      <use x="228.121094" xlink:href="#DejaVuSans-86"/>
      <use x="296.529297" xlink:href="#DejaVuSans-93"/>
     </g>
    </g>
    <g id="line2d_25">
     <path d="M 98.485313 59.100312 
L 118.485313 59.100312 
" style="fill:none;stroke:#ff7f0e;stroke-linecap:square;stroke-width:1.5;"/>
    </g>
    <g id="line2d_26"/>
    <g id="text_14">
     <!-- V#1 [V] -->
     <g transform="translate(126.485313 62.600312)scale(0.1 -0.1)">
      <defs>
       <path d="M 51.125 44 
L 36.921875 44 
L 32.8125 27.6875 
L 47.125 27.6875 
z
M 43.796875 71.78125 
L 38.71875 51.515625 
L 52.984375 51.515625 
L 58.109375 71.78125 
L 65.921875 71.78125 
L 60.890625 51.515625 
L 76.125 51.515625 
L 76.125 44 
L 58.984375 44 
L 54.984375 27.6875 
L 70.515625 27.6875 
L 70.515625 20.21875 
L 53.078125 20.21875 
L 48 0 
L 40.1875 0 
L 45.21875 20.21875 
L 30.90625 20.21875 
L 25.875 0 
L 18.015625 0 
L 23.09375 20.21875 
L 7.71875 20.21875 
L 7.71875 27.6875 
L 24.90625 27.6875 
L 29 44 
L 13.28125 44 
L 13.28125 51.515625 
L 30.90625 51.515625 
L 35.890625 71.78125 
z
" id="DejaVuSans-35"/>
      </defs>
      <use xlink:href="#DejaVuSans-86"/>
      <use x="68.408203" xlink:href="#DejaVuSans-35"/>
      <use x="152.197266" xlink:href="#DejaVuSans-49"/>
      <use x="215.820312" xlink:href="#DejaVuSans-32"/>
      <use x="247.607422" xlink:href="#DejaVuSans-91"/>
      <use x="286.621094" xlink:href="#DejaVuSans-86"/>
      <use x="355.029297" xlink:href="#DejaVuSans-93"/>
     </g>
    </g>
   </g>
  </g>
 </g>
 <defs>
  <clipPath id="p5199d0aa2e">
   <rect height="307.4" width="518.65" x="42.620313" y="7.2"/>
  </clipPath>
 </defs>
</svg>
