<?xml version="1.0" standalone="no"?>
 <!DOCTYPE svg PUBLIC "-//W3C//DTD SVG 1.1//EN" 
 "http://www.w3.org/Graphics/SVG/1.1/DTD/svg11.dtd"> 
<svg
  xmlns:svg="http://www.w3.org/2000/svg"
  xmlns="http://www.w3.org/2000/svg"
  xmlns:xlink="http://www.w3.org/1999/xlink"
  version="1.1"
  width="297.0022mm" height="210.0072mm" viewBox="0.0000 0.0000 297.0022 210.0072">
<title>SVG Image created as main-B_Paste.svg date 2023/11/07 21:45:31 </title>
  <desc>Image generated by PCBNEW </desc>
<g style="fill:#000000; fill-opacity:1.0000;stroke:#000000; stroke-opacity:1.0000;
stroke-linecap:round; stroke-linejoin:round;"
 transform="translate(0 0) scale(1 1)">
</g>
<g style="fill:#000000; fill-opacity:0.0; 
stroke:#000000; stroke-width:0.0000; stroke-opacity:1; 
stroke-linecap:round; stroke-linejoin:round;">
<g >
</g>
<g >
</g>
<g >
</g>
<g >
</g>
<g >
</g>
<g >
</g>
<g >
</g>
<g >
</g>
<g >
</g>
<g >
</g>
<g >
</g>
<g >
</g>
<g >
</g>
<g >
</g>
<g >
</g>
<g >
</g>
<g >
</g>
<g >
</g>
<g >
</g>
<g >
</g>
<g >
</g>
<g >
</g>
<g >
</g>
<g >
</g>
<g >
</g>
<g style="fill:#000000; fill-opacity:0.0; 
stroke:#000000; stroke-width:0.0000; stroke-opacity:1; 
stroke-linecap:round; stroke-linejoin:round;">
</g>
<g style="fill:#000000; fill-opacity:0.0; 
stroke:#000000; stroke-width:0.0000; stroke-opacity:1; 
stroke-linecap:round; stroke-linejoin:round;">
</g>
<g style="fill:#000000; fill-opacity:1.0000; 
stroke:#000000; stroke-width:0.0000; stroke-opacity:1; 
stroke-linecap:round; stroke-linejoin:round;">
<path style="fill:#000000; fill-opacity:1.0000; 
stroke:#000000; stroke-width:0.0000; stroke-opacity:1; 
stroke-linecap:round; stroke-linejoin:round;fill-rule:evenodd;"
d="M 87.8260,76.5050
87.9217,76.5240
88.0028,76.5782
88.0570,76.6593
88.0760,76.7550
88.0760,77.4550
88.0570,77.5507
88.0028,77.6318
87.9217,77.6860
87.8260,77.7050
86.9260,77.7050
86.8303,77.6860
86.7492,77.6318
86.6950,77.5507
86.6760,77.4550
86.6760,76.7550
86.6950,76.6593
86.7492,76.5782
86.8303,76.5240
86.9260,76.5050
Z" /> 
<path style="fill:#000000; fill-opacity:1.0000; 
stroke:#000000; stroke-width:0.0000; stroke-opacity:1; 
stroke-linecap:round; stroke-linejoin:round;fill-rule:evenodd;"
d="M 87.8260,78.5050
87.9217,78.5240
88.0028,78.5782
88.0570,78.6593
88.0760,78.7550
88.0760,79.4550
88.0570,79.5507
88.0028,79.6318
87.9217,79.6860
87.8260,79.7050
86.9260,79.7050
86.8303,79.6860
86.7492,79.6318
86.6950,79.5507
86.6760,79.4550
86.6760,78.7550
86.6950,78.6593
86.7492,78.5782
86.8303,78.5240
86.9260,78.5050
Z" /> 
</g>
<g >
</g>
<g style="fill:#000000; fill-opacity:1.0000; 
stroke:#000000; stroke-width:0.0000; stroke-opacity:1; 
stroke-linecap:round; stroke-linejoin:round;">
<path style="fill:#000000; fill-opacity:1.0000; 
stroke:#000000; stroke-width:0.0000; stroke-opacity:1; 
stroke-linecap:round; stroke-linejoin:round;fill-rule:evenodd;"
d="M 83.6240,79.7050
83.5283,79.6860
83.4472,79.6318
83.3930,79.5507
83.3740,79.4550
83.3740,78.7550
83.3930,78.6593
83.4472,78.5782
83.5283,78.5240
83.6240,78.5050
84.5240,78.5050
84.6197,78.5240
84.7008,78.5782
84.7550,78.6593
84.7740,78.7550
84.7740,79.4550
84.7550,79.5507
84.7008,79.6318
84.6197,79.6860
84.5240,79.7050
Z" /> 
<path style="fill:#000000; fill-opacity:1.0000; 
stroke:#000000; stroke-width:0.0000; stroke-opacity:1; 
stroke-linecap:round; stroke-linejoin:round;fill-rule:evenodd;"
d="M 83.6240,77.7050
83.5283,77.6860
83.4472,77.6318
83.3930,77.5507
83.3740,77.4550
83.3740,76.7550
83.3930,76.6593
83.4472,76.5782
83.5283,76.5240
83.6240,76.5050
84.5240,76.5050
84.6197,76.5240
84.7008,76.5782
84.7550,76.6593
84.7740,76.7550
84.7740,77.4550
84.7550,77.5507
84.7008,77.6318
84.6197,77.6860
84.5240,77.7050
Z" /> 
</g>
<g >
</g>
<g style="fill:#000000; fill-opacity:1.0000; 
stroke:#000000; stroke-width:0.0000; stroke-opacity:1; 
stroke-linecap:round; stroke-linejoin:round;">
<path style="fill:#000000; fill-opacity:1.0000; 
stroke:#000000; stroke-width:0.0000; stroke-opacity:1; 
stroke-linecap:round; stroke-linejoin:round;fill-rule:evenodd;"
d="M 87.8260,96.7950
87.9217,96.8140
88.0028,96.8682
88.0570,96.9493
88.0760,97.0450
88.0760,97.7450
88.0570,97.8407
88.0028,97.9218
87.9217,97.9760
87.8260,97.9950
86.9260,97.9950
86.8303,97.9760
86.7492,97.9218
86.6950,97.8407
86.6760,97.7450
86.6760,97.0450
86.6950,96.9493
86.7492,96.8682
86.8303,96.8140
86.9260,96.7950
Z" /> 
<path style="fill:#000000; fill-opacity:1.0000; 
stroke:#000000; stroke-width:0.0000; stroke-opacity:1; 
stroke-linecap:round; stroke-linejoin:round;fill-rule:evenodd;"
d="M 87.8260,98.7950
87.9217,98.8140
88.0028,98.8682
88.0570,98.9493
88.0760,99.0450
88.0760,99.7450
88.0570,99.8407
88.0028,99.9218
87.9217,99.9760
87.8260,99.9950
86.9260,99.9950
86.8303,99.9760
86.7492,99.9218
86.6950,99.8407
86.6760,99.7450
86.6760,99.0450
86.6950,98.9493
86.7492,98.8682
86.8303,98.8140
86.9260,98.7950
Z" /> 
</g>
<g >
</g>
<g style="fill:#000000; fill-opacity:1.0000; 
stroke:#000000; stroke-width:0.0000; stroke-opacity:1; 
stroke-linecap:round; stroke-linejoin:round;">
<path style="fill:#000000; fill-opacity:1.0000; 
stroke:#000000; stroke-width:0.0000; stroke-opacity:1; 
stroke-linecap:round; stroke-linejoin:round;fill-rule:evenodd;"
d="M 83.6240,99.9950
83.5283,99.9760
83.4472,99.9218
83.3930,99.8407
83.3740,99.7450
83.3740,99.0450
83.3930,98.9493
83.4472,98.8682
83.5283,98.8140
83.6240,98.7950
84.5240,98.7950
84.6197,98.8140
84.7008,98.8682
84.7550,98.9493
84.7740,99.0450
84.7740,99.7450
84.7550,99.8407
84.7008,99.9218
84.6197,99.9760
84.5240,99.9950
Z" /> 
<path style="fill:#000000; fill-opacity:1.0000; 
stroke:#000000; stroke-width:0.0000; stroke-opacity:1; 
stroke-linecap:round; stroke-linejoin:round;fill-rule:evenodd;"
d="M 83.6240,97.9950
83.5283,97.9760
83.4472,97.9218
83.3930,97.8407
83.3740,97.7450
83.3740,97.0450
83.3930,96.9493
83.4472,96.8682
83.5283,96.8140
83.6240,96.7950
84.5240,96.7950
84.6197,96.8140
84.7008,96.8682
84.7550,96.9493
84.7740,97.0450
84.7740,97.7450
84.7550,97.8407
84.7008,97.9218
84.6197,97.9760
84.5240,97.9950
Z" /> 
</g>
<g >
</g>
<g style="fill:#000000; fill-opacity:1.0000; 
stroke:#000000; stroke-width:0.0000; stroke-opacity:1; 
stroke-linecap:round; stroke-linejoin:round;">
<path style="fill:#000000; fill-opacity:1.0000; 
stroke:#000000; stroke-width:0.0000; stroke-opacity:1; 
stroke-linecap:round; stroke-linejoin:round;fill-rule:evenodd;"
d="M 87.8260,117.1450
87.9217,117.1640
88.0028,117.2182
88.0570,117.2993
88.0760,117.3950
88.0760,118.0950
88.0570,118.1907
88.0028,118.2718
87.9217,118.3260
87.8260,118.3450
86.9260,118.3450
86.8303,118.3260
86.7492,118.2718
86.6950,118.1907
86.6760,118.0950
86.6760,117.3950
86.6950,117.2993
86.7492,117.2182
86.8303,117.1640
86.9260,117.1450
Z" /> 
<path style="fill:#000000; fill-opacity:1.0000; 
stroke:#000000; stroke-width:0.0000; stroke-opacity:1; 
stroke-linecap:round; stroke-linejoin:round;fill-rule:evenodd;"
d="M 87.8260,119.1450
87.9217,119.1640
88.0028,119.2182
88.0570,119.2993
88.0760,119.3950
88.0760,120.0950
88.0570,120.1907
88.0028,120.2718
87.9217,120.3260
87.8260,120.3450
86.9260,120.3450
86.8303,120.3260
86.7492,120.2718
86.6950,120.1907
86.6760,120.0950
86.6760,119.3950
86.6950,119.2993
86.7492,119.2182
86.8303,119.1640
86.9260,119.1450
Z" /> 
</g>
<g >
</g>
<g style="fill:#000000; fill-opacity:1.0000; 
stroke:#000000; stroke-width:0.0000; stroke-opacity:1; 
stroke-linecap:round; stroke-linejoin:round;">
<path style="fill:#000000; fill-opacity:1.0000; 
stroke:#000000; stroke-width:0.0000; stroke-opacity:1; 
stroke-linecap:round; stroke-linejoin:round;fill-rule:evenodd;"
d="M 83.6240,120.3450
83.5283,120.3260
83.4472,120.2718
83.3930,120.1907
83.3740,120.0950
83.3740,119.3950
83.3930,119.2993
83.4472,119.2182
83.5283,119.1640
83.6240,119.1450
84.5240,119.1450
84.6197,119.1640
84.7008,119.2182
84.7550,119.2993
84.7740,119.3950
84.7740,120.0950
84.7550,120.1907
84.7008,120.2718
84.6197,120.3260
84.5240,120.3450
Z" /> 
<path style="fill:#000000; fill-opacity:1.0000; 
stroke:#000000; stroke-width:0.0000; stroke-opacity:1; 
stroke-linecap:round; stroke-linejoin:round;fill-rule:evenodd;"
d="M 83.6240,118.3450
83.5283,118.3260
83.4472,118.2718
83.3930,118.1907
83.3740,118.0950
83.3740,117.3950
83.3930,117.2993
83.4472,117.2182
83.5283,117.1640
83.6240,117.1450
84.5240,117.1450
84.6197,117.1640
84.7008,117.2182
84.7550,117.2993
84.7740,117.3950
84.7740,118.0950
84.7550,118.1907
84.7008,118.2718
84.6197,118.3260
84.5240,118.3450
Z" /> 
</g>
<g >
</g>
<g style="fill:#000000; fill-opacity:1.0000; 
stroke:#000000; stroke-width:0.0000; stroke-opacity:1; 
stroke-linecap:round; stroke-linejoin:round;">
<path style="fill:#000000; fill-opacity:1.0000; 
stroke:#000000; stroke-width:0.0000; stroke-opacity:1; 
stroke-linecap:round; stroke-linejoin:round;fill-rule:evenodd;"
d="M 87.8260,136.1650
87.9217,136.1840
88.0028,136.2382
88.0570,136.3193
88.0760,136.4150
88.0760,137.1150
88.0570,137.2107
88.0028,137.2918
87.9217,137.3460
87.8260,137.3650
86.9260,137.3650
86.8303,137.3460
86.7492,137.2918
86.6950,137.2107
86.6760,137.1150
86.6760,136.4150
86.6950,136.3193
86.7492,136.2382
86.8303,136.1840
86.9260,136.1650
Z" /> 
<path style="fill:#000000; fill-opacity:1.0000; 
stroke:#000000; stroke-width:0.0000; stroke-opacity:1; 
stroke-linecap:round; stroke-linejoin:round;fill-rule:evenodd;"
d="M 87.8260,138.1650
87.9217,138.1840
88.0028,138.2382
88.0570,138.3193
88.0760,138.4150
88.0760,139.1150
88.0570,139.2107
88.0028,139.2918
87.9217,139.3460
87.8260,139.3650
86.9260,139.3650
86.8303,139.3460
86.7492,139.2918
86.6950,139.2107
86.6760,139.1150
86.6760,138.4150
86.6950,138.3193
86.7492,138.2382
86.8303,138.1840
86.9260,138.1650
Z" /> 
</g>
<g >
</g>
<g style="fill:#000000; fill-opacity:1.0000; 
stroke:#000000; stroke-width:0.0000; stroke-opacity:1; 
stroke-linecap:round; stroke-linejoin:round;">
<path style="fill:#000000; fill-opacity:1.0000; 
stroke:#000000; stroke-width:0.0000; stroke-opacity:1; 
stroke-linecap:round; stroke-linejoin:round;fill-rule:evenodd;"
d="M 83.6240,139.3650
83.5283,139.3460
83.4472,139.2918
83.3930,139.2107
83.3740,139.1150
83.3740,138.4150
83.3930,138.3193
83.4472,138.2382
83.5283,138.1840
83.6240,138.1650
84.5240,138.1650
84.6197,138.1840
84.7008,138.2382
84.7550,138.3193
84.7740,138.4150
84.7740,139.1150
84.7550,139.2107
84.7008,139.2918
84.6197,139.3460
84.5240,139.3650
Z" /> 
<path style="fill:#000000; fill-opacity:1.0000; 
stroke:#000000; stroke-width:0.0000; stroke-opacity:1; 
stroke-linecap:round; stroke-linejoin:round;fill-rule:evenodd;"
d="M 83.6240,137.3650
83.5283,137.3460
83.4472,137.2918
83.3930,137.2107
83.3740,137.1150
83.3740,136.4150
83.3930,136.3193
83.4472,136.2382
83.5283,136.1840
83.6240,136.1650
84.5240,136.1650
84.6197,136.1840
84.7008,136.2382
84.7550,136.3193
84.7740,136.4150
84.7740,137.1150
84.7550,137.2107
84.7008,137.2918
84.6197,137.3460
84.5240,137.3650
Z" /> 
</g>
<g >
</g>
<g style="fill:#000000; fill-opacity:1.0000; 
stroke:#000000; stroke-width:0.0000; stroke-opacity:1; 
stroke-linecap:round; stroke-linejoin:round;">
<path style="fill:#000000; fill-opacity:1.0000; 
stroke:#000000; stroke-width:0.0000; stroke-opacity:1; 
stroke-linecap:round; stroke-linejoin:round;fill-rule:evenodd;"
d="M 75.7500,75.2600
75.6543,75.2410
75.5732,75.1868
75.5190,75.1057
75.5000,75.0100
75.5000,74.3100
75.5190,74.2143
75.5732,74.1332
75.6543,74.0790
75.7500,74.0600
76.6500,74.0600
76.7457,74.0790
76.8268,74.1332
76.8810,74.2143
76.9000,74.3100
76.9000,75.0100
76.8810,75.1057
76.8268,75.1868
76.7457,75.2410
76.6500,75.2600
Z" /> 
<path style="fill:#000000; fill-opacity:1.0000; 
stroke:#000000; stroke-width:0.0000; stroke-opacity:1; 
stroke-linecap:round; stroke-linejoin:round;fill-rule:evenodd;"
d="M 75.7500,73.2600
75.6543,73.2410
75.5732,73.1868
75.5190,73.1057
75.5000,73.0100
75.5000,72.3100
75.5190,72.2143
75.5732,72.1332
75.6543,72.0790
75.7500,72.0600
76.6500,72.0600
76.7457,72.0790
76.8268,72.1332
76.8810,72.2143
76.9000,72.3100
76.9000,73.0100
76.8810,73.1057
76.8268,73.1868
76.7457,73.2410
76.6500,73.2600
Z" /> 
</g>
<g >
</g>
<g style="fill:#000000; fill-opacity:1.0000; 
stroke:#000000; stroke-width:0.0000; stroke-opacity:1; 
stroke-linecap:round; stroke-linejoin:round;">
<path style="fill:#000000; fill-opacity:1.0000; 
stroke:#000000; stroke-width:0.0000; stroke-opacity:1; 
stroke-linecap:round; stroke-linejoin:round;fill-rule:evenodd;"
d="M 76.6500,92.3800
76.7457,92.3990
76.8268,92.4532
76.8810,92.5343
76.9000,92.6300
76.9000,93.3300
76.8810,93.4257
76.8268,93.5068
76.7457,93.5610
76.6500,93.5800
75.7500,93.5800
75.6543,93.5610
75.5732,93.5068
75.5190,93.4257
75.5000,93.3300
75.5000,92.6300
75.5190,92.5343
75.5732,92.4532
75.6543,92.3990
75.7500,92.3800
Z" /> 
<path style="fill:#000000; fill-opacity:1.0000; 
stroke:#000000; stroke-width:0.0000; stroke-opacity:1; 
stroke-linecap:round; stroke-linejoin:round;fill-rule:evenodd;"
d="M 76.6500,94.3800
76.7457,94.3990
76.8268,94.4532
76.8810,94.5343
76.9000,94.6300
76.9000,95.3300
76.8810,95.4257
76.8268,95.5068
76.7457,95.5610
76.6500,95.5800
75.7500,95.5800
75.6543,95.5610
75.5732,95.5068
75.5190,95.4257
75.5000,95.3300
75.5000,94.6300
75.5190,94.5343
75.5732,94.4532
75.6543,94.3990
75.7500,94.3800
Z" /> 
</g>
<g >
</g>
<g style="fill:#000000; fill-opacity:1.0000; 
stroke:#000000; stroke-width:0.0000; stroke-opacity:1; 
stroke-linecap:round; stroke-linejoin:round;">
<path style="fill:#000000; fill-opacity:1.0000; 
stroke:#000000; stroke-width:0.0000; stroke-opacity:1; 
stroke-linecap:round; stroke-linejoin:round;fill-rule:evenodd;"
d="M 76.3960,113.0650
76.4917,113.0840
76.5728,113.1382
76.6270,113.2193
76.6460,113.3150
76.6460,114.0150
76.6270,114.1107
76.5728,114.1918
76.4917,114.2460
76.3960,114.2650
75.4960,114.2650
75.4003,114.2460
75.3192,114.1918
75.2650,114.1107
75.2460,114.0150
75.2460,113.3150
75.2650,113.2193
75.3192,113.1382
75.4003,113.0840
75.4960,113.0650
Z" /> 
<path style="fill:#000000; fill-opacity:1.0000; 
stroke:#000000; stroke-width:0.0000; stroke-opacity:1; 
stroke-linecap:round; stroke-linejoin:round;fill-rule:evenodd;"
d="M 76.3960,115.0650
76.4917,115.0840
76.5728,115.1382
76.6270,115.2193
76.6460,115.3150
76.6460,116.0150
76.6270,116.1107
76.5728,116.1918
76.4917,116.2460
76.3960,116.2650
75.4960,116.2650
75.4003,116.2460
75.3192,116.1918
75.2650,116.1107
75.2460,116.0150
75.2460,115.3150
75.2650,115.2193
75.3192,115.1382
75.4003,115.0840
75.4960,115.0650
Z" /> 
</g>
<g >
</g>
<g style="fill:#000000; fill-opacity:1.0000; 
stroke:#000000; stroke-width:0.0000; stroke-opacity:1; 
stroke-linecap:round; stroke-linejoin:round;">
<path style="fill:#000000; fill-opacity:1.0000; 
stroke:#000000; stroke-width:0.0000; stroke-opacity:1; 
stroke-linecap:round; stroke-linejoin:round;fill-rule:evenodd;"
d="M 76.6500,132.3850
76.7457,132.4040
76.8268,132.4582
76.8810,132.5393
76.9000,132.6350
76.9000,133.3350
76.8810,133.4307
76.8268,133.5118
76.7457,133.5660
76.6500,133.5850
75.7500,133.5850
75.6543,133.5660
75.5732,133.5118
75.5190,133.4307
75.5000,133.3350
75.5000,132.6350
75.5190,132.5393
75.5732,132.4582
75.6543,132.4040
75.7500,132.3850
Z" /> 
<path style="fill:#000000; fill-opacity:1.0000; 
stroke:#000000; stroke-width:0.0000; stroke-opacity:1; 
stroke-linecap:round; stroke-linejoin:round;fill-rule:evenodd;"
d="M 76.6500,134.3850
76.7457,134.4040
76.8268,134.4582
76.8810,134.5393
76.9000,134.6350
76.9000,135.3350
76.8810,135.4307
76.8268,135.5118
76.7457,135.5660
76.6500,135.5850
75.7500,135.5850
75.6543,135.5660
75.5732,135.5118
75.5190,135.4307
75.5000,135.3350
75.5000,134.6350
75.5190,134.5393
75.5732,134.4582
75.6543,134.4040
75.7500,134.3850
Z" /> 
</g>
<g >
</g>
<g style="fill:#000000; fill-opacity:1.0000; 
stroke:#000000; stroke-width:0.0000; stroke-opacity:1; 
stroke-linecap:round; stroke-linejoin:round;">
<path style="fill:#000000; fill-opacity:1.0000; 
stroke:#000000; stroke-width:0.0000; stroke-opacity:1; 
stroke-linecap:round; stroke-linejoin:round;fill-rule:evenodd;"
d="M 72.5750,75.2600
72.4793,75.2410
72.3982,75.1868
72.3440,75.1057
72.3250,75.0100
72.3250,74.3100
72.3440,74.2143
72.3982,74.1332
72.4793,74.0790
72.5750,74.0600
73.4750,74.0600
73.5707,74.0790
73.6518,74.1332
73.7060,74.2143
73.7250,74.3100
73.7250,75.0100
73.7060,75.1057
73.6518,75.1868
73.5707,75.2410
73.4750,75.2600
Z" /> 
<path style="fill:#000000; fill-opacity:1.0000; 
stroke:#000000; stroke-width:0.0000; stroke-opacity:1; 
stroke-linecap:round; stroke-linejoin:round;fill-rule:evenodd;"
d="M 72.5750,73.2600
72.4793,73.2410
72.3982,73.1868
72.3440,73.1057
72.3250,73.0100
72.3250,72.3100
72.3440,72.2143
72.3982,72.1332
72.4793,72.0790
72.5750,72.0600
73.4750,72.0600
73.5707,72.0790
73.6518,72.1332
73.7060,72.2143
73.7250,72.3100
73.7250,73.0100
73.7060,73.1057
73.6518,73.1868
73.5707,73.2410
73.4750,73.2600
Z" /> 
</g>
<g >
</g>
<g style="fill:#000000; fill-opacity:1.0000; 
stroke:#000000; stroke-width:0.0000; stroke-opacity:1; 
stroke-linecap:round; stroke-linejoin:round;">
<path style="fill:#000000; fill-opacity:1.0000; 
stroke:#000000; stroke-width:0.0000; stroke-opacity:1; 
stroke-linecap:round; stroke-linejoin:round;fill-rule:evenodd;"
d="M 72.5750,95.5800
72.4793,95.5610
72.3982,95.5068
72.3440,95.4257
72.3250,95.3300
72.3250,94.6300
72.3440,94.5343
72.3982,94.4532
72.4793,94.3990
72.5750,94.3800
73.4750,94.3800
73.5707,94.3990
73.6518,94.4532
73.7060,94.5343
73.7250,94.6300
73.7250,95.3300
73.7060,95.4257
73.6518,95.5068
73.5707,95.5610
73.4750,95.5800
Z" /> 
<path style="fill:#000000; fill-opacity:1.0000; 
stroke:#000000; stroke-width:0.0000; stroke-opacity:1; 
stroke-linecap:round; stroke-linejoin:round;fill-rule:evenodd;"
d="M 72.5750,93.5800
72.4793,93.5610
72.3982,93.5068
72.3440,93.4257
72.3250,93.3300
72.3250,92.6300
72.3440,92.5343
72.3982,92.4532
72.4793,92.3990
72.5750,92.3800
73.4750,92.3800
73.5707,92.3990
73.6518,92.4532
73.7060,92.5343
73.7250,92.6300
73.7250,93.3300
73.7060,93.4257
73.6518,93.5068
73.5707,93.5610
73.4750,93.5800
Z" /> 
</g>
<g >
</g>
<g style="fill:#000000; fill-opacity:1.0000; 
stroke:#000000; stroke-width:0.0000; stroke-opacity:1; 
stroke-linecap:round; stroke-linejoin:round;">
<path style="fill:#000000; fill-opacity:1.0000; 
stroke:#000000; stroke-width:0.0000; stroke-opacity:1; 
stroke-linecap:round; stroke-linejoin:round;fill-rule:evenodd;"
d="M 72.5750,116.2650
72.4793,116.2460
72.3982,116.1918
72.3440,116.1107
72.3250,116.0150
72.3250,115.3150
72.3440,115.2193
72.3982,115.1382
72.4793,115.0840
72.5750,115.0650
73.4750,115.0650
73.5707,115.0840
73.6518,115.1382
73.7060,115.2193
73.7250,115.3150
73.7250,116.0150
73.7060,116.1107
73.6518,116.1918
73.5707,116.2460
73.4750,116.2650
Z" /> 
<path style="fill:#000000; fill-opacity:1.0000; 
stroke:#000000; stroke-width:0.0000; stroke-opacity:1; 
stroke-linecap:round; stroke-linejoin:round;fill-rule:evenodd;"
d="M 72.5750,114.2650
72.4793,114.2460
72.3982,114.1918
72.3440,114.1107
72.3250,114.0150
72.3250,113.3150
72.3440,113.2193
72.3982,113.1382
72.4793,113.0840
72.5750,113.0650
73.4750,113.0650
73.5707,113.0840
73.6518,113.1382
73.7060,113.2193
73.7250,113.3150
73.7250,114.0150
73.7060,114.1107
73.6518,114.1918
73.5707,114.2460
73.4750,114.2650
Z" /> 
</g>
<g >
</g>
<g style="fill:#000000; fill-opacity:1.0000; 
stroke:#000000; stroke-width:0.0000; stroke-opacity:1; 
stroke-linecap:round; stroke-linejoin:round;">
<path style="fill:#000000; fill-opacity:1.0000; 
stroke:#000000; stroke-width:0.0000; stroke-opacity:1; 
stroke-linecap:round; stroke-linejoin:round;fill-rule:evenodd;"
d="M 72.5750,135.5850
72.4793,135.5660
72.3982,135.5118
72.3440,135.4307
72.3250,135.3350
72.3250,134.6350
72.3440,134.5393
72.3982,134.4582
72.4793,134.4040
72.5750,134.3850
73.4750,134.3850
73.5707,134.4040
73.6518,134.4582
73.7060,134.5393
73.7250,134.6350
73.7250,135.3350
73.7060,135.4307
73.6518,135.5118
73.5707,135.5660
73.4750,135.5850
Z" /> 
<path style="fill:#000000; fill-opacity:1.0000; 
stroke:#000000; stroke-width:0.0000; stroke-opacity:1; 
stroke-linecap:round; stroke-linejoin:round;fill-rule:evenodd;"
d="M 72.5750,133.5850
72.4793,133.5660
72.3982,133.5118
72.3440,133.4307
72.3250,133.3350
72.3250,132.6350
72.3440,132.5393
72.3982,132.4582
72.4793,132.4040
72.5750,132.3850
73.4750,132.3850
73.5707,132.4040
73.6518,132.4582
73.7060,132.5393
73.7250,132.6350
73.7250,133.3350
73.7060,133.4307
73.6518,133.5118
73.5707,133.5660
73.4750,133.5850
Z" /> 
</g>
<g >
</g>
<g style="fill:#000000; fill-opacity:1.0000; 
stroke:#000000; stroke-width:0.0000; stroke-opacity:1; 
stroke-linecap:round; stroke-linejoin:round;">
<path style="fill:#000000; fill-opacity:1.0000; 
stroke:#000000; stroke-width:0.0000; stroke-opacity:1; 
stroke-linecap:round; stroke-linejoin:round;fill-rule:evenodd;"
d="M 70.0350,78.4350
69.9393,78.4160
69.8582,78.3618
69.8040,78.2807
69.7850,78.1850
69.7850,77.4850
69.8040,77.3893
69.8582,77.3082
69.9393,77.2540
70.0350,77.2350
70.9350,77.2350
71.0307,77.2540
71.1118,77.3082
71.1660,77.3893
71.1850,77.4850
71.1850,78.1850
71.1660,78.2807
71.1118,78.3618
71.0307,78.4160
70.9350,78.4350
Z" /> 
<path style="fill:#000000; fill-opacity:1.0000; 
stroke:#000000; stroke-width:0.0000; stroke-opacity:1; 
stroke-linecap:round; stroke-linejoin:round;fill-rule:evenodd;"
d="M 70.0350,76.4350
69.9393,76.4160
69.8582,76.3618
69.8040,76.2807
69.7850,76.1850
69.7850,75.4850
69.8040,75.3893
69.8582,75.3082
69.9393,75.2540
70.0350,75.2350
70.9350,75.2350
71.0307,75.2540
71.1118,75.3082
71.1660,75.3893
71.1850,75.4850
71.1850,76.1850
71.1660,76.2807
71.1118,76.3618
71.0307,76.4160
70.9350,76.4350
Z" /> 
</g>
<g >
</g>
<g style="fill:#000000; fill-opacity:1.0000; 
stroke:#000000; stroke-width:0.0000; stroke-opacity:1; 
stroke-linecap:round; stroke-linejoin:round;">
<path style="fill:#000000; fill-opacity:1.0000; 
stroke:#000000; stroke-width:0.0000; stroke-opacity:1; 
stroke-linecap:round; stroke-linejoin:round;fill-rule:evenodd;"
d="M 70.0350,98.7550
69.9393,98.7360
69.8582,98.6818
69.8040,98.6007
69.7850,98.5050
69.7850,97.8050
69.8040,97.7093
69.8582,97.6282
69.9393,97.5740
70.0350,97.5550
70.9350,97.5550
71.0307,97.5740
71.1118,97.6282
71.1660,97.7093
71.1850,97.8050
71.1850,98.5050
71.1660,98.6007
71.1118,98.6818
71.0307,98.7360
70.9350,98.7550
Z" /> 
<path style="fill:#000000; fill-opacity:1.0000; 
stroke:#000000; stroke-width:0.0000; stroke-opacity:1; 
stroke-linecap:round; stroke-linejoin:round;fill-rule:evenodd;"
d="M 70.0350,96.7550
69.9393,96.7360
69.8582,96.6818
69.8040,96.6007
69.7850,96.5050
69.7850,95.8050
69.8040,95.7093
69.8582,95.6282
69.9393,95.5740
70.0350,95.5550
70.9350,95.5550
71.0307,95.5740
71.1118,95.6282
71.1660,95.7093
71.1850,95.8050
71.1850,96.5050
71.1660,96.6007
71.1118,96.6818
71.0307,96.7360
70.9350,96.7550
Z" /> 
</g>
<g >
</g>
<g style="fill:#000000; fill-opacity:1.0000; 
stroke:#000000; stroke-width:0.0000; stroke-opacity:1; 
stroke-linecap:round; stroke-linejoin:round;">
<path style="fill:#000000; fill-opacity:1.0000; 
stroke:#000000; stroke-width:0.0000; stroke-opacity:1; 
stroke-linecap:round; stroke-linejoin:round;fill-rule:evenodd;"
d="M 70.0350,119.0750
69.9393,119.0560
69.8582,119.0018
69.8040,118.9207
69.7850,118.8250
69.7850,118.1250
69.8040,118.0293
69.8582,117.9482
69.9393,117.8940
70.0350,117.8750
70.9350,117.8750
71.0307,117.8940
71.1118,117.9482
71.1660,118.0293
71.1850,118.1250
71.1850,118.8250
71.1660,118.9207
71.1118,119.0018
71.0307,119.0560
70.9350,119.0750
Z" /> 
<path style="fill:#000000; fill-opacity:1.0000; 
stroke:#000000; stroke-width:0.0000; stroke-opacity:1; 
stroke-linecap:round; stroke-linejoin:round;fill-rule:evenodd;"
d="M 70.0350,117.0750
69.9393,117.0560
69.8582,117.0018
69.8040,116.9207
69.7850,116.8250
69.7850,116.1250
69.8040,116.0293
69.8582,115.9482
69.9393,115.8940
70.0350,115.8750
70.9350,115.8750
71.0307,115.8940
71.1118,115.9482
71.1660,116.0293
71.1850,116.1250
71.1850,116.8250
71.1660,116.9207
71.1118,117.0018
71.0307,117.0560
70.9350,117.0750
Z" /> 
</g>
<g >
</g>
<g style="fill:#000000; fill-opacity:1.0000; 
stroke:#000000; stroke-width:0.0000; stroke-opacity:1; 
stroke-linecap:round; stroke-linejoin:round;">
<path style="fill:#000000; fill-opacity:1.0000; 
stroke:#000000; stroke-width:0.0000; stroke-opacity:1; 
stroke-linecap:round; stroke-linejoin:round;fill-rule:evenodd;"
d="M 70.0350,138.7600
69.9393,138.7410
69.8582,138.6868
69.8040,138.6057
69.7850,138.5100
69.7850,137.8100
69.8040,137.7143
69.8582,137.6332
69.9393,137.5790
70.0350,137.5600
70.9350,137.5600
71.0307,137.5790
71.1118,137.6332
71.1660,137.7143
71.1850,137.8100
71.1850,138.5100
71.1660,138.6057
71.1118,138.6868
71.0307,138.7410
70.9350,138.7600
Z" /> 
<path style="fill:#000000; fill-opacity:1.0000; 
stroke:#000000; stroke-width:0.0000; stroke-opacity:1; 
stroke-linecap:round; stroke-linejoin:round;fill-rule:evenodd;"
d="M 70.0350,136.7600
69.9393,136.7410
69.8582,136.6868
69.8040,136.6057
69.7850,136.5100
69.7850,135.8100
69.8040,135.7143
69.8582,135.6332
69.9393,135.5790
70.0350,135.5600
70.9350,135.5600
71.0307,135.5790
71.1118,135.6332
71.1660,135.7143
71.1850,135.8100
71.1850,136.5100
71.1660,136.6057
71.1118,136.6868
71.0307,136.7410
70.9350,136.7600
Z" /> 
</g>
<g >
</g>
<g style="fill:#000000; fill-opacity:1.0000; 
stroke:#000000; stroke-width:0.0000; stroke-opacity:1; 
stroke-linecap:round; stroke-linejoin:round;">
<path style="fill:#000000; fill-opacity:1.0000; 
stroke:#000000; stroke-width:0.0000; stroke-opacity:1; 
stroke-linecap:round; stroke-linejoin:round;fill-rule:evenodd;"
d="M 54.4250,140.7370
54.5207,140.7560
54.6018,140.8102
54.6560,140.8913
54.6750,140.9870
54.6750,141.6870
54.6560,141.7827
54.6018,141.8638
54.5207,141.9180
54.4250,141.9370
53.5250,141.9370
53.4293,141.9180
53.3482,141.8638
53.2940,141.7827
53.2750,141.6870
53.2750,140.9870
53.2940,140.8913
53.3482,140.8102
53.4293,140.7560
53.5250,140.7370
Z" /> 
<path style="fill:#000000; fill-opacity:1.0000; 
stroke:#000000; stroke-width:0.0000; stroke-opacity:1; 
stroke-linecap:round; stroke-linejoin:round;fill-rule:evenodd;"
d="M 54.4250,142.7370
54.5207,142.7560
54.6018,142.8102
54.6560,142.8913
54.6750,142.9870
54.6750,143.6870
54.6560,143.7827
54.6018,143.8638
54.5207,143.9180
54.4250,143.9370
53.5250,143.9370
53.4293,143.9180
53.3482,143.8638
53.2940,143.7827
53.2750,143.6870
53.2750,142.9870
53.2940,142.8913
53.3482,142.8102
53.4293,142.7560
53.5250,142.7370
Z" /> 
</g>
<g >
</g>
<g style="fill:#000000; fill-opacity:1.0000; 
stroke:#000000; stroke-width:0.0000; stroke-opacity:1; 
stroke-linecap:round; stroke-linejoin:round;">
<path style="fill:#000000; fill-opacity:1.0000; 
stroke:#000000; stroke-width:0.0000; stroke-opacity:1; 
stroke-linecap:round; stroke-linejoin:round;fill-rule:evenodd;"
d="M 57.5608,140.7370
57.6565,140.7560
57.7376,140.8102
57.7918,140.8913
57.8108,140.9870
57.8108,141.6870
57.7918,141.7827
57.7376,141.8638
57.6565,141.9180
57.5608,141.9370
56.6608,141.9370
56.5651,141.9180
56.4840,141.8638
56.4298,141.7827
56.4108,141.6870
56.4108,140.9870
56.4298,140.8913
56.4840,140.8102
56.5651,140.7560
56.6608,140.7370
Z" /> 
<path style="fill:#000000; fill-opacity:1.0000; 
stroke:#000000; stroke-width:0.0000; stroke-opacity:1; 
stroke-linecap:round; stroke-linejoin:round;fill-rule:evenodd;"
d="M 57.5608,142.7370
57.6565,142.7560
57.7376,142.8102
57.7918,142.8913
57.8108,142.9870
57.8108,143.6870
57.7918,143.7827
57.7376,143.8638
57.6565,143.9180
57.5608,143.9370
56.6608,143.9370
56.5651,143.9180
56.4840,143.8638
56.4298,143.7827
56.4108,143.6870
56.4108,142.9870
56.4298,142.8913
56.4840,142.8102
56.5651,142.7560
56.6608,142.7370
Z" /> 
</g>
<g >
</g>
<g style="fill:#000000; fill-opacity:1.0000; 
stroke:#000000; stroke-width:0.0000; stroke-opacity:1; 
stroke-linecap:round; stroke-linejoin:round;">
<path style="fill:#000000; fill-opacity:1.0000; 
stroke:#000000; stroke-width:0.0000; stroke-opacity:1; 
stroke-linecap:round; stroke-linejoin:round;fill-rule:evenodd;"
d="M 60.6965,140.7370
60.7922,140.7560
60.8733,140.8102
60.9275,140.8913
60.9465,140.9870
60.9465,141.6870
60.9275,141.7827
60.8733,141.8638
60.7922,141.9180
60.6965,141.9370
59.7965,141.9370
59.7008,141.9180
59.6197,141.8638
59.5655,141.7827
59.5465,141.6870
59.5465,140.9870
59.5655,140.8913
59.6197,140.8102
59.7008,140.7560
59.7965,140.7370
Z" /> 
<path style="fill:#000000; fill-opacity:1.0000; 
stroke:#000000; stroke-width:0.0000; stroke-opacity:1; 
stroke-linecap:round; stroke-linejoin:round;fill-rule:evenodd;"
d="M 60.6965,142.7370
60.7922,142.7560
60.8733,142.8102
60.9275,142.8913
60.9465,142.9870
60.9465,143.6870
60.9275,143.7827
60.8733,143.8638
60.7922,143.9180
60.6965,143.9370
59.7965,143.9370
59.7008,143.9180
59.6197,143.8638
59.5655,143.7827
59.5465,143.6870
59.5465,142.9870
59.5655,142.8913
59.6197,142.8102
59.7008,142.7560
59.7965,142.7370
Z" /> 
</g>
<g >
</g>
<g style="fill:#000000; fill-opacity:1.0000; 
stroke:#000000; stroke-width:0.0000; stroke-opacity:1; 
stroke-linecap:round; stroke-linejoin:round;">
<path style="fill:#000000; fill-opacity:1.0000; 
stroke:#000000; stroke-width:0.0000; stroke-opacity:1; 
stroke-linecap:round; stroke-linejoin:round;fill-rule:evenodd;"
d="M 63.8322,140.7370
63.9279,140.7560
64.0090,140.8102
64.0632,140.8913
64.0822,140.9870
64.0822,141.6870
64.0632,141.7827
64.0090,141.8638
63.9279,141.9180
63.8322,141.9370
62.9322,141.9370
62.8365,141.9180
62.7554,141.8638
62.7012,141.7827
62.6822,141.6870
62.6822,140.9870
62.7012,140.8913
62.7554,140.8102
62.8365,140.7560
62.9322,140.7370
Z" /> 
<path style="fill:#000000; fill-opacity:1.0000; 
stroke:#000000; stroke-width:0.0000; stroke-opacity:1; 
stroke-linecap:round; stroke-linejoin:round;fill-rule:evenodd;"
d="M 63.8322,142.7370
63.9279,142.7560
64.0090,142.8102
64.0632,142.8913
64.0822,142.9870
64.0822,143.6870
64.0632,143.7827
64.0090,143.8638
63.9279,143.9180
63.8322,143.9370
62.9322,143.9370
62.8365,143.9180
62.7554,143.8638
62.7012,143.7827
62.6822,143.6870
62.6822,142.9870
62.7012,142.8913
62.7554,142.8102
62.8365,142.7560
62.9322,142.7370
Z" /> 
</g>
<g >
</g>
<g style="fill:#000000; fill-opacity:1.0000; 
stroke:#000000; stroke-width:0.0000; stroke-opacity:1; 
stroke-linecap:round; stroke-linejoin:round;">
<path style="fill:#000000; fill-opacity:1.0000; 
stroke:#000000; stroke-width:0.0000; stroke-opacity:1; 
stroke-linecap:round; stroke-linejoin:round;fill-rule:evenodd;"
d="M 57.7270,147.2440
57.8227,147.2630
57.9038,147.3172
57.9580,147.3983
57.9770,147.4940
57.9770,148.1940
57.9580,148.2897
57.9038,148.3708
57.8227,148.4250
57.7270,148.4440
56.8270,148.4440
56.7313,148.4250
56.6502,148.3708
56.5960,148.2897
56.5770,148.1940
56.5770,147.4940
56.5960,147.3983
56.6502,147.3172
56.7313,147.2630
56.8270,147.2440
Z" /> 
<path style="fill:#000000; fill-opacity:1.0000; 
stroke:#000000; stroke-width:0.0000; stroke-opacity:1; 
stroke-linecap:round; stroke-linejoin:round;fill-rule:evenodd;"
d="M 57.7270,149.2440
57.8227,149.2630
57.9038,149.3172
57.9580,149.3983
57.9770,149.4940
57.9770,150.1940
57.9580,150.2897
57.9038,150.3708
57.8227,150.4250
57.7270,150.4440
56.8270,150.4440
56.7313,150.4250
56.6502,150.3708
56.5960,150.2897
56.5770,150.1940
56.5770,149.4940
56.5960,149.3983
56.6502,149.3172
56.7313,149.2630
56.8270,149.2440
Z" /> 
</g>
<g >
</g>
<g style="fill:#000000; fill-opacity:1.0000; 
stroke:#000000; stroke-width:0.0000; stroke-opacity:1; 
stroke-linecap:round; stroke-linejoin:round;">
<path style="fill:#000000; fill-opacity:1.0000; 
stroke:#000000; stroke-width:0.0000; stroke-opacity:1; 
stroke-linecap:round; stroke-linejoin:round;fill-rule:evenodd;"
d="M 70.8150,147.2620
70.7960,147.3577
70.7418,147.4388
70.6607,147.4930
70.5650,147.5120
69.8650,147.5120
69.7693,147.4930
69.6882,147.4388
69.6340,147.3577
69.6150,147.2620
69.6150,146.3620
69.6340,146.2663
69.6882,146.1852
69.7693,146.1310
69.8650,146.1120
70.5650,146.1120
70.6607,146.1310
70.7418,146.1852
70.7960,146.2663
70.8150,146.3620
Z" /> 
<path style="fill:#000000; fill-opacity:1.0000; 
stroke:#000000; stroke-width:0.0000; stroke-opacity:1; 
stroke-linecap:round; stroke-linejoin:round;fill-rule:evenodd;"
d="M 68.8150,147.2620
68.7960,147.3577
68.7418,147.4388
68.6607,147.4930
68.5650,147.5120
67.8650,147.5120
67.7693,147.4930
67.6882,147.4388
67.6340,147.3577
67.6150,147.2620
67.6150,146.3620
67.6340,146.2663
67.6882,146.1852
67.7693,146.1310
67.8650,146.1120
68.5650,146.1120
68.6607,146.1310
68.7418,146.1852
68.7960,146.2663
68.8150,146.3620
Z" /> 
</g>
<g >
</g>
<g style="fill:#000000; fill-opacity:1.0000; 
stroke:#000000; stroke-width:0.0000; stroke-opacity:1; 
stroke-linecap:round; stroke-linejoin:round;">
<path style="fill:#000000; fill-opacity:1.0000; 
stroke:#000000; stroke-width:0.0000; stroke-opacity:1; 
stroke-linecap:round; stroke-linejoin:round;fill-rule:evenodd;"
d="M 67.6150,149.6640
67.6340,149.5683
67.6882,149.4872
67.7693,149.4330
67.8650,149.4140
68.5650,149.4140
68.6607,149.4330
68.7418,149.4872
68.7960,149.5683
68.8150,149.6640
68.8150,150.5640
68.7960,150.6597
68.7418,150.7408
68.6607,150.7950
68.5650,150.8140
67.8650,150.8140
67.7693,150.7950
67.6882,150.7408
67.6340,150.6597
67.6150,150.5640
Z" /> 
<path style="fill:#000000; fill-opacity:1.0000; 
stroke:#000000; stroke-width:0.0000; stroke-opacity:1; 
stroke-linecap:round; stroke-linejoin:round;fill-rule:evenodd;"
d="M 69.6150,149.6640
69.6340,149.5683
69.6882,149.4872
69.7693,149.4330
69.8650,149.4140
70.5650,149.4140
70.6607,149.4330
70.7418,149.4872
70.7960,149.5683
70.8150,149.6640
70.8150,150.5640
70.7960,150.6597
70.7418,150.7408
70.6607,150.7950
70.5650,150.8140
69.8650,150.8140
69.7693,150.7950
69.6882,150.7408
69.6340,150.6597
69.6150,150.5640
Z" /> 
</g>
<g >
</g>
<g style="fill:#000000; fill-opacity:1.0000; 
stroke:#000000; stroke-width:0.0000; stroke-opacity:1; 
stroke-linecap:round; stroke-linejoin:round;">
<path style="fill:#000000; fill-opacity:1.0000; 
stroke:#000000; stroke-width:0.0000; stroke-opacity:1; 
stroke-linecap:round; stroke-linejoin:round;fill-rule:evenodd;"
d="M 75.6160,151.6960
75.6350,151.6003
75.6892,151.5192
75.7703,151.4650
75.8660,151.4460
76.5660,151.4460
76.6617,151.4650
76.7428,151.5192
76.7970,151.6003
76.8160,151.6960
76.8160,152.5960
76.7970,152.6917
76.7428,152.7728
76.6617,152.8270
76.5660,152.8460
75.8660,152.8460
75.7703,152.8270
75.6892,152.7728
75.6350,152.6917
75.6160,152.5960
Z" /> 
<path style="fill:#000000; fill-opacity:1.0000; 
stroke:#000000; stroke-width:0.0000; stroke-opacity:1; 
stroke-linecap:round; stroke-linejoin:round;fill-rule:evenodd;"
d="M 77.6160,151.6960
77.6350,151.6003
77.6892,151.5192
77.7703,151.4650
77.8660,151.4460
78.5660,151.4460
78.6617,151.4650
78.7428,151.5192
78.7970,151.6003
78.8160,151.6960
78.8160,152.5960
78.7970,152.6917
78.7428,152.7728
78.6617,152.8270
78.5660,152.8460
77.8660,152.8460
77.7703,152.8270
77.6892,152.7728
77.6350,152.6917
77.6160,152.5960
Z" /> 
</g>
<g >
</g>
<g style="fill:#000000; fill-opacity:1.0000; 
stroke:#000000; stroke-width:0.0000; stroke-opacity:1; 
stroke-linecap:round; stroke-linejoin:round;">
<path style="fill:#000000; fill-opacity:1.0000; 
stroke:#000000; stroke-width:0.0000; stroke-opacity:1; 
stroke-linecap:round; stroke-linejoin:round;fill-rule:evenodd;"
d="M 70.0100,103.2250
69.9143,103.2060
69.8332,103.1518
69.7790,103.0707
69.7600,102.9750
69.7600,102.3000
69.7790,102.2043
69.8332,102.1232
69.9143,102.0690
70.0100,102.0500
70.9600,102.0500
71.0557,102.0690
71.1368,102.1232
71.1910,102.2043
71.2100,102.3000
71.2100,102.9750
71.1910,103.0707
71.1368,103.1518
71.0557,103.2060
70.9600,103.2250
Z" /> 
<path style="fill:#000000; fill-opacity:1.0000; 
stroke:#000000; stroke-width:0.0000; stroke-opacity:1; 
stroke-linecap:round; stroke-linejoin:round;fill-rule:evenodd;"
d="M 70.0100,101.1500
69.9143,101.1310
69.8332,101.0768
69.7790,100.9957
69.7600,100.9000
69.7600,100.2250
69.7790,100.1293
69.8332,100.0482
69.9143,99.9940
70.0100,99.9750
70.9600,99.9750
71.0557,99.9940
71.1368,100.0482
71.1910,100.1293
71.2100,100.2250
71.2100,100.9000
71.1910,100.9957
71.1368,101.0768
71.0557,101.1310
70.9600,101.1500
Z" /> 
</g>
<g >
</g>
<g style="fill:#000000; fill-opacity:1.0000; 
stroke:#000000; stroke-width:0.0000; stroke-opacity:1; 
stroke-linecap:round; stroke-linejoin:round;">
<path style="fill:#000000; fill-opacity:1.0000; 
stroke:#000000; stroke-width:0.0000; stroke-opacity:1; 
stroke-linecap:round; stroke-linejoin:round;fill-rule:evenodd;"
d="M 80.9930,96.8000
81.0887,96.8190
81.1698,96.8732
81.2240,96.9543
81.2430,97.0500
81.2430,97.7250
81.2240,97.8207
81.1698,97.9018
81.0887,97.9560
80.9930,97.9750
80.0430,97.9750
79.9473,97.9560
79.8662,97.9018
79.8120,97.8207
79.7930,97.7250
79.7930,97.0500
79.8120,96.9543
79.8662,96.8732
79.9473,96.8190
80.0430,96.8000
Z" /> 
<path style="fill:#000000; fill-opacity:1.0000; 
stroke:#000000; stroke-width:0.0000; stroke-opacity:1; 
stroke-linecap:round; stroke-linejoin:round;fill-rule:evenodd;"
d="M 80.9930,98.8750
81.0887,98.8940
81.1698,98.9482
81.2240,99.0293
81.2430,99.1250
81.2430,99.8000
81.2240,99.8957
81.1698,99.9768
81.0887,100.0310
80.9930,100.0500
80.0430,100.0500
79.9473,100.0310
79.8662,99.9768
79.8120,99.8957
79.7930,99.8000
79.7930,99.1250
79.8120,99.0293
79.8662,98.9482
79.9473,98.8940
80.0430,98.8750
Z" /> 
</g>
<g >
</g>
<g style="fill:#000000; fill-opacity:1.0000; 
stroke:#000000; stroke-width:0.0000; stroke-opacity:1; 
stroke-linecap:round; stroke-linejoin:round;">
<path style="fill:#000000; fill-opacity:1.0000; 
stroke:#000000; stroke-width:0.0000; stroke-opacity:1; 
stroke-linecap:round; stroke-linejoin:round;fill-rule:evenodd;"
d="M 66.1410,152.8750
66.1220,152.9707
66.0678,153.0518
65.9867,153.1060
65.8910,153.1250
65.2160,153.1250
65.1203,153.1060
65.0392,153.0518
64.9850,152.9707
64.9660,152.8750
64.9660,151.9250
64.9850,151.8293
65.0392,151.7482
65.1203,151.6940
65.2160,151.6750
65.8910,151.6750
65.9867,151.6940
66.0678,151.7482
66.1220,151.8293
66.1410,151.9250
Z" /> 
<path style="fill:#000000; fill-opacity:1.0000; 
stroke:#000000; stroke-width:0.0000; stroke-opacity:1; 
stroke-linecap:round; stroke-linejoin:round;fill-rule:evenodd;"
d="M 64.0660,152.8750
64.0470,152.9707
63.9928,153.0518
63.9117,153.1060
63.8160,153.1250
63.1410,153.1250
63.0453,153.1060
62.9642,153.0518
62.9100,152.9707
62.8910,152.8750
62.8910,151.9250
62.9100,151.8293
62.9642,151.7482
63.0453,151.6940
63.1410,151.6750
63.8160,151.6750
63.9117,151.6940
63.9928,151.7482
64.0470,151.8293
64.0660,151.9250
Z" /> 
</g>
<g >
</g>
<g style="fill:#000000; fill-opacity:1.0000; 
stroke:#000000; stroke-width:0.0000; stroke-opacity:1; 
stroke-linecap:round; stroke-linejoin:round;">
<path style="fill:#000000; fill-opacity:1.0000; 
stroke:#000000; stroke-width:0.0000; stroke-opacity:1; 
stroke-linecap:round; stroke-linejoin:round;fill-rule:evenodd;"
d="M 67.0230,140.7420
67.1187,140.7610
67.1998,140.8152
67.2540,140.8963
67.2730,140.9920
67.2730,141.6670
67.2540,141.7627
67.1998,141.8438
67.1187,141.8980
67.0230,141.9170
66.0730,141.9170
65.9773,141.8980
65.8962,141.8438
65.8420,141.7627
65.8230,141.6670
65.8230,140.9920
65.8420,140.8963
65.8962,140.8152
65.9773,140.7610
66.0730,140.7420
Z" /> 
<path style="fill:#000000; fill-opacity:1.0000; 
stroke:#000000; stroke-width:0.0000; stroke-opacity:1; 
stroke-linecap:round; stroke-linejoin:round;fill-rule:evenodd;"
d="M 67.0230,142.8170
67.1187,142.8360
67.1998,142.8902
67.2540,142.9713
67.2730,143.0670
67.2730,143.7420
67.2540,143.8377
67.1998,143.9188
67.1187,143.9730
67.0230,143.9920
66.0730,143.9920
65.9773,143.9730
65.8962,143.9188
65.8420,143.8377
65.8230,143.7420
65.8230,143.0670
65.8420,142.9713
65.8962,142.8902
65.9773,142.8360
66.0730,142.8170
Z" /> 
</g>
<g >
</g>
<g style="fill:#000000; fill-opacity:1.0000; 
stroke:#000000; stroke-width:0.0000; stroke-opacity:1; 
stroke-linecap:round; stroke-linejoin:round;">
<path style="fill:#000000; fill-opacity:1.0000; 
stroke:#000000; stroke-width:0.0000; stroke-opacity:1; 
stroke-linecap:round; stroke-linejoin:round;fill-rule:evenodd;"
d="M 70.0100,143.2300
69.9143,143.2110
69.8332,143.1568
69.7790,143.0757
69.7600,142.9800
69.7600,142.3050
69.7790,142.2093
69.8332,142.1282
69.9143,142.0740
70.0100,142.0550
70.9600,142.0550
71.0557,142.0740
71.1368,142.1282
71.1910,142.2093
71.2100,142.3050
71.2100,142.9800
71.1910,143.0757
71.1368,143.1568
71.0557,143.2110
70.9600,143.2300
Z" /> 
<path style="fill:#000000; fill-opacity:1.0000; 
stroke:#000000; stroke-width:0.0000; stroke-opacity:1; 
stroke-linecap:round; stroke-linejoin:round;fill-rule:evenodd;"
d="M 70.0100,141.1550
69.9143,141.1360
69.8332,141.0818
69.7790,141.0007
69.7600,140.9050
69.7600,140.2300
69.7790,140.1343
69.8332,140.0532
69.9143,139.9990
70.0100,139.9800
70.9600,139.9800
71.0557,139.9990
71.1368,140.0532
71.1910,140.1343
71.2100,140.2300
71.2100,140.9050
71.1910,141.0007
71.1368,141.0818
71.0557,141.1360
70.9600,141.1550
Z" /> 
</g>
<g >
</g>
<g style="fill:#000000; fill-opacity:1.0000; 
stroke:#000000; stroke-width:0.0000; stroke-opacity:1; 
stroke-linecap:round; stroke-linejoin:round;">
<path style="fill:#000000; fill-opacity:1.0000; 
stroke:#000000; stroke-width:0.0000; stroke-opacity:1; 
stroke-linecap:round; stroke-linejoin:round;fill-rule:evenodd;"
d="M 80.9930,136.1700
81.0887,136.1890
81.1698,136.2432
81.2240,136.3243
81.2430,136.4200
81.2430,137.0950
81.2240,137.1907
81.1698,137.2718
81.0887,137.3260
80.9930,137.3450
80.0430,137.3450
79.9473,137.3260
79.8662,137.2718
79.8120,137.1907
79.7930,137.0950
79.7930,136.4200
79.8120,136.3243
79.8662,136.2432
79.9473,136.1890
80.0430,136.1700
Z" /> 
<path style="fill:#000000; fill-opacity:1.0000; 
stroke:#000000; stroke-width:0.0000; stroke-opacity:1; 
stroke-linecap:round; stroke-linejoin:round;fill-rule:evenodd;"
d="M 80.9930,138.2450
81.0887,138.2640
81.1698,138.3182
81.2240,138.3993
81.2430,138.4950
81.2430,139.1700
81.2240,139.2657
81.1698,139.3468
81.0887,139.4010
80.9930,139.4200
80.0430,139.4200
79.9473,139.4010
79.8662,139.3468
79.8120,139.2657
79.7930,139.1700
79.7930,138.4950
79.8120,138.3993
79.8662,138.3182
79.9473,138.2640
80.0430,138.2450
Z" /> 
</g>
<g >
</g>
<g style="fill:#000000; fill-opacity:1.0000; 
stroke:#000000; stroke-width:0.0000; stroke-opacity:1; 
stroke-linecap:round; stroke-linejoin:round;">
<path style="fill:#000000; fill-opacity:1.0000; 
stroke:#000000; stroke-width:0.0000; stroke-opacity:1; 
stroke-linecap:round; stroke-linejoin:round;fill-rule:evenodd;"
d="M 53.5000,150.4690
53.4043,150.4500
53.3232,150.3958
53.2690,150.3147
53.2500,150.2190
53.2500,149.5440
53.2690,149.4483
53.3232,149.3672
53.4043,149.3130
53.5000,149.2940
54.4500,149.2940
54.5457,149.3130
54.6268,149.3672
54.6810,149.4483
54.7000,149.5440
54.7000,150.2190
54.6810,150.3147
54.6268,150.3958
54.5457,150.4500
54.4500,150.4690
Z" /> 
<path style="fill:#000000; fill-opacity:1.0000; 
stroke:#000000; stroke-width:0.0000; stroke-opacity:1; 
stroke-linecap:round; stroke-linejoin:round;fill-rule:evenodd;"
d="M 53.5000,148.3940
53.4043,148.3750
53.3232,148.3208
53.2690,148.2397
53.2500,148.1440
53.2500,147.4690
53.2690,147.3733
53.3232,147.2922
53.4043,147.2380
53.5000,147.2190
54.4500,147.2190
54.5457,147.2380
54.6268,147.2922
54.6810,147.3733
54.7000,147.4690
54.7000,148.1440
54.6810,148.2397
54.6268,148.3208
54.5457,148.3750
54.4500,148.3940
Z" /> 
</g>
<g >
</g>
<g style="fill:#000000; fill-opacity:1.0000; 
stroke:#000000; stroke-width:0.0000; stroke-opacity:1; 
stroke-linecap:round; stroke-linejoin:round;">
<path style="fill:#000000; fill-opacity:1.0000; 
stroke:#000000; stroke-width:0.0000; stroke-opacity:1; 
stroke-linecap:round; stroke-linejoin:round;fill-rule:evenodd;"
d="M 70.0100,82.9050
69.9143,82.8860
69.8332,82.8318
69.7790,82.7507
69.7600,82.6550
69.7600,81.9800
69.7790,81.8843
69.8332,81.8032
69.9143,81.7490
70.0100,81.7300
70.9600,81.7300
71.0557,81.7490
71.1368,81.8032
71.1910,81.8843
71.2100,81.9800
71.2100,82.6550
71.1910,82.7507
71.1368,82.8318
71.0557,82.8860
70.9600,82.9050
Z" /> 
<path style="fill:#000000; fill-opacity:1.0000; 
stroke:#000000; stroke-width:0.0000; stroke-opacity:1; 
stroke-linecap:round; stroke-linejoin:round;fill-rule:evenodd;"
d="M 70.0100,80.8300
69.9143,80.8110
69.8332,80.7568
69.7790,80.6757
69.7600,80.5800
69.7600,79.9050
69.7790,79.8093
69.8332,79.7282
69.9143,79.6740
70.0100,79.6550
70.9600,79.6550
71.0557,79.6740
71.1368,79.7282
71.1910,79.8093
71.2100,79.9050
71.2100,80.5800
71.1910,80.6757
71.1368,80.7568
71.0557,80.8110
70.9600,80.8300
Z" /> 
</g>
<g >
</g>
<g style="fill:#000000; fill-opacity:1.0000; 
stroke:#000000; stroke-width:0.0000; stroke-opacity:1; 
stroke-linecap:round; stroke-linejoin:round;">
<path style="fill:#000000; fill-opacity:1.0000; 
stroke:#000000; stroke-width:0.0000; stroke-opacity:1; 
stroke-linecap:round; stroke-linejoin:round;fill-rule:evenodd;"
d="M 80.9930,76.5100
81.0887,76.5290
81.1698,76.5832
81.2240,76.6643
81.2430,76.7600
81.2430,77.4350
81.2240,77.5307
81.1698,77.6118
81.0887,77.6660
80.9930,77.6850
80.0430,77.6850
79.9473,77.6660
79.8662,77.6118
79.8120,77.5307
79.7930,77.4350
79.7930,76.7600
79.8120,76.6643
79.8662,76.5832
79.9473,76.5290
80.0430,76.5100
Z" /> 
<path style="fill:#000000; fill-opacity:1.0000; 
stroke:#000000; stroke-width:0.0000; stroke-opacity:1; 
stroke-linecap:round; stroke-linejoin:round;fill-rule:evenodd;"
d="M 80.9930,78.5850
81.0887,78.6040
81.1698,78.6582
81.2240,78.7393
81.2430,78.8350
81.2430,79.5100
81.2240,79.6057
81.1698,79.6868
81.0887,79.7410
80.9930,79.7600
80.0430,79.7600
79.9473,79.7410
79.8662,79.6868
79.8120,79.6057
79.7930,79.5100
79.7930,78.8350
79.8120,78.7393
79.8662,78.6582
79.9473,78.6040
80.0430,78.5850
Z" /> 
</g>
<g >
</g>
<g style="fill:#000000; fill-opacity:1.0000; 
stroke:#000000; stroke-width:0.0000; stroke-opacity:1; 
stroke-linecap:round; stroke-linejoin:round;">
<path style="fill:#000000; fill-opacity:1.0000; 
stroke:#000000; stroke-width:0.0000; stroke-opacity:1; 
stroke-linecap:round; stroke-linejoin:round;fill-rule:evenodd;"
d="M 89.2550,151.9860
89.2360,152.0817
89.1818,152.1628
89.1007,152.2170
89.0050,152.2360
88.3300,152.2360
88.2343,152.2170
88.1532,152.1628
88.0990,152.0817
88.0800,151.9860
88.0800,151.0360
88.0990,150.9403
88.1532,150.8592
88.2343,150.8050
88.3300,150.7860
89.0050,150.7860
89.1007,150.8050
89.1818,150.8592
89.2360,150.9403
89.2550,151.0360
Z" /> 
<path style="fill:#000000; fill-opacity:1.0000; 
stroke:#000000; stroke-width:0.0000; stroke-opacity:1; 
stroke-linecap:round; stroke-linejoin:round;fill-rule:evenodd;"
d="M 87.1800,151.9860
87.1610,152.0817
87.1068,152.1628
87.0257,152.2170
86.9300,152.2360
86.2550,152.2360
86.1593,152.2170
86.0782,152.1628
86.0240,152.0817
86.0050,151.9860
86.0050,151.0360
86.0240,150.9403
86.0782,150.8592
86.1593,150.8050
86.2550,150.7860
86.9300,150.7860
87.0257,150.8050
87.1068,150.8592
87.1610,150.9403
87.1800,151.0360
Z" /> 
</g>
<g >
</g>
<g style="fill:#000000; fill-opacity:1.0000; 
stroke:#000000; stroke-width:0.0000; stroke-opacity:1; 
stroke-linecap:round; stroke-linejoin:round;">
<path style="fill:#000000; fill-opacity:1.0000; 
stroke:#000000; stroke-width:0.0000; stroke-opacity:1; 
stroke-linecap:round; stroke-linejoin:round;fill-rule:evenodd;"
d="M 87.7310,142.7150
87.7120,142.8107
87.6578,142.8918
87.5767,142.9460
87.4810,142.9650
86.8060,142.9650
86.7103,142.9460
86.6292,142.8918
86.5750,142.8107
86.5560,142.7150
86.5560,141.7650
86.5750,141.6693
86.6292,141.5882
86.7103,141.5340
86.8060,141.5150
87.4810,141.5150
87.5767,141.5340
87.6578,141.5882
87.7120,141.6693
87.7310,141.7650
Z" /> 
<path style="fill:#000000; fill-opacity:1.0000; 
stroke:#000000; stroke-width:0.0000; stroke-opacity:1; 
stroke-linecap:round; stroke-linejoin:round;fill-rule:evenodd;"
d="M 85.6560,142.7150
85.6370,142.8107
85.5828,142.8918
85.5017,142.9460
85.4060,142.9650
84.7310,142.9650
84.6353,142.9460
84.5542,142.8918
84.5000,142.8107
84.4810,142.7150
84.4810,141.7650
84.5000,141.6693
84.5542,141.5882
84.6353,141.5340
84.7310,141.5150
85.4060,141.5150
85.5017,141.5340
85.5828,141.5882
85.6370,141.6693
85.6560,141.7650
Z" /> 
</g>
<g >
</g>
<g style="fill:#000000; fill-opacity:1.0000; 
stroke:#000000; stroke-width:0.0000; stroke-opacity:1; 
stroke-linecap:round; stroke-linejoin:round;">
<path style="fill:#000000; fill-opacity:1.0000; 
stroke:#000000; stroke-width:0.0000; stroke-opacity:1; 
stroke-linecap:round; stroke-linejoin:round;fill-rule:evenodd;"
d="M 70.0100,123.5450
69.9143,123.5260
69.8332,123.4718
69.7790,123.3907
69.7600,123.2950
69.7600,122.6200
69.7790,122.5243
69.8332,122.4432
69.9143,122.3890
70.0100,122.3700
70.9600,122.3700
71.0557,122.3890
71.1368,122.4432
71.1910,122.5243
71.2100,122.6200
71.2100,123.2950
71.1910,123.3907
71.1368,123.4718
71.0557,123.5260
70.9600,123.5450
Z" /> 
<path style="fill:#000000; fill-opacity:1.0000; 
stroke:#000000; stroke-width:0.0000; stroke-opacity:1; 
stroke-linecap:round; stroke-linejoin:round;fill-rule:evenodd;"
d="M 70.0100,121.4700
69.9143,121.4510
69.8332,121.3968
69.7790,121.3157
69.7600,121.2200
69.7600,120.5450
69.7790,120.4493
69.8332,120.3682
69.9143,120.3140
70.0100,120.2950
70.9600,120.2950
71.0557,120.3140
71.1368,120.3682
71.1910,120.4493
71.2100,120.5450
71.2100,121.2200
71.1910,121.3157
71.1368,121.3968
71.0557,121.4510
70.9600,121.4700
Z" /> 
</g>
<g >
</g>
<g style="fill:#000000; fill-opacity:1.0000; 
stroke:#000000; stroke-width:0.0000; stroke-opacity:1; 
stroke-linecap:round; stroke-linejoin:round;">
<path style="fill:#000000; fill-opacity:1.0000; 
stroke:#000000; stroke-width:0.0000; stroke-opacity:1; 
stroke-linecap:round; stroke-linejoin:round;fill-rule:evenodd;"
d="M 80.9930,117.1500
81.0887,117.1690
81.1698,117.2232
81.2240,117.3043
81.2430,117.4000
81.2430,118.0750
81.2240,118.1707
81.1698,118.2518
81.0887,118.3060
80.9930,118.3250
80.0430,118.3250
79.9473,118.3060
79.8662,118.2518
79.8120,118.1707
79.7930,118.0750
79.7930,117.4000
79.8120,117.3043
79.8662,117.2232
79.9473,117.1690
80.0430,117.1500
Z" /> 
<path style="fill:#000000; fill-opacity:1.0000; 
stroke:#000000; stroke-width:0.0000; stroke-opacity:1; 
stroke-linecap:round; stroke-linejoin:round;fill-rule:evenodd;"
d="M 80.9930,119.2250
81.0887,119.2440
81.1698,119.2982
81.2240,119.3793
81.2430,119.4750
81.2430,120.1500
81.2240,120.2457
81.1698,120.3268
81.0887,120.3810
80.9930,120.4000
80.0430,120.4000
79.9473,120.3810
79.8662,120.3268
79.8120,120.2457
79.7930,120.1500
79.7930,119.4750
79.8120,119.3793
79.8662,119.2982
79.9473,119.2440
80.0430,119.2250
Z" /> 
</g>
<g >
</g>
<g style="fill:#000000; fill-opacity:1.0000; 
stroke:#000000; stroke-width:0.0000; stroke-opacity:1; 
stroke-linecap:round; stroke-linejoin:round;">
<path style="fill:#000000; fill-opacity:1.0000; 
stroke:#000000; stroke-width:0.0000; stroke-opacity:1; 
stroke-linecap:round; stroke-linejoin:round;fill-rule:evenodd;"
d="M 61.7980,61.4100
61.7790,61.5057
61.7248,61.5868
61.6437,61.6410
61.5480,61.6600
60.8480,61.6600
60.7523,61.6410
60.6712,61.5868
60.6170,61.5057
60.5980,61.4100
60.5980,60.5100
60.6170,60.4143
60.6712,60.3332
60.7523,60.2790
60.8480,60.2600
61.5480,60.2600
61.6437,60.2790
61.7248,60.3332
61.7790,60.4143
61.7980,60.5100
Z" /> 
<path style="fill:#000000; fill-opacity:1.0000; 
stroke:#000000; stroke-width:0.0000; stroke-opacity:1; 
stroke-linecap:round; stroke-linejoin:round;fill-rule:evenodd;"
d="M 59.7980,61.4100
59.7790,61.5057
59.7248,61.5868
59.6437,61.6410
59.5480,61.6600
58.8480,61.6600
58.7523,61.6410
58.6712,61.5868
58.6170,61.5057
58.5980,61.4100
58.5980,60.5100
58.6170,60.4143
58.6712,60.3332
58.7523,60.2790
58.8480,60.2600
59.5480,60.2600
59.6437,60.2790
59.7248,60.3332
59.7790,60.4143
59.7980,60.5100
Z" /> 
</g>
<g >
</g>
<g style="fill:#000000; fill-opacity:1.0000; 
stroke:#000000; stroke-width:0.0000; stroke-opacity:1; 
stroke-linecap:round; stroke-linejoin:round;">
<path style="fill:#000000; fill-opacity:1.0000; 
stroke:#000000; stroke-width:0.0000; stroke-opacity:1; 
stroke-linecap:round; stroke-linejoin:round;fill-rule:evenodd;"
d="M 86.0300,154.2360
86.0490,154.1403
86.1032,154.0592
86.1843,154.0050
86.2800,153.9860
86.9800,153.9860
87.0757,154.0050
87.1568,154.0592
87.2110,154.1403
87.2300,154.2360
87.2300,155.1360
87.2110,155.2317
87.1568,155.3128
87.0757,155.3670
86.9800,155.3860
86.2800,155.3860
86.1843,155.3670
86.1032,155.3128
86.0490,155.2317
86.0300,155.1360
Z" /> 
<path style="fill:#000000; fill-opacity:1.0000; 
stroke:#000000; stroke-width:0.0000; stroke-opacity:1; 
stroke-linecap:round; stroke-linejoin:round;fill-rule:evenodd;"
d="M 88.0300,154.2360
88.0490,154.1403
88.1032,154.0592
88.1843,154.0050
88.2800,153.9860
88.9800,153.9860
89.0757,154.0050
89.1568,154.0592
89.2110,154.1403
89.2300,154.2360
89.2300,155.1360
89.2110,155.2317
89.1568,155.3128
89.0757,155.3670
88.9800,155.3860
88.2800,155.3860
88.1843,155.3670
88.1032,155.3128
88.0490,155.2317
88.0300,155.1360
Z" /> 
</g>
<g >
</g>
<g style="fill:#000000; fill-opacity:1.0000; 
stroke:#000000; stroke-width:0.0000; stroke-opacity:1; 
stroke-linecap:round; stroke-linejoin:round;">
<path style="fill:#000000; fill-opacity:1.0000; 
stroke:#000000; stroke-width:0.0000; stroke-opacity:1; 
stroke-linecap:round; stroke-linejoin:round;fill-rule:evenodd;"
d="M 70.1550,69.4000
70.1740,69.3043
70.2282,69.2232
70.3093,69.1690
70.4050,69.1500
71.1050,69.1500
71.2007,69.1690
71.2818,69.2232
71.3360,69.3043
71.3550,69.4000
71.3550,70.3000
71.3360,70.3957
71.2818,70.4768
71.2007,70.5310
71.1050,70.5500
70.4050,70.5500
70.3093,70.5310
70.2282,70.4768
70.1740,70.3957
70.1550,70.3000
Z" /> 
<path style="fill:#000000; fill-opacity:1.0000; 
stroke:#000000; stroke-width:0.0000; stroke-opacity:1; 
stroke-linecap:round; stroke-linejoin:round;fill-rule:evenodd;"
d="M 72.1550,69.4000
72.1740,69.3043
72.2282,69.2232
72.3093,69.1690
72.4050,69.1500
73.1050,69.1500
73.2007,69.1690
73.2818,69.2232
73.3360,69.3043
73.3550,69.4000
73.3550,70.3000
73.3360,70.3957
73.2818,70.4768
73.2007,70.5310
73.1050,70.5500
72.4050,70.5500
72.3093,70.5310
72.2282,70.4768
72.1740,70.3957
72.1550,70.3000
Z" /> 
</g>
<g >
</g>
<g style="fill:#000000; fill-opacity:1.0000; 
stroke:#000000; stroke-width:0.0000; stroke-opacity:1; 
stroke-linecap:round; stroke-linejoin:round;">
<path style="fill:#000000; fill-opacity:1.0000; 
stroke:#000000; stroke-width:0.0000; stroke-opacity:1; 
stroke-linecap:round; stroke-linejoin:round;fill-rule:evenodd;"
d="M 70.1550,110.0400
70.1740,109.9443
70.2282,109.8632
70.3093,109.8090
70.4050,109.7900
71.1050,109.7900
71.2007,109.8090
71.2818,109.8632
71.3360,109.9443
71.3550,110.0400
71.3550,110.9400
71.3360,111.0357
71.2818,111.1168
71.2007,111.1710
71.1050,111.1900
70.4050,111.1900
70.3093,111.1710
70.2282,111.1168
70.1740,111.0357
70.1550,110.9400
Z" /> 
<path style="fill:#000000; fill-opacity:1.0000; 
stroke:#000000; stroke-width:0.0000; stroke-opacity:1; 
stroke-linecap:round; stroke-linejoin:round;fill-rule:evenodd;"
d="M 72.1550,110.0400
72.1740,109.9443
72.2282,109.8632
72.3093,109.8090
72.4050,109.7900
73.1050,109.7900
73.2007,109.8090
73.2818,109.8632
73.3360,109.9443
73.3550,110.0400
73.3550,110.9400
73.3360,111.0357
73.2818,111.1168
73.2007,111.1710
73.1050,111.1900
72.4050,111.1900
72.3093,111.1710
72.2282,111.1168
72.1740,111.0357
72.1550,110.9400
Z" /> 
</g>
<g >
</g>
<g style="fill:#000000; fill-opacity:1.0000; 
stroke:#000000; stroke-width:0.0000; stroke-opacity:1; 
stroke-linecap:round; stroke-linejoin:round;">
<path style="fill:#000000; fill-opacity:1.0000; 
stroke:#000000; stroke-width:0.0000; stroke-opacity:1; 
stroke-linecap:round; stroke-linejoin:round;fill-rule:evenodd;"
d="M 70.1550,89.7200
70.1740,89.6243
70.2282,89.5432
70.3093,89.4890
70.4050,89.4700
71.1050,89.4700
71.2007,89.4890
71.2818,89.5432
71.3360,89.6243
71.3550,89.7200
71.3550,90.6200
71.3360,90.7157
71.2818,90.7968
71.2007,90.8510
71.1050,90.8700
70.4050,90.8700
70.3093,90.8510
70.2282,90.7968
70.1740,90.7157
70.1550,90.6200
Z" /> 
<path style="fill:#000000; fill-opacity:1.0000; 
stroke:#000000; stroke-width:0.0000; stroke-opacity:1; 
stroke-linecap:round; stroke-linejoin:round;fill-rule:evenodd;"
d="M 72.1550,89.7200
72.1740,89.6243
72.2282,89.5432
72.3093,89.4890
72.4050,89.4700
73.1050,89.4700
73.2007,89.4890
73.2818,89.5432
73.3360,89.6243
73.3550,89.7200
73.3550,90.6200
73.3360,90.7157
73.2818,90.7968
73.2007,90.8510
73.1050,90.8700
72.4050,90.8700
72.3093,90.8510
72.2282,90.7968
72.1740,90.7157
72.1550,90.6200
Z" /> 
</g>
<g >
</g>
<g style="fill:#000000; fill-opacity:1.0000; 
stroke:#000000; stroke-width:0.0000; stroke-opacity:1; 
stroke-linecap:round; stroke-linejoin:round;">
<path style="fill:#000000; fill-opacity:1.0000; 
stroke:#000000; stroke-width:0.0000; stroke-opacity:1; 
stroke-linecap:round; stroke-linejoin:round;fill-rule:evenodd;"
d="M 73.3550,131.2600
73.3360,131.3557
73.2818,131.4368
73.2007,131.4910
73.1050,131.5100
72.4050,131.5100
72.3093,131.4910
72.2282,131.4368
72.1740,131.3557
72.1550,131.2600
72.1550,130.3600
72.1740,130.2643
72.2282,130.1832
72.3093,130.1290
72.4050,130.1100
73.1050,130.1100
73.2007,130.1290
73.2818,130.1832
73.3360,130.2643
73.3550,130.3600
Z" /> 
<path style="fill:#000000; fill-opacity:1.0000; 
stroke:#000000; stroke-width:0.0000; stroke-opacity:1; 
stroke-linecap:round; stroke-linejoin:round;fill-rule:evenodd;"
d="M 71.3550,131.2600
71.3360,131.3557
71.2818,131.4368
71.2007,131.4910
71.1050,131.5100
70.4050,131.5100
70.3093,131.4910
70.2282,131.4368
70.1740,131.3557
70.1550,131.2600
70.1550,130.3600
70.1740,130.2643
70.2282,130.1832
70.3093,130.1290
70.4050,130.1100
71.1050,130.1100
71.2007,130.1290
71.2818,130.1832
71.3360,130.2643
71.3550,130.3600
Z" /> 
</g>
<g >
</g>
<g style="fill:#000000; fill-opacity:1.0000; 
stroke:#000000; stroke-width:0.0000; stroke-opacity:1; 
stroke-linecap:round; stroke-linejoin:round;">
<path style="fill:#000000; fill-opacity:1.0000; 
stroke:#000000; stroke-width:0.0000; stroke-opacity:1; 
stroke-linecap:round; stroke-linejoin:round;fill-rule:evenodd;"
d="M 60.9980,65.6830
60.9406,65.6716
60.8919,65.6391
60.8594,65.5904
60.8480,65.5330
60.8480,64.3580
60.8594,64.3006
60.8919,64.2519
60.9406,64.2194
60.9980,64.2080
61.2980,64.2080
61.3554,64.2194
61.4041,64.2519
61.4366,64.3006
61.4480,64.3580
61.4480,65.5330
61.4366,65.5904
61.4041,65.6391
61.3554,65.6716
61.2980,65.6830
Z" /> 
<path style="fill:#000000; fill-opacity:1.0000; 
stroke:#000000; stroke-width:0.0000; stroke-opacity:1; 
stroke-linecap:round; stroke-linejoin:round;fill-rule:evenodd;"
d="M 59.0980,65.6830
59.0406,65.6716
58.9919,65.6391
58.9594,65.5904
58.9480,65.5330
58.9480,64.3580
58.9594,64.3006
58.9919,64.2519
59.0406,64.2194
59.0980,64.2080
59.3980,64.2080
59.4554,64.2194
59.5041,64.2519
59.5366,64.3006
59.5480,64.3580
59.5480,65.5330
59.5366,65.5904
59.5041,65.6391
59.4554,65.6716
59.3980,65.6830
Z" /> 
<path style="fill:#000000; fill-opacity:1.0000; 
stroke:#000000; stroke-width:0.0000; stroke-opacity:1; 
stroke-linecap:round; stroke-linejoin:round;fill-rule:evenodd;"
d="M 60.0480,63.8080
59.9906,63.7966
59.9419,63.7641
59.9094,63.7154
59.8980,63.6580
59.8980,62.4830
59.9094,62.4256
59.9419,62.3769
59.9906,62.3444
60.0480,62.3330
60.3480,62.3330
60.4054,62.3444
60.4541,62.3769
60.4866,62.4256
60.4980,62.4830
60.4980,63.6580
60.4866,63.7154
60.4541,63.7641
60.4054,63.7966
60.3480,63.8080
Z" /> 
</g>
<g >
</g>
<g style="fill:#000000; fill-opacity:1.0000; 
stroke:#000000; stroke-width:0.0000; stroke-opacity:1; 
stroke-linecap:round; stroke-linejoin:round;">
<path style="fill:#000000; fill-opacity:1.0000; 
stroke:#000000; stroke-width:0.0000; stroke-opacity:1; 
stroke-linecap:round; stroke-linejoin:round;fill-rule:evenodd;"
d="M 73.8100,76.5600
73.8674,76.5714
73.9161,76.6039
73.9486,76.6526
73.9600,76.7100
73.9600,78.3600
73.9486,78.4174
73.9161,78.4661
73.8674,78.4986
73.8100,78.5100
73.5100,78.5100
73.4526,78.4986
73.4039,78.4661
73.3714,78.4174
73.3600,78.3600
73.3600,76.7100
73.3714,76.6526
73.4039,76.6039
73.4526,76.5714
73.5100,76.5600
Z" /> 
<path style="fill:#000000; fill-opacity:1.0000; 
stroke:#000000; stroke-width:0.0000; stroke-opacity:1; 
stroke-linecap:round; stroke-linejoin:round;fill-rule:evenodd;"
d="M 75.0800,76.5600
75.1374,76.5714
75.1861,76.6039
75.2186,76.6526
75.2300,76.7100
75.2300,78.3600
75.2186,78.4174
75.1861,78.4661
75.1374,78.4986
75.0800,78.5100
74.7800,78.5100
74.7226,78.4986
74.6739,78.4661
74.6414,78.4174
74.6300,78.3600
74.6300,76.7100
74.6414,76.6526
74.6739,76.6039
74.7226,76.5714
74.7800,76.5600
Z" /> 
<path style="fill:#000000; fill-opacity:1.0000; 
stroke:#000000; stroke-width:0.0000; stroke-opacity:1; 
stroke-linecap:round; stroke-linejoin:round;fill-rule:evenodd;"
d="M 76.3500,76.5600
76.4074,76.5714
76.4561,76.6039
76.4886,76.6526
76.5000,76.7100
76.5000,78.3600
76.4886,78.4174
76.4561,78.4661
76.4074,78.4986
76.3500,78.5100
76.0500,78.5100
75.9926,78.4986
75.9439,78.4661
75.9114,78.4174
75.9000,78.3600
75.9000,76.7100
75.9114,76.6526
75.9439,76.6039
75.9926,76.5714
76.0500,76.5600
Z" /> 
<path style="fill:#000000; fill-opacity:1.0000; 
stroke:#000000; stroke-width:0.0000; stroke-opacity:1; 
stroke-linecap:round; stroke-linejoin:round;fill-rule:evenodd;"
d="M 77.6200,76.5600
77.6774,76.5714
77.7261,76.6039
77.7586,76.6526
77.7700,76.7100
77.7700,78.3600
77.7586,78.4174
77.7261,78.4661
77.6774,78.4986
77.6200,78.5100
77.3200,78.5100
77.2626,78.4986
77.2139,78.4661
77.1814,78.4174
77.1700,78.3600
77.1700,76.7100
77.1814,76.6526
77.2139,76.6039
77.2626,76.5714
77.3200,76.5600
Z" /> 
<path style="fill:#000000; fill-opacity:1.0000; 
stroke:#000000; stroke-width:0.0000; stroke-opacity:1; 
stroke-linecap:round; stroke-linejoin:round;fill-rule:evenodd;"
d="M 77.6200,81.5100
77.6774,81.5214
77.7261,81.5539
77.7586,81.6026
77.7700,81.6600
77.7700,83.3100
77.7586,83.3674
77.7261,83.4161
77.6774,83.4486
77.6200,83.4600
77.3200,83.4600
77.2626,83.4486
77.2139,83.4161
77.1814,83.3674
77.1700,83.3100
77.1700,81.6600
77.1814,81.6026
77.2139,81.5539
77.2626,81.5214
77.3200,81.5100
Z" /> 
<path style="fill:#000000; fill-opacity:1.0000; 
stroke:#000000; stroke-width:0.0000; stroke-opacity:1; 
stroke-linecap:round; stroke-linejoin:round;fill-rule:evenodd;"
d="M 76.3500,81.5100
76.4074,81.5214
76.4561,81.5539
76.4886,81.6026
76.5000,81.6600
76.5000,83.3100
76.4886,83.3674
76.4561,83.4161
76.4074,83.4486
76.3500,83.4600
76.0500,83.4600
75.9926,83.4486
75.9439,83.4161
75.9114,83.3674
75.9000,83.3100
75.9000,81.6600
75.9114,81.6026
75.9439,81.5539
75.9926,81.5214
76.0500,81.5100
Z" /> 
<path style="fill:#000000; fill-opacity:1.0000; 
stroke:#000000; stroke-width:0.0000; stroke-opacity:1; 
stroke-linecap:round; stroke-linejoin:round;fill-rule:evenodd;"
d="M 75.0800,81.5100
75.1374,81.5214
75.1861,81.5539
75.2186,81.6026
75.2300,81.6600
75.2300,83.3100
75.2186,83.3674
75.1861,83.4161
75.1374,83.4486
75.0800,83.4600
74.7800,83.4600
74.7226,83.4486
74.6739,83.4161
74.6414,83.3674
74.6300,83.3100
74.6300,81.6600
74.6414,81.6026
74.6739,81.5539
74.7226,81.5214
74.7800,81.5100
Z" /> 
<path style="fill:#000000; fill-opacity:1.0000; 
stroke:#000000; stroke-width:0.0000; stroke-opacity:1; 
stroke-linecap:round; stroke-linejoin:round;fill-rule:evenodd;"
d="M 73.8100,81.5100
73.8674,81.5214
73.9161,81.5539
73.9486,81.6026
73.9600,81.6600
73.9600,83.3100
73.9486,83.3674
73.9161,83.4161
73.8674,83.4486
73.8100,83.4600
73.5100,83.4600
73.4526,83.4486
73.4039,83.4161
73.3714,83.3674
73.3600,83.3100
73.3600,81.6600
73.3714,81.6026
73.4039,81.5539
73.4526,81.5214
73.5100,81.5100
Z" /> 
</g>
<g >
</g>
<g style="fill:#000000; fill-opacity:1.0000; 
stroke:#000000; stroke-width:0.0000; stroke-opacity:1; 
stroke-linecap:round; stroke-linejoin:round;">
<path style="fill:#000000; fill-opacity:1.0000; 
stroke:#000000; stroke-width:0.0000; stroke-opacity:1; 
stroke-linecap:round; stroke-linejoin:round;fill-rule:evenodd;"
d="M 73.8100,96.8800
73.8674,96.8914
73.9161,96.9239
73.9486,96.9726
73.9600,97.0300
73.9600,98.6800
73.9486,98.7374
73.9161,98.7861
73.8674,98.8186
73.8100,98.8300
73.5100,98.8300
73.4526,98.8186
73.4039,98.7861
73.3714,98.7374
73.3600,98.6800
73.3600,97.0300
73.3714,96.9726
73.4039,96.9239
73.4526,96.8914
73.5100,96.8800
Z" /> 
<path style="fill:#000000; fill-opacity:1.0000; 
stroke:#000000; stroke-width:0.0000; stroke-opacity:1; 
stroke-linecap:round; stroke-linejoin:round;fill-rule:evenodd;"
d="M 75.0800,96.8800
75.1374,96.8914
75.1861,96.9239
75.2186,96.9726
75.2300,97.0300
75.2300,98.6800
75.2186,98.7374
75.1861,98.7861
75.1374,98.8186
75.0800,98.8300
74.7800,98.8300
74.7226,98.8186
74.6739,98.7861
74.6414,98.7374
74.6300,98.6800
74.6300,97.0300
74.6414,96.9726
74.6739,96.9239
74.7226,96.8914
74.7800,96.8800
Z" /> 
<path style="fill:#000000; fill-opacity:1.0000; 
stroke:#000000; stroke-width:0.0000; stroke-opacity:1; 
stroke-linecap:round; stroke-linejoin:round;fill-rule:evenodd;"
d="M 76.3500,96.8800
76.4074,96.8914
76.4561,96.9239
76.4886,96.9726
76.5000,97.0300
76.5000,98.6800
76.4886,98.7374
76.4561,98.7861
76.4074,98.8186
76.3500,98.8300
76.0500,98.8300
75.9926,98.8186
75.9439,98.7861
75.9114,98.7374
75.9000,98.6800
75.9000,97.0300
75.9114,96.9726
75.9439,96.9239
75.9926,96.8914
76.0500,96.8800
Z" /> 
<path style="fill:#000000; fill-opacity:1.0000; 
stroke:#000000; stroke-width:0.0000; stroke-opacity:1; 
stroke-linecap:round; stroke-linejoin:round;fill-rule:evenodd;"
d="M 77.6200,96.8800
77.6774,96.8914
77.7261,96.9239
77.7586,96.9726
77.7700,97.0300
77.7700,98.6800
77.7586,98.7374
77.7261,98.7861
77.6774,98.8186
77.6200,98.8300
77.3200,98.8300
77.2626,98.8186
77.2139,98.7861
77.1814,98.7374
77.1700,98.6800
77.1700,97.0300
77.1814,96.9726
77.2139,96.9239
77.2626,96.8914
77.3200,96.8800
Z" /> 
<path style="fill:#000000; fill-opacity:1.0000; 
stroke:#000000; stroke-width:0.0000; stroke-opacity:1; 
stroke-linecap:round; stroke-linejoin:round;fill-rule:evenodd;"
d="M 77.6200,101.8300
77.6774,101.8414
77.7261,101.8739
77.7586,101.9226
77.7700,101.9800
77.7700,103.6300
77.7586,103.6874
77.7261,103.7361
77.6774,103.7686
77.6200,103.7800
77.3200,103.7800
77.2626,103.7686
77.2139,103.7361
77.1814,103.6874
77.1700,103.6300
77.1700,101.9800
77.1814,101.9226
77.2139,101.8739
77.2626,101.8414
77.3200,101.8300
Z" /> 
<path style="fill:#000000; fill-opacity:1.0000; 
stroke:#000000; stroke-width:0.0000; stroke-opacity:1; 
stroke-linecap:round; stroke-linejoin:round;fill-rule:evenodd;"
d="M 76.3500,101.8300
76.4074,101.8414
76.4561,101.8739
76.4886,101.9226
76.5000,101.9800
76.5000,103.6300
76.4886,103.6874
76.4561,103.7361
76.4074,103.7686
76.3500,103.7800
76.0500,103.7800
75.9926,103.7686
75.9439,103.7361
75.9114,103.6874
75.9000,103.6300
75.9000,101.9800
75.9114,101.9226
75.9439,101.8739
75.9926,101.8414
76.0500,101.8300
Z" /> 
<path style="fill:#000000; fill-opacity:1.0000; 
stroke:#000000; stroke-width:0.0000; stroke-opacity:1; 
stroke-linecap:round; stroke-linejoin:round;fill-rule:evenodd;"
d="M 75.0800,101.8300
75.1374,101.8414
75.1861,101.8739
75.2186,101.9226
75.2300,101.9800
75.2300,103.6300
75.2186,103.6874
75.1861,103.7361
75.1374,103.7686
75.0800,103.7800
74.7800,103.7800
74.7226,103.7686
74.6739,103.7361
74.6414,103.6874
74.6300,103.6300
74.6300,101.9800
74.6414,101.9226
74.6739,101.8739
74.7226,101.8414
74.7800,101.8300
Z" /> 
<path style="fill:#000000; fill-opacity:1.0000; 
stroke:#000000; stroke-width:0.0000; stroke-opacity:1; 
stroke-linecap:round; stroke-linejoin:round;fill-rule:evenodd;"
d="M 73.8100,101.8300
73.8674,101.8414
73.9161,101.8739
73.9486,101.9226
73.9600,101.9800
73.9600,103.6300
73.9486,103.6874
73.9161,103.7361
73.8674,103.7686
73.8100,103.7800
73.5100,103.7800
73.4526,103.7686
73.4039,103.7361
73.3714,103.6874
73.3600,103.6300
73.3600,101.9800
73.3714,101.9226
73.4039,101.8739
73.4526,101.8414
73.5100,101.8300
Z" /> 
</g>
<g >
</g>
<g style="fill:#000000; fill-opacity:1.0000; 
stroke:#000000; stroke-width:0.0000; stroke-opacity:1; 
stroke-linecap:round; stroke-linejoin:round;">
<path style="fill:#000000; fill-opacity:1.0000; 
stroke:#000000; stroke-width:0.0000; stroke-opacity:1; 
stroke-linecap:round; stroke-linejoin:round;fill-rule:evenodd;"
d="M 73.8100,117.2000
73.8674,117.2114
73.9161,117.2439
73.9486,117.2926
73.9600,117.3500
73.9600,119.0000
73.9486,119.0574
73.9161,119.1061
73.8674,119.1386
73.8100,119.1500
73.5100,119.1500
73.4526,119.1386
73.4039,119.1061
73.3714,119.0574
73.3600,119.0000
73.3600,117.3500
73.3714,117.2926
73.4039,117.2439
73.4526,117.2114
73.5100,117.2000
Z" /> 
<path style="fill:#000000; fill-opacity:1.0000; 
stroke:#000000; stroke-width:0.0000; stroke-opacity:1; 
stroke-linecap:round; stroke-linejoin:round;fill-rule:evenodd;"
d="M 75.0800,117.2000
75.1374,117.2114
75.1861,117.2439
75.2186,117.2926
75.2300,117.3500
75.2300,119.0000
75.2186,119.0574
75.1861,119.1061
75.1374,119.1386
75.0800,119.1500
74.7800,119.1500
74.7226,119.1386
74.6739,119.1061
74.6414,119.0574
74.6300,119.0000
74.6300,117.3500
74.6414,117.2926
74.6739,117.2439
74.7226,117.2114
74.7800,117.2000
Z" /> 
<path style="fill:#000000; fill-opacity:1.0000; 
stroke:#000000; stroke-width:0.0000; stroke-opacity:1; 
stroke-linecap:round; stroke-linejoin:round;fill-rule:evenodd;"
d="M 76.3500,117.2000
76.4074,117.2114
76.4561,117.2439
76.4886,117.2926
76.5000,117.3500
76.5000,119.0000
76.4886,119.0574
76.4561,119.1061
76.4074,119.1386
76.3500,119.1500
76.0500,119.1500
75.9926,119.1386
75.9439,119.1061
75.9114,119.0574
75.9000,119.0000
75.9000,117.3500
75.9114,117.2926
75.9439,117.2439
75.9926,117.2114
76.0500,117.2000
Z" /> 
<path style="fill:#000000; fill-opacity:1.0000; 
stroke:#000000; stroke-width:0.0000; stroke-opacity:1; 
stroke-linecap:round; stroke-linejoin:round;fill-rule:evenodd;"
d="M 77.6200,117.2000
77.6774,117.2114
77.7261,117.2439
77.7586,117.2926
77.7700,117.3500
77.7700,119.0000
77.7586,119.0574
77.7261,119.1061
77.6774,119.1386
77.6200,119.1500
77.3200,119.1500
77.2626,119.1386
77.2139,119.1061
77.1814,119.0574
77.1700,119.0000
77.1700,117.3500
77.1814,117.2926
77.2139,117.2439
77.2626,117.2114
77.3200,117.2000
Z" /> 
<path style="fill:#000000; fill-opacity:1.0000; 
stroke:#000000; stroke-width:0.0000; stroke-opacity:1; 
stroke-linecap:round; stroke-linejoin:round;fill-rule:evenodd;"
d="M 77.6200,122.1500
77.6774,122.1614
77.7261,122.1939
77.7586,122.2426
77.7700,122.3000
77.7700,123.9500
77.7586,124.0074
77.7261,124.0561
77.6774,124.0886
77.6200,124.1000
77.3200,124.1000
77.2626,124.0886
77.2139,124.0561
77.1814,124.0074
77.1700,123.9500
77.1700,122.3000
77.1814,122.2426
77.2139,122.1939
77.2626,122.1614
77.3200,122.1500
Z" /> 
<path style="fill:#000000; fill-opacity:1.0000; 
stroke:#000000; stroke-width:0.0000; stroke-opacity:1; 
stroke-linecap:round; stroke-linejoin:round;fill-rule:evenodd;"
d="M 76.3500,122.1500
76.4074,122.1614
76.4561,122.1939
76.4886,122.2426
76.5000,122.3000
76.5000,123.9500
76.4886,124.0074
76.4561,124.0561
76.4074,124.0886
76.3500,124.1000
76.0500,124.1000
75.9926,124.0886
75.9439,124.0561
75.9114,124.0074
75.9000,123.9500
75.9000,122.3000
75.9114,122.2426
75.9439,122.1939
75.9926,122.1614
76.0500,122.1500
Z" /> 
<path style="fill:#000000; fill-opacity:1.0000; 
stroke:#000000; stroke-width:0.0000; stroke-opacity:1; 
stroke-linecap:round; stroke-linejoin:round;fill-rule:evenodd;"
d="M 75.0800,122.1500
75.1374,122.1614
75.1861,122.1939
75.2186,122.2426
75.2300,122.3000
75.2300,123.9500
75.2186,124.0074
75.1861,124.0561
75.1374,124.0886
75.0800,124.1000
74.7800,124.1000
74.7226,124.0886
74.6739,124.0561
74.6414,124.0074
74.6300,123.9500
74.6300,122.3000
74.6414,122.2426
74.6739,122.1939
74.7226,122.1614
74.7800,122.1500
Z" /> 
<path style="fill:#000000; fill-opacity:1.0000; 
stroke:#000000; stroke-width:0.0000; stroke-opacity:1; 
stroke-linecap:round; stroke-linejoin:round;fill-rule:evenodd;"
d="M 73.8100,122.1500
73.8674,122.1614
73.9161,122.1939
73.9486,122.2426
73.9600,122.3000
73.9600,123.9500
73.9486,124.0074
73.9161,124.0561
73.8674,124.0886
73.8100,124.1000
73.5100,124.1000
73.4526,124.0886
73.4039,124.0561
73.3714,124.0074
73.3600,123.9500
73.3600,122.3000
73.3714,122.2426
73.4039,122.1939
73.4526,122.1614
73.5100,122.1500
Z" /> 
</g>
<g >
</g>
<g style="fill:#000000; fill-opacity:1.0000; 
stroke:#000000; stroke-width:0.0000; stroke-opacity:1; 
stroke-linecap:round; stroke-linejoin:round;">
<path style="fill:#000000; fill-opacity:1.0000; 
stroke:#000000; stroke-width:0.0000; stroke-opacity:1; 
stroke-linecap:round; stroke-linejoin:round;fill-rule:evenodd;"
d="M 73.8100,136.8200
73.8674,136.8314
73.9161,136.8639
73.9486,136.9126
73.9600,136.9700
73.9600,138.6200
73.9486,138.6774
73.9161,138.7261
73.8674,138.7586
73.8100,138.7700
73.5100,138.7700
73.4526,138.7586
73.4039,138.7261
73.3714,138.6774
73.3600,138.6200
73.3600,136.9700
73.3714,136.9126
73.4039,136.8639
73.4526,136.8314
73.5100,136.8200
Z" /> 
<path style="fill:#000000; fill-opacity:1.0000; 
stroke:#000000; stroke-width:0.0000; stroke-opacity:1; 
stroke-linecap:round; stroke-linejoin:round;fill-rule:evenodd;"
d="M 75.0800,136.8200
75.1374,136.8314
75.1861,136.8639
75.2186,136.9126
75.2300,136.9700
75.2300,138.6200
75.2186,138.6774
75.1861,138.7261
75.1374,138.7586
75.0800,138.7700
74.7800,138.7700
74.7226,138.7586
74.6739,138.7261
74.6414,138.6774
74.6300,138.6200
74.6300,136.9700
74.6414,136.9126
74.6739,136.8639
74.7226,136.8314
74.7800,136.8200
Z" /> 
<path style="fill:#000000; fill-opacity:1.0000; 
stroke:#000000; stroke-width:0.0000; stroke-opacity:1; 
stroke-linecap:round; stroke-linejoin:round;fill-rule:evenodd;"
d="M 76.3500,136.8200
76.4074,136.8314
76.4561,136.8639
76.4886,136.9126
76.5000,136.9700
76.5000,138.6200
76.4886,138.6774
76.4561,138.7261
76.4074,138.7586
76.3500,138.7700
76.0500,138.7700
75.9926,138.7586
75.9439,138.7261
75.9114,138.6774
75.9000,138.6200
75.9000,136.9700
75.9114,136.9126
75.9439,136.8639
75.9926,136.8314
76.0500,136.8200
Z" /> 
<path style="fill:#000000; fill-opacity:1.0000; 
stroke:#000000; stroke-width:0.0000; stroke-opacity:1; 
stroke-linecap:round; stroke-linejoin:round;fill-rule:evenodd;"
d="M 77.6200,136.8200
77.6774,136.8314
77.7261,136.8639
77.7586,136.9126
77.7700,136.9700
77.7700,138.6200
77.7586,138.6774
77.7261,138.7261
77.6774,138.7586
77.6200,138.7700
77.3200,138.7700
77.2626,138.7586
77.2139,138.7261
77.1814,138.6774
77.1700,138.6200
77.1700,136.9700
77.1814,136.9126
77.2139,136.8639
77.2626,136.8314
77.3200,136.8200
Z" /> 
<path style="fill:#000000; fill-opacity:1.0000; 
stroke:#000000; stroke-width:0.0000; stroke-opacity:1; 
stroke-linecap:round; stroke-linejoin:round;fill-rule:evenodd;"
d="M 77.6200,141.7700
77.6774,141.7814
77.7261,141.8139
77.7586,141.8626
77.7700,141.9200
77.7700,143.5700
77.7586,143.6274
77.7261,143.6761
77.6774,143.7086
77.6200,143.7200
77.3200,143.7200
77.2626,143.7086
77.2139,143.6761
77.1814,143.6274
77.1700,143.5700
77.1700,141.9200
77.1814,141.8626
77.2139,141.8139
77.2626,141.7814
77.3200,141.7700
Z" /> 
<path style="fill:#000000; fill-opacity:1.0000; 
stroke:#000000; stroke-width:0.0000; stroke-opacity:1; 
stroke-linecap:round; stroke-linejoin:round;fill-rule:evenodd;"
d="M 76.3500,141.7700
76.4074,141.7814
76.4561,141.8139
76.4886,141.8626
76.5000,141.9200
76.5000,143.5700
76.4886,143.6274
76.4561,143.6761
76.4074,143.7086
76.3500,143.7200
76.0500,143.7200
75.9926,143.7086
75.9439,143.6761
75.9114,143.6274
75.9000,143.5700
75.9000,141.9200
75.9114,141.8626
75.9439,141.8139
75.9926,141.7814
76.0500,141.7700
Z" /> 
<path style="fill:#000000; fill-opacity:1.0000; 
stroke:#000000; stroke-width:0.0000; stroke-opacity:1; 
stroke-linecap:round; stroke-linejoin:round;fill-rule:evenodd;"
d="M 75.0800,141.7700
75.1374,141.7814
75.1861,141.8139
75.2186,141.8626
75.2300,141.9200
75.2300,143.5700
75.2186,143.6274
75.1861,143.6761
75.1374,143.7086
75.0800,143.7200
74.7800,143.7200
74.7226,143.7086
74.6739,143.6761
74.6414,143.6274
74.6300,143.5700
74.6300,141.9200
74.6414,141.8626
74.6739,141.8139
74.7226,141.7814
74.7800,141.7700
Z" /> 
<path style="fill:#000000; fill-opacity:1.0000; 
stroke:#000000; stroke-width:0.0000; stroke-opacity:1; 
stroke-linecap:round; stroke-linejoin:round;fill-rule:evenodd;"
d="M 73.8100,141.7700
73.8674,141.7814
73.9161,141.8139
73.9486,141.8626
73.9600,141.9200
73.9600,143.5700
73.9486,143.6274
73.9161,143.6761
73.8674,143.7086
73.8100,143.7200
73.5100,143.7200
73.4526,143.7086
73.4039,143.6761
73.3714,143.6274
73.3600,143.5700
73.3600,141.9200
73.3714,141.8626
73.4039,141.8139
73.4526,141.7814
73.5100,141.7700
Z" /> 
</g>
<g >
</g>
<g style="fill:#000000; fill-opacity:1.0000; 
stroke:#000000; stroke-width:0.0000; stroke-opacity:1; 
stroke-linecap:round; stroke-linejoin:round;">
<path style="fill:#000000; fill-opacity:1.0000; 
stroke:#000000; stroke-width:0.0000; stroke-opacity:1; 
stroke-linecap:round; stroke-linejoin:round;fill-rule:evenodd;"
d="M 82.9100,149.0750
82.9214,149.0176
82.9539,148.9689
83.0026,148.9364
83.0600,148.9250
84.7100,148.9250
84.7674,148.9364
84.8161,148.9689
84.8486,149.0176
84.8600,149.0750
84.8600,149.3750
84.8486,149.4324
84.8161,149.4811
84.7674,149.5136
84.7100,149.5250
83.0600,149.5250
83.0026,149.5136
82.9539,149.4811
82.9214,149.4324
82.9100,149.3750
Z" /> 
<path style="fill:#000000; fill-opacity:1.0000; 
stroke:#000000; stroke-width:0.0000; stroke-opacity:1; 
stroke-linecap:round; stroke-linejoin:round;fill-rule:evenodd;"
d="M 82.9100,147.8050
82.9214,147.7476
82.9539,147.6989
83.0026,147.6664
83.0600,147.6550
84.7100,147.6550
84.7674,147.6664
84.8161,147.6989
84.8486,147.7476
84.8600,147.8050
84.8600,148.1050
84.8486,148.1624
84.8161,148.2111
84.7674,148.2436
84.7100,148.2550
83.0600,148.2550
83.0026,148.2436
82.9539,148.2111
82.9214,148.1624
82.9100,148.1050
Z" /> 
<path style="fill:#000000; fill-opacity:1.0000; 
stroke:#000000; stroke-width:0.0000; stroke-opacity:1; 
stroke-linecap:round; stroke-linejoin:round;fill-rule:evenodd;"
d="M 82.9100,146.5350
82.9214,146.4776
82.9539,146.4289
83.0026,146.3964
83.0600,146.3850
84.7100,146.3850
84.7674,146.3964
84.8161,146.4289
84.8486,146.4776
84.8600,146.5350
84.8600,146.8350
84.8486,146.8924
84.8161,146.9411
84.7674,146.9736
84.7100,146.9850
83.0600,146.9850
83.0026,146.9736
82.9539,146.9411
82.9214,146.8924
82.9100,146.8350
Z" /> 
<path style="fill:#000000; fill-opacity:1.0000; 
stroke:#000000; stroke-width:0.0000; stroke-opacity:1; 
stroke-linecap:round; stroke-linejoin:round;fill-rule:evenodd;"
d="M 82.9100,145.2650
82.9214,145.2076
82.9539,145.1589
83.0026,145.1264
83.0600,145.1150
84.7100,145.1150
84.7674,145.1264
84.8161,145.1589
84.8486,145.2076
84.8600,145.2650
84.8600,145.5650
84.8486,145.6224
84.8161,145.6711
84.7674,145.7036
84.7100,145.7150
83.0600,145.7150
83.0026,145.7036
82.9539,145.6711
82.9214,145.6224
82.9100,145.5650
Z" /> 
<path style="fill:#000000; fill-opacity:1.0000; 
stroke:#000000; stroke-width:0.0000; stroke-opacity:1; 
stroke-linecap:round; stroke-linejoin:round;fill-rule:evenodd;"
d="M 87.8600,145.2650
87.8714,145.2076
87.9039,145.1589
87.9526,145.1264
88.0100,145.1150
89.6600,145.1150
89.7174,145.1264
89.7661,145.1589
89.7986,145.2076
89.8100,145.2650
89.8100,145.5650
89.7986,145.6224
89.7661,145.6711
89.7174,145.7036
89.6600,145.7150
88.0100,145.7150
87.9526,145.7036
87.9039,145.6711
87.8714,145.6224
87.8600,145.5650
Z" /> 
<path style="fill:#000000; fill-opacity:1.0000; 
stroke:#000000; stroke-width:0.0000; stroke-opacity:1; 
stroke-linecap:round; stroke-linejoin:round;fill-rule:evenodd;"
d="M 87.8600,146.5350
87.8714,146.4776
87.9039,146.4289
87.9526,146.3964
88.0100,146.3850
89.6600,146.3850
89.7174,146.3964
89.7661,146.4289
89.7986,146.4776
89.8100,146.5350
89.8100,146.8350
89.7986,146.8924
89.7661,146.9411
89.7174,146.9736
89.6600,146.9850
88.0100,146.9850
87.9526,146.9736
87.9039,146.9411
87.8714,146.8924
87.8600,146.8350
Z" /> 
<path style="fill:#000000; fill-opacity:1.0000; 
stroke:#000000; stroke-width:0.0000; stroke-opacity:1; 
stroke-linecap:round; stroke-linejoin:round;fill-rule:evenodd;"
d="M 87.8600,147.8050
87.8714,147.7476
87.9039,147.6989
87.9526,147.6664
88.0100,147.6550
89.6600,147.6550
89.7174,147.6664
89.7661,147.6989
89.7986,147.7476
89.8100,147.8050
89.8100,148.1050
89.7986,148.1624
89.7661,148.2111
89.7174,148.2436
89.6600,148.2550
88.0100,148.2550
87.9526,148.2436
87.9039,148.2111
87.8714,148.1624
87.8600,148.1050
Z" /> 
<path style="fill:#000000; fill-opacity:1.0000; 
stroke:#000000; stroke-width:0.0000; stroke-opacity:1; 
stroke-linecap:round; stroke-linejoin:round;fill-rule:evenodd;"
d="M 87.8600,149.0750
87.8714,149.0176
87.9039,148.9689
87.9526,148.9364
88.0100,148.9250
89.6600,148.9250
89.7174,148.9364
89.7661,148.9689
89.7986,149.0176
89.8100,149.0750
89.8100,149.3750
89.7986,149.4324
89.7661,149.4811
89.7174,149.5136
89.6600,149.5250
88.0100,149.5250
87.9526,149.5136
87.9039,149.4811
87.8714,149.4324
87.8600,149.3750
Z" /> 
</g>
<g >
</g>
<g style="fill:#000000; fill-opacity:1.0000; 
stroke:#000000; stroke-width:0.0000; stroke-opacity:1; 
stroke-linecap:round; stroke-linejoin:round;">
<path style="fill:#000000; fill-opacity:1.0000; 
stroke:#000000; stroke-width:0.0000; stroke-opacity:1; 
stroke-linecap:round; stroke-linejoin:round;fill-rule:evenodd;"
d="M 59.4150,149.9640
59.4264,149.9066
59.4589,149.8579
59.5076,149.8254
59.5650,149.8140
61.2150,149.8140
61.2724,149.8254
61.3211,149.8579
61.3536,149.9066
61.3650,149.9640
61.3650,150.2640
61.3536,150.3214
61.3211,150.3701
61.2724,150.4026
61.2150,150.4140
59.5650,150.4140
59.5076,150.4026
59.4589,150.3701
59.4264,150.3214
59.4150,150.2640
Z" /> 
<path style="fill:#000000; fill-opacity:1.0000; 
stroke:#000000; stroke-width:0.0000; stroke-opacity:1; 
stroke-linecap:round; stroke-linejoin:round;fill-rule:evenodd;"
d="M 59.4150,148.6940
59.4264,148.6366
59.4589,148.5879
59.5076,148.5554
59.5650,148.5440
61.2150,148.5440
61.2724,148.5554
61.3211,148.5879
61.3536,148.6366
61.3650,148.6940
61.3650,148.9940
61.3536,149.0514
61.3211,149.1001
61.2724,149.1326
61.2150,149.1440
59.5650,149.1440
59.5076,149.1326
59.4589,149.1001
59.4264,149.0514
59.4150,148.9940
Z" /> 
<path style="fill:#000000; fill-opacity:1.0000; 
stroke:#000000; stroke-width:0.0000; stroke-opacity:1; 
stroke-linecap:round; stroke-linejoin:round;fill-rule:evenodd;"
d="M 59.4150,147.4240
59.4264,147.3666
59.4589,147.3179
59.5076,147.2854
59.5650,147.2740
61.2150,147.2740
61.2724,147.2854
61.3211,147.3179
61.3536,147.3666
61.3650,147.4240
61.3650,147.7240
61.3536,147.7814
61.3211,147.8301
61.2724,147.8626
61.2150,147.8740
59.5650,147.8740
59.5076,147.8626
59.4589,147.8301
59.4264,147.7814
59.4150,147.7240
Z" /> 
<path style="fill:#000000; fill-opacity:1.0000; 
stroke:#000000; stroke-width:0.0000; stroke-opacity:1; 
stroke-linecap:round; stroke-linejoin:round;fill-rule:evenodd;"
d="M 59.4150,146.1540
59.4264,146.0966
59.4589,146.0479
59.5076,146.0154
59.5650,146.0040
61.2150,146.0040
61.2724,146.0154
61.3211,146.0479
61.3536,146.0966
61.3650,146.1540
61.3650,146.4540
61.3536,146.5114
61.3211,146.5601
61.2724,146.5926
61.2150,146.6040
59.5650,146.6040
59.5076,146.5926
59.4589,146.5601
59.4264,146.5114
59.4150,146.4540
Z" /> 
<path style="fill:#000000; fill-opacity:1.0000; 
stroke:#000000; stroke-width:0.0000; stroke-opacity:1; 
stroke-linecap:round; stroke-linejoin:round;fill-rule:evenodd;"
d="M 64.3650,146.1540
64.3764,146.0966
64.4089,146.0479
64.4576,146.0154
64.5150,146.0040
66.1650,146.0040
66.2224,146.0154
66.2711,146.0479
66.3036,146.0966
66.3150,146.1540
66.3150,146.4540
66.3036,146.5114
66.2711,146.5601
66.2224,146.5926
66.1650,146.6040
64.5150,146.6040
64.4576,146.5926
64.4089,146.5601
64.3764,146.5114
64.3650,146.4540
Z" /> 
<path style="fill:#000000; fill-opacity:1.0000; 
stroke:#000000; stroke-width:0.0000; stroke-opacity:1; 
stroke-linecap:round; stroke-linejoin:round;fill-rule:evenodd;"
d="M 64.3650,147.4240
64.3764,147.3666
64.4089,147.3179
64.4576,147.2854
64.5150,147.2740
66.1650,147.2740
66.2224,147.2854
66.2711,147.3179
66.3036,147.3666
66.3150,147.4240
66.3150,147.7240
66.3036,147.7814
66.2711,147.8301
66.2224,147.8626
66.1650,147.8740
64.5150,147.8740
64.4576,147.8626
64.4089,147.8301
64.3764,147.7814
64.3650,147.7240
Z" /> 
<path style="fill:#000000; fill-opacity:1.0000; 
stroke:#000000; stroke-width:0.0000; stroke-opacity:1; 
stroke-linecap:round; stroke-linejoin:round;fill-rule:evenodd;"
d="M 64.3650,148.6940
64.3764,148.6366
64.4089,148.5879
64.4576,148.5554
64.5150,148.5440
66.1650,148.5440
66.2224,148.5554
66.2711,148.5879
66.3036,148.6366
66.3150,148.6940
66.3150,148.9940
66.3036,149.0514
66.2711,149.1001
66.2224,149.1326
66.1650,149.1440
64.5150,149.1440
64.4576,149.1326
64.4089,149.1001
64.3764,149.0514
64.3650,148.9940
Z" /> 
<path style="fill:#000000; fill-opacity:1.0000; 
stroke:#000000; stroke-width:0.0000; stroke-opacity:1; 
stroke-linecap:round; stroke-linejoin:round;fill-rule:evenodd;"
d="M 64.3650,149.9640
64.3764,149.9066
64.4089,149.8579
64.4576,149.8254
64.5150,149.8140
66.1650,149.8140
66.2224,149.8254
66.2711,149.8579
66.3036,149.9066
66.3150,149.9640
66.3150,150.2640
66.3036,150.3214
66.2711,150.3701
66.2224,150.4026
66.1650,150.4140
64.5150,150.4140
64.4576,150.4026
64.4089,150.3701
64.3764,150.3214
64.3650,150.2640
Z" /> 
</g>
<g >
</g>
<g style="fill:#000000; fill-opacity:1.0000; 
stroke:#000000; stroke-width:0.0000; stroke-opacity:1; 
stroke-linecap:round; stroke-linejoin:round;">
<path style="fill:#000000; fill-opacity:1.0000; 
stroke:#000000; stroke-width:0.0000; stroke-opacity:1; 
stroke-linecap:round; stroke-linejoin:round;fill-rule:evenodd;"
d="M 70.8400,153.6370
70.8210,153.7327
70.7668,153.8138
70.6857,153.8680
70.5900,153.8870
69.9150,153.8870
69.8193,153.8680
69.7382,153.8138
69.6840,153.7327
69.6650,153.6370
69.6650,152.6870
69.6840,152.5913
69.7382,152.5102
69.8193,152.4560
69.9150,152.4370
70.5900,152.4370
70.6857,152.4560
70.7668,152.5102
70.8210,152.5913
70.8400,152.6870
Z" /> 
<path style="fill:#000000; fill-opacity:1.0000; 
stroke:#000000; stroke-width:0.0000; stroke-opacity:1; 
stroke-linecap:round; stroke-linejoin:round;fill-rule:evenodd;"
d="M 68.7650,153.6370
68.7460,153.7327
68.6918,153.8138
68.6107,153.8680
68.5150,153.8870
67.8400,153.8870
67.7443,153.8680
67.6632,153.8138
67.6090,153.7327
67.5900,153.6370
67.5900,152.6870
67.6090,152.5913
67.6632,152.5102
67.7443,152.4560
67.8400,152.4370
68.5150,152.4370
68.6107,152.4560
68.6918,152.5102
68.7460,152.5913
68.7650,152.6870
Z" /> 
</g>
<g >
</g>
<g >
</g>
<g >
</g>
</g> 
</svg>
