<?xml version="1.0" standalone="no"?>
 <!DOCTYPE svg PUBLIC "-//W3C//DTD SVG 1.1//EN" 
 "http://www.w3.org/Graphics/SVG/1.1/DTD/svg11.dtd"> 
<svg
  xmlns:svg="http://www.w3.org/2000/svg"
  xmlns="http://www.w3.org/2000/svg"
  xmlns:xlink="http://www.w3.org/1999/xlink"
  version="1.1"
  width="297.0022mm" height="210.0072mm" viewBox="0.0000 0.0000 297.0022 210.0072">
<title>SVG Image created as mount-Cmts_User.svg date 2023/11/07 16:38:59 </title>
  <desc>Image generated by PCBNEW </desc>
<g style="fill:#000000; fill-opacity:1.0000;stroke:#000000; stroke-opacity:1.0000;
stroke-linecap:round; stroke-linejoin:round;"
 transform="translate(0 0) scale(1 1)">
</g>
<g style="fill:#000000; fill-opacity:0.0; 
stroke:#000000; stroke-width:0.0000; stroke-opacity:1; 
stroke-linecap:round; stroke-linejoin:round;">
</g>
<g style="fill:#000000; fill-opacity:0.0; 
stroke:#000000; stroke-width:0.0510; stroke-opacity:1; 
stroke-linecap:round; stroke-linejoin:round;">
<text x="35.5600" y="81.4800"
textLength="2.7397" font-size="0.5333" lengthAdjust="spacingAndGlyphs"
text-anchor="middle" opacity="0">KEEPOUT</text>
<g class="stroked-text"><desc>KEEPOUT</desc>
<path d="M34.3219 81.4624
L34.3219 81.0624
" />
<path d="M34.5505 81.4624
L34.3790 81.2338
" />
<path d="M34.5505 81.0624
L34.3219 81.2910
" />
<path d="M34.7219 81.2529
L34.8552 81.2529
" />
<path d="M34.9124 81.4624
L34.7219 81.4624
" />
<path d="M34.7219 81.4624
L34.7219 81.0624
" />
<path d="M34.7219 81.0624
L34.9124 81.0624
" />
<path d="M35.0838 81.2529
L35.2171 81.2529
" />
<path d="M35.2743 81.4624
L35.0838 81.4624
" />
<path d="M35.0838 81.4624
L35.0838 81.0624
" />
<path d="M35.0838 81.0624
L35.2743 81.0624
" />
<path d="M35.4457 81.4624
L35.4457 81.0624
" />
<path d="M35.4457 81.0624
L35.5981 81.0624
" />
<path d="M35.5981 81.0624
L35.6362 81.0814
" />
<path d="M35.6362 81.0814
L35.6552 81.1005
" />
<path d="M35.6552 81.1005
L35.6743 81.1386
" />
<path d="M35.6743 81.1386
L35.6743 81.1957
" />
<path d="M35.6743 81.1957
L35.6552 81.2338
" />
<path d="M35.6552 81.2338
L35.6362 81.2529
" />
<path d="M35.6362 81.2529
L35.5981 81.2719
" />
<path d="M35.5981 81.2719
L35.4457 81.2719
" />
<path d="M35.9219 81.0624
L35.9981 81.0624
" />
<path d="M35.9981 81.0624
L36.0362 81.0814
" />
<path d="M36.0362 81.0814
L36.0743 81.1195
" />
<path d="M36.0743 81.1195
L36.0933 81.1957
" />
<path d="M36.0933 81.1957
L36.0933 81.3291
" />
<path d="M36.0933 81.3291
L36.0743 81.4053
" />
<path d="M36.0743 81.4053
L36.0362 81.4433
" />
<path d="M36.0362 81.4433
L35.9981 81.4624
" />
<path d="M35.9981 81.4624
L35.9219 81.4624
" />
<path d="M35.9219 81.4624
L35.8838 81.4433
" />
<path d="M35.8838 81.4433
L35.8457 81.4053
" />
<path d="M35.8457 81.4053
L35.8267 81.3291
" />
<path d="M35.8267 81.3291
L35.8267 81.1957
" />
<path d="M35.8267 81.1957
L35.8457 81.1195
" />
<path d="M35.8457 81.1195
L35.8838 81.0814
" />
<path d="M35.8838 81.0814
L35.9219 81.0624
" />
<path d="M36.2648 81.0624
L36.2648 81.3862
" />
<path d="M36.2648 81.3862
L36.2838 81.4243
" />
<path d="M36.2838 81.4243
L36.3029 81.4433
" />
<path d="M36.3029 81.4433
L36.3410 81.4624
" />
<path d="M36.3410 81.4624
L36.4171 81.4624
" />
<path d="M36.4171 81.4624
L36.4552 81.4433
" />
<path d="M36.4552 81.4433
L36.4743 81.4243
" />
<path d="M36.4743 81.4243
L36.4933 81.3862
" />
<path d="M36.4933 81.3862
L36.4933 81.0624
" />
<path d="M36.6267 81.0624
L36.8552 81.0624
" />
<path d="M36.7410 81.4624
L36.7410 81.0624
" />
</g><text x="35.5600" y="40.8400"
textLength="2.7397" font-size="0.5333" lengthAdjust="spacingAndGlyphs"
text-anchor="middle" opacity="0">KEEPOUT</text>
<g class="stroked-text"><desc>KEEPOUT</desc>
<path d="M34.3219 40.8224
L34.3219 40.4224
" />
<path d="M34.5505 40.8224
L34.3790 40.5938
" />
<path d="M34.5505 40.4224
L34.3219 40.6510
" />
<path d="M34.7219 40.6129
L34.8552 40.6129
" />
<path d="M34.9124 40.8224
L34.7219 40.8224
" />
<path d="M34.7219 40.8224
L34.7219 40.4224
" />
<path d="M34.7219 40.4224
L34.9124 40.4224
" />
<path d="M35.0838 40.6129
L35.2171 40.6129
" />
<path d="M35.2743 40.8224
L35.0838 40.8224
" />
<path d="M35.0838 40.8224
L35.0838 40.4224
" />
<path d="M35.0838 40.4224
L35.2743 40.4224
" />
<path d="M35.4457 40.8224
L35.4457 40.4224
" />
<path d="M35.4457 40.4224
L35.5981 40.4224
" />
<path d="M35.5981 40.4224
L35.6362 40.4414
" />
<path d="M35.6362 40.4414
L35.6552 40.4605
" />
<path d="M35.6552 40.4605
L35.6743 40.4986
" />
<path d="M35.6743 40.4986
L35.6743 40.5557
" />
<path d="M35.6743 40.5557
L35.6552 40.5938
" />
<path d="M35.6552 40.5938
L35.6362 40.6129
" />
<path d="M35.6362 40.6129
L35.5981 40.6319
" />
<path d="M35.5981 40.6319
L35.4457 40.6319
" />
<path d="M35.9219 40.4224
L35.9981 40.4224
" />
<path d="M35.9981 40.4224
L36.0362 40.4414
" />
<path d="M36.0362 40.4414
L36.0743 40.4795
" />
<path d="M36.0743 40.4795
L36.0933 40.5557
" />
<path d="M36.0933 40.5557
L36.0933 40.6891
" />
<path d="M36.0933 40.6891
L36.0743 40.7653
" />
<path d="M36.0743 40.7653
L36.0362 40.8033
" />
<path d="M36.0362 40.8033
L35.9981 40.8224
" />
<path d="M35.9981 40.8224
L35.9219 40.8224
" />
<path d="M35.9219 40.8224
L35.8838 40.8033
" />
<path d="M35.8838 40.8033
L35.8457 40.7653
" />
<path d="M35.8457 40.7653
L35.8267 40.6891
" />
<path d="M35.8267 40.6891
L35.8267 40.5557
" />
<path d="M35.8267 40.5557
L35.8457 40.4795
" />
<path d="M35.8457 40.4795
L35.8838 40.4414
" />
<path d="M35.8838 40.4414
L35.9219 40.4224
" />
<path d="M36.2648 40.4224
L36.2648 40.7462
" />
<path d="M36.2648 40.7462
L36.2838 40.7843
" />
<path d="M36.2838 40.7843
L36.3029 40.8033
" />
<path d="M36.3029 40.8033
L36.3410 40.8224
" />
<path d="M36.3410 40.8224
L36.4171 40.8224
" />
<path d="M36.4171 40.8224
L36.4552 40.8033
" />
<path d="M36.4552 40.8033
L36.4743 40.7843
" />
<path d="M36.4743 40.7843
L36.4933 40.7462
" />
<path d="M36.4933 40.7462
L36.4933 40.4224
" />
<path d="M36.6267 40.4224
L36.8552 40.4224
" />
<path d="M36.7410 40.8224
L36.7410 40.4224
" />
</g><text x="35.5600" y="61.1600"
textLength="2.7397" font-size="0.5333" lengthAdjust="spacingAndGlyphs"
text-anchor="middle" opacity="0">KEEPOUT</text>
<g class="stroked-text"><desc>KEEPOUT</desc>
<path d="M34.3219 61.1424
L34.3219 60.7424
" />
<path d="M34.5505 61.1424
L34.3790 60.9138
" />
<path d="M34.5505 60.7424
L34.3219 60.9710
" />
<path d="M34.7219 60.9329
L34.8552 60.9329
" />
<path d="M34.9124 61.1424
L34.7219 61.1424
" />
<path d="M34.7219 61.1424
L34.7219 60.7424
" />
<path d="M34.7219 60.7424
L34.9124 60.7424
" />
<path d="M35.0838 60.9329
L35.2171 60.9329
" />
<path d="M35.2743 61.1424
L35.0838 61.1424
" />
<path d="M35.0838 61.1424
L35.0838 60.7424
" />
<path d="M35.0838 60.7424
L35.2743 60.7424
" />
<path d="M35.4457 61.1424
L35.4457 60.7424
" />
<path d="M35.4457 60.7424
L35.5981 60.7424
" />
<path d="M35.5981 60.7424
L35.6362 60.7614
" />
<path d="M35.6362 60.7614
L35.6552 60.7805
" />
<path d="M35.6552 60.7805
L35.6743 60.8186
" />
<path d="M35.6743 60.8186
L35.6743 60.8757
" />
<path d="M35.6743 60.8757
L35.6552 60.9138
" />
<path d="M35.6552 60.9138
L35.6362 60.9329
" />
<path d="M35.6362 60.9329
L35.5981 60.9519
" />
<path d="M35.5981 60.9519
L35.4457 60.9519
" />
<path d="M35.9219 60.7424
L35.9981 60.7424
" />
<path d="M35.9981 60.7424
L36.0362 60.7614
" />
<path d="M36.0362 60.7614
L36.0743 60.7995
" />
<path d="M36.0743 60.7995
L36.0933 60.8757
" />
<path d="M36.0933 60.8757
L36.0933 61.0091
" />
<path d="M36.0933 61.0091
L36.0743 61.0853
" />
<path d="M36.0743 61.0853
L36.0362 61.1233
" />
<path d="M36.0362 61.1233
L35.9981 61.1424
" />
<path d="M35.9981 61.1424
L35.9219 61.1424
" />
<path d="M35.9219 61.1424
L35.8838 61.1233
" />
<path d="M35.8838 61.1233
L35.8457 61.0853
" />
<path d="M35.8457 61.0853
L35.8267 61.0091
" />
<path d="M35.8267 61.0091
L35.8267 60.8757
" />
<path d="M35.8267 60.8757
L35.8457 60.7995
" />
<path d="M35.8457 60.7995
L35.8838 60.7614
" />
<path d="M35.8838 60.7614
L35.9219 60.7424
" />
<path d="M36.2648 60.7424
L36.2648 61.0662
" />
<path d="M36.2648 61.0662
L36.2838 61.1043
" />
<path d="M36.2838 61.1043
L36.3029 61.1233
" />
<path d="M36.3029 61.1233
L36.3410 61.1424
" />
<path d="M36.3410 61.1424
L36.4171 61.1424
" />
<path d="M36.4171 61.1424
L36.4552 61.1233
" />
<path d="M36.4552 61.1233
L36.4743 61.1043
" />
<path d="M36.4743 61.1043
L36.4933 61.0662
" />
<path d="M36.4933 61.0662
L36.4933 60.7424
" />
<path d="M36.6267 60.7424
L36.8552 60.7424
" />
<path d="M36.7410 61.1424
L36.7410 60.7424
" />
</g><text x="76.2000" y="81.4800"
textLength="2.7397" font-size="0.5333" lengthAdjust="spacingAndGlyphs"
text-anchor="middle" opacity="0">KEEPOUT</text>
<g class="stroked-text"><desc>KEEPOUT</desc>
<path d="M74.9619 81.4624
L74.9619 81.0624
" />
<path d="M75.1905 81.4624
L75.0190 81.2338
" />
<path d="M75.1905 81.0624
L74.9619 81.2910
" />
<path d="M75.3619 81.2529
L75.4952 81.2529
" />
<path d="M75.5524 81.4624
L75.3619 81.4624
" />
<path d="M75.3619 81.4624
L75.3619 81.0624
" />
<path d="M75.3619 81.0624
L75.5524 81.0624
" />
<path d="M75.7238 81.2529
L75.8571 81.2529
" />
<path d="M75.9143 81.4624
L75.7238 81.4624
" />
<path d="M75.7238 81.4624
L75.7238 81.0624
" />
<path d="M75.7238 81.0624
L75.9143 81.0624
" />
<path d="M76.0857 81.4624
L76.0857 81.0624
" />
<path d="M76.0857 81.0624
L76.2381 81.0624
" />
<path d="M76.2381 81.0624
L76.2762 81.0814
" />
<path d="M76.2762 81.0814
L76.2952 81.1005
" />
<path d="M76.2952 81.1005
L76.3143 81.1386
" />
<path d="M76.3143 81.1386
L76.3143 81.1957
" />
<path d="M76.3143 81.1957
L76.2952 81.2338
" />
<path d="M76.2952 81.2338
L76.2762 81.2529
" />
<path d="M76.2762 81.2529
L76.2381 81.2719
" />
<path d="M76.2381 81.2719
L76.0857 81.2719
" />
<path d="M76.5619 81.0624
L76.6381 81.0624
" />
<path d="M76.6381 81.0624
L76.6762 81.0814
" />
<path d="M76.6762 81.0814
L76.7143 81.1195
" />
<path d="M76.7143 81.1195
L76.7333 81.1957
" />
<path d="M76.7333 81.1957
L76.7333 81.3291
" />
<path d="M76.7333 81.3291
L76.7143 81.4053
" />
<path d="M76.7143 81.4053
L76.6762 81.4433
" />
<path d="M76.6762 81.4433
L76.6381 81.4624
" />
<path d="M76.6381 81.4624
L76.5619 81.4624
" />
<path d="M76.5619 81.4624
L76.5238 81.4433
" />
<path d="M76.5238 81.4433
L76.4857 81.4053
" />
<path d="M76.4857 81.4053
L76.4667 81.3291
" />
<path d="M76.4667 81.3291
L76.4667 81.1957
" />
<path d="M76.4667 81.1957
L76.4857 81.1195
" />
<path d="M76.4857 81.1195
L76.5238 81.0814
" />
<path d="M76.5238 81.0814
L76.5619 81.0624
" />
<path d="M76.9048 81.0624
L76.9048 81.3862
" />
<path d="M76.9048 81.3862
L76.9238 81.4243
" />
<path d="M76.9238 81.4243
L76.9429 81.4433
" />
<path d="M76.9429 81.4433
L76.9810 81.4624
" />
<path d="M76.9810 81.4624
L77.0571 81.4624
" />
<path d="M77.0571 81.4624
L77.0952 81.4433
" />
<path d="M77.0952 81.4433
L77.1143 81.4243
" />
<path d="M77.1143 81.4243
L77.1333 81.3862
" />
<path d="M77.1333 81.3862
L77.1333 81.0624
" />
<path d="M77.2667 81.0624
L77.4952 81.0624
" />
<path d="M77.3810 81.4624
L77.3810 81.0624
" />
</g><text x="35.5600" y="122.1200"
textLength="2.7397" font-size="0.5333" lengthAdjust="spacingAndGlyphs"
text-anchor="middle" opacity="0">KEEPOUT</text>
<g class="stroked-text"><desc>KEEPOUT</desc>
<path d="M34.3219 122.1024
L34.3219 121.7024
" />
<path d="M34.5505 122.1024
L34.3790 121.8738
" />
<path d="M34.5505 121.7024
L34.3219 121.9310
" />
<path d="M34.7219 121.8929
L34.8552 121.8929
" />
<path d="M34.9124 122.1024
L34.7219 122.1024
" />
<path d="M34.7219 122.1024
L34.7219 121.7024
" />
<path d="M34.7219 121.7024
L34.9124 121.7024
" />
<path d="M35.0838 121.8929
L35.2171 121.8929
" />
<path d="M35.2743 122.1024
L35.0838 122.1024
" />
<path d="M35.0838 122.1024
L35.0838 121.7024
" />
<path d="M35.0838 121.7024
L35.2743 121.7024
" />
<path d="M35.4457 122.1024
L35.4457 121.7024
" />
<path d="M35.4457 121.7024
L35.5981 121.7024
" />
<path d="M35.5981 121.7024
L35.6362 121.7214
" />
<path d="M35.6362 121.7214
L35.6552 121.7405
" />
<path d="M35.6552 121.7405
L35.6743 121.7786
" />
<path d="M35.6743 121.7786
L35.6743 121.8357
" />
<path d="M35.6743 121.8357
L35.6552 121.8738
" />
<path d="M35.6552 121.8738
L35.6362 121.8929
" />
<path d="M35.6362 121.8929
L35.5981 121.9119
" />
<path d="M35.5981 121.9119
L35.4457 121.9119
" />
<path d="M35.9219 121.7024
L35.9981 121.7024
" />
<path d="M35.9981 121.7024
L36.0362 121.7214
" />
<path d="M36.0362 121.7214
L36.0743 121.7595
" />
<path d="M36.0743 121.7595
L36.0933 121.8357
" />
<path d="M36.0933 121.8357
L36.0933 121.9691
" />
<path d="M36.0933 121.9691
L36.0743 122.0453
" />
<path d="M36.0743 122.0453
L36.0362 122.0833
" />
<path d="M36.0362 122.0833
L35.9981 122.1024
" />
<path d="M35.9981 122.1024
L35.9219 122.1024
" />
<path d="M35.9219 122.1024
L35.8838 122.0833
" />
<path d="M35.8838 122.0833
L35.8457 122.0453
" />
<path d="M35.8457 122.0453
L35.8267 121.9691
" />
<path d="M35.8267 121.9691
L35.8267 121.8357
" />
<path d="M35.8267 121.8357
L35.8457 121.7595
" />
<path d="M35.8457 121.7595
L35.8838 121.7214
" />
<path d="M35.8838 121.7214
L35.9219 121.7024
" />
<path d="M36.2648 121.7024
L36.2648 122.0262
" />
<path d="M36.2648 122.0262
L36.2838 122.0643
" />
<path d="M36.2838 122.0643
L36.3029 122.0833
" />
<path d="M36.3029 122.0833
L36.3410 122.1024
" />
<path d="M36.3410 122.1024
L36.4171 122.1024
" />
<path d="M36.4171 122.1024
L36.4552 122.0833
" />
<path d="M36.4552 122.0833
L36.4743 122.0643
" />
<path d="M36.4743 122.0643
L36.4933 122.0262
" />
<path d="M36.4933 122.0262
L36.4933 121.7024
" />
<path d="M36.6267 121.7024
L36.8552 121.7024
" />
<path d="M36.7410 122.1024
L36.7410 121.7024
" />
</g><g transform="rotate(-90.000000 35.5600 101.6000)">
<text x="35.5600" y="101.8000"
textLength="2.7397" font-size="0.5333" lengthAdjust="spacingAndGlyphs"
text-anchor="middle" opacity="0">KEEPOUT</text>
</g>
<g class="stroked-text"><desc>KEEPOUT</desc>
<path d="M35.7424 102.8381
L35.3424 102.8381
" />
<path d="M35.7424 102.6095
L35.5138 102.7810
" />
<path d="M35.3424 102.6095
L35.5710 102.8381
" />
<path d="M35.5329 102.4381
L35.5329 102.3048
" />
<path d="M35.7424 102.2476
L35.7424 102.4381
" />
<path d="M35.7424 102.4381
L35.3424 102.4381
" />
<path d="M35.3424 102.4381
L35.3424 102.2476
" />
<path d="M35.5329 102.0762
L35.5329 101.9429
" />
<path d="M35.7424 101.8857
L35.7424 102.0762
" />
<path d="M35.7424 102.0762
L35.3424 102.0762
" />
<path d="M35.3424 102.0762
L35.3424 101.8857
" />
<path d="M35.7424 101.7143
L35.3424 101.7143
" />
<path d="M35.3424 101.7143
L35.3424 101.5619
" />
<path d="M35.3424 101.5619
L35.3614 101.5238
" />
<path d="M35.3614 101.5238
L35.3805 101.5048
" />
<path d="M35.3805 101.5048
L35.4186 101.4857
" />
<path d="M35.4186 101.4857
L35.4757 101.4857
" />
<path d="M35.4757 101.4857
L35.5138 101.5048
" />
<path d="M35.5138 101.5048
L35.5329 101.5238
" />
<path d="M35.5329 101.5238
L35.5519 101.5619
" />
<path d="M35.5519 101.5619
L35.5519 101.7143
" />
<path d="M35.3424 101.2381
L35.3424 101.1619
" />
<path d="M35.3424 101.1619
L35.3614 101.1238
" />
<path d="M35.3614 101.1238
L35.3995 101.0857
" />
<path d="M35.3995 101.0857
L35.4757 101.0667
" />
<path d="M35.4757 101.0667
L35.6091 101.0667
" />
<path d="M35.6091 101.0667
L35.6853 101.0857
" />
<path d="M35.6853 101.0857
L35.7233 101.1238
" />
<path d="M35.7233 101.1238
L35.7424 101.1619
" />
<path d="M35.7424 101.1619
L35.7424 101.2381
" />
<path d="M35.7424 101.2381
L35.7233 101.2762
" />
<path d="M35.7233 101.2762
L35.6853 101.3143
" />
<path d="M35.6853 101.3143
L35.6091 101.3333
" />
<path d="M35.6091 101.3333
L35.4757 101.3333
" />
<path d="M35.4757 101.3333
L35.3995 101.3143
" />
<path d="M35.3995 101.3143
L35.3614 101.2762
" />
<path d="M35.3614 101.2762
L35.3424 101.2381
" />
<path d="M35.3424 100.8952
L35.6662 100.8952
" />
<path d="M35.6662 100.8952
L35.7043 100.8762
" />
<path d="M35.7043 100.8762
L35.7233 100.8571
" />
<path d="M35.7233 100.8571
L35.7424 100.8190
" />
<path d="M35.7424 100.8190
L35.7424 100.7429
" />
<path d="M35.7424 100.7429
L35.7233 100.7048
" />
<path d="M35.7233 100.7048
L35.7043 100.6857
" />
<path d="M35.7043 100.6857
L35.6662 100.6667
" />
<path d="M35.6662 100.6667
L35.3424 100.6667
" />
<path d="M35.3424 100.5333
L35.3424 100.3048
" />
<path d="M35.7424 100.4190
L35.3424 100.4190
" />
</g><text x="76.2000" y="61.1600"
textLength="2.7397" font-size="0.5333" lengthAdjust="spacingAndGlyphs"
text-anchor="middle" opacity="0">KEEPOUT</text>
<g class="stroked-text"><desc>KEEPOUT</desc>
<path d="M74.9619 61.1424
L74.9619 60.7424
" />
<path d="M75.1905 61.1424
L75.0190 60.9138
" />
<path d="M75.1905 60.7424
L74.9619 60.9710
" />
<path d="M75.3619 60.9329
L75.4952 60.9329
" />
<path d="M75.5524 61.1424
L75.3619 61.1424
" />
<path d="M75.3619 61.1424
L75.3619 60.7424
" />
<path d="M75.3619 60.7424
L75.5524 60.7424
" />
<path d="M75.7238 60.9329
L75.8571 60.9329
" />
<path d="M75.9143 61.1424
L75.7238 61.1424
" />
<path d="M75.7238 61.1424
L75.7238 60.7424
" />
<path d="M75.7238 60.7424
L75.9143 60.7424
" />
<path d="M76.0857 61.1424
L76.0857 60.7424
" />
<path d="M76.0857 60.7424
L76.2381 60.7424
" />
<path d="M76.2381 60.7424
L76.2762 60.7614
" />
<path d="M76.2762 60.7614
L76.2952 60.7805
" />
<path d="M76.2952 60.7805
L76.3143 60.8186
" />
<path d="M76.3143 60.8186
L76.3143 60.8757
" />
<path d="M76.3143 60.8757
L76.2952 60.9138
" />
<path d="M76.2952 60.9138
L76.2762 60.9329
" />
<path d="M76.2762 60.9329
L76.2381 60.9519
" />
<path d="M76.2381 60.9519
L76.0857 60.9519
" />
<path d="M76.5619 60.7424
L76.6381 60.7424
" />
<path d="M76.6381 60.7424
L76.6762 60.7614
" />
<path d="M76.6762 60.7614
L76.7143 60.7995
" />
<path d="M76.7143 60.7995
L76.7333 60.8757
" />
<path d="M76.7333 60.8757
L76.7333 61.0091
" />
<path d="M76.7333 61.0091
L76.7143 61.0853
" />
<path d="M76.7143 61.0853
L76.6762 61.1233
" />
<path d="M76.6762 61.1233
L76.6381 61.1424
" />
<path d="M76.6381 61.1424
L76.5619 61.1424
" />
<path d="M76.5619 61.1424
L76.5238 61.1233
" />
<path d="M76.5238 61.1233
L76.4857 61.0853
" />
<path d="M76.4857 61.0853
L76.4667 61.0091
" />
<path d="M76.4667 61.0091
L76.4667 60.8757
" />
<path d="M76.4667 60.8757
L76.4857 60.7995
" />
<path d="M76.4857 60.7995
L76.5238 60.7614
" />
<path d="M76.5238 60.7614
L76.5619 60.7424
" />
<path d="M76.9048 60.7424
L76.9048 61.0662
" />
<path d="M76.9048 61.0662
L76.9238 61.1043
" />
<path d="M76.9238 61.1043
L76.9429 61.1233
" />
<path d="M76.9429 61.1233
L76.9810 61.1424
" />
<path d="M76.9810 61.1424
L77.0571 61.1424
" />
<path d="M77.0571 61.1424
L77.0952 61.1233
" />
<path d="M77.0952 61.1233
L77.1143 61.1043
" />
<path d="M77.1143 61.1043
L77.1333 61.0662
" />
<path d="M77.1333 61.0662
L77.1333 60.7424
" />
<path d="M77.2667 60.7424
L77.4952 60.7424
" />
<path d="M77.3810 61.1424
L77.3810 60.7424
" />
</g><text x="55.8800" y="61.1600"
textLength="2.7397" font-size="0.5333" lengthAdjust="spacingAndGlyphs"
text-anchor="middle" opacity="0">KEEPOUT</text>
<g class="stroked-text"><desc>KEEPOUT</desc>
<path d="M54.6419 61.1424
L54.6419 60.7424
" />
<path d="M54.8705 61.1424
L54.6990 60.9138
" />
<path d="M54.8705 60.7424
L54.6419 60.9710
" />
<path d="M55.0419 60.9329
L55.1752 60.9329
" />
<path d="M55.2324 61.1424
L55.0419 61.1424
" />
<path d="M55.0419 61.1424
L55.0419 60.7424
" />
<path d="M55.0419 60.7424
L55.2324 60.7424
" />
<path d="M55.4038 60.9329
L55.5371 60.9329
" />
<path d="M55.5943 61.1424
L55.4038 61.1424
" />
<path d="M55.4038 61.1424
L55.4038 60.7424
" />
<path d="M55.4038 60.7424
L55.5943 60.7424
" />
<path d="M55.7657 61.1424
L55.7657 60.7424
" />
<path d="M55.7657 60.7424
L55.9181 60.7424
" />
<path d="M55.9181 60.7424
L55.9562 60.7614
" />
<path d="M55.9562 60.7614
L55.9752 60.7805
" />
<path d="M55.9752 60.7805
L55.9943 60.8186
" />
<path d="M55.9943 60.8186
L55.9943 60.8757
" />
<path d="M55.9943 60.8757
L55.9752 60.9138
" />
<path d="M55.9752 60.9138
L55.9562 60.9329
" />
<path d="M55.9562 60.9329
L55.9181 60.9519
" />
<path d="M55.9181 60.9519
L55.7657 60.9519
" />
<path d="M56.2419 60.7424
L56.3181 60.7424
" />
<path d="M56.3181 60.7424
L56.3562 60.7614
" />
<path d="M56.3562 60.7614
L56.3943 60.7995
" />
<path d="M56.3943 60.7995
L56.4133 60.8757
" />
<path d="M56.4133 60.8757
L56.4133 61.0091
" />
<path d="M56.4133 61.0091
L56.3943 61.0853
" />
<path d="M56.3943 61.0853
L56.3562 61.1233
" />
<path d="M56.3562 61.1233
L56.3181 61.1424
" />
<path d="M56.3181 61.1424
L56.2419 61.1424
" />
<path d="M56.2419 61.1424
L56.2038 61.1233
" />
<path d="M56.2038 61.1233
L56.1657 61.0853
" />
<path d="M56.1657 61.0853
L56.1467 61.0091
" />
<path d="M56.1467 61.0091
L56.1467 60.8757
" />
<path d="M56.1467 60.8757
L56.1657 60.7995
" />
<path d="M56.1657 60.7995
L56.2038 60.7614
" />
<path d="M56.2038 60.7614
L56.2419 60.7424
" />
<path d="M56.5848 60.7424
L56.5848 61.0662
" />
<path d="M56.5848 61.0662
L56.6038 61.1043
" />
<path d="M56.6038 61.1043
L56.6229 61.1233
" />
<path d="M56.6229 61.1233
L56.6610 61.1424
" />
<path d="M56.6610 61.1424
L56.7371 61.1424
" />
<path d="M56.7371 61.1424
L56.7752 61.1233
" />
<path d="M56.7752 61.1233
L56.7943 61.1043
" />
<path d="M56.7943 61.1043
L56.8133 61.0662
" />
<path d="M56.8133 61.0662
L56.8133 60.7424
" />
<path d="M56.9467 60.7424
L57.1752 60.7424
" />
<path d="M57.0610 61.1424
L57.0610 60.7424
" />
</g><text x="50.8000" y="81.4800"
textLength="2.7397" font-size="0.5333" lengthAdjust="spacingAndGlyphs"
text-anchor="middle" opacity="0">KEEPOUT</text>
<g class="stroked-text"><desc>KEEPOUT</desc>
<path d="M49.5619 81.4624
L49.5619 81.0624
" />
<path d="M49.7905 81.4624
L49.6190 81.2338
" />
<path d="M49.7905 81.0624
L49.5619 81.2910
" />
<path d="M49.9619 81.2529
L50.0952 81.2529
" />
<path d="M50.1524 81.4624
L49.9619 81.4624
" />
<path d="M49.9619 81.4624
L49.9619 81.0624
" />
<path d="M49.9619 81.0624
L50.1524 81.0624
" />
<path d="M50.3238 81.2529
L50.4571 81.2529
" />
<path d="M50.5143 81.4624
L50.3238 81.4624
" />
<path d="M50.3238 81.4624
L50.3238 81.0624
" />
<path d="M50.3238 81.0624
L50.5143 81.0624
" />
<path d="M50.6857 81.4624
L50.6857 81.0624
" />
<path d="M50.6857 81.0624
L50.8381 81.0624
" />
<path d="M50.8381 81.0624
L50.8762 81.0814
" />
<path d="M50.8762 81.0814
L50.8952 81.1005
" />
<path d="M50.8952 81.1005
L50.9143 81.1386
" />
<path d="M50.9143 81.1386
L50.9143 81.1957
" />
<path d="M50.9143 81.1957
L50.8952 81.2338
" />
<path d="M50.8952 81.2338
L50.8762 81.2529
" />
<path d="M50.8762 81.2529
L50.8381 81.2719
" />
<path d="M50.8381 81.2719
L50.6857 81.2719
" />
<path d="M51.1619 81.0624
L51.2381 81.0624
" />
<path d="M51.2381 81.0624
L51.2762 81.0814
" />
<path d="M51.2762 81.0814
L51.3143 81.1195
" />
<path d="M51.3143 81.1195
L51.3333 81.1957
" />
<path d="M51.3333 81.1957
L51.3333 81.3291
" />
<path d="M51.3333 81.3291
L51.3143 81.4053
" />
<path d="M51.3143 81.4053
L51.2762 81.4433
" />
<path d="M51.2762 81.4433
L51.2381 81.4624
" />
<path d="M51.2381 81.4624
L51.1619 81.4624
" />
<path d="M51.1619 81.4624
L51.1238 81.4433
" />
<path d="M51.1238 81.4433
L51.0857 81.4053
" />
<path d="M51.0857 81.4053
L51.0667 81.3291
" />
<path d="M51.0667 81.3291
L51.0667 81.1957
" />
<path d="M51.0667 81.1957
L51.0857 81.1195
" />
<path d="M51.0857 81.1195
L51.1238 81.0814
" />
<path d="M51.1238 81.0814
L51.1619 81.0624
" />
<path d="M51.5048 81.0624
L51.5048 81.3862
" />
<path d="M51.5048 81.3862
L51.5238 81.4243
" />
<path d="M51.5238 81.4243
L51.5429 81.4433
" />
<path d="M51.5429 81.4433
L51.5810 81.4624
" />
<path d="M51.5810 81.4624
L51.6571 81.4624
" />
<path d="M51.6571 81.4624
L51.6952 81.4433
" />
<path d="M51.6952 81.4433
L51.7143 81.4243
" />
<path d="M51.7143 81.4243
L51.7333 81.3862
" />
<path d="M51.7333 81.3862
L51.7333 81.0624
" />
<path d="M51.8667 81.0624
L52.0952 81.0624
" />
<path d="M51.9810 81.4624
L51.9810 81.0624
" />
</g><text x="60.9600" y="81.4800"
textLength="2.7397" font-size="0.5333" lengthAdjust="spacingAndGlyphs"
text-anchor="middle" opacity="0">KEEPOUT</text>
<g class="stroked-text"><desc>KEEPOUT</desc>
<path d="M59.7219 81.4624
L59.7219 81.0624
" />
<path d="M59.9505 81.4624
L59.7790 81.2338
" />
<path d="M59.9505 81.0624
L59.7219 81.2910
" />
<path d="M60.1219 81.2529
L60.2552 81.2529
" />
<path d="M60.3124 81.4624
L60.1219 81.4624
" />
<path d="M60.1219 81.4624
L60.1219 81.0624
" />
<path d="M60.1219 81.0624
L60.3124 81.0624
" />
<path d="M60.4838 81.2529
L60.6171 81.2529
" />
<path d="M60.6743 81.4624
L60.4838 81.4624
" />
<path d="M60.4838 81.4624
L60.4838 81.0624
" />
<path d="M60.4838 81.0624
L60.6743 81.0624
" />
<path d="M60.8457 81.4624
L60.8457 81.0624
" />
<path d="M60.8457 81.0624
L60.9981 81.0624
" />
<path d="M60.9981 81.0624
L61.0362 81.0814
" />
<path d="M61.0362 81.0814
L61.0552 81.1005
" />
<path d="M61.0552 81.1005
L61.0743 81.1386
" />
<path d="M61.0743 81.1386
L61.0743 81.1957
" />
<path d="M61.0743 81.1957
L61.0552 81.2338
" />
<path d="M61.0552 81.2338
L61.0362 81.2529
" />
<path d="M61.0362 81.2529
L60.9981 81.2719
" />
<path d="M60.9981 81.2719
L60.8457 81.2719
" />
<path d="M61.3219 81.0624
L61.3981 81.0624
" />
<path d="M61.3981 81.0624
L61.4362 81.0814
" />
<path d="M61.4362 81.0814
L61.4743 81.1195
" />
<path d="M61.4743 81.1195
L61.4933 81.1957
" />
<path d="M61.4933 81.1957
L61.4933 81.3291
" />
<path d="M61.4933 81.3291
L61.4743 81.4053
" />
<path d="M61.4743 81.4053
L61.4362 81.4433
" />
<path d="M61.4362 81.4433
L61.3981 81.4624
" />
<path d="M61.3981 81.4624
L61.3219 81.4624
" />
<path d="M61.3219 81.4624
L61.2838 81.4433
" />
<path d="M61.2838 81.4433
L61.2457 81.4053
" />
<path d="M61.2457 81.4053
L61.2267 81.3291
" />
<path d="M61.2267 81.3291
L61.2267 81.1957
" />
<path d="M61.2267 81.1957
L61.2457 81.1195
" />
<path d="M61.2457 81.1195
L61.2838 81.0814
" />
<path d="M61.2838 81.0814
L61.3219 81.0624
" />
<path d="M61.6648 81.0624
L61.6648 81.3862
" />
<path d="M61.6648 81.3862
L61.6838 81.4243
" />
<path d="M61.6838 81.4243
L61.7029 81.4433
" />
<path d="M61.7029 81.4433
L61.7410 81.4624
" />
<path d="M61.7410 81.4624
L61.8171 81.4624
" />
<path d="M61.8171 81.4624
L61.8552 81.4433
" />
<path d="M61.8552 81.4433
L61.8743 81.4243
" />
<path d="M61.8743 81.4243
L61.8933 81.3862
" />
<path d="M61.8933 81.3862
L61.8933 81.0624
" />
<path d="M62.0267 81.0624
L62.2552 81.0624
" />
<path d="M62.1410 81.4624
L62.1410 81.0624
" />
</g><text x="55.8800" y="101.8000"
textLength="2.7397" font-size="0.5333" lengthAdjust="spacingAndGlyphs"
text-anchor="middle" opacity="0">KEEPOUT</text>
<g class="stroked-text"><desc>KEEPOUT</desc>
<path d="M54.6419 101.7824
L54.6419 101.3824
" />
<path d="M54.8705 101.7824
L54.6990 101.5538
" />
<path d="M54.8705 101.3824
L54.6419 101.6110
" />
<path d="M55.0419 101.5729
L55.1752 101.5729
" />
<path d="M55.2324 101.7824
L55.0419 101.7824
" />
<path d="M55.0419 101.7824
L55.0419 101.3824
" />
<path d="M55.0419 101.3824
L55.2324 101.3824
" />
<path d="M55.4038 101.5729
L55.5371 101.5729
" />
<path d="M55.5943 101.7824
L55.4038 101.7824
" />
<path d="M55.4038 101.7824
L55.4038 101.3824
" />
<path d="M55.4038 101.3824
L55.5943 101.3824
" />
<path d="M55.7657 101.7824
L55.7657 101.3824
" />
<path d="M55.7657 101.3824
L55.9181 101.3824
" />
<path d="M55.9181 101.3824
L55.9562 101.4014
" />
<path d="M55.9562 101.4014
L55.9752 101.4205
" />
<path d="M55.9752 101.4205
L55.9943 101.4586
" />
<path d="M55.9943 101.4586
L55.9943 101.5157
" />
<path d="M55.9943 101.5157
L55.9752 101.5538
" />
<path d="M55.9752 101.5538
L55.9562 101.5729
" />
<path d="M55.9562 101.5729
L55.9181 101.5919
" />
<path d="M55.9181 101.5919
L55.7657 101.5919
" />
<path d="M56.2419 101.3824
L56.3181 101.3824
" />
<path d="M56.3181 101.3824
L56.3562 101.4014
" />
<path d="M56.3562 101.4014
L56.3943 101.4395
" />
<path d="M56.3943 101.4395
L56.4133 101.5157
" />
<path d="M56.4133 101.5157
L56.4133 101.6491
" />
<path d="M56.4133 101.6491
L56.3943 101.7253
" />
<path d="M56.3943 101.7253
L56.3562 101.7633
" />
<path d="M56.3562 101.7633
L56.3181 101.7824
" />
<path d="M56.3181 101.7824
L56.2419 101.7824
" />
<path d="M56.2419 101.7824
L56.2038 101.7633
" />
<path d="M56.2038 101.7633
L56.1657 101.7253
" />
<path d="M56.1657 101.7253
L56.1467 101.6491
" />
<path d="M56.1467 101.6491
L56.1467 101.5157
" />
<path d="M56.1467 101.5157
L56.1657 101.4395
" />
<path d="M56.1657 101.4395
L56.2038 101.4014
" />
<path d="M56.2038 101.4014
L56.2419 101.3824
" />
<path d="M56.5848 101.3824
L56.5848 101.7062
" />
<path d="M56.5848 101.7062
L56.6038 101.7443
" />
<path d="M56.6038 101.7443
L56.6229 101.7633
" />
<path d="M56.6229 101.7633
L56.6610 101.7824
" />
<path d="M56.6610 101.7824
L56.7371 101.7824
" />
<path d="M56.7371 101.7824
L56.7752 101.7633
" />
<path d="M56.7752 101.7633
L56.7943 101.7443
" />
<path d="M56.7943 101.7443
L56.8133 101.7062
" />
<path d="M56.8133 101.7062
L56.8133 101.3824
" />
<path d="M56.9467 101.3824
L57.1752 101.3824
" />
<path d="M57.0610 101.7824
L57.0610 101.3824
" />
</g><text x="76.2000" y="101.8000"
textLength="2.7397" font-size="0.5333" lengthAdjust="spacingAndGlyphs"
text-anchor="middle" opacity="0">KEEPOUT</text>
<g class="stroked-text"><desc>KEEPOUT</desc>
<path d="M74.9619 101.7824
L74.9619 101.3824
" />
<path d="M75.1905 101.7824
L75.0190 101.5538
" />
<path d="M75.1905 101.3824
L74.9619 101.6110
" />
<path d="M75.3619 101.5729
L75.4952 101.5729
" />
<path d="M75.5524 101.7824
L75.3619 101.7824
" />
<path d="M75.3619 101.7824
L75.3619 101.3824
" />
<path d="M75.3619 101.3824
L75.5524 101.3824
" />
<path d="M75.7238 101.5729
L75.8571 101.5729
" />
<path d="M75.9143 101.7824
L75.7238 101.7824
" />
<path d="M75.7238 101.7824
L75.7238 101.3824
" />
<path d="M75.7238 101.3824
L75.9143 101.3824
" />
<path d="M76.0857 101.7824
L76.0857 101.3824
" />
<path d="M76.0857 101.3824
L76.2381 101.3824
" />
<path d="M76.2381 101.3824
L76.2762 101.4014
" />
<path d="M76.2762 101.4014
L76.2952 101.4205
" />
<path d="M76.2952 101.4205
L76.3143 101.4586
" />
<path d="M76.3143 101.4586
L76.3143 101.5157
" />
<path d="M76.3143 101.5157
L76.2952 101.5538
" />
<path d="M76.2952 101.5538
L76.2762 101.5729
" />
<path d="M76.2762 101.5729
L76.2381 101.5919
" />
<path d="M76.2381 101.5919
L76.0857 101.5919
" />
<path d="M76.5619 101.3824
L76.6381 101.3824
" />
<path d="M76.6381 101.3824
L76.6762 101.4014
" />
<path d="M76.6762 101.4014
L76.7143 101.4395
" />
<path d="M76.7143 101.4395
L76.7333 101.5157
" />
<path d="M76.7333 101.5157
L76.7333 101.6491
" />
<path d="M76.7333 101.6491
L76.7143 101.7253
" />
<path d="M76.7143 101.7253
L76.6762 101.7633
" />
<path d="M76.6762 101.7633
L76.6381 101.7824
" />
<path d="M76.6381 101.7824
L76.5619 101.7824
" />
<path d="M76.5619 101.7824
L76.5238 101.7633
" />
<path d="M76.5238 101.7633
L76.4857 101.7253
" />
<path d="M76.4857 101.7253
L76.4667 101.6491
" />
<path d="M76.4667 101.6491
L76.4667 101.5157
" />
<path d="M76.4667 101.5157
L76.4857 101.4395
" />
<path d="M76.4857 101.4395
L76.5238 101.4014
" />
<path d="M76.5238 101.4014
L76.5619 101.3824
" />
<path d="M76.9048 101.3824
L76.9048 101.7062
" />
<path d="M76.9048 101.7062
L76.9238 101.7443
" />
<path d="M76.9238 101.7443
L76.9429 101.7633
" />
<path d="M76.9429 101.7633
L76.9810 101.7824
" />
<path d="M76.9810 101.7824
L77.0571 101.7824
" />
<path d="M77.0571 101.7824
L77.0952 101.7633
" />
<path d="M77.0952 101.7633
L77.1143 101.7443
" />
<path d="M77.1143 101.7443
L77.1333 101.7062
" />
<path d="M77.1333 101.7062
L77.1333 101.3824
" />
<path d="M77.2667 101.3824
L77.4952 101.3824
" />
<path d="M77.3810 101.7824
L77.3810 101.3824
" />
</g></g>
<g style="fill:#000000; fill-opacity:0.0; 
stroke:#000000; stroke-width:0.1500; stroke-opacity:1; 
stroke-linecap:round; stroke-linejoin:round;">
<circle cx="27.9400" cy="27.9400" r="2.2000" /> 
<circle cx="83.4600" cy="134.6200" r="2.2000" /> 
<circle cx="83.4600" cy="27.9400" r="2.2000" /> 
<circle cx="27.9400" cy="134.6200" r="2.2000" /> 
<g >
</g>
<g >
</g>
<g >
</g>
<g >
</g>
<g >
</g>
<g >
</g>
<g >
</g>
<g >
</g>
<g >
</g>
<g >
</g>
<g >
</g>
<g >
</g>
<g >
</g>
<g >
</g>
<g >
</g>
<g >
</g>
<g >
</g>
<g >
</g>
<g >
</g>
<g >
</g>
<g >
</g>
<g >
</g>
<g >
</g>
<g >
</g>
<g >
</g>
<g >
</g>
<g >
</g>
<g >
</g>
<g >
</g>
</g> 
</svg>
