<?xml version="1.0" standalone="no"?>
 <!DOCTYPE svg PUBLIC "-//W3C//DTD SVG 1.1//EN" 
 "http://www.w3.org/Graphics/SVG/1.1/DTD/svg11.dtd"> 
<svg
  xmlns:svg="http://www.w3.org/2000/svg"
  xmlns="http://www.w3.org/2000/svg"
  xmlns:xlink="http://www.w3.org/1999/xlink"
  version="1.1"
  width="297.0022mm" height="210.0072mm" viewBox="0.0000 0.0000 297.0022 210.0072">
<title>SVG Image created as panel-mask.svg date 2023/11/04 16:15:59 </title>
  <desc>Image generated by PCBNEW </desc>
<g style="fill:#000000; fill-opacity:1.0000;stroke:#000000; stroke-opacity:1.0000;
stroke-linecap:round; stroke-linejoin:round;"
 transform="translate(0 0) scale(1 1)">
</g>
<g style="fill:#000000; fill-opacity:0.0; 
stroke:#000000; stroke-width:0.0000; stroke-opacity:1; 
stroke-linecap:round; stroke-linejoin:round;">
</g>
<g style="fill:#000000; fill-opacity:0.0; 
stroke:#000000; stroke-width:0.3500; stroke-opacity:1; 
stroke-linecap:round; stroke-linejoin:round;">
<text x="74.2950" y="55.3000"
textLength="8.5929" font-size="4.0000" lengthAdjust="spacingAndGlyphs"
text-anchor="middle" opacity="0">cp3</text>
<g class="stroked-text"><desc>cp3</desc>
<path d="M72.2236 55.0268
L71.9379 55.1697
" />
<path d="M71.9379 55.1697
L71.3664 55.1697
" />
<path d="M71.3664 55.1697
L71.0807 55.0268
" />
<path d="M71.0807 55.0268
L70.9379 54.8839
" />
<path d="M70.9379 54.8839
L70.7950 54.5982
" />
<path d="M70.7950 54.5982
L70.7950 53.7411
" />
<path d="M70.7950 53.7411
L70.9379 53.4554
" />
<path d="M70.9379 53.4554
L71.0807 53.3125
" />
<path d="M71.0807 53.3125
L71.3664 53.1697
" />
<path d="M71.3664 53.1697
L71.9379 53.1697
" />
<path d="M71.9379 53.1697
L72.2236 53.3125
" />
<path d="M73.5093 53.1697
L73.5093 56.1697
" />
<path d="M73.5093 53.3125
L73.7950 53.1697
" />
<path d="M73.7950 53.1697
L74.3664 53.1697
" />
<path d="M74.3664 53.1697
L74.6521 53.3125
" />
<path d="M74.6521 53.3125
L74.7950 53.4554
" />
<path d="M74.7950 53.4554
L74.9379 53.7411
" />
<path d="M74.9379 53.7411
L74.9379 54.5982
" />
<path d="M74.9379 54.5982
L74.7950 54.8839
" />
<path d="M74.7950 54.8839
L74.6521 55.0268
" />
<path d="M74.6521 55.0268
L74.3664 55.1697
" />
<path d="M74.3664 55.1697
L73.7950 55.1697
" />
<path d="M73.7950 55.1697
L73.5093 55.0268
" />
<path d="M75.9379 52.1697
L77.7950 52.1697
" />
<path d="M77.7950 52.1697
L76.7950 53.3125
" />
<path d="M76.7950 53.3125
L77.2236 53.3125
" />
<path d="M77.2236 53.3125
L77.5093 53.4554
" />
<path d="M77.5093 53.4554
L77.6521 53.5982
" />
<path d="M77.6521 53.5982
L77.7950 53.8839
" />
<path d="M77.7950 53.8839
L77.7950 54.5982
" />
<path d="M77.7950 54.5982
L77.6521 54.8839
" />
<path d="M77.6521 54.8839
L77.5093 55.0268
" />
<path d="M77.5093 55.0268
L77.2236 55.1697
" />
<path d="M77.2236 55.1697
L76.3664 55.1697
" />
<path d="M76.3664 55.1697
L76.0807 55.0268
" />
<path d="M76.0807 55.0268
L75.9379 54.8839
" />
</g></g>
<g style="fill:#000000; fill-opacity:0.0; 
stroke:#000000; stroke-width:0.2500; stroke-opacity:1; 
stroke-linecap:round; stroke-linejoin:round;">
<text x="59.9440" y="147.3200"
textLength="2.4033" font-size="1.8667" lengthAdjust="spacingAndGlyphs"
text-anchor="start" opacity="0">in</text>
<g class="stroked-text"><desc>in</desc>
<path d="M60.4418 147.0622
L60.4418 145.7289
" />
<path d="M60.4418 145.0622
L60.3751 145.1575
" />
<path d="M60.3751 145.1575
L60.4418 145.2527
" />
<path d="M60.4418 145.2527
L60.5085 145.1575
" />
<path d="M60.5085 145.1575
L60.4418 145.0622
" />
<path d="M60.4418 145.0622
L60.4418 145.2527
" />
<path d="M61.1085 145.7289
L61.1085 147.0622
" />
<path d="M61.1085 145.9194
L61.1751 145.8241
" />
<path d="M61.1751 145.8241
L61.3085 145.7289
" />
<path d="M61.3085 145.7289
L61.5085 145.7289
" />
<path d="M61.5085 145.7289
L61.6418 145.8241
" />
<path d="M61.6418 145.8241
L61.7085 146.0146
" />
<path d="M61.7085 146.0146
L61.7085 147.0622
" />
</g><text x="59.9440" y="106.6800"
textLength="2.4033" font-size="1.8667" lengthAdjust="spacingAndGlyphs"
text-anchor="start" opacity="0">in</text>
<g class="stroked-text"><desc>in</desc>
<path d="M60.4418 106.4222
L60.4418 105.0889
" />
<path d="M60.4418 104.4222
L60.3751 104.5175
" />
<path d="M60.3751 104.5175
L60.4418 104.6127
" />
<path d="M60.4418 104.6127
L60.5085 104.5175
" />
<path d="M60.5085 104.5175
L60.4418 104.4222
" />
<path d="M60.4418 104.4222
L60.4418 104.6127
" />
<path d="M61.1085 105.0889
L61.1085 106.4222
" />
<path d="M61.1085 105.2794
L61.1751 105.1841
" />
<path d="M61.1751 105.1841
L61.3085 105.0889
" />
<path d="M61.3085 105.0889
L61.5085 105.0889
" />
<path d="M61.5085 105.0889
L61.6418 105.1841
" />
<path d="M61.6418 105.1841
L61.7085 105.3746
" />
<path d="M61.7085 105.3746
L61.7085 106.4222
" />
</g><text x="59.9440" y="127.0000"
textLength="2.4033" font-size="1.8667" lengthAdjust="spacingAndGlyphs"
text-anchor="start" opacity="0">in</text>
<g class="stroked-text"><desc>in</desc>
<path d="M60.4418 126.7422
L60.4418 125.4089
" />
<path d="M60.4418 124.7422
L60.3751 124.8375
" />
<path d="M60.3751 124.8375
L60.4418 124.9327
" />
<path d="M60.4418 124.9327
L60.5085 124.8375
" />
<path d="M60.5085 124.8375
L60.4418 124.7422
" />
<path d="M60.4418 124.7422
L60.4418 124.9327
" />
<path d="M61.1085 125.4089
L61.1085 126.7422
" />
<path d="M61.1085 125.5994
L61.1751 125.5041
" />
<path d="M61.1751 125.5041
L61.3085 125.4089
" />
<path d="M61.3085 125.4089
L61.5085 125.4089
" />
<path d="M61.5085 125.4089
L61.6418 125.5041
" />
<path d="M61.6418 125.5041
L61.7085 125.6946
" />
<path d="M61.7085 125.6946
L61.7085 126.7422
" />
</g><text x="59.9440" y="86.9950"
textLength="2.4033" font-size="1.8667" lengthAdjust="spacingAndGlyphs"
text-anchor="start" opacity="0">in</text>
<g class="stroked-text"><desc>in</desc>
<path d="M60.4418 86.7372
L60.4418 85.4039
" />
<path d="M60.4418 84.7372
L60.3751 84.8325
" />
<path d="M60.3751 84.8325
L60.4418 84.9277
" />
<path d="M60.4418 84.9277
L60.5085 84.8325
" />
<path d="M60.5085 84.8325
L60.4418 84.7372
" />
<path d="M60.4418 84.7372
L60.4418 84.9277
" />
<path d="M61.1085 85.4039
L61.1085 86.7372
" />
<path d="M61.1085 85.5944
L61.1751 85.4991
" />
<path d="M61.1751 85.4991
L61.3085 85.4039
" />
<path d="M61.3085 85.4039
L61.5085 85.4039
" />
<path d="M61.5085 85.4039
L61.6418 85.4991
" />
<path d="M61.6418 85.4991
L61.7085 85.6896
" />
<path d="M61.7085 85.6896
L61.7085 86.7372
" />
</g><text x="59.3090" y="167.6400"
textLength="3.8033" font-size="1.8667" lengthAdjust="spacingAndGlyphs"
text-anchor="start" opacity="0">out</text>
<g class="stroked-text"><desc>out</desc>
<path d="M60.0068 167.3822
L59.8735 167.2870
" />
<path d="M59.8735 167.2870
L59.8068 167.1918
" />
<path d="M59.8068 167.1918
L59.7401 167.0013
" />
<path d="M59.7401 167.0013
L59.7401 166.4299
" />
<path d="M59.7401 166.4299
L59.8068 166.2394
" />
<path d="M59.8068 166.2394
L59.8735 166.1441
" />
<path d="M59.8735 166.1441
L60.0068 166.0489
" />
<path d="M60.0068 166.0489
L60.2068 166.0489
" />
<path d="M60.2068 166.0489
L60.3401 166.1441
" />
<path d="M60.3401 166.1441
L60.4068 166.2394
" />
<path d="M60.4068 166.2394
L60.4735 166.4299
" />
<path d="M60.4735 166.4299
L60.4735 167.0013
" />
<path d="M60.4735 167.0013
L60.4068 167.1918
" />
<path d="M60.4068 167.1918
L60.3401 167.2870
" />
<path d="M60.3401 167.2870
L60.2068 167.3822
" />
<path d="M60.2068 167.3822
L60.0068 167.3822
" />
<path d="M61.6735 166.0489
L61.6735 167.3822
" />
<path d="M61.0735 166.0489
L61.0735 167.0965
" />
<path d="M61.0735 167.0965
L61.1401 167.2870
" />
<path d="M61.1401 167.2870
L61.2735 167.3822
" />
<path d="M61.2735 167.3822
L61.4735 167.3822
" />
<path d="M61.4735 167.3822
L61.6068 167.2870
" />
<path d="M61.6068 167.2870
L61.6735 167.1918
" />
<path d="M62.1401 166.0489
L62.6735 166.0489
" />
<path d="M62.3401 165.3822
L62.3401 167.0965
" />
<path d="M62.3401 167.0965
L62.4068 167.2870
" />
<path d="M62.4068 167.2870
L62.5401 167.3822
" />
<path d="M62.5401 167.3822
L62.6735 167.3822
" />
</g><text x="79.3750" y="167.6400"
textLength="3.8033" font-size="1.8667" lengthAdjust="spacingAndGlyphs"
text-anchor="start" opacity="0">out</text>
<g class="stroked-text"><desc>out</desc>
<path d="M80.0728 167.3822
L79.9395 167.2870
" />
<path d="M79.9395 167.2870
L79.8728 167.1918
" />
<path d="M79.8728 167.1918
L79.8061 167.0013
" />
<path d="M79.8061 167.0013
L79.8061 166.4299
" />
<path d="M79.8061 166.4299
L79.8728 166.2394
" />
<path d="M79.8728 166.2394
L79.9395 166.1441
" />
<path d="M79.9395 166.1441
L80.0728 166.0489
" />
<path d="M80.0728 166.0489
L80.2728 166.0489
" />
<path d="M80.2728 166.0489
L80.4061 166.1441
" />
<path d="M80.4061 166.1441
L80.4728 166.2394
" />
<path d="M80.4728 166.2394
L80.5395 166.4299
" />
<path d="M80.5395 166.4299
L80.5395 167.0013
" />
<path d="M80.5395 167.0013
L80.4728 167.1918
" />
<path d="M80.4728 167.1918
L80.4061 167.2870
" />
<path d="M80.4061 167.2870
L80.2728 167.3822
" />
<path d="M80.2728 167.3822
L80.0728 167.3822
" />
<path d="M81.7395 166.0489
L81.7395 167.3822
" />
<path d="M81.1395 166.0489
L81.1395 167.0965
" />
<path d="M81.1395 167.0965
L81.2061 167.2870
" />
<path d="M81.2061 167.2870
L81.3395 167.3822
" />
<path d="M81.3395 167.3822
L81.5395 167.3822
" />
<path d="M81.5395 167.3822
L81.6728 167.2870
" />
<path d="M81.6728 167.2870
L81.7395 167.1918
" />
<path d="M82.2061 166.0489
L82.7395 166.0489
" />
<path d="M82.4061 165.3822
L82.4061 167.0965
" />
<path d="M82.4061 167.0965
L82.4728 167.2870
" />
<path d="M82.4728 167.2870
L82.6061 167.3822
" />
<path d="M82.6061 167.3822
L82.7395 167.3822
" />
</g><g >
</g>
<g style="fill:#000000; fill-opacity:1.0000; 
stroke:#000000; stroke-width:0.0000; stroke-opacity:1; 
stroke-linecap:round; stroke-linejoin:round;">
<circle cx="58.3000" cy="53.8000" r="1.8000" /> 
</g>
<g style="fill:#000000; fill-opacity:1.0000; 
stroke:#000000; stroke-width:0.0212; stroke-opacity:1; 
stroke-linecap:round; stroke-linejoin:round;">
</g>
<g style="fill:#000000; fill-opacity:1.0000; 
stroke:#000000; stroke-width:0.0000; stroke-opacity:1; 
stroke-linecap:round; stroke-linejoin:round;">
<circle cx="58.3000" cy="53.8000" r="2.5000" /> 
</g>
<g style="fill:#000000; fill-opacity:1.0000; 
stroke:#000000; stroke-width:0.0212; stroke-opacity:1; 
stroke-linecap:round; stroke-linejoin:round;">
</g>
<g >
</g>
<g style="fill:#000000; fill-opacity:1.0000; 
stroke:#000000; stroke-width:0.0212; stroke-opacity:1; 
stroke-linecap:round; stroke-linejoin:round;">
</g>
<g style="fill:#000000; fill-opacity:1.0000; 
stroke:#000000; stroke-width:0.0000; stroke-opacity:1; 
stroke-linecap:round; stroke-linejoin:round;">
<circle cx="58.3000" cy="176.3000" r="1.8000" /> 
</g>
<g style="fill:#000000; fill-opacity:1.0000; 
stroke:#000000; stroke-width:0.0212; stroke-opacity:1; 
stroke-linecap:round; stroke-linejoin:round;">
</g>
<g style="fill:#000000; fill-opacity:1.0000; 
stroke:#000000; stroke-width:0.0000; stroke-opacity:1; 
stroke-linecap:round; stroke-linejoin:round;">
<circle cx="58.3000" cy="176.3000" r="2.5000" /> 
</g>
<g style="fill:#000000; fill-opacity:1.0000; 
stroke:#000000; stroke-width:0.0212; stroke-opacity:1; 
stroke-linecap:round; stroke-linejoin:round;">
</g>
<g >
</g>
<g style="fill:#000000; fill-opacity:1.0000; 
stroke:#000000; stroke-width:0.0212; stroke-opacity:1; 
stroke-linecap:round; stroke-linejoin:round;">
</g>
<g style="fill:#000000; fill-opacity:1.0000; 
stroke:#000000; stroke-width:0.0000; stroke-opacity:1; 
stroke-linecap:round; stroke-linejoin:round;">
<circle cx="60.9600" cy="137.1600" r="3.2000" /> 
</g>
<g style="fill:#000000; fill-opacity:1.0000; 
stroke:#000000; stroke-width:0.0212; stroke-opacity:1; 
stroke-linecap:round; stroke-linejoin:round;">
</g>
<g >
</g>
<g style="fill:#000000; fill-opacity:1.0000; 
stroke:#000000; stroke-width:0.0212; stroke-opacity:1; 
stroke-linecap:round; stroke-linejoin:round;">
</g>
<g style="fill:#000000; fill-opacity:1.0000; 
stroke:#000000; stroke-width:0.0000; stroke-opacity:1; 
stroke-linecap:round; stroke-linejoin:round;">
<circle cx="81.2800" cy="76.2000" r="3.7000" /> 
</g>
<g style="fill:#000000; fill-opacity:1.0000; 
stroke:#000000; stroke-width:0.0212; stroke-opacity:1; 
stroke-linecap:round; stroke-linejoin:round;">
</g>
<g >
</g>
<g style="fill:#000000; fill-opacity:1.0000; 
stroke:#000000; stroke-width:0.0212; stroke-opacity:1; 
stroke-linecap:round; stroke-linejoin:round;">
</g>
<g style="fill:#000000; fill-opacity:1.0000; 
stroke:#000000; stroke-width:0.0000; stroke-opacity:1; 
stroke-linecap:round; stroke-linejoin:round;">
<circle cx="60.9600" cy="157.4800" r="3.2000" /> 
</g>
<g style="fill:#000000; fill-opacity:1.0000; 
stroke:#000000; stroke-width:0.0212; stroke-opacity:1; 
stroke-linecap:round; stroke-linejoin:round;">
</g>
<g >
</g>
<g style="fill:#000000; fill-opacity:1.0000; 
stroke:#000000; stroke-width:0.0212; stroke-opacity:1; 
stroke-linecap:round; stroke-linejoin:round;">
</g>
<g style="fill:#000000; fill-opacity:1.0000; 
stroke:#000000; stroke-width:0.0000; stroke-opacity:1; 
stroke-linecap:round; stroke-linejoin:round;">
<circle cx="81.2800" cy="137.1600" r="3.7000" /> 
</g>
<g style="fill:#000000; fill-opacity:1.0000; 
stroke:#000000; stroke-width:0.0212; stroke-opacity:1; 
stroke-linecap:round; stroke-linejoin:round;">
</g>
<g >
</g>
<g style="fill:#000000; fill-opacity:1.0000; 
stroke:#000000; stroke-width:0.0212; stroke-opacity:1; 
stroke-linecap:round; stroke-linejoin:round;">
</g>
<g style="fill:#000000; fill-opacity:1.0000; 
stroke:#000000; stroke-width:0.0000; stroke-opacity:1; 
stroke-linecap:round; stroke-linejoin:round;">
<circle cx="81.2800" cy="116.8400" r="3.7000" /> 
</g>
<g style="fill:#000000; fill-opacity:1.0000; 
stroke:#000000; stroke-width:0.0212; stroke-opacity:1; 
stroke-linecap:round; stroke-linejoin:round;">
</g>
<g >
</g>
<g style="fill:#000000; fill-opacity:1.0000; 
stroke:#000000; stroke-width:0.0212; stroke-opacity:1; 
stroke-linecap:round; stroke-linejoin:round;">
</g>
<g style="fill:#000000; fill-opacity:1.0000; 
stroke:#000000; stroke-width:0.0000; stroke-opacity:1; 
stroke-linecap:round; stroke-linejoin:round;">
<circle cx="81.2800" cy="96.5200" r="3.7000" /> 
</g>
<g style="fill:#000000; fill-opacity:1.0000; 
stroke:#000000; stroke-width:0.0212; stroke-opacity:1; 
stroke-linecap:round; stroke-linejoin:round;">
</g>
<g >
</g>
<g style="fill:#000000; fill-opacity:1.0000; 
stroke:#000000; stroke-width:0.0212; stroke-opacity:1; 
stroke-linecap:round; stroke-linejoin:round;">
</g>
<g style="fill:#000000; fill-opacity:1.0000; 
stroke:#000000; stroke-width:0.0000; stroke-opacity:1; 
stroke-linecap:round; stroke-linejoin:round;">
<circle cx="81.2800" cy="157.4800" r="3.2000" /> 
</g>
<g style="fill:#000000; fill-opacity:1.0000; 
stroke:#000000; stroke-width:0.0212; stroke-opacity:1; 
stroke-linecap:round; stroke-linejoin:round;">
</g>
<g >
</g>
<g style="fill:#000000; fill-opacity:1.0000; 
stroke:#000000; stroke-width:0.0212; stroke-opacity:1; 
stroke-linecap:round; stroke-linejoin:round;">
</g>
<g style="fill:#000000; fill-opacity:1.0000; 
stroke:#000000; stroke-width:0.0000; stroke-opacity:1; 
stroke-linecap:round; stroke-linejoin:round;">
<circle cx="60.9600" cy="76.7700" r="3.2000" /> 
</g>
<g style="fill:#000000; fill-opacity:1.0000; 
stroke:#000000; stroke-width:0.0212; stroke-opacity:1; 
stroke-linecap:round; stroke-linejoin:round;">
</g>
<g >
</g>
<g style="fill:#000000; fill-opacity:1.0000; 
stroke:#000000; stroke-width:0.0212; stroke-opacity:1; 
stroke-linecap:round; stroke-linejoin:round;">
</g>
<g style="fill:#000000; fill-opacity:1.0000; 
stroke:#000000; stroke-width:0.0000; stroke-opacity:1; 
stroke-linecap:round; stroke-linejoin:round;">
<circle cx="60.9600" cy="96.5200" r="3.2000" /> 
</g>
<g style="fill:#000000; fill-opacity:1.0000; 
stroke:#000000; stroke-width:0.0212; stroke-opacity:1; 
stroke-linecap:round; stroke-linejoin:round;">
</g>
<g >
</g>
<g style="fill:#000000; fill-opacity:1.0000; 
stroke:#000000; stroke-width:0.0212; stroke-opacity:1; 
stroke-linecap:round; stroke-linejoin:round;">
</g>
<g style="fill:#000000; fill-opacity:1.0000; 
stroke:#000000; stroke-width:0.0000; stroke-opacity:1; 
stroke-linecap:round; stroke-linejoin:round;">
<circle cx="60.9600" cy="116.8400" r="3.2000" /> 
</g>
<g style="fill:#000000; fill-opacity:1.0000; 
stroke:#000000; stroke-width:0.0212; stroke-opacity:1; 
stroke-linecap:round; stroke-linejoin:round;">
</g>
<g >
</g>
<g >
</g>
<g >
</g>
</g> 
</svg>
