<?xml version="1.0" standalone="no"?>
 <!DOCTYPE svg PUBLIC "-//W3C//DTD SVG 1.1//EN" 
 "http://www.w3.org/Graphics/SVG/1.1/DTD/svg11.dtd"> 
<svg
  xmlns:svg="http://www.w3.org/2000/svg"
  xmlns="http://www.w3.org/2000/svg"
  xmlns:xlink="http://www.w3.org/1999/xlink"
  version="1.1"
  width="297.0022mm" height="210.0072mm" viewBox="0.0000 0.0000 297.0022 210.0072">
<title>SVG Image created as panel-F_Mask.svg date 2023/11/06 17:56:14 </title>
  <desc>Image generated by PCBNEW </desc>
<g style="fill:#000000; fill-opacity:1.0000;stroke:#000000; stroke-opacity:1.0000;
stroke-linecap:round; stroke-linejoin:round;"
 transform="translate(0 0) scale(1 1)">
</g>
<g style="fill:#000000; fill-opacity:0.0; 
stroke:#000000; stroke-width:0.0000; stroke-opacity:1; 
stroke-linecap:round; stroke-linejoin:round;">
</g>
<g style="fill:#000000; fill-opacity:0.0; 
stroke:#000000; stroke-width:0.2500; stroke-opacity:1; 
stroke-linecap:round; stroke-linejoin:round;">
<text x="55.8500" y="101.5500"
textLength="10.6033" font-size="1.8667" lengthAdjust="spacingAndGlyphs"
text-anchor="middle" opacity="0">soft/hard</text>
<g class="stroked-text"><desc>soft/hard</desc>
<path d="M51.0500 101.3670
L51.1833 101.4622
" />
<path d="M51.1833 101.4622
L51.4500 101.4622
" />
<path d="M51.4500 101.4622
L51.5833 101.3670
" />
<path d="M51.5833 101.3670
L51.6500 101.1765
" />
<path d="M51.6500 101.1765
L51.6500 101.0813
" />
<path d="M51.6500 101.0813
L51.5833 100.8908
" />
<path d="M51.5833 100.8908
L51.4500 100.7956
" />
<path d="M51.4500 100.7956
L51.2500 100.7956
" />
<path d="M51.2500 100.7956
L51.1167 100.7003
" />
<path d="M51.1167 100.7003
L51.0500 100.5099
" />
<path d="M51.0500 100.5099
L51.0500 100.4146
" />
<path d="M51.0500 100.4146
L51.1167 100.2241
" />
<path d="M51.1167 100.2241
L51.2500 100.1289
" />
<path d="M51.2500 100.1289
L51.4500 100.1289
" />
<path d="M51.4500 100.1289
L51.5833 100.2241
" />
<path d="M52.4500 101.4622
L52.3167 101.3670
" />
<path d="M52.3167 101.3670
L52.2500 101.2718
" />
<path d="M52.2500 101.2718
L52.1833 101.0813
" />
<path d="M52.1833 101.0813
L52.1833 100.5099
" />
<path d="M52.1833 100.5099
L52.2500 100.3194
" />
<path d="M52.2500 100.3194
L52.3167 100.2241
" />
<path d="M52.3167 100.2241
L52.4500 100.1289
" />
<path d="M52.4500 100.1289
L52.6500 100.1289
" />
<path d="M52.6500 100.1289
L52.7833 100.2241
" />
<path d="M52.7833 100.2241
L52.8500 100.3194
" />
<path d="M52.8500 100.3194
L52.9167 100.5099
" />
<path d="M52.9167 100.5099
L52.9167 101.0813
" />
<path d="M52.9167 101.0813
L52.8500 101.2718
" />
<path d="M52.8500 101.2718
L52.7833 101.3670
" />
<path d="M52.7833 101.3670
L52.6500 101.4622
" />
<path d="M52.6500 101.4622
L52.4500 101.4622
" />
<path d="M53.3167 100.1289
L53.8500 100.1289
" />
<path d="M53.5167 101.4622
L53.5167 99.7480
" />
<path d="M53.5167 99.7480
L53.5833 99.5575
" />
<path d="M53.5833 99.5575
L53.7167 99.4622
" />
<path d="M53.7167 99.4622
L53.8500 99.4622
" />
<path d="M54.1167 100.1289
L54.6500 100.1289
" />
<path d="M54.3167 99.4622
L54.3167 101.1765
" />
<path d="M54.3167 101.1765
L54.3833 101.3670
" />
<path d="M54.3833 101.3670
L54.5167 101.4622
" />
<path d="M54.5167 101.4622
L54.6500 101.4622
" />
<path d="M56.1167 99.3670
L54.9167 101.9384
" />
<path d="M56.5833 101.4622
L56.5833 99.4622
" />
<path d="M57.1833 101.4622
L57.1833 100.4146
" />
<path d="M57.1833 100.4146
L57.1167 100.2241
" />
<path d="M57.1167 100.2241
L56.9833 100.1289
" />
<path d="M56.9833 100.1289
L56.7833 100.1289
" />
<path d="M56.7833 100.1289
L56.6500 100.2241
" />
<path d="M56.6500 100.2241
L56.5833 100.3194
" />
<path d="M58.4500 101.4622
L58.4500 100.4146
" />
<path d="M58.4500 100.4146
L58.3833 100.2241
" />
<path d="M58.3833 100.2241
L58.2500 100.1289
" />
<path d="M58.2500 100.1289
L57.9833 100.1289
" />
<path d="M57.9833 100.1289
L57.8500 100.2241
" />
<path d="M58.4500 101.3670
L58.3167 101.4622
" />
<path d="M58.3167 101.4622
L57.9833 101.4622
" />
<path d="M57.9833 101.4622
L57.8500 101.3670
" />
<path d="M57.8500 101.3670
L57.7833 101.1765
" />
<path d="M57.7833 101.1765
L57.7833 100.9860
" />
<path d="M57.7833 100.9860
L57.8500 100.7956
" />
<path d="M57.8500 100.7956
L57.9833 100.7003
" />
<path d="M57.9833 100.7003
L58.3167 100.7003
" />
<path d="M58.3167 100.7003
L58.4500 100.6051
" />
<path d="M59.1167 101.4622
L59.1167 100.1289
" />
<path d="M59.1167 100.5099
L59.1833 100.3194
" />
<path d="M59.1833 100.3194
L59.2500 100.2241
" />
<path d="M59.2500 100.2241
L59.3833 100.1289
" />
<path d="M59.3833 100.1289
L59.5167 100.1289
" />
<path d="M60.5833 101.4622
L60.5833 99.4622
" />
<path d="M60.5833 101.3670
L60.4500 101.4622
" />
<path d="M60.4500 101.4622
L60.1833 101.4622
" />
<path d="M60.1833 101.4622
L60.0500 101.3670
" />
<path d="M60.0500 101.3670
L59.9833 101.2718
" />
<path d="M59.9833 101.2718
L59.9167 101.0813
" />
<path d="M59.9167 101.0813
L59.9167 100.5099
" />
<path d="M59.9167 100.5099
L59.9833 100.3194
" />
<path d="M59.9833 100.3194
L60.0500 100.2241
" />
<path d="M60.0500 100.2241
L60.1833 100.1289
" />
<path d="M60.1833 100.1289
L60.4500 100.1289
" />
<path d="M60.4500 100.1289
L60.5833 100.2241
" />
</g><text x="55.9500" y="121.9000"
textLength="3.6700" font-size="1.8667" lengthAdjust="spacingAndGlyphs"
text-anchor="middle" opacity="0">res</text>
<g class="stroked-text"><desc>res</desc>
<path d="M54.6833 121.8122
L54.6833 120.4789
" />
<path d="M54.6833 120.8599
L54.7500 120.6694
" />
<path d="M54.7500 120.6694
L54.8167 120.5741
" />
<path d="M54.8167 120.5741
L54.9500 120.4789
" />
<path d="M54.9500 120.4789
L55.0833 120.4789
" />
<path d="M56.0833 121.7170
L55.9500 121.8122
" />
<path d="M55.9500 121.8122
L55.6833 121.8122
" />
<path d="M55.6833 121.8122
L55.5500 121.7170
" />
<path d="M55.5500 121.7170
L55.4833 121.5265
" />
<path d="M55.4833 121.5265
L55.4833 120.7646
" />
<path d="M55.4833 120.7646
L55.5500 120.5741
" />
<path d="M55.5500 120.5741
L55.6833 120.4789
" />
<path d="M55.6833 120.4789
L55.9500 120.4789
" />
<path d="M55.9500 120.4789
L56.0833 120.5741
" />
<path d="M56.0833 120.5741
L56.1500 120.7646
" />
<path d="M56.1500 120.7646
L56.1500 120.9551
" />
<path d="M56.1500 120.9551
L55.4833 121.1456
" />
<path d="M56.6833 121.7170
L56.8167 121.8122
" />
<path d="M56.8167 121.8122
L57.0833 121.8122
" />
<path d="M57.0833 121.8122
L57.2167 121.7170
" />
<path d="M57.2167 121.7170
L57.2833 121.5265
" />
<path d="M57.2833 121.5265
L57.2833 121.4313
" />
<path d="M57.2833 121.4313
L57.2167 121.2408
" />
<path d="M57.2167 121.2408
L57.0833 121.1456
" />
<path d="M57.0833 121.1456
L56.8833 121.1456
" />
<path d="M56.8833 121.1456
L56.7500 121.0503
" />
<path d="M56.7500 121.0503
L56.6833 120.8599
" />
<path d="M56.6833 120.8599
L56.6833 120.7646
" />
<path d="M56.6833 120.7646
L56.7500 120.5741
" />
<path d="M56.7500 120.5741
L56.8833 120.4789
" />
<path d="M56.8833 120.4789
L57.0833 120.4789
" />
<path d="M57.0833 120.4789
L57.2167 120.5741
" />
</g><text x="45.7000" y="142.3000"
textLength="3.0033" font-size="1.8667" lengthAdjust="spacingAndGlyphs"
text-anchor="middle" opacity="0">bp</text>
<g class="stroked-text"><desc>bp</desc>
<path d="M44.7667 142.2122
L44.7667 140.2122
" />
<path d="M44.7667 140.9741
L44.9000 140.8789
" />
<path d="M44.9000 140.8789
L45.1667 140.8789
" />
<path d="M45.1667 140.8789
L45.3000 140.9741
" />
<path d="M45.3000 140.9741
L45.3667 141.0694
" />
<path d="M45.3667 141.0694
L45.4333 141.2599
" />
<path d="M45.4333 141.2599
L45.4333 141.8313
" />
<path d="M45.4333 141.8313
L45.3667 142.0218
" />
<path d="M45.3667 142.0218
L45.3000 142.1170
" />
<path d="M45.3000 142.1170
L45.1667 142.2122
" />
<path d="M45.1667 142.2122
L44.9000 142.2122
" />
<path d="M44.9000 142.2122
L44.7667 142.1170
" />
<path d="M46.0333 140.8789
L46.0333 142.8789
" />
<path d="M46.0333 140.9741
L46.1667 140.8789
" />
<path d="M46.1667 140.8789
L46.4333 140.8789
" />
<path d="M46.4333 140.8789
L46.5667 140.9741
" />
<path d="M46.5667 140.9741
L46.6333 141.0694
" />
<path d="M46.6333 141.0694
L46.7000 141.2599
" />
<path d="M46.7000 141.2599
L46.7000 141.8313
" />
<path d="M46.7000 141.8313
L46.6333 142.0218
" />
<path d="M46.6333 142.0218
L46.5667 142.1170
" />
<path d="M46.5667 142.1170
L46.4333 142.2122
" />
<path d="M46.4333 142.2122
L46.1667 142.2122
" />
<path d="M46.1667 142.2122
L46.0333 142.1170
" />
</g></g>
<g style="fill:#000000; fill-opacity:0.0; 
stroke:#000000; stroke-width:0.3500; stroke-opacity:1; 
stroke-linecap:round; stroke-linejoin:round;">
<text x="49.6000" y="30.0000"
textLength="25.1643" font-size="4.0000" lengthAdjust="spacingAndGlyphs"
text-anchor="middle" opacity="0">ПОЛИВОКС</text>
<g class="stroked-text"><desc>ПОЛИВОКС</desc>
<path d="M37.9571 29.8697
L37.9571 26.8697
" />
<path d="M37.9571 26.8697
L39.6714 26.8697
" />
<path d="M39.6714 26.8697
L39.6714 29.8697
" />
<path d="M41.6714 26.8697
L42.2429 26.8697
" />
<path d="M42.2429 26.8697
L42.5286 27.0125
" />
<path d="M42.5286 27.0125
L42.8143 27.2982
" />
<path d="M42.8143 27.2982
L42.9571 27.8697
" />
<path d="M42.9571 27.8697
L42.9571 28.8697
" />
<path d="M42.9571 28.8697
L42.8143 29.4411
" />
<path d="M42.8143 29.4411
L42.5286 29.7268
" />
<path d="M42.5286 29.7268
L42.2429 29.8697
" />
<path d="M42.2429 29.8697
L41.6714 29.8697
" />
<path d="M41.6714 29.8697
L41.3857 29.7268
" />
<path d="M41.3857 29.7268
L41.1000 29.4411
" />
<path d="M41.1000 29.4411
L40.9571 28.8697
" />
<path d="M40.9571 28.8697
L40.9571 27.8697
" />
<path d="M40.9571 27.8697
L41.1000 27.2982
" />
<path d="M41.1000 27.2982
L41.3857 27.0125
" />
<path d="M41.3857 27.0125
L41.6714 26.8697
" />
<path d="M45.9571 29.8697
L45.9571 26.8697
" />
<path d="M45.9571 26.8697
L45.5286 26.8697
" />
<path d="M45.5286 26.8697
L45.1000 27.0125
" />
<path d="M45.1000 27.0125
L44.8143 27.2982
" />
<path d="M44.8143 27.2982
L44.6714 27.7268
" />
<path d="M44.6714 27.7268
L44.3857 29.4411
" />
<path d="M44.3857 29.4411
L44.2429 29.7268
" />
<path d="M44.2429 29.7268
L43.9571 29.8697
" />
<path d="M43.9571 29.8697
L43.8143 29.8697
" />
<path d="M47.3857 26.8697
L47.3857 29.8697
" />
<path d="M47.3857 29.8697
L49.1000 26.8697
" />
<path d="M49.1000 26.8697
L49.1000 29.8697
" />
<path d="M51.5286 28.2982
L51.9571 28.4411
" />
<path d="M51.9571 28.4411
L52.1000 28.5839
" />
<path d="M52.1000 28.5839
L52.2429 28.8697
" />
<path d="M52.2429 28.8697
L52.2429 29.2982
" />
<path d="M52.2429 29.2982
L52.1000 29.5839
" />
<path d="M52.1000 29.5839
L51.9571 29.7268
" />
<path d="M51.9571 29.7268
L51.6714 29.8697
" />
<path d="M51.6714 29.8697
L50.5286 29.8697
" />
<path d="M50.5286 29.8697
L50.5286 26.8697
" />
<path d="M50.5286 26.8697
L51.5286 26.8697
" />
<path d="M51.5286 26.8697
L51.8143 27.0125
" />
<path d="M51.8143 27.0125
L51.9571 27.1554
" />
<path d="M51.9571 27.1554
L52.1000 27.4411
" />
<path d="M52.1000 27.4411
L52.1000 27.7268
" />
<path d="M52.1000 27.7268
L51.9571 28.0125
" />
<path d="M51.9571 28.0125
L51.8143 28.1554
" />
<path d="M51.8143 28.1554
L51.5286 28.2982
" />
<path d="M51.5286 28.2982
L50.5286 28.2982
" />
<path d="M54.1000 26.8697
L54.6714 26.8697
" />
<path d="M54.6714 26.8697
L54.9571 27.0125
" />
<path d="M54.9571 27.0125
L55.2429 27.2982
" />
<path d="M55.2429 27.2982
L55.3857 27.8697
" />
<path d="M55.3857 27.8697
L55.3857 28.8697
" />
<path d="M55.3857 28.8697
L55.2429 29.4411
" />
<path d="M55.2429 29.4411
L54.9571 29.7268
" />
<path d="M54.9571 29.7268
L54.6714 29.8697
" />
<path d="M54.6714 29.8697
L54.1000 29.8697
" />
<path d="M54.1000 29.8697
L53.8143 29.7268
" />
<path d="M53.8143 29.7268
L53.5286 29.4411
" />
<path d="M53.5286 29.4411
L53.3857 28.8697
" />
<path d="M53.3857 28.8697
L53.3857 27.8697
" />
<path d="M53.3857 27.8697
L53.5286 27.2982
" />
<path d="M53.5286 27.2982
L53.8143 27.0125
" />
<path d="M53.8143 27.0125
L54.1000 26.8697
" />
<path d="M56.6714 29.8697
L56.6714 26.8697
" />
<path d="M58.3857 29.8697
L57.1000 28.1554
" />
<path d="M58.3857 26.8697
L56.6714 28.5839
" />
<path d="M61.3857 29.5839
L61.2429 29.7268
" />
<path d="M61.2429 29.7268
L60.8143 29.8697
" />
<path d="M60.8143 29.8697
L60.5286 29.8697
" />
<path d="M60.5286 29.8697
L60.1000 29.7268
" />
<path d="M60.1000 29.7268
L59.8143 29.4411
" />
<path d="M59.8143 29.4411
L59.6714 29.1554
" />
<path d="M59.6714 29.1554
L59.5286 28.5839
" />
<path d="M59.5286 28.5839
L59.5286 28.1554
" />
<path d="M59.5286 28.1554
L59.6714 27.5839
" />
<path d="M59.6714 27.5839
L59.8143 27.2982
" />
<path d="M59.8143 27.2982
L60.1000 27.0125
" />
<path d="M60.1000 27.0125
L60.5286 26.8697
" />
<path d="M60.5286 26.8697
L60.8143 26.8697
" />
<path d="M60.8143 26.8697
L61.2429 27.0125
" />
<path d="M61.2429 27.0125
L61.3857 27.1554
" />
</g></g>
<g style="fill:#000000; fill-opacity:0.0; 
stroke:#000000; stroke-width:0.2500; stroke-opacity:1; 
stroke-linecap:round; stroke-linejoin:round;">
<text x="55.9000" y="81.2500"
textLength="4.6033" font-size="1.8667" lengthAdjust="spacingAndGlyphs"
text-anchor="middle" opacity="0">freq</text>
<g class="stroked-text"><desc>freq</desc>
<path d="M53.9667 79.8289
L54.5000 79.8289
" />
<path d="M54.1667 81.1622
L54.1667 79.4480
" />
<path d="M54.1667 79.4480
L54.2333 79.2575
" />
<path d="M54.2333 79.2575
L54.3667 79.1622
" />
<path d="M54.3667 79.1622
L54.5000 79.1622
" />
<path d="M54.9667 81.1622
L54.9667 79.8289
" />
<path d="M54.9667 80.2099
L55.0333 80.0194
" />
<path d="M55.0333 80.0194
L55.1000 79.9241
" />
<path d="M55.1000 79.9241
L55.2333 79.8289
" />
<path d="M55.2333 79.8289
L55.3667 79.8289
" />
<path d="M56.3667 81.0670
L56.2333 81.1622
" />
<path d="M56.2333 81.1622
L55.9667 81.1622
" />
<path d="M55.9667 81.1622
L55.8333 81.0670
" />
<path d="M55.8333 81.0670
L55.7667 80.8765
" />
<path d="M55.7667 80.8765
L55.7667 80.1146
" />
<path d="M55.7667 80.1146
L55.8333 79.9241
" />
<path d="M55.8333 79.9241
L55.9667 79.8289
" />
<path d="M55.9667 79.8289
L56.2333 79.8289
" />
<path d="M56.2333 79.8289
L56.3667 79.9241
" />
<path d="M56.3667 79.9241
L56.4333 80.1146
" />
<path d="M56.4333 80.1146
L56.4333 80.3051
" />
<path d="M56.4333 80.3051
L55.7667 80.4956
" />
<path d="M57.6333 79.8289
L57.6333 81.8289
" />
<path d="M57.6333 81.0670
L57.5000 81.1622
" />
<path d="M57.5000 81.1622
L57.2333 81.1622
" />
<path d="M57.2333 81.1622
L57.1000 81.0670
" />
<path d="M57.1000 81.0670
L57.0333 80.9718
" />
<path d="M57.0333 80.9718
L56.9667 80.7813
" />
<path d="M56.9667 80.7813
L56.9667 80.2099
" />
<path d="M56.9667 80.2099
L57.0333 80.0194
" />
<path d="M57.0333 80.0194
L57.1000 79.9241
" />
<path d="M57.1000 79.9241
L57.2333 79.8289
" />
<path d="M57.2333 79.8289
L57.5000 79.8289
" />
<path d="M57.5000 79.8289
L57.6333 79.9241
" />
</g><text x="55.8500" y="142.2500"
textLength="2.4700" font-size="1.8667" lengthAdjust="spacingAndGlyphs"
text-anchor="middle" opacity="0">lp</text>
<g class="stroked-text"><desc>lp</desc>
<path d="M55.3833 142.1622
L55.2500 142.0670
" />
<path d="M55.2500 142.0670
L55.1833 141.8765
" />
<path d="M55.1833 141.8765
L55.1833 140.1622
" />
<path d="M55.9167 140.8289
L55.9167 142.8289
" />
<path d="M55.9167 140.9241
L56.0500 140.8289
" />
<path d="M56.0500 140.8289
L56.3167 140.8289
" />
<path d="M56.3167 140.8289
L56.4500 140.9241
" />
<path d="M56.4500 140.9241
L56.5167 141.0194
" />
<path d="M56.5167 141.0194
L56.5833 141.2099
" />
<path d="M56.5833 141.2099
L56.5833 141.7813
" />
<path d="M56.5833 141.7813
L56.5167 141.9718
" />
<path d="M56.5167 141.9718
L56.4500 142.0670
" />
<path d="M56.4500 142.0670
L56.3167 142.1622
" />
<path d="M56.3167 142.1622
L56.0500 142.1622
" />
<path d="M56.0500 142.1622
L55.9167 142.0670
" />
</g><text x="34.3000" y="81.4500"
textLength="2.7367" font-size="1.8667" lengthAdjust="spacingAndGlyphs"
text-anchor="start" opacity="0">cv</text>
<g class="stroked-text"><desc>cv</desc>
<path d="M35.3978 81.0970
L35.2645 81.1922
" />
<path d="M35.2645 81.1922
L34.9978 81.1922
" />
<path d="M34.9978 81.1922
L34.8645 81.0970
" />
<path d="M34.8645 81.0970
L34.7978 81.0018
" />
<path d="M34.7978 81.0018
L34.7311 80.8113
" />
<path d="M34.7311 80.8113
L34.7311 80.2399
" />
<path d="M34.7311 80.2399
L34.7978 80.0494
" />
<path d="M34.7978 80.0494
L34.8645 79.9541
" />
<path d="M34.8645 79.9541
L34.9978 79.8589
" />
<path d="M34.9978 79.8589
L35.2645 79.8589
" />
<path d="M35.2645 79.8589
L35.3978 79.9541
" />
<path d="M35.8645 79.8589
L36.1978 81.1922
" />
<path d="M36.1978 81.1922
L36.5311 79.8589
" />
</g><text x="35.6000" y="142.2000"
textLength="2.4033" font-size="1.8667" lengthAdjust="spacingAndGlyphs"
text-anchor="middle" opacity="0">in</text>
<g class="stroked-text"><desc>in</desc>
<path d="M34.9667 142.1122
L34.9667 140.7789
" />
<path d="M34.9667 140.1122
L34.9000 140.2075
" />
<path d="M34.9000 140.2075
L34.9667 140.3027
" />
<path d="M34.9667 140.3027
L35.0333 140.2075
" />
<path d="M35.0333 140.2075
L34.9667 140.1122
" />
<path d="M34.9667 140.1122
L34.9667 140.3027
" />
<path d="M35.6333 140.7789
L35.6333 142.1122
" />
<path d="M35.6333 140.9694
L35.7000 140.8741
" />
<path d="M35.7000 140.8741
L35.8333 140.7789
" />
<path d="M35.8333 140.7789
L36.0333 140.7789
" />
<path d="M36.0333 140.7789
L36.1667 140.8741
" />
<path d="M36.1667 140.8741
L36.2333 141.0646
" />
<path d="M36.2333 141.0646
L36.2333 142.1122
" />
</g><text x="34.1000" y="61.1000"
textLength="3.1367" font-size="1.8667" lengthAdjust="spacingAndGlyphs"
text-anchor="start" opacity="0">fm</text>
<g class="stroked-text"><desc>fm</desc>
<path d="M34.3978 59.5089
L34.9311 59.5089
" />
<path d="M34.5978 60.8422
L34.5978 59.1280
" />
<path d="M34.5978 59.1280
L34.6645 58.9375
" />
<path d="M34.6645 58.9375
L34.7978 58.8422
" />
<path d="M34.7978 58.8422
L34.9311 58.8422
" />
<path d="M35.3978 60.8422
L35.3978 59.5089
" />
<path d="M35.3978 59.6994
L35.4645 59.6041
" />
<path d="M35.4645 59.6041
L35.5978 59.5089
" />
<path d="M35.5978 59.5089
L35.7978 59.5089
" />
<path d="M35.7978 59.5089
L35.9311 59.6041
" />
<path d="M35.9311 59.6041
L35.9978 59.7946
" />
<path d="M35.9978 59.7946
L35.9978 60.8422
" />
<path d="M35.9978 59.7946
L36.0645 59.6041
" />
<path d="M36.0645 59.6041
L36.1978 59.5089
" />
<path d="M36.1978 59.5089
L36.3978 59.5089
" />
<path d="M36.3978 59.5089
L36.5311 59.6041
" />
<path d="M36.5311 59.6041
L36.5978 59.7946
" />
<path d="M36.5978 59.7946
L36.5978 60.8422
" />
</g><g >
</g>
<g style="fill:#000000; fill-opacity:1.0000; 
stroke:#000000; stroke-width:0.0000; stroke-opacity:1; 
stroke-linecap:round; stroke-linejoin:round;">
<circle cx="35.5600" cy="50.8000" r="3.2000" /> 
</g>
<g style="fill:#000000; fill-opacity:1.0000; 
stroke:#000000; stroke-width:0.0212; stroke-opacity:1; 
stroke-linecap:round; stroke-linejoin:round;">
</g>
<g >
</g>
<g style="fill:#000000; fill-opacity:1.0000; 
stroke:#000000; stroke-width:0.0212; stroke-opacity:1; 
stroke-linecap:round; stroke-linejoin:round;">
</g>
<g style="fill:#000000; fill-opacity:1.0000; 
stroke:#000000; stroke-width:0.0000; stroke-opacity:1; 
stroke-linecap:round; stroke-linejoin:round;">
<circle cx="55.8800" cy="50.8000" r="3.7000" /> 
</g>
<g style="fill:#000000; fill-opacity:1.0000; 
stroke:#000000; stroke-width:0.0212; stroke-opacity:1; 
stroke-linecap:round; stroke-linejoin:round;">
</g>
<g >
</g>
<g style="fill:#000000; fill-opacity:1.0000; 
stroke:#000000; stroke-width:0.0212; stroke-opacity:1; 
stroke-linecap:round; stroke-linejoin:round;">
</g>
<g style="fill:#000000; fill-opacity:1.0000; 
stroke:#000000; stroke-width:0.0000; stroke-opacity:1; 
stroke-linecap:round; stroke-linejoin:round;">
<circle cx="35.5600" cy="71.1200" r="3.2000" /> 
</g>
<g style="fill:#000000; fill-opacity:1.0000; 
stroke:#000000; stroke-width:0.0212; stroke-opacity:1; 
stroke-linecap:round; stroke-linejoin:round;">
</g>
<g >
</g>
<g style="fill:#000000; fill-opacity:1.0000; 
stroke:#000000; stroke-width:0.0212; stroke-opacity:1; 
stroke-linecap:round; stroke-linejoin:round;">
</g>
<g style="fill:#000000; fill-opacity:1.0000; 
stroke:#000000; stroke-width:0.0000; stroke-opacity:1; 
stroke-linecap:round; stroke-linejoin:round;">
<circle cx="35.5600" cy="132.0800" r="3.2000" /> 
</g>
<g style="fill:#000000; fill-opacity:1.0000; 
stroke:#000000; stroke-width:0.0212; stroke-opacity:1; 
stroke-linecap:round; stroke-linejoin:round;">
</g>
<g >
</g>
<g style="fill:#000000; fill-opacity:1.0000; 
stroke:#000000; stroke-width:0.0212; stroke-opacity:1; 
stroke-linecap:round; stroke-linejoin:round;">
</g>
<g style="fill:#000000; fill-opacity:1.0000; 
stroke:#000000; stroke-width:0.0000; stroke-opacity:1; 
stroke-linecap:round; stroke-linejoin:round;">
<circle cx="45.7200" cy="132.0800" r="3.2000" /> 
</g>
<g style="fill:#000000; fill-opacity:1.0000; 
stroke:#000000; stroke-width:0.0212; stroke-opacity:1; 
stroke-linecap:round; stroke-linejoin:round;">
</g>
<g >
</g>
<g style="fill:#000000; fill-opacity:1.0000; 
stroke:#000000; stroke-width:0.0212; stroke-opacity:1; 
stroke-linecap:round; stroke-linejoin:round;">
</g>
<g style="fill:#000000; fill-opacity:1.0000; 
stroke:#000000; stroke-width:0.0000; stroke-opacity:1; 
stroke-linecap:round; stroke-linejoin:round;">
<circle cx="55.8800" cy="71.1200" r="3.7000" /> 
</g>
<g style="fill:#000000; fill-opacity:1.0000; 
stroke:#000000; stroke-width:0.0212; stroke-opacity:1; 
stroke-linecap:round; stroke-linejoin:round;">
</g>
<g >
</g>
<g style="fill:#000000; fill-opacity:1.0000; 
stroke:#000000; stroke-width:0.0212; stroke-opacity:1; 
stroke-linecap:round; stroke-linejoin:round;">
</g>
<g style="fill:#000000; fill-opacity:1.0000; 
stroke:#000000; stroke-width:0.0000; stroke-opacity:1; 
stroke-linecap:round; stroke-linejoin:round;">
<circle cx="55.8800" cy="111.7600" r="3.7000" /> 
</g>
<g style="fill:#000000; fill-opacity:1.0000; 
stroke:#000000; stroke-width:0.0212; stroke-opacity:1; 
stroke-linecap:round; stroke-linejoin:round;">
</g>
<g >
</g>
<g style="fill:#000000; fill-opacity:1.0000; 
stroke:#000000; stroke-width:0.0212; stroke-opacity:1; 
stroke-linecap:round; stroke-linejoin:round;">
</g>
<g style="fill:#000000; fill-opacity:1.0000; 
stroke:#000000; stroke-width:0.0000; stroke-opacity:1; 
stroke-linecap:round; stroke-linejoin:round;">
<circle cx="55.8800" cy="132.0800" r="3.2000" /> 
</g>
<g style="fill:#000000; fill-opacity:1.0000; 
stroke:#000000; stroke-width:0.0212; stroke-opacity:1; 
stroke-linecap:round; stroke-linejoin:round;">
</g>
<g >
</g>
<g style="fill:#000000; fill-opacity:1.0000; 
stroke:#000000; stroke-width:0.0212; stroke-opacity:1; 
stroke-linecap:round; stroke-linejoin:round;">
</g>
<g style="fill:#000000; fill-opacity:1.0000; 
stroke:#000000; stroke-width:0.0000; stroke-opacity:1; 
stroke-linecap:round; stroke-linejoin:round;">
<circle cx="55.8800" cy="91.4400" r="3.2000" /> 
</g>
<g style="fill:#000000; fill-opacity:1.0000; 
stroke:#000000; stroke-width:0.0212; stroke-opacity:1; 
stroke-linecap:round; stroke-linejoin:round;">
</g>
<g >
</g>
<g style="fill:#000000; fill-opacity:1.0000; 
stroke:#000000; stroke-width:0.0212; stroke-opacity:1; 
stroke-linecap:round; stroke-linejoin:round;">
</g>
<g style="fill:#000000; fill-opacity:1.0000; 
stroke:#000000; stroke-width:0.0000; stroke-opacity:1; 
stroke-linecap:round; stroke-linejoin:round;">
<circle cx="32.9000" cy="150.9000" r="1.8000" /> 
</g>
<g style="fill:#000000; fill-opacity:1.0000; 
stroke:#000000; stroke-width:0.0212; stroke-opacity:1; 
stroke-linecap:round; stroke-linejoin:round;">
</g>
<g style="fill:#000000; fill-opacity:1.0000; 
stroke:#000000; stroke-width:0.0000; stroke-opacity:1; 
stroke-linecap:round; stroke-linejoin:round;">
<circle cx="32.9000" cy="150.9000" r="2.5000" /> 
</g>
<g style="fill:#000000; fill-opacity:1.0000; 
stroke:#000000; stroke-width:0.0212; stroke-opacity:1; 
stroke-linecap:round; stroke-linejoin:round;">
</g>
<g >
</g>
<g style="fill:#000000; fill-opacity:1.0000; 
stroke:#000000; stroke-width:0.0212; stroke-opacity:1; 
stroke-linecap:round; stroke-linejoin:round;">
</g>
<g style="fill:#000000; fill-opacity:1.0000; 
stroke:#000000; stroke-width:0.0000; stroke-opacity:1; 
stroke-linecap:round; stroke-linejoin:round;">
<circle cx="32.9000" cy="28.4000" r="1.8000" /> 
</g>
<g style="fill:#000000; fill-opacity:1.0000; 
stroke:#000000; stroke-width:0.0212; stroke-opacity:1; 
stroke-linecap:round; stroke-linejoin:round;">
</g>
<g style="fill:#000000; fill-opacity:1.0000; 
stroke:#000000; stroke-width:0.0000; stroke-opacity:1; 
stroke-linecap:round; stroke-linejoin:round;">
<circle cx="32.9000" cy="28.4000" r="2.5000" /> 
</g>
<g style="fill:#000000; fill-opacity:1.0000; 
stroke:#000000; stroke-width:0.0212; stroke-opacity:1; 
stroke-linecap:round; stroke-linejoin:round;">
</g>
<g >
</g>
<g >
</g>
<g >
</g>
</g> 
</svg>
