<?xml version="1.0" encoding="utf-8" standalone="no"?>
<!DOCTYPE svg PUBLIC "-//W3C//DTD SVG 1.1//EN"
  "http://www.w3.org/Graphics/SVG/1.1/DTD/svg11.dtd">
<!-- Created with matplotlib (https://matplotlib.org/) -->
<svg height="402.287625pt" version="1.1" viewBox="0 0 1063.760938 402.287625" width="1063.760938pt" xmlns="http://www.w3.org/2000/svg" xmlns:xlink="http://www.w3.org/1999/xlink">
 <metadata>
  <rdf:RDF xmlns:cc="http://creativecommons.org/ns#" xmlns:dc="http://purl.org/dc/elements/1.1/" xmlns:rdf="http://www.w3.org/1999/02/22-rdf-syntax-ns#">
   <cc:Work>
    <dc:type rdf:resource="http://purl.org/dc/dcmitype/StillImage"/>
    <dc:date>2021-01-19T14:58:26.139945</dc:date>
    <dc:format>image/svg+xml</dc:format>
    <dc:creator>
     <cc:Agent>
      <dc:title>Matplotlib v3.3.3, https://matplotlib.org/</dc:title>
     </cc:Agent>
    </dc:creator>
   </cc:Work>
  </rdf:RDF>
 </metadata>
 <defs>
  <style type="text/css">*{stroke-linecap:butt;stroke-linejoin:round;}</style>
 </defs>
 <g id="figure_1">
  <g id="patch_1">
   <path d="M 0 402.287625 
L 1063.760938 402.287625 
L 1063.760938 0 
L 0 0 
z
" style="fill:none;"/>
  </g>
  <g id="axes_1">
   <g id="patch_2">
    <path d="M 52.160938 333.36 
L 1056.560938 333.36 
L 1056.560938 7.2 
L 52.160938 7.2 
z
" style="fill:#ffffff;"/>
   </g>
   <g id="matplotlib.axis_1">
    <g id="xtick_1">
     <g id="line2d_1">
      <path clip-path="url(#pa492d48231)" d="M 97.736221 333.36 
L 97.736221 7.2 
" style="fill:none;stroke:#b0b0b0;stroke-linecap:square;stroke-width:0.8;"/>
     </g>
     <g id="line2d_2">
      <defs>
       <path d="M 0 0 
L 0 3.5 
" id="m323bd33047" style="stroke:#000000;stroke-width:0.8;"/>
      </defs>
      <g>
       <use style="stroke:#000000;stroke-width:0.8;" x="97.736221" xlink:href="#m323bd33047" y="333.36"/>
      </g>
     </g>
     <g id="text_1">
      <!-- 100.0 -->
      <g transform="translate(83.422158 347.958438)scale(0.1 -0.1)">
       <defs>
        <path d="M 12.40625 8.296875 
L 28.515625 8.296875 
L 28.515625 63.921875 
L 10.984375 60.40625 
L 10.984375 69.390625 
L 28.421875 72.90625 
L 38.28125 72.90625 
L 38.28125 8.296875 
L 54.390625 8.296875 
L 54.390625 0 
L 12.40625 0 
z
" id="DejaVuSans-49"/>
        <path d="M 31.78125 66.40625 
Q 24.171875 66.40625 20.328125 58.90625 
Q 16.5 51.421875 16.5 36.375 
Q 16.5 21.390625 20.328125 13.890625 
Q 24.171875 6.390625 31.78125 6.390625 
Q 39.453125 6.390625 43.28125 13.890625 
Q 47.125 21.390625 47.125 36.375 
Q 47.125 51.421875 43.28125 58.90625 
Q 39.453125 66.40625 31.78125 66.40625 
z
M 31.78125 74.21875 
Q 44.046875 74.21875 50.515625 64.515625 
Q 56.984375 54.828125 56.984375 36.375 
Q 56.984375 17.96875 50.515625 8.265625 
Q 44.046875 -1.421875 31.78125 -1.421875 
Q 19.53125 -1.421875 13.0625 8.265625 
Q 6.59375 17.96875 6.59375 36.375 
Q 6.59375 54.828125 13.0625 64.515625 
Q 19.53125 74.21875 31.78125 74.21875 
z
" id="DejaVuSans-48"/>
        <path d="M 10.6875 12.40625 
L 21 12.40625 
L 21 0 
L 10.6875 0 
z
" id="DejaVuSans-46"/>
       </defs>
       <use xlink:href="#DejaVuSans-49"/>
       <use x="63.623047" xlink:href="#DejaVuSans-48"/>
       <use x="127.246094" xlink:href="#DejaVuSans-48"/>
       <use x="190.869141" xlink:href="#DejaVuSans-46"/>
       <use x="222.65625" xlink:href="#DejaVuSans-48"/>
      </g>
     </g>
    </g>
    <g id="xtick_2">
     <g id="line2d_3">
      <path clip-path="url(#pa492d48231)" d="M 211.882492 333.36 
L 211.882492 7.2 
" style="fill:none;stroke:#b0b0b0;stroke-linecap:square;stroke-width:0.8;"/>
     </g>
     <g id="line2d_4">
      <g>
       <use style="stroke:#000000;stroke-width:0.8;" x="211.882492" xlink:href="#m323bd33047" y="333.36"/>
      </g>
     </g>
     <g id="text_2">
      <!-- 100.5 -->
      <g transform="translate(197.568429 347.958438)scale(0.1 -0.1)">
       <defs>
        <path d="M 10.796875 72.90625 
L 49.515625 72.90625 
L 49.515625 64.59375 
L 19.828125 64.59375 
L 19.828125 46.734375 
Q 21.96875 47.46875 24.109375 47.828125 
Q 26.265625 48.1875 28.421875 48.1875 
Q 40.625 48.1875 47.75 41.5 
Q 54.890625 34.8125 54.890625 23.390625 
Q 54.890625 11.625 47.5625 5.09375 
Q 40.234375 -1.421875 26.90625 -1.421875 
Q 22.3125 -1.421875 17.546875 -0.640625 
Q 12.796875 0.140625 7.71875 1.703125 
L 7.71875 11.625 
Q 12.109375 9.234375 16.796875 8.0625 
Q 21.484375 6.890625 26.703125 6.890625 
Q 35.15625 6.890625 40.078125 11.328125 
Q 45.015625 15.765625 45.015625 23.390625 
Q 45.015625 31 40.078125 35.4375 
Q 35.15625 39.890625 26.703125 39.890625 
Q 22.75 39.890625 18.8125 39.015625 
Q 14.890625 38.140625 10.796875 36.28125 
z
" id="DejaVuSans-53"/>
       </defs>
       <use xlink:href="#DejaVuSans-49"/>
       <use x="63.623047" xlink:href="#DejaVuSans-48"/>
       <use x="127.246094" xlink:href="#DejaVuSans-48"/>
       <use x="190.869141" xlink:href="#DejaVuSans-46"/>
       <use x="222.65625" xlink:href="#DejaVuSans-53"/>
      </g>
     </g>
    </g>
    <g id="xtick_3">
     <g id="line2d_5">
      <path clip-path="url(#pa492d48231)" d="M 326.028763 333.36 
L 326.028763 7.2 
" style="fill:none;stroke:#b0b0b0;stroke-linecap:square;stroke-width:0.8;"/>
     </g>
     <g id="line2d_6">
      <g>
       <use style="stroke:#000000;stroke-width:0.8;" x="326.028763" xlink:href="#m323bd33047" y="333.36"/>
      </g>
     </g>
     <g id="text_3">
      <!-- 101.0 -->
      <g transform="translate(311.714701 347.958438)scale(0.1 -0.1)">
       <use xlink:href="#DejaVuSans-49"/>
       <use x="63.623047" xlink:href="#DejaVuSans-48"/>
       <use x="127.246094" xlink:href="#DejaVuSans-49"/>
       <use x="190.869141" xlink:href="#DejaVuSans-46"/>
       <use x="222.65625" xlink:href="#DejaVuSans-48"/>
      </g>
     </g>
    </g>
    <g id="xtick_4">
     <g id="line2d_7">
      <path clip-path="url(#pa492d48231)" d="M 440.175035 333.36 
L 440.175035 7.2 
" style="fill:none;stroke:#b0b0b0;stroke-linecap:square;stroke-width:0.8;"/>
     </g>
     <g id="line2d_8">
      <g>
       <use style="stroke:#000000;stroke-width:0.8;" x="440.175035" xlink:href="#m323bd33047" y="333.36"/>
      </g>
     </g>
     <g id="text_4">
      <!-- 101.5 -->
      <g transform="translate(425.860972 347.958438)scale(0.1 -0.1)">
       <use xlink:href="#DejaVuSans-49"/>
       <use x="63.623047" xlink:href="#DejaVuSans-48"/>
       <use x="127.246094" xlink:href="#DejaVuSans-49"/>
       <use x="190.869141" xlink:href="#DejaVuSans-46"/>
       <use x="222.65625" xlink:href="#DejaVuSans-53"/>
      </g>
     </g>
    </g>
    <g id="xtick_5">
     <g id="line2d_9">
      <path clip-path="url(#pa492d48231)" d="M 554.321306 333.36 
L 554.321306 7.2 
" style="fill:none;stroke:#b0b0b0;stroke-linecap:square;stroke-width:0.8;"/>
     </g>
     <g id="line2d_10">
      <g>
       <use style="stroke:#000000;stroke-width:0.8;" x="554.321306" xlink:href="#m323bd33047" y="333.36"/>
      </g>
     </g>
     <g id="text_5">
      <!-- 102.0 -->
      <g transform="translate(540.007244 347.958438)scale(0.1 -0.1)">
       <defs>
        <path d="M 19.1875 8.296875 
L 53.609375 8.296875 
L 53.609375 0 
L 7.328125 0 
L 7.328125 8.296875 
Q 12.9375 14.109375 22.625 23.890625 
Q 32.328125 33.6875 34.8125 36.53125 
Q 39.546875 41.84375 41.421875 45.53125 
Q 43.3125 49.21875 43.3125 52.78125 
Q 43.3125 58.59375 39.234375 62.25 
Q 35.15625 65.921875 28.609375 65.921875 
Q 23.96875 65.921875 18.8125 64.3125 
Q 13.671875 62.703125 7.8125 59.421875 
L 7.8125 69.390625 
Q 13.765625 71.78125 18.9375 73 
Q 24.125 74.21875 28.421875 74.21875 
Q 39.75 74.21875 46.484375 68.546875 
Q 53.21875 62.890625 53.21875 53.421875 
Q 53.21875 48.921875 51.53125 44.890625 
Q 49.859375 40.875 45.40625 35.40625 
Q 44.1875 33.984375 37.640625 27.21875 
Q 31.109375 20.453125 19.1875 8.296875 
z
" id="DejaVuSans-50"/>
       </defs>
       <use xlink:href="#DejaVuSans-49"/>
       <use x="63.623047" xlink:href="#DejaVuSans-48"/>
       <use x="127.246094" xlink:href="#DejaVuSans-50"/>
       <use x="190.869141" xlink:href="#DejaVuSans-46"/>
       <use x="222.65625" xlink:href="#DejaVuSans-48"/>
      </g>
     </g>
    </g>
    <g id="xtick_6">
     <g id="line2d_11">
      <path clip-path="url(#pa492d48231)" d="M 668.467578 333.36 
L 668.467578 7.2 
" style="fill:none;stroke:#b0b0b0;stroke-linecap:square;stroke-width:0.8;"/>
     </g>
     <g id="line2d_12">
      <g>
       <use style="stroke:#000000;stroke-width:0.8;" x="668.467578" xlink:href="#m323bd33047" y="333.36"/>
      </g>
     </g>
     <g id="text_6">
      <!-- 102.5 -->
      <g transform="translate(654.153515 347.958438)scale(0.1 -0.1)">
       <use xlink:href="#DejaVuSans-49"/>
       <use x="63.623047" xlink:href="#DejaVuSans-48"/>
       <use x="127.246094" xlink:href="#DejaVuSans-50"/>
       <use x="190.869141" xlink:href="#DejaVuSans-46"/>
       <use x="222.65625" xlink:href="#DejaVuSans-53"/>
      </g>
     </g>
    </g>
    <g id="xtick_7">
     <g id="line2d_13">
      <path clip-path="url(#pa492d48231)" d="M 782.613849 333.36 
L 782.613849 7.2 
" style="fill:none;stroke:#b0b0b0;stroke-linecap:square;stroke-width:0.8;"/>
     </g>
     <g id="line2d_14">
      <g>
       <use style="stroke:#000000;stroke-width:0.8;" x="782.613849" xlink:href="#m323bd33047" y="333.36"/>
      </g>
     </g>
     <g id="text_7">
      <!-- 103.0 -->
      <g transform="translate(768.299787 347.958438)scale(0.1 -0.1)">
       <defs>
        <path d="M 40.578125 39.3125 
Q 47.65625 37.796875 51.625 33 
Q 55.609375 28.21875 55.609375 21.1875 
Q 55.609375 10.40625 48.1875 4.484375 
Q 40.765625 -1.421875 27.09375 -1.421875 
Q 22.515625 -1.421875 17.65625 -0.515625 
Q 12.796875 0.390625 7.625 2.203125 
L 7.625 11.71875 
Q 11.71875 9.328125 16.59375 8.109375 
Q 21.484375 6.890625 26.8125 6.890625 
Q 36.078125 6.890625 40.9375 10.546875 
Q 45.796875 14.203125 45.796875 21.1875 
Q 45.796875 27.640625 41.28125 31.265625 
Q 36.765625 34.90625 28.71875 34.90625 
L 20.21875 34.90625 
L 20.21875 43.015625 
L 29.109375 43.015625 
Q 36.375 43.015625 40.234375 45.921875 
Q 44.09375 48.828125 44.09375 54.296875 
Q 44.09375 59.90625 40.109375 62.90625 
Q 36.140625 65.921875 28.71875 65.921875 
Q 24.65625 65.921875 20.015625 65.03125 
Q 15.375 64.15625 9.8125 62.3125 
L 9.8125 71.09375 
Q 15.4375 72.65625 20.34375 73.4375 
Q 25.25 74.21875 29.59375 74.21875 
Q 40.828125 74.21875 47.359375 69.109375 
Q 53.90625 64.015625 53.90625 55.328125 
Q 53.90625 49.265625 50.4375 45.09375 
Q 46.96875 40.921875 40.578125 39.3125 
z
" id="DejaVuSans-51"/>
       </defs>
       <use xlink:href="#DejaVuSans-49"/>
       <use x="63.623047" xlink:href="#DejaVuSans-48"/>
       <use x="127.246094" xlink:href="#DejaVuSans-51"/>
       <use x="190.869141" xlink:href="#DejaVuSans-46"/>
       <use x="222.65625" xlink:href="#DejaVuSans-48"/>
      </g>
     </g>
    </g>
    <g id="xtick_8">
     <g id="line2d_15">
      <path clip-path="url(#pa492d48231)" d="M 896.760121 333.36 
L 896.760121 7.2 
" style="fill:none;stroke:#b0b0b0;stroke-linecap:square;stroke-width:0.8;"/>
     </g>
     <g id="line2d_16">
      <g>
       <use style="stroke:#000000;stroke-width:0.8;" x="896.760121" xlink:href="#m323bd33047" y="333.36"/>
      </g>
     </g>
     <g id="text_8">
      <!-- 103.5 -->
      <g transform="translate(882.446058 347.958438)scale(0.1 -0.1)">
       <use xlink:href="#DejaVuSans-49"/>
       <use x="63.623047" xlink:href="#DejaVuSans-48"/>
       <use x="127.246094" xlink:href="#DejaVuSans-51"/>
       <use x="190.869141" xlink:href="#DejaVuSans-46"/>
       <use x="222.65625" xlink:href="#DejaVuSans-53"/>
      </g>
     </g>
    </g>
    <g id="xtick_9">
     <g id="line2d_17">
      <path clip-path="url(#pa492d48231)" d="M 1010.906392 333.36 
L 1010.906392 7.2 
" style="fill:none;stroke:#b0b0b0;stroke-linecap:square;stroke-width:0.8;"/>
     </g>
     <g id="line2d_18">
      <g>
       <use style="stroke:#000000;stroke-width:0.8;" x="1010.906392" xlink:href="#m323bd33047" y="333.36"/>
      </g>
     </g>
     <g id="text_9">
      <!-- 104.0 -->
      <g transform="translate(996.59233 347.958438)scale(0.1 -0.1)">
       <defs>
        <path d="M 37.796875 64.3125 
L 12.890625 25.390625 
L 37.796875 25.390625 
z
M 35.203125 72.90625 
L 47.609375 72.90625 
L 47.609375 25.390625 
L 58.015625 25.390625 
L 58.015625 17.1875 
L 47.609375 17.1875 
L 47.609375 0 
L 37.796875 0 
L 37.796875 17.1875 
L 4.890625 17.1875 
L 4.890625 26.703125 
z
" id="DejaVuSans-52"/>
       </defs>
       <use xlink:href="#DejaVuSans-49"/>
       <use x="63.623047" xlink:href="#DejaVuSans-48"/>
       <use x="127.246094" xlink:href="#DejaVuSans-52"/>
       <use x="190.869141" xlink:href="#DejaVuSans-46"/>
       <use x="222.65625" xlink:href="#DejaVuSans-48"/>
      </g>
     </g>
    </g>
    <g id="text_10">
     <!-- t [ms] -->
     <g transform="translate(539.435156 361.636563)scale(0.1 -0.1)">
      <defs>
       <path d="M 18.3125 70.21875 
L 18.3125 54.6875 
L 36.8125 54.6875 
L 36.8125 47.703125 
L 18.3125 47.703125 
L 18.3125 18.015625 
Q 18.3125 11.328125 20.140625 9.421875 
Q 21.96875 7.515625 27.59375 7.515625 
L 36.8125 7.515625 
L 36.8125 0 
L 27.59375 0 
Q 17.1875 0 13.234375 3.875 
Q 9.28125 7.765625 9.28125 18.015625 
L 9.28125 47.703125 
L 2.6875 47.703125 
L 2.6875 54.6875 
L 9.28125 54.6875 
L 9.28125 70.21875 
z
" id="DejaVuSans-116"/>
       <path id="DejaVuSans-32"/>
       <path d="M 8.59375 75.984375 
L 29.296875 75.984375 
L 29.296875 69 
L 17.578125 69 
L 17.578125 -6.203125 
L 29.296875 -6.203125 
L 29.296875 -13.1875 
L 8.59375 -13.1875 
z
" id="DejaVuSans-91"/>
       <path d="M 52 44.1875 
Q 55.375 50.25 60.0625 53.125 
Q 64.75 56 71.09375 56 
Q 79.640625 56 84.28125 50.015625 
Q 88.921875 44.046875 88.921875 33.015625 
L 88.921875 0 
L 79.890625 0 
L 79.890625 32.71875 
Q 79.890625 40.578125 77.09375 44.375 
Q 74.3125 48.1875 68.609375 48.1875 
Q 61.625 48.1875 57.5625 43.546875 
Q 53.515625 38.921875 53.515625 30.90625 
L 53.515625 0 
L 44.484375 0 
L 44.484375 32.71875 
Q 44.484375 40.625 41.703125 44.40625 
Q 38.921875 48.1875 33.109375 48.1875 
Q 26.21875 48.1875 22.15625 43.53125 
Q 18.109375 38.875 18.109375 30.90625 
L 18.109375 0 
L 9.078125 0 
L 9.078125 54.6875 
L 18.109375 54.6875 
L 18.109375 46.1875 
Q 21.1875 51.21875 25.484375 53.609375 
Q 29.78125 56 35.6875 56 
Q 41.65625 56 45.828125 52.96875 
Q 50 49.953125 52 44.1875 
z
" id="DejaVuSans-109"/>
       <path d="M 44.28125 53.078125 
L 44.28125 44.578125 
Q 40.484375 46.53125 36.375 47.5 
Q 32.28125 48.484375 27.875 48.484375 
Q 21.1875 48.484375 17.84375 46.4375 
Q 14.5 44.390625 14.5 40.28125 
Q 14.5 37.15625 16.890625 35.375 
Q 19.28125 33.59375 26.515625 31.984375 
L 29.59375 31.296875 
Q 39.15625 29.25 43.1875 25.515625 
Q 47.21875 21.78125 47.21875 15.09375 
Q 47.21875 7.46875 41.1875 3.015625 
Q 35.15625 -1.421875 24.609375 -1.421875 
Q 20.21875 -1.421875 15.453125 -0.5625 
Q 10.6875 0.296875 5.421875 2 
L 5.421875 11.28125 
Q 10.40625 8.6875 15.234375 7.390625 
Q 20.0625 6.109375 24.8125 6.109375 
Q 31.15625 6.109375 34.5625 8.28125 
Q 37.984375 10.453125 37.984375 14.40625 
Q 37.984375 18.0625 35.515625 20.015625 
Q 33.0625 21.96875 24.703125 23.78125 
L 21.578125 24.515625 
Q 13.234375 26.265625 9.515625 29.90625 
Q 5.8125 33.546875 5.8125 39.890625 
Q 5.8125 47.609375 11.28125 51.796875 
Q 16.75 56 26.8125 56 
Q 31.78125 56 36.171875 55.265625 
Q 40.578125 54.546875 44.28125 53.078125 
z
" id="DejaVuSans-115"/>
       <path d="M 30.421875 75.984375 
L 30.421875 -13.1875 
L 9.71875 -13.1875 
L 9.71875 -6.203125 
L 21.390625 -6.203125 
L 21.390625 69 
L 9.71875 69 
L 9.71875 75.984375 
z
" id="DejaVuSans-93"/>
      </defs>
      <use xlink:href="#DejaVuSans-116"/>
      <use x="39.208984" xlink:href="#DejaVuSans-32"/>
      <use x="70.996094" xlink:href="#DejaVuSans-91"/>
      <use x="110.009766" xlink:href="#DejaVuSans-109"/>
      <use x="207.421875" xlink:href="#DejaVuSans-115"/>
      <use x="259.521484" xlink:href="#DejaVuSans-93"/>
     </g>
    </g>
   </g>
   <g id="matplotlib.axis_2">
    <g id="ytick_1">
     <g id="line2d_19">
      <path clip-path="url(#pa492d48231)" d="M 52.160938 300.069646 
L 1056.560938 300.069646 
" style="fill:none;stroke:#b0b0b0;stroke-linecap:square;stroke-width:0.8;"/>
     </g>
     <g id="line2d_20">
      <defs>
       <path d="M 0 0 
L -3.5 0 
" id="m812c7e3e33" style="stroke:#000000;stroke-width:0.8;"/>
      </defs>
      <g>
       <use style="stroke:#000000;stroke-width:0.8;" x="52.160938" xlink:href="#m812c7e3e33" y="300.069646"/>
      </g>
     </g>
     <g id="text_11">
      <!-- −2.0 -->
      <g transform="translate(20.878125 303.868864)scale(0.1 -0.1)">
       <defs>
        <path d="M 10.59375 35.5 
L 73.1875 35.5 
L 73.1875 27.203125 
L 10.59375 27.203125 
z
" id="DejaVuSans-8722"/>
       </defs>
       <use xlink:href="#DejaVuSans-8722"/>
       <use x="83.789062" xlink:href="#DejaVuSans-50"/>
       <use x="147.412109" xlink:href="#DejaVuSans-46"/>
       <use x="179.199219" xlink:href="#DejaVuSans-48"/>
      </g>
     </g>
    </g>
    <g id="ytick_2">
     <g id="line2d_21">
      <path clip-path="url(#pa492d48231)" d="M 52.160938 261.042038 
L 1056.560938 261.042038 
" style="fill:none;stroke:#b0b0b0;stroke-linecap:square;stroke-width:0.8;"/>
     </g>
     <g id="line2d_22">
      <g>
       <use style="stroke:#000000;stroke-width:0.8;" x="52.160938" xlink:href="#m812c7e3e33" y="261.042038"/>
      </g>
     </g>
     <g id="text_12">
      <!-- −1.5 -->
      <g transform="translate(20.878125 264.841256)scale(0.1 -0.1)">
       <use xlink:href="#DejaVuSans-8722"/>
       <use x="83.789062" xlink:href="#DejaVuSans-49"/>
       <use x="147.412109" xlink:href="#DejaVuSans-46"/>
       <use x="179.199219" xlink:href="#DejaVuSans-53"/>
      </g>
     </g>
    </g>
    <g id="ytick_3">
     <g id="line2d_23">
      <path clip-path="url(#pa492d48231)" d="M 52.160938 222.01443 
L 1056.560938 222.01443 
" style="fill:none;stroke:#b0b0b0;stroke-linecap:square;stroke-width:0.8;"/>
     </g>
     <g id="line2d_24">
      <g>
       <use style="stroke:#000000;stroke-width:0.8;" x="52.160938" xlink:href="#m812c7e3e33" y="222.01443"/>
      </g>
     </g>
     <g id="text_13">
      <!-- −1.0 -->
      <g transform="translate(20.878125 225.813649)scale(0.1 -0.1)">
       <use xlink:href="#DejaVuSans-8722"/>
       <use x="83.789062" xlink:href="#DejaVuSans-49"/>
       <use x="147.412109" xlink:href="#DejaVuSans-46"/>
       <use x="179.199219" xlink:href="#DejaVuSans-48"/>
      </g>
     </g>
    </g>
    <g id="ytick_4">
     <g id="line2d_25">
      <path clip-path="url(#pa492d48231)" d="M 52.160938 182.986822 
L 1056.560938 182.986822 
" style="fill:none;stroke:#b0b0b0;stroke-linecap:square;stroke-width:0.8;"/>
     </g>
     <g id="line2d_26">
      <g>
       <use style="stroke:#000000;stroke-width:0.8;" x="52.160938" xlink:href="#m812c7e3e33" y="182.986822"/>
      </g>
     </g>
     <g id="text_14">
      <!-- −0.5 -->
      <g transform="translate(20.878125 186.786041)scale(0.1 -0.1)">
       <use xlink:href="#DejaVuSans-8722"/>
       <use x="83.789062" xlink:href="#DejaVuSans-48"/>
       <use x="147.412109" xlink:href="#DejaVuSans-46"/>
       <use x="179.199219" xlink:href="#DejaVuSans-53"/>
      </g>
     </g>
    </g>
    <g id="ytick_5">
     <g id="line2d_27">
      <path clip-path="url(#pa492d48231)" d="M 52.160938 143.959214 
L 1056.560938 143.959214 
" style="fill:none;stroke:#b0b0b0;stroke-linecap:square;stroke-width:0.8;"/>
     </g>
     <g id="line2d_28">
      <g>
       <use style="stroke:#000000;stroke-width:0.8;" x="52.160938" xlink:href="#m812c7e3e33" y="143.959214"/>
      </g>
     </g>
     <g id="text_15">
      <!-- 0.0 -->
      <g transform="translate(29.257813 147.758433)scale(0.1 -0.1)">
       <use xlink:href="#DejaVuSans-48"/>
       <use x="63.623047" xlink:href="#DejaVuSans-46"/>
       <use x="95.410156" xlink:href="#DejaVuSans-48"/>
      </g>
     </g>
    </g>
    <g id="ytick_6">
     <g id="line2d_29">
      <path clip-path="url(#pa492d48231)" d="M 52.160938 104.931606 
L 1056.560938 104.931606 
" style="fill:none;stroke:#b0b0b0;stroke-linecap:square;stroke-width:0.8;"/>
     </g>
     <g id="line2d_30">
      <g>
       <use style="stroke:#000000;stroke-width:0.8;" x="52.160938" xlink:href="#m812c7e3e33" y="104.931606"/>
      </g>
     </g>
     <g id="text_16">
      <!-- 0.5 -->
      <g transform="translate(29.257813 108.730825)scale(0.1 -0.1)">
       <use xlink:href="#DejaVuSans-48"/>
       <use x="63.623047" xlink:href="#DejaVuSans-46"/>
       <use x="95.410156" xlink:href="#DejaVuSans-53"/>
      </g>
     </g>
    </g>
    <g id="ytick_7">
     <g id="line2d_31">
      <path clip-path="url(#pa492d48231)" d="M 52.160938 65.903998 
L 1056.560938 65.903998 
" style="fill:none;stroke:#b0b0b0;stroke-linecap:square;stroke-width:0.8;"/>
     </g>
     <g id="line2d_32">
      <g>
       <use style="stroke:#000000;stroke-width:0.8;" x="52.160938" xlink:href="#m812c7e3e33" y="65.903998"/>
      </g>
     </g>
     <g id="text_17">
      <!-- 1.0 -->
      <g transform="translate(29.257813 69.703217)scale(0.1 -0.1)">
       <use xlink:href="#DejaVuSans-49"/>
       <use x="63.623047" xlink:href="#DejaVuSans-46"/>
       <use x="95.410156" xlink:href="#DejaVuSans-48"/>
      </g>
     </g>
    </g>
    <g id="ytick_8">
     <g id="line2d_33">
      <path clip-path="url(#pa492d48231)" d="M 52.160938 26.87639 
L 1056.560938 26.87639 
" style="fill:none;stroke:#b0b0b0;stroke-linecap:square;stroke-width:0.8;"/>
     </g>
     <g id="line2d_34">
      <g>
       <use style="stroke:#000000;stroke-width:0.8;" x="52.160938" xlink:href="#m812c7e3e33" y="26.87639"/>
      </g>
     </g>
     <g id="text_18">
      <!-- 1.5 -->
      <g transform="translate(29.257813 30.675609)scale(0.1 -0.1)">
       <use xlink:href="#DejaVuSans-49"/>
       <use x="63.623047" xlink:href="#DejaVuSans-46"/>
       <use x="95.410156" xlink:href="#DejaVuSans-53"/>
      </g>
     </g>
    </g>
    <g id="text_19">
     <!-- [V] -->
     <g transform="translate(14.798438 177.601875)rotate(-90)scale(0.1 -0.1)">
      <defs>
       <path d="M 28.609375 0 
L 0.78125 72.90625 
L 11.078125 72.90625 
L 34.1875 11.53125 
L 57.328125 72.90625 
L 67.578125 72.90625 
L 39.796875 0 
z
" id="DejaVuSans-86"/>
      </defs>
      <use xlink:href="#DejaVuSans-91"/>
      <use x="39.013672" xlink:href="#DejaVuSans-86"/>
      <use x="107.421875" xlink:href="#DejaVuSans-93"/>
     </g>
    </g>
   </g>
   <g id="line2d_35">
    <path clip-path="url(#pa492d48231)" d="M 97.828681 142.934376 
L 109.928186 143.006424 
L 174.306683 142.983721 
L 180.389162 142.891103 
L 181.423577 142.372056 
L 181.65187 142.558705 
L 181.880162 143.093671 
L 182.108455 144.062137 
L 182.56504 147.651312 
L 183.021625 154.141646 
L 183.47821 164.517165 
L 183.934795 179.78046 
L 184.619673 213.227591 
L 185.076258 237.732107 
L 185.22348 237.895766 
L 185.494657 236.242636 
L 186.03228 233.05359 
L 190.826423 209.045818 
L 193.109348 199.307196 
L 195.392274 190.543036 
L 197.675199 182.656563 
L 199.958125 175.559974 
L 202.24105 169.173939 
L 204.523976 163.426948 
L 206.806901 158.254619 
L 209.089826 153.599022 
L 211.372752 149.408047 
L 213.88397 145.278829 
L 216.395188 141.599392 
L 218.906406 138.32007 
L 221.417624 135.396653 
L 223.928842 132.789757 
L 226.668352 130.265647 
L 229.407863 128.035645 
L 232.375666 125.908665 
L 235.571761 123.899003 
L 238.767857 121.939279 
L 238.996149 121.690822 
L 239.224442 121.001743 
L 239.644013 117.301656 
L 240.553466 105.895468 
L 241.923222 88.893115 
L 242.836392 80.070122 
L 243.749562 73.432819 
L 244.662732 68.665964 
L 245.34761 66.085385 
L 246.032488 64.190094 
L 246.717365 62.850822 
L 247.402243 61.959645 
L 248.08712 61.427339 
L 248.771998 61.181386 
L 249.456876 61.162744 
L 250.370046 61.410662 
L 251.283216 61.890973 
L 252.652971 62.907304 
L 254.479312 64.587526 
L 258.360285 68.5766 
L 262.697843 72.924823 
L 266.122231 76.058203 
L 269.546619 78.897472 
L 272.971008 81.455003 
L 276.623688 83.897314 
L 280.276369 86.072673 
L 284.157342 88.1218 
L 288.266608 90.029259 
L 292.604166 91.784077 
L 297.170017 93.379413 
L 301.964161 94.812223 
L 306.986596 96.082837 
L 312.465617 97.238278 
L 318.401224 98.259618 
L 324.793415 99.135376 
L 331.870484 99.881848 
L 339.860723 100.49864 
L 349.677302 101.02043 
L 369.995338 102.036114 
L 383.008013 102.950196 
L 394.650933 103.988131 
L 405.15239 105.1434 
L 415.197262 106.47193 
L 424.785549 107.963204 
L 434.145543 109.64142 
L 443.505537 111.546083 
L 452.865531 113.678821 
L 462.453818 116.096522 
L 472.270398 118.806768 
L 482.315269 121.810462 
L 493.045019 125.25166 
L 504.916231 129.299119 
L 518.613784 134.213411 
L 538.93182 141.559592 
L 541.443038 142.077369 
L 544.639134 142.488154 
L 548.748399 142.76787 
L 554.912298 142.937087 
L 567.468388 143.007433 
L 636.869321 143.018004 
L 637.607337 142.699051 
L 638.292215 142.355978 
L 638.520508 142.527954 
L 638.7488 143.038284 
L 638.977093 143.973398 
L 639.433678 147.453203 
L 639.890263 153.752373 
L 640.346848 163.82214 
L 640.803433 178.639158 
L 641.488311 211.173902 
L 641.944896 237.46293 
L 642.115309 238.170053 
L 642.270357 236.475672 
L 642.412706 236.226868 
L 642.697753 234.504676 
L 643.300431 231.005902 
L 647.866282 208.400822 
L 650.149207 198.728278 
L 652.432133 190.022637 
L 654.715058 182.188677 
L 656.997984 175.139305 
L 659.280909 168.795737 
L 661.563834 163.086941 
L 663.84676 157.948964 
L 666.129685 153.324261 
L 668.412611 149.161074 
L 670.923829 145.059211 
L 673.435047 141.404094 
L 675.946265 138.146402 
L 678.457483 135.242219 
L 681.196993 132.431284 
L 683.936504 129.949313 
L 686.676014 127.755924 
L 689.643817 125.661753 
L 693.068205 123.535519 
L 695.122838 122.190809 
L 695.351131 121.903071 
L 695.579423 120.900247 
L 696.006156 116.877618 
L 696.885096 105.751083 
L 698.254851 88.821477 
L 699.168021 80.058851 
L 700.081192 73.469725 
L 700.994362 68.735481 
L 701.679239 66.172483 
L 702.364117 64.290304 
L 703.048995 62.960954 
L 703.733872 62.077085 
L 704.41875 61.550139 
L 705.103628 61.307937 
L 705.788505 61.29183 
L 706.701675 61.541611 
L 707.614846 62.022493 
L 708.984601 63.03799 
L 710.810941 64.715135 
L 714.691914 68.694496 
L 719.029473 73.030947 
L 722.453861 76.155595 
L 725.878249 78.986862 
L 729.302637 81.537151 
L 732.955318 83.972508 
L 736.607998 86.141642 
L 740.488972 88.184864 
L 744.598237 90.086796 
L 748.935796 91.836493 
L 753.501647 93.427118 
L 758.29579 94.855634 
L 763.318226 96.122382 
L 768.797247 97.274229 
L 774.732853 98.292295 
L 781.125044 99.165128 
L 788.202113 99.908958 
L 796.192352 100.523313 
L 806.008932 101.04195 
L 827.011845 102.079582 
L 840.02452 102.989378 
L 851.66744 104.025358 
L 862.168897 105.180402 
L 872.213769 106.50988 
L 881.802056 108.00289 
L 891.16205 109.683348 
L 900.522044 111.590612 
L 909.882039 113.726038 
L 919.470325 116.146395 
L 929.286905 118.85902 
L 939.331777 121.864528 
L 950.061526 125.30671 
L 961.932738 129.35384 
L 975.858583 134.34907 
L 995.948327 141.588822 
L 998.459545 142.096755 
L 1001.655641 142.499299 
L 1005.764907 142.773226 
L 1010.906392 142.922693 
L 1010.906392 142.922693 
" style="fill:none;stroke:#ffa500;stroke-linecap:square;stroke-width:1.5;"/>
   </g>
   <g id="line2d_36">
    <path clip-path="url(#pa492d48231)" d="M 97.895428 142.397074 
L 106.570544 142.664481 
L 120.039804 142.830592 
L 148.576372 142.909158 
L 180.378429 142.893213 
L 181.063307 142.616753 
L 181.291599 142.642958 
L 181.519892 142.891105 
L 181.748184 143.466416 
L 181.976477 144.451374 
L 182.433062 148.00309 
L 182.889647 154.378034 
L 183.346232 164.616575 
L 183.802817 179.844747 
L 184.487695 213.926698 
L 185.13221 247.833151 
L 185.565515 245.305121 
L 186.175005 242.341804 
L 187.54476 235.540251 
L 189.599393 225.990398 
L 192.110611 215.314208 
L 194.621829 205.62755 
L 197.133047 196.844265 
L 199.644265 188.880343 
L 202.155483 181.659602 
L 204.666701 175.112363 
L 207.177919 169.175566 
L 209.689137 163.791862 
L 212.200355 158.909368 
L 214.711573 154.480979 
L 217.451083 150.117911 
L 220.190594 146.194578 
L 222.930104 142.666019 
L 225.669615 139.491724 
L 228.409125 136.635004 
L 231.376928 133.859367 
L 234.573024 131.193182 
L 238.910582 127.727479 
L 239.138875 127.250864 
L 239.463757 124.65739 
L 239.948544 118.687872 
L 242.459762 84.414334 
L 243.372932 75.632408 
L 244.286102 69.039535 
L 245.199273 64.257208 
L 245.88415 61.628178 
L 246.569028 59.661768 
L 247.253905 58.237474 
L 247.938783 57.254598 
L 248.623661 56.629669 
L 249.308538 56.294171 
L 249.993416 56.191877 
L 250.906586 56.34019 
L 251.819756 56.736263 
L 252.961219 57.481266 
L 254.559267 58.829032 
L 257.070485 61.314909 
L 265.289016 69.697332 
L 268.941697 73.023377 
L 272.594378 76.044618 
L 276.247058 78.776159 
L 279.899739 81.240608 
L 283.780712 83.592719 
L 287.889978 85.813126 
L 291.999244 87.784159 
L 296.336802 89.622946 
L 300.902653 91.319839 
L 305.696796 92.868597 
L 310.947525 94.324656 
L 316.426546 95.6111 
L 322.362152 96.773603 
L 328.754343 97.796416 
L 335.831412 98.696062 
L 343.593358 99.4509 
L 352.496768 100.081572 
L 386.055771 102.17987 
L 397.013814 103.234709 
L 407.286978 104.447519 
L 416.875265 105.800253 
L 426.235259 107.343921 
L 435.366961 109.073416 
L 444.498662 111.029392 
L 453.630364 113.212679 
L 462.990358 115.682257 
L 472.578645 118.445493 
L 482.623517 121.576856 
L 493.353267 125.162374 
L 504.996186 129.292722 
L 518.693739 134.397711 
L 531.706414 139.235102 
L 534.902509 140.097433 
L 538.55519 140.847455 
L 542.664456 141.459147 
L 547.686892 141.967523 
L 553.85079 142.35454 
L 562.069322 142.634129 
L 574.625412 142.814064 
L 599.509299 142.902818 
L 637.253918 142.885979 
L 637.938795 142.606764 
L 638.167088 142.63095 
L 638.395381 142.874347 
L 638.623673 143.439553 
L 638.851966 144.407808 
L 639.308551 147.894453 
L 639.765136 154.139671 
L 640.221721 164.150134 
L 640.678306 179.018795 
L 641.363184 212.294219 
L 642.025121 247.589187 
L 643.862317 238.357324 
L 646.83012 224.525265 
L 649.341338 213.982479 
L 651.852556 204.420707 
L 654.363774 195.750242 
L 656.874992 187.888859 
L 659.38621 180.760959 
L 661.897428 174.297954 
L 664.408646 168.43744 
L 666.919864 163.122913 
L 669.431082 158.303078 
L 671.9423 153.931486 
L 674.68181 149.624299 
L 677.421321 145.751122 
L 680.160831 142.267537 
L 682.900342 139.13348 
L 685.868145 136.090535 
L 688.835948 133.371786 
L 692.032043 130.751299 
L 694.999846 128.376916 
L 695.228139 128.103208 
L 695.456431 127.571544 
L 695.859825 124.012011 
L 696.487528 115.763667 
L 698.313868 90.007403 
L 699.227038 80.022319 
L 700.140208 72.35514 
L 701.053379 66.697091 
L 701.966549 62.657498 
L 702.651426 60.473308 
L 703.336304 58.870629 
L 704.021182 57.741943 
L 704.706059 56.998409 
L 705.390937 56.566429 
L 706.075815 56.386003 
L 706.760692 56.407714 
L 707.673862 56.682886 
L 708.815325 57.319943 
L 710.18508 58.375119 
L 712.239713 60.298504 
L 716.577272 64.792977 
L 721.143122 69.3781 
L 724.795803 72.732715 
L 728.448484 75.782879 
L 732.101164 78.541666 
L 735.753845 81.031164 
L 739.634818 83.407442 
L 743.744084 85.650899 
L 747.85335 87.64259 
L 752.190908 89.500869 
L 756.756759 91.21596 
L 761.550902 92.781559 
L 766.573338 94.19457 
L 772.052359 95.504932 
L 777.987966 96.68966 
L 784.380157 97.732744 
L 791.228933 98.624902 
L 798.762587 99.383164 
L 807.437704 100.025076 
L 819.537208 100.664979 
L 832.549883 101.419103 
L 844.192803 102.326322 
L 855.150845 103.402768 
L 865.195717 104.610512 
L 874.784004 105.984768 
L 884.143998 107.551566 
L 893.2757 109.304926 
L 902.407401 111.28536 
L 911.539103 113.493005 
L 920.899097 115.98673 
L 930.487384 118.773124 
L 940.532256 121.926246 
L 951.262006 125.531334 
L 963.133218 129.761031 
L 977.059063 134.966928 
L 988.47369 139.199875 
L 991.669786 140.069831 
L 995.322466 140.82696 
L 999.431732 141.44468 
L 1004.225876 141.939346 
L 1010.389774 142.33812 
L 1010.906392 142.362877 
L 1010.906392 142.362877 
" style="fill:none;stroke:#90ee90;stroke-linecap:square;stroke-width:1.5;"/>
   </g>
   <g id="line2d_37">
    <path clip-path="url(#pa492d48231)" d="M 97.845759 140.888476 
L 107.434046 141.431192 
L 119.305258 141.87499 
L 135.057443 142.230161 
L 158.343283 142.511366 
L 179.346197 142.800715 
L 180.031074 142.811199 
L 180.715952 142.774382 
L 180.944244 142.891794 
L 181.172537 143.21238 
L 181.40083 143.833744 
L 181.857415 146.329469 
L 182.314 151.170479 
L 182.770585 159.416644 
L 183.22717 172.431757 
L 183.683755 191.762848 
L 184.14034 218.825586 
L 185.05351 287.947974 
L 185.229562 287.812964 
L 185.49628 286.361065 
L 186.391623 281.679482 
L 187.98967 273.573966 
L 191.414058 257.506732 
L 194.153569 245.779828 
L 196.893079 234.985577 
L 199.63259 225.051751 
L 202.372101 215.910471 
L 205.111611 207.498718 
L 207.851122 199.758281 
L 210.590632 192.635501 
L 213.330143 186.08096 
L 216.297946 179.568764 
L 219.265749 173.617041 
L 222.233552 168.177194 
L 225.201355 163.204596 
L 228.169158 158.658094 
L 231.136961 154.49847 
L 234.333057 150.404148 
L 238.898907 144.751698 
L 239.1272 144.092451 
L 239.558793 138.932136 
L 240.216953 126.806986 
L 242.271586 86.506595 
L 243.184757 72.860079 
L 244.097927 62.23219 
L 245.011097 54.192486 
L 245.924267 48.25218 
L 246.837437 43.972445 
L 247.522315 41.630852 
L 248.207193 39.890951 
L 248.89207 38.647444 
L 249.576948 37.812135 
L 250.261825 37.312275 
L 250.946703 37.087101 
L 251.631581 37.086732 
L 252.544751 37.365037 
L 253.457921 37.89077 
L 254.599384 38.803651 
L 256.197432 40.404302 
L 258.480357 43.055078 
L 269.894984 56.785914 
L 273.775957 60.888856 
L 277.428638 64.435368 
L 281.309611 67.887136 
L 285.190584 71.036256 
L 289.071558 73.906929 
L 293.180823 76.668233 
L 297.290089 79.167993 
L 301.627648 81.548236 
L 306.193498 83.793667 
L 310.987642 85.892209 
L 316.010078 87.834926 
L 321.260806 89.615974 
L 326.739827 91.232392 
L 332.447141 92.683785 
L 338.611039 94.017479 
L 345.231523 95.214826 
L 352.308592 96.263068 
L 360.070539 97.179822 
L 368.745655 97.969851 
L 381.986623 98.907158 
L 391.346617 99.684978 
L 400.250026 100.658569 
L 409.153435 101.857386 
L 417.828552 103.251804 
L 426.275376 104.836445 
L 434.493907 106.60182 
L 442.712439 108.592191 
L 450.930971 110.807923 
L 459.377795 113.316081 
L 468.052911 116.126699 
L 476.95632 119.243969 
L 486.544607 122.841649 
L 496.817772 126.938136 
L 514.852883 134.208381 
L 519.190441 135.538837 
L 523.984584 136.769528 
L 529.00702 137.830932 
L 534.714334 138.804536 
L 541.106525 139.66003 
L 548.411886 140.402889 
L 556.85871 141.030045 
L 566.903582 141.548053 
L 579.687965 141.97403 
L 596.809905 142.308082 
L 623.063548 142.574253 
L 635.84793 142.749516 
L 636.989393 142.79859 
L 637.674271 142.795441 
L 637.902563 142.974772 
L 638.130856 143.39149 
L 638.359148 144.138211 
L 638.815733 146.960571 
L 639.272318 152.248296 
L 639.728904 161.083523 
L 640.185489 174.831812 
L 640.642074 195.000272 
L 641.326951 239.979284 
L 642.011829 288.315805 
L 642.496906 285.684925 
L 643.638369 279.894206 
L 645.464709 270.77973 
L 647.975927 259.027674 
L 650.715438 247.181499 
L 653.454948 236.276176 
L 656.194459 226.239869 
L 658.933969 217.004219 
L 661.67348 208.505625 
L 664.41299 200.685298 
L 667.152501 193.489032 
L 669.892011 186.8669 
L 672.859815 180.28759 
L 675.827618 174.274544 
L 678.795421 168.778636 
L 681.763224 163.754835 
L 684.731027 159.161289 
L 687.69883 154.958509 
L 690.894925 150.819985 
L 695.232484 145.323613 
L 695.460776 144.525295 
L 695.917361 138.638959 
L 696.580273 126.193868 
L 698.406613 89.973193 
L 699.319784 75.711673 
L 700.232954 64.508758 
L 701.146124 55.986381 
L 702.059294 49.657078 
L 702.972464 45.069598 
L 703.885634 41.845489 
L 704.570512 40.136297 
L 705.25539 38.917249 
L 705.940267 38.101189 
L 706.625145 37.616322 
L 707.310023 37.402593 
L 707.9949 37.410782 
L 708.90807 37.696838 
L 709.821241 38.227039 
L 710.962703 39.142023 
L 712.560751 40.741081 
L 714.843677 43.38394 
L 726.030011 56.800155 
L 729.682692 60.671282 
L 733.335373 64.237022 
L 737.216346 67.708184 
L 741.097319 70.875308 
L 744.978292 73.762593 
L 749.087558 76.540025 
L 753.196824 79.054523 
L 757.534382 81.44894 
L 762.100233 83.707902 
L 766.666084 85.724344 
L 771.460227 87.606446 
L 776.482663 89.346096 
L 781.961684 91.002392 
L 787.668998 92.490369 
L 793.604604 93.812042 
L 799.996795 95.010605 
L 806.845571 96.071098 
L 814.379225 97.009877 
L 822.826049 97.827674 
L 833.099214 98.583981 
L 846.568474 99.591689 
L 855.471883 100.517941 
L 864.375292 101.66933 
L 873.050409 103.015762 
L 881.497233 104.552149 
L 889.715764 106.269644 
L 897.934296 108.211925 
L 906.152827 110.380049 
L 914.599652 112.840473 
L 923.274768 115.604149 
L 932.178177 118.676213 
L 941.538172 122.142033 
L 951.811336 126.19147 
L 963.225963 130.936737 
L 968.933277 133.238754 
L 973.270835 134.717103 
L 977.836686 136.029005 
L 982.630829 137.175182 
L 987.881558 138.203368 
L 993.817164 139.132632 
L 1000.437648 139.938261 
L 1007.971302 140.62866 
L 1010.906392 140.846045 
L 1010.906392 140.846045 
" style="fill:none;stroke:#ff00ff;stroke-linecap:square;stroke-width:1.5;"/>
   </g>
   <g id="line2d_38">
    <path clip-path="url(#pa492d48231)" d="M 97.815483 140.698232 
L 108.31694 141.259538 
L 121.329615 141.723341 
L 138.679848 142.104881 
L 164.476905 142.426924 
L 178.859336 142.645618 
L 180.229091 142.746254 
L 180.685676 142.834633 
L 180.913969 143.05822 
L 181.142261 143.535515 
L 181.370554 144.364842 
L 181.827139 147.464984 
L 182.283724 153.269999 
L 182.740309 163.022891 
L 183.196894 178.333972 
L 183.653479 201.048896 
L 184.110064 232.89078 
L 185.169831 318.173419 
L 185.442075 316.351699 
L 185.787504 314.182654 
L 186.700675 308.630276 
L 188.298722 299.255454 
L 191.723111 280.682555 
L 194.462621 267.123279 
L 197.202132 254.638535 
L 199.941642 243.145274 
L 202.681153 232.565594 
L 205.420663 222.827195 
L 208.160174 213.863274 
L 210.899684 205.61223 
L 213.639195 198.01731 
L 216.378705 191.026235 
L 219.346508 184.078235 
L 222.314311 177.72616 
L 225.282114 171.918384 
L 228.249917 166.606935 
L 231.21772 161.746587 
L 234.185524 157.288534 
L 238.979667 150.238496 
L 239.207959 148.965177 
L 239.572956 143.222735 
L 240.245204 128.304942 
L 242.071544 84.926236 
L 242.984715 67.802324 
L 243.897885 54.371028 
L 244.811055 44.161512 
L 245.724225 36.58812 
L 246.637395 31.108243 
L 247.322273 28.094768 
L 248.00715 25.842124 
L 248.692028 24.217035 
L 249.376906 23.10855 
L 250.061783 22.424382 
L 250.746661 22.088117 
L 251.431539 22.036383 
L 252.116416 22.216808 
L 253.029586 22.744637 
L 254.171049 23.753531 
L 255.540804 25.320445 
L 257.367145 27.780295 
L 260.56324 32.53284 
L 266.727139 41.707295 
L 270.608112 47.042632 
L 274.260793 51.680007 
L 277.913474 55.951391 
L 281.566154 59.877251 
L 285.218835 63.481641 
L 288.871516 66.788623 
L 292.752489 70.001976 
L 296.633462 72.930928 
L 300.742728 75.748279 
L 304.851994 78.298719 
L 309.189552 80.727067 
L 313.755403 83.017532 
L 318.321254 85.061461 
L 323.115397 86.968383 
L 328.137833 88.729983 
L 333.388562 90.340786 
L 339.095875 91.854145 
L 345.031481 93.196815 
L 351.423672 94.412649 
L 358.272449 95.486417 
L 365.806103 96.435099 
L 374.024634 97.243074 
L 386.580724 98.213586 
L 395.484133 99.01293 
L 403.24608 99.941357 
L 411.236319 101.119181 
L 419.226558 102.522761 
L 426.988504 104.109703 
L 434.750451 105.923072 
L 442.512397 107.965946 
L 450.274343 110.237743 
L 458.264582 112.81083 
L 466.483114 115.696199 
L 474.929938 118.899125 
L 483.833347 122.513444 
L 493.421634 126.645634 
L 505.749431 131.992007 
L 510.08699 133.517845 
L 514.652841 134.889342 
L 519.675277 136.1585 
L 525.154298 137.302108 
L 531.089904 138.307389 
L 537.710387 139.198088 
L 545.244041 139.980348 
L 553.919158 140.651272 
L 564.192322 141.217351 
L 576.976705 141.690141 
L 593.870353 142.078128 
L 618.525948 142.402103 
L 635.876181 142.670295 
L 636.789351 142.753246 
L 637.474229 142.789232 
L 637.702521 142.945985 
L 637.930814 143.314033 
L 638.159106 143.995645 
L 638.615691 146.667259 
L 639.072276 151.802868 
L 639.528862 160.539828 
L 639.985447 174.373663 
L 640.442032 195.067857 
L 640.898617 224.364328 
L 641.583494 286.592766 
L 641.811787 311.583248 
L 642.001036 318.534545 
L 642.300563 316.615923 
L 642.634866 314.506587 
L 643.291824 310.387015 
L 649.684016 275.304039 
L 652.423526 262.17142 
L 655.163037 250.080252 
L 657.902547 238.949704 
L 660.642058 228.704081 
L 663.381568 219.273247 
L 666.121079 210.592457 
L 668.860589 202.602025 
L 671.6001 195.24697 
L 674.33961 188.476637 
L 677.307413 181.747886 
L 680.275216 175.596045 
L 683.243019 169.970718 
L 686.210822 164.824961 
L 689.178626 160.111921 
L 692.374721 155.448771 
L 694.885939 151.811167 
L 695.342524 150.786748 
L 695.570817 148.891814 
L 696.07261 139.912092 
L 697.214073 112.370059 
L 698.583828 81.307247 
L 699.496998 65.028752 
L 700.410168 52.347252 
L 701.323338 42.753433 
L 702.236509 35.668641 
L 703.149679 30.569883 
L 703.834556 27.784325 
L 704.519434 25.718735 
L 705.204312 24.24672 
L 705.889189 23.263061 
L 706.574067 22.680341 
L 707.258945 22.426162 
L 707.943822 22.440513 
L 708.6287 22.673795 
L 709.54187 23.255445 
L 710.683333 24.310826 
L 712.053088 25.91135 
L 714.107721 28.718458 
L 717.988694 34.522232 
L 723.01113 41.933705 
L 726.892103 47.251213 
L 730.544784 51.873517 
L 734.197465 56.131155 
L 737.850145 60.044419 
L 741.502826 63.637243 
L 745.155507 66.933598 
L 749.03648 70.136594 
L 752.917453 73.056086 
L 757.026719 75.864296 
L 761.135985 78.40642 
L 765.473543 80.8268 
L 770.039394 83.109696 
L 774.605245 85.146809 
L 779.399388 87.047305 
L 784.421824 88.802882 
L 789.672552 90.408076 
L 795.379866 91.916052 
L 801.315472 93.253802 
L 807.707663 94.465006 
L 814.55644 95.534467 
L 822.090094 96.479011 
L 830.308625 97.282665 
L 842.179837 98.189007 
L 851.539832 98.994284 
L 859.301778 99.89481 
L 867.292017 101.044705 
L 875.282256 102.420286 
L 883.044203 103.979812 
L 890.806149 105.765727 
L 898.568095 107.781354 
L 906.330042 110.026378 
L 914.320281 112.572675 
L 922.538812 115.431623 
L 930.985637 118.608904 
L 939.889046 122.198166 
L 949.477332 126.306133 
L 962.946593 132.128149 
L 967.284151 133.634762 
L 971.850002 134.988661 
L 976.872438 136.241377 
L 982.351459 137.370096 
L 988.287065 138.362271 
L 994.907549 139.241386 
L 1002.441202 140.013539 
L 1010.906392 140.662221 
L 1010.906392 140.662221 
" style="fill:none;stroke:#add8e6;stroke-linecap:square;stroke-width:1.5;"/>
   </g>
   <g id="patch_3">
    <path d="M 52.160938 333.36 
L 52.160938 7.2 
" style="fill:none;stroke:#000000;stroke-linecap:square;stroke-linejoin:miter;stroke-width:0.8;"/>
   </g>
   <g id="patch_4">
    <path d="M 1056.560938 333.36 
L 1056.560938 7.2 
" style="fill:none;stroke:#000000;stroke-linecap:square;stroke-linejoin:miter;stroke-width:0.8;"/>
   </g>
   <g id="patch_5">
    <path d="M 52.160938 333.36 
L 1056.560938 333.36 
" style="fill:none;stroke:#000000;stroke-linecap:square;stroke-linejoin:miter;stroke-width:0.8;"/>
   </g>
   <g id="patch_6">
    <path d="M 52.160938 7.2 
L 1056.560938 7.2 
" style="fill:none;stroke:#000000;stroke-linecap:square;stroke-linejoin:miter;stroke-width:0.8;"/>
   </g>
   <g id="text_20">
    <!-- Shin Ei FY-2 -->
    <g transform="translate(519.622813 392.592)scale(0.12 -0.12)">
     <defs>
      <path d="M 53.515625 70.515625 
L 53.515625 60.890625 
Q 47.90625 63.578125 42.921875 64.890625 
Q 37.9375 66.21875 33.296875 66.21875 
Q 25.25 66.21875 20.875 63.09375 
Q 16.5 59.96875 16.5 54.203125 
Q 16.5 49.359375 19.40625 46.890625 
Q 22.3125 44.4375 30.421875 42.921875 
L 36.375 41.703125 
Q 47.40625 39.59375 52.65625 34.296875 
Q 57.90625 29 57.90625 20.125 
Q 57.90625 9.515625 50.796875 4.046875 
Q 43.703125 -1.421875 29.984375 -1.421875 
Q 24.8125 -1.421875 18.96875 -0.25 
Q 13.140625 0.921875 6.890625 3.21875 
L 6.890625 13.375 
Q 12.890625 10.015625 18.65625 8.296875 
Q 24.421875 6.59375 29.984375 6.59375 
Q 38.421875 6.59375 43.015625 9.90625 
Q 47.609375 13.234375 47.609375 19.390625 
Q 47.609375 24.75 44.3125 27.78125 
Q 41.015625 30.8125 33.5 32.328125 
L 27.484375 33.5 
Q 16.453125 35.6875 11.515625 40.375 
Q 6.59375 45.0625 6.59375 53.421875 
Q 6.59375 63.09375 13.40625 68.65625 
Q 20.21875 74.21875 32.171875 74.21875 
Q 37.3125 74.21875 42.625 73.28125 
Q 47.953125 72.359375 53.515625 70.515625 
z
" id="DejaVuSans-83"/>
      <path d="M 54.890625 33.015625 
L 54.890625 0 
L 45.90625 0 
L 45.90625 32.71875 
Q 45.90625 40.484375 42.875 44.328125 
Q 39.84375 48.1875 33.796875 48.1875 
Q 26.515625 48.1875 22.3125 43.546875 
Q 18.109375 38.921875 18.109375 30.90625 
L 18.109375 0 
L 9.078125 0 
L 9.078125 75.984375 
L 18.109375 75.984375 
L 18.109375 46.1875 
Q 21.34375 51.125 25.703125 53.5625 
Q 30.078125 56 35.796875 56 
Q 45.21875 56 50.046875 50.171875 
Q 54.890625 44.34375 54.890625 33.015625 
z
" id="DejaVuSans-104"/>
      <path d="M 9.421875 54.6875 
L 18.40625 54.6875 
L 18.40625 0 
L 9.421875 0 
z
M 9.421875 75.984375 
L 18.40625 75.984375 
L 18.40625 64.59375 
L 9.421875 64.59375 
z
" id="DejaVuSans-105"/>
      <path d="M 54.890625 33.015625 
L 54.890625 0 
L 45.90625 0 
L 45.90625 32.71875 
Q 45.90625 40.484375 42.875 44.328125 
Q 39.84375 48.1875 33.796875 48.1875 
Q 26.515625 48.1875 22.3125 43.546875 
Q 18.109375 38.921875 18.109375 30.90625 
L 18.109375 0 
L 9.078125 0 
L 9.078125 54.6875 
L 18.109375 54.6875 
L 18.109375 46.1875 
Q 21.34375 51.125 25.703125 53.5625 
Q 30.078125 56 35.796875 56 
Q 45.21875 56 50.046875 50.171875 
Q 54.890625 44.34375 54.890625 33.015625 
z
" id="DejaVuSans-110"/>
      <path d="M 9.8125 72.90625 
L 55.90625 72.90625 
L 55.90625 64.59375 
L 19.671875 64.59375 
L 19.671875 43.015625 
L 54.390625 43.015625 
L 54.390625 34.71875 
L 19.671875 34.71875 
L 19.671875 8.296875 
L 56.78125 8.296875 
L 56.78125 0 
L 9.8125 0 
z
" id="DejaVuSans-69"/>
      <path d="M 9.8125 72.90625 
L 51.703125 72.90625 
L 51.703125 64.59375 
L 19.671875 64.59375 
L 19.671875 43.109375 
L 48.578125 43.109375 
L 48.578125 34.8125 
L 19.671875 34.8125 
L 19.671875 0 
L 9.8125 0 
z
" id="DejaVuSans-70"/>
      <path d="M -0.203125 72.90625 
L 10.40625 72.90625 
L 30.609375 42.921875 
L 50.6875 72.90625 
L 61.28125 72.90625 
L 35.5 34.71875 
L 35.5 0 
L 25.59375 0 
L 25.59375 34.71875 
z
" id="DejaVuSans-89"/>
      <path d="M 4.890625 31.390625 
L 31.203125 31.390625 
L 31.203125 23.390625 
L 4.890625 23.390625 
z
" id="DejaVuSans-45"/>
     </defs>
     <use xlink:href="#DejaVuSans-83"/>
     <use x="63.476562" xlink:href="#DejaVuSans-104"/>
     <use x="126.855469" xlink:href="#DejaVuSans-105"/>
     <use x="154.638672" xlink:href="#DejaVuSans-110"/>
     <use x="218.017578" xlink:href="#DejaVuSans-32"/>
     <use x="249.804688" xlink:href="#DejaVuSans-69"/>
     <use x="312.988281" xlink:href="#DejaVuSans-105"/>
     <use x="340.771484" xlink:href="#DejaVuSans-32"/>
     <use x="372.558594" xlink:href="#DejaVuSans-70"/>
     <use x="430.078125" xlink:href="#DejaVuSans-89"/>
     <use x="479.287109" xlink:href="#DejaVuSans-45"/>
     <use x="515.371094" xlink:href="#DejaVuSans-50"/>
    </g>
   </g>
  </g>
 </g>
 <defs>
  <clipPath id="pa492d48231">
   <rect height="326.16" width="1004.4" x="52.160938" y="7.2"/>
  </clipPath>
 </defs>
</svg>
