<?xml version="1.0" encoding="utf-8" standalone="no"?>
<!DOCTYPE svg PUBLIC "-//W3C//DTD SVG 1.1//EN"
  "http://www.w3.org/Graphics/SVG/1.1/DTD/svg11.dtd">
<!-- Created with matplotlib (https://matplotlib.org/) -->
<svg height="402.287625pt" version="1.1" viewBox="0 0 1063.760938 402.287625" width="1063.760938pt" xmlns="http://www.w3.org/2000/svg" xmlns:xlink="http://www.w3.org/1999/xlink">
 <metadata>
  <rdf:RDF xmlns:cc="http://creativecommons.org/ns#" xmlns:dc="http://purl.org/dc/elements/1.1/" xmlns:rdf="http://www.w3.org/1999/02/22-rdf-syntax-ns#">
   <cc:Work>
    <dc:type rdf:resource="http://purl.org/dc/dcmitype/StillImage"/>
    <dc:date>2021-01-19T14:58:37.122030</dc:date>
    <dc:format>image/svg+xml</dc:format>
    <dc:creator>
     <cc:Agent>
      <dc:title>Matplotlib v3.3.3, https://matplotlib.org/</dc:title>
     </cc:Agent>
    </dc:creator>
   </cc:Work>
  </rdf:RDF>
 </metadata>
 <defs>
  <style type="text/css">*{stroke-linecap:butt;stroke-linejoin:round;}</style>
 </defs>
 <g id="figure_1">
  <g id="patch_1">
   <path d="M 0 402.287625 
L 1063.760938 402.287625 
L 1063.760938 0 
L 0 0 
z
" style="fill:none;"/>
  </g>
  <g id="axes_1">
   <g id="patch_2">
    <path d="M 52.160938 333.36 
L 1056.560938 333.36 
L 1056.560938 7.2 
L 52.160938 7.2 
z
" style="fill:#ffffff;"/>
   </g>
   <g id="matplotlib.axis_1">
    <g id="xtick_1">
     <g id="line2d_1">
      <path clip-path="url(#pa6ba42c5da)" d="M 97.751562 333.36 
L 97.751562 7.2 
" style="fill:none;stroke:#b0b0b0;stroke-linecap:square;stroke-width:0.8;"/>
     </g>
     <g id="line2d_2">
      <defs>
       <path d="M 0 0 
L 0 3.5 
" id="me6db29e14b" style="stroke:#000000;stroke-width:0.8;"/>
      </defs>
      <g>
       <use style="stroke:#000000;stroke-width:0.8;" x="97.751562" xlink:href="#me6db29e14b" y="333.36"/>
      </g>
     </g>
     <g id="text_1">
      <!-- 100.0 -->
      <g transform="translate(83.4375 347.958438)scale(0.1 -0.1)">
       <defs>
        <path d="M 12.40625 8.296875 
L 28.515625 8.296875 
L 28.515625 63.921875 
L 10.984375 60.40625 
L 10.984375 69.390625 
L 28.421875 72.90625 
L 38.28125 72.90625 
L 38.28125 8.296875 
L 54.390625 8.296875 
L 54.390625 0 
L 12.40625 0 
z
" id="DejaVuSans-49"/>
        <path d="M 31.78125 66.40625 
Q 24.171875 66.40625 20.328125 58.90625 
Q 16.5 51.421875 16.5 36.375 
Q 16.5 21.390625 20.328125 13.890625 
Q 24.171875 6.390625 31.78125 6.390625 
Q 39.453125 6.390625 43.28125 13.890625 
Q 47.125 21.390625 47.125 36.375 
Q 47.125 51.421875 43.28125 58.90625 
Q 39.453125 66.40625 31.78125 66.40625 
z
M 31.78125 74.21875 
Q 44.046875 74.21875 50.515625 64.515625 
Q 56.984375 54.828125 56.984375 36.375 
Q 56.984375 17.96875 50.515625 8.265625 
Q 44.046875 -1.421875 31.78125 -1.421875 
Q 19.53125 -1.421875 13.0625 8.265625 
Q 6.59375 17.96875 6.59375 36.375 
Q 6.59375 54.828125 13.0625 64.515625 
Q 19.53125 74.21875 31.78125 74.21875 
z
" id="DejaVuSans-48"/>
        <path d="M 10.6875 12.40625 
L 21 12.40625 
L 21 0 
L 10.6875 0 
z
" id="DejaVuSans-46"/>
       </defs>
       <use xlink:href="#DejaVuSans-49"/>
       <use x="63.623047" xlink:href="#DejaVuSans-48"/>
       <use x="127.246094" xlink:href="#DejaVuSans-48"/>
       <use x="190.869141" xlink:href="#DejaVuSans-46"/>
       <use x="222.65625" xlink:href="#DejaVuSans-48"/>
      </g>
     </g>
    </g>
    <g id="xtick_2">
     <g id="line2d_3">
      <path clip-path="url(#pa6ba42c5da)" d="M 211.895916 333.36 
L 211.895916 7.2 
" style="fill:none;stroke:#b0b0b0;stroke-linecap:square;stroke-width:0.8;"/>
     </g>
     <g id="line2d_4">
      <g>
       <use style="stroke:#000000;stroke-width:0.8;" x="211.895916" xlink:href="#me6db29e14b" y="333.36"/>
      </g>
     </g>
     <g id="text_2">
      <!-- 100.5 -->
      <g transform="translate(197.581853 347.958438)scale(0.1 -0.1)">
       <defs>
        <path d="M 10.796875 72.90625 
L 49.515625 72.90625 
L 49.515625 64.59375 
L 19.828125 64.59375 
L 19.828125 46.734375 
Q 21.96875 47.46875 24.109375 47.828125 
Q 26.265625 48.1875 28.421875 48.1875 
Q 40.625 48.1875 47.75 41.5 
Q 54.890625 34.8125 54.890625 23.390625 
Q 54.890625 11.625 47.5625 5.09375 
Q 40.234375 -1.421875 26.90625 -1.421875 
Q 22.3125 -1.421875 17.546875 -0.640625 
Q 12.796875 0.140625 7.71875 1.703125 
L 7.71875 11.625 
Q 12.109375 9.234375 16.796875 8.0625 
Q 21.484375 6.890625 26.703125 6.890625 
Q 35.15625 6.890625 40.078125 11.328125 
Q 45.015625 15.765625 45.015625 23.390625 
Q 45.015625 31 40.078125 35.4375 
Q 35.15625 39.890625 26.703125 39.890625 
Q 22.75 39.890625 18.8125 39.015625 
Q 14.890625 38.140625 10.796875 36.28125 
z
" id="DejaVuSans-53"/>
       </defs>
       <use xlink:href="#DejaVuSans-49"/>
       <use x="63.623047" xlink:href="#DejaVuSans-48"/>
       <use x="127.246094" xlink:href="#DejaVuSans-48"/>
       <use x="190.869141" xlink:href="#DejaVuSans-46"/>
       <use x="222.65625" xlink:href="#DejaVuSans-53"/>
      </g>
     </g>
    </g>
    <g id="xtick_3">
     <g id="line2d_5">
      <path clip-path="url(#pa6ba42c5da)" d="M 326.04027 333.36 
L 326.04027 7.2 
" style="fill:none;stroke:#b0b0b0;stroke-linecap:square;stroke-width:0.8;"/>
     </g>
     <g id="line2d_6">
      <g>
       <use style="stroke:#000000;stroke-width:0.8;" x="326.04027" xlink:href="#me6db29e14b" y="333.36"/>
      </g>
     </g>
     <g id="text_3">
      <!-- 101.0 -->
      <g transform="translate(311.726207 347.958438)scale(0.1 -0.1)">
       <use xlink:href="#DejaVuSans-49"/>
       <use x="63.623047" xlink:href="#DejaVuSans-48"/>
       <use x="127.246094" xlink:href="#DejaVuSans-49"/>
       <use x="190.869141" xlink:href="#DejaVuSans-46"/>
       <use x="222.65625" xlink:href="#DejaVuSans-48"/>
      </g>
     </g>
    </g>
    <g id="xtick_4">
     <g id="line2d_7">
      <path clip-path="url(#pa6ba42c5da)" d="M 440.184623 333.36 
L 440.184623 7.2 
" style="fill:none;stroke:#b0b0b0;stroke-linecap:square;stroke-width:0.8;"/>
     </g>
     <g id="line2d_8">
      <g>
       <use style="stroke:#000000;stroke-width:0.8;" x="440.184623" xlink:href="#me6db29e14b" y="333.36"/>
      </g>
     </g>
     <g id="text_4">
      <!-- 101.5 -->
      <g transform="translate(425.870561 347.958438)scale(0.1 -0.1)">
       <use xlink:href="#DejaVuSans-49"/>
       <use x="63.623047" xlink:href="#DejaVuSans-48"/>
       <use x="127.246094" xlink:href="#DejaVuSans-49"/>
       <use x="190.869141" xlink:href="#DejaVuSans-46"/>
       <use x="222.65625" xlink:href="#DejaVuSans-53"/>
      </g>
     </g>
    </g>
    <g id="xtick_5">
     <g id="line2d_9">
      <path clip-path="url(#pa6ba42c5da)" d="M 554.328977 333.36 
L 554.328977 7.2 
" style="fill:none;stroke:#b0b0b0;stroke-linecap:square;stroke-width:0.8;"/>
     </g>
     <g id="line2d_10">
      <g>
       <use style="stroke:#000000;stroke-width:0.8;" x="554.328977" xlink:href="#me6db29e14b" y="333.36"/>
      </g>
     </g>
     <g id="text_5">
      <!-- 102.0 -->
      <g transform="translate(540.014915 347.958438)scale(0.1 -0.1)">
       <defs>
        <path d="M 19.1875 8.296875 
L 53.609375 8.296875 
L 53.609375 0 
L 7.328125 0 
L 7.328125 8.296875 
Q 12.9375 14.109375 22.625 23.890625 
Q 32.328125 33.6875 34.8125 36.53125 
Q 39.546875 41.84375 41.421875 45.53125 
Q 43.3125 49.21875 43.3125 52.78125 
Q 43.3125 58.59375 39.234375 62.25 
Q 35.15625 65.921875 28.609375 65.921875 
Q 23.96875 65.921875 18.8125 64.3125 
Q 13.671875 62.703125 7.8125 59.421875 
L 7.8125 69.390625 
Q 13.765625 71.78125 18.9375 73 
Q 24.125 74.21875 28.421875 74.21875 
Q 39.75 74.21875 46.484375 68.546875 
Q 53.21875 62.890625 53.21875 53.421875 
Q 53.21875 48.921875 51.53125 44.890625 
Q 49.859375 40.875 45.40625 35.40625 
Q 44.1875 33.984375 37.640625 27.21875 
Q 31.109375 20.453125 19.1875 8.296875 
z
" id="DejaVuSans-50"/>
       </defs>
       <use xlink:href="#DejaVuSans-49"/>
       <use x="63.623047" xlink:href="#DejaVuSans-48"/>
       <use x="127.246094" xlink:href="#DejaVuSans-50"/>
       <use x="190.869141" xlink:href="#DejaVuSans-46"/>
       <use x="222.65625" xlink:href="#DejaVuSans-48"/>
      </g>
     </g>
    </g>
    <g id="xtick_6">
     <g id="line2d_11">
      <path clip-path="url(#pa6ba42c5da)" d="M 668.473331 333.36 
L 668.473331 7.2 
" style="fill:none;stroke:#b0b0b0;stroke-linecap:square;stroke-width:0.8;"/>
     </g>
     <g id="line2d_12">
      <g>
       <use style="stroke:#000000;stroke-width:0.8;" x="668.473331" xlink:href="#me6db29e14b" y="333.36"/>
      </g>
     </g>
     <g id="text_6">
      <!-- 102.5 -->
      <g transform="translate(654.159268 347.958438)scale(0.1 -0.1)">
       <use xlink:href="#DejaVuSans-49"/>
       <use x="63.623047" xlink:href="#DejaVuSans-48"/>
       <use x="127.246094" xlink:href="#DejaVuSans-50"/>
       <use x="190.869141" xlink:href="#DejaVuSans-46"/>
       <use x="222.65625" xlink:href="#DejaVuSans-53"/>
      </g>
     </g>
    </g>
    <g id="xtick_7">
     <g id="line2d_13">
      <path clip-path="url(#pa6ba42c5da)" d="M 782.617685 333.36 
L 782.617685 7.2 
" style="fill:none;stroke:#b0b0b0;stroke-linecap:square;stroke-width:0.8;"/>
     </g>
     <g id="line2d_14">
      <g>
       <use style="stroke:#000000;stroke-width:0.8;" x="782.617685" xlink:href="#me6db29e14b" y="333.36"/>
      </g>
     </g>
     <g id="text_7">
      <!-- 103.0 -->
      <g transform="translate(768.303622 347.958438)scale(0.1 -0.1)">
       <defs>
        <path d="M 40.578125 39.3125 
Q 47.65625 37.796875 51.625 33 
Q 55.609375 28.21875 55.609375 21.1875 
Q 55.609375 10.40625 48.1875 4.484375 
Q 40.765625 -1.421875 27.09375 -1.421875 
Q 22.515625 -1.421875 17.65625 -0.515625 
Q 12.796875 0.390625 7.625 2.203125 
L 7.625 11.71875 
Q 11.71875 9.328125 16.59375 8.109375 
Q 21.484375 6.890625 26.8125 6.890625 
Q 36.078125 6.890625 40.9375 10.546875 
Q 45.796875 14.203125 45.796875 21.1875 
Q 45.796875 27.640625 41.28125 31.265625 
Q 36.765625 34.90625 28.71875 34.90625 
L 20.21875 34.90625 
L 20.21875 43.015625 
L 29.109375 43.015625 
Q 36.375 43.015625 40.234375 45.921875 
Q 44.09375 48.828125 44.09375 54.296875 
Q 44.09375 59.90625 40.109375 62.90625 
Q 36.140625 65.921875 28.71875 65.921875 
Q 24.65625 65.921875 20.015625 65.03125 
Q 15.375 64.15625 9.8125 62.3125 
L 9.8125 71.09375 
Q 15.4375 72.65625 20.34375 73.4375 
Q 25.25 74.21875 29.59375 74.21875 
Q 40.828125 74.21875 47.359375 69.109375 
Q 53.90625 64.015625 53.90625 55.328125 
Q 53.90625 49.265625 50.4375 45.09375 
Q 46.96875 40.921875 40.578125 39.3125 
z
" id="DejaVuSans-51"/>
       </defs>
       <use xlink:href="#DejaVuSans-49"/>
       <use x="63.623047" xlink:href="#DejaVuSans-48"/>
       <use x="127.246094" xlink:href="#DejaVuSans-51"/>
       <use x="190.869141" xlink:href="#DejaVuSans-46"/>
       <use x="222.65625" xlink:href="#DejaVuSans-48"/>
      </g>
     </g>
    </g>
    <g id="xtick_8">
     <g id="line2d_15">
      <path clip-path="url(#pa6ba42c5da)" d="M 896.762038 333.36 
L 896.762038 7.2 
" style="fill:none;stroke:#b0b0b0;stroke-linecap:square;stroke-width:0.8;"/>
     </g>
     <g id="line2d_16">
      <g>
       <use style="stroke:#000000;stroke-width:0.8;" x="896.762038" xlink:href="#me6db29e14b" y="333.36"/>
      </g>
     </g>
     <g id="text_8">
      <!-- 103.5 -->
      <g transform="translate(882.447976 347.958438)scale(0.1 -0.1)">
       <use xlink:href="#DejaVuSans-49"/>
       <use x="63.623047" xlink:href="#DejaVuSans-48"/>
       <use x="127.246094" xlink:href="#DejaVuSans-51"/>
       <use x="190.869141" xlink:href="#DejaVuSans-46"/>
       <use x="222.65625" xlink:href="#DejaVuSans-53"/>
      </g>
     </g>
    </g>
    <g id="xtick_9">
     <g id="line2d_17">
      <path clip-path="url(#pa6ba42c5da)" d="M 1010.906392 333.36 
L 1010.906392 7.2 
" style="fill:none;stroke:#b0b0b0;stroke-linecap:square;stroke-width:0.8;"/>
     </g>
     <g id="line2d_18">
      <g>
       <use style="stroke:#000000;stroke-width:0.8;" x="1010.906392" xlink:href="#me6db29e14b" y="333.36"/>
      </g>
     </g>
     <g id="text_9">
      <!-- 104.0 -->
      <g transform="translate(996.59233 347.958438)scale(0.1 -0.1)">
       <defs>
        <path d="M 37.796875 64.3125 
L 12.890625 25.390625 
L 37.796875 25.390625 
z
M 35.203125 72.90625 
L 47.609375 72.90625 
L 47.609375 25.390625 
L 58.015625 25.390625 
L 58.015625 17.1875 
L 47.609375 17.1875 
L 47.609375 0 
L 37.796875 0 
L 37.796875 17.1875 
L 4.890625 17.1875 
L 4.890625 26.703125 
z
" id="DejaVuSans-52"/>
       </defs>
       <use xlink:href="#DejaVuSans-49"/>
       <use x="63.623047" xlink:href="#DejaVuSans-48"/>
       <use x="127.246094" xlink:href="#DejaVuSans-52"/>
       <use x="190.869141" xlink:href="#DejaVuSans-46"/>
       <use x="222.65625" xlink:href="#DejaVuSans-48"/>
      </g>
     </g>
    </g>
    <g id="text_10">
     <!-- t [ms] -->
     <g transform="translate(539.435156 361.636562)scale(0.1 -0.1)">
      <defs>
       <path d="M 18.3125 70.21875 
L 18.3125 54.6875 
L 36.8125 54.6875 
L 36.8125 47.703125 
L 18.3125 47.703125 
L 18.3125 18.015625 
Q 18.3125 11.328125 20.140625 9.421875 
Q 21.96875 7.515625 27.59375 7.515625 
L 36.8125 7.515625 
L 36.8125 0 
L 27.59375 0 
Q 17.1875 0 13.234375 3.875 
Q 9.28125 7.765625 9.28125 18.015625 
L 9.28125 47.703125 
L 2.6875 47.703125 
L 2.6875 54.6875 
L 9.28125 54.6875 
L 9.28125 70.21875 
z
" id="DejaVuSans-116"/>
       <path id="DejaVuSans-32"/>
       <path d="M 8.59375 75.984375 
L 29.296875 75.984375 
L 29.296875 69 
L 17.578125 69 
L 17.578125 -6.203125 
L 29.296875 -6.203125 
L 29.296875 -13.1875 
L 8.59375 -13.1875 
z
" id="DejaVuSans-91"/>
       <path d="M 52 44.1875 
Q 55.375 50.25 60.0625 53.125 
Q 64.75 56 71.09375 56 
Q 79.640625 56 84.28125 50.015625 
Q 88.921875 44.046875 88.921875 33.015625 
L 88.921875 0 
L 79.890625 0 
L 79.890625 32.71875 
Q 79.890625 40.578125 77.09375 44.375 
Q 74.3125 48.1875 68.609375 48.1875 
Q 61.625 48.1875 57.5625 43.546875 
Q 53.515625 38.921875 53.515625 30.90625 
L 53.515625 0 
L 44.484375 0 
L 44.484375 32.71875 
Q 44.484375 40.625 41.703125 44.40625 
Q 38.921875 48.1875 33.109375 48.1875 
Q 26.21875 48.1875 22.15625 43.53125 
Q 18.109375 38.875 18.109375 30.90625 
L 18.109375 0 
L 9.078125 0 
L 9.078125 54.6875 
L 18.109375 54.6875 
L 18.109375 46.1875 
Q 21.1875 51.21875 25.484375 53.609375 
Q 29.78125 56 35.6875 56 
Q 41.65625 56 45.828125 52.96875 
Q 50 49.953125 52 44.1875 
z
" id="DejaVuSans-109"/>
       <path d="M 44.28125 53.078125 
L 44.28125 44.578125 
Q 40.484375 46.53125 36.375 47.5 
Q 32.28125 48.484375 27.875 48.484375 
Q 21.1875 48.484375 17.84375 46.4375 
Q 14.5 44.390625 14.5 40.28125 
Q 14.5 37.15625 16.890625 35.375 
Q 19.28125 33.59375 26.515625 31.984375 
L 29.59375 31.296875 
Q 39.15625 29.25 43.1875 25.515625 
Q 47.21875 21.78125 47.21875 15.09375 
Q 47.21875 7.46875 41.1875 3.015625 
Q 35.15625 -1.421875 24.609375 -1.421875 
Q 20.21875 -1.421875 15.453125 -0.5625 
Q 10.6875 0.296875 5.421875 2 
L 5.421875 11.28125 
Q 10.40625 8.6875 15.234375 7.390625 
Q 20.0625 6.109375 24.8125 6.109375 
Q 31.15625 6.109375 34.5625 8.28125 
Q 37.984375 10.453125 37.984375 14.40625 
Q 37.984375 18.0625 35.515625 20.015625 
Q 33.0625 21.96875 24.703125 23.78125 
L 21.578125 24.515625 
Q 13.234375 26.265625 9.515625 29.90625 
Q 5.8125 33.546875 5.8125 39.890625 
Q 5.8125 47.609375 11.28125 51.796875 
Q 16.75 56 26.8125 56 
Q 31.78125 56 36.171875 55.265625 
Q 40.578125 54.546875 44.28125 53.078125 
z
" id="DejaVuSans-115"/>
       <path d="M 30.421875 75.984375 
L 30.421875 -13.1875 
L 9.71875 -13.1875 
L 9.71875 -6.203125 
L 21.390625 -6.203125 
L 21.390625 69 
L 9.71875 69 
L 9.71875 75.984375 
z
" id="DejaVuSans-93"/>
      </defs>
      <use xlink:href="#DejaVuSans-116"/>
      <use x="39.208984" xlink:href="#DejaVuSans-32"/>
      <use x="70.996094" xlink:href="#DejaVuSans-91"/>
      <use x="110.009766" xlink:href="#DejaVuSans-109"/>
      <use x="207.421875" xlink:href="#DejaVuSans-115"/>
      <use x="259.521484" xlink:href="#DejaVuSans-93"/>
     </g>
    </g>
   </g>
   <g id="matplotlib.axis_2">
    <g id="ytick_1">
     <g id="line2d_19">
      <path clip-path="url(#pa6ba42c5da)" d="M 52.160938 329.789381 
L 1056.560938 329.789381 
" style="fill:none;stroke:#b0b0b0;stroke-linecap:square;stroke-width:0.8;"/>
     </g>
     <g id="line2d_20">
      <defs>
       <path d="M 0 0 
L -3.5 0 
" id="m3d5d1e8525" style="stroke:#000000;stroke-width:0.8;"/>
      </defs>
      <g>
       <use style="stroke:#000000;stroke-width:0.8;" x="52.160938" xlink:href="#m3d5d1e8525" y="329.789381"/>
      </g>
     </g>
     <g id="text_11">
      <!-- −0.8 -->
      <g transform="translate(20.878125 333.5886)scale(0.1 -0.1)">
       <defs>
        <path d="M 10.59375 35.5 
L 73.1875 35.5 
L 73.1875 27.203125 
L 10.59375 27.203125 
z
" id="DejaVuSans-8722"/>
        <path d="M 31.78125 34.625 
Q 24.75 34.625 20.71875 30.859375 
Q 16.703125 27.09375 16.703125 20.515625 
Q 16.703125 13.921875 20.71875 10.15625 
Q 24.75 6.390625 31.78125 6.390625 
Q 38.8125 6.390625 42.859375 10.171875 
Q 46.921875 13.96875 46.921875 20.515625 
Q 46.921875 27.09375 42.890625 30.859375 
Q 38.875 34.625 31.78125 34.625 
z
M 21.921875 38.8125 
Q 15.578125 40.375 12.03125 44.71875 
Q 8.5 49.078125 8.5 55.328125 
Q 8.5 64.0625 14.71875 69.140625 
Q 20.953125 74.21875 31.78125 74.21875 
Q 42.671875 74.21875 48.875 69.140625 
Q 55.078125 64.0625 55.078125 55.328125 
Q 55.078125 49.078125 51.53125 44.71875 
Q 48 40.375 41.703125 38.8125 
Q 48.828125 37.15625 52.796875 32.3125 
Q 56.78125 27.484375 56.78125 20.515625 
Q 56.78125 9.90625 50.3125 4.234375 
Q 43.84375 -1.421875 31.78125 -1.421875 
Q 19.734375 -1.421875 13.25 4.234375 
Q 6.78125 9.90625 6.78125 20.515625 
Q 6.78125 27.484375 10.78125 32.3125 
Q 14.796875 37.15625 21.921875 38.8125 
z
M 18.3125 54.390625 
Q 18.3125 48.734375 21.84375 45.5625 
Q 25.390625 42.390625 31.78125 42.390625 
Q 38.140625 42.390625 41.71875 45.5625 
Q 45.3125 48.734375 45.3125 54.390625 
Q 45.3125 60.0625 41.71875 63.234375 
Q 38.140625 66.40625 31.78125 66.40625 
Q 25.390625 66.40625 21.84375 63.234375 
Q 18.3125 60.0625 18.3125 54.390625 
z
" id="DejaVuSans-56"/>
       </defs>
       <use xlink:href="#DejaVuSans-8722"/>
       <use x="83.789062" xlink:href="#DejaVuSans-48"/>
       <use x="147.412109" xlink:href="#DejaVuSans-46"/>
       <use x="179.199219" xlink:href="#DejaVuSans-56"/>
      </g>
     </g>
    </g>
    <g id="ytick_2">
     <g id="line2d_21">
      <path clip-path="url(#pa6ba42c5da)" d="M 52.160938 289.422568 
L 1056.560938 289.422568 
" style="fill:none;stroke:#b0b0b0;stroke-linecap:square;stroke-width:0.8;"/>
     </g>
     <g id="line2d_22">
      <g>
       <use style="stroke:#000000;stroke-width:0.8;" x="52.160938" xlink:href="#m3d5d1e8525" y="289.422568"/>
      </g>
     </g>
     <g id="text_12">
      <!-- −0.6 -->
      <g transform="translate(20.878125 293.221787)scale(0.1 -0.1)">
       <defs>
        <path d="M 33.015625 40.375 
Q 26.375 40.375 22.484375 35.828125 
Q 18.609375 31.296875 18.609375 23.390625 
Q 18.609375 15.53125 22.484375 10.953125 
Q 26.375 6.390625 33.015625 6.390625 
Q 39.65625 6.390625 43.53125 10.953125 
Q 47.40625 15.53125 47.40625 23.390625 
Q 47.40625 31.296875 43.53125 35.828125 
Q 39.65625 40.375 33.015625 40.375 
z
M 52.59375 71.296875 
L 52.59375 62.3125 
Q 48.875 64.0625 45.09375 64.984375 
Q 41.3125 65.921875 37.59375 65.921875 
Q 27.828125 65.921875 22.671875 59.328125 
Q 17.53125 52.734375 16.796875 39.40625 
Q 19.671875 43.65625 24.015625 45.921875 
Q 28.375 48.1875 33.59375 48.1875 
Q 44.578125 48.1875 50.953125 41.515625 
Q 57.328125 34.859375 57.328125 23.390625 
Q 57.328125 12.15625 50.6875 5.359375 
Q 44.046875 -1.421875 33.015625 -1.421875 
Q 20.359375 -1.421875 13.671875 8.265625 
Q 6.984375 17.96875 6.984375 36.375 
Q 6.984375 53.65625 15.1875 63.9375 
Q 23.390625 74.21875 37.203125 74.21875 
Q 40.921875 74.21875 44.703125 73.484375 
Q 48.484375 72.75 52.59375 71.296875 
z
" id="DejaVuSans-54"/>
       </defs>
       <use xlink:href="#DejaVuSans-8722"/>
       <use x="83.789062" xlink:href="#DejaVuSans-48"/>
       <use x="147.412109" xlink:href="#DejaVuSans-46"/>
       <use x="179.199219" xlink:href="#DejaVuSans-54"/>
      </g>
     </g>
    </g>
    <g id="ytick_3">
     <g id="line2d_23">
      <path clip-path="url(#pa6ba42c5da)" d="M 52.160938 249.055754 
L 1056.560938 249.055754 
" style="fill:none;stroke:#b0b0b0;stroke-linecap:square;stroke-width:0.8;"/>
     </g>
     <g id="line2d_24">
      <g>
       <use style="stroke:#000000;stroke-width:0.8;" x="52.160938" xlink:href="#m3d5d1e8525" y="249.055754"/>
      </g>
     </g>
     <g id="text_13">
      <!-- −0.4 -->
      <g transform="translate(20.878125 252.854973)scale(0.1 -0.1)">
       <use xlink:href="#DejaVuSans-8722"/>
       <use x="83.789062" xlink:href="#DejaVuSans-48"/>
       <use x="147.412109" xlink:href="#DejaVuSans-46"/>
       <use x="179.199219" xlink:href="#DejaVuSans-52"/>
      </g>
     </g>
    </g>
    <g id="ytick_4">
     <g id="line2d_25">
      <path clip-path="url(#pa6ba42c5da)" d="M 52.160938 208.688941 
L 1056.560938 208.688941 
" style="fill:none;stroke:#b0b0b0;stroke-linecap:square;stroke-width:0.8;"/>
     </g>
     <g id="line2d_26">
      <g>
       <use style="stroke:#000000;stroke-width:0.8;" x="52.160938" xlink:href="#m3d5d1e8525" y="208.688941"/>
      </g>
     </g>
     <g id="text_14">
      <!-- −0.2 -->
      <g transform="translate(20.878125 212.48816)scale(0.1 -0.1)">
       <use xlink:href="#DejaVuSans-8722"/>
       <use x="83.789062" xlink:href="#DejaVuSans-48"/>
       <use x="147.412109" xlink:href="#DejaVuSans-46"/>
       <use x="179.199219" xlink:href="#DejaVuSans-50"/>
      </g>
     </g>
    </g>
    <g id="ytick_5">
     <g id="line2d_27">
      <path clip-path="url(#pa6ba42c5da)" d="M 52.160938 168.322127 
L 1056.560938 168.322127 
" style="fill:none;stroke:#b0b0b0;stroke-linecap:square;stroke-width:0.8;"/>
     </g>
     <g id="line2d_28">
      <g>
       <use style="stroke:#000000;stroke-width:0.8;" x="52.160938" xlink:href="#m3d5d1e8525" y="168.322127"/>
      </g>
     </g>
     <g id="text_15">
      <!-- 0.0 -->
      <g transform="translate(29.257813 172.121346)scale(0.1 -0.1)">
       <use xlink:href="#DejaVuSans-48"/>
       <use x="63.623047" xlink:href="#DejaVuSans-46"/>
       <use x="95.410156" xlink:href="#DejaVuSans-48"/>
      </g>
     </g>
    </g>
    <g id="ytick_6">
     <g id="line2d_29">
      <path clip-path="url(#pa6ba42c5da)" d="M 52.160938 127.955314 
L 1056.560938 127.955314 
" style="fill:none;stroke:#b0b0b0;stroke-linecap:square;stroke-width:0.8;"/>
     </g>
     <g id="line2d_30">
      <g>
       <use style="stroke:#000000;stroke-width:0.8;" x="52.160938" xlink:href="#m3d5d1e8525" y="127.955314"/>
      </g>
     </g>
     <g id="text_16">
      <!-- 0.2 -->
      <g transform="translate(29.257813 131.754533)scale(0.1 -0.1)">
       <use xlink:href="#DejaVuSans-48"/>
       <use x="63.623047" xlink:href="#DejaVuSans-46"/>
       <use x="95.410156" xlink:href="#DejaVuSans-50"/>
      </g>
     </g>
    </g>
    <g id="ytick_7">
     <g id="line2d_31">
      <path clip-path="url(#pa6ba42c5da)" d="M 52.160938 87.5885 
L 1056.560938 87.5885 
" style="fill:none;stroke:#b0b0b0;stroke-linecap:square;stroke-width:0.8;"/>
     </g>
     <g id="line2d_32">
      <g>
       <use style="stroke:#000000;stroke-width:0.8;" x="52.160938" xlink:href="#m3d5d1e8525" y="87.5885"/>
      </g>
     </g>
     <g id="text_17">
      <!-- 0.4 -->
      <g transform="translate(29.257813 91.387719)scale(0.1 -0.1)">
       <use xlink:href="#DejaVuSans-48"/>
       <use x="63.623047" xlink:href="#DejaVuSans-46"/>
       <use x="95.410156" xlink:href="#DejaVuSans-52"/>
      </g>
     </g>
    </g>
    <g id="ytick_8">
     <g id="line2d_33">
      <path clip-path="url(#pa6ba42c5da)" d="M 52.160938 47.221687 
L 1056.560938 47.221687 
" style="fill:none;stroke:#b0b0b0;stroke-linecap:square;stroke-width:0.8;"/>
     </g>
     <g id="line2d_34">
      <g>
       <use style="stroke:#000000;stroke-width:0.8;" x="52.160938" xlink:href="#m3d5d1e8525" y="47.221687"/>
      </g>
     </g>
     <g id="text_18">
      <!-- 0.6 -->
      <g transform="translate(29.257813 51.020906)scale(0.1 -0.1)">
       <use xlink:href="#DejaVuSans-48"/>
       <use x="63.623047" xlink:href="#DejaVuSans-46"/>
       <use x="95.410156" xlink:href="#DejaVuSans-54"/>
      </g>
     </g>
    </g>
    <g id="text_19">
     <!-- [V] -->
     <g transform="translate(14.798438 177.601875)rotate(-90)scale(0.1 -0.1)">
      <defs>
       <path d="M 28.609375 0 
L 0.78125 72.90625 
L 11.078125 72.90625 
L 34.1875 11.53125 
L 57.328125 72.90625 
L 67.578125 72.90625 
L 39.796875 0 
z
" id="DejaVuSans-86"/>
      </defs>
      <use xlink:href="#DejaVuSans-91"/>
      <use x="39.013672" xlink:href="#DejaVuSans-86"/>
      <use x="107.421875" xlink:href="#DejaVuSans-93"/>
     </g>
    </g>
   </g>
   <g id="line2d_35">
    <path clip-path="url(#pa6ba42c5da)" d="M 97.815483 170.695344 
L 100.783236 169.916073 
L 103.750989 169.357226 
L 106.262165 169.096873 
L 110.827939 168.735728 
L 113.339115 168.28092 
L 115.622002 167.646648 
L 117.904889 166.780808 
L 120.187776 165.668684 
L 122.470663 164.299492 
L 124.75355 162.665949 
L 127.036438 160.764104 
L 129.547613 158.361334 
L 132.058789 155.636091 
L 134.569965 152.595379 
L 137.309429 148.930942 
L 140.277183 144.572695 
L 143.473224 139.459044 
L 146.897555 133.542498 
L 150.778463 126.360976 
L 155.115949 117.845505 
L 160.594878 106.561456 
L 179.54284 67.045491 
L 183.880326 58.772115 
L 187.532945 52.251627 
L 190.957276 46.579384 
L 194.153318 41.72058 
L 197.121071 37.622295 
L 199.860535 34.219241 
L 202.371711 31.438725 
L 204.882887 28.997178 
L 207.165774 27.082239 
L 209.448661 25.465733 
L 211.503259 24.271579 
L 213.557858 23.328514 
L 215.612456 22.639589 
L 217.667054 22.20696 
L 219.493364 22.038604 
L 221.319674 22.074053 
L 223.145983 22.313041 
L 224.972293 22.754744 
L 227.026891 23.492231 
L 229.08149 24.481734 
L 231.136088 25.719599 
L 233.190686 27.201323 
L 235.473574 29.127167 
L 237.756461 31.338952 
L 240.267636 34.090547 
L 242.778812 37.161788 
L 245.518277 40.857703 
L 248.48603 45.242181 
L 251.682072 50.370429 
L 255.106402 56.284194 
L 258.98731 63.438991 
L 263.553085 72.353865 
L 269.260302 84.025963 
L 286.610244 119.879474 
L 290.947729 128.160124 
L 294.828638 135.100436 
L 298.252968 140.778129 
L 301.44901 145.644337 
L 304.416763 149.748786 
L 307.156228 153.155714 
L 309.667404 155.93867 
L 312.178579 158.383882 
L 314.461466 160.307282 
L 316.744353 161.943488 
L 319.027241 163.293437 
L 321.310128 164.361234 
L 323.821303 165.274982 
L 326.789057 166.11052 
L 330.441676 166.894791 
L 333.866006 167.417323 
L 336.83376 167.645778 
L 340.029802 167.89675 
L 342.312689 168.309202 
L 344.595576 168.956566 
L 346.878463 169.85074 
L 349.16135 171.000196 
L 351.444237 172.41184 
L 353.727124 174.090726 
L 356.010011 176.039609 
L 358.521187 178.495427 
L 361.032363 181.2749 
L 363.771827 184.668005 
L 366.511292 188.42456 
L 369.479045 192.883557 
L 372.675087 198.107224 
L 376.099417 204.143932 
L 379.980325 211.465176 
L 384.317811 220.141986 
L 389.79674 231.638361 
L 409.20128 272.868126 
L 413.538765 281.277395 
L 417.191385 287.901495 
L 420.615715 293.661408 
L 423.811757 298.593401 
L 426.77951 302.751892 
L 429.518975 306.20367 
L 432.030151 309.022908 
L 434.541326 311.497352 
L 436.824214 313.437032 
L 439.107101 315.073266 
L 441.161699 316.280816 
L 443.216297 317.233089 
L 445.270896 317.92698 
L 447.097205 318.325055 
L 448.923515 318.516269 
L 450.749825 318.500233 
L 452.576134 318.277122 
L 454.402444 317.84767 
L 456.457042 317.119523 
L 458.511641 316.134548 
L 460.566239 314.896293 
L 462.620838 313.409163 
L 464.903725 311.471322 
L 467.186612 309.241132 
L 469.697787 306.46178 
L 472.208963 303.354819 
L 474.948428 299.610768 
L 477.916181 295.16328 
L 481.112223 289.954515 
L 484.536553 283.93996 
L 488.417461 276.652964 
L 492.754947 268.02453 
L 498.233876 256.598055 
L 517.866705 215.114561 
L 522.20419 206.76208 
L 525.856809 200.193508 
L 529.28114 194.49649 
L 532.248893 189.967797 
L 534.988358 186.156908 
L 537.727822 182.726125 
L 540.238998 179.932789 
L 542.750174 177.488005 
L 545.033061 175.573726 
L 547.315948 173.953426 
L 549.598835 172.621569 
L 551.653433 171.664533 
L 553.936321 170.83648 
L 556.675785 170.074915 
L 559.643538 169.464972 
L 562.154714 169.143696 
L 568.546798 168.557918 
L 570.829685 168.053268 
L 573.112572 167.328354 
L 575.395459 166.365458 
L 577.678346 165.151532 
L 579.961233 163.677216 
L 582.24412 161.936578 
L 584.527007 159.926954 
L 587.038183 157.406279 
L 589.549359 154.565241 
L 592.288823 151.110453 
L 595.028288 147.299844 
L 597.996041 142.793107 
L 601.192083 137.533118 
L 604.616414 131.477614 
L 608.497322 124.163392 
L 613.063096 115.068468 
L 618.998602 102.713745 
L 633.837368 71.587118 
L 638.403142 62.624128 
L 642.28405 55.453181 
L 645.93667 49.167164 
L 649.132712 44.092237 
L 652.100465 39.775176 
L 654.839929 36.156234 
L 657.579394 32.911741 
L 660.090569 30.283622 
L 662.373457 28.193361 
L 664.656344 26.396897 
L 666.710942 25.037474 
L 668.76554 23.926614 
L 670.820139 23.06796 
L 672.874737 22.464266 
L 674.701047 22.143212 
L 676.527356 22.025799 
L 678.353666 22.112179 
L 680.179976 22.401944 
L 682.234574 22.96982 
L 684.289172 23.791668 
L 686.343771 24.864411 
L 688.398369 26.18411 
L 690.681256 27.934235 
L 692.964143 29.975555 
L 695.475319 32.546565 
L 697.986495 35.445374 
L 700.725959 38.963521 
L 703.693713 43.168824 
L 706.889755 48.121157 
L 710.314085 53.867712 
L 713.966704 60.437543 
L 718.075901 68.282143 
L 723.098253 78.365192 
L 730.63178 94.063707 
L 740.219906 113.961976 
L 745.242257 123.860876 
L 749.351454 131.485904 
L 753.004073 137.804516 
L 756.200115 142.91607 
L 759.167869 147.270552 
L 761.907333 150.924868 
L 764.646798 154.204721 
L 767.157973 156.866106 
L 769.44086 158.98978 
L 771.723747 160.827089 
L 774.006635 162.377456 
L 776.061233 163.527453 
L 778.34412 164.544198 
L 780.855296 165.417317 
L 784.051338 166.274664 
L 787.703957 167.016066 
L 791.128288 167.491246 
L 794.324329 167.689803 
L 797.063794 167.960851 
L 799.346681 168.418813 
L 801.629568 169.114663 
L 803.912455 170.059175 
L 806.195342 171.260481 
L 808.478229 172.725155 
L 810.761116 174.457819 
L 813.044004 176.460733 
L 815.555179 178.975665 
L 818.066355 181.813264 
L 820.80582 185.267915 
L 823.545284 189.083336 
L 826.513037 193.602303 
L 829.709079 198.885284 
L 833.13341 204.978576 
L 837.014318 212.354208 
L 841.580092 221.549173 
L 847.28731 233.59183 
L 864.408963 270.107376 
L 868.974737 279.114443 
L 872.855645 286.286701 
L 876.279975 292.168799 
L 879.476017 297.227949 
L 882.443771 301.514826 
L 885.183235 305.093049 
L 887.694411 308.034167 
L 890.205587 310.635525 
L 892.488474 312.694379 
L 894.771361 314.452864 
L 896.825959 315.772632 
L 898.880558 316.83879 
L 900.935156 317.647837 
L 902.989754 318.197166 
L 904.816064 318.466025 
L 906.642374 318.527716 
L 908.468683 318.382202 
L 910.294993 318.030006 
L 912.121303 317.472213 
L 914.175901 316.601001 
L 916.230499 315.474826 
L 918.285098 314.097714 
L 920.567985 312.279243 
L 922.850872 310.164916 
L 925.362048 307.508385 
L 927.873223 304.51879 
L 930.612688 300.895852 
L 933.580441 296.570588 
L 936.776483 291.482022 
L 940.200814 285.581981 
L 943.853433 278.840608 
L 948.190918 270.335197 
L 953.21327 259.974546 
L 960.975086 243.370381 
L 970.106634 223.931804 
L 975.128986 213.758952 
L 979.238183 205.913818 
L 982.890802 199.404778 
L 986.086844 194.13229 
L 989.054597 189.634547 
L 991.794061 185.85452 
L 994.533526 182.456489 
L 997.044702 179.694498 
L 999.327589 177.486589 
L 1001.610476 175.572388 
L 1003.893363 173.95217 
L 1006.17625 172.620392 
L 1008.230848 171.663421 
L 1010.513735 170.835453 
L 1010.906392 170.71282 
L 1010.906392 170.71282 
" style="fill:none;stroke:#ffa500;stroke-linecap:square;stroke-width:1.5;"/>
   </g>
   <g id="line2d_36">
    <path clip-path="url(#pa6ba42c5da)" d="M 97.815483 169.758136 
L 100.783236 169.263139 
L 103.979278 168.944051 
L 107.860186 168.814154 
L 111.056228 168.593895 
L 113.795692 168.177412 
L 116.306868 167.565437 
L 118.818044 166.706879 
L 121.100931 165.69697 
L 123.383818 164.458711 
L 125.666705 162.986193 
L 128.177881 161.09273 
L 130.689057 158.913083 
L 133.200233 156.451522 
L 135.939697 153.45374 
L 138.90745 149.854214 
L 142.103492 145.594078 
L 145.527823 140.626081 
L 149.180442 134.920135 
L 153.289639 128.079133 
L 158.31199 119.254791 
L 165.617229 105.8969 
L 175.661932 87.57468 
L 180.684284 78.887121 
L 184.793481 72.197337 
L 188.4461 66.652201 
L 191.87043 61.855644 
L 195.066472 57.77312 
L 198.034226 54.354683 
L 200.77369 51.54005 
L 203.284866 49.262935 
L 205.796042 47.287869 
L 208.078929 45.763082 
L 210.361816 44.502828 
L 212.644703 43.512379 
L 214.699301 42.855052 
L 216.7539 42.421721 
L 218.808498 42.213729 
L 220.863096 42.231621 
L 222.917695 42.475147 
L 224.972293 42.943266 
L 227.026891 43.63415 
L 229.08149 44.545194 
L 231.364377 45.811548 
L 233.647264 47.339804 
L 235.930151 49.123118 
L 238.441327 51.369847 
L 241.180791 54.147623 
L 243.920256 57.249183 
L 246.888009 60.951703 
L 250.084051 65.30646 
L 253.508381 70.353281 
L 257.389289 76.487438 
L 261.726775 83.771341 
L 267.205704 93.441678 
L 277.935273 112.987294 
L 284.327357 124.360818 
L 289.12142 132.447563 
L 293.002328 138.586025 
L 296.654947 143.947995 
L 299.850989 148.256538 
L 302.818742 151.900438 
L 305.558207 154.934012 
L 308.297671 157.631778 
L 310.808847 159.797827 
L 313.320023 161.663786 
L 315.60291 163.098994 
L 317.885797 164.290027 
L 320.168684 165.244293 
L 322.451571 165.968623 
L 325.191036 166.604168 
L 328.615366 167.166887 
L 332.724563 167.620979 
L 336.377182 167.807555 
L 340.029802 167.99206 
L 342.540977 168.352183 
L 345.052153 168.951542 
L 347.33504 169.719942 
L 349.617927 170.711925 
L 351.900814 171.935288 
L 354.183701 173.395334 
L 356.694877 175.277941 
L 359.206053 177.450281 
L 361.717229 179.908901 
L 364.456693 182.909532 
L 367.424446 186.52062 
L 370.3922 190.485678 
L 373.588242 195.121797 
L 377.240861 200.837716 
L 381.121769 207.330711 
L 385.687543 215.411822 
L 391.623049 226.401046 
L 406.918393 254.957481 
L 411.484167 262.911912 
L 415.593364 269.626543 
L 419.245983 275.159946 
L 422.442025 279.613995 
L 425.409778 283.390539 
L 428.149243 286.544573 
L 430.888707 289.359546 
L 433.399883 291.627082 
L 435.911059 293.583188 
L 438.193946 295.08269 
L 440.476833 296.310099 
L 442.531431 297.177849 
L 444.58603 297.818107 
L 446.640628 298.228764 
L 448.695226 298.408518 
L 450.749825 298.356878 
L 452.804423 298.074157 
L 454.859021 297.561473 
L 456.91362 296.820743 
L 458.968218 295.854671 
L 461.251105 294.521233 
L 463.533992 292.919803 
L 465.816879 291.057412 
L 468.328055 288.717121 
L 470.839231 286.083286 
L 473.578695 282.891554 
L 476.546449 279.081479 
L 479.742491 274.599875 
L 483.166821 269.405117 
L 487.047729 263.089267 
L 491.385215 255.586246 
L 496.635855 246.041477 
L 505.539115 229.303268 
L 513.300931 214.906747 
L 518.094993 206.45709 
L 522.20419 199.645236 
L 525.856809 194.014097 
L 529.052851 189.471128 
L 532.020605 185.613201 
L 534.760069 182.387677 
L 537.499534 179.506001 
L 540.010709 177.18099 
L 542.521885 175.167979 
L 544.804772 173.611791 
L 547.087659 172.313835 
L 549.370546 171.264807 
L 551.653433 170.449283 
L 554.164609 169.804945 
L 557.132362 169.293374 
L 560.328404 168.958886 
L 563.752735 168.835256 
L 567.177066 168.640375 
L 569.91653 168.263524 
L 572.427706 167.693827 
L 574.938882 166.881569 
L 577.221769 165.916251 
L 579.504656 164.724178 
L 581.787543 163.298761 
L 584.298719 161.457429 
L 586.809894 159.329533 
L 589.32107 156.918683 
L 592.060535 153.97435 
L 595.028288 150.429768 
L 597.996041 146.537601 
L 601.192083 141.987793 
L 604.844702 136.38116 
L 608.953899 129.631613 
L 613.747962 121.294308 
L 620.140046 109.684742 
L 632.924213 86.361042 
L 637.718276 78.120868 
L 641.827473 71.479842 
L 645.480092 65.986788 
L 648.904423 61.245926 
L 651.872176 57.494756 
L 654.839929 54.10502 
L 657.579394 51.318502 
L 660.090569 49.068362 
L 662.601745 47.121271 
L 664.884632 45.622655 
L 667.167519 44.389154 
L 669.450407 43.42592 
L 671.505005 42.793385 
L 673.559603 42.385035 
L 675.614202 42.202126 
L 677.6688 42.245114 
L 679.723398 42.513661 
L 681.777997 43.006638 
L 683.832595 43.722129 
L 685.887193 44.657445 
L 688.170081 45.950272 
L 690.452968 47.504368 
L 692.964143 49.507306 
L 695.475319 51.807161 
L 698.214784 54.640201 
L 700.954248 57.793882 
L 703.922001 61.548944 
L 707.118043 65.955289 
L 710.542374 71.051138 
L 714.423282 77.232441 
L 718.989056 84.953357 
L 724.696274 95.086628 
L 742.731082 127.496085 
L 747.068567 134.659326 
L 750.949475 140.646184 
L 754.373806 145.528702 
L 757.569848 149.699 
L 760.537601 153.202802 
L 763.277065 156.098532 
L 765.788241 158.452665 
L 768.299417 160.510126 
L 770.810593 162.266527 
L 773.09348 163.603294 
L 775.376367 164.699195 
L 777.659254 165.558716 
L 780.17043 166.258473 
L 783.138183 166.853006 
L 787.019091 167.394992 
L 791.128288 167.745315 
L 798.205238 168.194333 
L 800.716413 168.703985 
L 802.9993 169.385593 
L 805.282187 170.286988 
L 807.565075 171.41694 
L 809.847962 172.781762 
L 812.359137 174.558757 
L 814.870313 176.625874 
L 817.381489 178.980924 
L 820.120953 181.871817 
L 822.860418 185.087238 
L 825.828171 188.918891 
L 829.024213 193.423097 
L 832.448544 198.644012 
L 836.329452 204.992853 
L 840.666937 212.535362 
L 846.145866 222.551218 
L 866.235272 259.782889 
L 870.572758 267.069694 
L 874.225377 272.791481 
L 877.649708 277.749683 
L 880.84575 281.978348 
L 883.813503 285.527385 
L 886.552967 288.457413 
L 889.064143 290.835344 
L 891.575319 292.905938 
L 893.858206 294.512553 
L 896.141093 295.849473 
L 898.42398 296.91107 
L 900.478578 297.627426 
L 902.533177 298.114796 
L 904.587775 298.371609 
L 906.642374 298.397104 
L 908.696972 298.191324 
L 910.75157 297.755122 
L 912.806169 297.090148 
L 914.860767 296.198846 
L 917.143654 294.947012 
L 919.426541 293.425301 
L 921.709428 291.640403 
L 924.220604 289.382391 
L 926.73178 286.827316 
L 929.471244 283.717013 
L 932.438998 279.989296 
L 935.635039 275.5889 
L 939.05937 270.471764 
L 942.711989 264.609957 
L 946.821186 257.597588 
L 951.843538 248.566796 
L 959.148776 234.905227 
L 969.421768 215.73175 
L 974.44412 206.846401 
L 978.553316 200.009413 
L 982.205936 194.351164 
L 985.401978 189.781042 
L 988.369731 185.895284 
L 991.109195 182.642087 
L 993.84866 179.731136 
L 996.359836 177.378218 
L 998.871011 175.336697 
L 1001.153898 173.754533 
L 1003.436786 172.431137 
L 1005.719673 171.357955 
L 1008.00256 170.51956 
L 1010.285447 169.904244 
L 1010.906392 169.76971 
L 1010.906392 169.76971 
" style="fill:none;stroke:#90ee90;stroke-linecap:square;stroke-width:1.5;"/>
   </g>
   <g id="line2d_37">
    <path clip-path="url(#pa6ba42c5da)" d="M 97.815483 168.479427 
L 102.152968 168.365693 
L 108.773341 168.487175 
L 113.339115 168.459786 
L 116.763446 168.232334 
L 119.959488 167.805395 
L 123.155529 167.143558 
L 126.123283 166.305147 
L 129.091036 165.245392 
L 132.287078 163.856289 
L 135.48312 162.215324 
L 138.90745 160.189219 
L 142.331781 157.903394 
L 145.9844 155.204269 
L 150.093597 151.885288 
L 154.659371 147.908059 
L 160.366589 142.624728 
L 172.009313 131.433222 
L 178.629685 125.264455 
L 183.652037 120.880811 
L 187.989522 117.38952 
L 191.87043 114.550053 
L 195.52305 112.159788 
L 198.94738 110.194045 
L 202.143422 108.61859 
L 205.111175 107.392901 
L 208.078929 106.40565 
L 211.046682 105.664602 
L 213.786146 105.204105 
L 216.525611 104.961341 
L 219.265075 104.937837 
L 222.00454 105.133631 
L 224.744004 105.547281 
L 227.483469 106.175872 
L 230.451222 107.094306 
L 233.418975 108.252423 
L 236.386728 109.640895 
L 239.58277 111.380945 
L 243.007101 113.508884 
L 246.65972 116.054045 
L 250.540628 119.035592 
L 254.878114 122.656133 
L 259.900465 127.148209 
L 266.520838 133.389629 
L 280.674738 146.821441 
L 285.697089 151.237503 
L 290.034575 154.762776 
L 293.915483 157.633181 
L 297.568102 160.050288 
L 300.992433 162.038269 
L 304.188475 163.633215 
L 307.156228 164.879661 
L 310.123981 165.897538 
L 313.091734 166.691996 
L 316.287776 167.316401 
L 319.940395 167.789098 
L 324.734458 168.16779 
L 329.071944 168.273039 
L 336.83376 168.187485 
L 342.0844 168.18288 
L 345.508731 168.399174 
L 348.704772 168.820016 
L 351.672526 169.425202 
L 354.640279 170.251087 
L 357.608032 171.305106 
L 360.575785 172.589392 
L 363.771827 174.227073 
L 366.967869 176.120649 
L 370.3922 178.418687 
L 374.044819 181.153546 
L 377.925727 184.345815 
L 382.263212 188.210393 
L 387.285564 192.990011 
L 394.362514 200.067193 
L 406.461815 212.199136 
L 411.712456 217.123491 
L 416.049941 220.900756 
L 419.930849 223.998989 
L 423.583469 226.631732 
L 427.007799 228.82098 
L 430.203841 230.59939 
L 433.171594 232.006834 
L 436.139347 233.167775 
L 438.878812 234.012576 
L 441.618276 234.633697 
L 444.357741 235.026944 
L 447.097205 235.189674 
L 449.83667 235.120805 
L 452.576134 234.820818 
L 455.315599 234.291754 
L 458.055063 233.537192 
L 460.794528 232.56223 
L 463.762281 231.264972 
L 466.730034 229.727074 
L 469.926076 227.815785 
L 473.350407 225.494041 
L 477.003026 222.732388 
L 480.883934 219.512364 
L 485.22142 215.61861 
L 490.243771 210.80699 
L 497.320721 203.684714 
L 509.420023 191.474375 
L 514.670663 186.525416 
L 519.008148 182.740963 
L 522.889056 179.652067 
L 526.313387 177.199597 
L 529.509429 175.168601 
L 532.705471 173.407162 
L 535.673224 172.026098 
L 538.640977 170.897178 
L 541.60873 170.019916 
L 544.576484 169.383308 
L 547.772525 168.935833 
L 551.653433 168.631359 
L 558.045517 168.367827 
L 563.296158 168.442754 
L 569.231664 168.480595 
L 572.884283 168.275201 
L 576.080325 167.879877 
L 579.276367 167.252689 
L 582.24412 166.447912 
L 585.211873 165.422277 
L 588.179627 164.174713 
L 591.375669 162.586946 
L 594.57171 160.754877 
L 597.996041 158.536215 
L 601.64866 155.901656 
L 605.757857 152.645156 
L 610.323631 148.723192 
L 615.80256 143.700866 
L 624.249242 135.602907 
L 633.380791 126.928803 
L 638.631431 122.238497 
L 643.197205 118.456617 
L 647.078113 115.517028 
L 650.730732 113.020252 
L 654.155063 110.945083 
L 657.351105 109.260241 
L 660.547147 107.834715 
L 663.5149 106.754717 
L 666.482653 105.918171 
L 669.222118 105.367749 
L 671.961582 105.033987 
L 674.701047 104.919032 
L 677.440511 105.023541 
L 680.179976 105.34669 
L 682.91944 105.886175 
L 685.887193 106.710346 
L 688.854947 107.77729 
L 691.8227 109.0784 
L 695.018742 110.729428 
L 698.214784 112.624483 
L 701.639114 114.905585 
L 705.291734 117.597568 
L 709.40093 120.905074 
L 713.966704 124.866083 
L 719.673922 130.127273 
L 730.403491 140.412231 
L 737.480441 147.027191 
L 742.502793 151.429172 
L 746.840278 154.938393 
L 750.721186 157.791645 
L 754.145517 160.049323 
L 757.569848 162.037393 
L 760.765889 163.632426 
L 763.733643 164.878956 
L 766.701396 165.896922 
L 769.669149 166.691471 
L 772.865191 167.315974 
L 776.51781 167.788779 
L 781.311873 168.167545 
L 785.649359 168.272794 
L 793.411175 168.187316 
L 798.661815 168.182614 
L 802.086146 168.398813 
L 805.282187 168.819563 
L 808.249941 169.424663 
L 811.217694 170.250461 
L 814.185447 171.304395 
L 817.1532 172.588594 
L 820.349242 174.226184 
L 823.545284 176.119671 
L 826.969615 178.417616 
L 830.622234 181.152379 
L 834.503142 184.344549 
L 838.840627 188.209022 
L 843.862979 192.988525 
L 850.939929 200.065559 
L 863.03923 212.19729 
L 868.289871 217.121568 
L 872.627356 220.898778 
L 876.508264 223.996967 
L 880.160884 226.629673 
L 883.585214 228.818891 
L 886.781256 230.597277 
L 889.749009 232.004702 
L 892.716762 233.165627 
L 895.456227 234.010417 
L 898.195691 234.631529 
L 900.935156 235.02477 
L 903.67462 235.187496 
L 906.414085 235.118626 
L 909.153549 234.818641 
L 911.893014 234.289582 
L 914.632478 233.535027 
L 917.371943 232.560073 
L 920.339696 231.262829 
L 923.307449 229.724947 
L 926.503491 227.813679 
L 929.927822 225.491961 
L 933.580441 222.730341 
L 937.461349 219.510356 
L 941.798835 215.616652 
L 946.821186 210.805097 
L 953.898136 203.682928 
L 965.997438 191.472813 
L 971.248078 186.52397 
L 975.585563 182.739621 
L 979.466471 179.650825 
L 982.890802 177.198452 
L 986.086844 175.167552 
L 989.282886 173.406215 
L 992.250639 172.025254 
L 995.218392 170.896444 
L 998.186145 170.0193 
L 1001.153898 169.382818 
L 1004.34994 168.935485 
L 1008.230848 168.631171 
L 1010.906392 168.482457 
L 1010.906392 168.482457 
" style="fill:none;stroke:#ff00ff;stroke-linecap:square;stroke-width:1.5;"/>
   </g>
   <g id="line2d_38">
    <path clip-path="url(#pa6ba42c5da)" d="M 97.815483 168.344678 
L 103.066123 168.252311 
L 111.512805 168.471595 
L 116.763446 168.490468 
L 120.872642 168.289969 
L 124.75355 167.879187 
L 128.40617 167.277235 
L 132.058789 166.459385 
L 135.939697 165.35485 
L 139.820605 164.016188 
L 143.929802 162.360643 
L 148.267287 160.374475 
L 153.06135 157.936839 
L 158.768568 154.779058 
L 166.986961 149.946971 
L 178.629685 143.120658 
L 184.336903 140.034492 
L 189.130966 137.677494 
L 193.468451 135.778463 
L 197.577648 134.217316 
L 201.458556 132.97935 
L 205.111175 132.040762 
L 208.763795 131.334322 
L 212.188125 130.891 
L 215.612456 130.6647 
L 219.036787 130.657905 
L 222.461117 130.87059 
L 225.885448 131.300233 
L 229.538067 131.991984 
L 233.190686 132.915788 
L 237.071595 134.137993 
L 240.952503 135.590369 
L 245.289988 137.459392 
L 249.855762 139.669991 
L 255.106402 142.461771 
L 261.726775 146.246851 
L 280.446449 157.115647 
L 285.697089 159.818396 
L 290.262863 161.923351 
L 294.37206 163.582671 
L 298.252968 164.919519 
L 302.133876 166.01579 
L 305.786495 166.820784 
L 309.667404 167.439158 
L 313.7766 167.851988 
L 318.798952 168.107565 
L 330.669965 168.417163 
L 347.33504 168.282808 
L 351.215948 168.575077 
L 354.868568 169.061441 
L 358.521187 169.768491 
L 362.173806 170.702348 
L 365.826426 171.861531 
L 369.707334 173.331089 
L 373.81653 175.136367 
L 378.154016 177.291257 
L 382.948079 179.925303 
L 388.655296 183.32539 
L 397.101978 188.654651 
L 407.831548 195.385395 
L 413.538765 198.699399 
L 418.332828 201.234147 
L 422.670314 203.279395 
L 426.551222 204.876904 
L 430.43213 206.230007 
L 434.084749 207.262188 
L 437.50908 208.004921 
L 440.93341 208.521176 
L 444.357741 208.804994 
L 447.782072 208.853075 
L 451.206402 208.664804 
L 454.630733 208.242254 
L 458.055063 207.590163 
L 461.479394 206.715881 
L 465.132013 205.549605 
L 469.012921 204.062716 
L 473.122118 202.234035 
L 477.459604 200.052844 
L 482.253666 197.390283 
L 487.960884 193.958193 
L 496.407566 188.586273 
L 506.908847 181.957445 
L 512.387776 178.759201 
L 517.181839 176.216868 
L 521.291035 174.279226 
L 525.171943 172.687551 
L 528.824563 171.422912 
L 532.477182 170.398619 
L 535.901513 169.661372 
L 539.554132 169.106801 
L 543.43504 168.753758 
L 548.68568 168.537426 
L 560.556693 168.26661 
L 574.710593 168.448007 
L 578.81979 168.17066 
L 582.700698 167.678123 
L 586.353317 166.995488 
L 590.005936 166.09644 
L 593.886844 164.907836 
L 597.767752 163.489799 
L 601.876949 161.757609 
L 606.442723 159.58689 
L 611.465075 156.951367 
L 617.62887 153.458766 
L 640.229452 140.388999 
L 645.251804 137.889595 
L 649.589289 135.965291 
L 653.698486 134.376975 
L 657.579394 133.1109 
L 661.232013 132.144069 
L 664.884632 131.408035 
L 668.308963 130.93609 
L 671.733294 130.680651 
L 675.157624 130.644532 
L 678.581955 130.828046 
L 682.006285 131.229002 
L 685.658905 131.891054 
L 689.311524 132.786466 
L 693.192432 133.980353 
L 697.07334 135.406726 
L 701.182537 137.146855 
L 705.748311 139.322766 
L 710.998951 142.083579 
L 717.391035 145.711311 
L 738.165307 157.724273 
L 743.187659 160.258515 
L 747.753433 162.311709 
L 751.86263 163.917409 
L 755.743538 165.198941 
L 759.396157 166.183002 
L 763.048777 166.946876 
L 766.929685 167.52386 
L 771.038881 167.899784 
L 776.51781 168.147778 
L 787.019091 168.419981 
L 804.369033 168.305816 
L 808.249941 168.62387 
L 811.90256 169.137099 
L 815.555179 169.872241 
L 819.207799 170.834396 
L 822.860418 172.021217 
L 826.741326 173.518601 
L 830.850523 175.350805 
L 835.188008 177.5305 
L 839.982071 180.186835 
L 845.917577 183.74662 
L 855.049126 189.528556 
L 864.637251 195.521366 
L 870.344469 198.824213 
L 875.138532 201.346388 
L 879.476017 203.378009 
L 883.356925 204.961735 
L 887.009545 206.228239 
L 890.662164 207.2604 
L 894.086495 208.003119 
L 897.510825 208.519363 
L 900.935156 208.803175 
L 904.359487 208.851253 
L 907.783817 208.662984 
L 911.208148 208.24044 
L 914.632478 207.588358 
L 918.056809 206.714089 
L 921.709428 205.547831 
L 925.590336 204.060967 
L 929.699533 202.232317 
L 934.037018 200.051166 
L 938.831081 197.388655 
L 944.538299 193.956634 
L 952.984981 188.584838 
L 963.486262 181.956197 
L 968.965191 178.758067 
L 973.759254 176.215842 
L 977.86845 174.278302 
L 981.749358 172.686729 
L 985.401978 171.422193 
L 989.054597 170.39801 
L 992.478928 169.660872 
L 996.131547 169.106422 
L 1000.012455 168.753512 
L 1005.263095 168.53728 
L 1010.906392 168.346866 
L 1010.906392 168.346866 
" style="fill:none;stroke:#add8e6;stroke-linecap:square;stroke-width:1.5;"/>
   </g>
   <g id="patch_3">
    <path d="M 52.160938 333.36 
L 52.160938 7.2 
" style="fill:none;stroke:#000000;stroke-linecap:square;stroke-linejoin:miter;stroke-width:0.8;"/>
   </g>
   <g id="patch_4">
    <path d="M 1056.560938 333.36 
L 1056.560938 7.2 
" style="fill:none;stroke:#000000;stroke-linecap:square;stroke-linejoin:miter;stroke-width:0.8;"/>
   </g>
   <g id="patch_5">
    <path d="M 52.160938 333.36 
L 1056.560937 333.36 
" style="fill:none;stroke:#000000;stroke-linecap:square;stroke-linejoin:miter;stroke-width:0.8;"/>
   </g>
   <g id="patch_6">
    <path d="M 52.160938 7.2 
L 1056.560937 7.2 
" style="fill:none;stroke:#000000;stroke-linecap:square;stroke-linejoin:miter;stroke-width:0.8;"/>
   </g>
   <g id="text_20">
    <!-- Way Huge Red LLama -->
    <g transform="translate(488.762188 392.592)scale(0.12 -0.12)">
     <defs>
      <path d="M 3.328125 72.90625 
L 13.28125 72.90625 
L 28.609375 11.28125 
L 43.890625 72.90625 
L 54.984375 72.90625 
L 70.3125 11.28125 
L 85.59375 72.90625 
L 95.609375 72.90625 
L 77.296875 0 
L 64.890625 0 
L 49.515625 63.28125 
L 33.984375 0 
L 21.578125 0 
z
" id="DejaVuSans-87"/>
      <path d="M 34.28125 27.484375 
Q 23.390625 27.484375 19.1875 25 
Q 14.984375 22.515625 14.984375 16.5 
Q 14.984375 11.71875 18.140625 8.90625 
Q 21.296875 6.109375 26.703125 6.109375 
Q 34.1875 6.109375 38.703125 11.40625 
Q 43.21875 16.703125 43.21875 25.484375 
L 43.21875 27.484375 
z
M 52.203125 31.203125 
L 52.203125 0 
L 43.21875 0 
L 43.21875 8.296875 
Q 40.140625 3.328125 35.546875 0.953125 
Q 30.953125 -1.421875 24.3125 -1.421875 
Q 15.921875 -1.421875 10.953125 3.296875 
Q 6 8.015625 6 15.921875 
Q 6 25.140625 12.171875 29.828125 
Q 18.359375 34.515625 30.609375 34.515625 
L 43.21875 34.515625 
L 43.21875 35.40625 
Q 43.21875 41.609375 39.140625 45 
Q 35.0625 48.390625 27.6875 48.390625 
Q 23 48.390625 18.546875 47.265625 
Q 14.109375 46.140625 10.015625 43.890625 
L 10.015625 52.203125 
Q 14.9375 54.109375 19.578125 55.046875 
Q 24.21875 56 28.609375 56 
Q 40.484375 56 46.34375 49.84375 
Q 52.203125 43.703125 52.203125 31.203125 
z
" id="DejaVuSans-97"/>
      <path d="M 32.171875 -5.078125 
Q 28.375 -14.84375 24.75 -17.8125 
Q 21.140625 -20.796875 15.09375 -20.796875 
L 7.90625 -20.796875 
L 7.90625 -13.28125 
L 13.1875 -13.28125 
Q 16.890625 -13.28125 18.9375 -11.515625 
Q 21 -9.765625 23.484375 -3.21875 
L 25.09375 0.875 
L 2.984375 54.6875 
L 12.5 54.6875 
L 29.59375 11.921875 
L 46.6875 54.6875 
L 56.203125 54.6875 
z
" id="DejaVuSans-121"/>
      <path d="M 9.8125 72.90625 
L 19.671875 72.90625 
L 19.671875 43.015625 
L 55.515625 43.015625 
L 55.515625 72.90625 
L 65.375 72.90625 
L 65.375 0 
L 55.515625 0 
L 55.515625 34.71875 
L 19.671875 34.71875 
L 19.671875 0 
L 9.8125 0 
z
" id="DejaVuSans-72"/>
      <path d="M 8.5 21.578125 
L 8.5 54.6875 
L 17.484375 54.6875 
L 17.484375 21.921875 
Q 17.484375 14.15625 20.5 10.265625 
Q 23.53125 6.390625 29.59375 6.390625 
Q 36.859375 6.390625 41.078125 11.03125 
Q 45.3125 15.671875 45.3125 23.6875 
L 45.3125 54.6875 
L 54.296875 54.6875 
L 54.296875 0 
L 45.3125 0 
L 45.3125 8.40625 
Q 42.046875 3.421875 37.71875 1 
Q 33.40625 -1.421875 27.6875 -1.421875 
Q 18.265625 -1.421875 13.375 4.4375 
Q 8.5 10.296875 8.5 21.578125 
z
M 31.109375 56 
z
" id="DejaVuSans-117"/>
      <path d="M 45.40625 27.984375 
Q 45.40625 37.75 41.375 43.109375 
Q 37.359375 48.484375 30.078125 48.484375 
Q 22.859375 48.484375 18.828125 43.109375 
Q 14.796875 37.75 14.796875 27.984375 
Q 14.796875 18.265625 18.828125 12.890625 
Q 22.859375 7.515625 30.078125 7.515625 
Q 37.359375 7.515625 41.375 12.890625 
Q 45.40625 18.265625 45.40625 27.984375 
z
M 54.390625 6.78125 
Q 54.390625 -7.171875 48.1875 -13.984375 
Q 42 -20.796875 29.203125 -20.796875 
Q 24.46875 -20.796875 20.265625 -20.09375 
Q 16.0625 -19.390625 12.109375 -17.921875 
L 12.109375 -9.1875 
Q 16.0625 -11.328125 19.921875 -12.34375 
Q 23.78125 -13.375 27.78125 -13.375 
Q 36.625 -13.375 41.015625 -8.765625 
Q 45.40625 -4.15625 45.40625 5.171875 
L 45.40625 9.625 
Q 42.625 4.78125 38.28125 2.390625 
Q 33.9375 0 27.875 0 
Q 17.828125 0 11.671875 7.65625 
Q 5.515625 15.328125 5.515625 27.984375 
Q 5.515625 40.671875 11.671875 48.328125 
Q 17.828125 56 27.875 56 
Q 33.9375 56 38.28125 53.609375 
Q 42.625 51.21875 45.40625 46.390625 
L 45.40625 54.6875 
L 54.390625 54.6875 
z
" id="DejaVuSans-103"/>
      <path d="M 56.203125 29.59375 
L 56.203125 25.203125 
L 14.890625 25.203125 
Q 15.484375 15.921875 20.484375 11.0625 
Q 25.484375 6.203125 34.421875 6.203125 
Q 39.59375 6.203125 44.453125 7.46875 
Q 49.3125 8.734375 54.109375 11.28125 
L 54.109375 2.78125 
Q 49.265625 0.734375 44.1875 -0.34375 
Q 39.109375 -1.421875 33.890625 -1.421875 
Q 20.796875 -1.421875 13.15625 6.1875 
Q 5.515625 13.8125 5.515625 26.8125 
Q 5.515625 40.234375 12.765625 48.109375 
Q 20.015625 56 32.328125 56 
Q 43.359375 56 49.78125 48.890625 
Q 56.203125 41.796875 56.203125 29.59375 
z
M 47.21875 32.234375 
Q 47.125 39.59375 43.09375 43.984375 
Q 39.0625 48.390625 32.421875 48.390625 
Q 24.90625 48.390625 20.390625 44.140625 
Q 15.875 39.890625 15.1875 32.171875 
z
" id="DejaVuSans-101"/>
      <path d="M 44.390625 34.1875 
Q 47.5625 33.109375 50.5625 29.59375 
Q 53.5625 26.078125 56.59375 19.921875 
L 66.609375 0 
L 56 0 
L 46.6875 18.703125 
Q 43.0625 26.03125 39.671875 28.421875 
Q 36.28125 30.8125 30.421875 30.8125 
L 19.671875 30.8125 
L 19.671875 0 
L 9.8125 0 
L 9.8125 72.90625 
L 32.078125 72.90625 
Q 44.578125 72.90625 50.734375 67.671875 
Q 56.890625 62.453125 56.890625 51.90625 
Q 56.890625 45.015625 53.6875 40.46875 
Q 50.484375 35.9375 44.390625 34.1875 
z
M 19.671875 64.796875 
L 19.671875 38.921875 
L 32.078125 38.921875 
Q 39.203125 38.921875 42.84375 42.21875 
Q 46.484375 45.515625 46.484375 51.90625 
Q 46.484375 58.296875 42.84375 61.546875 
Q 39.203125 64.796875 32.078125 64.796875 
z
" id="DejaVuSans-82"/>
      <path d="M 45.40625 46.390625 
L 45.40625 75.984375 
L 54.390625 75.984375 
L 54.390625 0 
L 45.40625 0 
L 45.40625 8.203125 
Q 42.578125 3.328125 38.25 0.953125 
Q 33.9375 -1.421875 27.875 -1.421875 
Q 17.96875 -1.421875 11.734375 6.484375 
Q 5.515625 14.40625 5.515625 27.296875 
Q 5.515625 40.1875 11.734375 48.09375 
Q 17.96875 56 27.875 56 
Q 33.9375 56 38.25 53.625 
Q 42.578125 51.265625 45.40625 46.390625 
z
M 14.796875 27.296875 
Q 14.796875 17.390625 18.875 11.75 
Q 22.953125 6.109375 30.078125 6.109375 
Q 37.203125 6.109375 41.296875 11.75 
Q 45.40625 17.390625 45.40625 27.296875 
Q 45.40625 37.203125 41.296875 42.84375 
Q 37.203125 48.484375 30.078125 48.484375 
Q 22.953125 48.484375 18.875 42.84375 
Q 14.796875 37.203125 14.796875 27.296875 
z
" id="DejaVuSans-100"/>
      <path d="M 9.8125 72.90625 
L 19.671875 72.90625 
L 19.671875 8.296875 
L 55.171875 8.296875 
L 55.171875 0 
L 9.8125 0 
z
" id="DejaVuSans-76"/>
     </defs>
     <use xlink:href="#DejaVuSans-87"/>
     <use x="92.501953" xlink:href="#DejaVuSans-97"/>
     <use x="153.78125" xlink:href="#DejaVuSans-121"/>
     <use x="212.960938" xlink:href="#DejaVuSans-32"/>
     <use x="244.748047" xlink:href="#DejaVuSans-72"/>
     <use x="319.943359" xlink:href="#DejaVuSans-117"/>
     <use x="383.322266" xlink:href="#DejaVuSans-103"/>
     <use x="446.798828" xlink:href="#DejaVuSans-101"/>
     <use x="508.322266" xlink:href="#DejaVuSans-32"/>
     <use x="540.109375" xlink:href="#DejaVuSans-82"/>
     <use x="605.091797" xlink:href="#DejaVuSans-101"/>
     <use x="666.615234" xlink:href="#DejaVuSans-100"/>
     <use x="730.091797" xlink:href="#DejaVuSans-32"/>
     <use x="761.878906" xlink:href="#DejaVuSans-76"/>
     <use x="817.591797" xlink:href="#DejaVuSans-76"/>
     <use x="873.304688" xlink:href="#DejaVuSans-97"/>
     <use x="934.583984" xlink:href="#DejaVuSans-109"/>
     <use x="1031.996094" xlink:href="#DejaVuSans-97"/>
    </g>
   </g>
  </g>
 </g>
 <defs>
  <clipPath id="pa6ba42c5da">
   <rect height="326.16" width="1004.4" x="52.160938" y="7.2"/>
  </clipPath>
 </defs>
</svg>
