<?xml version="1.0" encoding="utf-8" standalone="no"?>
<!DOCTYPE svg PUBLIC "-//W3C//DTD SVG 1.1//EN"
  "http://www.w3.org/Graphics/SVG/1.1/DTD/svg11.dtd">
<!-- Created with matplotlib (https://matplotlib.org/) -->
<svg height="402.287625pt" version="1.1" viewBox="0 0 1063.760938 402.287625" width="1063.760938pt" xmlns="http://www.w3.org/2000/svg" xmlns:xlink="http://www.w3.org/1999/xlink">
 <metadata>
  <rdf:RDF xmlns:cc="http://creativecommons.org/ns#" xmlns:dc="http://purl.org/dc/elements/1.1/" xmlns:rdf="http://www.w3.org/1999/02/22-rdf-syntax-ns#">
   <cc:Work>
    <dc:type rdf:resource="http://purl.org/dc/dcmitype/StillImage"/>
    <dc:date>2021-01-19T14:58:19.081197</dc:date>
    <dc:format>image/svg+xml</dc:format>
    <dc:creator>
     <cc:Agent>
      <dc:title>Matplotlib v3.3.3, https://matplotlib.org/</dc:title>
     </cc:Agent>
    </dc:creator>
   </cc:Work>
  </rdf:RDF>
 </metadata>
 <defs>
  <style type="text/css">*{stroke-linecap:butt;stroke-linejoin:round;}</style>
 </defs>
 <g id="figure_1">
  <g id="patch_1">
   <path d="M 0 402.287625 
L 1063.760938 402.287625 
L 1063.760938 0 
L 0 0 
z
" style="fill:none;"/>
  </g>
  <g id="axes_1">
   <g id="patch_2">
    <path d="M 52.160938 333.36 
L 1056.560938 333.36 
L 1056.560938 7.2 
L 52.160938 7.2 
z
" style="fill:#ffffff;"/>
   </g>
   <g id="matplotlib.axis_1">
    <g id="xtick_1">
     <g id="line2d_1">
      <path clip-path="url(#p36e08d54b7)" d="M 97.733076 333.36 
L 97.733076 7.2 
" style="fill:none;stroke:#b0b0b0;stroke-linecap:square;stroke-width:0.8;"/>
     </g>
     <g id="line2d_2">
      <defs>
       <path d="M 0 0 
L 0 3.5 
" id="m093ebf4015" style="stroke:#000000;stroke-width:0.8;"/>
      </defs>
      <g>
       <use style="stroke:#000000;stroke-width:0.8;" x="97.733076" xlink:href="#m093ebf4015" y="333.36"/>
      </g>
     </g>
     <g id="text_1">
      <!-- 100.0 -->
      <g transform="translate(83.419013 347.958438)scale(0.1 -0.1)">
       <defs>
        <path d="M 12.40625 8.296875 
L 28.515625 8.296875 
L 28.515625 63.921875 
L 10.984375 60.40625 
L 10.984375 69.390625 
L 28.421875 72.90625 
L 38.28125 72.90625 
L 38.28125 8.296875 
L 54.390625 8.296875 
L 54.390625 0 
L 12.40625 0 
z
" id="DejaVuSans-49"/>
        <path d="M 31.78125 66.40625 
Q 24.171875 66.40625 20.328125 58.90625 
Q 16.5 51.421875 16.5 36.375 
Q 16.5 21.390625 20.328125 13.890625 
Q 24.171875 6.390625 31.78125 6.390625 
Q 39.453125 6.390625 43.28125 13.890625 
Q 47.125 21.390625 47.125 36.375 
Q 47.125 51.421875 43.28125 58.90625 
Q 39.453125 66.40625 31.78125 66.40625 
z
M 31.78125 74.21875 
Q 44.046875 74.21875 50.515625 64.515625 
Q 56.984375 54.828125 56.984375 36.375 
Q 56.984375 17.96875 50.515625 8.265625 
Q 44.046875 -1.421875 31.78125 -1.421875 
Q 19.53125 -1.421875 13.0625 8.265625 
Q 6.59375 17.96875 6.59375 36.375 
Q 6.59375 54.828125 13.0625 64.515625 
Q 19.53125 74.21875 31.78125 74.21875 
z
" id="DejaVuSans-48"/>
        <path d="M 10.6875 12.40625 
L 21 12.40625 
L 21 0 
L 10.6875 0 
z
" id="DejaVuSans-46"/>
       </defs>
       <use xlink:href="#DejaVuSans-49"/>
       <use x="63.623047" xlink:href="#DejaVuSans-48"/>
       <use x="127.246094" xlink:href="#DejaVuSans-48"/>
       <use x="190.869141" xlink:href="#DejaVuSans-46"/>
       <use x="222.65625" xlink:href="#DejaVuSans-48"/>
      </g>
     </g>
    </g>
    <g id="xtick_2">
     <g id="line2d_3">
      <path clip-path="url(#p36e08d54b7)" d="M 211.87974 333.36 
L 211.87974 7.2 
" style="fill:none;stroke:#b0b0b0;stroke-linecap:square;stroke-width:0.8;"/>
     </g>
     <g id="line2d_4">
      <g>
       <use style="stroke:#000000;stroke-width:0.8;" x="211.87974" xlink:href="#m093ebf4015" y="333.36"/>
      </g>
     </g>
     <g id="text_2">
      <!-- 100.5 -->
      <g transform="translate(197.565678 347.958438)scale(0.1 -0.1)">
       <defs>
        <path d="M 10.796875 72.90625 
L 49.515625 72.90625 
L 49.515625 64.59375 
L 19.828125 64.59375 
L 19.828125 46.734375 
Q 21.96875 47.46875 24.109375 47.828125 
Q 26.265625 48.1875 28.421875 48.1875 
Q 40.625 48.1875 47.75 41.5 
Q 54.890625 34.8125 54.890625 23.390625 
Q 54.890625 11.625 47.5625 5.09375 
Q 40.234375 -1.421875 26.90625 -1.421875 
Q 22.3125 -1.421875 17.546875 -0.640625 
Q 12.796875 0.140625 7.71875 1.703125 
L 7.71875 11.625 
Q 12.109375 9.234375 16.796875 8.0625 
Q 21.484375 6.890625 26.703125 6.890625 
Q 35.15625 6.890625 40.078125 11.328125 
Q 45.015625 15.765625 45.015625 23.390625 
Q 45.015625 31 40.078125 35.4375 
Q 35.15625 39.890625 26.703125 39.890625 
Q 22.75 39.890625 18.8125 39.015625 
Q 14.890625 38.140625 10.796875 36.28125 
z
" id="DejaVuSans-53"/>
       </defs>
       <use xlink:href="#DejaVuSans-49"/>
       <use x="63.623047" xlink:href="#DejaVuSans-48"/>
       <use x="127.246094" xlink:href="#DejaVuSans-48"/>
       <use x="190.869141" xlink:href="#DejaVuSans-46"/>
       <use x="222.65625" xlink:href="#DejaVuSans-53"/>
      </g>
     </g>
    </g>
    <g id="xtick_3">
     <g id="line2d_5">
      <path clip-path="url(#p36e08d54b7)" d="M 326.026405 333.36 
L 326.026405 7.2 
" style="fill:none;stroke:#b0b0b0;stroke-linecap:square;stroke-width:0.8;"/>
     </g>
     <g id="line2d_6">
      <g>
       <use style="stroke:#000000;stroke-width:0.8;" x="326.026405" xlink:href="#m093ebf4015" y="333.36"/>
      </g>
     </g>
     <g id="text_3">
      <!-- 101.0 -->
      <g transform="translate(311.712342 347.958438)scale(0.1 -0.1)">
       <use xlink:href="#DejaVuSans-49"/>
       <use x="63.623047" xlink:href="#DejaVuSans-48"/>
       <use x="127.246094" xlink:href="#DejaVuSans-49"/>
       <use x="190.869141" xlink:href="#DejaVuSans-46"/>
       <use x="222.65625" xlink:href="#DejaVuSans-48"/>
      </g>
     </g>
    </g>
    <g id="xtick_4">
     <g id="line2d_7">
      <path clip-path="url(#p36e08d54b7)" d="M 440.173069 333.36 
L 440.173069 7.2 
" style="fill:none;stroke:#b0b0b0;stroke-linecap:square;stroke-width:0.8;"/>
     </g>
     <g id="line2d_8">
      <g>
       <use style="stroke:#000000;stroke-width:0.8;" x="440.173069" xlink:href="#m093ebf4015" y="333.36"/>
      </g>
     </g>
     <g id="text_4">
      <!-- 101.5 -->
      <g transform="translate(425.859007 347.958438)scale(0.1 -0.1)">
       <use xlink:href="#DejaVuSans-49"/>
       <use x="63.623047" xlink:href="#DejaVuSans-48"/>
       <use x="127.246094" xlink:href="#DejaVuSans-49"/>
       <use x="190.869141" xlink:href="#DejaVuSans-46"/>
       <use x="222.65625" xlink:href="#DejaVuSans-53"/>
      </g>
     </g>
    </g>
    <g id="xtick_5">
     <g id="line2d_9">
      <path clip-path="url(#p36e08d54b7)" d="M 554.319734 333.36 
L 554.319734 7.2 
" style="fill:none;stroke:#b0b0b0;stroke-linecap:square;stroke-width:0.8;"/>
     </g>
     <g id="line2d_10">
      <g>
       <use style="stroke:#000000;stroke-width:0.8;" x="554.319734" xlink:href="#m093ebf4015" y="333.36"/>
      </g>
     </g>
     <g id="text_5">
      <!-- 102.0 -->
      <g transform="translate(540.005671 347.958438)scale(0.1 -0.1)">
       <defs>
        <path d="M 19.1875 8.296875 
L 53.609375 8.296875 
L 53.609375 0 
L 7.328125 0 
L 7.328125 8.296875 
Q 12.9375 14.109375 22.625 23.890625 
Q 32.328125 33.6875 34.8125 36.53125 
Q 39.546875 41.84375 41.421875 45.53125 
Q 43.3125 49.21875 43.3125 52.78125 
Q 43.3125 58.59375 39.234375 62.25 
Q 35.15625 65.921875 28.609375 65.921875 
Q 23.96875 65.921875 18.8125 64.3125 
Q 13.671875 62.703125 7.8125 59.421875 
L 7.8125 69.390625 
Q 13.765625 71.78125 18.9375 73 
Q 24.125 74.21875 28.421875 74.21875 
Q 39.75 74.21875 46.484375 68.546875 
Q 53.21875 62.890625 53.21875 53.421875 
Q 53.21875 48.921875 51.53125 44.890625 
Q 49.859375 40.875 45.40625 35.40625 
Q 44.1875 33.984375 37.640625 27.21875 
Q 31.109375 20.453125 19.1875 8.296875 
z
" id="DejaVuSans-50"/>
       </defs>
       <use xlink:href="#DejaVuSans-49"/>
       <use x="63.623047" xlink:href="#DejaVuSans-48"/>
       <use x="127.246094" xlink:href="#DejaVuSans-50"/>
       <use x="190.869141" xlink:href="#DejaVuSans-46"/>
       <use x="222.65625" xlink:href="#DejaVuSans-48"/>
      </g>
     </g>
    </g>
    <g id="xtick_6">
     <g id="line2d_11">
      <path clip-path="url(#p36e08d54b7)" d="M 668.466398 333.36 
L 668.466398 7.2 
" style="fill:none;stroke:#b0b0b0;stroke-linecap:square;stroke-width:0.8;"/>
     </g>
     <g id="line2d_12">
      <g>
       <use style="stroke:#000000;stroke-width:0.8;" x="668.466398" xlink:href="#m093ebf4015" y="333.36"/>
      </g>
     </g>
     <g id="text_6">
      <!-- 102.5 -->
      <g transform="translate(654.152336 347.958438)scale(0.1 -0.1)">
       <use xlink:href="#DejaVuSans-49"/>
       <use x="63.623047" xlink:href="#DejaVuSans-48"/>
       <use x="127.246094" xlink:href="#DejaVuSans-50"/>
       <use x="190.869141" xlink:href="#DejaVuSans-46"/>
       <use x="222.65625" xlink:href="#DejaVuSans-53"/>
      </g>
     </g>
    </g>
    <g id="xtick_7">
     <g id="line2d_13">
      <path clip-path="url(#p36e08d54b7)" d="M 782.613063 333.36 
L 782.613063 7.2 
" style="fill:none;stroke:#b0b0b0;stroke-linecap:square;stroke-width:0.8;"/>
     </g>
     <g id="line2d_14">
      <g>
       <use style="stroke:#000000;stroke-width:0.8;" x="782.613063" xlink:href="#m093ebf4015" y="333.36"/>
      </g>
     </g>
     <g id="text_7">
      <!-- 103.0 -->
      <g transform="translate(768.299 347.958438)scale(0.1 -0.1)">
       <defs>
        <path d="M 40.578125 39.3125 
Q 47.65625 37.796875 51.625 33 
Q 55.609375 28.21875 55.609375 21.1875 
Q 55.609375 10.40625 48.1875 4.484375 
Q 40.765625 -1.421875 27.09375 -1.421875 
Q 22.515625 -1.421875 17.65625 -0.515625 
Q 12.796875 0.390625 7.625 2.203125 
L 7.625 11.71875 
Q 11.71875 9.328125 16.59375 8.109375 
Q 21.484375 6.890625 26.8125 6.890625 
Q 36.078125 6.890625 40.9375 10.546875 
Q 45.796875 14.203125 45.796875 21.1875 
Q 45.796875 27.640625 41.28125 31.265625 
Q 36.765625 34.90625 28.71875 34.90625 
L 20.21875 34.90625 
L 20.21875 43.015625 
L 29.109375 43.015625 
Q 36.375 43.015625 40.234375 45.921875 
Q 44.09375 48.828125 44.09375 54.296875 
Q 44.09375 59.90625 40.109375 62.90625 
Q 36.140625 65.921875 28.71875 65.921875 
Q 24.65625 65.921875 20.015625 65.03125 
Q 15.375 64.15625 9.8125 62.3125 
L 9.8125 71.09375 
Q 15.4375 72.65625 20.34375 73.4375 
Q 25.25 74.21875 29.59375 74.21875 
Q 40.828125 74.21875 47.359375 69.109375 
Q 53.90625 64.015625 53.90625 55.328125 
Q 53.90625 49.265625 50.4375 45.09375 
Q 46.96875 40.921875 40.578125 39.3125 
z
" id="DejaVuSans-51"/>
       </defs>
       <use xlink:href="#DejaVuSans-49"/>
       <use x="63.623047" xlink:href="#DejaVuSans-48"/>
       <use x="127.246094" xlink:href="#DejaVuSans-51"/>
       <use x="190.869141" xlink:href="#DejaVuSans-46"/>
       <use x="222.65625" xlink:href="#DejaVuSans-48"/>
      </g>
     </g>
    </g>
    <g id="xtick_8">
     <g id="line2d_15">
      <path clip-path="url(#p36e08d54b7)" d="M 896.759728 333.36 
L 896.759728 7.2 
" style="fill:none;stroke:#b0b0b0;stroke-linecap:square;stroke-width:0.8;"/>
     </g>
     <g id="line2d_16">
      <g>
       <use style="stroke:#000000;stroke-width:0.8;" x="896.759728" xlink:href="#m093ebf4015" y="333.36"/>
      </g>
     </g>
     <g id="text_8">
      <!-- 103.5 -->
      <g transform="translate(882.445665 347.958438)scale(0.1 -0.1)">
       <use xlink:href="#DejaVuSans-49"/>
       <use x="63.623047" xlink:href="#DejaVuSans-48"/>
       <use x="127.246094" xlink:href="#DejaVuSans-51"/>
       <use x="190.869141" xlink:href="#DejaVuSans-46"/>
       <use x="222.65625" xlink:href="#DejaVuSans-53"/>
      </g>
     </g>
    </g>
    <g id="xtick_9">
     <g id="line2d_17">
      <path clip-path="url(#p36e08d54b7)" d="M 1010.906392 333.36 
L 1010.906392 7.2 
" style="fill:none;stroke:#b0b0b0;stroke-linecap:square;stroke-width:0.8;"/>
     </g>
     <g id="line2d_18">
      <g>
       <use style="stroke:#000000;stroke-width:0.8;" x="1010.906392" xlink:href="#m093ebf4015" y="333.36"/>
      </g>
     </g>
     <g id="text_9">
      <!-- 104.0 -->
      <g transform="translate(996.59233 347.958438)scale(0.1 -0.1)">
       <defs>
        <path d="M 37.796875 64.3125 
L 12.890625 25.390625 
L 37.796875 25.390625 
z
M 35.203125 72.90625 
L 47.609375 72.90625 
L 47.609375 25.390625 
L 58.015625 25.390625 
L 58.015625 17.1875 
L 47.609375 17.1875 
L 47.609375 0 
L 37.796875 0 
L 37.796875 17.1875 
L 4.890625 17.1875 
L 4.890625 26.703125 
z
" id="DejaVuSans-52"/>
       </defs>
       <use xlink:href="#DejaVuSans-49"/>
       <use x="63.623047" xlink:href="#DejaVuSans-48"/>
       <use x="127.246094" xlink:href="#DejaVuSans-52"/>
       <use x="190.869141" xlink:href="#DejaVuSans-46"/>
       <use x="222.65625" xlink:href="#DejaVuSans-48"/>
      </g>
     </g>
    </g>
    <g id="text_10">
     <!-- t [ms] -->
     <g transform="translate(539.435156 361.636562)scale(0.1 -0.1)">
      <defs>
       <path d="M 18.3125 70.21875 
L 18.3125 54.6875 
L 36.8125 54.6875 
L 36.8125 47.703125 
L 18.3125 47.703125 
L 18.3125 18.015625 
Q 18.3125 11.328125 20.140625 9.421875 
Q 21.96875 7.515625 27.59375 7.515625 
L 36.8125 7.515625 
L 36.8125 0 
L 27.59375 0 
Q 17.1875 0 13.234375 3.875 
Q 9.28125 7.765625 9.28125 18.015625 
L 9.28125 47.703125 
L 2.6875 47.703125 
L 2.6875 54.6875 
L 9.28125 54.6875 
L 9.28125 70.21875 
z
" id="DejaVuSans-116"/>
       <path id="DejaVuSans-32"/>
       <path d="M 8.59375 75.984375 
L 29.296875 75.984375 
L 29.296875 69 
L 17.578125 69 
L 17.578125 -6.203125 
L 29.296875 -6.203125 
L 29.296875 -13.1875 
L 8.59375 -13.1875 
z
" id="DejaVuSans-91"/>
       <path d="M 52 44.1875 
Q 55.375 50.25 60.0625 53.125 
Q 64.75 56 71.09375 56 
Q 79.640625 56 84.28125 50.015625 
Q 88.921875 44.046875 88.921875 33.015625 
L 88.921875 0 
L 79.890625 0 
L 79.890625 32.71875 
Q 79.890625 40.578125 77.09375 44.375 
Q 74.3125 48.1875 68.609375 48.1875 
Q 61.625 48.1875 57.5625 43.546875 
Q 53.515625 38.921875 53.515625 30.90625 
L 53.515625 0 
L 44.484375 0 
L 44.484375 32.71875 
Q 44.484375 40.625 41.703125 44.40625 
Q 38.921875 48.1875 33.109375 48.1875 
Q 26.21875 48.1875 22.15625 43.53125 
Q 18.109375 38.875 18.109375 30.90625 
L 18.109375 0 
L 9.078125 0 
L 9.078125 54.6875 
L 18.109375 54.6875 
L 18.109375 46.1875 
Q 21.1875 51.21875 25.484375 53.609375 
Q 29.78125 56 35.6875 56 
Q 41.65625 56 45.828125 52.96875 
Q 50 49.953125 52 44.1875 
z
" id="DejaVuSans-109"/>
       <path d="M 44.28125 53.078125 
L 44.28125 44.578125 
Q 40.484375 46.53125 36.375 47.5 
Q 32.28125 48.484375 27.875 48.484375 
Q 21.1875 48.484375 17.84375 46.4375 
Q 14.5 44.390625 14.5 40.28125 
Q 14.5 37.15625 16.890625 35.375 
Q 19.28125 33.59375 26.515625 31.984375 
L 29.59375 31.296875 
Q 39.15625 29.25 43.1875 25.515625 
Q 47.21875 21.78125 47.21875 15.09375 
Q 47.21875 7.46875 41.1875 3.015625 
Q 35.15625 -1.421875 24.609375 -1.421875 
Q 20.21875 -1.421875 15.453125 -0.5625 
Q 10.6875 0.296875 5.421875 2 
L 5.421875 11.28125 
Q 10.40625 8.6875 15.234375 7.390625 
Q 20.0625 6.109375 24.8125 6.109375 
Q 31.15625 6.109375 34.5625 8.28125 
Q 37.984375 10.453125 37.984375 14.40625 
Q 37.984375 18.0625 35.515625 20.015625 
Q 33.0625 21.96875 24.703125 23.78125 
L 21.578125 24.515625 
Q 13.234375 26.265625 9.515625 29.90625 
Q 5.8125 33.546875 5.8125 39.890625 
Q 5.8125 47.609375 11.28125 51.796875 
Q 16.75 56 26.8125 56 
Q 31.78125 56 36.171875 55.265625 
Q 40.578125 54.546875 44.28125 53.078125 
z
" id="DejaVuSans-115"/>
       <path d="M 30.421875 75.984375 
L 30.421875 -13.1875 
L 9.71875 -13.1875 
L 9.71875 -6.203125 
L 21.390625 -6.203125 
L 21.390625 69 
L 9.71875 69 
L 9.71875 75.984375 
z
" id="DejaVuSans-93"/>
      </defs>
      <use xlink:href="#DejaVuSans-116"/>
      <use x="39.208984" xlink:href="#DejaVuSans-32"/>
      <use x="70.996094" xlink:href="#DejaVuSans-91"/>
      <use x="110.009766" xlink:href="#DejaVuSans-109"/>
      <use x="207.421875" xlink:href="#DejaVuSans-115"/>
      <use x="259.521484" xlink:href="#DejaVuSans-93"/>
     </g>
    </g>
   </g>
   <g id="matplotlib.axis_2">
    <g id="ytick_1">
     <g id="line2d_19">
      <path clip-path="url(#p36e08d54b7)" d="M 52.160938 312.063307 
L 1056.560938 312.063307 
" style="fill:none;stroke:#b0b0b0;stroke-linecap:square;stroke-width:0.8;"/>
     </g>
     <g id="line2d_20">
      <defs>
       <path d="M 0 0 
L -3.5 0 
" id="mba038dd26b" style="stroke:#000000;stroke-width:0.8;"/>
      </defs>
      <g>
       <use style="stroke:#000000;stroke-width:0.8;" x="52.160938" xlink:href="#mba038dd26b" y="312.063307"/>
      </g>
     </g>
     <g id="text_11">
      <!-- −0.5 -->
      <g transform="translate(20.878125 315.862526)scale(0.1 -0.1)">
       <defs>
        <path d="M 10.59375 35.5 
L 73.1875 35.5 
L 73.1875 27.203125 
L 10.59375 27.203125 
z
" id="DejaVuSans-8722"/>
       </defs>
       <use xlink:href="#DejaVuSans-8722"/>
       <use x="83.789062" xlink:href="#DejaVuSans-48"/>
       <use x="147.412109" xlink:href="#DejaVuSans-46"/>
       <use x="179.199219" xlink:href="#DejaVuSans-53"/>
      </g>
     </g>
    </g>
    <g id="ytick_2">
     <g id="line2d_21">
      <path clip-path="url(#p36e08d54b7)" d="M 52.160938 275.566357 
L 1056.560938 275.566357 
" style="fill:none;stroke:#b0b0b0;stroke-linecap:square;stroke-width:0.8;"/>
     </g>
     <g id="line2d_22">
      <g>
       <use style="stroke:#000000;stroke-width:0.8;" x="52.160938" xlink:href="#mba038dd26b" y="275.566357"/>
      </g>
     </g>
     <g id="text_12">
      <!-- −0.4 -->
      <g transform="translate(20.878125 279.365576)scale(0.1 -0.1)">
       <use xlink:href="#DejaVuSans-8722"/>
       <use x="83.789062" xlink:href="#DejaVuSans-48"/>
       <use x="147.412109" xlink:href="#DejaVuSans-46"/>
       <use x="179.199219" xlink:href="#DejaVuSans-52"/>
      </g>
     </g>
    </g>
    <g id="ytick_3">
     <g id="line2d_23">
      <path clip-path="url(#p36e08d54b7)" d="M 52.160938 239.069407 
L 1056.560938 239.069407 
" style="fill:none;stroke:#b0b0b0;stroke-linecap:square;stroke-width:0.8;"/>
     </g>
     <g id="line2d_24">
      <g>
       <use style="stroke:#000000;stroke-width:0.8;" x="52.160938" xlink:href="#mba038dd26b" y="239.069407"/>
      </g>
     </g>
     <g id="text_13">
      <!-- −0.3 -->
      <g transform="translate(20.878125 242.868625)scale(0.1 -0.1)">
       <use xlink:href="#DejaVuSans-8722"/>
       <use x="83.789062" xlink:href="#DejaVuSans-48"/>
       <use x="147.412109" xlink:href="#DejaVuSans-46"/>
       <use x="179.199219" xlink:href="#DejaVuSans-51"/>
      </g>
     </g>
    </g>
    <g id="ytick_4">
     <g id="line2d_25">
      <path clip-path="url(#p36e08d54b7)" d="M 52.160938 202.572456 
L 1056.560938 202.572456 
" style="fill:none;stroke:#b0b0b0;stroke-linecap:square;stroke-width:0.8;"/>
     </g>
     <g id="line2d_26">
      <g>
       <use style="stroke:#000000;stroke-width:0.8;" x="52.160938" xlink:href="#mba038dd26b" y="202.572456"/>
      </g>
     </g>
     <g id="text_14">
      <!-- −0.2 -->
      <g transform="translate(20.878125 206.371675)scale(0.1 -0.1)">
       <use xlink:href="#DejaVuSans-8722"/>
       <use x="83.789062" xlink:href="#DejaVuSans-48"/>
       <use x="147.412109" xlink:href="#DejaVuSans-46"/>
       <use x="179.199219" xlink:href="#DejaVuSans-50"/>
      </g>
     </g>
    </g>
    <g id="ytick_5">
     <g id="line2d_27">
      <path clip-path="url(#p36e08d54b7)" d="M 52.160938 166.075506 
L 1056.560938 166.075506 
" style="fill:none;stroke:#b0b0b0;stroke-linecap:square;stroke-width:0.8;"/>
     </g>
     <g id="line2d_28">
      <g>
       <use style="stroke:#000000;stroke-width:0.8;" x="52.160938" xlink:href="#mba038dd26b" y="166.075506"/>
      </g>
     </g>
     <g id="text_15">
      <!-- −0.1 -->
      <g transform="translate(20.878125 169.874725)scale(0.1 -0.1)">
       <use xlink:href="#DejaVuSans-8722"/>
       <use x="83.789062" xlink:href="#DejaVuSans-48"/>
       <use x="147.412109" xlink:href="#DejaVuSans-46"/>
       <use x="179.199219" xlink:href="#DejaVuSans-49"/>
      </g>
     </g>
    </g>
    <g id="ytick_6">
     <g id="line2d_29">
      <path clip-path="url(#p36e08d54b7)" d="M 52.160938 129.578556 
L 1056.560938 129.578556 
" style="fill:none;stroke:#b0b0b0;stroke-linecap:square;stroke-width:0.8;"/>
     </g>
     <g id="line2d_30">
      <g>
       <use style="stroke:#000000;stroke-width:0.8;" x="52.160938" xlink:href="#mba038dd26b" y="129.578556"/>
      </g>
     </g>
     <g id="text_16">
      <!-- 0.0 -->
      <g transform="translate(29.257813 133.377774)scale(0.1 -0.1)">
       <use xlink:href="#DejaVuSans-48"/>
       <use x="63.623047" xlink:href="#DejaVuSans-46"/>
       <use x="95.410156" xlink:href="#DejaVuSans-48"/>
      </g>
     </g>
    </g>
    <g id="ytick_7">
     <g id="line2d_31">
      <path clip-path="url(#p36e08d54b7)" d="M 52.160938 93.081605 
L 1056.560938 93.081605 
" style="fill:none;stroke:#b0b0b0;stroke-linecap:square;stroke-width:0.8;"/>
     </g>
     <g id="line2d_32">
      <g>
       <use style="stroke:#000000;stroke-width:0.8;" x="52.160938" xlink:href="#mba038dd26b" y="93.081605"/>
      </g>
     </g>
     <g id="text_17">
      <!-- 0.1 -->
      <g transform="translate(29.257813 96.880824)scale(0.1 -0.1)">
       <use xlink:href="#DejaVuSans-48"/>
       <use x="63.623047" xlink:href="#DejaVuSans-46"/>
       <use x="95.410156" xlink:href="#DejaVuSans-49"/>
      </g>
     </g>
    </g>
    <g id="ytick_8">
     <g id="line2d_33">
      <path clip-path="url(#p36e08d54b7)" d="M 52.160938 56.584655 
L 1056.560938 56.584655 
" style="fill:none;stroke:#b0b0b0;stroke-linecap:square;stroke-width:0.8;"/>
     </g>
     <g id="line2d_34">
      <g>
       <use style="stroke:#000000;stroke-width:0.8;" x="52.160938" xlink:href="#mba038dd26b" y="56.584655"/>
      </g>
     </g>
     <g id="text_18">
      <!-- 0.2 -->
      <g transform="translate(29.257813 60.383874)scale(0.1 -0.1)">
       <use xlink:href="#DejaVuSans-48"/>
       <use x="63.623047" xlink:href="#DejaVuSans-46"/>
       <use x="95.410156" xlink:href="#DejaVuSans-50"/>
      </g>
     </g>
    </g>
    <g id="ytick_9">
     <g id="line2d_35">
      <path clip-path="url(#p36e08d54b7)" d="M 52.160938 20.087705 
L 1056.560938 20.087705 
" style="fill:none;stroke:#b0b0b0;stroke-linecap:square;stroke-width:0.8;"/>
     </g>
     <g id="line2d_36">
      <g>
       <use style="stroke:#000000;stroke-width:0.8;" x="52.160938" xlink:href="#mba038dd26b" y="20.087705"/>
      </g>
     </g>
     <g id="text_19">
      <!-- 0.3 -->
      <g transform="translate(29.257813 23.886923)scale(0.1 -0.1)">
       <use xlink:href="#DejaVuSans-48"/>
       <use x="63.623047" xlink:href="#DejaVuSans-46"/>
       <use x="95.410156" xlink:href="#DejaVuSans-51"/>
      </g>
     </g>
    </g>
    <g id="text_20">
     <!-- [V] -->
     <g transform="translate(14.798438 177.601875)rotate(-90)scale(0.1 -0.1)">
      <defs>
       <path d="M 28.609375 0 
L 0.78125 72.90625 
L 11.078125 72.90625 
L 34.1875 11.53125 
L 57.328125 72.90625 
L 67.578125 72.90625 
L 39.796875 0 
z
" id="DejaVuSans-86"/>
      </defs>
      <use xlink:href="#DejaVuSans-91"/>
      <use x="39.013672" xlink:href="#DejaVuSans-86"/>
      <use x="107.421875" xlink:href="#DejaVuSans-93"/>
     </g>
    </g>
   </g>
   <g id="line2d_37">
    <path clip-path="url(#p36e08d54b7)" d="M 97.944896 117.039264 
L 104.337109 116.969892 
L 164.378255 116.965697 
L 322.357239 117.077391 
L 328.064572 117.405771 
L 334.000198 117.971444 
L 339.935825 118.754896 
L 345.871451 119.758083 
L 351.578785 120.944012 
L 357.057825 122.311956 
L 362.080278 123.797644 
L 366.646144 125.382304 
L 370.755424 127.046943 
L 374.408118 128.769199 
L 377.604224 130.519528 
L 380.343744 132.256624 
L 382.854971 134.102425 
L 385.137904 136.060522 
L 387.192544 138.129903 
L 389.018891 140.299899 
L 390.616944 142.542601 
L 391.986704 144.803524 
L 393.356464 147.471687 
L 394.726224 150.659491 
L 396.095984 154.488433 
L 397.465744 159.056847 
L 398.835504 164.398763 
L 400.433557 171.536116 
L 402.488197 181.820479 
L 410.25017 222.034326 
L 412.076517 229.686877 
L 413.67457 235.414681 
L 415.272623 240.256553 
L 416.642383 243.763912 
L 418.240437 247.204693 
L 419.83849 250.069997 
L 421.436543 252.468338 
L 423.034597 254.48333 
L 424.63265 256.178037 
L 426.458997 257.783105 
L 428.285343 259.084586 
L 430.11169 260.121493 
L 431.938036 260.922583 
L 433.992676 261.567833 
L 436.047316 261.96183 
L 438.101956 262.11756 
L 440.156596 262.041381 
L 442.211236 261.733659 
L 444.265876 261.18894 
L 446.320516 260.395725 
L 448.146863 259.467507 
L 449.973209 258.31085 
L 451.799556 256.902241 
L 453.625903 255.211358 
L 455.452249 253.19962 
L 457.278596 250.818426 
L 458.876649 248.384487 
L 460.474703 245.572141 
L 462.072756 242.323074 
L 463.670809 238.567988 
L 465.268863 234.219849 
L 466.866916 229.222411 
L 468.464969 223.490183 
L 470.063022 216.954142 
L 471.889369 208.445196 
L 473.715716 198.83193 
L 475.998649 185.498922 
L 479.423049 165.290058 
L 480.792809 158.503668 
L 482.162569 152.888895 
L 483.304036 149.072953 
L 484.445502 145.934036 
L 485.586969 143.350105 
L 486.956729 140.820719 
L 488.326489 138.759721 
L 489.924542 136.781967 
L 491.750889 134.917351 
L 493.805529 133.166262 
L 496.088462 131.516697 
L 498.827982 129.824128 
L 502.024089 128.131792 
L 505.676782 126.470361 
L 509.786062 124.863693 
L 514.351928 123.331861 
L 519.374382 121.89339 
L 524.853421 120.567459 
L 530.560755 119.417851 
L 536.496381 118.446959 
L 542.660301 117.667562 
L 548.595928 117.137738 
L 554.303261 116.847089 
L 560.467181 116.771965 
L 610.006833 116.76668 
L 778.943897 116.878461 
L 784.65123 117.206843 
L 790.586856 117.77252 
L 796.522483 118.555977 
L 802.45811 119.559172 
L 808.165443 120.745111 
L 813.644483 122.113069 
L 818.666936 123.598775 
L 823.232802 125.183457 
L 827.342082 126.848122 
L 830.994776 128.570408 
L 834.190882 130.320773 
L 836.930402 132.057909 
L 839.441629 133.903755 
L 841.724562 135.861908 
L 843.779202 137.931352 
L 845.605549 140.101422 
L 847.203602 142.34421 
L 848.573362 144.605227 
L 849.943122 147.273514 
L 851.312882 150.461487 
L 852.682642 154.290666 
L 854.052402 158.859422 
L 855.422162 164.201848 
L 857.020215 171.340132 
L 859.074855 181.626592 
L 866.836828 221.873594 
L 868.663175 229.54236 
L 870.261228 235.285381 
L 871.859282 240.141804 
L 873.229042 243.660245 
L 874.827095 247.111897 
L 876.425148 249.985941 
L 878.023201 252.39124 
L 879.621255 254.411782 
L 881.219308 256.110942 
L 883.045655 257.720048 
L 884.872001 259.024681 
L 886.698348 260.064032 
L 888.524695 260.866979 
L 890.579335 261.513724 
L 892.633974 261.908672 
L 894.688614 262.064857 
L 896.743254 261.98867 
L 898.797894 261.680483 
L 900.852534 261.13483 
L 902.907174 260.340181 
L 904.733521 259.410228 
L 906.559868 258.25135 
L 908.386214 256.839966 
L 910.212561 255.145665 
L 912.038907 253.129761 
L 913.865254 250.743521 
L 915.463307 248.304331 
L 917.061361 245.485845 
L 918.659414 242.229652 
L 920.257467 238.466388 
L 921.855521 234.108994 
L 923.453574 229.101333 
L 925.051627 223.357849 
L 926.649681 216.810717 
L 928.476027 208.289239 
L 930.302374 198.664612 
L 932.585307 185.319858 
L 936.009707 165.099902 
L 937.379467 158.310987 
L 938.749227 152.694473 
L 939.890694 148.877523 
L 941.03216 145.737889 
L 942.173627 143.15345 
L 943.543387 140.623644 
L 944.913147 138.562365 
L 946.5112 136.584396 
L 948.337547 134.719622 
L 950.392187 132.968421 
L 952.67512 131.318774 
L 955.41464 129.62614 
L 958.610747 127.933753 
L 962.26344 126.272281 
L 966.37272 124.665579 
L 970.938586 123.133721 
L 975.96104 121.695229 
L 981.440079 120.369282 
L 987.147413 119.219662 
L 993.083039 118.248761 
L 999.246959 117.469359 
L 1005.182586 116.939531 
L 1010.906392 116.648378 
L 1010.906392 116.648378 
" style="fill:none;stroke:#ffa500;stroke-linecap:square;stroke-width:1.5;"/>
   </g>
   <g id="line2d_38">
    <path clip-path="url(#p36e08d54b7)" d="M 97.944877 114.395664 
L 105.021971 114.339461 
L 207.297382 114.337628 
L 322.813806 114.449355 
L 328.52114 114.778266 
L 334.456766 115.344731 
L 340.392393 116.129088 
L 346.328019 117.133211 
L 352.035353 118.320033 
L 357.514393 119.688854 
L 362.536846 121.175474 
L 367.102712 122.761323 
L 371.211992 124.427729 
L 374.864686 126.152789 
L 378.060792 127.907548 
L 380.800312 129.651328 
L 383.311539 131.507715 
L 385.594472 133.482384 
L 387.649112 135.577265 
L 389.475459 137.785515 
L 391.073512 140.083441 
L 392.443272 142.419607 
L 393.813032 145.205711 
L 395.182792 148.57886 
L 396.324258 151.9489 
L 397.694018 156.777915 
L 399.063778 162.518053 
L 400.661832 170.301346 
L 402.716472 181.659678 
L 406.825752 206.250052 
L 409.336978 220.42458 
L 411.163325 229.436676 
L 412.761378 236.150722 
L 414.131138 241.012332 
L 415.500898 245.108918 
L 416.870658 248.541314 
L 418.240418 251.430784 
L 419.838471 254.251957 
L 421.436525 256.599223 
L 423.034578 258.563557 
L 424.632631 260.210899 
L 426.458978 261.767126 
L 428.285325 263.025691 
L 430.111671 264.025422 
L 431.938018 264.794701 
L 433.992658 265.410056 
L 436.047298 265.779832 
L 438.101938 265.916463 
L 440.156578 265.825782 
L 442.211218 265.507623 
L 444.265858 264.955935 
L 446.320498 264.158465 
L 448.375137 263.096 
L 450.201484 261.90714 
L 452.027831 260.461411 
L 453.854177 258.72508 
L 455.680524 256.654665 
L 457.278577 254.52555 
L 458.876631 252.05143 
L 460.474684 249.174846 
L 462.072737 245.82603 
L 463.670791 241.921847 
L 465.268844 237.360896 
L 466.866897 232.034752 
L 468.46495 225.851756 
L 470.063004 218.71135 
L 471.661057 210.54532 
L 473.487404 199.946071 
L 475.542044 186.604745 
L 479.194737 162.576942 
L 480.564497 155.301182 
L 481.705964 150.336224 
L 482.84743 146.297384 
L 483.988897 143.038873 
L 485.130363 140.401709 
L 486.500123 137.858433 
L 487.869883 135.810471 
L 489.467937 133.860457 
L 491.294283 132.029731 
L 493.348923 130.312202 
L 495.631857 128.692558 
L 498.371377 127.027389 
L 501.567483 125.358776 
L 505.220176 123.717359 
L 509.329456 122.127373 
L 513.895323 120.609343 
L 518.917776 119.182228 
L 524.396816 117.865621 
L 530.104149 116.723444 
L 536.039776 115.758656 
L 542.203696 114.984535 
L 548.139322 114.459329 
L 553.846655 114.173228 
L 560.010575 114.101176 
L 611.833161 114.096239 
L 779.400465 114.208398 
L 785.107798 114.53731 
L 791.043424 115.103778 
L 796.979051 115.888139 
L 802.914677 116.892268 
L 808.622011 118.079098 
L 814.101051 119.447931 
L 819.123504 120.934567 
L 823.68937 122.520436 
L 827.79865 124.186866 
L 831.451344 125.911956 
L 834.64745 127.666749 
L 837.38697 129.410569 
L 839.898197 131.267002 
L 842.18113 133.241727 
L 844.23577 135.336672 
L 846.062117 137.545 
L 847.66017 139.843016 
L 849.02993 142.179282 
L 850.39969 144.965521 
L 851.76945 148.338857 
L 852.910917 151.709113 
L 854.280677 156.538502 
L 855.650436 162.279217 
L 857.24849 170.063605 
L 859.074836 180.105328 
L 862.270943 199.188916 
L 865.238756 216.520564 
L 867.065103 226.027963 
L 868.663156 233.247464 
L 870.032916 238.530989 
L 871.402676 243.020965 
L 872.772436 246.784431 
L 874.142196 249.943201 
L 875.511956 252.610985 
L 877.110009 255.224797 
L 878.708063 257.405389 
L 880.306116 259.232403 
L 882.132463 260.961223 
L 883.958809 262.36676 
L 885.785156 263.494709 
L 887.611503 264.378438 
L 889.666143 265.110732 
L 891.720782 265.588903 
L 893.775422 265.828724 
L 895.830062 265.838898 
L 897.884702 265.6219 
L 899.939342 265.174298 
L 901.993982 264.486636 
L 904.048622 263.542864 
L 905.874969 262.470006 
L 907.701316 261.153515 
L 909.527662 259.563668 
L 911.354009 257.661999 
L 913.180355 255.399083 
L 914.778409 253.073443 
L 916.376462 250.37029 
L 917.974515 247.225133 
L 919.572569 243.560456 
L 921.170622 239.28542 
L 922.768675 234.28157 
L 924.366729 228.466956 
L 925.964782 221.732435 
L 927.562835 213.996045 
L 929.160888 205.219274 
L 930.987235 193.968223 
L 933.955048 173.935852 
L 935.781395 162.346503 
L 937.151155 155.067531 
L 938.292622 150.100724 
L 939.434088 146.060586 
L 940.575555 142.801173 
L 941.717022 140.163385 
L 943.086782 137.619608 
L 944.456541 135.57132 
L 946.054595 133.621063 
L 947.880941 131.790165 
L 949.935581 130.072517 
L 952.218515 128.45279 
L 954.958035 126.787557 
L 958.154141 125.118895 
L 961.806834 123.477439 
L 965.916114 121.887422 
L 970.481981 120.369367 
L 975.504434 118.942234 
L 980.983474 117.625614 
L 986.690807 116.483428 
L 992.626434 115.518634 
L 998.790354 114.744508 
L 1004.72598 114.219301 
L 1010.433314 113.933199 
L 1010.906392 113.920008 
L 1010.906392 113.920008 
" style="fill:none;stroke:#90ee90;stroke-linecap:square;stroke-width:1.5;"/>
   </g>
   <g id="line2d_39">
    <path clip-path="url(#p36e08d54b7)" d="M 97.944685 91.208296 
L 125.111591 91.198134 
L 325.781427 91.309997 
L 331.48876 91.637455 
L 337.424387 92.202679 
L 343.588307 93.018871 
L 349.523933 94.026175 
L 355.231267 95.212518 
L 360.710307 96.576289 
L 365.73276 98.052853 
L 370.298626 99.623496 
L 374.407906 101.269772 
L 378.0606 102.970588 
L 381.256706 104.698639 
L 383.996226 106.415912 
L 386.507453 108.247317 
L 388.790386 110.204255 
L 390.616733 112.046559 
L 392.214786 113.938511 
L 393.812839 116.197415 
L 395.182599 118.551684 
L 396.324066 120.939457 
L 397.465533 123.886397 
L 398.378706 126.810114 
L 399.291879 130.419192 
L 400.205052 134.903311 
L 401.118226 140.424474 
L 402.259692 148.906135 
L 403.401159 159.102216 
L 404.770919 173.295906 
L 406.825559 197.342613 
L 409.793372 232.311543 
L 410.934839 243.322992 
L 411.848012 250.395893 
L 412.761186 255.941139 
L 413.674359 260.25614 
L 414.815826 264.451639 
L 415.957292 267.777539 
L 417.327052 271.009515 
L 418.696812 273.649951 
L 420.066572 275.845475 
L 421.664625 277.968722 
L 423.262679 279.714742 
L 424.860732 281.152656 
L 426.687079 282.480971 
L 428.513425 283.522738 
L 430.339772 284.314866 
L 432.166119 284.883454 
L 434.220759 285.278178 
L 436.275398 285.429029 
L 438.330038 285.344047 
L 440.384678 285.023858 
L 442.439318 284.461778 
L 444.493958 283.643211 
L 446.320305 282.681158 
L 448.146652 281.473096 
L 449.972998 279.984776 
L 451.571052 278.415761 
L 453.169105 276.553077 
L 454.767158 274.338652 
L 456.365211 271.693133 
L 457.734971 269.000014 
L 459.104731 265.814864 
L 460.474491 262.008712 
L 461.615958 258.237556 
L 462.757425 253.780477 
L 463.898891 248.468421 
L 465.040358 242.095836 
L 466.181825 234.419812 
L 467.323291 225.218344 
L 468.464758 214.314652 
L 469.834518 198.884723 
L 471.432571 178.040581 
L 473.487211 151.243511 
L 474.628678 139.737552 
L 475.541851 132.705918 
L 476.455024 127.302577 
L 477.368198 123.166201 
L 478.281371 119.974068 
L 479.194544 117.471352 
L 480.336011 115.028862 
L 481.477478 113.113125 
L 482.847238 111.276694 
L 484.445291 109.550153 
L 486.271638 107.926577 
L 488.554571 106.229047 
L 491.065797 104.639376 
L 494.033611 103.016167 
L 497.458011 101.391357 
L 501.338997 99.791541 
L 505.676571 98.239667 
L 510.47073 96.756291 
L 515.721477 95.361288 
L 521.42881 94.075946 
L 527.364437 92.964029 
L 533.528357 92.032959 
L 539.692277 91.323368 
L 545.627903 90.856301 
L 551.335236 90.628397 
L 559.782089 90.586106 
L 778.487099 90.602699 
L 784.194432 90.77804 
L 789.901765 91.175158 
L 795.837392 91.807764 
L 802.001312 92.692602 
L 807.936938 93.768879 
L 813.644271 95.028281 
L 818.895018 96.407826 
L 823.689178 97.886116 
L 828.026751 99.443362 
L 831.907738 101.058616 
L 835.332138 102.706753 
L 838.528244 104.491834 
L 841.267764 106.274597 
L 843.778991 108.187697 
L 845.833631 110.025146 
L 847.659977 111.943375 
L 849.258031 113.92753 
L 850.627791 115.945629 
L 851.997551 118.380272 
L 853.139017 120.864457 
L 854.280484 123.949993 
L 855.193657 127.027829 
L 856.106831 130.838133 
L 857.020004 135.568842 
L 857.933177 141.366686 
L 859.074644 150.201388 
L 860.444404 163.008503 
L 862.042457 180.428293 
L 865.01027 216.213405 
L 866.608324 234.221808 
L 867.74979 244.869421 
L 868.662964 251.618101 
L 869.576137 256.883798 
L 870.48931 260.992343 
L 871.630777 265.016987 
L 872.772244 268.230966 
L 874.142004 271.368952 
L 875.511764 273.939921 
L 876.881524 276.081172 
L 878.479577 278.153828 
L 880.07763 279.858644 
L 881.675683 281.261897 
L 883.50203 282.556243 
L 885.328377 283.568275 
L 887.154723 284.333581 
L 888.98107 284.877288 
L 891.03571 285.245395 
L 893.09035 285.370215 
L 895.14499 285.258975 
L 897.19963 284.911493 
L 899.25427 284.320208 
L 901.080616 283.577512 
L 902.906963 282.612677 
L 904.73331 281.400967 
L 906.559656 279.907925 
L 908.15771 278.33366 
L 909.755763 276.464378 
L 911.353816 274.241593 
L 912.95187 271.585358 
L 914.32163 268.880535 
L 915.691389 265.680558 
L 917.061149 261.85541 
L 918.202616 258.064252 
L 919.344083 253.582354 
L 920.485549 248.239641 
L 921.627016 241.829759 
L 922.768483 234.109728 
L 923.909949 224.857446 
L 925.051416 213.902636 
L 926.421176 198.414109 
L 928.019229 177.514348 
L 930.073869 150.67185 
L 930.987043 141.20504 
L 931.900216 133.705183 
L 932.813389 127.922828 
L 933.726562 123.49834 
L 934.639736 120.094037 
L 935.552909 117.437236 
L 936.694376 114.860429 
L 937.835842 112.85426 
L 939.205602 110.945997 
L 940.803656 109.166059 
L 942.630002 107.503957 
L 944.684642 105.935643 
L 947.195869 104.301114 
L 950.163682 102.640934 
L 953.588082 100.984924 
L 957.469069 99.358193 
L 961.806642 97.782692 
L 966.600802 96.278222 
L 971.851548 94.863996 
L 977.558882 93.560669 
L 983.494508 92.43196 
L 989.658428 91.484439 
L 995.822348 90.758411 
L 1001.757975 90.274477 
L 1007.465308 90.028032 
L 1010.906392 89.986874 
L 1010.906392 89.986874 
" style="fill:none;stroke:#ff00ff;stroke-linecap:square;stroke-width:1.5;"/>
   </g>
   <g id="line2d_40">
    <path clip-path="url(#p36e08d54b7)" d="M 97.815483 25.501394 
L 329.761505 25.582718 
L 335.468838 25.853435 
L 341.404465 26.357317 
L 347.568385 27.10128 
L 353.732305 28.063479 
L 359.896225 29.250665 
L 365.603558 30.568208 
L 371.082598 32.058471 
L 376.105051 33.655042 
L 380.670918 35.342164 
L 384.780198 37.104259 
L 388.204598 38.801253 
L 391.400704 40.633369 
L 394.140224 42.460562 
L 396.423157 44.231115 
L 398.477797 46.091977 
L 400.304144 48.046978 
L 401.902197 50.096513 
L 403.271957 52.232636 
L 404.413424 54.429325 
L 405.326597 56.623786 
L 406.23977 59.489204 
L 406.92465 62.465236 
L 407.381237 65.23402 
L 407.837824 69.261121 
L 408.29441 75.55452 
L 408.750997 85.144811 
L 409.207584 98.66605 
L 409.892464 126.905253 
L 410.577344 164.650914 
L 411.71881 244.286802 
L 412.175397 273.267355 
L 412.631984 288.46597 
L 413.08857 294.054552 
L 413.77345 298.951255 
L 414.686624 303.75263 
L 415.599797 307.413209 
L 416.51297 310.258277 
L 417.426144 312.498172 
L 418.339317 314.264149 
L 419.25249 315.645609 
L 420.165664 316.70624 
L 421.078837 317.492995 
L 421.99201 318.041337 
L 422.905184 318.378486 
L 424.04665 318.534545 
L 425.188117 318.424058 
L 426.329583 318.068863 
L 427.47105 317.483369 
L 428.612517 316.675426 
L 429.982277 315.414014 
L 431.352037 313.824296 
L 432.721797 311.880329 
L 434.091557 309.535137 
L 435.461317 306.711371 
L 436.831077 303.283831 
L 437.972543 299.820549 
L 439.11401 295.600058 
L 440.027183 291.464603 
L 440.940357 286.36046 
L 441.85353 279.822071 
L 442.53841 273.506495 
L 443.22329 265.374821 
L 443.90817 254.529825 
L 444.59305 239.903788 
L 445.27793 220.282075 
L 446.132779 187.915275 
L 447.332513 140.661477 
L 448.245686 115.172921 
L 449.15886 97.354252 
L 450.072033 84.861219 
L 450.985206 76.002022 
L 451.89838 69.608689 
L 452.811553 64.912926 
L 453.724726 61.384887 
L 454.6379 58.663865 
L 455.779366 56.032232 
L 456.920833 53.97113 
L 458.290593 51.982446 
L 459.888646 50.08559 
L 461.714993 48.264997 
L 463.997926 46.315012 
L 466.737446 44.285477 
L 469.933553 42.213242 
L 473.357953 40.254829 
L 477.238939 38.289747 
L 481.576513 36.348933 
L 486.370672 34.457884 
L 491.621419 32.638131 
L 497.100459 30.973813 
L 503.036085 29.402069 
L 509.428299 27.945525 
L 516.048805 26.670549 
L 522.669312 25.619187 
L 529.289818 24.788249 
L 535.682032 24.203555 
L 541.845951 23.863858 
L 547.781578 23.766673 
L 580.655817 23.761106 
L 787.717867 23.886075 
L 793.4252 24.208762 
L 799.58912 24.787 
L 805.75304 25.586943 
L 811.91696 26.60541 
L 818.08088 27.85261 
L 823.788213 29.232572 
L 829.038959 30.72302 
L 833.833119 32.305322 
L 838.170692 33.961982 
L 842.051679 35.674222 
L 845.476079 37.419143 
L 848.443892 39.16607 
L 851.183412 41.039753 
L 853.466346 42.864132 
L 855.520985 44.793349 
L 857.347332 46.836786 
L 858.945385 49.002889 
L 860.315145 51.295303 
L 861.456612 53.70386 
L 862.369785 56.183874 
L 863.054665 58.61109 
L 863.739545 61.975389 
L 864.196132 65.271679 
L 864.652719 70.287126 
L 865.109305 78.118393 
L 865.565892 89.61758 
L 866.250772 114.644174 
L 866.935652 149.276137 
L 867.848825 209.120241 
L 868.761999 272.23555 
L 869.218585 288.120093 
L 869.675172 293.923377 
L 870.360052 298.857996 
L 871.273225 303.675359 
L 872.186399 307.349158 
L 873.099572 310.202548 
L 874.012745 312.448224 
L 874.925918 314.218321 
L 875.839092 315.602764 
L 876.752265 316.665554 
L 877.665438 317.453844 
L 878.578612 318.003229 
L 879.491785 318.341016 
L 880.633252 318.497388 
L 881.774718 318.386739 
L 882.916185 318.030941 
L 884.057652 317.44441 
L 885.199118 316.634975 
L 886.568878 315.371106 
L 887.938638 313.778069 
L 889.308398 311.82969 
L 890.678158 309.478614 
L 892.047918 306.646877 
L 893.417678 303.208214 
L 894.559145 299.731895 
L 895.700611 295.492789 
L 896.613785 291.335896 
L 897.526958 286.200591 
L 898.440131 279.614444 
L 899.125011 273.244728 
L 899.809891 265.03365 
L 900.494771 254.050004 
L 901.179651 239.273856 
L 901.864531 219.45728 
L 902.719375 186.838304 
L 903.919115 139.308846 
L 904.832288 113.682901 
L 905.745462 95.771987 
L 906.658635 83.217692 
L 907.571808 74.316107 
L 908.484982 67.895566 
L 909.398155 63.183632 
L 910.311328 59.645283 
L 911.224502 56.91779 
L 912.365968 54.281473 
L 913.507435 52.217974 
L 914.877195 50.228092 
L 916.475248 48.331026 
L 918.301595 46.510887 
L 920.584528 44.56184 
L 923.324048 42.533546 
L 926.520155 40.462716 
L 929.944555 38.505712 
L 933.825541 36.542113 
L 938.163114 34.602831 
L 942.957274 32.713345 
L 948.208021 30.895166 
L 953.687061 29.232354 
L 959.622687 27.662094 
L 966.014901 26.206985 
L 972.635407 24.933319 
L 979.255914 23.883084 
L 985.87642 23.053079 
L 992.268633 22.469084 
L 998.432553 22.129846 
L 1004.36818 22.032869 
L 1010.906392 22.025455 
L 1010.906392 22.025455 
" style="fill:none;stroke:#add8e6;stroke-linecap:square;stroke-width:1.5;"/>
   </g>
   <g id="patch_3">
    <path d="M 52.160938 333.36 
L 52.160938 7.2 
" style="fill:none;stroke:#000000;stroke-linecap:square;stroke-linejoin:miter;stroke-width:0.8;"/>
   </g>
   <g id="patch_4">
    <path d="M 1056.560938 333.36 
L 1056.560938 7.2 
" style="fill:none;stroke:#000000;stroke-linecap:square;stroke-linejoin:miter;stroke-width:0.8;"/>
   </g>
   <g id="patch_5">
    <path d="M 52.160938 333.36 
L 1056.560938 333.36 
" style="fill:none;stroke:#000000;stroke-linecap:square;stroke-linejoin:miter;stroke-width:0.8;"/>
   </g>
   <g id="patch_6">
    <path d="M 52.160938 7.2 
L 1056.560938 7.2 
" style="fill:none;stroke:#000000;stroke-linecap:square;stroke-linejoin:miter;stroke-width:0.8;"/>
   </g>
   <g id="text_21">
    <!-- overdrive 250 -->
    <g transform="translate(512.54 392.592)scale(0.12 -0.12)">
     <defs>
      <path d="M 30.609375 48.390625 
Q 23.390625 48.390625 19.1875 42.75 
Q 14.984375 37.109375 14.984375 27.296875 
Q 14.984375 17.484375 19.15625 11.84375 
Q 23.34375 6.203125 30.609375 6.203125 
Q 37.796875 6.203125 41.984375 11.859375 
Q 46.1875 17.53125 46.1875 27.296875 
Q 46.1875 37.015625 41.984375 42.703125 
Q 37.796875 48.390625 30.609375 48.390625 
z
M 30.609375 56 
Q 42.328125 56 49.015625 48.375 
Q 55.71875 40.765625 55.71875 27.296875 
Q 55.71875 13.875 49.015625 6.21875 
Q 42.328125 -1.421875 30.609375 -1.421875 
Q 18.84375 -1.421875 12.171875 6.21875 
Q 5.515625 13.875 5.515625 27.296875 
Q 5.515625 40.765625 12.171875 48.375 
Q 18.84375 56 30.609375 56 
z
" id="DejaVuSans-111"/>
      <path d="M 2.984375 54.6875 
L 12.5 54.6875 
L 29.59375 8.796875 
L 46.6875 54.6875 
L 56.203125 54.6875 
L 35.6875 0 
L 23.484375 0 
z
" id="DejaVuSans-118"/>
      <path d="M 56.203125 29.59375 
L 56.203125 25.203125 
L 14.890625 25.203125 
Q 15.484375 15.921875 20.484375 11.0625 
Q 25.484375 6.203125 34.421875 6.203125 
Q 39.59375 6.203125 44.453125 7.46875 
Q 49.3125 8.734375 54.109375 11.28125 
L 54.109375 2.78125 
Q 49.265625 0.734375 44.1875 -0.34375 
Q 39.109375 -1.421875 33.890625 -1.421875 
Q 20.796875 -1.421875 13.15625 6.1875 
Q 5.515625 13.8125 5.515625 26.8125 
Q 5.515625 40.234375 12.765625 48.109375 
Q 20.015625 56 32.328125 56 
Q 43.359375 56 49.78125 48.890625 
Q 56.203125 41.796875 56.203125 29.59375 
z
M 47.21875 32.234375 
Q 47.125 39.59375 43.09375 43.984375 
Q 39.0625 48.390625 32.421875 48.390625 
Q 24.90625 48.390625 20.390625 44.140625 
Q 15.875 39.890625 15.1875 32.171875 
z
" id="DejaVuSans-101"/>
      <path d="M 41.109375 46.296875 
Q 39.59375 47.171875 37.8125 47.578125 
Q 36.03125 48 33.890625 48 
Q 26.265625 48 22.1875 43.046875 
Q 18.109375 38.09375 18.109375 28.8125 
L 18.109375 0 
L 9.078125 0 
L 9.078125 54.6875 
L 18.109375 54.6875 
L 18.109375 46.1875 
Q 20.953125 51.171875 25.484375 53.578125 
Q 30.03125 56 36.53125 56 
Q 37.453125 56 38.578125 55.875 
Q 39.703125 55.765625 41.0625 55.515625 
z
" id="DejaVuSans-114"/>
      <path d="M 45.40625 46.390625 
L 45.40625 75.984375 
L 54.390625 75.984375 
L 54.390625 0 
L 45.40625 0 
L 45.40625 8.203125 
Q 42.578125 3.328125 38.25 0.953125 
Q 33.9375 -1.421875 27.875 -1.421875 
Q 17.96875 -1.421875 11.734375 6.484375 
Q 5.515625 14.40625 5.515625 27.296875 
Q 5.515625 40.1875 11.734375 48.09375 
Q 17.96875 56 27.875 56 
Q 33.9375 56 38.25 53.625 
Q 42.578125 51.265625 45.40625 46.390625 
z
M 14.796875 27.296875 
Q 14.796875 17.390625 18.875 11.75 
Q 22.953125 6.109375 30.078125 6.109375 
Q 37.203125 6.109375 41.296875 11.75 
Q 45.40625 17.390625 45.40625 27.296875 
Q 45.40625 37.203125 41.296875 42.84375 
Q 37.203125 48.484375 30.078125 48.484375 
Q 22.953125 48.484375 18.875 42.84375 
Q 14.796875 37.203125 14.796875 27.296875 
z
" id="DejaVuSans-100"/>
      <path d="M 9.421875 54.6875 
L 18.40625 54.6875 
L 18.40625 0 
L 9.421875 0 
z
M 9.421875 75.984375 
L 18.40625 75.984375 
L 18.40625 64.59375 
L 9.421875 64.59375 
z
" id="DejaVuSans-105"/>
     </defs>
     <use xlink:href="#DejaVuSans-111"/>
     <use x="61.181641" xlink:href="#DejaVuSans-118"/>
     <use x="120.361328" xlink:href="#DejaVuSans-101"/>
     <use x="181.884766" xlink:href="#DejaVuSans-114"/>
     <use x="221.248047" xlink:href="#DejaVuSans-100"/>
     <use x="284.724609" xlink:href="#DejaVuSans-114"/>
     <use x="325.837891" xlink:href="#DejaVuSans-105"/>
     <use x="353.621094" xlink:href="#DejaVuSans-118"/>
     <use x="412.800781" xlink:href="#DejaVuSans-101"/>
     <use x="474.324219" xlink:href="#DejaVuSans-32"/>
     <use x="506.111328" xlink:href="#DejaVuSans-50"/>
     <use x="569.734375" xlink:href="#DejaVuSans-53"/>
     <use x="633.357422" xlink:href="#DejaVuSans-48"/>
    </g>
   </g>
  </g>
 </g>
 <defs>
  <clipPath id="p36e08d54b7">
   <rect height="326.16" width="1004.4" x="52.160938" y="7.2"/>
  </clipPath>
 </defs>
</svg>
