<?xml version="1.0" encoding="utf-8" standalone="no"?>
<!DOCTYPE svg PUBLIC "-//W3C//DTD SVG 1.1//EN"
  "http://www.w3.org/Graphics/SVG/1.1/DTD/svg11.dtd">
<!-- Created with matplotlib (https://matplotlib.org/) -->
<svg height="402.287625pt" version="1.1" viewBox="0 0 1076.485938 402.287625" width="1076.485938pt" xmlns="http://www.w3.org/2000/svg" xmlns:xlink="http://www.w3.org/1999/xlink">
 <metadata>
  <rdf:RDF xmlns:cc="http://creativecommons.org/ns#" xmlns:dc="http://purl.org/dc/elements/1.1/" xmlns:rdf="http://www.w3.org/1999/02/22-rdf-syntax-ns#">
   <cc:Work>
    <dc:type rdf:resource="http://purl.org/dc/dcmitype/StillImage"/>
    <dc:date>2021-01-19T14:58:51.474268</dc:date>
    <dc:format>image/svg+xml</dc:format>
    <dc:creator>
     <cc:Agent>
      <dc:title>Matplotlib v3.3.3, https://matplotlib.org/</dc:title>
     </cc:Agent>
    </dc:creator>
   </cc:Work>
  </rdf:RDF>
 </metadata>
 <defs>
  <style type="text/css">*{stroke-linecap:butt;stroke-linejoin:round;}</style>
 </defs>
 <g id="figure_1">
  <g id="patch_1">
   <path d="M 0 402.287625 
L 1076.485938 402.287625 
L 1076.485938 0 
L 0 0 
z
" style="fill:none;"/>
  </g>
  <g id="axes_1">
   <g id="patch_2">
    <path d="M 64.885938 333.36 
L 1069.285938 333.36 
L 1069.285938 7.2 
L 64.885938 7.2 
z
" style="fill:#ffffff;"/>
   </g>
   <g id="matplotlib.axis_1">
    <g id="xtick_1">
     <g id="line2d_1">
      <path clip-path="url(#p800cb331c4)" d="M 110.514916 333.36 
L 110.514916 7.2 
" style="fill:none;stroke:#b0b0b0;stroke-linecap:square;stroke-width:0.8;"/>
     </g>
     <g id="line2d_2">
      <defs>
       <path d="M 0 0 
L 0 3.5 
" id="mbfc70d6609" style="stroke:#000000;stroke-width:0.8;"/>
      </defs>
      <g>
       <use style="stroke:#000000;stroke-width:0.8;" x="110.514916" xlink:href="#mbfc70d6609" y="333.36"/>
      </g>
     </g>
     <g id="text_1">
      <!-- 100 -->
      <g transform="translate(100.971166 347.958438)scale(0.1 -0.1)">
       <defs>
        <path d="M 12.40625 8.296875 
L 28.515625 8.296875 
L 28.515625 63.921875 
L 10.984375 60.40625 
L 10.984375 69.390625 
L 28.421875 72.90625 
L 38.28125 72.90625 
L 38.28125 8.296875 
L 54.390625 8.296875 
L 54.390625 0 
L 12.40625 0 
z
" id="DejaVuSans-49"/>
        <path d="M 31.78125 66.40625 
Q 24.171875 66.40625 20.328125 58.90625 
Q 16.5 51.421875 16.5 36.375 
Q 16.5 21.390625 20.328125 13.890625 
Q 24.171875 6.390625 31.78125 6.390625 
Q 39.453125 6.390625 43.28125 13.890625 
Q 47.125 21.390625 47.125 36.375 
Q 47.125 51.421875 43.28125 58.90625 
Q 39.453125 66.40625 31.78125 66.40625 
z
M 31.78125 74.21875 
Q 44.046875 74.21875 50.515625 64.515625 
Q 56.984375 54.828125 56.984375 36.375 
Q 56.984375 17.96875 50.515625 8.265625 
Q 44.046875 -1.421875 31.78125 -1.421875 
Q 19.53125 -1.421875 13.0625 8.265625 
Q 6.59375 17.96875 6.59375 36.375 
Q 6.59375 54.828125 13.0625 64.515625 
Q 19.53125 74.21875 31.78125 74.21875 
z
" id="DejaVuSans-48"/>
       </defs>
       <use xlink:href="#DejaVuSans-49"/>
       <use x="63.623047" xlink:href="#DejaVuSans-48"/>
       <use x="127.246094" xlink:href="#DejaVuSans-48"/>
      </g>
     </g>
    </g>
    <g id="xtick_2">
     <g id="line2d_3">
      <path clip-path="url(#p800cb331c4)" d="M 293.138211 333.36 
L 293.138211 7.2 
" style="fill:none;stroke:#b0b0b0;stroke-linecap:square;stroke-width:0.8;"/>
     </g>
     <g id="line2d_4">
      <g>
       <use style="stroke:#000000;stroke-width:0.8;" x="293.138211" xlink:href="#mbfc70d6609" y="333.36"/>
      </g>
     </g>
     <g id="text_2">
      <!-- 102 -->
      <g transform="translate(283.594461 347.958438)scale(0.1 -0.1)">
       <defs>
        <path d="M 19.1875 8.296875 
L 53.609375 8.296875 
L 53.609375 0 
L 7.328125 0 
L 7.328125 8.296875 
Q 12.9375 14.109375 22.625 23.890625 
Q 32.328125 33.6875 34.8125 36.53125 
Q 39.546875 41.84375 41.421875 45.53125 
Q 43.3125 49.21875 43.3125 52.78125 
Q 43.3125 58.59375 39.234375 62.25 
Q 35.15625 65.921875 28.609375 65.921875 
Q 23.96875 65.921875 18.8125 64.3125 
Q 13.671875 62.703125 7.8125 59.421875 
L 7.8125 69.390625 
Q 13.765625 71.78125 18.9375 73 
Q 24.125 74.21875 28.421875 74.21875 
Q 39.75 74.21875 46.484375 68.546875 
Q 53.21875 62.890625 53.21875 53.421875 
Q 53.21875 48.921875 51.53125 44.890625 
Q 49.859375 40.875 45.40625 35.40625 
Q 44.1875 33.984375 37.640625 27.21875 
Q 31.109375 20.453125 19.1875 8.296875 
z
" id="DejaVuSans-50"/>
       </defs>
       <use xlink:href="#DejaVuSans-49"/>
       <use x="63.623047" xlink:href="#DejaVuSans-48"/>
       <use x="127.246094" xlink:href="#DejaVuSans-50"/>
      </g>
     </g>
    </g>
    <g id="xtick_3">
     <g id="line2d_5">
      <path clip-path="url(#p800cb331c4)" d="M 475.761506 333.36 
L 475.761506 7.2 
" style="fill:none;stroke:#b0b0b0;stroke-linecap:square;stroke-width:0.8;"/>
     </g>
     <g id="line2d_6">
      <g>
       <use style="stroke:#000000;stroke-width:0.8;" x="475.761506" xlink:href="#mbfc70d6609" y="333.36"/>
      </g>
     </g>
     <g id="text_3">
      <!-- 104 -->
      <g transform="translate(466.217756 347.958438)scale(0.1 -0.1)">
       <defs>
        <path d="M 37.796875 64.3125 
L 12.890625 25.390625 
L 37.796875 25.390625 
z
M 35.203125 72.90625 
L 47.609375 72.90625 
L 47.609375 25.390625 
L 58.015625 25.390625 
L 58.015625 17.1875 
L 47.609375 17.1875 
L 47.609375 0 
L 37.796875 0 
L 37.796875 17.1875 
L 4.890625 17.1875 
L 4.890625 26.703125 
z
" id="DejaVuSans-52"/>
       </defs>
       <use xlink:href="#DejaVuSans-49"/>
       <use x="63.623047" xlink:href="#DejaVuSans-48"/>
       <use x="127.246094" xlink:href="#DejaVuSans-52"/>
      </g>
     </g>
    </g>
    <g id="xtick_4">
     <g id="line2d_7">
      <path clip-path="url(#p800cb331c4)" d="M 658.384802 333.36 
L 658.384802 7.2 
" style="fill:none;stroke:#b0b0b0;stroke-linecap:square;stroke-width:0.8;"/>
     </g>
     <g id="line2d_8">
      <g>
       <use style="stroke:#000000;stroke-width:0.8;" x="658.384802" xlink:href="#mbfc70d6609" y="333.36"/>
      </g>
     </g>
     <g id="text_4">
      <!-- 106 -->
      <g transform="translate(648.841052 347.958438)scale(0.1 -0.1)">
       <defs>
        <path d="M 33.015625 40.375 
Q 26.375 40.375 22.484375 35.828125 
Q 18.609375 31.296875 18.609375 23.390625 
Q 18.609375 15.53125 22.484375 10.953125 
Q 26.375 6.390625 33.015625 6.390625 
Q 39.65625 6.390625 43.53125 10.953125 
Q 47.40625 15.53125 47.40625 23.390625 
Q 47.40625 31.296875 43.53125 35.828125 
Q 39.65625 40.375 33.015625 40.375 
z
M 52.59375 71.296875 
L 52.59375 62.3125 
Q 48.875 64.0625 45.09375 64.984375 
Q 41.3125 65.921875 37.59375 65.921875 
Q 27.828125 65.921875 22.671875 59.328125 
Q 17.53125 52.734375 16.796875 39.40625 
Q 19.671875 43.65625 24.015625 45.921875 
Q 28.375 48.1875 33.59375 48.1875 
Q 44.578125 48.1875 50.953125 41.515625 
Q 57.328125 34.859375 57.328125 23.390625 
Q 57.328125 12.15625 50.6875 5.359375 
Q 44.046875 -1.421875 33.015625 -1.421875 
Q 20.359375 -1.421875 13.671875 8.265625 
Q 6.984375 17.96875 6.984375 36.375 
Q 6.984375 53.65625 15.1875 63.9375 
Q 23.390625 74.21875 37.203125 74.21875 
Q 40.921875 74.21875 44.703125 73.484375 
Q 48.484375 72.75 52.59375 71.296875 
z
" id="DejaVuSans-54"/>
       </defs>
       <use xlink:href="#DejaVuSans-49"/>
       <use x="63.623047" xlink:href="#DejaVuSans-48"/>
       <use x="127.246094" xlink:href="#DejaVuSans-54"/>
      </g>
     </g>
    </g>
    <g id="xtick_5">
     <g id="line2d_9">
      <path clip-path="url(#p800cb331c4)" d="M 841.008097 333.36 
L 841.008097 7.2 
" style="fill:none;stroke:#b0b0b0;stroke-linecap:square;stroke-width:0.8;"/>
     </g>
     <g id="line2d_10">
      <g>
       <use style="stroke:#000000;stroke-width:0.8;" x="841.008097" xlink:href="#mbfc70d6609" y="333.36"/>
      </g>
     </g>
     <g id="text_5">
      <!-- 108 -->
      <g transform="translate(831.464347 347.958438)scale(0.1 -0.1)">
       <defs>
        <path d="M 31.78125 34.625 
Q 24.75 34.625 20.71875 30.859375 
Q 16.703125 27.09375 16.703125 20.515625 
Q 16.703125 13.921875 20.71875 10.15625 
Q 24.75 6.390625 31.78125 6.390625 
Q 38.8125 6.390625 42.859375 10.171875 
Q 46.921875 13.96875 46.921875 20.515625 
Q 46.921875 27.09375 42.890625 30.859375 
Q 38.875 34.625 31.78125 34.625 
z
M 21.921875 38.8125 
Q 15.578125 40.375 12.03125 44.71875 
Q 8.5 49.078125 8.5 55.328125 
Q 8.5 64.0625 14.71875 69.140625 
Q 20.953125 74.21875 31.78125 74.21875 
Q 42.671875 74.21875 48.875 69.140625 
Q 55.078125 64.0625 55.078125 55.328125 
Q 55.078125 49.078125 51.53125 44.71875 
Q 48 40.375 41.703125 38.8125 
Q 48.828125 37.15625 52.796875 32.3125 
Q 56.78125 27.484375 56.78125 20.515625 
Q 56.78125 9.90625 50.3125 4.234375 
Q 43.84375 -1.421875 31.78125 -1.421875 
Q 19.734375 -1.421875 13.25 4.234375 
Q 6.78125 9.90625 6.78125 20.515625 
Q 6.78125 27.484375 10.78125 32.3125 
Q 14.796875 37.15625 21.921875 38.8125 
z
M 18.3125 54.390625 
Q 18.3125 48.734375 21.84375 45.5625 
Q 25.390625 42.390625 31.78125 42.390625 
Q 38.140625 42.390625 41.71875 45.5625 
Q 45.3125 48.734375 45.3125 54.390625 
Q 45.3125 60.0625 41.71875 63.234375 
Q 38.140625 66.40625 31.78125 66.40625 
Q 25.390625 66.40625 21.84375 63.234375 
Q 18.3125 60.0625 18.3125 54.390625 
z
" id="DejaVuSans-56"/>
       </defs>
       <use xlink:href="#DejaVuSans-49"/>
       <use x="63.623047" xlink:href="#DejaVuSans-48"/>
       <use x="127.246094" xlink:href="#DejaVuSans-56"/>
      </g>
     </g>
    </g>
    <g id="xtick_6">
     <g id="line2d_11">
      <path clip-path="url(#p800cb331c4)" d="M 1023.631392 333.36 
L 1023.631392 7.2 
" style="fill:none;stroke:#b0b0b0;stroke-linecap:square;stroke-width:0.8;"/>
     </g>
     <g id="line2d_12">
      <g>
       <use style="stroke:#000000;stroke-width:0.8;" x="1023.631392" xlink:href="#mbfc70d6609" y="333.36"/>
      </g>
     </g>
     <g id="text_6">
      <!-- 110 -->
      <g transform="translate(1014.087642 347.958438)scale(0.1 -0.1)">
       <use xlink:href="#DejaVuSans-49"/>
       <use x="63.623047" xlink:href="#DejaVuSans-49"/>
       <use x="127.246094" xlink:href="#DejaVuSans-48"/>
      </g>
     </g>
    </g>
    <g id="text_7">
     <!-- t [ms] -->
     <g transform="translate(552.160156 361.636562)scale(0.1 -0.1)">
      <defs>
       <path d="M 18.3125 70.21875 
L 18.3125 54.6875 
L 36.8125 54.6875 
L 36.8125 47.703125 
L 18.3125 47.703125 
L 18.3125 18.015625 
Q 18.3125 11.328125 20.140625 9.421875 
Q 21.96875 7.515625 27.59375 7.515625 
L 36.8125 7.515625 
L 36.8125 0 
L 27.59375 0 
Q 17.1875 0 13.234375 3.875 
Q 9.28125 7.765625 9.28125 18.015625 
L 9.28125 47.703125 
L 2.6875 47.703125 
L 2.6875 54.6875 
L 9.28125 54.6875 
L 9.28125 70.21875 
z
" id="DejaVuSans-116"/>
       <path id="DejaVuSans-32"/>
       <path d="M 8.59375 75.984375 
L 29.296875 75.984375 
L 29.296875 69 
L 17.578125 69 
L 17.578125 -6.203125 
L 29.296875 -6.203125 
L 29.296875 -13.1875 
L 8.59375 -13.1875 
z
" id="DejaVuSans-91"/>
       <path d="M 52 44.1875 
Q 55.375 50.25 60.0625 53.125 
Q 64.75 56 71.09375 56 
Q 79.640625 56 84.28125 50.015625 
Q 88.921875 44.046875 88.921875 33.015625 
L 88.921875 0 
L 79.890625 0 
L 79.890625 32.71875 
Q 79.890625 40.578125 77.09375 44.375 
Q 74.3125 48.1875 68.609375 48.1875 
Q 61.625 48.1875 57.5625 43.546875 
Q 53.515625 38.921875 53.515625 30.90625 
L 53.515625 0 
L 44.484375 0 
L 44.484375 32.71875 
Q 44.484375 40.625 41.703125 44.40625 
Q 38.921875 48.1875 33.109375 48.1875 
Q 26.21875 48.1875 22.15625 43.53125 
Q 18.109375 38.875 18.109375 30.90625 
L 18.109375 0 
L 9.078125 0 
L 9.078125 54.6875 
L 18.109375 54.6875 
L 18.109375 46.1875 
Q 21.1875 51.21875 25.484375 53.609375 
Q 29.78125 56 35.6875 56 
Q 41.65625 56 45.828125 52.96875 
Q 50 49.953125 52 44.1875 
z
" id="DejaVuSans-109"/>
       <path d="M 44.28125 53.078125 
L 44.28125 44.578125 
Q 40.484375 46.53125 36.375 47.5 
Q 32.28125 48.484375 27.875 48.484375 
Q 21.1875 48.484375 17.84375 46.4375 
Q 14.5 44.390625 14.5 40.28125 
Q 14.5 37.15625 16.890625 35.375 
Q 19.28125 33.59375 26.515625 31.984375 
L 29.59375 31.296875 
Q 39.15625 29.25 43.1875 25.515625 
Q 47.21875 21.78125 47.21875 15.09375 
Q 47.21875 7.46875 41.1875 3.015625 
Q 35.15625 -1.421875 24.609375 -1.421875 
Q 20.21875 -1.421875 15.453125 -0.5625 
Q 10.6875 0.296875 5.421875 2 
L 5.421875 11.28125 
Q 10.40625 8.6875 15.234375 7.390625 
Q 20.0625 6.109375 24.8125 6.109375 
Q 31.15625 6.109375 34.5625 8.28125 
Q 37.984375 10.453125 37.984375 14.40625 
Q 37.984375 18.0625 35.515625 20.015625 
Q 33.0625 21.96875 24.703125 23.78125 
L 21.578125 24.515625 
Q 13.234375 26.265625 9.515625 29.90625 
Q 5.8125 33.546875 5.8125 39.890625 
Q 5.8125 47.609375 11.28125 51.796875 
Q 16.75 56 26.8125 56 
Q 31.78125 56 36.171875 55.265625 
Q 40.578125 54.546875 44.28125 53.078125 
z
" id="DejaVuSans-115"/>
       <path d="M 30.421875 75.984375 
L 30.421875 -13.1875 
L 9.71875 -13.1875 
L 9.71875 -6.203125 
L 21.390625 -6.203125 
L 21.390625 69 
L 9.71875 69 
L 9.71875 75.984375 
z
" id="DejaVuSans-93"/>
      </defs>
      <use xlink:href="#DejaVuSans-116"/>
      <use x="39.208984" xlink:href="#DejaVuSans-32"/>
      <use x="70.996094" xlink:href="#DejaVuSans-91"/>
      <use x="110.009766" xlink:href="#DejaVuSans-109"/>
      <use x="207.421875" xlink:href="#DejaVuSans-115"/>
      <use x="259.521484" xlink:href="#DejaVuSans-93"/>
     </g>
    </g>
   </g>
   <g id="matplotlib.axis_2">
    <g id="ytick_1">
     <g id="line2d_13">
      <path clip-path="url(#p800cb331c4)" d="M 64.885938 308.096037 
L 1069.285938 308.096037 
" style="fill:none;stroke:#b0b0b0;stroke-linecap:square;stroke-width:0.8;"/>
     </g>
     <g id="line2d_14">
      <defs>
       <path d="M 0 0 
L -3.5 0 
" id="mcb72b9abc6" style="stroke:#000000;stroke-width:0.8;"/>
      </defs>
      <g>
       <use style="stroke:#000000;stroke-width:0.8;" x="64.885938" xlink:href="#mcb72b9abc6" y="308.096037"/>
      </g>
     </g>
     <g id="text_8">
      <!-- −0.100 -->
      <g transform="translate(20.878125 311.895255)scale(0.1 -0.1)">
       <defs>
        <path d="M 10.59375 35.5 
L 73.1875 35.5 
L 73.1875 27.203125 
L 10.59375 27.203125 
z
" id="DejaVuSans-8722"/>
        <path d="M 10.6875 12.40625 
L 21 12.40625 
L 21 0 
L 10.6875 0 
z
" id="DejaVuSans-46"/>
       </defs>
       <use xlink:href="#DejaVuSans-8722"/>
       <use x="83.789062" xlink:href="#DejaVuSans-48"/>
       <use x="147.412109" xlink:href="#DejaVuSans-46"/>
       <use x="179.199219" xlink:href="#DejaVuSans-49"/>
       <use x="242.822266" xlink:href="#DejaVuSans-48"/>
       <use x="306.445312" xlink:href="#DejaVuSans-48"/>
      </g>
     </g>
    </g>
    <g id="ytick_2">
     <g id="line2d_15">
      <path clip-path="url(#p800cb331c4)" d="M 64.885938 271.208459 
L 1069.285938 271.208459 
" style="fill:none;stroke:#b0b0b0;stroke-linecap:square;stroke-width:0.8;"/>
     </g>
     <g id="line2d_16">
      <g>
       <use style="stroke:#000000;stroke-width:0.8;" x="64.885938" xlink:href="#mcb72b9abc6" y="271.208459"/>
      </g>
     </g>
     <g id="text_9">
      <!-- −0.075 -->
      <g transform="translate(20.878125 275.007677)scale(0.1 -0.1)">
       <defs>
        <path d="M 8.203125 72.90625 
L 55.078125 72.90625 
L 55.078125 68.703125 
L 28.609375 0 
L 18.3125 0 
L 43.21875 64.59375 
L 8.203125 64.59375 
z
" id="DejaVuSans-55"/>
        <path d="M 10.796875 72.90625 
L 49.515625 72.90625 
L 49.515625 64.59375 
L 19.828125 64.59375 
L 19.828125 46.734375 
Q 21.96875 47.46875 24.109375 47.828125 
Q 26.265625 48.1875 28.421875 48.1875 
Q 40.625 48.1875 47.75 41.5 
Q 54.890625 34.8125 54.890625 23.390625 
Q 54.890625 11.625 47.5625 5.09375 
Q 40.234375 -1.421875 26.90625 -1.421875 
Q 22.3125 -1.421875 17.546875 -0.640625 
Q 12.796875 0.140625 7.71875 1.703125 
L 7.71875 11.625 
Q 12.109375 9.234375 16.796875 8.0625 
Q 21.484375 6.890625 26.703125 6.890625 
Q 35.15625 6.890625 40.078125 11.328125 
Q 45.015625 15.765625 45.015625 23.390625 
Q 45.015625 31 40.078125 35.4375 
Q 35.15625 39.890625 26.703125 39.890625 
Q 22.75 39.890625 18.8125 39.015625 
Q 14.890625 38.140625 10.796875 36.28125 
z
" id="DejaVuSans-53"/>
       </defs>
       <use xlink:href="#DejaVuSans-8722"/>
       <use x="83.789062" xlink:href="#DejaVuSans-48"/>
       <use x="147.412109" xlink:href="#DejaVuSans-46"/>
       <use x="179.199219" xlink:href="#DejaVuSans-48"/>
       <use x="242.822266" xlink:href="#DejaVuSans-55"/>
       <use x="306.445312" xlink:href="#DejaVuSans-53"/>
      </g>
     </g>
    </g>
    <g id="ytick_3">
     <g id="line2d_17">
      <path clip-path="url(#p800cb331c4)" d="M 64.885938 234.320881 
L 1069.285938 234.320881 
" style="fill:none;stroke:#b0b0b0;stroke-linecap:square;stroke-width:0.8;"/>
     </g>
     <g id="line2d_18">
      <g>
       <use style="stroke:#000000;stroke-width:0.8;" x="64.885938" xlink:href="#mcb72b9abc6" y="234.320881"/>
      </g>
     </g>
     <g id="text_10">
      <!-- −0.050 -->
      <g transform="translate(20.878125 238.120099)scale(0.1 -0.1)">
       <use xlink:href="#DejaVuSans-8722"/>
       <use x="83.789062" xlink:href="#DejaVuSans-48"/>
       <use x="147.412109" xlink:href="#DejaVuSans-46"/>
       <use x="179.199219" xlink:href="#DejaVuSans-48"/>
       <use x="242.822266" xlink:href="#DejaVuSans-53"/>
       <use x="306.445312" xlink:href="#DejaVuSans-48"/>
      </g>
     </g>
    </g>
    <g id="ytick_4">
     <g id="line2d_19">
      <path clip-path="url(#p800cb331c4)" d="M 64.885938 197.433303 
L 1069.285938 197.433303 
" style="fill:none;stroke:#b0b0b0;stroke-linecap:square;stroke-width:0.8;"/>
     </g>
     <g id="line2d_20">
      <g>
       <use style="stroke:#000000;stroke-width:0.8;" x="64.885938" xlink:href="#mcb72b9abc6" y="197.433303"/>
      </g>
     </g>
     <g id="text_11">
      <!-- −0.025 -->
      <g transform="translate(20.878125 201.232522)scale(0.1 -0.1)">
       <use xlink:href="#DejaVuSans-8722"/>
       <use x="83.789062" xlink:href="#DejaVuSans-48"/>
       <use x="147.412109" xlink:href="#DejaVuSans-46"/>
       <use x="179.199219" xlink:href="#DejaVuSans-48"/>
       <use x="242.822266" xlink:href="#DejaVuSans-50"/>
       <use x="306.445312" xlink:href="#DejaVuSans-53"/>
      </g>
     </g>
    </g>
    <g id="ytick_5">
     <g id="line2d_21">
      <path clip-path="url(#p800cb331c4)" d="M 64.885938 160.545725 
L 1069.285938 160.545725 
" style="fill:none;stroke:#b0b0b0;stroke-linecap:square;stroke-width:0.8;"/>
     </g>
     <g id="line2d_22">
      <g>
       <use style="stroke:#000000;stroke-width:0.8;" x="64.885938" xlink:href="#mcb72b9abc6" y="160.545725"/>
      </g>
     </g>
     <g id="text_12">
      <!-- 0.000 -->
      <g transform="translate(29.257813 164.344944)scale(0.1 -0.1)">
       <use xlink:href="#DejaVuSans-48"/>
       <use x="63.623047" xlink:href="#DejaVuSans-46"/>
       <use x="95.410156" xlink:href="#DejaVuSans-48"/>
       <use x="159.033203" xlink:href="#DejaVuSans-48"/>
       <use x="222.65625" xlink:href="#DejaVuSans-48"/>
      </g>
     </g>
    </g>
    <g id="ytick_6">
     <g id="line2d_23">
      <path clip-path="url(#p800cb331c4)" d="M 64.885938 123.658147 
L 1069.285938 123.658147 
" style="fill:none;stroke:#b0b0b0;stroke-linecap:square;stroke-width:0.8;"/>
     </g>
     <g id="line2d_24">
      <g>
       <use style="stroke:#000000;stroke-width:0.8;" x="64.885938" xlink:href="#mcb72b9abc6" y="123.658147"/>
      </g>
     </g>
     <g id="text_13">
      <!-- 0.025 -->
      <g transform="translate(29.257813 127.457366)scale(0.1 -0.1)">
       <use xlink:href="#DejaVuSans-48"/>
       <use x="63.623047" xlink:href="#DejaVuSans-46"/>
       <use x="95.410156" xlink:href="#DejaVuSans-48"/>
       <use x="159.033203" xlink:href="#DejaVuSans-50"/>
       <use x="222.65625" xlink:href="#DejaVuSans-53"/>
      </g>
     </g>
    </g>
    <g id="ytick_7">
     <g id="line2d_25">
      <path clip-path="url(#p800cb331c4)" d="M 64.885938 86.770569 
L 1069.285938 86.770569 
" style="fill:none;stroke:#b0b0b0;stroke-linecap:square;stroke-width:0.8;"/>
     </g>
     <g id="line2d_26">
      <g>
       <use style="stroke:#000000;stroke-width:0.8;" x="64.885938" xlink:href="#mcb72b9abc6" y="86.770569"/>
      </g>
     </g>
     <g id="text_14">
      <!-- 0.050 -->
      <g transform="translate(29.257813 90.569788)scale(0.1 -0.1)">
       <use xlink:href="#DejaVuSans-48"/>
       <use x="63.623047" xlink:href="#DejaVuSans-46"/>
       <use x="95.410156" xlink:href="#DejaVuSans-48"/>
       <use x="159.033203" xlink:href="#DejaVuSans-53"/>
       <use x="222.65625" xlink:href="#DejaVuSans-48"/>
      </g>
     </g>
    </g>
    <g id="ytick_8">
     <g id="line2d_27">
      <path clip-path="url(#p800cb331c4)" d="M 64.885938 49.882991 
L 1069.285938 49.882991 
" style="fill:none;stroke:#b0b0b0;stroke-linecap:square;stroke-width:0.8;"/>
     </g>
     <g id="line2d_28">
      <g>
       <use style="stroke:#000000;stroke-width:0.8;" x="64.885938" xlink:href="#mcb72b9abc6" y="49.882991"/>
      </g>
     </g>
     <g id="text_15">
      <!-- 0.075 -->
      <g transform="translate(29.257813 53.68221)scale(0.1 -0.1)">
       <use xlink:href="#DejaVuSans-48"/>
       <use x="63.623047" xlink:href="#DejaVuSans-46"/>
       <use x="95.410156" xlink:href="#DejaVuSans-48"/>
       <use x="159.033203" xlink:href="#DejaVuSans-55"/>
       <use x="222.65625" xlink:href="#DejaVuSans-53"/>
      </g>
     </g>
    </g>
    <g id="ytick_9">
     <g id="line2d_29">
      <path clip-path="url(#p800cb331c4)" d="M 64.885938 12.995413 
L 1069.285938 12.995413 
" style="fill:none;stroke:#b0b0b0;stroke-linecap:square;stroke-width:0.8;"/>
     </g>
     <g id="line2d_30">
      <g>
       <use style="stroke:#000000;stroke-width:0.8;" x="64.885938" xlink:href="#mcb72b9abc6" y="12.995413"/>
      </g>
     </g>
     <g id="text_16">
      <!-- 0.100 -->
      <g transform="translate(29.257813 16.794632)scale(0.1 -0.1)">
       <use xlink:href="#DejaVuSans-48"/>
       <use x="63.623047" xlink:href="#DejaVuSans-46"/>
       <use x="95.410156" xlink:href="#DejaVuSans-49"/>
       <use x="159.033203" xlink:href="#DejaVuSans-48"/>
       <use x="222.65625" xlink:href="#DejaVuSans-48"/>
      </g>
     </g>
    </g>
    <g id="text_17">
     <!-- [V] -->
     <g transform="translate(14.798438 177.601875)rotate(-90)scale(0.1 -0.1)">
      <defs>
       <path d="M 28.609375 0 
L 0.78125 72.90625 
L 11.078125 72.90625 
L 34.1875 11.53125 
L 57.328125 72.90625 
L 67.578125 72.90625 
L 39.796875 0 
z
" id="DejaVuSans-86"/>
      </defs>
      <use xlink:href="#DejaVuSans-91"/>
      <use x="39.013672" xlink:href="#DejaVuSans-86"/>
      <use x="107.421875" xlink:href="#DejaVuSans-93"/>
     </g>
    </g>
   </g>
   <g id="line2d_31">
    <path clip-path="url(#p800cb331c4)" d="M 110.540483 170.490062 
L 111.544911 166.685217 
L 112.458028 164.054648 
L 113.279832 162.339006 
L 114.010326 161.311523 
L 114.649507 160.780422 
L 115.197377 160.587453 
L 116.47574 160.373775 
L 117.206233 159.933744 
L 118.028038 159.173913 
L 119.032466 157.90222 
L 120.128206 156.131674 
L 121.406569 153.620569 
L 122.867555 150.231216 
L 124.602477 145.595852 
L 126.520021 139.813706 
L 128.711501 132.457442 
L 131.085604 123.689568 
L 133.824953 112.69102 
L 137.294796 97.754153 
L 145.969402 59.913687 
L 148.434817 50.406176 
L 150.443673 43.479936 
L 152.361218 37.658385 
L 154.096139 33.08892 
L 155.648437 29.626372 
L 157.018112 27.097121 
L 158.296475 25.199632 
L 159.392214 23.936348 
L 160.487954 23.0103 
L 161.492382 22.4563 
L 162.405499 22.194285 
L 163.318615 22.15794 
L 164.231732 22.341601 
L 165.23616 22.789584 
L 166.240588 23.485198 
L 167.336328 24.513294 
L 168.523379 25.927237 
L 169.893054 27.923647 
L 171.35404 30.459717 
L 172.906338 33.597889 
L 174.549948 37.428678 
L 176.193558 41.843969 
L 177.654544 46.405527 
L 178.932907 51.157621 
L 182.585373 66.167794 
L 184.959476 77.318456 
L 188.977188 96.291436 
L 190.346863 101.663125 
L 191.168668 104.154954 
L 191.716538 105.26238 
L 192.264408 105.857079 
L 192.812277 106.543536 
L 193.268836 107.543984 
L 193.816706 109.318583 
L 194.63851 112.897055 
L 195.73425 118.829796 
L 197.012613 127.037989 
L 198.382288 135.581607 
L 199.660651 142.117694 
L 200.939014 147.508041 
L 202.126066 151.581077 
L 203.221805 154.58882 
L 204.226233 156.749781 
L 205.13935 158.251728 
L 206.052466 159.343316 
L 206.874271 159.998869 
L 207.696076 160.365762 
L 208.426569 160.464843 
L 209.248374 160.556431 
L 209.978867 160.91052 
L 210.800672 161.596144 
L 211.713789 162.684686 
L 212.718217 164.245029 
L 213.905268 166.538618 
L 215.274943 169.72664 
L 216.735929 173.699297 
L 218.379539 178.816411 
L 220.205772 185.248094 
L 222.214628 193.162166 
L 224.497419 203.119266 
L 227.054145 215.30251 
L 230.432676 232.585601 
L 238.011543 271.778243 
L 240.476958 283.166074 
L 242.577125 291.850593 
L 244.49467 298.893696 
L 246.229591 304.442155 
L 247.781889 308.671708 
L 249.151564 311.791778 
L 250.429927 314.169797 
L 251.616979 315.910912 
L 252.712718 317.120121 
L 253.717146 317.897618 
L 254.630263 318.335714 
L 255.543379 318.525041 
L 256.456496 318.473943 
L 257.369612 318.191852 
L 258.37404 317.626901 
L 259.46978 316.722198 
L 260.656832 315.422113 
L 261.935195 313.671042 
L 263.304869 311.408247 
L 264.765856 308.555481 
L 266.226842 305.217546 
L 267.687829 301.30463 
L 268.966192 297.244495 
L 270.061931 293.006664 
L 273.075216 279.779631 
L 274.901449 270.718423 
L 277.640798 255.797021 
L 280.654083 239.707434 
L 282.115069 233.019964 
L 283.119497 229.349984 
L 283.758679 227.697362 
L 284.215237 227.004487 
L 284.763107 226.260064 
L 285.128353 225.329225 
L 285.584911 223.466588 
L 286.224093 219.740314 
L 287.137209 212.875136 
L 290.607052 184.550275 
L 291.885415 176.728184 
L 292.981155 171.274924 
L 293.985583 167.296043 
L 294.8987 164.511551 
L 295.720504 162.662569 
L 296.450998 161.521512 
L 297.090179 160.895195 
L 297.638049 160.623809 
L 298.27723 160.575741 
L 298.916412 160.444697 
L 299.646905 160.062503 
L 300.46871 159.361733 
L 301.381827 158.279138 
L 302.477566 156.602922 
L 303.755929 154.188391 
L 305.216916 150.896371 
L 306.860525 146.610458 
L 308.77807 140.951679 
L 310.878238 134.03668 
L 313.252341 125.418382 
L 315.900378 114.938068 
L 319.096286 101.344674 
L 329.505814 56.252338 
L 331.788605 47.763434 
L 333.70615 41.426301 
L 335.532383 36.110077 
L 337.175992 31.976882 
L 338.636979 28.872418 
L 340.006653 26.478418 
L 341.193705 24.821743 
L 342.289445 23.642679 
L 343.293873 22.858104 
L 344.298301 22.355049 
L 345.211417 22.138593 
L 346.124534 22.146798 
L 347.03765 22.373755 
L 348.042078 22.867676 
L 349.046507 23.607269 
L 350.142246 24.680984 
L 351.420609 26.266266 
L 352.790284 28.338431 
L 354.25127 30.951445 
L 355.89488 34.374316 
L 357.53849 38.327675 
L 359.182099 42.890562 
L 360.551774 47.327042 
L 361.921449 52.592279 
L 365.29998 66.552258 
L 367.674083 77.7382 
L 371.509172 95.877004 
L 372.878847 101.322556 
L 373.791963 104.1339 
L 374.339833 105.241114 
L 374.887703 105.835686 
L 375.435573 106.522435 
L 375.892131 107.523306 
L 376.440001 109.298469 
L 377.261806 112.877787 
L 378.357545 118.811711 
L 379.635909 127.021553 
L 381.005583 135.567379 
L 382.283946 142.105388 
L 383.562309 147.497551 
L 384.749361 151.572213 
L 385.845101 154.581414 
L 386.849529 156.743677 
L 387.762645 158.246783 
L 388.675762 159.33951 
L 389.497566 159.996072 
L 390.319371 160.363963 
L 391.049864 160.463924 
L 391.871669 160.554484 
L 392.602163 160.907395 
L 393.423967 161.591738 
L 394.337084 162.678908 
L 395.341512 164.237796 
L 396.528563 166.529727 
L 397.898238 169.715913 
L 399.359224 173.686692 
L 401.002834 178.801777 
L 402.829067 185.231296 
L 404.837923 193.143086 
L 407.120714 203.097718 
L 409.677441 215.278365 
L 413.055972 232.558328 
L 420.634838 271.745433 
L 423.100253 283.131951 
L 425.200421 291.817999 
L 427.117965 298.865845 
L 428.852887 304.417119 
L 430.405185 308.648139 
L 431.774859 311.768808 
L 433.053222 314.146898 
L 434.240274 315.88774 
L 435.336014 317.096469 
L 436.340442 317.873378 
L 437.253558 318.310849 
L 438.166675 318.499491 
L 439.079791 318.44767 
L 439.992908 318.164841 
L 440.997336 317.599079 
L 442.093076 316.69352 
L 443.280127 315.392562 
L 444.55849 313.640639 
L 445.928165 311.377056 
L 447.389151 308.523608 
L 448.850137 305.185163 
L 450.311124 301.271912 
L 451.589487 297.211623 
L 452.685227 292.973763 
L 455.698511 279.74731 
L 457.524744 270.686775 
L 460.264093 255.766894 
L 463.277378 239.679276 
L 464.738364 232.992563 
L 465.742792 229.322813 
L 466.381974 227.670072 
L 466.838532 226.976997 
L 467.386402 226.232886 
L 467.751649 225.302576 
L 468.208207 223.440721 
L 468.847388 219.715525 
L 469.760505 212.85185 
L 473.230347 184.534087 
L 474.50871 176.714665 
L 475.60445 171.263683 
L 476.608878 167.286883 
L 477.521995 164.504274 
L 478.3438 162.656982 
L 479.074293 161.517423 
L 479.713474 160.892415 
L 480.261344 160.622149 
L 480.900526 160.57468 
L 481.539707 160.442777 
L 482.2702 160.059633 
L 483.092005 159.357834 
L 484.005122 158.274138 
L 485.100862 156.596655 
L 486.379225 154.18071 
L 487.840211 150.887146 
L 489.483821 146.599576 
L 491.401365 140.93896 
L 493.501533 134.022049 
L 495.875636 125.401697 
L 498.523674 114.919224 
L 501.810893 100.923749 
L 512.037798 56.582924 
L 514.320589 48.056402 
L 516.238133 41.681644 
L 518.064366 36.329154 
L 519.707976 32.159437 
L 521.168962 29.020081 
L 522.538637 26.591921 
L 523.725689 24.904963 
L 524.821428 23.697731 
L 525.825856 22.887413 
L 526.830285 22.358907 
L 527.743401 22.119738 
L 528.656517 22.105777 
L 529.569634 22.311236 
L 530.574062 22.782396 
L 531.57849 23.500253 
L 532.67423 24.551479 
L 533.952593 26.112109 
L 535.322268 28.159528 
L 536.783254 30.747442 
L 538.335552 33.940166 
L 539.979162 37.83259 
L 541.622771 42.321377 
L 543.083758 46.980054 
L 544.362121 51.83473 
L 547.923275 66.52759 
L 550.297378 77.714753 
L 554.132467 95.855617 
L 555.502142 101.301664 
L 556.415258 104.113058 
L 556.963128 105.220062 
L 557.510998 105.814508 
L 558.058868 106.501548 
L 558.515426 107.50284 
L 559.063296 109.27856 
L 559.885101 112.858717 
L 560.980841 118.793815 
L 562.259204 127.005294 
L 563.628879 135.553298 
L 564.907242 142.093204 
L 566.185605 147.487161 
L 567.372656 151.563431 
L 568.468396 154.574072 
L 569.472824 156.737623 
L 570.38594 158.241877 
L 571.299057 159.335731 
L 572.120862 159.993294 
L 572.942667 160.362173 
L 573.67316 160.463005 
L 574.494965 160.552556 
L 575.225458 160.904298 
L 576.047263 161.587372 
L 576.960379 162.673181 
L 577.964807 164.230625 
L 579.151859 166.520911 
L 580.521533 169.705274 
L 581.98252 173.674189 
L 583.626129 178.78726 
L 585.452362 185.214629 
L 587.461219 193.124154 
L 589.74401 203.076336 
L 592.300736 215.254406 
L 595.679267 232.531264 
L 603.258134 271.712878 
L 605.723548 283.098094 
L 607.823716 291.783226 
L 609.741261 298.830383 
L 611.476182 304.381154 
L 613.02848 308.61182 
L 614.398155 311.732251 
L 615.676518 314.110183 
L 616.863569 315.850932 
L 617.959309 317.059619 
L 618.963737 317.836527 
L 619.876853 318.274027 
L 620.78997 318.462726 
L 621.703086 318.410988 
L 622.616203 318.128268 
L 623.620631 317.562656 
L 624.716371 316.657291 
L 625.903422 315.356581 
L 627.181785 313.604964 
L 628.55146 311.34175 
L 630.012446 308.488738 
L 631.473433 305.150768 
L 632.934419 301.238031 
L 634.212782 297.17822 
L 635.308522 292.940801 
L 638.321806 279.715832 
L 640.148039 270.656266 
L 642.887389 255.738061 
L 645.900673 239.652308 
L 647.361659 232.96625 
L 648.366088 229.296654 
L 649.005269 227.643749 
L 649.461827 226.950445 
L 650.009697 226.206592 
L 650.374944 225.276767 
L 650.831502 223.415633 
L 651.470684 219.691427 
L 652.3838 212.829119 
L 655.853643 184.518258 
L 657.132006 176.701438 
L 658.227745 171.252677 
L 659.232174 167.277906 
L 660.14529 164.497137 
L 660.967095 162.651497 
L 661.697588 161.513405 
L 662.33677 160.88968 
L 662.88464 160.620514 
L 663.523821 160.573622 
L 664.163003 160.440876 
L 664.893496 160.056799 
L 665.715301 159.353987 
L 666.628417 158.269208 
L 667.724157 156.590476 
L 669.00252 154.173137 
L 670.463506 150.878049 
L 672.107116 146.588844 
L 674.024661 140.926416 
L 676.124828 134.007618 
L 678.498931 125.385242 
L 681.146969 114.90064 
L 684.434188 100.902723 
L 694.661093 56.556026 
L 696.943884 48.028608 
L 698.861429 41.653223 
L 700.687662 36.300241 
L 702.331271 32.130165 
L 703.792258 28.990559 
L 705.161932 26.562223 
L 706.348984 24.875158 
L 707.444724 23.667867 
L 708.449152 22.857523 
L 709.45358 22.329023 
L 710.366696 22.089884 
L 711.279813 22.075976 
L 712.192929 22.281511 
L 713.197357 22.752781 
L 714.201785 23.470774 
L 715.297525 24.522177 
L 716.575888 26.08305 
L 717.945563 28.130771 
L 719.406549 30.719048 
L 720.958847 33.912204 
L 722.602457 37.80513 
L 724.246067 42.294464 
L 725.707053 46.953654 
L 726.985416 51.808834 
L 730.54657 66.503279 
L 732.920673 77.691643 
L 736.755762 95.83453 
L 738.125437 101.281064 
L 739.038554 104.092504 
L 739.586424 105.199298 
L 740.134293 105.79362 
L 740.682163 106.480944 
L 741.138722 107.482648 
L 741.686591 109.258917 
L 742.508396 112.839897 
L 743.604136 118.776146 
L 744.882499 126.98923 
L 746.252174 135.539391 
L 747.530537 142.081174 
L 748.8089 147.476904 
L 749.995951 151.554761 
L 751.091691 154.566824 
L 752.096119 156.731645 
L 753.009236 158.23703 
L 753.922352 159.331996 
L 754.744157 159.990543 
L 755.565962 160.360397 
L 756.296455 160.462087 
L 757.11826 160.550652 
L 757.848753 160.901244 
L 758.670558 161.583067 
L 759.583674 162.667537 
L 760.588102 164.22356 
L 761.775154 166.512226 
L 763.144829 169.694794 
L 764.605815 173.661874 
L 766.249425 178.772962 
L 768.075658 185.198215 
L 770.084514 193.105509 
L 772.367305 203.055278 
L 774.924031 215.230808 
L 778.302562 232.504608 
L 785.881429 271.68081 
L 788.346843 283.064742 
L 790.447011 291.748971 
L 792.364556 298.795449 
L 794.099477 304.345723 
L 795.651775 308.576041 
L 797.02145 311.696239 
L 798.299813 314.074015 
L 799.486864 315.814671 
L 800.582604 317.023318 
L 801.587032 317.800225 
L 802.500149 318.237753 
L 803.413265 318.426508 
L 804.326382 318.374853 
L 805.239498 318.09224 
L 806.243926 317.526774 
L 807.339666 316.621602 
L 808.526717 315.321136 
L 809.805081 313.56982 
L 811.174755 311.30697 
L 812.635742 308.454388 
L 814.096728 305.116886 
L 815.557714 301.204654 
L 816.836077 297.145313 
L 817.931817 292.908327 
L 820.945102 279.684817 
L 822.771335 270.626205 
L 825.510684 255.709646 
L 828.523968 239.625726 
L 829.984955 232.940309 
L 830.989383 229.270862 
L 831.628564 227.617792 
L 832.085123 226.924259 
L 832.632992 226.180658 
L 832.998239 225.251308 
L 833.454797 223.390882 
L 834.093979 219.667648 
L 835.007095 212.806677 
L 838.476938 184.502632 
L 839.755301 176.688384 
L 840.851041 171.241817 
L 841.855469 167.269049 
L 842.768585 164.490096 
L 843.59039 162.646086 
L 844.320883 161.50944 
L 844.960065 160.88698 
L 845.507935 160.618898 
L 846.147116 160.572568 
L 846.786298 160.438989 
L 847.516791 160.053994 
L 848.338596 159.350184 
L 849.251712 158.264337 
L 850.347452 156.584376 
L 851.625815 154.165665 
L 853.086802 150.869077 
L 854.730411 146.578262 
L 856.647956 140.914049 
L 858.748124 133.993392 
L 861.122227 125.369021 
L 863.770264 114.882322 
L 867.057484 100.881998 
L 877.284388 56.529513 
L 879.567179 48.00121 
L 881.484724 41.625208 
L 883.310957 36.27174 
L 884.954567 32.101311 
L 886.415553 28.961458 
L 887.785228 26.532949 
L 888.972279 24.845779 
L 890.068019 23.638428 
L 891.072447 22.82806 
L 892.076875 22.299565 
L 892.989992 22.060455 
L 893.903108 22.0466 
L 894.816225 22.25221 
L 895.820653 22.723589 
L 896.825081 23.441715 
L 897.920821 24.493293 
L 899.199184 26.054405 
L 900.568858 28.102423 
L 902.029845 30.691059 
L 903.582143 33.884639 
L 905.225752 37.778059 
L 906.869362 42.267932 
L 908.330348 46.927628 
L 909.608711 51.783304 
L 913.169866 66.479308 
L 915.543969 77.668853 
L 919.379058 95.813729 
L 920.748732 101.260739 
L 921.661849 104.072221 
L 922.209719 105.178808 
L 922.757589 105.773005 
L 923.305459 106.460609 
L 923.762017 107.462718 
L 924.309887 109.239525 
L 925.131692 112.821314 
L 926.227431 118.758691 
L 927.505794 126.973352 
L 928.875469 135.52565 
L 930.153832 142.06929 
L 931.432195 147.466773 
L 932.619247 151.546196 
L 933.714986 154.559663 
L 934.719415 156.725739 
L 935.632531 158.23224 
L 936.545647 159.328301 
L 937.367452 159.98782 
L 938.189257 160.358634 
L 938.91975 160.46117 
L 939.741555 160.548773 
L 940.472048 160.898231 
L 941.293853 161.578822 
L 942.20697 162.661971 
L 943.211398 164.216594 
L 944.398449 166.503665 
L 945.768124 169.684466 
L 947.22911 173.649739 
L 948.87272 178.758873 
L 950.698953 185.18204 
L 952.707809 193.087136 
L 954.9906 203.034526 
L 957.547326 215.207553 
L 960.925857 232.478337 
L 968.504724 271.649201 
L 970.970139 283.031867 
L 973.070307 291.715206 
L 974.987851 298.761014 
L 976.722772 304.310799 
L 978.27507 308.540772 
L 979.644745 311.66074 
L 980.923108 314.038363 
L 982.11016 315.778929 
L 983.205899 316.987536 
L 984.210328 317.764442 
L 985.123444 318.201998 
L 986.03656 318.390807 
L 986.949677 318.339233 
L 987.862793 318.056727 
L 988.867222 317.491406 
L 989.962961 316.586423 
L 991.150013 315.286198 
L 992.428376 313.535179 
L 993.798051 311.272687 
L 995.259037 308.420528 
L 996.720023 305.083487 
L 998.18101 301.171753 
L 999.459373 297.112874 
L 1000.555112 292.876314 
L 1003.568397 279.65424 
L 1005.39463 270.596564 
L 1008.133979 255.681626 
L 1011.147264 239.599508 
L 1012.60825 232.914719 
L 1013.612678 229.245416 
L 1014.25186 227.592181 
L 1014.708418 226.898419 
L 1015.256288 226.155064 
L 1015.621534 225.22618 
L 1016.078093 223.366449 
L 1016.717274 219.644169 
L 1017.630391 212.784508 
L 1021.100233 184.4872 
L 1022.378596 176.675494 
L 1023.474336 171.231094 
L 1023.631392 170.546066 
L 1023.631392 170.546066 
" style="fill:none;stroke:#ffa500;stroke-linecap:square;stroke-width:1.5;"/>
   </g>
   <g id="line2d_32">
    <path clip-path="url(#p800cb331c4)" d="M 110.540483 178.164845 
L 112.001469 173.175085 
L 113.371144 169.285622 
L 114.649507 166.321787 
L 115.836559 164.12832 
L 116.932298 162.571093 
L 117.936726 161.534187 
L 118.849843 160.91607 
L 119.671648 160.626437 
L 120.493453 160.580306 
L 121.406569 160.465189 
L 122.319685 160.134277 
L 123.324114 159.522476 
L 124.328542 158.65245 
L 125.424282 157.410607 
L 126.611333 155.723683 
L 127.889696 153.515738 
L 129.259371 150.711313 
L 130.811669 147.007386 
L 132.54659 142.252003 
L 134.464135 136.322441 
L 136.746926 128.505298 
L 139.76021 117.329273 
L 146.699895 91.322502 
L 149.073998 83.459516 
L 150.991543 77.829201 
L 152.726464 73.397734 
L 154.278762 70.024791 
L 155.648437 67.543016 
L 156.9268 65.659704 
L 158.113851 64.291084 
L 159.209591 63.352922 
L 160.214019 62.764204 
L 161.218447 62.429583 
L 162.222876 62.341368 
L 163.227304 62.489482 
L 164.231732 62.865695 
L 165.418783 63.564839 
L 166.788458 64.653851 
L 168.340756 66.201667 
L 170.166989 68.357666 
L 172.723715 71.756218 
L 177.380609 78.367797 
L 178.841595 80.779609 
L 182.95062 88.431386 
L 184.411606 91.981398 
L 186.511774 97.74799 
L 191.807849 112.584387 
L 193.086212 115.491069 
L 194.181952 119.311005 
L 197.469172 130.987134 
L 199.660651 137.923773 
L 201.578196 143.26185 
L 203.313117 147.438207 
L 204.956727 150.844235 
L 206.600336 153.740772 
L 208.152634 156.021179 
L 209.522309 157.664971 
L 210.800672 158.878506 
L 211.987723 159.715432 
L 213.083463 160.226821 
L 214.087891 160.463219 
L 216.188059 160.775415 
L 217.009864 161.258345 
L 217.922981 162.070931 
L 218.927409 163.300183 
L 220.023148 165.038867 
L 221.2102 167.382288 
L 222.488563 170.423546 
L 223.949549 174.521788 
L 225.593159 179.86022 
L 227.419392 186.580106 
L 229.610871 195.517762 
L 232.715467 209.213401 
L 238.468101 234.713709 
L 240.842204 244.153327 
L 242.85106 251.250922 
L 244.585982 256.591015 
L 246.13828 260.680562 
L 247.507954 263.716603 
L 248.786317 266.051579 
L 249.973369 267.784672 
L 251.069109 269.014875 
L 252.073537 269.836635 
L 253.077965 270.374303 
L 253.991081 270.626073 
L 254.904198 270.662043 
L 255.908626 270.469711 
L 257.004366 270.036386 
L 258.282729 269.278042 
L 259.743715 268.13272 
L 261.569948 266.395225 
L 265.131102 262.605705 
L 269.514061 257.804296 
L 271.340294 255.068602 
L 273.349151 251.962819 
L 274.536202 249.609887 
L 275.905877 246.335434 
L 277.640798 241.558527 
L 280.106213 234.078558 
L 282.023757 227.611508 
L 283.210809 222.832749 
L 284.39786 217.76067 
L 285.767535 213.57709 
L 286.58934 209.654213 
L 291.154922 186.428928 
L 292.798532 179.540359 
L 294.259518 174.331588 
L 295.629193 170.242207 
L 296.907556 167.097962 
L 298.094607 164.741576 
L 299.190347 163.036509 
L 300.194775 161.864847 
L 301.107892 161.123744 
L 301.929696 160.722223 
L 302.751501 160.57534 
L 304.029864 160.46389 
L 304.942981 160.132343 
L 305.947409 159.519847 
L 306.951837 158.649127 
L 308.047577 157.406532 
L 309.234628 155.7188 
L 310.512991 153.509993 
L 311.882666 150.704656 
L 313.434964 146.999717 
L 315.169885 142.243234 
L 317.08743 136.312504 
L 319.370221 128.494046 
L 322.383505 117.316436 
L 329.323191 91.306768 
L 331.697294 83.443052 
L 333.614838 77.812246 
L 335.349759 73.380411 
L 336.902057 70.007198 
L 338.271732 67.525232 
L 339.550095 65.64178 
L 340.737147 64.273063 
L 341.832886 63.334839 
L 342.837315 62.746086 
L 343.841743 62.411451 
L 344.846171 62.323242 
L 345.850599 62.471381 
L 346.855027 62.847639 
L 348.042078 63.546857 
L 349.411753 64.635981 
L 350.964051 66.183954 
L 352.790284 68.340172 
L 355.34701 71.739081 
L 360.003904 78.351394 
L 361.464891 80.76346 
L 365.573915 88.415982 
L 367.034901 91.966311 
L 369.135069 97.733428 
L 374.431145 112.57059 
L 375.709508 115.477387 
L 376.805247 119.298314 
L 380.092467 130.976679 
L 382.283946 137.914604 
L 384.201491 143.253751 
L 385.936412 147.43104 
L 387.580022 150.837937 
L 389.223632 153.735349 
L 390.77593 156.016601 
L 392.145604 157.661163 
L 393.423967 158.875446 
L 394.611019 159.713093 
L 395.706759 160.225174 
L 396.711187 160.46223 
L 398.902666 160.815495 
L 399.724471 161.323741 
L 400.637587 162.164522 
L 401.642016 163.424675 
L 402.737755 165.196644 
L 403.924807 167.57522 
L 405.20317 170.652747 
L 406.664156 174.789659 
L 408.307766 180.167008 
L 410.133999 186.923136 
L 412.41679 196.28279 
L 415.612698 210.436002 
L 421.000085 234.313088 
L 423.374188 243.789916 
L 425.383044 250.928219 
L 427.117965 256.308762 
L 428.670263 260.437538 
L 430.13125 263.695058 
L 431.409613 266.02985 
L 432.596664 267.762811 
L 433.692404 268.992927 
L 434.696832 269.814633 
L 435.70126 270.352272 
L 436.614377 270.604037 
L 437.527493 270.64002 
L 438.531921 270.447723 
L 439.627661 270.014457 
L 440.906024 269.256208 
L 442.36701 268.111021 
L 444.193243 266.373732 
L 447.754398 262.584687 
L 452.137357 257.783906 
L 453.96359 255.048536 
L 455.972446 251.943066 
L 457.159497 249.590345 
L 458.529172 246.316187 
L 460.264093 241.539717 
L 462.729508 234.060401 
L 464.647052 227.593777 
L 465.834104 222.815157 
L 467.021155 217.74306 
L 468.39083 213.560711 
L 469.212635 209.638768 
L 473.778217 186.417704 
L 475.421827 179.530598 
L 476.882813 174.323109 
L 478.252488 170.234925 
L 479.530851 167.091803 
L 480.717902 164.736472 
L 481.813642 163.032397 
L 482.81807 161.861666 
L 483.731187 161.121429 
L 484.552992 160.720708 
L 485.374797 160.574643 
L 486.65316 160.462601 
L 487.566276 160.130428 
L 488.570704 159.517245 
L 489.575132 158.645843 
L 490.670872 157.402506 
L 491.857923 155.713976 
L 493.136287 153.504319 
L 494.505961 150.698084 
L 496.058259 146.992146 
L 497.793181 142.234578 
L 499.710725 136.302695 
L 501.993516 128.482941 
L 505.006801 117.303766 
L 511.946486 91.291241 
L 514.320589 83.426804 
L 516.238133 77.795514 
L 517.973055 73.363315 
L 519.525353 69.989837 
L 520.895027 67.507683 
L 522.17339 65.624092 
L 523.360442 64.255279 
L 524.456182 63.316994 
L 525.46061 62.728206 
L 526.465038 62.393557 
L 527.469466 62.305355 
L 528.473894 62.453519 
L 529.478322 62.829821 
L 530.665374 63.529112 
L 532.035048 64.618346 
L 533.587346 66.166473 
L 535.413579 68.322907 
L 537.970306 71.722169 
L 542.6272 78.335206 
L 544.088186 80.747523 
L 548.19721 88.400779 
L 549.658196 91.951422 
L 551.758364 97.719055 
L 557.05444 112.55696 
L 558.332803 115.463863 
L 559.428543 119.285773 
L 562.715762 130.966353 
L 564.907242 137.905549 
L 566.824786 143.245753 
L 568.559707 147.423962 
L 570.203317 150.831718 
L 571.846927 153.729992 
L 573.399225 156.012077 
L 574.7689 157.6574 
L 576.047263 158.872419 
L 577.234314 159.710778 
L 578.330054 160.223542 
L 579.334482 160.461248 
L 581.525961 160.813536 
L 582.347766 161.320997 
L 583.260883 162.160911 
L 584.265311 163.420117 
L 585.361051 165.191065 
L 586.548102 167.568552 
L 587.826465 170.64493 
L 589.287452 174.780565 
L 590.931061 180.156532 
L 592.757294 186.911203 
L 595.040085 196.269162 
L 598.235993 210.420263 
L 603.62338 234.294525 
L 605.997483 243.770405 
L 608.006339 250.908044 
L 609.741261 256.288114 
L 611.293559 260.416542 
L 612.754545 263.673798 
L 614.032908 266.008408 
L 615.219959 267.74124 
L 616.315699 268.971269 
L 617.320127 269.792922 
L 618.324555 270.330532 
L 619.237672 270.582292 
L 620.150788 270.618288 
L 621.155217 270.426026 
L 622.250956 269.992819 
L 623.529319 269.234661 
L 624.990306 268.089609 
L 626.816539 266.352523 
L 630.377693 262.563946 
L 634.760652 257.763786 
L 636.586885 255.028734 
L 638.595741 251.923575 
L 639.782793 249.57106 
L 641.152467 246.297193 
L 642.887389 241.521154 
L 645.352803 234.042478 
L 647.270348 227.576269 
L 648.457399 222.797778 
L 649.644451 217.725658 
L 651.014125 213.544529 
L 651.83593 209.62351 
L 656.401513 186.406619 
L 658.045122 179.520958 
L 659.506109 174.314738 
L 660.875783 170.227736 
L 662.154146 167.085721 
L 663.341198 164.731432 
L 664.436938 163.028336 
L 665.441366 161.858524 
L 666.354482 161.119142 
L 667.176287 160.719209 
L 667.998092 160.573954 
L 669.276455 160.461321 
L 670.189571 160.12853 
L 671.193999 159.514671 
L 672.198428 158.642594 
L 673.294167 157.398526 
L 674.481219 155.70921 
L 675.759582 153.498713 
L 677.129257 150.691591 
L 678.681555 146.984668 
L 680.416476 142.22603 
L 682.33402 136.293009 
L 684.616812 128.471975 
L 687.630096 117.291257 
L 694.569781 91.275911 
L 696.943884 83.410763 
L 698.861429 77.778994 
L 700.59635 73.346438 
L 702.148648 69.972697 
L 703.518323 67.490356 
L 704.796686 65.60663 
L 705.983737 64.237722 
L 707.079477 63.299376 
L 708.083905 62.710554 
L 709.088333 62.375891 
L 710.092761 62.287695 
L 711.097189 62.435884 
L 712.101618 62.812229 
L 713.288669 63.511593 
L 714.658344 64.600935 
L 716.210642 66.149214 
L 718.036875 68.305862 
L 720.593601 71.705472 
L 725.250495 78.319223 
L 726.711481 80.731787 
L 730.820505 88.385767 
L 732.281492 91.936719 
L 734.38166 97.70486 
L 739.677735 112.543487 
L 740.956098 115.450491 
L 742.051838 119.273375 
L 745.339057 130.956148 
L 747.530537 137.896602 
L 749.448081 143.23785 
L 751.183003 147.416969 
L 752.826612 150.825573 
L 754.470222 153.724699 
L 756.02252 156.007606 
L 757.392195 157.65368 
L 758.670558 158.869425 
L 759.857609 159.708486 
L 760.953349 160.221924 
L 761.957777 160.46027 
L 764.149257 160.811599 
L 764.971062 161.318287 
L 765.884178 162.157345 
L 766.888606 163.415616 
L 767.984346 165.185556 
L 769.171397 167.561968 
L 770.44976 170.637212 
L 771.910747 174.771587 
L 773.554356 180.146191 
L 775.380589 186.899422 
L 777.663381 196.255708 
L 780.859288 210.404725 
L 786.246675 234.276199 
L 788.620778 243.751143 
L 790.629635 250.888128 
L 792.364556 256.26773 
L 793.916854 260.395815 
L 795.37784 263.65281 
L 796.656203 265.98724 
L 797.843255 267.719944 
L 798.938994 268.949888 
L 799.943423 269.771489 
L 800.947851 270.309071 
L 801.860967 270.560825 
L 802.774084 270.596834 
L 803.778512 270.404606 
L 804.874252 269.971456 
L 806.152615 269.21339 
L 807.613601 268.068471 
L 809.439834 266.331585 
L 813.000988 262.54347 
L 817.383947 257.743922 
L 819.21018 255.009184 
L 821.219037 251.90433 
L 822.406088 249.552021 
L 823.775763 246.27844 
L 825.510684 241.502824 
L 827.976098 234.024776 
L 829.893643 227.558971 
L 831.080694 222.7806 
L 832.267746 217.708454 
L 833.637421 213.528534 
L 834.459225 209.60843 
L 839.024808 186.395668 
L 840.668417 179.511435 
L 842.129404 174.306468 
L 843.499079 170.220634 
L 844.777442 167.079714 
L 845.964493 164.726453 
L 847.060233 163.024325 
L 848.064661 161.855418 
L 848.977777 161.116881 
L 849.799582 160.717726 
L 850.621387 160.573269 
L 851.808438 160.481544 
L 852.721555 160.169665 
L 853.725983 159.578679 
L 854.730411 158.729353 
L 855.826151 157.509932 
L 857.013202 155.847013 
L 858.291565 153.664391 
L 859.66124 150.88617 
L 861.213538 147.210263 
L 862.948459 142.48329 
L 864.866004 136.58045 
L 867.148795 128.787117 
L 870.16208 117.626657 
L 877.193077 91.260769 
L 879.567179 83.394919 
L 881.484724 77.762678 
L 883.219645 73.329767 
L 884.771943 69.955767 
L 886.141618 67.473243 
L 887.419981 65.589382 
L 888.607032 64.220381 
L 889.702772 63.281974 
L 890.7072 62.693119 
L 891.711628 62.358443 
L 892.716057 62.270252 
L 893.720485 62.418465 
L 894.724913 62.794853 
L 895.911964 63.494288 
L 897.281639 64.583738 
L 898.833937 66.132167 
L 900.66017 68.289026 
L 903.216896 71.688979 
L 907.87379 78.303434 
L 909.334776 80.716242 
L 913.443801 88.370937 
L 914.904787 91.922193 
L 917.004955 97.690836 
L 922.30103 112.530165 
L 923.579394 115.437263 
L 924.675133 119.261113 
L 927.962353 130.946059 
L 930.153832 137.887758 
L 932.071377 143.230038 
L 933.806298 147.410056 
L 935.449908 150.819498 
L 937.093517 153.719465 
L 938.645815 156.003185 
L 940.01549 157.649999 
L 941.293853 158.866462 
L 942.480905 159.706217 
L 943.576644 160.22032 
L 944.581072 160.459298 
L 946.772552 160.809685 
L 947.594357 161.315608 
L 948.507473 162.153821 
L 949.511901 163.41117 
L 950.607641 165.180115 
L 951.794693 167.555465 
L 953.073056 170.629589 
L 954.534042 174.76272 
L 956.177652 180.135976 
L 958.003885 186.887786 
L 960.286676 196.24242 
L 963.482584 210.389379 
L 968.869971 234.258101 
L 971.244074 243.73212 
L 973.25293 250.868457 
L 974.987851 256.247598 
L 976.540149 260.375343 
L 978.001135 263.632081 
L 979.279499 265.966334 
L 980.46655 267.698912 
L 981.56229 268.928771 
L 982.566718 269.75032 
L 983.571146 270.287874 
L 984.484262 270.539623 
L 985.397379 270.575644 
L 986.401807 270.38345 
L 987.497547 269.950358 
L 988.77591 269.192382 
L 990.236896 268.047593 
L 992.063129 266.310905 
L 995.624283 262.523246 
L 1000.007243 257.724301 
L 1001.833476 254.989874 
L 1003.842332 251.885322 
L 1005.029383 249.533213 
L 1006.399058 246.259914 
L 1008.133979 241.484716 
L 1010.599394 234.007285 
L 1012.516938 227.541873 
L 1013.70399 222.763613 
L 1014.891041 217.691439 
L 1016.260716 213.512717 
L 1017.082521 209.593519 
L 1021.648103 186.384842 
L 1023.291713 179.502023 
L 1023.631392 178.213277 
L 1023.631392 178.213277 
" style="fill:none;stroke:#90ee90;stroke-linecap:square;stroke-width:1.5;"/>
   </g>
   <g id="line2d_33">
    <path clip-path="url(#p800cb331c4)" d="M 110.540483 218.981002 
L 111.179664 218.892798 
L 111.818846 218.553883 
L 112.549339 217.866329 
L 113.371144 216.722969 
L 114.284261 215.016662 
L 115.288689 212.649155 
L 116.47574 209.261393 
L 117.936726 204.364016 
L 119.854271 197.072896 
L 125.606905 174.59053 
L 127.159203 169.671237 
L 128.437566 166.309396 
L 129.533306 164.000164 
L 130.537734 162.388446 
L 131.359539 161.447413 
L 132.090032 160.904337 
L 132.820525 160.641132 
L 134.829381 160.2526 
L 135.742498 159.669103 
L 136.746926 158.74068 
L 137.842666 157.41998 
L 139.121029 155.528218 
L 140.673327 152.820561 
L 142.773495 148.659316 
L 149.895803 134.114079 
L 151.722036 131.098254 
L 153.274334 128.950412 
L 154.644009 127.413297 
L 155.922372 126.302875 
L 157.109423 125.562506 
L 158.205163 125.131285 
L 159.300903 124.941708 
L 160.396643 124.989849 
L 161.492382 125.268502 
L 162.679434 125.818429 
L 163.957797 126.679863 
L 165.327472 127.883162 
L 166.87977 129.549448 
L 168.797314 131.957075 
L 171.627975 135.929476 
L 175.280441 141.011559 
L 177.015362 143.060515 
L 178.385037 144.348295 
L 179.480777 145.088708 
L 180.485205 145.512693 
L 181.215698 145.617411 
L 181.946191 145.489457 
L 182.859308 145.073961 
L 184.411606 144.085494 
L 185.598657 143.118523 
L 186.694397 141.91694 
L 188.977188 139.230532 
L 189.433747 139.027235 
L 189.798993 139.087031 
L 190.16424 139.44038 
L 190.529486 140.208208 
L 191.259979 141.919695 
L 191.625226 142.190763 
L 191.899161 142.129952 
L 192.264408 141.757334 
L 192.720966 140.885336 
L 193.268836 139.251342 
L 193.816706 136.858891 
L 196.008185 126.092061 
L 197.286548 121.536995 
L 198.656223 117.415239 
L 199.843274 114.489918 
L 200.847702 112.550374 
L 201.760819 111.249834 
L 202.582624 110.473826 
L 203.313117 110.104835 
L 203.952298 110.030959 
L 204.59148 110.187867 
L 205.230662 110.571642 
L 205.961155 111.280084 
L 206.78296 112.405977 
L 207.696076 114.038524 
L 208.791816 116.475706 
L 210.070179 119.881168 
L 211.713789 124.93803 
L 214.361826 133.947959 
L 217.557734 144.633616 
L 219.292655 149.696594 
L 220.753642 153.324826 
L 222.032005 155.937287 
L 223.127744 157.722054 
L 224.132173 158.974181 
L 225.045289 159.789361 
L 225.867094 160.260954 
L 226.688899 160.488527 
L 228.332508 160.758833 
L 229.063002 161.221124 
L 229.884806 161.99665 
L 230.889235 163.271663 
L 232.076286 165.174055 
L 233.537272 167.980456 
L 235.454817 172.19146 
L 241.937944 186.872031 
L 243.672865 190.059339 
L 245.133852 192.309013 
L 246.503526 194.011702 
L 247.690578 195.14804 
L 248.786317 195.908032 
L 249.790746 196.358404 
L 250.795174 196.574373 
L 251.799602 196.560237 
L 252.80403 196.323256 
L 253.89977 195.822499 
L 255.086821 195.013821 
L 256.365184 193.862596 
L 257.826171 192.239403 
L 259.652404 189.847369 
L 262.300441 185.953419 
L 265.770284 180.898728 
L 267.413894 178.889324 
L 268.692257 177.662906 
L 269.696685 176.992342 
L 270.609801 176.649401 
L 271.431606 176.568203 
L 272.070788 176.709885 
L 272.709969 177.078787 
L 273.440462 177.767203 
L 274.44489 179.041367 
L 275.723254 181.014263 
L 276.818993 183.118137 
L 277.914733 185.751418 
L 280.288836 191.708414 
L 280.654083 192.113379 
L 280.928017 192.147914 
L 281.110641 191.988965 
L 281.384576 191.398718 
L 282.480315 188.348323 
L 282.845562 188.095776 
L 283.119497 188.165423 
L 283.484744 188.551271 
L 283.941302 189.444374 
L 284.489172 191.077096 
L 285.128353 193.808915 
L 285.767535 197.665465 
L 287.137209 206.770685 
L 287.867703 209.896698 
L 288.780819 212.759946 
L 289.785247 215.217624 
L 290.698364 216.929523 
L 291.520169 218.034527 
L 292.250662 218.663129 
L 292.889843 218.938729 
L 293.529025 218.959189 
L 294.168206 218.727243 
L 294.807388 218.247354 
L 295.537881 217.403374 
L 296.359686 216.091818 
L 297.272802 214.210761 
L 298.368542 211.415129 
L 299.646905 207.507418 
L 301.199203 202.019247 
L 303.481994 193.028171 
L 307.408395 177.500819 
L 309.143317 171.594517 
L 310.512991 167.665976 
L 311.700043 164.894144 
L 312.704471 163.058847 
L 313.617587 161.822592 
L 314.439392 161.075073 
L 315.169885 160.706729 
L 315.809067 160.614724 
L 316.630872 160.547909 
L 317.452676 160.252379 
L 318.365793 159.668838 
L 319.370221 158.740369 
L 320.465961 157.41962 
L 321.744324 155.527805 
L 323.296622 152.820087 
L 325.39679 148.658767 
L 332.519098 134.113331 
L 334.345331 131.097469 
L 335.897629 128.949602 
L 337.267304 127.412467 
L 338.545667 126.302029 
L 339.732719 125.561648 
L 340.828458 125.130418 
L 341.924198 124.940834 
L 343.019938 124.98897 
L 344.115678 125.267619 
L 345.302729 125.817544 
L 346.581092 126.678978 
L 347.950767 127.882281 
L 349.503065 129.548572 
L 351.420609 131.956208 
L 354.25127 135.928627 
L 357.903736 141.010727 
L 359.638658 143.059678 
L 361.008332 144.347442 
L 362.104072 145.087831 
L 363.1085 145.511781 
L 363.838993 145.616461 
L 364.569487 145.48846 
L 365.482603 145.072911 
L 367.034901 144.084357 
L 368.221953 143.117296 
L 369.317692 141.915613 
L 371.600484 139.229061 
L 372.057042 139.02577 
L 372.422288 139.085586 
L 372.787535 139.438977 
L 373.152782 140.20687 
L 373.883275 141.918335 
L 374.248521 142.189354 
L 374.522456 142.128507 
L 374.887703 141.75584 
L 375.344261 140.883774 
L 375.892131 139.249684 
L 376.440001 136.857113 
L 378.63148 126.090079 
L 379.909843 121.534973 
L 381.279518 117.413205 
L 382.46657 114.487901 
L 383.470998 112.548389 
L 384.384114 111.24789 
L 385.205919 110.471929 
L 385.936412 110.102984 
L 386.575594 110.029153 
L 387.214775 110.186109 
L 387.853957 110.569935 
L 388.58445 111.278437 
L 389.406255 112.4044 
L 390.319371 114.037026 
L 391.415111 116.474305 
L 392.693474 119.87988 
L 394.337084 124.936883 
L 396.985122 133.947026 
L 400.181029 144.632913 
L 401.915951 149.696005 
L 403.376937 153.324327 
L 404.6553 155.936864 
L 405.75104 157.721694 
L 406.755468 158.973877 
L 407.668584 159.789107 
L 408.490389 160.260744 
L 409.312194 160.488362 
L 410.955804 160.758613 
L 411.686297 161.220853 
L 412.508102 161.996325 
L 413.51253 163.271275 
L 414.699581 165.173596 
L 416.160568 167.979917 
L 418.078112 172.190825 
L 424.561239 186.87115 
L 426.29616 190.058411 
L 427.757147 192.308053 
L 429.126822 194.010715 
L 430.313873 195.147034 
L 431.409613 195.907012 
L 432.414041 196.357374 
L 433.418469 196.573333 
L 434.422897 196.559192 
L 435.427325 196.322207 
L 436.523065 195.821448 
L 437.710116 195.01277 
L 438.98848 193.861548 
L 440.449466 192.238361 
L 442.275699 189.846339 
L 444.923737 185.952411 
L 448.393579 180.897742 
L 450.037189 178.888334 
L 451.315552 177.661899 
L 452.31998 176.991309 
L 453.233097 176.648331 
L 454.054901 176.567088 
L 454.694083 176.708721 
L 455.333264 177.077565 
L 456.063758 177.765908 
L 457.068186 179.039978 
L 458.346549 181.012738 
L 459.442289 183.116461 
L 460.538028 185.749571 
L 462.912131 191.706328 
L 463.277378 192.111311 
L 463.551313 192.145885 
L 463.733936 191.986979 
L 464.007871 191.396811 
L 465.103611 188.346388 
L 465.468857 188.093787 
L 465.742792 188.163393 
L 466.108039 188.549186 
L 466.564597 189.442219 
L 467.112467 191.074845 
L 467.751649 193.806531 
L 468.39083 197.662914 
L 469.760505 206.768 
L 470.490998 209.894011 
L 471.404114 212.75726 
L 472.408543 215.214951 
L 473.321659 216.92688 
L 474.143464 218.031924 
L 474.873957 218.660572 
L 475.513139 218.936218 
L 476.15232 218.95673 
L 476.791502 218.72484 
L 477.430683 218.245011 
L 478.161176 217.401104 
L 478.982981 216.089635 
L 479.896098 214.208679 
L 480.991837 211.413173 
L 482.2702 207.505612 
L 483.822498 202.017623 
L 486.10529 193.02681 
L 490.031691 177.499881 
L 491.766612 171.593753 
L 493.136287 167.665345 
L 494.323338 164.893625 
L 495.327766 163.058422 
L 496.240883 161.822251 
L 497.062687 161.074808 
L 497.793181 160.706529 
L 498.432362 160.614582 
L 499.254167 160.547725 
L 500.075972 160.252147 
L 500.989088 159.668555 
L 501.993516 158.740032 
L 503.089256 157.419228 
L 504.367619 155.527351 
L 505.919917 152.819564 
L 508.020085 148.658158 
L 515.142394 134.112497 
L 516.968627 131.096594 
L 518.520925 128.948697 
L 519.890599 127.411541 
L 521.168962 126.301086 
L 522.356014 125.560692 
L 523.451754 125.129453 
L 524.547493 124.939862 
L 525.643233 124.987992 
L 526.738973 125.266639 
L 527.926024 125.816563 
L 529.204387 126.677999 
L 530.574062 127.881306 
L 532.12636 129.547605 
L 534.043905 131.955255 
L 536.874566 135.927699 
L 540.527032 141.009825 
L 542.261953 143.058776 
L 543.631628 144.346528 
L 544.727367 145.086894 
L 545.731796 145.510813 
L 546.462289 145.615455 
L 547.192782 145.48741 
L 548.105898 145.071808 
L 549.658196 144.083168 
L 550.845248 143.116017 
L 551.940988 141.914234 
L 554.223779 139.22754 
L 554.680337 139.024253 
L 555.045584 139.08409 
L 555.41083 139.437525 
L 555.776077 140.205483 
L 556.50657 141.916928 
L 556.871817 142.187899 
L 557.145752 142.127016 
L 557.510998 141.7543 
L 557.967556 140.882166 
L 558.515426 139.247975 
L 559.063296 136.855281 
L 561.254776 126.088035 
L 562.533139 121.532885 
L 563.902813 117.411099 
L 565.089865 114.485808 
L 566.094293 112.546325 
L 567.007409 111.245865 
L 567.829214 110.469947 
L 568.559707 110.101047 
L 569.198889 110.027259 
L 569.838071 110.184262 
L 570.477252 110.568137 
L 571.207745 111.276698 
L 572.02955 112.40273 
L 572.942667 114.035436 
L 574.038406 116.472812 
L 575.316769 119.8785 
L 576.960379 124.935647 
L 579.608417 133.946012 
L 582.804325 144.632145 
L 584.539246 149.69536 
L 586.000232 153.323783 
L 587.278595 155.936404 
L 588.374335 157.721305 
L 589.378763 158.973551 
L 590.29188 159.788838 
L 591.113684 160.260526 
L 591.935489 160.488193 
L 593.579099 160.758382 
L 594.309592 161.220564 
L 595.131397 161.995974 
L 596.135825 163.270852 
L 597.322877 165.173093 
L 598.783863 167.979323 
L 600.701407 172.190121 
L 607.275846 187.050365 
L 609.010767 190.210296 
L 610.471754 192.433108 
L 611.750117 194.009618 
L 612.937168 195.145917 
L 614.032908 195.905879 
L 615.037336 196.35623 
L 616.041764 196.572181 
L 617.046192 196.558033 
L 618.050621 196.321045 
L 619.14636 195.820285 
L 620.333412 195.011608 
L 621.611775 193.860391 
L 623.072761 192.237214 
L 624.898994 189.845208 
L 627.547032 185.951309 
L 631.016874 180.896672 
L 632.660484 178.887265 
L 633.938847 177.660818 
L 634.943275 176.990204 
L 635.856392 176.647192 
L 636.678197 176.565906 
L 637.317378 176.707491 
L 637.95656 177.076277 
L 638.687053 177.764549 
L 639.691481 179.038523 
L 640.969844 181.011147 
L 642.065584 183.114719 
L 643.161324 185.747658 
L 645.535426 191.704175 
L 645.900673 192.109177 
L 646.174608 192.143789 
L 646.357231 191.984925 
L 646.631166 191.394836 
L 647.726906 188.34439 
L 648.092153 188.091736 
L 648.366088 188.161302 
L 648.731334 188.547041 
L 649.187892 189.440001 
L 649.735762 191.07253 
L 650.374944 193.804079 
L 651.014125 197.660289 
L 652.3838 206.765236 
L 653.114293 209.891245 
L 654.02741 212.75449 
L 655.031838 215.212192 
L 655.944954 216.924149 
L 656.766759 218.029231 
L 657.497252 218.657921 
L 658.136434 218.933612 
L 658.775615 218.954174 
L 659.414797 218.722339 
L 660.053978 218.242569 
L 660.784472 217.398734 
L 661.606276 216.087351 
L 662.519393 214.206495 
L 663.615133 211.411113 
L 664.893496 207.503703 
L 666.445794 202.015898 
L 668.728585 193.025355 
L 672.654986 177.498869 
L 674.389907 171.592929 
L 675.759582 167.664664 
L 676.946633 164.893067 
L 677.951061 163.057967 
L 678.864178 161.821888 
L 679.685983 161.074528 
L 680.416476 160.706324 
L 681.055657 160.61444 
L 681.877462 160.547537 
L 682.699267 160.251906 
L 683.612384 159.668256 
L 684.616812 158.739674 
L 685.712551 157.418807 
L 686.990914 155.526862 
L 688.543212 152.818996 
L 690.64338 148.657493 
L 697.765689 134.111584 
L 699.591922 131.095636 
L 701.14422 128.947707 
L 702.513895 127.410527 
L 703.792258 126.300054 
L 704.979309 125.559647 
L 706.075049 125.128398 
L 707.170789 124.9388 
L 708.266528 124.986925 
L 709.362268 125.26557 
L 710.54932 125.815494 
L 711.827683 126.676933 
L 713.197357 127.880246 
L 714.749655 129.546555 
L 716.6672 131.954223 
L 719.497861 135.926697 
L 723.150327 141.008859 
L 724.885248 143.057815 
L 726.254923 144.345558 
L 727.350663 145.085904 
L 728.355091 145.509792 
L 729.085584 145.614399 
L 729.816077 145.48631 
L 730.729194 145.070656 
L 732.281492 144.08193 
L 733.468543 143.114692 
L 734.564283 141.912809 
L 736.847074 139.225972 
L 737.303632 139.022691 
L 737.668879 139.082549 
L 738.034126 139.436028 
L 738.399372 140.204052 
L 739.129865 141.915479 
L 739.495112 142.186404 
L 739.769047 142.125484 
L 740.134293 141.752718 
L 740.590852 140.880514 
L 741.138722 139.246222 
L 741.686591 136.853401 
L 743.878071 126.085935 
L 745.156434 121.530736 
L 746.526109 117.408929 
L 747.71316 114.483647 
L 748.717588 112.544189 
L 749.630705 111.243765 
L 750.45251 110.467888 
L 751.183003 110.099032 
L 751.822184 110.025286 
L 752.461366 110.182334 
L 753.100547 110.566257 
L 753.831041 111.274875 
L 754.652845 112.400976 
L 755.565962 114.03376 
L 756.661702 116.471233 
L 757.940065 119.877036 
L 759.583674 124.93433 
L 762.231712 133.944925 
L 765.42762 144.631317 
L 767.162541 149.694666 
L 768.623527 153.323196 
L 769.901891 155.93591 
L 770.99763 157.720889 
L 772.002058 158.973206 
L 772.915175 159.788556 
L 773.73698 160.260299 
L 774.558785 160.488022 
L 776.202394 160.758141 
L 776.932887 161.22026 
L 777.754692 161.9956 
L 778.75912 163.270398 
L 779.946172 165.172549 
L 781.407158 167.978677 
L 783.324703 172.189355 
L 789.899141 187.049289 
L 791.634063 190.209165 
L 793.095049 192.431937 
L 794.373412 194.00842 
L 795.560464 195.144696 
L 796.656203 195.904643 
L 797.660631 196.354982 
L 798.66506 196.570924 
L 799.669488 196.556771 
L 800.673916 196.319779 
L 801.769656 195.819019 
L 802.956707 195.010346 
L 804.23507 193.859136 
L 805.696056 192.235971 
L 807.522289 189.843985 
L 810.170327 185.950121 
L 813.64017 180.895527 
L 815.283779 178.886126 
L 816.562142 177.659669 
L 817.566571 176.989034 
L 818.479687 176.64599 
L 819.301492 176.564663 
L 819.940673 176.7062 
L 820.579855 177.074929 
L 821.310348 177.76313 
L 822.314776 179.037009 
L 823.593139 181.009496 
L 824.688879 183.112918 
L 825.784619 185.745685 
L 828.158722 191.701961 
L 828.523968 192.106981 
L 828.797903 192.141632 
L 828.980527 191.98281 
L 829.254461 191.392801 
L 830.350201 188.342336 
L 830.715448 188.089629 
L 830.989383 188.159155 
L 831.354629 188.544839 
L 831.811188 189.437727 
L 832.359058 191.070158 
L 832.998239 193.801567 
L 833.637421 197.657599 
L 835.007095 206.762401 
L 835.737588 209.888407 
L 836.650705 212.751648 
L 837.655133 215.209357 
L 838.56825 216.921338 
L 839.390054 218.026456 
L 840.120548 218.655188 
L 840.759729 218.930921 
L 841.398911 218.951531 
L 842.038092 218.719749 
L 842.677274 218.240037 
L 843.407767 217.396273 
L 844.229572 216.084974 
L 845.142688 214.204217 
L 846.238428 211.40896 
L 847.516791 207.5017 
L 849.069089 202.014082 
L 851.35188 193.023814 
L 855.278281 177.497791 
L 857.013202 171.592048 
L 858.382877 167.663938 
L 859.569929 164.892473 
L 860.574357 163.057484 
L 861.487473 161.821507 
L 862.309278 161.074237 
L 863.039771 160.706113 
L 863.678953 160.614299 
L 864.500757 160.547344 
L 865.322562 160.251655 
L 866.235679 159.667943 
L 867.240107 158.739295 
L 868.335847 157.41836 
L 869.61421 155.526339 
L 871.166508 152.818387 
L 873.266676 148.656778 
L 880.388984 134.110597 
L 882.215217 131.094601 
L 883.767515 128.946638 
L 885.13719 127.409433 
L 886.415553 126.298941 
L 887.602604 125.558519 
L 888.698344 125.12726 
L 889.794084 124.937655 
L 890.889824 124.985776 
L 891.985563 125.264419 
L 893.172615 125.814344 
L 894.450978 126.675787 
L 895.820653 127.879108 
L 897.372951 129.54543 
L 899.290495 131.953118 
L 902.121156 135.925629 
L 905.773622 141.007834 
L 907.508544 143.056799 
L 908.878218 144.344536 
L 909.973958 145.084865 
L 910.978386 145.508725 
L 911.708879 145.613296 
L 912.439372 145.485165 
L 913.352489 145.06946 
L 914.904787 144.080649 
L 916.091838 143.113323 
L 917.187578 141.911342 
L 919.470369 139.224364 
L 919.926928 139.021088 
L 920.292174 139.080967 
L 920.657421 139.43449 
L 921.022667 140.20258 
L 921.753161 141.913992 
L 922.118407 142.184872 
L 922.392342 142.123916 
L 922.757589 141.751098 
L 923.214147 140.878825 
L 923.762017 139.244429 
L 924.309887 136.851478 
L 926.501366 126.083786 
L 927.779729 121.528534 
L 929.149404 117.406702 
L 930.336455 114.481425 
L 931.340884 112.541989 
L 932.254 111.241598 
L 933.075805 110.465761 
L 933.806298 110.096945 
L 934.44548 110.02324 
L 935.084661 110.180332 
L 935.723843 110.564302 
L 936.454336 111.272977 
L 937.276141 112.399145 
L 938.189257 114.032008 
L 939.284997 116.469577 
L 940.56336 119.875495 
L 942.20697 124.932938 
L 944.855007 133.943769 
L 948.050915 144.630435 
L 949.785836 149.693925 
L 951.246823 153.322572 
L 952.525186 155.935386 
L 953.620926 157.720448 
L 954.625354 158.972842 
L 955.53847 159.788261 
L 956.360275 160.260066 
L 957.18208 160.487849 
L 958.825689 160.757892 
L 959.556183 161.21994 
L 960.377988 161.995205 
L 961.382416 163.269914 
L 962.569467 165.171968 
L 964.030453 167.977984 
L 965.947998 172.18853 
L 972.522437 187.04813 
L 974.257358 190.207946 
L 975.718344 192.430676 
L 976.996707 194.007128 
L 978.183759 195.143382 
L 979.279499 195.903311 
L 980.283927 196.353638 
L 981.288355 196.569572 
L 982.292783 196.555413 
L 983.297211 196.318419 
L 984.392951 195.817659 
L 985.580002 195.00899 
L 986.858365 193.857789 
L 988.319352 192.234638 
L 990.145585 189.842676 
L 992.793622 185.948855 
L 996.263465 180.894312 
L 997.907075 178.884922 
L 999.185438 177.658459 
L 1000.189866 176.987805 
L 1001.102982 176.644731 
L 1001.924787 176.563363 
L 1002.563969 176.704855 
L 1003.20315 177.073528 
L 1003.933643 177.761658 
L 1004.938072 179.035441 
L 1006.216435 181.007792 
L 1007.312174 183.111064 
L 1008.407914 185.74366 
L 1010.782017 191.699692 
L 1011.147264 192.104731 
L 1011.421199 192.139419 
L 1011.603822 191.980641 
L 1011.877757 191.39071 
L 1012.973497 188.340232 
L 1013.338743 188.087473 
L 1013.612678 188.156959 
L 1013.977925 188.542589 
L 1014.434483 189.435403 
L 1014.982353 191.067734 
L 1015.621534 193.799 
L 1016.260716 197.65485 
L 1017.630391 206.759505 
L 1018.360884 209.885506 
L 1019.274 212.748739 
L 1020.278428 215.206454 
L 1021.191545 216.918456 
L 1022.01335 218.023608 
L 1022.743843 218.652379 
L 1023.383024 218.928153 
L 1023.631392 218.966373 
L 1023.631392 218.966373 
" style="fill:none;stroke:#ff00ff;stroke-linecap:square;stroke-width:1.5;"/>
   </g>
   <g id="line2d_34">
    <path clip-path="url(#p800cb331c4)" d="M 110.540483 188.394975 
L 112.366716 196.933995 
L 113.645079 201.906032 
L 114.649507 205.002714 
L 115.471312 206.928792 
L 116.201805 208.1503 
L 116.840987 208.828649 
L 117.388857 209.117383 
L 117.936726 209.137329 
L 118.484596 208.892834 
L 119.032466 208.390977 
L 119.671648 207.493175 
L 120.402141 206.079258 
L 121.315257 203.782025 
L 122.410997 200.355725 
L 123.780672 195.276792 
L 125.88084 186.508226 
L 128.802812 174.434633 
L 130.263799 169.30163 
L 131.45085 165.869111 
L 132.455278 163.583637 
L 133.368395 162.049861 
L 134.098888 161.217064 
L 134.73807 160.78433 
L 135.377251 160.63131 
L 136.290368 160.529367 
L 137.020861 160.188824 
L 137.842666 159.541951 
L 138.755782 158.523087 
L 139.851522 156.932368 
L 141.129885 154.653863 
L 142.773495 151.227827 
L 145.512844 144.886137 
L 148.526128 138.067442 
L 150.26105 134.656453 
L 151.722036 132.238971 
L 153.000399 130.530942 
L 154.096139 129.400774 
L 155.100567 128.651231 
L 156.013683 128.214934 
L 156.9268 128.01521 
L 157.839916 128.05202 
L 158.753033 128.322417 
L 159.666149 128.820653 
L 160.670578 129.621721 
L 161.766317 130.780833 
L 163.04468 132.477688 
L 164.505667 134.814076 
L 166.240588 138.029551 
L 168.706002 143.122962 
L 172.99765 152.024413 
L 174.732571 155.093613 
L 176.193558 157.239282 
L 177.380609 158.620651 
L 178.476349 159.57349 
L 179.480777 160.160069 
L 180.393893 160.45317 
L 181.30701 160.526255 
L 182.128815 160.602013 
L 183.041931 160.91298 
L 184.411606 161.65731 
L 186.055216 162.521055 
L 186.87702 162.728864 
L 187.698825 162.708786 
L 188.977188 162.411084 
L 190.16424 161.942186 
L 192.720966 160.699682 
L 193.816706 160.575193 
L 194.63851 160.612838 
L 195.369004 160.662926 
L 196.82999 160.474603 
L 197.195237 160.147357 
L 197.651795 159.370393 
L 198.199665 157.875803 
L 199.112781 154.563913 
L 200.756391 147.644094 
L 202.765247 138.098062 
L 205.13935 127.043716 
L 206.417713 122.0801 
L 207.513453 118.696186 
L 208.426569 116.594888 
L 209.157062 115.420071 
L 209.796244 114.772203 
L 210.344114 114.50066 
L 210.891984 114.488505 
L 211.439854 114.730252 
L 211.987723 115.217699 
L 212.626905 116.08255 
L 213.44871 117.630591 
L 214.361826 119.865893 
L 215.457566 123.150111 
L 216.918552 128.28836 
L 219.657902 138.973362 
L 221.849381 147.127741 
L 223.310368 151.795715 
L 224.588731 155.161418 
L 225.684471 157.42807 
L 226.597587 158.849439 
L 227.419392 159.755125 
L 228.149885 160.262326 
L 228.880378 160.493143 
L 230.158741 160.736068 
L 230.797923 161.213278 
L 231.528416 162.04768 
L 232.441533 163.47398 
L 233.537272 165.656712 
L 234.906947 168.93479 
L 236.915803 174.399838 
L 240.659581 184.648019 
L 242.30319 188.460788 
L 243.672865 191.088799 
L 244.859917 192.889665 
L 245.864345 194.03568 
L 246.777461 194.762177 
L 247.599266 195.153112 
L 248.421071 195.29303 
L 249.242876 195.183138 
L 250.064681 194.827519 
L 250.886485 194.233027 
L 251.799602 193.303966 
L 252.895342 191.839158 
L 254.082393 189.861242 
L 255.543379 186.948725 
L 257.369612 182.74214 
L 260.656832 174.442118 
L 263.030935 168.746418 
L 264.583233 165.563689 
L 265.861596 163.432738 
L 266.957335 162.04027 
L 267.870452 161.225811 
L 268.692257 160.781113 
L 269.42275 160.62253 
L 270.975048 160.44594 
L 271.979476 160.027646 
L 273.257839 159.239798 
L 275.54063 157.78452 
L 276.453747 157.485854 
L 277.18424 157.479497 
L 278.006045 157.707933 
L 279.193096 158.287656 
L 280.471459 159.150481 
L 282.023757 160.226151 
L 282.75425 160.477089 
L 284.763107 160.701582 
L 286.315405 160.662068 
L 286.863275 160.894263 
L 287.411144 161.402904 
L 287.867703 162.124047 
L 288.415573 163.477132 
L 288.963442 165.571231 
L 289.602624 169.089201 
L 291.428857 179.594806 
L 294.168206 193.257679 
L 295.629193 199.559523 
L 296.724932 203.419378 
L 297.638049 205.938736 
L 298.459854 207.608256 
L 299.190347 208.592841 
L 299.738217 209.016771 
L 300.286087 209.170789 
L 300.833957 209.057816 
L 301.381827 208.683586 
L 302.021008 207.928098 
L 302.751501 206.665956 
L 303.573306 204.777054 
L 304.577734 201.872891 
L 305.856097 197.405008 
L 307.591019 190.411766 
L 311.882666 172.743337 
L 313.252341 168.171759 
L 314.34808 165.18988 
L 315.352509 163.069955 
L 316.174313 161.810046 
L 316.904807 161.066118 
L 317.543988 160.71248 
L 318.18317 160.634637 
L 318.913663 160.529817 
L 319.644156 160.189744 
L 320.465961 159.543383 
L 321.379077 158.525064 
L 322.474817 156.934968 
L 323.75318 154.657142 
L 325.39679 151.231899 
L 328.136139 144.891332 
L 331.149424 138.073582 
L 332.884345 134.663002 
L 334.345331 132.245791 
L 335.623694 130.537944 
L 336.719434 129.407893 
L 337.723862 128.658425 
L 338.636979 128.22217 
L 339.550095 128.022464 
L 340.463212 128.059267 
L 341.376328 128.329633 
L 342.289445 128.827815 
L 343.293873 129.628797 
L 344.389613 130.787783 
L 345.667976 132.484449 
L 347.128962 134.820567 
L 348.863883 138.035648 
L 351.329298 143.128364 
L 355.620945 152.028252 
L 357.355867 155.096706 
L 358.816853 157.241704 
L 360.003904 158.622507 
L 361.099644 159.57481 
L 362.104072 160.160892 
L 363.017189 160.453543 
L 363.930305 160.526204 
L 364.75211 160.602465 
L 365.665226 160.913982 
L 367.034901 161.659004 
L 368.678511 162.523276 
L 369.500316 162.731183 
L 370.32212 162.711082 
L 371.600484 162.413202 
L 372.787535 161.943992 
L 375.344261 160.700154 
L 376.440001 160.575321 
L 377.261806 160.613208 
L 377.992299 160.663293 
L 379.453285 160.475173 
L 379.818532 160.14832 
L 380.27509 159.371933 
L 380.82296 157.878023 
L 381.736076 154.567044 
L 383.379686 147.648489 
L 385.388542 138.10379 
L 387.762645 127.05069 
L 389.041008 122.087583 
L 390.136748 118.704009 
L 391.049864 116.602925 
L 391.780358 115.428235 
L 392.419539 114.780446 
L 392.967409 114.508946 
L 393.515279 114.496811 
L 394.063149 114.738557 
L 394.611019 115.225982 
L 395.2502 116.090779 
L 396.072005 117.63871 
L 396.985122 119.873837 
L 398.080861 123.157773 
L 399.541848 128.295538 
L 402.281197 138.979331 
L 404.472677 147.132513 
L 405.933663 151.799602 
L 407.212026 155.164488 
L 408.307766 157.430417 
L 409.220882 158.851172 
L 410.042687 159.7563 
L 410.77318 160.263002 
L 411.503674 160.493321 
L 412.782037 160.736843 
L 413.421218 161.214627 
L 414.151711 162.049656 
L 415.064828 163.476698 
L 416.160568 165.660257 
L 417.530242 168.939273 
L 419.539099 174.405508 
L 423.282876 184.655332 
L 424.926486 188.468602 
L 426.29616 191.096935 
L 427.483212 192.89801 
L 428.48764 194.044155 
L 429.400756 194.770732 
L 430.222561 195.161708 
L 431.044366 195.30164 
L 431.866171 195.191733 
L 432.687976 194.836073 
L 433.509781 194.241512 
L 434.422897 193.312343 
L 435.518637 191.847361 
L 436.705688 189.869203 
L 438.166675 186.956313 
L 439.992908 182.749146 
L 443.280127 174.447749 
L 445.65423 168.750801 
L 447.206528 165.567145 
L 448.484891 163.435371 
L 449.580631 162.042158 
L 450.493747 161.227055 
L 451.315552 160.781763 
L 452.046045 160.622644 
L 453.598343 160.446495 
L 454.602771 160.028659 
L 455.881134 159.241331 
L 458.163926 157.786688 
L 459.077042 157.48812 
L 459.807535 157.481753 
L 460.62934 157.710094 
L 461.816391 158.289576 
L 463.094754 159.151971 
L 464.647052 160.226825 
L 465.377546 160.477327 
L 467.386402 160.702039 
L 468.9387 160.662582 
L 469.48657 160.895143 
L 470.03444 161.404269 
L 470.490998 162.125897 
L 471.038868 163.479668 
L 471.586738 165.5746 
L 472.225919 169.093535 
L 474.052152 179.600676 
L 476.791502 193.265216 
L 478.252488 199.567741 
L 479.348228 203.428001 
L 480.261344 205.947628 
L 481.083149 207.617336 
L 481.813642 208.602044 
L 482.361512 209.026039 
L 482.909382 209.180099 
L 483.457252 209.067144 
L 484.005122 208.692909 
L 484.644303 207.937386 
L 485.374797 206.675165 
L 486.196601 204.786126 
L 487.201029 201.881729 
L 488.479393 197.413441 
L 490.214314 190.419471 
L 494.505961 172.748455 
L 495.875636 168.175853 
L 496.971376 165.193099 
L 497.975804 163.072333 
L 498.797609 161.811714 
L 499.528102 161.06714 
L 500.167283 160.712926 
L 500.806465 160.634611 
L 501.536958 160.530233 
L 502.267451 160.190595 
L 503.089256 159.544708 
L 504.002373 158.526896 
L 505.098112 156.937377 
L 506.376475 154.660179 
L 508.020085 151.235673 
L 510.668123 145.111186 
L 513.772719 138.079272 
L 515.50764 134.669072 
L 516.968627 132.252112 
L 518.24699 130.544434 
L 519.342729 129.41449 
L 520.347158 128.665092 
L 521.260274 128.228876 
L 522.17339 128.029186 
L 523.086507 128.065983 
L 523.999623 128.336322 
L 524.91274 128.834454 
L 525.917168 129.635355 
L 527.012908 130.794224 
L 528.291271 132.490716 
L 529.752257 134.826583 
L 531.487179 138.041298 
L 533.952593 143.13337 
L 538.24424 152.03181 
L 539.979162 155.099572 
L 541.440148 157.243949 
L 542.6272 158.624226 
L 543.722939 159.576031 
L 544.727367 160.161653 
L 545.640484 160.453888 
L 546.5536 160.526156 
L 547.375405 160.602883 
L 548.288522 160.914911 
L 549.658196 161.660574 
L 551.301806 162.525336 
L 552.123611 162.733333 
L 552.945416 162.713211 
L 554.223779 162.415166 
L 555.41083 161.945667 
L 557.967556 160.700592 
L 559.063296 160.575439 
L 559.885101 160.61355 
L 560.615594 160.663634 
L 562.076581 160.475699 
L 562.441827 160.149212 
L 562.898385 159.373358 
L 563.446255 157.880079 
L 564.359372 154.569945 
L 566.002981 147.652561 
L 568.011838 138.109097 
L 570.38594 127.057155 
L 571.664304 122.094519 
L 572.760043 118.71126 
L 573.67316 116.610376 
L 574.403653 115.435803 
L 575.042834 114.788086 
L 575.590704 114.516626 
L 576.138574 114.504511 
L 576.686444 114.746255 
L 577.234314 115.233659 
L 577.873496 116.098406 
L 578.6953 117.646235 
L 579.608417 119.8812 
L 580.704157 123.164876 
L 582.165143 128.302191 
L 584.904492 138.984863 
L 587.095972 147.136934 
L 588.556958 151.803203 
L 589.835321 155.167333 
L 590.931061 157.432591 
L 591.844178 158.852777 
L 592.665982 159.757387 
L 593.396476 160.263627 
L 594.126969 160.493483 
L 595.405332 160.737561 
L 596.044513 161.215877 
L 596.775007 162.051488 
L 597.688123 163.479218 
L 598.783863 165.663544 
L 600.153538 168.943429 
L 602.162394 174.410765 
L 605.906171 184.662111 
L 607.549781 188.475846 
L 608.919456 191.104476 
L 610.106507 192.905746 
L 611.110935 194.052011 
L 612.024052 194.778661 
L 612.845857 195.169676 
L 613.667661 195.309621 
L 614.489466 195.199701 
L 615.311271 194.844002 
L 616.133076 194.249377 
L 617.046192 193.320107 
L 618.141932 191.854965 
L 619.328984 189.876584 
L 620.78997 186.963348 
L 622.616203 182.75564 
L 625.903422 174.452969 
L 628.277525 168.754864 
L 629.829823 165.57035 
L 631.108186 163.437812 
L 632.203926 162.043909 
L 633.117042 161.228208 
L 633.938847 160.782366 
L 634.66934 160.622751 
L 636.221638 160.447008 
L 637.226067 160.029597 
L 638.50443 159.242752 
L 640.787221 157.788696 
L 641.700337 157.490218 
L 642.43083 157.483842 
L 643.252635 157.712096 
L 644.439687 158.291353 
L 645.71805 159.153351 
L 647.270348 160.227448 
L 648.000841 160.477545 
L 650.009697 160.702462 
L 651.561995 160.663059 
L 652.109865 160.895959 
L 652.657735 161.405533 
L 653.114293 162.12761 
L 653.662163 163.482019 
L 654.210033 165.577722 
L 654.849215 169.097551 
L 656.675447 179.606116 
L 659.414797 193.272202 
L 660.875783 199.575358 
L 661.971523 203.435994 
L 662.88464 205.955871 
L 663.706444 207.625752 
L 664.436938 208.610574 
L 664.984807 209.034629 
L 665.532677 209.188728 
L 666.080547 209.07579 
L 666.628417 208.70155 
L 667.267599 207.945995 
L 667.998092 206.683701 
L 668.819897 204.794536 
L 669.824325 201.889921 
L 671.102688 197.421258 
L 672.837609 190.426613 
L 677.129257 172.753199 
L 678.498931 168.179647 
L 679.594671 165.196082 
L 680.599099 163.074538 
L 681.420904 161.813261 
L 682.151397 161.068087 
L 682.790579 160.71334 
L 683.42976 160.634585 
L 684.160253 160.530618 
L 684.890747 160.191382 
L 685.712551 159.545935 
L 686.625668 158.528592 
L 687.721408 156.939608 
L 688.999771 154.662993 
L 690.64338 151.239169 
L 693.291418 145.115618 
L 696.396014 138.084545 
L 698.130935 134.674697 
L 699.591922 132.257969 
L 700.870285 130.550448 
L 701.966025 129.420604 
L 702.970453 128.67127 
L 703.883569 128.23509 
L 704.796686 128.035416 
L 705.709802 128.072207 
L 706.622919 128.342519 
L 707.536035 128.840605 
L 708.540463 129.641432 
L 709.636203 130.800193 
L 710.914566 132.496522 
L 712.375553 134.832157 
L 714.110474 138.046533 
L 716.575888 143.138009 
L 720.867536 152.035106 
L 722.602457 155.102227 
L 724.063443 157.246028 
L 725.250495 158.625817 
L 726.346235 159.577162 
L 727.350663 160.162358 
L 728.263779 160.454205 
L 729.176896 160.526112 
L 729.998701 160.603272 
L 730.911817 160.915773 
L 732.281492 161.66203 
L 733.925101 162.527245 
L 734.746906 162.735326 
L 735.568711 162.715184 
L 736.847074 162.416986 
L 738.034126 161.947219 
L 740.590852 160.700998 
L 741.686591 160.575548 
L 742.508396 160.613868 
L 743.238889 160.663949 
L 744.699876 160.476185 
L 745.065122 160.150036 
L 745.521681 159.374677 
L 746.069551 157.881983 
L 746.982667 154.572631 
L 748.626277 147.656334 
L 750.635133 138.114015 
L 753.009236 127.063145 
L 754.287599 122.100946 
L 755.383339 118.717979 
L 756.296455 116.61728 
L 757.026948 115.442816 
L 757.66613 114.795167 
L 758.214 114.523743 
L 758.76187 114.511646 
L 759.309739 114.753389 
L 759.857609 115.240773 
L 760.496791 116.105475 
L 761.318596 117.653209 
L 762.231712 119.888023 
L 763.327452 123.171458 
L 764.788438 128.308356 
L 767.527788 138.989988 
L 769.719267 147.141031 
L 771.180254 151.80654 
L 772.458617 155.169968 
L 773.554356 157.434605 
L 774.467473 158.854263 
L 775.289278 159.758393 
L 776.019771 160.264205 
L 776.750264 160.493632 
L 778.028627 160.738227 
L 778.667809 161.217036 
L 779.398302 162.053187 
L 780.311418 163.481554 
L 781.407158 165.66659 
L 782.776833 168.947281 
L 784.785689 174.415636 
L 788.529467 184.668392 
L 790.173076 188.482558 
L 791.542751 191.111465 
L 792.729802 192.912915 
L 793.734231 194.05929 
L 794.647347 194.786009 
L 795.469152 195.17706 
L 796.290957 195.317017 
L 797.112762 195.207084 
L 797.934566 194.85135 
L 798.756371 194.256665 
L 799.669488 193.327303 
L 800.765227 191.862011 
L 801.952279 189.883423 
L 803.413265 186.969867 
L 805.239498 182.761658 
L 808.526717 174.457806 
L 810.90082 168.758629 
L 812.453118 165.573319 
L 813.731481 163.440074 
L 814.827221 162.045531 
L 815.740338 161.229278 
L 816.562142 160.782925 
L 817.292636 160.62285 
L 818.844934 160.447482 
L 819.849362 160.030465 
L 821.127725 159.244066 
L 823.410516 157.790555 
L 824.323633 157.492161 
L 825.054126 157.485777 
L 825.875931 157.71395 
L 827.062982 158.292998 
L 828.341345 159.154628 
L 829.893643 160.228025 
L 830.624136 160.477746 
L 832.632992 160.702853 
L 834.18529 160.663501 
L 834.73316 160.896715 
L 835.28103 161.406704 
L 835.737588 162.129197 
L 836.285458 163.484195 
L 836.833328 165.580615 
L 837.47251 169.101271 
L 839.298743 179.611155 
L 842.038092 193.278674 
L 843.499079 199.582414 
L 844.594818 203.4434 
L 845.507935 205.963507 
L 846.32974 207.63355 
L 847.060233 208.618478 
L 847.608103 209.042589 
L 848.155973 209.196724 
L 848.703842 209.083801 
L 849.251712 208.709557 
L 849.890894 207.953972 
L 850.621387 206.691611 
L 851.443192 204.802328 
L 852.44762 201.897511 
L 853.725983 197.428501 
L 855.460904 190.433231 
L 859.752552 172.757594 
L 861.122227 168.183164 
L 862.217966 165.198847 
L 863.222394 163.076581 
L 864.044199 161.814694 
L 864.774692 161.068965 
L 865.413874 160.713724 
L 866.053055 160.634559 
L 866.783549 160.530972 
L 867.514042 160.192111 
L 868.335847 159.547071 
L 869.248963 158.530162 
L 870.344703 156.941674 
L 871.623066 154.665599 
L 873.266676 151.242407 
L 875.914713 145.119723 
L 879.019309 138.089429 
L 880.754231 134.679907 
L 882.215217 132.263394 
L 883.49358 130.556018 
L 884.58932 129.426267 
L 885.593748 128.676993 
L 886.506865 128.240846 
L 887.419981 128.041186 
L 888.333098 128.077972 
L 889.246214 128.34826 
L 890.15933 128.846303 
L 891.163759 129.647061 
L 892.259498 130.805721 
L 893.537861 132.5019 
L 894.998848 134.837321 
L 896.733769 138.051383 
L 899.199184 143.142305 
L 903.490831 152.038158 
L 905.225752 155.104685 
L 906.686739 157.247952 
L 907.87379 158.62729 
L 908.96953 159.578208 
L 909.973958 160.163009 
L 910.887074 160.454498 
L 911.800191 160.52607 
L 912.621996 160.603632 
L 913.535112 160.916572 
L 914.904787 161.663378 
L 916.548397 162.529013 
L 917.370201 162.737172 
L 918.192006 162.717012 
L 919.470369 162.418672 
L 920.657421 161.948657 
L 923.214147 160.701375 
L 924.309887 160.575649 
L 925.131692 160.614161 
L 925.862185 160.664241 
L 927.323171 160.476635 
L 927.688418 160.150798 
L 928.144976 159.375898 
L 928.692846 157.883745 
L 929.605962 154.575118 
L 931.249572 147.659827 
L 933.258428 138.11857 
L 935.632531 127.068694 
L 936.910894 122.106899 
L 938.006634 118.724204 
L 938.91975 116.623675 
L 939.650243 115.449313 
L 940.289425 114.801726 
L 940.837295 114.530336 
L 941.385165 114.518255 
L 941.933035 114.759998 
L 942.480905 115.247364 
L 943.120086 116.112022 
L 943.941891 117.659669 
L 944.855007 119.894343 
L 945.950747 123.177555 
L 947.411734 128.314067 
L 950.151083 138.994736 
L 952.342563 147.144825 
L 953.803549 151.80963 
L 955.081912 155.172408 
L 956.177652 157.436469 
L 957.090768 158.855638 
L 957.912573 159.759324 
L 958.643066 160.264739 
L 959.373559 160.49377 
L 960.651922 160.738844 
L 961.291104 161.218109 
L 962.021597 162.05476 
L 962.934714 163.483717 
L 964.030453 165.669412 
L 965.400128 168.950849 
L 967.408984 174.420148 
L 971.152762 184.674212 
L 972.796372 188.488776 
L 974.166046 191.117939 
L 975.353098 192.919556 
L 976.357526 194.066034 
L 977.270642 194.792817 
L 978.092447 195.183901 
L 978.914252 195.323868 
L 979.736057 195.213924 
L 980.557862 194.858156 
L 981.379666 194.263417 
L 982.292783 193.333968 
L 983.388523 191.868539 
L 984.575574 189.889758 
L 986.03656 186.975905 
L 987.862793 182.767233 
L 991.150013 174.462287 
L 993.524116 168.762117 
L 995.076414 165.57607 
L 996.354777 163.442169 
L 997.450516 162.047034 
L 998.363633 161.230268 
L 999.185438 160.783443 
L 999.915931 160.622941 
L 1001.468229 160.44792 
L 1002.472657 160.031267 
L 1003.75102 159.245283 
L 1006.033811 157.792276 
L 1006.946928 157.49396 
L 1007.677421 157.487568 
L 1008.499226 157.715666 
L 1009.686277 158.294521 
L 1010.96464 159.15581 
L 1012.516938 160.228557 
L 1013.247431 160.477932 
L 1015.256288 160.703216 
L 1016.808586 160.663909 
L 1017.356456 160.897414 
L 1017.904326 161.407789 
L 1018.360884 162.130667 
L 1018.908754 163.486211 
L 1019.456624 165.583293 
L 1020.095805 169.104715 
L 1021.922038 179.615822 
L 1023.631392 188.300453 
L 1023.631392 188.300453 
" style="fill:none;stroke:#add8e6;stroke-linecap:square;stroke-width:1.5;"/>
   </g>
   <g id="patch_3">
    <path d="M 64.885938 333.36 
L 64.885938 7.2 
" style="fill:none;stroke:#000000;stroke-linecap:square;stroke-linejoin:miter;stroke-width:0.8;"/>
   </g>
   <g id="patch_4">
    <path d="M 1069.285938 333.36 
L 1069.285938 7.2 
" style="fill:none;stroke:#000000;stroke-linecap:square;stroke-linejoin:miter;stroke-width:0.8;"/>
   </g>
   <g id="patch_5">
    <path d="M 64.885937 333.36 
L 1069.285937 333.36 
" style="fill:none;stroke:#000000;stroke-linecap:square;stroke-linejoin:miter;stroke-width:0.8;"/>
   </g>
   <g id="patch_6">
    <path d="M 64.885937 7.2 
L 1069.285937 7.2 
" style="fill:none;stroke:#000000;stroke-linecap:square;stroke-linejoin:miter;stroke-width:0.8;"/>
   </g>
   <g id="text_18">
    <!-- UBE Screamer -->
    <g transform="translate(524.06875 392.592)scale(0.12 -0.12)">
     <defs>
      <path d="M 8.6875 72.90625 
L 18.609375 72.90625 
L 18.609375 28.609375 
Q 18.609375 16.890625 22.84375 11.734375 
Q 27.09375 6.59375 36.625 6.59375 
Q 46.09375 6.59375 50.34375 11.734375 
Q 54.59375 16.890625 54.59375 28.609375 
L 54.59375 72.90625 
L 64.5 72.90625 
L 64.5 27.390625 
Q 64.5 13.140625 57.4375 5.859375 
Q 50.390625 -1.421875 36.625 -1.421875 
Q 22.796875 -1.421875 15.734375 5.859375 
Q 8.6875 13.140625 8.6875 27.390625 
z
" id="DejaVuSans-85"/>
      <path d="M 19.671875 34.8125 
L 19.671875 8.109375 
L 35.5 8.109375 
Q 43.453125 8.109375 47.28125 11.40625 
Q 51.125 14.703125 51.125 21.484375 
Q 51.125 28.328125 47.28125 31.5625 
Q 43.453125 34.8125 35.5 34.8125 
z
M 19.671875 64.796875 
L 19.671875 42.828125 
L 34.28125 42.828125 
Q 41.5 42.828125 45.03125 45.53125 
Q 48.578125 48.25 48.578125 53.8125 
Q 48.578125 59.328125 45.03125 62.0625 
Q 41.5 64.796875 34.28125 64.796875 
z
M 9.8125 72.90625 
L 35.015625 72.90625 
Q 46.296875 72.90625 52.390625 68.21875 
Q 58.5 63.53125 58.5 54.890625 
Q 58.5 48.1875 55.375 44.234375 
Q 52.25 40.28125 46.1875 39.3125 
Q 53.46875 37.75 57.5 32.78125 
Q 61.53125 27.828125 61.53125 20.40625 
Q 61.53125 10.640625 54.890625 5.3125 
Q 48.25 0 35.984375 0 
L 9.8125 0 
z
" id="DejaVuSans-66"/>
      <path d="M 9.8125 72.90625 
L 55.90625 72.90625 
L 55.90625 64.59375 
L 19.671875 64.59375 
L 19.671875 43.015625 
L 54.390625 43.015625 
L 54.390625 34.71875 
L 19.671875 34.71875 
L 19.671875 8.296875 
L 56.78125 8.296875 
L 56.78125 0 
L 9.8125 0 
z
" id="DejaVuSans-69"/>
      <path d="M 53.515625 70.515625 
L 53.515625 60.890625 
Q 47.90625 63.578125 42.921875 64.890625 
Q 37.9375 66.21875 33.296875 66.21875 
Q 25.25 66.21875 20.875 63.09375 
Q 16.5 59.96875 16.5 54.203125 
Q 16.5 49.359375 19.40625 46.890625 
Q 22.3125 44.4375 30.421875 42.921875 
L 36.375 41.703125 
Q 47.40625 39.59375 52.65625 34.296875 
Q 57.90625 29 57.90625 20.125 
Q 57.90625 9.515625 50.796875 4.046875 
Q 43.703125 -1.421875 29.984375 -1.421875 
Q 24.8125 -1.421875 18.96875 -0.25 
Q 13.140625 0.921875 6.890625 3.21875 
L 6.890625 13.375 
Q 12.890625 10.015625 18.65625 8.296875 
Q 24.421875 6.59375 29.984375 6.59375 
Q 38.421875 6.59375 43.015625 9.90625 
Q 47.609375 13.234375 47.609375 19.390625 
Q 47.609375 24.75 44.3125 27.78125 
Q 41.015625 30.8125 33.5 32.328125 
L 27.484375 33.5 
Q 16.453125 35.6875 11.515625 40.375 
Q 6.59375 45.0625 6.59375 53.421875 
Q 6.59375 63.09375 13.40625 68.65625 
Q 20.21875 74.21875 32.171875 74.21875 
Q 37.3125 74.21875 42.625 73.28125 
Q 47.953125 72.359375 53.515625 70.515625 
z
" id="DejaVuSans-83"/>
      <path d="M 48.78125 52.59375 
L 48.78125 44.1875 
Q 44.96875 46.296875 41.140625 47.34375 
Q 37.3125 48.390625 33.40625 48.390625 
Q 24.65625 48.390625 19.8125 42.84375 
Q 14.984375 37.3125 14.984375 27.296875 
Q 14.984375 17.28125 19.8125 11.734375 
Q 24.65625 6.203125 33.40625 6.203125 
Q 37.3125 6.203125 41.140625 7.25 
Q 44.96875 8.296875 48.78125 10.40625 
L 48.78125 2.09375 
Q 45.015625 0.34375 40.984375 -0.53125 
Q 36.96875 -1.421875 32.421875 -1.421875 
Q 20.0625 -1.421875 12.78125 6.34375 
Q 5.515625 14.109375 5.515625 27.296875 
Q 5.515625 40.671875 12.859375 48.328125 
Q 20.21875 56 33.015625 56 
Q 37.15625 56 41.109375 55.140625 
Q 45.0625 54.296875 48.78125 52.59375 
z
" id="DejaVuSans-99"/>
      <path d="M 41.109375 46.296875 
Q 39.59375 47.171875 37.8125 47.578125 
Q 36.03125 48 33.890625 48 
Q 26.265625 48 22.1875 43.046875 
Q 18.109375 38.09375 18.109375 28.8125 
L 18.109375 0 
L 9.078125 0 
L 9.078125 54.6875 
L 18.109375 54.6875 
L 18.109375 46.1875 
Q 20.953125 51.171875 25.484375 53.578125 
Q 30.03125 56 36.53125 56 
Q 37.453125 56 38.578125 55.875 
Q 39.703125 55.765625 41.0625 55.515625 
z
" id="DejaVuSans-114"/>
      <path d="M 56.203125 29.59375 
L 56.203125 25.203125 
L 14.890625 25.203125 
Q 15.484375 15.921875 20.484375 11.0625 
Q 25.484375 6.203125 34.421875 6.203125 
Q 39.59375 6.203125 44.453125 7.46875 
Q 49.3125 8.734375 54.109375 11.28125 
L 54.109375 2.78125 
Q 49.265625 0.734375 44.1875 -0.34375 
Q 39.109375 -1.421875 33.890625 -1.421875 
Q 20.796875 -1.421875 13.15625 6.1875 
Q 5.515625 13.8125 5.515625 26.8125 
Q 5.515625 40.234375 12.765625 48.109375 
Q 20.015625 56 32.328125 56 
Q 43.359375 56 49.78125 48.890625 
Q 56.203125 41.796875 56.203125 29.59375 
z
M 47.21875 32.234375 
Q 47.125 39.59375 43.09375 43.984375 
Q 39.0625 48.390625 32.421875 48.390625 
Q 24.90625 48.390625 20.390625 44.140625 
Q 15.875 39.890625 15.1875 32.171875 
z
" id="DejaVuSans-101"/>
      <path d="M 34.28125 27.484375 
Q 23.390625 27.484375 19.1875 25 
Q 14.984375 22.515625 14.984375 16.5 
Q 14.984375 11.71875 18.140625 8.90625 
Q 21.296875 6.109375 26.703125 6.109375 
Q 34.1875 6.109375 38.703125 11.40625 
Q 43.21875 16.703125 43.21875 25.484375 
L 43.21875 27.484375 
z
M 52.203125 31.203125 
L 52.203125 0 
L 43.21875 0 
L 43.21875 8.296875 
Q 40.140625 3.328125 35.546875 0.953125 
Q 30.953125 -1.421875 24.3125 -1.421875 
Q 15.921875 -1.421875 10.953125 3.296875 
Q 6 8.015625 6 15.921875 
Q 6 25.140625 12.171875 29.828125 
Q 18.359375 34.515625 30.609375 34.515625 
L 43.21875 34.515625 
L 43.21875 35.40625 
Q 43.21875 41.609375 39.140625 45 
Q 35.0625 48.390625 27.6875 48.390625 
Q 23 48.390625 18.546875 47.265625 
Q 14.109375 46.140625 10.015625 43.890625 
L 10.015625 52.203125 
Q 14.9375 54.109375 19.578125 55.046875 
Q 24.21875 56 28.609375 56 
Q 40.484375 56 46.34375 49.84375 
Q 52.203125 43.703125 52.203125 31.203125 
z
" id="DejaVuSans-97"/>
     </defs>
     <use xlink:href="#DejaVuSans-85"/>
     <use x="73.193359" xlink:href="#DejaVuSans-66"/>
     <use x="141.796875" xlink:href="#DejaVuSans-69"/>
     <use x="204.980469" xlink:href="#DejaVuSans-32"/>
     <use x="236.767578" xlink:href="#DejaVuSans-83"/>
     <use x="300.244141" xlink:href="#DejaVuSans-99"/>
     <use x="355.224609" xlink:href="#DejaVuSans-114"/>
     <use x="394.087891" xlink:href="#DejaVuSans-101"/>
     <use x="455.611328" xlink:href="#DejaVuSans-97"/>
     <use x="516.890625" xlink:href="#DejaVuSans-109"/>
     <use x="614.302734" xlink:href="#DejaVuSans-101"/>
     <use x="675.826172" xlink:href="#DejaVuSans-114"/>
    </g>
   </g>
  </g>
 </g>
 <defs>
  <clipPath id="p800cb331c4">
   <rect height="326.16" width="1004.4" x="64.885938" y="7.2"/>
  </clipPath>
 </defs>
</svg>
