<?xml version="1.0" encoding="utf-8" standalone="no"?>
<!DOCTYPE svg PUBLIC "-//W3C//DTD SVG 1.1//EN"
  "http://www.w3.org/Graphics/SVG/1.1/DTD/svg11.dtd">
<!-- Created with matplotlib (https://matplotlib.org/) -->
<svg height="276.35625pt" version="1.1" viewBox="0 0 568.457813 276.35625" width="568.457813pt" xmlns="http://www.w3.org/2000/svg" xmlns:xlink="http://www.w3.org/1999/xlink">
 <metadata>
  <rdf:RDF xmlns:cc="http://creativecommons.org/ns#" xmlns:dc="http://purl.org/dc/elements/1.1/" xmlns:rdf="http://www.w3.org/1999/02/22-rdf-syntax-ns#">
   <cc:Work>
    <dc:type rdf:resource="http://purl.org/dc/dcmitype/StillImage"/>
    <dc:date>2021-04-04T07:52:41.334510</dc:date>
    <dc:format>image/svg+xml</dc:format>
    <dc:creator>
     <cc:Agent>
      <dc:title>Matplotlib v3.3.4, https://matplotlib.org/</dc:title>
     </cc:Agent>
    </dc:creator>
   </cc:Work>
  </rdf:RDF>
 </metadata>
 <defs>
  <style type="text/css">*{stroke-linecap:butt;stroke-linejoin:round;}</style>
 </defs>
 <g id="figure_1">
  <g id="patch_1">
   <path d="M 0 276.35625 
L 568.457813 276.35625 
L 568.457813 0 
L 0 0 
z
" style="fill:none;"/>
  </g>
  <g id="axes_1">
   <g id="patch_2">
    <path d="M 48.982813 101.521374 
L 561.257812 101.521374 
L 561.257812 7.2 
L 48.982813 7.2 
z
" style="fill:#ffffff;"/>
   </g>
   <g id="matplotlib.axis_1">
    <g id="xtick_1">
     <g id="line2d_1">
      <defs>
       <path d="M 0 0 
L 0 3.5 
" id="m69bd6661e5" style="stroke:#000000;stroke-width:0.8;"/>
      </defs>
      <g>
       <use style="stroke:#000000;stroke-width:0.8;" x="72.26804" xlink:href="#m69bd6661e5" y="101.521374"/>
      </g>
     </g>
     <g id="text_1">
      <!-- 0.0 -->
      <g transform="translate(64.316477 116.119812)scale(0.1 -0.1)">
       <defs>
        <path d="M 31.78125 66.40625 
Q 24.171875 66.40625 20.328125 58.90625 
Q 16.5 51.421875 16.5 36.375 
Q 16.5 21.390625 20.328125 13.890625 
Q 24.171875 6.390625 31.78125 6.390625 
Q 39.453125 6.390625 43.28125 13.890625 
Q 47.125 21.390625 47.125 36.375 
Q 47.125 51.421875 43.28125 58.90625 
Q 39.453125 66.40625 31.78125 66.40625 
z
M 31.78125 74.21875 
Q 44.046875 74.21875 50.515625 64.515625 
Q 56.984375 54.828125 56.984375 36.375 
Q 56.984375 17.96875 50.515625 8.265625 
Q 44.046875 -1.421875 31.78125 -1.421875 
Q 19.53125 -1.421875 13.0625 8.265625 
Q 6.59375 17.96875 6.59375 36.375 
Q 6.59375 54.828125 13.0625 64.515625 
Q 19.53125 74.21875 31.78125 74.21875 
z
" id="DejaVuSans-48"/>
        <path d="M 10.6875 12.40625 
L 21 12.40625 
L 21 0 
L 10.6875 0 
z
" id="DejaVuSans-46"/>
       </defs>
       <use xlink:href="#DejaVuSans-48"/>
       <use x="63.623047" xlink:href="#DejaVuSans-46"/>
       <use x="95.410156" xlink:href="#DejaVuSans-48"/>
      </g>
     </g>
    </g>
    <g id="xtick_2">
     <g id="line2d_2">
      <g>
       <use style="stroke:#000000;stroke-width:0.8;" x="165.408949" xlink:href="#m69bd6661e5" y="101.521374"/>
      </g>
     </g>
     <g id="text_2">
      <!-- 0.2 -->
      <g transform="translate(157.457386 116.119812)scale(0.1 -0.1)">
       <defs>
        <path d="M 19.1875 8.296875 
L 53.609375 8.296875 
L 53.609375 0 
L 7.328125 0 
L 7.328125 8.296875 
Q 12.9375 14.109375 22.625 23.890625 
Q 32.328125 33.6875 34.8125 36.53125 
Q 39.546875 41.84375 41.421875 45.53125 
Q 43.3125 49.21875 43.3125 52.78125 
Q 43.3125 58.59375 39.234375 62.25 
Q 35.15625 65.921875 28.609375 65.921875 
Q 23.96875 65.921875 18.8125 64.3125 
Q 13.671875 62.703125 7.8125 59.421875 
L 7.8125 69.390625 
Q 13.765625 71.78125 18.9375 73 
Q 24.125 74.21875 28.421875 74.21875 
Q 39.75 74.21875 46.484375 68.546875 
Q 53.21875 62.890625 53.21875 53.421875 
Q 53.21875 48.921875 51.53125 44.890625 
Q 49.859375 40.875 45.40625 35.40625 
Q 44.1875 33.984375 37.640625 27.21875 
Q 31.109375 20.453125 19.1875 8.296875 
z
" id="DejaVuSans-50"/>
       </defs>
       <use xlink:href="#DejaVuSans-48"/>
       <use x="63.623047" xlink:href="#DejaVuSans-46"/>
       <use x="95.410156" xlink:href="#DejaVuSans-50"/>
      </g>
     </g>
    </g>
    <g id="xtick_3">
     <g id="line2d_3">
      <g>
       <use style="stroke:#000000;stroke-width:0.8;" x="258.549858" xlink:href="#m69bd6661e5" y="101.521374"/>
      </g>
     </g>
     <g id="text_3">
      <!-- 0.4 -->
      <g transform="translate(250.598295 116.119812)scale(0.1 -0.1)">
       <defs>
        <path d="M 37.796875 64.3125 
L 12.890625 25.390625 
L 37.796875 25.390625 
z
M 35.203125 72.90625 
L 47.609375 72.90625 
L 47.609375 25.390625 
L 58.015625 25.390625 
L 58.015625 17.1875 
L 47.609375 17.1875 
L 47.609375 0 
L 37.796875 0 
L 37.796875 17.1875 
L 4.890625 17.1875 
L 4.890625 26.703125 
z
" id="DejaVuSans-52"/>
       </defs>
       <use xlink:href="#DejaVuSans-48"/>
       <use x="63.623047" xlink:href="#DejaVuSans-46"/>
       <use x="95.410156" xlink:href="#DejaVuSans-52"/>
      </g>
     </g>
    </g>
    <g id="xtick_4">
     <g id="line2d_4">
      <g>
       <use style="stroke:#000000;stroke-width:0.8;" x="351.690767" xlink:href="#m69bd6661e5" y="101.521374"/>
      </g>
     </g>
     <g id="text_4">
      <!-- 0.6 -->
      <g transform="translate(343.739205 116.119812)scale(0.1 -0.1)">
       <defs>
        <path d="M 33.015625 40.375 
Q 26.375 40.375 22.484375 35.828125 
Q 18.609375 31.296875 18.609375 23.390625 
Q 18.609375 15.53125 22.484375 10.953125 
Q 26.375 6.390625 33.015625 6.390625 
Q 39.65625 6.390625 43.53125 10.953125 
Q 47.40625 15.53125 47.40625 23.390625 
Q 47.40625 31.296875 43.53125 35.828125 
Q 39.65625 40.375 33.015625 40.375 
z
M 52.59375 71.296875 
L 52.59375 62.3125 
Q 48.875 64.0625 45.09375 64.984375 
Q 41.3125 65.921875 37.59375 65.921875 
Q 27.828125 65.921875 22.671875 59.328125 
Q 17.53125 52.734375 16.796875 39.40625 
Q 19.671875 43.65625 24.015625 45.921875 
Q 28.375 48.1875 33.59375 48.1875 
Q 44.578125 48.1875 50.953125 41.515625 
Q 57.328125 34.859375 57.328125 23.390625 
Q 57.328125 12.15625 50.6875 5.359375 
Q 44.046875 -1.421875 33.015625 -1.421875 
Q 20.359375 -1.421875 13.671875 8.265625 
Q 6.984375 17.96875 6.984375 36.375 
Q 6.984375 53.65625 15.1875 63.9375 
Q 23.390625 74.21875 37.203125 74.21875 
Q 40.921875 74.21875 44.703125 73.484375 
Q 48.484375 72.75 52.59375 71.296875 
z
" id="DejaVuSans-54"/>
       </defs>
       <use xlink:href="#DejaVuSans-48"/>
       <use x="63.623047" xlink:href="#DejaVuSans-46"/>
       <use x="95.410156" xlink:href="#DejaVuSans-54"/>
      </g>
     </g>
    </g>
    <g id="xtick_5">
     <g id="line2d_5">
      <g>
       <use style="stroke:#000000;stroke-width:0.8;" x="444.831676" xlink:href="#m69bd6661e5" y="101.521374"/>
      </g>
     </g>
     <g id="text_5">
      <!-- 0.8 -->
      <g transform="translate(436.880114 116.119812)scale(0.1 -0.1)">
       <defs>
        <path d="M 31.78125 34.625 
Q 24.75 34.625 20.71875 30.859375 
Q 16.703125 27.09375 16.703125 20.515625 
Q 16.703125 13.921875 20.71875 10.15625 
Q 24.75 6.390625 31.78125 6.390625 
Q 38.8125 6.390625 42.859375 10.171875 
Q 46.921875 13.96875 46.921875 20.515625 
Q 46.921875 27.09375 42.890625 30.859375 
Q 38.875 34.625 31.78125 34.625 
z
M 21.921875 38.8125 
Q 15.578125 40.375 12.03125 44.71875 
Q 8.5 49.078125 8.5 55.328125 
Q 8.5 64.0625 14.71875 69.140625 
Q 20.953125 74.21875 31.78125 74.21875 
Q 42.671875 74.21875 48.875 69.140625 
Q 55.078125 64.0625 55.078125 55.328125 
Q 55.078125 49.078125 51.53125 44.71875 
Q 48 40.375 41.703125 38.8125 
Q 48.828125 37.15625 52.796875 32.3125 
Q 56.78125 27.484375 56.78125 20.515625 
Q 56.78125 9.90625 50.3125 4.234375 
Q 43.84375 -1.421875 31.78125 -1.421875 
Q 19.734375 -1.421875 13.25 4.234375 
Q 6.78125 9.90625 6.78125 20.515625 
Q 6.78125 27.484375 10.78125 32.3125 
Q 14.796875 37.15625 21.921875 38.8125 
z
M 18.3125 54.390625 
Q 18.3125 48.734375 21.84375 45.5625 
Q 25.390625 42.390625 31.78125 42.390625 
Q 38.140625 42.390625 41.71875 45.5625 
Q 45.3125 48.734375 45.3125 54.390625 
Q 45.3125 60.0625 41.71875 63.234375 
Q 38.140625 66.40625 31.78125 66.40625 
Q 25.390625 66.40625 21.84375 63.234375 
Q 18.3125 60.0625 18.3125 54.390625 
z
" id="DejaVuSans-56"/>
       </defs>
       <use xlink:href="#DejaVuSans-48"/>
       <use x="63.623047" xlink:href="#DejaVuSans-46"/>
       <use x="95.410156" xlink:href="#DejaVuSans-56"/>
      </g>
     </g>
    </g>
    <g id="xtick_6">
     <g id="line2d_6">
      <g>
       <use style="stroke:#000000;stroke-width:0.8;" x="537.972585" xlink:href="#m69bd6661e5" y="101.521374"/>
      </g>
     </g>
     <g id="text_6">
      <!-- 1.0 -->
      <g transform="translate(530.021023 116.119812)scale(0.1 -0.1)">
       <defs>
        <path d="M 12.40625 8.296875 
L 28.515625 8.296875 
L 28.515625 63.921875 
L 10.984375 60.40625 
L 10.984375 69.390625 
L 28.421875 72.90625 
L 38.28125 72.90625 
L 38.28125 8.296875 
L 54.390625 8.296875 
L 54.390625 0 
L 12.40625 0 
z
" id="DejaVuSans-49"/>
       </defs>
       <use xlink:href="#DejaVuSans-49"/>
       <use x="63.623047" xlink:href="#DejaVuSans-46"/>
       <use x="95.410156" xlink:href="#DejaVuSans-48"/>
      </g>
     </g>
    </g>
    <g id="text_7">
     <!-- time (ms) -->
     <g transform="translate(280.858594 129.797937)scale(0.1 -0.1)">
      <defs>
       <path d="M 18.3125 70.21875 
L 18.3125 54.6875 
L 36.8125 54.6875 
L 36.8125 47.703125 
L 18.3125 47.703125 
L 18.3125 18.015625 
Q 18.3125 11.328125 20.140625 9.421875 
Q 21.96875 7.515625 27.59375 7.515625 
L 36.8125 7.515625 
L 36.8125 0 
L 27.59375 0 
Q 17.1875 0 13.234375 3.875 
Q 9.28125 7.765625 9.28125 18.015625 
L 9.28125 47.703125 
L 2.6875 47.703125 
L 2.6875 54.6875 
L 9.28125 54.6875 
L 9.28125 70.21875 
z
" id="DejaVuSans-116"/>
       <path d="M 9.421875 54.6875 
L 18.40625 54.6875 
L 18.40625 0 
L 9.421875 0 
z
M 9.421875 75.984375 
L 18.40625 75.984375 
L 18.40625 64.59375 
L 9.421875 64.59375 
z
" id="DejaVuSans-105"/>
       <path d="M 52 44.1875 
Q 55.375 50.25 60.0625 53.125 
Q 64.75 56 71.09375 56 
Q 79.640625 56 84.28125 50.015625 
Q 88.921875 44.046875 88.921875 33.015625 
L 88.921875 0 
L 79.890625 0 
L 79.890625 32.71875 
Q 79.890625 40.578125 77.09375 44.375 
Q 74.3125 48.1875 68.609375 48.1875 
Q 61.625 48.1875 57.5625 43.546875 
Q 53.515625 38.921875 53.515625 30.90625 
L 53.515625 0 
L 44.484375 0 
L 44.484375 32.71875 
Q 44.484375 40.625 41.703125 44.40625 
Q 38.921875 48.1875 33.109375 48.1875 
Q 26.21875 48.1875 22.15625 43.53125 
Q 18.109375 38.875 18.109375 30.90625 
L 18.109375 0 
L 9.078125 0 
L 9.078125 54.6875 
L 18.109375 54.6875 
L 18.109375 46.1875 
Q 21.1875 51.21875 25.484375 53.609375 
Q 29.78125 56 35.6875 56 
Q 41.65625 56 45.828125 52.96875 
Q 50 49.953125 52 44.1875 
z
" id="DejaVuSans-109"/>
       <path d="M 56.203125 29.59375 
L 56.203125 25.203125 
L 14.890625 25.203125 
Q 15.484375 15.921875 20.484375 11.0625 
Q 25.484375 6.203125 34.421875 6.203125 
Q 39.59375 6.203125 44.453125 7.46875 
Q 49.3125 8.734375 54.109375 11.28125 
L 54.109375 2.78125 
Q 49.265625 0.734375 44.1875 -0.34375 
Q 39.109375 -1.421875 33.890625 -1.421875 
Q 20.796875 -1.421875 13.15625 6.1875 
Q 5.515625 13.8125 5.515625 26.8125 
Q 5.515625 40.234375 12.765625 48.109375 
Q 20.015625 56 32.328125 56 
Q 43.359375 56 49.78125 48.890625 
Q 56.203125 41.796875 56.203125 29.59375 
z
M 47.21875 32.234375 
Q 47.125 39.59375 43.09375 43.984375 
Q 39.0625 48.390625 32.421875 48.390625 
Q 24.90625 48.390625 20.390625 44.140625 
Q 15.875 39.890625 15.1875 32.171875 
z
" id="DejaVuSans-101"/>
       <path id="DejaVuSans-32"/>
       <path d="M 31 75.875 
Q 24.46875 64.65625 21.28125 53.65625 
Q 18.109375 42.671875 18.109375 31.390625 
Q 18.109375 20.125 21.3125 9.0625 
Q 24.515625 -2 31 -13.1875 
L 23.1875 -13.1875 
Q 15.875 -1.703125 12.234375 9.375 
Q 8.59375 20.453125 8.59375 31.390625 
Q 8.59375 42.28125 12.203125 53.3125 
Q 15.828125 64.359375 23.1875 75.875 
z
" id="DejaVuSans-40"/>
       <path d="M 44.28125 53.078125 
L 44.28125 44.578125 
Q 40.484375 46.53125 36.375 47.5 
Q 32.28125 48.484375 27.875 48.484375 
Q 21.1875 48.484375 17.84375 46.4375 
Q 14.5 44.390625 14.5 40.28125 
Q 14.5 37.15625 16.890625 35.375 
Q 19.28125 33.59375 26.515625 31.984375 
L 29.59375 31.296875 
Q 39.15625 29.25 43.1875 25.515625 
Q 47.21875 21.78125 47.21875 15.09375 
Q 47.21875 7.46875 41.1875 3.015625 
Q 35.15625 -1.421875 24.609375 -1.421875 
Q 20.21875 -1.421875 15.453125 -0.5625 
Q 10.6875 0.296875 5.421875 2 
L 5.421875 11.28125 
Q 10.40625 8.6875 15.234375 7.390625 
Q 20.0625 6.109375 24.8125 6.109375 
Q 31.15625 6.109375 34.5625 8.28125 
Q 37.984375 10.453125 37.984375 14.40625 
Q 37.984375 18.0625 35.515625 20.015625 
Q 33.0625 21.96875 24.703125 23.78125 
L 21.578125 24.515625 
Q 13.234375 26.265625 9.515625 29.90625 
Q 5.8125 33.546875 5.8125 39.890625 
Q 5.8125 47.609375 11.28125 51.796875 
Q 16.75 56 26.8125 56 
Q 31.78125 56 36.171875 55.265625 
Q 40.578125 54.546875 44.28125 53.078125 
z
" id="DejaVuSans-115"/>
       <path d="M 8.015625 75.875 
L 15.828125 75.875 
Q 23.140625 64.359375 26.78125 53.3125 
Q 30.421875 42.28125 30.421875 31.390625 
Q 30.421875 20.453125 26.78125 9.375 
Q 23.140625 -1.703125 15.828125 -13.1875 
L 8.015625 -13.1875 
Q 14.5 -2 17.703125 9.0625 
Q 20.90625 20.125 20.90625 31.390625 
Q 20.90625 42.671875 17.703125 53.65625 
Q 14.5 64.65625 8.015625 75.875 
z
" id="DejaVuSans-41"/>
      </defs>
      <use xlink:href="#DejaVuSans-116"/>
      <use x="39.208984" xlink:href="#DejaVuSans-105"/>
      <use x="66.992188" xlink:href="#DejaVuSans-109"/>
      <use x="164.404297" xlink:href="#DejaVuSans-101"/>
      <use x="225.927734" xlink:href="#DejaVuSans-32"/>
      <use x="257.714844" xlink:href="#DejaVuSans-40"/>
      <use x="296.728516" xlink:href="#DejaVuSans-109"/>
      <use x="394.140625" xlink:href="#DejaVuSans-115"/>
      <use x="446.240234" xlink:href="#DejaVuSans-41"/>
     </g>
    </g>
   </g>
   <g id="matplotlib.axis_2">
    <g id="ytick_1">
     <g id="line2d_7">
      <defs>
       <path d="M 0 0 
L -3.5 0 
" id="m6d16ce1e2b" style="stroke:#000000;stroke-width:0.8;"/>
      </defs>
      <g>
       <use style="stroke:#000000;stroke-width:0.8;" x="48.982813" xlink:href="#m6d16ce1e2b" y="81.620701"/>
      </g>
     </g>
     <g id="text_8">
      <!-- 0 -->
      <g transform="translate(35.620313 85.41992)scale(0.1 -0.1)">
       <use xlink:href="#DejaVuSans-48"/>
      </g>
     </g>
    </g>
    <g id="ytick_2">
     <g id="line2d_8">
      <g>
       <use style="stroke:#000000;stroke-width:0.8;" x="48.982813" xlink:href="#m6d16ce1e2b" y="53.517565"/>
      </g>
     </g>
     <g id="text_9">
      <!-- 2 -->
      <g transform="translate(35.620313 57.316784)scale(0.1 -0.1)">
       <use xlink:href="#DejaVuSans-50"/>
      </g>
     </g>
    </g>
    <g id="ytick_3">
     <g id="line2d_9">
      <g>
       <use style="stroke:#000000;stroke-width:0.8;" x="48.982813" xlink:href="#m6d16ce1e2b" y="25.414429"/>
      </g>
     </g>
     <g id="text_10">
      <!-- 4 -->
      <g transform="translate(35.620313 29.213648)scale(0.1 -0.1)">
       <use xlink:href="#DejaVuSans-52"/>
      </g>
     </g>
    </g>
    <g id="text_11">
     <!-- IN [V] -->
     <g transform="translate(29.540625 68.48725)rotate(-90)scale(0.1 -0.1)">
      <defs>
       <path d="M 9.8125 72.90625 
L 19.671875 72.90625 
L 19.671875 0 
L 9.8125 0 
z
" id="DejaVuSans-73"/>
       <path d="M 9.8125 72.90625 
L 23.09375 72.90625 
L 55.421875 11.921875 
L 55.421875 72.90625 
L 64.984375 72.90625 
L 64.984375 0 
L 51.703125 0 
L 19.390625 60.984375 
L 19.390625 0 
L 9.8125 0 
z
" id="DejaVuSans-78"/>
       <path d="M 8.59375 75.984375 
L 29.296875 75.984375 
L 29.296875 69 
L 17.578125 69 
L 17.578125 -6.203125 
L 29.296875 -6.203125 
L 29.296875 -13.1875 
L 8.59375 -13.1875 
z
" id="DejaVuSans-91"/>
       <path d="M 28.609375 0 
L 0.78125 72.90625 
L 11.078125 72.90625 
L 34.1875 11.53125 
L 57.328125 72.90625 
L 67.578125 72.90625 
L 39.796875 0 
z
" id="DejaVuSans-86"/>
       <path d="M 30.421875 75.984375 
L 30.421875 -13.1875 
L 9.71875 -13.1875 
L 9.71875 -6.203125 
L 21.390625 -6.203125 
L 21.390625 69 
L 9.71875 69 
L 9.71875 75.984375 
z
" id="DejaVuSans-93"/>
      </defs>
      <use xlink:href="#DejaVuSans-73"/>
      <use x="29.492188" xlink:href="#DejaVuSans-78"/>
      <use x="104.296875" xlink:href="#DejaVuSans-32"/>
      <use x="136.083984" xlink:href="#DejaVuSans-91"/>
      <use x="175.097656" xlink:href="#DejaVuSans-86"/>
      <use x="243.505859" xlink:href="#DejaVuSans-93"/>
     </g>
    </g>
   </g>
   <g id="line2d_10">
    <path clip-path="url(#p3a3bd2641a)" d="M 72.26804 85.526171 
L 72.819392 85.606654 
L 100.257287 89.838854 
L 115.625537 91.987751 
L 128.665265 93.597107 
L 140.773583 94.869246 
L 151.950492 95.823272 
L 162.661696 96.518395 
L 172.907196 96.96895 
L 183.152696 97.201161 
L 193.398196 97.210607 
L 203.643696 96.997115 
L 213.889196 96.564762 
L 224.600401 95.887757 
L 235.77731 94.951262 
L 247.419924 93.748632 
L 259.993946 92.223384 
L 274.430787 90.238007 
L 292.593265 87.497098 
L 340.095128 80.20605 
L 354.531969 78.288231 
L 367.105992 76.838548 
L 378.748605 75.717794 
L 389.925515 74.868949 
L 400.636719 74.28244 
L 410.882219 73.940824 
L 421.127719 73.82036 
L 431.373219 73.923299 
L 441.618719 74.247612 
L 452.329924 74.816525 
L 463.041128 75.6086 
L 474.218037 76.655083 
L 486.326355 78.014932 
L 499.831787 79.765619 
L 515.665742 82.05629 
L 537.972585 85.525539 
L 537.972585 85.525539 
" style="fill:none;stroke:#ff0000;stroke-linecap:square;stroke-width:1.5;"/>
   </g>
   <g id="line2d_11">
    <path clip-path="url(#p3a3bd2641a)" d="M 72.26804 52.112079 
L 537.972585 52.107145 
L 537.972585 52.107145 
" style="fill:none;stroke:#ffff00;stroke-linecap:square;stroke-width:1.5;"/>
   </g>
   <g id="line2d_12">
    <path clip-path="url(#p3a3bd2641a)" d="M 72.26804 11.512451 
L 537.972585 11.538489 
L 537.972585 11.538489 
" style="fill:none;stroke:#008000;stroke-linecap:square;stroke-width:1.5;"/>
   </g>
   <g id="line2d_13">
    <path clip-path="url(#p3a3bd2641a)" d="M 72.26804 69.903372 
L 537.972585 69.889714 
L 537.972585 69.889714 
" style="fill:none;stroke:#0000ff;stroke-linecap:square;stroke-width:1.5;"/>
   </g>
   <g id="patch_3">
    <path d="M 48.982813 101.521374 
L 48.982813 7.2 
" style="fill:none;stroke:#000000;stroke-linecap:square;stroke-linejoin:miter;stroke-width:0.8;"/>
   </g>
   <g id="patch_4">
    <path d="M 561.257812 101.521374 
L 561.257812 7.2 
" style="fill:none;stroke:#000000;stroke-linecap:square;stroke-linejoin:miter;stroke-width:0.8;"/>
   </g>
   <g id="patch_5">
    <path d="M 48.982813 101.521374 
L 561.257812 101.521374 
" style="fill:none;stroke:#000000;stroke-linecap:square;stroke-linejoin:miter;stroke-width:0.8;"/>
   </g>
   <g id="patch_6">
    <path d="M 48.982813 7.2 
L 561.257812 7.2 
" style="fill:none;stroke:#000000;stroke-linecap:square;stroke-linejoin:miter;stroke-width:0.8;"/>
   </g>
  </g>
  <g id="axes_2">
   <g id="patch_7">
    <path d="M 48.982813 238.8 
L 561.257812 238.8 
L 561.257812 144.478626 
L 48.982813 144.478626 
z
" style="fill:#ffffff;"/>
   </g>
   <g id="matplotlib.axis_3">
    <g id="xtick_7">
     <g id="line2d_14">
      <path clip-path="url(#p3a2fcb4b24)" d="M 72.26804 238.8 
L 72.26804 144.478626 
" style="fill:none;stroke:#b0b0b0;stroke-linecap:square;stroke-width:0.8;"/>
     </g>
     <g id="line2d_15">
      <g>
       <use style="stroke:#000000;stroke-width:0.8;" x="72.26804" xlink:href="#m69bd6661e5" y="238.8"/>
      </g>
     </g>
     <g id="text_12">
      <!-- $\mathdefault{10^{0}}$ -->
      <g transform="translate(63.46804 253.398438)scale(0.1 -0.1)">
       <use transform="translate(0 0.765625)" xlink:href="#DejaVuSans-49"/>
       <use transform="translate(63.623047 0.765625)" xlink:href="#DejaVuSans-48"/>
       <use transform="translate(128.203125 39.046875)scale(0.7)" xlink:href="#DejaVuSans-48"/>
      </g>
     </g>
    </g>
    <g id="xtick_8">
     <g id="line2d_16">
      <path clip-path="url(#p3a2fcb4b24)" d="M 149.885464 238.8 
L 149.885464 144.478626 
" style="fill:none;stroke:#b0b0b0;stroke-linecap:square;stroke-width:0.8;"/>
     </g>
     <g id="line2d_17">
      <g>
       <use style="stroke:#000000;stroke-width:0.8;" x="149.885464" xlink:href="#m69bd6661e5" y="238.8"/>
      </g>
     </g>
     <g id="text_13">
      <!-- $\mathdefault{10^{1}}$ -->
      <g transform="translate(141.085464 253.398438)scale(0.1 -0.1)">
       <use transform="translate(0 0.684375)" xlink:href="#DejaVuSans-49"/>
       <use transform="translate(63.623047 0.684375)" xlink:href="#DejaVuSans-48"/>
       <use transform="translate(128.203125 38.965625)scale(0.7)" xlink:href="#DejaVuSans-49"/>
      </g>
     </g>
    </g>
    <g id="xtick_9">
     <g id="line2d_18">
      <path clip-path="url(#p3a2fcb4b24)" d="M 227.502888 238.8 
L 227.502888 144.478626 
" style="fill:none;stroke:#b0b0b0;stroke-linecap:square;stroke-width:0.8;"/>
     </g>
     <g id="line2d_19">
      <g>
       <use style="stroke:#000000;stroke-width:0.8;" x="227.502888" xlink:href="#m69bd6661e5" y="238.8"/>
      </g>
     </g>
     <g id="text_14">
      <!-- $\mathdefault{10^{2}}$ -->
      <g transform="translate(218.702888 253.398438)scale(0.1 -0.1)">
       <use transform="translate(0 0.765625)" xlink:href="#DejaVuSans-49"/>
       <use transform="translate(63.623047 0.765625)" xlink:href="#DejaVuSans-48"/>
       <use transform="translate(128.203125 39.046875)scale(0.7)" xlink:href="#DejaVuSans-50"/>
      </g>
     </g>
    </g>
    <g id="xtick_10">
     <g id="line2d_20">
      <path clip-path="url(#p3a2fcb4b24)" d="M 305.120312 238.8 
L 305.120312 144.478626 
" style="fill:none;stroke:#b0b0b0;stroke-linecap:square;stroke-width:0.8;"/>
     </g>
     <g id="line2d_21">
      <g>
       <use style="stroke:#000000;stroke-width:0.8;" x="305.120312" xlink:href="#m69bd6661e5" y="238.8"/>
      </g>
     </g>
     <g id="text_15">
      <!-- $\mathdefault{10^{3}}$ -->
      <g transform="translate(296.320312 253.398438)scale(0.1 -0.1)">
       <defs>
        <path d="M 40.578125 39.3125 
Q 47.65625 37.796875 51.625 33 
Q 55.609375 28.21875 55.609375 21.1875 
Q 55.609375 10.40625 48.1875 4.484375 
Q 40.765625 -1.421875 27.09375 -1.421875 
Q 22.515625 -1.421875 17.65625 -0.515625 
Q 12.796875 0.390625 7.625 2.203125 
L 7.625 11.71875 
Q 11.71875 9.328125 16.59375 8.109375 
Q 21.484375 6.890625 26.8125 6.890625 
Q 36.078125 6.890625 40.9375 10.546875 
Q 45.796875 14.203125 45.796875 21.1875 
Q 45.796875 27.640625 41.28125 31.265625 
Q 36.765625 34.90625 28.71875 34.90625 
L 20.21875 34.90625 
L 20.21875 43.015625 
L 29.109375 43.015625 
Q 36.375 43.015625 40.234375 45.921875 
Q 44.09375 48.828125 44.09375 54.296875 
Q 44.09375 59.90625 40.109375 62.90625 
Q 36.140625 65.921875 28.71875 65.921875 
Q 24.65625 65.921875 20.015625 65.03125 
Q 15.375 64.15625 9.8125 62.3125 
L 9.8125 71.09375 
Q 15.4375 72.65625 20.34375 73.4375 
Q 25.25 74.21875 29.59375 74.21875 
Q 40.828125 74.21875 47.359375 69.109375 
Q 53.90625 64.015625 53.90625 55.328125 
Q 53.90625 49.265625 50.4375 45.09375 
Q 46.96875 40.921875 40.578125 39.3125 
z
" id="DejaVuSans-51"/>
       </defs>
       <use transform="translate(0 0.765625)" xlink:href="#DejaVuSans-49"/>
       <use transform="translate(63.623047 0.765625)" xlink:href="#DejaVuSans-48"/>
       <use transform="translate(128.203125 39.046875)scale(0.7)" xlink:href="#DejaVuSans-51"/>
      </g>
     </g>
    </g>
    <g id="xtick_11">
     <g id="line2d_22">
      <path clip-path="url(#p3a2fcb4b24)" d="M 382.737737 238.8 
L 382.737737 144.478626 
" style="fill:none;stroke:#b0b0b0;stroke-linecap:square;stroke-width:0.8;"/>
     </g>
     <g id="line2d_23">
      <g>
       <use style="stroke:#000000;stroke-width:0.8;" x="382.737737" xlink:href="#m69bd6661e5" y="238.8"/>
      </g>
     </g>
     <g id="text_16">
      <!-- $\mathdefault{10^{4}}$ -->
      <g transform="translate(373.937737 253.398438)scale(0.1 -0.1)">
       <use transform="translate(0 0.684375)" xlink:href="#DejaVuSans-49"/>
       <use transform="translate(63.623047 0.684375)" xlink:href="#DejaVuSans-48"/>
       <use transform="translate(128.203125 38.965625)scale(0.7)" xlink:href="#DejaVuSans-52"/>
      </g>
     </g>
    </g>
    <g id="xtick_12">
     <g id="line2d_24">
      <path clip-path="url(#p3a2fcb4b24)" d="M 460.355161 238.8 
L 460.355161 144.478626 
" style="fill:none;stroke:#b0b0b0;stroke-linecap:square;stroke-width:0.8;"/>
     </g>
     <g id="line2d_25">
      <g>
       <use style="stroke:#000000;stroke-width:0.8;" x="460.355161" xlink:href="#m69bd6661e5" y="238.8"/>
      </g>
     </g>
     <g id="text_17">
      <!-- $\mathdefault{10^{5}}$ -->
      <g transform="translate(451.555161 253.398438)scale(0.1 -0.1)">
       <defs>
        <path d="M 10.796875 72.90625 
L 49.515625 72.90625 
L 49.515625 64.59375 
L 19.828125 64.59375 
L 19.828125 46.734375 
Q 21.96875 47.46875 24.109375 47.828125 
Q 26.265625 48.1875 28.421875 48.1875 
Q 40.625 48.1875 47.75 41.5 
Q 54.890625 34.8125 54.890625 23.390625 
Q 54.890625 11.625 47.5625 5.09375 
Q 40.234375 -1.421875 26.90625 -1.421875 
Q 22.3125 -1.421875 17.546875 -0.640625 
Q 12.796875 0.140625 7.71875 1.703125 
L 7.71875 11.625 
Q 12.109375 9.234375 16.796875 8.0625 
Q 21.484375 6.890625 26.703125 6.890625 
Q 35.15625 6.890625 40.078125 11.328125 
Q 45.015625 15.765625 45.015625 23.390625 
Q 45.015625 31 40.078125 35.4375 
Q 35.15625 39.890625 26.703125 39.890625 
Q 22.75 39.890625 18.8125 39.015625 
Q 14.890625 38.140625 10.796875 36.28125 
z
" id="DejaVuSans-53"/>
       </defs>
       <use transform="translate(0 0.684375)" xlink:href="#DejaVuSans-49"/>
       <use transform="translate(63.623047 0.684375)" xlink:href="#DejaVuSans-48"/>
       <use transform="translate(128.203125 38.965625)scale(0.7)" xlink:href="#DejaVuSans-53"/>
      </g>
     </g>
    </g>
    <g id="xtick_13">
     <g id="line2d_26">
      <path clip-path="url(#p3a2fcb4b24)" d="M 537.972585 238.8 
L 537.972585 144.478626 
" style="fill:none;stroke:#b0b0b0;stroke-linecap:square;stroke-width:0.8;"/>
     </g>
     <g id="line2d_27">
      <g>
       <use style="stroke:#000000;stroke-width:0.8;" x="537.972585" xlink:href="#m69bd6661e5" y="238.8"/>
      </g>
     </g>
     <g id="text_18">
      <!-- $\mathdefault{10^{6}}$ -->
      <g transform="translate(529.172585 253.398438)scale(0.1 -0.1)">
       <use transform="translate(0 0.765625)" xlink:href="#DejaVuSans-49"/>
       <use transform="translate(63.623047 0.765625)" xlink:href="#DejaVuSans-48"/>
       <use transform="translate(128.203125 39.046875)scale(0.7)" xlink:href="#DejaVuSans-54"/>
      </g>
     </g>
    </g>
    <g id="xtick_14">
     <g id="line2d_28">
      <path clip-path="url(#p3a2fcb4b24)" d="M 55.048711 238.8 
L 55.048711 144.478626 
" style="fill:none;stroke:#b0b0b0;stroke-linecap:square;stroke-width:0.8;"/>
     </g>
     <g id="line2d_29">
      <defs>
       <path d="M 0 0 
L 0 2 
" id="me4586dbacc" style="stroke:#000000;stroke-width:0.6;"/>
      </defs>
      <g>
       <use style="stroke:#000000;stroke-width:0.6;" x="55.048711" xlink:href="#me4586dbacc" y="238.8"/>
      </g>
     </g>
    </g>
    <g id="xtick_15">
     <g id="line2d_30">
      <path clip-path="url(#p3a2fcb4b24)" d="M 60.244949 238.8 
L 60.244949 144.478626 
" style="fill:none;stroke:#b0b0b0;stroke-linecap:square;stroke-width:0.8;"/>
     </g>
     <g id="line2d_31">
      <g>
       <use style="stroke:#000000;stroke-width:0.6;" x="60.244949" xlink:href="#me4586dbacc" y="238.8"/>
      </g>
     </g>
    </g>
    <g id="xtick_16">
     <g id="line2d_32">
      <path clip-path="url(#p3a2fcb4b24)" d="M 64.746134 238.8 
L 64.746134 144.478626 
" style="fill:none;stroke:#b0b0b0;stroke-linecap:square;stroke-width:0.8;"/>
     </g>
     <g id="line2d_33">
      <g>
       <use style="stroke:#000000;stroke-width:0.6;" x="64.746134" xlink:href="#me4586dbacc" y="238.8"/>
      </g>
     </g>
    </g>
    <g id="xtick_17">
     <g id="line2d_34">
      <path clip-path="url(#p3a2fcb4b24)" d="M 68.716461 238.8 
L 68.716461 144.478626 
" style="fill:none;stroke:#b0b0b0;stroke-linecap:square;stroke-width:0.8;"/>
     </g>
     <g id="line2d_35">
      <g>
       <use style="stroke:#000000;stroke-width:0.6;" x="68.716461" xlink:href="#me4586dbacc" y="238.8"/>
      </g>
     </g>
    </g>
    <g id="xtick_18">
     <g id="line2d_36">
      <path clip-path="url(#p3a2fcb4b24)" d="M 95.633213 238.8 
L 95.633213 144.478626 
" style="fill:none;stroke:#b0b0b0;stroke-linecap:square;stroke-width:0.8;"/>
     </g>
     <g id="line2d_37">
      <g>
       <use style="stroke:#000000;stroke-width:0.6;" x="95.633213" xlink:href="#me4586dbacc" y="238.8"/>
      </g>
     </g>
    </g>
    <g id="xtick_19">
     <g id="line2d_38">
      <path clip-path="url(#p3a2fcb4b24)" d="M 109.300963 238.8 
L 109.300963 144.478626 
" style="fill:none;stroke:#b0b0b0;stroke-linecap:square;stroke-width:0.8;"/>
     </g>
     <g id="line2d_39">
      <g>
       <use style="stroke:#000000;stroke-width:0.6;" x="109.300963" xlink:href="#me4586dbacc" y="238.8"/>
      </g>
     </g>
    </g>
    <g id="xtick_20">
     <g id="line2d_40">
      <path clip-path="url(#p3a2fcb4b24)" d="M 118.998386 238.8 
L 118.998386 144.478626 
" style="fill:none;stroke:#b0b0b0;stroke-linecap:square;stroke-width:0.8;"/>
     </g>
     <g id="line2d_41">
      <g>
       <use style="stroke:#000000;stroke-width:0.6;" x="118.998386" xlink:href="#me4586dbacc" y="238.8"/>
      </g>
     </g>
    </g>
    <g id="xtick_21">
     <g id="line2d_42">
      <path clip-path="url(#p3a2fcb4b24)" d="M 126.520291 238.8 
L 126.520291 144.478626 
" style="fill:none;stroke:#b0b0b0;stroke-linecap:square;stroke-width:0.8;"/>
     </g>
     <g id="line2d_43">
      <g>
       <use style="stroke:#000000;stroke-width:0.6;" x="126.520291" xlink:href="#me4586dbacc" y="238.8"/>
      </g>
     </g>
    </g>
    <g id="xtick_22">
     <g id="line2d_44">
      <path clip-path="url(#p3a2fcb4b24)" d="M 132.666135 238.8 
L 132.666135 144.478626 
" style="fill:none;stroke:#b0b0b0;stroke-linecap:square;stroke-width:0.8;"/>
     </g>
     <g id="line2d_45">
      <g>
       <use style="stroke:#000000;stroke-width:0.6;" x="132.666135" xlink:href="#me4586dbacc" y="238.8"/>
      </g>
     </g>
    </g>
    <g id="xtick_23">
     <g id="line2d_46">
      <path clip-path="url(#p3a2fcb4b24)" d="M 137.862373 238.8 
L 137.862373 144.478626 
" style="fill:none;stroke:#b0b0b0;stroke-linecap:square;stroke-width:0.8;"/>
     </g>
     <g id="line2d_47">
      <g>
       <use style="stroke:#000000;stroke-width:0.6;" x="137.862373" xlink:href="#me4586dbacc" y="238.8"/>
      </g>
     </g>
    </g>
    <g id="xtick_24">
     <g id="line2d_48">
      <path clip-path="url(#p3a2fcb4b24)" d="M 142.363558 238.8 
L 142.363558 144.478626 
" style="fill:none;stroke:#b0b0b0;stroke-linecap:square;stroke-width:0.8;"/>
     </g>
     <g id="line2d_49">
      <g>
       <use style="stroke:#000000;stroke-width:0.6;" x="142.363558" xlink:href="#me4586dbacc" y="238.8"/>
      </g>
     </g>
    </g>
    <g id="xtick_25">
     <g id="line2d_50">
      <path clip-path="url(#p3a2fcb4b24)" d="M 146.333885 238.8 
L 146.333885 144.478626 
" style="fill:none;stroke:#b0b0b0;stroke-linecap:square;stroke-width:0.8;"/>
     </g>
     <g id="line2d_51">
      <g>
       <use style="stroke:#000000;stroke-width:0.6;" x="146.333885" xlink:href="#me4586dbacc" y="238.8"/>
      </g>
     </g>
    </g>
    <g id="xtick_26">
     <g id="line2d_52">
      <path clip-path="url(#p3a2fcb4b24)" d="M 173.250637 238.8 
L 173.250637 144.478626 
" style="fill:none;stroke:#b0b0b0;stroke-linecap:square;stroke-width:0.8;"/>
     </g>
     <g id="line2d_53">
      <g>
       <use style="stroke:#000000;stroke-width:0.6;" x="173.250637" xlink:href="#me4586dbacc" y="238.8"/>
      </g>
     </g>
    </g>
    <g id="xtick_27">
     <g id="line2d_54">
      <path clip-path="url(#p3a2fcb4b24)" d="M 186.918387 238.8 
L 186.918387 144.478626 
" style="fill:none;stroke:#b0b0b0;stroke-linecap:square;stroke-width:0.8;"/>
     </g>
     <g id="line2d_55">
      <g>
       <use style="stroke:#000000;stroke-width:0.6;" x="186.918387" xlink:href="#me4586dbacc" y="238.8"/>
      </g>
     </g>
    </g>
    <g id="xtick_28">
     <g id="line2d_56">
      <path clip-path="url(#p3a2fcb4b24)" d="M 196.61581 238.8 
L 196.61581 144.478626 
" style="fill:none;stroke:#b0b0b0;stroke-linecap:square;stroke-width:0.8;"/>
     </g>
     <g id="line2d_57">
      <g>
       <use style="stroke:#000000;stroke-width:0.6;" x="196.61581" xlink:href="#me4586dbacc" y="238.8"/>
      </g>
     </g>
    </g>
    <g id="xtick_29">
     <g id="line2d_58">
      <path clip-path="url(#p3a2fcb4b24)" d="M 204.137715 238.8 
L 204.137715 144.478626 
" style="fill:none;stroke:#b0b0b0;stroke-linecap:square;stroke-width:0.8;"/>
     </g>
     <g id="line2d_59">
      <g>
       <use style="stroke:#000000;stroke-width:0.6;" x="204.137715" xlink:href="#me4586dbacc" y="238.8"/>
      </g>
     </g>
    </g>
    <g id="xtick_30">
     <g id="line2d_60">
      <path clip-path="url(#p3a2fcb4b24)" d="M 210.28356 238.8 
L 210.28356 144.478626 
" style="fill:none;stroke:#b0b0b0;stroke-linecap:square;stroke-width:0.8;"/>
     </g>
     <g id="line2d_61">
      <g>
       <use style="stroke:#000000;stroke-width:0.6;" x="210.28356" xlink:href="#me4586dbacc" y="238.8"/>
      </g>
     </g>
    </g>
    <g id="xtick_31">
     <g id="line2d_62">
      <path clip-path="url(#p3a2fcb4b24)" d="M 215.479797 238.8 
L 215.479797 144.478626 
" style="fill:none;stroke:#b0b0b0;stroke-linecap:square;stroke-width:0.8;"/>
     </g>
     <g id="line2d_63">
      <g>
       <use style="stroke:#000000;stroke-width:0.6;" x="215.479797" xlink:href="#me4586dbacc" y="238.8"/>
      </g>
     </g>
    </g>
    <g id="xtick_32">
     <g id="line2d_64">
      <path clip-path="url(#p3a2fcb4b24)" d="M 219.980983 238.8 
L 219.980983 144.478626 
" style="fill:none;stroke:#b0b0b0;stroke-linecap:square;stroke-width:0.8;"/>
     </g>
     <g id="line2d_65">
      <g>
       <use style="stroke:#000000;stroke-width:0.6;" x="219.980983" xlink:href="#me4586dbacc" y="238.8"/>
      </g>
     </g>
    </g>
    <g id="xtick_33">
     <g id="line2d_66">
      <path clip-path="url(#p3a2fcb4b24)" d="M 223.95131 238.8 
L 223.95131 144.478626 
" style="fill:none;stroke:#b0b0b0;stroke-linecap:square;stroke-width:0.8;"/>
     </g>
     <g id="line2d_67">
      <g>
       <use style="stroke:#000000;stroke-width:0.6;" x="223.95131" xlink:href="#me4586dbacc" y="238.8"/>
      </g>
     </g>
    </g>
    <g id="xtick_34">
     <g id="line2d_68">
      <path clip-path="url(#p3a2fcb4b24)" d="M 250.868061 238.8 
L 250.868061 144.478626 
" style="fill:none;stroke:#b0b0b0;stroke-linecap:square;stroke-width:0.8;"/>
     </g>
     <g id="line2d_69">
      <g>
       <use style="stroke:#000000;stroke-width:0.6;" x="250.868061" xlink:href="#me4586dbacc" y="238.8"/>
      </g>
     </g>
    </g>
    <g id="xtick_35">
     <g id="line2d_70">
      <path clip-path="url(#p3a2fcb4b24)" d="M 264.535811 238.8 
L 264.535811 144.478626 
" style="fill:none;stroke:#b0b0b0;stroke-linecap:square;stroke-width:0.8;"/>
     </g>
     <g id="line2d_71">
      <g>
       <use style="stroke:#000000;stroke-width:0.6;" x="264.535811" xlink:href="#me4586dbacc" y="238.8"/>
      </g>
     </g>
    </g>
    <g id="xtick_36">
     <g id="line2d_72">
      <path clip-path="url(#p3a2fcb4b24)" d="M 274.233234 238.8 
L 274.233234 144.478626 
" style="fill:none;stroke:#b0b0b0;stroke-linecap:square;stroke-width:0.8;"/>
     </g>
     <g id="line2d_73">
      <g>
       <use style="stroke:#000000;stroke-width:0.6;" x="274.233234" xlink:href="#me4586dbacc" y="238.8"/>
      </g>
     </g>
    </g>
    <g id="xtick_37">
     <g id="line2d_74">
      <path clip-path="url(#p3a2fcb4b24)" d="M 281.75514 238.8 
L 281.75514 144.478626 
" style="fill:none;stroke:#b0b0b0;stroke-linecap:square;stroke-width:0.8;"/>
     </g>
     <g id="line2d_75">
      <g>
       <use style="stroke:#000000;stroke-width:0.6;" x="281.75514" xlink:href="#me4586dbacc" y="238.8"/>
      </g>
     </g>
    </g>
    <g id="xtick_38">
     <g id="line2d_76">
      <path clip-path="url(#p3a2fcb4b24)" d="M 287.900984 238.8 
L 287.900984 144.478626 
" style="fill:none;stroke:#b0b0b0;stroke-linecap:square;stroke-width:0.8;"/>
     </g>
     <g id="line2d_77">
      <g>
       <use style="stroke:#000000;stroke-width:0.6;" x="287.900984" xlink:href="#me4586dbacc" y="238.8"/>
      </g>
     </g>
    </g>
    <g id="xtick_39">
     <g id="line2d_78">
      <path clip-path="url(#p3a2fcb4b24)" d="M 293.097221 238.8 
L 293.097221 144.478626 
" style="fill:none;stroke:#b0b0b0;stroke-linecap:square;stroke-width:0.8;"/>
     </g>
     <g id="line2d_79">
      <g>
       <use style="stroke:#000000;stroke-width:0.6;" x="293.097221" xlink:href="#me4586dbacc" y="238.8"/>
      </g>
     </g>
    </g>
    <g id="xtick_40">
     <g id="line2d_80">
      <path clip-path="url(#p3a2fcb4b24)" d="M 297.598407 238.8 
L 297.598407 144.478626 
" style="fill:none;stroke:#b0b0b0;stroke-linecap:square;stroke-width:0.8;"/>
     </g>
     <g id="line2d_81">
      <g>
       <use style="stroke:#000000;stroke-width:0.6;" x="297.598407" xlink:href="#me4586dbacc" y="238.8"/>
      </g>
     </g>
    </g>
    <g id="xtick_41">
     <g id="line2d_82">
      <path clip-path="url(#p3a2fcb4b24)" d="M 301.568734 238.8 
L 301.568734 144.478626 
" style="fill:none;stroke:#b0b0b0;stroke-linecap:square;stroke-width:0.8;"/>
     </g>
     <g id="line2d_83">
      <g>
       <use style="stroke:#000000;stroke-width:0.6;" x="301.568734" xlink:href="#me4586dbacc" y="238.8"/>
      </g>
     </g>
    </g>
    <g id="xtick_42">
     <g id="line2d_84">
      <path clip-path="url(#p3a2fcb4b24)" d="M 328.485485 238.8 
L 328.485485 144.478626 
" style="fill:none;stroke:#b0b0b0;stroke-linecap:square;stroke-width:0.8;"/>
     </g>
     <g id="line2d_85">
      <g>
       <use style="stroke:#000000;stroke-width:0.6;" x="328.485485" xlink:href="#me4586dbacc" y="238.8"/>
      </g>
     </g>
    </g>
    <g id="xtick_43">
     <g id="line2d_86">
      <path clip-path="url(#p3a2fcb4b24)" d="M 342.153235 238.8 
L 342.153235 144.478626 
" style="fill:none;stroke:#b0b0b0;stroke-linecap:square;stroke-width:0.8;"/>
     </g>
     <g id="line2d_87">
      <g>
       <use style="stroke:#000000;stroke-width:0.6;" x="342.153235" xlink:href="#me4586dbacc" y="238.8"/>
      </g>
     </g>
    </g>
    <g id="xtick_44">
     <g id="line2d_88">
      <path clip-path="url(#p3a2fcb4b24)" d="M 351.850658 238.8 
L 351.850658 144.478626 
" style="fill:none;stroke:#b0b0b0;stroke-linecap:square;stroke-width:0.8;"/>
     </g>
     <g id="line2d_89">
      <g>
       <use style="stroke:#000000;stroke-width:0.6;" x="351.850658" xlink:href="#me4586dbacc" y="238.8"/>
      </g>
     </g>
    </g>
    <g id="xtick_45">
     <g id="line2d_90">
      <path clip-path="url(#p3a2fcb4b24)" d="M 359.372564 238.8 
L 359.372564 144.478626 
" style="fill:none;stroke:#b0b0b0;stroke-linecap:square;stroke-width:0.8;"/>
     </g>
     <g id="line2d_91">
      <g>
       <use style="stroke:#000000;stroke-width:0.6;" x="359.372564" xlink:href="#me4586dbacc" y="238.8"/>
      </g>
     </g>
    </g>
    <g id="xtick_46">
     <g id="line2d_92">
      <path clip-path="url(#p3a2fcb4b24)" d="M 365.518408 238.8 
L 365.518408 144.478626 
" style="fill:none;stroke:#b0b0b0;stroke-linecap:square;stroke-width:0.8;"/>
     </g>
     <g id="line2d_93">
      <g>
       <use style="stroke:#000000;stroke-width:0.6;" x="365.518408" xlink:href="#me4586dbacc" y="238.8"/>
      </g>
     </g>
    </g>
    <g id="xtick_47">
     <g id="line2d_94">
      <path clip-path="url(#p3a2fcb4b24)" d="M 370.714646 238.8 
L 370.714646 144.478626 
" style="fill:none;stroke:#b0b0b0;stroke-linecap:square;stroke-width:0.8;"/>
     </g>
     <g id="line2d_95">
      <g>
       <use style="stroke:#000000;stroke-width:0.6;" x="370.714646" xlink:href="#me4586dbacc" y="238.8"/>
      </g>
     </g>
    </g>
    <g id="xtick_48">
     <g id="line2d_96">
      <path clip-path="url(#p3a2fcb4b24)" d="M 375.215831 238.8 
L 375.215831 144.478626 
" style="fill:none;stroke:#b0b0b0;stroke-linecap:square;stroke-width:0.8;"/>
     </g>
     <g id="line2d_97">
      <g>
       <use style="stroke:#000000;stroke-width:0.6;" x="375.215831" xlink:href="#me4586dbacc" y="238.8"/>
      </g>
     </g>
    </g>
    <g id="xtick_49">
     <g id="line2d_98">
      <path clip-path="url(#p3a2fcb4b24)" d="M 379.186158 238.8 
L 379.186158 144.478626 
" style="fill:none;stroke:#b0b0b0;stroke-linecap:square;stroke-width:0.8;"/>
     </g>
     <g id="line2d_99">
      <g>
       <use style="stroke:#000000;stroke-width:0.6;" x="379.186158" xlink:href="#me4586dbacc" y="238.8"/>
      </g>
     </g>
    </g>
    <g id="xtick_50">
     <g id="line2d_100">
      <path clip-path="url(#p3a2fcb4b24)" d="M 406.10291 238.8 
L 406.10291 144.478626 
" style="fill:none;stroke:#b0b0b0;stroke-linecap:square;stroke-width:0.8;"/>
     </g>
     <g id="line2d_101">
      <g>
       <use style="stroke:#000000;stroke-width:0.6;" x="406.10291" xlink:href="#me4586dbacc" y="238.8"/>
      </g>
     </g>
    </g>
    <g id="xtick_51">
     <g id="line2d_102">
      <path clip-path="url(#p3a2fcb4b24)" d="M 419.77066 238.8 
L 419.77066 144.478626 
" style="fill:none;stroke:#b0b0b0;stroke-linecap:square;stroke-width:0.8;"/>
     </g>
     <g id="line2d_103">
      <g>
       <use style="stroke:#000000;stroke-width:0.6;" x="419.77066" xlink:href="#me4586dbacc" y="238.8"/>
      </g>
     </g>
    </g>
    <g id="xtick_52">
     <g id="line2d_104">
      <path clip-path="url(#p3a2fcb4b24)" d="M 429.468083 238.8 
L 429.468083 144.478626 
" style="fill:none;stroke:#b0b0b0;stroke-linecap:square;stroke-width:0.8;"/>
     </g>
     <g id="line2d_105">
      <g>
       <use style="stroke:#000000;stroke-width:0.6;" x="429.468083" xlink:href="#me4586dbacc" y="238.8"/>
      </g>
     </g>
    </g>
    <g id="xtick_53">
     <g id="line2d_106">
      <path clip-path="url(#p3a2fcb4b24)" d="M 436.989988 238.8 
L 436.989988 144.478626 
" style="fill:none;stroke:#b0b0b0;stroke-linecap:square;stroke-width:0.8;"/>
     </g>
     <g id="line2d_107">
      <g>
       <use style="stroke:#000000;stroke-width:0.6;" x="436.989988" xlink:href="#me4586dbacc" y="238.8"/>
      </g>
     </g>
    </g>
    <g id="xtick_54">
     <g id="line2d_108">
      <path clip-path="url(#p3a2fcb4b24)" d="M 443.135832 238.8 
L 443.135832 144.478626 
" style="fill:none;stroke:#b0b0b0;stroke-linecap:square;stroke-width:0.8;"/>
     </g>
     <g id="line2d_109">
      <g>
       <use style="stroke:#000000;stroke-width:0.6;" x="443.135832" xlink:href="#me4586dbacc" y="238.8"/>
      </g>
     </g>
    </g>
    <g id="xtick_55">
     <g id="line2d_110">
      <path clip-path="url(#p3a2fcb4b24)" d="M 448.33207 238.8 
L 448.33207 144.478626 
" style="fill:none;stroke:#b0b0b0;stroke-linecap:square;stroke-width:0.8;"/>
     </g>
     <g id="line2d_111">
      <g>
       <use style="stroke:#000000;stroke-width:0.6;" x="448.33207" xlink:href="#me4586dbacc" y="238.8"/>
      </g>
     </g>
    </g>
    <g id="xtick_56">
     <g id="line2d_112">
      <path clip-path="url(#p3a2fcb4b24)" d="M 452.833255 238.8 
L 452.833255 144.478626 
" style="fill:none;stroke:#b0b0b0;stroke-linecap:square;stroke-width:0.8;"/>
     </g>
     <g id="line2d_113">
      <g>
       <use style="stroke:#000000;stroke-width:0.6;" x="452.833255" xlink:href="#me4586dbacc" y="238.8"/>
      </g>
     </g>
    </g>
    <g id="xtick_57">
     <g id="line2d_114">
      <path clip-path="url(#p3a2fcb4b24)" d="M 456.803582 238.8 
L 456.803582 144.478626 
" style="fill:none;stroke:#b0b0b0;stroke-linecap:square;stroke-width:0.8;"/>
     </g>
     <g id="line2d_115">
      <g>
       <use style="stroke:#000000;stroke-width:0.6;" x="456.803582" xlink:href="#me4586dbacc" y="238.8"/>
      </g>
     </g>
    </g>
    <g id="xtick_58">
     <g id="line2d_116">
      <path clip-path="url(#p3a2fcb4b24)" d="M 483.720334 238.8 
L 483.720334 144.478626 
" style="fill:none;stroke:#b0b0b0;stroke-linecap:square;stroke-width:0.8;"/>
     </g>
     <g id="line2d_117">
      <g>
       <use style="stroke:#000000;stroke-width:0.6;" x="483.720334" xlink:href="#me4586dbacc" y="238.8"/>
      </g>
     </g>
    </g>
    <g id="xtick_59">
     <g id="line2d_118">
      <path clip-path="url(#p3a2fcb4b24)" d="M 497.388084 238.8 
L 497.388084 144.478626 
" style="fill:none;stroke:#b0b0b0;stroke-linecap:square;stroke-width:0.8;"/>
     </g>
     <g id="line2d_119">
      <g>
       <use style="stroke:#000000;stroke-width:0.6;" x="497.388084" xlink:href="#me4586dbacc" y="238.8"/>
      </g>
     </g>
    </g>
    <g id="xtick_60">
     <g id="line2d_120">
      <path clip-path="url(#p3a2fcb4b24)" d="M 507.085507 238.8 
L 507.085507 144.478626 
" style="fill:none;stroke:#b0b0b0;stroke-linecap:square;stroke-width:0.8;"/>
     </g>
     <g id="line2d_121">
      <g>
       <use style="stroke:#000000;stroke-width:0.6;" x="507.085507" xlink:href="#me4586dbacc" y="238.8"/>
      </g>
     </g>
    </g>
    <g id="xtick_61">
     <g id="line2d_122">
      <path clip-path="url(#p3a2fcb4b24)" d="M 514.607412 238.8 
L 514.607412 144.478626 
" style="fill:none;stroke:#b0b0b0;stroke-linecap:square;stroke-width:0.8;"/>
     </g>
     <g id="line2d_123">
      <g>
       <use style="stroke:#000000;stroke-width:0.6;" x="514.607412" xlink:href="#me4586dbacc" y="238.8"/>
      </g>
     </g>
    </g>
    <g id="xtick_62">
     <g id="line2d_124">
      <path clip-path="url(#p3a2fcb4b24)" d="M 520.753257 238.8 
L 520.753257 144.478626 
" style="fill:none;stroke:#b0b0b0;stroke-linecap:square;stroke-width:0.8;"/>
     </g>
     <g id="line2d_125">
      <g>
       <use style="stroke:#000000;stroke-width:0.6;" x="520.753257" xlink:href="#me4586dbacc" y="238.8"/>
      </g>
     </g>
    </g>
    <g id="xtick_63">
     <g id="line2d_126">
      <path clip-path="url(#p3a2fcb4b24)" d="M 525.949494 238.8 
L 525.949494 144.478626 
" style="fill:none;stroke:#b0b0b0;stroke-linecap:square;stroke-width:0.8;"/>
     </g>
     <g id="line2d_127">
      <g>
       <use style="stroke:#000000;stroke-width:0.6;" x="525.949494" xlink:href="#me4586dbacc" y="238.8"/>
      </g>
     </g>
    </g>
    <g id="xtick_64">
     <g id="line2d_128">
      <path clip-path="url(#p3a2fcb4b24)" d="M 530.45068 238.8 
L 530.45068 144.478626 
" style="fill:none;stroke:#b0b0b0;stroke-linecap:square;stroke-width:0.8;"/>
     </g>
     <g id="line2d_129">
      <g>
       <use style="stroke:#000000;stroke-width:0.6;" x="530.45068" xlink:href="#me4586dbacc" y="238.8"/>
      </g>
     </g>
    </g>
    <g id="xtick_65">
     <g id="line2d_130">
      <path clip-path="url(#p3a2fcb4b24)" d="M 534.421007 238.8 
L 534.421007 144.478626 
" style="fill:none;stroke:#b0b0b0;stroke-linecap:square;stroke-width:0.8;"/>
     </g>
     <g id="line2d_131">
      <g>
       <use style="stroke:#000000;stroke-width:0.6;" x="534.421007" xlink:href="#me4586dbacc" y="238.8"/>
      </g>
     </g>
    </g>
    <g id="text_19">
     <!-- Frequency [Hz] -->
     <g transform="translate(267.415625 267.076562)scale(0.1 -0.1)">
      <defs>
       <path d="M 9.8125 72.90625 
L 51.703125 72.90625 
L 51.703125 64.59375 
L 19.671875 64.59375 
L 19.671875 43.109375 
L 48.578125 43.109375 
L 48.578125 34.8125 
L 19.671875 34.8125 
L 19.671875 0 
L 9.8125 0 
z
" id="DejaVuSans-70"/>
       <path d="M 41.109375 46.296875 
Q 39.59375 47.171875 37.8125 47.578125 
Q 36.03125 48 33.890625 48 
Q 26.265625 48 22.1875 43.046875 
Q 18.109375 38.09375 18.109375 28.8125 
L 18.109375 0 
L 9.078125 0 
L 9.078125 54.6875 
L 18.109375 54.6875 
L 18.109375 46.1875 
Q 20.953125 51.171875 25.484375 53.578125 
Q 30.03125 56 36.53125 56 
Q 37.453125 56 38.578125 55.875 
Q 39.703125 55.765625 41.0625 55.515625 
z
" id="DejaVuSans-114"/>
       <path d="M 14.796875 27.296875 
Q 14.796875 17.390625 18.875 11.75 
Q 22.953125 6.109375 30.078125 6.109375 
Q 37.203125 6.109375 41.296875 11.75 
Q 45.40625 17.390625 45.40625 27.296875 
Q 45.40625 37.203125 41.296875 42.84375 
Q 37.203125 48.484375 30.078125 48.484375 
Q 22.953125 48.484375 18.875 42.84375 
Q 14.796875 37.203125 14.796875 27.296875 
z
M 45.40625 8.203125 
Q 42.578125 3.328125 38.25 0.953125 
Q 33.9375 -1.421875 27.875 -1.421875 
Q 17.96875 -1.421875 11.734375 6.484375 
Q 5.515625 14.40625 5.515625 27.296875 
Q 5.515625 40.1875 11.734375 48.09375 
Q 17.96875 56 27.875 56 
Q 33.9375 56 38.25 53.625 
Q 42.578125 51.265625 45.40625 46.390625 
L 45.40625 54.6875 
L 54.390625 54.6875 
L 54.390625 -20.796875 
L 45.40625 -20.796875 
z
" id="DejaVuSans-113"/>
       <path d="M 8.5 21.578125 
L 8.5 54.6875 
L 17.484375 54.6875 
L 17.484375 21.921875 
Q 17.484375 14.15625 20.5 10.265625 
Q 23.53125 6.390625 29.59375 6.390625 
Q 36.859375 6.390625 41.078125 11.03125 
Q 45.3125 15.671875 45.3125 23.6875 
L 45.3125 54.6875 
L 54.296875 54.6875 
L 54.296875 0 
L 45.3125 0 
L 45.3125 8.40625 
Q 42.046875 3.421875 37.71875 1 
Q 33.40625 -1.421875 27.6875 -1.421875 
Q 18.265625 -1.421875 13.375 4.4375 
Q 8.5 10.296875 8.5 21.578125 
z
M 31.109375 56 
z
" id="DejaVuSans-117"/>
       <path d="M 54.890625 33.015625 
L 54.890625 0 
L 45.90625 0 
L 45.90625 32.71875 
Q 45.90625 40.484375 42.875 44.328125 
Q 39.84375 48.1875 33.796875 48.1875 
Q 26.515625 48.1875 22.3125 43.546875 
Q 18.109375 38.921875 18.109375 30.90625 
L 18.109375 0 
L 9.078125 0 
L 9.078125 54.6875 
L 18.109375 54.6875 
L 18.109375 46.1875 
Q 21.34375 51.125 25.703125 53.5625 
Q 30.078125 56 35.796875 56 
Q 45.21875 56 50.046875 50.171875 
Q 54.890625 44.34375 54.890625 33.015625 
z
" id="DejaVuSans-110"/>
       <path d="M 48.78125 52.59375 
L 48.78125 44.1875 
Q 44.96875 46.296875 41.140625 47.34375 
Q 37.3125 48.390625 33.40625 48.390625 
Q 24.65625 48.390625 19.8125 42.84375 
Q 14.984375 37.3125 14.984375 27.296875 
Q 14.984375 17.28125 19.8125 11.734375 
Q 24.65625 6.203125 33.40625 6.203125 
Q 37.3125 6.203125 41.140625 7.25 
Q 44.96875 8.296875 48.78125 10.40625 
L 48.78125 2.09375 
Q 45.015625 0.34375 40.984375 -0.53125 
Q 36.96875 -1.421875 32.421875 -1.421875 
Q 20.0625 -1.421875 12.78125 6.34375 
Q 5.515625 14.109375 5.515625 27.296875 
Q 5.515625 40.671875 12.859375 48.328125 
Q 20.21875 56 33.015625 56 
Q 37.15625 56 41.109375 55.140625 
Q 45.0625 54.296875 48.78125 52.59375 
z
" id="DejaVuSans-99"/>
       <path d="M 32.171875 -5.078125 
Q 28.375 -14.84375 24.75 -17.8125 
Q 21.140625 -20.796875 15.09375 -20.796875 
L 7.90625 -20.796875 
L 7.90625 -13.28125 
L 13.1875 -13.28125 
Q 16.890625 -13.28125 18.9375 -11.515625 
Q 21 -9.765625 23.484375 -3.21875 
L 25.09375 0.875 
L 2.984375 54.6875 
L 12.5 54.6875 
L 29.59375 11.921875 
L 46.6875 54.6875 
L 56.203125 54.6875 
z
" id="DejaVuSans-121"/>
       <path d="M 9.8125 72.90625 
L 19.671875 72.90625 
L 19.671875 43.015625 
L 55.515625 43.015625 
L 55.515625 72.90625 
L 65.375 72.90625 
L 65.375 0 
L 55.515625 0 
L 55.515625 34.71875 
L 19.671875 34.71875 
L 19.671875 0 
L 9.8125 0 
z
" id="DejaVuSans-72"/>
       <path d="M 5.515625 54.6875 
L 48.1875 54.6875 
L 48.1875 46.484375 
L 14.40625 7.171875 
L 48.1875 7.171875 
L 48.1875 0 
L 4.296875 0 
L 4.296875 8.203125 
L 38.09375 47.515625 
L 5.515625 47.515625 
z
" id="DejaVuSans-122"/>
      </defs>
      <use xlink:href="#DejaVuSans-70"/>
      <use x="50.269531" xlink:href="#DejaVuSans-114"/>
      <use x="89.132812" xlink:href="#DejaVuSans-101"/>
      <use x="150.65625" xlink:href="#DejaVuSans-113"/>
      <use x="214.132812" xlink:href="#DejaVuSans-117"/>
      <use x="277.511719" xlink:href="#DejaVuSans-101"/>
      <use x="339.035156" xlink:href="#DejaVuSans-110"/>
      <use x="402.414062" xlink:href="#DejaVuSans-99"/>
      <use x="457.394531" xlink:href="#DejaVuSans-121"/>
      <use x="516.574219" xlink:href="#DejaVuSans-32"/>
      <use x="548.361328" xlink:href="#DejaVuSans-91"/>
      <use x="587.375" xlink:href="#DejaVuSans-72"/>
      <use x="662.570312" xlink:href="#DejaVuSans-122"/>
      <use x="715.060547" xlink:href="#DejaVuSans-93"/>
     </g>
    </g>
   </g>
   <g id="matplotlib.axis_4">
    <g id="ytick_4">
     <g id="line2d_132">
      <path clip-path="url(#p3a2fcb4b24)" d="M 48.982813 222.5009 
L 561.257812 222.5009 
" style="fill:none;stroke:#b0b0b0;stroke-linecap:square;stroke-width:0.8;"/>
     </g>
     <g id="line2d_133">
      <g>
       <use style="stroke:#000000;stroke-width:0.8;" x="48.982813" xlink:href="#m6d16ce1e2b" y="222.5009"/>
      </g>
     </g>
     <g id="text_20">
      <!-- 75 -->
      <g transform="translate(20.878125 226.300119)scale(0.1 -0.1)">
       <defs>
        <path d="M 10.59375 35.5 
L 73.1875 35.5 
L 73.1875 27.203125 
L 10.59375 27.203125 
z
" id="DejaVuSans-8722"/>
        <path d="M 8.203125 72.90625 
L 55.078125 72.90625 
L 55.078125 68.703125 
L 28.609375 0 
L 18.3125 0 
L 43.21875 64.59375 
L 8.203125 64.59375 
z
" id="DejaVuSans-55"/>
       </defs>
       <use xlink:href="#DejaVuSans-8722"/>
       <use x="83.789062" xlink:href="#DejaVuSans-55"/>
       <use x="147.412109" xlink:href="#DejaVuSans-53"/>
      </g>
     </g>
    </g>
    <g id="ytick_5">
     <g id="line2d_134">
      <path clip-path="url(#p3a2fcb4b24)" d="M 48.982813 197.397771 
L 561.257812 197.397771 
" style="fill:none;stroke:#b0b0b0;stroke-linecap:square;stroke-width:0.8;"/>
     </g>
     <g id="line2d_135">
      <g>
       <use style="stroke:#000000;stroke-width:0.8;" x="48.982813" xlink:href="#m6d16ce1e2b" y="197.397771"/>
      </g>
     </g>
     <g id="text_21">
      <!-- 50 -->
      <g transform="translate(20.878125 201.19699)scale(0.1 -0.1)">
       <use xlink:href="#DejaVuSans-8722"/>
       <use x="83.789062" xlink:href="#DejaVuSans-53"/>
       <use x="147.412109" xlink:href="#DejaVuSans-48"/>
      </g>
     </g>
    </g>
    <g id="ytick_6">
     <g id="line2d_136">
      <path clip-path="url(#p3a2fcb4b24)" d="M 48.982813 172.294642 
L 561.257812 172.294642 
" style="fill:none;stroke:#b0b0b0;stroke-linecap:square;stroke-width:0.8;"/>
     </g>
     <g id="line2d_137">
      <g>
       <use style="stroke:#000000;stroke-width:0.8;" x="48.982813" xlink:href="#m6d16ce1e2b" y="172.294642"/>
      </g>
     </g>
     <g id="text_22">
      <!-- 25 -->
      <g transform="translate(20.878125 176.093861)scale(0.1 -0.1)">
       <use xlink:href="#DejaVuSans-8722"/>
       <use x="83.789062" xlink:href="#DejaVuSans-50"/>
       <use x="147.412109" xlink:href="#DejaVuSans-53"/>
      </g>
     </g>
    </g>
    <g id="ytick_7">
     <g id="line2d_138">
      <path clip-path="url(#p3a2fcb4b24)" d="M 48.982813 147.191513 
L 561.257812 147.191513 
" style="fill:none;stroke:#b0b0b0;stroke-linecap:square;stroke-width:0.8;"/>
     </g>
     <g id="line2d_139">
      <g>
       <use style="stroke:#000000;stroke-width:0.8;" x="48.982813" xlink:href="#m6d16ce1e2b" y="147.191513"/>
      </g>
     </g>
     <g id="text_23">
      <!-- 0 -->
      <g transform="translate(35.620313 150.990732)scale(0.1 -0.1)">
       <use xlink:href="#DejaVuSans-48"/>
      </g>
     </g>
    </g>
    <g id="text_24">
     <!-- Gain [dB] -->
     <g transform="translate(14.798438 215.230719)rotate(-90)scale(0.1 -0.1)">
      <defs>
       <path d="M 59.515625 10.40625 
L 59.515625 29.984375 
L 43.40625 29.984375 
L 43.40625 38.09375 
L 69.28125 38.09375 
L 69.28125 6.78125 
Q 63.578125 2.734375 56.6875 0.65625 
Q 49.8125 -1.421875 42 -1.421875 
Q 24.90625 -1.421875 15.25 8.5625 
Q 5.609375 18.5625 5.609375 36.375 
Q 5.609375 54.25 15.25 64.234375 
Q 24.90625 74.21875 42 74.21875 
Q 49.125 74.21875 55.546875 72.453125 
Q 61.96875 70.703125 67.390625 67.28125 
L 67.390625 56.78125 
Q 61.921875 61.421875 55.765625 63.765625 
Q 49.609375 66.109375 42.828125 66.109375 
Q 29.4375 66.109375 22.71875 58.640625 
Q 16.015625 51.171875 16.015625 36.375 
Q 16.015625 21.625 22.71875 14.15625 
Q 29.4375 6.6875 42.828125 6.6875 
Q 48.046875 6.6875 52.140625 7.59375 
Q 56.25 8.5 59.515625 10.40625 
z
" id="DejaVuSans-71"/>
       <path d="M 34.28125 27.484375 
Q 23.390625 27.484375 19.1875 25 
Q 14.984375 22.515625 14.984375 16.5 
Q 14.984375 11.71875 18.140625 8.90625 
Q 21.296875 6.109375 26.703125 6.109375 
Q 34.1875 6.109375 38.703125 11.40625 
Q 43.21875 16.703125 43.21875 25.484375 
L 43.21875 27.484375 
z
M 52.203125 31.203125 
L 52.203125 0 
L 43.21875 0 
L 43.21875 8.296875 
Q 40.140625 3.328125 35.546875 0.953125 
Q 30.953125 -1.421875 24.3125 -1.421875 
Q 15.921875 -1.421875 10.953125 3.296875 
Q 6 8.015625 6 15.921875 
Q 6 25.140625 12.171875 29.828125 
Q 18.359375 34.515625 30.609375 34.515625 
L 43.21875 34.515625 
L 43.21875 35.40625 
Q 43.21875 41.609375 39.140625 45 
Q 35.0625 48.390625 27.6875 48.390625 
Q 23 48.390625 18.546875 47.265625 
Q 14.109375 46.140625 10.015625 43.890625 
L 10.015625 52.203125 
Q 14.9375 54.109375 19.578125 55.046875 
Q 24.21875 56 28.609375 56 
Q 40.484375 56 46.34375 49.84375 
Q 52.203125 43.703125 52.203125 31.203125 
z
" id="DejaVuSans-97"/>
       <path d="M 45.40625 46.390625 
L 45.40625 75.984375 
L 54.390625 75.984375 
L 54.390625 0 
L 45.40625 0 
L 45.40625 8.203125 
Q 42.578125 3.328125 38.25 0.953125 
Q 33.9375 -1.421875 27.875 -1.421875 
Q 17.96875 -1.421875 11.734375 6.484375 
Q 5.515625 14.40625 5.515625 27.296875 
Q 5.515625 40.1875 11.734375 48.09375 
Q 17.96875 56 27.875 56 
Q 33.9375 56 38.25 53.625 
Q 42.578125 51.265625 45.40625 46.390625 
z
M 14.796875 27.296875 
Q 14.796875 17.390625 18.875 11.75 
Q 22.953125 6.109375 30.078125 6.109375 
Q 37.203125 6.109375 41.296875 11.75 
Q 45.40625 17.390625 45.40625 27.296875 
Q 45.40625 37.203125 41.296875 42.84375 
Q 37.203125 48.484375 30.078125 48.484375 
Q 22.953125 48.484375 18.875 42.84375 
Q 14.796875 37.203125 14.796875 27.296875 
z
" id="DejaVuSans-100"/>
       <path d="M 19.671875 34.8125 
L 19.671875 8.109375 
L 35.5 8.109375 
Q 43.453125 8.109375 47.28125 11.40625 
Q 51.125 14.703125 51.125 21.484375 
Q 51.125 28.328125 47.28125 31.5625 
Q 43.453125 34.8125 35.5 34.8125 
z
M 19.671875 64.796875 
L 19.671875 42.828125 
L 34.28125 42.828125 
Q 41.5 42.828125 45.03125 45.53125 
Q 48.578125 48.25 48.578125 53.8125 
Q 48.578125 59.328125 45.03125 62.0625 
Q 41.5 64.796875 34.28125 64.796875 
z
M 9.8125 72.90625 
L 35.015625 72.90625 
Q 46.296875 72.90625 52.390625 68.21875 
Q 58.5 63.53125 58.5 54.890625 
Q 58.5 48.1875 55.375 44.234375 
Q 52.25 40.28125 46.1875 39.3125 
Q 53.46875 37.75 57.5 32.78125 
Q 61.53125 27.828125 61.53125 20.40625 
Q 61.53125 10.640625 54.890625 5.3125 
Q 48.25 0 35.984375 0 
L 9.8125 0 
z
" id="DejaVuSans-66"/>
      </defs>
      <use xlink:href="#DejaVuSans-71"/>
      <use x="77.490234" xlink:href="#DejaVuSans-97"/>
      <use x="138.769531" xlink:href="#DejaVuSans-105"/>
      <use x="166.552734" xlink:href="#DejaVuSans-110"/>
      <use x="229.931641" xlink:href="#DejaVuSans-32"/>
      <use x="261.71875" xlink:href="#DejaVuSans-91"/>
      <use x="300.732422" xlink:href="#DejaVuSans-100"/>
      <use x="364.208984" xlink:href="#DejaVuSans-66"/>
      <use x="432.8125" xlink:href="#DejaVuSans-93"/>
     </g>
    </g>
   </g>
   <g id="line2d_140">
    <path clip-path="url(#p3a2fcb4b24)" d="M 72.26804 217.754855 
L 80.029783 217.755077 
L 87.791525 217.755284 
L 95.553266 217.755461 
L 103.315008 217.755591 
L 111.076752 217.755683 
L 118.838494 217.755721 
L 126.600236 217.755713 
L 134.36198 217.75566 
L 142.123721 217.755514 
L 149.885464 217.755284 
L 157.647207 217.754901 
L 165.40895 217.754288 
L 173.170692 217.7533 
L 180.932433 217.75173 
L 188.694176 217.749255 
L 196.45592 217.745325 
L 204.217662 217.739105 
L 211.979403 217.729268 
L 219.741146 217.713732 
L 227.502888 217.689255 
L 235.26463 217.650805 
L 243.026373 217.590714 
L 250.788115 217.497534 
L 258.549858 217.354805 
L 266.311599 217.14004 
L 274.073343 216.82524 
L 281.835085 216.380297 
L 289.596827 215.781041 
L 297.358571 215.021205 
L 305.120312 214.123911 
L 312.882055 213.146568 
L 320.643797 212.175722 
L 328.40554 211.314154 
L 336.167283 210.66483 
L 343.929024 210.316517 
L 351.690768 210.334731 
L 359.452511 210.759947 
L 367.214251 211.612043 
L 374.975994 212.901589 
L 382.737737 214.652672 
L 390.499479 216.947921 
L 398.261221 220.031971 
L 406.022964 224.659924 
L 413.784708 234.512665 
L 421.54645 232.688842 
L 429.308193 223.731596 
L 437.069933 219.083801 
L 444.831676 215.747831 
L 452.593417 213.011859 
L 460.355161 210.602961 
L 468.116903 208.396516 
L 475.878644 206.33487 
L 483.640389 204.397693 
L 491.40213 202.589449 
L 499.163875 200.932886 
L 506.925614 199.463095 
L 514.687357 198.219453 
L 522.449102 197.235713 
L 530.210843 196.532415 
L 537.972585 196.116966 
" style="fill:none;stroke:#ff0000;stroke-linecap:square;stroke-width:1.5;"/>
    <defs>
     <path d="M 0 1.5 
C 0.397805 1.5 0.77937 1.341951 1.06066 1.06066 
C 1.341951 0.77937 1.5 0.397805 1.5 0 
C 1.5 -0.397805 1.341951 -0.77937 1.06066 -1.06066 
C 0.77937 -1.341951 0.397805 -1.5 0 -1.5 
C -0.397805 -1.5 -0.77937 -1.341951 -1.06066 -1.06066 
C -1.341951 -0.77937 -1.5 -0.397805 -1.5 0 
C -1.5 0.397805 -1.341951 0.77937 -1.06066 1.06066 
C -0.77937 1.341951 -0.397805 1.5 0 1.5 
z
" id="m3819391f5e" style="stroke:#ff0000;"/>
    </defs>
    <g clip-path="url(#p3a2fcb4b24)">
     <use style="fill:#ff0000;stroke:#ff0000;" x="72.26804" xlink:href="#m3819391f5e" y="217.754855"/>
     <use style="fill:#ff0000;stroke:#ff0000;" x="80.029783" xlink:href="#m3819391f5e" y="217.755077"/>
     <use style="fill:#ff0000;stroke:#ff0000;" x="87.791525" xlink:href="#m3819391f5e" y="217.755284"/>
     <use style="fill:#ff0000;stroke:#ff0000;" x="95.553266" xlink:href="#m3819391f5e" y="217.755461"/>
     <use style="fill:#ff0000;stroke:#ff0000;" x="103.315008" xlink:href="#m3819391f5e" y="217.755591"/>
     <use style="fill:#ff0000;stroke:#ff0000;" x="111.076752" xlink:href="#m3819391f5e" y="217.755683"/>
     <use style="fill:#ff0000;stroke:#ff0000;" x="118.838494" xlink:href="#m3819391f5e" y="217.755721"/>
     <use style="fill:#ff0000;stroke:#ff0000;" x="126.600236" xlink:href="#m3819391f5e" y="217.755713"/>
     <use style="fill:#ff0000;stroke:#ff0000;" x="134.36198" xlink:href="#m3819391f5e" y="217.75566"/>
     <use style="fill:#ff0000;stroke:#ff0000;" x="142.123721" xlink:href="#m3819391f5e" y="217.755514"/>
     <use style="fill:#ff0000;stroke:#ff0000;" x="149.885464" xlink:href="#m3819391f5e" y="217.755284"/>
     <use style="fill:#ff0000;stroke:#ff0000;" x="157.647207" xlink:href="#m3819391f5e" y="217.754901"/>
     <use style="fill:#ff0000;stroke:#ff0000;" x="165.40895" xlink:href="#m3819391f5e" y="217.754288"/>
     <use style="fill:#ff0000;stroke:#ff0000;" x="173.170692" xlink:href="#m3819391f5e" y="217.7533"/>
     <use style="fill:#ff0000;stroke:#ff0000;" x="180.932433" xlink:href="#m3819391f5e" y="217.75173"/>
     <use style="fill:#ff0000;stroke:#ff0000;" x="188.694176" xlink:href="#m3819391f5e" y="217.749255"/>
     <use style="fill:#ff0000;stroke:#ff0000;" x="196.45592" xlink:href="#m3819391f5e" y="217.745325"/>
     <use style="fill:#ff0000;stroke:#ff0000;" x="204.217662" xlink:href="#m3819391f5e" y="217.739105"/>
     <use style="fill:#ff0000;stroke:#ff0000;" x="211.979403" xlink:href="#m3819391f5e" y="217.729268"/>
     <use style="fill:#ff0000;stroke:#ff0000;" x="219.741146" xlink:href="#m3819391f5e" y="217.713732"/>
     <use style="fill:#ff0000;stroke:#ff0000;" x="227.502888" xlink:href="#m3819391f5e" y="217.689255"/>
     <use style="fill:#ff0000;stroke:#ff0000;" x="235.26463" xlink:href="#m3819391f5e" y="217.650805"/>
     <use style="fill:#ff0000;stroke:#ff0000;" x="243.026373" xlink:href="#m3819391f5e" y="217.590714"/>
     <use style="fill:#ff0000;stroke:#ff0000;" x="250.788115" xlink:href="#m3819391f5e" y="217.497534"/>
     <use style="fill:#ff0000;stroke:#ff0000;" x="258.549858" xlink:href="#m3819391f5e" y="217.354805"/>
     <use style="fill:#ff0000;stroke:#ff0000;" x="266.311599" xlink:href="#m3819391f5e" y="217.14004"/>
     <use style="fill:#ff0000;stroke:#ff0000;" x="274.073343" xlink:href="#m3819391f5e" y="216.82524"/>
     <use style="fill:#ff0000;stroke:#ff0000;" x="281.835085" xlink:href="#m3819391f5e" y="216.380297"/>
     <use style="fill:#ff0000;stroke:#ff0000;" x="289.596827" xlink:href="#m3819391f5e" y="215.781041"/>
     <use style="fill:#ff0000;stroke:#ff0000;" x="297.358571" xlink:href="#m3819391f5e" y="215.021205"/>
     <use style="fill:#ff0000;stroke:#ff0000;" x="305.120312" xlink:href="#m3819391f5e" y="214.123911"/>
     <use style="fill:#ff0000;stroke:#ff0000;" x="312.882055" xlink:href="#m3819391f5e" y="213.146568"/>
     <use style="fill:#ff0000;stroke:#ff0000;" x="320.643797" xlink:href="#m3819391f5e" y="212.175722"/>
     <use style="fill:#ff0000;stroke:#ff0000;" x="328.40554" xlink:href="#m3819391f5e" y="211.314154"/>
     <use style="fill:#ff0000;stroke:#ff0000;" x="336.167283" xlink:href="#m3819391f5e" y="210.66483"/>
     <use style="fill:#ff0000;stroke:#ff0000;" x="343.929024" xlink:href="#m3819391f5e" y="210.316517"/>
     <use style="fill:#ff0000;stroke:#ff0000;" x="351.690768" xlink:href="#m3819391f5e" y="210.334731"/>
     <use style="fill:#ff0000;stroke:#ff0000;" x="359.452511" xlink:href="#m3819391f5e" y="210.759947"/>
     <use style="fill:#ff0000;stroke:#ff0000;" x="367.214251" xlink:href="#m3819391f5e" y="211.612043"/>
     <use style="fill:#ff0000;stroke:#ff0000;" x="374.975994" xlink:href="#m3819391f5e" y="212.901589"/>
     <use style="fill:#ff0000;stroke:#ff0000;" x="382.737737" xlink:href="#m3819391f5e" y="214.652672"/>
     <use style="fill:#ff0000;stroke:#ff0000;" x="390.499479" xlink:href="#m3819391f5e" y="216.947921"/>
     <use style="fill:#ff0000;stroke:#ff0000;" x="398.261221" xlink:href="#m3819391f5e" y="220.031971"/>
     <use style="fill:#ff0000;stroke:#ff0000;" x="406.022964" xlink:href="#m3819391f5e" y="224.659924"/>
     <use style="fill:#ff0000;stroke:#ff0000;" x="413.784708" xlink:href="#m3819391f5e" y="234.512665"/>
     <use style="fill:#ff0000;stroke:#ff0000;" x="421.54645" xlink:href="#m3819391f5e" y="232.688842"/>
     <use style="fill:#ff0000;stroke:#ff0000;" x="429.308193" xlink:href="#m3819391f5e" y="223.731596"/>
     <use style="fill:#ff0000;stroke:#ff0000;" x="437.069933" xlink:href="#m3819391f5e" y="219.083801"/>
     <use style="fill:#ff0000;stroke:#ff0000;" x="444.831676" xlink:href="#m3819391f5e" y="215.747831"/>
     <use style="fill:#ff0000;stroke:#ff0000;" x="452.593417" xlink:href="#m3819391f5e" y="213.011859"/>
     <use style="fill:#ff0000;stroke:#ff0000;" x="460.355161" xlink:href="#m3819391f5e" y="210.602961"/>
     <use style="fill:#ff0000;stroke:#ff0000;" x="468.116903" xlink:href="#m3819391f5e" y="208.396516"/>
     <use style="fill:#ff0000;stroke:#ff0000;" x="475.878644" xlink:href="#m3819391f5e" y="206.33487"/>
     <use style="fill:#ff0000;stroke:#ff0000;" x="483.640389" xlink:href="#m3819391f5e" y="204.397693"/>
     <use style="fill:#ff0000;stroke:#ff0000;" x="491.40213" xlink:href="#m3819391f5e" y="202.589449"/>
     <use style="fill:#ff0000;stroke:#ff0000;" x="499.163875" xlink:href="#m3819391f5e" y="200.932886"/>
     <use style="fill:#ff0000;stroke:#ff0000;" x="506.925614" xlink:href="#m3819391f5e" y="199.463095"/>
     <use style="fill:#ff0000;stroke:#ff0000;" x="514.687357" xlink:href="#m3819391f5e" y="198.219453"/>
     <use style="fill:#ff0000;stroke:#ff0000;" x="522.449102" xlink:href="#m3819391f5e" y="197.235713"/>
     <use style="fill:#ff0000;stroke:#ff0000;" x="530.210843" xlink:href="#m3819391f5e" y="196.532415"/>
     <use style="fill:#ff0000;stroke:#ff0000;" x="537.972585" xlink:href="#m3819391f5e" y="196.116966"/>
    </g>
   </g>
   <g id="line2d_141">
    <path clip-path="url(#p3a2fcb4b24)" d="M 72.26804 210.469758 
L 80.029783 210.469976 
L 87.791525 210.470183 
L 95.553266 210.470359 
L 103.315008 210.470501 
L 111.076752 210.470585 
L 118.838494 210.470635 
L 126.600236 210.470627 
L 134.36198 210.470574 
L 142.123721 210.470451 
L 149.885464 210.470229 
L 157.647207 210.469873 
L 165.40895 210.469287 
L 173.170692 210.468363 
L 180.932433 210.466904 
L 188.694176 210.464571 
L 196.45592 210.460894 
L 204.217662 210.45506 
L 211.979403 210.445829 
L 219.741146 210.431258 
L 227.502888 210.408275 
L 235.26463 210.372147 
L 243.026373 210.315617 
L 250.788115 210.227805 
L 258.549858 210.092881 
L 266.311599 209.888972 
L 274.073343 209.588134 
L 281.835085 209.159006 
L 289.596827 208.573693 
L 297.358571 207.818764 
L 305.120312 206.906459 
L 312.882055 205.879722 
L 320.643797 204.806749 
L 328.40554 203.766434 
L 336.167283 202.830123 
L 343.929024 202.04596 
L 351.690768 201.431555 
L 359.452511 200.977239 
L 367.214251 200.656719 
L 374.975994 200.438492 
L 382.737737 200.293637 
L 390.499479 200.199136 
L 398.261221 200.138255 
L 406.022964 200.099571 
L 413.784708 200.075589 
L 421.54645 200.061531 
L 429.308193 200.054238 
L 437.069933 200.051503 
L 444.831676 200.051748 
L 452.593417 200.054008 
L 460.355161 200.05795 
L 468.116903 200.063902 
L 475.878644 200.072835 
L 483.640389 200.086506 
L 491.40213 200.107692 
L 499.163875 200.140745 
L 506.925614 200.192379 
L 514.687357 200.27301 
L 522.449102 200.398763 
L 530.210843 200.594506 
L 537.972585 200.898133 
" style="fill:none;stroke:#008000;stroke-linecap:square;stroke-width:1.5;"/>
    <defs>
     <path d="M 0 1.5 
C 0.397805 1.5 0.77937 1.341951 1.06066 1.06066 
C 1.341951 0.77937 1.5 0.397805 1.5 0 
C 1.5 -0.397805 1.341951 -0.77937 1.06066 -1.06066 
C 0.77937 -1.341951 0.397805 -1.5 0 -1.5 
C -0.397805 -1.5 -0.77937 -1.341951 -1.06066 -1.06066 
C -1.341951 -0.77937 -1.5 -0.397805 -1.5 0 
C -1.5 0.397805 -1.341951 0.77937 -1.06066 1.06066 
C -0.77937 1.341951 -0.397805 1.5 0 1.5 
z
" id="mc6eaa63c1e" style="stroke:#008000;"/>
    </defs>
    <g clip-path="url(#p3a2fcb4b24)">
     <use style="fill:#008000;stroke:#008000;" x="72.26804" xlink:href="#mc6eaa63c1e" y="210.469758"/>
     <use style="fill:#008000;stroke:#008000;" x="80.029783" xlink:href="#mc6eaa63c1e" y="210.469976"/>
     <use style="fill:#008000;stroke:#008000;" x="87.791525" xlink:href="#mc6eaa63c1e" y="210.470183"/>
     <use style="fill:#008000;stroke:#008000;" x="95.553266" xlink:href="#mc6eaa63c1e" y="210.470359"/>
     <use style="fill:#008000;stroke:#008000;" x="103.315008" xlink:href="#mc6eaa63c1e" y="210.470501"/>
     <use style="fill:#008000;stroke:#008000;" x="111.076752" xlink:href="#mc6eaa63c1e" y="210.470585"/>
     <use style="fill:#008000;stroke:#008000;" x="118.838494" xlink:href="#mc6eaa63c1e" y="210.470635"/>
     <use style="fill:#008000;stroke:#008000;" x="126.600236" xlink:href="#mc6eaa63c1e" y="210.470627"/>
     <use style="fill:#008000;stroke:#008000;" x="134.36198" xlink:href="#mc6eaa63c1e" y="210.470574"/>
     <use style="fill:#008000;stroke:#008000;" x="142.123721" xlink:href="#mc6eaa63c1e" y="210.470451"/>
     <use style="fill:#008000;stroke:#008000;" x="149.885464" xlink:href="#mc6eaa63c1e" y="210.470229"/>
     <use style="fill:#008000;stroke:#008000;" x="157.647207" xlink:href="#mc6eaa63c1e" y="210.469873"/>
     <use style="fill:#008000;stroke:#008000;" x="165.40895" xlink:href="#mc6eaa63c1e" y="210.469287"/>
     <use style="fill:#008000;stroke:#008000;" x="173.170692" xlink:href="#mc6eaa63c1e" y="210.468363"/>
     <use style="fill:#008000;stroke:#008000;" x="180.932433" xlink:href="#mc6eaa63c1e" y="210.466904"/>
     <use style="fill:#008000;stroke:#008000;" x="188.694176" xlink:href="#mc6eaa63c1e" y="210.464571"/>
     <use style="fill:#008000;stroke:#008000;" x="196.45592" xlink:href="#mc6eaa63c1e" y="210.460894"/>
     <use style="fill:#008000;stroke:#008000;" x="204.217662" xlink:href="#mc6eaa63c1e" y="210.45506"/>
     <use style="fill:#008000;stroke:#008000;" x="211.979403" xlink:href="#mc6eaa63c1e" y="210.445829"/>
     <use style="fill:#008000;stroke:#008000;" x="219.741146" xlink:href="#mc6eaa63c1e" y="210.431258"/>
     <use style="fill:#008000;stroke:#008000;" x="227.502888" xlink:href="#mc6eaa63c1e" y="210.408275"/>
     <use style="fill:#008000;stroke:#008000;" x="235.26463" xlink:href="#mc6eaa63c1e" y="210.372147"/>
     <use style="fill:#008000;stroke:#008000;" x="243.026373" xlink:href="#mc6eaa63c1e" y="210.315617"/>
     <use style="fill:#008000;stroke:#008000;" x="250.788115" xlink:href="#mc6eaa63c1e" y="210.227805"/>
     <use style="fill:#008000;stroke:#008000;" x="258.549858" xlink:href="#mc6eaa63c1e" y="210.092881"/>
     <use style="fill:#008000;stroke:#008000;" x="266.311599" xlink:href="#mc6eaa63c1e" y="209.888972"/>
     <use style="fill:#008000;stroke:#008000;" x="274.073343" xlink:href="#mc6eaa63c1e" y="209.588134"/>
     <use style="fill:#008000;stroke:#008000;" x="281.835085" xlink:href="#mc6eaa63c1e" y="209.159006"/>
     <use style="fill:#008000;stroke:#008000;" x="289.596827" xlink:href="#mc6eaa63c1e" y="208.573693"/>
     <use style="fill:#008000;stroke:#008000;" x="297.358571" xlink:href="#mc6eaa63c1e" y="207.818764"/>
     <use style="fill:#008000;stroke:#008000;" x="305.120312" xlink:href="#mc6eaa63c1e" y="206.906459"/>
     <use style="fill:#008000;stroke:#008000;" x="312.882055" xlink:href="#mc6eaa63c1e" y="205.879722"/>
     <use style="fill:#008000;stroke:#008000;" x="320.643797" xlink:href="#mc6eaa63c1e" y="204.806749"/>
     <use style="fill:#008000;stroke:#008000;" x="328.40554" xlink:href="#mc6eaa63c1e" y="203.766434"/>
     <use style="fill:#008000;stroke:#008000;" x="336.167283" xlink:href="#mc6eaa63c1e" y="202.830123"/>
     <use style="fill:#008000;stroke:#008000;" x="343.929024" xlink:href="#mc6eaa63c1e" y="202.04596"/>
     <use style="fill:#008000;stroke:#008000;" x="351.690768" xlink:href="#mc6eaa63c1e" y="201.431555"/>
     <use style="fill:#008000;stroke:#008000;" x="359.452511" xlink:href="#mc6eaa63c1e" y="200.977239"/>
     <use style="fill:#008000;stroke:#008000;" x="367.214251" xlink:href="#mc6eaa63c1e" y="200.656719"/>
     <use style="fill:#008000;stroke:#008000;" x="374.975994" xlink:href="#mc6eaa63c1e" y="200.438492"/>
     <use style="fill:#008000;stroke:#008000;" x="382.737737" xlink:href="#mc6eaa63c1e" y="200.293637"/>
     <use style="fill:#008000;stroke:#008000;" x="390.499479" xlink:href="#mc6eaa63c1e" y="200.199136"/>
     <use style="fill:#008000;stroke:#008000;" x="398.261221" xlink:href="#mc6eaa63c1e" y="200.138255"/>
     <use style="fill:#008000;stroke:#008000;" x="406.022964" xlink:href="#mc6eaa63c1e" y="200.099571"/>
     <use style="fill:#008000;stroke:#008000;" x="413.784708" xlink:href="#mc6eaa63c1e" y="200.075589"/>
     <use style="fill:#008000;stroke:#008000;" x="421.54645" xlink:href="#mc6eaa63c1e" y="200.061531"/>
     <use style="fill:#008000;stroke:#008000;" x="429.308193" xlink:href="#mc6eaa63c1e" y="200.054238"/>
     <use style="fill:#008000;stroke:#008000;" x="437.069933" xlink:href="#mc6eaa63c1e" y="200.051503"/>
     <use style="fill:#008000;stroke:#008000;" x="444.831676" xlink:href="#mc6eaa63c1e" y="200.051748"/>
     <use style="fill:#008000;stroke:#008000;" x="452.593417" xlink:href="#mc6eaa63c1e" y="200.054008"/>
     <use style="fill:#008000;stroke:#008000;" x="460.355161" xlink:href="#mc6eaa63c1e" y="200.05795"/>
     <use style="fill:#008000;stroke:#008000;" x="468.116903" xlink:href="#mc6eaa63c1e" y="200.063902"/>
     <use style="fill:#008000;stroke:#008000;" x="475.878644" xlink:href="#mc6eaa63c1e" y="200.072835"/>
     <use style="fill:#008000;stroke:#008000;" x="483.640389" xlink:href="#mc6eaa63c1e" y="200.086506"/>
     <use style="fill:#008000;stroke:#008000;" x="491.40213" xlink:href="#mc6eaa63c1e" y="200.107692"/>
     <use style="fill:#008000;stroke:#008000;" x="499.163875" xlink:href="#mc6eaa63c1e" y="200.140745"/>
     <use style="fill:#008000;stroke:#008000;" x="506.925614" xlink:href="#mc6eaa63c1e" y="200.192379"/>
     <use style="fill:#008000;stroke:#008000;" x="514.687357" xlink:href="#mc6eaa63c1e" y="200.27301"/>
     <use style="fill:#008000;stroke:#008000;" x="522.449102" xlink:href="#mc6eaa63c1e" y="200.398763"/>
     <use style="fill:#008000;stroke:#008000;" x="530.210843" xlink:href="#mc6eaa63c1e" y="200.594506"/>
     <use style="fill:#008000;stroke:#008000;" x="537.972585" xlink:href="#mc6eaa63c1e" y="200.898133"/>
    </g>
   </g>
   <g id="line2d_142">
    <path clip-path="url(#p3a2fcb4b24)" d="M 72.26804 148.782727 
L 80.029783 148.782705 
L 87.791525 148.782683 
L 95.553266 148.782665 
L 103.315008 148.782649 
L 111.076752 148.782637 
L 118.838494 148.78263 
L 126.600236 148.782624 
L 134.36198 148.78262 
L 142.123721 148.782618 
L 149.885464 148.782616 
L 157.647207 148.782615 
L 165.40895 148.782614 
L 173.170692 148.782614 
L 180.932433 148.782613 
L 188.694176 148.782613 
L 196.45592 148.782612 
L 204.217662 148.782611 
L 211.979403 148.78261 
L 219.741146 148.782607 
L 227.502888 148.782604 
L 235.26463 148.782598 
L 243.026373 148.78259 
L 250.788115 148.782575 
L 258.549858 148.782553 
L 266.311599 148.782519 
L 274.073343 148.782465 
L 281.835085 148.782382 
L 289.596827 148.782255 
L 297.358571 148.782066 
L 305.120312 148.781795 
L 312.882055 148.781424 
L 320.643797 148.780952 
L 328.40554 148.780413 
L 336.167283 148.779881 
L 343.929024 148.779455 
L 351.690768 148.779214 
L 359.452511 148.779159 
L 367.214251 148.779197 
L 374.975994 148.779166 
L 382.737737 148.778887 
L 390.499479 148.778209 
L 398.261221 148.777039 
L 406.022964 148.775364 
L 413.784708 148.773278 
L 421.54645 148.770996 
L 429.308193 148.768817 
L 437.069933 148.767061 
L 444.831676 148.766021 
L 452.593417 148.765961 
L 460.355161 148.76718 
L 468.116903 148.77012 
L 475.878644 148.775517 
L 483.640389 148.784608 
L 491.40213 148.799438 
L 499.163875 148.823343 
L 506.925614 148.861696 
L 514.687357 148.923054 
L 522.449102 149.020817 
L 530.210843 149.175582 
L 537.972585 149.418326 
" style="fill:none;stroke:#0000ff;stroke-linecap:square;stroke-width:1.5;"/>
    <defs>
     <path d="M 0 1.5 
C 0.397805 1.5 0.77937 1.341951 1.06066 1.06066 
C 1.341951 0.77937 1.5 0.397805 1.5 0 
C 1.5 -0.397805 1.341951 -0.77937 1.06066 -1.06066 
C 0.77937 -1.341951 0.397805 -1.5 0 -1.5 
C -0.397805 -1.5 -0.77937 -1.341951 -1.06066 -1.06066 
C -1.341951 -0.77937 -1.5 -0.397805 -1.5 0 
C -1.5 0.397805 -1.341951 0.77937 -1.06066 1.06066 
C -0.77937 1.341951 -0.397805 1.5 0 1.5 
z
" id="m4ba5a4dceb" style="stroke:#0000ff;"/>
    </defs>
    <g clip-path="url(#p3a2fcb4b24)">
     <use style="fill:#0000ff;stroke:#0000ff;" x="72.26804" xlink:href="#m4ba5a4dceb" y="148.782727"/>
     <use style="fill:#0000ff;stroke:#0000ff;" x="80.029783" xlink:href="#m4ba5a4dceb" y="148.782705"/>
     <use style="fill:#0000ff;stroke:#0000ff;" x="87.791525" xlink:href="#m4ba5a4dceb" y="148.782683"/>
     <use style="fill:#0000ff;stroke:#0000ff;" x="95.553266" xlink:href="#m4ba5a4dceb" y="148.782665"/>
     <use style="fill:#0000ff;stroke:#0000ff;" x="103.315008" xlink:href="#m4ba5a4dceb" y="148.782649"/>
     <use style="fill:#0000ff;stroke:#0000ff;" x="111.076752" xlink:href="#m4ba5a4dceb" y="148.782637"/>
     <use style="fill:#0000ff;stroke:#0000ff;" x="118.838494" xlink:href="#m4ba5a4dceb" y="148.78263"/>
     <use style="fill:#0000ff;stroke:#0000ff;" x="126.600236" xlink:href="#m4ba5a4dceb" y="148.782624"/>
     <use style="fill:#0000ff;stroke:#0000ff;" x="134.36198" xlink:href="#m4ba5a4dceb" y="148.78262"/>
     <use style="fill:#0000ff;stroke:#0000ff;" x="142.123721" xlink:href="#m4ba5a4dceb" y="148.782618"/>
     <use style="fill:#0000ff;stroke:#0000ff;" x="149.885464" xlink:href="#m4ba5a4dceb" y="148.782616"/>
     <use style="fill:#0000ff;stroke:#0000ff;" x="157.647207" xlink:href="#m4ba5a4dceb" y="148.782615"/>
     <use style="fill:#0000ff;stroke:#0000ff;" x="165.40895" xlink:href="#m4ba5a4dceb" y="148.782614"/>
     <use style="fill:#0000ff;stroke:#0000ff;" x="173.170692" xlink:href="#m4ba5a4dceb" y="148.782614"/>
     <use style="fill:#0000ff;stroke:#0000ff;" x="180.932433" xlink:href="#m4ba5a4dceb" y="148.782613"/>
     <use style="fill:#0000ff;stroke:#0000ff;" x="188.694176" xlink:href="#m4ba5a4dceb" y="148.782613"/>
     <use style="fill:#0000ff;stroke:#0000ff;" x="196.45592" xlink:href="#m4ba5a4dceb" y="148.782612"/>
     <use style="fill:#0000ff;stroke:#0000ff;" x="204.217662" xlink:href="#m4ba5a4dceb" y="148.782611"/>
     <use style="fill:#0000ff;stroke:#0000ff;" x="211.979403" xlink:href="#m4ba5a4dceb" y="148.78261"/>
     <use style="fill:#0000ff;stroke:#0000ff;" x="219.741146" xlink:href="#m4ba5a4dceb" y="148.782607"/>
     <use style="fill:#0000ff;stroke:#0000ff;" x="227.502888" xlink:href="#m4ba5a4dceb" y="148.782604"/>
     <use style="fill:#0000ff;stroke:#0000ff;" x="235.26463" xlink:href="#m4ba5a4dceb" y="148.782598"/>
     <use style="fill:#0000ff;stroke:#0000ff;" x="243.026373" xlink:href="#m4ba5a4dceb" y="148.78259"/>
     <use style="fill:#0000ff;stroke:#0000ff;" x="250.788115" xlink:href="#m4ba5a4dceb" y="148.782575"/>
     <use style="fill:#0000ff;stroke:#0000ff;" x="258.549858" xlink:href="#m4ba5a4dceb" y="148.782553"/>
     <use style="fill:#0000ff;stroke:#0000ff;" x="266.311599" xlink:href="#m4ba5a4dceb" y="148.782519"/>
     <use style="fill:#0000ff;stroke:#0000ff;" x="274.073343" xlink:href="#m4ba5a4dceb" y="148.782465"/>
     <use style="fill:#0000ff;stroke:#0000ff;" x="281.835085" xlink:href="#m4ba5a4dceb" y="148.782382"/>
     <use style="fill:#0000ff;stroke:#0000ff;" x="289.596827" xlink:href="#m4ba5a4dceb" y="148.782255"/>
     <use style="fill:#0000ff;stroke:#0000ff;" x="297.358571" xlink:href="#m4ba5a4dceb" y="148.782066"/>
     <use style="fill:#0000ff;stroke:#0000ff;" x="305.120312" xlink:href="#m4ba5a4dceb" y="148.781795"/>
     <use style="fill:#0000ff;stroke:#0000ff;" x="312.882055" xlink:href="#m4ba5a4dceb" y="148.781424"/>
     <use style="fill:#0000ff;stroke:#0000ff;" x="320.643797" xlink:href="#m4ba5a4dceb" y="148.780952"/>
     <use style="fill:#0000ff;stroke:#0000ff;" x="328.40554" xlink:href="#m4ba5a4dceb" y="148.780413"/>
     <use style="fill:#0000ff;stroke:#0000ff;" x="336.167283" xlink:href="#m4ba5a4dceb" y="148.779881"/>
     <use style="fill:#0000ff;stroke:#0000ff;" x="343.929024" xlink:href="#m4ba5a4dceb" y="148.779455"/>
     <use style="fill:#0000ff;stroke:#0000ff;" x="351.690768" xlink:href="#m4ba5a4dceb" y="148.779214"/>
     <use style="fill:#0000ff;stroke:#0000ff;" x="359.452511" xlink:href="#m4ba5a4dceb" y="148.779159"/>
     <use style="fill:#0000ff;stroke:#0000ff;" x="367.214251" xlink:href="#m4ba5a4dceb" y="148.779197"/>
     <use style="fill:#0000ff;stroke:#0000ff;" x="374.975994" xlink:href="#m4ba5a4dceb" y="148.779166"/>
     <use style="fill:#0000ff;stroke:#0000ff;" x="382.737737" xlink:href="#m4ba5a4dceb" y="148.778887"/>
     <use style="fill:#0000ff;stroke:#0000ff;" x="390.499479" xlink:href="#m4ba5a4dceb" y="148.778209"/>
     <use style="fill:#0000ff;stroke:#0000ff;" x="398.261221" xlink:href="#m4ba5a4dceb" y="148.777039"/>
     <use style="fill:#0000ff;stroke:#0000ff;" x="406.022964" xlink:href="#m4ba5a4dceb" y="148.775364"/>
     <use style="fill:#0000ff;stroke:#0000ff;" x="413.784708" xlink:href="#m4ba5a4dceb" y="148.773278"/>
     <use style="fill:#0000ff;stroke:#0000ff;" x="421.54645" xlink:href="#m4ba5a4dceb" y="148.770996"/>
     <use style="fill:#0000ff;stroke:#0000ff;" x="429.308193" xlink:href="#m4ba5a4dceb" y="148.768817"/>
     <use style="fill:#0000ff;stroke:#0000ff;" x="437.069933" xlink:href="#m4ba5a4dceb" y="148.767061"/>
     <use style="fill:#0000ff;stroke:#0000ff;" x="444.831676" xlink:href="#m4ba5a4dceb" y="148.766021"/>
     <use style="fill:#0000ff;stroke:#0000ff;" x="452.593417" xlink:href="#m4ba5a4dceb" y="148.765961"/>
     <use style="fill:#0000ff;stroke:#0000ff;" x="460.355161" xlink:href="#m4ba5a4dceb" y="148.76718"/>
     <use style="fill:#0000ff;stroke:#0000ff;" x="468.116903" xlink:href="#m4ba5a4dceb" y="148.77012"/>
     <use style="fill:#0000ff;stroke:#0000ff;" x="475.878644" xlink:href="#m4ba5a4dceb" y="148.775517"/>
     <use style="fill:#0000ff;stroke:#0000ff;" x="483.640389" xlink:href="#m4ba5a4dceb" y="148.784608"/>
     <use style="fill:#0000ff;stroke:#0000ff;" x="491.40213" xlink:href="#m4ba5a4dceb" y="148.799438"/>
     <use style="fill:#0000ff;stroke:#0000ff;" x="499.163875" xlink:href="#m4ba5a4dceb" y="148.823343"/>
     <use style="fill:#0000ff;stroke:#0000ff;" x="506.925614" xlink:href="#m4ba5a4dceb" y="148.861696"/>
     <use style="fill:#0000ff;stroke:#0000ff;" x="514.687357" xlink:href="#m4ba5a4dceb" y="148.923054"/>
     <use style="fill:#0000ff;stroke:#0000ff;" x="522.449102" xlink:href="#m4ba5a4dceb" y="149.020817"/>
     <use style="fill:#0000ff;stroke:#0000ff;" x="530.210843" xlink:href="#m4ba5a4dceb" y="149.175582"/>
     <use style="fill:#0000ff;stroke:#0000ff;" x="537.972585" xlink:href="#m4ba5a4dceb" y="149.418326"/>
    </g>
   </g>
   <g id="patch_8">
    <path d="M 48.982813 238.8 
L 48.982813 144.478626 
" style="fill:none;stroke:#000000;stroke-linecap:square;stroke-linejoin:miter;stroke-width:0.8;"/>
   </g>
   <g id="patch_9">
    <path d="M 561.257812 238.8 
L 561.257812 144.478626 
" style="fill:none;stroke:#000000;stroke-linecap:square;stroke-linejoin:miter;stroke-width:0.8;"/>
   </g>
   <g id="patch_10">
    <path d="M 48.982813 238.8 
L 561.257812 238.8 
" style="fill:none;stroke:#000000;stroke-linecap:square;stroke-linejoin:miter;stroke-width:0.8;"/>
   </g>
   <g id="patch_11">
    <path d="M 48.982813 144.478626 
L 561.257812 144.478626 
" style="fill:none;stroke:#000000;stroke-linecap:square;stroke-linejoin:miter;stroke-width:0.8;"/>
   </g>
  </g>
 </g>
 <defs>
  <clipPath id="p3a3bd2641a">
   <rect height="94.321374" width="512.275" x="48.982813" y="7.2"/>
  </clipPath>
  <clipPath id="p3a2fcb4b24">
   <rect height="94.321374" width="512.275" x="48.982813" y="144.478626"/>
  </clipPath>
 </defs>
</svg>
