<?xml version="1.0" encoding="utf-8" standalone="no"?>
<!DOCTYPE svg PUBLIC "-//W3C//DTD SVG 1.1//EN"
  "http://www.w3.org/Graphics/SVG/1.1/DTD/svg11.dtd">
<!-- Created with matplotlib (https://matplotlib.org/) -->
<svg height="276.35625pt" version="1.1" viewBox="0 0 568.457813 276.35625" width="568.457813pt" xmlns="http://www.w3.org/2000/svg" xmlns:xlink="http://www.w3.org/1999/xlink">
 <metadata>
  <rdf:RDF xmlns:cc="http://creativecommons.org/ns#" xmlns:dc="http://purl.org/dc/elements/1.1/" xmlns:rdf="http://www.w3.org/1999/02/22-rdf-syntax-ns#">
   <cc:Work>
    <dc:type rdf:resource="http://purl.org/dc/dcmitype/StillImage"/>
    <dc:date>2021-03-27T19:08:58.524019</dc:date>
    <dc:format>image/svg+xml</dc:format>
    <dc:creator>
     <cc:Agent>
      <dc:title>Matplotlib v3.3.4, https://matplotlib.org/</dc:title>
     </cc:Agent>
    </dc:creator>
   </cc:Work>
  </rdf:RDF>
 </metadata>
 <defs>
  <style type="text/css">*{stroke-linecap:butt;stroke-linejoin:round;}</style>
 </defs>
 <g id="figure_1">
  <g id="patch_1">
   <path d="M 0 276.35625 
L 568.457813 276.35625 
L 568.457813 0 
L 0 0 
z
" style="fill:none;"/>
  </g>
  <g id="axes_1">
   <g id="patch_2">
    <path d="M 48.982813 102.1 
L 561.257812 102.1 
L 561.257812 7.2 
L 48.982813 7.2 
z
" style="fill:#ffffff;"/>
   </g>
   <g id="matplotlib.axis_1">
    <g id="xtick_1">
     <g id="line2d_1">
      <defs>
       <path d="M 0 0 
L 0 3.5 
" id="m784de029dc" style="stroke:#000000;stroke-width:0.8;"/>
      </defs>
      <g>
       <use style="stroke:#000000;stroke-width:0.8;" x="72.26804" xlink:href="#m784de029dc" y="102.1"/>
      </g>
     </g>
     <g id="text_1">
      <!-- 0.0 -->
      <g transform="translate(64.316477 116.698437)scale(0.1 -0.1)">
       <defs>
        <path d="M 31.78125 66.40625 
Q 24.171875 66.40625 20.328125 58.90625 
Q 16.5 51.421875 16.5 36.375 
Q 16.5 21.390625 20.328125 13.890625 
Q 24.171875 6.390625 31.78125 6.390625 
Q 39.453125 6.390625 43.28125 13.890625 
Q 47.125 21.390625 47.125 36.375 
Q 47.125 51.421875 43.28125 58.90625 
Q 39.453125 66.40625 31.78125 66.40625 
z
M 31.78125 74.21875 
Q 44.046875 74.21875 50.515625 64.515625 
Q 56.984375 54.828125 56.984375 36.375 
Q 56.984375 17.96875 50.515625 8.265625 
Q 44.046875 -1.421875 31.78125 -1.421875 
Q 19.53125 -1.421875 13.0625 8.265625 
Q 6.59375 17.96875 6.59375 36.375 
Q 6.59375 54.828125 13.0625 64.515625 
Q 19.53125 74.21875 31.78125 74.21875 
z
" id="DejaVuSans-48"/>
        <path d="M 10.6875 12.40625 
L 21 12.40625 
L 21 0 
L 10.6875 0 
z
" id="DejaVuSans-46"/>
       </defs>
       <use xlink:href="#DejaVuSans-48"/>
       <use x="63.623047" xlink:href="#DejaVuSans-46"/>
       <use x="95.410156" xlink:href="#DejaVuSans-48"/>
      </g>
     </g>
    </g>
    <g id="xtick_2">
     <g id="line2d_2">
      <g>
       <use style="stroke:#000000;stroke-width:0.8;" x="165.408949" xlink:href="#m784de029dc" y="102.1"/>
      </g>
     </g>
     <g id="text_2">
      <!-- 0.2 -->
      <g transform="translate(157.457386 116.698437)scale(0.1 -0.1)">
       <defs>
        <path d="M 19.1875 8.296875 
L 53.609375 8.296875 
L 53.609375 0 
L 7.328125 0 
L 7.328125 8.296875 
Q 12.9375 14.109375 22.625 23.890625 
Q 32.328125 33.6875 34.8125 36.53125 
Q 39.546875 41.84375 41.421875 45.53125 
Q 43.3125 49.21875 43.3125 52.78125 
Q 43.3125 58.59375 39.234375 62.25 
Q 35.15625 65.921875 28.609375 65.921875 
Q 23.96875 65.921875 18.8125 64.3125 
Q 13.671875 62.703125 7.8125 59.421875 
L 7.8125 69.390625 
Q 13.765625 71.78125 18.9375 73 
Q 24.125 74.21875 28.421875 74.21875 
Q 39.75 74.21875 46.484375 68.546875 
Q 53.21875 62.890625 53.21875 53.421875 
Q 53.21875 48.921875 51.53125 44.890625 
Q 49.859375 40.875 45.40625 35.40625 
Q 44.1875 33.984375 37.640625 27.21875 
Q 31.109375 20.453125 19.1875 8.296875 
z
" id="DejaVuSans-50"/>
       </defs>
       <use xlink:href="#DejaVuSans-48"/>
       <use x="63.623047" xlink:href="#DejaVuSans-46"/>
       <use x="95.410156" xlink:href="#DejaVuSans-50"/>
      </g>
     </g>
    </g>
    <g id="xtick_3">
     <g id="line2d_3">
      <g>
       <use style="stroke:#000000;stroke-width:0.8;" x="258.549858" xlink:href="#m784de029dc" y="102.1"/>
      </g>
     </g>
     <g id="text_3">
      <!-- 0.4 -->
      <g transform="translate(250.598295 116.698437)scale(0.1 -0.1)">
       <defs>
        <path d="M 37.796875 64.3125 
L 12.890625 25.390625 
L 37.796875 25.390625 
z
M 35.203125 72.90625 
L 47.609375 72.90625 
L 47.609375 25.390625 
L 58.015625 25.390625 
L 58.015625 17.1875 
L 47.609375 17.1875 
L 47.609375 0 
L 37.796875 0 
L 37.796875 17.1875 
L 4.890625 17.1875 
L 4.890625 26.703125 
z
" id="DejaVuSans-52"/>
       </defs>
       <use xlink:href="#DejaVuSans-48"/>
       <use x="63.623047" xlink:href="#DejaVuSans-46"/>
       <use x="95.410156" xlink:href="#DejaVuSans-52"/>
      </g>
     </g>
    </g>
    <g id="xtick_4">
     <g id="line2d_4">
      <g>
       <use style="stroke:#000000;stroke-width:0.8;" x="351.690767" xlink:href="#m784de029dc" y="102.1"/>
      </g>
     </g>
     <g id="text_4">
      <!-- 0.6 -->
      <g transform="translate(343.739205 116.698437)scale(0.1 -0.1)">
       <defs>
        <path d="M 33.015625 40.375 
Q 26.375 40.375 22.484375 35.828125 
Q 18.609375 31.296875 18.609375 23.390625 
Q 18.609375 15.53125 22.484375 10.953125 
Q 26.375 6.390625 33.015625 6.390625 
Q 39.65625 6.390625 43.53125 10.953125 
Q 47.40625 15.53125 47.40625 23.390625 
Q 47.40625 31.296875 43.53125 35.828125 
Q 39.65625 40.375 33.015625 40.375 
z
M 52.59375 71.296875 
L 52.59375 62.3125 
Q 48.875 64.0625 45.09375 64.984375 
Q 41.3125 65.921875 37.59375 65.921875 
Q 27.828125 65.921875 22.671875 59.328125 
Q 17.53125 52.734375 16.796875 39.40625 
Q 19.671875 43.65625 24.015625 45.921875 
Q 28.375 48.1875 33.59375 48.1875 
Q 44.578125 48.1875 50.953125 41.515625 
Q 57.328125 34.859375 57.328125 23.390625 
Q 57.328125 12.15625 50.6875 5.359375 
Q 44.046875 -1.421875 33.015625 -1.421875 
Q 20.359375 -1.421875 13.671875 8.265625 
Q 6.984375 17.96875 6.984375 36.375 
Q 6.984375 53.65625 15.1875 63.9375 
Q 23.390625 74.21875 37.203125 74.21875 
Q 40.921875 74.21875 44.703125 73.484375 
Q 48.484375 72.75 52.59375 71.296875 
z
" id="DejaVuSans-54"/>
       </defs>
       <use xlink:href="#DejaVuSans-48"/>
       <use x="63.623047" xlink:href="#DejaVuSans-46"/>
       <use x="95.410156" xlink:href="#DejaVuSans-54"/>
      </g>
     </g>
    </g>
    <g id="xtick_5">
     <g id="line2d_5">
      <g>
       <use style="stroke:#000000;stroke-width:0.8;" x="444.831676" xlink:href="#m784de029dc" y="102.1"/>
      </g>
     </g>
     <g id="text_5">
      <!-- 0.8 -->
      <g transform="translate(436.880114 116.698437)scale(0.1 -0.1)">
       <defs>
        <path d="M 31.78125 34.625 
Q 24.75 34.625 20.71875 30.859375 
Q 16.703125 27.09375 16.703125 20.515625 
Q 16.703125 13.921875 20.71875 10.15625 
Q 24.75 6.390625 31.78125 6.390625 
Q 38.8125 6.390625 42.859375 10.171875 
Q 46.921875 13.96875 46.921875 20.515625 
Q 46.921875 27.09375 42.890625 30.859375 
Q 38.875 34.625 31.78125 34.625 
z
M 21.921875 38.8125 
Q 15.578125 40.375 12.03125 44.71875 
Q 8.5 49.078125 8.5 55.328125 
Q 8.5 64.0625 14.71875 69.140625 
Q 20.953125 74.21875 31.78125 74.21875 
Q 42.671875 74.21875 48.875 69.140625 
Q 55.078125 64.0625 55.078125 55.328125 
Q 55.078125 49.078125 51.53125 44.71875 
Q 48 40.375 41.703125 38.8125 
Q 48.828125 37.15625 52.796875 32.3125 
Q 56.78125 27.484375 56.78125 20.515625 
Q 56.78125 9.90625 50.3125 4.234375 
Q 43.84375 -1.421875 31.78125 -1.421875 
Q 19.734375 -1.421875 13.25 4.234375 
Q 6.78125 9.90625 6.78125 20.515625 
Q 6.78125 27.484375 10.78125 32.3125 
Q 14.796875 37.15625 21.921875 38.8125 
z
M 18.3125 54.390625 
Q 18.3125 48.734375 21.84375 45.5625 
Q 25.390625 42.390625 31.78125 42.390625 
Q 38.140625 42.390625 41.71875 45.5625 
Q 45.3125 48.734375 45.3125 54.390625 
Q 45.3125 60.0625 41.71875 63.234375 
Q 38.140625 66.40625 31.78125 66.40625 
Q 25.390625 66.40625 21.84375 63.234375 
Q 18.3125 60.0625 18.3125 54.390625 
z
" id="DejaVuSans-56"/>
       </defs>
       <use xlink:href="#DejaVuSans-48"/>
       <use x="63.623047" xlink:href="#DejaVuSans-46"/>
       <use x="95.410156" xlink:href="#DejaVuSans-56"/>
      </g>
     </g>
    </g>
    <g id="xtick_6">
     <g id="line2d_6">
      <g>
       <use style="stroke:#000000;stroke-width:0.8;" x="537.972585" xlink:href="#m784de029dc" y="102.1"/>
      </g>
     </g>
     <g id="text_6">
      <!-- 1.0 -->
      <g transform="translate(530.021023 116.698437)scale(0.1 -0.1)">
       <defs>
        <path d="M 12.40625 8.296875 
L 28.515625 8.296875 
L 28.515625 63.921875 
L 10.984375 60.40625 
L 10.984375 69.390625 
L 28.421875 72.90625 
L 38.28125 72.90625 
L 38.28125 8.296875 
L 54.390625 8.296875 
L 54.390625 0 
L 12.40625 0 
z
" id="DejaVuSans-49"/>
       </defs>
       <use xlink:href="#DejaVuSans-49"/>
       <use x="63.623047" xlink:href="#DejaVuSans-46"/>
       <use x="95.410156" xlink:href="#DejaVuSans-48"/>
      </g>
     </g>
    </g>
    <g id="text_7">
     <!-- time (ms) -->
     <g transform="translate(280.858594 130.376562)scale(0.1 -0.1)">
      <defs>
       <path d="M 18.3125 70.21875 
L 18.3125 54.6875 
L 36.8125 54.6875 
L 36.8125 47.703125 
L 18.3125 47.703125 
L 18.3125 18.015625 
Q 18.3125 11.328125 20.140625 9.421875 
Q 21.96875 7.515625 27.59375 7.515625 
L 36.8125 7.515625 
L 36.8125 0 
L 27.59375 0 
Q 17.1875 0 13.234375 3.875 
Q 9.28125 7.765625 9.28125 18.015625 
L 9.28125 47.703125 
L 2.6875 47.703125 
L 2.6875 54.6875 
L 9.28125 54.6875 
L 9.28125 70.21875 
z
" id="DejaVuSans-116"/>
       <path d="M 9.421875 54.6875 
L 18.40625 54.6875 
L 18.40625 0 
L 9.421875 0 
z
M 9.421875 75.984375 
L 18.40625 75.984375 
L 18.40625 64.59375 
L 9.421875 64.59375 
z
" id="DejaVuSans-105"/>
       <path d="M 52 44.1875 
Q 55.375 50.25 60.0625 53.125 
Q 64.75 56 71.09375 56 
Q 79.640625 56 84.28125 50.015625 
Q 88.921875 44.046875 88.921875 33.015625 
L 88.921875 0 
L 79.890625 0 
L 79.890625 32.71875 
Q 79.890625 40.578125 77.09375 44.375 
Q 74.3125 48.1875 68.609375 48.1875 
Q 61.625 48.1875 57.5625 43.546875 
Q 53.515625 38.921875 53.515625 30.90625 
L 53.515625 0 
L 44.484375 0 
L 44.484375 32.71875 
Q 44.484375 40.625 41.703125 44.40625 
Q 38.921875 48.1875 33.109375 48.1875 
Q 26.21875 48.1875 22.15625 43.53125 
Q 18.109375 38.875 18.109375 30.90625 
L 18.109375 0 
L 9.078125 0 
L 9.078125 54.6875 
L 18.109375 54.6875 
L 18.109375 46.1875 
Q 21.1875 51.21875 25.484375 53.609375 
Q 29.78125 56 35.6875 56 
Q 41.65625 56 45.828125 52.96875 
Q 50 49.953125 52 44.1875 
z
" id="DejaVuSans-109"/>
       <path d="M 56.203125 29.59375 
L 56.203125 25.203125 
L 14.890625 25.203125 
Q 15.484375 15.921875 20.484375 11.0625 
Q 25.484375 6.203125 34.421875 6.203125 
Q 39.59375 6.203125 44.453125 7.46875 
Q 49.3125 8.734375 54.109375 11.28125 
L 54.109375 2.78125 
Q 49.265625 0.734375 44.1875 -0.34375 
Q 39.109375 -1.421875 33.890625 -1.421875 
Q 20.796875 -1.421875 13.15625 6.1875 
Q 5.515625 13.8125 5.515625 26.8125 
Q 5.515625 40.234375 12.765625 48.109375 
Q 20.015625 56 32.328125 56 
Q 43.359375 56 49.78125 48.890625 
Q 56.203125 41.796875 56.203125 29.59375 
z
M 47.21875 32.234375 
Q 47.125 39.59375 43.09375 43.984375 
Q 39.0625 48.390625 32.421875 48.390625 
Q 24.90625 48.390625 20.390625 44.140625 
Q 15.875 39.890625 15.1875 32.171875 
z
" id="DejaVuSans-101"/>
       <path id="DejaVuSans-32"/>
       <path d="M 31 75.875 
Q 24.46875 64.65625 21.28125 53.65625 
Q 18.109375 42.671875 18.109375 31.390625 
Q 18.109375 20.125 21.3125 9.0625 
Q 24.515625 -2 31 -13.1875 
L 23.1875 -13.1875 
Q 15.875 -1.703125 12.234375 9.375 
Q 8.59375 20.453125 8.59375 31.390625 
Q 8.59375 42.28125 12.203125 53.3125 
Q 15.828125 64.359375 23.1875 75.875 
z
" id="DejaVuSans-40"/>
       <path d="M 44.28125 53.078125 
L 44.28125 44.578125 
Q 40.484375 46.53125 36.375 47.5 
Q 32.28125 48.484375 27.875 48.484375 
Q 21.1875 48.484375 17.84375 46.4375 
Q 14.5 44.390625 14.5 40.28125 
Q 14.5 37.15625 16.890625 35.375 
Q 19.28125 33.59375 26.515625 31.984375 
L 29.59375 31.296875 
Q 39.15625 29.25 43.1875 25.515625 
Q 47.21875 21.78125 47.21875 15.09375 
Q 47.21875 7.46875 41.1875 3.015625 
Q 35.15625 -1.421875 24.609375 -1.421875 
Q 20.21875 -1.421875 15.453125 -0.5625 
Q 10.6875 0.296875 5.421875 2 
L 5.421875 11.28125 
Q 10.40625 8.6875 15.234375 7.390625 
Q 20.0625 6.109375 24.8125 6.109375 
Q 31.15625 6.109375 34.5625 8.28125 
Q 37.984375 10.453125 37.984375 14.40625 
Q 37.984375 18.0625 35.515625 20.015625 
Q 33.0625 21.96875 24.703125 23.78125 
L 21.578125 24.515625 
Q 13.234375 26.265625 9.515625 29.90625 
Q 5.8125 33.546875 5.8125 39.890625 
Q 5.8125 47.609375 11.28125 51.796875 
Q 16.75 56 26.8125 56 
Q 31.78125 56 36.171875 55.265625 
Q 40.578125 54.546875 44.28125 53.078125 
z
" id="DejaVuSans-115"/>
       <path d="M 8.015625 75.875 
L 15.828125 75.875 
Q 23.140625 64.359375 26.78125 53.3125 
Q 30.421875 42.28125 30.421875 31.390625 
Q 30.421875 20.453125 26.78125 9.375 
Q 23.140625 -1.703125 15.828125 -13.1875 
L 8.015625 -13.1875 
Q 14.5 -2 17.703125 9.0625 
Q 20.90625 20.125 20.90625 31.390625 
Q 20.90625 42.671875 17.703125 53.65625 
Q 14.5 64.65625 8.015625 75.875 
z
" id="DejaVuSans-41"/>
      </defs>
      <use xlink:href="#DejaVuSans-116"/>
      <use x="39.208984" xlink:href="#DejaVuSans-105"/>
      <use x="66.992188" xlink:href="#DejaVuSans-109"/>
      <use x="164.404297" xlink:href="#DejaVuSans-101"/>
      <use x="225.927734" xlink:href="#DejaVuSans-32"/>
      <use x="257.714844" xlink:href="#DejaVuSans-40"/>
      <use x="296.728516" xlink:href="#DejaVuSans-109"/>
      <use x="394.140625" xlink:href="#DejaVuSans-115"/>
      <use x="446.240234" xlink:href="#DejaVuSans-41"/>
     </g>
    </g>
   </g>
   <g id="matplotlib.axis_2">
    <g id="ytick_1">
     <g id="line2d_7">
      <defs>
       <path d="M 0 0 
L -3.5 0 
" id="mb94b2cb5af" style="stroke:#000000;stroke-width:0.8;"/>
      </defs>
      <g>
       <use style="stroke:#000000;stroke-width:0.8;" x="48.982813" xlink:href="#mb94b2cb5af" y="98.179734"/>
      </g>
     </g>
     <g id="text_8">
      <!-- 0 -->
      <g transform="translate(35.620313 101.978952)scale(0.1 -0.1)">
       <use xlink:href="#DejaVuSans-48"/>
      </g>
     </g>
    </g>
    <g id="ytick_2">
     <g id="line2d_8">
      <g>
       <use style="stroke:#000000;stroke-width:0.8;" x="48.982813" xlink:href="#mb94b2cb5af" y="63.290547"/>
      </g>
     </g>
     <g id="text_9">
      <!-- 2 -->
      <g transform="translate(35.620313 67.089766)scale(0.1 -0.1)">
       <use xlink:href="#DejaVuSans-50"/>
      </g>
     </g>
    </g>
    <g id="ytick_3">
     <g id="line2d_9">
      <g>
       <use style="stroke:#000000;stroke-width:0.8;" x="48.982813" xlink:href="#mb94b2cb5af" y="28.401361"/>
      </g>
     </g>
     <g id="text_10">
      <!-- 4 -->
      <g transform="translate(35.620313 32.200579)scale(0.1 -0.1)">
       <use xlink:href="#DejaVuSans-52"/>
      </g>
     </g>
    </g>
    <g id="text_11">
     <!-- IN [V] -->
     <g transform="translate(29.540625 68.776562)rotate(-90)scale(0.1 -0.1)">
      <defs>
       <path d="M 9.8125 72.90625 
L 19.671875 72.90625 
L 19.671875 0 
L 9.8125 0 
z
" id="DejaVuSans-73"/>
       <path d="M 9.8125 72.90625 
L 23.09375 72.90625 
L 55.421875 11.921875 
L 55.421875 72.90625 
L 64.984375 72.90625 
L 64.984375 0 
L 51.703125 0 
L 19.390625 60.984375 
L 19.390625 0 
L 9.8125 0 
z
" id="DejaVuSans-78"/>
       <path d="M 8.59375 75.984375 
L 29.296875 75.984375 
L 29.296875 69 
L 17.578125 69 
L 17.578125 -6.203125 
L 29.296875 -6.203125 
L 29.296875 -13.1875 
L 8.59375 -13.1875 
z
" id="DejaVuSans-91"/>
       <path d="M 28.609375 0 
L 0.78125 72.90625 
L 11.078125 72.90625 
L 34.1875 11.53125 
L 57.328125 72.90625 
L 67.578125 72.90625 
L 39.796875 0 
z
" id="DejaVuSans-86"/>
       <path d="M 30.421875 75.984375 
L 30.421875 -13.1875 
L 9.71875 -13.1875 
L 9.71875 -6.203125 
L 21.390625 -6.203125 
L 21.390625 69 
L 9.71875 69 
L 9.71875 75.984375 
z
" id="DejaVuSans-93"/>
      </defs>
      <use xlink:href="#DejaVuSans-73"/>
      <use x="29.492188" xlink:href="#DejaVuSans-78"/>
      <use x="104.296875" xlink:href="#DejaVuSans-32"/>
      <use x="136.083984" xlink:href="#DejaVuSans-91"/>
      <use x="175.097656" xlink:href="#DejaVuSans-86"/>
      <use x="243.505859" xlink:href="#DejaVuSans-93"/>
     </g>
    </g>
   </g>
   <g id="line2d_10">
    <path clip-path="url(#pb37a31382f)" d="M 72.26804 61.518808 
L 74.095836 61.428609 
L 89.92979 60.286624 
L 94.586836 60.24994 
L 110.886495 60.699307 
L 141.15729 61.744664 
L 174.688017 63.124675 
L 209.150154 64.768125 
L 244.543699 66.681521 
L 281.800063 68.921915 
L 291.114154 69.629585 
L 299.496836 70.132555 
L 314.399381 70.864525 
L 317.193608 71.249461 
L 318.590722 71.667845 
L 319.987836 72.031751 
L 322.316358 72.31402 
L 326.507699 72.551633 
L 329.301927 72.540534 
L 348.861517 71.697364 
L 376.338086 70.298273 
L 406.608881 68.53415 
L 437.811086 66.491664 
L 469.01329 64.224826 
L 502.078313 61.603293 
L 521.637904 59.886223 
L 531.417699 58.916392 
L 537.972585 58.400917 
L 537.972585 58.400917 
" style="fill:none;stroke:#ff0000;stroke-linecap:square;stroke-width:1.5;"/>
   </g>
   <g id="line2d_11">
    <path clip-path="url(#pb37a31382f)" d="M 72.26804 61.518808 
L 75.492949 61.494615 
L 76.424358 61.197732 
L 77.355767 60.489776 
L 78.752881 58.898117 
L 81.081404 55.728415 
L 84.341336 50.819978 
L 88.532677 44.072638 
L 91.792608 38.734197 
L 92.258313 38.177043 
L 93.189722 37.541819 
L 94.121131 37.240221 
L 95.983949 36.936265 
L 99.243881 36.669818 
L 105.763745 36.406428 
L 119.269177 36.131431 
L 147.211449 35.816689 
L 185.399222 35.604872 
L 222.189881 35.617449 
L 252.460677 35.840391 
L 270.157449 36.161286 
L 277.608722 36.476598 
L 280.868654 36.780892 
L 282.731472 37.136243 
L 283.662881 37.475598 
L 284.128586 37.75746 
L 285.059995 38.738467 
L 286.457108 40.864463 
L 291.579858 48.914567 
L 294.374086 52.906324 
L 296.702608 55.871817 
L 298.565427 57.891801 
L 299.96254 59.112274 
L 301.359654 59.994359 
L 302.756767 60.499473 
L 305.550995 61.116577 
L 306.482404 61.797749 
L 307.879517 63.251681 
L 309.742336 65.612934 
L 312.070858 68.94955 
L 315.33079 74.081322 
L 318.590722 79.65073 
L 327.439108 95.541665 
L 327.904813 95.953357 
L 328.836222 96.22437 
L 330.69904 96.403377 
L 335.82179 96.562271 
L 350.724336 96.718947 
L 396.363381 96.923325 
L 494.161336 97.122428 
L 512.323813 97.00883 
L 514.186631 96.793314 
L 515.583745 96.434662 
L 516.515154 95.989421 
L 516.980858 95.61239 
L 517.446563 94.993054 
L 524.432131 82.74448 
L 528.157767 76.794354 
L 530.951995 72.68949 
L 533.280517 69.62703 
L 535.143336 67.529561 
L 536.540449 66.271533 
L 537.471858 65.660506 
L 537.972585 65.402592 
L 537.972585 65.402592 
" style="fill:none;stroke:#008000;stroke-linecap:square;stroke-width:1.5;"/>
   </g>
   <g id="line2d_12">
    <path clip-path="url(#pb37a31382f)" d="M 72.26804 61.518808 
L 73.164427 61.510468 
L 73.630131 61.645264 
L 74.095836 61.970005 
L 75.027245 63.130474 
L 76.424358 65.48973 
L 78.752881 69.894965 
L 83.409927 79.34775 
L 91.326904 95.616509 
L 91.792608 96.120394 
L 92.724017 96.547237 
L 94.121131 96.880613 
L 96.449654 97.169506 
L 100.640995 97.41506 
L 108.557972 97.602882 
L 125.323336 97.728073 
L 171.428086 97.78446 
L 257.117722 97.695198 
L 272.020267 97.489692 
L 277.608722 97.226088 
L 280.402949 96.910564 
L 281.800063 96.603809 
L 282.731472 96.252526 
L 283.197177 95.980364 
L 283.662881 95.571303 
L 284.128586 94.891947 
L 286.457108 90.156521 
L 292.511267 77.830954 
L 296.236904 70.700371 
L 298.565427 66.647701 
L 299.96254 64.530492 
L 300.893949 63.381767 
L 301.825358 62.623463 
L 302.756767 61.997659 
L 303.688177 61.05937 
L 305.08529 59.089992 
L 306.948108 55.982377 
L 309.742336 50.872972 
L 313.933677 42.664409 
L 318.125017 33.953371 
L 323.713472 21.844801 
L 326.973404 15.133624 
L 327.439108 14.389445 
L 327.904813 13.955589 
L 328.836222 13.455561 
L 330.233336 13.018655 
L 332.561858 12.602805 
L 335.82179 12.280444 
L 341.410245 11.992637 
L 350.724336 11.770871 
L 368.421108 11.607792 
L 407.074586 11.518337 
L 468.547586 11.586552 
L 490.901404 11.793941 
L 500.215495 12.069717 
L 505.338245 12.427301 
L 508.132472 12.819921 
L 509.99529 13.298046 
L 510.926699 13.691099 
L 511.858108 14.327753 
L 512.323813 14.848834 
L 513.255222 16.543778 
L 528.157767 46.719259 
L 531.417699 52.690122 
L 533.746222 56.522131 
L 535.143336 58.486369 
L 536.074745 59.536584 
L 537.006154 60.230149 
L 537.972585 60.90555 
L 537.972585 60.90555 
" style="fill:none;stroke:#0000ff;stroke-linecap:square;stroke-width:1.5;"/>
   </g>
   <g id="patch_3">
    <path d="M 48.982813 102.1 
L 48.982813 7.2 
" style="fill:none;stroke:#000000;stroke-linecap:square;stroke-linejoin:miter;stroke-width:0.8;"/>
   </g>
   <g id="patch_4">
    <path d="M 561.257812 102.1 
L 561.257812 7.2 
" style="fill:none;stroke:#000000;stroke-linecap:square;stroke-linejoin:miter;stroke-width:0.8;"/>
   </g>
   <g id="patch_5">
    <path d="M 48.982813 102.1 
L 561.257812 102.1 
" style="fill:none;stroke:#000000;stroke-linecap:square;stroke-linejoin:miter;stroke-width:0.8;"/>
   </g>
   <g id="patch_6">
    <path d="M 48.982813 7.2 
L 561.257812 7.2 
" style="fill:none;stroke:#000000;stroke-linecap:square;stroke-linejoin:miter;stroke-width:0.8;"/>
   </g>
  </g>
  <g id="axes_2">
   <g id="patch_7">
    <path d="M 48.982813 238.8 
L 561.257812 238.8 
L 561.257812 143.9 
L 48.982813 143.9 
z
" style="fill:#ffffff;"/>
   </g>
   <g id="matplotlib.axis_3">
    <g id="xtick_7">
     <g id="line2d_13">
      <path clip-path="url(#pf682d983d8)" d="M 72.26804 238.8 
L 72.26804 143.9 
" style="fill:none;stroke:#b0b0b0;stroke-linecap:square;stroke-width:0.8;"/>
     </g>
     <g id="line2d_14">
      <g>
       <use style="stroke:#000000;stroke-width:0.8;" x="72.26804" xlink:href="#m784de029dc" y="238.8"/>
      </g>
     </g>
     <g id="text_12">
      <!-- $\mathdefault{10^{0}}$ -->
      <g transform="translate(63.46804 253.398438)scale(0.1 -0.1)">
       <use transform="translate(0 0.765625)" xlink:href="#DejaVuSans-49"/>
       <use transform="translate(63.623047 0.765625)" xlink:href="#DejaVuSans-48"/>
       <use transform="translate(128.203125 39.046875)scale(0.7)" xlink:href="#DejaVuSans-48"/>
      </g>
     </g>
    </g>
    <g id="xtick_8">
     <g id="line2d_15">
      <path clip-path="url(#pf682d983d8)" d="M 180.571422 238.8 
L 180.571422 143.9 
" style="fill:none;stroke:#b0b0b0;stroke-linecap:square;stroke-width:0.8;"/>
     </g>
     <g id="line2d_16">
      <g>
       <use style="stroke:#000000;stroke-width:0.8;" x="180.571422" xlink:href="#m784de029dc" y="238.8"/>
      </g>
     </g>
     <g id="text_13">
      <!-- $\mathdefault{10^{1}}$ -->
      <g transform="translate(171.771422 253.398438)scale(0.1 -0.1)">
       <use transform="translate(0 0.684375)" xlink:href="#DejaVuSans-49"/>
       <use transform="translate(63.623047 0.684375)" xlink:href="#DejaVuSans-48"/>
       <use transform="translate(128.203125 38.965625)scale(0.7)" xlink:href="#DejaVuSans-49"/>
      </g>
     </g>
    </g>
    <g id="xtick_9">
     <g id="line2d_17">
      <path clip-path="url(#pf682d983d8)" d="M 288.874805 238.8 
L 288.874805 143.9 
" style="fill:none;stroke:#b0b0b0;stroke-linecap:square;stroke-width:0.8;"/>
     </g>
     <g id="line2d_18">
      <g>
       <use style="stroke:#000000;stroke-width:0.8;" x="288.874805" xlink:href="#m784de029dc" y="238.8"/>
      </g>
     </g>
     <g id="text_14">
      <!-- $\mathdefault{10^{2}}$ -->
      <g transform="translate(280.074805 253.398438)scale(0.1 -0.1)">
       <use transform="translate(0 0.765625)" xlink:href="#DejaVuSans-49"/>
       <use transform="translate(63.623047 0.765625)" xlink:href="#DejaVuSans-48"/>
       <use transform="translate(128.203125 39.046875)scale(0.7)" xlink:href="#DejaVuSans-50"/>
      </g>
     </g>
    </g>
    <g id="xtick_10">
     <g id="line2d_19">
      <path clip-path="url(#pf682d983d8)" d="M 397.178188 238.8 
L 397.178188 143.9 
" style="fill:none;stroke:#b0b0b0;stroke-linecap:square;stroke-width:0.8;"/>
     </g>
     <g id="line2d_20">
      <g>
       <use style="stroke:#000000;stroke-width:0.8;" x="397.178188" xlink:href="#m784de029dc" y="238.8"/>
      </g>
     </g>
     <g id="text_15">
      <!-- $\mathdefault{10^{3}}$ -->
      <g transform="translate(388.378188 253.398438)scale(0.1 -0.1)">
       <defs>
        <path d="M 40.578125 39.3125 
Q 47.65625 37.796875 51.625 33 
Q 55.609375 28.21875 55.609375 21.1875 
Q 55.609375 10.40625 48.1875 4.484375 
Q 40.765625 -1.421875 27.09375 -1.421875 
Q 22.515625 -1.421875 17.65625 -0.515625 
Q 12.796875 0.390625 7.625 2.203125 
L 7.625 11.71875 
Q 11.71875 9.328125 16.59375 8.109375 
Q 21.484375 6.890625 26.8125 6.890625 
Q 36.078125 6.890625 40.9375 10.546875 
Q 45.796875 14.203125 45.796875 21.1875 
Q 45.796875 27.640625 41.28125 31.265625 
Q 36.765625 34.90625 28.71875 34.90625 
L 20.21875 34.90625 
L 20.21875 43.015625 
L 29.109375 43.015625 
Q 36.375 43.015625 40.234375 45.921875 
Q 44.09375 48.828125 44.09375 54.296875 
Q 44.09375 59.90625 40.109375 62.90625 
Q 36.140625 65.921875 28.71875 65.921875 
Q 24.65625 65.921875 20.015625 65.03125 
Q 15.375 64.15625 9.8125 62.3125 
L 9.8125 71.09375 
Q 15.4375 72.65625 20.34375 73.4375 
Q 25.25 74.21875 29.59375 74.21875 
Q 40.828125 74.21875 47.359375 69.109375 
Q 53.90625 64.015625 53.90625 55.328125 
Q 53.90625 49.265625 50.4375 45.09375 
Q 46.96875 40.921875 40.578125 39.3125 
z
" id="DejaVuSans-51"/>
       </defs>
       <use transform="translate(0 0.765625)" xlink:href="#DejaVuSans-49"/>
       <use transform="translate(63.623047 0.765625)" xlink:href="#DejaVuSans-48"/>
       <use transform="translate(128.203125 39.046875)scale(0.7)" xlink:href="#DejaVuSans-51"/>
      </g>
     </g>
    </g>
    <g id="xtick_11">
     <g id="line2d_21">
      <path clip-path="url(#pf682d983d8)" d="M 505.481571 238.8 
L 505.481571 143.9 
" style="fill:none;stroke:#b0b0b0;stroke-linecap:square;stroke-width:0.8;"/>
     </g>
     <g id="line2d_22">
      <g>
       <use style="stroke:#000000;stroke-width:0.8;" x="505.481571" xlink:href="#m784de029dc" y="238.8"/>
      </g>
     </g>
     <g id="text_16">
      <!-- $\mathdefault{10^{4}}$ -->
      <g transform="translate(496.681571 253.398438)scale(0.1 -0.1)">
       <use transform="translate(0 0.684375)" xlink:href="#DejaVuSans-49"/>
       <use transform="translate(63.623047 0.684375)" xlink:href="#DejaVuSans-48"/>
       <use transform="translate(128.203125 38.965625)scale(0.7)" xlink:href="#DejaVuSans-52"/>
      </g>
     </g>
    </g>
    <g id="xtick_12">
     <g id="line2d_23">
      <path clip-path="url(#pf682d983d8)" d="M 55.491634 238.8 
L 55.491634 143.9 
" style="fill:none;stroke:#b0b0b0;stroke-linecap:square;stroke-width:0.8;"/>
     </g>
     <g id="line2d_24">
      <defs>
       <path d="M 0 0 
L 0 2 
" id="mb1592a5c62" style="stroke:#000000;stroke-width:0.6;"/>
      </defs>
      <g>
       <use style="stroke:#000000;stroke-width:0.6;" x="55.491634" xlink:href="#mb1592a5c62" y="238.8"/>
      </g>
     </g>
    </g>
    <g id="xtick_13">
     <g id="line2d_25">
      <path clip-path="url(#pf682d983d8)" d="M 61.772358 238.8 
L 61.772358 143.9 
" style="fill:none;stroke:#b0b0b0;stroke-linecap:square;stroke-width:0.8;"/>
     </g>
     <g id="line2d_26">
      <g>
       <use style="stroke:#000000;stroke-width:0.6;" x="61.772358" xlink:href="#mb1592a5c62" y="238.8"/>
      </g>
     </g>
    </g>
    <g id="xtick_14">
     <g id="line2d_27">
      <path clip-path="url(#pf682d983d8)" d="M 67.312349 238.8 
L 67.312349 143.9 
" style="fill:none;stroke:#b0b0b0;stroke-linecap:square;stroke-width:0.8;"/>
     </g>
     <g id="line2d_28">
      <g>
       <use style="stroke:#000000;stroke-width:0.6;" x="67.312349" xlink:href="#mb1592a5c62" y="238.8"/>
      </g>
     </g>
    </g>
    <g id="xtick_15">
     <g id="line2d_29">
      <path clip-path="url(#pf682d983d8)" d="M 104.870607 238.8 
L 104.870607 143.9 
" style="fill:none;stroke:#b0b0b0;stroke-linecap:square;stroke-width:0.8;"/>
     </g>
     <g id="line2d_30">
      <g>
       <use style="stroke:#000000;stroke-width:0.6;" x="104.870607" xlink:href="#mb1592a5c62" y="238.8"/>
      </g>
     </g>
    </g>
    <g id="xtick_16">
     <g id="line2d_31">
      <path clip-path="url(#pf682d983d8)" d="M 123.941886 238.8 
L 123.941886 143.9 
" style="fill:none;stroke:#b0b0b0;stroke-linecap:square;stroke-width:0.8;"/>
     </g>
     <g id="line2d_32">
      <g>
       <use style="stroke:#000000;stroke-width:0.6;" x="123.941886" xlink:href="#mb1592a5c62" y="238.8"/>
      </g>
     </g>
    </g>
    <g id="xtick_17">
     <g id="line2d_33">
      <path clip-path="url(#pf682d983d8)" d="M 137.473173 238.8 
L 137.473173 143.9 
" style="fill:none;stroke:#b0b0b0;stroke-linecap:square;stroke-width:0.8;"/>
     </g>
     <g id="line2d_34">
      <g>
       <use style="stroke:#000000;stroke-width:0.6;" x="137.473173" xlink:href="#mb1592a5c62" y="238.8"/>
      </g>
     </g>
    </g>
    <g id="xtick_18">
     <g id="line2d_35">
      <path clip-path="url(#pf682d983d8)" d="M 147.968856 238.8 
L 147.968856 143.9 
" style="fill:none;stroke:#b0b0b0;stroke-linecap:square;stroke-width:0.8;"/>
     </g>
     <g id="line2d_36">
      <g>
       <use style="stroke:#000000;stroke-width:0.6;" x="147.968856" xlink:href="#mb1592a5c62" y="238.8"/>
      </g>
     </g>
    </g>
    <g id="xtick_19">
     <g id="line2d_37">
      <path clip-path="url(#pf682d983d8)" d="M 156.544452 238.8 
L 156.544452 143.9 
" style="fill:none;stroke:#b0b0b0;stroke-linecap:square;stroke-width:0.8;"/>
     </g>
     <g id="line2d_38">
      <g>
       <use style="stroke:#000000;stroke-width:0.6;" x="156.544452" xlink:href="#mb1592a5c62" y="238.8"/>
      </g>
     </g>
    </g>
    <g id="xtick_20">
     <g id="line2d_39">
      <path clip-path="url(#pf682d983d8)" d="M 163.795016 238.8 
L 163.795016 143.9 
" style="fill:none;stroke:#b0b0b0;stroke-linecap:square;stroke-width:0.8;"/>
     </g>
     <g id="line2d_40">
      <g>
       <use style="stroke:#000000;stroke-width:0.6;" x="163.795016" xlink:href="#mb1592a5c62" y="238.8"/>
      </g>
     </g>
    </g>
    <g id="xtick_21">
     <g id="line2d_41">
      <path clip-path="url(#pf682d983d8)" d="M 170.07574 238.8 
L 170.07574 143.9 
" style="fill:none;stroke:#b0b0b0;stroke-linecap:square;stroke-width:0.8;"/>
     </g>
     <g id="line2d_42">
      <g>
       <use style="stroke:#000000;stroke-width:0.6;" x="170.07574" xlink:href="#mb1592a5c62" y="238.8"/>
      </g>
     </g>
    </g>
    <g id="xtick_22">
     <g id="line2d_43">
      <path clip-path="url(#pf682d983d8)" d="M 175.615731 238.8 
L 175.615731 143.9 
" style="fill:none;stroke:#b0b0b0;stroke-linecap:square;stroke-width:0.8;"/>
     </g>
     <g id="line2d_44">
      <g>
       <use style="stroke:#000000;stroke-width:0.6;" x="175.615731" xlink:href="#mb1592a5c62" y="238.8"/>
      </g>
     </g>
    </g>
    <g id="xtick_23">
     <g id="line2d_45">
      <path clip-path="url(#pf682d983d8)" d="M 213.173989 238.8 
L 213.173989 143.9 
" style="fill:none;stroke:#b0b0b0;stroke-linecap:square;stroke-width:0.8;"/>
     </g>
     <g id="line2d_46">
      <g>
       <use style="stroke:#000000;stroke-width:0.6;" x="213.173989" xlink:href="#mb1592a5c62" y="238.8"/>
      </g>
     </g>
    </g>
    <g id="xtick_24">
     <g id="line2d_47">
      <path clip-path="url(#pf682d983d8)" d="M 232.245268 238.8 
L 232.245268 143.9 
" style="fill:none;stroke:#b0b0b0;stroke-linecap:square;stroke-width:0.8;"/>
     </g>
     <g id="line2d_48">
      <g>
       <use style="stroke:#000000;stroke-width:0.6;" x="232.245268" xlink:href="#mb1592a5c62" y="238.8"/>
      </g>
     </g>
    </g>
    <g id="xtick_25">
     <g id="line2d_49">
      <path clip-path="url(#pf682d983d8)" d="M 245.776556 238.8 
L 245.776556 143.9 
" style="fill:none;stroke:#b0b0b0;stroke-linecap:square;stroke-width:0.8;"/>
     </g>
     <g id="line2d_50">
      <g>
       <use style="stroke:#000000;stroke-width:0.6;" x="245.776556" xlink:href="#mb1592a5c62" y="238.8"/>
      </g>
     </g>
    </g>
    <g id="xtick_26">
     <g id="line2d_51">
      <path clip-path="url(#pf682d983d8)" d="M 256.272238 238.8 
L 256.272238 143.9 
" style="fill:none;stroke:#b0b0b0;stroke-linecap:square;stroke-width:0.8;"/>
     </g>
     <g id="line2d_52">
      <g>
       <use style="stroke:#000000;stroke-width:0.6;" x="256.272238" xlink:href="#mb1592a5c62" y="238.8"/>
      </g>
     </g>
    </g>
    <g id="xtick_27">
     <g id="line2d_53">
      <path clip-path="url(#pf682d983d8)" d="M 264.847835 238.8 
L 264.847835 143.9 
" style="fill:none;stroke:#b0b0b0;stroke-linecap:square;stroke-width:0.8;"/>
     </g>
     <g id="line2d_54">
      <g>
       <use style="stroke:#000000;stroke-width:0.6;" x="264.847835" xlink:href="#mb1592a5c62" y="238.8"/>
      </g>
     </g>
    </g>
    <g id="xtick_28">
     <g id="line2d_55">
      <path clip-path="url(#pf682d983d8)" d="M 272.098399 238.8 
L 272.098399 143.9 
" style="fill:none;stroke:#b0b0b0;stroke-linecap:square;stroke-width:0.8;"/>
     </g>
     <g id="line2d_56">
      <g>
       <use style="stroke:#000000;stroke-width:0.6;" x="272.098399" xlink:href="#mb1592a5c62" y="238.8"/>
      </g>
     </g>
    </g>
    <g id="xtick_29">
     <g id="line2d_57">
      <path clip-path="url(#pf682d983d8)" d="M 278.379123 238.8 
L 278.379123 143.9 
" style="fill:none;stroke:#b0b0b0;stroke-linecap:square;stroke-width:0.8;"/>
     </g>
     <g id="line2d_58">
      <g>
       <use style="stroke:#000000;stroke-width:0.6;" x="278.379123" xlink:href="#mb1592a5c62" y="238.8"/>
      </g>
     </g>
    </g>
    <g id="xtick_30">
     <g id="line2d_59">
      <path clip-path="url(#pf682d983d8)" d="M 283.919114 238.8 
L 283.919114 143.9 
" style="fill:none;stroke:#b0b0b0;stroke-linecap:square;stroke-width:0.8;"/>
     </g>
     <g id="line2d_60">
      <g>
       <use style="stroke:#000000;stroke-width:0.6;" x="283.919114" xlink:href="#mb1592a5c62" y="238.8"/>
      </g>
     </g>
    </g>
    <g id="xtick_31">
     <g id="line2d_61">
      <path clip-path="url(#pf682d983d8)" d="M 321.477372 238.8 
L 321.477372 143.9 
" style="fill:none;stroke:#b0b0b0;stroke-linecap:square;stroke-width:0.8;"/>
     </g>
     <g id="line2d_62">
      <g>
       <use style="stroke:#000000;stroke-width:0.6;" x="321.477372" xlink:href="#mb1592a5c62" y="238.8"/>
      </g>
     </g>
    </g>
    <g id="xtick_32">
     <g id="line2d_63">
      <path clip-path="url(#pf682d983d8)" d="M 340.548651 238.8 
L 340.548651 143.9 
" style="fill:none;stroke:#b0b0b0;stroke-linecap:square;stroke-width:0.8;"/>
     </g>
     <g id="line2d_64">
      <g>
       <use style="stroke:#000000;stroke-width:0.6;" x="340.548651" xlink:href="#mb1592a5c62" y="238.8"/>
      </g>
     </g>
    </g>
    <g id="xtick_33">
     <g id="line2d_65">
      <path clip-path="url(#pf682d983d8)" d="M 354.079939 238.8 
L 354.079939 143.9 
" style="fill:none;stroke:#b0b0b0;stroke-linecap:square;stroke-width:0.8;"/>
     </g>
     <g id="line2d_66">
      <g>
       <use style="stroke:#000000;stroke-width:0.6;" x="354.079939" xlink:href="#mb1592a5c62" y="238.8"/>
      </g>
     </g>
    </g>
    <g id="xtick_34">
     <g id="line2d_67">
      <path clip-path="url(#pf682d983d8)" d="M 364.575621 238.8 
L 364.575621 143.9 
" style="fill:none;stroke:#b0b0b0;stroke-linecap:square;stroke-width:0.8;"/>
     </g>
     <g id="line2d_68">
      <g>
       <use style="stroke:#000000;stroke-width:0.6;" x="364.575621" xlink:href="#mb1592a5c62" y="238.8"/>
      </g>
     </g>
    </g>
    <g id="xtick_35">
     <g id="line2d_69">
      <path clip-path="url(#pf682d983d8)" d="M 373.151218 238.8 
L 373.151218 143.9 
" style="fill:none;stroke:#b0b0b0;stroke-linecap:square;stroke-width:0.8;"/>
     </g>
     <g id="line2d_70">
      <g>
       <use style="stroke:#000000;stroke-width:0.6;" x="373.151218" xlink:href="#mb1592a5c62" y="238.8"/>
      </g>
     </g>
    </g>
    <g id="xtick_36">
     <g id="line2d_71">
      <path clip-path="url(#pf682d983d8)" d="M 380.401782 238.8 
L 380.401782 143.9 
" style="fill:none;stroke:#b0b0b0;stroke-linecap:square;stroke-width:0.8;"/>
     </g>
     <g id="line2d_72">
      <g>
       <use style="stroke:#000000;stroke-width:0.6;" x="380.401782" xlink:href="#mb1592a5c62" y="238.8"/>
      </g>
     </g>
    </g>
    <g id="xtick_37">
     <g id="line2d_73">
      <path clip-path="url(#pf682d983d8)" d="M 386.682506 238.8 
L 386.682506 143.9 
" style="fill:none;stroke:#b0b0b0;stroke-linecap:square;stroke-width:0.8;"/>
     </g>
     <g id="line2d_74">
      <g>
       <use style="stroke:#000000;stroke-width:0.6;" x="386.682506" xlink:href="#mb1592a5c62" y="238.8"/>
      </g>
     </g>
    </g>
    <g id="xtick_38">
     <g id="line2d_75">
      <path clip-path="url(#pf682d983d8)" d="M 392.222497 238.8 
L 392.222497 143.9 
" style="fill:none;stroke:#b0b0b0;stroke-linecap:square;stroke-width:0.8;"/>
     </g>
     <g id="line2d_76">
      <g>
       <use style="stroke:#000000;stroke-width:0.6;" x="392.222497" xlink:href="#mb1592a5c62" y="238.8"/>
      </g>
     </g>
    </g>
    <g id="xtick_39">
     <g id="line2d_77">
      <path clip-path="url(#pf682d983d8)" d="M 429.780755 238.8 
L 429.780755 143.9 
" style="fill:none;stroke:#b0b0b0;stroke-linecap:square;stroke-width:0.8;"/>
     </g>
     <g id="line2d_78">
      <g>
       <use style="stroke:#000000;stroke-width:0.6;" x="429.780755" xlink:href="#mb1592a5c62" y="238.8"/>
      </g>
     </g>
    </g>
    <g id="xtick_40">
     <g id="line2d_79">
      <path clip-path="url(#pf682d983d8)" d="M 448.852034 238.8 
L 448.852034 143.9 
" style="fill:none;stroke:#b0b0b0;stroke-linecap:square;stroke-width:0.8;"/>
     </g>
     <g id="line2d_80">
      <g>
       <use style="stroke:#000000;stroke-width:0.6;" x="448.852034" xlink:href="#mb1592a5c62" y="238.8"/>
      </g>
     </g>
    </g>
    <g id="xtick_41">
     <g id="line2d_81">
      <path clip-path="url(#pf682d983d8)" d="M 462.383322 238.8 
L 462.383322 143.9 
" style="fill:none;stroke:#b0b0b0;stroke-linecap:square;stroke-width:0.8;"/>
     </g>
     <g id="line2d_82">
      <g>
       <use style="stroke:#000000;stroke-width:0.6;" x="462.383322" xlink:href="#mb1592a5c62" y="238.8"/>
      </g>
     </g>
    </g>
    <g id="xtick_42">
     <g id="line2d_83">
      <path clip-path="url(#pf682d983d8)" d="M 472.879004 238.8 
L 472.879004 143.9 
" style="fill:none;stroke:#b0b0b0;stroke-linecap:square;stroke-width:0.8;"/>
     </g>
     <g id="line2d_84">
      <g>
       <use style="stroke:#000000;stroke-width:0.6;" x="472.879004" xlink:href="#mb1592a5c62" y="238.8"/>
      </g>
     </g>
    </g>
    <g id="xtick_43">
     <g id="line2d_85">
      <path clip-path="url(#pf682d983d8)" d="M 481.454601 238.8 
L 481.454601 143.9 
" style="fill:none;stroke:#b0b0b0;stroke-linecap:square;stroke-width:0.8;"/>
     </g>
     <g id="line2d_86">
      <g>
       <use style="stroke:#000000;stroke-width:0.6;" x="481.454601" xlink:href="#mb1592a5c62" y="238.8"/>
      </g>
     </g>
    </g>
    <g id="xtick_44">
     <g id="line2d_87">
      <path clip-path="url(#pf682d983d8)" d="M 488.705164 238.8 
L 488.705164 143.9 
" style="fill:none;stroke:#b0b0b0;stroke-linecap:square;stroke-width:0.8;"/>
     </g>
     <g id="line2d_88">
      <g>
       <use style="stroke:#000000;stroke-width:0.6;" x="488.705164" xlink:href="#mb1592a5c62" y="238.8"/>
      </g>
     </g>
    </g>
    <g id="xtick_45">
     <g id="line2d_89">
      <path clip-path="url(#pf682d983d8)" d="M 494.985888 238.8 
L 494.985888 143.9 
" style="fill:none;stroke:#b0b0b0;stroke-linecap:square;stroke-width:0.8;"/>
     </g>
     <g id="line2d_90">
      <g>
       <use style="stroke:#000000;stroke-width:0.6;" x="494.985888" xlink:href="#mb1592a5c62" y="238.8"/>
      </g>
     </g>
    </g>
    <g id="xtick_46">
     <g id="line2d_91">
      <path clip-path="url(#pf682d983d8)" d="M 500.52588 238.8 
L 500.52588 143.9 
" style="fill:none;stroke:#b0b0b0;stroke-linecap:square;stroke-width:0.8;"/>
     </g>
     <g id="line2d_92">
      <g>
       <use style="stroke:#000000;stroke-width:0.6;" x="500.52588" xlink:href="#mb1592a5c62" y="238.8"/>
      </g>
     </g>
    </g>
    <g id="xtick_47">
     <g id="line2d_93">
      <path clip-path="url(#pf682d983d8)" d="M 538.084137 238.8 
L 538.084137 143.9 
" style="fill:none;stroke:#b0b0b0;stroke-linecap:square;stroke-width:0.8;"/>
     </g>
     <g id="line2d_94">
      <g>
       <use style="stroke:#000000;stroke-width:0.6;" x="538.084137" xlink:href="#mb1592a5c62" y="238.8"/>
      </g>
     </g>
    </g>
    <g id="xtick_48">
     <g id="line2d_95">
      <path clip-path="url(#pf682d983d8)" d="M 557.155417 238.8 
L 557.155417 143.9 
" style="fill:none;stroke:#b0b0b0;stroke-linecap:square;stroke-width:0.8;"/>
     </g>
     <g id="line2d_96">
      <g>
       <use style="stroke:#000000;stroke-width:0.6;" x="557.155417" xlink:href="#mb1592a5c62" y="238.8"/>
      </g>
     </g>
    </g>
    <g id="text_17">
     <!-- Frequency [Hz] -->
     <g transform="translate(267.415625 267.076562)scale(0.1 -0.1)">
      <defs>
       <path d="M 9.8125 72.90625 
L 51.703125 72.90625 
L 51.703125 64.59375 
L 19.671875 64.59375 
L 19.671875 43.109375 
L 48.578125 43.109375 
L 48.578125 34.8125 
L 19.671875 34.8125 
L 19.671875 0 
L 9.8125 0 
z
" id="DejaVuSans-70"/>
       <path d="M 41.109375 46.296875 
Q 39.59375 47.171875 37.8125 47.578125 
Q 36.03125 48 33.890625 48 
Q 26.265625 48 22.1875 43.046875 
Q 18.109375 38.09375 18.109375 28.8125 
L 18.109375 0 
L 9.078125 0 
L 9.078125 54.6875 
L 18.109375 54.6875 
L 18.109375 46.1875 
Q 20.953125 51.171875 25.484375 53.578125 
Q 30.03125 56 36.53125 56 
Q 37.453125 56 38.578125 55.875 
Q 39.703125 55.765625 41.0625 55.515625 
z
" id="DejaVuSans-114"/>
       <path d="M 14.796875 27.296875 
Q 14.796875 17.390625 18.875 11.75 
Q 22.953125 6.109375 30.078125 6.109375 
Q 37.203125 6.109375 41.296875 11.75 
Q 45.40625 17.390625 45.40625 27.296875 
Q 45.40625 37.203125 41.296875 42.84375 
Q 37.203125 48.484375 30.078125 48.484375 
Q 22.953125 48.484375 18.875 42.84375 
Q 14.796875 37.203125 14.796875 27.296875 
z
M 45.40625 8.203125 
Q 42.578125 3.328125 38.25 0.953125 
Q 33.9375 -1.421875 27.875 -1.421875 
Q 17.96875 -1.421875 11.734375 6.484375 
Q 5.515625 14.40625 5.515625 27.296875 
Q 5.515625 40.1875 11.734375 48.09375 
Q 17.96875 56 27.875 56 
Q 33.9375 56 38.25 53.625 
Q 42.578125 51.265625 45.40625 46.390625 
L 45.40625 54.6875 
L 54.390625 54.6875 
L 54.390625 -20.796875 
L 45.40625 -20.796875 
z
" id="DejaVuSans-113"/>
       <path d="M 8.5 21.578125 
L 8.5 54.6875 
L 17.484375 54.6875 
L 17.484375 21.921875 
Q 17.484375 14.15625 20.5 10.265625 
Q 23.53125 6.390625 29.59375 6.390625 
Q 36.859375 6.390625 41.078125 11.03125 
Q 45.3125 15.671875 45.3125 23.6875 
L 45.3125 54.6875 
L 54.296875 54.6875 
L 54.296875 0 
L 45.3125 0 
L 45.3125 8.40625 
Q 42.046875 3.421875 37.71875 1 
Q 33.40625 -1.421875 27.6875 -1.421875 
Q 18.265625 -1.421875 13.375 4.4375 
Q 8.5 10.296875 8.5 21.578125 
z
M 31.109375 56 
z
" id="DejaVuSans-117"/>
       <path d="M 54.890625 33.015625 
L 54.890625 0 
L 45.90625 0 
L 45.90625 32.71875 
Q 45.90625 40.484375 42.875 44.328125 
Q 39.84375 48.1875 33.796875 48.1875 
Q 26.515625 48.1875 22.3125 43.546875 
Q 18.109375 38.921875 18.109375 30.90625 
L 18.109375 0 
L 9.078125 0 
L 9.078125 54.6875 
L 18.109375 54.6875 
L 18.109375 46.1875 
Q 21.34375 51.125 25.703125 53.5625 
Q 30.078125 56 35.796875 56 
Q 45.21875 56 50.046875 50.171875 
Q 54.890625 44.34375 54.890625 33.015625 
z
" id="DejaVuSans-110"/>
       <path d="M 48.78125 52.59375 
L 48.78125 44.1875 
Q 44.96875 46.296875 41.140625 47.34375 
Q 37.3125 48.390625 33.40625 48.390625 
Q 24.65625 48.390625 19.8125 42.84375 
Q 14.984375 37.3125 14.984375 27.296875 
Q 14.984375 17.28125 19.8125 11.734375 
Q 24.65625 6.203125 33.40625 6.203125 
Q 37.3125 6.203125 41.140625 7.25 
Q 44.96875 8.296875 48.78125 10.40625 
L 48.78125 2.09375 
Q 45.015625 0.34375 40.984375 -0.53125 
Q 36.96875 -1.421875 32.421875 -1.421875 
Q 20.0625 -1.421875 12.78125 6.34375 
Q 5.515625 14.109375 5.515625 27.296875 
Q 5.515625 40.671875 12.859375 48.328125 
Q 20.21875 56 33.015625 56 
Q 37.15625 56 41.109375 55.140625 
Q 45.0625 54.296875 48.78125 52.59375 
z
" id="DejaVuSans-99"/>
       <path d="M 32.171875 -5.078125 
Q 28.375 -14.84375 24.75 -17.8125 
Q 21.140625 -20.796875 15.09375 -20.796875 
L 7.90625 -20.796875 
L 7.90625 -13.28125 
L 13.1875 -13.28125 
Q 16.890625 -13.28125 18.9375 -11.515625 
Q 21 -9.765625 23.484375 -3.21875 
L 25.09375 0.875 
L 2.984375 54.6875 
L 12.5 54.6875 
L 29.59375 11.921875 
L 46.6875 54.6875 
L 56.203125 54.6875 
z
" id="DejaVuSans-121"/>
       <path d="M 9.8125 72.90625 
L 19.671875 72.90625 
L 19.671875 43.015625 
L 55.515625 43.015625 
L 55.515625 72.90625 
L 65.375 72.90625 
L 65.375 0 
L 55.515625 0 
L 55.515625 34.71875 
L 19.671875 34.71875 
L 19.671875 0 
L 9.8125 0 
z
" id="DejaVuSans-72"/>
       <path d="M 5.515625 54.6875 
L 48.1875 54.6875 
L 48.1875 46.484375 
L 14.40625 7.171875 
L 48.1875 7.171875 
L 48.1875 0 
L 4.296875 0 
L 4.296875 8.203125 
L 38.09375 47.515625 
L 5.515625 47.515625 
z
" id="DejaVuSans-122"/>
      </defs>
      <use xlink:href="#DejaVuSans-70"/>
      <use x="50.269531" xlink:href="#DejaVuSans-114"/>
      <use x="89.132812" xlink:href="#DejaVuSans-101"/>
      <use x="150.65625" xlink:href="#DejaVuSans-113"/>
      <use x="214.132812" xlink:href="#DejaVuSans-117"/>
      <use x="277.511719" xlink:href="#DejaVuSans-101"/>
      <use x="339.035156" xlink:href="#DejaVuSans-110"/>
      <use x="402.414062" xlink:href="#DejaVuSans-99"/>
      <use x="457.394531" xlink:href="#DejaVuSans-121"/>
      <use x="516.574219" xlink:href="#DejaVuSans-32"/>
      <use x="548.361328" xlink:href="#DejaVuSans-91"/>
      <use x="587.375" xlink:href="#DejaVuSans-72"/>
      <use x="662.570312" xlink:href="#DejaVuSans-122"/>
      <use x="715.060547" xlink:href="#DejaVuSans-93"/>
     </g>
    </g>
   </g>
   <g id="matplotlib.axis_4">
    <g id="ytick_4">
     <g id="line2d_97">
      <path clip-path="url(#pf682d983d8)" d="M 48.982813 231.582128 
L 561.257812 231.582128 
" style="fill:none;stroke:#b0b0b0;stroke-linecap:square;stroke-width:0.8;"/>
     </g>
     <g id="line2d_98">
      <g>
       <use style="stroke:#000000;stroke-width:0.8;" x="48.982813" xlink:href="#mb94b2cb5af" y="231.582128"/>
      </g>
     </g>
     <g id="text_18">
      <!-- −20 -->
      <g transform="translate(20.878125 235.381346)scale(0.1 -0.1)">
       <defs>
        <path d="M 10.59375 35.5 
L 73.1875 35.5 
L 73.1875 27.203125 
L 10.59375 27.203125 
z
" id="DejaVuSans-8722"/>
       </defs>
       <use xlink:href="#DejaVuSans-8722"/>
       <use x="83.789062" xlink:href="#DejaVuSans-50"/>
       <use x="147.412109" xlink:href="#DejaVuSans-48"/>
      </g>
     </g>
    </g>
    <g id="ytick_5">
     <g id="line2d_99">
      <path clip-path="url(#pf682d983d8)" d="M 48.982813 205.27228 
L 561.257812 205.27228 
" style="fill:none;stroke:#b0b0b0;stroke-linecap:square;stroke-width:0.8;"/>
     </g>
     <g id="line2d_100">
      <g>
       <use style="stroke:#000000;stroke-width:0.8;" x="48.982813" xlink:href="#mb94b2cb5af" y="205.27228"/>
      </g>
     </g>
     <g id="text_19">
      <!-- −15 -->
      <g transform="translate(20.878125 209.071499)scale(0.1 -0.1)">
       <defs>
        <path d="M 10.796875 72.90625 
L 49.515625 72.90625 
L 49.515625 64.59375 
L 19.828125 64.59375 
L 19.828125 46.734375 
Q 21.96875 47.46875 24.109375 47.828125 
Q 26.265625 48.1875 28.421875 48.1875 
Q 40.625 48.1875 47.75 41.5 
Q 54.890625 34.8125 54.890625 23.390625 
Q 54.890625 11.625 47.5625 5.09375 
Q 40.234375 -1.421875 26.90625 -1.421875 
Q 22.3125 -1.421875 17.546875 -0.640625 
Q 12.796875 0.140625 7.71875 1.703125 
L 7.71875 11.625 
Q 12.109375 9.234375 16.796875 8.0625 
Q 21.484375 6.890625 26.703125 6.890625 
Q 35.15625 6.890625 40.078125 11.328125 
Q 45.015625 15.765625 45.015625 23.390625 
Q 45.015625 31 40.078125 35.4375 
Q 35.15625 39.890625 26.703125 39.890625 
Q 22.75 39.890625 18.8125 39.015625 
Q 14.890625 38.140625 10.796875 36.28125 
z
" id="DejaVuSans-53"/>
       </defs>
       <use xlink:href="#DejaVuSans-8722"/>
       <use x="83.789062" xlink:href="#DejaVuSans-49"/>
       <use x="147.412109" xlink:href="#DejaVuSans-53"/>
      </g>
     </g>
    </g>
    <g id="ytick_6">
     <g id="line2d_101">
      <path clip-path="url(#pf682d983d8)" d="M 48.982813 178.962433 
L 561.257812 178.962433 
" style="fill:none;stroke:#b0b0b0;stroke-linecap:square;stroke-width:0.8;"/>
     </g>
     <g id="line2d_102">
      <g>
       <use style="stroke:#000000;stroke-width:0.8;" x="48.982813" xlink:href="#mb94b2cb5af" y="178.962433"/>
      </g>
     </g>
     <g id="text_20">
      <!-- −10 -->
      <g transform="translate(20.878125 182.761651)scale(0.1 -0.1)">
       <use xlink:href="#DejaVuSans-8722"/>
       <use x="83.789062" xlink:href="#DejaVuSans-49"/>
       <use x="147.412109" xlink:href="#DejaVuSans-48"/>
      </g>
     </g>
    </g>
    <g id="ytick_7">
     <g id="line2d_103">
      <path clip-path="url(#pf682d983d8)" d="M 48.982813 152.652585 
L 561.257812 152.652585 
" style="fill:none;stroke:#b0b0b0;stroke-linecap:square;stroke-width:0.8;"/>
     </g>
     <g id="line2d_104">
      <g>
       <use style="stroke:#000000;stroke-width:0.8;" x="48.982813" xlink:href="#mb94b2cb5af" y="152.652585"/>
      </g>
     </g>
     <g id="text_21">
      <!-- −5 -->
      <g transform="translate(27.240625 156.451804)scale(0.1 -0.1)">
       <use xlink:href="#DejaVuSans-8722"/>
       <use x="83.789062" xlink:href="#DejaVuSans-53"/>
      </g>
     </g>
    </g>
    <g id="text_22">
     <!-- Gain [dB] -->
     <g transform="translate(14.798438 214.941406)rotate(-90)scale(0.1 -0.1)">
      <defs>
       <path d="M 59.515625 10.40625 
L 59.515625 29.984375 
L 43.40625 29.984375 
L 43.40625 38.09375 
L 69.28125 38.09375 
L 69.28125 6.78125 
Q 63.578125 2.734375 56.6875 0.65625 
Q 49.8125 -1.421875 42 -1.421875 
Q 24.90625 -1.421875 15.25 8.5625 
Q 5.609375 18.5625 5.609375 36.375 
Q 5.609375 54.25 15.25 64.234375 
Q 24.90625 74.21875 42 74.21875 
Q 49.125 74.21875 55.546875 72.453125 
Q 61.96875 70.703125 67.390625 67.28125 
L 67.390625 56.78125 
Q 61.921875 61.421875 55.765625 63.765625 
Q 49.609375 66.109375 42.828125 66.109375 
Q 29.4375 66.109375 22.71875 58.640625 
Q 16.015625 51.171875 16.015625 36.375 
Q 16.015625 21.625 22.71875 14.15625 
Q 29.4375 6.6875 42.828125 6.6875 
Q 48.046875 6.6875 52.140625 7.59375 
Q 56.25 8.5 59.515625 10.40625 
z
" id="DejaVuSans-71"/>
       <path d="M 34.28125 27.484375 
Q 23.390625 27.484375 19.1875 25 
Q 14.984375 22.515625 14.984375 16.5 
Q 14.984375 11.71875 18.140625 8.90625 
Q 21.296875 6.109375 26.703125 6.109375 
Q 34.1875 6.109375 38.703125 11.40625 
Q 43.21875 16.703125 43.21875 25.484375 
L 43.21875 27.484375 
z
M 52.203125 31.203125 
L 52.203125 0 
L 43.21875 0 
L 43.21875 8.296875 
Q 40.140625 3.328125 35.546875 0.953125 
Q 30.953125 -1.421875 24.3125 -1.421875 
Q 15.921875 -1.421875 10.953125 3.296875 
Q 6 8.015625 6 15.921875 
Q 6 25.140625 12.171875 29.828125 
Q 18.359375 34.515625 30.609375 34.515625 
L 43.21875 34.515625 
L 43.21875 35.40625 
Q 43.21875 41.609375 39.140625 45 
Q 35.0625 48.390625 27.6875 48.390625 
Q 23 48.390625 18.546875 47.265625 
Q 14.109375 46.140625 10.015625 43.890625 
L 10.015625 52.203125 
Q 14.9375 54.109375 19.578125 55.046875 
Q 24.21875 56 28.609375 56 
Q 40.484375 56 46.34375 49.84375 
Q 52.203125 43.703125 52.203125 31.203125 
z
" id="DejaVuSans-97"/>
       <path d="M 45.40625 46.390625 
L 45.40625 75.984375 
L 54.390625 75.984375 
L 54.390625 0 
L 45.40625 0 
L 45.40625 8.203125 
Q 42.578125 3.328125 38.25 0.953125 
Q 33.9375 -1.421875 27.875 -1.421875 
Q 17.96875 -1.421875 11.734375 6.484375 
Q 5.515625 14.40625 5.515625 27.296875 
Q 5.515625 40.1875 11.734375 48.09375 
Q 17.96875 56 27.875 56 
Q 33.9375 56 38.25 53.625 
Q 42.578125 51.265625 45.40625 46.390625 
z
M 14.796875 27.296875 
Q 14.796875 17.390625 18.875 11.75 
Q 22.953125 6.109375 30.078125 6.109375 
Q 37.203125 6.109375 41.296875 11.75 
Q 45.40625 17.390625 45.40625 27.296875 
Q 45.40625 37.203125 41.296875 42.84375 
Q 37.203125 48.484375 30.078125 48.484375 
Q 22.953125 48.484375 18.875 42.84375 
Q 14.796875 37.203125 14.796875 27.296875 
z
" id="DejaVuSans-100"/>
       <path d="M 19.671875 34.8125 
L 19.671875 8.109375 
L 35.5 8.109375 
Q 43.453125 8.109375 47.28125 11.40625 
Q 51.125 14.703125 51.125 21.484375 
Q 51.125 28.328125 47.28125 31.5625 
Q 43.453125 34.8125 35.5 34.8125 
z
M 19.671875 64.796875 
L 19.671875 42.828125 
L 34.28125 42.828125 
Q 41.5 42.828125 45.03125 45.53125 
Q 48.578125 48.25 48.578125 53.8125 
Q 48.578125 59.328125 45.03125 62.0625 
Q 41.5 64.796875 34.28125 64.796875 
z
M 9.8125 72.90625 
L 35.015625 72.90625 
Q 46.296875 72.90625 52.390625 68.21875 
Q 58.5 63.53125 58.5 54.890625 
Q 58.5 48.1875 55.375 44.234375 
Q 52.25 40.28125 46.1875 39.3125 
Q 53.46875 37.75 57.5 32.78125 
Q 61.53125 27.828125 61.53125 20.40625 
Q 61.53125 10.640625 54.890625 5.3125 
Q 48.25 0 35.984375 0 
L 9.8125 0 
z
" id="DejaVuSans-66"/>
      </defs>
      <use xlink:href="#DejaVuSans-71"/>
      <use x="77.490234" xlink:href="#DejaVuSans-97"/>
      <use x="138.769531" xlink:href="#DejaVuSans-105"/>
      <use x="166.552734" xlink:href="#DejaVuSans-110"/>
      <use x="229.931641" xlink:href="#DejaVuSans-32"/>
      <use x="261.71875" xlink:href="#DejaVuSans-91"/>
      <use x="300.732422" xlink:href="#DejaVuSans-100"/>
      <use x="364.208984" xlink:href="#DejaVuSans-66"/>
      <use x="432.8125" xlink:href="#DejaVuSans-93"/>
     </g>
    </g>
   </g>
   <g id="line2d_105">
    <path clip-path="url(#pf682d983d8)" d="M 72.26804 233.437298 
L 83.098379 223.234504 
L 93.928717 213.210468 
L 104.759053 203.45709 
L 115.589391 194.103552 
L 126.419732 185.319901 
L 137.250069 177.308402 
L 148.080407 170.274695 
L 158.910747 164.378766 
L 169.741083 159.683841 
L 180.571422 156.1332 
L 191.401762 153.57107 
L 202.2321 151.792944 
L 213.062438 150.595369 
L 223.892775 149.806099 
L 234.723113 149.293659 
L 245.553454 148.964257 
L 256.383792 148.753839 
L 267.214128 148.6199 
L 278.044467 148.534724 
L 288.874805 148.480402 
L 299.705143 148.445395 
L 310.535482 148.422248 
L 321.36582 148.406019 
L 332.196159 148.393298 
L 343.026495 148.38153 
L 353.856836 148.368599 
L 364.687172 148.352658 
L 375.517511 148.332234 
L 386.34785 148.306717 
L 397.178188 148.277112 
L 408.008526 148.246834 
L 418.838864 148.222315 
L 429.669203 148.213636 
L 440.499542 148.236346 
L 451.329878 148.314638 
L 462.160218 148.485415 
L 472.990558 148.802673 
L 483.820893 149.343126 
L 494.651232 150.213981 
L 505.481571 151.561 
L 516.311908 153.570493 
L 527.142246 156.456121 
L 537.972585 160.423793 
" style="fill:none;stroke:#0000ff;stroke-linecap:square;stroke-width:1.5;"/>
    <defs>
     <path d="M 0 1.5 
C 0.397805 1.5 0.77937 1.341951 1.06066 1.06066 
C 1.341951 0.77937 1.5 0.397805 1.5 0 
C 1.5 -0.397805 1.341951 -0.77937 1.06066 -1.06066 
C 0.77937 -1.341951 0.397805 -1.5 0 -1.5 
C -0.397805 -1.5 -0.77937 -1.341951 -1.06066 -1.06066 
C -1.341951 -0.77937 -1.5 -0.397805 -1.5 0 
C -1.5 0.397805 -1.341951 0.77937 -1.06066 1.06066 
C -0.77937 1.341951 -0.397805 1.5 0 1.5 
z
" id="mb401d2cb26" style="stroke:#0000ff;"/>
    </defs>
    <g clip-path="url(#pf682d983d8)">
     <use style="fill:#0000ff;stroke:#0000ff;" x="72.26804" xlink:href="#mb401d2cb26" y="233.437298"/>
     <use style="fill:#0000ff;stroke:#0000ff;" x="83.098379" xlink:href="#mb401d2cb26" y="223.234504"/>
     <use style="fill:#0000ff;stroke:#0000ff;" x="93.928717" xlink:href="#mb401d2cb26" y="213.210468"/>
     <use style="fill:#0000ff;stroke:#0000ff;" x="104.759053" xlink:href="#mb401d2cb26" y="203.45709"/>
     <use style="fill:#0000ff;stroke:#0000ff;" x="115.589391" xlink:href="#mb401d2cb26" y="194.103552"/>
     <use style="fill:#0000ff;stroke:#0000ff;" x="126.419732" xlink:href="#mb401d2cb26" y="185.319901"/>
     <use style="fill:#0000ff;stroke:#0000ff;" x="137.250069" xlink:href="#mb401d2cb26" y="177.308402"/>
     <use style="fill:#0000ff;stroke:#0000ff;" x="148.080407" xlink:href="#mb401d2cb26" y="170.274695"/>
     <use style="fill:#0000ff;stroke:#0000ff;" x="158.910747" xlink:href="#mb401d2cb26" y="164.378766"/>
     <use style="fill:#0000ff;stroke:#0000ff;" x="169.741083" xlink:href="#mb401d2cb26" y="159.683841"/>
     <use style="fill:#0000ff;stroke:#0000ff;" x="180.571422" xlink:href="#mb401d2cb26" y="156.1332"/>
     <use style="fill:#0000ff;stroke:#0000ff;" x="191.401762" xlink:href="#mb401d2cb26" y="153.57107"/>
     <use style="fill:#0000ff;stroke:#0000ff;" x="202.2321" xlink:href="#mb401d2cb26" y="151.792944"/>
     <use style="fill:#0000ff;stroke:#0000ff;" x="213.062438" xlink:href="#mb401d2cb26" y="150.595369"/>
     <use style="fill:#0000ff;stroke:#0000ff;" x="223.892775" xlink:href="#mb401d2cb26" y="149.806099"/>
     <use style="fill:#0000ff;stroke:#0000ff;" x="234.723113" xlink:href="#mb401d2cb26" y="149.293659"/>
     <use style="fill:#0000ff;stroke:#0000ff;" x="245.553454" xlink:href="#mb401d2cb26" y="148.964257"/>
     <use style="fill:#0000ff;stroke:#0000ff;" x="256.383792" xlink:href="#mb401d2cb26" y="148.753839"/>
     <use style="fill:#0000ff;stroke:#0000ff;" x="267.214128" xlink:href="#mb401d2cb26" y="148.6199"/>
     <use style="fill:#0000ff;stroke:#0000ff;" x="278.044467" xlink:href="#mb401d2cb26" y="148.534724"/>
     <use style="fill:#0000ff;stroke:#0000ff;" x="288.874805" xlink:href="#mb401d2cb26" y="148.480402"/>
     <use style="fill:#0000ff;stroke:#0000ff;" x="299.705143" xlink:href="#mb401d2cb26" y="148.445395"/>
     <use style="fill:#0000ff;stroke:#0000ff;" x="310.535482" xlink:href="#mb401d2cb26" y="148.422248"/>
     <use style="fill:#0000ff;stroke:#0000ff;" x="321.36582" xlink:href="#mb401d2cb26" y="148.406019"/>
     <use style="fill:#0000ff;stroke:#0000ff;" x="332.196159" xlink:href="#mb401d2cb26" y="148.393298"/>
     <use style="fill:#0000ff;stroke:#0000ff;" x="343.026495" xlink:href="#mb401d2cb26" y="148.38153"/>
     <use style="fill:#0000ff;stroke:#0000ff;" x="353.856836" xlink:href="#mb401d2cb26" y="148.368599"/>
     <use style="fill:#0000ff;stroke:#0000ff;" x="364.687172" xlink:href="#mb401d2cb26" y="148.352658"/>
     <use style="fill:#0000ff;stroke:#0000ff;" x="375.517511" xlink:href="#mb401d2cb26" y="148.332234"/>
     <use style="fill:#0000ff;stroke:#0000ff;" x="386.34785" xlink:href="#mb401d2cb26" y="148.306717"/>
     <use style="fill:#0000ff;stroke:#0000ff;" x="397.178188" xlink:href="#mb401d2cb26" y="148.277112"/>
     <use style="fill:#0000ff;stroke:#0000ff;" x="408.008526" xlink:href="#mb401d2cb26" y="148.246834"/>
     <use style="fill:#0000ff;stroke:#0000ff;" x="418.838864" xlink:href="#mb401d2cb26" y="148.222315"/>
     <use style="fill:#0000ff;stroke:#0000ff;" x="429.669203" xlink:href="#mb401d2cb26" y="148.213636"/>
     <use style="fill:#0000ff;stroke:#0000ff;" x="440.499542" xlink:href="#mb401d2cb26" y="148.236346"/>
     <use style="fill:#0000ff;stroke:#0000ff;" x="451.329878" xlink:href="#mb401d2cb26" y="148.314638"/>
     <use style="fill:#0000ff;stroke:#0000ff;" x="462.160218" xlink:href="#mb401d2cb26" y="148.485415"/>
     <use style="fill:#0000ff;stroke:#0000ff;" x="472.990558" xlink:href="#mb401d2cb26" y="148.802673"/>
     <use style="fill:#0000ff;stroke:#0000ff;" x="483.820893" xlink:href="#mb401d2cb26" y="149.343126"/>
     <use style="fill:#0000ff;stroke:#0000ff;" x="494.651232" xlink:href="#mb401d2cb26" y="150.213981"/>
     <use style="fill:#0000ff;stroke:#0000ff;" x="505.481571" xlink:href="#mb401d2cb26" y="151.561"/>
     <use style="fill:#0000ff;stroke:#0000ff;" x="516.311908" xlink:href="#mb401d2cb26" y="153.570493"/>
     <use style="fill:#0000ff;stroke:#0000ff;" x="527.142246" xlink:href="#mb401d2cb26" y="156.456121"/>
     <use style="fill:#0000ff;stroke:#0000ff;" x="537.972585" xlink:href="#mb401d2cb26" y="160.423793"/>
    </g>
   </g>
   <g id="line2d_106">
    <path clip-path="url(#pf682d983d8)" d="M 72.26804 234.486364 
L 83.098379 224.28357 
L 93.928717 214.259534 
L 104.759053 204.506151 
L 115.589391 195.152618 
L 126.419732 186.368957 
L 137.250069 178.357468 
L 148.080407 171.323766 
L 158.910747 165.427831 
L 169.741083 160.732912 
L 180.571422 157.182273 
L 191.401762 154.620158 
L 202.2321 152.842037 
L 213.062438 151.64448 
L 223.892775 150.855247 
L 234.723113 150.342861 
L 245.553454 150.013536 
L 256.383792 149.803253 
L 267.214128 149.669523 
L 278.044467 149.584673 
L 288.874805 149.53086 
L 299.705143 149.496666 
L 310.535482 149.474804 
L 321.36582 149.46059 
L 332.196159 149.45103 
L 343.026495 149.444166 
L 353.856836 149.438778 
L 364.687172 149.434262 
L 375.517511 149.430805 
L 386.34785 149.429823 
L 397.178188 149.434638 
L 408.008526 149.451038 
L 418.838864 149.48752 
L 429.669203 149.555113 
L 440.499542 149.667586 
L 451.329878 149.843216 
L 462.160218 150.108942 
L 472.990558 150.507197 
L 483.820893 151.104712 
L 494.651232 152.001408 
L 505.481571 153.336832 
L 516.311908 155.288897 
L 527.142246 158.057182 
L 537.972585 161.824419 
" style="fill:none;stroke:#ff0000;stroke-linecap:square;stroke-width:1.5;"/>
    <defs>
     <path d="M 0 1.5 
C 0.397805 1.5 0.77937 1.341951 1.06066 1.06066 
C 1.341951 0.77937 1.5 0.397805 1.5 0 
C 1.5 -0.397805 1.341951 -0.77937 1.06066 -1.06066 
C 0.77937 -1.341951 0.397805 -1.5 0 -1.5 
C -0.397805 -1.5 -0.77937 -1.341951 -1.06066 -1.06066 
C -1.341951 -0.77937 -1.5 -0.397805 -1.5 0 
C -1.5 0.397805 -1.341951 0.77937 -1.06066 1.06066 
C -0.77937 1.341951 -0.397805 1.5 0 1.5 
z
" id="mb90ec05e62" style="stroke:#ff0000;"/>
    </defs>
    <g clip-path="url(#pf682d983d8)">
     <use style="fill:#ff0000;stroke:#ff0000;" x="72.26804" xlink:href="#mb90ec05e62" y="234.486364"/>
     <use style="fill:#ff0000;stroke:#ff0000;" x="83.098379" xlink:href="#mb90ec05e62" y="224.28357"/>
     <use style="fill:#ff0000;stroke:#ff0000;" x="93.928717" xlink:href="#mb90ec05e62" y="214.259534"/>
     <use style="fill:#ff0000;stroke:#ff0000;" x="104.759053" xlink:href="#mb90ec05e62" y="204.506151"/>
     <use style="fill:#ff0000;stroke:#ff0000;" x="115.589391" xlink:href="#mb90ec05e62" y="195.152618"/>
     <use style="fill:#ff0000;stroke:#ff0000;" x="126.419732" xlink:href="#mb90ec05e62" y="186.368957"/>
     <use style="fill:#ff0000;stroke:#ff0000;" x="137.250069" xlink:href="#mb90ec05e62" y="178.357468"/>
     <use style="fill:#ff0000;stroke:#ff0000;" x="148.080407" xlink:href="#mb90ec05e62" y="171.323766"/>
     <use style="fill:#ff0000;stroke:#ff0000;" x="158.910747" xlink:href="#mb90ec05e62" y="165.427831"/>
     <use style="fill:#ff0000;stroke:#ff0000;" x="169.741083" xlink:href="#mb90ec05e62" y="160.732912"/>
     <use style="fill:#ff0000;stroke:#ff0000;" x="180.571422" xlink:href="#mb90ec05e62" y="157.182273"/>
     <use style="fill:#ff0000;stroke:#ff0000;" x="191.401762" xlink:href="#mb90ec05e62" y="154.620158"/>
     <use style="fill:#ff0000;stroke:#ff0000;" x="202.2321" xlink:href="#mb90ec05e62" y="152.842037"/>
     <use style="fill:#ff0000;stroke:#ff0000;" x="213.062438" xlink:href="#mb90ec05e62" y="151.64448"/>
     <use style="fill:#ff0000;stroke:#ff0000;" x="223.892775" xlink:href="#mb90ec05e62" y="150.855247"/>
     <use style="fill:#ff0000;stroke:#ff0000;" x="234.723113" xlink:href="#mb90ec05e62" y="150.342861"/>
     <use style="fill:#ff0000;stroke:#ff0000;" x="245.553454" xlink:href="#mb90ec05e62" y="150.013536"/>
     <use style="fill:#ff0000;stroke:#ff0000;" x="256.383792" xlink:href="#mb90ec05e62" y="149.803253"/>
     <use style="fill:#ff0000;stroke:#ff0000;" x="267.214128" xlink:href="#mb90ec05e62" y="149.669523"/>
     <use style="fill:#ff0000;stroke:#ff0000;" x="278.044467" xlink:href="#mb90ec05e62" y="149.584673"/>
     <use style="fill:#ff0000;stroke:#ff0000;" x="288.874805" xlink:href="#mb90ec05e62" y="149.53086"/>
     <use style="fill:#ff0000;stroke:#ff0000;" x="299.705143" xlink:href="#mb90ec05e62" y="149.496666"/>
     <use style="fill:#ff0000;stroke:#ff0000;" x="310.535482" xlink:href="#mb90ec05e62" y="149.474804"/>
     <use style="fill:#ff0000;stroke:#ff0000;" x="321.36582" xlink:href="#mb90ec05e62" y="149.46059"/>
     <use style="fill:#ff0000;stroke:#ff0000;" x="332.196159" xlink:href="#mb90ec05e62" y="149.45103"/>
     <use style="fill:#ff0000;stroke:#ff0000;" x="343.026495" xlink:href="#mb90ec05e62" y="149.444166"/>
     <use style="fill:#ff0000;stroke:#ff0000;" x="353.856836" xlink:href="#mb90ec05e62" y="149.438778"/>
     <use style="fill:#ff0000;stroke:#ff0000;" x="364.687172" xlink:href="#mb90ec05e62" y="149.434262"/>
     <use style="fill:#ff0000;stroke:#ff0000;" x="375.517511" xlink:href="#mb90ec05e62" y="149.430805"/>
     <use style="fill:#ff0000;stroke:#ff0000;" x="386.34785" xlink:href="#mb90ec05e62" y="149.429823"/>
     <use style="fill:#ff0000;stroke:#ff0000;" x="397.178188" xlink:href="#mb90ec05e62" y="149.434638"/>
     <use style="fill:#ff0000;stroke:#ff0000;" x="408.008526" xlink:href="#mb90ec05e62" y="149.451038"/>
     <use style="fill:#ff0000;stroke:#ff0000;" x="418.838864" xlink:href="#mb90ec05e62" y="149.48752"/>
     <use style="fill:#ff0000;stroke:#ff0000;" x="429.669203" xlink:href="#mb90ec05e62" y="149.555113"/>
     <use style="fill:#ff0000;stroke:#ff0000;" x="440.499542" xlink:href="#mb90ec05e62" y="149.667586"/>
     <use style="fill:#ff0000;stroke:#ff0000;" x="451.329878" xlink:href="#mb90ec05e62" y="149.843216"/>
     <use style="fill:#ff0000;stroke:#ff0000;" x="462.160218" xlink:href="#mb90ec05e62" y="150.108942"/>
     <use style="fill:#ff0000;stroke:#ff0000;" x="472.990558" xlink:href="#mb90ec05e62" y="150.507197"/>
     <use style="fill:#ff0000;stroke:#ff0000;" x="483.820893" xlink:href="#mb90ec05e62" y="151.104712"/>
     <use style="fill:#ff0000;stroke:#ff0000;" x="494.651232" xlink:href="#mb90ec05e62" y="152.001408"/>
     <use style="fill:#ff0000;stroke:#ff0000;" x="505.481571" xlink:href="#mb90ec05e62" y="153.336832"/>
     <use style="fill:#ff0000;stroke:#ff0000;" x="516.311908" xlink:href="#mb90ec05e62" y="155.288897"/>
     <use style="fill:#ff0000;stroke:#ff0000;" x="527.142246" xlink:href="#mb90ec05e62" y="158.057182"/>
     <use style="fill:#ff0000;stroke:#ff0000;" x="537.972585" xlink:href="#mb90ec05e62" y="161.824419"/>
    </g>
   </g>
   <g id="line2d_107">
    <path clip-path="url(#pf682d983d8)" d="M 72.26804 233.493221 
L 83.098379 223.290437 
L 93.928717 213.266401 
L 104.759053 203.513023 
L 115.589391 194.159485 
L 126.419732 185.375829 
L 137.250069 177.36434 
L 148.080407 170.330638 
L 158.910747 164.434714 
L 169.741083 159.739799 
L 180.571422 156.189178 
L 191.401762 153.62708 
L 202.2321 151.848995 
L 213.062438 150.651483 
L 223.892775 149.862323 
L 234.723113 149.350062 
L 245.553454 149.02093 
L 256.383792 148.810946 
L 267.214128 148.677707 
L 278.044467 148.59361 
L 288.874805 148.541007 
L 299.705143 148.508709 
L 310.535482 148.489818 
L 321.36582 148.480246 
L 332.196159 148.477832 
L 343.026495 148.481852 
L 353.856836 148.492641 
L 364.687172 148.511389 
L 375.517511 148.539739 
L 386.34785 148.579255 
L 397.178188 148.630825 
L 408.008526 148.694604 
L 418.838864 148.771252 
L 429.669203 148.864613 
L 440.499542 148.98497 
L 451.329878 149.152141 
L 462.160218 149.398688 
L 472.990558 149.774273 
L 483.820893 150.351884 
L 494.651232 151.235647 
L 505.481571 152.567587 
L 516.311908 154.527612 
L 527.142246 157.317973 
L 537.972585 161.125687 
" style="fill:none;stroke:#008000;stroke-linecap:square;stroke-width:1.5;"/>
    <defs>
     <path d="M 0 1.5 
C 0.397805 1.5 0.77937 1.341951 1.06066 1.06066 
C 1.341951 0.77937 1.5 0.397805 1.5 0 
C 1.5 -0.397805 1.341951 -0.77937 1.06066 -1.06066 
C 0.77937 -1.341951 0.397805 -1.5 0 -1.5 
C -0.397805 -1.5 -0.77937 -1.341951 -1.06066 -1.06066 
C -1.341951 -0.77937 -1.5 -0.397805 -1.5 0 
C -1.5 0.397805 -1.341951 0.77937 -1.06066 1.06066 
C -0.77937 1.341951 -0.397805 1.5 0 1.5 
z
" id="m7394745743" style="stroke:#008000;"/>
    </defs>
    <g clip-path="url(#pf682d983d8)">
     <use style="fill:#008000;stroke:#008000;" x="72.26804" xlink:href="#m7394745743" y="233.493221"/>
     <use style="fill:#008000;stroke:#008000;" x="83.098379" xlink:href="#m7394745743" y="223.290437"/>
     <use style="fill:#008000;stroke:#008000;" x="93.928717" xlink:href="#m7394745743" y="213.266401"/>
     <use style="fill:#008000;stroke:#008000;" x="104.759053" xlink:href="#m7394745743" y="203.513023"/>
     <use style="fill:#008000;stroke:#008000;" x="115.589391" xlink:href="#m7394745743" y="194.159485"/>
     <use style="fill:#008000;stroke:#008000;" x="126.419732" xlink:href="#m7394745743" y="185.375829"/>
     <use style="fill:#008000;stroke:#008000;" x="137.250069" xlink:href="#m7394745743" y="177.36434"/>
     <use style="fill:#008000;stroke:#008000;" x="148.080407" xlink:href="#m7394745743" y="170.330638"/>
     <use style="fill:#008000;stroke:#008000;" x="158.910747" xlink:href="#m7394745743" y="164.434714"/>
     <use style="fill:#008000;stroke:#008000;" x="169.741083" xlink:href="#m7394745743" y="159.739799"/>
     <use style="fill:#008000;stroke:#008000;" x="180.571422" xlink:href="#m7394745743" y="156.189178"/>
     <use style="fill:#008000;stroke:#008000;" x="191.401762" xlink:href="#m7394745743" y="153.62708"/>
     <use style="fill:#008000;stroke:#008000;" x="202.2321" xlink:href="#m7394745743" y="151.848995"/>
     <use style="fill:#008000;stroke:#008000;" x="213.062438" xlink:href="#m7394745743" y="150.651483"/>
     <use style="fill:#008000;stroke:#008000;" x="223.892775" xlink:href="#m7394745743" y="149.862323"/>
     <use style="fill:#008000;stroke:#008000;" x="234.723113" xlink:href="#m7394745743" y="149.350062"/>
     <use style="fill:#008000;stroke:#008000;" x="245.553454" xlink:href="#m7394745743" y="149.02093"/>
     <use style="fill:#008000;stroke:#008000;" x="256.383792" xlink:href="#m7394745743" y="148.810946"/>
     <use style="fill:#008000;stroke:#008000;" x="267.214128" xlink:href="#m7394745743" y="148.677707"/>
     <use style="fill:#008000;stroke:#008000;" x="278.044467" xlink:href="#m7394745743" y="148.59361"/>
     <use style="fill:#008000;stroke:#008000;" x="288.874805" xlink:href="#m7394745743" y="148.541007"/>
     <use style="fill:#008000;stroke:#008000;" x="299.705143" xlink:href="#m7394745743" y="148.508709"/>
     <use style="fill:#008000;stroke:#008000;" x="310.535482" xlink:href="#m7394745743" y="148.489818"/>
     <use style="fill:#008000;stroke:#008000;" x="321.36582" xlink:href="#m7394745743" y="148.480246"/>
     <use style="fill:#008000;stroke:#008000;" x="332.196159" xlink:href="#m7394745743" y="148.477832"/>
     <use style="fill:#008000;stroke:#008000;" x="343.026495" xlink:href="#m7394745743" y="148.481852"/>
     <use style="fill:#008000;stroke:#008000;" x="353.856836" xlink:href="#m7394745743" y="148.492641"/>
     <use style="fill:#008000;stroke:#008000;" x="364.687172" xlink:href="#m7394745743" y="148.511389"/>
     <use style="fill:#008000;stroke:#008000;" x="375.517511" xlink:href="#m7394745743" y="148.539739"/>
     <use style="fill:#008000;stroke:#008000;" x="386.34785" xlink:href="#m7394745743" y="148.579255"/>
     <use style="fill:#008000;stroke:#008000;" x="397.178188" xlink:href="#m7394745743" y="148.630825"/>
     <use style="fill:#008000;stroke:#008000;" x="408.008526" xlink:href="#m7394745743" y="148.694604"/>
     <use style="fill:#008000;stroke:#008000;" x="418.838864" xlink:href="#m7394745743" y="148.771252"/>
     <use style="fill:#008000;stroke:#008000;" x="429.669203" xlink:href="#m7394745743" y="148.864613"/>
     <use style="fill:#008000;stroke:#008000;" x="440.499542" xlink:href="#m7394745743" y="148.98497"/>
     <use style="fill:#008000;stroke:#008000;" x="451.329878" xlink:href="#m7394745743" y="149.152141"/>
     <use style="fill:#008000;stroke:#008000;" x="462.160218" xlink:href="#m7394745743" y="149.398688"/>
     <use style="fill:#008000;stroke:#008000;" x="472.990558" xlink:href="#m7394745743" y="149.774273"/>
     <use style="fill:#008000;stroke:#008000;" x="483.820893" xlink:href="#m7394745743" y="150.351884"/>
     <use style="fill:#008000;stroke:#008000;" x="494.651232" xlink:href="#m7394745743" y="151.235647"/>
     <use style="fill:#008000;stroke:#008000;" x="505.481571" xlink:href="#m7394745743" y="152.567587"/>
     <use style="fill:#008000;stroke:#008000;" x="516.311908" xlink:href="#m7394745743" y="154.527612"/>
     <use style="fill:#008000;stroke:#008000;" x="527.142246" xlink:href="#m7394745743" y="157.317973"/>
     <use style="fill:#008000;stroke:#008000;" x="537.972585" xlink:href="#m7394745743" y="161.125687"/>
    </g>
   </g>
   <g id="patch_8">
    <path d="M 48.982813 238.8 
L 48.982813 143.9 
" style="fill:none;stroke:#000000;stroke-linecap:square;stroke-linejoin:miter;stroke-width:0.8;"/>
   </g>
   <g id="patch_9">
    <path d="M 561.257812 238.8 
L 561.257812 143.9 
" style="fill:none;stroke:#000000;stroke-linecap:square;stroke-linejoin:miter;stroke-width:0.8;"/>
   </g>
   <g id="patch_10">
    <path d="M 48.982812 238.8 
L 561.257812 238.8 
" style="fill:none;stroke:#000000;stroke-linecap:square;stroke-linejoin:miter;stroke-width:0.8;"/>
   </g>
   <g id="patch_11">
    <path d="M 48.982812 143.9 
L 561.257812 143.9 
" style="fill:none;stroke:#000000;stroke-linecap:square;stroke-linejoin:miter;stroke-width:0.8;"/>
   </g>
  </g>
 </g>
 <defs>
  <clipPath id="pb37a31382f">
   <rect height="94.9" width="512.275" x="48.982813" y="7.2"/>
  </clipPath>
  <clipPath id="pf682d983d8">
   <rect height="94.9" width="512.275" x="48.982813" y="143.9"/>
  </clipPath>
 </defs>
</svg>
