<?xml version="1.0" encoding="utf-8" standalone="no"?>
<!DOCTYPE svg PUBLIC "-//W3C//DTD SVG 1.1//EN"
  "http://www.w3.org/Graphics/SVG/1.1/DTD/svg11.dtd">
<svg height="367.15pt" version="1.1" viewBox="0 0 918.2526 367.15" width="918.2526pt" xmlns="http://www.w3.org/2000/svg" xmlns:xlink="http://www.w3.org/1999/xlink">
 <metadata>
  <rdf:RDF xmlns:cc="http://creativecommons.org/ns#" xmlns:dc="http://purl.org/dc/elements/1.1/" xmlns:rdf="http://www.w3.org/1999/02/22-rdf-syntax-ns#">
   <cc:Work>
    <dc:type rdf:resource="http://purl.org/dc/dcmitype/StillImage"/>
    <dc:date>2021-06-06T12:27:47.206688</dc:date>
    <dc:format>image/svg+xml</dc:format>
    <dc:creator>
     <cc:Agent>
      <dc:title>Matplotlib v3.4.2, https://matplotlib.org/</dc:title>
     </cc:Agent>
    </dc:creator>
   </cc:Work>
  </rdf:RDF>
 </metadata>
 <defs>
  <style type="text/css">*{stroke-linecap:butt;stroke-linejoin:round;}</style>
 </defs>
 <g id="figure_1">
  <g id="patch_1">
   <path d="M 0 367.15 
L 918.2526 367.15 
L 918.2526 0 
L 0 0 
z
" style="fill:none;"/>
  </g>
  <g id="axes_1">
   <g id="patch_2">
    <path clip-path="url(#p6cad3404b1)" d="M 109.0368 188.59 
L 106.7418 196.24 
L 104.4468 188.59 
z
"/>
   </g>
   <g id="patch_3">
    <path clip-path="url(#p6cad3404b1)" d="M 275.0418 207.562 
C 276.015626 207.562 276.949697 207.175095 277.638296 206.486496 
C 278.326895 205.797897 278.7138 204.863826 278.7138 203.89 
C 278.7138 202.916174 278.326895 201.982103 277.638296 201.293504 
C 276.949697 200.604905 276.015626 200.218 275.0418 200.218 
C 274.067974 200.218 273.133903 200.604905 272.445304 201.293504 
C 271.756705 201.982103 271.3698 202.916174 271.3698 203.89 
C 271.3698 204.863826 271.756705 205.797897 272.445304 206.486496 
C 273.133903 207.175095 274.067974 207.562 275.0418 207.562 
z
" style="fill:none;stroke:#000000;stroke-linejoin:miter;stroke-width:0.9;"/>
   </g>
   <g id="patch_4">
    <path clip-path="url(#p6cad3404b1)" d="M 428.0418 207.562 
C 429.015626 207.562 429.949697 207.175095 430.638296 206.486496 
C 431.326895 205.797897 431.7138 204.863826 431.7138 203.89 
C 431.7138 202.916174 431.326895 201.982103 430.638296 201.293504 
C 429.949697 200.604905 429.015626 200.218 428.0418 200.218 
C 427.067974 200.218 426.133903 200.604905 425.445304 201.293504 
C 424.756705 201.982103 424.3698 202.916174 424.3698 203.89 
C 424.3698 204.863826 424.756705 205.797897 425.445304 206.486496 
C 426.133903 207.175095 427.067974 207.562 428.0418 207.562 
z
" style="fill:none;stroke:#000000;stroke-linejoin:miter;stroke-width:0.9;"/>
   </g>
   <g id="patch_5">
    <path clip-path="url(#p6cad3404b1)" d="M 563.4468 142.69 
L 565.7418 135.04 
L 568.0368 142.69 
z
"/>
   </g>
   <g id="patch_6">
    <path clip-path="url(#p6cad3404b1)" d="M 619.2918 207.562 
C 620.265626 207.562 621.199697 207.175095 621.888296 206.486496 
C 622.576895 205.797897 622.9638 204.863826 622.9638 203.89 
C 622.9638 202.916174 622.576895 201.982103 621.888296 201.293504 
C 621.199697 200.604905 620.265626 200.218 619.2918 200.218 
C 618.317974 200.218 617.383903 200.604905 616.695304 201.293504 
C 616.006705 201.982103 615.6198 202.916174 615.6198 203.89 
C 615.6198 204.863826 616.006705 205.797897 616.695304 206.486496 
C 617.383903 207.175095 618.317974 207.562 619.2918 207.562 
z
" style="fill:none;stroke:#000000;stroke-linejoin:miter;stroke-width:0.9;"/>
   </g>
   <g id="patch_7">
    <path clip-path="url(#p6cad3404b1)" d="M 754.6968 142.69 
L 756.9918 135.04 
L 759.2868 142.69 
z
"/>
   </g>
   <g id="patch_8">
    <path clip-path="url(#p6cad3404b1)" d="M 810.5418 207.562 
C 811.515626 207.562 812.449697 207.175095 813.138296 206.486496 
C 813.826895 205.797897 814.2138 204.863826 814.2138 203.89 
C 814.2138 202.916174 813.826895 201.982103 813.138296 201.293504 
C 812.449697 200.604905 811.515626 200.218 810.5418 200.218 
C 809.567974 200.218 808.633903 200.604905 807.945304 201.293504 
C 807.256705 201.982103 806.8698 202.916174 806.8698 203.89 
C 806.8698 204.863826 807.256705 205.797897 807.945304 206.486496 
C 808.633903 207.175095 809.567974 207.562 810.5418 207.562 
z
" style="fill:none;stroke:#000000;stroke-linejoin:miter;stroke-width:0.9;"/>
   </g>
   <g id="patch_9">
    <path clip-path="url(#p6cad3404b1)" d="M 359.1918 316.345 
L 366.8418 318.64 
L 359.1918 320.935 
z
"/>
   </g>
   <g id="line2d_1">
    <path clip-path="url(#p6cad3404b1)" d="M 30.2418 203.89 
L 49.3668 203.89 
L 68.4918 203.89 
" style="fill:none;stroke:#000000;stroke-linecap:round;stroke-width:0.9;"/>
   </g>
   <g id="line2d_2">
    <path clip-path="url(#p6cad3404b1)" d="M 68.4918 203.89 
L 91.4418 203.89 
L 93.9918 196.24 
L 99.0918 211.54 
L 104.1918 196.24 
L 109.2918 211.54 
L 114.3918 196.24 
L 119.4918 211.54 
L 122.0418 203.89 
L 144.9918 203.89 
" style="fill:none;stroke:#000000;stroke-linecap:round;stroke-width:0.9;"/>
   </g>
   <g id="line2d_3">
    <path clip-path="url(#p6cad3404b1)" d="M 106.7418 181.858 
L 106.7418 188.59 
" style="fill:none;stroke:#000000;stroke-linecap:square;stroke-width:0.9;"/>
   </g>
   <g id="line2d_4">
    <path clip-path="url(#p6cad3404b1)" d="M 144.9918 203.89 
L 180.4878 203.89 
M 180.4878 196.24 
L 180.4878 211.54 
M 185.9958 196.24 
L 185.9958 211.54 
M 185.9958 203.89 
L 221.4918 203.89 
" style="fill:none;stroke:#000000;stroke-linecap:round;stroke-width:0.9;"/>
   </g>
   <g id="line2d_5">
    <path clip-path="url(#p6cad3404b1)" d="M 221.4918 203.89 
L 240.7698 203.89 
L 251.4798 203.89 
M 278.7138 203.89 
L 297.9918 203.89 
" style="fill:none;stroke:#000000;stroke-linecap:round;stroke-width:0.9;"/>
   </g>
   <g id="line2d_6">
    <path clip-path="url(#p6cad3404b1)" d="M 278.7138 203.89 
L 282.0798 203.89 
" style="fill:none;stroke:#000000;stroke-linecap:round;stroke-width:0.9;"/>
   </g>
   <g id="line2d_7">
    <path clip-path="url(#p6cad3404b1)" d="M 251.4798 203.89 
L 251.4798 219.19 
L 271.3698 203.89 
L 251.4798 188.59 
L 251.4798 203.89 
" style="fill:none;stroke:#000000;stroke-linecap:round;stroke-width:0.9;"/>
   </g>
   <g id="line2d_8">
    <path clip-path="url(#p6cad3404b1)" d="M 297.9918 203.89 
L 320.9418 203.89 
L 323.4918 196.24 
L 328.5918 211.54 
L 333.6918 196.24 
L 338.7918 211.54 
L 343.8918 196.24 
L 348.9918 211.54 
L 351.5418 203.89 
L 374.4918 203.89 
" style="fill:none;stroke:#000000;stroke-linecap:round;stroke-width:0.9;"/>
   </g>
   <g id="line2d_9">
    <path clip-path="url(#p6cad3404b1)" d="M 374.4918 203.89 
L 393.7698 203.89 
L 404.4798 203.89 
M 431.7138 203.89 
L 450.9918 203.89 
" style="fill:none;stroke:#000000;stroke-linecap:round;stroke-width:0.9;"/>
   </g>
   <g id="line2d_10">
    <path clip-path="url(#p6cad3404b1)" d="M 431.7138 203.89 
L 435.0798 203.89 
" style="fill:none;stroke:#000000;stroke-linecap:round;stroke-width:0.9;"/>
   </g>
   <g id="line2d_11">
    <path clip-path="url(#p6cad3404b1)" d="M 404.4798 203.89 
L 404.4798 219.19 
L 424.3698 203.89 
L 404.4798 188.59 
L 404.4798 203.89 
" style="fill:none;stroke:#000000;stroke-linecap:round;stroke-width:0.9;"/>
   </g>
   <g id="line2d_12">
    <path clip-path="url(#p6cad3404b1)" d="M 450.9918 203.89 
L 450.9918 165.64 
L 450.9918 127.39 
" style="fill:none;stroke:#000000;stroke-linecap:round;stroke-width:0.9;"/>
   </g>
   <g id="line2d_13">
    <path clip-path="url(#p6cad3404b1)" d="M 450.9918 127.39 
L 428.0418 127.39 
L 425.4918 135.04 
L 420.3918 119.74 
L 415.2918 135.04 
L 410.1918 119.74 
L 405.0918 135.04 
L 399.9918 119.74 
L 397.4418 127.39 
L 374.4918 127.39 
" style="fill:none;stroke:#000000;stroke-linecap:round;stroke-width:0.9;"/>
   </g>
   <g id="line2d_14">
    <path clip-path="url(#p6cad3404b1)" d="M 374.4918 127.39 
L 374.4918 165.64 
L 374.4918 203.89 
" style="fill:none;stroke:#000000;stroke-linecap:round;stroke-width:0.9;"/>
   </g>
   <g id="line2d_15">
    <path clip-path="url(#p6cad3404b1)" d="M 221.4918 203.89 
L 221.4918 165.64 
L 221.4918 127.39 
" style="fill:none;stroke:#000000;stroke-linecap:round;stroke-width:0.9;"/>
   </g>
   <g id="line2d_16">
    <path clip-path="url(#p6cad3404b1)" d="M 221.4918 127.39 
L 244.4418 127.39 
L 246.9918 119.74 
L 252.0918 135.04 
L 257.1918 119.74 
L 262.2918 135.04 
L 267.3918 119.74 
L 272.4918 135.04 
L 275.0418 127.39 
L 297.9918 127.39 
" style="fill:none;stroke:#000000;stroke-linecap:round;stroke-width:0.9;"/>
   </g>
   <g id="line2d_17">
    <path clip-path="url(#p6cad3404b1)" d="M 297.9918 127.39 
L 297.9918 165.64 
L 297.9918 203.89 
" style="fill:none;stroke:#000000;stroke-linecap:round;stroke-width:0.9;"/>
   </g>
   <g id="line2d_18">
    <path clip-path="url(#p6cad3404b1)" d="M 450.9918 127.39 
L 473.9418 127.39 
L 476.4918 119.74 
L 481.5918 135.04 
L 486.6918 119.74 
L 491.7918 135.04 
L 496.8918 119.74 
L 501.9918 135.04 
L 504.5418 127.39 
L 527.4918 127.39 
" style="fill:none;stroke:#000000;stroke-linecap:round;stroke-width:0.9;"/>
   </g>
   <g id="line2d_19">
    <path clip-path="url(#p6cad3404b1)" d="M 527.4918 127.39 
L 550.4418 127.39 
L 552.9918 135.04 
L 558.0918 119.74 
L 563.1918 135.04 
L 568.2918 119.74 
L 573.3918 135.04 
L 578.4918 119.74 
L 581.0418 127.39 
L 603.9918 127.39 
" style="fill:none;stroke:#000000;stroke-linecap:round;stroke-width:0.9;"/>
   </g>
   <g id="line2d_20">
    <path clip-path="url(#p6cad3404b1)" d="M 565.7418 149.422 
L 565.7418 142.69 
" style="fill:none;stroke:#000000;stroke-linecap:square;stroke-width:0.9;"/>
   </g>
   <g id="line2d_21">
    <path clip-path="url(#p6cad3404b1)" d="M 565.7418 149.422 
L 565.7418 176.656 
L 565.7418 203.89 
" style="fill:none;stroke:#000000;stroke-linecap:round;stroke-width:0.9;"/>
   </g>
   <g id="line2d_22">
    <path clip-path="url(#p6cad3404b1)" d="M 565.7418 203.89 
L 585.0198 203.89 
L 595.7298 203.89 
M 622.9638 203.89 
L 642.2418 203.89 
" style="fill:none;stroke:#000000;stroke-linecap:round;stroke-width:0.9;"/>
   </g>
   <g id="line2d_23">
    <path clip-path="url(#p6cad3404b1)" d="M 622.9638 203.89 
L 626.3298 203.89 
" style="fill:none;stroke:#000000;stroke-linecap:round;stroke-width:0.9;"/>
   </g>
   <g id="line2d_24">
    <path clip-path="url(#p6cad3404b1)" d="M 595.7298 203.89 
L 595.7298 219.19 
L 615.6198 203.89 
L 595.7298 188.59 
L 595.7298 203.89 
" style="fill:none;stroke:#000000;stroke-linecap:round;stroke-width:0.9;"/>
   </g>
   <g id="line2d_25">
    <path clip-path="url(#p6cad3404b1)" d="M 642.2418 203.89 
L 642.2418 165.64 
L 642.2418 127.39 
" style="fill:none;stroke:#000000;stroke-linecap:round;stroke-width:0.9;"/>
   </g>
   <g id="line2d_26">
    <path clip-path="url(#p6cad3404b1)" d="M 642.2418 127.39 
L 665.1918 127.39 
L 667.7418 119.74 
L 672.8418 135.04 
L 677.9418 119.74 
L 683.0418 135.04 
L 688.1418 119.74 
L 693.2418 135.04 
L 695.7918 127.39 
L 718.7418 127.39 
" style="fill:none;stroke:#000000;stroke-linecap:round;stroke-width:0.9;"/>
   </g>
   <g id="line2d_27">
    <path clip-path="url(#p6cad3404b1)" d="M 718.7418 127.39 
L 741.6918 127.39 
L 744.2418 135.04 
L 749.3418 119.74 
L 754.4418 135.04 
L 759.5418 119.74 
L 764.6418 135.04 
L 769.7418 119.74 
L 772.2918 127.39 
L 795.2418 127.39 
" style="fill:none;stroke:#000000;stroke-linecap:round;stroke-width:0.9;"/>
   </g>
   <g id="line2d_28">
    <path clip-path="url(#p6cad3404b1)" d="M 756.9918 149.422 
L 756.9918 142.69 
" style="fill:none;stroke:#000000;stroke-linecap:square;stroke-width:0.9;"/>
   </g>
   <g id="line2d_29">
    <path clip-path="url(#p6cad3404b1)" d="M 756.9918 149.422 
L 756.9918 176.656 
L 756.9918 203.89 
" style="fill:none;stroke:#000000;stroke-linecap:round;stroke-width:0.9;"/>
   </g>
   <g id="line2d_30">
    <path clip-path="url(#p6cad3404b1)" d="M 756.9918 203.89 
L 776.2698 203.89 
L 786.9798 203.89 
M 814.2138 203.89 
L 833.4918 203.89 
" style="fill:none;stroke:#000000;stroke-linecap:round;stroke-width:0.9;"/>
   </g>
   <g id="line2d_31">
    <path clip-path="url(#p6cad3404b1)" d="M 814.2138 203.89 
L 817.5798 203.89 
" style="fill:none;stroke:#000000;stroke-linecap:round;stroke-width:0.9;"/>
   </g>
   <g id="line2d_32">
    <path clip-path="url(#p6cad3404b1)" d="M 786.9798 203.89 
L 786.9798 219.19 
L 806.8698 203.89 
L 786.9798 188.59 
L 786.9798 203.89 
" style="fill:none;stroke:#000000;stroke-linecap:round;stroke-width:0.9;"/>
   </g>
   <g id="line2d_33">
    <path clip-path="url(#p6cad3404b1)" d="M 833.4918 203.89 
L 852.6168 203.89 
L 871.7418 203.89 
" style="fill:none;stroke:#000000;stroke-linecap:round;stroke-width:0.9;"/>
   </g>
   <g id="line2d_34">
    <path clip-path="url(#p6cad3404b1)" d="M 642.2418 127.39 
L 642.2418 89.14 
L 642.2418 50.89 
" style="fill:none;stroke:#000000;stroke-linecap:round;stroke-width:0.9;"/>
   </g>
   <g id="line2d_35">
    <path clip-path="url(#p6cad3404b1)" d="M 642.2418 50.89 
L 470.1168 50.89 
L 297.9918 50.89 
" style="fill:none;stroke:#000000;stroke-linecap:round;stroke-width:0.9;"/>
   </g>
   <g id="line2d_36">
    <path clip-path="url(#p6cad3404b1)" d="M 297.9918 50.89 
L 275.0418 50.89 
L 272.4918 58.54 
L 267.3918 43.24 
L 262.2918 58.54 
L 257.1918 43.24 
L 252.0918 58.54 
L 246.9918 43.24 
L 244.4418 50.89 
L 221.4918 50.89 
" style="fill:none;stroke:#000000;stroke-linecap:round;stroke-width:0.9;"/>
   </g>
   <g id="line2d_37">
    <path clip-path="url(#p6cad3404b1)" d="M 221.4918 50.89 
L 221.4918 89.14 
L 221.4918 127.39 
" style="fill:none;stroke:#000000;stroke-linecap:round;stroke-width:0.9;"/>
   </g>
   <g id="line2d_38">
    <path clip-path="url(#p6cad3404b1)" d="M 565.7418 203.89 
L 565.7418 242.14 
L 565.7418 280.39 
" style="fill:none;stroke:#000000;stroke-linecap:round;stroke-width:0.9;"/>
   </g>
   <g id="line2d_39">
    <path clip-path="url(#p6cad3404b1)" d="M 565.7418 280.39 
L 601.2378 280.39 
M 601.2378 272.74 
L 601.2378 288.04 
M 606.7458 272.74 
L 606.7458 288.04 
M 606.7458 280.39 
L 642.2418 280.39 
" style="fill:none;stroke:#000000;stroke-linecap:round;stroke-width:0.9;"/>
   </g>
   <g id="line2d_40">
    <path clip-path="url(#p6cad3404b1)" d="M 642.2418 280.39 
L 642.2418 242.14 
L 642.2418 203.89 
" style="fill:none;stroke:#000000;stroke-linecap:round;stroke-width:0.9;"/>
   </g>
   <g id="line2d_41">
    <path clip-path="url(#p6cad3404b1)" d="M 756.9918 203.89 
L 756.9918 242.14 
L 756.9918 280.39 
" style="fill:none;stroke:#000000;stroke-linecap:round;stroke-width:0.9;"/>
   </g>
   <g id="line2d_42">
    <path clip-path="url(#p6cad3404b1)" d="M 756.9918 280.39 
L 792.4878 280.39 
M 792.4878 272.74 
L 792.4878 288.04 
M 797.9958 272.74 
L 797.9958 288.04 
M 797.9958 280.39 
L 833.4918 280.39 
" style="fill:none;stroke:#000000;stroke-linecap:round;stroke-width:0.9;"/>
   </g>
   <g id="line2d_43">
    <path clip-path="url(#p6cad3404b1)" d="M 833.4918 280.39 
L 833.4918 242.14 
L 833.4918 203.89 
" style="fill:none;stroke:#000000;stroke-linecap:round;stroke-width:0.9;"/>
   </g>
   <g id="line2d_44">
    <path clip-path="url(#p6cad3404b1)" d="M 833.4918 280.39 
L 833.4918 318.64 
L 833.4918 356.89 
" style="fill:none;stroke:#000000;stroke-linecap:round;stroke-width:0.9;"/>
   </g>
   <g id="line2d_45">
    <path clip-path="url(#p6cad3404b1)" d="M 833.4918 356.89 
L 603.9918 356.89 
L 374.4918 356.89 
" style="fill:none;stroke:#000000;stroke-linecap:round;stroke-width:0.9;"/>
   </g>
   <g id="line2d_46">
    <path clip-path="url(#p6cad3404b1)" d="M 374.4918 356.89 
L 374.4918 333.94 
L 366.8418 331.39 
L 382.1418 326.29 
L 366.8418 321.19 
L 382.1418 316.09 
L 366.8418 310.99 
L 382.1418 305.89 
L 374.4918 303.34 
L 374.4918 280.39 
" style="fill:none;stroke:#000000;stroke-linecap:round;stroke-width:0.9;"/>
   </g>
   <g id="line2d_47">
    <path clip-path="url(#p6cad3404b1)" d="M 352.4598 318.64 
L 359.1918 318.64 
" style="fill:none;stroke:#000000;stroke-linecap:square;stroke-width:0.9;"/>
   </g>
   <g id="line2d_48">
    <path clip-path="url(#p6cad3404b1)" d="M 374.4918 280.39 
L 374.4918 242.14 
L 374.4918 203.89 
" style="fill:none;stroke:#000000;stroke-linecap:round;stroke-width:0.9;"/>
   </g>
   <g id="text_1">
    <!-- $RV_1$ -->
    <g transform="translate(93.7218 225.237812)scale(0.14 -0.14)">
     <defs>
      <path d="M 1613 4147 
L 1294 2491 
L 2106 2491 
Q 2584 2491 2879 2755 
Q 3175 3019 3175 3444 
Q 3175 3784 2976 3965 
Q 2778 4147 2406 4147 
L 1613 4147 
z
M 2772 2241 
Q 2972 2194 3105 2009 
Q 3238 1825 3413 1275 
L 3809 0 
L 3144 0 
L 2778 1197 
Q 2638 1659 2453 1815 
Q 2269 1972 1888 1972 
L 1191 1972 
L 806 0 
L 172 0 
L 1081 4666 
L 2503 4666 
Q 3150 4666 3495 4373 
Q 3841 4081 3841 3531 
Q 3841 3044 3547 2687 
Q 3253 2331 2772 2241 
z
" id="DejaVuSans-Oblique-52" transform="scale(0.015625)"/>
      <path d="M 1319 0 
L 500 4666 
L 1119 4666 
L 1797 653 
L 4063 4666 
L 4750 4666 
L 2053 0 
L 1319 0 
z
" id="DejaVuSans-Oblique-56" transform="scale(0.015625)"/>
      <path d="M 794 531 
L 1825 531 
L 1825 4091 
L 703 3866 
L 703 4441 
L 1819 4666 
L 2450 4666 
L 2450 531 
L 3481 531 
L 3481 0 
L 794 0 
L 794 531 
z
" id="DejaVuSans-31" transform="scale(0.015625)"/>
     </defs>
     <use transform="translate(0 0.09375)" xlink:href="#DejaVuSans-Oblique-52"/>
     <use transform="translate(69.482422 0.09375)" xlink:href="#DejaVuSans-Oblique-56"/>
     <use transform="translate(137.890625 -16.3125)scale(0.7)" xlink:href="#DejaVuSans-31"/>
    </g>
    <!-- 100k -->
    <g transform="translate(89.327113 240.91475)scale(0.14 -0.14)">
     <defs>
      <path d="M 2034 4250 
Q 1547 4250 1301 3770 
Q 1056 3291 1056 2328 
Q 1056 1369 1301 889 
Q 1547 409 2034 409 
Q 2525 409 2770 889 
Q 3016 1369 3016 2328 
Q 3016 3291 2770 3770 
Q 2525 4250 2034 4250 
z
M 2034 4750 
Q 2819 4750 3233 4129 
Q 3647 3509 3647 2328 
Q 3647 1150 3233 529 
Q 2819 -91 2034 -91 
Q 1250 -91 836 529 
Q 422 1150 422 2328 
Q 422 3509 836 4129 
Q 1250 4750 2034 4750 
z
" id="DejaVuSans-30" transform="scale(0.015625)"/>
      <path d="M 581 4863 
L 1159 4863 
L 1159 1991 
L 2875 3500 
L 3609 3500 
L 1753 1863 
L 3688 0 
L 2938 0 
L 1159 1709 
L 1159 0 
L 581 0 
L 581 4863 
z
" id="DejaVuSans-6b" transform="scale(0.015625)"/>
     </defs>
     <use xlink:href="#DejaVuSans-31"/>
     <use x="63.623047" xlink:href="#DejaVuSans-30"/>
     <use x="127.246094" xlink:href="#DejaVuSans-30"/>
     <use x="190.869141" xlink:href="#DejaVuSans-6b"/>
    </g>
   </g>
   <g id="text_2">
    <!-- $C_1$ -->
    <g transform="translate(174.9818 174.5915)scale(0.14 -0.14)">
     <defs>
      <path d="M 4447 4306 
L 4319 3641 
Q 4019 3944 3683 4091 
Q 3347 4238 2956 4238 
Q 2422 4238 2017 3981 
Q 1613 3725 1319 3200 
Q 1131 2863 1032 2486 
Q 934 2109 934 1728 
Q 934 1091 1264 756 
Q 1594 422 2222 422 
Q 2656 422 3056 561 
Q 3456 700 3834 978 
L 3688 231 
Q 3316 72 2936 -9 
Q 2556 -91 2175 -91 
Q 1278 -91 773 396 
Q 269 884 269 1753 
Q 269 2309 461 2846 
Q 653 3384 1013 3828 
Q 1394 4300 1883 4525 
Q 2372 4750 3022 4750 
Q 3422 4750 3780 4639 
Q 4138 4528 4447 4306 
z
" id="DejaVuSans-Oblique-43" transform="scale(0.015625)"/>
     </defs>
     <use transform="translate(0 0.78125)" xlink:href="#DejaVuSans-Oblique-43"/>
     <use transform="translate(69.824219 -15.625)scale(0.7)" xlink:href="#DejaVuSans-31"/>
    </g>
    <!-- 1u -->
    <g transform="translate(174.3518 190.268437)scale(0.14 -0.14)">
     <defs>
      <path d="M 544 1381 
L 544 3500 
L 1119 3500 
L 1119 1403 
Q 1119 906 1312 657 
Q 1506 409 1894 409 
Q 2359 409 2629 706 
Q 2900 1003 2900 1516 
L 2900 3500 
L 3475 3500 
L 3475 0 
L 2900 0 
L 2900 538 
Q 2691 219 2414 64 
Q 2138 -91 1772 -91 
Q 1169 -91 856 284 
Q 544 659 544 1381 
z
M 1991 3584 
L 1991 3584 
z
" id="DejaVuSans-75" transform="scale(0.015625)"/>
     </defs>
     <use xlink:href="#DejaVuSans-31"/>
     <use x="63.623047" xlink:href="#DejaVuSans-75"/>
    </g>
   </g>
   <g id="text_3">
    <!-- $R_2$ -->
    <g transform="translate(328.0518 174.5915)scale(0.14 -0.14)">
     <defs>
      <path d="M 1228 531 
L 3431 531 
L 3431 0 
L 469 0 
L 469 531 
Q 828 903 1448 1529 
Q 2069 2156 2228 2338 
Q 2531 2678 2651 2914 
Q 2772 3150 2772 3378 
Q 2772 3750 2511 3984 
Q 2250 4219 1831 4219 
Q 1534 4219 1204 4116 
Q 875 4013 500 3803 
L 500 4441 
Q 881 4594 1212 4672 
Q 1544 4750 1819 4750 
Q 2544 4750 2975 4387 
Q 3406 4025 3406 3419 
Q 3406 3131 3298 2873 
Q 3191 2616 2906 2266 
Q 2828 2175 2409 1742 
Q 1991 1309 1228 531 
z
" id="DejaVuSans-32" transform="scale(0.015625)"/>
     </defs>
     <use transform="translate(0 0.09375)" xlink:href="#DejaVuSans-Oblique-52"/>
     <use transform="translate(69.482422 -16.3125)scale(0.7)" xlink:href="#DejaVuSans-32"/>
    </g>
    <!-- 100k -->
    <g transform="translate(318.827112 190.268437)scale(0.14 -0.14)">
     <use xlink:href="#DejaVuSans-31"/>
     <use x="63.623047" xlink:href="#DejaVuSans-30"/>
     <use x="127.246094" xlink:href="#DejaVuSans-30"/>
     <use x="190.869141" xlink:href="#DejaVuSans-6b"/>
    </g>
   </g>
   <g id="text_4">
    <!-- $R_3$ -->
    <g transform="translate(404.5518 98.0915)scale(0.14 -0.14)">
     <defs>
      <path d="M 2597 2516 
Q 3050 2419 3304 2112 
Q 3559 1806 3559 1356 
Q 3559 666 3084 287 
Q 2609 -91 1734 -91 
Q 1441 -91 1130 -33 
Q 819 25 488 141 
L 488 750 
Q 750 597 1062 519 
Q 1375 441 1716 441 
Q 2309 441 2620 675 
Q 2931 909 2931 1356 
Q 2931 1769 2642 2001 
Q 2353 2234 1838 2234 
L 1294 2234 
L 1294 2753 
L 1863 2753 
Q 2328 2753 2575 2939 
Q 2822 3125 2822 3475 
Q 2822 3834 2567 4026 
Q 2313 4219 1838 4219 
Q 1578 4219 1281 4162 
Q 984 4106 628 3988 
L 628 4550 
Q 988 4650 1302 4700 
Q 1616 4750 1894 4750 
Q 2613 4750 3031 4423 
Q 3450 4097 3450 3541 
Q 3450 3153 3228 2886 
Q 3006 2619 2597 2516 
z
" id="DejaVuSans-33" transform="scale(0.015625)"/>
     </defs>
     <use transform="translate(0 0.09375)" xlink:href="#DejaVuSans-Oblique-52"/>
     <use transform="translate(69.482422 -16.3125)scale(0.7)" xlink:href="#DejaVuSans-33"/>
    </g>
    <!-- 100k -->
    <g transform="translate(395.327112 113.768437)scale(0.14 -0.14)">
     <use xlink:href="#DejaVuSans-31"/>
     <use x="63.623047" xlink:href="#DejaVuSans-30"/>
     <use x="127.246094" xlink:href="#DejaVuSans-30"/>
     <use x="190.869141" xlink:href="#DejaVuSans-6b"/>
    </g>
   </g>
   <g id="text_5">
    <!-- $R_1$ -->
    <g transform="translate(251.5518 98.0915)scale(0.14 -0.14)">
     <use transform="translate(0 0.09375)" xlink:href="#DejaVuSans-Oblique-52"/>
     <use transform="translate(69.482422 -16.3125)scale(0.7)" xlink:href="#DejaVuSans-31"/>
    </g>
    <!-- 100k -->
    <g transform="translate(242.327112 113.768437)scale(0.14 -0.14)">
     <use xlink:href="#DejaVuSans-31"/>
     <use x="63.623047" xlink:href="#DejaVuSans-30"/>
     <use x="127.246094" xlink:href="#DejaVuSans-30"/>
     <use x="190.869141" xlink:href="#DejaVuSans-6b"/>
    </g>
   </g>
   <g id="text_6">
    <!-- $R_4$ -->
    <g transform="translate(481.0518 98.0915)scale(0.14 -0.14)">
     <defs>
      <path d="M 2419 4116 
L 825 1625 
L 2419 1625 
L 2419 4116 
z
M 2253 4666 
L 3047 4666 
L 3047 1625 
L 3713 1625 
L 3713 1100 
L 3047 1100 
L 3047 0 
L 2419 0 
L 2419 1100 
L 313 1100 
L 313 1709 
L 2253 4666 
z
" id="DejaVuSans-34" transform="scale(0.015625)"/>
     </defs>
     <use transform="translate(0 0.09375)" xlink:href="#DejaVuSans-Oblique-52"/>
     <use transform="translate(69.482422 -16.3125)scale(0.7)" xlink:href="#DejaVuSans-34"/>
    </g>
    <!-- 1k -->
    <g transform="translate(480.734612 113.768437)scale(0.14 -0.14)">
     <use xlink:href="#DejaVuSans-31"/>
     <use x="63.623047" xlink:href="#DejaVuSans-6b"/>
    </g>
   </g>
   <g id="text_7">
    <!-- $RV_2$ -->
    <g transform="translate(552.7218 98.0915)scale(0.14 -0.14)">
     <use transform="translate(0 0.09375)" xlink:href="#DejaVuSans-Oblique-52"/>
     <use transform="translate(69.482422 0.09375)" xlink:href="#DejaVuSans-Oblique-56"/>
     <use transform="translate(137.890625 -16.3125)scale(0.7)" xlink:href="#DejaVuSans-32"/>
    </g>
    <!-- 100k -->
    <g transform="translate(548.327112 113.768437)scale(0.14 -0.14)">
     <use xlink:href="#DejaVuSans-31"/>
     <use x="63.623047" xlink:href="#DejaVuSans-30"/>
     <use x="127.246094" xlink:href="#DejaVuSans-30"/>
     <use x="190.869141" xlink:href="#DejaVuSans-6b"/>
    </g>
   </g>
   <g id="text_8">
    <!-- $R_5$ -->
    <g transform="translate(672.3018 98.0915)scale(0.14 -0.14)">
     <defs>
      <path d="M 691 4666 
L 3169 4666 
L 3169 4134 
L 1269 4134 
L 1269 2991 
Q 1406 3038 1543 3061 
Q 1681 3084 1819 3084 
Q 2600 3084 3056 2656 
Q 3513 2228 3513 1497 
Q 3513 744 3044 326 
Q 2575 -91 1722 -91 
Q 1428 -91 1123 -41 
Q 819 9 494 109 
L 494 744 
Q 775 591 1075 516 
Q 1375 441 1709 441 
Q 2250 441 2565 725 
Q 2881 1009 2881 1497 
Q 2881 1984 2565 2268 
Q 2250 2553 1709 2553 
Q 1456 2553 1204 2497 
Q 953 2441 691 2322 
L 691 4666 
z
" id="DejaVuSans-35" transform="scale(0.015625)"/>
     </defs>
     <use transform="translate(0 0.09375)" xlink:href="#DejaVuSans-Oblique-52"/>
     <use transform="translate(69.482422 -16.3125)scale(0.7)" xlink:href="#DejaVuSans-35"/>
    </g>
    <!-- 1k -->
    <g transform="translate(671.984613 113.768437)scale(0.14 -0.14)">
     <use xlink:href="#DejaVuSans-31"/>
     <use x="63.623047" xlink:href="#DejaVuSans-6b"/>
    </g>
   </g>
   <g id="text_9">
    <!-- $RV_3$ -->
    <g transform="translate(743.9718 98.0915)scale(0.14 -0.14)">
     <use transform="translate(0 0.09375)" xlink:href="#DejaVuSans-Oblique-52"/>
     <use transform="translate(69.482422 0.09375)" xlink:href="#DejaVuSans-Oblique-56"/>
     <use transform="translate(137.890625 -16.3125)scale(0.7)" xlink:href="#DejaVuSans-33"/>
    </g>
    <!-- 100k -->
    <g transform="translate(739.577112 113.768437)scale(0.14 -0.14)">
     <use xlink:href="#DejaVuSans-31"/>
     <use x="63.623047" xlink:href="#DejaVuSans-30"/>
     <use x="127.246094" xlink:href="#DejaVuSans-30"/>
     <use x="190.869141" xlink:href="#DejaVuSans-6b"/>
    </g>
   </g>
   <g id="text_10">
    <!-- $R_6$ -->
    <g transform="translate(251.5518 21.5915)scale(0.14 -0.14)">
     <defs>
      <path d="M 2113 2584 
Q 1688 2584 1439 2293 
Q 1191 2003 1191 1497 
Q 1191 994 1439 701 
Q 1688 409 2113 409 
Q 2538 409 2786 701 
Q 3034 994 3034 1497 
Q 3034 2003 2786 2293 
Q 2538 2584 2113 2584 
z
M 3366 4563 
L 3366 3988 
Q 3128 4100 2886 4159 
Q 2644 4219 2406 4219 
Q 1781 4219 1451 3797 
Q 1122 3375 1075 2522 
Q 1259 2794 1537 2939 
Q 1816 3084 2150 3084 
Q 2853 3084 3261 2657 
Q 3669 2231 3669 1497 
Q 3669 778 3244 343 
Q 2819 -91 2113 -91 
Q 1303 -91 875 529 
Q 447 1150 447 2328 
Q 447 3434 972 4092 
Q 1497 4750 2381 4750 
Q 2619 4750 2861 4703 
Q 3103 4656 3366 4563 
z
" id="DejaVuSans-36" transform="scale(0.015625)"/>
     </defs>
     <use transform="translate(0 0.09375)" xlink:href="#DejaVuSans-Oblique-52"/>
     <use transform="translate(69.482422 -16.3125)scale(0.7)" xlink:href="#DejaVuSans-36"/>
    </g>
    <!-- 100k -->
    <g transform="translate(242.327112 37.268437)scale(0.14 -0.14)">
     <use xlink:href="#DejaVuSans-31"/>
     <use x="63.623047" xlink:href="#DejaVuSans-30"/>
     <use x="127.246094" xlink:href="#DejaVuSans-30"/>
     <use x="190.869141" xlink:href="#DejaVuSans-6b"/>
    </g>
   </g>
   <g id="text_11">
    <!-- $C_2$ -->
    <g transform="translate(595.7318 251.0915)scale(0.14 -0.14)">
     <use transform="translate(0 0.78125)" xlink:href="#DejaVuSans-Oblique-43"/>
     <use transform="translate(69.824219 -15.625)scale(0.7)" xlink:href="#DejaVuSans-32"/>
    </g>
    <!-- 0.01u -->
    <g transform="translate(583.969613 266.768437)scale(0.14 -0.14)">
     <defs>
      <path d="M 684 794 
L 1344 794 
L 1344 0 
L 684 0 
L 684 794 
z
" id="DejaVuSans-2e" transform="scale(0.015625)"/>
     </defs>
     <use xlink:href="#DejaVuSans-30"/>
     <use x="63.623047" xlink:href="#DejaVuSans-2e"/>
     <use x="95.410156" xlink:href="#DejaVuSans-30"/>
     <use x="159.033203" xlink:href="#DejaVuSans-31"/>
     <use x="222.65625" xlink:href="#DejaVuSans-75"/>
    </g>
   </g>
   <g id="text_12">
    <!-- $C_3$ -->
    <g transform="translate(786.9818 251.0915)scale(0.14 -0.14)">
     <use transform="translate(0 0.78125)" xlink:href="#DejaVuSans-Oblique-43"/>
     <use transform="translate(69.824219 -15.625)scale(0.7)" xlink:href="#DejaVuSans-33"/>
    </g>
    <!-- 0.01u -->
    <g transform="translate(775.219613 266.768437)scale(0.14 -0.14)">
     <use xlink:href="#DejaVuSans-30"/>
     <use x="63.623047" xlink:href="#DejaVuSans-2e"/>
     <use x="95.410156" xlink:href="#DejaVuSans-30"/>
     <use x="159.033203" xlink:href="#DejaVuSans-31"/>
     <use x="222.65625" xlink:href="#DejaVuSans-75"/>
    </g>
   </g>
   <g id="text_13">
    <!-- $RV_4$ -->
    <g transform="translate(385.2018 314.664656)scale(0.14 -0.14)">
     <use transform="translate(0 0.09375)" xlink:href="#DejaVuSans-Oblique-52"/>
     <use transform="translate(69.482422 0.09375)" xlink:href="#DejaVuSans-Oblique-56"/>
     <use transform="translate(137.890625 -16.3125)scale(0.7)" xlink:href="#DejaVuSans-34"/>
    </g>
    <!-- 100k -->
    <g transform="translate(385.2018 330.341594)scale(0.14 -0.14)">
     <use xlink:href="#DejaVuSans-31"/>
     <use x="63.623047" xlink:href="#DejaVuSans-30"/>
     <use x="127.246094" xlink:href="#DejaVuSans-30"/>
     <use x="190.869141" xlink:href="#DejaVuSans-6b"/>
    </g>
   </g>
   <g id="patch_10">
    <path clip-path="url(#p6cad3404b1)" d="M 30.2418 206.185 
C 30.850441 206.185 31.434236 205.943184 31.86461 205.51281 
C 32.294984 205.082436 32.5368 204.498641 32.5368 203.89 
C 32.5368 203.281359 32.294984 202.697564 31.86461 202.26719 
C 31.434236 201.836816 30.850441 201.595 30.2418 201.595 
C 29.633159 201.595 29.049364 201.836816 28.61899 202.26719 
C 28.188616 202.697564 27.9468 203.281359 27.9468 203.89 
C 27.9468 204.498641 28.188616 205.082436 28.61899 205.51281 
C 29.049364 205.943184 29.633159 206.185 30.2418 206.185 
z
" style="fill:#ffffff;stroke:#000000;stroke-linejoin:miter;stroke-width:0.9;"/>
   </g>
   <g id="patch_11">
    <path clip-path="url(#p6cad3404b1)" d="M 374.4918 206.185 
C 375.100441 206.185 375.684236 205.943184 376.11461 205.51281 
C 376.544984 205.082436 376.7868 204.498641 376.7868 203.89 
C 376.7868 203.281359 376.544984 202.697564 376.11461 202.26719 
C 375.684236 201.836816 375.100441 201.595 374.4918 201.595 
C 373.883159 201.595 373.299364 201.836816 372.86899 202.26719 
C 372.438616 202.697564 372.1968 203.281359 372.1968 203.89 
C 372.1968 204.498641 372.438616 205.082436 372.86899 205.51281 
C 373.299364 205.943184 373.883159 206.185 374.4918 206.185 
z
" style="stroke:#000000;stroke-linejoin:miter;stroke-width:0.9;"/>
   </g>
   <g id="patch_12">
    <path clip-path="url(#p6cad3404b1)" d="M 221.4918 206.185 
C 222.100441 206.185 222.684236 205.943184 223.11461 205.51281 
C 223.544984 205.082436 223.7868 204.498641 223.7868 203.89 
C 223.7868 203.281359 223.544984 202.697564 223.11461 202.26719 
C 222.684236 201.836816 222.100441 201.595 221.4918 201.595 
C 220.883159 201.595 220.299364 201.836816 219.86899 202.26719 
C 219.438616 202.697564 219.1968 203.281359 219.1968 203.89 
C 219.1968 204.498641 219.438616 205.082436 219.86899 205.51281 
C 220.299364 205.943184 220.883159 206.185 221.4918 206.185 
z
" style="stroke:#000000;stroke-linejoin:miter;stroke-width:0.9;"/>
   </g>
   <g id="patch_13">
    <path clip-path="url(#p6cad3404b1)" d="M 297.9918 206.185 
C 298.600441 206.185 299.184236 205.943184 299.61461 205.51281 
C 300.044984 205.082436 300.2868 204.498641 300.2868 203.89 
C 300.2868 203.281359 300.044984 202.697564 299.61461 202.26719 
C 299.184236 201.836816 298.600441 201.595 297.9918 201.595 
C 297.383159 201.595 296.799364 201.836816 296.36899 202.26719 
C 295.938616 202.697564 295.6968 203.281359 295.6968 203.89 
C 295.6968 204.498641 295.938616 205.082436 296.36899 205.51281 
C 296.799364 205.943184 297.383159 206.185 297.9918 206.185 
z
" style="stroke:#000000;stroke-linejoin:miter;stroke-width:0.9;"/>
   </g>
   <g id="patch_14">
    <path clip-path="url(#p6cad3404b1)" d="M 871.7418 206.185 
C 872.350441 206.185 872.934236 205.943184 873.36461 205.51281 
C 873.794984 205.082436 874.0368 204.498641 874.0368 203.89 
C 874.0368 203.281359 873.794984 202.697564 873.36461 202.26719 
C 872.934236 201.836816 872.350441 201.595 871.7418 201.595 
C 871.133159 201.595 870.549364 201.836816 870.11899 202.26719 
C 869.688616 202.697564 869.4468 203.281359 869.4468 203.89 
C 869.4468 204.498641 869.688616 205.082436 870.11899 205.51281 
C 870.549364 205.943184 871.133159 206.185 871.7418 206.185 
z
" style="fill:#ffffff;stroke:#000000;stroke-linejoin:miter;stroke-width:0.9;"/>
   </g>
   <g id="patch_15">
    <path clip-path="url(#p6cad3404b1)" d="M 642.2418 129.685 
C 642.850441 129.685 643.434236 129.443184 643.86461 129.01281 
C 644.294984 128.582436 644.5368 127.998641 644.5368 127.39 
C 644.5368 126.781359 644.294984 126.197564 643.86461 125.76719 
C 643.434236 125.336816 642.850441 125.095 642.2418 125.095 
C 641.633159 125.095 641.049364 125.336816 640.61899 125.76719 
C 640.188616 126.197564 639.9468 126.781359 639.9468 127.39 
C 639.9468 127.998641 640.188616 128.582436 640.61899 129.01281 
C 641.049364 129.443184 641.633159 129.685 642.2418 129.685 
z
" style="stroke:#000000;stroke-linejoin:miter;stroke-width:0.9;"/>
   </g>
   <g id="patch_16">
    <path clip-path="url(#p6cad3404b1)" d="M 221.4918 129.685 
C 222.100441 129.685 222.684236 129.443184 223.11461 129.01281 
C 223.544984 128.582436 223.7868 127.998641 223.7868 127.39 
C 223.7868 126.781359 223.544984 126.197564 223.11461 125.76719 
C 222.684236 125.336816 222.100441 125.095 221.4918 125.095 
C 220.883159 125.095 220.299364 125.336816 219.86899 125.76719 
C 219.438616 126.197564 219.1968 126.781359 219.1968 127.39 
C 219.1968 127.998641 219.438616 128.582436 219.86899 129.01281 
C 220.299364 129.443184 220.883159 129.685 221.4918 129.685 
z
" style="stroke:#000000;stroke-linejoin:miter;stroke-width:0.9;"/>
   </g>
   <g id="patch_17">
    <path clip-path="url(#p6cad3404b1)" d="M 565.7418 206.185 
C 566.350441 206.185 566.934236 205.943184 567.36461 205.51281 
C 567.794984 205.082436 568.0368 204.498641 568.0368 203.89 
C 568.0368 203.281359 567.794984 202.697564 567.36461 202.26719 
C 566.934236 201.836816 566.350441 201.595 565.7418 201.595 
C 565.133159 201.595 564.549364 201.836816 564.11899 202.26719 
C 563.688616 202.697564 563.4468 203.281359 563.4468 203.89 
C 563.4468 204.498641 563.688616 205.082436 564.11899 205.51281 
C 564.549364 205.943184 565.133159 206.185 565.7418 206.185 
z
" style="stroke:#000000;stroke-linejoin:miter;stroke-width:0.9;"/>
   </g>
   <g id="patch_18">
    <path clip-path="url(#p6cad3404b1)" d="M 642.2418 206.185 
C 642.850441 206.185 643.434236 205.943184 643.86461 205.51281 
C 644.294984 205.082436 644.5368 204.498641 644.5368 203.89 
C 644.5368 203.281359 644.294984 202.697564 643.86461 202.26719 
C 643.434236 201.836816 642.850441 201.595 642.2418 201.595 
C 641.633159 201.595 641.049364 201.836816 640.61899 202.26719 
C 640.188616 202.697564 639.9468 203.281359 639.9468 203.89 
C 639.9468 204.498641 640.188616 205.082436 640.61899 205.51281 
C 641.049364 205.943184 641.633159 206.185 642.2418 206.185 
z
" style="stroke:#000000;stroke-linejoin:miter;stroke-width:0.9;"/>
   </g>
   <g id="patch_19">
    <path clip-path="url(#p6cad3404b1)" d="M 756.9918 206.185 
C 757.600441 206.185 758.184236 205.943184 758.61461 205.51281 
C 759.044984 205.082436 759.2868 204.498641 759.2868 203.89 
C 759.2868 203.281359 759.044984 202.697564 758.61461 202.26719 
C 758.184236 201.836816 757.600441 201.595 756.9918 201.595 
C 756.383159 201.595 755.799364 201.836816 755.36899 202.26719 
C 754.938616 202.697564 754.6968 203.281359 754.6968 203.89 
C 754.6968 204.498641 754.938616 205.082436 755.36899 205.51281 
C 755.799364 205.943184 756.383159 206.185 756.9918 206.185 
z
" style="stroke:#000000;stroke-linejoin:miter;stroke-width:0.9;"/>
   </g>
   <g id="patch_20">
    <path clip-path="url(#p6cad3404b1)" d="M 833.4918 206.185 
C 834.100441 206.185 834.684236 205.943184 835.11461 205.51281 
C 835.544984 205.082436 835.7868 204.498641 835.7868 203.89 
C 835.7868 203.281359 835.544984 202.697564 835.11461 202.26719 
C 834.684236 201.836816 834.100441 201.595 833.4918 201.595 
C 832.883159 201.595 832.299364 201.836816 831.86899 202.26719 
C 831.438616 202.697564 831.1968 203.281359 831.1968 203.89 
C 831.1968 204.498641 831.438616 205.082436 831.86899 205.51281 
C 832.299364 205.943184 832.883159 206.185 833.4918 206.185 
z
" style="stroke:#000000;stroke-linejoin:miter;stroke-width:0.9;"/>
   </g>
   <g id="patch_21">
    <path clip-path="url(#p6cad3404b1)" d="M 833.4918 282.685 
C 834.100441 282.685 834.684236 282.443184 835.11461 282.01281 
C 835.544984 281.582436 835.7868 280.998641 835.7868 280.39 
C 835.7868 279.781359 835.544984 279.197564 835.11461 278.76719 
C 834.684236 278.336816 834.100441 278.095 833.4918 278.095 
C 832.883159 278.095 832.299364 278.336816 831.86899 278.76719 
C 831.438616 279.197564 831.1968 279.781359 831.1968 280.39 
C 831.1968 280.998641 831.438616 281.582436 831.86899 282.01281 
C 832.299364 282.443184 832.883159 282.685 833.4918 282.685 
z
" style="stroke:#000000;stroke-linejoin:miter;stroke-width:0.9;"/>
   </g>
   <g id="text_14">
    <!-- $IN$ -->
    <g transform="translate(10.1868 207.753125)scale(0.14 -0.14)">
     <defs>
      <path d="M 1081 4666 
L 1716 4666 
L 806 0 
L 172 0 
L 1081 4666 
z
" id="DejaVuSans-Oblique-49" transform="scale(0.015625)"/>
      <path d="M 1081 4666 
L 1931 4666 
L 3219 666 
L 4000 4666 
L 4616 4666 
L 3706 0 
L 2853 0 
L 1569 4025 
L 788 0 
L 172 0 
L 1081 4666 
z
" id="DejaVuSans-Oblique-4e" transform="scale(0.015625)"/>
     </defs>
     <use transform="translate(0 0.09375)" xlink:href="#DejaVuSans-Oblique-49"/>
     <use transform="translate(29.492188 0.09375)" xlink:href="#DejaVuSans-Oblique-4e"/>
    </g>
   </g>
   <g id="text_15">
    <!-- $OUT$ -->
    <g transform="translate(877.0968 207.753125)scale(0.14 -0.14)">
     <defs>
      <path d="M 2919 4238 
Q 2400 4238 2003 3986 
Q 1606 3734 1313 3219 
Q 1125 2891 1026 2522 
Q 928 2153 928 1778 
Q 928 1128 1239 775 
Q 1550 422 2119 422 
Q 2631 422 3032 676 
Q 3434 931 3719 1434 
Q 3909 1772 4009 2142 
Q 4109 2513 4109 2881 
Q 4109 3528 3796 3883 
Q 3484 4238 2919 4238 
z
M 2100 -91 
Q 1241 -91 748 418 
Q 256 928 256 1813 
Q 256 2319 448 2847 
Q 641 3375 978 3788 
Q 1375 4272 1862 4511 
Q 2350 4750 2938 4750 
Q 3794 4750 4287 4245 
Q 4781 3741 4781 2869 
Q 4781 2331 4593 1812 
Q 4406 1294 4056 872 
Q 3656 384 3173 146 
Q 2691 -91 2100 -91 
z
" id="DejaVuSans-Oblique-4f" transform="scale(0.015625)"/>
      <path d="M 991 4666 
L 1625 4666 
L 1075 1831 
Q 1041 1641 1027 1517 
Q 1013 1394 1013 1300 
Q 1013 869 1253 645 
Q 1494 422 1959 422 
Q 2563 422 2898 753 
Q 3234 1084 3378 1831 
L 3928 4666 
L 4563 4666 
L 4000 1753 
Q 3816 809 3300 359 
Q 2784 -91 1888 -91 
Q 1188 -91 780 261 
Q 372 613 372 1216 
Q 372 1325 387 1461 
Q 403 1597 434 1753 
L 991 4666 
z
" id="DejaVuSans-Oblique-55" transform="scale(0.015625)"/>
      <path d="M 378 4666 
L 4325 4666 
L 4225 4134 
L 2559 4134 
L 1759 0 
L 1125 0 
L 1925 4134 
L 275 4134 
L 378 4666 
z
" id="DejaVuSans-Oblique-54" transform="scale(0.015625)"/>
     </defs>
     <use transform="translate(0 0.78125)" xlink:href="#DejaVuSans-Oblique-4f"/>
     <use transform="translate(78.710938 0.78125)" xlink:href="#DejaVuSans-Oblique-55"/>
     <use transform="translate(151.904297 0.78125)" xlink:href="#DejaVuSans-Oblique-54"/>
    </g>
   </g>
  </g>
 </g>
 <defs>
  <clipPath id="p6cad3404b1">
   <rect height="352.75" width="903.8526" x="7.2" y="7.2"/>
  </clipPath>
 </defs>
</svg>
