<?xml version="1.0" encoding="utf-8" standalone="no"?>
<!DOCTYPE svg PUBLIC "-//W3C//DTD SVG 1.1//EN"
  "http://www.w3.org/Graphics/SVG/1.1/DTD/svg11.dtd">
<!-- Created with matplotlib (https://matplotlib.org/) -->
<svg height="276.35625pt" version="1.1" viewBox="0 0 568.445312 276.35625" width="568.445312pt" xmlns="http://www.w3.org/2000/svg" xmlns:xlink="http://www.w3.org/1999/xlink">
 <metadata>
  <rdf:RDF xmlns:cc="http://creativecommons.org/ns#" xmlns:dc="http://purl.org/dc/elements/1.1/" xmlns:rdf="http://www.w3.org/1999/02/22-rdf-syntax-ns#">
   <cc:Work>
    <dc:type rdf:resource="http://purl.org/dc/dcmitype/StillImage"/>
    <dc:date>2021-03-27T19:08:59.871830</dc:date>
    <dc:format>image/svg+xml</dc:format>
    <dc:creator>
     <cc:Agent>
      <dc:title>Matplotlib v3.3.4, https://matplotlib.org/</dc:title>
     </cc:Agent>
    </dc:creator>
   </cc:Work>
  </rdf:RDF>
 </metadata>
 <defs>
  <style type="text/css">*{stroke-linecap:butt;stroke-linejoin:round;}</style>
 </defs>
 <g id="figure_1">
  <g id="patch_1">
   <path d="M 0 276.35625 
L 568.445312 276.35625 
L 568.445312 0 
L 0 0 
z
" style="fill:none;"/>
  </g>
  <g id="axes_1">
   <g id="patch_2">
    <path d="M 55.345313 102.1 
L 561.245312 102.1 
L 561.245312 7.2 
L 55.345313 7.2 
z
" style="fill:#ffffff;"/>
   </g>
   <g id="matplotlib.axis_1">
    <g id="xtick_1">
     <g id="line2d_1">
      <defs>
       <path d="M 0 0 
L 0 3.5 
" id="m77f185d57c" style="stroke:#000000;stroke-width:0.8;"/>
      </defs>
      <g>
       <use style="stroke:#000000;stroke-width:0.8;" x="78.340767" xlink:href="#m77f185d57c" y="102.1"/>
      </g>
     </g>
     <g id="text_1">
      <!-- 0 -->
      <g transform="translate(75.159517 116.698437)scale(0.1 -0.1)">
       <defs>
        <path d="M 31.78125 66.40625 
Q 24.171875 66.40625 20.328125 58.90625 
Q 16.5 51.421875 16.5 36.375 
Q 16.5 21.390625 20.328125 13.890625 
Q 24.171875 6.390625 31.78125 6.390625 
Q 39.453125 6.390625 43.28125 13.890625 
Q 47.125 21.390625 47.125 36.375 
Q 47.125 51.421875 43.28125 58.90625 
Q 39.453125 66.40625 31.78125 66.40625 
z
M 31.78125 74.21875 
Q 44.046875 74.21875 50.515625 64.515625 
Q 56.984375 54.828125 56.984375 36.375 
Q 56.984375 17.96875 50.515625 8.265625 
Q 44.046875 -1.421875 31.78125 -1.421875 
Q 19.53125 -1.421875 13.0625 8.265625 
Q 6.59375 17.96875 6.59375 36.375 
Q 6.59375 54.828125 13.0625 64.515625 
Q 19.53125 74.21875 31.78125 74.21875 
z
" id="DejaVuSans-48"/>
       </defs>
       <use xlink:href="#DejaVuSans-48"/>
      </g>
     </g>
    </g>
    <g id="xtick_2">
     <g id="line2d_2">
      <g>
       <use style="stroke:#000000;stroke-width:0.8;" x="170.322585" xlink:href="#m77f185d57c" y="102.1"/>
      </g>
     </g>
     <g id="text_2">
      <!-- 2 -->
      <g transform="translate(167.141335 116.698437)scale(0.1 -0.1)">
       <defs>
        <path d="M 19.1875 8.296875 
L 53.609375 8.296875 
L 53.609375 0 
L 7.328125 0 
L 7.328125 8.296875 
Q 12.9375 14.109375 22.625 23.890625 
Q 32.328125 33.6875 34.8125 36.53125 
Q 39.546875 41.84375 41.421875 45.53125 
Q 43.3125 49.21875 43.3125 52.78125 
Q 43.3125 58.59375 39.234375 62.25 
Q 35.15625 65.921875 28.609375 65.921875 
Q 23.96875 65.921875 18.8125 64.3125 
Q 13.671875 62.703125 7.8125 59.421875 
L 7.8125 69.390625 
Q 13.765625 71.78125 18.9375 73 
Q 24.125 74.21875 28.421875 74.21875 
Q 39.75 74.21875 46.484375 68.546875 
Q 53.21875 62.890625 53.21875 53.421875 
Q 53.21875 48.921875 51.53125 44.890625 
Q 49.859375 40.875 45.40625 35.40625 
Q 44.1875 33.984375 37.640625 27.21875 
Q 31.109375 20.453125 19.1875 8.296875 
z
" id="DejaVuSans-50"/>
       </defs>
       <use xlink:href="#DejaVuSans-50"/>
      </g>
     </g>
    </g>
    <g id="xtick_3">
     <g id="line2d_3">
      <g>
       <use style="stroke:#000000;stroke-width:0.8;" x="262.304403" xlink:href="#m77f185d57c" y="102.1"/>
      </g>
     </g>
     <g id="text_3">
      <!-- 4 -->
      <g transform="translate(259.123153 116.698437)scale(0.1 -0.1)">
       <defs>
        <path d="M 37.796875 64.3125 
L 12.890625 25.390625 
L 37.796875 25.390625 
z
M 35.203125 72.90625 
L 47.609375 72.90625 
L 47.609375 25.390625 
L 58.015625 25.390625 
L 58.015625 17.1875 
L 47.609375 17.1875 
L 47.609375 0 
L 37.796875 0 
L 37.796875 17.1875 
L 4.890625 17.1875 
L 4.890625 26.703125 
z
" id="DejaVuSans-52"/>
       </defs>
       <use xlink:href="#DejaVuSans-52"/>
      </g>
     </g>
    </g>
    <g id="xtick_4">
     <g id="line2d_4">
      <g>
       <use style="stroke:#000000;stroke-width:0.8;" x="354.286222" xlink:href="#m77f185d57c" y="102.1"/>
      </g>
     </g>
     <g id="text_4">
      <!-- 6 -->
      <g transform="translate(351.104972 116.698437)scale(0.1 -0.1)">
       <defs>
        <path d="M 33.015625 40.375 
Q 26.375 40.375 22.484375 35.828125 
Q 18.609375 31.296875 18.609375 23.390625 
Q 18.609375 15.53125 22.484375 10.953125 
Q 26.375 6.390625 33.015625 6.390625 
Q 39.65625 6.390625 43.53125 10.953125 
Q 47.40625 15.53125 47.40625 23.390625 
Q 47.40625 31.296875 43.53125 35.828125 
Q 39.65625 40.375 33.015625 40.375 
z
M 52.59375 71.296875 
L 52.59375 62.3125 
Q 48.875 64.0625 45.09375 64.984375 
Q 41.3125 65.921875 37.59375 65.921875 
Q 27.828125 65.921875 22.671875 59.328125 
Q 17.53125 52.734375 16.796875 39.40625 
Q 19.671875 43.65625 24.015625 45.921875 
Q 28.375 48.1875 33.59375 48.1875 
Q 44.578125 48.1875 50.953125 41.515625 
Q 57.328125 34.859375 57.328125 23.390625 
Q 57.328125 12.15625 50.6875 5.359375 
Q 44.046875 -1.421875 33.015625 -1.421875 
Q 20.359375 -1.421875 13.671875 8.265625 
Q 6.984375 17.96875 6.984375 36.375 
Q 6.984375 53.65625 15.1875 63.9375 
Q 23.390625 74.21875 37.203125 74.21875 
Q 40.921875 74.21875 44.703125 73.484375 
Q 48.484375 72.75 52.59375 71.296875 
z
" id="DejaVuSans-54"/>
       </defs>
       <use xlink:href="#DejaVuSans-54"/>
      </g>
     </g>
    </g>
    <g id="xtick_5">
     <g id="line2d_5">
      <g>
       <use style="stroke:#000000;stroke-width:0.8;" x="446.26804" xlink:href="#m77f185d57c" y="102.1"/>
      </g>
     </g>
     <g id="text_5">
      <!-- 8 -->
      <g transform="translate(443.08679 116.698437)scale(0.1 -0.1)">
       <defs>
        <path d="M 31.78125 34.625 
Q 24.75 34.625 20.71875 30.859375 
Q 16.703125 27.09375 16.703125 20.515625 
Q 16.703125 13.921875 20.71875 10.15625 
Q 24.75 6.390625 31.78125 6.390625 
Q 38.8125 6.390625 42.859375 10.171875 
Q 46.921875 13.96875 46.921875 20.515625 
Q 46.921875 27.09375 42.890625 30.859375 
Q 38.875 34.625 31.78125 34.625 
z
M 21.921875 38.8125 
Q 15.578125 40.375 12.03125 44.71875 
Q 8.5 49.078125 8.5 55.328125 
Q 8.5 64.0625 14.71875 69.140625 
Q 20.953125 74.21875 31.78125 74.21875 
Q 42.671875 74.21875 48.875 69.140625 
Q 55.078125 64.0625 55.078125 55.328125 
Q 55.078125 49.078125 51.53125 44.71875 
Q 48 40.375 41.703125 38.8125 
Q 48.828125 37.15625 52.796875 32.3125 
Q 56.78125 27.484375 56.78125 20.515625 
Q 56.78125 9.90625 50.3125 4.234375 
Q 43.84375 -1.421875 31.78125 -1.421875 
Q 19.734375 -1.421875 13.25 4.234375 
Q 6.78125 9.90625 6.78125 20.515625 
Q 6.78125 27.484375 10.78125 32.3125 
Q 14.796875 37.15625 21.921875 38.8125 
z
M 18.3125 54.390625 
Q 18.3125 48.734375 21.84375 45.5625 
Q 25.390625 42.390625 31.78125 42.390625 
Q 38.140625 42.390625 41.71875 45.5625 
Q 45.3125 48.734375 45.3125 54.390625 
Q 45.3125 60.0625 41.71875 63.234375 
Q 38.140625 66.40625 31.78125 66.40625 
Q 25.390625 66.40625 21.84375 63.234375 
Q 18.3125 60.0625 18.3125 54.390625 
z
" id="DejaVuSans-56"/>
       </defs>
       <use xlink:href="#DejaVuSans-56"/>
      </g>
     </g>
    </g>
    <g id="xtick_6">
     <g id="line2d_6">
      <g>
       <use style="stroke:#000000;stroke-width:0.8;" x="538.249858" xlink:href="#m77f185d57c" y="102.1"/>
      </g>
     </g>
     <g id="text_6">
      <!-- 10 -->
      <g transform="translate(531.887358 116.698437)scale(0.1 -0.1)">
       <defs>
        <path d="M 12.40625 8.296875 
L 28.515625 8.296875 
L 28.515625 63.921875 
L 10.984375 60.40625 
L 10.984375 69.390625 
L 28.421875 72.90625 
L 38.28125 72.90625 
L 38.28125 8.296875 
L 54.390625 8.296875 
L 54.390625 0 
L 12.40625 0 
z
" id="DejaVuSans-49"/>
       </defs>
       <use xlink:href="#DejaVuSans-49"/>
       <use x="63.623047" xlink:href="#DejaVuSans-48"/>
      </g>
     </g>
    </g>
    <g id="text_7">
     <!-- time (ms) -->
     <g transform="translate(284.033594 130.376562)scale(0.1 -0.1)">
      <defs>
       <path d="M 18.3125 70.21875 
L 18.3125 54.6875 
L 36.8125 54.6875 
L 36.8125 47.703125 
L 18.3125 47.703125 
L 18.3125 18.015625 
Q 18.3125 11.328125 20.140625 9.421875 
Q 21.96875 7.515625 27.59375 7.515625 
L 36.8125 7.515625 
L 36.8125 0 
L 27.59375 0 
Q 17.1875 0 13.234375 3.875 
Q 9.28125 7.765625 9.28125 18.015625 
L 9.28125 47.703125 
L 2.6875 47.703125 
L 2.6875 54.6875 
L 9.28125 54.6875 
L 9.28125 70.21875 
z
" id="DejaVuSans-116"/>
       <path d="M 9.421875 54.6875 
L 18.40625 54.6875 
L 18.40625 0 
L 9.421875 0 
z
M 9.421875 75.984375 
L 18.40625 75.984375 
L 18.40625 64.59375 
L 9.421875 64.59375 
z
" id="DejaVuSans-105"/>
       <path d="M 52 44.1875 
Q 55.375 50.25 60.0625 53.125 
Q 64.75 56 71.09375 56 
Q 79.640625 56 84.28125 50.015625 
Q 88.921875 44.046875 88.921875 33.015625 
L 88.921875 0 
L 79.890625 0 
L 79.890625 32.71875 
Q 79.890625 40.578125 77.09375 44.375 
Q 74.3125 48.1875 68.609375 48.1875 
Q 61.625 48.1875 57.5625 43.546875 
Q 53.515625 38.921875 53.515625 30.90625 
L 53.515625 0 
L 44.484375 0 
L 44.484375 32.71875 
Q 44.484375 40.625 41.703125 44.40625 
Q 38.921875 48.1875 33.109375 48.1875 
Q 26.21875 48.1875 22.15625 43.53125 
Q 18.109375 38.875 18.109375 30.90625 
L 18.109375 0 
L 9.078125 0 
L 9.078125 54.6875 
L 18.109375 54.6875 
L 18.109375 46.1875 
Q 21.1875 51.21875 25.484375 53.609375 
Q 29.78125 56 35.6875 56 
Q 41.65625 56 45.828125 52.96875 
Q 50 49.953125 52 44.1875 
z
" id="DejaVuSans-109"/>
       <path d="M 56.203125 29.59375 
L 56.203125 25.203125 
L 14.890625 25.203125 
Q 15.484375 15.921875 20.484375 11.0625 
Q 25.484375 6.203125 34.421875 6.203125 
Q 39.59375 6.203125 44.453125 7.46875 
Q 49.3125 8.734375 54.109375 11.28125 
L 54.109375 2.78125 
Q 49.265625 0.734375 44.1875 -0.34375 
Q 39.109375 -1.421875 33.890625 -1.421875 
Q 20.796875 -1.421875 13.15625 6.1875 
Q 5.515625 13.8125 5.515625 26.8125 
Q 5.515625 40.234375 12.765625 48.109375 
Q 20.015625 56 32.328125 56 
Q 43.359375 56 49.78125 48.890625 
Q 56.203125 41.796875 56.203125 29.59375 
z
M 47.21875 32.234375 
Q 47.125 39.59375 43.09375 43.984375 
Q 39.0625 48.390625 32.421875 48.390625 
Q 24.90625 48.390625 20.390625 44.140625 
Q 15.875 39.890625 15.1875 32.171875 
z
" id="DejaVuSans-101"/>
       <path id="DejaVuSans-32"/>
       <path d="M 31 75.875 
Q 24.46875 64.65625 21.28125 53.65625 
Q 18.109375 42.671875 18.109375 31.390625 
Q 18.109375 20.125 21.3125 9.0625 
Q 24.515625 -2 31 -13.1875 
L 23.1875 -13.1875 
Q 15.875 -1.703125 12.234375 9.375 
Q 8.59375 20.453125 8.59375 31.390625 
Q 8.59375 42.28125 12.203125 53.3125 
Q 15.828125 64.359375 23.1875 75.875 
z
" id="DejaVuSans-40"/>
       <path d="M 44.28125 53.078125 
L 44.28125 44.578125 
Q 40.484375 46.53125 36.375 47.5 
Q 32.28125 48.484375 27.875 48.484375 
Q 21.1875 48.484375 17.84375 46.4375 
Q 14.5 44.390625 14.5 40.28125 
Q 14.5 37.15625 16.890625 35.375 
Q 19.28125 33.59375 26.515625 31.984375 
L 29.59375 31.296875 
Q 39.15625 29.25 43.1875 25.515625 
Q 47.21875 21.78125 47.21875 15.09375 
Q 47.21875 7.46875 41.1875 3.015625 
Q 35.15625 -1.421875 24.609375 -1.421875 
Q 20.21875 -1.421875 15.453125 -0.5625 
Q 10.6875 0.296875 5.421875 2 
L 5.421875 11.28125 
Q 10.40625 8.6875 15.234375 7.390625 
Q 20.0625 6.109375 24.8125 6.109375 
Q 31.15625 6.109375 34.5625 8.28125 
Q 37.984375 10.453125 37.984375 14.40625 
Q 37.984375 18.0625 35.515625 20.015625 
Q 33.0625 21.96875 24.703125 23.78125 
L 21.578125 24.515625 
Q 13.234375 26.265625 9.515625 29.90625 
Q 5.8125 33.546875 5.8125 39.890625 
Q 5.8125 47.609375 11.28125 51.796875 
Q 16.75 56 26.8125 56 
Q 31.78125 56 36.171875 55.265625 
Q 40.578125 54.546875 44.28125 53.078125 
z
" id="DejaVuSans-115"/>
       <path d="M 8.015625 75.875 
L 15.828125 75.875 
Q 23.140625 64.359375 26.78125 53.3125 
Q 30.421875 42.28125 30.421875 31.390625 
Q 30.421875 20.453125 26.78125 9.375 
Q 23.140625 -1.703125 15.828125 -13.1875 
L 8.015625 -13.1875 
Q 14.5 -2 17.703125 9.0625 
Q 20.90625 20.125 20.90625 31.390625 
Q 20.90625 42.671875 17.703125 53.65625 
Q 14.5 64.65625 8.015625 75.875 
z
" id="DejaVuSans-41"/>
      </defs>
      <use xlink:href="#DejaVuSans-116"/>
      <use x="39.208984" xlink:href="#DejaVuSans-105"/>
      <use x="66.992188" xlink:href="#DejaVuSans-109"/>
      <use x="164.404297" xlink:href="#DejaVuSans-101"/>
      <use x="225.927734" xlink:href="#DejaVuSans-32"/>
      <use x="257.714844" xlink:href="#DejaVuSans-40"/>
      <use x="296.728516" xlink:href="#DejaVuSans-109"/>
      <use x="394.140625" xlink:href="#DejaVuSans-115"/>
      <use x="446.240234" xlink:href="#DejaVuSans-41"/>
     </g>
    </g>
   </g>
   <g id="matplotlib.axis_2">
    <g id="ytick_1">
     <g id="line2d_7">
      <defs>
       <path d="M 0 0 
L -3.5 0 
" id="ma1bfb500ee" style="stroke:#000000;stroke-width:0.8;"/>
      </defs>
      <g>
       <use style="stroke:#000000;stroke-width:0.8;" x="55.345313" xlink:href="#ma1bfb500ee" y="86.667577"/>
      </g>
     </g>
     <g id="text_8">
      <!-- −10 -->
      <g transform="translate(27.240625 90.466796)scale(0.1 -0.1)">
       <defs>
        <path d="M 10.59375 35.5 
L 73.1875 35.5 
L 73.1875 27.203125 
L 10.59375 27.203125 
z
" id="DejaVuSans-8722"/>
       </defs>
       <use xlink:href="#DejaVuSans-8722"/>
       <use x="83.789062" xlink:href="#DejaVuSans-49"/>
       <use x="147.412109" xlink:href="#DejaVuSans-48"/>
      </g>
     </g>
    </g>
    <g id="ytick_2">
     <g id="line2d_8">
      <g>
       <use style="stroke:#000000;stroke-width:0.8;" x="55.345313" xlink:href="#ma1bfb500ee" y="54.650078"/>
      </g>
     </g>
     <g id="text_9">
      <!-- 0 -->
      <g transform="translate(41.982813 58.449296)scale(0.1 -0.1)">
       <use xlink:href="#DejaVuSans-48"/>
      </g>
     </g>
    </g>
    <g id="ytick_3">
     <g id="line2d_9">
      <g>
       <use style="stroke:#000000;stroke-width:0.8;" x="55.345313" xlink:href="#ma1bfb500ee" y="22.632578"/>
      </g>
     </g>
     <g id="text_10">
      <!-- 10 -->
      <g transform="translate(35.620313 26.431797)scale(0.1 -0.1)">
       <use xlink:href="#DejaVuSans-49"/>
       <use x="63.623047" xlink:href="#DejaVuSans-48"/>
      </g>
     </g>
    </g>
    <g id="text_11">
     <!-- IN [V] -->
     <g transform="translate(21.160938 68.776562)rotate(-90)scale(0.1 -0.1)">
      <defs>
       <path d="M 9.8125 72.90625 
L 19.671875 72.90625 
L 19.671875 0 
L 9.8125 0 
z
" id="DejaVuSans-73"/>
       <path d="M 9.8125 72.90625 
L 23.09375 72.90625 
L 55.421875 11.921875 
L 55.421875 72.90625 
L 64.984375 72.90625 
L 64.984375 0 
L 51.703125 0 
L 19.390625 60.984375 
L 19.390625 0 
L 9.8125 0 
z
" id="DejaVuSans-78"/>
       <path d="M 8.59375 75.984375 
L 29.296875 75.984375 
L 29.296875 69 
L 17.578125 69 
L 17.578125 -6.203125 
L 29.296875 -6.203125 
L 29.296875 -13.1875 
L 8.59375 -13.1875 
z
" id="DejaVuSans-91"/>
       <path d="M 28.609375 0 
L 0.78125 72.90625 
L 11.078125 72.90625 
L 34.1875 11.53125 
L 57.328125 72.90625 
L 67.578125 72.90625 
L 39.796875 0 
z
" id="DejaVuSans-86"/>
       <path d="M 30.421875 75.984375 
L 30.421875 -13.1875 
L 9.71875 -13.1875 
L 9.71875 -6.203125 
L 21.390625 -6.203125 
L 21.390625 69 
L 9.71875 69 
L 9.71875 75.984375 
z
" id="DejaVuSans-93"/>
      </defs>
      <use xlink:href="#DejaVuSans-73"/>
      <use x="29.492188" xlink:href="#DejaVuSans-78"/>
      <use x="104.296875" xlink:href="#DejaVuSans-32"/>
      <use x="136.083984" xlink:href="#DejaVuSans-91"/>
      <use x="175.097656" xlink:href="#DejaVuSans-86"/>
      <use x="243.505859" xlink:href="#DejaVuSans-93"/>
     </g>
    </g>
   </g>
   <g id="line2d_10">
    <path clip-path="url(#p4c6e52a808)" d="M 78.340767 54.65004 
L 80.410106 54.539777 
L 81.513888 54.256597 
L 82.479697 53.789495 
L 83.445506 53.065595 
L 84.411316 52.045314 
L 85.423116 50.627966 
L 86.480906 48.746436 
L 87.630679 46.237117 
L 88.964416 42.755172 
L 90.528106 38.007833 
L 92.781661 30.356401 
L 95.863052 19.973291 
L 97.28877 15.940443 
L 98.392552 13.434278 
L 99.258105 11.961898 
L 99.626033 11.705725 
L 100.315896 11.598419 
L 102.006608 11.597483 
L 102.834445 11.760312 
L 103.099781 12.070352 
L 103.827703 13.340833 
L 104.609549 15.174887 
L 105.483376 17.800622 
L 106.495176 21.600417 
L 107.598958 26.675198 
L 108.834072 33.482399 
L 119.877194 97.633258 
L 120.195972 97.769638 
L 121.123224 97.784545 
L 132.794099 97.67977 
L 132.958034 97.487622 
L 134.349995 91.336563 
L 135.54094 84.935418 
L 148.191276 11.721846 
L 148.463562 11.562319 
L 149.107434 11.515143 
L 158.167644 11.613043 
L 158.383371 11.81334 
L 159.401613 15.576095 
L 160.459404 20.285134 
L 161.663343 26.728374 
L 172.955253 91.811472 
L 174.105026 96.521182 
L 174.475962 97.565946 
L 174.797899 97.720786 
L 175.625735 97.784475 
L 181.558562 97.687619 
L 181.839552 97.498154 
L 182.280425 96.274551 
L 183.200243 93.297752 
L 184.212043 89.245319 
L 185.315825 83.894963 
L 186.737385 75.777155 
L 195.876398 22.857672 
L 197.072162 17.59575 
L 198.129953 13.889894 
L 198.922617 11.80711 
L 199.244553 11.621981 
L 200.026399 11.53094 
L 202.923826 11.521437 
L 204.303553 11.659099 
L 204.547703 11.879115 
L 205.868703 15.272048 
L 206.834512 18.617068 
L 207.892303 23.132767 
L 209.042075 29.051528 
L 211.892883 45.710802 
L 218.831691 85.727003 
L 220.027454 90.988601 
L 221.085245 94.694223 
L 222.021768 97.22574 
L 222.293199 97.582813 
L 222.753108 97.71662 
L 224.086844 97.779211 
L 226.800308 97.697564 
L 227.250489 97.519721 
L 227.480037 97.085483 
L 228.261883 95.271269 
L 229.13571 92.667927 
L 230.101519 89.083296 
L 231.205301 84.077264 
L 232.425738 77.421549 
L 241.859317 22.893004 
L 243.00909 17.904866 
L 244.066881 14.24533 
L 244.950515 11.909095 
L 245.222274 11.670374 
L 245.820155 11.556338 
L 247.659792 11.516877 
L 249.913346 11.625388 
L 250.252201 11.805277 
L 250.606578 12.53218 
L 251.434415 14.599826 
L 252.354233 17.537155 
L 253.366033 21.546219 
L 254.469815 26.849309 
L 255.862385 34.765237 
L 264.709206 85.988347 
L 265.90497 91.274509 
L 266.96276 95.001867 
L 267.84379 97.388883 
L 268.114147 97.631623 
L 268.712029 97.746222 
L 270.551665 97.784191 
L 272.943193 97.676717 
L 273.28096 97.495708 
L 273.624302 96.777001 
L 274.452138 94.682313 
L 275.371957 91.714989 
L 276.383757 87.672967 
L 277.487538 82.333972 
L 278.932171 74.088475 
L 287.748989 23.080369 
L 288.944753 17.832125 
L 290.002543 14.138355 
L 290.846356 11.881647 
L 291.119707 11.659418 
L 291.717588 11.551638 
L 293.603216 11.515543 
L 295.948752 11.622155 
L 296.288678 11.802085 
L 296.619363 12.494589 
L 297.4472 14.586284 
L 298.367018 17.550315 
L 299.378818 21.588761 
L 300.4826 26.923902 
L 301.890164 34.949654 
L 310.713065 86.02955 
L 311.908829 91.311972 
L 312.96662 95.036018 
L 313.856234 97.424207 
L 314.132179 97.64294 
L 314.776052 97.752207 
L 316.845643 97.783981 
L 318.961224 97.674084 
L 319.291763 97.488366 
L 319.700162 96.618601 
L 320.527998 94.473883 
L 321.447816 91.450954 
L 322.459616 87.347766 
L 323.609389 81.69576 
L 325.200273 72.527966 
L 333.741496 23.130775 
L 334.93726 17.878526 
L 335.995051 14.181213 
L 336.868111 11.862763 
L 337.144056 11.654056 
L 337.787929 11.547407 
L 339.85752 11.515988 
L 341.973102 11.630942 
L 342.296272 11.830765 
L 342.930269 13.23923 
L 343.804096 15.681712 
L 344.769905 19.088583 
L 345.827696 23.672024 
L 346.977469 29.664417 
L 350.864043 52.411457 
L 356.740774 86.190641 
L 357.936538 91.43873 
L 358.994329 95.132396 
L 359.868512 97.445316 
L 360.144457 97.648103 
L 360.78833 97.75304 
L 362.903912 97.783758 
L 364.973503 97.667873 
L 365.291423 97.469501 
L 365.917504 96.080459 
L 366.791331 93.643566 
L 367.757141 90.242906 
L 368.814931 85.666312 
L 369.964704 79.681417 
L 373.674331 57.973291 
L 379.731671 23.13183 
L 380.927434 17.879525 
L 381.985225 14.182161 
L 382.858278 11.863328 
L 383.134223 11.65421 
L 383.778096 11.547445 
L 385.847687 11.515992 
L 387.963269 11.630983 
L 388.286408 11.830936 
L 388.921245 13.241429 
L 389.795072 15.684426 
L 390.760881 19.091868 
L 391.818672 23.675933 
L 392.968445 29.669004 
L 396.847451 52.371838 
L 402.729454 86.183767 
L 403.925217 91.433621 
L 404.983008 95.12885 
L 405.856908 97.443564 
L 406.132854 97.647683 
L 406.776726 97.752981 
L 408.892308 97.783775 
L 410.961899 97.668585 
L 411.284616 97.465979 
L 411.969631 95.929685 
L 412.843458 93.449946 
L 413.809267 90.001927 
L 414.867058 85.373465 
L 416.016831 79.332195 
L 421.108366 49.515358 
L 425.726572 23.111303 
L 426.922335 17.862826 
L 427.980126 14.168851 
L 428.853557 11.856418 
L 429.129503 11.652436 
L 429.773375 11.547093 
L 431.888957 11.516111 
L 433.958548 11.632027 
L 434.27701 11.830069 
L 434.902583 13.217636 
L 435.776411 15.653997 
L 436.74222 19.054104 
L 437.800011 23.630135 
L 438.949783 29.614474 
L 442.654421 51.293616 
L 448.720525 86.184312 
L 449.916289 91.43406 
L 450.97408 95.129194 
L 451.848005 97.443758 
L 452.12395 97.647733 
L 452.767823 97.75299 
L 454.883405 97.783774 
L 456.952995 97.668551 
L 457.27568 97.465801 
L 457.965576 95.917263 
L 458.839403 93.434056 
L 459.805212 89.982204 
L 460.863003 85.349544 
L 462.012776 79.30371 
L 467.270299 48.513437 
L 471.71343 23.131292 
L 472.909193 17.878938 
L 473.966984 14.181531 
L 474.840037 11.86292 
L 475.115983 11.654096 
L 475.759855 11.547415 
L 477.829446 11.515987 
L 479.945028 11.63091 
L 480.268229 11.830606 
L 480.901475 13.237164 
L 481.775302 15.679062 
L 482.741111 19.085288 
L 483.798902 23.668022 
L 484.948675 29.659646 
L 488.800971 52.205653 
L 494.670433 85.984078 
L 495.866197 91.272846 
L 496.923988 95.002509 
L 497.804907 97.390512 
L 498.075637 97.63232 
L 498.673519 97.746455 
L 500.513155 97.784226 
L 502.904682 97.677922 
L 503.24534 97.498515 
L 503.596529 96.763401 
L 504.424366 94.663243 
L 505.344184 91.689872 
L 506.355984 87.641194 
L 507.459766 82.294939 
L 508.912822 73.995289 
L 517.709368 23.106806 
L 518.905132 17.859241 
L 519.962923 14.166071 
L 520.836603 11.854803 
L 521.112549 11.652024 
L 521.756421 11.547015 
L 523.872003 11.516115 
L 525.941594 11.632348 
L 526.259361 11.830995 
L 526.886072 13.221743 
L 527.759899 15.659252 
L 528.725708 19.060626 
L 529.783499 23.638047 
L 530.933272 29.623896 
L 534.682233 51.563104 
L 538.249858 72.470131 
L 538.249858 72.470131 
" style="fill:none;stroke:#ff0000;stroke-linecap:square;stroke-width:1.5;"/>
   </g>
   <g id="line2d_11">
    <path clip-path="url(#p4c6e52a808)" d="M 78.340767 54.65004 
L 78.938397 54.748192 
L 79.58227 55.076072 
L 80.318125 55.723743 
L 81.145961 56.780913 
L 82.11177 58.413233 
L 83.261543 60.831289 
L 84.779243 64.597382 
L 89.240361 76.029855 
L 90.344143 78.102002 
L 91.263961 79.376421 
L 91.999816 80.046236 
L 92.643688 80.348621 
L 93.195579 80.381518 
L 93.74747 80.194461 
L 94.345352 79.733583 
L 94.989225 78.927405 
L 95.725079 77.603722 
L 96.552916 75.596232 
L 97.472734 72.726169 
L 98.484534 68.815167 
L 99.672023 63.291 
L 101.200511 55.034714 
L 108.788081 11.603476 
L 109.197105 11.516559 
L 116.831596 11.513999 
L 120.333944 11.616051 
L 120.48351 11.824491 
L 121.215206 15.264164 
L 122.732906 22.906844 
L 124.561726 33.382215 
L 135.616273 97.627181 
L 135.93821 97.769194 
L 136.858028 97.784544 
L 146.930823 97.682189 
L 147.051099 97.458641 
L 147.439817 95.064057 
L 161.819937 11.624459 
L 162.187864 11.519235 
L 164.82139 11.513985 
L 171.214127 11.613483 
L 171.348754 11.824548 
L 172.173408 16.563154 
L 186.116205 97.644228 
L 186.438141 97.771842 
L 187.427248 97.784551 
L 194.463857 97.694482 
L 194.621337 97.491146 
L 196.198335 88.645296 
L 209.43754 11.660157 
L 209.777301 11.526809 
L 210.881083 11.514733 
L 217.411792 11.619741 
L 217.5521 11.825943 
L 232.425738 97.666732 
L 232.794058 97.779284 
L 234.771667 97.78455 
L 240.336567 97.679685 
L 240.47635 97.473514 
L 255.298699 11.680922 
L 255.586439 11.538925 
L 256.322294 11.514945 
L 263.312912 11.617743 
L 263.45619 11.824104 
L 272.713238 65.522998 
L 278.298574 97.641971 
L 278.610234 97.769555 
L 279.530052 97.784551 
L 286.290716 97.694985 
L 286.453084 97.497524 
L 287.366241 92.670287 
L 291.901552 66.112774 
L 301.287765 11.66774 
L 301.614219 11.529719 
L 302.580028 11.514801 
L 309.294701 11.607005 
L 309.454349 11.80739 
L 310.667074 18.375199 
L 324.327952 97.666051 
L 324.694373 97.77925 
L 326.671982 97.78455 
L 332.282873 97.697015 
L 332.448402 97.502102 
L 333.177756 93.703229 
L 335.075232 82.656494 
L 347.282193 11.670016 
L 347.598688 11.531663 
L 348.472515 11.514852 
L 355.27917 11.603798 
L 355.443587 11.799455 
L 356.220457 15.859799 
L 358.396447 28.555602 
L 370.272795 97.625158 
L 370.59294 97.768131 
L 371.466768 97.784551 
L 378.273422 97.696801 
L 378.438625 97.501695 
L 379.214121 93.449566 
L 381.387343 80.770219 
L 393.268654 11.673827 
L 393.582096 11.5328 
L 394.455923 11.514855 
L 401.262578 11.600502 
L 401.432982 11.795022 
L 402.072245 15.104668 
L 403.55729 23.693589 
L 416.270082 97.631979 
L 416.601256 97.770889 
L 417.567066 97.784551 
L 424.281738 97.688211 
L 424.43456 97.480643 
L 427.934135 77.51242 
L 439.258211 11.675198 
L 439.57303 11.53279 
L 440.446858 11.514855 
L 447.253512 11.600487 
L 447.423934 11.79497 
L 448.063223 15.104756 
L 449.548362 23.694245 
L 462.272763 97.642991 
L 462.625218 97.77518 
L 463.866972 97.784551 
L 470.259708 97.694695 
L 470.4217 97.496863 
L 471.399432 92.301273 
L 478.657283 49.780212 
L 485.253387 11.670866 
L 485.581608 11.529944 
L 486.547417 11.514802 
L 493.262089 11.608896 
L 493.419061 11.81184 
L 494.99237 20.489582 
L 508.251457 97.631499 
L 508.590885 97.771997 
L 509.648676 97.784551 
L 516.271367 97.684044 
L 516.417182 97.476915 
L 524.101958 52.981312 
L 531.239968 11.675282 
L 531.554851 11.532793 
L 532.428678 11.514855 
L 538.249858 11.515025 
L 538.249858 11.515025 
" style="fill:none;stroke:#ffff00;stroke-linecap:square;stroke-width:1.5;"/>
   </g>
   <g id="line2d_12">
    <path clip-path="url(#p4c6e52a808)" d="M 78.340767 54.65004 
L 78.364554 54.569206 
L 80.686052 45.396652 
L 82.019788 40.979025 
L 83.077579 38.174538 
L 83.951406 36.422989 
L 84.687261 35.390917 
L 85.331134 34.843321 
L 85.883025 34.649337 
L 86.388925 34.700648 
L 86.894825 34.974384 
L 87.446716 35.528327 
L 88.090588 36.510561 
L 88.826443 38.069832 
L 89.654279 40.363161 
L 90.620088 43.718569 
L 91.769861 48.573342 
L 93.149588 55.424095 
L 95.035216 66.014032 
L 99.036425 88.766364 
L 99.809996 92.123723 
L 101.316745 97.452816 
L 101.59269 97.647636 
L 102.282554 97.757572 
L 104.195631 97.78515 
L 108.582506 97.675401 
L 108.8595 97.488794 
L 109.027941 96.782879 
L 110.346878 91.336144 
L 111.726605 84.645301 
L 113.198314 76.333902 
L 114.762005 66.162543 
L 116.463669 53.57967 
L 118.395287 37.562892 
L 120.012008 24.21053 
L 120.985252 20.911048 
L 123.238806 13.160331 
L 123.733889 11.754001 
L 124.101817 11.606281 
L 125.113617 11.51792 
L 131.046444 11.515614 
L 137.547891 11.612677 
L 137.728205 11.815046 
L 137.916605 13.376102 
L 139.66426 26.465018 
L 141.641869 43.066688 
L 144.033396 65.167981 
L 147.485808 97.653206 
L 147.853735 97.771518 
L 148.969462 97.785151 
L 162.693764 97.695943 
L 162.854065 97.5216 
L 162.909569 96.7977 
L 164.913372 79.743451 
L 167.35089 56.987833 
L 172.127417 11.638261 
L 172.541335 11.524549 
L 174.059035 11.515726 
L 186.346159 11.60136 
L 186.508111 11.776265 
L 186.559965 12.500611 
L 188.714994 31.493876 
L 191.474448 57.972891 
L 195.574954 97.516712 
L 195.784416 97.703117 
L 196.290316 97.78448 
L 206.374603 97.786254 
L 209.43754 97.6813 
L 209.571341 97.479437 
L 209.869283 94.621681 
L 212.076846 74.876059 
L 215.020264 46.337694 
L 218.579658 11.948018 
L 218.739709 11.654177 
L 219.107636 11.534407 
L 220.165427 11.51604 
L 232.339194 11.608053 
L 232.496022 11.82468 
L 232.840049 15.064662 
L 235.047613 34.789447 
L 237.991031 63.312495 
L 241.515732 97.351951 
L 241.675354 97.646369 
L 242.043281 97.766717 
L 243.101072 97.785649 
L 255.298699 97.692487 
L 255.449401 97.502319 
L 255.540626 96.41928 
L 257.702021 77.369482 
L 260.461476 50.889874 
L 264.513283 11.826629 
L 264.709206 11.612437 
L 265.215106 11.517878 
L 271.471484 11.515615 
L 278.298574 11.612037 
L 278.442746 11.795663 
L 278.526751 12.813238 
L 280.679825 31.777987 
L 283.43928 58.245684 
L 287.506978 97.4747 
L 287.702998 97.688704 
L 288.208898 97.783712 
L 294.017134 97.786303 
L 301.287765 97.695111 
L 301.439529 97.519968 
L 301.493028 96.773283 
L 303.68381 77.485196 
L 306.443264 51.011653 
L 310.5131 11.810081 
L 310.713065 11.607601 
L 311.218965 11.517621 
L 318.593297 11.515617 
L 324.281961 11.604435 
L 324.446365 11.81944 
L 324.694373 14.235663 
L 326.855946 33.426232 
L 329.707382 60.926078 
L 333.502015 97.468177 
L 333.695505 97.686307 
L 334.201405 97.783565 
L 339.581575 97.786274 
L 347.282193 97.694557 
L 347.433192 97.518379 
L 347.490959 96.733597 
L 349.668279 77.563553 
L 352.427733 51.094305 
L 356.499095 11.82751 
L 356.694783 11.612675 
L 357.200683 11.517887 
L 363.409812 11.515615 
L 370.272795 11.604575 
L 370.436764 11.818762 
L 370.684922 14.23585 
L 372.846495 33.426126 
L 375.697931 60.92574 
L 379.492457 97.467644 
L 379.68568 97.686079 
L 380.19158 97.783551 
L 385.525751 97.78627 
L 393.268654 97.69645 
L 393.431848 97.481464 
L 393.720069 94.724662 
L 395.881642 75.50131 
L 398.733078 47.976171 
L 402.466014 11.901274 
L 402.637472 11.638809 
L 403.05139 11.526293 
L 404.477108 11.515912 
L 416.270082 11.60773 
L 416.420544 11.787007 
L 416.490919 12.681798 
L 418.670847 31.887088 
L 421.430302 58.366972 
L 425.485 97.472371 
L 425.680581 97.688046 
L 426.186481 97.783671 
L 431.888957 97.786296 
L 439.258211 97.697109 
L 439.422673 97.482107 
L 439.665012 95.113404 
L 441.826585 75.928159 
L 444.678021 48.43245 
L 448.456998 11.901092 
L 448.628543 11.638724 
L 449.042462 11.52628 
L 450.46818 11.515912 
L 462.272763 11.613745 
L 462.413662 11.795972 
L 462.496632 12.805557 
L 464.648818 31.76753 
L 467.408272 58.238801 
L 471.474194 97.467688 
L 471.667439 97.686098 
L 472.173339 97.783552 
L 477.50751 97.78627 
L 485.253387 97.695066 
L 485.405029 97.519856 
L 485.458665 96.771683 
L 487.651199 77.465637 
L 490.410653 50.989596 
L 494.473428 11.822345 
L 494.670433 11.611118 
L 495.176333 11.517803 
L 501.708919 11.515615 
L 508.251457 11.607494 
L 508.402067 11.78576 
L 508.463737 12.606097 
L 510.614485 31.535048 
L 513.37394 57.989426 
L 517.467513 97.474023 
L 517.663377 97.68849 
L 518.169277 97.783698 
L 523.963985 97.786302 
L 531.239968 97.697141 
L 531.404524 97.48196 
L 531.646833 95.113429 
L 533.808405 75.928182 
L 536.659842 48.432471 
L 538.249858 32.560144 
L 538.249858 32.560144 
" style="fill:none;stroke:#008000;stroke-linecap:square;stroke-width:1.5;"/>
   </g>
   <g id="line2d_13">
    <path clip-path="url(#p4c6e52a808)" d="M 78.340767 54.650078 
L 81.743843 47.472515 
L 83.491497 44.29194 
L 84.917216 42.125322 
L 86.15897 40.621768 
L 87.262752 39.622312 
L 88.228561 39.02699 
L 89.148379 38.712427 
L 90.022206 38.64637 
L 90.896034 38.808122 
L 91.769861 39.195381 
L 92.73567 39.879029 
L 93.793461 40.921865 
L 94.943234 42.37913 
L 96.27697 44.445293 
L 97.886652 47.381767 
L 99.99396 51.730865 
L 105.345403 62.986594 
L 107.001076 65.83931 
L 108.380803 67.786459 
L 109.565032 69.088751 
L 110.622823 69.933949 
L 111.588632 70.427698 
L 112.46246 70.638214 
L 113.336287 70.621143 
L 114.210114 70.376726 
L 115.129932 69.877709 
L 116.095741 69.095474 
L 117.199523 67.894981 
L 118.441278 66.186727 
L 119.877194 63.802096 
L 121.629124 60.427403 
L 124.28578 54.750455 
L 127.735099 47.471837 
L 129.482753 44.291362 
L 130.908471 42.124849 
L 132.150226 40.621403 
L 133.246213 39.627934 
L 134.212022 39.030553 
L 135.13184 38.713969 
L 135.9842 38.644908 
L 136.858028 38.799141 
L 137.769545 39.200397 
L 138.698451 39.855419 
L 139.756242 40.89032 
L 140.906014 42.339711 
L 142.239751 44.397968 
L 143.803442 47.237708 
L 145.873033 51.49072 
L 151.452971 63.203343 
L 153.062653 65.949321 
L 154.396389 67.81723 
L 155.592153 69.122779 
L 156.649944 69.957324 
L 157.615753 70.440914 
L 158.52321 70.645235 
L 159.355622 70.616759 
L 160.229449 70.364988 
L 161.149267 69.858411 
L 162.141873 69.043007 
L 163.211709 67.868788 
L 164.453463 66.154417 
L 165.879181 63.782207 
L 167.626836 60.413526 
L 170.294309 54.711921 
L 173.691108 47.540144 
L 175.487762 44.267869 
L 176.91348 42.105668 
L 178.155235 40.606573 
L 179.259017 39.611451 
L 180.224826 39.020127 
L 181.144644 38.709484 
L 182.020552 38.647318 
L 182.878307 38.808265 
L 183.752134 39.195641 
L 184.717943 39.879412 
L 185.775734 40.922377 
L 186.921348 42.373929 
L 188.255085 44.439053 
L 189.864767 47.374551 
L 191.980348 51.740693 
L 197.302116 62.939671 
L 198.968608 65.816943 
L 200.348335 67.768576 
L 201.544099 69.086151 
L 202.60189 69.932158 
L 203.567699 70.426678 
L 204.479946 70.641982 
L 205.316812 70.621336 
L 206.190639 70.377255 
L 207.110457 69.878581 
L 208.076266 69.096693 
L 209.134057 67.95279 
L 210.329192 66.328162 
L 211.75491 63.987969 
L 213.456574 60.740961 
L 215.940083 55.466406 
L 219.751509 47.404294 
L 221.499163 44.233795 
L 222.937072 42.061385 
L 224.178826 40.5724 
L 225.282608 39.587096 
L 226.248417 39.004826 
L 227.168235 38.703054 
L 228.031928 38.648605 
L 228.905755 38.819973 
L 229.779583 39.21668 
L 230.745392 39.910412 
L 231.803183 40.963661 
L 232.978022 42.466741 
L 234.311758 44.550239 
L 235.92144 47.502964 
L 238.083013 51.981371 
L 243.193054 62.751853 
L 244.864527 65.667146 
L 246.234074 67.635395 
L 247.429837 68.985243 
L 248.487628 69.862069 
L 249.453437 70.386021 
L 250.36971 70.63031 
L 251.20446 70.635194 
L 252.078287 70.417859 
L 252.998106 69.94671 
L 253.963915 69.192557 
L 255.021706 68.077102 
L 256.230312 66.461601 
L 257.610039 64.227558 
L 259.311703 61.014524 
L 261.70323 55.963415 
L 265.812988 47.267005 
L 267.560642 44.117079 
L 268.987974 41.980751 
L 270.229729 40.510399 
L 271.333511 39.543171 
L 272.29932 38.97755 
L 273.219138 38.692078 
L 274.084211 38.653214 
L 274.958038 38.840527 
L 275.877857 39.280725 
L 276.843666 40.003622 
L 277.901457 41.086937 
L 279.070143 42.611497 
L 280.449871 44.802052 
L 282.105543 47.883493 
L 284.359098 52.598217 
L 288.990743 62.384598 
L 290.692407 65.40574 
L 292.085516 67.454653 
L 293.281279 68.846869 
L 294.33907 69.764282 
L 295.304879 70.327096 
L 296.224698 70.60982 
L 297.079273 70.646974 
L 297.9531 70.459764 
L 298.872918 70.019671 
L 299.838727 69.29688 
L 300.896518 68.213675 
L 302.074128 66.676353 
L 303.453855 64.483389 
L 305.109528 61.39975 
L 307.363082 56.683435 
L 311.95482 46.975713 
L 313.656483 43.945344 
L 315.051997 41.883635 
L 316.247761 40.482681 
L 317.305552 39.556877 
L 318.271361 38.986015 
L 319.191179 38.695415 
L 320.068089 38.652629 
L 320.941916 38.838116 
L 321.861734 39.27643 
L 322.827544 39.997421 
L 323.885334 41.078774 
L 325.062301 42.613297 
L 326.442028 44.804204 
L 328.097701 47.885968 
L 330.351255 52.600924 
L 334.983251 62.387658 
L 336.684914 65.408329 
L 338.063875 67.43816 
L 339.259638 68.834163 
L 340.317429 69.755213 
L 341.283238 70.321514 
L 342.203056 70.60765 
L 343.068241 70.647137 
L 343.942069 70.46043 
L 344.861887 70.020857 
L 345.827696 69.298593 
L 346.885487 68.215929 
L 348.058597 66.685644 
L 349.438324 64.494499 
L 351.093997 61.412518 
L 353.347552 56.697405 
L 357.936538 46.993361 
L 359.638201 43.960299 
L 361.064276 41.85549 
L 362.260039 40.46098 
L 363.31783 39.541362 
L 364.283639 38.976435 
L 365.203457 38.691644 
L 366.055477 38.652341 
L 366.929304 38.836914 
L 367.849122 39.274284 
L 368.814931 39.994321 
L 369.872722 41.074691 
L 371.05285 42.612778 
L 372.432577 44.803583 
L 374.08825 47.885254 
L 376.341804 52.600143 
L 380.973425 62.386252 
L 382.675089 65.407139 
L 384.054042 67.437183 
L 385.249805 68.833411 
L 386.307596 69.754676 
L 387.273405 70.321183 
L 388.193223 70.607521 
L 389.059217 70.647132 
L 389.933045 70.460407 
L 390.852863 70.020816 
L 391.818672 69.298534 
L 392.876463 68.215851 
L 394.042005 66.696455 
L 395.421732 64.507431 
L 397.077405 61.427385 
L 399.33096 56.713674 
L 403.971208 46.909445 
L 405.672872 43.889245 
L 407.052672 41.858794 
L 408.248435 40.463525 
L 409.306226 39.54318 
L 410.272035 38.977555 
L 411.191854 38.69208 
L 412.061613 38.653611 
L 412.93544 38.842138 
L 413.855258 39.283589 
L 414.821067 40.007752 
L 415.878858 41.09237 
L 417.061166 42.63791 
L 418.440893 44.833628 
L 420.096566 47.919777 
L 422.35012 52.637906 
L 426.922335 62.305707 
L 428.623999 65.338935 
L 430.049321 67.442932 
L 431.245084 68.83784 
L 432.302875 69.757839 
L 433.268684 70.323133 
L 434.188503 70.608282 
L 435.040556 70.647918 
L 435.914383 70.463679 
L 436.788211 70.054337 
L 437.75402 69.34713 
L 438.811811 68.27998 
L 439.986949 66.762428 
L 441.320685 64.665117 
L 442.930367 61.699497 
L 445.09194 57.211253 
L 450.100252 46.646391 
L 451.778607 43.704641 
L 453.13575 41.738599 
L 454.331514 40.371249 
L 455.389305 39.477676 
L 456.355114 38.937701 
L 457.27568 38.677198 
L 458.149539 38.663326 
L 459.023366 38.877028 
L 459.943185 39.344435 
L 460.908994 40.094813 
L 461.966785 41.20639 
L 463.177108 42.820421 
L 464.556836 45.051065 
L 466.212508 48.168866 
L 468.558045 53.109588 
L 472.817211 62.120594 
L 474.564866 65.257209 
L 475.98981 67.376335 
L 477.231565 68.833351 
L 478.289355 69.754633 
L 479.255165 70.321157 
L 480.174983 70.60751 
L 481.039447 70.647264 
L 481.913275 70.460952 
L 482.833093 70.021787 
L 483.798902 69.299934 
L 484.856693 68.217695 
L 486.041517 66.670934 
L 487.421244 64.476911 
L 489.076917 61.392307 
L 491.330471 56.675294 
L 495.912188 46.987747 
L 497.613852 43.955541 
L 499.041446 41.849652 
L 500.23721 40.456482 
L 501.295001 39.538153 
L 502.26081 38.97446 
L 503.180628 38.690877 
L 504.056439 38.654751 
L 504.930266 38.846655 
L 505.850084 39.29159 
L 506.815893 40.019276 
L 507.873684 41.10752 
L 509.050794 42.649209 
L 510.430522 44.847128 
L 512.086194 47.935281 
L 514.339749 52.654854 
L 518.905132 62.307586 
L 520.606795 65.340527 
L 522.032367 67.444546 
L 523.22813 68.839084 
L 524.285921 69.758727 
L 525.25173 70.32368 
L 526.171549 70.608495 
L 527.024045 70.647783 
L 527.897872 70.46311 
L 528.81769 70.025636 
L 529.783499 69.305495 
L 530.84129 68.225017 
L 532.01476 66.696416 
L 533.394487 64.507384 
L 535.05016 61.427331 
L 537.303714 56.713615 
L 538.249858 54.650078 
L 538.249858 54.650078 
" style="fill:none;stroke:#0000ff;stroke-linecap:square;stroke-width:1.5;"/>
   </g>
   <g id="patch_3">
    <path d="M 55.345313 102.1 
L 55.345313 7.2 
" style="fill:none;stroke:#000000;stroke-linecap:square;stroke-linejoin:miter;stroke-width:0.8;"/>
   </g>
   <g id="patch_4">
    <path d="M 561.245312 102.1 
L 561.245312 7.2 
" style="fill:none;stroke:#000000;stroke-linecap:square;stroke-linejoin:miter;stroke-width:0.8;"/>
   </g>
   <g id="patch_5">
    <path d="M 55.345313 102.1 
L 561.245313 102.1 
" style="fill:none;stroke:#000000;stroke-linecap:square;stroke-linejoin:miter;stroke-width:0.8;"/>
   </g>
   <g id="patch_6">
    <path d="M 55.345313 7.2 
L 561.245313 7.2 
" style="fill:none;stroke:#000000;stroke-linecap:square;stroke-linejoin:miter;stroke-width:0.8;"/>
   </g>
  </g>
  <g id="axes_2">
   <g id="patch_7">
    <path d="M 55.345313 238.8 
L 561.245312 238.8 
L 561.245312 143.9 
L 55.345313 143.9 
z
" style="fill:#ffffff;"/>
   </g>
   <g id="matplotlib.axis_3">
    <g id="xtick_7">
     <g id="line2d_14">
      <path clip-path="url(#p0f05ca7315)" d="M 78.340767 238.8 
L 78.340767 143.9 
" style="fill:none;stroke:#b0b0b0;stroke-linecap:square;stroke-width:0.8;"/>
     </g>
     <g id="line2d_15">
      <g>
       <use style="stroke:#000000;stroke-width:0.8;" x="78.340767" xlink:href="#m77f185d57c" y="238.8"/>
      </g>
     </g>
     <g id="text_12">
      <!-- $\mathdefault{10^{0}}$ -->
      <g transform="translate(69.540767 253.398438)scale(0.1 -0.1)">
       <use transform="translate(0 0.765625)" xlink:href="#DejaVuSans-49"/>
       <use transform="translate(63.623047 0.765625)" xlink:href="#DejaVuSans-48"/>
       <use transform="translate(128.203125 39.046875)scale(0.7)" xlink:href="#DejaVuSans-48"/>
      </g>
     </g>
    </g>
    <g id="xtick_8">
     <g id="line2d_16">
      <path clip-path="url(#p0f05ca7315)" d="M 185.29637 238.8 
L 185.29637 143.9 
" style="fill:none;stroke:#b0b0b0;stroke-linecap:square;stroke-width:0.8;"/>
     </g>
     <g id="line2d_17">
      <g>
       <use style="stroke:#000000;stroke-width:0.8;" x="185.29637" xlink:href="#m77f185d57c" y="238.8"/>
      </g>
     </g>
     <g id="text_13">
      <!-- $\mathdefault{10^{1}}$ -->
      <g transform="translate(176.49637 253.398438)scale(0.1 -0.1)">
       <use transform="translate(0 0.684375)" xlink:href="#DejaVuSans-49"/>
       <use transform="translate(63.623047 0.684375)" xlink:href="#DejaVuSans-48"/>
       <use transform="translate(128.203125 38.965625)scale(0.7)" xlink:href="#DejaVuSans-49"/>
      </g>
     </g>
    </g>
    <g id="xtick_9">
     <g id="line2d_18">
      <path clip-path="url(#p0f05ca7315)" d="M 292.251972 238.8 
L 292.251972 143.9 
" style="fill:none;stroke:#b0b0b0;stroke-linecap:square;stroke-width:0.8;"/>
     </g>
     <g id="line2d_19">
      <g>
       <use style="stroke:#000000;stroke-width:0.8;" x="292.251972" xlink:href="#m77f185d57c" y="238.8"/>
      </g>
     </g>
     <g id="text_14">
      <!-- $\mathdefault{10^{2}}$ -->
      <g transform="translate(283.451972 253.398438)scale(0.1 -0.1)">
       <use transform="translate(0 0.765625)" xlink:href="#DejaVuSans-49"/>
       <use transform="translate(63.623047 0.765625)" xlink:href="#DejaVuSans-48"/>
       <use transform="translate(128.203125 39.046875)scale(0.7)" xlink:href="#DejaVuSans-50"/>
      </g>
     </g>
    </g>
    <g id="xtick_10">
     <g id="line2d_20">
      <path clip-path="url(#p0f05ca7315)" d="M 399.207575 238.8 
L 399.207575 143.9 
" style="fill:none;stroke:#b0b0b0;stroke-linecap:square;stroke-width:0.8;"/>
     </g>
     <g id="line2d_21">
      <g>
       <use style="stroke:#000000;stroke-width:0.8;" x="399.207575" xlink:href="#m77f185d57c" y="238.8"/>
      </g>
     </g>
     <g id="text_15">
      <!-- $\mathdefault{10^{3}}$ -->
      <g transform="translate(390.407575 253.398438)scale(0.1 -0.1)">
       <defs>
        <path d="M 40.578125 39.3125 
Q 47.65625 37.796875 51.625 33 
Q 55.609375 28.21875 55.609375 21.1875 
Q 55.609375 10.40625 48.1875 4.484375 
Q 40.765625 -1.421875 27.09375 -1.421875 
Q 22.515625 -1.421875 17.65625 -0.515625 
Q 12.796875 0.390625 7.625 2.203125 
L 7.625 11.71875 
Q 11.71875 9.328125 16.59375 8.109375 
Q 21.484375 6.890625 26.8125 6.890625 
Q 36.078125 6.890625 40.9375 10.546875 
Q 45.796875 14.203125 45.796875 21.1875 
Q 45.796875 27.640625 41.28125 31.265625 
Q 36.765625 34.90625 28.71875 34.90625 
L 20.21875 34.90625 
L 20.21875 43.015625 
L 29.109375 43.015625 
Q 36.375 43.015625 40.234375 45.921875 
Q 44.09375 48.828125 44.09375 54.296875 
Q 44.09375 59.90625 40.109375 62.90625 
Q 36.140625 65.921875 28.71875 65.921875 
Q 24.65625 65.921875 20.015625 65.03125 
Q 15.375 64.15625 9.8125 62.3125 
L 9.8125 71.09375 
Q 15.4375 72.65625 20.34375 73.4375 
Q 25.25 74.21875 29.59375 74.21875 
Q 40.828125 74.21875 47.359375 69.109375 
Q 53.90625 64.015625 53.90625 55.328125 
Q 53.90625 49.265625 50.4375 45.09375 
Q 46.96875 40.921875 40.578125 39.3125 
z
" id="DejaVuSans-51"/>
       </defs>
       <use transform="translate(0 0.765625)" xlink:href="#DejaVuSans-49"/>
       <use transform="translate(63.623047 0.765625)" xlink:href="#DejaVuSans-48"/>
       <use transform="translate(128.203125 39.046875)scale(0.7)" xlink:href="#DejaVuSans-51"/>
      </g>
     </g>
    </g>
    <g id="xtick_11">
     <g id="line2d_22">
      <path clip-path="url(#p0f05ca7315)" d="M 506.163177 238.8 
L 506.163177 143.9 
" style="fill:none;stroke:#b0b0b0;stroke-linecap:square;stroke-width:0.8;"/>
     </g>
     <g id="line2d_23">
      <g>
       <use style="stroke:#000000;stroke-width:0.8;" x="506.163177" xlink:href="#m77f185d57c" y="238.8"/>
      </g>
     </g>
     <g id="text_16">
      <!-- $\mathdefault{10^{4}}$ -->
      <g transform="translate(497.363177 253.398438)scale(0.1 -0.1)">
       <use transform="translate(0 0.684375)" xlink:href="#DejaVuSans-49"/>
       <use transform="translate(63.623047 0.684375)" xlink:href="#DejaVuSans-48"/>
       <use transform="translate(128.203125 38.965625)scale(0.7)" xlink:href="#DejaVuSans-52"/>
      </g>
     </g>
    </g>
    <g id="xtick_12">
     <g id="line2d_24">
      <path clip-path="url(#p0f05ca7315)" d="M 61.773135 238.8 
L 61.773135 143.9 
" style="fill:none;stroke:#b0b0b0;stroke-linecap:square;stroke-width:0.8;"/>
     </g>
     <g id="line2d_25">
      <defs>
       <path d="M 0 0 
L 0 2 
" id="m0affd3d589" style="stroke:#000000;stroke-width:0.6;"/>
      </defs>
      <g>
       <use style="stroke:#000000;stroke-width:0.6;" x="61.773135" xlink:href="#m0affd3d589" y="238.8"/>
      </g>
     </g>
    </g>
    <g id="xtick_13">
     <g id="line2d_26">
      <path clip-path="url(#p0f05ca7315)" d="M 67.975698 238.8 
L 67.975698 143.9 
" style="fill:none;stroke:#b0b0b0;stroke-linecap:square;stroke-width:0.8;"/>
     </g>
     <g id="line2d_27">
      <g>
       <use style="stroke:#000000;stroke-width:0.6;" x="67.975698" xlink:href="#m0affd3d589" y="238.8"/>
      </g>
     </g>
    </g>
    <g id="xtick_14">
     <g id="line2d_28">
      <path clip-path="url(#p0f05ca7315)" d="M 73.446747 238.8 
L 73.446747 143.9 
" style="fill:none;stroke:#b0b0b0;stroke-linecap:square;stroke-width:0.8;"/>
     </g>
     <g id="line2d_29">
      <g>
       <use style="stroke:#000000;stroke-width:0.6;" x="73.446747" xlink:href="#m0affd3d589" y="238.8"/>
      </g>
     </g>
    </g>
    <g id="xtick_15">
     <g id="line2d_30">
      <path clip-path="url(#p0f05ca7315)" d="M 110.537612 238.8 
L 110.537612 143.9 
" style="fill:none;stroke:#b0b0b0;stroke-linecap:square;stroke-width:0.8;"/>
     </g>
     <g id="line2d_31">
      <g>
       <use style="stroke:#000000;stroke-width:0.6;" x="110.537612" xlink:href="#m0affd3d589" y="238.8"/>
      </g>
     </g>
    </g>
    <g id="xtick_16">
     <g id="line2d_32">
      <path clip-path="url(#p0f05ca7315)" d="M 129.371558 238.8 
L 129.371558 143.9 
" style="fill:none;stroke:#b0b0b0;stroke-linecap:square;stroke-width:0.8;"/>
     </g>
     <g id="line2d_33">
      <g>
       <use style="stroke:#000000;stroke-width:0.6;" x="129.371558" xlink:href="#m0affd3d589" y="238.8"/>
      </g>
     </g>
    </g>
    <g id="xtick_17">
     <g id="line2d_34">
      <path clip-path="url(#p0f05ca7315)" d="M 142.734456 238.8 
L 142.734456 143.9 
" style="fill:none;stroke:#b0b0b0;stroke-linecap:square;stroke-width:0.8;"/>
     </g>
     <g id="line2d_35">
      <g>
       <use style="stroke:#000000;stroke-width:0.6;" x="142.734456" xlink:href="#m0affd3d589" y="238.8"/>
      </g>
     </g>
    </g>
    <g id="xtick_18">
     <g id="line2d_36">
      <path clip-path="url(#p0f05ca7315)" d="M 153.099525 238.8 
L 153.099525 143.9 
" style="fill:none;stroke:#b0b0b0;stroke-linecap:square;stroke-width:0.8;"/>
     </g>
     <g id="line2d_37">
      <g>
       <use style="stroke:#000000;stroke-width:0.6;" x="153.099525" xlink:href="#m0affd3d589" y="238.8"/>
      </g>
     </g>
    </g>
    <g id="xtick_19">
     <g id="line2d_38">
      <path clip-path="url(#p0f05ca7315)" d="M 161.568403 238.8 
L 161.568403 143.9 
" style="fill:none;stroke:#b0b0b0;stroke-linecap:square;stroke-width:0.8;"/>
     </g>
     <g id="line2d_39">
      <g>
       <use style="stroke:#000000;stroke-width:0.6;" x="161.568403" xlink:href="#m0affd3d589" y="238.8"/>
      </g>
     </g>
    </g>
    <g id="xtick_20">
     <g id="line2d_40">
      <path clip-path="url(#p0f05ca7315)" d="M 168.728737 238.8 
L 168.728737 143.9 
" style="fill:none;stroke:#b0b0b0;stroke-linecap:square;stroke-width:0.8;"/>
     </g>
     <g id="line2d_41">
      <g>
       <use style="stroke:#000000;stroke-width:0.6;" x="168.728737" xlink:href="#m0affd3d589" y="238.8"/>
      </g>
     </g>
    </g>
    <g id="xtick_21">
     <g id="line2d_42">
      <path clip-path="url(#p0f05ca7315)" d="M 174.931301 238.8 
L 174.931301 143.9 
" style="fill:none;stroke:#b0b0b0;stroke-linecap:square;stroke-width:0.8;"/>
     </g>
     <g id="line2d_43">
      <g>
       <use style="stroke:#000000;stroke-width:0.6;" x="174.931301" xlink:href="#m0affd3d589" y="238.8"/>
      </g>
     </g>
    </g>
    <g id="xtick_22">
     <g id="line2d_44">
      <path clip-path="url(#p0f05ca7315)" d="M 180.40235 238.8 
L 180.40235 143.9 
" style="fill:none;stroke:#b0b0b0;stroke-linecap:square;stroke-width:0.8;"/>
     </g>
     <g id="line2d_45">
      <g>
       <use style="stroke:#000000;stroke-width:0.6;" x="180.40235" xlink:href="#m0affd3d589" y="238.8"/>
      </g>
     </g>
    </g>
    <g id="xtick_23">
     <g id="line2d_46">
      <path clip-path="url(#p0f05ca7315)" d="M 217.493214 238.8 
L 217.493214 143.9 
" style="fill:none;stroke:#b0b0b0;stroke-linecap:square;stroke-width:0.8;"/>
     </g>
     <g id="line2d_47">
      <g>
       <use style="stroke:#000000;stroke-width:0.6;" x="217.493214" xlink:href="#m0affd3d589" y="238.8"/>
      </g>
     </g>
    </g>
    <g id="xtick_24">
     <g id="line2d_48">
      <path clip-path="url(#p0f05ca7315)" d="M 236.327161 238.8 
L 236.327161 143.9 
" style="fill:none;stroke:#b0b0b0;stroke-linecap:square;stroke-width:0.8;"/>
     </g>
     <g id="line2d_49">
      <g>
       <use style="stroke:#000000;stroke-width:0.6;" x="236.327161" xlink:href="#m0affd3d589" y="238.8"/>
      </g>
     </g>
    </g>
    <g id="xtick_25">
     <g id="line2d_50">
      <path clip-path="url(#p0f05ca7315)" d="M 249.690059 238.8 
L 249.690059 143.9 
" style="fill:none;stroke:#b0b0b0;stroke-linecap:square;stroke-width:0.8;"/>
     </g>
     <g id="line2d_51">
      <g>
       <use style="stroke:#000000;stroke-width:0.6;" x="249.690059" xlink:href="#m0affd3d589" y="238.8"/>
      </g>
     </g>
    </g>
    <g id="xtick_26">
     <g id="line2d_52">
      <path clip-path="url(#p0f05ca7315)" d="M 260.055128 238.8 
L 260.055128 143.9 
" style="fill:none;stroke:#b0b0b0;stroke-linecap:square;stroke-width:0.8;"/>
     </g>
     <g id="line2d_53">
      <g>
       <use style="stroke:#000000;stroke-width:0.6;" x="260.055128" xlink:href="#m0affd3d589" y="238.8"/>
      </g>
     </g>
    </g>
    <g id="xtick_27">
     <g id="line2d_54">
      <path clip-path="url(#p0f05ca7315)" d="M 268.524006 238.8 
L 268.524006 143.9 
" style="fill:none;stroke:#b0b0b0;stroke-linecap:square;stroke-width:0.8;"/>
     </g>
     <g id="line2d_55">
      <g>
       <use style="stroke:#000000;stroke-width:0.6;" x="268.524006" xlink:href="#m0affd3d589" y="238.8"/>
      </g>
     </g>
    </g>
    <g id="xtick_28">
     <g id="line2d_56">
      <path clip-path="url(#p0f05ca7315)" d="M 275.68434 238.8 
L 275.68434 143.9 
" style="fill:none;stroke:#b0b0b0;stroke-linecap:square;stroke-width:0.8;"/>
     </g>
     <g id="line2d_57">
      <g>
       <use style="stroke:#000000;stroke-width:0.6;" x="275.68434" xlink:href="#m0affd3d589" y="238.8"/>
      </g>
     </g>
    </g>
    <g id="xtick_29">
     <g id="line2d_58">
      <path clip-path="url(#p0f05ca7315)" d="M 281.886903 238.8 
L 281.886903 143.9 
" style="fill:none;stroke:#b0b0b0;stroke-linecap:square;stroke-width:0.8;"/>
     </g>
     <g id="line2d_59">
      <g>
       <use style="stroke:#000000;stroke-width:0.6;" x="281.886903" xlink:href="#m0affd3d589" y="238.8"/>
      </g>
     </g>
    </g>
    <g id="xtick_30">
     <g id="line2d_60">
      <path clip-path="url(#p0f05ca7315)" d="M 287.357952 238.8 
L 287.357952 143.9 
" style="fill:none;stroke:#b0b0b0;stroke-linecap:square;stroke-width:0.8;"/>
     </g>
     <g id="line2d_61">
      <g>
       <use style="stroke:#000000;stroke-width:0.6;" x="287.357952" xlink:href="#m0affd3d589" y="238.8"/>
      </g>
     </g>
    </g>
    <g id="xtick_31">
     <g id="line2d_62">
      <path clip-path="url(#p0f05ca7315)" d="M 324.448817 238.8 
L 324.448817 143.9 
" style="fill:none;stroke:#b0b0b0;stroke-linecap:square;stroke-width:0.8;"/>
     </g>
     <g id="line2d_63">
      <g>
       <use style="stroke:#000000;stroke-width:0.6;" x="324.448817" xlink:href="#m0affd3d589" y="238.8"/>
      </g>
     </g>
    </g>
    <g id="xtick_32">
     <g id="line2d_64">
      <path clip-path="url(#p0f05ca7315)" d="M 343.282764 238.8 
L 343.282764 143.9 
" style="fill:none;stroke:#b0b0b0;stroke-linecap:square;stroke-width:0.8;"/>
     </g>
     <g id="line2d_65">
      <g>
       <use style="stroke:#000000;stroke-width:0.6;" x="343.282764" xlink:href="#m0affd3d589" y="238.8"/>
      </g>
     </g>
    </g>
    <g id="xtick_33">
     <g id="line2d_66">
      <path clip-path="url(#p0f05ca7315)" d="M 356.645661 238.8 
L 356.645661 143.9 
" style="fill:none;stroke:#b0b0b0;stroke-linecap:square;stroke-width:0.8;"/>
     </g>
     <g id="line2d_67">
      <g>
       <use style="stroke:#000000;stroke-width:0.6;" x="356.645661" xlink:href="#m0affd3d589" y="238.8"/>
      </g>
     </g>
    </g>
    <g id="xtick_34">
     <g id="line2d_68">
      <path clip-path="url(#p0f05ca7315)" d="M 367.01073 238.8 
L 367.01073 143.9 
" style="fill:none;stroke:#b0b0b0;stroke-linecap:square;stroke-width:0.8;"/>
     </g>
     <g id="line2d_69">
      <g>
       <use style="stroke:#000000;stroke-width:0.6;" x="367.01073" xlink:href="#m0affd3d589" y="238.8"/>
      </g>
     </g>
    </g>
    <g id="xtick_35">
     <g id="line2d_70">
      <path clip-path="url(#p0f05ca7315)" d="M 375.479608 238.8 
L 375.479608 143.9 
" style="fill:none;stroke:#b0b0b0;stroke-linecap:square;stroke-width:0.8;"/>
     </g>
     <g id="line2d_71">
      <g>
       <use style="stroke:#000000;stroke-width:0.6;" x="375.479608" xlink:href="#m0affd3d589" y="238.8"/>
      </g>
     </g>
    </g>
    <g id="xtick_36">
     <g id="line2d_72">
      <path clip-path="url(#p0f05ca7315)" d="M 382.639942 238.8 
L 382.639942 143.9 
" style="fill:none;stroke:#b0b0b0;stroke-linecap:square;stroke-width:0.8;"/>
     </g>
     <g id="line2d_73">
      <g>
       <use style="stroke:#000000;stroke-width:0.6;" x="382.639942" xlink:href="#m0affd3d589" y="238.8"/>
      </g>
     </g>
    </g>
    <g id="xtick_37">
     <g id="line2d_74">
      <path clip-path="url(#p0f05ca7315)" d="M 388.842506 238.8 
L 388.842506 143.9 
" style="fill:none;stroke:#b0b0b0;stroke-linecap:square;stroke-width:0.8;"/>
     </g>
     <g id="line2d_75">
      <g>
       <use style="stroke:#000000;stroke-width:0.6;" x="388.842506" xlink:href="#m0affd3d589" y="238.8"/>
      </g>
     </g>
    </g>
    <g id="xtick_38">
     <g id="line2d_76">
      <path clip-path="url(#p0f05ca7315)" d="M 394.313555 238.8 
L 394.313555 143.9 
" style="fill:none;stroke:#b0b0b0;stroke-linecap:square;stroke-width:0.8;"/>
     </g>
     <g id="line2d_77">
      <g>
       <use style="stroke:#000000;stroke-width:0.6;" x="394.313555" xlink:href="#m0affd3d589" y="238.8"/>
      </g>
     </g>
    </g>
    <g id="xtick_39">
     <g id="line2d_78">
      <path clip-path="url(#p0f05ca7315)" d="M 431.404419 238.8 
L 431.404419 143.9 
" style="fill:none;stroke:#b0b0b0;stroke-linecap:square;stroke-width:0.8;"/>
     </g>
     <g id="line2d_79">
      <g>
       <use style="stroke:#000000;stroke-width:0.6;" x="431.404419" xlink:href="#m0affd3d589" y="238.8"/>
      </g>
     </g>
    </g>
    <g id="xtick_40">
     <g id="line2d_80">
      <path clip-path="url(#p0f05ca7315)" d="M 450.238366 238.8 
L 450.238366 143.9 
" style="fill:none;stroke:#b0b0b0;stroke-linecap:square;stroke-width:0.8;"/>
     </g>
     <g id="line2d_81">
      <g>
       <use style="stroke:#000000;stroke-width:0.6;" x="450.238366" xlink:href="#m0affd3d589" y="238.8"/>
      </g>
     </g>
    </g>
    <g id="xtick_41">
     <g id="line2d_82">
      <path clip-path="url(#p0f05ca7315)" d="M 463.601264 238.8 
L 463.601264 143.9 
" style="fill:none;stroke:#b0b0b0;stroke-linecap:square;stroke-width:0.8;"/>
     </g>
     <g id="line2d_83">
      <g>
       <use style="stroke:#000000;stroke-width:0.6;" x="463.601264" xlink:href="#m0affd3d589" y="238.8"/>
      </g>
     </g>
    </g>
    <g id="xtick_42">
     <g id="line2d_84">
      <path clip-path="url(#p0f05ca7315)" d="M 473.966333 238.8 
L 473.966333 143.9 
" style="fill:none;stroke:#b0b0b0;stroke-linecap:square;stroke-width:0.8;"/>
     </g>
     <g id="line2d_85">
      <g>
       <use style="stroke:#000000;stroke-width:0.6;" x="473.966333" xlink:href="#m0affd3d589" y="238.8"/>
      </g>
     </g>
    </g>
    <g id="xtick_43">
     <g id="line2d_86">
      <path clip-path="url(#p0f05ca7315)" d="M 482.435211 238.8 
L 482.435211 143.9 
" style="fill:none;stroke:#b0b0b0;stroke-linecap:square;stroke-width:0.8;"/>
     </g>
     <g id="line2d_87">
      <g>
       <use style="stroke:#000000;stroke-width:0.6;" x="482.435211" xlink:href="#m0affd3d589" y="238.8"/>
      </g>
     </g>
    </g>
    <g id="xtick_44">
     <g id="line2d_88">
      <path clip-path="url(#p0f05ca7315)" d="M 489.595545 238.8 
L 489.595545 143.9 
" style="fill:none;stroke:#b0b0b0;stroke-linecap:square;stroke-width:0.8;"/>
     </g>
     <g id="line2d_89">
      <g>
       <use style="stroke:#000000;stroke-width:0.6;" x="489.595545" xlink:href="#m0affd3d589" y="238.8"/>
      </g>
     </g>
    </g>
    <g id="xtick_45">
     <g id="line2d_90">
      <path clip-path="url(#p0f05ca7315)" d="M 495.798109 238.8 
L 495.798109 143.9 
" style="fill:none;stroke:#b0b0b0;stroke-linecap:square;stroke-width:0.8;"/>
     </g>
     <g id="line2d_91">
      <g>
       <use style="stroke:#000000;stroke-width:0.6;" x="495.798109" xlink:href="#m0affd3d589" y="238.8"/>
      </g>
     </g>
    </g>
    <g id="xtick_46">
     <g id="line2d_92">
      <path clip-path="url(#p0f05ca7315)" d="M 501.269157 238.8 
L 501.269157 143.9 
" style="fill:none;stroke:#b0b0b0;stroke-linecap:square;stroke-width:0.8;"/>
     </g>
     <g id="line2d_93">
      <g>
       <use style="stroke:#000000;stroke-width:0.6;" x="501.269157" xlink:href="#m0affd3d589" y="238.8"/>
      </g>
     </g>
    </g>
    <g id="xtick_47">
     <g id="line2d_94">
      <path clip-path="url(#p0f05ca7315)" d="M 538.360022 238.8 
L 538.360022 143.9 
" style="fill:none;stroke:#b0b0b0;stroke-linecap:square;stroke-width:0.8;"/>
     </g>
     <g id="line2d_95">
      <g>
       <use style="stroke:#000000;stroke-width:0.6;" x="538.360022" xlink:href="#m0affd3d589" y="238.8"/>
      </g>
     </g>
    </g>
    <g id="xtick_48">
     <g id="line2d_96">
      <path clip-path="url(#p0f05ca7315)" d="M 557.193969 238.8 
L 557.193969 143.9 
" style="fill:none;stroke:#b0b0b0;stroke-linecap:square;stroke-width:0.8;"/>
     </g>
     <g id="line2d_97">
      <g>
       <use style="stroke:#000000;stroke-width:0.6;" x="557.193969" xlink:href="#m0affd3d589" y="238.8"/>
      </g>
     </g>
    </g>
    <g id="text_17">
     <!-- Frequency [Hz] -->
     <g transform="translate(270.590625 267.076562)scale(0.1 -0.1)">
      <defs>
       <path d="M 9.8125 72.90625 
L 51.703125 72.90625 
L 51.703125 64.59375 
L 19.671875 64.59375 
L 19.671875 43.109375 
L 48.578125 43.109375 
L 48.578125 34.8125 
L 19.671875 34.8125 
L 19.671875 0 
L 9.8125 0 
z
" id="DejaVuSans-70"/>
       <path d="M 41.109375 46.296875 
Q 39.59375 47.171875 37.8125 47.578125 
Q 36.03125 48 33.890625 48 
Q 26.265625 48 22.1875 43.046875 
Q 18.109375 38.09375 18.109375 28.8125 
L 18.109375 0 
L 9.078125 0 
L 9.078125 54.6875 
L 18.109375 54.6875 
L 18.109375 46.1875 
Q 20.953125 51.171875 25.484375 53.578125 
Q 30.03125 56 36.53125 56 
Q 37.453125 56 38.578125 55.875 
Q 39.703125 55.765625 41.0625 55.515625 
z
" id="DejaVuSans-114"/>
       <path d="M 14.796875 27.296875 
Q 14.796875 17.390625 18.875 11.75 
Q 22.953125 6.109375 30.078125 6.109375 
Q 37.203125 6.109375 41.296875 11.75 
Q 45.40625 17.390625 45.40625 27.296875 
Q 45.40625 37.203125 41.296875 42.84375 
Q 37.203125 48.484375 30.078125 48.484375 
Q 22.953125 48.484375 18.875 42.84375 
Q 14.796875 37.203125 14.796875 27.296875 
z
M 45.40625 8.203125 
Q 42.578125 3.328125 38.25 0.953125 
Q 33.9375 -1.421875 27.875 -1.421875 
Q 17.96875 -1.421875 11.734375 6.484375 
Q 5.515625 14.40625 5.515625 27.296875 
Q 5.515625 40.1875 11.734375 48.09375 
Q 17.96875 56 27.875 56 
Q 33.9375 56 38.25 53.625 
Q 42.578125 51.265625 45.40625 46.390625 
L 45.40625 54.6875 
L 54.390625 54.6875 
L 54.390625 -20.796875 
L 45.40625 -20.796875 
z
" id="DejaVuSans-113"/>
       <path d="M 8.5 21.578125 
L 8.5 54.6875 
L 17.484375 54.6875 
L 17.484375 21.921875 
Q 17.484375 14.15625 20.5 10.265625 
Q 23.53125 6.390625 29.59375 6.390625 
Q 36.859375 6.390625 41.078125 11.03125 
Q 45.3125 15.671875 45.3125 23.6875 
L 45.3125 54.6875 
L 54.296875 54.6875 
L 54.296875 0 
L 45.3125 0 
L 45.3125 8.40625 
Q 42.046875 3.421875 37.71875 1 
Q 33.40625 -1.421875 27.6875 -1.421875 
Q 18.265625 -1.421875 13.375 4.4375 
Q 8.5 10.296875 8.5 21.578125 
z
M 31.109375 56 
z
" id="DejaVuSans-117"/>
       <path d="M 54.890625 33.015625 
L 54.890625 0 
L 45.90625 0 
L 45.90625 32.71875 
Q 45.90625 40.484375 42.875 44.328125 
Q 39.84375 48.1875 33.796875 48.1875 
Q 26.515625 48.1875 22.3125 43.546875 
Q 18.109375 38.921875 18.109375 30.90625 
L 18.109375 0 
L 9.078125 0 
L 9.078125 54.6875 
L 18.109375 54.6875 
L 18.109375 46.1875 
Q 21.34375 51.125 25.703125 53.5625 
Q 30.078125 56 35.796875 56 
Q 45.21875 56 50.046875 50.171875 
Q 54.890625 44.34375 54.890625 33.015625 
z
" id="DejaVuSans-110"/>
       <path d="M 48.78125 52.59375 
L 48.78125 44.1875 
Q 44.96875 46.296875 41.140625 47.34375 
Q 37.3125 48.390625 33.40625 48.390625 
Q 24.65625 48.390625 19.8125 42.84375 
Q 14.984375 37.3125 14.984375 27.296875 
Q 14.984375 17.28125 19.8125 11.734375 
Q 24.65625 6.203125 33.40625 6.203125 
Q 37.3125 6.203125 41.140625 7.25 
Q 44.96875 8.296875 48.78125 10.40625 
L 48.78125 2.09375 
Q 45.015625 0.34375 40.984375 -0.53125 
Q 36.96875 -1.421875 32.421875 -1.421875 
Q 20.0625 -1.421875 12.78125 6.34375 
Q 5.515625 14.109375 5.515625 27.296875 
Q 5.515625 40.671875 12.859375 48.328125 
Q 20.21875 56 33.015625 56 
Q 37.15625 56 41.109375 55.140625 
Q 45.0625 54.296875 48.78125 52.59375 
z
" id="DejaVuSans-99"/>
       <path d="M 32.171875 -5.078125 
Q 28.375 -14.84375 24.75 -17.8125 
Q 21.140625 -20.796875 15.09375 -20.796875 
L 7.90625 -20.796875 
L 7.90625 -13.28125 
L 13.1875 -13.28125 
Q 16.890625 -13.28125 18.9375 -11.515625 
Q 21 -9.765625 23.484375 -3.21875 
L 25.09375 0.875 
L 2.984375 54.6875 
L 12.5 54.6875 
L 29.59375 11.921875 
L 46.6875 54.6875 
L 56.203125 54.6875 
z
" id="DejaVuSans-121"/>
       <path d="M 9.8125 72.90625 
L 19.671875 72.90625 
L 19.671875 43.015625 
L 55.515625 43.015625 
L 55.515625 72.90625 
L 65.375 72.90625 
L 65.375 0 
L 55.515625 0 
L 55.515625 34.71875 
L 19.671875 34.71875 
L 19.671875 0 
L 9.8125 0 
z
" id="DejaVuSans-72"/>
       <path d="M 5.515625 54.6875 
L 48.1875 54.6875 
L 48.1875 46.484375 
L 14.40625 7.171875 
L 48.1875 7.171875 
L 48.1875 0 
L 4.296875 0 
L 4.296875 8.203125 
L 38.09375 47.515625 
L 5.515625 47.515625 
z
" id="DejaVuSans-122"/>
      </defs>
      <use xlink:href="#DejaVuSans-70"/>
      <use x="50.269531" xlink:href="#DejaVuSans-114"/>
      <use x="89.132812" xlink:href="#DejaVuSans-101"/>
      <use x="150.65625" xlink:href="#DejaVuSans-113"/>
      <use x="214.132812" xlink:href="#DejaVuSans-117"/>
      <use x="277.511719" xlink:href="#DejaVuSans-101"/>
      <use x="339.035156" xlink:href="#DejaVuSans-110"/>
      <use x="402.414062" xlink:href="#DejaVuSans-99"/>
      <use x="457.394531" xlink:href="#DejaVuSans-121"/>
      <use x="516.574219" xlink:href="#DejaVuSans-32"/>
      <use x="548.361328" xlink:href="#DejaVuSans-91"/>
      <use x="587.375" xlink:href="#DejaVuSans-72"/>
      <use x="662.570312" xlink:href="#DejaVuSans-122"/>
      <use x="715.060547" xlink:href="#DejaVuSans-93"/>
     </g>
    </g>
   </g>
   <g id="matplotlib.axis_4">
    <g id="ytick_4">
     <g id="line2d_98">
      <path clip-path="url(#p0f05ca7315)" d="M 55.345313 234.086612 
L 561.245312 234.086612 
" style="fill:none;stroke:#b0b0b0;stroke-linecap:square;stroke-width:0.8;"/>
     </g>
     <g id="line2d_99">
      <g>
       <use style="stroke:#000000;stroke-width:0.8;" x="55.345313" xlink:href="#ma1bfb500ee" y="234.086612"/>
      </g>
     </g>
     <g id="text_18">
      <!-- −100 -->
      <g transform="translate(20.878125 237.88583)scale(0.1 -0.1)">
       <use xlink:href="#DejaVuSans-8722"/>
       <use x="83.789062" xlink:href="#DejaVuSans-49"/>
       <use x="147.412109" xlink:href="#DejaVuSans-48"/>
       <use x="211.035156" xlink:href="#DejaVuSans-48"/>
      </g>
     </g>
    </g>
    <g id="ytick_5">
     <g id="line2d_100">
      <path clip-path="url(#p0f05ca7315)" d="M 55.345313 203.341217 
L 561.245312 203.341217 
" style="fill:none;stroke:#b0b0b0;stroke-linecap:square;stroke-width:0.8;"/>
     </g>
     <g id="line2d_101">
      <g>
       <use style="stroke:#000000;stroke-width:0.8;" x="55.345313" xlink:href="#ma1bfb500ee" y="203.341217"/>
      </g>
     </g>
     <g id="text_19">
      <!-- −50 -->
      <g transform="translate(27.240625 207.140436)scale(0.1 -0.1)">
       <defs>
        <path d="M 10.796875 72.90625 
L 49.515625 72.90625 
L 49.515625 64.59375 
L 19.828125 64.59375 
L 19.828125 46.734375 
Q 21.96875 47.46875 24.109375 47.828125 
Q 26.265625 48.1875 28.421875 48.1875 
Q 40.625 48.1875 47.75 41.5 
Q 54.890625 34.8125 54.890625 23.390625 
Q 54.890625 11.625 47.5625 5.09375 
Q 40.234375 -1.421875 26.90625 -1.421875 
Q 22.3125 -1.421875 17.546875 -0.640625 
Q 12.796875 0.140625 7.71875 1.703125 
L 7.71875 11.625 
Q 12.109375 9.234375 16.796875 8.0625 
Q 21.484375 6.890625 26.703125 6.890625 
Q 35.15625 6.890625 40.078125 11.328125 
Q 45.015625 15.765625 45.015625 23.390625 
Q 45.015625 31 40.078125 35.4375 
Q 35.15625 39.890625 26.703125 39.890625 
Q 22.75 39.890625 18.8125 39.015625 
Q 14.890625 38.140625 10.796875 36.28125 
z
" id="DejaVuSans-53"/>
       </defs>
       <use xlink:href="#DejaVuSans-8722"/>
       <use x="83.789062" xlink:href="#DejaVuSans-53"/>
       <use x="147.412109" xlink:href="#DejaVuSans-48"/>
      </g>
     </g>
    </g>
    <g id="ytick_6">
     <g id="line2d_102">
      <path clip-path="url(#p0f05ca7315)" d="M 55.345313 172.595823 
L 561.245312 172.595823 
" style="fill:none;stroke:#b0b0b0;stroke-linecap:square;stroke-width:0.8;"/>
     </g>
     <g id="line2d_103">
      <g>
       <use style="stroke:#000000;stroke-width:0.8;" x="55.345313" xlink:href="#ma1bfb500ee" y="172.595823"/>
      </g>
     </g>
     <g id="text_20">
      <!-- 0 -->
      <g transform="translate(41.982813 176.395042)scale(0.1 -0.1)">
       <use xlink:href="#DejaVuSans-48"/>
      </g>
     </g>
    </g>
    <g id="text_21">
     <!-- Gain [dB] -->
     <g transform="translate(14.798438 214.941406)rotate(-90)scale(0.1 -0.1)">
      <defs>
       <path d="M 59.515625 10.40625 
L 59.515625 29.984375 
L 43.40625 29.984375 
L 43.40625 38.09375 
L 69.28125 38.09375 
L 69.28125 6.78125 
Q 63.578125 2.734375 56.6875 0.65625 
Q 49.8125 -1.421875 42 -1.421875 
Q 24.90625 -1.421875 15.25 8.5625 
Q 5.609375 18.5625 5.609375 36.375 
Q 5.609375 54.25 15.25 64.234375 
Q 24.90625 74.21875 42 74.21875 
Q 49.125 74.21875 55.546875 72.453125 
Q 61.96875 70.703125 67.390625 67.28125 
L 67.390625 56.78125 
Q 61.921875 61.421875 55.765625 63.765625 
Q 49.609375 66.109375 42.828125 66.109375 
Q 29.4375 66.109375 22.71875 58.640625 
Q 16.015625 51.171875 16.015625 36.375 
Q 16.015625 21.625 22.71875 14.15625 
Q 29.4375 6.6875 42.828125 6.6875 
Q 48.046875 6.6875 52.140625 7.59375 
Q 56.25 8.5 59.515625 10.40625 
z
" id="DejaVuSans-71"/>
       <path d="M 34.28125 27.484375 
Q 23.390625 27.484375 19.1875 25 
Q 14.984375 22.515625 14.984375 16.5 
Q 14.984375 11.71875 18.140625 8.90625 
Q 21.296875 6.109375 26.703125 6.109375 
Q 34.1875 6.109375 38.703125 11.40625 
Q 43.21875 16.703125 43.21875 25.484375 
L 43.21875 27.484375 
z
M 52.203125 31.203125 
L 52.203125 0 
L 43.21875 0 
L 43.21875 8.296875 
Q 40.140625 3.328125 35.546875 0.953125 
Q 30.953125 -1.421875 24.3125 -1.421875 
Q 15.921875 -1.421875 10.953125 3.296875 
Q 6 8.015625 6 15.921875 
Q 6 25.140625 12.171875 29.828125 
Q 18.359375 34.515625 30.609375 34.515625 
L 43.21875 34.515625 
L 43.21875 35.40625 
Q 43.21875 41.609375 39.140625 45 
Q 35.0625 48.390625 27.6875 48.390625 
Q 23 48.390625 18.546875 47.265625 
Q 14.109375 46.140625 10.015625 43.890625 
L 10.015625 52.203125 
Q 14.9375 54.109375 19.578125 55.046875 
Q 24.21875 56 28.609375 56 
Q 40.484375 56 46.34375 49.84375 
Q 52.203125 43.703125 52.203125 31.203125 
z
" id="DejaVuSans-97"/>
       <path d="M 45.40625 46.390625 
L 45.40625 75.984375 
L 54.390625 75.984375 
L 54.390625 0 
L 45.40625 0 
L 45.40625 8.203125 
Q 42.578125 3.328125 38.25 0.953125 
Q 33.9375 -1.421875 27.875 -1.421875 
Q 17.96875 -1.421875 11.734375 6.484375 
Q 5.515625 14.40625 5.515625 27.296875 
Q 5.515625 40.1875 11.734375 48.09375 
Q 17.96875 56 27.875 56 
Q 33.9375 56 38.25 53.625 
Q 42.578125 51.265625 45.40625 46.390625 
z
M 14.796875 27.296875 
Q 14.796875 17.390625 18.875 11.75 
Q 22.953125 6.109375 30.078125 6.109375 
Q 37.203125 6.109375 41.296875 11.75 
Q 45.40625 17.390625 45.40625 27.296875 
Q 45.40625 37.203125 41.296875 42.84375 
Q 37.203125 48.484375 30.078125 48.484375 
Q 22.953125 48.484375 18.875 42.84375 
Q 14.796875 37.203125 14.796875 27.296875 
z
" id="DejaVuSans-100"/>
       <path d="M 19.671875 34.8125 
L 19.671875 8.109375 
L 35.5 8.109375 
Q 43.453125 8.109375 47.28125 11.40625 
Q 51.125 14.703125 51.125 21.484375 
Q 51.125 28.328125 47.28125 31.5625 
Q 43.453125 34.8125 35.5 34.8125 
z
M 19.671875 64.796875 
L 19.671875 42.828125 
L 34.28125 42.828125 
Q 41.5 42.828125 45.03125 45.53125 
Q 48.578125 48.25 48.578125 53.8125 
Q 48.578125 59.328125 45.03125 62.0625 
Q 41.5 64.796875 34.28125 64.796875 
z
M 9.8125 72.90625 
L 35.015625 72.90625 
Q 46.296875 72.90625 52.390625 68.21875 
Q 58.5 63.53125 58.5 54.890625 
Q 58.5 48.1875 55.375 44.234375 
Q 52.25 40.28125 46.1875 39.3125 
Q 53.46875 37.75 57.5 32.78125 
Q 61.53125 27.828125 61.53125 20.40625 
Q 61.53125 10.640625 54.890625 5.3125 
Q 48.25 0 35.984375 0 
L 9.8125 0 
z
" id="DejaVuSans-66"/>
      </defs>
      <use xlink:href="#DejaVuSans-71"/>
      <use x="77.490234" xlink:href="#DejaVuSans-97"/>
      <use x="138.769531" xlink:href="#DejaVuSans-105"/>
      <use x="166.552734" xlink:href="#DejaVuSans-110"/>
      <use x="229.931641" xlink:href="#DejaVuSans-32"/>
      <use x="261.71875" xlink:href="#DejaVuSans-91"/>
      <use x="300.732422" xlink:href="#DejaVuSans-100"/>
      <use x="364.208984" xlink:href="#DejaVuSans-66"/>
      <use x="432.8125" xlink:href="#DejaVuSans-93"/>
     </g>
    </g>
   </g>
   <g id="line2d_104">
    <path clip-path="url(#p0f05ca7315)" d="M 78.340767 160.571771 
L 89.036328 160.571769 
L 99.731889 160.571762 
L 110.427447 160.571756 
L 121.123007 160.571743 
L 131.818569 160.571723 
L 142.514129 160.57169 
L 153.209688 160.571641 
L 163.905251 160.571562 
L 174.600808 160.571437 
L 185.29637 160.571238 
L 195.991931 160.570924 
L 206.687491 160.570426 
L 217.383051 160.569636 
L 228.07861 160.568384 
L 238.77417 160.566399 
L 249.469733 160.563251 
L 260.165293 160.55826 
L 270.860851 160.550338 
L 281.556412 160.53776 
L 292.251972 160.517763 
L 302.947532 160.48592 
L 313.643093 160.435062 
L 324.338653 160.353465 
L 335.034214 160.22156 
L 345.729772 160.005673 
L 356.425335 159.644823 
L 367.120893 159.01862 
L 377.816454 157.849924 
L 388.512015 155.268716 
L 399.207575 148.273358 
L 409.903135 157.979069 
L 420.598695 162.905416 
L 431.294256 166.496074 
L 441.989817 169.56466 
L 452.685375 172.375988 
L 463.380937 175.046219 
L 474.076499 177.634491 
L 484.772055 180.173528 
L 495.467616 182.68233 
L 506.163177 185.172212 
L 516.858737 187.649938 
L 527.554297 190.119394 
L 538.249858 192.582293 
" style="fill:none;stroke:#0000ff;stroke-linecap:square;stroke-width:1.5;"/>
    <defs>
     <path d="M 0 1.5 
C 0.397805 1.5 0.77937 1.341951 1.06066 1.06066 
C 1.341951 0.77937 1.5 0.397805 1.5 0 
C 1.5 -0.397805 1.341951 -0.77937 1.06066 -1.06066 
C 0.77937 -1.341951 0.397805 -1.5 0 -1.5 
C -0.397805 -1.5 -0.77937 -1.341951 -1.06066 -1.06066 
C -1.341951 -0.77937 -1.5 -0.397805 -1.5 0 
C -1.5 0.397805 -1.341951 0.77937 -1.06066 1.06066 
C -0.77937 1.341951 -0.397805 1.5 0 1.5 
z
" id="mb825aae2a6" style="stroke:#0000ff;"/>
    </defs>
    <g clip-path="url(#p0f05ca7315)">
     <use style="fill:#0000ff;stroke:#0000ff;" x="78.340767" xlink:href="#mb825aae2a6" y="160.571771"/>
     <use style="fill:#0000ff;stroke:#0000ff;" x="89.036328" xlink:href="#mb825aae2a6" y="160.571769"/>
     <use style="fill:#0000ff;stroke:#0000ff;" x="99.731889" xlink:href="#mb825aae2a6" y="160.571762"/>
     <use style="fill:#0000ff;stroke:#0000ff;" x="110.427447" xlink:href="#mb825aae2a6" y="160.571756"/>
     <use style="fill:#0000ff;stroke:#0000ff;" x="121.123007" xlink:href="#mb825aae2a6" y="160.571743"/>
     <use style="fill:#0000ff;stroke:#0000ff;" x="131.818569" xlink:href="#mb825aae2a6" y="160.571723"/>
     <use style="fill:#0000ff;stroke:#0000ff;" x="142.514129" xlink:href="#mb825aae2a6" y="160.57169"/>
     <use style="fill:#0000ff;stroke:#0000ff;" x="153.209688" xlink:href="#mb825aae2a6" y="160.571641"/>
     <use style="fill:#0000ff;stroke:#0000ff;" x="163.905251" xlink:href="#mb825aae2a6" y="160.571562"/>
     <use style="fill:#0000ff;stroke:#0000ff;" x="174.600808" xlink:href="#mb825aae2a6" y="160.571437"/>
     <use style="fill:#0000ff;stroke:#0000ff;" x="185.29637" xlink:href="#mb825aae2a6" y="160.571238"/>
     <use style="fill:#0000ff;stroke:#0000ff;" x="195.991931" xlink:href="#mb825aae2a6" y="160.570924"/>
     <use style="fill:#0000ff;stroke:#0000ff;" x="206.687491" xlink:href="#mb825aae2a6" y="160.570426"/>
     <use style="fill:#0000ff;stroke:#0000ff;" x="217.383051" xlink:href="#mb825aae2a6" y="160.569636"/>
     <use style="fill:#0000ff;stroke:#0000ff;" x="228.07861" xlink:href="#mb825aae2a6" y="160.568384"/>
     <use style="fill:#0000ff;stroke:#0000ff;" x="238.77417" xlink:href="#mb825aae2a6" y="160.566399"/>
     <use style="fill:#0000ff;stroke:#0000ff;" x="249.469733" xlink:href="#mb825aae2a6" y="160.563251"/>
     <use style="fill:#0000ff;stroke:#0000ff;" x="260.165293" xlink:href="#mb825aae2a6" y="160.55826"/>
     <use style="fill:#0000ff;stroke:#0000ff;" x="270.860851" xlink:href="#mb825aae2a6" y="160.550338"/>
     <use style="fill:#0000ff;stroke:#0000ff;" x="281.556412" xlink:href="#mb825aae2a6" y="160.53776"/>
     <use style="fill:#0000ff;stroke:#0000ff;" x="292.251972" xlink:href="#mb825aae2a6" y="160.517763"/>
     <use style="fill:#0000ff;stroke:#0000ff;" x="302.947532" xlink:href="#mb825aae2a6" y="160.48592"/>
     <use style="fill:#0000ff;stroke:#0000ff;" x="313.643093" xlink:href="#mb825aae2a6" y="160.435062"/>
     <use style="fill:#0000ff;stroke:#0000ff;" x="324.338653" xlink:href="#mb825aae2a6" y="160.353465"/>
     <use style="fill:#0000ff;stroke:#0000ff;" x="335.034214" xlink:href="#mb825aae2a6" y="160.22156"/>
     <use style="fill:#0000ff;stroke:#0000ff;" x="345.729772" xlink:href="#mb825aae2a6" y="160.005673"/>
     <use style="fill:#0000ff;stroke:#0000ff;" x="356.425335" xlink:href="#mb825aae2a6" y="159.644823"/>
     <use style="fill:#0000ff;stroke:#0000ff;" x="367.120893" xlink:href="#mb825aae2a6" y="159.01862"/>
     <use style="fill:#0000ff;stroke:#0000ff;" x="377.816454" xlink:href="#mb825aae2a6" y="157.849924"/>
     <use style="fill:#0000ff;stroke:#0000ff;" x="388.512015" xlink:href="#mb825aae2a6" y="155.268716"/>
     <use style="fill:#0000ff;stroke:#0000ff;" x="399.207575" xlink:href="#mb825aae2a6" y="148.273358"/>
     <use style="fill:#0000ff;stroke:#0000ff;" x="409.903135" xlink:href="#mb825aae2a6" y="157.979069"/>
     <use style="fill:#0000ff;stroke:#0000ff;" x="420.598695" xlink:href="#mb825aae2a6" y="162.905416"/>
     <use style="fill:#0000ff;stroke:#0000ff;" x="431.294256" xlink:href="#mb825aae2a6" y="166.496074"/>
     <use style="fill:#0000ff;stroke:#0000ff;" x="441.989817" xlink:href="#mb825aae2a6" y="169.56466"/>
     <use style="fill:#0000ff;stroke:#0000ff;" x="452.685375" xlink:href="#mb825aae2a6" y="172.375988"/>
     <use style="fill:#0000ff;stroke:#0000ff;" x="463.380937" xlink:href="#mb825aae2a6" y="175.046219"/>
     <use style="fill:#0000ff;stroke:#0000ff;" x="474.076499" xlink:href="#mb825aae2a6" y="177.634491"/>
     <use style="fill:#0000ff;stroke:#0000ff;" x="484.772055" xlink:href="#mb825aae2a6" y="180.173528"/>
     <use style="fill:#0000ff;stroke:#0000ff;" x="495.467616" xlink:href="#mb825aae2a6" y="182.68233"/>
     <use style="fill:#0000ff;stroke:#0000ff;" x="506.163177" xlink:href="#mb825aae2a6" y="185.172212"/>
     <use style="fill:#0000ff;stroke:#0000ff;" x="516.858737" xlink:href="#mb825aae2a6" y="187.649938"/>
     <use style="fill:#0000ff;stroke:#0000ff;" x="527.554297" xlink:href="#mb825aae2a6" y="190.119394"/>
     <use style="fill:#0000ff;stroke:#0000ff;" x="538.249858" xlink:href="#mb825aae2a6" y="192.582293"/>
    </g>
   </g>
   <g id="line2d_105">
    <path clip-path="url(#p0f05ca7315)" d="M 78.340767 197.436329 
L 89.036328 196.20653 
L 99.731889 194.976724 
L 110.427447 193.746908 
L 121.123007 192.517085 
L 131.818569 191.287252 
L 142.514129 190.057404 
L 153.209688 188.827542 
L 163.905251 187.597648 
L 174.600808 186.367707 
L 185.29637 185.137693 
L 195.991931 183.907563 
L 206.687491 182.677249 
L 217.383051 181.446644 
L 228.07861 180.215575 
L 238.77417 178.983775 
L 249.469733 177.750812 
L 260.165293 176.516004 
L 270.860851 175.278267 
L 281.556412 174.035872 
L 292.251972 172.786061 
L 302.947532 171.524401 
L 313.643093 170.243728 
L 324.338653 168.932314 
L 335.034214 167.570592 
L 345.729772 166.124892 
L 356.425335 164.534225 
L 367.120893 162.678208 
L 377.816454 160.279696 
L 388.512015 156.468672 
L 399.207575 148.243497 
L 409.903135 156.719396 
L 420.598695 160.415929 
L 431.294256 162.776776 
L 441.989817 164.615553 
L 452.685375 166.197075 
L 463.380937 167.637506 
L 474.076499 168.995988 
L 484.772055 170.305254 
L 495.467616 171.584315 
L 506.163177 172.844517 
L 516.858737 174.092698 
L 527.554297 175.332934 
L 538.249858 176.567517 
" style="fill:none;stroke:#ff0000;stroke-linecap:square;stroke-width:1.5;"/>
    <defs>
     <path d="M 0 1.5 
C 0.397805 1.5 0.77937 1.341951 1.06066 1.06066 
C 1.341951 0.77937 1.5 0.397805 1.5 0 
C 1.5 -0.397805 1.341951 -0.77937 1.06066 -1.06066 
C 0.77937 -1.341951 0.397805 -1.5 0 -1.5 
C -0.397805 -1.5 -0.77937 -1.341951 -1.06066 -1.06066 
C -1.341951 -0.77937 -1.5 -0.397805 -1.5 0 
C -1.5 0.397805 -1.341951 0.77937 -1.06066 1.06066 
C -0.77937 1.341951 -0.397805 1.5 0 1.5 
z
" id="m9ff36c45f1" style="stroke:#ff0000;"/>
    </defs>
    <g clip-path="url(#p0f05ca7315)">
     <use style="fill:#ff0000;stroke:#ff0000;" x="78.340767" xlink:href="#m9ff36c45f1" y="197.436329"/>
     <use style="fill:#ff0000;stroke:#ff0000;" x="89.036328" xlink:href="#m9ff36c45f1" y="196.20653"/>
     <use style="fill:#ff0000;stroke:#ff0000;" x="99.731889" xlink:href="#m9ff36c45f1" y="194.976724"/>
     <use style="fill:#ff0000;stroke:#ff0000;" x="110.427447" xlink:href="#m9ff36c45f1" y="193.746908"/>
     <use style="fill:#ff0000;stroke:#ff0000;" x="121.123007" xlink:href="#m9ff36c45f1" y="192.517085"/>
     <use style="fill:#ff0000;stroke:#ff0000;" x="131.818569" xlink:href="#m9ff36c45f1" y="191.287252"/>
     <use style="fill:#ff0000;stroke:#ff0000;" x="142.514129" xlink:href="#m9ff36c45f1" y="190.057404"/>
     <use style="fill:#ff0000;stroke:#ff0000;" x="153.209688" xlink:href="#m9ff36c45f1" y="188.827542"/>
     <use style="fill:#ff0000;stroke:#ff0000;" x="163.905251" xlink:href="#m9ff36c45f1" y="187.597648"/>
     <use style="fill:#ff0000;stroke:#ff0000;" x="174.600808" xlink:href="#m9ff36c45f1" y="186.367707"/>
     <use style="fill:#ff0000;stroke:#ff0000;" x="185.29637" xlink:href="#m9ff36c45f1" y="185.137693"/>
     <use style="fill:#ff0000;stroke:#ff0000;" x="195.991931" xlink:href="#m9ff36c45f1" y="183.907563"/>
     <use style="fill:#ff0000;stroke:#ff0000;" x="206.687491" xlink:href="#m9ff36c45f1" y="182.677249"/>
     <use style="fill:#ff0000;stroke:#ff0000;" x="217.383051" xlink:href="#m9ff36c45f1" y="181.446644"/>
     <use style="fill:#ff0000;stroke:#ff0000;" x="228.07861" xlink:href="#m9ff36c45f1" y="180.215575"/>
     <use style="fill:#ff0000;stroke:#ff0000;" x="238.77417" xlink:href="#m9ff36c45f1" y="178.983775"/>
     <use style="fill:#ff0000;stroke:#ff0000;" x="249.469733" xlink:href="#m9ff36c45f1" y="177.750812"/>
     <use style="fill:#ff0000;stroke:#ff0000;" x="260.165293" xlink:href="#m9ff36c45f1" y="176.516004"/>
     <use style="fill:#ff0000;stroke:#ff0000;" x="270.860851" xlink:href="#m9ff36c45f1" y="175.278267"/>
     <use style="fill:#ff0000;stroke:#ff0000;" x="281.556412" xlink:href="#m9ff36c45f1" y="174.035872"/>
     <use style="fill:#ff0000;stroke:#ff0000;" x="292.251972" xlink:href="#m9ff36c45f1" y="172.786061"/>
     <use style="fill:#ff0000;stroke:#ff0000;" x="302.947532" xlink:href="#m9ff36c45f1" y="171.524401"/>
     <use style="fill:#ff0000;stroke:#ff0000;" x="313.643093" xlink:href="#m9ff36c45f1" y="170.243728"/>
     <use style="fill:#ff0000;stroke:#ff0000;" x="324.338653" xlink:href="#m9ff36c45f1" y="168.932314"/>
     <use style="fill:#ff0000;stroke:#ff0000;" x="335.034214" xlink:href="#m9ff36c45f1" y="167.570592"/>
     <use style="fill:#ff0000;stroke:#ff0000;" x="345.729772" xlink:href="#m9ff36c45f1" y="166.124892"/>
     <use style="fill:#ff0000;stroke:#ff0000;" x="356.425335" xlink:href="#m9ff36c45f1" y="164.534225"/>
     <use style="fill:#ff0000;stroke:#ff0000;" x="367.120893" xlink:href="#m9ff36c45f1" y="162.678208"/>
     <use style="fill:#ff0000;stroke:#ff0000;" x="377.816454" xlink:href="#m9ff36c45f1" y="160.279696"/>
     <use style="fill:#ff0000;stroke:#ff0000;" x="388.512015" xlink:href="#m9ff36c45f1" y="156.468672"/>
     <use style="fill:#ff0000;stroke:#ff0000;" x="399.207575" xlink:href="#m9ff36c45f1" y="148.243497"/>
     <use style="fill:#ff0000;stroke:#ff0000;" x="409.903135" xlink:href="#m9ff36c45f1" y="156.719396"/>
     <use style="fill:#ff0000;stroke:#ff0000;" x="420.598695" xlink:href="#m9ff36c45f1" y="160.415929"/>
     <use style="fill:#ff0000;stroke:#ff0000;" x="431.294256" xlink:href="#m9ff36c45f1" y="162.776776"/>
     <use style="fill:#ff0000;stroke:#ff0000;" x="441.989817" xlink:href="#m9ff36c45f1" y="164.615553"/>
     <use style="fill:#ff0000;stroke:#ff0000;" x="452.685375" xlink:href="#m9ff36c45f1" y="166.197075"/>
     <use style="fill:#ff0000;stroke:#ff0000;" x="463.380937" xlink:href="#m9ff36c45f1" y="167.637506"/>
     <use style="fill:#ff0000;stroke:#ff0000;" x="474.076499" xlink:href="#m9ff36c45f1" y="168.995988"/>
     <use style="fill:#ff0000;stroke:#ff0000;" x="484.772055" xlink:href="#m9ff36c45f1" y="170.305254"/>
     <use style="fill:#ff0000;stroke:#ff0000;" x="495.467616" xlink:href="#m9ff36c45f1" y="171.584315"/>
     <use style="fill:#ff0000;stroke:#ff0000;" x="506.163177" xlink:href="#m9ff36c45f1" y="172.844517"/>
     <use style="fill:#ff0000;stroke:#ff0000;" x="516.858737" xlink:href="#m9ff36c45f1" y="174.092698"/>
     <use style="fill:#ff0000;stroke:#ff0000;" x="527.554297" xlink:href="#m9ff36c45f1" y="175.332934"/>
     <use style="fill:#ff0000;stroke:#ff0000;" x="538.249858" xlink:href="#m9ff36c45f1" y="176.567517"/>
    </g>
   </g>
   <g id="line2d_106">
    <path clip-path="url(#p0f05ca7315)" d="M 78.340767 234.486364 
L 89.036328 231.957567 
L 99.731889 229.454742 
L 110.427447 226.968032 
L 121.123007 224.49138 
L 131.818569 222.021015 
L 142.514129 219.554614 
L 153.209688 217.090685 
L 163.905251 214.628295 
L 174.600808 212.166848 
L 185.29637 209.705949 
L 195.991931 207.24533 
L 206.687491 204.784775 
L 217.383051 202.324085 
L 228.07861 199.863034 
L 238.77417 197.401308 
L 249.469733 194.938465 
L 260.165293 192.473798 
L 270.860851 190.006219 
L 281.556412 187.533992 
L 292.251972 185.054354 
L 302.947532 182.562872 
L 313.643093 180.052379 
L 324.338653 177.511147 
L 335.034214 174.919609 
L 345.729772 172.244092 
L 356.425335 169.423611 
L 367.120893 166.337778 
L 377.816454 162.709454 
L 388.512015 157.668619 
L 399.207575 148.213636 
L 409.903135 155.459731 
L 420.598695 157.926468 
L 431.294256 159.057529 
L 441.989817 159.666537 
L 452.685375 160.01832 
L 463.380937 160.229057 
L 474.076499 160.357917 
L 484.772055 160.437671 
L 495.467616 160.4874 
L 506.163177 160.518552 
L 516.858737 160.538134 
L 527.554297 160.550478 
L 538.249858 160.558293 
" style="fill:none;stroke:#008000;stroke-linecap:square;stroke-width:1.5;"/>
    <defs>
     <path d="M 0 1.5 
C 0.397805 1.5 0.77937 1.341951 1.06066 1.06066 
C 1.341951 0.77937 1.5 0.397805 1.5 0 
C 1.5 -0.397805 1.341951 -0.77937 1.06066 -1.06066 
C 0.77937 -1.341951 0.397805 -1.5 0 -1.5 
C -0.397805 -1.5 -0.77937 -1.341951 -1.06066 -1.06066 
C -1.341951 -0.77937 -1.5 -0.397805 -1.5 0 
C -1.5 0.397805 -1.341951 0.77937 -1.06066 1.06066 
C -0.77937 1.341951 -0.397805 1.5 0 1.5 
z
" id="mc3cd5e3933" style="stroke:#008000;"/>
    </defs>
    <g clip-path="url(#p0f05ca7315)">
     <use style="fill:#008000;stroke:#008000;" x="78.340767" xlink:href="#mc3cd5e3933" y="234.486364"/>
     <use style="fill:#008000;stroke:#008000;" x="89.036328" xlink:href="#mc3cd5e3933" y="231.957567"/>
     <use style="fill:#008000;stroke:#008000;" x="99.731889" xlink:href="#mc3cd5e3933" y="229.454742"/>
     <use style="fill:#008000;stroke:#008000;" x="110.427447" xlink:href="#mc3cd5e3933" y="226.968032"/>
     <use style="fill:#008000;stroke:#008000;" x="121.123007" xlink:href="#mc3cd5e3933" y="224.49138"/>
     <use style="fill:#008000;stroke:#008000;" x="131.818569" xlink:href="#mc3cd5e3933" y="222.021015"/>
     <use style="fill:#008000;stroke:#008000;" x="142.514129" xlink:href="#mc3cd5e3933" y="219.554614"/>
     <use style="fill:#008000;stroke:#008000;" x="153.209688" xlink:href="#mc3cd5e3933" y="217.090685"/>
     <use style="fill:#008000;stroke:#008000;" x="163.905251" xlink:href="#mc3cd5e3933" y="214.628295"/>
     <use style="fill:#008000;stroke:#008000;" x="174.600808" xlink:href="#mc3cd5e3933" y="212.166848"/>
     <use style="fill:#008000;stroke:#008000;" x="185.29637" xlink:href="#mc3cd5e3933" y="209.705949"/>
     <use style="fill:#008000;stroke:#008000;" x="195.991931" xlink:href="#mc3cd5e3933" y="207.24533"/>
     <use style="fill:#008000;stroke:#008000;" x="206.687491" xlink:href="#mc3cd5e3933" y="204.784775"/>
     <use style="fill:#008000;stroke:#008000;" x="217.383051" xlink:href="#mc3cd5e3933" y="202.324085"/>
     <use style="fill:#008000;stroke:#008000;" x="228.07861" xlink:href="#mc3cd5e3933" y="199.863034"/>
     <use style="fill:#008000;stroke:#008000;" x="238.77417" xlink:href="#mc3cd5e3933" y="197.401308"/>
     <use style="fill:#008000;stroke:#008000;" x="249.469733" xlink:href="#mc3cd5e3933" y="194.938465"/>
     <use style="fill:#008000;stroke:#008000;" x="260.165293" xlink:href="#mc3cd5e3933" y="192.473798"/>
     <use style="fill:#008000;stroke:#008000;" x="270.860851" xlink:href="#mc3cd5e3933" y="190.006219"/>
     <use style="fill:#008000;stroke:#008000;" x="281.556412" xlink:href="#mc3cd5e3933" y="187.533992"/>
     <use style="fill:#008000;stroke:#008000;" x="292.251972" xlink:href="#mc3cd5e3933" y="185.054354"/>
     <use style="fill:#008000;stroke:#008000;" x="302.947532" xlink:href="#mc3cd5e3933" y="182.562872"/>
     <use style="fill:#008000;stroke:#008000;" x="313.643093" xlink:href="#mc3cd5e3933" y="180.052379"/>
     <use style="fill:#008000;stroke:#008000;" x="324.338653" xlink:href="#mc3cd5e3933" y="177.511147"/>
     <use style="fill:#008000;stroke:#008000;" x="335.034214" xlink:href="#mc3cd5e3933" y="174.919609"/>
     <use style="fill:#008000;stroke:#008000;" x="345.729772" xlink:href="#mc3cd5e3933" y="172.244092"/>
     <use style="fill:#008000;stroke:#008000;" x="356.425335" xlink:href="#mc3cd5e3933" y="169.423611"/>
     <use style="fill:#008000;stroke:#008000;" x="367.120893" xlink:href="#mc3cd5e3933" y="166.337778"/>
     <use style="fill:#008000;stroke:#008000;" x="377.816454" xlink:href="#mc3cd5e3933" y="162.709454"/>
     <use style="fill:#008000;stroke:#008000;" x="388.512015" xlink:href="#mc3cd5e3933" y="157.668619"/>
     <use style="fill:#008000;stroke:#008000;" x="399.207575" xlink:href="#mc3cd5e3933" y="148.213636"/>
     <use style="fill:#008000;stroke:#008000;" x="409.903135" xlink:href="#mc3cd5e3933" y="155.459731"/>
     <use style="fill:#008000;stroke:#008000;" x="420.598695" xlink:href="#mc3cd5e3933" y="157.926468"/>
     <use style="fill:#008000;stroke:#008000;" x="431.294256" xlink:href="#mc3cd5e3933" y="159.057529"/>
     <use style="fill:#008000;stroke:#008000;" x="441.989817" xlink:href="#mc3cd5e3933" y="159.666537"/>
     <use style="fill:#008000;stroke:#008000;" x="452.685375" xlink:href="#mc3cd5e3933" y="160.01832"/>
     <use style="fill:#008000;stroke:#008000;" x="463.380937" xlink:href="#mc3cd5e3933" y="160.229057"/>
     <use style="fill:#008000;stroke:#008000;" x="474.076499" xlink:href="#mc3cd5e3933" y="160.357917"/>
     <use style="fill:#008000;stroke:#008000;" x="484.772055" xlink:href="#mc3cd5e3933" y="160.437671"/>
     <use style="fill:#008000;stroke:#008000;" x="495.467616" xlink:href="#mc3cd5e3933" y="160.4874"/>
     <use style="fill:#008000;stroke:#008000;" x="506.163177" xlink:href="#mc3cd5e3933" y="160.518552"/>
     <use style="fill:#008000;stroke:#008000;" x="516.858737" xlink:href="#mc3cd5e3933" y="160.538134"/>
     <use style="fill:#008000;stroke:#008000;" x="527.554297" xlink:href="#mc3cd5e3933" y="160.550478"/>
     <use style="fill:#008000;stroke:#008000;" x="538.249858" xlink:href="#mc3cd5e3933" y="160.558293"/>
    </g>
   </g>
   <g id="patch_8">
    <path d="M 55.345313 238.8 
L 55.345313 143.9 
" style="fill:none;stroke:#000000;stroke-linecap:square;stroke-linejoin:miter;stroke-width:0.8;"/>
   </g>
   <g id="patch_9">
    <path d="M 561.245312 238.8 
L 561.245312 143.9 
" style="fill:none;stroke:#000000;stroke-linecap:square;stroke-linejoin:miter;stroke-width:0.8;"/>
   </g>
   <g id="patch_10">
    <path d="M 55.345313 238.8 
L 561.245312 238.8 
" style="fill:none;stroke:#000000;stroke-linecap:square;stroke-linejoin:miter;stroke-width:0.8;"/>
   </g>
   <g id="patch_11">
    <path d="M 55.345313 143.9 
L 561.245312 143.9 
" style="fill:none;stroke:#000000;stroke-linecap:square;stroke-linejoin:miter;stroke-width:0.8;"/>
   </g>
  </g>
 </g>
 <defs>
  <clipPath id="p4c6e52a808">
   <rect height="94.9" width="505.9" x="55.345313" y="7.2"/>
  </clipPath>
  <clipPath id="p0f05ca7315">
   <rect height="94.9" width="505.9" x="55.345313" y="143.9"/>
  </clipPath>
 </defs>
</svg>
