<?xml version="1.0" encoding="utf-8" standalone="no"?>
<!DOCTYPE svg PUBLIC "-//W3C//DTD SVG 1.1//EN"
  "http://www.w3.org/Graphics/SVG/1.1/DTD/svg11.dtd">
<!-- Created with matplotlib (https://matplotlib.org/) -->
<svg height="276.35625pt" version="1.1" viewBox="0 0 568.457812 276.35625" width="568.457812pt" xmlns="http://www.w3.org/2000/svg" xmlns:xlink="http://www.w3.org/1999/xlink">
 <metadata>
  <rdf:RDF xmlns:cc="http://creativecommons.org/ns#" xmlns:dc="http://purl.org/dc/elements/1.1/" xmlns:rdf="http://www.w3.org/1999/02/22-rdf-syntax-ns#">
   <cc:Work>
    <dc:type rdf:resource="http://purl.org/dc/dcmitype/StillImage"/>
    <dc:date>2021-02-23T16:15:26.757349</dc:date>
    <dc:format>image/svg+xml</dc:format>
    <dc:creator>
     <cc:Agent>
      <dc:title>Matplotlib v3.3.4, https://matplotlib.org/</dc:title>
     </cc:Agent>
    </dc:creator>
   </cc:Work>
  </rdf:RDF>
 </metadata>
 <defs>
  <style type="text/css">*{stroke-linecap:butt;stroke-linejoin:round;}</style>
 </defs>
 <g id="figure_1">
  <g id="patch_1">
   <path d="M 0 276.35625 
L 568.457812 276.35625 
L 568.457812 0 
L 0 0 
z
" style="fill:none;"/>
  </g>
  <g id="axes_1">
   <g id="patch_2">
    <path d="M 48.982813 102.1 
L 561.257812 102.1 
L 561.257812 7.2 
L 48.982813 7.2 
z
" style="fill:#ffffff;"/>
   </g>
   <g id="matplotlib.axis_1">
    <g id="xtick_1">
     <g id="line2d_1">
      <defs>
       <path d="M 0 0 
L 0 3.5 
" id="md31a03ee9c" style="stroke:#000000;stroke-width:0.8;"/>
      </defs>
      <g>
       <use style="stroke:#000000;stroke-width:0.8;" x="72.26804" xlink:href="#md31a03ee9c" y="102.1"/>
      </g>
     </g>
     <g id="text_1">
      <!-- 0 -->
      <g transform="translate(69.08679 116.698437)scale(0.1 -0.1)">
       <defs>
        <path d="M 31.78125 66.40625 
Q 24.171875 66.40625 20.328125 58.90625 
Q 16.5 51.421875 16.5 36.375 
Q 16.5 21.390625 20.328125 13.890625 
Q 24.171875 6.390625 31.78125 6.390625 
Q 39.453125 6.390625 43.28125 13.890625 
Q 47.125 21.390625 47.125 36.375 
Q 47.125 51.421875 43.28125 58.90625 
Q 39.453125 66.40625 31.78125 66.40625 
z
M 31.78125 74.21875 
Q 44.046875 74.21875 50.515625 64.515625 
Q 56.984375 54.828125 56.984375 36.375 
Q 56.984375 17.96875 50.515625 8.265625 
Q 44.046875 -1.421875 31.78125 -1.421875 
Q 19.53125 -1.421875 13.0625 8.265625 
Q 6.59375 17.96875 6.59375 36.375 
Q 6.59375 54.828125 13.0625 64.515625 
Q 19.53125 74.21875 31.78125 74.21875 
z
" id="DejaVuSans-48"/>
       </defs>
       <use xlink:href="#DejaVuSans-48"/>
      </g>
     </g>
    </g>
    <g id="xtick_2">
     <g id="line2d_2">
      <g>
       <use style="stroke:#000000;stroke-width:0.8;" x="165.408949" xlink:href="#md31a03ee9c" y="102.1"/>
      </g>
     </g>
     <g id="text_2">
      <!-- 20 -->
      <g transform="translate(159.046449 116.698437)scale(0.1 -0.1)">
       <defs>
        <path d="M 19.1875 8.296875 
L 53.609375 8.296875 
L 53.609375 0 
L 7.328125 0 
L 7.328125 8.296875 
Q 12.9375 14.109375 22.625 23.890625 
Q 32.328125 33.6875 34.8125 36.53125 
Q 39.546875 41.84375 41.421875 45.53125 
Q 43.3125 49.21875 43.3125 52.78125 
Q 43.3125 58.59375 39.234375 62.25 
Q 35.15625 65.921875 28.609375 65.921875 
Q 23.96875 65.921875 18.8125 64.3125 
Q 13.671875 62.703125 7.8125 59.421875 
L 7.8125 69.390625 
Q 13.765625 71.78125 18.9375 73 
Q 24.125 74.21875 28.421875 74.21875 
Q 39.75 74.21875 46.484375 68.546875 
Q 53.21875 62.890625 53.21875 53.421875 
Q 53.21875 48.921875 51.53125 44.890625 
Q 49.859375 40.875 45.40625 35.40625 
Q 44.1875 33.984375 37.640625 27.21875 
Q 31.109375 20.453125 19.1875 8.296875 
z
" id="DejaVuSans-50"/>
       </defs>
       <use xlink:href="#DejaVuSans-50"/>
       <use x="63.623047" xlink:href="#DejaVuSans-48"/>
      </g>
     </g>
    </g>
    <g id="xtick_3">
     <g id="line2d_3">
      <g>
       <use style="stroke:#000000;stroke-width:0.8;" x="258.549858" xlink:href="#md31a03ee9c" y="102.1"/>
      </g>
     </g>
     <g id="text_3">
      <!-- 40 -->
      <g transform="translate(252.187358 116.698437)scale(0.1 -0.1)">
       <defs>
        <path d="M 37.796875 64.3125 
L 12.890625 25.390625 
L 37.796875 25.390625 
z
M 35.203125 72.90625 
L 47.609375 72.90625 
L 47.609375 25.390625 
L 58.015625 25.390625 
L 58.015625 17.1875 
L 47.609375 17.1875 
L 47.609375 0 
L 37.796875 0 
L 37.796875 17.1875 
L 4.890625 17.1875 
L 4.890625 26.703125 
z
" id="DejaVuSans-52"/>
       </defs>
       <use xlink:href="#DejaVuSans-52"/>
       <use x="63.623047" xlink:href="#DejaVuSans-48"/>
      </g>
     </g>
    </g>
    <g id="xtick_4">
     <g id="line2d_4">
      <g>
       <use style="stroke:#000000;stroke-width:0.8;" x="351.690767" xlink:href="#md31a03ee9c" y="102.1"/>
      </g>
     </g>
     <g id="text_4">
      <!-- 60 -->
      <g transform="translate(345.328267 116.698437)scale(0.1 -0.1)">
       <defs>
        <path d="M 33.015625 40.375 
Q 26.375 40.375 22.484375 35.828125 
Q 18.609375 31.296875 18.609375 23.390625 
Q 18.609375 15.53125 22.484375 10.953125 
Q 26.375 6.390625 33.015625 6.390625 
Q 39.65625 6.390625 43.53125 10.953125 
Q 47.40625 15.53125 47.40625 23.390625 
Q 47.40625 31.296875 43.53125 35.828125 
Q 39.65625 40.375 33.015625 40.375 
z
M 52.59375 71.296875 
L 52.59375 62.3125 
Q 48.875 64.0625 45.09375 64.984375 
Q 41.3125 65.921875 37.59375 65.921875 
Q 27.828125 65.921875 22.671875 59.328125 
Q 17.53125 52.734375 16.796875 39.40625 
Q 19.671875 43.65625 24.015625 45.921875 
Q 28.375 48.1875 33.59375 48.1875 
Q 44.578125 48.1875 50.953125 41.515625 
Q 57.328125 34.859375 57.328125 23.390625 
Q 57.328125 12.15625 50.6875 5.359375 
Q 44.046875 -1.421875 33.015625 -1.421875 
Q 20.359375 -1.421875 13.671875 8.265625 
Q 6.984375 17.96875 6.984375 36.375 
Q 6.984375 53.65625 15.1875 63.9375 
Q 23.390625 74.21875 37.203125 74.21875 
Q 40.921875 74.21875 44.703125 73.484375 
Q 48.484375 72.75 52.59375 71.296875 
z
" id="DejaVuSans-54"/>
       </defs>
       <use xlink:href="#DejaVuSans-54"/>
       <use x="63.623047" xlink:href="#DejaVuSans-48"/>
      </g>
     </g>
    </g>
    <g id="xtick_5">
     <g id="line2d_5">
      <g>
       <use style="stroke:#000000;stroke-width:0.8;" x="444.831676" xlink:href="#md31a03ee9c" y="102.1"/>
      </g>
     </g>
     <g id="text_5">
      <!-- 80 -->
      <g transform="translate(438.469176 116.698437)scale(0.1 -0.1)">
       <defs>
        <path d="M 31.78125 34.625 
Q 24.75 34.625 20.71875 30.859375 
Q 16.703125 27.09375 16.703125 20.515625 
Q 16.703125 13.921875 20.71875 10.15625 
Q 24.75 6.390625 31.78125 6.390625 
Q 38.8125 6.390625 42.859375 10.171875 
Q 46.921875 13.96875 46.921875 20.515625 
Q 46.921875 27.09375 42.890625 30.859375 
Q 38.875 34.625 31.78125 34.625 
z
M 21.921875 38.8125 
Q 15.578125 40.375 12.03125 44.71875 
Q 8.5 49.078125 8.5 55.328125 
Q 8.5 64.0625 14.71875 69.140625 
Q 20.953125 74.21875 31.78125 74.21875 
Q 42.671875 74.21875 48.875 69.140625 
Q 55.078125 64.0625 55.078125 55.328125 
Q 55.078125 49.078125 51.53125 44.71875 
Q 48 40.375 41.703125 38.8125 
Q 48.828125 37.15625 52.796875 32.3125 
Q 56.78125 27.484375 56.78125 20.515625 
Q 56.78125 9.90625 50.3125 4.234375 
Q 43.84375 -1.421875 31.78125 -1.421875 
Q 19.734375 -1.421875 13.25 4.234375 
Q 6.78125 9.90625 6.78125 20.515625 
Q 6.78125 27.484375 10.78125 32.3125 
Q 14.796875 37.15625 21.921875 38.8125 
z
M 18.3125 54.390625 
Q 18.3125 48.734375 21.84375 45.5625 
Q 25.390625 42.390625 31.78125 42.390625 
Q 38.140625 42.390625 41.71875 45.5625 
Q 45.3125 48.734375 45.3125 54.390625 
Q 45.3125 60.0625 41.71875 63.234375 
Q 38.140625 66.40625 31.78125 66.40625 
Q 25.390625 66.40625 21.84375 63.234375 
Q 18.3125 60.0625 18.3125 54.390625 
z
" id="DejaVuSans-56"/>
       </defs>
       <use xlink:href="#DejaVuSans-56"/>
       <use x="63.623047" xlink:href="#DejaVuSans-48"/>
      </g>
     </g>
    </g>
    <g id="xtick_6">
     <g id="line2d_6">
      <g>
       <use style="stroke:#000000;stroke-width:0.8;" x="537.972585" xlink:href="#md31a03ee9c" y="102.1"/>
      </g>
     </g>
     <g id="text_6">
      <!-- 100 -->
      <g transform="translate(528.428835 116.698437)scale(0.1 -0.1)">
       <defs>
        <path d="M 12.40625 8.296875 
L 28.515625 8.296875 
L 28.515625 63.921875 
L 10.984375 60.40625 
L 10.984375 69.390625 
L 28.421875 72.90625 
L 38.28125 72.90625 
L 38.28125 8.296875 
L 54.390625 8.296875 
L 54.390625 0 
L 12.40625 0 
z
" id="DejaVuSans-49"/>
       </defs>
       <use xlink:href="#DejaVuSans-49"/>
       <use x="63.623047" xlink:href="#DejaVuSans-48"/>
       <use x="127.246094" xlink:href="#DejaVuSans-48"/>
      </g>
     </g>
    </g>
    <g id="text_7">
     <!-- time (ms) -->
     <g transform="translate(280.858594 130.376562)scale(0.1 -0.1)">
      <defs>
       <path d="M 18.3125 70.21875 
L 18.3125 54.6875 
L 36.8125 54.6875 
L 36.8125 47.703125 
L 18.3125 47.703125 
L 18.3125 18.015625 
Q 18.3125 11.328125 20.140625 9.421875 
Q 21.96875 7.515625 27.59375 7.515625 
L 36.8125 7.515625 
L 36.8125 0 
L 27.59375 0 
Q 17.1875 0 13.234375 3.875 
Q 9.28125 7.765625 9.28125 18.015625 
L 9.28125 47.703125 
L 2.6875 47.703125 
L 2.6875 54.6875 
L 9.28125 54.6875 
L 9.28125 70.21875 
z
" id="DejaVuSans-116"/>
       <path d="M 9.421875 54.6875 
L 18.40625 54.6875 
L 18.40625 0 
L 9.421875 0 
z
M 9.421875 75.984375 
L 18.40625 75.984375 
L 18.40625 64.59375 
L 9.421875 64.59375 
z
" id="DejaVuSans-105"/>
       <path d="M 52 44.1875 
Q 55.375 50.25 60.0625 53.125 
Q 64.75 56 71.09375 56 
Q 79.640625 56 84.28125 50.015625 
Q 88.921875 44.046875 88.921875 33.015625 
L 88.921875 0 
L 79.890625 0 
L 79.890625 32.71875 
Q 79.890625 40.578125 77.09375 44.375 
Q 74.3125 48.1875 68.609375 48.1875 
Q 61.625 48.1875 57.5625 43.546875 
Q 53.515625 38.921875 53.515625 30.90625 
L 53.515625 0 
L 44.484375 0 
L 44.484375 32.71875 
Q 44.484375 40.625 41.703125 44.40625 
Q 38.921875 48.1875 33.109375 48.1875 
Q 26.21875 48.1875 22.15625 43.53125 
Q 18.109375 38.875 18.109375 30.90625 
L 18.109375 0 
L 9.078125 0 
L 9.078125 54.6875 
L 18.109375 54.6875 
L 18.109375 46.1875 
Q 21.1875 51.21875 25.484375 53.609375 
Q 29.78125 56 35.6875 56 
Q 41.65625 56 45.828125 52.96875 
Q 50 49.953125 52 44.1875 
z
" id="DejaVuSans-109"/>
       <path d="M 56.203125 29.59375 
L 56.203125 25.203125 
L 14.890625 25.203125 
Q 15.484375 15.921875 20.484375 11.0625 
Q 25.484375 6.203125 34.421875 6.203125 
Q 39.59375 6.203125 44.453125 7.46875 
Q 49.3125 8.734375 54.109375 11.28125 
L 54.109375 2.78125 
Q 49.265625 0.734375 44.1875 -0.34375 
Q 39.109375 -1.421875 33.890625 -1.421875 
Q 20.796875 -1.421875 13.15625 6.1875 
Q 5.515625 13.8125 5.515625 26.8125 
Q 5.515625 40.234375 12.765625 48.109375 
Q 20.015625 56 32.328125 56 
Q 43.359375 56 49.78125 48.890625 
Q 56.203125 41.796875 56.203125 29.59375 
z
M 47.21875 32.234375 
Q 47.125 39.59375 43.09375 43.984375 
Q 39.0625 48.390625 32.421875 48.390625 
Q 24.90625 48.390625 20.390625 44.140625 
Q 15.875 39.890625 15.1875 32.171875 
z
" id="DejaVuSans-101"/>
       <path id="DejaVuSans-32"/>
       <path d="M 31 75.875 
Q 24.46875 64.65625 21.28125 53.65625 
Q 18.109375 42.671875 18.109375 31.390625 
Q 18.109375 20.125 21.3125 9.0625 
Q 24.515625 -2 31 -13.1875 
L 23.1875 -13.1875 
Q 15.875 -1.703125 12.234375 9.375 
Q 8.59375 20.453125 8.59375 31.390625 
Q 8.59375 42.28125 12.203125 53.3125 
Q 15.828125 64.359375 23.1875 75.875 
z
" id="DejaVuSans-40"/>
       <path d="M 44.28125 53.078125 
L 44.28125 44.578125 
Q 40.484375 46.53125 36.375 47.5 
Q 32.28125 48.484375 27.875 48.484375 
Q 21.1875 48.484375 17.84375 46.4375 
Q 14.5 44.390625 14.5 40.28125 
Q 14.5 37.15625 16.890625 35.375 
Q 19.28125 33.59375 26.515625 31.984375 
L 29.59375 31.296875 
Q 39.15625 29.25 43.1875 25.515625 
Q 47.21875 21.78125 47.21875 15.09375 
Q 47.21875 7.46875 41.1875 3.015625 
Q 35.15625 -1.421875 24.609375 -1.421875 
Q 20.21875 -1.421875 15.453125 -0.5625 
Q 10.6875 0.296875 5.421875 2 
L 5.421875 11.28125 
Q 10.40625 8.6875 15.234375 7.390625 
Q 20.0625 6.109375 24.8125 6.109375 
Q 31.15625 6.109375 34.5625 8.28125 
Q 37.984375 10.453125 37.984375 14.40625 
Q 37.984375 18.0625 35.515625 20.015625 
Q 33.0625 21.96875 24.703125 23.78125 
L 21.578125 24.515625 
Q 13.234375 26.265625 9.515625 29.90625 
Q 5.8125 33.546875 5.8125 39.890625 
Q 5.8125 47.609375 11.28125 51.796875 
Q 16.75 56 26.8125 56 
Q 31.78125 56 36.171875 55.265625 
Q 40.578125 54.546875 44.28125 53.078125 
z
" id="DejaVuSans-115"/>
       <path d="M 8.015625 75.875 
L 15.828125 75.875 
Q 23.140625 64.359375 26.78125 53.3125 
Q 30.421875 42.28125 30.421875 31.390625 
Q 30.421875 20.453125 26.78125 9.375 
Q 23.140625 -1.703125 15.828125 -13.1875 
L 8.015625 -13.1875 
Q 14.5 -2 17.703125 9.0625 
Q 20.90625 20.125 20.90625 31.390625 
Q 20.90625 42.671875 17.703125 53.65625 
Q 14.5 64.65625 8.015625 75.875 
z
" id="DejaVuSans-41"/>
      </defs>
      <use xlink:href="#DejaVuSans-116"/>
      <use x="39.208984" xlink:href="#DejaVuSans-105"/>
      <use x="66.992188" xlink:href="#DejaVuSans-109"/>
      <use x="164.404297" xlink:href="#DejaVuSans-101"/>
      <use x="225.927734" xlink:href="#DejaVuSans-32"/>
      <use x="257.714844" xlink:href="#DejaVuSans-40"/>
      <use x="296.728516" xlink:href="#DejaVuSans-109"/>
      <use x="394.140625" xlink:href="#DejaVuSans-115"/>
      <use x="446.240234" xlink:href="#DejaVuSans-41"/>
     </g>
    </g>
   </g>
   <g id="matplotlib.axis_2">
    <g id="ytick_1">
     <g id="line2d_7">
      <defs>
       <path d="M 0 0 
L -3.5 0 
" id="mb59c0bf3e7" style="stroke:#000000;stroke-width:0.8;"/>
      </defs>
      <g>
       <use style="stroke:#000000;stroke-width:0.8;" x="48.982813" xlink:href="#mb59c0bf3e7" y="98.740175"/>
      </g>
     </g>
     <g id="text_8">
      <!-- 1.8 -->
      <g transform="translate(26.079688 102.539394)scale(0.1 -0.1)">
       <defs>
        <path d="M 10.6875 12.40625 
L 21 12.40625 
L 21 0 
L 10.6875 0 
z
" id="DejaVuSans-46"/>
       </defs>
       <use xlink:href="#DejaVuSans-49"/>
       <use x="63.623047" xlink:href="#DejaVuSans-46"/>
       <use x="95.410156" xlink:href="#DejaVuSans-56"/>
      </g>
     </g>
    </g>
    <g id="ytick_2">
     <g id="line2d_8">
      <g>
       <use style="stroke:#000000;stroke-width:0.8;" x="48.982813" xlink:href="#mb59c0bf3e7" y="71.040448"/>
      </g>
     </g>
     <g id="text_9">
      <!-- 2.0 -->
      <g transform="translate(26.079688 74.839667)scale(0.1 -0.1)">
       <use xlink:href="#DejaVuSans-50"/>
       <use x="63.623047" xlink:href="#DejaVuSans-46"/>
       <use x="95.410156" xlink:href="#DejaVuSans-48"/>
      </g>
     </g>
    </g>
    <g id="ytick_3">
     <g id="line2d_9">
      <g>
       <use style="stroke:#000000;stroke-width:0.8;" x="48.982813" xlink:href="#mb59c0bf3e7" y="43.340721"/>
      </g>
     </g>
     <g id="text_10">
      <!-- 2.2 -->
      <g transform="translate(26.079688 47.13994)scale(0.1 -0.1)">
       <use xlink:href="#DejaVuSans-50"/>
       <use x="63.623047" xlink:href="#DejaVuSans-46"/>
       <use x="95.410156" xlink:href="#DejaVuSans-50"/>
      </g>
     </g>
    </g>
    <g id="ytick_4">
     <g id="line2d_10">
      <g>
       <use style="stroke:#000000;stroke-width:0.8;" x="48.982813" xlink:href="#mb59c0bf3e7" y="15.640994"/>
      </g>
     </g>
     <g id="text_11">
      <!-- 2.4 -->
      <g transform="translate(26.079688 19.440213)scale(0.1 -0.1)">
       <use xlink:href="#DejaVuSans-50"/>
       <use x="63.623047" xlink:href="#DejaVuSans-46"/>
       <use x="95.410156" xlink:href="#DejaVuSans-52"/>
      </g>
     </g>
    </g>
    <g id="text_12">
     <!-- IN [V] -->
     <g transform="translate(20 68.776562)rotate(-90)scale(0.1 -0.1)">
      <defs>
       <path d="M 9.8125 72.90625 
L 19.671875 72.90625 
L 19.671875 0 
L 9.8125 0 
z
" id="DejaVuSans-73"/>
       <path d="M 9.8125 72.90625 
L 23.09375 72.90625 
L 55.421875 11.921875 
L 55.421875 72.90625 
L 64.984375 72.90625 
L 64.984375 0 
L 51.703125 0 
L 19.390625 60.984375 
L 19.390625 0 
L 9.8125 0 
z
" id="DejaVuSans-78"/>
       <path d="M 8.59375 75.984375 
L 29.296875 75.984375 
L 29.296875 69 
L 17.578125 69 
L 17.578125 -6.203125 
L 29.296875 -6.203125 
L 29.296875 -13.1875 
L 8.59375 -13.1875 
z
" id="DejaVuSans-91"/>
       <path d="M 28.609375 0 
L 0.78125 72.90625 
L 11.078125 72.90625 
L 34.1875 11.53125 
L 57.328125 72.90625 
L 67.578125 72.90625 
L 39.796875 0 
z
" id="DejaVuSans-86"/>
       <path d="M 30.421875 75.984375 
L 30.421875 -13.1875 
L 9.71875 -13.1875 
L 9.71875 -6.203125 
L 21.390625 -6.203125 
L 21.390625 69 
L 9.71875 69 
L 9.71875 75.984375 
z
" id="DejaVuSans-93"/>
      </defs>
      <use xlink:href="#DejaVuSans-73"/>
      <use x="29.492188" xlink:href="#DejaVuSans-78"/>
      <use x="104.296875" xlink:href="#DejaVuSans-32"/>
      <use x="136.083984" xlink:href="#DejaVuSans-91"/>
      <use x="175.097656" xlink:href="#DejaVuSans-86"/>
      <use x="243.505859" xlink:href="#DejaVuSans-93"/>
     </g>
    </g>
   </g>
   <g id="line2d_11">
    <path clip-path="url(#p79986bb035)" d="M 72.26804 56.974 
L 72.357828 56.94367 
L 72.371799 56.929496 
L 72.981872 56.459102 
L 73.838768 56.082043 
L 74.616495 55.97397 
L 75.440792 56.093431 
L 76.684223 56.533224 
L 79.338739 57.712468 
L 80.568199 58.594735 
L 82.053796 59.953575 
L 84.298492 62.345133 
L 92.569405 71.373119 
L 95.917821 74.595726 
L 99.107897 77.361045 
L 102.228117 79.774647 
L 105.315738 81.884636 
L 108.394045 83.721188 
L 111.481666 85.30571 
L 114.583259 86.648744 
L 117.71745 87.764215 
L 120.888898 88.657348 
L 124.111574 89.334001 
L 127.394791 89.796034 
L 130.752521 90.043503 
L 134.194077 90.073571 
L 137.738089 89.881057 
L 141.393869 89.458563 
L 145.180047 88.795821 
L 149.119908 87.878584 
L 153.232079 86.690849 
L 157.54916 85.210049 
L 162.113065 83.406452 
L 166.979677 81.24058 
L 172.251453 78.646581 
L 178.137958 75.495819 
L 185.281866 71.40667 
L 201.255532 62.165584 
L 205.083623 60.275942 
L 208.157273 58.99901 
L 210.863016 58.111142 
L 213.452334 57.495112 
L 218.030209 56.719911 
L 220.489129 56.467132 
L 222.184294 56.509648 
L 223.511552 56.756967 
L 224.377762 57.1249 
L 225.667764 57.83593 
L 227.199932 58.303556 
L 228.918382 58.601626 
L 230.65546 58.676522 
L 232.606762 58.530122 
L 235.228678 58.091437 
L 241.189696 56.802778 
L 243.12237 56.098908 
L 245.218041 55.091616 
L 247.700246 53.640092 
L 250.932236 51.475441 
L 255.90596 47.845797 
L 270.389371 37.163478 
L 276.527357 32.975084 
L 282.153068 29.40205 
L 287.476071 26.281718 
L 292.589507 23.539353 
L 297.544604 21.132084 
L 302.369303 19.033444 
L 307.08689 17.222037 
L 311.72065 15.679586 
L 316.284554 14.393703 
L 320.787917 13.354785 
L 325.249367 12.552816 
L 329.682874 11.98127 
L 334.097753 11.63597 
L 338.507975 11.513905 
L 342.927511 11.614174 
L 347.365676 11.937496 
L 351.836439 12.48636 
L 356.358431 13.266099 
L 360.94562 14.283614 
L 365.61198 15.547421 
L 370.380794 17.070602 
L 375.275349 18.869054 
L 380.318929 20.960942 
L 385.553449 23.374925 
L 391.030134 26.148158 
L 396.832813 29.339246 
L 403.11051 33.050121 
L 410.240446 37.531435 
L 420.271722 44.130119 
L 429.446102 50.085106 
L 433.89358 52.711132 
L 437.228025 54.431963 
L 439.99431 55.616959 
L 442.462544 56.436696 
L 444.823666 56.987301 
L 451.599667 58.12621 
L 454.058587 58.319836 
L 455.963319 58.252805 
L 457.551371 57.979937 
L 458.762203 57.559467 
L 459.470074 57.09929 
L 460.066176 56.774242 
L 461.300293 56.378049 
L 462.734663 56.139954 
L 464.17369 56.128825 
L 465.915425 56.352054 
L 470.120737 57.214203 
L 472.193122 57.794013 
L 474.181681 58.587409 
L 476.370492 59.708559 
L 479.025008 61.331074 
L 482.601619 63.797035 
L 488.68372 68.302471 
L 499.851315 76.562205 
L 506.282695 81.024001 
L 512.094688 84.789208 
L 517.566716 88.072371 
L 522.805892 90.959279 
L 527.872758 93.49955 
L 532.795255 95.720814 
L 537.605983 97.649393 
L 537.972585 97.786364 
L 537.972585 97.786364 
" style="fill:none;stroke:#ff0000;stroke-linecap:square;stroke-width:1.5;"/>
   </g>
   <g id="line2d_12">
    <path clip-path="url(#p79986bb035)" d="M 72.26804 56.974 
L 72.329885 56.970682 
L 72.371799 56.931944 
L 72.991186 56.467797 
L 75.617759 55.042695 
L 77.284982 54.332354 
L 87.856475 50.720031 
L 91.819621 49.761038 
L 96.374211 48.892976 
L 101.618044 48.124788 
L 107.625633 47.474164 
L 114.43889 46.964354 
L 122.071788 46.620016 
L 130.50104 46.465445 
L 139.652134 46.522494 
L 149.371388 46.807063 
L 159.425949 47.324447 
L 169.508453 48.0651 
L 179.292905 49.004737 
L 188.523169 50.111833 
L 197.213216 51.376478 
L 206.8859 53.022969 
L 218.94299 55.267757 
L 222.370576 56.256866 
L 224.149567 56.956489 
L 226.454805 58.102937 
L 231.428529 59.61318 
L 235.764239 60.77607 
L 239.517817 61.545546 
L 243.811613 62.482361 
L 257.46607 65.64116 
L 264.38644 66.922006 
L 272.023994 68.105399 
L 280.490503 69.188638 
L 289.762681 70.147969 
L 299.752043 70.955816 
L 310.323536 71.586144 
L 321.332792 72.018802 
L 332.635441 72.239909 
L 344.101087 72.241711 
L 355.613303 72.021395 
L 367.051007 71.580678 
L 378.279144 70.92664 
L 389.158002 70.07182 
L 399.519928 69.036877 
L 409.215896 67.847982 
L 418.166738 66.529636 
L 426.488878 65.081193 
L 435.272066 63.3178 
L 444.70724 61.449899 
L 449.015007 60.602987 
L 452.992124 59.582716 
L 456.950612 58.340242 
L 458.832059 57.560262 
L 461.188524 56.397126 
L 467.005174 54.716861 
L 470.190593 54.060392 
L 476.030528 52.823423 
L 484.687975 51.007757 
L 491.664229 49.79273 
L 499.441495 48.668894 
L 508.233997 47.627341 
L 518.046392 46.69231 
L 528.776224 45.89576 
L 537.972585 45.375919 
L 537.972585 45.375919 
" style="fill:none;stroke:#008000;stroke-linecap:square;stroke-width:1.5;"/>
   </g>
   <g id="line2d_13">
    <path clip-path="url(#p79986bb035)" d="M 72.26804 56.974 
L 72.315914 56.980898 
L 72.371799 56.933664 
L 72.902702 56.571329 
L 73.568659 56.400851 
L 74.402271 56.424771 
L 75.622416 56.706913 
L 77.955596 57.508566 
L 81.783688 58.837021 
L 84.447518 59.478435 
L 87.837847 60.054521 
L 92.336553 60.5818 
L 98.353455 61.051893 
L 106.349602 61.443038 
L 116.767413 61.720653 
L 129.793169 61.838299 
L 144.900625 61.749368 
L 160.520355 61.43722 
L 174.696401 60.938149 
L 186.325044 60.31518 
L 195.424911 59.614218 
L 202.680588 58.839327 
L 209.335506 57.902178 
L 217.885841 56.685824 
L 220.861693 56.512742 
L 222.71054 56.611818 
L 223.884116 56.881402 
L 224.536102 57.237108 
L 225.197402 57.626142 
L 226.27318 57.977875 
L 227.740149 58.216551 
L 229.584339 58.283085 
L 232.01066 58.134389 
L 235.550014 57.677144 
L 240.267601 56.838739 
L 246.698981 55.709832 
L 252.003356 55.029884 
L 258.611704 54.418032 
L 267.306407 53.847568 
L 278.80931 53.326223 
L 293.711855 52.882317 
L 312.116499 52.562868 
L 333.254828 52.421315 
L 355.468935 52.494294 
L 376.695748 52.782258 
L 395.160933 53.247858 
L 409.974995 53.834321 
L 421.26833 54.493594 
L 429.814009 55.205592 
L 436.659865 55.993198 
L 443.668719 57.035988 
L 449.620423 57.865884 
L 453.36003 58.164225 
L 455.842236 58.153559 
L 457.551371 57.93621 
L 458.72029 57.576831 
L 459.414189 57.149692 
L 459.963721 56.831559 
L 460.913758 56.560938 
L 462.227045 56.424922 
L 463.950152 56.481988 
L 466.572068 56.81434 
L 470.428102 57.534093 
L 477.655836 58.9255 
L 482.718045 59.628604 
L 489.019027 60.26861 
L 497.24337 60.869727 
L 508.043058 61.425827 
L 521.962967 61.910992 
L 537.972585 62.262432 
L 537.972585 62.262432 
" style="fill:none;stroke:#0000ff;stroke-linecap:square;stroke-width:1.5;"/>
   </g>
   <g id="patch_3">
    <path d="M 48.982813 102.1 
L 48.982813 7.2 
" style="fill:none;stroke:#000000;stroke-linecap:square;stroke-linejoin:miter;stroke-width:0.8;"/>
   </g>
   <g id="patch_4">
    <path d="M 561.257812 102.1 
L 561.257812 7.2 
" style="fill:none;stroke:#000000;stroke-linecap:square;stroke-linejoin:miter;stroke-width:0.8;"/>
   </g>
   <g id="patch_5">
    <path d="M 48.982813 102.1 
L 561.257812 102.1 
" style="fill:none;stroke:#000000;stroke-linecap:square;stroke-linejoin:miter;stroke-width:0.8;"/>
   </g>
   <g id="patch_6">
    <path d="M 48.982813 7.2 
L 561.257812 7.2 
" style="fill:none;stroke:#000000;stroke-linecap:square;stroke-linejoin:miter;stroke-width:0.8;"/>
   </g>
  </g>
  <g id="axes_2">
   <g id="patch_7">
    <path d="M 48.982813 238.8 
L 561.257812 238.8 
L 561.257812 143.9 
L 48.982813 143.9 
z
" style="fill:#ffffff;"/>
   </g>
   <g id="matplotlib.axis_3">
    <g id="xtick_7">
     <g id="line2d_14">
      <path clip-path="url(#p73436c915e)" d="M 72.26804 238.8 
L 72.26804 143.9 
" style="fill:none;stroke:#b0b0b0;stroke-linecap:square;stroke-width:0.8;"/>
     </g>
     <g id="line2d_15">
      <g>
       <use style="stroke:#000000;stroke-width:0.8;" x="72.26804" xlink:href="#md31a03ee9c" y="238.8"/>
      </g>
     </g>
     <g id="text_13">
      <!-- $\mathdefault{10^{0}}$ -->
      <g transform="translate(63.46804 253.398438)scale(0.1 -0.1)">
       <use transform="translate(0 0.765625)" xlink:href="#DejaVuSans-49"/>
       <use transform="translate(63.623047 0.765625)" xlink:href="#DejaVuSans-48"/>
       <use transform="translate(128.203125 39.046875)scale(0.7)" xlink:href="#DejaVuSans-48"/>
      </g>
     </g>
    </g>
    <g id="xtick_8">
     <g id="line2d_16">
      <path clip-path="url(#p73436c915e)" d="M 173.508158 238.8 
L 173.508158 143.9 
" style="fill:none;stroke:#b0b0b0;stroke-linecap:square;stroke-width:0.8;"/>
     </g>
     <g id="line2d_17">
      <g>
       <use style="stroke:#000000;stroke-width:0.8;" x="173.508158" xlink:href="#md31a03ee9c" y="238.8"/>
      </g>
     </g>
     <g id="text_14">
      <!-- $\mathdefault{10^{1}}$ -->
      <g transform="translate(164.708158 253.398438)scale(0.1 -0.1)">
       <use transform="translate(0 0.684375)" xlink:href="#DejaVuSans-49"/>
       <use transform="translate(63.623047 0.684375)" xlink:href="#DejaVuSans-48"/>
       <use transform="translate(128.203125 38.965625)scale(0.7)" xlink:href="#DejaVuSans-49"/>
      </g>
     </g>
    </g>
    <g id="xtick_9">
     <g id="line2d_18">
      <path clip-path="url(#p73436c915e)" d="M 274.748276 238.8 
L 274.748276 143.9 
" style="fill:none;stroke:#b0b0b0;stroke-linecap:square;stroke-width:0.8;"/>
     </g>
     <g id="line2d_19">
      <g>
       <use style="stroke:#000000;stroke-width:0.8;" x="274.748276" xlink:href="#md31a03ee9c" y="238.8"/>
      </g>
     </g>
     <g id="text_15">
      <!-- $\mathdefault{10^{2}}$ -->
      <g transform="translate(265.948276 253.398438)scale(0.1 -0.1)">
       <use transform="translate(0 0.765625)" xlink:href="#DejaVuSans-49"/>
       <use transform="translate(63.623047 0.765625)" xlink:href="#DejaVuSans-48"/>
       <use transform="translate(128.203125 39.046875)scale(0.7)" xlink:href="#DejaVuSans-50"/>
      </g>
     </g>
    </g>
    <g id="xtick_10">
     <g id="line2d_20">
      <path clip-path="url(#p73436c915e)" d="M 375.988394 238.8 
L 375.988394 143.9 
" style="fill:none;stroke:#b0b0b0;stroke-linecap:square;stroke-width:0.8;"/>
     </g>
     <g id="line2d_21">
      <g>
       <use style="stroke:#000000;stroke-width:0.8;" x="375.988394" xlink:href="#md31a03ee9c" y="238.8"/>
      </g>
     </g>
     <g id="text_16">
      <!-- $\mathdefault{10^{3}}$ -->
      <g transform="translate(367.188394 253.398438)scale(0.1 -0.1)">
       <defs>
        <path d="M 40.578125 39.3125 
Q 47.65625 37.796875 51.625 33 
Q 55.609375 28.21875 55.609375 21.1875 
Q 55.609375 10.40625 48.1875 4.484375 
Q 40.765625 -1.421875 27.09375 -1.421875 
Q 22.515625 -1.421875 17.65625 -0.515625 
Q 12.796875 0.390625 7.625 2.203125 
L 7.625 11.71875 
Q 11.71875 9.328125 16.59375 8.109375 
Q 21.484375 6.890625 26.8125 6.890625 
Q 36.078125 6.890625 40.9375 10.546875 
Q 45.796875 14.203125 45.796875 21.1875 
Q 45.796875 27.640625 41.28125 31.265625 
Q 36.765625 34.90625 28.71875 34.90625 
L 20.21875 34.90625 
L 20.21875 43.015625 
L 29.109375 43.015625 
Q 36.375 43.015625 40.234375 45.921875 
Q 44.09375 48.828125 44.09375 54.296875 
Q 44.09375 59.90625 40.109375 62.90625 
Q 36.140625 65.921875 28.71875 65.921875 
Q 24.65625 65.921875 20.015625 65.03125 
Q 15.375 64.15625 9.8125 62.3125 
L 9.8125 71.09375 
Q 15.4375 72.65625 20.34375 73.4375 
Q 25.25 74.21875 29.59375 74.21875 
Q 40.828125 74.21875 47.359375 69.109375 
Q 53.90625 64.015625 53.90625 55.328125 
Q 53.90625 49.265625 50.4375 45.09375 
Q 46.96875 40.921875 40.578125 39.3125 
z
" id="DejaVuSans-51"/>
       </defs>
       <use transform="translate(0 0.765625)" xlink:href="#DejaVuSans-49"/>
       <use transform="translate(63.623047 0.765625)" xlink:href="#DejaVuSans-48"/>
       <use transform="translate(128.203125 39.046875)scale(0.7)" xlink:href="#DejaVuSans-51"/>
      </g>
     </g>
    </g>
    <g id="xtick_11">
     <g id="line2d_22">
      <path clip-path="url(#p73436c915e)" d="M 477.228512 238.8 
L 477.228512 143.9 
" style="fill:none;stroke:#b0b0b0;stroke-linecap:square;stroke-width:0.8;"/>
     </g>
     <g id="line2d_23">
      <g>
       <use style="stroke:#000000;stroke-width:0.8;" x="477.228512" xlink:href="#md31a03ee9c" y="238.8"/>
      </g>
     </g>
     <g id="text_17">
      <!-- $\mathdefault{10^{4}}$ -->
      <g transform="translate(468.428512 253.398438)scale(0.1 -0.1)">
       <use transform="translate(0 0.684375)" xlink:href="#DejaVuSans-49"/>
       <use transform="translate(63.623047 0.684375)" xlink:href="#DejaVuSans-48"/>
       <use transform="translate(128.203125 38.965625)scale(0.7)" xlink:href="#DejaVuSans-52"/>
      </g>
     </g>
    </g>
    <g id="xtick_12">
     <g id="line2d_24">
      <path clip-path="url(#p73436c915e)" d="M 49.808046 238.8 
L 49.808046 143.9 
" style="fill:none;stroke:#b0b0b0;stroke-linecap:square;stroke-width:0.8;"/>
     </g>
     <g id="line2d_25">
      <defs>
       <path d="M 0 0 
L 0 2 
" id="m979b508f49" style="stroke:#000000;stroke-width:0.6;"/>
      </defs>
      <g>
       <use style="stroke:#000000;stroke-width:0.6;" x="49.808046" xlink:href="#m979b508f49" y="238.8"/>
      </g>
     </g>
    </g>
    <g id="xtick_13">
     <g id="line2d_26">
      <path clip-path="url(#p73436c915e)" d="M 56.585747 238.8 
L 56.585747 143.9 
" style="fill:none;stroke:#b0b0b0;stroke-linecap:square;stroke-width:0.8;"/>
     </g>
     <g id="line2d_27">
      <g>
       <use style="stroke:#000000;stroke-width:0.6;" x="56.585747" xlink:href="#m979b508f49" y="238.8"/>
      </g>
     </g>
    </g>
    <g id="xtick_14">
     <g id="line2d_28">
      <path clip-path="url(#p73436c915e)" d="M 62.456859 238.8 
L 62.456859 143.9 
" style="fill:none;stroke:#b0b0b0;stroke-linecap:square;stroke-width:0.8;"/>
     </g>
     <g id="line2d_29">
      <g>
       <use style="stroke:#000000;stroke-width:0.6;" x="62.456859" xlink:href="#m979b508f49" y="238.8"/>
      </g>
     </g>
    </g>
    <g id="xtick_15">
     <g id="line2d_30">
      <path clip-path="url(#p73436c915e)" d="M 67.635546 238.8 
L 67.635546 143.9 
" style="fill:none;stroke:#b0b0b0;stroke-linecap:square;stroke-width:0.8;"/>
     </g>
     <g id="line2d_31">
      <g>
       <use style="stroke:#000000;stroke-width:0.6;" x="67.635546" xlink:href="#m979b508f49" y="238.8"/>
      </g>
     </g>
    </g>
    <g id="xtick_16">
     <g id="line2d_32">
      <path clip-path="url(#p73436c915e)" d="M 102.744352 238.8 
L 102.744352 143.9 
" style="fill:none;stroke:#b0b0b0;stroke-linecap:square;stroke-width:0.8;"/>
     </g>
     <g id="line2d_33">
      <g>
       <use style="stroke:#000000;stroke-width:0.6;" x="102.744352" xlink:href="#m979b508f49" y="238.8"/>
      </g>
     </g>
    </g>
    <g id="xtick_17">
     <g id="line2d_34">
      <path clip-path="url(#p73436c915e)" d="M 120.571852 238.8 
L 120.571852 143.9 
" style="fill:none;stroke:#b0b0b0;stroke-linecap:square;stroke-width:0.8;"/>
     </g>
     <g id="line2d_35">
      <g>
       <use style="stroke:#000000;stroke-width:0.6;" x="120.571852" xlink:href="#m979b508f49" y="238.8"/>
      </g>
     </g>
    </g>
    <g id="xtick_18">
     <g id="line2d_36">
      <path clip-path="url(#p73436c915e)" d="M 133.220664 238.8 
L 133.220664 143.9 
" style="fill:none;stroke:#b0b0b0;stroke-linecap:square;stroke-width:0.8;"/>
     </g>
     <g id="line2d_37">
      <g>
       <use style="stroke:#000000;stroke-width:0.6;" x="133.220664" xlink:href="#m979b508f49" y="238.8"/>
      </g>
     </g>
    </g>
    <g id="xtick_19">
     <g id="line2d_38">
      <path clip-path="url(#p73436c915e)" d="M 143.031846 238.8 
L 143.031846 143.9 
" style="fill:none;stroke:#b0b0b0;stroke-linecap:square;stroke-width:0.8;"/>
     </g>
     <g id="line2d_39">
      <g>
       <use style="stroke:#000000;stroke-width:0.6;" x="143.031846" xlink:href="#m979b508f49" y="238.8"/>
      </g>
     </g>
    </g>
    <g id="xtick_20">
     <g id="line2d_40">
      <path clip-path="url(#p73436c915e)" d="M 151.048164 238.8 
L 151.048164 143.9 
" style="fill:none;stroke:#b0b0b0;stroke-linecap:square;stroke-width:0.8;"/>
     </g>
     <g id="line2d_41">
      <g>
       <use style="stroke:#000000;stroke-width:0.6;" x="151.048164" xlink:href="#m979b508f49" y="238.8"/>
      </g>
     </g>
    </g>
    <g id="xtick_21">
     <g id="line2d_42">
      <path clip-path="url(#p73436c915e)" d="M 157.825865 238.8 
L 157.825865 143.9 
" style="fill:none;stroke:#b0b0b0;stroke-linecap:square;stroke-width:0.8;"/>
     </g>
     <g id="line2d_43">
      <g>
       <use style="stroke:#000000;stroke-width:0.6;" x="157.825865" xlink:href="#m979b508f49" y="238.8"/>
      </g>
     </g>
    </g>
    <g id="xtick_22">
     <g id="line2d_44">
      <path clip-path="url(#p73436c915e)" d="M 163.696977 238.8 
L 163.696977 143.9 
" style="fill:none;stroke:#b0b0b0;stroke-linecap:square;stroke-width:0.8;"/>
     </g>
     <g id="line2d_45">
      <g>
       <use style="stroke:#000000;stroke-width:0.6;" x="163.696977" xlink:href="#m979b508f49" y="238.8"/>
      </g>
     </g>
    </g>
    <g id="xtick_23">
     <g id="line2d_46">
      <path clip-path="url(#p73436c915e)" d="M 168.875664 238.8 
L 168.875664 143.9 
" style="fill:none;stroke:#b0b0b0;stroke-linecap:square;stroke-width:0.8;"/>
     </g>
     <g id="line2d_47">
      <g>
       <use style="stroke:#000000;stroke-width:0.6;" x="168.875664" xlink:href="#m979b508f49" y="238.8"/>
      </g>
     </g>
    </g>
    <g id="xtick_24">
     <g id="line2d_48">
      <path clip-path="url(#p73436c915e)" d="M 203.98447 238.8 
L 203.98447 143.9 
" style="fill:none;stroke:#b0b0b0;stroke-linecap:square;stroke-width:0.8;"/>
     </g>
     <g id="line2d_49">
      <g>
       <use style="stroke:#000000;stroke-width:0.6;" x="203.98447" xlink:href="#m979b508f49" y="238.8"/>
      </g>
     </g>
    </g>
    <g id="xtick_25">
     <g id="line2d_50">
      <path clip-path="url(#p73436c915e)" d="M 221.81197 238.8 
L 221.81197 143.9 
" style="fill:none;stroke:#b0b0b0;stroke-linecap:square;stroke-width:0.8;"/>
     </g>
     <g id="line2d_51">
      <g>
       <use style="stroke:#000000;stroke-width:0.6;" x="221.81197" xlink:href="#m979b508f49" y="238.8"/>
      </g>
     </g>
    </g>
    <g id="xtick_26">
     <g id="line2d_52">
      <path clip-path="url(#p73436c915e)" d="M 234.460783 238.8 
L 234.460783 143.9 
" style="fill:none;stroke:#b0b0b0;stroke-linecap:square;stroke-width:0.8;"/>
     </g>
     <g id="line2d_53">
      <g>
       <use style="stroke:#000000;stroke-width:0.6;" x="234.460783" xlink:href="#m979b508f49" y="238.8"/>
      </g>
     </g>
    </g>
    <g id="xtick_27">
     <g id="line2d_54">
      <path clip-path="url(#p73436c915e)" d="M 244.271964 238.8 
L 244.271964 143.9 
" style="fill:none;stroke:#b0b0b0;stroke-linecap:square;stroke-width:0.8;"/>
     </g>
     <g id="line2d_55">
      <g>
       <use style="stroke:#000000;stroke-width:0.6;" x="244.271964" xlink:href="#m979b508f49" y="238.8"/>
      </g>
     </g>
    </g>
    <g id="xtick_28">
     <g id="line2d_56">
      <path clip-path="url(#p73436c915e)" d="M 252.288282 238.8 
L 252.288282 143.9 
" style="fill:none;stroke:#b0b0b0;stroke-linecap:square;stroke-width:0.8;"/>
     </g>
     <g id="line2d_57">
      <g>
       <use style="stroke:#000000;stroke-width:0.6;" x="252.288282" xlink:href="#m979b508f49" y="238.8"/>
      </g>
     </g>
    </g>
    <g id="xtick_29">
     <g id="line2d_58">
      <path clip-path="url(#p73436c915e)" d="M 259.065983 238.8 
L 259.065983 143.9 
" style="fill:none;stroke:#b0b0b0;stroke-linecap:square;stroke-width:0.8;"/>
     </g>
     <g id="line2d_59">
      <g>
       <use style="stroke:#000000;stroke-width:0.6;" x="259.065983" xlink:href="#m979b508f49" y="238.8"/>
      </g>
     </g>
    </g>
    <g id="xtick_30">
     <g id="line2d_60">
      <path clip-path="url(#p73436c915e)" d="M 264.937095 238.8 
L 264.937095 143.9 
" style="fill:none;stroke:#b0b0b0;stroke-linecap:square;stroke-width:0.8;"/>
     </g>
     <g id="line2d_61">
      <g>
       <use style="stroke:#000000;stroke-width:0.6;" x="264.937095" xlink:href="#m979b508f49" y="238.8"/>
      </g>
     </g>
    </g>
    <g id="xtick_31">
     <g id="line2d_62">
      <path clip-path="url(#p73436c915e)" d="M 270.115782 238.8 
L 270.115782 143.9 
" style="fill:none;stroke:#b0b0b0;stroke-linecap:square;stroke-width:0.8;"/>
     </g>
     <g id="line2d_63">
      <g>
       <use style="stroke:#000000;stroke-width:0.6;" x="270.115782" xlink:href="#m979b508f49" y="238.8"/>
      </g>
     </g>
    </g>
    <g id="xtick_32">
     <g id="line2d_64">
      <path clip-path="url(#p73436c915e)" d="M 305.224588 238.8 
L 305.224588 143.9 
" style="fill:none;stroke:#b0b0b0;stroke-linecap:square;stroke-width:0.8;"/>
     </g>
     <g id="line2d_65">
      <g>
       <use style="stroke:#000000;stroke-width:0.6;" x="305.224588" xlink:href="#m979b508f49" y="238.8"/>
      </g>
     </g>
    </g>
    <g id="xtick_33">
     <g id="line2d_66">
      <path clip-path="url(#p73436c915e)" d="M 323.052088 238.8 
L 323.052088 143.9 
" style="fill:none;stroke:#b0b0b0;stroke-linecap:square;stroke-width:0.8;"/>
     </g>
     <g id="line2d_67">
      <g>
       <use style="stroke:#000000;stroke-width:0.6;" x="323.052088" xlink:href="#m979b508f49" y="238.8"/>
      </g>
     </g>
    </g>
    <g id="xtick_34">
     <g id="line2d_68">
      <path clip-path="url(#p73436c915e)" d="M 335.700901 238.8 
L 335.700901 143.9 
" style="fill:none;stroke:#b0b0b0;stroke-linecap:square;stroke-width:0.8;"/>
     </g>
     <g id="line2d_69">
      <g>
       <use style="stroke:#000000;stroke-width:0.6;" x="335.700901" xlink:href="#m979b508f49" y="238.8"/>
      </g>
     </g>
    </g>
    <g id="xtick_35">
     <g id="line2d_70">
      <path clip-path="url(#p73436c915e)" d="M 345.512082 238.8 
L 345.512082 143.9 
" style="fill:none;stroke:#b0b0b0;stroke-linecap:square;stroke-width:0.8;"/>
     </g>
     <g id="line2d_71">
      <g>
       <use style="stroke:#000000;stroke-width:0.6;" x="345.512082" xlink:href="#m979b508f49" y="238.8"/>
      </g>
     </g>
    </g>
    <g id="xtick_36">
     <g id="line2d_72">
      <path clip-path="url(#p73436c915e)" d="M 353.528401 238.8 
L 353.528401 143.9 
" style="fill:none;stroke:#b0b0b0;stroke-linecap:square;stroke-width:0.8;"/>
     </g>
     <g id="line2d_73">
      <g>
       <use style="stroke:#000000;stroke-width:0.6;" x="353.528401" xlink:href="#m979b508f49" y="238.8"/>
      </g>
     </g>
    </g>
    <g id="xtick_37">
     <g id="line2d_74">
      <path clip-path="url(#p73436c915e)" d="M 360.306102 238.8 
L 360.306102 143.9 
" style="fill:none;stroke:#b0b0b0;stroke-linecap:square;stroke-width:0.8;"/>
     </g>
     <g id="line2d_75">
      <g>
       <use style="stroke:#000000;stroke-width:0.6;" x="360.306102" xlink:href="#m979b508f49" y="238.8"/>
      </g>
     </g>
    </g>
    <g id="xtick_38">
     <g id="line2d_76">
      <path clip-path="url(#p73436c915e)" d="M 366.177213 238.8 
L 366.177213 143.9 
" style="fill:none;stroke:#b0b0b0;stroke-linecap:square;stroke-width:0.8;"/>
     </g>
     <g id="line2d_77">
      <g>
       <use style="stroke:#000000;stroke-width:0.6;" x="366.177213" xlink:href="#m979b508f49" y="238.8"/>
      </g>
     </g>
    </g>
    <g id="xtick_39">
     <g id="line2d_78">
      <path clip-path="url(#p73436c915e)" d="M 371.355901 238.8 
L 371.355901 143.9 
" style="fill:none;stroke:#b0b0b0;stroke-linecap:square;stroke-width:0.8;"/>
     </g>
     <g id="line2d_79">
      <g>
       <use style="stroke:#000000;stroke-width:0.6;" x="371.355901" xlink:href="#m979b508f49" y="238.8"/>
      </g>
     </g>
    </g>
    <g id="xtick_40">
     <g id="line2d_80">
      <path clip-path="url(#p73436c915e)" d="M 406.464707 238.8 
L 406.464707 143.9 
" style="fill:none;stroke:#b0b0b0;stroke-linecap:square;stroke-width:0.8;"/>
     </g>
     <g id="line2d_81">
      <g>
       <use style="stroke:#000000;stroke-width:0.6;" x="406.464707" xlink:href="#m979b508f49" y="238.8"/>
      </g>
     </g>
    </g>
    <g id="xtick_41">
     <g id="line2d_82">
      <path clip-path="url(#p73436c915e)" d="M 424.292206 238.8 
L 424.292206 143.9 
" style="fill:none;stroke:#b0b0b0;stroke-linecap:square;stroke-width:0.8;"/>
     </g>
     <g id="line2d_83">
      <g>
       <use style="stroke:#000000;stroke-width:0.6;" x="424.292206" xlink:href="#m979b508f49" y="238.8"/>
      </g>
     </g>
    </g>
    <g id="xtick_42">
     <g id="line2d_84">
      <path clip-path="url(#p73436c915e)" d="M 436.941019 238.8 
L 436.941019 143.9 
" style="fill:none;stroke:#b0b0b0;stroke-linecap:square;stroke-width:0.8;"/>
     </g>
     <g id="line2d_85">
      <g>
       <use style="stroke:#000000;stroke-width:0.6;" x="436.941019" xlink:href="#m979b508f49" y="238.8"/>
      </g>
     </g>
    </g>
    <g id="xtick_43">
     <g id="line2d_86">
      <path clip-path="url(#p73436c915e)" d="M 446.7522 238.8 
L 446.7522 143.9 
" style="fill:none;stroke:#b0b0b0;stroke-linecap:square;stroke-width:0.8;"/>
     </g>
     <g id="line2d_87">
      <g>
       <use style="stroke:#000000;stroke-width:0.6;" x="446.7522" xlink:href="#m979b508f49" y="238.8"/>
      </g>
     </g>
    </g>
    <g id="xtick_44">
     <g id="line2d_88">
      <path clip-path="url(#p73436c915e)" d="M 454.768519 238.8 
L 454.768519 143.9 
" style="fill:none;stroke:#b0b0b0;stroke-linecap:square;stroke-width:0.8;"/>
     </g>
     <g id="line2d_89">
      <g>
       <use style="stroke:#000000;stroke-width:0.6;" x="454.768519" xlink:href="#m979b508f49" y="238.8"/>
      </g>
     </g>
    </g>
    <g id="xtick_45">
     <g id="line2d_90">
      <path clip-path="url(#p73436c915e)" d="M 461.54622 238.8 
L 461.54622 143.9 
" style="fill:none;stroke:#b0b0b0;stroke-linecap:square;stroke-width:0.8;"/>
     </g>
     <g id="line2d_91">
      <g>
       <use style="stroke:#000000;stroke-width:0.6;" x="461.54622" xlink:href="#m979b508f49" y="238.8"/>
      </g>
     </g>
    </g>
    <g id="xtick_46">
     <g id="line2d_92">
      <path clip-path="url(#p73436c915e)" d="M 467.417331 238.8 
L 467.417331 143.9 
" style="fill:none;stroke:#b0b0b0;stroke-linecap:square;stroke-width:0.8;"/>
     </g>
     <g id="line2d_93">
      <g>
       <use style="stroke:#000000;stroke-width:0.6;" x="467.417331" xlink:href="#m979b508f49" y="238.8"/>
      </g>
     </g>
    </g>
    <g id="xtick_47">
     <g id="line2d_94">
      <path clip-path="url(#p73436c915e)" d="M 472.596019 238.8 
L 472.596019 143.9 
" style="fill:none;stroke:#b0b0b0;stroke-linecap:square;stroke-width:0.8;"/>
     </g>
     <g id="line2d_95">
      <g>
       <use style="stroke:#000000;stroke-width:0.6;" x="472.596019" xlink:href="#m979b508f49" y="238.8"/>
      </g>
     </g>
    </g>
    <g id="xtick_48">
     <g id="line2d_96">
      <path clip-path="url(#p73436c915e)" d="M 507.704825 238.8 
L 507.704825 143.9 
" style="fill:none;stroke:#b0b0b0;stroke-linecap:square;stroke-width:0.8;"/>
     </g>
     <g id="line2d_97">
      <g>
       <use style="stroke:#000000;stroke-width:0.6;" x="507.704825" xlink:href="#m979b508f49" y="238.8"/>
      </g>
     </g>
    </g>
    <g id="xtick_49">
     <g id="line2d_98">
      <path clip-path="url(#p73436c915e)" d="M 525.532325 238.8 
L 525.532325 143.9 
" style="fill:none;stroke:#b0b0b0;stroke-linecap:square;stroke-width:0.8;"/>
     </g>
     <g id="line2d_99">
      <g>
       <use style="stroke:#000000;stroke-width:0.6;" x="525.532325" xlink:href="#m979b508f49" y="238.8"/>
      </g>
     </g>
    </g>
    <g id="xtick_50">
     <g id="line2d_100">
      <path clip-path="url(#p73436c915e)" d="M 538.181137 238.8 
L 538.181137 143.9 
" style="fill:none;stroke:#b0b0b0;stroke-linecap:square;stroke-width:0.8;"/>
     </g>
     <g id="line2d_101">
      <g>
       <use style="stroke:#000000;stroke-width:0.6;" x="538.181137" xlink:href="#m979b508f49" y="238.8"/>
      </g>
     </g>
    </g>
    <g id="xtick_51">
     <g id="line2d_102">
      <path clip-path="url(#p73436c915e)" d="M 547.992318 238.8 
L 547.992318 143.9 
" style="fill:none;stroke:#b0b0b0;stroke-linecap:square;stroke-width:0.8;"/>
     </g>
     <g id="line2d_103">
      <g>
       <use style="stroke:#000000;stroke-width:0.6;" x="547.992318" xlink:href="#m979b508f49" y="238.8"/>
      </g>
     </g>
    </g>
    <g id="xtick_52">
     <g id="line2d_104">
      <path clip-path="url(#p73436c915e)" d="M 556.008637 238.8 
L 556.008637 143.9 
" style="fill:none;stroke:#b0b0b0;stroke-linecap:square;stroke-width:0.8;"/>
     </g>
     <g id="line2d_105">
      <g>
       <use style="stroke:#000000;stroke-width:0.6;" x="556.008637" xlink:href="#m979b508f49" y="238.8"/>
      </g>
     </g>
    </g>
    <g id="text_18">
     <!-- Frequency [Hz] -->
     <g transform="translate(267.415625 267.076562)scale(0.1 -0.1)">
      <defs>
       <path d="M 9.8125 72.90625 
L 51.703125 72.90625 
L 51.703125 64.59375 
L 19.671875 64.59375 
L 19.671875 43.109375 
L 48.578125 43.109375 
L 48.578125 34.8125 
L 19.671875 34.8125 
L 19.671875 0 
L 9.8125 0 
z
" id="DejaVuSans-70"/>
       <path d="M 41.109375 46.296875 
Q 39.59375 47.171875 37.8125 47.578125 
Q 36.03125 48 33.890625 48 
Q 26.265625 48 22.1875 43.046875 
Q 18.109375 38.09375 18.109375 28.8125 
L 18.109375 0 
L 9.078125 0 
L 9.078125 54.6875 
L 18.109375 54.6875 
L 18.109375 46.1875 
Q 20.953125 51.171875 25.484375 53.578125 
Q 30.03125 56 36.53125 56 
Q 37.453125 56 38.578125 55.875 
Q 39.703125 55.765625 41.0625 55.515625 
z
" id="DejaVuSans-114"/>
       <path d="M 14.796875 27.296875 
Q 14.796875 17.390625 18.875 11.75 
Q 22.953125 6.109375 30.078125 6.109375 
Q 37.203125 6.109375 41.296875 11.75 
Q 45.40625 17.390625 45.40625 27.296875 
Q 45.40625 37.203125 41.296875 42.84375 
Q 37.203125 48.484375 30.078125 48.484375 
Q 22.953125 48.484375 18.875 42.84375 
Q 14.796875 37.203125 14.796875 27.296875 
z
M 45.40625 8.203125 
Q 42.578125 3.328125 38.25 0.953125 
Q 33.9375 -1.421875 27.875 -1.421875 
Q 17.96875 -1.421875 11.734375 6.484375 
Q 5.515625 14.40625 5.515625 27.296875 
Q 5.515625 40.1875 11.734375 48.09375 
Q 17.96875 56 27.875 56 
Q 33.9375 56 38.25 53.625 
Q 42.578125 51.265625 45.40625 46.390625 
L 45.40625 54.6875 
L 54.390625 54.6875 
L 54.390625 -20.796875 
L 45.40625 -20.796875 
z
" id="DejaVuSans-113"/>
       <path d="M 8.5 21.578125 
L 8.5 54.6875 
L 17.484375 54.6875 
L 17.484375 21.921875 
Q 17.484375 14.15625 20.5 10.265625 
Q 23.53125 6.390625 29.59375 6.390625 
Q 36.859375 6.390625 41.078125 11.03125 
Q 45.3125 15.671875 45.3125 23.6875 
L 45.3125 54.6875 
L 54.296875 54.6875 
L 54.296875 0 
L 45.3125 0 
L 45.3125 8.40625 
Q 42.046875 3.421875 37.71875 1 
Q 33.40625 -1.421875 27.6875 -1.421875 
Q 18.265625 -1.421875 13.375 4.4375 
Q 8.5 10.296875 8.5 21.578125 
z
M 31.109375 56 
z
" id="DejaVuSans-117"/>
       <path d="M 54.890625 33.015625 
L 54.890625 0 
L 45.90625 0 
L 45.90625 32.71875 
Q 45.90625 40.484375 42.875 44.328125 
Q 39.84375 48.1875 33.796875 48.1875 
Q 26.515625 48.1875 22.3125 43.546875 
Q 18.109375 38.921875 18.109375 30.90625 
L 18.109375 0 
L 9.078125 0 
L 9.078125 54.6875 
L 18.109375 54.6875 
L 18.109375 46.1875 
Q 21.34375 51.125 25.703125 53.5625 
Q 30.078125 56 35.796875 56 
Q 45.21875 56 50.046875 50.171875 
Q 54.890625 44.34375 54.890625 33.015625 
z
" id="DejaVuSans-110"/>
       <path d="M 48.78125 52.59375 
L 48.78125 44.1875 
Q 44.96875 46.296875 41.140625 47.34375 
Q 37.3125 48.390625 33.40625 48.390625 
Q 24.65625 48.390625 19.8125 42.84375 
Q 14.984375 37.3125 14.984375 27.296875 
Q 14.984375 17.28125 19.8125 11.734375 
Q 24.65625 6.203125 33.40625 6.203125 
Q 37.3125 6.203125 41.140625 7.25 
Q 44.96875 8.296875 48.78125 10.40625 
L 48.78125 2.09375 
Q 45.015625 0.34375 40.984375 -0.53125 
Q 36.96875 -1.421875 32.421875 -1.421875 
Q 20.0625 -1.421875 12.78125 6.34375 
Q 5.515625 14.109375 5.515625 27.296875 
Q 5.515625 40.671875 12.859375 48.328125 
Q 20.21875 56 33.015625 56 
Q 37.15625 56 41.109375 55.140625 
Q 45.0625 54.296875 48.78125 52.59375 
z
" id="DejaVuSans-99"/>
       <path d="M 32.171875 -5.078125 
Q 28.375 -14.84375 24.75 -17.8125 
Q 21.140625 -20.796875 15.09375 -20.796875 
L 7.90625 -20.796875 
L 7.90625 -13.28125 
L 13.1875 -13.28125 
Q 16.890625 -13.28125 18.9375 -11.515625 
Q 21 -9.765625 23.484375 -3.21875 
L 25.09375 0.875 
L 2.984375 54.6875 
L 12.5 54.6875 
L 29.59375 11.921875 
L 46.6875 54.6875 
L 56.203125 54.6875 
z
" id="DejaVuSans-121"/>
       <path d="M 9.8125 72.90625 
L 19.671875 72.90625 
L 19.671875 43.015625 
L 55.515625 43.015625 
L 55.515625 72.90625 
L 65.375 72.90625 
L 65.375 0 
L 55.515625 0 
L 55.515625 34.71875 
L 19.671875 34.71875 
L 19.671875 0 
L 9.8125 0 
z
" id="DejaVuSans-72"/>
       <path d="M 5.515625 54.6875 
L 48.1875 54.6875 
L 48.1875 46.484375 
L 14.40625 7.171875 
L 48.1875 7.171875 
L 48.1875 0 
L 4.296875 0 
L 4.296875 8.203125 
L 38.09375 47.515625 
L 5.515625 47.515625 
z
" id="DejaVuSans-122"/>
      </defs>
      <use xlink:href="#DejaVuSans-70"/>
      <use x="50.269531" xlink:href="#DejaVuSans-114"/>
      <use x="89.132812" xlink:href="#DejaVuSans-101"/>
      <use x="150.65625" xlink:href="#DejaVuSans-113"/>
      <use x="214.132812" xlink:href="#DejaVuSans-117"/>
      <use x="277.511719" xlink:href="#DejaVuSans-101"/>
      <use x="339.035156" xlink:href="#DejaVuSans-110"/>
      <use x="402.414062" xlink:href="#DejaVuSans-99"/>
      <use x="457.394531" xlink:href="#DejaVuSans-121"/>
      <use x="516.574219" xlink:href="#DejaVuSans-32"/>
      <use x="548.361328" xlink:href="#DejaVuSans-91"/>
      <use x="587.375" xlink:href="#DejaVuSans-72"/>
      <use x="662.570312" xlink:href="#DejaVuSans-122"/>
      <use x="715.060547" xlink:href="#DejaVuSans-93"/>
     </g>
    </g>
   </g>
   <g id="matplotlib.axis_4">
    <g id="ytick_5">
     <g id="line2d_106">
      <path clip-path="url(#p73436c915e)" d="M 48.982813 231.581032 
L 561.257812 231.581032 
" style="fill:none;stroke:#b0b0b0;stroke-linecap:square;stroke-width:0.8;"/>
     </g>
     <g id="line2d_107">
      <g>
       <use style="stroke:#000000;stroke-width:0.8;" x="48.982813" xlink:href="#mb59c0bf3e7" y="231.581032"/>
      </g>
     </g>
     <g id="text_19">
      <!-- 20 -->
      <g transform="translate(20.878125 235.380251)scale(0.1 -0.1)">
       <defs>
        <path d="M 10.59375 35.5 
L 73.1875 35.5 
L 73.1875 27.203125 
L 10.59375 27.203125 
z
" id="DejaVuSans-8722"/>
       </defs>
       <use xlink:href="#DejaVuSans-8722"/>
       <use x="83.789062" xlink:href="#DejaVuSans-50"/>
       <use x="147.412109" xlink:href="#DejaVuSans-48"/>
      </g>
     </g>
    </g>
    <g id="ytick_6">
     <g id="line2d_108">
      <path clip-path="url(#p73436c915e)" d="M 48.982813 205.261261 
L 561.257812 205.261261 
" style="fill:none;stroke:#b0b0b0;stroke-linecap:square;stroke-width:0.8;"/>
     </g>
     <g id="line2d_109">
      <g>
       <use style="stroke:#000000;stroke-width:0.8;" x="48.982813" xlink:href="#mb59c0bf3e7" y="205.261261"/>
      </g>
     </g>
     <g id="text_20">
      <!-- 15 -->
      <g transform="translate(20.878125 209.06048)scale(0.1 -0.1)">
       <defs>
        <path d="M 10.796875 72.90625 
L 49.515625 72.90625 
L 49.515625 64.59375 
L 19.828125 64.59375 
L 19.828125 46.734375 
Q 21.96875 47.46875 24.109375 47.828125 
Q 26.265625 48.1875 28.421875 48.1875 
Q 40.625 48.1875 47.75 41.5 
Q 54.890625 34.8125 54.890625 23.390625 
Q 54.890625 11.625 47.5625 5.09375 
Q 40.234375 -1.421875 26.90625 -1.421875 
Q 22.3125 -1.421875 17.546875 -0.640625 
Q 12.796875 0.140625 7.71875 1.703125 
L 7.71875 11.625 
Q 12.109375 9.234375 16.796875 8.0625 
Q 21.484375 6.890625 26.703125 6.890625 
Q 35.15625 6.890625 40.078125 11.328125 
Q 45.015625 15.765625 45.015625 23.390625 
Q 45.015625 31 40.078125 35.4375 
Q 35.15625 39.890625 26.703125 39.890625 
Q 22.75 39.890625 18.8125 39.015625 
Q 14.890625 38.140625 10.796875 36.28125 
z
" id="DejaVuSans-53"/>
       </defs>
       <use xlink:href="#DejaVuSans-8722"/>
       <use x="83.789062" xlink:href="#DejaVuSans-49"/>
       <use x="147.412109" xlink:href="#DejaVuSans-53"/>
      </g>
     </g>
    </g>
    <g id="ytick_7">
     <g id="line2d_110">
      <path clip-path="url(#p73436c915e)" d="M 48.982813 178.94149 
L 561.257812 178.94149 
" style="fill:none;stroke:#b0b0b0;stroke-linecap:square;stroke-width:0.8;"/>
     </g>
     <g id="line2d_111">
      <g>
       <use style="stroke:#000000;stroke-width:0.8;" x="48.982813" xlink:href="#mb59c0bf3e7" y="178.94149"/>
      </g>
     </g>
     <g id="text_21">
      <!-- 10 -->
      <g transform="translate(20.878125 182.740709)scale(0.1 -0.1)">
       <use xlink:href="#DejaVuSans-8722"/>
       <use x="83.789062" xlink:href="#DejaVuSans-49"/>
       <use x="147.412109" xlink:href="#DejaVuSans-48"/>
      </g>
     </g>
    </g>
    <g id="ytick_8">
     <g id="line2d_112">
      <path clip-path="url(#p73436c915e)" d="M 48.982813 152.621719 
L 561.257812 152.621719 
" style="fill:none;stroke:#b0b0b0;stroke-linecap:square;stroke-width:0.8;"/>
     </g>
     <g id="line2d_113">
      <g>
       <use style="stroke:#000000;stroke-width:0.8;" x="48.982813" xlink:href="#mb59c0bf3e7" y="152.621719"/>
      </g>
     </g>
     <g id="text_22">
      <!-- 5 -->
      <g transform="translate(27.240625 156.420938)scale(0.1 -0.1)">
       <use xlink:href="#DejaVuSans-8722"/>
       <use x="83.789062" xlink:href="#DejaVuSans-53"/>
      </g>
     </g>
    </g>
    <g id="text_23">
     <!-- Gain [dB] -->
     <g transform="translate(14.798438 214.941406)rotate(-90)scale(0.1 -0.1)">
      <defs>
       <path d="M 59.515625 10.40625 
L 59.515625 29.984375 
L 43.40625 29.984375 
L 43.40625 38.09375 
L 69.28125 38.09375 
L 69.28125 6.78125 
Q 63.578125 2.734375 56.6875 0.65625 
Q 49.8125 -1.421875 42 -1.421875 
Q 24.90625 -1.421875 15.25 8.5625 
Q 5.609375 18.5625 5.609375 36.375 
Q 5.609375 54.25 15.25 64.234375 
Q 24.90625 74.21875 42 74.21875 
Q 49.125 74.21875 55.546875 72.453125 
Q 61.96875 70.703125 67.390625 67.28125 
L 67.390625 56.78125 
Q 61.921875 61.421875 55.765625 63.765625 
Q 49.609375 66.109375 42.828125 66.109375 
Q 29.4375 66.109375 22.71875 58.640625 
Q 16.015625 51.171875 16.015625 36.375 
Q 16.015625 21.625 22.71875 14.15625 
Q 29.4375 6.6875 42.828125 6.6875 
Q 48.046875 6.6875 52.140625 7.59375 
Q 56.25 8.5 59.515625 10.40625 
z
" id="DejaVuSans-71"/>
       <path d="M 34.28125 27.484375 
Q 23.390625 27.484375 19.1875 25 
Q 14.984375 22.515625 14.984375 16.5 
Q 14.984375 11.71875 18.140625 8.90625 
Q 21.296875 6.109375 26.703125 6.109375 
Q 34.1875 6.109375 38.703125 11.40625 
Q 43.21875 16.703125 43.21875 25.484375 
L 43.21875 27.484375 
z
M 52.203125 31.203125 
L 52.203125 0 
L 43.21875 0 
L 43.21875 8.296875 
Q 40.140625 3.328125 35.546875 0.953125 
Q 30.953125 -1.421875 24.3125 -1.421875 
Q 15.921875 -1.421875 10.953125 3.296875 
Q 6 8.015625 6 15.921875 
Q 6 25.140625 12.171875 29.828125 
Q 18.359375 34.515625 30.609375 34.515625 
L 43.21875 34.515625 
L 43.21875 35.40625 
Q 43.21875 41.609375 39.140625 45 
Q 35.0625 48.390625 27.6875 48.390625 
Q 23 48.390625 18.546875 47.265625 
Q 14.109375 46.140625 10.015625 43.890625 
L 10.015625 52.203125 
Q 14.9375 54.109375 19.578125 55.046875 
Q 24.21875 56 28.609375 56 
Q 40.484375 56 46.34375 49.84375 
Q 52.203125 43.703125 52.203125 31.203125 
z
" id="DejaVuSans-97"/>
       <path d="M 45.40625 46.390625 
L 45.40625 75.984375 
L 54.390625 75.984375 
L 54.390625 0 
L 45.40625 0 
L 45.40625 8.203125 
Q 42.578125 3.328125 38.25 0.953125 
Q 33.9375 -1.421875 27.875 -1.421875 
Q 17.96875 -1.421875 11.734375 6.484375 
Q 5.515625 14.40625 5.515625 27.296875 
Q 5.515625 40.1875 11.734375 48.09375 
Q 17.96875 56 27.875 56 
Q 33.9375 56 38.25 53.625 
Q 42.578125 51.265625 45.40625 46.390625 
z
M 14.796875 27.296875 
Q 14.796875 17.390625 18.875 11.75 
Q 22.953125 6.109375 30.078125 6.109375 
Q 37.203125 6.109375 41.296875 11.75 
Q 45.40625 17.390625 45.40625 27.296875 
Q 45.40625 37.203125 41.296875 42.84375 
Q 37.203125 48.484375 30.078125 48.484375 
Q 22.953125 48.484375 18.875 42.84375 
Q 14.796875 37.203125 14.796875 27.296875 
z
" id="DejaVuSans-100"/>
       <path d="M 19.671875 34.8125 
L 19.671875 8.109375 
L 35.5 8.109375 
Q 43.453125 8.109375 47.28125 11.40625 
Q 51.125 14.703125 51.125 21.484375 
Q 51.125 28.328125 47.28125 31.5625 
Q 43.453125 34.8125 35.5 34.8125 
z
M 19.671875 64.796875 
L 19.671875 42.828125 
L 34.28125 42.828125 
Q 41.5 42.828125 45.03125 45.53125 
Q 48.578125 48.25 48.578125 53.8125 
Q 48.578125 59.328125 45.03125 62.0625 
Q 41.5 64.796875 34.28125 64.796875 
z
M 9.8125 72.90625 
L 35.015625 72.90625 
Q 46.296875 72.90625 52.390625 68.21875 
Q 58.5 63.53125 58.5 54.890625 
Q 58.5 48.1875 55.375 44.234375 
Q 52.25 40.28125 46.1875 39.3125 
Q 53.46875 37.75 57.5 32.78125 
Q 61.53125 27.828125 61.53125 20.40625 
Q 61.53125 10.640625 54.890625 5.3125 
Q 48.25 0 35.984375 0 
L 9.8125 0 
z
" id="DejaVuSans-66"/>
      </defs>
      <use xlink:href="#DejaVuSans-71"/>
      <use x="77.490234" xlink:href="#DejaVuSans-97"/>
      <use x="138.769531" xlink:href="#DejaVuSans-105"/>
      <use x="166.552734" xlink:href="#DejaVuSans-110"/>
      <use x="229.931641" xlink:href="#DejaVuSans-32"/>
      <use x="261.71875" xlink:href="#DejaVuSans-91"/>
      <use x="300.732422" xlink:href="#DejaVuSans-100"/>
      <use x="364.208984" xlink:href="#DejaVuSans-66"/>
      <use x="432.8125" xlink:href="#DejaVuSans-93"/>
     </g>
    </g>
   </g>
   <g id="line2d_114">
    <path clip-path="url(#p73436c915e)" d="M 72.26804 233.436902 
L 82.392053 223.23026 
L 92.516064 213.202454 
L 102.640074 203.445401 
L 112.764086 194.088335 
L 122.888099 185.301382 
L 133.012111 177.286876 
L 143.136122 170.250541 
L 153.260136 164.352398 
L 163.384145 159.65572 
L 173.508158 156.103759 
L 183.632171 153.540678 
L 193.756183 151.761897 
L 203.880194 150.563876 
L 214.004205 149.774322 
L 224.128216 149.261707 
L 234.25223 148.932201 
L 244.376242 148.721733 
L 254.500252 148.587802 
L 264.624264 148.502669 
L 274.748276 148.448439 
L 284.872288 148.413607 
L 294.9963 148.39075 
L 305.120311 148.37497 
L 315.244324 148.362942 
L 325.368333 148.352219 
L 335.492348 148.340811 
L 345.616358 148.327003 
L 355.74037 148.309412 
L 365.864383 148.287407 
L 375.988394 148.2619 
L 386.112406 148.236242 
L 396.236418 148.216864 
L 406.36043 148.213636 
L 416.484442 148.240948 
L 426.608452 148.32062 
L 436.732466 148.486797 
L 446.856479 148.791726 
L 456.980487 149.311783 
L 467.1045 150.154032 
L 477.228512 151.462506 
L 487.352524 153.418933 
L 497.476535 156.228845 
L 507.600548 160.085751 
L 517.724561 165.118723 
L 527.848573 171.347618 
L 537.972585 178.674647 
" style="fill:none;stroke:#0000ff;stroke-linecap:square;stroke-width:1.5;"/>
    <defs>
     <path d="M 0 1.5 
C 0.397805 1.5 0.77937 1.341951 1.06066 1.06066 
C 1.341951 0.77937 1.5 0.397805 1.5 0 
C 1.5 -0.397805 1.341951 -0.77937 1.06066 -1.06066 
C 0.77937 -1.341951 0.397805 -1.5 0 -1.5 
C -0.397805 -1.5 -0.77937 -1.341951 -1.06066 -1.06066 
C -1.341951 -0.77937 -1.5 -0.397805 -1.5 0 
C -1.5 0.397805 -1.341951 0.77937 -1.06066 1.06066 
C -0.77937 1.341951 -0.397805 1.5 0 1.5 
z
" id="m423a74c1ad" style="stroke:#0000ff;"/>
    </defs>
    <g clip-path="url(#p73436c915e)">
     <use style="fill:#0000ff;stroke:#0000ff;" x="72.26804" xlink:href="#m423a74c1ad" y="233.436902"/>
     <use style="fill:#0000ff;stroke:#0000ff;" x="82.392053" xlink:href="#m423a74c1ad" y="223.23026"/>
     <use style="fill:#0000ff;stroke:#0000ff;" x="92.516064" xlink:href="#m423a74c1ad" y="213.202454"/>
     <use style="fill:#0000ff;stroke:#0000ff;" x="102.640074" xlink:href="#m423a74c1ad" y="203.445401"/>
     <use style="fill:#0000ff;stroke:#0000ff;" x="112.764086" xlink:href="#m423a74c1ad" y="194.088335"/>
     <use style="fill:#0000ff;stroke:#0000ff;" x="122.888099" xlink:href="#m423a74c1ad" y="185.301382"/>
     <use style="fill:#0000ff;stroke:#0000ff;" x="133.012111" xlink:href="#m423a74c1ad" y="177.286876"/>
     <use style="fill:#0000ff;stroke:#0000ff;" x="143.136122" xlink:href="#m423a74c1ad" y="170.250541"/>
     <use style="fill:#0000ff;stroke:#0000ff;" x="153.260136" xlink:href="#m423a74c1ad" y="164.352398"/>
     <use style="fill:#0000ff;stroke:#0000ff;" x="163.384145" xlink:href="#m423a74c1ad" y="159.65572"/>
     <use style="fill:#0000ff;stroke:#0000ff;" x="173.508158" xlink:href="#m423a74c1ad" y="156.103759"/>
     <use style="fill:#0000ff;stroke:#0000ff;" x="183.632171" xlink:href="#m423a74c1ad" y="153.540678"/>
     <use style="fill:#0000ff;stroke:#0000ff;" x="193.756183" xlink:href="#m423a74c1ad" y="151.761897"/>
     <use style="fill:#0000ff;stroke:#0000ff;" x="203.880194" xlink:href="#m423a74c1ad" y="150.563876"/>
     <use style="fill:#0000ff;stroke:#0000ff;" x="214.004205" xlink:href="#m423a74c1ad" y="149.774322"/>
     <use style="fill:#0000ff;stroke:#0000ff;" x="224.128216" xlink:href="#m423a74c1ad" y="149.261707"/>
     <use style="fill:#0000ff;stroke:#0000ff;" x="234.25223" xlink:href="#m423a74c1ad" y="148.932201"/>
     <use style="fill:#0000ff;stroke:#0000ff;" x="244.376242" xlink:href="#m423a74c1ad" y="148.721733"/>
     <use style="fill:#0000ff;stroke:#0000ff;" x="254.500252" xlink:href="#m423a74c1ad" y="148.587802"/>
     <use style="fill:#0000ff;stroke:#0000ff;" x="264.624264" xlink:href="#m423a74c1ad" y="148.502669"/>
     <use style="fill:#0000ff;stroke:#0000ff;" x="274.748276" xlink:href="#m423a74c1ad" y="148.448439"/>
     <use style="fill:#0000ff;stroke:#0000ff;" x="284.872288" xlink:href="#m423a74c1ad" y="148.413607"/>
     <use style="fill:#0000ff;stroke:#0000ff;" x="294.9963" xlink:href="#m423a74c1ad" y="148.39075"/>
     <use style="fill:#0000ff;stroke:#0000ff;" x="305.120311" xlink:href="#m423a74c1ad" y="148.37497"/>
     <use style="fill:#0000ff;stroke:#0000ff;" x="315.244324" xlink:href="#m423a74c1ad" y="148.362942"/>
     <use style="fill:#0000ff;stroke:#0000ff;" x="325.368333" xlink:href="#m423a74c1ad" y="148.352219"/>
     <use style="fill:#0000ff;stroke:#0000ff;" x="335.492348" xlink:href="#m423a74c1ad" y="148.340811"/>
     <use style="fill:#0000ff;stroke:#0000ff;" x="345.616358" xlink:href="#m423a74c1ad" y="148.327003"/>
     <use style="fill:#0000ff;stroke:#0000ff;" x="355.74037" xlink:href="#m423a74c1ad" y="148.309412"/>
     <use style="fill:#0000ff;stroke:#0000ff;" x="365.864383" xlink:href="#m423a74c1ad" y="148.287407"/>
     <use style="fill:#0000ff;stroke:#0000ff;" x="375.988394" xlink:href="#m423a74c1ad" y="148.2619"/>
     <use style="fill:#0000ff;stroke:#0000ff;" x="386.112406" xlink:href="#m423a74c1ad" y="148.236242"/>
     <use style="fill:#0000ff;stroke:#0000ff;" x="396.236418" xlink:href="#m423a74c1ad" y="148.216864"/>
     <use style="fill:#0000ff;stroke:#0000ff;" x="406.36043" xlink:href="#m423a74c1ad" y="148.213636"/>
     <use style="fill:#0000ff;stroke:#0000ff;" x="416.484442" xlink:href="#m423a74c1ad" y="148.240948"/>
     <use style="fill:#0000ff;stroke:#0000ff;" x="426.608452" xlink:href="#m423a74c1ad" y="148.32062"/>
     <use style="fill:#0000ff;stroke:#0000ff;" x="436.732466" xlink:href="#m423a74c1ad" y="148.486797"/>
     <use style="fill:#0000ff;stroke:#0000ff;" x="446.856479" xlink:href="#m423a74c1ad" y="148.791726"/>
     <use style="fill:#0000ff;stroke:#0000ff;" x="456.980487" xlink:href="#m423a74c1ad" y="149.311783"/>
     <use style="fill:#0000ff;stroke:#0000ff;" x="467.1045" xlink:href="#m423a74c1ad" y="150.154032"/>
     <use style="fill:#0000ff;stroke:#0000ff;" x="477.228512" xlink:href="#m423a74c1ad" y="151.462506"/>
     <use style="fill:#0000ff;stroke:#0000ff;" x="487.352524" xlink:href="#m423a74c1ad" y="153.418933"/>
     <use style="fill:#0000ff;stroke:#0000ff;" x="497.476535" xlink:href="#m423a74c1ad" y="156.228845"/>
     <use style="fill:#0000ff;stroke:#0000ff;" x="507.600548" xlink:href="#m423a74c1ad" y="160.085751"/>
     <use style="fill:#0000ff;stroke:#0000ff;" x="517.724561" xlink:href="#m423a74c1ad" y="165.118723"/>
     <use style="fill:#0000ff;stroke:#0000ff;" x="527.848573" xlink:href="#m423a74c1ad" y="171.347618"/>
     <use style="fill:#0000ff;stroke:#0000ff;" x="537.972585" xlink:href="#m423a74c1ad" y="178.674647"/>
    </g>
   </g>
   <g id="line2d_115">
    <path clip-path="url(#p73436c915e)" d="M 72.26804 234.486364 
L 82.392053 224.279721 
L 92.516064 214.251905 
L 102.640074 204.494853 
L 112.764086 195.137792 
L 122.888099 186.350848 
L 133.012111 178.336337 
L 143.136122 171.299997 
L 153.260136 165.401864 
L 163.384145 160.705184 
L 173.508158 157.153226 
L 183.632171 154.590152 
L 193.756183 152.811378 
L 203.880194 151.613375 
L 214.004205 150.823849 
L 224.128216 150.311272 
L 234.25223 149.981828 
L 244.376242 149.771461 
L 254.500252 149.637675 
L 264.624264 149.552785 
L 274.748276 149.498942 
L 284.872288 149.464725 
L 294.9963 149.44282 
L 305.120311 149.42855 
L 315.244324 149.418894 
L 325.368333 149.411853 
L 335.492348 149.406131 
L 345.616358 149.400967 
L 355.74037 149.396291 
L 365.864383 149.393101 
L 375.988394 149.39421 
L 386.112406 149.405121 
L 396.236418 149.434547 
L 406.36043 149.494617 
L 416.484442 149.601111 
L 426.608452 149.774756 
L 436.732466 150.044551 
L 446.856479 150.453878 
L 456.980487 151.069402 
L 467.1045 151.991268 
L 477.228512 153.361059 
L 487.352524 155.361791 
L 497.476535 158.20218 
L 507.600548 162.079205 
L 517.724561 167.124892 
L 527.848573 173.361345 
L 537.972585 180.69241 
" style="fill:none;stroke:#ff0000;stroke-linecap:square;stroke-width:1.5;"/>
    <defs>
     <path d="M 0 1.5 
C 0.397805 1.5 0.77937 1.341951 1.06066 1.06066 
C 1.341951 0.77937 1.5 0.397805 1.5 0 
C 1.5 -0.397805 1.341951 -0.77937 1.06066 -1.06066 
C 0.77937 -1.341951 0.397805 -1.5 0 -1.5 
C -0.397805 -1.5 -0.77937 -1.341951 -1.06066 -1.06066 
C -1.341951 -0.77937 -1.5 -0.397805 -1.5 0 
C -1.5 0.397805 -1.341951 0.77937 -1.06066 1.06066 
C -0.77937 1.341951 -0.397805 1.5 0 1.5 
z
" id="m46752d346e" style="stroke:#ff0000;"/>
    </defs>
    <g clip-path="url(#p73436c915e)">
     <use style="fill:#ff0000;stroke:#ff0000;" x="72.26804" xlink:href="#m46752d346e" y="234.486364"/>
     <use style="fill:#ff0000;stroke:#ff0000;" x="82.392053" xlink:href="#m46752d346e" y="224.279721"/>
     <use style="fill:#ff0000;stroke:#ff0000;" x="92.516064" xlink:href="#m46752d346e" y="214.251905"/>
     <use style="fill:#ff0000;stroke:#ff0000;" x="102.640074" xlink:href="#m46752d346e" y="204.494853"/>
     <use style="fill:#ff0000;stroke:#ff0000;" x="112.764086" xlink:href="#m46752d346e" y="195.137792"/>
     <use style="fill:#ff0000;stroke:#ff0000;" x="122.888099" xlink:href="#m46752d346e" y="186.350848"/>
     <use style="fill:#ff0000;stroke:#ff0000;" x="133.012111" xlink:href="#m46752d346e" y="178.336337"/>
     <use style="fill:#ff0000;stroke:#ff0000;" x="143.136122" xlink:href="#m46752d346e" y="171.299997"/>
     <use style="fill:#ff0000;stroke:#ff0000;" x="153.260136" xlink:href="#m46752d346e" y="165.401864"/>
     <use style="fill:#ff0000;stroke:#ff0000;" x="163.384145" xlink:href="#m46752d346e" y="160.705184"/>
     <use style="fill:#ff0000;stroke:#ff0000;" x="173.508158" xlink:href="#m46752d346e" y="157.153226"/>
     <use style="fill:#ff0000;stroke:#ff0000;" x="183.632171" xlink:href="#m46752d346e" y="154.590152"/>
     <use style="fill:#ff0000;stroke:#ff0000;" x="193.756183" xlink:href="#m46752d346e" y="152.811378"/>
     <use style="fill:#ff0000;stroke:#ff0000;" x="203.880194" xlink:href="#m46752d346e" y="151.613375"/>
     <use style="fill:#ff0000;stroke:#ff0000;" x="214.004205" xlink:href="#m46752d346e" y="150.823849"/>
     <use style="fill:#ff0000;stroke:#ff0000;" x="224.128216" xlink:href="#m46752d346e" y="150.311272"/>
     <use style="fill:#ff0000;stroke:#ff0000;" x="234.25223" xlink:href="#m46752d346e" y="149.981828"/>
     <use style="fill:#ff0000;stroke:#ff0000;" x="244.376242" xlink:href="#m46752d346e" y="149.771461"/>
     <use style="fill:#ff0000;stroke:#ff0000;" x="254.500252" xlink:href="#m46752d346e" y="149.637675"/>
     <use style="fill:#ff0000;stroke:#ff0000;" x="264.624264" xlink:href="#m46752d346e" y="149.552785"/>
     <use style="fill:#ff0000;stroke:#ff0000;" x="274.748276" xlink:href="#m46752d346e" y="149.498942"/>
     <use style="fill:#ff0000;stroke:#ff0000;" x="284.872288" xlink:href="#m46752d346e" y="149.464725"/>
     <use style="fill:#ff0000;stroke:#ff0000;" x="294.9963" xlink:href="#m46752d346e" y="149.44282"/>
     <use style="fill:#ff0000;stroke:#ff0000;" x="305.120311" xlink:href="#m46752d346e" y="149.42855"/>
     <use style="fill:#ff0000;stroke:#ff0000;" x="315.244324" xlink:href="#m46752d346e" y="149.418894"/>
     <use style="fill:#ff0000;stroke:#ff0000;" x="325.368333" xlink:href="#m46752d346e" y="149.411853"/>
     <use style="fill:#ff0000;stroke:#ff0000;" x="335.492348" xlink:href="#m46752d346e" y="149.406131"/>
     <use style="fill:#ff0000;stroke:#ff0000;" x="345.616358" xlink:href="#m46752d346e" y="149.400967"/>
     <use style="fill:#ff0000;stroke:#ff0000;" x="355.74037" xlink:href="#m46752d346e" y="149.396291"/>
     <use style="fill:#ff0000;stroke:#ff0000;" x="365.864383" xlink:href="#m46752d346e" y="149.393101"/>
     <use style="fill:#ff0000;stroke:#ff0000;" x="375.988394" xlink:href="#m46752d346e" y="149.39421"/>
     <use style="fill:#ff0000;stroke:#ff0000;" x="386.112406" xlink:href="#m46752d346e" y="149.405121"/>
     <use style="fill:#ff0000;stroke:#ff0000;" x="396.236418" xlink:href="#m46752d346e" y="149.434547"/>
     <use style="fill:#ff0000;stroke:#ff0000;" x="406.36043" xlink:href="#m46752d346e" y="149.494617"/>
     <use style="fill:#ff0000;stroke:#ff0000;" x="416.484442" xlink:href="#m46752d346e" y="149.601111"/>
     <use style="fill:#ff0000;stroke:#ff0000;" x="426.608452" xlink:href="#m46752d346e" y="149.774756"/>
     <use style="fill:#ff0000;stroke:#ff0000;" x="436.732466" xlink:href="#m46752d346e" y="150.044551"/>
     <use style="fill:#ff0000;stroke:#ff0000;" x="446.856479" xlink:href="#m46752d346e" y="150.453878"/>
     <use style="fill:#ff0000;stroke:#ff0000;" x="456.980487" xlink:href="#m46752d346e" y="151.069402"/>
     <use style="fill:#ff0000;stroke:#ff0000;" x="467.1045" xlink:href="#m46752d346e" y="151.991268"/>
     <use style="fill:#ff0000;stroke:#ff0000;" x="477.228512" xlink:href="#m46752d346e" y="153.361059"/>
     <use style="fill:#ff0000;stroke:#ff0000;" x="487.352524" xlink:href="#m46752d346e" y="155.361791"/>
     <use style="fill:#ff0000;stroke:#ff0000;" x="497.476535" xlink:href="#m46752d346e" y="158.20218"/>
     <use style="fill:#ff0000;stroke:#ff0000;" x="507.600548" xlink:href="#m46752d346e" y="162.079205"/>
     <use style="fill:#ff0000;stroke:#ff0000;" x="517.724561" xlink:href="#m46752d346e" y="167.124892"/>
     <use style="fill:#ff0000;stroke:#ff0000;" x="527.848573" xlink:href="#m46752d346e" y="173.361345"/>
     <use style="fill:#ff0000;stroke:#ff0000;" x="537.972585" xlink:href="#m46752d346e" y="180.69241"/>
    </g>
   </g>
   <g id="line2d_116">
    <path clip-path="url(#p73436c915e)" d="M 72.26804 233.492846 
L 82.392053 223.286214 
L 92.516064 213.258398 
L 102.640074 203.501355 
L 112.764086 194.144294 
L 122.888099 185.357346 
L 133.012111 177.342835 
L 143.136122 170.3065 
L 153.260136 164.408372 
L 163.384145 159.711701 
L 173.508158 156.159759 
L 183.632171 153.596697 
L 193.756183 151.817954 
L 203.880194 150.620003 
L 214.004205 149.830545 
L 224.128216 149.318088 
L 234.25223 148.988827 
L 244.376242 148.778761 
L 254.500252 148.645453 
L 264.624264 148.561308 
L 274.748276 148.508642 
L 284.872288 148.47628 
L 294.9963 148.457294 
L 305.120311 148.447598 
L 315.244324 148.44502 
L 325.368333 148.448833 
L 335.492348 148.45944 
L 345.616358 148.478178 
L 355.74037 148.507031 
L 365.864383 148.548178 
L 375.988394 148.603301 
L 386.112406 148.673226 
L 396.236418 148.758683 
L 406.36043 148.862785 
L 416.484442 148.994583 
L 426.608452 149.172784 
L 436.732466 149.429371 
L 446.856479 149.814194 
L 456.980487 150.401209 
L 467.1045 151.296275 
L 477.228512 152.644003 
L 487.352524 154.628127 
L 497.476535 157.456761 
L 507.600548 161.325803 
L 517.724561 166.366218 
L 527.848573 172.599219 
L 537.972585 179.928 
" style="fill:none;stroke:#008000;stroke-linecap:square;stroke-width:1.5;"/>
    <defs>
     <path d="M 0 1.5 
C 0.397805 1.5 0.77937 1.341951 1.06066 1.06066 
C 1.341951 0.77937 1.5 0.397805 1.5 0 
C 1.5 -0.397805 1.341951 -0.77937 1.06066 -1.06066 
C 0.77937 -1.341951 0.397805 -1.5 0 -1.5 
C -0.397805 -1.5 -0.77937 -1.341951 -1.06066 -1.06066 
C -1.341951 -0.77937 -1.5 -0.397805 -1.5 0 
C -1.5 0.397805 -1.341951 0.77937 -1.06066 1.06066 
C -0.77937 1.341951 -0.397805 1.5 0 1.5 
z
" id="m568e76d1a8" style="stroke:#008000;"/>
    </defs>
    <g clip-path="url(#p73436c915e)">
     <use style="fill:#008000;stroke:#008000;" x="72.26804" xlink:href="#m568e76d1a8" y="233.492846"/>
     <use style="fill:#008000;stroke:#008000;" x="82.392053" xlink:href="#m568e76d1a8" y="223.286214"/>
     <use style="fill:#008000;stroke:#008000;" x="92.516064" xlink:href="#m568e76d1a8" y="213.258398"/>
     <use style="fill:#008000;stroke:#008000;" x="102.640074" xlink:href="#m568e76d1a8" y="203.501355"/>
     <use style="fill:#008000;stroke:#008000;" x="112.764086" xlink:href="#m568e76d1a8" y="194.144294"/>
     <use style="fill:#008000;stroke:#008000;" x="122.888099" xlink:href="#m568e76d1a8" y="185.357346"/>
     <use style="fill:#008000;stroke:#008000;" x="133.012111" xlink:href="#m568e76d1a8" y="177.342835"/>
     <use style="fill:#008000;stroke:#008000;" x="143.136122" xlink:href="#m568e76d1a8" y="170.3065"/>
     <use style="fill:#008000;stroke:#008000;" x="153.260136" xlink:href="#m568e76d1a8" y="164.408372"/>
     <use style="fill:#008000;stroke:#008000;" x="163.384145" xlink:href="#m568e76d1a8" y="159.711701"/>
     <use style="fill:#008000;stroke:#008000;" x="173.508158" xlink:href="#m568e76d1a8" y="156.159759"/>
     <use style="fill:#008000;stroke:#008000;" x="183.632171" xlink:href="#m568e76d1a8" y="153.596697"/>
     <use style="fill:#008000;stroke:#008000;" x="193.756183" xlink:href="#m568e76d1a8" y="151.817954"/>
     <use style="fill:#008000;stroke:#008000;" x="203.880194" xlink:href="#m568e76d1a8" y="150.620003"/>
     <use style="fill:#008000;stroke:#008000;" x="214.004205" xlink:href="#m568e76d1a8" y="149.830545"/>
     <use style="fill:#008000;stroke:#008000;" x="224.128216" xlink:href="#m568e76d1a8" y="149.318088"/>
     <use style="fill:#008000;stroke:#008000;" x="234.25223" xlink:href="#m568e76d1a8" y="148.988827"/>
     <use style="fill:#008000;stroke:#008000;" x="244.376242" xlink:href="#m568e76d1a8" y="148.778761"/>
     <use style="fill:#008000;stroke:#008000;" x="254.500252" xlink:href="#m568e76d1a8" y="148.645453"/>
     <use style="fill:#008000;stroke:#008000;" x="264.624264" xlink:href="#m568e76d1a8" y="148.561308"/>
     <use style="fill:#008000;stroke:#008000;" x="274.748276" xlink:href="#m568e76d1a8" y="148.508642"/>
     <use style="fill:#008000;stroke:#008000;" x="284.872288" xlink:href="#m568e76d1a8" y="148.47628"/>
     <use style="fill:#008000;stroke:#008000;" x="294.9963" xlink:href="#m568e76d1a8" y="148.457294"/>
     <use style="fill:#008000;stroke:#008000;" x="305.120311" xlink:href="#m568e76d1a8" y="148.447598"/>
     <use style="fill:#008000;stroke:#008000;" x="315.244324" xlink:href="#m568e76d1a8" y="148.44502"/>
     <use style="fill:#008000;stroke:#008000;" x="325.368333" xlink:href="#m568e76d1a8" y="148.448833"/>
     <use style="fill:#008000;stroke:#008000;" x="335.492348" xlink:href="#m568e76d1a8" y="148.45944"/>
     <use style="fill:#008000;stroke:#008000;" x="345.616358" xlink:href="#m568e76d1a8" y="148.478178"/>
     <use style="fill:#008000;stroke:#008000;" x="355.74037" xlink:href="#m568e76d1a8" y="148.507031"/>
     <use style="fill:#008000;stroke:#008000;" x="365.864383" xlink:href="#m568e76d1a8" y="148.548178"/>
     <use style="fill:#008000;stroke:#008000;" x="375.988394" xlink:href="#m568e76d1a8" y="148.603301"/>
     <use style="fill:#008000;stroke:#008000;" x="386.112406" xlink:href="#m568e76d1a8" y="148.673226"/>
     <use style="fill:#008000;stroke:#008000;" x="396.236418" xlink:href="#m568e76d1a8" y="148.758683"/>
     <use style="fill:#008000;stroke:#008000;" x="406.36043" xlink:href="#m568e76d1a8" y="148.862785"/>
     <use style="fill:#008000;stroke:#008000;" x="416.484442" xlink:href="#m568e76d1a8" y="148.994583"/>
     <use style="fill:#008000;stroke:#008000;" x="426.608452" xlink:href="#m568e76d1a8" y="149.172784"/>
     <use style="fill:#008000;stroke:#008000;" x="436.732466" xlink:href="#m568e76d1a8" y="149.429371"/>
     <use style="fill:#008000;stroke:#008000;" x="446.856479" xlink:href="#m568e76d1a8" y="149.814194"/>
     <use style="fill:#008000;stroke:#008000;" x="456.980487" xlink:href="#m568e76d1a8" y="150.401209"/>
     <use style="fill:#008000;stroke:#008000;" x="467.1045" xlink:href="#m568e76d1a8" y="151.296275"/>
     <use style="fill:#008000;stroke:#008000;" x="477.228512" xlink:href="#m568e76d1a8" y="152.644003"/>
     <use style="fill:#008000;stroke:#008000;" x="487.352524" xlink:href="#m568e76d1a8" y="154.628127"/>
     <use style="fill:#008000;stroke:#008000;" x="497.476535" xlink:href="#m568e76d1a8" y="157.456761"/>
     <use style="fill:#008000;stroke:#008000;" x="507.600548" xlink:href="#m568e76d1a8" y="161.325803"/>
     <use style="fill:#008000;stroke:#008000;" x="517.724561" xlink:href="#m568e76d1a8" y="166.366218"/>
     <use style="fill:#008000;stroke:#008000;" x="527.848573" xlink:href="#m568e76d1a8" y="172.599219"/>
     <use style="fill:#008000;stroke:#008000;" x="537.972585" xlink:href="#m568e76d1a8" y="179.928"/>
    </g>
   </g>
   <g id="patch_8">
    <path d="M 48.982813 238.8 
L 48.982813 143.9 
" style="fill:none;stroke:#000000;stroke-linecap:square;stroke-linejoin:miter;stroke-width:0.8;"/>
   </g>
   <g id="patch_9">
    <path d="M 561.257812 238.8 
L 561.257812 143.9 
" style="fill:none;stroke:#000000;stroke-linecap:square;stroke-linejoin:miter;stroke-width:0.8;"/>
   </g>
   <g id="patch_10">
    <path d="M 48.982813 238.8 
L 561.257812 238.8 
" style="fill:none;stroke:#000000;stroke-linecap:square;stroke-linejoin:miter;stroke-width:0.8;"/>
   </g>
   <g id="patch_11">
    <path d="M 48.982813 143.9 
L 561.257812 143.9 
" style="fill:none;stroke:#000000;stroke-linecap:square;stroke-linejoin:miter;stroke-width:0.8;"/>
   </g>
  </g>
 </g>
 <defs>
  <clipPath id="p79986bb035">
   <rect height="94.9" width="512.275" x="48.982813" y="7.2"/>
  </clipPath>
  <clipPath id="p73436c915e">
   <rect height="94.9" width="512.275" x="48.982813" y="143.9"/>
  </clipPath>
 </defs>
</svg>
