<?xml version="1.0" encoding="utf-8" standalone="no"?>
<!DOCTYPE svg PUBLIC "-//W3C//DTD SVG 1.1//EN"
  "http://www.w3.org/Graphics/SVG/1.1/DTD/svg11.dtd">
<svg height="276.35625pt" version="1.1" viewBox="0 0 568.445312 276.35625" width="568.445312pt" xmlns="http://www.w3.org/2000/svg" xmlns:xlink="http://www.w3.org/1999/xlink">
 <metadata>
  <rdf:RDF xmlns:cc="http://creativecommons.org/ns#" xmlns:dc="http://purl.org/dc/elements/1.1/" xmlns:rdf="http://www.w3.org/1999/02/22-rdf-syntax-ns#">
   <cc:Work>
    <dc:type rdf:resource="http://purl.org/dc/dcmitype/StillImage"/>
    <dc:date>2021-05-25T06:41:49.501124</dc:date>
    <dc:format>image/svg+xml</dc:format>
    <dc:creator>
     <cc:Agent>
      <dc:title>Matplotlib v3.4.2, https://matplotlib.org/</dc:title>
     </cc:Agent>
    </dc:creator>
   </cc:Work>
  </rdf:RDF>
 </metadata>
 <defs>
  <style type="text/css">*{stroke-linecap:butt;stroke-linejoin:round;}</style>
 </defs>
 <g id="figure_1">
  <g id="patch_1">
   <path d="M 0 276.35625 
L 568.445312 276.35625 
L 568.445312 0 
L 0 0 
z
" style="fill:none;"/>
  </g>
  <g id="axes_1">
   <g id="patch_2">
    <path d="M 55.345313 102.1 
L 561.245312 102.1 
L 561.245312 7.2 
L 55.345313 7.2 
z
" style="fill:#ffffff;"/>
   </g>
   <g id="matplotlib.axis_1">
    <g id="xtick_1">
     <g id="line2d_1">
      <defs>
       <path d="M 0 0 
L 0 3.5 
" id="m49e68140f7" style="stroke:#000000;stroke-width:0.8;"/>
      </defs>
      <g>
       <use style="stroke:#000000;stroke-width:0.8;" x="78.340767" xlink:href="#m49e68140f7" y="102.1"/>
      </g>
     </g>
     <g id="text_1">
      <!-- 0 -->
      <g transform="translate(75.159517 116.698437)scale(0.1 -0.1)">
       <defs>
        <path d="M 2034 4250 
Q 1547 4250 1301 3770 
Q 1056 3291 1056 2328 
Q 1056 1369 1301 889 
Q 1547 409 2034 409 
Q 2525 409 2770 889 
Q 3016 1369 3016 2328 
Q 3016 3291 2770 3770 
Q 2525 4250 2034 4250 
z
M 2034 4750 
Q 2819 4750 3233 4129 
Q 3647 3509 3647 2328 
Q 3647 1150 3233 529 
Q 2819 -91 2034 -91 
Q 1250 -91 836 529 
Q 422 1150 422 2328 
Q 422 3509 836 4129 
Q 1250 4750 2034 4750 
z
" id="DejaVuSans-30" transform="scale(0.015625)"/>
       </defs>
       <use xlink:href="#DejaVuSans-30"/>
      </g>
     </g>
    </g>
    <g id="xtick_2">
     <g id="line2d_2">
      <g>
       <use style="stroke:#000000;stroke-width:0.8;" x="170.322585" xlink:href="#m49e68140f7" y="102.1"/>
      </g>
     </g>
     <g id="text_2">
      <!-- 2 -->
      <g transform="translate(167.141335 116.698437)scale(0.1 -0.1)">
       <defs>
        <path d="M 1228 531 
L 3431 531 
L 3431 0 
L 469 0 
L 469 531 
Q 828 903 1448 1529 
Q 2069 2156 2228 2338 
Q 2531 2678 2651 2914 
Q 2772 3150 2772 3378 
Q 2772 3750 2511 3984 
Q 2250 4219 1831 4219 
Q 1534 4219 1204 4116 
Q 875 4013 500 3803 
L 500 4441 
Q 881 4594 1212 4672 
Q 1544 4750 1819 4750 
Q 2544 4750 2975 4387 
Q 3406 4025 3406 3419 
Q 3406 3131 3298 2873 
Q 3191 2616 2906 2266 
Q 2828 2175 2409 1742 
Q 1991 1309 1228 531 
z
" id="DejaVuSans-32" transform="scale(0.015625)"/>
       </defs>
       <use xlink:href="#DejaVuSans-32"/>
      </g>
     </g>
    </g>
    <g id="xtick_3">
     <g id="line2d_3">
      <g>
       <use style="stroke:#000000;stroke-width:0.8;" x="262.304403" xlink:href="#m49e68140f7" y="102.1"/>
      </g>
     </g>
     <g id="text_3">
      <!-- 4 -->
      <g transform="translate(259.123153 116.698437)scale(0.1 -0.1)">
       <defs>
        <path d="M 2419 4116 
L 825 1625 
L 2419 1625 
L 2419 4116 
z
M 2253 4666 
L 3047 4666 
L 3047 1625 
L 3713 1625 
L 3713 1100 
L 3047 1100 
L 3047 0 
L 2419 0 
L 2419 1100 
L 313 1100 
L 313 1709 
L 2253 4666 
z
" id="DejaVuSans-34" transform="scale(0.015625)"/>
       </defs>
       <use xlink:href="#DejaVuSans-34"/>
      </g>
     </g>
    </g>
    <g id="xtick_4">
     <g id="line2d_4">
      <g>
       <use style="stroke:#000000;stroke-width:0.8;" x="354.286222" xlink:href="#m49e68140f7" y="102.1"/>
      </g>
     </g>
     <g id="text_4">
      <!-- 6 -->
      <g transform="translate(351.104972 116.698437)scale(0.1 -0.1)">
       <defs>
        <path d="M 2113 2584 
Q 1688 2584 1439 2293 
Q 1191 2003 1191 1497 
Q 1191 994 1439 701 
Q 1688 409 2113 409 
Q 2538 409 2786 701 
Q 3034 994 3034 1497 
Q 3034 2003 2786 2293 
Q 2538 2584 2113 2584 
z
M 3366 4563 
L 3366 3988 
Q 3128 4100 2886 4159 
Q 2644 4219 2406 4219 
Q 1781 4219 1451 3797 
Q 1122 3375 1075 2522 
Q 1259 2794 1537 2939 
Q 1816 3084 2150 3084 
Q 2853 3084 3261 2657 
Q 3669 2231 3669 1497 
Q 3669 778 3244 343 
Q 2819 -91 2113 -91 
Q 1303 -91 875 529 
Q 447 1150 447 2328 
Q 447 3434 972 4092 
Q 1497 4750 2381 4750 
Q 2619 4750 2861 4703 
Q 3103 4656 3366 4563 
z
" id="DejaVuSans-36" transform="scale(0.015625)"/>
       </defs>
       <use xlink:href="#DejaVuSans-36"/>
      </g>
     </g>
    </g>
    <g id="xtick_5">
     <g id="line2d_5">
      <g>
       <use style="stroke:#000000;stroke-width:0.8;" x="446.26804" xlink:href="#m49e68140f7" y="102.1"/>
      </g>
     </g>
     <g id="text_5">
      <!-- 8 -->
      <g transform="translate(443.08679 116.698437)scale(0.1 -0.1)">
       <defs>
        <path d="M 2034 2216 
Q 1584 2216 1326 1975 
Q 1069 1734 1069 1313 
Q 1069 891 1326 650 
Q 1584 409 2034 409 
Q 2484 409 2743 651 
Q 3003 894 3003 1313 
Q 3003 1734 2745 1975 
Q 2488 2216 2034 2216 
z
M 1403 2484 
Q 997 2584 770 2862 
Q 544 3141 544 3541 
Q 544 4100 942 4425 
Q 1341 4750 2034 4750 
Q 2731 4750 3128 4425 
Q 3525 4100 3525 3541 
Q 3525 3141 3298 2862 
Q 3072 2584 2669 2484 
Q 3125 2378 3379 2068 
Q 3634 1759 3634 1313 
Q 3634 634 3220 271 
Q 2806 -91 2034 -91 
Q 1263 -91 848 271 
Q 434 634 434 1313 
Q 434 1759 690 2068 
Q 947 2378 1403 2484 
z
M 1172 3481 
Q 1172 3119 1398 2916 
Q 1625 2713 2034 2713 
Q 2441 2713 2670 2916 
Q 2900 3119 2900 3481 
Q 2900 3844 2670 4047 
Q 2441 4250 2034 4250 
Q 1625 4250 1398 4047 
Q 1172 3844 1172 3481 
z
" id="DejaVuSans-38" transform="scale(0.015625)"/>
       </defs>
       <use xlink:href="#DejaVuSans-38"/>
      </g>
     </g>
    </g>
    <g id="xtick_6">
     <g id="line2d_6">
      <g>
       <use style="stroke:#000000;stroke-width:0.8;" x="538.249858" xlink:href="#m49e68140f7" y="102.1"/>
      </g>
     </g>
     <g id="text_6">
      <!-- 10 -->
      <g transform="translate(531.887358 116.698437)scale(0.1 -0.1)">
       <defs>
        <path d="M 794 531 
L 1825 531 
L 1825 4091 
L 703 3866 
L 703 4441 
L 1819 4666 
L 2450 4666 
L 2450 531 
L 3481 531 
L 3481 0 
L 794 0 
L 794 531 
z
" id="DejaVuSans-31" transform="scale(0.015625)"/>
       </defs>
       <use xlink:href="#DejaVuSans-31"/>
       <use x="63.623047" xlink:href="#DejaVuSans-30"/>
      </g>
     </g>
    </g>
    <g id="text_7">
     <!-- time (ms) -->
     <g transform="translate(284.033594 130.376562)scale(0.1 -0.1)">
      <defs>
       <path d="M 1172 4494 
L 1172 3500 
L 2356 3500 
L 2356 3053 
L 1172 3053 
L 1172 1153 
Q 1172 725 1289 603 
Q 1406 481 1766 481 
L 2356 481 
L 2356 0 
L 1766 0 
Q 1100 0 847 248 
Q 594 497 594 1153 
L 594 3053 
L 172 3053 
L 172 3500 
L 594 3500 
L 594 4494 
L 1172 4494 
z
" id="DejaVuSans-74" transform="scale(0.015625)"/>
       <path d="M 603 3500 
L 1178 3500 
L 1178 0 
L 603 0 
L 603 3500 
z
M 603 4863 
L 1178 4863 
L 1178 4134 
L 603 4134 
L 603 4863 
z
" id="DejaVuSans-69" transform="scale(0.015625)"/>
       <path d="M 3328 2828 
Q 3544 3216 3844 3400 
Q 4144 3584 4550 3584 
Q 5097 3584 5394 3201 
Q 5691 2819 5691 2113 
L 5691 0 
L 5113 0 
L 5113 2094 
Q 5113 2597 4934 2840 
Q 4756 3084 4391 3084 
Q 3944 3084 3684 2787 
Q 3425 2491 3425 1978 
L 3425 0 
L 2847 0 
L 2847 2094 
Q 2847 2600 2669 2842 
Q 2491 3084 2119 3084 
Q 1678 3084 1418 2786 
Q 1159 2488 1159 1978 
L 1159 0 
L 581 0 
L 581 3500 
L 1159 3500 
L 1159 2956 
Q 1356 3278 1631 3431 
Q 1906 3584 2284 3584 
Q 2666 3584 2933 3390 
Q 3200 3197 3328 2828 
z
" id="DejaVuSans-6d" transform="scale(0.015625)"/>
       <path d="M 3597 1894 
L 3597 1613 
L 953 1613 
Q 991 1019 1311 708 
Q 1631 397 2203 397 
Q 2534 397 2845 478 
Q 3156 559 3463 722 
L 3463 178 
Q 3153 47 2828 -22 
Q 2503 -91 2169 -91 
Q 1331 -91 842 396 
Q 353 884 353 1716 
Q 353 2575 817 3079 
Q 1281 3584 2069 3584 
Q 2775 3584 3186 3129 
Q 3597 2675 3597 1894 
z
M 3022 2063 
Q 3016 2534 2758 2815 
Q 2500 3097 2075 3097 
Q 1594 3097 1305 2825 
Q 1016 2553 972 2059 
L 3022 2063 
z
" id="DejaVuSans-65" transform="scale(0.015625)"/>
       <path id="DejaVuSans-20" transform="scale(0.015625)"/>
       <path d="M 1984 4856 
Q 1566 4138 1362 3434 
Q 1159 2731 1159 2009 
Q 1159 1288 1364 580 
Q 1569 -128 1984 -844 
L 1484 -844 
Q 1016 -109 783 600 
Q 550 1309 550 2009 
Q 550 2706 781 3412 
Q 1013 4119 1484 4856 
L 1984 4856 
z
" id="DejaVuSans-28" transform="scale(0.015625)"/>
       <path d="M 2834 3397 
L 2834 2853 
Q 2591 2978 2328 3040 
Q 2066 3103 1784 3103 
Q 1356 3103 1142 2972 
Q 928 2841 928 2578 
Q 928 2378 1081 2264 
Q 1234 2150 1697 2047 
L 1894 2003 
Q 2506 1872 2764 1633 
Q 3022 1394 3022 966 
Q 3022 478 2636 193 
Q 2250 -91 1575 -91 
Q 1294 -91 989 -36 
Q 684 19 347 128 
L 347 722 
Q 666 556 975 473 
Q 1284 391 1588 391 
Q 1994 391 2212 530 
Q 2431 669 2431 922 
Q 2431 1156 2273 1281 
Q 2116 1406 1581 1522 
L 1381 1569 
Q 847 1681 609 1914 
Q 372 2147 372 2553 
Q 372 3047 722 3315 
Q 1072 3584 1716 3584 
Q 2034 3584 2315 3537 
Q 2597 3491 2834 3397 
z
" id="DejaVuSans-73" transform="scale(0.015625)"/>
       <path d="M 513 4856 
L 1013 4856 
Q 1481 4119 1714 3412 
Q 1947 2706 1947 2009 
Q 1947 1309 1714 600 
Q 1481 -109 1013 -844 
L 513 -844 
Q 928 -128 1133 580 
Q 1338 1288 1338 2009 
Q 1338 2731 1133 3434 
Q 928 4138 513 4856 
z
" id="DejaVuSans-29" transform="scale(0.015625)"/>
      </defs>
      <use xlink:href="#DejaVuSans-74"/>
      <use x="39.208984" xlink:href="#DejaVuSans-69"/>
      <use x="66.992188" xlink:href="#DejaVuSans-6d"/>
      <use x="164.404297" xlink:href="#DejaVuSans-65"/>
      <use x="225.927734" xlink:href="#DejaVuSans-20"/>
      <use x="257.714844" xlink:href="#DejaVuSans-28"/>
      <use x="296.728516" xlink:href="#DejaVuSans-6d"/>
      <use x="394.140625" xlink:href="#DejaVuSans-73"/>
      <use x="446.240234" xlink:href="#DejaVuSans-29"/>
     </g>
    </g>
   </g>
   <g id="matplotlib.axis_2">
    <g id="ytick_1">
     <g id="line2d_7">
      <defs>
       <path d="M 0 0 
L -3.5 0 
" id="m456eee665d" style="stroke:#000000;stroke-width:0.8;"/>
      </defs>
      <g>
       <use style="stroke:#000000;stroke-width:0.8;" x="55.345313" xlink:href="#m456eee665d" y="86.668955"/>
      </g>
     </g>
     <g id="text_8">
      <!-- −10 -->
      <g transform="translate(27.240625 90.468174)scale(0.1 -0.1)">
       <defs>
        <path d="M 678 2272 
L 4684 2272 
L 4684 1741 
L 678 1741 
L 678 2272 
z
" id="DejaVuSans-2212" transform="scale(0.015625)"/>
       </defs>
       <use xlink:href="#DejaVuSans-2212"/>
       <use x="83.789062" xlink:href="#DejaVuSans-31"/>
       <use x="147.412109" xlink:href="#DejaVuSans-30"/>
      </g>
     </g>
    </g>
    <g id="ytick_2">
     <g id="line2d_8">
      <g>
       <use style="stroke:#000000;stroke-width:0.8;" x="55.345313" xlink:href="#m456eee665d" y="54.650188"/>
      </g>
     </g>
     <g id="text_9">
      <!-- 0 -->
      <g transform="translate(41.982813 58.449406)scale(0.1 -0.1)">
       <use xlink:href="#DejaVuSans-30"/>
      </g>
     </g>
    </g>
    <g id="ytick_3">
     <g id="line2d_9">
      <g>
       <use style="stroke:#000000;stroke-width:0.8;" x="55.345313" xlink:href="#m456eee665d" y="22.63142"/>
      </g>
     </g>
     <g id="text_10">
      <!-- 10 -->
      <g transform="translate(35.620313 26.430639)scale(0.1 -0.1)">
       <use xlink:href="#DejaVuSans-31"/>
       <use x="63.623047" xlink:href="#DejaVuSans-30"/>
      </g>
     </g>
    </g>
    <g id="text_11">
     <!-- IN [V] -->
     <g transform="translate(21.160938 68.776562)rotate(-90)scale(0.1 -0.1)">
      <defs>
       <path d="M 628 4666 
L 1259 4666 
L 1259 0 
L 628 0 
L 628 4666 
z
" id="DejaVuSans-49" transform="scale(0.015625)"/>
       <path d="M 628 4666 
L 1478 4666 
L 3547 763 
L 3547 4666 
L 4159 4666 
L 4159 0 
L 3309 0 
L 1241 3903 
L 1241 0 
L 628 0 
L 628 4666 
z
" id="DejaVuSans-4e" transform="scale(0.015625)"/>
       <path d="M 550 4863 
L 1875 4863 
L 1875 4416 
L 1125 4416 
L 1125 -397 
L 1875 -397 
L 1875 -844 
L 550 -844 
L 550 4863 
z
" id="DejaVuSans-5b" transform="scale(0.015625)"/>
       <path d="M 1831 0 
L 50 4666 
L 709 4666 
L 2188 738 
L 3669 4666 
L 4325 4666 
L 2547 0 
L 1831 0 
z
" id="DejaVuSans-56" transform="scale(0.015625)"/>
       <path d="M 1947 4863 
L 1947 -844 
L 622 -844 
L 622 -397 
L 1369 -397 
L 1369 4416 
L 622 4416 
L 622 4863 
L 1947 4863 
z
" id="DejaVuSans-5d" transform="scale(0.015625)"/>
      </defs>
      <use xlink:href="#DejaVuSans-49"/>
      <use x="29.492188" xlink:href="#DejaVuSans-4e"/>
      <use x="104.296875" xlink:href="#DejaVuSans-20"/>
      <use x="136.083984" xlink:href="#DejaVuSans-5b"/>
      <use x="175.097656" xlink:href="#DejaVuSans-56"/>
      <use x="243.505859" xlink:href="#DejaVuSans-5d"/>
     </g>
    </g>
   </g>
   <g id="line2d_10">
    <path clip-path="url(#pa0087aa6c9)" d="M 78.340767 54.65015 
L 81.911375 54.538634 
L 83.888984 54.247302 
L 85.682629 53.761013 
L 87.476275 53.04039 
L 89.407893 52.01492 
L 91.79942 50.472853 
L 96.812429 47.160007 
L 98.468102 46.377122 
L 99.847829 45.960881 
L 101.089584 45.812967 
L 102.239356 45.894256 
L 103.389129 46.203797 
L 104.538902 46.753168 
L 105.734666 47.583804 
L 106.97642 48.722393 
L 108.356147 50.299666 
L 109.919838 52.440491 
L 111.851456 55.492192 
L 115.346766 61.543216 
L 117.784284 65.527629 
L 119.393966 67.757758 
L 120.727702 69.242422 
L 121.877475 70.198265 
L 122.889275 70.757675 
L 123.809093 71.01767 
L 124.68292 71.033182 
L 125.556747 70.815236 
L 126.430575 70.359518 
L 127.350393 69.622186 
L 128.362193 68.510308 
L 129.465975 66.951001 
L 130.707729 64.793901 
L 132.133447 61.851423 
L 133.881102 57.699967 
L 136.456593 50.929741 
L 139.905911 41.953654 
L 141.607575 38.143208 
L 142.987302 35.579535 
L 144.137075 33.890607 
L 145.148875 32.78782 
L 146.022702 32.1492 
L 146.804547 31.837829 
L 147.540402 31.776807 
L 148.276256 31.945379 
L 149.012111 32.345662 
L 149.793956 33.02449 
L 150.667784 34.088085 
L 151.633593 35.626987 
L 152.737375 37.828313 
L 153.979129 40.820488 
L 155.450838 44.974473 
L 157.336466 51.025104 
L 164.189111 73.746227 
L 165.568838 77.233341 
L 166.764602 79.677191 
L 167.776402 81.264618 
L 168.650229 82.249464 
L 169.432075 82.810354 
L 170.121938 83.045338 
L 170.765811 83.040286 
L 171.409684 82.816354 
L 172.099547 82.333047 
L 172.835402 81.541899 
L 173.663238 80.317858 
L 174.629047 78.457853 
L 175.686838 75.916782 
L 176.928593 72.321975 
L 178.400302 67.329081 
L 180.239938 60.246457 
L 187.138575 32.828106 
L 188.518302 28.644156 
L 189.668075 25.801551 
L 190.679875 23.852351 
L 191.553702 22.620834 
L 192.335547 21.893289 
L 193.025411 21.554774 
L 193.623293 21.495937 
L 194.221175 21.656951 
L 194.865047 22.076685 
L 195.554911 22.808271 
L 196.336756 23.984496 
L 197.210584 25.723119 
L 198.222384 28.268796 
L 199.372156 31.802867 
L 200.705893 36.655228 
L 202.361566 43.58411 
L 204.707102 54.481779 
L 208.66232 72.890799 
L 210.363984 79.697829 
L 211.69772 84.183598 
L 212.847493 87.315886 
L 213.813302 89.354678 
L 214.641138 90.638483 
L 215.376993 91.403141 
L 216.020866 91.773083 
L 216.618747 91.862407 
L 217.170638 91.725869 
L 217.76852 91.340424 
L 218.412393 90.650574 
L 219.148247 89.518133 
L 219.976084 87.816682 
L 220.941893 85.28407 
L 222.045675 81.716621 
L 223.33342 76.744329 
L 224.85112 69.954684 
L 226.87472 59.806713 
L 232.255656 32.301359 
L 233.819347 25.72589 
L 235.107093 21.229424 
L 236.210875 18.157507 
L 237.130693 16.207973 
L 237.912538 15.015309 
L 238.602402 14.331199 
L 239.200284 14.023982 
L 239.752175 13.978807 
L 240.304066 14.163692 
L 240.901947 14.623362 
L 241.54582 15.417792 
L 242.281675 16.699738 
L 243.109511 18.605391 
L 244.07532 21.42045 
L 245.179102 25.362097 
L 246.466847 30.828107 
L 248.030538 38.49595 
L 250.14612 50.089161 
L 254.975166 76.935808 
L 256.584847 84.464926 
L 257.918584 89.683807 
L 259.022366 93.163874 
L 259.988175 95.513638 
L 260.816011 96.974987 
L 261.321911 97.510027 
L 261.827811 97.643768 
L 263.023575 97.673846 
L 263.851411 97.540347 
L 264.145899 97.283808 
L 264.799984 96.338411 
L 265.535839 94.874631 
L 266.409666 92.603806 
L 267.421466 89.289869 
L 268.571239 84.705444 
L 269.904975 78.435166 
L 271.560648 69.521673 
L 275.791719 44.810353 
L 278.397512 30.211426 
L 279.961203 22.714896 
L 281.248949 17.576452 
L 282.352731 14.053009 
L 283.211148 11.955148 
L 283.479766 11.694025 
L 284.031657 11.572108 
L 285.68733 11.523205 
L 287.756921 11.629732 
L 288.106195 11.807192 
L 288.459732 12.476811 
L 289.258913 14.345201 
L 290.178731 17.099087 
L 291.236522 21.012721 
L 292.478277 26.523438 
L 293.949986 34.132093 
L 296.254393 47.455529 
L 302.009727 80.52153 
L 303.527427 87.738603 
L 304.769181 92.630489 
L 305.826972 95.957761 
L 306.509907 97.52058 
L 306.877834 97.689386 
L 307.843643 97.773055 
L 310.787062 97.744112 
L 311.568907 97.580422 
L 311.75915 97.298871 
L 312.667967 95.200271 
L 313.587785 92.429478 
L 314.645576 88.487282 
L 315.887331 82.932459 
L 317.35904 75.260371 
L 319.887781 60.578314 
L 325.439874 28.676073 
L 326.957574 21.455859 
L 328.199329 16.573827 
L 329.25712 13.264148 
L 329.883392 11.808784 
L 330.205329 11.62903 
L 330.987174 11.536755 
L 333.608656 11.529002 
L 334.85041 11.664662 
L 335.095458 11.877799 
L 336.229252 14.555301 
L 337.14907 17.4443 
L 338.206861 21.51602 
L 339.448616 27.209509 
L 340.966316 35.279575 
L 344.5011 55.923366 
L 348.810582 80.549794 
L 350.282291 87.568202 
L 351.524046 92.48037 
L 352.581837 95.815262 
L 353.30762 97.499287 
L 353.629556 97.671218 
L 354.457393 97.76389 
L 357.124865 97.762465 
L 358.228647 97.605013 
L 358.438796 97.355447 
L 359.540325 94.782385 
L 360.460143 91.918889 
L 361.517934 87.871488 
L 362.759689 82.199962 
L 364.277389 74.147929 
L 367.689627 54.227008 
L 372.130364 28.836317 
L 373.602073 21.82667 
L 374.843828 16.925972 
L 375.901619 13.603946 
L 376.642241 11.85269 
L 376.964177 11.644266 
L 377.700032 11.545587 
L 380.045568 11.529681 
L 381.425295 11.673795 
L 381.665362 11.892837 
L 382.753183 14.369886 
L 383.667206 17.154383 
L 384.724997 21.136435 
L 385.966751 26.742579 
L 387.43846 34.474945 
L 390.2541 50.867469 
L 395.381567 80.286882 
L 396.853276 87.300468 
L 398.09503 92.204031 
L 399.152821 95.527779 
L 399.97477 97.451242 
L 400.296706 97.654171 
L 401.032561 97.752048 
L 403.332106 97.765931 
L 404.619852 97.626578 
L 404.864691 97.411603 
L 405.868112 95.201428 
L 406.756965 92.594109 
L 407.768765 88.914853 
L 408.964529 83.683952 
L 410.390247 76.385957 
L 412.499455 64.232042 
L 418.636161 28.931258 
L 420.10787 21.953291 
L 421.349625 17.086644 
L 422.407416 13.798698 
L 423.237361 11.873283 
L 423.559298 11.654748 
L 424.295152 11.55208 
L 426.548707 11.538445 
L 427.790461 11.680362 
L 428.030184 11.898809 
L 429.001198 13.991204 
L 429.880979 16.518471 
L 430.892779 20.138034 
L 432.088543 25.306782 
L 433.514261 32.543939 
L 435.531922 44.126075 
L 441.811429 80.258881 
L 443.283138 87.233237 
L 444.524893 92.096223 
L 445.582684 95.380501 
L 446.416875 97.342174 
L 446.683804 97.598888 
L 447.235695 97.722654 
L 448.845376 97.77143 
L 450.776995 97.660177 
L 451.109379 97.477488 
L 451.585265 96.579326 
L 452.411662 94.602489 
L 453.30274 91.874392 
L 454.360531 87.884713 
L 455.602285 82.270287 
L 457.073994 74.53241 
L 459.891919 58.127073 
L 464.894842 29.437094 
L 466.366551 22.419376 
L 467.608305 17.511609 
L 468.666096 14.184454 
L 469.573974 12.024233 
L 469.867435 11.710024 
L 470.373335 11.58654 
L 471.845044 11.531604 
L 473.868644 11.640833 
L 474.204653 11.820473 
L 474.657127 12.653538 
L 475.468988 14.548683 
L 476.356021 17.208957 
L 477.413812 21.136425 
L 478.655567 26.68686 
L 480.127276 34.363373 
L 482.715033 49.394104 
L 488.001475 79.74611 
L 489.473184 86.766167 
L 490.714939 91.676796 
L 491.77273 95.006846 
L 492.692042 97.198604 
L 493.020367 97.58412 
L 493.526267 97.710582 
L 494.997976 97.765981 
L 496.929594 97.66091 
L 497.273787 97.486796 
L 497.671798 96.778207 
L 498.453643 95.021683 
L 499.349253 92.419103 
L 500.361053 88.76234 
L 501.556817 83.555444 
L 502.982535 76.28427 
L 505.051494 64.386421 
L 511.135889 29.395059 
L 512.607598 22.41326 
L 513.849352 17.541397 
L 514.907143 14.248241 
L 515.79467 12.152184 
L 516.110642 11.741022 
L 516.570551 11.602939 
L 517.858297 11.537738 
L 519.927888 11.628904 
L 520.32625 11.808399 
L 520.692825 12.443569 
L 521.474671 14.158882 
L 522.356341 16.670991 
L 523.368141 20.269531 
L 524.563904 25.415291 
L 525.989623 32.626295 
L 527.964027 43.933747 
L 534.183246 79.728033 
L 535.654955 86.726251 
L 536.89671 91.615457 
L 537.954501 94.925432 
L 538.249858 95.69775 
L 538.249858 95.69775 
" style="fill:none;stroke:#ff0000;stroke-linecap:square;stroke-width:1.5;"/>
   </g>
   <g id="line2d_11">
    <path clip-path="url(#pa0087aa6c9)" d="M 78.340767 54.65015 
L 79.703811 54.752806 
L 81.17552 55.085111 
L 82.831193 55.694764 
L 84.946775 56.728195 
L 89.591856 59.0696 
L 91.201538 59.581262 
L 92.581266 59.786631 
L 93.82302 59.750571 
L 95.018784 59.49682 
L 96.214547 59.01691 
L 97.456302 58.276907 
L 98.790038 57.217332 
L 100.261747 55.758722 
L 102.055393 53.645374 
L 104.676875 50.160456 
L 107.896238 45.947529 
L 109.551911 44.138547 
L 110.885647 42.989205 
L 112.03542 42.274438 
L 113.093211 41.875645 
L 114.05902 41.748161 
L 114.978838 41.84912 
L 115.898656 42.17455 
L 116.864466 42.761447 
L 117.876266 43.644403 
L 118.980047 44.911732 
L 120.221802 46.694284 
L 121.64752 49.157148 
L 123.349184 52.569816 
L 125.786702 58.017205 
L 129.465975 66.212483 
L 131.121647 69.358172 
L 132.455384 71.449916 
L 133.605156 72.859527 
L 134.616956 73.756154 
L 135.490784 74.248755 
L 136.31862 74.461001 
L 137.100466 74.426163 
L 137.882311 74.158141 
L 138.664156 73.655244 
L 139.537984 72.816787 
L 140.503793 71.557819 
L 141.561584 69.795595 
L 142.757347 67.355793 
L 144.137075 64.019945 
L 145.838738 59.291044 
L 148.368238 51.509783 
L 151.863547 40.850738 
L 153.565211 36.387422 
L 154.898947 33.47131 
L 156.04872 31.465595 
L 157.014529 30.193021 
L 157.888356 29.392999 
L 158.670202 28.975015 
L 159.360066 28.847463 
L 160.049929 28.950398 
L 160.739793 29.28579 
L 161.475647 29.899547 
L 162.303484 30.902219 
L 163.223302 32.393941 
L 164.235102 34.473039 
L 165.430866 37.477651 
L 166.810593 41.592646 
L 168.512256 47.430129 
L 170.995766 56.859902 
L 174.583056 70.388786 
L 176.28472 75.919912 
L 177.618456 79.554016 
L 178.768229 82.077173 
L 179.734038 83.703372 
L 180.607866 84.755141 
L 181.34372 85.316166 
L 181.987593 85.556062 
L 182.631466 85.557537 
L 183.275338 85.318546 
L 183.919211 84.838935 
L 184.655066 83.998501 
L 185.482902 82.687326 
L 186.40272 80.791824 
L 187.460511 78.073195 
L 188.656275 74.367041 
L 190.081993 69.193404 
L 191.875638 61.794217 
L 195.140993 47.142456 
L 197.670493 36.292711 
L 199.326166 30.141446 
L 200.659902 26.008176 
L 201.763684 23.259714 
L 202.729493 21.414395 
L 203.557329 20.2789 
L 204.293184 19.631187 
L 204.937056 19.351306 
L 205.534938 19.334847 
L 206.13282 19.554381 
L 206.776693 20.054595 
L 207.466556 20.891614 
L 208.248402 22.209906 
L 209.122229 24.133355 
L 210.134029 26.923367 
L 211.283802 30.767899 
L 212.663529 36.206897 
L 214.365193 43.893046 
L 216.940684 56.716093 
L 220.29802 73.241462 
L 221.999684 80.513962 
L 223.379411 85.475859 
L 224.529184 88.822861 
L 225.494993 91.009199 
L 226.322829 92.393692 
L 227.058684 93.22691 
L 227.702556 93.640211 
L 228.254447 93.756035 
L 228.806338 93.65002 
L 229.358229 93.321828 
L 230.002102 92.659451 
L 230.691966 91.619874 
L 231.519802 89.932531 
L 232.43962 87.51695 
L 233.497411 84.079308 
L 234.739166 79.230931 
L 236.210875 72.523807 
L 238.096502 62.810924 
L 244.489238 28.95056 
L 245.914956 23.008604 
L 247.11072 18.899186 
L 248.12252 16.138282 
L 248.996347 14.329786 
L 249.778193 13.189379 
L 250.422066 12.600508 
L 251.019947 12.342712 
L 251.571838 12.354076 
L 252.123729 12.60568 
L 252.721611 13.148674 
L 253.365484 14.044892 
L 254.101338 15.457322 
L 254.975166 17.655386 
L 255.940975 20.709543 
L 257.090747 25.132962 
L 258.424484 31.204656 
L 260.080156 39.863655 
L 262.79362 55.505259 
L 266.731602 77.841501 
L 268.341284 85.590263 
L 269.62903 90.776927 
L 270.732812 94.366427 
L 271.698621 96.785981 
L 272.158437 97.537082 
L 272.572355 97.684743 
L 273.676137 97.75929 
L 275.8837 97.69259 
L 276.381863 97.514157 
L 276.649858 97.065968 
L 277.431703 95.39877 
L 278.305531 92.977916 
L 279.317331 89.4809 
L 280.467103 84.681129 
L 281.846831 77.918264 
L 283.617739 68.011921 
L 290.730622 27.267526 
L 292.202331 20.449453 
L 293.398095 15.886019 
L 294.455886 12.690778 
L 294.920656 11.746899 
L 295.288584 11.600658 
L 296.300384 11.522502 
L 299.427766 11.563658 
L 300.071638 11.718707 
L 300.255914 12.010267 
L 301.18189 14.248887 
L 302.101709 17.123501 
L 303.1595 21.179177 
L 304.401254 26.856329 
L 305.918954 34.913344 
L 309.68328 56.842701 
L 314.139676 82.233458 
L 315.611385 89.129328 
L 316.807149 93.738662 
L 317.818949 96.837777 
L 318.186118 97.560212 
L 318.554045 97.705683 
L 319.565845 97.781275 
L 322.969172 97.736564 
L 323.567054 97.585715 
L 323.736136 97.314782 
L 324.796002 94.610227 
L 325.761811 91.398593 
L 326.865592 86.920911 
L 328.153338 80.73807 
L 329.769416 71.802337 
L 337.792943 25.705448 
L 339.17267 19.377093 
L 340.368434 14.888264 
L 341.358131 11.985745 
L 341.603673 11.692391 
L 342.063582 11.567767 
L 343.397318 11.513795 
L 346.708664 11.616348 
L 347.040774 11.802202 
L 347.430855 12.691655 
L 348.304682 15.090451 
L 349.270491 18.41973 
L 350.420264 23.233953 
L 351.754001 29.827735 
L 353.491584 39.649741 
L 361.058025 83.198482 
L 362.483743 89.804451 
L 363.679507 94.32959 
L 364.683992 97.299157 
L 364.930173 97.604635 
L 365.390082 97.731941 
L 366.723818 97.786247 
L 370.035163 97.68158 
L 370.361581 97.489481 
L 370.842619 96.370154 
L 371.716446 93.896995 
L 372.728246 90.308505 
L 373.878019 85.369865 
L 375.257746 78.401664 
L 377.194132 67.305584 
L 384.311079 26.318935 
L 385.736797 19.66727 
L 386.93256 15.105047 
L 387.925936 12.124279 
L 388.184509 11.721323 
L 388.598428 11.580995 
L 389.7482 11.515349 
L 393.151528 11.591071 
L 393.596749 11.779192 
L 393.828567 12.286373 
L 394.645712 14.404667 
L 395.611521 17.580685 
L 396.715303 22.034543 
L 398.003048 28.210124 
L 399.581235 36.93991 
L 407.768765 84.029045 
L 409.148492 90.315084 
L 410.298265 94.58512 
L 411.239092 97.320857 
L 411.487655 97.61112 
L 411.993555 97.738295 
L 413.465265 97.786347 
L 416.500665 97.680998 
L 416.826963 97.488893 
L 417.302425 96.387051 
L 418.176252 93.9207 
L 419.188052 90.33507 
L 420.337825 85.39413 
L 421.717552 78.417341 
L 423.651279 67.326629 
L 430.800797 26.146078 
L 432.180525 19.714397 
L 433.376288 15.14976 
L 434.373961 12.160987 
L 434.658094 11.715328 
L 435.072013 11.580452 
L 436.267776 11.515332 
L 439.533131 11.59291 
L 439.947049 11.751391 
L 440.132815 12.124835 
L 440.937602 14.151969 
L 441.85742 17.094854 
L 442.915211 21.247199 
L 444.156965 27.055118 
L 445.674665 35.282985 
L 454.682467 86.617341 
L 455.970212 92.075964 
L 457.073994 95.82025 
L 457.730347 97.490923 
L 458.052283 97.678557 
L 458.834128 97.770214 
L 461.639574 97.778677 
L 462.927319 97.641748 
L 463.143734 97.458965 
L 464.021015 95.296015 
L 464.940833 92.394502 
L 465.998624 88.284664 
L 467.240378 82.518956 
L 468.758078 74.330425 
L 475.209018 36.601628 
L 477.137867 25.992318 
L 478.517594 19.591832 
L 479.667367 15.219722 
L 480.679167 12.195739 
L 480.967379 11.723996 
L 481.381297 11.583401 
L 482.53107 11.516521 
L 485.750433 11.590511 
L 486.201054 11.769358 
L 486.42174 12.234245 
L 487.21963 14.261184 
L 488.139448 17.222452 
L 489.197239 21.395743 
L 490.438993 27.22661 
L 491.973552 35.575115 
L 500.820962 86.103855 
L 502.108708 91.645578 
L 503.212489 95.467559 
L 503.993703 97.49263 
L 504.315639 97.677935 
L 505.097485 97.769323 
L 507.856939 97.777206 
L 509.098694 97.646723 
L 509.323328 97.472866 
L 509.986116 95.908362 
L 510.859943 93.331323 
L 511.871743 89.623398 
L 513.067507 84.335365 
L 514.493225 76.941515 
L 516.98447 62.486544 
L 523.276159 26.293919 
L 524.655886 19.851116 
L 525.85165 15.284096 
L 526.86345 12.260646 
L 527.182181 11.722277 
L 527.596099 11.583839 
L 528.745872 11.517069 
L 531.873254 11.587809 
L 532.333163 11.754978 
L 532.522025 12.131103 
L 533.35541 14.217333 
L 534.275228 17.159386 
L 535.333019 21.313293 
L 536.574774 27.125162 
L 538.092474 35.358466 
L 538.249858 36.269687 
L 538.249858 36.269687 
" style="fill:none;stroke:#ffff00;stroke-linecap:square;stroke-width:1.5;"/>
   </g>
   <g id="line2d_12">
    <path clip-path="url(#pa0087aa6c9)" d="M 78.340767 54.65015 
L 78.476308 54.541201 
L 81.083538 52.518464 
L 82.69322 51.542455 
L 84.026956 50.979542 
L 85.22272 50.702302 
L 86.372493 50.659089 
L 87.522266 50.844984 
L 88.672038 51.260949 
L 89.913793 51.959084 
L 91.247529 52.97212 
L 92.81122 54.451329 
L 94.880811 56.742988 
L 99.38792 61.824455 
L 100.90562 63.157913 
L 102.193366 64.003982 
L 103.297147 64.476817 
L 104.308947 64.680581 
L 105.274756 64.654972 
L 106.240566 64.405056 
L 107.206375 63.9266 
L 108.264166 63.141516 
L 109.413938 61.988354 
L 110.655693 60.415717 
L 112.081411 58.241217 
L 113.829066 55.151925 
L 116.680502 49.579504 
L 119.439956 44.350573 
L 121.095629 41.676772 
L 122.429366 39.932886 
L 123.533147 38.832313 
L 124.498956 38.158253 
L 125.372784 37.80015 
L 126.20062 37.693329 
L 126.982466 37.806974 
L 127.810302 38.158486 
L 128.684129 38.788403 
L 129.603947 39.735246 
L 130.615747 41.102394 
L 131.76552 43.046068 
L 133.099256 45.769361 
L 134.662947 49.496708 
L 136.778529 55.174851 
L 141.653566 68.480431 
L 143.217256 72.010275 
L 144.505002 74.398867 
L 145.608784 75.996608 
L 146.574593 77.012776 
L 147.402429 77.578748 
L 148.138284 77.83437 
L 148.828147 77.856472 
L 149.518011 77.664694 
L 150.253866 77.223012 
L 151.035711 76.486751 
L 151.909538 75.343985 
L 152.875347 73.701522 
L 153.979129 71.36521 
L 155.266875 68.07976 
L 156.784575 63.555511 
L 158.762184 56.897743 
L 164.511047 37.081088 
L 165.982756 33.005547 
L 167.224511 30.18118 
L 168.282302 28.296269 
L 169.20212 27.087756 
L 169.983966 26.395829 
L 170.673829 26.051443 
L 171.317702 25.960548 
L 171.961575 26.095211 
L 172.605447 26.456514 
L 173.341302 27.145928 
L 174.123147 28.197128 
L 174.996975 29.749935 
L 176.008775 32.023184 
L 177.158547 35.179268 
L 178.492284 39.513078 
L 180.147956 45.700985 
L 182.539484 55.622026 
L 186.356729 71.439754 
L 188.012402 77.34403 
L 189.346138 81.344447 
L 190.495911 84.128089 
L 191.46172 85.928825 
L 192.289556 87.050759 
L 193.025411 87.705375 
L 193.669284 88.005696 
L 194.267166 88.052902 
L 194.865047 87.875137 
L 195.50892 87.431811 
L 196.198784 86.668853 
L 196.980629 85.449961 
L 197.854456 83.655591 
L 198.866256 81.03631 
L 200.016029 77.409513 
L 201.349766 72.442168 
L 203.005438 65.368533 
L 205.442956 53.83823 
L 209.122229 36.496442 
L 210.823893 29.573868 
L 212.157629 25.008269 
L 213.307402 21.818305 
L 214.273211 19.740759 
L 215.101047 18.431618 
L 215.836902 17.650956 
L 216.480775 17.272233 
L 217.078656 17.179198 
L 217.630547 17.316129 
L 218.228429 17.706113 
L 218.872302 18.405558 
L 219.608156 19.554762 
L 220.435993 21.282093 
L 221.401802 23.853546 
L 222.505584 27.475362 
L 223.793329 32.521842 
L 225.35702 39.630599 
L 227.426611 50.177779 
L 232.485611 76.400237 
L 234.049302 83.158995 
L 235.337047 87.814581 
L 236.440829 91.02399 
L 237.406638 93.17386 
L 238.234475 94.49358 
L 238.924338 95.209039 
L 239.52222 95.539622 
L 240.074111 95.603076 
L 240.626002 95.433206 
L 241.177893 95.030117 
L 241.821766 94.267083 
L 242.55762 93.014821 
L 243.385456 91.134417 
L 244.351266 88.337733 
L 245.455047 84.402508 
L 246.742793 78.924955 
L 248.306484 71.217636 
L 250.376075 59.797275 
L 255.389084 31.693399 
L 256.998766 24.168569 
L 258.286511 19.144969 
L 259.390293 15.680427 
L 260.310111 13.451953 
L 261.091956 12.080881 
L 261.413893 11.852339 
L 262.103756 11.74149 
L 264.085196 11.696218 
L 264.549478 11.849896 
L 264.845975 12.246108 
L 265.58183 13.587571 
L 266.409666 15.599329 
L 267.375475 18.588352 
L 268.479257 22.790154 
L 269.767002 28.633039 
L 271.330693 36.845705 
L 274.503973 55.180638 
L 278.811431 80.120944 
L 280.329131 87.38282 
L 281.570885 92.327275 
L 282.628676 95.709406 
L 283.295803 97.315164 
L 283.617739 97.486099 
L 284.583548 97.586348 
L 288.078857 97.664407 
L 288.597705 97.535661 
L 288.7748 97.270468 
L 289.948777 94.239278 
L 290.914586 90.967355 
L 292.064359 86.228679 
L 293.398095 79.727154 
L 295.150611 69.959839 
L 298.64592 49.434917 
L 302.101709 29.133375 
L 303.619409 21.665146 
L 304.861163 16.568511 
L 305.918954 13.072398 
L 306.463916 11.822412 
L 306.831843 11.721732 
L 308.625489 11.645166 
L 312.045505 11.669699 
L 312.349383 11.843095 
L 312.621976 12.512484 
L 313.495803 15.005082 
L 314.507603 18.615439 
L 315.657376 23.579134 
L 317.037103 30.579585 
L 319.33589 43.703701 
L 322.785209 64.401058 
L 325.301902 79.281396 
L 326.865592 87.192366 
L 328.153338 92.627636 
L 329.25712 96.364563 
L 329.740302 97.500702 
L 330.067356 97.615986 
L 331.585056 97.673871 
L 335.502183 97.648835 
L 335.854908 97.470913 
L 336.059934 96.946609 
L 336.919116 94.441263 
L 337.930916 90.766401 
L 339.080689 85.723503 
L 340.460416 78.623978 
L 342.891418 64.605357 
L 346.386727 43.411229 
L 348.626619 30.126219 
L 350.19031 22.140279 
L 351.478055 16.650863 
L 352.581837 12.874825 
L 353.066805 11.773945 
L 353.399602 11.657082 
L 354.82532 11.608663 
L 358.914515 11.647304 
L 359.269616 11.823708 
L 359.464469 12.337186 
L 360.368161 15.054586 
L 361.379961 18.839297 
L 362.575725 24.227265 
L 364.001443 31.754017 
L 366.999763 49.318234 
L 373.142164 85.528079 
L 374.4759 91.518992 
L 375.625673 95.704348 
L 376.296608 97.491915 
L 376.642241 97.6498 
L 377.562059 97.696601 
L 382.159545 97.672989 
L 382.573463 97.521791 
L 382.709985 97.211783 
L 383.89716 93.523343 
L 384.954951 89.339623 
L 386.196706 83.465896 
L 387.714406 75.116009 
L 392.231709 47.9774 
L 395.381567 29.020639 
L 396.899267 21.350264 
L 398.141021 16.129482 
L 399.198812 12.561282 
L 399.581235 11.767121 
L 399.97477 11.629741 
L 401.124543 11.588201 
L 405.500184 11.636931 
L 405.868112 11.795302 
L 406.016798 12.17573 
L 406.940929 15.010447 
L 407.952729 18.868384 
L 409.148492 24.347005 
L 410.574211 31.981971 
L 413.695219 50.487202 
L 419.418007 84.621186 
L 420.797734 90.994666 
L 421.947507 95.31553 
L 422.698918 97.457508 
L 423.020855 97.639672 
L 423.743261 97.710061 
L 428.449307 97.703313 
L 429.047189 97.548146 
L 429.188847 97.27773 
L 429.972961 94.906507 
L 430.984761 91.160228 
L 432.134534 86.017206 
L 433.514261 78.778685 
L 435.899849 64.743072 
L 439.48714 42.585181 
L 441.535484 30.297118 
L 443.099175 22.184803 
L 444.38692 16.614258 
L 445.490702 12.788325 
L 445.920245 11.788045 
L 446.288172 11.636896 
L 447.143713 11.58009 
L 451.769228 11.613275 
L 452.275128 11.798085 
L 452.421375 12.186774 
L 453.348731 15.084895 
L 454.406521 19.200131 
L 455.602285 24.786568 
L 457.073994 32.803446 
L 460.581783 53.863977 
L 465.400742 82.925378 
L 466.82646 89.798496 
L 468.022224 94.525705 
L 468.957356 97.395398 
L 469.233302 97.610934 
L 469.867435 97.714086 
L 473.362744 97.745951 
L 475.163027 97.639806 
L 475.450862 97.452664 
L 475.804131 96.422036 
L 476.723949 93.359543 
L 477.78174 89.045701 
L 479.023494 83.021274 
L 480.541194 74.500427 
L 485.290524 45.487056 
L 487.863502 29.893011 
L 489.427193 21.826471 
L 490.714939 16.313637 
L 491.77273 12.688026 
L 492.153589 11.801605 
L 492.521516 11.640069 
L 493.388294 11.572641 
L 497.993734 11.608201 
L 498.499634 11.765898 
L 498.629796 12.05119 
L 500.591008 18.962161 
L 501.786771 24.530577 
L 503.212489 32.269896 
L 506.339239 51.037733 
L 511.779761 83.835447 
L 513.159489 90.366036 
L 514.309261 94.824532 
L 515.150797 97.382508 
L 515.426742 97.607907 
L 516.064651 97.717887 
L 518.778115 97.747809 
L 521.336698 97.647379 
L 521.640635 97.471507 
L 521.850441 96.863793 
L 522.770259 93.894559 
L 523.82805 89.675839 
L 525.069804 83.744327 
L 526.541514 75.578438 
L 530.447536 51.852285 
L 534.321219 28.269729 
L 535.792928 20.876083 
L 537.034683 15.713553 
L 538.092474 12.222116 
L 538.249858 11.875547 
L 538.249858 11.875547 
" style="fill:none;stroke:#008000;stroke-linecap:square;stroke-width:1.5;"/>
   </g>
   <g id="line2d_13">
    <path clip-path="url(#pa0087aa6c9)" d="M 78.340767 54.650188 
L 82.831193 52.806833 
L 85.268711 52.0523 
L 87.384293 51.626606 
L 89.361902 51.455096 
L 91.29352 51.511363 
L 93.271129 51.793989 
L 95.386711 52.324915 
L 97.87022 53.190067 
L 101.549493 54.743466 
L 105.826647 56.493542 
L 108.264166 57.248075 
L 110.379747 57.67377 
L 112.357356 57.84528 
L 114.288975 57.789012 
L 116.266584 57.506386 
L 118.382166 56.975461 
L 120.865675 56.110308 
L 124.544947 54.556909 
L 128.822102 52.806833 
L 131.25962 52.0523 
L 133.375202 51.626606 
L 135.352811 51.455096 
L 137.284429 51.511363 
L 139.262038 51.793989 
L 141.37762 52.324915 
L 143.861129 53.190067 
L 147.540402 54.743466 
L 151.817556 56.493542 
L 154.255075 57.248075 
L 156.370656 57.67377 
L 158.348266 57.84528 
L 160.279884 57.789012 
L 162.257493 57.506386 
L 164.373075 56.975461 
L 166.856584 56.110308 
L 170.535856 54.556909 
L 174.813011 52.806833 
L 177.250529 52.0523 
L 179.366111 51.626606 
L 181.34372 51.455096 
L 183.275338 51.511363 
L 185.252947 51.793989 
L 187.368529 52.324915 
L 189.852038 53.190067 
L 193.531311 54.743466 
L 197.808466 56.493542 
L 200.245984 57.248075 
L 202.361566 57.67377 
L 204.339175 57.84528 
L 206.270793 57.789012 
L 208.248402 57.506386 
L 210.363984 56.975461 
L 212.847493 56.110308 
L 216.526766 54.556909 
L 220.80392 52.806833 
L 223.241438 52.0523 
L 225.35702 51.626606 
L 227.334629 51.455096 
L 229.266247 51.511363 
L 231.243856 51.793989 
L 233.359438 52.324915 
L 235.842947 53.190067 
L 239.52222 54.743466 
L 243.799375 56.493542 
L 246.236893 57.248075 
L 248.352475 57.67377 
L 250.330084 57.84528 
L 252.261702 57.789012 
L 254.239311 57.506386 
L 256.354893 56.975461 
L 258.838402 56.110308 
L 262.517675 54.556909 
L 266.777593 52.813003 
L 269.215112 52.056715 
L 271.330693 51.629095 
L 273.308209 51.455598 
L 275.239828 51.509875 
L 277.201749 51.78749 
L 279.317331 52.31501 
L 281.754849 53.159395 
L 285.319403 54.658737 
L 289.764813 56.484421 
L 292.202331 57.241547 
L 294.317913 57.670085 
L 296.300384 57.84468 
L 298.232002 57.79078 
L 300.221472 57.508114 
L 302.331663 56.979708 
L 304.769181 56.133667 
L 308.349543 54.626465 
L 312.759949 52.816069 
L 315.197467 52.058911 
L 317.313049 51.630336 
L 319.2899 51.455872 
L 321.221518 51.509091 
L 323.199127 51.788759 
L 325.301902 52.313113 
L 327.73942 53.156942 
L 331.30911 54.658212 
L 335.778128 56.492446 
L 338.206861 57.245042 
L 340.322443 57.67206 
L 342.293536 57.844747 
L 344.225155 57.790589 
L 346.202764 57.510008 
L 348.304682 56.98507 
L 350.742201 56.140598 
L 354.31942 54.635666 
L 358.776542 52.806871 
L 361.195998 52.056954 
L 363.311579 51.62923 
L 365.2981 51.455362 
L 367.229718 51.510566 
L 369.207327 51.792161 
L 371.348519 52.329838 
L 373.832028 53.196437 
L 377.516068 54.752701 
L 381.78167 56.496963 
L 384.219097 57.250496 
L 386.334679 57.675131 
L 388.322482 57.845828 
L 390.2541 57.787301 
L 392.231709 57.502487 
L 394.369767 56.962748 
L 396.853276 56.093876 
L 400.572652 54.520952 
L 404.794009 52.797384 
L 407.216874 52.049286 
L 409.332456 51.624911 
L 411.303692 51.454942 
L 413.23531 51.511833 
L 415.212919 51.795062 
L 417.348416 52.332549 
L 419.831925 53.199941 
L 423.513307 54.755468 
L 427.74447 56.486905 
L 430.202916 57.248685 
L 432.318497 57.674113 
L 434.296106 57.845347 
L 436.221785 57.789319 
L 438.199394 57.507089 
L 440.33972 56.969078 
L 442.823229 56.102052 
L 446.49984 54.548807 
L 450.776995 52.800212 
L 453.210758 52.048528 
L 455.32634 51.624485 
L 457.303949 51.454682 
L 459.248047 51.513739 
L 461.225656 51.799397 
L 463.331151 52.330083 
L 465.81466 53.196755 
L 469.509247 54.757668 
L 473.730671 56.485217 
L 476.172058 57.24311 
L 478.28764 57.67097 
L 480.265249 57.844717 
L 482.209133 57.789625 
L 484.186742 57.507792 
L 486.332115 56.96863 
L 488.783321 56.114054 
L 492.429534 54.575574 
L 496.745631 52.808173 
L 499.165289 52.057835 
L 501.280871 51.629728 
L 503.25848 51.455724 
L 505.189467 51.509457 
L 507.167076 51.789606 
L 509.302609 52.324228 
L 511.73377 53.16884 
L 515.334761 54.685338 
L 519.743924 56.493218 
L 522.172377 57.245523 
L 524.287959 57.672332 
L 526.265568 57.844993 
L 528.193981 57.790145 
L 530.17159 57.508987 
L 532.287172 56.979419 
L 534.735137 56.129242 
L 538.249858 54.650188 
L 538.249858 54.650188 
" style="fill:none;stroke:#0000ff;stroke-linecap:square;stroke-width:1.5;"/>
   </g>
   <g id="patch_3">
    <path d="M 55.345313 102.1 
L 55.345313 7.2 
" style="fill:none;stroke:#000000;stroke-linecap:square;stroke-linejoin:miter;stroke-width:0.8;"/>
   </g>
   <g id="patch_4">
    <path d="M 561.245312 102.1 
L 561.245312 7.2 
" style="fill:none;stroke:#000000;stroke-linecap:square;stroke-linejoin:miter;stroke-width:0.8;"/>
   </g>
   <g id="patch_5">
    <path d="M 55.345313 102.1 
L 561.245313 102.1 
" style="fill:none;stroke:#000000;stroke-linecap:square;stroke-linejoin:miter;stroke-width:0.8;"/>
   </g>
   <g id="patch_6">
    <path d="M 55.345313 7.2 
L 561.245313 7.2 
" style="fill:none;stroke:#000000;stroke-linecap:square;stroke-linejoin:miter;stroke-width:0.8;"/>
   </g>
  </g>
  <g id="axes_2">
   <g id="patch_7">
    <path d="M 55.345313 238.8 
L 561.245312 238.8 
L 561.245312 143.9 
L 55.345313 143.9 
z
" style="fill:#ffffff;"/>
   </g>
   <g id="matplotlib.axis_3">
    <g id="xtick_7">
     <g id="line2d_14">
      <path clip-path="url(#p24d1918a48)" d="M 78.340767 238.8 
L 78.340767 143.9 
" style="fill:none;stroke:#b0b0b0;stroke-linecap:square;stroke-width:0.8;"/>
     </g>
     <g id="line2d_15">
      <g>
       <use style="stroke:#000000;stroke-width:0.8;" x="78.340767" xlink:href="#m49e68140f7" y="238.8"/>
      </g>
     </g>
     <g id="text_12">
      <!-- $\mathdefault{10^{0}}$ -->
      <g transform="translate(69.540767 253.398438)scale(0.1 -0.1)">
       <use transform="translate(0 0.765625)" xlink:href="#DejaVuSans-31"/>
       <use transform="translate(63.623047 0.765625)" xlink:href="#DejaVuSans-30"/>
       <use transform="translate(128.203125 39.046875)scale(0.7)" xlink:href="#DejaVuSans-30"/>
      </g>
     </g>
    </g>
    <g id="xtick_8">
     <g id="line2d_16">
      <path clip-path="url(#p24d1918a48)" d="M 185.29637 238.8 
L 185.29637 143.9 
" style="fill:none;stroke:#b0b0b0;stroke-linecap:square;stroke-width:0.8;"/>
     </g>
     <g id="line2d_17">
      <g>
       <use style="stroke:#000000;stroke-width:0.8;" x="185.29637" xlink:href="#m49e68140f7" y="238.8"/>
      </g>
     </g>
     <g id="text_13">
      <!-- $\mathdefault{10^{1}}$ -->
      <g transform="translate(176.49637 253.398438)scale(0.1 -0.1)">
       <use transform="translate(0 0.684375)" xlink:href="#DejaVuSans-31"/>
       <use transform="translate(63.623047 0.684375)" xlink:href="#DejaVuSans-30"/>
       <use transform="translate(128.203125 38.965625)scale(0.7)" xlink:href="#DejaVuSans-31"/>
      </g>
     </g>
    </g>
    <g id="xtick_9">
     <g id="line2d_18">
      <path clip-path="url(#p24d1918a48)" d="M 292.251972 238.8 
L 292.251972 143.9 
" style="fill:none;stroke:#b0b0b0;stroke-linecap:square;stroke-width:0.8;"/>
     </g>
     <g id="line2d_19">
      <g>
       <use style="stroke:#000000;stroke-width:0.8;" x="292.251972" xlink:href="#m49e68140f7" y="238.8"/>
      </g>
     </g>
     <g id="text_14">
      <!-- $\mathdefault{10^{2}}$ -->
      <g transform="translate(283.451972 253.398438)scale(0.1 -0.1)">
       <use transform="translate(0 0.765625)" xlink:href="#DejaVuSans-31"/>
       <use transform="translate(63.623047 0.765625)" xlink:href="#DejaVuSans-30"/>
       <use transform="translate(128.203125 39.046875)scale(0.7)" xlink:href="#DejaVuSans-32"/>
      </g>
     </g>
    </g>
    <g id="xtick_10">
     <g id="line2d_20">
      <path clip-path="url(#p24d1918a48)" d="M 399.207575 238.8 
L 399.207575 143.9 
" style="fill:none;stroke:#b0b0b0;stroke-linecap:square;stroke-width:0.8;"/>
     </g>
     <g id="line2d_21">
      <g>
       <use style="stroke:#000000;stroke-width:0.8;" x="399.207575" xlink:href="#m49e68140f7" y="238.8"/>
      </g>
     </g>
     <g id="text_15">
      <!-- $\mathdefault{10^{3}}$ -->
      <g transform="translate(390.407575 253.398438)scale(0.1 -0.1)">
       <defs>
        <path d="M 2597 2516 
Q 3050 2419 3304 2112 
Q 3559 1806 3559 1356 
Q 3559 666 3084 287 
Q 2609 -91 1734 -91 
Q 1441 -91 1130 -33 
Q 819 25 488 141 
L 488 750 
Q 750 597 1062 519 
Q 1375 441 1716 441 
Q 2309 441 2620 675 
Q 2931 909 2931 1356 
Q 2931 1769 2642 2001 
Q 2353 2234 1838 2234 
L 1294 2234 
L 1294 2753 
L 1863 2753 
Q 2328 2753 2575 2939 
Q 2822 3125 2822 3475 
Q 2822 3834 2567 4026 
Q 2313 4219 1838 4219 
Q 1578 4219 1281 4162 
Q 984 4106 628 3988 
L 628 4550 
Q 988 4650 1302 4700 
Q 1616 4750 1894 4750 
Q 2613 4750 3031 4423 
Q 3450 4097 3450 3541 
Q 3450 3153 3228 2886 
Q 3006 2619 2597 2516 
z
" id="DejaVuSans-33" transform="scale(0.015625)"/>
       </defs>
       <use transform="translate(0 0.765625)" xlink:href="#DejaVuSans-31"/>
       <use transform="translate(63.623047 0.765625)" xlink:href="#DejaVuSans-30"/>
       <use transform="translate(128.203125 39.046875)scale(0.7)" xlink:href="#DejaVuSans-33"/>
      </g>
     </g>
    </g>
    <g id="xtick_11">
     <g id="line2d_22">
      <path clip-path="url(#p24d1918a48)" d="M 506.163177 238.8 
L 506.163177 143.9 
" style="fill:none;stroke:#b0b0b0;stroke-linecap:square;stroke-width:0.8;"/>
     </g>
     <g id="line2d_23">
      <g>
       <use style="stroke:#000000;stroke-width:0.8;" x="506.163177" xlink:href="#m49e68140f7" y="238.8"/>
      </g>
     </g>
     <g id="text_16">
      <!-- $\mathdefault{10^{4}}$ -->
      <g transform="translate(497.363177 253.398438)scale(0.1 -0.1)">
       <use transform="translate(0 0.684375)" xlink:href="#DejaVuSans-31"/>
       <use transform="translate(63.623047 0.684375)" xlink:href="#DejaVuSans-30"/>
       <use transform="translate(128.203125 38.965625)scale(0.7)" xlink:href="#DejaVuSans-34"/>
      </g>
     </g>
    </g>
    <g id="xtick_12">
     <g id="line2d_24">
      <path clip-path="url(#p24d1918a48)" d="M 61.773135 238.8 
L 61.773135 143.9 
" style="fill:none;stroke:#b0b0b0;stroke-linecap:square;stroke-width:0.8;"/>
     </g>
     <g id="line2d_25">
      <defs>
       <path d="M 0 0 
L 0 2 
" id="m17c8e0fc18" style="stroke:#000000;stroke-width:0.6;"/>
      </defs>
      <g>
       <use style="stroke:#000000;stroke-width:0.6;" x="61.773135" xlink:href="#m17c8e0fc18" y="238.8"/>
      </g>
     </g>
    </g>
    <g id="xtick_13">
     <g id="line2d_26">
      <path clip-path="url(#p24d1918a48)" d="M 67.975698 238.8 
L 67.975698 143.9 
" style="fill:none;stroke:#b0b0b0;stroke-linecap:square;stroke-width:0.8;"/>
     </g>
     <g id="line2d_27">
      <g>
       <use style="stroke:#000000;stroke-width:0.6;" x="67.975698" xlink:href="#m17c8e0fc18" y="238.8"/>
      </g>
     </g>
    </g>
    <g id="xtick_14">
     <g id="line2d_28">
      <path clip-path="url(#p24d1918a48)" d="M 73.446747 238.8 
L 73.446747 143.9 
" style="fill:none;stroke:#b0b0b0;stroke-linecap:square;stroke-width:0.8;"/>
     </g>
     <g id="line2d_29">
      <g>
       <use style="stroke:#000000;stroke-width:0.6;" x="73.446747" xlink:href="#m17c8e0fc18" y="238.8"/>
      </g>
     </g>
    </g>
    <g id="xtick_15">
     <g id="line2d_30">
      <path clip-path="url(#p24d1918a48)" d="M 110.537612 238.8 
L 110.537612 143.9 
" style="fill:none;stroke:#b0b0b0;stroke-linecap:square;stroke-width:0.8;"/>
     </g>
     <g id="line2d_31">
      <g>
       <use style="stroke:#000000;stroke-width:0.6;" x="110.537612" xlink:href="#m17c8e0fc18" y="238.8"/>
      </g>
     </g>
    </g>
    <g id="xtick_16">
     <g id="line2d_32">
      <path clip-path="url(#p24d1918a48)" d="M 129.371558 238.8 
L 129.371558 143.9 
" style="fill:none;stroke:#b0b0b0;stroke-linecap:square;stroke-width:0.8;"/>
     </g>
     <g id="line2d_33">
      <g>
       <use style="stroke:#000000;stroke-width:0.6;" x="129.371558" xlink:href="#m17c8e0fc18" y="238.8"/>
      </g>
     </g>
    </g>
    <g id="xtick_17">
     <g id="line2d_34">
      <path clip-path="url(#p24d1918a48)" d="M 142.734456 238.8 
L 142.734456 143.9 
" style="fill:none;stroke:#b0b0b0;stroke-linecap:square;stroke-width:0.8;"/>
     </g>
     <g id="line2d_35">
      <g>
       <use style="stroke:#000000;stroke-width:0.6;" x="142.734456" xlink:href="#m17c8e0fc18" y="238.8"/>
      </g>
     </g>
    </g>
    <g id="xtick_18">
     <g id="line2d_36">
      <path clip-path="url(#p24d1918a48)" d="M 153.099525 238.8 
L 153.099525 143.9 
" style="fill:none;stroke:#b0b0b0;stroke-linecap:square;stroke-width:0.8;"/>
     </g>
     <g id="line2d_37">
      <g>
       <use style="stroke:#000000;stroke-width:0.6;" x="153.099525" xlink:href="#m17c8e0fc18" y="238.8"/>
      </g>
     </g>
    </g>
    <g id="xtick_19">
     <g id="line2d_38">
      <path clip-path="url(#p24d1918a48)" d="M 161.568403 238.8 
L 161.568403 143.9 
" style="fill:none;stroke:#b0b0b0;stroke-linecap:square;stroke-width:0.8;"/>
     </g>
     <g id="line2d_39">
      <g>
       <use style="stroke:#000000;stroke-width:0.6;" x="161.568403" xlink:href="#m17c8e0fc18" y="238.8"/>
      </g>
     </g>
    </g>
    <g id="xtick_20">
     <g id="line2d_40">
      <path clip-path="url(#p24d1918a48)" d="M 168.728737 238.8 
L 168.728737 143.9 
" style="fill:none;stroke:#b0b0b0;stroke-linecap:square;stroke-width:0.8;"/>
     </g>
     <g id="line2d_41">
      <g>
       <use style="stroke:#000000;stroke-width:0.6;" x="168.728737" xlink:href="#m17c8e0fc18" y="238.8"/>
      </g>
     </g>
    </g>
    <g id="xtick_21">
     <g id="line2d_42">
      <path clip-path="url(#p24d1918a48)" d="M 174.931301 238.8 
L 174.931301 143.9 
" style="fill:none;stroke:#b0b0b0;stroke-linecap:square;stroke-width:0.8;"/>
     </g>
     <g id="line2d_43">
      <g>
       <use style="stroke:#000000;stroke-width:0.6;" x="174.931301" xlink:href="#m17c8e0fc18" y="238.8"/>
      </g>
     </g>
    </g>
    <g id="xtick_22">
     <g id="line2d_44">
      <path clip-path="url(#p24d1918a48)" d="M 180.40235 238.8 
L 180.40235 143.9 
" style="fill:none;stroke:#b0b0b0;stroke-linecap:square;stroke-width:0.8;"/>
     </g>
     <g id="line2d_45">
      <g>
       <use style="stroke:#000000;stroke-width:0.6;" x="180.40235" xlink:href="#m17c8e0fc18" y="238.8"/>
      </g>
     </g>
    </g>
    <g id="xtick_23">
     <g id="line2d_46">
      <path clip-path="url(#p24d1918a48)" d="M 217.493214 238.8 
L 217.493214 143.9 
" style="fill:none;stroke:#b0b0b0;stroke-linecap:square;stroke-width:0.8;"/>
     </g>
     <g id="line2d_47">
      <g>
       <use style="stroke:#000000;stroke-width:0.6;" x="217.493214" xlink:href="#m17c8e0fc18" y="238.8"/>
      </g>
     </g>
    </g>
    <g id="xtick_24">
     <g id="line2d_48">
      <path clip-path="url(#p24d1918a48)" d="M 236.327161 238.8 
L 236.327161 143.9 
" style="fill:none;stroke:#b0b0b0;stroke-linecap:square;stroke-width:0.8;"/>
     </g>
     <g id="line2d_49">
      <g>
       <use style="stroke:#000000;stroke-width:0.6;" x="236.327161" xlink:href="#m17c8e0fc18" y="238.8"/>
      </g>
     </g>
    </g>
    <g id="xtick_25">
     <g id="line2d_50">
      <path clip-path="url(#p24d1918a48)" d="M 249.690059 238.8 
L 249.690059 143.9 
" style="fill:none;stroke:#b0b0b0;stroke-linecap:square;stroke-width:0.8;"/>
     </g>
     <g id="line2d_51">
      <g>
       <use style="stroke:#000000;stroke-width:0.6;" x="249.690059" xlink:href="#m17c8e0fc18" y="238.8"/>
      </g>
     </g>
    </g>
    <g id="xtick_26">
     <g id="line2d_52">
      <path clip-path="url(#p24d1918a48)" d="M 260.055128 238.8 
L 260.055128 143.9 
" style="fill:none;stroke:#b0b0b0;stroke-linecap:square;stroke-width:0.8;"/>
     </g>
     <g id="line2d_53">
      <g>
       <use style="stroke:#000000;stroke-width:0.6;" x="260.055128" xlink:href="#m17c8e0fc18" y="238.8"/>
      </g>
     </g>
    </g>
    <g id="xtick_27">
     <g id="line2d_54">
      <path clip-path="url(#p24d1918a48)" d="M 268.524006 238.8 
L 268.524006 143.9 
" style="fill:none;stroke:#b0b0b0;stroke-linecap:square;stroke-width:0.8;"/>
     </g>
     <g id="line2d_55">
      <g>
       <use style="stroke:#000000;stroke-width:0.6;" x="268.524006" xlink:href="#m17c8e0fc18" y="238.8"/>
      </g>
     </g>
    </g>
    <g id="xtick_28">
     <g id="line2d_56">
      <path clip-path="url(#p24d1918a48)" d="M 275.68434 238.8 
L 275.68434 143.9 
" style="fill:none;stroke:#b0b0b0;stroke-linecap:square;stroke-width:0.8;"/>
     </g>
     <g id="line2d_57">
      <g>
       <use style="stroke:#000000;stroke-width:0.6;" x="275.68434" xlink:href="#m17c8e0fc18" y="238.8"/>
      </g>
     </g>
    </g>
    <g id="xtick_29">
     <g id="line2d_58">
      <path clip-path="url(#p24d1918a48)" d="M 281.886903 238.8 
L 281.886903 143.9 
" style="fill:none;stroke:#b0b0b0;stroke-linecap:square;stroke-width:0.8;"/>
     </g>
     <g id="line2d_59">
      <g>
       <use style="stroke:#000000;stroke-width:0.6;" x="281.886903" xlink:href="#m17c8e0fc18" y="238.8"/>
      </g>
     </g>
    </g>
    <g id="xtick_30">
     <g id="line2d_60">
      <path clip-path="url(#p24d1918a48)" d="M 287.357952 238.8 
L 287.357952 143.9 
" style="fill:none;stroke:#b0b0b0;stroke-linecap:square;stroke-width:0.8;"/>
     </g>
     <g id="line2d_61">
      <g>
       <use style="stroke:#000000;stroke-width:0.6;" x="287.357952" xlink:href="#m17c8e0fc18" y="238.8"/>
      </g>
     </g>
    </g>
    <g id="xtick_31">
     <g id="line2d_62">
      <path clip-path="url(#p24d1918a48)" d="M 324.448817 238.8 
L 324.448817 143.9 
" style="fill:none;stroke:#b0b0b0;stroke-linecap:square;stroke-width:0.8;"/>
     </g>
     <g id="line2d_63">
      <g>
       <use style="stroke:#000000;stroke-width:0.6;" x="324.448817" xlink:href="#m17c8e0fc18" y="238.8"/>
      </g>
     </g>
    </g>
    <g id="xtick_32">
     <g id="line2d_64">
      <path clip-path="url(#p24d1918a48)" d="M 343.282764 238.8 
L 343.282764 143.9 
" style="fill:none;stroke:#b0b0b0;stroke-linecap:square;stroke-width:0.8;"/>
     </g>
     <g id="line2d_65">
      <g>
       <use style="stroke:#000000;stroke-width:0.6;" x="343.282764" xlink:href="#m17c8e0fc18" y="238.8"/>
      </g>
     </g>
    </g>
    <g id="xtick_33">
     <g id="line2d_66">
      <path clip-path="url(#p24d1918a48)" d="M 356.645661 238.8 
L 356.645661 143.9 
" style="fill:none;stroke:#b0b0b0;stroke-linecap:square;stroke-width:0.8;"/>
     </g>
     <g id="line2d_67">
      <g>
       <use style="stroke:#000000;stroke-width:0.6;" x="356.645661" xlink:href="#m17c8e0fc18" y="238.8"/>
      </g>
     </g>
    </g>
    <g id="xtick_34">
     <g id="line2d_68">
      <path clip-path="url(#p24d1918a48)" d="M 367.01073 238.8 
L 367.01073 143.9 
" style="fill:none;stroke:#b0b0b0;stroke-linecap:square;stroke-width:0.8;"/>
     </g>
     <g id="line2d_69">
      <g>
       <use style="stroke:#000000;stroke-width:0.6;" x="367.01073" xlink:href="#m17c8e0fc18" y="238.8"/>
      </g>
     </g>
    </g>
    <g id="xtick_35">
     <g id="line2d_70">
      <path clip-path="url(#p24d1918a48)" d="M 375.479608 238.8 
L 375.479608 143.9 
" style="fill:none;stroke:#b0b0b0;stroke-linecap:square;stroke-width:0.8;"/>
     </g>
     <g id="line2d_71">
      <g>
       <use style="stroke:#000000;stroke-width:0.6;" x="375.479608" xlink:href="#m17c8e0fc18" y="238.8"/>
      </g>
     </g>
    </g>
    <g id="xtick_36">
     <g id="line2d_72">
      <path clip-path="url(#p24d1918a48)" d="M 382.639942 238.8 
L 382.639942 143.9 
" style="fill:none;stroke:#b0b0b0;stroke-linecap:square;stroke-width:0.8;"/>
     </g>
     <g id="line2d_73">
      <g>
       <use style="stroke:#000000;stroke-width:0.6;" x="382.639942" xlink:href="#m17c8e0fc18" y="238.8"/>
      </g>
     </g>
    </g>
    <g id="xtick_37">
     <g id="line2d_74">
      <path clip-path="url(#p24d1918a48)" d="M 388.842506 238.8 
L 388.842506 143.9 
" style="fill:none;stroke:#b0b0b0;stroke-linecap:square;stroke-width:0.8;"/>
     </g>
     <g id="line2d_75">
      <g>
       <use style="stroke:#000000;stroke-width:0.6;" x="388.842506" xlink:href="#m17c8e0fc18" y="238.8"/>
      </g>
     </g>
    </g>
    <g id="xtick_38">
     <g id="line2d_76">
      <path clip-path="url(#p24d1918a48)" d="M 394.313555 238.8 
L 394.313555 143.9 
" style="fill:none;stroke:#b0b0b0;stroke-linecap:square;stroke-width:0.8;"/>
     </g>
     <g id="line2d_77">
      <g>
       <use style="stroke:#000000;stroke-width:0.6;" x="394.313555" xlink:href="#m17c8e0fc18" y="238.8"/>
      </g>
     </g>
    </g>
    <g id="xtick_39">
     <g id="line2d_78">
      <path clip-path="url(#p24d1918a48)" d="M 431.404419 238.8 
L 431.404419 143.9 
" style="fill:none;stroke:#b0b0b0;stroke-linecap:square;stroke-width:0.8;"/>
     </g>
     <g id="line2d_79">
      <g>
       <use style="stroke:#000000;stroke-width:0.6;" x="431.404419" xlink:href="#m17c8e0fc18" y="238.8"/>
      </g>
     </g>
    </g>
    <g id="xtick_40">
     <g id="line2d_80">
      <path clip-path="url(#p24d1918a48)" d="M 450.238366 238.8 
L 450.238366 143.9 
" style="fill:none;stroke:#b0b0b0;stroke-linecap:square;stroke-width:0.8;"/>
     </g>
     <g id="line2d_81">
      <g>
       <use style="stroke:#000000;stroke-width:0.6;" x="450.238366" xlink:href="#m17c8e0fc18" y="238.8"/>
      </g>
     </g>
    </g>
    <g id="xtick_41">
     <g id="line2d_82">
      <path clip-path="url(#p24d1918a48)" d="M 463.601264 238.8 
L 463.601264 143.9 
" style="fill:none;stroke:#b0b0b0;stroke-linecap:square;stroke-width:0.8;"/>
     </g>
     <g id="line2d_83">
      <g>
       <use style="stroke:#000000;stroke-width:0.6;" x="463.601264" xlink:href="#m17c8e0fc18" y="238.8"/>
      </g>
     </g>
    </g>
    <g id="xtick_42">
     <g id="line2d_84">
      <path clip-path="url(#p24d1918a48)" d="M 473.966333 238.8 
L 473.966333 143.9 
" style="fill:none;stroke:#b0b0b0;stroke-linecap:square;stroke-width:0.8;"/>
     </g>
     <g id="line2d_85">
      <g>
       <use style="stroke:#000000;stroke-width:0.6;" x="473.966333" xlink:href="#m17c8e0fc18" y="238.8"/>
      </g>
     </g>
    </g>
    <g id="xtick_43">
     <g id="line2d_86">
      <path clip-path="url(#p24d1918a48)" d="M 482.435211 238.8 
L 482.435211 143.9 
" style="fill:none;stroke:#b0b0b0;stroke-linecap:square;stroke-width:0.8;"/>
     </g>
     <g id="line2d_87">
      <g>
       <use style="stroke:#000000;stroke-width:0.6;" x="482.435211" xlink:href="#m17c8e0fc18" y="238.8"/>
      </g>
     </g>
    </g>
    <g id="xtick_44">
     <g id="line2d_88">
      <path clip-path="url(#p24d1918a48)" d="M 489.595545 238.8 
L 489.595545 143.9 
" style="fill:none;stroke:#b0b0b0;stroke-linecap:square;stroke-width:0.8;"/>
     </g>
     <g id="line2d_89">
      <g>
       <use style="stroke:#000000;stroke-width:0.6;" x="489.595545" xlink:href="#m17c8e0fc18" y="238.8"/>
      </g>
     </g>
    </g>
    <g id="xtick_45">
     <g id="line2d_90">
      <path clip-path="url(#p24d1918a48)" d="M 495.798109 238.8 
L 495.798109 143.9 
" style="fill:none;stroke:#b0b0b0;stroke-linecap:square;stroke-width:0.8;"/>
     </g>
     <g id="line2d_91">
      <g>
       <use style="stroke:#000000;stroke-width:0.6;" x="495.798109" xlink:href="#m17c8e0fc18" y="238.8"/>
      </g>
     </g>
    </g>
    <g id="xtick_46">
     <g id="line2d_92">
      <path clip-path="url(#p24d1918a48)" d="M 501.269157 238.8 
L 501.269157 143.9 
" style="fill:none;stroke:#b0b0b0;stroke-linecap:square;stroke-width:0.8;"/>
     </g>
     <g id="line2d_93">
      <g>
       <use style="stroke:#000000;stroke-width:0.6;" x="501.269157" xlink:href="#m17c8e0fc18" y="238.8"/>
      </g>
     </g>
    </g>
    <g id="xtick_47">
     <g id="line2d_94">
      <path clip-path="url(#p24d1918a48)" d="M 538.360022 238.8 
L 538.360022 143.9 
" style="fill:none;stroke:#b0b0b0;stroke-linecap:square;stroke-width:0.8;"/>
     </g>
     <g id="line2d_95">
      <g>
       <use style="stroke:#000000;stroke-width:0.6;" x="538.360022" xlink:href="#m17c8e0fc18" y="238.8"/>
      </g>
     </g>
    </g>
    <g id="xtick_48">
     <g id="line2d_96">
      <path clip-path="url(#p24d1918a48)" d="M 557.193969 238.8 
L 557.193969 143.9 
" style="fill:none;stroke:#b0b0b0;stroke-linecap:square;stroke-width:0.8;"/>
     </g>
     <g id="line2d_97">
      <g>
       <use style="stroke:#000000;stroke-width:0.6;" x="557.193969" xlink:href="#m17c8e0fc18" y="238.8"/>
      </g>
     </g>
    </g>
    <g id="text_17">
     <!-- Frequency [Hz] -->
     <g transform="translate(270.590625 267.076562)scale(0.1 -0.1)">
      <defs>
       <path d="M 628 4666 
L 3309 4666 
L 3309 4134 
L 1259 4134 
L 1259 2759 
L 3109 2759 
L 3109 2228 
L 1259 2228 
L 1259 0 
L 628 0 
L 628 4666 
z
" id="DejaVuSans-46" transform="scale(0.015625)"/>
       <path d="M 2631 2963 
Q 2534 3019 2420 3045 
Q 2306 3072 2169 3072 
Q 1681 3072 1420 2755 
Q 1159 2438 1159 1844 
L 1159 0 
L 581 0 
L 581 3500 
L 1159 3500 
L 1159 2956 
Q 1341 3275 1631 3429 
Q 1922 3584 2338 3584 
Q 2397 3584 2469 3576 
Q 2541 3569 2628 3553 
L 2631 2963 
z
" id="DejaVuSans-72" transform="scale(0.015625)"/>
       <path d="M 947 1747 
Q 947 1113 1208 752 
Q 1469 391 1925 391 
Q 2381 391 2643 752 
Q 2906 1113 2906 1747 
Q 2906 2381 2643 2742 
Q 2381 3103 1925 3103 
Q 1469 3103 1208 2742 
Q 947 2381 947 1747 
z
M 2906 525 
Q 2725 213 2448 61 
Q 2172 -91 1784 -91 
Q 1150 -91 751 415 
Q 353 922 353 1747 
Q 353 2572 751 3078 
Q 1150 3584 1784 3584 
Q 2172 3584 2448 3432 
Q 2725 3281 2906 2969 
L 2906 3500 
L 3481 3500 
L 3481 -1331 
L 2906 -1331 
L 2906 525 
z
" id="DejaVuSans-71" transform="scale(0.015625)"/>
       <path d="M 544 1381 
L 544 3500 
L 1119 3500 
L 1119 1403 
Q 1119 906 1312 657 
Q 1506 409 1894 409 
Q 2359 409 2629 706 
Q 2900 1003 2900 1516 
L 2900 3500 
L 3475 3500 
L 3475 0 
L 2900 0 
L 2900 538 
Q 2691 219 2414 64 
Q 2138 -91 1772 -91 
Q 1169 -91 856 284 
Q 544 659 544 1381 
z
M 1991 3584 
L 1991 3584 
z
" id="DejaVuSans-75" transform="scale(0.015625)"/>
       <path d="M 3513 2113 
L 3513 0 
L 2938 0 
L 2938 2094 
Q 2938 2591 2744 2837 
Q 2550 3084 2163 3084 
Q 1697 3084 1428 2787 
Q 1159 2491 1159 1978 
L 1159 0 
L 581 0 
L 581 3500 
L 1159 3500 
L 1159 2956 
Q 1366 3272 1645 3428 
Q 1925 3584 2291 3584 
Q 2894 3584 3203 3211 
Q 3513 2838 3513 2113 
z
" id="DejaVuSans-6e" transform="scale(0.015625)"/>
       <path d="M 3122 3366 
L 3122 2828 
Q 2878 2963 2633 3030 
Q 2388 3097 2138 3097 
Q 1578 3097 1268 2742 
Q 959 2388 959 1747 
Q 959 1106 1268 751 
Q 1578 397 2138 397 
Q 2388 397 2633 464 
Q 2878 531 3122 666 
L 3122 134 
Q 2881 22 2623 -34 
Q 2366 -91 2075 -91 
Q 1284 -91 818 406 
Q 353 903 353 1747 
Q 353 2603 823 3093 
Q 1294 3584 2113 3584 
Q 2378 3584 2631 3529 
Q 2884 3475 3122 3366 
z
" id="DejaVuSans-63" transform="scale(0.015625)"/>
       <path d="M 2059 -325 
Q 1816 -950 1584 -1140 
Q 1353 -1331 966 -1331 
L 506 -1331 
L 506 -850 
L 844 -850 
Q 1081 -850 1212 -737 
Q 1344 -625 1503 -206 
L 1606 56 
L 191 3500 
L 800 3500 
L 1894 763 
L 2988 3500 
L 3597 3500 
L 2059 -325 
z
" id="DejaVuSans-79" transform="scale(0.015625)"/>
       <path d="M 628 4666 
L 1259 4666 
L 1259 2753 
L 3553 2753 
L 3553 4666 
L 4184 4666 
L 4184 0 
L 3553 0 
L 3553 2222 
L 1259 2222 
L 1259 0 
L 628 0 
L 628 4666 
z
" id="DejaVuSans-48" transform="scale(0.015625)"/>
       <path d="M 353 3500 
L 3084 3500 
L 3084 2975 
L 922 459 
L 3084 459 
L 3084 0 
L 275 0 
L 275 525 
L 2438 3041 
L 353 3041 
L 353 3500 
z
" id="DejaVuSans-7a" transform="scale(0.015625)"/>
      </defs>
      <use xlink:href="#DejaVuSans-46"/>
      <use x="50.269531" xlink:href="#DejaVuSans-72"/>
      <use x="89.132812" xlink:href="#DejaVuSans-65"/>
      <use x="150.65625" xlink:href="#DejaVuSans-71"/>
      <use x="214.132812" xlink:href="#DejaVuSans-75"/>
      <use x="277.511719" xlink:href="#DejaVuSans-65"/>
      <use x="339.035156" xlink:href="#DejaVuSans-6e"/>
      <use x="402.414062" xlink:href="#DejaVuSans-63"/>
      <use x="457.394531" xlink:href="#DejaVuSans-79"/>
      <use x="516.574219" xlink:href="#DejaVuSans-20"/>
      <use x="548.361328" xlink:href="#DejaVuSans-5b"/>
      <use x="587.375" xlink:href="#DejaVuSans-48"/>
      <use x="662.570312" xlink:href="#DejaVuSans-7a"/>
      <use x="715.060547" xlink:href="#DejaVuSans-5d"/>
     </g>
    </g>
   </g>
   <g id="matplotlib.axis_4">
    <g id="ytick_4">
     <g id="line2d_98">
      <path clip-path="url(#p24d1918a48)" d="M 55.345313 225.490568 
L 561.245312 225.490568 
" style="fill:none;stroke:#b0b0b0;stroke-linecap:square;stroke-width:0.8;"/>
     </g>
     <g id="line2d_99">
      <g>
       <use style="stroke:#000000;stroke-width:0.8;" x="55.345313" xlink:href="#m456eee665d" y="225.490568"/>
      </g>
     </g>
     <g id="text_18">
      <!-- −100 -->
      <g transform="translate(20.878125 229.289787)scale(0.1 -0.1)">
       <use xlink:href="#DejaVuSans-2212"/>
       <use x="83.789062" xlink:href="#DejaVuSans-31"/>
       <use x="147.412109" xlink:href="#DejaVuSans-30"/>
       <use x="211.035156" xlink:href="#DejaVuSans-30"/>
      </g>
     </g>
    </g>
    <g id="ytick_5">
     <g id="line2d_100">
      <path clip-path="url(#p24d1918a48)" d="M 55.345313 194.745174 
L 561.245312 194.745174 
" style="fill:none;stroke:#b0b0b0;stroke-linecap:square;stroke-width:0.8;"/>
     </g>
     <g id="line2d_101">
      <g>
       <use style="stroke:#000000;stroke-width:0.8;" x="55.345313" xlink:href="#m456eee665d" y="194.745174"/>
      </g>
     </g>
     <g id="text_19">
      <!-- −50 -->
      <g transform="translate(27.240625 198.544393)scale(0.1 -0.1)">
       <defs>
        <path d="M 691 4666 
L 3169 4666 
L 3169 4134 
L 1269 4134 
L 1269 2991 
Q 1406 3038 1543 3061 
Q 1681 3084 1819 3084 
Q 2600 3084 3056 2656 
Q 3513 2228 3513 1497 
Q 3513 744 3044 326 
Q 2575 -91 1722 -91 
Q 1428 -91 1123 -41 
Q 819 9 494 109 
L 494 744 
Q 775 591 1075 516 
Q 1375 441 1709 441 
Q 2250 441 2565 725 
Q 2881 1009 2881 1497 
Q 2881 1984 2565 2268 
Q 2250 2553 1709 2553 
Q 1456 2553 1204 2497 
Q 953 2441 691 2322 
L 691 4666 
z
" id="DejaVuSans-35" transform="scale(0.015625)"/>
       </defs>
       <use xlink:href="#DejaVuSans-2212"/>
       <use x="83.789062" xlink:href="#DejaVuSans-35"/>
       <use x="147.412109" xlink:href="#DejaVuSans-30"/>
      </g>
     </g>
    </g>
    <g id="ytick_6">
     <g id="line2d_102">
      <path clip-path="url(#p24d1918a48)" d="M 55.345313 163.99978 
L 561.245312 163.99978 
" style="fill:none;stroke:#b0b0b0;stroke-linecap:square;stroke-width:0.8;"/>
     </g>
     <g id="line2d_103">
      <g>
       <use style="stroke:#000000;stroke-width:0.8;" x="55.345313" xlink:href="#m456eee665d" y="163.99978"/>
      </g>
     </g>
     <g id="text_20">
      <!-- 0 -->
      <g transform="translate(41.982813 167.798998)scale(0.1 -0.1)">
       <use xlink:href="#DejaVuSans-30"/>
      </g>
     </g>
    </g>
    <g id="text_21">
     <!-- Gain [dB] -->
     <g transform="translate(14.798438 214.941406)rotate(-90)scale(0.1 -0.1)">
      <defs>
       <path d="M 3809 666 
L 3809 1919 
L 2778 1919 
L 2778 2438 
L 4434 2438 
L 4434 434 
Q 4069 175 3628 42 
Q 3188 -91 2688 -91 
Q 1594 -91 976 548 
Q 359 1188 359 2328 
Q 359 3472 976 4111 
Q 1594 4750 2688 4750 
Q 3144 4750 3555 4637 
Q 3966 4525 4313 4306 
L 4313 3634 
Q 3963 3931 3569 4081 
Q 3175 4231 2741 4231 
Q 1884 4231 1454 3753 
Q 1025 3275 1025 2328 
Q 1025 1384 1454 906 
Q 1884 428 2741 428 
Q 3075 428 3337 486 
Q 3600 544 3809 666 
z
" id="DejaVuSans-47" transform="scale(0.015625)"/>
       <path d="M 2194 1759 
Q 1497 1759 1228 1600 
Q 959 1441 959 1056 
Q 959 750 1161 570 
Q 1363 391 1709 391 
Q 2188 391 2477 730 
Q 2766 1069 2766 1631 
L 2766 1759 
L 2194 1759 
z
M 3341 1997 
L 3341 0 
L 2766 0 
L 2766 531 
Q 2569 213 2275 61 
Q 1981 -91 1556 -91 
Q 1019 -91 701 211 
Q 384 513 384 1019 
Q 384 1609 779 1909 
Q 1175 2209 1959 2209 
L 2766 2209 
L 2766 2266 
Q 2766 2663 2505 2880 
Q 2244 3097 1772 3097 
Q 1472 3097 1187 3025 
Q 903 2953 641 2809 
L 641 3341 
Q 956 3463 1253 3523 
Q 1550 3584 1831 3584 
Q 2591 3584 2966 3190 
Q 3341 2797 3341 1997 
z
" id="DejaVuSans-61" transform="scale(0.015625)"/>
       <path d="M 2906 2969 
L 2906 4863 
L 3481 4863 
L 3481 0 
L 2906 0 
L 2906 525 
Q 2725 213 2448 61 
Q 2172 -91 1784 -91 
Q 1150 -91 751 415 
Q 353 922 353 1747 
Q 353 2572 751 3078 
Q 1150 3584 1784 3584 
Q 2172 3584 2448 3432 
Q 2725 3281 2906 2969 
z
M 947 1747 
Q 947 1113 1208 752 
Q 1469 391 1925 391 
Q 2381 391 2643 752 
Q 2906 1113 2906 1747 
Q 2906 2381 2643 2742 
Q 2381 3103 1925 3103 
Q 1469 3103 1208 2742 
Q 947 2381 947 1747 
z
" id="DejaVuSans-64" transform="scale(0.015625)"/>
       <path d="M 1259 2228 
L 1259 519 
L 2272 519 
Q 2781 519 3026 730 
Q 3272 941 3272 1375 
Q 3272 1813 3026 2020 
Q 2781 2228 2272 2228 
L 1259 2228 
z
M 1259 4147 
L 1259 2741 
L 2194 2741 
Q 2656 2741 2882 2914 
Q 3109 3088 3109 3444 
Q 3109 3797 2882 3972 
Q 2656 4147 2194 4147 
L 1259 4147 
z
M 628 4666 
L 2241 4666 
Q 2963 4666 3353 4366 
Q 3744 4066 3744 3513 
Q 3744 3084 3544 2831 
Q 3344 2578 2956 2516 
Q 3422 2416 3680 2098 
Q 3938 1781 3938 1306 
Q 3938 681 3513 340 
Q 3088 0 2303 0 
L 628 0 
L 628 4666 
z
" id="DejaVuSans-42" transform="scale(0.015625)"/>
      </defs>
      <use xlink:href="#DejaVuSans-47"/>
      <use x="77.490234" xlink:href="#DejaVuSans-61"/>
      <use x="138.769531" xlink:href="#DejaVuSans-69"/>
      <use x="166.552734" xlink:href="#DejaVuSans-6e"/>
      <use x="229.931641" xlink:href="#DejaVuSans-20"/>
      <use x="261.71875" xlink:href="#DejaVuSans-5b"/>
      <use x="300.732422" xlink:href="#DejaVuSans-64"/>
      <use x="364.208984" xlink:href="#DejaVuSans-42"/>
      <use x="432.8125" xlink:href="#DejaVuSans-5d"/>
     </g>
    </g>
   </g>
   <g id="line2d_104">
    <path clip-path="url(#p24d1918a48)" d="M 78.340767 160.57177 
L 89.036328 160.571767 
L 99.731889 160.571762 
L 110.427447 160.571754 
L 121.123007 160.571742 
L 131.818569 160.571722 
L 142.514129 160.571691 
L 153.209688 160.571641 
L 163.905251 160.571562 
L 174.600808 160.571437 
L 185.29637 160.571238 
L 195.991931 160.570924 
L 206.687491 160.570426 
L 217.383051 160.569636 
L 228.07861 160.568384 
L 238.77417 160.566399 
L 249.469733 160.563251 
L 260.165293 160.558259 
L 270.860851 160.550338 
L 281.556412 160.537759 
L 292.251972 160.517763 
L 302.947532 160.485919 
L 313.643093 160.435062 
L 324.338653 160.353463 
L 335.034214 160.221558 
L 345.729772 160.005673 
L 356.425335 159.644823 
L 367.120893 159.018619 
L 377.816454 157.849926 
L 388.512015 155.268716 
L 399.207575 148.273358 
L 409.903135 157.979068 
L 420.598695 162.905415 
L 431.294256 166.496074 
L 441.989817 169.56466 
L 452.685375 172.375988 
L 463.380937 175.04622 
L 474.076499 177.634491 
L 484.772055 180.173529 
L 495.467616 182.68233 
L 506.163177 185.17221 
L 516.858737 187.649936 
L 527.554297 190.119394 
L 538.249858 192.58229 
" style="fill:none;stroke:#0000ff;stroke-linecap:square;stroke-width:1.5;"/>
    <defs>
     <path d="M 0 1.5 
C 0.397805 1.5 0.77937 1.341951 1.06066 1.06066 
C 1.341951 0.77937 1.5 0.397805 1.5 0 
C 1.5 -0.397805 1.341951 -0.77937 1.06066 -1.06066 
C 0.77937 -1.341951 0.397805 -1.5 0 -1.5 
C -0.397805 -1.5 -0.77937 -1.341951 -1.06066 -1.06066 
C -1.341951 -0.77937 -1.5 -0.397805 -1.5 0 
C -1.5 0.397805 -1.341951 0.77937 -1.06066 1.06066 
C -0.77937 1.341951 -0.397805 1.5 0 1.5 
z
" id="mc1fd112717" style="stroke:#0000ff;"/>
    </defs>
    <g clip-path="url(#p24d1918a48)">
     <use style="fill:#0000ff;stroke:#0000ff;" x="78.340767" xlink:href="#mc1fd112717" y="160.57177"/>
     <use style="fill:#0000ff;stroke:#0000ff;" x="89.036328" xlink:href="#mc1fd112717" y="160.571767"/>
     <use style="fill:#0000ff;stroke:#0000ff;" x="99.731889" xlink:href="#mc1fd112717" y="160.571762"/>
     <use style="fill:#0000ff;stroke:#0000ff;" x="110.427447" xlink:href="#mc1fd112717" y="160.571754"/>
     <use style="fill:#0000ff;stroke:#0000ff;" x="121.123007" xlink:href="#mc1fd112717" y="160.571742"/>
     <use style="fill:#0000ff;stroke:#0000ff;" x="131.818569" xlink:href="#mc1fd112717" y="160.571722"/>
     <use style="fill:#0000ff;stroke:#0000ff;" x="142.514129" xlink:href="#mc1fd112717" y="160.571691"/>
     <use style="fill:#0000ff;stroke:#0000ff;" x="153.209688" xlink:href="#mc1fd112717" y="160.571641"/>
     <use style="fill:#0000ff;stroke:#0000ff;" x="163.905251" xlink:href="#mc1fd112717" y="160.571562"/>
     <use style="fill:#0000ff;stroke:#0000ff;" x="174.600808" xlink:href="#mc1fd112717" y="160.571437"/>
     <use style="fill:#0000ff;stroke:#0000ff;" x="185.29637" xlink:href="#mc1fd112717" y="160.571238"/>
     <use style="fill:#0000ff;stroke:#0000ff;" x="195.991931" xlink:href="#mc1fd112717" y="160.570924"/>
     <use style="fill:#0000ff;stroke:#0000ff;" x="206.687491" xlink:href="#mc1fd112717" y="160.570426"/>
     <use style="fill:#0000ff;stroke:#0000ff;" x="217.383051" xlink:href="#mc1fd112717" y="160.569636"/>
     <use style="fill:#0000ff;stroke:#0000ff;" x="228.07861" xlink:href="#mc1fd112717" y="160.568384"/>
     <use style="fill:#0000ff;stroke:#0000ff;" x="238.77417" xlink:href="#mc1fd112717" y="160.566399"/>
     <use style="fill:#0000ff;stroke:#0000ff;" x="249.469733" xlink:href="#mc1fd112717" y="160.563251"/>
     <use style="fill:#0000ff;stroke:#0000ff;" x="260.165293" xlink:href="#mc1fd112717" y="160.558259"/>
     <use style="fill:#0000ff;stroke:#0000ff;" x="270.860851" xlink:href="#mc1fd112717" y="160.550338"/>
     <use style="fill:#0000ff;stroke:#0000ff;" x="281.556412" xlink:href="#mc1fd112717" y="160.537759"/>
     <use style="fill:#0000ff;stroke:#0000ff;" x="292.251972" xlink:href="#mc1fd112717" y="160.517763"/>
     <use style="fill:#0000ff;stroke:#0000ff;" x="302.947532" xlink:href="#mc1fd112717" y="160.485919"/>
     <use style="fill:#0000ff;stroke:#0000ff;" x="313.643093" xlink:href="#mc1fd112717" y="160.435062"/>
     <use style="fill:#0000ff;stroke:#0000ff;" x="324.338653" xlink:href="#mc1fd112717" y="160.353463"/>
     <use style="fill:#0000ff;stroke:#0000ff;" x="335.034214" xlink:href="#mc1fd112717" y="160.221558"/>
     <use style="fill:#0000ff;stroke:#0000ff;" x="345.729772" xlink:href="#mc1fd112717" y="160.005673"/>
     <use style="fill:#0000ff;stroke:#0000ff;" x="356.425335" xlink:href="#mc1fd112717" y="159.644823"/>
     <use style="fill:#0000ff;stroke:#0000ff;" x="367.120893" xlink:href="#mc1fd112717" y="159.018619"/>
     <use style="fill:#0000ff;stroke:#0000ff;" x="377.816454" xlink:href="#mc1fd112717" y="157.849926"/>
     <use style="fill:#0000ff;stroke:#0000ff;" x="388.512015" xlink:href="#mc1fd112717" y="155.268716"/>
     <use style="fill:#0000ff;stroke:#0000ff;" x="399.207575" xlink:href="#mc1fd112717" y="148.273358"/>
     <use style="fill:#0000ff;stroke:#0000ff;" x="409.903135" xlink:href="#mc1fd112717" y="157.979068"/>
     <use style="fill:#0000ff;stroke:#0000ff;" x="420.598695" xlink:href="#mc1fd112717" y="162.905415"/>
     <use style="fill:#0000ff;stroke:#0000ff;" x="431.294256" xlink:href="#mc1fd112717" y="166.496074"/>
     <use style="fill:#0000ff;stroke:#0000ff;" x="441.989817" xlink:href="#mc1fd112717" y="169.56466"/>
     <use style="fill:#0000ff;stroke:#0000ff;" x="452.685375" xlink:href="#mc1fd112717" y="172.375988"/>
     <use style="fill:#0000ff;stroke:#0000ff;" x="463.380937" xlink:href="#mc1fd112717" y="175.04622"/>
     <use style="fill:#0000ff;stroke:#0000ff;" x="474.076499" xlink:href="#mc1fd112717" y="177.634491"/>
     <use style="fill:#0000ff;stroke:#0000ff;" x="484.772055" xlink:href="#mc1fd112717" y="180.173529"/>
     <use style="fill:#0000ff;stroke:#0000ff;" x="495.467616" xlink:href="#mc1fd112717" y="182.68233"/>
     <use style="fill:#0000ff;stroke:#0000ff;" x="506.163177" xlink:href="#mc1fd112717" y="185.17221"/>
     <use style="fill:#0000ff;stroke:#0000ff;" x="516.858737" xlink:href="#mc1fd112717" y="187.649936"/>
     <use style="fill:#0000ff;stroke:#0000ff;" x="527.554297" xlink:href="#mc1fd112717" y="190.119394"/>
     <use style="fill:#0000ff;stroke:#0000ff;" x="538.249858" xlink:href="#mc1fd112717" y="192.58229"/>
    </g>
   </g>
   <g id="line2d_105">
    <path clip-path="url(#p24d1918a48)" d="M 78.340767 197.436332 
L 89.036328 196.206532 
L 99.731889 194.976721 
L 110.427447 193.746908 
L 121.123007 192.517085 
L 131.818569 191.287253 
L 142.514129 190.057407 
L 153.209688 188.827542 
L 163.905251 187.597648 
L 174.600808 186.367706 
L 185.29637 185.137693 
L 195.991931 183.907563 
L 206.687491 182.677248 
L 217.383051 181.446644 
L 228.07861 180.215575 
L 238.77417 178.983775 
L 249.469733 177.750812 
L 260.165293 176.516004 
L 270.860851 175.278266 
L 281.556412 174.035872 
L 292.251972 172.78606 
L 302.947532 171.524401 
L 313.643093 170.243727 
L 324.338653 168.932313 
L 335.034214 167.570593 
L 345.729772 166.124892 
L 356.425335 164.534225 
L 367.120893 162.678206 
L 377.816454 160.279697 
L 388.512015 156.468672 
L 399.207575 148.243498 
L 409.903135 156.719396 
L 420.598695 160.41593 
L 431.294256 162.776776 
L 441.989817 164.615552 
L 452.685375 166.197074 
L 463.380937 167.637506 
L 474.076499 168.995988 
L 484.772055 170.305254 
L 495.467616 171.584314 
L 506.163177 172.844517 
L 516.858737 174.092699 
L 527.554297 175.332934 
L 538.249858 176.567517 
" style="fill:none;stroke:#ff0000;stroke-linecap:square;stroke-width:1.5;"/>
    <defs>
     <path d="M 0 1.5 
C 0.397805 1.5 0.77937 1.341951 1.06066 1.06066 
C 1.341951 0.77937 1.5 0.397805 1.5 0 
C 1.5 -0.397805 1.341951 -0.77937 1.06066 -1.06066 
C 0.77937 -1.341951 0.397805 -1.5 0 -1.5 
C -0.397805 -1.5 -0.77937 -1.341951 -1.06066 -1.06066 
C -1.341951 -0.77937 -1.5 -0.397805 -1.5 0 
C -1.5 0.397805 -1.341951 0.77937 -1.06066 1.06066 
C -0.77937 1.341951 -0.397805 1.5 0 1.5 
z
" id="m4ff1a8fcbd" style="stroke:#ff0000;"/>
    </defs>
    <g clip-path="url(#p24d1918a48)">
     <use style="fill:#ff0000;stroke:#ff0000;" x="78.340767" xlink:href="#m4ff1a8fcbd" y="197.436332"/>
     <use style="fill:#ff0000;stroke:#ff0000;" x="89.036328" xlink:href="#m4ff1a8fcbd" y="196.206532"/>
     <use style="fill:#ff0000;stroke:#ff0000;" x="99.731889" xlink:href="#m4ff1a8fcbd" y="194.976721"/>
     <use style="fill:#ff0000;stroke:#ff0000;" x="110.427447" xlink:href="#m4ff1a8fcbd" y="193.746908"/>
     <use style="fill:#ff0000;stroke:#ff0000;" x="121.123007" xlink:href="#m4ff1a8fcbd" y="192.517085"/>
     <use style="fill:#ff0000;stroke:#ff0000;" x="131.818569" xlink:href="#m4ff1a8fcbd" y="191.287253"/>
     <use style="fill:#ff0000;stroke:#ff0000;" x="142.514129" xlink:href="#m4ff1a8fcbd" y="190.057407"/>
     <use style="fill:#ff0000;stroke:#ff0000;" x="153.209688" xlink:href="#m4ff1a8fcbd" y="188.827542"/>
     <use style="fill:#ff0000;stroke:#ff0000;" x="163.905251" xlink:href="#m4ff1a8fcbd" y="187.597648"/>
     <use style="fill:#ff0000;stroke:#ff0000;" x="174.600808" xlink:href="#m4ff1a8fcbd" y="186.367706"/>
     <use style="fill:#ff0000;stroke:#ff0000;" x="185.29637" xlink:href="#m4ff1a8fcbd" y="185.137693"/>
     <use style="fill:#ff0000;stroke:#ff0000;" x="195.991931" xlink:href="#m4ff1a8fcbd" y="183.907563"/>
     <use style="fill:#ff0000;stroke:#ff0000;" x="206.687491" xlink:href="#m4ff1a8fcbd" y="182.677248"/>
     <use style="fill:#ff0000;stroke:#ff0000;" x="217.383051" xlink:href="#m4ff1a8fcbd" y="181.446644"/>
     <use style="fill:#ff0000;stroke:#ff0000;" x="228.07861" xlink:href="#m4ff1a8fcbd" y="180.215575"/>
     <use style="fill:#ff0000;stroke:#ff0000;" x="238.77417" xlink:href="#m4ff1a8fcbd" y="178.983775"/>
     <use style="fill:#ff0000;stroke:#ff0000;" x="249.469733" xlink:href="#m4ff1a8fcbd" y="177.750812"/>
     <use style="fill:#ff0000;stroke:#ff0000;" x="260.165293" xlink:href="#m4ff1a8fcbd" y="176.516004"/>
     <use style="fill:#ff0000;stroke:#ff0000;" x="270.860851" xlink:href="#m4ff1a8fcbd" y="175.278266"/>
     <use style="fill:#ff0000;stroke:#ff0000;" x="281.556412" xlink:href="#m4ff1a8fcbd" y="174.035872"/>
     <use style="fill:#ff0000;stroke:#ff0000;" x="292.251972" xlink:href="#m4ff1a8fcbd" y="172.78606"/>
     <use style="fill:#ff0000;stroke:#ff0000;" x="302.947532" xlink:href="#m4ff1a8fcbd" y="171.524401"/>
     <use style="fill:#ff0000;stroke:#ff0000;" x="313.643093" xlink:href="#m4ff1a8fcbd" y="170.243727"/>
     <use style="fill:#ff0000;stroke:#ff0000;" x="324.338653" xlink:href="#m4ff1a8fcbd" y="168.932313"/>
     <use style="fill:#ff0000;stroke:#ff0000;" x="335.034214" xlink:href="#m4ff1a8fcbd" y="167.570593"/>
     <use style="fill:#ff0000;stroke:#ff0000;" x="345.729772" xlink:href="#m4ff1a8fcbd" y="166.124892"/>
     <use style="fill:#ff0000;stroke:#ff0000;" x="356.425335" xlink:href="#m4ff1a8fcbd" y="164.534225"/>
     <use style="fill:#ff0000;stroke:#ff0000;" x="367.120893" xlink:href="#m4ff1a8fcbd" y="162.678206"/>
     <use style="fill:#ff0000;stroke:#ff0000;" x="377.816454" xlink:href="#m4ff1a8fcbd" y="160.279697"/>
     <use style="fill:#ff0000;stroke:#ff0000;" x="388.512015" xlink:href="#m4ff1a8fcbd" y="156.468672"/>
     <use style="fill:#ff0000;stroke:#ff0000;" x="399.207575" xlink:href="#m4ff1a8fcbd" y="148.243498"/>
     <use style="fill:#ff0000;stroke:#ff0000;" x="409.903135" xlink:href="#m4ff1a8fcbd" y="156.719396"/>
     <use style="fill:#ff0000;stroke:#ff0000;" x="420.598695" xlink:href="#m4ff1a8fcbd" y="160.41593"/>
     <use style="fill:#ff0000;stroke:#ff0000;" x="431.294256" xlink:href="#m4ff1a8fcbd" y="162.776776"/>
     <use style="fill:#ff0000;stroke:#ff0000;" x="441.989817" xlink:href="#m4ff1a8fcbd" y="164.615552"/>
     <use style="fill:#ff0000;stroke:#ff0000;" x="452.685375" xlink:href="#m4ff1a8fcbd" y="166.197074"/>
     <use style="fill:#ff0000;stroke:#ff0000;" x="463.380937" xlink:href="#m4ff1a8fcbd" y="167.637506"/>
     <use style="fill:#ff0000;stroke:#ff0000;" x="474.076499" xlink:href="#m4ff1a8fcbd" y="168.995988"/>
     <use style="fill:#ff0000;stroke:#ff0000;" x="484.772055" xlink:href="#m4ff1a8fcbd" y="170.305254"/>
     <use style="fill:#ff0000;stroke:#ff0000;" x="495.467616" xlink:href="#m4ff1a8fcbd" y="171.584314"/>
     <use style="fill:#ff0000;stroke:#ff0000;" x="506.163177" xlink:href="#m4ff1a8fcbd" y="172.844517"/>
     <use style="fill:#ff0000;stroke:#ff0000;" x="516.858737" xlink:href="#m4ff1a8fcbd" y="174.092699"/>
     <use style="fill:#ff0000;stroke:#ff0000;" x="527.554297" xlink:href="#m4ff1a8fcbd" y="175.332934"/>
     <use style="fill:#ff0000;stroke:#ff0000;" x="538.249858" xlink:href="#m4ff1a8fcbd" y="176.567517"/>
    </g>
   </g>
   <g id="line2d_106">
    <path clip-path="url(#p24d1918a48)" d="M 78.340767 234.486364 
L 89.036328 231.957562 
L 99.731889 229.454737 
L 110.427447 226.968027 
L 121.123007 224.491375 
L 131.818569 222.021019 
L 142.514129 219.554614 
L 153.209688 217.090685 
L 163.905251 214.628295 
L 174.600808 212.166848 
L 185.29637 209.705949 
L 195.991931 207.245328 
L 206.687491 204.784772 
L 217.383051 202.324087 
L 228.07861 199.863037 
L 238.77417 197.401311 
L 249.469733 194.938463 
L 260.165293 192.4738 
L 270.860851 190.006219 
L 281.556412 187.533993 
L 292.251972 185.054356 
L 302.947532 182.562872 
L 313.643093 180.052379 
L 324.338653 177.511148 
L 335.034214 174.919609 
L 345.729772 172.244092 
L 356.425335 169.423611 
L 367.120893 166.337777 
L 377.816454 162.709454 
L 388.512015 157.668619 
L 399.207575 148.213636 
L 409.903135 155.45973 
L 420.598695 157.926467 
L 431.294256 159.057528 
L 441.989817 159.666538 
L 452.685375 160.01832 
L 463.380937 160.229058 
L 474.076499 160.357917 
L 484.772055 160.437671 
L 495.467616 160.4874 
L 506.163177 160.518553 
L 516.858737 160.538133 
L 527.554297 160.550477 
L 538.249858 160.558292 
" style="fill:none;stroke:#008000;stroke-linecap:square;stroke-width:1.5;"/>
    <defs>
     <path d="M 0 1.5 
C 0.397805 1.5 0.77937 1.341951 1.06066 1.06066 
C 1.341951 0.77937 1.5 0.397805 1.5 0 
C 1.5 -0.397805 1.341951 -0.77937 1.06066 -1.06066 
C 0.77937 -1.341951 0.397805 -1.5 0 -1.5 
C -0.397805 -1.5 -0.77937 -1.341951 -1.06066 -1.06066 
C -1.341951 -0.77937 -1.5 -0.397805 -1.5 0 
C -1.5 0.397805 -1.341951 0.77937 -1.06066 1.06066 
C -0.77937 1.341951 -0.397805 1.5 0 1.5 
z
" id="m896ccddf0d" style="stroke:#008000;"/>
    </defs>
    <g clip-path="url(#p24d1918a48)">
     <use style="fill:#008000;stroke:#008000;" x="78.340767" xlink:href="#m896ccddf0d" y="234.486364"/>
     <use style="fill:#008000;stroke:#008000;" x="89.036328" xlink:href="#m896ccddf0d" y="231.957562"/>
     <use style="fill:#008000;stroke:#008000;" x="99.731889" xlink:href="#m896ccddf0d" y="229.454737"/>
     <use style="fill:#008000;stroke:#008000;" x="110.427447" xlink:href="#m896ccddf0d" y="226.968027"/>
     <use style="fill:#008000;stroke:#008000;" x="121.123007" xlink:href="#m896ccddf0d" y="224.491375"/>
     <use style="fill:#008000;stroke:#008000;" x="131.818569" xlink:href="#m896ccddf0d" y="222.021019"/>
     <use style="fill:#008000;stroke:#008000;" x="142.514129" xlink:href="#m896ccddf0d" y="219.554614"/>
     <use style="fill:#008000;stroke:#008000;" x="153.209688" xlink:href="#m896ccddf0d" y="217.090685"/>
     <use style="fill:#008000;stroke:#008000;" x="163.905251" xlink:href="#m896ccddf0d" y="214.628295"/>
     <use style="fill:#008000;stroke:#008000;" x="174.600808" xlink:href="#m896ccddf0d" y="212.166848"/>
     <use style="fill:#008000;stroke:#008000;" x="185.29637" xlink:href="#m896ccddf0d" y="209.705949"/>
     <use style="fill:#008000;stroke:#008000;" x="195.991931" xlink:href="#m896ccddf0d" y="207.245328"/>
     <use style="fill:#008000;stroke:#008000;" x="206.687491" xlink:href="#m896ccddf0d" y="204.784772"/>
     <use style="fill:#008000;stroke:#008000;" x="217.383051" xlink:href="#m896ccddf0d" y="202.324087"/>
     <use style="fill:#008000;stroke:#008000;" x="228.07861" xlink:href="#m896ccddf0d" y="199.863037"/>
     <use style="fill:#008000;stroke:#008000;" x="238.77417" xlink:href="#m896ccddf0d" y="197.401311"/>
     <use style="fill:#008000;stroke:#008000;" x="249.469733" xlink:href="#m896ccddf0d" y="194.938463"/>
     <use style="fill:#008000;stroke:#008000;" x="260.165293" xlink:href="#m896ccddf0d" y="192.4738"/>
     <use style="fill:#008000;stroke:#008000;" x="270.860851" xlink:href="#m896ccddf0d" y="190.006219"/>
     <use style="fill:#008000;stroke:#008000;" x="281.556412" xlink:href="#m896ccddf0d" y="187.533993"/>
     <use style="fill:#008000;stroke:#008000;" x="292.251972" xlink:href="#m896ccddf0d" y="185.054356"/>
     <use style="fill:#008000;stroke:#008000;" x="302.947532" xlink:href="#m896ccddf0d" y="182.562872"/>
     <use style="fill:#008000;stroke:#008000;" x="313.643093" xlink:href="#m896ccddf0d" y="180.052379"/>
     <use style="fill:#008000;stroke:#008000;" x="324.338653" xlink:href="#m896ccddf0d" y="177.511148"/>
     <use style="fill:#008000;stroke:#008000;" x="335.034214" xlink:href="#m896ccddf0d" y="174.919609"/>
     <use style="fill:#008000;stroke:#008000;" x="345.729772" xlink:href="#m896ccddf0d" y="172.244092"/>
     <use style="fill:#008000;stroke:#008000;" x="356.425335" xlink:href="#m896ccddf0d" y="169.423611"/>
     <use style="fill:#008000;stroke:#008000;" x="367.120893" xlink:href="#m896ccddf0d" y="166.337777"/>
     <use style="fill:#008000;stroke:#008000;" x="377.816454" xlink:href="#m896ccddf0d" y="162.709454"/>
     <use style="fill:#008000;stroke:#008000;" x="388.512015" xlink:href="#m896ccddf0d" y="157.668619"/>
     <use style="fill:#008000;stroke:#008000;" x="399.207575" xlink:href="#m896ccddf0d" y="148.213636"/>
     <use style="fill:#008000;stroke:#008000;" x="409.903135" xlink:href="#m896ccddf0d" y="155.45973"/>
     <use style="fill:#008000;stroke:#008000;" x="420.598695" xlink:href="#m896ccddf0d" y="157.926467"/>
     <use style="fill:#008000;stroke:#008000;" x="431.294256" xlink:href="#m896ccddf0d" y="159.057528"/>
     <use style="fill:#008000;stroke:#008000;" x="441.989817" xlink:href="#m896ccddf0d" y="159.666538"/>
     <use style="fill:#008000;stroke:#008000;" x="452.685375" xlink:href="#m896ccddf0d" y="160.01832"/>
     <use style="fill:#008000;stroke:#008000;" x="463.380937" xlink:href="#m896ccddf0d" y="160.229058"/>
     <use style="fill:#008000;stroke:#008000;" x="474.076499" xlink:href="#m896ccddf0d" y="160.357917"/>
     <use style="fill:#008000;stroke:#008000;" x="484.772055" xlink:href="#m896ccddf0d" y="160.437671"/>
     <use style="fill:#008000;stroke:#008000;" x="495.467616" xlink:href="#m896ccddf0d" y="160.4874"/>
     <use style="fill:#008000;stroke:#008000;" x="506.163177" xlink:href="#m896ccddf0d" y="160.518553"/>
     <use style="fill:#008000;stroke:#008000;" x="516.858737" xlink:href="#m896ccddf0d" y="160.538133"/>
     <use style="fill:#008000;stroke:#008000;" x="527.554297" xlink:href="#m896ccddf0d" y="160.550477"/>
     <use style="fill:#008000;stroke:#008000;" x="538.249858" xlink:href="#m896ccddf0d" y="160.558292"/>
    </g>
   </g>
   <g id="patch_8">
    <path d="M 55.345313 238.8 
L 55.345313 143.9 
" style="fill:none;stroke:#000000;stroke-linecap:square;stroke-linejoin:miter;stroke-width:0.8;"/>
   </g>
   <g id="patch_9">
    <path d="M 561.245312 238.8 
L 561.245312 143.9 
" style="fill:none;stroke:#000000;stroke-linecap:square;stroke-linejoin:miter;stroke-width:0.8;"/>
   </g>
   <g id="patch_10">
    <path d="M 55.345313 238.8 
L 561.245312 238.8 
" style="fill:none;stroke:#000000;stroke-linecap:square;stroke-linejoin:miter;stroke-width:0.8;"/>
   </g>
   <g id="patch_11">
    <path d="M 55.345313 143.9 
L 561.245312 143.9 
" style="fill:none;stroke:#000000;stroke-linecap:square;stroke-linejoin:miter;stroke-width:0.8;"/>
   </g>
  </g>
 </g>
 <defs>
  <clipPath id="pa0087aa6c9">
   <rect height="94.9" width="505.9" x="55.345313" y="7.2"/>
  </clipPath>
  <clipPath id="p24d1918a48">
   <rect height="94.9" width="505.9" x="55.345313" y="143.9"/>
  </clipPath>
 </defs>
</svg>
