<?xml version="1.0" encoding="utf-8" standalone="no"?>
<!DOCTYPE svg PUBLIC "-//W3C//DTD SVG 1.1//EN"
  "http://www.w3.org/Graphics/SVG/1.1/DTD/svg11.dtd">
<!-- Created with matplotlib (https://matplotlib.org/) -->
<svg height="367.15pt" version="1.1" viewBox="0 0 918.2526 367.15" width="918.2526pt" xmlns="http://www.w3.org/2000/svg" xmlns:xlink="http://www.w3.org/1999/xlink">
 <metadata>
  <rdf:RDF xmlns:cc="http://creativecommons.org/ns#" xmlns:dc="http://purl.org/dc/elements/1.1/" xmlns:rdf="http://www.w3.org/1999/02/22-rdf-syntax-ns#">
   <cc:Work>
    <dc:type rdf:resource="http://purl.org/dc/dcmitype/StillImage"/>
    <dc:date>2021-03-28T13:00:28.186299</dc:date>
    <dc:format>image/svg+xml</dc:format>
    <dc:creator>
     <cc:Agent>
      <dc:title>Matplotlib v3.3.4, https://matplotlib.org/</dc:title>
     </cc:Agent>
    </dc:creator>
   </cc:Work>
  </rdf:RDF>
 </metadata>
 <defs>
  <style type="text/css">*{stroke-linecap:butt;stroke-linejoin:round;}</style>
 </defs>
 <g id="figure_1">
  <g id="patch_1">
   <path d="M 0 367.15 
L 918.2526 367.15 
L 918.2526 0 
L 0 0 
z
" style="fill:none;"/>
  </g>
  <g id="axes_1">
   <g id="patch_2">
    <path clip-path="url(#p5bf2c1e16d)" d="M 106.7418 196.24 
L 104.4468 188.59 
L 106.7265 188.59 
L 106.7265 181.858 
L 106.7571 181.858 
L 106.7571 188.59 
L 109.0368 188.59 
z
" style="stroke:#000000;stroke-linejoin:miter;stroke-width:0.9;"/>
   </g>
   <g id="patch_3">
    <path clip-path="url(#p5bf2c1e16d)" d="M 275.0418 207.562 
C 276.015626 207.562 276.949697 207.175095 277.638296 206.486496 
C 278.326895 205.797897 278.7138 204.863826 278.7138 203.89 
C 278.7138 202.916174 278.326895 201.982103 277.638296 201.293504 
C 276.949697 200.604905 276.015626 200.218 275.0418 200.218 
C 274.067974 200.218 273.133903 200.604905 272.445304 201.293504 
C 271.756705 201.982103 271.3698 202.916174 271.3698 203.89 
C 271.3698 204.863826 271.756705 205.797897 272.445304 206.486496 
C 273.133903 207.175095 274.067974 207.562 275.0418 207.562 
z
" style="fill:none;stroke:#000000;stroke-linejoin:miter;stroke-width:0.9;"/>
   </g>
   <g id="patch_4">
    <path clip-path="url(#p5bf2c1e16d)" d="M 428.0418 207.562 
C 429.015626 207.562 429.949697 207.175095 430.638296 206.486496 
C 431.326895 205.797897 431.7138 204.863826 431.7138 203.89 
C 431.7138 202.916174 431.326895 201.982103 430.638296 201.293504 
C 429.949697 200.604905 429.015626 200.218 428.0418 200.218 
C 427.067974 200.218 426.133903 200.604905 425.445304 201.293504 
C 424.756705 201.982103 424.3698 202.916174 424.3698 203.89 
C 424.3698 204.863826 424.756705 205.797897 425.445304 206.486496 
C 426.133903 207.175095 427.067974 207.562 428.0418 207.562 
z
" style="fill:none;stroke:#000000;stroke-linejoin:miter;stroke-width:0.9;"/>
   </g>
   <g id="patch_5">
    <path clip-path="url(#p5bf2c1e16d)" d="M 565.7418 135.04 
L 568.0368 142.69 
L 565.7571 142.69 
L 565.7571 149.422 
L 565.7265 149.422 
L 565.7265 142.69 
L 563.4468 142.69 
z
" style="stroke:#000000;stroke-linejoin:miter;stroke-width:0.9;"/>
   </g>
   <g id="patch_6">
    <path clip-path="url(#p5bf2c1e16d)" d="M 619.2918 207.562 
C 620.265626 207.562 621.199697 207.175095 621.888296 206.486496 
C 622.576895 205.797897 622.9638 204.863826 622.9638 203.89 
C 622.9638 202.916174 622.576895 201.982103 621.888296 201.293504 
C 621.199697 200.604905 620.265626 200.218 619.2918 200.218 
C 618.317974 200.218 617.383903 200.604905 616.695304 201.293504 
C 616.006705 201.982103 615.6198 202.916174 615.6198 203.89 
C 615.6198 204.863826 616.006705 205.797897 616.695304 206.486496 
C 617.383903 207.175095 618.317974 207.562 619.2918 207.562 
z
" style="fill:none;stroke:#000000;stroke-linejoin:miter;stroke-width:0.9;"/>
   </g>
   <g id="patch_7">
    <path clip-path="url(#p5bf2c1e16d)" d="M 756.9918 135.04 
L 759.2868 142.69 
L 757.0071 142.69 
L 757.0071 149.422 
L 756.9765 149.422 
L 756.9765 142.69 
L 754.6968 142.69 
z
" style="stroke:#000000;stroke-linejoin:miter;stroke-width:0.9;"/>
   </g>
   <g id="patch_8">
    <path clip-path="url(#p5bf2c1e16d)" d="M 810.5418 207.562 
C 811.515626 207.562 812.449697 207.175095 813.138296 206.486496 
C 813.826895 205.797897 814.2138 204.863826 814.2138 203.89 
C 814.2138 202.916174 813.826895 201.982103 813.138296 201.293504 
C 812.449697 200.604905 811.515626 200.218 810.5418 200.218 
C 809.567974 200.218 808.633903 200.604905 807.945304 201.293504 
C 807.256705 201.982103 806.8698 202.916174 806.8698 203.89 
C 806.8698 204.863826 807.256705 205.797897 807.945304 206.486496 
C 808.633903 207.175095 809.567974 207.562 810.5418 207.562 
z
" style="fill:none;stroke:#000000;stroke-linejoin:miter;stroke-width:0.9;"/>
   </g>
   <g id="patch_9">
    <path clip-path="url(#p5bf2c1e16d)" d="M 366.8418 318.64 
L 359.1918 320.935 
L 359.1918 318.6553 
L 352.4598 318.6553 
L 352.4598 318.6247 
L 359.1918 318.6247 
L 359.1918 316.345 
z
" style="stroke:#000000;stroke-linejoin:miter;stroke-width:0.9;"/>
   </g>
   <g id="line2d_1">
    <path clip-path="url(#p5bf2c1e16d)" d="M 30.2418 203.89 
L 49.3668 203.89 
L 68.4918 203.89 
" style="fill:none;stroke:#000000;stroke-linecap:round;stroke-width:0.9;"/>
   </g>
   <g id="line2d_2">
    <path clip-path="url(#p5bf2c1e16d)" d="M 68.4918 203.89 
L 91.4418 203.89 
L 93.9918 196.24 
L 99.0918 211.54 
L 104.1918 196.24 
L 109.2918 211.54 
L 114.3918 196.24 
L 119.4918 211.54 
L 122.0418 203.89 
L 144.9918 203.89 
" style="fill:none;stroke:#000000;stroke-linecap:round;stroke-width:0.9;"/>
   </g>
   <g id="line2d_3">
    <path clip-path="url(#p5bf2c1e16d)" d="M 144.9918 203.89 
L 180.4878 203.89 
M 180.4878 196.24 
L 180.4878 211.54 
M 185.9958 196.24 
L 185.9958 211.54 
M 185.9958 203.89 
L 221.4918 203.89 
" style="fill:none;stroke:#000000;stroke-linecap:round;stroke-width:0.9;"/>
   </g>
   <g id="line2d_4">
    <path clip-path="url(#p5bf2c1e16d)" d="M 221.4918 203.89 
L 240.7698 203.89 
L 251.4798 203.89 
M 278.7138 203.89 
L 297.9918 203.89 
" style="fill:none;stroke:#000000;stroke-linecap:round;stroke-width:0.9;"/>
   </g>
   <g id="line2d_5">
    <path clip-path="url(#p5bf2c1e16d)" d="M 278.7138 203.89 
L 282.0798 203.89 
" style="fill:none;stroke:#000000;stroke-linecap:round;stroke-width:0.9;"/>
   </g>
   <g id="line2d_6">
    <path clip-path="url(#p5bf2c1e16d)" d="M 251.4798 203.89 
L 251.4798 219.19 
L 271.3698 203.89 
L 251.4798 188.59 
L 251.4798 203.89 
" style="fill:none;stroke:#000000;stroke-linecap:round;stroke-width:0.9;"/>
   </g>
   <g id="line2d_7">
    <path clip-path="url(#p5bf2c1e16d)" d="M 297.9918 203.89 
L 320.9418 203.89 
L 323.4918 196.24 
L 328.5918 211.54 
L 333.6918 196.24 
L 338.7918 211.54 
L 343.8918 196.24 
L 348.9918 211.54 
L 351.5418 203.89 
L 374.4918 203.89 
" style="fill:none;stroke:#000000;stroke-linecap:round;stroke-width:0.9;"/>
   </g>
   <g id="line2d_8">
    <path clip-path="url(#p5bf2c1e16d)" d="M 374.4918 203.89 
L 393.7698 203.89 
L 404.4798 203.89 
M 431.7138 203.89 
L 450.9918 203.89 
" style="fill:none;stroke:#000000;stroke-linecap:round;stroke-width:0.9;"/>
   </g>
   <g id="line2d_9">
    <path clip-path="url(#p5bf2c1e16d)" d="M 431.7138 203.89 
L 435.0798 203.89 
" style="fill:none;stroke:#000000;stroke-linecap:round;stroke-width:0.9;"/>
   </g>
   <g id="line2d_10">
    <path clip-path="url(#p5bf2c1e16d)" d="M 404.4798 203.89 
L 404.4798 219.19 
L 424.3698 203.89 
L 404.4798 188.59 
L 404.4798 203.89 
" style="fill:none;stroke:#000000;stroke-linecap:round;stroke-width:0.9;"/>
   </g>
   <g id="line2d_11">
    <path clip-path="url(#p5bf2c1e16d)" d="M 450.9918 203.89 
L 450.9918 165.64 
L 450.9918 127.39 
" style="fill:none;stroke:#000000;stroke-linecap:round;stroke-width:0.9;"/>
   </g>
   <g id="line2d_12">
    <path clip-path="url(#p5bf2c1e16d)" d="M 450.9918 127.39 
L 428.0418 127.39 
L 425.4918 135.04 
L 420.3918 119.74 
L 415.2918 135.04 
L 410.1918 119.74 
L 405.0918 135.04 
L 399.9918 119.74 
L 397.4418 127.39 
L 374.4918 127.39 
" style="fill:none;stroke:#000000;stroke-linecap:round;stroke-width:0.9;"/>
   </g>
   <g id="line2d_13">
    <path clip-path="url(#p5bf2c1e16d)" d="M 374.4918 127.39 
L 374.4918 165.64 
L 374.4918 203.89 
" style="fill:none;stroke:#000000;stroke-linecap:round;stroke-width:0.9;"/>
   </g>
   <g id="line2d_14">
    <path clip-path="url(#p5bf2c1e16d)" d="M 221.4918 203.89 
L 221.4918 165.64 
L 221.4918 127.39 
" style="fill:none;stroke:#000000;stroke-linecap:round;stroke-width:0.9;"/>
   </g>
   <g id="line2d_15">
    <path clip-path="url(#p5bf2c1e16d)" d="M 221.4918 127.39 
L 244.4418 127.39 
L 246.9918 119.74 
L 252.0918 135.04 
L 257.1918 119.74 
L 262.2918 135.04 
L 267.3918 119.74 
L 272.4918 135.04 
L 275.0418 127.39 
L 297.9918 127.39 
" style="fill:none;stroke:#000000;stroke-linecap:round;stroke-width:0.9;"/>
   </g>
   <g id="line2d_16">
    <path clip-path="url(#p5bf2c1e16d)" d="M 297.9918 127.39 
L 297.9918 165.64 
L 297.9918 203.89 
" style="fill:none;stroke:#000000;stroke-linecap:round;stroke-width:0.9;"/>
   </g>
   <g id="line2d_17">
    <path clip-path="url(#p5bf2c1e16d)" d="M 450.9918 127.39 
L 473.9418 127.39 
L 476.4918 119.74 
L 481.5918 135.04 
L 486.6918 119.74 
L 491.7918 135.04 
L 496.8918 119.74 
L 501.9918 135.04 
L 504.5418 127.39 
L 527.4918 127.39 
" style="fill:none;stroke:#000000;stroke-linecap:round;stroke-width:0.9;"/>
   </g>
   <g id="line2d_18">
    <path clip-path="url(#p5bf2c1e16d)" d="M 527.4918 127.39 
L 550.4418 127.39 
L 552.9918 135.04 
L 558.0918 119.74 
L 563.1918 135.04 
L 568.2918 119.74 
L 573.3918 135.04 
L 578.4918 119.74 
L 581.0418 127.39 
L 603.9918 127.39 
" style="fill:none;stroke:#000000;stroke-linecap:round;stroke-width:0.9;"/>
   </g>
   <g id="line2d_19">
    <path clip-path="url(#p5bf2c1e16d)" d="M 565.7418 149.422 
L 565.7418 176.656 
L 565.7418 203.89 
" style="fill:none;stroke:#000000;stroke-linecap:round;stroke-width:0.9;"/>
   </g>
   <g id="line2d_20">
    <path clip-path="url(#p5bf2c1e16d)" d="M 565.7418 203.89 
L 585.0198 203.89 
L 595.7298 203.89 
M 622.9638 203.89 
L 642.2418 203.89 
" style="fill:none;stroke:#000000;stroke-linecap:round;stroke-width:0.9;"/>
   </g>
   <g id="line2d_21">
    <path clip-path="url(#p5bf2c1e16d)" d="M 622.9638 203.89 
L 626.3298 203.89 
" style="fill:none;stroke:#000000;stroke-linecap:round;stroke-width:0.9;"/>
   </g>
   <g id="line2d_22">
    <path clip-path="url(#p5bf2c1e16d)" d="M 595.7298 203.89 
L 595.7298 219.19 
L 615.6198 203.89 
L 595.7298 188.59 
L 595.7298 203.89 
" style="fill:none;stroke:#000000;stroke-linecap:round;stroke-width:0.9;"/>
   </g>
   <g id="line2d_23">
    <path clip-path="url(#p5bf2c1e16d)" d="M 642.2418 203.89 
L 642.2418 165.64 
L 642.2418 127.39 
" style="fill:none;stroke:#000000;stroke-linecap:round;stroke-width:0.9;"/>
   </g>
   <g id="line2d_24">
    <path clip-path="url(#p5bf2c1e16d)" d="M 642.2418 127.39 
L 665.1918 127.39 
L 667.7418 119.74 
L 672.8418 135.04 
L 677.9418 119.74 
L 683.0418 135.04 
L 688.1418 119.74 
L 693.2418 135.04 
L 695.7918 127.39 
L 718.7418 127.39 
" style="fill:none;stroke:#000000;stroke-linecap:round;stroke-width:0.9;"/>
   </g>
   <g id="line2d_25">
    <path clip-path="url(#p5bf2c1e16d)" d="M 718.7418 127.39 
L 741.6918 127.39 
L 744.2418 135.04 
L 749.3418 119.74 
L 754.4418 135.04 
L 759.5418 119.74 
L 764.6418 135.04 
L 769.7418 119.74 
L 772.2918 127.39 
L 795.2418 127.39 
" style="fill:none;stroke:#000000;stroke-linecap:round;stroke-width:0.9;"/>
   </g>
   <g id="line2d_26">
    <path clip-path="url(#p5bf2c1e16d)" d="M 756.9918 149.422 
L 756.9918 176.656 
L 756.9918 203.89 
" style="fill:none;stroke:#000000;stroke-linecap:round;stroke-width:0.9;"/>
   </g>
   <g id="line2d_27">
    <path clip-path="url(#p5bf2c1e16d)" d="M 756.9918 203.89 
L 776.2698 203.89 
L 786.9798 203.89 
M 814.2138 203.89 
L 833.4918 203.89 
" style="fill:none;stroke:#000000;stroke-linecap:round;stroke-width:0.9;"/>
   </g>
   <g id="line2d_28">
    <path clip-path="url(#p5bf2c1e16d)" d="M 814.2138 203.89 
L 817.5798 203.89 
" style="fill:none;stroke:#000000;stroke-linecap:round;stroke-width:0.9;"/>
   </g>
   <g id="line2d_29">
    <path clip-path="url(#p5bf2c1e16d)" d="M 786.9798 203.89 
L 786.9798 219.19 
L 806.8698 203.89 
L 786.9798 188.59 
L 786.9798 203.89 
" style="fill:none;stroke:#000000;stroke-linecap:round;stroke-width:0.9;"/>
   </g>
   <g id="line2d_30">
    <path clip-path="url(#p5bf2c1e16d)" d="M 833.4918 203.89 
L 852.6168 203.89 
L 871.7418 203.89 
" style="fill:none;stroke:#000000;stroke-linecap:round;stroke-width:0.9;"/>
   </g>
   <g id="line2d_31">
    <path clip-path="url(#p5bf2c1e16d)" d="M 642.2418 127.39 
L 642.2418 89.14 
L 642.2418 50.89 
" style="fill:none;stroke:#000000;stroke-linecap:round;stroke-width:0.9;"/>
   </g>
   <g id="line2d_32">
    <path clip-path="url(#p5bf2c1e16d)" d="M 642.2418 50.89 
L 470.1168 50.89 
L 297.9918 50.89 
" style="fill:none;stroke:#000000;stroke-linecap:round;stroke-width:0.9;"/>
   </g>
   <g id="line2d_33">
    <path clip-path="url(#p5bf2c1e16d)" d="M 297.9918 50.89 
L 275.0418 50.89 
L 272.4918 58.54 
L 267.3918 43.24 
L 262.2918 58.54 
L 257.1918 43.24 
L 252.0918 58.54 
L 246.9918 43.24 
L 244.4418 50.89 
L 221.4918 50.89 
" style="fill:none;stroke:#000000;stroke-linecap:round;stroke-width:0.9;"/>
   </g>
   <g id="line2d_34">
    <path clip-path="url(#p5bf2c1e16d)" d="M 221.4918 50.89 
L 221.4918 89.14 
L 221.4918 127.39 
" style="fill:none;stroke:#000000;stroke-linecap:round;stroke-width:0.9;"/>
   </g>
   <g id="line2d_35">
    <path clip-path="url(#p5bf2c1e16d)" d="M 565.7418 203.89 
L 565.7418 242.14 
L 565.7418 280.39 
" style="fill:none;stroke:#000000;stroke-linecap:round;stroke-width:0.9;"/>
   </g>
   <g id="line2d_36">
    <path clip-path="url(#p5bf2c1e16d)" d="M 565.7418 280.39 
L 601.2378 280.39 
M 601.2378 272.74 
L 601.2378 288.04 
M 606.7458 272.74 
L 606.7458 288.04 
M 606.7458 280.39 
L 642.2418 280.39 
" style="fill:none;stroke:#000000;stroke-linecap:round;stroke-width:0.9;"/>
   </g>
   <g id="line2d_37">
    <path clip-path="url(#p5bf2c1e16d)" d="M 642.2418 280.39 
L 642.2418 242.14 
L 642.2418 203.89 
" style="fill:none;stroke:#000000;stroke-linecap:round;stroke-width:0.9;"/>
   </g>
   <g id="line2d_38">
    <path clip-path="url(#p5bf2c1e16d)" d="M 756.9918 203.89 
L 756.9918 242.14 
L 756.9918 280.39 
" style="fill:none;stroke:#000000;stroke-linecap:round;stroke-width:0.9;"/>
   </g>
   <g id="line2d_39">
    <path clip-path="url(#p5bf2c1e16d)" d="M 756.9918 280.39 
L 792.4878 280.39 
M 792.4878 272.74 
L 792.4878 288.04 
M 797.9958 272.74 
L 797.9958 288.04 
M 797.9958 280.39 
L 833.4918 280.39 
" style="fill:none;stroke:#000000;stroke-linecap:round;stroke-width:0.9;"/>
   </g>
   <g id="line2d_40">
    <path clip-path="url(#p5bf2c1e16d)" d="M 833.4918 280.39 
L 833.4918 242.14 
L 833.4918 203.89 
" style="fill:none;stroke:#000000;stroke-linecap:round;stroke-width:0.9;"/>
   </g>
   <g id="line2d_41">
    <path clip-path="url(#p5bf2c1e16d)" d="M 833.4918 280.39 
L 833.4918 318.64 
L 833.4918 356.89 
" style="fill:none;stroke:#000000;stroke-linecap:round;stroke-width:0.9;"/>
   </g>
   <g id="line2d_42">
    <path clip-path="url(#p5bf2c1e16d)" d="M 833.4918 356.89 
L 603.9918 356.89 
L 374.4918 356.89 
" style="fill:none;stroke:#000000;stroke-linecap:round;stroke-width:0.9;"/>
   </g>
   <g id="line2d_43">
    <path clip-path="url(#p5bf2c1e16d)" d="M 374.4918 356.89 
L 374.4918 333.94 
L 366.8418 331.39 
L 382.1418 326.29 
L 366.8418 321.19 
L 382.1418 316.09 
L 366.8418 310.99 
L 382.1418 305.89 
L 374.4918 303.34 
L 374.4918 280.39 
" style="fill:none;stroke:#000000;stroke-linecap:round;stroke-width:0.9;"/>
   </g>
   <g id="line2d_44">
    <path clip-path="url(#p5bf2c1e16d)" d="M 374.4918 280.39 
L 374.4918 242.14 
L 374.4918 203.89 
" style="fill:none;stroke:#000000;stroke-linecap:round;stroke-width:0.9;"/>
   </g>
   <g id="text_1">
    <!-- $RV_1$ -->
    <g transform="translate(93.7218 225.237812)scale(0.14 -0.14)">
     <defs>
      <path d="M 25.203125 64.796875 
L 20.21875 38.921875 
L 32.90625 38.921875 
Q 40.375 38.921875 44.984375 43.046875 
Q 49.609375 47.171875 49.609375 53.8125 
Q 49.609375 59.125 46.5 61.953125 
Q 43.40625 64.796875 37.59375 64.796875 
z
M 43.3125 35.015625 
Q 46.4375 34.28125 48.515625 31.390625 
Q 50.59375 28.515625 53.328125 19.921875 
L 59.515625 0 
L 49.125 0 
L 43.40625 18.703125 
Q 41.21875 25.921875 38.328125 28.359375 
Q 35.453125 30.8125 29.5 30.8125 
L 18.609375 30.8125 
L 12.59375 0 
L 2.6875 0 
L 16.890625 72.90625 
L 39.109375 72.90625 
Q 49.21875 72.90625 54.609375 68.328125 
Q 60.015625 63.765625 60.015625 55.171875 
Q 60.015625 47.5625 55.421875 41.984375 
Q 50.828125 36.421875 43.3125 35.015625 
z
" id="DejaVuSans-Oblique-82"/>
      <path d="M 20.609375 0 
L 7.8125 72.90625 
L 17.484375 72.90625 
L 28.078125 10.203125 
L 63.484375 72.90625 
L 74.21875 72.90625 
L 32.078125 0 
z
" id="DejaVuSans-Oblique-86"/>
      <path d="M 12.40625 8.296875 
L 28.515625 8.296875 
L 28.515625 63.921875 
L 10.984375 60.40625 
L 10.984375 69.390625 
L 28.421875 72.90625 
L 38.28125 72.90625 
L 38.28125 8.296875 
L 54.390625 8.296875 
L 54.390625 0 
L 12.40625 0 
z
" id="DejaVuSans-49"/>
     </defs>
     <use transform="translate(0 0.09375)" xlink:href="#DejaVuSans-Oblique-82"/>
     <use transform="translate(69.482422 0.09375)" xlink:href="#DejaVuSans-Oblique-86"/>
     <use transform="translate(137.890625 -16.3125)scale(0.7)" xlink:href="#DejaVuSans-49"/>
    </g>
    <!-- 100k -->
    <g transform="translate(89.327113 240.91475)scale(0.14 -0.14)">
     <defs>
      <path d="M 31.78125 66.40625 
Q 24.171875 66.40625 20.328125 58.90625 
Q 16.5 51.421875 16.5 36.375 
Q 16.5 21.390625 20.328125 13.890625 
Q 24.171875 6.390625 31.78125 6.390625 
Q 39.453125 6.390625 43.28125 13.890625 
Q 47.125 21.390625 47.125 36.375 
Q 47.125 51.421875 43.28125 58.90625 
Q 39.453125 66.40625 31.78125 66.40625 
z
M 31.78125 74.21875 
Q 44.046875 74.21875 50.515625 64.515625 
Q 56.984375 54.828125 56.984375 36.375 
Q 56.984375 17.96875 50.515625 8.265625 
Q 44.046875 -1.421875 31.78125 -1.421875 
Q 19.53125 -1.421875 13.0625 8.265625 
Q 6.59375 17.96875 6.59375 36.375 
Q 6.59375 54.828125 13.0625 64.515625 
Q 19.53125 74.21875 31.78125 74.21875 
z
" id="DejaVuSans-48"/>
      <path d="M 9.078125 75.984375 
L 18.109375 75.984375 
L 18.109375 31.109375 
L 44.921875 54.6875 
L 56.390625 54.6875 
L 27.390625 29.109375 
L 57.625 0 
L 45.90625 0 
L 18.109375 26.703125 
L 18.109375 0 
L 9.078125 0 
z
" id="DejaVuSans-107"/>
     </defs>
     <use xlink:href="#DejaVuSans-49"/>
     <use x="63.623047" xlink:href="#DejaVuSans-48"/>
     <use x="127.246094" xlink:href="#DejaVuSans-48"/>
     <use x="190.869141" xlink:href="#DejaVuSans-107"/>
    </g>
   </g>
   <g id="text_2">
    <!-- $C_1$ -->
    <g transform="translate(174.9818 174.5915)scale(0.14 -0.14)">
     <defs>
      <path d="M 69.484375 67.28125 
L 67.484375 56.890625 
Q 62.796875 61.625 57.546875 63.921875 
Q 52.296875 66.21875 46.1875 66.21875 
Q 37.84375 66.21875 31.515625 62.203125 
Q 25.203125 58.203125 20.609375 50 
Q 17.671875 44.734375 16.125 38.84375 
Q 14.59375 32.953125 14.59375 27 
Q 14.59375 17.046875 19.75 11.8125 
Q 24.90625 6.59375 34.71875 6.59375 
Q 41.5 6.59375 47.75 8.765625 
Q 54 10.9375 59.90625 15.28125 
L 57.625 3.609375 
Q 51.8125 1.125 45.875 -0.140625 
Q 39.9375 -1.421875 33.984375 -1.421875 
Q 19.96875 -1.421875 12.078125 6.1875 
Q 4.203125 13.8125 4.203125 27.390625 
Q 4.203125 36.078125 7.203125 44.46875 
Q 10.203125 52.875 15.828125 59.8125 
Q 21.78125 67.1875 29.421875 70.703125 
Q 37.0625 74.21875 47.21875 74.21875 
Q 53.46875 74.21875 59.0625 72.484375 
Q 64.65625 70.75 69.484375 67.28125 
z
" id="DejaVuSans-Oblique-67"/>
     </defs>
     <use transform="translate(0 0.78125)" xlink:href="#DejaVuSans-Oblique-67"/>
     <use transform="translate(69.824219 -15.625)scale(0.7)" xlink:href="#DejaVuSans-49"/>
    </g>
    <!-- 1u -->
    <g transform="translate(174.3518 190.268437)scale(0.14 -0.14)">
     <defs>
      <path d="M 8.5 21.578125 
L 8.5 54.6875 
L 17.484375 54.6875 
L 17.484375 21.921875 
Q 17.484375 14.15625 20.5 10.265625 
Q 23.53125 6.390625 29.59375 6.390625 
Q 36.859375 6.390625 41.078125 11.03125 
Q 45.3125 15.671875 45.3125 23.6875 
L 45.3125 54.6875 
L 54.296875 54.6875 
L 54.296875 0 
L 45.3125 0 
L 45.3125 8.40625 
Q 42.046875 3.421875 37.71875 1 
Q 33.40625 -1.421875 27.6875 -1.421875 
Q 18.265625 -1.421875 13.375 4.4375 
Q 8.5 10.296875 8.5 21.578125 
z
M 31.109375 56 
z
" id="DejaVuSans-117"/>
     </defs>
     <use xlink:href="#DejaVuSans-49"/>
     <use x="63.623047" xlink:href="#DejaVuSans-117"/>
    </g>
   </g>
   <g id="text_3">
    <!-- $R_2$ -->
    <g transform="translate(328.0518 174.5915)scale(0.14 -0.14)">
     <defs>
      <path d="M 19.1875 8.296875 
L 53.609375 8.296875 
L 53.609375 0 
L 7.328125 0 
L 7.328125 8.296875 
Q 12.9375 14.109375 22.625 23.890625 
Q 32.328125 33.6875 34.8125 36.53125 
Q 39.546875 41.84375 41.421875 45.53125 
Q 43.3125 49.21875 43.3125 52.78125 
Q 43.3125 58.59375 39.234375 62.25 
Q 35.15625 65.921875 28.609375 65.921875 
Q 23.96875 65.921875 18.8125 64.3125 
Q 13.671875 62.703125 7.8125 59.421875 
L 7.8125 69.390625 
Q 13.765625 71.78125 18.9375 73 
Q 24.125 74.21875 28.421875 74.21875 
Q 39.75 74.21875 46.484375 68.546875 
Q 53.21875 62.890625 53.21875 53.421875 
Q 53.21875 48.921875 51.53125 44.890625 
Q 49.859375 40.875 45.40625 35.40625 
Q 44.1875 33.984375 37.640625 27.21875 
Q 31.109375 20.453125 19.1875 8.296875 
z
" id="DejaVuSans-50"/>
     </defs>
     <use transform="translate(0 0.09375)" xlink:href="#DejaVuSans-Oblique-82"/>
     <use transform="translate(69.482422 -16.3125)scale(0.7)" xlink:href="#DejaVuSans-50"/>
    </g>
    <!-- 100k -->
    <g transform="translate(318.827113 190.268437)scale(0.14 -0.14)">
     <use xlink:href="#DejaVuSans-49"/>
     <use x="63.623047" xlink:href="#DejaVuSans-48"/>
     <use x="127.246094" xlink:href="#DejaVuSans-48"/>
     <use x="190.869141" xlink:href="#DejaVuSans-107"/>
    </g>
   </g>
   <g id="text_4">
    <!-- $R_3$ -->
    <g transform="translate(404.5518 98.0915)scale(0.14 -0.14)">
     <defs>
      <path d="M 40.578125 39.3125 
Q 47.65625 37.796875 51.625 33 
Q 55.609375 28.21875 55.609375 21.1875 
Q 55.609375 10.40625 48.1875 4.484375 
Q 40.765625 -1.421875 27.09375 -1.421875 
Q 22.515625 -1.421875 17.65625 -0.515625 
Q 12.796875 0.390625 7.625 2.203125 
L 7.625 11.71875 
Q 11.71875 9.328125 16.59375 8.109375 
Q 21.484375 6.890625 26.8125 6.890625 
Q 36.078125 6.890625 40.9375 10.546875 
Q 45.796875 14.203125 45.796875 21.1875 
Q 45.796875 27.640625 41.28125 31.265625 
Q 36.765625 34.90625 28.71875 34.90625 
L 20.21875 34.90625 
L 20.21875 43.015625 
L 29.109375 43.015625 
Q 36.375 43.015625 40.234375 45.921875 
Q 44.09375 48.828125 44.09375 54.296875 
Q 44.09375 59.90625 40.109375 62.90625 
Q 36.140625 65.921875 28.71875 65.921875 
Q 24.65625 65.921875 20.015625 65.03125 
Q 15.375 64.15625 9.8125 62.3125 
L 9.8125 71.09375 
Q 15.4375 72.65625 20.34375 73.4375 
Q 25.25 74.21875 29.59375 74.21875 
Q 40.828125 74.21875 47.359375 69.109375 
Q 53.90625 64.015625 53.90625 55.328125 
Q 53.90625 49.265625 50.4375 45.09375 
Q 46.96875 40.921875 40.578125 39.3125 
z
" id="DejaVuSans-51"/>
     </defs>
     <use transform="translate(0 0.09375)" xlink:href="#DejaVuSans-Oblique-82"/>
     <use transform="translate(69.482422 -16.3125)scale(0.7)" xlink:href="#DejaVuSans-51"/>
    </g>
    <!-- 100k -->
    <g transform="translate(395.327113 113.768437)scale(0.14 -0.14)">
     <use xlink:href="#DejaVuSans-49"/>
     <use x="63.623047" xlink:href="#DejaVuSans-48"/>
     <use x="127.246094" xlink:href="#DejaVuSans-48"/>
     <use x="190.869141" xlink:href="#DejaVuSans-107"/>
    </g>
   </g>
   <g id="text_5">
    <!-- $R_1$ -->
    <g transform="translate(251.5518 98.0915)scale(0.14 -0.14)">
     <use transform="translate(0 0.09375)" xlink:href="#DejaVuSans-Oblique-82"/>
     <use transform="translate(69.482422 -16.3125)scale(0.7)" xlink:href="#DejaVuSans-49"/>
    </g>
    <!-- 100k -->
    <g transform="translate(242.327113 113.768437)scale(0.14 -0.14)">
     <use xlink:href="#DejaVuSans-49"/>
     <use x="63.623047" xlink:href="#DejaVuSans-48"/>
     <use x="127.246094" xlink:href="#DejaVuSans-48"/>
     <use x="190.869141" xlink:href="#DejaVuSans-107"/>
    </g>
   </g>
   <g id="text_6">
    <!-- $R_4$ -->
    <g transform="translate(481.0518 98.0915)scale(0.14 -0.14)">
     <defs>
      <path d="M 37.796875 64.3125 
L 12.890625 25.390625 
L 37.796875 25.390625 
z
M 35.203125 72.90625 
L 47.609375 72.90625 
L 47.609375 25.390625 
L 58.015625 25.390625 
L 58.015625 17.1875 
L 47.609375 17.1875 
L 47.609375 0 
L 37.796875 0 
L 37.796875 17.1875 
L 4.890625 17.1875 
L 4.890625 26.703125 
z
" id="DejaVuSans-52"/>
     </defs>
     <use transform="translate(0 0.09375)" xlink:href="#DejaVuSans-Oblique-82"/>
     <use transform="translate(69.482422 -16.3125)scale(0.7)" xlink:href="#DejaVuSans-52"/>
    </g>
    <!-- 1k -->
    <g transform="translate(480.734613 113.768437)scale(0.14 -0.14)">
     <use xlink:href="#DejaVuSans-49"/>
     <use x="63.623047" xlink:href="#DejaVuSans-107"/>
    </g>
   </g>
   <g id="text_7">
    <!-- $RV_2$ -->
    <g transform="translate(552.7218 98.0915)scale(0.14 -0.14)">
     <use transform="translate(0 0.09375)" xlink:href="#DejaVuSans-Oblique-82"/>
     <use transform="translate(69.482422 0.09375)" xlink:href="#DejaVuSans-Oblique-86"/>
     <use transform="translate(137.890625 -16.3125)scale(0.7)" xlink:href="#DejaVuSans-50"/>
    </g>
    <!-- 100k -->
    <g transform="translate(548.327113 113.768437)scale(0.14 -0.14)">
     <use xlink:href="#DejaVuSans-49"/>
     <use x="63.623047" xlink:href="#DejaVuSans-48"/>
     <use x="127.246094" xlink:href="#DejaVuSans-48"/>
     <use x="190.869141" xlink:href="#DejaVuSans-107"/>
    </g>
   </g>
   <g id="text_8">
    <!-- $R_5$ -->
    <g transform="translate(672.3018 98.0915)scale(0.14 -0.14)">
     <defs>
      <path d="M 10.796875 72.90625 
L 49.515625 72.90625 
L 49.515625 64.59375 
L 19.828125 64.59375 
L 19.828125 46.734375 
Q 21.96875 47.46875 24.109375 47.828125 
Q 26.265625 48.1875 28.421875 48.1875 
Q 40.625 48.1875 47.75 41.5 
Q 54.890625 34.8125 54.890625 23.390625 
Q 54.890625 11.625 47.5625 5.09375 
Q 40.234375 -1.421875 26.90625 -1.421875 
Q 22.3125 -1.421875 17.546875 -0.640625 
Q 12.796875 0.140625 7.71875 1.703125 
L 7.71875 11.625 
Q 12.109375 9.234375 16.796875 8.0625 
Q 21.484375 6.890625 26.703125 6.890625 
Q 35.15625 6.890625 40.078125 11.328125 
Q 45.015625 15.765625 45.015625 23.390625 
Q 45.015625 31 40.078125 35.4375 
Q 35.15625 39.890625 26.703125 39.890625 
Q 22.75 39.890625 18.8125 39.015625 
Q 14.890625 38.140625 10.796875 36.28125 
z
" id="DejaVuSans-53"/>
     </defs>
     <use transform="translate(0 0.09375)" xlink:href="#DejaVuSans-Oblique-82"/>
     <use transform="translate(69.482422 -16.3125)scale(0.7)" xlink:href="#DejaVuSans-53"/>
    </g>
    <!-- 1k -->
    <g transform="translate(671.984613 113.768437)scale(0.14 -0.14)">
     <use xlink:href="#DejaVuSans-49"/>
     <use x="63.623047" xlink:href="#DejaVuSans-107"/>
    </g>
   </g>
   <g id="text_9">
    <!-- $RV_3$ -->
    <g transform="translate(743.9718 98.0915)scale(0.14 -0.14)">
     <use transform="translate(0 0.09375)" xlink:href="#DejaVuSans-Oblique-82"/>
     <use transform="translate(69.482422 0.09375)" xlink:href="#DejaVuSans-Oblique-86"/>
     <use transform="translate(137.890625 -16.3125)scale(0.7)" xlink:href="#DejaVuSans-51"/>
    </g>
    <!-- 100k -->
    <g transform="translate(739.577113 113.768437)scale(0.14 -0.14)">
     <use xlink:href="#DejaVuSans-49"/>
     <use x="63.623047" xlink:href="#DejaVuSans-48"/>
     <use x="127.246094" xlink:href="#DejaVuSans-48"/>
     <use x="190.869141" xlink:href="#DejaVuSans-107"/>
    </g>
   </g>
   <g id="text_10">
    <!-- $R_6$ -->
    <g transform="translate(251.5518 21.5915)scale(0.14 -0.14)">
     <defs>
      <path d="M 33.015625 40.375 
Q 26.375 40.375 22.484375 35.828125 
Q 18.609375 31.296875 18.609375 23.390625 
Q 18.609375 15.53125 22.484375 10.953125 
Q 26.375 6.390625 33.015625 6.390625 
Q 39.65625 6.390625 43.53125 10.953125 
Q 47.40625 15.53125 47.40625 23.390625 
Q 47.40625 31.296875 43.53125 35.828125 
Q 39.65625 40.375 33.015625 40.375 
z
M 52.59375 71.296875 
L 52.59375 62.3125 
Q 48.875 64.0625 45.09375 64.984375 
Q 41.3125 65.921875 37.59375 65.921875 
Q 27.828125 65.921875 22.671875 59.328125 
Q 17.53125 52.734375 16.796875 39.40625 
Q 19.671875 43.65625 24.015625 45.921875 
Q 28.375 48.1875 33.59375 48.1875 
Q 44.578125 48.1875 50.953125 41.515625 
Q 57.328125 34.859375 57.328125 23.390625 
Q 57.328125 12.15625 50.6875 5.359375 
Q 44.046875 -1.421875 33.015625 -1.421875 
Q 20.359375 -1.421875 13.671875 8.265625 
Q 6.984375 17.96875 6.984375 36.375 
Q 6.984375 53.65625 15.1875 63.9375 
Q 23.390625 74.21875 37.203125 74.21875 
Q 40.921875 74.21875 44.703125 73.484375 
Q 48.484375 72.75 52.59375 71.296875 
z
" id="DejaVuSans-54"/>
     </defs>
     <use transform="translate(0 0.09375)" xlink:href="#DejaVuSans-Oblique-82"/>
     <use transform="translate(69.482422 -16.3125)scale(0.7)" xlink:href="#DejaVuSans-54"/>
    </g>
    <!-- 100k -->
    <g transform="translate(242.327113 37.268437)scale(0.14 -0.14)">
     <use xlink:href="#DejaVuSans-49"/>
     <use x="63.623047" xlink:href="#DejaVuSans-48"/>
     <use x="127.246094" xlink:href="#DejaVuSans-48"/>
     <use x="190.869141" xlink:href="#DejaVuSans-107"/>
    </g>
   </g>
   <g id="text_11">
    <!-- $C_2$ -->
    <g transform="translate(595.7318 251.0915)scale(0.14 -0.14)">
     <use transform="translate(0 0.78125)" xlink:href="#DejaVuSans-Oblique-67"/>
     <use transform="translate(69.824219 -15.625)scale(0.7)" xlink:href="#DejaVuSans-50"/>
    </g>
    <!-- 0.01u -->
    <g transform="translate(583.969613 266.768437)scale(0.14 -0.14)">
     <defs>
      <path d="M 10.6875 12.40625 
L 21 12.40625 
L 21 0 
L 10.6875 0 
z
" id="DejaVuSans-46"/>
     </defs>
     <use xlink:href="#DejaVuSans-48"/>
     <use x="63.623047" xlink:href="#DejaVuSans-46"/>
     <use x="95.410156" xlink:href="#DejaVuSans-48"/>
     <use x="159.033203" xlink:href="#DejaVuSans-49"/>
     <use x="222.65625" xlink:href="#DejaVuSans-117"/>
    </g>
   </g>
   <g id="text_12">
    <!-- $C_3$ -->
    <g transform="translate(786.9818 251.0915)scale(0.14 -0.14)">
     <use transform="translate(0 0.78125)" xlink:href="#DejaVuSans-Oblique-67"/>
     <use transform="translate(69.824219 -15.625)scale(0.7)" xlink:href="#DejaVuSans-51"/>
    </g>
    <!-- 0.01u -->
    <g transform="translate(775.219613 266.768437)scale(0.14 -0.14)">
     <use xlink:href="#DejaVuSans-48"/>
     <use x="63.623047" xlink:href="#DejaVuSans-46"/>
     <use x="95.410156" xlink:href="#DejaVuSans-48"/>
     <use x="159.033203" xlink:href="#DejaVuSans-49"/>
     <use x="222.65625" xlink:href="#DejaVuSans-117"/>
    </g>
   </g>
   <g id="text_13">
    <!-- $RV_4$ -->
    <g transform="translate(385.2018 314.664656)scale(0.14 -0.14)">
     <use transform="translate(0 0.09375)" xlink:href="#DejaVuSans-Oblique-82"/>
     <use transform="translate(69.482422 0.09375)" xlink:href="#DejaVuSans-Oblique-86"/>
     <use transform="translate(137.890625 -16.3125)scale(0.7)" xlink:href="#DejaVuSans-52"/>
    </g>
    <!-- 100k -->
    <g transform="translate(385.2018 330.341594)scale(0.14 -0.14)">
     <use xlink:href="#DejaVuSans-49"/>
     <use x="63.623047" xlink:href="#DejaVuSans-48"/>
     <use x="127.246094" xlink:href="#DejaVuSans-48"/>
     <use x="190.869141" xlink:href="#DejaVuSans-107"/>
    </g>
   </g>
   <g id="patch_10">
    <path clip-path="url(#p5bf2c1e16d)" d="M 30.2418 206.185 
C 30.850441 206.185 31.434236 205.943184 31.86461 205.51281 
C 32.294984 205.082436 32.5368 204.498641 32.5368 203.89 
C 32.5368 203.281359 32.294984 202.697564 31.86461 202.26719 
C 31.434236 201.836816 30.850441 201.595 30.2418 201.595 
C 29.633159 201.595 29.049364 201.836816 28.61899 202.26719 
C 28.188616 202.697564 27.9468 203.281359 27.9468 203.89 
C 27.9468 204.498641 28.188616 205.082436 28.61899 205.51281 
C 29.049364 205.943184 29.633159 206.185 30.2418 206.185 
z
" style="fill:#ffffff;stroke:#000000;stroke-linejoin:miter;stroke-width:0.9;"/>
   </g>
   <g id="patch_11">
    <path clip-path="url(#p5bf2c1e16d)" d="M 374.4918 206.185 
C 375.100441 206.185 375.684236 205.943184 376.11461 205.51281 
C 376.544984 205.082436 376.7868 204.498641 376.7868 203.89 
C 376.7868 203.281359 376.544984 202.697564 376.11461 202.26719 
C 375.684236 201.836816 375.100441 201.595 374.4918 201.595 
C 373.883159 201.595 373.299364 201.836816 372.86899 202.26719 
C 372.438616 202.697564 372.1968 203.281359 372.1968 203.89 
C 372.1968 204.498641 372.438616 205.082436 372.86899 205.51281 
C 373.299364 205.943184 373.883159 206.185 374.4918 206.185 
z
" style="stroke:#000000;stroke-linejoin:miter;stroke-width:0.9;"/>
   </g>
   <g id="patch_12">
    <path clip-path="url(#p5bf2c1e16d)" d="M 221.4918 206.185 
C 222.100441 206.185 222.684236 205.943184 223.11461 205.51281 
C 223.544984 205.082436 223.7868 204.498641 223.7868 203.89 
C 223.7868 203.281359 223.544984 202.697564 223.11461 202.26719 
C 222.684236 201.836816 222.100441 201.595 221.4918 201.595 
C 220.883159 201.595 220.299364 201.836816 219.86899 202.26719 
C 219.438616 202.697564 219.1968 203.281359 219.1968 203.89 
C 219.1968 204.498641 219.438616 205.082436 219.86899 205.51281 
C 220.299364 205.943184 220.883159 206.185 221.4918 206.185 
z
" style="stroke:#000000;stroke-linejoin:miter;stroke-width:0.9;"/>
   </g>
   <g id="patch_13">
    <path clip-path="url(#p5bf2c1e16d)" d="M 297.9918 206.185 
C 298.600441 206.185 299.184236 205.943184 299.61461 205.51281 
C 300.044984 205.082436 300.2868 204.498641 300.2868 203.89 
C 300.2868 203.281359 300.044984 202.697564 299.61461 202.26719 
C 299.184236 201.836816 298.600441 201.595 297.9918 201.595 
C 297.383159 201.595 296.799364 201.836816 296.36899 202.26719 
C 295.938616 202.697564 295.6968 203.281359 295.6968 203.89 
C 295.6968 204.498641 295.938616 205.082436 296.36899 205.51281 
C 296.799364 205.943184 297.383159 206.185 297.9918 206.185 
z
" style="stroke:#000000;stroke-linejoin:miter;stroke-width:0.9;"/>
   </g>
   <g id="patch_14">
    <path clip-path="url(#p5bf2c1e16d)" d="M 871.7418 206.185 
C 872.350441 206.185 872.934236 205.943184 873.36461 205.51281 
C 873.794984 205.082436 874.0368 204.498641 874.0368 203.89 
C 874.0368 203.281359 873.794984 202.697564 873.36461 202.26719 
C 872.934236 201.836816 872.350441 201.595 871.7418 201.595 
C 871.133159 201.595 870.549364 201.836816 870.11899 202.26719 
C 869.688616 202.697564 869.4468 203.281359 869.4468 203.89 
C 869.4468 204.498641 869.688616 205.082436 870.11899 205.51281 
C 870.549364 205.943184 871.133159 206.185 871.7418 206.185 
z
" style="fill:#ffffff;stroke:#000000;stroke-linejoin:miter;stroke-width:0.9;"/>
   </g>
   <g id="patch_15">
    <path clip-path="url(#p5bf2c1e16d)" d="M 642.2418 129.685 
C 642.850441 129.685 643.434236 129.443184 643.86461 129.01281 
C 644.294984 128.582436 644.5368 127.998641 644.5368 127.39 
C 644.5368 126.781359 644.294984 126.197564 643.86461 125.76719 
C 643.434236 125.336816 642.850441 125.095 642.2418 125.095 
C 641.633159 125.095 641.049364 125.336816 640.61899 125.76719 
C 640.188616 126.197564 639.9468 126.781359 639.9468 127.39 
C 639.9468 127.998641 640.188616 128.582436 640.61899 129.01281 
C 641.049364 129.443184 641.633159 129.685 642.2418 129.685 
z
" style="stroke:#000000;stroke-linejoin:miter;stroke-width:0.9;"/>
   </g>
   <g id="patch_16">
    <path clip-path="url(#p5bf2c1e16d)" d="M 221.4918 129.685 
C 222.100441 129.685 222.684236 129.443184 223.11461 129.01281 
C 223.544984 128.582436 223.7868 127.998641 223.7868 127.39 
C 223.7868 126.781359 223.544984 126.197564 223.11461 125.76719 
C 222.684236 125.336816 222.100441 125.095 221.4918 125.095 
C 220.883159 125.095 220.299364 125.336816 219.86899 125.76719 
C 219.438616 126.197564 219.1968 126.781359 219.1968 127.39 
C 219.1968 127.998641 219.438616 128.582436 219.86899 129.01281 
C 220.299364 129.443184 220.883159 129.685 221.4918 129.685 
z
" style="stroke:#000000;stroke-linejoin:miter;stroke-width:0.9;"/>
   </g>
   <g id="patch_17">
    <path clip-path="url(#p5bf2c1e16d)" d="M 565.7418 206.185 
C 566.350441 206.185 566.934236 205.943184 567.36461 205.51281 
C 567.794984 205.082436 568.0368 204.498641 568.0368 203.89 
C 568.0368 203.281359 567.794984 202.697564 567.36461 202.26719 
C 566.934236 201.836816 566.350441 201.595 565.7418 201.595 
C 565.133159 201.595 564.549364 201.836816 564.11899 202.26719 
C 563.688616 202.697564 563.4468 203.281359 563.4468 203.89 
C 563.4468 204.498641 563.688616 205.082436 564.11899 205.51281 
C 564.549364 205.943184 565.133159 206.185 565.7418 206.185 
z
" style="stroke:#000000;stroke-linejoin:miter;stroke-width:0.9;"/>
   </g>
   <g id="patch_18">
    <path clip-path="url(#p5bf2c1e16d)" d="M 642.2418 206.185 
C 642.850441 206.185 643.434236 205.943184 643.86461 205.51281 
C 644.294984 205.082436 644.5368 204.498641 644.5368 203.89 
C 644.5368 203.281359 644.294984 202.697564 643.86461 202.26719 
C 643.434236 201.836816 642.850441 201.595 642.2418 201.595 
C 641.633159 201.595 641.049364 201.836816 640.61899 202.26719 
C 640.188616 202.697564 639.9468 203.281359 639.9468 203.89 
C 639.9468 204.498641 640.188616 205.082436 640.61899 205.51281 
C 641.049364 205.943184 641.633159 206.185 642.2418 206.185 
z
" style="stroke:#000000;stroke-linejoin:miter;stroke-width:0.9;"/>
   </g>
   <g id="patch_19">
    <path clip-path="url(#p5bf2c1e16d)" d="M 756.9918 206.185 
C 757.600441 206.185 758.184236 205.943184 758.61461 205.51281 
C 759.044984 205.082436 759.2868 204.498641 759.2868 203.89 
C 759.2868 203.281359 759.044984 202.697564 758.61461 202.26719 
C 758.184236 201.836816 757.600441 201.595 756.9918 201.595 
C 756.383159 201.595 755.799364 201.836816 755.36899 202.26719 
C 754.938616 202.697564 754.6968 203.281359 754.6968 203.89 
C 754.6968 204.498641 754.938616 205.082436 755.36899 205.51281 
C 755.799364 205.943184 756.383159 206.185 756.9918 206.185 
z
" style="stroke:#000000;stroke-linejoin:miter;stroke-width:0.9;"/>
   </g>
   <g id="patch_20">
    <path clip-path="url(#p5bf2c1e16d)" d="M 833.4918 206.185 
C 834.100441 206.185 834.684236 205.943184 835.11461 205.51281 
C 835.544984 205.082436 835.7868 204.498641 835.7868 203.89 
C 835.7868 203.281359 835.544984 202.697564 835.11461 202.26719 
C 834.684236 201.836816 834.100441 201.595 833.4918 201.595 
C 832.883159 201.595 832.299364 201.836816 831.86899 202.26719 
C 831.438616 202.697564 831.1968 203.281359 831.1968 203.89 
C 831.1968 204.498641 831.438616 205.082436 831.86899 205.51281 
C 832.299364 205.943184 832.883159 206.185 833.4918 206.185 
z
" style="stroke:#000000;stroke-linejoin:miter;stroke-width:0.9;"/>
   </g>
   <g id="patch_21">
    <path clip-path="url(#p5bf2c1e16d)" d="M 833.4918 282.685 
C 834.100441 282.685 834.684236 282.443184 835.11461 282.01281 
C 835.544984 281.582436 835.7868 280.998641 835.7868 280.39 
C 835.7868 279.781359 835.544984 279.197564 835.11461 278.76719 
C 834.684236 278.336816 834.100441 278.095 833.4918 278.095 
C 832.883159 278.095 832.299364 278.336816 831.86899 278.76719 
C 831.438616 279.197564 831.1968 279.781359 831.1968 280.39 
C 831.1968 280.998641 831.438616 281.582436 831.86899 282.01281 
C 832.299364 282.443184 832.883159 282.685 833.4918 282.685 
z
" style="stroke:#000000;stroke-linejoin:miter;stroke-width:0.9;"/>
   </g>
   <g id="text_14">
    <!-- $IN$ -->
    <g transform="translate(10.1868 207.753125)scale(0.14 -0.14)">
     <defs>
      <path d="M 16.890625 72.90625 
L 26.8125 72.90625 
L 12.59375 0 
L 2.6875 0 
z
" id="DejaVuSans-Oblique-73"/>
      <path d="M 16.890625 72.90625 
L 30.171875 72.90625 
L 50.296875 10.40625 
L 62.5 72.90625 
L 72.125 72.90625 
L 57.90625 0 
L 44.578125 0 
L 24.515625 62.890625 
L 12.3125 0 
L 2.6875 0 
z
" id="DejaVuSans-Oblique-78"/>
     </defs>
     <use transform="translate(0 0.09375)" xlink:href="#DejaVuSans-Oblique-73"/>
     <use transform="translate(29.492188 0.09375)" xlink:href="#DejaVuSans-Oblique-78"/>
    </g>
   </g>
   <g id="text_15">
    <!-- $OUT$ -->
    <g transform="translate(877.0968 207.753125)scale(0.14 -0.14)">
     <defs>
      <path d="M 45.609375 66.21875 
Q 37.5 66.21875 31.296875 62.28125 
Q 25.09375 58.34375 20.515625 50.296875 
Q 17.578125 45.171875 16.03125 39.40625 
Q 14.5 33.640625 14.5 27.78125 
Q 14.5 17.625 19.359375 12.109375 
Q 24.21875 6.59375 33.109375 6.59375 
Q 41.109375 6.59375 47.375 10.5625 
Q 53.65625 14.546875 58.109375 22.40625 
Q 61.078125 27.6875 62.640625 33.46875 
Q 64.203125 39.265625 64.203125 45.015625 
Q 64.203125 55.125 59.3125 60.671875 
Q 54.4375 66.21875 45.609375 66.21875 
z
M 32.8125 -1.421875 
Q 19.390625 -1.421875 11.6875 6.53125 
Q 4 14.5 4 28.328125 
Q 4 36.234375 7 44.484375 
Q 10.015625 52.734375 15.28125 59.1875 
Q 21.484375 66.75 29.09375 70.484375 
Q 36.71875 74.21875 45.90625 74.21875 
Q 59.28125 74.21875 66.984375 66.328125 
Q 74.703125 58.453125 74.703125 44.828125 
Q 74.703125 36.421875 71.765625 28.3125 
Q 68.84375 20.21875 63.375 13.625 
Q 57.125 6 49.578125 2.28125 
Q 42.046875 -1.421875 32.8125 -1.421875 
z
" id="DejaVuSans-Oblique-79"/>
      <path d="M 15.484375 72.90625 
L 25.390625 72.90625 
L 16.796875 28.609375 
Q 16.265625 25.640625 16.046875 23.703125 
Q 15.828125 21.78125 15.828125 20.3125 
Q 15.828125 13.578125 19.578125 10.078125 
Q 23.34375 6.59375 30.609375 6.59375 
Q 40.046875 6.59375 45.28125 11.765625 
Q 50.53125 16.9375 52.78125 28.609375 
L 61.375 72.90625 
L 71.296875 72.90625 
L 62.5 27.390625 
Q 59.625 12.640625 51.5625 5.609375 
Q 43.5 -1.421875 29.5 -1.421875 
Q 18.5625 -1.421875 12.1875 4.078125 
Q 5.8125 9.578125 5.8125 19 
Q 5.8125 20.703125 6.046875 22.828125 
Q 6.296875 24.953125 6.78125 27.390625 
z
" id="DejaVuSans-Oblique-85"/>
      <path d="M 5.90625 72.90625 
L 67.578125 72.90625 
L 66.015625 64.59375 
L 39.984375 64.59375 
L 27.484375 0 
L 17.578125 0 
L 30.078125 64.59375 
L 4.296875 64.59375 
z
" id="DejaVuSans-Oblique-84"/>
     </defs>
     <use transform="translate(0 0.78125)" xlink:href="#DejaVuSans-Oblique-79"/>
     <use transform="translate(78.710938 0.78125)" xlink:href="#DejaVuSans-Oblique-85"/>
     <use transform="translate(151.904297 0.78125)" xlink:href="#DejaVuSans-Oblique-84"/>
    </g>
   </g>
  </g>
 </g>
 <defs>
  <clipPath id="p5bf2c1e16d">
   <rect height="352.75" width="903.8526" x="7.2" y="7.2"/>
  </clipPath>
 </defs>
</svg>
