<?xml version="1.0" standalone="no"?>
 <!DOCTYPE svg PUBLIC "-//W3C//DTD SVG 1.1//EN" 
 "http://www.w3.org/Graphics/SVG/1.1/DTD/svg11.dtd"> 
<svg
  xmlns:svg="http://www.w3.org/2000/svg"
  xmlns="http://www.w3.org/2000/svg"
  xmlns:xlink="http://www.w3.org/1999/xlink"
  version="1.1"
  width="297.0022mm" height="210.0072mm" viewBox="0.0000 0.0000 297.0022 210.0072">
<title>SVG Image created as panel-mask.svg date 2023/11/04 16:15:52 </title>
  <desc>Image generated by PCBNEW </desc>
<g style="fill:#000000; fill-opacity:1.0000;stroke:#000000; stroke-opacity:1.0000;
stroke-linecap:round; stroke-linejoin:round;"
 transform="translate(0 0) scale(1 1)">
</g>
<g style="fill:#000000; fill-opacity:0.0; 
stroke:#000000; stroke-width:0.0000; stroke-opacity:1; 
stroke-linecap:round; stroke-linejoin:round;">
</g>
<g style="fill:#000000; fill-opacity:0.0; 
stroke:#000000; stroke-width:0.3500; stroke-opacity:1; 
stroke-linecap:round; stroke-linejoin:round;">
<text x="70.9500" y="55.3000"
textLength="18.5929" font-size="4.0000" lengthAdjust="spacingAndGlyphs"
text-anchor="middle" opacity="0">funktion</text>
<g class="stroked-text"><desc>funktion</desc>
<path d="M62.1643 53.1697
L63.3071 53.1697
" />
<path d="M62.5929 55.1697
L62.5929 52.5982
" />
<path d="M62.5929 52.5982
L62.7357 52.3125
" />
<path d="M62.7357 52.3125
L63.0214 52.1697
" />
<path d="M63.0214 52.1697
L63.3071 52.1697
" />
<path d="M65.5929 53.1697
L65.5929 55.1697
" />
<path d="M64.3071 53.1697
L64.3071 54.7411
" />
<path d="M64.3071 54.7411
L64.4500 55.0268
" />
<path d="M64.4500 55.0268
L64.7357 55.1697
" />
<path d="M64.7357 55.1697
L65.1643 55.1697
" />
<path d="M65.1643 55.1697
L65.4500 55.0268
" />
<path d="M65.4500 55.0268
L65.5929 54.8839
" />
<path d="M67.0214 53.1697
L67.0214 55.1697
" />
<path d="M67.0214 53.4554
L67.1643 53.3125
" />
<path d="M67.1643 53.3125
L67.4500 53.1697
" />
<path d="M67.4500 53.1697
L67.8786 53.1697
" />
<path d="M67.8786 53.1697
L68.1643 53.3125
" />
<path d="M68.1643 53.3125
L68.3071 53.5982
" />
<path d="M68.3071 53.5982
L68.3071 55.1697
" />
<path d="M69.7357 55.1697
L69.7357 52.1697
" />
<path d="M70.0214 54.0268
L70.8786 55.1697
" />
<path d="M70.8786 53.1697
L69.7357 54.3125
" />
<path d="M71.7357 53.1697
L72.8786 53.1697
" />
<path d="M72.1643 52.1697
L72.1643 54.7411
" />
<path d="M72.1643 54.7411
L72.3071 55.0268
" />
<path d="M72.3071 55.0268
L72.5929 55.1697
" />
<path d="M72.5929 55.1697
L72.8786 55.1697
" />
<path d="M73.8786 55.1697
L73.8786 53.1697
" />
<path d="M73.8786 52.1697
L73.7357 52.3125
" />
<path d="M73.7357 52.3125
L73.8786 52.4554
" />
<path d="M73.8786 52.4554
L74.0214 52.3125
" />
<path d="M74.0214 52.3125
L73.8786 52.1697
" />
<path d="M73.8786 52.1697
L73.8786 52.4554
" />
<path d="M75.7357 55.1697
L75.4500 55.0268
" />
<path d="M75.4500 55.0268
L75.3071 54.8839
" />
<path d="M75.3071 54.8839
L75.1643 54.5982
" />
<path d="M75.1643 54.5982
L75.1643 53.7411
" />
<path d="M75.1643 53.7411
L75.3071 53.4554
" />
<path d="M75.3071 53.4554
L75.4500 53.3125
" />
<path d="M75.4500 53.3125
L75.7357 53.1697
" />
<path d="M75.7357 53.1697
L76.1643 53.1697
" />
<path d="M76.1643 53.1697
L76.4500 53.3125
" />
<path d="M76.4500 53.3125
L76.5929 53.4554
" />
<path d="M76.5929 53.4554
L76.7357 53.7411
" />
<path d="M76.7357 53.7411
L76.7357 54.5982
" />
<path d="M76.7357 54.5982
L76.5929 54.8839
" />
<path d="M76.5929 54.8839
L76.4500 55.0268
" />
<path d="M76.4500 55.0268
L76.1643 55.1697
" />
<path d="M76.1643 55.1697
L75.7357 55.1697
" />
<path d="M78.0214 53.1697
L78.0214 55.1697
" />
<path d="M78.0214 53.4554
L78.1643 53.3125
" />
<path d="M78.1643 53.3125
L78.4500 53.1697
" />
<path d="M78.4500 53.1697
L78.8786 53.1697
" />
<path d="M78.8786 53.1697
L79.1643 53.3125
" />
<path d="M79.1643 53.3125
L79.3071 53.5982
" />
<path d="M79.3071 53.5982
L79.3071 55.1697
" />
</g></g>
<g style="fill:#000000; fill-opacity:0.0; 
stroke:#000000; stroke-width:0.2500; stroke-opacity:1; 
stroke-linecap:round; stroke-linejoin:round;">
<text x="60.9600" y="167.6240"
textLength="9.0700" font-size="1.8667" lengthAdjust="spacingAndGlyphs"
text-anchor="middle" opacity="0">TRIGGER</text>
<g class="stroked-text"><desc>TRIGGER</desc>
<path d="M56.7933 165.5362
L57.5933 165.5362
" />
<path d="M57.1933 167.5362
L57.1933 165.5362
" />
<path d="M58.8600 167.5362
L58.3933 166.5839
" />
<path d="M58.0600 167.5362
L58.0600 165.5362
" />
<path d="M58.0600 165.5362
L58.5933 165.5362
" />
<path d="M58.5933 165.5362
L58.7267 165.6315
" />
<path d="M58.7267 165.6315
L58.7933 165.7267
" />
<path d="M58.7933 165.7267
L58.8600 165.9172
" />
<path d="M58.8600 165.9172
L58.8600 166.2029
" />
<path d="M58.8600 166.2029
L58.7933 166.3934
" />
<path d="M58.7933 166.3934
L58.7267 166.4886
" />
<path d="M58.7267 166.4886
L58.5933 166.5839
" />
<path d="M58.5933 166.5839
L58.0600 166.5839
" />
<path d="M59.4600 167.5362
L59.4600 165.5362
" />
<path d="M60.8600 165.6315
L60.7267 165.5362
" />
<path d="M60.7267 165.5362
L60.5267 165.5362
" />
<path d="M60.5267 165.5362
L60.3267 165.6315
" />
<path d="M60.3267 165.6315
L60.1933 165.8220
" />
<path d="M60.1933 165.8220
L60.1267 166.0124
" />
<path d="M60.1267 166.0124
L60.0600 166.3934
" />
<path d="M60.0600 166.3934
L60.0600 166.6791
" />
<path d="M60.0600 166.6791
L60.1267 167.0600
" />
<path d="M60.1267 167.0600
L60.1933 167.2505
" />
<path d="M60.1933 167.2505
L60.3267 167.4410
" />
<path d="M60.3267 167.4410
L60.5267 167.5362
" />
<path d="M60.5267 167.5362
L60.6600 167.5362
" />
<path d="M60.6600 167.5362
L60.8600 167.4410
" />
<path d="M60.8600 167.4410
L60.9267 167.3458
" />
<path d="M60.9267 167.3458
L60.9267 166.6791
" />
<path d="M60.9267 166.6791
L60.6600 166.6791
" />
<path d="M62.2600 165.6315
L62.1267 165.5362
" />
<path d="M62.1267 165.5362
L61.9267 165.5362
" />
<path d="M61.9267 165.5362
L61.7267 165.6315
" />
<path d="M61.7267 165.6315
L61.5933 165.8220
" />
<path d="M61.5933 165.8220
L61.5267 166.0124
" />
<path d="M61.5267 166.0124
L61.4600 166.3934
" />
<path d="M61.4600 166.3934
L61.4600 166.6791
" />
<path d="M61.4600 166.6791
L61.5267 167.0600
" />
<path d="M61.5267 167.0600
L61.5933 167.2505
" />
<path d="M61.5933 167.2505
L61.7267 167.4410
" />
<path d="M61.7267 167.4410
L61.9267 167.5362
" />
<path d="M61.9267 167.5362
L62.0600 167.5362
" />
<path d="M62.0600 167.5362
L62.2600 167.4410
" />
<path d="M62.2600 167.4410
L62.3267 167.3458
" />
<path d="M62.3267 167.3458
L62.3267 166.6791
" />
<path d="M62.3267 166.6791
L62.0600 166.6791
" />
<path d="M62.9267 166.4886
L63.3933 166.4886
" />
<path d="M63.5933 167.5362
L62.9267 167.5362
" />
<path d="M62.9267 167.5362
L62.9267 165.5362
" />
<path d="M62.9267 165.5362
L63.5933 165.5362
" />
<path d="M64.9933 167.5362
L64.5267 166.5839
" />
<path d="M64.1933 167.5362
L64.1933 165.5362
" />
<path d="M64.1933 165.5362
L64.7267 165.5362
" />
<path d="M64.7267 165.5362
L64.8600 165.6315
" />
<path d="M64.8600 165.6315
L64.9267 165.7267
" />
<path d="M64.9267 165.7267
L64.9933 165.9172
" />
<path d="M64.9933 165.9172
L64.9933 166.2029
" />
<path d="M64.9933 166.2029
L64.9267 166.3934
" />
<path d="M64.9267 166.3934
L64.8600 166.4886
" />
<path d="M64.8600 166.4886
L64.7267 166.5839
" />
<path d="M64.7267 166.5839
L64.1933 166.5839
" />
</g><text x="60.9600" y="152.3840"
textLength="5.4033" font-size="1.8667" lengthAdjust="spacingAndGlyphs"
text-anchor="middle" opacity="0">GATE</text>
<g class="stroked-text"><desc>GATE</desc>
<path d="M59.5600 150.3915
L59.4267 150.2962
" />
<path d="M59.4267 150.2962
L59.2267 150.2962
" />
<path d="M59.2267 150.2962
L59.0267 150.3915
" />
<path d="M59.0267 150.3915
L58.8933 150.5820
" />
<path d="M58.8933 150.5820
L58.8267 150.7724
" />
<path d="M58.8267 150.7724
L58.7600 151.1534
" />
<path d="M58.7600 151.1534
L58.7600 151.4391
" />
<path d="M58.7600 151.4391
L58.8267 151.8200
" />
<path d="M58.8267 151.8200
L58.8933 152.0105
" />
<path d="M58.8933 152.0105
L59.0267 152.2010
" />
<path d="M59.0267 152.2010
L59.2267 152.2962
" />
<path d="M59.2267 152.2962
L59.3600 152.2962
" />
<path d="M59.3600 152.2962
L59.5600 152.2010
" />
<path d="M59.5600 152.2010
L59.6267 152.1058
" />
<path d="M59.6267 152.1058
L59.6267 151.4391
" />
<path d="M59.6267 151.4391
L59.3600 151.4391
" />
<path d="M60.1600 151.7248
L60.8267 151.7248
" />
<path d="M60.0267 152.2962
L60.4933 150.2962
" />
<path d="M60.4933 150.2962
L60.9600 152.2962
" />
<path d="M61.2267 150.2962
L62.0267 150.2962
" />
<path d="M61.6267 152.2962
L61.6267 150.2962
" />
<path d="M62.4933 151.2486
L62.9600 151.2486
" />
<path d="M63.1600 152.2962
L62.4933 152.2962
" />
<path d="M62.4933 152.2962
L62.4933 150.2962
" />
<path d="M62.4933 150.2962
L63.1600 150.2962
" />
</g><text x="81.2800" y="106.6640"
textLength="9.3367" font-size="1.8667" lengthAdjust="spacingAndGlyphs"
text-anchor="middle" opacity="0">RELEASE</text>
<g class="stroked-text"><desc>RELEASE</desc>
<path d="M77.9800 106.5762
L77.5133 105.6239
" />
<path d="M77.1800 106.5762
L77.1800 104.5762
" />
<path d="M77.1800 104.5762
L77.7133 104.5762
" />
<path d="M77.7133 104.5762
L77.8467 104.6715
" />
<path d="M77.8467 104.6715
L77.9133 104.7667
" />
<path d="M77.9133 104.7667
L77.9800 104.9572
" />
<path d="M77.9800 104.9572
L77.9800 105.2429
" />
<path d="M77.9800 105.2429
L77.9133 105.4334
" />
<path d="M77.9133 105.4334
L77.8467 105.5286
" />
<path d="M77.8467 105.5286
L77.7133 105.6239
" />
<path d="M77.7133 105.6239
L77.1800 105.6239
" />
<path d="M78.5800 105.5286
L79.0467 105.5286
" />
<path d="M79.2467 106.5762
L78.5800 106.5762
" />
<path d="M78.5800 106.5762
L78.5800 104.5762
" />
<path d="M78.5800 104.5762
L79.2467 104.5762
" />
<path d="M80.5133 106.5762
L79.8467 106.5762
" />
<path d="M79.8467 106.5762
L79.8467 104.5762
" />
<path d="M80.9800 105.5286
L81.4467 105.5286
" />
<path d="M81.6467 106.5762
L80.9800 106.5762
" />
<path d="M80.9800 106.5762
L80.9800 104.5762
" />
<path d="M80.9800 104.5762
L81.6467 104.5762
" />
<path d="M82.1800 106.0048
L82.8467 106.0048
" />
<path d="M82.0467 106.5762
L82.5133 104.5762
" />
<path d="M82.5133 104.5762
L82.9800 106.5762
" />
<path d="M83.3800 106.4810
L83.5800 106.5762
" />
<path d="M83.5800 106.5762
L83.9133 106.5762
" />
<path d="M83.9133 106.5762
L84.0467 106.4810
" />
<path d="M84.0467 106.4810
L84.1133 106.3858
" />
<path d="M84.1133 106.3858
L84.1800 106.1953
" />
<path d="M84.1800 106.1953
L84.1800 106.0048
" />
<path d="M84.1800 106.0048
L84.1133 105.8143
" />
<path d="M84.1133 105.8143
L84.0467 105.7191
" />
<path d="M84.0467 105.7191
L83.9133 105.6239
" />
<path d="M83.9133 105.6239
L83.6467 105.5286
" />
<path d="M83.6467 105.5286
L83.5133 105.4334
" />
<path d="M83.5133 105.4334
L83.4467 105.3381
" />
<path d="M83.4467 105.3381
L83.3800 105.1477
" />
<path d="M83.3800 105.1477
L83.3800 104.9572
" />
<path d="M83.3800 104.9572
L83.4467 104.7667
" />
<path d="M83.4467 104.7667
L83.5133 104.6715
" />
<path d="M83.5133 104.6715
L83.6467 104.5762
" />
<path d="M83.6467 104.5762
L83.9800 104.5762
" />
<path d="M83.9800 104.5762
L84.1800 104.6715
" />
<path d="M84.7800 105.5286
L85.2467 105.5286
" />
<path d="M85.4467 106.5762
L84.7800 106.5762
" />
<path d="M84.7800 106.5762
L84.7800 104.5762
" />
<path d="M84.7800 104.5762
L85.4467 104.5762
" />
</g><text x="81.2800" y="86.3440"
textLength="6.9367" font-size="1.8667" lengthAdjust="spacingAndGlyphs"
text-anchor="middle" opacity="0">DECAY</text>
<g class="stroked-text"><desc>DECAY</desc>
<path d="M78.3800 86.2562
L78.3800 84.2562
" />
<path d="M78.3800 84.2562
L78.7133 84.2562
" />
<path d="M78.7133 84.2562
L78.9133 84.3515
" />
<path d="M78.9133 84.3515
L79.0467 84.5420
" />
<path d="M79.0467 84.5420
L79.1133 84.7324
" />
<path d="M79.1133 84.7324
L79.1800 85.1134
" />
<path d="M79.1800 85.1134
L79.1800 85.3991
" />
<path d="M79.1800 85.3991
L79.1133 85.7800
" />
<path d="M79.1133 85.7800
L79.0467 85.9705
" />
<path d="M79.0467 85.9705
L78.9133 86.1610
" />
<path d="M78.9133 86.1610
L78.7133 86.2562
" />
<path d="M78.7133 86.2562
L78.3800 86.2562
" />
<path d="M79.7800 85.2086
L80.2467 85.2086
" />
<path d="M80.4467 86.2562
L79.7800 86.2562
" />
<path d="M79.7800 86.2562
L79.7800 84.2562
" />
<path d="M79.7800 84.2562
L80.4467 84.2562
" />
<path d="M81.8467 86.0658
L81.7800 86.1610
" />
<path d="M81.7800 86.1610
L81.5800 86.2562
" />
<path d="M81.5800 86.2562
L81.4467 86.2562
" />
<path d="M81.4467 86.2562
L81.2467 86.1610
" />
<path d="M81.2467 86.1610
L81.1133 85.9705
" />
<path d="M81.1133 85.9705
L81.0467 85.7800
" />
<path d="M81.0467 85.7800
L80.9800 85.3991
" />
<path d="M80.9800 85.3991
L80.9800 85.1134
" />
<path d="M80.9800 85.1134
L81.0467 84.7324
" />
<path d="M81.0467 84.7324
L81.1133 84.5420
" />
<path d="M81.1133 84.5420
L81.2467 84.3515
" />
<path d="M81.2467 84.3515
L81.4467 84.2562
" />
<path d="M81.4467 84.2562
L81.5800 84.2562
" />
<path d="M81.5800 84.2562
L81.7800 84.3515
" />
<path d="M81.7800 84.3515
L81.8467 84.4467
" />
<path d="M82.3800 85.6848
L83.0467 85.6848
" />
<path d="M82.2467 86.2562
L82.7133 84.2562
" />
<path d="M82.7133 84.2562
L83.1800 86.2562
" />
<path d="M83.9133 85.3039
L83.9133 86.2562
" />
<path d="M83.4467 84.2562
L83.9133 85.3039
" />
<path d="M83.9133 85.3039
L84.3800 84.2562
" />
</g><text x="81.2800" y="137.1440"
textLength="13.0033" font-size="1.8667" lengthAdjust="spacingAndGlyphs"
text-anchor="middle" opacity="0">RELEASE_CV</text>
<g class="stroked-text"><desc>RELEASE_CV</desc>
<path d="M76.1467 137.0562
L75.6800 136.1039
" />
<path d="M75.3467 137.0562
L75.3467 135.0562
" />
<path d="M75.3467 135.0562
L75.8800 135.0562
" />
<path d="M75.8800 135.0562
L76.0133 135.1515
" />
<path d="M76.0133 135.1515
L76.0800 135.2467
" />
<path d="M76.0800 135.2467
L76.1467 135.4372
" />
<path d="M76.1467 135.4372
L76.1467 135.7229
" />
<path d="M76.1467 135.7229
L76.0800 135.9134
" />
<path d="M76.0800 135.9134
L76.0133 136.0086
" />
<path d="M76.0133 136.0086
L75.8800 136.1039
" />
<path d="M75.8800 136.1039
L75.3467 136.1039
" />
<path d="M76.7467 136.0086
L77.2133 136.0086
" />
<path d="M77.4133 137.0562
L76.7467 137.0562
" />
<path d="M76.7467 137.0562
L76.7467 135.0562
" />
<path d="M76.7467 135.0562
L77.4133 135.0562
" />
<path d="M78.6800 137.0562
L78.0133 137.0562
" />
<path d="M78.0133 137.0562
L78.0133 135.0562
" />
<path d="M79.1467 136.0086
L79.6133 136.0086
" />
<path d="M79.8133 137.0562
L79.1467 137.0562
" />
<path d="M79.1467 137.0562
L79.1467 135.0562
" />
<path d="M79.1467 135.0562
L79.8133 135.0562
" />
<path d="M80.3467 136.4848
L81.0133 136.4848
" />
<path d="M80.2133 137.0562
L80.6800 135.0562
" />
<path d="M80.6800 135.0562
L81.1467 137.0562
" />
<path d="M81.5467 136.9610
L81.7467 137.0562
" />
<path d="M81.7467 137.0562
L82.0800 137.0562
" />
<path d="M82.0800 137.0562
L82.2133 136.9610
" />
<path d="M82.2133 136.9610
L82.2800 136.8658
" />
<path d="M82.2800 136.8658
L82.3467 136.6753
" />
<path d="M82.3467 136.6753
L82.3467 136.4848
" />
<path d="M82.3467 136.4848
L82.2800 136.2943
" />
<path d="M82.2800 136.2943
L82.2133 136.1991
" />
<path d="M82.2133 136.1991
L82.0800 136.1039
" />
<path d="M82.0800 136.1039
L81.8133 136.0086
" />
<path d="M81.8133 136.0086
L81.6800 135.9134
" />
<path d="M81.6800 135.9134
L81.6133 135.8181
" />
<path d="M81.6133 135.8181
L81.5467 135.6277
" />
<path d="M81.5467 135.6277
L81.5467 135.4372
" />
<path d="M81.5467 135.4372
L81.6133 135.2467
" />
<path d="M81.6133 135.2467
L81.6800 135.1515
" />
<path d="M81.6800 135.1515
L81.8133 135.0562
" />
<path d="M81.8133 135.0562
L82.1467 135.0562
" />
<path d="M82.1467 135.0562
L82.3467 135.1515
" />
<path d="M82.9467 136.0086
L83.4133 136.0086
" />
<path d="M83.6133 137.0562
L82.9467 137.0562
" />
<path d="M82.9467 137.0562
L82.9467 135.0562
" />
<path d="M82.9467 135.0562
L83.6133 135.0562
" />
<path d="M83.8800 137.2467
L84.9467 137.2467
" />
<path d="M86.0800 136.8658
L86.0133 136.9610
" />
<path d="M86.0133 136.9610
L85.8133 137.0562
" />
<path d="M85.8133 137.0562
L85.6800 137.0562
" />
<path d="M85.6800 137.0562
L85.4800 136.9610
" />
<path d="M85.4800 136.9610
L85.3467 136.7705
" />
<path d="M85.3467 136.7705
L85.2800 136.5800
" />
<path d="M85.2800 136.5800
L85.2133 136.1991
" />
<path d="M85.2133 136.1991
L85.2133 135.9134
" />
<path d="M85.2133 135.9134
L85.2800 135.5324
" />
<path d="M85.2800 135.5324
L85.3467 135.3420
" />
<path d="M85.3467 135.3420
L85.4800 135.1515
" />
<path d="M85.4800 135.1515
L85.6800 135.0562
" />
<path d="M85.6800 135.0562
L85.8133 135.0562
" />
<path d="M85.8133 135.0562
L86.0133 135.1515
" />
<path d="M86.0133 135.1515
L86.0800 135.2467
" />
<path d="M86.4800 135.0562
L86.9467 137.0562
" />
<path d="M86.9467 137.0562
L87.4133 135.0562
" />
</g><text x="81.2800" y="167.6240"
textLength="4.4700" font-size="1.8667" lengthAdjust="spacingAndGlyphs"
text-anchor="middle" opacity="0">OUT</text>
<g class="stroked-text"><desc>OUT</desc>
<path d="M79.8800 165.5362
L80.1467 165.5362
" />
<path d="M80.1467 165.5362
L80.2800 165.6315
" />
<path d="M80.2800 165.6315
L80.4133 165.8220
" />
<path d="M80.4133 165.8220
L80.4800 166.2029
" />
<path d="M80.4800 166.2029
L80.4800 166.8696
" />
<path d="M80.4800 166.8696
L80.4133 167.2505
" />
<path d="M80.4133 167.2505
L80.2800 167.4410
" />
<path d="M80.2800 167.4410
L80.1467 167.5362
" />
<path d="M80.1467 167.5362
L79.8800 167.5362
" />
<path d="M79.8800 167.5362
L79.7467 167.4410
" />
<path d="M79.7467 167.4410
L79.6133 167.2505
" />
<path d="M79.6133 167.2505
L79.5467 166.8696
" />
<path d="M79.5467 166.8696
L79.5467 166.2029
" />
<path d="M79.5467 166.2029
L79.6133 165.8220
" />
<path d="M79.6133 165.8220
L79.7467 165.6315
" />
<path d="M79.7467 165.6315
L79.8800 165.5362
" />
<path d="M81.0800 165.5362
L81.0800 167.1553
" />
<path d="M81.0800 167.1553
L81.1467 167.3458
" />
<path d="M81.1467 167.3458
L81.2133 167.4410
" />
<path d="M81.2133 167.4410
L81.3467 167.5362
" />
<path d="M81.3467 167.5362
L81.6133 167.5362
" />
<path d="M81.6133 167.5362
L81.7467 167.4410
" />
<path d="M81.7467 167.4410
L81.8133 167.3458
" />
<path d="M81.8133 167.3458
L81.8800 167.1553
" />
<path d="M81.8800 167.1553
L81.8800 165.5362
" />
<path d="M82.3467 165.5362
L83.1467 165.5362
" />
<path d="M82.7467 167.5362
L82.7467 165.5362
" />
</g><text x="60.9600" y="126.9840"
textLength="11.4700" font-size="1.8667" lengthAdjust="spacingAndGlyphs"
text-anchor="middle" opacity="0">ATTACK_CV</text>
<g class="stroked-text"><desc>ATTACK_CV</desc>
<path d="M55.7267 126.3248
L56.3933 126.3248
" />
<path d="M55.5933 126.8962
L56.0600 124.8962
" />
<path d="M56.0600 124.8962
L56.5267 126.8962
" />
<path d="M56.7933 124.8962
L57.5933 124.8962
" />
<path d="M57.1933 126.8962
L57.1933 124.8962
" />
<path d="M57.8600 124.8962
L58.6600 124.8962
" />
<path d="M58.2600 126.8962
L58.2600 124.8962
" />
<path d="M59.0600 126.3248
L59.7267 126.3248
" />
<path d="M58.9267 126.8962
L59.3933 124.8962
" />
<path d="M59.3933 124.8962
L59.8600 126.8962
" />
<path d="M61.1267 126.7058
L61.0600 126.8010
" />
<path d="M61.0600 126.8010
L60.8600 126.8962
" />
<path d="M60.8600 126.8962
L60.7267 126.8962
" />
<path d="M60.7267 126.8962
L60.5267 126.8010
" />
<path d="M60.5267 126.8010
L60.3933 126.6105
" />
<path d="M60.3933 126.6105
L60.3267 126.4200
" />
<path d="M60.3267 126.4200
L60.2600 126.0391
" />
<path d="M60.2600 126.0391
L60.2600 125.7534
" />
<path d="M60.2600 125.7534
L60.3267 125.3724
" />
<path d="M60.3267 125.3724
L60.3933 125.1820
" />
<path d="M60.3933 125.1820
L60.5267 124.9915
" />
<path d="M60.5267 124.9915
L60.7267 124.8962
" />
<path d="M60.7267 124.8962
L60.8600 124.8962
" />
<path d="M60.8600 124.8962
L61.0600 124.9915
" />
<path d="M61.0600 124.9915
L61.1267 125.0867
" />
<path d="M61.7267 126.8962
L61.7267 124.8962
" />
<path d="M62.5267 126.8962
L61.9267 125.7534
" />
<path d="M62.5267 124.8962
L61.7267 126.0391
" />
<path d="M62.7933 127.0867
L63.8600 127.0867
" />
<path d="M64.9933 126.7058
L64.9267 126.8010
" />
<path d="M64.9267 126.8010
L64.7267 126.8962
" />
<path d="M64.7267 126.8962
L64.5933 126.8962
" />
<path d="M64.5933 126.8962
L64.3933 126.8010
" />
<path d="M64.3933 126.8010
L64.2600 126.6105
" />
<path d="M64.2600 126.6105
L64.1933 126.4200
" />
<path d="M64.1933 126.4200
L64.1267 126.0391
" />
<path d="M64.1267 126.0391
L64.1267 125.7534
" />
<path d="M64.1267 125.7534
L64.1933 125.3724
" />
<path d="M64.1933 125.3724
L64.2600 125.1820
" />
<path d="M64.2600 125.1820
L64.3933 124.9915
" />
<path d="M64.3933 124.9915
L64.5933 124.8962
" />
<path d="M64.5933 124.8962
L64.7267 124.8962
" />
<path d="M64.7267 124.8962
L64.9267 124.9915
" />
<path d="M64.9267 124.9915
L64.9933 125.0867
" />
<path d="M65.3933 124.8962
L65.8600 126.8962
" />
<path d="M65.8600 126.8962
L66.3267 124.8962
" />
</g><text x="81.2800" y="126.9840"
textLength="10.6033" font-size="1.8667" lengthAdjust="spacingAndGlyphs"
text-anchor="middle" opacity="0">DECAY_CV</text>
<g class="stroked-text"><desc>DECAY_CV</desc>
<path d="M76.5467 126.8962
L76.5467 124.8962
" />
<path d="M76.5467 124.8962
L76.8800 124.8962
" />
<path d="M76.8800 124.8962
L77.0800 124.9915
" />
<path d="M77.0800 124.9915
L77.2133 125.1820
" />
<path d="M77.2133 125.1820
L77.2800 125.3724
" />
<path d="M77.2800 125.3724
L77.3467 125.7534
" />
<path d="M77.3467 125.7534
L77.3467 126.0391
" />
<path d="M77.3467 126.0391
L77.2800 126.4200
" />
<path d="M77.2800 126.4200
L77.2133 126.6105
" />
<path d="M77.2133 126.6105
L77.0800 126.8010
" />
<path d="M77.0800 126.8010
L76.8800 126.8962
" />
<path d="M76.8800 126.8962
L76.5467 126.8962
" />
<path d="M77.9467 125.8486
L78.4133 125.8486
" />
<path d="M78.6133 126.8962
L77.9467 126.8962
" />
<path d="M77.9467 126.8962
L77.9467 124.8962
" />
<path d="M77.9467 124.8962
L78.6133 124.8962
" />
<path d="M80.0133 126.7058
L79.9467 126.8010
" />
<path d="M79.9467 126.8010
L79.7467 126.8962
" />
<path d="M79.7467 126.8962
L79.6133 126.8962
" />
<path d="M79.6133 126.8962
L79.4133 126.8010
" />
<path d="M79.4133 126.8010
L79.2800 126.6105
" />
<path d="M79.2800 126.6105
L79.2133 126.4200
" />
<path d="M79.2133 126.4200
L79.1467 126.0391
" />
<path d="M79.1467 126.0391
L79.1467 125.7534
" />
<path d="M79.1467 125.7534
L79.2133 125.3724
" />
<path d="M79.2133 125.3724
L79.2800 125.1820
" />
<path d="M79.2800 125.1820
L79.4133 124.9915
" />
<path d="M79.4133 124.9915
L79.6133 124.8962
" />
<path d="M79.6133 124.8962
L79.7467 124.8962
" />
<path d="M79.7467 124.8962
L79.9467 124.9915
" />
<path d="M79.9467 124.9915
L80.0133 125.0867
" />
<path d="M80.5467 126.3248
L81.2133 126.3248
" />
<path d="M80.4133 126.8962
L80.8800 124.8962
" />
<path d="M80.8800 124.8962
L81.3467 126.8962
" />
<path d="M82.0800 125.9439
L82.0800 126.8962
" />
<path d="M81.6133 124.8962
L82.0800 125.9439
" />
<path d="M82.0800 125.9439
L82.5467 124.8962
" />
<path d="M82.6800 127.0867
L83.7467 127.0867
" />
<path d="M84.8800 126.7058
L84.8133 126.8010
" />
<path d="M84.8133 126.8010
L84.6133 126.8962
" />
<path d="M84.6133 126.8962
L84.4800 126.8962
" />
<path d="M84.4800 126.8962
L84.2800 126.8010
" />
<path d="M84.2800 126.8010
L84.1467 126.6105
" />
<path d="M84.1467 126.6105
L84.0800 126.4200
" />
<path d="M84.0800 126.4200
L84.0133 126.0391
" />
<path d="M84.0133 126.0391
L84.0133 125.7534
" />
<path d="M84.0133 125.7534
L84.0800 125.3724
" />
<path d="M84.0800 125.3724
L84.1467 125.1820
" />
<path d="M84.1467 125.1820
L84.2800 124.9915
" />
<path d="M84.2800 124.9915
L84.4800 124.8962
" />
<path d="M84.4800 124.8962
L84.6133 124.8962
" />
<path d="M84.6133 124.8962
L84.8133 124.9915
" />
<path d="M84.8133 124.9915
L84.8800 125.0867
" />
<path d="M85.2800 124.8962
L85.7467 126.8962
" />
<path d="M85.7467 126.8962
L86.2133 124.8962
" />
</g><text x="60.9600" y="86.3440"
textLength="7.8033" font-size="1.8667" lengthAdjust="spacingAndGlyphs"
text-anchor="middle" opacity="0">ATTACK</text>
<g class="stroked-text"><desc>ATTACK</desc>
<path d="M57.5600 85.6848
L58.2267 85.6848
" />
<path d="M57.4267 86.2562
L57.8933 84.2562
" />
<path d="M57.8933 84.2562
L58.3600 86.2562
" />
<path d="M58.6267 84.2562
L59.4267 84.2562
" />
<path d="M59.0267 86.2562
L59.0267 84.2562
" />
<path d="M59.6933 84.2562
L60.4933 84.2562
" />
<path d="M60.0933 86.2562
L60.0933 84.2562
" />
<path d="M60.8933 85.6848
L61.5600 85.6848
" />
<path d="M60.7600 86.2562
L61.2267 84.2562
" />
<path d="M61.2267 84.2562
L61.6933 86.2562
" />
<path d="M62.9600 86.0658
L62.8933 86.1610
" />
<path d="M62.8933 86.1610
L62.6933 86.2562
" />
<path d="M62.6933 86.2562
L62.5600 86.2562
" />
<path d="M62.5600 86.2562
L62.3600 86.1610
" />
<path d="M62.3600 86.1610
L62.2267 85.9705
" />
<path d="M62.2267 85.9705
L62.1600 85.7800
" />
<path d="M62.1600 85.7800
L62.0933 85.3991
" />
<path d="M62.0933 85.3991
L62.0933 85.1134
" />
<path d="M62.0933 85.1134
L62.1600 84.7324
" />
<path d="M62.1600 84.7324
L62.2267 84.5420
" />
<path d="M62.2267 84.5420
L62.3600 84.3515
" />
<path d="M62.3600 84.3515
L62.5600 84.2562
" />
<path d="M62.5600 84.2562
L62.6933 84.2562
" />
<path d="M62.6933 84.2562
L62.8933 84.3515
" />
<path d="M62.8933 84.3515
L62.9600 84.4467
" />
<path d="M63.5600 86.2562
L63.5600 84.2562
" />
<path d="M64.3600 86.2562
L63.7600 85.1134
" />
<path d="M64.3600 84.2562
L63.5600 85.3991
" />
</g><text x="60.9600" y="137.1440"
textLength="12.6700" font-size="1.8667" lengthAdjust="spacingAndGlyphs"
text-anchor="middle" opacity="0">SUSTAIN_CV</text>
<g class="stroked-text"><desc>SUSTAIN_CV</desc>
<path d="M55.1267 136.9610
L55.3267 137.0562
" />
<path d="M55.3267 137.0562
L55.6600 137.0562
" />
<path d="M55.6600 137.0562
L55.7933 136.9610
" />
<path d="M55.7933 136.9610
L55.8600 136.8658
" />
<path d="M55.8600 136.8658
L55.9267 136.6753
" />
<path d="M55.9267 136.6753
L55.9267 136.4848
" />
<path d="M55.9267 136.4848
L55.8600 136.2943
" />
<path d="M55.8600 136.2943
L55.7933 136.1991
" />
<path d="M55.7933 136.1991
L55.6600 136.1039
" />
<path d="M55.6600 136.1039
L55.3933 136.0086
" />
<path d="M55.3933 136.0086
L55.2600 135.9134
" />
<path d="M55.2600 135.9134
L55.1933 135.8181
" />
<path d="M55.1933 135.8181
L55.1267 135.6277
" />
<path d="M55.1267 135.6277
L55.1267 135.4372
" />
<path d="M55.1267 135.4372
L55.1933 135.2467
" />
<path d="M55.1933 135.2467
L55.2600 135.1515
" />
<path d="M55.2600 135.1515
L55.3933 135.0562
" />
<path d="M55.3933 135.0562
L55.7267 135.0562
" />
<path d="M55.7267 135.0562
L55.9267 135.1515
" />
<path d="M56.5267 135.0562
L56.5267 136.6753
" />
<path d="M56.5267 136.6753
L56.5933 136.8658
" />
<path d="M56.5933 136.8658
L56.6600 136.9610
" />
<path d="M56.6600 136.9610
L56.7933 137.0562
" />
<path d="M56.7933 137.0562
L57.0600 137.0562
" />
<path d="M57.0600 137.0562
L57.1933 136.9610
" />
<path d="M57.1933 136.9610
L57.2600 136.8658
" />
<path d="M57.2600 136.8658
L57.3267 136.6753
" />
<path d="M57.3267 136.6753
L57.3267 135.0562
" />
<path d="M57.9267 136.9610
L58.1267 137.0562
" />
<path d="M58.1267 137.0562
L58.4600 137.0562
" />
<path d="M58.4600 137.0562
L58.5933 136.9610
" />
<path d="M58.5933 136.9610
L58.6600 136.8658
" />
<path d="M58.6600 136.8658
L58.7267 136.6753
" />
<path d="M58.7267 136.6753
L58.7267 136.4848
" />
<path d="M58.7267 136.4848
L58.6600 136.2943
" />
<path d="M58.6600 136.2943
L58.5933 136.1991
" />
<path d="M58.5933 136.1991
L58.4600 136.1039
" />
<path d="M58.4600 136.1039
L58.1933 136.0086
" />
<path d="M58.1933 136.0086
L58.0600 135.9134
" />
<path d="M58.0600 135.9134
L57.9933 135.8181
" />
<path d="M57.9933 135.8181
L57.9267 135.6277
" />
<path d="M57.9267 135.6277
L57.9267 135.4372
" />
<path d="M57.9267 135.4372
L57.9933 135.2467
" />
<path d="M57.9933 135.2467
L58.0600 135.1515
" />
<path d="M58.0600 135.1515
L58.1933 135.0562
" />
<path d="M58.1933 135.0562
L58.5267 135.0562
" />
<path d="M58.5267 135.0562
L58.7267 135.1515
" />
<path d="M59.1267 135.0562
L59.9267 135.0562
" />
<path d="M59.5267 137.0562
L59.5267 135.0562
" />
<path d="M60.3267 136.4848
L60.9933 136.4848
" />
<path d="M60.1933 137.0562
L60.6600 135.0562
" />
<path d="M60.6600 135.0562
L61.1267 137.0562
" />
<path d="M61.5933 137.0562
L61.5933 135.0562
" />
<path d="M62.2600 137.0562
L62.2600 135.0562
" />
<path d="M62.2600 135.0562
L63.0600 137.0562
" />
<path d="M63.0600 137.0562
L63.0600 135.0562
" />
<path d="M63.3933 137.2467
L64.4600 137.2467
" />
<path d="M65.5933 136.8658
L65.5267 136.9610
" />
<path d="M65.5267 136.9610
L65.3267 137.0562
" />
<path d="M65.3267 137.0562
L65.1933 137.0562
" />
<path d="M65.1933 137.0562
L64.9933 136.9610
" />
<path d="M64.9933 136.9610
L64.8600 136.7705
" />
<path d="M64.8600 136.7705
L64.7933 136.5800
" />
<path d="M64.7933 136.5800
L64.7267 136.1991
" />
<path d="M64.7267 136.1991
L64.7267 135.9134
" />
<path d="M64.7267 135.9134
L64.7933 135.5324
" />
<path d="M64.7933 135.5324
L64.8600 135.3420
" />
<path d="M64.8600 135.3420
L64.9933 135.1515
" />
<path d="M64.9933 135.1515
L65.1933 135.0562
" />
<path d="M65.1933 135.0562
L65.3267 135.0562
" />
<path d="M65.3267 135.0562
L65.5267 135.1515
" />
<path d="M65.5267 135.1515
L65.5933 135.2467
" />
<path d="M65.9933 135.0562
L66.4600 137.0562
" />
<path d="M66.4600 137.0562
L66.9267 135.0562
" />
</g><text x="60.9600" y="106.6640"
textLength="9.0033" font-size="1.8667" lengthAdjust="spacingAndGlyphs"
text-anchor="middle" opacity="0">SUSTAIN</text>
<g class="stroked-text"><desc>SUSTAIN</desc>
<path d="M56.9600 106.4810
L57.1600 106.5762
" />
<path d="M57.1600 106.5762
L57.4933 106.5762
" />
<path d="M57.4933 106.5762
L57.6267 106.4810
" />
<path d="M57.6267 106.4810
L57.6933 106.3858
" />
<path d="M57.6933 106.3858
L57.7600 106.1953
" />
<path d="M57.7600 106.1953
L57.7600 106.0048
" />
<path d="M57.7600 106.0048
L57.6933 105.8143
" />
<path d="M57.6933 105.8143
L57.6267 105.7191
" />
<path d="M57.6267 105.7191
L57.4933 105.6239
" />
<path d="M57.4933 105.6239
L57.2267 105.5286
" />
<path d="M57.2267 105.5286
L57.0933 105.4334
" />
<path d="M57.0933 105.4334
L57.0267 105.3381
" />
<path d="M57.0267 105.3381
L56.9600 105.1477
" />
<path d="M56.9600 105.1477
L56.9600 104.9572
" />
<path d="M56.9600 104.9572
L57.0267 104.7667
" />
<path d="M57.0267 104.7667
L57.0933 104.6715
" />
<path d="M57.0933 104.6715
L57.2267 104.5762
" />
<path d="M57.2267 104.5762
L57.5600 104.5762
" />
<path d="M57.5600 104.5762
L57.7600 104.6715
" />
<path d="M58.3600 104.5762
L58.3600 106.1953
" />
<path d="M58.3600 106.1953
L58.4267 106.3858
" />
<path d="M58.4267 106.3858
L58.4933 106.4810
" />
<path d="M58.4933 106.4810
L58.6267 106.5762
" />
<path d="M58.6267 106.5762
L58.8933 106.5762
" />
<path d="M58.8933 106.5762
L59.0267 106.4810
" />
<path d="M59.0267 106.4810
L59.0933 106.3858
" />
<path d="M59.0933 106.3858
L59.1600 106.1953
" />
<path d="M59.1600 106.1953
L59.1600 104.5762
" />
<path d="M59.7600 106.4810
L59.9600 106.5762
" />
<path d="M59.9600 106.5762
L60.2933 106.5762
" />
<path d="M60.2933 106.5762
L60.4267 106.4810
" />
<path d="M60.4267 106.4810
L60.4933 106.3858
" />
<path d="M60.4933 106.3858
L60.5600 106.1953
" />
<path d="M60.5600 106.1953
L60.5600 106.0048
" />
<path d="M60.5600 106.0048
L60.4933 105.8143
" />
<path d="M60.4933 105.8143
L60.4267 105.7191
" />
<path d="M60.4267 105.7191
L60.2933 105.6239
" />
<path d="M60.2933 105.6239
L60.0267 105.5286
" />
<path d="M60.0267 105.5286
L59.8933 105.4334
" />
<path d="M59.8933 105.4334
L59.8267 105.3381
" />
<path d="M59.8267 105.3381
L59.7600 105.1477
" />
<path d="M59.7600 105.1477
L59.7600 104.9572
" />
<path d="M59.7600 104.9572
L59.8267 104.7667
" />
<path d="M59.8267 104.7667
L59.8933 104.6715
" />
<path d="M59.8933 104.6715
L60.0267 104.5762
" />
<path d="M60.0267 104.5762
L60.3600 104.5762
" />
<path d="M60.3600 104.5762
L60.5600 104.6715
" />
<path d="M60.9600 104.5762
L61.7600 104.5762
" />
<path d="M61.3600 106.5762
L61.3600 104.5762
" />
<path d="M62.1600 106.0048
L62.8267 106.0048
" />
<path d="M62.0267 106.5762
L62.4933 104.5762
" />
<path d="M62.4933 104.5762
L62.9600 106.5762
" />
<path d="M63.4267 106.5762
L63.4267 104.5762
" />
<path d="M64.0933 106.5762
L64.0933 104.5762
" />
<path d="M64.0933 104.5762
L64.8933 106.5762
" />
<path d="M64.8933 106.5762
L64.8933 104.5762
" />
</g><text x="81.2800" y="152.3840"
textLength="4.6700" font-size="1.8667" lengthAdjust="spacingAndGlyphs"
text-anchor="middle" opacity="0">SGO</text>
<g class="stroked-text"><desc>SGO</desc>
<path d="M79.4467 152.2010
L79.6467 152.2962
" />
<path d="M79.6467 152.2962
L79.9800 152.2962
" />
<path d="M79.9800 152.2962
L80.1133 152.2010
" />
<path d="M80.1133 152.2010
L80.1800 152.1058
" />
<path d="M80.1800 152.1058
L80.2467 151.9153
" />
<path d="M80.2467 151.9153
L80.2467 151.7248
" />
<path d="M80.2467 151.7248
L80.1800 151.5343
" />
<path d="M80.1800 151.5343
L80.1133 151.4391
" />
<path d="M80.1133 151.4391
L79.9800 151.3439
" />
<path d="M79.9800 151.3439
L79.7133 151.2486
" />
<path d="M79.7133 151.2486
L79.5800 151.1534
" />
<path d="M79.5800 151.1534
L79.5133 151.0581
" />
<path d="M79.5133 151.0581
L79.4467 150.8677
" />
<path d="M79.4467 150.8677
L79.4467 150.6772
" />
<path d="M79.4467 150.6772
L79.5133 150.4867
" />
<path d="M79.5133 150.4867
L79.5800 150.3915
" />
<path d="M79.5800 150.3915
L79.7133 150.2962
" />
<path d="M79.7133 150.2962
L80.0467 150.2962
" />
<path d="M80.0467 150.2962
L80.2467 150.3915
" />
<path d="M81.5800 150.3915
L81.4467 150.2962
" />
<path d="M81.4467 150.2962
L81.2467 150.2962
" />
<path d="M81.2467 150.2962
L81.0467 150.3915
" />
<path d="M81.0467 150.3915
L80.9133 150.5820
" />
<path d="M80.9133 150.5820
L80.8467 150.7724
" />
<path d="M80.8467 150.7724
L80.7800 151.1534
" />
<path d="M80.7800 151.1534
L80.7800 151.4391
" />
<path d="M80.7800 151.4391
L80.8467 151.8200
" />
<path d="M80.8467 151.8200
L80.9133 152.0105
" />
<path d="M80.9133 152.0105
L81.0467 152.2010
" />
<path d="M81.0467 152.2010
L81.2467 152.2962
" />
<path d="M81.2467 152.2962
L81.3800 152.2962
" />
<path d="M81.3800 152.2962
L81.5800 152.2010
" />
<path d="M81.5800 152.2010
L81.6467 152.1058
" />
<path d="M81.6467 152.1058
L81.6467 151.4391
" />
<path d="M81.6467 151.4391
L81.3800 151.4391
" />
<path d="M82.5133 150.2962
L82.7800 150.2962
" />
<path d="M82.7800 150.2962
L82.9133 150.3915
" />
<path d="M82.9133 150.3915
L83.0467 150.5820
" />
<path d="M83.0467 150.5820
L83.1133 150.9629
" />
<path d="M83.1133 150.9629
L83.1133 151.6296
" />
<path d="M83.1133 151.6296
L83.0467 152.0105
" />
<path d="M83.0467 152.0105
L82.9133 152.2010
" />
<path d="M82.9133 152.2010
L82.7800 152.2962
" />
<path d="M82.7800 152.2962
L82.5133 152.2962
" />
<path d="M82.5133 152.2962
L82.3800 152.2010
" />
<path d="M82.3800 152.2010
L82.2467 152.0105
" />
<path d="M82.2467 152.0105
L82.1800 151.6296
" />
<path d="M82.1800 151.6296
L82.1800 150.9629
" />
<path d="M82.1800 150.9629
L82.2467 150.5820
" />
<path d="M82.2467 150.5820
L82.3800 150.3915
" />
<path d="M82.3800 150.3915
L82.5133 150.2962
" />
</g><g >
</g>
<g style="fill:#000000; fill-opacity:1.0000; 
stroke:#000000; stroke-width:0.0000; stroke-opacity:1; 
stroke-linecap:round; stroke-linejoin:round;">
<circle cx="60.9600" cy="157.4800" r="3.2000" /> 
</g>
<g style="fill:#000000; fill-opacity:1.0000; 
stroke:#000000; stroke-width:0.0212; stroke-opacity:1; 
stroke-linecap:round; stroke-linejoin:round;">
</g>
<g >
</g>
<g style="fill:#000000; fill-opacity:1.0000; 
stroke:#000000; stroke-width:0.0212; stroke-opacity:1; 
stroke-linecap:round; stroke-linejoin:round;">
</g>
<g style="fill:#000000; fill-opacity:1.0000; 
stroke:#000000; stroke-width:0.0000; stroke-opacity:1; 
stroke-linecap:round; stroke-linejoin:round;">
<circle cx="60.9600" cy="142.2400" r="3.2000" /> 
</g>
<g style="fill:#000000; fill-opacity:1.0000; 
stroke:#000000; stroke-width:0.0212; stroke-opacity:1; 
stroke-linecap:round; stroke-linejoin:round;">
</g>
<g >
</g>
<g style="fill:#000000; fill-opacity:1.0000; 
stroke:#000000; stroke-width:0.0212; stroke-opacity:1; 
stroke-linecap:round; stroke-linejoin:round;">
</g>
<g style="fill:#000000; fill-opacity:1.0000; 
stroke:#000000; stroke-width:0.0000; stroke-opacity:1; 
stroke-linecap:round; stroke-linejoin:round;">
<circle cx="81.2800" cy="96.5200" r="3.7000" /> 
</g>
<g style="fill:#000000; fill-opacity:1.0000; 
stroke:#000000; stroke-width:0.0212; stroke-opacity:1; 
stroke-linecap:round; stroke-linejoin:round;">
</g>
<g >
</g>
<g style="fill:#000000; fill-opacity:1.0000; 
stroke:#000000; stroke-width:0.0212; stroke-opacity:1; 
stroke-linecap:round; stroke-linejoin:round;">
</g>
<g style="fill:#000000; fill-opacity:1.0000; 
stroke:#000000; stroke-width:0.0000; stroke-opacity:1; 
stroke-linecap:round; stroke-linejoin:round;">
<circle cx="81.2800" cy="76.2000" r="3.7000" /> 
</g>
<g style="fill:#000000; fill-opacity:1.0000; 
stroke:#000000; stroke-width:0.0212; stroke-opacity:1; 
stroke-linecap:round; stroke-linejoin:round;">
</g>
<g >
</g>
<g style="fill:#000000; fill-opacity:1.0000; 
stroke:#000000; stroke-width:0.0212; stroke-opacity:1; 
stroke-linecap:round; stroke-linejoin:round;">
</g>
<g style="fill:#000000; fill-opacity:1.0000; 
stroke:#000000; stroke-width:0.0000; stroke-opacity:1; 
stroke-linecap:round; stroke-linejoin:round;">
<circle cx="81.2800" cy="127.0000" r="3.2000" /> 
</g>
<g style="fill:#000000; fill-opacity:1.0000; 
stroke:#000000; stroke-width:0.0212; stroke-opacity:1; 
stroke-linecap:round; stroke-linejoin:round;">
</g>
<g >
</g>
<g style="fill:#000000; fill-opacity:1.0000; 
stroke:#000000; stroke-width:0.0212; stroke-opacity:1; 
stroke-linecap:round; stroke-linejoin:round;">
</g>
<g style="fill:#000000; fill-opacity:1.0000; 
stroke:#000000; stroke-width:0.0000; stroke-opacity:1; 
stroke-linecap:round; stroke-linejoin:round;">
<circle cx="81.2800" cy="157.4800" r="3.2000" /> 
</g>
<g style="fill:#000000; fill-opacity:1.0000; 
stroke:#000000; stroke-width:0.0212; stroke-opacity:1; 
stroke-linecap:round; stroke-linejoin:round;">
</g>
<g >
</g>
<g style="fill:#000000; fill-opacity:1.0000; 
stroke:#000000; stroke-width:0.0212; stroke-opacity:1; 
stroke-linecap:round; stroke-linejoin:round;">
</g>
<g style="fill:#000000; fill-opacity:1.0000; 
stroke:#000000; stroke-width:0.0000; stroke-opacity:1; 
stroke-linecap:round; stroke-linejoin:round;">
<circle cx="60.9600" cy="116.8400" r="3.2000" /> 
</g>
<g style="fill:#000000; fill-opacity:1.0000; 
stroke:#000000; stroke-width:0.0212; stroke-opacity:1; 
stroke-linecap:round; stroke-linejoin:round;">
</g>
<g >
</g>
<g style="fill:#000000; fill-opacity:1.0000; 
stroke:#000000; stroke-width:0.0212; stroke-opacity:1; 
stroke-linecap:round; stroke-linejoin:round;">
</g>
<g style="fill:#000000; fill-opacity:1.0000; 
stroke:#000000; stroke-width:0.0000; stroke-opacity:1; 
stroke-linecap:round; stroke-linejoin:round;">
<circle cx="81.2800" cy="116.8400" r="3.2000" /> 
</g>
<g style="fill:#000000; fill-opacity:1.0000; 
stroke:#000000; stroke-width:0.0212; stroke-opacity:1; 
stroke-linecap:round; stroke-linejoin:round;">
</g>
<g >
</g>
<g style="fill:#000000; fill-opacity:1.0000; 
stroke:#000000; stroke-width:0.0212; stroke-opacity:1; 
stroke-linecap:round; stroke-linejoin:round;">
</g>
<g style="fill:#000000; fill-opacity:1.0000; 
stroke:#000000; stroke-width:0.0000; stroke-opacity:1; 
stroke-linecap:round; stroke-linejoin:round;">
<circle cx="60.9600" cy="76.2000" r="3.7000" /> 
</g>
<g style="fill:#000000; fill-opacity:1.0000; 
stroke:#000000; stroke-width:0.0212; stroke-opacity:1; 
stroke-linecap:round; stroke-linejoin:round;">
</g>
<g >
</g>
<g style="fill:#000000; fill-opacity:1.0000; 
stroke:#000000; stroke-width:0.0212; stroke-opacity:1; 
stroke-linecap:round; stroke-linejoin:round;">
</g>
<g style="fill:#000000; fill-opacity:1.0000; 
stroke:#000000; stroke-width:0.0000; stroke-opacity:1; 
stroke-linecap:round; stroke-linejoin:round;">
<circle cx="60.9600" cy="127.0000" r="3.2000" /> 
</g>
<g style="fill:#000000; fill-opacity:1.0000; 
stroke:#000000; stroke-width:0.0212; stroke-opacity:1; 
stroke-linecap:round; stroke-linejoin:round;">
</g>
<g >
</g>
<g style="fill:#000000; fill-opacity:1.0000; 
stroke:#000000; stroke-width:0.0212; stroke-opacity:1; 
stroke-linecap:round; stroke-linejoin:round;">
</g>
<g style="fill:#000000; fill-opacity:1.0000; 
stroke:#000000; stroke-width:0.0000; stroke-opacity:1; 
stroke-linecap:round; stroke-linejoin:round;">
<circle cx="60.9600" cy="96.5200" r="3.7000" /> 
</g>
<g style="fill:#000000; fill-opacity:1.0000; 
stroke:#000000; stroke-width:0.0212; stroke-opacity:1; 
stroke-linecap:round; stroke-linejoin:round;">
</g>
<g >
</g>
<g style="fill:#000000; fill-opacity:1.0000; 
stroke:#000000; stroke-width:0.0212; stroke-opacity:1; 
stroke-linecap:round; stroke-linejoin:round;">
</g>
<g style="fill:#000000; fill-opacity:1.0000; 
stroke:#000000; stroke-width:0.0000; stroke-opacity:1; 
stroke-linecap:round; stroke-linejoin:round;">
<circle cx="50.8000" cy="50.8000" r="1.8000" /> 
</g>
<g style="fill:#000000; fill-opacity:1.0000; 
stroke:#000000; stroke-width:0.0212; stroke-opacity:1; 
stroke-linecap:round; stroke-linejoin:round;">
</g>
<g style="fill:#000000; fill-opacity:1.0000; 
stroke:#000000; stroke-width:0.0000; stroke-opacity:1; 
stroke-linecap:round; stroke-linejoin:round;">
<circle cx="50.8000" cy="50.8000" r="2.5000" /> 
</g>
<g style="fill:#000000; fill-opacity:1.0000; 
stroke:#000000; stroke-width:0.0212; stroke-opacity:1; 
stroke-linecap:round; stroke-linejoin:round;">
</g>
<g >
</g>
<g style="fill:#000000; fill-opacity:1.0000; 
stroke:#000000; stroke-width:0.0212; stroke-opacity:1; 
stroke-linecap:round; stroke-linejoin:round;">
</g>
<g style="fill:#000000; fill-opacity:1.0000; 
stroke:#000000; stroke-width:0.0000; stroke-opacity:1; 
stroke-linecap:round; stroke-linejoin:round;">
<circle cx="81.2800" cy="142.2400" r="3.2000" /> 
</g>
<g style="fill:#000000; fill-opacity:1.0000; 
stroke:#000000; stroke-width:0.0212; stroke-opacity:1; 
stroke-linecap:round; stroke-linejoin:round;">
</g>
<g >
</g>
<g style="fill:#000000; fill-opacity:1.0000; 
stroke:#000000; stroke-width:0.0212; stroke-opacity:1; 
stroke-linecap:round; stroke-linejoin:round;">
</g>
<g style="fill:#000000; fill-opacity:1.0000; 
stroke:#000000; stroke-width:0.0000; stroke-opacity:1; 
stroke-linecap:round; stroke-linejoin:round;">
<circle cx="50.8000" cy="177.8000" r="1.8000" /> 
</g>
<g style="fill:#000000; fill-opacity:1.0000; 
stroke:#000000; stroke-width:0.0212; stroke-opacity:1; 
stroke-linecap:round; stroke-linejoin:round;">
</g>
<g style="fill:#000000; fill-opacity:1.0000; 
stroke:#000000; stroke-width:0.0000; stroke-opacity:1; 
stroke-linecap:round; stroke-linejoin:round;">
<circle cx="50.8000" cy="177.8000" r="2.5000" /> 
</g>
<g style="fill:#000000; fill-opacity:1.0000; 
stroke:#000000; stroke-width:0.0212; stroke-opacity:1; 
stroke-linecap:round; stroke-linejoin:round;">
</g>
<g >
</g>
<g >
</g>
<g >
</g>
</g> 
</svg>
