<?xml version="1.0" standalone="no"?>
 <!DOCTYPE svg PUBLIC "-//W3C//DTD SVG 1.1//EN" 
 "http://www.w3.org/Graphics/SVG/1.1/DTD/svg11.dtd"> 
<svg
  xmlns:svg="http://www.w3.org/2000/svg"
  xmlns="http://www.w3.org/2000/svg"
  xmlns:xlink="http://www.w3.org/1999/xlink"
  version="1.1"
  width="297.0022mm" height="210.0072mm" viewBox="0.0000 0.0000 297.0022 210.0072">
<title>SVG Image created as mount-F_CrtYd.svg date 2023/11/05 16:20:22 </title>
  <desc>Image generated by PCBNEW </desc>
<g style="fill:#000000; fill-opacity:1.0000;stroke:#000000; stroke-opacity:1.0000;
stroke-linecap:round; stroke-linejoin:round;"
 transform="translate(0 0) scale(1 1)">
</g>
<g style="fill:#000000; fill-opacity:0.0; 
stroke:#000000; stroke-width:0.0000; stroke-opacity:1; 
stroke-linecap:round; stroke-linejoin:round;">
</g>
<g style="fill:#000000; fill-opacity:0.0; 
stroke:#000000; stroke-width:0.0500; stroke-opacity:1; 
stroke-linecap:round; stroke-linejoin:round;">
<circle cx="88.5600" cy="53.3400" r="2.4500" /> 
<circle cx="53.3400" cy="156.4400" r="2.4500" /> 
<circle cx="88.5600" cy="156.4400" r="2.4500" /> 
<circle cx="53.3400" cy="53.3400" r="2.4500" /> 
<path d="M67.4600 111.6800
L53.0600 111.6800
" />
<path d="M53.0600 101.6800
L53.0600 111.6800
" />
<path d="M67.4600 101.6800
L67.4600 111.6800
" />
<path d="M67.4600 101.6800
L53.0600 101.6800
" />
<path d="M74.8300 74.6900
L87.6500 74.6900
" />
<path d="M87.6500 74.6900
L87.6500 60.9400
" />
<path d="M74.8300 60.9400
L74.8300 74.6900
" />
<path d="M87.6500 60.9400
L74.8300 60.9400
" />
<path d="M54.5100 95.0100
L67.3300 95.0100
" />
<path d="M67.3300 95.0100
L67.3300 81.2600
" />
<path d="M54.5100 81.2600
L54.5100 95.0100
" />
<path d="M67.3300 81.2600
L54.5100 81.2600
" />
<path d="M87.7800 111.6800
L73.3800 111.6800
" />
<path d="M73.3800 101.6800
L73.3800 111.6800
" />
<path d="M87.7800 101.6800
L87.7800 111.6800
" />
<path d="M87.7800 101.6800
L73.3800 101.6800
" />
<path d="M55.9600 153.8200
L55.9600 139.4200
" />
<path d="M65.9600 139.4200
L55.9600 139.4200
" />
<path d="M65.9600 153.8200
L55.9600 153.8200
" />
<path d="M65.9600 153.8200
L65.9600 139.4200
" />
<path d="M67.4600 121.8400
L53.0600 121.8400
" />
<path d="M53.0600 111.8400
L53.0600 121.8400
" />
<path d="M67.4600 111.8400
L67.4600 121.8400
" />
<path d="M67.4600 111.8400
L53.0600 111.8400
" />
<path d="M76.2800 153.8200
L76.2800 139.4200
" />
<path d="M86.2800 139.4200
L76.2800 139.4200
" />
<path d="M86.2800 153.8200
L76.2800 153.8200
" />
<path d="M86.2800 153.8200
L86.2800 139.4200
" />
<path d="M76.2800 138.7400
L76.2800 124.3400
" />
<path d="M86.2800 124.3400
L76.2800 124.3400
" />
<path d="M86.2800 138.7400
L76.2800 138.7400
" />
<path d="M86.2800 138.7400
L86.2800 124.3400
" />
<path d="M66.1200 153.8200
L66.1200 139.4200
" />
<path d="M76.1200 139.4200
L66.1200 139.4200
" />
<path d="M76.1200 153.8200
L66.1200 153.8200
" />
<path d="M76.1200 153.8200
L76.1200 139.4200
" />
<path d="M74.8300 95.0100
L87.6500 95.0100
" />
<path d="M87.6500 95.0100
L87.6500 81.2600
" />
<path d="M74.8300 81.2600
L74.8300 95.0100
" />
<path d="M87.6500 81.2600
L74.8300 81.2600
" />
<path d="M54.2700 74.6900
L67.0900 74.6900
" />
<path d="M67.0900 74.6900
L67.0900 60.9400
" />
<path d="M54.2700 60.9400
L54.2700 74.6900
" />
<path d="M67.0900 60.9400
L54.2700 60.9400
" />
<path d="M87.9400 121.8400
L73.5400 121.8400
" />
<path d="M73.5400 111.8400
L73.5400 121.8400
" />
<path d="M87.9400 111.8400
L87.9400 121.8400
" />
<path d="M87.9400 111.8400
L73.5400 111.8400
" />
<g >
</g>
<g >
</g>
<g >
</g>
<g >
</g>
<g >
</g>
<g >
</g>
<g >
</g>
<g >
</g>
<g >
</g>
<g >
</g>
<g >
</g>
<g >
</g>
<g >
</g>
<g >
</g>
<g >
</g>
<g >
</g>
<g >
</g>
<g >
</g>
<g >
</g>
<g >
</g>
</g> 
</svg>
