<?xml version="1.0" standalone="no"?>
 <!DOCTYPE svg PUBLIC "-//W3C//DTD SVG 1.1//EN" 
 "http://www.w3.org/Graphics/SVG/1.1/DTD/svg11.dtd"> 
<svg
  xmlns:svg="http://www.w3.org/2000/svg"
  xmlns="http://www.w3.org/2000/svg"
  xmlns:xlink="http://www.w3.org/1999/xlink"
  version="1.1"
  width="297.0022mm" height="210.0072mm" viewBox="0.0000 0.0000 297.0022 210.0072">
<title>SVG Image created as mount-Cmts_User.svg date 2023/11/05 16:20:22 </title>
  <desc>Image generated by PCBNEW </desc>
<g style="fill:#000000; fill-opacity:1.0000;stroke:#000000; stroke-opacity:1.0000;
stroke-linecap:round; stroke-linejoin:round;"
 transform="translate(0 0) scale(1 1)">
</g>
<g style="fill:#000000; fill-opacity:0.0; 
stroke:#000000; stroke-width:0.0000; stroke-opacity:1; 
stroke-linecap:round; stroke-linejoin:round;">
</g>
<g style="fill:#000000; fill-opacity:0.0; 
stroke:#000000; stroke-width:0.0510; stroke-opacity:1; 
stroke-linecap:round; stroke-linejoin:round;">
<g transform="rotate(-90.000000 60.9600 106.6800)">
<text x="60.9600" y="106.8800"
textLength="2.7397" font-size="0.5333" lengthAdjust="spacingAndGlyphs"
text-anchor="middle" opacity="0">KEEPOUT</text>
</g>
<g class="stroked-text"><desc>KEEPOUT</desc>
<path d="M61.1424 107.9181
L60.7424 107.9181
" />
<path d="M61.1424 107.6895
L60.9138 107.8610
" />
<path d="M60.7424 107.6895
L60.9710 107.9181
" />
<path d="M60.9329 107.5181
L60.9329 107.3848
" />
<path d="M61.1424 107.3276
L61.1424 107.5181
" />
<path d="M61.1424 107.5181
L60.7424 107.5181
" />
<path d="M60.7424 107.5181
L60.7424 107.3276
" />
<path d="M60.9329 107.1562
L60.9329 107.0229
" />
<path d="M61.1424 106.9657
L61.1424 107.1562
" />
<path d="M61.1424 107.1562
L60.7424 107.1562
" />
<path d="M60.7424 107.1562
L60.7424 106.9657
" />
<path d="M61.1424 106.7943
L60.7424 106.7943
" />
<path d="M60.7424 106.7943
L60.7424 106.6419
" />
<path d="M60.7424 106.6419
L60.7614 106.6038
" />
<path d="M60.7614 106.6038
L60.7805 106.5848
" />
<path d="M60.7805 106.5848
L60.8186 106.5657
" />
<path d="M60.8186 106.5657
L60.8757 106.5657
" />
<path d="M60.8757 106.5657
L60.9138 106.5848
" />
<path d="M60.9138 106.5848
L60.9329 106.6038
" />
<path d="M60.9329 106.6038
L60.9519 106.6419
" />
<path d="M60.9519 106.6419
L60.9519 106.7943
" />
<path d="M60.7424 106.3181
L60.7424 106.2419
" />
<path d="M60.7424 106.2419
L60.7614 106.2038
" />
<path d="M60.7614 106.2038
L60.7995 106.1657
" />
<path d="M60.7995 106.1657
L60.8757 106.1467
" />
<path d="M60.8757 106.1467
L61.0091 106.1467
" />
<path d="M61.0091 106.1467
L61.0853 106.1657
" />
<path d="M61.0853 106.1657
L61.1233 106.2038
" />
<path d="M61.1233 106.2038
L61.1424 106.2419
" />
<path d="M61.1424 106.2419
L61.1424 106.3181
" />
<path d="M61.1424 106.3181
L61.1233 106.3562
" />
<path d="M61.1233 106.3562
L61.0853 106.3943
" />
<path d="M61.0853 106.3943
L61.0091 106.4133
" />
<path d="M61.0091 106.4133
L60.8757 106.4133
" />
<path d="M60.8757 106.4133
L60.7995 106.3943
" />
<path d="M60.7995 106.3943
L60.7614 106.3562
" />
<path d="M60.7614 106.3562
L60.7424 106.3181
" />
<path d="M60.7424 105.9752
L61.0662 105.9752
" />
<path d="M61.0662 105.9752
L61.1043 105.9562
" />
<path d="M61.1043 105.9562
L61.1233 105.9371
" />
<path d="M61.1233 105.9371
L61.1424 105.8990
" />
<path d="M61.1424 105.8990
L61.1424 105.8229
" />
<path d="M61.1424 105.8229
L61.1233 105.7848
" />
<path d="M61.1233 105.7848
L61.1043 105.7657
" />
<path d="M61.1043 105.7657
L61.0662 105.7467
" />
<path d="M61.0662 105.7467
L60.7424 105.7467
" />
<path d="M60.7424 105.6133
L60.7424 105.3848
" />
<path d="M61.1424 105.4990
L60.7424 105.4990
" />
</g><g transform="rotate(-90.000000 81.2800 106.6800)">
<text x="81.2800" y="106.8800"
textLength="2.7397" font-size="0.5333" lengthAdjust="spacingAndGlyphs"
text-anchor="middle" opacity="0">KEEPOUT</text>
</g>
<g class="stroked-text"><desc>KEEPOUT</desc>
<path d="M81.4624 107.9181
L81.0624 107.9181
" />
<path d="M81.4624 107.6895
L81.2338 107.8610
" />
<path d="M81.0624 107.6895
L81.2910 107.9181
" />
<path d="M81.2529 107.5181
L81.2529 107.3848
" />
<path d="M81.4624 107.3276
L81.4624 107.5181
" />
<path d="M81.4624 107.5181
L81.0624 107.5181
" />
<path d="M81.0624 107.5181
L81.0624 107.3276
" />
<path d="M81.2529 107.1562
L81.2529 107.0229
" />
<path d="M81.4624 106.9657
L81.4624 107.1562
" />
<path d="M81.4624 107.1562
L81.0624 107.1562
" />
<path d="M81.0624 107.1562
L81.0624 106.9657
" />
<path d="M81.4624 106.7943
L81.0624 106.7943
" />
<path d="M81.0624 106.7943
L81.0624 106.6419
" />
<path d="M81.0624 106.6419
L81.0814 106.6038
" />
<path d="M81.0814 106.6038
L81.1005 106.5848
" />
<path d="M81.1005 106.5848
L81.1386 106.5657
" />
<path d="M81.1386 106.5657
L81.1957 106.5657
" />
<path d="M81.1957 106.5657
L81.2338 106.5848
" />
<path d="M81.2338 106.5848
L81.2529 106.6038
" />
<path d="M81.2529 106.6038
L81.2719 106.6419
" />
<path d="M81.2719 106.6419
L81.2719 106.7943
" />
<path d="M81.0624 106.3181
L81.0624 106.2419
" />
<path d="M81.0624 106.2419
L81.0814 106.2038
" />
<path d="M81.0814 106.2038
L81.1195 106.1657
" />
<path d="M81.1195 106.1657
L81.1957 106.1467
" />
<path d="M81.1957 106.1467
L81.3291 106.1467
" />
<path d="M81.3291 106.1467
L81.4053 106.1657
" />
<path d="M81.4053 106.1657
L81.4433 106.2038
" />
<path d="M81.4433 106.2038
L81.4624 106.2419
" />
<path d="M81.4624 106.2419
L81.4624 106.3181
" />
<path d="M81.4624 106.3181
L81.4433 106.3562
" />
<path d="M81.4433 106.3562
L81.4053 106.3943
" />
<path d="M81.4053 106.3943
L81.3291 106.4133
" />
<path d="M81.3291 106.4133
L81.1957 106.4133
" />
<path d="M81.1957 106.4133
L81.1195 106.3943
" />
<path d="M81.1195 106.3943
L81.0814 106.3562
" />
<path d="M81.0814 106.3562
L81.0624 106.3181
" />
<path d="M81.0624 105.9752
L81.3862 105.9752
" />
<path d="M81.3862 105.9752
L81.4243 105.9562
" />
<path d="M81.4243 105.9562
L81.4433 105.9371
" />
<path d="M81.4433 105.9371
L81.4624 105.8990
" />
<path d="M81.4624 105.8990
L81.4624 105.8229
" />
<path d="M81.4624 105.8229
L81.4433 105.7848
" />
<path d="M81.4433 105.7848
L81.4243 105.7657
" />
<path d="M81.4243 105.7657
L81.3862 105.7467
" />
<path d="M81.3862 105.7467
L81.0624 105.7467
" />
<path d="M81.0624 105.6133
L81.0624 105.3848
" />
<path d="M81.4624 105.4990
L81.0624 105.4990
" />
</g><text x="60.9600" y="147.5200"
textLength="2.7397" font-size="0.5333" lengthAdjust="spacingAndGlyphs"
text-anchor="middle" opacity="0">KEEPOUT</text>
<g class="stroked-text"><desc>KEEPOUT</desc>
<path d="M59.7219 147.5024
L59.7219 147.1024
" />
<path d="M59.9505 147.5024
L59.7790 147.2738
" />
<path d="M59.9505 147.1024
L59.7219 147.3310
" />
<path d="M60.1219 147.2929
L60.2552 147.2929
" />
<path d="M60.3124 147.5024
L60.1219 147.5024
" />
<path d="M60.1219 147.5024
L60.1219 147.1024
" />
<path d="M60.1219 147.1024
L60.3124 147.1024
" />
<path d="M60.4838 147.2929
L60.6171 147.2929
" />
<path d="M60.6743 147.5024
L60.4838 147.5024
" />
<path d="M60.4838 147.5024
L60.4838 147.1024
" />
<path d="M60.4838 147.1024
L60.6743 147.1024
" />
<path d="M60.8457 147.5024
L60.8457 147.1024
" />
<path d="M60.8457 147.1024
L60.9981 147.1024
" />
<path d="M60.9981 147.1024
L61.0362 147.1214
" />
<path d="M61.0362 147.1214
L61.0552 147.1405
" />
<path d="M61.0552 147.1405
L61.0743 147.1786
" />
<path d="M61.0743 147.1786
L61.0743 147.2357
" />
<path d="M61.0743 147.2357
L61.0552 147.2738
" />
<path d="M61.0552 147.2738
L61.0362 147.2929
" />
<path d="M61.0362 147.2929
L60.9981 147.3119
" />
<path d="M60.9981 147.3119
L60.8457 147.3119
" />
<path d="M61.3219 147.1024
L61.3981 147.1024
" />
<path d="M61.3981 147.1024
L61.4362 147.1214
" />
<path d="M61.4362 147.1214
L61.4743 147.1595
" />
<path d="M61.4743 147.1595
L61.4933 147.2357
" />
<path d="M61.4933 147.2357
L61.4933 147.3691
" />
<path d="M61.4933 147.3691
L61.4743 147.4453
" />
<path d="M61.4743 147.4453
L61.4362 147.4833
" />
<path d="M61.4362 147.4833
L61.3981 147.5024
" />
<path d="M61.3981 147.5024
L61.3219 147.5024
" />
<path d="M61.3219 147.5024
L61.2838 147.4833
" />
<path d="M61.2838 147.4833
L61.2457 147.4453
" />
<path d="M61.2457 147.4453
L61.2267 147.3691
" />
<path d="M61.2267 147.3691
L61.2267 147.2357
" />
<path d="M61.2267 147.2357
L61.2457 147.1595
" />
<path d="M61.2457 147.1595
L61.2838 147.1214
" />
<path d="M61.2838 147.1214
L61.3219 147.1024
" />
<path d="M61.6648 147.1024
L61.6648 147.4262
" />
<path d="M61.6648 147.4262
L61.6838 147.4643
" />
<path d="M61.6838 147.4643
L61.7029 147.4833
" />
<path d="M61.7029 147.4833
L61.7410 147.5024
" />
<path d="M61.7410 147.5024
L61.8171 147.5024
" />
<path d="M61.8171 147.5024
L61.8552 147.4833
" />
<path d="M61.8552 147.4833
L61.8743 147.4643
" />
<path d="M61.8743 147.4643
L61.8933 147.4262
" />
<path d="M61.8933 147.4262
L61.8933 147.1024
" />
<path d="M62.0267 147.1024
L62.2552 147.1024
" />
<path d="M62.1410 147.5024
L62.1410 147.1024
" />
</g><g transform="rotate(-90.000000 60.9600 116.8400)">
<text x="60.9600" y="117.0400"
textLength="2.7397" font-size="0.5333" lengthAdjust="spacingAndGlyphs"
text-anchor="middle" opacity="0">KEEPOUT</text>
</g>
<g class="stroked-text"><desc>KEEPOUT</desc>
<path d="M61.1424 118.0781
L60.7424 118.0781
" />
<path d="M61.1424 117.8495
L60.9138 118.0210
" />
<path d="M60.7424 117.8495
L60.9710 118.0781
" />
<path d="M60.9329 117.6781
L60.9329 117.5448
" />
<path d="M61.1424 117.4876
L61.1424 117.6781
" />
<path d="M61.1424 117.6781
L60.7424 117.6781
" />
<path d="M60.7424 117.6781
L60.7424 117.4876
" />
<path d="M60.9329 117.3162
L60.9329 117.1829
" />
<path d="M61.1424 117.1257
L61.1424 117.3162
" />
<path d="M61.1424 117.3162
L60.7424 117.3162
" />
<path d="M60.7424 117.3162
L60.7424 117.1257
" />
<path d="M61.1424 116.9543
L60.7424 116.9543
" />
<path d="M60.7424 116.9543
L60.7424 116.8019
" />
<path d="M60.7424 116.8019
L60.7614 116.7638
" />
<path d="M60.7614 116.7638
L60.7805 116.7448
" />
<path d="M60.7805 116.7448
L60.8186 116.7257
" />
<path d="M60.8186 116.7257
L60.8757 116.7257
" />
<path d="M60.8757 116.7257
L60.9138 116.7448
" />
<path d="M60.9138 116.7448
L60.9329 116.7638
" />
<path d="M60.9329 116.7638
L60.9519 116.8019
" />
<path d="M60.9519 116.8019
L60.9519 116.9543
" />
<path d="M60.7424 116.4781
L60.7424 116.4019
" />
<path d="M60.7424 116.4019
L60.7614 116.3638
" />
<path d="M60.7614 116.3638
L60.7995 116.3257
" />
<path d="M60.7995 116.3257
L60.8757 116.3067
" />
<path d="M60.8757 116.3067
L61.0091 116.3067
" />
<path d="M61.0091 116.3067
L61.0853 116.3257
" />
<path d="M61.0853 116.3257
L61.1233 116.3638
" />
<path d="M61.1233 116.3638
L61.1424 116.4019
" />
<path d="M61.1424 116.4019
L61.1424 116.4781
" />
<path d="M61.1424 116.4781
L61.1233 116.5162
" />
<path d="M61.1233 116.5162
L61.0853 116.5543
" />
<path d="M61.0853 116.5543
L61.0091 116.5733
" />
<path d="M61.0091 116.5733
L60.8757 116.5733
" />
<path d="M60.8757 116.5733
L60.7995 116.5543
" />
<path d="M60.7995 116.5543
L60.7614 116.5162
" />
<path d="M60.7614 116.5162
L60.7424 116.4781
" />
<path d="M60.7424 116.1352
L61.0662 116.1352
" />
<path d="M61.0662 116.1352
L61.1043 116.1162
" />
<path d="M61.1043 116.1162
L61.1233 116.0971
" />
<path d="M61.1233 116.0971
L61.1424 116.0590
" />
<path d="M61.1424 116.0590
L61.1424 115.9829
" />
<path d="M61.1424 115.9829
L61.1233 115.9448
" />
<path d="M61.1233 115.9448
L61.1043 115.9257
" />
<path d="M61.1043 115.9257
L61.0662 115.9067
" />
<path d="M61.0662 115.9067
L60.7424 115.9067
" />
<path d="M60.7424 115.7733
L60.7424 115.5448
" />
<path d="M61.1424 115.6590
L60.7424 115.6590
" />
</g><text x="81.2800" y="147.5200"
textLength="2.7397" font-size="0.5333" lengthAdjust="spacingAndGlyphs"
text-anchor="middle" opacity="0">KEEPOUT</text>
<g class="stroked-text"><desc>KEEPOUT</desc>
<path d="M80.0419 147.5024
L80.0419 147.1024
" />
<path d="M80.2705 147.5024
L80.0990 147.2738
" />
<path d="M80.2705 147.1024
L80.0419 147.3310
" />
<path d="M80.4419 147.2929
L80.5752 147.2929
" />
<path d="M80.6324 147.5024
L80.4419 147.5024
" />
<path d="M80.4419 147.5024
L80.4419 147.1024
" />
<path d="M80.4419 147.1024
L80.6324 147.1024
" />
<path d="M80.8038 147.2929
L80.9371 147.2929
" />
<path d="M80.9943 147.5024
L80.8038 147.5024
" />
<path d="M80.8038 147.5024
L80.8038 147.1024
" />
<path d="M80.8038 147.1024
L80.9943 147.1024
" />
<path d="M81.1657 147.5024
L81.1657 147.1024
" />
<path d="M81.1657 147.1024
L81.3181 147.1024
" />
<path d="M81.3181 147.1024
L81.3562 147.1214
" />
<path d="M81.3562 147.1214
L81.3752 147.1405
" />
<path d="M81.3752 147.1405
L81.3943 147.1786
" />
<path d="M81.3943 147.1786
L81.3943 147.2357
" />
<path d="M81.3943 147.2357
L81.3752 147.2738
" />
<path d="M81.3752 147.2738
L81.3562 147.2929
" />
<path d="M81.3562 147.2929
L81.3181 147.3119
" />
<path d="M81.3181 147.3119
L81.1657 147.3119
" />
<path d="M81.6419 147.1024
L81.7181 147.1024
" />
<path d="M81.7181 147.1024
L81.7562 147.1214
" />
<path d="M81.7562 147.1214
L81.7943 147.1595
" />
<path d="M81.7943 147.1595
L81.8133 147.2357
" />
<path d="M81.8133 147.2357
L81.8133 147.3691
" />
<path d="M81.8133 147.3691
L81.7943 147.4453
" />
<path d="M81.7943 147.4453
L81.7562 147.4833
" />
<path d="M81.7562 147.4833
L81.7181 147.5024
" />
<path d="M81.7181 147.5024
L81.6419 147.5024
" />
<path d="M81.6419 147.5024
L81.6038 147.4833
" />
<path d="M81.6038 147.4833
L81.5657 147.4453
" />
<path d="M81.5657 147.4453
L81.5467 147.3691
" />
<path d="M81.5467 147.3691
L81.5467 147.2357
" />
<path d="M81.5467 147.2357
L81.5657 147.1595
" />
<path d="M81.5657 147.1595
L81.6038 147.1214
" />
<path d="M81.6038 147.1214
L81.6419 147.1024
" />
<path d="M81.9848 147.1024
L81.9848 147.4262
" />
<path d="M81.9848 147.4262
L82.0038 147.4643
" />
<path d="M82.0038 147.4643
L82.0229 147.4833
" />
<path d="M82.0229 147.4833
L82.0610 147.5024
" />
<path d="M82.0610 147.5024
L82.1371 147.5024
" />
<path d="M82.1371 147.5024
L82.1752 147.4833
" />
<path d="M82.1752 147.4833
L82.1943 147.4643
" />
<path d="M82.1943 147.4643
L82.2133 147.4262
" />
<path d="M82.2133 147.4262
L82.2133 147.1024
" />
<path d="M82.3467 147.1024
L82.5752 147.1024
" />
<path d="M82.4610 147.5024
L82.4610 147.1024
" />
</g><text x="81.2800" y="132.4400"
textLength="2.7397" font-size="0.5333" lengthAdjust="spacingAndGlyphs"
text-anchor="middle" opacity="0">KEEPOUT</text>
<g class="stroked-text"><desc>KEEPOUT</desc>
<path d="M80.0419 132.4224
L80.0419 132.0224
" />
<path d="M80.2705 132.4224
L80.0990 132.1938
" />
<path d="M80.2705 132.0224
L80.0419 132.2510
" />
<path d="M80.4419 132.2129
L80.5752 132.2129
" />
<path d="M80.6324 132.4224
L80.4419 132.4224
" />
<path d="M80.4419 132.4224
L80.4419 132.0224
" />
<path d="M80.4419 132.0224
L80.6324 132.0224
" />
<path d="M80.8038 132.2129
L80.9371 132.2129
" />
<path d="M80.9943 132.4224
L80.8038 132.4224
" />
<path d="M80.8038 132.4224
L80.8038 132.0224
" />
<path d="M80.8038 132.0224
L80.9943 132.0224
" />
<path d="M81.1657 132.4224
L81.1657 132.0224
" />
<path d="M81.1657 132.0224
L81.3181 132.0224
" />
<path d="M81.3181 132.0224
L81.3562 132.0414
" />
<path d="M81.3562 132.0414
L81.3752 132.0605
" />
<path d="M81.3752 132.0605
L81.3943 132.0986
" />
<path d="M81.3943 132.0986
L81.3943 132.1557
" />
<path d="M81.3943 132.1557
L81.3752 132.1938
" />
<path d="M81.3752 132.1938
L81.3562 132.2129
" />
<path d="M81.3562 132.2129
L81.3181 132.2319
" />
<path d="M81.3181 132.2319
L81.1657 132.2319
" />
<path d="M81.6419 132.0224
L81.7181 132.0224
" />
<path d="M81.7181 132.0224
L81.7562 132.0414
" />
<path d="M81.7562 132.0414
L81.7943 132.0795
" />
<path d="M81.7943 132.0795
L81.8133 132.1557
" />
<path d="M81.8133 132.1557
L81.8133 132.2891
" />
<path d="M81.8133 132.2891
L81.7943 132.3653
" />
<path d="M81.7943 132.3653
L81.7562 132.4033
" />
<path d="M81.7562 132.4033
L81.7181 132.4224
" />
<path d="M81.7181 132.4224
L81.6419 132.4224
" />
<path d="M81.6419 132.4224
L81.6038 132.4033
" />
<path d="M81.6038 132.4033
L81.5657 132.3653
" />
<path d="M81.5657 132.3653
L81.5467 132.2891
" />
<path d="M81.5467 132.2891
L81.5467 132.1557
" />
<path d="M81.5467 132.1557
L81.5657 132.0795
" />
<path d="M81.5657 132.0795
L81.6038 132.0414
" />
<path d="M81.6038 132.0414
L81.6419 132.0224
" />
<path d="M81.9848 132.0224
L81.9848 132.3462
" />
<path d="M81.9848 132.3462
L82.0038 132.3843
" />
<path d="M82.0038 132.3843
L82.0229 132.4033
" />
<path d="M82.0229 132.4033
L82.0610 132.4224
" />
<path d="M82.0610 132.4224
L82.1371 132.4224
" />
<path d="M82.1371 132.4224
L82.1752 132.4033
" />
<path d="M82.1752 132.4033
L82.1943 132.3843
" />
<path d="M82.1943 132.3843
L82.2133 132.3462
" />
<path d="M82.2133 132.3462
L82.2133 132.0224
" />
<path d="M82.3467 132.0224
L82.5752 132.0224
" />
<path d="M82.4610 132.4224
L82.4610 132.0224
" />
</g><text x="71.1200" y="147.5200"
textLength="2.7397" font-size="0.5333" lengthAdjust="spacingAndGlyphs"
text-anchor="middle" opacity="0">KEEPOUT</text>
<g class="stroked-text"><desc>KEEPOUT</desc>
<path d="M69.8819 147.5024
L69.8819 147.1024
" />
<path d="M70.1105 147.5024
L69.9390 147.2738
" />
<path d="M70.1105 147.1024
L69.8819 147.3310
" />
<path d="M70.2819 147.2929
L70.4152 147.2929
" />
<path d="M70.4724 147.5024
L70.2819 147.5024
" />
<path d="M70.2819 147.5024
L70.2819 147.1024
" />
<path d="M70.2819 147.1024
L70.4724 147.1024
" />
<path d="M70.6438 147.2929
L70.7771 147.2929
" />
<path d="M70.8343 147.5024
L70.6438 147.5024
" />
<path d="M70.6438 147.5024
L70.6438 147.1024
" />
<path d="M70.6438 147.1024
L70.8343 147.1024
" />
<path d="M71.0057 147.5024
L71.0057 147.1024
" />
<path d="M71.0057 147.1024
L71.1581 147.1024
" />
<path d="M71.1581 147.1024
L71.1962 147.1214
" />
<path d="M71.1962 147.1214
L71.2152 147.1405
" />
<path d="M71.2152 147.1405
L71.2343 147.1786
" />
<path d="M71.2343 147.1786
L71.2343 147.2357
" />
<path d="M71.2343 147.2357
L71.2152 147.2738
" />
<path d="M71.2152 147.2738
L71.1962 147.2929
" />
<path d="M71.1962 147.2929
L71.1581 147.3119
" />
<path d="M71.1581 147.3119
L71.0057 147.3119
" />
<path d="M71.4819 147.1024
L71.5581 147.1024
" />
<path d="M71.5581 147.1024
L71.5962 147.1214
" />
<path d="M71.5962 147.1214
L71.6343 147.1595
" />
<path d="M71.6343 147.1595
L71.6533 147.2357
" />
<path d="M71.6533 147.2357
L71.6533 147.3691
" />
<path d="M71.6533 147.3691
L71.6343 147.4453
" />
<path d="M71.6343 147.4453
L71.5962 147.4833
" />
<path d="M71.5962 147.4833
L71.5581 147.5024
" />
<path d="M71.5581 147.5024
L71.4819 147.5024
" />
<path d="M71.4819 147.5024
L71.4438 147.4833
" />
<path d="M71.4438 147.4833
L71.4057 147.4453
" />
<path d="M71.4057 147.4453
L71.3867 147.3691
" />
<path d="M71.3867 147.3691
L71.3867 147.2357
" />
<path d="M71.3867 147.2357
L71.4057 147.1595
" />
<path d="M71.4057 147.1595
L71.4438 147.1214
" />
<path d="M71.4438 147.1214
L71.4819 147.1024
" />
<path d="M71.8248 147.1024
L71.8248 147.4262
" />
<path d="M71.8248 147.4262
L71.8438 147.4643
" />
<path d="M71.8438 147.4643
L71.8629 147.4833
" />
<path d="M71.8629 147.4833
L71.9010 147.5024
" />
<path d="M71.9010 147.5024
L71.9771 147.5024
" />
<path d="M71.9771 147.5024
L72.0152 147.4833
" />
<path d="M72.0152 147.4833
L72.0343 147.4643
" />
<path d="M72.0343 147.4643
L72.0533 147.4262
" />
<path d="M72.0533 147.4262
L72.0533 147.1024
" />
<path d="M72.1867 147.1024
L72.4152 147.1024
" />
<path d="M72.3010 147.5024
L72.3010 147.1024
" />
</g><g transform="rotate(-90.000000 81.4400 116.8400)">
<text x="81.4400" y="117.0400"
textLength="2.7397" font-size="0.5333" lengthAdjust="spacingAndGlyphs"
text-anchor="middle" opacity="0">KEEPOUT</text>
</g>
<g class="stroked-text"><desc>KEEPOUT</desc>
<path d="M81.6224 118.0781
L81.2224 118.0781
" />
<path d="M81.6224 117.8495
L81.3938 118.0210
" />
<path d="M81.2224 117.8495
L81.4510 118.0781
" />
<path d="M81.4129 117.6781
L81.4129 117.5448
" />
<path d="M81.6224 117.4876
L81.6224 117.6781
" />
<path d="M81.6224 117.6781
L81.2224 117.6781
" />
<path d="M81.2224 117.6781
L81.2224 117.4876
" />
<path d="M81.4129 117.3162
L81.4129 117.1829
" />
<path d="M81.6224 117.1257
L81.6224 117.3162
" />
<path d="M81.6224 117.3162
L81.2224 117.3162
" />
<path d="M81.2224 117.3162
L81.2224 117.1257
" />
<path d="M81.6224 116.9543
L81.2224 116.9543
" />
<path d="M81.2224 116.9543
L81.2224 116.8019
" />
<path d="M81.2224 116.8019
L81.2414 116.7638
" />
<path d="M81.2414 116.7638
L81.2605 116.7448
" />
<path d="M81.2605 116.7448
L81.2986 116.7257
" />
<path d="M81.2986 116.7257
L81.3557 116.7257
" />
<path d="M81.3557 116.7257
L81.3938 116.7448
" />
<path d="M81.3938 116.7448
L81.4129 116.7638
" />
<path d="M81.4129 116.7638
L81.4319 116.8019
" />
<path d="M81.4319 116.8019
L81.4319 116.9543
" />
<path d="M81.2224 116.4781
L81.2224 116.4019
" />
<path d="M81.2224 116.4019
L81.2414 116.3638
" />
<path d="M81.2414 116.3638
L81.2795 116.3257
" />
<path d="M81.2795 116.3257
L81.3557 116.3067
" />
<path d="M81.3557 116.3067
L81.4891 116.3067
" />
<path d="M81.4891 116.3067
L81.5653 116.3257
" />
<path d="M81.5653 116.3257
L81.6033 116.3638
" />
<path d="M81.6033 116.3638
L81.6224 116.4019
" />
<path d="M81.6224 116.4019
L81.6224 116.4781
" />
<path d="M81.6224 116.4781
L81.6033 116.5162
" />
<path d="M81.6033 116.5162
L81.5653 116.5543
" />
<path d="M81.5653 116.5543
L81.4891 116.5733
" />
<path d="M81.4891 116.5733
L81.3557 116.5733
" />
<path d="M81.3557 116.5733
L81.2795 116.5543
" />
<path d="M81.2795 116.5543
L81.2414 116.5162
" />
<path d="M81.2414 116.5162
L81.2224 116.4781
" />
<path d="M81.2224 116.1352
L81.5462 116.1352
" />
<path d="M81.5462 116.1352
L81.5843 116.1162
" />
<path d="M81.5843 116.1162
L81.6033 116.0971
" />
<path d="M81.6033 116.0971
L81.6224 116.0590
" />
<path d="M81.6224 116.0590
L81.6224 115.9829
" />
<path d="M81.6224 115.9829
L81.6033 115.9448
" />
<path d="M81.6033 115.9448
L81.5843 115.9257
" />
<path d="M81.5843 115.9257
L81.5462 115.9067
" />
<path d="M81.5462 115.9067
L81.2224 115.9067
" />
<path d="M81.2224 115.7733
L81.2224 115.5448
" />
<path d="M81.6224 115.6590
L81.2224 115.6590
" />
</g></g>
<g style="fill:#000000; fill-opacity:0.0; 
stroke:#000000; stroke-width:0.1500; stroke-opacity:1; 
stroke-linecap:round; stroke-linejoin:round;">
<circle cx="88.5600" cy="53.3400" r="2.2000" /> 
<circle cx="53.3400" cy="156.4400" r="2.2000" /> 
<circle cx="88.5600" cy="156.4400" r="2.2000" /> 
<circle cx="53.3400" cy="53.3400" r="2.2000" /> 
</g>
<g style="fill:#000000; fill-opacity:0.0; 
stroke:#000000; stroke-width:0.0254; stroke-opacity:1; 
stroke-linecap:round; stroke-linejoin:round;">
<circle cx="60.9600" cy="132.0800" r="2.4765" /> 
<g >
</g>
<g >
</g>
<g >
</g>
<g >
</g>
<g >
</g>
<g >
</g>
<g >
</g>
<g >
</g>
<g >
</g>
<g >
</g>
<g >
</g>
<g >
</g>
<g >
</g>
<g >
</g>
<g >
</g>
<g >
</g>
<g >
</g>
<g >
</g>
<g >
</g>
<g >
</g>
</g> 
</svg>
