<?xml version="1.0" standalone="no"?>
 <!DOCTYPE svg PUBLIC "-//W3C//DTD SVG 1.1//EN" 
 "http://www.w3.org/Graphics/SVG/1.1/DTD/svg11.dtd"> 
<svg
  xmlns:svg="http://www.w3.org/2000/svg"
  xmlns="http://www.w3.org/2000/svg"
  xmlns:xlink="http://www.w3.org/1999/xlink"
  version="1.1"
  width="297.0022mm" height="210.0072mm" viewBox="0.0000 0.0000 297.0022 210.0072">
<title>SVG Image created as mount-Dwgs_User.svg date 2023/11/05 16:20:22 </title>
  <desc>Image generated by PCBNEW </desc>
<g style="fill:#000000; fill-opacity:1.0000;stroke:#000000; stroke-opacity:1.0000;
stroke-linecap:round; stroke-linejoin:round;"
 transform="translate(0 0) scale(1 1)">
</g>
<g style="fill:#000000; fill-opacity:0.0; 
stroke:#000000; stroke-width:0.0000; stroke-opacity:1; 
stroke-linecap:round; stroke-linejoin:round;">
</g>
<g style="fill:#000000; fill-opacity:0.0; 
stroke:#000000; stroke-width:0.1500; stroke-opacity:1; 
stroke-linecap:round; stroke-linejoin:round;">
<path d="M50.8000 66.0400
L106.6800 66.0400
" />
<path d="M50.8000 106.6800
L106.6800 106.6800
" />
<path d="M50.8000 127.0000
L106.6800 127.0000
" />
<path d="M50.8000 147.3200
L106.6800 147.3200
" />
<path d="M81.2800 40.6400
L81.2800 177.8000
" />
<path d="M60.9600 40.6400
L60.9600 177.8000
" />
<path d="M50.8000 86.3600
L106.6800 86.3600
" />
<text x="70.9500" y="45.0700"
textLength="9.8690" font-size="1.3333" lengthAdjust="spacingAndGlyphs"
text-anchor="middle" opacity="0">40.3000 mm</text>
<g class="stroked-text"><desc>40.3000 mm</desc>
<path d="M66.8071 44.3582
L66.8071 45.0248
" />
<path d="M66.5690 43.9772
L66.3310 44.6915
" />
<path d="M66.3310 44.6915
L66.9500 44.6915
" />
<path d="M67.5214 44.0248
L67.6167 44.0248
" />
<path d="M67.6167 44.0248
L67.7119 44.0724
" />
<path d="M67.7119 44.0724
L67.7595 44.1201
" />
<path d="M67.7595 44.1201
L67.8071 44.2153
" />
<path d="M67.8071 44.2153
L67.8548 44.4058
" />
<path d="M67.8548 44.4058
L67.8548 44.6439
" />
<path d="M67.8548 44.6439
L67.8071 44.8343
" />
<path d="M67.8071 44.8343
L67.7595 44.9296
" />
<path d="M67.7595 44.9296
L67.7119 44.9772
" />
<path d="M67.7119 44.9772
L67.6167 45.0248
" />
<path d="M67.6167 45.0248
L67.5214 45.0248
" />
<path d="M67.5214 45.0248
L67.4262 44.9772
" />
<path d="M67.4262 44.9772
L67.3786 44.9296
" />
<path d="M67.3786 44.9296
L67.3310 44.8343
" />
<path d="M67.3310 44.8343
L67.2833 44.6439
" />
<path d="M67.2833 44.6439
L67.2833 44.4058
" />
<path d="M67.2833 44.4058
L67.3310 44.2153
" />
<path d="M67.3310 44.2153
L67.3786 44.1201
" />
<path d="M67.3786 44.1201
L67.4262 44.0724
" />
<path d="M67.4262 44.0724
L67.5214 44.0248
" />
<path d="M68.2833 44.9296
L68.3310 44.9772
" />
<path d="M68.3310 44.9772
L68.2833 45.0248
" />
<path d="M68.2833 45.0248
L68.2357 44.9772
" />
<path d="M68.2357 44.9772
L68.2833 44.9296
" />
<path d="M68.2833 44.9296
L68.2833 45.0248
" />
<path d="M68.6643 44.0248
L69.2833 44.0248
" />
<path d="M69.2833 44.0248
L68.9500 44.4058
" />
<path d="M68.9500 44.4058
L69.0929 44.4058
" />
<path d="M69.0929 44.4058
L69.1881 44.4534
" />
<path d="M69.1881 44.4534
L69.2357 44.5010
" />
<path d="M69.2357 44.5010
L69.2833 44.5962
" />
<path d="M69.2833 44.5962
L69.2833 44.8343
" />
<path d="M69.2833 44.8343
L69.2357 44.9296
" />
<path d="M69.2357 44.9296
L69.1881 44.9772
" />
<path d="M69.1881 44.9772
L69.0929 45.0248
" />
<path d="M69.0929 45.0248
L68.8071 45.0248
" />
<path d="M68.8071 45.0248
L68.7119 44.9772
" />
<path d="M68.7119 44.9772
L68.6643 44.9296
" />
<path d="M69.9024 44.0248
L69.9976 44.0248
" />
<path d="M69.9976 44.0248
L70.0929 44.0724
" />
<path d="M70.0929 44.0724
L70.1405 44.1201
" />
<path d="M70.1405 44.1201
L70.1881 44.2153
" />
<path d="M70.1881 44.2153
L70.2357 44.4058
" />
<path d="M70.2357 44.4058
L70.2357 44.6439
" />
<path d="M70.2357 44.6439
L70.1881 44.8343
" />
<path d="M70.1881 44.8343
L70.1405 44.9296
" />
<path d="M70.1405 44.9296
L70.0929 44.9772
" />
<path d="M70.0929 44.9772
L69.9976 45.0248
" />
<path d="M69.9976 45.0248
L69.9024 45.0248
" />
<path d="M69.9024 45.0248
L69.8071 44.9772
" />
<path d="M69.8071 44.9772
L69.7595 44.9296
" />
<path d="M69.7595 44.9296
L69.7119 44.8343
" />
<path d="M69.7119 44.8343
L69.6643 44.6439
" />
<path d="M69.6643 44.6439
L69.6643 44.4058
" />
<path d="M69.6643 44.4058
L69.7119 44.2153
" />
<path d="M69.7119 44.2153
L69.7595 44.1201
" />
<path d="M69.7595 44.1201
L69.8071 44.0724
" />
<path d="M69.8071 44.0724
L69.9024 44.0248
" />
<path d="M70.8548 44.0248
L70.9500 44.0248
" />
<path d="M70.9500 44.0248
L71.0452 44.0724
" />
<path d="M71.0452 44.0724
L71.0929 44.1201
" />
<path d="M71.0929 44.1201
L71.1405 44.2153
" />
<path d="M71.1405 44.2153
L71.1881 44.4058
" />
<path d="M71.1881 44.4058
L71.1881 44.6439
" />
<path d="M71.1881 44.6439
L71.1405 44.8343
" />
<path d="M71.1405 44.8343
L71.0929 44.9296
" />
<path d="M71.0929 44.9296
L71.0452 44.9772
" />
<path d="M71.0452 44.9772
L70.9500 45.0248
" />
<path d="M70.9500 45.0248
L70.8548 45.0248
" />
<path d="M70.8548 45.0248
L70.7595 44.9772
" />
<path d="M70.7595 44.9772
L70.7119 44.9296
" />
<path d="M70.7119 44.9296
L70.6643 44.8343
" />
<path d="M70.6643 44.8343
L70.6167 44.6439
" />
<path d="M70.6167 44.6439
L70.6167 44.4058
" />
<path d="M70.6167 44.4058
L70.6643 44.2153
" />
<path d="M70.6643 44.2153
L70.7119 44.1201
" />
<path d="M70.7119 44.1201
L70.7595 44.0724
" />
<path d="M70.7595 44.0724
L70.8548 44.0248
" />
<path d="M71.8071 44.0248
L71.9024 44.0248
" />
<path d="M71.9024 44.0248
L71.9976 44.0724
" />
<path d="M71.9976 44.0724
L72.0452 44.1201
" />
<path d="M72.0452 44.1201
L72.0929 44.2153
" />
<path d="M72.0929 44.2153
L72.1405 44.4058
" />
<path d="M72.1405 44.4058
L72.1405 44.6439
" />
<path d="M72.1405 44.6439
L72.0929 44.8343
" />
<path d="M72.0929 44.8343
L72.0452 44.9296
" />
<path d="M72.0452 44.9296
L71.9976 44.9772
" />
<path d="M71.9976 44.9772
L71.9024 45.0248
" />
<path d="M71.9024 45.0248
L71.8071 45.0248
" />
<path d="M71.8071 45.0248
L71.7119 44.9772
" />
<path d="M71.7119 44.9772
L71.6643 44.9296
" />
<path d="M71.6643 44.9296
L71.6167 44.8343
" />
<path d="M71.6167 44.8343
L71.5690 44.6439
" />
<path d="M71.5690 44.6439
L71.5690 44.4058
" />
<path d="M71.5690 44.4058
L71.6167 44.2153
" />
<path d="M71.6167 44.2153
L71.6643 44.1201
" />
<path d="M71.6643 44.1201
L71.7119 44.0724
" />
<path d="M71.7119 44.0724
L71.8071 44.0248
" />
<path d="M73.3310 45.0248
L73.3310 44.3582
" />
<path d="M73.3310 44.4534
L73.3786 44.4058
" />
<path d="M73.3786 44.4058
L73.4738 44.3582
" />
<path d="M73.4738 44.3582
L73.6167 44.3582
" />
<path d="M73.6167 44.3582
L73.7119 44.4058
" />
<path d="M73.7119 44.4058
L73.7595 44.5010
" />
<path d="M73.7595 44.5010
L73.7595 45.0248
" />
<path d="M73.7595 44.5010
L73.8071 44.4058
" />
<path d="M73.8071 44.4058
L73.9024 44.3582
" />
<path d="M73.9024 44.3582
L74.0452 44.3582
" />
<path d="M74.0452 44.3582
L74.1405 44.4058
" />
<path d="M74.1405 44.4058
L74.1881 44.5010
" />
<path d="M74.1881 44.5010
L74.1881 45.0248
" />
<path d="M74.6643 45.0248
L74.6643 44.3582
" />
<path d="M74.6643 44.4534
L74.7119 44.4058
" />
<path d="M74.7119 44.4058
L74.8071 44.3582
" />
<path d="M74.8071 44.3582
L74.9500 44.3582
" />
<path d="M74.9500 44.3582
L75.0452 44.4058
" />
<path d="M75.0452 44.4058
L75.0929 44.5010
" />
<path d="M75.0929 44.5010
L75.0929 45.0248
" />
<path d="M75.0929 44.5010
L75.1405 44.4058
" />
<path d="M75.1405 44.4058
L75.2357 44.3582
" />
<path d="M75.2357 44.3582
L75.3786 44.3582
" />
<path d="M75.3786 44.3582
L75.4738 44.4058
" />
<path d="M75.4738 44.4058
L75.5214 44.5010
" />
<path d="M75.5214 44.5010
L75.5214 45.0248
" />
</g><path d="M91.1000 50.8000
L91.1000 45.1336
" />
<path d="M50.8000 50.8000
L50.8000 45.1336
" />
<path d="M91.1000 45.7200
L50.8000 45.7200
" />
<path d="M91.1000 45.7200
L50.8000 45.7200
" />
<path d="M91.1000 45.7200
L89.9735 46.3064
" />
<path d="M91.1000 45.7200
L89.9735 45.1336
" />
<path d="M50.8000 45.7200
L51.9265 45.1336
" />
<path d="M50.8000 45.7200
L51.9265 46.3064
" />
<g transform="rotate(-90.000000 39.4900 58.4200)">
<text x="39.4900" y="58.9200"
textLength="9.8690" font-size="1.3333" lengthAdjust="spacingAndGlyphs"
text-anchor="middle" opacity="0">15.2400 mm</text>
</g>
<g class="stroked-text"><desc>15.2400 mm</desc>
<path d="M39.9448 62.4676
L39.9448 63.0390
" />
<path d="M39.9448 62.7533
L38.9448 62.7533
" />
<path d="M38.9448 62.7533
L39.0877 62.8486
" />
<path d="M39.0877 62.8486
L39.1829 62.9438
" />
<path d="M39.1829 62.9438
L39.2305 63.0390
" />
<path d="M38.9448 61.5629
L38.9448 62.0390
" />
<path d="M38.9448 62.0390
L39.4210 62.0867
" />
<path d="M39.4210 62.0867
L39.3734 62.0390
" />
<path d="M39.3734 62.0390
L39.3258 61.9438
" />
<path d="M39.3258 61.9438
L39.3258 61.7057
" />
<path d="M39.3258 61.7057
L39.3734 61.6105
" />
<path d="M39.3734 61.6105
L39.4210 61.5629
" />
<path d="M39.4210 61.5629
L39.5162 61.5152
" />
<path d="M39.5162 61.5152
L39.7543 61.5152
" />
<path d="M39.7543 61.5152
L39.8496 61.5629
" />
<path d="M39.8496 61.5629
L39.8972 61.6105
" />
<path d="M39.8972 61.6105
L39.9448 61.7057
" />
<path d="M39.9448 61.7057
L39.9448 61.9438
" />
<path d="M39.9448 61.9438
L39.8972 62.0390
" />
<path d="M39.8972 62.0390
L39.8496 62.0867
" />
<path d="M39.8496 61.0867
L39.8972 61.0390
" />
<path d="M39.8972 61.0390
L39.9448 61.0867
" />
<path d="M39.9448 61.0867
L39.8972 61.1343
" />
<path d="M39.8972 61.1343
L39.8496 61.0867
" />
<path d="M39.8496 61.0867
L39.9448 61.0867
" />
<path d="M39.0401 60.6581
L38.9924 60.6105
" />
<path d="M38.9924 60.6105
L38.9448 60.5152
" />
<path d="M38.9448 60.5152
L38.9448 60.2771
" />
<path d="M38.9448 60.2771
L38.9924 60.1819
" />
<path d="M38.9924 60.1819
L39.0401 60.1343
" />
<path d="M39.0401 60.1343
L39.1353 60.0867
" />
<path d="M39.1353 60.0867
L39.2305 60.0867
" />
<path d="M39.2305 60.0867
L39.3734 60.1343
" />
<path d="M39.3734 60.1343
L39.9448 60.7057
" />
<path d="M39.9448 60.7057
L39.9448 60.0867
" />
<path d="M39.2782 59.2295
L39.9448 59.2295
" />
<path d="M38.8972 59.4676
L39.6115 59.7057
" />
<path d="M39.6115 59.7057
L39.6115 59.0867
" />
<path d="M38.9448 58.5152
L38.9448 58.4200
" />
<path d="M38.9448 58.4200
L38.9924 58.3248
" />
<path d="M38.9924 58.3248
L39.0401 58.2771
" />
<path d="M39.0401 58.2771
L39.1353 58.2295
" />
<path d="M39.1353 58.2295
L39.3258 58.1819
" />
<path d="M39.3258 58.1819
L39.5639 58.1819
" />
<path d="M39.5639 58.1819
L39.7543 58.2295
" />
<path d="M39.7543 58.2295
L39.8496 58.2771
" />
<path d="M39.8496 58.2771
L39.8972 58.3248
" />
<path d="M39.8972 58.3248
L39.9448 58.4200
" />
<path d="M39.9448 58.4200
L39.9448 58.5152
" />
<path d="M39.9448 58.5152
L39.8972 58.6105
" />
<path d="M39.8972 58.6105
L39.8496 58.6581
" />
<path d="M39.8496 58.6581
L39.7543 58.7057
" />
<path d="M39.7543 58.7057
L39.5639 58.7533
" />
<path d="M39.5639 58.7533
L39.3258 58.7533
" />
<path d="M39.3258 58.7533
L39.1353 58.7057
" />
<path d="M39.1353 58.7057
L39.0401 58.6581
" />
<path d="M39.0401 58.6581
L38.9924 58.6105
" />
<path d="M38.9924 58.6105
L38.9448 58.5152
" />
<path d="M38.9448 57.5629
L38.9448 57.4676
" />
<path d="M38.9448 57.4676
L38.9924 57.3724
" />
<path d="M38.9924 57.3724
L39.0401 57.3248
" />
<path d="M39.0401 57.3248
L39.1353 57.2771
" />
<path d="M39.1353 57.2771
L39.3258 57.2295
" />
<path d="M39.3258 57.2295
L39.5639 57.2295
" />
<path d="M39.5639 57.2295
L39.7543 57.2771
" />
<path d="M39.7543 57.2771
L39.8496 57.3248
" />
<path d="M39.8496 57.3248
L39.8972 57.3724
" />
<path d="M39.8972 57.3724
L39.9448 57.4676
" />
<path d="M39.9448 57.4676
L39.9448 57.5629
" />
<path d="M39.9448 57.5629
L39.8972 57.6581
" />
<path d="M39.8972 57.6581
L39.8496 57.7057
" />
<path d="M39.8496 57.7057
L39.7543 57.7533
" />
<path d="M39.7543 57.7533
L39.5639 57.8010
" />
<path d="M39.5639 57.8010
L39.3258 57.8010
" />
<path d="M39.3258 57.8010
L39.1353 57.7533
" />
<path d="M39.1353 57.7533
L39.0401 57.7057
" />
<path d="M39.0401 57.7057
L38.9924 57.6581
" />
<path d="M38.9924 57.6581
L38.9448 57.5629
" />
<path d="M39.9448 56.0390
L39.2782 56.0390
" />
<path d="M39.3734 56.0390
L39.3258 55.9914
" />
<path d="M39.3258 55.9914
L39.2782 55.8962
" />
<path d="M39.2782 55.8962
L39.2782 55.7533
" />
<path d="M39.2782 55.7533
L39.3258 55.6581
" />
<path d="M39.3258 55.6581
L39.4210 55.6105
" />
<path d="M39.4210 55.6105
L39.9448 55.6105
" />
<path d="M39.4210 55.6105
L39.3258 55.5629
" />
<path d="M39.3258 55.5629
L39.2782 55.4676
" />
<path d="M39.2782 55.4676
L39.2782 55.3248
" />
<path d="M39.2782 55.3248
L39.3258 55.2295
" />
<path d="M39.3258 55.2295
L39.4210 55.1819
" />
<path d="M39.4210 55.1819
L39.9448 55.1819
" />
<path d="M39.9448 54.7057
L39.2782 54.7057
" />
<path d="M39.3734 54.7057
L39.3258 54.6581
" />
<path d="M39.3258 54.6581
L39.2782 54.5629
" />
<path d="M39.2782 54.5629
L39.2782 54.4200
" />
<path d="M39.2782 54.4200
L39.3258 54.3248
" />
<path d="M39.3258 54.3248
L39.4210 54.2771
" />
<path d="M39.4210 54.2771
L39.9448 54.2771
" />
<path d="M39.4210 54.2771
L39.3258 54.2295
" />
<path d="M39.3258 54.2295
L39.2782 54.1343
" />
<path d="M39.2782 54.1343
L39.2782 53.9914
" />
<path d="M39.2782 53.9914
L39.3258 53.8962
" />
<path d="M39.3258 53.8962
L39.4210 53.8486
" />
<path d="M39.4210 53.8486
L39.9448 53.8486
" />
</g><path d="M50.8000 50.8000
L40.0536 50.8000
" />
<path d="M50.8000 66.0400
L40.0536 66.0400
" />
<path d="M40.6400 50.8000
L40.6400 66.0400
" />
<path d="M40.6400 50.8000
L40.6400 66.0400
" />
<path d="M40.6400 50.8000
L41.2264 51.9265
" />
<path d="M40.6400 50.8000
L40.0536 51.9265
" />
<path d="M40.6400 66.0400
L40.0536 64.9135
" />
<path d="M40.6400 66.0400
L41.2264 64.9135
" />
<g transform="rotate(-90.000000 100.4500 104.8900)">
<text x="100.4500" y="105.3900"
textLength="10.8214" font-size="1.3333" lengthAdjust="spacingAndGlyphs"
text-anchor="middle" opacity="0">108.1800 mm</text>
</g>
<g class="stroked-text"><desc>108.1800 mm</desc>
<path d="M100.9048 109.4138
L100.9048 109.9852
" />
<path d="M100.9048 109.6995
L99.9048 109.6995
" />
<path d="M99.9048 109.6995
L100.0477 109.7948
" />
<path d="M100.0477 109.7948
L100.1429 109.8900
" />
<path d="M100.1429 109.8900
L100.1905 109.9852
" />
<path d="M99.9048 108.7948
L99.9048 108.6995
" />
<path d="M99.9048 108.6995
L99.9524 108.6043
" />
<path d="M99.9524 108.6043
L100.0001 108.5567
" />
<path d="M100.0001 108.5567
L100.0953 108.5090
" />
<path d="M100.0953 108.5090
L100.2858 108.4614
" />
<path d="M100.2858 108.4614
L100.5239 108.4614
" />
<path d="M100.5239 108.4614
L100.7143 108.5090
" />
<path d="M100.7143 108.5090
L100.8096 108.5567
" />
<path d="M100.8096 108.5567
L100.8572 108.6043
" />
<path d="M100.8572 108.6043
L100.9048 108.6995
" />
<path d="M100.9048 108.6995
L100.9048 108.7948
" />
<path d="M100.9048 108.7948
L100.8572 108.8900
" />
<path d="M100.8572 108.8900
L100.8096 108.9376
" />
<path d="M100.8096 108.9376
L100.7143 108.9852
" />
<path d="M100.7143 108.9852
L100.5239 109.0329
" />
<path d="M100.5239 109.0329
L100.2858 109.0329
" />
<path d="M100.2858 109.0329
L100.0953 108.9852
" />
<path d="M100.0953 108.9852
L100.0001 108.9376
" />
<path d="M100.0001 108.9376
L99.9524 108.8900
" />
<path d="M99.9524 108.8900
L99.9048 108.7948
" />
<path d="M100.3334 107.8900
L100.2858 107.9852
" />
<path d="M100.2858 107.9852
L100.2382 108.0329
" />
<path d="M100.2382 108.0329
L100.1429 108.0805
" />
<path d="M100.1429 108.0805
L100.0953 108.0805
" />
<path d="M100.0953 108.0805
L100.0001 108.0329
" />
<path d="M100.0001 108.0329
L99.9524 107.9852
" />
<path d="M99.9524 107.9852
L99.9048 107.8900
" />
<path d="M99.9048 107.8900
L99.9048 107.6995
" />
<path d="M99.9048 107.6995
L99.9524 107.6043
" />
<path d="M99.9524 107.6043
L100.0001 107.5567
" />
<path d="M100.0001 107.5567
L100.0953 107.5090
" />
<path d="M100.0953 107.5090
L100.1429 107.5090
" />
<path d="M100.1429 107.5090
L100.2382 107.5567
" />
<path d="M100.2382 107.5567
L100.2858 107.6043
" />
<path d="M100.2858 107.6043
L100.3334 107.6995
" />
<path d="M100.3334 107.6995
L100.3334 107.8900
" />
<path d="M100.3334 107.8900
L100.3810 107.9852
" />
<path d="M100.3810 107.9852
L100.4286 108.0329
" />
<path d="M100.4286 108.0329
L100.5239 108.0805
" />
<path d="M100.5239 108.0805
L100.7143 108.0805
" />
<path d="M100.7143 108.0805
L100.8096 108.0329
" />
<path d="M100.8096 108.0329
L100.8572 107.9852
" />
<path d="M100.8572 107.9852
L100.9048 107.8900
" />
<path d="M100.9048 107.8900
L100.9048 107.6995
" />
<path d="M100.9048 107.6995
L100.8572 107.6043
" />
<path d="M100.8572 107.6043
L100.8096 107.5567
" />
<path d="M100.8096 107.5567
L100.7143 107.5090
" />
<path d="M100.7143 107.5090
L100.5239 107.5090
" />
<path d="M100.5239 107.5090
L100.4286 107.5567
" />
<path d="M100.4286 107.5567
L100.3810 107.6043
" />
<path d="M100.3810 107.6043
L100.3334 107.6995
" />
<path d="M100.8096 107.0805
L100.8572 107.0329
" />
<path d="M100.8572 107.0329
L100.9048 107.0805
" />
<path d="M100.9048 107.0805
L100.8572 107.1281
" />
<path d="M100.8572 107.1281
L100.8096 107.0805
" />
<path d="M100.8096 107.0805
L100.9048 107.0805
" />
<path d="M100.9048 106.0805
L100.9048 106.6519
" />
<path d="M100.9048 106.3662
L99.9048 106.3662
" />
<path d="M99.9048 106.3662
L100.0477 106.4614
" />
<path d="M100.0477 106.4614
L100.1429 106.5567
" />
<path d="M100.1429 106.5567
L100.1905 106.6519
" />
<path d="M100.3334 105.5090
L100.2858 105.6043
" />
<path d="M100.2858 105.6043
L100.2382 105.6519
" />
<path d="M100.2382 105.6519
L100.1429 105.6995
" />
<path d="M100.1429 105.6995
L100.0953 105.6995
" />
<path d="M100.0953 105.6995
L100.0001 105.6519
" />
<path d="M100.0001 105.6519
L99.9524 105.6043
" />
<path d="M99.9524 105.6043
L99.9048 105.5090
" />
<path d="M99.9048 105.5090
L99.9048 105.3186
" />
<path d="M99.9048 105.3186
L99.9524 105.2233
" />
<path d="M99.9524 105.2233
L100.0001 105.1757
" />
<path d="M100.0001 105.1757
L100.0953 105.1281
" />
<path d="M100.0953 105.1281
L100.1429 105.1281
" />
<path d="M100.1429 105.1281
L100.2382 105.1757
" />
<path d="M100.2382 105.1757
L100.2858 105.2233
" />
<path d="M100.2858 105.2233
L100.3334 105.3186
" />
<path d="M100.3334 105.3186
L100.3334 105.5090
" />
<path d="M100.3334 105.5090
L100.3810 105.6043
" />
<path d="M100.3810 105.6043
L100.4286 105.6519
" />
<path d="M100.4286 105.6519
L100.5239 105.6995
" />
<path d="M100.5239 105.6995
L100.7143 105.6995
" />
<path d="M100.7143 105.6995
L100.8096 105.6519
" />
<path d="M100.8096 105.6519
L100.8572 105.6043
" />
<path d="M100.8572 105.6043
L100.9048 105.5090
" />
<path d="M100.9048 105.5090
L100.9048 105.3186
" />
<path d="M100.9048 105.3186
L100.8572 105.2233
" />
<path d="M100.8572 105.2233
L100.8096 105.1757
" />
<path d="M100.8096 105.1757
L100.7143 105.1281
" />
<path d="M100.7143 105.1281
L100.5239 105.1281
" />
<path d="M100.5239 105.1281
L100.4286 105.1757
" />
<path d="M100.4286 105.1757
L100.3810 105.2233
" />
<path d="M100.3810 105.2233
L100.3334 105.3186
" />
<path d="M99.9048 104.5090
L99.9048 104.4138
" />
<path d="M99.9048 104.4138
L99.9524 104.3186
" />
<path d="M99.9524 104.3186
L100.0001 104.2710
" />
<path d="M100.0001 104.2710
L100.0953 104.2233
" />
<path d="M100.0953 104.2233
L100.2858 104.1757
" />
<path d="M100.2858 104.1757
L100.5239 104.1757
" />
<path d="M100.5239 104.1757
L100.7143 104.2233
" />
<path d="M100.7143 104.2233
L100.8096 104.2710
" />
<path d="M100.8096 104.2710
L100.8572 104.3186
" />
<path d="M100.8572 104.3186
L100.9048 104.4138
" />
<path d="M100.9048 104.4138
L100.9048 104.5090
" />
<path d="M100.9048 104.5090
L100.8572 104.6043
" />
<path d="M100.8572 104.6043
L100.8096 104.6519
" />
<path d="M100.8096 104.6519
L100.7143 104.6995
" />
<path d="M100.7143 104.6995
L100.5239 104.7471
" />
<path d="M100.5239 104.7471
L100.2858 104.7471
" />
<path d="M100.2858 104.7471
L100.0953 104.6995
" />
<path d="M100.0953 104.6995
L100.0001 104.6519
" />
<path d="M100.0001 104.6519
L99.9524 104.6043
" />
<path d="M99.9524 104.6043
L99.9048 104.5090
" />
<path d="M99.9048 103.5567
L99.9048 103.4614
" />
<path d="M99.9048 103.4614
L99.9524 103.3662
" />
<path d="M99.9524 103.3662
L100.0001 103.3186
" />
<path d="M100.0001 103.3186
L100.0953 103.2710
" />
<path d="M100.0953 103.2710
L100.2858 103.2233
" />
<path d="M100.2858 103.2233
L100.5239 103.2233
" />
<path d="M100.5239 103.2233
L100.7143 103.2710
" />
<path d="M100.7143 103.2710
L100.8096 103.3186
" />
<path d="M100.8096 103.3186
L100.8572 103.3662
" />
<path d="M100.8572 103.3662
L100.9048 103.4614
" />
<path d="M100.9048 103.4614
L100.9048 103.5567
" />
<path d="M100.9048 103.5567
L100.8572 103.6519
" />
<path d="M100.8572 103.6519
L100.8096 103.6995
" />
<path d="M100.8096 103.6995
L100.7143 103.7471
" />
<path d="M100.7143 103.7471
L100.5239 103.7948
" />
<path d="M100.5239 103.7948
L100.2858 103.7948
" />
<path d="M100.2858 103.7948
L100.0953 103.7471
" />
<path d="M100.0953 103.7471
L100.0001 103.6995
" />
<path d="M100.0001 103.6995
L99.9524 103.6519
" />
<path d="M99.9524 103.6519
L99.9048 103.5567
" />
<path d="M100.9048 102.0329
L100.2382 102.0329
" />
<path d="M100.3334 102.0329
L100.2858 101.9852
" />
<path d="M100.2858 101.9852
L100.2382 101.8900
" />
<path d="M100.2382 101.8900
L100.2382 101.7471
" />
<path d="M100.2382 101.7471
L100.2858 101.6519
" />
<path d="M100.2858 101.6519
L100.3810 101.6043
" />
<path d="M100.3810 101.6043
L100.9048 101.6043
" />
<path d="M100.3810 101.6043
L100.2858 101.5567
" />
<path d="M100.2858 101.5567
L100.2382 101.4614
" />
<path d="M100.2382 101.4614
L100.2382 101.3186
" />
<path d="M100.2382 101.3186
L100.2858 101.2233
" />
<path d="M100.2858 101.2233
L100.3810 101.1757
" />
<path d="M100.3810 101.1757
L100.9048 101.1757
" />
<path d="M100.9048 100.6995
L100.2382 100.6995
" />
<path d="M100.3334 100.6995
L100.2858 100.6519
" />
<path d="M100.2858 100.6519
L100.2382 100.5567
" />
<path d="M100.2382 100.5567
L100.2382 100.4138
" />
<path d="M100.2382 100.4138
L100.2858 100.3186
" />
<path d="M100.2858 100.3186
L100.3810 100.2710
" />
<path d="M100.3810 100.2710
L100.9048 100.2710
" />
<path d="M100.3810 100.2710
L100.2858 100.2233
" />
<path d="M100.2858 100.2233
L100.2382 100.1281
" />
<path d="M100.2382 100.1281
L100.2382 99.9852
" />
<path d="M100.2382 99.9852
L100.2858 99.8900
" />
<path d="M100.2858 99.8900
L100.3810 99.8424
" />
<path d="M100.3810 99.8424
L100.9048 99.8424
" />
</g><path d="M91.1000 50.8000
L102.1864 50.8000
" />
<path d="M91.1000 158.9800
L102.1864 158.9800
" />
<path d="M101.6000 50.8000
L101.6000 158.9800
" />
<path d="M101.6000 50.8000
L101.6000 158.9800
" />
<path d="M101.6000 50.8000
L102.1864 51.9265
" />
<path d="M101.6000 50.8000
L101.0136 51.9265
" />
<path d="M101.6000 158.9800
L101.0136 157.8535
" />
<path d="M101.6000 158.9800
L102.1864 157.8535
" />
<g transform="rotate(-90.000000 44.5700 153.1500)">
<text x="44.5700" y="153.6500"
textLength="9.8690" font-size="1.3333" lengthAdjust="spacingAndGlyphs"
text-anchor="middle" opacity="0">11.6600 mm</text>
</g>
<g class="stroked-text"><desc>11.6600 mm</desc>
<path d="M45.0248 157.1976
L45.0248 157.7690
" />
<path d="M45.0248 157.4833
L44.0248 157.4833
" />
<path d="M44.0248 157.4833
L44.1677 157.5786
" />
<path d="M44.1677 157.5786
L44.2629 157.6738
" />
<path d="M44.2629 157.6738
L44.3105 157.7690
" />
<path d="M45.0248 156.2452
L45.0248 156.8167
" />
<path d="M45.0248 156.5310
L44.0248 156.5310
" />
<path d="M44.0248 156.5310
L44.1677 156.6262
" />
<path d="M44.1677 156.6262
L44.2629 156.7214
" />
<path d="M44.2629 156.7214
L44.3105 156.8167
" />
<path d="M44.9296 155.8167
L44.9772 155.7690
" />
<path d="M44.9772 155.7690
L45.0248 155.8167
" />
<path d="M45.0248 155.8167
L44.9772 155.8643
" />
<path d="M44.9772 155.8643
L44.9296 155.8167
" />
<path d="M44.9296 155.8167
L45.0248 155.8167
" />
<path d="M44.0248 154.9119
L44.0248 155.1024
" />
<path d="M44.0248 155.1024
L44.0724 155.1976
" />
<path d="M44.0724 155.1976
L44.1201 155.2452
" />
<path d="M44.1201 155.2452
L44.2629 155.3405
" />
<path d="M44.2629 155.3405
L44.4534 155.3881
" />
<path d="M44.4534 155.3881
L44.8343 155.3881
" />
<path d="M44.8343 155.3881
L44.9296 155.3405
" />
<path d="M44.9296 155.3405
L44.9772 155.2929
" />
<path d="M44.9772 155.2929
L45.0248 155.1976
" />
<path d="M45.0248 155.1976
L45.0248 155.0071
" />
<path d="M45.0248 155.0071
L44.9772 154.9119
" />
<path d="M44.9772 154.9119
L44.9296 154.8643
" />
<path d="M44.9296 154.8643
L44.8343 154.8167
" />
<path d="M44.8343 154.8167
L44.5962 154.8167
" />
<path d="M44.5962 154.8167
L44.5010 154.8643
" />
<path d="M44.5010 154.8643
L44.4534 154.9119
" />
<path d="M44.4534 154.9119
L44.4058 155.0071
" />
<path d="M44.4058 155.0071
L44.4058 155.1976
" />
<path d="M44.4058 155.1976
L44.4534 155.2929
" />
<path d="M44.4534 155.2929
L44.5010 155.3405
" />
<path d="M44.5010 155.3405
L44.5962 155.3881
" />
<path d="M44.0248 153.9595
L44.0248 154.1500
" />
<path d="M44.0248 154.1500
L44.0724 154.2452
" />
<path d="M44.0724 154.2452
L44.1201 154.2929
" />
<path d="M44.1201 154.2929
L44.2629 154.3881
" />
<path d="M44.2629 154.3881
L44.4534 154.4357
" />
<path d="M44.4534 154.4357
L44.8343 154.4357
" />
<path d="M44.8343 154.4357
L44.9296 154.3881
" />
<path d="M44.9296 154.3881
L44.9772 154.3405
" />
<path d="M44.9772 154.3405
L45.0248 154.2452
" />
<path d="M45.0248 154.2452
L45.0248 154.0548
" />
<path d="M45.0248 154.0548
L44.9772 153.9595
" />
<path d="M44.9772 153.9595
L44.9296 153.9119
" />
<path d="M44.9296 153.9119
L44.8343 153.8643
" />
<path d="M44.8343 153.8643
L44.5962 153.8643
" />
<path d="M44.5962 153.8643
L44.5010 153.9119
" />
<path d="M44.5010 153.9119
L44.4534 153.9595
" />
<path d="M44.4534 153.9595
L44.4058 154.0548
" />
<path d="M44.4058 154.0548
L44.4058 154.2452
" />
<path d="M44.4058 154.2452
L44.4534 154.3405
" />
<path d="M44.4534 154.3405
L44.5010 154.3881
" />
<path d="M44.5010 154.3881
L44.5962 154.4357
" />
<path d="M44.0248 153.2452
L44.0248 153.1500
" />
<path d="M44.0248 153.1500
L44.0724 153.0548
" />
<path d="M44.0724 153.0548
L44.1201 153.0071
" />
<path d="M44.1201 153.0071
L44.2153 152.9595
" />
<path d="M44.2153 152.9595
L44.4058 152.9119
" />
<path d="M44.4058 152.9119
L44.6439 152.9119
" />
<path d="M44.6439 152.9119
L44.8343 152.9595
" />
<path d="M44.8343 152.9595
L44.9296 153.0071
" />
<path d="M44.9296 153.0071
L44.9772 153.0548
" />
<path d="M44.9772 153.0548
L45.0248 153.1500
" />
<path d="M45.0248 153.1500
L45.0248 153.2452
" />
<path d="M45.0248 153.2452
L44.9772 153.3405
" />
<path d="M44.9772 153.3405
L44.9296 153.3881
" />
<path d="M44.9296 153.3881
L44.8343 153.4357
" />
<path d="M44.8343 153.4357
L44.6439 153.4833
" />
<path d="M44.6439 153.4833
L44.4058 153.4833
" />
<path d="M44.4058 153.4833
L44.2153 153.4357
" />
<path d="M44.2153 153.4357
L44.1201 153.3881
" />
<path d="M44.1201 153.3881
L44.0724 153.3405
" />
<path d="M44.0724 153.3405
L44.0248 153.2452
" />
<path d="M44.0248 152.2929
L44.0248 152.1976
" />
<path d="M44.0248 152.1976
L44.0724 152.1024
" />
<path d="M44.0724 152.1024
L44.1201 152.0548
" />
<path d="M44.1201 152.0548
L44.2153 152.0071
" />
<path d="M44.2153 152.0071
L44.4058 151.9595
" />
<path d="M44.4058 151.9595
L44.6439 151.9595
" />
<path d="M44.6439 151.9595
L44.8343 152.0071
" />
<path d="M44.8343 152.0071
L44.9296 152.0548
" />
<path d="M44.9296 152.0548
L44.9772 152.1024
" />
<path d="M44.9772 152.1024
L45.0248 152.1976
" />
<path d="M45.0248 152.1976
L45.0248 152.2929
" />
<path d="M45.0248 152.2929
L44.9772 152.3881
" />
<path d="M44.9772 152.3881
L44.9296 152.4357
" />
<path d="M44.9296 152.4357
L44.8343 152.4833
" />
<path d="M44.8343 152.4833
L44.6439 152.5310
" />
<path d="M44.6439 152.5310
L44.4058 152.5310
" />
<path d="M44.4058 152.5310
L44.2153 152.4833
" />
<path d="M44.2153 152.4833
L44.1201 152.4357
" />
<path d="M44.1201 152.4357
L44.0724 152.3881
" />
<path d="M44.0724 152.3881
L44.0248 152.2929
" />
<path d="M45.0248 150.7690
L44.3582 150.7690
" />
<path d="M44.4534 150.7690
L44.4058 150.7214
" />
<path d="M44.4058 150.7214
L44.3582 150.6262
" />
<path d="M44.3582 150.6262
L44.3582 150.4833
" />
<path d="M44.3582 150.4833
L44.4058 150.3881
" />
<path d="M44.4058 150.3881
L44.5010 150.3405
" />
<path d="M44.5010 150.3405
L45.0248 150.3405
" />
<path d="M44.5010 150.3405
L44.4058 150.2929
" />
<path d="M44.4058 150.2929
L44.3582 150.1976
" />
<path d="M44.3582 150.1976
L44.3582 150.0548
" />
<path d="M44.3582 150.0548
L44.4058 149.9595
" />
<path d="M44.4058 149.9595
L44.5010 149.9119
" />
<path d="M44.5010 149.9119
L45.0248 149.9119
" />
<path d="M45.0248 149.4357
L44.3582 149.4357
" />
<path d="M44.4534 149.4357
L44.4058 149.3881
" />
<path d="M44.4058 149.3881
L44.3582 149.2929
" />
<path d="M44.3582 149.2929
L44.3582 149.1500
" />
<path d="M44.3582 149.1500
L44.4058 149.0548
" />
<path d="M44.4058 149.0548
L44.5010 149.0071
" />
<path d="M44.5010 149.0071
L45.0248 149.0071
" />
<path d="M44.5010 149.0071
L44.4058 148.9595
" />
<path d="M44.4058 148.9595
L44.3582 148.8643
" />
<path d="M44.3582 148.8643
L44.3582 148.7214
" />
<path d="M44.3582 148.7214
L44.4058 148.6262
" />
<path d="M44.4058 148.6262
L44.5010 148.5786
" />
<path d="M44.5010 148.5786
L45.0248 148.5786
" />
</g><path d="M50.8000 158.9800
L45.1336 158.9800
" />
<path d="M50.8000 147.3200
L45.1336 147.3200
" />
<path d="M45.7200 158.9800
L45.7200 147.3200
" />
<path d="M45.7200 158.9800
L45.7200 147.3200
" />
<path d="M45.7200 158.9800
L45.1336 157.8535
" />
<path d="M45.7200 158.9800
L46.3064 157.8535
" />
<path d="M45.7200 147.3200
L46.3064 148.4465
" />
<path d="M45.7200 147.3200
L45.1336 148.4465
" />
</g>
<g style="fill:#000000; fill-opacity:0.0; 
stroke:#000000; stroke-width:0.1200; stroke-opacity:1; 
stroke-linecap:round; stroke-linejoin:round;">
<path d="M61.3550 108.1000
L59.5400 106.2800
" />
<path d="M60.5000 108.0900
L59.5500 107.1400
" />
<path d="M61.9700 107.7500
L59.8900 105.6700
" />
<path d="M62.3100 107.2600
L60.3700 105.3200
" />
<path d="M62.4400 106.5900
L61.0500 105.2000
" />
<circle cx="60.9600" cy="106.6800" r="1.5000" /> 
<path d="M81.6750 108.1000
L79.8600 106.2800
" />
<path d="M80.8200 108.0900
L79.8700 107.1400
" />
<path d="M82.2900 107.7500
L80.2100 105.6700
" />
<path d="M82.6300 107.2600
L80.6900 105.3200
" />
<path d="M82.7600 106.5900
L81.3700 105.2000
" />
<circle cx="81.2800" cy="106.6800" r="1.5000" /> 
<path d="M59.5400 147.7150
L61.3600 145.9000
" />
<path d="M59.5500 146.8600
L60.5000 145.9100
" />
<path d="M59.8900 148.3300
L61.9700 146.2500
" />
<path d="M60.3800 148.6700
L62.3200 146.7300
" />
<path d="M61.0500 148.8000
L62.4400 147.4100
" />
<circle cx="60.9600" cy="147.3200" r="1.5000" /> 
<path d="M61.3550 118.2600
L59.5400 116.4400
" />
<path d="M60.5000 118.2500
L59.5500 117.3000
" />
<path d="M61.9700 117.9100
L59.8900 115.8300
" />
<path d="M62.3100 117.4200
L60.3700 115.4800
" />
<path d="M62.4400 116.7500
L61.0500 115.3600
" />
<circle cx="60.9600" cy="116.8400" r="1.5000" /> 
<path d="M79.8600 147.7150
L81.6800 145.9000
" />
<path d="M79.8700 146.8600
L80.8200 145.9100
" />
<path d="M80.2100 148.3300
L82.2900 146.2500
" />
<path d="M80.7000 148.6700
L82.6400 146.7300
" />
<path d="M81.3700 148.8000
L82.7600 147.4100
" />
<circle cx="81.2800" cy="147.3200" r="1.5000" /> 
<path d="M79.8600 132.6350
L81.6800 130.8200
" />
<path d="M79.8700 131.7800
L80.8200 130.8300
" />
<path d="M80.2100 133.2500
L82.2900 131.1700
" />
<path d="M80.7000 133.5900
L82.6400 131.6500
" />
<path d="M81.3700 133.7200
L82.7600 132.3300
" />
<circle cx="81.2800" cy="132.2400" r="1.5000" /> 
<path d="M69.7000 147.7150
L71.5200 145.9000
" />
<path d="M69.7100 146.8600
L70.6600 145.9100
" />
<path d="M70.0500 148.3300
L72.1300 146.2500
" />
<path d="M70.5400 148.6700
L72.4800 146.7300
" />
<path d="M71.2100 148.8000
L72.6000 147.4100
" />
<circle cx="71.1200" cy="147.3200" r="1.5000" /> 
<path d="M81.8350 118.2600
L80.0200 116.4400
" />
<path d="M80.9800 118.2500
L80.0300 117.3000
" />
<path d="M82.4500 117.9100
L80.3700 115.8300
" />
<path d="M82.7900 117.4200
L80.8500 115.4800
" />
<path d="M82.9200 116.7500
L81.5300 115.3600
" />
<circle cx="81.4400" cy="116.8400" r="1.5000" /> 
<g >
</g>
<g >
</g>
<g >
</g>
<g >
</g>
<g >
</g>
<g >
</g>
<g >
</g>
<g >
</g>
<g >
</g>
<g >
</g>
<g >
</g>
<g >
</g>
<g >
</g>
<g >
</g>
<g >
</g>
<g >
</g>
<g >
</g>
<g >
</g>
<g >
</g>
<g >
</g>
</g> 
</svg>
