<?xml version="1.0" standalone="no"?>
 <!DOCTYPE svg PUBLIC "-//W3C//DTD SVG 1.1//EN" 
 "http://www.w3.org/Graphics/SVG/1.1/DTD/svg11.dtd"> 
<svg
  xmlns:svg="http://www.w3.org/2000/svg"
  xmlns="http://www.w3.org/2000/svg"
  xmlns:xlink="http://www.w3.org/1999/xlink"
  version="1.1"
  width="297.0022mm" height="210.0072mm" viewBox="0.0000 0.0000 297.0022 210.0072">
<title>SVG Image created as mount-F_SilkS.svg date 2023/11/05 16:20:22 </title>
  <desc>Image generated by PCBNEW </desc>
<g style="fill:#000000; fill-opacity:1.0000;stroke:#000000; stroke-opacity:1.0000;
stroke-linecap:round; stroke-linejoin:round;"
 transform="translate(0 0) scale(1 1)">
</g>
<g style="fill:#000000; fill-opacity:0.0; 
stroke:#000000; stroke-width:0.0000; stroke-opacity:1; 
stroke-linecap:round; stroke-linejoin:round;">
</g>
<g style="fill:#000000; fill-opacity:0.0; 
stroke:#000000; stroke-width:0.1524; stroke-opacity:1; 
stroke-linecap:round; stroke-linejoin:round;">
<text x="58.9280" y="125.0950"
textLength="3.8929" font-size="1.6087" lengthAdjust="spacingAndGlyphs"
text-anchor="start" opacity="0">SW1</text>
<g class="stroked-text"><desc>SW1</desc>
<path d="M59.2581 124.8820
L59.4304 124.9394
" />
<path d="M59.4304 124.9394
L59.7177 124.9394
" />
<path d="M59.7177 124.9394
L59.8326 124.8820
" />
<path d="M59.8326 124.8820
L59.8900 124.8245
" />
<path d="M59.8900 124.8245
L59.9475 124.7096
" />
<path d="M59.9475 124.7096
L59.9475 124.5947
" />
<path d="M59.9475 124.5947
L59.8900 124.4798
" />
<path d="M59.8900 124.4798
L59.8326 124.4223
" />
<path d="M59.8326 124.4223
L59.7177 124.3649
" />
<path d="M59.7177 124.3649
L59.4879 124.3074
" />
<path d="M59.4879 124.3074
L59.3730 124.2500
" />
<path d="M59.3730 124.2500
L59.3155 124.1925
" />
<path d="M59.3155 124.1925
L59.2581 124.0776
" />
<path d="M59.2581 124.0776
L59.2581 123.9627
" />
<path d="M59.2581 123.9627
L59.3155 123.8478
" />
<path d="M59.3155 123.8478
L59.3730 123.7904
" />
<path d="M59.3730 123.7904
L59.4879 123.7329
" />
<path d="M59.4879 123.7329
L59.7751 123.7329
" />
<path d="M59.7751 123.7329
L59.9475 123.7904
" />
<path d="M60.3497 123.7329
L60.6369 124.9394
" />
<path d="M60.6369 124.9394
L60.8667 124.0776
" />
<path d="M60.8667 124.0776
L61.0965 124.9394
" />
<path d="M61.0965 124.9394
L61.3838 123.7329
" />
<path d="M62.4754 124.9394
L61.7860 124.9394
" />
<path d="M62.1307 124.9394
L62.1307 123.7329
" />
<path d="M62.1307 123.7329
L62.0158 123.9053
" />
<path d="M62.0158 123.9053
L61.9009 124.0202
" />
<path d="M61.9009 124.0202
L61.7860 124.0776
" />
</g><g transform="rotate(-90.000000 55.8800 134.6200)">
<text x="55.8800" y="134.6200"
textLength="6.0186" font-size="1.6087" lengthAdjust="spacingAndGlyphs"
text-anchor="start" opacity="0">Switch</text>
</g>
<g class="stroked-text"><desc>Switch</desc>
<path d="M55.6670 134.2899
L55.7244 134.1176
" />
<path d="M55.7244 134.1176
L55.7244 133.8303
" />
<path d="M55.7244 133.8303
L55.6670 133.7154
" />
<path d="M55.6670 133.7154
L55.6095 133.6580
" />
<path d="M55.6095 133.6580
L55.4946 133.6005
" />
<path d="M55.4946 133.6005
L55.3797 133.6005
" />
<path d="M55.3797 133.6005
L55.2648 133.6580
" />
<path d="M55.2648 133.6580
L55.2073 133.7154
" />
<path d="M55.2073 133.7154
L55.1499 133.8303
" />
<path d="M55.1499 133.8303
L55.0924 134.0601
" />
<path d="M55.0924 134.0601
L55.0350 134.1750
" />
<path d="M55.0350 134.1750
L54.9775 134.2325
" />
<path d="M54.9775 134.2325
L54.8626 134.2899
" />
<path d="M54.8626 134.2899
L54.7477 134.2899
" />
<path d="M54.7477 134.2899
L54.6328 134.2325
" />
<path d="M54.6328 134.2325
L54.5754 134.1750
" />
<path d="M54.5754 134.1750
L54.5179 134.0601
" />
<path d="M54.5179 134.0601
L54.5179 133.7729
" />
<path d="M54.5179 133.7729
L54.5754 133.6005
" />
<path d="M54.9201 133.1983
L55.7244 132.9685
" />
<path d="M55.7244 132.9685
L55.1499 132.7387
" />
<path d="M55.1499 132.7387
L55.7244 132.5089
" />
<path d="M55.7244 132.5089
L54.9201 132.2791
" />
<path d="M55.7244 131.8195
L54.9201 131.8195
" />
<path d="M54.5179 131.8195
L54.5754 131.8769
" />
<path d="M54.5754 131.8769
L54.6328 131.8195
" />
<path d="M54.6328 131.8195
L54.5754 131.7620
" />
<path d="M54.5754 131.7620
L54.5179 131.8195
" />
<path d="M54.5179 131.8195
L54.6328 131.8195
" />
<path d="M54.9201 131.4173
L54.9201 130.9577
" />
<path d="M54.5179 131.2450
L55.5521 131.2450
" />
<path d="M55.5521 131.2450
L55.6670 131.1875
" />
<path d="M55.6670 131.1875
L55.7244 131.0726
" />
<path d="M55.7244 131.0726
L55.7244 130.9577
" />
<path d="M55.6670 130.0384
L55.7244 130.1534
" />
<path d="M55.7244 130.1534
L55.7244 130.3832
" />
<path d="M55.7244 130.3832
L55.6670 130.4981
" />
<path d="M55.6670 130.4981
L55.6095 130.5555
" />
<path d="M55.6095 130.5555
L55.4946 130.6130
" />
<path d="M55.4946 130.6130
L55.1499 130.6130
" />
<path d="M55.1499 130.6130
L55.0350 130.5555
" />
<path d="M55.0350 130.5555
L54.9775 130.4981
" />
<path d="M54.9775 130.4981
L54.9201 130.3832
" />
<path d="M54.9201 130.3832
L54.9201 130.1534
" />
<path d="M54.9201 130.1534
L54.9775 130.0384
" />
<path d="M55.7244 129.5214
L54.5179 129.5214
" />
<path d="M55.7244 129.0043
L55.0924 129.0043
" />
<path d="M55.0924 129.0043
L54.9775 129.0618
" />
<path d="M54.9775 129.0618
L54.9201 129.1767
" />
<path d="M54.9201 129.1767
L54.9201 129.3490
" />
<path d="M54.9201 129.3490
L54.9775 129.4639
" />
<path d="M54.9775 129.4639
L55.0350 129.5214
" />
</g></g>
<g style="fill:#000000; fill-opacity:0.0; 
stroke:#000000; stroke-width:0.1500; stroke-opacity:1; 
stroke-linecap:round; stroke-linejoin:round;">
<g transform="rotate(-90.000000 55.3300 110.8100)">
<text x="55.3300" y="111.3100"
textLength="1.9643" font-size="1.3333" lengthAdjust="spacingAndGlyphs"
text-anchor="middle" opacity="0">J3</text>
</g>
<g class="stroked-text"><desc>J3</desc>
<path d="M54.7848 111.1433
L55.4991 111.1433
" />
<path d="M55.4991 111.1433
L55.6420 111.1910
" />
<path d="M55.6420 111.1910
L55.7372 111.2862
" />
<path d="M55.7372 111.2862
L55.7848 111.4290
" />
<path d="M55.7848 111.4290
L55.7848 111.5243
" />
<path d="M54.7848 110.7624
L54.7848 110.1433
" />
<path d="M54.7848 110.1433
L55.1658 110.4767
" />
<path d="M55.1658 110.4767
L55.1658 110.3338
" />
<path d="M55.1658 110.3338
L55.2134 110.2386
" />
<path d="M55.2134 110.2386
L55.2610 110.1910
" />
<path d="M55.2610 110.1910
L55.3562 110.1433
" />
<path d="M55.3562 110.1433
L55.5943 110.1433
" />
<path d="M55.5943 110.1433
L55.6896 110.1910
" />
<path d="M55.6896 110.1910
L55.7372 110.2386
" />
<path d="M55.7372 110.2386
L55.7848 110.3338
" />
<path d="M55.7848 110.3338
L55.7848 110.6195
" />
<path d="M55.7848 110.6195
L55.7372 110.7148
" />
<path d="M55.7372 110.7148
L55.6896 110.7624
" />
</g><g transform="rotate(-90.000000 74.1000 66.8300)">
<text x="74.1000" y="67.3300"
textLength="3.0595" font-size="1.3333" lengthAdjust="spacingAndGlyphs"
text-anchor="middle" opacity="0">RV2</text>
</g>
<g class="stroked-text"><desc>RV2</desc>
<path d="M74.5548 67.4252
L74.0786 67.7586
" />
<path d="M74.5548 67.9967
L73.5548 67.9967
" />
<path d="M73.5548 67.9967
L73.5548 67.6157
" />
<path d="M73.5548 67.6157
L73.6024 67.5205
" />
<path d="M73.6024 67.5205
L73.6501 67.4729
" />
<path d="M73.6501 67.4729
L73.7453 67.4252
" />
<path d="M73.7453 67.4252
L73.8882 67.4252
" />
<path d="M73.8882 67.4252
L73.9834 67.4729
" />
<path d="M73.9834 67.4729
L74.0310 67.5205
" />
<path d="M74.0310 67.5205
L74.0786 67.6157
" />
<path d="M74.0786 67.6157
L74.0786 67.9967
" />
<path d="M73.5548 67.1395
L74.5548 66.8062
" />
<path d="M74.5548 66.8062
L73.5548 66.4729
" />
<path d="M73.6501 66.1871
L73.6024 66.1395
" />
<path d="M73.6024 66.1395
L73.5548 66.0443
" />
<path d="M73.5548 66.0443
L73.5548 65.8062
" />
<path d="M73.5548 65.8062
L73.6024 65.7110
" />
<path d="M73.6024 65.7110
L73.6501 65.6633
" />
<path d="M73.6501 65.6633
L73.7453 65.6157
" />
<path d="M73.7453 65.6157
L73.8405 65.6157
" />
<path d="M73.8405 65.6157
L73.9834 65.6633
" />
<path d="M73.9834 65.6633
L74.5548 66.2348
" />
<path d="M74.5548 66.2348
L74.5548 65.6157
" />
</g><g transform="rotate(-90.000000 53.7800 87.1500)">
<text x="53.7800" y="87.6500"
textLength="3.0595" font-size="1.3333" lengthAdjust="spacingAndGlyphs"
text-anchor="middle" opacity="0">RV3</text>
</g>
<g class="stroked-text"><desc>RV3</desc>
<path d="M54.2348 87.7452
L53.7586 88.0786
" />
<path d="M54.2348 88.3167
L53.2348 88.3167
" />
<path d="M53.2348 88.3167
L53.2348 87.9357
" />
<path d="M53.2348 87.9357
L53.2824 87.8405
" />
<path d="M53.2824 87.8405
L53.3301 87.7929
" />
<path d="M53.3301 87.7929
L53.4253 87.7452
" />
<path d="M53.4253 87.7452
L53.5682 87.7452
" />
<path d="M53.5682 87.7452
L53.6634 87.7929
" />
<path d="M53.6634 87.7929
L53.7110 87.8405
" />
<path d="M53.7110 87.8405
L53.7586 87.9357
" />
<path d="M53.7586 87.9357
L53.7586 88.3167
" />
<path d="M53.2348 87.4595
L54.2348 87.1262
" />
<path d="M54.2348 87.1262
L53.2348 86.7929
" />
<path d="M53.2348 86.5548
L53.2348 85.9357
" />
<path d="M53.2348 85.9357
L53.6158 86.2690
" />
<path d="M53.6158 86.2690
L53.6158 86.1262
" />
<path d="M53.6158 86.1262
L53.6634 86.0310
" />
<path d="M53.6634 86.0310
L53.7110 85.9833
" />
<path d="M53.7110 85.9833
L53.8062 85.9357
" />
<path d="M53.8062 85.9357
L54.0443 85.9357
" />
<path d="M54.0443 85.9357
L54.1396 85.9833
" />
<path d="M54.1396 85.9833
L54.1872 86.0310
" />
<path d="M54.1872 86.0310
L54.2348 86.1262
" />
<path d="M54.2348 86.1262
L54.2348 86.4119
" />
<path d="M54.2348 86.4119
L54.1872 86.5071
" />
<path d="M54.1872 86.5071
L54.1396 86.5548
" />
</g><g transform="rotate(-90.000000 75.6500 110.8100)">
<text x="75.6500" y="111.3100"
textLength="1.9643" font-size="1.3333" lengthAdjust="spacingAndGlyphs"
text-anchor="middle" opacity="0">J4</text>
</g>
<g class="stroked-text"><desc>J4</desc>
<path d="M75.1048 111.1433
L75.8191 111.1433
" />
<path d="M75.8191 111.1433
L75.9620 111.1910
" />
<path d="M75.9620 111.1910
L76.0572 111.2862
" />
<path d="M76.0572 111.2862
L76.1048 111.4290
" />
<path d="M76.1048 111.4290
L76.1048 111.5243
" />
<path d="M75.4382 110.2386
L76.1048 110.2386
" />
<path d="M75.0572 110.4767
L75.7715 110.7148
" />
<path d="M75.7715 110.7148
L75.7715 110.0957
" />
</g><text x="56.8300" y="142.1900"
textLength="1.9643" font-size="1.3333" lengthAdjust="spacingAndGlyphs"
text-anchor="middle" opacity="0">J1</text>
<g class="stroked-text"><desc>J1</desc>
<path d="M56.4967 141.1448
L56.4967 141.8591
" />
<path d="M56.4967 141.8591
L56.4490 142.0020
" />
<path d="M56.4490 142.0020
L56.3538 142.0972
" />
<path d="M56.3538 142.0972
L56.2110 142.1448
" />
<path d="M56.2110 142.1448
L56.1157 142.1448
" />
<path d="M57.4967 142.1448
L56.9252 142.1448
" />
<path d="M57.2110 142.1448
L57.2110 141.1448
" />
<path d="M57.2110 141.1448
L57.1157 141.2877
" />
<path d="M57.1157 141.2877
L57.0205 141.3829
" />
<path d="M57.0205 141.3829
L56.9252 141.4305
" />
</g><g transform="rotate(-90.000000 55.3300 120.9700)">
<text x="55.3300" y="121.4700"
textLength="1.9643" font-size="1.3333" lengthAdjust="spacingAndGlyphs"
text-anchor="middle" opacity="0">J5</text>
</g>
<g class="stroked-text"><desc>J5</desc>
<path d="M54.7848 121.3033
L55.4991 121.3033
" />
<path d="M55.4991 121.3033
L55.6420 121.3510
" />
<path d="M55.6420 121.3510
L55.7372 121.4462
" />
<path d="M55.7372 121.4462
L55.7848 121.5890
" />
<path d="M55.7848 121.5890
L55.7848 121.6843
" />
<path d="M54.7848 120.3510
L54.7848 120.8271
" />
<path d="M54.7848 120.8271
L55.2610 120.8748
" />
<path d="M55.2610 120.8748
L55.2134 120.8271
" />
<path d="M55.2134 120.8271
L55.1658 120.7319
" />
<path d="M55.1658 120.7319
L55.1658 120.4938
" />
<path d="M55.1658 120.4938
L55.2134 120.3986
" />
<path d="M55.2134 120.3986
L55.2610 120.3510
" />
<path d="M55.2610 120.3510
L55.3562 120.3033
" />
<path d="M55.3562 120.3033
L55.5943 120.3033
" />
<path d="M55.5943 120.3033
L55.6896 120.3510
" />
<path d="M55.6896 120.3510
L55.7372 120.3986
" />
<path d="M55.7372 120.3986
L55.7848 120.4938
" />
<path d="M55.7848 120.4938
L55.7848 120.7319
" />
<path d="M55.7848 120.7319
L55.7372 120.8271
" />
<path d="M55.7372 120.8271
L55.6896 120.8748
" />
</g><text x="77.1500" y="142.1900"
textLength="1.9643" font-size="1.3333" lengthAdjust="spacingAndGlyphs"
text-anchor="middle" opacity="0">J7</text>
<g class="stroked-text"><desc>J7</desc>
<path d="M76.8167 141.1448
L76.8167 141.8591
" />
<path d="M76.8167 141.8591
L76.7690 142.0020
" />
<path d="M76.7690 142.0020
L76.6738 142.0972
" />
<path d="M76.6738 142.0972
L76.5310 142.1448
" />
<path d="M76.5310 142.1448
L76.4357 142.1448
" />
<path d="M77.1976 141.1448
L77.8643 141.1448
" />
<path d="M77.8643 141.1448
L77.4357 142.1448
" />
</g><text x="77.1500" y="127.1100"
textLength="1.9643" font-size="1.3333" lengthAdjust="spacingAndGlyphs"
text-anchor="middle" opacity="0">J8</text>
<g class="stroked-text"><desc>J8</desc>
<path d="M76.8167 126.0648
L76.8167 126.7791
" />
<path d="M76.8167 126.7791
L76.7690 126.9220
" />
<path d="M76.7690 126.9220
L76.6738 127.0172
" />
<path d="M76.6738 127.0172
L76.5310 127.0648
" />
<path d="M76.5310 127.0648
L76.4357 127.0648
" />
<path d="M77.4357 126.4934
L77.3405 126.4458
" />
<path d="M77.3405 126.4458
L77.2929 126.3982
" />
<path d="M77.2929 126.3982
L77.2452 126.3029
" />
<path d="M77.2452 126.3029
L77.2452 126.2553
" />
<path d="M77.2452 126.2553
L77.2929 126.1601
" />
<path d="M77.2929 126.1601
L77.3405 126.1124
" />
<path d="M77.3405 126.1124
L77.4357 126.0648
" />
<path d="M77.4357 126.0648
L77.6262 126.0648
" />
<path d="M77.6262 126.0648
L77.7214 126.1124
" />
<path d="M77.7214 126.1124
L77.7690 126.1601
" />
<path d="M77.7690 126.1601
L77.8167 126.2553
" />
<path d="M77.8167 126.2553
L77.8167 126.3029
" />
<path d="M77.8167 126.3029
L77.7690 126.3982
" />
<path d="M77.7690 126.3982
L77.7214 126.4458
" />
<path d="M77.7214 126.4458
L77.6262 126.4934
" />
<path d="M77.6262 126.4934
L77.4357 126.4934
" />
<path d="M77.4357 126.4934
L77.3405 126.5410
" />
<path d="M77.3405 126.5410
L77.2929 126.5886
" />
<path d="M77.2929 126.5886
L77.2452 126.6839
" />
<path d="M77.2452 126.6839
L77.2452 126.8743
" />
<path d="M77.2452 126.8743
L77.2929 126.9696
" />
<path d="M77.2929 126.9696
L77.3405 127.0172
" />
<path d="M77.3405 127.0172
L77.4357 127.0648
" />
<path d="M77.4357 127.0648
L77.6262 127.0648
" />
<path d="M77.6262 127.0648
L77.7214 127.0172
" />
<path d="M77.7214 127.0172
L77.7690 126.9696
" />
<path d="M77.7690 126.9696
L77.8167 126.8743
" />
<path d="M77.8167 126.8743
L77.8167 126.6839
" />
<path d="M77.8167 126.6839
L77.7690 126.5886
" />
<path d="M77.7690 126.5886
L77.7214 126.5410
" />
<path d="M77.7214 126.5410
L77.6262 126.4934
" />
</g><text x="66.9900" y="142.1900"
textLength="1.9643" font-size="1.3333" lengthAdjust="spacingAndGlyphs"
text-anchor="middle" opacity="0">J2</text>
<g class="stroked-text"><desc>J2</desc>
<path d="M66.6567 141.1448
L66.6567 141.8591
" />
<path d="M66.6567 141.8591
L66.6090 142.0020
" />
<path d="M66.6090 142.0020
L66.5138 142.0972
" />
<path d="M66.5138 142.0972
L66.3710 142.1448
" />
<path d="M66.3710 142.1448
L66.2757 142.1448
" />
<path d="M67.0852 141.2401
L67.1329 141.1924
" />
<path d="M67.1329 141.1924
L67.2281 141.1448
" />
<path d="M67.2281 141.1448
L67.4662 141.1448
" />
<path d="M67.4662 141.1448
L67.5614 141.1924
" />
<path d="M67.5614 141.1924
L67.6090 141.2401
" />
<path d="M67.6090 141.2401
L67.6567 141.3353
" />
<path d="M67.6567 141.3353
L67.6567 141.4305
" />
<path d="M67.6567 141.4305
L67.6090 141.5734
" />
<path d="M67.6090 141.5734
L67.0376 142.1448
" />
<path d="M67.0376 142.1448
L67.6567 142.1448
" />
</g><g transform="rotate(-90.000000 74.1000 87.1500)">
<text x="74.1000" y="87.6500"
textLength="3.0595" font-size="1.3333" lengthAdjust="spacingAndGlyphs"
text-anchor="middle" opacity="0">RV4</text>
</g>
<g class="stroked-text"><desc>RV4</desc>
<path d="M74.5548 87.7452
L74.0786 88.0786
" />
<path d="M74.5548 88.3167
L73.5548 88.3167
" />
<path d="M73.5548 88.3167
L73.5548 87.9357
" />
<path d="M73.5548 87.9357
L73.6024 87.8405
" />
<path d="M73.6024 87.8405
L73.6501 87.7929
" />
<path d="M73.6501 87.7929
L73.7453 87.7452
" />
<path d="M73.7453 87.7452
L73.8882 87.7452
" />
<path d="M73.8882 87.7452
L73.9834 87.7929
" />
<path d="M73.9834 87.7929
L74.0310 87.8405
" />
<path d="M74.0310 87.8405
L74.0786 87.9357
" />
<path d="M74.0786 87.9357
L74.0786 88.3167
" />
<path d="M73.5548 87.4595
L74.5548 87.1262
" />
<path d="M74.5548 87.1262
L73.5548 86.7929
" />
<path d="M73.8882 86.0310
L74.5548 86.0310
" />
<path d="M73.5072 86.2690
L74.2215 86.5071
" />
<path d="M74.2215 86.5071
L74.2215 85.8881
" />
</g><g transform="rotate(-90.000000 53.5400 66.8300)">
<text x="53.5400" y="67.3300"
textLength="3.0595" font-size="1.3333" lengthAdjust="spacingAndGlyphs"
text-anchor="middle" opacity="0">RV1</text>
</g>
<g class="stroked-text"><desc>RV1</desc>
<path d="M53.9948 67.4252
L53.5186 67.7586
" />
<path d="M53.9948 67.9967
L52.9948 67.9967
" />
<path d="M52.9948 67.9967
L52.9948 67.6157
" />
<path d="M52.9948 67.6157
L53.0424 67.5205
" />
<path d="M53.0424 67.5205
L53.0901 67.4729
" />
<path d="M53.0901 67.4729
L53.1853 67.4252
" />
<path d="M53.1853 67.4252
L53.3282 67.4252
" />
<path d="M53.3282 67.4252
L53.4234 67.4729
" />
<path d="M53.4234 67.4729
L53.4710 67.5205
" />
<path d="M53.4710 67.5205
L53.5186 67.6157
" />
<path d="M53.5186 67.6157
L53.5186 67.9967
" />
<path d="M52.9948 67.1395
L53.9948 66.8062
" />
<path d="M53.9948 66.8062
L52.9948 66.4729
" />
<path d="M53.9948 65.6157
L53.9948 66.1871
" />
<path d="M53.9948 65.9014
L52.9948 65.9014
" />
<path d="M52.9948 65.9014
L53.1377 65.9967
" />
<path d="M53.1377 65.9967
L53.2329 66.0919
" />
<path d="M53.2329 66.0919
L53.2805 66.1871
" />
</g><g transform="rotate(-90.000000 75.8100 120.9700)">
<text x="75.8100" y="121.4700"
textLength="1.9643" font-size="1.3333" lengthAdjust="spacingAndGlyphs"
text-anchor="middle" opacity="0">J6</text>
</g>
<g class="stroked-text"><desc>J6</desc>
<path d="M75.2648 121.3033
L75.9791 121.3033
" />
<path d="M75.9791 121.3033
L76.1220 121.3510
" />
<path d="M76.1220 121.3510
L76.2172 121.4462
" />
<path d="M76.2172 121.4462
L76.2648 121.5890
" />
<path d="M76.2648 121.5890
L76.2648 121.6843
" />
<path d="M75.2648 120.3986
L75.2648 120.5890
" />
<path d="M75.2648 120.5890
L75.3124 120.6843
" />
<path d="M75.3124 120.6843
L75.3601 120.7319
" />
<path d="M75.3601 120.7319
L75.5029 120.8271
" />
<path d="M75.5029 120.8271
L75.6934 120.8748
" />
<path d="M75.6934 120.8748
L76.0743 120.8748
" />
<path d="M76.0743 120.8748
L76.1696 120.8271
" />
<path d="M76.1696 120.8271
L76.2172 120.7795
" />
<path d="M76.2172 120.7795
L76.2648 120.6843
" />
<path d="M76.2648 120.6843
L76.2648 120.4938
" />
<path d="M76.2648 120.4938
L76.2172 120.3986
" />
<path d="M76.2172 120.3986
L76.1696 120.3510
" />
<path d="M76.1696 120.3510
L76.0743 120.3033
" />
<path d="M76.0743 120.3033
L75.8362 120.3033
" />
<path d="M75.8362 120.3033
L75.7410 120.3510
" />
<path d="M75.7410 120.3510
L75.6934 120.3986
" />
<path d="M75.6934 120.3986
L75.6458 120.4938
" />
<path d="M75.6458 120.4938
L75.6458 120.6843
" />
<path d="M75.6458 120.6843
L75.6934 120.7795
" />
<path d="M75.6934 120.7795
L75.7410 120.8271
" />
<path d="M75.7410 120.8271
L75.8362 120.8748
" />
</g></g>
<g style="fill:#000000; fill-opacity:0.0; 
stroke:#000000; stroke-width:0.1250; stroke-opacity:1; 
stroke-linecap:round; stroke-linejoin:round;">
<path d="M56.9600 138.5800
L56.9600 125.5800
" />
<path d="M57.0600 125.4800
L64.8600 125.4800
" />
<path d="M64.8600 138.6800
L57.0600 138.6800
" />
<path d="M64.9600 125.5800
L64.9600 138.5800
" />
<path d="M57.0865 125.4760 A0.1270 0.1270 0.0 0 0 56.9595 125.6030" />
<path d="M56.9595 138.5570 A0.1270 0.1270 0.0 0 0 57.0865 138.6840" />
<path d="M64.9605 125.6030 A0.1270 0.1270 0.0 0 0 64.8335 125.4760" />
<path d="M64.8335 138.6840 A0.1270 0.1270 0.0 0 0 64.9605 138.5570" />
<circle cx="60.9600" cy="132.0800" r="2.8055" /> 
<circle cx="60.9600" cy="132.0800" r="1.6813" /> 
<circle cx="60.9600" cy="132.0800" r="3.0000" /> 
</g>
<g style="fill:#000000; fill-opacity:0.0; 
stroke:#000000; stroke-width:0.1200; stroke-opacity:1; 
stroke-linecap:round; stroke-linejoin:round;">
<path d="M56.4600 111.1800
L66.9600 111.1800
" />
<path d="M53.4800 107.7400
L54.2800 107.7400
" />
<path d="M53.4800 107.7400
L53.4800 106.8800
" />
<path d="M66.9600 107.1800
L66.9600 111.1800
" />
<path d="M56.4600 107.0300
L56.4600 111.1800
" />
<path d="M56.4600 102.1800
L56.4600 106.3300
" />
<path d="M56.4600 102.1800
L66.9600 102.1800
" />
<path d="M66.9600 102.1800
L66.9600 106.1800
" />
<circle cx="60.9600" cy="106.6800" r="1.8000" /> 
<path d="M76.3600 72.6600
L76.3600 67.9400
" />
<path d="M77.5500 72.6600
L76.3700 72.6600
" />
<path d="M80.4500 72.6600
L79.9200 72.6600
" />
<path d="M82.9000 72.6600
L82.0700 72.6600
" />
<path d="M86.1100 72.6600
L84.6200 72.6600
" />
<path d="M86.1100 72.6600
L86.1100 67.9400
" />
<path d="M76.3700 64.1300
L76.3700 61.0700
" />
<path d="M86.1100 64.1300
L86.1100 61.0700
" />
<path d="M86.1100 61.0700
L76.3700 61.0700
" />
<path d="M56.0400 92.9800
L56.0400 88.2600
" />
<path d="M57.2300 92.9800
L56.0500 92.9800
" />
<path d="M60.1300 92.9800
L59.6000 92.9800
" />
<path d="M62.5800 92.9800
L61.7500 92.9800
" />
<path d="M65.7900 92.9800
L64.3000 92.9800
" />
<path d="M65.7900 92.9800
L65.7900 88.2600
" />
<path d="M56.0500 84.4500
L56.0500 81.3900
" />
<path d="M65.7900 84.4500
L65.7900 81.3900
" />
<path d="M65.7900 81.3900
L56.0500 81.3900
" />
<path d="M76.7800 111.1800
L87.2800 111.1800
" />
<path d="M73.8000 107.7400
L74.6000 107.7400
" />
<path d="M73.8000 107.7400
L73.8000 106.8800
" />
<path d="M87.2800 107.1800
L87.2800 111.1800
" />
<path d="M76.7800 107.0300
L76.7800 111.1800
" />
<path d="M76.7800 102.1800
L76.7800 106.3300
" />
<path d="M76.7800 102.1800
L87.2800 102.1800
" />
<path d="M87.2800 102.1800
L87.2800 106.1800
" />
<circle cx="81.2800" cy="106.6800" r="1.8000" /> 
<path d="M56.4600 142.8200
L56.4600 153.3200
" />
<path d="M59.9000 139.8400
L59.9000 140.6400
" />
<path d="M59.9000 139.8400
L60.7600 139.8400
" />
<path d="M60.4600 153.3200
L56.4600 153.3200
" />
<path d="M60.6100 142.8200
L56.4600 142.8200
" />
<path d="M65.4600 142.8200
L61.3100 142.8200
" />
<path d="M65.4600 142.8200
L65.4600 153.3200
" />
<path d="M65.4600 153.3200
L61.4600 153.3200
" />
<circle cx="60.9600" cy="147.3200" r="1.8000" /> 
<path d="M56.4600 121.3400
L66.9600 121.3400
" />
<path d="M53.4800 117.9000
L54.2800 117.9000
" />
<path d="M53.4800 117.9000
L53.4800 117.0400
" />
<path d="M66.9600 117.3400
L66.9600 121.3400
" />
<path d="M56.4600 117.1900
L56.4600 121.3400
" />
<path d="M56.4600 112.3400
L56.4600 116.4900
" />
<path d="M56.4600 112.3400
L66.9600 112.3400
" />
<path d="M66.9600 112.3400
L66.9600 116.3400
" />
<circle cx="60.9600" cy="116.8400" r="1.8000" /> 
<path d="M76.7800 142.8200
L76.7800 153.3200
" />
<path d="M80.2200 139.8400
L80.2200 140.6400
" />
<path d="M80.2200 139.8400
L81.0800 139.8400
" />
<path d="M80.7800 153.3200
L76.7800 153.3200
" />
<path d="M80.9300 142.8200
L76.7800 142.8200
" />
<path d="M85.7800 142.8200
L81.6300 142.8200
" />
<path d="M85.7800 142.8200
L85.7800 153.3200
" />
<path d="M85.7800 153.3200
L81.7800 153.3200
" />
<circle cx="81.2800" cy="147.3200" r="1.8000" /> 
<path d="M76.7800 127.7400
L76.7800 138.2400
" />
<path d="M80.2200 124.7600
L80.2200 125.5600
" />
<path d="M80.2200 124.7600
L81.0800 124.7600
" />
<path d="M80.7800 138.2400
L76.7800 138.2400
" />
<path d="M80.9300 127.7400
L76.7800 127.7400
" />
<path d="M85.7800 127.7400
L81.6300 127.7400
" />
<path d="M85.7800 127.7400
L85.7800 138.2400
" />
<path d="M85.7800 138.2400
L81.7800 138.2400
" />
<circle cx="81.2800" cy="132.2400" r="1.8000" /> 
<path d="M66.6200 142.8200
L66.6200 153.3200
" />
<path d="M70.0600 139.8400
L70.0600 140.6400
" />
<path d="M70.0600 139.8400
L70.9200 139.8400
" />
<path d="M70.6200 153.3200
L66.6200 153.3200
" />
<path d="M70.7700 142.8200
L66.6200 142.8200
" />
<path d="M75.6200 142.8200
L71.4700 142.8200
" />
<path d="M75.6200 142.8200
L75.6200 153.3200
" />
<path d="M75.6200 153.3200
L71.6200 153.3200
" />
<circle cx="71.1200" cy="147.3200" r="1.8000" /> 
<path d="M76.3600 92.9800
L76.3600 88.2600
" />
<path d="M77.5500 92.9800
L76.3700 92.9800
" />
<path d="M80.4500 92.9800
L79.9200 92.9800
" />
<path d="M82.9000 92.9800
L82.0700 92.9800
" />
<path d="M86.1100 92.9800
L84.6200 92.9800
" />
<path d="M86.1100 92.9800
L86.1100 88.2600
" />
<path d="M76.3700 84.4500
L76.3700 81.3900
" />
<path d="M86.1100 84.4500
L86.1100 81.3900
" />
<path d="M86.1100 81.3900
L76.3700 81.3900
" />
<path d="M55.8000 72.6600
L55.8000 67.9400
" />
<path d="M56.9900 72.6600
L55.8100 72.6600
" />
<path d="M59.8900 72.6600
L59.3600 72.6600
" />
<path d="M62.3400 72.6600
L61.5100 72.6600
" />
<path d="M65.5500 72.6600
L64.0600 72.6600
" />
<path d="M65.5500 72.6600
L65.5500 67.9400
" />
<path d="M55.8100 64.1300
L55.8100 61.0700
" />
<path d="M65.5500 64.1300
L65.5500 61.0700
" />
<path d="M65.5500 61.0700
L55.8100 61.0700
" />
<path d="M76.9400 121.3400
L87.4400 121.3400
" />
<path d="M73.9600 117.9000
L74.7600 117.9000
" />
<path d="M73.9600 117.9000
L73.9600 117.0400
" />
<path d="M87.4400 117.3400
L87.4400 121.3400
" />
<path d="M76.9400 117.1900
L76.9400 121.3400
" />
<path d="M76.9400 112.3400
L76.9400 116.4900
" />
<path d="M76.9400 112.3400
L87.4400 112.3400
" />
<path d="M87.4400 112.3400
L87.4400 116.3400
" />
<circle cx="81.4400" cy="116.8400" r="1.8000" /> 
<g >
</g>
<g >
</g>
<g >
</g>
<g >
</g>
<g >
</g>
<g >
</g>
<g >
</g>
<g >
</g>
<g >
</g>
<g >
</g>
<g >
</g>
<g >
</g>
<g >
</g>
<g >
</g>
<g >
</g>
<g >
</g>
<g >
</g>
<g >
</g>
<g >
</g>
<g >
</g>
</g>
<g style="fill:#FFFFFF; fill-opacity:0.0; 
stroke:#FFFFFF; stroke-width:0.1200; stroke-opacity:1; 
stroke-linecap:round; stroke-linejoin:round;">
</g>
<g style="fill:#FFFFFF; fill-opacity:1.0000; 
stroke:#FFFFFF; stroke-width:0.0000; stroke-opacity:1; 
stroke-linecap:round; stroke-linejoin:round;">
<circle cx="88.5600" cy="53.3400" r="0.1750" /> 
</g>
<g style="fill:#FFFFFF; fill-opacity:1.0000; 
stroke:#FFFFFF; stroke-width:0.0212; stroke-opacity:1; 
stroke-linecap:round; stroke-linejoin:round;">
</g>
<g style="fill:#FFFFFF; fill-opacity:1.0000; 
stroke:#FFFFFF; stroke-width:0.0000; stroke-opacity:1; 
stroke-linecap:round; stroke-linejoin:round;">
<circle cx="53.3400" cy="156.4400" r="0.1750" /> 
</g>
<g style="fill:#FFFFFF; fill-opacity:1.0000; 
stroke:#FFFFFF; stroke-width:0.0212; stroke-opacity:1; 
stroke-linecap:round; stroke-linejoin:round;">
</g>
<g style="fill:#FFFFFF; fill-opacity:1.0000; 
stroke:#FFFFFF; stroke-width:0.0000; stroke-opacity:1; 
stroke-linecap:round; stroke-linejoin:round;">
<circle cx="88.5600" cy="156.4400" r="0.1750" /> 
</g>
<g style="fill:#FFFFFF; fill-opacity:1.0000; 
stroke:#FFFFFF; stroke-width:0.0212; stroke-opacity:1; 
stroke-linecap:round; stroke-linejoin:round;">
</g>
<g style="fill:#FFFFFF; fill-opacity:1.0000; 
stroke:#FFFFFF; stroke-width:0.0000; stroke-opacity:1; 
stroke-linecap:round; stroke-linejoin:round;">
<circle cx="53.3400" cy="53.3400" r="0.1750" /> 
</g>
<g style="fill:#FFFFFF; fill-opacity:1.0000; 
stroke:#FFFFFF; stroke-width:0.0212; stroke-opacity:1; 
stroke-linecap:round; stroke-linejoin:round;">
</g>
<g style="fill:#FFFFFF; fill-opacity:1.0000; 
stroke:#FFFFFF; stroke-width:1.2000; stroke-opacity:1; 
stroke-linecap:round; stroke-linejoin:round;">
</g>
<g style="fill:#FFFFFF; fill-opacity:0.0; 
stroke:#FFFFFF; stroke-width:1.2000; stroke-opacity:1; 
stroke-linecap:round; stroke-linejoin:round;">
<path d="M60.4600 127.3800
L61.4600 127.3800
" />
<path d="M60.4600 132.0800
L61.4600 132.0800
" />
<path d="M60.4600 136.7800
L61.4600 136.7800
" />
</g>
<g style="fill:#FFFFFF; fill-opacity:1.0000; 
stroke:#FFFFFF; stroke-width:0.0000; stroke-opacity:1; 
stroke-linecap:round; stroke-linejoin:round;">
<circle cx="54.4800" cy="106.6800" r="0.1750" /> 
</g>
<g style="fill:#FFFFFF; fill-opacity:1.0000; 
stroke:#FFFFFF; stroke-width:0.0212; stroke-opacity:1; 
stroke-linecap:round; stroke-linejoin:round;">
</g>
<g style="fill:#FFFFFF; fill-opacity:1.0000; 
stroke:#FFFFFF; stroke-width:0.0000; stroke-opacity:1; 
stroke-linecap:round; stroke-linejoin:round;">
<circle cx="65.8800" cy="106.6800" r="0.1750" /> 
</g>
<g style="fill:#FFFFFF; fill-opacity:1.0000; 
stroke:#FFFFFF; stroke-width:0.0212; stroke-opacity:1; 
stroke-linecap:round; stroke-linejoin:round;">
</g>
<g style="fill:#FFFFFF; fill-opacity:1.0000; 
stroke:#FFFFFF; stroke-width:0.0000; stroke-opacity:1; 
stroke-linecap:round; stroke-linejoin:round;">
<circle cx="57.5800" cy="106.6800" r="0.1750" /> 
</g>
<g style="fill:#FFFFFF; fill-opacity:1.0000; 
stroke:#FFFFFF; stroke-width:0.0212; stroke-opacity:1; 
stroke-linecap:round; stroke-linejoin:round;">
</g>
<g style="fill:#FFFFFF; fill-opacity:1.0000; 
stroke:#FFFFFF; stroke-width:1.1000; stroke-opacity:1; 
stroke-linecap:round; stroke-linejoin:round;">
</g>
<g style="fill:#FFFFFF; fill-opacity:0.0; 
stroke:#FFFFFF; stroke-width:1.1000; stroke-opacity:1; 
stroke-linecap:round; stroke-linejoin:round;">
<path d="M76.4400 66.3900
L76.4400 65.6900
" />
<path d="M86.0400 66.3900
L86.0400 65.6900
" />
</g>
<g style="fill:#FFFFFF; fill-opacity:1.0000; 
stroke:#FFFFFF; stroke-width:0.0000; stroke-opacity:1; 
stroke-linecap:round; stroke-linejoin:round;">
<circle cx="78.7400" cy="73.5400" r="0.1750" /> 
</g>
<g style="fill:#FFFFFF; fill-opacity:1.0000; 
stroke:#FFFFFF; stroke-width:0.0212; stroke-opacity:1; 
stroke-linecap:round; stroke-linejoin:round;">
</g>
<g style="fill:#FFFFFF; fill-opacity:1.0000; 
stroke:#FFFFFF; stroke-width:0.0000; stroke-opacity:1; 
stroke-linecap:round; stroke-linejoin:round;">
<circle cx="81.2400" cy="73.5400" r="0.1750" /> 
</g>
<g style="fill:#FFFFFF; fill-opacity:1.0000; 
stroke:#FFFFFF; stroke-width:0.0212; stroke-opacity:1; 
stroke-linecap:round; stroke-linejoin:round;">
</g>
<g style="fill:#FFFFFF; fill-opacity:1.0000; 
stroke:#FFFFFF; stroke-width:0.0000; stroke-opacity:1; 
stroke-linecap:round; stroke-linejoin:round;">
<circle cx="83.7400" cy="73.5400" r="0.1750" /> 
</g>
<g style="fill:#FFFFFF; fill-opacity:1.0000; 
stroke:#FFFFFF; stroke-width:0.0212; stroke-opacity:1; 
stroke-linecap:round; stroke-linejoin:round;">
</g>
<g style="fill:#FFFFFF; fill-opacity:1.0000; 
stroke:#FFFFFF; stroke-width:1.1000; stroke-opacity:1; 
stroke-linecap:round; stroke-linejoin:round;">
</g>
<g style="fill:#FFFFFF; fill-opacity:0.0; 
stroke:#FFFFFF; stroke-width:1.1000; stroke-opacity:1; 
stroke-linecap:round; stroke-linejoin:round;">
<path d="M56.1200 86.7100
L56.1200 86.0100
" />
<path d="M65.7200 86.7100
L65.7200 86.0100
" />
</g>
<g style="fill:#FFFFFF; fill-opacity:1.0000; 
stroke:#FFFFFF; stroke-width:0.0000; stroke-opacity:1; 
stroke-linecap:round; stroke-linejoin:round;">
<circle cx="58.4200" cy="93.8600" r="0.1750" /> 
</g>
<g style="fill:#FFFFFF; fill-opacity:1.0000; 
stroke:#FFFFFF; stroke-width:0.0212; stroke-opacity:1; 
stroke-linecap:round; stroke-linejoin:round;">
</g>
<g style="fill:#FFFFFF; fill-opacity:1.0000; 
stroke:#FFFFFF; stroke-width:0.0000; stroke-opacity:1; 
stroke-linecap:round; stroke-linejoin:round;">
<circle cx="60.9200" cy="93.8600" r="0.1750" /> 
</g>
<g style="fill:#FFFFFF; fill-opacity:1.0000; 
stroke:#FFFFFF; stroke-width:0.0212; stroke-opacity:1; 
stroke-linecap:round; stroke-linejoin:round;">
</g>
<g style="fill:#FFFFFF; fill-opacity:1.0000; 
stroke:#FFFFFF; stroke-width:0.0000; stroke-opacity:1; 
stroke-linecap:round; stroke-linejoin:round;">
<circle cx="63.4200" cy="93.8600" r="0.1750" /> 
</g>
<g style="fill:#FFFFFF; fill-opacity:1.0000; 
stroke:#FFFFFF; stroke-width:0.0212; stroke-opacity:1; 
stroke-linecap:round; stroke-linejoin:round;">
</g>
<g style="fill:#FFFFFF; fill-opacity:1.0000; 
stroke:#FFFFFF; stroke-width:0.0000; stroke-opacity:1; 
stroke-linecap:round; stroke-linejoin:round;">
<circle cx="74.8000" cy="106.6800" r="0.1750" /> 
</g>
<g style="fill:#FFFFFF; fill-opacity:1.0000; 
stroke:#FFFFFF; stroke-width:0.0212; stroke-opacity:1; 
stroke-linecap:round; stroke-linejoin:round;">
</g>
<g style="fill:#FFFFFF; fill-opacity:1.0000; 
stroke:#FFFFFF; stroke-width:0.0000; stroke-opacity:1; 
stroke-linecap:round; stroke-linejoin:round;">
<circle cx="86.2000" cy="106.6800" r="0.1750" /> 
</g>
<g style="fill:#FFFFFF; fill-opacity:1.0000; 
stroke:#FFFFFF; stroke-width:0.0212; stroke-opacity:1; 
stroke-linecap:round; stroke-linejoin:round;">
</g>
<g style="fill:#FFFFFF; fill-opacity:1.0000; 
stroke:#FFFFFF; stroke-width:0.0000; stroke-opacity:1; 
stroke-linecap:round; stroke-linejoin:round;">
<circle cx="77.9000" cy="106.6800" r="0.1750" /> 
</g>
<g style="fill:#FFFFFF; fill-opacity:1.0000; 
stroke:#FFFFFF; stroke-width:0.0212; stroke-opacity:1; 
stroke-linecap:round; stroke-linejoin:round;">
</g>
<g style="fill:#FFFFFF; fill-opacity:1.0000; 
stroke:#FFFFFF; stroke-width:0.0000; stroke-opacity:1; 
stroke-linecap:round; stroke-linejoin:round;">
<circle cx="60.9600" cy="140.8400" r="0.1750" /> 
</g>
<g style="fill:#FFFFFF; fill-opacity:1.0000; 
stroke:#FFFFFF; stroke-width:0.0212; stroke-opacity:1; 
stroke-linecap:round; stroke-linejoin:round;">
</g>
<g style="fill:#FFFFFF; fill-opacity:1.0000; 
stroke:#FFFFFF; stroke-width:0.0000; stroke-opacity:1; 
stroke-linecap:round; stroke-linejoin:round;">
<circle cx="60.9600" cy="152.2400" r="0.1750" /> 
</g>
<g style="fill:#FFFFFF; fill-opacity:1.0000; 
stroke:#FFFFFF; stroke-width:0.0212; stroke-opacity:1; 
stroke-linecap:round; stroke-linejoin:round;">
</g>
<g style="fill:#FFFFFF; fill-opacity:1.0000; 
stroke:#FFFFFF; stroke-width:0.0000; stroke-opacity:1; 
stroke-linecap:round; stroke-linejoin:round;">
<circle cx="60.9600" cy="143.9400" r="0.1750" /> 
</g>
<g style="fill:#FFFFFF; fill-opacity:1.0000; 
stroke:#FFFFFF; stroke-width:0.0212; stroke-opacity:1; 
stroke-linecap:round; stroke-linejoin:round;">
</g>
<g style="fill:#FFFFFF; fill-opacity:1.0000; 
stroke:#FFFFFF; stroke-width:0.0000; stroke-opacity:1; 
stroke-linecap:round; stroke-linejoin:round;">
<circle cx="54.4800" cy="116.8400" r="0.1750" /> 
</g>
<g style="fill:#FFFFFF; fill-opacity:1.0000; 
stroke:#FFFFFF; stroke-width:0.0212; stroke-opacity:1; 
stroke-linecap:round; stroke-linejoin:round;">
</g>
<g style="fill:#FFFFFF; fill-opacity:1.0000; 
stroke:#FFFFFF; stroke-width:0.0000; stroke-opacity:1; 
stroke-linecap:round; stroke-linejoin:round;">
<circle cx="65.8800" cy="116.8400" r="0.1750" /> 
</g>
<g style="fill:#FFFFFF; fill-opacity:1.0000; 
stroke:#FFFFFF; stroke-width:0.0212; stroke-opacity:1; 
stroke-linecap:round; stroke-linejoin:round;">
</g>
<g style="fill:#FFFFFF; fill-opacity:1.0000; 
stroke:#FFFFFF; stroke-width:0.0000; stroke-opacity:1; 
stroke-linecap:round; stroke-linejoin:round;">
<circle cx="57.5800" cy="116.8400" r="0.1750" /> 
</g>
<g style="fill:#FFFFFF; fill-opacity:1.0000; 
stroke:#FFFFFF; stroke-width:0.0212; stroke-opacity:1; 
stroke-linecap:round; stroke-linejoin:round;">
</g>
<g style="fill:#FFFFFF; fill-opacity:1.0000; 
stroke:#FFFFFF; stroke-width:0.0000; stroke-opacity:1; 
stroke-linecap:round; stroke-linejoin:round;">
<circle cx="81.2800" cy="140.8400" r="0.1750" /> 
</g>
<g style="fill:#FFFFFF; fill-opacity:1.0000; 
stroke:#FFFFFF; stroke-width:0.0212; stroke-opacity:1; 
stroke-linecap:round; stroke-linejoin:round;">
</g>
<g style="fill:#FFFFFF; fill-opacity:1.0000; 
stroke:#FFFFFF; stroke-width:0.0000; stroke-opacity:1; 
stroke-linecap:round; stroke-linejoin:round;">
<circle cx="81.2800" cy="152.2400" r="0.1750" /> 
</g>
<g style="fill:#FFFFFF; fill-opacity:1.0000; 
stroke:#FFFFFF; stroke-width:0.0212; stroke-opacity:1; 
stroke-linecap:round; stroke-linejoin:round;">
</g>
<g style="fill:#FFFFFF; fill-opacity:1.0000; 
stroke:#FFFFFF; stroke-width:0.0000; stroke-opacity:1; 
stroke-linecap:round; stroke-linejoin:round;">
<circle cx="81.2800" cy="143.9400" r="0.1750" /> 
</g>
<g style="fill:#FFFFFF; fill-opacity:1.0000; 
stroke:#FFFFFF; stroke-width:0.0212; stroke-opacity:1; 
stroke-linecap:round; stroke-linejoin:round;">
</g>
<g style="fill:#FFFFFF; fill-opacity:1.0000; 
stroke:#FFFFFF; stroke-width:0.0000; stroke-opacity:1; 
stroke-linecap:round; stroke-linejoin:round;">
<circle cx="81.2800" cy="125.7600" r="0.1750" /> 
</g>
<g style="fill:#FFFFFF; fill-opacity:1.0000; 
stroke:#FFFFFF; stroke-width:0.0212; stroke-opacity:1; 
stroke-linecap:round; stroke-linejoin:round;">
</g>
<g style="fill:#FFFFFF; fill-opacity:1.0000; 
stroke:#FFFFFF; stroke-width:0.0000; stroke-opacity:1; 
stroke-linecap:round; stroke-linejoin:round;">
<circle cx="81.2800" cy="137.1600" r="0.1750" /> 
</g>
<g style="fill:#FFFFFF; fill-opacity:1.0000; 
stroke:#FFFFFF; stroke-width:0.0212; stroke-opacity:1; 
stroke-linecap:round; stroke-linejoin:round;">
</g>
<g style="fill:#FFFFFF; fill-opacity:1.0000; 
stroke:#FFFFFF; stroke-width:0.0000; stroke-opacity:1; 
stroke-linecap:round; stroke-linejoin:round;">
<circle cx="81.2800" cy="128.8600" r="0.1750" /> 
</g>
<g style="fill:#FFFFFF; fill-opacity:1.0000; 
stroke:#FFFFFF; stroke-width:0.0212; stroke-opacity:1; 
stroke-linecap:round; stroke-linejoin:round;">
</g>
<g style="fill:#FFFFFF; fill-opacity:1.0000; 
stroke:#FFFFFF; stroke-width:0.0000; stroke-opacity:1; 
stroke-linecap:round; stroke-linejoin:round;">
<circle cx="71.1200" cy="140.8400" r="0.1750" /> 
</g>
<g style="fill:#FFFFFF; fill-opacity:1.0000; 
stroke:#FFFFFF; stroke-width:0.0212; stroke-opacity:1; 
stroke-linecap:round; stroke-linejoin:round;">
</g>
<g style="fill:#FFFFFF; fill-opacity:1.0000; 
stroke:#FFFFFF; stroke-width:0.0000; stroke-opacity:1; 
stroke-linecap:round; stroke-linejoin:round;">
<circle cx="71.1200" cy="152.2400" r="0.1750" /> 
</g>
<g style="fill:#FFFFFF; fill-opacity:1.0000; 
stroke:#FFFFFF; stroke-width:0.0212; stroke-opacity:1; 
stroke-linecap:round; stroke-linejoin:round;">
</g>
<g style="fill:#FFFFFF; fill-opacity:1.0000; 
stroke:#FFFFFF; stroke-width:0.0000; stroke-opacity:1; 
stroke-linecap:round; stroke-linejoin:round;">
<circle cx="71.1200" cy="143.9400" r="0.1750" /> 
</g>
<g style="fill:#FFFFFF; fill-opacity:1.0000; 
stroke:#FFFFFF; stroke-width:0.0212; stroke-opacity:1; 
stroke-linecap:round; stroke-linejoin:round;">
</g>
<g style="fill:#FFFFFF; fill-opacity:1.0000; 
stroke:#FFFFFF; stroke-width:1.1000; stroke-opacity:1; 
stroke-linecap:round; stroke-linejoin:round;">
</g>
<g style="fill:#FFFFFF; fill-opacity:0.0; 
stroke:#FFFFFF; stroke-width:1.1000; stroke-opacity:1; 
stroke-linecap:round; stroke-linejoin:round;">
<path d="M76.4400 86.7100
L76.4400 86.0100
" />
<path d="M86.0400 86.7100
L86.0400 86.0100
" />
</g>
<g style="fill:#FFFFFF; fill-opacity:1.0000; 
stroke:#FFFFFF; stroke-width:0.0000; stroke-opacity:1; 
stroke-linecap:round; stroke-linejoin:round;">
<circle cx="78.7400" cy="93.8600" r="0.1750" /> 
</g>
<g style="fill:#FFFFFF; fill-opacity:1.0000; 
stroke:#FFFFFF; stroke-width:0.0212; stroke-opacity:1; 
stroke-linecap:round; stroke-linejoin:round;">
</g>
<g style="fill:#FFFFFF; fill-opacity:1.0000; 
stroke:#FFFFFF; stroke-width:0.0000; stroke-opacity:1; 
stroke-linecap:round; stroke-linejoin:round;">
<circle cx="81.2400" cy="93.8600" r="0.1750" /> 
</g>
<g style="fill:#FFFFFF; fill-opacity:1.0000; 
stroke:#FFFFFF; stroke-width:0.0212; stroke-opacity:1; 
stroke-linecap:round; stroke-linejoin:round;">
</g>
<g style="fill:#FFFFFF; fill-opacity:1.0000; 
stroke:#FFFFFF; stroke-width:0.0000; stroke-opacity:1; 
stroke-linecap:round; stroke-linejoin:round;">
<circle cx="83.7400" cy="93.8600" r="0.1750" /> 
</g>
<g style="fill:#FFFFFF; fill-opacity:1.0000; 
stroke:#FFFFFF; stroke-width:0.0212; stroke-opacity:1; 
stroke-linecap:round; stroke-linejoin:round;">
</g>
<g style="fill:#FFFFFF; fill-opacity:1.0000; 
stroke:#FFFFFF; stroke-width:1.1000; stroke-opacity:1; 
stroke-linecap:round; stroke-linejoin:round;">
</g>
<g style="fill:#FFFFFF; fill-opacity:0.0; 
stroke:#FFFFFF; stroke-width:1.1000; stroke-opacity:1; 
stroke-linecap:round; stroke-linejoin:round;">
<path d="M55.8800 66.3900
L55.8800 65.6900
" />
<path d="M65.4800 66.3900
L65.4800 65.6900
" />
</g>
<g style="fill:#FFFFFF; fill-opacity:1.0000; 
stroke:#FFFFFF; stroke-width:0.0000; stroke-opacity:1; 
stroke-linecap:round; stroke-linejoin:round;">
<circle cx="58.1800" cy="73.5400" r="0.1750" /> 
</g>
<g style="fill:#FFFFFF; fill-opacity:1.0000; 
stroke:#FFFFFF; stroke-width:0.0212; stroke-opacity:1; 
stroke-linecap:round; stroke-linejoin:round;">
</g>
<g style="fill:#FFFFFF; fill-opacity:1.0000; 
stroke:#FFFFFF; stroke-width:0.0000; stroke-opacity:1; 
stroke-linecap:round; stroke-linejoin:round;">
<circle cx="60.6800" cy="73.5400" r="0.1750" /> 
</g>
<g style="fill:#FFFFFF; fill-opacity:1.0000; 
stroke:#FFFFFF; stroke-width:0.0212; stroke-opacity:1; 
stroke-linecap:round; stroke-linejoin:round;">
</g>
<g style="fill:#FFFFFF; fill-opacity:1.0000; 
stroke:#FFFFFF; stroke-width:0.0000; stroke-opacity:1; 
stroke-linecap:round; stroke-linejoin:round;">
<circle cx="63.1800" cy="73.5400" r="0.1750" /> 
</g>
<g style="fill:#FFFFFF; fill-opacity:1.0000; 
stroke:#FFFFFF; stroke-width:0.0212; stroke-opacity:1; 
stroke-linecap:round; stroke-linejoin:round;">
</g>
<g style="fill:#FFFFFF; fill-opacity:1.0000; 
stroke:#FFFFFF; stroke-width:0.0000; stroke-opacity:1; 
stroke-linecap:round; stroke-linejoin:round;">
<circle cx="74.9600" cy="116.8400" r="0.1750" /> 
</g>
<g style="fill:#FFFFFF; fill-opacity:1.0000; 
stroke:#FFFFFF; stroke-width:0.0212; stroke-opacity:1; 
stroke-linecap:round; stroke-linejoin:round;">
</g>
<g style="fill:#FFFFFF; fill-opacity:1.0000; 
stroke:#FFFFFF; stroke-width:0.0000; stroke-opacity:1; 
stroke-linecap:round; stroke-linejoin:round;">
<circle cx="86.3600" cy="116.8400" r="0.1750" /> 
</g>
<g style="fill:#FFFFFF; fill-opacity:1.0000; 
stroke:#FFFFFF; stroke-width:0.0212; stroke-opacity:1; 
stroke-linecap:round; stroke-linejoin:round;">
</g>
<g style="fill:#FFFFFF; fill-opacity:1.0000; 
stroke:#FFFFFF; stroke-width:0.0000; stroke-opacity:1; 
stroke-linecap:round; stroke-linejoin:round;">
<circle cx="78.0600" cy="116.8400" r="0.1750" /> 
</g>
<g style="fill:#FFFFFF; fill-opacity:1.0000; 
stroke:#FFFFFF; stroke-width:0.0212; stroke-opacity:1; 
stroke-linecap:round; stroke-linejoin:round;">
</g>
<g style="fill:#000000; fill-opacity:1.0000; 
stroke:#000000; stroke-width:0.0212; stroke-opacity:1; 
stroke-linecap:round; stroke-linejoin:round;">
</g> 
</svg>
