<?xml version="1.0" standalone="no"?>
 <!DOCTYPE svg PUBLIC "-//W3C//DTD SVG 1.1//EN" 
 "http://www.w3.org/Graphics/SVG/1.1/DTD/svg11.dtd"> 
<svg
  xmlns:svg="http://www.w3.org/2000/svg"
  xmlns="http://www.w3.org/2000/svg"
  xmlns:xlink="http://www.w3.org/1999/xlink"
  version="1.1"
  width="297.0022mm" height="210.0072mm" viewBox="0.0000 0.0000 297.0022 210.0072">
<title>SVG Image created as mount-F_Fab.svg date 2023/11/05 16:20:22 </title>
  <desc>Image generated by PCBNEW </desc>
<g style="fill:#000000; fill-opacity:1.0000;stroke:#000000; stroke-opacity:1.0000;
stroke-linecap:round; stroke-linejoin:round;"
 transform="translate(0 0) scale(1 1)">
</g>
<g style="fill:#000000; fill-opacity:0.0; 
stroke:#000000; stroke-width:0.0000; stroke-opacity:1; 
stroke-linecap:round; stroke-linejoin:round;">
</g>
<g style="fill:#000000; fill-opacity:0.0; 
stroke:#000000; stroke-width:0.1500; stroke-opacity:1; 
stroke-linecap:round; stroke-linejoin:round;">
<g transform="rotate(-90.000000 59.4800 106.6800)">
<text x="59.4800" y="107.1800"
textLength="6.9643" font-size="1.3333" lengthAdjust="spacingAndGlyphs"
text-anchor="middle" opacity="0">PJ398SM</text>
</g>
<g class="stroked-text"><desc>PJ398SM</desc>
<path d="M59.9348 109.7990
L58.9348 109.7990
" />
<path d="M58.9348 109.7990
L58.9348 109.4181
" />
<path d="M58.9348 109.4181
L58.9824 109.3229
" />
<path d="M58.9824 109.3229
L59.0301 109.2752
" />
<path d="M59.0301 109.2752
L59.1253 109.2276
" />
<path d="M59.1253 109.2276
L59.2682 109.2276
" />
<path d="M59.2682 109.2276
L59.3634 109.2752
" />
<path d="M59.3634 109.2752
L59.4110 109.3229
" />
<path d="M59.4110 109.3229
L59.4586 109.4181
" />
<path d="M59.4586 109.4181
L59.4586 109.7990
" />
<path d="M58.9348 108.5133
L59.6491 108.5133
" />
<path d="M59.6491 108.5133
L59.7920 108.5610
" />
<path d="M59.7920 108.5610
L59.8872 108.6562
" />
<path d="M59.8872 108.6562
L59.9348 108.7990
" />
<path d="M59.9348 108.7990
L59.9348 108.8943
" />
<path d="M58.9348 108.1324
L58.9348 107.5133
" />
<path d="M58.9348 107.5133
L59.3158 107.8467
" />
<path d="M59.3158 107.8467
L59.3158 107.7038
" />
<path d="M59.3158 107.7038
L59.3634 107.6086
" />
<path d="M59.3634 107.6086
L59.4110 107.5610
" />
<path d="M59.4110 107.5610
L59.5062 107.5133
" />
<path d="M59.5062 107.5133
L59.7443 107.5133
" />
<path d="M59.7443 107.5133
L59.8396 107.5610
" />
<path d="M59.8396 107.5610
L59.8872 107.6086
" />
<path d="M59.8872 107.6086
L59.9348 107.7038
" />
<path d="M59.9348 107.7038
L59.9348 107.9895
" />
<path d="M59.9348 107.9895
L59.8872 108.0848
" />
<path d="M59.8872 108.0848
L59.8396 108.1324
" />
<path d="M59.9348 107.0371
L59.9348 106.8467
" />
<path d="M59.9348 106.8467
L59.8872 106.7514
" />
<path d="M59.8872 106.7514
L59.8396 106.7038
" />
<path d="M59.8396 106.7038
L59.6967 106.6086
" />
<path d="M59.6967 106.6086
L59.5062 106.5610
" />
<path d="M59.5062 106.5610
L59.1253 106.5610
" />
<path d="M59.1253 106.5610
L59.0301 106.6086
" />
<path d="M59.0301 106.6086
L58.9824 106.6562
" />
<path d="M58.9824 106.6562
L58.9348 106.7514
" />
<path d="M58.9348 106.7514
L58.9348 106.9419
" />
<path d="M58.9348 106.9419
L58.9824 107.0371
" />
<path d="M58.9824 107.0371
L59.0301 107.0848
" />
<path d="M59.0301 107.0848
L59.1253 107.1324
" />
<path d="M59.1253 107.1324
L59.3634 107.1324
" />
<path d="M59.3634 107.1324
L59.4586 107.0848
" />
<path d="M59.4586 107.0848
L59.5062 107.0371
" />
<path d="M59.5062 107.0371
L59.5539 106.9419
" />
<path d="M59.5539 106.9419
L59.5539 106.7514
" />
<path d="M59.5539 106.7514
L59.5062 106.6562
" />
<path d="M59.5062 106.6562
L59.4586 106.6086
" />
<path d="M59.4586 106.6086
L59.3634 106.5610
" />
<path d="M59.3634 105.9895
L59.3158 106.0848
" />
<path d="M59.3158 106.0848
L59.2682 106.1324
" />
<path d="M59.2682 106.1324
L59.1729 106.1800
" />
<path d="M59.1729 106.1800
L59.1253 106.1800
" />
<path d="M59.1253 106.1800
L59.0301 106.1324
" />
<path d="M59.0301 106.1324
L58.9824 106.0848
" />
<path d="M58.9824 106.0848
L58.9348 105.9895
" />
<path d="M58.9348 105.9895
L58.9348 105.7990
" />
<path d="M58.9348 105.7990
L58.9824 105.7038
" />
<path d="M58.9824 105.7038
L59.0301 105.6562
" />
<path d="M59.0301 105.6562
L59.1253 105.6086
" />
<path d="M59.1253 105.6086
L59.1729 105.6086
" />
<path d="M59.1729 105.6086
L59.2682 105.6562
" />
<path d="M59.2682 105.6562
L59.3158 105.7038
" />
<path d="M59.3158 105.7038
L59.3634 105.7990
" />
<path d="M59.3634 105.7990
L59.3634 105.9895
" />
<path d="M59.3634 105.9895
L59.4110 106.0848
" />
<path d="M59.4110 106.0848
L59.4586 106.1324
" />
<path d="M59.4586 106.1324
L59.5539 106.1800
" />
<path d="M59.5539 106.1800
L59.7443 106.1800
" />
<path d="M59.7443 106.1800
L59.8396 106.1324
" />
<path d="M59.8396 106.1324
L59.8872 106.0848
" />
<path d="M59.8872 106.0848
L59.9348 105.9895
" />
<path d="M59.9348 105.9895
L59.9348 105.7990
" />
<path d="M59.9348 105.7990
L59.8872 105.7038
" />
<path d="M59.8872 105.7038
L59.8396 105.6562
" />
<path d="M59.8396 105.6562
L59.7443 105.6086
" />
<path d="M59.7443 105.6086
L59.5539 105.6086
" />
<path d="M59.5539 105.6086
L59.4586 105.6562
" />
<path d="M59.4586 105.6562
L59.4110 105.7038
" />
<path d="M59.4110 105.7038
L59.3634 105.7990
" />
<path d="M59.8872 105.2276
L59.9348 105.0848
" />
<path d="M59.9348 105.0848
L59.9348 104.8467
" />
<path d="M59.9348 104.8467
L59.8872 104.7514
" />
<path d="M59.8872 104.7514
L59.8396 104.7038
" />
<path d="M59.8396 104.7038
L59.7443 104.6562
" />
<path d="M59.7443 104.6562
L59.6491 104.6562
" />
<path d="M59.6491 104.6562
L59.5539 104.7038
" />
<path d="M59.5539 104.7038
L59.5062 104.7514
" />
<path d="M59.5062 104.7514
L59.4586 104.8467
" />
<path d="M59.4586 104.8467
L59.4110 105.0371
" />
<path d="M59.4110 105.0371
L59.3634 105.1324
" />
<path d="M59.3634 105.1324
L59.3158 105.1800
" />
<path d="M59.3158 105.1800
L59.2205 105.2276
" />
<path d="M59.2205 105.2276
L59.1253 105.2276
" />
<path d="M59.1253 105.2276
L59.0301 105.1800
" />
<path d="M59.0301 105.1800
L58.9824 105.1324
" />
<path d="M58.9824 105.1324
L58.9348 105.0371
" />
<path d="M58.9348 105.0371
L58.9348 104.7990
" />
<path d="M58.9348 104.7990
L58.9824 104.6562
" />
<path d="M59.9348 104.2276
L58.9348 104.2276
" />
<path d="M58.9348 104.2276
L59.6491 103.8943
" />
<path d="M59.6491 103.8943
L58.9348 103.5610
" />
<path d="M58.9348 103.5610
L59.9348 103.5610
" />
</g><g transform="rotate(-90.000000 62.4800 106.6800)">
<text x="62.4800" y="107.1800"
textLength="1.9643" font-size="1.3333" lengthAdjust="spacingAndGlyphs"
text-anchor="middle" opacity="0">J3</text>
</g>
<g class="stroked-text"><desc>J3</desc>
<path d="M61.9348 107.0133
L62.6491 107.0133
" />
<path d="M62.6491 107.0133
L62.7920 107.0610
" />
<path d="M62.7920 107.0610
L62.8872 107.1562
" />
<path d="M62.8872 107.1562
L62.9348 107.2990
" />
<path d="M62.9348 107.2990
L62.9348 107.3943
" />
<path d="M61.9348 106.6324
L61.9348 106.0133
" />
<path d="M61.9348 106.0133
L62.3158 106.3467
" />
<path d="M62.3158 106.3467
L62.3158 106.2038
" />
<path d="M62.3158 106.2038
L62.3634 106.1086
" />
<path d="M62.3634 106.1086
L62.4110 106.0610
" />
<path d="M62.4110 106.0610
L62.5062 106.0133
" />
<path d="M62.5062 106.0133
L62.7443 106.0133
" />
<path d="M62.7443 106.0133
L62.8396 106.0610
" />
<path d="M62.8396 106.0610
L62.8872 106.1086
" />
<path d="M62.8872 106.1086
L62.9348 106.2038
" />
<path d="M62.9348 106.2038
L62.9348 106.4895
" />
<path d="M62.9348 106.4895
L62.8872 106.5848
" />
<path d="M62.8872 106.5848
L62.8396 106.6324
" />
</g><g transform="rotate(-90.000000 88.6000 73.5400)">
<text x="88.6000" y="74.0400"
textLength="2.9643" font-size="1.3333" lengthAdjust="spacingAndGlyphs"
text-anchor="middle" opacity="0">10k</text>
</g>
<g class="stroked-text"><desc>10k</desc>
<path d="M89.0548 74.1352
L89.0548 74.7067
" />
<path d="M89.0548 74.4210
L88.0548 74.4210
" />
<path d="M88.0548 74.4210
L88.1977 74.5162
" />
<path d="M88.1977 74.5162
L88.2929 74.6114
" />
<path d="M88.2929 74.6114
L88.3405 74.7067
" />
<path d="M88.0548 73.5162
L88.0548 73.4210
" />
<path d="M88.0548 73.4210
L88.1024 73.3257
" />
<path d="M88.1024 73.3257
L88.1501 73.2781
" />
<path d="M88.1501 73.2781
L88.2453 73.2305
" />
<path d="M88.2453 73.2305
L88.4358 73.1829
" />
<path d="M88.4358 73.1829
L88.6739 73.1829
" />
<path d="M88.6739 73.1829
L88.8643 73.2305
" />
<path d="M88.8643 73.2305
L88.9596 73.2781
" />
<path d="M88.9596 73.2781
L89.0072 73.3257
" />
<path d="M89.0072 73.3257
L89.0548 73.4210
" />
<path d="M89.0548 73.4210
L89.0548 73.5162
" />
<path d="M89.0548 73.5162
L89.0072 73.6114
" />
<path d="M89.0072 73.6114
L88.9596 73.6590
" />
<path d="M88.9596 73.6590
L88.8643 73.7067
" />
<path d="M88.8643 73.7067
L88.6739 73.7543
" />
<path d="M88.6739 73.7543
L88.4358 73.7543
" />
<path d="M88.4358 73.7543
L88.2453 73.7067
" />
<path d="M88.2453 73.7067
L88.1501 73.6590
" />
<path d="M88.1501 73.6590
L88.1024 73.6114
" />
<path d="M88.1024 73.6114
L88.0548 73.5162
" />
<path d="M89.0548 72.7543
L88.0548 72.7543
" />
<path d="M88.6739 72.6590
L89.0548 72.3733
" />
<path d="M88.3882 72.3733
L88.7691 72.7543
" />
</g><g transform="rotate(-90.000000 81.2800 65.9200)">
<text x="81.2800" y="66.4200"
textLength="3.0595" font-size="1.3333" lengthAdjust="spacingAndGlyphs"
text-anchor="middle" opacity="0">RV2</text>
</g>
<g class="stroked-text"><desc>RV2</desc>
<path d="M81.7348 66.5152
L81.2586 66.8486
" />
<path d="M81.7348 67.0867
L80.7348 67.0867
" />
<path d="M80.7348 67.0867
L80.7348 66.7057
" />
<path d="M80.7348 66.7057
L80.7824 66.6105
" />
<path d="M80.7824 66.6105
L80.8301 66.5629
" />
<path d="M80.8301 66.5629
L80.9253 66.5152
" />
<path d="M80.9253 66.5152
L81.0682 66.5152
" />
<path d="M81.0682 66.5152
L81.1634 66.5629
" />
<path d="M81.1634 66.5629
L81.2110 66.6105
" />
<path d="M81.2110 66.6105
L81.2586 66.7057
" />
<path d="M81.2586 66.7057
L81.2586 67.0867
" />
<path d="M80.7348 66.2295
L81.7348 65.8962
" />
<path d="M81.7348 65.8962
L80.7348 65.5629
" />
<path d="M80.8301 65.2771
L80.7824 65.2295
" />
<path d="M80.7824 65.2295
L80.7348 65.1343
" />
<path d="M80.7348 65.1343
L80.7348 64.8962
" />
<path d="M80.7348 64.8962
L80.7824 64.8010
" />
<path d="M80.7824 64.8010
L80.8301 64.7533
" />
<path d="M80.8301 64.7533
L80.9253 64.7057
" />
<path d="M80.9253 64.7057
L81.0205 64.7057
" />
<path d="M81.0205 64.7057
L81.1634 64.7533
" />
<path d="M81.1634 64.7533
L81.7348 65.3248
" />
<path d="M81.7348 65.3248
L81.7348 64.7057
" />
</g><g transform="rotate(-90.000000 68.2800 93.8600)">
<text x="68.2800" y="94.3600"
textLength="2.9643" font-size="1.3333" lengthAdjust="spacingAndGlyphs"
text-anchor="middle" opacity="0">10k</text>
</g>
<g class="stroked-text"><desc>10k</desc>
<path d="M68.7348 94.4552
L68.7348 95.0267
" />
<path d="M68.7348 94.7410
L67.7348 94.7410
" />
<path d="M67.7348 94.7410
L67.8777 94.8362
" />
<path d="M67.8777 94.8362
L67.9729 94.9314
" />
<path d="M67.9729 94.9314
L68.0205 95.0267
" />
<path d="M67.7348 93.8362
L67.7348 93.7410
" />
<path d="M67.7348 93.7410
L67.7824 93.6457
" />
<path d="M67.7824 93.6457
L67.8301 93.5981
" />
<path d="M67.8301 93.5981
L67.9253 93.5505
" />
<path d="M67.9253 93.5505
L68.1158 93.5029
" />
<path d="M68.1158 93.5029
L68.3539 93.5029
" />
<path d="M68.3539 93.5029
L68.5443 93.5505
" />
<path d="M68.5443 93.5505
L68.6396 93.5981
" />
<path d="M68.6396 93.5981
L68.6872 93.6457
" />
<path d="M68.6872 93.6457
L68.7348 93.7410
" />
<path d="M68.7348 93.7410
L68.7348 93.8362
" />
<path d="M68.7348 93.8362
L68.6872 93.9314
" />
<path d="M68.6872 93.9314
L68.6396 93.9790
" />
<path d="M68.6396 93.9790
L68.5443 94.0267
" />
<path d="M68.5443 94.0267
L68.3539 94.0743
" />
<path d="M68.3539 94.0743
L68.1158 94.0743
" />
<path d="M68.1158 94.0743
L67.9253 94.0267
" />
<path d="M67.9253 94.0267
L67.8301 93.9790
" />
<path d="M67.8301 93.9790
L67.7824 93.9314
" />
<path d="M67.7824 93.9314
L67.7348 93.8362
" />
<path d="M68.7348 93.0743
L67.7348 93.0743
" />
<path d="M68.3539 92.9790
L68.7348 92.6933
" />
<path d="M68.0682 92.6933
L68.4491 93.0743
" />
</g><g transform="rotate(-90.000000 60.9600 86.2400)">
<text x="60.9600" y="86.7400"
textLength="3.0595" font-size="1.3333" lengthAdjust="spacingAndGlyphs"
text-anchor="middle" opacity="0">RV3</text>
</g>
<g class="stroked-text"><desc>RV3</desc>
<path d="M61.4148 86.8352
L60.9386 87.1686
" />
<path d="M61.4148 87.4067
L60.4148 87.4067
" />
<path d="M60.4148 87.4067
L60.4148 87.0257
" />
<path d="M60.4148 87.0257
L60.4624 86.9305
" />
<path d="M60.4624 86.9305
L60.5101 86.8829
" />
<path d="M60.5101 86.8829
L60.6053 86.8352
" />
<path d="M60.6053 86.8352
L60.7482 86.8352
" />
<path d="M60.7482 86.8352
L60.8434 86.8829
" />
<path d="M60.8434 86.8829
L60.8910 86.9305
" />
<path d="M60.8910 86.9305
L60.9386 87.0257
" />
<path d="M60.9386 87.0257
L60.9386 87.4067
" />
<path d="M60.4148 86.5495
L61.4148 86.2162
" />
<path d="M61.4148 86.2162
L60.4148 85.8829
" />
<path d="M60.4148 85.6448
L60.4148 85.0257
" />
<path d="M60.4148 85.0257
L60.7958 85.3590
" />
<path d="M60.7958 85.3590
L60.7958 85.2162
" />
<path d="M60.7958 85.2162
L60.8434 85.1210
" />
<path d="M60.8434 85.1210
L60.8910 85.0733
" />
<path d="M60.8910 85.0733
L60.9862 85.0257
" />
<path d="M60.9862 85.0257
L61.2243 85.0257
" />
<path d="M61.2243 85.0257
L61.3196 85.0733
" />
<path d="M61.3196 85.0733
L61.3672 85.1210
" />
<path d="M61.3672 85.1210
L61.4148 85.2162
" />
<path d="M61.4148 85.2162
L61.4148 85.5019
" />
<path d="M61.4148 85.5019
L61.3672 85.5971
" />
<path d="M61.3672 85.5971
L61.3196 85.6448
" />
</g><g transform="rotate(-90.000000 79.8000 106.6800)">
<text x="79.8000" y="107.1800"
textLength="6.9643" font-size="1.3333" lengthAdjust="spacingAndGlyphs"
text-anchor="middle" opacity="0">PJ398SM</text>
</g>
<g class="stroked-text"><desc>PJ398SM</desc>
<path d="M80.2548 109.7990
L79.2548 109.7990
" />
<path d="M79.2548 109.7990
L79.2548 109.4181
" />
<path d="M79.2548 109.4181
L79.3024 109.3229
" />
<path d="M79.3024 109.3229
L79.3501 109.2752
" />
<path d="M79.3501 109.2752
L79.4453 109.2276
" />
<path d="M79.4453 109.2276
L79.5882 109.2276
" />
<path d="M79.5882 109.2276
L79.6834 109.2752
" />
<path d="M79.6834 109.2752
L79.7310 109.3229
" />
<path d="M79.7310 109.3229
L79.7786 109.4181
" />
<path d="M79.7786 109.4181
L79.7786 109.7990
" />
<path d="M79.2548 108.5133
L79.9691 108.5133
" />
<path d="M79.9691 108.5133
L80.1120 108.5610
" />
<path d="M80.1120 108.5610
L80.2072 108.6562
" />
<path d="M80.2072 108.6562
L80.2548 108.7990
" />
<path d="M80.2548 108.7990
L80.2548 108.8943
" />
<path d="M79.2548 108.1324
L79.2548 107.5133
" />
<path d="M79.2548 107.5133
L79.6358 107.8467
" />
<path d="M79.6358 107.8467
L79.6358 107.7038
" />
<path d="M79.6358 107.7038
L79.6834 107.6086
" />
<path d="M79.6834 107.6086
L79.7310 107.5610
" />
<path d="M79.7310 107.5610
L79.8262 107.5133
" />
<path d="M79.8262 107.5133
L80.0643 107.5133
" />
<path d="M80.0643 107.5133
L80.1596 107.5610
" />
<path d="M80.1596 107.5610
L80.2072 107.6086
" />
<path d="M80.2072 107.6086
L80.2548 107.7038
" />
<path d="M80.2548 107.7038
L80.2548 107.9895
" />
<path d="M80.2548 107.9895
L80.2072 108.0848
" />
<path d="M80.2072 108.0848
L80.1596 108.1324
" />
<path d="M80.2548 107.0371
L80.2548 106.8467
" />
<path d="M80.2548 106.8467
L80.2072 106.7514
" />
<path d="M80.2072 106.7514
L80.1596 106.7038
" />
<path d="M80.1596 106.7038
L80.0167 106.6086
" />
<path d="M80.0167 106.6086
L79.8262 106.5610
" />
<path d="M79.8262 106.5610
L79.4453 106.5610
" />
<path d="M79.4453 106.5610
L79.3501 106.6086
" />
<path d="M79.3501 106.6086
L79.3024 106.6562
" />
<path d="M79.3024 106.6562
L79.2548 106.7514
" />
<path d="M79.2548 106.7514
L79.2548 106.9419
" />
<path d="M79.2548 106.9419
L79.3024 107.0371
" />
<path d="M79.3024 107.0371
L79.3501 107.0848
" />
<path d="M79.3501 107.0848
L79.4453 107.1324
" />
<path d="M79.4453 107.1324
L79.6834 107.1324
" />
<path d="M79.6834 107.1324
L79.7786 107.0848
" />
<path d="M79.7786 107.0848
L79.8262 107.0371
" />
<path d="M79.8262 107.0371
L79.8739 106.9419
" />
<path d="M79.8739 106.9419
L79.8739 106.7514
" />
<path d="M79.8739 106.7514
L79.8262 106.6562
" />
<path d="M79.8262 106.6562
L79.7786 106.6086
" />
<path d="M79.7786 106.6086
L79.6834 106.5610
" />
<path d="M79.6834 105.9895
L79.6358 106.0848
" />
<path d="M79.6358 106.0848
L79.5882 106.1324
" />
<path d="M79.5882 106.1324
L79.4929 106.1800
" />
<path d="M79.4929 106.1800
L79.4453 106.1800
" />
<path d="M79.4453 106.1800
L79.3501 106.1324
" />
<path d="M79.3501 106.1324
L79.3024 106.0848
" />
<path d="M79.3024 106.0848
L79.2548 105.9895
" />
<path d="M79.2548 105.9895
L79.2548 105.7990
" />
<path d="M79.2548 105.7990
L79.3024 105.7038
" />
<path d="M79.3024 105.7038
L79.3501 105.6562
" />
<path d="M79.3501 105.6562
L79.4453 105.6086
" />
<path d="M79.4453 105.6086
L79.4929 105.6086
" />
<path d="M79.4929 105.6086
L79.5882 105.6562
" />
<path d="M79.5882 105.6562
L79.6358 105.7038
" />
<path d="M79.6358 105.7038
L79.6834 105.7990
" />
<path d="M79.6834 105.7990
L79.6834 105.9895
" />
<path d="M79.6834 105.9895
L79.7310 106.0848
" />
<path d="M79.7310 106.0848
L79.7786 106.1324
" />
<path d="M79.7786 106.1324
L79.8739 106.1800
" />
<path d="M79.8739 106.1800
L80.0643 106.1800
" />
<path d="M80.0643 106.1800
L80.1596 106.1324
" />
<path d="M80.1596 106.1324
L80.2072 106.0848
" />
<path d="M80.2072 106.0848
L80.2548 105.9895
" />
<path d="M80.2548 105.9895
L80.2548 105.7990
" />
<path d="M80.2548 105.7990
L80.2072 105.7038
" />
<path d="M80.2072 105.7038
L80.1596 105.6562
" />
<path d="M80.1596 105.6562
L80.0643 105.6086
" />
<path d="M80.0643 105.6086
L79.8739 105.6086
" />
<path d="M79.8739 105.6086
L79.7786 105.6562
" />
<path d="M79.7786 105.6562
L79.7310 105.7038
" />
<path d="M79.7310 105.7038
L79.6834 105.7990
" />
<path d="M80.2072 105.2276
L80.2548 105.0848
" />
<path d="M80.2548 105.0848
L80.2548 104.8467
" />
<path d="M80.2548 104.8467
L80.2072 104.7514
" />
<path d="M80.2072 104.7514
L80.1596 104.7038
" />
<path d="M80.1596 104.7038
L80.0643 104.6562
" />
<path d="M80.0643 104.6562
L79.9691 104.6562
" />
<path d="M79.9691 104.6562
L79.8739 104.7038
" />
<path d="M79.8739 104.7038
L79.8262 104.7514
" />
<path d="M79.8262 104.7514
L79.7786 104.8467
" />
<path d="M79.7786 104.8467
L79.7310 105.0371
" />
<path d="M79.7310 105.0371
L79.6834 105.1324
" />
<path d="M79.6834 105.1324
L79.6358 105.1800
" />
<path d="M79.6358 105.1800
L79.5405 105.2276
" />
<path d="M79.5405 105.2276
L79.4453 105.2276
" />
<path d="M79.4453 105.2276
L79.3501 105.1800
" />
<path d="M79.3501 105.1800
L79.3024 105.1324
" />
<path d="M79.3024 105.1324
L79.2548 105.0371
" />
<path d="M79.2548 105.0371
L79.2548 104.7990
" />
<path d="M79.2548 104.7990
L79.3024 104.6562
" />
<path d="M80.2548 104.2276
L79.2548 104.2276
" />
<path d="M79.2548 104.2276
L79.9691 103.8943
" />
<path d="M79.9691 103.8943
L79.2548 103.5610
" />
<path d="M79.2548 103.5610
L80.2548 103.5610
" />
</g><g transform="rotate(-90.000000 82.8000 106.6800)">
<text x="82.8000" y="107.1800"
textLength="1.9643" font-size="1.3333" lengthAdjust="spacingAndGlyphs"
text-anchor="middle" opacity="0">J4</text>
</g>
<g class="stroked-text"><desc>J4</desc>
<path d="M82.2548 107.0133
L82.9691 107.0133
" />
<path d="M82.9691 107.0133
L83.1120 107.0610
" />
<path d="M83.1120 107.0610
L83.2072 107.1562
" />
<path d="M83.2072 107.1562
L83.2548 107.2990
" />
<path d="M83.2548 107.2990
L83.2548 107.3943
" />
<path d="M82.5882 106.1086
L83.2548 106.1086
" />
<path d="M82.2072 106.3467
L82.9215 106.5848
" />
<path d="M82.9215 106.5848
L82.9215 105.9657
" />
</g><text x="60.9600" y="146.3400"
textLength="6.9643" font-size="1.3333" lengthAdjust="spacingAndGlyphs"
text-anchor="middle" opacity="0">PJ398SM</text>
<g class="stroked-text"><desc>PJ398SM</desc>
<path d="M57.8410 146.2948
L57.8410 145.2948
" />
<path d="M57.8410 145.2948
L58.2219 145.2948
" />
<path d="M58.2219 145.2948
L58.3171 145.3424
" />
<path d="M58.3171 145.3424
L58.3648 145.3901
" />
<path d="M58.3648 145.3901
L58.4124 145.4853
" />
<path d="M58.4124 145.4853
L58.4124 145.6282
" />
<path d="M58.4124 145.6282
L58.3648 145.7234
" />
<path d="M58.3648 145.7234
L58.3171 145.7710
" />
<path d="M58.3171 145.7710
L58.2219 145.8186
" />
<path d="M58.2219 145.8186
L57.8410 145.8186
" />
<path d="M59.1267 145.2948
L59.1267 146.0091
" />
<path d="M59.1267 146.0091
L59.0790 146.1520
" />
<path d="M59.0790 146.1520
L58.9838 146.2472
" />
<path d="M58.9838 146.2472
L58.8410 146.2948
" />
<path d="M58.8410 146.2948
L58.7457 146.2948
" />
<path d="M59.5076 145.2948
L60.1267 145.2948
" />
<path d="M60.1267 145.2948
L59.7933 145.6758
" />
<path d="M59.7933 145.6758
L59.9362 145.6758
" />
<path d="M59.9362 145.6758
L60.0314 145.7234
" />
<path d="M60.0314 145.7234
L60.0790 145.7710
" />
<path d="M60.0790 145.7710
L60.1267 145.8662
" />
<path d="M60.1267 145.8662
L60.1267 146.1043
" />
<path d="M60.1267 146.1043
L60.0790 146.1996
" />
<path d="M60.0790 146.1996
L60.0314 146.2472
" />
<path d="M60.0314 146.2472
L59.9362 146.2948
" />
<path d="M59.9362 146.2948
L59.6505 146.2948
" />
<path d="M59.6505 146.2948
L59.5552 146.2472
" />
<path d="M59.5552 146.2472
L59.5076 146.1996
" />
<path d="M60.6029 146.2948
L60.7933 146.2948
" />
<path d="M60.7933 146.2948
L60.8886 146.2472
" />
<path d="M60.8886 146.2472
L60.9362 146.1996
" />
<path d="M60.9362 146.1996
L61.0314 146.0567
" />
<path d="M61.0314 146.0567
L61.0790 145.8662
" />
<path d="M61.0790 145.8662
L61.0790 145.4853
" />
<path d="M61.0790 145.4853
L61.0314 145.3901
" />
<path d="M61.0314 145.3901
L60.9838 145.3424
" />
<path d="M60.9838 145.3424
L60.8886 145.2948
" />
<path d="M60.8886 145.2948
L60.6981 145.2948
" />
<path d="M60.6981 145.2948
L60.6029 145.3424
" />
<path d="M60.6029 145.3424
L60.5552 145.3901
" />
<path d="M60.5552 145.3901
L60.5076 145.4853
" />
<path d="M60.5076 145.4853
L60.5076 145.7234
" />
<path d="M60.5076 145.7234
L60.5552 145.8186
" />
<path d="M60.5552 145.8186
L60.6029 145.8662
" />
<path d="M60.6029 145.8662
L60.6981 145.9139
" />
<path d="M60.6981 145.9139
L60.8886 145.9139
" />
<path d="M60.8886 145.9139
L60.9838 145.8662
" />
<path d="M60.9838 145.8662
L61.0314 145.8186
" />
<path d="M61.0314 145.8186
L61.0790 145.7234
" />
<path d="M61.6505 145.7234
L61.5552 145.6758
" />
<path d="M61.5552 145.6758
L61.5076 145.6282
" />
<path d="M61.5076 145.6282
L61.4600 145.5329
" />
<path d="M61.4600 145.5329
L61.4600 145.4853
" />
<path d="M61.4600 145.4853
L61.5076 145.3901
" />
<path d="M61.5076 145.3901
L61.5552 145.3424
" />
<path d="M61.5552 145.3424
L61.6505 145.2948
" />
<path d="M61.6505 145.2948
L61.8410 145.2948
" />
<path d="M61.8410 145.2948
L61.9362 145.3424
" />
<path d="M61.9362 145.3424
L61.9838 145.3901
" />
<path d="M61.9838 145.3901
L62.0314 145.4853
" />
<path d="M62.0314 145.4853
L62.0314 145.5329
" />
<path d="M62.0314 145.5329
L61.9838 145.6282
" />
<path d="M61.9838 145.6282
L61.9362 145.6758
" />
<path d="M61.9362 145.6758
L61.8410 145.7234
" />
<path d="M61.8410 145.7234
L61.6505 145.7234
" />
<path d="M61.6505 145.7234
L61.5552 145.7710
" />
<path d="M61.5552 145.7710
L61.5076 145.8186
" />
<path d="M61.5076 145.8186
L61.4600 145.9139
" />
<path d="M61.4600 145.9139
L61.4600 146.1043
" />
<path d="M61.4600 146.1043
L61.5076 146.1996
" />
<path d="M61.5076 146.1996
L61.5552 146.2472
" />
<path d="M61.5552 146.2472
L61.6505 146.2948
" />
<path d="M61.6505 146.2948
L61.8410 146.2948
" />
<path d="M61.8410 146.2948
L61.9362 146.2472
" />
<path d="M61.9362 146.2472
L61.9838 146.1996
" />
<path d="M61.9838 146.1996
L62.0314 146.1043
" />
<path d="M62.0314 146.1043
L62.0314 145.9139
" />
<path d="M62.0314 145.9139
L61.9838 145.8186
" />
<path d="M61.9838 145.8186
L61.9362 145.7710
" />
<path d="M61.9362 145.7710
L61.8410 145.7234
" />
<path d="M62.4124 146.2472
L62.5552 146.2948
" />
<path d="M62.5552 146.2948
L62.7933 146.2948
" />
<path d="M62.7933 146.2948
L62.8886 146.2472
" />
<path d="M62.8886 146.2472
L62.9362 146.1996
" />
<path d="M62.9362 146.1996
L62.9838 146.1043
" />
<path d="M62.9838 146.1043
L62.9838 146.0091
" />
<path d="M62.9838 146.0091
L62.9362 145.9139
" />
<path d="M62.9362 145.9139
L62.8886 145.8662
" />
<path d="M62.8886 145.8662
L62.7933 145.8186
" />
<path d="M62.7933 145.8186
L62.6029 145.7710
" />
<path d="M62.6029 145.7710
L62.5076 145.7234
" />
<path d="M62.5076 145.7234
L62.4600 145.6758
" />
<path d="M62.4600 145.6758
L62.4124 145.5805
" />
<path d="M62.4124 145.5805
L62.4124 145.4853
" />
<path d="M62.4124 145.4853
L62.4600 145.3901
" />
<path d="M62.4600 145.3901
L62.5076 145.3424
" />
<path d="M62.5076 145.3424
L62.6029 145.2948
" />
<path d="M62.6029 145.2948
L62.8410 145.2948
" />
<path d="M62.8410 145.2948
L62.9838 145.3424
" />
<path d="M63.4124 146.2948
L63.4124 145.2948
" />
<path d="M63.4124 145.2948
L63.7457 146.0091
" />
<path d="M63.7457 146.0091
L64.0790 145.2948
" />
<path d="M64.0790 145.2948
L64.0790 146.2948
" />
</g><text x="60.9600" y="149.3400"
textLength="1.9643" font-size="1.3333" lengthAdjust="spacingAndGlyphs"
text-anchor="middle" opacity="0">J1</text>
<g class="stroked-text"><desc>J1</desc>
<path d="M60.6267 148.2948
L60.6267 149.0091
" />
<path d="M60.6267 149.0091
L60.5790 149.1520
" />
<path d="M60.5790 149.1520
L60.4838 149.2472
" />
<path d="M60.4838 149.2472
L60.3410 149.2948
" />
<path d="M60.3410 149.2948
L60.2457 149.2948
" />
<path d="M61.6267 149.2948
L61.0552 149.2948
" />
<path d="M61.3410 149.2948
L61.3410 148.2948
" />
<path d="M61.3410 148.2948
L61.2457 148.4377
" />
<path d="M61.2457 148.4377
L61.1505 148.5329
" />
<path d="M61.1505 148.5329
L61.0552 148.5805
" />
</g><g transform="rotate(-90.000000 59.4800 116.8400)">
<text x="59.4800" y="117.3400"
textLength="6.9643" font-size="1.3333" lengthAdjust="spacingAndGlyphs"
text-anchor="middle" opacity="0">PJ398SM</text>
</g>
<g class="stroked-text"><desc>PJ398SM</desc>
<path d="M59.9348 119.9590
L58.9348 119.9590
" />
<path d="M58.9348 119.9590
L58.9348 119.5781
" />
<path d="M58.9348 119.5781
L58.9824 119.4829
" />
<path d="M58.9824 119.4829
L59.0301 119.4352
" />
<path d="M59.0301 119.4352
L59.1253 119.3876
" />
<path d="M59.1253 119.3876
L59.2682 119.3876
" />
<path d="M59.2682 119.3876
L59.3634 119.4352
" />
<path d="M59.3634 119.4352
L59.4110 119.4829
" />
<path d="M59.4110 119.4829
L59.4586 119.5781
" />
<path d="M59.4586 119.5781
L59.4586 119.9590
" />
<path d="M58.9348 118.6733
L59.6491 118.6733
" />
<path d="M59.6491 118.6733
L59.7920 118.7210
" />
<path d="M59.7920 118.7210
L59.8872 118.8162
" />
<path d="M59.8872 118.8162
L59.9348 118.9590
" />
<path d="M59.9348 118.9590
L59.9348 119.0543
" />
<path d="M58.9348 118.2924
L58.9348 117.6733
" />
<path d="M58.9348 117.6733
L59.3158 118.0067
" />
<path d="M59.3158 118.0067
L59.3158 117.8638
" />
<path d="M59.3158 117.8638
L59.3634 117.7686
" />
<path d="M59.3634 117.7686
L59.4110 117.7210
" />
<path d="M59.4110 117.7210
L59.5062 117.6733
" />
<path d="M59.5062 117.6733
L59.7443 117.6733
" />
<path d="M59.7443 117.6733
L59.8396 117.7210
" />
<path d="M59.8396 117.7210
L59.8872 117.7686
" />
<path d="M59.8872 117.7686
L59.9348 117.8638
" />
<path d="M59.9348 117.8638
L59.9348 118.1495
" />
<path d="M59.9348 118.1495
L59.8872 118.2448
" />
<path d="M59.8872 118.2448
L59.8396 118.2924
" />
<path d="M59.9348 117.1971
L59.9348 117.0067
" />
<path d="M59.9348 117.0067
L59.8872 116.9114
" />
<path d="M59.8872 116.9114
L59.8396 116.8638
" />
<path d="M59.8396 116.8638
L59.6967 116.7686
" />
<path d="M59.6967 116.7686
L59.5062 116.7210
" />
<path d="M59.5062 116.7210
L59.1253 116.7210
" />
<path d="M59.1253 116.7210
L59.0301 116.7686
" />
<path d="M59.0301 116.7686
L58.9824 116.8162
" />
<path d="M58.9824 116.8162
L58.9348 116.9114
" />
<path d="M58.9348 116.9114
L58.9348 117.1019
" />
<path d="M58.9348 117.1019
L58.9824 117.1971
" />
<path d="M58.9824 117.1971
L59.0301 117.2448
" />
<path d="M59.0301 117.2448
L59.1253 117.2924
" />
<path d="M59.1253 117.2924
L59.3634 117.2924
" />
<path d="M59.3634 117.2924
L59.4586 117.2448
" />
<path d="M59.4586 117.2448
L59.5062 117.1971
" />
<path d="M59.5062 117.1971
L59.5539 117.1019
" />
<path d="M59.5539 117.1019
L59.5539 116.9114
" />
<path d="M59.5539 116.9114
L59.5062 116.8162
" />
<path d="M59.5062 116.8162
L59.4586 116.7686
" />
<path d="M59.4586 116.7686
L59.3634 116.7210
" />
<path d="M59.3634 116.1495
L59.3158 116.2448
" />
<path d="M59.3158 116.2448
L59.2682 116.2924
" />
<path d="M59.2682 116.2924
L59.1729 116.3400
" />
<path d="M59.1729 116.3400
L59.1253 116.3400
" />
<path d="M59.1253 116.3400
L59.0301 116.2924
" />
<path d="M59.0301 116.2924
L58.9824 116.2448
" />
<path d="M58.9824 116.2448
L58.9348 116.1495
" />
<path d="M58.9348 116.1495
L58.9348 115.9590
" />
<path d="M58.9348 115.9590
L58.9824 115.8638
" />
<path d="M58.9824 115.8638
L59.0301 115.8162
" />
<path d="M59.0301 115.8162
L59.1253 115.7686
" />
<path d="M59.1253 115.7686
L59.1729 115.7686
" />
<path d="M59.1729 115.7686
L59.2682 115.8162
" />
<path d="M59.2682 115.8162
L59.3158 115.8638
" />
<path d="M59.3158 115.8638
L59.3634 115.9590
" />
<path d="M59.3634 115.9590
L59.3634 116.1495
" />
<path d="M59.3634 116.1495
L59.4110 116.2448
" />
<path d="M59.4110 116.2448
L59.4586 116.2924
" />
<path d="M59.4586 116.2924
L59.5539 116.3400
" />
<path d="M59.5539 116.3400
L59.7443 116.3400
" />
<path d="M59.7443 116.3400
L59.8396 116.2924
" />
<path d="M59.8396 116.2924
L59.8872 116.2448
" />
<path d="M59.8872 116.2448
L59.9348 116.1495
" />
<path d="M59.9348 116.1495
L59.9348 115.9590
" />
<path d="M59.9348 115.9590
L59.8872 115.8638
" />
<path d="M59.8872 115.8638
L59.8396 115.8162
" />
<path d="M59.8396 115.8162
L59.7443 115.7686
" />
<path d="M59.7443 115.7686
L59.5539 115.7686
" />
<path d="M59.5539 115.7686
L59.4586 115.8162
" />
<path d="M59.4586 115.8162
L59.4110 115.8638
" />
<path d="M59.4110 115.8638
L59.3634 115.9590
" />
<path d="M59.8872 115.3876
L59.9348 115.2448
" />
<path d="M59.9348 115.2448
L59.9348 115.0067
" />
<path d="M59.9348 115.0067
L59.8872 114.9114
" />
<path d="M59.8872 114.9114
L59.8396 114.8638
" />
<path d="M59.8396 114.8638
L59.7443 114.8162
" />
<path d="M59.7443 114.8162
L59.6491 114.8162
" />
<path d="M59.6491 114.8162
L59.5539 114.8638
" />
<path d="M59.5539 114.8638
L59.5062 114.9114
" />
<path d="M59.5062 114.9114
L59.4586 115.0067
" />
<path d="M59.4586 115.0067
L59.4110 115.1971
" />
<path d="M59.4110 115.1971
L59.3634 115.2924
" />
<path d="M59.3634 115.2924
L59.3158 115.3400
" />
<path d="M59.3158 115.3400
L59.2205 115.3876
" />
<path d="M59.2205 115.3876
L59.1253 115.3876
" />
<path d="M59.1253 115.3876
L59.0301 115.3400
" />
<path d="M59.0301 115.3400
L58.9824 115.2924
" />
<path d="M58.9824 115.2924
L58.9348 115.1971
" />
<path d="M58.9348 115.1971
L58.9348 114.9590
" />
<path d="M58.9348 114.9590
L58.9824 114.8162
" />
<path d="M59.9348 114.3876
L58.9348 114.3876
" />
<path d="M58.9348 114.3876
L59.6491 114.0543
" />
<path d="M59.6491 114.0543
L58.9348 113.7210
" />
<path d="M58.9348 113.7210
L59.9348 113.7210
" />
</g><g transform="rotate(-90.000000 62.4800 116.8400)">
<text x="62.4800" y="117.3400"
textLength="1.9643" font-size="1.3333" lengthAdjust="spacingAndGlyphs"
text-anchor="middle" opacity="0">J5</text>
</g>
<g class="stroked-text"><desc>J5</desc>
<path d="M61.9348 117.1733
L62.6491 117.1733
" />
<path d="M62.6491 117.1733
L62.7920 117.2210
" />
<path d="M62.7920 117.2210
L62.8872 117.3162
" />
<path d="M62.8872 117.3162
L62.9348 117.4590
" />
<path d="M62.9348 117.4590
L62.9348 117.5543
" />
<path d="M61.9348 116.2210
L61.9348 116.6971
" />
<path d="M61.9348 116.6971
L62.4110 116.7448
" />
<path d="M62.4110 116.7448
L62.3634 116.6971
" />
<path d="M62.3634 116.6971
L62.3158 116.6019
" />
<path d="M62.3158 116.6019
L62.3158 116.3638
" />
<path d="M62.3158 116.3638
L62.3634 116.2686
" />
<path d="M62.3634 116.2686
L62.4110 116.2210
" />
<path d="M62.4110 116.2210
L62.5062 116.1733
" />
<path d="M62.5062 116.1733
L62.7443 116.1733
" />
<path d="M62.7443 116.1733
L62.8396 116.2210
" />
<path d="M62.8396 116.2210
L62.8872 116.2686
" />
<path d="M62.8872 116.2686
L62.9348 116.3638
" />
<path d="M62.9348 116.3638
L62.9348 116.6019
" />
<path d="M62.9348 116.6019
L62.8872 116.6971
" />
<path d="M62.8872 116.6971
L62.8396 116.7448
" />
</g><text x="81.2800" y="146.3400"
textLength="6.9643" font-size="1.3333" lengthAdjust="spacingAndGlyphs"
text-anchor="middle" opacity="0">PJ398SM</text>
<g class="stroked-text"><desc>PJ398SM</desc>
<path d="M78.1610 146.2948
L78.1610 145.2948
" />
<path d="M78.1610 145.2948
L78.5419 145.2948
" />
<path d="M78.5419 145.2948
L78.6371 145.3424
" />
<path d="M78.6371 145.3424
L78.6848 145.3901
" />
<path d="M78.6848 145.3901
L78.7324 145.4853
" />
<path d="M78.7324 145.4853
L78.7324 145.6282
" />
<path d="M78.7324 145.6282
L78.6848 145.7234
" />
<path d="M78.6848 145.7234
L78.6371 145.7710
" />
<path d="M78.6371 145.7710
L78.5419 145.8186
" />
<path d="M78.5419 145.8186
L78.1610 145.8186
" />
<path d="M79.4467 145.2948
L79.4467 146.0091
" />
<path d="M79.4467 146.0091
L79.3990 146.1520
" />
<path d="M79.3990 146.1520
L79.3038 146.2472
" />
<path d="M79.3038 146.2472
L79.1610 146.2948
" />
<path d="M79.1610 146.2948
L79.0657 146.2948
" />
<path d="M79.8276 145.2948
L80.4467 145.2948
" />
<path d="M80.4467 145.2948
L80.1133 145.6758
" />
<path d="M80.1133 145.6758
L80.2562 145.6758
" />
<path d="M80.2562 145.6758
L80.3514 145.7234
" />
<path d="M80.3514 145.7234
L80.3990 145.7710
" />
<path d="M80.3990 145.7710
L80.4467 145.8662
" />
<path d="M80.4467 145.8662
L80.4467 146.1043
" />
<path d="M80.4467 146.1043
L80.3990 146.1996
" />
<path d="M80.3990 146.1996
L80.3514 146.2472
" />
<path d="M80.3514 146.2472
L80.2562 146.2948
" />
<path d="M80.2562 146.2948
L79.9705 146.2948
" />
<path d="M79.9705 146.2948
L79.8752 146.2472
" />
<path d="M79.8752 146.2472
L79.8276 146.1996
" />
<path d="M80.9229 146.2948
L81.1133 146.2948
" />
<path d="M81.1133 146.2948
L81.2086 146.2472
" />
<path d="M81.2086 146.2472
L81.2562 146.1996
" />
<path d="M81.2562 146.1996
L81.3514 146.0567
" />
<path d="M81.3514 146.0567
L81.3990 145.8662
" />
<path d="M81.3990 145.8662
L81.3990 145.4853
" />
<path d="M81.3990 145.4853
L81.3514 145.3901
" />
<path d="M81.3514 145.3901
L81.3038 145.3424
" />
<path d="M81.3038 145.3424
L81.2086 145.2948
" />
<path d="M81.2086 145.2948
L81.0181 145.2948
" />
<path d="M81.0181 145.2948
L80.9229 145.3424
" />
<path d="M80.9229 145.3424
L80.8752 145.3901
" />
<path d="M80.8752 145.3901
L80.8276 145.4853
" />
<path d="M80.8276 145.4853
L80.8276 145.7234
" />
<path d="M80.8276 145.7234
L80.8752 145.8186
" />
<path d="M80.8752 145.8186
L80.9229 145.8662
" />
<path d="M80.9229 145.8662
L81.0181 145.9139
" />
<path d="M81.0181 145.9139
L81.2086 145.9139
" />
<path d="M81.2086 145.9139
L81.3038 145.8662
" />
<path d="M81.3038 145.8662
L81.3514 145.8186
" />
<path d="M81.3514 145.8186
L81.3990 145.7234
" />
<path d="M81.9705 145.7234
L81.8752 145.6758
" />
<path d="M81.8752 145.6758
L81.8276 145.6282
" />
<path d="M81.8276 145.6282
L81.7800 145.5329
" />
<path d="M81.7800 145.5329
L81.7800 145.4853
" />
<path d="M81.7800 145.4853
L81.8276 145.3901
" />
<path d="M81.8276 145.3901
L81.8752 145.3424
" />
<path d="M81.8752 145.3424
L81.9705 145.2948
" />
<path d="M81.9705 145.2948
L82.1610 145.2948
" />
<path d="M82.1610 145.2948
L82.2562 145.3424
" />
<path d="M82.2562 145.3424
L82.3038 145.3901
" />
<path d="M82.3038 145.3901
L82.3514 145.4853
" />
<path d="M82.3514 145.4853
L82.3514 145.5329
" />
<path d="M82.3514 145.5329
L82.3038 145.6282
" />
<path d="M82.3038 145.6282
L82.2562 145.6758
" />
<path d="M82.2562 145.6758
L82.1610 145.7234
" />
<path d="M82.1610 145.7234
L81.9705 145.7234
" />
<path d="M81.9705 145.7234
L81.8752 145.7710
" />
<path d="M81.8752 145.7710
L81.8276 145.8186
" />
<path d="M81.8276 145.8186
L81.7800 145.9139
" />
<path d="M81.7800 145.9139
L81.7800 146.1043
" />
<path d="M81.7800 146.1043
L81.8276 146.1996
" />
<path d="M81.8276 146.1996
L81.8752 146.2472
" />
<path d="M81.8752 146.2472
L81.9705 146.2948
" />
<path d="M81.9705 146.2948
L82.1610 146.2948
" />
<path d="M82.1610 146.2948
L82.2562 146.2472
" />
<path d="M82.2562 146.2472
L82.3038 146.1996
" />
<path d="M82.3038 146.1996
L82.3514 146.1043
" />
<path d="M82.3514 146.1043
L82.3514 145.9139
" />
<path d="M82.3514 145.9139
L82.3038 145.8186
" />
<path d="M82.3038 145.8186
L82.2562 145.7710
" />
<path d="M82.2562 145.7710
L82.1610 145.7234
" />
<path d="M82.7324 146.2472
L82.8752 146.2948
" />
<path d="M82.8752 146.2948
L83.1133 146.2948
" />
<path d="M83.1133 146.2948
L83.2086 146.2472
" />
<path d="M83.2086 146.2472
L83.2562 146.1996
" />
<path d="M83.2562 146.1996
L83.3038 146.1043
" />
<path d="M83.3038 146.1043
L83.3038 146.0091
" />
<path d="M83.3038 146.0091
L83.2562 145.9139
" />
<path d="M83.2562 145.9139
L83.2086 145.8662
" />
<path d="M83.2086 145.8662
L83.1133 145.8186
" />
<path d="M83.1133 145.8186
L82.9229 145.7710
" />
<path d="M82.9229 145.7710
L82.8276 145.7234
" />
<path d="M82.8276 145.7234
L82.7800 145.6758
" />
<path d="M82.7800 145.6758
L82.7324 145.5805
" />
<path d="M82.7324 145.5805
L82.7324 145.4853
" />
<path d="M82.7324 145.4853
L82.7800 145.3901
" />
<path d="M82.7800 145.3901
L82.8276 145.3424
" />
<path d="M82.8276 145.3424
L82.9229 145.2948
" />
<path d="M82.9229 145.2948
L83.1610 145.2948
" />
<path d="M83.1610 145.2948
L83.3038 145.3424
" />
<path d="M83.7324 146.2948
L83.7324 145.2948
" />
<path d="M83.7324 145.2948
L84.0657 146.0091
" />
<path d="M84.0657 146.0091
L84.3990 145.2948
" />
<path d="M84.3990 145.2948
L84.3990 146.2948
" />
</g><text x="81.2800" y="149.3400"
textLength="1.9643" font-size="1.3333" lengthAdjust="spacingAndGlyphs"
text-anchor="middle" opacity="0">J7</text>
<g class="stroked-text"><desc>J7</desc>
<path d="M80.9467 148.2948
L80.9467 149.0091
" />
<path d="M80.9467 149.0091
L80.8990 149.1520
" />
<path d="M80.8990 149.1520
L80.8038 149.2472
" />
<path d="M80.8038 149.2472
L80.6610 149.2948
" />
<path d="M80.6610 149.2948
L80.5657 149.2948
" />
<path d="M81.3276 148.2948
L81.9943 148.2948
" />
<path d="M81.9943 148.2948
L81.5657 149.2948
" />
</g><text x="81.2800" y="131.2600"
textLength="6.9643" font-size="1.3333" lengthAdjust="spacingAndGlyphs"
text-anchor="middle" opacity="0">PJ398SM</text>
<g class="stroked-text"><desc>PJ398SM</desc>
<path d="M78.1610 131.2148
L78.1610 130.2148
" />
<path d="M78.1610 130.2148
L78.5419 130.2148
" />
<path d="M78.5419 130.2148
L78.6371 130.2624
" />
<path d="M78.6371 130.2624
L78.6848 130.3101
" />
<path d="M78.6848 130.3101
L78.7324 130.4053
" />
<path d="M78.7324 130.4053
L78.7324 130.5482
" />
<path d="M78.7324 130.5482
L78.6848 130.6434
" />
<path d="M78.6848 130.6434
L78.6371 130.6910
" />
<path d="M78.6371 130.6910
L78.5419 130.7386
" />
<path d="M78.5419 130.7386
L78.1610 130.7386
" />
<path d="M79.4467 130.2148
L79.4467 130.9291
" />
<path d="M79.4467 130.9291
L79.3990 131.0720
" />
<path d="M79.3990 131.0720
L79.3038 131.1672
" />
<path d="M79.3038 131.1672
L79.1610 131.2148
" />
<path d="M79.1610 131.2148
L79.0657 131.2148
" />
<path d="M79.8276 130.2148
L80.4467 130.2148
" />
<path d="M80.4467 130.2148
L80.1133 130.5958
" />
<path d="M80.1133 130.5958
L80.2562 130.5958
" />
<path d="M80.2562 130.5958
L80.3514 130.6434
" />
<path d="M80.3514 130.6434
L80.3990 130.6910
" />
<path d="M80.3990 130.6910
L80.4467 130.7862
" />
<path d="M80.4467 130.7862
L80.4467 131.0243
" />
<path d="M80.4467 131.0243
L80.3990 131.1196
" />
<path d="M80.3990 131.1196
L80.3514 131.1672
" />
<path d="M80.3514 131.1672
L80.2562 131.2148
" />
<path d="M80.2562 131.2148
L79.9705 131.2148
" />
<path d="M79.9705 131.2148
L79.8752 131.1672
" />
<path d="M79.8752 131.1672
L79.8276 131.1196
" />
<path d="M80.9229 131.2148
L81.1133 131.2148
" />
<path d="M81.1133 131.2148
L81.2086 131.1672
" />
<path d="M81.2086 131.1672
L81.2562 131.1196
" />
<path d="M81.2562 131.1196
L81.3514 130.9767
" />
<path d="M81.3514 130.9767
L81.3990 130.7862
" />
<path d="M81.3990 130.7862
L81.3990 130.4053
" />
<path d="M81.3990 130.4053
L81.3514 130.3101
" />
<path d="M81.3514 130.3101
L81.3038 130.2624
" />
<path d="M81.3038 130.2624
L81.2086 130.2148
" />
<path d="M81.2086 130.2148
L81.0181 130.2148
" />
<path d="M81.0181 130.2148
L80.9229 130.2624
" />
<path d="M80.9229 130.2624
L80.8752 130.3101
" />
<path d="M80.8752 130.3101
L80.8276 130.4053
" />
<path d="M80.8276 130.4053
L80.8276 130.6434
" />
<path d="M80.8276 130.6434
L80.8752 130.7386
" />
<path d="M80.8752 130.7386
L80.9229 130.7862
" />
<path d="M80.9229 130.7862
L81.0181 130.8339
" />
<path d="M81.0181 130.8339
L81.2086 130.8339
" />
<path d="M81.2086 130.8339
L81.3038 130.7862
" />
<path d="M81.3038 130.7862
L81.3514 130.7386
" />
<path d="M81.3514 130.7386
L81.3990 130.6434
" />
<path d="M81.9705 130.6434
L81.8752 130.5958
" />
<path d="M81.8752 130.5958
L81.8276 130.5482
" />
<path d="M81.8276 130.5482
L81.7800 130.4529
" />
<path d="M81.7800 130.4529
L81.7800 130.4053
" />
<path d="M81.7800 130.4053
L81.8276 130.3101
" />
<path d="M81.8276 130.3101
L81.8752 130.2624
" />
<path d="M81.8752 130.2624
L81.9705 130.2148
" />
<path d="M81.9705 130.2148
L82.1610 130.2148
" />
<path d="M82.1610 130.2148
L82.2562 130.2624
" />
<path d="M82.2562 130.2624
L82.3038 130.3101
" />
<path d="M82.3038 130.3101
L82.3514 130.4053
" />
<path d="M82.3514 130.4053
L82.3514 130.4529
" />
<path d="M82.3514 130.4529
L82.3038 130.5482
" />
<path d="M82.3038 130.5482
L82.2562 130.5958
" />
<path d="M82.2562 130.5958
L82.1610 130.6434
" />
<path d="M82.1610 130.6434
L81.9705 130.6434
" />
<path d="M81.9705 130.6434
L81.8752 130.6910
" />
<path d="M81.8752 130.6910
L81.8276 130.7386
" />
<path d="M81.8276 130.7386
L81.7800 130.8339
" />
<path d="M81.7800 130.8339
L81.7800 131.0243
" />
<path d="M81.7800 131.0243
L81.8276 131.1196
" />
<path d="M81.8276 131.1196
L81.8752 131.1672
" />
<path d="M81.8752 131.1672
L81.9705 131.2148
" />
<path d="M81.9705 131.2148
L82.1610 131.2148
" />
<path d="M82.1610 131.2148
L82.2562 131.1672
" />
<path d="M82.2562 131.1672
L82.3038 131.1196
" />
<path d="M82.3038 131.1196
L82.3514 131.0243
" />
<path d="M82.3514 131.0243
L82.3514 130.8339
" />
<path d="M82.3514 130.8339
L82.3038 130.7386
" />
<path d="M82.3038 130.7386
L82.2562 130.6910
" />
<path d="M82.2562 130.6910
L82.1610 130.6434
" />
<path d="M82.7324 131.1672
L82.8752 131.2148
" />
<path d="M82.8752 131.2148
L83.1133 131.2148
" />
<path d="M83.1133 131.2148
L83.2086 131.1672
" />
<path d="M83.2086 131.1672
L83.2562 131.1196
" />
<path d="M83.2562 131.1196
L83.3038 131.0243
" />
<path d="M83.3038 131.0243
L83.3038 130.9291
" />
<path d="M83.3038 130.9291
L83.2562 130.8339
" />
<path d="M83.2562 130.8339
L83.2086 130.7862
" />
<path d="M83.2086 130.7862
L83.1133 130.7386
" />
<path d="M83.1133 130.7386
L82.9229 130.6910
" />
<path d="M82.9229 130.6910
L82.8276 130.6434
" />
<path d="M82.8276 130.6434
L82.7800 130.5958
" />
<path d="M82.7800 130.5958
L82.7324 130.5005
" />
<path d="M82.7324 130.5005
L82.7324 130.4053
" />
<path d="M82.7324 130.4053
L82.7800 130.3101
" />
<path d="M82.7800 130.3101
L82.8276 130.2624
" />
<path d="M82.8276 130.2624
L82.9229 130.2148
" />
<path d="M82.9229 130.2148
L83.1610 130.2148
" />
<path d="M83.1610 130.2148
L83.3038 130.2624
" />
<path d="M83.7324 131.2148
L83.7324 130.2148
" />
<path d="M83.7324 130.2148
L84.0657 130.9291
" />
<path d="M84.0657 130.9291
L84.3990 130.2148
" />
<path d="M84.3990 130.2148
L84.3990 131.2148
" />
</g><text x="81.2800" y="134.2600"
textLength="1.9643" font-size="1.3333" lengthAdjust="spacingAndGlyphs"
text-anchor="middle" opacity="0">J8</text>
<g class="stroked-text"><desc>J8</desc>
<path d="M80.9467 133.2148
L80.9467 133.9291
" />
<path d="M80.9467 133.9291
L80.8990 134.0720
" />
<path d="M80.8990 134.0720
L80.8038 134.1672
" />
<path d="M80.8038 134.1672
L80.6610 134.2148
" />
<path d="M80.6610 134.2148
L80.5657 134.2148
" />
<path d="M81.5657 133.6434
L81.4705 133.5958
" />
<path d="M81.4705 133.5958
L81.4229 133.5482
" />
<path d="M81.4229 133.5482
L81.3752 133.4529
" />
<path d="M81.3752 133.4529
L81.3752 133.4053
" />
<path d="M81.3752 133.4053
L81.4229 133.3101
" />
<path d="M81.4229 133.3101
L81.4705 133.2624
" />
<path d="M81.4705 133.2624
L81.5657 133.2148
" />
<path d="M81.5657 133.2148
L81.7562 133.2148
" />
<path d="M81.7562 133.2148
L81.8514 133.2624
" />
<path d="M81.8514 133.2624
L81.8990 133.3101
" />
<path d="M81.8990 133.3101
L81.9467 133.4053
" />
<path d="M81.9467 133.4053
L81.9467 133.4529
" />
<path d="M81.9467 133.4529
L81.8990 133.5482
" />
<path d="M81.8990 133.5482
L81.8514 133.5958
" />
<path d="M81.8514 133.5958
L81.7562 133.6434
" />
<path d="M81.7562 133.6434
L81.5657 133.6434
" />
<path d="M81.5657 133.6434
L81.4705 133.6910
" />
<path d="M81.4705 133.6910
L81.4229 133.7386
" />
<path d="M81.4229 133.7386
L81.3752 133.8339
" />
<path d="M81.3752 133.8339
L81.3752 134.0243
" />
<path d="M81.3752 134.0243
L81.4229 134.1196
" />
<path d="M81.4229 134.1196
L81.4705 134.1672
" />
<path d="M81.4705 134.1672
L81.5657 134.2148
" />
<path d="M81.5657 134.2148
L81.7562 134.2148
" />
<path d="M81.7562 134.2148
L81.8514 134.1672
" />
<path d="M81.8514 134.1672
L81.8990 134.1196
" />
<path d="M81.8990 134.1196
L81.9467 134.0243
" />
<path d="M81.9467 134.0243
L81.9467 133.8339
" />
<path d="M81.9467 133.8339
L81.8990 133.7386
" />
<path d="M81.8990 133.7386
L81.8514 133.6910
" />
<path d="M81.8514 133.6910
L81.7562 133.6434
" />
</g><text x="71.1200" y="146.3400"
textLength="6.9643" font-size="1.3333" lengthAdjust="spacingAndGlyphs"
text-anchor="middle" opacity="0">PJ398SM</text>
<g class="stroked-text"><desc>PJ398SM</desc>
<path d="M68.0010 146.2948
L68.0010 145.2948
" />
<path d="M68.0010 145.2948
L68.3819 145.2948
" />
<path d="M68.3819 145.2948
L68.4771 145.3424
" />
<path d="M68.4771 145.3424
L68.5248 145.3901
" />
<path d="M68.5248 145.3901
L68.5724 145.4853
" />
<path d="M68.5724 145.4853
L68.5724 145.6282
" />
<path d="M68.5724 145.6282
L68.5248 145.7234
" />
<path d="M68.5248 145.7234
L68.4771 145.7710
" />
<path d="M68.4771 145.7710
L68.3819 145.8186
" />
<path d="M68.3819 145.8186
L68.0010 145.8186
" />
<path d="M69.2867 145.2948
L69.2867 146.0091
" />
<path d="M69.2867 146.0091
L69.2390 146.1520
" />
<path d="M69.2390 146.1520
L69.1438 146.2472
" />
<path d="M69.1438 146.2472
L69.0010 146.2948
" />
<path d="M69.0010 146.2948
L68.9057 146.2948
" />
<path d="M69.6676 145.2948
L70.2867 145.2948
" />
<path d="M70.2867 145.2948
L69.9533 145.6758
" />
<path d="M69.9533 145.6758
L70.0962 145.6758
" />
<path d="M70.0962 145.6758
L70.1914 145.7234
" />
<path d="M70.1914 145.7234
L70.2390 145.7710
" />
<path d="M70.2390 145.7710
L70.2867 145.8662
" />
<path d="M70.2867 145.8662
L70.2867 146.1043
" />
<path d="M70.2867 146.1043
L70.2390 146.1996
" />
<path d="M70.2390 146.1996
L70.1914 146.2472
" />
<path d="M70.1914 146.2472
L70.0962 146.2948
" />
<path d="M70.0962 146.2948
L69.8105 146.2948
" />
<path d="M69.8105 146.2948
L69.7152 146.2472
" />
<path d="M69.7152 146.2472
L69.6676 146.1996
" />
<path d="M70.7629 146.2948
L70.9533 146.2948
" />
<path d="M70.9533 146.2948
L71.0486 146.2472
" />
<path d="M71.0486 146.2472
L71.0962 146.1996
" />
<path d="M71.0962 146.1996
L71.1914 146.0567
" />
<path d="M71.1914 146.0567
L71.2390 145.8662
" />
<path d="M71.2390 145.8662
L71.2390 145.4853
" />
<path d="M71.2390 145.4853
L71.1914 145.3901
" />
<path d="M71.1914 145.3901
L71.1438 145.3424
" />
<path d="M71.1438 145.3424
L71.0486 145.2948
" />
<path d="M71.0486 145.2948
L70.8581 145.2948
" />
<path d="M70.8581 145.2948
L70.7629 145.3424
" />
<path d="M70.7629 145.3424
L70.7152 145.3901
" />
<path d="M70.7152 145.3901
L70.6676 145.4853
" />
<path d="M70.6676 145.4853
L70.6676 145.7234
" />
<path d="M70.6676 145.7234
L70.7152 145.8186
" />
<path d="M70.7152 145.8186
L70.7629 145.8662
" />
<path d="M70.7629 145.8662
L70.8581 145.9139
" />
<path d="M70.8581 145.9139
L71.0486 145.9139
" />
<path d="M71.0486 145.9139
L71.1438 145.8662
" />
<path d="M71.1438 145.8662
L71.1914 145.8186
" />
<path d="M71.1914 145.8186
L71.2390 145.7234
" />
<path d="M71.8105 145.7234
L71.7152 145.6758
" />
<path d="M71.7152 145.6758
L71.6676 145.6282
" />
<path d="M71.6676 145.6282
L71.6200 145.5329
" />
<path d="M71.6200 145.5329
L71.6200 145.4853
" />
<path d="M71.6200 145.4853
L71.6676 145.3901
" />
<path d="M71.6676 145.3901
L71.7152 145.3424
" />
<path d="M71.7152 145.3424
L71.8105 145.2948
" />
<path d="M71.8105 145.2948
L72.0010 145.2948
" />
<path d="M72.0010 145.2948
L72.0962 145.3424
" />
<path d="M72.0962 145.3424
L72.1438 145.3901
" />
<path d="M72.1438 145.3901
L72.1914 145.4853
" />
<path d="M72.1914 145.4853
L72.1914 145.5329
" />
<path d="M72.1914 145.5329
L72.1438 145.6282
" />
<path d="M72.1438 145.6282
L72.0962 145.6758
" />
<path d="M72.0962 145.6758
L72.0010 145.7234
" />
<path d="M72.0010 145.7234
L71.8105 145.7234
" />
<path d="M71.8105 145.7234
L71.7152 145.7710
" />
<path d="M71.7152 145.7710
L71.6676 145.8186
" />
<path d="M71.6676 145.8186
L71.6200 145.9139
" />
<path d="M71.6200 145.9139
L71.6200 146.1043
" />
<path d="M71.6200 146.1043
L71.6676 146.1996
" />
<path d="M71.6676 146.1996
L71.7152 146.2472
" />
<path d="M71.7152 146.2472
L71.8105 146.2948
" />
<path d="M71.8105 146.2948
L72.0010 146.2948
" />
<path d="M72.0010 146.2948
L72.0962 146.2472
" />
<path d="M72.0962 146.2472
L72.1438 146.1996
" />
<path d="M72.1438 146.1996
L72.1914 146.1043
" />
<path d="M72.1914 146.1043
L72.1914 145.9139
" />
<path d="M72.1914 145.9139
L72.1438 145.8186
" />
<path d="M72.1438 145.8186
L72.0962 145.7710
" />
<path d="M72.0962 145.7710
L72.0010 145.7234
" />
<path d="M72.5724 146.2472
L72.7152 146.2948
" />
<path d="M72.7152 146.2948
L72.9533 146.2948
" />
<path d="M72.9533 146.2948
L73.0486 146.2472
" />
<path d="M73.0486 146.2472
L73.0962 146.1996
" />
<path d="M73.0962 146.1996
L73.1438 146.1043
" />
<path d="M73.1438 146.1043
L73.1438 146.0091
" />
<path d="M73.1438 146.0091
L73.0962 145.9139
" />
<path d="M73.0962 145.9139
L73.0486 145.8662
" />
<path d="M73.0486 145.8662
L72.9533 145.8186
" />
<path d="M72.9533 145.8186
L72.7629 145.7710
" />
<path d="M72.7629 145.7710
L72.6676 145.7234
" />
<path d="M72.6676 145.7234
L72.6200 145.6758
" />
<path d="M72.6200 145.6758
L72.5724 145.5805
" />
<path d="M72.5724 145.5805
L72.5724 145.4853
" />
<path d="M72.5724 145.4853
L72.6200 145.3901
" />
<path d="M72.6200 145.3901
L72.6676 145.3424
" />
<path d="M72.6676 145.3424
L72.7629 145.2948
" />
<path d="M72.7629 145.2948
L73.0010 145.2948
" />
<path d="M73.0010 145.2948
L73.1438 145.3424
" />
<path d="M73.5724 146.2948
L73.5724 145.2948
" />
<path d="M73.5724 145.2948
L73.9057 146.0091
" />
<path d="M73.9057 146.0091
L74.2390 145.2948
" />
<path d="M74.2390 145.2948
L74.2390 146.2948
" />
</g><text x="71.1200" y="149.3400"
textLength="1.9643" font-size="1.3333" lengthAdjust="spacingAndGlyphs"
text-anchor="middle" opacity="0">J2</text>
<g class="stroked-text"><desc>J2</desc>
<path d="M70.7867 148.2948
L70.7867 149.0091
" />
<path d="M70.7867 149.0091
L70.7390 149.1520
" />
<path d="M70.7390 149.1520
L70.6438 149.2472
" />
<path d="M70.6438 149.2472
L70.5010 149.2948
" />
<path d="M70.5010 149.2948
L70.4057 149.2948
" />
<path d="M71.2152 148.3901
L71.2629 148.3424
" />
<path d="M71.2629 148.3424
L71.3581 148.2948
" />
<path d="M71.3581 148.2948
L71.5962 148.2948
" />
<path d="M71.5962 148.2948
L71.6914 148.3424
" />
<path d="M71.6914 148.3424
L71.7390 148.3901
" />
<path d="M71.7390 148.3901
L71.7867 148.4853
" />
<path d="M71.7867 148.4853
L71.7867 148.5805
" />
<path d="M71.7867 148.5805
L71.7390 148.7234
" />
<path d="M71.7390 148.7234
L71.1676 149.2948
" />
<path d="M71.1676 149.2948
L71.7867 149.2948
" />
</g><g transform="rotate(-90.000000 88.6000 93.8600)">
<text x="88.6000" y="94.3600"
textLength="2.9643" font-size="1.3333" lengthAdjust="spacingAndGlyphs"
text-anchor="middle" opacity="0">10k</text>
</g>
<g class="stroked-text"><desc>10k</desc>
<path d="M89.0548 94.4552
L89.0548 95.0267
" />
<path d="M89.0548 94.7410
L88.0548 94.7410
" />
<path d="M88.0548 94.7410
L88.1977 94.8362
" />
<path d="M88.1977 94.8362
L88.2929 94.9314
" />
<path d="M88.2929 94.9314
L88.3405 95.0267
" />
<path d="M88.0548 93.8362
L88.0548 93.7410
" />
<path d="M88.0548 93.7410
L88.1024 93.6457
" />
<path d="M88.1024 93.6457
L88.1501 93.5981
" />
<path d="M88.1501 93.5981
L88.2453 93.5505
" />
<path d="M88.2453 93.5505
L88.4358 93.5029
" />
<path d="M88.4358 93.5029
L88.6739 93.5029
" />
<path d="M88.6739 93.5029
L88.8643 93.5505
" />
<path d="M88.8643 93.5505
L88.9596 93.5981
" />
<path d="M88.9596 93.5981
L89.0072 93.6457
" />
<path d="M89.0072 93.6457
L89.0548 93.7410
" />
<path d="M89.0548 93.7410
L89.0548 93.8362
" />
<path d="M89.0548 93.8362
L89.0072 93.9314
" />
<path d="M89.0072 93.9314
L88.9596 93.9790
" />
<path d="M88.9596 93.9790
L88.8643 94.0267
" />
<path d="M88.8643 94.0267
L88.6739 94.0743
" />
<path d="M88.6739 94.0743
L88.4358 94.0743
" />
<path d="M88.4358 94.0743
L88.2453 94.0267
" />
<path d="M88.2453 94.0267
L88.1501 93.9790
" />
<path d="M88.1501 93.9790
L88.1024 93.9314
" />
<path d="M88.1024 93.9314
L88.0548 93.8362
" />
<path d="M89.0548 93.0743
L88.0548 93.0743
" />
<path d="M88.6739 92.9790
L89.0548 92.6933
" />
<path d="M88.3882 92.6933
L88.7691 93.0743
" />
</g><g transform="rotate(-90.000000 81.2800 86.2400)">
<text x="81.2800" y="86.7400"
textLength="3.0595" font-size="1.3333" lengthAdjust="spacingAndGlyphs"
text-anchor="middle" opacity="0">RV4</text>
</g>
<g class="stroked-text"><desc>RV4</desc>
<path d="M81.7348 86.8352
L81.2586 87.1686
" />
<path d="M81.7348 87.4067
L80.7348 87.4067
" />
<path d="M80.7348 87.4067
L80.7348 87.0257
" />
<path d="M80.7348 87.0257
L80.7824 86.9305
" />
<path d="M80.7824 86.9305
L80.8301 86.8829
" />
<path d="M80.8301 86.8829
L80.9253 86.8352
" />
<path d="M80.9253 86.8352
L81.0682 86.8352
" />
<path d="M81.0682 86.8352
L81.1634 86.8829
" />
<path d="M81.1634 86.8829
L81.2110 86.9305
" />
<path d="M81.2110 86.9305
L81.2586 87.0257
" />
<path d="M81.2586 87.0257
L81.2586 87.4067
" />
<path d="M80.7348 86.5495
L81.7348 86.2162
" />
<path d="M81.7348 86.2162
L80.7348 85.8829
" />
<path d="M81.0682 85.1210
L81.7348 85.1210
" />
<path d="M80.6872 85.3590
L81.4015 85.5971
" />
<path d="M81.4015 85.5971
L81.4015 84.9781
" />
</g><g transform="rotate(-90.000000 68.0400 73.5400)">
<text x="68.0400" y="74.0400"
textLength="2.9643" font-size="1.3333" lengthAdjust="spacingAndGlyphs"
text-anchor="middle" opacity="0">10k</text>
</g>
<g class="stroked-text"><desc>10k</desc>
<path d="M68.4948 74.1352
L68.4948 74.7067
" />
<path d="M68.4948 74.4210
L67.4948 74.4210
" />
<path d="M67.4948 74.4210
L67.6377 74.5162
" />
<path d="M67.6377 74.5162
L67.7329 74.6114
" />
<path d="M67.7329 74.6114
L67.7805 74.7067
" />
<path d="M67.4948 73.5162
L67.4948 73.4210
" />
<path d="M67.4948 73.4210
L67.5424 73.3257
" />
<path d="M67.5424 73.3257
L67.5901 73.2781
" />
<path d="M67.5901 73.2781
L67.6853 73.2305
" />
<path d="M67.6853 73.2305
L67.8758 73.1829
" />
<path d="M67.8758 73.1829
L68.1139 73.1829
" />
<path d="M68.1139 73.1829
L68.3043 73.2305
" />
<path d="M68.3043 73.2305
L68.3996 73.2781
" />
<path d="M68.3996 73.2781
L68.4472 73.3257
" />
<path d="M68.4472 73.3257
L68.4948 73.4210
" />
<path d="M68.4948 73.4210
L68.4948 73.5162
" />
<path d="M68.4948 73.5162
L68.4472 73.6114
" />
<path d="M68.4472 73.6114
L68.3996 73.6590
" />
<path d="M68.3996 73.6590
L68.3043 73.7067
" />
<path d="M68.3043 73.7067
L68.1139 73.7543
" />
<path d="M68.1139 73.7543
L67.8758 73.7543
" />
<path d="M67.8758 73.7543
L67.6853 73.7067
" />
<path d="M67.6853 73.7067
L67.5901 73.6590
" />
<path d="M67.5901 73.6590
L67.5424 73.6114
" />
<path d="M67.5424 73.6114
L67.4948 73.5162
" />
<path d="M68.4948 72.7543
L67.4948 72.7543
" />
<path d="M68.1139 72.6590
L68.4948 72.3733
" />
<path d="M67.8282 72.3733
L68.2091 72.7543
" />
</g><g transform="rotate(-90.000000 60.7200 65.9200)">
<text x="60.7200" y="66.4200"
textLength="3.0595" font-size="1.3333" lengthAdjust="spacingAndGlyphs"
text-anchor="middle" opacity="0">RV1</text>
</g>
<g class="stroked-text"><desc>RV1</desc>
<path d="M61.1748 66.5152
L60.6986 66.8486
" />
<path d="M61.1748 67.0867
L60.1748 67.0867
" />
<path d="M60.1748 67.0867
L60.1748 66.7057
" />
<path d="M60.1748 66.7057
L60.2224 66.6105
" />
<path d="M60.2224 66.6105
L60.2701 66.5629
" />
<path d="M60.2701 66.5629
L60.3653 66.5152
" />
<path d="M60.3653 66.5152
L60.5082 66.5152
" />
<path d="M60.5082 66.5152
L60.6034 66.5629
" />
<path d="M60.6034 66.5629
L60.6510 66.6105
" />
<path d="M60.6510 66.6105
L60.6986 66.7057
" />
<path d="M60.6986 66.7057
L60.6986 67.0867
" />
<path d="M60.1748 66.2295
L61.1748 65.8962
" />
<path d="M61.1748 65.8962
L60.1748 65.5629
" />
<path d="M61.1748 64.7057
L61.1748 65.2771
" />
<path d="M61.1748 64.9914
L60.1748 64.9914
" />
<path d="M60.1748 64.9914
L60.3177 65.0867
" />
<path d="M60.3177 65.0867
L60.4129 65.1819
" />
<path d="M60.4129 65.1819
L60.4605 65.2771
" />
</g><g transform="rotate(-90.000000 79.9600 116.8400)">
<text x="79.9600" y="117.3400"
textLength="6.9643" font-size="1.3333" lengthAdjust="spacingAndGlyphs"
text-anchor="middle" opacity="0">PJ398SM</text>
</g>
<g class="stroked-text"><desc>PJ398SM</desc>
<path d="M80.4148 119.9590
L79.4148 119.9590
" />
<path d="M79.4148 119.9590
L79.4148 119.5781
" />
<path d="M79.4148 119.5781
L79.4624 119.4829
" />
<path d="M79.4624 119.4829
L79.5101 119.4352
" />
<path d="M79.5101 119.4352
L79.6053 119.3876
" />
<path d="M79.6053 119.3876
L79.7482 119.3876
" />
<path d="M79.7482 119.3876
L79.8434 119.4352
" />
<path d="M79.8434 119.4352
L79.8910 119.4829
" />
<path d="M79.8910 119.4829
L79.9386 119.5781
" />
<path d="M79.9386 119.5781
L79.9386 119.9590
" />
<path d="M79.4148 118.6733
L80.1291 118.6733
" />
<path d="M80.1291 118.6733
L80.2720 118.7210
" />
<path d="M80.2720 118.7210
L80.3672 118.8162
" />
<path d="M80.3672 118.8162
L80.4148 118.9590
" />
<path d="M80.4148 118.9590
L80.4148 119.0543
" />
<path d="M79.4148 118.2924
L79.4148 117.6733
" />
<path d="M79.4148 117.6733
L79.7958 118.0067
" />
<path d="M79.7958 118.0067
L79.7958 117.8638
" />
<path d="M79.7958 117.8638
L79.8434 117.7686
" />
<path d="M79.8434 117.7686
L79.8910 117.7210
" />
<path d="M79.8910 117.7210
L79.9862 117.6733
" />
<path d="M79.9862 117.6733
L80.2243 117.6733
" />
<path d="M80.2243 117.6733
L80.3196 117.7210
" />
<path d="M80.3196 117.7210
L80.3672 117.7686
" />
<path d="M80.3672 117.7686
L80.4148 117.8638
" />
<path d="M80.4148 117.8638
L80.4148 118.1495
" />
<path d="M80.4148 118.1495
L80.3672 118.2448
" />
<path d="M80.3672 118.2448
L80.3196 118.2924
" />
<path d="M80.4148 117.1971
L80.4148 117.0067
" />
<path d="M80.4148 117.0067
L80.3672 116.9114
" />
<path d="M80.3672 116.9114
L80.3196 116.8638
" />
<path d="M80.3196 116.8638
L80.1767 116.7686
" />
<path d="M80.1767 116.7686
L79.9862 116.7210
" />
<path d="M79.9862 116.7210
L79.6053 116.7210
" />
<path d="M79.6053 116.7210
L79.5101 116.7686
" />
<path d="M79.5101 116.7686
L79.4624 116.8162
" />
<path d="M79.4624 116.8162
L79.4148 116.9114
" />
<path d="M79.4148 116.9114
L79.4148 117.1019
" />
<path d="M79.4148 117.1019
L79.4624 117.1971
" />
<path d="M79.4624 117.1971
L79.5101 117.2448
" />
<path d="M79.5101 117.2448
L79.6053 117.2924
" />
<path d="M79.6053 117.2924
L79.8434 117.2924
" />
<path d="M79.8434 117.2924
L79.9386 117.2448
" />
<path d="M79.9386 117.2448
L79.9862 117.1971
" />
<path d="M79.9862 117.1971
L80.0339 117.1019
" />
<path d="M80.0339 117.1019
L80.0339 116.9114
" />
<path d="M80.0339 116.9114
L79.9862 116.8162
" />
<path d="M79.9862 116.8162
L79.9386 116.7686
" />
<path d="M79.9386 116.7686
L79.8434 116.7210
" />
<path d="M79.8434 116.1495
L79.7958 116.2448
" />
<path d="M79.7958 116.2448
L79.7482 116.2924
" />
<path d="M79.7482 116.2924
L79.6529 116.3400
" />
<path d="M79.6529 116.3400
L79.6053 116.3400
" />
<path d="M79.6053 116.3400
L79.5101 116.2924
" />
<path d="M79.5101 116.2924
L79.4624 116.2448
" />
<path d="M79.4624 116.2448
L79.4148 116.1495
" />
<path d="M79.4148 116.1495
L79.4148 115.9590
" />
<path d="M79.4148 115.9590
L79.4624 115.8638
" />
<path d="M79.4624 115.8638
L79.5101 115.8162
" />
<path d="M79.5101 115.8162
L79.6053 115.7686
" />
<path d="M79.6053 115.7686
L79.6529 115.7686
" />
<path d="M79.6529 115.7686
L79.7482 115.8162
" />
<path d="M79.7482 115.8162
L79.7958 115.8638
" />
<path d="M79.7958 115.8638
L79.8434 115.9590
" />
<path d="M79.8434 115.9590
L79.8434 116.1495
" />
<path d="M79.8434 116.1495
L79.8910 116.2448
" />
<path d="M79.8910 116.2448
L79.9386 116.2924
" />
<path d="M79.9386 116.2924
L80.0339 116.3400
" />
<path d="M80.0339 116.3400
L80.2243 116.3400
" />
<path d="M80.2243 116.3400
L80.3196 116.2924
" />
<path d="M80.3196 116.2924
L80.3672 116.2448
" />
<path d="M80.3672 116.2448
L80.4148 116.1495
" />
<path d="M80.4148 116.1495
L80.4148 115.9590
" />
<path d="M80.4148 115.9590
L80.3672 115.8638
" />
<path d="M80.3672 115.8638
L80.3196 115.8162
" />
<path d="M80.3196 115.8162
L80.2243 115.7686
" />
<path d="M80.2243 115.7686
L80.0339 115.7686
" />
<path d="M80.0339 115.7686
L79.9386 115.8162
" />
<path d="M79.9386 115.8162
L79.8910 115.8638
" />
<path d="M79.8910 115.8638
L79.8434 115.9590
" />
<path d="M80.3672 115.3876
L80.4148 115.2448
" />
<path d="M80.4148 115.2448
L80.4148 115.0067
" />
<path d="M80.4148 115.0067
L80.3672 114.9114
" />
<path d="M80.3672 114.9114
L80.3196 114.8638
" />
<path d="M80.3196 114.8638
L80.2243 114.8162
" />
<path d="M80.2243 114.8162
L80.1291 114.8162
" />
<path d="M80.1291 114.8162
L80.0339 114.8638
" />
<path d="M80.0339 114.8638
L79.9862 114.9114
" />
<path d="M79.9862 114.9114
L79.9386 115.0067
" />
<path d="M79.9386 115.0067
L79.8910 115.1971
" />
<path d="M79.8910 115.1971
L79.8434 115.2924
" />
<path d="M79.8434 115.2924
L79.7958 115.3400
" />
<path d="M79.7958 115.3400
L79.7005 115.3876
" />
<path d="M79.7005 115.3876
L79.6053 115.3876
" />
<path d="M79.6053 115.3876
L79.5101 115.3400
" />
<path d="M79.5101 115.3400
L79.4624 115.2924
" />
<path d="M79.4624 115.2924
L79.4148 115.1971
" />
<path d="M79.4148 115.1971
L79.4148 114.9590
" />
<path d="M79.4148 114.9590
L79.4624 114.8162
" />
<path d="M80.4148 114.3876
L79.4148 114.3876
" />
<path d="M79.4148 114.3876
L80.1291 114.0543
" />
<path d="M80.1291 114.0543
L79.4148 113.7210
" />
<path d="M79.4148 113.7210
L80.4148 113.7210
" />
</g><g transform="rotate(-90.000000 82.9600 116.8400)">
<text x="82.9600" y="117.3400"
textLength="1.9643" font-size="1.3333" lengthAdjust="spacingAndGlyphs"
text-anchor="middle" opacity="0">J6</text>
</g>
<g class="stroked-text"><desc>J6</desc>
<path d="M82.4148 117.1733
L83.1291 117.1733
" />
<path d="M83.1291 117.1733
L83.2720 117.2210
" />
<path d="M83.2720 117.2210
L83.3672 117.3162
" />
<path d="M83.3672 117.3162
L83.4148 117.4590
" />
<path d="M83.4148 117.4590
L83.4148 117.5543
" />
<path d="M82.4148 116.2686
L82.4148 116.4590
" />
<path d="M82.4148 116.4590
L82.4624 116.5543
" />
<path d="M82.4624 116.5543
L82.5101 116.6019
" />
<path d="M82.5101 116.6019
L82.6529 116.6971
" />
<path d="M82.6529 116.6971
L82.8434 116.7448
" />
<path d="M82.8434 116.7448
L83.2243 116.7448
" />
<path d="M83.2243 116.7448
L83.3196 116.6971
" />
<path d="M83.3196 116.6971
L83.3672 116.6495
" />
<path d="M83.3672 116.6495
L83.4148 116.5543
" />
<path d="M83.4148 116.5543
L83.4148 116.3638
" />
<path d="M83.4148 116.3638
L83.3672 116.2686
" />
<path d="M83.3672 116.2686
L83.3196 116.2210
" />
<path d="M83.3196 116.2210
L83.2243 116.1733
" />
<path d="M83.2243 116.1733
L82.9862 116.1733
" />
<path d="M82.9862 116.1733
L82.8910 116.2210
" />
<path d="M82.8910 116.2210
L82.8434 116.2686
" />
<path d="M82.8434 116.2686
L82.7958 116.3638
" />
<path d="M82.7958 116.3638
L82.7958 116.5543
" />
<path d="M82.7958 116.5543
L82.8434 116.6495
" />
<path d="M82.8434 116.6495
L82.8910 116.6971
" />
<path d="M82.8910 116.6971
L82.9862 116.7448
" />
</g></g>
<g style="fill:#000000; fill-opacity:0.0; 
stroke:#000000; stroke-width:0.1000; stroke-opacity:1; 
stroke-linecap:round; stroke-linejoin:round;">
<path d="M66.9600 111.1800
L56.5600 111.1800
" />
<path d="M54.4800 106.6800
L56.5100 106.6800
" />
<path d="M56.5100 102.1800
L56.5100 111.1800
" />
<path d="M66.9600 102.1800
L66.9600 111.1800
" />
<path d="M66.9600 102.1800
L56.5600 102.1800
" />
<circle cx="60.9600" cy="106.6800" r="1.8000" /> 
<path d="M76.4900 72.5400
L76.4900 61.1900
" />
<path d="M85.9900 72.5400
L76.4900 72.5400
" />
<path d="M85.9900 72.5400
L85.9900 61.1900
" />
<path d="M85.9900 61.1900
L76.4900 61.1900
" />
<circle cx="81.2400" cy="66.0400" r="3.5000" /> 
<path d="M56.1700 92.8600
L56.1700 81.5100
" />
<path d="M65.6700 92.8600
L56.1700 92.8600
" />
<path d="M65.6700 92.8600
L65.6700 81.5100
" />
<path d="M65.6700 81.5100
L56.1700 81.5100
" />
<circle cx="60.9200" cy="86.3600" r="3.5000" /> 
<path d="M87.2800 111.1800
L76.8800 111.1800
" />
<path d="M74.8000 106.6800
L76.8300 106.6800
" />
<path d="M76.8300 102.1800
L76.8300 111.1800
" />
<path d="M87.2800 102.1800
L87.2800 111.1800
" />
<path d="M87.2800 102.1800
L76.8800 102.1800
" />
<circle cx="81.2800" cy="106.6800" r="1.8000" /> 
<path d="M56.4600 153.3200
L56.4600 142.9200
" />
<path d="M60.9600 140.8400
L60.9600 142.8700
" />
<path d="M65.4600 142.8700
L56.4600 142.8700
" />
<path d="M65.4600 153.3200
L56.4600 153.3200
" />
<path d="M65.4600 153.3200
L65.4600 142.9200
" />
<circle cx="60.9600" cy="147.3200" r="1.8000" /> 
<path d="M66.9600 121.3400
L56.5600 121.3400
" />
<path d="M54.4800 116.8400
L56.5100 116.8400
" />
<path d="M56.5100 112.3400
L56.5100 121.3400
" />
<path d="M66.9600 112.3400
L66.9600 121.3400
" />
<path d="M66.9600 112.3400
L56.5600 112.3400
" />
<circle cx="60.9600" cy="116.8400" r="1.8000" /> 
<path d="M76.7800 153.3200
L76.7800 142.9200
" />
<path d="M81.2800 140.8400
L81.2800 142.8700
" />
<path d="M85.7800 142.8700
L76.7800 142.8700
" />
<path d="M85.7800 153.3200
L76.7800 153.3200
" />
<path d="M85.7800 153.3200
L85.7800 142.9200
" />
<circle cx="81.2800" cy="147.3200" r="1.8000" /> 
<path d="M76.7800 138.2400
L76.7800 127.8400
" />
<path d="M81.2800 125.7600
L81.2800 127.7900
" />
<path d="M85.7800 127.7900
L76.7800 127.7900
" />
<path d="M85.7800 138.2400
L76.7800 138.2400
" />
<path d="M85.7800 138.2400
L85.7800 127.8400
" />
<circle cx="81.2800" cy="132.2400" r="1.8000" /> 
<path d="M66.6200 153.3200
L66.6200 142.9200
" />
<path d="M71.1200 140.8400
L71.1200 142.8700
" />
<path d="M75.6200 142.8700
L66.6200 142.8700
" />
<path d="M75.6200 153.3200
L66.6200 153.3200
" />
<path d="M75.6200 153.3200
L75.6200 142.9200
" />
<circle cx="71.1200" cy="147.3200" r="1.8000" /> 
<path d="M76.4900 92.8600
L76.4900 81.5100
" />
<path d="M85.9900 92.8600
L76.4900 92.8600
" />
<path d="M85.9900 92.8600
L85.9900 81.5100
" />
<path d="M85.9900 81.5100
L76.4900 81.5100
" />
<circle cx="81.2400" cy="86.3600" r="3.5000" /> 
<path d="M55.9300 72.5400
L55.9300 61.1900
" />
<path d="M65.4300 72.5400
L55.9300 72.5400
" />
<path d="M65.4300 72.5400
L65.4300 61.1900
" />
<path d="M65.4300 61.1900
L55.9300 61.1900
" />
<circle cx="60.6800" cy="66.0400" r="3.5000" /> 
<path d="M87.4400 121.3400
L77.0400 121.3400
" />
<path d="M74.9600 116.8400
L76.9900 116.8400
" />
<path d="M76.9900 112.3400
L76.9900 121.3400
" />
<path d="M87.4400 112.3400
L87.4400 121.3400
" />
<path d="M87.4400 112.3400
L77.0400 112.3400
" />
<circle cx="81.4400" cy="116.8400" r="1.8000" /> 
<g >
</g>
<g >
</g>
<g >
</g>
<g >
</g>
<g >
</g>
<g >
</g>
<g >
</g>
<g >
</g>
<g >
</g>
<g >
</g>
<g >
</g>
<g >
</g>
<g >
</g>
<g >
</g>
<g >
</g>
<g >
</g>
<g >
</g>
<g >
</g>
<g >
</g>
<g >
</g>
</g> 
</svg>
