<?xml version="1.0" encoding="UTF-8" standalone="no"?>
<!-- Created with Inkscape (http://www.inkscape.org/) -->

<svg
   xmlns:dc="http://purl.org/dc/elements/1.1/"
   xmlns:cc="http://creativecommons.org/ns#"
   xmlns:rdf="http://www.w3.org/1999/02/22-rdf-syntax-ns#"
   xmlns:svg="http://www.w3.org/2000/svg"
   xmlns="http://www.w3.org/2000/svg"
   xmlns:sodipodi="http://sodipodi.sourceforge.net/DTD/sodipodi-0.dtd"
   xmlns:inkscape="http://www.inkscape.org/namespaces/inkscape"
   width="31.124714mm"
   height="8.0150137mm"
   viewBox="0 0 31.124714 8.0150137"
   version="1.1"
   id="svg2538"
   inkscape:version="0.92.4 (5da689c313, 2019-01-14)"
   sodipodi:docname="x4046.svg">
  <defs
     id="defs2532" />
  <sodipodi:namedview
     id="base"
     pagecolor="#ffffff"
     bordercolor="#666666"
     borderopacity="1.0"
     inkscape:pageopacity="0.0"
     inkscape:pageshadow="2"
     inkscape:zoom="1.4"
     inkscape:cx="-207.40355"
     inkscape:cy="-43.45609"
     inkscape:document-units="mm"
     inkscape:current-layer="layer1"
     showgrid="false"
     inkscape:window-width="2560"
     inkscape:window-height="1363"
     inkscape:window-x="0"
     inkscape:window-y="0"
     inkscape:window-maximized="1"
     fit-margin-top="0"
     fit-margin-left="0"
     fit-margin-right="0"
     fit-margin-bottom="0" />
  <metadata
     id="metadata2535">
    <rdf:RDF>
      <cc:Work
         rdf:about="">
        <dc:format>image/svg+xml</dc:format>
        <dc:type
           rdf:resource="http://purl.org/dc/dcmitype/StillImage" />
        <dc:title></dc:title>
      </cc:Work>
    </rdf:RDF>
  </metadata>
  <g
     inkscape:label="SilkS"
     inkscape:groupmode="layer"
     id="layer1"
     transform="translate(-44.740715,-42.326728)">
    <g
       aria-label="X4046"
       style="font-style:normal;font-variant:normal;font-weight:bold;font-stretch:normal;font-size:10.58333302px;line-height:1.25;font-family:Hack;-inkscape-font-specification:'Hack, Bold';font-variant-ligatures:normal;font-variant-caps:normal;font-variant-numeric:normal;font-feature-settings:normal;text-align:start;letter-spacing:0px;word-spacing:0px;writing-mode:lr-tb;text-anchor:start;fill:#000000;fill-opacity:1;stroke:none;stroke-width:0.26458332"
       id="text3085">
      <path
         d="m 47.004143,46.264472 -2.201416,-3.798218 h 1.576131 l 1.405599,2.454631 1.410766,-2.454631 h 1.576131 l -2.19108,3.798218 2.253092,3.917073 h -1.576131 l -1.472778,-2.552815 -1.467611,2.552815 h -1.576131 z"
         id="path3089"
         inkscape:connector-curvature="0" />
      <path
         d="m 54.554069,48.517564 h -3.059245 v -1.477946 l 2.924886,-4.573364 h 1.596802 v 4.743896 h 0.847494 v 1.307414 h -0.847494 v 1.663981 h -1.462443 z m 0,-1.307414 v -3.048909 l -1.948201,3.048909 z"
         id="path3091"
         inkscape:connector-curvature="0" />
      <path
         d="m 60.522697,50.331407 q -1.281576,0 -1.917196,-1.002523 -0.63562,-1.002523 -0.63562,-2.997233 0,-2.010213 0.63562,-3.007568 0.63562,-0.997355 1.912028,-0.997355 1.281576,0 1.917196,0.997355 0.63562,0.997355 0.63562,3.007568 0,3.999756 -2.547648,3.999756 z m -0.0052,-1.291911 q 0.532267,0 0.775147,-0.645955 0.242879,-0.656291 0.242879,-2.06189 0,-1.410766 -0.242879,-2.067057 -0.24288,-0.645955 -0.775147,-0.645955 -0.5271,0 -0.769979,0.645955 -0.242879,0.656291 -0.242879,2.067057 0,1.405599 0.242879,2.06189 0.242879,0.645955 0.769979,0.645955 z m 0.0052,-1.235067 q -0.08268,0 -0.134359,-0.186035 -0.04651,-0.191203 -0.07751,-0.423746 -0.02067,-0.196371 -0.04134,-0.465088 -0.02067,-0.273885 -0.02067,-0.418579 0,-0.103353 0.01033,-0.361735 0.01034,-0.258383 0.04134,-0.496094 0.07235,-0.604614 0.211873,-0.604614 0.07751,0 0.134359,0.175699 0.05684,0.170533 0.08785,0.43925 0.02067,0.217041 0.03617,0.480591 0.02067,0.258382 0.02067,0.397908 0,0.08785 -0.01034,0.341065 -0.0052,0.248047 -0.03617,0.506429 -0.06718,0.614949 -0.222208,0.614949 z"
         id="path3093"
         inkscape:connector-curvature="0" />
      <path
         d="m 67.287142,48.517564 h -3.059244 v -1.477946 l 2.924886,-4.573364 h 1.596801 v 4.743896 h 0.847494 v 1.307414 h -0.847494 v 1.663981 h -1.462443 z m 0,-1.307414 v -3.048909 l -1.948201,3.048909 z"
         id="path3095"
         inkscape:connector-curvature="0" />
      <path
         d="m 73.395295,50.341742 q -0.676961,0 -1.178222,-0.227376 -0.496094,-0.232544 -0.826823,-0.72347 -0.341065,-0.501262 -0.496094,-1.245402 -0.149862,-0.744141 -0.149862,-1.705322 0,-1.023194 0.180868,-1.79834 0.180867,-0.780314 0.599447,-1.312581 0.785481,-0.992188 2.320271,-0.992188 0.408244,0 0.769979,0.07751 0.382406,0.07751 0.775147,0.232544 v 1.384928 q -0.392741,-0.232544 -0.780315,-0.3514 -0.361735,-0.113688 -0.728637,-0.113688 -1.648478,0 -1.705322,2.196248 0.253214,-0.351399 0.620117,-0.506429 0.165364,-0.07235 0.387573,-0.118855 0.227376,-0.04651 0.511597,-0.04651 1.043864,0 1.601969,0.651123 0.568441,0.656291 0.568441,1.881022 0,0.625285 -0.160197,1.142049 -0.155029,0.511597 -0.475423,0.868164 -0.640788,0.707967 -1.834514,0.707967 z m -0.0052,-1.229899 q 0.232544,0 0.428914,-0.08268 0.196371,-0.08785 0.335897,-0.279053 0.26355,-0.356567 0.26355,-1.033528 0,-0.676962 -0.26355,-1.038697 -0.26355,-0.361735 -0.769979,-0.361735 -0.258382,0 -0.444417,0.09302 -0.180868,0.09302 -0.304891,0.26355 -0.26355,0.361735 -0.26355,1.038696 0,0.356567 0.06718,0.614949 0.07235,0.258383 0.196371,0.428915 0.134359,0.186035 0.325561,0.273885 0.196371,0.08268 0.428915,0.08268 z"
         id="path3097"
         inkscape:connector-curvature="0" />
    </g>
  </g>
</svg>
