<?xml version="1.0" encoding="utf-8" standalone="no"?>
<!DOCTYPE svg PUBLIC "-//W3C//DTD SVG 1.1//EN"
  "http://www.w3.org/Graphics/SVG/1.1/DTD/svg11.dtd">
<svg height="195.484pt" version="1.1" viewBox="0 0 464.6076 195.484" width="464.6076pt" xmlns="http://www.w3.org/2000/svg" xmlns:xlink="http://www.w3.org/1999/xlink">
 <metadata>
  <rdf:RDF xmlns:cc="http://creativecommons.org/ns#" xmlns:dc="http://purl.org/dc/elements/1.1/" xmlns:rdf="http://www.w3.org/1999/02/22-rdf-syntax-ns#">
   <cc:Work>
    <dc:type rdf:resource="http://purl.org/dc/dcmitype/StillImage"/>
    <dc:date>2021-05-17T15:16:03.935875</dc:date>
    <dc:format>image/svg+xml</dc:format>
    <dc:creator>
     <cc:Agent>
      <dc:title>Matplotlib v3.4.2, https://matplotlib.org/</dc:title>
     </cc:Agent>
    </dc:creator>
   </cc:Work>
  </rdf:RDF>
 </metadata>
 <defs>
  <style type="text/css">*{stroke-linecap:butt;stroke-linejoin:round;}</style>
 </defs>
 <g id="figure_1">
  <g id="patch_1">
   <path d="M 0 195.484 
L 464.6076 195.484 
L 464.6076 0 
L 0 0 
z
" style="fill:none;"/>
  </g>
  <g id="axes_1">
   <g id="patch_2">
    <path clip-path="url(#pa0588dce94)" d="M 280.3968 92.812 
C 281.370626 92.812 282.304697 92.425095 282.993296 91.736496 
C 283.681895 91.047897 284.0688 90.113826 284.0688 89.14 
C 284.0688 88.166174 283.681895 87.232103 282.993296 86.543504 
C 282.304697 85.854905 281.370626 85.468 280.3968 85.468 
C 279.422974 85.468 278.488903 85.854905 277.800304 86.543504 
C 277.111705 87.232103 276.7248 88.166174 276.7248 89.14 
C 276.7248 90.113826 277.111705 91.047897 277.800304 91.736496 
C 278.488903 92.425095 279.422974 92.812 280.3968 92.812 
z
" style="fill:none;stroke:#000000;stroke-linejoin:miter;stroke-width:1.2;"/>
   </g>
   <g id="line2d_1">
    <path clip-path="url(#pa0588dce94)" d="M 35.5968 89.14 
L 58.5468 89.14 
L 61.0968 81.49 
L 66.1968 96.79 
L 71.2968 81.49 
L 76.3968 96.79 
L 81.4968 81.49 
L 86.5968 96.79 
L 89.1468 89.14 
L 112.0968 89.14 
" style="fill:none;stroke:#000000;stroke-linecap:round;stroke-width:1.2;"/>
   </g>
   <g id="line2d_2">
    <path clip-path="url(#pa0588dce94)" d="M 112.0968 89.14 
L 147.5928 89.14 
M 147.5928 81.49 
L 147.5928 96.79 
M 153.1008 81.49 
L 153.1008 96.79 
M 153.1008 89.14 
L 188.5968 89.14 
" style="fill:none;stroke:#000000;stroke-linecap:round;stroke-width:1.2;"/>
   </g>
   <g id="line2d_3">
    <path clip-path="url(#pa0588dce94)" d="M 188.5968 89.14 
L 188.5968 127.39 
L 188.5968 165.64 
" style="fill:none;stroke:#000000;stroke-linecap:round;stroke-width:1.2;"/>
   </g>
   <g id="line2d_4">
    <path clip-path="url(#pa0588dce94)" d="M 188.5968 165.64 
L 153.1008 165.64 
M 153.1008 173.29 
L 153.1008 157.99 
M 147.5928 173.29 
L 147.5928 157.99 
M 147.5928 165.64 
L 112.0968 165.64 
" style="fill:none;stroke:#000000;stroke-linecap:round;stroke-width:1.2;"/>
   </g>
   <g id="line2d_5">
    <path clip-path="url(#pa0588dce94)" d="M 112.0968 165.64 
L 89.1468 165.64 
L 86.5968 173.29 
L 81.4968 157.99 
L 76.3968 173.29 
L 71.2968 157.99 
L 66.1968 173.29 
L 61.0968 157.99 
L 58.5468 165.64 
L 35.5968 165.64 
" style="fill:none;stroke:#000000;stroke-linecap:round;stroke-width:1.2;"/>
   </g>
   <g id="line2d_6">
    <path clip-path="url(#pa0588dce94)" d="M 188.5968 89.14 
L 207.7218 89.14 
L 226.8468 89.14 
" style="fill:none;stroke:#000000;stroke-linecap:round;stroke-width:1.2;"/>
   </g>
   <g id="line2d_7">
    <path clip-path="url(#pa0588dce94)" d="M 226.8468 89.14 
L 246.1248 89.14 
L 256.8348 89.14 
M 284.0688 89.14 
L 303.3468 89.14 
" style="fill:none;stroke:#000000;stroke-linecap:round;stroke-width:1.2;"/>
   </g>
   <g id="line2d_8">
    <path clip-path="url(#pa0588dce94)" d="M 284.0688 89.14 
L 287.4348 89.14 
" style="fill:none;stroke:#000000;stroke-linecap:round;stroke-width:1.2;"/>
   </g>
   <g id="line2d_9">
    <path clip-path="url(#pa0588dce94)" d="M 256.8348 89.14 
L 256.8348 104.44 
L 276.7248 89.14 
L 256.8348 73.84 
L 256.8348 89.14 
" style="fill:none;stroke:#000000;stroke-linecap:round;stroke-width:1.2;"/>
   </g>
   <g id="line2d_10">
    <path clip-path="url(#pa0588dce94)" d="M 303.3468 89.14 
L 338.8428 89.14 
M 338.8428 81.49 
L 338.8428 96.79 
M 344.3508 81.49 
L 344.3508 96.79 
M 344.3508 89.14 
L 379.8468 89.14 
" style="fill:none;stroke:#000000;stroke-linecap:round;stroke-width:1.2;"/>
   </g>
   <g id="line2d_11">
    <path clip-path="url(#pa0588dce94)" d="M 379.8468 89.14 
L 379.8468 112.09 
L 387.4968 114.64 
L 372.1968 119.74 
L 387.4968 124.84 
L 372.1968 129.94 
L 387.4968 135.04 
L 372.1968 140.14 
L 379.8468 142.69 
L 379.8468 165.64 
" style="fill:none;stroke:#000000;stroke-linecap:round;stroke-width:1.2;"/>
   </g>
   <g id="line2d_12">
    <path clip-path="url(#pa0588dce94)" d="M 379.8468 165.64 
L 379.8468 177.88 
L 372.1968 177.88 
L 387.4968 177.88 
M 374.4918 181.552 
L 385.2018 181.552 
M 378.3168 185.224 
L 381.3768 185.224 
" style="fill:none;stroke:#000000;stroke-linecap:round;stroke-width:1.2;"/>
   </g>
   <g id="line2d_13">
    <path clip-path="url(#pa0588dce94)" d="M 226.8468 89.14 
L 226.8468 70.015 
L 226.8468 50.89 
" style="fill:none;stroke:#000000;stroke-linecap:round;stroke-width:1.2;"/>
   </g>
   <g id="line2d_14">
    <path clip-path="url(#pa0588dce94)" d="M 226.8468 50.89 
L 249.7968 50.89 
L 252.3468 43.24 
L 257.4468 58.54 
L 262.5468 43.24 
L 267.6468 58.54 
L 272.7468 43.24 
L 277.8468 58.54 
L 280.3968 50.89 
L 303.3468 50.89 
" style="fill:none;stroke:#000000;stroke-linecap:round;stroke-width:1.2;"/>
   </g>
   <g id="line2d_15">
    <path clip-path="url(#pa0588dce94)" d="M 303.3468 50.89 
L 303.3468 70.015 
L 303.3468 89.14 
" style="fill:none;stroke:#000000;stroke-linecap:round;stroke-width:1.2;"/>
   </g>
   <g id="line2d_16">
    <path clip-path="url(#pa0588dce94)" d="M 379.8468 89.14 
L 398.9718 89.14 
L 418.0968 89.14 
" style="fill:none;stroke:#000000;stroke-linecap:round;stroke-width:1.2;"/>
   </g>
   <g id="text_1">
    <!-- $R_1$ -->
    <g transform="translate(65.6568 59.8415)scale(0.14 -0.14)">
     <defs>
      <path d="M 1613 4147 
L 1294 2491 
L 2106 2491 
Q 2584 2491 2879 2755 
Q 3175 3019 3175 3444 
Q 3175 3784 2976 3965 
Q 2778 4147 2406 4147 
L 1613 4147 
z
M 2772 2241 
Q 2972 2194 3105 2009 
Q 3238 1825 3413 1275 
L 3809 0 
L 3144 0 
L 2778 1197 
Q 2638 1659 2453 1815 
Q 2269 1972 1888 1972 
L 1191 1972 
L 806 0 
L 172 0 
L 1081 4666 
L 2503 4666 
Q 3150 4666 3495 4373 
Q 3841 4081 3841 3531 
Q 3841 3044 3547 2687 
Q 3253 2331 2772 2241 
z
" id="DejaVuSans-Oblique-52" transform="scale(0.015625)"/>
      <path d="M 794 531 
L 1825 531 
L 1825 4091 
L 703 3866 
L 703 4441 
L 1819 4666 
L 2450 4666 
L 2450 531 
L 3481 531 
L 3481 0 
L 794 0 
L 794 531 
z
" id="DejaVuSans-31" transform="scale(0.015625)"/>
     </defs>
     <use transform="translate(0 0.09375)" xlink:href="#DejaVuSans-Oblique-52"/>
     <use transform="translate(69.482422 -16.3125)scale(0.7)" xlink:href="#DejaVuSans-31"/>
    </g>
    <!-- 100k -->
    <g transform="translate(56.432113 75.518437)scale(0.14 -0.14)">
     <defs>
      <path d="M 2034 4250 
Q 1547 4250 1301 3770 
Q 1056 3291 1056 2328 
Q 1056 1369 1301 889 
Q 1547 409 2034 409 
Q 2525 409 2770 889 
Q 3016 1369 3016 2328 
Q 3016 3291 2770 3770 
Q 2525 4250 2034 4250 
z
M 2034 4750 
Q 2819 4750 3233 4129 
Q 3647 3509 3647 2328 
Q 3647 1150 3233 529 
Q 2819 -91 2034 -91 
Q 1250 -91 836 529 
Q 422 1150 422 2328 
Q 422 3509 836 4129 
Q 1250 4750 2034 4750 
z
" id="DejaVuSans-30" transform="scale(0.015625)"/>
      <path d="M 581 4863 
L 1159 4863 
L 1159 1991 
L 2875 3500 
L 3609 3500 
L 1753 1863 
L 3688 0 
L 2938 0 
L 1159 1709 
L 1159 0 
L 581 0 
L 581 4863 
z
" id="DejaVuSans-6b" transform="scale(0.015625)"/>
     </defs>
     <use xlink:href="#DejaVuSans-31"/>
     <use x="63.623047" xlink:href="#DejaVuSans-30"/>
     <use x="127.246094" xlink:href="#DejaVuSans-30"/>
     <use x="190.869141" xlink:href="#DejaVuSans-6b"/>
    </g>
   </g>
   <g id="text_2">
    <!-- $C_1$ -->
    <g transform="translate(142.0868 59.8415)scale(0.14 -0.14)">
     <defs>
      <path d="M 4447 4306 
L 4319 3641 
Q 4019 3944 3683 4091 
Q 3347 4238 2956 4238 
Q 2422 4238 2017 3981 
Q 1613 3725 1319 3200 
Q 1131 2863 1032 2486 
Q 934 2109 934 1728 
Q 934 1091 1264 756 
Q 1594 422 2222 422 
Q 2656 422 3056 561 
Q 3456 700 3834 978 
L 3688 231 
Q 3316 72 2936 -9 
Q 2556 -91 2175 -91 
Q 1278 -91 773 396 
Q 269 884 269 1753 
Q 269 2309 461 2846 
Q 653 3384 1013 3828 
Q 1394 4300 1883 4525 
Q 2372 4750 3022 4750 
Q 3422 4750 3780 4639 
Q 4138 4528 4447 4306 
z
" id="DejaVuSans-Oblique-43" transform="scale(0.015625)"/>
     </defs>
     <use transform="translate(0 0.78125)" xlink:href="#DejaVuSans-Oblique-43"/>
     <use transform="translate(69.824219 -15.625)scale(0.7)" xlink:href="#DejaVuSans-31"/>
    </g>
    <!-- 47n -->
    <g transform="translate(137.00305 75.518437)scale(0.14 -0.14)">
     <defs>
      <path d="M 2419 4116 
L 825 1625 
L 2419 1625 
L 2419 4116 
z
M 2253 4666 
L 3047 4666 
L 3047 1625 
L 3713 1625 
L 3713 1100 
L 3047 1100 
L 3047 0 
L 2419 0 
L 2419 1100 
L 313 1100 
L 313 1709 
L 2253 4666 
z
" id="DejaVuSans-34" transform="scale(0.015625)"/>
      <path d="M 525 4666 
L 3525 4666 
L 3525 4397 
L 1831 0 
L 1172 0 
L 2766 4134 
L 525 4134 
L 525 4666 
z
" id="DejaVuSans-37" transform="scale(0.015625)"/>
      <path d="M 3513 2113 
L 3513 0 
L 2938 0 
L 2938 2094 
Q 2938 2591 2744 2837 
Q 2550 3084 2163 3084 
Q 1697 3084 1428 2787 
Q 1159 2491 1159 1978 
L 1159 0 
L 581 0 
L 581 3500 
L 1159 3500 
L 1159 2956 
Q 1366 3272 1645 3428 
Q 1925 3584 2291 3584 
Q 2894 3584 3203 3211 
Q 3513 2838 3513 2113 
z
" id="DejaVuSans-6e" transform="scale(0.015625)"/>
     </defs>
     <use xlink:href="#DejaVuSans-34"/>
     <use x="63.623047" xlink:href="#DejaVuSans-37"/>
     <use x="127.246094" xlink:href="#DejaVuSans-6e"/>
    </g>
   </g>
   <g id="text_3">
    <!-- $C_2$ -->
    <g transform="translate(142.0868 136.3415)scale(0.14 -0.14)">
     <defs>
      <path d="M 1228 531 
L 3431 531 
L 3431 0 
L 469 0 
L 469 531 
Q 828 903 1448 1529 
Q 2069 2156 2228 2338 
Q 2531 2678 2651 2914 
Q 2772 3150 2772 3378 
Q 2772 3750 2511 3984 
Q 2250 4219 1831 4219 
Q 1534 4219 1204 4116 
Q 875 4013 500 3803 
L 500 4441 
Q 881 4594 1212 4672 
Q 1544 4750 1819 4750 
Q 2544 4750 2975 4387 
Q 3406 4025 3406 3419 
Q 3406 3131 3298 2873 
Q 3191 2616 2906 2266 
Q 2828 2175 2409 1742 
Q 1991 1309 1228 531 
z
" id="DejaVuSans-32" transform="scale(0.015625)"/>
     </defs>
     <use transform="translate(0 0.78125)" xlink:href="#DejaVuSans-Oblique-43"/>
     <use transform="translate(69.824219 -15.625)scale(0.7)" xlink:href="#DejaVuSans-32"/>
    </g>
    <!-- 47n -->
    <g transform="translate(137.00305 152.018438)scale(0.14 -0.14)">
     <use xlink:href="#DejaVuSans-34"/>
     <use x="63.623047" xlink:href="#DejaVuSans-37"/>
     <use x="127.246094" xlink:href="#DejaVuSans-6e"/>
    </g>
   </g>
   <g id="text_4">
    <!-- $R_2$ -->
    <g transform="translate(65.6568 136.3415)scale(0.14 -0.14)">
     <use transform="translate(0 0.09375)" xlink:href="#DejaVuSans-Oblique-52"/>
     <use transform="translate(69.482422 -16.3125)scale(0.7)" xlink:href="#DejaVuSans-32"/>
    </g>
    <!-- 100k -->
    <g transform="translate(56.432113 152.018437)scale(0.14 -0.14)">
     <use xlink:href="#DejaVuSans-31"/>
     <use x="63.623047" xlink:href="#DejaVuSans-30"/>
     <use x="127.246094" xlink:href="#DejaVuSans-30"/>
     <use x="190.869141" xlink:href="#DejaVuSans-6b"/>
    </g>
   </g>
   <g id="text_5">
    <!-- $C_2$ -->
    <g transform="translate(333.3368 59.8415)scale(0.14 -0.14)">
     <use transform="translate(0 0.78125)" xlink:href="#DejaVuSans-Oblique-43"/>
     <use transform="translate(69.824219 -15.625)scale(0.7)" xlink:href="#DejaVuSans-32"/>
    </g>
    <!-- 10u -->
    <g transform="translate(328.25305 75.518437)scale(0.14 -0.14)">
     <defs>
      <path d="M 544 1381 
L 544 3500 
L 1119 3500 
L 1119 1403 
Q 1119 906 1312 657 
Q 1506 409 1894 409 
Q 2359 409 2629 706 
Q 2900 1003 2900 1516 
L 2900 3500 
L 3475 3500 
L 3475 0 
L 2900 0 
L 2900 538 
Q 2691 219 2414 64 
Q 2138 -91 1772 -91 
Q 1169 -91 856 284 
Q 544 659 544 1381 
z
M 1991 3584 
L 1991 3584 
z
" id="DejaVuSans-75" transform="scale(0.015625)"/>
     </defs>
     <use xlink:href="#DejaVuSans-31"/>
     <use x="63.623047" xlink:href="#DejaVuSans-30"/>
     <use x="127.246094" xlink:href="#DejaVuSans-75"/>
    </g>
   </g>
   <g id="text_6">
    <!-- $R_{load}$ -->
    <g transform="translate(338.0568 131.253125)scale(0.14 -0.14)">
     <defs>
      <path d="M 1172 4863 
L 1747 4863 
L 800 0 
L 225 0 
L 1172 4863 
z
" id="DejaVuSans-Oblique-6c" transform="scale(0.015625)"/>
      <path d="M 1625 -91 
Q 1009 -91 651 289 
Q 294 669 294 1325 
Q 294 1706 417 2101 
Q 541 2497 738 2766 
Q 1047 3184 1428 3384 
Q 1809 3584 2291 3584 
Q 2888 3584 3255 3212 
Q 3622 2841 3622 2241 
Q 3622 1825 3500 1412 
Q 3378 1000 3181 728 
Q 2875 309 2494 109 
Q 2113 -91 1625 -91 
z
M 891 1344 
Q 891 869 1089 633 
Q 1288 397 1691 397 
Q 2269 397 2648 901 
Q 3028 1406 3028 2181 
Q 3028 2634 2825 2865 
Q 2622 3097 2228 3097 
Q 1903 3097 1650 2945 
Q 1397 2794 1197 2484 
Q 1050 2253 970 1956 
Q 891 1659 891 1344 
z
" id="DejaVuSans-Oblique-6f" transform="scale(0.015625)"/>
      <path d="M 3438 1997 
L 3047 0 
L 2472 0 
L 2578 531 
Q 2325 219 2001 64 
Q 1678 -91 1281 -91 
Q 834 -91 548 182 
Q 263 456 263 884 
Q 263 1497 752 1853 
Q 1241 2209 2100 2209 
L 2900 2209 
L 2931 2363 
Q 2938 2388 2941 2417 
Q 2944 2447 2944 2509 
Q 2944 2788 2717 2942 
Q 2491 3097 2081 3097 
Q 1800 3097 1504 3025 
Q 1209 2953 897 2809 
L 997 3341 
Q 1322 3463 1633 3523 
Q 1944 3584 2234 3584 
Q 2853 3584 3176 3315 
Q 3500 3047 3500 2534 
Q 3500 2431 3484 2292 
Q 3469 2153 3438 1997 
z
M 2816 1759 
L 2241 1759 
Q 1534 1759 1195 1570 
Q 856 1381 856 984 
Q 856 709 1029 553 
Q 1203 397 1509 397 
Q 1978 397 2328 733 
Q 2678 1069 2791 1631 
L 2816 1759 
z
" id="DejaVuSans-Oblique-61" transform="scale(0.015625)"/>
      <path d="M 2675 525 
Q 2444 222 2128 65 
Q 1813 -91 1428 -91 
Q 903 -91 598 267 
Q 294 625 294 1247 
Q 294 1766 478 2236 
Q 663 2706 1013 3078 
Q 1244 3325 1534 3454 
Q 1825 3584 2144 3584 
Q 2481 3584 2739 3421 
Q 2997 3259 3138 2956 
L 3513 4863 
L 4091 4863 
L 3144 0 
L 2566 0 
L 2675 525 
z
M 891 1350 
Q 891 897 1095 644 
Q 1300 391 1663 391 
Q 1931 391 2161 520 
Q 2391 650 2566 903 
Q 2750 1166 2856 1509 
Q 2963 1853 2963 2188 
Q 2963 2622 2758 2865 
Q 2553 3109 2194 3109 
Q 1922 3109 1687 2981 
Q 1453 2853 1288 2613 
Q 1106 2353 998 2009 
Q 891 1666 891 1350 
z
" id="DejaVuSans-Oblique-64" transform="scale(0.015625)"/>
     </defs>
     <use transform="translate(0 0.09375)" xlink:href="#DejaVuSans-Oblique-52"/>
     <use transform="translate(69.482422 -16.3125)scale(0.7)" xlink:href="#DejaVuSans-Oblique-6c"/>
     <use transform="translate(88.930664 -16.3125)scale(0.7)" xlink:href="#DejaVuSans-Oblique-6f"/>
     <use transform="translate(131.757812 -16.3125)scale(0.7)" xlink:href="#DejaVuSans-Oblique-61"/>
     <use transform="translate(174.65332 -16.3125)scale(0.7)" xlink:href="#DejaVuSans-Oblique-64"/>
    </g>
   </g>
   <g id="text_7">
    <!-- $R_3$ -->
    <g transform="translate(256.9068 21.5915)scale(0.14 -0.14)">
     <defs>
      <path d="M 2597 2516 
Q 3050 2419 3304 2112 
Q 3559 1806 3559 1356 
Q 3559 666 3084 287 
Q 2609 -91 1734 -91 
Q 1441 -91 1130 -33 
Q 819 25 488 141 
L 488 750 
Q 750 597 1062 519 
Q 1375 441 1716 441 
Q 2309 441 2620 675 
Q 2931 909 2931 1356 
Q 2931 1769 2642 2001 
Q 2353 2234 1838 2234 
L 1294 2234 
L 1294 2753 
L 1863 2753 
Q 2328 2753 2575 2939 
Q 2822 3125 2822 3475 
Q 2822 3834 2567 4026 
Q 2313 4219 1838 4219 
Q 1578 4219 1281 4162 
Q 984 4106 628 3988 
L 628 4550 
Q 988 4650 1302 4700 
Q 1616 4750 1894 4750 
Q 2613 4750 3031 4423 
Q 3450 4097 3450 3541 
Q 3450 3153 3228 2886 
Q 3006 2619 2597 2516 
z
" id="DejaVuSans-33" transform="scale(0.015625)"/>
     </defs>
     <use transform="translate(0 0.09375)" xlink:href="#DejaVuSans-Oblique-52"/>
     <use transform="translate(69.482422 -16.3125)scale(0.7)" xlink:href="#DejaVuSans-33"/>
    </g>
    <!-- 47k -->
    <g transform="translate(252.135863 37.268437)scale(0.14 -0.14)">
     <use xlink:href="#DejaVuSans-34"/>
     <use x="63.623047" xlink:href="#DejaVuSans-37"/>
     <use x="127.246094" xlink:href="#DejaVuSans-6b"/>
    </g>
   </g>
   <g id="patch_3">
    <path clip-path="url(#pa0588dce94)" d="M 35.5968 91.435 
C 36.205441 91.435 36.789236 91.193184 37.21961 90.76281 
C 37.649984 90.332436 37.8918 89.748641 37.8918 89.14 
C 37.8918 88.531359 37.649984 87.947564 37.21961 87.51719 
C 36.789236 87.086816 36.205441 86.845 35.5968 86.845 
C 34.988159 86.845 34.404364 87.086816 33.97399 87.51719 
C 33.543616 87.947564 33.3018 88.531359 33.3018 89.14 
C 33.3018 89.748641 33.543616 90.332436 33.97399 90.76281 
C 34.404364 91.193184 34.988159 91.435 35.5968 91.435 
z
" style="fill:#ffffff;stroke:#000000;stroke-linejoin:miter;stroke-width:1.2;"/>
   </g>
   <g id="patch_4">
    <path clip-path="url(#pa0588dce94)" d="M 188.5968 91.435 
C 189.205441 91.435 189.789236 91.193184 190.21961 90.76281 
C 190.649984 90.332436 190.8918 89.748641 190.8918 89.14 
C 190.8918 88.531359 190.649984 87.947564 190.21961 87.51719 
C 189.789236 87.086816 189.205441 86.845 188.5968 86.845 
C 187.988159 86.845 187.404364 87.086816 186.97399 87.51719 
C 186.543616 87.947564 186.3018 88.531359 186.3018 89.14 
C 186.3018 89.748641 186.543616 90.332436 186.97399 90.76281 
C 187.404364 91.193184 187.988159 91.435 188.5968 91.435 
z
" style="stroke:#000000;stroke-linejoin:miter;stroke-width:1.2;"/>
   </g>
   <g id="patch_5">
    <path clip-path="url(#pa0588dce94)" d="M 35.5968 167.935 
C 36.205441 167.935 36.789236 167.693184 37.21961 167.26281 
C 37.649984 166.832436 37.8918 166.248641 37.8918 165.64 
C 37.8918 165.031359 37.649984 164.447564 37.21961 164.01719 
C 36.789236 163.586816 36.205441 163.345 35.5968 163.345 
C 34.988159 163.345 34.404364 163.586816 33.97399 164.01719 
C 33.543616 164.447564 33.3018 165.031359 33.3018 165.64 
C 33.3018 166.248641 33.543616 166.832436 33.97399 167.26281 
C 34.404364 167.693184 34.988159 167.935 35.5968 167.935 
z
" style="fill:#ffffff;stroke:#000000;stroke-linejoin:miter;stroke-width:1.2;"/>
   </g>
   <g id="patch_6">
    <path clip-path="url(#pa0588dce94)" d="M 226.8468 91.435 
C 227.455441 91.435 228.039236 91.193184 228.46961 90.76281 
C 228.899984 90.332436 229.1418 89.748641 229.1418 89.14 
C 229.1418 88.531359 228.899984 87.947564 228.46961 87.51719 
C 228.039236 87.086816 227.455441 86.845 226.8468 86.845 
C 226.238159 86.845 225.654364 87.086816 225.22399 87.51719 
C 224.793616 87.947564 224.5518 88.531359 224.5518 89.14 
C 224.5518 89.748641 224.793616 90.332436 225.22399 90.76281 
C 225.654364 91.193184 226.238159 91.435 226.8468 91.435 
z
" style="stroke:#000000;stroke-linejoin:miter;stroke-width:1.2;"/>
   </g>
   <g id="patch_7">
    <path clip-path="url(#pa0588dce94)" d="M 303.3468 91.435 
C 303.955441 91.435 304.539236 91.193184 304.96961 90.76281 
C 305.399984 90.332436 305.6418 89.748641 305.6418 89.14 
C 305.6418 88.531359 305.399984 87.947564 304.96961 87.51719 
C 304.539236 87.086816 303.955441 86.845 303.3468 86.845 
C 302.738159 86.845 302.154364 87.086816 301.72399 87.51719 
C 301.293616 87.947564 301.0518 88.531359 301.0518 89.14 
C 301.0518 89.748641 301.293616 90.332436 301.72399 90.76281 
C 302.154364 91.193184 302.738159 91.435 303.3468 91.435 
z
" style="stroke:#000000;stroke-linejoin:miter;stroke-width:1.2;"/>
   </g>
   <g id="patch_8">
    <path clip-path="url(#pa0588dce94)" d="M 379.8468 91.435 
C 380.455441 91.435 381.039236 91.193184 381.46961 90.76281 
C 381.899984 90.332436 382.1418 89.748641 382.1418 89.14 
C 382.1418 88.531359 381.899984 87.947564 381.46961 87.51719 
C 381.039236 87.086816 380.455441 86.845 379.8468 86.845 
C 379.238159 86.845 378.654364 87.086816 378.22399 87.51719 
C 377.793616 87.947564 377.5518 88.531359 377.5518 89.14 
C 377.5518 89.748641 377.793616 90.332436 378.22399 90.76281 
C 378.654364 91.193184 379.238159 91.435 379.8468 91.435 
z
" style="stroke:#000000;stroke-linejoin:miter;stroke-width:1.2;"/>
   </g>
   <g id="patch_9">
    <path clip-path="url(#pa0588dce94)" d="M 418.0968 91.435 
C 418.705441 91.435 419.289236 91.193184 419.71961 90.76281 
C 420.149984 90.332436 420.3918 89.748641 420.3918 89.14 
C 420.3918 88.531359 420.149984 87.947564 419.71961 87.51719 
C 419.289236 87.086816 418.705441 86.845 418.0968 86.845 
C 417.488159 86.845 416.904364 87.086816 416.47399 87.51719 
C 416.043616 87.947564 415.8018 88.531359 415.8018 89.14 
C 415.8018 89.748641 416.043616 90.332436 416.47399 90.76281 
C 416.904364 91.193184 417.488159 91.435 418.0968 91.435 
z
" style="fill:#ffffff;stroke:#000000;stroke-linejoin:miter;stroke-width:1.2;"/>
   </g>
   <g id="text_8">
    <!-- $IN_1$ -->
    <g transform="translate(8.9618 93.003125)scale(0.14 -0.14)">
     <defs>
      <path d="M 1081 4666 
L 1716 4666 
L 806 0 
L 172 0 
L 1081 4666 
z
" id="DejaVuSans-Oblique-49" transform="scale(0.015625)"/>
      <path d="M 1081 4666 
L 1931 4666 
L 3219 666 
L 4000 4666 
L 4616 4666 
L 3706 0 
L 2853 0 
L 1569 4025 
L 788 0 
L 172 0 
L 1081 4666 
z
" id="DejaVuSans-Oblique-4e" transform="scale(0.015625)"/>
     </defs>
     <use transform="translate(0 0.09375)" xlink:href="#DejaVuSans-Oblique-49"/>
     <use transform="translate(29.492188 0.09375)" xlink:href="#DejaVuSans-Oblique-4e"/>
     <use transform="translate(104.296875 -16.3125)scale(0.7)" xlink:href="#DejaVuSans-31"/>
    </g>
   </g>
   <g id="text_9">
    <!-- $IN_2$ -->
    <g transform="translate(8.9618 169.503125)scale(0.14 -0.14)">
     <use transform="translate(0 0.09375)" xlink:href="#DejaVuSans-Oblique-49"/>
     <use transform="translate(29.492188 0.09375)" xlink:href="#DejaVuSans-Oblique-4e"/>
     <use transform="translate(104.296875 -16.3125)scale(0.7)" xlink:href="#DejaVuSans-32"/>
    </g>
   </g>
   <g id="text_10">
    <!-- OUT -->
    <g transform="translate(423.4518 93.003125)scale(0.14 -0.14)">
     <defs>
      <path d="M 2522 4238 
Q 1834 4238 1429 3725 
Q 1025 3213 1025 2328 
Q 1025 1447 1429 934 
Q 1834 422 2522 422 
Q 3209 422 3611 934 
Q 4013 1447 4013 2328 
Q 4013 3213 3611 3725 
Q 3209 4238 2522 4238 
z
M 2522 4750 
Q 3503 4750 4090 4092 
Q 4678 3434 4678 2328 
Q 4678 1225 4090 567 
Q 3503 -91 2522 -91 
Q 1538 -91 948 565 
Q 359 1222 359 2328 
Q 359 3434 948 4092 
Q 1538 4750 2522 4750 
z
" id="DejaVuSans-4f" transform="scale(0.015625)"/>
      <path d="M 556 4666 
L 1191 4666 
L 1191 1831 
Q 1191 1081 1462 751 
Q 1734 422 2344 422 
Q 2950 422 3222 751 
Q 3494 1081 3494 1831 
L 3494 4666 
L 4128 4666 
L 4128 1753 
Q 4128 841 3676 375 
Q 3225 -91 2344 -91 
Q 1459 -91 1007 375 
Q 556 841 556 1753 
L 556 4666 
z
" id="DejaVuSans-55" transform="scale(0.015625)"/>
      <path d="M -19 4666 
L 3928 4666 
L 3928 4134 
L 2272 4134 
L 2272 0 
L 1638 0 
L 1638 4134 
L -19 4134 
L -19 4666 
z
" id="DejaVuSans-54" transform="scale(0.015625)"/>
     </defs>
     <use xlink:href="#DejaVuSans-4f"/>
     <use x="78.710938" xlink:href="#DejaVuSans-55"/>
     <use x="151.904297" xlink:href="#DejaVuSans-54"/>
    </g>
   </g>
  </g>
 </g>
 <defs>
  <clipPath id="pa0588dce94">
   <rect height="181.084" width="450.2076" x="7.2" y="7.2"/>
  </clipPath>
 </defs>
</svg>
