<?xml version="1.0" encoding="utf-8" standalone="no"?>
<!DOCTYPE svg PUBLIC "-//W3C//DTD SVG 1.1//EN"
  "http://www.w3.org/Graphics/SVG/1.1/DTD/svg11.dtd">
<!-- Created with matplotlib (https://matplotlib.org/) -->
<svg height="280.15625pt" version="1.1" viewBox="0 0 424.385937 280.15625" width="424.385937pt" xmlns="http://www.w3.org/2000/svg" xmlns:xlink="http://www.w3.org/1999/xlink">
 <metadata>
  <rdf:RDF xmlns:cc="http://creativecommons.org/ns#" xmlns:dc="http://purl.org/dc/elements/1.1/" xmlns:rdf="http://www.w3.org/1999/02/22-rdf-syntax-ns#">
   <cc:Work>
    <dc:type rdf:resource="http://purl.org/dc/dcmitype/StillImage"/>
    <dc:date>2021-03-28T13:00:06.188900</dc:date>
    <dc:format>image/svg+xml</dc:format>
    <dc:creator>
     <cc:Agent>
      <dc:title>Matplotlib v3.3.4, https://matplotlib.org/</dc:title>
     </cc:Agent>
    </dc:creator>
   </cc:Work>
  </rdf:RDF>
 </metadata>
 <defs>
  <style type="text/css">*{stroke-linecap:butt;stroke-linejoin:round;}</style>
 </defs>
 <g id="figure_1">
  <g id="patch_1">
   <path d="M 0 280.15625 
L 424.385937 280.15625 
L 424.385937 0 
L 0 0 
z
" style="fill:none;"/>
  </g>
  <g id="axes_1">
   <g id="patch_2">
    <path d="M 52.160938 242.6 
L 417.185937 242.6 
L 417.185937 7.2 
L 52.160938 7.2 
z
" style="fill:#ffffff;"/>
   </g>
   <g id="matplotlib.axis_1">
    <g id="xtick_1">
     <g id="line2d_1">
      <defs>
       <path d="M 0 0 
L 0 3.5 
" id="m09e2a0f6f5" style="stroke:#000000;stroke-width:0.8;"/>
      </defs>
      <g>
       <use style="stroke:#000000;stroke-width:0.8;" x="68.752983" xlink:href="#m09e2a0f6f5" y="242.6"/>
      </g>
     </g>
     <g id="text_1">
      <!-- 0 -->
      <g transform="translate(65.571733 257.198437)scale(0.1 -0.1)">
       <defs>
        <path d="M 31.78125 66.40625 
Q 24.171875 66.40625 20.328125 58.90625 
Q 16.5 51.421875 16.5 36.375 
Q 16.5 21.390625 20.328125 13.890625 
Q 24.171875 6.390625 31.78125 6.390625 
Q 39.453125 6.390625 43.28125 13.890625 
Q 47.125 21.390625 47.125 36.375 
Q 47.125 51.421875 43.28125 58.90625 
Q 39.453125 66.40625 31.78125 66.40625 
z
M 31.78125 74.21875 
Q 44.046875 74.21875 50.515625 64.515625 
Q 56.984375 54.828125 56.984375 36.375 
Q 56.984375 17.96875 50.515625 8.265625 
Q 44.046875 -1.421875 31.78125 -1.421875 
Q 19.53125 -1.421875 13.0625 8.265625 
Q 6.59375 17.96875 6.59375 36.375 
Q 6.59375 54.828125 13.0625 64.515625 
Q 19.53125 74.21875 31.78125 74.21875 
z
" id="DejaVuSans-48"/>
       </defs>
       <use xlink:href="#DejaVuSans-48"/>
      </g>
     </g>
    </g>
    <g id="xtick_2">
     <g id="line2d_2">
      <g>
       <use style="stroke:#000000;stroke-width:0.8;" x="135.07474" xlink:href="#m09e2a0f6f5" y="242.6"/>
      </g>
     </g>
     <g id="text_2">
      <!-- 2 -->
      <g transform="translate(131.89349 257.198437)scale(0.1 -0.1)">
       <defs>
        <path d="M 19.1875 8.296875 
L 53.609375 8.296875 
L 53.609375 0 
L 7.328125 0 
L 7.328125 8.296875 
Q 12.9375 14.109375 22.625 23.890625 
Q 32.328125 33.6875 34.8125 36.53125 
Q 39.546875 41.84375 41.421875 45.53125 
Q 43.3125 49.21875 43.3125 52.78125 
Q 43.3125 58.59375 39.234375 62.25 
Q 35.15625 65.921875 28.609375 65.921875 
Q 23.96875 65.921875 18.8125 64.3125 
Q 13.671875 62.703125 7.8125 59.421875 
L 7.8125 69.390625 
Q 13.765625 71.78125 18.9375 73 
Q 24.125 74.21875 28.421875 74.21875 
Q 39.75 74.21875 46.484375 68.546875 
Q 53.21875 62.890625 53.21875 53.421875 
Q 53.21875 48.921875 51.53125 44.890625 
Q 49.859375 40.875 45.40625 35.40625 
Q 44.1875 33.984375 37.640625 27.21875 
Q 31.109375 20.453125 19.1875 8.296875 
z
" id="DejaVuSans-50"/>
       </defs>
       <use xlink:href="#DejaVuSans-50"/>
      </g>
     </g>
    </g>
    <g id="xtick_3">
     <g id="line2d_3">
      <g>
       <use style="stroke:#000000;stroke-width:0.8;" x="201.396496" xlink:href="#m09e2a0f6f5" y="242.6"/>
      </g>
     </g>
     <g id="text_3">
      <!-- 4 -->
      <g transform="translate(198.215246 257.198437)scale(0.1 -0.1)">
       <defs>
        <path d="M 37.796875 64.3125 
L 12.890625 25.390625 
L 37.796875 25.390625 
z
M 35.203125 72.90625 
L 47.609375 72.90625 
L 47.609375 25.390625 
L 58.015625 25.390625 
L 58.015625 17.1875 
L 47.609375 17.1875 
L 47.609375 0 
L 37.796875 0 
L 37.796875 17.1875 
L 4.890625 17.1875 
L 4.890625 26.703125 
z
" id="DejaVuSans-52"/>
       </defs>
       <use xlink:href="#DejaVuSans-52"/>
      </g>
     </g>
    </g>
    <g id="xtick_4">
     <g id="line2d_4">
      <g>
       <use style="stroke:#000000;stroke-width:0.8;" x="267.718253" xlink:href="#m09e2a0f6f5" y="242.6"/>
      </g>
     </g>
     <g id="text_4">
      <!-- 6 -->
      <g transform="translate(264.537003 257.198437)scale(0.1 -0.1)">
       <defs>
        <path d="M 33.015625 40.375 
Q 26.375 40.375 22.484375 35.828125 
Q 18.609375 31.296875 18.609375 23.390625 
Q 18.609375 15.53125 22.484375 10.953125 
Q 26.375 6.390625 33.015625 6.390625 
Q 39.65625 6.390625 43.53125 10.953125 
Q 47.40625 15.53125 47.40625 23.390625 
Q 47.40625 31.296875 43.53125 35.828125 
Q 39.65625 40.375 33.015625 40.375 
z
M 52.59375 71.296875 
L 52.59375 62.3125 
Q 48.875 64.0625 45.09375 64.984375 
Q 41.3125 65.921875 37.59375 65.921875 
Q 27.828125 65.921875 22.671875 59.328125 
Q 17.53125 52.734375 16.796875 39.40625 
Q 19.671875 43.65625 24.015625 45.921875 
Q 28.375 48.1875 33.59375 48.1875 
Q 44.578125 48.1875 50.953125 41.515625 
Q 57.328125 34.859375 57.328125 23.390625 
Q 57.328125 12.15625 50.6875 5.359375 
Q 44.046875 -1.421875 33.015625 -1.421875 
Q 20.359375 -1.421875 13.671875 8.265625 
Q 6.984375 17.96875 6.984375 36.375 
Q 6.984375 53.65625 15.1875 63.9375 
Q 23.390625 74.21875 37.203125 74.21875 
Q 40.921875 74.21875 44.703125 73.484375 
Q 48.484375 72.75 52.59375 71.296875 
z
" id="DejaVuSans-54"/>
       </defs>
       <use xlink:href="#DejaVuSans-54"/>
      </g>
     </g>
    </g>
    <g id="xtick_5">
     <g id="line2d_5">
      <g>
       <use style="stroke:#000000;stroke-width:0.8;" x="334.040009" xlink:href="#m09e2a0f6f5" y="242.6"/>
      </g>
     </g>
     <g id="text_5">
      <!-- 8 -->
      <g transform="translate(330.858759 257.198437)scale(0.1 -0.1)">
       <defs>
        <path d="M 31.78125 34.625 
Q 24.75 34.625 20.71875 30.859375 
Q 16.703125 27.09375 16.703125 20.515625 
Q 16.703125 13.921875 20.71875 10.15625 
Q 24.75 6.390625 31.78125 6.390625 
Q 38.8125 6.390625 42.859375 10.171875 
Q 46.921875 13.96875 46.921875 20.515625 
Q 46.921875 27.09375 42.890625 30.859375 
Q 38.875 34.625 31.78125 34.625 
z
M 21.921875 38.8125 
Q 15.578125 40.375 12.03125 44.71875 
Q 8.5 49.078125 8.5 55.328125 
Q 8.5 64.0625 14.71875 69.140625 
Q 20.953125 74.21875 31.78125 74.21875 
Q 42.671875 74.21875 48.875 69.140625 
Q 55.078125 64.0625 55.078125 55.328125 
Q 55.078125 49.078125 51.53125 44.71875 
Q 48 40.375 41.703125 38.8125 
Q 48.828125 37.15625 52.796875 32.3125 
Q 56.78125 27.484375 56.78125 20.515625 
Q 56.78125 9.90625 50.3125 4.234375 
Q 43.84375 -1.421875 31.78125 -1.421875 
Q 19.734375 -1.421875 13.25 4.234375 
Q 6.78125 9.90625 6.78125 20.515625 
Q 6.78125 27.484375 10.78125 32.3125 
Q 14.796875 37.15625 21.921875 38.8125 
z
M 18.3125 54.390625 
Q 18.3125 48.734375 21.84375 45.5625 
Q 25.390625 42.390625 31.78125 42.390625 
Q 38.140625 42.390625 41.71875 45.5625 
Q 45.3125 48.734375 45.3125 54.390625 
Q 45.3125 60.0625 41.71875 63.234375 
Q 38.140625 66.40625 31.78125 66.40625 
Q 25.390625 66.40625 21.84375 63.234375 
Q 18.3125 60.0625 18.3125 54.390625 
z
" id="DejaVuSans-56"/>
       </defs>
       <use xlink:href="#DejaVuSans-56"/>
      </g>
     </g>
    </g>
    <g id="xtick_6">
     <g id="line2d_6">
      <g>
       <use style="stroke:#000000;stroke-width:0.8;" x="400.361766" xlink:href="#m09e2a0f6f5" y="242.6"/>
      </g>
     </g>
     <g id="text_6">
      <!-- 10 -->
      <g transform="translate(393.999266 257.198437)scale(0.1 -0.1)">
       <defs>
        <path d="M 12.40625 8.296875 
L 28.515625 8.296875 
L 28.515625 63.921875 
L 10.984375 60.40625 
L 10.984375 69.390625 
L 28.421875 72.90625 
L 38.28125 72.90625 
L 38.28125 8.296875 
L 54.390625 8.296875 
L 54.390625 0 
L 12.40625 0 
z
" id="DejaVuSans-49"/>
       </defs>
       <use xlink:href="#DejaVuSans-49"/>
       <use x="63.623047" xlink:href="#DejaVuSans-48"/>
      </g>
     </g>
    </g>
    <g id="text_7">
     <!-- time (ms) -->
     <g transform="translate(210.411719 270.876562)scale(0.1 -0.1)">
      <defs>
       <path d="M 18.3125 70.21875 
L 18.3125 54.6875 
L 36.8125 54.6875 
L 36.8125 47.703125 
L 18.3125 47.703125 
L 18.3125 18.015625 
Q 18.3125 11.328125 20.140625 9.421875 
Q 21.96875 7.515625 27.59375 7.515625 
L 36.8125 7.515625 
L 36.8125 0 
L 27.59375 0 
Q 17.1875 0 13.234375 3.875 
Q 9.28125 7.765625 9.28125 18.015625 
L 9.28125 47.703125 
L 2.6875 47.703125 
L 2.6875 54.6875 
L 9.28125 54.6875 
L 9.28125 70.21875 
z
" id="DejaVuSans-116"/>
       <path d="M 9.421875 54.6875 
L 18.40625 54.6875 
L 18.40625 0 
L 9.421875 0 
z
M 9.421875 75.984375 
L 18.40625 75.984375 
L 18.40625 64.59375 
L 9.421875 64.59375 
z
" id="DejaVuSans-105"/>
       <path d="M 52 44.1875 
Q 55.375 50.25 60.0625 53.125 
Q 64.75 56 71.09375 56 
Q 79.640625 56 84.28125 50.015625 
Q 88.921875 44.046875 88.921875 33.015625 
L 88.921875 0 
L 79.890625 0 
L 79.890625 32.71875 
Q 79.890625 40.578125 77.09375 44.375 
Q 74.3125 48.1875 68.609375 48.1875 
Q 61.625 48.1875 57.5625 43.546875 
Q 53.515625 38.921875 53.515625 30.90625 
L 53.515625 0 
L 44.484375 0 
L 44.484375 32.71875 
Q 44.484375 40.625 41.703125 44.40625 
Q 38.921875 48.1875 33.109375 48.1875 
Q 26.21875 48.1875 22.15625 43.53125 
Q 18.109375 38.875 18.109375 30.90625 
L 18.109375 0 
L 9.078125 0 
L 9.078125 54.6875 
L 18.109375 54.6875 
L 18.109375 46.1875 
Q 21.1875 51.21875 25.484375 53.609375 
Q 29.78125 56 35.6875 56 
Q 41.65625 56 45.828125 52.96875 
Q 50 49.953125 52 44.1875 
z
" id="DejaVuSans-109"/>
       <path d="M 56.203125 29.59375 
L 56.203125 25.203125 
L 14.890625 25.203125 
Q 15.484375 15.921875 20.484375 11.0625 
Q 25.484375 6.203125 34.421875 6.203125 
Q 39.59375 6.203125 44.453125 7.46875 
Q 49.3125 8.734375 54.109375 11.28125 
L 54.109375 2.78125 
Q 49.265625 0.734375 44.1875 -0.34375 
Q 39.109375 -1.421875 33.890625 -1.421875 
Q 20.796875 -1.421875 13.15625 6.1875 
Q 5.515625 13.8125 5.515625 26.8125 
Q 5.515625 40.234375 12.765625 48.109375 
Q 20.015625 56 32.328125 56 
Q 43.359375 56 49.78125 48.890625 
Q 56.203125 41.796875 56.203125 29.59375 
z
M 47.21875 32.234375 
Q 47.125 39.59375 43.09375 43.984375 
Q 39.0625 48.390625 32.421875 48.390625 
Q 24.90625 48.390625 20.390625 44.140625 
Q 15.875 39.890625 15.1875 32.171875 
z
" id="DejaVuSans-101"/>
       <path id="DejaVuSans-32"/>
       <path d="M 31 75.875 
Q 24.46875 64.65625 21.28125 53.65625 
Q 18.109375 42.671875 18.109375 31.390625 
Q 18.109375 20.125 21.3125 9.0625 
Q 24.515625 -2 31 -13.1875 
L 23.1875 -13.1875 
Q 15.875 -1.703125 12.234375 9.375 
Q 8.59375 20.453125 8.59375 31.390625 
Q 8.59375 42.28125 12.203125 53.3125 
Q 15.828125 64.359375 23.1875 75.875 
z
" id="DejaVuSans-40"/>
       <path d="M 44.28125 53.078125 
L 44.28125 44.578125 
Q 40.484375 46.53125 36.375 47.5 
Q 32.28125 48.484375 27.875 48.484375 
Q 21.1875 48.484375 17.84375 46.4375 
Q 14.5 44.390625 14.5 40.28125 
Q 14.5 37.15625 16.890625 35.375 
Q 19.28125 33.59375 26.515625 31.984375 
L 29.59375 31.296875 
Q 39.15625 29.25 43.1875 25.515625 
Q 47.21875 21.78125 47.21875 15.09375 
Q 47.21875 7.46875 41.1875 3.015625 
Q 35.15625 -1.421875 24.609375 -1.421875 
Q 20.21875 -1.421875 15.453125 -0.5625 
Q 10.6875 0.296875 5.421875 2 
L 5.421875 11.28125 
Q 10.40625 8.6875 15.234375 7.390625 
Q 20.0625 6.109375 24.8125 6.109375 
Q 31.15625 6.109375 34.5625 8.28125 
Q 37.984375 10.453125 37.984375 14.40625 
Q 37.984375 18.0625 35.515625 20.015625 
Q 33.0625 21.96875 24.703125 23.78125 
L 21.578125 24.515625 
Q 13.234375 26.265625 9.515625 29.90625 
Q 5.8125 33.546875 5.8125 39.890625 
Q 5.8125 47.609375 11.28125 51.796875 
Q 16.75 56 26.8125 56 
Q 31.78125 56 36.171875 55.265625 
Q 40.578125 54.546875 44.28125 53.078125 
z
" id="DejaVuSans-115"/>
       <path d="M 8.015625 75.875 
L 15.828125 75.875 
Q 23.140625 64.359375 26.78125 53.3125 
Q 30.421875 42.28125 30.421875 31.390625 
Q 30.421875 20.453125 26.78125 9.375 
Q 23.140625 -1.703125 15.828125 -13.1875 
L 8.015625 -13.1875 
Q 14.5 -2 17.703125 9.0625 
Q 20.90625 20.125 20.90625 31.390625 
Q 20.90625 42.671875 17.703125 53.65625 
Q 14.5 64.65625 8.015625 75.875 
z
" id="DejaVuSans-41"/>
      </defs>
      <use xlink:href="#DejaVuSans-116"/>
      <use x="39.208984" xlink:href="#DejaVuSans-105"/>
      <use x="66.992188" xlink:href="#DejaVuSans-109"/>
      <use x="164.404297" xlink:href="#DejaVuSans-101"/>
      <use x="225.927734" xlink:href="#DejaVuSans-32"/>
      <use x="257.714844" xlink:href="#DejaVuSans-40"/>
      <use x="296.728516" xlink:href="#DejaVuSans-109"/>
      <use x="394.140625" xlink:href="#DejaVuSans-115"/>
      <use x="446.240234" xlink:href="#DejaVuSans-41"/>
     </g>
    </g>
   </g>
   <g id="matplotlib.axis_2">
    <g id="ytick_1">
     <g id="line2d_7">
      <defs>
       <path d="M 0 0 
L -3.5 0 
" id="m0a68e5a24c" style="stroke:#000000;stroke-width:0.8;"/>
      </defs>
      <g>
       <use style="stroke:#000000;stroke-width:0.8;" x="52.160938" xlink:href="#m0a68e5a24c" y="216.084248"/>
      </g>
     </g>
     <g id="text_8">
      <!-- −1.5 -->
      <g transform="translate(20.878125 219.883467)scale(0.1 -0.1)">
       <defs>
        <path d="M 10.59375 35.5 
L 73.1875 35.5 
L 73.1875 27.203125 
L 10.59375 27.203125 
z
" id="DejaVuSans-8722"/>
        <path d="M 10.6875 12.40625 
L 21 12.40625 
L 21 0 
L 10.6875 0 
z
" id="DejaVuSans-46"/>
        <path d="M 10.796875 72.90625 
L 49.515625 72.90625 
L 49.515625 64.59375 
L 19.828125 64.59375 
L 19.828125 46.734375 
Q 21.96875 47.46875 24.109375 47.828125 
Q 26.265625 48.1875 28.421875 48.1875 
Q 40.625 48.1875 47.75 41.5 
Q 54.890625 34.8125 54.890625 23.390625 
Q 54.890625 11.625 47.5625 5.09375 
Q 40.234375 -1.421875 26.90625 -1.421875 
Q 22.3125 -1.421875 17.546875 -0.640625 
Q 12.796875 0.140625 7.71875 1.703125 
L 7.71875 11.625 
Q 12.109375 9.234375 16.796875 8.0625 
Q 21.484375 6.890625 26.703125 6.890625 
Q 35.15625 6.890625 40.078125 11.328125 
Q 45.015625 15.765625 45.015625 23.390625 
Q 45.015625 31 40.078125 35.4375 
Q 35.15625 39.890625 26.703125 39.890625 
Q 22.75 39.890625 18.8125 39.015625 
Q 14.890625 38.140625 10.796875 36.28125 
z
" id="DejaVuSans-53"/>
       </defs>
       <use xlink:href="#DejaVuSans-8722"/>
       <use x="83.789062" xlink:href="#DejaVuSans-49"/>
       <use x="147.412109" xlink:href="#DejaVuSans-46"/>
       <use x="179.199219" xlink:href="#DejaVuSans-53"/>
      </g>
     </g>
    </g>
    <g id="ytick_2">
     <g id="line2d_8">
      <g>
       <use style="stroke:#000000;stroke-width:0.8;" x="52.160938" xlink:href="#m0a68e5a24c" y="185.689499"/>
      </g>
     </g>
     <g id="text_9">
      <!-- −1.0 -->
      <g transform="translate(20.878125 189.488718)scale(0.1 -0.1)">
       <use xlink:href="#DejaVuSans-8722"/>
       <use x="83.789062" xlink:href="#DejaVuSans-49"/>
       <use x="147.412109" xlink:href="#DejaVuSans-46"/>
       <use x="179.199219" xlink:href="#DejaVuSans-48"/>
      </g>
     </g>
    </g>
    <g id="ytick_3">
     <g id="line2d_9">
      <g>
       <use style="stroke:#000000;stroke-width:0.8;" x="52.160938" xlink:href="#m0a68e5a24c" y="155.294749"/>
      </g>
     </g>
     <g id="text_10">
      <!-- −0.5 -->
      <g transform="translate(20.878125 159.093968)scale(0.1 -0.1)">
       <use xlink:href="#DejaVuSans-8722"/>
       <use x="83.789062" xlink:href="#DejaVuSans-48"/>
       <use x="147.412109" xlink:href="#DejaVuSans-46"/>
       <use x="179.199219" xlink:href="#DejaVuSans-53"/>
      </g>
     </g>
    </g>
    <g id="ytick_4">
     <g id="line2d_10">
      <g>
       <use style="stroke:#000000;stroke-width:0.8;" x="52.160938" xlink:href="#m0a68e5a24c" y="124.9"/>
      </g>
     </g>
     <g id="text_11">
      <!-- 0.0 -->
      <g transform="translate(29.257812 128.699219)scale(0.1 -0.1)">
       <use xlink:href="#DejaVuSans-48"/>
       <use x="63.623047" xlink:href="#DejaVuSans-46"/>
       <use x="95.410156" xlink:href="#DejaVuSans-48"/>
      </g>
     </g>
    </g>
    <g id="ytick_5">
     <g id="line2d_11">
      <g>
       <use style="stroke:#000000;stroke-width:0.8;" x="52.160938" xlink:href="#m0a68e5a24c" y="94.505251"/>
      </g>
     </g>
     <g id="text_12">
      <!-- 0.5 -->
      <g transform="translate(29.257812 98.304469)scale(0.1 -0.1)">
       <use xlink:href="#DejaVuSans-48"/>
       <use x="63.623047" xlink:href="#DejaVuSans-46"/>
       <use x="95.410156" xlink:href="#DejaVuSans-53"/>
      </g>
     </g>
    </g>
    <g id="ytick_6">
     <g id="line2d_12">
      <g>
       <use style="stroke:#000000;stroke-width:0.8;" x="52.160938" xlink:href="#m0a68e5a24c" y="64.110501"/>
      </g>
     </g>
     <g id="text_13">
      <!-- 1.0 -->
      <g transform="translate(29.257812 67.90972)scale(0.1 -0.1)">
       <use xlink:href="#DejaVuSans-49"/>
       <use x="63.623047" xlink:href="#DejaVuSans-46"/>
       <use x="95.410156" xlink:href="#DejaVuSans-48"/>
      </g>
     </g>
    </g>
    <g id="ytick_7">
     <g id="line2d_13">
      <g>
       <use style="stroke:#000000;stroke-width:0.8;" x="52.160938" xlink:href="#m0a68e5a24c" y="33.715752"/>
      </g>
     </g>
     <g id="text_14">
      <!-- 1.5 -->
      <g transform="translate(29.257812 37.51497)scale(0.1 -0.1)">
       <use xlink:href="#DejaVuSans-49"/>
       <use x="63.623047" xlink:href="#DejaVuSans-46"/>
       <use x="95.410156" xlink:href="#DejaVuSans-53"/>
      </g>
     </g>
    </g>
    <g id="text_15">
     <!-- IN [V] -->
     <g transform="translate(14.798438 139.026562)rotate(-90)scale(0.1 -0.1)">
      <defs>
       <path d="M 9.8125 72.90625 
L 19.671875 72.90625 
L 19.671875 0 
L 9.8125 0 
z
" id="DejaVuSans-73"/>
       <path d="M 9.8125 72.90625 
L 23.09375 72.90625 
L 55.421875 11.921875 
L 55.421875 72.90625 
L 64.984375 72.90625 
L 64.984375 0 
L 51.703125 0 
L 19.390625 60.984375 
L 19.390625 0 
L 9.8125 0 
z
" id="DejaVuSans-78"/>
       <path d="M 8.59375 75.984375 
L 29.296875 75.984375 
L 29.296875 69 
L 17.578125 69 
L 17.578125 -6.203125 
L 29.296875 -6.203125 
L 29.296875 -13.1875 
L 8.59375 -13.1875 
z
" id="DejaVuSans-91"/>
       <path d="M 28.609375 0 
L 0.78125 72.90625 
L 11.078125 72.90625 
L 34.1875 11.53125 
L 57.328125 72.90625 
L 67.578125 72.90625 
L 39.796875 0 
z
" id="DejaVuSans-86"/>
       <path d="M 30.421875 75.984375 
L 30.421875 -13.1875 
L 9.71875 -13.1875 
L 9.71875 -6.203125 
L 21.390625 -6.203125 
L 21.390625 69 
L 9.71875 69 
L 9.71875 75.984375 
z
" id="DejaVuSans-93"/>
      </defs>
      <use xlink:href="#DejaVuSans-73"/>
      <use x="29.492188" xlink:href="#DejaVuSans-78"/>
      <use x="104.296875" xlink:href="#DejaVuSans-32"/>
      <use x="136.083984" xlink:href="#DejaVuSans-91"/>
      <use x="175.097656" xlink:href="#DejaVuSans-86"/>
      <use x="243.505859" xlink:href="#DejaVuSans-93"/>
     </g>
    </g>
   </g>
   <g id="line2d_14">
    <path clip-path="url(#p852aa33da5)" d="M 68.752983 124.9 
L 70.941601 136.878195 
L 72.069071 141.846183 
L 72.931254 144.71444 
L 73.627632 146.31137 
L 74.158206 147.04478 
L 74.589298 147.31107 
L 74.954067 147.295414 
L 75.318837 147.052169 
L 75.749928 146.464481 
L 76.247341 145.374999 
L 76.844237 143.479469 
L 77.540616 140.457909 
L 78.336477 135.95767 
L 79.264981 129.365058 
L 80.35929 119.915898 
L 81.718886 106.093544 
L 83.675378 83.643909 
L 86.726179 48.782481 
L 88.052614 36.163816 
L 89.113762 28.054083 
L 89.975945 23.056903 
L 90.672324 20.192105 
L 91.236058 18.695689 
L 91.66715 18.069643 
L 91.998759 17.901621 
L 92.297207 17.987188 
L 92.628815 18.348136 
L 93.026746 19.153478 
L 93.524159 20.733427 
L 94.121055 23.468194 
L 94.817433 27.800043 
L 95.646455 34.510428 
L 96.608121 44.288164 
L 97.735591 58.206645 
L 99.095187 77.914917 
L 100.952196 108.353951 
L 105.196788 178.924729 
L 106.622706 198.45033 
L 107.783337 211.493823 
L 108.778163 220.288243 
L 109.607185 225.787661 
L 110.303563 229.066573 
L 110.900459 230.88604 
L 111.364712 231.667464 
L 111.729481 231.894915 
L 112.027929 231.830582 
L 112.359538 231.498154 
L 112.757468 230.742881 
L 113.254882 229.266108 
L 113.851777 226.743097 
L 114.581317 222.613279 
L 115.4435 216.383098 
L 116.504648 206.990857 
L 117.864244 192.821093 
L 120.119183 166.549296 
L 122.573088 138.766105 
L 123.999006 125.091322 
L 125.126476 116.265489 
L 126.088142 110.363851 
L 126.917163 106.570825 
L 127.613542 104.338542 
L 128.210438 103.119684 
L 128.67469 102.608701 
L 129.072621 102.468204 
L 129.43739 102.574129 
L 129.835321 102.937372 
L 130.332734 103.739008 
L 130.92963 105.178467 
L 131.659169 107.577248 
L 132.554513 111.339026 
L 133.748304 117.401211 
L 138.225023 141.194203 
L 139.120367 144.334044 
L 139.816745 146.060992 
L 140.38048 146.940707 
L 140.844732 147.289934 
L 141.209502 147.315022 
L 141.574272 147.113567 
L 141.972202 146.629288 
L 142.469615 145.628435 
L 143.03335 143.956269 
L 143.696568 141.255907 
L 144.459268 137.185217 
L 145.354612 131.142833 
L 146.41576 122.359712 
L 147.709034 109.643355 
L 149.466561 89.905038 
L 153.313223 46.073932 
L 154.573336 34.493717 
L 155.601323 26.975304 
L 156.430345 22.427526 
L 157.093563 19.87335 
L 157.657298 18.510788 
L 158.088389 17.990361 
L 158.419998 17.905085 
L 158.718446 18.065981 
L 159.050055 18.511318 
L 159.481146 19.512484 
L 160.01172 21.401561 
L 160.641777 24.58154 
L 161.371316 29.511757 
L 162.233499 37.000749 
L 163.228325 47.72885 
L 164.422117 63.211624 
L 165.881195 85.224874 
L 168.102974 122.608471 
L 171.153775 173.417714 
L 172.679176 195.086961 
L 173.872967 209.114617 
L 174.900954 218.716634 
L 175.763137 224.825115 
L 176.492677 228.537714 
L 177.089572 230.561019 
L 177.586986 231.546551 
L 177.951755 231.86642 
L 178.250203 231.876902 
L 178.548651 231.663836 
L 178.913421 231.104311 
L 179.377673 229.92665 
L 179.941408 227.819059 
L 180.637786 224.242711 
L 181.466808 218.694418 
L 182.461635 210.411535 
L 183.721748 197.877393 
L 185.512435 177.559522 
L 188.994328 137.734916 
L 190.387085 124.519437 
L 191.514554 115.808526 
L 192.47622 110.015521 
L 193.272081 106.444687 
L 193.968459 104.254064 
L 194.532194 103.119684 
L 194.996447 102.608701 
L 195.394377 102.468204 
L 195.759147 102.574129 
L 196.157077 102.937372 
L 196.654491 103.739008 
L 197.251386 105.178467 
L 197.980926 107.577248 
L 198.876269 111.339026 
L 200.070061 117.401211 
L 204.54678 141.194203 
L 205.442123 144.334044 
L 206.138502 146.060992 
L 206.702237 146.940707 
L 207.166489 147.289934 
L 207.531259 147.315022 
L 207.896028 147.113567 
L 208.293959 146.629288 
L 208.791372 145.628435 
L 209.355107 143.956269 
L 210.018324 141.255907 
L 210.781025 137.185217 
L 211.676368 131.142833 
L 212.737517 122.359712 
L 214.030791 109.643355 
L 215.788317 89.905038 
L 219.634979 46.073932 
L 220.895093 34.493717 
L 221.92308 26.975304 
L 222.752102 22.427526 
L 223.415319 19.87335 
L 223.979054 18.510788 
L 224.410146 17.990361 
L 224.741754 17.905085 
L 225.040202 18.065981 
L 225.371811 18.511318 
L 225.802903 19.512484 
L 226.333477 21.401561 
L 226.963533 24.58154 
L 227.693073 29.511757 
L 228.555255 37.000749 
L 229.550082 47.72885 
L 230.743873 63.211624 
L 232.202952 85.224874 
L 234.424731 122.608471 
L 237.475532 173.417714 
L 239.000932 195.086961 
L 240.194724 209.114617 
L 241.222711 218.716634 
L 242.084894 224.825115 
L 242.814433 228.537714 
L 243.411329 230.561019 
L 243.908742 231.546551 
L 244.273512 231.86642 
L 244.57196 231.876902 
L 244.870408 231.663836 
L 245.235177 231.104311 
L 245.69943 229.92665 
L 246.263164 227.819059 
L 246.959543 224.242711 
L 247.788565 218.694418 
L 248.783391 210.411535 
L 250.043505 197.877393 
L 251.834192 177.559522 
L 255.316084 137.734916 
L 256.708841 124.519437 
L 257.836311 115.808526 
L 258.797976 110.015521 
L 259.593838 106.444687 
L 260.290216 104.254064 
L 260.853951 103.119684 
L 261.318203 102.608701 
L 261.716134 102.468204 
L 262.080903 102.574129 
L 262.478834 102.937372 
L 262.976247 103.739008 
L 263.573143 105.178467 
L 264.302682 107.577248 
L 265.198026 111.339026 
L 266.391818 117.401211 
L 270.868536 141.194203 
L 271.76388 144.334044 
L 272.460258 146.060992 
L 273.023993 146.940707 
L 273.488246 147.289934 
L 273.853015 147.315022 
L 274.217785 147.113567 
L 274.615715 146.629288 
L 275.113129 145.628435 
L 275.676864 143.956269 
L 276.340081 141.255907 
L 277.102781 137.185217 
L 277.998125 131.142833 
L 279.059273 122.359712 
L 280.352547 109.643355 
L 282.110074 89.905038 
L 285.956736 46.073932 
L 287.216849 34.493717 
L 288.244836 26.975304 
L 289.073858 22.427526 
L 289.737076 19.87335 
L 290.300811 18.510788 
L 290.731902 17.990361 
L 291.063511 17.905085 
L 291.361959 18.065981 
L 291.693568 18.511318 
L 292.124659 19.512484 
L 292.655233 21.401561 
L 293.28529 24.58154 
L 294.014829 29.511757 
L 294.877012 37.000749 
L 295.871838 47.72885 
L 297.06563 63.211624 
L 298.524709 85.224874 
L 300.746488 122.608471 
L 303.797288 173.417714 
L 305.322689 195.086961 
L 306.51648 209.114617 
L 307.544468 218.716634 
L 308.40665 224.825115 
L 309.13619 228.537714 
L 309.733086 230.561019 
L 310.230499 231.546551 
L 310.595268 231.86642 
L 310.893716 231.876902 
L 311.192164 231.663836 
L 311.556934 231.104311 
L 312.021186 229.92665 
L 312.584921 227.819059 
L 313.281299 224.242711 
L 314.110321 218.694418 
L 315.105148 210.411535 
L 316.365261 197.877393 
L 318.155949 177.559522 
L 321.637841 137.734916 
L 323.030598 124.519437 
L 324.158068 115.808526 
L 325.119733 110.015521 
L 325.915594 106.444687 
L 326.611973 104.254064 
L 327.175708 103.119684 
L 327.63996 102.608701 
L 328.03789 102.468204 
L 328.40266 102.574129 
L 328.800591 102.937372 
L 329.298004 103.739008 
L 329.8949 105.178467 
L 330.624439 107.577248 
L 331.519783 111.339026 
L 332.713574 117.401211 
L 337.190293 141.194203 
L 338.085636 144.334044 
L 338.782015 146.060992 
L 339.34575 146.940707 
L 339.810002 147.289934 
L 340.174772 147.315022 
L 340.539541 147.113567 
L 340.937472 146.629288 
L 341.434885 145.628435 
L 341.99862 143.956269 
L 342.661838 141.255907 
L 343.424538 137.185217 
L 344.319882 131.142833 
L 345.38103 122.359712 
L 346.674304 109.643355 
L 348.43183 89.905038 
L 352.278492 46.073932 
L 353.538606 34.493717 
L 354.566593 26.975304 
L 355.395615 22.427526 
L 356.058832 19.87335 
L 356.622567 18.510788 
L 357.053659 17.990361 
L 357.385268 17.905085 
L 357.683716 18.065981 
L 358.015324 18.511318 
L 358.446416 19.512484 
L 358.97699 21.401561 
L 359.607046 24.58154 
L 360.336586 29.511757 
L 361.198769 37.000749 
L 362.193595 47.72885 
L 363.387387 63.211624 
L 364.846465 85.224874 
L 367.068244 122.608471 
L 370.119045 173.417714 
L 371.644445 195.086961 
L 372.838237 209.114617 
L 373.866224 218.716634 
L 374.728407 224.825115 
L 375.457946 228.537714 
L 376.054842 230.561019 
L 376.552255 231.546551 
L 376.917025 231.86642 
L 377.215473 231.876902 
L 377.513921 231.663836 
L 377.87869 231.104311 
L 378.342943 229.92665 
L 378.906678 227.819059 
L 379.603056 224.242711 
L 380.432078 218.694418 
L 381.426904 210.411535 
L 382.687018 197.877393 
L 384.477705 177.559522 
L 387.959597 137.734916 
L 389.352354 124.519437 
L 390.479824 115.808526 
L 391.44149 110.015521 
L 392.237351 106.444687 
L 392.933729 104.254064 
L 393.497464 103.119684 
L 393.961716 102.608701 
L 394.359647 102.468204 
L 394.724417 102.574129 
L 395.122347 102.937372 
L 395.61976 103.739008 
L 396.216656 105.178467 
L 396.946195 107.577248 
L 397.841539 111.339026 
L 399.035331 117.401211 
L 400.593892 126.236077 
L 400.593892 126.236077 
" style="fill:none;stroke:#808080;stroke-linecap:square;stroke-width:4;"/>
   </g>
   <g id="line2d_15">
    <path clip-path="url(#p852aa33da5)" d="M 68.752983 124.9 
L 68.894912 124.804109 
L 69.027555 124.871489 
L 69.292842 125.51376 
L 69.922899 127.783777 
L 72.409965 137.223872 
L 73.205826 139.276763 
L 73.835882 140.352683 
L 74.333296 140.815807 
L 74.731226 140.924294 
L 75.095996 140.811303 
L 75.493926 140.451096 
L 75.958179 139.715094 
L 76.521914 138.366972 
L 77.185131 136.166738 
L 78.014153 132.587622 
L 79.705358 124.896531 
L 79.80484 125.000252 
L 79.937484 125.176638 
L 79.970645 125.14724 
L 80.136449 124.666665 
L 80.53438 122.569489 
L 81.230758 117.486718 
L 82.258745 108.15502 
L 83.817307 91.718837 
L 87.199716 55.602198 
L 88.393508 45.384165 
L 89.355173 38.916084 
L 90.151035 34.986231 
L 90.781091 32.888369 
L 91.278504 31.904524 
L 91.676435 31.560255 
L 91.974883 31.565843 
L 92.273331 31.800446 
L 92.6381 32.40078 
L 93.102353 33.666107 
L 93.666088 35.956204 
L 94.329305 39.695063 
L 95.092005 45.3473 
L 95.987349 53.717208 
L 97.081658 66.208309 
L 98.474415 84.921043 
L 101.32625 124.263344 
L 101.525216 125.173004 
L 101.624698 125.024364 
L 101.657859 125.125575 
L 101.823664 126.713897 
L 102.486881 135.919992 
L 106.830956 199.917693 
L 107.925265 211.701498 
L 108.85377 219.499863 
L 109.649631 224.43321 
L 110.312849 227.256799 
L 110.843423 228.659085 
L 111.274514 229.237008 
L 111.606123 229.341224 
L 111.904571 229.184564 
L 112.236179 228.735894 
L 112.667271 227.728713 
L 113.197845 225.850686 
L 113.827902 222.747712 
L 114.590602 217.813594 
L 115.519106 210.257769 
L 116.679737 198.849036 
L 118.30462 180.40734 
L 121.852834 139.473436 
L 122.947143 129.608284 
L 123.5772 125.584317 
L 123.842487 124.864121 
L 123.941969 125.015747 
L 124.041452 125.140694 
L 124.074613 125.120464 
L 124.240417 124.68888 
L 124.737831 122.430237 
L 126.462196 114.323249 
L 127.258057 111.693621 
L 127.921275 110.218163 
L 128.451849 109.524398 
L 128.88294 109.278226 
L 129.280871 109.298137 
L 129.678801 109.547263 
L 130.143054 110.113374 
L 130.706789 111.169938 
L 131.436328 113.064074 
L 132.397993 116.262785 
L 134.851898 124.798349 
L 135.117185 125.086388 
L 135.249829 124.985666 
L 135.448794 124.783225 
L 135.614599 125.077699 
L 136.078851 126.548655 
L 137.471608 132.046353 
L 138.665399 136.268771 
L 139.494421 138.442578 
L 140.124478 139.542868 
L 140.621891 140.029478 
L 141.052983 140.159099 
L 141.417752 140.048413 
L 141.815683 139.691946 
L 142.279935 138.962105 
L 142.84367 137.624613 
L 143.506888 135.44302 
L 144.33591 131.90385 
L 145.927632 124.860217 
L 146.027114 124.943909 
L 146.159758 125.141725 
L 146.192919 125.121584 
L 146.325562 124.7979 
L 146.657171 123.225078 
L 147.254067 119.201992 
L 148.182572 111.263997 
L 149.542168 97.47519 
L 154.085208 49.722115 
L 155.179517 41.254077 
L 156.0417 36.157704 
L 156.738078 33.20459 
L 157.301813 31.638886 
L 157.766065 30.931256 
L 158.097674 30.75691 
L 158.396122 30.840021 
L 158.727731 31.201974 
L 159.125661 32.013664 
L 159.623075 33.608831 
L 160.21997 36.370252 
L 160.916349 40.738395 
L 161.745371 47.482872 
L 162.707036 57.248588 
L 163.867667 71.423103 
L 165.459389 93.862788 
L 167.515364 122.611235 
L 167.846972 125.104128 
L 167.880133 125.140916 
L 167.913294 125.097305 
L 167.979616 124.983706 
L 168.012777 125.061469 
L 168.178581 126.602196 
L 168.841799 135.783741 
L 173.152713 199.197158 
L 174.280183 211.295067 
L 175.208687 219.018221 
L 176.004548 223.884021 
L 176.667766 226.650303 
L 177.19834 228.00672 
L 177.596271 228.523884 
L 177.927879 228.629484 
L 178.226327 228.474145 
L 178.557936 228.027029 
L 178.989027 227.022 
L 179.519602 225.146829 
L 180.149658 222.047553 
L 180.912358 217.118387 
L 181.840863 209.569367 
L 183.001494 198.170591 
L 184.626377 179.746649 
L 188.174591 138.896095 
L 189.235739 129.372226 
L 189.865796 125.416521 
L 190.097922 124.834337 
L 190.197404 124.988845 
L 190.296887 125.109123 
L 190.330048 125.086147 
L 190.495852 124.640221 
L 190.993265 122.338349 
L 192.717631 114.055205 
L 193.513492 111.338523 
L 194.17671 109.791276 
L 194.707284 109.041957 
L 195.171536 108.742079 
L 195.569467 108.743831 
L 195.967397 108.976471 
L 196.431649 109.525766 
L 196.995384 110.565979 
L 197.691763 112.349878 
L 198.620267 115.406078 
L 201.339459 124.881566 
L 201.571586 125.052586 
L 201.704229 124.890383 
L 201.870033 124.753416 
L 202.035838 125.047411 
L 202.50009 126.509751 
L 204.124973 132.81191 
L 205.186121 136.335985 
L 205.948822 138.188797 
L 206.545717 139.138431 
L 207.04313 139.554325 
L 207.441061 139.625577 
L 207.838992 139.455831 
L 208.270083 138.99445 
L 208.767496 138.101384 
L 209.364392 136.527951 
L 210.093931 133.907913 
L 211.055597 129.520514 
L 212.083584 124.982869 
L 212.216228 124.823851 
L 212.249388 124.849923 
L 212.448354 125.096118 
L 212.481515 125.05051 
L 212.68048 124.401296 
L 213.111571 122.046908 
L 213.841111 116.646162 
L 214.902259 106.935054 
L 216.493981 90.062389 
L 219.776908 54.895293 
L 221.00386 44.301753 
L 221.965526 37.774652 
L 222.761387 33.790538 
L 223.391443 31.64701 
L 223.888857 30.625877 
L 224.286787 30.251245 
L 224.585235 30.233872 
L 224.883683 30.445446 
L 225.248453 31.017663 
L 225.679544 32.141004 
L 226.210118 34.188189 
L 226.840175 37.561901 
L 227.602875 42.977965 
L 228.498219 51.09525 
L 229.559367 62.924883 
L 230.885802 80.427242 
L 234.135568 124.851144 
L 234.235051 125.112297 
L 234.268212 125.057612 
L 234.334533 124.962047 
L 234.367694 125.059938 
L 234.533499 126.642344 
L 235.196716 135.84117 
L 239.441309 198.299886 
L 240.568778 210.479539 
L 241.497283 218.279541 
L 242.293144 223.21574 
L 242.956362 226.042555 
L 243.486936 227.447917 
L 243.918027 228.028643 
L 244.249636 228.135194 
L 244.548084 227.980765 
L 244.879693 227.534718 
L 245.310784 226.531172 
L 245.841358 224.657971 
L 246.471415 221.561248 
L 247.234115 216.635501 
L 248.16262 209.091187 
L 249.32325 197.699305 
L 250.948133 179.287686 
L 254.463186 138.82755 
L 255.524335 129.286151 
L 256.12123 125.488016 
L 256.386517 124.813586 
L 256.585483 125.078561 
L 256.651804 124.978935 
L 256.917091 124.001421 
L 257.812435 119.424984 
L 258.973066 113.953441 
L 259.802088 111.056729 
L 260.465305 109.472578 
L 261.02904 108.660996 
L 261.493293 108.361392 
L 261.891223 108.364067 
L 262.289154 108.598241 
L 262.753406 109.150105 
L 263.317141 110.194639 
L 264.013519 111.985998 
L 264.942024 115.057138 
L 267.760699 124.902807 
L 267.959664 125.029161 
L 268.092307 124.870523 
L 268.258112 124.727739 
L 268.423916 125.017178 
L 268.888169 126.469957 
L 271.97213 137.17837 
L 272.635348 138.457888 
L 273.165922 139.062673 
L 273.597013 139.257294 
L 273.994944 139.1898 
L 274.392874 138.878772 
L 274.857127 138.20435 
L 275.420862 136.936959 
L 276.084079 134.841038 
L 276.913101 131.41443 
L 278.438501 124.822913 
L 278.537984 124.843905 
L 278.703788 125.087579 
L 278.736949 125.061302 
L 278.902754 124.609407 
L 279.300684 122.599842 
L 279.963902 117.935945 
L 280.958728 109.173661 
L 282.384646 94.434019 
L 286.463434 51.135671 
L 287.590904 41.947154 
L 288.519408 36.091314 
L 289.248948 32.756867 
L 289.845844 30.936542 
L 290.310096 30.116687 
L 290.674866 29.850237 
L 290.973313 29.884208 
L 291.271761 30.147662 
L 291.636531 30.783776 
L 292.100783 32.095251 
L 292.664518 34.441907 
L 293.327736 38.247393 
L 294.123597 44.256138 
L 295.052101 53.127911 
L 296.14641 65.856781 
L 297.572328 85.288381 
L 300.357842 124.016143 
L 300.556807 125.086406 
L 300.589968 125.074314 
L 300.65629 124.936784 
L 300.689451 124.9677 
L 300.822094 126.026536 
L 301.385829 133.561623 
L 303.30916 163.543579 
L 305.066687 189.127016 
L 306.3268 204.389771 
L 307.354787 214.296941 
L 308.21697 220.606896 
L 308.946509 224.429676 
L 309.543405 226.49402 
L 310.007658 227.432508 
L 310.372427 227.761482 
L 310.670875 227.765419 
L 310.969323 227.53322 
L 311.334093 226.933416 
L 311.798345 225.678329 
L 312.36208 223.439424 
L 313.058458 219.650006 
L 313.88748 213.787979 
L 314.882307 205.07194 
L 316.175581 191.602589 
L 318.231555 167.453215 
L 320.552817 140.911645 
L 321.680287 130.353242 
L 322.376665 125.635276 
L 322.641952 124.798222 
L 322.708274 124.828174 
L 322.874078 125.058748 
L 322.907239 125.022912 
L 323.106205 124.404233 
L 323.7031 121.471457 
L 325.228501 113.968568 
L 326.057523 110.987997 
L 326.72074 109.334181 
L 327.284475 108.463778 
L 327.748727 108.11706 
L 328.146658 108.080897 
L 328.544589 108.278119 
L 329.008841 108.789826 
L 329.572576 109.790806 
L 330.268954 111.53801 
L 331.164298 114.452014 
L 332.722859 120.471185 
L 333.784007 124.153568 
L 334.181938 124.945765 
L 334.380903 124.977672 
L 334.64619 124.725026 
L 334.679351 124.767691 
L 334.944638 125.408571 
L 335.607856 127.748878 
L 337.66383 135.236966 
L 338.492852 137.363893 
L 339.122909 138.431784 
L 339.620322 138.89456 
L 340.018252 139.006321 
L 340.416183 138.879251 
L 340.814114 138.508078 
L 341.278366 137.76394 
L 341.842101 136.414873 
L 342.538479 134.107403 
L 343.433823 130.264748 
L 344.693936 124.849101 
L 344.793419 124.783922 
L 344.82658 124.821074 
L 344.992384 125.06911 
L 345.025545 125.045304 
L 345.191349 124.603713 
L 345.556119 122.808538 
L 346.219337 118.236102 
L 347.181002 109.880322 
L 348.573759 95.619364 
L 352.917834 49.684871 
L 354.012143 40.972846 
L 354.907487 35.473364 
L 355.637026 32.247112 
L 356.233922 30.521541 
L 356.698174 29.778446 
L 357.062944 29.573771 
L 357.361392 29.659018 
L 357.693001 30.023528 
L 358.090931 30.838548 
L 358.588344 32.438295 
L 359.18524 35.205865 
L 359.881619 39.582178 
L 360.710641 46.338027 
L 361.672306 56.119816 
L 362.832937 70.319835 
L 364.424659 92.816571 
L 366.546955 122.611514 
L 366.878564 125.050457 
L 366.911725 125.071717 
L 366.944886 125.01517 
L 367.011207 124.923482 
L 367.044368 125.025145 
L 367.210173 126.61523 
L 367.87339 135.815145 
L 372.084822 197.706661 
L 373.212292 209.8856 
L 374.140796 217.686325 
L 374.936657 222.623846 
L 375.599875 225.452175 
L 376.130449 226.858987 
L 376.56154 227.441038 
L 376.893149 227.548695 
L 377.191597 227.395324 
L 377.523206 226.950521 
L 377.954297 225.948702 
L 378.484871 224.077797 
L 379.114928 220.984052 
L 379.877628 216.062298 
L 380.806133 208.523487 
L 381.966763 197.13968 
L 383.591647 178.742536 
L 387.1067 138.350909 
L 388.167848 128.882657 
L 388.764744 125.233446 
L 388.963709 124.774187 
L 388.99687 124.794866 
L 389.162674 125.046418 
L 389.195835 125.020617 
L 389.361639 124.556918 
L 389.859053 122.193451 
L 391.64974 113.378061 
L 392.445601 110.605964 
L 393.108819 109.018083 
L 393.672554 108.205455 
L 394.136806 107.906195 
L 394.534736 107.909947 
L 394.932667 108.145896 
L 395.396919 108.700716 
L 395.960654 109.750209 
L 396.657033 111.550095 
L 397.585537 114.638213 
L 400.361766 124.661868 
L 400.361766 124.661868 
" style="fill:none;stroke:#0000ff;stroke-linecap:square;stroke-width:1.5;"/>
   </g>
   <g id="patch_3">
    <path d="M 52.160938 242.6 
L 52.160938 7.2 
" style="fill:none;stroke:#000000;stroke-linecap:square;stroke-linejoin:miter;stroke-width:0.8;"/>
   </g>
   <g id="patch_4">
    <path d="M 417.185937 242.6 
L 417.185937 7.2 
" style="fill:none;stroke:#000000;stroke-linecap:square;stroke-linejoin:miter;stroke-width:0.8;"/>
   </g>
   <g id="patch_5">
    <path d="M 52.160938 242.6 
L 417.185938 242.6 
" style="fill:none;stroke:#000000;stroke-linecap:square;stroke-linejoin:miter;stroke-width:0.8;"/>
   </g>
   <g id="patch_6">
    <path d="M 52.160938 7.2 
L 417.185938 7.2 
" style="fill:none;stroke:#000000;stroke-linecap:square;stroke-linejoin:miter;stroke-width:0.8;"/>
   </g>
  </g>
 </g>
 <defs>
  <clipPath id="p852aa33da5">
   <rect height="235.4" width="365.025" x="52.160938" y="7.2"/>
  </clipPath>
 </defs>
</svg>
