<?xml version="1.0" encoding="utf-8" standalone="no"?>
<!DOCTYPE svg PUBLIC "-//W3C//DTD SVG 1.1//EN"
  "http://www.w3.org/Graphics/SVG/1.1/DTD/svg11.dtd">
<!-- Created with matplotlib (https://matplotlib.org/) -->
<svg height="278.26025pt" version="1.1" viewBox="0 0 418.526437 278.26025" width="418.526437pt" xmlns="http://www.w3.org/2000/svg" xmlns:xlink="http://www.w3.org/1999/xlink">
 <metadata>
  <rdf:RDF xmlns:cc="http://creativecommons.org/ns#" xmlns:dc="http://purl.org/dc/elements/1.1/" xmlns:rdf="http://www.w3.org/1999/02/22-rdf-syntax-ns#">
   <cc:Work>
    <dc:type rdf:resource="http://purl.org/dc/dcmitype/StillImage"/>
    <dc:date>2021-03-29T15:49:48.476550</dc:date>
    <dc:format>image/svg+xml</dc:format>
    <dc:creator>
     <cc:Agent>
      <dc:title>Matplotlib v3.3.4, https://matplotlib.org/</dc:title>
     </cc:Agent>
    </dc:creator>
   </cc:Work>
  </rdf:RDF>
 </metadata>
 <defs>
  <style type="text/css">*{stroke-linecap:butt;stroke-linejoin:round;}</style>
 </defs>
 <g id="figure_1">
  <g id="patch_1">
   <path d="M 0 278.26025 
L 418.526437 278.26025 
L 418.526437 0 
L 0 0 
z
" style="fill:none;"/>
  </g>
  <g id="axes_1">
   <g id="patch_2">
    <path d="M 58.523438 240.704 
L 411.326437 240.704 
L 411.326437 7.2 
L 58.523438 7.2 
z
" style="fill:#ffffff;"/>
   </g>
   <g id="matplotlib.axis_1">
    <g id="xtick_1">
     <g id="line2d_1">
      <defs>
       <path d="M 0 0 
L 0 3.5 
" id="mb56f8f930a" style="stroke:#000000;stroke-width:0.8;"/>
      </defs>
      <g>
       <use style="stroke:#000000;stroke-width:0.8;" x="74.559938" xlink:href="#mb56f8f930a" y="240.704"/>
      </g>
     </g>
     <g id="text_1">
      <!-- 0.0 -->
      <g transform="translate(66.608375 255.302437)scale(0.1 -0.1)">
       <defs>
        <path d="M 31.78125 66.40625 
Q 24.171875 66.40625 20.328125 58.90625 
Q 16.5 51.421875 16.5 36.375 
Q 16.5 21.390625 20.328125 13.890625 
Q 24.171875 6.390625 31.78125 6.390625 
Q 39.453125 6.390625 43.28125 13.890625 
Q 47.125 21.390625 47.125 36.375 
Q 47.125 51.421875 43.28125 58.90625 
Q 39.453125 66.40625 31.78125 66.40625 
z
M 31.78125 74.21875 
Q 44.046875 74.21875 50.515625 64.515625 
Q 56.984375 54.828125 56.984375 36.375 
Q 56.984375 17.96875 50.515625 8.265625 
Q 44.046875 -1.421875 31.78125 -1.421875 
Q 19.53125 -1.421875 13.0625 8.265625 
Q 6.59375 17.96875 6.59375 36.375 
Q 6.59375 54.828125 13.0625 64.515625 
Q 19.53125 74.21875 31.78125 74.21875 
z
" id="DejaVuSans-48"/>
        <path d="M 10.6875 12.40625 
L 21 12.40625 
L 21 0 
L 10.6875 0 
z
" id="DejaVuSans-46"/>
       </defs>
       <use xlink:href="#DejaVuSans-48"/>
       <use x="63.623047" xlink:href="#DejaVuSans-46"/>
       <use x="95.410156" xlink:href="#DejaVuSans-48"/>
      </g>
     </g>
    </g>
    <g id="xtick_2">
     <g id="line2d_2">
      <g>
       <use style="stroke:#000000;stroke-width:0.8;" x="138.705938" xlink:href="#mb56f8f930a" y="240.704"/>
      </g>
     </g>
     <g id="text_2">
      <!-- 0.2 -->
      <g transform="translate(130.754375 255.302437)scale(0.1 -0.1)">
       <defs>
        <path d="M 19.1875 8.296875 
L 53.609375 8.296875 
L 53.609375 0 
L 7.328125 0 
L 7.328125 8.296875 
Q 12.9375 14.109375 22.625 23.890625 
Q 32.328125 33.6875 34.8125 36.53125 
Q 39.546875 41.84375 41.421875 45.53125 
Q 43.3125 49.21875 43.3125 52.78125 
Q 43.3125 58.59375 39.234375 62.25 
Q 35.15625 65.921875 28.609375 65.921875 
Q 23.96875 65.921875 18.8125 64.3125 
Q 13.671875 62.703125 7.8125 59.421875 
L 7.8125 69.390625 
Q 13.765625 71.78125 18.9375 73 
Q 24.125 74.21875 28.421875 74.21875 
Q 39.75 74.21875 46.484375 68.546875 
Q 53.21875 62.890625 53.21875 53.421875 
Q 53.21875 48.921875 51.53125 44.890625 
Q 49.859375 40.875 45.40625 35.40625 
Q 44.1875 33.984375 37.640625 27.21875 
Q 31.109375 20.453125 19.1875 8.296875 
z
" id="DejaVuSans-50"/>
       </defs>
       <use xlink:href="#DejaVuSans-48"/>
       <use x="63.623047" xlink:href="#DejaVuSans-46"/>
       <use x="95.410156" xlink:href="#DejaVuSans-50"/>
      </g>
     </g>
    </g>
    <g id="xtick_3">
     <g id="line2d_3">
      <g>
       <use style="stroke:#000000;stroke-width:0.8;" x="202.851938" xlink:href="#mb56f8f930a" y="240.704"/>
      </g>
     </g>
     <g id="text_3">
      <!-- 0.4 -->
      <g transform="translate(194.900375 255.302437)scale(0.1 -0.1)">
       <defs>
        <path d="M 37.796875 64.3125 
L 12.890625 25.390625 
L 37.796875 25.390625 
z
M 35.203125 72.90625 
L 47.609375 72.90625 
L 47.609375 25.390625 
L 58.015625 25.390625 
L 58.015625 17.1875 
L 47.609375 17.1875 
L 47.609375 0 
L 37.796875 0 
L 37.796875 17.1875 
L 4.890625 17.1875 
L 4.890625 26.703125 
z
" id="DejaVuSans-52"/>
       </defs>
       <use xlink:href="#DejaVuSans-48"/>
       <use x="63.623047" xlink:href="#DejaVuSans-46"/>
       <use x="95.410156" xlink:href="#DejaVuSans-52"/>
      </g>
     </g>
    </g>
    <g id="xtick_4">
     <g id="line2d_4">
      <g>
       <use style="stroke:#000000;stroke-width:0.8;" x="266.997938" xlink:href="#mb56f8f930a" y="240.704"/>
      </g>
     </g>
     <g id="text_4">
      <!-- 0.6 -->
      <g transform="translate(259.046375 255.302437)scale(0.1 -0.1)">
       <defs>
        <path d="M 33.015625 40.375 
Q 26.375 40.375 22.484375 35.828125 
Q 18.609375 31.296875 18.609375 23.390625 
Q 18.609375 15.53125 22.484375 10.953125 
Q 26.375 6.390625 33.015625 6.390625 
Q 39.65625 6.390625 43.53125 10.953125 
Q 47.40625 15.53125 47.40625 23.390625 
Q 47.40625 31.296875 43.53125 35.828125 
Q 39.65625 40.375 33.015625 40.375 
z
M 52.59375 71.296875 
L 52.59375 62.3125 
Q 48.875 64.0625 45.09375 64.984375 
Q 41.3125 65.921875 37.59375 65.921875 
Q 27.828125 65.921875 22.671875 59.328125 
Q 17.53125 52.734375 16.796875 39.40625 
Q 19.671875 43.65625 24.015625 45.921875 
Q 28.375 48.1875 33.59375 48.1875 
Q 44.578125 48.1875 50.953125 41.515625 
Q 57.328125 34.859375 57.328125 23.390625 
Q 57.328125 12.15625 50.6875 5.359375 
Q 44.046875 -1.421875 33.015625 -1.421875 
Q 20.359375 -1.421875 13.671875 8.265625 
Q 6.984375 17.96875 6.984375 36.375 
Q 6.984375 53.65625 15.1875 63.9375 
Q 23.390625 74.21875 37.203125 74.21875 
Q 40.921875 74.21875 44.703125 73.484375 
Q 48.484375 72.75 52.59375 71.296875 
z
" id="DejaVuSans-54"/>
       </defs>
       <use xlink:href="#DejaVuSans-48"/>
       <use x="63.623047" xlink:href="#DejaVuSans-46"/>
       <use x="95.410156" xlink:href="#DejaVuSans-54"/>
      </g>
     </g>
    </g>
    <g id="xtick_5">
     <g id="line2d_5">
      <g>
       <use style="stroke:#000000;stroke-width:0.8;" x="331.143937" xlink:href="#mb56f8f930a" y="240.704"/>
      </g>
     </g>
     <g id="text_5">
      <!-- 0.8 -->
      <g transform="translate(323.192375 255.302437)scale(0.1 -0.1)">
       <defs>
        <path d="M 31.78125 34.625 
Q 24.75 34.625 20.71875 30.859375 
Q 16.703125 27.09375 16.703125 20.515625 
Q 16.703125 13.921875 20.71875 10.15625 
Q 24.75 6.390625 31.78125 6.390625 
Q 38.8125 6.390625 42.859375 10.171875 
Q 46.921875 13.96875 46.921875 20.515625 
Q 46.921875 27.09375 42.890625 30.859375 
Q 38.875 34.625 31.78125 34.625 
z
M 21.921875 38.8125 
Q 15.578125 40.375 12.03125 44.71875 
Q 8.5 49.078125 8.5 55.328125 
Q 8.5 64.0625 14.71875 69.140625 
Q 20.953125 74.21875 31.78125 74.21875 
Q 42.671875 74.21875 48.875 69.140625 
Q 55.078125 64.0625 55.078125 55.328125 
Q 55.078125 49.078125 51.53125 44.71875 
Q 48 40.375 41.703125 38.8125 
Q 48.828125 37.15625 52.796875 32.3125 
Q 56.78125 27.484375 56.78125 20.515625 
Q 56.78125 9.90625 50.3125 4.234375 
Q 43.84375 -1.421875 31.78125 -1.421875 
Q 19.734375 -1.421875 13.25 4.234375 
Q 6.78125 9.90625 6.78125 20.515625 
Q 6.78125 27.484375 10.78125 32.3125 
Q 14.796875 37.15625 21.921875 38.8125 
z
M 18.3125 54.390625 
Q 18.3125 48.734375 21.84375 45.5625 
Q 25.390625 42.390625 31.78125 42.390625 
Q 38.140625 42.390625 41.71875 45.5625 
Q 45.3125 48.734375 45.3125 54.390625 
Q 45.3125 60.0625 41.71875 63.234375 
Q 38.140625 66.40625 31.78125 66.40625 
Q 25.390625 66.40625 21.84375 63.234375 
Q 18.3125 60.0625 18.3125 54.390625 
z
" id="DejaVuSans-56"/>
       </defs>
       <use xlink:href="#DejaVuSans-48"/>
       <use x="63.623047" xlink:href="#DejaVuSans-46"/>
       <use x="95.410156" xlink:href="#DejaVuSans-56"/>
      </g>
     </g>
    </g>
    <g id="xtick_6">
     <g id="line2d_6">
      <g>
       <use style="stroke:#000000;stroke-width:0.8;" x="395.289938" xlink:href="#mb56f8f930a" y="240.704"/>
      </g>
     </g>
     <g id="text_6">
      <!-- 1.0 -->
      <g transform="translate(387.338375 255.302437)scale(0.1 -0.1)">
       <defs>
        <path d="M 12.40625 8.296875 
L 28.515625 8.296875 
L 28.515625 63.921875 
L 10.984375 60.40625 
L 10.984375 69.390625 
L 28.421875 72.90625 
L 38.28125 72.90625 
L 38.28125 8.296875 
L 54.390625 8.296875 
L 54.390625 0 
L 12.40625 0 
z
" id="DejaVuSans-49"/>
       </defs>
       <use xlink:href="#DejaVuSans-49"/>
       <use x="63.623047" xlink:href="#DejaVuSans-46"/>
       <use x="95.410156" xlink:href="#DejaVuSans-48"/>
      </g>
     </g>
    </g>
    <g id="text_7">
     <!-- time (ms) -->
     <g transform="translate(210.663219 268.980562)scale(0.1 -0.1)">
      <defs>
       <path d="M 18.3125 70.21875 
L 18.3125 54.6875 
L 36.8125 54.6875 
L 36.8125 47.703125 
L 18.3125 47.703125 
L 18.3125 18.015625 
Q 18.3125 11.328125 20.140625 9.421875 
Q 21.96875 7.515625 27.59375 7.515625 
L 36.8125 7.515625 
L 36.8125 0 
L 27.59375 0 
Q 17.1875 0 13.234375 3.875 
Q 9.28125 7.765625 9.28125 18.015625 
L 9.28125 47.703125 
L 2.6875 47.703125 
L 2.6875 54.6875 
L 9.28125 54.6875 
L 9.28125 70.21875 
z
" id="DejaVuSans-116"/>
       <path d="M 9.421875 54.6875 
L 18.40625 54.6875 
L 18.40625 0 
L 9.421875 0 
z
M 9.421875 75.984375 
L 18.40625 75.984375 
L 18.40625 64.59375 
L 9.421875 64.59375 
z
" id="DejaVuSans-105"/>
       <path d="M 52 44.1875 
Q 55.375 50.25 60.0625 53.125 
Q 64.75 56 71.09375 56 
Q 79.640625 56 84.28125 50.015625 
Q 88.921875 44.046875 88.921875 33.015625 
L 88.921875 0 
L 79.890625 0 
L 79.890625 32.71875 
Q 79.890625 40.578125 77.09375 44.375 
Q 74.3125 48.1875 68.609375 48.1875 
Q 61.625 48.1875 57.5625 43.546875 
Q 53.515625 38.921875 53.515625 30.90625 
L 53.515625 0 
L 44.484375 0 
L 44.484375 32.71875 
Q 44.484375 40.625 41.703125 44.40625 
Q 38.921875 48.1875 33.109375 48.1875 
Q 26.21875 48.1875 22.15625 43.53125 
Q 18.109375 38.875 18.109375 30.90625 
L 18.109375 0 
L 9.078125 0 
L 9.078125 54.6875 
L 18.109375 54.6875 
L 18.109375 46.1875 
Q 21.1875 51.21875 25.484375 53.609375 
Q 29.78125 56 35.6875 56 
Q 41.65625 56 45.828125 52.96875 
Q 50 49.953125 52 44.1875 
z
" id="DejaVuSans-109"/>
       <path d="M 56.203125 29.59375 
L 56.203125 25.203125 
L 14.890625 25.203125 
Q 15.484375 15.921875 20.484375 11.0625 
Q 25.484375 6.203125 34.421875 6.203125 
Q 39.59375 6.203125 44.453125 7.46875 
Q 49.3125 8.734375 54.109375 11.28125 
L 54.109375 2.78125 
Q 49.265625 0.734375 44.1875 -0.34375 
Q 39.109375 -1.421875 33.890625 -1.421875 
Q 20.796875 -1.421875 13.15625 6.1875 
Q 5.515625 13.8125 5.515625 26.8125 
Q 5.515625 40.234375 12.765625 48.109375 
Q 20.015625 56 32.328125 56 
Q 43.359375 56 49.78125 48.890625 
Q 56.203125 41.796875 56.203125 29.59375 
z
M 47.21875 32.234375 
Q 47.125 39.59375 43.09375 43.984375 
Q 39.0625 48.390625 32.421875 48.390625 
Q 24.90625 48.390625 20.390625 44.140625 
Q 15.875 39.890625 15.1875 32.171875 
z
" id="DejaVuSans-101"/>
       <path id="DejaVuSans-32"/>
       <path d="M 31 75.875 
Q 24.46875 64.65625 21.28125 53.65625 
Q 18.109375 42.671875 18.109375 31.390625 
Q 18.109375 20.125 21.3125 9.0625 
Q 24.515625 -2 31 -13.1875 
L 23.1875 -13.1875 
Q 15.875 -1.703125 12.234375 9.375 
Q 8.59375 20.453125 8.59375 31.390625 
Q 8.59375 42.28125 12.203125 53.3125 
Q 15.828125 64.359375 23.1875 75.875 
z
" id="DejaVuSans-40"/>
       <path d="M 44.28125 53.078125 
L 44.28125 44.578125 
Q 40.484375 46.53125 36.375 47.5 
Q 32.28125 48.484375 27.875 48.484375 
Q 21.1875 48.484375 17.84375 46.4375 
Q 14.5 44.390625 14.5 40.28125 
Q 14.5 37.15625 16.890625 35.375 
Q 19.28125 33.59375 26.515625 31.984375 
L 29.59375 31.296875 
Q 39.15625 29.25 43.1875 25.515625 
Q 47.21875 21.78125 47.21875 15.09375 
Q 47.21875 7.46875 41.1875 3.015625 
Q 35.15625 -1.421875 24.609375 -1.421875 
Q 20.21875 -1.421875 15.453125 -0.5625 
Q 10.6875 0.296875 5.421875 2 
L 5.421875 11.28125 
Q 10.40625 8.6875 15.234375 7.390625 
Q 20.0625 6.109375 24.8125 6.109375 
Q 31.15625 6.109375 34.5625 8.28125 
Q 37.984375 10.453125 37.984375 14.40625 
Q 37.984375 18.0625 35.515625 20.015625 
Q 33.0625 21.96875 24.703125 23.78125 
L 21.578125 24.515625 
Q 13.234375 26.265625 9.515625 29.90625 
Q 5.8125 33.546875 5.8125 39.890625 
Q 5.8125 47.609375 11.28125 51.796875 
Q 16.75 56 26.8125 56 
Q 31.78125 56 36.171875 55.265625 
Q 40.578125 54.546875 44.28125 53.078125 
z
" id="DejaVuSans-115"/>
       <path d="M 8.015625 75.875 
L 15.828125 75.875 
Q 23.140625 64.359375 26.78125 53.3125 
Q 30.421875 42.28125 30.421875 31.390625 
Q 30.421875 20.453125 26.78125 9.375 
Q 23.140625 -1.703125 15.828125 -13.1875 
L 8.015625 -13.1875 
Q 14.5 -2 17.703125 9.0625 
Q 20.90625 20.125 20.90625 31.390625 
Q 20.90625 42.671875 17.703125 53.65625 
Q 14.5 64.65625 8.015625 75.875 
z
" id="DejaVuSans-41"/>
      </defs>
      <use xlink:href="#DejaVuSans-116"/>
      <use x="39.208984" xlink:href="#DejaVuSans-105"/>
      <use x="66.992188" xlink:href="#DejaVuSans-109"/>
      <use x="164.404297" xlink:href="#DejaVuSans-101"/>
      <use x="225.927734" xlink:href="#DejaVuSans-32"/>
      <use x="257.714844" xlink:href="#DejaVuSans-40"/>
      <use x="296.728516" xlink:href="#DejaVuSans-109"/>
      <use x="394.140625" xlink:href="#DejaVuSans-115"/>
      <use x="446.240234" xlink:href="#DejaVuSans-41"/>
     </g>
    </g>
   </g>
   <g id="matplotlib.axis_2">
    <g id="ytick_1">
     <g id="line2d_7">
      <defs>
       <path d="M 0 0 
L -3.5 0 
" id="m242405501a" style="stroke:#000000;stroke-width:0.8;"/>
      </defs>
      <g>
       <use style="stroke:#000000;stroke-width:0.8;" x="58.523438" xlink:href="#m242405501a" y="230.090346"/>
      </g>
     </g>
     <g id="text_8">
      <!-- −1.00 -->
      <g transform="translate(20.878125 233.889565)scale(0.1 -0.1)">
       <defs>
        <path d="M 10.59375 35.5 
L 73.1875 35.5 
L 73.1875 27.203125 
L 10.59375 27.203125 
z
" id="DejaVuSans-8722"/>
       </defs>
       <use xlink:href="#DejaVuSans-8722"/>
       <use x="83.789062" xlink:href="#DejaVuSans-49"/>
       <use x="147.412109" xlink:href="#DejaVuSans-46"/>
       <use x="179.199219" xlink:href="#DejaVuSans-48"/>
       <use x="242.822266" xlink:href="#DejaVuSans-48"/>
      </g>
     </g>
    </g>
    <g id="ytick_2">
     <g id="line2d_8">
      <g>
       <use style="stroke:#000000;stroke-width:0.8;" x="58.523438" xlink:href="#m242405501a" y="203.55576"/>
      </g>
     </g>
     <g id="text_9">
      <!-- −0.75 -->
      <g transform="translate(20.878125 207.354978)scale(0.1 -0.1)">
       <defs>
        <path d="M 8.203125 72.90625 
L 55.078125 72.90625 
L 55.078125 68.703125 
L 28.609375 0 
L 18.3125 0 
L 43.21875 64.59375 
L 8.203125 64.59375 
z
" id="DejaVuSans-55"/>
        <path d="M 10.796875 72.90625 
L 49.515625 72.90625 
L 49.515625 64.59375 
L 19.828125 64.59375 
L 19.828125 46.734375 
Q 21.96875 47.46875 24.109375 47.828125 
Q 26.265625 48.1875 28.421875 48.1875 
Q 40.625 48.1875 47.75 41.5 
Q 54.890625 34.8125 54.890625 23.390625 
Q 54.890625 11.625 47.5625 5.09375 
Q 40.234375 -1.421875 26.90625 -1.421875 
Q 22.3125 -1.421875 17.546875 -0.640625 
Q 12.796875 0.140625 7.71875 1.703125 
L 7.71875 11.625 
Q 12.109375 9.234375 16.796875 8.0625 
Q 21.484375 6.890625 26.703125 6.890625 
Q 35.15625 6.890625 40.078125 11.328125 
Q 45.015625 15.765625 45.015625 23.390625 
Q 45.015625 31 40.078125 35.4375 
Q 35.15625 39.890625 26.703125 39.890625 
Q 22.75 39.890625 18.8125 39.015625 
Q 14.890625 38.140625 10.796875 36.28125 
z
" id="DejaVuSans-53"/>
       </defs>
       <use xlink:href="#DejaVuSans-8722"/>
       <use x="83.789062" xlink:href="#DejaVuSans-48"/>
       <use x="147.412109" xlink:href="#DejaVuSans-46"/>
       <use x="179.199219" xlink:href="#DejaVuSans-55"/>
       <use x="242.822266" xlink:href="#DejaVuSans-53"/>
      </g>
     </g>
    </g>
    <g id="ytick_3">
     <g id="line2d_9">
      <g>
       <use style="stroke:#000000;stroke-width:0.8;" x="58.523438" xlink:href="#m242405501a" y="177.021173"/>
      </g>
     </g>
     <g id="text_10">
      <!-- −0.50 -->
      <g transform="translate(20.878125 180.820392)scale(0.1 -0.1)">
       <use xlink:href="#DejaVuSans-8722"/>
       <use x="83.789062" xlink:href="#DejaVuSans-48"/>
       <use x="147.412109" xlink:href="#DejaVuSans-46"/>
       <use x="179.199219" xlink:href="#DejaVuSans-53"/>
       <use x="242.822266" xlink:href="#DejaVuSans-48"/>
      </g>
     </g>
    </g>
    <g id="ytick_4">
     <g id="line2d_10">
      <g>
       <use style="stroke:#000000;stroke-width:0.8;" x="58.523438" xlink:href="#m242405501a" y="150.486587"/>
      </g>
     </g>
     <g id="text_11">
      <!-- −0.25 -->
      <g transform="translate(20.878125 154.285805)scale(0.1 -0.1)">
       <use xlink:href="#DejaVuSans-8722"/>
       <use x="83.789062" xlink:href="#DejaVuSans-48"/>
       <use x="147.412109" xlink:href="#DejaVuSans-46"/>
       <use x="179.199219" xlink:href="#DejaVuSans-50"/>
       <use x="242.822266" xlink:href="#DejaVuSans-53"/>
      </g>
     </g>
    </g>
    <g id="ytick_5">
     <g id="line2d_11">
      <g>
       <use style="stroke:#000000;stroke-width:0.8;" x="58.523438" xlink:href="#m242405501a" y="123.952"/>
      </g>
     </g>
     <g id="text_12">
      <!-- 0.00 -->
      <g transform="translate(29.257813 127.751219)scale(0.1 -0.1)">
       <use xlink:href="#DejaVuSans-48"/>
       <use x="63.623047" xlink:href="#DejaVuSans-46"/>
       <use x="95.410156" xlink:href="#DejaVuSans-48"/>
       <use x="159.033203" xlink:href="#DejaVuSans-48"/>
      </g>
     </g>
    </g>
    <g id="ytick_6">
     <g id="line2d_12">
      <g>
       <use style="stroke:#000000;stroke-width:0.8;" x="58.523438" xlink:href="#m242405501a" y="97.417413"/>
      </g>
     </g>
     <g id="text_13">
      <!-- 0.25 -->
      <g transform="translate(29.257813 101.216632)scale(0.1 -0.1)">
       <use xlink:href="#DejaVuSans-48"/>
       <use x="63.623047" xlink:href="#DejaVuSans-46"/>
       <use x="95.410156" xlink:href="#DejaVuSans-50"/>
       <use x="159.033203" xlink:href="#DejaVuSans-53"/>
      </g>
     </g>
    </g>
    <g id="ytick_7">
     <g id="line2d_13">
      <g>
       <use style="stroke:#000000;stroke-width:0.8;" x="58.523438" xlink:href="#m242405501a" y="70.882827"/>
      </g>
     </g>
     <g id="text_14">
      <!-- 0.50 -->
      <g transform="translate(29.257813 74.682046)scale(0.1 -0.1)">
       <use xlink:href="#DejaVuSans-48"/>
       <use x="63.623047" xlink:href="#DejaVuSans-46"/>
       <use x="95.410156" xlink:href="#DejaVuSans-53"/>
       <use x="159.033203" xlink:href="#DejaVuSans-48"/>
      </g>
     </g>
    </g>
    <g id="ytick_8">
     <g id="line2d_14">
      <g>
       <use style="stroke:#000000;stroke-width:0.8;" x="58.523438" xlink:href="#m242405501a" y="44.34824"/>
      </g>
     </g>
     <g id="text_15">
      <!-- 0.75 -->
      <g transform="translate(29.257813 48.147459)scale(0.1 -0.1)">
       <use xlink:href="#DejaVuSans-48"/>
       <use x="63.623047" xlink:href="#DejaVuSans-46"/>
       <use x="95.410156" xlink:href="#DejaVuSans-55"/>
       <use x="159.033203" xlink:href="#DejaVuSans-53"/>
      </g>
     </g>
    </g>
    <g id="ytick_9">
     <g id="line2d_15">
      <g>
       <use style="stroke:#000000;stroke-width:0.8;" x="58.523438" xlink:href="#m242405501a" y="17.813654"/>
      </g>
     </g>
     <g id="text_16">
      <!-- 1.00 -->
      <g transform="translate(29.257813 21.612873)scale(0.1 -0.1)">
       <use xlink:href="#DejaVuSans-49"/>
       <use x="63.623047" xlink:href="#DejaVuSans-46"/>
       <use x="95.410156" xlink:href="#DejaVuSans-48"/>
       <use x="159.033203" xlink:href="#DejaVuSans-48"/>
      </g>
     </g>
    </g>
    <g id="text_17">
     <!-- IN [V] -->
     <g transform="translate(14.798438 138.078563)rotate(-90)scale(0.1 -0.1)">
      <defs>
       <path d="M 9.8125 72.90625 
L 19.671875 72.90625 
L 19.671875 0 
L 9.8125 0 
z
" id="DejaVuSans-73"/>
       <path d="M 9.8125 72.90625 
L 23.09375 72.90625 
L 55.421875 11.921875 
L 55.421875 72.90625 
L 64.984375 72.90625 
L 64.984375 0 
L 51.703125 0 
L 19.390625 60.984375 
L 19.390625 0 
L 9.8125 0 
z
" id="DejaVuSans-78"/>
       <path d="M 8.59375 75.984375 
L 29.296875 75.984375 
L 29.296875 69 
L 17.578125 69 
L 17.578125 -6.203125 
L 29.296875 -6.203125 
L 29.296875 -13.1875 
L 8.59375 -13.1875 
z
" id="DejaVuSans-91"/>
       <path d="M 28.609375 0 
L 0.78125 72.90625 
L 11.078125 72.90625 
L 34.1875 11.53125 
L 57.328125 72.90625 
L 67.578125 72.90625 
L 39.796875 0 
z
" id="DejaVuSans-86"/>
       <path d="M 30.421875 75.984375 
L 30.421875 -13.1875 
L 9.71875 -13.1875 
L 9.71875 -6.203125 
L 21.390625 -6.203125 
L 21.390625 69 
L 9.71875 69 
L 9.71875 75.984375 
z
" id="DejaVuSans-93"/>
      </defs>
      <use xlink:href="#DejaVuSans-73"/>
      <use x="29.492188" xlink:href="#DejaVuSans-78"/>
      <use x="104.296875" xlink:href="#DejaVuSans-32"/>
      <use x="136.083984" xlink:href="#DejaVuSans-91"/>
      <use x="175.097656" xlink:href="#DejaVuSans-86"/>
      <use x="243.505859" xlink:href="#DejaVuSans-93"/>
     </g>
    </g>
   </g>
   <g id="line2d_16">
    <path clip-path="url(#pd6d84237fb)" d="M 74.559938 123.952 
L 86.837482 98.668995 
L 93.572812 85.326707 
L 99.025222 75.007189 
L 103.836172 66.361346 
L 108.326392 58.751615 
L 112.495882 52.135689 
L 116.344642 46.452771 
L 119.872672 41.629535 
L 123.400702 37.199387 
L 126.608002 33.530928 
L 129.815302 30.21932 
L 132.701872 27.554811 
L 135.588442 25.198475 
L 138.154282 23.368779 
L 140.720122 21.793164 
L 143.285962 20.475612 
L 145.851802 19.41945 
L 148.417642 18.627346 
L 150.662752 18.152455 
L 152.907862 17.882194 
L 155.152972 17.817086 
L 157.398082 17.957257 
L 159.643192 18.302436 
L 161.888302 18.851954 
L 164.454142 19.728807 
L 167.019982 20.868936 
L 169.585822 22.269461 
L 172.151662 23.926846 
L 174.717502 25.836903 
L 177.604072 28.281707 
L 180.490642 31.032359 
L 183.377212 34.080067 
L 186.584512 37.802924 
L 189.791812 41.865772 
L 193.319842 46.70842 
L 196.847872 51.919904 
L 200.696632 57.996532 
L 204.866122 65.00133 
L 209.356342 72.983172 
L 214.488022 82.584144 
L 220.261162 93.879557 
L 227.317222 108.191938 
L 252.654892 160.080716 
L 258.428032 171.112982 
L 263.238982 179.851985 
L 267.729202 187.562223 
L 271.898692 194.282506 
L 275.747452 200.070564 
L 279.275482 204.997085 
L 282.803512 209.536618 
L 286.010812 213.309372 
L 289.218112 216.729473 
L 292.104682 219.49486 
L 294.991252 221.954806 
L 297.877822 224.101448 
L 300.443662 225.740981 
L 303.009502 227.123387 
L 305.575342 228.245172 
L 308.141182 229.103504 
L 310.386292 229.636709 
L 312.631402 229.965507 
L 314.876512 230.08926 
L 317.121622 230.00773 
L 319.366732 229.721074 
L 321.611842 229.229847 
L 323.856952 228.534999 
L 326.422792 227.493297 
L 328.988632 226.190041 
L 331.554472 224.628522 
L 334.120312 222.812686 
L 337.006882 220.471617 
L 339.893452 217.821985 
L 342.780022 214.87226 
L 345.987322 211.254327 
L 349.194622 207.291853 
L 352.722652 202.553887 
L 356.250682 197.440599 
L 360.099442 191.463147 
L 364.268932 184.555797 
L 368.759152 176.666555 
L 373.570102 167.763128 
L 379.022512 157.206873 
L 385.757842 143.656891 
L 395.289937 123.952 
L 395.289937 123.952 
" style="fill:none;stroke:#0000ff;stroke-linecap:square;stroke-width:1.5;"/>
   </g>
   <g id="line2d_17">
    <path clip-path="url(#pd6d84237fb)" d="M 74.559938 123.952 
L 78.819232 124.069581 
L 80.743612 124.267827 
L 81.705802 124.141993 
L 82.667992 123.742308 
L 83.630182 122.995639 
L 84.592372 121.838538 
L 85.554562 120.215683 
L 86.516752 118.079174 
L 87.478942 115.387944 
L 88.441132 112.107252 
L 89.724052 106.766988 
L 91.006972 100.27494 
L 92.289892 92.594429 
L 93.572812 83.704771 
L 95.176462 70.887045 
L 96.780112 56.204485 
L 98.704492 36.253044 
L 99.666682 25.984699 
L 99.987412 24.284381 
L 100.308142 23.670007 
L 100.949602 23.23574 
L 101.911792 23.030651 
L 104.798362 22.76171 
L 110.250772 22.511474 
L 120.193402 22.303548 
L 138.154282 22.174523 
L 167.661442 22.198087 
L 192.678382 22.412488 
L 205.186852 22.713059 
L 211.922182 23.07009 
L 216.091672 23.502385 
L 218.657512 23.984337 
L 220.261162 24.488881 
L 221.223352 24.953477 
L 222.185542 25.674584 
L 222.827002 26.454676 
L 223.468462 27.666826 
L 224.430652 30.073463 
L 225.713572 33.997485 
L 231.486712 53.519228 
L 233.411092 60.682767 
L 235.335472 68.727025 
L 237.901312 80.600439 
L 240.467152 92.410289 
L 244.315912 108.516657 
L 245.598832 115.288756 
L 247.202482 125.148684 
L 248.806132 136.663597 
L 250.409782 149.895875 
L 252.013432 164.864225 
L 253.937812 185.06203 
L 254.900002 195.359505 
L 255.220732 196.82181 
L 255.541462 197.214183 
L 256.182922 197.512875 
L 257.465842 197.683989 
L 261.314602 197.869299 
L 270.295042 198.035071 
L 290.180302 198.14212 
L 332.195932 198.118441 
L 364.910392 197.922201 
L 377.098132 197.661028 
L 382.871272 197.341386 
L 386.078572 196.956588 
L 388.002952 196.50627 
L 389.285872 195.952607 
L 389.927332 195.494565 
L 390.568792 194.76676 
L 391.530982 193.101411 
L 393.134632 189.702202 
L 395.289937 185.009511 
L 395.289937 185.009511 
" style="fill:none;stroke:#ff0000;stroke-linecap:square;stroke-width:1.5;"/>
   </g>
   <g id="line2d_18">
    <path clip-path="url(#pd6d84237fb)" d="M 74.559938 123.952 
L 78.498502 124.06388 
L 80.422882 124.288109 
L 81.064342 124.192493 
L 81.705802 123.932121 
L 82.347262 123.46376 
L 82.988722 122.746005 
L 83.630182 121.739019 
L 84.271642 120.404677 
L 85.233832 117.710758 
L 86.196022 114.086243 
L 87.158212 109.429771 
L 88.120402 103.652445 
L 89.082592 96.678407 
L 90.365512 85.412717 
L 91.648432 71.804406 
L 92.931352 55.803041 
L 94.535002 32.500808 
L 94.855732 27.637421 
L 95.176462 24.537531 
L 95.497192 23.541519 
L 95.817922 23.184734 
L 96.459382 22.915219 
L 98.063032 22.668306 
L 101.591062 22.398519 
L 108.005662 22.173355 
L 120.193402 22.01382 
L 145.531072 21.947095 
L 188.829622 22.058855 
L 210.959992 22.298203 
L 219.940432 22.58971 
L 224.430652 22.925185 
L 226.996492 23.297212 
L 228.600142 23.699336 
L 229.883062 24.237807 
L 230.845252 24.924961 
L 231.486712 25.679398 
L 232.128172 26.946028 
L 233.411092 30.603807 
L 234.694012 34.674597 
L 235.976932 39.604314 
L 237.259852 45.608928 
L 238.542772 52.683532 
L 240.146422 62.756838 
L 243.032992 81.303613 
L 244.315912 89.152846 
L 245.598832 98.52923 
L 246.881752 109.929404 
L 248.164672 123.592598 
L 249.447592 139.632158 
L 251.051242 163.058548 
L 252.975622 194.980535 
L 253.296352 197.111762 
L 253.937812 197.655332 
L 255.541462 197.877027 
L 259.390222 198.053447 
L 268.049932 198.193042 
L 290.180302 198.268752 
L 348.553162 198.205206 
L 379.343242 198.011178 
L 388.323682 197.772151 
L 392.493172 197.466551 
L 394.738282 197.10393 
L 395.289937 196.963833 
L 395.289937 196.963833 
" style="fill:none;stroke:#1f77b4;stroke-linecap:square;stroke-width:1.5;"/>
   </g>
   <g id="line2d_19">
    <path clip-path="url(#pd6d84237fb)" d="M 74.559938 123.952 
L 78.177772 124.044621 
L 80.102152 124.309686 
L 80.743612 124.195977 
L 81.385072 123.861024 
L 82.026532 123.231781 
L 82.667992 122.233466 
L 83.309452 120.789509 
L 83.950912 118.822246 
L 84.592372 116.2538 
L 85.233832 113.00698 
L 86.196022 106.699964 
L 87.158212 98.452728 
L 88.120402 88.040029 
L 89.082592 75.263952 
L 90.044782 59.967026 
L 91.327702 35.516768 
L 91.648432 28.807174 
L 91.969162 24.500225 
L 92.289892 23.314666 
L 92.610622 22.974587 
L 93.252082 22.715802 
L 94.855732 22.467087 
L 98.383762 22.193991 
L 104.477632 21.989251 
L 117.627562 21.827504 
L 222.185542 22.051488 
L 236.297662 22.234629 
L 242.391532 22.487272 
L 244.957372 22.786116 
L 246.240292 23.097173 
L 247.202482 23.534112 
L 247.843942 24.070373 
L 248.164672 24.502974 
L 248.485402 25.16029 
L 248.806132 26.275376 
L 249.447592 30.103942 
L 250.409782 38.375389 
L 252.013432 54.40643 
L 252.654892 62.66508 
L 253.617082 78.794786 
L 254.579272 99.866957 
L 255.541462 126.048791 
L 256.824382 168.623044 
L 257.465842 192.285248 
L 257.786572 197.437085 
L 258.107302 197.610046 
L 258.428032 197.976475 
L 258.748762 197.929918 
L 259.069492 198.045699 
L 260.031682 198.08546 
L 261.956062 198.177809 
L 267.729202 198.289356 
L 282.162052 198.351872 
L 385.437112 198.24371 
L 395.289937 198.196012 
L 395.289937 198.196012 
" style="fill:none;stroke:#ff7f0e;stroke-linecap:square;stroke-width:1.5;"/>
   </g>
   <g id="line2d_20">
    <path clip-path="url(#pd6d84237fb)" d="M 74.559938 123.952 
L 78.177772 124.051659 
L 80.102152 124.311037 
L 80.743612 124.171508 
L 81.385072 123.78681 
L 82.026532 123.074352 
L 82.667992 121.948065 
L 83.309452 120.318463 
L 83.950912 118.093502 
L 84.592372 115.179654 
L 85.233832 111.483028 
L 86.196022 104.267194 
L 87.158212 94.776389 
L 88.120402 82.726193 
L 89.082592 67.866603 
L 90.044782 50.008537 
L 91.327702 24.512775 
L 91.648432 23.264484 
L 91.969162 22.931955 
L 92.610622 22.674502 
L 94.214272 22.42544 
L 97.742302 22.15381 
L 103.836172 21.955375 
L 116.023912 21.822559 
L 240.146422 22.15061 
L 247.843942 22.35514 
L 250.730512 22.618096 
L 252.334162 22.987548 
L 252.975622 23.279527 
L 253.617082 23.797418 
L 253.937812 24.242763 
L 254.258542 24.969114 
L 254.579272 26.313701 
L 255.220732 31.015554 
L 256.503652 43.64263 
L 257.145112 51.788956 
L 257.786572 62.919233 
L 258.428032 77.426567 
L 259.390222 105.970227 
L 260.352412 142.749078 
L 261.635332 196.497317 
L 261.956062 197.822109 
L 263.880442 198.14748 
L 284.727892 198.408464 
L 395.289937 198.25146 
L 395.289937 198.25146 
" style="fill:none;stroke:#2ca02c;stroke-linecap:square;stroke-width:1.5;"/>
   </g>
   <g id="patch_3">
    <path d="M 58.523438 240.704 
L 58.523438 7.2 
" style="fill:none;stroke:#000000;stroke-linecap:square;stroke-linejoin:miter;stroke-width:0.8;"/>
   </g>
   <g id="patch_4">
    <path d="M 411.326437 240.704 
L 411.326437 7.2 
" style="fill:none;stroke:#000000;stroke-linecap:square;stroke-linejoin:miter;stroke-width:0.8;"/>
   </g>
   <g id="patch_5">
    <path d="M 58.523438 240.704 
L 411.326437 240.704 
" style="fill:none;stroke:#000000;stroke-linecap:square;stroke-linejoin:miter;stroke-width:0.8;"/>
   </g>
   <g id="patch_6">
    <path d="M 58.523438 7.2 
L 411.326437 7.2 
" style="fill:none;stroke:#000000;stroke-linecap:square;stroke-linejoin:miter;stroke-width:0.8;"/>
   </g>
   <g id="legend_1">
    <g id="patch_7">
     <path d="M 286.317357 88.9264 
L 409.129857 88.9264 
Q 411.129857 88.9264 411.129857 86.9264 
L 411.129857 14.535775 
Q 411.129857 12.535775 409.129857 12.535775 
L 286.317357 12.535775 
Q 284.317357 12.535775 284.317357 14.535775 
L 284.317357 86.9264 
Q 284.317357 88.9264 286.317357 88.9264 
z
" style="fill:#ffffff;opacity:0.8;stroke:#cccccc;stroke-linejoin:miter;"/>
    </g>
    <g id="line2d_21">
     <path d="M 288.317357 20.634212 
L 308.317357 20.634212 
" style="fill:none;stroke:#0000ff;stroke-linecap:square;stroke-width:1.5;"/>
    </g>
    <g id="line2d_22"/>
    <g id="text_18">
     <!-- Vin [V] -->
     <g transform="translate(316.317357 24.134212)scale(0.1 -0.1)">
      <defs>
       <path d="M 54.890625 33.015625 
L 54.890625 0 
L 45.90625 0 
L 45.90625 32.71875 
Q 45.90625 40.484375 42.875 44.328125 
Q 39.84375 48.1875 33.796875 48.1875 
Q 26.515625 48.1875 22.3125 43.546875 
Q 18.109375 38.921875 18.109375 30.90625 
L 18.109375 0 
L 9.078125 0 
L 9.078125 54.6875 
L 18.109375 54.6875 
L 18.109375 46.1875 
Q 21.34375 51.125 25.703125 53.5625 
Q 30.078125 56 35.796875 56 
Q 45.21875 56 50.046875 50.171875 
Q 54.890625 44.34375 54.890625 33.015625 
z
" id="DejaVuSans-110"/>
      </defs>
      <use xlink:href="#DejaVuSans-86"/>
      <use x="66.158203" xlink:href="#DejaVuSans-105"/>
      <use x="93.941406" xlink:href="#DejaVuSans-110"/>
      <use x="157.320312" xlink:href="#DejaVuSans-32"/>
      <use x="189.107422" xlink:href="#DejaVuSans-91"/>
      <use x="228.121094" xlink:href="#DejaVuSans-86"/>
      <use x="296.529297" xlink:href="#DejaVuSans-93"/>
     </g>
    </g>
    <g id="line2d_23">
     <path d="M 288.317357 35.312337 
L 308.317357 35.312337 
" style="fill:none;stroke:#ff0000;stroke-linecap:square;stroke-width:1.5;"/>
    </g>
    <g id="line2d_24"/>
    <g id="text_19">
     <!-- Vout (R4=100 kΩ) -->
     <g transform="translate(316.317357 38.812337)scale(0.1 -0.1)">
      <defs>
       <path d="M 30.609375 48.390625 
Q 23.390625 48.390625 19.1875 42.75 
Q 14.984375 37.109375 14.984375 27.296875 
Q 14.984375 17.484375 19.15625 11.84375 
Q 23.34375 6.203125 30.609375 6.203125 
Q 37.796875 6.203125 41.984375 11.859375 
Q 46.1875 17.53125 46.1875 27.296875 
Q 46.1875 37.015625 41.984375 42.703125 
Q 37.796875 48.390625 30.609375 48.390625 
z
M 30.609375 56 
Q 42.328125 56 49.015625 48.375 
Q 55.71875 40.765625 55.71875 27.296875 
Q 55.71875 13.875 49.015625 6.21875 
Q 42.328125 -1.421875 30.609375 -1.421875 
Q 18.84375 -1.421875 12.171875 6.21875 
Q 5.515625 13.875 5.515625 27.296875 
Q 5.515625 40.765625 12.171875 48.375 
Q 18.84375 56 30.609375 56 
z
" id="DejaVuSans-111"/>
       <path d="M 8.5 21.578125 
L 8.5 54.6875 
L 17.484375 54.6875 
L 17.484375 21.921875 
Q 17.484375 14.15625 20.5 10.265625 
Q 23.53125 6.390625 29.59375 6.390625 
Q 36.859375 6.390625 41.078125 11.03125 
Q 45.3125 15.671875 45.3125 23.6875 
L 45.3125 54.6875 
L 54.296875 54.6875 
L 54.296875 0 
L 45.3125 0 
L 45.3125 8.40625 
Q 42.046875 3.421875 37.71875 1 
Q 33.40625 -1.421875 27.6875 -1.421875 
Q 18.265625 -1.421875 13.375 4.4375 
Q 8.5 10.296875 8.5 21.578125 
z
M 31.109375 56 
z
" id="DejaVuSans-117"/>
       <path d="M 44.390625 34.1875 
Q 47.5625 33.109375 50.5625 29.59375 
Q 53.5625 26.078125 56.59375 19.921875 
L 66.609375 0 
L 56 0 
L 46.6875 18.703125 
Q 43.0625 26.03125 39.671875 28.421875 
Q 36.28125 30.8125 30.421875 30.8125 
L 19.671875 30.8125 
L 19.671875 0 
L 9.8125 0 
L 9.8125 72.90625 
L 32.078125 72.90625 
Q 44.578125 72.90625 50.734375 67.671875 
Q 56.890625 62.453125 56.890625 51.90625 
Q 56.890625 45.015625 53.6875 40.46875 
Q 50.484375 35.9375 44.390625 34.1875 
z
M 19.671875 64.796875 
L 19.671875 38.921875 
L 32.078125 38.921875 
Q 39.203125 38.921875 42.84375 42.21875 
Q 46.484375 45.515625 46.484375 51.90625 
Q 46.484375 58.296875 42.84375 61.546875 
Q 39.203125 64.796875 32.078125 64.796875 
z
" id="DejaVuSans-82"/>
       <path d="M 10.59375 45.40625 
L 73.1875 45.40625 
L 73.1875 37.203125 
L 10.59375 37.203125 
z
M 10.59375 25.484375 
L 73.1875 25.484375 
L 73.1875 17.1875 
L 10.59375 17.1875 
z
" id="DejaVuSans-61"/>
       <path d="M 9.078125 75.984375 
L 18.109375 75.984375 
L 18.109375 31.109375 
L 44.921875 54.6875 
L 56.390625 54.6875 
L 27.390625 29.109375 
L 57.625 0 
L 45.90625 0 
L 18.109375 26.703125 
L 18.109375 0 
L 9.078125 0 
z
" id="DejaVuSans-107"/>
       <path d="M 72.609375 8.6875 
L 72.609375 0 
L 43.3125 0 
L 43.3125 8.6875 
Q 51.953125 13.421875 56.78125 21.53125 
Q 61.625 29.640625 61.625 39.5 
Q 61.625 51.21875 55.171875 58.296875 
Q 48.734375 65.375 38.1875 65.375 
Q 27.640625 65.375 21.171875 58.265625 
Q 14.703125 51.171875 14.703125 39.5 
Q 14.703125 29.640625 19.53125 21.53125 
Q 24.421875 13.421875 33.109375 8.6875 
L 33.109375 0 
L 3.8125 0 
L 3.8125 8.6875 
L 19.390625 8.6875 
Q 11.671875 15.484375 8.109375 22.75 
Q 4.59375 30.03125 4.59375 39.015625 
Q 4.59375 54.546875 13.96875 64.15625 
Q 23.296875 73.78125 38.1875 73.78125 
Q 52.984375 73.78125 62.40625 64.15625 
Q 71.78125 54.59375 71.78125 39.5 
Q 71.78125 30.03125 68.3125 22.796875 
Q 64.84375 15.578125 56.984375 8.6875 
z
" id="DejaVuSans-937"/>
      </defs>
      <use xlink:href="#DejaVuSans-86"/>
      <use x="60.658203" xlink:href="#DejaVuSans-111"/>
      <use x="121.839844" xlink:href="#DejaVuSans-117"/>
      <use x="185.21875" xlink:href="#DejaVuSans-116"/>
      <use x="224.427734" xlink:href="#DejaVuSans-32"/>
      <use x="256.214844" xlink:href="#DejaVuSans-40"/>
      <use x="295.228516" xlink:href="#DejaVuSans-82"/>
      <use x="364.710938" xlink:href="#DejaVuSans-52"/>
      <use x="428.333984" xlink:href="#DejaVuSans-61"/>
      <use x="512.123047" xlink:href="#DejaVuSans-49"/>
      <use x="575.746094" xlink:href="#DejaVuSans-48"/>
      <use x="639.369141" xlink:href="#DejaVuSans-48"/>
      <use x="702.992188" xlink:href="#DejaVuSans-32"/>
      <use x="734.779297" xlink:href="#DejaVuSans-107"/>
      <use x="792.689453" xlink:href="#DejaVuSans-937"/>
      <use x="869.105469" xlink:href="#DejaVuSans-41"/>
     </g>
    </g>
    <g id="line2d_25">
     <path d="M 288.317357 49.990462 
L 308.317357 49.990462 
" style="fill:none;stroke:#1f77b4;stroke-linecap:square;stroke-width:1.5;"/>
    </g>
    <g id="line2d_26"/>
    <g id="text_20">
     <!-- Vout (R4=500 kΩ) -->
     <g transform="translate(316.317357 53.490462)scale(0.1 -0.1)">
      <use xlink:href="#DejaVuSans-86"/>
      <use x="60.658203" xlink:href="#DejaVuSans-111"/>
      <use x="121.839844" xlink:href="#DejaVuSans-117"/>
      <use x="185.21875" xlink:href="#DejaVuSans-116"/>
      <use x="224.427734" xlink:href="#DejaVuSans-32"/>
      <use x="256.214844" xlink:href="#DejaVuSans-40"/>
      <use x="295.228516" xlink:href="#DejaVuSans-82"/>
      <use x="364.710938" xlink:href="#DejaVuSans-52"/>
      <use x="428.333984" xlink:href="#DejaVuSans-61"/>
      <use x="512.123047" xlink:href="#DejaVuSans-53"/>
      <use x="575.746094" xlink:href="#DejaVuSans-48"/>
      <use x="639.369141" xlink:href="#DejaVuSans-48"/>
      <use x="702.992188" xlink:href="#DejaVuSans-32"/>
      <use x="734.779297" xlink:href="#DejaVuSans-107"/>
      <use x="792.689453" xlink:href="#DejaVuSans-937"/>
      <use x="869.105469" xlink:href="#DejaVuSans-41"/>
     </g>
    </g>
    <g id="line2d_27">
     <path d="M 288.317357 64.668588 
L 308.317357 64.668588 
" style="fill:none;stroke:#ff7f0e;stroke-linecap:square;stroke-width:1.5;"/>
    </g>
    <g id="line2d_28"/>
    <g id="text_21">
     <!-- Vout (R4=1 MΩ) -->
     <g transform="translate(316.317357 68.168588)scale(0.1 -0.1)">
      <defs>
       <path d="M 9.8125 72.90625 
L 24.515625 72.90625 
L 43.109375 23.296875 
L 61.8125 72.90625 
L 76.515625 72.90625 
L 76.515625 0 
L 66.890625 0 
L 66.890625 64.015625 
L 48.09375 14.015625 
L 38.1875 14.015625 
L 19.390625 64.015625 
L 19.390625 0 
L 9.8125 0 
z
" id="DejaVuSans-77"/>
      </defs>
      <use xlink:href="#DejaVuSans-86"/>
      <use x="60.658203" xlink:href="#DejaVuSans-111"/>
      <use x="121.839844" xlink:href="#DejaVuSans-117"/>
      <use x="185.21875" xlink:href="#DejaVuSans-116"/>
      <use x="224.427734" xlink:href="#DejaVuSans-32"/>
      <use x="256.214844" xlink:href="#DejaVuSans-40"/>
      <use x="295.228516" xlink:href="#DejaVuSans-82"/>
      <use x="364.710938" xlink:href="#DejaVuSans-52"/>
      <use x="428.333984" xlink:href="#DejaVuSans-61"/>
      <use x="512.123047" xlink:href="#DejaVuSans-49"/>
      <use x="575.746094" xlink:href="#DejaVuSans-32"/>
      <use x="607.533203" xlink:href="#DejaVuSans-77"/>
      <use x="693.8125" xlink:href="#DejaVuSans-937"/>
      <use x="770.228516" xlink:href="#DejaVuSans-41"/>
     </g>
    </g>
    <g id="line2d_29">
     <path d="M 288.317357 79.346712 
L 308.317357 79.346712 
" style="fill:none;stroke:#2ca02c;stroke-linecap:square;stroke-width:1.5;"/>
    </g>
    <g id="line2d_30"/>
    <g id="text_22">
     <!-- Vout (R4=10 MΩ) -->
     <g transform="translate(316.317357 82.846712)scale(0.1 -0.1)">
      <use xlink:href="#DejaVuSans-86"/>
      <use x="60.658203" xlink:href="#DejaVuSans-111"/>
      <use x="121.839844" xlink:href="#DejaVuSans-117"/>
      <use x="185.21875" xlink:href="#DejaVuSans-116"/>
      <use x="224.427734" xlink:href="#DejaVuSans-32"/>
      <use x="256.214844" xlink:href="#DejaVuSans-40"/>
      <use x="295.228516" xlink:href="#DejaVuSans-82"/>
      <use x="364.710938" xlink:href="#DejaVuSans-52"/>
      <use x="428.333984" xlink:href="#DejaVuSans-61"/>
      <use x="512.123047" xlink:href="#DejaVuSans-49"/>
      <use x="575.746094" xlink:href="#DejaVuSans-48"/>
      <use x="639.369141" xlink:href="#DejaVuSans-32"/>
      <use x="671.15625" xlink:href="#DejaVuSans-77"/>
      <use x="757.435547" xlink:href="#DejaVuSans-937"/>
      <use x="833.851562" xlink:href="#DejaVuSans-41"/>
     </g>
    </g>
   </g>
  </g>
 </g>
 <defs>
  <clipPath id="pd6d84237fb">
   <rect height="233.504" width="352.803" x="58.523438" y="7.2"/>
  </clipPath>
 </defs>
</svg>
