<?xml version="1.0" encoding="utf-8" standalone="no"?>
<!DOCTYPE svg PUBLIC "-//W3C//DTD SVG 1.1//EN"
  "http://www.w3.org/Graphics/SVG/1.1/DTD/svg11.dtd">
<!-- Created with matplotlib (https://matplotlib.org/) -->
<svg height="294.5525pt" version="1.1" viewBox="0 0 809.526563 294.5525" width="809.526563pt" xmlns="http://www.w3.org/2000/svg" xmlns:xlink="http://www.w3.org/1999/xlink">
 <metadata>
  <rdf:RDF xmlns:cc="http://creativecommons.org/ns#" xmlns:dc="http://purl.org/dc/elements/1.1/" xmlns:rdf="http://www.w3.org/1999/02/22-rdf-syntax-ns#">
   <cc:Work>
    <dc:type rdf:resource="http://purl.org/dc/dcmitype/StillImage"/>
    <dc:date>2021-04-04T07:52:09.324670</dc:date>
    <dc:format>image/svg+xml</dc:format>
    <dc:creator>
     <cc:Agent>
      <dc:title>Matplotlib v3.3.4, https://matplotlib.org/</dc:title>
     </cc:Agent>
    </dc:creator>
   </cc:Work>
  </rdf:RDF>
 </metadata>
 <defs>
  <style type="text/css">*{stroke-linecap:butt;stroke-linejoin:round;}</style>
 </defs>
 <g id="figure_1">
  <g id="patch_1">
   <path d="M 0 294.5525 
L 809.526563 294.5525 
L 809.526563 0 
L 0 0 
z
" style="fill:none;"/>
  </g>
  <g id="axes_1">
   <g id="patch_2">
    <path d="M 52.160938 256.99625 
L 386.960938 256.99625 
L 386.960938 39.55625 
L 52.160938 39.55625 
z
" style="fill:#ffffff;"/>
   </g>
   <g id="matplotlib.axis_1">
    <g id="xtick_1">
     <g id="line2d_1">
      <defs>
       <path d="M 0 0 
L 0 3.5 
" id="m4830b6598d" style="stroke:#000000;stroke-width:0.8;"/>
      </defs>
      <g>
       <use style="stroke:#000000;stroke-width:0.8;" x="67.379119" xlink:href="#m4830b6598d" y="256.99625"/>
      </g>
     </g>
     <g id="text_1">
      <!-- 0 -->
      <g transform="translate(64.197869 271.594687)scale(0.1 -0.1)">
       <defs>
        <path d="M 31.78125 66.40625 
Q 24.171875 66.40625 20.328125 58.90625 
Q 16.5 51.421875 16.5 36.375 
Q 16.5 21.390625 20.328125 13.890625 
Q 24.171875 6.390625 31.78125 6.390625 
Q 39.453125 6.390625 43.28125 13.890625 
Q 47.125 21.390625 47.125 36.375 
Q 47.125 51.421875 43.28125 58.90625 
Q 39.453125 66.40625 31.78125 66.40625 
z
M 31.78125 74.21875 
Q 44.046875 74.21875 50.515625 64.515625 
Q 56.984375 54.828125 56.984375 36.375 
Q 56.984375 17.96875 50.515625 8.265625 
Q 44.046875 -1.421875 31.78125 -1.421875 
Q 19.53125 -1.421875 13.0625 8.265625 
Q 6.59375 17.96875 6.59375 36.375 
Q 6.59375 54.828125 13.0625 64.515625 
Q 19.53125 74.21875 31.78125 74.21875 
z
" id="DejaVuSans-48"/>
       </defs>
       <use xlink:href="#DejaVuSans-48"/>
      </g>
     </g>
    </g>
    <g id="xtick_2">
     <g id="line2d_2">
      <g>
       <use style="stroke:#000000;stroke-width:0.8;" x="128.209265" xlink:href="#m4830b6598d" y="256.99625"/>
      </g>
     </g>
     <g id="text_2">
      <!-- 2 -->
      <g transform="translate(125.028015 271.594687)scale(0.1 -0.1)">
       <defs>
        <path d="M 19.1875 8.296875 
L 53.609375 8.296875 
L 53.609375 0 
L 7.328125 0 
L 7.328125 8.296875 
Q 12.9375 14.109375 22.625 23.890625 
Q 32.328125 33.6875 34.8125 36.53125 
Q 39.546875 41.84375 41.421875 45.53125 
Q 43.3125 49.21875 43.3125 52.78125 
Q 43.3125 58.59375 39.234375 62.25 
Q 35.15625 65.921875 28.609375 65.921875 
Q 23.96875 65.921875 18.8125 64.3125 
Q 13.671875 62.703125 7.8125 59.421875 
L 7.8125 69.390625 
Q 13.765625 71.78125 18.9375 73 
Q 24.125 74.21875 28.421875 74.21875 
Q 39.75 74.21875 46.484375 68.546875 
Q 53.21875 62.890625 53.21875 53.421875 
Q 53.21875 48.921875 51.53125 44.890625 
Q 49.859375 40.875 45.40625 35.40625 
Q 44.1875 33.984375 37.640625 27.21875 
Q 31.109375 20.453125 19.1875 8.296875 
z
" id="DejaVuSans-50"/>
       </defs>
       <use xlink:href="#DejaVuSans-50"/>
      </g>
     </g>
    </g>
    <g id="xtick_3">
     <g id="line2d_3">
      <g>
       <use style="stroke:#000000;stroke-width:0.8;" x="189.039412" xlink:href="#m4830b6598d" y="256.99625"/>
      </g>
     </g>
     <g id="text_3">
      <!-- 4 -->
      <g transform="translate(185.858162 271.594687)scale(0.1 -0.1)">
       <defs>
        <path d="M 37.796875 64.3125 
L 12.890625 25.390625 
L 37.796875 25.390625 
z
M 35.203125 72.90625 
L 47.609375 72.90625 
L 47.609375 25.390625 
L 58.015625 25.390625 
L 58.015625 17.1875 
L 47.609375 17.1875 
L 47.609375 0 
L 37.796875 0 
L 37.796875 17.1875 
L 4.890625 17.1875 
L 4.890625 26.703125 
z
" id="DejaVuSans-52"/>
       </defs>
       <use xlink:href="#DejaVuSans-52"/>
      </g>
     </g>
    </g>
    <g id="xtick_4">
     <g id="line2d_4">
      <g>
       <use style="stroke:#000000;stroke-width:0.8;" x="249.869558" xlink:href="#m4830b6598d" y="256.99625"/>
      </g>
     </g>
     <g id="text_4">
      <!-- 6 -->
      <g transform="translate(246.688308 271.594687)scale(0.1 -0.1)">
       <defs>
        <path d="M 33.015625 40.375 
Q 26.375 40.375 22.484375 35.828125 
Q 18.609375 31.296875 18.609375 23.390625 
Q 18.609375 15.53125 22.484375 10.953125 
Q 26.375 6.390625 33.015625 6.390625 
Q 39.65625 6.390625 43.53125 10.953125 
Q 47.40625 15.53125 47.40625 23.390625 
Q 47.40625 31.296875 43.53125 35.828125 
Q 39.65625 40.375 33.015625 40.375 
z
M 52.59375 71.296875 
L 52.59375 62.3125 
Q 48.875 64.0625 45.09375 64.984375 
Q 41.3125 65.921875 37.59375 65.921875 
Q 27.828125 65.921875 22.671875 59.328125 
Q 17.53125 52.734375 16.796875 39.40625 
Q 19.671875 43.65625 24.015625 45.921875 
Q 28.375 48.1875 33.59375 48.1875 
Q 44.578125 48.1875 50.953125 41.515625 
Q 57.328125 34.859375 57.328125 23.390625 
Q 57.328125 12.15625 50.6875 5.359375 
Q 44.046875 -1.421875 33.015625 -1.421875 
Q 20.359375 -1.421875 13.671875 8.265625 
Q 6.984375 17.96875 6.984375 36.375 
Q 6.984375 53.65625 15.1875 63.9375 
Q 23.390625 74.21875 37.203125 74.21875 
Q 40.921875 74.21875 44.703125 73.484375 
Q 48.484375 72.75 52.59375 71.296875 
z
" id="DejaVuSans-54"/>
       </defs>
       <use xlink:href="#DejaVuSans-54"/>
      </g>
     </g>
    </g>
    <g id="xtick_5">
     <g id="line2d_5">
      <g>
       <use style="stroke:#000000;stroke-width:0.8;" x="310.699704" xlink:href="#m4830b6598d" y="256.99625"/>
      </g>
     </g>
     <g id="text_5">
      <!-- 8 -->
      <g transform="translate(307.518454 271.594687)scale(0.1 -0.1)">
       <defs>
        <path d="M 31.78125 34.625 
Q 24.75 34.625 20.71875 30.859375 
Q 16.703125 27.09375 16.703125 20.515625 
Q 16.703125 13.921875 20.71875 10.15625 
Q 24.75 6.390625 31.78125 6.390625 
Q 38.8125 6.390625 42.859375 10.171875 
Q 46.921875 13.96875 46.921875 20.515625 
Q 46.921875 27.09375 42.890625 30.859375 
Q 38.875 34.625 31.78125 34.625 
z
M 21.921875 38.8125 
Q 15.578125 40.375 12.03125 44.71875 
Q 8.5 49.078125 8.5 55.328125 
Q 8.5 64.0625 14.71875 69.140625 
Q 20.953125 74.21875 31.78125 74.21875 
Q 42.671875 74.21875 48.875 69.140625 
Q 55.078125 64.0625 55.078125 55.328125 
Q 55.078125 49.078125 51.53125 44.71875 
Q 48 40.375 41.703125 38.8125 
Q 48.828125 37.15625 52.796875 32.3125 
Q 56.78125 27.484375 56.78125 20.515625 
Q 56.78125 9.90625 50.3125 4.234375 
Q 43.84375 -1.421875 31.78125 -1.421875 
Q 19.734375 -1.421875 13.25 4.234375 
Q 6.78125 9.90625 6.78125 20.515625 
Q 6.78125 27.484375 10.78125 32.3125 
Q 14.796875 37.15625 21.921875 38.8125 
z
M 18.3125 54.390625 
Q 18.3125 48.734375 21.84375 45.5625 
Q 25.390625 42.390625 31.78125 42.390625 
Q 38.140625 42.390625 41.71875 45.5625 
Q 45.3125 48.734375 45.3125 54.390625 
Q 45.3125 60.0625 41.71875 63.234375 
Q 38.140625 66.40625 31.78125 66.40625 
Q 25.390625 66.40625 21.84375 63.234375 
Q 18.3125 60.0625 18.3125 54.390625 
z
" id="DejaVuSans-56"/>
       </defs>
       <use xlink:href="#DejaVuSans-56"/>
      </g>
     </g>
    </g>
    <g id="xtick_6">
     <g id="line2d_6">
      <g>
       <use style="stroke:#000000;stroke-width:0.8;" x="371.52985" xlink:href="#m4830b6598d" y="256.99625"/>
      </g>
     </g>
     <g id="text_6">
      <!-- 10 -->
      <g transform="translate(365.16735 271.594687)scale(0.1 -0.1)">
       <defs>
        <path d="M 12.40625 8.296875 
L 28.515625 8.296875 
L 28.515625 63.921875 
L 10.984375 60.40625 
L 10.984375 69.390625 
L 28.421875 72.90625 
L 38.28125 72.90625 
L 38.28125 8.296875 
L 54.390625 8.296875 
L 54.390625 0 
L 12.40625 0 
z
" id="DejaVuSans-49"/>
       </defs>
       <use xlink:href="#DejaVuSans-49"/>
       <use x="63.623047" xlink:href="#DejaVuSans-48"/>
      </g>
     </g>
    </g>
    <g id="text_7">
     <!-- time (ms) -->
     <g transform="translate(195.299219 285.272812)scale(0.1 -0.1)">
      <defs>
       <path d="M 18.3125 70.21875 
L 18.3125 54.6875 
L 36.8125 54.6875 
L 36.8125 47.703125 
L 18.3125 47.703125 
L 18.3125 18.015625 
Q 18.3125 11.328125 20.140625 9.421875 
Q 21.96875 7.515625 27.59375 7.515625 
L 36.8125 7.515625 
L 36.8125 0 
L 27.59375 0 
Q 17.1875 0 13.234375 3.875 
Q 9.28125 7.765625 9.28125 18.015625 
L 9.28125 47.703125 
L 2.6875 47.703125 
L 2.6875 54.6875 
L 9.28125 54.6875 
L 9.28125 70.21875 
z
" id="DejaVuSans-116"/>
       <path d="M 9.421875 54.6875 
L 18.40625 54.6875 
L 18.40625 0 
L 9.421875 0 
z
M 9.421875 75.984375 
L 18.40625 75.984375 
L 18.40625 64.59375 
L 9.421875 64.59375 
z
" id="DejaVuSans-105"/>
       <path d="M 52 44.1875 
Q 55.375 50.25 60.0625 53.125 
Q 64.75 56 71.09375 56 
Q 79.640625 56 84.28125 50.015625 
Q 88.921875 44.046875 88.921875 33.015625 
L 88.921875 0 
L 79.890625 0 
L 79.890625 32.71875 
Q 79.890625 40.578125 77.09375 44.375 
Q 74.3125 48.1875 68.609375 48.1875 
Q 61.625 48.1875 57.5625 43.546875 
Q 53.515625 38.921875 53.515625 30.90625 
L 53.515625 0 
L 44.484375 0 
L 44.484375 32.71875 
Q 44.484375 40.625 41.703125 44.40625 
Q 38.921875 48.1875 33.109375 48.1875 
Q 26.21875 48.1875 22.15625 43.53125 
Q 18.109375 38.875 18.109375 30.90625 
L 18.109375 0 
L 9.078125 0 
L 9.078125 54.6875 
L 18.109375 54.6875 
L 18.109375 46.1875 
Q 21.1875 51.21875 25.484375 53.609375 
Q 29.78125 56 35.6875 56 
Q 41.65625 56 45.828125 52.96875 
Q 50 49.953125 52 44.1875 
z
" id="DejaVuSans-109"/>
       <path d="M 56.203125 29.59375 
L 56.203125 25.203125 
L 14.890625 25.203125 
Q 15.484375 15.921875 20.484375 11.0625 
Q 25.484375 6.203125 34.421875 6.203125 
Q 39.59375 6.203125 44.453125 7.46875 
Q 49.3125 8.734375 54.109375 11.28125 
L 54.109375 2.78125 
Q 49.265625 0.734375 44.1875 -0.34375 
Q 39.109375 -1.421875 33.890625 -1.421875 
Q 20.796875 -1.421875 13.15625 6.1875 
Q 5.515625 13.8125 5.515625 26.8125 
Q 5.515625 40.234375 12.765625 48.109375 
Q 20.015625 56 32.328125 56 
Q 43.359375 56 49.78125 48.890625 
Q 56.203125 41.796875 56.203125 29.59375 
z
M 47.21875 32.234375 
Q 47.125 39.59375 43.09375 43.984375 
Q 39.0625 48.390625 32.421875 48.390625 
Q 24.90625 48.390625 20.390625 44.140625 
Q 15.875 39.890625 15.1875 32.171875 
z
" id="DejaVuSans-101"/>
       <path id="DejaVuSans-32"/>
       <path d="M 31 75.875 
Q 24.46875 64.65625 21.28125 53.65625 
Q 18.109375 42.671875 18.109375 31.390625 
Q 18.109375 20.125 21.3125 9.0625 
Q 24.515625 -2 31 -13.1875 
L 23.1875 -13.1875 
Q 15.875 -1.703125 12.234375 9.375 
Q 8.59375 20.453125 8.59375 31.390625 
Q 8.59375 42.28125 12.203125 53.3125 
Q 15.828125 64.359375 23.1875 75.875 
z
" id="DejaVuSans-40"/>
       <path d="M 44.28125 53.078125 
L 44.28125 44.578125 
Q 40.484375 46.53125 36.375 47.5 
Q 32.28125 48.484375 27.875 48.484375 
Q 21.1875 48.484375 17.84375 46.4375 
Q 14.5 44.390625 14.5 40.28125 
Q 14.5 37.15625 16.890625 35.375 
Q 19.28125 33.59375 26.515625 31.984375 
L 29.59375 31.296875 
Q 39.15625 29.25 43.1875 25.515625 
Q 47.21875 21.78125 47.21875 15.09375 
Q 47.21875 7.46875 41.1875 3.015625 
Q 35.15625 -1.421875 24.609375 -1.421875 
Q 20.21875 -1.421875 15.453125 -0.5625 
Q 10.6875 0.296875 5.421875 2 
L 5.421875 11.28125 
Q 10.40625 8.6875 15.234375 7.390625 
Q 20.0625 6.109375 24.8125 6.109375 
Q 31.15625 6.109375 34.5625 8.28125 
Q 37.984375 10.453125 37.984375 14.40625 
Q 37.984375 18.0625 35.515625 20.015625 
Q 33.0625 21.96875 24.703125 23.78125 
L 21.578125 24.515625 
Q 13.234375 26.265625 9.515625 29.90625 
Q 5.8125 33.546875 5.8125 39.890625 
Q 5.8125 47.609375 11.28125 51.796875 
Q 16.75 56 26.8125 56 
Q 31.78125 56 36.171875 55.265625 
Q 40.578125 54.546875 44.28125 53.078125 
z
" id="DejaVuSans-115"/>
       <path d="M 8.015625 75.875 
L 15.828125 75.875 
Q 23.140625 64.359375 26.78125 53.3125 
Q 30.421875 42.28125 30.421875 31.390625 
Q 30.421875 20.453125 26.78125 9.375 
Q 23.140625 -1.703125 15.828125 -13.1875 
L 8.015625 -13.1875 
Q 14.5 -2 17.703125 9.0625 
Q 20.90625 20.125 20.90625 31.390625 
Q 20.90625 42.671875 17.703125 53.65625 
Q 14.5 64.65625 8.015625 75.875 
z
" id="DejaVuSans-41"/>
      </defs>
      <use xlink:href="#DejaVuSans-116"/>
      <use x="39.208984" xlink:href="#DejaVuSans-105"/>
      <use x="66.992188" xlink:href="#DejaVuSans-109"/>
      <use x="164.404297" xlink:href="#DejaVuSans-101"/>
      <use x="225.927734" xlink:href="#DejaVuSans-32"/>
      <use x="257.714844" xlink:href="#DejaVuSans-40"/>
      <use x="296.728516" xlink:href="#DejaVuSans-109"/>
      <use x="394.140625" xlink:href="#DejaVuSans-115"/>
      <use x="446.240234" xlink:href="#DejaVuSans-41"/>
     </g>
    </g>
   </g>
   <g id="matplotlib.axis_2">
    <g id="ytick_1">
     <g id="line2d_7">
      <defs>
       <path d="M 0 0 
L -3.5 0 
" id="m7611e898fa" style="stroke:#000000;stroke-width:0.8;"/>
      </defs>
      <g>
       <use style="stroke:#000000;stroke-width:0.8;" x="52.160938" xlink:href="#m7611e898fa" y="232.503535"/>
      </g>
     </g>
     <g id="text_8">
      <!-- −1.5 -->
      <g transform="translate(20.878125 236.302754)scale(0.1 -0.1)">
       <defs>
        <path d="M 10.59375 35.5 
L 73.1875 35.5 
L 73.1875 27.203125 
L 10.59375 27.203125 
z
" id="DejaVuSans-8722"/>
        <path d="M 10.6875 12.40625 
L 21 12.40625 
L 21 0 
L 10.6875 0 
z
" id="DejaVuSans-46"/>
        <path d="M 10.796875 72.90625 
L 49.515625 72.90625 
L 49.515625 64.59375 
L 19.828125 64.59375 
L 19.828125 46.734375 
Q 21.96875 47.46875 24.109375 47.828125 
Q 26.265625 48.1875 28.421875 48.1875 
Q 40.625 48.1875 47.75 41.5 
Q 54.890625 34.8125 54.890625 23.390625 
Q 54.890625 11.625 47.5625 5.09375 
Q 40.234375 -1.421875 26.90625 -1.421875 
Q 22.3125 -1.421875 17.546875 -0.640625 
Q 12.796875 0.140625 7.71875 1.703125 
L 7.71875 11.625 
Q 12.109375 9.234375 16.796875 8.0625 
Q 21.484375 6.890625 26.703125 6.890625 
Q 35.15625 6.890625 40.078125 11.328125 
Q 45.015625 15.765625 45.015625 23.390625 
Q 45.015625 31 40.078125 35.4375 
Q 35.15625 39.890625 26.703125 39.890625 
Q 22.75 39.890625 18.8125 39.015625 
Q 14.890625 38.140625 10.796875 36.28125 
z
" id="DejaVuSans-53"/>
       </defs>
       <use xlink:href="#DejaVuSans-8722"/>
       <use x="83.789062" xlink:href="#DejaVuSans-49"/>
       <use x="147.412109" xlink:href="#DejaVuSans-46"/>
       <use x="179.199219" xlink:href="#DejaVuSans-53"/>
      </g>
     </g>
    </g>
    <g id="ytick_2">
     <g id="line2d_8">
      <g>
       <use style="stroke:#000000;stroke-width:0.8;" x="52.160938" xlink:href="#m7611e898fa" y="204.427774"/>
      </g>
     </g>
     <g id="text_9">
      <!-- −1.0 -->
      <g transform="translate(20.878125 208.226992)scale(0.1 -0.1)">
       <use xlink:href="#DejaVuSans-8722"/>
       <use x="83.789062" xlink:href="#DejaVuSans-49"/>
       <use x="147.412109" xlink:href="#DejaVuSans-46"/>
       <use x="179.199219" xlink:href="#DejaVuSans-48"/>
      </g>
     </g>
    </g>
    <g id="ytick_3">
     <g id="line2d_9">
      <g>
       <use style="stroke:#000000;stroke-width:0.8;" x="52.160938" xlink:href="#m7611e898fa" y="176.352012"/>
      </g>
     </g>
     <g id="text_10">
      <!-- −0.5 -->
      <g transform="translate(20.878125 180.151231)scale(0.1 -0.1)">
       <use xlink:href="#DejaVuSans-8722"/>
       <use x="83.789062" xlink:href="#DejaVuSans-48"/>
       <use x="147.412109" xlink:href="#DejaVuSans-46"/>
       <use x="179.199219" xlink:href="#DejaVuSans-53"/>
      </g>
     </g>
    </g>
    <g id="ytick_4">
     <g id="line2d_10">
      <g>
       <use style="stroke:#000000;stroke-width:0.8;" x="52.160938" xlink:href="#m7611e898fa" y="148.27625"/>
      </g>
     </g>
     <g id="text_11">
      <!-- 0.0 -->
      <g transform="translate(29.257812 152.075469)scale(0.1 -0.1)">
       <use xlink:href="#DejaVuSans-48"/>
       <use x="63.623047" xlink:href="#DejaVuSans-46"/>
       <use x="95.410156" xlink:href="#DejaVuSans-48"/>
      </g>
     </g>
    </g>
    <g id="ytick_5">
     <g id="line2d_11">
      <g>
       <use style="stroke:#000000;stroke-width:0.8;" x="52.160938" xlink:href="#m7611e898fa" y="120.200488"/>
      </g>
     </g>
     <g id="text_12">
      <!-- 0.5 -->
      <g transform="translate(29.257812 123.999707)scale(0.1 -0.1)">
       <use xlink:href="#DejaVuSans-48"/>
       <use x="63.623047" xlink:href="#DejaVuSans-46"/>
       <use x="95.410156" xlink:href="#DejaVuSans-53"/>
      </g>
     </g>
    </g>
    <g id="ytick_6">
     <g id="line2d_12">
      <g>
       <use style="stroke:#000000;stroke-width:0.8;" x="52.160938" xlink:href="#m7611e898fa" y="92.124726"/>
      </g>
     </g>
     <g id="text_13">
      <!-- 1.0 -->
      <g transform="translate(29.257812 95.923945)scale(0.1 -0.1)">
       <use xlink:href="#DejaVuSans-49"/>
       <use x="63.623047" xlink:href="#DejaVuSans-46"/>
       <use x="95.410156" xlink:href="#DejaVuSans-48"/>
      </g>
     </g>
    </g>
    <g id="ytick_7">
     <g id="line2d_13">
      <g>
       <use style="stroke:#000000;stroke-width:0.8;" x="52.160938" xlink:href="#m7611e898fa" y="64.048965"/>
      </g>
     </g>
     <g id="text_14">
      <!-- 1.5 -->
      <g transform="translate(29.257812 67.848183)scale(0.1 -0.1)">
       <use xlink:href="#DejaVuSans-49"/>
       <use x="63.623047" xlink:href="#DejaVuSans-46"/>
       <use x="95.410156" xlink:href="#DejaVuSans-53"/>
      </g>
     </g>
    </g>
    <g id="text_15">
     <!-- IN [V] -->
     <g transform="translate(14.798438 162.402812)rotate(-90)scale(0.1 -0.1)">
      <defs>
       <path d="M 9.8125 72.90625 
L 19.671875 72.90625 
L 19.671875 0 
L 9.8125 0 
z
" id="DejaVuSans-73"/>
       <path d="M 9.8125 72.90625 
L 23.09375 72.90625 
L 55.421875 11.921875 
L 55.421875 72.90625 
L 64.984375 72.90625 
L 64.984375 0 
L 51.703125 0 
L 19.390625 60.984375 
L 19.390625 0 
L 9.8125 0 
z
" id="DejaVuSans-78"/>
       <path d="M 8.59375 75.984375 
L 29.296875 75.984375 
L 29.296875 69 
L 17.578125 69 
L 17.578125 -6.203125 
L 29.296875 -6.203125 
L 29.296875 -13.1875 
L 8.59375 -13.1875 
z
" id="DejaVuSans-91"/>
       <path d="M 28.609375 0 
L 0.78125 72.90625 
L 11.078125 72.90625 
L 34.1875 11.53125 
L 57.328125 72.90625 
L 67.578125 72.90625 
L 39.796875 0 
z
" id="DejaVuSans-86"/>
       <path d="M 30.421875 75.984375 
L 30.421875 -13.1875 
L 9.71875 -13.1875 
L 9.71875 -6.203125 
L 21.390625 -6.203125 
L 21.390625 69 
L 9.71875 69 
L 9.71875 75.984375 
z
" id="DejaVuSans-93"/>
      </defs>
      <use xlink:href="#DejaVuSans-73"/>
      <use x="29.492188" xlink:href="#DejaVuSans-78"/>
      <use x="104.296875" xlink:href="#DejaVuSans-32"/>
      <use x="136.083984" xlink:href="#DejaVuSans-91"/>
      <use x="175.097656" xlink:href="#DejaVuSans-86"/>
      <use x="243.505859" xlink:href="#DejaVuSans-93"/>
     </g>
    </g>
   </g>
   <g id="line2d_14">
    <path clip-path="url(#p838d633f5d)" d="M 67.379119 148.27625 
L 70.116476 194.029517 
L 71.545984 214.287679 
L 72.671342 227.335 
L 73.614209 235.912714 
L 74.405001 241.29393 
L 75.074133 244.495364 
L 75.621604 246.176014 
L 76.047415 246.897819 
L 76.381981 247.107916 
L 76.655717 247.048492 
L 76.959867 246.741427 
L 77.355263 245.969675 
L 77.841904 244.457472 
L 78.450206 241.732451 
L 79.180168 237.320764 
L 80.062205 230.503499 
L 81.157147 220.158902 
L 82.647486 203.721063 
L 86.996841 154.333459 
L 88.213444 143.674786 
L 89.217142 136.745423 
L 90.068764 132.343384 
L 90.768311 129.790188 
L 91.346197 128.411406 
L 91.832838 127.757482 
L 92.228234 127.560206 
L 92.5628 127.620817 
L 92.927781 127.917153 
L 93.384007 128.611097 
L 93.931478 129.889112 
L 94.60061 132.049042 
L 95.452232 135.608422 
L 96.577589 141.349586 
L 100.714039 163.449928 
L 101.565661 166.405941 
L 102.234793 167.998471 
L 102.751849 168.73148 
L 103.17766 168.984681 
L 103.512226 168.95133 
L 103.877207 168.674485 
L 104.303018 168.026936 
L 104.789659 166.851333 
L 105.367546 164.846475 
L 106.067092 161.539804 
L 106.888299 156.463868 
L 107.831167 149.150229 
L 108.986939 138.296549 
L 110.477278 121.996707 
L 115.069954 70.133336 
L 116.164897 60.959025 
L 117.046934 55.305461 
L 117.74648 52.095028 
L 118.324367 50.367832 
L 118.780593 49.626049 
L 119.115159 49.441384 
L 119.388894 49.520422 
L 119.693045 49.853832 
L 120.088441 50.676708 
L 120.575082 52.296171 
L 121.152969 55.08588 
L 121.8221 59.473165 
L 122.612892 66.203189 
L 123.555759 76.272036 
L 124.681117 90.865599 
L 126.08021 112.119019 
L 128.270096 149.33466 
L 130.977037 194.496132 
L 132.406546 214.677012 
L 133.531903 227.646714 
L 134.474771 236.150982 
L 135.265562 241.46662 
L 135.934694 244.610965 
L 136.482165 246.244532 
L 136.907976 246.929855 
L 137.242542 247.111548 
L 137.516278 247.029146 
L 137.820429 246.696912 
L 138.215825 245.893141 
L 138.702466 244.342871 
L 139.310767 241.572812 
L 140.040729 237.111588 
L 140.922766 230.242248 
L 142.017709 219.846723 
L 143.508047 203.366911 
L 147.796573 154.627932 
L 149.013175 143.912539 
L 150.016873 136.928342 
L 150.868495 132.47632 
L 151.568042 129.881042 
L 152.176343 128.411406 
L 152.662984 127.757482 
L 153.05838 127.560206 
L 153.392946 127.620817 
L 153.757927 127.917153 
L 154.214153 128.611097 
L 154.761624 129.889112 
L 155.430756 132.049042 
L 156.282378 135.608422 
L 157.407736 141.349586 
L 161.544186 163.449928 
L 162.395808 166.405941 
L 163.064939 167.998471 
L 163.581995 168.73148 
L 164.007807 168.984681 
L 164.342372 168.95133 
L 164.707353 168.674485 
L 165.133164 168.026936 
L 165.619805 166.851333 
L 166.197692 164.846475 
L 166.897238 161.539804 
L 167.718445 156.463868 
L 168.661313 149.150229 
L 169.817085 138.296549 
L 171.307424 121.996707 
L 175.9001 70.133336 
L 176.995043 60.959025 
L 177.87708 55.305461 
L 178.576627 52.095028 
L 179.154513 50.367832 
L 179.610739 49.626049 
L 179.945305 49.441384 
L 180.21904 49.520422 
L 180.523191 49.853832 
L 180.918587 50.676708 
L 181.405228 52.296171 
L 181.983115 55.08588 
L 182.652246 59.473165 
L 183.443038 66.203189 
L 184.385905 76.272036 
L 185.511263 90.865599 
L 186.910357 112.119019 
L 189.100242 149.33466 
L 191.807183 194.496132 
L 193.236692 214.677012 
L 194.362049 227.646714 
L 195.304917 236.150982 
L 196.095709 241.46662 
L 196.76484 244.610965 
L 197.312312 246.244532 
L 197.738123 246.929855 
L 198.072688 247.111548 
L 198.346424 247.029146 
L 198.650575 246.696912 
L 199.045971 245.893141 
L 199.532612 244.342871 
L 200.140913 241.572812 
L 200.870875 237.111588 
L 201.752912 230.242248 
L 202.847855 219.846723 
L 204.338193 203.366911 
L 208.626719 154.627932 
L 209.843322 143.912539 
L 210.847019 136.928342 
L 211.698641 132.47632 
L 212.398188 129.881042 
L 213.006489 128.411406 
L 213.49313 127.757482 
L 213.888526 127.560206 
L 214.223092 127.620817 
L 214.588073 127.917153 
L 215.044299 128.611097 
L 215.59177 129.889112 
L 216.260902 132.049042 
L 217.112524 135.608422 
L 218.237882 141.349586 
L 222.374332 163.449928 
L 223.225954 166.405941 
L 223.895085 167.998471 
L 224.412142 168.73148 
L 224.837953 168.984681 
L 225.172518 168.95133 
L 225.537499 168.674485 
L 225.96331 168.026936 
L 226.449952 166.851333 
L 227.027838 164.846475 
L 227.727385 161.539804 
L 228.548592 156.463868 
L 229.491459 149.150229 
L 230.647232 138.296549 
L 232.13757 121.996707 
L 236.730246 70.133336 
L 237.825189 60.959025 
L 238.707226 55.305461 
L 239.406773 52.095028 
L 239.984659 50.367832 
L 240.440885 49.626049 
L 240.775451 49.441384 
L 241.049187 49.520422 
L 241.353337 49.853832 
L 241.748733 50.676708 
L 242.235374 52.296171 
L 242.813261 55.08588 
L 243.482392 59.473165 
L 244.273184 66.203189 
L 245.216052 76.272036 
L 246.341409 90.865599 
L 247.740503 112.119019 
L 249.930388 149.33466 
L 252.637329 194.496132 
L 254.066838 214.677012 
L 255.192196 227.646714 
L 256.135063 236.150982 
L 256.925855 241.46662 
L 257.594986 244.610965 
L 258.142458 246.244532 
L 258.568269 246.929855 
L 258.902835 247.111548 
L 259.17657 247.029146 
L 259.480721 246.696912 
L 259.876117 245.893141 
L 260.362758 244.342871 
L 260.97106 241.572812 
L 261.701021 237.111588 
L 262.583058 230.242248 
L 263.678001 219.846723 
L 265.16834 203.366911 
L 269.456865 154.627932 
L 270.673468 143.912539 
L 271.677165 136.928342 
L 272.528787 132.47632 
L 273.228334 129.881042 
L 273.836635 128.411406 
L 274.323277 127.757482 
L 274.718673 127.560206 
L 275.053238 127.620817 
L 275.418219 127.917153 
L 275.874445 128.611097 
L 276.421917 129.889112 
L 277.091048 132.049042 
L 277.94267 135.608422 
L 279.068028 141.349586 
L 283.204478 163.449928 
L 284.0561 166.405941 
L 284.725232 167.998471 
L 285.242288 168.73148 
L 285.668099 168.984681 
L 286.002665 168.95133 
L 286.367646 168.674485 
L 286.793457 168.026936 
L 287.280098 166.851333 
L 287.857984 164.846475 
L 288.557531 161.539804 
L 289.378738 156.463868 
L 290.321605 149.150229 
L 291.477378 138.296549 
L 292.967716 121.996707 
L 297.560392 70.133336 
L 298.655335 60.959025 
L 299.537372 55.305461 
L 300.236919 52.095028 
L 300.814805 50.367832 
L 301.271031 49.626049 
L 301.605597 49.441384 
L 301.879333 49.520422 
L 302.183484 49.853832 
L 302.578879 50.676708 
L 303.065521 52.296171 
L 303.643407 55.08588 
L 304.312539 59.473165 
L 305.103331 66.203189 
L 306.046198 76.272036 
L 307.171556 90.865599 
L 308.570649 112.119019 
L 310.760534 149.33466 
L 313.467476 194.496132 
L 314.896984 214.677012 
L 316.022342 227.646714 
L 316.965209 236.150982 
L 317.756001 241.46662 
L 318.425133 244.610965 
L 318.972604 246.244532 
L 319.398415 246.929855 
L 319.732981 247.111548 
L 320.006716 247.029146 
L 320.310867 246.696912 
L 320.706263 245.893141 
L 321.192904 244.342871 
L 321.801206 241.572812 
L 322.531167 237.111588 
L 323.413205 230.242248 
L 324.508147 219.846723 
L 325.998486 203.366911 
L 330.287011 154.627932 
L 331.503614 143.912539 
L 332.507311 136.928342 
L 333.358933 132.47632 
L 334.05848 129.881042 
L 334.666782 128.411406 
L 335.153423 127.757482 
L 335.548819 127.560206 
L 335.883385 127.620817 
L 336.248365 127.917153 
L 336.704591 128.611097 
L 337.252063 129.889112 
L 337.921194 132.049042 
L 338.772816 135.608422 
L 339.898174 141.349586 
L 344.034624 163.449928 
L 344.886246 166.405941 
L 345.555378 167.998471 
L 346.072434 168.73148 
L 346.498245 168.984681 
L 346.832811 168.95133 
L 347.197792 168.674485 
L 347.623603 168.026936 
L 348.110244 166.851333 
L 348.68813 164.846475 
L 349.387677 161.539804 
L 350.208884 156.463868 
L 351.151751 149.150229 
L 352.307524 138.296549 
L 353.797863 121.996707 
L 358.390539 70.133336 
L 359.485481 60.959025 
L 360.367518 55.305461 
L 361.067065 52.095028 
L 361.644951 50.367832 
L 362.101178 49.626049 
L 362.435743 49.441384 
L 362.709479 49.520422 
L 363.01363 49.853832 
L 363.409026 50.676708 
L 363.895667 52.296171 
L 364.473553 55.08588 
L 365.142685 59.473165 
L 365.933477 66.203189 
L 366.876344 76.272036 
L 368.001702 90.865599 
L 369.400795 112.119019 
L 371.59068 149.33466 
L 371.742756 151.979864 
L 371.742756 151.979864 
" style="fill:none;stroke:#ffff00;stroke-linecap:square;stroke-width:4;"/>
   </g>
   <g id="line2d_15">
    <path clip-path="url(#p838d633f5d)" d="M 67.379119 148.27625 
L 67.507599 148.251602 
L 67.659675 149.660776 
L 68.298391 158.557279 
L 71.796124 209.809708 
L 72.891067 221.794331 
L 73.773104 229.230528 
L 74.533481 233.897218 
L 75.141783 236.417061 
L 75.628424 237.644021 
L 76.02382 238.124371 
L 76.32797 238.181016 
L 76.601706 238.00195 
L 76.936272 237.491436 
L 77.362083 236.387682 
L 77.879139 234.386999 
L 78.517856 230.969286 
L 79.308648 225.412353 
L 80.28193 216.837936 
L 81.528948 203.714822 
L 83.901324 175.756554 
L 85.543738 157.749117 
L 86.425775 150.188913 
L 86.821171 148.16684 
L 86.912416 148.088333 
L 86.942831 148.135528 
L 87.064491 148.32198 
L 87.094906 148.295245 
L 87.246982 147.814159 
L 87.733623 145.195728 
L 89.528112 135.141616 
L 90.349319 131.877003 
L 91.018451 130.056285 
L 91.565922 129.151194 
L 91.991733 128.810589 
L 92.356714 128.766614 
L 92.721695 128.944518 
L 93.147506 129.420398 
L 93.664562 130.361648 
L 94.303279 132.018158 
L 95.124486 134.810343 
L 96.341088 139.834343 
L 98.044333 146.778506 
L 98.561389 148.104568 
L 98.804709 148.276906 
L 98.956785 148.057332 
L 99.078445 148.005022 
L 99.260935 148.329794 
L 99.777992 149.880465 
L 101.511651 155.29609 
L 102.211198 156.734088 
L 102.758669 157.400988 
L 103.18448 157.609765 
L 103.549461 157.560947 
L 103.944857 157.264364 
L 104.401083 156.605047 
L 104.948554 155.375227 
L 105.617686 153.278857 
L 107.138439 148.064019 
L 107.168854 148.088709 
L 107.351345 148.339752 
L 107.38176 148.316157 
L 107.533835 147.954528 
L 107.898816 146.32424 
L 108.507118 142.428352 
L 109.389155 135.164953 
L 110.605758 123.092039 
L 112.917303 97.326116 
L 114.711793 78.535662 
L 115.867565 68.625602 
L 116.780018 62.597314 
L 117.509979 59.138045 
L 118.087866 57.349228 
L 118.544092 56.565244 
L 118.878658 56.354539 
L 119.152393 56.415803 
L 119.456544 56.733437 
L 119.821525 57.464057 
L 120.277751 58.915325 
L 120.825222 61.442646 
L 121.494354 65.675007 
L 122.285146 72.232313 
L 123.228013 82.077605 
L 124.383786 96.702003 
L 126.0262 120.723769 
L 127.790274 145.868083 
L 128.12484 148.355664 
L 128.2465 148.244588 
L 128.276915 148.376816 
L 128.489821 150.66346 
L 129.280613 162.152123 
L 132.230875 206.22638 
L 133.386647 219.850586 
L 134.329515 228.560599 
L 135.120307 233.993845 
L 135.789438 237.180719 
L 136.33691 238.804089 
L 136.762721 239.451866 
L 137.066871 239.587039 
L 137.340607 239.477651 
L 137.644758 239.102686 
L 138.040154 238.223852 
L 138.526795 236.552499 
L 139.135096 233.59091 
L 139.865058 228.851449 
L 140.77751 221.323004 
L 141.933283 209.732497 
L 143.636527 190.072701 
L 146.221808 160.372981 
L 147.225506 151.276666 
L 147.712147 148.376293 
L 147.864222 148.113406 
L 147.894637 148.156615 
L 148.016298 148.352997 
L 148.046713 148.332692 
L 148.198788 147.880894 
L 148.685429 145.345349 
L 150.449503 135.789808 
L 151.240295 132.764064 
L 151.909427 131.021913 
L 152.456898 130.176972 
L 152.882709 129.880012 
L 153.24769 129.870867 
L 153.612671 130.080872 
L 154.038482 130.590278 
L 154.585953 131.634509 
L 155.255085 133.438291 
L 156.137122 136.525451 
L 157.657876 142.853713 
L 158.783233 147.13671 
L 159.23946 148.199445 
L 159.452365 148.292592 
L 159.726101 148.055019 
L 159.756516 148.096747 
L 160.030251 148.759081 
L 160.821043 151.449027 
L 162.128892 155.70818 
L 162.889268 157.459348 
L 163.467155 158.282119 
L 163.923381 158.580763 
L 164.288362 158.582621 
L 164.653343 158.36696 
L 165.079154 157.836747 
L 165.59621 156.792702 
L 166.234926 154.927958 
L 167.056133 151.765829 
L 168.029416 148.144335 
L 168.120661 148.096207 
L 168.151076 148.128243 
L 168.333566 148.358514 
L 168.363982 148.324822 
L 168.546472 147.807108 
L 168.941868 145.849961 
L 169.611 141.233865 
L 170.553867 133.011007 
L 171.89213 119.187391 
L 175.998165 75.427056 
L 177.032277 67.279047 
L 177.883899 62.215335 
L 178.553031 59.440966 
L 179.100502 58.027775 
L 179.495898 57.51009 
L 179.800049 57.406877 
L 180.073785 57.536797 
L 180.40835 57.985229 
L 180.803746 58.928667 
L 181.290388 60.705554 
L 181.898689 63.874064 
L 182.598236 68.786561 
L 183.419443 76.194508 
L 184.42314 87.41814 
L 185.670158 104.057578 
L 188.863741 148.293616 
L 188.924571 148.377976 
L 188.954986 148.318354 
L 189.015816 148.252139 
L 189.046231 148.362084 
L 189.228722 150.228537 
L 189.928268 160.212478 
L 193.273926 209.919881 
L 194.399284 222.684005 
L 195.311736 230.709202 
L 196.072113 235.635537 
L 196.71083 238.475105 
L 197.227886 239.888937 
L 197.623282 240.434737 
L 197.927433 240.540845 
L 198.201168 240.405453 
L 198.535734 239.947012 
L 198.961545 238.907054 
L 199.478601 236.97938 
L 200.117318 233.64378 
L 200.877695 228.409534 
L 201.820562 220.260497 
L 203.037165 207.629064 
L 205.04456 183.998036 
L 207.08237 160.829553 
L 208.086067 151.669682 
L 208.603123 148.481073 
L 208.755199 148.123697 
L 208.785614 148.133087 
L 208.937689 148.369909 
L 208.998519 148.294878 
L 209.211425 147.498056 
L 209.910971 143.669384 
L 211.218819 136.782504 
L 212.040026 133.598 
L 212.709158 131.826814 
L 213.256629 130.954185 
L 213.68244 130.634209 
L 214.047421 130.604708 
L 214.412402 130.79403 
L 214.838213 131.279139 
L 215.355269 132.22512 
L 216.024401 133.966767 
L 216.876023 136.866142 
L 218.275116 142.567836 
L 219.491719 147.191878 
L 219.947945 148.23309 
L 220.130436 148.317239 
L 220.434587 148.093929 
L 220.465002 148.142692 
L 220.769152 148.933146 
L 221.65119 152.051289 
L 222.898208 156.205577 
L 223.658584 158.025709 
L 224.236471 158.902578 
L 224.692697 159.244338 
L 225.088093 159.273614 
L 225.453074 159.072915 
L 225.878885 158.557999 
L 226.395941 157.52797 
L 227.004242 155.771435 
L 227.795034 152.733924 
L 228.981222 148.133328 
L 229.072467 148.137013 
L 229.254958 148.374647 
L 229.285373 148.341683 
L 229.467863 147.813944 
L 229.863259 145.814547 
L 230.532391 141.119496 
L 231.475258 132.798407 
L 232.843936 118.552758 
L 236.706651 77.239701 
L 237.771178 68.645175 
L 238.6228 63.40711 
L 239.322347 60.373027 
L 239.869818 58.869788 
L 240.295629 58.257278 
L 240.630195 58.127957 
L 240.903931 58.256477 
L 241.238497 58.703067 
L 241.633893 59.644139 
L 242.120534 61.417821 
L 242.728835 64.581834 
L 243.428382 69.488398 
L 244.249589 76.888126 
L 245.253286 88.099229 
L 246.500304 104.716863 
L 249.663472 148.327797 
L 249.724302 148.380002 
L 249.754717 148.310709 
L 249.785132 148.252591 
L 249.815547 148.279265 
L 249.937208 149.253304 
L 250.484679 156.655459 
L 254.651544 217.157525 
L 255.655241 227.367197 
L 256.506863 233.94043 
L 257.20641 237.796192 
L 257.784296 239.896098 
L 258.240522 240.85336 
L 258.605503 241.175202 
L 258.879239 241.159772 
L 259.18339 240.887522 
L 259.548371 240.212126 
L 260.004597 238.846394 
L 260.582483 236.318027 
L 261.28203 232.13978 
L 262.133652 225.569709 
L 263.198179 215.44802 
L 264.627688 199.513927 
L 268.338327 157.143583 
L 269.189949 150.121177 
L 269.585345 148.20652 
L 269.67659 148.141481 
L 269.707005 148.189687 
L 269.828665 148.378909 
L 269.85908 148.357074 
L 270.011156 147.915868 
L 270.497797 145.466039 
L 272.201041 136.604378 
L 272.991833 133.72012 
L 273.630549 132.14984 
L 274.147606 131.394849 
L 274.573417 131.118667 
L 274.938398 131.124869 
L 275.333794 131.375886 
L 275.79002 131.965423 
L 276.337491 133.064395 
L 277.037038 135.01205 
L 277.979905 138.380669 
L 280.534771 147.989548 
L 280.808507 148.333431 
L 280.930167 148.26178 
L 281.112657 148.044981 
L 281.143073 148.068584 
L 281.355978 148.512897 
L 281.933864 150.433414 
L 283.789184 156.834678 
L 284.519146 158.550458 
L 285.097032 159.404743 
L 285.553258 159.724987 
L 285.918239 159.741895 
L 286.28322 159.538968 
L 286.709031 159.019978 
L 287.226087 157.982429 
L 287.834389 156.21195 
L 288.62518 153.140473 
L 289.872198 148.148025 
L 289.963444 148.139735 
L 290.145934 148.383109 
L 290.176349 148.351265 
L 290.35884 147.818803 
L 290.754236 145.792801 
L 291.423367 141.046768 
L 292.39665 132.36724 
L 293.826158 117.35255 
L 297.384722 79.122625 
L 298.479664 70.017477 
L 299.361701 64.386847 
L 300.061248 61.194776 
L 300.639134 59.491395 
L 301.064945 58.80692 
L 301.399511 58.619701 
L 301.673247 58.700169 
L 301.977398 59.039028 
L 302.372794 59.875031 
L 302.859435 61.519372 
L 303.437321 64.348597 
L 304.136868 69.018926 
L 304.958075 76.158843 
L 305.931357 86.726644 
L 307.14796 102.587013 
L 309.18577 132.723407 
L 310.250297 146.805889 
L 310.524033 148.392075 
L 310.615278 148.273146 
L 310.645693 148.391001 
L 310.858599 150.650493 
L 311.618976 161.682777 
L 314.782143 209.088238 
L 315.937916 222.561713 
L 316.880783 231.119473 
L 317.671575 236.411516 
L 318.310292 239.362399 
L 318.827348 240.866629 
L 319.253159 241.509121 
L 319.55731 241.640172 
L 319.831045 241.526833 
L 320.165611 241.094722 
L 320.561007 240.17577 
L 321.078063 238.327409 
L 321.686365 235.26016 
L 322.446742 230.174259 
L 323.359194 222.460309 
L 324.545382 210.348262 
L 326.339871 189.384639 
L 328.742662 161.714039 
L 329.776774 152.163974 
L 330.354661 148.522202 
L 330.537151 148.135505 
L 330.719642 148.372665 
L 330.780472 148.267758 
L 331.023792 147.307895 
L 331.90583 142.519328 
L 333.031187 136.936098 
L 333.821979 134.059362 
L 334.460696 132.491743 
L 334.977752 131.737343 
L 335.403563 131.460779 
L 335.768544 131.466085 
L 336.16394 131.715563 
L 336.620166 132.302582 
L 337.167637 133.397415 
L 337.867184 135.337709 
L 338.810051 138.691291 
L 341.304087 147.997256 
L 341.577823 148.33623 
L 341.699483 148.258899 
L 341.881973 148.049405 
L 341.912389 148.075191 
L 342.125294 148.528587 
L 342.70318 150.46859 
L 344.61933 157.147946 
L 345.349292 158.868895 
L 345.927178 159.724751 
L 346.383404 160.04495 
L 346.748385 160.061052 
L 347.113366 159.856616 
L 347.539177 159.334897 
L 348.056233 158.292349 
L 348.664535 156.512674 
L 349.455327 153.419146 
L 350.763175 148.134787 
L 350.85442 148.168235 
L 351.006495 148.390841 
L 351.03691 148.368631 
L 351.188986 147.975983 
L 351.553967 146.202136 
L 352.192683 141.802247 
L 353.135551 133.552874 
L 354.504229 119.353733 
L 358.397358 77.80197 
L 359.461886 69.266112 
L 360.313508 64.083651 
L 361.013054 61.099894 
L 361.560526 59.638282 
L 361.986337 59.059136 
L 362.290488 58.952805 
L 362.564223 59.079703 
L 362.898789 59.524157 
L 363.294185 60.462483 
L 363.780826 62.232443 
L 364.389128 65.391229 
L 365.088674 70.290892 
L 365.909881 77.681045 
L 366.913579 88.877527 
L 368.160597 105.469622 
L 371.262934 148.272232 
L 371.323764 148.40087 
L 371.354179 148.360548 
L 371.415009 148.256155 
L 371.445425 148.328411 
L 371.52985 148.996528 
L 371.52985 148.996528 
" style="fill:none;stroke:#ff0000;stroke-linecap:square;stroke-width:1.5;"/>
   </g>
   <g id="patch_3">
    <path d="M 52.160938 256.99625 
L 52.160938 39.55625 
" style="fill:none;stroke:#000000;stroke-linecap:square;stroke-linejoin:miter;stroke-width:0.8;"/>
   </g>
   <g id="patch_4">
    <path d="M 386.960938 256.99625 
L 386.960938 39.55625 
" style="fill:none;stroke:#000000;stroke-linecap:square;stroke-linejoin:miter;stroke-width:0.8;"/>
   </g>
   <g id="patch_5">
    <path d="M 52.160938 256.99625 
L 386.960938 256.99625 
" style="fill:none;stroke:#000000;stroke-linecap:square;stroke-linejoin:miter;stroke-width:0.8;"/>
   </g>
   <g id="patch_6">
    <path d="M 52.160938 39.55625 
L 386.960938 39.55625 
" style="fill:none;stroke:#000000;stroke-linecap:square;stroke-linejoin:miter;stroke-width:0.8;"/>
   </g>
   <g id="legend_1">
    <g id="patch_7">
     <path d="M 723.760938 39.55625 
L 800.326563 39.55625 
Q 802.326563 39.55625 802.326563 37.55625 
L 802.326563 9.2 
Q 802.326563 7.2 800.326563 7.2 
L 723.760938 7.2 
Q 721.760938 7.2 721.760938 9.2 
L 721.760938 37.55625 
Q 721.760938 39.55625 723.760938 39.55625 
z
" style="fill:#ffffff;opacity:0.8;stroke:#cccccc;stroke-linejoin:miter;"/>
    </g>
    <g id="line2d_16">
     <path d="M 725.760938 15.298437 
L 745.760938 15.298437 
" style="fill:none;stroke:#ffff00;stroke-linecap:square;stroke-width:4;"/>
    </g>
    <g id="line2d_17"/>
    <g id="text_16">
     <!-- Vcalc [V] -->
     <g transform="translate(753.760938 18.798437)scale(0.1 -0.1)">
      <defs>
       <path d="M 48.78125 52.59375 
L 48.78125 44.1875 
Q 44.96875 46.296875 41.140625 47.34375 
Q 37.3125 48.390625 33.40625 48.390625 
Q 24.65625 48.390625 19.8125 42.84375 
Q 14.984375 37.3125 14.984375 27.296875 
Q 14.984375 17.28125 19.8125 11.734375 
Q 24.65625 6.203125 33.40625 6.203125 
Q 37.3125 6.203125 41.140625 7.25 
Q 44.96875 8.296875 48.78125 10.40625 
L 48.78125 2.09375 
Q 45.015625 0.34375 40.984375 -0.53125 
Q 36.96875 -1.421875 32.421875 -1.421875 
Q 20.0625 -1.421875 12.78125 6.34375 
Q 5.515625 14.109375 5.515625 27.296875 
Q 5.515625 40.671875 12.859375 48.328125 
Q 20.21875 56 33.015625 56 
Q 37.15625 56 41.109375 55.140625 
Q 45.0625 54.296875 48.78125 52.59375 
z
" id="DejaVuSans-99"/>
       <path d="M 34.28125 27.484375 
Q 23.390625 27.484375 19.1875 25 
Q 14.984375 22.515625 14.984375 16.5 
Q 14.984375 11.71875 18.140625 8.90625 
Q 21.296875 6.109375 26.703125 6.109375 
Q 34.1875 6.109375 38.703125 11.40625 
Q 43.21875 16.703125 43.21875 25.484375 
L 43.21875 27.484375 
z
M 52.203125 31.203125 
L 52.203125 0 
L 43.21875 0 
L 43.21875 8.296875 
Q 40.140625 3.328125 35.546875 0.953125 
Q 30.953125 -1.421875 24.3125 -1.421875 
Q 15.921875 -1.421875 10.953125 3.296875 
Q 6 8.015625 6 15.921875 
Q 6 25.140625 12.171875 29.828125 
Q 18.359375 34.515625 30.609375 34.515625 
L 43.21875 34.515625 
L 43.21875 35.40625 
Q 43.21875 41.609375 39.140625 45 
Q 35.0625 48.390625 27.6875 48.390625 
Q 23 48.390625 18.546875 47.265625 
Q 14.109375 46.140625 10.015625 43.890625 
L 10.015625 52.203125 
Q 14.9375 54.109375 19.578125 55.046875 
Q 24.21875 56 28.609375 56 
Q 40.484375 56 46.34375 49.84375 
Q 52.203125 43.703125 52.203125 31.203125 
z
" id="DejaVuSans-97"/>
       <path d="M 9.421875 75.984375 
L 18.40625 75.984375 
L 18.40625 0 
L 9.421875 0 
z
" id="DejaVuSans-108"/>
      </defs>
      <use xlink:href="#DejaVuSans-86"/>
      <use x="68.408203" xlink:href="#DejaVuSans-99"/>
      <use x="123.388672" xlink:href="#DejaVuSans-97"/>
      <use x="184.667969" xlink:href="#DejaVuSans-108"/>
      <use x="212.451172" xlink:href="#DejaVuSans-99"/>
      <use x="267.431641" xlink:href="#DejaVuSans-32"/>
      <use x="299.21875" xlink:href="#DejaVuSans-91"/>
      <use x="338.232422" xlink:href="#DejaVuSans-86"/>
      <use x="406.640625" xlink:href="#DejaVuSans-93"/>
     </g>
    </g>
    <g id="line2d_18">
     <path d="M 725.760938 29.976562 
L 745.760938 29.976562 
" style="fill:none;stroke:#ff0000;stroke-linecap:square;stroke-width:1.5;"/>
    </g>
    <g id="line2d_19"/>
    <g id="text_17">
     <!-- Vsim [V] -->
     <g transform="translate(753.760938 33.476562)scale(0.1 -0.1)">
      <use xlink:href="#DejaVuSans-86"/>
      <use x="68.408203" xlink:href="#DejaVuSans-115"/>
      <use x="120.507812" xlink:href="#DejaVuSans-105"/>
      <use x="148.291016" xlink:href="#DejaVuSans-109"/>
      <use x="245.703125" xlink:href="#DejaVuSans-32"/>
      <use x="277.490234" xlink:href="#DejaVuSans-91"/>
      <use x="316.503906" xlink:href="#DejaVuSans-86"/>
      <use x="384.912109" xlink:href="#DejaVuSans-93"/>
     </g>
    </g>
   </g>
  </g>
 </g>
 <defs>
  <clipPath id="p838d633f5d">
   <rect height="217.44" width="334.8" x="52.160938" y="39.55625"/>
  </clipPath>
 </defs>
</svg>
