<?xml version="1.0" encoding="utf-8" standalone="no"?>
<!DOCTYPE svg PUBLIC "-//W3C//DTD SVG 1.1//EN"
  "http://www.w3.org/Graphics/SVG/1.1/DTD/svg11.dtd">
<svg height="195.484pt" version="1.1" viewBox="0 0 421.0026 195.484" width="421.0026pt" xmlns="http://www.w3.org/2000/svg" xmlns:xlink="http://www.w3.org/1999/xlink">
 <metadata>
  <rdf:RDF xmlns:cc="http://creativecommons.org/ns#" xmlns:dc="http://purl.org/dc/elements/1.1/" xmlns:rdf="http://www.w3.org/1999/02/22-rdf-syntax-ns#">
   <cc:Work>
    <dc:type rdf:resource="http://purl.org/dc/dcmitype/StillImage"/>
    <dc:date>2021-06-22T10:45:01.892329</dc:date>
    <dc:format>image/svg+xml</dc:format>
    <dc:creator>
     <cc:Agent>
      <dc:title>Matplotlib v3.4.2, https://matplotlib.org/</dc:title>
     </cc:Agent>
    </dc:creator>
   </cc:Work>
  </rdf:RDF>
 </metadata>
 <defs>
  <style type="text/css">*{stroke-linecap:butt;stroke-linejoin:round;}</style>
 </defs>
 <g id="figure_1">
  <g id="patch_1">
   <path d="M 0 195.484 
L 421.0026 195.484 
L 421.0026 0 
L 0 0 
z
" style="fill:none;"/>
  </g>
  <g id="axes_1">
   <g id="patch_2">
    <path clip-path="url(#pae58f98761)" d="M 236.7918 92.812 
C 237.765626 92.812 238.699697 92.425095 239.388296 91.736496 
C 240.076895 91.047897 240.4638 90.113826 240.4638 89.14 
C 240.4638 88.166174 240.076895 87.232103 239.388296 86.543504 
C 238.699697 85.854905 237.765626 85.468 236.7918 85.468 
C 235.817974 85.468 234.883903 85.854905 234.195304 86.543504 
C 233.506705 87.232103 233.1198 88.166174 233.1198 89.14 
C 233.1198 90.113826 233.506705 91.047897 234.195304 91.736496 
C 234.883903 92.425095 235.817974 92.812 236.7918 92.812 
z
" style="fill:none;stroke:#000000;stroke-linejoin:miter;stroke-width:1.2;"/>
   </g>
   <g id="line2d_1">
    <path clip-path="url(#pae58f98761)" d="M 30.2418 89.14 
L 53.1918 89.14 
L 55.7418 81.49 
L 60.8418 96.79 
L 65.9418 81.49 
L 71.0418 96.79 
L 76.1418 81.49 
L 81.2418 96.79 
L 83.7918 89.14 
L 106.7418 89.14 
" style="fill:none;stroke:#000000;stroke-linecap:round;stroke-width:1.2;"/>
   </g>
   <g id="line2d_2">
    <path clip-path="url(#pae58f98761)" d="M 106.7418 89.14 
L 142.2378 89.14 
M 142.2378 81.49 
L 142.2378 96.79 
M 147.7458 81.49 
L 147.7458 96.79 
M 147.7458 89.14 
L 183.2418 89.14 
" style="fill:none;stroke:#000000;stroke-linecap:round;stroke-width:1.2;"/>
   </g>
   <g id="line2d_3">
    <path clip-path="url(#pae58f98761)" d="M 183.2418 89.14 
L 202.5198 89.14 
L 213.2298 89.14 
M 240.4638 89.14 
L 259.7418 89.14 
" style="fill:none;stroke:#000000;stroke-linecap:round;stroke-width:1.2;"/>
   </g>
   <g id="line2d_4">
    <path clip-path="url(#pae58f98761)" d="M 240.4638 89.14 
L 243.8298 89.14 
" style="fill:none;stroke:#000000;stroke-linecap:round;stroke-width:1.2;"/>
   </g>
   <g id="line2d_5">
    <path clip-path="url(#pae58f98761)" d="M 213.2298 89.14 
L 213.2298 104.44 
L 233.1198 89.14 
L 213.2298 73.84 
L 213.2298 89.14 
" style="fill:none;stroke:#000000;stroke-linecap:round;stroke-width:1.2;"/>
   </g>
   <g id="line2d_6">
    <path clip-path="url(#pae58f98761)" d="M 259.7418 89.14 
L 295.2378 89.14 
M 295.2378 81.49 
L 295.2378 96.79 
M 300.7458 81.49 
L 300.7458 96.79 
M 300.7458 89.14 
L 336.2418 89.14 
" style="fill:none;stroke:#000000;stroke-linecap:round;stroke-width:1.2;"/>
   </g>
   <g id="line2d_7">
    <path clip-path="url(#pae58f98761)" d="M 336.2418 89.14 
L 336.2418 112.09 
L 343.8918 114.64 
L 328.5918 119.74 
L 343.8918 124.84 
L 328.5918 129.94 
L 343.8918 135.04 
L 328.5918 140.14 
L 336.2418 142.69 
L 336.2418 165.64 
" style="fill:none;stroke:#000000;stroke-linecap:round;stroke-width:1.2;"/>
   </g>
   <g id="line2d_8">
    <path clip-path="url(#pae58f98761)" d="M 336.2418 165.64 
L 336.2418 177.88 
L 328.5918 177.88 
L 343.8918 177.88 
M 330.8868 181.552 
L 341.5968 181.552 
M 334.7118 185.224 
L 337.7718 185.224 
" style="fill:none;stroke:#000000;stroke-linecap:round;stroke-width:1.2;"/>
   </g>
   <g id="line2d_9">
    <path clip-path="url(#pae58f98761)" d="M 183.2418 89.14 
L 183.2418 70.015 
L 183.2418 50.89 
" style="fill:none;stroke:#000000;stroke-linecap:round;stroke-width:1.2;"/>
   </g>
   <g id="line2d_10">
    <path clip-path="url(#pae58f98761)" d="M 183.2418 50.89 
L 206.1918 50.89 
L 208.7418 43.24 
L 213.8418 58.54 
L 218.9418 43.24 
L 224.0418 58.54 
L 229.1418 43.24 
L 234.2418 58.54 
L 236.7918 50.89 
L 259.7418 50.89 
" style="fill:none;stroke:#000000;stroke-linecap:round;stroke-width:1.2;"/>
   </g>
   <g id="line2d_11">
    <path clip-path="url(#pae58f98761)" d="M 259.7418 50.89 
L 259.7418 70.015 
L 259.7418 89.14 
" style="fill:none;stroke:#000000;stroke-linecap:round;stroke-width:1.2;"/>
   </g>
   <g id="line2d_12">
    <path clip-path="url(#pae58f98761)" d="M 336.2418 89.14 
L 355.3668 89.14 
L 374.4918 89.14 
" style="fill:none;stroke:#000000;stroke-linecap:round;stroke-width:1.2;"/>
   </g>
   <g id="text_1">
    <!-- $R_1$ -->
    <g transform="translate(60.3018 59.8415)scale(0.14 -0.14)">
     <defs>
      <path d="M 1613 4147 
L 1294 2491 
L 2106 2491 
Q 2584 2491 2879 2755 
Q 3175 3019 3175 3444 
Q 3175 3784 2976 3965 
Q 2778 4147 2406 4147 
L 1613 4147 
z
M 2772 2241 
Q 2972 2194 3105 2009 
Q 3238 1825 3413 1275 
L 3809 0 
L 3144 0 
L 2778 1197 
Q 2638 1659 2453 1815 
Q 2269 1972 1888 1972 
L 1191 1972 
L 806 0 
L 172 0 
L 1081 4666 
L 2503 4666 
Q 3150 4666 3495 4373 
Q 3841 4081 3841 3531 
Q 3841 3044 3547 2687 
Q 3253 2331 2772 2241 
z
" id="DejaVuSans-Oblique-52" transform="scale(0.015625)"/>
      <path d="M 794 531 
L 1825 531 
L 1825 4091 
L 703 3866 
L 703 4441 
L 1819 4666 
L 2450 4666 
L 2450 531 
L 3481 531 
L 3481 0 
L 794 0 
L 794 531 
z
" id="DejaVuSans-31" transform="scale(0.015625)"/>
     </defs>
     <use transform="translate(0 0.09375)" xlink:href="#DejaVuSans-Oblique-52"/>
     <use transform="translate(69.482422 -16.3125)scale(0.7)" xlink:href="#DejaVuSans-31"/>
    </g>
    <!-- 100k -->
    <g transform="translate(51.077112 75.518437)scale(0.14 -0.14)">
     <defs>
      <path d="M 2034 4250 
Q 1547 4250 1301 3770 
Q 1056 3291 1056 2328 
Q 1056 1369 1301 889 
Q 1547 409 2034 409 
Q 2525 409 2770 889 
Q 3016 1369 3016 2328 
Q 3016 3291 2770 3770 
Q 2525 4250 2034 4250 
z
M 2034 4750 
Q 2819 4750 3233 4129 
Q 3647 3509 3647 2328 
Q 3647 1150 3233 529 
Q 2819 -91 2034 -91 
Q 1250 -91 836 529 
Q 422 1150 422 2328 
Q 422 3509 836 4129 
Q 1250 4750 2034 4750 
z
" id="DejaVuSans-30" transform="scale(0.015625)"/>
      <path d="M 581 4863 
L 1159 4863 
L 1159 1991 
L 2875 3500 
L 3609 3500 
L 1753 1863 
L 3688 0 
L 2938 0 
L 1159 1709 
L 1159 0 
L 581 0 
L 581 4863 
z
" id="DejaVuSans-6b" transform="scale(0.015625)"/>
     </defs>
     <use xlink:href="#DejaVuSans-31"/>
     <use x="63.623047" xlink:href="#DejaVuSans-30"/>
     <use x="127.246094" xlink:href="#DejaVuSans-30"/>
     <use x="190.869141" xlink:href="#DejaVuSans-6b"/>
    </g>
   </g>
   <g id="text_2">
    <!-- $C_1$ -->
    <g transform="translate(136.7318 59.8415)scale(0.14 -0.14)">
     <defs>
      <path d="M 4447 4306 
L 4319 3641 
Q 4019 3944 3683 4091 
Q 3347 4238 2956 4238 
Q 2422 4238 2017 3981 
Q 1613 3725 1319 3200 
Q 1131 2863 1032 2486 
Q 934 2109 934 1728 
Q 934 1091 1264 756 
Q 1594 422 2222 422 
Q 2656 422 3056 561 
Q 3456 700 3834 978 
L 3688 231 
Q 3316 72 2936 -9 
Q 2556 -91 2175 -91 
Q 1278 -91 773 396 
Q 269 884 269 1753 
Q 269 2309 461 2846 
Q 653 3384 1013 3828 
Q 1394 4300 1883 4525 
Q 2372 4750 3022 4750 
Q 3422 4750 3780 4639 
Q 4138 4528 4447 4306 
z
" id="DejaVuSans-Oblique-43" transform="scale(0.015625)"/>
     </defs>
     <use transform="translate(0 0.78125)" xlink:href="#DejaVuSans-Oblique-43"/>
     <use transform="translate(69.824219 -15.625)scale(0.7)" xlink:href="#DejaVuSans-31"/>
    </g>
    <!-- 47n -->
    <g transform="translate(131.64805 75.518437)scale(0.14 -0.14)">
     <defs>
      <path d="M 2419 4116 
L 825 1625 
L 2419 1625 
L 2419 4116 
z
M 2253 4666 
L 3047 4666 
L 3047 1625 
L 3713 1625 
L 3713 1100 
L 3047 1100 
L 3047 0 
L 2419 0 
L 2419 1100 
L 313 1100 
L 313 1709 
L 2253 4666 
z
" id="DejaVuSans-34" transform="scale(0.015625)"/>
      <path d="M 525 4666 
L 3525 4666 
L 3525 4397 
L 1831 0 
L 1172 0 
L 2766 4134 
L 525 4134 
L 525 4666 
z
" id="DejaVuSans-37" transform="scale(0.015625)"/>
      <path d="M 3513 2113 
L 3513 0 
L 2938 0 
L 2938 2094 
Q 2938 2591 2744 2837 
Q 2550 3084 2163 3084 
Q 1697 3084 1428 2787 
Q 1159 2491 1159 1978 
L 1159 0 
L 581 0 
L 581 3500 
L 1159 3500 
L 1159 2956 
Q 1366 3272 1645 3428 
Q 1925 3584 2291 3584 
Q 2894 3584 3203 3211 
Q 3513 2838 3513 2113 
z
" id="DejaVuSans-6e" transform="scale(0.015625)"/>
     </defs>
     <use xlink:href="#DejaVuSans-34"/>
     <use x="63.623047" xlink:href="#DejaVuSans-37"/>
     <use x="127.246094" xlink:href="#DejaVuSans-6e"/>
    </g>
   </g>
   <g id="text_3">
    <!-- $C_2$ -->
    <g transform="translate(289.7318 59.8415)scale(0.14 -0.14)">
     <defs>
      <path d="M 1228 531 
L 3431 531 
L 3431 0 
L 469 0 
L 469 531 
Q 828 903 1448 1529 
Q 2069 2156 2228 2338 
Q 2531 2678 2651 2914 
Q 2772 3150 2772 3378 
Q 2772 3750 2511 3984 
Q 2250 4219 1831 4219 
Q 1534 4219 1204 4116 
Q 875 4013 500 3803 
L 500 4441 
Q 881 4594 1212 4672 
Q 1544 4750 1819 4750 
Q 2544 4750 2975 4387 
Q 3406 4025 3406 3419 
Q 3406 3131 3298 2873 
Q 3191 2616 2906 2266 
Q 2828 2175 2409 1742 
Q 1991 1309 1228 531 
z
" id="DejaVuSans-32" transform="scale(0.015625)"/>
     </defs>
     <use transform="translate(0 0.78125)" xlink:href="#DejaVuSans-Oblique-43"/>
     <use transform="translate(69.824219 -15.625)scale(0.7)" xlink:href="#DejaVuSans-32"/>
    </g>
    <!-- 10u -->
    <g transform="translate(284.64805 75.518437)scale(0.14 -0.14)">
     <defs>
      <path d="M 544 1381 
L 544 3500 
L 1119 3500 
L 1119 1403 
Q 1119 906 1312 657 
Q 1506 409 1894 409 
Q 2359 409 2629 706 
Q 2900 1003 2900 1516 
L 2900 3500 
L 3475 3500 
L 3475 0 
L 2900 0 
L 2900 538 
Q 2691 219 2414 64 
Q 2138 -91 1772 -91 
Q 1169 -91 856 284 
Q 544 659 544 1381 
z
M 1991 3584 
L 1991 3584 
z
" id="DejaVuSans-75" transform="scale(0.015625)"/>
     </defs>
     <use xlink:href="#DejaVuSans-31"/>
     <use x="63.623047" xlink:href="#DejaVuSans-30"/>
     <use x="127.246094" xlink:href="#DejaVuSans-75"/>
    </g>
   </g>
   <g id="text_4">
    <!-- $R_{load}$ -->
    <g transform="translate(294.4518 131.253125)scale(0.14 -0.14)">
     <defs>
      <path d="M 1172 4863 
L 1747 4863 
L 800 0 
L 225 0 
L 1172 4863 
z
" id="DejaVuSans-Oblique-6c" transform="scale(0.015625)"/>
      <path d="M 1625 -91 
Q 1009 -91 651 289 
Q 294 669 294 1325 
Q 294 1706 417 2101 
Q 541 2497 738 2766 
Q 1047 3184 1428 3384 
Q 1809 3584 2291 3584 
Q 2888 3584 3255 3212 
Q 3622 2841 3622 2241 
Q 3622 1825 3500 1412 
Q 3378 1000 3181 728 
Q 2875 309 2494 109 
Q 2113 -91 1625 -91 
z
M 891 1344 
Q 891 869 1089 633 
Q 1288 397 1691 397 
Q 2269 397 2648 901 
Q 3028 1406 3028 2181 
Q 3028 2634 2825 2865 
Q 2622 3097 2228 3097 
Q 1903 3097 1650 2945 
Q 1397 2794 1197 2484 
Q 1050 2253 970 1956 
Q 891 1659 891 1344 
z
" id="DejaVuSans-Oblique-6f" transform="scale(0.015625)"/>
      <path d="M 3438 1997 
L 3047 0 
L 2472 0 
L 2578 531 
Q 2325 219 2001 64 
Q 1678 -91 1281 -91 
Q 834 -91 548 182 
Q 263 456 263 884 
Q 263 1497 752 1853 
Q 1241 2209 2100 2209 
L 2900 2209 
L 2931 2363 
Q 2938 2388 2941 2417 
Q 2944 2447 2944 2509 
Q 2944 2788 2717 2942 
Q 2491 3097 2081 3097 
Q 1800 3097 1504 3025 
Q 1209 2953 897 2809 
L 997 3341 
Q 1322 3463 1633 3523 
Q 1944 3584 2234 3584 
Q 2853 3584 3176 3315 
Q 3500 3047 3500 2534 
Q 3500 2431 3484 2292 
Q 3469 2153 3438 1997 
z
M 2816 1759 
L 2241 1759 
Q 1534 1759 1195 1570 
Q 856 1381 856 984 
Q 856 709 1029 553 
Q 1203 397 1509 397 
Q 1978 397 2328 733 
Q 2678 1069 2791 1631 
L 2816 1759 
z
" id="DejaVuSans-Oblique-61" transform="scale(0.015625)"/>
      <path d="M 2675 525 
Q 2444 222 2128 65 
Q 1813 -91 1428 -91 
Q 903 -91 598 267 
Q 294 625 294 1247 
Q 294 1766 478 2236 
Q 663 2706 1013 3078 
Q 1244 3325 1534 3454 
Q 1825 3584 2144 3584 
Q 2481 3584 2739 3421 
Q 2997 3259 3138 2956 
L 3513 4863 
L 4091 4863 
L 3144 0 
L 2566 0 
L 2675 525 
z
M 891 1350 
Q 891 897 1095 644 
Q 1300 391 1663 391 
Q 1931 391 2161 520 
Q 2391 650 2566 903 
Q 2750 1166 2856 1509 
Q 2963 1853 2963 2188 
Q 2963 2622 2758 2865 
Q 2553 3109 2194 3109 
Q 1922 3109 1687 2981 
Q 1453 2853 1288 2613 
Q 1106 2353 998 2009 
Q 891 1666 891 1350 
z
" id="DejaVuSans-Oblique-64" transform="scale(0.015625)"/>
     </defs>
     <use transform="translate(0 0.09375)" xlink:href="#DejaVuSans-Oblique-52"/>
     <use transform="translate(69.482422 -16.3125)scale(0.7)" xlink:href="#DejaVuSans-Oblique-6c"/>
     <use transform="translate(88.930664 -16.3125)scale(0.7)" xlink:href="#DejaVuSans-Oblique-6f"/>
     <use transform="translate(131.757812 -16.3125)scale(0.7)" xlink:href="#DejaVuSans-Oblique-61"/>
     <use transform="translate(174.65332 -16.3125)scale(0.7)" xlink:href="#DejaVuSans-Oblique-64"/>
    </g>
   </g>
   <g id="text_5">
    <!-- $R_2$ -->
    <g transform="translate(213.3018 21.5915)scale(0.14 -0.14)">
     <use transform="translate(0 0.09375)" xlink:href="#DejaVuSans-Oblique-52"/>
     <use transform="translate(69.482422 -16.3125)scale(0.7)" xlink:href="#DejaVuSans-32"/>
    </g>
    <!-- 100k -->
    <g transform="translate(204.077112 37.268437)scale(0.14 -0.14)">
     <use xlink:href="#DejaVuSans-31"/>
     <use x="63.623047" xlink:href="#DejaVuSans-30"/>
     <use x="127.246094" xlink:href="#DejaVuSans-30"/>
     <use x="190.869141" xlink:href="#DejaVuSans-6b"/>
    </g>
   </g>
   <g id="patch_3">
    <path clip-path="url(#pae58f98761)" d="M 30.2418 91.435 
C 30.850441 91.435 31.434236 91.193184 31.86461 90.76281 
C 32.294984 90.332436 32.5368 89.748641 32.5368 89.14 
C 32.5368 88.531359 32.294984 87.947564 31.86461 87.51719 
C 31.434236 87.086816 30.850441 86.845 30.2418 86.845 
C 29.633159 86.845 29.049364 87.086816 28.61899 87.51719 
C 28.188616 87.947564 27.9468 88.531359 27.9468 89.14 
C 27.9468 89.748641 28.188616 90.332436 28.61899 90.76281 
C 29.049364 91.193184 29.633159 91.435 30.2418 91.435 
z
" style="fill:#ffffff;stroke:#000000;stroke-linejoin:miter;stroke-width:1.2;"/>
   </g>
   <g id="patch_4">
    <path clip-path="url(#pae58f98761)" d="M 183.2418 91.435 
C 183.850441 91.435 184.434236 91.193184 184.86461 90.76281 
C 185.294984 90.332436 185.5368 89.748641 185.5368 89.14 
C 185.5368 88.531359 185.294984 87.947564 184.86461 87.51719 
C 184.434236 87.086816 183.850441 86.845 183.2418 86.845 
C 182.633159 86.845 182.049364 87.086816 181.61899 87.51719 
C 181.188616 87.947564 180.9468 88.531359 180.9468 89.14 
C 180.9468 89.748641 181.188616 90.332436 181.61899 90.76281 
C 182.049364 91.193184 182.633159 91.435 183.2418 91.435 
z
" style="stroke:#000000;stroke-linejoin:miter;stroke-width:1.2;"/>
   </g>
   <g id="patch_5">
    <path clip-path="url(#pae58f98761)" d="M 259.7418 91.435 
C 260.350441 91.435 260.934236 91.193184 261.36461 90.76281 
C 261.794984 90.332436 262.0368 89.748641 262.0368 89.14 
C 262.0368 88.531359 261.794984 87.947564 261.36461 87.51719 
C 260.934236 87.086816 260.350441 86.845 259.7418 86.845 
C 259.133159 86.845 258.549364 87.086816 258.11899 87.51719 
C 257.688616 87.947564 257.4468 88.531359 257.4468 89.14 
C 257.4468 89.748641 257.688616 90.332436 258.11899 90.76281 
C 258.549364 91.193184 259.133159 91.435 259.7418 91.435 
z
" style="stroke:#000000;stroke-linejoin:miter;stroke-width:1.2;"/>
   </g>
   <g id="patch_6">
    <path clip-path="url(#pae58f98761)" d="M 336.2418 91.435 
C 336.850441 91.435 337.434236 91.193184 337.86461 90.76281 
C 338.294984 90.332436 338.5368 89.748641 338.5368 89.14 
C 338.5368 88.531359 338.294984 87.947564 337.86461 87.51719 
C 337.434236 87.086816 336.850441 86.845 336.2418 86.845 
C 335.633159 86.845 335.049364 87.086816 334.61899 87.51719 
C 334.188616 87.947564 333.9468 88.531359 333.9468 89.14 
C 333.9468 89.748641 334.188616 90.332436 334.61899 90.76281 
C 335.049364 91.193184 335.633159 91.435 336.2418 91.435 
z
" style="stroke:#000000;stroke-linejoin:miter;stroke-width:1.2;"/>
   </g>
   <g id="patch_7">
    <path clip-path="url(#pae58f98761)" d="M 374.4918 91.435 
C 375.100441 91.435 375.684236 91.193184 376.11461 90.76281 
C 376.544984 90.332436 376.7868 89.748641 376.7868 89.14 
C 376.7868 88.531359 376.544984 87.947564 376.11461 87.51719 
C 375.684236 87.086816 375.100441 86.845 374.4918 86.845 
C 373.883159 86.845 373.299364 87.086816 372.86899 87.51719 
C 372.438616 87.947564 372.1968 88.531359 372.1968 89.14 
C 372.1968 89.748641 372.438616 90.332436 372.86899 90.76281 
C 373.299364 91.193184 373.883159 91.435 374.4918 91.435 
z
" style="fill:#ffffff;stroke:#000000;stroke-linejoin:miter;stroke-width:1.2;"/>
   </g>
   <g id="text_6">
    <!-- IN -->
    <g transform="translate(10.28305 93.003125)scale(0.14 -0.14)">
     <defs>
      <path d="M 628 4666 
L 1259 4666 
L 1259 0 
L 628 0 
L 628 4666 
z
" id="DejaVuSans-49" transform="scale(0.015625)"/>
      <path d="M 628 4666 
L 1478 4666 
L 3547 763 
L 3547 4666 
L 4159 4666 
L 4159 0 
L 3309 0 
L 1241 3903 
L 1241 0 
L 628 0 
L 628 4666 
z
" id="DejaVuSans-4e" transform="scale(0.015625)"/>
     </defs>
     <use xlink:href="#DejaVuSans-49"/>
     <use x="29.492188" xlink:href="#DejaVuSans-4e"/>
    </g>
   </g>
   <g id="text_7">
    <!-- OUT -->
    <g transform="translate(379.8468 93.003125)scale(0.14 -0.14)">
     <defs>
      <path d="M 2522 4238 
Q 1834 4238 1429 3725 
Q 1025 3213 1025 2328 
Q 1025 1447 1429 934 
Q 1834 422 2522 422 
Q 3209 422 3611 934 
Q 4013 1447 4013 2328 
Q 4013 3213 3611 3725 
Q 3209 4238 2522 4238 
z
M 2522 4750 
Q 3503 4750 4090 4092 
Q 4678 3434 4678 2328 
Q 4678 1225 4090 567 
Q 3503 -91 2522 -91 
Q 1538 -91 948 565 
Q 359 1222 359 2328 
Q 359 3434 948 4092 
Q 1538 4750 2522 4750 
z
" id="DejaVuSans-4f" transform="scale(0.015625)"/>
      <path d="M 556 4666 
L 1191 4666 
L 1191 1831 
Q 1191 1081 1462 751 
Q 1734 422 2344 422 
Q 2950 422 3222 751 
Q 3494 1081 3494 1831 
L 3494 4666 
L 4128 4666 
L 4128 1753 
Q 4128 841 3676 375 
Q 3225 -91 2344 -91 
Q 1459 -91 1007 375 
Q 556 841 556 1753 
L 556 4666 
z
" id="DejaVuSans-55" transform="scale(0.015625)"/>
      <path d="M -19 4666 
L 3928 4666 
L 3928 4134 
L 2272 4134 
L 2272 0 
L 1638 0 
L 1638 4134 
L -19 4134 
L -19 4666 
z
" id="DejaVuSans-54" transform="scale(0.015625)"/>
     </defs>
     <use xlink:href="#DejaVuSans-4f"/>
     <use x="78.710938" xlink:href="#DejaVuSans-55"/>
     <use x="151.904297" xlink:href="#DejaVuSans-54"/>
    </g>
   </g>
  </g>
 </g>
 <defs>
  <clipPath id="pae58f98761">
   <rect height="181.084" width="406.6026" x="7.2" y="7.2"/>
  </clipPath>
 </defs>
</svg>
