<?xml version="1.0" encoding="utf-8" standalone="no"?>
<!DOCTYPE svg PUBLIC "-//W3C//DTD SVG 1.1//EN"
  "http://www.w3.org/Graphics/SVG/1.1/DTD/svg11.dtd">
<!-- Created with matplotlib (https://matplotlib.org/) -->
<svg height="280.15625pt" version="1.1" viewBox="0 0 424.470312 280.15625" width="424.470312pt" xmlns="http://www.w3.org/2000/svg" xmlns:xlink="http://www.w3.org/1999/xlink">
 <metadata>
  <rdf:RDF xmlns:cc="http://creativecommons.org/ns#" xmlns:dc="http://purl.org/dc/elements/1.1/" xmlns:rdf="http://www.w3.org/1999/02/22-rdf-syntax-ns#">
   <cc:Work>
    <dc:type rdf:resource="http://purl.org/dc/dcmitype/StillImage"/>
    <dc:date>2021-02-26T16:47:42.338531</dc:date>
    <dc:format>image/svg+xml</dc:format>
    <dc:creator>
     <cc:Agent>
      <dc:title>Matplotlib v3.3.4, https://matplotlib.org/</dc:title>
     </cc:Agent>
    </dc:creator>
   </cc:Work>
  </rdf:RDF>
 </metadata>
 <defs>
  <style type="text/css">*{stroke-linecap:butt;stroke-linejoin:round;}</style>
 </defs>
 <g id="figure_1">
  <g id="patch_1">
   <path d="M 0 280.15625 
L 424.470312 280.15625 
L 424.470312 0 
L 0 0 
z
" style="fill:none;"/>
  </g>
  <g id="axes_1">
   <g id="patch_2">
    <path d="M 42.620313 242.6 
L 417.270312 242.6 
L 417.270312 7.2 
L 42.620313 7.2 
z
" style="fill:#ffffff;"/>
   </g>
   <g id="matplotlib.axis_1">
    <g id="xtick_1">
     <g id="line2d_1">
      <defs>
       <path d="M 0 0 
L 0 3.5 
" id="mdc21066f64" style="stroke:#000000;stroke-width:0.8;"/>
      </defs>
      <g>
       <use style="stroke:#000000;stroke-width:0.8;" x="59.649858" xlink:href="#mdc21066f64" y="242.6"/>
      </g>
     </g>
     <g id="text_1">
      <!-- 0 -->
      <g transform="translate(56.468608 257.198437)scale(0.1 -0.1)">
       <defs>
        <path d="M 31.78125 66.40625 
Q 24.171875 66.40625 20.328125 58.90625 
Q 16.5 51.421875 16.5 36.375 
Q 16.5 21.390625 20.328125 13.890625 
Q 24.171875 6.390625 31.78125 6.390625 
Q 39.453125 6.390625 43.28125 13.890625 
Q 47.125 21.390625 47.125 36.375 
Q 47.125 51.421875 43.28125 58.90625 
Q 39.453125 66.40625 31.78125 66.40625 
z
M 31.78125 74.21875 
Q 44.046875 74.21875 50.515625 64.515625 
Q 56.984375 54.828125 56.984375 36.375 
Q 56.984375 17.96875 50.515625 8.265625 
Q 44.046875 -1.421875 31.78125 -1.421875 
Q 19.53125 -1.421875 13.0625 8.265625 
Q 6.59375 17.96875 6.59375 36.375 
Q 6.59375 54.828125 13.0625 64.515625 
Q 19.53125 74.21875 31.78125 74.21875 
z
" id="DejaVuSans-48"/>
       </defs>
       <use xlink:href="#DejaVuSans-48"/>
      </g>
     </g>
    </g>
    <g id="xtick_2">
     <g id="line2d_2">
      <g>
       <use style="stroke:#000000;stroke-width:0.8;" x="127.72039" xlink:href="#mdc21066f64" y="242.6"/>
      </g>
     </g>
     <g id="text_2">
      <!-- 2 -->
      <g transform="translate(124.53914 257.198437)scale(0.1 -0.1)">
       <defs>
        <path d="M 19.1875 8.296875 
L 53.609375 8.296875 
L 53.609375 0 
L 7.328125 0 
L 7.328125 8.296875 
Q 12.9375 14.109375 22.625 23.890625 
Q 32.328125 33.6875 34.8125 36.53125 
Q 39.546875 41.84375 41.421875 45.53125 
Q 43.3125 49.21875 43.3125 52.78125 
Q 43.3125 58.59375 39.234375 62.25 
Q 35.15625 65.921875 28.609375 65.921875 
Q 23.96875 65.921875 18.8125 64.3125 
Q 13.671875 62.703125 7.8125 59.421875 
L 7.8125 69.390625 
Q 13.765625 71.78125 18.9375 73 
Q 24.125 74.21875 28.421875 74.21875 
Q 39.75 74.21875 46.484375 68.546875 
Q 53.21875 62.890625 53.21875 53.421875 
Q 53.21875 48.921875 51.53125 44.890625 
Q 49.859375 40.875 45.40625 35.40625 
Q 44.1875 33.984375 37.640625 27.21875 
Q 31.109375 20.453125 19.1875 8.296875 
z
" id="DejaVuSans-50"/>
       </defs>
       <use xlink:href="#DejaVuSans-50"/>
      </g>
     </g>
    </g>
    <g id="xtick_3">
     <g id="line2d_3">
      <g>
       <use style="stroke:#000000;stroke-width:0.8;" x="195.790923" xlink:href="#mdc21066f64" y="242.6"/>
      </g>
     </g>
     <g id="text_3">
      <!-- 4 -->
      <g transform="translate(192.609673 257.198437)scale(0.1 -0.1)">
       <defs>
        <path d="M 37.796875 64.3125 
L 12.890625 25.390625 
L 37.796875 25.390625 
z
M 35.203125 72.90625 
L 47.609375 72.90625 
L 47.609375 25.390625 
L 58.015625 25.390625 
L 58.015625 17.1875 
L 47.609375 17.1875 
L 47.609375 0 
L 37.796875 0 
L 37.796875 17.1875 
L 4.890625 17.1875 
L 4.890625 26.703125 
z
" id="DejaVuSans-52"/>
       </defs>
       <use xlink:href="#DejaVuSans-52"/>
      </g>
     </g>
    </g>
    <g id="xtick_4">
     <g id="line2d_4">
      <g>
       <use style="stroke:#000000;stroke-width:0.8;" x="263.861455" xlink:href="#mdc21066f64" y="242.6"/>
      </g>
     </g>
     <g id="text_4">
      <!-- 6 -->
      <g transform="translate(260.680205 257.198437)scale(0.1 -0.1)">
       <defs>
        <path d="M 33.015625 40.375 
Q 26.375 40.375 22.484375 35.828125 
Q 18.609375 31.296875 18.609375 23.390625 
Q 18.609375 15.53125 22.484375 10.953125 
Q 26.375 6.390625 33.015625 6.390625 
Q 39.65625 6.390625 43.53125 10.953125 
Q 47.40625 15.53125 47.40625 23.390625 
Q 47.40625 31.296875 43.53125 35.828125 
Q 39.65625 40.375 33.015625 40.375 
z
M 52.59375 71.296875 
L 52.59375 62.3125 
Q 48.875 64.0625 45.09375 64.984375 
Q 41.3125 65.921875 37.59375 65.921875 
Q 27.828125 65.921875 22.671875 59.328125 
Q 17.53125 52.734375 16.796875 39.40625 
Q 19.671875 43.65625 24.015625 45.921875 
Q 28.375 48.1875 33.59375 48.1875 
Q 44.578125 48.1875 50.953125 41.515625 
Q 57.328125 34.859375 57.328125 23.390625 
Q 57.328125 12.15625 50.6875 5.359375 
Q 44.046875 -1.421875 33.015625 -1.421875 
Q 20.359375 -1.421875 13.671875 8.265625 
Q 6.984375 17.96875 6.984375 36.375 
Q 6.984375 53.65625 15.1875 63.9375 
Q 23.390625 74.21875 37.203125 74.21875 
Q 40.921875 74.21875 44.703125 73.484375 
Q 48.484375 72.75 52.59375 71.296875 
z
" id="DejaVuSans-54"/>
       </defs>
       <use xlink:href="#DejaVuSans-54"/>
      </g>
     </g>
    </g>
    <g id="xtick_5">
     <g id="line2d_5">
      <g>
       <use style="stroke:#000000;stroke-width:0.8;" x="331.931988" xlink:href="#mdc21066f64" y="242.6"/>
      </g>
     </g>
     <g id="text_5">
      <!-- 8 -->
      <g transform="translate(328.750738 257.198437)scale(0.1 -0.1)">
       <defs>
        <path d="M 31.78125 34.625 
Q 24.75 34.625 20.71875 30.859375 
Q 16.703125 27.09375 16.703125 20.515625 
Q 16.703125 13.921875 20.71875 10.15625 
Q 24.75 6.390625 31.78125 6.390625 
Q 38.8125 6.390625 42.859375 10.171875 
Q 46.921875 13.96875 46.921875 20.515625 
Q 46.921875 27.09375 42.890625 30.859375 
Q 38.875 34.625 31.78125 34.625 
z
M 21.921875 38.8125 
Q 15.578125 40.375 12.03125 44.71875 
Q 8.5 49.078125 8.5 55.328125 
Q 8.5 64.0625 14.71875 69.140625 
Q 20.953125 74.21875 31.78125 74.21875 
Q 42.671875 74.21875 48.875 69.140625 
Q 55.078125 64.0625 55.078125 55.328125 
Q 55.078125 49.078125 51.53125 44.71875 
Q 48 40.375 41.703125 38.8125 
Q 48.828125 37.15625 52.796875 32.3125 
Q 56.78125 27.484375 56.78125 20.515625 
Q 56.78125 9.90625 50.3125 4.234375 
Q 43.84375 -1.421875 31.78125 -1.421875 
Q 19.734375 -1.421875 13.25 4.234375 
Q 6.78125 9.90625 6.78125 20.515625 
Q 6.78125 27.484375 10.78125 32.3125 
Q 14.796875 37.15625 21.921875 38.8125 
z
M 18.3125 54.390625 
Q 18.3125 48.734375 21.84375 45.5625 
Q 25.390625 42.390625 31.78125 42.390625 
Q 38.140625 42.390625 41.71875 45.5625 
Q 45.3125 48.734375 45.3125 54.390625 
Q 45.3125 60.0625 41.71875 63.234375 
Q 38.140625 66.40625 31.78125 66.40625 
Q 25.390625 66.40625 21.84375 63.234375 
Q 18.3125 60.0625 18.3125 54.390625 
z
" id="DejaVuSans-56"/>
       </defs>
       <use xlink:href="#DejaVuSans-56"/>
      </g>
     </g>
    </g>
    <g id="xtick_6">
     <g id="line2d_6">
      <g>
       <use style="stroke:#000000;stroke-width:0.8;" x="400.00252" xlink:href="#mdc21066f64" y="242.6"/>
      </g>
     </g>
     <g id="text_6">
      <!-- 10 -->
      <g transform="translate(393.64002 257.198437)scale(0.1 -0.1)">
       <defs>
        <path d="M 12.40625 8.296875 
L 28.515625 8.296875 
L 28.515625 63.921875 
L 10.984375 60.40625 
L 10.984375 69.390625 
L 28.421875 72.90625 
L 38.28125 72.90625 
L 38.28125 8.296875 
L 54.390625 8.296875 
L 54.390625 0 
L 12.40625 0 
z
" id="DejaVuSans-49"/>
       </defs>
       <use xlink:href="#DejaVuSans-49"/>
       <use x="63.623047" xlink:href="#DejaVuSans-48"/>
      </g>
     </g>
    </g>
    <g id="text_7">
     <!-- time (ms) -->
     <g transform="translate(205.683594 270.876562)scale(0.1 -0.1)">
      <defs>
       <path d="M 18.3125 70.21875 
L 18.3125 54.6875 
L 36.8125 54.6875 
L 36.8125 47.703125 
L 18.3125 47.703125 
L 18.3125 18.015625 
Q 18.3125 11.328125 20.140625 9.421875 
Q 21.96875 7.515625 27.59375 7.515625 
L 36.8125 7.515625 
L 36.8125 0 
L 27.59375 0 
Q 17.1875 0 13.234375 3.875 
Q 9.28125 7.765625 9.28125 18.015625 
L 9.28125 47.703125 
L 2.6875 47.703125 
L 2.6875 54.6875 
L 9.28125 54.6875 
L 9.28125 70.21875 
z
" id="DejaVuSans-116"/>
       <path d="M 9.421875 54.6875 
L 18.40625 54.6875 
L 18.40625 0 
L 9.421875 0 
z
M 9.421875 75.984375 
L 18.40625 75.984375 
L 18.40625 64.59375 
L 9.421875 64.59375 
z
" id="DejaVuSans-105"/>
       <path d="M 52 44.1875 
Q 55.375 50.25 60.0625 53.125 
Q 64.75 56 71.09375 56 
Q 79.640625 56 84.28125 50.015625 
Q 88.921875 44.046875 88.921875 33.015625 
L 88.921875 0 
L 79.890625 0 
L 79.890625 32.71875 
Q 79.890625 40.578125 77.09375 44.375 
Q 74.3125 48.1875 68.609375 48.1875 
Q 61.625 48.1875 57.5625 43.546875 
Q 53.515625 38.921875 53.515625 30.90625 
L 53.515625 0 
L 44.484375 0 
L 44.484375 32.71875 
Q 44.484375 40.625 41.703125 44.40625 
Q 38.921875 48.1875 33.109375 48.1875 
Q 26.21875 48.1875 22.15625 43.53125 
Q 18.109375 38.875 18.109375 30.90625 
L 18.109375 0 
L 9.078125 0 
L 9.078125 54.6875 
L 18.109375 54.6875 
L 18.109375 46.1875 
Q 21.1875 51.21875 25.484375 53.609375 
Q 29.78125 56 35.6875 56 
Q 41.65625 56 45.828125 52.96875 
Q 50 49.953125 52 44.1875 
z
" id="DejaVuSans-109"/>
       <path d="M 56.203125 29.59375 
L 56.203125 25.203125 
L 14.890625 25.203125 
Q 15.484375 15.921875 20.484375 11.0625 
Q 25.484375 6.203125 34.421875 6.203125 
Q 39.59375 6.203125 44.453125 7.46875 
Q 49.3125 8.734375 54.109375 11.28125 
L 54.109375 2.78125 
Q 49.265625 0.734375 44.1875 -0.34375 
Q 39.109375 -1.421875 33.890625 -1.421875 
Q 20.796875 -1.421875 13.15625 6.1875 
Q 5.515625 13.8125 5.515625 26.8125 
Q 5.515625 40.234375 12.765625 48.109375 
Q 20.015625 56 32.328125 56 
Q 43.359375 56 49.78125 48.890625 
Q 56.203125 41.796875 56.203125 29.59375 
z
M 47.21875 32.234375 
Q 47.125 39.59375 43.09375 43.984375 
Q 39.0625 48.390625 32.421875 48.390625 
Q 24.90625 48.390625 20.390625 44.140625 
Q 15.875 39.890625 15.1875 32.171875 
z
" id="DejaVuSans-101"/>
       <path id="DejaVuSans-32"/>
       <path d="M 31 75.875 
Q 24.46875 64.65625 21.28125 53.65625 
Q 18.109375 42.671875 18.109375 31.390625 
Q 18.109375 20.125 21.3125 9.0625 
Q 24.515625 -2 31 -13.1875 
L 23.1875 -13.1875 
Q 15.875 -1.703125 12.234375 9.375 
Q 8.59375 20.453125 8.59375 31.390625 
Q 8.59375 42.28125 12.203125 53.3125 
Q 15.828125 64.359375 23.1875 75.875 
z
" id="DejaVuSans-40"/>
       <path d="M 44.28125 53.078125 
L 44.28125 44.578125 
Q 40.484375 46.53125 36.375 47.5 
Q 32.28125 48.484375 27.875 48.484375 
Q 21.1875 48.484375 17.84375 46.4375 
Q 14.5 44.390625 14.5 40.28125 
Q 14.5 37.15625 16.890625 35.375 
Q 19.28125 33.59375 26.515625 31.984375 
L 29.59375 31.296875 
Q 39.15625 29.25 43.1875 25.515625 
Q 47.21875 21.78125 47.21875 15.09375 
Q 47.21875 7.46875 41.1875 3.015625 
Q 35.15625 -1.421875 24.609375 -1.421875 
Q 20.21875 -1.421875 15.453125 -0.5625 
Q 10.6875 0.296875 5.421875 2 
L 5.421875 11.28125 
Q 10.40625 8.6875 15.234375 7.390625 
Q 20.0625 6.109375 24.8125 6.109375 
Q 31.15625 6.109375 34.5625 8.28125 
Q 37.984375 10.453125 37.984375 14.40625 
Q 37.984375 18.0625 35.515625 20.015625 
Q 33.0625 21.96875 24.703125 23.78125 
L 21.578125 24.515625 
Q 13.234375 26.265625 9.515625 29.90625 
Q 5.8125 33.546875 5.8125 39.890625 
Q 5.8125 47.609375 11.28125 51.796875 
Q 16.75 56 26.8125 56 
Q 31.78125 56 36.171875 55.265625 
Q 40.578125 54.546875 44.28125 53.078125 
z
" id="DejaVuSans-115"/>
       <path d="M 8.015625 75.875 
L 15.828125 75.875 
Q 23.140625 64.359375 26.78125 53.3125 
Q 30.421875 42.28125 30.421875 31.390625 
Q 30.421875 20.453125 26.78125 9.375 
Q 23.140625 -1.703125 15.828125 -13.1875 
L 8.015625 -13.1875 
Q 14.5 -2 17.703125 9.0625 
Q 20.90625 20.125 20.90625 31.390625 
Q 20.90625 42.671875 17.703125 53.65625 
Q 14.5 64.65625 8.015625 75.875 
z
" id="DejaVuSans-41"/>
      </defs>
      <use xlink:href="#DejaVuSans-116"/>
      <use x="39.208984" xlink:href="#DejaVuSans-105"/>
      <use x="66.992188" xlink:href="#DejaVuSans-109"/>
      <use x="164.404297" xlink:href="#DejaVuSans-101"/>
      <use x="225.927734" xlink:href="#DejaVuSans-32"/>
      <use x="257.714844" xlink:href="#DejaVuSans-40"/>
      <use x="296.728516" xlink:href="#DejaVuSans-109"/>
      <use x="394.140625" xlink:href="#DejaVuSans-115"/>
      <use x="446.240234" xlink:href="#DejaVuSans-41"/>
     </g>
    </g>
   </g>
   <g id="matplotlib.axis_2">
    <g id="ytick_1">
     <g id="line2d_7">
      <defs>
       <path d="M 0 0 
L -3.5 0 
" id="m3dd943d612" style="stroke:#000000;stroke-width:0.8;"/>
      </defs>
      <g>
       <use style="stroke:#000000;stroke-width:0.8;" x="42.620313" xlink:href="#m3dd943d612" y="210.500021"/>
      </g>
     </g>
     <g id="text_8">
      <!-- −2 -->
      <g transform="translate(20.878125 214.29924)scale(0.1 -0.1)">
       <defs>
        <path d="M 10.59375 35.5 
L 73.1875 35.5 
L 73.1875 27.203125 
L 10.59375 27.203125 
z
" id="DejaVuSans-8722"/>
       </defs>
       <use xlink:href="#DejaVuSans-8722"/>
       <use x="83.789062" xlink:href="#DejaVuSans-50"/>
      </g>
     </g>
    </g>
    <g id="ytick_2">
     <g id="line2d_8">
      <g>
       <use style="stroke:#000000;stroke-width:0.8;" x="42.620313" xlink:href="#m3dd943d612" y="167.700011"/>
      </g>
     </g>
     <g id="text_9">
      <!-- −1 -->
      <g transform="translate(20.878125 171.499229)scale(0.1 -0.1)">
       <use xlink:href="#DejaVuSans-8722"/>
       <use x="83.789062" xlink:href="#DejaVuSans-49"/>
      </g>
     </g>
    </g>
    <g id="ytick_3">
     <g id="line2d_9">
      <g>
       <use style="stroke:#000000;stroke-width:0.8;" x="42.620313" xlink:href="#m3dd943d612" y="124.9"/>
      </g>
     </g>
     <g id="text_10">
      <!-- 0 -->
      <g transform="translate(29.257813 128.699219)scale(0.1 -0.1)">
       <use xlink:href="#DejaVuSans-48"/>
      </g>
     </g>
    </g>
    <g id="ytick_4">
     <g id="line2d_10">
      <g>
       <use style="stroke:#000000;stroke-width:0.8;" x="42.620313" xlink:href="#m3dd943d612" y="82.099989"/>
      </g>
     </g>
     <g id="text_11">
      <!-- 1 -->
      <g transform="translate(29.257813 85.899208)scale(0.1 -0.1)">
       <use xlink:href="#DejaVuSans-49"/>
      </g>
     </g>
    </g>
    <g id="ytick_5">
     <g id="line2d_11">
      <g>
       <use style="stroke:#000000;stroke-width:0.8;" x="42.620313" xlink:href="#m3dd943d612" y="39.299979"/>
      </g>
     </g>
     <g id="text_12">
      <!-- 2 -->
      <g transform="translate(29.257813 43.099198)scale(0.1 -0.1)">
       <use xlink:href="#DejaVuSans-50"/>
      </g>
     </g>
    </g>
    <g id="text_13">
     <!-- IN [V] -->
     <g transform="translate(14.798438 139.026562)rotate(-90)scale(0.1 -0.1)">
      <defs>
       <path d="M 9.8125 72.90625 
L 19.671875 72.90625 
L 19.671875 0 
L 9.8125 0 
z
" id="DejaVuSans-73"/>
       <path d="M 9.8125 72.90625 
L 23.09375 72.90625 
L 55.421875 11.921875 
L 55.421875 72.90625 
L 64.984375 72.90625 
L 64.984375 0 
L 51.703125 0 
L 19.390625 60.984375 
L 19.390625 0 
L 9.8125 0 
z
" id="DejaVuSans-78"/>
       <path d="M 8.59375 75.984375 
L 29.296875 75.984375 
L 29.296875 69 
L 17.578125 69 
L 17.578125 -6.203125 
L 29.296875 -6.203125 
L 29.296875 -13.1875 
L 8.59375 -13.1875 
z
" id="DejaVuSans-91"/>
       <path d="M 28.609375 0 
L 0.78125 72.90625 
L 11.078125 72.90625 
L 34.1875 11.53125 
L 57.328125 72.90625 
L 67.578125 72.90625 
L 39.796875 0 
z
" id="DejaVuSans-86"/>
       <path d="M 30.421875 75.984375 
L 30.421875 -13.1875 
L 9.71875 -13.1875 
L 9.71875 -6.203125 
L 21.390625 -6.203125 
L 21.390625 69 
L 9.71875 69 
L 9.71875 75.984375 
z
" id="DejaVuSans-93"/>
      </defs>
      <use xlink:href="#DejaVuSans-73"/>
      <use x="29.492188" xlink:href="#DejaVuSans-78"/>
      <use x="104.296875" xlink:href="#DejaVuSans-32"/>
      <use x="136.083984" xlink:href="#DejaVuSans-91"/>
      <use x="175.097656" xlink:href="#DejaVuSans-86"/>
      <use x="243.505859" xlink:href="#DejaVuSans-93"/>
     </g>
    </g>
   </g>
   <g id="line2d_12">
    <path clip-path="url(#p60a760a824)" d="M 59.649858 124.9 
L 62.610926 158.701122 
L 64.142513 173.709969 
L 65.367783 183.698952 
L 66.422876 190.569636 
L 67.307793 194.969455 
L 68.056569 197.670012 
L 68.703239 199.23047 
L 69.213768 199.954205 
L 69.622191 200.211756 
L 69.996579 200.199334 
L 70.370967 199.952472 
L 70.813425 199.364224 
L 71.35799 198.211587 
L 72.00466 196.254534 
L 72.753435 193.241169 
L 73.672388 188.552274 
L 74.795551 181.560676 
L 76.259068 170.893588 
L 79.083995 148.173387 
L 81.092076 132.980043 
L 82.487522 124.036393 
L 83.610685 118.182333 
L 84.563673 114.299714 
L 85.380519 111.818769 
L 86.09526 110.305748 
L 86.707895 109.497412 
L 87.218424 109.162731 
L 87.660882 109.115548 
L 88.103341 109.286585 
L 88.61387 109.743712 
L 89.192469 110.57883 
L 89.90721 112.036005 
L 90.758091 114.30539 
L 91.84722 117.881393 
L 93.514948 124.227893 
L 95.931452 133.333478 
L 97.088651 136.831284 
L 97.973568 138.850736 
L 98.688308 139.975085 
L 99.266908 140.513415 
L 99.743402 140.68867 
L 100.18586 140.624388 
L 100.628318 140.334403 
L 101.138847 139.712669 
L 101.717447 138.630278 
L 102.398152 136.840366 
L 103.180963 134.099361 
L 104.06588 130.15289 
L 105.120974 124.358276 
L 106.380278 116.103727 
L 108.013971 103.794396 
L 112.812944 66.654766 
L 114.004178 59.571828 
L 114.991201 54.955862 
L 115.808047 52.138975 
L 116.454717 50.616326 
L 116.999282 49.847528 
L 117.44174 49.580864 
L 117.816128 49.611439 
L 118.190516 49.88012 
L 118.632974 50.507336 
L 119.143503 51.649634 
L 119.756138 53.610736 
L 120.470879 56.701382 
L 121.287725 61.259491 
L 122.240713 67.882587 
L 123.363876 77.319969 
L 124.725287 90.740175 
L 126.563191 111.263135 
L 131.226023 164.314366 
L 132.655504 177.548044 
L 133.812703 186.331094 
L 134.799726 192.237768 
L 135.650607 196.061558 
L 136.365348 198.328583 
L 136.943948 199.5215 
L 137.420441 200.071677 
L 137.828864 200.234586 
L 138.203252 200.136493 
L 138.611676 199.763852 
L 139.088169 198.986567 
L 139.666769 197.56313 
L 140.347474 195.248276 
L 141.164321 191.624892 
L 142.151343 186.155871 
L 143.376613 178.00645 
L 145.044341 165.26391 
L 149.332784 131.803308 
L 150.694195 123.257919 
L 151.817359 117.564453 
L 152.770346 113.83104 
L 153.587193 111.483069 
L 154.267898 110.139849 
L 154.846498 109.435149 
L 155.357027 109.140968 
L 155.799485 109.127855 
L 156.241943 109.331738 
L 156.752472 109.824915 
L 157.365107 110.759287 
L 158.079848 112.279483 
L 158.964765 114.715454 
L 160.121964 118.616274 
L 162.027939 125.974889 
L 164.036019 133.447726 
L 165.159183 136.831284 
L 166.0441 138.850736 
L 166.758841 139.975085 
L 167.33744 140.513415 
L 167.813934 140.68867 
L 168.256392 140.624388 
L 168.698851 140.334403 
L 169.20938 139.712669 
L 169.787979 138.630278 
L 170.468685 136.840366 
L 171.251496 134.099361 
L 172.136413 130.15289 
L 173.191506 124.358276 
L 174.450811 116.103727 
L 176.084504 103.794396 
L 180.883476 66.654766 
L 182.074711 59.571828 
L 183.061733 54.955862 
L 183.87858 52.138975 
L 184.52525 50.616326 
L 185.069814 49.847528 
L 185.512272 49.580864 
L 185.88666 49.611439 
L 186.261048 49.88012 
L 186.703507 50.507336 
L 187.214036 51.649634 
L 187.826671 53.610736 
L 188.541411 56.701382 
L 189.358258 61.259491 
L 190.311245 67.882587 
L 191.434409 77.319969 
L 192.795819 90.740175 
L 194.633724 111.263135 
L 199.296555 164.314366 
L 200.726036 177.548044 
L 201.883235 186.331094 
L 202.870258 192.237768 
L 203.72114 196.061558 
L 204.43588 198.328583 
L 205.01448 199.5215 
L 205.490974 200.071677 
L 205.899397 200.234586 
L 206.273785 200.136493 
L 206.682208 199.763852 
L 207.158702 198.986567 
L 207.737301 197.56313 
L 208.418007 195.248276 
L 209.234853 191.624892 
L 210.221876 186.155871 
L 211.447145 178.00645 
L 213.114873 165.26391 
L 217.403317 131.803308 
L 218.764728 123.257919 
L 219.887891 117.564453 
L 220.840879 113.83104 
L 221.657725 111.483069 
L 222.33843 110.139849 
L 222.91703 109.435149 
L 223.427559 109.140968 
L 223.870017 109.127855 
L 224.312476 109.331738 
L 224.823005 109.824915 
L 225.43564 110.759287 
L 226.15038 112.279483 
L 227.035297 114.715454 
L 228.192496 118.616274 
L 230.098471 125.974889 
L 232.106552 133.447726 
L 233.229716 136.831284 
L 234.114633 138.850736 
L 234.829373 139.975085 
L 235.407973 140.513415 
L 235.884466 140.68867 
L 236.326925 140.624388 
L 236.769383 140.334403 
L 237.279912 139.712669 
L 237.858512 138.630278 
L 238.539217 136.840366 
L 239.322028 134.099361 
L 240.206945 130.15289 
L 241.262039 124.358276 
L 242.521343 116.103727 
L 244.155036 103.794396 
L 248.954009 66.654766 
L 250.145243 59.571828 
L 251.132266 54.955862 
L 251.949112 52.138975 
L 252.595782 50.616326 
L 253.140346 49.847528 
L 253.582805 49.580864 
L 253.957193 49.611439 
L 254.331581 49.88012 
L 254.774039 50.507336 
L 255.284568 51.649634 
L 255.897203 53.610736 
L 256.611944 56.701382 
L 257.42879 61.259491 
L 258.381777 67.882587 
L 259.504941 77.319969 
L 260.866352 90.740175 
L 262.704256 111.263135 
L 267.367088 164.314366 
L 268.796569 177.548044 
L 269.953768 186.331094 
L 270.940791 192.237768 
L 271.791672 196.061558 
L 272.506413 198.328583 
L 273.085012 199.5215 
L 273.561506 200.071677 
L 273.969929 200.234586 
L 274.344317 200.136493 
L 274.75274 199.763852 
L 275.229234 198.986567 
L 275.807834 197.56313 
L 276.488539 195.248276 
L 277.305385 191.624892 
L 278.292408 186.155871 
L 279.517678 178.00645 
L 281.185406 165.26391 
L 285.473849 131.803308 
L 286.83526 123.257919 
L 287.958424 117.564453 
L 288.911411 113.83104 
L 289.728258 111.483069 
L 290.408963 110.139849 
L 290.987562 109.435149 
L 291.498091 109.140968 
L 291.94055 109.127855 
L 292.383008 109.331738 
L 292.893537 109.824915 
L 293.506172 110.759287 
L 294.220913 112.279483 
L 295.10583 114.715454 
L 296.263029 118.616274 
L 298.169004 125.974889 
L 300.177084 133.447726 
L 301.300248 136.831284 
L 302.185165 138.850736 
L 302.899906 139.975085 
L 303.478505 140.513415 
L 303.954999 140.68867 
L 304.397457 140.624388 
L 304.839916 140.334403 
L 305.350445 139.712669 
L 305.929044 138.630278 
L 306.60975 136.840366 
L 307.392561 134.099361 
L 308.277478 130.15289 
L 309.332571 124.358276 
L 310.591876 116.103727 
L 312.225569 103.794396 
L 317.024541 66.654766 
L 318.215775 59.571828 
L 319.202798 54.955862 
L 320.019645 52.138975 
L 320.666315 50.616326 
L 321.210879 49.847528 
L 321.653337 49.580864 
L 322.027725 49.611439 
L 322.402113 49.88012 
L 322.844572 50.507336 
L 323.355101 51.649634 
L 323.967735 53.610736 
L 324.682476 56.701382 
L 325.499322 61.259491 
L 326.45231 67.882587 
L 327.575474 77.319969 
L 328.936884 90.740175 
L 330.774789 111.263135 
L 335.43762 164.314366 
L 336.867101 177.548044 
L 338.0243 186.331094 
L 339.011323 192.237768 
L 339.862205 196.061558 
L 340.576945 198.328583 
L 341.155545 199.5215 
L 341.632039 200.071677 
L 342.040462 200.234586 
L 342.41485 200.136493 
L 342.823273 199.763852 
L 343.299767 198.986567 
L 343.878366 197.56313 
L 344.559072 195.248276 
L 345.375918 191.624892 
L 346.362941 186.155871 
L 347.58821 178.00645 
L 349.255938 165.26391 
L 353.544382 131.803308 
L 354.905792 123.257919 
L 356.028956 117.564453 
L 356.981944 113.83104 
L 357.79879 111.483069 
L 358.479495 110.139849 
L 359.058095 109.435149 
L 359.568624 109.140968 
L 360.011082 109.127855 
L 360.453541 109.331738 
L 360.96407 109.824915 
L 361.576705 110.759287 
L 362.291445 112.279483 
L 363.176362 114.715454 
L 364.333561 118.616274 
L 366.239536 125.974889 
L 368.247617 133.447726 
L 369.370781 136.831284 
L 370.255698 138.850736 
L 370.970438 139.975085 
L 371.549038 140.513415 
L 372.025531 140.68867 
L 372.46799 140.624388 
L 372.910448 140.334403 
L 373.420977 139.712669 
L 373.999577 138.630278 
L 374.680282 136.840366 
L 375.463093 134.099361 
L 376.34801 130.15289 
L 377.403103 124.358276 
L 378.662408 116.103727 
L 380.296101 103.794396 
L 385.095074 66.654766 
L 386.286308 59.571828 
L 387.273331 54.955862 
L 388.090177 52.138975 
L 388.736847 50.616326 
L 389.281411 49.847528 
L 389.72387 49.580864 
L 390.098258 49.611439 
L 390.472646 49.88012 
L 390.915104 50.507336 
L 391.425633 51.649634 
L 392.038268 53.610736 
L 392.753008 56.701382 
L 393.569855 61.259491 
L 394.522842 67.882587 
L 395.646006 77.319969 
L 397.007417 90.740175 
L 398.845321 111.263135 
L 400.240767 127.722981 
L 400.240767 127.722981 
" style="fill:none;stroke:#90ee90;stroke-linecap:square;stroke-width:4;"/>
   </g>
   <g id="line2d_13">
    <path clip-path="url(#p60a760a824)" d="M 59.649858 124.9 
L 62.346275 73.810001 
L 63.741721 51.543629 
L 64.83085 37.464701 
L 65.749802 28.3067 
L 66.498578 22.885607 
L 67.111213 19.894217 
L 67.587706 18.493824 
L 67.962094 17.970425 
L 68.234376 17.910422 
L 68.472623 18.079633 
L 68.778941 18.600681 
L 69.187364 19.823588 
L 69.697893 22.190707 
L 70.310528 26.232214 
L 71.025268 32.53618 
L 71.87615 42.123588 
L 72.897208 56.294559 
L 74.156513 77.05777 
L 75.926346 110.305753 
L 79.56812 179.49714 
L 80.895495 200.190748 
L 81.950589 213.482285 
L 82.835506 222.064085 
L 83.584281 227.311984 
L 84.196916 230.155874 
L 84.67341 231.439237 
L 85.013763 231.851857 
L 85.286045 231.878071 
L 85.558327 231.634049 
L 85.898679 230.950005 
L 86.307103 229.577047 
L 86.817632 227.025654 
L 87.430266 222.769998 
L 88.179042 215.877176 
L 89.063959 205.505863 
L 90.119052 190.361897 
L 91.446428 167.872992 
L 93.420473 130.125588 
L 96.415577 73.2203 
L 97.776987 51.543629 
L 98.866116 37.464701 
L 99.785068 28.3067 
L 100.533844 22.885607 
L 101.146479 19.894217 
L 101.622972 18.493824 
L 101.99736 17.970425 
L 102.269643 17.910422 
L 102.507889 18.079633 
L 102.814207 18.600681 
L 103.22263 19.823588 
L 103.733159 22.190707 
L 104.345794 26.232214 
L 105.060534 32.53618 
L 105.911416 42.123588 
L 106.932474 56.294559 
L 108.191779 77.05777 
L 109.961613 110.305753 
L 113.603386 179.49714 
L 114.930762 200.190748 
L 115.985855 213.482285 
L 116.870772 222.064085 
L 117.619548 227.311984 
L 118.232182 230.155874 
L 118.708676 231.439237 
L 119.049029 231.851857 
L 119.321311 231.878071 
L 119.593593 231.634049 
L 119.933946 230.950005 
L 120.342369 229.577047 
L 120.852898 227.025654 
L 121.465533 222.769998 
L 122.214309 215.877176 
L 123.099225 205.505863 
L 124.154319 190.361897 
L 125.481694 167.872992 
L 127.45574 130.125588 
L 130.450843 73.2203 
L 131.812254 51.543629 
L 132.901382 37.464701 
L 133.820334 28.3067 
L 134.56911 22.885607 
L 135.181745 19.894217 
L 135.658239 18.493824 
L 136.032627 17.970425 
L 136.304909 17.910422 
L 136.543156 18.079633 
L 136.849473 18.600681 
L 137.257896 19.823588 
L 137.768425 22.190707 
L 138.38106 26.232214 
L 139.095801 32.53618 
L 139.946682 42.123588 
L 140.96774 56.294559 
L 142.227045 77.05777 
L 143.996879 110.305753 
L 147.638652 179.49714 
L 148.966028 200.190748 
L 150.021121 213.482285 
L 150.906038 222.064085 
L 151.654814 227.311984 
L 152.267449 230.155874 
L 152.743942 231.439237 
L 153.084295 231.851857 
L 153.356577 231.878071 
L 153.628859 231.634049 
L 153.969212 230.950005 
L 154.377635 229.577047 
L 154.888164 227.025654 
L 155.500799 222.769998 
L 156.249575 215.877176 
L 157.134492 205.505863 
L 158.189585 190.361897 
L 159.51696 167.872992 
L 161.491006 130.125588 
L 164.486109 73.2203 
L 165.84752 51.543629 
L 166.936648 37.464701 
L 167.855601 28.3067 
L 168.604376 22.885607 
L 169.217011 19.894217 
L 169.693505 18.493824 
L 170.067893 17.970425 
L 170.340175 17.910422 
L 170.578422 18.079633 
L 170.884739 18.600681 
L 171.293162 19.823588 
L 171.803691 22.190707 
L 172.416326 26.232214 
L 173.131067 32.53618 
L 173.981948 42.123588 
L 175.003006 56.294559 
L 176.262311 77.05777 
L 178.032145 110.305753 
L 181.673919 179.49714 
L 183.001294 200.190748 
L 184.056387 213.482285 
L 184.941304 222.064085 
L 185.69008 227.311984 
L 186.302715 230.155874 
L 186.779209 231.439237 
L 187.119561 231.851857 
L 187.391843 231.878071 
L 187.664125 231.634049 
L 188.004478 230.950005 
L 188.412901 229.577047 
L 188.92343 227.025654 
L 189.536065 222.769998 
L 190.284841 215.877176 
L 191.169758 205.505863 
L 192.224851 190.361897 
L 193.552227 167.872992 
L 195.526272 130.125588 
L 198.521375 73.2203 
L 199.882786 51.543629 
L 200.971915 37.464701 
L 201.890867 28.3067 
L 202.639643 22.885607 
L 203.252277 19.894217 
L 203.728771 18.493824 
L 204.103159 17.970425 
L 204.375441 17.910422 
L 204.613688 18.079633 
L 204.920005 18.600681 
L 205.328429 19.823588 
L 205.838958 22.190707 
L 206.451592 26.232214 
L 207.166333 32.53618 
L 208.017215 42.123588 
L 209.038273 56.294559 
L 210.297578 77.05777 
L 212.067411 110.305753 
L 215.709185 179.49714 
L 217.03656 200.190748 
L 218.091653 213.482285 
L 218.97657 222.064085 
L 219.725346 227.311984 
L 220.337981 230.155874 
L 220.814475 231.439237 
L 221.154827 231.851857 
L 221.42711 231.878071 
L 221.699392 231.634049 
L 222.039744 230.950005 
L 222.448168 229.577047 
L 222.958697 227.025654 
L 223.571331 222.769998 
L 224.320107 215.877176 
L 225.205024 205.505863 
L 226.260117 190.361897 
L 227.587493 167.872992 
L 229.561538 130.125588 
L 232.556642 73.2203 
L 233.918052 51.543629 
L 235.007181 37.464701 
L 235.926133 28.3067 
L 236.674909 22.885607 
L 237.287544 19.894217 
L 237.764037 18.493824 
L 238.138425 17.970425 
L 238.410707 17.910422 
L 238.648954 18.079633 
L 238.955272 18.600681 
L 239.363695 19.823588 
L 239.874224 22.190707 
L 240.486859 26.232214 
L 241.201599 32.53618 
L 242.052481 42.123588 
L 243.073539 56.294559 
L 244.332844 77.05777 
L 246.102678 110.305753 
L 249.744451 179.49714 
L 251.071826 200.190748 
L 252.12692 213.482285 
L 253.011837 222.064085 
L 253.760612 227.311984 
L 254.373247 230.155874 
L 254.849741 231.439237 
L 255.190094 231.851857 
L 255.462376 231.878071 
L 255.734658 231.634049 
L 256.075011 230.950005 
L 256.483434 229.577047 
L 256.993963 227.025654 
L 257.606598 222.769998 
L 258.355373 215.877176 
L 259.24029 205.505863 
L 260.295384 190.361897 
L 261.622759 167.872992 
L 263.596804 130.125588 
L 266.591908 73.2203 
L 267.953319 51.543629 
L 269.042447 37.464701 
L 269.961399 28.3067 
L 270.710175 22.885607 
L 271.32281 19.894217 
L 271.799304 18.493824 
L 272.173692 17.970425 
L 272.445974 17.910422 
L 272.684221 18.079633 
L 272.990538 18.600681 
L 273.398961 19.823588 
L 273.90949 22.190707 
L 274.522125 26.232214 
L 275.236865 32.53618 
L 276.087747 42.123588 
L 277.108805 56.294559 
L 278.36811 77.05777 
L 280.137944 110.305753 
L 283.779717 179.49714 
L 285.107093 200.190748 
L 286.162186 213.482285 
L 287.047103 222.064085 
L 287.795879 227.311984 
L 288.408514 230.155874 
L 288.885007 231.439237 
L 289.22536 231.851857 
L 289.497642 231.878071 
L 289.769924 231.634049 
L 290.110277 230.950005 
L 290.5187 229.577047 
L 291.029229 227.025654 
L 291.641864 222.769998 
L 292.39064 215.877176 
L 293.275557 205.505863 
L 294.33065 190.361897 
L 295.658025 167.872992 
L 297.632071 130.125588 
L 300.627174 73.2203 
L 301.988585 51.543629 
L 303.077713 37.464701 
L 303.996665 28.3067 
L 304.745441 22.885607 
L 305.358076 19.894217 
L 305.83457 18.493824 
L 306.208958 17.970425 
L 306.48124 17.910422 
L 306.719487 18.079633 
L 307.025804 18.600681 
L 307.434227 19.823588 
L 307.944756 22.190707 
L 308.557391 26.232214 
L 309.272132 32.53618 
L 310.123013 42.123588 
L 311.144071 56.294559 
L 312.403376 77.05777 
L 314.17321 110.305753 
L 317.814984 179.49714 
L 319.142359 200.190748 
L 320.197452 213.482285 
L 321.082369 222.064085 
L 321.831145 227.311984 
L 322.44378 230.155874 
L 322.920273 231.439237 
L 323.260626 231.851857 
L 323.532908 231.878071 
L 323.80519 231.634049 
L 324.145543 230.950005 
L 324.553966 229.577047 
L 325.064495 227.025654 
L 325.67713 222.769998 
L 326.425906 215.877176 
L 327.310823 205.505863 
L 328.365916 190.361897 
L 329.693291 167.872992 
L 331.667337 130.125588 
L 334.66244 73.2203 
L 336.023851 51.543629 
L 337.112979 37.464701 
L 338.031932 28.3067 
L 338.780708 22.885607 
L 339.393342 19.894217 
L 339.869836 18.493824 
L 340.244224 17.970425 
L 340.516506 17.910422 
L 340.754753 18.079633 
L 341.06107 18.600681 
L 341.469494 19.823588 
L 341.980023 22.190707 
L 342.592657 26.232214 
L 343.307398 32.53618 
L 344.15828 42.123588 
L 345.179338 56.294559 
L 346.438642 77.05777 
L 348.208476 110.305753 
L 351.85025 179.49714 
L 353.177625 200.190748 
L 354.232718 213.482285 
L 355.117635 222.064085 
L 355.866411 227.311984 
L 356.479046 230.155874 
L 356.95554 231.439237 
L 357.295892 231.851857 
L 357.568174 231.878071 
L 357.840457 231.634049 
L 358.180809 230.950005 
L 358.589232 229.577047 
L 359.099761 227.025654 
L 359.712396 222.769998 
L 360.461172 215.877176 
L 361.346089 205.505863 
L 362.401182 190.361897 
L 363.728558 167.872992 
L 365.702603 130.125588 
L 368.697707 73.2203 
L 370.059117 51.543629 
L 371.148246 37.464701 
L 372.067198 28.3067 
L 372.815974 22.885607 
L 373.428609 19.894217 
L 373.905102 18.493824 
L 374.27949 17.970425 
L 374.551772 17.910422 
L 374.790019 18.079633 
L 375.096337 18.600681 
L 375.50476 19.823588 
L 376.015289 22.190707 
L 376.627924 26.232214 
L 377.342664 32.53618 
L 378.193546 42.123588 
L 379.214604 56.294559 
L 380.473909 77.05777 
L 382.243742 110.305753 
L 385.885516 179.49714 
L 387.212891 200.190748 
L 388.267985 213.482285 
L 389.152902 222.064085 
L 389.901677 227.311984 
L 390.514312 230.155874 
L 390.990806 231.439237 
L 391.331159 231.851857 
L 391.603441 231.878071 
L 391.875723 231.634049 
L 392.216075 230.950005 
L 392.624499 229.577047 
L 393.135028 227.025654 
L 393.747662 222.769998 
L 394.496438 215.877176 
L 395.381355 205.505863 
L 396.436448 190.361897 
L 397.763824 167.872992 
L 399.737869 130.125588 
L 400.00252 124.9 
L 400.00252 124.9 
" style="fill:none;stroke:#808080;stroke-dasharray:1.5,2.475;stroke-dashoffset:0;stroke-width:1.5;"/>
   </g>
   <g id="line2d_14">
    <path clip-path="url(#p60a760a824)" d="M 59.649858 124.9 
L 63.911897 83.88324 
L 66.158225 64.417148 
L 67.962094 50.624806 
L 69.527716 40.307219 
L 70.889127 32.762236 
L 72.080361 27.348833 
L 73.135455 23.536292 
L 74.054407 20.997362 
L 74.837218 19.423303 
L 75.517923 18.50178 
L 76.096523 18.048539 
L 76.607052 17.901639 
L 77.117581 17.992301 
L 77.62811 18.320325 
L 78.206709 18.978088 
L 78.853379 20.070562 
L 79.602155 21.801683 
L 80.453037 24.365875 
L 81.406024 27.972734 
L 82.495153 33.010742 
L 83.720422 39.784723 
L 85.115868 48.818642 
L 86.715526 60.715308 
L 88.587466 76.390172 
L 90.969934 98.363185 
L 95.871012 146.34282 
L 98.729975 172.944373 
L 100.806126 190.27482 
L 102.507889 202.720915 
L 104.005441 212.097443 
L 105.298781 218.862396 
L 106.45598 223.783953 
L 107.477038 227.192015 
L 108.361955 229.412117 
L 109.110731 230.746801 
L 109.757401 231.492918 
L 110.336001 231.83872 
L 110.84653 231.890605 
L 111.357059 231.704944 
L 111.901623 231.245552 
L 112.514258 230.407713 
L 113.194963 229.081338 
L 113.977774 227.048118 
L 114.862691 224.108446 
L 115.883749 219.895961 
L 117.040948 214.104815 
L 118.334288 206.43258 
L 119.797805 196.357602 
L 121.499568 183.019118 
L 123.541684 165.155385 
L 126.29854 138.902671 
L 132.526994 78.969587 
L 134.637181 61.133373 
L 136.372979 48.242175 
L 137.870531 38.687372 
L 139.197906 31.588237 
L 140.355105 26.537523 
L 141.376163 23.010513 
L 142.26108 20.684394 
L 143.043891 19.205557 
L 143.724597 18.367777 
L 144.303196 17.986146 
L 144.813725 17.902586 
L 145.324254 18.056586 
L 145.868819 18.482303 
L 146.481453 19.282479 
L 147.162159 20.567423 
L 147.94497 22.553746 
L 148.829887 25.441662 
L 149.850945 29.596519 
L 150.974108 35.142255 
L 152.267449 42.717985 
L 153.730965 52.694976 
L 155.398693 65.656542 
L 157.406774 83.092376 
L 160.09556 108.568085 
L 166.800507 172.944373 
L 168.876659 190.27482 
L 170.578422 202.720915 
L 172.075974 212.097443 
L 173.369314 218.862396 
L 174.526513 223.783953 
L 175.547571 227.192015 
L 176.432488 229.412117 
L 177.181263 230.746801 
L 177.827934 231.492918 
L 178.406533 231.83872 
L 178.917062 231.890605 
L 179.427591 231.704944 
L 179.972155 231.245552 
L 180.58479 230.407713 
L 181.265495 229.081338 
L 182.048307 227.048118 
L 182.933223 224.108446 
L 183.954281 219.895961 
L 185.111481 214.104815 
L 186.404821 206.43258 
L 187.868337 196.357602 
L 189.5701 183.019118 
L 191.612216 165.155385 
L 194.369073 138.902671 
L 200.597527 78.969587 
L 202.707713 61.133373 
L 204.443512 48.242175 
L 205.941063 38.687372 
L 207.268439 31.588237 
L 208.425638 26.537523 
L 209.446696 23.010513 
L 210.331613 20.684394 
L 211.114424 19.205557 
L 211.795129 18.367777 
L 212.373729 17.986146 
L 212.884258 17.902586 
L 213.394787 18.056586 
L 213.939351 18.482303 
L 214.551986 19.282479 
L 215.232691 20.567423 
L 216.015502 22.553746 
L 216.900419 25.441662 
L 217.921477 29.596519 
L 219.044641 35.142255 
L 220.337981 42.717985 
L 221.801498 52.694976 
L 223.469226 65.656542 
L 225.477306 83.092376 
L 228.166092 108.568085 
L 234.87104 172.944373 
L 236.947191 190.27482 
L 238.648954 202.720915 
L 240.146506 212.097443 
L 241.439846 218.862396 
L 242.597045 223.783953 
L 243.618103 227.192015 
L 244.50302 229.412117 
L 245.251796 230.746801 
L 245.898466 231.492918 
L 246.477066 231.83872 
L 246.987595 231.890605 
L 247.498124 231.704944 
L 248.042688 231.245552 
L 248.655323 230.407713 
L 249.336028 229.081338 
L 250.118839 227.048118 
L 251.003756 224.108446 
L 252.024814 219.895961 
L 253.182013 214.104815 
L 254.475353 206.43258 
L 255.93887 196.357602 
L 257.640633 183.019118 
L 259.682749 165.155385 
L 262.439605 138.902671 
L 268.668059 78.969587 
L 270.778246 61.133373 
L 272.514044 48.242175 
L 274.011596 38.687372 
L 275.338971 31.588237 
L 276.49617 26.537523 
L 277.517228 23.010513 
L 278.402145 20.684394 
L 279.184956 19.205557 
L 279.865662 18.367777 
L 280.444261 17.986146 
L 280.95479 17.902586 
L 281.465319 18.056586 
L 282.009883 18.482303 
L 282.622518 19.282479 
L 283.303224 20.567423 
L 284.086035 22.553746 
L 284.970952 25.441662 
L 285.99201 29.596519 
L 287.115173 35.142255 
L 288.408514 42.717985 
L 289.87203 52.694976 
L 291.539758 65.656542 
L 293.547839 83.092376 
L 296.236625 108.568085 
L 302.941572 172.944373 
L 305.017723 190.27482 
L 306.719487 202.720915 
L 308.217038 212.097443 
L 309.510379 218.862396 
L 310.667578 223.783953 
L 311.688636 227.192015 
L 312.573553 229.412117 
L 313.322328 230.746801 
L 313.968998 231.492918 
L 314.547598 231.83872 
L 315.058127 231.890605 
L 315.568656 231.704944 
L 316.11322 231.245552 
L 316.725855 230.407713 
L 317.40656 229.081338 
L 318.189371 227.048118 
L 319.074288 224.108446 
L 320.095346 219.895961 
L 321.252545 214.104815 
L 322.545886 206.43258 
L 324.009402 196.357602 
L 325.711165 183.019118 
L 327.753281 165.155385 
L 330.510138 138.902671 
L 336.738592 78.969587 
L 338.848778 61.133373 
L 340.584577 48.242175 
L 342.082128 38.687372 
L 343.409504 31.588237 
L 344.566703 26.537523 
L 345.587761 23.010513 
L 346.472678 20.684394 
L 347.255489 19.205557 
L 347.936194 18.367777 
L 348.514794 17.986146 
L 349.025323 17.902586 
L 349.535852 18.056586 
L 350.080416 18.482303 
L 350.693051 19.282479 
L 351.373756 20.567423 
L 352.156567 22.553746 
L 353.041484 25.441662 
L 354.062542 29.596519 
L 355.185706 35.142255 
L 356.479046 42.717985 
L 357.942562 52.694976 
L 359.61029 65.656542 
L 361.618371 83.092376 
L 364.307157 108.568085 
L 371.012105 172.944373 
L 373.088256 190.27482 
L 374.790019 202.720915 
L 376.287571 212.097443 
L 377.580911 218.862396 
L 378.73811 223.783953 
L 379.759168 227.192015 
L 380.644085 229.412117 
L 381.392861 230.746801 
L 382.039531 231.492918 
L 382.61813 231.83872 
L 383.128659 231.890605 
L 383.639188 231.704944 
L 384.183753 231.245552 
L 384.796387 230.407713 
L 385.477093 229.081338 
L 386.259904 227.048118 
L 387.144821 224.108446 
L 388.165879 219.895961 
L 389.323078 214.104815 
L 390.616418 206.43258 
L 392.079934 196.357602 
L 393.781698 183.019118 
L 395.823814 165.155385 
L 398.58067 138.902671 
L 400.00252 124.9 
L 400.00252 124.9 
" style="fill:none;stroke:#808080;stroke-dasharray:5.55,2.4;stroke-dashoffset:0;stroke-width:1.5;"/>
   </g>
   <g id="line2d_15">
    <path clip-path="url(#p60a760a824)" d="M 59.649858 124.9 
L 59.827666 125.013471 
L 60.099948 127.104732 
L 61.0189 136.290138 
L 64.014003 166.780946 
L 65.273308 177.146599 
L 66.294366 183.873584 
L 67.179283 188.326319 
L 67.928059 191.030404 
L 68.540694 192.496479 
L 69.051223 193.200699 
L 69.459646 193.426378 
L 69.799999 193.387247 
L 70.174386 193.10884 
L 70.616845 192.467959 
L 71.161409 191.228906 
L 71.808079 189.141168 
L 72.59089 185.780865 
L 73.509843 180.796486 
L 74.667042 173.197161 
L 76.232664 161.285927 
L 80.044614 131.669817 
L 80.963566 126.357877 
L 81.406024 124.816605 
L 81.50813 124.756765 
L 81.542165 124.792738 
L 81.712342 124.914478 
L 81.882518 124.547783 
L 82.393047 122.689286 
L 84.435163 114.888474 
L 85.32008 112.4772 
L 86.034821 111.113832 
L 86.647455 110.379215 
L 87.157984 110.073417 
L 87.634478 110.034221 
L 88.110972 110.224459 
L 88.655536 110.708175 
L 89.302206 111.622425 
L 90.085017 113.160784 
L 91.07204 115.629536 
L 92.94398 121.077229 
L 94.067143 123.978739 
L 94.577672 124.803817 
L 94.815919 124.9005 
L 95.224342 124.790751 
L 95.632766 125.524748 
L 98.321552 130.97353 
L 99.002257 131.696689 
L 99.546821 131.982021 
L 100.023315 132.001631 
L 100.499809 131.798404 
L 101.010338 131.330286 
L 101.622972 130.432559 
L 102.337713 128.956964 
L 103.426842 126.104639 
L 104.039476 124.780544 
L 104.175617 124.757052 
L 104.413864 124.930418 
L 104.618076 124.575447 
L 105.026499 123.286011 
L 105.707204 120.273011 
L 106.660192 114.906261 
L 107.953532 106.195163 
L 110.165824 89.448636 
L 112.378117 73.306362 
L 113.671457 65.446808 
L 114.692515 60.542958 
L 115.509361 57.623552 
L 116.190066 55.951938 
L 116.734631 55.146865 
L 117.177089 54.855299 
L 117.551477 54.86864 
L 117.925865 55.123917 
L 118.368323 55.74038 
L 118.878852 56.876934 
L 119.491487 58.839403 
L 120.206228 61.939392 
L 121.057109 66.722529 
L 122.044132 73.647747 
L 123.235367 83.706982 
L 124.835024 99.3349 
L 127.251528 123.064438 
L 127.591881 124.912367 
L 127.659951 124.954724 
L 127.693986 124.902554 
L 127.762057 124.875867 
L 127.898198 125.614104 
L 128.476798 130.905054 
L 130.859266 156.015211 
L 132.424888 170.857783 
L 133.616123 180.1746 
L 134.603145 186.278662 
L 135.454027 190.235965 
L 136.168768 192.576461 
L 136.747367 193.798462 
L 137.223861 194.350696 
L 137.598249 194.49823 
L 137.938602 194.415851 
L 138.312989 194.090401 
L 138.755448 193.394914 
L 139.300012 192.090583 
L 139.946682 189.928838 
L 140.729493 186.485239 
L 141.682481 181.206591 
L 142.873715 173.233458 
L 144.507408 160.628828 
L 148.01304 133.184537 
L 149.034098 127.014305 
L 149.544627 124.976255 
L 149.714804 124.775877 
L 149.919015 124.943021 
L 149.953051 124.904191 
L 150.191297 124.289094 
L 150.906038 121.582812 
L 152.40359 116.01977 
L 153.288507 113.539702 
L 154.037282 112.051827 
L 154.649917 111.274601 
L 155.194482 110.918383 
L 155.670975 110.860378 
L 156.147469 111.031055 
L 156.657998 111.455043 
L 157.270633 112.268644 
L 158.019409 113.661992 
L 158.972396 115.943265 
L 160.572054 120.472547 
L 161.865394 123.887002 
L 162.409958 124.808731 
L 162.648205 124.924278 
L 162.818381 124.767 
L 162.988557 124.731372 
L 163.26084 125.135624 
L 163.97558 126.739991 
L 165.643308 130.500898 
L 166.460155 131.812942 
L 167.106825 132.478035 
L 167.651389 132.746869 
L 168.127883 132.74844 
L 168.604376 132.524058 
L 169.114905 132.029814 
L 169.72754 131.095405 
L 170.442281 129.566642 
L 171.463339 126.773286 
L 172.24615 124.837017 
L 172.416326 124.787186 
L 172.654573 124.937023 
L 172.858785 124.542409 
L 173.301243 123.050626 
L 174.015984 119.711799 
L 175.003006 113.922555 
L 176.364417 104.491897 
L 181.435672 67.973006 
L 182.490765 62.536001 
L 183.341647 59.187988 
L 184.056387 57.187659 
L 184.634987 56.154334 
L 185.111481 55.7159 
L 185.485868 55.640251 
L 185.860256 55.805314 
L 186.26868 56.262898 
L 186.745173 57.164852 
L 187.323773 58.79239 
L 188.004478 61.445266 
L 188.787289 65.452434 
L 189.706241 71.38472 
L 190.79537 79.949812 
L 192.156781 92.526631 
L 195.526272 124.68917 
L 195.662413 124.977538 
L 195.696448 124.932093 
L 195.764519 124.881622 
L 195.798554 124.965425 
L 196.002766 126.388079 
L 196.751542 133.643039 
L 200.495421 171.59331 
L 201.686655 180.912219 
L 202.673678 187.015833 
L 203.52456 190.971618 
L 204.2393 193.310188 
L 204.8179 194.53025 
L 205.294393 195.080651 
L 205.668781 195.226604 
L 206.009134 195.142681 
L 206.383522 194.815418 
L 206.82598 194.117633 
L 207.370545 192.81024 
L 208.017215 190.644515 
L 208.800026 187.195563 
L 209.753013 181.909511 
L 210.944248 173.925448 
L 212.57794 161.301459 
L 216.117608 133.529915 
L 217.138666 127.310371 
L 217.68323 125.056121 
L 217.887442 124.790878 
L 218.091653 124.954042 
L 218.125689 124.914198 
L 218.363936 124.306842 
L 219.112711 121.521882 
L 220.542193 116.350208 
L 221.42711 113.940875 
L 222.175885 112.511354 
L 222.78852 111.77998 
L 223.299049 111.473178 
L 223.775543 111.430336 
L 224.252037 111.614442 
L 224.796601 112.088115 
L 225.443271 112.985981 
L 226.226082 114.497017 
L 227.24714 117.006683 
L 230.208208 124.673379 
L 230.514526 124.937452 
L 230.684702 124.845867 
L 230.888914 124.732954 
L 231.12716 125.063845 
L 231.739795 126.423227 
L 233.781911 131.137352 
L 234.598758 132.418414 
L 235.245428 133.048457 
L 235.789992 133.28237 
L 236.266486 133.25016 
L 236.742979 132.98956 
L 237.287544 132.409265 
L 237.900178 131.402871 
L 238.648954 129.702474 
L 239.738083 126.574766 
L 240.418788 124.862448 
L 240.588964 124.793871 
L 240.827211 124.949874 
L 241.031423 124.547619 
L 241.473881 123.023632 
L 242.188622 119.627303 
L 243.175645 113.766909 
L 244.571091 104.018387 
L 249.336028 69.523392 
L 250.425156 63.718287 
L 251.310073 60.091294 
L 252.058849 57.898098 
L 252.637449 56.800037 
L 253.113942 56.306179 
L 253.522366 56.186853 
L 253.896754 56.328596 
L 254.305177 56.760407 
L 254.78167 57.632032 
L 255.36027 59.222665 
L 256.040975 61.832511 
L 256.823786 65.79148 
L 257.742739 71.670103 
L 258.831867 80.177429 
L 260.193278 92.693582 
L 263.562769 124.730042 
L 263.69891 124.979082 
L 263.732945 124.926265 
L 263.801016 124.902298 
L 263.937157 125.644733 
L 264.515757 130.943417 
L 266.591908 153.004976 
L 268.293671 169.70087 
L 269.552976 179.962681 
L 270.574034 186.580473 
L 271.424916 190.784097 
L 272.173692 193.437049 
L 272.786326 194.859326 
L 273.296855 195.526163 
L 273.705278 195.721584 
L 274.045631 195.65712 
L 274.420019 195.350829 
L 274.862478 194.677107 
L 275.407042 193.398028 
L 276.053712 191.263672 
L 276.836523 187.848779 
L 277.78951 182.597351 
L 278.946709 174.889163 
L 280.546367 162.586405 
L 284.290246 133.231117 
L 285.311304 127.113712 
L 285.855869 124.973432 
L 286.026045 124.797276 
L 286.230256 124.961606 
L 286.264292 124.922757 
L 286.502539 124.325688 
L 287.251314 121.583291 
L 288.680796 116.510701 
L 289.565713 114.167832 
L 290.280453 112.844543 
L 290.893088 112.136265 
L 291.403617 111.847403 
L 291.880111 111.820023 
L 292.356604 112.018145 
L 292.901169 112.505773 
L 293.547839 113.416848 
L 294.33065 114.937958 
L 295.351708 117.448136 
L 298.1426 124.632424 
L 298.482952 124.943585 
L 298.653129 124.847734 
L 298.85734 124.741712 
L 299.095587 125.080378 
L 299.708222 126.459674 
L 301.818408 131.423435 
L 302.635255 132.731243 
L 303.281925 133.382399 
L 303.826489 133.633866 
L 304.302983 133.616567 
L 304.779477 133.3701 
L 305.290006 132.848586 
L 305.90264 131.875877 
L 306.617381 130.291731 
L 307.570368 127.581859 
L 308.557391 124.878965 
L 308.727567 124.795945 
L 308.965814 124.957178 
L 309.170026 124.551323 
L 309.612484 123.007057 
L 310.327225 119.573602 
L 311.348283 113.445436 
L 312.777764 103.370141 
L 317.270419 70.718636 
L 318.393583 64.58243 
L 319.312535 60.710258 
L 320.061311 58.439645 
L 320.673946 57.226097 
L 321.15044 56.704374 
L 321.558863 56.560529 
L 321.933251 56.679402 
L 322.341674 57.085958 
L 322.818168 57.927898 
L 323.362732 59.374933 
L 324.009402 61.758119 
L 324.792213 65.582796 
L 325.67713 71.079628 
L 326.732223 79.102397 
L 328.059599 91.05322 
L 330.476103 115.419747 
L 331.42909 123.779256 
L 331.701372 124.986004 
L 331.871548 124.987466 
L 332.07576 126.421761 
L 332.824536 133.689333 
L 336.670521 172.731958 
L 337.861755 181.996212 
L 338.848778 188.045052 
L 339.69966 191.948918 
L 340.4144 194.241707 
L 340.993 195.423888 
L 341.469494 195.942877 
L 341.843881 196.064175 
L 342.184234 195.957962 
L 342.558622 195.606413 
L 343.035116 194.810843 
L 343.613715 193.337713 
L 344.294421 190.928796 
L 345.111267 187.149046 
L 346.09829 181.444833 
L 347.323559 172.973782 
L 349.127428 158.746173 
L 352.088497 135.382253 
L 353.21166 128.2313 
L 353.85833 125.287578 
L 354.130613 124.792721 
L 354.368859 124.943248 
L 354.402895 124.893527 
L 354.675177 124.161897 
L 355.594129 120.768123 
L 356.819399 116.556587 
L 357.67028 114.350876 
L 358.385021 113.055165 
L 358.997656 112.369567 
L 359.508185 112.098615 
L 359.984678 112.086898 
L 360.461172 112.299442 
L 361.005736 112.801736 
L 361.652406 113.727223 
L 362.435218 115.260455 
L 363.490311 117.866136 
L 366.111026 124.586822 
L 366.451379 124.93839 
L 366.621555 124.886775 
L 366.859802 124.746748 
L 367.098049 125.092337 
L 367.710684 126.485611 
L 369.888941 131.662215 
L 370.705787 132.973963 
L 371.352457 133.626317 
L 371.897022 133.877718 
L 372.373515 133.859599 
L 372.850009 133.611573 
L 373.360538 133.087458 
L 373.973173 132.110023 
L 374.687913 130.51702 
L 375.640901 127.782909 
L 376.695994 124.85771 
L 376.832135 124.787445 
L 376.86617 124.817668 
L 377.070382 124.970415 
L 377.240558 124.67113 
L 377.614946 123.452272 
L 378.261616 120.499164 
L 379.214604 114.989293 
L 380.541979 105.874556 
L 385.749375 68.584502 
L 386.804468 63.274365 
L 387.65535 60.044646 
L 388.336055 58.224764 
L 388.914655 57.251879 
L 389.357113 56.879656 
L 389.731501 56.823107 
L 390.105889 57.007318 
L 390.514312 57.485713 
L 390.990806 58.411653 
L 391.569405 60.067548 
L 392.250111 62.752106 
L 393.032922 66.792458 
L 393.951874 72.757493 
L 395.041003 81.349305 
L 396.436448 94.266575 
L 399.601728 124.492536 
L 399.771905 124.994988 
L 399.80594 124.964254 
L 399.87401 124.884683 
L 399.908046 124.939758 
L 400.00252 125.449013 
L 400.00252 125.449013 
" style="fill:none;stroke:#0000ff;stroke-linecap:square;stroke-width:1.5;"/>
   </g>
   <g id="patch_3">
    <path d="M 42.620313 242.6 
L 42.620313 7.2 
" style="fill:none;stroke:#000000;stroke-linecap:square;stroke-linejoin:miter;stroke-width:0.8;"/>
   </g>
   <g id="patch_4">
    <path d="M 417.270312 242.6 
L 417.270312 7.2 
" style="fill:none;stroke:#000000;stroke-linecap:square;stroke-linejoin:miter;stroke-width:0.8;"/>
   </g>
   <g id="patch_5">
    <path d="M 42.620312 242.6 
L 417.270312 242.6 
" style="fill:none;stroke:#000000;stroke-linecap:square;stroke-linejoin:miter;stroke-width:0.8;"/>
   </g>
   <g id="patch_6">
    <path d="M 42.620312 7.2 
L 417.270312 7.2 
" style="fill:none;stroke:#000000;stroke-linecap:square;stroke-linejoin:miter;stroke-width:0.8;"/>
   </g>
   <g id="legend_1">
    <g id="patch_7">
     <path d="M 48.366813 89.59 
L 171.179313 89.59 
Q 173.179313 89.59 173.179313 87.59 
L 173.179313 44.555625 
Q 173.179313 42.555625 171.179313 42.555625 
L 48.366813 42.555625 
Q 46.366813 42.555625 46.366813 44.555625 
L 46.366813 87.59 
Q 46.366813 89.59 48.366813 89.59 
z
" style="fill:#ffffff;opacity:0.8;stroke:#cccccc;stroke-linejoin:miter;"/>
    </g>
    <g id="line2d_16">
     <path d="M 50.366813 50.654062 
L 70.366813 50.654062 
" style="fill:none;stroke:#90ee90;stroke-linecap:square;stroke-width:4;"/>
    </g>
    <g id="line2d_17"/>
    <g id="text_14">
     <!-- Vin [V] -->
     <g transform="translate(78.366813 54.154062)scale(0.1 -0.1)">
      <defs>
       <path d="M 54.890625 33.015625 
L 54.890625 0 
L 45.90625 0 
L 45.90625 32.71875 
Q 45.90625 40.484375 42.875 44.328125 
Q 39.84375 48.1875 33.796875 48.1875 
Q 26.515625 48.1875 22.3125 43.546875 
Q 18.109375 38.921875 18.109375 30.90625 
L 18.109375 0 
L 9.078125 0 
L 9.078125 54.6875 
L 18.109375 54.6875 
L 18.109375 46.1875 
Q 21.34375 51.125 25.703125 53.5625 
Q 30.078125 56 35.796875 56 
Q 45.21875 56 50.046875 50.171875 
Q 54.890625 44.34375 54.890625 33.015625 
z
" id="DejaVuSans-110"/>
      </defs>
      <use xlink:href="#DejaVuSans-86"/>
      <use x="66.158203" xlink:href="#DejaVuSans-105"/>
      <use x="93.941406" xlink:href="#DejaVuSans-110"/>
      <use x="157.320312" xlink:href="#DejaVuSans-32"/>
      <use x="189.107422" xlink:href="#DejaVuSans-91"/>
      <use x="228.121094" xlink:href="#DejaVuSans-86"/>
      <use x="296.529297" xlink:href="#DejaVuSans-93"/>
     </g>
    </g>
    <g id="line2d_18">
     <path d="M 50.366813 65.332187 
L 70.366813 65.332187 
" style="fill:none;stroke:#808080;stroke-dasharray:1.5,2.475;stroke-dashoffset:0;stroke-width:1.5;"/>
    </g>
    <g id="line2d_19"/>
    <g id="text_15">
     <!-- Vout (R2=100 kΩ) -->
     <g transform="translate(78.366813 68.832187)scale(0.1 -0.1)">
      <defs>
       <path d="M 30.609375 48.390625 
Q 23.390625 48.390625 19.1875 42.75 
Q 14.984375 37.109375 14.984375 27.296875 
Q 14.984375 17.484375 19.15625 11.84375 
Q 23.34375 6.203125 30.609375 6.203125 
Q 37.796875 6.203125 41.984375 11.859375 
Q 46.1875 17.53125 46.1875 27.296875 
Q 46.1875 37.015625 41.984375 42.703125 
Q 37.796875 48.390625 30.609375 48.390625 
z
M 30.609375 56 
Q 42.328125 56 49.015625 48.375 
Q 55.71875 40.765625 55.71875 27.296875 
Q 55.71875 13.875 49.015625 6.21875 
Q 42.328125 -1.421875 30.609375 -1.421875 
Q 18.84375 -1.421875 12.171875 6.21875 
Q 5.515625 13.875 5.515625 27.296875 
Q 5.515625 40.765625 12.171875 48.375 
Q 18.84375 56 30.609375 56 
z
" id="DejaVuSans-111"/>
       <path d="M 8.5 21.578125 
L 8.5 54.6875 
L 17.484375 54.6875 
L 17.484375 21.921875 
Q 17.484375 14.15625 20.5 10.265625 
Q 23.53125 6.390625 29.59375 6.390625 
Q 36.859375 6.390625 41.078125 11.03125 
Q 45.3125 15.671875 45.3125 23.6875 
L 45.3125 54.6875 
L 54.296875 54.6875 
L 54.296875 0 
L 45.3125 0 
L 45.3125 8.40625 
Q 42.046875 3.421875 37.71875 1 
Q 33.40625 -1.421875 27.6875 -1.421875 
Q 18.265625 -1.421875 13.375 4.4375 
Q 8.5 10.296875 8.5 21.578125 
z
M 31.109375 56 
z
" id="DejaVuSans-117"/>
       <path d="M 44.390625 34.1875 
Q 47.5625 33.109375 50.5625 29.59375 
Q 53.5625 26.078125 56.59375 19.921875 
L 66.609375 0 
L 56 0 
L 46.6875 18.703125 
Q 43.0625 26.03125 39.671875 28.421875 
Q 36.28125 30.8125 30.421875 30.8125 
L 19.671875 30.8125 
L 19.671875 0 
L 9.8125 0 
L 9.8125 72.90625 
L 32.078125 72.90625 
Q 44.578125 72.90625 50.734375 67.671875 
Q 56.890625 62.453125 56.890625 51.90625 
Q 56.890625 45.015625 53.6875 40.46875 
Q 50.484375 35.9375 44.390625 34.1875 
z
M 19.671875 64.796875 
L 19.671875 38.921875 
L 32.078125 38.921875 
Q 39.203125 38.921875 42.84375 42.21875 
Q 46.484375 45.515625 46.484375 51.90625 
Q 46.484375 58.296875 42.84375 61.546875 
Q 39.203125 64.796875 32.078125 64.796875 
z
" id="DejaVuSans-82"/>
       <path d="M 10.59375 45.40625 
L 73.1875 45.40625 
L 73.1875 37.203125 
L 10.59375 37.203125 
z
M 10.59375 25.484375 
L 73.1875 25.484375 
L 73.1875 17.1875 
L 10.59375 17.1875 
z
" id="DejaVuSans-61"/>
       <path d="M 9.078125 75.984375 
L 18.109375 75.984375 
L 18.109375 31.109375 
L 44.921875 54.6875 
L 56.390625 54.6875 
L 27.390625 29.109375 
L 57.625 0 
L 45.90625 0 
L 18.109375 26.703125 
L 18.109375 0 
L 9.078125 0 
z
" id="DejaVuSans-107"/>
       <path d="M 72.609375 8.6875 
L 72.609375 0 
L 43.3125 0 
L 43.3125 8.6875 
Q 51.953125 13.421875 56.78125 21.53125 
Q 61.625 29.640625 61.625 39.5 
Q 61.625 51.21875 55.171875 58.296875 
Q 48.734375 65.375 38.1875 65.375 
Q 27.640625 65.375 21.171875 58.265625 
Q 14.703125 51.171875 14.703125 39.5 
Q 14.703125 29.640625 19.53125 21.53125 
Q 24.421875 13.421875 33.109375 8.6875 
L 33.109375 0 
L 3.8125 0 
L 3.8125 8.6875 
L 19.390625 8.6875 
Q 11.671875 15.484375 8.109375 22.75 
Q 4.59375 30.03125 4.59375 39.015625 
Q 4.59375 54.546875 13.96875 64.15625 
Q 23.296875 73.78125 38.1875 73.78125 
Q 52.984375 73.78125 62.40625 64.15625 
Q 71.78125 54.59375 71.78125 39.5 
Q 71.78125 30.03125 68.3125 22.796875 
Q 64.84375 15.578125 56.984375 8.6875 
z
" id="DejaVuSans-937"/>
      </defs>
      <use xlink:href="#DejaVuSans-86"/>
      <use x="60.658203" xlink:href="#DejaVuSans-111"/>
      <use x="121.839844" xlink:href="#DejaVuSans-117"/>
      <use x="185.21875" xlink:href="#DejaVuSans-116"/>
      <use x="224.427734" xlink:href="#DejaVuSans-32"/>
      <use x="256.214844" xlink:href="#DejaVuSans-40"/>
      <use x="295.228516" xlink:href="#DejaVuSans-82"/>
      <use x="364.710938" xlink:href="#DejaVuSans-50"/>
      <use x="428.333984" xlink:href="#DejaVuSans-61"/>
      <use x="512.123047" xlink:href="#DejaVuSans-49"/>
      <use x="575.746094" xlink:href="#DejaVuSans-48"/>
      <use x="639.369141" xlink:href="#DejaVuSans-48"/>
      <use x="702.992188" xlink:href="#DejaVuSans-32"/>
      <use x="734.779297" xlink:href="#DejaVuSans-107"/>
      <use x="792.689453" xlink:href="#DejaVuSans-937"/>
      <use x="869.105469" xlink:href="#DejaVuSans-41"/>
     </g>
    </g>
    <g id="line2d_20">
     <path d="M 50.366813 80.010312 
L 70.366813 80.010312 
" style="fill:none;stroke:#808080;stroke-dasharray:5.55,2.4;stroke-dashoffset:0;stroke-width:1.5;"/>
    </g>
    <g id="line2d_21"/>
    <g id="text_16">
     <!-- Vout (R2=125 kΩ) -->
     <g transform="translate(78.366813 83.510312)scale(0.1 -0.1)">
      <defs>
       <path d="M 10.796875 72.90625 
L 49.515625 72.90625 
L 49.515625 64.59375 
L 19.828125 64.59375 
L 19.828125 46.734375 
Q 21.96875 47.46875 24.109375 47.828125 
Q 26.265625 48.1875 28.421875 48.1875 
Q 40.625 48.1875 47.75 41.5 
Q 54.890625 34.8125 54.890625 23.390625 
Q 54.890625 11.625 47.5625 5.09375 
Q 40.234375 -1.421875 26.90625 -1.421875 
Q 22.3125 -1.421875 17.546875 -0.640625 
Q 12.796875 0.140625 7.71875 1.703125 
L 7.71875 11.625 
Q 12.109375 9.234375 16.796875 8.0625 
Q 21.484375 6.890625 26.703125 6.890625 
Q 35.15625 6.890625 40.078125 11.328125 
Q 45.015625 15.765625 45.015625 23.390625 
Q 45.015625 31 40.078125 35.4375 
Q 35.15625 39.890625 26.703125 39.890625 
Q 22.75 39.890625 18.8125 39.015625 
Q 14.890625 38.140625 10.796875 36.28125 
z
" id="DejaVuSans-53"/>
      </defs>
      <use xlink:href="#DejaVuSans-86"/>
      <use x="60.658203" xlink:href="#DejaVuSans-111"/>
      <use x="121.839844" xlink:href="#DejaVuSans-117"/>
      <use x="185.21875" xlink:href="#DejaVuSans-116"/>
      <use x="224.427734" xlink:href="#DejaVuSans-32"/>
      <use x="256.214844" xlink:href="#DejaVuSans-40"/>
      <use x="295.228516" xlink:href="#DejaVuSans-82"/>
      <use x="364.710938" xlink:href="#DejaVuSans-50"/>
      <use x="428.333984" xlink:href="#DejaVuSans-61"/>
      <use x="512.123047" xlink:href="#DejaVuSans-49"/>
      <use x="575.746094" xlink:href="#DejaVuSans-50"/>
      <use x="639.369141" xlink:href="#DejaVuSans-53"/>
      <use x="702.992188" xlink:href="#DejaVuSans-32"/>
      <use x="734.779297" xlink:href="#DejaVuSans-107"/>
      <use x="792.689453" xlink:href="#DejaVuSans-937"/>
      <use x="869.105469" xlink:href="#DejaVuSans-41"/>
     </g>
    </g>
   </g>
  </g>
 </g>
 <defs>
  <clipPath id="p60a760a824">
   <rect height="235.4" width="374.65" x="42.620313" y="7.2"/>
  </clipPath>
 </defs>
</svg>
