<?xml version="1.0" encoding="utf-8" standalone="no"?>
<!DOCTYPE svg PUBLIC "-//W3C//DTD SVG 1.1//EN"
  "http://www.w3.org/Graphics/SVG/1.1/DTD/svg11.dtd">
<svg height="280.15625pt" version="1.1" viewBox="0 0 424.470312 280.15625" width="424.470312pt" xmlns="http://www.w3.org/2000/svg" xmlns:xlink="http://www.w3.org/1999/xlink">
 <metadata>
  <rdf:RDF xmlns:cc="http://creativecommons.org/ns#" xmlns:dc="http://purl.org/dc/elements/1.1/" xmlns:rdf="http://www.w3.org/1999/02/22-rdf-syntax-ns#">
   <cc:Work>
    <dc:type rdf:resource="http://purl.org/dc/dcmitype/StillImage"/>
    <dc:date>2021-05-24T10:13:13.781898</dc:date>
    <dc:format>image/svg+xml</dc:format>
    <dc:creator>
     <cc:Agent>
      <dc:title>Matplotlib v3.4.2, https://matplotlib.org/</dc:title>
     </cc:Agent>
    </dc:creator>
   </cc:Work>
  </rdf:RDF>
 </metadata>
 <defs>
  <style type="text/css">*{stroke-linecap:butt;stroke-linejoin:round;}</style>
 </defs>
 <g id="figure_1">
  <g id="patch_1">
   <path d="M 0 280.15625 
L 424.470312 280.15625 
L 424.470312 0 
L 0 0 
z
" style="fill:none;"/>
  </g>
  <g id="axes_1">
   <g id="patch_2">
    <path d="M 42.620313 242.6 
L 417.270312 242.6 
L 417.270312 7.2 
L 42.620313 7.2 
z
" style="fill:#ffffff;"/>
   </g>
   <g id="matplotlib.axis_1">
    <g id="xtick_1">
     <g id="line2d_1">
      <defs>
       <path d="M 0 0 
L 0 3.5 
" id="ma74ce31026" style="stroke:#000000;stroke-width:0.8;"/>
      </defs>
      <g>
       <use style="stroke:#000000;stroke-width:0.8;" x="59.649858" xlink:href="#ma74ce31026" y="242.6"/>
      </g>
     </g>
     <g id="text_1">
      <!-- 0.0 -->
      <g transform="translate(51.698295 257.198437)scale(0.1 -0.1)">
       <defs>
        <path d="M 2034 4250 
Q 1547 4250 1301 3770 
Q 1056 3291 1056 2328 
Q 1056 1369 1301 889 
Q 1547 409 2034 409 
Q 2525 409 2770 889 
Q 3016 1369 3016 2328 
Q 3016 3291 2770 3770 
Q 2525 4250 2034 4250 
z
M 2034 4750 
Q 2819 4750 3233 4129 
Q 3647 3509 3647 2328 
Q 3647 1150 3233 529 
Q 2819 -91 2034 -91 
Q 1250 -91 836 529 
Q 422 1150 422 2328 
Q 422 3509 836 4129 
Q 1250 4750 2034 4750 
z
" id="DejaVuSans-30" transform="scale(0.015625)"/>
        <path d="M 684 794 
L 1344 794 
L 1344 0 
L 684 0 
L 684 794 
z
" id="DejaVuSans-2e" transform="scale(0.015625)"/>
       </defs>
       <use xlink:href="#DejaVuSans-30"/>
       <use x="63.623047" xlink:href="#DejaVuSans-2e"/>
       <use x="95.410156" xlink:href="#DejaVuSans-30"/>
      </g>
     </g>
    </g>
    <g id="xtick_2">
     <g id="line2d_2">
      <g>
       <use style="stroke:#000000;stroke-width:0.8;" x="127.76804" xlink:href="#ma74ce31026" y="242.6"/>
      </g>
     </g>
     <g id="text_2">
      <!-- 0.2 -->
      <g transform="translate(119.816477 257.198437)scale(0.1 -0.1)">
       <defs>
        <path d="M 1228 531 
L 3431 531 
L 3431 0 
L 469 0 
L 469 531 
Q 828 903 1448 1529 
Q 2069 2156 2228 2338 
Q 2531 2678 2651 2914 
Q 2772 3150 2772 3378 
Q 2772 3750 2511 3984 
Q 2250 4219 1831 4219 
Q 1534 4219 1204 4116 
Q 875 4013 500 3803 
L 500 4441 
Q 881 4594 1212 4672 
Q 1544 4750 1819 4750 
Q 2544 4750 2975 4387 
Q 3406 4025 3406 3419 
Q 3406 3131 3298 2873 
Q 3191 2616 2906 2266 
Q 2828 2175 2409 1742 
Q 1991 1309 1228 531 
z
" id="DejaVuSans-32" transform="scale(0.015625)"/>
       </defs>
       <use xlink:href="#DejaVuSans-30"/>
       <use x="63.623047" xlink:href="#DejaVuSans-2e"/>
       <use x="95.410156" xlink:href="#DejaVuSans-32"/>
      </g>
     </g>
    </g>
    <g id="xtick_3">
     <g id="line2d_3">
      <g>
       <use style="stroke:#000000;stroke-width:0.8;" x="195.886222" xlink:href="#ma74ce31026" y="242.6"/>
      </g>
     </g>
     <g id="text_3">
      <!-- 0.4 -->
      <g transform="translate(187.934659 257.198437)scale(0.1 -0.1)">
       <defs>
        <path d="M 2419 4116 
L 825 1625 
L 2419 1625 
L 2419 4116 
z
M 2253 4666 
L 3047 4666 
L 3047 1625 
L 3713 1625 
L 3713 1100 
L 3047 1100 
L 3047 0 
L 2419 0 
L 2419 1100 
L 313 1100 
L 313 1709 
L 2253 4666 
z
" id="DejaVuSans-34" transform="scale(0.015625)"/>
       </defs>
       <use xlink:href="#DejaVuSans-30"/>
       <use x="63.623047" xlink:href="#DejaVuSans-2e"/>
       <use x="95.410156" xlink:href="#DejaVuSans-34"/>
      </g>
     </g>
    </g>
    <g id="xtick_4">
     <g id="line2d_4">
      <g>
       <use style="stroke:#000000;stroke-width:0.8;" x="264.004403" xlink:href="#ma74ce31026" y="242.6"/>
      </g>
     </g>
     <g id="text_4">
      <!-- 0.6 -->
      <g transform="translate(256.052841 257.198437)scale(0.1 -0.1)">
       <defs>
        <path d="M 2113 2584 
Q 1688 2584 1439 2293 
Q 1191 2003 1191 1497 
Q 1191 994 1439 701 
Q 1688 409 2113 409 
Q 2538 409 2786 701 
Q 3034 994 3034 1497 
Q 3034 2003 2786 2293 
Q 2538 2584 2113 2584 
z
M 3366 4563 
L 3366 3988 
Q 3128 4100 2886 4159 
Q 2644 4219 2406 4219 
Q 1781 4219 1451 3797 
Q 1122 3375 1075 2522 
Q 1259 2794 1537 2939 
Q 1816 3084 2150 3084 
Q 2853 3084 3261 2657 
Q 3669 2231 3669 1497 
Q 3669 778 3244 343 
Q 2819 -91 2113 -91 
Q 1303 -91 875 529 
Q 447 1150 447 2328 
Q 447 3434 972 4092 
Q 1497 4750 2381 4750 
Q 2619 4750 2861 4703 
Q 3103 4656 3366 4563 
z
" id="DejaVuSans-36" transform="scale(0.015625)"/>
       </defs>
       <use xlink:href="#DejaVuSans-30"/>
       <use x="63.623047" xlink:href="#DejaVuSans-2e"/>
       <use x="95.410156" xlink:href="#DejaVuSans-36"/>
      </g>
     </g>
    </g>
    <g id="xtick_5">
     <g id="line2d_5">
      <g>
       <use style="stroke:#000000;stroke-width:0.8;" x="332.122585" xlink:href="#ma74ce31026" y="242.6"/>
      </g>
     </g>
     <g id="text_5">
      <!-- 0.8 -->
      <g transform="translate(324.171023 257.198437)scale(0.1 -0.1)">
       <defs>
        <path d="M 2034 2216 
Q 1584 2216 1326 1975 
Q 1069 1734 1069 1313 
Q 1069 891 1326 650 
Q 1584 409 2034 409 
Q 2484 409 2743 651 
Q 3003 894 3003 1313 
Q 3003 1734 2745 1975 
Q 2488 2216 2034 2216 
z
M 1403 2484 
Q 997 2584 770 2862 
Q 544 3141 544 3541 
Q 544 4100 942 4425 
Q 1341 4750 2034 4750 
Q 2731 4750 3128 4425 
Q 3525 4100 3525 3541 
Q 3525 3141 3298 2862 
Q 3072 2584 2669 2484 
Q 3125 2378 3379 2068 
Q 3634 1759 3634 1313 
Q 3634 634 3220 271 
Q 2806 -91 2034 -91 
Q 1263 -91 848 271 
Q 434 634 434 1313 
Q 434 1759 690 2068 
Q 947 2378 1403 2484 
z
M 1172 3481 
Q 1172 3119 1398 2916 
Q 1625 2713 2034 2713 
Q 2441 2713 2670 2916 
Q 2900 3119 2900 3481 
Q 2900 3844 2670 4047 
Q 2441 4250 2034 4250 
Q 1625 4250 1398 4047 
Q 1172 3844 1172 3481 
z
" id="DejaVuSans-38" transform="scale(0.015625)"/>
       </defs>
       <use xlink:href="#DejaVuSans-30"/>
       <use x="63.623047" xlink:href="#DejaVuSans-2e"/>
       <use x="95.410156" xlink:href="#DejaVuSans-38"/>
      </g>
     </g>
    </g>
    <g id="xtick_6">
     <g id="line2d_6">
      <g>
       <use style="stroke:#000000;stroke-width:0.8;" x="400.240767" xlink:href="#ma74ce31026" y="242.6"/>
      </g>
     </g>
     <g id="text_6">
      <!-- 1.0 -->
      <g transform="translate(392.289205 257.198437)scale(0.1 -0.1)">
       <defs>
        <path d="M 794 531 
L 1825 531 
L 1825 4091 
L 703 3866 
L 703 4441 
L 1819 4666 
L 2450 4666 
L 2450 531 
L 3481 531 
L 3481 0 
L 794 0 
L 794 531 
z
" id="DejaVuSans-31" transform="scale(0.015625)"/>
       </defs>
       <use xlink:href="#DejaVuSans-31"/>
       <use x="63.623047" xlink:href="#DejaVuSans-2e"/>
       <use x="95.410156" xlink:href="#DejaVuSans-30"/>
      </g>
     </g>
    </g>
    <g id="text_7">
     <!-- time (ms) -->
     <g transform="translate(205.683594 270.876562)scale(0.1 -0.1)">
      <defs>
       <path d="M 1172 4494 
L 1172 3500 
L 2356 3500 
L 2356 3053 
L 1172 3053 
L 1172 1153 
Q 1172 725 1289 603 
Q 1406 481 1766 481 
L 2356 481 
L 2356 0 
L 1766 0 
Q 1100 0 847 248 
Q 594 497 594 1153 
L 594 3053 
L 172 3053 
L 172 3500 
L 594 3500 
L 594 4494 
L 1172 4494 
z
" id="DejaVuSans-74" transform="scale(0.015625)"/>
       <path d="M 603 3500 
L 1178 3500 
L 1178 0 
L 603 0 
L 603 3500 
z
M 603 4863 
L 1178 4863 
L 1178 4134 
L 603 4134 
L 603 4863 
z
" id="DejaVuSans-69" transform="scale(0.015625)"/>
       <path d="M 3328 2828 
Q 3544 3216 3844 3400 
Q 4144 3584 4550 3584 
Q 5097 3584 5394 3201 
Q 5691 2819 5691 2113 
L 5691 0 
L 5113 0 
L 5113 2094 
Q 5113 2597 4934 2840 
Q 4756 3084 4391 3084 
Q 3944 3084 3684 2787 
Q 3425 2491 3425 1978 
L 3425 0 
L 2847 0 
L 2847 2094 
Q 2847 2600 2669 2842 
Q 2491 3084 2119 3084 
Q 1678 3084 1418 2786 
Q 1159 2488 1159 1978 
L 1159 0 
L 581 0 
L 581 3500 
L 1159 3500 
L 1159 2956 
Q 1356 3278 1631 3431 
Q 1906 3584 2284 3584 
Q 2666 3584 2933 3390 
Q 3200 3197 3328 2828 
z
" id="DejaVuSans-6d" transform="scale(0.015625)"/>
       <path d="M 3597 1894 
L 3597 1613 
L 953 1613 
Q 991 1019 1311 708 
Q 1631 397 2203 397 
Q 2534 397 2845 478 
Q 3156 559 3463 722 
L 3463 178 
Q 3153 47 2828 -22 
Q 2503 -91 2169 -91 
Q 1331 -91 842 396 
Q 353 884 353 1716 
Q 353 2575 817 3079 
Q 1281 3584 2069 3584 
Q 2775 3584 3186 3129 
Q 3597 2675 3597 1894 
z
M 3022 2063 
Q 3016 2534 2758 2815 
Q 2500 3097 2075 3097 
Q 1594 3097 1305 2825 
Q 1016 2553 972 2059 
L 3022 2063 
z
" id="DejaVuSans-65" transform="scale(0.015625)"/>
       <path id="DejaVuSans-20" transform="scale(0.015625)"/>
       <path d="M 1984 4856 
Q 1566 4138 1362 3434 
Q 1159 2731 1159 2009 
Q 1159 1288 1364 580 
Q 1569 -128 1984 -844 
L 1484 -844 
Q 1016 -109 783 600 
Q 550 1309 550 2009 
Q 550 2706 781 3412 
Q 1013 4119 1484 4856 
L 1984 4856 
z
" id="DejaVuSans-28" transform="scale(0.015625)"/>
       <path d="M 2834 3397 
L 2834 2853 
Q 2591 2978 2328 3040 
Q 2066 3103 1784 3103 
Q 1356 3103 1142 2972 
Q 928 2841 928 2578 
Q 928 2378 1081 2264 
Q 1234 2150 1697 2047 
L 1894 2003 
Q 2506 1872 2764 1633 
Q 3022 1394 3022 966 
Q 3022 478 2636 193 
Q 2250 -91 1575 -91 
Q 1294 -91 989 -36 
Q 684 19 347 128 
L 347 722 
Q 666 556 975 473 
Q 1284 391 1588 391 
Q 1994 391 2212 530 
Q 2431 669 2431 922 
Q 2431 1156 2273 1281 
Q 2116 1406 1581 1522 
L 1381 1569 
Q 847 1681 609 1914 
Q 372 2147 372 2553 
Q 372 3047 722 3315 
Q 1072 3584 1716 3584 
Q 2034 3584 2315 3537 
Q 2597 3491 2834 3397 
z
" id="DejaVuSans-73" transform="scale(0.015625)"/>
       <path d="M 513 4856 
L 1013 4856 
Q 1481 4119 1714 3412 
Q 1947 2706 1947 2009 
Q 1947 1309 1714 600 
Q 1481 -109 1013 -844 
L 513 -844 
Q 928 -128 1133 580 
Q 1338 1288 1338 2009 
Q 1338 2731 1133 3434 
Q 928 4138 513 4856 
z
" id="DejaVuSans-29" transform="scale(0.015625)"/>
      </defs>
      <use xlink:href="#DejaVuSans-74"/>
      <use x="39.208984" xlink:href="#DejaVuSans-69"/>
      <use x="66.992188" xlink:href="#DejaVuSans-6d"/>
      <use x="164.404297" xlink:href="#DejaVuSans-65"/>
      <use x="225.927734" xlink:href="#DejaVuSans-20"/>
      <use x="257.714844" xlink:href="#DejaVuSans-28"/>
      <use x="296.728516" xlink:href="#DejaVuSans-6d"/>
      <use x="394.140625" xlink:href="#DejaVuSans-73"/>
      <use x="446.240234" xlink:href="#DejaVuSans-29"/>
     </g>
    </g>
   </g>
   <g id="matplotlib.axis_2">
    <g id="ytick_1">
     <g id="line2d_7">
      <defs>
       <path d="M 0 0 
L -3.5 0 
" id="mac1d7f1dbf" style="stroke:#000000;stroke-width:0.8;"/>
      </defs>
      <g>
       <use style="stroke:#000000;stroke-width:0.8;" x="42.620313" xlink:href="#mac1d7f1dbf" y="211.94122"/>
      </g>
     </g>
     <g id="text_8">
      <!-- −2 -->
      <g transform="translate(20.878125 215.740439)scale(0.1 -0.1)">
       <defs>
        <path d="M 678 2272 
L 4684 2272 
L 4684 1741 
L 678 1741 
L 678 2272 
z
" id="DejaVuSans-2212" transform="scale(0.015625)"/>
       </defs>
       <use xlink:href="#DejaVuSans-2212"/>
       <use x="83.789062" xlink:href="#DejaVuSans-32"/>
      </g>
     </g>
    </g>
    <g id="ytick_2">
     <g id="line2d_8">
      <g>
       <use style="stroke:#000000;stroke-width:0.8;" x="42.620313" xlink:href="#mac1d7f1dbf" y="172.023352"/>
      </g>
     </g>
     <g id="text_9">
      <!-- −1 -->
      <g transform="translate(20.878125 175.822571)scale(0.1 -0.1)">
       <use xlink:href="#DejaVuSans-2212"/>
       <use x="83.789062" xlink:href="#DejaVuSans-31"/>
      </g>
     </g>
    </g>
    <g id="ytick_3">
     <g id="line2d_9">
      <g>
       <use style="stroke:#000000;stroke-width:0.8;" x="42.620313" xlink:href="#mac1d7f1dbf" y="132.105484"/>
      </g>
     </g>
     <g id="text_10">
      <!-- 0 -->
      <g transform="translate(29.257813 135.904702)scale(0.1 -0.1)">
       <use xlink:href="#DejaVuSans-30"/>
      </g>
     </g>
    </g>
    <g id="ytick_4">
     <g id="line2d_10">
      <g>
       <use style="stroke:#000000;stroke-width:0.8;" x="42.620313" xlink:href="#mac1d7f1dbf" y="92.187615"/>
      </g>
     </g>
     <g id="text_11">
      <!-- 1 -->
      <g transform="translate(29.257813 95.986834)scale(0.1 -0.1)">
       <use xlink:href="#DejaVuSans-31"/>
      </g>
     </g>
    </g>
    <g id="ytick_5">
     <g id="line2d_11">
      <g>
       <use style="stroke:#000000;stroke-width:0.8;" x="42.620313" xlink:href="#mac1d7f1dbf" y="52.269747"/>
      </g>
     </g>
     <g id="text_12">
      <!-- 2 -->
      <g transform="translate(29.257813 56.068966)scale(0.1 -0.1)">
       <use xlink:href="#DejaVuSans-32"/>
      </g>
     </g>
    </g>
    <g id="ytick_6">
     <g id="line2d_12">
      <g>
       <use style="stroke:#000000;stroke-width:0.8;" x="42.620313" xlink:href="#mac1d7f1dbf" y="12.351878"/>
      </g>
     </g>
     <g id="text_13">
      <!-- 3 -->
      <g transform="translate(29.257813 16.151097)scale(0.1 -0.1)">
       <defs>
        <path d="M 2597 2516 
Q 3050 2419 3304 2112 
Q 3559 1806 3559 1356 
Q 3559 666 3084 287 
Q 2609 -91 1734 -91 
Q 1441 -91 1130 -33 
Q 819 25 488 141 
L 488 750 
Q 750 597 1062 519 
Q 1375 441 1716 441 
Q 2309 441 2620 675 
Q 2931 909 2931 1356 
Q 2931 1769 2642 2001 
Q 2353 2234 1838 2234 
L 1294 2234 
L 1294 2753 
L 1863 2753 
Q 2328 2753 2575 2939 
Q 2822 3125 2822 3475 
Q 2822 3834 2567 4026 
Q 2313 4219 1838 4219 
Q 1578 4219 1281 4162 
Q 984 4106 628 3988 
L 628 4550 
Q 988 4650 1302 4700 
Q 1616 4750 1894 4750 
Q 2613 4750 3031 4423 
Q 3450 4097 3450 3541 
Q 3450 3153 3228 2886 
Q 3006 2619 2597 2516 
z
" id="DejaVuSans-33" transform="scale(0.015625)"/>
       </defs>
       <use xlink:href="#DejaVuSans-33"/>
      </g>
     </g>
    </g>
    <g id="text_14">
     <!-- IN [V] -->
     <g transform="translate(14.798438 139.026562)rotate(-90)scale(0.1 -0.1)">
      <defs>
       <path d="M 628 4666 
L 1259 4666 
L 1259 0 
L 628 0 
L 628 4666 
z
" id="DejaVuSans-49" transform="scale(0.015625)"/>
       <path d="M 628 4666 
L 1478 4666 
L 3547 763 
L 3547 4666 
L 4159 4666 
L 4159 0 
L 3309 0 
L 1241 3903 
L 1241 0 
L 628 0 
L 628 4666 
z
" id="DejaVuSans-4e" transform="scale(0.015625)"/>
       <path d="M 550 4863 
L 1875 4863 
L 1875 4416 
L 1125 4416 
L 1125 -397 
L 1875 -397 
L 1875 -844 
L 550 -844 
L 550 4863 
z
" id="DejaVuSans-5b" transform="scale(0.015625)"/>
       <path d="M 1831 0 
L 50 4666 
L 709 4666 
L 2188 738 
L 3669 4666 
L 4325 4666 
L 2547 0 
L 1831 0 
z
" id="DejaVuSans-56" transform="scale(0.015625)"/>
       <path d="M 1947 4863 
L 1947 -844 
L 622 -844 
L 622 -397 
L 1369 -397 
L 1369 4416 
L 622 4416 
L 622 4863 
L 1947 4863 
z
" id="DejaVuSans-5d" transform="scale(0.015625)"/>
      </defs>
      <use xlink:href="#DejaVuSans-49"/>
      <use x="29.492188" xlink:href="#DejaVuSans-4e"/>
      <use x="104.296875" xlink:href="#DejaVuSans-20"/>
      <use x="136.083984" xlink:href="#DejaVuSans-5b"/>
      <use x="175.097656" xlink:href="#DejaVuSans-56"/>
      <use x="243.505859" xlink:href="#DejaVuSans-5d"/>
     </g>
    </g>
   </g>
   <g id="line2d_13">
    <path clip-path="url(#pfdfd6f6ac2)" d="M 59.649858 132.105484 
L 72.687678 108.333593 
L 79.499496 96.373494 
L 85.289542 86.643289 
L 90.398405 78.484671 
L 95.166678 71.297974 
L 99.59436 65.044515 
L 103.681451 59.668089 
L 107.427951 55.100576 
L 111.174451 50.900761 
L 114.58036 47.418733 
L 117.986269 44.270925 
L 121.051587 41.733952 
L 124.116905 39.485888 
L 127.182223 37.533919 
L 129.906951 36.052476 
L 132.631678 34.813671 
L 135.356405 33.820633 
L 138.081132 33.075872 
L 140.80586 32.581268 
L 143.530587 32.338071 
L 146.255314 32.346895 
L 148.980042 32.607718 
L 151.704769 33.119881 
L 154.429496 33.88209 
L 157.154223 34.89242 
L 159.878951 36.148319 
L 162.603678 37.646613 
L 165.328405 39.383519 
L 168.393723 41.617268 
L 171.459042 44.140298 
L 174.52436 46.944543 
L 177.930269 50.37926 
L 181.336178 54.136512 
L 185.082678 58.624285 
L 188.829178 63.46293 
L 192.916269 69.114428 
L 197.343951 75.639739 
L 202.112223 83.086773 
L 207.221087 91.484786 
L 213.011133 101.434257 
L 220.163542 114.194803 
L 231.403042 134.788842 
L 242.983133 155.877374 
L 249.794951 167.837473 
L 255.584996 177.567678 
L 260.69386 185.726296 
L 265.462133 192.912993 
L 269.889814 199.166452 
L 273.976905 204.542878 
L 277.723405 209.110391 
L 281.469905 213.310206 
L 284.875814 216.792234 
L 288.281723 219.940042 
L 291.347042 222.477015 
L 294.41236 224.725079 
L 297.477678 226.677048 
L 300.202405 228.158491 
L 302.927133 229.397296 
L 305.65186 230.390334 
L 308.376587 231.135095 
L 311.101314 231.629699 
L 313.826042 231.872896 
L 316.550769 231.864072 
L 319.275496 231.603249 
L 322.000223 231.091086 
L 324.724951 230.328877 
L 327.449678 229.318547 
L 330.174405 228.062648 
L 332.899133 226.564354 
L 335.62386 224.827448 
L 338.689178 222.593699 
L 341.754496 220.070669 
L 344.819814 217.266424 
L 348.225723 213.831707 
L 351.631633 210.074455 
L 355.378133 205.586682 
L 359.124633 200.748037 
L 363.211723 195.096539 
L 367.639405 188.571228 
L 372.407678 181.124194 
L 377.516542 172.726181 
L 383.306587 162.77671 
L 390.458996 150.016164 
L 400.240767 132.105484 
L 400.240767 132.105484 
" style="fill:none;stroke:#0000ff;stroke-linecap:square;stroke-width:1.5;"/>
   </g>
   <g id="line2d_14">
    <path clip-path="url(#pfdfd6f6ac2)" d="M 59.649858 132.105484 
L 61.107587 132.208954 
L 61.788769 132.736505 
L 62.810542 134.0164 
L 66.897633 139.782349 
L 73.36886 149.43483 
L 83.586587 164.64887 
L 89.376632 172.869181 
L 94.485496 179.733503 
L 98.913178 185.321387 
L 103.000269 190.138757 
L 106.746769 194.237995 
L 110.493269 198.010291 
L 113.899178 201.138187 
L 117.305087 203.964223 
L 120.370405 206.239006 
L 123.435723 208.250702 
L 125.479269 209.398638 
L 127.182223 210.064045 
L 129.225769 210.638381 
L 131.950496 211.1594 
L 135.356405 211.563858 
L 139.443496 211.82054 
L 144.211769 211.900246 
L 148.980042 211.771452 
L 153.067133 211.46154 
L 156.473042 210.989076 
L 158.857178 210.466161 
L 160.900723 209.803983 
L 162.603678 208.995404 
L 166.009587 206.839958 
L 169.074905 204.639218 
L 172.140223 202.182308 
L 175.546133 199.163185 
L 178.952042 195.853257 
L 182.698542 191.895125 
L 186.785633 187.224423 
L 190.872723 182.217729 
L 195.640996 176.000773 
L 200.74986 168.961338 
L 206.880496 160.125768 
L 222.207087 137.797123 
L 224.591223 134.782293 
L 225.953587 133.345799 
L 226.97536 132.607585 
L 228.678314 131.915636 
L 229.359496 131.268392 
L 231.062451 129.155981 
L 234.46836 124.53099 
L 239.577223 117.138022 
L 255.925587 93.218021 
L 261.375042 85.735217 
L 266.143314 79.546786 
L 270.570996 74.15834 
L 274.658087 69.530588 
L 278.404587 65.608791 
L 282.151087 62.016547 
L 285.556996 59.053936 
L 288.962905 56.394106 
L 292.028223 54.269215 
L 295.093542 52.407255 
L 298.15886 50.815034 
L 300.883587 49.630883 
L 303.608314 48.667845 
L 306.333042 47.928669 
L 309.057769 47.415456 
L 311.782496 47.129655 
L 314.507223 47.072061 
L 317.231951 47.242812 
L 319.956678 47.64139 
L 322.681405 48.266617 
L 325.406133 49.116662 
L 328.13086 50.189035 
L 330.855587 51.480597 
L 333.920905 53.190864 
L 336.986223 55.167366 
L 340.051542 57.402713 
L 343.457451 60.179765 
L 346.86336 63.253003 
L 350.60986 66.958306 
L 354.35636 70.98298 
L 358.443451 75.709885 
L 362.871133 81.18835 
L 367.639405 87.45057 
L 373.08886 94.983092 
L 380.241269 105.287473 
L 392.161951 122.535308 
L 395.56786 127.063984 
L 397.611405 129.482441 
L 398.973769 130.827144 
L 399.995542 131.544076 
L 400.240767 131.650906 
L 400.240767 131.650906 
" style="fill:none;stroke:#ff0000;stroke-linecap:square;stroke-width:1.5;"/>
   </g>
   <g id="line2d_15">
    <path clip-path="url(#pfdfd6f6ac2)" d="M 59.649858 132.105484 
L 60.766996 132.116874 
L 61.107587 132.248971 
L 61.788769 132.878214 
L 62.810542 134.450876 
L 66.557042 141.131998 
L 72.347087 151.996364 
L 83.245996 172.466345 
L 89.036042 182.836771 
L 93.804314 190.942362 
L 98.231996 198.038811 
L 102.319087 204.168872 
L 106.065587 209.394184 
L 106.746769 210.154069 
L 107.768542 210.929383 
L 109.130905 211.652465 
L 110.83386 212.269278 
L 112.877405 212.767331 
L 115.602132 213.202861 
L 119.689223 213.599964 
L 125.479269 213.907371 
L 133.994042 214.112138 
L 145.574132 214.160697 
L 157.494814 213.998844 
L 165.668996 213.686961 
L 170.77786 213.300396 
L 174.183769 212.856413 
L 176.567905 212.36146 
L 178.27086 211.829221 
L 179.633223 211.205739 
L 180.654996 210.530955 
L 181.336178 209.909359 
L 182.01736 209.050819 
L 185.423269 204.161301 
L 189.51036 198.018668 
L 193.938042 190.92019 
L 198.706314 182.82856 
L 204.155769 173.123138 
L 211.648769 159.261476 
L 220.504133 142.900333 
L 223.569451 137.64685 
L 225.272405 135.042693 
L 226.294178 133.724951 
L 226.97536 133.05304 
L 227.656542 132.65881 
L 228.337723 132.311957 
L 229.018905 131.700298 
L 230.040678 130.29508 
L 232.424814 126.358113 
L 236.171314 119.72557 
L 242.983133 107.098315 
L 253.20086 88.198701 
L 258.990905 77.961795 
L 263.759178 69.949298 
L 268.18686 62.925315 
L 272.273951 56.850303 
L 276.020451 51.663553 
L 279.42636 47.291309 
L 282.832269 43.266817 
L 285.897587 39.957453 
L 288.962905 36.957021 
L 292.028223 34.276521 
L 294.752951 32.170365 
L 297.477678 30.330771 
L 300.202405 28.762994 
L 302.927133 27.471506 
L 305.311269 26.57101 
L 307.695405 25.886838 
L 310.079542 25.422231 
L 312.463678 25.190963 
L 314.847814 25.164511 
L 317.231951 25.340424 
L 319.616087 25.746222 
L 322.000223 26.374866 
L 324.38436 27.220044 
L 326.768496 28.280086 
L 329.493223 29.751621 
L 332.217951 31.496426 
L 334.942678 33.50941 
L 337.667405 35.784672 
L 340.732723 38.649474 
L 343.798042 41.826989 
L 347.203951 45.7097 
L 350.60986 49.945401 
L 354.35636 54.988283 
L 358.10286 60.404406 
L 362.189951 66.70051 
L 366.617633 73.925481 
L 371.726496 82.700959 
L 377.857133 93.697136 
L 394.205496 123.319487 
L 396.930223 127.652708 
L 398.633178 129.96054 
L 399.654951 131.022149 
L 400.240767 131.417017 
L 400.240767 131.417017 
" style="fill:none;stroke:#1f77b4;stroke-linecap:square;stroke-width:1.5;"/>
   </g>
   <g id="line2d_16">
    <path clip-path="url(#pfdfd6f6ac2)" d="M 59.649858 132.105484 
L 60.766996 132.145333 
L 61.107587 132.320066 
L 61.448178 132.652446 
L 62.12936 133.790966 
L 63.151132 136.261016 
L 65.535269 142.986057 
L 70.303542 157.236073 
L 84.60836 200.375947 
L 88.014269 210.154172 
L 88.695451 211.436457 
L 89.376632 212.113945 
L 90.398405 212.769644 
L 91.760769 213.321214 
L 93.463723 213.754367 
L 95.84786 214.127208 
L 99.59436 214.460493 
L 105.384405 214.723652 
L 115.261542 214.916962 
L 132.972269 215.009582 
L 160.900723 214.925406 
L 178.952042 214.685632 
L 187.807405 214.372077 
L 192.575678 214.009619 
L 195.640996 213.566959 
L 197.684542 213.039186 
L 199.046905 212.442657 
L 200.068678 211.700542 
L 200.74986 210.889295 
L 201.090451 210.283524 
L 201.771633 208.409466 
L 204.836951 199.288576 
L 212.329951 176.905158 
L 221.525905 149.473863 
L 224.591223 141.013421 
L 226.294178 136.847196 
L 227.315951 134.785806 
L 227.997133 133.801561 
L 229.359496 132.219898 
L 230.040678 130.961527 
L 231.062451 128.564481 
L 233.446587 122.163967 
L 237.193087 111.404932 
L 244.345496 90.043205 
L 253.20086 63.756023 
L 258.650314 48.231057 
L 263.418587 35.284282 
L 267.505678 24.769431 
L 268.18686 23.335082 
L 268.868042 22.454863 
L 269.889814 21.561659 
L 271.252178 20.76007 
L 272.955133 20.09079 
L 274.998678 19.552647 
L 277.723405 19.078725 
L 281.469905 18.667536 
L 286.91936 18.317729 
L 294.752951 18.057757 
L 306.333042 17.912074 
L 321.659633 17.949763 
L 334.942678 18.189953 
L 343.457451 18.541495 
L 348.906905 18.959552 
L 352.653405 19.444113 
L 355.378133 20.008589 
L 357.421678 20.668199 
L 358.784042 21.324156 
L 359.805814 22.025123 
L 360.486996 22.663853 
L 361.168178 23.540693 
L 361.84936 24.872605 
L 367.298814 39.32601 
L 372.067087 52.514442 
L 377.857133 69.195581 
L 394.886678 118.792413 
L 397.270814 124.858554 
L 398.633178 127.88494 
L 399.654951 129.729994 
L 400.240767 130.487283 
L 400.240767 130.487283 
" style="fill:none;stroke:#ff7f0e;stroke-linecap:square;stroke-width:1.5;"/>
   </g>
   <g id="patch_3">
    <path d="M 42.620313 242.6 
L 42.620313 7.2 
" style="fill:none;stroke:#000000;stroke-linecap:square;stroke-linejoin:miter;stroke-width:0.8;"/>
   </g>
   <g id="patch_4">
    <path d="M 417.270312 242.6 
L 417.270312 7.2 
" style="fill:none;stroke:#000000;stroke-linecap:square;stroke-linejoin:miter;stroke-width:0.8;"/>
   </g>
   <g id="patch_5">
    <path d="M 42.620312 242.6 
L 417.270312 242.6 
" style="fill:none;stroke:#000000;stroke-linecap:square;stroke-linejoin:miter;stroke-width:0.8;"/>
   </g>
   <g id="patch_6">
    <path d="M 42.620312 7.2 
L 417.270312 7.2 
" style="fill:none;stroke:#000000;stroke-linecap:square;stroke-linejoin:miter;stroke-width:0.8;"/>
   </g>
   <g id="legend_1">
    <g id="patch_7">
     <path d="M 48.366813 89.59 
L 171.179313 89.59 
Q 173.179313 89.59 173.179313 87.59 
L 173.179313 29.8775 
Q 173.179313 27.8775 171.179313 27.8775 
L 48.366813 27.8775 
Q 46.366813 27.8775 46.366813 29.8775 
L 46.366813 87.59 
Q 46.366813 89.59 48.366813 89.59 
z
" style="fill:#ffffff;opacity:0.8;stroke:#cccccc;stroke-linejoin:miter;"/>
    </g>
    <g id="line2d_17">
     <path d="M 50.366813 35.975937 
L 70.366813 35.975937 
" style="fill:none;stroke:#0000ff;stroke-linecap:square;stroke-width:1.5;"/>
    </g>
    <g id="line2d_18"/>
    <g id="text_15">
     <!-- Vin [V] -->
     <g transform="translate(78.366813 39.475937)scale(0.1 -0.1)">
      <defs>
       <path d="M 3513 2113 
L 3513 0 
L 2938 0 
L 2938 2094 
Q 2938 2591 2744 2837 
Q 2550 3084 2163 3084 
Q 1697 3084 1428 2787 
Q 1159 2491 1159 1978 
L 1159 0 
L 581 0 
L 581 3500 
L 1159 3500 
L 1159 2956 
Q 1366 3272 1645 3428 
Q 1925 3584 2291 3584 
Q 2894 3584 3203 3211 
Q 3513 2838 3513 2113 
z
" id="DejaVuSans-6e" transform="scale(0.015625)"/>
      </defs>
      <use xlink:href="#DejaVuSans-56"/>
      <use x="66.158203" xlink:href="#DejaVuSans-69"/>
      <use x="93.941406" xlink:href="#DejaVuSans-6e"/>
      <use x="157.320312" xlink:href="#DejaVuSans-20"/>
      <use x="189.107422" xlink:href="#DejaVuSans-5b"/>
      <use x="228.121094" xlink:href="#DejaVuSans-56"/>
      <use x="296.529297" xlink:href="#DejaVuSans-5d"/>
     </g>
    </g>
    <g id="line2d_19">
     <path d="M 50.366813 50.654062 
L 70.366813 50.654062 
" style="fill:none;stroke:#ff0000;stroke-linecap:square;stroke-width:1.5;"/>
    </g>
    <g id="line2d_20"/>
    <g id="text_16">
     <!-- Vout (R2=100 kΩ) -->
     <g transform="translate(78.366813 54.154062)scale(0.1 -0.1)">
      <defs>
       <path d="M 1959 3097 
Q 1497 3097 1228 2736 
Q 959 2375 959 1747 
Q 959 1119 1226 758 
Q 1494 397 1959 397 
Q 2419 397 2687 759 
Q 2956 1122 2956 1747 
Q 2956 2369 2687 2733 
Q 2419 3097 1959 3097 
z
M 1959 3584 
Q 2709 3584 3137 3096 
Q 3566 2609 3566 1747 
Q 3566 888 3137 398 
Q 2709 -91 1959 -91 
Q 1206 -91 779 398 
Q 353 888 353 1747 
Q 353 2609 779 3096 
Q 1206 3584 1959 3584 
z
" id="DejaVuSans-6f" transform="scale(0.015625)"/>
       <path d="M 544 1381 
L 544 3500 
L 1119 3500 
L 1119 1403 
Q 1119 906 1312 657 
Q 1506 409 1894 409 
Q 2359 409 2629 706 
Q 2900 1003 2900 1516 
L 2900 3500 
L 3475 3500 
L 3475 0 
L 2900 0 
L 2900 538 
Q 2691 219 2414 64 
Q 2138 -91 1772 -91 
Q 1169 -91 856 284 
Q 544 659 544 1381 
z
M 1991 3584 
L 1991 3584 
z
" id="DejaVuSans-75" transform="scale(0.015625)"/>
       <path d="M 2841 2188 
Q 3044 2119 3236 1894 
Q 3428 1669 3622 1275 
L 4263 0 
L 3584 0 
L 2988 1197 
Q 2756 1666 2539 1819 
Q 2322 1972 1947 1972 
L 1259 1972 
L 1259 0 
L 628 0 
L 628 4666 
L 2053 4666 
Q 2853 4666 3247 4331 
Q 3641 3997 3641 3322 
Q 3641 2881 3436 2590 
Q 3231 2300 2841 2188 
z
M 1259 4147 
L 1259 2491 
L 2053 2491 
Q 2509 2491 2742 2702 
Q 2975 2913 2975 3322 
Q 2975 3731 2742 3939 
Q 2509 4147 2053 4147 
L 1259 4147 
z
" id="DejaVuSans-52" transform="scale(0.015625)"/>
       <path d="M 678 2906 
L 4684 2906 
L 4684 2381 
L 678 2381 
L 678 2906 
z
M 678 1631 
L 4684 1631 
L 4684 1100 
L 678 1100 
L 678 1631 
z
" id="DejaVuSans-3d" transform="scale(0.015625)"/>
       <path d="M 581 4863 
L 1159 4863 
L 1159 1991 
L 2875 3500 
L 3609 3500 
L 1753 1863 
L 3688 0 
L 2938 0 
L 1159 1709 
L 1159 0 
L 581 0 
L 581 4863 
z
" id="DejaVuSans-6b" transform="scale(0.015625)"/>
       <path d="M 4647 556 
L 4647 0 
L 2772 0 
L 2772 556 
Q 3325 859 3634 1378 
Q 3944 1897 3944 2528 
Q 3944 3278 3531 3731 
Q 3119 4184 2444 4184 
Q 1769 4184 1355 3729 
Q 941 3275 941 2528 
Q 941 1897 1250 1378 
Q 1563 859 2119 556 
L 2119 0 
L 244 0 
L 244 556 
L 1241 556 
Q 747 991 519 1456 
Q 294 1922 294 2497 
Q 294 3491 894 4106 
Q 1491 4722 2444 4722 
Q 3391 4722 3994 4106 
Q 4594 3494 4594 2528 
Q 4594 1922 4372 1459 
Q 4150 997 3647 556 
L 4647 556 
z
" id="DejaVuSans-3a9" transform="scale(0.015625)"/>
      </defs>
      <use xlink:href="#DejaVuSans-56"/>
      <use x="60.658203" xlink:href="#DejaVuSans-6f"/>
      <use x="121.839844" xlink:href="#DejaVuSans-75"/>
      <use x="185.21875" xlink:href="#DejaVuSans-74"/>
      <use x="224.427734" xlink:href="#DejaVuSans-20"/>
      <use x="256.214844" xlink:href="#DejaVuSans-28"/>
      <use x="295.228516" xlink:href="#DejaVuSans-52"/>
      <use x="364.710938" xlink:href="#DejaVuSans-32"/>
      <use x="428.333984" xlink:href="#DejaVuSans-3d"/>
      <use x="512.123047" xlink:href="#DejaVuSans-31"/>
      <use x="575.746094" xlink:href="#DejaVuSans-30"/>
      <use x="639.369141" xlink:href="#DejaVuSans-30"/>
      <use x="702.992188" xlink:href="#DejaVuSans-20"/>
      <use x="734.779297" xlink:href="#DejaVuSans-6b"/>
      <use x="792.689453" xlink:href="#DejaVuSans-3a9"/>
      <use x="869.105469" xlink:href="#DejaVuSans-29"/>
     </g>
    </g>
    <g id="line2d_21">
     <path d="M 50.366813 65.332187 
L 70.366813 65.332187 
" style="fill:none;stroke:#1f77b4;stroke-linecap:square;stroke-width:1.5;"/>
    </g>
    <g id="line2d_22"/>
    <g id="text_17">
     <!-- Vout (R2=125 kΩ) -->
     <g transform="translate(78.366813 68.832187)scale(0.1 -0.1)">
      <defs>
       <path d="M 691 4666 
L 3169 4666 
L 3169 4134 
L 1269 4134 
L 1269 2991 
Q 1406 3038 1543 3061 
Q 1681 3084 1819 3084 
Q 2600 3084 3056 2656 
Q 3513 2228 3513 1497 
Q 3513 744 3044 326 
Q 2575 -91 1722 -91 
Q 1428 -91 1123 -41 
Q 819 9 494 109 
L 494 744 
Q 775 591 1075 516 
Q 1375 441 1709 441 
Q 2250 441 2565 725 
Q 2881 1009 2881 1497 
Q 2881 1984 2565 2268 
Q 2250 2553 1709 2553 
Q 1456 2553 1204 2497 
Q 953 2441 691 2322 
L 691 4666 
z
" id="DejaVuSans-35" transform="scale(0.015625)"/>
      </defs>
      <use xlink:href="#DejaVuSans-56"/>
      <use x="60.658203" xlink:href="#DejaVuSans-6f"/>
      <use x="121.839844" xlink:href="#DejaVuSans-75"/>
      <use x="185.21875" xlink:href="#DejaVuSans-74"/>
      <use x="224.427734" xlink:href="#DejaVuSans-20"/>
      <use x="256.214844" xlink:href="#DejaVuSans-28"/>
      <use x="295.228516" xlink:href="#DejaVuSans-52"/>
      <use x="364.710938" xlink:href="#DejaVuSans-32"/>
      <use x="428.333984" xlink:href="#DejaVuSans-3d"/>
      <use x="512.123047" xlink:href="#DejaVuSans-31"/>
      <use x="575.746094" xlink:href="#DejaVuSans-32"/>
      <use x="639.369141" xlink:href="#DejaVuSans-35"/>
      <use x="702.992188" xlink:href="#DejaVuSans-20"/>
      <use x="734.779297" xlink:href="#DejaVuSans-6b"/>
      <use x="792.689453" xlink:href="#DejaVuSans-3a9"/>
      <use x="869.105469" xlink:href="#DejaVuSans-29"/>
     </g>
    </g>
    <g id="line2d_23">
     <path d="M 50.366813 80.010312 
L 70.366813 80.010312 
" style="fill:none;stroke:#ff7f0e;stroke-linecap:square;stroke-width:1.5;"/>
    </g>
    <g id="line2d_24"/>
    <g id="text_18">
     <!-- Vout (R2=150 kΩ) -->
     <g transform="translate(78.366813 83.510312)scale(0.1 -0.1)">
      <use xlink:href="#DejaVuSans-56"/>
      <use x="60.658203" xlink:href="#DejaVuSans-6f"/>
      <use x="121.839844" xlink:href="#DejaVuSans-75"/>
      <use x="185.21875" xlink:href="#DejaVuSans-74"/>
      <use x="224.427734" xlink:href="#DejaVuSans-20"/>
      <use x="256.214844" xlink:href="#DejaVuSans-28"/>
      <use x="295.228516" xlink:href="#DejaVuSans-52"/>
      <use x="364.710938" xlink:href="#DejaVuSans-32"/>
      <use x="428.333984" xlink:href="#DejaVuSans-3d"/>
      <use x="512.123047" xlink:href="#DejaVuSans-31"/>
      <use x="575.746094" xlink:href="#DejaVuSans-35"/>
      <use x="639.369141" xlink:href="#DejaVuSans-30"/>
      <use x="702.992188" xlink:href="#DejaVuSans-20"/>
      <use x="734.779297" xlink:href="#DejaVuSans-6b"/>
      <use x="792.689453" xlink:href="#DejaVuSans-3a9"/>
      <use x="869.105469" xlink:href="#DejaVuSans-29"/>
     </g>
    </g>
   </g>
  </g>
 </g>
 <defs>
  <clipPath id="pfdfd6f6ac2">
   <rect height="235.4" width="374.65" x="42.620313" y="7.2"/>
  </clipPath>
 </defs>
</svg>
