<?xml version="1.0" encoding="utf-8" standalone="no"?>
<!DOCTYPE svg PUBLIC "-//W3C//DTD SVG 1.1//EN"
  "http://www.w3.org/Graphics/SVG/1.1/DTD/svg11.dtd">
<svg height="278.26025pt" version="1.1" viewBox="0 0 418.526437 278.26025" width="418.526437pt" xmlns="http://www.w3.org/2000/svg" xmlns:xlink="http://www.w3.org/1999/xlink">
 <metadata>
  <rdf:RDF xmlns:cc="http://creativecommons.org/ns#" xmlns:dc="http://purl.org/dc/elements/1.1/" xmlns:rdf="http://www.w3.org/1999/02/22-rdf-syntax-ns#">
   <cc:Work>
    <dc:type rdf:resource="http://purl.org/dc/dcmitype/StillImage"/>
    <dc:date>2021-06-08T14:37:21.146572</dc:date>
    <dc:format>image/svg+xml</dc:format>
    <dc:creator>
     <cc:Agent>
      <dc:title>Matplotlib v3.4.2, https://matplotlib.org/</dc:title>
     </cc:Agent>
    </dc:creator>
   </cc:Work>
  </rdf:RDF>
 </metadata>
 <defs>
  <style type="text/css">*{stroke-linecap:butt;stroke-linejoin:round;}</style>
 </defs>
 <g id="figure_1">
  <g id="patch_1">
   <path d="M 0 278.26025 
L 418.526437 278.26025 
L 418.526437 0 
L 0 0 
z
" style="fill:none;"/>
  </g>
  <g id="axes_1">
   <g id="patch_2">
    <path d="M 58.523438 240.704 
L 411.326437 240.704 
L 411.326437 7.2 
L 58.523438 7.2 
z
" style="fill:#ffffff;"/>
   </g>
   <g id="matplotlib.axis_1">
    <g id="xtick_1">
     <g id="line2d_1">
      <defs>
       <path d="M 0 0 
L 0 3.5 
" id="me9dd4530fd" style="stroke:#000000;stroke-width:0.8;"/>
      </defs>
      <g>
       <use style="stroke:#000000;stroke-width:0.8;" x="74.559938" xlink:href="#me9dd4530fd" y="240.704"/>
      </g>
     </g>
     <g id="text_1">
      <!-- 0.0 -->
      <g transform="translate(66.608375 255.302437)scale(0.1 -0.1)">
       <defs>
        <path d="M 2034 4250 
Q 1547 4250 1301 3770 
Q 1056 3291 1056 2328 
Q 1056 1369 1301 889 
Q 1547 409 2034 409 
Q 2525 409 2770 889 
Q 3016 1369 3016 2328 
Q 3016 3291 2770 3770 
Q 2525 4250 2034 4250 
z
M 2034 4750 
Q 2819 4750 3233 4129 
Q 3647 3509 3647 2328 
Q 3647 1150 3233 529 
Q 2819 -91 2034 -91 
Q 1250 -91 836 529 
Q 422 1150 422 2328 
Q 422 3509 836 4129 
Q 1250 4750 2034 4750 
z
" id="DejaVuSans-30" transform="scale(0.015625)"/>
        <path d="M 684 794 
L 1344 794 
L 1344 0 
L 684 0 
L 684 794 
z
" id="DejaVuSans-2e" transform="scale(0.015625)"/>
       </defs>
       <use xlink:href="#DejaVuSans-30"/>
       <use x="63.623047" xlink:href="#DejaVuSans-2e"/>
       <use x="95.410156" xlink:href="#DejaVuSans-30"/>
      </g>
     </g>
    </g>
    <g id="xtick_2">
     <g id="line2d_2">
      <g>
       <use style="stroke:#000000;stroke-width:0.8;" x="138.705938" xlink:href="#me9dd4530fd" y="240.704"/>
      </g>
     </g>
     <g id="text_2">
      <!-- 0.2 -->
      <g transform="translate(130.754375 255.302437)scale(0.1 -0.1)">
       <defs>
        <path d="M 1228 531 
L 3431 531 
L 3431 0 
L 469 0 
L 469 531 
Q 828 903 1448 1529 
Q 2069 2156 2228 2338 
Q 2531 2678 2651 2914 
Q 2772 3150 2772 3378 
Q 2772 3750 2511 3984 
Q 2250 4219 1831 4219 
Q 1534 4219 1204 4116 
Q 875 4013 500 3803 
L 500 4441 
Q 881 4594 1212 4672 
Q 1544 4750 1819 4750 
Q 2544 4750 2975 4387 
Q 3406 4025 3406 3419 
Q 3406 3131 3298 2873 
Q 3191 2616 2906 2266 
Q 2828 2175 2409 1742 
Q 1991 1309 1228 531 
z
" id="DejaVuSans-32" transform="scale(0.015625)"/>
       </defs>
       <use xlink:href="#DejaVuSans-30"/>
       <use x="63.623047" xlink:href="#DejaVuSans-2e"/>
       <use x="95.410156" xlink:href="#DejaVuSans-32"/>
      </g>
     </g>
    </g>
    <g id="xtick_3">
     <g id="line2d_3">
      <g>
       <use style="stroke:#000000;stroke-width:0.8;" x="202.851938" xlink:href="#me9dd4530fd" y="240.704"/>
      </g>
     </g>
     <g id="text_3">
      <!-- 0.4 -->
      <g transform="translate(194.900375 255.302437)scale(0.1 -0.1)">
       <defs>
        <path d="M 2419 4116 
L 825 1625 
L 2419 1625 
L 2419 4116 
z
M 2253 4666 
L 3047 4666 
L 3047 1625 
L 3713 1625 
L 3713 1100 
L 3047 1100 
L 3047 0 
L 2419 0 
L 2419 1100 
L 313 1100 
L 313 1709 
L 2253 4666 
z
" id="DejaVuSans-34" transform="scale(0.015625)"/>
       </defs>
       <use xlink:href="#DejaVuSans-30"/>
       <use x="63.623047" xlink:href="#DejaVuSans-2e"/>
       <use x="95.410156" xlink:href="#DejaVuSans-34"/>
      </g>
     </g>
    </g>
    <g id="xtick_4">
     <g id="line2d_4">
      <g>
       <use style="stroke:#000000;stroke-width:0.8;" x="266.997938" xlink:href="#me9dd4530fd" y="240.704"/>
      </g>
     </g>
     <g id="text_4">
      <!-- 0.6 -->
      <g transform="translate(259.046375 255.302437)scale(0.1 -0.1)">
       <defs>
        <path d="M 2113 2584 
Q 1688 2584 1439 2293 
Q 1191 2003 1191 1497 
Q 1191 994 1439 701 
Q 1688 409 2113 409 
Q 2538 409 2786 701 
Q 3034 994 3034 1497 
Q 3034 2003 2786 2293 
Q 2538 2584 2113 2584 
z
M 3366 4563 
L 3366 3988 
Q 3128 4100 2886 4159 
Q 2644 4219 2406 4219 
Q 1781 4219 1451 3797 
Q 1122 3375 1075 2522 
Q 1259 2794 1537 2939 
Q 1816 3084 2150 3084 
Q 2853 3084 3261 2657 
Q 3669 2231 3669 1497 
Q 3669 778 3244 343 
Q 2819 -91 2113 -91 
Q 1303 -91 875 529 
Q 447 1150 447 2328 
Q 447 3434 972 4092 
Q 1497 4750 2381 4750 
Q 2619 4750 2861 4703 
Q 3103 4656 3366 4563 
z
" id="DejaVuSans-36" transform="scale(0.015625)"/>
       </defs>
       <use xlink:href="#DejaVuSans-30"/>
       <use x="63.623047" xlink:href="#DejaVuSans-2e"/>
       <use x="95.410156" xlink:href="#DejaVuSans-36"/>
      </g>
     </g>
    </g>
    <g id="xtick_5">
     <g id="line2d_5">
      <g>
       <use style="stroke:#000000;stroke-width:0.8;" x="331.143937" xlink:href="#me9dd4530fd" y="240.704"/>
      </g>
     </g>
     <g id="text_5">
      <!-- 0.8 -->
      <g transform="translate(323.192375 255.302437)scale(0.1 -0.1)">
       <defs>
        <path d="M 2034 2216 
Q 1584 2216 1326 1975 
Q 1069 1734 1069 1313 
Q 1069 891 1326 650 
Q 1584 409 2034 409 
Q 2484 409 2743 651 
Q 3003 894 3003 1313 
Q 3003 1734 2745 1975 
Q 2488 2216 2034 2216 
z
M 1403 2484 
Q 997 2584 770 2862 
Q 544 3141 544 3541 
Q 544 4100 942 4425 
Q 1341 4750 2034 4750 
Q 2731 4750 3128 4425 
Q 3525 4100 3525 3541 
Q 3525 3141 3298 2862 
Q 3072 2584 2669 2484 
Q 3125 2378 3379 2068 
Q 3634 1759 3634 1313 
Q 3634 634 3220 271 
Q 2806 -91 2034 -91 
Q 1263 -91 848 271 
Q 434 634 434 1313 
Q 434 1759 690 2068 
Q 947 2378 1403 2484 
z
M 1172 3481 
Q 1172 3119 1398 2916 
Q 1625 2713 2034 2713 
Q 2441 2713 2670 2916 
Q 2900 3119 2900 3481 
Q 2900 3844 2670 4047 
Q 2441 4250 2034 4250 
Q 1625 4250 1398 4047 
Q 1172 3844 1172 3481 
z
" id="DejaVuSans-38" transform="scale(0.015625)"/>
       </defs>
       <use xlink:href="#DejaVuSans-30"/>
       <use x="63.623047" xlink:href="#DejaVuSans-2e"/>
       <use x="95.410156" xlink:href="#DejaVuSans-38"/>
      </g>
     </g>
    </g>
    <g id="xtick_6">
     <g id="line2d_6">
      <g>
       <use style="stroke:#000000;stroke-width:0.8;" x="395.289938" xlink:href="#me9dd4530fd" y="240.704"/>
      </g>
     </g>
     <g id="text_6">
      <!-- 1.0 -->
      <g transform="translate(387.338375 255.302437)scale(0.1 -0.1)">
       <defs>
        <path d="M 794 531 
L 1825 531 
L 1825 4091 
L 703 3866 
L 703 4441 
L 1819 4666 
L 2450 4666 
L 2450 531 
L 3481 531 
L 3481 0 
L 794 0 
L 794 531 
z
" id="DejaVuSans-31" transform="scale(0.015625)"/>
       </defs>
       <use xlink:href="#DejaVuSans-31"/>
       <use x="63.623047" xlink:href="#DejaVuSans-2e"/>
       <use x="95.410156" xlink:href="#DejaVuSans-30"/>
      </g>
     </g>
    </g>
    <g id="text_7">
     <!-- time (ms) -->
     <g transform="translate(210.663219 268.980562)scale(0.1 -0.1)">
      <defs>
       <path d="M 1172 4494 
L 1172 3500 
L 2356 3500 
L 2356 3053 
L 1172 3053 
L 1172 1153 
Q 1172 725 1289 603 
Q 1406 481 1766 481 
L 2356 481 
L 2356 0 
L 1766 0 
Q 1100 0 847 248 
Q 594 497 594 1153 
L 594 3053 
L 172 3053 
L 172 3500 
L 594 3500 
L 594 4494 
L 1172 4494 
z
" id="DejaVuSans-74" transform="scale(0.015625)"/>
       <path d="M 603 3500 
L 1178 3500 
L 1178 0 
L 603 0 
L 603 3500 
z
M 603 4863 
L 1178 4863 
L 1178 4134 
L 603 4134 
L 603 4863 
z
" id="DejaVuSans-69" transform="scale(0.015625)"/>
       <path d="M 3328 2828 
Q 3544 3216 3844 3400 
Q 4144 3584 4550 3584 
Q 5097 3584 5394 3201 
Q 5691 2819 5691 2113 
L 5691 0 
L 5113 0 
L 5113 2094 
Q 5113 2597 4934 2840 
Q 4756 3084 4391 3084 
Q 3944 3084 3684 2787 
Q 3425 2491 3425 1978 
L 3425 0 
L 2847 0 
L 2847 2094 
Q 2847 2600 2669 2842 
Q 2491 3084 2119 3084 
Q 1678 3084 1418 2786 
Q 1159 2488 1159 1978 
L 1159 0 
L 581 0 
L 581 3500 
L 1159 3500 
L 1159 2956 
Q 1356 3278 1631 3431 
Q 1906 3584 2284 3584 
Q 2666 3584 2933 3390 
Q 3200 3197 3328 2828 
z
" id="DejaVuSans-6d" transform="scale(0.015625)"/>
       <path d="M 3597 1894 
L 3597 1613 
L 953 1613 
Q 991 1019 1311 708 
Q 1631 397 2203 397 
Q 2534 397 2845 478 
Q 3156 559 3463 722 
L 3463 178 
Q 3153 47 2828 -22 
Q 2503 -91 2169 -91 
Q 1331 -91 842 396 
Q 353 884 353 1716 
Q 353 2575 817 3079 
Q 1281 3584 2069 3584 
Q 2775 3584 3186 3129 
Q 3597 2675 3597 1894 
z
M 3022 2063 
Q 3016 2534 2758 2815 
Q 2500 3097 2075 3097 
Q 1594 3097 1305 2825 
Q 1016 2553 972 2059 
L 3022 2063 
z
" id="DejaVuSans-65" transform="scale(0.015625)"/>
       <path id="DejaVuSans-20" transform="scale(0.015625)"/>
       <path d="M 1984 4856 
Q 1566 4138 1362 3434 
Q 1159 2731 1159 2009 
Q 1159 1288 1364 580 
Q 1569 -128 1984 -844 
L 1484 -844 
Q 1016 -109 783 600 
Q 550 1309 550 2009 
Q 550 2706 781 3412 
Q 1013 4119 1484 4856 
L 1984 4856 
z
" id="DejaVuSans-28" transform="scale(0.015625)"/>
       <path d="M 2834 3397 
L 2834 2853 
Q 2591 2978 2328 3040 
Q 2066 3103 1784 3103 
Q 1356 3103 1142 2972 
Q 928 2841 928 2578 
Q 928 2378 1081 2264 
Q 1234 2150 1697 2047 
L 1894 2003 
Q 2506 1872 2764 1633 
Q 3022 1394 3022 966 
Q 3022 478 2636 193 
Q 2250 -91 1575 -91 
Q 1294 -91 989 -36 
Q 684 19 347 128 
L 347 722 
Q 666 556 975 473 
Q 1284 391 1588 391 
Q 1994 391 2212 530 
Q 2431 669 2431 922 
Q 2431 1156 2273 1281 
Q 2116 1406 1581 1522 
L 1381 1569 
Q 847 1681 609 1914 
Q 372 2147 372 2553 
Q 372 3047 722 3315 
Q 1072 3584 1716 3584 
Q 2034 3584 2315 3537 
Q 2597 3491 2834 3397 
z
" id="DejaVuSans-73" transform="scale(0.015625)"/>
       <path d="M 513 4856 
L 1013 4856 
Q 1481 4119 1714 3412 
Q 1947 2706 1947 2009 
Q 1947 1309 1714 600 
Q 1481 -109 1013 -844 
L 513 -844 
Q 928 -128 1133 580 
Q 1338 1288 1338 2009 
Q 1338 2731 1133 3434 
Q 928 4138 513 4856 
z
" id="DejaVuSans-29" transform="scale(0.015625)"/>
      </defs>
      <use xlink:href="#DejaVuSans-74"/>
      <use x="39.208984" xlink:href="#DejaVuSans-69"/>
      <use x="66.992188" xlink:href="#DejaVuSans-6d"/>
      <use x="164.404297" xlink:href="#DejaVuSans-65"/>
      <use x="225.927734" xlink:href="#DejaVuSans-20"/>
      <use x="257.714844" xlink:href="#DejaVuSans-28"/>
      <use x="296.728516" xlink:href="#DejaVuSans-6d"/>
      <use x="394.140625" xlink:href="#DejaVuSans-73"/>
      <use x="446.240234" xlink:href="#DejaVuSans-29"/>
     </g>
    </g>
   </g>
   <g id="matplotlib.axis_2">
    <g id="ytick_1">
     <g id="line2d_7">
      <defs>
       <path d="M 0 0 
L -3.5 0 
" id="mb512e4c92a" style="stroke:#000000;stroke-width:0.8;"/>
      </defs>
      <g>
       <use style="stroke:#000000;stroke-width:0.8;" x="58.523438" xlink:href="#mb512e4c92a" y="230.090346"/>
      </g>
     </g>
     <g id="text_8">
      <!-- −1.00 -->
      <g transform="translate(20.878125 233.889565)scale(0.1 -0.1)">
       <defs>
        <path d="M 678 2272 
L 4684 2272 
L 4684 1741 
L 678 1741 
L 678 2272 
z
" id="DejaVuSans-2212" transform="scale(0.015625)"/>
       </defs>
       <use xlink:href="#DejaVuSans-2212"/>
       <use x="83.789062" xlink:href="#DejaVuSans-31"/>
       <use x="147.412109" xlink:href="#DejaVuSans-2e"/>
       <use x="179.199219" xlink:href="#DejaVuSans-30"/>
       <use x="242.822266" xlink:href="#DejaVuSans-30"/>
      </g>
     </g>
    </g>
    <g id="ytick_2">
     <g id="line2d_8">
      <g>
       <use style="stroke:#000000;stroke-width:0.8;" x="58.523438" xlink:href="#mb512e4c92a" y="203.55576"/>
      </g>
     </g>
     <g id="text_9">
      <!-- −0.75 -->
      <g transform="translate(20.878125 207.354978)scale(0.1 -0.1)">
       <defs>
        <path d="M 525 4666 
L 3525 4666 
L 3525 4397 
L 1831 0 
L 1172 0 
L 2766 4134 
L 525 4134 
L 525 4666 
z
" id="DejaVuSans-37" transform="scale(0.015625)"/>
        <path d="M 691 4666 
L 3169 4666 
L 3169 4134 
L 1269 4134 
L 1269 2991 
Q 1406 3038 1543 3061 
Q 1681 3084 1819 3084 
Q 2600 3084 3056 2656 
Q 3513 2228 3513 1497 
Q 3513 744 3044 326 
Q 2575 -91 1722 -91 
Q 1428 -91 1123 -41 
Q 819 9 494 109 
L 494 744 
Q 775 591 1075 516 
Q 1375 441 1709 441 
Q 2250 441 2565 725 
Q 2881 1009 2881 1497 
Q 2881 1984 2565 2268 
Q 2250 2553 1709 2553 
Q 1456 2553 1204 2497 
Q 953 2441 691 2322 
L 691 4666 
z
" id="DejaVuSans-35" transform="scale(0.015625)"/>
       </defs>
       <use xlink:href="#DejaVuSans-2212"/>
       <use x="83.789062" xlink:href="#DejaVuSans-30"/>
       <use x="147.412109" xlink:href="#DejaVuSans-2e"/>
       <use x="179.199219" xlink:href="#DejaVuSans-37"/>
       <use x="242.822266" xlink:href="#DejaVuSans-35"/>
      </g>
     </g>
    </g>
    <g id="ytick_3">
     <g id="line2d_9">
      <g>
       <use style="stroke:#000000;stroke-width:0.8;" x="58.523438" xlink:href="#mb512e4c92a" y="177.021173"/>
      </g>
     </g>
     <g id="text_10">
      <!-- −0.50 -->
      <g transform="translate(20.878125 180.820392)scale(0.1 -0.1)">
       <use xlink:href="#DejaVuSans-2212"/>
       <use x="83.789062" xlink:href="#DejaVuSans-30"/>
       <use x="147.412109" xlink:href="#DejaVuSans-2e"/>
       <use x="179.199219" xlink:href="#DejaVuSans-35"/>
       <use x="242.822266" xlink:href="#DejaVuSans-30"/>
      </g>
     </g>
    </g>
    <g id="ytick_4">
     <g id="line2d_10">
      <g>
       <use style="stroke:#000000;stroke-width:0.8;" x="58.523438" xlink:href="#mb512e4c92a" y="150.486587"/>
      </g>
     </g>
     <g id="text_11">
      <!-- −0.25 -->
      <g transform="translate(20.878125 154.285805)scale(0.1 -0.1)">
       <use xlink:href="#DejaVuSans-2212"/>
       <use x="83.789062" xlink:href="#DejaVuSans-30"/>
       <use x="147.412109" xlink:href="#DejaVuSans-2e"/>
       <use x="179.199219" xlink:href="#DejaVuSans-32"/>
       <use x="242.822266" xlink:href="#DejaVuSans-35"/>
      </g>
     </g>
    </g>
    <g id="ytick_5">
     <g id="line2d_11">
      <g>
       <use style="stroke:#000000;stroke-width:0.8;" x="58.523438" xlink:href="#mb512e4c92a" y="123.952"/>
      </g>
     </g>
     <g id="text_12">
      <!-- 0.00 -->
      <g transform="translate(29.257813 127.751219)scale(0.1 -0.1)">
       <use xlink:href="#DejaVuSans-30"/>
       <use x="63.623047" xlink:href="#DejaVuSans-2e"/>
       <use x="95.410156" xlink:href="#DejaVuSans-30"/>
       <use x="159.033203" xlink:href="#DejaVuSans-30"/>
      </g>
     </g>
    </g>
    <g id="ytick_6">
     <g id="line2d_12">
      <g>
       <use style="stroke:#000000;stroke-width:0.8;" x="58.523438" xlink:href="#mb512e4c92a" y="97.417413"/>
      </g>
     </g>
     <g id="text_13">
      <!-- 0.25 -->
      <g transform="translate(29.257813 101.216632)scale(0.1 -0.1)">
       <use xlink:href="#DejaVuSans-30"/>
       <use x="63.623047" xlink:href="#DejaVuSans-2e"/>
       <use x="95.410156" xlink:href="#DejaVuSans-32"/>
       <use x="159.033203" xlink:href="#DejaVuSans-35"/>
      </g>
     </g>
    </g>
    <g id="ytick_7">
     <g id="line2d_13">
      <g>
       <use style="stroke:#000000;stroke-width:0.8;" x="58.523438" xlink:href="#mb512e4c92a" y="70.882827"/>
      </g>
     </g>
     <g id="text_14">
      <!-- 0.50 -->
      <g transform="translate(29.257813 74.682046)scale(0.1 -0.1)">
       <use xlink:href="#DejaVuSans-30"/>
       <use x="63.623047" xlink:href="#DejaVuSans-2e"/>
       <use x="95.410156" xlink:href="#DejaVuSans-35"/>
       <use x="159.033203" xlink:href="#DejaVuSans-30"/>
      </g>
     </g>
    </g>
    <g id="ytick_8">
     <g id="line2d_14">
      <g>
       <use style="stroke:#000000;stroke-width:0.8;" x="58.523438" xlink:href="#mb512e4c92a" y="44.34824"/>
      </g>
     </g>
     <g id="text_15">
      <!-- 0.75 -->
      <g transform="translate(29.257813 48.147459)scale(0.1 -0.1)">
       <use xlink:href="#DejaVuSans-30"/>
       <use x="63.623047" xlink:href="#DejaVuSans-2e"/>
       <use x="95.410156" xlink:href="#DejaVuSans-37"/>
       <use x="159.033203" xlink:href="#DejaVuSans-35"/>
      </g>
     </g>
    </g>
    <g id="ytick_9">
     <g id="line2d_15">
      <g>
       <use style="stroke:#000000;stroke-width:0.8;" x="58.523438" xlink:href="#mb512e4c92a" y="17.813654"/>
      </g>
     </g>
     <g id="text_16">
      <!-- 1.00 -->
      <g transform="translate(29.257813 21.612873)scale(0.1 -0.1)">
       <use xlink:href="#DejaVuSans-31"/>
       <use x="63.623047" xlink:href="#DejaVuSans-2e"/>
       <use x="95.410156" xlink:href="#DejaVuSans-30"/>
       <use x="159.033203" xlink:href="#DejaVuSans-30"/>
      </g>
     </g>
    </g>
    <g id="text_17">
     <!-- IN [V] -->
     <g transform="translate(14.798438 138.078563)rotate(-90)scale(0.1 -0.1)">
      <defs>
       <path d="M 628 4666 
L 1259 4666 
L 1259 0 
L 628 0 
L 628 4666 
z
" id="DejaVuSans-49" transform="scale(0.015625)"/>
       <path d="M 628 4666 
L 1478 4666 
L 3547 763 
L 3547 4666 
L 4159 4666 
L 4159 0 
L 3309 0 
L 1241 3903 
L 1241 0 
L 628 0 
L 628 4666 
z
" id="DejaVuSans-4e" transform="scale(0.015625)"/>
       <path d="M 550 4863 
L 1875 4863 
L 1875 4416 
L 1125 4416 
L 1125 -397 
L 1875 -397 
L 1875 -844 
L 550 -844 
L 550 4863 
z
" id="DejaVuSans-5b" transform="scale(0.015625)"/>
       <path d="M 1831 0 
L 50 4666 
L 709 4666 
L 2188 738 
L 3669 4666 
L 4325 4666 
L 2547 0 
L 1831 0 
z
" id="DejaVuSans-56" transform="scale(0.015625)"/>
       <path d="M 1947 4863 
L 1947 -844 
L 622 -844 
L 622 -397 
L 1369 -397 
L 1369 4416 
L 622 4416 
L 622 4863 
L 1947 4863 
z
" id="DejaVuSans-5d" transform="scale(0.015625)"/>
      </defs>
      <use xlink:href="#DejaVuSans-49"/>
      <use x="29.492188" xlink:href="#DejaVuSans-4e"/>
      <use x="104.296875" xlink:href="#DejaVuSans-20"/>
      <use x="136.083984" xlink:href="#DejaVuSans-5b"/>
      <use x="175.097656" xlink:href="#DejaVuSans-56"/>
      <use x="243.505859" xlink:href="#DejaVuSans-5d"/>
     </g>
    </g>
   </g>
   <g id="line2d_16">
    <path clip-path="url(#p789c2b3ad2)" d="M 74.559938 123.952 
L 86.837482 98.668995 
L 93.572812 85.326707 
L 99.025222 75.007189 
L 103.836172 66.361346 
L 108.326392 58.751615 
L 112.495882 52.135689 
L 116.344642 46.452771 
L 119.872672 41.629535 
L 123.400702 37.199387 
L 126.608002 33.530928 
L 129.815302 30.21932 
L 132.701872 27.554811 
L 135.588442 25.198475 
L 138.154282 23.368779 
L 140.720122 21.793164 
L 143.285962 20.475612 
L 145.851802 19.41945 
L 148.417642 18.627346 
L 150.662752 18.152455 
L 152.907862 17.882194 
L 155.152972 17.817086 
L 157.398082 17.957257 
L 159.643192 18.302436 
L 161.888302 18.851954 
L 164.454142 19.728807 
L 167.019982 20.868936 
L 169.585822 22.269461 
L 172.151662 23.926846 
L 174.717502 25.836903 
L 177.604072 28.281707 
L 180.490642 31.032359 
L 183.377212 34.080067 
L 186.584512 37.802924 
L 189.791812 41.865772 
L 193.319842 46.70842 
L 196.847872 51.919904 
L 200.696632 57.996532 
L 204.866122 65.00133 
L 209.356342 72.983172 
L 214.488022 82.584144 
L 220.261162 93.879557 
L 227.317222 108.191938 
L 252.654892 160.080716 
L 258.428032 171.112982 
L 263.238982 179.851985 
L 267.729202 187.562223 
L 271.898692 194.282506 
L 275.747452 200.070564 
L 279.275482 204.997085 
L 282.803512 209.536618 
L 286.010812 213.309372 
L 289.218112 216.729473 
L 292.104682 219.49486 
L 294.991252 221.954806 
L 297.877822 224.101448 
L 300.443662 225.740981 
L 303.009502 227.123387 
L 305.575342 228.245172 
L 308.141182 229.103504 
L 310.386292 229.636709 
L 312.631402 229.965507 
L 314.876512 230.08926 
L 317.121622 230.00773 
L 319.366732 229.721074 
L 321.611842 229.229847 
L 323.856952 228.534999 
L 326.422792 227.493297 
L 328.988632 226.190041 
L 331.554472 224.628522 
L 334.120312 222.812686 
L 337.006882 220.471617 
L 339.893452 217.821985 
L 342.780022 214.87226 
L 345.987322 211.254327 
L 349.194622 207.291853 
L 352.722652 202.553887 
L 356.250682 197.440599 
L 360.099442 191.463147 
L 364.268932 184.555797 
L 368.759152 176.666555 
L 373.570102 167.763128 
L 379.022512 157.206873 
L 385.757842 143.656891 
L 395.289937 123.952 
L 395.289937 123.952 
" style="fill:none;stroke:#0000ff;stroke-linecap:square;stroke-width:1.5;"/>
   </g>
   <g id="line2d_17">
    <path clip-path="url(#p789c2b3ad2)" d="M 74.559938 123.952 
L 78.819232 124.069581 
L 80.743612 124.267827 
L 81.705802 124.141993 
L 82.667992 123.742308 
L 83.630182 122.995639 
L 84.592372 121.838538 
L 85.554562 120.215683 
L 86.516752 118.079174 
L 87.478942 115.387944 
L 88.441132 112.107252 
L 89.724052 106.766988 
L 91.006972 100.27494 
L 92.289892 92.594429 
L 93.572812 83.704771 
L 95.176462 70.887045 
L 96.780112 56.204485 
L 98.704492 36.253044 
L 99.666682 25.984699 
L 99.987412 24.284381 
L 100.308142 23.670007 
L 100.949602 23.23574 
L 101.911792 23.030651 
L 104.798362 22.76171 
L 110.250772 22.511474 
L 120.193402 22.303548 
L 138.154282 22.174523 
L 167.661442 22.198087 
L 192.678382 22.412488 
L 205.186852 22.713059 
L 211.922182 23.07009 
L 216.091672 23.502385 
L 218.657512 23.984337 
L 220.261162 24.488881 
L 221.223352 24.953477 
L 222.185542 25.674584 
L 222.827002 26.454676 
L 223.468462 27.666826 
L 224.430652 30.073463 
L 225.713572 33.997485 
L 231.486712 53.519228 
L 233.411092 60.682767 
L 235.335472 68.727025 
L 237.901312 80.600439 
L 240.467152 92.410289 
L 244.315912 108.516657 
L 245.598832 115.288756 
L 247.202482 125.148684 
L 248.806132 136.663597 
L 250.409782 149.895875 
L 252.013432 164.864225 
L 253.937812 185.06203 
L 254.900002 195.359505 
L 255.220732 196.82181 
L 255.541462 197.214183 
L 256.182922 197.512875 
L 257.465842 197.683989 
L 261.314602 197.869299 
L 270.295042 198.035071 
L 290.180302 198.14212 
L 332.195932 198.118441 
L 364.910392 197.922201 
L 377.098132 197.661028 
L 382.871272 197.341386 
L 386.078572 196.956588 
L 388.002952 196.50627 
L 389.285872 195.952607 
L 389.927332 195.494565 
L 390.568792 194.76676 
L 391.530982 193.101411 
L 393.134632 189.702202 
L 395.289937 185.009511 
L 395.289937 185.009511 
" style="fill:none;stroke:#ff0000;stroke-linecap:square;stroke-width:1.5;"/>
   </g>
   <g id="line2d_18">
    <path clip-path="url(#p789c2b3ad2)" d="M 74.559938 123.952 
L 78.498502 124.06388 
L 80.422882 124.288109 
L 81.064342 124.192493 
L 81.705802 123.932121 
L 82.347262 123.46376 
L 82.988722 122.746005 
L 83.630182 121.739019 
L 84.271642 120.404677 
L 85.233832 117.710758 
L 86.196022 114.086243 
L 87.158212 109.429771 
L 88.120402 103.652445 
L 89.082592 96.678407 
L 90.365512 85.412717 
L 91.648432 71.804406 
L 92.931352 55.803041 
L 94.535002 32.500808 
L 94.855732 27.637421 
L 95.176462 24.537531 
L 95.497192 23.541519 
L 95.817922 23.184734 
L 96.459382 22.915219 
L 98.063032 22.668306 
L 101.591062 22.398519 
L 108.005662 22.173355 
L 120.193402 22.01382 
L 145.531072 21.947095 
L 188.829622 22.058855 
L 210.959992 22.298203 
L 219.940432 22.58971 
L 224.430652 22.925185 
L 226.996492 23.297212 
L 228.600142 23.699336 
L 229.883062 24.237807 
L 230.845252 24.924961 
L 231.486712 25.679398 
L 232.128172 26.946028 
L 233.411092 30.603807 
L 234.694012 34.674597 
L 235.976932 39.604314 
L 237.259852 45.608928 
L 238.542772 52.683532 
L 240.146422 62.756838 
L 243.032992 81.303613 
L 244.315912 89.152846 
L 245.598832 98.52923 
L 246.881752 109.929404 
L 248.164672 123.592598 
L 249.447592 139.632158 
L 251.051242 163.058548 
L 252.975622 194.980535 
L 253.296352 197.111762 
L 253.937812 197.655332 
L 255.541462 197.877027 
L 259.390222 198.053447 
L 268.049932 198.193042 
L 290.180302 198.268752 
L 348.553162 198.205206 
L 379.343242 198.011178 
L 388.323682 197.772151 
L 392.493172 197.466551 
L 394.738282 197.10393 
L 395.289937 196.963833 
L 395.289937 196.963833 
" style="fill:none;stroke:#1f77b4;stroke-linecap:square;stroke-width:1.5;"/>
   </g>
   <g id="line2d_19">
    <path clip-path="url(#p789c2b3ad2)" d="M 74.559938 123.952 
L 78.177772 124.044621 
L 80.102152 124.309686 
L 80.743612 124.195977 
L 81.385072 123.861024 
L 82.026532 123.231781 
L 82.667992 122.233466 
L 83.309452 120.789509 
L 83.950912 118.822246 
L 84.592372 116.2538 
L 85.233832 113.00698 
L 86.196022 106.699964 
L 87.158212 98.452728 
L 88.120402 88.040029 
L 89.082592 75.263952 
L 90.044782 59.967026 
L 91.327702 35.516768 
L 91.648432 28.807174 
L 91.969162 24.500225 
L 92.289892 23.314666 
L 92.610622 22.974587 
L 93.252082 22.715802 
L 94.855732 22.467087 
L 98.383762 22.193991 
L 104.477632 21.989251 
L 117.627562 21.827504 
L 222.185542 22.051488 
L 236.297662 22.234629 
L 242.391532 22.487272 
L 244.957372 22.786116 
L 246.240292 23.097173 
L 247.202482 23.534112 
L 247.843942 24.070373 
L 248.164672 24.502974 
L 248.485402 25.16029 
L 248.806132 26.275376 
L 249.447592 30.103942 
L 250.409782 38.375389 
L 252.013432 54.40643 
L 252.654892 62.66508 
L 253.617082 78.794786 
L 254.579272 99.866957 
L 255.541462 126.048791 
L 256.824382 168.623044 
L 257.465842 192.285248 
L 257.786572 197.437085 
L 258.107302 197.610046 
L 258.428032 197.976475 
L 258.748762 197.929918 
L 259.069492 198.045699 
L 260.031682 198.08546 
L 261.956062 198.177809 
L 267.729202 198.289356 
L 282.162052 198.351872 
L 385.437112 198.24371 
L 395.289937 198.196012 
L 395.289937 198.196012 
" style="fill:none;stroke:#ff7f0e;stroke-linecap:square;stroke-width:1.5;"/>
   </g>
   <g id="line2d_20">
    <path clip-path="url(#p789c2b3ad2)" d="M 74.559938 123.952 
L 78.177772 124.051659 
L 80.102152 124.311037 
L 80.743612 124.171508 
L 81.385072 123.78681 
L 82.026532 123.074352 
L 82.667992 121.948065 
L 83.309452 120.318463 
L 83.950912 118.093502 
L 84.592372 115.179654 
L 85.233832 111.483028 
L 86.196022 104.267194 
L 87.158212 94.776389 
L 88.120402 82.726193 
L 89.082592 67.866603 
L 90.044782 50.008537 
L 91.327702 24.512775 
L 91.648432 23.264484 
L 91.969162 22.931955 
L 92.610622 22.674502 
L 94.214272 22.42544 
L 97.742302 22.15381 
L 103.836172 21.955375 
L 116.023912 21.822559 
L 240.146422 22.15061 
L 247.843942 22.35514 
L 250.730512 22.618096 
L 252.334162 22.987548 
L 252.975622 23.279527 
L 253.617082 23.797418 
L 253.937812 24.242763 
L 254.258542 24.969114 
L 254.579272 26.313701 
L 255.220732 31.015554 
L 256.503652 43.64263 
L 257.145112 51.788956 
L 257.786572 62.919233 
L 258.428032 77.426567 
L 259.390222 105.970227 
L 260.352412 142.749078 
L 261.635332 196.497317 
L 261.956062 197.822109 
L 263.880442 198.14748 
L 284.727892 198.408464 
L 395.289937 198.25146 
L 395.289937 198.25146 
" style="fill:none;stroke:#2ca02c;stroke-linecap:square;stroke-width:1.5;"/>
   </g>
   <g id="patch_3">
    <path d="M 58.523438 240.704 
L 58.523438 7.2 
" style="fill:none;stroke:#000000;stroke-linecap:square;stroke-linejoin:miter;stroke-width:0.8;"/>
   </g>
   <g id="patch_4">
    <path d="M 411.326437 240.704 
L 411.326437 7.2 
" style="fill:none;stroke:#000000;stroke-linecap:square;stroke-linejoin:miter;stroke-width:0.8;"/>
   </g>
   <g id="patch_5">
    <path d="M 58.523438 240.704 
L 411.326437 240.704 
" style="fill:none;stroke:#000000;stroke-linecap:square;stroke-linejoin:miter;stroke-width:0.8;"/>
   </g>
   <g id="patch_6">
    <path d="M 58.523438 7.2 
L 411.326437 7.2 
" style="fill:none;stroke:#000000;stroke-linecap:square;stroke-linejoin:miter;stroke-width:0.8;"/>
   </g>
   <g id="legend_1">
    <g id="patch_7">
     <path d="M 286.317357 88.9264 
L 409.129857 88.9264 
Q 411.129857 88.9264 411.129857 86.9264 
L 411.129857 14.535775 
Q 411.129857 12.535775 409.129857 12.535775 
L 286.317357 12.535775 
Q 284.317357 12.535775 284.317357 14.535775 
L 284.317357 86.9264 
Q 284.317357 88.9264 286.317357 88.9264 
z
" style="fill:#ffffff;opacity:0.8;stroke:#cccccc;stroke-linejoin:miter;"/>
    </g>
    <g id="line2d_21">
     <path d="M 288.317357 20.634212 
L 308.317357 20.634212 
" style="fill:none;stroke:#0000ff;stroke-linecap:square;stroke-width:1.5;"/>
    </g>
    <g id="line2d_22"/>
    <g id="text_18">
     <!-- Vin [V] -->
     <g transform="translate(316.317357 24.134212)scale(0.1 -0.1)">
      <defs>
       <path d="M 3513 2113 
L 3513 0 
L 2938 0 
L 2938 2094 
Q 2938 2591 2744 2837 
Q 2550 3084 2163 3084 
Q 1697 3084 1428 2787 
Q 1159 2491 1159 1978 
L 1159 0 
L 581 0 
L 581 3500 
L 1159 3500 
L 1159 2956 
Q 1366 3272 1645 3428 
Q 1925 3584 2291 3584 
Q 2894 3584 3203 3211 
Q 3513 2838 3513 2113 
z
" id="DejaVuSans-6e" transform="scale(0.015625)"/>
      </defs>
      <use xlink:href="#DejaVuSans-56"/>
      <use x="66.158203" xlink:href="#DejaVuSans-69"/>
      <use x="93.941406" xlink:href="#DejaVuSans-6e"/>
      <use x="157.320312" xlink:href="#DejaVuSans-20"/>
      <use x="189.107422" xlink:href="#DejaVuSans-5b"/>
      <use x="228.121094" xlink:href="#DejaVuSans-56"/>
      <use x="296.529297" xlink:href="#DejaVuSans-5d"/>
     </g>
    </g>
    <g id="line2d_23">
     <path d="M 288.317357 35.312337 
L 308.317357 35.312337 
" style="fill:none;stroke:#ff0000;stroke-linecap:square;stroke-width:1.5;"/>
    </g>
    <g id="line2d_24"/>
    <g id="text_19">
     <!-- Vout (R4=100 kΩ) -->
     <g transform="translate(316.317357 38.812337)scale(0.1 -0.1)">
      <defs>
       <path d="M 1959 3097 
Q 1497 3097 1228 2736 
Q 959 2375 959 1747 
Q 959 1119 1226 758 
Q 1494 397 1959 397 
Q 2419 397 2687 759 
Q 2956 1122 2956 1747 
Q 2956 2369 2687 2733 
Q 2419 3097 1959 3097 
z
M 1959 3584 
Q 2709 3584 3137 3096 
Q 3566 2609 3566 1747 
Q 3566 888 3137 398 
Q 2709 -91 1959 -91 
Q 1206 -91 779 398 
Q 353 888 353 1747 
Q 353 2609 779 3096 
Q 1206 3584 1959 3584 
z
" id="DejaVuSans-6f" transform="scale(0.015625)"/>
       <path d="M 544 1381 
L 544 3500 
L 1119 3500 
L 1119 1403 
Q 1119 906 1312 657 
Q 1506 409 1894 409 
Q 2359 409 2629 706 
Q 2900 1003 2900 1516 
L 2900 3500 
L 3475 3500 
L 3475 0 
L 2900 0 
L 2900 538 
Q 2691 219 2414 64 
Q 2138 -91 1772 -91 
Q 1169 -91 856 284 
Q 544 659 544 1381 
z
M 1991 3584 
L 1991 3584 
z
" id="DejaVuSans-75" transform="scale(0.015625)"/>
       <path d="M 2841 2188 
Q 3044 2119 3236 1894 
Q 3428 1669 3622 1275 
L 4263 0 
L 3584 0 
L 2988 1197 
Q 2756 1666 2539 1819 
Q 2322 1972 1947 1972 
L 1259 1972 
L 1259 0 
L 628 0 
L 628 4666 
L 2053 4666 
Q 2853 4666 3247 4331 
Q 3641 3997 3641 3322 
Q 3641 2881 3436 2590 
Q 3231 2300 2841 2188 
z
M 1259 4147 
L 1259 2491 
L 2053 2491 
Q 2509 2491 2742 2702 
Q 2975 2913 2975 3322 
Q 2975 3731 2742 3939 
Q 2509 4147 2053 4147 
L 1259 4147 
z
" id="DejaVuSans-52" transform="scale(0.015625)"/>
       <path d="M 678 2906 
L 4684 2906 
L 4684 2381 
L 678 2381 
L 678 2906 
z
M 678 1631 
L 4684 1631 
L 4684 1100 
L 678 1100 
L 678 1631 
z
" id="DejaVuSans-3d" transform="scale(0.015625)"/>
       <path d="M 581 4863 
L 1159 4863 
L 1159 1991 
L 2875 3500 
L 3609 3500 
L 1753 1863 
L 3688 0 
L 2938 0 
L 1159 1709 
L 1159 0 
L 581 0 
L 581 4863 
z
" id="DejaVuSans-6b" transform="scale(0.015625)"/>
       <path d="M 4647 556 
L 4647 0 
L 2772 0 
L 2772 556 
Q 3325 859 3634 1378 
Q 3944 1897 3944 2528 
Q 3944 3278 3531 3731 
Q 3119 4184 2444 4184 
Q 1769 4184 1355 3729 
Q 941 3275 941 2528 
Q 941 1897 1250 1378 
Q 1563 859 2119 556 
L 2119 0 
L 244 0 
L 244 556 
L 1241 556 
Q 747 991 519 1456 
Q 294 1922 294 2497 
Q 294 3491 894 4106 
Q 1491 4722 2444 4722 
Q 3391 4722 3994 4106 
Q 4594 3494 4594 2528 
Q 4594 1922 4372 1459 
Q 4150 997 3647 556 
L 4647 556 
z
" id="DejaVuSans-3a9" transform="scale(0.015625)"/>
      </defs>
      <use xlink:href="#DejaVuSans-56"/>
      <use x="60.658203" xlink:href="#DejaVuSans-6f"/>
      <use x="121.839844" xlink:href="#DejaVuSans-75"/>
      <use x="185.21875" xlink:href="#DejaVuSans-74"/>
      <use x="224.427734" xlink:href="#DejaVuSans-20"/>
      <use x="256.214844" xlink:href="#DejaVuSans-28"/>
      <use x="295.228516" xlink:href="#DejaVuSans-52"/>
      <use x="364.710938" xlink:href="#DejaVuSans-34"/>
      <use x="428.333984" xlink:href="#DejaVuSans-3d"/>
      <use x="512.123047" xlink:href="#DejaVuSans-31"/>
      <use x="575.746094" xlink:href="#DejaVuSans-30"/>
      <use x="639.369141" xlink:href="#DejaVuSans-30"/>
      <use x="702.992188" xlink:href="#DejaVuSans-20"/>
      <use x="734.779297" xlink:href="#DejaVuSans-6b"/>
      <use x="792.689453" xlink:href="#DejaVuSans-3a9"/>
      <use x="869.105469" xlink:href="#DejaVuSans-29"/>
     </g>
    </g>
    <g id="line2d_25">
     <path d="M 288.317357 49.990462 
L 308.317357 49.990462 
" style="fill:none;stroke:#1f77b4;stroke-linecap:square;stroke-width:1.5;"/>
    </g>
    <g id="line2d_26"/>
    <g id="text_20">
     <!-- Vout (R4=500 kΩ) -->
     <g transform="translate(316.317357 53.490462)scale(0.1 -0.1)">
      <use xlink:href="#DejaVuSans-56"/>
      <use x="60.658203" xlink:href="#DejaVuSans-6f"/>
      <use x="121.839844" xlink:href="#DejaVuSans-75"/>
      <use x="185.21875" xlink:href="#DejaVuSans-74"/>
      <use x="224.427734" xlink:href="#DejaVuSans-20"/>
      <use x="256.214844" xlink:href="#DejaVuSans-28"/>
      <use x="295.228516" xlink:href="#DejaVuSans-52"/>
      <use x="364.710938" xlink:href="#DejaVuSans-34"/>
      <use x="428.333984" xlink:href="#DejaVuSans-3d"/>
      <use x="512.123047" xlink:href="#DejaVuSans-35"/>
      <use x="575.746094" xlink:href="#DejaVuSans-30"/>
      <use x="639.369141" xlink:href="#DejaVuSans-30"/>
      <use x="702.992188" xlink:href="#DejaVuSans-20"/>
      <use x="734.779297" xlink:href="#DejaVuSans-6b"/>
      <use x="792.689453" xlink:href="#DejaVuSans-3a9"/>
      <use x="869.105469" xlink:href="#DejaVuSans-29"/>
     </g>
    </g>
    <g id="line2d_27">
     <path d="M 288.317357 64.668588 
L 308.317357 64.668588 
" style="fill:none;stroke:#ff7f0e;stroke-linecap:square;stroke-width:1.5;"/>
    </g>
    <g id="line2d_28"/>
    <g id="text_21">
     <!-- Vout (R4=1 MΩ) -->
     <g transform="translate(316.317357 68.168588)scale(0.1 -0.1)">
      <defs>
       <path d="M 628 4666 
L 1569 4666 
L 2759 1491 
L 3956 4666 
L 4897 4666 
L 4897 0 
L 4281 0 
L 4281 4097 
L 3078 897 
L 2444 897 
L 1241 4097 
L 1241 0 
L 628 0 
L 628 4666 
z
" id="DejaVuSans-4d" transform="scale(0.015625)"/>
      </defs>
      <use xlink:href="#DejaVuSans-56"/>
      <use x="60.658203" xlink:href="#DejaVuSans-6f"/>
      <use x="121.839844" xlink:href="#DejaVuSans-75"/>
      <use x="185.21875" xlink:href="#DejaVuSans-74"/>
      <use x="224.427734" xlink:href="#DejaVuSans-20"/>
      <use x="256.214844" xlink:href="#DejaVuSans-28"/>
      <use x="295.228516" xlink:href="#DejaVuSans-52"/>
      <use x="364.710938" xlink:href="#DejaVuSans-34"/>
      <use x="428.333984" xlink:href="#DejaVuSans-3d"/>
      <use x="512.123047" xlink:href="#DejaVuSans-31"/>
      <use x="575.746094" xlink:href="#DejaVuSans-20"/>
      <use x="607.533203" xlink:href="#DejaVuSans-4d"/>
      <use x="693.8125" xlink:href="#DejaVuSans-3a9"/>
      <use x="770.228516" xlink:href="#DejaVuSans-29"/>
     </g>
    </g>
    <g id="line2d_29">
     <path d="M 288.317357 79.346712 
L 308.317357 79.346712 
" style="fill:none;stroke:#2ca02c;stroke-linecap:square;stroke-width:1.5;"/>
    </g>
    <g id="line2d_30"/>
    <g id="text_22">
     <!-- Vout (R4=10 MΩ) -->
     <g transform="translate(316.317357 82.846712)scale(0.1 -0.1)">
      <use xlink:href="#DejaVuSans-56"/>
      <use x="60.658203" xlink:href="#DejaVuSans-6f"/>
      <use x="121.839844" xlink:href="#DejaVuSans-75"/>
      <use x="185.21875" xlink:href="#DejaVuSans-74"/>
      <use x="224.427734" xlink:href="#DejaVuSans-20"/>
      <use x="256.214844" xlink:href="#DejaVuSans-28"/>
      <use x="295.228516" xlink:href="#DejaVuSans-52"/>
      <use x="364.710938" xlink:href="#DejaVuSans-34"/>
      <use x="428.333984" xlink:href="#DejaVuSans-3d"/>
      <use x="512.123047" xlink:href="#DejaVuSans-31"/>
      <use x="575.746094" xlink:href="#DejaVuSans-30"/>
      <use x="639.369141" xlink:href="#DejaVuSans-20"/>
      <use x="671.15625" xlink:href="#DejaVuSans-4d"/>
      <use x="757.435547" xlink:href="#DejaVuSans-3a9"/>
      <use x="833.851562" xlink:href="#DejaVuSans-29"/>
     </g>
    </g>
   </g>
  </g>
 </g>
 <defs>
  <clipPath id="p789c2b3ad2">
   <rect height="233.504" width="352.803" x="58.523438" y="7.2"/>
  </clipPath>
 </defs>
</svg>
