<?xml version="1.0" encoding="utf-8" standalone="no"?>
<!DOCTYPE svg PUBLIC "-//W3C//DTD SVG 1.1//EN"
  "http://www.w3.org/Graphics/SVG/1.1/DTD/svg11.dtd">
<!-- Created with matplotlib (https://matplotlib.org/) -->
<svg height="310.234pt" version="1.1" viewBox="0 0 669.6276 310.234" width="669.6276pt" xmlns="http://www.w3.org/2000/svg" xmlns:xlink="http://www.w3.org/1999/xlink">
 <metadata>
  <rdf:RDF xmlns:cc="http://creativecommons.org/ns#" xmlns:dc="http://purl.org/dc/elements/1.1/" xmlns:rdf="http://www.w3.org/1999/02/22-rdf-syntax-ns#">
   <cc:Work>
    <dc:type rdf:resource="http://purl.org/dc/dcmitype/StillImage"/>
    <dc:date>2021-02-24T16:56:33.375216</dc:date>
    <dc:format>image/svg+xml</dc:format>
    <dc:creator>
     <cc:Agent>
      <dc:title>Matplotlib v3.3.4, https://matplotlib.org/</dc:title>
     </cc:Agent>
    </dc:creator>
   </cc:Work>
  </rdf:RDF>
 </metadata>
 <defs>
  <style type="text/css">*{stroke-linecap:butt;stroke-linejoin:round;}</style>
 </defs>
 <g id="figure_1">
  <g id="patch_1">
   <path d="M 0 310.234 
L 669.6276 310.234 
L 669.6276 0 
L 0 0 
z
" style="fill:none;"/>
  </g>
  <g id="axes_1">
   <g id="patch_2">
    <path clip-path="url(#pa9d8068af8)" d="M 294.1668 207.562 
C 295.140626 207.562 296.074697 207.175095 296.763296 206.486496 
C 297.451895 205.797897 297.8388 204.863826 297.8388 203.89 
C 297.8388 202.916174 297.451895 201.982103 296.763296 201.293504 
C 296.074697 200.604905 295.140626 200.218 294.1668 200.218 
C 293.192974 200.218 292.258903 200.604905 291.570304 201.293504 
C 290.881705 201.982103 290.4948 202.916174 290.4948 203.89 
C 290.4948 204.863826 290.881705 205.797897 291.570304 206.486496 
C 292.258903 207.175095 293.192974 207.562 294.1668 207.562 
z
" style="fill:none;stroke:#000000;stroke-linejoin:miter;stroke-width:0.9;"/>
   </g>
   <g id="patch_3">
    <path clip-path="url(#pa9d8068af8)" d="M 485.4168 207.562 
C 486.390626 207.562 487.324697 207.175095 488.013296 206.486496 
C 488.701895 205.797897 489.0888 204.863826 489.0888 203.89 
C 489.0888 202.916174 488.701895 201.982103 488.013296 201.293504 
C 487.324697 200.604905 486.390626 200.218 485.4168 200.218 
C 484.442974 200.218 483.508903 200.604905 482.820304 201.293504 
C 482.131705 201.982103 481.7448 202.916174 481.7448 203.89 
C 481.7448 204.863826 482.131705 205.797897 482.820304 206.486496 
C 483.508903 207.175095 484.442974 207.562 485.4168 207.562 
z
" style="fill:none;stroke:#000000;stroke-linejoin:miter;stroke-width:0.9;"/>
   </g>
   <g id="patch_4">
    <path clip-path="url(#pa9d8068af8)" d="M 317.1168 58.54 
L 319.4118 66.19 
L 317.1321 66.19 
L 317.1321 72.922 
L 317.1015 72.922 
L 317.1015 66.19 
L 314.8218 66.19 
z
" style="stroke:#000000;stroke-linejoin:miter;stroke-width:0.9;"/>
   </g>
   <g id="line2d_1">
    <path clip-path="url(#pa9d8068af8)" d="M 30.2418 203.89 
L 39.8043 203.89 
L 49.3668 203.89 
" style="fill:none;stroke:#000000;stroke-linecap:round;stroke-width:0.9;"/>
   </g>
   <g id="line2d_2">
    <path clip-path="url(#pa9d8068af8)" d="M 49.3668 203.89 
L 49.3668 226.84 
L 57.0168 229.39 
L 41.7168 234.49 
L 57.0168 239.59 
L 41.7168 244.69 
L 57.0168 249.79 
L 41.7168 254.89 
L 49.3668 257.44 
L 49.3668 280.39 
" style="fill:none;stroke:#000000;stroke-linecap:round;stroke-width:0.9;"/>
   </g>
   <g id="line2d_3">
    <path clip-path="url(#pa9d8068af8)" d="M 49.3668 280.39 
L 49.3668 292.63 
L 41.7168 292.63 
L 57.0168 292.63 
M 44.0118 296.302 
L 54.7218 296.302 
M 47.8368 299.974 
L 50.8968 299.974 
" style="fill:none;stroke:#000000;stroke-linecap:round;stroke-width:0.9;"/>
   </g>
   <g id="line2d_4">
    <path clip-path="url(#pa9d8068af8)" d="M 49.3668 203.89 
L 72.3168 203.89 
L 74.8668 196.24 
L 79.9668 211.54 
L 85.0668 196.24 
L 90.1668 211.54 
L 95.2668 196.24 
L 100.3668 211.54 
L 102.9168 203.89 
L 125.8668 203.89 
" style="fill:none;stroke:#000000;stroke-linecap:round;stroke-width:0.9;"/>
   </g>
   <g id="line2d_5">
    <path clip-path="url(#pa9d8068af8)" d="M 125.8668 203.89 
L 161.3628 203.89 
M 161.3628 196.24 
L 161.3628 211.54 
M 166.8708 196.24 
L 166.8708 211.54 
M 166.8708 203.89 
L 202.3668 203.89 
" style="fill:none;stroke:#000000;stroke-linecap:round;stroke-width:0.9;"/>
   </g>
   <g id="line2d_6">
    <path clip-path="url(#pa9d8068af8)" d="M 202.3668 203.89 
L 221.4918 203.89 
L 240.6168 203.89 
" style="fill:none;stroke:#000000;stroke-linecap:round;stroke-width:0.9;"/>
   </g>
   <g id="line2d_7">
    <path clip-path="url(#pa9d8068af8)" d="M 240.6168 203.89 
L 259.8948 203.89 
L 270.6048 203.89 
M 297.8388 203.89 
L 317.1168 203.89 
" style="fill:none;stroke:#000000;stroke-linecap:round;stroke-width:0.9;"/>
   </g>
   <g id="line2d_8">
    <path clip-path="url(#pa9d8068af8)" d="M 297.8388 203.89 
L 301.2048 203.89 
" style="fill:none;stroke:#000000;stroke-linecap:round;stroke-width:0.9;"/>
   </g>
   <g id="line2d_9">
    <path clip-path="url(#pa9d8068af8)" d="M 270.6048 203.89 
L 270.6048 219.19 
L 290.4948 203.89 
L 270.6048 188.59 
L 270.6048 203.89 
" style="fill:none;stroke:#000000;stroke-linecap:round;stroke-width:0.9;"/>
   </g>
   <g id="line2d_10">
    <path clip-path="url(#pa9d8068af8)" d="M 317.1168 203.89 
L 336.2418 203.89 
L 355.3668 203.89 
" style="fill:none;stroke:#000000;stroke-linecap:round;stroke-width:0.9;"/>
   </g>
   <g id="line2d_11">
    <path clip-path="url(#pa9d8068af8)" d="M 355.3668 203.89 
L 390.8628 203.89 
M 390.8628 196.24 
L 390.8628 211.54 
M 396.3708 196.24 
L 396.3708 211.54 
M 396.3708 203.89 
L 431.8668 203.89 
" style="fill:none;stroke:#000000;stroke-linecap:round;stroke-width:0.9;"/>
   </g>
   <g id="line2d_12">
    <path clip-path="url(#pa9d8068af8)" d="M 431.8668 203.89 
L 451.1448 203.89 
L 461.8548 203.89 
M 489.0888 203.89 
L 508.3668 203.89 
" style="fill:none;stroke:#000000;stroke-linecap:round;stroke-width:0.9;"/>
   </g>
   <g id="line2d_13">
    <path clip-path="url(#pa9d8068af8)" d="M 489.0888 203.89 
L 492.4548 203.89 
" style="fill:none;stroke:#000000;stroke-linecap:round;stroke-width:0.9;"/>
   </g>
   <g id="line2d_14">
    <path clip-path="url(#pa9d8068af8)" d="M 461.8548 203.89 
L 461.8548 219.19 
L 481.7448 203.89 
L 461.8548 188.59 
L 461.8548 203.89 
" style="fill:none;stroke:#000000;stroke-linecap:round;stroke-width:0.9;"/>
   </g>
   <g id="line2d_15">
    <path clip-path="url(#pa9d8068af8)" d="M 508.3668 203.89 
L 543.8628 203.89 
M 543.8628 196.24 
L 543.8628 211.54 
M 549.3708 196.24 
L 549.3708 211.54 
M 549.3708 203.89 
L 584.8668 203.89 
" style="fill:none;stroke:#000000;stroke-linecap:round;stroke-width:0.9;"/>
   </g>
   <g id="line2d_16">
    <path clip-path="url(#pa9d8068af8)" d="M 584.8668 203.89 
L 584.8668 226.84 
L 592.5168 229.39 
L 577.2168 234.49 
L 592.5168 239.59 
L 577.2168 244.69 
L 592.5168 249.79 
L 577.2168 254.89 
L 584.8668 257.44 
L 584.8668 280.39 
" style="fill:none;stroke:#000000;stroke-linecap:round;stroke-width:0.9;"/>
   </g>
   <g id="line2d_17">
    <path clip-path="url(#pa9d8068af8)" d="M 584.8668 280.39 
L 584.8668 292.63 
L 577.2168 292.63 
L 592.5168 292.63 
M 579.5118 296.302 
L 590.2218 296.302 
M 583.3368 299.974 
L 586.3968 299.974 
" style="fill:none;stroke:#000000;stroke-linecap:round;stroke-width:0.9;"/>
   </g>
   <g id="line2d_18">
    <path clip-path="url(#pa9d8068af8)" d="M 202.3668 203.89 
L 202.3668 165.64 
L 202.3668 127.39 
" style="fill:none;stroke:#000000;stroke-linecap:round;stroke-width:0.9;"/>
   </g>
   <g id="line2d_19">
    <path clip-path="url(#pa9d8068af8)" d="M 202.3668 127.39 
L 221.4918 127.39 
L 240.6168 127.39 
" style="fill:none;stroke:#000000;stroke-linecap:round;stroke-width:0.9;"/>
   </g>
   <g id="line2d_20">
    <path clip-path="url(#pa9d8068af8)" d="M 240.6168 127.39 
L 276.1128 127.39 
M 276.1128 119.74 
L 276.1128 135.04 
M 281.6208 119.74 
L 281.6208 135.04 
M 281.6208 127.39 
L 317.1168 127.39 
" style="fill:none;stroke:#000000;stroke-linecap:round;stroke-width:0.9;"/>
   </g>
   <g id="line2d_21">
    <path clip-path="url(#pa9d8068af8)" d="M 317.1168 127.39 
L 336.2418 127.39 
L 355.3668 127.39 
" style="fill:none;stroke:#000000;stroke-linecap:round;stroke-width:0.9;"/>
   </g>
   <g id="line2d_22">
    <path clip-path="url(#pa9d8068af8)" d="M 202.3668 127.39 
L 202.3668 89.14 
L 202.3668 50.89 
" style="fill:none;stroke:#000000;stroke-linecap:round;stroke-width:0.9;"/>
   </g>
   <g id="line2d_23">
    <path clip-path="url(#pa9d8068af8)" d="M 202.3668 50.89 
L 225.3168 50.89 
L 227.8668 43.24 
L 232.9668 58.54 
L 238.0668 43.24 
L 243.1668 58.54 
L 248.2668 43.24 
L 253.3668 58.54 
L 255.9168 50.89 
L 278.8668 50.89 
" style="fill:none;stroke:#000000;stroke-linecap:round;stroke-width:0.9;"/>
   </g>
   <g id="line2d_24">
    <path clip-path="url(#pa9d8068af8)" d="M 278.8668 50.89 
L 301.8168 50.89 
L 304.3668 58.54 
L 309.4668 43.24 
L 314.5668 58.54 
L 319.6668 43.24 
L 324.7668 58.54 
L 329.8668 43.24 
L 332.4168 50.89 
L 355.3668 50.89 
" style="fill:none;stroke:#000000;stroke-linecap:round;stroke-width:0.9;"/>
   </g>
   <g id="line2d_25">
    <path clip-path="url(#pa9d8068af8)" d="M 355.3668 50.89 
L 355.3668 89.14 
L 355.3668 127.39 
" style="fill:none;stroke:#000000;stroke-linecap:round;stroke-width:0.9;"/>
   </g>
   <g id="line2d_26">
    <path clip-path="url(#pa9d8068af8)" d="M 355.3668 127.39 
L 355.3668 165.64 
L 355.3668 203.89 
" style="fill:none;stroke:#000000;stroke-linecap:round;stroke-width:0.9;"/>
   </g>
   <g id="line2d_27">
    <path clip-path="url(#pa9d8068af8)" d="M 317.1168 72.922 
L 317.1168 77.70325 
L 317.1168 82.4845 
" style="fill:none;stroke:#000000;stroke-linecap:round;stroke-width:0.9;"/>
   </g>
   <g id="line2d_28">
    <path clip-path="url(#pa9d8068af8)" d="M 317.1168 82.4845 
L 336.2418 82.4845 
L 355.3668 82.4845 
" style="fill:none;stroke:#000000;stroke-linecap:round;stroke-width:0.9;"/>
   </g>
   <g id="line2d_29">
    <path clip-path="url(#pa9d8068af8)" d="M 431.8668 203.89 
L 431.8668 165.64 
L 431.8668 127.39 
" style="fill:none;stroke:#000000;stroke-linecap:round;stroke-width:0.9;"/>
   </g>
   <g id="line2d_30">
    <path clip-path="url(#pa9d8068af8)" d="M 431.8668 127.39 
L 467.3628 127.39 
M 467.3628 119.74 
L 467.3628 135.04 
M 472.8708 119.74 
L 472.8708 135.04 
M 472.8708 127.39 
L 508.3668 127.39 
" style="fill:none;stroke:#000000;stroke-linecap:round;stroke-width:0.9;"/>
   </g>
   <g id="line2d_31">
    <path clip-path="url(#pa9d8068af8)" d="M 431.8668 127.39 
L 431.8668 89.14 
L 431.8668 50.89 
" style="fill:none;stroke:#000000;stroke-linecap:round;stroke-width:0.9;"/>
   </g>
   <g id="line2d_32">
    <path clip-path="url(#pa9d8068af8)" d="M 431.8668 50.89 
L 454.8168 50.89 
L 457.3668 43.24 
L 462.4668 58.54 
L 467.5668 43.24 
L 472.6668 58.54 
L 477.7668 43.24 
L 482.8668 58.54 
L 485.4168 50.89 
L 508.3668 50.89 
" style="fill:none;stroke:#000000;stroke-linecap:round;stroke-width:0.9;"/>
   </g>
   <g id="line2d_33">
    <path clip-path="url(#pa9d8068af8)" d="M 508.3668 50.89 
L 508.3668 89.14 
L 508.3668 127.39 
" style="fill:none;stroke:#000000;stroke-linecap:round;stroke-width:0.9;"/>
   </g>
   <g id="line2d_34">
    <path clip-path="url(#pa9d8068af8)" d="M 508.3668 127.39 
L 508.3668 165.64 
L 508.3668 203.89 
" style="fill:none;stroke:#000000;stroke-linecap:round;stroke-width:0.9;"/>
   </g>
   <g id="line2d_35">
    <path clip-path="url(#pa9d8068af8)" d="M 584.8668 203.89 
L 603.9918 203.89 
L 623.1168 203.89 
" style="fill:none;stroke:#000000;stroke-linecap:round;stroke-width:0.9;"/>
   </g>
   <g id="text_1">
    <!-- $R_1$ -->
    <g transform="translate(22.2768 238.164656)scale(0.14 -0.14)">
     <defs>
      <path d="M 25.203125 64.796875 
L 20.21875 38.921875 
L 32.90625 38.921875 
Q 40.375 38.921875 44.984375 43.046875 
Q 49.609375 47.171875 49.609375 53.8125 
Q 49.609375 59.125 46.5 61.953125 
Q 43.40625 64.796875 37.59375 64.796875 
z
M 43.3125 35.015625 
Q 46.4375 34.28125 48.515625 31.390625 
Q 50.59375 28.515625 53.328125 19.921875 
L 59.515625 0 
L 49.125 0 
L 43.40625 18.703125 
Q 41.21875 25.921875 38.328125 28.359375 
Q 35.453125 30.8125 29.5 30.8125 
L 18.609375 30.8125 
L 12.59375 0 
L 2.6875 0 
L 16.890625 72.90625 
L 39.109375 72.90625 
Q 49.21875 72.90625 54.609375 68.328125 
Q 60.015625 63.765625 60.015625 55.171875 
Q 60.015625 47.5625 55.421875 41.984375 
Q 50.828125 36.421875 43.3125 35.015625 
z
" id="DejaVuSans-Oblique-82"/>
      <path d="M 12.40625 8.296875 
L 28.515625 8.296875 
L 28.515625 63.921875 
L 10.984375 60.40625 
L 10.984375 69.390625 
L 28.421875 72.90625 
L 38.28125 72.90625 
L 38.28125 8.296875 
L 54.390625 8.296875 
L 54.390625 0 
L 12.40625 0 
z
" id="DejaVuSans-49"/>
     </defs>
     <use transform="translate(0 0.09375)" xlink:href="#DejaVuSans-Oblique-82"/>
     <use transform="translate(69.482422 -16.3125)scale(0.7)" xlink:href="#DejaVuSans-49"/>
    </g>
    <!-- 1M -->
    <g transform="translate(17.669925 253.841594)scale(0.14 -0.14)">
     <defs>
      <path d="M 9.8125 72.90625 
L 24.515625 72.90625 
L 43.109375 23.296875 
L 61.8125 72.90625 
L 76.515625 72.90625 
L 76.515625 0 
L 66.890625 0 
L 66.890625 64.015625 
L 48.09375 14.015625 
L 38.1875 14.015625 
L 19.390625 64.015625 
L 19.390625 0 
L 9.8125 0 
z
" id="DejaVuSans-77"/>
     </defs>
     <use xlink:href="#DejaVuSans-49"/>
     <use x="63.623047" xlink:href="#DejaVuSans-77"/>
    </g>
   </g>
   <g id="text_2">
    <!-- $R_2$ -->
    <g transform="translate(79.4268 174.5915)scale(0.14 -0.14)">
     <defs>
      <path d="M 19.1875 8.296875 
L 53.609375 8.296875 
L 53.609375 0 
L 7.328125 0 
L 7.328125 8.296875 
Q 12.9375 14.109375 22.625 23.890625 
Q 32.328125 33.6875 34.8125 36.53125 
Q 39.546875 41.84375 41.421875 45.53125 
Q 43.3125 49.21875 43.3125 52.78125 
Q 43.3125 58.59375 39.234375 62.25 
Q 35.15625 65.921875 28.609375 65.921875 
Q 23.96875 65.921875 18.8125 64.3125 
Q 13.671875 62.703125 7.8125 59.421875 
L 7.8125 69.390625 
Q 13.765625 71.78125 18.9375 73 
Q 24.125 74.21875 28.421875 74.21875 
Q 39.75 74.21875 46.484375 68.546875 
Q 53.21875 62.890625 53.21875 53.421875 
Q 53.21875 48.921875 51.53125 44.890625 
Q 49.859375 40.875 45.40625 35.40625 
Q 44.1875 33.984375 37.640625 27.21875 
Q 31.109375 20.453125 19.1875 8.296875 
z
" id="DejaVuSans-50"/>
     </defs>
     <use transform="translate(0 0.09375)" xlink:href="#DejaVuSans-Oblique-82"/>
     <use transform="translate(69.482422 -16.3125)scale(0.7)" xlink:href="#DejaVuSans-50"/>
    </g>
    <!-- 100k -->
    <g transform="translate(70.202112 190.268437)scale(0.14 -0.14)">
     <defs>
      <path d="M 31.78125 66.40625 
Q 24.171875 66.40625 20.328125 58.90625 
Q 16.5 51.421875 16.5 36.375 
Q 16.5 21.390625 20.328125 13.890625 
Q 24.171875 6.390625 31.78125 6.390625 
Q 39.453125 6.390625 43.28125 13.890625 
Q 47.125 21.390625 47.125 36.375 
Q 47.125 51.421875 43.28125 58.90625 
Q 39.453125 66.40625 31.78125 66.40625 
z
M 31.78125 74.21875 
Q 44.046875 74.21875 50.515625 64.515625 
Q 56.984375 54.828125 56.984375 36.375 
Q 56.984375 17.96875 50.515625 8.265625 
Q 44.046875 -1.421875 31.78125 -1.421875 
Q 19.53125 -1.421875 13.0625 8.265625 
Q 6.59375 17.96875 6.59375 36.375 
Q 6.59375 54.828125 13.0625 64.515625 
Q 19.53125 74.21875 31.78125 74.21875 
z
" id="DejaVuSans-48"/>
      <path d="M 9.078125 75.984375 
L 18.109375 75.984375 
L 18.109375 31.109375 
L 44.921875 54.6875 
L 56.390625 54.6875 
L 27.390625 29.109375 
L 57.625 0 
L 45.90625 0 
L 18.109375 26.703125 
L 18.109375 0 
L 9.078125 0 
z
" id="DejaVuSans-107"/>
     </defs>
     <use xlink:href="#DejaVuSans-49"/>
     <use x="63.623047" xlink:href="#DejaVuSans-48"/>
     <use x="127.246094" xlink:href="#DejaVuSans-48"/>
     <use x="190.869141" xlink:href="#DejaVuSans-107"/>
    </g>
   </g>
   <g id="text_3">
    <!-- $C_1$ -->
    <g transform="translate(155.8568 174.5915)scale(0.14 -0.14)">
     <defs>
      <path d="M 69.484375 67.28125 
L 67.484375 56.890625 
Q 62.796875 61.625 57.546875 63.921875 
Q 52.296875 66.21875 46.1875 66.21875 
Q 37.84375 66.21875 31.515625 62.203125 
Q 25.203125 58.203125 20.609375 50 
Q 17.671875 44.734375 16.125 38.84375 
Q 14.59375 32.953125 14.59375 27 
Q 14.59375 17.046875 19.75 11.8125 
Q 24.90625 6.59375 34.71875 6.59375 
Q 41.5 6.59375 47.75 8.765625 
Q 54 10.9375 59.90625 15.28125 
L 57.625 3.609375 
Q 51.8125 1.125 45.875 -0.140625 
Q 39.9375 -1.421875 33.984375 -1.421875 
Q 19.96875 -1.421875 12.078125 6.1875 
Q 4.203125 13.8125 4.203125 27.390625 
Q 4.203125 36.078125 7.203125 44.46875 
Q 10.203125 52.875 15.828125 59.8125 
Q 21.78125 67.1875 29.421875 70.703125 
Q 37.0625 74.21875 47.21875 74.21875 
Q 53.46875 74.21875 59.0625 72.484375 
Q 64.65625 70.75 69.484375 67.28125 
z
" id="DejaVuSans-Oblique-67"/>
     </defs>
     <use transform="translate(0 0.78125)" xlink:href="#DejaVuSans-Oblique-67"/>
     <use transform="translate(69.824219 -15.625)scale(0.7)" xlink:href="#DejaVuSans-49"/>
    </g>
    <!-- 68n -->
    <g transform="translate(150.77305 190.268437)scale(0.14 -0.14)">
     <defs>
      <path d="M 33.015625 40.375 
Q 26.375 40.375 22.484375 35.828125 
Q 18.609375 31.296875 18.609375 23.390625 
Q 18.609375 15.53125 22.484375 10.953125 
Q 26.375 6.390625 33.015625 6.390625 
Q 39.65625 6.390625 43.53125 10.953125 
Q 47.40625 15.53125 47.40625 23.390625 
Q 47.40625 31.296875 43.53125 35.828125 
Q 39.65625 40.375 33.015625 40.375 
z
M 52.59375 71.296875 
L 52.59375 62.3125 
Q 48.875 64.0625 45.09375 64.984375 
Q 41.3125 65.921875 37.59375 65.921875 
Q 27.828125 65.921875 22.671875 59.328125 
Q 17.53125 52.734375 16.796875 39.40625 
Q 19.671875 43.65625 24.015625 45.921875 
Q 28.375 48.1875 33.59375 48.1875 
Q 44.578125 48.1875 50.953125 41.515625 
Q 57.328125 34.859375 57.328125 23.390625 
Q 57.328125 12.15625 50.6875 5.359375 
Q 44.046875 -1.421875 33.015625 -1.421875 
Q 20.359375 -1.421875 13.671875 8.265625 
Q 6.984375 17.96875 6.984375 36.375 
Q 6.984375 53.65625 15.1875 63.9375 
Q 23.390625 74.21875 37.203125 74.21875 
Q 40.921875 74.21875 44.703125 73.484375 
Q 48.484375 72.75 52.59375 71.296875 
z
" id="DejaVuSans-54"/>
      <path d="M 31.78125 34.625 
Q 24.75 34.625 20.71875 30.859375 
Q 16.703125 27.09375 16.703125 20.515625 
Q 16.703125 13.921875 20.71875 10.15625 
Q 24.75 6.390625 31.78125 6.390625 
Q 38.8125 6.390625 42.859375 10.171875 
Q 46.921875 13.96875 46.921875 20.515625 
Q 46.921875 27.09375 42.890625 30.859375 
Q 38.875 34.625 31.78125 34.625 
z
M 21.921875 38.8125 
Q 15.578125 40.375 12.03125 44.71875 
Q 8.5 49.078125 8.5 55.328125 
Q 8.5 64.0625 14.71875 69.140625 
Q 20.953125 74.21875 31.78125 74.21875 
Q 42.671875 74.21875 48.875 69.140625 
Q 55.078125 64.0625 55.078125 55.328125 
Q 55.078125 49.078125 51.53125 44.71875 
Q 48 40.375 41.703125 38.8125 
Q 48.828125 37.15625 52.796875 32.3125 
Q 56.78125 27.484375 56.78125 20.515625 
Q 56.78125 9.90625 50.3125 4.234375 
Q 43.84375 -1.421875 31.78125 -1.421875 
Q 19.734375 -1.421875 13.25 4.234375 
Q 6.78125 9.90625 6.78125 20.515625 
Q 6.78125 27.484375 10.78125 32.3125 
Q 14.796875 37.15625 21.921875 38.8125 
z
M 18.3125 54.390625 
Q 18.3125 48.734375 21.84375 45.5625 
Q 25.390625 42.390625 31.78125 42.390625 
Q 38.140625 42.390625 41.71875 45.5625 
Q 45.3125 48.734375 45.3125 54.390625 
Q 45.3125 60.0625 41.71875 63.234375 
Q 38.140625 66.40625 31.78125 66.40625 
Q 25.390625 66.40625 21.84375 63.234375 
Q 18.3125 60.0625 18.3125 54.390625 
z
" id="DejaVuSans-56"/>
      <path d="M 54.890625 33.015625 
L 54.890625 0 
L 45.90625 0 
L 45.90625 32.71875 
Q 45.90625 40.484375 42.875 44.328125 
Q 39.84375 48.1875 33.796875 48.1875 
Q 26.515625 48.1875 22.3125 43.546875 
Q 18.109375 38.921875 18.109375 30.90625 
L 18.109375 0 
L 9.078125 0 
L 9.078125 54.6875 
L 18.109375 54.6875 
L 18.109375 46.1875 
Q 21.34375 51.125 25.703125 53.5625 
Q 30.078125 56 35.796875 56 
Q 45.21875 56 50.046875 50.171875 
Q 54.890625 44.34375 54.890625 33.015625 
z
" id="DejaVuSans-110"/>
     </defs>
     <use xlink:href="#DejaVuSans-54"/>
     <use x="63.623047" xlink:href="#DejaVuSans-56"/>
     <use x="127.246094" xlink:href="#DejaVuSans-110"/>
    </g>
   </g>
   <g id="text_4">
    <!-- $C_3$ -->
    <g transform="translate(385.3568 174.5915)scale(0.14 -0.14)">
     <defs>
      <path d="M 40.578125 39.3125 
Q 47.65625 37.796875 51.625 33 
Q 55.609375 28.21875 55.609375 21.1875 
Q 55.609375 10.40625 48.1875 4.484375 
Q 40.765625 -1.421875 27.09375 -1.421875 
Q 22.515625 -1.421875 17.65625 -0.515625 
Q 12.796875 0.390625 7.625 2.203125 
L 7.625 11.71875 
Q 11.71875 9.328125 16.59375 8.109375 
Q 21.484375 6.890625 26.8125 6.890625 
Q 36.078125 6.890625 40.9375 10.546875 
Q 45.796875 14.203125 45.796875 21.1875 
Q 45.796875 27.640625 41.28125 31.265625 
Q 36.765625 34.90625 28.71875 34.90625 
L 20.21875 34.90625 
L 20.21875 43.015625 
L 29.109375 43.015625 
Q 36.375 43.015625 40.234375 45.921875 
Q 44.09375 48.828125 44.09375 54.296875 
Q 44.09375 59.90625 40.109375 62.90625 
Q 36.140625 65.921875 28.71875 65.921875 
Q 24.65625 65.921875 20.015625 65.03125 
Q 15.375 64.15625 9.8125 62.3125 
L 9.8125 71.09375 
Q 15.4375 72.65625 20.34375 73.4375 
Q 25.25 74.21875 29.59375 74.21875 
Q 40.828125 74.21875 47.359375 69.109375 
Q 53.90625 64.015625 53.90625 55.328125 
Q 53.90625 49.265625 50.4375 45.09375 
Q 46.96875 40.921875 40.578125 39.3125 
z
" id="DejaVuSans-51"/>
     </defs>
     <use transform="translate(0 0.78125)" xlink:href="#DejaVuSans-Oblique-67"/>
     <use transform="translate(69.824219 -15.625)scale(0.7)" xlink:href="#DejaVuSans-51"/>
    </g>
    <!-- 33n -->
    <g transform="translate(380.27305 190.268437)scale(0.14 -0.14)">
     <use xlink:href="#DejaVuSans-51"/>
     <use x="63.623047" xlink:href="#DejaVuSans-51"/>
     <use x="127.246094" xlink:href="#DejaVuSans-110"/>
    </g>
   </g>
   <g id="text_5">
    <!-- $C_5$ -->
    <g transform="translate(538.3568 174.5915)scale(0.14 -0.14)">
     <defs>
      <path d="M 10.796875 72.90625 
L 49.515625 72.90625 
L 49.515625 64.59375 
L 19.828125 64.59375 
L 19.828125 46.734375 
Q 21.96875 47.46875 24.109375 47.828125 
Q 26.265625 48.1875 28.421875 48.1875 
Q 40.625 48.1875 47.75 41.5 
Q 54.890625 34.8125 54.890625 23.390625 
Q 54.890625 11.625 47.5625 5.09375 
Q 40.234375 -1.421875 26.90625 -1.421875 
Q 22.3125 -1.421875 17.546875 -0.640625 
Q 12.796875 0.140625 7.71875 1.703125 
L 7.71875 11.625 
Q 12.109375 9.234375 16.796875 8.0625 
Q 21.484375 6.890625 26.703125 6.890625 
Q 35.15625 6.890625 40.078125 11.328125 
Q 45.015625 15.765625 45.015625 23.390625 
Q 45.015625 31 40.078125 35.4375 
Q 35.15625 39.890625 26.703125 39.890625 
Q 22.75 39.890625 18.8125 39.015625 
Q 14.890625 38.140625 10.796875 36.28125 
z
" id="DejaVuSans-53"/>
     </defs>
     <use transform="translate(0 0.78125)" xlink:href="#DejaVuSans-Oblique-67"/>
     <use transform="translate(69.824219 -15.625)scale(0.7)" xlink:href="#DejaVuSans-53"/>
    </g>
    <!-- 10u -->
    <g transform="translate(533.27305 190.268437)scale(0.14 -0.14)">
     <defs>
      <path d="M 8.5 21.578125 
L 8.5 54.6875 
L 17.484375 54.6875 
L 17.484375 21.921875 
Q 17.484375 14.15625 20.5 10.265625 
Q 23.53125 6.390625 29.59375 6.390625 
Q 36.859375 6.390625 41.078125 11.03125 
Q 45.3125 15.671875 45.3125 23.6875 
L 45.3125 54.6875 
L 54.296875 54.6875 
L 54.296875 0 
L 45.3125 0 
L 45.3125 8.40625 
Q 42.046875 3.421875 37.71875 1 
Q 33.40625 -1.421875 27.6875 -1.421875 
Q 18.265625 -1.421875 13.375 4.4375 
Q 8.5 10.296875 8.5 21.578125 
z
M 31.109375 56 
z
" id="DejaVuSans-117"/>
     </defs>
     <use xlink:href="#DejaVuSans-49"/>
     <use x="63.623047" xlink:href="#DejaVuSans-48"/>
     <use x="127.246094" xlink:href="#DejaVuSans-117"/>
    </g>
   </g>
   <g id="text_6">
    <!-- $R_l$ -->
    <g transform="translate(561.2768 238.164656)scale(0.14 -0.14)">
     <defs>
      <path d="M 18.3125 75.984375 
L 27.296875 75.984375 
L 12.5 0 
L 3.515625 0 
z
" id="DejaVuSans-Oblique-108"/>
     </defs>
     <use transform="translate(0 0.09375)" xlink:href="#DejaVuSans-Oblique-82"/>
     <use transform="translate(69.482422 -16.3125)scale(0.7)" xlink:href="#DejaVuSans-Oblique-108"/>
    </g>
    <!-- 100k -->
    <g transform="translate(539.327425 253.841594)scale(0.14 -0.14)">
     <use xlink:href="#DejaVuSans-49"/>
     <use x="63.623047" xlink:href="#DejaVuSans-48"/>
     <use x="127.246094" xlink:href="#DejaVuSans-48"/>
     <use x="190.869141" xlink:href="#DejaVuSans-107"/>
    </g>
   </g>
   <g id="text_7">
    <!-- $C_2$ -->
    <g transform="translate(270.6068 98.0915)scale(0.14 -0.14)">
     <use transform="translate(0 0.78125)" xlink:href="#DejaVuSans-Oblique-67"/>
     <use transform="translate(69.824219 -15.625)scale(0.7)" xlink:href="#DejaVuSans-50"/>
    </g>
    <!-- 81p -->
    <g transform="translate(265.515394 113.768437)scale(0.14 -0.14)">
     <defs>
      <path d="M 18.109375 8.203125 
L 18.109375 -20.796875 
L 9.078125 -20.796875 
L 9.078125 54.6875 
L 18.109375 54.6875 
L 18.109375 46.390625 
Q 20.953125 51.265625 25.265625 53.625 
Q 29.59375 56 35.59375 56 
Q 45.5625 56 51.78125 48.09375 
Q 58.015625 40.1875 58.015625 27.296875 
Q 58.015625 14.40625 51.78125 6.484375 
Q 45.5625 -1.421875 35.59375 -1.421875 
Q 29.59375 -1.421875 25.265625 0.953125 
Q 20.953125 3.328125 18.109375 8.203125 
z
M 48.6875 27.296875 
Q 48.6875 37.203125 44.609375 42.84375 
Q 40.53125 48.484375 33.40625 48.484375 
Q 26.265625 48.484375 22.1875 42.84375 
Q 18.109375 37.203125 18.109375 27.296875 
Q 18.109375 17.390625 22.1875 11.75 
Q 26.265625 6.109375 33.40625 6.109375 
Q 40.53125 6.109375 44.609375 11.75 
Q 48.6875 17.390625 48.6875 27.296875 
z
" id="DejaVuSans-112"/>
     </defs>
     <use xlink:href="#DejaVuSans-56"/>
     <use x="63.623047" xlink:href="#DejaVuSans-49"/>
     <use x="127.246094" xlink:href="#DejaVuSans-112"/>
    </g>
   </g>
   <g id="text_8">
    <!-- $R_3$ -->
    <g transform="translate(232.4268 21.5915)scale(0.14 -0.14)">
     <use transform="translate(0 0.09375)" xlink:href="#DejaVuSans-Oblique-82"/>
     <use transform="translate(69.482422 -16.3125)scale(0.7)" xlink:href="#DejaVuSans-51"/>
    </g>
    <!-- 100k -->
    <g transform="translate(223.202112 37.268437)scale(0.14 -0.14)">
     <use xlink:href="#DejaVuSans-49"/>
     <use x="63.623047" xlink:href="#DejaVuSans-48"/>
     <use x="127.246094" xlink:href="#DejaVuSans-48"/>
     <use x="190.869141" xlink:href="#DejaVuSans-107"/>
    </g>
   </g>
   <g id="text_9">
    <!-- $RV_1$ -->
    <g transform="translate(304.0968 21.5915)scale(0.14 -0.14)">
     <defs>
      <path d="M 20.609375 0 
L 7.8125 72.90625 
L 17.484375 72.90625 
L 28.078125 10.203125 
L 63.484375 72.90625 
L 74.21875 72.90625 
L 32.078125 0 
z
" id="DejaVuSans-Oblique-86"/>
     </defs>
     <use transform="translate(0 0.09375)" xlink:href="#DejaVuSans-Oblique-82"/>
     <use transform="translate(69.482422 0.09375)" xlink:href="#DejaVuSans-Oblique-86"/>
     <use transform="translate(137.890625 -16.3125)scale(0.7)" xlink:href="#DejaVuSans-49"/>
    </g>
    <!-- 1M -->
    <g transform="translate(306.623362 37.268437)scale(0.14 -0.14)">
     <use xlink:href="#DejaVuSans-49"/>
     <use x="63.623047" xlink:href="#DejaVuSans-77"/>
    </g>
   </g>
   <g id="text_10">
    <!-- $C_4$ -->
    <g transform="translate(461.8568 98.0915)scale(0.14 -0.14)">
     <defs>
      <path d="M 37.796875 64.3125 
L 12.890625 25.390625 
L 37.796875 25.390625 
z
M 35.203125 72.90625 
L 47.609375 72.90625 
L 47.609375 25.390625 
L 58.015625 25.390625 
L 58.015625 17.1875 
L 47.609375 17.1875 
L 47.609375 0 
L 37.796875 0 
L 37.796875 17.1875 
L 4.890625 17.1875 
L 4.890625 26.703125 
z
" id="DejaVuSans-52"/>
     </defs>
     <use transform="translate(0 0.78125)" xlink:href="#DejaVuSans-Oblique-67"/>
     <use transform="translate(69.824219 -15.625)scale(0.7)" xlink:href="#DejaVuSans-52"/>
    </g>
    <!-- 100p -->
    <g transform="translate(452.311644 113.768437)scale(0.14 -0.14)">
     <use xlink:href="#DejaVuSans-49"/>
     <use x="63.623047" xlink:href="#DejaVuSans-48"/>
     <use x="127.246094" xlink:href="#DejaVuSans-48"/>
     <use x="190.869141" xlink:href="#DejaVuSans-112"/>
    </g>
   </g>
   <g id="text_11">
    <!-- $R_4$ -->
    <g transform="translate(461.9268 21.5915)scale(0.14 -0.14)">
     <use transform="translate(0 0.09375)" xlink:href="#DejaVuSans-Oblique-82"/>
     <use transform="translate(69.482422 -16.3125)scale(0.7)" xlink:href="#DejaVuSans-52"/>
    </g>
    <!-- 1M -->
    <g transform="translate(459.623362 37.268437)scale(0.14 -0.14)">
     <use xlink:href="#DejaVuSans-49"/>
     <use x="63.623047" xlink:href="#DejaVuSans-77"/>
    </g>
   </g>
   <g id="patch_5">
    <path clip-path="url(#pa9d8068af8)" d="M 30.2418 206.185 
C 30.850441 206.185 31.434236 205.943184 31.86461 205.51281 
C 32.294984 205.082436 32.5368 204.498641 32.5368 203.89 
C 32.5368 203.281359 32.294984 202.697564 31.86461 202.26719 
C 31.434236 201.836816 30.850441 201.595 30.2418 201.595 
C 29.633159 201.595 29.049364 201.836816 28.61899 202.26719 
C 28.188616 202.697564 27.9468 203.281359 27.9468 203.89 
C 27.9468 204.498641 28.188616 205.082436 28.61899 205.51281 
C 29.049364 205.943184 29.633159 206.185 30.2418 206.185 
z
" style="fill:#ffffff;stroke:#000000;stroke-linejoin:miter;stroke-width:0.9;"/>
   </g>
   <g id="patch_6">
    <path clip-path="url(#pa9d8068af8)" d="M 49.3668 206.185 
C 49.975441 206.185 50.559236 205.943184 50.98961 205.51281 
C 51.419984 205.082436 51.6618 204.498641 51.6618 203.89 
C 51.6618 203.281359 51.419984 202.697564 50.98961 202.26719 
C 50.559236 201.836816 49.975441 201.595 49.3668 201.595 
C 48.758159 201.595 48.174364 201.836816 47.74399 202.26719 
C 47.313616 202.697564 47.0718 203.281359 47.0718 203.89 
C 47.0718 204.498641 47.313616 205.082436 47.74399 205.51281 
C 48.174364 205.943184 48.758159 206.185 49.3668 206.185 
z
" style="stroke:#000000;stroke-linejoin:miter;stroke-width:0.9;"/>
   </g>
   <g id="patch_7">
    <path clip-path="url(#pa9d8068af8)" d="M 202.3668 206.185 
C 202.975441 206.185 203.559236 205.943184 203.98961 205.51281 
C 204.419984 205.082436 204.6618 204.498641 204.6618 203.89 
C 204.6618 203.281359 204.419984 202.697564 203.98961 202.26719 
C 203.559236 201.836816 202.975441 201.595 202.3668 201.595 
C 201.758159 201.595 201.174364 201.836816 200.74399 202.26719 
C 200.313616 202.697564 200.0718 203.281359 200.0718 203.89 
C 200.0718 204.498641 200.313616 205.082436 200.74399 205.51281 
C 201.174364 205.943184 201.758159 206.185 202.3668 206.185 
z
" style="stroke:#000000;stroke-linejoin:miter;stroke-width:0.9;"/>
   </g>
   <g id="patch_8">
    <path clip-path="url(#pa9d8068af8)" d="M 202.3668 129.685 
C 202.975441 129.685 203.559236 129.443184 203.98961 129.01281 
C 204.419984 128.582436 204.6618 127.998641 204.6618 127.39 
C 204.6618 126.781359 204.419984 126.197564 203.98961 125.76719 
C 203.559236 125.336816 202.975441 125.095 202.3668 125.095 
C 201.758159 125.095 201.174364 125.336816 200.74399 125.76719 
C 200.313616 126.197564 200.0718 126.781359 200.0718 127.39 
C 200.0718 127.998641 200.313616 128.582436 200.74399 129.01281 
C 201.174364 129.443184 201.758159 129.685 202.3668 129.685 
z
" style="stroke:#000000;stroke-linejoin:miter;stroke-width:0.9;"/>
   </g>
   <g id="patch_9">
    <path clip-path="url(#pa9d8068af8)" d="M 355.3668 129.685 
C 355.975441 129.685 356.559236 129.443184 356.98961 129.01281 
C 357.419984 128.582436 357.6618 127.998641 357.6618 127.39 
C 357.6618 126.781359 357.419984 126.197564 356.98961 125.76719 
C 356.559236 125.336816 355.975441 125.095 355.3668 125.095 
C 354.758159 125.095 354.174364 125.336816 353.74399 125.76719 
C 353.313616 126.197564 353.0718 126.781359 353.0718 127.39 
C 353.0718 127.998641 353.313616 128.582436 353.74399 129.01281 
C 354.174364 129.443184 354.758159 129.685 355.3668 129.685 
z
" style="stroke:#000000;stroke-linejoin:miter;stroke-width:0.9;"/>
   </g>
   <g id="patch_10">
    <path clip-path="url(#pa9d8068af8)" d="M 355.3668 206.185 
C 355.975441 206.185 356.559236 205.943184 356.98961 205.51281 
C 357.419984 205.082436 357.6618 204.498641 357.6618 203.89 
C 357.6618 203.281359 357.419984 202.697564 356.98961 202.26719 
C 356.559236 201.836816 355.975441 201.595 355.3668 201.595 
C 354.758159 201.595 354.174364 201.836816 353.74399 202.26719 
C 353.313616 202.697564 353.0718 203.281359 353.0718 203.89 
C 353.0718 204.498641 353.313616 205.082436 353.74399 205.51281 
C 354.174364 205.943184 354.758159 206.185 355.3668 206.185 
z
" style="stroke:#000000;stroke-linejoin:miter;stroke-width:0.9;"/>
   </g>
   <g id="patch_11">
    <path clip-path="url(#pa9d8068af8)" d="M 355.3668 84.7795 
C 355.975441 84.7795 356.559236 84.537684 356.98961 84.10731 
C 357.419984 83.676936 357.6618 83.093141 357.6618 82.4845 
C 357.6618 81.875859 357.419984 81.292064 356.98961 80.86169 
C 356.559236 80.431316 355.975441 80.1895 355.3668 80.1895 
C 354.758159 80.1895 354.174364 80.431316 353.74399 80.86169 
C 353.313616 81.292064 353.0718 81.875859 353.0718 82.4845 
C 353.0718 83.093141 353.313616 83.676936 353.74399 84.10731 
C 354.174364 84.537684 354.758159 84.7795 355.3668 84.7795 
z
" style="stroke:#000000;stroke-linejoin:miter;stroke-width:0.9;"/>
   </g>
   <g id="patch_12">
    <path clip-path="url(#pa9d8068af8)" d="M 431.8668 206.185 
C 432.475441 206.185 433.059236 205.943184 433.48961 205.51281 
C 433.919984 205.082436 434.1618 204.498641 434.1618 203.89 
C 434.1618 203.281359 433.919984 202.697564 433.48961 202.26719 
C 433.059236 201.836816 432.475441 201.595 431.8668 201.595 
C 431.258159 201.595 430.674364 201.836816 430.24399 202.26719 
C 429.813616 202.697564 429.5718 203.281359 429.5718 203.89 
C 429.5718 204.498641 429.813616 205.082436 430.24399 205.51281 
C 430.674364 205.943184 431.258159 206.185 431.8668 206.185 
z
" style="stroke:#000000;stroke-linejoin:miter;stroke-width:0.9;"/>
   </g>
   <g id="patch_13">
    <path clip-path="url(#pa9d8068af8)" d="M 431.8668 129.685 
C 432.475441 129.685 433.059236 129.443184 433.48961 129.01281 
C 433.919984 128.582436 434.1618 127.998641 434.1618 127.39 
C 434.1618 126.781359 433.919984 126.197564 433.48961 125.76719 
C 433.059236 125.336816 432.475441 125.095 431.8668 125.095 
C 431.258159 125.095 430.674364 125.336816 430.24399 125.76719 
C 429.813616 126.197564 429.5718 126.781359 429.5718 127.39 
C 429.5718 127.998641 429.813616 128.582436 430.24399 129.01281 
C 430.674364 129.443184 431.258159 129.685 431.8668 129.685 
z
" style="stroke:#000000;stroke-linejoin:miter;stroke-width:0.9;"/>
   </g>
   <g id="patch_14">
    <path clip-path="url(#pa9d8068af8)" d="M 508.3668 129.685 
C 508.975441 129.685 509.559236 129.443184 509.98961 129.01281 
C 510.419984 128.582436 510.6618 127.998641 510.6618 127.39 
C 510.6618 126.781359 510.419984 126.197564 509.98961 125.76719 
C 509.559236 125.336816 508.975441 125.095 508.3668 125.095 
C 507.758159 125.095 507.174364 125.336816 506.74399 125.76719 
C 506.313616 126.197564 506.0718 126.781359 506.0718 127.39 
C 506.0718 127.998641 506.313616 128.582436 506.74399 129.01281 
C 507.174364 129.443184 507.758159 129.685 508.3668 129.685 
z
" style="stroke:#000000;stroke-linejoin:miter;stroke-width:0.9;"/>
   </g>
   <g id="patch_15">
    <path clip-path="url(#pa9d8068af8)" d="M 508.3668 206.185 
C 508.975441 206.185 509.559236 205.943184 509.98961 205.51281 
C 510.419984 205.082436 510.6618 204.498641 510.6618 203.89 
C 510.6618 203.281359 510.419984 202.697564 509.98961 202.26719 
C 509.559236 201.836816 508.975441 201.595 508.3668 201.595 
C 507.758159 201.595 507.174364 201.836816 506.74399 202.26719 
C 506.313616 202.697564 506.0718 203.281359 506.0718 203.89 
C 506.0718 204.498641 506.313616 205.082436 506.74399 205.51281 
C 507.174364 205.943184 507.758159 206.185 508.3668 206.185 
z
" style="stroke:#000000;stroke-linejoin:miter;stroke-width:0.9;"/>
   </g>
   <g id="patch_16">
    <path clip-path="url(#pa9d8068af8)" d="M 584.8668 206.185 
C 585.475441 206.185 586.059236 205.943184 586.48961 205.51281 
C 586.919984 205.082436 587.1618 204.498641 587.1618 203.89 
C 587.1618 203.281359 586.919984 202.697564 586.48961 202.26719 
C 586.059236 201.836816 585.475441 201.595 584.8668 201.595 
C 584.258159 201.595 583.674364 201.836816 583.24399 202.26719 
C 582.813616 202.697564 582.5718 203.281359 582.5718 203.89 
C 582.5718 204.498641 582.813616 205.082436 583.24399 205.51281 
C 583.674364 205.943184 584.258159 206.185 584.8668 206.185 
z
" style="stroke:#000000;stroke-linejoin:miter;stroke-width:0.9;"/>
   </g>
   <g id="patch_17">
    <path clip-path="url(#pa9d8068af8)" d="M 623.1168 206.185 
C 623.725441 206.185 624.309236 205.943184 624.73961 205.51281 
C 625.169984 205.082436 625.4118 204.498641 625.4118 203.89 
C 625.4118 203.281359 625.169984 202.697564 624.73961 202.26719 
C 624.309236 201.836816 623.725441 201.595 623.1168 201.595 
C 622.508159 201.595 621.924364 201.836816 621.49399 202.26719 
C 621.063616 202.697564 620.8218 203.281359 620.8218 203.89 
C 620.8218 204.498641 621.063616 205.082436 621.49399 205.51281 
C 621.924364 205.943184 622.508159 206.185 623.1168 206.185 
z
" style="fill:#ffffff;stroke:#000000;stroke-linejoin:miter;stroke-width:0.9;"/>
   </g>
   <g id="text_12">
    <!-- IN -->
    <g transform="translate(10.28305 207.753125)scale(0.14 -0.14)">
     <defs>
      <path d="M 9.8125 72.90625 
L 19.671875 72.90625 
L 19.671875 0 
L 9.8125 0 
z
" id="DejaVuSans-73"/>
      <path d="M 9.8125 72.90625 
L 23.09375 72.90625 
L 55.421875 11.921875 
L 55.421875 72.90625 
L 64.984375 72.90625 
L 64.984375 0 
L 51.703125 0 
L 19.390625 60.984375 
L 19.390625 0 
L 9.8125 0 
z
" id="DejaVuSans-78"/>
     </defs>
     <use xlink:href="#DejaVuSans-73"/>
     <use x="29.492188" xlink:href="#DejaVuSans-78"/>
    </g>
   </g>
   <g id="text_13">
    <!-- OUT -->
    <g transform="translate(628.4718 207.753125)scale(0.14 -0.14)">
     <defs>
      <path d="M 39.40625 66.21875 
Q 28.65625 66.21875 22.328125 58.203125 
Q 16.015625 50.203125 16.015625 36.375 
Q 16.015625 22.609375 22.328125 14.59375 
Q 28.65625 6.59375 39.40625 6.59375 
Q 50.140625 6.59375 56.421875 14.59375 
Q 62.703125 22.609375 62.703125 36.375 
Q 62.703125 50.203125 56.421875 58.203125 
Q 50.140625 66.21875 39.40625 66.21875 
z
M 39.40625 74.21875 
Q 54.734375 74.21875 63.90625 63.9375 
Q 73.09375 53.65625 73.09375 36.375 
Q 73.09375 19.140625 63.90625 8.859375 
Q 54.734375 -1.421875 39.40625 -1.421875 
Q 24.03125 -1.421875 14.8125 8.828125 
Q 5.609375 19.09375 5.609375 36.375 
Q 5.609375 53.65625 14.8125 63.9375 
Q 24.03125 74.21875 39.40625 74.21875 
z
" id="DejaVuSans-79"/>
      <path d="M 8.6875 72.90625 
L 18.609375 72.90625 
L 18.609375 28.609375 
Q 18.609375 16.890625 22.84375 11.734375 
Q 27.09375 6.59375 36.625 6.59375 
Q 46.09375 6.59375 50.34375 11.734375 
Q 54.59375 16.890625 54.59375 28.609375 
L 54.59375 72.90625 
L 64.5 72.90625 
L 64.5 27.390625 
Q 64.5 13.140625 57.4375 5.859375 
Q 50.390625 -1.421875 36.625 -1.421875 
Q 22.796875 -1.421875 15.734375 5.859375 
Q 8.6875 13.140625 8.6875 27.390625 
z
" id="DejaVuSans-85"/>
      <path d="M -0.296875 72.90625 
L 61.375 72.90625 
L 61.375 64.59375 
L 35.5 64.59375 
L 35.5 0 
L 25.59375 0 
L 25.59375 64.59375 
L -0.296875 64.59375 
z
" id="DejaVuSans-84"/>
     </defs>
     <use xlink:href="#DejaVuSans-79"/>
     <use x="78.710938" xlink:href="#DejaVuSans-85"/>
     <use x="151.904297" xlink:href="#DejaVuSans-84"/>
    </g>
   </g>
  </g>
 </g>
 <defs>
  <clipPath id="pa9d8068af8">
   <rect height="295.834" width="655.2276" x="7.2" y="7.2"/>
  </clipPath>
 </defs>
</svg>
