<?xml version="1.0" encoding="utf-8" standalone="no"?>
<!DOCTYPE svg PUBLIC "-//W3C//DTD SVG 1.1//EN"
  "http://www.w3.org/Graphics/SVG/1.1/DTD/svg11.dtd">
<svg height="276.501025pt" version="1.1" viewBox="0 0 424.385937 276.501025" width="424.385937pt" xmlns="http://www.w3.org/2000/svg" xmlns:xlink="http://www.w3.org/1999/xlink">
 <metadata>
  <rdf:RDF xmlns:cc="http://creativecommons.org/ns#" xmlns:dc="http://purl.org/dc/elements/1.1/" xmlns:rdf="http://www.w3.org/1999/02/22-rdf-syntax-ns#">
   <cc:Work>
    <dc:type rdf:resource="http://purl.org/dc/dcmitype/StillImage"/>
    <dc:date>2021-05-24T10:13:14.486160</dc:date>
    <dc:format>image/svg+xml</dc:format>
    <dc:creator>
     <cc:Agent>
      <dc:title>Matplotlib v3.4.2, https://matplotlib.org/</dc:title>
     </cc:Agent>
    </dc:creator>
   </cc:Work>
  </rdf:RDF>
 </metadata>
 <defs>
  <style type="text/css">*{stroke-linecap:butt;stroke-linejoin:round;}</style>
 </defs>
 <g id="figure_1">
  <g id="patch_1">
   <path d="M 0 276.501025 
L 424.385937 276.501025 
L 424.385937 0 
L 0 0 
z
" style="fill:none;"/>
  </g>
  <g id="axes_1">
   <g id="patch_2">
    <path d="M 52.160938 238.944775 
L 417.185937 238.944775 
L 417.185937 8.056775 
L 52.160938 8.056775 
z
" style="fill:#ffffff;"/>
   </g>
   <g id="matplotlib.axis_1">
    <g id="xtick_1">
     <g id="line2d_1">
      <defs>
       <path d="M 0 0 
L 0 3.5 
" id="mb1fcd0e2f7" style="stroke:#000000;stroke-width:0.8;"/>
      </defs>
      <g>
       <use style="stroke:#000000;stroke-width:0.8;" x="68.752983" xlink:href="#mb1fcd0e2f7" y="238.944775"/>
      </g>
     </g>
     <g id="text_1">
      <!-- 0.0 -->
      <g transform="translate(60.80142 253.543213)scale(0.1 -0.1)">
       <defs>
        <path d="M 2034 4250 
Q 1547 4250 1301 3770 
Q 1056 3291 1056 2328 
Q 1056 1369 1301 889 
Q 1547 409 2034 409 
Q 2525 409 2770 889 
Q 3016 1369 3016 2328 
Q 3016 3291 2770 3770 
Q 2525 4250 2034 4250 
z
M 2034 4750 
Q 2819 4750 3233 4129 
Q 3647 3509 3647 2328 
Q 3647 1150 3233 529 
Q 2819 -91 2034 -91 
Q 1250 -91 836 529 
Q 422 1150 422 2328 
Q 422 3509 836 4129 
Q 1250 4750 2034 4750 
z
" id="DejaVuSans-30" transform="scale(0.015625)"/>
        <path d="M 684 794 
L 1344 794 
L 1344 0 
L 684 0 
L 684 794 
z
" id="DejaVuSans-2e" transform="scale(0.015625)"/>
       </defs>
       <use xlink:href="#DejaVuSans-30"/>
       <use x="63.623047" xlink:href="#DejaVuSans-2e"/>
       <use x="95.410156" xlink:href="#DejaVuSans-30"/>
      </g>
     </g>
    </g>
    <g id="xtick_2">
     <g id="line2d_2">
      <g>
       <use style="stroke:#000000;stroke-width:0.8;" x="110.160633" xlink:href="#mb1fcd0e2f7" y="238.944775"/>
      </g>
     </g>
     <g id="text_2">
      <!-- 0.5 -->
      <g transform="translate(102.209071 253.543213)scale(0.1 -0.1)">
       <defs>
        <path d="M 691 4666 
L 3169 4666 
L 3169 4134 
L 1269 4134 
L 1269 2991 
Q 1406 3038 1543 3061 
Q 1681 3084 1819 3084 
Q 2600 3084 3056 2656 
Q 3513 2228 3513 1497 
Q 3513 744 3044 326 
Q 2575 -91 1722 -91 
Q 1428 -91 1123 -41 
Q 819 9 494 109 
L 494 744 
Q 775 591 1075 516 
Q 1375 441 1709 441 
Q 2250 441 2565 725 
Q 2881 1009 2881 1497 
Q 2881 1984 2565 2268 
Q 2250 2553 1709 2553 
Q 1456 2553 1204 2497 
Q 953 2441 691 2322 
L 691 4666 
z
" id="DejaVuSans-35" transform="scale(0.015625)"/>
       </defs>
       <use xlink:href="#DejaVuSans-30"/>
       <use x="63.623047" xlink:href="#DejaVuSans-2e"/>
       <use x="95.410156" xlink:href="#DejaVuSans-35"/>
      </g>
     </g>
    </g>
    <g id="xtick_3">
     <g id="line2d_3">
      <g>
       <use style="stroke:#000000;stroke-width:0.8;" x="151.568283" xlink:href="#mb1fcd0e2f7" y="238.944775"/>
      </g>
     </g>
     <g id="text_3">
      <!-- 1.0 -->
      <g transform="translate(143.616721 253.543213)scale(0.1 -0.1)">
       <defs>
        <path d="M 794 531 
L 1825 531 
L 1825 4091 
L 703 3866 
L 703 4441 
L 1819 4666 
L 2450 4666 
L 2450 531 
L 3481 531 
L 3481 0 
L 794 0 
L 794 531 
z
" id="DejaVuSans-31" transform="scale(0.015625)"/>
       </defs>
       <use xlink:href="#DejaVuSans-31"/>
       <use x="63.623047" xlink:href="#DejaVuSans-2e"/>
       <use x="95.410156" xlink:href="#DejaVuSans-30"/>
      </g>
     </g>
    </g>
    <g id="xtick_4">
     <g id="line2d_4">
      <g>
       <use style="stroke:#000000;stroke-width:0.8;" x="192.975934" xlink:href="#mb1fcd0e2f7" y="238.944775"/>
      </g>
     </g>
     <g id="text_4">
      <!-- 1.5 -->
      <g transform="translate(185.024371 253.543213)scale(0.1 -0.1)">
       <use xlink:href="#DejaVuSans-31"/>
       <use x="63.623047" xlink:href="#DejaVuSans-2e"/>
       <use x="95.410156" xlink:href="#DejaVuSans-35"/>
      </g>
     </g>
    </g>
    <g id="xtick_5">
     <g id="line2d_5">
      <g>
       <use style="stroke:#000000;stroke-width:0.8;" x="234.383584" xlink:href="#mb1fcd0e2f7" y="238.944775"/>
      </g>
     </g>
     <g id="text_5">
      <!-- 2.0 -->
      <g transform="translate(226.432021 253.543213)scale(0.1 -0.1)">
       <defs>
        <path d="M 1228 531 
L 3431 531 
L 3431 0 
L 469 0 
L 469 531 
Q 828 903 1448 1529 
Q 2069 2156 2228 2338 
Q 2531 2678 2651 2914 
Q 2772 3150 2772 3378 
Q 2772 3750 2511 3984 
Q 2250 4219 1831 4219 
Q 1534 4219 1204 4116 
Q 875 4013 500 3803 
L 500 4441 
Q 881 4594 1212 4672 
Q 1544 4750 1819 4750 
Q 2544 4750 2975 4387 
Q 3406 4025 3406 3419 
Q 3406 3131 3298 2873 
Q 3191 2616 2906 2266 
Q 2828 2175 2409 1742 
Q 1991 1309 1228 531 
z
" id="DejaVuSans-32" transform="scale(0.015625)"/>
       </defs>
       <use xlink:href="#DejaVuSans-32"/>
       <use x="63.623047" xlink:href="#DejaVuSans-2e"/>
       <use x="95.410156" xlink:href="#DejaVuSans-30"/>
      </g>
     </g>
    </g>
    <g id="xtick_6">
     <g id="line2d_6">
      <g>
       <use style="stroke:#000000;stroke-width:0.8;" x="275.791234" xlink:href="#mb1fcd0e2f7" y="238.944775"/>
      </g>
     </g>
     <g id="text_6">
      <!-- 2.5 -->
      <g transform="translate(267.839672 253.543213)scale(0.1 -0.1)">
       <use xlink:href="#DejaVuSans-32"/>
       <use x="63.623047" xlink:href="#DejaVuSans-2e"/>
       <use x="95.410156" xlink:href="#DejaVuSans-35"/>
      </g>
     </g>
    </g>
    <g id="xtick_7">
     <g id="line2d_7">
      <g>
       <use style="stroke:#000000;stroke-width:0.8;" x="317.198884" xlink:href="#mb1fcd0e2f7" y="238.944775"/>
      </g>
     </g>
     <g id="text_7">
      <!-- 3.0 -->
      <g transform="translate(309.247322 253.543213)scale(0.1 -0.1)">
       <defs>
        <path d="M 2597 2516 
Q 3050 2419 3304 2112 
Q 3559 1806 3559 1356 
Q 3559 666 3084 287 
Q 2609 -91 1734 -91 
Q 1441 -91 1130 -33 
Q 819 25 488 141 
L 488 750 
Q 750 597 1062 519 
Q 1375 441 1716 441 
Q 2309 441 2620 675 
Q 2931 909 2931 1356 
Q 2931 1769 2642 2001 
Q 2353 2234 1838 2234 
L 1294 2234 
L 1294 2753 
L 1863 2753 
Q 2328 2753 2575 2939 
Q 2822 3125 2822 3475 
Q 2822 3834 2567 4026 
Q 2313 4219 1838 4219 
Q 1578 4219 1281 4162 
Q 984 4106 628 3988 
L 628 4550 
Q 988 4650 1302 4700 
Q 1616 4750 1894 4750 
Q 2613 4750 3031 4423 
Q 3450 4097 3450 3541 
Q 3450 3153 3228 2886 
Q 3006 2619 2597 2516 
z
" id="DejaVuSans-33" transform="scale(0.015625)"/>
       </defs>
       <use xlink:href="#DejaVuSans-33"/>
       <use x="63.623047" xlink:href="#DejaVuSans-2e"/>
       <use x="95.410156" xlink:href="#DejaVuSans-30"/>
      </g>
     </g>
    </g>
    <g id="xtick_8">
     <g id="line2d_8">
      <g>
       <use style="stroke:#000000;stroke-width:0.8;" x="358.606535" xlink:href="#mb1fcd0e2f7" y="238.944775"/>
      </g>
     </g>
     <g id="text_8">
      <!-- 3.5 -->
      <g transform="translate(350.654972 253.543213)scale(0.1 -0.1)">
       <use xlink:href="#DejaVuSans-33"/>
       <use x="63.623047" xlink:href="#DejaVuSans-2e"/>
       <use x="95.410156" xlink:href="#DejaVuSans-35"/>
      </g>
     </g>
    </g>
    <g id="xtick_9">
     <g id="line2d_9">
      <g>
       <use style="stroke:#000000;stroke-width:0.8;" x="400.014185" xlink:href="#mb1fcd0e2f7" y="238.944775"/>
      </g>
     </g>
     <g id="text_9">
      <!-- 4.0 -->
      <g transform="translate(392.062622 253.543213)scale(0.1 -0.1)">
       <defs>
        <path d="M 2419 4116 
L 825 1625 
L 2419 1625 
L 2419 4116 
z
M 2253 4666 
L 3047 4666 
L 3047 1625 
L 3713 1625 
L 3713 1100 
L 3047 1100 
L 3047 0 
L 2419 0 
L 2419 1100 
L 313 1100 
L 313 1709 
L 2253 4666 
z
" id="DejaVuSans-34" transform="scale(0.015625)"/>
       </defs>
       <use xlink:href="#DejaVuSans-34"/>
       <use x="63.623047" xlink:href="#DejaVuSans-2e"/>
       <use x="95.410156" xlink:href="#DejaVuSans-30"/>
      </g>
     </g>
    </g>
    <g id="text_10">
     <!-- time (ms) -->
     <g transform="translate(210.411719 267.221338)scale(0.1 -0.1)">
      <defs>
       <path d="M 1172 4494 
L 1172 3500 
L 2356 3500 
L 2356 3053 
L 1172 3053 
L 1172 1153 
Q 1172 725 1289 603 
Q 1406 481 1766 481 
L 2356 481 
L 2356 0 
L 1766 0 
Q 1100 0 847 248 
Q 594 497 594 1153 
L 594 3053 
L 172 3053 
L 172 3500 
L 594 3500 
L 594 4494 
L 1172 4494 
z
" id="DejaVuSans-74" transform="scale(0.015625)"/>
       <path d="M 603 3500 
L 1178 3500 
L 1178 0 
L 603 0 
L 603 3500 
z
M 603 4863 
L 1178 4863 
L 1178 4134 
L 603 4134 
L 603 4863 
z
" id="DejaVuSans-69" transform="scale(0.015625)"/>
       <path d="M 3328 2828 
Q 3544 3216 3844 3400 
Q 4144 3584 4550 3584 
Q 5097 3584 5394 3201 
Q 5691 2819 5691 2113 
L 5691 0 
L 5113 0 
L 5113 2094 
Q 5113 2597 4934 2840 
Q 4756 3084 4391 3084 
Q 3944 3084 3684 2787 
Q 3425 2491 3425 1978 
L 3425 0 
L 2847 0 
L 2847 2094 
Q 2847 2600 2669 2842 
Q 2491 3084 2119 3084 
Q 1678 3084 1418 2786 
Q 1159 2488 1159 1978 
L 1159 0 
L 581 0 
L 581 3500 
L 1159 3500 
L 1159 2956 
Q 1356 3278 1631 3431 
Q 1906 3584 2284 3584 
Q 2666 3584 2933 3390 
Q 3200 3197 3328 2828 
z
" id="DejaVuSans-6d" transform="scale(0.015625)"/>
       <path d="M 3597 1894 
L 3597 1613 
L 953 1613 
Q 991 1019 1311 708 
Q 1631 397 2203 397 
Q 2534 397 2845 478 
Q 3156 559 3463 722 
L 3463 178 
Q 3153 47 2828 -22 
Q 2503 -91 2169 -91 
Q 1331 -91 842 396 
Q 353 884 353 1716 
Q 353 2575 817 3079 
Q 1281 3584 2069 3584 
Q 2775 3584 3186 3129 
Q 3597 2675 3597 1894 
z
M 3022 2063 
Q 3016 2534 2758 2815 
Q 2500 3097 2075 3097 
Q 1594 3097 1305 2825 
Q 1016 2553 972 2059 
L 3022 2063 
z
" id="DejaVuSans-65" transform="scale(0.015625)"/>
       <path id="DejaVuSans-20" transform="scale(0.015625)"/>
       <path d="M 1984 4856 
Q 1566 4138 1362 3434 
Q 1159 2731 1159 2009 
Q 1159 1288 1364 580 
Q 1569 -128 1984 -844 
L 1484 -844 
Q 1016 -109 783 600 
Q 550 1309 550 2009 
Q 550 2706 781 3412 
Q 1013 4119 1484 4856 
L 1984 4856 
z
" id="DejaVuSans-28" transform="scale(0.015625)"/>
       <path d="M 2834 3397 
L 2834 2853 
Q 2591 2978 2328 3040 
Q 2066 3103 1784 3103 
Q 1356 3103 1142 2972 
Q 928 2841 928 2578 
Q 928 2378 1081 2264 
Q 1234 2150 1697 2047 
L 1894 2003 
Q 2506 1872 2764 1633 
Q 3022 1394 3022 966 
Q 3022 478 2636 193 
Q 2250 -91 1575 -91 
Q 1294 -91 989 -36 
Q 684 19 347 128 
L 347 722 
Q 666 556 975 473 
Q 1284 391 1588 391 
Q 1994 391 2212 530 
Q 2431 669 2431 922 
Q 2431 1156 2273 1281 
Q 2116 1406 1581 1522 
L 1381 1569 
Q 847 1681 609 1914 
Q 372 2147 372 2553 
Q 372 3047 722 3315 
Q 1072 3584 1716 3584 
Q 2034 3584 2315 3537 
Q 2597 3491 2834 3397 
z
" id="DejaVuSans-73" transform="scale(0.015625)"/>
       <path d="M 513 4856 
L 1013 4856 
Q 1481 4119 1714 3412 
Q 1947 2706 1947 2009 
Q 1947 1309 1714 600 
Q 1481 -109 1013 -844 
L 513 -844 
Q 928 -128 1133 580 
Q 1338 1288 1338 2009 
Q 1338 2731 1133 3434 
Q 928 4138 513 4856 
z
" id="DejaVuSans-29" transform="scale(0.015625)"/>
      </defs>
      <use xlink:href="#DejaVuSans-74"/>
      <use x="39.208984" xlink:href="#DejaVuSans-69"/>
      <use x="66.992188" xlink:href="#DejaVuSans-6d"/>
      <use x="164.404297" xlink:href="#DejaVuSans-65"/>
      <use x="225.927734" xlink:href="#DejaVuSans-20"/>
      <use x="257.714844" xlink:href="#DejaVuSans-28"/>
      <use x="296.728516" xlink:href="#DejaVuSans-6d"/>
      <use x="394.140625" xlink:href="#DejaVuSans-73"/>
      <use x="446.240234" xlink:href="#DejaVuSans-29"/>
     </g>
    </g>
   </g>
   <g id="matplotlib.axis_2">
    <g id="ytick_1">
     <g id="line2d_10">
      <defs>
       <path d="M 0 0 
L -3.5 0 
" id="m44e110f60a" style="stroke:#000000;stroke-width:0.8;"/>
      </defs>
      <g>
       <use style="stroke:#000000;stroke-width:0.8;" x="52.160938" xlink:href="#m44e110f60a" y="212.937261"/>
      </g>
     </g>
     <g id="text_11">
      <!-- −1.5 -->
      <g transform="translate(20.878125 216.736479)scale(0.1 -0.1)">
       <defs>
        <path d="M 678 2272 
L 4684 2272 
L 4684 1741 
L 678 1741 
L 678 2272 
z
" id="DejaVuSans-2212" transform="scale(0.015625)"/>
       </defs>
       <use xlink:href="#DejaVuSans-2212"/>
       <use x="83.789062" xlink:href="#DejaVuSans-31"/>
       <use x="147.412109" xlink:href="#DejaVuSans-2e"/>
       <use x="179.199219" xlink:href="#DejaVuSans-35"/>
      </g>
     </g>
    </g>
    <g id="ytick_2">
     <g id="line2d_11">
      <g>
       <use style="stroke:#000000;stroke-width:0.8;" x="52.160938" xlink:href="#m44e110f60a" y="183.125099"/>
      </g>
     </g>
     <g id="text_12">
      <!-- −1.0 -->
      <g transform="translate(20.878125 186.924318)scale(0.1 -0.1)">
       <use xlink:href="#DejaVuSans-2212"/>
       <use x="83.789062" xlink:href="#DejaVuSans-31"/>
       <use x="147.412109" xlink:href="#DejaVuSans-2e"/>
       <use x="179.199219" xlink:href="#DejaVuSans-30"/>
      </g>
     </g>
    </g>
    <g id="ytick_3">
     <g id="line2d_12">
      <g>
       <use style="stroke:#000000;stroke-width:0.8;" x="52.160938" xlink:href="#m44e110f60a" y="153.312937"/>
      </g>
     </g>
     <g id="text_13">
      <!-- −0.5 -->
      <g transform="translate(20.878125 157.112156)scale(0.1 -0.1)">
       <use xlink:href="#DejaVuSans-2212"/>
       <use x="83.789062" xlink:href="#DejaVuSans-30"/>
       <use x="147.412109" xlink:href="#DejaVuSans-2e"/>
       <use x="179.199219" xlink:href="#DejaVuSans-35"/>
      </g>
     </g>
    </g>
    <g id="ytick_4">
     <g id="line2d_13">
      <g>
       <use style="stroke:#000000;stroke-width:0.8;" x="52.160938" xlink:href="#m44e110f60a" y="123.500775"/>
      </g>
     </g>
     <g id="text_14">
      <!-- 0.0 -->
      <g transform="translate(29.257812 127.299994)scale(0.1 -0.1)">
       <use xlink:href="#DejaVuSans-30"/>
       <use x="63.623047" xlink:href="#DejaVuSans-2e"/>
       <use x="95.410156" xlink:href="#DejaVuSans-30"/>
      </g>
     </g>
    </g>
    <g id="ytick_5">
     <g id="line2d_14">
      <g>
       <use style="stroke:#000000;stroke-width:0.8;" x="52.160938" xlink:href="#m44e110f60a" y="93.688613"/>
      </g>
     </g>
     <g id="text_15">
      <!-- 0.5 -->
      <g transform="translate(29.257812 97.487832)scale(0.1 -0.1)">
       <use xlink:href="#DejaVuSans-30"/>
       <use x="63.623047" xlink:href="#DejaVuSans-2e"/>
       <use x="95.410156" xlink:href="#DejaVuSans-35"/>
      </g>
     </g>
    </g>
    <g id="ytick_6">
     <g id="line2d_15">
      <g>
       <use style="stroke:#000000;stroke-width:0.8;" x="52.160938" xlink:href="#m44e110f60a" y="63.876451"/>
      </g>
     </g>
     <g id="text_16">
      <!-- 1.0 -->
      <g transform="translate(29.257812 67.67567)scale(0.1 -0.1)">
       <use xlink:href="#DejaVuSans-31"/>
       <use x="63.623047" xlink:href="#DejaVuSans-2e"/>
       <use x="95.410156" xlink:href="#DejaVuSans-30"/>
      </g>
     </g>
    </g>
    <g id="ytick_7">
     <g id="line2d_16">
      <g>
       <use style="stroke:#000000;stroke-width:0.8;" x="52.160938" xlink:href="#m44e110f60a" y="34.064289"/>
      </g>
     </g>
     <g id="text_17">
      <!-- 1.5 -->
      <g transform="translate(29.257812 37.863508)scale(0.1 -0.1)">
       <use xlink:href="#DejaVuSans-31"/>
       <use x="63.623047" xlink:href="#DejaVuSans-2e"/>
       <use x="95.410156" xlink:href="#DejaVuSans-35"/>
      </g>
     </g>
    </g>
    <g id="text_18">
     <!-- IN [V] -->
     <g transform="translate(14.798438 137.627338)rotate(-90)scale(0.1 -0.1)">
      <defs>
       <path d="M 628 4666 
L 1259 4666 
L 1259 0 
L 628 0 
L 628 4666 
z
" id="DejaVuSans-49" transform="scale(0.015625)"/>
       <path d="M 628 4666 
L 1478 4666 
L 3547 763 
L 3547 4666 
L 4159 4666 
L 4159 0 
L 3309 0 
L 1241 3903 
L 1241 0 
L 628 0 
L 628 4666 
z
" id="DejaVuSans-4e" transform="scale(0.015625)"/>
       <path d="M 550 4863 
L 1875 4863 
L 1875 4416 
L 1125 4416 
L 1125 -397 
L 1875 -397 
L 1875 -844 
L 550 -844 
L 550 4863 
z
" id="DejaVuSans-5b" transform="scale(0.015625)"/>
       <path d="M 1831 0 
L 50 4666 
L 709 4666 
L 2188 738 
L 3669 4666 
L 4325 4666 
L 2547 0 
L 1831 0 
z
" id="DejaVuSans-56" transform="scale(0.015625)"/>
       <path d="M 1947 4863 
L 1947 -844 
L 622 -844 
L 622 -397 
L 1369 -397 
L 1369 4416 
L 622 4416 
L 622 4863 
L 1947 4863 
z
" id="DejaVuSans-5d" transform="scale(0.015625)"/>
      </defs>
      <use xlink:href="#DejaVuSans-49"/>
      <use x="29.492188" xlink:href="#DejaVuSans-4e"/>
      <use x="104.296875" xlink:href="#DejaVuSans-20"/>
      <use x="136.083984" xlink:href="#DejaVuSans-5b"/>
      <use x="175.097656" xlink:href="#DejaVuSans-56"/>
      <use x="243.505859" xlink:href="#DejaVuSans-5d"/>
     </g>
    </g>
   </g>
   <g id="line2d_17">
    <path clip-path="url(#p752d9d8314)" d="M 68.752983 123.500775 
L 74.135977 159.271505 
L 76.951698 176.489992 
L 79.270526 189.350905 
L 81.258093 199.192757 
L 83.08003 207.115679 
L 84.653521 213.032534 
L 86.144196 217.79606 
L 87.469241 221.313612 
L 88.71147 223.981796 
L 89.788069 225.793497 
L 90.781853 227.049908 
L 91.692821 227.850266 
L 92.520974 228.287066 
L 93.266312 228.444878 
L 94.01165 228.381778 
L 94.756987 228.100339 
L 95.58514 227.535436 
L 96.496109 226.613503 
L 97.489892 225.258053 
L 98.566491 223.391807 
L 99.808721 220.747231 
L 101.133765 217.379897 
L 102.624441 212.969084 
L 104.363562 207.075954 
L 106.351129 199.497663 
L 108.752773 189.396703 
L 112.065385 174.382971 
L 118.85624 143.366306 
L 121.423514 132.7935 
L 123.576712 124.828488 
L 125.481464 118.614725 
L 127.13777 113.92457 
L 128.628445 110.313481 
L 130.036305 107.458368 
L 131.278535 105.399202 
L 132.437949 103.871406 
L 133.514548 102.794148 
L 134.508332 102.089792 
L 135.502115 101.660282 
L 136.413083 101.503507 
L 137.324052 101.567867 
L 138.23502 101.846792 
L 139.228804 102.386681 
L 140.305403 103.23591 
L 141.464817 104.43923 
L 142.789862 106.151791 
L 144.280537 108.462167 
L 146.019658 111.593011 
L 148.172856 115.968953 
L 151.319838 122.938887 
L 155.709048 132.598405 
L 157.862246 136.801821 
L 159.601368 139.741977 
L 161.092043 141.855349 
L 162.417088 143.369162 
L 163.576502 144.382158 
L 164.653101 145.042437 
L 165.646885 145.398718 
L 166.557853 145.502612 
L 167.468821 145.386479 
L 168.379789 145.044725 
L 169.290758 144.472981 
L 170.284541 143.583322 
L 171.36114 142.303836 
L 172.520554 140.558266 
L 173.762784 138.267941 
L 175.087829 135.354438 
L 176.578504 131.514531 
L 178.23481 126.584981 
L 180.056747 120.418476 
L 182.127129 112.574792 
L 184.528773 102.561239 
L 187.675754 88.41297 
L 195.460393 52.968582 
L 197.862036 43.297328 
L 199.849604 36.188022 
L 201.588725 30.783246 
L 203.0794 26.843876 
L 204.404445 23.932511 
L 205.563859 21.872564 
L 206.640458 20.388047 
L 207.634242 19.397812 
L 208.462395 18.859251 
L 209.290548 18.586781 
L 210.035886 18.572572 
L 210.781223 18.779763 
L 211.526561 19.210174 
L 212.354714 19.951642 
L 213.265682 21.088077 
L 214.259466 22.710631 
L 215.336065 24.916334 
L 216.495479 27.806151 
L 217.820524 31.748375 
L 219.228384 36.660805 
L 220.801875 42.992793 
L 222.540996 50.957121 
L 224.445748 60.735939 
L 226.681761 73.435721 
L 229.331851 89.847284 
L 232.975724 113.96131 
L 240.09784 161.371878 
L 242.830745 177.931314 
L 245.066758 190.215376 
L 247.054325 199.95823 
L 248.793446 207.449068 
L 250.366937 213.319049 
L 251.857612 218.035913 
L 253.182657 221.510588 
L 254.342071 223.981796 
L 255.41867 225.793497 
L 256.412454 227.049908 
L 257.323422 227.850266 
L 258.151575 228.287066 
L 258.896913 228.444878 
L 259.642251 228.381778 
L 260.387588 228.100339 
L 261.215741 227.535436 
L 262.12671 226.613503 
L 263.120493 225.258053 
L 264.197092 223.391807 
L 265.439322 220.747231 
L 266.764366 217.379897 
L 268.255042 212.969084 
L 269.994163 207.075954 
L 271.98173 199.497663 
L 274.383374 189.396703 
L 277.695986 174.382971 
L 284.486841 143.366306 
L 287.054115 132.7935 
L 289.207313 124.828488 
L 291.112065 118.614725 
L 292.768371 113.92457 
L 294.259046 110.313481 
L 295.666906 107.458368 
L 296.909136 105.399202 
L 298.06855 103.871406 
L 299.145149 102.794148 
L 300.138933 102.089792 
L 301.132716 101.660282 
L 302.043684 101.503507 
L 302.954653 101.567867 
L 303.865621 101.846792 
L 304.859405 102.386681 
L 305.936004 103.23591 
L 307.095418 104.43923 
L 308.420463 106.151791 
L 309.911138 108.462167 
L 311.650259 111.593011 
L 313.803457 115.968953 
L 316.950439 122.938887 
L 321.339649 132.598405 
L 323.492847 136.801821 
L 325.231969 139.741977 
L 326.722644 141.855349 
L 328.047689 143.369162 
L 329.207103 144.382158 
L 330.283702 145.042437 
L 331.277486 145.398718 
L 332.188454 145.502612 
L 333.099422 145.386479 
L 334.01039 145.044725 
L 334.921359 144.472981 
L 335.915142 143.583322 
L 336.991741 142.303836 
L 338.151155 140.558266 
L 339.393385 138.267941 
L 340.71843 135.354438 
L 342.209105 131.514531 
L 343.865411 126.584981 
L 345.687348 120.418476 
L 347.75773 112.574792 
L 350.159374 102.561239 
L 353.306355 88.41297 
L 361.090994 52.968582 
L 363.492637 43.297328 
L 365.480205 36.188022 
L 367.219326 30.783246 
L 368.710001 26.843876 
L 370.035046 23.932511 
L 371.19446 21.872564 
L 372.271059 20.388047 
L 373.264843 19.397812 
L 374.092996 18.859251 
L 374.921149 18.586781 
L 375.666487 18.572572 
L 376.411824 18.779763 
L 377.157162 19.210174 
L 377.985315 19.951642 
L 378.896283 21.088077 
L 379.890067 22.710631 
L 380.966666 24.916334 
L 382.12608 27.806151 
L 383.451125 31.748375 
L 384.858985 36.660805 
L 386.432476 42.992793 
L 388.171597 50.957121 
L 390.076349 60.735939 
L 392.312362 73.435721 
L 394.962452 89.847284 
L 398.606325 113.96131 
L 400.593892 127.433446 
L 400.593892 127.433446 
" style="fill:none;stroke:#d3d3d3;stroke-linecap:square;stroke-width:5;"/>
   </g>
   <g id="line2d_18">
    <path clip-path="url(#p752d9d8314)" d="M 68.752983 123.500775 
L 68.937182 123.405239 
L 69.102813 123.474602 
L 69.351259 124.246963 
L 70.096596 127.862744 
L 71.670087 136.876583 
L 78.626572 177.919904 
L 80.77977 188.83989 
L 82.601707 196.979163 
L 84.258013 203.381079 
L 85.748688 208.261212 
L 87.073733 211.85943 
L 88.233147 214.417139 
L 89.309746 216.288293 
L 90.30353 217.580129 
L 91.214498 218.39567 
L 92.042651 218.831507 
L 92.787989 218.976283 
L 93.533326 218.888625 
L 94.278664 218.571226 
L 95.106817 217.953283 
L 96.017785 216.957661 
L 97.011569 215.50448 
L 98.088168 213.513565 
L 99.330397 210.703725 
L 100.655442 207.13929 
L 102.146118 202.488272 
L 103.885239 196.302791 
L 105.955621 188.050498 
L 108.522896 176.828407 
L 113.74026 152.680652 
L 116.72161 139.533949 
L 118.709178 131.702036 
L 120.117038 126.953531 
L 121.028006 124.50539 
L 121.607713 123.469716 
L 121.856159 123.293637 
L 122.104605 123.426642 
L 122.353051 123.549333 
L 122.601497 123.372776 
L 123.098389 122.562656 
L 124.174988 120.229732 
L 128.067307 111.446974 
L 129.640797 108.545259 
L 131.048657 106.414466 
L 132.290887 104.930102 
L 133.450301 103.891889 
L 134.5269 103.231581 
L 135.520684 102.880603 
L 136.514467 102.773792 
L 137.508251 102.904602 
L 138.502035 103.264075 
L 139.578633 103.898458 
L 140.738048 104.847246 
L 142.063092 106.23717 
L 143.553768 108.138314 
L 145.375704 110.846408 
L 148.025794 115.240946 
L 151.255591 120.530806 
L 152.580636 122.315412 
L 153.491604 123.206115 
L 154.071311 123.495227 
L 154.402572 123.480135 
L 155.14791 123.246066 
L 155.644802 123.636854 
L 156.638585 124.780002 
L 161.524688 130.792783 
L 162.932548 132.024672 
L 164.174778 132.811418 
L 165.251377 133.239668 
L 166.24516 133.411539 
L 167.238944 133.359702 
L 168.232727 133.078632 
L 169.226511 132.566479 
L 170.30311 131.753751 
L 171.462524 130.590083 
L 172.787569 128.92715 
L 174.52669 126.339523 
L 176.348627 123.691647 
L 176.845519 123.296504 
L 177.093965 123.301635 
L 177.590856 123.568204 
L 177.922118 123.352411 
L 178.419009 122.673122 
L 179.164347 121.252342 
L 180.240946 118.655559 
L 181.565991 114.824549 
L 183.222297 109.284763 
L 185.209864 101.794492 
L 187.777138 91.16919 
L 197.466528 50.062902 
L 199.454096 43.061287 
L 201.193217 37.728824 
L 202.683892 33.845538 
L 204.008937 30.985479 
L 205.168351 28.974952 
L 206.24495 27.542192 
L 207.155919 26.669559 
L 207.984072 26.154431 
L 208.729409 25.92211 
L 209.474747 25.91236 
L 210.220085 26.127781 
L 210.965422 26.570251 
L 211.793575 27.329543 
L 212.704544 28.490681 
L 213.698327 30.145609 
L 214.774926 32.391483 
L 215.93434 35.328239 
L 217.259385 39.324564 
L 218.667245 44.288003 
L 220.240736 50.656912 
L 222.062673 59.017184 
L 224.133055 69.623064 
L 226.70033 84.018129 
L 232.911477 119.463394 
L 233.73963 122.782244 
L 234.070891 123.518004 
L 234.236522 123.57701 
L 234.484968 123.467155 
L 234.650598 123.846387 
L 235.14749 126.035627 
L 236.306904 132.343779 
L 238.874179 147.85308 
L 242.849313 171.621386 
L 245.168142 184.189637 
L 247.155709 193.798898 
L 248.89483 201.158794 
L 250.468321 206.880468 
L 251.876181 211.19164 
L 253.11841 214.332901 
L 254.277825 216.688186 
L 255.271608 218.2566 
L 256.182577 219.326097 
L 257.01073 219.992097 
L 257.756067 220.342672 
L 258.501405 220.458858 
L 259.246743 220.342704 
L 259.99208 219.996987 
L 260.820233 219.347884 
L 261.731202 218.318475 
L 262.724985 216.829172 
L 263.801584 214.800174 
L 265.043814 211.94799 
L 266.451674 208.096769 
L 268.025165 203.083742 
L 269.764286 196.77855 
L 271.834668 188.407828 
L 274.484758 176.699698 
L 283.345995 136.675931 
L 285.167932 129.865696 
L 286.410161 125.978983 
L 287.238314 124.013094 
L 287.652391 123.417633 
L 287.900837 123.32786 
L 288.397728 123.560707 
L 288.646174 123.325035 
L 289.225881 122.334061 
L 290.468111 119.637917 
L 293.615092 112.718676 
L 295.188583 109.817803 
L 296.596443 107.674842 
L 297.838673 106.173153 
L 298.998087 105.114855 
L 300.074686 104.433417 
L 301.068469 104.061351 
L 302.062253 103.932314 
L 303.056037 104.040049 
L 304.04982 104.37582 
L 305.126419 104.984012 
L 306.285833 105.904142 
L 307.610878 107.260798 
L 309.101554 109.123664 
L 310.92349 111.782663 
L 313.656395 116.23202 
L 316.554931 120.857644 
L 317.879975 122.575419 
L 318.708128 123.322316 
L 319.20502 123.532005 
L 319.536281 123.487396 
L 320.115989 123.235919 
L 320.530065 123.500105 
L 321.358218 124.409591 
L 323.097339 126.754542 
L 325.747429 130.261002 
L 327.32092 131.98602 
L 328.645964 133.131134 
L 329.805379 133.862732 
L 330.881978 134.293308 
L 331.875761 134.464439 
L 332.869545 134.409149 
L 333.863328 134.121784 
L 334.857112 133.600158 
L 335.933711 132.772851 
L 337.093125 131.58685 
L 338.41817 129.885644 
L 339.991661 127.476825 
L 342.393304 123.729721 
L 342.890196 123.323554 
L 343.138642 123.343614 
L 343.635534 123.588127 
L 343.966795 123.332112 
L 344.546502 122.456961 
L 345.374655 120.733495 
L 346.451254 117.958654 
L 347.859114 113.672568 
L 349.598235 107.598495 
L 351.751433 99.192927 
L 354.649969 86.88753 
L 361.689269 56.636087 
L 363.925282 48.17406 
L 365.830034 41.811992 
L 367.403525 37.273018 
L 368.811385 33.837967 
L 370.053615 31.344366 
L 371.213029 29.502561 
L 372.206813 28.315506 
L 373.117781 27.556549 
L 373.945934 27.147047 
L 374.691272 27.011293 
L 375.436609 27.099209 
L 376.181947 27.413075 
L 377.0101 28.028679 
L 377.838253 28.926185 
L 378.749221 30.238899 
L 379.743005 32.057736 
L 380.902419 34.683676 
L 382.144649 38.086746 
L 383.469693 42.366736 
L 384.960369 47.944586 
L 386.616675 55.021643 
L 388.521427 64.180948 
L 390.75744 76.086686 
L 393.821606 93.750853 
L 397.713925 116.105861 
L 398.873339 121.576254 
L 399.453046 123.38464 
L 399.701492 123.608792 
L 399.949938 123.475172 
L 400.014185 123.556106 
L 400.014185 123.556106 
" style="fill:none;stroke:#ff0000;stroke-linecap:square;stroke-width:1.5;"/>
   </g>
   <g id="line2d_19">
    <path clip-path="url(#p752d9d8314)" d="M 68.752983 123.500775 
L 69.107432 123.406722 
L 69.438694 123.472811 
L 69.935585 123.913537 
L 70.846554 125.088019 
L 72.585675 127.775008 
L 76.146733 133.314445 
L 77.885854 135.588431 
L 79.293714 137.088086 
L 80.535944 138.108751 
L 81.695358 138.775825 
L 82.771957 139.129271 
L 83.765741 139.216171 
L 84.759524 139.065157 
L 85.753308 138.671117 
L 86.747091 138.031902 
L 87.82369 137.064152 
L 88.983105 135.709288 
L 90.308149 133.785153 
L 91.798825 131.196159 
L 93.952023 126.928944 
L 95.442698 124.154448 
L 95.93959 123.573883 
L 96.188036 123.497718 
L 96.850558 123.686594 
L 97.264635 123.137389 
L 97.927157 121.803694 
L 98.920941 119.240072 
L 100.245985 115.148546 
L 101.902291 109.281941 
L 104.055489 100.787517 
L 107.202471 87.351054 
L 112.833911 63.233343 
L 115.15274 54.317983 
L 117.057491 47.812087 
L 118.713797 42.900975 
L 120.204473 39.164945 
L 121.529518 36.444697 
L 122.688932 34.562393 
L 123.682715 33.338119 
L 124.593684 32.543186 
L 125.421837 32.099561 
L 126.167174 31.932031 
L 126.912512 31.987237 
L 127.65785 32.267528 
L 128.486003 32.844894 
L 129.314156 33.703262 
L 130.225124 34.971977 
L 131.218908 36.741794 
L 132.295507 39.108176 
L 133.537736 42.407291 
L 134.862781 46.576632 
L 136.353456 52.030835 
L 138.009762 58.971937 
L 139.914514 67.976487 
L 142.150527 79.699626 
L 145.214694 97.088388 
L 148.775752 117.100213 
L 149.85235 122.015675 
L 150.349242 123.518472 
L 150.597688 123.768546 
L 150.846134 123.622755 
L 151.011765 123.9286 
L 151.425841 125.667784 
L 152.419625 130.940533 
L 154.490007 143.384035 
L 160.121448 177.613825 
L 162.440276 190.173262 
L 164.427843 199.745456 
L 166.166965 207.056785 
L 167.740455 212.724494 
L 169.148315 216.980938 
L 170.390545 220.069812 
L 171.549959 222.37337 
L 172.543743 223.895663 
L 173.454711 224.921698 
L 174.282864 225.547386 
L 175.028202 225.861153 
L 175.773539 225.940135 
L 176.518877 225.786477 
L 177.264215 225.403046 
L 178.092368 224.711893 
L 179.003336 223.636177 
L 179.99712 222.096442 
L 181.073719 220.01308 
L 182.315948 217.098724 
L 183.723808 213.178 
L 185.297299 208.088715 
L 187.119236 201.379053 
L 189.272433 192.52315 
L 192.005338 180.25564 
L 200.61813 140.804098 
L 202.605697 133.091911 
L 204.096372 128.118814 
L 205.172971 125.200775 
L 205.835494 123.90078 
L 206.24957 123.481769 
L 206.498016 123.540124 
L 206.829277 123.736856 
L 207.077723 123.597697 
L 207.574615 122.912694 
L 208.651214 120.914804 
L 211.963826 114.589962 
L 213.454501 112.283964 
L 214.779546 110.637048 
L 215.93896 109.531875 
L 217.015559 108.795297 
L 218.009343 108.364683 
L 219.003126 108.171263 
L 219.99691 108.209861 
L 220.990694 108.472514 
L 222.067292 108.99757 
L 223.226707 109.823888 
L 224.551751 111.067595 
L 226.042427 112.794257 
L 227.864363 115.266443 
L 233.330173 122.96755 
L 234.075511 123.558172 
L 234.572403 123.68017 
L 234.903664 123.52215 
L 235.234925 123.37087 
L 235.566186 123.529595 
L 236.145894 124.127573 
L 237.222492 125.599981 
L 239.872582 129.740429 
L 242.19141 133.163111 
L 243.847716 135.229564 
L 245.255577 136.64138 
L 246.497806 137.577378 
L 247.574405 138.128634 
L 248.568189 138.408343 
L 249.561972 138.457684 
L 250.555756 138.269268 
L 251.549539 137.838543 
L 252.543323 137.164038 
L 253.619922 136.160624 
L 254.779336 134.771955 
L 256.104381 132.818378 
L 257.677872 130.061553 
L 261.156114 123.69447 
L 261.487375 123.461754 
L 261.735821 123.543843 
L 262.067083 123.737867 
L 262.315528 123.598036 
L 262.729605 123.014783 
L 263.474943 121.478897 
L 264.468726 118.879555 
L 265.793771 114.770234 
L 267.532892 108.586829 
L 269.68609 100.061383 
L 272.833072 86.599889 
L 278.381697 62.798397 
L 280.783341 53.545494 
L 282.688092 47.038796 
L 284.344398 42.127818 
L 285.835074 38.392481 
L 287.160119 35.673262 
L 288.319533 33.792153 
L 289.313316 32.569113 
L 290.224285 31.775476 
L 291.052438 31.333165 
L 291.797775 31.166925 
L 292.543113 31.223526 
L 293.288451 31.505316 
L 294.116604 32.084471 
L 294.944757 32.944763 
L 295.855725 34.215756 
L 296.849509 35.98826 
L 297.926108 38.357808 
L 299.168337 41.660937 
L 300.493382 45.835038 
L 301.984057 51.29529 
L 303.640363 58.244175 
L 305.545115 67.259507 
L 307.781128 78.999037 
L 310.845295 96.42305 
L 314.489168 116.973501 
L 315.565767 121.916625 
L 316.062659 123.450731 
L 316.311104 123.737073 
L 316.642366 123.659149 
L 316.890812 124.442918 
L 317.636149 128.070915 
L 319.126825 136.648738 
L 327.49117 186.457582 
L 329.561553 196.761139 
L 331.383489 204.705057 
L 332.95698 210.61694 
L 334.36484 215.104684 
L 335.689885 218.602829 
L 336.849299 221.068503 
L 337.925898 222.851262 
L 338.836866 223.974964 
L 339.665019 224.689513 
L 340.493172 225.112192 
L 341.23851 225.244398 
L 341.983848 225.143497 
L 342.729185 224.812193 
L 343.557338 224.178035 
L 344.468307 223.163645 
L 345.46209 221.688873 
L 346.538689 219.673228 
L 347.780919 216.833061 
L 349.105963 213.234042 
L 350.596639 208.541115 
L 352.33576 202.302206 
L 354.406143 193.978693 
L 356.973417 182.65325 
L 361.528258 161.303555 
L 365.089316 145.116019 
L 367.32533 135.940028 
L 368.981636 129.984423 
L 370.223865 126.234988 
L 371.052018 124.303277 
L 371.54891 123.5648 
L 371.797356 123.43637 
L 372.045802 123.587917 
L 372.294248 123.705889 
L 372.542693 123.558305 
L 373.039585 122.856828 
L 374.116184 120.821689 
L 377.428796 114.365674 
L 378.919472 111.996227 
L 380.244516 110.292313 
L 381.403931 109.137606 
L 382.48053 108.355906 
L 383.474313 107.884847 
L 384.468097 107.652559 
L 385.46188 107.654278 
L 386.455664 107.882458 
L 387.532263 108.373388 
L 388.691677 109.167346 
L 389.933907 110.295987 
L 391.341767 111.87836 
L 393.080888 114.188826 
L 395.648162 118.026853 
L 398.215437 121.774545 
L 399.374851 123.097724 
L 400.014185 123.559357 
L 400.014185 123.559357 
" style="fill:none;stroke:#0000ff;stroke-linecap:square;stroke-width:1.5;"/>
   </g>
   <g id="line2d_20">
    <path clip-path="url(#p752d9d8314)" d="M 68.752983 123.500775 
L 72.893748 132.598405 
L 75.046946 136.801821 
L 76.786067 139.741977 
L 78.276743 141.855349 
L 79.601787 143.369162 
L 80.761202 144.382158 
L 81.8378 145.042437 
L 82.831584 145.398718 
L 83.742552 145.502612 
L 84.653521 145.386479 
L 85.564489 145.044725 
L 86.475457 144.472981 
L 87.469241 143.583322 
L 88.54584 142.303836 
L 89.705254 140.558266 
L 90.947483 138.267941 
L 92.272528 135.354438 
L 93.763204 131.514531 
L 95.41951 126.584981 
L 97.241446 120.418476 
L 99.311829 112.574792 
L 101.713473 102.561239 
L 104.860454 88.41297 
L 112.645092 52.968582 
L 115.046736 43.297328 
L 117.034303 36.188022 
L 118.773424 30.783246 
L 120.2641 26.843876 
L 121.589145 23.932511 
L 122.748559 21.872564 
L 123.825158 20.388047 
L 124.818941 19.397812 
L 125.647094 18.859251 
L 126.475247 18.586781 
L 127.220585 18.572572 
L 127.965923 18.779763 
L 128.711261 19.210174 
L 129.539414 19.951642 
L 130.450382 21.088077 
L 131.444165 22.710631 
L 132.520764 24.916334 
L 133.680179 27.806151 
L 135.005223 31.748375 
L 136.413083 36.660805 
L 137.986574 42.992793 
L 139.725695 50.957121 
L 141.630447 60.735939 
L 143.866461 73.435721 
L 146.51655 89.847284 
L 150.160423 113.96131 
L 157.282539 161.371878 
L 160.015444 177.931314 
L 162.251457 190.215376 
L 164.239024 199.95823 
L 165.978146 207.449068 
L 167.551636 213.319049 
L 169.042312 218.035913 
L 170.367357 221.510588 
L 171.526771 223.981796 
L 172.60337 225.793497 
L 173.597153 227.049908 
L 174.508122 227.850266 
L 175.336275 228.287066 
L 176.081612 228.444878 
L 176.82695 228.381778 
L 177.572288 228.100339 
L 178.400441 227.535436 
L 179.311409 226.613503 
L 180.305193 225.258053 
L 181.381792 223.391807 
L 182.624021 220.747231 
L 183.949066 217.379897 
L 185.439741 212.969084 
L 187.178863 207.075954 
L 189.16643 199.497663 
L 191.568074 189.396703 
L 194.880686 174.382971 
L 201.67154 143.366306 
L 204.238815 132.7935 
L 206.392012 124.828488 
L 208.296764 118.614725 
L 209.95307 113.92457 
L 211.443746 110.313481 
L 212.851606 107.458368 
L 214.093835 105.399202 
L 215.25325 103.871406 
L 216.329848 102.794148 
L 217.323632 102.089792 
L 218.317416 101.660282 
L 219.228384 101.503507 
L 220.139352 101.567867 
L 221.050321 101.846792 
L 222.044104 102.386681 
L 223.120703 103.23591 
L 224.280117 104.43923 
L 225.605162 106.151791 
L 227.095838 108.462167 
L 228.834959 111.593011 
L 230.988157 115.968953 
L 234.135138 122.938887 
L 238.524349 132.598405 
L 240.677547 136.801821 
L 242.416668 139.741977 
L 243.907344 141.855349 
L 245.232388 143.369162 
L 246.391803 144.382158 
L 247.468401 145.042437 
L 248.462185 145.398718 
L 249.373153 145.502612 
L 250.284122 145.386479 
L 251.19509 145.044725 
L 252.106058 144.472981 
L 253.099842 143.583322 
L 254.176441 142.303836 
L 255.335855 140.558266 
L 256.578084 138.267941 
L 257.903129 135.354438 
L 259.393805 131.514531 
L 261.050111 126.584981 
L 262.872047 120.418476 
L 264.94243 112.574792 
L 267.344074 102.561239 
L 270.491055 88.41297 
L 278.275693 52.968582 
L 280.677337 43.297328 
L 282.664904 36.188022 
L 284.404025 30.783246 
L 285.894701 26.843876 
L 287.219746 23.932511 
L 288.37916 21.872564 
L 289.455759 20.388047 
L 290.449542 19.397812 
L 291.277695 18.859251 
L 292.105848 18.586781 
L 292.851186 18.572572 
L 293.596524 18.779763 
L 294.341862 19.210174 
L 295.170015 19.951642 
L 296.080983 21.088077 
L 297.074766 22.710631 
L 298.151365 24.916334 
L 299.31078 27.806151 
L 300.635824 31.748375 
L 302.043684 36.660805 
L 303.617175 42.992793 
L 305.356296 50.957121 
L 307.261048 60.735939 
L 309.497061 73.435721 
L 312.147151 89.847284 
L 315.791024 113.96131 
L 322.91314 161.371878 
L 325.646045 177.931314 
L 327.882058 190.215376 
L 329.869625 199.95823 
L 331.608747 207.449068 
L 333.182237 213.319049 
L 334.672913 218.035913 
L 335.997958 221.510588 
L 337.157372 223.981796 
L 338.233971 225.793497 
L 339.227754 227.049908 
L 340.138723 227.850266 
L 340.966876 228.287066 
L 341.712213 228.444878 
L 342.457551 228.381778 
L 343.202889 228.100339 
L 344.031042 227.535436 
L 344.94201 226.613503 
L 345.935794 225.258053 
L 347.012393 223.391807 
L 348.254622 220.747231 
L 349.579667 217.379897 
L 351.070342 212.969084 
L 352.809464 207.075954 
L 354.797031 199.497663 
L 357.198675 189.396703 
L 360.511287 174.382971 
L 367.302141 143.366306 
L 369.869416 132.7935 
L 372.022613 124.828488 
L 373.927365 118.614725 
L 375.583671 113.92457 
L 377.074347 110.313481 
L 378.482207 107.458368 
L 379.724436 105.399202 
L 380.883851 103.871406 
L 381.960449 102.794148 
L 382.954233 102.089792 
L 383.948017 101.660282 
L 384.858985 101.503507 
L 385.769953 101.567867 
L 386.680922 101.846792 
L 387.674705 102.386681 
L 388.751304 103.23591 
L 389.910718 104.43923 
L 391.235763 106.151791 
L 392.726438 108.462167 
L 394.46556 111.593011 
L 396.618758 115.968953 
L 399.765739 122.938887 
L 400.593892 124.811243 
L 400.593892 124.811243 
" style="fill:none;stroke:#d3d3d3;stroke-linecap:square;stroke-width:4;"/>
   </g>
   <g id="patch_3">
    <path d="M 52.160938 238.944775 
L 52.160938 8.056775 
" style="fill:none;stroke:#000000;stroke-linecap:square;stroke-linejoin:miter;stroke-width:0.8;"/>
   </g>
   <g id="patch_4">
    <path d="M 417.185937 238.944775 
L 417.185937 8.056775 
" style="fill:none;stroke:#000000;stroke-linecap:square;stroke-linejoin:miter;stroke-width:0.8;"/>
   </g>
   <g id="patch_5">
    <path d="M 52.160938 238.944775 
L 417.185937 238.944775 
" style="fill:none;stroke:#000000;stroke-linecap:square;stroke-linejoin:miter;stroke-width:0.8;"/>
   </g>
   <g id="patch_6">
    <path d="M 52.160938 8.056775 
L 417.185937 8.056775 
" style="fill:none;stroke:#000000;stroke-linecap:square;stroke-linejoin:miter;stroke-width:0.8;"/>
   </g>
   <g id="legend_1">
    <g id="patch_7">
     <path d="M 327.929687 54.234375 
L 404.495312 54.234375 
Q 406.495312 54.234375 406.495312 52.234375 
L 406.495312 9.2 
Q 406.495312 7.2 404.495312 7.2 
L 327.929687 7.2 
Q 325.929687 7.2 325.929687 9.2 
L 325.929687 52.234375 
Q 325.929687 54.234375 327.929687 54.234375 
z
" style="fill:#ffffff;opacity:0.8;stroke:#cccccc;stroke-linejoin:miter;"/>
    </g>
    <g id="line2d_21">
     <path d="M 329.929687 15.298437 
L 349.929687 15.298437 
" style="fill:none;stroke:#d3d3d3;stroke-linecap:square;stroke-width:5;"/>
    </g>
    <g id="line2d_22"/>
    <g id="text_19">
     <!-- Vcalc [V] -->
     <g transform="translate(357.929687 18.798437)scale(0.1 -0.1)">
      <defs>
       <path d="M 3122 3366 
L 3122 2828 
Q 2878 2963 2633 3030 
Q 2388 3097 2138 3097 
Q 1578 3097 1268 2742 
Q 959 2388 959 1747 
Q 959 1106 1268 751 
Q 1578 397 2138 397 
Q 2388 397 2633 464 
Q 2878 531 3122 666 
L 3122 134 
Q 2881 22 2623 -34 
Q 2366 -91 2075 -91 
Q 1284 -91 818 406 
Q 353 903 353 1747 
Q 353 2603 823 3093 
Q 1294 3584 2113 3584 
Q 2378 3584 2631 3529 
Q 2884 3475 3122 3366 
z
" id="DejaVuSans-63" transform="scale(0.015625)"/>
       <path d="M 2194 1759 
Q 1497 1759 1228 1600 
Q 959 1441 959 1056 
Q 959 750 1161 570 
Q 1363 391 1709 391 
Q 2188 391 2477 730 
Q 2766 1069 2766 1631 
L 2766 1759 
L 2194 1759 
z
M 3341 1997 
L 3341 0 
L 2766 0 
L 2766 531 
Q 2569 213 2275 61 
Q 1981 -91 1556 -91 
Q 1019 -91 701 211 
Q 384 513 384 1019 
Q 384 1609 779 1909 
Q 1175 2209 1959 2209 
L 2766 2209 
L 2766 2266 
Q 2766 2663 2505 2880 
Q 2244 3097 1772 3097 
Q 1472 3097 1187 3025 
Q 903 2953 641 2809 
L 641 3341 
Q 956 3463 1253 3523 
Q 1550 3584 1831 3584 
Q 2591 3584 2966 3190 
Q 3341 2797 3341 1997 
z
" id="DejaVuSans-61" transform="scale(0.015625)"/>
       <path d="M 603 4863 
L 1178 4863 
L 1178 0 
L 603 0 
L 603 4863 
z
" id="DejaVuSans-6c" transform="scale(0.015625)"/>
      </defs>
      <use xlink:href="#DejaVuSans-56"/>
      <use x="68.408203" xlink:href="#DejaVuSans-63"/>
      <use x="123.388672" xlink:href="#DejaVuSans-61"/>
      <use x="184.667969" xlink:href="#DejaVuSans-6c"/>
      <use x="212.451172" xlink:href="#DejaVuSans-63"/>
      <use x="267.431641" xlink:href="#DejaVuSans-20"/>
      <use x="299.21875" xlink:href="#DejaVuSans-5b"/>
      <use x="338.232422" xlink:href="#DejaVuSans-56"/>
      <use x="406.640625" xlink:href="#DejaVuSans-5d"/>
     </g>
    </g>
    <g id="line2d_23">
     <path d="M 329.929687 29.976562 
L 349.929687 29.976562 
" style="fill:none;stroke:#ff0000;stroke-linecap:square;stroke-width:1.5;"/>
    </g>
    <g id="line2d_24"/>
    <g id="text_20">
     <!-- Vadd [V] -->
     <g transform="translate(357.929687 33.476562)scale(0.1 -0.1)">
      <defs>
       <path d="M 2906 2969 
L 2906 4863 
L 3481 4863 
L 3481 0 
L 2906 0 
L 2906 525 
Q 2725 213 2448 61 
Q 2172 -91 1784 -91 
Q 1150 -91 751 415 
Q 353 922 353 1747 
Q 353 2572 751 3078 
Q 1150 3584 1784 3584 
Q 2172 3584 2448 3432 
Q 2725 3281 2906 2969 
z
M 947 1747 
Q 947 1113 1208 752 
Q 1469 391 1925 391 
Q 2381 391 2643 752 
Q 2906 1113 2906 1747 
Q 2906 2381 2643 2742 
Q 2381 3103 1925 3103 
Q 1469 3103 1208 2742 
Q 947 2381 947 1747 
z
" id="DejaVuSans-64" transform="scale(0.015625)"/>
      </defs>
      <use xlink:href="#DejaVuSans-56"/>
      <use x="60.658203" xlink:href="#DejaVuSans-61"/>
      <use x="121.9375" xlink:href="#DejaVuSans-64"/>
      <use x="185.414062" xlink:href="#DejaVuSans-64"/>
      <use x="248.890625" xlink:href="#DejaVuSans-20"/>
      <use x="280.677734" xlink:href="#DejaVuSans-5b"/>
      <use x="319.691406" xlink:href="#DejaVuSans-56"/>
      <use x="388.099609" xlink:href="#DejaVuSans-5d"/>
     </g>
    </g>
    <g id="line2d_25">
     <path d="M 329.929687 44.654687 
L 349.929687 44.654687 
" style="fill:none;stroke:#0000ff;stroke-linecap:square;stroke-width:1.5;"/>
    </g>
    <g id="line2d_26"/>
    <g id="text_21">
     <!-- Vdiff [V] -->
     <g transform="translate(357.929687 48.154687)scale(0.1 -0.1)">
      <defs>
       <path d="M 2375 4863 
L 2375 4384 
L 1825 4384 
Q 1516 4384 1395 4259 
Q 1275 4134 1275 3809 
L 1275 3500 
L 2222 3500 
L 2222 3053 
L 1275 3053 
L 1275 0 
L 697 0 
L 697 3053 
L 147 3053 
L 147 3500 
L 697 3500 
L 697 3744 
Q 697 4328 969 4595 
Q 1241 4863 1831 4863 
L 2375 4863 
z
" id="DejaVuSans-66" transform="scale(0.015625)"/>
      </defs>
      <use xlink:href="#DejaVuSans-56"/>
      <use x="68.408203" xlink:href="#DejaVuSans-64"/>
      <use x="131.884766" xlink:href="#DejaVuSans-69"/>
      <use x="159.667969" xlink:href="#DejaVuSans-66"/>
      <use x="194.873047" xlink:href="#DejaVuSans-66"/>
      <use x="230.078125" xlink:href="#DejaVuSans-20"/>
      <use x="261.865234" xlink:href="#DejaVuSans-5b"/>
      <use x="300.878906" xlink:href="#DejaVuSans-56"/>
      <use x="369.287109" xlink:href="#DejaVuSans-5d"/>
     </g>
    </g>
   </g>
  </g>
 </g>
 <defs>
  <clipPath id="p752d9d8314">
   <rect height="230.888" width="365.025" x="52.160938" y="8.056775"/>
  </clipPath>
 </defs>
</svg>
