<?xml version="1.0" encoding="utf-8" standalone="no"?>
<!DOCTYPE svg PUBLIC "-//W3C//DTD SVG 1.1//EN"
  "http://www.w3.org/Graphics/SVG/1.1/DTD/svg11.dtd">
<svg height="310.234pt" version="1.1" viewBox="0 0 669.6276 310.234" width="669.6276pt" xmlns="http://www.w3.org/2000/svg" xmlns:xlink="http://www.w3.org/1999/xlink">
 <metadata>
  <rdf:RDF xmlns:cc="http://creativecommons.org/ns#" xmlns:dc="http://purl.org/dc/elements/1.1/" xmlns:rdf="http://www.w3.org/1999/02/22-rdf-syntax-ns#">
   <cc:Work>
    <dc:type rdf:resource="http://purl.org/dc/dcmitype/StillImage"/>
    <dc:date>2021-05-06T14:58:58.280622</dc:date>
    <dc:format>image/svg+xml</dc:format>
    <dc:creator>
     <cc:Agent>
      <dc:title>Matplotlib v3.4.1, https://matplotlib.org/</dc:title>
     </cc:Agent>
    </dc:creator>
   </cc:Work>
  </rdf:RDF>
 </metadata>
 <defs>
  <style type="text/css">*{stroke-linecap:butt;stroke-linejoin:round;}</style>
 </defs>
 <g id="figure_1">
  <g id="patch_1">
   <path d="M 0 310.234 
L 669.6276 310.234 
L 669.6276 0 
L 0 0 
z
" style="fill:none;"/>
  </g>
  <g id="axes_1">
   <g id="patch_2">
    <path clip-path="url(#pf27074f9c7)" d="M 294.1668 207.562 
C 295.140626 207.562 296.074697 207.175095 296.763296 206.486496 
C 297.451895 205.797897 297.8388 204.863826 297.8388 203.89 
C 297.8388 202.916174 297.451895 201.982103 296.763296 201.293504 
C 296.074697 200.604905 295.140626 200.218 294.1668 200.218 
C 293.192974 200.218 292.258903 200.604905 291.570304 201.293504 
C 290.881705 201.982103 290.4948 202.916174 290.4948 203.89 
C 290.4948 204.863826 290.881705 205.797897 291.570304 206.486496 
C 292.258903 207.175095 293.192974 207.562 294.1668 207.562 
z
" style="fill:none;stroke:#000000;stroke-linejoin:miter;stroke-width:1.2;"/>
   </g>
   <g id="patch_3">
    <path clip-path="url(#pf27074f9c7)" d="M 485.4168 207.562 
C 486.390626 207.562 487.324697 207.175095 488.013296 206.486496 
C 488.701895 205.797897 489.0888 204.863826 489.0888 203.89 
C 489.0888 202.916174 488.701895 201.982103 488.013296 201.293504 
C 487.324697 200.604905 486.390626 200.218 485.4168 200.218 
C 484.442974 200.218 483.508903 200.604905 482.820304 201.293504 
C 482.131705 201.982103 481.7448 202.916174 481.7448 203.89 
C 481.7448 204.863826 482.131705 205.797897 482.820304 206.486496 
C 483.508903 207.175095 484.442974 207.562 485.4168 207.562 
z
" style="fill:none;stroke:#000000;stroke-linejoin:miter;stroke-width:1.2;"/>
   </g>
   <g id="patch_4">
    <path clip-path="url(#pf27074f9c7)" d="M 317.1168 58.54 
L 319.4118 66.19 
L 317.1321 66.19 
L 317.1321 72.922 
L 317.1015 72.922 
L 317.1015 66.19 
L 314.8218 66.19 
z
" style="stroke:#000000;stroke-linejoin:miter;stroke-width:1.2;"/>
   </g>
   <g id="line2d_1">
    <path clip-path="url(#pf27074f9c7)" d="M 30.2418 203.89 
L 39.8043 203.89 
L 49.3668 203.89 
" style="fill:none;stroke:#000000;stroke-linecap:round;stroke-width:1.2;"/>
   </g>
   <g id="line2d_2">
    <path clip-path="url(#pf27074f9c7)" d="M 49.3668 203.89 
L 49.3668 226.84 
L 57.0168 229.39 
L 41.7168 234.49 
L 57.0168 239.59 
L 41.7168 244.69 
L 57.0168 249.79 
L 41.7168 254.89 
L 49.3668 257.44 
L 49.3668 280.39 
" style="fill:none;stroke:#000000;stroke-linecap:round;stroke-width:1.2;"/>
   </g>
   <g id="line2d_3">
    <path clip-path="url(#pf27074f9c7)" d="M 49.3668 280.39 
L 49.3668 292.63 
L 41.7168 292.63 
L 57.0168 292.63 
M 44.0118 296.302 
L 54.7218 296.302 
M 47.8368 299.974 
L 50.8968 299.974 
" style="fill:none;stroke:#000000;stroke-linecap:round;stroke-width:1.2;"/>
   </g>
   <g id="line2d_4">
    <path clip-path="url(#pf27074f9c7)" d="M 49.3668 203.89 
L 72.3168 203.89 
L 74.8668 196.24 
L 79.9668 211.54 
L 85.0668 196.24 
L 90.1668 211.54 
L 95.2668 196.24 
L 100.3668 211.54 
L 102.9168 203.89 
L 125.8668 203.89 
" style="fill:none;stroke:#000000;stroke-linecap:round;stroke-width:1.2;"/>
   </g>
   <g id="line2d_5">
    <path clip-path="url(#pf27074f9c7)" d="M 125.8668 203.89 
L 161.3628 203.89 
M 161.3628 196.24 
L 161.3628 211.54 
M 166.8708 196.24 
L 166.8708 211.54 
M 166.8708 203.89 
L 202.3668 203.89 
" style="fill:none;stroke:#000000;stroke-linecap:round;stroke-width:1.2;"/>
   </g>
   <g id="line2d_6">
    <path clip-path="url(#pf27074f9c7)" d="M 202.3668 203.89 
L 221.4918 203.89 
L 240.6168 203.89 
" style="fill:none;stroke:#000000;stroke-linecap:round;stroke-width:1.2;"/>
   </g>
   <g id="line2d_7">
    <path clip-path="url(#pf27074f9c7)" d="M 240.6168 203.89 
L 259.8948 203.89 
L 270.6048 203.89 
M 297.8388 203.89 
L 317.1168 203.89 
" style="fill:none;stroke:#000000;stroke-linecap:round;stroke-width:1.2;"/>
   </g>
   <g id="line2d_8">
    <path clip-path="url(#pf27074f9c7)" d="M 297.8388 203.89 
L 301.2048 203.89 
" style="fill:none;stroke:#000000;stroke-linecap:round;stroke-width:1.2;"/>
   </g>
   <g id="line2d_9">
    <path clip-path="url(#pf27074f9c7)" d="M 270.6048 203.89 
L 270.6048 219.19 
L 290.4948 203.89 
L 270.6048 188.59 
L 270.6048 203.89 
" style="fill:none;stroke:#000000;stroke-linecap:round;stroke-width:1.2;"/>
   </g>
   <g id="line2d_10">
    <path clip-path="url(#pf27074f9c7)" d="M 317.1168 203.89 
L 336.2418 203.89 
L 355.3668 203.89 
" style="fill:none;stroke:#000000;stroke-linecap:round;stroke-width:1.2;"/>
   </g>
   <g id="line2d_11">
    <path clip-path="url(#pf27074f9c7)" d="M 355.3668 203.89 
L 390.8628 203.89 
M 390.8628 196.24 
L 390.8628 211.54 
M 396.3708 196.24 
L 396.3708 211.54 
M 396.3708 203.89 
L 431.8668 203.89 
" style="fill:none;stroke:#000000;stroke-linecap:round;stroke-width:1.2;"/>
   </g>
   <g id="line2d_12">
    <path clip-path="url(#pf27074f9c7)" d="M 431.8668 203.89 
L 451.1448 203.89 
L 461.8548 203.89 
M 489.0888 203.89 
L 508.3668 203.89 
" style="fill:none;stroke:#000000;stroke-linecap:round;stroke-width:1.2;"/>
   </g>
   <g id="line2d_13">
    <path clip-path="url(#pf27074f9c7)" d="M 489.0888 203.89 
L 492.4548 203.89 
" style="fill:none;stroke:#000000;stroke-linecap:round;stroke-width:1.2;"/>
   </g>
   <g id="line2d_14">
    <path clip-path="url(#pf27074f9c7)" d="M 461.8548 203.89 
L 461.8548 219.19 
L 481.7448 203.89 
L 461.8548 188.59 
L 461.8548 203.89 
" style="fill:none;stroke:#000000;stroke-linecap:round;stroke-width:1.2;"/>
   </g>
   <g id="line2d_15">
    <path clip-path="url(#pf27074f9c7)" d="M 508.3668 203.89 
L 543.8628 203.89 
M 543.8628 196.24 
L 543.8628 211.54 
M 549.3708 196.24 
L 549.3708 211.54 
M 549.3708 203.89 
L 584.8668 203.89 
" style="fill:none;stroke:#000000;stroke-linecap:round;stroke-width:1.2;"/>
   </g>
   <g id="line2d_16">
    <path clip-path="url(#pf27074f9c7)" d="M 584.8668 203.89 
L 584.8668 226.84 
L 592.5168 229.39 
L 577.2168 234.49 
L 592.5168 239.59 
L 577.2168 244.69 
L 592.5168 249.79 
L 577.2168 254.89 
L 584.8668 257.44 
L 584.8668 280.39 
" style="fill:none;stroke:#000000;stroke-linecap:round;stroke-width:1.2;"/>
   </g>
   <g id="line2d_17">
    <path clip-path="url(#pf27074f9c7)" d="M 584.8668 280.39 
L 584.8668 292.63 
L 577.2168 292.63 
L 592.5168 292.63 
M 579.5118 296.302 
L 590.2218 296.302 
M 583.3368 299.974 
L 586.3968 299.974 
" style="fill:none;stroke:#000000;stroke-linecap:round;stroke-width:1.2;"/>
   </g>
   <g id="line2d_18">
    <path clip-path="url(#pf27074f9c7)" d="M 202.3668 203.89 
L 202.3668 165.64 
L 202.3668 127.39 
" style="fill:none;stroke:#000000;stroke-linecap:round;stroke-width:1.2;"/>
   </g>
   <g id="line2d_19">
    <path clip-path="url(#pf27074f9c7)" d="M 202.3668 127.39 
L 221.4918 127.39 
L 240.6168 127.39 
" style="fill:none;stroke:#000000;stroke-linecap:round;stroke-width:1.2;"/>
   </g>
   <g id="line2d_20">
    <path clip-path="url(#pf27074f9c7)" d="M 240.6168 127.39 
L 276.1128 127.39 
M 276.1128 119.74 
L 276.1128 135.04 
M 281.6208 119.74 
L 281.6208 135.04 
M 281.6208 127.39 
L 317.1168 127.39 
" style="fill:none;stroke:#000000;stroke-linecap:round;stroke-width:1.2;"/>
   </g>
   <g id="line2d_21">
    <path clip-path="url(#pf27074f9c7)" d="M 317.1168 127.39 
L 336.2418 127.39 
L 355.3668 127.39 
" style="fill:none;stroke:#000000;stroke-linecap:round;stroke-width:1.2;"/>
   </g>
   <g id="line2d_22">
    <path clip-path="url(#pf27074f9c7)" d="M 202.3668 127.39 
L 202.3668 89.14 
L 202.3668 50.89 
" style="fill:none;stroke:#000000;stroke-linecap:round;stroke-width:1.2;"/>
   </g>
   <g id="line2d_23">
    <path clip-path="url(#pf27074f9c7)" d="M 202.3668 50.89 
L 225.3168 50.89 
L 227.8668 43.24 
L 232.9668 58.54 
L 238.0668 43.24 
L 243.1668 58.54 
L 248.2668 43.24 
L 253.3668 58.54 
L 255.9168 50.89 
L 278.8668 50.89 
" style="fill:none;stroke:#000000;stroke-linecap:round;stroke-width:1.2;"/>
   </g>
   <g id="line2d_24">
    <path clip-path="url(#pf27074f9c7)" d="M 278.8668 50.89 
L 301.8168 50.89 
L 304.3668 58.54 
L 309.4668 43.24 
L 314.5668 58.54 
L 319.6668 43.24 
L 324.7668 58.54 
L 329.8668 43.24 
L 332.4168 50.89 
L 355.3668 50.89 
" style="fill:none;stroke:#000000;stroke-linecap:round;stroke-width:1.2;"/>
   </g>
   <g id="line2d_25">
    <path clip-path="url(#pf27074f9c7)" d="M 355.3668 50.89 
L 355.3668 89.14 
L 355.3668 127.39 
" style="fill:none;stroke:#000000;stroke-linecap:round;stroke-width:1.2;"/>
   </g>
   <g id="line2d_26">
    <path clip-path="url(#pf27074f9c7)" d="M 355.3668 127.39 
L 355.3668 165.64 
L 355.3668 203.89 
" style="fill:none;stroke:#000000;stroke-linecap:round;stroke-width:1.2;"/>
   </g>
   <g id="line2d_27">
    <path clip-path="url(#pf27074f9c7)" d="M 317.1168 72.922 
L 317.1168 77.70325 
L 317.1168 82.4845 
" style="fill:none;stroke:#000000;stroke-linecap:round;stroke-width:1.2;"/>
   </g>
   <g id="line2d_28">
    <path clip-path="url(#pf27074f9c7)" d="M 317.1168 82.4845 
L 336.2418 82.4845 
L 355.3668 82.4845 
" style="fill:none;stroke:#000000;stroke-linecap:round;stroke-width:1.2;"/>
   </g>
   <g id="line2d_29">
    <path clip-path="url(#pf27074f9c7)" d="M 431.8668 203.89 
L 431.8668 165.64 
L 431.8668 127.39 
" style="fill:none;stroke:#000000;stroke-linecap:round;stroke-width:1.2;"/>
   </g>
   <g id="line2d_30">
    <path clip-path="url(#pf27074f9c7)" d="M 431.8668 127.39 
L 467.3628 127.39 
M 467.3628 119.74 
L 467.3628 135.04 
M 472.8708 119.74 
L 472.8708 135.04 
M 472.8708 127.39 
L 508.3668 127.39 
" style="fill:none;stroke:#000000;stroke-linecap:round;stroke-width:1.2;"/>
   </g>
   <g id="line2d_31">
    <path clip-path="url(#pf27074f9c7)" d="M 431.8668 127.39 
L 431.8668 89.14 
L 431.8668 50.89 
" style="fill:none;stroke:#000000;stroke-linecap:round;stroke-width:1.2;"/>
   </g>
   <g id="line2d_32">
    <path clip-path="url(#pf27074f9c7)" d="M 431.8668 50.89 
L 454.8168 50.89 
L 457.3668 43.24 
L 462.4668 58.54 
L 467.5668 43.24 
L 472.6668 58.54 
L 477.7668 43.24 
L 482.8668 58.54 
L 485.4168 50.89 
L 508.3668 50.89 
" style="fill:none;stroke:#000000;stroke-linecap:round;stroke-width:1.2;"/>
   </g>
   <g id="line2d_33">
    <path clip-path="url(#pf27074f9c7)" d="M 508.3668 50.89 
L 508.3668 89.14 
L 508.3668 127.39 
" style="fill:none;stroke:#000000;stroke-linecap:round;stroke-width:1.2;"/>
   </g>
   <g id="line2d_34">
    <path clip-path="url(#pf27074f9c7)" d="M 508.3668 127.39 
L 508.3668 165.64 
L 508.3668 203.89 
" style="fill:none;stroke:#000000;stroke-linecap:round;stroke-width:1.2;"/>
   </g>
   <g id="line2d_35">
    <path clip-path="url(#pf27074f9c7)" d="M 584.8668 203.89 
L 603.9918 203.89 
L 623.1168 203.89 
" style="fill:none;stroke:#000000;stroke-linecap:round;stroke-width:1.2;"/>
   </g>
   <g id="text_1">
    <!-- $R_1$ -->
    <g transform="translate(22.2768 238.164656)scale(0.14 -0.14)">
     <defs>
      <path d="M 1613 4147 
L 1294 2491 
L 2106 2491 
Q 2584 2491 2879 2755 
Q 3175 3019 3175 3444 
Q 3175 3784 2976 3965 
Q 2778 4147 2406 4147 
L 1613 4147 
z
M 2772 2241 
Q 2972 2194 3105 2009 
Q 3238 1825 3413 1275 
L 3809 0 
L 3144 0 
L 2778 1197 
Q 2638 1659 2453 1815 
Q 2269 1972 1888 1972 
L 1191 1972 
L 806 0 
L 172 0 
L 1081 4666 
L 2503 4666 
Q 3150 4666 3495 4373 
Q 3841 4081 3841 3531 
Q 3841 3044 3547 2687 
Q 3253 2331 2772 2241 
z
" id="DejaVuSans-Oblique-52" transform="scale(0.015625)"/>
      <path d="M 794 531 
L 1825 531 
L 1825 4091 
L 703 3866 
L 703 4441 
L 1819 4666 
L 2450 4666 
L 2450 531 
L 3481 531 
L 3481 0 
L 794 0 
L 794 531 
z
" id="DejaVuSans-31" transform="scale(0.015625)"/>
     </defs>
     <use transform="translate(0 0.09375)" xlink:href="#DejaVuSans-Oblique-52"/>
     <use transform="translate(69.482422 -16.3125)scale(0.7)" xlink:href="#DejaVuSans-31"/>
    </g>
    <!-- 1M -->
    <g transform="translate(17.669925 253.841594)scale(0.14 -0.14)">
     <defs>
      <path d="M 628 4666 
L 1569 4666 
L 2759 1491 
L 3956 4666 
L 4897 4666 
L 4897 0 
L 4281 0 
L 4281 4097 
L 3078 897 
L 2444 897 
L 1241 4097 
L 1241 0 
L 628 0 
L 628 4666 
z
" id="DejaVuSans-4d" transform="scale(0.015625)"/>
     </defs>
     <use xlink:href="#DejaVuSans-31"/>
     <use x="63.623047" xlink:href="#DejaVuSans-4d"/>
    </g>
   </g>
   <g id="text_2">
    <!-- $R_2$ -->
    <g transform="translate(79.4268 174.5915)scale(0.14 -0.14)">
     <defs>
      <path d="M 1228 531 
L 3431 531 
L 3431 0 
L 469 0 
L 469 531 
Q 828 903 1448 1529 
Q 2069 2156 2228 2338 
Q 2531 2678 2651 2914 
Q 2772 3150 2772 3378 
Q 2772 3750 2511 3984 
Q 2250 4219 1831 4219 
Q 1534 4219 1204 4116 
Q 875 4013 500 3803 
L 500 4441 
Q 881 4594 1212 4672 
Q 1544 4750 1819 4750 
Q 2544 4750 2975 4387 
Q 3406 4025 3406 3419 
Q 3406 3131 3298 2873 
Q 3191 2616 2906 2266 
Q 2828 2175 2409 1742 
Q 1991 1309 1228 531 
z
" id="DejaVuSans-32" transform="scale(0.015625)"/>
     </defs>
     <use transform="translate(0 0.09375)" xlink:href="#DejaVuSans-Oblique-52"/>
     <use transform="translate(69.482422 -16.3125)scale(0.7)" xlink:href="#DejaVuSans-32"/>
    </g>
    <!-- 100k -->
    <g transform="translate(70.202112 190.268437)scale(0.14 -0.14)">
     <defs>
      <path d="M 2034 4250 
Q 1547 4250 1301 3770 
Q 1056 3291 1056 2328 
Q 1056 1369 1301 889 
Q 1547 409 2034 409 
Q 2525 409 2770 889 
Q 3016 1369 3016 2328 
Q 3016 3291 2770 3770 
Q 2525 4250 2034 4250 
z
M 2034 4750 
Q 2819 4750 3233 4129 
Q 3647 3509 3647 2328 
Q 3647 1150 3233 529 
Q 2819 -91 2034 -91 
Q 1250 -91 836 529 
Q 422 1150 422 2328 
Q 422 3509 836 4129 
Q 1250 4750 2034 4750 
z
" id="DejaVuSans-30" transform="scale(0.015625)"/>
      <path d="M 581 4863 
L 1159 4863 
L 1159 1991 
L 2875 3500 
L 3609 3500 
L 1753 1863 
L 3688 0 
L 2938 0 
L 1159 1709 
L 1159 0 
L 581 0 
L 581 4863 
z
" id="DejaVuSans-6b" transform="scale(0.015625)"/>
     </defs>
     <use xlink:href="#DejaVuSans-31"/>
     <use x="63.623047" xlink:href="#DejaVuSans-30"/>
     <use x="127.246094" xlink:href="#DejaVuSans-30"/>
     <use x="190.869141" xlink:href="#DejaVuSans-6b"/>
    </g>
   </g>
   <g id="text_3">
    <!-- $C_1$ -->
    <g transform="translate(155.8568 174.5915)scale(0.14 -0.14)">
     <defs>
      <path d="M 4447 4306 
L 4319 3641 
Q 4019 3944 3683 4091 
Q 3347 4238 2956 4238 
Q 2422 4238 2017 3981 
Q 1613 3725 1319 3200 
Q 1131 2863 1032 2486 
Q 934 2109 934 1728 
Q 934 1091 1264 756 
Q 1594 422 2222 422 
Q 2656 422 3056 561 
Q 3456 700 3834 978 
L 3688 231 
Q 3316 72 2936 -9 
Q 2556 -91 2175 -91 
Q 1278 -91 773 396 
Q 269 884 269 1753 
Q 269 2309 461 2846 
Q 653 3384 1013 3828 
Q 1394 4300 1883 4525 
Q 2372 4750 3022 4750 
Q 3422 4750 3780 4639 
Q 4138 4528 4447 4306 
z
" id="DejaVuSans-Oblique-43" transform="scale(0.015625)"/>
     </defs>
     <use transform="translate(0 0.78125)" xlink:href="#DejaVuSans-Oblique-43"/>
     <use transform="translate(69.824219 -15.625)scale(0.7)" xlink:href="#DejaVuSans-31"/>
    </g>
    <!-- 68n -->
    <g transform="translate(150.77305 190.268437)scale(0.14 -0.14)">
     <defs>
      <path d="M 2113 2584 
Q 1688 2584 1439 2293 
Q 1191 2003 1191 1497 
Q 1191 994 1439 701 
Q 1688 409 2113 409 
Q 2538 409 2786 701 
Q 3034 994 3034 1497 
Q 3034 2003 2786 2293 
Q 2538 2584 2113 2584 
z
M 3366 4563 
L 3366 3988 
Q 3128 4100 2886 4159 
Q 2644 4219 2406 4219 
Q 1781 4219 1451 3797 
Q 1122 3375 1075 2522 
Q 1259 2794 1537 2939 
Q 1816 3084 2150 3084 
Q 2853 3084 3261 2657 
Q 3669 2231 3669 1497 
Q 3669 778 3244 343 
Q 2819 -91 2113 -91 
Q 1303 -91 875 529 
Q 447 1150 447 2328 
Q 447 3434 972 4092 
Q 1497 4750 2381 4750 
Q 2619 4750 2861 4703 
Q 3103 4656 3366 4563 
z
" id="DejaVuSans-36" transform="scale(0.015625)"/>
      <path d="M 2034 2216 
Q 1584 2216 1326 1975 
Q 1069 1734 1069 1313 
Q 1069 891 1326 650 
Q 1584 409 2034 409 
Q 2484 409 2743 651 
Q 3003 894 3003 1313 
Q 3003 1734 2745 1975 
Q 2488 2216 2034 2216 
z
M 1403 2484 
Q 997 2584 770 2862 
Q 544 3141 544 3541 
Q 544 4100 942 4425 
Q 1341 4750 2034 4750 
Q 2731 4750 3128 4425 
Q 3525 4100 3525 3541 
Q 3525 3141 3298 2862 
Q 3072 2584 2669 2484 
Q 3125 2378 3379 2068 
Q 3634 1759 3634 1313 
Q 3634 634 3220 271 
Q 2806 -91 2034 -91 
Q 1263 -91 848 271 
Q 434 634 434 1313 
Q 434 1759 690 2068 
Q 947 2378 1403 2484 
z
M 1172 3481 
Q 1172 3119 1398 2916 
Q 1625 2713 2034 2713 
Q 2441 2713 2670 2916 
Q 2900 3119 2900 3481 
Q 2900 3844 2670 4047 
Q 2441 4250 2034 4250 
Q 1625 4250 1398 4047 
Q 1172 3844 1172 3481 
z
" id="DejaVuSans-38" transform="scale(0.015625)"/>
      <path d="M 3513 2113 
L 3513 0 
L 2938 0 
L 2938 2094 
Q 2938 2591 2744 2837 
Q 2550 3084 2163 3084 
Q 1697 3084 1428 2787 
Q 1159 2491 1159 1978 
L 1159 0 
L 581 0 
L 581 3500 
L 1159 3500 
L 1159 2956 
Q 1366 3272 1645 3428 
Q 1925 3584 2291 3584 
Q 2894 3584 3203 3211 
Q 3513 2838 3513 2113 
z
" id="DejaVuSans-6e" transform="scale(0.015625)"/>
     </defs>
     <use xlink:href="#DejaVuSans-36"/>
     <use x="63.623047" xlink:href="#DejaVuSans-38"/>
     <use x="127.246094" xlink:href="#DejaVuSans-6e"/>
    </g>
   </g>
   <g id="text_4">
    <!-- $C_3$ -->
    <g transform="translate(385.3568 174.5915)scale(0.14 -0.14)">
     <defs>
      <path d="M 2597 2516 
Q 3050 2419 3304 2112 
Q 3559 1806 3559 1356 
Q 3559 666 3084 287 
Q 2609 -91 1734 -91 
Q 1441 -91 1130 -33 
Q 819 25 488 141 
L 488 750 
Q 750 597 1062 519 
Q 1375 441 1716 441 
Q 2309 441 2620 675 
Q 2931 909 2931 1356 
Q 2931 1769 2642 2001 
Q 2353 2234 1838 2234 
L 1294 2234 
L 1294 2753 
L 1863 2753 
Q 2328 2753 2575 2939 
Q 2822 3125 2822 3475 
Q 2822 3834 2567 4026 
Q 2313 4219 1838 4219 
Q 1578 4219 1281 4162 
Q 984 4106 628 3988 
L 628 4550 
Q 988 4650 1302 4700 
Q 1616 4750 1894 4750 
Q 2613 4750 3031 4423 
Q 3450 4097 3450 3541 
Q 3450 3153 3228 2886 
Q 3006 2619 2597 2516 
z
" id="DejaVuSans-33" transform="scale(0.015625)"/>
     </defs>
     <use transform="translate(0 0.78125)" xlink:href="#DejaVuSans-Oblique-43"/>
     <use transform="translate(69.824219 -15.625)scale(0.7)" xlink:href="#DejaVuSans-33"/>
    </g>
    <!-- 33n -->
    <g transform="translate(380.27305 190.268437)scale(0.14 -0.14)">
     <use xlink:href="#DejaVuSans-33"/>
     <use x="63.623047" xlink:href="#DejaVuSans-33"/>
     <use x="127.246094" xlink:href="#DejaVuSans-6e"/>
    </g>
   </g>
   <g id="text_5">
    <!-- $C_5$ -->
    <g transform="translate(538.3568 174.5915)scale(0.14 -0.14)">
     <defs>
      <path d="M 691 4666 
L 3169 4666 
L 3169 4134 
L 1269 4134 
L 1269 2991 
Q 1406 3038 1543 3061 
Q 1681 3084 1819 3084 
Q 2600 3084 3056 2656 
Q 3513 2228 3513 1497 
Q 3513 744 3044 326 
Q 2575 -91 1722 -91 
Q 1428 -91 1123 -41 
Q 819 9 494 109 
L 494 744 
Q 775 591 1075 516 
Q 1375 441 1709 441 
Q 2250 441 2565 725 
Q 2881 1009 2881 1497 
Q 2881 1984 2565 2268 
Q 2250 2553 1709 2553 
Q 1456 2553 1204 2497 
Q 953 2441 691 2322 
L 691 4666 
z
" id="DejaVuSans-35" transform="scale(0.015625)"/>
     </defs>
     <use transform="translate(0 0.78125)" xlink:href="#DejaVuSans-Oblique-43"/>
     <use transform="translate(69.824219 -15.625)scale(0.7)" xlink:href="#DejaVuSans-35"/>
    </g>
    <!-- 10u -->
    <g transform="translate(533.27305 190.268437)scale(0.14 -0.14)">
     <defs>
      <path d="M 544 1381 
L 544 3500 
L 1119 3500 
L 1119 1403 
Q 1119 906 1312 657 
Q 1506 409 1894 409 
Q 2359 409 2629 706 
Q 2900 1003 2900 1516 
L 2900 3500 
L 3475 3500 
L 3475 0 
L 2900 0 
L 2900 538 
Q 2691 219 2414 64 
Q 2138 -91 1772 -91 
Q 1169 -91 856 284 
Q 544 659 544 1381 
z
M 1991 3584 
L 1991 3584 
z
" id="DejaVuSans-75" transform="scale(0.015625)"/>
     </defs>
     <use xlink:href="#DejaVuSans-31"/>
     <use x="63.623047" xlink:href="#DejaVuSans-30"/>
     <use x="127.246094" xlink:href="#DejaVuSans-75"/>
    </g>
   </g>
   <g id="text_6">
    <!-- $R_l$ -->
    <g transform="translate(561.2768 238.164656)scale(0.14 -0.14)">
     <defs>
      <path d="M 1172 4863 
L 1747 4863 
L 800 0 
L 225 0 
L 1172 4863 
z
" id="DejaVuSans-Oblique-6c" transform="scale(0.015625)"/>
     </defs>
     <use transform="translate(0 0.09375)" xlink:href="#DejaVuSans-Oblique-52"/>
     <use transform="translate(69.482422 -16.3125)scale(0.7)" xlink:href="#DejaVuSans-Oblique-6c"/>
    </g>
    <!-- 100k -->
    <g transform="translate(539.327425 253.841594)scale(0.14 -0.14)">
     <use xlink:href="#DejaVuSans-31"/>
     <use x="63.623047" xlink:href="#DejaVuSans-30"/>
     <use x="127.246094" xlink:href="#DejaVuSans-30"/>
     <use x="190.869141" xlink:href="#DejaVuSans-6b"/>
    </g>
   </g>
   <g id="text_7">
    <!-- $C_2$ -->
    <g transform="translate(270.6068 98.0915)scale(0.14 -0.14)">
     <use transform="translate(0 0.78125)" xlink:href="#DejaVuSans-Oblique-43"/>
     <use transform="translate(69.824219 -15.625)scale(0.7)" xlink:href="#DejaVuSans-32"/>
    </g>
    <!-- 81p -->
    <g transform="translate(265.515394 113.768437)scale(0.14 -0.14)">
     <defs>
      <path d="M 1159 525 
L 1159 -1331 
L 581 -1331 
L 581 3500 
L 1159 3500 
L 1159 2969 
Q 1341 3281 1617 3432 
Q 1894 3584 2278 3584 
Q 2916 3584 3314 3078 
Q 3713 2572 3713 1747 
Q 3713 922 3314 415 
Q 2916 -91 2278 -91 
Q 1894 -91 1617 61 
Q 1341 213 1159 525 
z
M 3116 1747 
Q 3116 2381 2855 2742 
Q 2594 3103 2138 3103 
Q 1681 3103 1420 2742 
Q 1159 2381 1159 1747 
Q 1159 1113 1420 752 
Q 1681 391 2138 391 
Q 2594 391 2855 752 
Q 3116 1113 3116 1747 
z
" id="DejaVuSans-70" transform="scale(0.015625)"/>
     </defs>
     <use xlink:href="#DejaVuSans-38"/>
     <use x="63.623047" xlink:href="#DejaVuSans-31"/>
     <use x="127.246094" xlink:href="#DejaVuSans-70"/>
    </g>
   </g>
   <g id="text_8">
    <!-- $R_3$ -->
    <g transform="translate(232.4268 21.5915)scale(0.14 -0.14)">
     <use transform="translate(0 0.09375)" xlink:href="#DejaVuSans-Oblique-52"/>
     <use transform="translate(69.482422 -16.3125)scale(0.7)" xlink:href="#DejaVuSans-33"/>
    </g>
    <!-- 100k -->
    <g transform="translate(223.202112 37.268437)scale(0.14 -0.14)">
     <use xlink:href="#DejaVuSans-31"/>
     <use x="63.623047" xlink:href="#DejaVuSans-30"/>
     <use x="127.246094" xlink:href="#DejaVuSans-30"/>
     <use x="190.869141" xlink:href="#DejaVuSans-6b"/>
    </g>
   </g>
   <g id="text_9">
    <!-- $RV_1$ -->
    <g transform="translate(304.0968 21.5915)scale(0.14 -0.14)">
     <defs>
      <path d="M 1319 0 
L 500 4666 
L 1119 4666 
L 1797 653 
L 4063 4666 
L 4750 4666 
L 2053 0 
L 1319 0 
z
" id="DejaVuSans-Oblique-56" transform="scale(0.015625)"/>
     </defs>
     <use transform="translate(0 0.09375)" xlink:href="#DejaVuSans-Oblique-52"/>
     <use transform="translate(69.482422 0.09375)" xlink:href="#DejaVuSans-Oblique-56"/>
     <use transform="translate(137.890625 -16.3125)scale(0.7)" xlink:href="#DejaVuSans-31"/>
    </g>
    <!-- 1M -->
    <g transform="translate(306.623362 37.268437)scale(0.14 -0.14)">
     <use xlink:href="#DejaVuSans-31"/>
     <use x="63.623047" xlink:href="#DejaVuSans-4d"/>
    </g>
   </g>
   <g id="text_10">
    <!-- $C_4$ -->
    <g transform="translate(461.8568 98.0915)scale(0.14 -0.14)">
     <defs>
      <path d="M 2419 4116 
L 825 1625 
L 2419 1625 
L 2419 4116 
z
M 2253 4666 
L 3047 4666 
L 3047 1625 
L 3713 1625 
L 3713 1100 
L 3047 1100 
L 3047 0 
L 2419 0 
L 2419 1100 
L 313 1100 
L 313 1709 
L 2253 4666 
z
" id="DejaVuSans-34" transform="scale(0.015625)"/>
     </defs>
     <use transform="translate(0 0.78125)" xlink:href="#DejaVuSans-Oblique-43"/>
     <use transform="translate(69.824219 -15.625)scale(0.7)" xlink:href="#DejaVuSans-34"/>
    </g>
    <!-- 100p -->
    <g transform="translate(452.311644 113.768437)scale(0.14 -0.14)">
     <use xlink:href="#DejaVuSans-31"/>
     <use x="63.623047" xlink:href="#DejaVuSans-30"/>
     <use x="127.246094" xlink:href="#DejaVuSans-30"/>
     <use x="190.869141" xlink:href="#DejaVuSans-70"/>
    </g>
   </g>
   <g id="text_11">
    <!-- $R_4$ -->
    <g transform="translate(461.9268 21.5915)scale(0.14 -0.14)">
     <use transform="translate(0 0.09375)" xlink:href="#DejaVuSans-Oblique-52"/>
     <use transform="translate(69.482422 -16.3125)scale(0.7)" xlink:href="#DejaVuSans-34"/>
    </g>
    <!-- 1M -->
    <g transform="translate(459.623362 37.268437)scale(0.14 -0.14)">
     <use xlink:href="#DejaVuSans-31"/>
     <use x="63.623047" xlink:href="#DejaVuSans-4d"/>
    </g>
   </g>
   <g id="patch_5">
    <path clip-path="url(#pf27074f9c7)" d="M 30.2418 206.185 
C 30.850441 206.185 31.434236 205.943184 31.86461 205.51281 
C 32.294984 205.082436 32.5368 204.498641 32.5368 203.89 
C 32.5368 203.281359 32.294984 202.697564 31.86461 202.26719 
C 31.434236 201.836816 30.850441 201.595 30.2418 201.595 
C 29.633159 201.595 29.049364 201.836816 28.61899 202.26719 
C 28.188616 202.697564 27.9468 203.281359 27.9468 203.89 
C 27.9468 204.498641 28.188616 205.082436 28.61899 205.51281 
C 29.049364 205.943184 29.633159 206.185 30.2418 206.185 
z
" style="fill:#ffffff;stroke:#000000;stroke-linejoin:miter;stroke-width:1.2;"/>
   </g>
   <g id="patch_6">
    <path clip-path="url(#pf27074f9c7)" d="M 49.3668 206.185 
C 49.975441 206.185 50.559236 205.943184 50.98961 205.51281 
C 51.419984 205.082436 51.6618 204.498641 51.6618 203.89 
C 51.6618 203.281359 51.419984 202.697564 50.98961 202.26719 
C 50.559236 201.836816 49.975441 201.595 49.3668 201.595 
C 48.758159 201.595 48.174364 201.836816 47.74399 202.26719 
C 47.313616 202.697564 47.0718 203.281359 47.0718 203.89 
C 47.0718 204.498641 47.313616 205.082436 47.74399 205.51281 
C 48.174364 205.943184 48.758159 206.185 49.3668 206.185 
z
" style="stroke:#000000;stroke-linejoin:miter;stroke-width:1.2;"/>
   </g>
   <g id="patch_7">
    <path clip-path="url(#pf27074f9c7)" d="M 202.3668 206.185 
C 202.975441 206.185 203.559236 205.943184 203.98961 205.51281 
C 204.419984 205.082436 204.6618 204.498641 204.6618 203.89 
C 204.6618 203.281359 204.419984 202.697564 203.98961 202.26719 
C 203.559236 201.836816 202.975441 201.595 202.3668 201.595 
C 201.758159 201.595 201.174364 201.836816 200.74399 202.26719 
C 200.313616 202.697564 200.0718 203.281359 200.0718 203.89 
C 200.0718 204.498641 200.313616 205.082436 200.74399 205.51281 
C 201.174364 205.943184 201.758159 206.185 202.3668 206.185 
z
" style="stroke:#000000;stroke-linejoin:miter;stroke-width:1.2;"/>
   </g>
   <g id="patch_8">
    <path clip-path="url(#pf27074f9c7)" d="M 202.3668 129.685 
C 202.975441 129.685 203.559236 129.443184 203.98961 129.01281 
C 204.419984 128.582436 204.6618 127.998641 204.6618 127.39 
C 204.6618 126.781359 204.419984 126.197564 203.98961 125.76719 
C 203.559236 125.336816 202.975441 125.095 202.3668 125.095 
C 201.758159 125.095 201.174364 125.336816 200.74399 125.76719 
C 200.313616 126.197564 200.0718 126.781359 200.0718 127.39 
C 200.0718 127.998641 200.313616 128.582436 200.74399 129.01281 
C 201.174364 129.443184 201.758159 129.685 202.3668 129.685 
z
" style="stroke:#000000;stroke-linejoin:miter;stroke-width:1.2;"/>
   </g>
   <g id="patch_9">
    <path clip-path="url(#pf27074f9c7)" d="M 355.3668 129.685 
C 355.975441 129.685 356.559236 129.443184 356.98961 129.01281 
C 357.419984 128.582436 357.6618 127.998641 357.6618 127.39 
C 357.6618 126.781359 357.419984 126.197564 356.98961 125.76719 
C 356.559236 125.336816 355.975441 125.095 355.3668 125.095 
C 354.758159 125.095 354.174364 125.336816 353.74399 125.76719 
C 353.313616 126.197564 353.0718 126.781359 353.0718 127.39 
C 353.0718 127.998641 353.313616 128.582436 353.74399 129.01281 
C 354.174364 129.443184 354.758159 129.685 355.3668 129.685 
z
" style="stroke:#000000;stroke-linejoin:miter;stroke-width:1.2;"/>
   </g>
   <g id="patch_10">
    <path clip-path="url(#pf27074f9c7)" d="M 355.3668 206.185 
C 355.975441 206.185 356.559236 205.943184 356.98961 205.51281 
C 357.419984 205.082436 357.6618 204.498641 357.6618 203.89 
C 357.6618 203.281359 357.419984 202.697564 356.98961 202.26719 
C 356.559236 201.836816 355.975441 201.595 355.3668 201.595 
C 354.758159 201.595 354.174364 201.836816 353.74399 202.26719 
C 353.313616 202.697564 353.0718 203.281359 353.0718 203.89 
C 353.0718 204.498641 353.313616 205.082436 353.74399 205.51281 
C 354.174364 205.943184 354.758159 206.185 355.3668 206.185 
z
" style="stroke:#000000;stroke-linejoin:miter;stroke-width:1.2;"/>
   </g>
   <g id="patch_11">
    <path clip-path="url(#pf27074f9c7)" d="M 355.3668 84.7795 
C 355.975441 84.7795 356.559236 84.537684 356.98961 84.10731 
C 357.419984 83.676936 357.6618 83.093141 357.6618 82.4845 
C 357.6618 81.875859 357.419984 81.292064 356.98961 80.86169 
C 356.559236 80.431316 355.975441 80.1895 355.3668 80.1895 
C 354.758159 80.1895 354.174364 80.431316 353.74399 80.86169 
C 353.313616 81.292064 353.0718 81.875859 353.0718 82.4845 
C 353.0718 83.093141 353.313616 83.676936 353.74399 84.10731 
C 354.174364 84.537684 354.758159 84.7795 355.3668 84.7795 
z
" style="stroke:#000000;stroke-linejoin:miter;stroke-width:1.2;"/>
   </g>
   <g id="patch_12">
    <path clip-path="url(#pf27074f9c7)" d="M 431.8668 206.185 
C 432.475441 206.185 433.059236 205.943184 433.48961 205.51281 
C 433.919984 205.082436 434.1618 204.498641 434.1618 203.89 
C 434.1618 203.281359 433.919984 202.697564 433.48961 202.26719 
C 433.059236 201.836816 432.475441 201.595 431.8668 201.595 
C 431.258159 201.595 430.674364 201.836816 430.24399 202.26719 
C 429.813616 202.697564 429.5718 203.281359 429.5718 203.89 
C 429.5718 204.498641 429.813616 205.082436 430.24399 205.51281 
C 430.674364 205.943184 431.258159 206.185 431.8668 206.185 
z
" style="stroke:#000000;stroke-linejoin:miter;stroke-width:1.2;"/>
   </g>
   <g id="patch_13">
    <path clip-path="url(#pf27074f9c7)" d="M 431.8668 129.685 
C 432.475441 129.685 433.059236 129.443184 433.48961 129.01281 
C 433.919984 128.582436 434.1618 127.998641 434.1618 127.39 
C 434.1618 126.781359 433.919984 126.197564 433.48961 125.76719 
C 433.059236 125.336816 432.475441 125.095 431.8668 125.095 
C 431.258159 125.095 430.674364 125.336816 430.24399 125.76719 
C 429.813616 126.197564 429.5718 126.781359 429.5718 127.39 
C 429.5718 127.998641 429.813616 128.582436 430.24399 129.01281 
C 430.674364 129.443184 431.258159 129.685 431.8668 129.685 
z
" style="stroke:#000000;stroke-linejoin:miter;stroke-width:1.2;"/>
   </g>
   <g id="patch_14">
    <path clip-path="url(#pf27074f9c7)" d="M 508.3668 129.685 
C 508.975441 129.685 509.559236 129.443184 509.98961 129.01281 
C 510.419984 128.582436 510.6618 127.998641 510.6618 127.39 
C 510.6618 126.781359 510.419984 126.197564 509.98961 125.76719 
C 509.559236 125.336816 508.975441 125.095 508.3668 125.095 
C 507.758159 125.095 507.174364 125.336816 506.74399 125.76719 
C 506.313616 126.197564 506.0718 126.781359 506.0718 127.39 
C 506.0718 127.998641 506.313616 128.582436 506.74399 129.01281 
C 507.174364 129.443184 507.758159 129.685 508.3668 129.685 
z
" style="stroke:#000000;stroke-linejoin:miter;stroke-width:1.2;"/>
   </g>
   <g id="patch_15">
    <path clip-path="url(#pf27074f9c7)" d="M 508.3668 206.185 
C 508.975441 206.185 509.559236 205.943184 509.98961 205.51281 
C 510.419984 205.082436 510.6618 204.498641 510.6618 203.89 
C 510.6618 203.281359 510.419984 202.697564 509.98961 202.26719 
C 509.559236 201.836816 508.975441 201.595 508.3668 201.595 
C 507.758159 201.595 507.174364 201.836816 506.74399 202.26719 
C 506.313616 202.697564 506.0718 203.281359 506.0718 203.89 
C 506.0718 204.498641 506.313616 205.082436 506.74399 205.51281 
C 507.174364 205.943184 507.758159 206.185 508.3668 206.185 
z
" style="stroke:#000000;stroke-linejoin:miter;stroke-width:1.2;"/>
   </g>
   <g id="patch_16">
    <path clip-path="url(#pf27074f9c7)" d="M 584.8668 206.185 
C 585.475441 206.185 586.059236 205.943184 586.48961 205.51281 
C 586.919984 205.082436 587.1618 204.498641 587.1618 203.89 
C 587.1618 203.281359 586.919984 202.697564 586.48961 202.26719 
C 586.059236 201.836816 585.475441 201.595 584.8668 201.595 
C 584.258159 201.595 583.674364 201.836816 583.24399 202.26719 
C 582.813616 202.697564 582.5718 203.281359 582.5718 203.89 
C 582.5718 204.498641 582.813616 205.082436 583.24399 205.51281 
C 583.674364 205.943184 584.258159 206.185 584.8668 206.185 
z
" style="stroke:#000000;stroke-linejoin:miter;stroke-width:1.2;"/>
   </g>
   <g id="patch_17">
    <path clip-path="url(#pf27074f9c7)" d="M 623.1168 206.185 
C 623.725441 206.185 624.309236 205.943184 624.73961 205.51281 
C 625.169984 205.082436 625.4118 204.498641 625.4118 203.89 
C 625.4118 203.281359 625.169984 202.697564 624.73961 202.26719 
C 624.309236 201.836816 623.725441 201.595 623.1168 201.595 
C 622.508159 201.595 621.924364 201.836816 621.49399 202.26719 
C 621.063616 202.697564 620.8218 203.281359 620.8218 203.89 
C 620.8218 204.498641 621.063616 205.082436 621.49399 205.51281 
C 621.924364 205.943184 622.508159 206.185 623.1168 206.185 
z
" style="fill:#ffffff;stroke:#000000;stroke-linejoin:miter;stroke-width:1.2;"/>
   </g>
   <g id="text_12">
    <!-- IN -->
    <g transform="translate(10.28305 207.753125)scale(0.14 -0.14)">
     <defs>
      <path d="M 628 4666 
L 1259 4666 
L 1259 0 
L 628 0 
L 628 4666 
z
" id="DejaVuSans-49" transform="scale(0.015625)"/>
      <path d="M 628 4666 
L 1478 4666 
L 3547 763 
L 3547 4666 
L 4159 4666 
L 4159 0 
L 3309 0 
L 1241 3903 
L 1241 0 
L 628 0 
L 628 4666 
z
" id="DejaVuSans-4e" transform="scale(0.015625)"/>
     </defs>
     <use xlink:href="#DejaVuSans-49"/>
     <use x="29.492188" xlink:href="#DejaVuSans-4e"/>
    </g>
   </g>
   <g id="text_13">
    <!-- OUT -->
    <g transform="translate(628.4718 207.753125)scale(0.14 -0.14)">
     <defs>
      <path d="M 2522 4238 
Q 1834 4238 1429 3725 
Q 1025 3213 1025 2328 
Q 1025 1447 1429 934 
Q 1834 422 2522 422 
Q 3209 422 3611 934 
Q 4013 1447 4013 2328 
Q 4013 3213 3611 3725 
Q 3209 4238 2522 4238 
z
M 2522 4750 
Q 3503 4750 4090 4092 
Q 4678 3434 4678 2328 
Q 4678 1225 4090 567 
Q 3503 -91 2522 -91 
Q 1538 -91 948 565 
Q 359 1222 359 2328 
Q 359 3434 948 4092 
Q 1538 4750 2522 4750 
z
" id="DejaVuSans-4f" transform="scale(0.015625)"/>
      <path d="M 556 4666 
L 1191 4666 
L 1191 1831 
Q 1191 1081 1462 751 
Q 1734 422 2344 422 
Q 2950 422 3222 751 
Q 3494 1081 3494 1831 
L 3494 4666 
L 4128 4666 
L 4128 1753 
Q 4128 841 3676 375 
Q 3225 -91 2344 -91 
Q 1459 -91 1007 375 
Q 556 841 556 1753 
L 556 4666 
z
" id="DejaVuSans-55" transform="scale(0.015625)"/>
      <path d="M -19 4666 
L 3928 4666 
L 3928 4134 
L 2272 4134 
L 2272 0 
L 1638 0 
L 1638 4134 
L -19 4134 
L -19 4666 
z
" id="DejaVuSans-54" transform="scale(0.015625)"/>
     </defs>
     <use xlink:href="#DejaVuSans-4f"/>
     <use x="78.710938" xlink:href="#DejaVuSans-55"/>
     <use x="151.904297" xlink:href="#DejaVuSans-54"/>
    </g>
   </g>
  </g>
 </g>
 <defs>
  <clipPath id="pf27074f9c7">
   <rect height="295.834" width="655.2276" x="7.2" y="7.2"/>
  </clipPath>
 </defs>
</svg>
