<?xml version="1.0" encoding="utf-8" standalone="no"?>
<!DOCTYPE svg PUBLIC "-//W3C//DTD SVG 1.1//EN"
  "http://www.w3.org/Graphics/SVG/1.1/DTD/svg11.dtd">
<!-- Created with matplotlib (https://matplotlib.org/) -->
<svg height="293.567625pt" version="1.1" viewBox="0 0 437.104687 293.567625" width="437.104687pt" xmlns="http://www.w3.org/2000/svg" xmlns:xlink="http://www.w3.org/1999/xlink">
 <metadata>
  <rdf:RDF xmlns:cc="http://creativecommons.org/ns#" xmlns:dc="http://purl.org/dc/elements/1.1/" xmlns:rdf="http://www.w3.org/1999/02/22-rdf-syntax-ns#">
   <cc:Work>
    <dc:type rdf:resource="http://purl.org/dc/dcmitype/StillImage"/>
    <dc:date>2021-02-23T16:15:14.482140</dc:date>
    <dc:format>image/svg+xml</dc:format>
    <dc:creator>
     <cc:Agent>
      <dc:title>Matplotlib v3.3.4, https://matplotlib.org/</dc:title>
     </cc:Agent>
    </dc:creator>
   </cc:Work>
  </rdf:RDF>
 </metadata>
 <defs>
  <style type="text/css">*{stroke-linecap:butt;stroke-linejoin:round;}</style>
 </defs>
 <g id="figure_1">
  <g id="patch_1">
   <path d="M 0 293.567625 
L 437.104687 293.567625 
L 437.104687 0 
L 0 0 
z
" style="fill:none;"/>
  </g>
  <g id="axes_1">
   <g id="patch_2">
    <path d="M 58.523438 224.64 
L 393.323438 224.64 
L 393.323438 7.2 
L 58.523438 7.2 
z
" style="fill:#ffffff;"/>
   </g>
   <g id="matplotlib.axis_1">
    <g id="xtick_1">
     <g id="line2d_1">
      <defs>
       <path d="M 0 0 
L 0 3.5 
" id="mdc0f960a86" style="stroke:#000000;stroke-width:0.8;"/>
      </defs>
      <g>
       <use style="stroke:#000000;stroke-width:0.8;" x="73.720312" xlink:href="#mdc0f960a86" y="224.64"/>
      </g>
     </g>
     <g id="text_1">
      <!-- 100.0 -->
      <g transform="translate(59.40625 239.238437)scale(0.1 -0.1)">
       <defs>
        <path d="M 12.40625 8.296875 
L 28.515625 8.296875 
L 28.515625 63.921875 
L 10.984375 60.40625 
L 10.984375 69.390625 
L 28.421875 72.90625 
L 38.28125 72.90625 
L 38.28125 8.296875 
L 54.390625 8.296875 
L 54.390625 0 
L 12.40625 0 
z
" id="DejaVuSans-49"/>
        <path d="M 31.78125 66.40625 
Q 24.171875 66.40625 20.328125 58.90625 
Q 16.5 51.421875 16.5 36.375 
Q 16.5 21.390625 20.328125 13.890625 
Q 24.171875 6.390625 31.78125 6.390625 
Q 39.453125 6.390625 43.28125 13.890625 
Q 47.125 21.390625 47.125 36.375 
Q 47.125 51.421875 43.28125 58.90625 
Q 39.453125 66.40625 31.78125 66.40625 
z
M 31.78125 74.21875 
Q 44.046875 74.21875 50.515625 64.515625 
Q 56.984375 54.828125 56.984375 36.375 
Q 56.984375 17.96875 50.515625 8.265625 
Q 44.046875 -1.421875 31.78125 -1.421875 
Q 19.53125 -1.421875 13.0625 8.265625 
Q 6.59375 17.96875 6.59375 36.375 
Q 6.59375 54.828125 13.0625 64.515625 
Q 19.53125 74.21875 31.78125 74.21875 
z
" id="DejaVuSans-48"/>
        <path d="M 10.6875 12.40625 
L 21 12.40625 
L 21 0 
L 10.6875 0 
z
" id="DejaVuSans-46"/>
       </defs>
       <use xlink:href="#DejaVuSans-49"/>
       <use x="63.623047" xlink:href="#DejaVuSans-48"/>
       <use x="127.246094" xlink:href="#DejaVuSans-48"/>
       <use x="190.869141" xlink:href="#DejaVuSans-46"/>
       <use x="222.65625" xlink:href="#DejaVuSans-48"/>
      </g>
     </g>
    </g>
    <g id="xtick_2">
     <g id="line2d_2">
      <g>
       <use style="stroke:#000000;stroke-width:0.8;" x="111.76843" xlink:href="#mdc0f960a86" y="224.64"/>
      </g>
     </g>
     <g id="text_2">
      <!-- 100.5 -->
      <g transform="translate(97.454368 239.238437)scale(0.1 -0.1)">
       <defs>
        <path d="M 10.796875 72.90625 
L 49.515625 72.90625 
L 49.515625 64.59375 
L 19.828125 64.59375 
L 19.828125 46.734375 
Q 21.96875 47.46875 24.109375 47.828125 
Q 26.265625 48.1875 28.421875 48.1875 
Q 40.625 48.1875 47.75 41.5 
Q 54.890625 34.8125 54.890625 23.390625 
Q 54.890625 11.625 47.5625 5.09375 
Q 40.234375 -1.421875 26.90625 -1.421875 
Q 22.3125 -1.421875 17.546875 -0.640625 
Q 12.796875 0.140625 7.71875 1.703125 
L 7.71875 11.625 
Q 12.109375 9.234375 16.796875 8.0625 
Q 21.484375 6.890625 26.703125 6.890625 
Q 35.15625 6.890625 40.078125 11.328125 
Q 45.015625 15.765625 45.015625 23.390625 
Q 45.015625 31 40.078125 35.4375 
Q 35.15625 39.890625 26.703125 39.890625 
Q 22.75 39.890625 18.8125 39.015625 
Q 14.890625 38.140625 10.796875 36.28125 
z
" id="DejaVuSans-53"/>
       </defs>
       <use xlink:href="#DejaVuSans-49"/>
       <use x="63.623047" xlink:href="#DejaVuSans-48"/>
       <use x="127.246094" xlink:href="#DejaVuSans-48"/>
       <use x="190.869141" xlink:href="#DejaVuSans-46"/>
       <use x="222.65625" xlink:href="#DejaVuSans-53"/>
      </g>
     </g>
    </g>
    <g id="xtick_3">
     <g id="line2d_3">
      <g>
       <use style="stroke:#000000;stroke-width:0.8;" x="149.816548" xlink:href="#mdc0f960a86" y="224.64"/>
      </g>
     </g>
     <g id="text_3">
      <!-- 101.0 -->
      <g transform="translate(135.502486 239.238437)scale(0.1 -0.1)">
       <use xlink:href="#DejaVuSans-49"/>
       <use x="63.623047" xlink:href="#DejaVuSans-48"/>
       <use x="127.246094" xlink:href="#DejaVuSans-49"/>
       <use x="190.869141" xlink:href="#DejaVuSans-46"/>
       <use x="222.65625" xlink:href="#DejaVuSans-48"/>
      </g>
     </g>
    </g>
    <g id="xtick_4">
     <g id="line2d_4">
      <g>
       <use style="stroke:#000000;stroke-width:0.8;" x="187.864666" xlink:href="#mdc0f960a86" y="224.64"/>
      </g>
     </g>
     <g id="text_4">
      <!-- 101.5 -->
      <g transform="translate(173.550604 239.238437)scale(0.1 -0.1)">
       <use xlink:href="#DejaVuSans-49"/>
       <use x="63.623047" xlink:href="#DejaVuSans-48"/>
       <use x="127.246094" xlink:href="#DejaVuSans-49"/>
       <use x="190.869141" xlink:href="#DejaVuSans-46"/>
       <use x="222.65625" xlink:href="#DejaVuSans-53"/>
      </g>
     </g>
    </g>
    <g id="xtick_5">
     <g id="line2d_5">
      <g>
       <use style="stroke:#000000;stroke-width:0.8;" x="225.912784" xlink:href="#mdc0f960a86" y="224.64"/>
      </g>
     </g>
     <g id="text_5">
      <!-- 102.0 -->
      <g transform="translate(211.598722 239.238437)scale(0.1 -0.1)">
       <defs>
        <path d="M 19.1875 8.296875 
L 53.609375 8.296875 
L 53.609375 0 
L 7.328125 0 
L 7.328125 8.296875 
Q 12.9375 14.109375 22.625 23.890625 
Q 32.328125 33.6875 34.8125 36.53125 
Q 39.546875 41.84375 41.421875 45.53125 
Q 43.3125 49.21875 43.3125 52.78125 
Q 43.3125 58.59375 39.234375 62.25 
Q 35.15625 65.921875 28.609375 65.921875 
Q 23.96875 65.921875 18.8125 64.3125 
Q 13.671875 62.703125 7.8125 59.421875 
L 7.8125 69.390625 
Q 13.765625 71.78125 18.9375 73 
Q 24.125 74.21875 28.421875 74.21875 
Q 39.75 74.21875 46.484375 68.546875 
Q 53.21875 62.890625 53.21875 53.421875 
Q 53.21875 48.921875 51.53125 44.890625 
Q 49.859375 40.875 45.40625 35.40625 
Q 44.1875 33.984375 37.640625 27.21875 
Q 31.109375 20.453125 19.1875 8.296875 
z
" id="DejaVuSans-50"/>
       </defs>
       <use xlink:href="#DejaVuSans-49"/>
       <use x="63.623047" xlink:href="#DejaVuSans-48"/>
       <use x="127.246094" xlink:href="#DejaVuSans-50"/>
       <use x="190.869141" xlink:href="#DejaVuSans-46"/>
       <use x="222.65625" xlink:href="#DejaVuSans-48"/>
      </g>
     </g>
    </g>
    <g id="xtick_6">
     <g id="line2d_6">
      <g>
       <use style="stroke:#000000;stroke-width:0.8;" x="263.960902" xlink:href="#mdc0f960a86" y="224.64"/>
      </g>
     </g>
     <g id="text_6">
      <!-- 102.5 -->
      <g transform="translate(249.646839 239.238437)scale(0.1 -0.1)">
       <use xlink:href="#DejaVuSans-49"/>
       <use x="63.623047" xlink:href="#DejaVuSans-48"/>
       <use x="127.246094" xlink:href="#DejaVuSans-50"/>
       <use x="190.869141" xlink:href="#DejaVuSans-46"/>
       <use x="222.65625" xlink:href="#DejaVuSans-53"/>
      </g>
     </g>
    </g>
    <g id="xtick_7">
     <g id="line2d_7">
      <g>
       <use style="stroke:#000000;stroke-width:0.8;" x="302.00902" xlink:href="#mdc0f960a86" y="224.64"/>
      </g>
     </g>
     <g id="text_7">
      <!-- 103.0 -->
      <g transform="translate(287.694957 239.238437)scale(0.1 -0.1)">
       <defs>
        <path d="M 40.578125 39.3125 
Q 47.65625 37.796875 51.625 33 
Q 55.609375 28.21875 55.609375 21.1875 
Q 55.609375 10.40625 48.1875 4.484375 
Q 40.765625 -1.421875 27.09375 -1.421875 
Q 22.515625 -1.421875 17.65625 -0.515625 
Q 12.796875 0.390625 7.625 2.203125 
L 7.625 11.71875 
Q 11.71875 9.328125 16.59375 8.109375 
Q 21.484375 6.890625 26.8125 6.890625 
Q 36.078125 6.890625 40.9375 10.546875 
Q 45.796875 14.203125 45.796875 21.1875 
Q 45.796875 27.640625 41.28125 31.265625 
Q 36.765625 34.90625 28.71875 34.90625 
L 20.21875 34.90625 
L 20.21875 43.015625 
L 29.109375 43.015625 
Q 36.375 43.015625 40.234375 45.921875 
Q 44.09375 48.828125 44.09375 54.296875 
Q 44.09375 59.90625 40.109375 62.90625 
Q 36.140625 65.921875 28.71875 65.921875 
Q 24.65625 65.921875 20.015625 65.03125 
Q 15.375 64.15625 9.8125 62.3125 
L 9.8125 71.09375 
Q 15.4375 72.65625 20.34375 73.4375 
Q 25.25 74.21875 29.59375 74.21875 
Q 40.828125 74.21875 47.359375 69.109375 
Q 53.90625 64.015625 53.90625 55.328125 
Q 53.90625 49.265625 50.4375 45.09375 
Q 46.96875 40.921875 40.578125 39.3125 
z
" id="DejaVuSans-51"/>
       </defs>
       <use xlink:href="#DejaVuSans-49"/>
       <use x="63.623047" xlink:href="#DejaVuSans-48"/>
       <use x="127.246094" xlink:href="#DejaVuSans-51"/>
       <use x="190.869141" xlink:href="#DejaVuSans-46"/>
       <use x="222.65625" xlink:href="#DejaVuSans-48"/>
      </g>
     </g>
    </g>
    <g id="xtick_8">
     <g id="line2d_8">
      <g>
       <use style="stroke:#000000;stroke-width:0.8;" x="340.057138" xlink:href="#mdc0f960a86" y="224.64"/>
      </g>
     </g>
     <g id="text_8">
      <!-- 103.5 -->
      <g transform="translate(325.743075 239.238437)scale(0.1 -0.1)">
       <use xlink:href="#DejaVuSans-49"/>
       <use x="63.623047" xlink:href="#DejaVuSans-48"/>
       <use x="127.246094" xlink:href="#DejaVuSans-51"/>
       <use x="190.869141" xlink:href="#DejaVuSans-46"/>
       <use x="222.65625" xlink:href="#DejaVuSans-53"/>
      </g>
     </g>
    </g>
    <g id="xtick_9">
     <g id="line2d_9">
      <g>
       <use style="stroke:#000000;stroke-width:0.8;" x="378.105256" xlink:href="#mdc0f960a86" y="224.64"/>
      </g>
     </g>
     <g id="text_9">
      <!-- 104.0 -->
      <g transform="translate(363.791193 239.238437)scale(0.1 -0.1)">
       <defs>
        <path d="M 37.796875 64.3125 
L 12.890625 25.390625 
L 37.796875 25.390625 
z
M 35.203125 72.90625 
L 47.609375 72.90625 
L 47.609375 25.390625 
L 58.015625 25.390625 
L 58.015625 17.1875 
L 47.609375 17.1875 
L 47.609375 0 
L 37.796875 0 
L 37.796875 17.1875 
L 4.890625 17.1875 
L 4.890625 26.703125 
z
" id="DejaVuSans-52"/>
       </defs>
       <use xlink:href="#DejaVuSans-49"/>
       <use x="63.623047" xlink:href="#DejaVuSans-48"/>
       <use x="127.246094" xlink:href="#DejaVuSans-52"/>
       <use x="190.869141" xlink:href="#DejaVuSans-46"/>
       <use x="222.65625" xlink:href="#DejaVuSans-48"/>
      </g>
     </g>
    </g>
   </g>
   <g id="matplotlib.axis_2">
    <g id="ytick_1">
     <g id="line2d_10">
      <defs>
       <path d="M 0 0 
L -3.5 0 
" id="m4fc5c34ecd" style="stroke:#000000;stroke-width:0.8;"/>
      </defs>
      <g>
       <use style="stroke:#000000;stroke-width:0.8;" x="58.523438" xlink:href="#m4fc5c34ecd" y="214.756517"/>
      </g>
     </g>
     <g id="text_10">
      <!-- −1.00 -->
      <g style="fill:#1f77b4;" transform="translate(20.878125 218.555735)scale(0.1 -0.1)">
       <defs>
        <path d="M 10.59375 35.5 
L 73.1875 35.5 
L 73.1875 27.203125 
L 10.59375 27.203125 
z
" id="DejaVuSans-8722"/>
       </defs>
       <use xlink:href="#DejaVuSans-8722"/>
       <use x="83.789062" xlink:href="#DejaVuSans-49"/>
       <use x="147.412109" xlink:href="#DejaVuSans-46"/>
       <use x="179.199219" xlink:href="#DejaVuSans-48"/>
       <use x="242.822266" xlink:href="#DejaVuSans-48"/>
      </g>
     </g>
    </g>
    <g id="ytick_2">
     <g id="line2d_11">
      <g>
       <use style="stroke:#000000;stroke-width:0.8;" x="58.523438" xlink:href="#m4fc5c34ecd" y="190.047387"/>
      </g>
     </g>
     <g id="text_11">
      <!-- −0.75 -->
      <g style="fill:#1f77b4;" transform="translate(20.878125 193.846606)scale(0.1 -0.1)">
       <defs>
        <path d="M 8.203125 72.90625 
L 55.078125 72.90625 
L 55.078125 68.703125 
L 28.609375 0 
L 18.3125 0 
L 43.21875 64.59375 
L 8.203125 64.59375 
z
" id="DejaVuSans-55"/>
       </defs>
       <use xlink:href="#DejaVuSans-8722"/>
       <use x="83.789062" xlink:href="#DejaVuSans-48"/>
       <use x="147.412109" xlink:href="#DejaVuSans-46"/>
       <use x="179.199219" xlink:href="#DejaVuSans-55"/>
       <use x="242.822266" xlink:href="#DejaVuSans-53"/>
      </g>
     </g>
    </g>
    <g id="ytick_3">
     <g id="line2d_12">
      <g>
       <use style="stroke:#000000;stroke-width:0.8;" x="58.523438" xlink:href="#m4fc5c34ecd" y="165.338258"/>
      </g>
     </g>
     <g id="text_12">
      <!-- −0.50 -->
      <g style="fill:#1f77b4;" transform="translate(20.878125 169.137477)scale(0.1 -0.1)">
       <use xlink:href="#DejaVuSans-8722"/>
       <use x="83.789062" xlink:href="#DejaVuSans-48"/>
       <use x="147.412109" xlink:href="#DejaVuSans-46"/>
       <use x="179.199219" xlink:href="#DejaVuSans-53"/>
       <use x="242.822266" xlink:href="#DejaVuSans-48"/>
      </g>
     </g>
    </g>
    <g id="ytick_4">
     <g id="line2d_13">
      <g>
       <use style="stroke:#000000;stroke-width:0.8;" x="58.523438" xlink:href="#m4fc5c34ecd" y="140.629129"/>
      </g>
     </g>
     <g id="text_13">
      <!-- −0.25 -->
      <g style="fill:#1f77b4;" transform="translate(20.878125 144.428348)scale(0.1 -0.1)">
       <use xlink:href="#DejaVuSans-8722"/>
       <use x="83.789062" xlink:href="#DejaVuSans-48"/>
       <use x="147.412109" xlink:href="#DejaVuSans-46"/>
       <use x="179.199219" xlink:href="#DejaVuSans-50"/>
       <use x="242.822266" xlink:href="#DejaVuSans-53"/>
      </g>
     </g>
    </g>
    <g id="ytick_5">
     <g id="line2d_14">
      <g>
       <use style="stroke:#000000;stroke-width:0.8;" x="58.523438" xlink:href="#m4fc5c34ecd" y="115.92"/>
      </g>
     </g>
     <g id="text_14">
      <!-- 0.00 -->
      <g style="fill:#1f77b4;" transform="translate(29.257813 119.719219)scale(0.1 -0.1)">
       <use xlink:href="#DejaVuSans-48"/>
       <use x="63.623047" xlink:href="#DejaVuSans-46"/>
       <use x="95.410156" xlink:href="#DejaVuSans-48"/>
       <use x="159.033203" xlink:href="#DejaVuSans-48"/>
      </g>
     </g>
    </g>
    <g id="ytick_6">
     <g id="line2d_15">
      <g>
       <use style="stroke:#000000;stroke-width:0.8;" x="58.523438" xlink:href="#m4fc5c34ecd" y="91.210871"/>
      </g>
     </g>
     <g id="text_15">
      <!-- 0.25 -->
      <g style="fill:#1f77b4;" transform="translate(29.257813 95.01009)scale(0.1 -0.1)">
       <use xlink:href="#DejaVuSans-48"/>
       <use x="63.623047" xlink:href="#DejaVuSans-46"/>
       <use x="95.410156" xlink:href="#DejaVuSans-50"/>
       <use x="159.033203" xlink:href="#DejaVuSans-53"/>
      </g>
     </g>
    </g>
    <g id="ytick_7">
     <g id="line2d_16">
      <g>
       <use style="stroke:#000000;stroke-width:0.8;" x="58.523438" xlink:href="#m4fc5c34ecd" y="66.501742"/>
      </g>
     </g>
     <g id="text_16">
      <!-- 0.50 -->
      <g style="fill:#1f77b4;" transform="translate(29.257813 70.30096)scale(0.1 -0.1)">
       <use xlink:href="#DejaVuSans-48"/>
       <use x="63.623047" xlink:href="#DejaVuSans-46"/>
       <use x="95.410156" xlink:href="#DejaVuSans-53"/>
       <use x="159.033203" xlink:href="#DejaVuSans-48"/>
      </g>
     </g>
    </g>
    <g id="ytick_8">
     <g id="line2d_17">
      <g>
       <use style="stroke:#000000;stroke-width:0.8;" x="58.523438" xlink:href="#m4fc5c34ecd" y="41.792613"/>
      </g>
     </g>
     <g id="text_17">
      <!-- 0.75 -->
      <g style="fill:#1f77b4;" transform="translate(29.257813 45.591831)scale(0.1 -0.1)">
       <use xlink:href="#DejaVuSans-48"/>
       <use x="63.623047" xlink:href="#DejaVuSans-46"/>
       <use x="95.410156" xlink:href="#DejaVuSans-55"/>
       <use x="159.033203" xlink:href="#DejaVuSans-53"/>
      </g>
     </g>
    </g>
    <g id="ytick_9">
     <g id="line2d_18">
      <g>
       <use style="stroke:#000000;stroke-width:0.8;" x="58.523438" xlink:href="#m4fc5c34ecd" y="17.083483"/>
      </g>
     </g>
     <g id="text_18">
      <!-- 1.00 -->
      <g style="fill:#1f77b4;" transform="translate(29.257813 20.882702)scale(0.1 -0.1)">
       <use xlink:href="#DejaVuSans-49"/>
       <use x="63.623047" xlink:href="#DejaVuSans-46"/>
       <use x="95.410156" xlink:href="#DejaVuSans-48"/>
       <use x="159.033203" xlink:href="#DejaVuSans-48"/>
      </g>
     </g>
    </g>
    <g id="text_19">
     <!-- IN [V] -->
     <g style="fill:#1f77b4;" transform="translate(14.798438 130.046562)rotate(-90)scale(0.1 -0.1)">
      <defs>
       <path d="M 9.8125 72.90625 
L 19.671875 72.90625 
L 19.671875 0 
L 9.8125 0 
z
" id="DejaVuSans-73"/>
       <path d="M 9.8125 72.90625 
L 23.09375 72.90625 
L 55.421875 11.921875 
L 55.421875 72.90625 
L 64.984375 72.90625 
L 64.984375 0 
L 51.703125 0 
L 19.390625 60.984375 
L 19.390625 0 
L 9.8125 0 
z
" id="DejaVuSans-78"/>
       <path id="DejaVuSans-32"/>
       <path d="M 8.59375 75.984375 
L 29.296875 75.984375 
L 29.296875 69 
L 17.578125 69 
L 17.578125 -6.203125 
L 29.296875 -6.203125 
L 29.296875 -13.1875 
L 8.59375 -13.1875 
z
" id="DejaVuSans-91"/>
       <path d="M 28.609375 0 
L 0.78125 72.90625 
L 11.078125 72.90625 
L 34.1875 11.53125 
L 57.328125 72.90625 
L 67.578125 72.90625 
L 39.796875 0 
z
" id="DejaVuSans-86"/>
       <path d="M 30.421875 75.984375 
L 30.421875 -13.1875 
L 9.71875 -13.1875 
L 9.71875 -6.203125 
L 21.390625 -6.203125 
L 21.390625 69 
L 9.71875 69 
L 9.71875 75.984375 
z
" id="DejaVuSans-93"/>
      </defs>
      <use xlink:href="#DejaVuSans-73"/>
      <use x="29.492188" xlink:href="#DejaVuSans-78"/>
      <use x="104.296875" xlink:href="#DejaVuSans-32"/>
      <use x="136.083984" xlink:href="#DejaVuSans-91"/>
      <use x="175.097656" xlink:href="#DejaVuSans-86"/>
      <use x="243.505859" xlink:href="#DejaVuSans-93"/>
     </g>
    </g>
   </g>
   <g id="line2d_19">
    <path clip-path="url(#p02c22a93bc)" d="M 73.741619 115.746118 
L 78.307393 79.374236 
L 80.742473 61.770738 
L 82.720975 49.044321 
L 84.395092 39.654436 
L 85.840921 32.710004 
L 87.134557 27.497998 
L 88.276 23.734487 
L 89.341348 20.959552 
L 90.254502 19.164826 
L 91.091561 18.002435 
L 91.776427 17.398977 
L 92.385197 17.126944 
L 92.993967 17.104472 
L 93.602737 17.331616 
L 94.211507 17.807803 
L 94.896373 18.639675 
L 95.657335 19.928576 
L 96.494394 21.78368 
L 97.483645 24.55477 
L 98.548992 28.219736 
L 99.766532 33.236782 
L 101.136264 39.87611 
L 102.658189 48.388608 
L 104.408402 59.485465 
L 106.463001 73.994856 
L 109.126369 94.52921 
L 118.181821 165.846507 
L 120.236419 179.531196 
L 121.986633 189.761918 
L 123.508558 197.413605 
L 124.87829 203.204304 
L 126.09583 207.417304 
L 127.161177 210.34699 
L 128.074332 212.277689 
L 128.91139 213.566725 
L 129.672353 214.334088 
L 130.281123 214.668428 
L 130.889892 214.75332 
L 131.498662 214.588551 
L 132.107432 214.174537 
L 132.792298 213.412171 
L 133.553261 212.199696 
L 134.390319 210.427334 
L 135.37957 207.751717 
L 136.444918 204.18607 
L 137.662457 199.277131 
L 139.03219 192.751239 
L 140.554114 184.352921 
L 142.304328 173.369695 
L 144.358926 158.966542 
L 146.946198 139.125751 
L 156.534324 63.865676 
L 158.512826 50.894301 
L 160.263039 40.852924 
L 161.784964 33.386799 
L 163.0786 28.05991 
L 164.29614 23.960263 
L 165.361487 21.133632 
L 166.274642 19.293508 
L 167.111701 18.088854 
L 167.796567 17.450501 
L 168.405337 17.147309 
L 169.014107 17.093625 
L 169.622876 17.289586 
L 170.231646 17.734695 
L 170.916512 18.53183 
L 171.677475 19.782542 
L 172.514533 21.596311 
L 173.503784 24.319718 
L 174.569132 27.935096 
L 175.786672 32.898187 
L 177.156404 39.480927 
L 178.678329 47.936501 
L 180.428542 58.976761 
L 182.48314 73.433318 
L 185.070412 93.318351 
L 194.430249 166.914441 
L 196.484848 180.476741 
L 198.235061 190.581632 
L 199.756986 198.109909 
L 201.126718 203.78009 
L 202.344258 207.879737 
L 203.409605 210.706368 
L 204.32276 212.546492 
L 205.159819 213.751146 
L 205.844685 214.389499 
L 206.453455 214.692691 
L 207.062224 214.746375 
L 207.670994 214.550414 
L 208.279764 214.105305 
L 208.96463 213.30817 
L 209.725593 212.057458 
L 210.562651 210.243689 
L 211.551902 207.520282 
L 212.61725 203.904904 
L 213.834789 198.941813 
L 215.204522 192.359073 
L 216.726446 183.903499 
L 218.47666 172.863239 
L 220.531258 158.406682 
L 223.11853 138.521649 
L 232.478367 64.925559 
L 234.532966 51.363259 
L 236.283179 41.258368 
L 237.805104 33.730091 
L 239.174836 28.05991 
L 240.392376 23.960263 
L 241.457723 21.133632 
L 242.370878 19.293508 
L 243.207937 18.088854 
L 243.892803 17.450501 
L 244.501573 17.147309 
L 245.110342 17.093625 
L 245.719112 17.289586 
L 246.327882 17.734695 
L 247.012748 18.53183 
L 247.773711 19.782542 
L 248.610769 21.596311 
L 249.60002 24.319718 
L 250.665368 27.935096 
L 251.882907 32.898187 
L 253.25264 39.480927 
L 254.774564 47.936501 
L 256.524778 58.976761 
L 258.579376 73.433318 
L 261.166648 93.318351 
L 270.526485 166.914441 
L 272.581084 180.476741 
L 274.331297 190.581632 
L 275.853222 198.109909 
L 277.222954 203.78009 
L 278.440494 207.879737 
L 279.505841 210.706368 
L 280.418996 212.546492 
L 281.256054 213.751146 
L 281.940921 214.389499 
L 282.54969 214.692691 
L 283.15846 214.746375 
L 283.76723 214.550414 
L 284.376 214.105305 
L 285.060866 213.30817 
L 285.821829 212.057458 
L 286.658887 210.243689 
L 287.648138 207.520282 
L 288.713486 203.904904 
L 289.931025 198.941813 
L 291.300758 192.359073 
L 292.822682 183.903499 
L 294.572896 172.863239 
L 296.627494 158.406682 
L 299.214766 138.521649 
L 308.574603 64.925559 
L 310.629201 51.363259 
L 312.379415 41.258368 
L 313.90134 33.730091 
L 315.271072 28.05991 
L 316.488612 23.960263 
L 317.553959 21.133632 
L 318.467114 19.293508 
L 319.304172 18.088854 
L 319.989038 17.450501 
L 320.597808 17.147309 
L 321.206578 17.093625 
L 321.815348 17.289586 
L 322.424118 17.734695 
L 323.108984 18.53183 
L 323.869946 19.782542 
L 324.707005 21.596311 
L 325.696256 24.319718 
L 326.761603 27.935096 
L 327.979143 32.898187 
L 329.348875 39.480927 
L 330.8708 47.936501 
L 332.621014 58.976761 
L 334.675612 73.433318 
L 337.262884 93.318351 
L 346.622721 166.914441 
L 348.677319 180.476741 
L 350.427533 190.581632 
L 351.949458 198.109909 
L 353.31919 203.78009 
L 354.53673 207.879737 
L 355.602077 210.706368 
L 356.515232 212.546492 
L 357.35229 213.751146 
L 358.037156 214.389499 
L 358.645926 214.692691 
L 359.254696 214.746375 
L 359.863466 214.550414 
L 360.472236 214.105305 
L 361.157102 213.30817 
L 361.918064 212.057458 
L 362.755123 210.243689 
L 363.744374 207.520282 
L 364.809721 203.904904 
L 366.027261 198.941813 
L 367.396993 192.359073 
L 368.918918 183.903499 
L 370.669132 172.863239 
L 372.72373 158.406682 
L 375.311002 138.521649 
L 378.105256 115.92 
L 378.105256 115.92 
" style="fill:none;stroke:#1f77b4;stroke-linecap:square;stroke-width:1.5;"/>
   </g>
   <g id="patch_3">
    <path d="M 58.523438 224.64 
L 58.523438 7.2 
" style="fill:none;stroke:#000000;stroke-linecap:square;stroke-linejoin:miter;stroke-width:0.8;"/>
   </g>
   <g id="patch_4">
    <path d="M 393.323438 224.64 
L 393.323438 7.2 
" style="fill:none;stroke:#000000;stroke-linecap:square;stroke-linejoin:miter;stroke-width:0.8;"/>
   </g>
   <g id="patch_5">
    <path d="M 58.523438 224.64 
L 393.323438 224.64 
" style="fill:none;stroke:#000000;stroke-linecap:square;stroke-linejoin:miter;stroke-width:0.8;"/>
   </g>
   <g id="patch_6">
    <path d="M 58.523438 7.2 
L 393.323438 7.2 
" style="fill:none;stroke:#000000;stroke-linecap:square;stroke-linejoin:miter;stroke-width:0.8;"/>
   </g>
   <g id="text_20">
    <!-- cmos buffer -->
    <g transform="translate(190.081875 283.872)scale(0.12 -0.12)">
     <defs>
      <path d="M 48.78125 52.59375 
L 48.78125 44.1875 
Q 44.96875 46.296875 41.140625 47.34375 
Q 37.3125 48.390625 33.40625 48.390625 
Q 24.65625 48.390625 19.8125 42.84375 
Q 14.984375 37.3125 14.984375 27.296875 
Q 14.984375 17.28125 19.8125 11.734375 
Q 24.65625 6.203125 33.40625 6.203125 
Q 37.3125 6.203125 41.140625 7.25 
Q 44.96875 8.296875 48.78125 10.40625 
L 48.78125 2.09375 
Q 45.015625 0.34375 40.984375 -0.53125 
Q 36.96875 -1.421875 32.421875 -1.421875 
Q 20.0625 -1.421875 12.78125 6.34375 
Q 5.515625 14.109375 5.515625 27.296875 
Q 5.515625 40.671875 12.859375 48.328125 
Q 20.21875 56 33.015625 56 
Q 37.15625 56 41.109375 55.140625 
Q 45.0625 54.296875 48.78125 52.59375 
z
" id="DejaVuSans-99"/>
      <path d="M 52 44.1875 
Q 55.375 50.25 60.0625 53.125 
Q 64.75 56 71.09375 56 
Q 79.640625 56 84.28125 50.015625 
Q 88.921875 44.046875 88.921875 33.015625 
L 88.921875 0 
L 79.890625 0 
L 79.890625 32.71875 
Q 79.890625 40.578125 77.09375 44.375 
Q 74.3125 48.1875 68.609375 48.1875 
Q 61.625 48.1875 57.5625 43.546875 
Q 53.515625 38.921875 53.515625 30.90625 
L 53.515625 0 
L 44.484375 0 
L 44.484375 32.71875 
Q 44.484375 40.625 41.703125 44.40625 
Q 38.921875 48.1875 33.109375 48.1875 
Q 26.21875 48.1875 22.15625 43.53125 
Q 18.109375 38.875 18.109375 30.90625 
L 18.109375 0 
L 9.078125 0 
L 9.078125 54.6875 
L 18.109375 54.6875 
L 18.109375 46.1875 
Q 21.1875 51.21875 25.484375 53.609375 
Q 29.78125 56 35.6875 56 
Q 41.65625 56 45.828125 52.96875 
Q 50 49.953125 52 44.1875 
z
" id="DejaVuSans-109"/>
      <path d="M 30.609375 48.390625 
Q 23.390625 48.390625 19.1875 42.75 
Q 14.984375 37.109375 14.984375 27.296875 
Q 14.984375 17.484375 19.15625 11.84375 
Q 23.34375 6.203125 30.609375 6.203125 
Q 37.796875 6.203125 41.984375 11.859375 
Q 46.1875 17.53125 46.1875 27.296875 
Q 46.1875 37.015625 41.984375 42.703125 
Q 37.796875 48.390625 30.609375 48.390625 
z
M 30.609375 56 
Q 42.328125 56 49.015625 48.375 
Q 55.71875 40.765625 55.71875 27.296875 
Q 55.71875 13.875 49.015625 6.21875 
Q 42.328125 -1.421875 30.609375 -1.421875 
Q 18.84375 -1.421875 12.171875 6.21875 
Q 5.515625 13.875 5.515625 27.296875 
Q 5.515625 40.765625 12.171875 48.375 
Q 18.84375 56 30.609375 56 
z
" id="DejaVuSans-111"/>
      <path d="M 44.28125 53.078125 
L 44.28125 44.578125 
Q 40.484375 46.53125 36.375 47.5 
Q 32.28125 48.484375 27.875 48.484375 
Q 21.1875 48.484375 17.84375 46.4375 
Q 14.5 44.390625 14.5 40.28125 
Q 14.5 37.15625 16.890625 35.375 
Q 19.28125 33.59375 26.515625 31.984375 
L 29.59375 31.296875 
Q 39.15625 29.25 43.1875 25.515625 
Q 47.21875 21.78125 47.21875 15.09375 
Q 47.21875 7.46875 41.1875 3.015625 
Q 35.15625 -1.421875 24.609375 -1.421875 
Q 20.21875 -1.421875 15.453125 -0.5625 
Q 10.6875 0.296875 5.421875 2 
L 5.421875 11.28125 
Q 10.40625 8.6875 15.234375 7.390625 
Q 20.0625 6.109375 24.8125 6.109375 
Q 31.15625 6.109375 34.5625 8.28125 
Q 37.984375 10.453125 37.984375 14.40625 
Q 37.984375 18.0625 35.515625 20.015625 
Q 33.0625 21.96875 24.703125 23.78125 
L 21.578125 24.515625 
Q 13.234375 26.265625 9.515625 29.90625 
Q 5.8125 33.546875 5.8125 39.890625 
Q 5.8125 47.609375 11.28125 51.796875 
Q 16.75 56 26.8125 56 
Q 31.78125 56 36.171875 55.265625 
Q 40.578125 54.546875 44.28125 53.078125 
z
" id="DejaVuSans-115"/>
      <path d="M 48.6875 27.296875 
Q 48.6875 37.203125 44.609375 42.84375 
Q 40.53125 48.484375 33.40625 48.484375 
Q 26.265625 48.484375 22.1875 42.84375 
Q 18.109375 37.203125 18.109375 27.296875 
Q 18.109375 17.390625 22.1875 11.75 
Q 26.265625 6.109375 33.40625 6.109375 
Q 40.53125 6.109375 44.609375 11.75 
Q 48.6875 17.390625 48.6875 27.296875 
z
M 18.109375 46.390625 
Q 20.953125 51.265625 25.265625 53.625 
Q 29.59375 56 35.59375 56 
Q 45.5625 56 51.78125 48.09375 
Q 58.015625 40.1875 58.015625 27.296875 
Q 58.015625 14.40625 51.78125 6.484375 
Q 45.5625 -1.421875 35.59375 -1.421875 
Q 29.59375 -1.421875 25.265625 0.953125 
Q 20.953125 3.328125 18.109375 8.203125 
L 18.109375 0 
L 9.078125 0 
L 9.078125 75.984375 
L 18.109375 75.984375 
z
" id="DejaVuSans-98"/>
      <path d="M 8.5 21.578125 
L 8.5 54.6875 
L 17.484375 54.6875 
L 17.484375 21.921875 
Q 17.484375 14.15625 20.5 10.265625 
Q 23.53125 6.390625 29.59375 6.390625 
Q 36.859375 6.390625 41.078125 11.03125 
Q 45.3125 15.671875 45.3125 23.6875 
L 45.3125 54.6875 
L 54.296875 54.6875 
L 54.296875 0 
L 45.3125 0 
L 45.3125 8.40625 
Q 42.046875 3.421875 37.71875 1 
Q 33.40625 -1.421875 27.6875 -1.421875 
Q 18.265625 -1.421875 13.375 4.4375 
Q 8.5 10.296875 8.5 21.578125 
z
M 31.109375 56 
z
" id="DejaVuSans-117"/>
      <path d="M 37.109375 75.984375 
L 37.109375 68.5 
L 28.515625 68.5 
Q 23.6875 68.5 21.796875 66.546875 
Q 19.921875 64.59375 19.921875 59.515625 
L 19.921875 54.6875 
L 34.71875 54.6875 
L 34.71875 47.703125 
L 19.921875 47.703125 
L 19.921875 0 
L 10.890625 0 
L 10.890625 47.703125 
L 2.296875 47.703125 
L 2.296875 54.6875 
L 10.890625 54.6875 
L 10.890625 58.5 
Q 10.890625 67.625 15.140625 71.796875 
Q 19.390625 75.984375 28.609375 75.984375 
z
" id="DejaVuSans-102"/>
      <path d="M 56.203125 29.59375 
L 56.203125 25.203125 
L 14.890625 25.203125 
Q 15.484375 15.921875 20.484375 11.0625 
Q 25.484375 6.203125 34.421875 6.203125 
Q 39.59375 6.203125 44.453125 7.46875 
Q 49.3125 8.734375 54.109375 11.28125 
L 54.109375 2.78125 
Q 49.265625 0.734375 44.1875 -0.34375 
Q 39.109375 -1.421875 33.890625 -1.421875 
Q 20.796875 -1.421875 13.15625 6.1875 
Q 5.515625 13.8125 5.515625 26.8125 
Q 5.515625 40.234375 12.765625 48.109375 
Q 20.015625 56 32.328125 56 
Q 43.359375 56 49.78125 48.890625 
Q 56.203125 41.796875 56.203125 29.59375 
z
M 47.21875 32.234375 
Q 47.125 39.59375 43.09375 43.984375 
Q 39.0625 48.390625 32.421875 48.390625 
Q 24.90625 48.390625 20.390625 44.140625 
Q 15.875 39.890625 15.1875 32.171875 
z
" id="DejaVuSans-101"/>
      <path d="M 41.109375 46.296875 
Q 39.59375 47.171875 37.8125 47.578125 
Q 36.03125 48 33.890625 48 
Q 26.265625 48 22.1875 43.046875 
Q 18.109375 38.09375 18.109375 28.8125 
L 18.109375 0 
L 9.078125 0 
L 9.078125 54.6875 
L 18.109375 54.6875 
L 18.109375 46.1875 
Q 20.953125 51.171875 25.484375 53.578125 
Q 30.03125 56 36.53125 56 
Q 37.453125 56 38.578125 55.875 
Q 39.703125 55.765625 41.0625 55.515625 
z
" id="DejaVuSans-114"/>
     </defs>
     <use xlink:href="#DejaVuSans-99"/>
     <use x="54.980469" xlink:href="#DejaVuSans-109"/>
     <use x="152.392578" xlink:href="#DejaVuSans-111"/>
     <use x="213.574219" xlink:href="#DejaVuSans-115"/>
     <use x="265.673828" xlink:href="#DejaVuSans-32"/>
     <use x="297.460938" xlink:href="#DejaVuSans-98"/>
     <use x="360.9375" xlink:href="#DejaVuSans-117"/>
     <use x="424.316406" xlink:href="#DejaVuSans-102"/>
     <use x="459.521484" xlink:href="#DejaVuSans-102"/>
     <use x="494.726562" xlink:href="#DejaVuSans-101"/>
     <use x="556.25" xlink:href="#DejaVuSans-114"/>
    </g>
   </g>
  </g>
  <g id="axes_2">
   <g id="matplotlib.axis_3">
    <g id="ytick_10">
     <g id="line2d_20">
      <defs>
       <path d="M 0 0 
L 3.5 0 
" id="mb31f2ab08c" style="stroke:#000000;stroke-width:0.8;"/>
      </defs>
      <g>
       <use style="stroke:#000000;stroke-width:0.8;" x="393.323438" xlink:href="#mb31f2ab08c" y="210.912021"/>
      </g>
     </g>
     <g id="text_21">
      <!-- 1.5 -->
      <g style="fill:#d62728;" transform="translate(400.323438 214.71124)scale(0.1 -0.1)">
       <use xlink:href="#DejaVuSans-49"/>
       <use x="63.623047" xlink:href="#DejaVuSans-46"/>
       <use x="95.410156" xlink:href="#DejaVuSans-53"/>
      </g>
     </g>
    </g>
    <g id="ytick_11">
     <g id="line2d_21">
      <g>
       <use style="stroke:#000000;stroke-width:0.8;" x="393.323438" xlink:href="#mb31f2ab08c" y="183.009828"/>
      </g>
     </g>
     <g id="text_22">
      <!-- 2.0 -->
      <g style="fill:#d62728;" transform="translate(400.323438 186.809046)scale(0.1 -0.1)">
       <use xlink:href="#DejaVuSans-50"/>
       <use x="63.623047" xlink:href="#DejaVuSans-46"/>
       <use x="95.410156" xlink:href="#DejaVuSans-48"/>
      </g>
     </g>
    </g>
    <g id="ytick_12">
     <g id="line2d_22">
      <g>
       <use style="stroke:#000000;stroke-width:0.8;" x="393.323438" xlink:href="#mb31f2ab08c" y="155.107634"/>
      </g>
     </g>
     <g id="text_23">
      <!-- 2.5 -->
      <g style="fill:#d62728;" transform="translate(400.323438 158.906853)scale(0.1 -0.1)">
       <use xlink:href="#DejaVuSans-50"/>
       <use x="63.623047" xlink:href="#DejaVuSans-46"/>
       <use x="95.410156" xlink:href="#DejaVuSans-53"/>
      </g>
     </g>
    </g>
    <g id="ytick_13">
     <g id="line2d_23">
      <g>
       <use style="stroke:#000000;stroke-width:0.8;" x="393.323438" xlink:href="#mb31f2ab08c" y="127.205441"/>
      </g>
     </g>
     <g id="text_24">
      <!-- 3.0 -->
      <g style="fill:#d62728;" transform="translate(400.323438 131.00466)scale(0.1 -0.1)">
       <use xlink:href="#DejaVuSans-51"/>
       <use x="63.623047" xlink:href="#DejaVuSans-46"/>
       <use x="95.410156" xlink:href="#DejaVuSans-48"/>
      </g>
     </g>
    </g>
    <g id="ytick_14">
     <g id="line2d_24">
      <g>
       <use style="stroke:#000000;stroke-width:0.8;" x="393.323438" xlink:href="#mb31f2ab08c" y="99.303247"/>
      </g>
     </g>
     <g id="text_25">
      <!-- 3.5 -->
      <g style="fill:#d62728;" transform="translate(400.323438 103.102466)scale(0.1 -0.1)">
       <use xlink:href="#DejaVuSans-51"/>
       <use x="63.623047" xlink:href="#DejaVuSans-46"/>
       <use x="95.410156" xlink:href="#DejaVuSans-53"/>
      </g>
     </g>
    </g>
    <g id="ytick_15">
     <g id="line2d_25">
      <g>
       <use style="stroke:#000000;stroke-width:0.8;" x="393.323438" xlink:href="#mb31f2ab08c" y="71.401054"/>
      </g>
     </g>
     <g id="text_26">
      <!-- 4.0 -->
      <g style="fill:#d62728;" transform="translate(400.323438 75.200273)scale(0.1 -0.1)">
       <use xlink:href="#DejaVuSans-52"/>
       <use x="63.623047" xlink:href="#DejaVuSans-46"/>
       <use x="95.410156" xlink:href="#DejaVuSans-48"/>
      </g>
     </g>
    </g>
    <g id="ytick_16">
     <g id="line2d_26">
      <g>
       <use style="stroke:#000000;stroke-width:0.8;" x="393.323438" xlink:href="#mb31f2ab08c" y="43.498861"/>
      </g>
     </g>
     <g id="text_27">
      <!-- 4.5 -->
      <g style="fill:#d62728;" transform="translate(400.323438 47.298079)scale(0.1 -0.1)">
       <use xlink:href="#DejaVuSans-52"/>
       <use x="63.623047" xlink:href="#DejaVuSans-46"/>
       <use x="95.410156" xlink:href="#DejaVuSans-53"/>
      </g>
     </g>
    </g>
    <g id="ytick_17">
     <g id="line2d_27">
      <g>
       <use style="stroke:#000000;stroke-width:0.8;" x="393.323438" xlink:href="#mb31f2ab08c" y="15.596667"/>
      </g>
     </g>
     <g id="text_28">
      <!-- 5.0 -->
      <g style="fill:#d62728;" transform="translate(400.323438 19.395886)scale(0.1 -0.1)">
       <use xlink:href="#DejaVuSans-53"/>
       <use x="63.623047" xlink:href="#DejaVuSans-46"/>
       <use x="95.410156" xlink:href="#DejaVuSans-48"/>
      </g>
     </g>
    </g>
    <g id="text_29">
     <!-- OUT [V] -->
     <g style="fill:#d62728;" transform="translate(427.825 135.480156)rotate(-90)scale(0.1 -0.1)">
      <defs>
       <path d="M 39.40625 66.21875 
Q 28.65625 66.21875 22.328125 58.203125 
Q 16.015625 50.203125 16.015625 36.375 
Q 16.015625 22.609375 22.328125 14.59375 
Q 28.65625 6.59375 39.40625 6.59375 
Q 50.140625 6.59375 56.421875 14.59375 
Q 62.703125 22.609375 62.703125 36.375 
Q 62.703125 50.203125 56.421875 58.203125 
Q 50.140625 66.21875 39.40625 66.21875 
z
M 39.40625 74.21875 
Q 54.734375 74.21875 63.90625 63.9375 
Q 73.09375 53.65625 73.09375 36.375 
Q 73.09375 19.140625 63.90625 8.859375 
Q 54.734375 -1.421875 39.40625 -1.421875 
Q 24.03125 -1.421875 14.8125 8.828125 
Q 5.609375 19.09375 5.609375 36.375 
Q 5.609375 53.65625 14.8125 63.9375 
Q 24.03125 74.21875 39.40625 74.21875 
z
" id="DejaVuSans-79"/>
       <path d="M 8.6875 72.90625 
L 18.609375 72.90625 
L 18.609375 28.609375 
Q 18.609375 16.890625 22.84375 11.734375 
Q 27.09375 6.59375 36.625 6.59375 
Q 46.09375 6.59375 50.34375 11.734375 
Q 54.59375 16.890625 54.59375 28.609375 
L 54.59375 72.90625 
L 64.5 72.90625 
L 64.5 27.390625 
Q 64.5 13.140625 57.4375 5.859375 
Q 50.390625 -1.421875 36.625 -1.421875 
Q 22.796875 -1.421875 15.734375 5.859375 
Q 8.6875 13.140625 8.6875 27.390625 
z
" id="DejaVuSans-85"/>
       <path d="M -0.296875 72.90625 
L 61.375 72.90625 
L 61.375 64.59375 
L 35.5 64.59375 
L 35.5 0 
L 25.59375 0 
L 25.59375 64.59375 
L -0.296875 64.59375 
z
" id="DejaVuSans-84"/>
      </defs>
      <use xlink:href="#DejaVuSans-79"/>
      <use x="78.710938" xlink:href="#DejaVuSans-85"/>
      <use x="151.904297" xlink:href="#DejaVuSans-84"/>
      <use x="212.988281" xlink:href="#DejaVuSans-32"/>
      <use x="244.775391" xlink:href="#DejaVuSans-91"/>
      <use x="283.789062" xlink:href="#DejaVuSans-86"/>
      <use x="352.197266" xlink:href="#DejaVuSans-93"/>
     </g>
    </g>
   </g>
   <g id="line2d_28">
    <path clip-path="url(#p02c22a93bc)" d="M 73.741619 99.733069 
L 74.502582 111.674797 
L 75.035255 117.100807 
L 75.491833 119.729967 
L 76.481084 124.194719 
L 77.16595 128.637725 
L 78.003009 135.7793 
L 78.99226 146.285435 
L 80.590281 166.050018 
L 82.644879 190.969921 
L 83.710226 201.369813 
L 84.547285 207.643435 
L 85.232151 211.354989 
L 85.840921 213.521853 
L 86.297498 214.439247 
L 86.677979 214.744658 
L 86.982364 214.694216 
L 87.286749 214.388203 
L 87.66723 213.657842 
L 88.123808 212.294782 
L 88.732578 209.711222 
L 89.49354 205.390326 
L 90.482791 198.29687 
L 91.852523 186.614588 
L 95.276854 156.574482 
L 96.190009 150.583719 
L 96.874875 147.405043 
L 97.331452 146.179396 
L 97.78803 145.638889 
L 98.320703 144.949157 
L 98.777281 143.97077 
L 99.309955 142.215576 
L 99.918724 139.266319 
L 100.603591 134.617027 
L 101.364553 127.692152 
L 102.201612 117.892026 
L 103.190863 103.458151 
L 104.332306 83.385016 
L 105.854231 52.359593 
L 107.376156 21.225314 
L 107.68054 20.314305 
L 108.061022 19.908443 
L 108.821984 19.507582 
L 110.572197 18.879124 
L 112.855085 18.30414 
L 115.746741 17.817671 
L 119.475457 17.4311 
L 124.26952 17.170509 
L 130.052834 17.084955 
L 135.303474 17.216147 
L 138.956093 17.509162 
L 141.315077 17.899776 
L 142.913098 18.374833 
L 143.978445 18.903153 
L 144.739407 19.506864 
L 145.272081 20.172183 
L 145.728658 21.118892 
L 146.033043 22.277773 
L 146.261332 24.044072 
L 146.717909 30.132121 
L 147.326679 41.795703 
L 148.468123 69.099328 
L 149.761759 98.294422 
L 150.522721 110.694774 
L 151.131491 117.100807 
L 151.588069 119.729967 
L 152.57732 124.194719 
L 153.262186 128.637725 
L 154.099244 135.7793 
L 155.088495 146.285435 
L 156.686516 166.050018 
L 158.741115 190.969921 
L 159.806462 201.369813 
L 160.643521 207.643435 
L 161.328387 211.354989 
L 161.937157 213.521853 
L 162.393734 214.439247 
L 162.774215 214.744658 
L 163.0786 214.694216 
L 163.382985 214.388203 
L 163.763466 213.657842 
L 164.220044 212.294782 
L 164.828814 209.711222 
L 165.589776 205.390326 
L 166.579027 198.29687 
L 167.948759 186.614588 
L 171.37309 156.574482 
L 172.286245 150.583719 
L 172.971111 147.405043 
L 173.427688 146.179396 
L 173.884266 145.638889 
L 174.416939 144.949157 
L 174.873517 143.97077 
L 175.40619 142.215576 
L 176.01496 139.266319 
L 176.699826 134.617027 
L 177.460789 127.692152 
L 178.297847 117.892026 
L 179.287098 103.458151 
L 180.428542 83.385016 
L 181.950467 52.359593 
L 183.472391 21.225314 
L 183.776776 20.314305 
L 184.157258 19.908443 
L 184.91822 19.507582 
L 186.668433 18.879124 
L 188.95132 18.30414 
L 191.842977 17.817671 
L 195.571693 17.4311 
L 200.365756 17.170509 
L 206.14907 17.084955 
L 211.39971 17.216147 
L 215.052329 17.509162 
L 217.411313 17.899776 
L 219.009334 18.374833 
L 220.074681 18.903153 
L 220.835643 19.506864 
L 221.368317 20.172183 
L 221.824894 21.118892 
L 222.129279 22.277773 
L 222.357568 24.044072 
L 222.814145 30.132121 
L 223.422915 41.795703 
L 224.564359 69.099328 
L 225.857995 98.294422 
L 226.618957 110.694774 
L 227.227727 117.100807 
L 227.684304 119.729967 
L 228.673555 124.194719 
L 229.358422 128.637725 
L 230.19548 135.7793 
L 231.184731 146.285435 
L 232.782752 166.050018 
L 234.837351 190.969921 
L 235.902698 201.369813 
L 236.739756 207.643435 
L 237.424623 211.354989 
L 238.033392 213.521853 
L 238.48997 214.439247 
L 238.870451 214.744658 
L 239.174836 214.694216 
L 239.479221 214.388203 
L 239.859702 213.657842 
L 240.31628 212.294782 
L 240.925049 209.711222 
L 241.686012 205.390326 
L 242.675263 198.29687 
L 244.044995 186.614588 
L 247.469326 156.574482 
L 248.382481 150.583719 
L 249.067347 147.405043 
L 249.523924 146.179396 
L 249.980501 145.638889 
L 250.513175 144.949157 
L 250.969753 143.97077 
L 251.502426 142.215576 
L 252.111196 139.266319 
L 252.796062 134.617027 
L 253.557025 127.692152 
L 254.394083 117.892026 
L 255.383334 103.458151 
L 256.524778 83.385016 
L 258.046702 52.359593 
L 259.568627 21.225314 
L 259.873012 20.314305 
L 260.253493 19.908443 
L 261.014456 19.507582 
L 262.764669 18.879124 
L 265.047556 18.30414 
L 267.939213 17.817671 
L 271.667929 17.4311 
L 276.461992 17.170509 
L 282.245305 17.084955 
L 287.495946 17.216147 
L 291.148565 17.509162 
L 293.507548 17.899776 
L 295.105569 18.374833 
L 296.170917 18.903153 
L 296.931879 19.506864 
L 297.464553 20.172183 
L 297.92113 21.118892 
L 298.225515 22.277773 
L 298.453804 24.044072 
L 298.910381 30.132121 
L 299.519151 41.795703 
L 300.660595 69.099328 
L 301.954231 98.294422 
L 302.715193 110.694774 
L 303.323963 117.100807 
L 303.78054 119.729967 
L 304.769791 124.194719 
L 305.454657 128.637725 
L 306.291716 135.7793 
L 307.280967 146.285435 
L 308.878988 166.050018 
L 310.933586 190.969921 
L 311.998934 201.369813 
L 312.835992 207.643435 
L 313.520858 211.354989 
L 314.129628 213.521853 
L 314.586206 214.439247 
L 314.966687 214.744658 
L 315.271072 214.694216 
L 315.575457 214.388203 
L 315.955938 213.657842 
L 316.412515 212.294782 
L 317.021285 209.711222 
L 317.782248 205.390326 
L 318.771499 198.29687 
L 320.141231 186.614588 
L 323.565562 156.574482 
L 324.478716 150.583719 
L 325.163582 147.405043 
L 325.62016 146.179396 
L 326.076737 145.638889 
L 326.609411 144.949157 
L 327.065988 143.97077 
L 327.598662 142.215576 
L 328.207432 139.266319 
L 328.892298 134.617027 
L 329.65326 127.692152 
L 330.490319 117.892026 
L 331.47957 103.458151 
L 332.621014 83.385016 
L 334.142938 52.359593 
L 335.664863 21.225314 
L 335.969248 20.314305 
L 336.349729 19.908443 
L 337.110692 19.507582 
L 338.860905 18.879124 
L 341.143792 18.30414 
L 344.035449 17.817671 
L 347.764165 17.4311 
L 352.558227 17.170509 
L 358.341541 17.084955 
L 363.592182 17.216147 
L 367.244801 17.509162 
L 369.603784 17.899776 
L 371.201805 18.374833 
L 372.267152 18.903153 
L 373.028115 19.506864 
L 373.560788 20.172183 
L 374.017366 21.118892 
L 374.321751 22.277773 
L 374.55004 24.044072 
L 375.006617 30.132121 
L 375.615387 41.795703 
L 376.75683 69.099328 
L 378.050466 98.294422 
L 378.105256 99.334376 
L 378.105256 99.334376 
" style="fill:none;stroke:#d62728;stroke-linecap:square;stroke-width:1.5;"/>
   </g>
   <g id="patch_7">
    <path d="M 58.523438 224.64 
L 58.523438 7.2 
" style="fill:none;stroke:#000000;stroke-linecap:square;stroke-linejoin:miter;stroke-width:0.8;"/>
   </g>
   <g id="patch_8">
    <path d="M 393.323438 224.64 
L 393.323438 7.2 
" style="fill:none;stroke:#000000;stroke-linecap:square;stroke-linejoin:miter;stroke-width:0.8;"/>
   </g>
   <g id="patch_9">
    <path d="M 58.523438 224.64 
L 393.323438 224.64 
" style="fill:none;stroke:#000000;stroke-linecap:square;stroke-linejoin:miter;stroke-width:0.8;"/>
   </g>
   <g id="patch_10">
    <path d="M 58.523438 7.2 
L 393.323438 7.2 
" style="fill:none;stroke:#000000;stroke-linecap:square;stroke-linejoin:miter;stroke-width:0.8;"/>
   </g>
  </g>
 </g>
 <defs>
  <clipPath id="p02c22a93bc">
   <rect height="217.44" width="334.8" x="58.523438" y="7.2"/>
  </clipPath>
 </defs>
</svg>
