<?xml version="1.0" encoding="utf-8" standalone="no"?>
<!DOCTYPE svg PUBLIC "-//W3C//DTD SVG 1.1//EN"
  "http://www.w3.org/Graphics/SVG/1.1/DTD/svg11.dtd">
<svg height="304.166062pt" version="1.1" viewBox="0 0 456.192187 304.166062" width="456.192187pt" xmlns="http://www.w3.org/2000/svg" xmlns:xlink="http://www.w3.org/1999/xlink">
 <metadata>
  <rdf:RDF xmlns:cc="http://creativecommons.org/ns#" xmlns:dc="http://purl.org/dc/elements/1.1/" xmlns:rdf="http://www.w3.org/1999/02/22-rdf-syntax-ns#">
   <cc:Work>
    <dc:type rdf:resource="http://purl.org/dc/dcmitype/StillImage"/>
    <dc:date>2021-05-20T16:16:54.746877</dc:date>
    <dc:format>image/svg+xml</dc:format>
    <dc:creator>
     <cc:Agent>
      <dc:title>Matplotlib v3.4.2, https://matplotlib.org/</dc:title>
     </cc:Agent>
    </dc:creator>
   </cc:Work>
  </rdf:RDF>
 </metadata>
 <defs>
  <style type="text/css">*{stroke-linecap:butt;stroke-linejoin:round;}</style>
 </defs>
 <g id="figure_1">
  <g id="patch_1">
   <path d="M 0 304.166062 
L 456.192187 304.166062 
L 456.192187 0 
L 0 0 
z
" style="fill:none;"/>
  </g>
  <g id="axes_1">
   <g id="patch_2">
    <path d="M 58.523438 235.238437 
L 393.323438 235.238437 
L 393.323438 17.798437 
L 58.523438 17.798437 
z
" style="fill:#ffffff;"/>
   </g>
   <g id="matplotlib.axis_1">
    <g id="xtick_1">
     <g id="line2d_1">
      <defs>
       <path d="M 0 0 
L 0 3.5 
" id="mef0d4993ee" style="stroke:#000000;stroke-width:0.8;"/>
      </defs>
      <g>
       <use style="stroke:#000000;stroke-width:0.8;" x="73.720312" xlink:href="#mef0d4993ee" y="235.238437"/>
      </g>
     </g>
     <g id="text_1">
      <!-- 100.0 -->
      <g transform="translate(59.40625 249.836875)scale(0.1 -0.1)">
       <defs>
        <path d="M 794 531 
L 1825 531 
L 1825 4091 
L 703 3866 
L 703 4441 
L 1819 4666 
L 2450 4666 
L 2450 531 
L 3481 531 
L 3481 0 
L 794 0 
L 794 531 
z
" id="DejaVuSans-31" transform="scale(0.015625)"/>
        <path d="M 2034 4250 
Q 1547 4250 1301 3770 
Q 1056 3291 1056 2328 
Q 1056 1369 1301 889 
Q 1547 409 2034 409 
Q 2525 409 2770 889 
Q 3016 1369 3016 2328 
Q 3016 3291 2770 3770 
Q 2525 4250 2034 4250 
z
M 2034 4750 
Q 2819 4750 3233 4129 
Q 3647 3509 3647 2328 
Q 3647 1150 3233 529 
Q 2819 -91 2034 -91 
Q 1250 -91 836 529 
Q 422 1150 422 2328 
Q 422 3509 836 4129 
Q 1250 4750 2034 4750 
z
" id="DejaVuSans-30" transform="scale(0.015625)"/>
        <path d="M 684 794 
L 1344 794 
L 1344 0 
L 684 0 
L 684 794 
z
" id="DejaVuSans-2e" transform="scale(0.015625)"/>
       </defs>
       <use xlink:href="#DejaVuSans-31"/>
       <use x="63.623047" xlink:href="#DejaVuSans-30"/>
       <use x="127.246094" xlink:href="#DejaVuSans-30"/>
       <use x="190.869141" xlink:href="#DejaVuSans-2e"/>
       <use x="222.65625" xlink:href="#DejaVuSans-30"/>
      </g>
     </g>
    </g>
    <g id="xtick_2">
     <g id="line2d_2">
      <g>
       <use style="stroke:#000000;stroke-width:0.8;" x="111.76843" xlink:href="#mef0d4993ee" y="235.238437"/>
      </g>
     </g>
     <g id="text_2">
      <!-- 100.5 -->
      <g transform="translate(97.454368 249.836875)scale(0.1 -0.1)">
       <defs>
        <path d="M 691 4666 
L 3169 4666 
L 3169 4134 
L 1269 4134 
L 1269 2991 
Q 1406 3038 1543 3061 
Q 1681 3084 1819 3084 
Q 2600 3084 3056 2656 
Q 3513 2228 3513 1497 
Q 3513 744 3044 326 
Q 2575 -91 1722 -91 
Q 1428 -91 1123 -41 
Q 819 9 494 109 
L 494 744 
Q 775 591 1075 516 
Q 1375 441 1709 441 
Q 2250 441 2565 725 
Q 2881 1009 2881 1497 
Q 2881 1984 2565 2268 
Q 2250 2553 1709 2553 
Q 1456 2553 1204 2497 
Q 953 2441 691 2322 
L 691 4666 
z
" id="DejaVuSans-35" transform="scale(0.015625)"/>
       </defs>
       <use xlink:href="#DejaVuSans-31"/>
       <use x="63.623047" xlink:href="#DejaVuSans-30"/>
       <use x="127.246094" xlink:href="#DejaVuSans-30"/>
       <use x="190.869141" xlink:href="#DejaVuSans-2e"/>
       <use x="222.65625" xlink:href="#DejaVuSans-35"/>
      </g>
     </g>
    </g>
    <g id="xtick_3">
     <g id="line2d_3">
      <g>
       <use style="stroke:#000000;stroke-width:0.8;" x="149.816548" xlink:href="#mef0d4993ee" y="235.238437"/>
      </g>
     </g>
     <g id="text_3">
      <!-- 101.0 -->
      <g transform="translate(135.502486 249.836875)scale(0.1 -0.1)">
       <use xlink:href="#DejaVuSans-31"/>
       <use x="63.623047" xlink:href="#DejaVuSans-30"/>
       <use x="127.246094" xlink:href="#DejaVuSans-31"/>
       <use x="190.869141" xlink:href="#DejaVuSans-2e"/>
       <use x="222.65625" xlink:href="#DejaVuSans-30"/>
      </g>
     </g>
    </g>
    <g id="xtick_4">
     <g id="line2d_4">
      <g>
       <use style="stroke:#000000;stroke-width:0.8;" x="187.864666" xlink:href="#mef0d4993ee" y="235.238437"/>
      </g>
     </g>
     <g id="text_4">
      <!-- 101.5 -->
      <g transform="translate(173.550604 249.836875)scale(0.1 -0.1)">
       <use xlink:href="#DejaVuSans-31"/>
       <use x="63.623047" xlink:href="#DejaVuSans-30"/>
       <use x="127.246094" xlink:href="#DejaVuSans-31"/>
       <use x="190.869141" xlink:href="#DejaVuSans-2e"/>
       <use x="222.65625" xlink:href="#DejaVuSans-35"/>
      </g>
     </g>
    </g>
    <g id="xtick_5">
     <g id="line2d_5">
      <g>
       <use style="stroke:#000000;stroke-width:0.8;" x="225.912784" xlink:href="#mef0d4993ee" y="235.238437"/>
      </g>
     </g>
     <g id="text_5">
      <!-- 102.0 -->
      <g transform="translate(211.598722 249.836875)scale(0.1 -0.1)">
       <defs>
        <path d="M 1228 531 
L 3431 531 
L 3431 0 
L 469 0 
L 469 531 
Q 828 903 1448 1529 
Q 2069 2156 2228 2338 
Q 2531 2678 2651 2914 
Q 2772 3150 2772 3378 
Q 2772 3750 2511 3984 
Q 2250 4219 1831 4219 
Q 1534 4219 1204 4116 
Q 875 4013 500 3803 
L 500 4441 
Q 881 4594 1212 4672 
Q 1544 4750 1819 4750 
Q 2544 4750 2975 4387 
Q 3406 4025 3406 3419 
Q 3406 3131 3298 2873 
Q 3191 2616 2906 2266 
Q 2828 2175 2409 1742 
Q 1991 1309 1228 531 
z
" id="DejaVuSans-32" transform="scale(0.015625)"/>
       </defs>
       <use xlink:href="#DejaVuSans-31"/>
       <use x="63.623047" xlink:href="#DejaVuSans-30"/>
       <use x="127.246094" xlink:href="#DejaVuSans-32"/>
       <use x="190.869141" xlink:href="#DejaVuSans-2e"/>
       <use x="222.65625" xlink:href="#DejaVuSans-30"/>
      </g>
     </g>
    </g>
    <g id="xtick_6">
     <g id="line2d_6">
      <g>
       <use style="stroke:#000000;stroke-width:0.8;" x="263.960902" xlink:href="#mef0d4993ee" y="235.238437"/>
      </g>
     </g>
     <g id="text_6">
      <!-- 102.5 -->
      <g transform="translate(249.646839 249.836875)scale(0.1 -0.1)">
       <use xlink:href="#DejaVuSans-31"/>
       <use x="63.623047" xlink:href="#DejaVuSans-30"/>
       <use x="127.246094" xlink:href="#DejaVuSans-32"/>
       <use x="190.869141" xlink:href="#DejaVuSans-2e"/>
       <use x="222.65625" xlink:href="#DejaVuSans-35"/>
      </g>
     </g>
    </g>
    <g id="xtick_7">
     <g id="line2d_7">
      <g>
       <use style="stroke:#000000;stroke-width:0.8;" x="302.00902" xlink:href="#mef0d4993ee" y="235.238437"/>
      </g>
     </g>
     <g id="text_7">
      <!-- 103.0 -->
      <g transform="translate(287.694957 249.836875)scale(0.1 -0.1)">
       <defs>
        <path d="M 2597 2516 
Q 3050 2419 3304 2112 
Q 3559 1806 3559 1356 
Q 3559 666 3084 287 
Q 2609 -91 1734 -91 
Q 1441 -91 1130 -33 
Q 819 25 488 141 
L 488 750 
Q 750 597 1062 519 
Q 1375 441 1716 441 
Q 2309 441 2620 675 
Q 2931 909 2931 1356 
Q 2931 1769 2642 2001 
Q 2353 2234 1838 2234 
L 1294 2234 
L 1294 2753 
L 1863 2753 
Q 2328 2753 2575 2939 
Q 2822 3125 2822 3475 
Q 2822 3834 2567 4026 
Q 2313 4219 1838 4219 
Q 1578 4219 1281 4162 
Q 984 4106 628 3988 
L 628 4550 
Q 988 4650 1302 4700 
Q 1616 4750 1894 4750 
Q 2613 4750 3031 4423 
Q 3450 4097 3450 3541 
Q 3450 3153 3228 2886 
Q 3006 2619 2597 2516 
z
" id="DejaVuSans-33" transform="scale(0.015625)"/>
       </defs>
       <use xlink:href="#DejaVuSans-31"/>
       <use x="63.623047" xlink:href="#DejaVuSans-30"/>
       <use x="127.246094" xlink:href="#DejaVuSans-33"/>
       <use x="190.869141" xlink:href="#DejaVuSans-2e"/>
       <use x="222.65625" xlink:href="#DejaVuSans-30"/>
      </g>
     </g>
    </g>
    <g id="xtick_8">
     <g id="line2d_8">
      <g>
       <use style="stroke:#000000;stroke-width:0.8;" x="340.057138" xlink:href="#mef0d4993ee" y="235.238437"/>
      </g>
     </g>
     <g id="text_8">
      <!-- 103.5 -->
      <g transform="translate(325.743075 249.836875)scale(0.1 -0.1)">
       <use xlink:href="#DejaVuSans-31"/>
       <use x="63.623047" xlink:href="#DejaVuSans-30"/>
       <use x="127.246094" xlink:href="#DejaVuSans-33"/>
       <use x="190.869141" xlink:href="#DejaVuSans-2e"/>
       <use x="222.65625" xlink:href="#DejaVuSans-35"/>
      </g>
     </g>
    </g>
    <g id="xtick_9">
     <g id="line2d_9">
      <g>
       <use style="stroke:#000000;stroke-width:0.8;" x="378.105256" xlink:href="#mef0d4993ee" y="235.238437"/>
      </g>
     </g>
     <g id="text_9">
      <!-- 104.0 -->
      <g transform="translate(363.791193 249.836875)scale(0.1 -0.1)">
       <defs>
        <path d="M 2419 4116 
L 825 1625 
L 2419 1625 
L 2419 4116 
z
M 2253 4666 
L 3047 4666 
L 3047 1625 
L 3713 1625 
L 3713 1100 
L 3047 1100 
L 3047 0 
L 2419 0 
L 2419 1100 
L 313 1100 
L 313 1709 
L 2253 4666 
z
" id="DejaVuSans-34" transform="scale(0.015625)"/>
       </defs>
       <use xlink:href="#DejaVuSans-31"/>
       <use x="63.623047" xlink:href="#DejaVuSans-30"/>
       <use x="127.246094" xlink:href="#DejaVuSans-34"/>
       <use x="190.869141" xlink:href="#DejaVuSans-2e"/>
       <use x="222.65625" xlink:href="#DejaVuSans-30"/>
      </g>
     </g>
    </g>
   </g>
   <g id="matplotlib.axis_2">
    <g id="ytick_1">
     <g id="line2d_10">
      <defs>
       <path d="M 0 0 
L -3.5 0 
" id="ma11862273f" style="stroke:#000000;stroke-width:0.8;"/>
      </defs>
      <g>
       <use style="stroke:#000000;stroke-width:0.8;" x="58.523438" xlink:href="#ma11862273f" y="225.354954"/>
      </g>
     </g>
     <g id="text_10">
      <!-- −1.00 -->
      <g style="fill:#1f77b4;" transform="translate(20.878125 229.154173)scale(0.1 -0.1)">
       <defs>
        <path d="M 678 2272 
L 4684 2272 
L 4684 1741 
L 678 1741 
L 678 2272 
z
" id="DejaVuSans-2212" transform="scale(0.015625)"/>
       </defs>
       <use xlink:href="#DejaVuSans-2212"/>
       <use x="83.789062" xlink:href="#DejaVuSans-31"/>
       <use x="147.412109" xlink:href="#DejaVuSans-2e"/>
       <use x="179.199219" xlink:href="#DejaVuSans-30"/>
       <use x="242.822266" xlink:href="#DejaVuSans-30"/>
      </g>
     </g>
    </g>
    <g id="ytick_2">
     <g id="line2d_11">
      <g>
       <use style="stroke:#000000;stroke-width:0.8;" x="58.523438" xlink:href="#ma11862273f" y="200.645825"/>
      </g>
     </g>
     <g id="text_11">
      <!-- −0.75 -->
      <g style="fill:#1f77b4;" transform="translate(20.878125 204.445044)scale(0.1 -0.1)">
       <defs>
        <path d="M 525 4666 
L 3525 4666 
L 3525 4397 
L 1831 0 
L 1172 0 
L 2766 4134 
L 525 4134 
L 525 4666 
z
" id="DejaVuSans-37" transform="scale(0.015625)"/>
       </defs>
       <use xlink:href="#DejaVuSans-2212"/>
       <use x="83.789062" xlink:href="#DejaVuSans-30"/>
       <use x="147.412109" xlink:href="#DejaVuSans-2e"/>
       <use x="179.199219" xlink:href="#DejaVuSans-37"/>
       <use x="242.822266" xlink:href="#DejaVuSans-35"/>
      </g>
     </g>
    </g>
    <g id="ytick_3">
     <g id="line2d_12">
      <g>
       <use style="stroke:#000000;stroke-width:0.8;" x="58.523438" xlink:href="#ma11862273f" y="175.936696"/>
      </g>
     </g>
     <g id="text_12">
      <!-- −0.50 -->
      <g style="fill:#1f77b4;" transform="translate(20.878125 179.735915)scale(0.1 -0.1)">
       <use xlink:href="#DejaVuSans-2212"/>
       <use x="83.789062" xlink:href="#DejaVuSans-30"/>
       <use x="147.412109" xlink:href="#DejaVuSans-2e"/>
       <use x="179.199219" xlink:href="#DejaVuSans-35"/>
       <use x="242.822266" xlink:href="#DejaVuSans-30"/>
      </g>
     </g>
    </g>
    <g id="ytick_4">
     <g id="line2d_13">
      <g>
       <use style="stroke:#000000;stroke-width:0.8;" x="58.523438" xlink:href="#ma11862273f" y="151.227567"/>
      </g>
     </g>
     <g id="text_13">
      <!-- −0.25 -->
      <g style="fill:#1f77b4;" transform="translate(20.878125 155.026785)scale(0.1 -0.1)">
       <use xlink:href="#DejaVuSans-2212"/>
       <use x="83.789062" xlink:href="#DejaVuSans-30"/>
       <use x="147.412109" xlink:href="#DejaVuSans-2e"/>
       <use x="179.199219" xlink:href="#DejaVuSans-32"/>
       <use x="242.822266" xlink:href="#DejaVuSans-35"/>
      </g>
     </g>
    </g>
    <g id="ytick_5">
     <g id="line2d_14">
      <g>
       <use style="stroke:#000000;stroke-width:0.8;" x="58.523438" xlink:href="#ma11862273f" y="126.518438"/>
      </g>
     </g>
     <g id="text_14">
      <!-- 0.00 -->
      <g style="fill:#1f77b4;" transform="translate(29.257813 130.317656)scale(0.1 -0.1)">
       <use xlink:href="#DejaVuSans-30"/>
       <use x="63.623047" xlink:href="#DejaVuSans-2e"/>
       <use x="95.410156" xlink:href="#DejaVuSans-30"/>
       <use x="159.033203" xlink:href="#DejaVuSans-30"/>
      </g>
     </g>
    </g>
    <g id="ytick_6">
     <g id="line2d_15">
      <g>
       <use style="stroke:#000000;stroke-width:0.8;" x="58.523438" xlink:href="#ma11862273f" y="101.809308"/>
      </g>
     </g>
     <g id="text_15">
      <!-- 0.25 -->
      <g style="fill:#1f77b4;" transform="translate(29.257813 105.608527)scale(0.1 -0.1)">
       <use xlink:href="#DejaVuSans-30"/>
       <use x="63.623047" xlink:href="#DejaVuSans-2e"/>
       <use x="95.410156" xlink:href="#DejaVuSans-32"/>
       <use x="159.033203" xlink:href="#DejaVuSans-35"/>
      </g>
     </g>
    </g>
    <g id="ytick_7">
     <g id="line2d_16">
      <g>
       <use style="stroke:#000000;stroke-width:0.8;" x="58.523438" xlink:href="#ma11862273f" y="77.100179"/>
      </g>
     </g>
     <g id="text_16">
      <!-- 0.50 -->
      <g style="fill:#1f77b4;" transform="translate(29.257813 80.899398)scale(0.1 -0.1)">
       <use xlink:href="#DejaVuSans-30"/>
       <use x="63.623047" xlink:href="#DejaVuSans-2e"/>
       <use x="95.410156" xlink:href="#DejaVuSans-35"/>
       <use x="159.033203" xlink:href="#DejaVuSans-30"/>
      </g>
     </g>
    </g>
    <g id="ytick_8">
     <g id="line2d_17">
      <g>
       <use style="stroke:#000000;stroke-width:0.8;" x="58.523438" xlink:href="#ma11862273f" y="52.39105"/>
      </g>
     </g>
     <g id="text_17">
      <!-- 0.75 -->
      <g style="fill:#1f77b4;" transform="translate(29.257813 56.190269)scale(0.1 -0.1)">
       <use xlink:href="#DejaVuSans-30"/>
       <use x="63.623047" xlink:href="#DejaVuSans-2e"/>
       <use x="95.410156" xlink:href="#DejaVuSans-37"/>
       <use x="159.033203" xlink:href="#DejaVuSans-35"/>
      </g>
     </g>
    </g>
    <g id="ytick_9">
     <g id="line2d_18">
      <g>
       <use style="stroke:#000000;stroke-width:0.8;" x="58.523438" xlink:href="#ma11862273f" y="27.681921"/>
      </g>
     </g>
     <g id="text_18">
      <!-- 1.00 -->
      <g style="fill:#1f77b4;" transform="translate(29.257813 31.48114)scale(0.1 -0.1)">
       <use xlink:href="#DejaVuSans-31"/>
       <use x="63.623047" xlink:href="#DejaVuSans-2e"/>
       <use x="95.410156" xlink:href="#DejaVuSans-30"/>
       <use x="159.033203" xlink:href="#DejaVuSans-30"/>
      </g>
     </g>
    </g>
    <g id="text_19">
     <!-- IN [V] -->
     <g style="fill:#1f77b4;" transform="translate(14.798438 140.645)rotate(-90)scale(0.1 -0.1)">
      <defs>
       <path d="M 628 4666 
L 1259 4666 
L 1259 0 
L 628 0 
L 628 4666 
z
" id="DejaVuSans-49" transform="scale(0.015625)"/>
       <path d="M 628 4666 
L 1478 4666 
L 3547 763 
L 3547 4666 
L 4159 4666 
L 4159 0 
L 3309 0 
L 1241 3903 
L 1241 0 
L 628 0 
L 628 4666 
z
" id="DejaVuSans-4e" transform="scale(0.015625)"/>
       <path id="DejaVuSans-20" transform="scale(0.015625)"/>
       <path d="M 550 4863 
L 1875 4863 
L 1875 4416 
L 1125 4416 
L 1125 -397 
L 1875 -397 
L 1875 -844 
L 550 -844 
L 550 4863 
z
" id="DejaVuSans-5b" transform="scale(0.015625)"/>
       <path d="M 1831 0 
L 50 4666 
L 709 4666 
L 2188 738 
L 3669 4666 
L 4325 4666 
L 2547 0 
L 1831 0 
z
" id="DejaVuSans-56" transform="scale(0.015625)"/>
       <path d="M 1947 4863 
L 1947 -844 
L 622 -844 
L 622 -397 
L 1369 -397 
L 1369 4416 
L 622 4416 
L 622 4863 
L 1947 4863 
z
" id="DejaVuSans-5d" transform="scale(0.015625)"/>
      </defs>
      <use xlink:href="#DejaVuSans-49"/>
      <use x="29.492188" xlink:href="#DejaVuSans-4e"/>
      <use x="104.296875" xlink:href="#DejaVuSans-20"/>
      <use x="136.083984" xlink:href="#DejaVuSans-5b"/>
      <use x="175.097656" xlink:href="#DejaVuSans-56"/>
      <use x="243.505859" xlink:href="#DejaVuSans-5d"/>
     </g>
    </g>
   </g>
   <g id="line2d_19">
    <path clip-path="url(#pc8d82a018d)" d="M 73.741619 126.344555 
L 78.307393 89.972674 
L 80.742473 72.369176 
L 82.720975 59.642758 
L 84.395092 50.252874 
L 85.840921 43.308442 
L 87.134557 38.096436 
L 88.276 34.332925 
L 89.341348 31.55799 
L 90.254502 29.763264 
L 91.091561 28.600873 
L 91.776427 27.997414 
L 92.385197 27.725382 
L 92.993967 27.702909 
L 93.602737 27.930053 
L 94.211507 28.40624 
L 94.896373 29.238112 
L 95.657335 30.527013 
L 96.494394 32.382117 
L 97.483645 35.153207 
L 98.548992 38.818173 
L 99.766532 43.83522 
L 101.136264 50.474547 
L 102.658189 58.987046 
L 104.408402 70.083903 
L 106.463001 84.593294 
L 109.126369 105.127647 
L 118.181821 176.444944 
L 120.236419 190.129634 
L 121.986633 200.360355 
L 123.508558 208.012043 
L 124.87829 213.802741 
L 126.09583 218.015742 
L 127.161177 220.945427 
L 128.074332 222.876127 
L 128.91139 224.165163 
L 129.672353 224.932526 
L 130.281123 225.266865 
L 130.889892 225.351758 
L 131.498662 225.186989 
L 132.107432 224.772974 
L 132.792298 224.010609 
L 133.553261 222.798133 
L 134.390319 221.025772 
L 135.37957 218.350154 
L 136.444918 214.784508 
L 137.662457 209.875569 
L 139.03219 203.349676 
L 140.554114 194.951359 
L 142.304328 183.968133 
L 144.358926 169.56498 
L 146.946198 149.724189 
L 156.534324 74.464114 
L 158.512826 61.492738 
L 160.263039 51.451361 
L 161.784964 43.985237 
L 163.0786 38.658348 
L 164.29614 34.5587 
L 165.361487 31.73207 
L 166.274642 29.891946 
L 167.111701 28.687291 
L 167.796567 28.048938 
L 168.405337 27.745746 
L 169.014107 27.692063 
L 169.622876 27.888023 
L 170.231646 28.333132 
L 170.916512 29.130267 
L 171.677475 30.38098 
L 172.514533 32.194748 
L 173.503784 34.918156 
L 174.569132 38.533534 
L 175.786672 43.496624 
L 177.156404 50.079364 
L 178.678329 58.534939 
L 180.428542 69.575199 
L 182.48314 84.031756 
L 185.070412 103.916789 
L 194.430249 177.512879 
L 196.484848 191.075178 
L 198.235061 201.18007 
L 199.756986 208.708347 
L 201.126718 214.378527 
L 202.344258 218.478175 
L 203.409605 221.304805 
L 204.32276 223.144929 
L 205.159819 224.349584 
L 205.844685 224.987937 
L 206.453455 225.291129 
L 207.062224 225.344812 
L 207.670994 225.148852 
L 208.279764 224.703743 
L 208.96463 223.906608 
L 209.725593 222.655895 
L 210.562651 220.842127 
L 211.551902 218.118719 
L 212.61725 214.503341 
L 213.834789 209.540251 
L 215.204522 202.957511 
L 216.726446 194.501936 
L 218.47666 183.461676 
L 220.531258 169.005119 
L 223.11853 149.120086 
L 232.478367 75.523996 
L 234.532966 61.961697 
L 236.283179 51.856805 
L 237.805104 44.328528 
L 239.174836 38.658348 
L 240.392376 34.5587 
L 241.457723 31.73207 
L 242.370878 29.891946 
L 243.207937 28.687291 
L 243.892803 28.048938 
L 244.501573 27.745746 
L 245.110342 27.692063 
L 245.719112 27.888023 
L 246.327882 28.333132 
L 247.012748 29.130267 
L 247.773711 30.38098 
L 248.610769 32.194748 
L 249.60002 34.918156 
L 250.665368 38.533534 
L 251.882907 43.496624 
L 253.25264 50.079364 
L 254.774564 58.534939 
L 256.524778 69.575199 
L 258.579376 84.031756 
L 261.166648 103.916789 
L 270.526485 177.512879 
L 272.581084 191.075178 
L 274.331297 201.18007 
L 275.853222 208.708347 
L 277.222954 214.378527 
L 278.440494 218.478175 
L 279.505841 221.304805 
L 280.418996 223.144929 
L 281.256054 224.349584 
L 281.940921 224.987937 
L 282.54969 225.291129 
L 283.15846 225.344812 
L 283.76723 225.148852 
L 284.376 224.703743 
L 285.060866 223.906608 
L 285.821829 222.655895 
L 286.658887 220.842127 
L 287.648138 218.118719 
L 288.713486 214.503341 
L 289.931025 209.540251 
L 291.300758 202.957511 
L 292.822682 194.501936 
L 294.572896 183.461676 
L 296.627494 169.005119 
L 299.214766 149.120086 
L 308.574603 75.523996 
L 310.629201 61.961697 
L 312.379415 51.856805 
L 313.90134 44.328528 
L 315.271072 38.658348 
L 316.488612 34.5587 
L 317.553959 31.73207 
L 318.467114 29.891946 
L 319.304172 28.687291 
L 319.989038 28.048938 
L 320.597808 27.745746 
L 321.206578 27.692063 
L 321.815348 27.888023 
L 322.424118 28.333132 
L 323.108984 29.130267 
L 323.869946 30.38098 
L 324.707005 32.194748 
L 325.696256 34.918156 
L 326.761603 38.533534 
L 327.979143 43.496624 
L 329.348875 50.079364 
L 330.8708 58.534939 
L 332.621014 69.575199 
L 334.675612 84.031756 
L 337.262884 103.916789 
L 346.622721 177.512879 
L 348.677319 191.075178 
L 350.427533 201.18007 
L 351.949458 208.708347 
L 353.31919 214.378527 
L 354.53673 218.478175 
L 355.602077 221.304805 
L 356.515232 223.144929 
L 357.35229 224.349584 
L 358.037156 224.987937 
L 358.645926 225.291129 
L 359.254696 225.344812 
L 359.863466 225.148852 
L 360.472236 224.703743 
L 361.157102 223.906608 
L 361.918064 222.655895 
L 362.755123 220.842127 
L 363.744374 218.118719 
L 364.809721 214.503341 
L 366.027261 209.540251 
L 367.396993 202.957511 
L 368.918918 194.501936 
L 370.669132 183.461676 
L 372.72373 169.005119 
L 375.311002 149.120086 
L 378.105256 126.518437 
L 378.105256 126.518437 
" style="fill:none;stroke:#1f77b4;stroke-linecap:square;stroke-width:1.5;"/>
   </g>
   <g id="patch_3">
    <path d="M 58.523438 235.238437 
L 58.523438 17.798437 
" style="fill:none;stroke:#000000;stroke-linecap:square;stroke-linejoin:miter;stroke-width:0.8;"/>
   </g>
   <g id="patch_4">
    <path d="M 393.323438 235.238437 
L 393.323438 17.798437 
" style="fill:none;stroke:#000000;stroke-linecap:square;stroke-linejoin:miter;stroke-width:0.8;"/>
   </g>
   <g id="patch_5">
    <path d="M 58.523438 235.238437 
L 393.323438 235.238437 
" style="fill:none;stroke:#000000;stroke-linecap:square;stroke-linejoin:miter;stroke-width:0.8;"/>
   </g>
   <g id="patch_6">
    <path d="M 58.523438 17.798437 
L 393.323438 17.798437 
" style="fill:none;stroke:#000000;stroke-linecap:square;stroke-linejoin:miter;stroke-width:0.8;"/>
   </g>
   <g id="text_20">
    <!-- cmos buffer -->
    <g transform="translate(190.081875 294.470437)scale(0.12 -0.12)">
     <defs>
      <path d="M 3122 3366 
L 3122 2828 
Q 2878 2963 2633 3030 
Q 2388 3097 2138 3097 
Q 1578 3097 1268 2742 
Q 959 2388 959 1747 
Q 959 1106 1268 751 
Q 1578 397 2138 397 
Q 2388 397 2633 464 
Q 2878 531 3122 666 
L 3122 134 
Q 2881 22 2623 -34 
Q 2366 -91 2075 -91 
Q 1284 -91 818 406 
Q 353 903 353 1747 
Q 353 2603 823 3093 
Q 1294 3584 2113 3584 
Q 2378 3584 2631 3529 
Q 2884 3475 3122 3366 
z
" id="DejaVuSans-63" transform="scale(0.015625)"/>
      <path d="M 3328 2828 
Q 3544 3216 3844 3400 
Q 4144 3584 4550 3584 
Q 5097 3584 5394 3201 
Q 5691 2819 5691 2113 
L 5691 0 
L 5113 0 
L 5113 2094 
Q 5113 2597 4934 2840 
Q 4756 3084 4391 3084 
Q 3944 3084 3684 2787 
Q 3425 2491 3425 1978 
L 3425 0 
L 2847 0 
L 2847 2094 
Q 2847 2600 2669 2842 
Q 2491 3084 2119 3084 
Q 1678 3084 1418 2786 
Q 1159 2488 1159 1978 
L 1159 0 
L 581 0 
L 581 3500 
L 1159 3500 
L 1159 2956 
Q 1356 3278 1631 3431 
Q 1906 3584 2284 3584 
Q 2666 3584 2933 3390 
Q 3200 3197 3328 2828 
z
" id="DejaVuSans-6d" transform="scale(0.015625)"/>
      <path d="M 1959 3097 
Q 1497 3097 1228 2736 
Q 959 2375 959 1747 
Q 959 1119 1226 758 
Q 1494 397 1959 397 
Q 2419 397 2687 759 
Q 2956 1122 2956 1747 
Q 2956 2369 2687 2733 
Q 2419 3097 1959 3097 
z
M 1959 3584 
Q 2709 3584 3137 3096 
Q 3566 2609 3566 1747 
Q 3566 888 3137 398 
Q 2709 -91 1959 -91 
Q 1206 -91 779 398 
Q 353 888 353 1747 
Q 353 2609 779 3096 
Q 1206 3584 1959 3584 
z
" id="DejaVuSans-6f" transform="scale(0.015625)"/>
      <path d="M 2834 3397 
L 2834 2853 
Q 2591 2978 2328 3040 
Q 2066 3103 1784 3103 
Q 1356 3103 1142 2972 
Q 928 2841 928 2578 
Q 928 2378 1081 2264 
Q 1234 2150 1697 2047 
L 1894 2003 
Q 2506 1872 2764 1633 
Q 3022 1394 3022 966 
Q 3022 478 2636 193 
Q 2250 -91 1575 -91 
Q 1294 -91 989 -36 
Q 684 19 347 128 
L 347 722 
Q 666 556 975 473 
Q 1284 391 1588 391 
Q 1994 391 2212 530 
Q 2431 669 2431 922 
Q 2431 1156 2273 1281 
Q 2116 1406 1581 1522 
L 1381 1569 
Q 847 1681 609 1914 
Q 372 2147 372 2553 
Q 372 3047 722 3315 
Q 1072 3584 1716 3584 
Q 2034 3584 2315 3537 
Q 2597 3491 2834 3397 
z
" id="DejaVuSans-73" transform="scale(0.015625)"/>
      <path d="M 3116 1747 
Q 3116 2381 2855 2742 
Q 2594 3103 2138 3103 
Q 1681 3103 1420 2742 
Q 1159 2381 1159 1747 
Q 1159 1113 1420 752 
Q 1681 391 2138 391 
Q 2594 391 2855 752 
Q 3116 1113 3116 1747 
z
M 1159 2969 
Q 1341 3281 1617 3432 
Q 1894 3584 2278 3584 
Q 2916 3584 3314 3078 
Q 3713 2572 3713 1747 
Q 3713 922 3314 415 
Q 2916 -91 2278 -91 
Q 1894 -91 1617 61 
Q 1341 213 1159 525 
L 1159 0 
L 581 0 
L 581 4863 
L 1159 4863 
L 1159 2969 
z
" id="DejaVuSans-62" transform="scale(0.015625)"/>
      <path d="M 544 1381 
L 544 3500 
L 1119 3500 
L 1119 1403 
Q 1119 906 1312 657 
Q 1506 409 1894 409 
Q 2359 409 2629 706 
Q 2900 1003 2900 1516 
L 2900 3500 
L 3475 3500 
L 3475 0 
L 2900 0 
L 2900 538 
Q 2691 219 2414 64 
Q 2138 -91 1772 -91 
Q 1169 -91 856 284 
Q 544 659 544 1381 
z
M 1991 3584 
L 1991 3584 
z
" id="DejaVuSans-75" transform="scale(0.015625)"/>
      <path d="M 2375 4863 
L 2375 4384 
L 1825 4384 
Q 1516 4384 1395 4259 
Q 1275 4134 1275 3809 
L 1275 3500 
L 2222 3500 
L 2222 3053 
L 1275 3053 
L 1275 0 
L 697 0 
L 697 3053 
L 147 3053 
L 147 3500 
L 697 3500 
L 697 3744 
Q 697 4328 969 4595 
Q 1241 4863 1831 4863 
L 2375 4863 
z
" id="DejaVuSans-66" transform="scale(0.015625)"/>
      <path d="M 3597 1894 
L 3597 1613 
L 953 1613 
Q 991 1019 1311 708 
Q 1631 397 2203 397 
Q 2534 397 2845 478 
Q 3156 559 3463 722 
L 3463 178 
Q 3153 47 2828 -22 
Q 2503 -91 2169 -91 
Q 1331 -91 842 396 
Q 353 884 353 1716 
Q 353 2575 817 3079 
Q 1281 3584 2069 3584 
Q 2775 3584 3186 3129 
Q 3597 2675 3597 1894 
z
M 3022 2063 
Q 3016 2534 2758 2815 
Q 2500 3097 2075 3097 
Q 1594 3097 1305 2825 
Q 1016 2553 972 2059 
L 3022 2063 
z
" id="DejaVuSans-65" transform="scale(0.015625)"/>
      <path d="M 2631 2963 
Q 2534 3019 2420 3045 
Q 2306 3072 2169 3072 
Q 1681 3072 1420 2755 
Q 1159 2438 1159 1844 
L 1159 0 
L 581 0 
L 581 3500 
L 1159 3500 
L 1159 2956 
Q 1341 3275 1631 3429 
Q 1922 3584 2338 3584 
Q 2397 3584 2469 3576 
Q 2541 3569 2628 3553 
L 2631 2963 
z
" id="DejaVuSans-72" transform="scale(0.015625)"/>
     </defs>
     <use xlink:href="#DejaVuSans-63"/>
     <use x="54.980469" xlink:href="#DejaVuSans-6d"/>
     <use x="152.392578" xlink:href="#DejaVuSans-6f"/>
     <use x="213.574219" xlink:href="#DejaVuSans-73"/>
     <use x="265.673828" xlink:href="#DejaVuSans-20"/>
     <use x="297.460938" xlink:href="#DejaVuSans-62"/>
     <use x="360.9375" xlink:href="#DejaVuSans-75"/>
     <use x="424.316406" xlink:href="#DejaVuSans-66"/>
     <use x="459.521484" xlink:href="#DejaVuSans-66"/>
     <use x="494.726562" xlink:href="#DejaVuSans-65"/>
     <use x="556.25" xlink:href="#DejaVuSans-72"/>
    </g>
   </g>
  </g>
  <g id="axes_2">
   <g id="matplotlib.axis_3">
    <g id="ytick_10">
     <g id="line2d_20">
      <defs>
       <path d="M 0 0 
L 3.5 0 
" id="mef49d89f73" style="stroke:#000000;stroke-width:0.8;"/>
      </defs>
      <g>
       <use style="stroke:#000000;stroke-width:0.8;" x="393.323438" xlink:href="#mef49d89f73" y="230.445357"/>
      </g>
     </g>
     <g id="text_21">
      <!-- 0.0002 -->
      <g style="fill:#d62728;" transform="translate(400.323438 234.244576)scale(0.1 -0.1)">
       <use xlink:href="#DejaVuSans-30"/>
       <use x="63.623047" xlink:href="#DejaVuSans-2e"/>
       <use x="95.410156" xlink:href="#DejaVuSans-30"/>
       <use x="159.033203" xlink:href="#DejaVuSans-30"/>
       <use x="222.65625" xlink:href="#DejaVuSans-30"/>
       <use x="286.279297" xlink:href="#DejaVuSans-32"/>
      </g>
     </g>
    </g>
    <g id="ytick_11">
     <g id="line2d_21">
      <g>
       <use style="stroke:#000000;stroke-width:0.8;" x="393.323438" xlink:href="#mef49d89f73" y="200.135845"/>
      </g>
     </g>
     <g id="text_22">
      <!-- 0.0003 -->
      <g style="fill:#d62728;" transform="translate(400.323438 203.935064)scale(0.1 -0.1)">
       <use xlink:href="#DejaVuSans-30"/>
       <use x="63.623047" xlink:href="#DejaVuSans-2e"/>
       <use x="95.410156" xlink:href="#DejaVuSans-30"/>
       <use x="159.033203" xlink:href="#DejaVuSans-30"/>
       <use x="222.65625" xlink:href="#DejaVuSans-30"/>
       <use x="286.279297" xlink:href="#DejaVuSans-33"/>
      </g>
     </g>
    </g>
    <g id="ytick_12">
     <g id="line2d_22">
      <g>
       <use style="stroke:#000000;stroke-width:0.8;" x="393.323438" xlink:href="#mef49d89f73" y="169.826333"/>
      </g>
     </g>
     <g id="text_23">
      <!-- 0.0004 -->
      <g style="fill:#d62728;" transform="translate(400.323438 173.625552)scale(0.1 -0.1)">
       <use xlink:href="#DejaVuSans-30"/>
       <use x="63.623047" xlink:href="#DejaVuSans-2e"/>
       <use x="95.410156" xlink:href="#DejaVuSans-30"/>
       <use x="159.033203" xlink:href="#DejaVuSans-30"/>
       <use x="222.65625" xlink:href="#DejaVuSans-30"/>
       <use x="286.279297" xlink:href="#DejaVuSans-34"/>
      </g>
     </g>
    </g>
    <g id="ytick_13">
     <g id="line2d_23">
      <g>
       <use style="stroke:#000000;stroke-width:0.8;" x="393.323438" xlink:href="#mef49d89f73" y="139.516821"/>
      </g>
     </g>
     <g id="text_24">
      <!-- 0.0005 -->
      <g style="fill:#d62728;" transform="translate(400.323438 143.31604)scale(0.1 -0.1)">
       <use xlink:href="#DejaVuSans-30"/>
       <use x="63.623047" xlink:href="#DejaVuSans-2e"/>
       <use x="95.410156" xlink:href="#DejaVuSans-30"/>
       <use x="159.033203" xlink:href="#DejaVuSans-30"/>
       <use x="222.65625" xlink:href="#DejaVuSans-30"/>
       <use x="286.279297" xlink:href="#DejaVuSans-35"/>
      </g>
     </g>
    </g>
    <g id="ytick_14">
     <g id="line2d_24">
      <g>
       <use style="stroke:#000000;stroke-width:0.8;" x="393.323438" xlink:href="#mef49d89f73" y="109.207309"/>
      </g>
     </g>
     <g id="text_25">
      <!-- 0.0006 -->
      <g style="fill:#d62728;" transform="translate(400.323438 113.006528)scale(0.1 -0.1)">
       <defs>
        <path d="M 2113 2584 
Q 1688 2584 1439 2293 
Q 1191 2003 1191 1497 
Q 1191 994 1439 701 
Q 1688 409 2113 409 
Q 2538 409 2786 701 
Q 3034 994 3034 1497 
Q 3034 2003 2786 2293 
Q 2538 2584 2113 2584 
z
M 3366 4563 
L 3366 3988 
Q 3128 4100 2886 4159 
Q 2644 4219 2406 4219 
Q 1781 4219 1451 3797 
Q 1122 3375 1075 2522 
Q 1259 2794 1537 2939 
Q 1816 3084 2150 3084 
Q 2853 3084 3261 2657 
Q 3669 2231 3669 1497 
Q 3669 778 3244 343 
Q 2819 -91 2113 -91 
Q 1303 -91 875 529 
Q 447 1150 447 2328 
Q 447 3434 972 4092 
Q 1497 4750 2381 4750 
Q 2619 4750 2861 4703 
Q 3103 4656 3366 4563 
z
" id="DejaVuSans-36" transform="scale(0.015625)"/>
       </defs>
       <use xlink:href="#DejaVuSans-30"/>
       <use x="63.623047" xlink:href="#DejaVuSans-2e"/>
       <use x="95.410156" xlink:href="#DejaVuSans-30"/>
       <use x="159.033203" xlink:href="#DejaVuSans-30"/>
       <use x="222.65625" xlink:href="#DejaVuSans-30"/>
       <use x="286.279297" xlink:href="#DejaVuSans-36"/>
      </g>
     </g>
    </g>
    <g id="ytick_15">
     <g id="line2d_25">
      <g>
       <use style="stroke:#000000;stroke-width:0.8;" x="393.323438" xlink:href="#mef49d89f73" y="78.897797"/>
      </g>
     </g>
     <g id="text_26">
      <!-- 0.0007 -->
      <g style="fill:#d62728;" transform="translate(400.323438 82.697016)scale(0.1 -0.1)">
       <use xlink:href="#DejaVuSans-30"/>
       <use x="63.623047" xlink:href="#DejaVuSans-2e"/>
       <use x="95.410156" xlink:href="#DejaVuSans-30"/>
       <use x="159.033203" xlink:href="#DejaVuSans-30"/>
       <use x="222.65625" xlink:href="#DejaVuSans-30"/>
       <use x="286.279297" xlink:href="#DejaVuSans-37"/>
      </g>
     </g>
    </g>
    <g id="ytick_16">
     <g id="line2d_26">
      <g>
       <use style="stroke:#000000;stroke-width:0.8;" x="393.323438" xlink:href="#mef49d89f73" y="48.588285"/>
      </g>
     </g>
     <g id="text_27">
      <!-- 0.0008 -->
      <g style="fill:#d62728;" transform="translate(400.323438 52.387504)scale(0.1 -0.1)">
       <defs>
        <path d="M 2034 2216 
Q 1584 2216 1326 1975 
Q 1069 1734 1069 1313 
Q 1069 891 1326 650 
Q 1584 409 2034 409 
Q 2484 409 2743 651 
Q 3003 894 3003 1313 
Q 3003 1734 2745 1975 
Q 2488 2216 2034 2216 
z
M 1403 2484 
Q 997 2584 770 2862 
Q 544 3141 544 3541 
Q 544 4100 942 4425 
Q 1341 4750 2034 4750 
Q 2731 4750 3128 4425 
Q 3525 4100 3525 3541 
Q 3525 3141 3298 2862 
Q 3072 2584 2669 2484 
Q 3125 2378 3379 2068 
Q 3634 1759 3634 1313 
Q 3634 634 3220 271 
Q 2806 -91 2034 -91 
Q 1263 -91 848 271 
Q 434 634 434 1313 
Q 434 1759 690 2068 
Q 947 2378 1403 2484 
z
M 1172 3481 
Q 1172 3119 1398 2916 
Q 1625 2713 2034 2713 
Q 2441 2713 2670 2916 
Q 2900 3119 2900 3481 
Q 2900 3844 2670 4047 
Q 2441 4250 2034 4250 
Q 1625 4250 1398 4047 
Q 1172 3844 1172 3481 
z
" id="DejaVuSans-38" transform="scale(0.015625)"/>
       </defs>
       <use xlink:href="#DejaVuSans-30"/>
       <use x="63.623047" xlink:href="#DejaVuSans-2e"/>
       <use x="95.410156" xlink:href="#DejaVuSans-30"/>
       <use x="159.033203" xlink:href="#DejaVuSans-30"/>
       <use x="222.65625" xlink:href="#DejaVuSans-30"/>
       <use x="286.279297" xlink:href="#DejaVuSans-38"/>
      </g>
     </g>
    </g>
    <g id="ytick_17">
     <g id="line2d_27">
      <g>
       <use style="stroke:#000000;stroke-width:0.8;" x="393.323438" xlink:href="#mef49d89f73" y="18.278773"/>
      </g>
     </g>
     <g id="text_28">
      <!-- 0.0009 -->
      <g style="fill:#d62728;" transform="translate(400.323438 22.077992)scale(0.1 -0.1)">
       <defs>
        <path d="M 703 97 
L 703 672 
Q 941 559 1184 500 
Q 1428 441 1663 441 
Q 2288 441 2617 861 
Q 2947 1281 2994 2138 
Q 2813 1869 2534 1725 
Q 2256 1581 1919 1581 
Q 1219 1581 811 2004 
Q 403 2428 403 3163 
Q 403 3881 828 4315 
Q 1253 4750 1959 4750 
Q 2769 4750 3195 4129 
Q 3622 3509 3622 2328 
Q 3622 1225 3098 567 
Q 2575 -91 1691 -91 
Q 1453 -91 1209 -44 
Q 966 3 703 97 
z
M 1959 2075 
Q 2384 2075 2632 2365 
Q 2881 2656 2881 3163 
Q 2881 3666 2632 3958 
Q 2384 4250 1959 4250 
Q 1534 4250 1286 3958 
Q 1038 3666 1038 3163 
Q 1038 2656 1286 2365 
Q 1534 2075 1959 2075 
z
" id="DejaVuSans-39" transform="scale(0.015625)"/>
       </defs>
       <use xlink:href="#DejaVuSans-30"/>
       <use x="63.623047" xlink:href="#DejaVuSans-2e"/>
       <use x="95.410156" xlink:href="#DejaVuSans-30"/>
       <use x="159.033203" xlink:href="#DejaVuSans-30"/>
       <use x="222.65625" xlink:href="#DejaVuSans-30"/>
       <use x="286.279297" xlink:href="#DejaVuSans-39"/>
      </g>
     </g>
    </g>
    <g id="text_29">
     <!-- OUT [V] -->
     <g style="fill:#d62728;" transform="translate(446.9125 146.078594)rotate(-90)scale(0.1 -0.1)">
      <defs>
       <path d="M 2522 4238 
Q 1834 4238 1429 3725 
Q 1025 3213 1025 2328 
Q 1025 1447 1429 934 
Q 1834 422 2522 422 
Q 3209 422 3611 934 
Q 4013 1447 4013 2328 
Q 4013 3213 3611 3725 
Q 3209 4238 2522 4238 
z
M 2522 4750 
Q 3503 4750 4090 4092 
Q 4678 3434 4678 2328 
Q 4678 1225 4090 567 
Q 3503 -91 2522 -91 
Q 1538 -91 948 565 
Q 359 1222 359 2328 
Q 359 3434 948 4092 
Q 1538 4750 2522 4750 
z
" id="DejaVuSans-4f" transform="scale(0.015625)"/>
       <path d="M 556 4666 
L 1191 4666 
L 1191 1831 
Q 1191 1081 1462 751 
Q 1734 422 2344 422 
Q 2950 422 3222 751 
Q 3494 1081 3494 1831 
L 3494 4666 
L 4128 4666 
L 4128 1753 
Q 4128 841 3676 375 
Q 3225 -91 2344 -91 
Q 1459 -91 1007 375 
Q 556 841 556 1753 
L 556 4666 
z
" id="DejaVuSans-55" transform="scale(0.015625)"/>
       <path d="M -19 4666 
L 3928 4666 
L 3928 4134 
L 2272 4134 
L 2272 0 
L 1638 0 
L 1638 4134 
L -19 4134 
L -19 4666 
z
" id="DejaVuSans-54" transform="scale(0.015625)"/>
      </defs>
      <use xlink:href="#DejaVuSans-4f"/>
      <use x="78.710938" xlink:href="#DejaVuSans-55"/>
      <use x="151.904297" xlink:href="#DejaVuSans-54"/>
      <use x="212.988281" xlink:href="#DejaVuSans-20"/>
      <use x="244.775391" xlink:href="#DejaVuSans-5b"/>
      <use x="283.789062" xlink:href="#DejaVuSans-56"/>
      <use x="352.197266" xlink:href="#DejaVuSans-5d"/>
     </g>
    </g>
    <g id="text_30">
     <!-- +4.9910000000 -->
     <g style="fill:#d62728;" transform="translate(311.778125 14.798437)scale(0.1 -0.1)">
      <defs>
       <path d="M 2944 4013 
L 2944 2272 
L 4684 2272 
L 4684 1741 
L 2944 1741 
L 2944 0 
L 2419 0 
L 2419 1741 
L 678 1741 
L 678 2272 
L 2419 2272 
L 2419 4013 
L 2944 4013 
z
" id="DejaVuSans-2b" transform="scale(0.015625)"/>
      </defs>
      <use xlink:href="#DejaVuSans-2b"/>
      <use x="83.789062" xlink:href="#DejaVuSans-34"/>
      <use x="147.412109" xlink:href="#DejaVuSans-2e"/>
      <use x="179.199219" xlink:href="#DejaVuSans-39"/>
      <use x="242.822266" xlink:href="#DejaVuSans-39"/>
      <use x="306.445312" xlink:href="#DejaVuSans-31"/>
      <use x="370.068359" xlink:href="#DejaVuSans-30"/>
      <use x="433.691406" xlink:href="#DejaVuSans-30"/>
      <use x="497.314453" xlink:href="#DejaVuSans-30"/>
      <use x="560.9375" xlink:href="#DejaVuSans-30"/>
      <use x="624.560547" xlink:href="#DejaVuSans-30"/>
      <use x="688.183594" xlink:href="#DejaVuSans-30"/>
      <use x="751.806641" xlink:href="#DejaVuSans-30"/>
     </g>
    </g>
   </g>
   <g id="line2d_28">
    <path clip-path="url(#pc8d82a018d)" d="M 73.741619 69.384603 
L 75.94841 84.610069 
L 79.144452 108.421949 
L 85.079958 152.809245 
L 87.743327 170.927456 
L 90.10231 185.482717 
L 92.156908 196.828921 
L 93.983218 205.707581 
L 95.505143 212.089843 
L 96.874875 216.916443 
L 98.016319 220.188615 
L 99.00557 222.418693 
L 99.918724 223.942009 
L 100.679687 224.798613 
L 101.364553 225.236776 
L 101.973323 225.354801 
L 102.505996 225.244781 
L 103.114766 224.872221 
L 103.723536 224.234188 
L 104.408402 223.197666 
L 105.169365 221.650372 
L 106.08252 219.247958 
L 107.071771 215.984784 
L 108.213214 211.391403 
L 109.50685 205.163844 
L 110.952679 197.011707 
L 112.5507 186.692249 
L 114.453105 172.896544 
L 116.812089 154.077919 
L 120.921286 119.118928 
L 124.573905 88.832404 
L 126.856792 71.690518 
L 128.759198 59.033071 
L 130.357219 49.801776 
L 131.803047 42.699204 
L 133.096683 37.436912 
L 134.238127 33.699679 
L 135.227378 31.173275 
L 136.140533 29.442238 
L 136.901495 28.446481 
L 137.586361 27.899972 
L 138.195131 27.692883 
L 138.727805 27.726614 
L 139.336575 28.009879 
L 139.945344 28.552504 
L 140.630211 29.469889 
L 141.391173 30.864897 
L 142.304328 33.049874 
L 143.293579 36.027027 
L 144.435022 40.21685 
L 145.728658 45.884318 
L 147.174487 53.277037 
L 148.848604 63.066351 
L 150.827106 76.038056 
L 153.338282 94.076638 
L 163.382985 167.93985 
L 165.741968 182.78639 
L 167.872663 194.829861 
L 169.698973 203.961095 
L 171.296994 210.894712 
L 172.666726 215.925186 
L 173.884266 219.59228 
L 174.949613 222.113981 
L 175.862768 223.725065 
L 176.62373 224.658069 
L 177.308596 225.167117 
L 177.917366 225.34953 
L 178.45004 225.296688 
L 179.05881 224.990178 
L 179.66758 224.418668 
L 180.352446 223.45719 
L 181.113408 221.993054 
L 181.950467 219.903953 
L 182.939718 216.797921 
L 184.005065 212.701079 
L 185.222605 207.104193 
L 186.592337 199.714895 
L 188.190358 189.769962 
L 190.016668 176.904751 
L 192.223459 159.694628 
L 195.4195 132.830257 
L 200.517948 90.036748 
L 202.876932 72.230417 
L 204.779337 59.506264 
L 206.377358 50.209564 
L 207.823187 43.041608 
L 209.116823 37.716711 
L 210.258266 33.921685 
L 211.247517 31.343721 
L 212.160672 29.564226 
L 212.921635 28.52768 
L 213.606501 27.944303 
L 214.215271 27.704428 
L 214.747944 27.709536 
L 215.280618 27.914668 
L 215.889388 28.392654 
L 216.574254 29.238145 
L 217.335216 30.554598 
L 218.172275 32.452168 
L 219.161526 35.284921 
L 220.226873 39.022885 
L 221.444413 44.120332 
L 222.814145 50.828901 
L 224.412166 59.820727 
L 226.314572 71.906762 
L 228.673555 88.469864 
L 232.326175 115.972721 
L 237.044141 151.184571 
L 239.783606 169.937405 
L 242.142589 184.590673 
L 244.197188 196.035134 
L 246.023497 205.015848 
L 247.621518 211.795051 
L 248.99125 216.673155 
L 250.132694 219.993155 
L 251.121945 222.268117 
L 252.0351 223.835412 
L 252.796062 224.730284 
L 253.480928 225.20394 
L 254.089698 225.354195 
L 254.622372 225.272788 
L 255.231142 224.933272 
L 255.839912 224.328511 
L 256.524778 223.329512 
L 257.28574 221.823785 
L 258.198895 219.470703 
L 259.188146 216.259798 
L 260.32959 211.724512 
L 261.547129 205.95061 
L 262.916862 198.377693 
L 264.514883 188.243417 
L 266.417288 174.627062 
L 268.700176 156.587194 
L 272.276699 126.296664 
L 276.538088 90.641394 
L 278.897071 72.772706 
L 280.799477 59.98237 
L 282.473594 50.209564 
L 283.919423 43.041608 
L 285.213059 37.716711 
L 286.354502 33.921685 
L 287.343753 31.343721 
L 288.256908 29.564226 
L 289.01787 28.52768 
L 289.702737 27.944303 
L 290.311506 27.704428 
L 290.84418 27.709536 
L 291.376854 27.914668 
L 291.985624 28.392654 
L 292.67049 29.238145 
L 293.431452 30.554598 
L 294.268511 32.452168 
L 295.257762 35.284921 
L 296.323109 39.022885 
L 297.540649 44.120332 
L 298.910381 50.828901 
L 300.508402 59.820727 
L 302.410808 71.906762 
L 304.769791 88.469864 
L 308.422411 115.972721 
L 313.140377 151.184571 
L 315.879842 169.937405 
L 318.238825 184.590673 
L 320.293423 196.035134 
L 322.119733 205.015848 
L 323.717754 211.795051 
L 325.087486 216.673155 
L 326.22893 219.993155 
L 327.218181 222.268117 
L 328.131336 223.835412 
L 328.892298 224.730284 
L 329.577164 225.20394 
L 330.185934 225.354195 
L 330.718608 225.272788 
L 331.327378 224.933272 
L 331.936147 224.328511 
L 332.621014 223.329512 
L 333.381976 221.823785 
L 334.295131 219.470703 
L 335.284382 216.259798 
L 336.425825 211.724512 
L 337.643365 205.95061 
L 339.013097 198.377693 
L 340.611118 188.243417 
L 342.513524 174.627062 
L 344.796411 156.587194 
L 348.372934 126.296664 
L 352.634324 90.641394 
L 354.993307 72.772706 
L 356.895713 59.98237 
L 358.56983 50.209564 
L 360.015659 43.041608 
L 361.309295 37.716711 
L 362.450738 33.921685 
L 363.439989 31.343721 
L 364.353144 29.564226 
L 365.114106 28.52768 
L 365.798972 27.944303 
L 366.407742 27.704428 
L 366.940416 27.709536 
L 367.47309 27.914668 
L 368.08186 28.392654 
L 368.766726 29.238145 
L 369.527688 30.554598 
L 370.364747 32.452168 
L 371.353998 35.284921 
L 372.419345 39.022885 
L 373.636885 44.120332 
L 375.006617 50.828901 
L 376.604638 59.820727 
L 378.105256 69.244802 
L 378.105256 69.244802 
" style="fill:none;stroke:#d62728;stroke-linecap:square;stroke-width:1.5;"/>
   </g>
   <g id="patch_7">
    <path d="M 58.523438 235.238438 
L 58.523438 17.798437 
" style="fill:none;stroke:#000000;stroke-linecap:square;stroke-linejoin:miter;stroke-width:0.8;"/>
   </g>
   <g id="patch_8">
    <path d="M 393.323438 235.238438 
L 393.323438 17.798437 
" style="fill:none;stroke:#000000;stroke-linecap:square;stroke-linejoin:miter;stroke-width:0.8;"/>
   </g>
   <g id="patch_9">
    <path d="M 58.523438 235.238437 
L 393.323438 235.238437 
" style="fill:none;stroke:#000000;stroke-linecap:square;stroke-linejoin:miter;stroke-width:0.8;"/>
   </g>
   <g id="patch_10">
    <path d="M 58.523438 17.798437 
L 393.323438 17.798437 
" style="fill:none;stroke:#000000;stroke-linecap:square;stroke-linejoin:miter;stroke-width:0.8;"/>
   </g>
  </g>
 </g>
 <defs>
  <clipPath id="pc8d82a018d">
   <rect height="217.44" width="334.8" x="58.523438" y="17.798437"/>
  </clipPath>
 </defs>
</svg>
