<?xml version="1.0" encoding="utf-8" standalone="no"?>
<!DOCTYPE svg PUBLIC "-//W3C//DTD SVG 1.1//EN"
  "http://www.w3.org/Graphics/SVG/1.1/DTD/svg11.dtd">
<svg height="271.823625pt" version="1.1" viewBox="0 0 400.523438 271.823625" width="400.523438pt" xmlns="http://www.w3.org/2000/svg" xmlns:xlink="http://www.w3.org/1999/xlink">
 <metadata>
  <rdf:RDF xmlns:cc="http://creativecommons.org/ns#" xmlns:dc="http://purl.org/dc/elements/1.1/" xmlns:rdf="http://www.w3.org/1999/02/22-rdf-syntax-ns#">
   <cc:Work>
    <dc:type rdf:resource="http://purl.org/dc/dcmitype/StillImage"/>
    <dc:date>2021-05-25T06:41:35.215848</dc:date>
    <dc:format>image/svg+xml</dc:format>
    <dc:creator>
     <cc:Agent>
      <dc:title>Matplotlib v3.4.2, https://matplotlib.org/</dc:title>
     </cc:Agent>
    </dc:creator>
   </cc:Work>
  </rdf:RDF>
 </metadata>
 <defs>
  <style type="text/css">*{stroke-linecap:butt;stroke-linejoin:round;}</style>
 </defs>
 <g id="figure_1">
  <g id="patch_1">
   <path d="M 0 271.823625 
L 400.523438 271.823625 
L 400.523438 0 
L 0 0 
z
" style="fill:none;"/>
  </g>
  <g id="axes_1">
   <g id="patch_2">
    <path d="M 58.523438 224.64 
L 393.323438 224.64 
L 393.323438 7.2 
L 58.523438 7.2 
z
" style="fill:#ffffff;"/>
   </g>
   <g id="matplotlib.axis_1">
    <g id="xtick_1">
     <g id="line2d_1">
      <path clip-path="url(#p16782cf669)" d="M 73.720312 224.64 
L 73.720312 7.2 
" style="fill:none;stroke:#b0b0b0;stroke-linecap:square;stroke-width:0.8;"/>
     </g>
     <g id="line2d_2">
      <defs>
       <path d="M 0 0 
L 0 3.5 
" id="m3a94089521" style="stroke:#000000;stroke-width:0.8;"/>
      </defs>
      <g>
       <use style="stroke:#000000;stroke-width:0.8;" x="73.720312" xlink:href="#m3a94089521" y="224.64"/>
      </g>
     </g>
     <g id="text_1">
      <!-- 100.0 -->
      <g transform="translate(59.40625 239.238438)scale(0.1 -0.1)">
       <defs>
        <path d="M 794 531 
L 1825 531 
L 1825 4091 
L 703 3866 
L 703 4441 
L 1819 4666 
L 2450 4666 
L 2450 531 
L 3481 531 
L 3481 0 
L 794 0 
L 794 531 
z
" id="DejaVuSans-31" transform="scale(0.015625)"/>
        <path d="M 2034 4250 
Q 1547 4250 1301 3770 
Q 1056 3291 1056 2328 
Q 1056 1369 1301 889 
Q 1547 409 2034 409 
Q 2525 409 2770 889 
Q 3016 1369 3016 2328 
Q 3016 3291 2770 3770 
Q 2525 4250 2034 4250 
z
M 2034 4750 
Q 2819 4750 3233 4129 
Q 3647 3509 3647 2328 
Q 3647 1150 3233 529 
Q 2819 -91 2034 -91 
Q 1250 -91 836 529 
Q 422 1150 422 2328 
Q 422 3509 836 4129 
Q 1250 4750 2034 4750 
z
" id="DejaVuSans-30" transform="scale(0.015625)"/>
        <path d="M 684 794 
L 1344 794 
L 1344 0 
L 684 0 
L 684 794 
z
" id="DejaVuSans-2e" transform="scale(0.015625)"/>
       </defs>
       <use xlink:href="#DejaVuSans-31"/>
       <use x="63.623047" xlink:href="#DejaVuSans-30"/>
       <use x="127.246094" xlink:href="#DejaVuSans-30"/>
       <use x="190.869141" xlink:href="#DejaVuSans-2e"/>
       <use x="222.65625" xlink:href="#DejaVuSans-30"/>
      </g>
     </g>
    </g>
    <g id="xtick_2">
     <g id="line2d_3">
      <path clip-path="url(#p16782cf669)" d="M 111.76843 224.64 
L 111.76843 7.2 
" style="fill:none;stroke:#b0b0b0;stroke-linecap:square;stroke-width:0.8;"/>
     </g>
     <g id="line2d_4">
      <g>
       <use style="stroke:#000000;stroke-width:0.8;" x="111.76843" xlink:href="#m3a94089521" y="224.64"/>
      </g>
     </g>
     <g id="text_2">
      <!-- 100.5 -->
      <g transform="translate(97.454368 239.238438)scale(0.1 -0.1)">
       <defs>
        <path d="M 691 4666 
L 3169 4666 
L 3169 4134 
L 1269 4134 
L 1269 2991 
Q 1406 3038 1543 3061 
Q 1681 3084 1819 3084 
Q 2600 3084 3056 2656 
Q 3513 2228 3513 1497 
Q 3513 744 3044 326 
Q 2575 -91 1722 -91 
Q 1428 -91 1123 -41 
Q 819 9 494 109 
L 494 744 
Q 775 591 1075 516 
Q 1375 441 1709 441 
Q 2250 441 2565 725 
Q 2881 1009 2881 1497 
Q 2881 1984 2565 2268 
Q 2250 2553 1709 2553 
Q 1456 2553 1204 2497 
Q 953 2441 691 2322 
L 691 4666 
z
" id="DejaVuSans-35" transform="scale(0.015625)"/>
       </defs>
       <use xlink:href="#DejaVuSans-31"/>
       <use x="63.623047" xlink:href="#DejaVuSans-30"/>
       <use x="127.246094" xlink:href="#DejaVuSans-30"/>
       <use x="190.869141" xlink:href="#DejaVuSans-2e"/>
       <use x="222.65625" xlink:href="#DejaVuSans-35"/>
      </g>
     </g>
    </g>
    <g id="xtick_3">
     <g id="line2d_5">
      <path clip-path="url(#p16782cf669)" d="M 149.816548 224.64 
L 149.816548 7.2 
" style="fill:none;stroke:#b0b0b0;stroke-linecap:square;stroke-width:0.8;"/>
     </g>
     <g id="line2d_6">
      <g>
       <use style="stroke:#000000;stroke-width:0.8;" x="149.816548" xlink:href="#m3a94089521" y="224.64"/>
      </g>
     </g>
     <g id="text_3">
      <!-- 101.0 -->
      <g transform="translate(135.502486 239.238438)scale(0.1 -0.1)">
       <use xlink:href="#DejaVuSans-31"/>
       <use x="63.623047" xlink:href="#DejaVuSans-30"/>
       <use x="127.246094" xlink:href="#DejaVuSans-31"/>
       <use x="190.869141" xlink:href="#DejaVuSans-2e"/>
       <use x="222.65625" xlink:href="#DejaVuSans-30"/>
      </g>
     </g>
    </g>
    <g id="xtick_4">
     <g id="line2d_7">
      <path clip-path="url(#p16782cf669)" d="M 187.864666 224.64 
L 187.864666 7.2 
" style="fill:none;stroke:#b0b0b0;stroke-linecap:square;stroke-width:0.8;"/>
     </g>
     <g id="line2d_8">
      <g>
       <use style="stroke:#000000;stroke-width:0.8;" x="187.864666" xlink:href="#m3a94089521" y="224.64"/>
      </g>
     </g>
     <g id="text_4">
      <!-- 101.5 -->
      <g transform="translate(173.550604 239.238438)scale(0.1 -0.1)">
       <use xlink:href="#DejaVuSans-31"/>
       <use x="63.623047" xlink:href="#DejaVuSans-30"/>
       <use x="127.246094" xlink:href="#DejaVuSans-31"/>
       <use x="190.869141" xlink:href="#DejaVuSans-2e"/>
       <use x="222.65625" xlink:href="#DejaVuSans-35"/>
      </g>
     </g>
    </g>
    <g id="xtick_5">
     <g id="line2d_9">
      <path clip-path="url(#p16782cf669)" d="M 225.912784 224.64 
L 225.912784 7.2 
" style="fill:none;stroke:#b0b0b0;stroke-linecap:square;stroke-width:0.8;"/>
     </g>
     <g id="line2d_10">
      <g>
       <use style="stroke:#000000;stroke-width:0.8;" x="225.912784" xlink:href="#m3a94089521" y="224.64"/>
      </g>
     </g>
     <g id="text_5">
      <!-- 102.0 -->
      <g transform="translate(211.598722 239.238438)scale(0.1 -0.1)">
       <defs>
        <path d="M 1228 531 
L 3431 531 
L 3431 0 
L 469 0 
L 469 531 
Q 828 903 1448 1529 
Q 2069 2156 2228 2338 
Q 2531 2678 2651 2914 
Q 2772 3150 2772 3378 
Q 2772 3750 2511 3984 
Q 2250 4219 1831 4219 
Q 1534 4219 1204 4116 
Q 875 4013 500 3803 
L 500 4441 
Q 881 4594 1212 4672 
Q 1544 4750 1819 4750 
Q 2544 4750 2975 4387 
Q 3406 4025 3406 3419 
Q 3406 3131 3298 2873 
Q 3191 2616 2906 2266 
Q 2828 2175 2409 1742 
Q 1991 1309 1228 531 
z
" id="DejaVuSans-32" transform="scale(0.015625)"/>
       </defs>
       <use xlink:href="#DejaVuSans-31"/>
       <use x="63.623047" xlink:href="#DejaVuSans-30"/>
       <use x="127.246094" xlink:href="#DejaVuSans-32"/>
       <use x="190.869141" xlink:href="#DejaVuSans-2e"/>
       <use x="222.65625" xlink:href="#DejaVuSans-30"/>
      </g>
     </g>
    </g>
    <g id="xtick_6">
     <g id="line2d_11">
      <path clip-path="url(#p16782cf669)" d="M 263.960902 224.64 
L 263.960902 7.2 
" style="fill:none;stroke:#b0b0b0;stroke-linecap:square;stroke-width:0.8;"/>
     </g>
     <g id="line2d_12">
      <g>
       <use style="stroke:#000000;stroke-width:0.8;" x="263.960902" xlink:href="#m3a94089521" y="224.64"/>
      </g>
     </g>
     <g id="text_6">
      <!-- 102.5 -->
      <g transform="translate(249.646839 239.238438)scale(0.1 -0.1)">
       <use xlink:href="#DejaVuSans-31"/>
       <use x="63.623047" xlink:href="#DejaVuSans-30"/>
       <use x="127.246094" xlink:href="#DejaVuSans-32"/>
       <use x="190.869141" xlink:href="#DejaVuSans-2e"/>
       <use x="222.65625" xlink:href="#DejaVuSans-35"/>
      </g>
     </g>
    </g>
    <g id="xtick_7">
     <g id="line2d_13">
      <path clip-path="url(#p16782cf669)" d="M 302.00902 224.64 
L 302.00902 7.2 
" style="fill:none;stroke:#b0b0b0;stroke-linecap:square;stroke-width:0.8;"/>
     </g>
     <g id="line2d_14">
      <g>
       <use style="stroke:#000000;stroke-width:0.8;" x="302.00902" xlink:href="#m3a94089521" y="224.64"/>
      </g>
     </g>
     <g id="text_7">
      <!-- 103.0 -->
      <g transform="translate(287.694957 239.238438)scale(0.1 -0.1)">
       <defs>
        <path d="M 2597 2516 
Q 3050 2419 3304 2112 
Q 3559 1806 3559 1356 
Q 3559 666 3084 287 
Q 2609 -91 1734 -91 
Q 1441 -91 1130 -33 
Q 819 25 488 141 
L 488 750 
Q 750 597 1062 519 
Q 1375 441 1716 441 
Q 2309 441 2620 675 
Q 2931 909 2931 1356 
Q 2931 1769 2642 2001 
Q 2353 2234 1838 2234 
L 1294 2234 
L 1294 2753 
L 1863 2753 
Q 2328 2753 2575 2939 
Q 2822 3125 2822 3475 
Q 2822 3834 2567 4026 
Q 2313 4219 1838 4219 
Q 1578 4219 1281 4162 
Q 984 4106 628 3988 
L 628 4550 
Q 988 4650 1302 4700 
Q 1616 4750 1894 4750 
Q 2613 4750 3031 4423 
Q 3450 4097 3450 3541 
Q 3450 3153 3228 2886 
Q 3006 2619 2597 2516 
z
" id="DejaVuSans-33" transform="scale(0.015625)"/>
       </defs>
       <use xlink:href="#DejaVuSans-31"/>
       <use x="63.623047" xlink:href="#DejaVuSans-30"/>
       <use x="127.246094" xlink:href="#DejaVuSans-33"/>
       <use x="190.869141" xlink:href="#DejaVuSans-2e"/>
       <use x="222.65625" xlink:href="#DejaVuSans-30"/>
      </g>
     </g>
    </g>
    <g id="xtick_8">
     <g id="line2d_15">
      <path clip-path="url(#p16782cf669)" d="M 340.057138 224.64 
L 340.057138 7.2 
" style="fill:none;stroke:#b0b0b0;stroke-linecap:square;stroke-width:0.8;"/>
     </g>
     <g id="line2d_16">
      <g>
       <use style="stroke:#000000;stroke-width:0.8;" x="340.057138" xlink:href="#m3a94089521" y="224.64"/>
      </g>
     </g>
     <g id="text_8">
      <!-- 103.5 -->
      <g transform="translate(325.743075 239.238438)scale(0.1 -0.1)">
       <use xlink:href="#DejaVuSans-31"/>
       <use x="63.623047" xlink:href="#DejaVuSans-30"/>
       <use x="127.246094" xlink:href="#DejaVuSans-33"/>
       <use x="190.869141" xlink:href="#DejaVuSans-2e"/>
       <use x="222.65625" xlink:href="#DejaVuSans-35"/>
      </g>
     </g>
    </g>
    <g id="xtick_9">
     <g id="line2d_17">
      <path clip-path="url(#p16782cf669)" d="M 378.105256 224.64 
L 378.105256 7.2 
" style="fill:none;stroke:#b0b0b0;stroke-linecap:square;stroke-width:0.8;"/>
     </g>
     <g id="line2d_18">
      <g>
       <use style="stroke:#000000;stroke-width:0.8;" x="378.105256" xlink:href="#m3a94089521" y="224.64"/>
      </g>
     </g>
     <g id="text_9">
      <!-- 104.0 -->
      <g transform="translate(363.791193 239.238438)scale(0.1 -0.1)">
       <defs>
        <path d="M 2419 4116 
L 825 1625 
L 2419 1625 
L 2419 4116 
z
M 2253 4666 
L 3047 4666 
L 3047 1625 
L 3713 1625 
L 3713 1100 
L 3047 1100 
L 3047 0 
L 2419 0 
L 2419 1100 
L 313 1100 
L 313 1709 
L 2253 4666 
z
" id="DejaVuSans-34" transform="scale(0.015625)"/>
       </defs>
       <use xlink:href="#DejaVuSans-31"/>
       <use x="63.623047" xlink:href="#DejaVuSans-30"/>
       <use x="127.246094" xlink:href="#DejaVuSans-34"/>
       <use x="190.869141" xlink:href="#DejaVuSans-2e"/>
       <use x="222.65625" xlink:href="#DejaVuSans-30"/>
      </g>
     </g>
    </g>
    <g id="text_10">
     <!-- t [ms] -->
     <g transform="translate(210.997656 252.916562)scale(0.1 -0.1)">
      <defs>
       <path d="M 1172 4494 
L 1172 3500 
L 2356 3500 
L 2356 3053 
L 1172 3053 
L 1172 1153 
Q 1172 725 1289 603 
Q 1406 481 1766 481 
L 2356 481 
L 2356 0 
L 1766 0 
Q 1100 0 847 248 
Q 594 497 594 1153 
L 594 3053 
L 172 3053 
L 172 3500 
L 594 3500 
L 594 4494 
L 1172 4494 
z
" id="DejaVuSans-74" transform="scale(0.015625)"/>
       <path id="DejaVuSans-20" transform="scale(0.015625)"/>
       <path d="M 550 4863 
L 1875 4863 
L 1875 4416 
L 1125 4416 
L 1125 -397 
L 1875 -397 
L 1875 -844 
L 550 -844 
L 550 4863 
z
" id="DejaVuSans-5b" transform="scale(0.015625)"/>
       <path d="M 3328 2828 
Q 3544 3216 3844 3400 
Q 4144 3584 4550 3584 
Q 5097 3584 5394 3201 
Q 5691 2819 5691 2113 
L 5691 0 
L 5113 0 
L 5113 2094 
Q 5113 2597 4934 2840 
Q 4756 3084 4391 3084 
Q 3944 3084 3684 2787 
Q 3425 2491 3425 1978 
L 3425 0 
L 2847 0 
L 2847 2094 
Q 2847 2600 2669 2842 
Q 2491 3084 2119 3084 
Q 1678 3084 1418 2786 
Q 1159 2488 1159 1978 
L 1159 0 
L 581 0 
L 581 3500 
L 1159 3500 
L 1159 2956 
Q 1356 3278 1631 3431 
Q 1906 3584 2284 3584 
Q 2666 3584 2933 3390 
Q 3200 3197 3328 2828 
z
" id="DejaVuSans-6d" transform="scale(0.015625)"/>
       <path d="M 2834 3397 
L 2834 2853 
Q 2591 2978 2328 3040 
Q 2066 3103 1784 3103 
Q 1356 3103 1142 2972 
Q 928 2841 928 2578 
Q 928 2378 1081 2264 
Q 1234 2150 1697 2047 
L 1894 2003 
Q 2506 1872 2764 1633 
Q 3022 1394 3022 966 
Q 3022 478 2636 193 
Q 2250 -91 1575 -91 
Q 1294 -91 989 -36 
Q 684 19 347 128 
L 347 722 
Q 666 556 975 473 
Q 1284 391 1588 391 
Q 1994 391 2212 530 
Q 2431 669 2431 922 
Q 2431 1156 2273 1281 
Q 2116 1406 1581 1522 
L 1381 1569 
Q 847 1681 609 1914 
Q 372 2147 372 2553 
Q 372 3047 722 3315 
Q 1072 3584 1716 3584 
Q 2034 3584 2315 3537 
Q 2597 3491 2834 3397 
z
" id="DejaVuSans-73" transform="scale(0.015625)"/>
       <path d="M 1947 4863 
L 1947 -844 
L 622 -844 
L 622 -397 
L 1369 -397 
L 1369 4416 
L 622 4416 
L 622 4863 
L 1947 4863 
z
" id="DejaVuSans-5d" transform="scale(0.015625)"/>
      </defs>
      <use xlink:href="#DejaVuSans-74"/>
      <use x="39.208984" xlink:href="#DejaVuSans-20"/>
      <use x="70.996094" xlink:href="#DejaVuSans-5b"/>
      <use x="110.009766" xlink:href="#DejaVuSans-6d"/>
      <use x="207.421875" xlink:href="#DejaVuSans-73"/>
      <use x="259.521484" xlink:href="#DejaVuSans-5d"/>
     </g>
    </g>
   </g>
   <g id="matplotlib.axis_2">
    <g id="ytick_1">
     <g id="line2d_19">
      <path clip-path="url(#p16782cf669)" d="M 58.523438 214.756517 
L 393.323438 214.756517 
" style="fill:none;stroke:#b0b0b0;stroke-linecap:square;stroke-width:0.8;"/>
     </g>
     <g id="line2d_20">
      <defs>
       <path d="M 0 0 
L -3.5 0 
" id="m439111d99e" style="stroke:#000000;stroke-width:0.8;"/>
      </defs>
      <g>
       <use style="stroke:#000000;stroke-width:0.8;" x="58.523438" xlink:href="#m439111d99e" y="214.756517"/>
      </g>
     </g>
     <g id="text_11">
      <!-- −1.00 -->
      <g transform="translate(20.878125 218.555735)scale(0.1 -0.1)">
       <defs>
        <path d="M 678 2272 
L 4684 2272 
L 4684 1741 
L 678 1741 
L 678 2272 
z
" id="DejaVuSans-2212" transform="scale(0.015625)"/>
       </defs>
       <use xlink:href="#DejaVuSans-2212"/>
       <use x="83.789062" xlink:href="#DejaVuSans-31"/>
       <use x="147.412109" xlink:href="#DejaVuSans-2e"/>
       <use x="179.199219" xlink:href="#DejaVuSans-30"/>
       <use x="242.822266" xlink:href="#DejaVuSans-30"/>
      </g>
     </g>
    </g>
    <g id="ytick_2">
     <g id="line2d_21">
      <path clip-path="url(#p16782cf669)" d="M 58.523438 190.047387 
L 393.323438 190.047387 
" style="fill:none;stroke:#b0b0b0;stroke-linecap:square;stroke-width:0.8;"/>
     </g>
     <g id="line2d_22">
      <g>
       <use style="stroke:#000000;stroke-width:0.8;" x="58.523438" xlink:href="#m439111d99e" y="190.047387"/>
      </g>
     </g>
     <g id="text_12">
      <!-- −0.75 -->
      <g transform="translate(20.878125 193.846606)scale(0.1 -0.1)">
       <defs>
        <path d="M 525 4666 
L 3525 4666 
L 3525 4397 
L 1831 0 
L 1172 0 
L 2766 4134 
L 525 4134 
L 525 4666 
z
" id="DejaVuSans-37" transform="scale(0.015625)"/>
       </defs>
       <use xlink:href="#DejaVuSans-2212"/>
       <use x="83.789062" xlink:href="#DejaVuSans-30"/>
       <use x="147.412109" xlink:href="#DejaVuSans-2e"/>
       <use x="179.199219" xlink:href="#DejaVuSans-37"/>
       <use x="242.822266" xlink:href="#DejaVuSans-35"/>
      </g>
     </g>
    </g>
    <g id="ytick_3">
     <g id="line2d_23">
      <path clip-path="url(#p16782cf669)" d="M 58.523438 165.338258 
L 393.323438 165.338258 
" style="fill:none;stroke:#b0b0b0;stroke-linecap:square;stroke-width:0.8;"/>
     </g>
     <g id="line2d_24">
      <g>
       <use style="stroke:#000000;stroke-width:0.8;" x="58.523438" xlink:href="#m439111d99e" y="165.338258"/>
      </g>
     </g>
     <g id="text_13">
      <!-- −0.50 -->
      <g transform="translate(20.878125 169.137477)scale(0.1 -0.1)">
       <use xlink:href="#DejaVuSans-2212"/>
       <use x="83.789062" xlink:href="#DejaVuSans-30"/>
       <use x="147.412109" xlink:href="#DejaVuSans-2e"/>
       <use x="179.199219" xlink:href="#DejaVuSans-35"/>
       <use x="242.822266" xlink:href="#DejaVuSans-30"/>
      </g>
     </g>
    </g>
    <g id="ytick_4">
     <g id="line2d_25">
      <path clip-path="url(#p16782cf669)" d="M 58.523438 140.629129 
L 393.323438 140.629129 
" style="fill:none;stroke:#b0b0b0;stroke-linecap:square;stroke-width:0.8;"/>
     </g>
     <g id="line2d_26">
      <g>
       <use style="stroke:#000000;stroke-width:0.8;" x="58.523438" xlink:href="#m439111d99e" y="140.629129"/>
      </g>
     </g>
     <g id="text_14">
      <!-- −0.25 -->
      <g transform="translate(20.878125 144.428348)scale(0.1 -0.1)">
       <use xlink:href="#DejaVuSans-2212"/>
       <use x="83.789062" xlink:href="#DejaVuSans-30"/>
       <use x="147.412109" xlink:href="#DejaVuSans-2e"/>
       <use x="179.199219" xlink:href="#DejaVuSans-32"/>
       <use x="242.822266" xlink:href="#DejaVuSans-35"/>
      </g>
     </g>
    </g>
    <g id="ytick_5">
     <g id="line2d_27">
      <path clip-path="url(#p16782cf669)" d="M 58.523438 115.92 
L 393.323438 115.92 
" style="fill:none;stroke:#b0b0b0;stroke-linecap:square;stroke-width:0.8;"/>
     </g>
     <g id="line2d_28">
      <g>
       <use style="stroke:#000000;stroke-width:0.8;" x="58.523438" xlink:href="#m439111d99e" y="115.92"/>
      </g>
     </g>
     <g id="text_15">
      <!-- 0.00 -->
      <g transform="translate(29.257813 119.719219)scale(0.1 -0.1)">
       <use xlink:href="#DejaVuSans-30"/>
       <use x="63.623047" xlink:href="#DejaVuSans-2e"/>
       <use x="95.410156" xlink:href="#DejaVuSans-30"/>
       <use x="159.033203" xlink:href="#DejaVuSans-30"/>
      </g>
     </g>
    </g>
    <g id="ytick_6">
     <g id="line2d_29">
      <path clip-path="url(#p16782cf669)" d="M 58.523438 91.210871 
L 393.323438 91.210871 
" style="fill:none;stroke:#b0b0b0;stroke-linecap:square;stroke-width:0.8;"/>
     </g>
     <g id="line2d_30">
      <g>
       <use style="stroke:#000000;stroke-width:0.8;" x="58.523438" xlink:href="#m439111d99e" y="91.210871"/>
      </g>
     </g>
     <g id="text_16">
      <!-- 0.25 -->
      <g transform="translate(29.257813 95.01009)scale(0.1 -0.1)">
       <use xlink:href="#DejaVuSans-30"/>
       <use x="63.623047" xlink:href="#DejaVuSans-2e"/>
       <use x="95.410156" xlink:href="#DejaVuSans-32"/>
       <use x="159.033203" xlink:href="#DejaVuSans-35"/>
      </g>
     </g>
    </g>
    <g id="ytick_7">
     <g id="line2d_31">
      <path clip-path="url(#p16782cf669)" d="M 58.523438 66.501742 
L 393.323438 66.501742 
" style="fill:none;stroke:#b0b0b0;stroke-linecap:square;stroke-width:0.8;"/>
     </g>
     <g id="line2d_32">
      <g>
       <use style="stroke:#000000;stroke-width:0.8;" x="58.523438" xlink:href="#m439111d99e" y="66.501742"/>
      </g>
     </g>
     <g id="text_17">
      <!-- 0.50 -->
      <g transform="translate(29.257813 70.30096)scale(0.1 -0.1)">
       <use xlink:href="#DejaVuSans-30"/>
       <use x="63.623047" xlink:href="#DejaVuSans-2e"/>
       <use x="95.410156" xlink:href="#DejaVuSans-35"/>
       <use x="159.033203" xlink:href="#DejaVuSans-30"/>
      </g>
     </g>
    </g>
    <g id="ytick_8">
     <g id="line2d_33">
      <path clip-path="url(#p16782cf669)" d="M 58.523438 41.792613 
L 393.323438 41.792613 
" style="fill:none;stroke:#b0b0b0;stroke-linecap:square;stroke-width:0.8;"/>
     </g>
     <g id="line2d_34">
      <g>
       <use style="stroke:#000000;stroke-width:0.8;" x="58.523438" xlink:href="#m439111d99e" y="41.792613"/>
      </g>
     </g>
     <g id="text_18">
      <!-- 0.75 -->
      <g transform="translate(29.257813 45.591831)scale(0.1 -0.1)">
       <use xlink:href="#DejaVuSans-30"/>
       <use x="63.623047" xlink:href="#DejaVuSans-2e"/>
       <use x="95.410156" xlink:href="#DejaVuSans-37"/>
       <use x="159.033203" xlink:href="#DejaVuSans-35"/>
      </g>
     </g>
    </g>
    <g id="ytick_9">
     <g id="line2d_35">
      <path clip-path="url(#p16782cf669)" d="M 58.523438 17.083483 
L 393.323438 17.083483 
" style="fill:none;stroke:#b0b0b0;stroke-linecap:square;stroke-width:0.8;"/>
     </g>
     <g id="line2d_36">
      <g>
       <use style="stroke:#000000;stroke-width:0.8;" x="58.523438" xlink:href="#m439111d99e" y="17.083483"/>
      </g>
     </g>
     <g id="text_19">
      <!-- 1.00 -->
      <g transform="translate(29.257813 20.882702)scale(0.1 -0.1)">
       <use xlink:href="#DejaVuSans-31"/>
       <use x="63.623047" xlink:href="#DejaVuSans-2e"/>
       <use x="95.410156" xlink:href="#DejaVuSans-30"/>
       <use x="159.033203" xlink:href="#DejaVuSans-30"/>
      </g>
     </g>
    </g>
    <g id="text_20">
     <!-- [V] -->
     <g transform="translate(14.798438 123.241875)rotate(-90)scale(0.1 -0.1)">
      <defs>
       <path d="M 1831 0 
L 50 4666 
L 709 4666 
L 2188 738 
L 3669 4666 
L 4325 4666 
L 2547 0 
L 1831 0 
z
" id="DejaVuSans-56" transform="scale(0.015625)"/>
      </defs>
      <use xlink:href="#DejaVuSans-5b"/>
      <use x="39.013672" xlink:href="#DejaVuSans-56"/>
      <use x="107.421875" xlink:href="#DejaVuSans-5d"/>
     </g>
    </g>
   </g>
   <g id="line2d_37">
    <path clip-path="url(#p16782cf669)" d="M 73.741619 115.746118 
L 78.307393 79.374236 
L 80.742473 61.770738 
L 82.720975 49.044321 
L 84.395092 39.654436 
L 85.840921 32.710004 
L 87.134557 27.497998 
L 88.276 23.734487 
L 89.341348 20.959552 
L 90.254502 19.164826 
L 91.091561 18.002435 
L 91.776427 17.398977 
L 92.385197 17.126944 
L 92.993967 17.104472 
L 93.602737 17.331616 
L 94.211507 17.807803 
L 94.896373 18.639675 
L 95.657335 19.928576 
L 96.494394 21.78368 
L 97.483645 24.55477 
L 98.548992 28.219736 
L 99.766532 33.236782 
L 101.136264 39.87611 
L 102.658189 48.388608 
L 104.408402 59.485465 
L 106.463001 73.994856 
L 109.126369 94.52921 
L 118.181821 165.846507 
L 120.236419 179.531196 
L 121.986633 189.761918 
L 123.508558 197.413605 
L 124.87829 203.204304 
L 126.09583 207.417304 
L 127.161177 210.34699 
L 128.074332 212.277689 
L 128.91139 213.566725 
L 129.672353 214.334088 
L 130.281123 214.668428 
L 130.889892 214.75332 
L 131.498662 214.588551 
L 132.107432 214.174537 
L 132.792298 213.412171 
L 133.553261 212.199696 
L 134.390319 210.427334 
L 135.37957 207.751717 
L 136.444918 204.18607 
L 137.662457 199.277131 
L 139.03219 192.751239 
L 140.554114 184.352921 
L 142.304328 173.369695 
L 144.358926 158.966542 
L 146.946198 139.125751 
L 156.534324 63.865676 
L 158.512826 50.894301 
L 160.263039 40.852924 
L 161.784964 33.386799 
L 163.0786 28.05991 
L 164.29614 23.960263 
L 165.361487 21.133632 
L 166.274642 19.293508 
L 167.111701 18.088854 
L 167.796567 17.450501 
L 168.405337 17.147309 
L 169.014107 17.093625 
L 169.622876 17.289586 
L 170.231646 17.734695 
L 170.916512 18.53183 
L 171.677475 19.782542 
L 172.514533 21.596311 
L 173.503784 24.319718 
L 174.569132 27.935096 
L 175.786672 32.898187 
L 177.156404 39.480927 
L 178.678329 47.936501 
L 180.428542 58.976761 
L 182.48314 73.433318 
L 185.070412 93.318351 
L 194.430249 166.914441 
L 196.484848 180.476741 
L 198.235061 190.581632 
L 199.756986 198.109909 
L 201.126718 203.78009 
L 202.344258 207.879737 
L 203.409605 210.706368 
L 204.32276 212.546492 
L 205.159819 213.751146 
L 205.844685 214.389499 
L 206.453455 214.692691 
L 207.062224 214.746375 
L 207.670994 214.550414 
L 208.279764 214.105305 
L 208.96463 213.30817 
L 209.725593 212.057458 
L 210.562651 210.243689 
L 211.551902 207.520282 
L 212.61725 203.904904 
L 213.834789 198.941813 
L 215.204522 192.359073 
L 216.726446 183.903499 
L 218.47666 172.863239 
L 220.531258 158.406682 
L 223.11853 138.521649 
L 232.478367 64.925559 
L 234.532966 51.363259 
L 236.283179 41.258368 
L 237.805104 33.730091 
L 239.174836 28.05991 
L 240.392376 23.960263 
L 241.457723 21.133632 
L 242.370878 19.293508 
L 243.207937 18.088854 
L 243.892803 17.450501 
L 244.501573 17.147309 
L 245.110342 17.093625 
L 245.719112 17.289586 
L 246.327882 17.734695 
L 247.012748 18.53183 
L 247.773711 19.782542 
L 248.610769 21.596311 
L 249.60002 24.319718 
L 250.665368 27.935096 
L 251.882907 32.898187 
L 253.25264 39.480927 
L 254.774564 47.936501 
L 256.524778 58.976761 
L 258.579376 73.433318 
L 261.166648 93.318351 
L 270.526485 166.914441 
L 272.581084 180.476741 
L 274.331297 190.581632 
L 275.853222 198.109909 
L 277.222954 203.78009 
L 278.440494 207.879737 
L 279.505841 210.706368 
L 280.418996 212.546492 
L 281.256054 213.751146 
L 281.940921 214.389499 
L 282.54969 214.692691 
L 283.15846 214.746375 
L 283.76723 214.550414 
L 284.376 214.105305 
L 285.060866 213.30817 
L 285.821829 212.057458 
L 286.658887 210.243689 
L 287.648138 207.520282 
L 288.713486 203.904904 
L 289.931025 198.941813 
L 291.300758 192.359073 
L 292.822682 183.903499 
L 294.572896 172.863239 
L 296.627494 158.406682 
L 299.214766 138.521649 
L 308.574603 64.925559 
L 310.629201 51.363259 
L 312.379415 41.258368 
L 313.90134 33.730091 
L 315.271072 28.05991 
L 316.488612 23.960263 
L 317.553959 21.133632 
L 318.467114 19.293508 
L 319.304172 18.088854 
L 319.989038 17.450501 
L 320.597808 17.147309 
L 321.206578 17.093625 
L 321.815348 17.289586 
L 322.424118 17.734695 
L 323.108984 18.53183 
L 323.869946 19.782542 
L 324.707005 21.596311 
L 325.696256 24.319718 
L 326.761603 27.935096 
L 327.979143 32.898187 
L 329.348875 39.480927 
L 330.8708 47.936501 
L 332.621014 58.976761 
L 334.675612 73.433318 
L 337.262884 93.318351 
L 346.622721 166.914441 
L 348.677319 180.476741 
L 350.427533 190.581632 
L 351.949458 198.109909 
L 353.31919 203.78009 
L 354.53673 207.879737 
L 355.602077 210.706368 
L 356.515232 212.546492 
L 357.35229 213.751146 
L 358.037156 214.389499 
L 358.645926 214.692691 
L 359.254696 214.746375 
L 359.863466 214.550414 
L 360.472236 214.105305 
L 361.157102 213.30817 
L 361.918064 212.057458 
L 362.755123 210.243689 
L 363.744374 207.520282 
L 364.809721 203.904904 
L 366.027261 198.941813 
L 367.396993 192.359073 
L 368.918918 183.903499 
L 370.669132 172.863239 
L 372.72373 158.406682 
L 375.311002 138.521649 
L 378.105256 115.92 
L 378.105256 115.92 
" style="fill:none;stroke:#008000;stroke-linecap:square;stroke-width:1.5;"/>
   </g>
   <g id="line2d_38">
    <path clip-path="url(#p16782cf669)" d="M 73.741619 101.664365 
L 75.263544 101.656293 
L 76.861565 101.876801 
L 78.459586 102.326843 
L 80.133703 103.035291 
L 81.883917 104.020961 
L 83.786322 105.354506 
L 85.840921 107.068883 
L 88.199904 109.335181 
L 91.091561 112.445422 
L 95.733431 117.829697 
L 99.842628 122.468318 
L 102.353804 124.985557 
L 104.484499 126.817363 
L 106.310808 128.111464 
L 107.984925 129.042741 
L 109.582946 129.684816 
L 111.104871 130.060531 
L 112.5507 130.198526 
L 113.996528 130.121432 
L 115.518453 129.809945 
L 117.040378 129.268308 
L 118.638398 128.462975 
L 120.388612 127.321685 
L 122.291018 125.804186 
L 124.421712 123.811761 
L 127.008984 121.069532 
L 130.7377 116.749817 
L 136.292725 110.337201 
L 138.956093 107.614479 
L 141.162884 105.661091 
L 143.141386 104.1968 
L 144.967696 103.118049 
L 146.641813 102.378219 
L 148.239834 101.905273 
L 149.837855 101.666306 
L 151.35978 101.658231 
L 152.957801 101.878737 
L 154.555822 102.328776 
L 156.229939 103.037221 
L 157.980152 104.022887 
L 159.882558 105.356428 
L 161.937157 107.070802 
L 164.29614 109.337095 
L 167.187797 112.447332 
L 171.829667 117.831602 
L 175.938864 122.470225 
L 178.45004 124.987466 
L 180.580734 126.819276 
L 182.407044 128.113378 
L 184.081161 129.044658 
L 185.679182 129.686735 
L 187.201107 130.062452 
L 188.646935 130.200448 
L 190.092764 130.123357 
L 191.614689 129.811871 
L 193.136613 129.270235 
L 194.734634 128.464903 
L 196.484848 127.323614 
L 198.387254 125.806117 
L 200.517948 123.813693 
L 203.10522 121.071465 
L 206.833936 116.751751 
L 212.388961 110.339134 
L 215.052329 107.616411 
L 217.25912 105.663021 
L 219.237622 104.198729 
L 221.063932 103.119976 
L 222.738049 102.380145 
L 224.33607 101.907197 
L 225.934091 101.668228 
L 227.456016 101.660151 
L 229.054037 101.880655 
L 230.652058 102.330691 
L 232.326175 103.039133 
L 234.076388 104.024795 
L 235.978794 105.358333 
L 238.033392 107.072702 
L 240.392376 109.338991 
L 243.284033 112.449223 
L 247.925903 117.83349 
L 252.0351 122.472114 
L 254.546276 124.989358 
L 256.67697 126.82117 
L 258.50328 128.115275 
L 260.177397 129.046557 
L 261.775418 129.688636 
L 263.297343 130.064355 
L 264.743171 130.202353 
L 266.189 130.125263 
L 267.710924 129.813779 
L 269.232849 129.272145 
L 270.83087 128.466814 
L 272.581084 127.325526 
L 274.483489 125.80803 
L 276.614184 123.815607 
L 279.201456 121.07338 
L 282.930172 116.753666 
L 288.485197 110.341048 
L 291.148565 107.618325 
L 293.355356 105.664934 
L 295.333858 104.200641 
L 297.160168 103.121886 
L 298.834285 102.382053 
L 300.432306 101.909103 
L 302.030327 101.670132 
L 303.552252 101.662053 
L 305.150272 101.882554 
L 306.748293 102.332588 
L 308.422411 103.041027 
L 310.172624 104.026686 
L 312.07503 105.36022 
L 314.129628 107.074585 
L 316.488612 109.340869 
L 319.380269 112.451097 
L 324.022139 117.835361 
L 328.131336 122.473986 
L 330.642511 124.991233 
L 332.773206 126.823047 
L 334.599516 128.117154 
L 336.273633 129.048438 
L 337.871654 129.69052 
L 339.393579 130.06624 
L 340.839407 130.20424 
L 342.285236 130.127152 
L 343.80716 129.815669 
L 345.329085 129.274036 
L 346.927106 128.468707 
L 348.677319 127.32742 
L 350.579725 125.809925 
L 352.71042 123.817503 
L 355.297692 121.075277 
L 359.026407 116.755564 
L 364.581433 110.342946 
L 367.244801 107.620221 
L 369.451592 105.666829 
L 371.430094 104.202534 
L 373.256404 103.123778 
L 374.930521 102.383944 
L 376.528542 101.910992 
L 378.105256 101.673653 
L 378.105256 101.673653 
" style="fill:none;stroke:#0000ff;stroke-linecap:square;stroke-width:1.5;"/>
   </g>
   <g id="patch_3">
    <path d="M 58.523438 224.64 
L 58.523438 7.2 
" style="fill:none;stroke:#000000;stroke-linecap:square;stroke-linejoin:miter;stroke-width:0.8;"/>
   </g>
   <g id="patch_4">
    <path d="M 393.323438 224.64 
L 393.323438 7.2 
" style="fill:none;stroke:#000000;stroke-linecap:square;stroke-linejoin:miter;stroke-width:0.8;"/>
   </g>
   <g id="patch_5">
    <path d="M 58.523438 224.64 
L 393.323438 224.64 
" style="fill:none;stroke:#000000;stroke-linecap:square;stroke-linejoin:miter;stroke-width:0.8;"/>
   </g>
   <g id="patch_6">
    <path d="M 58.523438 7.2 
L 393.323438 7.2 
" style="fill:none;stroke:#000000;stroke-linecap:square;stroke-linejoin:miter;stroke-width:0.8;"/>
   </g>
   <g id="text_21">
    <!-- single pole low pass filter -->
    <g transform="translate(149.755313 262.128)scale(0.12 -0.12)">
     <defs>
      <path d="M 603 3500 
L 1178 3500 
L 1178 0 
L 603 0 
L 603 3500 
z
M 603 4863 
L 1178 4863 
L 1178 4134 
L 603 4134 
L 603 4863 
z
" id="DejaVuSans-69" transform="scale(0.015625)"/>
      <path d="M 3513 2113 
L 3513 0 
L 2938 0 
L 2938 2094 
Q 2938 2591 2744 2837 
Q 2550 3084 2163 3084 
Q 1697 3084 1428 2787 
Q 1159 2491 1159 1978 
L 1159 0 
L 581 0 
L 581 3500 
L 1159 3500 
L 1159 2956 
Q 1366 3272 1645 3428 
Q 1925 3584 2291 3584 
Q 2894 3584 3203 3211 
Q 3513 2838 3513 2113 
z
" id="DejaVuSans-6e" transform="scale(0.015625)"/>
      <path d="M 2906 1791 
Q 2906 2416 2648 2759 
Q 2391 3103 1925 3103 
Q 1463 3103 1205 2759 
Q 947 2416 947 1791 
Q 947 1169 1205 825 
Q 1463 481 1925 481 
Q 2391 481 2648 825 
Q 2906 1169 2906 1791 
z
M 3481 434 
Q 3481 -459 3084 -895 
Q 2688 -1331 1869 -1331 
Q 1566 -1331 1297 -1286 
Q 1028 -1241 775 -1147 
L 775 -588 
Q 1028 -725 1275 -790 
Q 1522 -856 1778 -856 
Q 2344 -856 2625 -561 
Q 2906 -266 2906 331 
L 2906 616 
Q 2728 306 2450 153 
Q 2172 0 1784 0 
Q 1141 0 747 490 
Q 353 981 353 1791 
Q 353 2603 747 3093 
Q 1141 3584 1784 3584 
Q 2172 3584 2450 3431 
Q 2728 3278 2906 2969 
L 2906 3500 
L 3481 3500 
L 3481 434 
z
" id="DejaVuSans-67" transform="scale(0.015625)"/>
      <path d="M 603 4863 
L 1178 4863 
L 1178 0 
L 603 0 
L 603 4863 
z
" id="DejaVuSans-6c" transform="scale(0.015625)"/>
      <path d="M 3597 1894 
L 3597 1613 
L 953 1613 
Q 991 1019 1311 708 
Q 1631 397 2203 397 
Q 2534 397 2845 478 
Q 3156 559 3463 722 
L 3463 178 
Q 3153 47 2828 -22 
Q 2503 -91 2169 -91 
Q 1331 -91 842 396 
Q 353 884 353 1716 
Q 353 2575 817 3079 
Q 1281 3584 2069 3584 
Q 2775 3584 3186 3129 
Q 3597 2675 3597 1894 
z
M 3022 2063 
Q 3016 2534 2758 2815 
Q 2500 3097 2075 3097 
Q 1594 3097 1305 2825 
Q 1016 2553 972 2059 
L 3022 2063 
z
" id="DejaVuSans-65" transform="scale(0.015625)"/>
      <path d="M 1159 525 
L 1159 -1331 
L 581 -1331 
L 581 3500 
L 1159 3500 
L 1159 2969 
Q 1341 3281 1617 3432 
Q 1894 3584 2278 3584 
Q 2916 3584 3314 3078 
Q 3713 2572 3713 1747 
Q 3713 922 3314 415 
Q 2916 -91 2278 -91 
Q 1894 -91 1617 61 
Q 1341 213 1159 525 
z
M 3116 1747 
Q 3116 2381 2855 2742 
Q 2594 3103 2138 3103 
Q 1681 3103 1420 2742 
Q 1159 2381 1159 1747 
Q 1159 1113 1420 752 
Q 1681 391 2138 391 
Q 2594 391 2855 752 
Q 3116 1113 3116 1747 
z
" id="DejaVuSans-70" transform="scale(0.015625)"/>
      <path d="M 1959 3097 
Q 1497 3097 1228 2736 
Q 959 2375 959 1747 
Q 959 1119 1226 758 
Q 1494 397 1959 397 
Q 2419 397 2687 759 
Q 2956 1122 2956 1747 
Q 2956 2369 2687 2733 
Q 2419 3097 1959 3097 
z
M 1959 3584 
Q 2709 3584 3137 3096 
Q 3566 2609 3566 1747 
Q 3566 888 3137 398 
Q 2709 -91 1959 -91 
Q 1206 -91 779 398 
Q 353 888 353 1747 
Q 353 2609 779 3096 
Q 1206 3584 1959 3584 
z
" id="DejaVuSans-6f" transform="scale(0.015625)"/>
      <path d="M 269 3500 
L 844 3500 
L 1563 769 
L 2278 3500 
L 2956 3500 
L 3675 769 
L 4391 3500 
L 4966 3500 
L 4050 0 
L 3372 0 
L 2619 2869 
L 1863 0 
L 1184 0 
L 269 3500 
z
" id="DejaVuSans-77" transform="scale(0.015625)"/>
      <path d="M 2194 1759 
Q 1497 1759 1228 1600 
Q 959 1441 959 1056 
Q 959 750 1161 570 
Q 1363 391 1709 391 
Q 2188 391 2477 730 
Q 2766 1069 2766 1631 
L 2766 1759 
L 2194 1759 
z
M 3341 1997 
L 3341 0 
L 2766 0 
L 2766 531 
Q 2569 213 2275 61 
Q 1981 -91 1556 -91 
Q 1019 -91 701 211 
Q 384 513 384 1019 
Q 384 1609 779 1909 
Q 1175 2209 1959 2209 
L 2766 2209 
L 2766 2266 
Q 2766 2663 2505 2880 
Q 2244 3097 1772 3097 
Q 1472 3097 1187 3025 
Q 903 2953 641 2809 
L 641 3341 
Q 956 3463 1253 3523 
Q 1550 3584 1831 3584 
Q 2591 3584 2966 3190 
Q 3341 2797 3341 1997 
z
" id="DejaVuSans-61" transform="scale(0.015625)"/>
      <path d="M 2375 4863 
L 2375 4384 
L 1825 4384 
Q 1516 4384 1395 4259 
Q 1275 4134 1275 3809 
L 1275 3500 
L 2222 3500 
L 2222 3053 
L 1275 3053 
L 1275 0 
L 697 0 
L 697 3053 
L 147 3053 
L 147 3500 
L 697 3500 
L 697 3744 
Q 697 4328 969 4595 
Q 1241 4863 1831 4863 
L 2375 4863 
z
" id="DejaVuSans-66" transform="scale(0.015625)"/>
      <path d="M 2631 2963 
Q 2534 3019 2420 3045 
Q 2306 3072 2169 3072 
Q 1681 3072 1420 2755 
Q 1159 2438 1159 1844 
L 1159 0 
L 581 0 
L 581 3500 
L 1159 3500 
L 1159 2956 
Q 1341 3275 1631 3429 
Q 1922 3584 2338 3584 
Q 2397 3584 2469 3576 
Q 2541 3569 2628 3553 
L 2631 2963 
z
" id="DejaVuSans-72" transform="scale(0.015625)"/>
     </defs>
     <use xlink:href="#DejaVuSans-73"/>
     <use x="52.099609" xlink:href="#DejaVuSans-69"/>
     <use x="79.882812" xlink:href="#DejaVuSans-6e"/>
     <use x="143.261719" xlink:href="#DejaVuSans-67"/>
     <use x="206.738281" xlink:href="#DejaVuSans-6c"/>
     <use x="234.521484" xlink:href="#DejaVuSans-65"/>
     <use x="296.044922" xlink:href="#DejaVuSans-20"/>
     <use x="327.832031" xlink:href="#DejaVuSans-70"/>
     <use x="391.308594" xlink:href="#DejaVuSans-6f"/>
     <use x="452.490234" xlink:href="#DejaVuSans-6c"/>
     <use x="480.273438" xlink:href="#DejaVuSans-65"/>
     <use x="541.796875" xlink:href="#DejaVuSans-20"/>
     <use x="573.583984" xlink:href="#DejaVuSans-6c"/>
     <use x="601.367188" xlink:href="#DejaVuSans-6f"/>
     <use x="662.548828" xlink:href="#DejaVuSans-77"/>
     <use x="744.335938" xlink:href="#DejaVuSans-20"/>
     <use x="776.123047" xlink:href="#DejaVuSans-70"/>
     <use x="839.599609" xlink:href="#DejaVuSans-61"/>
     <use x="900.878906" xlink:href="#DejaVuSans-73"/>
     <use x="952.978516" xlink:href="#DejaVuSans-73"/>
     <use x="1005.078125" xlink:href="#DejaVuSans-20"/>
     <use x="1036.865234" xlink:href="#DejaVuSans-66"/>
     <use x="1072.070312" xlink:href="#DejaVuSans-69"/>
     <use x="1099.853516" xlink:href="#DejaVuSans-6c"/>
     <use x="1127.636719" xlink:href="#DejaVuSans-74"/>
     <use x="1166.845703" xlink:href="#DejaVuSans-65"/>
     <use x="1228.369141" xlink:href="#DejaVuSans-72"/>
    </g>
   </g>
  </g>
 </g>
 <defs>
  <clipPath id="p16782cf669">
   <rect height="217.44" width="334.8" x="58.523438" y="7.2"/>
  </clipPath>
 </defs>
</svg>
