<?xml version="1.0" encoding="utf-8" standalone="no"?>
<!DOCTYPE svg PUBLIC "-//W3C//DTD SVG 1.1//EN"
  "http://www.w3.org/Graphics/SVG/1.1/DTD/svg11.dtd">
<svg height="310.234pt" version="1.1" viewBox="0 0 516.6276 310.234" width="516.6276pt" xmlns="http://www.w3.org/2000/svg" xmlns:xlink="http://www.w3.org/1999/xlink">
 <metadata>
  <rdf:RDF xmlns:cc="http://creativecommons.org/ns#" xmlns:dc="http://purl.org/dc/elements/1.1/" xmlns:rdf="http://www.w3.org/1999/02/22-rdf-syntax-ns#">
   <cc:Work>
    <dc:type rdf:resource="http://purl.org/dc/dcmitype/StillImage"/>
    <dc:date>2021-05-25T09:13:20.887034</dc:date>
    <dc:format>image/svg+xml</dc:format>
    <dc:creator>
     <cc:Agent>
      <dc:title>Matplotlib v3.4.2, https://matplotlib.org/</dc:title>
     </cc:Agent>
    </dc:creator>
   </cc:Work>
  </rdf:RDF>
 </metadata>
 <defs>
  <style type="text/css">*{stroke-linecap:butt;stroke-linejoin:round;}</style>
 </defs>
 <g id="figure_1">
  <g id="patch_1">
   <path d="M 0 310.234 
L 516.6276 310.234 
L 516.6276 0 
L 0 0 
z
" style="fill:none;"/>
  </g>
  <g id="axes_1">
   <g id="patch_2">
    <path clip-path="url(#p586a13e3ec)" d="M 294.1668 207.562 
C 295.140626 207.562 296.074697 207.175095 296.763296 206.486496 
C 297.451895 205.797897 297.8388 204.863826 297.8388 203.89 
C 297.8388 202.916174 297.451895 201.982103 296.763296 201.293504 
C 296.074697 200.604905 295.140626 200.218 294.1668 200.218 
C 293.192974 200.218 292.258903 200.604905 291.570304 201.293504 
C 290.881705 201.982103 290.4948 202.916174 290.4948 203.89 
C 290.4948 204.863826 290.881705 205.797897 291.570304 206.486496 
C 292.258903 207.175095 293.192974 207.562 294.1668 207.562 
z
" style="fill:none;stroke:#000000;stroke-linejoin:miter;stroke-width:0.9;"/>
   </g>
   <g id="line2d_1">
    <path clip-path="url(#p586a13e3ec)" d="M 30.2418 203.89 
L 39.8043 203.89 
L 49.3668 203.89 
" style="fill:none;stroke:#000000;stroke-linecap:round;stroke-width:0.9;"/>
   </g>
   <g id="line2d_2">
    <path clip-path="url(#p586a13e3ec)" d="M 49.3668 203.89 
L 72.3168 203.89 
L 74.8668 196.24 
L 79.9668 211.54 
L 85.0668 196.24 
L 90.1668 211.54 
L 95.2668 196.24 
L 100.3668 211.54 
L 102.9168 203.89 
L 125.8668 203.89 
" style="fill:none;stroke:#000000;stroke-linecap:round;stroke-width:0.9;"/>
   </g>
   <g id="line2d_3">
    <path clip-path="url(#p586a13e3ec)" d="M 125.8668 203.89 
L 161.3628 203.89 
M 161.3628 196.24 
L 161.3628 211.54 
M 166.8708 196.24 
L 166.8708 211.54 
M 166.8708 203.89 
L 202.3668 203.89 
" style="fill:none;stroke:#000000;stroke-linecap:round;stroke-width:0.9;"/>
   </g>
   <g id="line2d_4">
    <path clip-path="url(#p586a13e3ec)" d="M 202.3668 203.89 
L 221.4918 203.89 
L 240.6168 203.89 
" style="fill:none;stroke:#000000;stroke-linecap:round;stroke-width:0.9;"/>
   </g>
   <g id="line2d_5">
    <path clip-path="url(#p586a13e3ec)" d="M 240.6168 203.89 
L 259.8948 203.89 
L 270.6048 203.89 
M 297.8388 203.89 
L 317.1168 203.89 
" style="fill:none;stroke:#000000;stroke-linecap:round;stroke-width:0.9;"/>
   </g>
   <g id="line2d_6">
    <path clip-path="url(#p586a13e3ec)" d="M 297.8388 203.89 
L 301.2048 203.89 
" style="fill:none;stroke:#000000;stroke-linecap:round;stroke-width:0.9;"/>
   </g>
   <g id="line2d_7">
    <path clip-path="url(#p586a13e3ec)" d="M 270.6048 203.89 
L 270.6048 219.19 
L 290.4948 203.89 
L 270.6048 188.59 
L 270.6048 203.89 
" style="fill:none;stroke:#000000;stroke-linecap:round;stroke-width:0.9;"/>
   </g>
   <g id="line2d_8">
    <path clip-path="url(#p586a13e3ec)" d="M 317.1168 203.89 
L 336.2418 203.89 
L 355.3668 203.89 
" style="fill:none;stroke:#000000;stroke-linecap:round;stroke-width:0.9;"/>
   </g>
   <g id="line2d_9">
    <path clip-path="url(#p586a13e3ec)" d="M 355.3668 203.89 
L 390.8628 203.89 
M 390.8628 196.24 
L 390.8628 211.54 
M 396.3708 196.24 
L 396.3708 211.54 
M 396.3708 203.89 
L 431.8668 203.89 
" style="fill:none;stroke:#000000;stroke-linecap:round;stroke-width:0.9;"/>
   </g>
   <g id="line2d_10">
    <path clip-path="url(#p586a13e3ec)" d="M 431.8668 203.89 
L 431.8668 226.84 
L 439.5168 229.39 
L 424.2168 234.49 
L 439.5168 239.59 
L 424.2168 244.69 
L 439.5168 249.79 
L 424.2168 254.89 
L 431.8668 257.44 
L 431.8668 280.39 
" style="fill:none;stroke:#000000;stroke-linecap:round;stroke-width:0.9;"/>
   </g>
   <g id="line2d_11">
    <path clip-path="url(#p586a13e3ec)" d="M 431.8668 280.39 
L 431.8668 292.63 
L 424.2168 292.63 
L 439.5168 292.63 
M 426.5118 296.302 
L 437.2218 296.302 
M 430.3368 299.974 
L 433.3968 299.974 
" style="fill:none;stroke:#000000;stroke-linecap:round;stroke-width:0.9;"/>
   </g>
   <g id="line2d_12">
    <path clip-path="url(#p586a13e3ec)" d="M 202.3668 203.89 
L 202.3668 127.39 
L 202.3668 50.89 
" style="fill:none;stroke:#000000;stroke-linecap:round;stroke-width:0.9;"/>
   </g>
   <g id="line2d_13">
    <path clip-path="url(#p586a13e3ec)" d="M 202.3668 50.89 
L 225.3168 50.89 
L 227.8668 43.24 
L 232.9668 58.54 
L 238.0668 43.24 
L 243.1668 58.54 
L 248.2668 43.24 
L 253.3668 58.54 
L 255.9168 50.89 
L 278.8668 50.89 
" style="fill:none;stroke:#000000;stroke-linecap:round;stroke-width:0.9;"/>
   </g>
   <g id="line2d_14">
    <path clip-path="url(#p586a13e3ec)" d="M 278.8668 50.89 
L 301.8168 50.89 
L 304.3668 43.24 
L 309.4668 58.54 
L 314.5668 43.24 
L 319.6668 58.54 
L 324.7668 43.24 
L 329.8668 58.54 
L 332.4168 50.89 
L 355.3668 50.89 
" style="fill:none;stroke:#000000;stroke-linecap:round;stroke-width:0.9;"/>
   </g>
   <g id="line2d_15">
    <path clip-path="url(#p586a13e3ec)" d="M 355.3668 50.89 
L 355.3668 127.39 
L 355.3668 203.89 
" style="fill:none;stroke:#000000;stroke-linecap:round;stroke-width:0.9;"/>
   </g>
   <g id="line2d_16">
    <path clip-path="url(#p586a13e3ec)" d="M 278.8668 50.89 
L 278.8668 86.386 
M 286.5168 86.386 
L 271.2168 86.386 
M 286.5168 91.894 
L 271.2168 91.894 
M 278.8668 91.894 
L 278.8668 127.39 
" style="fill:none;stroke:#000000;stroke-linecap:round;stroke-width:0.9;"/>
   </g>
   <g id="line2d_17">
    <path clip-path="url(#p586a13e3ec)" d="M 278.8668 127.39 
L 278.8668 139.63 
L 271.2168 139.63 
L 286.5168 139.63 
M 273.5118 143.302 
L 284.2218 143.302 
M 277.3368 146.974 
L 280.3968 146.974 
" style="fill:none;stroke:#000000;stroke-linecap:round;stroke-width:0.9;"/>
   </g>
   <g id="line2d_18">
    <path clip-path="url(#p586a13e3ec)" d="M 431.8668 203.89 
L 450.9918 203.89 
L 470.1168 203.89 
" style="fill:none;stroke:#000000;stroke-linecap:round;stroke-width:0.9;"/>
   </g>
   <g id="text_1">
    <!-- $R_1$ -->
    <g transform="translate(79.4268 174.5915)scale(0.14 -0.14)">
     <defs>
      <path d="M 1613 4147 
L 1294 2491 
L 2106 2491 
Q 2584 2491 2879 2755 
Q 3175 3019 3175 3444 
Q 3175 3784 2976 3965 
Q 2778 4147 2406 4147 
L 1613 4147 
z
M 2772 2241 
Q 2972 2194 3105 2009 
Q 3238 1825 3413 1275 
L 3809 0 
L 3144 0 
L 2778 1197 
Q 2638 1659 2453 1815 
Q 2269 1972 1888 1972 
L 1191 1972 
L 806 0 
L 172 0 
L 1081 4666 
L 2503 4666 
Q 3150 4666 3495 4373 
Q 3841 4081 3841 3531 
Q 3841 3044 3547 2687 
Q 3253 2331 2772 2241 
z
" id="DejaVuSans-Oblique-52" transform="scale(0.015625)"/>
      <path d="M 794 531 
L 1825 531 
L 1825 4091 
L 703 3866 
L 703 4441 
L 1819 4666 
L 2450 4666 
L 2450 531 
L 3481 531 
L 3481 0 
L 794 0 
L 794 531 
z
" id="DejaVuSans-31" transform="scale(0.015625)"/>
     </defs>
     <use transform="translate(0 0.09375)" xlink:href="#DejaVuSans-Oblique-52"/>
     <use transform="translate(69.482422 -16.3125)scale(0.7)" xlink:href="#DejaVuSans-31"/>
    </g>
    <!-- 10k -->
    <g transform="translate(74.655862 190.268437)scale(0.14 -0.14)">
     <defs>
      <path d="M 2034 4250 
Q 1547 4250 1301 3770 
Q 1056 3291 1056 2328 
Q 1056 1369 1301 889 
Q 1547 409 2034 409 
Q 2525 409 2770 889 
Q 3016 1369 3016 2328 
Q 3016 3291 2770 3770 
Q 2525 4250 2034 4250 
z
M 2034 4750 
Q 2819 4750 3233 4129 
Q 3647 3509 3647 2328 
Q 3647 1150 3233 529 
Q 2819 -91 2034 -91 
Q 1250 -91 836 529 
Q 422 1150 422 2328 
Q 422 3509 836 4129 
Q 1250 4750 2034 4750 
z
" id="DejaVuSans-30" transform="scale(0.015625)"/>
      <path d="M 581 4863 
L 1159 4863 
L 1159 1991 
L 2875 3500 
L 3609 3500 
L 1753 1863 
L 3688 0 
L 2938 0 
L 1159 1709 
L 1159 0 
L 581 0 
L 581 4863 
z
" id="DejaVuSans-6b" transform="scale(0.015625)"/>
     </defs>
     <use xlink:href="#DejaVuSans-31"/>
     <use x="63.623047" xlink:href="#DejaVuSans-30"/>
     <use x="127.246094" xlink:href="#DejaVuSans-6b"/>
    </g>
   </g>
   <g id="text_2">
    <!-- $C_1$ -->
    <g transform="translate(155.8568 174.5915)scale(0.14 -0.14)">
     <defs>
      <path d="M 4447 4306 
L 4319 3641 
Q 4019 3944 3683 4091 
Q 3347 4238 2956 4238 
Q 2422 4238 2017 3981 
Q 1613 3725 1319 3200 
Q 1131 2863 1032 2486 
Q 934 2109 934 1728 
Q 934 1091 1264 756 
Q 1594 422 2222 422 
Q 2656 422 3056 561 
Q 3456 700 3834 978 
L 3688 231 
Q 3316 72 2936 -9 
Q 2556 -91 2175 -91 
Q 1278 -91 773 396 
Q 269 884 269 1753 
Q 269 2309 461 2846 
Q 653 3384 1013 3828 
Q 1394 4300 1883 4525 
Q 2372 4750 3022 4750 
Q 3422 4750 3780 4639 
Q 4138 4528 4447 4306 
z
" id="DejaVuSans-Oblique-43" transform="scale(0.015625)"/>
     </defs>
     <use transform="translate(0 0.78125)" xlink:href="#DejaVuSans-Oblique-43"/>
     <use transform="translate(69.824219 -15.625)scale(0.7)" xlink:href="#DejaVuSans-31"/>
    </g>
    <!-- 18n -->
    <g transform="translate(150.77305 190.268437)scale(0.14 -0.14)">
     <defs>
      <path d="M 2034 2216 
Q 1584 2216 1326 1975 
Q 1069 1734 1069 1313 
Q 1069 891 1326 650 
Q 1584 409 2034 409 
Q 2484 409 2743 651 
Q 3003 894 3003 1313 
Q 3003 1734 2745 1975 
Q 2488 2216 2034 2216 
z
M 1403 2484 
Q 997 2584 770 2862 
Q 544 3141 544 3541 
Q 544 4100 942 4425 
Q 1341 4750 2034 4750 
Q 2731 4750 3128 4425 
Q 3525 4100 3525 3541 
Q 3525 3141 3298 2862 
Q 3072 2584 2669 2484 
Q 3125 2378 3379 2068 
Q 3634 1759 3634 1313 
Q 3634 634 3220 271 
Q 2806 -91 2034 -91 
Q 1263 -91 848 271 
Q 434 634 434 1313 
Q 434 1759 690 2068 
Q 947 2378 1403 2484 
z
M 1172 3481 
Q 1172 3119 1398 2916 
Q 1625 2713 2034 2713 
Q 2441 2713 2670 2916 
Q 2900 3119 2900 3481 
Q 2900 3844 2670 4047 
Q 2441 4250 2034 4250 
Q 1625 4250 1398 4047 
Q 1172 3844 1172 3481 
z
" id="DejaVuSans-38" transform="scale(0.015625)"/>
      <path d="M 3513 2113 
L 3513 0 
L 2938 0 
L 2938 2094 
Q 2938 2591 2744 2837 
Q 2550 3084 2163 3084 
Q 1697 3084 1428 2787 
Q 1159 2491 1159 1978 
L 1159 0 
L 581 0 
L 581 3500 
L 1159 3500 
L 1159 2956 
Q 1366 3272 1645 3428 
Q 1925 3584 2291 3584 
Q 2894 3584 3203 3211 
Q 3513 2838 3513 2113 
z
" id="DejaVuSans-6e" transform="scale(0.015625)"/>
     </defs>
     <use xlink:href="#DejaVuSans-31"/>
     <use x="63.623047" xlink:href="#DejaVuSans-38"/>
     <use x="127.246094" xlink:href="#DejaVuSans-6e"/>
    </g>
   </g>
   <g id="text_3">
    <!-- $C_3$ -->
    <g transform="translate(385.3568 174.5915)scale(0.14 -0.14)">
     <defs>
      <path d="M 2597 2516 
Q 3050 2419 3304 2112 
Q 3559 1806 3559 1356 
Q 3559 666 3084 287 
Q 2609 -91 1734 -91 
Q 1441 -91 1130 -33 
Q 819 25 488 141 
L 488 750 
Q 750 597 1062 519 
Q 1375 441 1716 441 
Q 2309 441 2620 675 
Q 2931 909 2931 1356 
Q 2931 1769 2642 2001 
Q 2353 2234 1838 2234 
L 1294 2234 
L 1294 2753 
L 1863 2753 
Q 2328 2753 2575 2939 
Q 2822 3125 2822 3475 
Q 2822 3834 2567 4026 
Q 2313 4219 1838 4219 
Q 1578 4219 1281 4162 
Q 984 4106 628 3988 
L 628 4550 
Q 988 4650 1302 4700 
Q 1616 4750 1894 4750 
Q 2613 4750 3031 4423 
Q 3450 4097 3450 3541 
Q 3450 3153 3228 2886 
Q 3006 2619 2597 2516 
z
" id="DejaVuSans-33" transform="scale(0.015625)"/>
     </defs>
     <use transform="translate(0 0.78125)" xlink:href="#DejaVuSans-Oblique-43"/>
     <use transform="translate(69.824219 -15.625)scale(0.7)" xlink:href="#DejaVuSans-33"/>
    </g>
    <!-- 100n -->
    <g transform="translate(375.8193 190.268437)scale(0.14 -0.14)">
     <use xlink:href="#DejaVuSans-31"/>
     <use x="63.623047" xlink:href="#DejaVuSans-30"/>
     <use x="127.246094" xlink:href="#DejaVuSans-30"/>
     <use x="190.869141" xlink:href="#DejaVuSans-6e"/>
    </g>
   </g>
   <g id="text_4">
    <!-- $R_l$ -->
    <g transform="translate(408.2768 238.164656)scale(0.14 -0.14)">
     <defs>
      <path d="M 1172 4863 
L 1747 4863 
L 800 0 
L 225 0 
L 1172 4863 
z
" id="DejaVuSans-Oblique-6c" transform="scale(0.015625)"/>
     </defs>
     <use transform="translate(0 0.09375)" xlink:href="#DejaVuSans-Oblique-52"/>
     <use transform="translate(69.482422 -16.3125)scale(0.7)" xlink:href="#DejaVuSans-Oblique-6c"/>
    </g>
    <!-- 100k -->
    <g transform="translate(386.327425 253.841594)scale(0.14 -0.14)">
     <use xlink:href="#DejaVuSans-31"/>
     <use x="63.623047" xlink:href="#DejaVuSans-30"/>
     <use x="127.246094" xlink:href="#DejaVuSans-30"/>
     <use x="190.869141" xlink:href="#DejaVuSans-6b"/>
    </g>
   </g>
   <g id="text_5">
    <!-- $R_2$ -->
    <g transform="translate(232.4268 21.5915)scale(0.14 -0.14)">
     <defs>
      <path d="M 1228 531 
L 3431 531 
L 3431 0 
L 469 0 
L 469 531 
Q 828 903 1448 1529 
Q 2069 2156 2228 2338 
Q 2531 2678 2651 2914 
Q 2772 3150 2772 3378 
Q 2772 3750 2511 3984 
Q 2250 4219 1831 4219 
Q 1534 4219 1204 4116 
Q 875 4013 500 3803 
L 500 4441 
Q 881 4594 1212 4672 
Q 1544 4750 1819 4750 
Q 2544 4750 2975 4387 
Q 3406 4025 3406 3419 
Q 3406 3131 3298 2873 
Q 3191 2616 2906 2266 
Q 2828 2175 2409 1742 
Q 1991 1309 1228 531 
z
" id="DejaVuSans-32" transform="scale(0.015625)"/>
     </defs>
     <use transform="translate(0 0.09375)" xlink:href="#DejaVuSans-Oblique-52"/>
     <use transform="translate(69.482422 -16.3125)scale(0.7)" xlink:href="#DejaVuSans-32"/>
    </g>
    <!-- 270k -->
    <g transform="translate(223.202112 37.268437)scale(0.14 -0.14)">
     <defs>
      <path d="M 525 4666 
L 3525 4666 
L 3525 4397 
L 1831 0 
L 1172 0 
L 2766 4134 
L 525 4134 
L 525 4666 
z
" id="DejaVuSans-37" transform="scale(0.015625)"/>
     </defs>
     <use xlink:href="#DejaVuSans-32"/>
     <use x="63.623047" xlink:href="#DejaVuSans-37"/>
     <use x="127.246094" xlink:href="#DejaVuSans-30"/>
     <use x="190.869141" xlink:href="#DejaVuSans-6b"/>
    </g>
   </g>
   <g id="text_6">
    <!-- $R_3$ -->
    <g transform="translate(308.9268 21.5915)scale(0.14 -0.14)">
     <use transform="translate(0 0.09375)" xlink:href="#DejaVuSans-Oblique-52"/>
     <use transform="translate(69.482422 -16.3125)scale(0.7)" xlink:href="#DejaVuSans-33"/>
    </g>
    <!-- 270k -->
    <g transform="translate(299.702112 37.268437)scale(0.14 -0.14)">
     <use xlink:href="#DejaVuSans-32"/>
     <use x="63.623047" xlink:href="#DejaVuSans-37"/>
     <use x="127.246094" xlink:href="#DejaVuSans-30"/>
     <use x="190.869141" xlink:href="#DejaVuSans-6b"/>
    </g>
   </g>
   <g id="text_7">
    <!-- $C_2$ -->
    <g transform="translate(251.6368 85.164656)scale(0.14 -0.14)">
     <use transform="translate(0 0.78125)" xlink:href="#DejaVuSans-Oblique-43"/>
     <use transform="translate(69.824219 -15.625)scale(0.7)" xlink:href="#DejaVuSans-32"/>
    </g>
    <!-- 1n -->
    <g transform="translate(250.3768 100.841594)scale(0.14 -0.14)">
     <use xlink:href="#DejaVuSans-31"/>
     <use x="63.623047" xlink:href="#DejaVuSans-6e"/>
    </g>
   </g>
   <g id="patch_3">
    <path clip-path="url(#p586a13e3ec)" d="M 30.2418 206.185 
C 30.850441 206.185 31.434236 205.943184 31.86461 205.51281 
C 32.294984 205.082436 32.5368 204.498641 32.5368 203.89 
C 32.5368 203.281359 32.294984 202.697564 31.86461 202.26719 
C 31.434236 201.836816 30.850441 201.595 30.2418 201.595 
C 29.633159 201.595 29.049364 201.836816 28.61899 202.26719 
C 28.188616 202.697564 27.9468 203.281359 27.9468 203.89 
C 27.9468 204.498641 28.188616 205.082436 28.61899 205.51281 
C 29.049364 205.943184 29.633159 206.185 30.2418 206.185 
z
" style="fill:#ffffff;stroke:#000000;stroke-linejoin:miter;stroke-width:0.9;"/>
   </g>
   <g id="patch_4">
    <path clip-path="url(#p586a13e3ec)" d="M 202.3668 206.185 
C 202.975441 206.185 203.559236 205.943184 203.98961 205.51281 
C 204.419984 205.082436 204.6618 204.498641 204.6618 203.89 
C 204.6618 203.281359 204.419984 202.697564 203.98961 202.26719 
C 203.559236 201.836816 202.975441 201.595 202.3668 201.595 
C 201.758159 201.595 201.174364 201.836816 200.74399 202.26719 
C 200.313616 202.697564 200.0718 203.281359 200.0718 203.89 
C 200.0718 204.498641 200.313616 205.082436 200.74399 205.51281 
C 201.174364 205.943184 201.758159 206.185 202.3668 206.185 
z
" style="stroke:#000000;stroke-linejoin:miter;stroke-width:0.9;"/>
   </g>
   <g id="patch_5">
    <path clip-path="url(#p586a13e3ec)" d="M 278.8668 53.185 
C 279.475441 53.185 280.059236 52.943184 280.48961 52.51281 
C 280.919984 52.082436 281.1618 51.498641 281.1618 50.89 
C 281.1618 50.281359 280.919984 49.697564 280.48961 49.26719 
C 280.059236 48.836816 279.475441 48.595 278.8668 48.595 
C 278.258159 48.595 277.674364 48.836816 277.24399 49.26719 
C 276.813616 49.697564 276.5718 50.281359 276.5718 50.89 
C 276.5718 51.498641 276.813616 52.082436 277.24399 52.51281 
C 277.674364 52.943184 278.258159 53.185 278.8668 53.185 
z
" style="stroke:#000000;stroke-linejoin:miter;stroke-width:0.9;"/>
   </g>
   <g id="patch_6">
    <path clip-path="url(#p586a13e3ec)" d="M 355.3668 206.185 
C 355.975441 206.185 356.559236 205.943184 356.98961 205.51281 
C 357.419984 205.082436 357.6618 204.498641 357.6618 203.89 
C 357.6618 203.281359 357.419984 202.697564 356.98961 202.26719 
C 356.559236 201.836816 355.975441 201.595 355.3668 201.595 
C 354.758159 201.595 354.174364 201.836816 353.74399 202.26719 
C 353.313616 202.697564 353.0718 203.281359 353.0718 203.89 
C 353.0718 204.498641 353.313616 205.082436 353.74399 205.51281 
C 354.174364 205.943184 354.758159 206.185 355.3668 206.185 
z
" style="stroke:#000000;stroke-linejoin:miter;stroke-width:0.9;"/>
   </g>
   <g id="patch_7">
    <path clip-path="url(#p586a13e3ec)" d="M 431.8668 206.185 
C 432.475441 206.185 433.059236 205.943184 433.48961 205.51281 
C 433.919984 205.082436 434.1618 204.498641 434.1618 203.89 
C 434.1618 203.281359 433.919984 202.697564 433.48961 202.26719 
C 433.059236 201.836816 432.475441 201.595 431.8668 201.595 
C 431.258159 201.595 430.674364 201.836816 430.24399 202.26719 
C 429.813616 202.697564 429.5718 203.281359 429.5718 203.89 
C 429.5718 204.498641 429.813616 205.082436 430.24399 205.51281 
C 430.674364 205.943184 431.258159 206.185 431.8668 206.185 
z
" style="stroke:#000000;stroke-linejoin:miter;stroke-width:0.9;"/>
   </g>
   <g id="patch_8">
    <path clip-path="url(#p586a13e3ec)" d="M 470.1168 206.185 
C 470.725441 206.185 471.309236 205.943184 471.73961 205.51281 
C 472.169984 205.082436 472.4118 204.498641 472.4118 203.89 
C 472.4118 203.281359 472.169984 202.697564 471.73961 202.26719 
C 471.309236 201.836816 470.725441 201.595 470.1168 201.595 
C 469.508159 201.595 468.924364 201.836816 468.49399 202.26719 
C 468.063616 202.697564 467.8218 203.281359 467.8218 203.89 
C 467.8218 204.498641 468.063616 205.082436 468.49399 205.51281 
C 468.924364 205.943184 469.508159 206.185 470.1168 206.185 
z
" style="fill:#ffffff;stroke:#000000;stroke-linejoin:miter;stroke-width:0.9;"/>
   </g>
   <g id="text_8">
    <!-- $IN$ -->
    <g transform="translate(10.1868 207.753125)scale(0.14 -0.14)">
     <defs>
      <path d="M 1081 4666 
L 1716 4666 
L 806 0 
L 172 0 
L 1081 4666 
z
" id="DejaVuSans-Oblique-49" transform="scale(0.015625)"/>
      <path d="M 1081 4666 
L 1931 4666 
L 3219 666 
L 4000 4666 
L 4616 4666 
L 3706 0 
L 2853 0 
L 1569 4025 
L 788 0 
L 172 0 
L 1081 4666 
z
" id="DejaVuSans-Oblique-4e" transform="scale(0.015625)"/>
     </defs>
     <use transform="translate(0 0.09375)" xlink:href="#DejaVuSans-Oblique-49"/>
     <use transform="translate(29.492188 0.09375)" xlink:href="#DejaVuSans-Oblique-4e"/>
    </g>
   </g>
   <g id="text_9">
    <!-- $OUT$ -->
    <g transform="translate(475.4718 207.753125)scale(0.14 -0.14)">
     <defs>
      <path d="M 2919 4238 
Q 2400 4238 2003 3986 
Q 1606 3734 1313 3219 
Q 1125 2891 1026 2522 
Q 928 2153 928 1778 
Q 928 1128 1239 775 
Q 1550 422 2119 422 
Q 2631 422 3032 676 
Q 3434 931 3719 1434 
Q 3909 1772 4009 2142 
Q 4109 2513 4109 2881 
Q 4109 3528 3796 3883 
Q 3484 4238 2919 4238 
z
M 2100 -91 
Q 1241 -91 748 418 
Q 256 928 256 1813 
Q 256 2319 448 2847 
Q 641 3375 978 3788 
Q 1375 4272 1862 4511 
Q 2350 4750 2938 4750 
Q 3794 4750 4287 4245 
Q 4781 3741 4781 2869 
Q 4781 2331 4593 1812 
Q 4406 1294 4056 872 
Q 3656 384 3173 146 
Q 2691 -91 2100 -91 
z
" id="DejaVuSans-Oblique-4f" transform="scale(0.015625)"/>
      <path d="M 991 4666 
L 1625 4666 
L 1075 1831 
Q 1041 1641 1027 1517 
Q 1013 1394 1013 1300 
Q 1013 869 1253 645 
Q 1494 422 1959 422 
Q 2563 422 2898 753 
Q 3234 1084 3378 1831 
L 3928 4666 
L 4563 4666 
L 4000 1753 
Q 3816 809 3300 359 
Q 2784 -91 1888 -91 
Q 1188 -91 780 261 
Q 372 613 372 1216 
Q 372 1325 387 1461 
Q 403 1597 434 1753 
L 991 4666 
z
" id="DejaVuSans-Oblique-55" transform="scale(0.015625)"/>
      <path d="M 378 4666 
L 4325 4666 
L 4225 4134 
L 2559 4134 
L 1759 0 
L 1125 0 
L 1925 4134 
L 275 4134 
L 378 4666 
z
" id="DejaVuSans-Oblique-54" transform="scale(0.015625)"/>
     </defs>
     <use transform="translate(0 0.78125)" xlink:href="#DejaVuSans-Oblique-4f"/>
     <use transform="translate(78.710938 0.78125)" xlink:href="#DejaVuSans-Oblique-55"/>
     <use transform="translate(151.904297 0.78125)" xlink:href="#DejaVuSans-Oblique-54"/>
    </g>
   </g>
  </g>
 </g>
 <defs>
  <clipPath id="p586a13e3ec">
   <rect height="295.834" width="502.2276" x="7.2" y="7.2"/>
  </clipPath>
 </defs>
</svg>
