<?xml version="1.0" encoding="utf-8" standalone="no"?>
<!DOCTYPE svg PUBLIC "-//W3C//DTD SVG 1.1//EN"
  "http://www.w3.org/Graphics/SVG/1.1/DTD/svg11.dtd">
<!-- Created with matplotlib (https://matplotlib.org/) -->
<svg height="310.234pt" version="1.1" viewBox="0 0 363.6276 310.234" width="363.6276pt" xmlns="http://www.w3.org/2000/svg" xmlns:xlink="http://www.w3.org/1999/xlink">
 <metadata>
  <rdf:RDF xmlns:cc="http://creativecommons.org/ns#" xmlns:dc="http://purl.org/dc/elements/1.1/" xmlns:rdf="http://www.w3.org/1999/02/22-rdf-syntax-ns#">
   <cc:Work>
    <dc:type rdf:resource="http://purl.org/dc/dcmitype/StillImage"/>
    <dc:date>2021-02-21T13:55:26.365133</dc:date>
    <dc:format>image/svg+xml</dc:format>
    <dc:creator>
     <cc:Agent>
      <dc:title>Matplotlib v3.3.4, https://matplotlib.org/</dc:title>
     </cc:Agent>
    </dc:creator>
   </cc:Work>
  </rdf:RDF>
 </metadata>
 <defs>
  <style type="text/css">*{stroke-linecap:butt;stroke-linejoin:round;}</style>
 </defs>
 <g id="figure_1">
  <g id="patch_1">
   <path d="M 0 310.234 
L 363.6276 310.234 
L 363.6276 0 
L 0 0 
z
" style="fill:none;"/>
  </g>
  <g id="axes_1">
   <g id="patch_2">
    <path clip-path="url(#p97146d41e0)" d="M 179.4168 207.562 
C 180.390626 207.562 181.324697 207.175095 182.013296 206.486496 
C 182.701895 205.797897 183.0888 204.863826 183.0888 203.89 
C 183.0888 202.916174 182.701895 201.982103 182.013296 201.293504 
C 181.324697 200.604905 180.390626 200.218 179.4168 200.218 
C 178.442974 200.218 177.508903 200.604905 176.820304 201.293504 
C 176.131705 201.982103 175.7448 202.916174 175.7448 203.89 
C 175.7448 204.863826 176.131705 205.797897 176.820304 206.486496 
C 177.508903 207.175095 178.442974 207.562 179.4168 207.562 
z
" style="fill:none;stroke:#000000;stroke-linejoin:miter;stroke-width:0.9;"/>
   </g>
   <g id="line2d_1">
    <path clip-path="url(#p97146d41e0)" d="M 30.2418 203.89 
L 39.8043 203.89 
L 49.3668 203.89 
" style="fill:none;stroke:#000000;stroke-linecap:round;stroke-width:0.9;"/>
   </g>
   <g id="line2d_2">
    <path clip-path="url(#p97146d41e0)" d="M 49.3668 203.89 
L 72.3168 203.89 
L 74.8668 196.24 
L 79.9668 211.54 
L 85.0668 196.24 
L 90.1668 211.54 
L 95.2668 196.24 
L 100.3668 211.54 
L 102.9168 203.89 
L 125.8668 203.89 
" style="fill:none;stroke:#000000;stroke-linecap:round;stroke-width:0.9;"/>
   </g>
   <g id="line2d_3">
    <path clip-path="url(#p97146d41e0)" d="M 125.8668 203.89 
L 145.1448 203.89 
L 155.8548 203.89 
M 183.0888 203.89 
L 202.3668 203.89 
" style="fill:none;stroke:#000000;stroke-linecap:round;stroke-width:0.9;"/>
   </g>
   <g id="line2d_4">
    <path clip-path="url(#p97146d41e0)" d="M 183.0888 203.89 
L 186.4548 203.89 
" style="fill:none;stroke:#000000;stroke-linecap:round;stroke-width:0.9;"/>
   </g>
   <g id="line2d_5">
    <path clip-path="url(#p97146d41e0)" d="M 155.8548 203.89 
L 155.8548 219.19 
L 175.7448 203.89 
L 155.8548 188.59 
L 155.8548 203.89 
" style="fill:none;stroke:#000000;stroke-linecap:round;stroke-width:0.9;"/>
   </g>
   <g id="line2d_6">
    <path clip-path="url(#p97146d41e0)" d="M 202.3668 203.89 
L 237.8628 203.89 
M 237.8628 196.24 
L 237.8628 211.54 
M 243.3708 196.24 
L 243.3708 211.54 
M 243.3708 203.89 
L 278.8668 203.89 
" style="fill:none;stroke:#000000;stroke-linecap:round;stroke-width:0.9;"/>
   </g>
   <g id="line2d_7">
    <path clip-path="url(#p97146d41e0)" d="M 278.8668 203.89 
L 278.8668 226.84 
L 286.5168 229.39 
L 271.2168 234.49 
L 286.5168 239.59 
L 271.2168 244.69 
L 286.5168 249.79 
L 271.2168 254.89 
L 278.8668 257.44 
L 278.8668 280.39 
" style="fill:none;stroke:#000000;stroke-linecap:round;stroke-width:0.9;"/>
   </g>
   <g id="line2d_8">
    <path clip-path="url(#p97146d41e0)" d="M 278.8668 280.39 
L 278.8668 292.63 
L 271.2168 292.63 
L 286.5168 292.63 
M 273.5118 296.302 
L 284.2218 296.302 
M 277.3368 299.974 
L 280.3968 299.974 
" style="fill:none;stroke:#000000;stroke-linecap:round;stroke-width:0.9;"/>
   </g>
   <g id="line2d_9">
    <path clip-path="url(#p97146d41e0)" d="M 125.8668 203.89 
L 125.8668 165.64 
L 125.8668 127.39 
" style="fill:none;stroke:#000000;stroke-linecap:round;stroke-width:0.9;"/>
   </g>
   <g id="line2d_10">
    <path clip-path="url(#p97146d41e0)" d="M 125.8668 127.39 
L 148.8168 127.39 
L 151.3668 119.74 
L 156.4668 135.04 
L 161.5668 119.74 
L 166.6668 135.04 
L 171.7668 119.74 
L 176.8668 135.04 
L 179.4168 127.39 
L 202.3668 127.39 
" style="fill:none;stroke:#000000;stroke-linecap:round;stroke-width:0.9;"/>
   </g>
   <g id="line2d_11">
    <path clip-path="url(#p97146d41e0)" d="M 202.3668 127.39 
L 202.3668 165.64 
L 202.3668 203.89 
" style="fill:none;stroke:#000000;stroke-linecap:round;stroke-width:0.9;"/>
   </g>
   <g id="line2d_12">
    <path clip-path="url(#p97146d41e0)" d="M 125.8668 203.89 
L 125.8668 127.39 
L 125.8668 50.89 
" style="fill:none;stroke:#000000;stroke-linecap:round;stroke-width:0.9;"/>
   </g>
   <g id="line2d_13">
    <path clip-path="url(#p97146d41e0)" d="M 125.8668 50.89 
L 161.3628 50.89 
M 161.3628 43.24 
L 161.3628 58.54 
M 166.8708 43.24 
L 166.8708 58.54 
M 166.8708 50.89 
L 202.3668 50.89 
" style="fill:none;stroke:#000000;stroke-linecap:round;stroke-width:0.9;"/>
   </g>
   <g id="line2d_14">
    <path clip-path="url(#p97146d41e0)" d="M 202.3668 50.89 
L 202.3668 127.39 
L 202.3668 203.89 
" style="fill:none;stroke:#000000;stroke-linecap:round;stroke-width:0.9;"/>
   </g>
   <g id="line2d_15">
    <path clip-path="url(#p97146d41e0)" d="M 278.8668 203.89 
L 297.9918 203.89 
L 317.1168 203.89 
" style="fill:none;stroke:#000000;stroke-linecap:round;stroke-width:0.9;"/>
   </g>
   <g id="text_1">
    <!-- $R_1$ -->
    <g transform="translate(79.4268 174.5915)scale(0.14 -0.14)">
     <defs>
      <path d="M 25.203125 64.796875 
L 20.21875 38.921875 
L 32.90625 38.921875 
Q 40.375 38.921875 44.984375 43.046875 
Q 49.609375 47.171875 49.609375 53.8125 
Q 49.609375 59.125 46.5 61.953125 
Q 43.40625 64.796875 37.59375 64.796875 
z
M 43.3125 35.015625 
Q 46.4375 34.28125 48.515625 31.390625 
Q 50.59375 28.515625 53.328125 19.921875 
L 59.515625 0 
L 49.125 0 
L 43.40625 18.703125 
Q 41.21875 25.921875 38.328125 28.359375 
Q 35.453125 30.8125 29.5 30.8125 
L 18.609375 30.8125 
L 12.59375 0 
L 2.6875 0 
L 16.890625 72.90625 
L 39.109375 72.90625 
Q 49.21875 72.90625 54.609375 68.328125 
Q 60.015625 63.765625 60.015625 55.171875 
Q 60.015625 47.5625 55.421875 41.984375 
Q 50.828125 36.421875 43.3125 35.015625 
z
" id="DejaVuSans-Oblique-82"/>
      <path d="M 12.40625 8.296875 
L 28.515625 8.296875 
L 28.515625 63.921875 
L 10.984375 60.40625 
L 10.984375 69.390625 
L 28.421875 72.90625 
L 38.28125 72.90625 
L 38.28125 8.296875 
L 54.390625 8.296875 
L 54.390625 0 
L 12.40625 0 
z
" id="DejaVuSans-49"/>
     </defs>
     <use transform="translate(0 0.09375)" xlink:href="#DejaVuSans-Oblique-82"/>
     <use transform="translate(69.482422 -16.3125)scale(0.7)" xlink:href="#DejaVuSans-49"/>
    </g>
    <!-- 100k -->
    <g transform="translate(70.202113 190.268437)scale(0.14 -0.14)">
     <defs>
      <path d="M 31.78125 66.40625 
Q 24.171875 66.40625 20.328125 58.90625 
Q 16.5 51.421875 16.5 36.375 
Q 16.5 21.390625 20.328125 13.890625 
Q 24.171875 6.390625 31.78125 6.390625 
Q 39.453125 6.390625 43.28125 13.890625 
Q 47.125 21.390625 47.125 36.375 
Q 47.125 51.421875 43.28125 58.90625 
Q 39.453125 66.40625 31.78125 66.40625 
z
M 31.78125 74.21875 
Q 44.046875 74.21875 50.515625 64.515625 
Q 56.984375 54.828125 56.984375 36.375 
Q 56.984375 17.96875 50.515625 8.265625 
Q 44.046875 -1.421875 31.78125 -1.421875 
Q 19.53125 -1.421875 13.0625 8.265625 
Q 6.59375 17.96875 6.59375 36.375 
Q 6.59375 54.828125 13.0625 64.515625 
Q 19.53125 74.21875 31.78125 74.21875 
z
" id="DejaVuSans-48"/>
      <path d="M 9.078125 75.984375 
L 18.109375 75.984375 
L 18.109375 31.109375 
L 44.921875 54.6875 
L 56.390625 54.6875 
L 27.390625 29.109375 
L 57.625 0 
L 45.90625 0 
L 18.109375 26.703125 
L 18.109375 0 
L 9.078125 0 
z
" id="DejaVuSans-107"/>
     </defs>
     <use xlink:href="#DejaVuSans-49"/>
     <use x="63.623047" xlink:href="#DejaVuSans-48"/>
     <use x="127.246094" xlink:href="#DejaVuSans-48"/>
     <use x="190.869141" xlink:href="#DejaVuSans-107"/>
    </g>
   </g>
   <g id="text_2">
    <!-- $C_3$ -->
    <g transform="translate(232.3568 174.5915)scale(0.14 -0.14)">
     <defs>
      <path d="M 69.484375 67.28125 
L 67.484375 56.890625 
Q 62.796875 61.625 57.546875 63.921875 
Q 52.296875 66.21875 46.1875 66.21875 
Q 37.84375 66.21875 31.515625 62.203125 
Q 25.203125 58.203125 20.609375 50 
Q 17.671875 44.734375 16.125 38.84375 
Q 14.59375 32.953125 14.59375 27 
Q 14.59375 17.046875 19.75 11.8125 
Q 24.90625 6.59375 34.71875 6.59375 
Q 41.5 6.59375 47.75 8.765625 
Q 54 10.9375 59.90625 15.28125 
L 57.625 3.609375 
Q 51.8125 1.125 45.875 -0.140625 
Q 39.9375 -1.421875 33.984375 -1.421875 
Q 19.96875 -1.421875 12.078125 6.1875 
Q 4.203125 13.8125 4.203125 27.390625 
Q 4.203125 36.078125 7.203125 44.46875 
Q 10.203125 52.875 15.828125 59.8125 
Q 21.78125 67.1875 29.421875 70.703125 
Q 37.0625 74.21875 47.21875 74.21875 
Q 53.46875 74.21875 59.0625 72.484375 
Q 64.65625 70.75 69.484375 67.28125 
z
" id="DejaVuSans-Oblique-67"/>
      <path d="M 40.578125 39.3125 
Q 47.65625 37.796875 51.625 33 
Q 55.609375 28.21875 55.609375 21.1875 
Q 55.609375 10.40625 48.1875 4.484375 
Q 40.765625 -1.421875 27.09375 -1.421875 
Q 22.515625 -1.421875 17.65625 -0.515625 
Q 12.796875 0.390625 7.625 2.203125 
L 7.625 11.71875 
Q 11.71875 9.328125 16.59375 8.109375 
Q 21.484375 6.890625 26.8125 6.890625 
Q 36.078125 6.890625 40.9375 10.546875 
Q 45.796875 14.203125 45.796875 21.1875 
Q 45.796875 27.640625 41.28125 31.265625 
Q 36.765625 34.90625 28.71875 34.90625 
L 20.21875 34.90625 
L 20.21875 43.015625 
L 29.109375 43.015625 
Q 36.375 43.015625 40.234375 45.921875 
Q 44.09375 48.828125 44.09375 54.296875 
Q 44.09375 59.90625 40.109375 62.90625 
Q 36.140625 65.921875 28.71875 65.921875 
Q 24.65625 65.921875 20.015625 65.03125 
Q 15.375 64.15625 9.8125 62.3125 
L 9.8125 71.09375 
Q 15.4375 72.65625 20.34375 73.4375 
Q 25.25 74.21875 29.59375 74.21875 
Q 40.828125 74.21875 47.359375 69.109375 
Q 53.90625 64.015625 53.90625 55.328125 
Q 53.90625 49.265625 50.4375 45.09375 
Q 46.96875 40.921875 40.578125 39.3125 
z
" id="DejaVuSans-51"/>
     </defs>
     <use transform="translate(0 0.78125)" xlink:href="#DejaVuSans-Oblique-67"/>
     <use transform="translate(69.824219 -15.625)scale(0.7)" xlink:href="#DejaVuSans-51"/>
    </g>
    <!-- 10u -->
    <g transform="translate(227.27305 190.268437)scale(0.14 -0.14)">
     <defs>
      <path d="M 8.5 21.578125 
L 8.5 54.6875 
L 17.484375 54.6875 
L 17.484375 21.921875 
Q 17.484375 14.15625 20.5 10.265625 
Q 23.53125 6.390625 29.59375 6.390625 
Q 36.859375 6.390625 41.078125 11.03125 
Q 45.3125 15.671875 45.3125 23.6875 
L 45.3125 54.6875 
L 54.296875 54.6875 
L 54.296875 0 
L 45.3125 0 
L 45.3125 8.40625 
Q 42.046875 3.421875 37.71875 1 
Q 33.40625 -1.421875 27.6875 -1.421875 
Q 18.265625 -1.421875 13.375 4.4375 
Q 8.5 10.296875 8.5 21.578125 
z
M 31.109375 56 
z
" id="DejaVuSans-117"/>
     </defs>
     <use xlink:href="#DejaVuSans-49"/>
     <use x="63.623047" xlink:href="#DejaVuSans-48"/>
     <use x="127.246094" xlink:href="#DejaVuSans-117"/>
    </g>
   </g>
   <g id="text_3">
    <!-- $R_l$ -->
    <g transform="translate(255.2768 238.164656)scale(0.14 -0.14)">
     <defs>
      <path d="M 18.3125 75.984375 
L 27.296875 75.984375 
L 12.5 0 
L 3.515625 0 
z
" id="DejaVuSans-Oblique-108"/>
     </defs>
     <use transform="translate(0 0.09375)" xlink:href="#DejaVuSans-Oblique-82"/>
     <use transform="translate(69.482422 -16.3125)scale(0.7)" xlink:href="#DejaVuSans-Oblique-108"/>
    </g>
    <!-- 100k -->
    <g transform="translate(233.327425 253.841594)scale(0.14 -0.14)">
     <use xlink:href="#DejaVuSans-49"/>
     <use x="63.623047" xlink:href="#DejaVuSans-48"/>
     <use x="127.246094" xlink:href="#DejaVuSans-48"/>
     <use x="190.869141" xlink:href="#DejaVuSans-107"/>
    </g>
   </g>
   <g id="text_4">
    <!-- $R_2$ -->
    <g transform="translate(155.9268 98.0915)scale(0.14 -0.14)">
     <defs>
      <path d="M 19.1875 8.296875 
L 53.609375 8.296875 
L 53.609375 0 
L 7.328125 0 
L 7.328125 8.296875 
Q 12.9375 14.109375 22.625 23.890625 
Q 32.328125 33.6875 34.8125 36.53125 
Q 39.546875 41.84375 41.421875 45.53125 
Q 43.3125 49.21875 43.3125 52.78125 
Q 43.3125 58.59375 39.234375 62.25 
Q 35.15625 65.921875 28.609375 65.921875 
Q 23.96875 65.921875 18.8125 64.3125 
Q 13.671875 62.703125 7.8125 59.421875 
L 7.8125 69.390625 
Q 13.765625 71.78125 18.9375 73 
Q 24.125 74.21875 28.421875 74.21875 
Q 39.75 74.21875 46.484375 68.546875 
Q 53.21875 62.890625 53.21875 53.421875 
Q 53.21875 48.921875 51.53125 44.890625 
Q 49.859375 40.875 45.40625 35.40625 
Q 44.1875 33.984375 37.640625 27.21875 
Q 31.109375 20.453125 19.1875 8.296875 
z
" id="DejaVuSans-50"/>
     </defs>
     <use transform="translate(0 0.09375)" xlink:href="#DejaVuSans-Oblique-82"/>
     <use transform="translate(69.482422 -16.3125)scale(0.7)" xlink:href="#DejaVuSans-50"/>
    </g>
    <!-- 50k -->
    <g transform="translate(151.155863 113.768437)scale(0.14 -0.14)">
     <defs>
      <path d="M 10.796875 72.90625 
L 49.515625 72.90625 
L 49.515625 64.59375 
L 19.828125 64.59375 
L 19.828125 46.734375 
Q 21.96875 47.46875 24.109375 47.828125 
Q 26.265625 48.1875 28.421875 48.1875 
Q 40.625 48.1875 47.75 41.5 
Q 54.890625 34.8125 54.890625 23.390625 
Q 54.890625 11.625 47.5625 5.09375 
Q 40.234375 -1.421875 26.90625 -1.421875 
Q 22.3125 -1.421875 17.546875 -0.640625 
Q 12.796875 0.140625 7.71875 1.703125 
L 7.71875 11.625 
Q 12.109375 9.234375 16.796875 8.0625 
Q 21.484375 6.890625 26.703125 6.890625 
Q 35.15625 6.890625 40.078125 11.328125 
Q 45.015625 15.765625 45.015625 23.390625 
Q 45.015625 31 40.078125 35.4375 
Q 35.15625 39.890625 26.703125 39.890625 
Q 22.75 39.890625 18.8125 39.015625 
Q 14.890625 38.140625 10.796875 36.28125 
z
" id="DejaVuSans-53"/>
     </defs>
     <use xlink:href="#DejaVuSans-53"/>
     <use x="63.623047" xlink:href="#DejaVuSans-48"/>
     <use x="127.246094" xlink:href="#DejaVuSans-107"/>
    </g>
   </g>
   <g id="text_5">
    <!-- $C_1$ -->
    <g transform="translate(155.8568 21.5915)scale(0.14 -0.14)">
     <use transform="translate(0 0.78125)" xlink:href="#DejaVuSans-Oblique-67"/>
     <use transform="translate(69.824219 -15.625)scale(0.7)" xlink:href="#DejaVuSans-49"/>
    </g>
    <!-- 10n -->
    <g transform="translate(150.77305 37.268437)scale(0.14 -0.14)">
     <defs>
      <path d="M 54.890625 33.015625 
L 54.890625 0 
L 45.90625 0 
L 45.90625 32.71875 
Q 45.90625 40.484375 42.875 44.328125 
Q 39.84375 48.1875 33.796875 48.1875 
Q 26.515625 48.1875 22.3125 43.546875 
Q 18.109375 38.921875 18.109375 30.90625 
L 18.109375 0 
L 9.078125 0 
L 9.078125 54.6875 
L 18.109375 54.6875 
L 18.109375 46.1875 
Q 21.34375 51.125 25.703125 53.5625 
Q 30.078125 56 35.796875 56 
Q 45.21875 56 50.046875 50.171875 
Q 54.890625 44.34375 54.890625 33.015625 
z
" id="DejaVuSans-110"/>
     </defs>
     <use xlink:href="#DejaVuSans-49"/>
     <use x="63.623047" xlink:href="#DejaVuSans-48"/>
     <use x="127.246094" xlink:href="#DejaVuSans-110"/>
    </g>
   </g>
   <g id="patch_3">
    <path clip-path="url(#p97146d41e0)" d="M 30.2418 206.185 
C 30.850441 206.185 31.434236 205.943184 31.86461 205.51281 
C 32.294984 205.082436 32.5368 204.498641 32.5368 203.89 
C 32.5368 203.281359 32.294984 202.697564 31.86461 202.26719 
C 31.434236 201.836816 30.850441 201.595 30.2418 201.595 
C 29.633159 201.595 29.049364 201.836816 28.61899 202.26719 
C 28.188616 202.697564 27.9468 203.281359 27.9468 203.89 
C 27.9468 204.498641 28.188616 205.082436 28.61899 205.51281 
C 29.049364 205.943184 29.633159 206.185 30.2418 206.185 
z
" style="fill:#ffffff;stroke:#000000;stroke-linejoin:miter;stroke-width:0.9;"/>
   </g>
   <g id="patch_4">
    <path clip-path="url(#p97146d41e0)" d="M 125.8668 206.185 
C 126.475441 206.185 127.059236 205.943184 127.48961 205.51281 
C 127.919984 205.082436 128.1618 204.498641 128.1618 203.89 
C 128.1618 203.281359 127.919984 202.697564 127.48961 202.26719 
C 127.059236 201.836816 126.475441 201.595 125.8668 201.595 
C 125.258159 201.595 124.674364 201.836816 124.24399 202.26719 
C 123.813616 202.697564 123.5718 203.281359 123.5718 203.89 
C 123.5718 204.498641 123.813616 205.082436 124.24399 205.51281 
C 124.674364 205.943184 125.258159 206.185 125.8668 206.185 
z
" style="stroke:#000000;stroke-linejoin:miter;stroke-width:0.9;"/>
   </g>
   <g id="patch_5">
    <path clip-path="url(#p97146d41e0)" d="M 125.8668 129.685 
C 126.475441 129.685 127.059236 129.443184 127.48961 129.01281 
C 127.919984 128.582436 128.1618 127.998641 128.1618 127.39 
C 128.1618 126.781359 127.919984 126.197564 127.48961 125.76719 
C 127.059236 125.336816 126.475441 125.095 125.8668 125.095 
C 125.258159 125.095 124.674364 125.336816 124.24399 125.76719 
C 123.813616 126.197564 123.5718 126.781359 123.5718 127.39 
C 123.5718 127.998641 123.813616 128.582436 124.24399 129.01281 
C 124.674364 129.443184 125.258159 129.685 125.8668 129.685 
z
" style="stroke:#000000;stroke-linejoin:miter;stroke-width:0.9;"/>
   </g>
   <g id="patch_6">
    <path clip-path="url(#p97146d41e0)" d="M 202.3668 129.685 
C 202.975441 129.685 203.559236 129.443184 203.98961 129.01281 
C 204.419984 128.582436 204.6618 127.998641 204.6618 127.39 
C 204.6618 126.781359 204.419984 126.197564 203.98961 125.76719 
C 203.559236 125.336816 202.975441 125.095 202.3668 125.095 
C 201.758159 125.095 201.174364 125.336816 200.74399 125.76719 
C 200.313616 126.197564 200.0718 126.781359 200.0718 127.39 
C 200.0718 127.998641 200.313616 128.582436 200.74399 129.01281 
C 201.174364 129.443184 201.758159 129.685 202.3668 129.685 
z
" style="stroke:#000000;stroke-linejoin:miter;stroke-width:0.9;"/>
   </g>
   <g id="patch_7">
    <path clip-path="url(#p97146d41e0)" d="M 202.3668 206.185 
C 202.975441 206.185 203.559236 205.943184 203.98961 205.51281 
C 204.419984 205.082436 204.6618 204.498641 204.6618 203.89 
C 204.6618 203.281359 204.419984 202.697564 203.98961 202.26719 
C 203.559236 201.836816 202.975441 201.595 202.3668 201.595 
C 201.758159 201.595 201.174364 201.836816 200.74399 202.26719 
C 200.313616 202.697564 200.0718 203.281359 200.0718 203.89 
C 200.0718 204.498641 200.313616 205.082436 200.74399 205.51281 
C 201.174364 205.943184 201.758159 206.185 202.3668 206.185 
z
" style="stroke:#000000;stroke-linejoin:miter;stroke-width:0.9;"/>
   </g>
   <g id="patch_8">
    <path clip-path="url(#p97146d41e0)" d="M 125.8668 206.185 
C 126.475441 206.185 127.059236 205.943184 127.48961 205.51281 
C 127.919984 205.082436 128.1618 204.498641 128.1618 203.89 
C 128.1618 203.281359 127.919984 202.697564 127.48961 202.26719 
C 127.059236 201.836816 126.475441 201.595 125.8668 201.595 
C 125.258159 201.595 124.674364 201.836816 124.24399 202.26719 
C 123.813616 202.697564 123.5718 203.281359 123.5718 203.89 
C 123.5718 204.498641 123.813616 205.082436 124.24399 205.51281 
C 124.674364 205.943184 125.258159 206.185 125.8668 206.185 
z
" style="stroke:#000000;stroke-linejoin:miter;stroke-width:0.9;"/>
   </g>
   <g id="patch_9">
    <path clip-path="url(#p97146d41e0)" d="M 278.8668 206.185 
C 279.475441 206.185 280.059236 205.943184 280.48961 205.51281 
C 280.919984 205.082436 281.1618 204.498641 281.1618 203.89 
C 281.1618 203.281359 280.919984 202.697564 280.48961 202.26719 
C 280.059236 201.836816 279.475441 201.595 278.8668 201.595 
C 278.258159 201.595 277.674364 201.836816 277.24399 202.26719 
C 276.813616 202.697564 276.5718 203.281359 276.5718 203.89 
C 276.5718 204.498641 276.813616 205.082436 277.24399 205.51281 
C 277.674364 205.943184 278.258159 206.185 278.8668 206.185 
z
" style="stroke:#000000;stroke-linejoin:miter;stroke-width:0.9;"/>
   </g>
   <g id="patch_10">
    <path clip-path="url(#p97146d41e0)" d="M 317.1168 206.185 
C 317.725441 206.185 318.309236 205.943184 318.73961 205.51281 
C 319.169984 205.082436 319.4118 204.498641 319.4118 203.89 
C 319.4118 203.281359 319.169984 202.697564 318.73961 202.26719 
C 318.309236 201.836816 317.725441 201.595 317.1168 201.595 
C 316.508159 201.595 315.924364 201.836816 315.49399 202.26719 
C 315.063616 202.697564 314.8218 203.281359 314.8218 203.89 
C 314.8218 204.498641 315.063616 205.082436 315.49399 205.51281 
C 315.924364 205.943184 316.508159 206.185 317.1168 206.185 
z
" style="fill:#ffffff;stroke:#000000;stroke-linejoin:miter;stroke-width:0.9;"/>
   </g>
   <g id="text_6">
    <!-- $IN$ -->
    <g transform="translate(10.1868 207.753125)scale(0.14 -0.14)">
     <defs>
      <path d="M 16.890625 72.90625 
L 26.8125 72.90625 
L 12.59375 0 
L 2.6875 0 
z
" id="DejaVuSans-Oblique-73"/>
      <path d="M 16.890625 72.90625 
L 30.171875 72.90625 
L 50.296875 10.40625 
L 62.5 72.90625 
L 72.125 72.90625 
L 57.90625 0 
L 44.578125 0 
L 24.515625 62.890625 
L 12.3125 0 
L 2.6875 0 
z
" id="DejaVuSans-Oblique-78"/>
     </defs>
     <use transform="translate(0 0.09375)" xlink:href="#DejaVuSans-Oblique-73"/>
     <use transform="translate(29.492188 0.09375)" xlink:href="#DejaVuSans-Oblique-78"/>
    </g>
   </g>
   <g id="text_7">
    <!-- $OUT$ -->
    <g transform="translate(322.4718 207.753125)scale(0.14 -0.14)">
     <defs>
      <path d="M 45.609375 66.21875 
Q 37.5 66.21875 31.296875 62.28125 
Q 25.09375 58.34375 20.515625 50.296875 
Q 17.578125 45.171875 16.03125 39.40625 
Q 14.5 33.640625 14.5 27.78125 
Q 14.5 17.625 19.359375 12.109375 
Q 24.21875 6.59375 33.109375 6.59375 
Q 41.109375 6.59375 47.375 10.5625 
Q 53.65625 14.546875 58.109375 22.40625 
Q 61.078125 27.6875 62.640625 33.46875 
Q 64.203125 39.265625 64.203125 45.015625 
Q 64.203125 55.125 59.3125 60.671875 
Q 54.4375 66.21875 45.609375 66.21875 
z
M 32.8125 -1.421875 
Q 19.390625 -1.421875 11.6875 6.53125 
Q 4 14.5 4 28.328125 
Q 4 36.234375 7 44.484375 
Q 10.015625 52.734375 15.28125 59.1875 
Q 21.484375 66.75 29.09375 70.484375 
Q 36.71875 74.21875 45.90625 74.21875 
Q 59.28125 74.21875 66.984375 66.328125 
Q 74.703125 58.453125 74.703125 44.828125 
Q 74.703125 36.421875 71.765625 28.3125 
Q 68.84375 20.21875 63.375 13.625 
Q 57.125 6 49.578125 2.28125 
Q 42.046875 -1.421875 32.8125 -1.421875 
z
" id="DejaVuSans-Oblique-79"/>
      <path d="M 15.484375 72.90625 
L 25.390625 72.90625 
L 16.796875 28.609375 
Q 16.265625 25.640625 16.046875 23.703125 
Q 15.828125 21.78125 15.828125 20.3125 
Q 15.828125 13.578125 19.578125 10.078125 
Q 23.34375 6.59375 30.609375 6.59375 
Q 40.046875 6.59375 45.28125 11.765625 
Q 50.53125 16.9375 52.78125 28.609375 
L 61.375 72.90625 
L 71.296875 72.90625 
L 62.5 27.390625 
Q 59.625 12.640625 51.5625 5.609375 
Q 43.5 -1.421875 29.5 -1.421875 
Q 18.5625 -1.421875 12.1875 4.078125 
Q 5.8125 9.578125 5.8125 19 
Q 5.8125 20.703125 6.046875 22.828125 
Q 6.296875 24.953125 6.78125 27.390625 
z
" id="DejaVuSans-Oblique-85"/>
      <path d="M 5.90625 72.90625 
L 67.578125 72.90625 
L 66.015625 64.59375 
L 39.984375 64.59375 
L 27.484375 0 
L 17.578125 0 
L 30.078125 64.59375 
L 4.296875 64.59375 
z
" id="DejaVuSans-Oblique-84"/>
     </defs>
     <use transform="translate(0 0.78125)" xlink:href="#DejaVuSans-Oblique-79"/>
     <use transform="translate(78.710938 0.78125)" xlink:href="#DejaVuSans-Oblique-85"/>
     <use transform="translate(151.904297 0.78125)" xlink:href="#DejaVuSans-Oblique-84"/>
    </g>
   </g>
  </g>
 </g>
 <defs>
  <clipPath id="p97146d41e0">
   <rect height="295.834" width="349.2276" x="7.2" y="7.2"/>
  </clipPath>
 </defs>
</svg>
