<?xml version="1.0" encoding="utf-8" standalone="no"?>
<!DOCTYPE svg PUBLIC "-//W3C//DTD SVG 1.1//EN"
  "http://www.w3.org/Graphics/SVG/1.1/DTD/svg11.dtd">
<!-- Created with matplotlib (https://matplotlib.org/) -->
<svg height="276.35625pt" version="1.1" viewBox="0 0 568.457813 276.35625" width="568.457813pt" xmlns="http://www.w3.org/2000/svg" xmlns:xlink="http://www.w3.org/1999/xlink">
 <metadata>
  <rdf:RDF xmlns:cc="http://creativecommons.org/ns#" xmlns:dc="http://purl.org/dc/elements/1.1/" xmlns:rdf="http://www.w3.org/1999/02/22-rdf-syntax-ns#">
   <cc:Work>
    <dc:type rdf:resource="http://purl.org/dc/dcmitype/StillImage"/>
    <dc:date>2021-03-28T13:00:12.309737</dc:date>
    <dc:format>image/svg+xml</dc:format>
    <dc:creator>
     <cc:Agent>
      <dc:title>Matplotlib v3.3.4, https://matplotlib.org/</dc:title>
     </cc:Agent>
    </dc:creator>
   </cc:Work>
  </rdf:RDF>
 </metadata>
 <defs>
  <style type="text/css">*{stroke-linecap:butt;stroke-linejoin:round;}</style>
 </defs>
 <g id="figure_1">
  <g id="patch_1">
   <path d="M 0 276.35625 
L 568.457813 276.35625 
L 568.457813 0 
L 0 0 
z
" style="fill:none;"/>
  </g>
  <g id="axes_1">
   <g id="patch_2">
    <path d="M 48.982813 102.1 
L 561.257812 102.1 
L 561.257812 7.2 
L 48.982813 7.2 
z
" style="fill:#ffffff;"/>
   </g>
   <g id="matplotlib.axis_1">
    <g id="xtick_1">
     <g id="line2d_1">
      <defs>
       <path d="M 0 0 
L 0 3.5 
" id="ma3060d9d20" style="stroke:#000000;stroke-width:0.8;"/>
      </defs>
      <g>
       <use style="stroke:#000000;stroke-width:0.8;" x="72.255" xlink:href="#ma3060d9d20" y="102.1"/>
      </g>
     </g>
     <g id="text_1">
      <!-- 10 -->
      <g transform="translate(65.8925 116.698437)scale(0.1 -0.1)">
       <defs>
        <path d="M 12.40625 8.296875 
L 28.515625 8.296875 
L 28.515625 63.921875 
L 10.984375 60.40625 
L 10.984375 69.390625 
L 28.421875 72.90625 
L 38.28125 72.90625 
L 38.28125 8.296875 
L 54.390625 8.296875 
L 54.390625 0 
L 12.40625 0 
z
" id="DejaVuSans-49"/>
        <path d="M 31.78125 66.40625 
Q 24.171875 66.40625 20.328125 58.90625 
Q 16.5 51.421875 16.5 36.375 
Q 16.5 21.390625 20.328125 13.890625 
Q 24.171875 6.390625 31.78125 6.390625 
Q 39.453125 6.390625 43.28125 13.890625 
Q 47.125 21.390625 47.125 36.375 
Q 47.125 51.421875 43.28125 58.90625 
Q 39.453125 66.40625 31.78125 66.40625 
z
M 31.78125 74.21875 
Q 44.046875 74.21875 50.515625 64.515625 
Q 56.984375 54.828125 56.984375 36.375 
Q 56.984375 17.96875 50.515625 8.265625 
Q 44.046875 -1.421875 31.78125 -1.421875 
Q 19.53125 -1.421875 13.0625 8.265625 
Q 6.59375 17.96875 6.59375 36.375 
Q 6.59375 54.828125 13.0625 64.515625 
Q 19.53125 74.21875 31.78125 74.21875 
z
" id="DejaVuSans-48"/>
       </defs>
       <use xlink:href="#DejaVuSans-49"/>
       <use x="63.623047" xlink:href="#DejaVuSans-48"/>
      </g>
     </g>
    </g>
    <g id="xtick_2">
     <g id="line2d_2">
      <g>
       <use style="stroke:#000000;stroke-width:0.8;" x="165.398517" xlink:href="#ma3060d9d20" y="102.1"/>
      </g>
     </g>
     <g id="text_2">
      <!-- 12 -->
      <g transform="translate(159.036017 116.698437)scale(0.1 -0.1)">
       <defs>
        <path d="M 19.1875 8.296875 
L 53.609375 8.296875 
L 53.609375 0 
L 7.328125 0 
L 7.328125 8.296875 
Q 12.9375 14.109375 22.625 23.890625 
Q 32.328125 33.6875 34.8125 36.53125 
Q 39.546875 41.84375 41.421875 45.53125 
Q 43.3125 49.21875 43.3125 52.78125 
Q 43.3125 58.59375 39.234375 62.25 
Q 35.15625 65.921875 28.609375 65.921875 
Q 23.96875 65.921875 18.8125 64.3125 
Q 13.671875 62.703125 7.8125 59.421875 
L 7.8125 69.390625 
Q 13.765625 71.78125 18.9375 73 
Q 24.125 74.21875 28.421875 74.21875 
Q 39.75 74.21875 46.484375 68.546875 
Q 53.21875 62.890625 53.21875 53.421875 
Q 53.21875 48.921875 51.53125 44.890625 
Q 49.859375 40.875 45.40625 35.40625 
Q 44.1875 33.984375 37.640625 27.21875 
Q 31.109375 20.453125 19.1875 8.296875 
z
" id="DejaVuSans-50"/>
       </defs>
       <use xlink:href="#DejaVuSans-49"/>
       <use x="63.623047" xlink:href="#DejaVuSans-50"/>
      </g>
     </g>
    </g>
    <g id="xtick_3">
     <g id="line2d_3">
      <g>
       <use style="stroke:#000000;stroke-width:0.8;" x="258.542034" xlink:href="#ma3060d9d20" y="102.1"/>
      </g>
     </g>
     <g id="text_3">
      <!-- 14 -->
      <g transform="translate(252.179534 116.698437)scale(0.1 -0.1)">
       <defs>
        <path d="M 37.796875 64.3125 
L 12.890625 25.390625 
L 37.796875 25.390625 
z
M 35.203125 72.90625 
L 47.609375 72.90625 
L 47.609375 25.390625 
L 58.015625 25.390625 
L 58.015625 17.1875 
L 47.609375 17.1875 
L 47.609375 0 
L 37.796875 0 
L 37.796875 17.1875 
L 4.890625 17.1875 
L 4.890625 26.703125 
z
" id="DejaVuSans-52"/>
       </defs>
       <use xlink:href="#DejaVuSans-49"/>
       <use x="63.623047" xlink:href="#DejaVuSans-52"/>
      </g>
     </g>
    </g>
    <g id="xtick_4">
     <g id="line2d_4">
      <g>
       <use style="stroke:#000000;stroke-width:0.8;" x="351.685551" xlink:href="#ma3060d9d20" y="102.1"/>
      </g>
     </g>
     <g id="text_4">
      <!-- 16 -->
      <g transform="translate(345.323051 116.698437)scale(0.1 -0.1)">
       <defs>
        <path d="M 33.015625 40.375 
Q 26.375 40.375 22.484375 35.828125 
Q 18.609375 31.296875 18.609375 23.390625 
Q 18.609375 15.53125 22.484375 10.953125 
Q 26.375 6.390625 33.015625 6.390625 
Q 39.65625 6.390625 43.53125 10.953125 
Q 47.40625 15.53125 47.40625 23.390625 
Q 47.40625 31.296875 43.53125 35.828125 
Q 39.65625 40.375 33.015625 40.375 
z
M 52.59375 71.296875 
L 52.59375 62.3125 
Q 48.875 64.0625 45.09375 64.984375 
Q 41.3125 65.921875 37.59375 65.921875 
Q 27.828125 65.921875 22.671875 59.328125 
Q 17.53125 52.734375 16.796875 39.40625 
Q 19.671875 43.65625 24.015625 45.921875 
Q 28.375 48.1875 33.59375 48.1875 
Q 44.578125 48.1875 50.953125 41.515625 
Q 57.328125 34.859375 57.328125 23.390625 
Q 57.328125 12.15625 50.6875 5.359375 
Q 44.046875 -1.421875 33.015625 -1.421875 
Q 20.359375 -1.421875 13.671875 8.265625 
Q 6.984375 17.96875 6.984375 36.375 
Q 6.984375 53.65625 15.1875 63.9375 
Q 23.390625 74.21875 37.203125 74.21875 
Q 40.921875 74.21875 44.703125 73.484375 
Q 48.484375 72.75 52.59375 71.296875 
z
" id="DejaVuSans-54"/>
       </defs>
       <use xlink:href="#DejaVuSans-49"/>
       <use x="63.623047" xlink:href="#DejaVuSans-54"/>
      </g>
     </g>
    </g>
    <g id="xtick_5">
     <g id="line2d_5">
      <g>
       <use style="stroke:#000000;stroke-width:0.8;" x="444.829068" xlink:href="#ma3060d9d20" y="102.1"/>
      </g>
     </g>
     <g id="text_5">
      <!-- 18 -->
      <g transform="translate(438.466568 116.698437)scale(0.1 -0.1)">
       <defs>
        <path d="M 31.78125 34.625 
Q 24.75 34.625 20.71875 30.859375 
Q 16.703125 27.09375 16.703125 20.515625 
Q 16.703125 13.921875 20.71875 10.15625 
Q 24.75 6.390625 31.78125 6.390625 
Q 38.8125 6.390625 42.859375 10.171875 
Q 46.921875 13.96875 46.921875 20.515625 
Q 46.921875 27.09375 42.890625 30.859375 
Q 38.875 34.625 31.78125 34.625 
z
M 21.921875 38.8125 
Q 15.578125 40.375 12.03125 44.71875 
Q 8.5 49.078125 8.5 55.328125 
Q 8.5 64.0625 14.71875 69.140625 
Q 20.953125 74.21875 31.78125 74.21875 
Q 42.671875 74.21875 48.875 69.140625 
Q 55.078125 64.0625 55.078125 55.328125 
Q 55.078125 49.078125 51.53125 44.71875 
Q 48 40.375 41.703125 38.8125 
Q 48.828125 37.15625 52.796875 32.3125 
Q 56.78125 27.484375 56.78125 20.515625 
Q 56.78125 9.90625 50.3125 4.234375 
Q 43.84375 -1.421875 31.78125 -1.421875 
Q 19.734375 -1.421875 13.25 4.234375 
Q 6.78125 9.90625 6.78125 20.515625 
Q 6.78125 27.484375 10.78125 32.3125 
Q 14.796875 37.15625 21.921875 38.8125 
z
M 18.3125 54.390625 
Q 18.3125 48.734375 21.84375 45.5625 
Q 25.390625 42.390625 31.78125 42.390625 
Q 38.140625 42.390625 41.71875 45.5625 
Q 45.3125 48.734375 45.3125 54.390625 
Q 45.3125 60.0625 41.71875 63.234375 
Q 38.140625 66.40625 31.78125 66.40625 
Q 25.390625 66.40625 21.84375 63.234375 
Q 18.3125 60.0625 18.3125 54.390625 
z
" id="DejaVuSans-56"/>
       </defs>
       <use xlink:href="#DejaVuSans-49"/>
       <use x="63.623047" xlink:href="#DejaVuSans-56"/>
      </g>
     </g>
    </g>
    <g id="xtick_6">
     <g id="line2d_6">
      <g>
       <use style="stroke:#000000;stroke-width:0.8;" x="537.972585" xlink:href="#ma3060d9d20" y="102.1"/>
      </g>
     </g>
     <g id="text_6">
      <!-- 20 -->
      <g transform="translate(531.610085 116.698437)scale(0.1 -0.1)">
       <use xlink:href="#DejaVuSans-50"/>
       <use x="63.623047" xlink:href="#DejaVuSans-48"/>
      </g>
     </g>
    </g>
    <g id="text_7">
     <!-- time (ms) -->
     <g transform="translate(280.858594 130.376562)scale(0.1 -0.1)">
      <defs>
       <path d="M 18.3125 70.21875 
L 18.3125 54.6875 
L 36.8125 54.6875 
L 36.8125 47.703125 
L 18.3125 47.703125 
L 18.3125 18.015625 
Q 18.3125 11.328125 20.140625 9.421875 
Q 21.96875 7.515625 27.59375 7.515625 
L 36.8125 7.515625 
L 36.8125 0 
L 27.59375 0 
Q 17.1875 0 13.234375 3.875 
Q 9.28125 7.765625 9.28125 18.015625 
L 9.28125 47.703125 
L 2.6875 47.703125 
L 2.6875 54.6875 
L 9.28125 54.6875 
L 9.28125 70.21875 
z
" id="DejaVuSans-116"/>
       <path d="M 9.421875 54.6875 
L 18.40625 54.6875 
L 18.40625 0 
L 9.421875 0 
z
M 9.421875 75.984375 
L 18.40625 75.984375 
L 18.40625 64.59375 
L 9.421875 64.59375 
z
" id="DejaVuSans-105"/>
       <path d="M 52 44.1875 
Q 55.375 50.25 60.0625 53.125 
Q 64.75 56 71.09375 56 
Q 79.640625 56 84.28125 50.015625 
Q 88.921875 44.046875 88.921875 33.015625 
L 88.921875 0 
L 79.890625 0 
L 79.890625 32.71875 
Q 79.890625 40.578125 77.09375 44.375 
Q 74.3125 48.1875 68.609375 48.1875 
Q 61.625 48.1875 57.5625 43.546875 
Q 53.515625 38.921875 53.515625 30.90625 
L 53.515625 0 
L 44.484375 0 
L 44.484375 32.71875 
Q 44.484375 40.625 41.703125 44.40625 
Q 38.921875 48.1875 33.109375 48.1875 
Q 26.21875 48.1875 22.15625 43.53125 
Q 18.109375 38.875 18.109375 30.90625 
L 18.109375 0 
L 9.078125 0 
L 9.078125 54.6875 
L 18.109375 54.6875 
L 18.109375 46.1875 
Q 21.1875 51.21875 25.484375 53.609375 
Q 29.78125 56 35.6875 56 
Q 41.65625 56 45.828125 52.96875 
Q 50 49.953125 52 44.1875 
z
" id="DejaVuSans-109"/>
       <path d="M 56.203125 29.59375 
L 56.203125 25.203125 
L 14.890625 25.203125 
Q 15.484375 15.921875 20.484375 11.0625 
Q 25.484375 6.203125 34.421875 6.203125 
Q 39.59375 6.203125 44.453125 7.46875 
Q 49.3125 8.734375 54.109375 11.28125 
L 54.109375 2.78125 
Q 49.265625 0.734375 44.1875 -0.34375 
Q 39.109375 -1.421875 33.890625 -1.421875 
Q 20.796875 -1.421875 13.15625 6.1875 
Q 5.515625 13.8125 5.515625 26.8125 
Q 5.515625 40.234375 12.765625 48.109375 
Q 20.015625 56 32.328125 56 
Q 43.359375 56 49.78125 48.890625 
Q 56.203125 41.796875 56.203125 29.59375 
z
M 47.21875 32.234375 
Q 47.125 39.59375 43.09375 43.984375 
Q 39.0625 48.390625 32.421875 48.390625 
Q 24.90625 48.390625 20.390625 44.140625 
Q 15.875 39.890625 15.1875 32.171875 
z
" id="DejaVuSans-101"/>
       <path id="DejaVuSans-32"/>
       <path d="M 31 75.875 
Q 24.46875 64.65625 21.28125 53.65625 
Q 18.109375 42.671875 18.109375 31.390625 
Q 18.109375 20.125 21.3125 9.0625 
Q 24.515625 -2 31 -13.1875 
L 23.1875 -13.1875 
Q 15.875 -1.703125 12.234375 9.375 
Q 8.59375 20.453125 8.59375 31.390625 
Q 8.59375 42.28125 12.203125 53.3125 
Q 15.828125 64.359375 23.1875 75.875 
z
" id="DejaVuSans-40"/>
       <path d="M 44.28125 53.078125 
L 44.28125 44.578125 
Q 40.484375 46.53125 36.375 47.5 
Q 32.28125 48.484375 27.875 48.484375 
Q 21.1875 48.484375 17.84375 46.4375 
Q 14.5 44.390625 14.5 40.28125 
Q 14.5 37.15625 16.890625 35.375 
Q 19.28125 33.59375 26.515625 31.984375 
L 29.59375 31.296875 
Q 39.15625 29.25 43.1875 25.515625 
Q 47.21875 21.78125 47.21875 15.09375 
Q 47.21875 7.46875 41.1875 3.015625 
Q 35.15625 -1.421875 24.609375 -1.421875 
Q 20.21875 -1.421875 15.453125 -0.5625 
Q 10.6875 0.296875 5.421875 2 
L 5.421875 11.28125 
Q 10.40625 8.6875 15.234375 7.390625 
Q 20.0625 6.109375 24.8125 6.109375 
Q 31.15625 6.109375 34.5625 8.28125 
Q 37.984375 10.453125 37.984375 14.40625 
Q 37.984375 18.0625 35.515625 20.015625 
Q 33.0625 21.96875 24.703125 23.78125 
L 21.578125 24.515625 
Q 13.234375 26.265625 9.515625 29.90625 
Q 5.8125 33.546875 5.8125 39.890625 
Q 5.8125 47.609375 11.28125 51.796875 
Q 16.75 56 26.8125 56 
Q 31.78125 56 36.171875 55.265625 
Q 40.578125 54.546875 44.28125 53.078125 
z
" id="DejaVuSans-115"/>
       <path d="M 8.015625 75.875 
L 15.828125 75.875 
Q 23.140625 64.359375 26.78125 53.3125 
Q 30.421875 42.28125 30.421875 31.390625 
Q 30.421875 20.453125 26.78125 9.375 
Q 23.140625 -1.703125 15.828125 -13.1875 
L 8.015625 -13.1875 
Q 14.5 -2 17.703125 9.0625 
Q 20.90625 20.125 20.90625 31.390625 
Q 20.90625 42.671875 17.703125 53.65625 
Q 14.5 64.65625 8.015625 75.875 
z
" id="DejaVuSans-41"/>
      </defs>
      <use xlink:href="#DejaVuSans-116"/>
      <use x="39.208984" xlink:href="#DejaVuSans-105"/>
      <use x="66.992188" xlink:href="#DejaVuSans-109"/>
      <use x="164.404297" xlink:href="#DejaVuSans-101"/>
      <use x="225.927734" xlink:href="#DejaVuSans-32"/>
      <use x="257.714844" xlink:href="#DejaVuSans-40"/>
      <use x="296.728516" xlink:href="#DejaVuSans-109"/>
      <use x="394.140625" xlink:href="#DejaVuSans-115"/>
      <use x="446.240234" xlink:href="#DejaVuSans-41"/>
     </g>
    </g>
   </g>
   <g id="matplotlib.axis_2">
    <g id="ytick_1">
     <g id="line2d_7">
      <defs>
       <path d="M 0 0 
L -3.5 0 
" id="mb882f204bd" style="stroke:#000000;stroke-width:0.8;"/>
      </defs>
      <g>
       <use style="stroke:#000000;stroke-width:0.8;" x="48.982813" xlink:href="#mb882f204bd" y="87.181245"/>
      </g>
     </g>
     <g id="text_8">
      <!-- −1 -->
      <g transform="translate(27.240625 90.980464)scale(0.1 -0.1)">
       <defs>
        <path d="M 10.59375 35.5 
L 73.1875 35.5 
L 73.1875 27.203125 
L 10.59375 27.203125 
z
" id="DejaVuSans-8722"/>
       </defs>
       <use xlink:href="#DejaVuSans-8722"/>
       <use x="83.789062" xlink:href="#DejaVuSans-49"/>
      </g>
     </g>
    </g>
    <g id="ytick_2">
     <g id="line2d_8">
      <g>
       <use style="stroke:#000000;stroke-width:0.8;" x="48.982813" xlink:href="#mb882f204bd" y="50.053324"/>
      </g>
     </g>
     <g id="text_9">
      <!-- 0 -->
      <g transform="translate(35.620313 53.852543)scale(0.1 -0.1)">
       <use xlink:href="#DejaVuSans-48"/>
      </g>
     </g>
    </g>
    <g id="ytick_3">
     <g id="line2d_9">
      <g>
       <use style="stroke:#000000;stroke-width:0.8;" x="48.982813" xlink:href="#mb882f204bd" y="12.925402"/>
      </g>
     </g>
     <g id="text_10">
      <!-- 1 -->
      <g transform="translate(35.620313 16.724621)scale(0.1 -0.1)">
       <use xlink:href="#DejaVuSans-49"/>
      </g>
     </g>
    </g>
    <g id="text_11">
     <!-- IN [V] -->
     <g transform="translate(21.160938 68.776562)rotate(-90)scale(0.1 -0.1)">
      <defs>
       <path d="M 9.8125 72.90625 
L 19.671875 72.90625 
L 19.671875 0 
L 9.8125 0 
z
" id="DejaVuSans-73"/>
       <path d="M 9.8125 72.90625 
L 23.09375 72.90625 
L 55.421875 11.921875 
L 55.421875 72.90625 
L 64.984375 72.90625 
L 64.984375 0 
L 51.703125 0 
L 19.390625 60.984375 
L 19.390625 0 
L 9.8125 0 
z
" id="DejaVuSans-78"/>
       <path d="M 8.59375 75.984375 
L 29.296875 75.984375 
L 29.296875 69 
L 17.578125 69 
L 17.578125 -6.203125 
L 29.296875 -6.203125 
L 29.296875 -13.1875 
L 8.59375 -13.1875 
z
" id="DejaVuSans-91"/>
       <path d="M 28.609375 0 
L 0.78125 72.90625 
L 11.078125 72.90625 
L 34.1875 11.53125 
L 57.328125 72.90625 
L 67.578125 72.90625 
L 39.796875 0 
z
" id="DejaVuSans-86"/>
       <path d="M 30.421875 75.984375 
L 30.421875 -13.1875 
L 9.71875 -13.1875 
L 9.71875 -6.203125 
L 21.390625 -6.203125 
L 21.390625 69 
L 9.71875 69 
L 9.71875 75.984375 
z
" id="DejaVuSans-93"/>
      </defs>
      <use xlink:href="#DejaVuSans-73"/>
      <use x="29.492188" xlink:href="#DejaVuSans-78"/>
      <use x="104.296875" xlink:href="#DejaVuSans-32"/>
      <use x="136.083984" xlink:href="#DejaVuSans-91"/>
      <use x="175.097656" xlink:href="#DejaVuSans-86"/>
      <use x="243.505859" xlink:href="#DejaVuSans-93"/>
     </g>
    </g>
   </g>
   <g id="line2d_10">
    <path clip-path="url(#p7fb393e185)" d="M 72.26804 23.466529 
L 78.555227 27.110878 
L 85.540991 31.42454 
L 93.644477 36.699737 
L 104.262838 43.89756 
L 126.058421 58.735025 
L 132.857898 63.056407 
L 137.608217 65.830116 
L 140.58881 67.337689 
L 142.079106 67.877379 
L 143.476259 68.288154 
L 145.851418 69.437343 
L 152.045462 72.739707 
L 163.781545 78.958988 
L 171.186455 82.623523 
L 177.753073 85.630053 
L 183.853973 88.182216 
L 189.628871 90.359 
L 195.124339 92.196274 
L 200.433519 93.740454 
L 205.602985 95.015335 
L 210.679306 96.039483 
L 215.662484 96.819278 
L 220.599091 97.367311 
L 225.489125 97.687624 
L 230.37916 97.786027 
L 235.315766 97.661965 
L 240.298945 97.313412 
L 245.375266 96.735738 
L 250.684447 95.906123 
L 256.459345 94.774131 
L 267.962569 92.429565 
L 270.151442 92.380043 
L 272.526602 91.90008 
L 275.92634 90.978525 
L 280.071226 89.620255 
L 284.681831 87.871807 
L 289.618437 85.759465 
L 294.834474 83.284591 
L 300.376513 80.406394 
L 306.244555 77.106211 
L 312.578314 73.284141 
L 319.470934 68.858621 
L 327.155274 63.653278 
L 336.190196 57.253821 
L 348.578283 48.181386 
L 370.560153 32.061946 
L 379.827933 25.571688 
L 387.651989 20.357944 
L 393.054313 16.989266 
L 395.243185 15.920361 
L 397.571773 15.029536 
L 400.179792 14.271561 
L 403.253528 13.616677 
L 407.02584 13.051523 
L 411.822731 12.569784 
L 418.203062 12.165095 
L 427.098268 11.838213 
L 439.905502 11.605313 
L 457.742485 11.513719 
L 476.836906 11.630447 
L 491.134436 11.924303 
L 500.77479 12.330113 
L 507.527695 12.824211 
L 512.510873 13.400595 
L 516.422901 14.07011 
L 519.589781 14.830396 
L 522.337514 15.716244 
L 524.805818 16.744328 
L 530.068426 19.257106 
L 535.703609 22.198522 
L 537.972585 23.449413 
L 537.972585 23.449413 
" style="fill:none;stroke:#ff0000;stroke-linecap:square;stroke-width:1.5;"/>
   </g>
   <g id="patch_3">
    <path d="M 48.982813 102.1 
L 48.982813 7.2 
" style="fill:none;stroke:#000000;stroke-linecap:square;stroke-linejoin:miter;stroke-width:0.8;"/>
   </g>
   <g id="patch_4">
    <path d="M 561.257812 102.1 
L 561.257812 7.2 
" style="fill:none;stroke:#000000;stroke-linecap:square;stroke-linejoin:miter;stroke-width:0.8;"/>
   </g>
   <g id="patch_5">
    <path d="M 48.982813 102.1 
L 561.257812 102.1 
" style="fill:none;stroke:#000000;stroke-linecap:square;stroke-linejoin:miter;stroke-width:0.8;"/>
   </g>
   <g id="patch_6">
    <path d="M 48.982813 7.2 
L 561.257812 7.2 
" style="fill:none;stroke:#000000;stroke-linecap:square;stroke-linejoin:miter;stroke-width:0.8;"/>
   </g>
  </g>
  <g id="axes_2">
   <g id="patch_7">
    <path d="M 48.982813 238.8 
L 561.257812 238.8 
L 561.257812 143.9 
L 48.982813 143.9 
z
" style="fill:#ffffff;"/>
   </g>
   <g id="matplotlib.axis_3">
    <g id="xtick_7">
     <g id="line2d_11">
      <path clip-path="url(#pbe0fe2aa4b)" d="M 72.26804 238.8 
L 72.26804 143.9 
" style="fill:none;stroke:#b0b0b0;stroke-linecap:square;stroke-width:0.8;"/>
     </g>
     <g id="line2d_12">
      <g>
       <use style="stroke:#000000;stroke-width:0.8;" x="72.26804" xlink:href="#ma3060d9d20" y="238.8"/>
      </g>
     </g>
     <g id="text_12">
      <!-- $\mathdefault{10^{0}}$ -->
      <g transform="translate(63.46804 253.398438)scale(0.1 -0.1)">
       <use transform="translate(0 0.765625)" xlink:href="#DejaVuSans-49"/>
       <use transform="translate(63.623047 0.765625)" xlink:href="#DejaVuSans-48"/>
       <use transform="translate(128.203125 39.046875)scale(0.7)" xlink:href="#DejaVuSans-48"/>
      </g>
     </g>
    </g>
    <g id="xtick_8">
     <g id="line2d_13">
      <path clip-path="url(#pbe0fe2aa4b)" d="M 188.694176 238.8 
L 188.694176 143.9 
" style="fill:none;stroke:#b0b0b0;stroke-linecap:square;stroke-width:0.8;"/>
     </g>
     <g id="line2d_14">
      <g>
       <use style="stroke:#000000;stroke-width:0.8;" x="188.694176" xlink:href="#ma3060d9d20" y="238.8"/>
      </g>
     </g>
     <g id="text_13">
      <!-- $\mathdefault{10^{1}}$ -->
      <g transform="translate(179.894176 253.398438)scale(0.1 -0.1)">
       <use transform="translate(0 0.684375)" xlink:href="#DejaVuSans-49"/>
       <use transform="translate(63.623047 0.684375)" xlink:href="#DejaVuSans-48"/>
       <use transform="translate(128.203125 38.965625)scale(0.7)" xlink:href="#DejaVuSans-49"/>
      </g>
     </g>
    </g>
    <g id="xtick_9">
     <g id="line2d_15">
      <path clip-path="url(#pbe0fe2aa4b)" d="M 305.120312 238.8 
L 305.120312 143.9 
" style="fill:none;stroke:#b0b0b0;stroke-linecap:square;stroke-width:0.8;"/>
     </g>
     <g id="line2d_16">
      <g>
       <use style="stroke:#000000;stroke-width:0.8;" x="305.120312" xlink:href="#ma3060d9d20" y="238.8"/>
      </g>
     </g>
     <g id="text_14">
      <!-- $\mathdefault{10^{2}}$ -->
      <g transform="translate(296.320312 253.398438)scale(0.1 -0.1)">
       <use transform="translate(0 0.765625)" xlink:href="#DejaVuSans-49"/>
       <use transform="translate(63.623047 0.765625)" xlink:href="#DejaVuSans-48"/>
       <use transform="translate(128.203125 39.046875)scale(0.7)" xlink:href="#DejaVuSans-50"/>
      </g>
     </g>
    </g>
    <g id="xtick_10">
     <g id="line2d_17">
      <path clip-path="url(#pbe0fe2aa4b)" d="M 421.546449 238.8 
L 421.546449 143.9 
" style="fill:none;stroke:#b0b0b0;stroke-linecap:square;stroke-width:0.8;"/>
     </g>
     <g id="line2d_18">
      <g>
       <use style="stroke:#000000;stroke-width:0.8;" x="421.546449" xlink:href="#ma3060d9d20" y="238.8"/>
      </g>
     </g>
     <g id="text_15">
      <!-- $\mathdefault{10^{3}}$ -->
      <g transform="translate(412.746449 253.398438)scale(0.1 -0.1)">
       <defs>
        <path d="M 40.578125 39.3125 
Q 47.65625 37.796875 51.625 33 
Q 55.609375 28.21875 55.609375 21.1875 
Q 55.609375 10.40625 48.1875 4.484375 
Q 40.765625 -1.421875 27.09375 -1.421875 
Q 22.515625 -1.421875 17.65625 -0.515625 
Q 12.796875 0.390625 7.625 2.203125 
L 7.625 11.71875 
Q 11.71875 9.328125 16.59375 8.109375 
Q 21.484375 6.890625 26.8125 6.890625 
Q 36.078125 6.890625 40.9375 10.546875 
Q 45.796875 14.203125 45.796875 21.1875 
Q 45.796875 27.640625 41.28125 31.265625 
Q 36.765625 34.90625 28.71875 34.90625 
L 20.21875 34.90625 
L 20.21875 43.015625 
L 29.109375 43.015625 
Q 36.375 43.015625 40.234375 45.921875 
Q 44.09375 48.828125 44.09375 54.296875 
Q 44.09375 59.90625 40.109375 62.90625 
Q 36.140625 65.921875 28.71875 65.921875 
Q 24.65625 65.921875 20.015625 65.03125 
Q 15.375 64.15625 9.8125 62.3125 
L 9.8125 71.09375 
Q 15.4375 72.65625 20.34375 73.4375 
Q 25.25 74.21875 29.59375 74.21875 
Q 40.828125 74.21875 47.359375 69.109375 
Q 53.90625 64.015625 53.90625 55.328125 
Q 53.90625 49.265625 50.4375 45.09375 
Q 46.96875 40.921875 40.578125 39.3125 
z
" id="DejaVuSans-51"/>
       </defs>
       <use transform="translate(0 0.765625)" xlink:href="#DejaVuSans-49"/>
       <use transform="translate(63.623047 0.765625)" xlink:href="#DejaVuSans-48"/>
       <use transform="translate(128.203125 39.046875)scale(0.7)" xlink:href="#DejaVuSans-51"/>
      </g>
     </g>
    </g>
    <g id="xtick_11">
     <g id="line2d_19">
      <path clip-path="url(#pbe0fe2aa4b)" d="M 537.972585 238.8 
L 537.972585 143.9 
" style="fill:none;stroke:#b0b0b0;stroke-linecap:square;stroke-width:0.8;"/>
     </g>
     <g id="line2d_20">
      <g>
       <use style="stroke:#000000;stroke-width:0.8;" x="537.972585" xlink:href="#ma3060d9d20" y="238.8"/>
      </g>
     </g>
     <g id="text_16">
      <!-- $\mathdefault{10^{4}}$ -->
      <g transform="translate(529.172585 253.398438)scale(0.1 -0.1)">
       <use transform="translate(0 0.684375)" xlink:href="#DejaVuSans-49"/>
       <use transform="translate(63.623047 0.684375)" xlink:href="#DejaVuSans-48"/>
       <use transform="translate(128.203125 38.965625)scale(0.7)" xlink:href="#DejaVuSans-52"/>
      </g>
     </g>
    </g>
    <g id="xtick_12">
     <g id="line2d_21">
      <path clip-path="url(#pbe0fe2aa4b)" d="M 54.233403 238.8 
L 54.233403 143.9 
" style="fill:none;stroke:#b0b0b0;stroke-linecap:square;stroke-width:0.8;"/>
     </g>
     <g id="line2d_22">
      <defs>
       <path d="M 0 0 
L 0 2 
" id="m946b84fb16" style="stroke:#000000;stroke-width:0.6;"/>
      </defs>
      <g>
       <use style="stroke:#000000;stroke-width:0.6;" x="54.233403" xlink:href="#m946b84fb16" y="238.8"/>
      </g>
     </g>
    </g>
    <g id="xtick_13">
     <g id="line2d_23">
      <path clip-path="url(#pbe0fe2aa4b)" d="M 60.985181 238.8 
L 60.985181 143.9 
" style="fill:none;stroke:#b0b0b0;stroke-linecap:square;stroke-width:0.8;"/>
     </g>
     <g id="line2d_24">
      <g>
       <use style="stroke:#000000;stroke-width:0.6;" x="60.985181" xlink:href="#m946b84fb16" y="238.8"/>
      </g>
     </g>
    </g>
    <g id="xtick_14">
     <g id="line2d_25">
      <path clip-path="url(#pbe0fe2aa4b)" d="M 66.940672 238.8 
L 66.940672 143.9 
" style="fill:none;stroke:#b0b0b0;stroke-linecap:square;stroke-width:0.8;"/>
     </g>
     <g id="line2d_26">
      <g>
       <use style="stroke:#000000;stroke-width:0.6;" x="66.940672" xlink:href="#m946b84fb16" y="238.8"/>
      </g>
     </g>
    </g>
    <g id="xtick_15">
     <g id="line2d_27">
      <path clip-path="url(#pbe0fe2aa4b)" d="M 107.315799 238.8 
L 107.315799 143.9 
" style="fill:none;stroke:#b0b0b0;stroke-linecap:square;stroke-width:0.8;"/>
     </g>
     <g id="line2d_28">
      <g>
       <use style="stroke:#000000;stroke-width:0.6;" x="107.315799" xlink:href="#m946b84fb16" y="238.8"/>
      </g>
     </g>
    </g>
    <g id="xtick_16">
     <g id="line2d_29">
      <path clip-path="url(#pbe0fe2aa4b)" d="M 127.817424 238.8 
L 127.817424 143.9 
" style="fill:none;stroke:#b0b0b0;stroke-linecap:square;stroke-width:0.8;"/>
     </g>
     <g id="line2d_30">
      <g>
       <use style="stroke:#000000;stroke-width:0.6;" x="127.817424" xlink:href="#m946b84fb16" y="238.8"/>
      </g>
     </g>
    </g>
    <g id="xtick_17">
     <g id="line2d_31">
      <path clip-path="url(#pbe0fe2aa4b)" d="M 142.363558 238.8 
L 142.363558 143.9 
" style="fill:none;stroke:#b0b0b0;stroke-linecap:square;stroke-width:0.8;"/>
     </g>
     <g id="line2d_32">
      <g>
       <use style="stroke:#000000;stroke-width:0.6;" x="142.363558" xlink:href="#m946b84fb16" y="238.8"/>
      </g>
     </g>
    </g>
    <g id="xtick_18">
     <g id="line2d_33">
      <path clip-path="url(#pbe0fe2aa4b)" d="M 153.646417 238.8 
L 153.646417 143.9 
" style="fill:none;stroke:#b0b0b0;stroke-linecap:square;stroke-width:0.8;"/>
     </g>
     <g id="line2d_34">
      <g>
       <use style="stroke:#000000;stroke-width:0.6;" x="153.646417" xlink:href="#m946b84fb16" y="238.8"/>
      </g>
     </g>
    </g>
    <g id="xtick_19">
     <g id="line2d_35">
      <path clip-path="url(#pbe0fe2aa4b)" d="M 162.865183 238.8 
L 162.865183 143.9 
" style="fill:none;stroke:#b0b0b0;stroke-linecap:square;stroke-width:0.8;"/>
     </g>
     <g id="line2d_36">
      <g>
       <use style="stroke:#000000;stroke-width:0.6;" x="162.865183" xlink:href="#m946b84fb16" y="238.8"/>
      </g>
     </g>
    </g>
    <g id="xtick_20">
     <g id="line2d_37">
      <path clip-path="url(#pbe0fe2aa4b)" d="M 170.659539 238.8 
L 170.659539 143.9 
" style="fill:none;stroke:#b0b0b0;stroke-linecap:square;stroke-width:0.8;"/>
     </g>
     <g id="line2d_38">
      <g>
       <use style="stroke:#000000;stroke-width:0.6;" x="170.659539" xlink:href="#m946b84fb16" y="238.8"/>
      </g>
     </g>
    </g>
    <g id="xtick_21">
     <g id="line2d_39">
      <path clip-path="url(#pbe0fe2aa4b)" d="M 177.411318 238.8 
L 177.411318 143.9 
" style="fill:none;stroke:#b0b0b0;stroke-linecap:square;stroke-width:0.8;"/>
     </g>
     <g id="line2d_40">
      <g>
       <use style="stroke:#000000;stroke-width:0.6;" x="177.411318" xlink:href="#m946b84fb16" y="238.8"/>
      </g>
     </g>
    </g>
    <g id="xtick_22">
     <g id="line2d_41">
      <path clip-path="url(#pbe0fe2aa4b)" d="M 183.366808 238.8 
L 183.366808 143.9 
" style="fill:none;stroke:#b0b0b0;stroke-linecap:square;stroke-width:0.8;"/>
     </g>
     <g id="line2d_42">
      <g>
       <use style="stroke:#000000;stroke-width:0.6;" x="183.366808" xlink:href="#m946b84fb16" y="238.8"/>
      </g>
     </g>
    </g>
    <g id="xtick_23">
     <g id="line2d_43">
      <path clip-path="url(#pbe0fe2aa4b)" d="M 223.741935 238.8 
L 223.741935 143.9 
" style="fill:none;stroke:#b0b0b0;stroke-linecap:square;stroke-width:0.8;"/>
     </g>
     <g id="line2d_44">
      <g>
       <use style="stroke:#000000;stroke-width:0.6;" x="223.741935" xlink:href="#m946b84fb16" y="238.8"/>
      </g>
     </g>
    </g>
    <g id="xtick_24">
     <g id="line2d_45">
      <path clip-path="url(#pbe0fe2aa4b)" d="M 244.24356 238.8 
L 244.24356 143.9 
" style="fill:none;stroke:#b0b0b0;stroke-linecap:square;stroke-width:0.8;"/>
     </g>
     <g id="line2d_46">
      <g>
       <use style="stroke:#000000;stroke-width:0.6;" x="244.24356" xlink:href="#m946b84fb16" y="238.8"/>
      </g>
     </g>
    </g>
    <g id="xtick_25">
     <g id="line2d_47">
      <path clip-path="url(#pbe0fe2aa4b)" d="M 258.789695 238.8 
L 258.789695 143.9 
" style="fill:none;stroke:#b0b0b0;stroke-linecap:square;stroke-width:0.8;"/>
     </g>
     <g id="line2d_48">
      <g>
       <use style="stroke:#000000;stroke-width:0.6;" x="258.789695" xlink:href="#m946b84fb16" y="238.8"/>
      </g>
     </g>
    </g>
    <g id="xtick_26">
     <g id="line2d_49">
      <path clip-path="url(#pbe0fe2aa4b)" d="M 270.072553 238.8 
L 270.072553 143.9 
" style="fill:none;stroke:#b0b0b0;stroke-linecap:square;stroke-width:0.8;"/>
     </g>
     <g id="line2d_50">
      <g>
       <use style="stroke:#000000;stroke-width:0.6;" x="270.072553" xlink:href="#m946b84fb16" y="238.8"/>
      </g>
     </g>
    </g>
    <g id="xtick_27">
     <g id="line2d_51">
      <path clip-path="url(#pbe0fe2aa4b)" d="M 279.29132 238.8 
L 279.29132 143.9 
" style="fill:none;stroke:#b0b0b0;stroke-linecap:square;stroke-width:0.8;"/>
     </g>
     <g id="line2d_52">
      <g>
       <use style="stroke:#000000;stroke-width:0.6;" x="279.29132" xlink:href="#m946b84fb16" y="238.8"/>
      </g>
     </g>
    </g>
    <g id="xtick_28">
     <g id="line2d_53">
      <path clip-path="url(#pbe0fe2aa4b)" d="M 287.085676 238.8 
L 287.085676 143.9 
" style="fill:none;stroke:#b0b0b0;stroke-linecap:square;stroke-width:0.8;"/>
     </g>
     <g id="line2d_54">
      <g>
       <use style="stroke:#000000;stroke-width:0.6;" x="287.085676" xlink:href="#m946b84fb16" y="238.8"/>
      </g>
     </g>
    </g>
    <g id="xtick_29">
     <g id="line2d_55">
      <path clip-path="url(#pbe0fe2aa4b)" d="M 293.837454 238.8 
L 293.837454 143.9 
" style="fill:none;stroke:#b0b0b0;stroke-linecap:square;stroke-width:0.8;"/>
     </g>
     <g id="line2d_56">
      <g>
       <use style="stroke:#000000;stroke-width:0.6;" x="293.837454" xlink:href="#m946b84fb16" y="238.8"/>
      </g>
     </g>
    </g>
    <g id="xtick_30">
     <g id="line2d_57">
      <path clip-path="url(#pbe0fe2aa4b)" d="M 299.792945 238.8 
L 299.792945 143.9 
" style="fill:none;stroke:#b0b0b0;stroke-linecap:square;stroke-width:0.8;"/>
     </g>
     <g id="line2d_58">
      <g>
       <use style="stroke:#000000;stroke-width:0.6;" x="299.792945" xlink:href="#m946b84fb16" y="238.8"/>
      </g>
     </g>
    </g>
    <g id="xtick_31">
     <g id="line2d_59">
      <path clip-path="url(#pbe0fe2aa4b)" d="M 340.168072 238.8 
L 340.168072 143.9 
" style="fill:none;stroke:#b0b0b0;stroke-linecap:square;stroke-width:0.8;"/>
     </g>
     <g id="line2d_60">
      <g>
       <use style="stroke:#000000;stroke-width:0.6;" x="340.168072" xlink:href="#m946b84fb16" y="238.8"/>
      </g>
     </g>
    </g>
    <g id="xtick_32">
     <g id="line2d_61">
      <path clip-path="url(#pbe0fe2aa4b)" d="M 360.669697 238.8 
L 360.669697 143.9 
" style="fill:none;stroke:#b0b0b0;stroke-linecap:square;stroke-width:0.8;"/>
     </g>
     <g id="line2d_62">
      <g>
       <use style="stroke:#000000;stroke-width:0.6;" x="360.669697" xlink:href="#m946b84fb16" y="238.8"/>
      </g>
     </g>
    </g>
    <g id="xtick_33">
     <g id="line2d_63">
      <path clip-path="url(#pbe0fe2aa4b)" d="M 375.215831 238.8 
L 375.215831 143.9 
" style="fill:none;stroke:#b0b0b0;stroke-linecap:square;stroke-width:0.8;"/>
     </g>
     <g id="line2d_64">
      <g>
       <use style="stroke:#000000;stroke-width:0.6;" x="375.215831" xlink:href="#m946b84fb16" y="238.8"/>
      </g>
     </g>
    </g>
    <g id="xtick_34">
     <g id="line2d_65">
      <path clip-path="url(#pbe0fe2aa4b)" d="M 386.49869 238.8 
L 386.49869 143.9 
" style="fill:none;stroke:#b0b0b0;stroke-linecap:square;stroke-width:0.8;"/>
     </g>
     <g id="line2d_66">
      <g>
       <use style="stroke:#000000;stroke-width:0.6;" x="386.49869" xlink:href="#m946b84fb16" y="238.8"/>
      </g>
     </g>
    </g>
    <g id="xtick_35">
     <g id="line2d_67">
      <path clip-path="url(#pbe0fe2aa4b)" d="M 395.717456 238.8 
L 395.717456 143.9 
" style="fill:none;stroke:#b0b0b0;stroke-linecap:square;stroke-width:0.8;"/>
     </g>
     <g id="line2d_68">
      <g>
       <use style="stroke:#000000;stroke-width:0.6;" x="395.717456" xlink:href="#m946b84fb16" y="238.8"/>
      </g>
     </g>
    </g>
    <g id="xtick_36">
     <g id="line2d_69">
      <path clip-path="url(#pbe0fe2aa4b)" d="M 403.511812 238.8 
L 403.511812 143.9 
" style="fill:none;stroke:#b0b0b0;stroke-linecap:square;stroke-width:0.8;"/>
     </g>
     <g id="line2d_70">
      <g>
       <use style="stroke:#000000;stroke-width:0.6;" x="403.511812" xlink:href="#m946b84fb16" y="238.8"/>
      </g>
     </g>
    </g>
    <g id="xtick_37">
     <g id="line2d_71">
      <path clip-path="url(#pbe0fe2aa4b)" d="M 410.26359 238.8 
L 410.26359 143.9 
" style="fill:none;stroke:#b0b0b0;stroke-linecap:square;stroke-width:0.8;"/>
     </g>
     <g id="line2d_72">
      <g>
       <use style="stroke:#000000;stroke-width:0.6;" x="410.26359" xlink:href="#m946b84fb16" y="238.8"/>
      </g>
     </g>
    </g>
    <g id="xtick_38">
     <g id="line2d_73">
      <path clip-path="url(#pbe0fe2aa4b)" d="M 416.219081 238.8 
L 416.219081 143.9 
" style="fill:none;stroke:#b0b0b0;stroke-linecap:square;stroke-width:0.8;"/>
     </g>
     <g id="line2d_74">
      <g>
       <use style="stroke:#000000;stroke-width:0.6;" x="416.219081" xlink:href="#m946b84fb16" y="238.8"/>
      </g>
     </g>
    </g>
    <g id="xtick_39">
     <g id="line2d_75">
      <path clip-path="url(#pbe0fe2aa4b)" d="M 456.594208 238.8 
L 456.594208 143.9 
" style="fill:none;stroke:#b0b0b0;stroke-linecap:square;stroke-width:0.8;"/>
     </g>
     <g id="line2d_76">
      <g>
       <use style="stroke:#000000;stroke-width:0.6;" x="456.594208" xlink:href="#m946b84fb16" y="238.8"/>
      </g>
     </g>
    </g>
    <g id="xtick_40">
     <g id="line2d_77">
      <path clip-path="url(#pbe0fe2aa4b)" d="M 477.095833 238.8 
L 477.095833 143.9 
" style="fill:none;stroke:#b0b0b0;stroke-linecap:square;stroke-width:0.8;"/>
     </g>
     <g id="line2d_78">
      <g>
       <use style="stroke:#000000;stroke-width:0.6;" x="477.095833" xlink:href="#m946b84fb16" y="238.8"/>
      </g>
     </g>
    </g>
    <g id="xtick_41">
     <g id="line2d_79">
      <path clip-path="url(#pbe0fe2aa4b)" d="M 491.641968 238.8 
L 491.641968 143.9 
" style="fill:none;stroke:#b0b0b0;stroke-linecap:square;stroke-width:0.8;"/>
     </g>
     <g id="line2d_80">
      <g>
       <use style="stroke:#000000;stroke-width:0.6;" x="491.641968" xlink:href="#m946b84fb16" y="238.8"/>
      </g>
     </g>
    </g>
    <g id="xtick_42">
     <g id="line2d_81">
      <path clip-path="url(#pbe0fe2aa4b)" d="M 502.924826 238.8 
L 502.924826 143.9 
" style="fill:none;stroke:#b0b0b0;stroke-linecap:square;stroke-width:0.8;"/>
     </g>
     <g id="line2d_82">
      <g>
       <use style="stroke:#000000;stroke-width:0.6;" x="502.924826" xlink:href="#m946b84fb16" y="238.8"/>
      </g>
     </g>
    </g>
    <g id="xtick_43">
     <g id="line2d_83">
      <path clip-path="url(#pbe0fe2aa4b)" d="M 512.143592 238.8 
L 512.143592 143.9 
" style="fill:none;stroke:#b0b0b0;stroke-linecap:square;stroke-width:0.8;"/>
     </g>
     <g id="line2d_84">
      <g>
       <use style="stroke:#000000;stroke-width:0.6;" x="512.143592" xlink:href="#m946b84fb16" y="238.8"/>
      </g>
     </g>
    </g>
    <g id="xtick_44">
     <g id="line2d_85">
      <path clip-path="url(#pbe0fe2aa4b)" d="M 519.937949 238.8 
L 519.937949 143.9 
" style="fill:none;stroke:#b0b0b0;stroke-linecap:square;stroke-width:0.8;"/>
     </g>
     <g id="line2d_86">
      <g>
       <use style="stroke:#000000;stroke-width:0.6;" x="519.937949" xlink:href="#m946b84fb16" y="238.8"/>
      </g>
     </g>
    </g>
    <g id="xtick_45">
     <g id="line2d_87">
      <path clip-path="url(#pbe0fe2aa4b)" d="M 526.689727 238.8 
L 526.689727 143.9 
" style="fill:none;stroke:#b0b0b0;stroke-linecap:square;stroke-width:0.8;"/>
     </g>
     <g id="line2d_88">
      <g>
       <use style="stroke:#000000;stroke-width:0.6;" x="526.689727" xlink:href="#m946b84fb16" y="238.8"/>
      </g>
     </g>
    </g>
    <g id="xtick_46">
     <g id="line2d_89">
      <path clip-path="url(#pbe0fe2aa4b)" d="M 532.645217 238.8 
L 532.645217 143.9 
" style="fill:none;stroke:#b0b0b0;stroke-linecap:square;stroke-width:0.8;"/>
     </g>
     <g id="line2d_90">
      <g>
       <use style="stroke:#000000;stroke-width:0.6;" x="532.645217" xlink:href="#m946b84fb16" y="238.8"/>
      </g>
     </g>
    </g>
    <g id="text_17">
     <!-- Frequency [Hz] -->
     <g transform="translate(267.415625 267.076562)scale(0.1 -0.1)">
      <defs>
       <path d="M 9.8125 72.90625 
L 51.703125 72.90625 
L 51.703125 64.59375 
L 19.671875 64.59375 
L 19.671875 43.109375 
L 48.578125 43.109375 
L 48.578125 34.8125 
L 19.671875 34.8125 
L 19.671875 0 
L 9.8125 0 
z
" id="DejaVuSans-70"/>
       <path d="M 41.109375 46.296875 
Q 39.59375 47.171875 37.8125 47.578125 
Q 36.03125 48 33.890625 48 
Q 26.265625 48 22.1875 43.046875 
Q 18.109375 38.09375 18.109375 28.8125 
L 18.109375 0 
L 9.078125 0 
L 9.078125 54.6875 
L 18.109375 54.6875 
L 18.109375 46.1875 
Q 20.953125 51.171875 25.484375 53.578125 
Q 30.03125 56 36.53125 56 
Q 37.453125 56 38.578125 55.875 
Q 39.703125 55.765625 41.0625 55.515625 
z
" id="DejaVuSans-114"/>
       <path d="M 14.796875 27.296875 
Q 14.796875 17.390625 18.875 11.75 
Q 22.953125 6.109375 30.078125 6.109375 
Q 37.203125 6.109375 41.296875 11.75 
Q 45.40625 17.390625 45.40625 27.296875 
Q 45.40625 37.203125 41.296875 42.84375 
Q 37.203125 48.484375 30.078125 48.484375 
Q 22.953125 48.484375 18.875 42.84375 
Q 14.796875 37.203125 14.796875 27.296875 
z
M 45.40625 8.203125 
Q 42.578125 3.328125 38.25 0.953125 
Q 33.9375 -1.421875 27.875 -1.421875 
Q 17.96875 -1.421875 11.734375 6.484375 
Q 5.515625 14.40625 5.515625 27.296875 
Q 5.515625 40.1875 11.734375 48.09375 
Q 17.96875 56 27.875 56 
Q 33.9375 56 38.25 53.625 
Q 42.578125 51.265625 45.40625 46.390625 
L 45.40625 54.6875 
L 54.390625 54.6875 
L 54.390625 -20.796875 
L 45.40625 -20.796875 
z
" id="DejaVuSans-113"/>
       <path d="M 8.5 21.578125 
L 8.5 54.6875 
L 17.484375 54.6875 
L 17.484375 21.921875 
Q 17.484375 14.15625 20.5 10.265625 
Q 23.53125 6.390625 29.59375 6.390625 
Q 36.859375 6.390625 41.078125 11.03125 
Q 45.3125 15.671875 45.3125 23.6875 
L 45.3125 54.6875 
L 54.296875 54.6875 
L 54.296875 0 
L 45.3125 0 
L 45.3125 8.40625 
Q 42.046875 3.421875 37.71875 1 
Q 33.40625 -1.421875 27.6875 -1.421875 
Q 18.265625 -1.421875 13.375 4.4375 
Q 8.5 10.296875 8.5 21.578125 
z
M 31.109375 56 
z
" id="DejaVuSans-117"/>
       <path d="M 54.890625 33.015625 
L 54.890625 0 
L 45.90625 0 
L 45.90625 32.71875 
Q 45.90625 40.484375 42.875 44.328125 
Q 39.84375 48.1875 33.796875 48.1875 
Q 26.515625 48.1875 22.3125 43.546875 
Q 18.109375 38.921875 18.109375 30.90625 
L 18.109375 0 
L 9.078125 0 
L 9.078125 54.6875 
L 18.109375 54.6875 
L 18.109375 46.1875 
Q 21.34375 51.125 25.703125 53.5625 
Q 30.078125 56 35.796875 56 
Q 45.21875 56 50.046875 50.171875 
Q 54.890625 44.34375 54.890625 33.015625 
z
" id="DejaVuSans-110"/>
       <path d="M 48.78125 52.59375 
L 48.78125 44.1875 
Q 44.96875 46.296875 41.140625 47.34375 
Q 37.3125 48.390625 33.40625 48.390625 
Q 24.65625 48.390625 19.8125 42.84375 
Q 14.984375 37.3125 14.984375 27.296875 
Q 14.984375 17.28125 19.8125 11.734375 
Q 24.65625 6.203125 33.40625 6.203125 
Q 37.3125 6.203125 41.140625 7.25 
Q 44.96875 8.296875 48.78125 10.40625 
L 48.78125 2.09375 
Q 45.015625 0.34375 40.984375 -0.53125 
Q 36.96875 -1.421875 32.421875 -1.421875 
Q 20.0625 -1.421875 12.78125 6.34375 
Q 5.515625 14.109375 5.515625 27.296875 
Q 5.515625 40.671875 12.859375 48.328125 
Q 20.21875 56 33.015625 56 
Q 37.15625 56 41.109375 55.140625 
Q 45.0625 54.296875 48.78125 52.59375 
z
" id="DejaVuSans-99"/>
       <path d="M 32.171875 -5.078125 
Q 28.375 -14.84375 24.75 -17.8125 
Q 21.140625 -20.796875 15.09375 -20.796875 
L 7.90625 -20.796875 
L 7.90625 -13.28125 
L 13.1875 -13.28125 
Q 16.890625 -13.28125 18.9375 -11.515625 
Q 21 -9.765625 23.484375 -3.21875 
L 25.09375 0.875 
L 2.984375 54.6875 
L 12.5 54.6875 
L 29.59375 11.921875 
L 46.6875 54.6875 
L 56.203125 54.6875 
z
" id="DejaVuSans-121"/>
       <path d="M 9.8125 72.90625 
L 19.671875 72.90625 
L 19.671875 43.015625 
L 55.515625 43.015625 
L 55.515625 72.90625 
L 65.375 72.90625 
L 65.375 0 
L 55.515625 0 
L 55.515625 34.71875 
L 19.671875 34.71875 
L 19.671875 0 
L 9.8125 0 
z
" id="DejaVuSans-72"/>
       <path d="M 5.515625 54.6875 
L 48.1875 54.6875 
L 48.1875 46.484375 
L 14.40625 7.171875 
L 48.1875 7.171875 
L 48.1875 0 
L 4.296875 0 
L 4.296875 8.203125 
L 38.09375 47.515625 
L 5.515625 47.515625 
z
" id="DejaVuSans-122"/>
      </defs>
      <use xlink:href="#DejaVuSans-70"/>
      <use x="50.269531" xlink:href="#DejaVuSans-114"/>
      <use x="89.132812" xlink:href="#DejaVuSans-101"/>
      <use x="150.65625" xlink:href="#DejaVuSans-113"/>
      <use x="214.132812" xlink:href="#DejaVuSans-117"/>
      <use x="277.511719" xlink:href="#DejaVuSans-101"/>
      <use x="339.035156" xlink:href="#DejaVuSans-110"/>
      <use x="402.414062" xlink:href="#DejaVuSans-99"/>
      <use x="457.394531" xlink:href="#DejaVuSans-121"/>
      <use x="516.574219" xlink:href="#DejaVuSans-32"/>
      <use x="548.361328" xlink:href="#DejaVuSans-91"/>
      <use x="587.375" xlink:href="#DejaVuSans-72"/>
      <use x="662.570312" xlink:href="#DejaVuSans-122"/>
      <use x="715.060547" xlink:href="#DejaVuSans-93"/>
     </g>
    </g>
   </g>
   <g id="matplotlib.axis_4">
    <g id="ytick_4">
     <g id="line2d_91">
      <path clip-path="url(#pbe0fe2aa4b)" d="M 48.982813 237.538743 
L 561.257812 237.538743 
" style="fill:none;stroke:#b0b0b0;stroke-linecap:square;stroke-width:0.8;"/>
     </g>
     <g id="line2d_92">
      <g>
       <use style="stroke:#000000;stroke-width:0.8;" x="48.982813" xlink:href="#mb882f204bd" y="237.538743"/>
      </g>
     </g>
     <g id="text_18">
      <!-- −34 -->
      <g transform="translate(20.878125 241.337962)scale(0.1 -0.1)">
       <use xlink:href="#DejaVuSans-8722"/>
       <use x="83.789062" xlink:href="#DejaVuSans-51"/>
       <use x="147.412109" xlink:href="#DejaVuSans-52"/>
      </g>
     </g>
    </g>
    <g id="ytick_5">
     <g id="line2d_93">
      <path clip-path="url(#pbe0fe2aa4b)" d="M 48.982813 210.487932 
L 561.257812 210.487932 
" style="fill:none;stroke:#b0b0b0;stroke-linecap:square;stroke-width:0.8;"/>
     </g>
     <g id="line2d_94">
      <g>
       <use style="stroke:#000000;stroke-width:0.8;" x="48.982813" xlink:href="#mb882f204bd" y="210.487932"/>
      </g>
     </g>
     <g id="text_19">
      <!-- −32 -->
      <g transform="translate(20.878125 214.287151)scale(0.1 -0.1)">
       <use xlink:href="#DejaVuSans-8722"/>
       <use x="83.789062" xlink:href="#DejaVuSans-51"/>
       <use x="147.412109" xlink:href="#DejaVuSans-50"/>
      </g>
     </g>
    </g>
    <g id="ytick_6">
     <g id="line2d_95">
      <path clip-path="url(#pbe0fe2aa4b)" d="M 48.982813 183.437121 
L 561.257812 183.437121 
" style="fill:none;stroke:#b0b0b0;stroke-linecap:square;stroke-width:0.8;"/>
     </g>
     <g id="line2d_96">
      <g>
       <use style="stroke:#000000;stroke-width:0.8;" x="48.982813" xlink:href="#mb882f204bd" y="183.437121"/>
      </g>
     </g>
     <g id="text_20">
      <!-- −30 -->
      <g transform="translate(20.878125 187.23634)scale(0.1 -0.1)">
       <use xlink:href="#DejaVuSans-8722"/>
       <use x="83.789062" xlink:href="#DejaVuSans-51"/>
       <use x="147.412109" xlink:href="#DejaVuSans-48"/>
      </g>
     </g>
    </g>
    <g id="ytick_7">
     <g id="line2d_97">
      <path clip-path="url(#pbe0fe2aa4b)" d="M 48.982813 156.38631 
L 561.257812 156.38631 
" style="fill:none;stroke:#b0b0b0;stroke-linecap:square;stroke-width:0.8;"/>
     </g>
     <g id="line2d_98">
      <g>
       <use style="stroke:#000000;stroke-width:0.8;" x="48.982813" xlink:href="#mb882f204bd" y="156.38631"/>
      </g>
     </g>
     <g id="text_21">
      <!-- −28 -->
      <g transform="translate(20.878125 160.185529)scale(0.1 -0.1)">
       <use xlink:href="#DejaVuSans-8722"/>
       <use x="83.789062" xlink:href="#DejaVuSans-50"/>
       <use x="147.412109" xlink:href="#DejaVuSans-56"/>
      </g>
     </g>
    </g>
    <g id="text_22">
     <!-- Gain [dB] -->
     <g transform="translate(14.798438 214.941406)rotate(-90)scale(0.1 -0.1)">
      <defs>
       <path d="M 59.515625 10.40625 
L 59.515625 29.984375 
L 43.40625 29.984375 
L 43.40625 38.09375 
L 69.28125 38.09375 
L 69.28125 6.78125 
Q 63.578125 2.734375 56.6875 0.65625 
Q 49.8125 -1.421875 42 -1.421875 
Q 24.90625 -1.421875 15.25 8.5625 
Q 5.609375 18.5625 5.609375 36.375 
Q 5.609375 54.25 15.25 64.234375 
Q 24.90625 74.21875 42 74.21875 
Q 49.125 74.21875 55.546875 72.453125 
Q 61.96875 70.703125 67.390625 67.28125 
L 67.390625 56.78125 
Q 61.921875 61.421875 55.765625 63.765625 
Q 49.609375 66.109375 42.828125 66.109375 
Q 29.4375 66.109375 22.71875 58.640625 
Q 16.015625 51.171875 16.015625 36.375 
Q 16.015625 21.625 22.71875 14.15625 
Q 29.4375 6.6875 42.828125 6.6875 
Q 48.046875 6.6875 52.140625 7.59375 
Q 56.25 8.5 59.515625 10.40625 
z
" id="DejaVuSans-71"/>
       <path d="M 34.28125 27.484375 
Q 23.390625 27.484375 19.1875 25 
Q 14.984375 22.515625 14.984375 16.5 
Q 14.984375 11.71875 18.140625 8.90625 
Q 21.296875 6.109375 26.703125 6.109375 
Q 34.1875 6.109375 38.703125 11.40625 
Q 43.21875 16.703125 43.21875 25.484375 
L 43.21875 27.484375 
z
M 52.203125 31.203125 
L 52.203125 0 
L 43.21875 0 
L 43.21875 8.296875 
Q 40.140625 3.328125 35.546875 0.953125 
Q 30.953125 -1.421875 24.3125 -1.421875 
Q 15.921875 -1.421875 10.953125 3.296875 
Q 6 8.015625 6 15.921875 
Q 6 25.140625 12.171875 29.828125 
Q 18.359375 34.515625 30.609375 34.515625 
L 43.21875 34.515625 
L 43.21875 35.40625 
Q 43.21875 41.609375 39.140625 45 
Q 35.0625 48.390625 27.6875 48.390625 
Q 23 48.390625 18.546875 47.265625 
Q 14.109375 46.140625 10.015625 43.890625 
L 10.015625 52.203125 
Q 14.9375 54.109375 19.578125 55.046875 
Q 24.21875 56 28.609375 56 
Q 40.484375 56 46.34375 49.84375 
Q 52.203125 43.703125 52.203125 31.203125 
z
" id="DejaVuSans-97"/>
       <path d="M 45.40625 46.390625 
L 45.40625 75.984375 
L 54.390625 75.984375 
L 54.390625 0 
L 45.40625 0 
L 45.40625 8.203125 
Q 42.578125 3.328125 38.25 0.953125 
Q 33.9375 -1.421875 27.875 -1.421875 
Q 17.96875 -1.421875 11.734375 6.484375 
Q 5.515625 14.40625 5.515625 27.296875 
Q 5.515625 40.1875 11.734375 48.09375 
Q 17.96875 56 27.875 56 
Q 33.9375 56 38.25 53.625 
Q 42.578125 51.265625 45.40625 46.390625 
z
M 14.796875 27.296875 
Q 14.796875 17.390625 18.875 11.75 
Q 22.953125 6.109375 30.078125 6.109375 
Q 37.203125 6.109375 41.296875 11.75 
Q 45.40625 17.390625 45.40625 27.296875 
Q 45.40625 37.203125 41.296875 42.84375 
Q 37.203125 48.484375 30.078125 48.484375 
Q 22.953125 48.484375 18.875 42.84375 
Q 14.796875 37.203125 14.796875 27.296875 
z
" id="DejaVuSans-100"/>
       <path d="M 19.671875 34.8125 
L 19.671875 8.109375 
L 35.5 8.109375 
Q 43.453125 8.109375 47.28125 11.40625 
Q 51.125 14.703125 51.125 21.484375 
Q 51.125 28.328125 47.28125 31.5625 
Q 43.453125 34.8125 35.5 34.8125 
z
M 19.671875 64.796875 
L 19.671875 42.828125 
L 34.28125 42.828125 
Q 41.5 42.828125 45.03125 45.53125 
Q 48.578125 48.25 48.578125 53.8125 
Q 48.578125 59.328125 45.03125 62.0625 
Q 41.5 64.796875 34.28125 64.796875 
z
M 9.8125 72.90625 
L 35.015625 72.90625 
Q 46.296875 72.90625 52.390625 68.21875 
Q 58.5 63.53125 58.5 54.890625 
Q 58.5 48.1875 55.375 44.234375 
Q 52.25 40.28125 46.1875 39.3125 
Q 53.46875 37.75 57.5 32.78125 
Q 61.53125 27.828125 61.53125 20.40625 
Q 61.53125 10.640625 54.890625 5.3125 
Q 48.25 0 35.984375 0 
L 9.8125 0 
z
" id="DejaVuSans-66"/>
      </defs>
      <use xlink:href="#DejaVuSans-71"/>
      <use x="77.490234" xlink:href="#DejaVuSans-97"/>
      <use x="138.769531" xlink:href="#DejaVuSans-105"/>
      <use x="166.552734" xlink:href="#DejaVuSans-110"/>
      <use x="229.931641" xlink:href="#DejaVuSans-32"/>
      <use x="261.71875" xlink:href="#DejaVuSans-91"/>
      <use x="300.732422" xlink:href="#DejaVuSans-100"/>
      <use x="364.208984" xlink:href="#DejaVuSans-66"/>
      <use x="432.8125" xlink:href="#DejaVuSans-93"/>
     </g>
    </g>
   </g>
   <g id="line2d_99">
    <path clip-path="url(#pbe0fe2aa4b)" d="M 72.26804 149.599616 
L 83.910654 149.072982 
L 95.553268 148.738516 
L 107.195879 148.526949 
L 118.838493 148.39373 
L 130.481109 148.310558 
L 142.123722 148.259711 
L 153.766335 148.230302 
L 165.408951 148.215958 
L 177.051561 148.213636 
L 188.694176 148.22282 
L 200.336791 148.245471 
L 211.979404 148.286463 
L 223.622018 148.354492 
L 235.26463 148.464132 
L 246.907243 148.638524 
L 258.54986 148.913966 
L 270.192473 149.346902 
L 281.835085 150.02293 
L 293.477699 151.069335 
L 305.120312 152.667835 
L 316.762926 155.06191 
L 328.40554 158.545884 
L 340.048153 163.41491 
L 351.690767 169.860946 
L 363.333379 177.831831 
L 374.975995 186.926126 
L 386.618607 196.421885 
L 398.261221 205.47088 
L 409.903836 213.365042 
L 421.546449 219.722928 
L 433.189063 224.509324 
L 444.831676 227.92545 
L 456.47429 230.2686 
L 468.116904 231.831113 
L 479.759516 232.853217 
L 491.402132 233.513379 
L 503.044747 233.936306 
L 514.687356 234.20584 
L 526.329971 234.377291 
L 537.972585 234.486364 
" style="fill:none;stroke:#0000ff;stroke-linecap:square;stroke-width:1.5;"/>
    <defs>
     <path d="M 0 1.5 
C 0.397805 1.5 0.77937 1.341951 1.06066 1.06066 
C 1.341951 0.77937 1.5 0.397805 1.5 0 
C 1.5 -0.397805 1.341951 -0.77937 1.06066 -1.06066 
C 0.77937 -1.341951 0.397805 -1.5 0 -1.5 
C -0.397805 -1.5 -0.77937 -1.341951 -1.06066 -1.06066 
C -1.341951 -0.77937 -1.5 -0.397805 -1.5 0 
C -1.5 0.397805 -1.341951 0.77937 -1.06066 1.06066 
C -0.77937 1.341951 -0.397805 1.5 0 1.5 
z
" id="m2ea32b15ec" style="stroke:#0000ff;"/>
    </defs>
    <g clip-path="url(#pbe0fe2aa4b)">
     <use style="fill:#0000ff;stroke:#0000ff;" x="72.26804" xlink:href="#m2ea32b15ec" y="149.599616"/>
     <use style="fill:#0000ff;stroke:#0000ff;" x="83.910654" xlink:href="#m2ea32b15ec" y="149.072982"/>
     <use style="fill:#0000ff;stroke:#0000ff;" x="95.553268" xlink:href="#m2ea32b15ec" y="148.738516"/>
     <use style="fill:#0000ff;stroke:#0000ff;" x="107.195879" xlink:href="#m2ea32b15ec" y="148.526949"/>
     <use style="fill:#0000ff;stroke:#0000ff;" x="118.838493" xlink:href="#m2ea32b15ec" y="148.39373"/>
     <use style="fill:#0000ff;stroke:#0000ff;" x="130.481109" xlink:href="#m2ea32b15ec" y="148.310558"/>
     <use style="fill:#0000ff;stroke:#0000ff;" x="142.123722" xlink:href="#m2ea32b15ec" y="148.259711"/>
     <use style="fill:#0000ff;stroke:#0000ff;" x="153.766335" xlink:href="#m2ea32b15ec" y="148.230302"/>
     <use style="fill:#0000ff;stroke:#0000ff;" x="165.408951" xlink:href="#m2ea32b15ec" y="148.215958"/>
     <use style="fill:#0000ff;stroke:#0000ff;" x="177.051561" xlink:href="#m2ea32b15ec" y="148.213636"/>
     <use style="fill:#0000ff;stroke:#0000ff;" x="188.694176" xlink:href="#m2ea32b15ec" y="148.22282"/>
     <use style="fill:#0000ff;stroke:#0000ff;" x="200.336791" xlink:href="#m2ea32b15ec" y="148.245471"/>
     <use style="fill:#0000ff;stroke:#0000ff;" x="211.979404" xlink:href="#m2ea32b15ec" y="148.286463"/>
     <use style="fill:#0000ff;stroke:#0000ff;" x="223.622018" xlink:href="#m2ea32b15ec" y="148.354492"/>
     <use style="fill:#0000ff;stroke:#0000ff;" x="235.26463" xlink:href="#m2ea32b15ec" y="148.464132"/>
     <use style="fill:#0000ff;stroke:#0000ff;" x="246.907243" xlink:href="#m2ea32b15ec" y="148.638524"/>
     <use style="fill:#0000ff;stroke:#0000ff;" x="258.54986" xlink:href="#m2ea32b15ec" y="148.913966"/>
     <use style="fill:#0000ff;stroke:#0000ff;" x="270.192473" xlink:href="#m2ea32b15ec" y="149.346902"/>
     <use style="fill:#0000ff;stroke:#0000ff;" x="281.835085" xlink:href="#m2ea32b15ec" y="150.02293"/>
     <use style="fill:#0000ff;stroke:#0000ff;" x="293.477699" xlink:href="#m2ea32b15ec" y="151.069335"/>
     <use style="fill:#0000ff;stroke:#0000ff;" x="305.120312" xlink:href="#m2ea32b15ec" y="152.667835"/>
     <use style="fill:#0000ff;stroke:#0000ff;" x="316.762926" xlink:href="#m2ea32b15ec" y="155.06191"/>
     <use style="fill:#0000ff;stroke:#0000ff;" x="328.40554" xlink:href="#m2ea32b15ec" y="158.545884"/>
     <use style="fill:#0000ff;stroke:#0000ff;" x="340.048153" xlink:href="#m2ea32b15ec" y="163.41491"/>
     <use style="fill:#0000ff;stroke:#0000ff;" x="351.690767" xlink:href="#m2ea32b15ec" y="169.860946"/>
     <use style="fill:#0000ff;stroke:#0000ff;" x="363.333379" xlink:href="#m2ea32b15ec" y="177.831831"/>
     <use style="fill:#0000ff;stroke:#0000ff;" x="374.975995" xlink:href="#m2ea32b15ec" y="186.926126"/>
     <use style="fill:#0000ff;stroke:#0000ff;" x="386.618607" xlink:href="#m2ea32b15ec" y="196.421885"/>
     <use style="fill:#0000ff;stroke:#0000ff;" x="398.261221" xlink:href="#m2ea32b15ec" y="205.47088"/>
     <use style="fill:#0000ff;stroke:#0000ff;" x="409.903836" xlink:href="#m2ea32b15ec" y="213.365042"/>
     <use style="fill:#0000ff;stroke:#0000ff;" x="421.546449" xlink:href="#m2ea32b15ec" y="219.722928"/>
     <use style="fill:#0000ff;stroke:#0000ff;" x="433.189063" xlink:href="#m2ea32b15ec" y="224.509324"/>
     <use style="fill:#0000ff;stroke:#0000ff;" x="444.831676" xlink:href="#m2ea32b15ec" y="227.92545"/>
     <use style="fill:#0000ff;stroke:#0000ff;" x="456.47429" xlink:href="#m2ea32b15ec" y="230.2686"/>
     <use style="fill:#0000ff;stroke:#0000ff;" x="468.116904" xlink:href="#m2ea32b15ec" y="231.831113"/>
     <use style="fill:#0000ff;stroke:#0000ff;" x="479.759516" xlink:href="#m2ea32b15ec" y="232.853217"/>
     <use style="fill:#0000ff;stroke:#0000ff;" x="491.402132" xlink:href="#m2ea32b15ec" y="233.513379"/>
     <use style="fill:#0000ff;stroke:#0000ff;" x="503.044747" xlink:href="#m2ea32b15ec" y="233.936306"/>
     <use style="fill:#0000ff;stroke:#0000ff;" x="514.687356" xlink:href="#m2ea32b15ec" y="234.20584"/>
     <use style="fill:#0000ff;stroke:#0000ff;" x="526.329971" xlink:href="#m2ea32b15ec" y="234.377291"/>
     <use style="fill:#0000ff;stroke:#0000ff;" x="537.972585" xlink:href="#m2ea32b15ec" y="234.486364"/>
    </g>
   </g>
   <g id="line2d_100">
    <path clip-path="url(#pbe0fe2aa4b)" d="M 328.617451 238.8 
L 328.617451 143.9 
" style="fill:none;stroke:#ff0000;stroke-dasharray:5.55,2.4;stroke-dashoffset:0;stroke-width:1.5;"/>
   </g>
   <g id="patch_8">
    <path d="M 48.982813 238.8 
L 48.982813 143.9 
" style="fill:none;stroke:#000000;stroke-linecap:square;stroke-linejoin:miter;stroke-width:0.8;"/>
   </g>
   <g id="patch_9">
    <path d="M 561.257812 238.8 
L 561.257812 143.9 
" style="fill:none;stroke:#000000;stroke-linecap:square;stroke-linejoin:miter;stroke-width:0.8;"/>
   </g>
   <g id="patch_10">
    <path d="M 48.982812 238.8 
L 561.257812 238.8 
" style="fill:none;stroke:#000000;stroke-linecap:square;stroke-linejoin:miter;stroke-width:0.8;"/>
   </g>
   <g id="patch_11">
    <path d="M 48.982812 143.9 
L 561.257812 143.9 
" style="fill:none;stroke:#000000;stroke-linecap:square;stroke-linejoin:miter;stroke-width:0.8;"/>
   </g>
  </g>
 </g>
 <defs>
  <clipPath id="p7fb393e185">
   <rect height="94.9" width="512.275" x="48.982813" y="7.2"/>
  </clipPath>
  <clipPath id="pbe0fe2aa4b">
   <rect height="94.9" width="512.275" x="48.982813" y="143.9"/>
  </clipPath>
 </defs>
</svg>
