<?xml version="1.0" encoding="utf-8" standalone="no"?>
<!DOCTYPE svg PUBLIC "-//W3C//DTD SVG 1.1//EN"
  "http://www.w3.org/Graphics/SVG/1.1/DTD/svg11.dtd">
<!-- Created with matplotlib (https://matplotlib.org/) -->
<svg height="304.166062pt" version="1.1" viewBox="0 0 456.192187 304.166062" width="456.192187pt" xmlns="http://www.w3.org/2000/svg" xmlns:xlink="http://www.w3.org/1999/xlink">
 <metadata>
  <rdf:RDF xmlns:cc="http://creativecommons.org/ns#" xmlns:dc="http://purl.org/dc/elements/1.1/" xmlns:rdf="http://www.w3.org/1999/02/22-rdf-syntax-ns#">
   <cc:Work>
    <dc:type rdf:resource="http://purl.org/dc/dcmitype/StillImage"/>
    <dc:date>2021-03-27T19:08:45.064301</dc:date>
    <dc:format>image/svg+xml</dc:format>
    <dc:creator>
     <cc:Agent>
      <dc:title>Matplotlib v3.3.4, https://matplotlib.org/</dc:title>
     </cc:Agent>
    </dc:creator>
   </cc:Work>
  </rdf:RDF>
 </metadata>
 <defs>
  <style type="text/css">*{stroke-linecap:butt;stroke-linejoin:round;}</style>
 </defs>
 <g id="figure_1">
  <g id="patch_1">
   <path d="M 0 304.166062 
L 456.192187 304.166062 
L 456.192187 0 
L 0 0 
z
" style="fill:none;"/>
  </g>
  <g id="axes_1">
   <g id="patch_2">
    <path d="M 58.523438 235.238437 
L 393.323438 235.238437 
L 393.323438 17.798437 
L 58.523438 17.798437 
z
" style="fill:#ffffff;"/>
   </g>
   <g id="matplotlib.axis_1">
    <g id="xtick_1">
     <g id="line2d_1">
      <defs>
       <path d="M 0 0 
L 0 3.5 
" id="mf1f531b6fa" style="stroke:#000000;stroke-width:0.8;"/>
      </defs>
      <g>
       <use style="stroke:#000000;stroke-width:0.8;" x="73.720312" xlink:href="#mf1f531b6fa" y="235.238437"/>
      </g>
     </g>
     <g id="text_1">
      <!-- 100.0 -->
      <g transform="translate(59.40625 249.836875)scale(0.1 -0.1)">
       <defs>
        <path d="M 12.40625 8.296875 
L 28.515625 8.296875 
L 28.515625 63.921875 
L 10.984375 60.40625 
L 10.984375 69.390625 
L 28.421875 72.90625 
L 38.28125 72.90625 
L 38.28125 8.296875 
L 54.390625 8.296875 
L 54.390625 0 
L 12.40625 0 
z
" id="DejaVuSans-49"/>
        <path d="M 31.78125 66.40625 
Q 24.171875 66.40625 20.328125 58.90625 
Q 16.5 51.421875 16.5 36.375 
Q 16.5 21.390625 20.328125 13.890625 
Q 24.171875 6.390625 31.78125 6.390625 
Q 39.453125 6.390625 43.28125 13.890625 
Q 47.125 21.390625 47.125 36.375 
Q 47.125 51.421875 43.28125 58.90625 
Q 39.453125 66.40625 31.78125 66.40625 
z
M 31.78125 74.21875 
Q 44.046875 74.21875 50.515625 64.515625 
Q 56.984375 54.828125 56.984375 36.375 
Q 56.984375 17.96875 50.515625 8.265625 
Q 44.046875 -1.421875 31.78125 -1.421875 
Q 19.53125 -1.421875 13.0625 8.265625 
Q 6.59375 17.96875 6.59375 36.375 
Q 6.59375 54.828125 13.0625 64.515625 
Q 19.53125 74.21875 31.78125 74.21875 
z
" id="DejaVuSans-48"/>
        <path d="M 10.6875 12.40625 
L 21 12.40625 
L 21 0 
L 10.6875 0 
z
" id="DejaVuSans-46"/>
       </defs>
       <use xlink:href="#DejaVuSans-49"/>
       <use x="63.623047" xlink:href="#DejaVuSans-48"/>
       <use x="127.246094" xlink:href="#DejaVuSans-48"/>
       <use x="190.869141" xlink:href="#DejaVuSans-46"/>
       <use x="222.65625" xlink:href="#DejaVuSans-48"/>
      </g>
     </g>
    </g>
    <g id="xtick_2">
     <g id="line2d_2">
      <g>
       <use style="stroke:#000000;stroke-width:0.8;" x="111.76843" xlink:href="#mf1f531b6fa" y="235.238437"/>
      </g>
     </g>
     <g id="text_2">
      <!-- 100.5 -->
      <g transform="translate(97.454368 249.836875)scale(0.1 -0.1)">
       <defs>
        <path d="M 10.796875 72.90625 
L 49.515625 72.90625 
L 49.515625 64.59375 
L 19.828125 64.59375 
L 19.828125 46.734375 
Q 21.96875 47.46875 24.109375 47.828125 
Q 26.265625 48.1875 28.421875 48.1875 
Q 40.625 48.1875 47.75 41.5 
Q 54.890625 34.8125 54.890625 23.390625 
Q 54.890625 11.625 47.5625 5.09375 
Q 40.234375 -1.421875 26.90625 -1.421875 
Q 22.3125 -1.421875 17.546875 -0.640625 
Q 12.796875 0.140625 7.71875 1.703125 
L 7.71875 11.625 
Q 12.109375 9.234375 16.796875 8.0625 
Q 21.484375 6.890625 26.703125 6.890625 
Q 35.15625 6.890625 40.078125 11.328125 
Q 45.015625 15.765625 45.015625 23.390625 
Q 45.015625 31 40.078125 35.4375 
Q 35.15625 39.890625 26.703125 39.890625 
Q 22.75 39.890625 18.8125 39.015625 
Q 14.890625 38.140625 10.796875 36.28125 
z
" id="DejaVuSans-53"/>
       </defs>
       <use xlink:href="#DejaVuSans-49"/>
       <use x="63.623047" xlink:href="#DejaVuSans-48"/>
       <use x="127.246094" xlink:href="#DejaVuSans-48"/>
       <use x="190.869141" xlink:href="#DejaVuSans-46"/>
       <use x="222.65625" xlink:href="#DejaVuSans-53"/>
      </g>
     </g>
    </g>
    <g id="xtick_3">
     <g id="line2d_3">
      <g>
       <use style="stroke:#000000;stroke-width:0.8;" x="149.816548" xlink:href="#mf1f531b6fa" y="235.238437"/>
      </g>
     </g>
     <g id="text_3">
      <!-- 101.0 -->
      <g transform="translate(135.502486 249.836875)scale(0.1 -0.1)">
       <use xlink:href="#DejaVuSans-49"/>
       <use x="63.623047" xlink:href="#DejaVuSans-48"/>
       <use x="127.246094" xlink:href="#DejaVuSans-49"/>
       <use x="190.869141" xlink:href="#DejaVuSans-46"/>
       <use x="222.65625" xlink:href="#DejaVuSans-48"/>
      </g>
     </g>
    </g>
    <g id="xtick_4">
     <g id="line2d_4">
      <g>
       <use style="stroke:#000000;stroke-width:0.8;" x="187.864666" xlink:href="#mf1f531b6fa" y="235.238437"/>
      </g>
     </g>
     <g id="text_4">
      <!-- 101.5 -->
      <g transform="translate(173.550604 249.836875)scale(0.1 -0.1)">
       <use xlink:href="#DejaVuSans-49"/>
       <use x="63.623047" xlink:href="#DejaVuSans-48"/>
       <use x="127.246094" xlink:href="#DejaVuSans-49"/>
       <use x="190.869141" xlink:href="#DejaVuSans-46"/>
       <use x="222.65625" xlink:href="#DejaVuSans-53"/>
      </g>
     </g>
    </g>
    <g id="xtick_5">
     <g id="line2d_5">
      <g>
       <use style="stroke:#000000;stroke-width:0.8;" x="225.912784" xlink:href="#mf1f531b6fa" y="235.238437"/>
      </g>
     </g>
     <g id="text_5">
      <!-- 102.0 -->
      <g transform="translate(211.598722 249.836875)scale(0.1 -0.1)">
       <defs>
        <path d="M 19.1875 8.296875 
L 53.609375 8.296875 
L 53.609375 0 
L 7.328125 0 
L 7.328125 8.296875 
Q 12.9375 14.109375 22.625 23.890625 
Q 32.328125 33.6875 34.8125 36.53125 
Q 39.546875 41.84375 41.421875 45.53125 
Q 43.3125 49.21875 43.3125 52.78125 
Q 43.3125 58.59375 39.234375 62.25 
Q 35.15625 65.921875 28.609375 65.921875 
Q 23.96875 65.921875 18.8125 64.3125 
Q 13.671875 62.703125 7.8125 59.421875 
L 7.8125 69.390625 
Q 13.765625 71.78125 18.9375 73 
Q 24.125 74.21875 28.421875 74.21875 
Q 39.75 74.21875 46.484375 68.546875 
Q 53.21875 62.890625 53.21875 53.421875 
Q 53.21875 48.921875 51.53125 44.890625 
Q 49.859375 40.875 45.40625 35.40625 
Q 44.1875 33.984375 37.640625 27.21875 
Q 31.109375 20.453125 19.1875 8.296875 
z
" id="DejaVuSans-50"/>
       </defs>
       <use xlink:href="#DejaVuSans-49"/>
       <use x="63.623047" xlink:href="#DejaVuSans-48"/>
       <use x="127.246094" xlink:href="#DejaVuSans-50"/>
       <use x="190.869141" xlink:href="#DejaVuSans-46"/>
       <use x="222.65625" xlink:href="#DejaVuSans-48"/>
      </g>
     </g>
    </g>
    <g id="xtick_6">
     <g id="line2d_6">
      <g>
       <use style="stroke:#000000;stroke-width:0.8;" x="263.960902" xlink:href="#mf1f531b6fa" y="235.238437"/>
      </g>
     </g>
     <g id="text_6">
      <!-- 102.5 -->
      <g transform="translate(249.646839 249.836875)scale(0.1 -0.1)">
       <use xlink:href="#DejaVuSans-49"/>
       <use x="63.623047" xlink:href="#DejaVuSans-48"/>
       <use x="127.246094" xlink:href="#DejaVuSans-50"/>
       <use x="190.869141" xlink:href="#DejaVuSans-46"/>
       <use x="222.65625" xlink:href="#DejaVuSans-53"/>
      </g>
     </g>
    </g>
    <g id="xtick_7">
     <g id="line2d_7">
      <g>
       <use style="stroke:#000000;stroke-width:0.8;" x="302.00902" xlink:href="#mf1f531b6fa" y="235.238437"/>
      </g>
     </g>
     <g id="text_7">
      <!-- 103.0 -->
      <g transform="translate(287.694957 249.836875)scale(0.1 -0.1)">
       <defs>
        <path d="M 40.578125 39.3125 
Q 47.65625 37.796875 51.625 33 
Q 55.609375 28.21875 55.609375 21.1875 
Q 55.609375 10.40625 48.1875 4.484375 
Q 40.765625 -1.421875 27.09375 -1.421875 
Q 22.515625 -1.421875 17.65625 -0.515625 
Q 12.796875 0.390625 7.625 2.203125 
L 7.625 11.71875 
Q 11.71875 9.328125 16.59375 8.109375 
Q 21.484375 6.890625 26.8125 6.890625 
Q 36.078125 6.890625 40.9375 10.546875 
Q 45.796875 14.203125 45.796875 21.1875 
Q 45.796875 27.640625 41.28125 31.265625 
Q 36.765625 34.90625 28.71875 34.90625 
L 20.21875 34.90625 
L 20.21875 43.015625 
L 29.109375 43.015625 
Q 36.375 43.015625 40.234375 45.921875 
Q 44.09375 48.828125 44.09375 54.296875 
Q 44.09375 59.90625 40.109375 62.90625 
Q 36.140625 65.921875 28.71875 65.921875 
Q 24.65625 65.921875 20.015625 65.03125 
Q 15.375 64.15625 9.8125 62.3125 
L 9.8125 71.09375 
Q 15.4375 72.65625 20.34375 73.4375 
Q 25.25 74.21875 29.59375 74.21875 
Q 40.828125 74.21875 47.359375 69.109375 
Q 53.90625 64.015625 53.90625 55.328125 
Q 53.90625 49.265625 50.4375 45.09375 
Q 46.96875 40.921875 40.578125 39.3125 
z
" id="DejaVuSans-51"/>
       </defs>
       <use xlink:href="#DejaVuSans-49"/>
       <use x="63.623047" xlink:href="#DejaVuSans-48"/>
       <use x="127.246094" xlink:href="#DejaVuSans-51"/>
       <use x="190.869141" xlink:href="#DejaVuSans-46"/>
       <use x="222.65625" xlink:href="#DejaVuSans-48"/>
      </g>
     </g>
    </g>
    <g id="xtick_8">
     <g id="line2d_8">
      <g>
       <use style="stroke:#000000;stroke-width:0.8;" x="340.057138" xlink:href="#mf1f531b6fa" y="235.238437"/>
      </g>
     </g>
     <g id="text_8">
      <!-- 103.5 -->
      <g transform="translate(325.743075 249.836875)scale(0.1 -0.1)">
       <use xlink:href="#DejaVuSans-49"/>
       <use x="63.623047" xlink:href="#DejaVuSans-48"/>
       <use x="127.246094" xlink:href="#DejaVuSans-51"/>
       <use x="190.869141" xlink:href="#DejaVuSans-46"/>
       <use x="222.65625" xlink:href="#DejaVuSans-53"/>
      </g>
     </g>
    </g>
    <g id="xtick_9">
     <g id="line2d_9">
      <g>
       <use style="stroke:#000000;stroke-width:0.8;" x="378.105256" xlink:href="#mf1f531b6fa" y="235.238437"/>
      </g>
     </g>
     <g id="text_9">
      <!-- 104.0 -->
      <g transform="translate(363.791193 249.836875)scale(0.1 -0.1)">
       <defs>
        <path d="M 37.796875 64.3125 
L 12.890625 25.390625 
L 37.796875 25.390625 
z
M 35.203125 72.90625 
L 47.609375 72.90625 
L 47.609375 25.390625 
L 58.015625 25.390625 
L 58.015625 17.1875 
L 47.609375 17.1875 
L 47.609375 0 
L 37.796875 0 
L 37.796875 17.1875 
L 4.890625 17.1875 
L 4.890625 26.703125 
z
" id="DejaVuSans-52"/>
       </defs>
       <use xlink:href="#DejaVuSans-49"/>
       <use x="63.623047" xlink:href="#DejaVuSans-48"/>
       <use x="127.246094" xlink:href="#DejaVuSans-52"/>
       <use x="190.869141" xlink:href="#DejaVuSans-46"/>
       <use x="222.65625" xlink:href="#DejaVuSans-48"/>
      </g>
     </g>
    </g>
   </g>
   <g id="matplotlib.axis_2">
    <g id="ytick_1">
     <g id="line2d_10">
      <defs>
       <path d="M 0 0 
L -3.5 0 
" id="m3d8f3336f3" style="stroke:#000000;stroke-width:0.8;"/>
      </defs>
      <g>
       <use style="stroke:#000000;stroke-width:0.8;" x="58.523438" xlink:href="#m3d8f3336f3" y="225.354954"/>
      </g>
     </g>
     <g id="text_10">
      <!-- −1.00 -->
      <g style="fill:#1f77b4;" transform="translate(20.878125 229.154173)scale(0.1 -0.1)">
       <defs>
        <path d="M 10.59375 35.5 
L 73.1875 35.5 
L 73.1875 27.203125 
L 10.59375 27.203125 
z
" id="DejaVuSans-8722"/>
       </defs>
       <use xlink:href="#DejaVuSans-8722"/>
       <use x="83.789062" xlink:href="#DejaVuSans-49"/>
       <use x="147.412109" xlink:href="#DejaVuSans-46"/>
       <use x="179.199219" xlink:href="#DejaVuSans-48"/>
       <use x="242.822266" xlink:href="#DejaVuSans-48"/>
      </g>
     </g>
    </g>
    <g id="ytick_2">
     <g id="line2d_11">
      <g>
       <use style="stroke:#000000;stroke-width:0.8;" x="58.523438" xlink:href="#m3d8f3336f3" y="200.645825"/>
      </g>
     </g>
     <g id="text_11">
      <!-- −0.75 -->
      <g style="fill:#1f77b4;" transform="translate(20.878125 204.445044)scale(0.1 -0.1)">
       <defs>
        <path d="M 8.203125 72.90625 
L 55.078125 72.90625 
L 55.078125 68.703125 
L 28.609375 0 
L 18.3125 0 
L 43.21875 64.59375 
L 8.203125 64.59375 
z
" id="DejaVuSans-55"/>
       </defs>
       <use xlink:href="#DejaVuSans-8722"/>
       <use x="83.789062" xlink:href="#DejaVuSans-48"/>
       <use x="147.412109" xlink:href="#DejaVuSans-46"/>
       <use x="179.199219" xlink:href="#DejaVuSans-55"/>
       <use x="242.822266" xlink:href="#DejaVuSans-53"/>
      </g>
     </g>
    </g>
    <g id="ytick_3">
     <g id="line2d_12">
      <g>
       <use style="stroke:#000000;stroke-width:0.8;" x="58.523438" xlink:href="#m3d8f3336f3" y="175.936696"/>
      </g>
     </g>
     <g id="text_12">
      <!-- −0.50 -->
      <g style="fill:#1f77b4;" transform="translate(20.878125 179.735915)scale(0.1 -0.1)">
       <use xlink:href="#DejaVuSans-8722"/>
       <use x="83.789062" xlink:href="#DejaVuSans-48"/>
       <use x="147.412109" xlink:href="#DejaVuSans-46"/>
       <use x="179.199219" xlink:href="#DejaVuSans-53"/>
       <use x="242.822266" xlink:href="#DejaVuSans-48"/>
      </g>
     </g>
    </g>
    <g id="ytick_4">
     <g id="line2d_13">
      <g>
       <use style="stroke:#000000;stroke-width:0.8;" x="58.523438" xlink:href="#m3d8f3336f3" y="151.227567"/>
      </g>
     </g>
     <g id="text_13">
      <!-- −0.25 -->
      <g style="fill:#1f77b4;" transform="translate(20.878125 155.026785)scale(0.1 -0.1)">
       <use xlink:href="#DejaVuSans-8722"/>
       <use x="83.789062" xlink:href="#DejaVuSans-48"/>
       <use x="147.412109" xlink:href="#DejaVuSans-46"/>
       <use x="179.199219" xlink:href="#DejaVuSans-50"/>
       <use x="242.822266" xlink:href="#DejaVuSans-53"/>
      </g>
     </g>
    </g>
    <g id="ytick_5">
     <g id="line2d_14">
      <g>
       <use style="stroke:#000000;stroke-width:0.8;" x="58.523438" xlink:href="#m3d8f3336f3" y="126.518438"/>
      </g>
     </g>
     <g id="text_14">
      <!-- 0.00 -->
      <g style="fill:#1f77b4;" transform="translate(29.257813 130.317656)scale(0.1 -0.1)">
       <use xlink:href="#DejaVuSans-48"/>
       <use x="63.623047" xlink:href="#DejaVuSans-46"/>
       <use x="95.410156" xlink:href="#DejaVuSans-48"/>
       <use x="159.033203" xlink:href="#DejaVuSans-48"/>
      </g>
     </g>
    </g>
    <g id="ytick_6">
     <g id="line2d_15">
      <g>
       <use style="stroke:#000000;stroke-width:0.8;" x="58.523438" xlink:href="#m3d8f3336f3" y="101.809308"/>
      </g>
     </g>
     <g id="text_15">
      <!-- 0.25 -->
      <g style="fill:#1f77b4;" transform="translate(29.257813 105.608527)scale(0.1 -0.1)">
       <use xlink:href="#DejaVuSans-48"/>
       <use x="63.623047" xlink:href="#DejaVuSans-46"/>
       <use x="95.410156" xlink:href="#DejaVuSans-50"/>
       <use x="159.033203" xlink:href="#DejaVuSans-53"/>
      </g>
     </g>
    </g>
    <g id="ytick_7">
     <g id="line2d_16">
      <g>
       <use style="stroke:#000000;stroke-width:0.8;" x="58.523438" xlink:href="#m3d8f3336f3" y="77.100179"/>
      </g>
     </g>
     <g id="text_16">
      <!-- 0.50 -->
      <g style="fill:#1f77b4;" transform="translate(29.257813 80.899398)scale(0.1 -0.1)">
       <use xlink:href="#DejaVuSans-48"/>
       <use x="63.623047" xlink:href="#DejaVuSans-46"/>
       <use x="95.410156" xlink:href="#DejaVuSans-53"/>
       <use x="159.033203" xlink:href="#DejaVuSans-48"/>
      </g>
     </g>
    </g>
    <g id="ytick_8">
     <g id="line2d_17">
      <g>
       <use style="stroke:#000000;stroke-width:0.8;" x="58.523438" xlink:href="#m3d8f3336f3" y="52.39105"/>
      </g>
     </g>
     <g id="text_17">
      <!-- 0.75 -->
      <g style="fill:#1f77b4;" transform="translate(29.257813 56.190269)scale(0.1 -0.1)">
       <use xlink:href="#DejaVuSans-48"/>
       <use x="63.623047" xlink:href="#DejaVuSans-46"/>
       <use x="95.410156" xlink:href="#DejaVuSans-55"/>
       <use x="159.033203" xlink:href="#DejaVuSans-53"/>
      </g>
     </g>
    </g>
    <g id="ytick_9">
     <g id="line2d_18">
      <g>
       <use style="stroke:#000000;stroke-width:0.8;" x="58.523438" xlink:href="#m3d8f3336f3" y="27.681921"/>
      </g>
     </g>
     <g id="text_18">
      <!-- 1.00 -->
      <g style="fill:#1f77b4;" transform="translate(29.257813 31.48114)scale(0.1 -0.1)">
       <use xlink:href="#DejaVuSans-49"/>
       <use x="63.623047" xlink:href="#DejaVuSans-46"/>
       <use x="95.410156" xlink:href="#DejaVuSans-48"/>
       <use x="159.033203" xlink:href="#DejaVuSans-48"/>
      </g>
     </g>
    </g>
    <g id="text_19">
     <!-- IN [V] -->
     <g style="fill:#1f77b4;" transform="translate(14.798438 140.645)rotate(-90)scale(0.1 -0.1)">
      <defs>
       <path d="M 9.8125 72.90625 
L 19.671875 72.90625 
L 19.671875 0 
L 9.8125 0 
z
" id="DejaVuSans-73"/>
       <path d="M 9.8125 72.90625 
L 23.09375 72.90625 
L 55.421875 11.921875 
L 55.421875 72.90625 
L 64.984375 72.90625 
L 64.984375 0 
L 51.703125 0 
L 19.390625 60.984375 
L 19.390625 0 
L 9.8125 0 
z
" id="DejaVuSans-78"/>
       <path id="DejaVuSans-32"/>
       <path d="M 8.59375 75.984375 
L 29.296875 75.984375 
L 29.296875 69 
L 17.578125 69 
L 17.578125 -6.203125 
L 29.296875 -6.203125 
L 29.296875 -13.1875 
L 8.59375 -13.1875 
z
" id="DejaVuSans-91"/>
       <path d="M 28.609375 0 
L 0.78125 72.90625 
L 11.078125 72.90625 
L 34.1875 11.53125 
L 57.328125 72.90625 
L 67.578125 72.90625 
L 39.796875 0 
z
" id="DejaVuSans-86"/>
       <path d="M 30.421875 75.984375 
L 30.421875 -13.1875 
L 9.71875 -13.1875 
L 9.71875 -6.203125 
L 21.390625 -6.203125 
L 21.390625 69 
L 9.71875 69 
L 9.71875 75.984375 
z
" id="DejaVuSans-93"/>
      </defs>
      <use xlink:href="#DejaVuSans-73"/>
      <use x="29.492188" xlink:href="#DejaVuSans-78"/>
      <use x="104.296875" xlink:href="#DejaVuSans-32"/>
      <use x="136.083984" xlink:href="#DejaVuSans-91"/>
      <use x="175.097656" xlink:href="#DejaVuSans-86"/>
      <use x="243.505859" xlink:href="#DejaVuSans-93"/>
     </g>
    </g>
   </g>
   <g id="line2d_19">
    <path clip-path="url(#p2708349fa4)" d="M 73.741619 126.344555 
L 78.307393 89.972674 
L 80.742473 72.369176 
L 82.720975 59.642758 
L 84.395092 50.252874 
L 85.840921 43.308442 
L 87.134557 38.096436 
L 88.276 34.332925 
L 89.341348 31.55799 
L 90.254502 29.763264 
L 91.091561 28.600873 
L 91.776427 27.997414 
L 92.385197 27.725382 
L 92.993967 27.702909 
L 93.602737 27.930053 
L 94.211507 28.40624 
L 94.896373 29.238112 
L 95.657335 30.527013 
L 96.494394 32.382117 
L 97.483645 35.153207 
L 98.548992 38.818173 
L 99.766532 43.83522 
L 101.136264 50.474547 
L 102.658189 58.987046 
L 104.408402 70.083903 
L 106.463001 84.593294 
L 109.126369 105.127647 
L 118.181821 176.444944 
L 120.236419 190.129634 
L 121.986633 200.360355 
L 123.508558 208.012043 
L 124.87829 213.802741 
L 126.09583 218.015742 
L 127.161177 220.945427 
L 128.074332 222.876127 
L 128.91139 224.165163 
L 129.672353 224.932526 
L 130.281123 225.266865 
L 130.889892 225.351758 
L 131.498662 225.186989 
L 132.107432 224.772974 
L 132.792298 224.010609 
L 133.553261 222.798133 
L 134.390319 221.025772 
L 135.37957 218.350154 
L 136.444918 214.784508 
L 137.662457 209.875569 
L 139.03219 203.349676 
L 140.554114 194.951359 
L 142.304328 183.968133 
L 144.358926 169.56498 
L 146.946198 149.724189 
L 156.534324 74.464114 
L 158.512826 61.492738 
L 160.263039 51.451361 
L 161.784964 43.985237 
L 163.0786 38.658348 
L 164.29614 34.5587 
L 165.361487 31.73207 
L 166.274642 29.891946 
L 167.111701 28.687291 
L 167.796567 28.048938 
L 168.405337 27.745746 
L 169.014107 27.692063 
L 169.622876 27.888023 
L 170.231646 28.333132 
L 170.916512 29.130267 
L 171.677475 30.38098 
L 172.514533 32.194748 
L 173.503784 34.918156 
L 174.569132 38.533534 
L 175.786672 43.496624 
L 177.156404 50.079364 
L 178.678329 58.534939 
L 180.428542 69.575199 
L 182.48314 84.031756 
L 185.070412 103.916789 
L 194.430249 177.512879 
L 196.484848 191.075178 
L 198.235061 201.18007 
L 199.756986 208.708347 
L 201.126718 214.378527 
L 202.344258 218.478175 
L 203.409605 221.304805 
L 204.32276 223.144929 
L 205.159819 224.349584 
L 205.844685 224.987937 
L 206.453455 225.291129 
L 207.062224 225.344812 
L 207.670994 225.148852 
L 208.279764 224.703743 
L 208.96463 223.906608 
L 209.725593 222.655895 
L 210.562651 220.842127 
L 211.551902 218.118719 
L 212.61725 214.503341 
L 213.834789 209.540251 
L 215.204522 202.957511 
L 216.726446 194.501936 
L 218.47666 183.461676 
L 220.531258 169.005119 
L 223.11853 149.120086 
L 232.478367 75.523996 
L 234.532966 61.961697 
L 236.283179 51.856805 
L 237.805104 44.328528 
L 239.174836 38.658348 
L 240.392376 34.5587 
L 241.457723 31.73207 
L 242.370878 29.891946 
L 243.207937 28.687291 
L 243.892803 28.048938 
L 244.501573 27.745746 
L 245.110342 27.692063 
L 245.719112 27.888023 
L 246.327882 28.333132 
L 247.012748 29.130267 
L 247.773711 30.38098 
L 248.610769 32.194748 
L 249.60002 34.918156 
L 250.665368 38.533534 
L 251.882907 43.496624 
L 253.25264 50.079364 
L 254.774564 58.534939 
L 256.524778 69.575199 
L 258.579376 84.031756 
L 261.166648 103.916789 
L 270.526485 177.512879 
L 272.581084 191.075178 
L 274.331297 201.18007 
L 275.853222 208.708347 
L 277.222954 214.378527 
L 278.440494 218.478175 
L 279.505841 221.304805 
L 280.418996 223.144929 
L 281.256054 224.349584 
L 281.940921 224.987937 
L 282.54969 225.291129 
L 283.15846 225.344812 
L 283.76723 225.148852 
L 284.376 224.703743 
L 285.060866 223.906608 
L 285.821829 222.655895 
L 286.658887 220.842127 
L 287.648138 218.118719 
L 288.713486 214.503341 
L 289.931025 209.540251 
L 291.300758 202.957511 
L 292.822682 194.501936 
L 294.572896 183.461676 
L 296.627494 169.005119 
L 299.214766 149.120086 
L 308.574603 75.523996 
L 310.629201 61.961697 
L 312.379415 51.856805 
L 313.90134 44.328528 
L 315.271072 38.658348 
L 316.488612 34.5587 
L 317.553959 31.73207 
L 318.467114 29.891946 
L 319.304172 28.687291 
L 319.989038 28.048938 
L 320.597808 27.745746 
L 321.206578 27.692063 
L 321.815348 27.888023 
L 322.424118 28.333132 
L 323.108984 29.130267 
L 323.869946 30.38098 
L 324.707005 32.194748 
L 325.696256 34.918156 
L 326.761603 38.533534 
L 327.979143 43.496624 
L 329.348875 50.079364 
L 330.8708 58.534939 
L 332.621014 69.575199 
L 334.675612 84.031756 
L 337.262884 103.916789 
L 346.622721 177.512879 
L 348.677319 191.075178 
L 350.427533 201.18007 
L 351.949458 208.708347 
L 353.31919 214.378527 
L 354.53673 218.478175 
L 355.602077 221.304805 
L 356.515232 223.144929 
L 357.35229 224.349584 
L 358.037156 224.987937 
L 358.645926 225.291129 
L 359.254696 225.344812 
L 359.863466 225.148852 
L 360.472236 224.703743 
L 361.157102 223.906608 
L 361.918064 222.655895 
L 362.755123 220.842127 
L 363.744374 218.118719 
L 364.809721 214.503341 
L 366.027261 209.540251 
L 367.396993 202.957511 
L 368.918918 194.501936 
L 370.669132 183.461676 
L 372.72373 169.005119 
L 375.311002 149.120086 
L 378.105256 126.518437 
L 378.105256 126.518437 
" style="fill:none;stroke:#1f77b4;stroke-linecap:square;stroke-width:1.5;"/>
   </g>
   <g id="patch_3">
    <path d="M 58.523438 235.238437 
L 58.523438 17.798437 
" style="fill:none;stroke:#000000;stroke-linecap:square;stroke-linejoin:miter;stroke-width:0.8;"/>
   </g>
   <g id="patch_4">
    <path d="M 393.323438 235.238437 
L 393.323438 17.798437 
" style="fill:none;stroke:#000000;stroke-linecap:square;stroke-linejoin:miter;stroke-width:0.8;"/>
   </g>
   <g id="patch_5">
    <path d="M 58.523438 235.238437 
L 393.323438 235.238437 
" style="fill:none;stroke:#000000;stroke-linecap:square;stroke-linejoin:miter;stroke-width:0.8;"/>
   </g>
   <g id="patch_6">
    <path d="M 58.523438 17.798437 
L 393.323438 17.798437 
" style="fill:none;stroke:#000000;stroke-linecap:square;stroke-linejoin:miter;stroke-width:0.8;"/>
   </g>
   <g id="text_20">
    <!-- cmos buffer -->
    <g transform="translate(190.081875 294.470437)scale(0.12 -0.12)">
     <defs>
      <path d="M 48.78125 52.59375 
L 48.78125 44.1875 
Q 44.96875 46.296875 41.140625 47.34375 
Q 37.3125 48.390625 33.40625 48.390625 
Q 24.65625 48.390625 19.8125 42.84375 
Q 14.984375 37.3125 14.984375 27.296875 
Q 14.984375 17.28125 19.8125 11.734375 
Q 24.65625 6.203125 33.40625 6.203125 
Q 37.3125 6.203125 41.140625 7.25 
Q 44.96875 8.296875 48.78125 10.40625 
L 48.78125 2.09375 
Q 45.015625 0.34375 40.984375 -0.53125 
Q 36.96875 -1.421875 32.421875 -1.421875 
Q 20.0625 -1.421875 12.78125 6.34375 
Q 5.515625 14.109375 5.515625 27.296875 
Q 5.515625 40.671875 12.859375 48.328125 
Q 20.21875 56 33.015625 56 
Q 37.15625 56 41.109375 55.140625 
Q 45.0625 54.296875 48.78125 52.59375 
z
" id="DejaVuSans-99"/>
      <path d="M 52 44.1875 
Q 55.375 50.25 60.0625 53.125 
Q 64.75 56 71.09375 56 
Q 79.640625 56 84.28125 50.015625 
Q 88.921875 44.046875 88.921875 33.015625 
L 88.921875 0 
L 79.890625 0 
L 79.890625 32.71875 
Q 79.890625 40.578125 77.09375 44.375 
Q 74.3125 48.1875 68.609375 48.1875 
Q 61.625 48.1875 57.5625 43.546875 
Q 53.515625 38.921875 53.515625 30.90625 
L 53.515625 0 
L 44.484375 0 
L 44.484375 32.71875 
Q 44.484375 40.625 41.703125 44.40625 
Q 38.921875 48.1875 33.109375 48.1875 
Q 26.21875 48.1875 22.15625 43.53125 
Q 18.109375 38.875 18.109375 30.90625 
L 18.109375 0 
L 9.078125 0 
L 9.078125 54.6875 
L 18.109375 54.6875 
L 18.109375 46.1875 
Q 21.1875 51.21875 25.484375 53.609375 
Q 29.78125 56 35.6875 56 
Q 41.65625 56 45.828125 52.96875 
Q 50 49.953125 52 44.1875 
z
" id="DejaVuSans-109"/>
      <path d="M 30.609375 48.390625 
Q 23.390625 48.390625 19.1875 42.75 
Q 14.984375 37.109375 14.984375 27.296875 
Q 14.984375 17.484375 19.15625 11.84375 
Q 23.34375 6.203125 30.609375 6.203125 
Q 37.796875 6.203125 41.984375 11.859375 
Q 46.1875 17.53125 46.1875 27.296875 
Q 46.1875 37.015625 41.984375 42.703125 
Q 37.796875 48.390625 30.609375 48.390625 
z
M 30.609375 56 
Q 42.328125 56 49.015625 48.375 
Q 55.71875 40.765625 55.71875 27.296875 
Q 55.71875 13.875 49.015625 6.21875 
Q 42.328125 -1.421875 30.609375 -1.421875 
Q 18.84375 -1.421875 12.171875 6.21875 
Q 5.515625 13.875 5.515625 27.296875 
Q 5.515625 40.765625 12.171875 48.375 
Q 18.84375 56 30.609375 56 
z
" id="DejaVuSans-111"/>
      <path d="M 44.28125 53.078125 
L 44.28125 44.578125 
Q 40.484375 46.53125 36.375 47.5 
Q 32.28125 48.484375 27.875 48.484375 
Q 21.1875 48.484375 17.84375 46.4375 
Q 14.5 44.390625 14.5 40.28125 
Q 14.5 37.15625 16.890625 35.375 
Q 19.28125 33.59375 26.515625 31.984375 
L 29.59375 31.296875 
Q 39.15625 29.25 43.1875 25.515625 
Q 47.21875 21.78125 47.21875 15.09375 
Q 47.21875 7.46875 41.1875 3.015625 
Q 35.15625 -1.421875 24.609375 -1.421875 
Q 20.21875 -1.421875 15.453125 -0.5625 
Q 10.6875 0.296875 5.421875 2 
L 5.421875 11.28125 
Q 10.40625 8.6875 15.234375 7.390625 
Q 20.0625 6.109375 24.8125 6.109375 
Q 31.15625 6.109375 34.5625 8.28125 
Q 37.984375 10.453125 37.984375 14.40625 
Q 37.984375 18.0625 35.515625 20.015625 
Q 33.0625 21.96875 24.703125 23.78125 
L 21.578125 24.515625 
Q 13.234375 26.265625 9.515625 29.90625 
Q 5.8125 33.546875 5.8125 39.890625 
Q 5.8125 47.609375 11.28125 51.796875 
Q 16.75 56 26.8125 56 
Q 31.78125 56 36.171875 55.265625 
Q 40.578125 54.546875 44.28125 53.078125 
z
" id="DejaVuSans-115"/>
      <path d="M 48.6875 27.296875 
Q 48.6875 37.203125 44.609375 42.84375 
Q 40.53125 48.484375 33.40625 48.484375 
Q 26.265625 48.484375 22.1875 42.84375 
Q 18.109375 37.203125 18.109375 27.296875 
Q 18.109375 17.390625 22.1875 11.75 
Q 26.265625 6.109375 33.40625 6.109375 
Q 40.53125 6.109375 44.609375 11.75 
Q 48.6875 17.390625 48.6875 27.296875 
z
M 18.109375 46.390625 
Q 20.953125 51.265625 25.265625 53.625 
Q 29.59375 56 35.59375 56 
Q 45.5625 56 51.78125 48.09375 
Q 58.015625 40.1875 58.015625 27.296875 
Q 58.015625 14.40625 51.78125 6.484375 
Q 45.5625 -1.421875 35.59375 -1.421875 
Q 29.59375 -1.421875 25.265625 0.953125 
Q 20.953125 3.328125 18.109375 8.203125 
L 18.109375 0 
L 9.078125 0 
L 9.078125 75.984375 
L 18.109375 75.984375 
z
" id="DejaVuSans-98"/>
      <path d="M 8.5 21.578125 
L 8.5 54.6875 
L 17.484375 54.6875 
L 17.484375 21.921875 
Q 17.484375 14.15625 20.5 10.265625 
Q 23.53125 6.390625 29.59375 6.390625 
Q 36.859375 6.390625 41.078125 11.03125 
Q 45.3125 15.671875 45.3125 23.6875 
L 45.3125 54.6875 
L 54.296875 54.6875 
L 54.296875 0 
L 45.3125 0 
L 45.3125 8.40625 
Q 42.046875 3.421875 37.71875 1 
Q 33.40625 -1.421875 27.6875 -1.421875 
Q 18.265625 -1.421875 13.375 4.4375 
Q 8.5 10.296875 8.5 21.578125 
z
M 31.109375 56 
z
" id="DejaVuSans-117"/>
      <path d="M 37.109375 75.984375 
L 37.109375 68.5 
L 28.515625 68.5 
Q 23.6875 68.5 21.796875 66.546875 
Q 19.921875 64.59375 19.921875 59.515625 
L 19.921875 54.6875 
L 34.71875 54.6875 
L 34.71875 47.703125 
L 19.921875 47.703125 
L 19.921875 0 
L 10.890625 0 
L 10.890625 47.703125 
L 2.296875 47.703125 
L 2.296875 54.6875 
L 10.890625 54.6875 
L 10.890625 58.5 
Q 10.890625 67.625 15.140625 71.796875 
Q 19.390625 75.984375 28.609375 75.984375 
z
" id="DejaVuSans-102"/>
      <path d="M 56.203125 29.59375 
L 56.203125 25.203125 
L 14.890625 25.203125 
Q 15.484375 15.921875 20.484375 11.0625 
Q 25.484375 6.203125 34.421875 6.203125 
Q 39.59375 6.203125 44.453125 7.46875 
Q 49.3125 8.734375 54.109375 11.28125 
L 54.109375 2.78125 
Q 49.265625 0.734375 44.1875 -0.34375 
Q 39.109375 -1.421875 33.890625 -1.421875 
Q 20.796875 -1.421875 13.15625 6.1875 
Q 5.515625 13.8125 5.515625 26.8125 
Q 5.515625 40.234375 12.765625 48.109375 
Q 20.015625 56 32.328125 56 
Q 43.359375 56 49.78125 48.890625 
Q 56.203125 41.796875 56.203125 29.59375 
z
M 47.21875 32.234375 
Q 47.125 39.59375 43.09375 43.984375 
Q 39.0625 48.390625 32.421875 48.390625 
Q 24.90625 48.390625 20.390625 44.140625 
Q 15.875 39.890625 15.1875 32.171875 
z
" id="DejaVuSans-101"/>
      <path d="M 41.109375 46.296875 
Q 39.59375 47.171875 37.8125 47.578125 
Q 36.03125 48 33.890625 48 
Q 26.265625 48 22.1875 43.046875 
Q 18.109375 38.09375 18.109375 28.8125 
L 18.109375 0 
L 9.078125 0 
L 9.078125 54.6875 
L 18.109375 54.6875 
L 18.109375 46.1875 
Q 20.953125 51.171875 25.484375 53.578125 
Q 30.03125 56 36.53125 56 
Q 37.453125 56 38.578125 55.875 
Q 39.703125 55.765625 41.0625 55.515625 
z
" id="DejaVuSans-114"/>
     </defs>
     <use xlink:href="#DejaVuSans-99"/>
     <use x="54.980469" xlink:href="#DejaVuSans-109"/>
     <use x="152.392578" xlink:href="#DejaVuSans-111"/>
     <use x="213.574219" xlink:href="#DejaVuSans-115"/>
     <use x="265.673828" xlink:href="#DejaVuSans-32"/>
     <use x="297.460938" xlink:href="#DejaVuSans-98"/>
     <use x="360.9375" xlink:href="#DejaVuSans-117"/>
     <use x="424.316406" xlink:href="#DejaVuSans-102"/>
     <use x="459.521484" xlink:href="#DejaVuSans-102"/>
     <use x="494.726562" xlink:href="#DejaVuSans-101"/>
     <use x="556.25" xlink:href="#DejaVuSans-114"/>
    </g>
   </g>
  </g>
  <g id="axes_2">
   <g id="matplotlib.axis_3">
    <g id="ytick_10">
     <g id="line2d_20">
      <defs>
       <path d="M 0 0 
L 3.5 0 
" id="ma6437a2ba6" style="stroke:#000000;stroke-width:0.8;"/>
      </defs>
      <g>
       <use style="stroke:#000000;stroke-width:0.8;" x="393.323438" xlink:href="#ma6437a2ba6" y="230.445357"/>
      </g>
     </g>
     <g id="text_21">
      <!-- 0.0002 -->
      <g style="fill:#d62728;" transform="translate(400.323438 234.244576)scale(0.1 -0.1)">
       <use xlink:href="#DejaVuSans-48"/>
       <use x="63.623047" xlink:href="#DejaVuSans-46"/>
       <use x="95.410156" xlink:href="#DejaVuSans-48"/>
       <use x="159.033203" xlink:href="#DejaVuSans-48"/>
       <use x="222.65625" xlink:href="#DejaVuSans-48"/>
       <use x="286.279297" xlink:href="#DejaVuSans-50"/>
      </g>
     </g>
    </g>
    <g id="ytick_11">
     <g id="line2d_21">
      <g>
       <use style="stroke:#000000;stroke-width:0.8;" x="393.323438" xlink:href="#ma6437a2ba6" y="200.135845"/>
      </g>
     </g>
     <g id="text_22">
      <!-- 0.0003 -->
      <g style="fill:#d62728;" transform="translate(400.323438 203.935064)scale(0.1 -0.1)">
       <use xlink:href="#DejaVuSans-48"/>
       <use x="63.623047" xlink:href="#DejaVuSans-46"/>
       <use x="95.410156" xlink:href="#DejaVuSans-48"/>
       <use x="159.033203" xlink:href="#DejaVuSans-48"/>
       <use x="222.65625" xlink:href="#DejaVuSans-48"/>
       <use x="286.279297" xlink:href="#DejaVuSans-51"/>
      </g>
     </g>
    </g>
    <g id="ytick_12">
     <g id="line2d_22">
      <g>
       <use style="stroke:#000000;stroke-width:0.8;" x="393.323438" xlink:href="#ma6437a2ba6" y="169.826333"/>
      </g>
     </g>
     <g id="text_23">
      <!-- 0.0004 -->
      <g style="fill:#d62728;" transform="translate(400.323438 173.625552)scale(0.1 -0.1)">
       <use xlink:href="#DejaVuSans-48"/>
       <use x="63.623047" xlink:href="#DejaVuSans-46"/>
       <use x="95.410156" xlink:href="#DejaVuSans-48"/>
       <use x="159.033203" xlink:href="#DejaVuSans-48"/>
       <use x="222.65625" xlink:href="#DejaVuSans-48"/>
       <use x="286.279297" xlink:href="#DejaVuSans-52"/>
      </g>
     </g>
    </g>
    <g id="ytick_13">
     <g id="line2d_23">
      <g>
       <use style="stroke:#000000;stroke-width:0.8;" x="393.323438" xlink:href="#ma6437a2ba6" y="139.516821"/>
      </g>
     </g>
     <g id="text_24">
      <!-- 0.0005 -->
      <g style="fill:#d62728;" transform="translate(400.323438 143.31604)scale(0.1 -0.1)">
       <use xlink:href="#DejaVuSans-48"/>
       <use x="63.623047" xlink:href="#DejaVuSans-46"/>
       <use x="95.410156" xlink:href="#DejaVuSans-48"/>
       <use x="159.033203" xlink:href="#DejaVuSans-48"/>
       <use x="222.65625" xlink:href="#DejaVuSans-48"/>
       <use x="286.279297" xlink:href="#DejaVuSans-53"/>
      </g>
     </g>
    </g>
    <g id="ytick_14">
     <g id="line2d_24">
      <g>
       <use style="stroke:#000000;stroke-width:0.8;" x="393.323438" xlink:href="#ma6437a2ba6" y="109.207309"/>
      </g>
     </g>
     <g id="text_25">
      <!-- 0.0006 -->
      <g style="fill:#d62728;" transform="translate(400.323438 113.006528)scale(0.1 -0.1)">
       <defs>
        <path d="M 33.015625 40.375 
Q 26.375 40.375 22.484375 35.828125 
Q 18.609375 31.296875 18.609375 23.390625 
Q 18.609375 15.53125 22.484375 10.953125 
Q 26.375 6.390625 33.015625 6.390625 
Q 39.65625 6.390625 43.53125 10.953125 
Q 47.40625 15.53125 47.40625 23.390625 
Q 47.40625 31.296875 43.53125 35.828125 
Q 39.65625 40.375 33.015625 40.375 
z
M 52.59375 71.296875 
L 52.59375 62.3125 
Q 48.875 64.0625 45.09375 64.984375 
Q 41.3125 65.921875 37.59375 65.921875 
Q 27.828125 65.921875 22.671875 59.328125 
Q 17.53125 52.734375 16.796875 39.40625 
Q 19.671875 43.65625 24.015625 45.921875 
Q 28.375 48.1875 33.59375 48.1875 
Q 44.578125 48.1875 50.953125 41.515625 
Q 57.328125 34.859375 57.328125 23.390625 
Q 57.328125 12.15625 50.6875 5.359375 
Q 44.046875 -1.421875 33.015625 -1.421875 
Q 20.359375 -1.421875 13.671875 8.265625 
Q 6.984375 17.96875 6.984375 36.375 
Q 6.984375 53.65625 15.1875 63.9375 
Q 23.390625 74.21875 37.203125 74.21875 
Q 40.921875 74.21875 44.703125 73.484375 
Q 48.484375 72.75 52.59375 71.296875 
z
" id="DejaVuSans-54"/>
       </defs>
       <use xlink:href="#DejaVuSans-48"/>
       <use x="63.623047" xlink:href="#DejaVuSans-46"/>
       <use x="95.410156" xlink:href="#DejaVuSans-48"/>
       <use x="159.033203" xlink:href="#DejaVuSans-48"/>
       <use x="222.65625" xlink:href="#DejaVuSans-48"/>
       <use x="286.279297" xlink:href="#DejaVuSans-54"/>
      </g>
     </g>
    </g>
    <g id="ytick_15">
     <g id="line2d_25">
      <g>
       <use style="stroke:#000000;stroke-width:0.8;" x="393.323438" xlink:href="#ma6437a2ba6" y="78.897797"/>
      </g>
     </g>
     <g id="text_26">
      <!-- 0.0007 -->
      <g style="fill:#d62728;" transform="translate(400.323438 82.697016)scale(0.1 -0.1)">
       <use xlink:href="#DejaVuSans-48"/>
       <use x="63.623047" xlink:href="#DejaVuSans-46"/>
       <use x="95.410156" xlink:href="#DejaVuSans-48"/>
       <use x="159.033203" xlink:href="#DejaVuSans-48"/>
       <use x="222.65625" xlink:href="#DejaVuSans-48"/>
       <use x="286.279297" xlink:href="#DejaVuSans-55"/>
      </g>
     </g>
    </g>
    <g id="ytick_16">
     <g id="line2d_26">
      <g>
       <use style="stroke:#000000;stroke-width:0.8;" x="393.323438" xlink:href="#ma6437a2ba6" y="48.588285"/>
      </g>
     </g>
     <g id="text_27">
      <!-- 0.0008 -->
      <g style="fill:#d62728;" transform="translate(400.323438 52.387504)scale(0.1 -0.1)">
       <defs>
        <path d="M 31.78125 34.625 
Q 24.75 34.625 20.71875 30.859375 
Q 16.703125 27.09375 16.703125 20.515625 
Q 16.703125 13.921875 20.71875 10.15625 
Q 24.75 6.390625 31.78125 6.390625 
Q 38.8125 6.390625 42.859375 10.171875 
Q 46.921875 13.96875 46.921875 20.515625 
Q 46.921875 27.09375 42.890625 30.859375 
Q 38.875 34.625 31.78125 34.625 
z
M 21.921875 38.8125 
Q 15.578125 40.375 12.03125 44.71875 
Q 8.5 49.078125 8.5 55.328125 
Q 8.5 64.0625 14.71875 69.140625 
Q 20.953125 74.21875 31.78125 74.21875 
Q 42.671875 74.21875 48.875 69.140625 
Q 55.078125 64.0625 55.078125 55.328125 
Q 55.078125 49.078125 51.53125 44.71875 
Q 48 40.375 41.703125 38.8125 
Q 48.828125 37.15625 52.796875 32.3125 
Q 56.78125 27.484375 56.78125 20.515625 
Q 56.78125 9.90625 50.3125 4.234375 
Q 43.84375 -1.421875 31.78125 -1.421875 
Q 19.734375 -1.421875 13.25 4.234375 
Q 6.78125 9.90625 6.78125 20.515625 
Q 6.78125 27.484375 10.78125 32.3125 
Q 14.796875 37.15625 21.921875 38.8125 
z
M 18.3125 54.390625 
Q 18.3125 48.734375 21.84375 45.5625 
Q 25.390625 42.390625 31.78125 42.390625 
Q 38.140625 42.390625 41.71875 45.5625 
Q 45.3125 48.734375 45.3125 54.390625 
Q 45.3125 60.0625 41.71875 63.234375 
Q 38.140625 66.40625 31.78125 66.40625 
Q 25.390625 66.40625 21.84375 63.234375 
Q 18.3125 60.0625 18.3125 54.390625 
z
" id="DejaVuSans-56"/>
       </defs>
       <use xlink:href="#DejaVuSans-48"/>
       <use x="63.623047" xlink:href="#DejaVuSans-46"/>
       <use x="95.410156" xlink:href="#DejaVuSans-48"/>
       <use x="159.033203" xlink:href="#DejaVuSans-48"/>
       <use x="222.65625" xlink:href="#DejaVuSans-48"/>
       <use x="286.279297" xlink:href="#DejaVuSans-56"/>
      </g>
     </g>
    </g>
    <g id="ytick_17">
     <g id="line2d_27">
      <g>
       <use style="stroke:#000000;stroke-width:0.8;" x="393.323438" xlink:href="#ma6437a2ba6" y="18.278773"/>
      </g>
     </g>
     <g id="text_28">
      <!-- 0.0009 -->
      <g style="fill:#d62728;" transform="translate(400.323438 22.077992)scale(0.1 -0.1)">
       <defs>
        <path d="M 10.984375 1.515625 
L 10.984375 10.5 
Q 14.703125 8.734375 18.5 7.8125 
Q 22.3125 6.890625 25.984375 6.890625 
Q 35.75 6.890625 40.890625 13.453125 
Q 46.046875 20.015625 46.78125 33.40625 
Q 43.953125 29.203125 39.59375 26.953125 
Q 35.25 24.703125 29.984375 24.703125 
Q 19.046875 24.703125 12.671875 31.3125 
Q 6.296875 37.9375 6.296875 49.421875 
Q 6.296875 60.640625 12.9375 67.421875 
Q 19.578125 74.21875 30.609375 74.21875 
Q 43.265625 74.21875 49.921875 64.515625 
Q 56.59375 54.828125 56.59375 36.375 
Q 56.59375 19.140625 48.40625 8.859375 
Q 40.234375 -1.421875 26.421875 -1.421875 
Q 22.703125 -1.421875 18.890625 -0.6875 
Q 15.09375 0.046875 10.984375 1.515625 
z
M 30.609375 32.421875 
Q 37.25 32.421875 41.125 36.953125 
Q 45.015625 41.5 45.015625 49.421875 
Q 45.015625 57.28125 41.125 61.84375 
Q 37.25 66.40625 30.609375 66.40625 
Q 23.96875 66.40625 20.09375 61.84375 
Q 16.21875 57.28125 16.21875 49.421875 
Q 16.21875 41.5 20.09375 36.953125 
Q 23.96875 32.421875 30.609375 32.421875 
z
" id="DejaVuSans-57"/>
       </defs>
       <use xlink:href="#DejaVuSans-48"/>
       <use x="63.623047" xlink:href="#DejaVuSans-46"/>
       <use x="95.410156" xlink:href="#DejaVuSans-48"/>
       <use x="159.033203" xlink:href="#DejaVuSans-48"/>
       <use x="222.65625" xlink:href="#DejaVuSans-48"/>
       <use x="286.279297" xlink:href="#DejaVuSans-57"/>
      </g>
     </g>
    </g>
    <g id="text_29">
     <!-- OUT [V] -->
     <g style="fill:#d62728;" transform="translate(446.9125 146.078594)rotate(-90)scale(0.1 -0.1)">
      <defs>
       <path d="M 39.40625 66.21875 
Q 28.65625 66.21875 22.328125 58.203125 
Q 16.015625 50.203125 16.015625 36.375 
Q 16.015625 22.609375 22.328125 14.59375 
Q 28.65625 6.59375 39.40625 6.59375 
Q 50.140625 6.59375 56.421875 14.59375 
Q 62.703125 22.609375 62.703125 36.375 
Q 62.703125 50.203125 56.421875 58.203125 
Q 50.140625 66.21875 39.40625 66.21875 
z
M 39.40625 74.21875 
Q 54.734375 74.21875 63.90625 63.9375 
Q 73.09375 53.65625 73.09375 36.375 
Q 73.09375 19.140625 63.90625 8.859375 
Q 54.734375 -1.421875 39.40625 -1.421875 
Q 24.03125 -1.421875 14.8125 8.828125 
Q 5.609375 19.09375 5.609375 36.375 
Q 5.609375 53.65625 14.8125 63.9375 
Q 24.03125 74.21875 39.40625 74.21875 
z
" id="DejaVuSans-79"/>
       <path d="M 8.6875 72.90625 
L 18.609375 72.90625 
L 18.609375 28.609375 
Q 18.609375 16.890625 22.84375 11.734375 
Q 27.09375 6.59375 36.625 6.59375 
Q 46.09375 6.59375 50.34375 11.734375 
Q 54.59375 16.890625 54.59375 28.609375 
L 54.59375 72.90625 
L 64.5 72.90625 
L 64.5 27.390625 
Q 64.5 13.140625 57.4375 5.859375 
Q 50.390625 -1.421875 36.625 -1.421875 
Q 22.796875 -1.421875 15.734375 5.859375 
Q 8.6875 13.140625 8.6875 27.390625 
z
" id="DejaVuSans-85"/>
       <path d="M -0.296875 72.90625 
L 61.375 72.90625 
L 61.375 64.59375 
L 35.5 64.59375 
L 35.5 0 
L 25.59375 0 
L 25.59375 64.59375 
L -0.296875 64.59375 
z
" id="DejaVuSans-84"/>
      </defs>
      <use xlink:href="#DejaVuSans-79"/>
      <use x="78.710938" xlink:href="#DejaVuSans-85"/>
      <use x="151.904297" xlink:href="#DejaVuSans-84"/>
      <use x="212.988281" xlink:href="#DejaVuSans-32"/>
      <use x="244.775391" xlink:href="#DejaVuSans-91"/>
      <use x="283.789062" xlink:href="#DejaVuSans-86"/>
      <use x="352.197266" xlink:href="#DejaVuSans-93"/>
     </g>
    </g>
    <g id="text_30">
     <!-- +4.991 -->
     <g style="fill:#d62728;" transform="translate(356.315625 14.798437)scale(0.1 -0.1)">
      <defs>
       <path d="M 46 62.703125 
L 46 35.5 
L 73.1875 35.5 
L 73.1875 27.203125 
L 46 27.203125 
L 46 0 
L 37.796875 0 
L 37.796875 27.203125 
L 10.59375 27.203125 
L 10.59375 35.5 
L 37.796875 35.5 
L 37.796875 62.703125 
z
" id="DejaVuSans-43"/>
      </defs>
      <use xlink:href="#DejaVuSans-43"/>
      <use x="83.789062" xlink:href="#DejaVuSans-52"/>
      <use x="147.412109" xlink:href="#DejaVuSans-46"/>
      <use x="179.199219" xlink:href="#DejaVuSans-57"/>
      <use x="242.822266" xlink:href="#DejaVuSans-57"/>
      <use x="306.445312" xlink:href="#DejaVuSans-49"/>
     </g>
    </g>
   </g>
   <g id="line2d_28">
    <path clip-path="url(#p2708349fa4)" d="M 73.741619 69.384603 
L 75.94841 84.610069 
L 79.144452 108.421949 
L 85.079958 152.809245 
L 87.743327 170.927456 
L 90.10231 185.482717 
L 92.156908 196.828921 
L 93.983218 205.707581 
L 95.505143 212.089843 
L 96.874875 216.916443 
L 98.016319 220.188615 
L 99.00557 222.418693 
L 99.918724 223.942009 
L 100.679687 224.798613 
L 101.364553 225.236776 
L 101.973323 225.354801 
L 102.505996 225.244781 
L 103.114766 224.872221 
L 103.723536 224.234188 
L 104.408402 223.197666 
L 105.169365 221.650372 
L 106.08252 219.247958 
L 107.071771 215.984784 
L 108.213214 211.391403 
L 109.50685 205.163844 
L 110.952679 197.011707 
L 112.5507 186.692249 
L 114.453105 172.896544 
L 116.812089 154.077919 
L 120.921286 119.118928 
L 124.573905 88.832404 
L 126.856792 71.690518 
L 128.759198 59.033071 
L 130.357219 49.801776 
L 131.803047 42.699204 
L 133.096683 37.436912 
L 134.238127 33.699679 
L 135.227378 31.173275 
L 136.140533 29.442238 
L 136.901495 28.446481 
L 137.586361 27.899972 
L 138.195131 27.692883 
L 138.727805 27.726614 
L 139.336575 28.009879 
L 139.945344 28.552504 
L 140.630211 29.469889 
L 141.391173 30.864897 
L 142.304328 33.049874 
L 143.293579 36.027027 
L 144.435022 40.21685 
L 145.728658 45.884318 
L 147.174487 53.277037 
L 148.848604 63.066351 
L 150.827106 76.038056 
L 153.338282 94.076638 
L 163.382985 167.93985 
L 165.741968 182.78639 
L 167.872663 194.829861 
L 169.698973 203.961095 
L 171.296994 210.894712 
L 172.666726 215.925186 
L 173.884266 219.59228 
L 174.949613 222.113981 
L 175.862768 223.725065 
L 176.62373 224.658069 
L 177.308596 225.167117 
L 177.917366 225.34953 
L 178.45004 225.296688 
L 179.05881 224.990178 
L 179.66758 224.418668 
L 180.352446 223.45719 
L 181.113408 221.993054 
L 181.950467 219.903953 
L 182.939718 216.797921 
L 184.005065 212.701079 
L 185.222605 207.104193 
L 186.592337 199.714895 
L 188.190358 189.769962 
L 190.016668 176.904751 
L 192.223459 159.694628 
L 195.4195 132.830257 
L 200.517948 90.036748 
L 202.876932 72.230417 
L 204.779337 59.506264 
L 206.377358 50.209564 
L 207.823187 43.041608 
L 209.116823 37.716711 
L 210.258266 33.921685 
L 211.247517 31.343721 
L 212.160672 29.564226 
L 212.921635 28.52768 
L 213.606501 27.944303 
L 214.215271 27.704428 
L 214.747944 27.709536 
L 215.280618 27.914668 
L 215.889388 28.392654 
L 216.574254 29.238145 
L 217.335216 30.554598 
L 218.172275 32.452168 
L 219.161526 35.284921 
L 220.226873 39.022885 
L 221.444413 44.120332 
L 222.814145 50.828901 
L 224.412166 59.820727 
L 226.314572 71.906762 
L 228.673555 88.469864 
L 232.326175 115.972721 
L 237.044141 151.184571 
L 239.783606 169.937405 
L 242.142589 184.590673 
L 244.197188 196.035134 
L 246.023497 205.015848 
L 247.621518 211.795051 
L 248.99125 216.673155 
L 250.132694 219.993155 
L 251.121945 222.268117 
L 252.0351 223.835412 
L 252.796062 224.730284 
L 253.480928 225.20394 
L 254.089698 225.354195 
L 254.622372 225.272788 
L 255.231142 224.933272 
L 255.839912 224.328511 
L 256.524778 223.329512 
L 257.28574 221.823785 
L 258.198895 219.470703 
L 259.188146 216.259798 
L 260.32959 211.724512 
L 261.547129 205.95061 
L 262.916862 198.377693 
L 264.514883 188.243417 
L 266.417288 174.627062 
L 268.700176 156.587194 
L 272.276699 126.296664 
L 276.538088 90.641394 
L 278.897071 72.772706 
L 280.799477 59.98237 
L 282.473594 50.209564 
L 283.919423 43.041608 
L 285.213059 37.716711 
L 286.354502 33.921685 
L 287.343753 31.343721 
L 288.256908 29.564226 
L 289.01787 28.52768 
L 289.702737 27.944303 
L 290.311506 27.704428 
L 290.84418 27.709536 
L 291.376854 27.914668 
L 291.985624 28.392654 
L 292.67049 29.238145 
L 293.431452 30.554598 
L 294.268511 32.452168 
L 295.257762 35.284921 
L 296.323109 39.022885 
L 297.540649 44.120332 
L 298.910381 50.828901 
L 300.508402 59.820727 
L 302.410808 71.906762 
L 304.769791 88.469864 
L 308.422411 115.972721 
L 313.140377 151.184571 
L 315.879842 169.937405 
L 318.238825 184.590673 
L 320.293423 196.035134 
L 322.119733 205.015848 
L 323.717754 211.795051 
L 325.087486 216.673155 
L 326.22893 219.993155 
L 327.218181 222.268117 
L 328.131336 223.835412 
L 328.892298 224.730284 
L 329.577164 225.20394 
L 330.185934 225.354195 
L 330.718608 225.272788 
L 331.327378 224.933272 
L 331.936147 224.328511 
L 332.621014 223.329512 
L 333.381976 221.823785 
L 334.295131 219.470703 
L 335.284382 216.259798 
L 336.425825 211.724512 
L 337.643365 205.95061 
L 339.013097 198.377693 
L 340.611118 188.243417 
L 342.513524 174.627062 
L 344.796411 156.587194 
L 348.372934 126.296664 
L 352.634324 90.641394 
L 354.993307 72.772706 
L 356.895713 59.98237 
L 358.56983 50.209564 
L 360.015659 43.041608 
L 361.309295 37.716711 
L 362.450738 33.921685 
L 363.439989 31.343721 
L 364.353144 29.564226 
L 365.114106 28.52768 
L 365.798972 27.944303 
L 366.407742 27.704428 
L 366.940416 27.709536 
L 367.47309 27.914668 
L 368.08186 28.392654 
L 368.766726 29.238145 
L 369.527688 30.554598 
L 370.364747 32.452168 
L 371.353998 35.284921 
L 372.419345 39.022885 
L 373.636885 44.120332 
L 375.006617 50.828901 
L 376.604638 59.820727 
L 378.105256 69.244802 
L 378.105256 69.244802 
" style="fill:none;stroke:#d62728;stroke-linecap:square;stroke-width:1.5;"/>
   </g>
   <g id="patch_7">
    <path d="M 58.523438 235.238438 
L 58.523438 17.798437 
" style="fill:none;stroke:#000000;stroke-linecap:square;stroke-linejoin:miter;stroke-width:0.8;"/>
   </g>
   <g id="patch_8">
    <path d="M 393.323438 235.238438 
L 393.323438 17.798437 
" style="fill:none;stroke:#000000;stroke-linecap:square;stroke-linejoin:miter;stroke-width:0.8;"/>
   </g>
   <g id="patch_9">
    <path d="M 58.523438 235.238437 
L 393.323438 235.238437 
" style="fill:none;stroke:#000000;stroke-linecap:square;stroke-linejoin:miter;stroke-width:0.8;"/>
   </g>
   <g id="patch_10">
    <path d="M 58.523438 17.798437 
L 393.323438 17.798437 
" style="fill:none;stroke:#000000;stroke-linecap:square;stroke-linejoin:miter;stroke-width:0.8;"/>
   </g>
  </g>
 </g>
 <defs>
  <clipPath id="p2708349fa4">
   <rect height="217.44" width="334.8" x="58.523438" y="17.798437"/>
  </clipPath>
 </defs>
</svg>
