<?xml version="1.0" encoding="utf-8" standalone="no"?>
<!DOCTYPE svg PUBLIC "-//W3C//DTD SVG 1.1//EN"
  "http://www.w3.org/Graphics/SVG/1.1/DTD/svg11.dtd">
<svg height="310.234pt" version="1.1" viewBox="0 0 363.6276 310.234" width="363.6276pt" xmlns="http://www.w3.org/2000/svg" xmlns:xlink="http://www.w3.org/1999/xlink">
 <metadata>
  <rdf:RDF xmlns:cc="http://creativecommons.org/ns#" xmlns:dc="http://purl.org/dc/elements/1.1/" xmlns:rdf="http://www.w3.org/1999/02/22-rdf-syntax-ns#">
   <cc:Work>
    <dc:type rdf:resource="http://purl.org/dc/dcmitype/StillImage"/>
    <dc:date>2021-06-22T10:45:06.504440</dc:date>
    <dc:format>image/svg+xml</dc:format>
    <dc:creator>
     <cc:Agent>
      <dc:title>Matplotlib v3.4.2, https://matplotlib.org/</dc:title>
     </cc:Agent>
    </dc:creator>
   </cc:Work>
  </rdf:RDF>
 </metadata>
 <defs>
  <style type="text/css">*{stroke-linecap:butt;stroke-linejoin:round;}</style>
 </defs>
 <g id="figure_1">
  <g id="patch_1">
   <path d="M 0 310.234 
L 363.6276 310.234 
L 363.6276 0 
L 0 0 
z
" style="fill:none;"/>
  </g>
  <g id="axes_1">
   <g id="patch_2">
    <path clip-path="url(#p97ed00ab0a)" d="M 179.4168 207.562 
C 180.390626 207.562 181.324697 207.175095 182.013296 206.486496 
C 182.701895 205.797897 183.0888 204.863826 183.0888 203.89 
C 183.0888 202.916174 182.701895 201.982103 182.013296 201.293504 
C 181.324697 200.604905 180.390626 200.218 179.4168 200.218 
C 178.442974 200.218 177.508903 200.604905 176.820304 201.293504 
C 176.131705 201.982103 175.7448 202.916174 175.7448 203.89 
C 175.7448 204.863826 176.131705 205.797897 176.820304 206.486496 
C 177.508903 207.175095 178.442974 207.562 179.4168 207.562 
z
" style="fill:none;stroke:#000000;stroke-linejoin:miter;stroke-width:0.9;"/>
   </g>
   <g id="line2d_1">
    <path clip-path="url(#p97ed00ab0a)" d="M 30.2418 203.89 
L 39.8043 203.89 
L 49.3668 203.89 
" style="fill:none;stroke:#000000;stroke-linecap:round;stroke-width:0.9;"/>
   </g>
   <g id="line2d_2">
    <path clip-path="url(#p97ed00ab0a)" d="M 49.3668 203.89 
L 72.3168 203.89 
L 74.8668 196.24 
L 79.9668 211.54 
L 85.0668 196.24 
L 90.1668 211.54 
L 95.2668 196.24 
L 100.3668 211.54 
L 102.9168 203.89 
L 125.8668 203.89 
" style="fill:none;stroke:#000000;stroke-linecap:round;stroke-width:0.9;"/>
   </g>
   <g id="line2d_3">
    <path clip-path="url(#p97ed00ab0a)" d="M 125.8668 203.89 
L 145.1448 203.89 
L 155.8548 203.89 
M 183.0888 203.89 
L 202.3668 203.89 
" style="fill:none;stroke:#000000;stroke-linecap:round;stroke-width:0.9;"/>
   </g>
   <g id="line2d_4">
    <path clip-path="url(#p97ed00ab0a)" d="M 183.0888 203.89 
L 186.4548 203.89 
" style="fill:none;stroke:#000000;stroke-linecap:round;stroke-width:0.9;"/>
   </g>
   <g id="line2d_5">
    <path clip-path="url(#p97ed00ab0a)" d="M 155.8548 203.89 
L 155.8548 219.19 
L 175.7448 203.89 
L 155.8548 188.59 
L 155.8548 203.89 
" style="fill:none;stroke:#000000;stroke-linecap:round;stroke-width:0.9;"/>
   </g>
   <g id="line2d_6">
    <path clip-path="url(#p97ed00ab0a)" d="M 202.3668 203.89 
L 237.8628 203.89 
M 237.8628 196.24 
L 237.8628 211.54 
M 243.3708 196.24 
L 243.3708 211.54 
M 243.3708 203.89 
L 278.8668 203.89 
" style="fill:none;stroke:#000000;stroke-linecap:round;stroke-width:0.9;"/>
   </g>
   <g id="line2d_7">
    <path clip-path="url(#p97ed00ab0a)" d="M 278.8668 203.89 
L 278.8668 226.84 
L 286.5168 229.39 
L 271.2168 234.49 
L 286.5168 239.59 
L 271.2168 244.69 
L 286.5168 249.79 
L 271.2168 254.89 
L 278.8668 257.44 
L 278.8668 280.39 
" style="fill:none;stroke:#000000;stroke-linecap:round;stroke-width:0.9;"/>
   </g>
   <g id="line2d_8">
    <path clip-path="url(#p97ed00ab0a)" d="M 278.8668 280.39 
L 278.8668 292.63 
L 271.2168 292.63 
L 286.5168 292.63 
M 273.5118 296.302 
L 284.2218 296.302 
M 277.3368 299.974 
L 280.3968 299.974 
" style="fill:none;stroke:#000000;stroke-linecap:round;stroke-width:0.9;"/>
   </g>
   <g id="line2d_9">
    <path clip-path="url(#p97ed00ab0a)" d="M 125.8668 203.89 
L 125.8668 165.64 
L 125.8668 127.39 
" style="fill:none;stroke:#000000;stroke-linecap:round;stroke-width:0.9;"/>
   </g>
   <g id="line2d_10">
    <path clip-path="url(#p97ed00ab0a)" d="M 125.8668 127.39 
L 148.8168 127.39 
L 151.3668 119.74 
L 156.4668 135.04 
L 161.5668 119.74 
L 166.6668 135.04 
L 171.7668 119.74 
L 176.8668 135.04 
L 179.4168 127.39 
L 202.3668 127.39 
" style="fill:none;stroke:#000000;stroke-linecap:round;stroke-width:0.9;"/>
   </g>
   <g id="line2d_11">
    <path clip-path="url(#p97ed00ab0a)" d="M 202.3668 127.39 
L 202.3668 165.64 
L 202.3668 203.89 
" style="fill:none;stroke:#000000;stroke-linecap:round;stroke-width:0.9;"/>
   </g>
   <g id="line2d_12">
    <path clip-path="url(#p97ed00ab0a)" d="M 125.8668 203.89 
L 125.8668 127.39 
L 125.8668 50.89 
" style="fill:none;stroke:#000000;stroke-linecap:round;stroke-width:0.9;"/>
   </g>
   <g id="line2d_13">
    <path clip-path="url(#p97ed00ab0a)" d="M 125.8668 50.89 
L 161.3628 50.89 
M 161.3628 43.24 
L 161.3628 58.54 
M 166.8708 43.24 
L 166.8708 58.54 
M 166.8708 50.89 
L 202.3668 50.89 
" style="fill:none;stroke:#000000;stroke-linecap:round;stroke-width:0.9;"/>
   </g>
   <g id="line2d_14">
    <path clip-path="url(#p97ed00ab0a)" d="M 202.3668 50.89 
L 202.3668 127.39 
L 202.3668 203.89 
" style="fill:none;stroke:#000000;stroke-linecap:round;stroke-width:0.9;"/>
   </g>
   <g id="line2d_15">
    <path clip-path="url(#p97ed00ab0a)" d="M 278.8668 203.89 
L 297.9918 203.89 
L 317.1168 203.89 
" style="fill:none;stroke:#000000;stroke-linecap:round;stroke-width:0.9;"/>
   </g>
   <g id="text_1">
    <!-- $R_1$ -->
    <g transform="translate(79.4268 174.5915)scale(0.14 -0.14)">
     <defs>
      <path d="M 1613 4147 
L 1294 2491 
L 2106 2491 
Q 2584 2491 2879 2755 
Q 3175 3019 3175 3444 
Q 3175 3784 2976 3965 
Q 2778 4147 2406 4147 
L 1613 4147 
z
M 2772 2241 
Q 2972 2194 3105 2009 
Q 3238 1825 3413 1275 
L 3809 0 
L 3144 0 
L 2778 1197 
Q 2638 1659 2453 1815 
Q 2269 1972 1888 1972 
L 1191 1972 
L 806 0 
L 172 0 
L 1081 4666 
L 2503 4666 
Q 3150 4666 3495 4373 
Q 3841 4081 3841 3531 
Q 3841 3044 3547 2687 
Q 3253 2331 2772 2241 
z
" id="DejaVuSans-Oblique-52" transform="scale(0.015625)"/>
      <path d="M 794 531 
L 1825 531 
L 1825 4091 
L 703 3866 
L 703 4441 
L 1819 4666 
L 2450 4666 
L 2450 531 
L 3481 531 
L 3481 0 
L 794 0 
L 794 531 
z
" id="DejaVuSans-31" transform="scale(0.015625)"/>
     </defs>
     <use transform="translate(0 0.09375)" xlink:href="#DejaVuSans-Oblique-52"/>
     <use transform="translate(69.482422 -16.3125)scale(0.7)" xlink:href="#DejaVuSans-31"/>
    </g>
    <!-- 100k -->
    <g transform="translate(70.202113 190.268437)scale(0.14 -0.14)">
     <defs>
      <path d="M 2034 4250 
Q 1547 4250 1301 3770 
Q 1056 3291 1056 2328 
Q 1056 1369 1301 889 
Q 1547 409 2034 409 
Q 2525 409 2770 889 
Q 3016 1369 3016 2328 
Q 3016 3291 2770 3770 
Q 2525 4250 2034 4250 
z
M 2034 4750 
Q 2819 4750 3233 4129 
Q 3647 3509 3647 2328 
Q 3647 1150 3233 529 
Q 2819 -91 2034 -91 
Q 1250 -91 836 529 
Q 422 1150 422 2328 
Q 422 3509 836 4129 
Q 1250 4750 2034 4750 
z
" id="DejaVuSans-30" transform="scale(0.015625)"/>
      <path d="M 581 4863 
L 1159 4863 
L 1159 1991 
L 2875 3500 
L 3609 3500 
L 1753 1863 
L 3688 0 
L 2938 0 
L 1159 1709 
L 1159 0 
L 581 0 
L 581 4863 
z
" id="DejaVuSans-6b" transform="scale(0.015625)"/>
     </defs>
     <use xlink:href="#DejaVuSans-31"/>
     <use x="63.623047" xlink:href="#DejaVuSans-30"/>
     <use x="127.246094" xlink:href="#DejaVuSans-30"/>
     <use x="190.869141" xlink:href="#DejaVuSans-6b"/>
    </g>
   </g>
   <g id="text_2">
    <!-- $C_3$ -->
    <g transform="translate(232.3568 174.5915)scale(0.14 -0.14)">
     <defs>
      <path d="M 4447 4306 
L 4319 3641 
Q 4019 3944 3683 4091 
Q 3347 4238 2956 4238 
Q 2422 4238 2017 3981 
Q 1613 3725 1319 3200 
Q 1131 2863 1032 2486 
Q 934 2109 934 1728 
Q 934 1091 1264 756 
Q 1594 422 2222 422 
Q 2656 422 3056 561 
Q 3456 700 3834 978 
L 3688 231 
Q 3316 72 2936 -9 
Q 2556 -91 2175 -91 
Q 1278 -91 773 396 
Q 269 884 269 1753 
Q 269 2309 461 2846 
Q 653 3384 1013 3828 
Q 1394 4300 1883 4525 
Q 2372 4750 3022 4750 
Q 3422 4750 3780 4639 
Q 4138 4528 4447 4306 
z
" id="DejaVuSans-Oblique-43" transform="scale(0.015625)"/>
      <path d="M 2597 2516 
Q 3050 2419 3304 2112 
Q 3559 1806 3559 1356 
Q 3559 666 3084 287 
Q 2609 -91 1734 -91 
Q 1441 -91 1130 -33 
Q 819 25 488 141 
L 488 750 
Q 750 597 1062 519 
Q 1375 441 1716 441 
Q 2309 441 2620 675 
Q 2931 909 2931 1356 
Q 2931 1769 2642 2001 
Q 2353 2234 1838 2234 
L 1294 2234 
L 1294 2753 
L 1863 2753 
Q 2328 2753 2575 2939 
Q 2822 3125 2822 3475 
Q 2822 3834 2567 4026 
Q 2313 4219 1838 4219 
Q 1578 4219 1281 4162 
Q 984 4106 628 3988 
L 628 4550 
Q 988 4650 1302 4700 
Q 1616 4750 1894 4750 
Q 2613 4750 3031 4423 
Q 3450 4097 3450 3541 
Q 3450 3153 3228 2886 
Q 3006 2619 2597 2516 
z
" id="DejaVuSans-33" transform="scale(0.015625)"/>
     </defs>
     <use transform="translate(0 0.78125)" xlink:href="#DejaVuSans-Oblique-43"/>
     <use transform="translate(69.824219 -15.625)scale(0.7)" xlink:href="#DejaVuSans-33"/>
    </g>
    <!-- 10u -->
    <g transform="translate(227.27305 190.268437)scale(0.14 -0.14)">
     <defs>
      <path d="M 544 1381 
L 544 3500 
L 1119 3500 
L 1119 1403 
Q 1119 906 1312 657 
Q 1506 409 1894 409 
Q 2359 409 2629 706 
Q 2900 1003 2900 1516 
L 2900 3500 
L 3475 3500 
L 3475 0 
L 2900 0 
L 2900 538 
Q 2691 219 2414 64 
Q 2138 -91 1772 -91 
Q 1169 -91 856 284 
Q 544 659 544 1381 
z
M 1991 3584 
L 1991 3584 
z
" id="DejaVuSans-75" transform="scale(0.015625)"/>
     </defs>
     <use xlink:href="#DejaVuSans-31"/>
     <use x="63.623047" xlink:href="#DejaVuSans-30"/>
     <use x="127.246094" xlink:href="#DejaVuSans-75"/>
    </g>
   </g>
   <g id="text_3">
    <!-- $R_l$ -->
    <g transform="translate(255.2768 238.164656)scale(0.14 -0.14)">
     <defs>
      <path d="M 1172 4863 
L 1747 4863 
L 800 0 
L 225 0 
L 1172 4863 
z
" id="DejaVuSans-Oblique-6c" transform="scale(0.015625)"/>
     </defs>
     <use transform="translate(0 0.09375)" xlink:href="#DejaVuSans-Oblique-52"/>
     <use transform="translate(69.482422 -16.3125)scale(0.7)" xlink:href="#DejaVuSans-Oblique-6c"/>
    </g>
    <!-- 100k -->
    <g transform="translate(233.327425 253.841594)scale(0.14 -0.14)">
     <use xlink:href="#DejaVuSans-31"/>
     <use x="63.623047" xlink:href="#DejaVuSans-30"/>
     <use x="127.246094" xlink:href="#DejaVuSans-30"/>
     <use x="190.869141" xlink:href="#DejaVuSans-6b"/>
    </g>
   </g>
   <g id="text_4">
    <!-- $R_2$ -->
    <g transform="translate(155.9268 98.0915)scale(0.14 -0.14)">
     <defs>
      <path d="M 1228 531 
L 3431 531 
L 3431 0 
L 469 0 
L 469 531 
Q 828 903 1448 1529 
Q 2069 2156 2228 2338 
Q 2531 2678 2651 2914 
Q 2772 3150 2772 3378 
Q 2772 3750 2511 3984 
Q 2250 4219 1831 4219 
Q 1534 4219 1204 4116 
Q 875 4013 500 3803 
L 500 4441 
Q 881 4594 1212 4672 
Q 1544 4750 1819 4750 
Q 2544 4750 2975 4387 
Q 3406 4025 3406 3419 
Q 3406 3131 3298 2873 
Q 3191 2616 2906 2266 
Q 2828 2175 2409 1742 
Q 1991 1309 1228 531 
z
" id="DejaVuSans-32" transform="scale(0.015625)"/>
     </defs>
     <use transform="translate(0 0.09375)" xlink:href="#DejaVuSans-Oblique-52"/>
     <use transform="translate(69.482422 -16.3125)scale(0.7)" xlink:href="#DejaVuSans-32"/>
    </g>
    <!-- 50k -->
    <g transform="translate(151.155863 113.768437)scale(0.14 -0.14)">
     <defs>
      <path d="M 691 4666 
L 3169 4666 
L 3169 4134 
L 1269 4134 
L 1269 2991 
Q 1406 3038 1543 3061 
Q 1681 3084 1819 3084 
Q 2600 3084 3056 2656 
Q 3513 2228 3513 1497 
Q 3513 744 3044 326 
Q 2575 -91 1722 -91 
Q 1428 -91 1123 -41 
Q 819 9 494 109 
L 494 744 
Q 775 591 1075 516 
Q 1375 441 1709 441 
Q 2250 441 2565 725 
Q 2881 1009 2881 1497 
Q 2881 1984 2565 2268 
Q 2250 2553 1709 2553 
Q 1456 2553 1204 2497 
Q 953 2441 691 2322 
L 691 4666 
z
" id="DejaVuSans-35" transform="scale(0.015625)"/>
     </defs>
     <use xlink:href="#DejaVuSans-35"/>
     <use x="63.623047" xlink:href="#DejaVuSans-30"/>
     <use x="127.246094" xlink:href="#DejaVuSans-6b"/>
    </g>
   </g>
   <g id="text_5">
    <!-- $C_1$ -->
    <g transform="translate(155.8568 21.5915)scale(0.14 -0.14)">
     <use transform="translate(0 0.78125)" xlink:href="#DejaVuSans-Oblique-43"/>
     <use transform="translate(69.824219 -15.625)scale(0.7)" xlink:href="#DejaVuSans-31"/>
    </g>
    <!-- 10n -->
    <g transform="translate(150.77305 37.268437)scale(0.14 -0.14)">
     <defs>
      <path d="M 3513 2113 
L 3513 0 
L 2938 0 
L 2938 2094 
Q 2938 2591 2744 2837 
Q 2550 3084 2163 3084 
Q 1697 3084 1428 2787 
Q 1159 2491 1159 1978 
L 1159 0 
L 581 0 
L 581 3500 
L 1159 3500 
L 1159 2956 
Q 1366 3272 1645 3428 
Q 1925 3584 2291 3584 
Q 2894 3584 3203 3211 
Q 3513 2838 3513 2113 
z
" id="DejaVuSans-6e" transform="scale(0.015625)"/>
     </defs>
     <use xlink:href="#DejaVuSans-31"/>
     <use x="63.623047" xlink:href="#DejaVuSans-30"/>
     <use x="127.246094" xlink:href="#DejaVuSans-6e"/>
    </g>
   </g>
   <g id="patch_3">
    <path clip-path="url(#p97ed00ab0a)" d="M 30.2418 206.185 
C 30.850441 206.185 31.434236 205.943184 31.86461 205.51281 
C 32.294984 205.082436 32.5368 204.498641 32.5368 203.89 
C 32.5368 203.281359 32.294984 202.697564 31.86461 202.26719 
C 31.434236 201.836816 30.850441 201.595 30.2418 201.595 
C 29.633159 201.595 29.049364 201.836816 28.61899 202.26719 
C 28.188616 202.697564 27.9468 203.281359 27.9468 203.89 
C 27.9468 204.498641 28.188616 205.082436 28.61899 205.51281 
C 29.049364 205.943184 29.633159 206.185 30.2418 206.185 
z
" style="fill:#ffffff;stroke:#000000;stroke-linejoin:miter;stroke-width:0.9;"/>
   </g>
   <g id="patch_4">
    <path clip-path="url(#p97ed00ab0a)" d="M 125.8668 206.185 
C 126.475441 206.185 127.059236 205.943184 127.48961 205.51281 
C 127.919984 205.082436 128.1618 204.498641 128.1618 203.89 
C 128.1618 203.281359 127.919984 202.697564 127.48961 202.26719 
C 127.059236 201.836816 126.475441 201.595 125.8668 201.595 
C 125.258159 201.595 124.674364 201.836816 124.24399 202.26719 
C 123.813616 202.697564 123.5718 203.281359 123.5718 203.89 
C 123.5718 204.498641 123.813616 205.082436 124.24399 205.51281 
C 124.674364 205.943184 125.258159 206.185 125.8668 206.185 
z
" style="stroke:#000000;stroke-linejoin:miter;stroke-width:0.9;"/>
   </g>
   <g id="patch_5">
    <path clip-path="url(#p97ed00ab0a)" d="M 125.8668 129.685 
C 126.475441 129.685 127.059236 129.443184 127.48961 129.01281 
C 127.919984 128.582436 128.1618 127.998641 128.1618 127.39 
C 128.1618 126.781359 127.919984 126.197564 127.48961 125.76719 
C 127.059236 125.336816 126.475441 125.095 125.8668 125.095 
C 125.258159 125.095 124.674364 125.336816 124.24399 125.76719 
C 123.813616 126.197564 123.5718 126.781359 123.5718 127.39 
C 123.5718 127.998641 123.813616 128.582436 124.24399 129.01281 
C 124.674364 129.443184 125.258159 129.685 125.8668 129.685 
z
" style="stroke:#000000;stroke-linejoin:miter;stroke-width:0.9;"/>
   </g>
   <g id="patch_6">
    <path clip-path="url(#p97ed00ab0a)" d="M 202.3668 129.685 
C 202.975441 129.685 203.559236 129.443184 203.98961 129.01281 
C 204.419984 128.582436 204.6618 127.998641 204.6618 127.39 
C 204.6618 126.781359 204.419984 126.197564 203.98961 125.76719 
C 203.559236 125.336816 202.975441 125.095 202.3668 125.095 
C 201.758159 125.095 201.174364 125.336816 200.74399 125.76719 
C 200.313616 126.197564 200.0718 126.781359 200.0718 127.39 
C 200.0718 127.998641 200.313616 128.582436 200.74399 129.01281 
C 201.174364 129.443184 201.758159 129.685 202.3668 129.685 
z
" style="stroke:#000000;stroke-linejoin:miter;stroke-width:0.9;"/>
   </g>
   <g id="patch_7">
    <path clip-path="url(#p97ed00ab0a)" d="M 202.3668 206.185 
C 202.975441 206.185 203.559236 205.943184 203.98961 205.51281 
C 204.419984 205.082436 204.6618 204.498641 204.6618 203.89 
C 204.6618 203.281359 204.419984 202.697564 203.98961 202.26719 
C 203.559236 201.836816 202.975441 201.595 202.3668 201.595 
C 201.758159 201.595 201.174364 201.836816 200.74399 202.26719 
C 200.313616 202.697564 200.0718 203.281359 200.0718 203.89 
C 200.0718 204.498641 200.313616 205.082436 200.74399 205.51281 
C 201.174364 205.943184 201.758159 206.185 202.3668 206.185 
z
" style="stroke:#000000;stroke-linejoin:miter;stroke-width:0.9;"/>
   </g>
   <g id="patch_8">
    <path clip-path="url(#p97ed00ab0a)" d="M 125.8668 206.185 
C 126.475441 206.185 127.059236 205.943184 127.48961 205.51281 
C 127.919984 205.082436 128.1618 204.498641 128.1618 203.89 
C 128.1618 203.281359 127.919984 202.697564 127.48961 202.26719 
C 127.059236 201.836816 126.475441 201.595 125.8668 201.595 
C 125.258159 201.595 124.674364 201.836816 124.24399 202.26719 
C 123.813616 202.697564 123.5718 203.281359 123.5718 203.89 
C 123.5718 204.498641 123.813616 205.082436 124.24399 205.51281 
C 124.674364 205.943184 125.258159 206.185 125.8668 206.185 
z
" style="stroke:#000000;stroke-linejoin:miter;stroke-width:0.9;"/>
   </g>
   <g id="patch_9">
    <path clip-path="url(#p97ed00ab0a)" d="M 278.8668 206.185 
C 279.475441 206.185 280.059236 205.943184 280.48961 205.51281 
C 280.919984 205.082436 281.1618 204.498641 281.1618 203.89 
C 281.1618 203.281359 280.919984 202.697564 280.48961 202.26719 
C 280.059236 201.836816 279.475441 201.595 278.8668 201.595 
C 278.258159 201.595 277.674364 201.836816 277.24399 202.26719 
C 276.813616 202.697564 276.5718 203.281359 276.5718 203.89 
C 276.5718 204.498641 276.813616 205.082436 277.24399 205.51281 
C 277.674364 205.943184 278.258159 206.185 278.8668 206.185 
z
" style="stroke:#000000;stroke-linejoin:miter;stroke-width:0.9;"/>
   </g>
   <g id="patch_10">
    <path clip-path="url(#p97ed00ab0a)" d="M 317.1168 206.185 
C 317.725441 206.185 318.309236 205.943184 318.73961 205.51281 
C 319.169984 205.082436 319.4118 204.498641 319.4118 203.89 
C 319.4118 203.281359 319.169984 202.697564 318.73961 202.26719 
C 318.309236 201.836816 317.725441 201.595 317.1168 201.595 
C 316.508159 201.595 315.924364 201.836816 315.49399 202.26719 
C 315.063616 202.697564 314.8218 203.281359 314.8218 203.89 
C 314.8218 204.498641 315.063616 205.082436 315.49399 205.51281 
C 315.924364 205.943184 316.508159 206.185 317.1168 206.185 
z
" style="fill:#ffffff;stroke:#000000;stroke-linejoin:miter;stroke-width:0.9;"/>
   </g>
   <g id="text_6">
    <!-- $IN$ -->
    <g transform="translate(10.1868 207.753125)scale(0.14 -0.14)">
     <defs>
      <path d="M 1081 4666 
L 1716 4666 
L 806 0 
L 172 0 
L 1081 4666 
z
" id="DejaVuSans-Oblique-49" transform="scale(0.015625)"/>
      <path d="M 1081 4666 
L 1931 4666 
L 3219 666 
L 4000 4666 
L 4616 4666 
L 3706 0 
L 2853 0 
L 1569 4025 
L 788 0 
L 172 0 
L 1081 4666 
z
" id="DejaVuSans-Oblique-4e" transform="scale(0.015625)"/>
     </defs>
     <use transform="translate(0 0.09375)" xlink:href="#DejaVuSans-Oblique-49"/>
     <use transform="translate(29.492188 0.09375)" xlink:href="#DejaVuSans-Oblique-4e"/>
    </g>
   </g>
   <g id="text_7">
    <!-- $OUT$ -->
    <g transform="translate(322.4718 207.753125)scale(0.14 -0.14)">
     <defs>
      <path d="M 2919 4238 
Q 2400 4238 2003 3986 
Q 1606 3734 1313 3219 
Q 1125 2891 1026 2522 
Q 928 2153 928 1778 
Q 928 1128 1239 775 
Q 1550 422 2119 422 
Q 2631 422 3032 676 
Q 3434 931 3719 1434 
Q 3909 1772 4009 2142 
Q 4109 2513 4109 2881 
Q 4109 3528 3796 3883 
Q 3484 4238 2919 4238 
z
M 2100 -91 
Q 1241 -91 748 418 
Q 256 928 256 1813 
Q 256 2319 448 2847 
Q 641 3375 978 3788 
Q 1375 4272 1862 4511 
Q 2350 4750 2938 4750 
Q 3794 4750 4287 4245 
Q 4781 3741 4781 2869 
Q 4781 2331 4593 1812 
Q 4406 1294 4056 872 
Q 3656 384 3173 146 
Q 2691 -91 2100 -91 
z
" id="DejaVuSans-Oblique-4f" transform="scale(0.015625)"/>
      <path d="M 991 4666 
L 1625 4666 
L 1075 1831 
Q 1041 1641 1027 1517 
Q 1013 1394 1013 1300 
Q 1013 869 1253 645 
Q 1494 422 1959 422 
Q 2563 422 2898 753 
Q 3234 1084 3378 1831 
L 3928 4666 
L 4563 4666 
L 4000 1753 
Q 3816 809 3300 359 
Q 2784 -91 1888 -91 
Q 1188 -91 780 261 
Q 372 613 372 1216 
Q 372 1325 387 1461 
Q 403 1597 434 1753 
L 991 4666 
z
" id="DejaVuSans-Oblique-55" transform="scale(0.015625)"/>
      <path d="M 378 4666 
L 4325 4666 
L 4225 4134 
L 2559 4134 
L 1759 0 
L 1125 0 
L 1925 4134 
L 275 4134 
L 378 4666 
z
" id="DejaVuSans-Oblique-54" transform="scale(0.015625)"/>
     </defs>
     <use transform="translate(0 0.78125)" xlink:href="#DejaVuSans-Oblique-4f"/>
     <use transform="translate(78.710938 0.78125)" xlink:href="#DejaVuSans-Oblique-55"/>
     <use transform="translate(151.904297 0.78125)" xlink:href="#DejaVuSans-Oblique-54"/>
    </g>
   </g>
  </g>
 </g>
 <defs>
  <clipPath id="p97ed00ab0a">
   <rect height="295.834" width="349.2276" x="7.2" y="7.2"/>
  </clipPath>
 </defs>
</svg>
