<?xml version="1.0" encoding="utf-8" standalone="no"?>
<!DOCTYPE svg PUBLIC "-//W3C//DTD SVG 1.1//EN"
  "http://www.w3.org/Graphics/SVG/1.1/DTD/svg11.dtd">
<svg height="250.5504pt" version="1.1" viewBox="0 0 937.45512 250.5504" width="937.45512pt" xmlns="http://www.w3.org/2000/svg" xmlns:xlink="http://www.w3.org/1999/xlink">
 <metadata>
  <rdf:RDF xmlns:cc="http://creativecommons.org/ns#" xmlns:dc="http://purl.org/dc/elements/1.1/" xmlns:rdf="http://www.w3.org/1999/02/22-rdf-syntax-ns#">
   <cc:Work>
    <dc:type rdf:resource="http://purl.org/dc/dcmitype/StillImage"/>
    <dc:date>2021-06-08T14:37:29.063300</dc:date>
    <dc:format>image/svg+xml</dc:format>
    <dc:creator>
     <cc:Agent>
      <dc:title>Matplotlib v3.4.2, https://matplotlib.org/</dc:title>
     </cc:Agent>
    </dc:creator>
   </cc:Work>
  </rdf:RDF>
 </metadata>
 <defs>
  <style type="text/css">*{stroke-linecap:butt;stroke-linejoin:round;}</style>
 </defs>
 <g id="figure_1">
  <g id="patch_1">
   <path d="M 0 250.5504 
L 937.45512 250.5504 
L 937.45512 0 
L 0 0 
z
" style="fill:none;"/>
  </g>
  <g id="axes_1">
   <g id="patch_2">
    <path clip-path="url(#p2551b4e0a1)" d="M 243.23616 101.9784 
C 244.404751 101.9784 245.525637 101.514114 246.351955 100.687795 
C 247.178274 99.861477 247.64256 98.740591 247.64256 97.572 
C 247.64256 96.403409 247.178274 95.282523 246.351955 94.456205 
C 245.525637 93.629886 244.404751 93.1656 243.23616 93.1656 
C 242.067569 93.1656 240.946683 93.629886 240.120365 94.456205 
C 239.294046 95.282523 238.82976 96.403409 238.82976 97.572 
C 238.82976 98.740591 239.294046 99.861477 240.120365 100.687795 
C 240.946683 101.514114 242.067569 101.9784 243.23616 101.9784 
z
" style="fill:#e8d473;stroke:#bd4224;stroke-linejoin:miter;stroke-width:0.8;"/>
   </g>
   <g id="patch_3">
    <path clip-path="url(#p2551b4e0a1)" d="M 463.55616 101.9784 
C 464.724751 101.9784 465.845637 101.514114 466.671955 100.687795 
C 467.498274 99.861477 467.96256 98.740591 467.96256 97.572 
C 467.96256 96.403409 467.498274 95.282523 466.671955 94.456205 
C 465.845637 93.629886 464.724751 93.1656 463.55616 93.1656 
C 462.387569 93.1656 461.266683 93.629886 460.440365 94.456205 
C 459.614046 95.282523 459.14976 96.403409 459.14976 97.572 
C 459.14976 98.740591 459.614046 99.861477 460.440365 100.687795 
C 461.266683 101.514114 462.387569 101.9784 463.55616 101.9784 
z
" style="fill:#e8d473;stroke:#bd4224;stroke-linejoin:miter;stroke-width:0.8;"/>
   </g>
   <g id="patch_4">
    <path clip-path="url(#p2551b4e0a1)" d="M 683.87616 101.9784 
C 685.044751 101.9784 686.165637 101.514114 686.991955 100.687795 
C 687.818274 99.861477 688.28256 98.740591 688.28256 97.572 
C 688.28256 96.403409 687.818274 95.282523 686.991955 94.456205 
C 686.165637 93.629886 685.044751 93.1656 683.87616 93.1656 
C 682.707569 93.1656 681.586683 93.629886 680.760365 94.456205 
C 679.934046 95.282523 679.46976 96.403409 679.46976 97.572 
C 679.46976 98.740591 679.934046 99.861477 680.760365 100.687795 
C 681.586683 101.514114 682.707569 101.9784 683.87616 101.9784 
z
" style="fill:#e8d473;stroke:#bd4224;stroke-linejoin:miter;stroke-width:0.8;"/>
   </g>
   <g id="patch_5">
    <path clip-path="url(#p2551b4e0a1)" d="M 662.76216 226.092 
L 665.51616 216.912 
L 668.27016 226.092 
z
" style="fill:#bd4224;"/>
   </g>
   <g id="patch_6">
    <path clip-path="url(#p2551b4e0a1)" d="M 214.96176 97.572 
L 214.96176 115.932 
L 238.82976 97.572 
L 214.96176 79.212 
z
" style="fill:#e8d473;stroke:#e8d473;stroke-linejoin:miter;"/>
   </g>
   <g id="patch_7">
    <path clip-path="url(#p2551b4e0a1)" d="M 435.28176 97.572 
L 435.28176 115.932 
L 459.14976 97.572 
L 435.28176 79.212 
z
" style="fill:#e8d473;stroke:#e8d473;stroke-linejoin:miter;"/>
   </g>
   <g id="patch_8">
    <path clip-path="url(#p2551b4e0a1)" d="M 655.60176 97.572 
L 655.60176 115.932 
L 679.46976 97.572 
L 655.60176 79.212 
z
" style="fill:#e8d473;stroke:#e8d473;stroke-linejoin:miter;"/>
   </g>
   <g id="line2d_1">
    <path clip-path="url(#p2551b4e0a1)" d="M 32.09616 97.572 
L 45.86616 97.572 
L 59.63616 97.572 
" style="fill:none;stroke:#bd4224;stroke-linecap:round;stroke-width:0.8;"/>
   </g>
   <g id="line2d_2">
    <path clip-path="url(#p2551b4e0a1)" d="M 59.63616 97.572 
L 96.35616 97.572 
L 99.41616 88.392 
L 105.53616 106.752 
L 111.65616 88.392 
L 117.77616 106.752 
L 123.89616 88.392 
L 130.01616 106.752 
L 133.07616 97.572 
L 169.79616 97.572 
" style="fill:none;stroke:#bd4224;stroke-linecap:round;stroke-width:0.8;"/>
   </g>
   <g id="line2d_3">
    <path clip-path="url(#p2551b4e0a1)" d="M 169.79616 97.572 
L 202.10976 97.572 
L 214.96176 97.572 
M 247.64256 97.572 
L 279.95616 97.572 
" style="fill:none;stroke:#bd4224;stroke-linecap:round;stroke-width:0.8;"/>
   </g>
   <g id="line2d_4">
    <path clip-path="url(#p2551b4e0a1)" d="M 247.64256 97.572 
L 251.68176 97.572 
" style="fill:none;stroke:#bd4224;stroke-linecap:round;stroke-width:0.8;"/>
   </g>
   <g id="line2d_5">
    <path clip-path="url(#p2551b4e0a1)" d="M 214.96176 97.572 
L 214.96176 115.932 
L 238.82976 97.572 
L 214.96176 79.212 
L 214.96176 97.572 
" style="fill:none;stroke:#bd4224;stroke-linecap:round;stroke-width:0.8;"/>
   </g>
   <g id="line2d_6">
    <path clip-path="url(#p2551b4e0a1)" d="M 279.95616 97.572 
L 316.67616 97.572 
L 319.73616 88.392 
L 325.85616 106.752 
L 331.97616 88.392 
L 338.09616 106.752 
L 344.21616 88.392 
L 350.33616 106.752 
L 353.39616 97.572 
L 390.11616 97.572 
" style="fill:none;stroke:#bd4224;stroke-linecap:round;stroke-width:0.8;"/>
   </g>
   <g id="line2d_7">
    <path clip-path="url(#p2551b4e0a1)" d="M 390.11616 97.572 
L 422.42976 97.572 
L 435.28176 97.572 
M 467.96256 97.572 
L 500.27616 97.572 
" style="fill:none;stroke:#bd4224;stroke-linecap:round;stroke-width:0.8;"/>
   </g>
   <g id="line2d_8">
    <path clip-path="url(#p2551b4e0a1)" d="M 467.96256 97.572 
L 472.00176 97.572 
" style="fill:none;stroke:#bd4224;stroke-linecap:round;stroke-width:0.8;"/>
   </g>
   <g id="line2d_9">
    <path clip-path="url(#p2551b4e0a1)" d="M 435.28176 97.572 
L 435.28176 115.932 
L 459.14976 97.572 
L 435.28176 79.212 
L 435.28176 97.572 
" style="fill:none;stroke:#bd4224;stroke-linecap:round;stroke-width:0.8;"/>
   </g>
   <g id="line2d_10">
    <path clip-path="url(#p2551b4e0a1)" d="M 500.27616 97.572 
L 536.99616 97.572 
L 540.05616 88.392 
L 546.17616 106.752 
L 552.29616 88.392 
L 558.41616 106.752 
L 564.53616 88.392 
L 570.65616 106.752 
L 573.71616 97.572 
L 610.43616 97.572 
" style="fill:none;stroke:#bd4224;stroke-linecap:round;stroke-width:0.8;"/>
   </g>
   <g id="line2d_11">
    <path clip-path="url(#p2551b4e0a1)" d="M 610.43616 97.572 
L 642.74976 97.572 
L 655.60176 97.572 
M 688.28256 97.572 
L 720.59616 97.572 
" style="fill:none;stroke:#bd4224;stroke-linecap:round;stroke-width:0.8;"/>
   </g>
   <g id="line2d_12">
    <path clip-path="url(#p2551b4e0a1)" d="M 688.28256 97.572 
L 692.32176 97.572 
" style="fill:none;stroke:#bd4224;stroke-linecap:round;stroke-width:0.8;"/>
   </g>
   <g id="line2d_13">
    <path clip-path="url(#p2551b4e0a1)" d="M 655.60176 97.572 
L 655.60176 115.932 
L 679.46976 97.572 
L 655.60176 79.212 
L 655.60176 97.572 
" style="fill:none;stroke:#bd4224;stroke-linecap:round;stroke-width:0.8;"/>
   </g>
   <g id="line2d_14">
    <path clip-path="url(#p2551b4e0a1)" d="M 720.59616 97.572 
L 772.37136 97.572 
M 772.37136 88.392 
L 772.37136 106.752 
M 778.98096 88.392 
L 778.98096 106.752 
M 778.98096 97.572 
L 830.75616 97.572 
" style="fill:none;stroke:#bd4224;stroke-linecap:round;stroke-width:0.8;"/>
   </g>
   <g id="line2d_15">
    <path clip-path="url(#p2551b4e0a1)" d="M 830.75616 97.572 
L 830.75616 134.292 
L 839.93616 137.352 
L 821.57616 143.472 
L 839.93616 149.592 
L 821.57616 155.712 
L 839.93616 161.832 
L 821.57616 167.952 
L 830.75616 171.012 
L 830.75616 207.732 
" style="fill:none;stroke:#bd4224;stroke-linecap:round;stroke-width:0.8;"/>
   </g>
   <g id="line2d_16">
    <path clip-path="url(#p2551b4e0a1)" d="M 830.75616 207.732 
L 830.75616 222.42 
L 821.57616 222.42 
L 839.93616 222.42 
M 824.33016 226.8264 
L 837.18216 226.8264 
M 828.92016 231.2328 
L 832.59216 231.2328 
" style="fill:none;stroke:#bd4224;stroke-linecap:round;stroke-width:0.8;"/>
   </g>
   <g id="line2d_17">
    <path clip-path="url(#p2551b4e0a1)" d="M 169.79616 97.572 
L 169.79616 70.032 
L 169.79616 42.492 
" style="fill:none;stroke:#bd4224;stroke-linecap:round;stroke-width:0.8;"/>
   </g>
   <g id="line2d_18">
    <path clip-path="url(#p2551b4e0a1)" d="M 169.79616 42.492 
L 206.51616 42.492 
L 209.57616 33.312 
L 215.69616 51.672 
L 221.81616 33.312 
L 227.93616 51.672 
L 234.05616 33.312 
L 240.17616 51.672 
L 243.23616 42.492 
L 279.95616 42.492 
" style="fill:none;stroke:#bd4224;stroke-linecap:round;stroke-width:0.8;"/>
   </g>
   <g id="line2d_19">
    <path clip-path="url(#p2551b4e0a1)" d="M 279.95616 42.492 
L 279.95616 70.032 
L 279.95616 97.572 
" style="fill:none;stroke:#bd4224;stroke-linecap:round;stroke-width:0.8;"/>
   </g>
   <g id="line2d_20">
    <path clip-path="url(#p2551b4e0a1)" d="M 390.11616 97.572 
L 390.11616 70.032 
L 390.11616 42.492 
" style="fill:none;stroke:#bd4224;stroke-linecap:round;stroke-width:0.8;"/>
   </g>
   <g id="line2d_21">
    <path clip-path="url(#p2551b4e0a1)" d="M 390.11616 42.492 
L 441.89136 42.492 
M 441.89136 33.312 
L 441.89136 51.672 
M 448.50096 33.312 
L 448.50096 51.672 
M 448.50096 42.492 
L 500.27616 42.492 
" style="fill:none;stroke:#bd4224;stroke-linecap:round;stroke-width:0.8;"/>
   </g>
   <g id="line2d_22">
    <path clip-path="url(#p2551b4e0a1)" d="M 500.27616 42.492 
L 500.27616 70.032 
L 500.27616 97.572 
" style="fill:none;stroke:#bd4224;stroke-linecap:round;stroke-width:0.8;"/>
   </g>
   <g id="line2d_23">
    <path clip-path="url(#p2551b4e0a1)" d="M 610.43616 97.572 
L 610.43616 70.032 
L 610.43616 42.492 
" style="fill:none;stroke:#bd4224;stroke-linecap:round;stroke-width:0.8;"/>
   </g>
   <g id="line2d_24">
    <path clip-path="url(#p2551b4e0a1)" d="M 610.43616 42.492 
L 662.21136 42.492 
M 662.21136 33.312 
L 662.21136 51.672 
M 668.82096 33.312 
L 668.82096 51.672 
M 668.82096 42.492 
L 720.59616 42.492 
" style="fill:none;stroke:#bd4224;stroke-linecap:round;stroke-width:0.8;"/>
   </g>
   <g id="line2d_25">
    <path clip-path="url(#p2551b4e0a1)" d="M 720.59616 42.492 
L 720.59616 70.032 
L 720.59616 97.572 
" style="fill:none;stroke:#bd4224;stroke-linecap:round;stroke-width:0.8;"/>
   </g>
   <g id="line2d_26">
    <path clip-path="url(#p2551b4e0a1)" d="M 720.59616 97.572 
L 720.59616 152.652 
L 720.59616 207.732 
" style="fill:none;stroke:#bd4224;stroke-linecap:round;stroke-width:0.8;"/>
   </g>
   <g id="line2d_27">
    <path clip-path="url(#p2551b4e0a1)" d="M 720.59616 207.732 
L 683.87616 207.732 
L 680.81616 216.912 
L 674.69616 198.552 
L 668.57616 216.912 
L 662.45616 198.552 
L 656.33616 216.912 
L 650.21616 198.552 
L 647.15616 207.732 
L 610.43616 207.732 
" style="fill:none;stroke:#bd4224;stroke-linecap:round;stroke-width:0.8;"/>
   </g>
   <g id="line2d_28">
    <path clip-path="url(#p2551b4e0a1)" d="M 665.51616 234.1704 
L 665.51616 226.092 
" style="fill:none;stroke:#bd4224;stroke-linecap:square;stroke-width:0.8;"/>
   </g>
   <g id="line2d_29">
    <path clip-path="url(#p2551b4e0a1)" d="M 610.43616 207.732 
L 573.71616 207.732 
L 570.65616 216.912 
L 564.53616 198.552 
L 558.41616 216.912 
L 552.29616 198.552 
L 546.17616 216.912 
L 540.05616 198.552 
L 536.99616 207.732 
L 500.27616 207.732 
" style="fill:none;stroke:#bd4224;stroke-linecap:round;stroke-width:0.8;"/>
   </g>
   <g id="line2d_30">
    <path clip-path="url(#p2551b4e0a1)" d="M 500.27616 207.732 
L 335.03616 207.732 
L 169.79616 207.732 
" style="fill:none;stroke:#bd4224;stroke-linecap:round;stroke-width:0.8;"/>
   </g>
   <g id="line2d_31">
    <path clip-path="url(#p2551b4e0a1)" d="M 169.79616 207.732 
L 169.79616 152.652 
L 169.79616 97.572 
" style="fill:none;stroke:#bd4224;stroke-linecap:round;stroke-width:0.8;"/>
   </g>
   <g id="line2d_32">
    <path clip-path="url(#p2551b4e0a1)" d="M 665.51616 234.1704 
L 679.28616 234.1704 
L 693.05616 234.1704 
" style="fill:none;stroke:#bd4224;stroke-linecap:round;stroke-width:0.8;"/>
   </g>
   <g id="line2d_33">
    <path clip-path="url(#p2551b4e0a1)" d="M 693.05616 234.1704 
L 693.05616 220.4004 
L 693.05616 206.6304 
" style="fill:none;stroke:#bd4224;stroke-linecap:round;stroke-width:0.8;"/>
   </g>
   <g id="line2d_34">
    <path clip-path="url(#p2551b4e0a1)" d="M 830.75616 97.572 
L 858.29616 97.572 
L 885.83616 97.572 
" style="fill:none;stroke:#bd4224;stroke-linecap:round;stroke-width:0.8;"/>
   </g>
   <g id="text_1">
    <!-- $IN$ -->
    <g style="fill:#bd4224;" transform="translate(13.72416 101.435125)scale(0.14 -0.14)">
     <defs>
      <path d="M 1081 4666 
L 1716 4666 
L 806 0 
L 172 0 
L 1081 4666 
z
" id="DejaVuSans-Oblique-49" transform="scale(0.015625)"/>
      <path d="M 1081 4666 
L 1931 4666 
L 3219 666 
L 4000 4666 
L 4616 4666 
L 3706 0 
L 2853 0 
L 1569 4025 
L 788 0 
L 172 0 
L 1081 4666 
z
" id="DejaVuSans-Oblique-4e" transform="scale(0.015625)"/>
     </defs>
     <use transform="translate(0 0.09375)" xlink:href="#DejaVuSans-Oblique-49"/>
     <use transform="translate(29.492188 0.09375)" xlink:href="#DejaVuSans-Oblique-4e"/>
    </g>
   </g>
   <g id="text_2">
    <!-- $R_1$ -->
    <g style="fill:#bd4224;" transform="translate(106.52616 81.808437)scale(0.14 -0.14)">
     <defs>
      <path d="M 1613 4147 
L 1294 2491 
L 2106 2491 
Q 2584 2491 2879 2755 
Q 3175 3019 3175 3444 
Q 3175 3784 2976 3965 
Q 2778 4147 2406 4147 
L 1613 4147 
z
M 2772 2241 
Q 2972 2194 3105 2009 
Q 3238 1825 3413 1275 
L 3809 0 
L 3144 0 
L 2778 1197 
Q 2638 1659 2453 1815 
Q 2269 1972 1888 1972 
L 1191 1972 
L 806 0 
L 172 0 
L 1081 4666 
L 2503 4666 
Q 3150 4666 3495 4373 
Q 3841 4081 3841 3531 
Q 3841 3044 3547 2687 
Q 3253 2331 2772 2241 
z
" id="DejaVuSans-Oblique-52" transform="scale(0.015625)"/>
      <path d="M 794 531 
L 1825 531 
L 1825 4091 
L 703 3866 
L 703 4441 
L 1819 4666 
L 2450 4666 
L 2450 531 
L 3481 531 
L 3481 0 
L 794 0 
L 794 531 
z
" id="DejaVuSans-31" transform="scale(0.015625)"/>
     </defs>
     <use transform="translate(0 0.09375)" xlink:href="#DejaVuSans-Oblique-52"/>
     <use transform="translate(69.482422 -16.3125)scale(0.7)" xlink:href="#DejaVuSans-31"/>
    </g>
   </g>
   <g id="text_3">
    <!-- $R_3$ -->
    <g style="fill:#bd4224;" transform="translate(326.84616 81.808437)scale(0.14 -0.14)">
     <defs>
      <path d="M 2597 2516 
Q 3050 2419 3304 2112 
Q 3559 1806 3559 1356 
Q 3559 666 3084 287 
Q 2609 -91 1734 -91 
Q 1441 -91 1130 -33 
Q 819 25 488 141 
L 488 750 
Q 750 597 1062 519 
Q 1375 441 1716 441 
Q 2309 441 2620 675 
Q 2931 909 2931 1356 
Q 2931 1769 2642 2001 
Q 2353 2234 1838 2234 
L 1294 2234 
L 1294 2753 
L 1863 2753 
Q 2328 2753 2575 2939 
Q 2822 3125 2822 3475 
Q 2822 3834 2567 4026 
Q 2313 4219 1838 4219 
Q 1578 4219 1281 4162 
Q 984 4106 628 3988 
L 628 4550 
Q 988 4650 1302 4700 
Q 1616 4750 1894 4750 
Q 2613 4750 3031 4423 
Q 3450 4097 3450 3541 
Q 3450 3153 3228 2886 
Q 3006 2619 2597 2516 
z
" id="DejaVuSans-33" transform="scale(0.015625)"/>
     </defs>
     <use transform="translate(0 0.09375)" xlink:href="#DejaVuSans-Oblique-52"/>
     <use transform="translate(69.482422 -16.3125)scale(0.7)" xlink:href="#DejaVuSans-33"/>
    </g>
   </g>
   <g id="text_4">
    <!-- $R_4$ -->
    <g style="fill:#bd4224;" transform="translate(547.16616 81.808437)scale(0.14 -0.14)">
     <defs>
      <path d="M 2419 4116 
L 825 1625 
L 2419 1625 
L 2419 4116 
z
M 2253 4666 
L 3047 4666 
L 3047 1625 
L 3713 1625 
L 3713 1100 
L 3047 1100 
L 3047 0 
L 2419 0 
L 2419 1100 
L 313 1100 
L 313 1709 
L 2253 4666 
z
" id="DejaVuSans-34" transform="scale(0.015625)"/>
     </defs>
     <use transform="translate(0 0.09375)" xlink:href="#DejaVuSans-Oblique-52"/>
     <use transform="translate(69.482422 -16.3125)scale(0.7)" xlink:href="#DejaVuSans-34"/>
    </g>
   </g>
   <g id="text_5">
    <!-- $C_3$ -->
    <g style="fill:#bd4224;" transform="translate(767.41616 81.808437)scale(0.14 -0.14)">
     <defs>
      <path d="M 4447 4306 
L 4319 3641 
Q 4019 3944 3683 4091 
Q 3347 4238 2956 4238 
Q 2422 4238 2017 3981 
Q 1613 3725 1319 3200 
Q 1131 2863 1032 2486 
Q 934 2109 934 1728 
Q 934 1091 1264 756 
Q 1594 422 2222 422 
Q 2656 422 3056 561 
Q 3456 700 3834 978 
L 3688 231 
Q 3316 72 2936 -9 
Q 2556 -91 2175 -91 
Q 1278 -91 773 396 
Q 269 884 269 1753 
Q 269 2309 461 2846 
Q 653 3384 1013 3828 
Q 1394 4300 1883 4525 
Q 2372 4750 3022 4750 
Q 3422 4750 3780 4639 
Q 4138 4528 4447 4306 
z
" id="DejaVuSans-Oblique-43" transform="scale(0.015625)"/>
     </defs>
     <use transform="translate(0 0.78125)" xlink:href="#DejaVuSans-Oblique-43"/>
     <use transform="translate(69.824219 -15.625)scale(0.7)" xlink:href="#DejaVuSans-33"/>
    </g>
   </g>
   <g id="text_6">
    <!-- $R_l$ -->
    <g style="fill:#bd4224;" transform="translate(805.02416 156.515125)scale(0.14 -0.14)">
     <defs>
      <path d="M 1172 4863 
L 1747 4863 
L 800 0 
L 225 0 
L 1172 4863 
z
" id="DejaVuSans-Oblique-6c" transform="scale(0.015625)"/>
     </defs>
     <use transform="translate(0 0.09375)" xlink:href="#DejaVuSans-Oblique-52"/>
     <use transform="translate(69.482422 -16.3125)scale(0.7)" xlink:href="#DejaVuSans-Oblique-6c"/>
    </g>
   </g>
   <g id="text_7">
    <!-- $R_2$ -->
    <g style="fill:#bd4224;" transform="translate(216.68616 26.728438)scale(0.14 -0.14)">
     <defs>
      <path d="M 1228 531 
L 3431 531 
L 3431 0 
L 469 0 
L 469 531 
Q 828 903 1448 1529 
Q 2069 2156 2228 2338 
Q 2531 2678 2651 2914 
Q 2772 3150 2772 3378 
Q 2772 3750 2511 3984 
Q 2250 4219 1831 4219 
Q 1534 4219 1204 4116 
Q 875 4013 500 3803 
L 500 4441 
Q 881 4594 1212 4672 
Q 1544 4750 1819 4750 
Q 2544 4750 2975 4387 
Q 3406 4025 3406 3419 
Q 3406 3131 3298 2873 
Q 3191 2616 2906 2266 
Q 2828 2175 2409 1742 
Q 1991 1309 1228 531 
z
" id="DejaVuSans-32" transform="scale(0.015625)"/>
     </defs>
     <use transform="translate(0 0.09375)" xlink:href="#DejaVuSans-Oblique-52"/>
     <use transform="translate(69.482422 -16.3125)scale(0.7)" xlink:href="#DejaVuSans-32"/>
    </g>
   </g>
   <g id="text_8">
    <!-- $C_1$ -->
    <g style="fill:#bd4224;" transform="translate(436.93616 26.728438)scale(0.14 -0.14)">
     <use transform="translate(0 0.78125)" xlink:href="#DejaVuSans-Oblique-43"/>
     <use transform="translate(69.824219 -15.625)scale(0.7)" xlink:href="#DejaVuSans-31"/>
    </g>
   </g>
   <g id="text_9">
    <!-- $C_2$ -->
    <g style="fill:#bd4224;" transform="translate(657.25616 26.728438)scale(0.14 -0.14)">
     <use transform="translate(0 0.78125)" xlink:href="#DejaVuSans-Oblique-43"/>
     <use transform="translate(69.824219 -15.625)scale(0.7)" xlink:href="#DejaVuSans-32"/>
    </g>
   </g>
   <g id="text_10">
    <!-- $OUT$ -->
    <g style="fill:#bd4224;" transform="translate(889.50816 101.435125)scale(0.14 -0.14)">
     <defs>
      <path d="M 2919 4238 
Q 2400 4238 2003 3986 
Q 1606 3734 1313 3219 
Q 1125 2891 1026 2522 
Q 928 2153 928 1778 
Q 928 1128 1239 775 
Q 1550 422 2119 422 
Q 2631 422 3032 676 
Q 3434 931 3719 1434 
Q 3909 1772 4009 2142 
Q 4109 2513 4109 2881 
Q 4109 3528 3796 3883 
Q 3484 4238 2919 4238 
z
M 2100 -91 
Q 1241 -91 748 418 
Q 256 928 256 1813 
Q 256 2319 448 2847 
Q 641 3375 978 3788 
Q 1375 4272 1862 4511 
Q 2350 4750 2938 4750 
Q 3794 4750 4287 4245 
Q 4781 3741 4781 2869 
Q 4781 2331 4593 1812 
Q 4406 1294 4056 872 
Q 3656 384 3173 146 
Q 2691 -91 2100 -91 
z
" id="DejaVuSans-Oblique-4f" transform="scale(0.015625)"/>
      <path d="M 991 4666 
L 1625 4666 
L 1075 1831 
Q 1041 1641 1027 1517 
Q 1013 1394 1013 1300 
Q 1013 869 1253 645 
Q 1494 422 1959 422 
Q 2563 422 2898 753 
Q 3234 1084 3378 1831 
L 3928 4666 
L 4563 4666 
L 4000 1753 
Q 3816 809 3300 359 
Q 2784 -91 1888 -91 
Q 1188 -91 780 261 
Q 372 613 372 1216 
Q 372 1325 387 1461 
Q 403 1597 434 1753 
L 991 4666 
z
" id="DejaVuSans-Oblique-55" transform="scale(0.015625)"/>
      <path d="M 378 4666 
L 4325 4666 
L 4225 4134 
L 2559 4134 
L 1759 0 
L 1125 0 
L 1925 4134 
L 275 4134 
L 378 4666 
z
" id="DejaVuSans-Oblique-54" transform="scale(0.015625)"/>
     </defs>
     <use transform="translate(0 0.78125)" xlink:href="#DejaVuSans-Oblique-4f"/>
     <use transform="translate(78.710938 0.78125)" xlink:href="#DejaVuSans-Oblique-55"/>
     <use transform="translate(151.904297 0.78125)" xlink:href="#DejaVuSans-Oblique-54"/>
    </g>
   </g>
   <g id="patch_9">
    <path clip-path="url(#p2551b4e0a1)" d="M 169.79616 100.326 
C 170.526529 100.326 171.227083 100.035821 171.743532 99.519372 
C 172.259981 99.002923 172.55016 98.302369 172.55016 97.572 
C 172.55016 96.841631 172.259981 96.141077 171.743532 95.624628 
C 171.227083 95.108179 170.526529 94.818 169.79616 94.818 
C 169.065791 94.818 168.365237 95.108179 167.848788 95.624628 
C 167.332339 96.141077 167.04216 96.841631 167.04216 97.572 
C 167.04216 98.302369 167.332339 99.002923 167.848788 99.519372 
C 168.365237 100.035821 169.065791 100.326 169.79616 100.326 
z
" style="fill:#bd4224;stroke:#bd4224;stroke-linejoin:miter;stroke-width:0.8;"/>
   </g>
   <g id="patch_10">
    <path clip-path="url(#p2551b4e0a1)" d="M 279.95616 100.326 
C 280.686529 100.326 281.387083 100.035821 281.903532 99.519372 
C 282.419981 99.002923 282.71016 98.302369 282.71016 97.572 
C 282.71016 96.841631 282.419981 96.141077 281.903532 95.624628 
C 281.387083 95.108179 280.686529 94.818 279.95616 94.818 
C 279.225791 94.818 278.525237 95.108179 278.008788 95.624628 
C 277.492339 96.141077 277.20216 96.841631 277.20216 97.572 
C 277.20216 98.302369 277.492339 99.002923 278.008788 99.519372 
C 278.525237 100.035821 279.225791 100.326 279.95616 100.326 
z
" style="fill:#bd4224;stroke:#bd4224;stroke-linejoin:miter;stroke-width:0.8;"/>
   </g>
   <g id="patch_11">
    <path clip-path="url(#p2551b4e0a1)" d="M 390.11616 100.326 
C 390.846529 100.326 391.547083 100.035821 392.063532 99.519372 
C 392.579981 99.002923 392.87016 98.302369 392.87016 97.572 
C 392.87016 96.841631 392.579981 96.141077 392.063532 95.624628 
C 391.547083 95.108179 390.846529 94.818 390.11616 94.818 
C 389.385791 94.818 388.685237 95.108179 388.168788 95.624628 
C 387.652339 96.141077 387.36216 96.841631 387.36216 97.572 
C 387.36216 98.302369 387.652339 99.002923 388.168788 99.519372 
C 388.685237 100.035821 389.385791 100.326 390.11616 100.326 
z
" style="fill:#bd4224;stroke:#bd4224;stroke-linejoin:miter;stroke-width:0.8;"/>
   </g>
   <g id="patch_12">
    <path clip-path="url(#p2551b4e0a1)" d="M 500.27616 100.326 
C 501.006529 100.326 501.707083 100.035821 502.223532 99.519372 
C 502.739981 99.002923 503.03016 98.302369 503.03016 97.572 
C 503.03016 96.841631 502.739981 96.141077 502.223532 95.624628 
C 501.707083 95.108179 501.006529 94.818 500.27616 94.818 
C 499.545791 94.818 498.845237 95.108179 498.328788 95.624628 
C 497.812339 96.141077 497.52216 96.841631 497.52216 97.572 
C 497.52216 98.302369 497.812339 99.002923 498.328788 99.519372 
C 498.845237 100.035821 499.545791 100.326 500.27616 100.326 
z
" style="fill:#bd4224;stroke:#bd4224;stroke-linejoin:miter;stroke-width:0.8;"/>
   </g>
   <g id="patch_13">
    <path clip-path="url(#p2551b4e0a1)" d="M 610.43616 100.326 
C 611.166529 100.326 611.867083 100.035821 612.383532 99.519372 
C 612.899981 99.002923 613.19016 98.302369 613.19016 97.572 
C 613.19016 96.841631 612.899981 96.141077 612.383532 95.624628 
C 611.867083 95.108179 611.166529 94.818 610.43616 94.818 
C 609.705791 94.818 609.005237 95.108179 608.488788 95.624628 
C 607.972339 96.141077 607.68216 96.841631 607.68216 97.572 
C 607.68216 98.302369 607.972339 99.002923 608.488788 99.519372 
C 609.005237 100.035821 609.705791 100.326 610.43616 100.326 
z
" style="fill:#bd4224;stroke:#bd4224;stroke-linejoin:miter;stroke-width:0.8;"/>
   </g>
   <g id="patch_14">
    <path clip-path="url(#p2551b4e0a1)" d="M 720.59616 100.326 
C 721.326529 100.326 722.027083 100.035821 722.543532 99.519372 
C 723.059981 99.002923 723.35016 98.302369 723.35016 97.572 
C 723.35016 96.841631 723.059981 96.141077 722.543532 95.624628 
C 722.027083 95.108179 721.326529 94.818 720.59616 94.818 
C 719.865791 94.818 719.165237 95.108179 718.648788 95.624628 
C 718.132339 96.141077 717.84216 96.841631 717.84216 97.572 
C 717.84216 98.302369 718.132339 99.002923 718.648788 99.519372 
C 719.165237 100.035821 719.865791 100.326 720.59616 100.326 
z
" style="fill:#bd4224;stroke:#bd4224;stroke-linejoin:miter;stroke-width:0.8;"/>
   </g>
   <g id="patch_15">
    <path clip-path="url(#p2551b4e0a1)" d="M 693.05616 209.3844 
C 693.786529 209.3844 694.487083 209.094221 695.003532 208.577772 
C 695.519981 208.061323 695.81016 207.360769 695.81016 206.6304 
C 695.81016 205.900031 695.519981 205.199477 695.003532 204.683028 
C 694.487083 204.166579 693.786529 203.8764 693.05616 203.8764 
C 692.325791 203.8764 691.625237 204.166579 691.108788 204.683028 
C 690.592339 205.199477 690.30216 205.900031 690.30216 206.6304 
C 690.30216 207.360769 690.592339 208.061323 691.108788 208.577772 
C 691.625237 209.094221 692.325791 209.3844 693.05616 209.3844 
z
" style="fill:#bd4224;stroke:#bd4224;stroke-linejoin:miter;stroke-width:0.8;"/>
   </g>
   <g id="patch_16">
    <path clip-path="url(#p2551b4e0a1)" d="M 830.75616 100.326 
C 831.486529 100.326 832.187083 100.035821 832.703532 99.519372 
C 833.219981 99.002923 833.51016 98.302369 833.51016 97.572 
C 833.51016 96.841631 833.219981 96.141077 832.703532 95.624628 
C 832.187083 95.108179 831.486529 94.818 830.75616 94.818 
C 830.025791 94.818 829.325237 95.108179 828.808788 95.624628 
C 828.292339 96.141077 828.00216 96.841631 828.00216 97.572 
C 828.00216 98.302369 828.292339 99.002923 828.808788 99.519372 
C 829.325237 100.035821 830.025791 100.326 830.75616 100.326 
z
" style="fill:#bd4224;stroke:#bd4224;stroke-linejoin:miter;stroke-width:0.8;"/>
   </g>
  </g>
 </g>
 <defs>
  <clipPath id="p2551b4e0a1">
   <rect height="236.1504" width="923.05512" x="7.2" y="7.2"/>
  </clipPath>
 </defs>
</svg>
