<?xml version="1.0" standalone="no"?>
 <!DOCTYPE svg PUBLIC "-//W3C//DTD SVG 1.1//EN" 
 "http://www.w3.org/Graphics/SVG/1.1/DTD/svg11.dtd"> 
<svg
  xmlns:svg="http://www.w3.org/2000/svg"
  xmlns="http://www.w3.org/2000/svg"
  xmlns:xlink="http://www.w3.org/1999/xlink"
  version="1.1"
  width="297.0022mm" height="210.0072mm" viewBox="0.0000 0.0000 297.0022 210.0072">
<title>SVG Image created as mount-F_Fab.svg date 2023/11/07 21:45:17 </title>
  <desc>Image generated by PCBNEW </desc>
<g style="fill:#000000; fill-opacity:1.0000;stroke:#000000; stroke-opacity:1.0000;
stroke-linecap:round; stroke-linejoin:round;"
 transform="translate(0 0) scale(1 1)">
</g>
<g style="fill:#000000; fill-opacity:0.0; 
stroke:#000000; stroke-width:0.0000; stroke-opacity:1; 
stroke-linecap:round; stroke-linejoin:round;">
</g>
<g style="fill:#000000; fill-opacity:0.0; 
stroke:#000000; stroke-width:0.1500; stroke-opacity:1; 
stroke-linecap:round; stroke-linejoin:round;">
<text x="66.0400" y="65.2930"
textLength="11.0595" font-size="1.3333" lengthAdjust="spacingAndGlyphs"
text-anchor="middle" opacity="0">LED_Dual_2pin</text>
<g class="stroked-text"><desc>LED_Dual_2pin</desc>
<path d="M61.3495 65.2478
L60.8733 65.2478
" />
<path d="M60.8733 65.2478
L60.8733 64.2478
" />
<path d="M61.6829 64.7240
L62.0162 64.7240
" />
<path d="M62.1590 65.2478
L61.6829 65.2478
" />
<path d="M61.6829 65.2478
L61.6829 64.2478
" />
<path d="M61.6829 64.2478
L62.1590 64.2478
" />
<path d="M62.5876 65.2478
L62.5876 64.2478
" />
<path d="M62.5876 64.2478
L62.8257 64.2478
" />
<path d="M62.8257 64.2478
L62.9686 64.2954
" />
<path d="M62.9686 64.2954
L63.0638 64.3907
" />
<path d="M63.0638 64.3907
L63.1114 64.4859
" />
<path d="M63.1114 64.4859
L63.1590 64.6764
" />
<path d="M63.1590 64.6764
L63.1590 64.8192
" />
<path d="M63.1590 64.8192
L63.1114 65.0097
" />
<path d="M63.1114 65.0097
L63.0638 65.1050
" />
<path d="M63.0638 65.1050
L62.9686 65.2002
" />
<path d="M62.9686 65.2002
L62.8257 65.2478
" />
<path d="M62.8257 65.2478
L62.5876 65.2478
" />
<path d="M63.3495 65.3431
L64.1114 65.3431
" />
<path d="M64.3495 65.2478
L64.3495 64.2478
" />
<path d="M64.3495 64.2478
L64.5876 64.2478
" />
<path d="M64.5876 64.2478
L64.7305 64.2954
" />
<path d="M64.7305 64.2954
L64.8257 64.3907
" />
<path d="M64.8257 64.3907
L64.8733 64.4859
" />
<path d="M64.8733 64.4859
L64.9210 64.6764
" />
<path d="M64.9210 64.6764
L64.9210 64.8192
" />
<path d="M64.9210 64.8192
L64.8733 65.0097
" />
<path d="M64.8733 65.0097
L64.8257 65.1050
" />
<path d="M64.8257 65.1050
L64.7305 65.2002
" />
<path d="M64.7305 65.2002
L64.5876 65.2478
" />
<path d="M64.5876 65.2478
L64.3495 65.2478
" />
<path d="M65.7781 64.5812
L65.7781 65.2478
" />
<path d="M65.3495 64.5812
L65.3495 65.1050
" />
<path d="M65.3495 65.1050
L65.3971 65.2002
" />
<path d="M65.3971 65.2002
L65.4924 65.2478
" />
<path d="M65.4924 65.2478
L65.6352 65.2478
" />
<path d="M65.6352 65.2478
L65.7305 65.2002
" />
<path d="M65.7305 65.2002
L65.7781 65.1526
" />
<path d="M66.6829 65.2478
L66.6829 64.7240
" />
<path d="M66.6829 64.7240
L66.6352 64.6288
" />
<path d="M66.6352 64.6288
L66.5400 64.5812
" />
<path d="M66.5400 64.5812
L66.3495 64.5812
" />
<path d="M66.3495 64.5812
L66.2543 64.6288
" />
<path d="M66.6829 65.2002
L66.5876 65.2478
" />
<path d="M66.5876 65.2478
L66.3495 65.2478
" />
<path d="M66.3495 65.2478
L66.2543 65.2002
" />
<path d="M66.2543 65.2002
L66.2067 65.1050
" />
<path d="M66.2067 65.1050
L66.2067 65.0097
" />
<path d="M66.2067 65.0097
L66.2543 64.9145
" />
<path d="M66.2543 64.9145
L66.3495 64.8669
" />
<path d="M66.3495 64.8669
L66.5876 64.8669
" />
<path d="M66.5876 64.8669
L66.6829 64.8192
" />
<path d="M67.3019 65.2478
L67.2067 65.2002
" />
<path d="M67.2067 65.2002
L67.1590 65.1050
" />
<path d="M67.1590 65.1050
L67.1590 64.2478
" />
<path d="M67.4448 65.3431
L68.2067 65.3431
" />
<path d="M68.3971 64.3431
L68.4448 64.2954
" />
<path d="M68.4448 64.2954
L68.5400 64.2478
" />
<path d="M68.5400 64.2478
L68.7781 64.2478
" />
<path d="M68.7781 64.2478
L68.8733 64.2954
" />
<path d="M68.8733 64.2954
L68.9210 64.3431
" />
<path d="M68.9210 64.3431
L68.9686 64.4383
" />
<path d="M68.9686 64.4383
L68.9686 64.5335
" />
<path d="M68.9686 64.5335
L68.9210 64.6764
" />
<path d="M68.9210 64.6764
L68.3495 65.2478
" />
<path d="M68.3495 65.2478
L68.9686 65.2478
" />
<path d="M69.3971 64.5812
L69.3971 65.5812
" />
<path d="M69.3971 64.6288
L69.4924 64.5812
" />
<path d="M69.4924 64.5812
L69.6829 64.5812
" />
<path d="M69.6829 64.5812
L69.7781 64.6288
" />
<path d="M69.7781 64.6288
L69.8257 64.6764
" />
<path d="M69.8257 64.6764
L69.8733 64.7716
" />
<path d="M69.8733 64.7716
L69.8733 65.0573
" />
<path d="M69.8733 65.0573
L69.8257 65.1526
" />
<path d="M69.8257 65.1526
L69.7781 65.2002
" />
<path d="M69.7781 65.2002
L69.6829 65.2478
" />
<path d="M69.6829 65.2478
L69.4924 65.2478
" />
<path d="M69.4924 65.2478
L69.3971 65.2002
" />
<path d="M70.3019 65.2478
L70.3019 64.5812
" />
<path d="M70.3019 64.2478
L70.2543 64.2954
" />
<path d="M70.2543 64.2954
L70.3019 64.3431
" />
<path d="M70.3019 64.3431
L70.3495 64.2954
" />
<path d="M70.3495 64.2954
L70.3019 64.2478
" />
<path d="M70.3019 64.2478
L70.3019 64.3431
" />
<path d="M70.7781 64.5812
L70.7781 65.2478
" />
<path d="M70.7781 64.6764
L70.8257 64.6288
" />
<path d="M70.8257 64.6288
L70.9210 64.5812
" />
<path d="M70.9210 64.5812
L71.0638 64.5812
" />
<path d="M71.0638 64.5812
L71.1590 64.6288
" />
<path d="M71.1590 64.6288
L71.2067 64.7240
" />
<path d="M71.2067 64.7240
L71.2067 65.2478
" />
</g></g>
<g style="fill:#000000; fill-opacity:0.0; 
stroke:#000000; stroke-width:0.2000; stroke-opacity:1; 
stroke-linecap:round; stroke-linejoin:round;">
<text x="66.0200" y="61.2330"
textLength="2.0019" font-size="1.0667" lengthAdjust="spacingAndGlyphs"
text-anchor="middle" opacity="0">D2</text>
<g class="stroked-text"><desc>D2</desc>
<path d="M65.4295 61.1927
L65.4295 60.3927
" />
<path d="M65.4295 60.3927
L65.6200 60.3927
" />
<path d="M65.6200 60.3927
L65.7343 60.4308
" />
<path d="M65.7343 60.4308
L65.8105 60.5070
" />
<path d="M65.8105 60.5070
L65.8486 60.5832
" />
<path d="M65.8486 60.5832
L65.8867 60.7356
" />
<path d="M65.8867 60.7356
L65.8867 60.8498
" />
<path d="M65.8867 60.8498
L65.8486 61.0022
" />
<path d="M65.8486 61.0022
L65.8105 61.0784
" />
<path d="M65.8105 61.0784
L65.7343 61.1546
" />
<path d="M65.7343 61.1546
L65.6200 61.1927
" />
<path d="M65.6200 61.1927
L65.4295 61.1927
" />
<path d="M66.1914 60.4689
L66.2295 60.4308
" />
<path d="M66.2295 60.4308
L66.3057 60.3927
" />
<path d="M66.3057 60.3927
L66.4962 60.3927
" />
<path d="M66.4962 60.3927
L66.5724 60.4308
" />
<path d="M66.5724 60.4308
L66.6105 60.4689
" />
<path d="M66.6105 60.4689
L66.6486 60.5451
" />
<path d="M66.6486 60.5451
L66.6486 60.6213
" />
<path d="M66.6486 60.6213
L66.6105 60.7356
" />
<path d="M66.6105 60.7356
L66.1533 61.1927
" />
<path d="M66.1533 61.1927
L66.6486 61.1927
" />
</g></g>
<g style="fill:#000000; fill-opacity:0.0; 
stroke:#000000; stroke-width:0.1500; stroke-opacity:1; 
stroke-linecap:round; stroke-linejoin:round;">
<text x="66.0400" y="106.0600"
textLength="11.0595" font-size="1.3333" lengthAdjust="spacingAndGlyphs"
text-anchor="middle" opacity="0">LED_Dual_2pin</text>
<g class="stroked-text"><desc>LED_Dual_2pin</desc>
<path d="M61.3495 106.0148
L60.8733 106.0148
" />
<path d="M60.8733 106.0148
L60.8733 105.0148
" />
<path d="M61.6829 105.4910
L62.0162 105.4910
" />
<path d="M62.1590 106.0148
L61.6829 106.0148
" />
<path d="M61.6829 106.0148
L61.6829 105.0148
" />
<path d="M61.6829 105.0148
L62.1590 105.0148
" />
<path d="M62.5876 106.0148
L62.5876 105.0148
" />
<path d="M62.5876 105.0148
L62.8257 105.0148
" />
<path d="M62.8257 105.0148
L62.9686 105.0624
" />
<path d="M62.9686 105.0624
L63.0638 105.1577
" />
<path d="M63.0638 105.1577
L63.1114 105.2529
" />
<path d="M63.1114 105.2529
L63.1590 105.4434
" />
<path d="M63.1590 105.4434
L63.1590 105.5862
" />
<path d="M63.1590 105.5862
L63.1114 105.7767
" />
<path d="M63.1114 105.7767
L63.0638 105.8720
" />
<path d="M63.0638 105.8720
L62.9686 105.9672
" />
<path d="M62.9686 105.9672
L62.8257 106.0148
" />
<path d="M62.8257 106.0148
L62.5876 106.0148
" />
<path d="M63.3495 106.1101
L64.1114 106.1101
" />
<path d="M64.3495 106.0148
L64.3495 105.0148
" />
<path d="M64.3495 105.0148
L64.5876 105.0148
" />
<path d="M64.5876 105.0148
L64.7305 105.0624
" />
<path d="M64.7305 105.0624
L64.8257 105.1577
" />
<path d="M64.8257 105.1577
L64.8733 105.2529
" />
<path d="M64.8733 105.2529
L64.9210 105.4434
" />
<path d="M64.9210 105.4434
L64.9210 105.5862
" />
<path d="M64.9210 105.5862
L64.8733 105.7767
" />
<path d="M64.8733 105.7767
L64.8257 105.8720
" />
<path d="M64.8257 105.8720
L64.7305 105.9672
" />
<path d="M64.7305 105.9672
L64.5876 106.0148
" />
<path d="M64.5876 106.0148
L64.3495 106.0148
" />
<path d="M65.7781 105.3482
L65.7781 106.0148
" />
<path d="M65.3495 105.3482
L65.3495 105.8720
" />
<path d="M65.3495 105.8720
L65.3971 105.9672
" />
<path d="M65.3971 105.9672
L65.4924 106.0148
" />
<path d="M65.4924 106.0148
L65.6352 106.0148
" />
<path d="M65.6352 106.0148
L65.7305 105.9672
" />
<path d="M65.7305 105.9672
L65.7781 105.9196
" />
<path d="M66.6829 106.0148
L66.6829 105.4910
" />
<path d="M66.6829 105.4910
L66.6352 105.3958
" />
<path d="M66.6352 105.3958
L66.5400 105.3482
" />
<path d="M66.5400 105.3482
L66.3495 105.3482
" />
<path d="M66.3495 105.3482
L66.2543 105.3958
" />
<path d="M66.6829 105.9672
L66.5876 106.0148
" />
<path d="M66.5876 106.0148
L66.3495 106.0148
" />
<path d="M66.3495 106.0148
L66.2543 105.9672
" />
<path d="M66.2543 105.9672
L66.2067 105.8720
" />
<path d="M66.2067 105.8720
L66.2067 105.7767
" />
<path d="M66.2067 105.7767
L66.2543 105.6815
" />
<path d="M66.2543 105.6815
L66.3495 105.6339
" />
<path d="M66.3495 105.6339
L66.5876 105.6339
" />
<path d="M66.5876 105.6339
L66.6829 105.5862
" />
<path d="M67.3019 106.0148
L67.2067 105.9672
" />
<path d="M67.2067 105.9672
L67.1590 105.8720
" />
<path d="M67.1590 105.8720
L67.1590 105.0148
" />
<path d="M67.4448 106.1101
L68.2067 106.1101
" />
<path d="M68.3971 105.1101
L68.4448 105.0624
" />
<path d="M68.4448 105.0624
L68.5400 105.0148
" />
<path d="M68.5400 105.0148
L68.7781 105.0148
" />
<path d="M68.7781 105.0148
L68.8733 105.0624
" />
<path d="M68.8733 105.0624
L68.9210 105.1101
" />
<path d="M68.9210 105.1101
L68.9686 105.2053
" />
<path d="M68.9686 105.2053
L68.9686 105.3005
" />
<path d="M68.9686 105.3005
L68.9210 105.4434
" />
<path d="M68.9210 105.4434
L68.3495 106.0148
" />
<path d="M68.3495 106.0148
L68.9686 106.0148
" />
<path d="M69.3971 105.3482
L69.3971 106.3482
" />
<path d="M69.3971 105.3958
L69.4924 105.3482
" />
<path d="M69.4924 105.3482
L69.6829 105.3482
" />
<path d="M69.6829 105.3482
L69.7781 105.3958
" />
<path d="M69.7781 105.3958
L69.8257 105.4434
" />
<path d="M69.8257 105.4434
L69.8733 105.5386
" />
<path d="M69.8733 105.5386
L69.8733 105.8243
" />
<path d="M69.8733 105.8243
L69.8257 105.9196
" />
<path d="M69.8257 105.9196
L69.7781 105.9672
" />
<path d="M69.7781 105.9672
L69.6829 106.0148
" />
<path d="M69.6829 106.0148
L69.4924 106.0148
" />
<path d="M69.4924 106.0148
L69.3971 105.9672
" />
<path d="M70.3019 106.0148
L70.3019 105.3482
" />
<path d="M70.3019 105.0148
L70.2543 105.0624
" />
<path d="M70.2543 105.0624
L70.3019 105.1101
" />
<path d="M70.3019 105.1101
L70.3495 105.0624
" />
<path d="M70.3495 105.0624
L70.3019 105.0148
" />
<path d="M70.3019 105.0148
L70.3019 105.1101
" />
<path d="M70.7781 105.3482
L70.7781 106.0148
" />
<path d="M70.7781 105.4434
L70.8257 105.3958
" />
<path d="M70.8257 105.3958
L70.9210 105.3482
" />
<path d="M70.9210 105.3482
L71.0638 105.3482
" />
<path d="M71.0638 105.3482
L71.1590 105.3958
" />
<path d="M71.1590 105.3958
L71.2067 105.4910
" />
<path d="M71.2067 105.4910
L71.2067 106.0148
" />
</g></g>
<g style="fill:#000000; fill-opacity:0.0; 
stroke:#000000; stroke-width:0.2000; stroke-opacity:1; 
stroke-linecap:round; stroke-linejoin:round;">
<text x="66.0200" y="102.0000"
textLength="2.0019" font-size="1.0667" lengthAdjust="spacingAndGlyphs"
text-anchor="middle" opacity="0">D1</text>
<g class="stroked-text"><desc>D1</desc>
<path d="M65.4295 101.9597
L65.4295 101.1597
" />
<path d="M65.4295 101.1597
L65.6200 101.1597
" />
<path d="M65.6200 101.1597
L65.7343 101.1978
" />
<path d="M65.7343 101.1978
L65.8105 101.2740
" />
<path d="M65.8105 101.2740
L65.8486 101.3502
" />
<path d="M65.8486 101.3502
L65.8867 101.5026
" />
<path d="M65.8867 101.5026
L65.8867 101.6168
" />
<path d="M65.8867 101.6168
L65.8486 101.7692
" />
<path d="M65.8486 101.7692
L65.8105 101.8454
" />
<path d="M65.8105 101.8454
L65.7343 101.9216
" />
<path d="M65.7343 101.9216
L65.6200 101.9597
" />
<path d="M65.6200 101.9597
L65.4295 101.9597
" />
<path d="M66.6486 101.9597
L66.1914 101.9597
" />
<path d="M66.4200 101.9597
L66.4200 101.1597
" />
<path d="M66.4200 101.1597
L66.3438 101.2740
" />
<path d="M66.3438 101.2740
L66.2676 101.3502
" />
<path d="M66.2676 101.3502
L66.1914 101.3883
" />
</g></g>
<g style="fill:#000000; fill-opacity:0.0; 
stroke:#000000; stroke-width:0.1500; stroke-opacity:1; 
stroke-linecap:round; stroke-linejoin:round;">
<text x="35.5600" y="80.3000"
textLength="1.7738" font-size="1.3333" lengthAdjust="spacingAndGlyphs"
text-anchor="middle" opacity="0">IN</text>
<g class="stroked-text"><desc>IN</desc>
<path d="M35.0362 80.2548
L35.0362 79.2548
" />
<path d="M35.5124 80.2548
L35.5124 79.2548
" />
<path d="M35.5124 79.2548
L36.0838 80.2548
" />
<path d="M36.0838 80.2548
L36.0838 79.2548
" />
</g><text x="35.5600" y="83.3000"
textLength="1.9643" font-size="1.3333" lengthAdjust="spacingAndGlyphs"
text-anchor="middle" opacity="0">J2</text>
<g class="stroked-text"><desc>J2</desc>
<path d="M35.2267 82.2548
L35.2267 82.9691
" />
<path d="M35.2267 82.9691
L35.1790 83.1120
" />
<path d="M35.1790 83.1120
L35.0838 83.2072
" />
<path d="M35.0838 83.2072
L34.9410 83.2548
" />
<path d="M34.9410 83.2548
L34.8457 83.2548
" />
<path d="M35.6552 82.3501
L35.7029 82.3024
" />
<path d="M35.7029 82.3024
L35.7981 82.2548
" />
<path d="M35.7981 82.2548
L36.0362 82.2548
" />
<path d="M36.0362 82.2548
L36.1314 82.3024
" />
<path d="M36.1314 82.3024
L36.1790 82.3501
" />
<path d="M36.1790 82.3501
L36.2267 82.4453
" />
<path d="M36.2267 82.4453
L36.2267 82.5405
" />
<path d="M36.2267 82.5405
L36.1790 82.6834
" />
<path d="M36.1790 82.6834
L35.6076 83.2548
" />
<path d="M35.6076 83.2548
L36.2267 83.2548
" />
</g><text x="35.5600" y="39.6600"
textLength="2.1071" font-size="1.3333" lengthAdjust="spacingAndGlyphs"
text-anchor="middle" opacity="0">VC</text>
<g class="stroked-text"><desc>VC</desc>
<path d="M34.7267 38.6148
L35.0600 39.6148
" />
<path d="M35.0600 39.6148
L35.3933 38.6148
" />
<path d="M36.2981 39.5196
L36.2505 39.5672
" />
<path d="M36.2505 39.5672
L36.1076 39.6148
" />
<path d="M36.1076 39.6148
L36.0124 39.6148
" />
<path d="M36.0124 39.6148
L35.8695 39.5672
" />
<path d="M35.8695 39.5672
L35.7743 39.4720
" />
<path d="M35.7743 39.4720
L35.7267 39.3767
" />
<path d="M35.7267 39.3767
L35.6790 39.1862
" />
<path d="M35.6790 39.1862
L35.6790 39.0434
" />
<path d="M35.6790 39.0434
L35.7267 38.8529
" />
<path d="M35.7267 38.8529
L35.7743 38.7577
" />
<path d="M35.7743 38.7577
L35.8695 38.6624
" />
<path d="M35.8695 38.6624
L36.0124 38.6148
" />
<path d="M36.0124 38.6148
L36.1076 38.6148
" />
<path d="M36.1076 38.6148
L36.2505 38.6624
" />
<path d="M36.2505 38.6624
L36.2981 38.7101
" />
</g><text x="35.5600" y="42.6600"
textLength="1.9643" font-size="1.3333" lengthAdjust="spacingAndGlyphs"
text-anchor="middle" opacity="0">J3</text>
<g class="stroked-text"><desc>J3</desc>
<path d="M35.2267 41.6148
L35.2267 42.3291
" />
<path d="M35.2267 42.3291
L35.1790 42.4720
" />
<path d="M35.1790 42.4720
L35.0838 42.5672
" />
<path d="M35.0838 42.5672
L34.9410 42.6148
" />
<path d="M34.9410 42.6148
L34.8457 42.6148
" />
<path d="M35.6076 41.6148
L36.2267 41.6148
" />
<path d="M36.2267 41.6148
L35.8933 41.9958
" />
<path d="M35.8933 41.9958
L36.0362 41.9958
" />
<path d="M36.0362 41.9958
L36.1314 42.0434
" />
<path d="M36.1314 42.0434
L36.1790 42.0910
" />
<path d="M36.1790 42.0910
L36.2267 42.1862
" />
<path d="M36.2267 42.1862
L36.2267 42.4243
" />
<path d="M36.2267 42.4243
L36.1790 42.5196
" />
<path d="M36.1790 42.5196
L36.1314 42.5672
" />
<path d="M36.1314 42.5672
L36.0362 42.6148
" />
<path d="M36.0362 42.6148
L35.7505 42.6148
" />
<path d="M35.7505 42.6148
L35.6552 42.5672
" />
<path d="M35.6552 42.5672
L35.6076 42.5196
" />
</g><text x="35.5600" y="59.9800"
textLength="4.1548" font-size="1.3333" lengthAdjust="spacingAndGlyphs"
text-anchor="middle" opacity="0">HOLD</text>
<g class="stroked-text"><desc>HOLD</desc>
<path d="M33.8457 59.9348
L33.8457 58.9348
" />
<path d="M33.8457 59.4110
L34.4171 59.4110
" />
<path d="M34.4171 59.9348
L34.4171 58.9348
" />
<path d="M35.0838 58.9348
L35.2743 58.9348
" />
<path d="M35.2743 58.9348
L35.3695 58.9824
" />
<path d="M35.3695 58.9824
L35.4648 59.0777
" />
<path d="M35.4648 59.0777
L35.5124 59.2682
" />
<path d="M35.5124 59.2682
L35.5124 59.6015
" />
<path d="M35.5124 59.6015
L35.4648 59.7920
" />
<path d="M35.4648 59.7920
L35.3695 59.8872
" />
<path d="M35.3695 59.8872
L35.2743 59.9348
" />
<path d="M35.2743 59.9348
L35.0838 59.9348
" />
<path d="M35.0838 59.9348
L34.9886 59.8872
" />
<path d="M34.9886 59.8872
L34.8933 59.7920
" />
<path d="M34.8933 59.7920
L34.8457 59.6015
" />
<path d="M34.8457 59.6015
L34.8457 59.2682
" />
<path d="M34.8457 59.2682
L34.8933 59.0777
" />
<path d="M34.8933 59.0777
L34.9886 58.9824
" />
<path d="M34.9886 58.9824
L35.0838 58.9348
" />
<path d="M36.4171 59.9348
L35.9410 59.9348
" />
<path d="M35.9410 59.9348
L35.9410 58.9348
" />
<path d="M36.7505 59.9348
L36.7505 58.9348
" />
<path d="M36.7505 58.9348
L36.9886 58.9348
" />
<path d="M36.9886 58.9348
L37.1314 58.9824
" />
<path d="M37.1314 58.9824
L37.2267 59.0777
" />
<path d="M37.2267 59.0777
L37.2743 59.1729
" />
<path d="M37.2743 59.1729
L37.3219 59.3634
" />
<path d="M37.3219 59.3634
L37.3219 59.5062
" />
<path d="M37.3219 59.5062
L37.2743 59.6967
" />
<path d="M37.2743 59.6967
L37.2267 59.7920
" />
<path d="M37.2267 59.7920
L37.1314 59.8872
" />
<path d="M37.1314 59.8872
L36.9886 59.9348
" />
<path d="M36.9886 59.9348
L36.7505 59.9348
" />
</g><text x="35.5600" y="62.9800"
textLength="1.9643" font-size="1.3333" lengthAdjust="spacingAndGlyphs"
text-anchor="middle" opacity="0">J4</text>
<g class="stroked-text"><desc>J4</desc>
<path d="M35.2267 61.9348
L35.2267 62.6491
" />
<path d="M35.2267 62.6491
L35.1790 62.7920
" />
<path d="M35.1790 62.7920
L35.0838 62.8872
" />
<path d="M35.0838 62.8872
L34.9410 62.9348
" />
<path d="M34.9410 62.9348
L34.8457 62.9348
" />
<path d="M36.1314 62.2682
L36.1314 62.9348
" />
<path d="M35.8933 61.8872
L35.6552 62.6015
" />
<path d="M35.6552 62.6015
L36.2743 62.6015
" />
</g><text x="76.2000" y="80.3000"
textLength="1.7738" font-size="1.3333" lengthAdjust="spacingAndGlyphs"
text-anchor="middle" opacity="0">IN</text>
<g class="stroked-text"><desc>IN</desc>
<path d="M75.6762 80.2548
L75.6762 79.2548
" />
<path d="M76.1524 80.2548
L76.1524 79.2548
" />
<path d="M76.1524 79.2548
L76.7238 80.2548
" />
<path d="M76.7238 80.2548
L76.7238 79.2548
" />
</g><text x="76.2000" y="83.3000"
textLength="1.9643" font-size="1.3333" lengthAdjust="spacingAndGlyphs"
text-anchor="middle" opacity="0">J5</text>
<g class="stroked-text"><desc>J5</desc>
<path d="M75.8667 82.2548
L75.8667 82.9691
" />
<path d="M75.8667 82.9691
L75.8190 83.1120
" />
<path d="M75.8190 83.1120
L75.7238 83.2072
" />
<path d="M75.7238 83.2072
L75.5810 83.2548
" />
<path d="M75.5810 83.2548
L75.4857 83.2548
" />
<path d="M76.8190 82.2548
L76.3429 82.2548
" />
<path d="M76.3429 82.2548
L76.2952 82.7310
" />
<path d="M76.2952 82.7310
L76.3429 82.6834
" />
<path d="M76.3429 82.6834
L76.4381 82.6358
" />
<path d="M76.4381 82.6358
L76.6762 82.6358
" />
<path d="M76.6762 82.6358
L76.7714 82.6834
" />
<path d="M76.7714 82.6834
L76.8190 82.7310
" />
<path d="M76.8190 82.7310
L76.8667 82.8262
" />
<path d="M76.8667 82.8262
L76.8667 83.0643
" />
<path d="M76.8667 83.0643
L76.8190 83.1596
" />
<path d="M76.8190 83.1596
L76.7714 83.2072
" />
<path d="M76.7714 83.2072
L76.6762 83.2548
" />
<path d="M76.6762 83.2548
L76.4381 83.2548
" />
<path d="M76.4381 83.2548
L76.3429 83.2072
" />
<path d="M76.3429 83.2072
L76.2952 83.1596
" />
</g><text x="35.5600" y="120.9400"
textLength="2.1071" font-size="1.3333" lengthAdjust="spacingAndGlyphs"
text-anchor="middle" opacity="0">VC</text>
<g class="stroked-text"><desc>VC</desc>
<path d="M34.7267 119.8948
L35.0600 120.8948
" />
<path d="M35.0600 120.8948
L35.3933 119.8948
" />
<path d="M36.2981 120.7996
L36.2505 120.8472
" />
<path d="M36.2505 120.8472
L36.1076 120.8948
" />
<path d="M36.1076 120.8948
L36.0124 120.8948
" />
<path d="M36.0124 120.8948
L35.8695 120.8472
" />
<path d="M35.8695 120.8472
L35.7743 120.7520
" />
<path d="M35.7743 120.7520
L35.7267 120.6567
" />
<path d="M35.7267 120.6567
L35.6790 120.4662
" />
<path d="M35.6790 120.4662
L35.6790 120.3234
" />
<path d="M35.6790 120.3234
L35.7267 120.1329
" />
<path d="M35.7267 120.1329
L35.7743 120.0377
" />
<path d="M35.7743 120.0377
L35.8695 119.9424
" />
<path d="M35.8695 119.9424
L36.0124 119.8948
" />
<path d="M36.0124 119.8948
L36.1076 119.8948
" />
<path d="M36.1076 119.8948
L36.2505 119.9424
" />
<path d="M36.2505 119.9424
L36.2981 119.9901
" />
</g><text x="35.5600" y="123.9400"
textLength="1.9643" font-size="1.3333" lengthAdjust="spacingAndGlyphs"
text-anchor="middle" opacity="0">J6</text>
<g class="stroked-text"><desc>J6</desc>
<path d="M35.2267 122.8948
L35.2267 123.6091
" />
<path d="M35.2267 123.6091
L35.1790 123.7520
" />
<path d="M35.1790 123.7520
L35.0838 123.8472
" />
<path d="M35.0838 123.8472
L34.9410 123.8948
" />
<path d="M34.9410 123.8948
L34.8457 123.8948
" />
<path d="M36.1314 122.8948
L35.9410 122.8948
" />
<path d="M35.9410 122.8948
L35.8457 122.9424
" />
<path d="M35.8457 122.9424
L35.7981 122.9901
" />
<path d="M35.7981 122.9901
L35.7029 123.1329
" />
<path d="M35.7029 123.1329
L35.6552 123.3234
" />
<path d="M35.6552 123.3234
L35.6552 123.7043
" />
<path d="M35.6552 123.7043
L35.7029 123.7996
" />
<path d="M35.7029 123.7996
L35.7505 123.8472
" />
<path d="M35.7505 123.8472
L35.8457 123.8948
" />
<path d="M35.8457 123.8948
L36.0362 123.8948
" />
<path d="M36.0362 123.8948
L36.1314 123.8472
" />
<path d="M36.1314 123.8472
L36.1790 123.7996
" />
<path d="M36.1790 123.7996
L36.2267 123.7043
" />
<path d="M36.2267 123.7043
L36.2267 123.4662
" />
<path d="M36.2267 123.4662
L36.1790 123.3710
" />
<path d="M36.1790 123.3710
L36.1314 123.3234
" />
<path d="M36.1314 123.3234
L36.0362 123.2758
" />
<path d="M36.0362 123.2758
L35.8457 123.2758
" />
<path d="M35.8457 123.2758
L35.7505 123.3234
" />
<path d="M35.7505 123.3234
L35.7029 123.3710
" />
<path d="M35.7029 123.3710
L35.6552 123.4662
" />
</g><g transform="rotate(-90.000000 34.0800 101.6000)">
<text x="34.0800" y="102.1000"
textLength="5.9167" font-size="1.3333" lengthAdjust="spacingAndGlyphs"
text-anchor="middle" opacity="0">SAMPLE</text>
</g>
<g class="stroked-text"><desc>SAMPLE</desc>
<path d="M34.4872 104.2429
L34.5348 104.1000
" />
<path d="M34.5348 104.1000
L34.5348 103.8619
" />
<path d="M34.5348 103.8619
L34.4872 103.7667
" />
<path d="M34.4872 103.7667
L34.4396 103.7190
" />
<path d="M34.4396 103.7190
L34.3443 103.6714
" />
<path d="M34.3443 103.6714
L34.2491 103.6714
" />
<path d="M34.2491 103.6714
L34.1539 103.7190
" />
<path d="M34.1539 103.7190
L34.1062 103.7667
" />
<path d="M34.1062 103.7667
L34.0586 103.8619
" />
<path d="M34.0586 103.8619
L34.0110 104.0524
" />
<path d="M34.0110 104.0524
L33.9634 104.1476
" />
<path d="M33.9634 104.1476
L33.9158 104.1952
" />
<path d="M33.9158 104.1952
L33.8205 104.2429
" />
<path d="M33.8205 104.2429
L33.7253 104.2429
" />
<path d="M33.7253 104.2429
L33.6301 104.1952
" />
<path d="M33.6301 104.1952
L33.5824 104.1476
" />
<path d="M33.5824 104.1476
L33.5348 104.0524
" />
<path d="M33.5348 104.0524
L33.5348 103.8143
" />
<path d="M33.5348 103.8143
L33.5824 103.6714
" />
<path d="M34.2491 103.2905
L34.2491 102.8143
" />
<path d="M34.5348 103.3857
L33.5348 103.0524
" />
<path d="M33.5348 103.0524
L34.5348 102.7190
" />
<path d="M34.5348 102.3857
L33.5348 102.3857
" />
<path d="M33.5348 102.3857
L34.2491 102.0524
" />
<path d="M34.2491 102.0524
L33.5348 101.7190
" />
<path d="M33.5348 101.7190
L34.5348 101.7190
" />
<path d="M34.5348 101.2429
L33.5348 101.2429
" />
<path d="M33.5348 101.2429
L33.5348 100.8619
" />
<path d="M33.5348 100.8619
L33.5824 100.7667
" />
<path d="M33.5824 100.7667
L33.6301 100.7190
" />
<path d="M33.6301 100.7190
L33.7253 100.6714
" />
<path d="M33.7253 100.6714
L33.8682 100.6714
" />
<path d="M33.8682 100.6714
L33.9634 100.7190
" />
<path d="M33.9634 100.7190
L34.0110 100.7667
" />
<path d="M34.0110 100.7667
L34.0586 100.8619
" />
<path d="M34.0586 100.8619
L34.0586 101.2429
" />
<path d="M34.5348 99.7667
L34.5348 100.2429
" />
<path d="M34.5348 100.2429
L33.5348 100.2429
" />
<path d="M34.0110 99.4333
L34.0110 99.1000
" />
<path d="M34.5348 98.9571
L34.5348 99.4333
" />
<path d="M34.5348 99.4333
L33.5348 99.4333
" />
<path d="M33.5348 99.4333
L33.5348 98.9571
" />
</g><g transform="rotate(-90.000000 37.0800 101.6000)">
<text x="37.0800" y="102.1000"
textLength="1.9643" font-size="1.3333" lengthAdjust="spacingAndGlyphs"
text-anchor="middle" opacity="0">J1</text>
</g>
<g class="stroked-text"><desc>J1</desc>
<path d="M36.5348 101.9333
L37.2491 101.9333
" />
<path d="M37.2491 101.9333
L37.3920 101.9810
" />
<path d="M37.3920 101.9810
L37.4872 102.0762
" />
<path d="M37.4872 102.0762
L37.5348 102.2190
" />
<path d="M37.5348 102.2190
L37.5348 102.3143
" />
<path d="M37.5348 100.9333
L37.5348 101.5048
" />
<path d="M37.5348 101.2190
L36.5348 101.2190
" />
<path d="M36.5348 101.2190
L36.6777 101.3143
" />
<path d="M36.6777 101.3143
L36.7729 101.4095
" />
<path d="M36.7729 101.4095
L36.8205 101.5048
" />
</g><text x="76.2000" y="59.9800"
textLength="3.1071" font-size="1.3333" lengthAdjust="spacingAndGlyphs"
text-anchor="middle" opacity="0">OUT</text>
<g class="stroked-text"><desc>OUT</desc>
<path d="M75.2000 58.9348
L75.3905 58.9348
" />
<path d="M75.3905 58.9348
L75.4857 58.9824
" />
<path d="M75.4857 58.9824
L75.5810 59.0777
" />
<path d="M75.5810 59.0777
L75.6286 59.2682
" />
<path d="M75.6286 59.2682
L75.6286 59.6015
" />
<path d="M75.6286 59.6015
L75.5810 59.7920
" />
<path d="M75.5810 59.7920
L75.4857 59.8872
" />
<path d="M75.4857 59.8872
L75.3905 59.9348
" />
<path d="M75.3905 59.9348
L75.2000 59.9348
" />
<path d="M75.2000 59.9348
L75.1048 59.8872
" />
<path d="M75.1048 59.8872
L75.0095 59.7920
" />
<path d="M75.0095 59.7920
L74.9619 59.6015
" />
<path d="M74.9619 59.6015
L74.9619 59.2682
" />
<path d="M74.9619 59.2682
L75.0095 59.0777
" />
<path d="M75.0095 59.0777
L75.1048 58.9824
" />
<path d="M75.1048 58.9824
L75.2000 58.9348
" />
<path d="M76.0571 58.9348
L76.0571 59.7443
" />
<path d="M76.0571 59.7443
L76.1048 59.8396
" />
<path d="M76.1048 59.8396
L76.1524 59.8872
" />
<path d="M76.1524 59.8872
L76.2476 59.9348
" />
<path d="M76.2476 59.9348
L76.4381 59.9348
" />
<path d="M76.4381 59.9348
L76.5333 59.8872
" />
<path d="M76.5333 59.8872
L76.5810 59.8396
" />
<path d="M76.5810 59.8396
L76.6286 59.7443
" />
<path d="M76.6286 59.7443
L76.6286 58.9348
" />
<path d="M76.9619 58.9348
L77.5333 58.9348
" />
<path d="M77.2476 59.9348
L77.2476 58.9348
" />
</g><text x="76.2000" y="62.9800"
textLength="1.9643" font-size="1.3333" lengthAdjust="spacingAndGlyphs"
text-anchor="middle" opacity="0">J9</text>
<g class="stroked-text"><desc>J9</desc>
<path d="M75.8667 61.9348
L75.8667 62.6491
" />
<path d="M75.8667 62.6491
L75.8190 62.7920
" />
<path d="M75.8190 62.7920
L75.7238 62.8872
" />
<path d="M75.7238 62.8872
L75.5810 62.9348
" />
<path d="M75.5810 62.9348
L75.4857 62.9348
" />
<path d="M76.3905 62.9348
L76.5810 62.9348
" />
<path d="M76.5810 62.9348
L76.6762 62.8872
" />
<path d="M76.6762 62.8872
L76.7238 62.8396
" />
<path d="M76.7238 62.8396
L76.8190 62.6967
" />
<path d="M76.8190 62.6967
L76.8667 62.5062
" />
<path d="M76.8667 62.5062
L76.8667 62.1253
" />
<path d="M76.8667 62.1253
L76.8190 62.0301
" />
<path d="M76.8190 62.0301
L76.7714 61.9824
" />
<path d="M76.7714 61.9824
L76.6762 61.9348
" />
<path d="M76.6762 61.9348
L76.4857 61.9348
" />
<path d="M76.4857 61.9348
L76.3905 61.9824
" />
<path d="M76.3905 61.9824
L76.3429 62.0301
" />
<path d="M76.3429 62.0301
L76.2952 62.1253
" />
<path d="M76.2952 62.1253
L76.2952 62.3634
" />
<path d="M76.2952 62.3634
L76.3429 62.4586
" />
<path d="M76.3429 62.4586
L76.3905 62.5062
" />
<path d="M76.3905 62.5062
L76.4857 62.5539
" />
<path d="M76.4857 62.5539
L76.6762 62.5539
" />
<path d="M76.6762 62.5539
L76.7714 62.5062
" />
<path d="M76.7714 62.5062
L76.8190 62.4586
" />
<path d="M76.8190 62.4586
L76.8667 62.3634
" />
</g><text x="55.8800" y="59.9800"
textLength="4.8214" font-size="1.3333" lengthAdjust="spacingAndGlyphs"
text-anchor="middle" opacity="0">CYCLE</text>
<g class="stroked-text"><desc>CYCLE</desc>
<path d="M54.4038 59.8396
L54.3562 59.8872
" />
<path d="M54.3562 59.8872
L54.2133 59.9348
" />
<path d="M54.2133 59.9348
L54.1181 59.9348
" />
<path d="M54.1181 59.9348
L53.9752 59.8872
" />
<path d="M53.9752 59.8872
L53.8800 59.7920
" />
<path d="M53.8800 59.7920
L53.8324 59.6967
" />
<path d="M53.8324 59.6967
L53.7848 59.5062
" />
<path d="M53.7848 59.5062
L53.7848 59.3634
" />
<path d="M53.7848 59.3634
L53.8324 59.1729
" />
<path d="M53.8324 59.1729
L53.8800 59.0777
" />
<path d="M53.8800 59.0777
L53.9752 58.9824
" />
<path d="M53.9752 58.9824
L54.1181 58.9348
" />
<path d="M54.1181 58.9348
L54.2133 58.9348
" />
<path d="M54.2133 58.9348
L54.3562 58.9824
" />
<path d="M54.3562 58.9824
L54.4038 59.0301
" />
<path d="M55.0229 59.4586
L55.0229 59.9348
" />
<path d="M54.6895 58.9348
L55.0229 59.4586
" />
<path d="M55.0229 59.4586
L55.3562 58.9348
" />
<path d="M56.2610 59.8396
L56.2133 59.8872
" />
<path d="M56.2133 59.8872
L56.0705 59.9348
" />
<path d="M56.0705 59.9348
L55.9752 59.9348
" />
<path d="M55.9752 59.9348
L55.8324 59.8872
" />
<path d="M55.8324 59.8872
L55.7371 59.7920
" />
<path d="M55.7371 59.7920
L55.6895 59.6967
" />
<path d="M55.6895 59.6967
L55.6419 59.5062
" />
<path d="M55.6419 59.5062
L55.6419 59.3634
" />
<path d="M55.6419 59.3634
L55.6895 59.1729
" />
<path d="M55.6895 59.1729
L55.7371 59.0777
" />
<path d="M55.7371 59.0777
L55.8324 58.9824
" />
<path d="M55.8324 58.9824
L55.9752 58.9348
" />
<path d="M55.9752 58.9348
L56.0705 58.9348
" />
<path d="M56.0705 58.9348
L56.2133 58.9824
" />
<path d="M56.2133 58.9824
L56.2610 59.0301
" />
<path d="M57.1657 59.9348
L56.6895 59.9348
" />
<path d="M56.6895 59.9348
L56.6895 58.9348
" />
<path d="M57.4990 59.4110
L57.8324 59.4110
" />
<path d="M57.9752 59.9348
L57.4990 59.9348
" />
<path d="M57.4990 59.9348
L57.4990 58.9348
" />
<path d="M57.4990 58.9348
L57.9752 58.9348
" />
</g><text x="55.8800" y="62.9800"
textLength="2.9167" font-size="1.3333" lengthAdjust="spacingAndGlyphs"
text-anchor="middle" opacity="0">J10</text>
<g class="stroked-text"><desc>J10</desc>
<path d="M55.0705 61.9348
L55.0705 62.6491
" />
<path d="M55.0705 62.6491
L55.0229 62.7920
" />
<path d="M55.0229 62.7920
L54.9276 62.8872
" />
<path d="M54.9276 62.8872
L54.7848 62.9348
" />
<path d="M54.7848 62.9348
L54.6895 62.9348
" />
<path d="M56.0705 62.9348
L55.4990 62.9348
" />
<path d="M55.7848 62.9348
L55.7848 61.9348
" />
<path d="M55.7848 61.9348
L55.6895 62.0777
" />
<path d="M55.6895 62.0777
L55.5943 62.1729
" />
<path d="M55.5943 62.1729
L55.4990 62.2205
" />
<path d="M56.6895 61.9348
L56.7848 61.9348
" />
<path d="M56.7848 61.9348
L56.8800 61.9824
" />
<path d="M56.8800 61.9824
L56.9276 62.0301
" />
<path d="M56.9276 62.0301
L56.9752 62.1253
" />
<path d="M56.9752 62.1253
L57.0229 62.3158
" />
<path d="M57.0229 62.3158
L57.0229 62.5539
" />
<path d="M57.0229 62.5539
L56.9752 62.7443
" />
<path d="M56.9752 62.7443
L56.9276 62.8396
" />
<path d="M56.9276 62.8396
L56.8800 62.8872
" />
<path d="M56.8800 62.8872
L56.7848 62.9348
" />
<path d="M56.7848 62.9348
L56.6895 62.9348
" />
<path d="M56.6895 62.9348
L56.5943 62.8872
" />
<path d="M56.5943 62.8872
L56.5467 62.8396
" />
<path d="M56.5467 62.8396
L56.4990 62.7443
" />
<path d="M56.4990 62.7443
L56.4514 62.5539
" />
<path d="M56.4514 62.5539
L56.4514 62.3158
" />
<path d="M56.4514 62.3158
L56.4990 62.1253
" />
<path d="M56.4990 62.1253
L56.5467 62.0301
" />
<path d="M56.5467 62.0301
L56.5943 61.9824
" />
<path d="M56.5943 61.9824
L56.6895 61.9348
" />
</g><text x="50.8000" y="80.3000"
textLength="3.1071" font-size="1.3333" lengthAdjust="spacingAndGlyphs"
text-anchor="middle" opacity="0">HOT</text>
<g class="stroked-text"><desc>HOT</desc>
<path d="M49.6095 80.2548
L49.6095 79.2548
" />
<path d="M49.6095 79.7310
L50.1810 79.7310
" />
<path d="M50.1810 80.2548
L50.1810 79.2548
" />
<path d="M50.8476 79.2548
L51.0381 79.2548
" />
<path d="M51.0381 79.2548
L51.1333 79.3024
" />
<path d="M51.1333 79.3024
L51.2286 79.3977
" />
<path d="M51.2286 79.3977
L51.2762 79.5882
" />
<path d="M51.2762 79.5882
L51.2762 79.9215
" />
<path d="M51.2762 79.9215
L51.2286 80.1120
" />
<path d="M51.2286 80.1120
L51.1333 80.2072
" />
<path d="M51.1333 80.2072
L51.0381 80.2548
" />
<path d="M51.0381 80.2548
L50.8476 80.2548
" />
<path d="M50.8476 80.2548
L50.7524 80.2072
" />
<path d="M50.7524 80.2072
L50.6571 80.1120
" />
<path d="M50.6571 80.1120
L50.6095 79.9215
" />
<path d="M50.6095 79.9215
L50.6095 79.5882
" />
<path d="M50.6095 79.5882
L50.6571 79.3977
" />
<path d="M50.6571 79.3977
L50.7524 79.3024
" />
<path d="M50.7524 79.3024
L50.8476 79.2548
" />
<path d="M51.5619 79.2548
L52.1333 79.2548
" />
<path d="M51.8476 80.2548
L51.8476 79.2548
" />
</g><text x="50.8000" y="83.3000"
textLength="2.9167" font-size="1.3333" lengthAdjust="spacingAndGlyphs"
text-anchor="middle" opacity="0">J11</text>
<g class="stroked-text"><desc>J11</desc>
<path d="M49.9905 82.2548
L49.9905 82.9691
" />
<path d="M49.9905 82.9691
L49.9429 83.1120
" />
<path d="M49.9429 83.1120
L49.8476 83.2072
" />
<path d="M49.8476 83.2072
L49.7048 83.2548
" />
<path d="M49.7048 83.2548
L49.6095 83.2548
" />
<path d="M50.9905 83.2548
L50.4190 83.2548
" />
<path d="M50.7048 83.2548
L50.7048 82.2548
" />
<path d="M50.7048 82.2548
L50.6095 82.3977
" />
<path d="M50.6095 82.3977
L50.5143 82.4929
" />
<path d="M50.5143 82.4929
L50.4190 82.5405
" />
<path d="M51.9429 83.2548
L51.3714 83.2548
" />
<path d="M51.6571 83.2548
L51.6571 82.2548
" />
<path d="M51.6571 82.2548
L51.5619 82.3977
" />
<path d="M51.5619 82.3977
L51.4667 82.4929
" />
<path d="M51.4667 82.4929
L51.3714 82.5405
" />
</g><text x="60.9600" y="80.3000"
textLength="2.0595" font-size="1.3333" lengthAdjust="spacingAndGlyphs"
text-anchor="middle" opacity="0">5V</text>
<g class="stroked-text"><desc>5V</desc>
<path d="M60.7695 79.2548
L60.2933 79.2548
" />
<path d="M60.2933 79.2548
L60.2457 79.7310
" />
<path d="M60.2457 79.7310
L60.2933 79.6834
" />
<path d="M60.2933 79.6834
L60.3886 79.6358
" />
<path d="M60.3886 79.6358
L60.6267 79.6358
" />
<path d="M60.6267 79.6358
L60.7219 79.6834
" />
<path d="M60.7219 79.6834
L60.7695 79.7310
" />
<path d="M60.7695 79.7310
L60.8171 79.8262
" />
<path d="M60.8171 79.8262
L60.8171 80.0643
" />
<path d="M60.8171 80.0643
L60.7695 80.1596
" />
<path d="M60.7695 80.1596
L60.7219 80.2072
" />
<path d="M60.7219 80.2072
L60.6267 80.2548
" />
<path d="M60.6267 80.2548
L60.3886 80.2548
" />
<path d="M60.3886 80.2548
L60.2933 80.2072
" />
<path d="M60.2933 80.2072
L60.2457 80.1596
" />
<path d="M61.1029 79.2548
L61.4362 80.2548
" />
<path d="M61.4362 80.2548
L61.7695 79.2548
" />
</g><text x="60.9600" y="83.3000"
textLength="2.9167" font-size="1.3333" lengthAdjust="spacingAndGlyphs"
text-anchor="middle" opacity="0">J12</text>
<g class="stroked-text"><desc>J12</desc>
<path d="M60.1505 82.2548
L60.1505 82.9691
" />
<path d="M60.1505 82.9691
L60.1029 83.1120
" />
<path d="M60.1029 83.1120
L60.0076 83.2072
" />
<path d="M60.0076 83.2072
L59.8648 83.2548
" />
<path d="M59.8648 83.2548
L59.7695 83.2548
" />
<path d="M61.1505 83.2548
L60.5790 83.2548
" />
<path d="M60.8648 83.2548
L60.8648 82.2548
" />
<path d="M60.8648 82.2548
L60.7695 82.3977
" />
<path d="M60.7695 82.3977
L60.6743 82.4929
" />
<path d="M60.6743 82.4929
L60.5790 82.5405
" />
<path d="M61.5314 82.3501
L61.5790 82.3024
" />
<path d="M61.5790 82.3024
L61.6743 82.2548
" />
<path d="M61.6743 82.2548
L61.9124 82.2548
" />
<path d="M61.9124 82.2548
L62.0076 82.3024
" />
<path d="M62.0076 82.3024
L62.0552 82.3501
" />
<path d="M62.0552 82.3501
L62.1029 82.4453
" />
<path d="M62.1029 82.4453
L62.1029 82.5405
" />
<path d="M62.1029 82.5405
L62.0552 82.6834
" />
<path d="M62.0552 82.6834
L61.4838 83.2548
" />
<path d="M61.4838 83.2548
L62.1029 83.2548
" />
</g><text x="55.8800" y="100.6200"
textLength="4.8214" font-size="1.3333" lengthAdjust="spacingAndGlyphs"
text-anchor="middle" opacity="0">CYCLE</text>
<g class="stroked-text"><desc>CYCLE</desc>
<path d="M54.4038 100.4796
L54.3562 100.5272
" />
<path d="M54.3562 100.5272
L54.2133 100.5748
" />
<path d="M54.2133 100.5748
L54.1181 100.5748
" />
<path d="M54.1181 100.5748
L53.9752 100.5272
" />
<path d="M53.9752 100.5272
L53.8800 100.4320
" />
<path d="M53.8800 100.4320
L53.8324 100.3367
" />
<path d="M53.8324 100.3367
L53.7848 100.1462
" />
<path d="M53.7848 100.1462
L53.7848 100.0034
" />
<path d="M53.7848 100.0034
L53.8324 99.8129
" />
<path d="M53.8324 99.8129
L53.8800 99.7177
" />
<path d="M53.8800 99.7177
L53.9752 99.6224
" />
<path d="M53.9752 99.6224
L54.1181 99.5748
" />
<path d="M54.1181 99.5748
L54.2133 99.5748
" />
<path d="M54.2133 99.5748
L54.3562 99.6224
" />
<path d="M54.3562 99.6224
L54.4038 99.6701
" />
<path d="M55.0229 100.0986
L55.0229 100.5748
" />
<path d="M54.6895 99.5748
L55.0229 100.0986
" />
<path d="M55.0229 100.0986
L55.3562 99.5748
" />
<path d="M56.2610 100.4796
L56.2133 100.5272
" />
<path d="M56.2133 100.5272
L56.0705 100.5748
" />
<path d="M56.0705 100.5748
L55.9752 100.5748
" />
<path d="M55.9752 100.5748
L55.8324 100.5272
" />
<path d="M55.8324 100.5272
L55.7371 100.4320
" />
<path d="M55.7371 100.4320
L55.6895 100.3367
" />
<path d="M55.6895 100.3367
L55.6419 100.1462
" />
<path d="M55.6419 100.1462
L55.6419 100.0034
" />
<path d="M55.6419 100.0034
L55.6895 99.8129
" />
<path d="M55.6895 99.8129
L55.7371 99.7177
" />
<path d="M55.7371 99.7177
L55.8324 99.6224
" />
<path d="M55.8324 99.6224
L55.9752 99.5748
" />
<path d="M55.9752 99.5748
L56.0705 99.5748
" />
<path d="M56.0705 99.5748
L56.2133 99.6224
" />
<path d="M56.2133 99.6224
L56.2610 99.6701
" />
<path d="M57.1657 100.5748
L56.6895 100.5748
" />
<path d="M56.6895 100.5748
L56.6895 99.5748
" />
<path d="M57.4990 100.0510
L57.8324 100.0510
" />
<path d="M57.9752 100.5748
L57.4990 100.5748
" />
<path d="M57.4990 100.5748
L57.4990 99.5748
" />
<path d="M57.4990 99.5748
L57.9752 99.5748
" />
</g><text x="55.8800" y="103.6200"
textLength="1.9643" font-size="1.3333" lengthAdjust="spacingAndGlyphs"
text-anchor="middle" opacity="0">J8</text>
<g class="stroked-text"><desc>J8</desc>
<path d="M55.5467 102.5748
L55.5467 103.2891
" />
<path d="M55.5467 103.2891
L55.4990 103.4320
" />
<path d="M55.4990 103.4320
L55.4038 103.5272
" />
<path d="M55.4038 103.5272
L55.2610 103.5748
" />
<path d="M55.2610 103.5748
L55.1657 103.5748
" />
<path d="M56.1657 103.0034
L56.0705 102.9558
" />
<path d="M56.0705 102.9558
L56.0229 102.9082
" />
<path d="M56.0229 102.9082
L55.9752 102.8129
" />
<path d="M55.9752 102.8129
L55.9752 102.7653
" />
<path d="M55.9752 102.7653
L56.0229 102.6701
" />
<path d="M56.0229 102.6701
L56.0705 102.6224
" />
<path d="M56.0705 102.6224
L56.1657 102.5748
" />
<path d="M56.1657 102.5748
L56.3562 102.5748
" />
<path d="M56.3562 102.5748
L56.4514 102.6224
" />
<path d="M56.4514 102.6224
L56.4990 102.6701
" />
<path d="M56.4990 102.6701
L56.5467 102.7653
" />
<path d="M56.5467 102.7653
L56.5467 102.8129
" />
<path d="M56.5467 102.8129
L56.4990 102.9082
" />
<path d="M56.4990 102.9082
L56.4514 102.9558
" />
<path d="M56.4514 102.9558
L56.3562 103.0034
" />
<path d="M56.3562 103.0034
L56.1657 103.0034
" />
<path d="M56.1657 103.0034
L56.0705 103.0510
" />
<path d="M56.0705 103.0510
L56.0229 103.0986
" />
<path d="M56.0229 103.0986
L55.9752 103.1939
" />
<path d="M55.9752 103.1939
L55.9752 103.3843
" />
<path d="M55.9752 103.3843
L56.0229 103.4796
" />
<path d="M56.0229 103.4796
L56.0705 103.5272
" />
<path d="M56.0705 103.5272
L56.1657 103.5748
" />
<path d="M56.1657 103.5748
L56.3562 103.5748
" />
<path d="M56.3562 103.5748
L56.4514 103.5272
" />
<path d="M56.4514 103.5272
L56.4990 103.4796
" />
<path d="M56.4990 103.4796
L56.5467 103.3843
" />
<path d="M56.5467 103.3843
L56.5467 103.1939
" />
<path d="M56.5467 103.1939
L56.4990 103.0986
" />
<path d="M56.4990 103.0986
L56.4514 103.0510
" />
<path d="M56.4514 103.0510
L56.3562 103.0034
" />
</g><text x="76.2000" y="100.6200"
textLength="3.1071" font-size="1.3333" lengthAdjust="spacingAndGlyphs"
text-anchor="middle" opacity="0">OUT</text>
<g class="stroked-text"><desc>OUT</desc>
<path d="M75.2000 99.5748
L75.3905 99.5748
" />
<path d="M75.3905 99.5748
L75.4857 99.6224
" />
<path d="M75.4857 99.6224
L75.5810 99.7177
" />
<path d="M75.5810 99.7177
L75.6286 99.9082
" />
<path d="M75.6286 99.9082
L75.6286 100.2415
" />
<path d="M75.6286 100.2415
L75.5810 100.4320
" />
<path d="M75.5810 100.4320
L75.4857 100.5272
" />
<path d="M75.4857 100.5272
L75.3905 100.5748
" />
<path d="M75.3905 100.5748
L75.2000 100.5748
" />
<path d="M75.2000 100.5748
L75.1048 100.5272
" />
<path d="M75.1048 100.5272
L75.0095 100.4320
" />
<path d="M75.0095 100.4320
L74.9619 100.2415
" />
<path d="M74.9619 100.2415
L74.9619 99.9082
" />
<path d="M74.9619 99.9082
L75.0095 99.7177
" />
<path d="M75.0095 99.7177
L75.1048 99.6224
" />
<path d="M75.1048 99.6224
L75.2000 99.5748
" />
<path d="M76.0571 99.5748
L76.0571 100.3843
" />
<path d="M76.0571 100.3843
L76.1048 100.4796
" />
<path d="M76.1048 100.4796
L76.1524 100.5272
" />
<path d="M76.1524 100.5272
L76.2476 100.5748
" />
<path d="M76.2476 100.5748
L76.4381 100.5748
" />
<path d="M76.4381 100.5748
L76.5333 100.5272
" />
<path d="M76.5333 100.5272
L76.5810 100.4796
" />
<path d="M76.5810 100.4796
L76.6286 100.3843
" />
<path d="M76.6286 100.3843
L76.6286 99.5748
" />
<path d="M76.9619 99.5748
L77.5333 99.5748
" />
<path d="M77.2476 100.5748
L77.2476 99.5748
" />
</g><text x="76.2000" y="103.6200"
textLength="1.9643" font-size="1.3333" lengthAdjust="spacingAndGlyphs"
text-anchor="middle" opacity="0">J7</text>
<g class="stroked-text"><desc>J7</desc>
<path d="M75.8667 102.5748
L75.8667 103.2891
" />
<path d="M75.8667 103.2891
L75.8190 103.4320
" />
<path d="M75.8190 103.4320
L75.7238 103.5272
" />
<path d="M75.7238 103.5272
L75.5810 103.5748
" />
<path d="M75.5810 103.5748
L75.4857 103.5748
" />
<path d="M76.2476 102.5748
L76.9143 102.5748
" />
<path d="M76.9143 102.5748
L76.4857 103.5748
" />
</g><g transform="rotate(-90.000000 63.2000 48.1400)">
<text x="63.2000" y="48.6400"
textLength="2.9643" font-size="1.3333" lengthAdjust="spacingAndGlyphs"
text-anchor="middle" opacity="0">50k</text>
</g>
<g class="stroked-text"><desc>50k</desc>
<path d="M62.6548 48.7829
L62.6548 49.2590
" />
<path d="M62.6548 49.2590
L63.1310 49.3067
" />
<path d="M63.1310 49.3067
L63.0834 49.2590
" />
<path d="M63.0834 49.2590
L63.0358 49.1638
" />
<path d="M63.0358 49.1638
L63.0358 48.9257
" />
<path d="M63.0358 48.9257
L63.0834 48.8305
" />
<path d="M63.0834 48.8305
L63.1310 48.7829
" />
<path d="M63.1310 48.7829
L63.2262 48.7352
" />
<path d="M63.2262 48.7352
L63.4643 48.7352
" />
<path d="M63.4643 48.7352
L63.5596 48.7829
" />
<path d="M63.5596 48.7829
L63.6072 48.8305
" />
<path d="M63.6072 48.8305
L63.6548 48.9257
" />
<path d="M63.6548 48.9257
L63.6548 49.1638
" />
<path d="M63.6548 49.1638
L63.6072 49.2590
" />
<path d="M63.6072 49.2590
L63.5596 49.3067
" />
<path d="M62.6548 48.1162
L62.6548 48.0210
" />
<path d="M62.6548 48.0210
L62.7024 47.9257
" />
<path d="M62.7024 47.9257
L62.7501 47.8781
" />
<path d="M62.7501 47.8781
L62.8453 47.8305
" />
<path d="M62.8453 47.8305
L63.0358 47.7829
" />
<path d="M63.0358 47.7829
L63.2739 47.7829
" />
<path d="M63.2739 47.7829
L63.4643 47.8305
" />
<path d="M63.4643 47.8305
L63.5596 47.8781
" />
<path d="M63.5596 47.8781
L63.6072 47.9257
" />
<path d="M63.6072 47.9257
L63.6548 48.0210
" />
<path d="M63.6548 48.0210
L63.6548 48.1162
" />
<path d="M63.6548 48.1162
L63.6072 48.2114
" />
<path d="M63.6072 48.2114
L63.5596 48.2590
" />
<path d="M63.5596 48.2590
L63.4643 48.3067
" />
<path d="M63.4643 48.3067
L63.2739 48.3543
" />
<path d="M63.2739 48.3543
L63.0358 48.3543
" />
<path d="M63.0358 48.3543
L62.8453 48.3067
" />
<path d="M62.8453 48.3067
L62.7501 48.2590
" />
<path d="M62.7501 48.2590
L62.7024 48.2114
" />
<path d="M62.7024 48.2114
L62.6548 48.1162
" />
<path d="M63.6548 47.3543
L62.6548 47.3543
" />
<path d="M63.2739 47.2590
L63.6548 46.9733
" />
<path d="M62.9882 46.9733
L63.3691 47.3543
" />
</g><g transform="rotate(-90.000000 55.8800 40.5200)">
<text x="55.8800" y="41.0200"
textLength="3.0595" font-size="1.3333" lengthAdjust="spacingAndGlyphs"
text-anchor="middle" opacity="0">RV2</text>
</g>
<g class="stroked-text"><desc>RV2</desc>
<path d="M56.3348 41.1152
L55.8586 41.4486
" />
<path d="M56.3348 41.6867
L55.3348 41.6867
" />
<path d="M55.3348 41.6867
L55.3348 41.3057
" />
<path d="M55.3348 41.3057
L55.3824 41.2105
" />
<path d="M55.3824 41.2105
L55.4301 41.1629
" />
<path d="M55.4301 41.1629
L55.5253 41.1152
" />
<path d="M55.5253 41.1152
L55.6682 41.1152
" />
<path d="M55.6682 41.1152
L55.7634 41.1629
" />
<path d="M55.7634 41.1629
L55.8110 41.2105
" />
<path d="M55.8110 41.2105
L55.8586 41.3057
" />
<path d="M55.8586 41.3057
L55.8586 41.6867
" />
<path d="M55.3348 40.8295
L56.3348 40.4962
" />
<path d="M56.3348 40.4962
L55.3348 40.1629
" />
<path d="M55.4301 39.8771
L55.3824 39.8295
" />
<path d="M55.3824 39.8295
L55.3348 39.7343
" />
<path d="M55.3348 39.7343
L55.3348 39.4962
" />
<path d="M55.3348 39.4962
L55.3824 39.4010
" />
<path d="M55.3824 39.4010
L55.4301 39.3533
" />
<path d="M55.4301 39.3533
L55.5253 39.3057
" />
<path d="M55.5253 39.3057
L55.6205 39.3057
" />
<path d="M55.6205 39.3057
L55.7634 39.3533
" />
<path d="M55.7634 39.3533
L56.3348 39.9248
" />
<path d="M56.3348 39.9248
L56.3348 39.3057
" />
</g><g transform="rotate(-90.000000 63.2000 129.4200)">
<text x="63.2000" y="129.9200"
textLength="2.9643" font-size="1.3333" lengthAdjust="spacingAndGlyphs"
text-anchor="middle" opacity="0">50k</text>
</g>
<g class="stroked-text"><desc>50k</desc>
<path d="M62.6548 130.0629
L62.6548 130.5390
" />
<path d="M62.6548 130.5390
L63.1310 130.5867
" />
<path d="M63.1310 130.5867
L63.0834 130.5390
" />
<path d="M63.0834 130.5390
L63.0358 130.4438
" />
<path d="M63.0358 130.4438
L63.0358 130.2057
" />
<path d="M63.0358 130.2057
L63.0834 130.1105
" />
<path d="M63.0834 130.1105
L63.1310 130.0629
" />
<path d="M63.1310 130.0629
L63.2262 130.0152
" />
<path d="M63.2262 130.0152
L63.4643 130.0152
" />
<path d="M63.4643 130.0152
L63.5596 130.0629
" />
<path d="M63.5596 130.0629
L63.6072 130.1105
" />
<path d="M63.6072 130.1105
L63.6548 130.2057
" />
<path d="M63.6548 130.2057
L63.6548 130.4438
" />
<path d="M63.6548 130.4438
L63.6072 130.5390
" />
<path d="M63.6072 130.5390
L63.5596 130.5867
" />
<path d="M62.6548 129.3962
L62.6548 129.3010
" />
<path d="M62.6548 129.3010
L62.7024 129.2057
" />
<path d="M62.7024 129.2057
L62.7501 129.1581
" />
<path d="M62.7501 129.1581
L62.8453 129.1105
" />
<path d="M62.8453 129.1105
L63.0358 129.0629
" />
<path d="M63.0358 129.0629
L63.2739 129.0629
" />
<path d="M63.2739 129.0629
L63.4643 129.1105
" />
<path d="M63.4643 129.1105
L63.5596 129.1581
" />
<path d="M63.5596 129.1581
L63.6072 129.2057
" />
<path d="M63.6072 129.2057
L63.6548 129.3010
" />
<path d="M63.6548 129.3010
L63.6548 129.3962
" />
<path d="M63.6548 129.3962
L63.6072 129.4914
" />
<path d="M63.6072 129.4914
L63.5596 129.5390
" />
<path d="M63.5596 129.5390
L63.4643 129.5867
" />
<path d="M63.4643 129.5867
L63.2739 129.6343
" />
<path d="M63.2739 129.6343
L63.0358 129.6343
" />
<path d="M63.0358 129.6343
L62.8453 129.5867
" />
<path d="M62.8453 129.5867
L62.7501 129.5390
" />
<path d="M62.7501 129.5390
L62.7024 129.4914
" />
<path d="M62.7024 129.4914
L62.6548 129.3962
" />
<path d="M63.6548 128.6343
L62.6548 128.6343
" />
<path d="M63.2739 128.5390
L63.6548 128.2533
" />
<path d="M62.9882 128.2533
L63.3691 128.6343
" />
</g><g transform="rotate(-90.000000 55.8800 121.8000)">
<text x="55.8800" y="122.3000"
textLength="3.0595" font-size="1.3333" lengthAdjust="spacingAndGlyphs"
text-anchor="middle" opacity="0">RV1</text>
</g>
<g class="stroked-text"><desc>RV1</desc>
<path d="M56.3348 122.3952
L55.8586 122.7286
" />
<path d="M56.3348 122.9667
L55.3348 122.9667
" />
<path d="M55.3348 122.9667
L55.3348 122.5857
" />
<path d="M55.3348 122.5857
L55.3824 122.4905
" />
<path d="M55.3824 122.4905
L55.4301 122.4429
" />
<path d="M55.4301 122.4429
L55.5253 122.3952
" />
<path d="M55.5253 122.3952
L55.6682 122.3952
" />
<path d="M55.6682 122.3952
L55.7634 122.4429
" />
<path d="M55.7634 122.4429
L55.8110 122.4905
" />
<path d="M55.8110 122.4905
L55.8586 122.5857
" />
<path d="M55.8586 122.5857
L55.8586 122.9667
" />
<path d="M55.3348 122.1095
L56.3348 121.7762
" />
<path d="M56.3348 121.7762
L55.3348 121.4429
" />
<path d="M56.3348 120.5857
L56.3348 121.1571
" />
<path d="M56.3348 120.8714
L55.3348 120.8714
" />
<path d="M55.3348 120.8714
L55.4777 120.9667
" />
<path d="M55.4777 120.9667
L55.5729 121.0619
" />
<path d="M55.5729 121.0619
L55.6205 121.1571
" />
</g><text x="43.1800" y="89.8600"
textLength="2.9643" font-size="1.3333" lengthAdjust="spacingAndGlyphs"
text-anchor="middle" opacity="0">LED</text>
<g class="stroked-text"><desc>LED</desc>
<path d="M42.5371 89.8148
L42.0610 89.8148
" />
<path d="M42.0610 89.8148
L42.0610 88.8148
" />
<path d="M42.8705 89.2910
L43.2038 89.2910
" />
<path d="M43.3467 89.8148
L42.8705 89.8148
" />
<path d="M42.8705 89.8148
L42.8705 88.8148
" />
<path d="M42.8705 88.8148
L43.3467 88.8148
" />
<path d="M43.7752 89.8148
L43.7752 88.8148
" />
<path d="M43.7752 88.8148
L44.0133 88.8148
" />
<path d="M44.0133 88.8148
L44.1562 88.8624
" />
<path d="M44.1562 88.8624
L44.2514 88.9577
" />
<path d="M44.2514 88.9577
L44.2990 89.0529
" />
<path d="M44.2990 89.0529
L44.3467 89.2434
" />
<path d="M44.3467 89.2434
L44.3467 89.3862
" />
<path d="M44.3467 89.3862
L44.2990 89.5767
" />
<path d="M44.2990 89.5767
L44.2514 89.6720
" />
<path d="M44.2514 89.6720
L44.1562 89.7672
" />
<path d="M44.1562 89.7672
L44.0133 89.8148
" />
<path d="M44.0133 89.8148
L43.7752 89.8148
" />
</g></g>
<g style="fill:#000000; fill-opacity:0.0; 
stroke:#000000; stroke-width:0.2000; stroke-opacity:1; 
stroke-linecap:round; stroke-linejoin:round;">
<text x="43.2000" y="93.7200"
textLength="2.0019" font-size="1.0667" lengthAdjust="spacingAndGlyphs"
text-anchor="middle" opacity="0">D3</text>
<g class="stroked-text"><desc>D3</desc>
<path d="M42.6095 93.6797
L42.6095 92.8797
" />
<path d="M42.6095 92.8797
L42.8000 92.8797
" />
<path d="M42.8000 92.8797
L42.9143 92.9178
" />
<path d="M42.9143 92.9178
L42.9905 92.9940
" />
<path d="M42.9905 92.9940
L43.0286 93.0702
" />
<path d="M43.0286 93.0702
L43.0667 93.2226
" />
<path d="M43.0667 93.2226
L43.0667 93.3368
" />
<path d="M43.0667 93.3368
L43.0286 93.4892
" />
<path d="M43.0286 93.4892
L42.9905 93.5654
" />
<path d="M42.9905 93.5654
L42.9143 93.6416
" />
<path d="M42.9143 93.6416
L42.8000 93.6797
" />
<path d="M42.8000 93.6797
L42.6095 93.6797
" />
<path d="M43.3333 92.8797
L43.8286 92.8797
" />
<path d="M43.8286 92.8797
L43.5619 93.1845
" />
<path d="M43.5619 93.1845
L43.6762 93.1845
" />
<path d="M43.6762 93.1845
L43.7524 93.2226
" />
<path d="M43.7524 93.2226
L43.7905 93.2606
" />
<path d="M43.7905 93.2606
L43.8286 93.3368
" />
<path d="M43.8286 93.3368
L43.8286 93.5273
" />
<path d="M43.8286 93.5273
L43.7905 93.6035
" />
<path d="M43.7905 93.6035
L43.7524 93.6416
" />
<path d="M43.7524 93.6416
L43.6762 93.6797
" />
<path d="M43.6762 93.6797
L43.4476 93.6797
" />
<path d="M43.4476 93.6797
L43.3714 93.6416
" />
<path d="M43.3714 93.6416
L43.3333 93.6035
" />
</g></g>
<g style="fill:#000000; fill-opacity:0.0; 
stroke:#000000; stroke-width:0.1500; stroke-opacity:1; 
stroke-linecap:round; stroke-linejoin:round;">
<g transform="rotate(-90.000000 83.5200 129.4200)">
<text x="83.5200" y="129.9200"
textLength="2.9643" font-size="1.3333" lengthAdjust="spacingAndGlyphs"
text-anchor="middle" opacity="0">50k</text>
</g>
<g class="stroked-text"><desc>50k</desc>
<path d="M82.9748 130.0629
L82.9748 130.5390
" />
<path d="M82.9748 130.5390
L83.4510 130.5867
" />
<path d="M83.4510 130.5867
L83.4034 130.5390
" />
<path d="M83.4034 130.5390
L83.3558 130.4438
" />
<path d="M83.3558 130.4438
L83.3558 130.2057
" />
<path d="M83.3558 130.2057
L83.4034 130.1105
" />
<path d="M83.4034 130.1105
L83.4510 130.0629
" />
<path d="M83.4510 130.0629
L83.5462 130.0152
" />
<path d="M83.5462 130.0152
L83.7843 130.0152
" />
<path d="M83.7843 130.0152
L83.8796 130.0629
" />
<path d="M83.8796 130.0629
L83.9272 130.1105
" />
<path d="M83.9272 130.1105
L83.9748 130.2057
" />
<path d="M83.9748 130.2057
L83.9748 130.4438
" />
<path d="M83.9748 130.4438
L83.9272 130.5390
" />
<path d="M83.9272 130.5390
L83.8796 130.5867
" />
<path d="M82.9748 129.3962
L82.9748 129.3010
" />
<path d="M82.9748 129.3010
L83.0224 129.2057
" />
<path d="M83.0224 129.2057
L83.0701 129.1581
" />
<path d="M83.0701 129.1581
L83.1653 129.1105
" />
<path d="M83.1653 129.1105
L83.3558 129.0629
" />
<path d="M83.3558 129.0629
L83.5939 129.0629
" />
<path d="M83.5939 129.0629
L83.7843 129.1105
" />
<path d="M83.7843 129.1105
L83.8796 129.1581
" />
<path d="M83.8796 129.1581
L83.9272 129.2057
" />
<path d="M83.9272 129.2057
L83.9748 129.3010
" />
<path d="M83.9748 129.3010
L83.9748 129.3962
" />
<path d="M83.9748 129.3962
L83.9272 129.4914
" />
<path d="M83.9272 129.4914
L83.8796 129.5390
" />
<path d="M83.8796 129.5390
L83.7843 129.5867
" />
<path d="M83.7843 129.5867
L83.5939 129.6343
" />
<path d="M83.5939 129.6343
L83.3558 129.6343
" />
<path d="M83.3558 129.6343
L83.1653 129.5867
" />
<path d="M83.1653 129.5867
L83.0701 129.5390
" />
<path d="M83.0701 129.5390
L83.0224 129.4914
" />
<path d="M83.0224 129.4914
L82.9748 129.3962
" />
<path d="M83.9748 128.6343
L82.9748 128.6343
" />
<path d="M83.5939 128.5390
L83.9748 128.2533
" />
<path d="M83.3082 128.2533
L83.6891 128.6343
" />
</g><g transform="rotate(-90.000000 76.2000 121.8000)">
<text x="76.2000" y="122.3000"
textLength="3.0595" font-size="1.3333" lengthAdjust="spacingAndGlyphs"
text-anchor="middle" opacity="0">RV3</text>
</g>
<g class="stroked-text"><desc>RV3</desc>
<path d="M76.6548 122.3952
L76.1786 122.7286
" />
<path d="M76.6548 122.9667
L75.6548 122.9667
" />
<path d="M75.6548 122.9667
L75.6548 122.5857
" />
<path d="M75.6548 122.5857
L75.7024 122.4905
" />
<path d="M75.7024 122.4905
L75.7501 122.4429
" />
<path d="M75.7501 122.4429
L75.8453 122.3952
" />
<path d="M75.8453 122.3952
L75.9882 122.3952
" />
<path d="M75.9882 122.3952
L76.0834 122.4429
" />
<path d="M76.0834 122.4429
L76.1310 122.4905
" />
<path d="M76.1310 122.4905
L76.1786 122.5857
" />
<path d="M76.1786 122.5857
L76.1786 122.9667
" />
<path d="M75.6548 122.1095
L76.6548 121.7762
" />
<path d="M76.6548 121.7762
L75.6548 121.4429
" />
<path d="M75.6548 121.2048
L75.6548 120.5857
" />
<path d="M75.6548 120.5857
L76.0358 120.9190
" />
<path d="M76.0358 120.9190
L76.0358 120.7762
" />
<path d="M76.0358 120.7762
L76.0834 120.6810
" />
<path d="M76.0834 120.6810
L76.1310 120.6333
" />
<path d="M76.1310 120.6333
L76.2262 120.5857
" />
<path d="M76.2262 120.5857
L76.4643 120.5857
" />
<path d="M76.4643 120.5857
L76.5596 120.6333
" />
<path d="M76.5596 120.6333
L76.6072 120.6810
" />
<path d="M76.6072 120.6810
L76.6548 120.7762
" />
<path d="M76.6548 120.7762
L76.6548 121.0619
" />
<path d="M76.6548 121.0619
L76.6072 121.1571
" />
<path d="M76.6072 121.1571
L76.5596 121.2048
" />
</g><g transform="rotate(-90.000000 83.5200 48.1400)">
<text x="83.5200" y="48.6400"
textLength="2.9643" font-size="1.3333" lengthAdjust="spacingAndGlyphs"
text-anchor="middle" opacity="0">50k</text>
</g>
<g class="stroked-text"><desc>50k</desc>
<path d="M82.9748 48.7829
L82.9748 49.2590
" />
<path d="M82.9748 49.2590
L83.4510 49.3067
" />
<path d="M83.4510 49.3067
L83.4034 49.2590
" />
<path d="M83.4034 49.2590
L83.3558 49.1638
" />
<path d="M83.3558 49.1638
L83.3558 48.9257
" />
<path d="M83.3558 48.9257
L83.4034 48.8305
" />
<path d="M83.4034 48.8305
L83.4510 48.7829
" />
<path d="M83.4510 48.7829
L83.5462 48.7352
" />
<path d="M83.5462 48.7352
L83.7843 48.7352
" />
<path d="M83.7843 48.7352
L83.8796 48.7829
" />
<path d="M83.8796 48.7829
L83.9272 48.8305
" />
<path d="M83.9272 48.8305
L83.9748 48.9257
" />
<path d="M83.9748 48.9257
L83.9748 49.1638
" />
<path d="M83.9748 49.1638
L83.9272 49.2590
" />
<path d="M83.9272 49.2590
L83.8796 49.3067
" />
<path d="M82.9748 48.1162
L82.9748 48.0210
" />
<path d="M82.9748 48.0210
L83.0224 47.9257
" />
<path d="M83.0224 47.9257
L83.0701 47.8781
" />
<path d="M83.0701 47.8781
L83.1653 47.8305
" />
<path d="M83.1653 47.8305
L83.3558 47.7829
" />
<path d="M83.3558 47.7829
L83.5939 47.7829
" />
<path d="M83.5939 47.7829
L83.7843 47.8305
" />
<path d="M83.7843 47.8305
L83.8796 47.8781
" />
<path d="M83.8796 47.8781
L83.9272 47.9257
" />
<path d="M83.9272 47.9257
L83.9748 48.0210
" />
<path d="M83.9748 48.0210
L83.9748 48.1162
" />
<path d="M83.9748 48.1162
L83.9272 48.2114
" />
<path d="M83.9272 48.2114
L83.8796 48.2590
" />
<path d="M83.8796 48.2590
L83.7843 48.3067
" />
<path d="M83.7843 48.3067
L83.5939 48.3543
" />
<path d="M83.5939 48.3543
L83.3558 48.3543
" />
<path d="M83.3558 48.3543
L83.1653 48.3067
" />
<path d="M83.1653 48.3067
L83.0701 48.2590
" />
<path d="M83.0701 48.2590
L83.0224 48.2114
" />
<path d="M83.0224 48.2114
L82.9748 48.1162
" />
<path d="M83.9748 47.3543
L82.9748 47.3543
" />
<path d="M83.5939 47.2590
L83.9748 46.9733
" />
<path d="M83.3082 46.9733
L83.6891 47.3543
" />
</g><g transform="rotate(-90.000000 76.2000 40.5200)">
<text x="76.2000" y="41.0200"
textLength="3.0595" font-size="1.3333" lengthAdjust="spacingAndGlyphs"
text-anchor="middle" opacity="0">RV4</text>
</g>
<g class="stroked-text"><desc>RV4</desc>
<path d="M76.6548 41.1152
L76.1786 41.4486
" />
<path d="M76.6548 41.6867
L75.6548 41.6867
" />
<path d="M75.6548 41.6867
L75.6548 41.3057
" />
<path d="M75.6548 41.3057
L75.7024 41.2105
" />
<path d="M75.7024 41.2105
L75.7501 41.1629
" />
<path d="M75.7501 41.1629
L75.8453 41.1152
" />
<path d="M75.8453 41.1152
L75.9882 41.1152
" />
<path d="M75.9882 41.1152
L76.0834 41.1629
" />
<path d="M76.0834 41.1629
L76.1310 41.2105
" />
<path d="M76.1310 41.2105
L76.1786 41.3057
" />
<path d="M76.1786 41.3057
L76.1786 41.6867
" />
<path d="M75.6548 40.8295
L76.6548 40.4962
" />
<path d="M76.6548 40.4962
L75.6548 40.1629
" />
<path d="M75.9882 39.4010
L76.6548 39.4010
" />
<path d="M75.6072 39.6390
L76.3215 39.8771
" />
<path d="M76.3215 39.8771
L76.3215 39.2581
" />
</g></g>
<g style="fill:#000000; fill-opacity:0.0; 
stroke:#000000; stroke-width:0.1000; stroke-opacity:1; 
stroke-linecap:round; stroke-linejoin:round;">
<path d="M63.5400 59.3633
L63.5400 62.3027
" />
<path d="M63.5400 62.3027 A2.9000 2.9000 0.0 1 0 63.5400 59.3633" />
<circle cx="66.0400" cy="60.8330" r="2.5000" /> 
<path d="M63.5400 100.1303
L63.5400 103.0697
" />
<path d="M63.5400 103.0697 A2.9000 2.9000 0.0 1 0 63.5400 100.1303" />
<circle cx="66.0400" cy="101.6000" r="2.5000" /> 
<path d="M31.0600 87.2800
L31.0600 76.8800
" />
<path d="M35.5600 74.8000
L35.5600 76.8300
" />
<path d="M40.0600 76.8300
L31.0600 76.8300
" />
<path d="M40.0600 87.2800
L31.0600 87.2800
" />
<path d="M40.0600 87.2800
L40.0600 76.8800
" />
<circle cx="35.5600" cy="81.2800" r="1.8000" /> 
<path d="M31.0600 46.6400
L31.0600 36.2400
" />
<path d="M35.5600 34.1600
L35.5600 36.1900
" />
<path d="M40.0600 36.1900
L31.0600 36.1900
" />
<path d="M40.0600 46.6400
L31.0600 46.6400
" />
<path d="M40.0600 46.6400
L40.0600 36.2400
" />
<circle cx="35.5600" cy="40.6400" r="1.8000" /> 
<path d="M31.0600 66.9600
L31.0600 56.5600
" />
<path d="M35.5600 54.4800
L35.5600 56.5100
" />
<path d="M40.0600 56.5100
L31.0600 56.5100
" />
<path d="M40.0600 66.9600
L31.0600 66.9600
" />
<path d="M40.0600 66.9600
L40.0600 56.5600
" />
<circle cx="35.5600" cy="60.9600" r="1.8000" /> 
<path d="M71.7000 87.2800
L71.7000 76.8800
" />
<path d="M76.2000 74.8000
L76.2000 76.8300
" />
<path d="M80.7000 76.8300
L71.7000 76.8300
" />
<path d="M80.7000 87.2800
L71.7000 87.2800
" />
<path d="M80.7000 87.2800
L80.7000 76.8800
" />
<circle cx="76.2000" cy="81.2800" r="1.8000" /> 
<path d="M31.0600 127.9200
L31.0600 117.5200
" />
<path d="M35.5600 115.4400
L35.5600 117.4700
" />
<path d="M40.0600 117.4700
L31.0600 117.4700
" />
<path d="M40.0600 127.9200
L31.0600 127.9200
" />
<path d="M40.0600 127.9200
L40.0600 117.5200
" />
<circle cx="35.5600" cy="121.9200" r="1.8000" /> 
<path d="M41.5600 106.1000
L31.1600 106.1000
" />
<path d="M29.0800 101.6000
L31.1100 101.6000
" />
<path d="M31.1100 97.1000
L31.1100 106.1000
" />
<path d="M41.5600 97.1000
L41.5600 106.1000
" />
<path d="M41.5600 97.1000
L31.1600 97.1000
" />
<circle cx="35.5600" cy="101.6000" r="1.8000" /> 
<path d="M71.7000 66.9600
L71.7000 56.5600
" />
<path d="M76.2000 54.4800
L76.2000 56.5100
" />
<path d="M80.7000 56.5100
L71.7000 56.5100
" />
<path d="M80.7000 66.9600
L71.7000 66.9600
" />
<path d="M80.7000 66.9600
L80.7000 56.5600
" />
<circle cx="76.2000" cy="60.9600" r="1.8000" /> 
<path d="M51.3800 66.9600
L51.3800 56.5600
" />
<path d="M55.8800 54.4800
L55.8800 56.5100
" />
<path d="M60.3800 56.5100
L51.3800 56.5100
" />
<path d="M60.3800 66.9600
L51.3800 66.9600
" />
<path d="M60.3800 66.9600
L60.3800 56.5600
" />
<circle cx="55.8800" cy="60.9600" r="1.8000" /> 
<path d="M46.3000 87.2800
L46.3000 76.8800
" />
<path d="M50.8000 74.8000
L50.8000 76.8300
" />
<path d="M55.3000 76.8300
L46.3000 76.8300
" />
<path d="M55.3000 87.2800
L46.3000 87.2800
" />
<path d="M55.3000 87.2800
L55.3000 76.8800
" />
<circle cx="50.8000" cy="81.2800" r="1.8000" /> 
<path d="M56.4600 87.2800
L56.4600 76.8800
" />
<path d="M60.9600 74.8000
L60.9600 76.8300
" />
<path d="M65.4600 76.8300
L56.4600 76.8300
" />
<path d="M65.4600 87.2800
L56.4600 87.2800
" />
<path d="M65.4600 87.2800
L65.4600 76.8800
" />
<circle cx="60.9600" cy="81.2800" r="1.8000" /> 
<path d="M51.3800 107.6000
L51.3800 97.2000
" />
<path d="M55.8800 95.1200
L55.8800 97.1500
" />
<path d="M60.3800 97.1500
L51.3800 97.1500
" />
<path d="M60.3800 107.6000
L51.3800 107.6000
" />
<path d="M60.3800 107.6000
L60.3800 97.2000
" />
<circle cx="55.8800" cy="101.6000" r="1.8000" /> 
<path d="M71.7000 107.6000
L71.7000 97.2000
" />
<path d="M76.2000 95.1200
L76.2000 97.1500
" />
<path d="M80.7000 97.1500
L71.7000 97.1500
" />
<path d="M80.7000 107.6000
L71.7000 107.6000
" />
<path d="M80.7000 107.6000
L80.7000 97.2000
" />
<circle cx="76.2000" cy="101.6000" r="1.8000" /> 
<path d="M51.0900 47.1400
L51.0900 35.7900
" />
<path d="M60.5900 47.1400
L51.0900 47.1400
" />
<path d="M60.5900 47.1400
L60.5900 35.7900
" />
<path d="M60.5900 35.7900
L51.0900 35.7900
" />
<circle cx="55.8400" cy="40.6400" r="3.5000" /> 
<path d="M51.0900 128.4200
L51.0900 117.0700
" />
<path d="M60.5900 128.4200
L51.0900 128.4200
" />
<path d="M60.5900 128.4200
L60.5900 117.0700
" />
<path d="M60.5900 117.0700
L51.0900 117.0700
" />
<circle cx="55.8400" cy="121.9200" r="3.5000" /> 
<path d="M45.6800 94.7897
L45.6800 91.8503
" />
<path d="M45.6800 91.8503 A2.9000 2.9000 0.0 1 0 45.6800 94.7897" />
<circle cx="43.1800" cy="93.3200" r="2.5000" /> 
<path d="M71.4100 128.4200
L71.4100 117.0700
" />
<path d="M80.9100 128.4200
L71.4100 128.4200
" />
<path d="M80.9100 128.4200
L80.9100 117.0700
" />
<path d="M80.9100 117.0700
L71.4100 117.0700
" />
<circle cx="76.1600" cy="121.9200" r="3.5000" /> 
<path d="M71.4100 47.1400
L71.4100 35.7900
" />
<path d="M80.9100 47.1400
L71.4100 47.1400
" />
<path d="M80.9100 47.1400
L80.9100 35.7900
" />
<path d="M80.9100 35.7900
L71.4100 35.7900
" />
<circle cx="76.1600" cy="40.6400" r="3.5000" /> 
<g >
</g>
<g >
</g>
<g >
</g>
<g >
</g>
<g >
</g>
<g >
</g>
<g >
</g>
<g >
</g>
<g >
</g>
<g >
</g>
<g >
</g>
<g >
</g>
<g >
</g>
<g >
</g>
<g >
</g>
<g >
</g>
<g >
</g>
<g >
</g>
<g >
</g>
<g >
</g>
<g >
</g>
<g >
</g>
<g >
</g>
<g >
</g>
<g >
</g>
<g >
</g>
<g >
</g>
<g >
</g>
<g >
</g>
</g> 
</svg>
