<?xml version="1.0" standalone="no"?>
 <!DOCTYPE svg PUBLIC "-//W3C//DTD SVG 1.1//EN" 
 "http://www.w3.org/Graphics/SVG/1.1/DTD/svg11.dtd"> 
<svg
  xmlns:svg="http://www.w3.org/2000/svg"
  xmlns="http://www.w3.org/2000/svg"
  xmlns:xlink="http://www.w3.org/1999/xlink"
  version="1.1"
  width="297.0022mm" height="210.0072mm" viewBox="0.0000 0.0000 297.0022 210.0072">
<title>SVG Image created as mount-F_SilkS.svg date 2023/11/07 17:56:17 </title>
  <desc>Image generated by PCBNEW </desc>
<g style="fill:#000000; fill-opacity:1.0000;stroke:#000000; stroke-opacity:1.0000;
stroke-linecap:round; stroke-linejoin:round;"
 transform="translate(0 0) scale(1 1)">
</g>
<g style="fill:#000000; fill-opacity:0.0; 
stroke:#000000; stroke-width:0.0000; stroke-opacity:1; 
stroke-linecap:round; stroke-linejoin:round;">
</g>
<g style="fill:#000000; fill-opacity:0.0; 
stroke:#000000; stroke-width:0.1500; stroke-opacity:1; 
stroke-linecap:round; stroke-linejoin:round;">
<text x="60.9500" y="73.7400"
textLength="2.2024" font-size="1.3333" lengthAdjust="spacingAndGlyphs"
text-anchor="middle" opacity="0">D3</text>
<g class="stroked-text"><desc>D3</desc>
<path d="M60.2119 73.6948
L60.2119 72.6948
" />
<path d="M60.2119 72.6948
L60.4500 72.6948
" />
<path d="M60.4500 72.6948
L60.5929 72.7424
" />
<path d="M60.5929 72.7424
L60.6881 72.8377
" />
<path d="M60.6881 72.8377
L60.7357 72.9329
" />
<path d="M60.7357 72.9329
L60.7833 73.1234
" />
<path d="M60.7833 73.1234
L60.7833 73.2662
" />
<path d="M60.7833 73.2662
L60.7357 73.4567
" />
<path d="M60.7357 73.4567
L60.6881 73.5520
" />
<path d="M60.6881 73.5520
L60.5929 73.6472
" />
<path d="M60.5929 73.6472
L60.4500 73.6948
" />
<path d="M60.4500 73.6948
L60.2119 73.6948
" />
<path d="M61.1167 72.6948
L61.7357 72.6948
" />
<path d="M61.7357 72.6948
L61.4024 73.0758
" />
<path d="M61.4024 73.0758
L61.5452 73.0758
" />
<path d="M61.5452 73.0758
L61.6405 73.1234
" />
<path d="M61.6405 73.1234
L61.6881 73.1710
" />
<path d="M61.6881 73.1710
L61.7357 73.2662
" />
<path d="M61.7357 73.2662
L61.7357 73.5043
" />
<path d="M61.7357 73.5043
L61.6881 73.5996
" />
<path d="M61.6881 73.5996
L61.6405 73.6472
" />
<path d="M61.6405 73.6472
L61.5452 73.6948
" />
<path d="M61.5452 73.6948
L61.2595 73.6948
" />
<path d="M61.2595 73.6948
L61.1643 73.6472
" />
<path d="M61.1643 73.6472
L61.1167 73.5996
" />
</g><text x="80.7620" y="73.7400"
textLength="2.2024" font-size="1.3333" lengthAdjust="spacingAndGlyphs"
text-anchor="middle" opacity="0">D4</text>
<g class="stroked-text"><desc>D4</desc>
<path d="M80.0239 73.6948
L80.0239 72.6948
" />
<path d="M80.0239 72.6948
L80.2620 72.6948
" />
<path d="M80.2620 72.6948
L80.4049 72.7424
" />
<path d="M80.4049 72.7424
L80.5001 72.8377
" />
<path d="M80.5001 72.8377
L80.5477 72.9329
" />
<path d="M80.5477 72.9329
L80.5953 73.1234
" />
<path d="M80.5953 73.1234
L80.5953 73.2662
" />
<path d="M80.5953 73.2662
L80.5477 73.4567
" />
<path d="M80.5477 73.4567
L80.5001 73.5520
" />
<path d="M80.5001 73.5520
L80.4049 73.6472
" />
<path d="M80.4049 73.6472
L80.2620 73.6948
" />
<path d="M80.2620 73.6948
L80.0239 73.6948
" />
<path d="M81.4525 73.0282
L81.4525 73.6948
" />
<path d="M81.2144 72.6472
L80.9763 73.3615
" />
<path d="M80.9763 73.3615
L81.5953 73.3615
" />
</g><text x="60.9500" y="114.3800"
textLength="2.2024" font-size="1.3333" lengthAdjust="spacingAndGlyphs"
text-anchor="middle" opacity="0">D7</text>
<g class="stroked-text"><desc>D7</desc>
<path d="M60.2119 114.3348
L60.2119 113.3348
" />
<path d="M60.2119 113.3348
L60.4500 113.3348
" />
<path d="M60.4500 113.3348
L60.5929 113.3824
" />
<path d="M60.5929 113.3824
L60.6881 113.4777
" />
<path d="M60.6881 113.4777
L60.7357 113.5729
" />
<path d="M60.7357 113.5729
L60.7833 113.7634
" />
<path d="M60.7833 113.7634
L60.7833 113.9062
" />
<path d="M60.7833 113.9062
L60.7357 114.0967
" />
<path d="M60.7357 114.0967
L60.6881 114.1920
" />
<path d="M60.6881 114.1920
L60.5929 114.2872
" />
<path d="M60.5929 114.2872
L60.4500 114.3348
" />
<path d="M60.4500 114.3348
L60.2119 114.3348
" />
<path d="M61.1167 113.3348
L61.7833 113.3348
" />
<path d="M61.7833 113.3348
L61.3548 114.3348
" />
</g><text x="81.2800" y="114.3800"
textLength="2.2024" font-size="1.3333" lengthAdjust="spacingAndGlyphs"
text-anchor="middle" opacity="0">D8</text>
<g class="stroked-text"><desc>D8</desc>
<path d="M80.5419 114.3348
L80.5419 113.3348
" />
<path d="M80.5419 113.3348
L80.7800 113.3348
" />
<path d="M80.7800 113.3348
L80.9229 113.3824
" />
<path d="M80.9229 113.3824
L81.0181 113.4777
" />
<path d="M81.0181 113.4777
L81.0657 113.5729
" />
<path d="M81.0657 113.5729
L81.1133 113.7634
" />
<path d="M81.1133 113.7634
L81.1133 113.9062
" />
<path d="M81.1133 113.9062
L81.0657 114.0967
" />
<path d="M81.0657 114.0967
L81.0181 114.1920
" />
<path d="M81.0181 114.1920
L80.9229 114.2872
" />
<path d="M80.9229 114.2872
L80.7800 114.3348
" />
<path d="M80.7800 114.3348
L80.5419 114.3348
" />
<path d="M81.6848 113.7634
L81.5895 113.7158
" />
<path d="M81.5895 113.7158
L81.5419 113.6682
" />
<path d="M81.5419 113.6682
L81.4943 113.5729
" />
<path d="M81.4943 113.5729
L81.4943 113.5253
" />
<path d="M81.4943 113.5253
L81.5419 113.4301
" />
<path d="M81.5419 113.4301
L81.5895 113.3824
" />
<path d="M81.5895 113.3824
L81.6848 113.3348
" />
<path d="M81.6848 113.3348
L81.8752 113.3348
" />
<path d="M81.8752 113.3348
L81.9705 113.3824
" />
<path d="M81.9705 113.3824
L82.0181 113.4301
" />
<path d="M82.0181 113.4301
L82.0657 113.5253
" />
<path d="M82.0657 113.5253
L82.0657 113.5729
" />
<path d="M82.0657 113.5729
L82.0181 113.6682
" />
<path d="M82.0181 113.6682
L81.9705 113.7158
" />
<path d="M81.9705 113.7158
L81.8752 113.7634
" />
<path d="M81.8752 113.7634
L81.6848 113.7634
" />
<path d="M81.6848 113.7634
L81.5895 113.8110
" />
<path d="M81.5895 113.8110
L81.5419 113.8586
" />
<path d="M81.5419 113.8586
L81.4943 113.9539
" />
<path d="M81.4943 113.9539
L81.4943 114.1443
" />
<path d="M81.4943 114.1443
L81.5419 114.2396
" />
<path d="M81.5419 114.2396
L81.5895 114.2872
" />
<path d="M81.5895 114.2872
L81.6848 114.3348
" />
<path d="M81.6848 114.3348
L81.8752 114.3348
" />
<path d="M81.8752 114.3348
L81.9705 114.2872
" />
<path d="M81.9705 114.2872
L82.0181 114.2396
" />
<path d="M82.0181 114.2396
L82.0657 114.1443
" />
<path d="M82.0657 114.1443
L82.0657 113.9539
" />
<path d="M82.0657 113.9539
L82.0181 113.8586
" />
<path d="M82.0181 113.8586
L81.9705 113.8110
" />
<path d="M81.9705 113.8110
L81.8752 113.7634
" />
</g><g transform="rotate(-90.000000 78.2420 156.2100)">
<text x="78.2420" y="156.7100"
textLength="3.1548" font-size="1.3333" lengthAdjust="spacingAndGlyphs"
text-anchor="middle" opacity="0">D11</text>
</g>
<g class="stroked-text"><desc>D11</desc>
<path d="M78.6968 157.4243
L77.6968 157.4243
" />
<path d="M77.6968 157.4243
L77.6968 157.1862
" />
<path d="M77.6968 157.1862
L77.7444 157.0433
" />
<path d="M77.7444 157.0433
L77.8397 156.9481
" />
<path d="M77.8397 156.9481
L77.9349 156.9005
" />
<path d="M77.9349 156.9005
L78.1254 156.8529
" />
<path d="M78.1254 156.8529
L78.2682 156.8529
" />
<path d="M78.2682 156.8529
L78.4587 156.9005
" />
<path d="M78.4587 156.9005
L78.5540 156.9481
" />
<path d="M78.5540 156.9481
L78.6492 157.0433
" />
<path d="M78.6492 157.0433
L78.6968 157.1862
" />
<path d="M78.6968 157.1862
L78.6968 157.4243
" />
<path d="M78.6968 155.9005
L78.6968 156.4719
" />
<path d="M78.6968 156.1862
L77.6968 156.1862
" />
<path d="M77.6968 156.1862
L77.8397 156.2814
" />
<path d="M77.8397 156.2814
L77.9349 156.3767
" />
<path d="M77.9349 156.3767
L77.9825 156.4719
" />
<path d="M78.6968 154.9481
L78.6968 155.5195
" />
<path d="M78.6968 155.2338
L77.6968 155.2338
" />
<path d="M77.6968 155.2338
L77.8397 155.3290
" />
<path d="M77.8397 155.3290
L77.9349 155.4243
" />
<path d="M77.9349 155.4243
L77.9825 155.5195
" />
</g><g transform="rotate(-90.000000 64.2720 156.2100)">
<text x="64.2720" y="156.7100"
textLength="3.1548" font-size="1.3333" lengthAdjust="spacingAndGlyphs"
text-anchor="middle" opacity="0">D12</text>
</g>
<g class="stroked-text"><desc>D12</desc>
<path d="M64.7268 157.4243
L63.7268 157.4243
" />
<path d="M63.7268 157.4243
L63.7268 157.1862
" />
<path d="M63.7268 157.1862
L63.7744 157.0433
" />
<path d="M63.7744 157.0433
L63.8697 156.9481
" />
<path d="M63.8697 156.9481
L63.9649 156.9005
" />
<path d="M63.9649 156.9005
L64.1554 156.8529
" />
<path d="M64.1554 156.8529
L64.2982 156.8529
" />
<path d="M64.2982 156.8529
L64.4887 156.9005
" />
<path d="M64.4887 156.9005
L64.5840 156.9481
" />
<path d="M64.5840 156.9481
L64.6792 157.0433
" />
<path d="M64.6792 157.0433
L64.7268 157.1862
" />
<path d="M64.7268 157.1862
L64.7268 157.4243
" />
<path d="M64.7268 155.9005
L64.7268 156.4719
" />
<path d="M64.7268 156.1862
L63.7268 156.1862
" />
<path d="M63.7268 156.1862
L63.8697 156.2814
" />
<path d="M63.8697 156.2814
L63.9649 156.3767
" />
<path d="M63.9649 156.3767
L64.0125 156.4719
" />
<path d="M63.8221 155.5195
L63.7744 155.4719
" />
<path d="M63.7744 155.4719
L63.7268 155.3767
" />
<path d="M63.7268 155.3767
L63.7268 155.1386
" />
<path d="M63.7268 155.1386
L63.7744 155.0433
" />
<path d="M63.7744 155.0433
L63.8221 154.9957
" />
<path d="M63.8221 154.9957
L63.9173 154.9481
" />
<path d="M63.9173 154.9481
L64.0125 154.9481
" />
<path d="M64.0125 154.9481
L64.1554 154.9957
" />
<path d="M64.1554 154.9957
L64.7268 155.5671
" />
<path d="M64.7268 155.5671
L64.7268 154.9481
" />
</g><text x="56.8300" y="60.9100"
textLength="1.9643" font-size="1.3333" lengthAdjust="spacingAndGlyphs"
text-anchor="middle" opacity="0">J1</text>
<g class="stroked-text"><desc>J1</desc>
<path d="M56.4967 59.8648
L56.4967 60.5791
" />
<path d="M56.4967 60.5791
L56.4490 60.7220
" />
<path d="M56.4490 60.7220
L56.3538 60.8172
" />
<path d="M56.3538 60.8172
L56.2110 60.8648
" />
<path d="M56.2110 60.8648
L56.1157 60.8648
" />
<path d="M57.4967 60.8648
L56.9252 60.8648
" />
<path d="M57.2110 60.8648
L57.2110 59.8648
" />
<path d="M57.2110 59.8648
L57.1157 60.0077
" />
<path d="M57.1157 60.0077
L57.0205 60.1029
" />
<path d="M57.0205 60.1029
L56.9252 60.1505
" />
</g><text x="56.8300" y="101.5500"
textLength="1.9643" font-size="1.3333" lengthAdjust="spacingAndGlyphs"
text-anchor="middle" opacity="0">J2</text>
<g class="stroked-text"><desc>J2</desc>
<path d="M56.4967 100.5048
L56.4967 101.2191
" />
<path d="M56.4967 101.2191
L56.4490 101.3620
" />
<path d="M56.4490 101.3620
L56.3538 101.4572
" />
<path d="M56.3538 101.4572
L56.2110 101.5048
" />
<path d="M56.2110 101.5048
L56.1157 101.5048
" />
<path d="M56.9252 100.6001
L56.9729 100.5524
" />
<path d="M56.9729 100.5524
L57.0681 100.5048
" />
<path d="M57.0681 100.5048
L57.3062 100.5048
" />
<path d="M57.3062 100.5048
L57.4014 100.5524
" />
<path d="M57.4014 100.5524
L57.4490 100.6001
" />
<path d="M57.4490 100.6001
L57.4967 100.6953
" />
<path d="M57.4967 100.6953
L57.4967 100.7905
" />
<path d="M57.4967 100.7905
L57.4490 100.9334
" />
<path d="M57.4490 100.9334
L56.8776 101.5048
" />
<path d="M56.8776 101.5048
L57.4967 101.5048
" />
</g><text x="56.8300" y="142.1900"
textLength="1.9643" font-size="1.3333" lengthAdjust="spacingAndGlyphs"
text-anchor="middle" opacity="0">J3</text>
<g class="stroked-text"><desc>J3</desc>
<path d="M56.4967 141.1448
L56.4967 141.8591
" />
<path d="M56.4967 141.8591
L56.4490 142.0020
" />
<path d="M56.4490 142.0020
L56.3538 142.0972
" />
<path d="M56.3538 142.0972
L56.2110 142.1448
" />
<path d="M56.2110 142.1448
L56.1157 142.1448
" />
<path d="M56.8776 141.1448
L57.4967 141.1448
" />
<path d="M57.4967 141.1448
L57.1633 141.5258
" />
<path d="M57.1633 141.5258
L57.3062 141.5258
" />
<path d="M57.3062 141.5258
L57.4014 141.5734
" />
<path d="M57.4014 141.5734
L57.4490 141.6210
" />
<path d="M57.4490 141.6210
L57.4967 141.7162
" />
<path d="M57.4967 141.7162
L57.4967 141.9543
" />
<path d="M57.4967 141.9543
L57.4490 142.0496
" />
<path d="M57.4490 142.0496
L57.4014 142.0972
" />
<path d="M57.4014 142.0972
L57.3062 142.1448
" />
<path d="M57.3062 142.1448
L57.0205 142.1448
" />
<path d="M57.0205 142.1448
L56.9252 142.0972
" />
<path d="M56.9252 142.0972
L56.8776 142.0496
" />
</g><text x="77.1500" y="60.9100"
textLength="1.9643" font-size="1.3333" lengthAdjust="spacingAndGlyphs"
text-anchor="middle" opacity="0">J5</text>
<g class="stroked-text"><desc>J5</desc>
<path d="M76.8167 59.8648
L76.8167 60.5791
" />
<path d="M76.8167 60.5791
L76.7690 60.7220
" />
<path d="M76.7690 60.7220
L76.6738 60.8172
" />
<path d="M76.6738 60.8172
L76.5310 60.8648
" />
<path d="M76.5310 60.8648
L76.4357 60.8648
" />
<path d="M77.7690 59.8648
L77.2929 59.8648
" />
<path d="M77.2929 59.8648
L77.2452 60.3410
" />
<path d="M77.2452 60.3410
L77.2929 60.2934
" />
<path d="M77.2929 60.2934
L77.3881 60.2458
" />
<path d="M77.3881 60.2458
L77.6262 60.2458
" />
<path d="M77.6262 60.2458
L77.7214 60.2934
" />
<path d="M77.7214 60.2934
L77.7690 60.3410
" />
<path d="M77.7690 60.3410
L77.8167 60.4362
" />
<path d="M77.8167 60.4362
L77.8167 60.6743
" />
<path d="M77.8167 60.6743
L77.7690 60.7696
" />
<path d="M77.7690 60.7696
L77.7214 60.8172
" />
<path d="M77.7214 60.8172
L77.6262 60.8648
" />
<path d="M77.6262 60.8648
L77.3881 60.8648
" />
<path d="M77.3881 60.8648
L77.2929 60.8172
" />
<path d="M77.2929 60.8172
L77.2452 60.7696
" />
</g><text x="77.1500" y="101.7100"
textLength="1.9643" font-size="1.3333" lengthAdjust="spacingAndGlyphs"
text-anchor="middle" opacity="0">J6</text>
<g class="stroked-text"><desc>J6</desc>
<path d="M76.8167 100.6648
L76.8167 101.3791
" />
<path d="M76.8167 101.3791
L76.7690 101.5220
" />
<path d="M76.7690 101.5220
L76.6738 101.6172
" />
<path d="M76.6738 101.6172
L76.5310 101.6648
" />
<path d="M76.5310 101.6648
L76.4357 101.6648
" />
<path d="M77.7214 100.6648
L77.5310 100.6648
" />
<path d="M77.5310 100.6648
L77.4357 100.7124
" />
<path d="M77.4357 100.7124
L77.3881 100.7601
" />
<path d="M77.3881 100.7601
L77.2929 100.9029
" />
<path d="M77.2929 100.9029
L77.2452 101.0934
" />
<path d="M77.2452 101.0934
L77.2452 101.4743
" />
<path d="M77.2452 101.4743
L77.2929 101.5696
" />
<path d="M77.2929 101.5696
L77.3405 101.6172
" />
<path d="M77.3405 101.6172
L77.4357 101.6648
" />
<path d="M77.4357 101.6648
L77.6262 101.6648
" />
<path d="M77.6262 101.6648
L77.7214 101.6172
" />
<path d="M77.7214 101.6172
L77.7690 101.5696
" />
<path d="M77.7690 101.5696
L77.8167 101.4743
" />
<path d="M77.8167 101.4743
L77.8167 101.2362
" />
<path d="M77.8167 101.2362
L77.7690 101.1410
" />
<path d="M77.7690 101.1410
L77.7214 101.0934
" />
<path d="M77.7214 101.0934
L77.6262 101.0458
" />
<path d="M77.6262 101.0458
L77.4357 101.0458
" />
<path d="M77.4357 101.0458
L77.3405 101.0934
" />
<path d="M77.3405 101.0934
L77.2929 101.1410
" />
<path d="M77.2929 101.1410
L77.2452 101.2362
" />
</g><text x="77.1500" y="142.1900"
textLength="1.9643" font-size="1.3333" lengthAdjust="spacingAndGlyphs"
text-anchor="middle" opacity="0">J7</text>
<g class="stroked-text"><desc>J7</desc>
<path d="M76.8167 141.1448
L76.8167 141.8591
" />
<path d="M76.8167 141.8591
L76.7690 142.0020
" />
<path d="M76.7690 142.0020
L76.6738 142.0972
" />
<path d="M76.6738 142.0972
L76.5310 142.1448
" />
<path d="M76.5310 142.1448
L76.4357 142.1448
" />
<path d="M77.1976 141.1448
L77.8643 141.1448
" />
<path d="M77.8643 141.1448
L77.4357 142.1448
" />
</g><g transform="rotate(-90.000000 55.7680 148.8440)">
<text x="55.7680" y="149.3440"
textLength="2.2024" font-size="1.3333" lengthAdjust="spacingAndGlyphs"
text-anchor="middle" opacity="0">R1</text>
</g>
<g class="stroked-text"><desc>R1</desc>
<path d="M56.2228 149.0107
L55.7466 149.3440
" />
<path d="M56.2228 149.5821
L55.2228 149.5821
" />
<path d="M55.2228 149.5821
L55.2228 149.2011
" />
<path d="M55.2228 149.2011
L55.2704 149.1059
" />
<path d="M55.2704 149.1059
L55.3181 149.0583
" />
<path d="M55.3181 149.0583
L55.4133 149.0107
" />
<path d="M55.4133 149.0107
L55.5562 149.0107
" />
<path d="M55.5562 149.0107
L55.6514 149.0583
" />
<path d="M55.6514 149.0583
L55.6990 149.1059
" />
<path d="M55.6990 149.1059
L55.7466 149.2011
" />
<path d="M55.7466 149.2011
L55.7466 149.5821
" />
<path d="M56.2228 148.0583
L56.2228 148.6297
" />
<path d="M56.2228 148.3440
L55.2228 148.3440
" />
<path d="M55.2228 148.3440
L55.3657 148.4392
" />
<path d="M55.3657 148.4392
L55.4609 148.5345
" />
<path d="M55.4609 148.5345
L55.5085 148.6297
" />
</g><g transform="rotate(-90.000000 75.0720 149.3520)">
<text x="75.0720" y="149.8520"
textLength="2.2024" font-size="1.3333" lengthAdjust="spacingAndGlyphs"
text-anchor="middle" opacity="0">R2</text>
</g>
<g class="stroked-text"><desc>R2</desc>
<path d="M75.5268 149.5187
L75.0506 149.8520
" />
<path d="M75.5268 150.0901
L74.5268 150.0901
" />
<path d="M74.5268 150.0901
L74.5268 149.7091
" />
<path d="M74.5268 149.7091
L74.5744 149.6139
" />
<path d="M74.5744 149.6139
L74.6221 149.5663
" />
<path d="M74.6221 149.5663
L74.7173 149.5187
" />
<path d="M74.7173 149.5187
L74.8602 149.5187
" />
<path d="M74.8602 149.5187
L74.9554 149.5663
" />
<path d="M74.9554 149.5663
L75.0030 149.6139
" />
<path d="M75.0030 149.6139
L75.0506 149.7091
" />
<path d="M75.0506 149.7091
L75.0506 150.0901
" />
<path d="M74.6221 149.1377
L74.5744 149.0901
" />
<path d="M74.5744 149.0901
L74.5268 148.9949
" />
<path d="M74.5268 148.9949
L74.5268 148.7568
" />
<path d="M74.5268 148.7568
L74.5744 148.6615
" />
<path d="M74.5744 148.6615
L74.6221 148.6139
" />
<path d="M74.6221 148.6139
L74.7173 148.5663
" />
<path d="M74.7173 148.5663
L74.8125 148.5663
" />
<path d="M74.8125 148.5663
L74.9554 148.6139
" />
<path d="M74.9554 148.6139
L75.5268 149.1853
" />
<path d="M75.5268 149.1853
L75.5268 148.5663
" />
</g><g transform="rotate(-90.000000 53.7800 87.1500)">
<text x="53.7800" y="87.6500"
textLength="3.0595" font-size="1.3333" lengthAdjust="spacingAndGlyphs"
text-anchor="middle" opacity="0">RV1</text>
</g>
<g class="stroked-text"><desc>RV1</desc>
<path d="M54.2348 87.7452
L53.7586 88.0786
" />
<path d="M54.2348 88.3167
L53.2348 88.3167
" />
<path d="M53.2348 88.3167
L53.2348 87.9357
" />
<path d="M53.2348 87.9357
L53.2824 87.8405
" />
<path d="M53.2824 87.8405
L53.3301 87.7929
" />
<path d="M53.3301 87.7929
L53.4253 87.7452
" />
<path d="M53.4253 87.7452
L53.5682 87.7452
" />
<path d="M53.5682 87.7452
L53.6634 87.7929
" />
<path d="M53.6634 87.7929
L53.7110 87.8405
" />
<path d="M53.7110 87.8405
L53.7586 87.9357
" />
<path d="M53.7586 87.9357
L53.7586 88.3167
" />
<path d="M53.2348 87.4595
L54.2348 87.1262
" />
<path d="M54.2348 87.1262
L53.2348 86.7929
" />
<path d="M54.2348 85.9357
L54.2348 86.5071
" />
<path d="M54.2348 86.2214
L53.2348 86.2214
" />
<path d="M53.2348 86.2214
L53.3777 86.3167
" />
<path d="M53.3777 86.3167
L53.4729 86.4119
" />
<path d="M53.4729 86.4119
L53.5205 86.5071
" />
</g><g transform="rotate(-90.000000 53.7800 127.7900)">
<text x="53.7800" y="128.2900"
textLength="3.0595" font-size="1.3333" lengthAdjust="spacingAndGlyphs"
text-anchor="middle" opacity="0">RV2</text>
</g>
<g class="stroked-text"><desc>RV2</desc>
<path d="M54.2348 128.3852
L53.7586 128.7186
" />
<path d="M54.2348 128.9567
L53.2348 128.9567
" />
<path d="M53.2348 128.9567
L53.2348 128.5757
" />
<path d="M53.2348 128.5757
L53.2824 128.4805
" />
<path d="M53.2824 128.4805
L53.3301 128.4329
" />
<path d="M53.3301 128.4329
L53.4253 128.3852
" />
<path d="M53.4253 128.3852
L53.5682 128.3852
" />
<path d="M53.5682 128.3852
L53.6634 128.4329
" />
<path d="M53.6634 128.4329
L53.7110 128.4805
" />
<path d="M53.7110 128.4805
L53.7586 128.5757
" />
<path d="M53.7586 128.5757
L53.7586 128.9567
" />
<path d="M53.2348 128.0995
L54.2348 127.7662
" />
<path d="M54.2348 127.7662
L53.2348 127.4329
" />
<path d="M53.3301 127.1471
L53.2824 127.0995
" />
<path d="M53.2824 127.0995
L53.2348 127.0043
" />
<path d="M53.2348 127.0043
L53.2348 126.7662
" />
<path d="M53.2348 126.7662
L53.2824 126.6710
" />
<path d="M53.2824 126.6710
L53.3301 126.6233
" />
<path d="M53.3301 126.6233
L53.4253 126.5757
" />
<path d="M53.4253 126.5757
L53.5205 126.5757
" />
<path d="M53.5205 126.5757
L53.6634 126.6233
" />
<path d="M53.6634 126.6233
L54.2348 127.1948
" />
<path d="M54.2348 127.1948
L54.2348 126.5757
" />
</g><g transform="rotate(-90.000000 74.1000 87.1500)">
<text x="74.1000" y="87.6500"
textLength="3.0595" font-size="1.3333" lengthAdjust="spacingAndGlyphs"
text-anchor="middle" opacity="0">RV3</text>
</g>
<g class="stroked-text"><desc>RV3</desc>
<path d="M74.5548 87.7452
L74.0786 88.0786
" />
<path d="M74.5548 88.3167
L73.5548 88.3167
" />
<path d="M73.5548 88.3167
L73.5548 87.9357
" />
<path d="M73.5548 87.9357
L73.6024 87.8405
" />
<path d="M73.6024 87.8405
L73.6501 87.7929
" />
<path d="M73.6501 87.7929
L73.7453 87.7452
" />
<path d="M73.7453 87.7452
L73.8882 87.7452
" />
<path d="M73.8882 87.7452
L73.9834 87.7929
" />
<path d="M73.9834 87.7929
L74.0310 87.8405
" />
<path d="M74.0310 87.8405
L74.0786 87.9357
" />
<path d="M74.0786 87.9357
L74.0786 88.3167
" />
<path d="M73.5548 87.4595
L74.5548 87.1262
" />
<path d="M74.5548 87.1262
L73.5548 86.7929
" />
<path d="M73.5548 86.5548
L73.5548 85.9357
" />
<path d="M73.5548 85.9357
L73.9358 86.2690
" />
<path d="M73.9358 86.2690
L73.9358 86.1262
" />
<path d="M73.9358 86.1262
L73.9834 86.0310
" />
<path d="M73.9834 86.0310
L74.0310 85.9833
" />
<path d="M74.0310 85.9833
L74.1262 85.9357
" />
<path d="M74.1262 85.9357
L74.3643 85.9357
" />
<path d="M74.3643 85.9357
L74.4596 85.9833
" />
<path d="M74.4596 85.9833
L74.5072 86.0310
" />
<path d="M74.5072 86.0310
L74.5548 86.1262
" />
<path d="M74.5548 86.1262
L74.5548 86.4119
" />
<path d="M74.5548 86.4119
L74.5072 86.5071
" />
<path d="M74.5072 86.5071
L74.4596 86.5548
" />
</g><g transform="rotate(-90.000000 74.1000 127.7900)">
<text x="74.1000" y="128.2900"
textLength="3.0595" font-size="1.3333" lengthAdjust="spacingAndGlyphs"
text-anchor="middle" opacity="0">RV4</text>
</g>
<g class="stroked-text"><desc>RV4</desc>
<path d="M74.5548 128.3852
L74.0786 128.7186
" />
<path d="M74.5548 128.9567
L73.5548 128.9567
" />
<path d="M73.5548 128.9567
L73.5548 128.5757
" />
<path d="M73.5548 128.5757
L73.6024 128.4805
" />
<path d="M73.6024 128.4805
L73.6501 128.4329
" />
<path d="M73.6501 128.4329
L73.7453 128.3852
" />
<path d="M73.7453 128.3852
L73.8882 128.3852
" />
<path d="M73.8882 128.3852
L73.9834 128.4329
" />
<path d="M73.9834 128.4329
L74.0310 128.4805
" />
<path d="M74.0310 128.4805
L74.0786 128.5757
" />
<path d="M74.0786 128.5757
L74.0786 128.9567
" />
<path d="M73.5548 128.0995
L74.5548 127.7662
" />
<path d="M74.5548 127.7662
L73.5548 127.4329
" />
<path d="M73.8882 126.6710
L74.5548 126.6710
" />
<path d="M73.5072 126.9090
L74.2215 127.1471
" />
<path d="M74.2215 127.1471
L74.2215 126.5281
" />
</g><g transform="rotate(-90.000000 54.3300 78.3900)">
<text x="54.3300" y="78.7900"
textLength="5.8690" font-size="1.3333" lengthAdjust="spacingAndGlyphs"
text-anchor="start" opacity="0">produkt</text>
</g>
<g class="stroked-text"><desc>produkt</desc>
<path d="M54.1590 78.0532
L54.9590 78.0532
" />
<path d="M54.1971 78.0532
L54.1590 77.9580
" />
<path d="M54.1590 77.9580
L54.1590 77.7675
" />
<path d="M54.1590 77.7675
L54.1971 77.6723
" />
<path d="M54.1971 77.6723
L54.2352 77.6246
" />
<path d="M54.2352 77.6246
L54.3113 77.5770
" />
<path d="M54.3113 77.5770
L54.5399 77.5770
" />
<path d="M54.5399 77.5770
L54.6161 77.6246
" />
<path d="M54.6161 77.6246
L54.6542 77.6723
" />
<path d="M54.6542 77.6723
L54.6923 77.7675
" />
<path d="M54.6923 77.7675
L54.6923 77.9580
" />
<path d="M54.6923 77.9580
L54.6542 78.0532
" />
<path d="M54.6923 77.1485
L54.1590 77.1485
" />
<path d="M54.3113 77.1485
L54.2352 77.1008
" />
<path d="M54.2352 77.1008
L54.1971 77.0532
" />
<path d="M54.1971 77.0532
L54.1590 76.9580
" />
<path d="M54.1590 76.9580
L54.1590 76.8627
" />
<path d="M54.6923 76.3866
L54.6542 76.4818
" />
<path d="M54.6542 76.4818
L54.6161 76.5294
" />
<path d="M54.6161 76.5294
L54.5399 76.5770
" />
<path d="M54.5399 76.5770
L54.3113 76.5770
" />
<path d="M54.3113 76.5770
L54.2352 76.5294
" />
<path d="M54.2352 76.5294
L54.1971 76.4818
" />
<path d="M54.1971 76.4818
L54.1590 76.3866
" />
<path d="M54.1590 76.3866
L54.1590 76.2437
" />
<path d="M54.1590 76.2437
L54.1971 76.1485
" />
<path d="M54.1971 76.1485
L54.2352 76.1008
" />
<path d="M54.2352 76.1008
L54.3113 76.0532
" />
<path d="M54.3113 76.0532
L54.5399 76.0532
" />
<path d="M54.5399 76.0532
L54.6161 76.1008
" />
<path d="M54.6161 76.1008
L54.6542 76.1485
" />
<path d="M54.6542 76.1485
L54.6923 76.2437
" />
<path d="M54.6923 76.2437
L54.6923 76.3866
" />
<path d="M54.6923 75.1961
L53.8923 75.1961
" />
<path d="M54.6542 75.1961
L54.6923 75.2913
" />
<path d="M54.6923 75.2913
L54.6923 75.4818
" />
<path d="M54.6923 75.4818
L54.6542 75.5770
" />
<path d="M54.6542 75.5770
L54.6161 75.6246
" />
<path d="M54.6161 75.6246
L54.5399 75.6723
" />
<path d="M54.5399 75.6723
L54.3113 75.6723
" />
<path d="M54.3113 75.6723
L54.2352 75.6246
" />
<path d="M54.2352 75.6246
L54.1971 75.5770
" />
<path d="M54.1971 75.5770
L54.1590 75.4818
" />
<path d="M54.1590 75.4818
L54.1590 75.2913
" />
<path d="M54.1590 75.2913
L54.1971 75.1961
" />
<path d="M54.1590 74.2913
L54.6923 74.2913
" />
<path d="M54.1590 74.7199
L54.5780 74.7199
" />
<path d="M54.5780 74.7199
L54.6542 74.6723
" />
<path d="M54.6542 74.6723
L54.6923 74.5770
" />
<path d="M54.6923 74.5770
L54.6923 74.4342
" />
<path d="M54.6923 74.4342
L54.6542 74.3389
" />
<path d="M54.6542 74.3389
L54.6161 74.2913
" />
<path d="M54.6923 73.8151
L53.8923 73.8151
" />
<path d="M54.3875 73.7199
L54.6923 73.4342
" />
<path d="M54.1590 73.4342
L54.4637 73.8151
" />
<path d="M54.1590 73.1485
L54.1590 72.7675
" />
<path d="M53.8923 73.0056
L54.5780 73.0056
" />
<path d="M54.5780 73.0056
L54.6542 72.9580
" />
<path d="M54.6542 72.9580
L54.6923 72.8627
" />
<path d="M54.6923 72.8627
L54.6923 72.7675
" />
</g></g>
<g style="fill:#000000; fill-opacity:0.0; 
stroke:#000000; stroke-width:0.3000; stroke-opacity:1; 
stroke-linecap:round; stroke-linejoin:round;">
<g transform="rotate(-90.000000 52.3240 69.8500)">
<text x="52.3240" y="70.6000"
textLength="18.0238" font-size="2.6667" lengthAdjust="spacingAndGlyphs"
text-anchor="middle" opacity="0">elektrophon</text>
</g>
<g class="stroked-text"><desc>elektrophon</desc>
<path d="M52.9309 77.3738
L53.0023 77.5732
" />
<path d="M53.0023 77.5732
L53.0023 77.9542
" />
<path d="M53.0023 77.9542
L52.9309 78.1357
" />
<path d="M52.9309 78.1357
L52.7880 78.2131
" />
<path d="M52.7880 78.2131
L52.2166 78.1417
" />
<path d="M52.2166 78.1417
L52.0738 78.0286
" />
<path d="M52.0738 78.0286
L52.0023 77.8292
" />
<path d="M52.0023 77.8292
L52.0023 77.4482
" />
<path d="M52.0023 77.4482
L52.0738 77.2667
" />
<path d="M52.0738 77.2667
L52.2166 77.1893
" />
<path d="M52.2166 77.1893
L52.3595 77.2071
" />
<path d="M52.3595 77.2071
L52.5023 78.1774
" />
<path d="M53.0023 76.1446
L52.9309 76.3262
" />
<path d="M52.9309 76.3262
L52.7880 76.4036
" />
<path d="M52.7880 76.4036
L51.5023 76.2429
" />
<path d="M52.9309 74.6119
L53.0023 74.8113
" />
<path d="M53.0023 74.8113
L53.0023 75.1923
" />
<path d="M53.0023 75.1923
L52.9309 75.3738
" />
<path d="M52.9309 75.3738
L52.7880 75.4512
" />
<path d="M52.7880 75.4512
L52.2166 75.3798
" />
<path d="M52.2166 75.3798
L52.0738 75.2667
" />
<path d="M52.0738 75.2667
L52.0023 75.0673
" />
<path d="M52.0023 75.0673
L52.0023 74.6863
" />
<path d="M52.0023 74.6863
L52.0738 74.5048
" />
<path d="M52.0738 74.5048
L52.2166 74.4274
" />
<path d="M52.2166 74.4274
L52.3595 74.4452
" />
<path d="M52.3595 74.4452
L52.5023 75.4155
" />
<path d="M53.0023 73.6685
L51.5023 73.4810
" />
<path d="M52.4309 73.4065
L53.0023 72.9065
" />
<path d="M52.0023 72.7815
L52.5738 73.6149
" />
<path d="M52.0023 72.2101
L52.0023 71.4482
" />
<path d="M51.5023 71.8619
L52.7880 72.0226
" />
<path d="M52.7880 72.0226
L52.9309 71.9452
" />
<path d="M52.9309 71.9452
L53.0023 71.7637
" />
<path d="M53.0023 71.7637
L53.0023 71.5732
" />
<path d="M53.0023 70.9065
L52.0023 70.7815
" />
<path d="M52.2880 70.8173
L52.1452 70.7042
" />
<path d="M52.1452 70.7042
L52.0738 70.6000
" />
<path d="M52.0738 70.6000
L52.0023 70.4006
" />
<path d="M52.0023 70.4006
L52.0023 70.2101
" />
<path d="M53.0023 69.3827
L52.9309 69.5643
" />
<path d="M52.9309 69.5643
L52.8595 69.6506
" />
<path d="M52.8595 69.6506
L52.7166 69.7280
" />
<path d="M52.7166 69.7280
L52.2880 69.6744
" />
<path d="M52.2880 69.6744
L52.1452 69.5613
" />
<path d="M52.1452 69.5613
L52.0738 69.4571
" />
<path d="M52.0738 69.4571
L52.0023 69.2577
" />
<path d="M52.0023 69.2577
L52.0023 68.9720
" />
<path d="M52.0023 68.9720
L52.0738 68.7905
" />
<path d="M52.0738 68.7905
L52.1452 68.7042
" />
<path d="M52.1452 68.7042
L52.2880 68.6268
" />
<path d="M52.2880 68.6268
L52.7166 68.6804
" />
<path d="M52.7166 68.6804
L52.8595 68.7935
" />
<path d="M52.8595 68.7935
L52.9309 68.8976
" />
<path d="M52.9309 68.8976
L53.0023 69.0970
" />
<path d="M53.0023 69.0970
L53.0023 69.3827
" />
<path d="M52.0023 67.7339
L53.5023 67.9214
" />
<path d="M52.0738 67.7429
L52.0023 67.5435
" />
<path d="M52.0023 67.5435
L52.0023 67.1625
" />
<path d="M52.0023 67.1625
L52.0738 66.9810
" />
<path d="M52.0738 66.9810
L52.1452 66.8946
" />
<path d="M52.1452 66.8946
L52.2880 66.8173
" />
<path d="M52.2880 66.8173
L52.7166 66.8708
" />
<path d="M52.7166 66.8708
L52.8595 66.9839
" />
<path d="M52.8595 66.9839
L52.9309 67.0881
" />
<path d="M52.9309 67.0881
L53.0023 67.2875
" />
<path d="M53.0023 67.2875
L53.0023 67.6685
" />
<path d="M53.0023 67.6685
L52.9309 67.8500
" />
<path d="M53.0023 66.0494
L51.5023 65.8619
" />
<path d="M53.0023 65.1923
L52.2166 65.0940
" />
<path d="M52.2166 65.0940
L52.0738 65.1714
" />
<path d="M52.0738 65.1714
L52.0023 65.3530
" />
<path d="M52.0023 65.3530
L52.0023 65.6387
" />
<path d="M52.0023 65.6387
L52.0738 65.8381
" />
<path d="M52.0738 65.8381
L52.1452 65.9423
" />
<path d="M53.0023 63.9542
L52.9309 64.1357
" />
<path d="M52.9309 64.1357
L52.8595 64.2220
" />
<path d="M52.8595 64.2220
L52.7166 64.2994
" />
<path d="M52.7166 64.2994
L52.2880 64.2458
" />
<path d="M52.2880 64.2458
L52.1452 64.1327
" />
<path d="M52.1452 64.1327
L52.0738 64.0286
" />
<path d="M52.0738 64.0286
L52.0023 63.8292
" />
<path d="M52.0023 63.8292
L52.0023 63.5435
" />
<path d="M52.0023 63.5435
L52.0738 63.3619
" />
<path d="M52.0738 63.3619
L52.1452 63.2756
" />
<path d="M52.1452 63.2756
L52.2880 63.1982
" />
<path d="M52.2880 63.1982
L52.7166 63.2518
" />
<path d="M52.7166 63.2518
L52.8595 63.3649
" />
<path d="M52.8595 63.3649
L52.9309 63.4690
" />
<path d="M52.9309 63.4690
L53.0023 63.6685
" />
<path d="M53.0023 63.6685
L53.0023 63.9542
" />
<path d="M52.0023 62.3054
L53.0023 62.4304
" />
<path d="M52.1452 62.3232
L52.0738 62.2190
" />
<path d="M52.0738 62.2190
L52.0023 62.0196
" />
<path d="M52.0023 62.0196
L52.0023 61.7339
" />
<path d="M52.0023 61.7339
L52.0738 61.5524
" />
<path d="M52.0738 61.5524
L52.2166 61.4750
" />
<path d="M52.2166 61.4750
L53.0023 61.5732
" />
</g></g>
<g style="fill:#000000; fill-opacity:0.0; 
stroke:#000000; stroke-width:0.1500; stroke-opacity:1; 
stroke-linecap:round; stroke-linejoin:round;">
<g transform="rotate(-90.000000 54.3600 61.0500)">
<text x="54.3600" y="61.4500"
textLength="3.1548" font-size="1.3333" lengthAdjust="spacingAndGlyphs"
text-anchor="end" opacity="0">R02</text>
</g>
<g class="stroked-text"><desc>R02</desc>
<path d="M54.7223 63.2439
L54.3413 63.5773
" />
<path d="M54.7223 63.8153
L53.9223 63.8153
" />
<path d="M53.9223 63.8153
L53.9223 63.4344
" />
<path d="M53.9223 63.4344
L53.9604 63.3392
" />
<path d="M53.9604 63.3392
L53.9985 63.2915
" />
<path d="M53.9985 63.2915
L54.0747 63.2439
" />
<path d="M54.0747 63.2439
L54.1890 63.2439
" />
<path d="M54.1890 63.2439
L54.2652 63.2915
" />
<path d="M54.2652 63.2915
L54.3032 63.3392
" />
<path d="M54.3032 63.3392
L54.3413 63.4344
" />
<path d="M54.3413 63.4344
L54.3413 63.8153
" />
<path d="M53.9223 62.6249
L53.9223 62.5296
" />
<path d="M53.9223 62.5296
L53.9604 62.4344
" />
<path d="M53.9604 62.4344
L53.9985 62.3868
" />
<path d="M53.9985 62.3868
L54.0747 62.3392
" />
<path d="M54.0747 62.3392
L54.2271 62.2915
" />
<path d="M54.2271 62.2915
L54.4175 62.2915
" />
<path d="M54.4175 62.2915
L54.5699 62.3392
" />
<path d="M54.5699 62.3392
L54.6461 62.3868
" />
<path d="M54.6461 62.3868
L54.6842 62.4344
" />
<path d="M54.6842 62.4344
L54.7223 62.5296
" />
<path d="M54.7223 62.5296
L54.7223 62.6249
" />
<path d="M54.7223 62.6249
L54.6842 62.7201
" />
<path d="M54.6842 62.7201
L54.6461 62.7677
" />
<path d="M54.6461 62.7677
L54.5699 62.8153
" />
<path d="M54.5699 62.8153
L54.4175 62.8630
" />
<path d="M54.4175 62.8630
L54.2271 62.8630
" />
<path d="M54.2271 62.8630
L54.0747 62.8153
" />
<path d="M54.0747 62.8153
L53.9985 62.7677
" />
<path d="M53.9985 62.7677
L53.9604 62.7201
" />
<path d="M53.9604 62.7201
L53.9223 62.6249
" />
<path d="M53.9985 61.9106
L53.9604 61.8630
" />
<path d="M53.9604 61.8630
L53.9223 61.7677
" />
<path d="M53.9223 61.7677
L53.9223 61.5296
" />
<path d="M53.9223 61.5296
L53.9604 61.4344
" />
<path d="M53.9604 61.4344
L53.9985 61.3868
" />
<path d="M53.9985 61.3868
L54.0747 61.3392
" />
<path d="M54.0747 61.3392
L54.1509 61.3392
" />
<path d="M54.1509 61.3392
L54.2652 61.3868
" />
<path d="M54.2652 61.3868
L54.7223 61.9582
" />
<path d="M54.7223 61.9582
L54.7223 61.3392
" />
</g></g>
<g style="fill:#000000; fill-opacity:0.0; 
stroke:#000000; stroke-width:0.1200; stroke-opacity:1; 
stroke-linecap:round; stroke-linejoin:round;">
<path d="M59.3900 74.9640
L59.3900 75.1200
" />
<path d="M59.3900 77.2800
L59.3900 77.4360
" />
<path d="M62.6223 75.1214 A1.9900 1.9900 0.0 0 0 59.3900 74.9645" />
<path d="M61.9911 75.1202 A1.5000 1.5000 0.0 0 0 59.9090 75.1200" />
<path d="M59.9090 77.2800 A1.5000 1.5000 0.0 0 0 61.9911 77.2798" />
<path d="M59.3900 77.4355 A1.9900 1.9900 0.0 0 0 62.6223 77.2786" />
<path d="M79.2020 74.9640
L79.2020 75.1200
" />
<path d="M79.2020 77.2800
L79.2020 77.4360
" />
<path d="M82.4343 75.1214 A1.9900 1.9900 0.0 0 0 79.2020 74.9645" />
<path d="M81.8031 75.1202 A1.5000 1.5000 0.0 0 0 79.7210 75.1200" />
<path d="M79.7210 77.2800 A1.5000 1.5000 0.0 0 0 81.8031 77.2798" />
<path d="M79.2020 77.4355 A1.9900 1.9900 0.0 0 0 82.4343 77.2786" />
<path d="M59.3900 115.6040
L59.3900 115.7600
" />
<path d="M59.3900 117.9200
L59.3900 118.0760
" />
<path d="M62.6223 115.7614 A1.9900 1.9900 0.0 0 0 59.3900 115.6045" />
<path d="M61.9911 115.7602 A1.5000 1.5000 0.0 0 0 59.9090 115.7600" />
<path d="M59.9090 117.9200 A1.5000 1.5000 0.0 0 0 61.9911 117.9198" />
<path d="M59.3900 118.0755 A1.9900 1.9900 0.0 0 0 62.6223 117.9186" />
<path d="M79.7200 115.6040
L79.7200 115.7600
" />
<path d="M79.7200 117.9200
L79.7200 118.0760
" />
<path d="M82.9523 115.7614 A1.9900 1.9900 0.0 0 0 79.7200 115.6045" />
<path d="M82.3211 115.7602 A1.5000 1.5000 0.0 0 0 80.2390 115.7600" />
<path d="M80.2390 117.9200 A1.5000 1.5000 0.0 0 0 82.3211 117.9198" />
<path d="M79.7200 118.0755 A1.9900 1.9900 0.0 0 0 82.9523 117.9186" />
<path d="M79.7300 155.2280
L79.7300 155.3840
" />
<path d="M79.7300 157.5440
L79.7300 157.7000
" />
<path d="M82.9623 155.3854 A1.9900 1.9900 0.0 0 0 79.7300 155.2285" />
<path d="M82.3311 155.3842 A1.5000 1.5000 0.0 0 0 80.2490 155.3840" />
<path d="M80.2490 157.5440 A1.5000 1.5000 0.0 0 0 82.3311 157.5438" />
<path d="M79.7300 157.6995 A1.9900 1.9900 0.0 0 0 82.9623 157.5426" />
<path d="M59.4100 155.2280
L59.4100 155.3840
" />
<path d="M59.4100 157.5440
L59.4100 157.7000
" />
<path d="M62.6423 155.3854 A1.9900 1.9900 0.0 0 0 59.4100 155.2285" />
<path d="M62.0111 155.3842 A1.5000 1.5000 0.0 0 0 59.9290 155.3840" />
<path d="M59.9290 157.5440 A1.5000 1.5000 0.0 0 0 62.0111 157.5438" />
<path d="M59.4100 157.6995 A1.9900 1.9900 0.0 0 0 62.6423 157.5426" />
<path d="M56.4600 61.5400
L56.4600 72.0400
" />
<path d="M60.4600 72.0400
L56.4600 72.0400
" />
<path d="M60.5600 61.5400
L56.4600 61.5400
" />
<path d="M65.4600 61.5400
L61.3600 61.5400
" />
<path d="M65.4600 61.5400
L65.4600 72.0400
" />
<path d="M65.4600 72.0400
L61.4600 72.0400
" />
<circle cx="60.9600" cy="66.0400" r="1.8000" /> 
<path d="M56.4600 102.1800
L56.4600 112.6800
" />
<path d="M60.4600 112.6800
L56.4600 112.6800
" />
<path d="M60.5600 102.1800
L56.4600 102.1800
" />
<path d="M65.4600 102.1800
L61.3600 102.1800
" />
<path d="M65.4600 102.1800
L65.4600 112.6800
" />
<path d="M65.4600 112.6800
L61.4600 112.6800
" />
<circle cx="60.9600" cy="106.6800" r="1.8000" /> 
<path d="M56.4600 142.8200
L56.4600 153.3200
" />
<path d="M60.4600 153.3200
L56.4600 153.3200
" />
<path d="M60.5600 142.8200
L56.4600 142.8200
" />
<path d="M65.4600 142.8200
L61.3600 142.8200
" />
<path d="M65.4600 142.8200
L65.4600 153.3200
" />
<path d="M65.4600 153.3200
L61.4600 153.3200
" />
<circle cx="60.9600" cy="147.3200" r="1.8000" /> 
<path d="M76.7800 61.5400
L76.7800 72.0400
" />
<path d="M80.7800 72.0400
L76.7800 72.0400
" />
<path d="M80.8800 61.5400
L76.7800 61.5400
" />
<path d="M85.7800 61.5400
L81.6800 61.5400
" />
<path d="M85.7800 61.5400
L85.7800 72.0400
" />
<path d="M85.7800 72.0400
L81.7800 72.0400
" />
<circle cx="81.2800" cy="66.0400" r="1.8000" /> 
<path d="M76.7800 102.3400
L76.7800 112.8400
" />
<path d="M80.7800 112.8400
L76.7800 112.8400
" />
<path d="M80.8800 102.3400
L76.7800 102.3400
" />
<path d="M85.7800 102.3400
L81.6800 102.3400
" />
<path d="M85.7800 102.3400
L85.7800 112.8400
" />
<path d="M85.7800 112.8400
L81.7800 112.8400
" />
<circle cx="81.2800" cy="106.8400" r="1.8000" /> 
<path d="M76.7800 142.8200
L76.7800 153.3200
" />
<path d="M80.7800 153.3200
L76.7800 153.3200
" />
<path d="M80.8800 142.8200
L76.7800 142.8200
" />
<path d="M85.7800 142.8200
L81.6800 142.8200
" />
<path d="M85.7800 142.8200
L85.7800 153.3200
" />
<path d="M85.7800 153.3200
L81.7800 153.3200
" />
<circle cx="81.2800" cy="147.3200" r="1.8000" /> 
<path d="M54.7680 146.9240
L54.7680 150.7640
" />
<path d="M52.9280 146.9240
L52.9280 150.7640
" />
<path d="M74.0720 147.4320
L74.0720 151.2720
" />
<path d="M72.2320 147.4320
L72.2320 151.2720
" />
<path d="M56.0400 92.9800
L56.0400 88.2600
" />
<path d="M57.2300 92.9800
L56.0500 92.9800
" />
<path d="M60.1300 92.9800
L59.6000 92.9800
" />
<path d="M62.5800 92.9800
L61.7500 92.9800
" />
<path d="M65.7900 92.9800
L64.3000 92.9800
" />
<path d="M65.7900 92.9800
L65.7900 88.2600
" />
<path d="M56.0500 84.4500
L56.0500 81.3900
" />
<path d="M65.7900 84.4500
L65.7900 81.3900
" />
<path d="M65.7900 81.3900
L56.0500 81.3900
" />
<path d="M56.0400 133.6200
L56.0400 128.9000
" />
<path d="M57.2300 133.6200
L56.0500 133.6200
" />
<path d="M60.1300 133.6200
L59.6000 133.6200
" />
<path d="M62.5800 133.6200
L61.7500 133.6200
" />
<path d="M65.7900 133.6200
L64.3000 133.6200
" />
<path d="M65.7900 133.6200
L65.7900 128.9000
" />
<path d="M56.0500 125.0900
L56.0500 122.0300
" />
<path d="M65.7900 125.0900
L65.7900 122.0300
" />
<path d="M65.7900 122.0300
L56.0500 122.0300
" />
<path d="M76.3600 92.9800
L76.3600 88.2600
" />
<path d="M77.5500 92.9800
L76.3700 92.9800
" />
<path d="M80.4500 92.9800
L79.9200 92.9800
" />
<path d="M82.9000 92.9800
L82.0700 92.9800
" />
<path d="M86.1100 92.9800
L84.6200 92.9800
" />
<path d="M86.1100 92.9800
L86.1100 88.2600
" />
<path d="M76.3700 84.4500
L76.3700 81.3900
" />
<path d="M86.1100 84.4500
L86.1100 81.3900
" />
<path d="M86.1100 81.3900
L76.3700 81.3900
" />
<path d="M76.3600 133.6200
L76.3600 128.9000
" />
<path d="M77.5500 133.6200
L76.3700 133.6200
" />
<path d="M80.4500 133.6200
L79.9200 133.6200
" />
<path d="M82.9000 133.6200
L82.0700 133.6200
" />
<path d="M86.1100 133.6200
L84.6200 133.6200
" />
<path d="M86.1100 133.6200
L86.1100 128.9000
" />
<path d="M76.3700 125.0900
L76.3700 122.0300
" />
<path d="M86.1100 125.0900
L86.1100 122.0300
" />
<path d="M86.1100 122.0300
L76.3700 122.0300
" />
<g >
</g>
<g >
</g>
<g >
</g>
<g >
</g>
<g >
</g>
<g >
</g>
<g >
</g>
<g >
</g>
<g >
</g>
<g >
</g>
<g >
</g>
<g >
</g>
<g >
</g>
<g >
</g>
<g >
</g>
<g >
</g>
<g >
</g>
<g >
</g>
<g >
</g>
<g >
</g>
<g >
</g>
<g >
</g>
<g >
</g>
<g >
</g>
<g >
</g>
<g >
</g>
<g >
</g>
<g >
</g>
<g >
</g>
<g >
</g>
<g >
</g>
<g >
</g>
<g >
</g>
<g >
</g>
<g >
</g>
<g >
</g>
<g >
</g>
<g >
</g>
<g >
</g>
<g >
</g>
<g >
</g>
<g >
</g>
<g >
</g>
<g >
</g>
<g >
</g>
<g >
</g>
<g >
</g>
<g >
</g>
<g >
</g>
<g >
</g>
<g >
</g>
<g >
</g>
</g>
<g style="fill:#FFFFFF; fill-opacity:0.0; 
stroke:#FFFFFF; stroke-width:0.1200; stroke-opacity:1; 
stroke-linecap:round; stroke-linejoin:round;">
</g>
<g style="fill:#FFFFFF; fill-opacity:1.0000; 
stroke:#FFFFFF; stroke-width:0.0000; stroke-opacity:1; 
stroke-linecap:round; stroke-linejoin:round;">
<circle cx="54.8640" cy="141.9860" r="0.1750" /> 
</g>
<g style="fill:#FFFFFF; fill-opacity:1.0000; 
stroke:#FFFFFF; stroke-width:0.0212; stroke-opacity:1; 
stroke-linecap:round; stroke-linejoin:round;">
</g>
<g style="fill:#FFFFFF; fill-opacity:1.0000; 
stroke:#FFFFFF; stroke-width:0.0000; stroke-opacity:1; 
stroke-linecap:round; stroke-linejoin:round;">
<circle cx="75.1840" cy="148.8440" r="0.1750" /> 
</g>
<g style="fill:#FFFFFF; fill-opacity:1.0000; 
stroke:#FFFFFF; stroke-width:0.0212; stroke-opacity:1; 
stroke-linecap:round; stroke-linejoin:round;">
</g>
<g style="fill:#FFFFFF; fill-opacity:1.0000; 
stroke:#FFFFFF; stroke-width:0.0000; stroke-opacity:1; 
stroke-linecap:round; stroke-linejoin:round;">
<circle cx="67.0560" cy="117.3480" r="0.1750" /> 
</g>
<g style="fill:#FFFFFF; fill-opacity:1.0000; 
stroke:#FFFFFF; stroke-width:0.0212; stroke-opacity:1; 
stroke-linecap:round; stroke-linejoin:round;">
</g>
<g style="fill:#FFFFFF; fill-opacity:1.0000; 
stroke:#FFFFFF; stroke-width:0.0000; stroke-opacity:1; 
stroke-linecap:round; stroke-linejoin:round;">
<circle cx="83.8200" cy="110.2360" r="0.1750" /> 
</g>
<g style="fill:#FFFFFF; fill-opacity:1.0000; 
stroke:#FFFFFF; stroke-width:0.0212; stroke-opacity:1; 
stroke-linecap:round; stroke-linejoin:round;">
</g>
<g style="fill:#FFFFFF; fill-opacity:1.0000; 
stroke:#FFFFFF; stroke-width:0.0000; stroke-opacity:1; 
stroke-linecap:round; stroke-linejoin:round;">
<circle cx="81.2800" cy="80.2640" r="0.1750" /> 
</g>
<g style="fill:#FFFFFF; fill-opacity:1.0000; 
stroke:#FFFFFF; stroke-width:0.0212; stroke-opacity:1; 
stroke-linecap:round; stroke-linejoin:round;">
</g>
<g style="fill:#FFFFFF; fill-opacity:1.0000; 
stroke:#FFFFFF; stroke-width:0.0000; stroke-opacity:1; 
stroke-linecap:round; stroke-linejoin:round;">
<circle cx="66.5480" cy="75.6920" r="0.1750" /> 
</g>
<g style="fill:#FFFFFF; fill-opacity:1.0000; 
stroke:#FFFFFF; stroke-width:0.0212; stroke-opacity:1; 
stroke-linecap:round; stroke-linejoin:round;">
</g>
<g style="fill:#FFFFFF; fill-opacity:1.0000; 
stroke:#FFFFFF; stroke-width:0.0000; stroke-opacity:1; 
stroke-linecap:round; stroke-linejoin:round;">
<circle cx="88.5600" cy="53.3400" r="0.1750" /> 
</g>
<g style="fill:#FFFFFF; fill-opacity:1.0000; 
stroke:#FFFFFF; stroke-width:0.0212; stroke-opacity:1; 
stroke-linecap:round; stroke-linejoin:round;">
</g>
<g style="fill:#FFFFFF; fill-opacity:1.0000; 
stroke:#FFFFFF; stroke-width:0.0000; stroke-opacity:1; 
stroke-linecap:round; stroke-linejoin:round;">
<circle cx="53.3400" cy="156.4400" r="0.1750" /> 
</g>
<g style="fill:#FFFFFF; fill-opacity:1.0000; 
stroke:#FFFFFF; stroke-width:0.0212; stroke-opacity:1; 
stroke-linecap:round; stroke-linejoin:round;">
</g>
<g style="fill:#FFFFFF; fill-opacity:1.0000; 
stroke:#FFFFFF; stroke-width:0.0000; stroke-opacity:1; 
stroke-linecap:round; stroke-linejoin:round;">
<circle cx="88.5600" cy="156.4400" r="0.1750" /> 
</g>
<g style="fill:#FFFFFF; fill-opacity:1.0000; 
stroke:#FFFFFF; stroke-width:0.0212; stroke-opacity:1; 
stroke-linecap:round; stroke-linejoin:round;">
</g>
<g style="fill:#FFFFFF; fill-opacity:1.0000; 
stroke:#FFFFFF; stroke-width:0.0000; stroke-opacity:1; 
stroke-linecap:round; stroke-linejoin:round;">
<circle cx="53.3400" cy="53.3400" r="0.1750" /> 
</g>
<g style="fill:#FFFFFF; fill-opacity:1.0000; 
stroke:#FFFFFF; stroke-width:0.0212; stroke-opacity:1; 
stroke-linecap:round; stroke-linejoin:round;">
</g>
<g style="fill:#FFFFFF; fill-opacity:1.0000; 
stroke:#FFFFFF; stroke-width:0.0000; stroke-opacity:1; 
stroke-linecap:round; stroke-linejoin:round;">
<circle cx="59.6800" cy="76.2000" r="0.1750" /> 
</g>
<g style="fill:#FFFFFF; fill-opacity:1.0000; 
stroke:#FFFFFF; stroke-width:0.0212; stroke-opacity:1; 
stroke-linecap:round; stroke-linejoin:round;">
</g>
<g style="fill:#FFFFFF; fill-opacity:1.0000; 
stroke:#FFFFFF; stroke-width:0.0000; stroke-opacity:1; 
stroke-linecap:round; stroke-linejoin:round;">
<circle cx="62.2200" cy="76.2000" r="0.1750" /> 
</g>
<g style="fill:#FFFFFF; fill-opacity:1.0000; 
stroke:#FFFFFF; stroke-width:0.0212; stroke-opacity:1; 
stroke-linecap:round; stroke-linejoin:round;">
</g>
<g style="fill:#FFFFFF; fill-opacity:1.0000; 
stroke:#FFFFFF; stroke-width:0.0000; stroke-opacity:1; 
stroke-linecap:round; stroke-linejoin:round;">
<circle cx="79.4920" cy="76.2000" r="0.1750" /> 
</g>
<g style="fill:#FFFFFF; fill-opacity:1.0000; 
stroke:#FFFFFF; stroke-width:0.0212; stroke-opacity:1; 
stroke-linecap:round; stroke-linejoin:round;">
</g>
<g style="fill:#FFFFFF; fill-opacity:1.0000; 
stroke:#FFFFFF; stroke-width:0.0000; stroke-opacity:1; 
stroke-linecap:round; stroke-linejoin:round;">
<circle cx="82.0320" cy="76.2000" r="0.1750" /> 
</g>
<g style="fill:#FFFFFF; fill-opacity:1.0000; 
stroke:#FFFFFF; stroke-width:0.0212; stroke-opacity:1; 
stroke-linecap:round; stroke-linejoin:round;">
</g>
<g style="fill:#FFFFFF; fill-opacity:1.0000; 
stroke:#FFFFFF; stroke-width:0.0000; stroke-opacity:1; 
stroke-linecap:round; stroke-linejoin:round;">
<circle cx="59.6800" cy="116.8400" r="0.1750" /> 
</g>
<g style="fill:#FFFFFF; fill-opacity:1.0000; 
stroke:#FFFFFF; stroke-width:0.0212; stroke-opacity:1; 
stroke-linecap:round; stroke-linejoin:round;">
</g>
<g style="fill:#FFFFFF; fill-opacity:1.0000; 
stroke:#FFFFFF; stroke-width:0.0000; stroke-opacity:1; 
stroke-linecap:round; stroke-linejoin:round;">
<circle cx="62.2200" cy="116.8400" r="0.1750" /> 
</g>
<g style="fill:#FFFFFF; fill-opacity:1.0000; 
stroke:#FFFFFF; stroke-width:0.0212; stroke-opacity:1; 
stroke-linecap:round; stroke-linejoin:round;">
</g>
<g style="fill:#FFFFFF; fill-opacity:1.0000; 
stroke:#FFFFFF; stroke-width:0.0000; stroke-opacity:1; 
stroke-linecap:round; stroke-linejoin:round;">
<circle cx="80.0100" cy="116.8400" r="0.1750" /> 
</g>
<g style="fill:#FFFFFF; fill-opacity:1.0000; 
stroke:#FFFFFF; stroke-width:0.0212; stroke-opacity:1; 
stroke-linecap:round; stroke-linejoin:round;">
</g>
<g style="fill:#FFFFFF; fill-opacity:1.0000; 
stroke:#FFFFFF; stroke-width:0.0000; stroke-opacity:1; 
stroke-linecap:round; stroke-linejoin:round;">
<circle cx="82.5500" cy="116.8400" r="0.1750" /> 
</g>
<g style="fill:#FFFFFF; fill-opacity:1.0000; 
stroke:#FFFFFF; stroke-width:0.0212; stroke-opacity:1; 
stroke-linecap:round; stroke-linejoin:round;">
</g>
<g style="fill:#FFFFFF; fill-opacity:1.0000; 
stroke:#FFFFFF; stroke-width:0.0000; stroke-opacity:1; 
stroke-linecap:round; stroke-linejoin:round;">
<circle cx="80.0200" cy="156.4640" r="0.1750" /> 
</g>
<g style="fill:#FFFFFF; fill-opacity:1.0000; 
stroke:#FFFFFF; stroke-width:0.0212; stroke-opacity:1; 
stroke-linecap:round; stroke-linejoin:round;">
</g>
<g style="fill:#FFFFFF; fill-opacity:1.0000; 
stroke:#FFFFFF; stroke-width:0.0000; stroke-opacity:1; 
stroke-linecap:round; stroke-linejoin:round;">
<circle cx="82.5600" cy="156.4640" r="0.1750" /> 
</g>
<g style="fill:#FFFFFF; fill-opacity:1.0000; 
stroke:#FFFFFF; stroke-width:0.0212; stroke-opacity:1; 
stroke-linecap:round; stroke-linejoin:round;">
</g>
<g style="fill:#FFFFFF; fill-opacity:1.0000; 
stroke:#FFFFFF; stroke-width:0.0000; stroke-opacity:1; 
stroke-linecap:round; stroke-linejoin:round;">
<circle cx="59.7000" cy="156.4640" r="0.1750" /> 
</g>
<g style="fill:#FFFFFF; fill-opacity:1.0000; 
stroke:#FFFFFF; stroke-width:0.0212; stroke-opacity:1; 
stroke-linecap:round; stroke-linejoin:round;">
</g>
<g style="fill:#FFFFFF; fill-opacity:1.0000; 
stroke:#FFFFFF; stroke-width:0.0000; stroke-opacity:1; 
stroke-linecap:round; stroke-linejoin:round;">
<circle cx="62.2400" cy="156.4640" r="0.1750" /> 
</g>
<g style="fill:#FFFFFF; fill-opacity:1.0000; 
stroke:#FFFFFF; stroke-width:0.0212; stroke-opacity:1; 
stroke-linecap:round; stroke-linejoin:round;">
</g>
<g style="fill:#FFFFFF; fill-opacity:1.0000; 
stroke:#FFFFFF; stroke-width:0.0000; stroke-opacity:1; 
stroke-linecap:round; stroke-linejoin:round;">
<circle cx="60.9600" cy="59.5600" r="0.1750" /> 
</g>
<g style="fill:#FFFFFF; fill-opacity:1.0000; 
stroke:#FFFFFF; stroke-width:0.0212; stroke-opacity:1; 
stroke-linecap:round; stroke-linejoin:round;">
</g>
<g style="fill:#FFFFFF; fill-opacity:1.0000; 
stroke:#FFFFFF; stroke-width:0.0000; stroke-opacity:1; 
stroke-linecap:round; stroke-linejoin:round;">
<circle cx="60.9600" cy="70.9600" r="0.1750" /> 
</g>
<g style="fill:#FFFFFF; fill-opacity:1.0000; 
stroke:#FFFFFF; stroke-width:0.0212; stroke-opacity:1; 
stroke-linecap:round; stroke-linejoin:round;">
</g>
<g style="fill:#FFFFFF; fill-opacity:1.0000; 
stroke:#FFFFFF; stroke-width:0.0000; stroke-opacity:1; 
stroke-linecap:round; stroke-linejoin:round;">
<circle cx="60.9600" cy="62.6600" r="0.1750" /> 
</g>
<g style="fill:#FFFFFF; fill-opacity:1.0000; 
stroke:#FFFFFF; stroke-width:0.0212; stroke-opacity:1; 
stroke-linecap:round; stroke-linejoin:round;">
</g>
<g style="fill:#FFFFFF; fill-opacity:1.0000; 
stroke:#FFFFFF; stroke-width:0.0000; stroke-opacity:1; 
stroke-linecap:round; stroke-linejoin:round;">
<circle cx="60.9600" cy="100.2000" r="0.1750" /> 
</g>
<g style="fill:#FFFFFF; fill-opacity:1.0000; 
stroke:#FFFFFF; stroke-width:0.0212; stroke-opacity:1; 
stroke-linecap:round; stroke-linejoin:round;">
</g>
<g style="fill:#FFFFFF; fill-opacity:1.0000; 
stroke:#FFFFFF; stroke-width:0.0000; stroke-opacity:1; 
stroke-linecap:round; stroke-linejoin:round;">
<circle cx="60.9600" cy="111.6000" r="0.1750" /> 
</g>
<g style="fill:#FFFFFF; fill-opacity:1.0000; 
stroke:#FFFFFF; stroke-width:0.0212; stroke-opacity:1; 
stroke-linecap:round; stroke-linejoin:round;">
</g>
<g style="fill:#FFFFFF; fill-opacity:1.0000; 
stroke:#FFFFFF; stroke-width:0.0000; stroke-opacity:1; 
stroke-linecap:round; stroke-linejoin:round;">
<circle cx="60.9600" cy="103.3000" r="0.1750" /> 
</g>
<g style="fill:#FFFFFF; fill-opacity:1.0000; 
stroke:#FFFFFF; stroke-width:0.0212; stroke-opacity:1; 
stroke-linecap:round; stroke-linejoin:round;">
</g>
<g style="fill:#FFFFFF; fill-opacity:1.0000; 
stroke:#FFFFFF; stroke-width:0.0000; stroke-opacity:1; 
stroke-linecap:round; stroke-linejoin:round;">
<circle cx="60.9600" cy="140.8400" r="0.1750" /> 
</g>
<g style="fill:#FFFFFF; fill-opacity:1.0000; 
stroke:#FFFFFF; stroke-width:0.0212; stroke-opacity:1; 
stroke-linecap:round; stroke-linejoin:round;">
</g>
<g style="fill:#FFFFFF; fill-opacity:1.0000; 
stroke:#FFFFFF; stroke-width:0.0000; stroke-opacity:1; 
stroke-linecap:round; stroke-linejoin:round;">
<circle cx="60.9600" cy="152.2400" r="0.1750" /> 
</g>
<g style="fill:#FFFFFF; fill-opacity:1.0000; 
stroke:#FFFFFF; stroke-width:0.0212; stroke-opacity:1; 
stroke-linecap:round; stroke-linejoin:round;">
</g>
<g style="fill:#FFFFFF; fill-opacity:1.0000; 
stroke:#FFFFFF; stroke-width:0.0000; stroke-opacity:1; 
stroke-linecap:round; stroke-linejoin:round;">
<circle cx="60.9600" cy="143.9400" r="0.1750" /> 
</g>
<g style="fill:#FFFFFF; fill-opacity:1.0000; 
stroke:#FFFFFF; stroke-width:0.0212; stroke-opacity:1; 
stroke-linecap:round; stroke-linejoin:round;">
</g>
<g style="fill:#FFFFFF; fill-opacity:1.0000; 
stroke:#FFFFFF; stroke-width:0.0000; stroke-opacity:1; 
stroke-linecap:round; stroke-linejoin:round;">
<circle cx="81.2800" cy="59.5600" r="0.1750" /> 
</g>
<g style="fill:#FFFFFF; fill-opacity:1.0000; 
stroke:#FFFFFF; stroke-width:0.0212; stroke-opacity:1; 
stroke-linecap:round; stroke-linejoin:round;">
</g>
<g style="fill:#FFFFFF; fill-opacity:1.0000; 
stroke:#FFFFFF; stroke-width:0.0000; stroke-opacity:1; 
stroke-linecap:round; stroke-linejoin:round;">
<circle cx="81.2800" cy="70.9600" r="0.1750" /> 
</g>
<g style="fill:#FFFFFF; fill-opacity:1.0000; 
stroke:#FFFFFF; stroke-width:0.0212; stroke-opacity:1; 
stroke-linecap:round; stroke-linejoin:round;">
</g>
<g style="fill:#FFFFFF; fill-opacity:1.0000; 
stroke:#FFFFFF; stroke-width:0.0000; stroke-opacity:1; 
stroke-linecap:round; stroke-linejoin:round;">
<circle cx="81.2800" cy="62.6600" r="0.1750" /> 
</g>
<g style="fill:#FFFFFF; fill-opacity:1.0000; 
stroke:#FFFFFF; stroke-width:0.0212; stroke-opacity:1; 
stroke-linecap:round; stroke-linejoin:round;">
</g>
<g style="fill:#FFFFFF; fill-opacity:1.0000; 
stroke:#FFFFFF; stroke-width:0.0000; stroke-opacity:1; 
stroke-linecap:round; stroke-linejoin:round;">
<circle cx="81.2800" cy="100.3600" r="0.1750" /> 
</g>
<g style="fill:#FFFFFF; fill-opacity:1.0000; 
stroke:#FFFFFF; stroke-width:0.0212; stroke-opacity:1; 
stroke-linecap:round; stroke-linejoin:round;">
</g>
<g style="fill:#FFFFFF; fill-opacity:1.0000; 
stroke:#FFFFFF; stroke-width:0.0000; stroke-opacity:1; 
stroke-linecap:round; stroke-linejoin:round;">
<circle cx="81.2800" cy="111.7600" r="0.1750" /> 
</g>
<g style="fill:#FFFFFF; fill-opacity:1.0000; 
stroke:#FFFFFF; stroke-width:0.0212; stroke-opacity:1; 
stroke-linecap:round; stroke-linejoin:round;">
</g>
<g style="fill:#FFFFFF; fill-opacity:1.0000; 
stroke:#FFFFFF; stroke-width:0.0000; stroke-opacity:1; 
stroke-linecap:round; stroke-linejoin:round;">
<circle cx="81.2800" cy="103.4600" r="0.1750" /> 
</g>
<g style="fill:#FFFFFF; fill-opacity:1.0000; 
stroke:#FFFFFF; stroke-width:0.0212; stroke-opacity:1; 
stroke-linecap:round; stroke-linejoin:round;">
</g>
<g style="fill:#FFFFFF; fill-opacity:1.0000; 
stroke:#FFFFFF; stroke-width:0.0000; stroke-opacity:1; 
stroke-linecap:round; stroke-linejoin:round;">
<circle cx="81.2800" cy="140.8400" r="0.1750" /> 
</g>
<g style="fill:#FFFFFF; fill-opacity:1.0000; 
stroke:#FFFFFF; stroke-width:0.0212; stroke-opacity:1; 
stroke-linecap:round; stroke-linejoin:round;">
</g>
<g style="fill:#FFFFFF; fill-opacity:1.0000; 
stroke:#FFFFFF; stroke-width:0.0000; stroke-opacity:1; 
stroke-linecap:round; stroke-linejoin:round;">
<circle cx="81.2800" cy="152.2400" r="0.1750" /> 
</g>
<g style="fill:#FFFFFF; fill-opacity:1.0000; 
stroke:#FFFFFF; stroke-width:0.0212; stroke-opacity:1; 
stroke-linecap:round; stroke-linejoin:round;">
</g>
<g style="fill:#FFFFFF; fill-opacity:1.0000; 
stroke:#FFFFFF; stroke-width:0.0000; stroke-opacity:1; 
stroke-linecap:round; stroke-linejoin:round;">
<circle cx="81.2800" cy="143.9400" r="0.1750" /> 
</g>
<g style="fill:#FFFFFF; fill-opacity:1.0000; 
stroke:#FFFFFF; stroke-width:0.0212; stroke-opacity:1; 
stroke-linecap:round; stroke-linejoin:round;">
</g>
<g style="fill:#FFFFFF; fill-opacity:1.0000; 
stroke:#FFFFFF; stroke-width:0.0000; stroke-opacity:1; 
stroke-linecap:round; stroke-linejoin:round;">
<circle cx="53.8480" cy="146.3040" r="0.1750" /> 
</g>
<g style="fill:#FFFFFF; fill-opacity:1.0000; 
stroke:#FFFFFF; stroke-width:0.0212; stroke-opacity:1; 
stroke-linecap:round; stroke-linejoin:round;">
</g>
<g style="fill:#FFFFFF; fill-opacity:1.0000; 
stroke:#FFFFFF; stroke-width:0.0000; stroke-opacity:1; 
stroke-linecap:round; stroke-linejoin:round;">
<circle cx="53.8480" cy="151.3840" r="0.1750" /> 
</g>
<g style="fill:#FFFFFF; fill-opacity:1.0000; 
stroke:#FFFFFF; stroke-width:0.0212; stroke-opacity:1; 
stroke-linecap:round; stroke-linejoin:round;">
</g>
<g style="fill:#FFFFFF; fill-opacity:1.0000; 
stroke:#FFFFFF; stroke-width:0.0000; stroke-opacity:1; 
stroke-linecap:round; stroke-linejoin:round;">
<circle cx="73.1520" cy="146.8120" r="0.1750" /> 
</g>
<g style="fill:#FFFFFF; fill-opacity:1.0000; 
stroke:#FFFFFF; stroke-width:0.0212; stroke-opacity:1; 
stroke-linecap:round; stroke-linejoin:round;">
</g>
<g style="fill:#FFFFFF; fill-opacity:1.0000; 
stroke:#FFFFFF; stroke-width:0.0000; stroke-opacity:1; 
stroke-linecap:round; stroke-linejoin:round;">
<circle cx="73.1520" cy="151.8920" r="0.1750" /> 
</g>
<g style="fill:#FFFFFF; fill-opacity:1.0000; 
stroke:#FFFFFF; stroke-width:0.0212; stroke-opacity:1; 
stroke-linecap:round; stroke-linejoin:round;">
</g>
<g style="fill:#FFFFFF; fill-opacity:1.0000; 
stroke:#FFFFFF; stroke-width:1.1000; stroke-opacity:1; 
stroke-linecap:round; stroke-linejoin:round;">
</g>
<g style="fill:#FFFFFF; fill-opacity:0.0; 
stroke:#FFFFFF; stroke-width:1.1000; stroke-opacity:1; 
stroke-linecap:round; stroke-linejoin:round;">
<path d="M56.1200 86.7100
L56.1200 86.0100
" />
<path d="M65.7200 86.7100
L65.7200 86.0100
" />
</g>
<g style="fill:#FFFFFF; fill-opacity:1.0000; 
stroke:#FFFFFF; stroke-width:0.0000; stroke-opacity:1; 
stroke-linecap:round; stroke-linejoin:round;">
<circle cx="58.4200" cy="93.8600" r="0.1750" /> 
</g>
<g style="fill:#FFFFFF; fill-opacity:1.0000; 
stroke:#FFFFFF; stroke-width:0.0212; stroke-opacity:1; 
stroke-linecap:round; stroke-linejoin:round;">
</g>
<g style="fill:#FFFFFF; fill-opacity:1.0000; 
stroke:#FFFFFF; stroke-width:0.0000; stroke-opacity:1; 
stroke-linecap:round; stroke-linejoin:round;">
<circle cx="60.9200" cy="93.8600" r="0.1750" /> 
</g>
<g style="fill:#FFFFFF; fill-opacity:1.0000; 
stroke:#FFFFFF; stroke-width:0.0212; stroke-opacity:1; 
stroke-linecap:round; stroke-linejoin:round;">
</g>
<g style="fill:#FFFFFF; fill-opacity:1.0000; 
stroke:#FFFFFF; stroke-width:0.0000; stroke-opacity:1; 
stroke-linecap:round; stroke-linejoin:round;">
<circle cx="63.4200" cy="93.8600" r="0.1750" /> 
</g>
<g style="fill:#FFFFFF; fill-opacity:1.0000; 
stroke:#FFFFFF; stroke-width:0.0212; stroke-opacity:1; 
stroke-linecap:round; stroke-linejoin:round;">
</g>
<g style="fill:#FFFFFF; fill-opacity:1.0000; 
stroke:#FFFFFF; stroke-width:1.1000; stroke-opacity:1; 
stroke-linecap:round; stroke-linejoin:round;">
</g>
<g style="fill:#FFFFFF; fill-opacity:0.0; 
stroke:#FFFFFF; stroke-width:1.1000; stroke-opacity:1; 
stroke-linecap:round; stroke-linejoin:round;">
<path d="M56.1200 127.3500
L56.1200 126.6500
" />
<path d="M65.7200 127.3500
L65.7200 126.6500
" />
</g>
<g style="fill:#FFFFFF; fill-opacity:1.0000; 
stroke:#FFFFFF; stroke-width:0.0000; stroke-opacity:1; 
stroke-linecap:round; stroke-linejoin:round;">
<circle cx="58.4200" cy="134.5000" r="0.1750" /> 
</g>
<g style="fill:#FFFFFF; fill-opacity:1.0000; 
stroke:#FFFFFF; stroke-width:0.0212; stroke-opacity:1; 
stroke-linecap:round; stroke-linejoin:round;">
</g>
<g style="fill:#FFFFFF; fill-opacity:1.0000; 
stroke:#FFFFFF; stroke-width:0.0000; stroke-opacity:1; 
stroke-linecap:round; stroke-linejoin:round;">
<circle cx="60.9200" cy="134.5000" r="0.1750" /> 
</g>
<g style="fill:#FFFFFF; fill-opacity:1.0000; 
stroke:#FFFFFF; stroke-width:0.0212; stroke-opacity:1; 
stroke-linecap:round; stroke-linejoin:round;">
</g>
<g style="fill:#FFFFFF; fill-opacity:1.0000; 
stroke:#FFFFFF; stroke-width:0.0000; stroke-opacity:1; 
stroke-linecap:round; stroke-linejoin:round;">
<circle cx="63.4200" cy="134.5000" r="0.1750" /> 
</g>
<g style="fill:#FFFFFF; fill-opacity:1.0000; 
stroke:#FFFFFF; stroke-width:0.0212; stroke-opacity:1; 
stroke-linecap:round; stroke-linejoin:round;">
</g>
<g style="fill:#FFFFFF; fill-opacity:1.0000; 
stroke:#FFFFFF; stroke-width:1.1000; stroke-opacity:1; 
stroke-linecap:round; stroke-linejoin:round;">
</g>
<g style="fill:#FFFFFF; fill-opacity:0.0; 
stroke:#FFFFFF; stroke-width:1.1000; stroke-opacity:1; 
stroke-linecap:round; stroke-linejoin:round;">
<path d="M76.4400 86.7100
L76.4400 86.0100
" />
<path d="M86.0400 86.7100
L86.0400 86.0100
" />
</g>
<g style="fill:#FFFFFF; fill-opacity:1.0000; 
stroke:#FFFFFF; stroke-width:0.0000; stroke-opacity:1; 
stroke-linecap:round; stroke-linejoin:round;">
<circle cx="78.7400" cy="93.8600" r="0.1750" /> 
</g>
<g style="fill:#FFFFFF; fill-opacity:1.0000; 
stroke:#FFFFFF; stroke-width:0.0212; stroke-opacity:1; 
stroke-linecap:round; stroke-linejoin:round;">
</g>
<g style="fill:#FFFFFF; fill-opacity:1.0000; 
stroke:#FFFFFF; stroke-width:0.0000; stroke-opacity:1; 
stroke-linecap:round; stroke-linejoin:round;">
<circle cx="81.2400" cy="93.8600" r="0.1750" /> 
</g>
<g style="fill:#FFFFFF; fill-opacity:1.0000; 
stroke:#FFFFFF; stroke-width:0.0212; stroke-opacity:1; 
stroke-linecap:round; stroke-linejoin:round;">
</g>
<g style="fill:#FFFFFF; fill-opacity:1.0000; 
stroke:#FFFFFF; stroke-width:0.0000; stroke-opacity:1; 
stroke-linecap:round; stroke-linejoin:round;">
<circle cx="83.7400" cy="93.8600" r="0.1750" /> 
</g>
<g style="fill:#FFFFFF; fill-opacity:1.0000; 
stroke:#FFFFFF; stroke-width:0.0212; stroke-opacity:1; 
stroke-linecap:round; stroke-linejoin:round;">
</g>
<g style="fill:#FFFFFF; fill-opacity:1.0000; 
stroke:#FFFFFF; stroke-width:1.1000; stroke-opacity:1; 
stroke-linecap:round; stroke-linejoin:round;">
</g>
<g style="fill:#FFFFFF; fill-opacity:0.0; 
stroke:#FFFFFF; stroke-width:1.1000; stroke-opacity:1; 
stroke-linecap:round; stroke-linejoin:round;">
<path d="M76.4400 127.3500
L76.4400 126.6500
" />
<path d="M86.0400 127.3500
L86.0400 126.6500
" />
</g>
<g style="fill:#FFFFFF; fill-opacity:1.0000; 
stroke:#FFFFFF; stroke-width:0.0000; stroke-opacity:1; 
stroke-linecap:round; stroke-linejoin:round;">
<circle cx="78.7400" cy="134.5000" r="0.1750" /> 
</g>
<g style="fill:#FFFFFF; fill-opacity:1.0000; 
stroke:#FFFFFF; stroke-width:0.0212; stroke-opacity:1; 
stroke-linecap:round; stroke-linejoin:round;">
</g>
<g style="fill:#FFFFFF; fill-opacity:1.0000; 
stroke:#FFFFFF; stroke-width:0.0000; stroke-opacity:1; 
stroke-linecap:round; stroke-linejoin:round;">
<circle cx="81.2400" cy="134.5000" r="0.1750" /> 
</g>
<g style="fill:#FFFFFF; fill-opacity:1.0000; 
stroke:#FFFFFF; stroke-width:0.0212; stroke-opacity:1; 
stroke-linecap:round; stroke-linejoin:round;">
</g>
<g style="fill:#FFFFFF; fill-opacity:1.0000; 
stroke:#FFFFFF; stroke-width:0.0000; stroke-opacity:1; 
stroke-linecap:round; stroke-linejoin:round;">
<circle cx="83.7400" cy="134.5000" r="0.1750" /> 
</g>
<g style="fill:#FFFFFF; fill-opacity:1.0000; 
stroke:#FFFFFF; stroke-width:0.0212; stroke-opacity:1; 
stroke-linecap:round; stroke-linejoin:round;">
</g>
<g style="fill:#FFFFFF; fill-opacity:1.0000; 
stroke:#FFFFFF; stroke-width:0.0000; stroke-opacity:1; 
stroke-linecap:round; stroke-linejoin:round;">
<circle cx="88.9000" cy="114.3000" r="0.1750" /> 
</g>
<g style="fill:#FFFFFF; fill-opacity:1.0000; 
stroke:#FFFFFF; stroke-width:0.0212; stroke-opacity:1; 
stroke-linecap:round; stroke-linejoin:round;">
</g>
<g style="fill:#FFFFFF; fill-opacity:1.0000; 
stroke:#FFFFFF; stroke-width:0.0000; stroke-opacity:1; 
stroke-linecap:round; stroke-linejoin:round;">
<circle cx="88.9000" cy="116.8400" r="0.1750" /> 
</g>
<g style="fill:#FFFFFF; fill-opacity:1.0000; 
stroke:#FFFFFF; stroke-width:0.0212; stroke-opacity:1; 
stroke-linecap:round; stroke-linejoin:round;">
</g>
<g style="fill:#FFFFFF; fill-opacity:1.0000; 
stroke:#FFFFFF; stroke-width:0.0000; stroke-opacity:1; 
stroke-linecap:round; stroke-linejoin:round;">
<circle cx="88.9000" cy="119.3800" r="0.1750" /> 
</g>
<g style="fill:#FFFFFF; fill-opacity:1.0000; 
stroke:#FFFFFF; stroke-width:0.0212; stroke-opacity:1; 
stroke-linecap:round; stroke-linejoin:round;">
</g>
<g style="fill:#FFFFFF; fill-opacity:1.0000; 
stroke:#FFFFFF; stroke-width:0.0000; stroke-opacity:1; 
stroke-linecap:round; stroke-linejoin:round;">
<circle cx="52.8700" cy="90.0000" r="0.1750" /> 
</g>
<g style="fill:#FFFFFF; fill-opacity:1.0000; 
stroke:#FFFFFF; stroke-width:0.0212; stroke-opacity:1; 
stroke-linecap:round; stroke-linejoin:round;">
</g>
<g style="fill:#FFFFFF; fill-opacity:1.0000; 
stroke:#FFFFFF; stroke-width:0.0000; stroke-opacity:1; 
stroke-linecap:round; stroke-linejoin:round;">
<circle cx="52.8700" cy="92.5400" r="0.1750" /> 
</g>
<g style="fill:#FFFFFF; fill-opacity:1.0000; 
stroke:#FFFFFF; stroke-width:0.0212; stroke-opacity:1; 
stroke-linecap:round; stroke-linejoin:round;">
</g>
<g style="fill:#FFFFFF; fill-opacity:1.0000; 
stroke:#FFFFFF; stroke-width:0.0000; stroke-opacity:1; 
stroke-linecap:round; stroke-linejoin:round;">
<circle cx="52.8700" cy="95.0800" r="0.1750" /> 
</g>
<g style="fill:#FFFFFF; fill-opacity:1.0000; 
stroke:#FFFFFF; stroke-width:0.0212; stroke-opacity:1; 
stroke-linecap:round; stroke-linejoin:round;">
</g>
<g style="fill:#FFFFFF; fill-opacity:1.0000; 
stroke:#FFFFFF; stroke-width:0.0000; stroke-opacity:1; 
stroke-linecap:round; stroke-linejoin:round;">
<circle cx="52.8700" cy="97.6200" r="0.1750" /> 
</g>
<g style="fill:#FFFFFF; fill-opacity:1.0000; 
stroke:#FFFFFF; stroke-width:0.0212; stroke-opacity:1; 
stroke-linecap:round; stroke-linejoin:round;">
</g>
<g style="fill:#FFFFFF; fill-opacity:1.0000; 
stroke:#FFFFFF; stroke-width:0.0000; stroke-opacity:1; 
stroke-linecap:round; stroke-linejoin:round;">
<circle cx="52.8700" cy="100.1600" r="0.1750" /> 
</g>
<g style="fill:#FFFFFF; fill-opacity:1.0000; 
stroke:#FFFFFF; stroke-width:0.0212; stroke-opacity:1; 
stroke-linecap:round; stroke-linejoin:round;">
</g>
<g style="fill:#000000; fill-opacity:1.0000; 
stroke:#000000; stroke-width:0.0212; stroke-opacity:1; 
stroke-linecap:round; stroke-linejoin:round;">
</g> 
</svg>
