<?xml version="1.0" standalone="no"?>
 <!DOCTYPE svg PUBLIC "-//W3C//DTD SVG 1.1//EN" 
 "http://www.w3.org/Graphics/SVG/1.1/DTD/svg11.dtd"> 
<svg
  xmlns:svg="http://www.w3.org/2000/svg"
  xmlns="http://www.w3.org/2000/svg"
  xmlns:xlink="http://www.w3.org/1999/xlink"
  version="1.1"
  width="297.0022mm" height="210.0072mm" viewBox="0.0000 0.0000 297.0022 210.0072">
<title>SVG Image created as mount-F_SilkS.svg date 2023/11/08 17:25:29 </title>
  <desc>Image generated by PCBNEW </desc>
<g style="fill:#000000; fill-opacity:1.0000;stroke:#000000; stroke-opacity:1.0000;
stroke-linecap:round; stroke-linejoin:round;"
 transform="translate(0 0) scale(1 1)">
</g>
<g style="fill:#000000; fill-opacity:0.0; 
stroke:#000000; stroke-width:0.0000; stroke-opacity:1; 
stroke-linecap:round; stroke-linejoin:round;">
</g>
<g style="fill:#000000; fill-opacity:0.0; 
stroke:#000000; stroke-width:0.1500; stroke-opacity:1; 
stroke-linecap:round; stroke-linejoin:round;">
<text x="63.5000" y="83.9000"
textLength="2.2024" font-size="1.3333" lengthAdjust="spacingAndGlyphs"
text-anchor="middle" opacity="0">D1</text>
<g class="stroked-text"><desc>D1</desc>
<path d="M62.7619 83.8548
L62.7619 82.8548
" />
<path d="M62.7619 82.8548
L63.0000 82.8548
" />
<path d="M63.0000 82.8548
L63.1429 82.9024
" />
<path d="M63.1429 82.9024
L63.2381 82.9977
" />
<path d="M63.2381 82.9977
L63.2857 83.0929
" />
<path d="M63.2857 83.0929
L63.3333 83.2834
" />
<path d="M63.3333 83.2834
L63.3333 83.4262
" />
<path d="M63.3333 83.4262
L63.2857 83.6167
" />
<path d="M63.2857 83.6167
L63.2381 83.7120
" />
<path d="M63.2381 83.7120
L63.1429 83.8072
" />
<path d="M63.1429 83.8072
L63.0000 83.8548
" />
<path d="M63.0000 83.8548
L62.7619 83.8548
" />
<path d="M64.2857 83.8548
L63.7143 83.8548
" />
<path d="M64.0000 83.8548
L64.0000 82.8548
" />
<path d="M64.0000 82.8548
L63.9048 82.9977
" />
<path d="M63.9048 82.9977
L63.8095 83.0929
" />
<path d="M63.8095 83.0929
L63.7143 83.1405
" />
</g><text x="63.5000" y="104.2200"
textLength="2.2024" font-size="1.3333" lengthAdjust="spacingAndGlyphs"
text-anchor="middle" opacity="0">D2</text>
<g class="stroked-text"><desc>D2</desc>
<path d="M62.7619 104.1748
L62.7619 103.1748
" />
<path d="M62.7619 103.1748
L63.0000 103.1748
" />
<path d="M63.0000 103.1748
L63.1429 103.2224
" />
<path d="M63.1429 103.2224
L63.2381 103.3177
" />
<path d="M63.2381 103.3177
L63.2857 103.4129
" />
<path d="M63.2857 103.4129
L63.3333 103.6034
" />
<path d="M63.3333 103.6034
L63.3333 103.7462
" />
<path d="M63.3333 103.7462
L63.2857 103.9367
" />
<path d="M63.2857 103.9367
L63.2381 104.0320
" />
<path d="M63.2381 104.0320
L63.1429 104.1272
" />
<path d="M63.1429 104.1272
L63.0000 104.1748
" />
<path d="M63.0000 104.1748
L62.7619 104.1748
" />
<path d="M63.7143 103.2701
L63.7619 103.2224
" />
<path d="M63.7619 103.2224
L63.8571 103.1748
" />
<path d="M63.8571 103.1748
L64.0952 103.1748
" />
<path d="M64.0952 103.1748
L64.1905 103.2224
" />
<path d="M64.1905 103.2224
L64.2381 103.2701
" />
<path d="M64.2381 103.2701
L64.2857 103.3653
" />
<path d="M64.2857 103.3653
L64.2857 103.4605
" />
<path d="M64.2857 103.4605
L64.2381 103.6034
" />
<path d="M64.2381 103.6034
L63.6667 104.1748
" />
<path d="M63.6667 104.1748
L64.2857 104.1748
" />
</g><text x="63.5000" y="124.5400"
textLength="2.2024" font-size="1.3333" lengthAdjust="spacingAndGlyphs"
text-anchor="middle" opacity="0">D3</text>
<g class="stroked-text"><desc>D3</desc>
<path d="M62.7619 124.4948
L62.7619 123.4948
" />
<path d="M62.7619 123.4948
L63.0000 123.4948
" />
<path d="M63.0000 123.4948
L63.1429 123.5424
" />
<path d="M63.1429 123.5424
L63.2381 123.6377
" />
<path d="M63.2381 123.6377
L63.2857 123.7329
" />
<path d="M63.2857 123.7329
L63.3333 123.9234
" />
<path d="M63.3333 123.9234
L63.3333 124.0662
" />
<path d="M63.3333 124.0662
L63.2857 124.2567
" />
<path d="M63.2857 124.2567
L63.2381 124.3520
" />
<path d="M63.2381 124.3520
L63.1429 124.4472
" />
<path d="M63.1429 124.4472
L63.0000 124.4948
" />
<path d="M63.0000 124.4948
L62.7619 124.4948
" />
<path d="M63.6667 123.4948
L64.2857 123.4948
" />
<path d="M64.2857 123.4948
L63.9524 123.8758
" />
<path d="M63.9524 123.8758
L64.0952 123.8758
" />
<path d="M64.0952 123.8758
L64.1905 123.9234
" />
<path d="M64.1905 123.9234
L64.2381 123.9710
" />
<path d="M64.2381 123.9710
L64.2857 124.0662
" />
<path d="M64.2857 124.0662
L64.2857 124.3043
" />
<path d="M64.2857 124.3043
L64.2381 124.3996
" />
<path d="M64.2381 124.3996
L64.1905 124.4472
" />
<path d="M64.1905 124.4472
L64.0952 124.4948
" />
<path d="M64.0952 124.4948
L63.8095 124.4948
" />
<path d="M63.8095 124.4948
L63.7143 124.4472
" />
<path d="M63.7143 124.4472
L63.6667 124.3996
" />
</g><text x="63.5000" y="63.5800"
textLength="2.2024" font-size="1.3333" lengthAdjust="spacingAndGlyphs"
text-anchor="middle" opacity="0">D4</text>
<g class="stroked-text"><desc>D4</desc>
<path d="M62.7619 63.5348
L62.7619 62.5348
" />
<path d="M62.7619 62.5348
L63.0000 62.5348
" />
<path d="M63.0000 62.5348
L63.1429 62.5824
" />
<path d="M63.1429 62.5824
L63.2381 62.6777
" />
<path d="M63.2381 62.6777
L63.2857 62.7729
" />
<path d="M63.2857 62.7729
L63.3333 62.9634
" />
<path d="M63.3333 62.9634
L63.3333 63.1062
" />
<path d="M63.3333 63.1062
L63.2857 63.2967
" />
<path d="M63.2857 63.2967
L63.2381 63.3920
" />
<path d="M63.2381 63.3920
L63.1429 63.4872
" />
<path d="M63.1429 63.4872
L63.0000 63.5348
" />
<path d="M63.0000 63.5348
L62.7619 63.5348
" />
<path d="M64.1905 62.8682
L64.1905 63.5348
" />
<path d="M63.9524 62.4872
L63.7143 63.2015
" />
<path d="M63.7143 63.2015
L64.3333 63.2015
" />
</g><g transform="rotate(-90.000000 59.9400 147.3200)">
<text x="59.9400" y="147.8200"
textLength="1.9643" font-size="1.3333" lengthAdjust="spacingAndGlyphs"
text-anchor="middle" opacity="0">J1</text>
</g>
<g class="stroked-text"><desc>J1</desc>
<path d="M59.3948 147.6533
L60.1091 147.6533
" />
<path d="M60.1091 147.6533
L60.2520 147.7010
" />
<path d="M60.2520 147.7010
L60.3472 147.7962
" />
<path d="M60.3472 147.7962
L60.3948 147.9390
" />
<path d="M60.3948 147.9390
L60.3948 148.0343
" />
<path d="M60.3948 146.6533
L60.3948 147.2248
" />
<path d="M60.3948 146.9390
L59.3948 146.9390
" />
<path d="M59.3948 146.9390
L59.5377 147.0343
" />
<path d="M59.5377 147.0343
L59.6329 147.1295
" />
<path d="M59.6329 147.1295
L59.6805 147.2248
" />
</g><text x="81.2800" y="59.1400"
textLength="1.9643" font-size="1.3333" lengthAdjust="spacingAndGlyphs"
text-anchor="middle" opacity="0">J2</text>
<g class="stroked-text"><desc>J2</desc>
<path d="M80.9467 58.0948
L80.9467 58.8091
" />
<path d="M80.9467 58.8091
L80.8990 58.9520
" />
<path d="M80.8990 58.9520
L80.8038 59.0472
" />
<path d="M80.8038 59.0472
L80.6610 59.0948
" />
<path d="M80.6610 59.0948
L80.5657 59.0948
" />
<path d="M81.3752 58.1901
L81.4229 58.1424
" />
<path d="M81.4229 58.1424
L81.5181 58.0948
" />
<path d="M81.5181 58.0948
L81.7562 58.0948
" />
<path d="M81.7562 58.0948
L81.8514 58.1424
" />
<path d="M81.8514 58.1424
L81.8990 58.1901
" />
<path d="M81.8990 58.1901
L81.9467 58.2853
" />
<path d="M81.9467 58.2853
L81.9467 58.3805
" />
<path d="M81.9467 58.3805
L81.8990 58.5234
" />
<path d="M81.8990 58.5234
L81.3276 59.0948
" />
<path d="M81.3276 59.0948
L81.9467 59.0948
" />
</g><text x="66.0400" y="94.4800"
textLength="2.2024" font-size="1.3333" lengthAdjust="spacingAndGlyphs"
text-anchor="middle" opacity="0">R1</text>
<g class="stroked-text"><desc>R1</desc>
<path d="M65.8733 94.4348
L65.5400 93.9586
" />
<path d="M65.3019 94.4348
L65.3019 93.4348
" />
<path d="M65.3019 93.4348
L65.6829 93.4348
" />
<path d="M65.6829 93.4348
L65.7781 93.4824
" />
<path d="M65.7781 93.4824
L65.8257 93.5301
" />
<path d="M65.8257 93.5301
L65.8733 93.6253
" />
<path d="M65.8733 93.6253
L65.8733 93.7682
" />
<path d="M65.8733 93.7682
L65.8257 93.8634
" />
<path d="M65.8257 93.8634
L65.7781 93.9110
" />
<path d="M65.7781 93.9110
L65.6829 93.9586
" />
<path d="M65.6829 93.9586
L65.3019 93.9586
" />
<path d="M66.8257 94.4348
L66.2543 94.4348
" />
<path d="M66.5400 94.4348
L66.5400 93.4348
" />
<path d="M66.5400 93.4348
L66.4448 93.5777
" />
<path d="M66.4448 93.5777
L66.3495 93.6729
" />
<path d="M66.3495 93.6729
L66.2543 93.7205
" />
</g><text x="66.0400" y="114.8000"
textLength="2.2024" font-size="1.3333" lengthAdjust="spacingAndGlyphs"
text-anchor="middle" opacity="0">R2</text>
<g class="stroked-text"><desc>R2</desc>
<path d="M65.8733 114.7548
L65.5400 114.2786
" />
<path d="M65.3019 114.7548
L65.3019 113.7548
" />
<path d="M65.3019 113.7548
L65.6829 113.7548
" />
<path d="M65.6829 113.7548
L65.7781 113.8024
" />
<path d="M65.7781 113.8024
L65.8257 113.8501
" />
<path d="M65.8257 113.8501
L65.8733 113.9453
" />
<path d="M65.8733 113.9453
L65.8733 114.0882
" />
<path d="M65.8733 114.0882
L65.8257 114.1834
" />
<path d="M65.8257 114.1834
L65.7781 114.2310
" />
<path d="M65.7781 114.2310
L65.6829 114.2786
" />
<path d="M65.6829 114.2786
L65.3019 114.2786
" />
<path d="M66.2543 113.8501
L66.3019 113.8024
" />
<path d="M66.3019 113.8024
L66.3971 113.7548
" />
<path d="M66.3971 113.7548
L66.6352 113.7548
" />
<path d="M66.6352 113.7548
L66.7305 113.8024
" />
<path d="M66.7305 113.8024
L66.7781 113.8501
" />
<path d="M66.7781 113.8501
L66.8257 113.9453
" />
<path d="M66.8257 113.9453
L66.8257 114.0405
" />
<path d="M66.8257 114.0405
L66.7781 114.1834
" />
<path d="M66.7781 114.1834
L66.2067 114.7548
" />
<path d="M66.2067 114.7548
L66.8257 114.7548
" />
</g><text x="66.0400" y="135.1200"
textLength="2.2024" font-size="1.3333" lengthAdjust="spacingAndGlyphs"
text-anchor="middle" opacity="0">R3</text>
<g class="stroked-text"><desc>R3</desc>
<path d="M65.8733 135.0748
L65.5400 134.5986
" />
<path d="M65.3019 135.0748
L65.3019 134.0748
" />
<path d="M65.3019 134.0748
L65.6829 134.0748
" />
<path d="M65.6829 134.0748
L65.7781 134.1224
" />
<path d="M65.7781 134.1224
L65.8257 134.1701
" />
<path d="M65.8257 134.1701
L65.8733 134.2653
" />
<path d="M65.8733 134.2653
L65.8733 134.4082
" />
<path d="M65.8733 134.4082
L65.8257 134.5034
" />
<path d="M65.8257 134.5034
L65.7781 134.5510
" />
<path d="M65.7781 134.5510
L65.6829 134.5986
" />
<path d="M65.6829 134.5986
L65.3019 134.5986
" />
<path d="M66.2067 134.0748
L66.8257 134.0748
" />
<path d="M66.8257 134.0748
L66.4924 134.4558
" />
<path d="M66.4924 134.4558
L66.6352 134.4558
" />
<path d="M66.6352 134.4558
L66.7305 134.5034
" />
<path d="M66.7305 134.5034
L66.7781 134.5510
" />
<path d="M66.7781 134.5510
L66.8257 134.6462
" />
<path d="M66.8257 134.6462
L66.8257 134.8843
" />
<path d="M66.8257 134.8843
L66.7781 134.9796
" />
<path d="M66.7781 134.9796
L66.7305 135.0272
" />
<path d="M66.7305 135.0272
L66.6352 135.0748
" />
<path d="M66.6352 135.0748
L66.3495 135.0748
" />
<path d="M66.3495 135.0748
L66.2543 135.0272
" />
<path d="M66.2543 135.0272
L66.2067 134.9796
" />
</g><text x="66.0400" y="74.1600"
textLength="2.2024" font-size="1.3333" lengthAdjust="spacingAndGlyphs"
text-anchor="middle" opacity="0">R4</text>
<g class="stroked-text"><desc>R4</desc>
<path d="M65.8733 74.1148
L65.5400 73.6386
" />
<path d="M65.3019 74.1148
L65.3019 73.1148
" />
<path d="M65.3019 73.1148
L65.6829 73.1148
" />
<path d="M65.6829 73.1148
L65.7781 73.1624
" />
<path d="M65.7781 73.1624
L65.8257 73.2101
" />
<path d="M65.8257 73.2101
L65.8733 73.3053
" />
<path d="M65.8733 73.3053
L65.8733 73.4482
" />
<path d="M65.8733 73.4482
L65.8257 73.5434
" />
<path d="M65.8257 73.5434
L65.7781 73.5910
" />
<path d="M65.7781 73.5910
L65.6829 73.6386
" />
<path d="M65.6829 73.6386
L65.3019 73.6386
" />
<path d="M66.7305 73.4482
L66.7305 74.1148
" />
<path d="M66.4924 73.0672
L66.2543 73.7815
" />
<path d="M66.2543 73.7815
L66.8733 73.7815
" />
</g><text x="81.2800" y="99.7800"
textLength="1.9643" font-size="1.3333" lengthAdjust="spacingAndGlyphs"
text-anchor="middle" opacity="0">J4</text>
<g class="stroked-text"><desc>J4</desc>
<path d="M80.9467 98.7348
L80.9467 99.4491
" />
<path d="M80.9467 99.4491
L80.8990 99.5920
" />
<path d="M80.8990 99.5920
L80.8038 99.6872
" />
<path d="M80.8038 99.6872
L80.6610 99.7348
" />
<path d="M80.6610 99.7348
L80.5657 99.7348
" />
<path d="M81.8514 99.0682
L81.8514 99.7348
" />
<path d="M81.6133 98.6872
L81.3752 99.4015
" />
<path d="M81.3752 99.4015
L81.9943 99.4015
" />
</g><text x="81.2800" y="120.1000"
textLength="1.9643" font-size="1.3333" lengthAdjust="spacingAndGlyphs"
text-anchor="middle" opacity="0">J5</text>
<g class="stroked-text"><desc>J5</desc>
<path d="M80.9467 119.0548
L80.9467 119.7691
" />
<path d="M80.9467 119.7691
L80.8990 119.9120
" />
<path d="M80.8990 119.9120
L80.8038 120.0072
" />
<path d="M80.8038 120.0072
L80.6610 120.0548
" />
<path d="M80.6610 120.0548
L80.5657 120.0548
" />
<path d="M81.8990 119.0548
L81.4229 119.0548
" />
<path d="M81.4229 119.0548
L81.3752 119.5310
" />
<path d="M81.3752 119.5310
L81.4229 119.4834
" />
<path d="M81.4229 119.4834
L81.5181 119.4358
" />
<path d="M81.5181 119.4358
L81.7562 119.4358
" />
<path d="M81.7562 119.4358
L81.8514 119.4834
" />
<path d="M81.8514 119.4834
L81.8990 119.5310
" />
<path d="M81.8990 119.5310
L81.9467 119.6262
" />
<path d="M81.9467 119.6262
L81.9467 119.8643
" />
<path d="M81.9467 119.8643
L81.8990 119.9596
" />
<path d="M81.8990 119.9596
L81.8514 120.0072
" />
<path d="M81.8514 120.0072
L81.7562 120.0548
" />
<path d="M81.7562 120.0548
L81.5181 120.0548
" />
<path d="M81.5181 120.0548
L81.4229 120.0072
" />
<path d="M81.4229 120.0072
L81.3752 119.9596
" />
</g><text x="81.2800" y="79.4600"
textLength="1.9643" font-size="1.3333" lengthAdjust="spacingAndGlyphs"
text-anchor="middle" opacity="0">J6</text>
<g class="stroked-text"><desc>J6</desc>
<path d="M80.9467 78.4148
L80.9467 79.1291
" />
<path d="M80.9467 79.1291
L80.8990 79.2720
" />
<path d="M80.8990 79.2720
L80.8038 79.3672
" />
<path d="M80.8038 79.3672
L80.6610 79.4148
" />
<path d="M80.6610 79.4148
L80.5657 79.4148
" />
<path d="M81.8514 78.4148
L81.6610 78.4148
" />
<path d="M81.6610 78.4148
L81.5657 78.4624
" />
<path d="M81.5657 78.4624
L81.5181 78.5101
" />
<path d="M81.5181 78.5101
L81.4229 78.6529
" />
<path d="M81.4229 78.6529
L81.3752 78.8434
" />
<path d="M81.3752 78.8434
L81.3752 79.2243
" />
<path d="M81.3752 79.2243
L81.4229 79.3196
" />
<path d="M81.4229 79.3196
L81.4705 79.3672
" />
<path d="M81.4705 79.3672
L81.5657 79.4148
" />
<path d="M81.5657 79.4148
L81.7562 79.4148
" />
<path d="M81.7562 79.4148
L81.8514 79.3672
" />
<path d="M81.8514 79.3672
L81.8990 79.3196
" />
<path d="M81.8990 79.3196
L81.9467 79.2243
" />
<path d="M81.9467 79.2243
L81.9467 78.9862
" />
<path d="M81.9467 78.9862
L81.8990 78.8910
" />
<path d="M81.8990 78.8910
L81.8514 78.8434
" />
<path d="M81.8514 78.8434
L81.7562 78.7958
" />
<path d="M81.7562 78.7958
L81.5657 78.7958
" />
<path d="M81.5657 78.7958
L81.4705 78.8434
" />
<path d="M81.4705 78.8434
L81.4229 78.8910
" />
<path d="M81.4229 78.8910
L81.3752 78.9862
" />
</g><text x="72.1050" y="156.9650"
textLength="6.2024" font-size="1.3333" lengthAdjust="spacingAndGlyphs"
text-anchor="start" opacity="0">MODULE</text>
<g class="stroked-text"><desc>MODULE</desc>
<path d="M72.4418 156.9273
L72.4418 156.1273
" />
<path d="M72.4418 156.1273
L72.7751 156.6987
" />
<path d="M72.7751 156.6987
L73.1084 156.1273
" />
<path d="M73.1084 156.1273
L73.1084 156.9273
" />
<path d="M73.7751 156.1273
L73.9656 156.1273
" />
<path d="M73.9656 156.1273
L74.0608 156.1654
" />
<path d="M74.0608 156.1654
L74.1561 156.2416
" />
<path d="M74.1561 156.2416
L74.2037 156.3940
" />
<path d="M74.2037 156.3940
L74.2037 156.6606
" />
<path d="M74.2037 156.6606
L74.1561 156.8130
" />
<path d="M74.1561 156.8130
L74.0608 156.8892
" />
<path d="M74.0608 156.8892
L73.9656 156.9273
" />
<path d="M73.9656 156.9273
L73.7751 156.9273
" />
<path d="M73.7751 156.9273
L73.6799 156.8892
" />
<path d="M73.6799 156.8892
L73.5846 156.8130
" />
<path d="M73.5846 156.8130
L73.5370 156.6606
" />
<path d="M73.5370 156.6606
L73.5370 156.3940
" />
<path d="M73.5370 156.3940
L73.5846 156.2416
" />
<path d="M73.5846 156.2416
L73.6799 156.1654
" />
<path d="M73.6799 156.1654
L73.7751 156.1273
" />
<path d="M74.6323 156.9273
L74.6323 156.1273
" />
<path d="M74.6323 156.1273
L74.8704 156.1273
" />
<path d="M74.8704 156.1273
L75.0132 156.1654
" />
<path d="M75.0132 156.1654
L75.1084 156.2416
" />
<path d="M75.1084 156.2416
L75.1561 156.3178
" />
<path d="M75.1561 156.3178
L75.2037 156.4702
" />
<path d="M75.2037 156.4702
L75.2037 156.5844
" />
<path d="M75.2037 156.5844
L75.1561 156.7368
" />
<path d="M75.1561 156.7368
L75.1084 156.8130
" />
<path d="M75.1084 156.8130
L75.0132 156.8892
" />
<path d="M75.0132 156.8892
L74.8704 156.9273
" />
<path d="M74.8704 156.9273
L74.6323 156.9273
" />
<path d="M75.6323 156.1273
L75.6323 156.7749
" />
<path d="M75.6323 156.7749
L75.6799 156.8511
" />
<path d="M75.6799 156.8511
L75.7275 156.8892
" />
<path d="M75.7275 156.8892
L75.8227 156.9273
" />
<path d="M75.8227 156.9273
L76.0132 156.9273
" />
<path d="M76.0132 156.9273
L76.1084 156.8892
" />
<path d="M76.1084 156.8892
L76.1561 156.8511
" />
<path d="M76.1561 156.8511
L76.2037 156.7749
" />
<path d="M76.2037 156.7749
L76.2037 156.1273
" />
<path d="M77.1561 156.9273
L76.6799 156.9273
" />
<path d="M76.6799 156.9273
L76.6799 156.1273
" />
<path d="M77.4894 156.5082
L77.8227 156.5082
" />
<path d="M77.9656 156.9273
L77.4894 156.9273
" />
<path d="M77.4894 156.9273
L77.4894 156.1273
" />
<path d="M77.4894 156.1273
L77.9656 156.1273
" />
</g><text x="89.4450" y="156.9950"
textLength="3.1548" font-size="1.3333" lengthAdjust="spacingAndGlyphs"
text-anchor="end" opacity="0">R01</text>
<g class="stroked-text"><desc>R01</desc>
<path d="M87.2511 156.9573
L86.9177 156.5763
" />
<path d="M86.6796 156.9573
L86.6796 156.1573
" />
<path d="M86.6796 156.1573
L87.0606 156.1573
" />
<path d="M87.0606 156.1573
L87.1558 156.1954
" />
<path d="M87.1558 156.1954
L87.2035 156.2335
" />
<path d="M87.2035 156.2335
L87.2511 156.3097
" />
<path d="M87.2511 156.3097
L87.2511 156.4240
" />
<path d="M87.2511 156.4240
L87.2035 156.5002
" />
<path d="M87.2035 156.5002
L87.1558 156.5382
" />
<path d="M87.1558 156.5382
L87.0606 156.5763
" />
<path d="M87.0606 156.5763
L86.6796 156.5763
" />
<path d="M87.8701 156.1573
L87.9654 156.1573
" />
<path d="M87.9654 156.1573
L88.0606 156.1954
" />
<path d="M88.0606 156.1954
L88.1082 156.2335
" />
<path d="M88.1082 156.2335
L88.1558 156.3097
" />
<path d="M88.1558 156.3097
L88.2035 156.4621
" />
<path d="M88.2035 156.4621
L88.2035 156.6525
" />
<path d="M88.2035 156.6525
L88.1558 156.8049
" />
<path d="M88.1558 156.8049
L88.1082 156.8811
" />
<path d="M88.1082 156.8811
L88.0606 156.9192
" />
<path d="M88.0606 156.9192
L87.9654 156.9573
" />
<path d="M87.9654 156.9573
L87.8701 156.9573
" />
<path d="M87.8701 156.9573
L87.7749 156.9192
" />
<path d="M87.7749 156.9192
L87.7273 156.8811
" />
<path d="M87.7273 156.8811
L87.6796 156.8049
" />
<path d="M87.6796 156.8049
L87.6320 156.6525
" />
<path d="M87.6320 156.6525
L87.6320 156.4621
" />
<path d="M87.6320 156.4621
L87.6796 156.3097
" />
<path d="M87.6796 156.3097
L87.7273 156.2335
" />
<path d="M87.7273 156.2335
L87.7749 156.1954
" />
<path d="M87.7749 156.1954
L87.8701 156.1573
" />
<path d="M89.1558 156.9573
L88.5844 156.9573
" />
<path d="M88.8701 156.9573
L88.8701 156.1573
" />
<path d="M88.8701 156.1573
L88.7749 156.2716
" />
<path d="M88.7749 156.2716
L88.6796 156.3478
" />
<path d="M88.6796 156.3478
L88.5844 156.3859
" />
</g></g>
<g style="fill:#000000; fill-opacity:0.0; 
stroke:#000000; stroke-width:0.3000; stroke-opacity:1; 
stroke-linecap:round; stroke-linejoin:round;">
<text x="80.6450" y="155.3090"
textLength="18.0238" font-size="2.6667" lengthAdjust="spacingAndGlyphs"
text-anchor="middle" opacity="0">elektrophon</text>
<g class="stroked-text"><desc>elektrophon</desc>
<path d="M73.1212 155.1659
L72.9218 155.2373
" />
<path d="M72.9218 155.2373
L72.5408 155.2373
" />
<path d="M72.5408 155.2373
L72.3593 155.1659
" />
<path d="M72.3593 155.1659
L72.2819 155.0230
" />
<path d="M72.2819 155.0230
L72.3533 154.4516
" />
<path d="M72.3533 154.4516
L72.4664 154.3088
" />
<path d="M72.4664 154.3088
L72.6658 154.2373
" />
<path d="M72.6658 154.2373
L73.0468 154.2373
" />
<path d="M73.0468 154.2373
L73.2283 154.3088
" />
<path d="M73.2283 154.3088
L73.3057 154.4516
" />
<path d="M73.3057 154.4516
L73.2879 154.5945
" />
<path d="M73.2879 154.5945
L72.3176 154.7373
" />
<path d="M74.3504 155.2373
L74.1688 155.1659
" />
<path d="M74.1688 155.1659
L74.0914 155.0230
" />
<path d="M74.0914 155.0230
L74.2521 153.7373
" />
<path d="M75.8831 155.1659
L75.6837 155.2373
" />
<path d="M75.6837 155.2373
L75.3027 155.2373
" />
<path d="M75.3027 155.2373
L75.1212 155.1659
" />
<path d="M75.1212 155.1659
L75.0438 155.0230
" />
<path d="M75.0438 155.0230
L75.1152 154.4516
" />
<path d="M75.1152 154.4516
L75.2283 154.3088
" />
<path d="M75.2283 154.3088
L75.4277 154.2373
" />
<path d="M75.4277 154.2373
L75.8087 154.2373
" />
<path d="M75.8087 154.2373
L75.9902 154.3088
" />
<path d="M75.9902 154.3088
L76.0676 154.4516
" />
<path d="M76.0676 154.4516
L76.0498 154.5945
" />
<path d="M76.0498 154.5945
L75.0795 154.7373
" />
<path d="M76.8265 155.2373
L77.0140 153.7373
" />
<path d="M77.0885 154.6659
L77.5885 155.2373
" />
<path d="M77.7135 154.2373
L76.8801 154.8088
" />
<path d="M78.2849 154.2373
L79.0468 154.2373
" />
<path d="M78.6331 153.7373
L78.4724 155.0230
" />
<path d="M78.4724 155.0230
L78.5498 155.1659
" />
<path d="M78.5498 155.1659
L78.7313 155.2373
" />
<path d="M78.7313 155.2373
L78.9218 155.2373
" />
<path d="M79.5885 155.2373
L79.7135 154.2373
" />
<path d="M79.6777 154.5230
L79.7908 154.3802
" />
<path d="M79.7908 154.3802
L79.8950 154.3088
" />
<path d="M79.8950 154.3088
L80.0944 154.2373
" />
<path d="M80.0944 154.2373
L80.2849 154.2373
" />
<path d="M81.1123 155.2373
L80.9307 155.1659
" />
<path d="M80.9307 155.1659
L80.8444 155.0945
" />
<path d="M80.8444 155.0945
L80.7670 154.9516
" />
<path d="M80.7670 154.9516
L80.8206 154.5230
" />
<path d="M80.8206 154.5230
L80.9337 154.3802
" />
<path d="M80.9337 154.3802
L81.0379 154.3088
" />
<path d="M81.0379 154.3088
L81.2373 154.2373
" />
<path d="M81.2373 154.2373
L81.5230 154.2373
" />
<path d="M81.5230 154.2373
L81.7045 154.3088
" />
<path d="M81.7045 154.3088
L81.7908 154.3802
" />
<path d="M81.7908 154.3802
L81.8682 154.5230
" />
<path d="M81.8682 154.5230
L81.8146 154.9516
" />
<path d="M81.8146 154.9516
L81.7015 155.0945
" />
<path d="M81.7015 155.0945
L81.5974 155.1659
" />
<path d="M81.5974 155.1659
L81.3980 155.2373
" />
<path d="M81.3980 155.2373
L81.1123 155.2373
" />
<path d="M82.7611 154.2373
L82.5736 155.7373
" />
<path d="M82.7521 154.3088
L82.9515 154.2373
" />
<path d="M82.9515 154.2373
L83.3325 154.2373
" />
<path d="M83.3325 154.2373
L83.5140 154.3088
" />
<path d="M83.5140 154.3088
L83.6004 154.3802
" />
<path d="M83.6004 154.3802
L83.6777 154.5230
" />
<path d="M83.6777 154.5230
L83.6242 154.9516
" />
<path d="M83.6242 154.9516
L83.5111 155.0945
" />
<path d="M83.5111 155.0945
L83.4069 155.1659
" />
<path d="M83.4069 155.1659
L83.2075 155.2373
" />
<path d="M83.2075 155.2373
L82.8265 155.2373
" />
<path d="M82.8265 155.2373
L82.6450 155.1659
" />
<path d="M84.4456 155.2373
L84.6331 153.7373
" />
<path d="M85.3027 155.2373
L85.4010 154.4516
" />
<path d="M85.4010 154.4516
L85.3236 154.3088
" />
<path d="M85.3236 154.3088
L85.1420 154.2373
" />
<path d="M85.1420 154.2373
L84.8563 154.2373
" />
<path d="M84.8563 154.2373
L84.6569 154.3088
" />
<path d="M84.6569 154.3088
L84.5527 154.3802
" />
<path d="M86.5408 155.2373
L86.3593 155.1659
" />
<path d="M86.3593 155.1659
L86.2730 155.0945
" />
<path d="M86.2730 155.0945
L86.1956 154.9516
" />
<path d="M86.1956 154.9516
L86.2492 154.5230
" />
<path d="M86.2492 154.5230
L86.3623 154.3802
" />
<path d="M86.3623 154.3802
L86.4664 154.3088
" />
<path d="M86.4664 154.3088
L86.6658 154.2373
" />
<path d="M86.6658 154.2373
L86.9515 154.2373
" />
<path d="M86.9515 154.2373
L87.1331 154.3088
" />
<path d="M87.1331 154.3088
L87.2194 154.3802
" />
<path d="M87.2194 154.3802
L87.2968 154.5230
" />
<path d="M87.2968 154.5230
L87.2432 154.9516
" />
<path d="M87.2432 154.9516
L87.1301 155.0945
" />
<path d="M87.1301 155.0945
L87.0260 155.1659
" />
<path d="M87.0260 155.1659
L86.8265 155.2373
" />
<path d="M86.8265 155.2373
L86.5408 155.2373
" />
<path d="M88.1896 154.2373
L88.0646 155.2373
" />
<path d="M88.1718 154.3802
L88.2760 154.3088
" />
<path d="M88.2760 154.3088
L88.4754 154.2373
" />
<path d="M88.4754 154.2373
L88.7611 154.2373
" />
<path d="M88.7611 154.2373
L88.9426 154.3088
" />
<path d="M88.9426 154.3088
L89.0200 154.4516
" />
<path d="M89.0200 154.4516
L88.9218 155.2373
" />
</g></g>
<g style="fill:#000000; fill-opacity:0.0; 
stroke:#000000; stroke-width:0.1200; stroke-opacity:1; 
stroke-linecap:round; stroke-linejoin:round;">
<path d="M61.9400 85.1240
L61.9400 85.2800
" />
<path d="M61.9400 87.4400
L61.9400 87.5960
" />
<path d="M65.1723 85.2814 A1.9900 1.9900 0.0 0 0 61.9400 85.1245" />
<path d="M64.5411 85.2802 A1.5000 1.5000 0.0 0 0 62.4590 85.2800" />
<path d="M62.4590 87.4400 A1.5000 1.5000 0.0 0 0 64.5411 87.4398" />
<path d="M61.9400 87.5955 A1.9900 1.9900 0.0 0 0 65.1723 87.4386" />
<path d="M61.9400 105.4440
L61.9400 105.6000
" />
<path d="M61.9400 107.7600
L61.9400 107.9160
" />
<path d="M65.1723 105.6014 A1.9900 1.9900 0.0 0 0 61.9400 105.4445" />
<path d="M64.5411 105.6002 A1.5000 1.5000 0.0 0 0 62.4590 105.6000" />
<path d="M62.4590 107.7600 A1.5000 1.5000 0.0 0 0 64.5411 107.7598" />
<path d="M61.9400 107.9155 A1.9900 1.9900 0.0 0 0 65.1723 107.7586" />
<path d="M61.9400 125.7640
L61.9400 125.9200
" />
<path d="M61.9400 128.0800
L61.9400 128.2360
" />
<path d="M65.1723 125.9214 A1.9900 1.9900 0.0 0 0 61.9400 125.7645" />
<path d="M64.5411 125.9202 A1.5000 1.5000 0.0 0 0 62.4590 125.9200" />
<path d="M62.4590 128.0800 A1.5000 1.5000 0.0 0 0 64.5411 128.0798" />
<path d="M61.9400 128.2355 A1.9900 1.9900 0.0 0 0 65.1723 128.0786" />
<path d="M61.9400 64.8040
L61.9400 64.9600
" />
<path d="M61.9400 67.1200
L61.9400 67.2760
" />
<path d="M65.1723 64.9614 A1.9900 1.9900 0.0 0 0 61.9400 64.8045" />
<path d="M64.5411 64.9602 A1.5000 1.5000 0.0 0 0 62.4590 64.9600" />
<path d="M62.4590 67.1200 A1.5000 1.5000 0.0 0 0 64.5411 67.1198" />
<path d="M61.9400 67.2755 A1.9900 1.9900 0.0 0 0 65.1723 67.1186" />
<path d="M65.5400 153.2700
L66.5400 153.2700
" />
<path d="M66.5400 153.2700
L66.0400 152.2700
" />
<path d="M66.0400 152.2700
L65.5400 153.2700
" />
<path d="M60.8300 151.8800
L60.8300 142.7600
" />
<path d="M69.0700 151.8800
L69.0700 150.5700
" />
<path d="M81.4100 151.8800
L60.8300 151.8800
" />
<path d="M62.1300 150.5700
L62.1300 144.0700
" />
<path d="M69.0700 150.5700
L62.1300 150.5700
" />
<path d="M73.1700 150.5700
L73.1700 151.8800
" />
</g>
<g style="fill:#000000; fill-opacity:1.0000; 
stroke:#000000; stroke-width:0.0000; stroke-opacity:1; 
stroke-linecap:round; stroke-linejoin:round;">
<circle cx="73.1700" cy="150.5700" r="0.0600" /> 
</g>
<g style="fill:#000000; fill-opacity:1.0000; 
stroke:#000000; stroke-width:0.1200; stroke-opacity:1; 
stroke-linecap:round; stroke-linejoin:round;">
</g>
<g style="fill:#000000; fill-opacity:0.0; 
stroke:#000000; stroke-width:0.1200; stroke-opacity:1; 
stroke-linecap:round; stroke-linejoin:round;">
<path d="M80.1100 150.5700
L73.1700 150.5700
" />
<path d="M62.1300 144.0700
L80.1100 144.0700
" />
<path d="M80.1100 144.0700
L80.1100 150.5700
" />
<path d="M60.8300 142.7600
L81.4100 142.7600
" />
<path d="M81.4100 142.7600
L81.4100 151.8800
" />
<path d="M62.0000 91.4400
L62.7700 91.4400
" />
<path d="M62.7700 90.0700
L62.7700 92.8100
" />
<path d="M62.7700 92.8100
L69.3100 92.8100
" />
<path d="M69.3100 90.0700
L62.7700 90.0700
" />
<path d="M69.3100 92.8100
L69.3100 90.0700
" />
<path d="M70.0800 91.4400
L69.3100 91.4400
" />
<path d="M62.0000 111.7600
L62.7700 111.7600
" />
<path d="M62.7700 110.3900
L62.7700 113.1300
" />
<path d="M62.7700 113.1300
L69.3100 113.1300
" />
<path d="M69.3100 110.3900
L62.7700 110.3900
" />
<path d="M69.3100 113.1300
L69.3100 110.3900
" />
<path d="M70.0800 111.7600
L69.3100 111.7600
" />
<path d="M62.0000 132.0800
L62.7700 132.0800
" />
<path d="M62.7700 130.7100
L62.7700 133.4500
" />
<path d="M62.7700 133.4500
L69.3100 133.4500
" />
<path d="M69.3100 130.7100
L62.7700 130.7100
" />
<path d="M69.3100 133.4500
L69.3100 130.7100
" />
<path d="M70.0800 132.0800
L69.3100 132.0800
" />
<path d="M62.0000 71.1200
L62.7700 71.1200
" />
<path d="M62.7700 69.7500
L62.7700 72.4900
" />
<path d="M62.7700 72.4900
L69.3100 72.4900
" />
<path d="M69.3100 69.7500
L62.7700 69.7500
" />
<path d="M69.3100 72.4900
L69.3100 69.7500
" />
<path d="M70.0800 71.1200
L69.3100 71.1200
" />
<g >
</g>
<g >
</g>
<g >
</g>
<g >
</g>
<g >
</g>
<g >
</g>
<g >
</g>
<g >
</g>
<g >
</g>
<g >
</g>
<g >
</g>
<g >
</g>
<g >
</g>
<g >
</g>
<g >
</g>
<g >
</g>
<g >
</g>
<g >
</g>
</g>
<g style="fill:#FFFFFF; fill-opacity:0.0; 
stroke:#FFFFFF; stroke-width:0.1200; stroke-opacity:1; 
stroke-linecap:round; stroke-linejoin:round;">
</g>
<g style="fill:#FFFFFF; fill-opacity:1.0000; 
stroke:#FFFFFF; stroke-width:0.0000; stroke-opacity:1; 
stroke-linecap:round; stroke-linejoin:round;">
<circle cx="62.2300" cy="86.3600" r="0.1750" /> 
</g>
<g style="fill:#FFFFFF; fill-opacity:1.0000; 
stroke:#FFFFFF; stroke-width:0.0212; stroke-opacity:1; 
stroke-linecap:round; stroke-linejoin:round;">
</g>
<g style="fill:#FFFFFF; fill-opacity:1.0000; 
stroke:#FFFFFF; stroke-width:0.0000; stroke-opacity:1; 
stroke-linecap:round; stroke-linejoin:round;">
<circle cx="64.7700" cy="86.3600" r="0.1750" /> 
</g>
<g style="fill:#FFFFFF; fill-opacity:1.0000; 
stroke:#FFFFFF; stroke-width:0.0212; stroke-opacity:1; 
stroke-linecap:round; stroke-linejoin:round;">
</g>
<g style="fill:#FFFFFF; fill-opacity:1.0000; 
stroke:#FFFFFF; stroke-width:0.0000; stroke-opacity:1; 
stroke-linecap:round; stroke-linejoin:round;">
<circle cx="62.2300" cy="106.6800" r="0.1750" /> 
</g>
<g style="fill:#FFFFFF; fill-opacity:1.0000; 
stroke:#FFFFFF; stroke-width:0.0212; stroke-opacity:1; 
stroke-linecap:round; stroke-linejoin:round;">
</g>
<g style="fill:#FFFFFF; fill-opacity:1.0000; 
stroke:#FFFFFF; stroke-width:0.0000; stroke-opacity:1; 
stroke-linecap:round; stroke-linejoin:round;">
<circle cx="64.7700" cy="106.6800" r="0.1750" /> 
</g>
<g style="fill:#FFFFFF; fill-opacity:1.0000; 
stroke:#FFFFFF; stroke-width:0.0212; stroke-opacity:1; 
stroke-linecap:round; stroke-linejoin:round;">
</g>
<g style="fill:#FFFFFF; fill-opacity:1.0000; 
stroke:#FFFFFF; stroke-width:0.0000; stroke-opacity:1; 
stroke-linecap:round; stroke-linejoin:round;">
<circle cx="62.2300" cy="127.0000" r="0.1750" /> 
</g>
<g style="fill:#FFFFFF; fill-opacity:1.0000; 
stroke:#FFFFFF; stroke-width:0.0212; stroke-opacity:1; 
stroke-linecap:round; stroke-linejoin:round;">
</g>
<g style="fill:#FFFFFF; fill-opacity:1.0000; 
stroke:#FFFFFF; stroke-width:0.0000; stroke-opacity:1; 
stroke-linecap:round; stroke-linejoin:round;">
<circle cx="64.7700" cy="127.0000" r="0.1750" /> 
</g>
<g style="fill:#FFFFFF; fill-opacity:1.0000; 
stroke:#FFFFFF; stroke-width:0.0212; stroke-opacity:1; 
stroke-linecap:round; stroke-linejoin:round;">
</g>
<g style="fill:#FFFFFF; fill-opacity:1.0000; 
stroke:#FFFFFF; stroke-width:0.0000; stroke-opacity:1; 
stroke-linecap:round; stroke-linejoin:round;">
<circle cx="62.2300" cy="66.0400" r="0.1750" /> 
</g>
<g style="fill:#FFFFFF; fill-opacity:1.0000; 
stroke:#FFFFFF; stroke-width:0.0212; stroke-opacity:1; 
stroke-linecap:round; stroke-linejoin:round;">
</g>
<g style="fill:#FFFFFF; fill-opacity:1.0000; 
stroke:#FFFFFF; stroke-width:0.0000; stroke-opacity:1; 
stroke-linecap:round; stroke-linejoin:round;">
<circle cx="64.7700" cy="66.0400" r="0.1750" /> 
</g>
<g style="fill:#FFFFFF; fill-opacity:1.0000; 
stroke:#FFFFFF; stroke-width:0.0212; stroke-opacity:1; 
stroke-linecap:round; stroke-linejoin:round;">
</g>
<g style="fill:#FFFFFF; fill-opacity:1.0000; 
stroke:#FFFFFF; stroke-width:0.0000; stroke-opacity:1; 
stroke-linecap:round; stroke-linejoin:round;">
<circle cx="66.0400" cy="148.5900" r="0.1750" /> 
</g>
<g style="fill:#FFFFFF; fill-opacity:1.0000; 
stroke:#FFFFFF; stroke-width:0.0212; stroke-opacity:1; 
stroke-linecap:round; stroke-linejoin:round;">
</g>
<g style="fill:#FFFFFF; fill-opacity:1.0000; 
stroke:#FFFFFF; stroke-width:0.0000; stroke-opacity:1; 
stroke-linecap:round; stroke-linejoin:round;">
<circle cx="66.0400" cy="146.0500" r="0.1750" /> 
</g>
<g style="fill:#FFFFFF; fill-opacity:1.0000; 
stroke:#FFFFFF; stroke-width:0.0212; stroke-opacity:1; 
stroke-linecap:round; stroke-linejoin:round;">
</g>
<g style="fill:#FFFFFF; fill-opacity:1.0000; 
stroke:#FFFFFF; stroke-width:0.0000; stroke-opacity:1; 
stroke-linecap:round; stroke-linejoin:round;">
<circle cx="68.5800" cy="148.5900" r="0.1750" /> 
</g>
<g style="fill:#FFFFFF; fill-opacity:1.0000; 
stroke:#FFFFFF; stroke-width:0.0212; stroke-opacity:1; 
stroke-linecap:round; stroke-linejoin:round;">
</g>
<g style="fill:#FFFFFF; fill-opacity:1.0000; 
stroke:#FFFFFF; stroke-width:0.0000; stroke-opacity:1; 
stroke-linecap:round; stroke-linejoin:round;">
<circle cx="68.5800" cy="146.0500" r="0.1750" /> 
</g>
<g style="fill:#FFFFFF; fill-opacity:1.0000; 
stroke:#FFFFFF; stroke-width:0.0212; stroke-opacity:1; 
stroke-linecap:round; stroke-linejoin:round;">
</g>
<g style="fill:#FFFFFF; fill-opacity:1.0000; 
stroke:#FFFFFF; stroke-width:0.0000; stroke-opacity:1; 
stroke-linecap:round; stroke-linejoin:round;">
<circle cx="71.1200" cy="148.5900" r="0.1750" /> 
</g>
<g style="fill:#FFFFFF; fill-opacity:1.0000; 
stroke:#FFFFFF; stroke-width:0.0212; stroke-opacity:1; 
stroke-linecap:round; stroke-linejoin:round;">
</g>
<g style="fill:#FFFFFF; fill-opacity:1.0000; 
stroke:#FFFFFF; stroke-width:0.0000; stroke-opacity:1; 
stroke-linecap:round; stroke-linejoin:round;">
<circle cx="71.1200" cy="146.0500" r="0.1750" /> 
</g>
<g style="fill:#FFFFFF; fill-opacity:1.0000; 
stroke:#FFFFFF; stroke-width:0.0212; stroke-opacity:1; 
stroke-linecap:round; stroke-linejoin:round;">
</g>
<g style="fill:#FFFFFF; fill-opacity:1.0000; 
stroke:#FFFFFF; stroke-width:0.0000; stroke-opacity:1; 
stroke-linecap:round; stroke-linejoin:round;">
<circle cx="73.6600" cy="148.5900" r="0.1750" /> 
</g>
<g style="fill:#FFFFFF; fill-opacity:1.0000; 
stroke:#FFFFFF; stroke-width:0.0212; stroke-opacity:1; 
stroke-linecap:round; stroke-linejoin:round;">
</g>
<g style="fill:#FFFFFF; fill-opacity:1.0000; 
stroke:#FFFFFF; stroke-width:0.0000; stroke-opacity:1; 
stroke-linecap:round; stroke-linejoin:round;">
<circle cx="73.6600" cy="146.0500" r="0.1750" /> 
</g>
<g style="fill:#FFFFFF; fill-opacity:1.0000; 
stroke:#FFFFFF; stroke-width:0.0212; stroke-opacity:1; 
stroke-linecap:round; stroke-linejoin:round;">
</g>
<g style="fill:#FFFFFF; fill-opacity:1.0000; 
stroke:#FFFFFF; stroke-width:0.0000; stroke-opacity:1; 
stroke-linecap:round; stroke-linejoin:round;">
<circle cx="76.2000" cy="148.5900" r="0.1750" /> 
</g>
<g style="fill:#FFFFFF; fill-opacity:1.0000; 
stroke:#FFFFFF; stroke-width:0.0212; stroke-opacity:1; 
stroke-linecap:round; stroke-linejoin:round;">
</g>
<g style="fill:#FFFFFF; fill-opacity:1.0000; 
stroke:#FFFFFF; stroke-width:0.0000; stroke-opacity:1; 
stroke-linecap:round; stroke-linejoin:round;">
<circle cx="76.2000" cy="146.0500" r="0.1750" /> 
</g>
<g style="fill:#FFFFFF; fill-opacity:1.0000; 
stroke:#FFFFFF; stroke-width:0.0212; stroke-opacity:1; 
stroke-linecap:round; stroke-linejoin:round;">
</g>
<g style="fill:#FFFFFF; fill-opacity:1.0000; 
stroke:#FFFFFF; stroke-width:0.0000; stroke-opacity:1; 
stroke-linecap:round; stroke-linejoin:round;">
<circle cx="81.2800" cy="66.0400" r="0.1750" /> 
</g>
<g style="fill:#FFFFFF; fill-opacity:1.0000; 
stroke:#FFFFFF; stroke-width:0.0212; stroke-opacity:1; 
stroke-linecap:round; stroke-linejoin:round;">
</g>
<g style="fill:#FFFFFF; fill-opacity:1.0000; 
stroke:#FFFFFF; stroke-width:0.0000; stroke-opacity:1; 
stroke-linecap:round; stroke-linejoin:round;">
<circle cx="60.9600" cy="91.4400" r="0.1750" /> 
</g>
<g style="fill:#FFFFFF; fill-opacity:1.0000; 
stroke:#FFFFFF; stroke-width:0.0212; stroke-opacity:1; 
stroke-linecap:round; stroke-linejoin:round;">
</g>
<g style="fill:#FFFFFF; fill-opacity:1.0000; 
stroke:#FFFFFF; stroke-width:0.0000; stroke-opacity:1; 
stroke-linecap:round; stroke-linejoin:round;">
<circle cx="71.1200" cy="91.4400" r="0.1750" /> 
</g>
<g style="fill:#FFFFFF; fill-opacity:1.0000; 
stroke:#FFFFFF; stroke-width:0.0212; stroke-opacity:1; 
stroke-linecap:round; stroke-linejoin:round;">
</g>
<g style="fill:#FFFFFF; fill-opacity:1.0000; 
stroke:#FFFFFF; stroke-width:0.0000; stroke-opacity:1; 
stroke-linecap:round; stroke-linejoin:round;">
<circle cx="60.9600" cy="111.7600" r="0.1750" /> 
</g>
<g style="fill:#FFFFFF; fill-opacity:1.0000; 
stroke:#FFFFFF; stroke-width:0.0212; stroke-opacity:1; 
stroke-linecap:round; stroke-linejoin:round;">
</g>
<g style="fill:#FFFFFF; fill-opacity:1.0000; 
stroke:#FFFFFF; stroke-width:0.0000; stroke-opacity:1; 
stroke-linecap:round; stroke-linejoin:round;">
<circle cx="71.1200" cy="111.7600" r="0.1750" /> 
</g>
<g style="fill:#FFFFFF; fill-opacity:1.0000; 
stroke:#FFFFFF; stroke-width:0.0212; stroke-opacity:1; 
stroke-linecap:round; stroke-linejoin:round;">
</g>
<g style="fill:#FFFFFF; fill-opacity:1.0000; 
stroke:#FFFFFF; stroke-width:0.0000; stroke-opacity:1; 
stroke-linecap:round; stroke-linejoin:round;">
<circle cx="60.9600" cy="132.0800" r="0.1750" /> 
</g>
<g style="fill:#FFFFFF; fill-opacity:1.0000; 
stroke:#FFFFFF; stroke-width:0.0212; stroke-opacity:1; 
stroke-linecap:round; stroke-linejoin:round;">
</g>
<g style="fill:#FFFFFF; fill-opacity:1.0000; 
stroke:#FFFFFF; stroke-width:0.0000; stroke-opacity:1; 
stroke-linecap:round; stroke-linejoin:round;">
<circle cx="71.1200" cy="132.0800" r="0.1750" /> 
</g>
<g style="fill:#FFFFFF; fill-opacity:1.0000; 
stroke:#FFFFFF; stroke-width:0.0212; stroke-opacity:1; 
stroke-linecap:round; stroke-linejoin:round;">
</g>
<g style="fill:#FFFFFF; fill-opacity:1.0000; 
stroke:#FFFFFF; stroke-width:0.0000; stroke-opacity:1; 
stroke-linecap:round; stroke-linejoin:round;">
<circle cx="60.9600" cy="71.1200" r="0.1750" /> 
</g>
<g style="fill:#FFFFFF; fill-opacity:1.0000; 
stroke:#FFFFFF; stroke-width:0.0212; stroke-opacity:1; 
stroke-linecap:round; stroke-linejoin:round;">
</g>
<g style="fill:#FFFFFF; fill-opacity:1.0000; 
stroke:#FFFFFF; stroke-width:0.0000; stroke-opacity:1; 
stroke-linecap:round; stroke-linejoin:round;">
<circle cx="71.1200" cy="71.1200" r="0.1750" /> 
</g>
<g style="fill:#FFFFFF; fill-opacity:1.0000; 
stroke:#FFFFFF; stroke-width:0.0212; stroke-opacity:1; 
stroke-linecap:round; stroke-linejoin:round;">
</g>
<g style="fill:#FFFFFF; fill-opacity:1.0000; 
stroke:#FFFFFF; stroke-width:0.0000; stroke-opacity:1; 
stroke-linecap:round; stroke-linejoin:round;">
<circle cx="81.2800" cy="106.6800" r="0.1750" /> 
</g>
<g style="fill:#FFFFFF; fill-opacity:1.0000; 
stroke:#FFFFFF; stroke-width:0.0212; stroke-opacity:1; 
stroke-linecap:round; stroke-linejoin:round;">
</g>
<g style="fill:#FFFFFF; fill-opacity:1.0000; 
stroke:#FFFFFF; stroke-width:0.0000; stroke-opacity:1; 
stroke-linecap:round; stroke-linejoin:round;">
<circle cx="81.2800" cy="127.0000" r="0.1750" /> 
</g>
<g style="fill:#FFFFFF; fill-opacity:1.0000; 
stroke:#FFFFFF; stroke-width:0.0212; stroke-opacity:1; 
stroke-linecap:round; stroke-linejoin:round;">
</g>
<g style="fill:#FFFFFF; fill-opacity:1.0000; 
stroke:#FFFFFF; stroke-width:0.0000; stroke-opacity:1; 
stroke-linecap:round; stroke-linejoin:round;">
<circle cx="81.2800" cy="86.3600" r="0.1750" /> 
</g>
<g style="fill:#FFFFFF; fill-opacity:1.0000; 
stroke:#FFFFFF; stroke-width:0.0212; stroke-opacity:1; 
stroke-linecap:round; stroke-linejoin:round;">
</g>
<g style="fill:#FFFFFF; fill-opacity:1.0000; 
stroke:#FFFFFF; stroke-width:0.0000; stroke-opacity:1; 
stroke-linecap:round; stroke-linejoin:round;">
<circle cx="58.4200" cy="55.8800" r="0.1750" /> 
</g>
<g style="fill:#FFFFFF; fill-opacity:1.0000; 
stroke:#FFFFFF; stroke-width:0.0212; stroke-opacity:1; 
stroke-linecap:round; stroke-linejoin:round;">
</g>
<g style="fill:#FFFFFF; fill-opacity:1.0000; 
stroke:#FFFFFF; stroke-width:0.0000; stroke-opacity:1; 
stroke-linecap:round; stroke-linejoin:round;">
<circle cx="58.4200" cy="58.4200" r="0.1750" /> 
</g>
<g style="fill:#FFFFFF; fill-opacity:1.0000; 
stroke:#FFFFFF; stroke-width:0.0212; stroke-opacity:1; 
stroke-linecap:round; stroke-linejoin:round;">
</g>
<g style="fill:#FFFFFF; fill-opacity:1.0000; 
stroke:#FFFFFF; stroke-width:0.0000; stroke-opacity:1; 
stroke-linecap:round; stroke-linejoin:round;">
<circle cx="60.9600" cy="55.8800" r="0.1750" /> 
</g>
<g style="fill:#FFFFFF; fill-opacity:1.0000; 
stroke:#FFFFFF; stroke-width:0.0212; stroke-opacity:1; 
stroke-linecap:round; stroke-linejoin:round;">
</g>
<g style="fill:#FFFFFF; fill-opacity:1.0000; 
stroke:#FFFFFF; stroke-width:0.0000; stroke-opacity:1; 
stroke-linecap:round; stroke-linejoin:round;">
<circle cx="60.9600" cy="58.4200" r="0.1750" /> 
</g>
<g style="fill:#FFFFFF; fill-opacity:1.0000; 
stroke:#FFFFFF; stroke-width:0.0212; stroke-opacity:1; 
stroke-linecap:round; stroke-linejoin:round;">
</g>
<g style="fill:#FFFFFF; fill-opacity:1.0000; 
stroke:#FFFFFF; stroke-width:0.0000; stroke-opacity:1; 
stroke-linecap:round; stroke-linejoin:round;">
<circle cx="63.5000" cy="55.8800" r="0.1750" /> 
</g>
<g style="fill:#FFFFFF; fill-opacity:1.0000; 
stroke:#FFFFFF; stroke-width:0.0212; stroke-opacity:1; 
stroke-linecap:round; stroke-linejoin:round;">
</g>
<g style="fill:#FFFFFF; fill-opacity:1.0000; 
stroke:#FFFFFF; stroke-width:0.0000; stroke-opacity:1; 
stroke-linecap:round; stroke-linejoin:round;">
<circle cx="63.5000" cy="58.4200" r="0.1750" /> 
</g>
<g style="fill:#FFFFFF; fill-opacity:1.0000; 
stroke:#FFFFFF; stroke-width:0.0212; stroke-opacity:1; 
stroke-linecap:round; stroke-linejoin:round;">
</g>
<g style="fill:#FFFFFF; fill-opacity:1.0000; 
stroke:#FFFFFF; stroke-width:0.0000; stroke-opacity:1; 
stroke-linecap:round; stroke-linejoin:round;">
<circle cx="66.0400" cy="55.8800" r="0.1750" /> 
</g>
<g style="fill:#FFFFFF; fill-opacity:1.0000; 
stroke:#FFFFFF; stroke-width:0.0212; stroke-opacity:1; 
stroke-linecap:round; stroke-linejoin:round;">
</g>
<g style="fill:#FFFFFF; fill-opacity:1.0000; 
stroke:#FFFFFF; stroke-width:0.0000; stroke-opacity:1; 
stroke-linecap:round; stroke-linejoin:round;">
<circle cx="66.0400" cy="58.4200" r="0.1750" /> 
</g>
<g style="fill:#FFFFFF; fill-opacity:1.0000; 
stroke:#FFFFFF; stroke-width:0.0212; stroke-opacity:1; 
stroke-linecap:round; stroke-linejoin:round;">
</g>
<g style="fill:#FFFFFF; fill-opacity:1.0000; 
stroke:#FFFFFF; stroke-width:0.0000; stroke-opacity:1; 
stroke-linecap:round; stroke-linejoin:round;">
<circle cx="68.5800" cy="55.8800" r="0.1750" /> 
</g>
<g style="fill:#FFFFFF; fill-opacity:1.0000; 
stroke:#FFFFFF; stroke-width:0.0212; stroke-opacity:1; 
stroke-linecap:round; stroke-linejoin:round;">
</g>
<g style="fill:#FFFFFF; fill-opacity:1.0000; 
stroke:#FFFFFF; stroke-width:0.0000; stroke-opacity:1; 
stroke-linecap:round; stroke-linejoin:round;">
<circle cx="68.5800" cy="58.4200" r="0.1750" /> 
</g>
<g style="fill:#FFFFFF; fill-opacity:1.0000; 
stroke:#FFFFFF; stroke-width:0.0212; stroke-opacity:1; 
stroke-linecap:round; stroke-linejoin:round;">
</g>
<g style="fill:#000000; fill-opacity:1.0000; 
stroke:#000000; stroke-width:0.0212; stroke-opacity:1; 
stroke-linecap:round; stroke-linejoin:round;">
</g> 
</svg>
