<?xml version="1.0" standalone="no"?>
 <!DOCTYPE svg PUBLIC "-//W3C//DTD SVG 1.1//EN" 
 "http://www.w3.org/Graphics/SVG/1.1/DTD/svg11.dtd"> 
<svg
  xmlns:svg="http://www.w3.org/2000/svg"
  xmlns="http://www.w3.org/2000/svg"
  xmlns:xlink="http://www.w3.org/1999/xlink"
  version="1.1"
  width="297.0022mm" height="210.0072mm" viewBox="0.0000 0.0000 297.0022 210.0072">
<title>SVG Image created as mount-F_CrtYd.svg date 2023/11/08 17:25:30 </title>
  <desc>Image generated by PCBNEW </desc>
<g style="fill:#000000; fill-opacity:1.0000;stroke:#000000; stroke-opacity:1.0000;
stroke-linecap:round; stroke-linejoin:round;"
 transform="translate(0 0) scale(1 1)">
</g>
<g style="fill:#000000; fill-opacity:0.0; 
stroke:#000000; stroke-width:0.0000; stroke-opacity:1; 
stroke-linecap:round; stroke-linejoin:round;">
</g>
<g style="fill:#000000; fill-opacity:0.0; 
stroke:#000000; stroke-width:0.0500; stroke-opacity:1; 
stroke-linecap:round; stroke-linejoin:round;">
<path d="M61.0800 84.1100
L61.0800 88.6100
" />
<path d="M61.0800 88.6100
L65.9300 88.6100
" />
<path d="M65.9300 84.1100
L61.0800 84.1100
" />
<path d="M65.9300 88.6100
L65.9300 84.1100
" />
<path d="M61.0800 104.4300
L61.0800 108.9300
" />
<path d="M61.0800 108.9300
L65.9300 108.9300
" />
<path d="M65.9300 104.4300
L61.0800 104.4300
" />
<path d="M65.9300 108.9300
L65.9300 104.4300
" />
<path d="M61.0800 124.7500
L61.0800 129.2500
" />
<path d="M61.0800 129.2500
L65.9300 129.2500
" />
<path d="M65.9300 124.7500
L61.0800 124.7500
" />
<path d="M65.9300 129.2500
L65.9300 124.7500
" />
<path d="M61.0800 63.7900
L61.0800 68.2900
" />
<path d="M61.0800 68.2900
L65.9300 68.2900
" />
<path d="M65.9300 63.7900
L61.0800 63.7900
" />
<path d="M65.9300 68.2900
L65.9300 63.7900
" />
<path d="M60.4400 152.2700
L81.8000 152.2700
" />
<path d="M81.8000 152.2700
L81.8000 142.3700
" />
<path d="M60.4400 142.3700
L60.4400 152.2700
" />
<path d="M81.8000 142.3700
L60.4400 142.3700
" />
<circle cx="81.2800" cy="66.0400" r="6.6500" /> 
<path d="M59.9100 89.9400
L59.9100 92.9400
" />
<path d="M59.9100 92.9400
L72.1700 92.9400
" />
<path d="M72.1700 89.9400
L59.9100 89.9400
" />
<path d="M72.1700 92.9400
L72.1700 89.9400
" />
<path d="M59.9100 110.2600
L59.9100 113.2600
" />
<path d="M59.9100 113.2600
L72.1700 113.2600
" />
<path d="M72.1700 110.2600
L59.9100 110.2600
" />
<path d="M72.1700 113.2600
L72.1700 110.2600
" />
<path d="M59.9100 130.5800
L59.9100 133.5800
" />
<path d="M59.9100 133.5800
L72.1700 133.5800
" />
<path d="M72.1700 130.5800
L59.9100 130.5800
" />
<path d="M72.1700 133.5800
L72.1700 130.5800
" />
<path d="M59.9100 69.6200
L59.9100 72.6200
" />
<path d="M59.9100 72.6200
L72.1700 72.6200
" />
<path d="M72.1700 69.6200
L59.9100 69.6200
" />
<path d="M72.1700 72.6200
L72.1700 69.6200
" />
<circle cx="81.2800" cy="106.6800" r="6.6500" /> 
<circle cx="81.2800" cy="127.0000" r="6.6500" /> 
<circle cx="81.2800" cy="86.3600" r="6.6500" /> 
<g >
</g>
<g >
</g>
<g >
</g>
<g >
</g>
<g >
</g>
<g >
</g>
<g >
</g>
<g >
</g>
<g >
</g>
<g >
</g>
<g >
</g>
<g >
</g>
<g >
</g>
<g >
</g>
<g >
</g>
<g >
</g>
<g >
</g>
<g >
</g>
</g> 
</svg>
