<?xml version="1.0" standalone="no"?>
 <!DOCTYPE svg PUBLIC "-//W3C//DTD SVG 1.1//EN" 
 "http://www.w3.org/Graphics/SVG/1.1/DTD/svg11.dtd"> 
<svg
  xmlns:svg="http://www.w3.org/2000/svg"
  xmlns="http://www.w3.org/2000/svg"
  xmlns:xlink="http://www.w3.org/1999/xlink"
  version="1.1"
  width="297.0022mm" height="210.0072mm" viewBox="0.0000 0.0000 297.0022 210.0072">
<title>SVG Image created as mount-F_Fab.svg date 2023/11/08 17:25:30 </title>
  <desc>Image generated by PCBNEW </desc>
<g style="fill:#000000; fill-opacity:1.0000;stroke:#000000; stroke-opacity:1.0000;
stroke-linecap:round; stroke-linejoin:round;"
 transform="translate(0 0) scale(1 1)">
</g>
<g style="fill:#000000; fill-opacity:0.0; 
stroke:#000000; stroke-width:0.0000; stroke-opacity:1; 
stroke-linecap:round; stroke-linejoin:round;">
</g>
<g style="fill:#000000; fill-opacity:0.0; 
stroke:#000000; stroke-width:0.1500; stroke-opacity:1; 
stroke-linecap:round; stroke-linejoin:round;">
<text x="63.5000" y="89.8200"
textLength="2.9643" font-size="1.3333" lengthAdjust="spacingAndGlyphs"
text-anchor="middle" opacity="0">LED</text>
<g class="stroked-text"><desc>LED</desc>
<path d="M62.8571 89.7748
L62.3810 89.7748
" />
<path d="M62.3810 89.7748
L62.3810 88.7748
" />
<path d="M63.1905 89.2510
L63.5238 89.2510
" />
<path d="M63.6667 89.7748
L63.1905 89.7748
" />
<path d="M63.1905 89.7748
L63.1905 88.7748
" />
<path d="M63.1905 88.7748
L63.6667 88.7748
" />
<path d="M64.0952 89.7748
L64.0952 88.7748
" />
<path d="M64.0952 88.7748
L64.3333 88.7748
" />
<path d="M64.3333 88.7748
L64.4762 88.8224
" />
<path d="M64.4762 88.8224
L64.5714 88.9177
" />
<path d="M64.5714 88.9177
L64.6190 89.0129
" />
<path d="M64.6190 89.0129
L64.6667 89.2034
" />
<path d="M64.6667 89.2034
L64.6667 89.3462
" />
<path d="M64.6667 89.3462
L64.6190 89.5367
" />
<path d="M64.6190 89.5367
L64.5714 89.6320
" />
<path d="M64.5714 89.6320
L64.4762 89.7272
" />
<path d="M64.4762 89.7272
L64.3333 89.7748
" />
<path d="M64.3333 89.7748
L64.0952 89.7748
" />
</g><text x="63.5000" y="110.1400"
textLength="2.9643" font-size="1.3333" lengthAdjust="spacingAndGlyphs"
text-anchor="middle" opacity="0">LED</text>
<g class="stroked-text"><desc>LED</desc>
<path d="M62.8571 110.0948
L62.3810 110.0948
" />
<path d="M62.3810 110.0948
L62.3810 109.0948
" />
<path d="M63.1905 109.5710
L63.5238 109.5710
" />
<path d="M63.6667 110.0948
L63.1905 110.0948
" />
<path d="M63.1905 110.0948
L63.1905 109.0948
" />
<path d="M63.1905 109.0948
L63.6667 109.0948
" />
<path d="M64.0952 110.0948
L64.0952 109.0948
" />
<path d="M64.0952 109.0948
L64.3333 109.0948
" />
<path d="M64.3333 109.0948
L64.4762 109.1424
" />
<path d="M64.4762 109.1424
L64.5714 109.2377
" />
<path d="M64.5714 109.2377
L64.6190 109.3329
" />
<path d="M64.6190 109.3329
L64.6667 109.5234
" />
<path d="M64.6667 109.5234
L64.6667 109.6662
" />
<path d="M64.6667 109.6662
L64.6190 109.8567
" />
<path d="M64.6190 109.8567
L64.5714 109.9520
" />
<path d="M64.5714 109.9520
L64.4762 110.0472
" />
<path d="M64.4762 110.0472
L64.3333 110.0948
" />
<path d="M64.3333 110.0948
L64.0952 110.0948
" />
</g><text x="63.5000" y="130.4600"
textLength="2.9643" font-size="1.3333" lengthAdjust="spacingAndGlyphs"
text-anchor="middle" opacity="0">LED</text>
<g class="stroked-text"><desc>LED</desc>
<path d="M62.8571 130.4148
L62.3810 130.4148
" />
<path d="M62.3810 130.4148
L62.3810 129.4148
" />
<path d="M63.1905 129.8910
L63.5238 129.8910
" />
<path d="M63.6667 130.4148
L63.1905 130.4148
" />
<path d="M63.1905 130.4148
L63.1905 129.4148
" />
<path d="M63.1905 129.4148
L63.6667 129.4148
" />
<path d="M64.0952 130.4148
L64.0952 129.4148
" />
<path d="M64.0952 129.4148
L64.3333 129.4148
" />
<path d="M64.3333 129.4148
L64.4762 129.4624
" />
<path d="M64.4762 129.4624
L64.5714 129.5577
" />
<path d="M64.5714 129.5577
L64.6190 129.6529
" />
<path d="M64.6190 129.6529
L64.6667 129.8434
" />
<path d="M64.6667 129.8434
L64.6667 129.9862
" />
<path d="M64.6667 129.9862
L64.6190 130.1767
" />
<path d="M64.6190 130.1767
L64.5714 130.2720
" />
<path d="M64.5714 130.2720
L64.4762 130.3672
" />
<path d="M64.4762 130.3672
L64.3333 130.4148
" />
<path d="M64.3333 130.4148
L64.0952 130.4148
" />
</g><text x="63.5000" y="69.5000"
textLength="2.9643" font-size="1.3333" lengthAdjust="spacingAndGlyphs"
text-anchor="middle" opacity="0">LED</text>
<g class="stroked-text"><desc>LED</desc>
<path d="M62.8571 69.4548
L62.3810 69.4548
" />
<path d="M62.3810 69.4548
L62.3810 68.4548
" />
<path d="M63.1905 68.9310
L63.5238 68.9310
" />
<path d="M63.6667 69.4548
L63.1905 69.4548
" />
<path d="M63.1905 69.4548
L63.1905 68.4548
" />
<path d="M63.1905 68.4548
L63.6667 68.4548
" />
<path d="M64.0952 69.4548
L64.0952 68.4548
" />
<path d="M64.0952 68.4548
L64.3333 68.4548
" />
<path d="M64.3333 68.4548
L64.4762 68.5024
" />
<path d="M64.4762 68.5024
L64.5714 68.5977
" />
<path d="M64.5714 68.5977
L64.6190 68.6929
" />
<path d="M64.6190 68.6929
L64.6667 68.8834
" />
<path d="M64.6667 68.8834
L64.6667 69.0262
" />
<path d="M64.6667 69.0262
L64.6190 69.2167
" />
<path d="M64.6190 69.2167
L64.5714 69.3120
" />
<path d="M64.5714 69.3120
L64.4762 69.4072
" />
<path d="M64.4762 69.4072
L64.3333 69.4548
" />
<path d="M64.3333 69.4548
L64.0952 69.4548
" />
</g><g transform="rotate(-90.000000 82.3000 147.3200)">
<text x="82.3000" y="147.8200"
textLength="8.6786" font-size="1.3333" lengthAdjust="spacingAndGlyphs"
text-anchor="middle" opacity="0">IDC Header</text>
</g>
<g class="stroked-text"><desc>IDC Header</desc>
<path d="M82.7548 151.2962
L81.7548 151.2962
" />
<path d="M82.7548 150.8200
L81.7548 150.8200
" />
<path d="M81.7548 150.8200
L81.7548 150.5819
" />
<path d="M81.7548 150.5819
L81.8024 150.4390
" />
<path d="M81.8024 150.4390
L81.8977 150.3438
" />
<path d="M81.8977 150.3438
L81.9929 150.2962
" />
<path d="M81.9929 150.2962
L82.1834 150.2486
" />
<path d="M82.1834 150.2486
L82.3262 150.2486
" />
<path d="M82.3262 150.2486
L82.5167 150.2962
" />
<path d="M82.5167 150.2962
L82.6120 150.3438
" />
<path d="M82.6120 150.3438
L82.7072 150.4390
" />
<path d="M82.7072 150.4390
L82.7548 150.5819
" />
<path d="M82.7548 150.5819
L82.7548 150.8200
" />
<path d="M82.6596 149.2486
L82.7072 149.2962
" />
<path d="M82.7072 149.2962
L82.7548 149.4390
" />
<path d="M82.7548 149.4390
L82.7548 149.5343
" />
<path d="M82.7548 149.5343
L82.7072 149.6771
" />
<path d="M82.7072 149.6771
L82.6120 149.7724
" />
<path d="M82.6120 149.7724
L82.5167 149.8200
" />
<path d="M82.5167 149.8200
L82.3262 149.8676
" />
<path d="M82.3262 149.8676
L82.1834 149.8676
" />
<path d="M82.1834 149.8676
L81.9929 149.8200
" />
<path d="M81.9929 149.8200
L81.8977 149.7724
" />
<path d="M81.8977 149.7724
L81.8024 149.6771
" />
<path d="M81.8024 149.6771
L81.7548 149.5343
" />
<path d="M81.7548 149.5343
L81.7548 149.4390
" />
<path d="M81.7548 149.4390
L81.8024 149.2962
" />
<path d="M81.8024 149.2962
L81.8501 149.2486
" />
<path d="M82.7548 148.0581
L81.7548 148.0581
" />
<path d="M82.2310 148.0581
L82.2310 147.4867
" />
<path d="M82.7548 147.4867
L81.7548 147.4867
" />
<path d="M82.7072 146.6295
L82.7548 146.7248
" />
<path d="M82.7548 146.7248
L82.7548 146.9152
" />
<path d="M82.7548 146.9152
L82.7072 147.0105
" />
<path d="M82.7072 147.0105
L82.6120 147.0581
" />
<path d="M82.6120 147.0581
L82.2310 147.0581
" />
<path d="M82.2310 147.0581
L82.1358 147.0105
" />
<path d="M82.1358 147.0105
L82.0882 146.9152
" />
<path d="M82.0882 146.9152
L82.0882 146.7248
" />
<path d="M82.0882 146.7248
L82.1358 146.6295
" />
<path d="M82.1358 146.6295
L82.2310 146.5819
" />
<path d="M82.2310 146.5819
L82.3262 146.5819
" />
<path d="M82.3262 146.5819
L82.4215 147.0581
" />
<path d="M82.7548 145.7248
L82.2310 145.7248
" />
<path d="M82.2310 145.7248
L82.1358 145.7724
" />
<path d="M82.1358 145.7724
L82.0882 145.8676
" />
<path d="M82.0882 145.8676
L82.0882 146.0581
" />
<path d="M82.0882 146.0581
L82.1358 146.1533
" />
<path d="M82.7072 145.7248
L82.7548 145.8200
" />
<path d="M82.7548 145.8200
L82.7548 146.0581
" />
<path d="M82.7548 146.0581
L82.7072 146.1533
" />
<path d="M82.7072 146.1533
L82.6120 146.2010
" />
<path d="M82.6120 146.2010
L82.5167 146.2010
" />
<path d="M82.5167 146.2010
L82.4215 146.1533
" />
<path d="M82.4215 146.1533
L82.3739 146.0581
" />
<path d="M82.3739 146.0581
L82.3739 145.8200
" />
<path d="M82.3739 145.8200
L82.3262 145.7248
" />
<path d="M82.7548 144.8200
L81.7548 144.8200
" />
<path d="M82.7072 144.8200
L82.7548 144.9152
" />
<path d="M82.7548 144.9152
L82.7548 145.1057
" />
<path d="M82.7548 145.1057
L82.7072 145.2010
" />
<path d="M82.7072 145.2010
L82.6596 145.2486
" />
<path d="M82.6596 145.2486
L82.5643 145.2962
" />
<path d="M82.5643 145.2962
L82.2786 145.2962
" />
<path d="M82.2786 145.2962
L82.1834 145.2486
" />
<path d="M82.1834 145.2486
L82.1358 145.2010
" />
<path d="M82.1358 145.2010
L82.0882 145.1057
" />
<path d="M82.0882 145.1057
L82.0882 144.9152
" />
<path d="M82.0882 144.9152
L82.1358 144.8200
" />
<path d="M82.7072 143.9629
L82.7548 144.0581
" />
<path d="M82.7548 144.0581
L82.7548 144.2486
" />
<path d="M82.7548 144.2486
L82.7072 144.3438
" />
<path d="M82.7072 144.3438
L82.6120 144.3914
" />
<path d="M82.6120 144.3914
L82.2310 144.3914
" />
<path d="M82.2310 144.3914
L82.1358 144.3438
" />
<path d="M82.1358 144.3438
L82.0882 144.2486
" />
<path d="M82.0882 144.2486
L82.0882 144.0581
" />
<path d="M82.0882 144.0581
L82.1358 143.9629
" />
<path d="M82.1358 143.9629
L82.2310 143.9152
" />
<path d="M82.2310 143.9152
L82.3262 143.9152
" />
<path d="M82.3262 143.9152
L82.4215 144.3914
" />
<path d="M82.7548 143.4867
L82.0882 143.4867
" />
<path d="M82.2786 143.4867
L82.1834 143.4390
" />
<path d="M82.1834 143.4390
L82.1358 143.3914
" />
<path d="M82.1358 143.3914
L82.0882 143.2962
" />
<path d="M82.0882 143.2962
L82.0882 143.2010
" />
</g><text x="71.1200" y="147.8200"
textLength="1.9643" font-size="1.3333" lengthAdjust="spacingAndGlyphs"
text-anchor="middle" opacity="0">J1</text>
<g class="stroked-text"><desc>J1</desc>
<path d="M70.7867 146.7748
L70.7867 147.4891
" />
<path d="M70.7867 147.4891
L70.7390 147.6320
" />
<path d="M70.7390 147.6320
L70.6438 147.7272
" />
<path d="M70.6438 147.7272
L70.5010 147.7748
" />
<path d="M70.5010 147.7748
L70.4057 147.7748
" />
<path d="M71.7867 147.7748
L71.2152 147.7748
" />
<path d="M71.5010 147.7748
L71.5010 146.7748
" />
<path d="M71.5010 146.7748
L71.4057 146.9177
" />
<path d="M71.4057 146.9177
L71.3105 147.0129
" />
<path d="M71.3105 147.0129
L71.2152 147.0605
" />
</g><text x="81.2800" y="73.9400"
textLength="5.8214" font-size="1.3333" lengthAdjust="spacingAndGlyphs"
text-anchor="middle" opacity="0">CT2224</text>
<g class="stroked-text"><desc>CT2224</desc>
<path d="M79.3038 73.7996
L79.2562 73.8472
" />
<path d="M79.2562 73.8472
L79.1133 73.8948
" />
<path d="M79.1133 73.8948
L79.0181 73.8948
" />
<path d="M79.0181 73.8948
L78.8752 73.8472
" />
<path d="M78.8752 73.8472
L78.7800 73.7520
" />
<path d="M78.7800 73.7520
L78.7324 73.6567
" />
<path d="M78.7324 73.6567
L78.6848 73.4662
" />
<path d="M78.6848 73.4662
L78.6848 73.3234
" />
<path d="M78.6848 73.3234
L78.7324 73.1329
" />
<path d="M78.7324 73.1329
L78.7800 73.0377
" />
<path d="M78.7800 73.0377
L78.8752 72.9424
" />
<path d="M78.8752 72.9424
L79.0181 72.8948
" />
<path d="M79.0181 72.8948
L79.1133 72.8948
" />
<path d="M79.1133 72.8948
L79.2562 72.9424
" />
<path d="M79.2562 72.9424
L79.3038 72.9901
" />
<path d="M79.5895 72.8948
L80.1610 72.8948
" />
<path d="M79.8752 73.8948
L79.8752 72.8948
" />
<path d="M80.4467 72.9901
L80.4943 72.9424
" />
<path d="M80.4943 72.9424
L80.5895 72.8948
" />
<path d="M80.5895 72.8948
L80.8276 72.8948
" />
<path d="M80.8276 72.8948
L80.9229 72.9424
" />
<path d="M80.9229 72.9424
L80.9705 72.9901
" />
<path d="M80.9705 72.9901
L81.0181 73.0853
" />
<path d="M81.0181 73.0853
L81.0181 73.1805
" />
<path d="M81.0181 73.1805
L80.9705 73.3234
" />
<path d="M80.9705 73.3234
L80.3990 73.8948
" />
<path d="M80.3990 73.8948
L81.0181 73.8948
" />
<path d="M81.3990 72.9901
L81.4467 72.9424
" />
<path d="M81.4467 72.9424
L81.5419 72.8948
" />
<path d="M81.5419 72.8948
L81.7800 72.8948
" />
<path d="M81.7800 72.8948
L81.8752 72.9424
" />
<path d="M81.8752 72.9424
L81.9229 72.9901
" />
<path d="M81.9229 72.9901
L81.9705 73.0853
" />
<path d="M81.9705 73.0853
L81.9705 73.1805
" />
<path d="M81.9705 73.1805
L81.9229 73.3234
" />
<path d="M81.9229 73.3234
L81.3514 73.8948
" />
<path d="M81.3514 73.8948
L81.9705 73.8948
" />
<path d="M82.3514 72.9901
L82.3990 72.9424
" />
<path d="M82.3990 72.9424
L82.4943 72.8948
" />
<path d="M82.4943 72.8948
L82.7324 72.8948
" />
<path d="M82.7324 72.8948
L82.8276 72.9424
" />
<path d="M82.8276 72.9424
L82.8752 72.9901
" />
<path d="M82.8752 72.9901
L82.9229 73.0853
" />
<path d="M82.9229 73.0853
L82.9229 73.1805
" />
<path d="M82.9229 73.1805
L82.8752 73.3234
" />
<path d="M82.8752 73.3234
L82.3038 73.8948
" />
<path d="M82.3038 73.8948
L82.9229 73.8948
" />
<path d="M83.7800 73.2282
L83.7800 73.8948
" />
<path d="M83.5419 72.8472
L83.3038 73.5615
" />
<path d="M83.3038 73.5615
L83.9229 73.5615
" />
</g><text x="81.5800" y="66.5400"
textLength="1.9643" font-size="1.3333" lengthAdjust="spacingAndGlyphs"
text-anchor="middle" opacity="0">J2</text>
<g class="stroked-text"><desc>J2</desc>
<path d="M81.2467 65.4948
L81.2467 66.2091
" />
<path d="M81.2467 66.2091
L81.1990 66.3520
" />
<path d="M81.1990 66.3520
L81.1038 66.4472
" />
<path d="M81.1038 66.4472
L80.9610 66.4948
" />
<path d="M80.9610 66.4948
L80.8657 66.4948
" />
<path d="M81.6752 65.5901
L81.7229 65.5424
" />
<path d="M81.7229 65.5424
L81.8181 65.4948
" />
<path d="M81.8181 65.4948
L82.0562 65.4948
" />
<path d="M82.0562 65.4948
L82.1514 65.5424
" />
<path d="M82.1514 65.5424
L82.1990 65.5901
" />
<path d="M82.1990 65.5901
L82.2467 65.6853
" />
<path d="M82.2467 65.6853
L82.2467 65.7805
" />
<path d="M82.2467 65.7805
L82.1990 65.9234
" />
<path d="M82.1990 65.9234
L81.6276 66.4948
" />
<path d="M81.6276 66.4948
L82.2467 66.4948
" />
</g><text x="66.0400" y="94.3100"
textLength="2.9643" font-size="1.3333" lengthAdjust="spacingAndGlyphs"
text-anchor="middle" opacity="0">1k2</text>
<g class="stroked-text"><desc>1k2</desc>
<path d="M65.4448 94.2648
L64.8733 94.2648
" />
<path d="M65.1590 94.2648
L65.1590 93.2648
" />
<path d="M65.1590 93.2648
L65.0638 93.4077
" />
<path d="M65.0638 93.4077
L64.9686 93.5029
" />
<path d="M64.9686 93.5029
L64.8733 93.5505
" />
<path d="M65.8733 94.2648
L65.8733 93.2648
" />
<path d="M65.9686 93.8839
L66.2543 94.2648
" />
<path d="M66.2543 93.5982
L65.8733 93.9791
" />
<path d="M66.6352 93.3601
L66.6829 93.3124
" />
<path d="M66.6829 93.3124
L66.7781 93.2648
" />
<path d="M66.7781 93.2648
L67.0162 93.2648
" />
<path d="M67.0162 93.2648
L67.1114 93.3124
" />
<path d="M67.1114 93.3124
L67.1590 93.3601
" />
<path d="M67.1590 93.3601
L67.2067 93.4553
" />
<path d="M67.2067 93.4553
L67.2067 93.5505
" />
<path d="M67.2067 93.5505
L67.1590 93.6934
" />
<path d="M67.1590 93.6934
L66.5876 94.2648
" />
<path d="M66.5876 94.2648
L67.2067 94.2648
" />
</g><text x="66.0400" y="91.9400"
textLength="2.2024" font-size="1.3333" lengthAdjust="spacingAndGlyphs"
text-anchor="middle" opacity="0">R1</text>
<g class="stroked-text"><desc>R1</desc>
<path d="M65.8733 91.8948
L65.5400 91.4186
" />
<path d="M65.3019 91.8948
L65.3019 90.8948
" />
<path d="M65.3019 90.8948
L65.6829 90.8948
" />
<path d="M65.6829 90.8948
L65.7781 90.9424
" />
<path d="M65.7781 90.9424
L65.8257 90.9901
" />
<path d="M65.8257 90.9901
L65.8733 91.0853
" />
<path d="M65.8733 91.0853
L65.8733 91.2282
" />
<path d="M65.8733 91.2282
L65.8257 91.3234
" />
<path d="M65.8257 91.3234
L65.7781 91.3710
" />
<path d="M65.7781 91.3710
L65.6829 91.4186
" />
<path d="M65.6829 91.4186
L65.3019 91.4186
" />
<path d="M66.8257 91.8948
L66.2543 91.8948
" />
<path d="M66.5400 91.8948
L66.5400 90.8948
" />
<path d="M66.5400 90.8948
L66.4448 91.0377
" />
<path d="M66.4448 91.0377
L66.3495 91.1329
" />
<path d="M66.3495 91.1329
L66.2543 91.1805
" />
</g><text x="66.0400" y="114.6300"
textLength="2.9643" font-size="1.3333" lengthAdjust="spacingAndGlyphs"
text-anchor="middle" opacity="0">6k8</text>
<g class="stroked-text"><desc>6k8</desc>
<path d="M65.3495 113.5848
L65.1590 113.5848
" />
<path d="M65.1590 113.5848
L65.0638 113.6324
" />
<path d="M65.0638 113.6324
L65.0162 113.6801
" />
<path d="M65.0162 113.6801
L64.9210 113.8229
" />
<path d="M64.9210 113.8229
L64.8733 114.0134
" />
<path d="M64.8733 114.0134
L64.8733 114.3943
" />
<path d="M64.8733 114.3943
L64.9210 114.4896
" />
<path d="M64.9210 114.4896
L64.9686 114.5372
" />
<path d="M64.9686 114.5372
L65.0638 114.5848
" />
<path d="M65.0638 114.5848
L65.2543 114.5848
" />
<path d="M65.2543 114.5848
L65.3495 114.5372
" />
<path d="M65.3495 114.5372
L65.3971 114.4896
" />
<path d="M65.3971 114.4896
L65.4448 114.3943
" />
<path d="M65.4448 114.3943
L65.4448 114.1562
" />
<path d="M65.4448 114.1562
L65.3971 114.0610
" />
<path d="M65.3971 114.0610
L65.3495 114.0134
" />
<path d="M65.3495 114.0134
L65.2543 113.9658
" />
<path d="M65.2543 113.9658
L65.0638 113.9658
" />
<path d="M65.0638 113.9658
L64.9686 114.0134
" />
<path d="M64.9686 114.0134
L64.9210 114.0610
" />
<path d="M64.9210 114.0610
L64.8733 114.1562
" />
<path d="M65.8733 114.5848
L65.8733 113.5848
" />
<path d="M65.9686 114.2039
L66.2543 114.5848
" />
<path d="M66.2543 113.9182
L65.8733 114.2991
" />
<path d="M66.8257 114.0134
L66.7305 113.9658
" />
<path d="M66.7305 113.9658
L66.6829 113.9182
" />
<path d="M66.6829 113.9182
L66.6352 113.8229
" />
<path d="M66.6352 113.8229
L66.6352 113.7753
" />
<path d="M66.6352 113.7753
L66.6829 113.6801
" />
<path d="M66.6829 113.6801
L66.7305 113.6324
" />
<path d="M66.7305 113.6324
L66.8257 113.5848
" />
<path d="M66.8257 113.5848
L67.0162 113.5848
" />
<path d="M67.0162 113.5848
L67.1114 113.6324
" />
<path d="M67.1114 113.6324
L67.1590 113.6801
" />
<path d="M67.1590 113.6801
L67.2067 113.7753
" />
<path d="M67.2067 113.7753
L67.2067 113.8229
" />
<path d="M67.2067 113.8229
L67.1590 113.9182
" />
<path d="M67.1590 113.9182
L67.1114 113.9658
" />
<path d="M67.1114 113.9658
L67.0162 114.0134
" />
<path d="M67.0162 114.0134
L66.8257 114.0134
" />
<path d="M66.8257 114.0134
L66.7305 114.0610
" />
<path d="M66.7305 114.0610
L66.6829 114.1086
" />
<path d="M66.6829 114.1086
L66.6352 114.2039
" />
<path d="M66.6352 114.2039
L66.6352 114.3943
" />
<path d="M66.6352 114.3943
L66.6829 114.4896
" />
<path d="M66.6829 114.4896
L66.7305 114.5372
" />
<path d="M66.7305 114.5372
L66.8257 114.5848
" />
<path d="M66.8257 114.5848
L67.0162 114.5848
" />
<path d="M67.0162 114.5848
L67.1114 114.5372
" />
<path d="M67.1114 114.5372
L67.1590 114.4896
" />
<path d="M67.1590 114.4896
L67.2067 114.3943
" />
<path d="M67.2067 114.3943
L67.2067 114.2039
" />
<path d="M67.2067 114.2039
L67.1590 114.1086
" />
<path d="M67.1590 114.1086
L67.1114 114.0610
" />
<path d="M67.1114 114.0610
L67.0162 114.0134
" />
</g><text x="66.0400" y="112.2600"
textLength="2.2024" font-size="1.3333" lengthAdjust="spacingAndGlyphs"
text-anchor="middle" opacity="0">R2</text>
<g class="stroked-text"><desc>R2</desc>
<path d="M65.8733 112.2148
L65.5400 111.7386
" />
<path d="M65.3019 112.2148
L65.3019 111.2148
" />
<path d="M65.3019 111.2148
L65.6829 111.2148
" />
<path d="M65.6829 111.2148
L65.7781 111.2624
" />
<path d="M65.7781 111.2624
L65.8257 111.3101
" />
<path d="M65.8257 111.3101
L65.8733 111.4053
" />
<path d="M65.8733 111.4053
L65.8733 111.5482
" />
<path d="M65.8733 111.5482
L65.8257 111.6434
" />
<path d="M65.8257 111.6434
L65.7781 111.6910
" />
<path d="M65.7781 111.6910
L65.6829 111.7386
" />
<path d="M65.6829 111.7386
L65.3019 111.7386
" />
<path d="M66.2543 111.3101
L66.3019 111.2624
" />
<path d="M66.3019 111.2624
L66.3971 111.2148
" />
<path d="M66.3971 111.2148
L66.6352 111.2148
" />
<path d="M66.6352 111.2148
L66.7305 111.2624
" />
<path d="M66.7305 111.2624
L66.7781 111.3101
" />
<path d="M66.7781 111.3101
L66.8257 111.4053
" />
<path d="M66.8257 111.4053
L66.8257 111.5005
" />
<path d="M66.8257 111.5005
L66.7781 111.6434
" />
<path d="M66.7781 111.6434
L66.2067 112.2148
" />
<path d="M66.2067 112.2148
L66.8257 112.2148
" />
</g><text x="66.0400" y="134.9500"
textLength="2.9643" font-size="1.3333" lengthAdjust="spacingAndGlyphs"
text-anchor="middle" opacity="0">6k8</text>
<g class="stroked-text"><desc>6k8</desc>
<path d="M65.3495 133.9048
L65.1590 133.9048
" />
<path d="M65.1590 133.9048
L65.0638 133.9524
" />
<path d="M65.0638 133.9524
L65.0162 134.0001
" />
<path d="M65.0162 134.0001
L64.9210 134.1429
" />
<path d="M64.9210 134.1429
L64.8733 134.3334
" />
<path d="M64.8733 134.3334
L64.8733 134.7143
" />
<path d="M64.8733 134.7143
L64.9210 134.8096
" />
<path d="M64.9210 134.8096
L64.9686 134.8572
" />
<path d="M64.9686 134.8572
L65.0638 134.9048
" />
<path d="M65.0638 134.9048
L65.2543 134.9048
" />
<path d="M65.2543 134.9048
L65.3495 134.8572
" />
<path d="M65.3495 134.8572
L65.3971 134.8096
" />
<path d="M65.3971 134.8096
L65.4448 134.7143
" />
<path d="M65.4448 134.7143
L65.4448 134.4762
" />
<path d="M65.4448 134.4762
L65.3971 134.3810
" />
<path d="M65.3971 134.3810
L65.3495 134.3334
" />
<path d="M65.3495 134.3334
L65.2543 134.2858
" />
<path d="M65.2543 134.2858
L65.0638 134.2858
" />
<path d="M65.0638 134.2858
L64.9686 134.3334
" />
<path d="M64.9686 134.3334
L64.9210 134.3810
" />
<path d="M64.9210 134.3810
L64.8733 134.4762
" />
<path d="M65.8733 134.9048
L65.8733 133.9048
" />
<path d="M65.9686 134.5239
L66.2543 134.9048
" />
<path d="M66.2543 134.2382
L65.8733 134.6191
" />
<path d="M66.8257 134.3334
L66.7305 134.2858
" />
<path d="M66.7305 134.2858
L66.6829 134.2382
" />
<path d="M66.6829 134.2382
L66.6352 134.1429
" />
<path d="M66.6352 134.1429
L66.6352 134.0953
" />
<path d="M66.6352 134.0953
L66.6829 134.0001
" />
<path d="M66.6829 134.0001
L66.7305 133.9524
" />
<path d="M66.7305 133.9524
L66.8257 133.9048
" />
<path d="M66.8257 133.9048
L67.0162 133.9048
" />
<path d="M67.0162 133.9048
L67.1114 133.9524
" />
<path d="M67.1114 133.9524
L67.1590 134.0001
" />
<path d="M67.1590 134.0001
L67.2067 134.0953
" />
<path d="M67.2067 134.0953
L67.2067 134.1429
" />
<path d="M67.2067 134.1429
L67.1590 134.2382
" />
<path d="M67.1590 134.2382
L67.1114 134.2858
" />
<path d="M67.1114 134.2858
L67.0162 134.3334
" />
<path d="M67.0162 134.3334
L66.8257 134.3334
" />
<path d="M66.8257 134.3334
L66.7305 134.3810
" />
<path d="M66.7305 134.3810
L66.6829 134.4286
" />
<path d="M66.6829 134.4286
L66.6352 134.5239
" />
<path d="M66.6352 134.5239
L66.6352 134.7143
" />
<path d="M66.6352 134.7143
L66.6829 134.8096
" />
<path d="M66.6829 134.8096
L66.7305 134.8572
" />
<path d="M66.7305 134.8572
L66.8257 134.9048
" />
<path d="M66.8257 134.9048
L67.0162 134.9048
" />
<path d="M67.0162 134.9048
L67.1114 134.8572
" />
<path d="M67.1114 134.8572
L67.1590 134.8096
" />
<path d="M67.1590 134.8096
L67.2067 134.7143
" />
<path d="M67.2067 134.7143
L67.2067 134.5239
" />
<path d="M67.2067 134.5239
L67.1590 134.4286
" />
<path d="M67.1590 134.4286
L67.1114 134.3810
" />
<path d="M67.1114 134.3810
L67.0162 134.3334
" />
</g><text x="66.0400" y="132.5800"
textLength="2.2024" font-size="1.3333" lengthAdjust="spacingAndGlyphs"
text-anchor="middle" opacity="0">R3</text>
<g class="stroked-text"><desc>R3</desc>
<path d="M65.8733 132.5348
L65.5400 132.0586
" />
<path d="M65.3019 132.5348
L65.3019 131.5348
" />
<path d="M65.3019 131.5348
L65.6829 131.5348
" />
<path d="M65.6829 131.5348
L65.7781 131.5824
" />
<path d="M65.7781 131.5824
L65.8257 131.6301
" />
<path d="M65.8257 131.6301
L65.8733 131.7253
" />
<path d="M65.8733 131.7253
L65.8733 131.8682
" />
<path d="M65.8733 131.8682
L65.8257 131.9634
" />
<path d="M65.8257 131.9634
L65.7781 132.0110
" />
<path d="M65.7781 132.0110
L65.6829 132.0586
" />
<path d="M65.6829 132.0586
L65.3019 132.0586
" />
<path d="M66.2067 131.5348
L66.8257 131.5348
" />
<path d="M66.8257 131.5348
L66.4924 131.9158
" />
<path d="M66.4924 131.9158
L66.6352 131.9158
" />
<path d="M66.6352 131.9158
L66.7305 131.9634
" />
<path d="M66.7305 131.9634
L66.7781 132.0110
" />
<path d="M66.7781 132.0110
L66.8257 132.1062
" />
<path d="M66.8257 132.1062
L66.8257 132.3443
" />
<path d="M66.8257 132.3443
L66.7781 132.4396
" />
<path d="M66.7781 132.4396
L66.7305 132.4872
" />
<path d="M66.7305 132.4872
L66.6352 132.5348
" />
<path d="M66.6352 132.5348
L66.3495 132.5348
" />
<path d="M66.3495 132.5348
L66.2543 132.4872
" />
<path d="M66.2543 132.4872
L66.2067 132.4396
" />
</g><text x="66.0400" y="73.9900"
textLength="2.9643" font-size="1.3333" lengthAdjust="spacingAndGlyphs"
text-anchor="middle" opacity="0">2k2</text>
<g class="stroked-text"><desc>2k2</desc>
<path d="M64.8733 73.0401
L64.9210 72.9924
" />
<path d="M64.9210 72.9924
L65.0162 72.9448
" />
<path d="M65.0162 72.9448
L65.2543 72.9448
" />
<path d="M65.2543 72.9448
L65.3495 72.9924
" />
<path d="M65.3495 72.9924
L65.3971 73.0401
" />
<path d="M65.3971 73.0401
L65.4448 73.1353
" />
<path d="M65.4448 73.1353
L65.4448 73.2305
" />
<path d="M65.4448 73.2305
L65.3971 73.3734
" />
<path d="M65.3971 73.3734
L64.8257 73.9448
" />
<path d="M64.8257 73.9448
L65.4448 73.9448
" />
<path d="M65.8733 73.9448
L65.8733 72.9448
" />
<path d="M65.9686 73.5639
L66.2543 73.9448
" />
<path d="M66.2543 73.2782
L65.8733 73.6591
" />
<path d="M66.6352 73.0401
L66.6829 72.9924
" />
<path d="M66.6829 72.9924
L66.7781 72.9448
" />
<path d="M66.7781 72.9448
L67.0162 72.9448
" />
<path d="M67.0162 72.9448
L67.1114 72.9924
" />
<path d="M67.1114 72.9924
L67.1590 73.0401
" />
<path d="M67.1590 73.0401
L67.2067 73.1353
" />
<path d="M67.2067 73.1353
L67.2067 73.2305
" />
<path d="M67.2067 73.2305
L67.1590 73.3734
" />
<path d="M67.1590 73.3734
L66.5876 73.9448
" />
<path d="M66.5876 73.9448
L67.2067 73.9448
" />
</g><text x="66.0400" y="71.6200"
textLength="2.2024" font-size="1.3333" lengthAdjust="spacingAndGlyphs"
text-anchor="middle" opacity="0">R4</text>
<g class="stroked-text"><desc>R4</desc>
<path d="M65.8733 71.5748
L65.5400 71.0986
" />
<path d="M65.3019 71.5748
L65.3019 70.5748
" />
<path d="M65.3019 70.5748
L65.6829 70.5748
" />
<path d="M65.6829 70.5748
L65.7781 70.6224
" />
<path d="M65.7781 70.6224
L65.8257 70.6701
" />
<path d="M65.8257 70.6701
L65.8733 70.7653
" />
<path d="M65.8733 70.7653
L65.8733 70.9082
" />
<path d="M65.8733 70.9082
L65.8257 71.0034
" />
<path d="M65.8257 71.0034
L65.7781 71.0510
" />
<path d="M65.7781 71.0510
L65.6829 71.0986
" />
<path d="M65.6829 71.0986
L65.3019 71.0986
" />
<path d="M66.7305 70.9082
L66.7305 71.5748
" />
<path d="M66.4924 70.5272
L66.2543 71.2415
" />
<path d="M66.2543 71.2415
L66.8733 71.2415
" />
</g><text x="81.2800" y="114.5800"
textLength="5.8214" font-size="1.3333" lengthAdjust="spacingAndGlyphs"
text-anchor="middle" opacity="0">CT2224</text>
<g class="stroked-text"><desc>CT2224</desc>
<path d="M79.3038 114.4396
L79.2562 114.4872
" />
<path d="M79.2562 114.4872
L79.1133 114.5348
" />
<path d="M79.1133 114.5348
L79.0181 114.5348
" />
<path d="M79.0181 114.5348
L78.8752 114.4872
" />
<path d="M78.8752 114.4872
L78.7800 114.3920
" />
<path d="M78.7800 114.3920
L78.7324 114.2967
" />
<path d="M78.7324 114.2967
L78.6848 114.1062
" />
<path d="M78.6848 114.1062
L78.6848 113.9634
" />
<path d="M78.6848 113.9634
L78.7324 113.7729
" />
<path d="M78.7324 113.7729
L78.7800 113.6777
" />
<path d="M78.7800 113.6777
L78.8752 113.5824
" />
<path d="M78.8752 113.5824
L79.0181 113.5348
" />
<path d="M79.0181 113.5348
L79.1133 113.5348
" />
<path d="M79.1133 113.5348
L79.2562 113.5824
" />
<path d="M79.2562 113.5824
L79.3038 113.6301
" />
<path d="M79.5895 113.5348
L80.1610 113.5348
" />
<path d="M79.8752 114.5348
L79.8752 113.5348
" />
<path d="M80.4467 113.6301
L80.4943 113.5824
" />
<path d="M80.4943 113.5824
L80.5895 113.5348
" />
<path d="M80.5895 113.5348
L80.8276 113.5348
" />
<path d="M80.8276 113.5348
L80.9229 113.5824
" />
<path d="M80.9229 113.5824
L80.9705 113.6301
" />
<path d="M80.9705 113.6301
L81.0181 113.7253
" />
<path d="M81.0181 113.7253
L81.0181 113.8205
" />
<path d="M81.0181 113.8205
L80.9705 113.9634
" />
<path d="M80.9705 113.9634
L80.3990 114.5348
" />
<path d="M80.3990 114.5348
L81.0181 114.5348
" />
<path d="M81.3990 113.6301
L81.4467 113.5824
" />
<path d="M81.4467 113.5824
L81.5419 113.5348
" />
<path d="M81.5419 113.5348
L81.7800 113.5348
" />
<path d="M81.7800 113.5348
L81.8752 113.5824
" />
<path d="M81.8752 113.5824
L81.9229 113.6301
" />
<path d="M81.9229 113.6301
L81.9705 113.7253
" />
<path d="M81.9705 113.7253
L81.9705 113.8205
" />
<path d="M81.9705 113.8205
L81.9229 113.9634
" />
<path d="M81.9229 113.9634
L81.3514 114.5348
" />
<path d="M81.3514 114.5348
L81.9705 114.5348
" />
<path d="M82.3514 113.6301
L82.3990 113.5824
" />
<path d="M82.3990 113.5824
L82.4943 113.5348
" />
<path d="M82.4943 113.5348
L82.7324 113.5348
" />
<path d="M82.7324 113.5348
L82.8276 113.5824
" />
<path d="M82.8276 113.5824
L82.8752 113.6301
" />
<path d="M82.8752 113.6301
L82.9229 113.7253
" />
<path d="M82.9229 113.7253
L82.9229 113.8205
" />
<path d="M82.9229 113.8205
L82.8752 113.9634
" />
<path d="M82.8752 113.9634
L82.3038 114.5348
" />
<path d="M82.3038 114.5348
L82.9229 114.5348
" />
<path d="M83.7800 113.8682
L83.7800 114.5348
" />
<path d="M83.5419 113.4872
L83.3038 114.2015
" />
<path d="M83.3038 114.2015
L83.9229 114.2015
" />
</g><text x="81.5800" y="107.1800"
textLength="1.9643" font-size="1.3333" lengthAdjust="spacingAndGlyphs"
text-anchor="middle" opacity="0">J4</text>
<g class="stroked-text"><desc>J4</desc>
<path d="M81.2467 106.1348
L81.2467 106.8491
" />
<path d="M81.2467 106.8491
L81.1990 106.9920
" />
<path d="M81.1990 106.9920
L81.1038 107.0872
" />
<path d="M81.1038 107.0872
L80.9610 107.1348
" />
<path d="M80.9610 107.1348
L80.8657 107.1348
" />
<path d="M82.1514 106.4682
L82.1514 107.1348
" />
<path d="M81.9133 106.0872
L81.6752 106.8015
" />
<path d="M81.6752 106.8015
L82.2943 106.8015
" />
</g><text x="81.2800" y="134.9000"
textLength="5.8214" font-size="1.3333" lengthAdjust="spacingAndGlyphs"
text-anchor="middle" opacity="0">CT2224</text>
<g class="stroked-text"><desc>CT2224</desc>
<path d="M79.3038 134.7596
L79.2562 134.8072
" />
<path d="M79.2562 134.8072
L79.1133 134.8548
" />
<path d="M79.1133 134.8548
L79.0181 134.8548
" />
<path d="M79.0181 134.8548
L78.8752 134.8072
" />
<path d="M78.8752 134.8072
L78.7800 134.7120
" />
<path d="M78.7800 134.7120
L78.7324 134.6167
" />
<path d="M78.7324 134.6167
L78.6848 134.4262
" />
<path d="M78.6848 134.4262
L78.6848 134.2834
" />
<path d="M78.6848 134.2834
L78.7324 134.0929
" />
<path d="M78.7324 134.0929
L78.7800 133.9977
" />
<path d="M78.7800 133.9977
L78.8752 133.9024
" />
<path d="M78.8752 133.9024
L79.0181 133.8548
" />
<path d="M79.0181 133.8548
L79.1133 133.8548
" />
<path d="M79.1133 133.8548
L79.2562 133.9024
" />
<path d="M79.2562 133.9024
L79.3038 133.9501
" />
<path d="M79.5895 133.8548
L80.1610 133.8548
" />
<path d="M79.8752 134.8548
L79.8752 133.8548
" />
<path d="M80.4467 133.9501
L80.4943 133.9024
" />
<path d="M80.4943 133.9024
L80.5895 133.8548
" />
<path d="M80.5895 133.8548
L80.8276 133.8548
" />
<path d="M80.8276 133.8548
L80.9229 133.9024
" />
<path d="M80.9229 133.9024
L80.9705 133.9501
" />
<path d="M80.9705 133.9501
L81.0181 134.0453
" />
<path d="M81.0181 134.0453
L81.0181 134.1405
" />
<path d="M81.0181 134.1405
L80.9705 134.2834
" />
<path d="M80.9705 134.2834
L80.3990 134.8548
" />
<path d="M80.3990 134.8548
L81.0181 134.8548
" />
<path d="M81.3990 133.9501
L81.4467 133.9024
" />
<path d="M81.4467 133.9024
L81.5419 133.8548
" />
<path d="M81.5419 133.8548
L81.7800 133.8548
" />
<path d="M81.7800 133.8548
L81.8752 133.9024
" />
<path d="M81.8752 133.9024
L81.9229 133.9501
" />
<path d="M81.9229 133.9501
L81.9705 134.0453
" />
<path d="M81.9705 134.0453
L81.9705 134.1405
" />
<path d="M81.9705 134.1405
L81.9229 134.2834
" />
<path d="M81.9229 134.2834
L81.3514 134.8548
" />
<path d="M81.3514 134.8548
L81.9705 134.8548
" />
<path d="M82.3514 133.9501
L82.3990 133.9024
" />
<path d="M82.3990 133.9024
L82.4943 133.8548
" />
<path d="M82.4943 133.8548
L82.7324 133.8548
" />
<path d="M82.7324 133.8548
L82.8276 133.9024
" />
<path d="M82.8276 133.9024
L82.8752 133.9501
" />
<path d="M82.8752 133.9501
L82.9229 134.0453
" />
<path d="M82.9229 134.0453
L82.9229 134.1405
" />
<path d="M82.9229 134.1405
L82.8752 134.2834
" />
<path d="M82.8752 134.2834
L82.3038 134.8548
" />
<path d="M82.3038 134.8548
L82.9229 134.8548
" />
<path d="M83.7800 134.1882
L83.7800 134.8548
" />
<path d="M83.5419 133.8072
L83.3038 134.5215
" />
<path d="M83.3038 134.5215
L83.9229 134.5215
" />
</g><text x="81.5800" y="127.5000"
textLength="1.9643" font-size="1.3333" lengthAdjust="spacingAndGlyphs"
text-anchor="middle" opacity="0">J5</text>
<g class="stroked-text"><desc>J5</desc>
<path d="M81.2467 126.4548
L81.2467 127.1691
" />
<path d="M81.2467 127.1691
L81.1990 127.3120
" />
<path d="M81.1990 127.3120
L81.1038 127.4072
" />
<path d="M81.1038 127.4072
L80.9610 127.4548
" />
<path d="M80.9610 127.4548
L80.8657 127.4548
" />
<path d="M82.1990 126.4548
L81.7229 126.4548
" />
<path d="M81.7229 126.4548
L81.6752 126.9310
" />
<path d="M81.6752 126.9310
L81.7229 126.8834
" />
<path d="M81.7229 126.8834
L81.8181 126.8358
" />
<path d="M81.8181 126.8358
L82.0562 126.8358
" />
<path d="M82.0562 126.8358
L82.1514 126.8834
" />
<path d="M82.1514 126.8834
L82.1990 126.9310
" />
<path d="M82.1990 126.9310
L82.2467 127.0262
" />
<path d="M82.2467 127.0262
L82.2467 127.2643
" />
<path d="M82.2467 127.2643
L82.1990 127.3596
" />
<path d="M82.1990 127.3596
L82.1514 127.4072
" />
<path d="M82.1514 127.4072
L82.0562 127.4548
" />
<path d="M82.0562 127.4548
L81.8181 127.4548
" />
<path d="M81.8181 127.4548
L81.7229 127.4072
" />
<path d="M81.7229 127.4072
L81.6752 127.3596
" />
</g><text x="81.2800" y="94.2600"
textLength="5.8214" font-size="1.3333" lengthAdjust="spacingAndGlyphs"
text-anchor="middle" opacity="0">CT2224</text>
<g class="stroked-text"><desc>CT2224</desc>
<path d="M79.3038 94.1196
L79.2562 94.1672
" />
<path d="M79.2562 94.1672
L79.1133 94.2148
" />
<path d="M79.1133 94.2148
L79.0181 94.2148
" />
<path d="M79.0181 94.2148
L78.8752 94.1672
" />
<path d="M78.8752 94.1672
L78.7800 94.0720
" />
<path d="M78.7800 94.0720
L78.7324 93.9767
" />
<path d="M78.7324 93.9767
L78.6848 93.7862
" />
<path d="M78.6848 93.7862
L78.6848 93.6434
" />
<path d="M78.6848 93.6434
L78.7324 93.4529
" />
<path d="M78.7324 93.4529
L78.7800 93.3577
" />
<path d="M78.7800 93.3577
L78.8752 93.2624
" />
<path d="M78.8752 93.2624
L79.0181 93.2148
" />
<path d="M79.0181 93.2148
L79.1133 93.2148
" />
<path d="M79.1133 93.2148
L79.2562 93.2624
" />
<path d="M79.2562 93.2624
L79.3038 93.3101
" />
<path d="M79.5895 93.2148
L80.1610 93.2148
" />
<path d="M79.8752 94.2148
L79.8752 93.2148
" />
<path d="M80.4467 93.3101
L80.4943 93.2624
" />
<path d="M80.4943 93.2624
L80.5895 93.2148
" />
<path d="M80.5895 93.2148
L80.8276 93.2148
" />
<path d="M80.8276 93.2148
L80.9229 93.2624
" />
<path d="M80.9229 93.2624
L80.9705 93.3101
" />
<path d="M80.9705 93.3101
L81.0181 93.4053
" />
<path d="M81.0181 93.4053
L81.0181 93.5005
" />
<path d="M81.0181 93.5005
L80.9705 93.6434
" />
<path d="M80.9705 93.6434
L80.3990 94.2148
" />
<path d="M80.3990 94.2148
L81.0181 94.2148
" />
<path d="M81.3990 93.3101
L81.4467 93.2624
" />
<path d="M81.4467 93.2624
L81.5419 93.2148
" />
<path d="M81.5419 93.2148
L81.7800 93.2148
" />
<path d="M81.7800 93.2148
L81.8752 93.2624
" />
<path d="M81.8752 93.2624
L81.9229 93.3101
" />
<path d="M81.9229 93.3101
L81.9705 93.4053
" />
<path d="M81.9705 93.4053
L81.9705 93.5005
" />
<path d="M81.9705 93.5005
L81.9229 93.6434
" />
<path d="M81.9229 93.6434
L81.3514 94.2148
" />
<path d="M81.3514 94.2148
L81.9705 94.2148
" />
<path d="M82.3514 93.3101
L82.3990 93.2624
" />
<path d="M82.3990 93.2624
L82.4943 93.2148
" />
<path d="M82.4943 93.2148
L82.7324 93.2148
" />
<path d="M82.7324 93.2148
L82.8276 93.2624
" />
<path d="M82.8276 93.2624
L82.8752 93.3101
" />
<path d="M82.8752 93.3101
L82.9229 93.4053
" />
<path d="M82.9229 93.4053
L82.9229 93.5005
" />
<path d="M82.9229 93.5005
L82.8752 93.6434
" />
<path d="M82.8752 93.6434
L82.3038 94.2148
" />
<path d="M82.3038 94.2148
L82.9229 94.2148
" />
<path d="M83.7800 93.5482
L83.7800 94.2148
" />
<path d="M83.5419 93.1672
L83.3038 93.8815
" />
<path d="M83.3038 93.8815
L83.9229 93.8815
" />
</g><text x="81.5800" y="86.8600"
textLength="1.9643" font-size="1.3333" lengthAdjust="spacingAndGlyphs"
text-anchor="middle" opacity="0">J6</text>
<g class="stroked-text"><desc>J6</desc>
<path d="M81.2467 85.8148
L81.2467 86.5291
" />
<path d="M81.2467 86.5291
L81.1990 86.6720
" />
<path d="M81.1990 86.6720
L81.1038 86.7672
" />
<path d="M81.1038 86.7672
L80.9610 86.8148
" />
<path d="M80.9610 86.8148
L80.8657 86.8148
" />
<path d="M82.1514 85.8148
L81.9610 85.8148
" />
<path d="M81.9610 85.8148
L81.8657 85.8624
" />
<path d="M81.8657 85.8624
L81.8181 85.9101
" />
<path d="M81.8181 85.9101
L81.7229 86.0529
" />
<path d="M81.7229 86.0529
L81.6752 86.2434
" />
<path d="M81.6752 86.2434
L81.6752 86.6243
" />
<path d="M81.6752 86.6243
L81.7229 86.7196
" />
<path d="M81.7229 86.7196
L81.7705 86.7672
" />
<path d="M81.7705 86.7672
L81.8657 86.8148
" />
<path d="M81.8657 86.8148
L82.0562 86.8148
" />
<path d="M82.0562 86.8148
L82.1514 86.7672
" />
<path d="M82.1514 86.7672
L82.1990 86.7196
" />
<path d="M82.1990 86.7196
L82.2467 86.6243
" />
<path d="M82.2467 86.6243
L82.2467 86.3862
" />
<path d="M82.2467 86.3862
L82.1990 86.2910
" />
<path d="M82.1990 86.2910
L82.1514 86.2434
" />
<path d="M82.1514 86.2434
L82.0562 86.1958
" />
<path d="M82.0562 86.1958
L81.8657 86.1958
" />
<path d="M81.8657 86.1958
L81.7705 86.2434
" />
<path d="M81.7705 86.2434
L81.7229 86.2910
" />
<path d="M81.7229 86.2910
L81.6752 86.3862
" />
</g></g>
<g style="fill:#000000; fill-opacity:0.0; 
stroke:#000000; stroke-width:0.1000; stroke-opacity:1; 
stroke-linecap:round; stroke-linejoin:round;">
<path d="M62.0000 85.1938
L62.0000 87.5262
" />
<path d="M61.9994 87.5255 A1.9000 1.9000 0.0 1 0 62.0000 85.1938" />
<circle cx="63.5000" cy="86.3600" r="1.5000" /> 
<path d="M62.0000 105.5138
L62.0000 107.8462
" />
<path d="M61.9994 107.8455 A1.9000 1.9000 0.0 1 0 62.0000 105.5138" />
<circle cx="63.5000" cy="106.6800" r="1.5000" /> 
<path d="M62.0000 125.8338
L62.0000 128.1662
" />
<path d="M61.9994 128.1655 A1.9000 1.9000 0.0 1 0 62.0000 125.8338" />
<circle cx="63.5000" cy="127.0000" r="1.5000" /> 
<path d="M62.0000 64.8738
L62.0000 67.2062
" />
<path d="M61.9994 67.2055 A1.9000 1.9000 0.0 1 0 62.0000 64.8738" />
<circle cx="63.5000" cy="66.0400" r="1.5000" /> 
<path d="M61.9400 151.7700
L60.9400 150.7700
" />
<path d="M69.0700 151.7700
L69.0700 150.5700
" />
<path d="M81.3000 151.7700
L61.9400 151.7700
" />
<path d="M60.9400 150.7700
L60.9400 142.8700
" />
<path d="M62.1300 150.5700
L62.1300 144.0700
" />
<path d="M69.0700 150.5700
L62.1300 150.5700
" />
<path d="M73.1700 150.5700
L73.1700 151.7700
" />
</g>
<g style="fill:#000000; fill-opacity:1.0000; 
stroke:#000000; stroke-width:0.0000; stroke-opacity:1; 
stroke-linecap:round; stroke-linejoin:round;">
<circle cx="73.1700" cy="150.5700" r="0.0500" /> 
</g>
<g style="fill:#000000; fill-opacity:1.0000; 
stroke:#000000; stroke-width:0.1000; stroke-opacity:1; 
stroke-linecap:round; stroke-linejoin:round;">
</g>
<g style="fill:#000000; fill-opacity:0.0; 
stroke:#000000; stroke-width:0.1000; stroke-opacity:1; 
stroke-linecap:round; stroke-linejoin:round;">
<path d="M80.1100 150.5700
L73.1700 150.5700
" />
<path d="M62.1300 144.0700
L80.1100 144.0700
" />
<path d="M80.1100 144.0700
L80.1100 150.5700
" />
<path d="M60.9400 142.8700
L81.3000 142.8700
" />
<path d="M81.3000 142.8700
L81.3000 151.7700
" />
<path d="M60.9600 91.4400
L62.8900 91.4400
" />
<path d="M62.8900 90.1900
L62.8900 92.6900
" />
<path d="M62.8900 92.6900
L69.1900 92.6900
" />
<path d="M69.1900 90.1900
L62.8900 90.1900
" />
<path d="M69.1900 92.6900
L69.1900 90.1900
" />
<path d="M71.1200 91.4400
L69.1900 91.4400
" />
<path d="M60.9600 111.7600
L62.8900 111.7600
" />
<path d="M62.8900 110.5100
L62.8900 113.0100
" />
<path d="M62.8900 113.0100
L69.1900 113.0100
" />
<path d="M69.1900 110.5100
L62.8900 110.5100
" />
<path d="M69.1900 113.0100
L69.1900 110.5100
" />
<path d="M71.1200 111.7600
L69.1900 111.7600
" />
<path d="M60.9600 132.0800
L62.8900 132.0800
" />
<path d="M62.8900 130.8300
L62.8900 133.3300
" />
<path d="M62.8900 133.3300
L69.1900 133.3300
" />
<path d="M69.1900 130.8300
L62.8900 130.8300
" />
<path d="M69.1900 133.3300
L69.1900 130.8300
" />
<path d="M71.1200 132.0800
L69.1900 132.0800
" />
<path d="M60.9600 71.1200
L62.8900 71.1200
" />
<path d="M62.8900 69.8700
L62.8900 72.3700
" />
<path d="M62.8900 72.3700
L69.1900 72.3700
" />
<path d="M69.1900 69.8700
L62.8900 69.8700
" />
<path d="M69.1900 72.3700
L69.1900 69.8700
" />
<path d="M71.1200 71.1200
L69.1900 71.1200
" />
<g >
</g>
<g >
</g>
<g >
</g>
<g >
</g>
<g >
</g>
<g >
</g>
<g >
</g>
<g >
</g>
<g >
</g>
<g >
</g>
<g >
</g>
<g >
</g>
<g >
</g>
<g >
</g>
<g >
</g>
<g >
</g>
<g >
</g>
<g >
</g>
</g> 
</svg>
