<?xml version="1.0" standalone="no"?>
 <!DOCTYPE svg PUBLIC "-//W3C//DTD SVG 1.1//EN" 
 "http://www.w3.org/Graphics/SVG/1.1/DTD/svg11.dtd"> 
<svg
  xmlns:svg="http://www.w3.org/2000/svg"
  xmlns="http://www.w3.org/2000/svg"
  xmlns:xlink="http://www.w3.org/1999/xlink"
  version="1.1"
  width="297.0022mm" height="210.0072mm" viewBox="0.0000 0.0000 297.0022 210.0072">
<title>SVG Image created as mount-B_Cu.svg date 2023/11/08 17:25:29 </title>
  <desc>Image generated by PCBNEW </desc>
<g style="fill:#000000; fill-opacity:1.0000;stroke:#000000; stroke-opacity:1.0000;
stroke-linecap:round; stroke-linejoin:round;"
 transform="translate(0 0) scale(1 1)">
</g>
<g style="fill:#000000; fill-opacity:0.0; 
stroke:#000000; stroke-width:0.0000; stroke-opacity:1; 
stroke-linecap:round; stroke-linejoin:round;">
<g >
</g>
<g style="fill:#000000; fill-opacity:0.0; 
stroke:#000000; stroke-width:0.0000; stroke-opacity:1; 
stroke-linecap:round; stroke-linejoin:round;">
</g>
<g style="fill:#000000; fill-opacity:1.0000; 
stroke:#000000; stroke-width:0.0000; stroke-opacity:1; 
stroke-linecap:round; stroke-linejoin:round;">
<path style="fill:#000000; fill-opacity:1.0000; 
stroke:#000000; stroke-width:0.0000; stroke-opacity:1; 
stroke-linecap:round; stroke-linejoin:round;fill-rule:evenodd;"
d="M 61.3300,87.2600
61.3300,85.4600
63.1300,85.4600
63.1300,87.2600
Z" /> 
<circle cx="64.7700" cy="86.3600" r="0.9000" /> 
</g>
<g style="fill:#000000; fill-opacity:1.0000; 
stroke:#000000; stroke-width:0.0212; stroke-opacity:1; 
stroke-linecap:round; stroke-linejoin:round;">
</g>
<g >
</g>
<g style="fill:#000000; fill-opacity:1.0000; 
stroke:#000000; stroke-width:0.0212; stroke-opacity:1; 
stroke-linecap:round; stroke-linejoin:round;">
</g>
<g style="fill:#000000; fill-opacity:1.0000; 
stroke:#000000; stroke-width:0.0000; stroke-opacity:1; 
stroke-linecap:round; stroke-linejoin:round;">
<path style="fill:#000000; fill-opacity:1.0000; 
stroke:#000000; stroke-width:0.0000; stroke-opacity:1; 
stroke-linecap:round; stroke-linejoin:round;fill-rule:evenodd;"
d="M 61.3300,107.5800
61.3300,105.7800
63.1300,105.7800
63.1300,107.5800
Z" /> 
<circle cx="64.7700" cy="106.6800" r="0.9000" /> 
</g>
<g style="fill:#000000; fill-opacity:1.0000; 
stroke:#000000; stroke-width:0.0212; stroke-opacity:1; 
stroke-linecap:round; stroke-linejoin:round;">
</g>
<g >
</g>
<g style="fill:#000000; fill-opacity:1.0000; 
stroke:#000000; stroke-width:0.0212; stroke-opacity:1; 
stroke-linecap:round; stroke-linejoin:round;">
</g>
<g style="fill:#000000; fill-opacity:1.0000; 
stroke:#000000; stroke-width:0.0000; stroke-opacity:1; 
stroke-linecap:round; stroke-linejoin:round;">
<path style="fill:#000000; fill-opacity:1.0000; 
stroke:#000000; stroke-width:0.0000; stroke-opacity:1; 
stroke-linecap:round; stroke-linejoin:round;fill-rule:evenodd;"
d="M 61.3300,127.9000
61.3300,126.1000
63.1300,126.1000
63.1300,127.9000
Z" /> 
<circle cx="64.7700" cy="127.0000" r="0.9000" /> 
</g>
<g style="fill:#000000; fill-opacity:1.0000; 
stroke:#000000; stroke-width:0.0212; stroke-opacity:1; 
stroke-linecap:round; stroke-linejoin:round;">
</g>
<g >
</g>
<g style="fill:#000000; fill-opacity:1.0000; 
stroke:#000000; stroke-width:0.0212; stroke-opacity:1; 
stroke-linecap:round; stroke-linejoin:round;">
</g>
<g style="fill:#000000; fill-opacity:1.0000; 
stroke:#000000; stroke-width:0.0000; stroke-opacity:1; 
stroke-linecap:round; stroke-linejoin:round;">
<path style="fill:#000000; fill-opacity:1.0000; 
stroke:#000000; stroke-width:0.0000; stroke-opacity:1; 
stroke-linecap:round; stroke-linejoin:round;fill-rule:evenodd;"
d="M 61.3300,66.9400
61.3300,65.1400
63.1300,65.1400
63.1300,66.9400
Z" /> 
<circle cx="64.7700" cy="66.0400" r="0.9000" /> 
</g>
<g style="fill:#000000; fill-opacity:1.0000; 
stroke:#000000; stroke-width:0.0212; stroke-opacity:1; 
stroke-linecap:round; stroke-linejoin:round;">
</g>
<g >
</g>
<g style="fill:#000000; fill-opacity:1.0000; 
stroke:#000000; stroke-width:0.0212; stroke-opacity:1; 
stroke-linecap:round; stroke-linejoin:round;">
</g>
<g style="fill:#000000; fill-opacity:1.0000; 
stroke:#000000; stroke-width:0.0000; stroke-opacity:1; 
stroke-linecap:round; stroke-linejoin:round;">
<path style="fill:#000000; fill-opacity:1.0000; 
stroke:#000000; stroke-width:0.0000; stroke-opacity:1; 
stroke-linecap:round; stroke-linejoin:round;fill-rule:evenodd;"
d="M 65.4400,149.4400
65.3443,149.4210
65.2632,149.3668
65.2090,149.2857
65.1900,149.1900
65.1900,147.9900
65.2090,147.8943
65.2632,147.8132
65.3443,147.7590
65.4400,147.7400
66.6400,147.7400
66.7357,147.7590
66.8168,147.8132
66.8710,147.8943
66.8900,147.9900
66.8900,149.1900
66.8710,149.2857
66.8168,149.3668
66.7357,149.4210
66.6400,149.4400
Z" /> 
<circle cx="66.0400" cy="146.0500" r="0.8500" /> 
</g>
<g style="fill:#000000; fill-opacity:1.0000; 
stroke:#000000; stroke-width:0.0212; stroke-opacity:1; 
stroke-linecap:round; stroke-linejoin:round;">
</g>
<g style="fill:#000000; fill-opacity:1.0000; 
stroke:#000000; stroke-width:0.0000; stroke-opacity:1; 
stroke-linecap:round; stroke-linejoin:round;">
<circle cx="68.5800" cy="148.5900" r="0.8500" /> 
</g>
<g style="fill:#000000; fill-opacity:1.0000; 
stroke:#000000; stroke-width:0.0212; stroke-opacity:1; 
stroke-linecap:round; stroke-linejoin:round;">
</g>
<g style="fill:#000000; fill-opacity:1.0000; 
stroke:#000000; stroke-width:0.0000; stroke-opacity:1; 
stroke-linecap:round; stroke-linejoin:round;">
<circle cx="68.5800" cy="146.0500" r="0.8500" /> 
</g>
<g style="fill:#000000; fill-opacity:1.0000; 
stroke:#000000; stroke-width:0.0212; stroke-opacity:1; 
stroke-linecap:round; stroke-linejoin:round;">
</g>
<g style="fill:#000000; fill-opacity:1.0000; 
stroke:#000000; stroke-width:0.0000; stroke-opacity:1; 
stroke-linecap:round; stroke-linejoin:round;">
<circle cx="71.1200" cy="148.5900" r="0.8500" /> 
</g>
<g style="fill:#000000; fill-opacity:1.0000; 
stroke:#000000; stroke-width:0.0212; stroke-opacity:1; 
stroke-linecap:round; stroke-linejoin:round;">
</g>
<g style="fill:#000000; fill-opacity:1.0000; 
stroke:#000000; stroke-width:0.0000; stroke-opacity:1; 
stroke-linecap:round; stroke-linejoin:round;">
<circle cx="71.1200" cy="146.0500" r="0.8500" /> 
</g>
<g style="fill:#000000; fill-opacity:1.0000; 
stroke:#000000; stroke-width:0.0212; stroke-opacity:1; 
stroke-linecap:round; stroke-linejoin:round;">
</g>
<g style="fill:#000000; fill-opacity:1.0000; 
stroke:#000000; stroke-width:0.0000; stroke-opacity:1; 
stroke-linecap:round; stroke-linejoin:round;">
<circle cx="73.6600" cy="148.5900" r="0.8500" /> 
</g>
<g style="fill:#000000; fill-opacity:1.0000; 
stroke:#000000; stroke-width:0.0212; stroke-opacity:1; 
stroke-linecap:round; stroke-linejoin:round;">
</g>
<g style="fill:#000000; fill-opacity:1.0000; 
stroke:#000000; stroke-width:0.0000; stroke-opacity:1; 
stroke-linecap:round; stroke-linejoin:round;">
<circle cx="73.6600" cy="146.0500" r="0.8500" /> 
</g>
<g style="fill:#000000; fill-opacity:1.0000; 
stroke:#000000; stroke-width:0.0212; stroke-opacity:1; 
stroke-linecap:round; stroke-linejoin:round;">
</g>
<g style="fill:#000000; fill-opacity:1.0000; 
stroke:#000000; stroke-width:0.0000; stroke-opacity:1; 
stroke-linecap:round; stroke-linejoin:round;">
<circle cx="76.2000" cy="148.5900" r="0.8500" /> 
</g>
<g style="fill:#000000; fill-opacity:1.0000; 
stroke:#000000; stroke-width:0.0212; stroke-opacity:1; 
stroke-linecap:round; stroke-linejoin:round;">
</g>
<g style="fill:#000000; fill-opacity:1.0000; 
stroke:#000000; stroke-width:0.0000; stroke-opacity:1; 
stroke-linecap:round; stroke-linejoin:round;">
<circle cx="76.2000" cy="146.0500" r="0.8500" /> 
</g>
<g style="fill:#000000; fill-opacity:1.0000; 
stroke:#000000; stroke-width:0.0212; stroke-opacity:1; 
stroke-linecap:round; stroke-linejoin:round;">
</g>
<g >
</g>
<g style="fill:#000000; fill-opacity:1.0000; 
stroke:#000000; stroke-width:0.0212; stroke-opacity:1; 
stroke-linecap:round; stroke-linejoin:round;">
</g>
<g style="fill:#000000; fill-opacity:1.0000; 
stroke:#000000; stroke-width:0.0000; stroke-opacity:1; 
stroke-linecap:round; stroke-linejoin:round;">
<circle cx="81.2800" cy="66.0400" r="3.4000" /> 
</g>
<g style="fill:#000000; fill-opacity:1.0000; 
stroke:#000000; stroke-width:0.0212; stroke-opacity:1; 
stroke-linecap:round; stroke-linejoin:round;">
</g>
<g style="fill:#000000; fill-opacity:1.0000; 
stroke:#000000; stroke-width:0.0000; stroke-opacity:1; 
stroke-linecap:round; stroke-linejoin:round;">
<circle cx="81.2800" cy="66.0400" r="6.4000" /> 
</g>
<g style="fill:#000000; fill-opacity:1.0000; 
stroke:#000000; stroke-width:0.0212; stroke-opacity:1; 
stroke-linecap:round; stroke-linejoin:round;">
</g>
<g >
</g>
<g style="fill:#000000; fill-opacity:1.0000; 
stroke:#000000; stroke-width:0.0212; stroke-opacity:1; 
stroke-linecap:round; stroke-linejoin:round;">
</g>
<g style="fill:#000000; fill-opacity:1.0000; 
stroke:#000000; stroke-width:0.0000; stroke-opacity:1; 
stroke-linecap:round; stroke-linejoin:round;">
<circle cx="60.9600" cy="91.4400" r="0.8000" /> 
</g>
<g style="fill:#000000; fill-opacity:1.0000; 
stroke:#000000; stroke-width:0.0212; stroke-opacity:1; 
stroke-linecap:round; stroke-linejoin:round;">
</g>
<g style="fill:#000000; fill-opacity:1.0000; 
stroke:#000000; stroke-width:0.0000; stroke-opacity:1; 
stroke-linecap:round; stroke-linejoin:round;">
<circle cx="71.1200" cy="91.4400" r="0.8000" /> 
</g>
<g >
</g>
<g style="fill:#000000; fill-opacity:1.0000; 
stroke:#000000; stroke-width:0.0000; stroke-opacity:1; 
stroke-linecap:round; stroke-linejoin:round;">
<circle cx="60.9600" cy="111.7600" r="0.8000" /> 
</g>
<g style="fill:#000000; fill-opacity:1.0000; 
stroke:#000000; stroke-width:0.0212; stroke-opacity:1; 
stroke-linecap:round; stroke-linejoin:round;">
</g>
<g style="fill:#000000; fill-opacity:1.0000; 
stroke:#000000; stroke-width:0.0000; stroke-opacity:1; 
stroke-linecap:round; stroke-linejoin:round;">
<circle cx="71.1200" cy="111.7600" r="0.8000" /> 
</g>
<g >
</g>
<g style="fill:#000000; fill-opacity:1.0000; 
stroke:#000000; stroke-width:0.0000; stroke-opacity:1; 
stroke-linecap:round; stroke-linejoin:round;">
<circle cx="60.9600" cy="132.0800" r="0.8000" /> 
</g>
<g style="fill:#000000; fill-opacity:1.0000; 
stroke:#000000; stroke-width:0.0212; stroke-opacity:1; 
stroke-linecap:round; stroke-linejoin:round;">
</g>
<g style="fill:#000000; fill-opacity:1.0000; 
stroke:#000000; stroke-width:0.0000; stroke-opacity:1; 
stroke-linecap:round; stroke-linejoin:round;">
<circle cx="71.1200" cy="132.0800" r="0.8000" /> 
</g>
<g >
</g>
<g style="fill:#000000; fill-opacity:1.0000; 
stroke:#000000; stroke-width:0.0000; stroke-opacity:1; 
stroke-linecap:round; stroke-linejoin:round;">
<circle cx="60.9600" cy="71.1200" r="0.8000" /> 
</g>
<g style="fill:#000000; fill-opacity:1.0000; 
stroke:#000000; stroke-width:0.0212; stroke-opacity:1; 
stroke-linecap:round; stroke-linejoin:round;">
</g>
<g style="fill:#000000; fill-opacity:1.0000; 
stroke:#000000; stroke-width:0.0000; stroke-opacity:1; 
stroke-linecap:round; stroke-linejoin:round;">
<circle cx="71.1200" cy="71.1200" r="0.8000" /> 
</g>
<g >
</g>
<g style="fill:#000000; fill-opacity:1.0000; 
stroke:#000000; stroke-width:0.0000; stroke-opacity:1; 
stroke-linecap:round; stroke-linejoin:round;">
<circle cx="81.2800" cy="106.6800" r="3.4000" /> 
</g>
<g style="fill:#000000; fill-opacity:1.0000; 
stroke:#000000; stroke-width:0.0212; stroke-opacity:1; 
stroke-linecap:round; stroke-linejoin:round;">
</g>
<g style="fill:#000000; fill-opacity:1.0000; 
stroke:#000000; stroke-width:0.0000; stroke-opacity:1; 
stroke-linecap:round; stroke-linejoin:round;">
<circle cx="81.2800" cy="106.6800" r="6.4000" /> 
</g>
<g style="fill:#000000; fill-opacity:1.0000; 
stroke:#000000; stroke-width:0.0212; stroke-opacity:1; 
stroke-linecap:round; stroke-linejoin:round;">
</g>
<g >
</g>
<g style="fill:#000000; fill-opacity:1.0000; 
stroke:#000000; stroke-width:0.0212; stroke-opacity:1; 
stroke-linecap:round; stroke-linejoin:round;">
</g>
<g style="fill:#000000; fill-opacity:1.0000; 
stroke:#000000; stroke-width:0.0000; stroke-opacity:1; 
stroke-linecap:round; stroke-linejoin:round;">
<circle cx="81.2800" cy="127.0000" r="3.4000" /> 
</g>
<g style="fill:#000000; fill-opacity:1.0000; 
stroke:#000000; stroke-width:0.0212; stroke-opacity:1; 
stroke-linecap:round; stroke-linejoin:round;">
</g>
<g style="fill:#000000; fill-opacity:1.0000; 
stroke:#000000; stroke-width:0.0000; stroke-opacity:1; 
stroke-linecap:round; stroke-linejoin:round;">
<circle cx="81.2800" cy="127.0000" r="6.4000" /> 
</g>
<g style="fill:#000000; fill-opacity:1.0000; 
stroke:#000000; stroke-width:0.0212; stroke-opacity:1; 
stroke-linecap:round; stroke-linejoin:round;">
</g>
<g >
</g>
<g style="fill:#000000; fill-opacity:1.0000; 
stroke:#000000; stroke-width:0.0212; stroke-opacity:1; 
stroke-linecap:round; stroke-linejoin:round;">
</g>
<g style="fill:#000000; fill-opacity:1.0000; 
stroke:#000000; stroke-width:0.0000; stroke-opacity:1; 
stroke-linecap:round; stroke-linejoin:round;">
<circle cx="81.2800" cy="86.3600" r="3.4000" /> 
</g>
<g style="fill:#000000; fill-opacity:1.0000; 
stroke:#000000; stroke-width:0.0212; stroke-opacity:1; 
stroke-linecap:round; stroke-linejoin:round;">
</g>
<g style="fill:#000000; fill-opacity:1.0000; 
stroke:#000000; stroke-width:0.0000; stroke-opacity:1; 
stroke-linecap:round; stroke-linejoin:round;">
<circle cx="81.2800" cy="86.3600" r="6.4000" /> 
</g>
<g style="fill:#000000; fill-opacity:1.0000; 
stroke:#000000; stroke-width:0.0212; stroke-opacity:1; 
stroke-linecap:round; stroke-linejoin:round;">
</g>
<g >
</g>
<g >
</g>
<g style="fill:#000000; fill-opacity:1.0000; 
stroke:#000000; stroke-width:0.0212; stroke-opacity:1; 
stroke-linecap:round; stroke-linejoin:round;">
</g>
<g style="fill:#000000; fill-opacity:1.0000; 
stroke:#000000; stroke-width:0.0000; stroke-opacity:1; 
stroke-linecap:round; stroke-linejoin:round;">
<path style="fill:#000000; fill-opacity:1.0000; 
stroke:#000000; stroke-width:0.0000; stroke-opacity:1; 
stroke-linecap:round; stroke-linejoin:round;fill-rule:evenodd;"
d="M 59.0200,55.0300
59.1157,55.0490
59.1968,55.1032
59.2510,55.1843
59.2700,55.2800
59.2700,56.4800
59.2510,56.5757
59.1968,56.6568
59.1157,56.7110
59.0200,56.7300
57.8200,56.7300
57.7243,56.7110
57.6432,56.6568
57.5890,56.5757
57.5700,56.4800
57.5700,55.2800
57.5890,55.1843
57.6432,55.1032
57.7243,55.0490
57.8200,55.0300
Z" /> 
<circle cx="58.4200" cy="58.4200" r="0.8500" /> 
</g>
<g style="fill:#000000; fill-opacity:1.0000; 
stroke:#000000; stroke-width:0.0212; stroke-opacity:1; 
stroke-linecap:round; stroke-linejoin:round;">
</g>
<g style="fill:#000000; fill-opacity:1.0000; 
stroke:#000000; stroke-width:0.0000; stroke-opacity:1; 
stroke-linecap:round; stroke-linejoin:round;">
<circle cx="60.9600" cy="55.8800" r="0.8500" /> 
</g>
<g style="fill:#000000; fill-opacity:1.0000; 
stroke:#000000; stroke-width:0.0212; stroke-opacity:1; 
stroke-linecap:round; stroke-linejoin:round;">
</g>
<g style="fill:#000000; fill-opacity:1.0000; 
stroke:#000000; stroke-width:0.0000; stroke-opacity:1; 
stroke-linecap:round; stroke-linejoin:round;">
<circle cx="60.9600" cy="58.4200" r="0.8500" /> 
</g>
<g style="fill:#000000; fill-opacity:1.0000; 
stroke:#000000; stroke-width:0.0212; stroke-opacity:1; 
stroke-linecap:round; stroke-linejoin:round;">
</g>
<g style="fill:#000000; fill-opacity:1.0000; 
stroke:#000000; stroke-width:0.0000; stroke-opacity:1; 
stroke-linecap:round; stroke-linejoin:round;">
<circle cx="63.5000" cy="55.8800" r="0.8500" /> 
</g>
<g style="fill:#000000; fill-opacity:1.0000; 
stroke:#000000; stroke-width:0.0212; stroke-opacity:1; 
stroke-linecap:round; stroke-linejoin:round;">
</g>
<g style="fill:#000000; fill-opacity:1.0000; 
stroke:#000000; stroke-width:0.0000; stroke-opacity:1; 
stroke-linecap:round; stroke-linejoin:round;">
<circle cx="63.5000" cy="58.4200" r="0.8500" /> 
</g>
<g style="fill:#000000; fill-opacity:1.0000; 
stroke:#000000; stroke-width:0.0212; stroke-opacity:1; 
stroke-linecap:round; stroke-linejoin:round;">
</g>
<g style="fill:#000000; fill-opacity:1.0000; 
stroke:#000000; stroke-width:0.0000; stroke-opacity:1; 
stroke-linecap:round; stroke-linejoin:round;">
<circle cx="66.0400" cy="55.8800" r="0.8500" /> 
</g>
<g style="fill:#000000; fill-opacity:1.0000; 
stroke:#000000; stroke-width:0.0212; stroke-opacity:1; 
stroke-linecap:round; stroke-linejoin:round;">
</g>
<g style="fill:#000000; fill-opacity:1.0000; 
stroke:#000000; stroke-width:0.0000; stroke-opacity:1; 
stroke-linecap:round; stroke-linejoin:round;">
<circle cx="66.0400" cy="58.4200" r="0.8500" /> 
</g>
<g style="fill:#000000; fill-opacity:1.0000; 
stroke:#000000; stroke-width:0.0212; stroke-opacity:1; 
stroke-linecap:round; stroke-linejoin:round;">
</g>
<g style="fill:#000000; fill-opacity:1.0000; 
stroke:#000000; stroke-width:0.0000; stroke-opacity:1; 
stroke-linecap:round; stroke-linejoin:round;">
<circle cx="68.5800" cy="55.8800" r="0.8500" /> 
</g>
<g style="fill:#000000; fill-opacity:1.0000; 
stroke:#000000; stroke-width:0.0212; stroke-opacity:1; 
stroke-linecap:round; stroke-linejoin:round;">
</g>
<g style="fill:#000000; fill-opacity:1.0000; 
stroke:#000000; stroke-width:0.0000; stroke-opacity:1; 
stroke-linecap:round; stroke-linejoin:round;">
<circle cx="68.5800" cy="58.4200" r="0.8500" /> 
</g>
<g style="fill:#000000; fill-opacity:1.0000; 
stroke:#000000; stroke-width:0.0212; stroke-opacity:1; 
stroke-linecap:round; stroke-linejoin:round;">
</g>
<g >
</g>
<g >
</g>
<g >
</g>
<g style="fill:#000000; fill-opacity:1.0000; 
stroke:#000000; stroke-width:0.0212; stroke-opacity:1; 
stroke-linecap:round; stroke-linejoin:round;">
<g >
</g>
<g style="fill:#000000; fill-opacity:1.0000; 
stroke:#000000; stroke-width:0.0000; stroke-opacity:1; 
stroke-linecap:round; stroke-linejoin:round;">
<path style="fill:#000000; fill-opacity:1.0000; 
stroke:#000000; stroke-width:0.0000; stroke-opacity:1; 
stroke-linecap:round; stroke-linejoin:round;fill-rule:evenodd;"
d="M 90.9615,50.8924
91.0076,50.9385
91.0245,51.0015
91.0245,158.7785
91.0076,158.8415
90.9615,158.8876
90.8985,158.9045
51.0015,158.9045
50.9385,158.8876
50.8924,158.8415
50.8755,158.7785
50.8755,146.0500
64.6768,146.0500
64.6954,146.2744
64.6954,146.2744
64.6954,146.2744
64.7507,146.4926
64.8411,146.6988
64.8411,146.6988
64.9643,146.8873
65.1168,147.0529
65.1516,147.0800
65.1917,147.1339
65.1983,147.2008
65.1697,147.2616
65.1290,147.2889
65.1298,147.2902
65.1173,147.2979
65.1173,147.2979
65.0463,147.3417
64.9663,147.3910
64.8410,147.5163
64.8410,147.5163
64.7479,147.6673
64.6921,147.8356
64.6866,147.8891
64.6815,147.9395
64.6815,149.2405
64.6837,149.2620
64.6921,149.3444
64.7479,149.5127
64.7973,149.5929
64.8410,149.6637
64.9663,149.7890
64.9663,149.7890
64.9663,149.7890
65.1173,149.8821
65.2856,149.9379
65.3895,149.9485
66.6905,149.9485
66.7944,149.9379
66.9627,149.8821
67.1137,149.7890
67.2390,149.6637
67.3321,149.5127
67.3321,149.5127
67.3398,149.5002
67.3408,149.5008
67.3666,149.4614
67.4243,149.4320
67.4889,149.4351
67.5435,149.4699
67.6568,149.5929
67.6568,149.5929
67.8344,149.7312
67.8344,149.7312
68.0324,149.8383
68.2454,149.9114
68.4674,149.9485
68.6926,149.9485
68.6926,149.9485
68.9146,149.9114
69.1276,149.8383
69.3256,149.7312
69.3465,149.7149
70.3543,149.7149
70.3747,149.7308
70.5726,149.8379
70.7855,149.9110
71.0075,149.9480
71.2325,149.9480
71.4545,149.9110
71.6674,149.8379
71.8653,149.7308
71.8857,149.7149
72.8943,149.7149
72.9147,149.7308
73.1126,149.8379
73.3255,149.9110
73.5475,149.9480
73.7725,149.9480
73.9945,149.9110
74.2074,149.8379
74.4053,149.7308
74.4257,149.7149
74.4257,149.7149
73.6600,148.9492
73.6600,148.9492
72.8943,149.7149
71.8857,149.7149
71.8857,149.7149
71.1200,148.9492
71.1200,148.9492
70.3543,149.7149
69.3465,149.7149
69.5032,149.5929
69.6557,149.4273
69.7448,149.2909
69.7903,149.2490
69.8503,149.2338
69.9103,149.2490
69.9558,149.2909
69.9969,149.3539
70.7608,148.5900
71.4792,148.5900
72.2431,149.3539
72.2845,149.2904
72.3300,149.2485
72.3900,149.2334
72.4500,149.2485
72.4955,149.2904
72.5369,149.3539
73.3008,148.5900
74.0192,148.5900
74.7831,149.3539
74.7831,149.3539
74.8242,149.2909
74.8697,149.2490
74.9297,149.2338
74.9897,149.2490
75.0352,149.2909
75.1243,149.4273
75.2030,149.5127
75.2768,149.5929
75.4544,149.7312
75.4544,149.7312
75.6524,149.8383
75.8654,149.9114
76.0874,149.9485
76.3126,149.9485
76.3126,149.9485
76.5346,149.9114
76.7476,149.8383
76.9456,149.7312
77.1232,149.5929
77.2757,149.4273
77.3989,149.2388
77.4893,149.0326
77.5446,148.8144
77.5632,148.5900
77.5446,148.3656
77.4893,148.1474
77.3989,147.9412
77.2757,147.7527
77.1232,147.5871
77.1232,147.5871
77.1232,147.5871
76.9456,147.4488
76.9456,147.4488
76.9456,147.4488
76.9123,147.4308
76.8640,147.3845
76.8463,147.3200
76.8640,147.2555
76.9123,147.2092
76.9456,147.1912
77.1232,147.0529
77.2757,146.8873
77.3989,146.6988
77.4893,146.4926
77.5446,146.2744
77.5632,146.0500
77.5446,145.8256
77.4893,145.6074
77.3989,145.4012
77.2757,145.2127
77.1232,145.0471
77.1232,145.0471
77.1232,145.0471
76.9456,144.9088
76.7476,144.8017
76.6034,144.7522
76.5346,144.7286
76.3126,144.6915
76.0874,144.6915
75.8654,144.7286
75.8654,144.7286
75.8654,144.7286
75.6524,144.8017
75.4544,144.9088
75.2768,145.0471
75.1243,145.2127
75.0352,145.3491
74.9897,145.3910
74.9297,145.4062
74.8697,145.3910
74.8242,145.3491
74.7831,145.2861
74.0192,146.0500
74.0192,146.0500
74.7831,146.8139
74.7831,146.8139
74.8242,146.7509
74.8697,146.7090
74.9297,146.6938
74.9897,146.7090
75.0352,146.7509
75.1243,146.8873
75.2768,147.0529
75.4544,147.1912
75.4544,147.1912
75.4544,147.1912
75.4877,147.2092
75.5360,147.2555
75.5537,147.3200
75.5360,147.3845
75.4877,147.4308
75.4628,147.4443
75.4544,147.4488
75.2768,147.5871
75.1243,147.7527
75.0352,147.8891
74.9897,147.9310
74.9297,147.9462
74.8697,147.9310
74.8242,147.8891
74.7831,147.8261
74.0192,148.5900
74.0192,148.5900
73.3008,148.5900
73.3008,148.5900
72.5369,147.8261
72.4955,147.8896
72.4500,147.9315
72.3900,147.9466
72.3300,147.9315
72.2845,147.8896
72.2431,147.8261
71.4792,148.5900
71.4792,148.5900
70.7608,148.5900
70.7608,148.5900
69.9969,147.8261
69.9558,147.8891
69.9103,147.9310
69.8503,147.9462
69.7903,147.9310
69.7448,147.8891
69.7098,147.8356
69.6557,147.7527
69.5032,147.5871
69.5032,147.5871
69.5032,147.5871
69.3465,147.4651
70.3543,147.4651
71.1200,148.2308
71.1200,148.2308
71.8857,147.4651
72.8943,147.4651
73.6600,148.2308
73.6600,148.2308
74.4257,147.4651
74.4257,147.4651
74.4053,147.4492
74.3713,147.4308
74.3230,147.3845
74.3052,147.3200
74.3230,147.2555
74.3713,147.2092
74.4053,147.1908
74.4257,147.1749
74.4257,147.1749
73.6600,146.4092
73.6600,146.4092
72.8943,147.1749
72.9147,147.1908
72.9487,147.2092
72.9970,147.2555
73.0148,147.3200
72.9970,147.3845
72.9487,147.4308
72.9147,147.4492
72.8943,147.4651
72.8943,147.4651
71.8857,147.4651
71.8857,147.4651
71.8857,147.4651
71.8653,147.4492
71.8313,147.4308
71.7830,147.3845
71.7652,147.3200
71.7830,147.2555
71.8313,147.2092
71.8653,147.1908
71.8857,147.1749
71.8857,147.1749
71.1200,146.4092
71.1200,146.4092
70.3543,147.1749
70.3747,147.1908
70.4087,147.2092
70.4570,147.2555
70.4748,147.3200
70.4570,147.3845
70.4087,147.4308
70.3747,147.4492
70.3543,147.4651
70.3543,147.4651
69.3465,147.4651
69.3256,147.4488
69.3256,147.4488
69.3256,147.4488
69.2923,147.4308
69.2440,147.3845
69.2263,147.3200
69.2440,147.2555
69.2923,147.2092
69.3256,147.1912
69.5032,147.0529
69.6557,146.8873
69.7448,146.7509
69.7903,146.7090
69.8503,146.6938
69.9103,146.7090
69.9558,146.7509
69.9969,146.8139
70.7608,146.0500
71.4792,146.0500
72.2431,146.8139
72.2845,146.7504
72.3300,146.7085
72.3900,146.6934
72.4500,146.7085
72.4955,146.7504
72.5369,146.8139
73.3008,146.0500
72.5369,145.2861
72.4955,145.3496
72.4500,145.3915
72.3900,145.4066
72.3300,145.3915
72.2845,145.3496
72.2431,145.2861
71.4792,146.0500
71.4792,146.0500
70.7608,146.0500
70.7608,146.0500
69.9969,145.2861
69.9558,145.3491
69.9103,145.3910
69.8503,145.4062
69.7903,145.3910
69.7448,145.3491
69.7445,145.3486
69.6557,145.2127
69.5032,145.0471
69.5032,145.0471
69.5032,145.0471
69.3465,144.9251
70.3543,144.9251
71.1200,145.6908
71.1200,145.6908
71.8857,144.9251
72.8943,144.9251
73.6600,145.6908
73.6600,145.6908
74.4257,144.9251
74.4257,144.9251
74.4053,144.9092
74.2074,144.8021
73.9945,144.7290
73.7725,144.6920
73.5475,144.6920
73.3255,144.7290
73.1126,144.8021
72.9147,144.9092
72.8943,144.9251
72.8943,144.9251
71.8857,144.9251
71.8857,144.9251
71.8857,144.9251
71.8653,144.9092
71.6674,144.8021
71.4545,144.7290
71.2325,144.6920
71.0075,144.6920
70.7855,144.7290
70.5726,144.8021
70.3747,144.9092
70.3543,144.9251
70.3543,144.9251
69.3465,144.9251
69.3256,144.9088
69.1276,144.8017
68.9834,144.7522
68.9146,144.7286
68.6926,144.6915
68.4674,144.6915
68.2454,144.7286
68.2454,144.7286
68.2454,144.7286
68.0324,144.8017
67.8344,144.9088
67.6568,145.0471
67.5043,145.2127
67.4155,145.3486
67.3700,145.3905
67.3100,145.4057
67.2500,145.3905
67.2045,145.3486
67.1965,145.3363
67.1157,145.2127
66.9632,145.0471
66.9632,145.0471
66.9632,145.0471
66.7856,144.9088
66.5876,144.8017
66.4434,144.7522
66.3746,144.7286
66.1526,144.6915
65.9274,144.6915
65.7054,144.7286
65.7054,144.7286
65.7054,144.7286
65.4924,144.8017
65.2944,144.9088
65.1168,145.0471
64.9643,145.2127
64.8411,145.4012
64.7507,145.6074
64.6954,145.8256
64.6954,145.8256
64.6768,146.0500
50.8755,146.0500
50.8755,132.0800
59.6465,132.0800
59.6665,132.3081
59.7257,132.5292
59.8225,132.7368
59.9538,132.9243
60.1157,133.0862
60.3032,133.2175
60.5108,133.3143
60.5700,133.3302
60.7319,133.3735
60.9600,133.3935
61.1881,133.3735
61.4092,133.3143
61.6167,133.2175
61.8043,133.0862
61.9662,132.9243
62.0975,132.7367
62.1943,132.5292
62.2466,132.3340
69.8339,132.3340
69.8862,132.5291
69.9829,132.7365
70.1142,132.9240
70.2760,133.0858
70.4635,133.2171
70.6709,133.3138
70.8660,133.3661
70.8660,132.3340
71.3740,132.3340
71.3740,133.3661
71.5691,133.3138
71.7765,133.2171
71.9640,133.0858
72.1258,132.9240
72.2571,132.7365
72.3538,132.5291
72.4061,132.3340
71.3740,132.3340
70.8660,132.3340
69.8339,132.3340
62.2466,132.3340
62.2535,132.3081
62.2735,132.0800
62.2535,131.8519
62.2466,131.8260
69.8339,131.8260
70.8660,131.8260
70.8660,130.7939
71.3740,130.7939
71.3740,130.7939
71.3740,131.8260
72.4061,131.8260
72.3538,131.6309
72.2571,131.4235
72.1258,131.2360
71.9640,131.0742
71.7765,130.9429
71.5691,130.8462
71.3740,130.7939
70.8660,130.7939
70.6709,130.8462
70.4635,130.9429
70.2760,131.0742
70.1142,131.2360
69.9829,131.4235
69.8862,131.6309
69.8339,131.8260
62.2466,131.8260
62.1943,131.6308
62.0975,131.4233
61.9662,131.2357
61.9662,131.2357
61.9662,131.2357
61.8043,131.0738
61.6167,130.9425
61.4092,130.8457
61.1881,130.7865
60.9600,130.7665
60.7319,130.7865
60.5108,130.8457
60.3032,130.9425
60.1157,131.0738
59.9538,131.2357
59.8225,131.4232
59.7257,131.6308
59.6665,131.8519
59.6465,132.0800
50.8755,132.0800
50.8755,127.9486
60.8215,127.9486
60.8280,128.0092
60.8394,128.0398
60.8791,128.1462
60.9667,128.2633
61.0838,128.3509
61.0838,128.3509
61.0838,128.3509
61.2208,128.4020
61.2814,128.4085
63.1786,128.4085
63.2392,128.4020
63.3762,128.3509
63.4933,128.2633
63.5809,128.1462
63.6043,128.0835
63.6408,128.0315
63.6981,128.0039
63.7615,128.0078
63.8034,128.0348
63.8045,128.0334
63.8128,128.0398
63.8128,128.0398
63.9970,128.1832
64.2023,128.2943
64.4230,128.3701
64.6533,128.4085
64.8867,128.4085
64.8867,128.4085
65.1170,128.3701
65.3377,128.2943
65.5430,128.1832
65.7272,128.0398
65.8853,127.8681
66.0130,127.6727
66.1067,127.4589
66.1641,127.2326
66.1833,127.0000
66.1833,127.0000
74.3667,127.0000
74.3860,127.5166
74.4439,128.0304
74.5400,128.5384
74.6738,129.0377
74.8446,129.5257
75.0513,129.9996
75.2929,130.4567
75.5679,130.8944
75.8749,131.3104
76.2122,131.7023
76.5777,132.0678
76.9696,132.4051
77.3856,132.7121
77.8233,132.9871
78.2804,133.2287
78.5953,133.3661
78.7543,133.4354
79.2423,133.6062
79.7416,133.7400
79.7416,133.7400
79.7416,133.7400
80.0570,133.7997
80.2496,133.8361
80.7634,133.8940
81.2800,133.9133
81.7966,133.8940
82.3104,133.8361
82.6257,133.7765
82.8184,133.7400
82.8184,133.7400
82.8184,133.7400
83.3177,133.6062
83.8057,133.4354
84.1189,133.2988
84.2796,133.2287
84.3016,133.2171
84.7367,132.9871
85.1744,132.7121
85.5904,132.4051
85.9823,132.0678
86.3478,131.7023
86.6851,131.3104
86.9921,130.8944
87.2671,130.4567
87.5087,129.9996
87.7154,129.5257
87.8862,129.0377
88.0200,128.5384
88.0458,128.4020
88.0942,128.1462
88.1161,128.0304
88.1740,127.5166
88.1933,127.0000
88.1740,126.4834
88.1161,125.9696
88.0662,125.7057
88.0200,125.4616
88.0200,125.4616
87.8862,124.9623
87.7154,124.4743
87.6588,124.3445
87.5087,124.0004
87.2671,123.5433
86.9921,123.1056
86.6851,122.6896
86.3478,122.2977
85.9823,121.9322
85.5904,121.5949
85.1744,121.2879
84.7367,121.0129
84.2796,120.7713
83.8057,120.5646
83.3177,120.3938
82.8184,120.2600
82.3104,120.1639
82.3104,120.1639
82.3104,120.1639
82.2438,120.1564
81.7966,120.1060
81.2800,120.0867
80.7634,120.1060
80.2496,120.1639
79.7416,120.2600
79.2423,120.3938
78.7543,120.5646
78.2804,120.7713
77.8233,121.0129
77.3856,121.2879
76.9696,121.5949
76.5777,121.9322
76.2122,122.2977
75.8749,122.6896
75.5679,123.1056
75.2929,123.5433
75.0513,124.0004
74.8446,124.4743
74.6738,124.9623
74.5400,125.4616
74.4439,125.9696
74.3860,126.4834
74.3667,127.0000
66.1833,127.0000
66.1641,126.7674
66.1067,126.5411
66.0130,126.3273
65.8853,126.1319
65.7272,125.9602
65.5430,125.8168
65.5118,125.7999
65.3377,125.7057
65.1729,125.6491
65.1170,125.6299
64.8867,125.5915
64.6533,125.5915
64.4230,125.6299
64.4230,125.6299
64.4230,125.6299
64.2023,125.7057
63.9970,125.8168
63.8045,125.9666
63.8035,125.9652
63.7615,125.9922
63.6981,125.9961
63.6408,125.9685
63.6043,125.9164
63.5809,125.8538
63.4933,125.7367
63.3762,125.6491
63.3077,125.6236
63.2392,125.5980
63.1786,125.5915
61.2814,125.5915
61.2208,125.5980
61.0838,125.6491
60.9667,125.7367
60.8791,125.8538
60.8394,125.9602
60.8280,125.9908
60.8215,126.0514
60.8215,127.9486
50.8755,127.9486
50.8755,111.7600
59.6465,111.7600
59.6665,111.9881
59.7257,112.2092
59.8225,112.4167
59.9538,112.6043
60.1157,112.7662
60.3032,112.8975
60.5108,112.9943
60.5700,113.0102
60.7319,113.0535
60.9600,113.0735
61.1881,113.0535
61.4092,112.9943
61.6167,112.8975
61.8043,112.7662
61.9662,112.6043
62.0975,112.4167
62.1943,112.2092
62.2466,112.0140
69.8339,112.0140
69.8862,112.2091
69.9829,112.4165
70.1142,112.6040
70.2760,112.7658
70.4635,112.8971
70.6709,112.9938
70.8660,113.0461
70.8660,112.0140
71.3740,112.0140
71.3740,113.0461
71.5691,112.9938
71.7765,112.8971
71.9640,112.7658
72.1258,112.6040
72.2571,112.4165
72.3538,112.2091
72.4061,112.0140
71.3740,112.0140
70.8660,112.0140
69.8339,112.0140
62.2466,112.0140
62.2535,111.9881
62.2735,111.7600
62.2535,111.5319
62.2466,111.5060
69.8339,111.5060
70.8660,111.5060
70.8660,110.4739
71.3740,110.4739
71.3740,110.4739
71.3740,111.5060
72.4061,111.5060
72.3538,111.3109
72.2571,111.1035
72.1258,110.9160
71.9640,110.7542
71.7765,110.6229
71.5691,110.5262
71.3740,110.4739
70.8660,110.4739
70.6709,110.5262
70.4635,110.6229
70.2760,110.7542
70.1142,110.9160
69.9829,111.1035
69.8862,111.3109
69.8339,111.5060
62.2466,111.5060
62.1943,111.3108
62.0975,111.1033
61.9662,110.9157
61.9662,110.9157
61.9662,110.9157
61.8043,110.7538
61.6167,110.6225
61.4092,110.5257
61.1881,110.4665
60.9600,110.4465
60.7319,110.4665
60.5108,110.5257
60.3032,110.6225
60.1157,110.7538
59.9538,110.9157
59.8225,111.1032
59.7257,111.3108
59.6665,111.5319
59.6465,111.7600
50.8755,111.7600
50.8755,107.6286
60.8215,107.6286
60.8280,107.6892
60.8394,107.7198
60.8791,107.8262
60.9667,107.9433
61.0838,108.0309
61.0838,108.0309
61.0838,108.0309
61.2208,108.0820
61.2814,108.0885
63.1786,108.0885
63.2392,108.0820
63.3762,108.0309
63.4933,107.9433
63.5809,107.8262
63.6043,107.7635
63.6408,107.7115
63.6981,107.6839
63.7615,107.6878
63.8034,107.7148
63.8045,107.7134
63.8128,107.7198
63.8128,107.7198
63.9970,107.8632
64.2023,107.9743
64.4230,108.0501
64.6533,108.0885
64.8867,108.0885
64.8867,108.0885
65.1170,108.0501
65.3377,107.9743
65.5430,107.8632
65.7272,107.7198
65.8853,107.5481
66.0130,107.3527
66.1067,107.1389
66.1641,106.9126
66.1833,106.6800
66.1833,106.6800
74.3667,106.6800
74.3860,107.1966
74.4439,107.7104
74.5400,108.2184
74.6738,108.7177
74.8446,109.2057
75.0513,109.6796
75.2929,110.1367
75.5679,110.5744
75.8749,110.9904
76.2122,111.3823
76.5777,111.7478
76.9696,112.0851
77.3856,112.3921
77.8233,112.6671
78.2804,112.9087
78.5953,113.0461
78.7543,113.1154
79.2423,113.2862
79.7416,113.4200
79.7416,113.4200
79.7416,113.4200
80.0570,113.4797
80.2496,113.5161
80.7634,113.5740
81.2800,113.5933
81.7966,113.5740
82.3104,113.5161
82.6257,113.4565
82.8184,113.4200
82.8184,113.4200
82.8184,113.4200
83.3177,113.2862
83.8057,113.1154
84.1189,112.9788
84.2796,112.9087
84.3016,112.8971
84.7367,112.6671
85.1744,112.3921
85.5904,112.0851
85.9823,111.7478
86.3478,111.3823
86.6851,110.9904
86.9921,110.5744
87.2671,110.1367
87.5087,109.6796
87.7154,109.2057
87.8862,108.7177
88.0200,108.2184
88.0458,108.0820
88.0942,107.8262
88.1161,107.7104
88.1740,107.1966
88.1933,106.6800
88.1740,106.1634
88.1161,105.6496
88.0662,105.3857
88.0200,105.1416
88.0200,105.1416
87.8862,104.6423
87.7154,104.1543
87.6588,104.0245
87.5087,103.6804
87.2671,103.2233
86.9921,102.7856
86.6851,102.3696
86.3478,101.9777
85.9823,101.6122
85.5904,101.2749
85.1744,100.9679
84.7367,100.6929
84.2796,100.4513
83.8057,100.2446
83.3177,100.0738
82.8184,99.9400
82.3104,99.8439
82.3104,99.8439
82.3104,99.8439
82.2438,99.8364
81.7966,99.7860
81.2800,99.7667
80.7634,99.7860
80.2496,99.8439
79.7416,99.9400
79.2423,100.0738
78.7543,100.2446
78.2804,100.4513
77.8233,100.6929
77.3856,100.9679
76.9696,101.2749
76.5777,101.6122
76.2122,101.9777
75.8749,102.3696
75.5679,102.7856
75.2929,103.2233
75.0513,103.6804
74.8446,104.1543
74.6738,104.6423
74.5400,105.1416
74.4439,105.6496
74.3860,106.1634
74.3667,106.6800
66.1833,106.6800
66.1641,106.4474
66.1067,106.2211
66.0130,106.0073
65.8853,105.8119
65.7272,105.6402
65.5430,105.4968
65.5118,105.4799
65.3377,105.3857
65.1729,105.3291
65.1170,105.3099
64.8867,105.2715
64.6533,105.2715
64.4230,105.3099
64.4230,105.3099
64.4230,105.3099
64.2023,105.3857
63.9970,105.4968
63.8045,105.6466
63.8035,105.6452
63.7615,105.6722
63.6981,105.6761
63.6408,105.6485
63.6043,105.5964
63.5809,105.5338
63.4933,105.4167
63.3762,105.3291
63.3077,105.3036
63.2392,105.2780
63.1786,105.2715
61.2814,105.2715
61.2208,105.2780
61.0838,105.3291
60.9667,105.4167
60.8791,105.5338
60.8394,105.6402
60.8280,105.6708
60.8215,105.7314
60.8215,107.6286
50.8755,107.6286
50.8755,91.4400
59.6465,91.4400
59.6665,91.6681
59.7257,91.8892
59.8225,92.0968
59.9538,92.2843
60.1157,92.4462
60.3032,92.5775
60.5108,92.6743
60.5700,92.6902
60.7319,92.7335
60.9600,92.7535
61.1881,92.7335
61.4092,92.6743
61.6167,92.5775
61.8043,92.4462
61.9662,92.2843
62.0975,92.0967
62.1943,91.8892
62.2466,91.6940
69.8339,91.6940
69.8862,91.8891
69.9829,92.0965
70.1142,92.2840
70.2760,92.4458
70.4635,92.5771
70.6709,92.6738
70.8660,92.7261
70.8660,91.6940
71.3740,91.6940
71.3740,92.7261
71.5691,92.6738
71.7765,92.5771
71.9640,92.4458
72.1258,92.2840
72.2571,92.0965
72.3538,91.8891
72.4061,91.6940
71.3740,91.6940
70.8660,91.6940
69.8339,91.6940
62.2466,91.6940
62.2535,91.6681
62.2735,91.4400
62.2721,91.4243
76.5749,91.4243
76.5781,91.4275
76.9699,91.7647
77.3859,92.0716
77.8236,92.3467
78.2806,92.5883
78.7545,92.7950
79.2424,92.9657
79.7418,93.0995
80.2497,93.1956
80.7634,93.2535
81.2800,93.2728
81.7966,93.2535
82.3103,93.1956
82.8182,93.0995
83.3176,92.9657
83.8055,92.7950
84.2794,92.5883
84.7364,92.3467
85.1741,92.0716
85.5901,91.7647
85.9819,91.4275
85.9851,91.4243
85.9851,91.4243
81.2800,86.7192
81.2800,86.7192
76.5749,91.4243
76.5749,91.4243
62.2721,91.4243
62.2535,91.2119
62.2466,91.1860
69.8339,91.1860
70.8660,91.1860
70.8660,90.1539
71.3740,90.1539
71.3740,90.1539
71.3740,91.1860
72.4061,91.1860
72.3538,90.9909
72.2571,90.7835
72.1258,90.5960
71.9640,90.4342
71.7765,90.3029
71.5691,90.2062
71.3740,90.1539
70.8660,90.1539
70.6709,90.2062
70.4635,90.3029
70.2760,90.4342
70.1142,90.5960
69.9829,90.7835
69.8862,90.9909
69.8339,91.1860
62.2466,91.1860
62.1943,90.9908
62.0975,90.7833
61.9662,90.5957
61.9662,90.5957
61.9662,90.5957
61.8043,90.4338
61.6167,90.3025
61.4092,90.2057
61.1881,90.1465
60.9600,90.1265
60.7319,90.1465
60.5108,90.2057
60.3032,90.3025
60.1157,90.4338
59.9538,90.5957
59.8225,90.7832
59.7257,90.9908
59.6665,91.2119
59.6465,91.4400
50.8755,91.4400
50.8755,87.3086
60.8215,87.3086
60.8280,87.3692
60.8394,87.3998
60.8791,87.5062
60.9667,87.6233
61.0838,87.7109
61.0838,87.7109
61.0838,87.7109
61.2208,87.7620
61.2814,87.7685
63.1786,87.7685
63.2392,87.7620
63.3762,87.7109
63.4933,87.6233
63.5809,87.5062
63.6043,87.4435
63.6408,87.3915
63.6981,87.3639
63.7615,87.3678
63.8034,87.3948
63.8045,87.3934
63.8128,87.3998
63.8128,87.3998
63.9970,87.5432
64.2023,87.6543
64.4230,87.7301
64.6533,87.7685
64.8867,87.7685
64.8867,87.7685
65.1170,87.7301
65.3377,87.6543
65.5430,87.5432
65.7272,87.3998
65.8853,87.2281
66.0130,87.0327
66.1067,86.8189
66.1641,86.5926
66.1833,86.3600
74.3672,86.3600
74.3865,86.8766
74.4444,87.3903
74.5405,87.8982
74.6743,88.3976
74.8450,88.8855
75.0517,89.3594
75.2933,89.8164
75.5683,90.2541
75.8753,90.6701
76.2125,91.0619
76.2157,91.0651
76.2157,91.0651
80.9208,86.3600
81.6392,86.3600
86.3443,91.0651
86.3443,91.0651
86.3475,91.0619
86.6847,90.6701
86.9916,90.2541
87.2667,89.8164
87.5083,89.3594
87.7150,88.8855
87.8857,88.3976
88.0195,87.8982
88.1156,87.3903
88.1735,86.8766
88.1928,86.3600
88.1735,85.8434
88.1156,85.3297
88.0195,84.8218
87.8857,84.3224
87.7150,83.8345
87.5083,83.3606
87.2667,82.9036
86.9916,82.4659
86.6847,82.0499
86.3475,81.6581
86.3443,81.6549
86.3443,81.6549
81.6392,86.3600
81.6392,86.3600
80.9208,86.3600
80.9208,86.3600
76.2157,81.6549
76.2157,81.6549
76.2125,81.6581
75.8753,82.0499
75.5683,82.4659
75.2933,82.9036
75.0517,83.3606
74.8450,83.8345
74.6743,84.3224
74.5405,84.8218
74.4444,85.3297
74.3865,85.8434
74.3672,86.3600
66.1833,86.3600
66.1641,86.1274
66.1067,85.9011
66.0130,85.6873
65.8853,85.4919
65.7272,85.3202
65.5430,85.1768
65.5118,85.1599
65.3377,85.0657
65.1729,85.0091
65.1170,84.9899
64.8867,84.9515
64.6533,84.9515
64.4230,84.9899
64.4230,84.9899
64.4230,84.9899
64.2023,85.0657
63.9970,85.1768
63.8045,85.3266
63.8035,85.3252
63.7615,85.3522
63.6981,85.3561
63.6408,85.3285
63.6043,85.2764
63.5809,85.2138
63.4933,85.0967
63.3762,85.0091
63.3077,84.9836
63.2392,84.9580
63.1786,84.9515
61.2814,84.9515
61.2208,84.9580
61.0838,85.0091
60.9667,85.0967
60.8791,85.2138
60.8394,85.3202
60.8280,85.3508
60.8215,85.4114
60.8215,87.3086
50.8755,87.3086
50.8755,81.2957
76.5749,81.2957
81.2800,86.0008
81.2800,86.0008
85.9851,81.2957
85.9851,81.2957
85.9819,81.2925
85.5901,80.9553
85.1741,80.6483
84.7364,80.3733
84.2794,80.1317
83.8055,79.9250
83.3176,79.7543
82.8182,79.6205
82.3103,79.5244
81.7966,79.4665
81.2800,79.4472
80.7634,79.4665
80.2497,79.5244
79.7418,79.6205
79.2424,79.7543
78.7545,79.9250
78.2806,80.1317
77.8236,80.3733
77.3859,80.6483
76.9699,80.9553
76.5781,81.2925
76.5749,81.2957
76.5749,81.2957
50.8755,81.2957
50.8755,71.1200
59.6465,71.1200
59.6665,71.3481
59.7257,71.5692
59.8225,71.7767
59.9538,71.9643
60.1157,72.1262
60.3032,72.2575
60.5108,72.3543
60.5700,72.3702
60.7319,72.4135
60.9600,72.4335
61.1881,72.4135
61.4092,72.3543
61.6167,72.2575
61.8043,72.1262
61.9662,71.9643
62.0975,71.7767
62.1943,71.5692
62.2466,71.3740
69.8339,71.3740
69.8862,71.5691
69.9829,71.7765
70.1142,71.9640
70.2760,72.1258
70.4635,72.2571
70.6709,72.3538
70.8660,72.4061
70.8660,71.3740
71.3740,71.3740
71.3740,72.4061
71.5691,72.3538
71.7765,72.2571
71.9640,72.1258
72.1258,71.9640
72.2571,71.7765
72.3538,71.5691
72.4061,71.3740
71.3740,71.3740
70.8660,71.3740
69.8339,71.3740
62.2466,71.3740
62.2535,71.3481
62.2735,71.1200
62.2535,70.8919
62.2466,70.8660
69.8339,70.8660
70.8660,70.8660
70.8660,69.8339
71.3740,69.8339
71.3740,69.8339
71.3740,70.8660
72.4061,70.8660
72.3538,70.6709
72.2571,70.4635
72.1258,70.2760
71.9640,70.1142
71.7765,69.9829
71.5691,69.8862
71.3740,69.8339
70.8660,69.8339
70.6709,69.8862
70.4635,69.9829
70.2760,70.1142
70.1142,70.2760
69.9829,70.4635
69.8862,70.6709
69.8339,70.8660
62.2466,70.8660
62.1943,70.6708
62.0975,70.4633
61.9662,70.2757
61.9662,70.2757
61.9662,70.2757
61.8043,70.1138
61.6167,69.9825
61.4092,69.8857
61.1881,69.8265
60.9600,69.8065
60.7319,69.8265
60.5108,69.8857
60.3032,69.9825
60.1157,70.1138
59.9538,70.2757
59.8225,70.4632
59.7257,70.6708
59.6665,70.8919
59.6465,71.1200
50.8755,71.1200
50.8755,66.9886
60.8215,66.9886
60.8280,67.0492
60.8394,67.0798
60.8791,67.1862
60.9667,67.3033
61.0838,67.3909
61.0838,67.3909
61.0838,67.3909
61.2208,67.4420
61.2814,67.4485
63.1786,67.4485
63.2392,67.4420
63.3762,67.3909
63.4933,67.3033
63.5809,67.1862
63.6043,67.1235
63.6408,67.0715
63.6981,67.0439
63.7615,67.0478
63.8034,67.0748
63.8045,67.0734
63.8128,67.0798
63.8128,67.0798
63.9970,67.2232
64.2023,67.3343
64.4230,67.4101
64.6533,67.4485
64.8867,67.4485
64.8867,67.4485
65.1170,67.4101
65.3377,67.3343
65.5430,67.2232
65.7272,67.0798
65.8853,66.9081
66.0130,66.7127
66.1067,66.4989
66.1641,66.2726
66.1833,66.0400
74.3667,66.0400
74.3860,66.5566
74.4439,67.0704
74.5400,67.5784
74.6738,68.0777
74.8446,68.5657
75.0513,69.0396
75.2929,69.4967
75.5679,69.9344
75.8749,70.3504
76.2122,70.7423
76.5777,71.1078
76.9696,71.4451
77.3856,71.7521
77.8233,72.0271
78.2804,72.2687
78.5953,72.4061
78.7543,72.4754
79.2423,72.6462
79.7416,72.7800
79.7416,72.7800
79.7416,72.7800
80.0570,72.8397
80.2496,72.8761
80.7634,72.9340
81.2800,72.9533
81.7966,72.9340
82.3104,72.8761
82.6257,72.8165
82.8184,72.7800
82.8184,72.7800
82.8184,72.7800
83.3177,72.6462
83.8057,72.4754
84.1189,72.3388
84.2796,72.2687
84.3016,72.2571
84.7367,72.0271
85.1744,71.7521
85.5904,71.4451
85.9823,71.1078
86.3478,70.7423
86.6851,70.3504
86.9921,69.9344
87.2671,69.4967
87.5087,69.0396
87.7154,68.5657
87.8862,68.0777
88.0200,67.5784
88.0458,67.4420
88.0942,67.1862
88.1161,67.0704
88.1740,66.5566
88.1933,66.0400
88.1740,65.5234
88.1161,65.0096
88.0662,64.7457
88.0200,64.5016
88.0200,64.5016
87.8862,64.0023
87.7154,63.5143
87.6588,63.3845
87.5087,63.0404
87.2671,62.5833
86.9921,62.1456
86.6851,61.7296
86.3478,61.3377
85.9823,60.9722
85.5904,60.6349
85.1744,60.3279
84.7367,60.0529
84.2796,59.8113
83.8057,59.6046
83.3177,59.4338
83.2771,59.4229
83.2306,59.4105
82.8184,59.3000
82.3104,59.2039
82.3104,59.2039
82.3104,59.2039
82.2438,59.1964
81.7966,59.1460
81.2800,59.1267
80.7634,59.1460
80.2496,59.2039
79.7416,59.3000
79.2423,59.4338
78.7543,59.6046
78.2804,59.8113
77.8233,60.0529
77.3856,60.3279
76.9696,60.6349
76.5777,60.9722
76.2122,61.3377
75.8749,61.7296
75.5679,62.1456
75.2929,62.5833
75.0513,63.0404
74.8446,63.5143
74.6738,64.0023
74.5400,64.5016
74.4439,65.0096
74.3860,65.5234
74.3667,66.0400
66.1833,66.0400
66.1641,65.8074
66.1067,65.5811
66.0130,65.3673
65.8853,65.1719
65.7272,65.0002
65.5430,64.8568
65.5118,64.8399
65.3377,64.7457
65.1729,64.6891
65.1170,64.6699
64.8867,64.6315
64.6533,64.6315
64.4230,64.6699
64.4230,64.6699
64.4230,64.6699
64.2023,64.7457
63.9970,64.8568
63.8045,65.0066
63.8035,65.0052
63.7615,65.0322
63.6981,65.0361
63.6408,65.0085
63.6043,64.9564
63.5809,64.8938
63.4933,64.7767
63.3762,64.6891
63.3077,64.6636
63.2392,64.6380
63.1786,64.6315
61.2814,64.6315
61.2208,64.6380
61.0838,64.6891
60.9667,64.7767
60.8791,64.8938
60.8394,65.0002
60.8280,65.0308
60.8215,65.0914
60.8215,66.9886
50.8755,66.9886
50.8755,58.4200
57.0568,58.4200
57.0754,58.6444
57.0754,58.6444
57.0754,58.6444
57.1307,58.8626
57.2211,59.0688
57.3443,59.2573
57.4968,59.4229
57.6744,59.5612
57.6744,59.5612
57.8724,59.6683
58.0854,59.7414
58.3074,59.7785
58.5326,59.7785
58.5326,59.7785
58.7546,59.7414
58.9676,59.6683
59.1656,59.5612
59.3432,59.4229
59.4957,59.2573
59.5845,59.1214
59.6300,59.0795
59.6900,59.0643
59.7500,59.0795
59.7955,59.1214
59.8363,59.1839
59.8843,59.2573
60.0368,59.4229
60.2144,59.5612
60.2144,59.5612
60.4124,59.6683
60.6254,59.7414
60.8474,59.7785
61.0726,59.7785
61.0726,59.7785
61.2946,59.7414
61.5076,59.6683
61.7056,59.5612
61.7265,59.5449
62.7343,59.5449
62.7547,59.5608
62.9526,59.6679
63.1655,59.7410
63.3875,59.7780
63.6125,59.7780
63.8345,59.7410
64.0474,59.6679
64.2453,59.5608
64.2657,59.5449
65.2743,59.5449
65.2947,59.5608
65.4926,59.6679
65.7055,59.7410
65.9275,59.7780
66.1525,59.7780
66.3745,59.7410
66.5874,59.6679
66.7853,59.5608
66.8057,59.5449
66.8057,59.5449
66.0400,58.7792
66.0400,58.7792
65.2743,59.5449
64.2657,59.5449
64.2657,59.5449
63.5000,58.7792
63.5000,58.7792
62.7343,59.5449
61.7265,59.5449
61.8832,59.4229
62.0357,59.2573
62.1248,59.1209
62.1703,59.0790
62.2303,59.0638
62.2903,59.0790
62.3358,59.1209
62.3769,59.1839
63.1408,58.4200
63.8592,58.4200
64.6231,59.1839
64.6645,59.1204
64.7100,59.0785
64.7700,59.0634
64.8300,59.0785
64.8755,59.1204
64.9169,59.1839
65.6808,58.4200
66.3992,58.4200
67.1631,59.1839
67.1631,59.1839
67.2042,59.1209
67.2497,59.0790
67.3097,59.0638
67.3697,59.0790
67.4152,59.1209
67.5043,59.2573
67.6568,59.4229
67.8344,59.5612
67.8344,59.5612
68.0324,59.6683
68.2454,59.7414
68.4674,59.7785
68.6926,59.7785
68.6926,59.7785
68.9146,59.7414
69.1276,59.6683
69.3256,59.5612
69.5032,59.4229
69.6557,59.2573
69.7789,59.0688
69.8693,58.8626
69.9246,58.6444
69.9432,58.4200
69.9246,58.1956
69.8693,57.9774
69.7789,57.7712
69.6557,57.5827
69.5032,57.4171
69.5032,57.4171
69.5032,57.4171
69.3256,57.2788
69.2923,57.2608
69.2440,57.2145
69.2263,57.1500
69.2440,57.0855
69.2923,57.0392
69.3256,57.0212
69.5032,56.8829
69.6557,56.7173
69.7789,56.5288
69.8693,56.3226
69.9246,56.1044
69.9432,55.8800
69.9246,55.6556
69.8693,55.4374
69.7789,55.2312
69.6557,55.0427
69.5032,54.8771
69.5032,54.8771
69.5032,54.8771
69.3256,54.7388
69.1276,54.6317
68.9834,54.5822
68.9146,54.5586
68.6926,54.5215
68.4674,54.5215
68.2454,54.5586
68.2454,54.5586
68.2454,54.5586
68.0324,54.6317
67.8344,54.7388
67.6568,54.8771
67.5043,55.0427
67.4152,55.1791
67.3697,55.2210
67.3097,55.2362
67.2497,55.2210
67.2042,55.1791
67.1631,55.1161
66.3992,55.8800
66.3992,55.8800
67.1631,56.6439
67.1631,56.6439
67.2042,56.5809
67.2497,56.5390
67.3097,56.5238
67.3697,56.5390
67.4152,56.5809
67.5043,56.7173
67.5830,56.8027
67.6568,56.8829
67.7477,56.9537
67.8344,57.0212
67.8677,57.0392
67.9160,57.0855
67.9337,57.1500
67.9160,57.2145
67.8677,57.2608
67.8344,57.2788
67.6568,57.4171
67.5043,57.5827
67.4152,57.7191
67.3697,57.7610
67.3097,57.7762
67.2497,57.7610
67.2042,57.7191
67.1631,57.6561
66.3992,58.4200
66.3992,58.4200
65.6808,58.4200
65.6808,58.4200
64.9169,57.6561
64.8755,57.7196
64.8300,57.7615
64.7700,57.7766
64.7100,57.7615
64.6645,57.7196
64.6231,57.6561
63.8592,58.4200
63.8592,58.4200
63.1408,58.4200
63.1408,58.4200
62.3769,57.6561
62.3358,57.7191
62.2903,57.7610
62.2303,57.7762
62.1703,57.7610
62.1248,57.7191
62.1245,57.7186
62.0357,57.5827
61.8832,57.4171
61.8832,57.4171
61.8832,57.4171
61.7265,57.2951
62.7343,57.2951
63.5000,58.0608
63.5000,58.0608
64.2657,57.2951
65.2743,57.2951
66.0400,58.0608
66.0400,58.0608
66.8057,57.2951
66.8057,57.2951
66.7853,57.2792
66.7513,57.2608
66.7030,57.2145
66.6852,57.1500
66.7030,57.0855
66.7513,57.0392
66.7853,57.0208
66.8057,57.0049
66.8057,57.0049
66.0400,56.2392
66.0400,56.2392
65.2743,57.0049
65.2947,57.0208
65.3287,57.0392
65.3770,57.0855
65.3948,57.1500
65.3770,57.2145
65.3287,57.2608
65.2947,57.2792
65.2743,57.2951
65.2743,57.2951
64.2657,57.2951
64.2657,57.2951
64.2657,57.2951
64.2453,57.2792
64.2113,57.2608
64.1630,57.2145
64.1452,57.1500
64.1630,57.0855
64.2113,57.0392
64.2453,57.0208
64.2657,57.0049
64.2657,57.0049
63.5000,56.2392
63.5000,56.2392
62.7343,57.0049
62.7547,57.0208
62.7887,57.0392
62.8370,57.0855
62.8548,57.1500
62.8370,57.2145
62.7887,57.2608
62.7547,57.2792
62.7343,57.2951
62.7343,57.2951
61.7265,57.2951
61.7056,57.2788
61.6723,57.2608
61.6240,57.2145
61.6063,57.1500
61.6240,57.0855
61.6723,57.0392
61.7056,57.0212
61.8832,56.8829
62.0357,56.7173
62.1248,56.5809
62.1703,56.5390
62.2303,56.5238
62.2903,56.5390
62.3358,56.5809
62.3769,56.6439
63.1408,55.8800
63.8592,55.8800
64.6231,56.6439
64.6645,56.5804
64.7100,56.5385
64.7700,56.5234
64.8300,56.5385
64.8755,56.5804
64.9169,56.6439
65.6808,55.8800
64.9169,55.1161
64.8755,55.1796
64.8300,55.2215
64.7700,55.2366
64.7100,55.2215
64.6645,55.1796
64.6231,55.1161
63.8592,55.8800
63.8592,55.8800
63.1408,55.8800
63.1408,55.8800
62.3769,55.1161
62.3358,55.1791
62.2903,55.2210
62.2303,55.2362
62.1703,55.2210
62.1248,55.1791
62.0898,55.1256
62.0357,55.0427
61.8832,54.8771
61.8832,54.8771
61.8832,54.8771
61.7265,54.7551
62.7343,54.7551
63.5000,55.5208
63.5000,55.5208
64.2657,54.7551
65.2743,54.7551
66.0400,55.5208
66.0400,55.5208
66.8057,54.7551
66.8057,54.7551
66.7853,54.7392
66.5874,54.6321
66.3745,54.5590
66.1525,54.5220
65.9275,54.5220
65.7055,54.5590
65.4926,54.6321
65.2947,54.7392
65.2743,54.7551
65.2743,54.7551
64.2657,54.7551
64.2657,54.7551
64.2657,54.7551
64.2453,54.7392
64.0474,54.6321
63.8345,54.5590
63.6125,54.5220
63.3875,54.5220
63.1655,54.5590
62.9526,54.6321
62.7547,54.7392
62.7343,54.7551
62.7343,54.7551
61.7265,54.7551
61.7056,54.7388
61.5076,54.6317
61.3634,54.5822
61.2946,54.5586
61.0726,54.5215
60.8474,54.5215
60.6254,54.5586
60.6254,54.5586
60.6254,54.5586
60.4124,54.6317
60.2144,54.7388
60.0368,54.8771
59.9235,55.0001
59.8689,55.0349
59.8043,55.0380
59.7466,55.0086
59.7208,54.9692
59.7198,54.9698
59.7121,54.9573
59.7121,54.9573
59.6190,54.8063
59.6190,54.8063
59.6190,54.8063
59.4937,54.6810
59.4937,54.6810
59.3427,54.5879
59.1744,54.5321
59.0705,54.5215
59.0705,54.5215
57.7695,54.5215
57.6656,54.5321
57.4973,54.5879
57.3463,54.6810
57.2210,54.8063
57.2210,54.8063
57.1279,54.9573
57.0721,55.1256
57.0666,55.1791
57.0615,55.2295
57.0615,56.5305
57.0637,56.5520
57.0721,56.6344
57.1279,56.8027
57.1773,56.8829
57.2210,56.9537
57.3463,57.0790
57.3463,57.0790
57.3463,57.0790
57.4973,57.1721
57.4973,57.1721
57.5098,57.1798
57.5090,57.1811
57.5497,57.2084
57.5783,57.2692
57.5717,57.3361
57.5316,57.3900
57.4968,57.4171
57.3443,57.5827
57.2211,57.7712
57.1307,57.9774
57.0754,58.1956
57.0754,58.1956
57.0568,58.4200
50.8755,58.4200
50.8755,51.0015
50.8924,50.9385
50.9385,50.8924
51.0015,50.8755
90.8985,50.8755
Z" /> 
</g>
</g>
</g>
<g style="fill:#FFFFFF; fill-opacity:1.0000; 
stroke:#FFFFFF; stroke-width:0.0000; stroke-opacity:1; 
stroke-linecap:round; stroke-linejoin:round;">
<circle cx="62.2300" cy="86.3600" r="0.1750" /> 
</g>
<g style="fill:#FFFFFF; fill-opacity:1.0000; 
stroke:#FFFFFF; stroke-width:0.0212; stroke-opacity:1; 
stroke-linecap:round; stroke-linejoin:round;">
</g>
<g style="fill:#FFFFFF; fill-opacity:1.0000; 
stroke:#FFFFFF; stroke-width:0.0000; stroke-opacity:1; 
stroke-linecap:round; stroke-linejoin:round;">
<circle cx="64.7700" cy="86.3600" r="0.1750" /> 
</g>
<g style="fill:#FFFFFF; fill-opacity:1.0000; 
stroke:#FFFFFF; stroke-width:0.0212; stroke-opacity:1; 
stroke-linecap:round; stroke-linejoin:round;">
</g>
<g style="fill:#FFFFFF; fill-opacity:1.0000; 
stroke:#FFFFFF; stroke-width:0.0000; stroke-opacity:1; 
stroke-linecap:round; stroke-linejoin:round;">
<circle cx="62.2300" cy="106.6800" r="0.1750" /> 
</g>
<g style="fill:#FFFFFF; fill-opacity:1.0000; 
stroke:#FFFFFF; stroke-width:0.0212; stroke-opacity:1; 
stroke-linecap:round; stroke-linejoin:round;">
</g>
<g style="fill:#FFFFFF; fill-opacity:1.0000; 
stroke:#FFFFFF; stroke-width:0.0000; stroke-opacity:1; 
stroke-linecap:round; stroke-linejoin:round;">
<circle cx="64.7700" cy="106.6800" r="0.1750" /> 
</g>
<g style="fill:#FFFFFF; fill-opacity:1.0000; 
stroke:#FFFFFF; stroke-width:0.0212; stroke-opacity:1; 
stroke-linecap:round; stroke-linejoin:round;">
</g>
<g style="fill:#FFFFFF; fill-opacity:1.0000; 
stroke:#FFFFFF; stroke-width:0.0000; stroke-opacity:1; 
stroke-linecap:round; stroke-linejoin:round;">
<circle cx="62.2300" cy="127.0000" r="0.1750" /> 
</g>
<g style="fill:#FFFFFF; fill-opacity:1.0000; 
stroke:#FFFFFF; stroke-width:0.0212; stroke-opacity:1; 
stroke-linecap:round; stroke-linejoin:round;">
</g>
<g style="fill:#FFFFFF; fill-opacity:1.0000; 
stroke:#FFFFFF; stroke-width:0.0000; stroke-opacity:1; 
stroke-linecap:round; stroke-linejoin:round;">
<circle cx="64.7700" cy="127.0000" r="0.1750" /> 
</g>
<g style="fill:#FFFFFF; fill-opacity:1.0000; 
stroke:#FFFFFF; stroke-width:0.0212; stroke-opacity:1; 
stroke-linecap:round; stroke-linejoin:round;">
</g>
<g style="fill:#FFFFFF; fill-opacity:1.0000; 
stroke:#FFFFFF; stroke-width:0.0000; stroke-opacity:1; 
stroke-linecap:round; stroke-linejoin:round;">
<circle cx="62.2300" cy="66.0400" r="0.1750" /> 
</g>
<g style="fill:#FFFFFF; fill-opacity:1.0000; 
stroke:#FFFFFF; stroke-width:0.0212; stroke-opacity:1; 
stroke-linecap:round; stroke-linejoin:round;">
</g>
<g style="fill:#FFFFFF; fill-opacity:1.0000; 
stroke:#FFFFFF; stroke-width:0.0000; stroke-opacity:1; 
stroke-linecap:round; stroke-linejoin:round;">
<circle cx="64.7700" cy="66.0400" r="0.1750" /> 
</g>
<g style="fill:#FFFFFF; fill-opacity:1.0000; 
stroke:#FFFFFF; stroke-width:0.0212; stroke-opacity:1; 
stroke-linecap:round; stroke-linejoin:round;">
</g>
<g style="fill:#FFFFFF; fill-opacity:1.0000; 
stroke:#FFFFFF; stroke-width:0.0000; stroke-opacity:1; 
stroke-linecap:round; stroke-linejoin:round;">
<circle cx="66.0400" cy="148.5900" r="0.1750" /> 
</g>
<g style="fill:#FFFFFF; fill-opacity:1.0000; 
stroke:#FFFFFF; stroke-width:0.0212; stroke-opacity:1; 
stroke-linecap:round; stroke-linejoin:round;">
</g>
<g style="fill:#FFFFFF; fill-opacity:1.0000; 
stroke:#FFFFFF; stroke-width:0.0000; stroke-opacity:1; 
stroke-linecap:round; stroke-linejoin:round;">
<circle cx="66.0400" cy="146.0500" r="0.1750" /> 
</g>
<g style="fill:#FFFFFF; fill-opacity:1.0000; 
stroke:#FFFFFF; stroke-width:0.0212; stroke-opacity:1; 
stroke-linecap:round; stroke-linejoin:round;">
</g>
<g style="fill:#FFFFFF; fill-opacity:1.0000; 
stroke:#FFFFFF; stroke-width:0.0000; stroke-opacity:1; 
stroke-linecap:round; stroke-linejoin:round;">
<circle cx="68.5800" cy="148.5900" r="0.1750" /> 
</g>
<g style="fill:#FFFFFF; fill-opacity:1.0000; 
stroke:#FFFFFF; stroke-width:0.0212; stroke-opacity:1; 
stroke-linecap:round; stroke-linejoin:round;">
</g>
<g style="fill:#FFFFFF; fill-opacity:1.0000; 
stroke:#FFFFFF; stroke-width:0.0000; stroke-opacity:1; 
stroke-linecap:round; stroke-linejoin:round;">
<circle cx="68.5800" cy="146.0500" r="0.1750" /> 
</g>
<g style="fill:#FFFFFF; fill-opacity:1.0000; 
stroke:#FFFFFF; stroke-width:0.0212; stroke-opacity:1; 
stroke-linecap:round; stroke-linejoin:round;">
</g>
<g style="fill:#FFFFFF; fill-opacity:1.0000; 
stroke:#FFFFFF; stroke-width:0.0000; stroke-opacity:1; 
stroke-linecap:round; stroke-linejoin:round;">
<circle cx="71.1200" cy="148.5900" r="0.1750" /> 
</g>
<g style="fill:#FFFFFF; fill-opacity:1.0000; 
stroke:#FFFFFF; stroke-width:0.0212; stroke-opacity:1; 
stroke-linecap:round; stroke-linejoin:round;">
</g>
<g style="fill:#FFFFFF; fill-opacity:1.0000; 
stroke:#FFFFFF; stroke-width:0.0000; stroke-opacity:1; 
stroke-linecap:round; stroke-linejoin:round;">
<circle cx="71.1200" cy="146.0500" r="0.1750" /> 
</g>
<g style="fill:#FFFFFF; fill-opacity:1.0000; 
stroke:#FFFFFF; stroke-width:0.0212; stroke-opacity:1; 
stroke-linecap:round; stroke-linejoin:round;">
</g>
<g style="fill:#FFFFFF; fill-opacity:1.0000; 
stroke:#FFFFFF; stroke-width:0.0000; stroke-opacity:1; 
stroke-linecap:round; stroke-linejoin:round;">
<circle cx="73.6600" cy="148.5900" r="0.1750" /> 
</g>
<g style="fill:#FFFFFF; fill-opacity:1.0000; 
stroke:#FFFFFF; stroke-width:0.0212; stroke-opacity:1; 
stroke-linecap:round; stroke-linejoin:round;">
</g>
<g style="fill:#FFFFFF; fill-opacity:1.0000; 
stroke:#FFFFFF; stroke-width:0.0000; stroke-opacity:1; 
stroke-linecap:round; stroke-linejoin:round;">
<circle cx="73.6600" cy="146.0500" r="0.1750" /> 
</g>
<g style="fill:#FFFFFF; fill-opacity:1.0000; 
stroke:#FFFFFF; stroke-width:0.0212; stroke-opacity:1; 
stroke-linecap:round; stroke-linejoin:round;">
</g>
<g style="fill:#FFFFFF; fill-opacity:1.0000; 
stroke:#FFFFFF; stroke-width:0.0000; stroke-opacity:1; 
stroke-linecap:round; stroke-linejoin:round;">
<circle cx="76.2000" cy="148.5900" r="0.1750" /> 
</g>
<g style="fill:#FFFFFF; fill-opacity:1.0000; 
stroke:#FFFFFF; stroke-width:0.0212; stroke-opacity:1; 
stroke-linecap:round; stroke-linejoin:round;">
</g>
<g style="fill:#FFFFFF; fill-opacity:1.0000; 
stroke:#FFFFFF; stroke-width:0.0000; stroke-opacity:1; 
stroke-linecap:round; stroke-linejoin:round;">
<circle cx="76.2000" cy="146.0500" r="0.1750" /> 
</g>
<g style="fill:#FFFFFF; fill-opacity:1.0000; 
stroke:#FFFFFF; stroke-width:0.0212; stroke-opacity:1; 
stroke-linecap:round; stroke-linejoin:round;">
</g>
<g style="fill:#FFFFFF; fill-opacity:1.0000; 
stroke:#FFFFFF; stroke-width:0.0000; stroke-opacity:1; 
stroke-linecap:round; stroke-linejoin:round;">
<circle cx="81.2800" cy="66.0400" r="0.1750" /> 
</g>
<g style="fill:#FFFFFF; fill-opacity:1.0000; 
stroke:#FFFFFF; stroke-width:0.0212; stroke-opacity:1; 
stroke-linecap:round; stroke-linejoin:round;">
</g>
<g style="fill:#FFFFFF; fill-opacity:1.0000; 
stroke:#FFFFFF; stroke-width:0.0000; stroke-opacity:1; 
stroke-linecap:round; stroke-linejoin:round;">
<circle cx="60.9600" cy="91.4400" r="0.1750" /> 
</g>
<g style="fill:#FFFFFF; fill-opacity:1.0000; 
stroke:#FFFFFF; stroke-width:0.0212; stroke-opacity:1; 
stroke-linecap:round; stroke-linejoin:round;">
</g>
<g style="fill:#FFFFFF; fill-opacity:1.0000; 
stroke:#FFFFFF; stroke-width:0.0000; stroke-opacity:1; 
stroke-linecap:round; stroke-linejoin:round;">
<circle cx="71.1200" cy="91.4400" r="0.1750" /> 
</g>
<g style="fill:#FFFFFF; fill-opacity:1.0000; 
stroke:#FFFFFF; stroke-width:0.0212; stroke-opacity:1; 
stroke-linecap:round; stroke-linejoin:round;">
</g>
<g style="fill:#FFFFFF; fill-opacity:1.0000; 
stroke:#FFFFFF; stroke-width:0.0000; stroke-opacity:1; 
stroke-linecap:round; stroke-linejoin:round;">
<circle cx="60.9600" cy="111.7600" r="0.1750" /> 
</g>
<g style="fill:#FFFFFF; fill-opacity:1.0000; 
stroke:#FFFFFF; stroke-width:0.0212; stroke-opacity:1; 
stroke-linecap:round; stroke-linejoin:round;">
</g>
<g style="fill:#FFFFFF; fill-opacity:1.0000; 
stroke:#FFFFFF; stroke-width:0.0000; stroke-opacity:1; 
stroke-linecap:round; stroke-linejoin:round;">
<circle cx="71.1200" cy="111.7600" r="0.1750" /> 
</g>
<g style="fill:#FFFFFF; fill-opacity:1.0000; 
stroke:#FFFFFF; stroke-width:0.0212; stroke-opacity:1; 
stroke-linecap:round; stroke-linejoin:round;">
</g>
<g style="fill:#FFFFFF; fill-opacity:1.0000; 
stroke:#FFFFFF; stroke-width:0.0000; stroke-opacity:1; 
stroke-linecap:round; stroke-linejoin:round;">
<circle cx="60.9600" cy="132.0800" r="0.1750" /> 
</g>
<g style="fill:#FFFFFF; fill-opacity:1.0000; 
stroke:#FFFFFF; stroke-width:0.0212; stroke-opacity:1; 
stroke-linecap:round; stroke-linejoin:round;">
</g>
<g style="fill:#FFFFFF; fill-opacity:1.0000; 
stroke:#FFFFFF; stroke-width:0.0000; stroke-opacity:1; 
stroke-linecap:round; stroke-linejoin:round;">
<circle cx="71.1200" cy="132.0800" r="0.1750" /> 
</g>
<g style="fill:#FFFFFF; fill-opacity:1.0000; 
stroke:#FFFFFF; stroke-width:0.0212; stroke-opacity:1; 
stroke-linecap:round; stroke-linejoin:round;">
</g>
<g style="fill:#FFFFFF; fill-opacity:1.0000; 
stroke:#FFFFFF; stroke-width:0.0000; stroke-opacity:1; 
stroke-linecap:round; stroke-linejoin:round;">
<circle cx="60.9600" cy="71.1200" r="0.1750" /> 
</g>
<g style="fill:#FFFFFF; fill-opacity:1.0000; 
stroke:#FFFFFF; stroke-width:0.0212; stroke-opacity:1; 
stroke-linecap:round; stroke-linejoin:round;">
</g>
<g style="fill:#FFFFFF; fill-opacity:1.0000; 
stroke:#FFFFFF; stroke-width:0.0000; stroke-opacity:1; 
stroke-linecap:round; stroke-linejoin:round;">
<circle cx="71.1200" cy="71.1200" r="0.1750" /> 
</g>
<g style="fill:#FFFFFF; fill-opacity:1.0000; 
stroke:#FFFFFF; stroke-width:0.0212; stroke-opacity:1; 
stroke-linecap:round; stroke-linejoin:round;">
</g>
<g style="fill:#FFFFFF; fill-opacity:1.0000; 
stroke:#FFFFFF; stroke-width:0.0000; stroke-opacity:1; 
stroke-linecap:round; stroke-linejoin:round;">
<circle cx="81.2800" cy="106.6800" r="0.1750" /> 
</g>
<g style="fill:#FFFFFF; fill-opacity:1.0000; 
stroke:#FFFFFF; stroke-width:0.0212; stroke-opacity:1; 
stroke-linecap:round; stroke-linejoin:round;">
</g>
<g style="fill:#FFFFFF; fill-opacity:1.0000; 
stroke:#FFFFFF; stroke-width:0.0000; stroke-opacity:1; 
stroke-linecap:round; stroke-linejoin:round;">
<circle cx="81.2800" cy="127.0000" r="0.1750" /> 
</g>
<g style="fill:#FFFFFF; fill-opacity:1.0000; 
stroke:#FFFFFF; stroke-width:0.0212; stroke-opacity:1; 
stroke-linecap:round; stroke-linejoin:round;">
</g>
<g style="fill:#FFFFFF; fill-opacity:1.0000; 
stroke:#FFFFFF; stroke-width:0.0000; stroke-opacity:1; 
stroke-linecap:round; stroke-linejoin:round;">
<circle cx="81.2800" cy="86.3600" r="0.1750" /> 
</g>
<g style="fill:#FFFFFF; fill-opacity:1.0000; 
stroke:#FFFFFF; stroke-width:0.0212; stroke-opacity:1; 
stroke-linecap:round; stroke-linejoin:round;">
</g>
<g style="fill:#FFFFFF; fill-opacity:1.0000; 
stroke:#FFFFFF; stroke-width:0.0000; stroke-opacity:1; 
stroke-linecap:round; stroke-linejoin:round;">
<circle cx="58.4200" cy="55.8800" r="0.1750" /> 
</g>
<g style="fill:#FFFFFF; fill-opacity:1.0000; 
stroke:#FFFFFF; stroke-width:0.0212; stroke-opacity:1; 
stroke-linecap:round; stroke-linejoin:round;">
</g>
<g style="fill:#FFFFFF; fill-opacity:1.0000; 
stroke:#FFFFFF; stroke-width:0.0000; stroke-opacity:1; 
stroke-linecap:round; stroke-linejoin:round;">
<circle cx="58.4200" cy="58.4200" r="0.1750" /> 
</g>
<g style="fill:#FFFFFF; fill-opacity:1.0000; 
stroke:#FFFFFF; stroke-width:0.0212; stroke-opacity:1; 
stroke-linecap:round; stroke-linejoin:round;">
</g>
<g style="fill:#FFFFFF; fill-opacity:1.0000; 
stroke:#FFFFFF; stroke-width:0.0000; stroke-opacity:1; 
stroke-linecap:round; stroke-linejoin:round;">
<circle cx="60.9600" cy="55.8800" r="0.1750" /> 
</g>
<g style="fill:#FFFFFF; fill-opacity:1.0000; 
stroke:#FFFFFF; stroke-width:0.0212; stroke-opacity:1; 
stroke-linecap:round; stroke-linejoin:round;">
</g>
<g style="fill:#FFFFFF; fill-opacity:1.0000; 
stroke:#FFFFFF; stroke-width:0.0000; stroke-opacity:1; 
stroke-linecap:round; stroke-linejoin:round;">
<circle cx="60.9600" cy="58.4200" r="0.1750" /> 
</g>
<g style="fill:#FFFFFF; fill-opacity:1.0000; 
stroke:#FFFFFF; stroke-width:0.0212; stroke-opacity:1; 
stroke-linecap:round; stroke-linejoin:round;">
</g>
<g style="fill:#FFFFFF; fill-opacity:1.0000; 
stroke:#FFFFFF; stroke-width:0.0000; stroke-opacity:1; 
stroke-linecap:round; stroke-linejoin:round;">
<circle cx="63.5000" cy="55.8800" r="0.1750" /> 
</g>
<g style="fill:#FFFFFF; fill-opacity:1.0000; 
stroke:#FFFFFF; stroke-width:0.0212; stroke-opacity:1; 
stroke-linecap:round; stroke-linejoin:round;">
</g>
<g style="fill:#FFFFFF; fill-opacity:1.0000; 
stroke:#FFFFFF; stroke-width:0.0000; stroke-opacity:1; 
stroke-linecap:round; stroke-linejoin:round;">
<circle cx="63.5000" cy="58.4200" r="0.1750" /> 
</g>
<g style="fill:#FFFFFF; fill-opacity:1.0000; 
stroke:#FFFFFF; stroke-width:0.0212; stroke-opacity:1; 
stroke-linecap:round; stroke-linejoin:round;">
</g>
<g style="fill:#FFFFFF; fill-opacity:1.0000; 
stroke:#FFFFFF; stroke-width:0.0000; stroke-opacity:1; 
stroke-linecap:round; stroke-linejoin:round;">
<circle cx="66.0400" cy="55.8800" r="0.1750" /> 
</g>
<g style="fill:#FFFFFF; fill-opacity:1.0000; 
stroke:#FFFFFF; stroke-width:0.0212; stroke-opacity:1; 
stroke-linecap:round; stroke-linejoin:round;">
</g>
<g style="fill:#FFFFFF; fill-opacity:1.0000; 
stroke:#FFFFFF; stroke-width:0.0000; stroke-opacity:1; 
stroke-linecap:round; stroke-linejoin:round;">
<circle cx="66.0400" cy="58.4200" r="0.1750" /> 
</g>
<g style="fill:#FFFFFF; fill-opacity:1.0000; 
stroke:#FFFFFF; stroke-width:0.0212; stroke-opacity:1; 
stroke-linecap:round; stroke-linejoin:round;">
</g>
<g style="fill:#FFFFFF; fill-opacity:1.0000; 
stroke:#FFFFFF; stroke-width:0.0000; stroke-opacity:1; 
stroke-linecap:round; stroke-linejoin:round;">
<circle cx="68.5800" cy="55.8800" r="0.1750" /> 
</g>
<g style="fill:#FFFFFF; fill-opacity:1.0000; 
stroke:#FFFFFF; stroke-width:0.0212; stroke-opacity:1; 
stroke-linecap:round; stroke-linejoin:round;">
</g>
<g style="fill:#FFFFFF; fill-opacity:1.0000; 
stroke:#FFFFFF; stroke-width:0.0000; stroke-opacity:1; 
stroke-linecap:round; stroke-linejoin:round;">
<circle cx="68.5800" cy="58.4200" r="0.1750" /> 
</g>
<g style="fill:#FFFFFF; fill-opacity:1.0000; 
stroke:#FFFFFF; stroke-width:0.0212; stroke-opacity:1; 
stroke-linecap:round; stroke-linejoin:round;">
</g>
<g style="fill:#000000; fill-opacity:1.0000; 
stroke:#000000; stroke-width:0.0212; stroke-opacity:1; 
stroke-linecap:round; stroke-linejoin:round;">
</g> 
</svg>
