<?xml version="1.0" standalone="no"?>
 <!DOCTYPE svg PUBLIC "-//W3C//DTD SVG 1.1//EN" 
 "http://www.w3.org/Graphics/SVG/1.1/DTD/svg11.dtd"> 
<svg
  xmlns:svg="http://www.w3.org/2000/svg"
  xmlns="http://www.w3.org/2000/svg"
  xmlns:xlink="http://www.w3.org/1999/xlink"
  version="1.1"
  width="297.0022mm" height="210.0072mm" viewBox="0.0000 0.0000 297.0022 210.0072">
<title>SVG Image created as mount-B_Fab.svg date 2023/11/08 17:25:30 </title>
  <desc>Image generated by PCBNEW </desc>
<g style="fill:#000000; fill-opacity:1.0000;stroke:#000000; stroke-opacity:1.0000;
stroke-linecap:round; stroke-linejoin:round;"
 transform="translate(0 0) scale(1 1)">
</g>
<g style="fill:#000000; fill-opacity:0.0; 
stroke:#000000; stroke-width:0.0000; stroke-opacity:1; 
stroke-linecap:round; stroke-linejoin:round;">
</g>
<g style="fill:#000000; fill-opacity:0.0; 
stroke:#000000; stroke-width:0.1500; stroke-opacity:1; 
stroke-linecap:round; stroke-linejoin:round;">
<g transform="rotate(-90.000000 74.6800 57.1500)">
<text x="74.6800" y="57.6500"
transform="scale(-1 1) translate(-149.360000 0)"
textLength="8.6786" font-size="1.3333" lengthAdjust="spacingAndGlyphs"
text-anchor="middle" opacity="0">IDC Header</text>
</g>
<g class="stroked-text"><desc>IDC Header</desc>
<path d="M75.1348 53.1738
L74.1348 53.1738
" />
<path d="M75.1348 53.6500
L74.1348 53.6500
" />
<path d="M74.1348 53.6500
L74.1348 53.8881
" />
<path d="M74.1348 53.8881
L74.1824 54.0310
" />
<path d="M74.1824 54.0310
L74.2777 54.1262
" />
<path d="M74.2777 54.1262
L74.3729 54.1738
" />
<path d="M74.3729 54.1738
L74.5634 54.2214
" />
<path d="M74.5634 54.2214
L74.7062 54.2214
" />
<path d="M74.7062 54.2214
L74.8967 54.1738
" />
<path d="M74.8967 54.1738
L74.9920 54.1262
" />
<path d="M74.9920 54.1262
L75.0872 54.0310
" />
<path d="M75.0872 54.0310
L75.1348 53.8881
" />
<path d="M75.1348 53.8881
L75.1348 53.6500
" />
<path d="M75.0396 55.2214
L75.0872 55.1738
" />
<path d="M75.0872 55.1738
L75.1348 55.0310
" />
<path d="M75.1348 55.0310
L75.1348 54.9357
" />
<path d="M75.1348 54.9357
L75.0872 54.7929
" />
<path d="M75.0872 54.7929
L74.9920 54.6976
" />
<path d="M74.9920 54.6976
L74.8967 54.6500
" />
<path d="M74.8967 54.6500
L74.7062 54.6024
" />
<path d="M74.7062 54.6024
L74.5634 54.6024
" />
<path d="M74.5634 54.6024
L74.3729 54.6500
" />
<path d="M74.3729 54.6500
L74.2777 54.6976
" />
<path d="M74.2777 54.6976
L74.1824 54.7929
" />
<path d="M74.1824 54.7929
L74.1348 54.9357
" />
<path d="M74.1348 54.9357
L74.1348 55.0310
" />
<path d="M74.1348 55.0310
L74.1824 55.1738
" />
<path d="M74.1824 55.1738
L74.2301 55.2214
" />
<path d="M75.1348 56.4119
L74.1348 56.4119
" />
<path d="M74.6110 56.4119
L74.6110 56.9833
" />
<path d="M75.1348 56.9833
L74.1348 56.9833
" />
<path d="M75.0872 57.8405
L75.1348 57.7452
" />
<path d="M75.1348 57.7452
L75.1348 57.5548
" />
<path d="M75.1348 57.5548
L75.0872 57.4595
" />
<path d="M75.0872 57.4595
L74.9920 57.4119
" />
<path d="M74.9920 57.4119
L74.6110 57.4119
" />
<path d="M74.6110 57.4119
L74.5158 57.4595
" />
<path d="M74.5158 57.4595
L74.4682 57.5548
" />
<path d="M74.4682 57.5548
L74.4682 57.7452
" />
<path d="M74.4682 57.7452
L74.5158 57.8405
" />
<path d="M74.5158 57.8405
L74.6110 57.8881
" />
<path d="M74.6110 57.8881
L74.7062 57.8881
" />
<path d="M74.7062 57.8881
L74.8015 57.4119
" />
<path d="M75.1348 58.7452
L74.6110 58.7452
" />
<path d="M74.6110 58.7452
L74.5158 58.6976
" />
<path d="M74.5158 58.6976
L74.4682 58.6024
" />
<path d="M74.4682 58.6024
L74.4682 58.4119
" />
<path d="M74.4682 58.4119
L74.5158 58.3167
" />
<path d="M75.0872 58.7452
L75.1348 58.6500
" />
<path d="M75.1348 58.6500
L75.1348 58.4119
" />
<path d="M75.1348 58.4119
L75.0872 58.3167
" />
<path d="M75.0872 58.3167
L74.9920 58.2690
" />
<path d="M74.9920 58.2690
L74.8967 58.2690
" />
<path d="M74.8967 58.2690
L74.8015 58.3167
" />
<path d="M74.8015 58.3167
L74.7539 58.4119
" />
<path d="M74.7539 58.4119
L74.7539 58.6500
" />
<path d="M74.7539 58.6500
L74.7062 58.7452
" />
<path d="M75.1348 59.6500
L74.1348 59.6500
" />
<path d="M75.0872 59.6500
L75.1348 59.5548
" />
<path d="M75.1348 59.5548
L75.1348 59.3643
" />
<path d="M75.1348 59.3643
L75.0872 59.2690
" />
<path d="M75.0872 59.2690
L75.0396 59.2214
" />
<path d="M75.0396 59.2214
L74.9443 59.1738
" />
<path d="M74.9443 59.1738
L74.6586 59.1738
" />
<path d="M74.6586 59.1738
L74.5634 59.2214
" />
<path d="M74.5634 59.2214
L74.5158 59.2690
" />
<path d="M74.5158 59.2690
L74.4682 59.3643
" />
<path d="M74.4682 59.3643
L74.4682 59.5548
" />
<path d="M74.4682 59.5548
L74.5158 59.6500
" />
<path d="M75.0872 60.5071
L75.1348 60.4119
" />
<path d="M75.1348 60.4119
L75.1348 60.2214
" />
<path d="M75.1348 60.2214
L75.0872 60.1262
" />
<path d="M75.0872 60.1262
L74.9920 60.0786
" />
<path d="M74.9920 60.0786
L74.6110 60.0786
" />
<path d="M74.6110 60.0786
L74.5158 60.1262
" />
<path d="M74.5158 60.1262
L74.4682 60.2214
" />
<path d="M74.4682 60.2214
L74.4682 60.4119
" />
<path d="M74.4682 60.4119
L74.5158 60.5071
" />
<path d="M74.5158 60.5071
L74.6110 60.5548
" />
<path d="M74.6110 60.5548
L74.7062 60.5548
" />
<path d="M74.7062 60.5548
L74.8015 60.0786
" />
<path d="M75.1348 60.9833
L74.4682 60.9833
" />
<path d="M74.6586 60.9833
L74.5634 61.0310
" />
<path d="M74.5634 61.0310
L74.5158 61.0786
" />
<path d="M74.5158 61.0786
L74.4682 61.1738
" />
<path d="M74.4682 61.1738
L74.4682 61.2690
" />
</g><text x="63.5000" y="57.6500"
transform="scale(-1 1) translate(-127.000000 0)"
textLength="1.9643" font-size="1.3333" lengthAdjust="spacingAndGlyphs"
text-anchor="middle" opacity="0">J3</text>
<g class="stroked-text"><desc>J3</desc>
<path d="M63.8333 56.6048
L63.8333 57.3191
" />
<path d="M63.8333 57.3191
L63.8810 57.4620
" />
<path d="M63.8810 57.4620
L63.9762 57.5572
" />
<path d="M63.9762 57.5572
L64.1190 57.6048
" />
<path d="M64.1190 57.6048
L64.2143 57.6048
" />
<path d="M63.4524 56.6048
L62.8333 56.6048
" />
<path d="M62.8333 56.6048
L63.1667 56.9858
" />
<path d="M63.1667 56.9858
L63.0238 56.9858
" />
<path d="M63.0238 56.9858
L62.9286 57.0334
" />
<path d="M62.9286 57.0334
L62.8810 57.0810
" />
<path d="M62.8810 57.0810
L62.8333 57.1762
" />
<path d="M62.8333 57.1762
L62.8333 57.4143
" />
<path d="M62.8333 57.4143
L62.8810 57.5096
" />
<path d="M62.8810 57.5096
L62.9286 57.5572
" />
<path d="M62.9286 57.5572
L63.0238 57.6048
" />
<path d="M63.0238 57.6048
L63.3095 57.6048
" />
<path d="M63.3095 57.6048
L63.4048 57.5572
" />
<path d="M63.4048 57.5572
L63.4524 57.5096
" />
</g></g>
<g style="fill:#000000; fill-opacity:0.0; 
stroke:#000000; stroke-width:0.1000; stroke-opacity:1; 
stroke-linecap:round; stroke-linejoin:round;">
<path d="M73.6800 52.7000
L54.3200 52.7000
" />
<path d="M61.4500 52.7000
L61.4500 53.9000
" />
<path d="M54.3200 52.7000
L53.3200 53.7000
" />
<path d="M53.3200 53.7000
L53.3200 61.6000
" />
<path d="M72.4900 53.9000
L65.5500 53.9000
" />
<path d="M65.5500 53.9000
L65.5500 52.7000
" />
</g>
<g style="fill:#000000; fill-opacity:1.0000; 
stroke:#000000; stroke-width:0.0000; stroke-opacity:1; 
stroke-linecap:round; stroke-linejoin:round;">
<circle cx="65.5500" cy="53.9000" r="0.0500" /> 
</g>
<g style="fill:#000000; fill-opacity:1.0000; 
stroke:#000000; stroke-width:0.1000; stroke-opacity:1; 
stroke-linecap:round; stroke-linejoin:round;">
</g>
<g style="fill:#000000; fill-opacity:0.0; 
stroke:#000000; stroke-width:0.1000; stroke-opacity:1; 
stroke-linecap:round; stroke-linejoin:round;">
<path d="M61.4500 53.9000
L54.5100 53.9000
" />
<path d="M54.5100 53.9000
L54.5100 60.4000
" />
<path d="M72.4900 60.4000
L72.4900 53.9000
" />
<path d="M54.5100 60.4000
L72.4900 60.4000
" />
<path d="M73.6800 61.6000
L73.6800 52.7000
" />
<path d="M53.3200 61.6000
L73.6800 61.6000
" />
<g >
</g>
<g >
</g>
<g >
</g>
<g >
</g>
<g >
</g>
<g >
</g>
<g >
</g>
<g >
</g>
<g >
</g>
<g >
</g>
<g >
</g>
<g >
</g>
<g >
</g>
<g >
</g>
<g >
</g>
<g >
</g>
<g >
</g>
<g >
</g>
</g> 
</svg>
