  0
SECTION
  2
BLOCKS
  0
ENDSEC
  0
SECTION
  2
ENTITIES
  0
LINE
  8
0
 10
0
 20
0
 11
50.7
 21
0
  0
LINE
  8
0
 10
50.7
 20
0
 11
50.7
 21
133.35
  0
LINE
  8
0
 10
50.7
 20
133.35
 11
0
 21
133.35
  0
LINE
  8
0
 10
0
 20
133.35
 11
0
 21
0
  0
LINE
  8
0
 10
5.8
 20
5
 11
5.80335
 21
5.10674
  0
LINE
  8
0
 10
5.80335
 20
5.10674
 11
5.8134
 21
5.21307
  0
LINE
  8
0
 10
5.8134
 20
5.21307
 11
5.83011
 21
5.31855
  0
LINE
  8
0
 10
5.83011
 20
5.31855
 11
5.85341
 21
5.42277
  0
LINE
  8
0
 10
5.85341
 20
5.42277
 11
5.8832
 21
5.52533
  0
LINE
  8
0
 10
5.8832
 20
5.52533
 11
5.91938
 21
5.62581
  0
LINE
  8
0
 10
5.91938
 20
5.62581
 11
5.96179
 21
5.72382
  0
LINE
  8
0
 10
5.96179
 20
5.72382
 11
6.01028
 21
5.81898
  0
LINE
  8
0
 10
6.01028
 20
5.81898
 11
6.06464
 21
5.9109
  0
LINE
  8
0
 10
6.06464
 20
5.9109
 11
6.12467
 21
5.99923
  0
LINE
  8
0
 10
6.12467
 20
5.99923
 11
6.19013
 21
6.08362
  0
LINE
  8
0
 10
6.19013
 20
6.08362
 11
6.26075
 21
6.16373
  0
LINE
  8
0
 10
6.26075
 20
6.16373
 11
6.33627
 21
6.23925
  0
LINE
  8
0
 10
6.33627
 20
6.23925
 11
6.41638
 21
6.30987
  0
LINE
  8
0
 10
6.41638
 20
6.30987
 11
6.50076
 21
6.37533
  0
LINE
  8
0
 10
6.50076
 20
6.37533
 11
6.58909
 21
6.43536
  0
LINE
  8
0
 10
6.58909
 20
6.43536
 11
6.68102
 21
6.48972
  0
LINE
  8
0
 10
6.68102
 20
6.48972
 11
6.77617
 21
6.53821
  0
LINE
  8
0
 10
6.77617
 20
6.53821
 11
6.87419
 21
6.58062
  0
LINE
  8
0
 10
6.87419
 20
6.58062
 11
6.97467
 21
6.6168
  0
LINE
  8
0
 10
6.97467
 20
6.6168
 11
7.07723
 21
6.64659
  0
LINE
  8
0
 10
7.07723
 20
6.64659
 11
7.18145
 21
6.66989
  0
LINE
  8
0
 10
7.18145
 20
6.66989
 11
7.28693
 21
6.68659
  0
LINE
  8
0
 10
7.28693
 20
6.68659
 11
7.39326
 21
6.69664
  0
LINE
  8
0
 10
7.39326
 20
6.69664
 11
7.5
 21
6.7
  0
LINE
  8
0
 10
7.5
 20
6.7
 11
7.60674
 21
6.69664
  0
LINE
  8
0
 10
7.60674
 20
6.69664
 11
7.71307
 21
6.68659
  0
LINE
  8
0
 10
7.71307
 20
6.68659
 11
7.81855
 21
6.66989
  0
LINE
  8
0
 10
7.81855
 20
6.66989
 11
7.92277
 21
6.64659
  0
LINE
  8
0
 10
7.92277
 20
6.64659
 11
8.02533
 21
6.6168
  0
LINE
  8
0
 10
8.02533
 20
6.6168
 11
8.12581
 21
6.58062
  0
LINE
  8
0
 10
8.12581
 20
6.58062
 11
8.22382
 21
6.53821
  0
LINE
  8
0
 10
8.22382
 20
6.53821
 11
8.31898
 21
6.48972
  0
LINE
  8
0
 10
8.31898
 20
6.48972
 11
8.4109
 21
6.43536
  0
LINE
  8
0
 10
8.4109
 20
6.43536
 11
8.49923
 21
6.37533
  0
LINE
  8
0
 10
8.49923
 20
6.37533
 11
8.58362
 21
6.30987
  0
LINE
  8
0
 10
8.58362
 20
6.30987
 11
8.66373
 21
6.23925
  0
LINE
  8
0
 10
8.66373
 20
6.23925
 11
8.73925
 21
6.16373
  0
LINE
  8
0
 10
8.73925
 20
6.16373
 11
8.80987
 21
6.08362
  0
LINE
  8
0
 10
8.80987
 20
6.08362
 11
8.87533
 21
5.99923
  0
LINE
  8
0
 10
8.87533
 20
5.99923
 11
8.93536
 21
5.9109
  0
LINE
  8
0
 10
8.93536
 20
5.9109
 11
8.98972
 21
5.81898
  0
LINE
  8
0
 10
8.98972
 20
5.81898
 11
9.03821
 21
5.72382
  0
LINE
  8
0
 10
9.03821
 20
5.72382
 11
9.08062
 21
5.62581
  0
LINE
  8
0
 10
9.08062
 20
5.62581
 11
9.1168
 21
5.52533
  0
LINE
  8
0
 10
9.1168
 20
5.52533
 11
9.14659
 21
5.42277
  0
LINE
  8
0
 10
9.14659
 20
5.42277
 11
9.16989
 21
5.31855
  0
LINE
  8
0
 10
9.16989
 20
5.31855
 11
9.18659
 21
5.21307
  0
LINE
  8
0
 10
9.18659
 20
5.21307
 11
9.19664
 21
5.10674
  0
LINE
  8
0
 10
9.19664
 20
5.10674
 11
9.2
 21
5
  0
LINE
  8
0
 10
9.2
 20
5
 11
9.19664
 21
4.89326
  0
LINE
  8
0
 10
9.19664
 20
4.89326
 11
9.18659
 21
4.78693
  0
LINE
  8
0
 10
9.18659
 20
4.78693
 11
9.16989
 21
4.68145
  0
LINE
  8
0
 10
9.16989
 20
4.68145
 11
9.14659
 21
4.57723
  0
LINE
  8
0
 10
9.14659
 20
4.57723
 11
9.1168
 21
4.47467
  0
LINE
  8
0
 10
9.1168
 20
4.47467
 11
9.08062
 21
4.37419
  0
LINE
  8
0
 10
9.08062
 20
4.37419
 11
9.03821
 21
4.27617
  0
LINE
  8
0
 10
9.03821
 20
4.27617
 11
8.98972
 21
4.18102
  0
LINE
  8
0
 10
8.98972
 20
4.18102
 11
8.93536
 21
4.08909
  0
LINE
  8
0
 10
8.93536
 20
4.08909
 11
8.87533
 21
4.00076
  0
LINE
  8
0
 10
8.87533
 20
4.00076
 11
8.80987
 21
3.91638
  0
LINE
  8
0
 10
8.80987
 20
3.91638
 11
8.73925
 21
3.83627
  0
LINE
  8
0
 10
8.73925
 20
3.83627
 11
8.66373
 21
3.76075
  0
LINE
  8
0
 10
8.66373
 20
3.76075
 11
8.58362
 21
3.69013
  0
LINE
  8
0
 10
8.58362
 20
3.69013
 11
8.49923
 21
3.62467
  0
LINE
  8
0
 10
8.49923
 20
3.62467
 11
8.4109
 21
3.56464
  0
LINE
  8
0
 10
8.4109
 20
3.56464
 11
8.31898
 21
3.51028
  0
LINE
  8
0
 10
8.31898
 20
3.51028
 11
8.22382
 21
3.46179
  0
LINE
  8
0
 10
8.22382
 20
3.46179
 11
8.12581
 21
3.41938
  0
LINE
  8
0
 10
8.12581
 20
3.41938
 11
8.02533
 21
3.3832
  0
LINE
  8
0
 10
8.02533
 20
3.3832
 11
7.92277
 21
3.35341
  0
LINE
  8
0
 10
7.92277
 20
3.35341
 11
7.81855
 21
3.33011
  0
LINE
  8
0
 10
7.81855
 20
3.33011
 11
7.71307
 21
3.3134
  0
LINE
  8
0
 10
7.71307
 20
3.3134
 11
7.60674
 21
3.30335
  0
LINE
  8
0
 10
7.60674
 20
3.30335
 11
7.5
 21
3.3
  0
LINE
  8
0
 10
7.5
 20
3.3
 11
7.39326
 21
3.30335
  0
LINE
  8
0
 10
7.39326
 20
3.30335
 11
7.28693
 21
3.3134
  0
LINE
  8
0
 10
7.28693
 20
3.3134
 11
7.18145
 21
3.33011
  0
LINE
  8
0
 10
7.18145
 20
3.33011
 11
7.07723
 21
3.35341
  0
LINE
  8
0
 10
7.07723
 20
3.35341
 11
6.97467
 21
3.3832
  0
LINE
  8
0
 10
6.97467
 20
3.3832
 11
6.87419
 21
3.41938
  0
LINE
  8
0
 10
6.87419
 20
3.41938
 11
6.77617
 21
3.46179
  0
LINE
  8
0
 10
6.77617
 20
3.46179
 11
6.68102
 21
3.51028
  0
LINE
  8
0
 10
6.68102
 20
3.51028
 11
6.58909
 21
3.56464
  0
LINE
  8
0
 10
6.58909
 20
3.56464
 11
6.50076
 21
3.62467
  0
LINE
  8
0
 10
6.50076
 20
3.62467
 11
6.41638
 21
3.69013
  0
LINE
  8
0
 10
6.41638
 20
3.69013
 11
6.33627
 21
3.76075
  0
LINE
  8
0
 10
6.33627
 20
3.76075
 11
6.26075
 21
3.83627
  0
LINE
  8
0
 10
6.26075
 20
3.83627
 11
6.19013
 21
3.91638
  0
LINE
  8
0
 10
6.19013
 20
3.91638
 11
6.12467
 21
4.00076
  0
LINE
  8
0
 10
6.12467
 20
4.00076
 11
6.06464
 21
4.08909
  0
LINE
  8
0
 10
6.06464
 20
4.08909
 11
6.01028
 21
4.18102
  0
LINE
  8
0
 10
6.01028
 20
4.18102
 11
5.96179
 21
4.27617
  0
LINE
  8
0
 10
5.96179
 20
4.27617
 11
5.91938
 21
4.37419
  0
LINE
  8
0
 10
5.91938
 20
4.37419
 11
5.8832
 21
4.47467
  0
LINE
  8
0
 10
5.8832
 20
4.47467
 11
5.85341
 21
4.57723
  0
LINE
  8
0
 10
5.85341
 20
4.57723
 11
5.83011
 21
4.68145
  0
LINE
  8
0
 10
5.83011
 20
4.68145
 11
5.8134
 21
4.78693
  0
LINE
  8
0
 10
5.8134
 20
4.78693
 11
5.80335
 21
4.89326
  0
LINE
  8
0
 10
5.80335
 20
4.89326
 11
5.8
 21
5
  0
LINE
  8
0
 10
5.8
 20
128.35
 11
6.12467
 21
129.349
  0
LINE
  8
0
 10
6.12467
 20
129.349
 11
6.97467
 21
129.967
  0
LINE
  8
0
 10
6.97467
 20
129.967
 11
8.02533
 21
129.967
  0
LINE
  8
0
 10
8.02533
 20
129.967
 11
8.87533
 21
129.349
  0
LINE
  8
0
 10
8.87533
 20
129.349
 11
9.2
 21
128.35
  0
LINE
  8
0
 10
9.2
 20
128.35
 11
8.87533
 21
127.351
  0
LINE
  8
0
 10
8.87533
 20
127.351
 11
8.02533
 21
126.733
  0
LINE
  8
0
 10
8.02533
 20
126.733
 11
6.97467
 21
126.733
  0
LINE
  8
0
 10
6.97467
 20
126.733
 11
6.12467
 21
127.351
  0
LINE
  8
0
 10
6.12467
 20
127.351
 11
5.8
 21
128.35
  0
LINE
  8
0
 10
11
 20
109
 11
11.0079
 21
109.251
  0
LINE
  8
0
 10
11.0079
 20
109.251
 11
11.0315
 21
109.501
  0
LINE
  8
0
 10
11.0315
 20
109.501
 11
11.0709
 21
109.75
  0
LINE
  8
0
 10
11.0709
 20
109.75
 11
11.1257
 21
109.995
  0
LINE
  8
0
 10
11.1257
 20
109.995
 11
11.1958
 21
110.236
  0
LINE
  8
0
 10
11.1958
 20
110.236
 11
11.2809
 21
110.472
  0
LINE
  8
0
 10
11.2809
 20
110.472
 11
11.3807
 21
110.703
  0
LINE
  8
0
 10
11.3807
 20
110.703
 11
11.4948
 21
110.927
  0
LINE
  8
0
 10
11.4948
 20
110.927
 11
11.6227
 21
111.143
  0
LINE
  8
0
 10
11.6227
 20
111.143
 11
11.7639
 21
111.351
  0
LINE
  8
0
 10
11.7639
 20
111.351
 11
11.9179
 21
111.55
  0
LINE
  8
0
 10
11.9179
 20
111.55
 11
12.0841
 21
111.738
  0
LINE
  8
0
 10
12.0841
 20
111.738
 11
12.2618
 21
111.916
  0
LINE
  8
0
 10
12.2618
 20
111.916
 11
12.4503
 21
112.082
  0
LINE
  8
0
 10
12.4503
 20
112.082
 11
12.6489
 21
112.236
  0
LINE
  8
0
 10
12.6489
 20
112.236
 11
12.8567
 21
112.377
  0
LINE
  8
0
 10
12.8567
 20
112.377
 11
13.073
 21
112.505
  0
LINE
  8
0
 10
13.073
 20
112.505
 11
13.2969
 21
112.619
  0
LINE
  8
0
 10
13.2969
 20
112.619
 11
13.5275
 21
112.719
  0
LINE
  8
0
 10
13.5275
 20
112.719
 11
13.7639
 21
112.804
  0
LINE
  8
0
 10
13.7639
 20
112.804
 11
14.0052
 21
112.874
  0
LINE
  8
0
 10
14.0052
 20
112.874
 11
14.2505
 21
112.929
  0
LINE
  8
0
 10
14.2505
 20
112.929
 11
14.4987
 21
112.968
  0
LINE
  8
0
 10
14.4987
 20
112.968
 11
14.7488
 21
112.992
  0
LINE
  8
0
 10
14.7488
 20
112.992
 11
15
 21
113
  0
LINE
  8
0
 10
15
 20
113
 11
15.2512
 21
112.992
  0
LINE
  8
0
 10
15.2512
 20
112.992
 11
15.5013
 21
112.968
  0
LINE
  8
0
 10
15.5013
 20
112.968
 11
15.7495
 21
112.929
  0
LINE
  8
0
 10
15.7495
 20
112.929
 11
15.9948
 21
112.874
  0
LINE
  8
0
 10
15.9948
 20
112.874
 11
16.2361
 21
112.804
  0
LINE
  8
0
 10
16.2361
 20
112.804
 11
16.4725
 21
112.719
  0
LINE
  8
0
 10
16.4725
 20
112.719
 11
16.7031
 21
112.619
  0
LINE
  8
0
 10
16.7031
 20
112.619
 11
16.927
 21
112.505
  0
LINE
  8
0
 10
16.927
 20
112.505
 11
17.1433
 21
112.377
  0
LINE
  8
0
 10
17.1433
 20
112.377
 11
17.3511
 21
112.236
  0
LINE
  8
0
 10
17.3511
 20
112.236
 11
17.5497
 21
112.082
  0
LINE
  8
0
 10
17.5497
 20
112.082
 11
17.7382
 21
111.916
  0
LINE
  8
0
 10
17.7382
 20
111.916
 11
17.9159
 21
111.738
  0
LINE
  8
0
 10
17.9159
 20
111.738
 11
18.0821
 21
111.55
  0
LINE
  8
0
 10
18.0821
 20
111.55
 11
18.2361
 21
111.351
  0
LINE
  8
0
 10
18.2361
 20
111.351
 11
18.3773
 21
111.143
  0
LINE
  8
0
 10
18.3773
 20
111.143
 11
18.5052
 21
110.927
  0
LINE
  8
0
 10
18.5052
 20
110.927
 11
18.6193
 21
110.703
  0
LINE
  8
0
 10
18.6193
 20
110.703
 11
18.7191
 21
110.472
  0
LINE
  8
0
 10
18.7191
 20
110.472
 11
18.8042
 21
110.236
  0
LINE
  8
0
 10
18.8042
 20
110.236
 11
18.8743
 21
109.995
  0
LINE
  8
0
 10
18.8743
 20
109.995
 11
18.9291
 21
109.75
  0
LINE
  8
0
 10
18.9291
 20
109.75
 11
18.9685
 21
109.501
  0
LINE
  8
0
 10
18.9685
 20
109.501
 11
18.9921
 21
109.251
  0
LINE
  8
0
 10
18.9921
 20
109.251
 11
19
 21
109
  0
LINE
  8
0
 10
19
 20
109
 11
18.9921
 21
108.749
  0
LINE
  8
0
 10
18.9921
 20
108.749
 11
18.9685
 21
108.499
  0
LINE
  8
0
 10
18.9685
 20
108.499
 11
18.9291
 21
108.25
  0
LINE
  8
0
 10
18.9291
 20
108.25
 11
18.8743
 21
108.005
  0
LINE
  8
0
 10
18.8743
 20
108.005
 11
18.8042
 21
107.764
  0
LINE
  8
0
 10
18.8042
 20
107.764
 11
18.7191
 21
107.528
  0
LINE
  8
0
 10
18.7191
 20
107.528
 11
18.6193
 21
107.297
  0
LINE
  8
0
 10
18.6193
 20
107.297
 11
18.5052
 21
107.073
  0
LINE
  8
0
 10
18.5052
 20
107.073
 11
18.3773
 21
106.857
  0
LINE
  8
0
 10
18.3773
 20
106.857
 11
18.2361
 21
106.649
  0
LINE
  8
0
 10
18.2361
 20
106.649
 11
18.0821
 21
106.45
  0
LINE
  8
0
 10
18.0821
 20
106.45
 11
17.9159
 21
106.262
  0
LINE
  8
0
 10
17.9159
 20
106.262
 11
17.7382
 21
106.084
  0
LINE
  8
0
 10
17.7382
 20
106.084
 11
17.5497
 21
105.918
  0
LINE
  8
0
 10
17.5497
 20
105.918
 11
17.3511
 21
105.764
  0
LINE
  8
0
 10
17.3511
 20
105.764
 11
17.1433
 21
105.623
  0
LINE
  8
0
 10
17.1433
 20
105.623
 11
16.927
 21
105.495
  0
LINE
  8
0
 10
16.927
 20
105.495
 11
16.7031
 21
105.381
  0
LINE
  8
0
 10
16.7031
 20
105.381
 11
16.4725
 21
105.281
  0
LINE
  8
0
 10
16.4725
 20
105.281
 11
16.2361
 21
105.196
  0
LINE
  8
0
 10
16.2361
 20
105.196
 11
15.9948
 21
105.126
  0
LINE
  8
0
 10
15.9948
 20
105.126
 11
15.7495
 21
105.071
  0
LINE
  8
0
 10
15.7495
 20
105.071
 11
15.5013
 21
105.032
  0
LINE
  8
0
 10
15.5013
 20
105.032
 11
15.2512
 21
105.008
  0
LINE
  8
0
 10
15.2512
 20
105.008
 11
15
 21
105
  0
LINE
  8
0
 10
15
 20
105
 11
14.7488
 21
105.008
  0
LINE
  8
0
 10
14.7488
 20
105.008
 11
14.4987
 21
105.032
  0
LINE
  8
0
 10
14.4987
 20
105.032
 11
14.2505
 21
105.071
  0
LINE
  8
0
 10
14.2505
 20
105.071
 11
14.0052
 21
105.126
  0
LINE
  8
0
 10
14.0052
 20
105.126
 11
13.7639
 21
105.196
  0
LINE
  8
0
 10
13.7639
 20
105.196
 11
13.5275
 21
105.281
  0
LINE
  8
0
 10
13.5275
 20
105.281
 11
13.2969
 21
105.381
  0
LINE
  8
0
 10
13.2969
 20
105.381
 11
13.073
 21
105.495
  0
LINE
  8
0
 10
13.073
 20
105.495
 11
12.8567
 21
105.623
  0
LINE
  8
0
 10
12.8567
 20
105.623
 11
12.6489
 21
105.764
  0
LINE
  8
0
 10
12.6489
 20
105.764
 11
12.4503
 21
105.918
  0
LINE
  8
0
 10
12.4503
 20
105.918
 11
12.2618
 21
106.084
  0
LINE
  8
0
 10
12.2618
 20
106.084
 11
12.0841
 21
106.262
  0
LINE
  8
0
 10
12.0841
 20
106.262
 11
11.9179
 21
106.45
  0
LINE
  8
0
 10
11.9179
 20
106.45
 11
11.7639
 21
106.649
  0
LINE
  8
0
 10
11.7639
 20
106.649
 11
11.6227
 21
106.857
  0
LINE
  8
0
 10
11.6227
 20
106.857
 11
11.4948
 21
107.073
  0
LINE
  8
0
 10
11.4948
 20
107.073
 11
11.3807
 21
107.297
  0
LINE
  8
0
 10
11.3807
 20
107.297
 11
11.2809
 21
107.528
  0
LINE
  8
0
 10
11.2809
 20
107.528
 11
11.1958
 21
107.764
  0
LINE
  8
0
 10
11.1958
 20
107.764
 11
11.1257
 21
108.005
  0
LINE
  8
0
 10
11.1257
 20
108.005
 11
11.0709
 21
108.25
  0
LINE
  8
0
 10
11.0709
 20
108.25
 11
11.0315
 21
108.499
  0
LINE
  8
0
 10
11.0315
 20
108.499
 11
11.0079
 21
108.749
  0
LINE
  8
0
 10
11.0079
 20
108.749
 11
11
 21
109
  0
LINE
  8
0
 10
13.2458
 20
116.62
 11
13.2458
 21
119.5
  0
LINE
  8
0
 10
13.2458
 20
119.5
 11
13.8458
 21
119.5
  0
LINE
  8
0
 10
13.8458
 20
119.5
 11
13.8458
 21
116.62
  0
LINE
  8
0
 10
13.8458
 20
116.62
 11
13.2458
 21
116.62
  0
LINE
  8
0
 10
13.6322
 20
25
 11
14.2312
 21
25
  0
LINE
  8
0
 10
14.2312
 20
25
 11
14.4672
 21
24.235
  0
LINE
  8
0
 10
14.4672
 20
24.235
 11
15.4792
 21
24.235
  0
LINE
  8
0
 10
15.4792
 20
24.235
 11
15.7142
 21
25
  0
LINE
  8
0
 10
15.7142
 20
25
 11
16.3082
 21
25
  0
LINE
  8
0
 10
16.3082
 20
25
 11
15.3262
 21
22.12
  0
LINE
  8
0
 10
15.3262
 20
22.12
 11
14.6192
 21
22.12
  0
LINE
  8
0
 10
14.6192
 20
22.12
 11
13.6322
 21
25
  0
LINE
  8
0
 10
13.764
 20
66.265
 11
13.9083
 21
66.6168
  0
LINE
  8
0
 10
13.9083
 20
66.6168
 11
14.163
 21
66.866
  0
LINE
  8
0
 10
14.163
 20
66.866
 11
14.532
 21
67.0145
  0
LINE
  8
0
 10
14.532
 20
67.0145
 11
15.019
 21
67.064
  0
LINE
  8
0
 10
15.019
 20
67.064
 11
15.5448
 21
67.0072
  0
LINE
  8
0
 10
15.5448
 20
67.0072
 11
15.926
 21
66.837
  0
LINE
  8
0
 10
15.926
 20
66.837
 11
16.1585
 21
66.5593
  0
LINE
  8
0
 10
16.1585
 20
66.5593
 11
16.236
 21
66.18
  0
LINE
  8
0
 10
16.236
 20
66.18
 11
16.2225
 21
66.0085
  0
LINE
  8
0
 10
16.2225
 20
66.0085
 11
16.182
 21
65.858
  0
LINE
  8
0
 10
16.182
 20
65.858
 11
16.1158
 21
65.7278
  0
LINE
  8
0
 10
16.1158
 20
65.7278
 11
16.025
 21
65.617
  0
LINE
  8
0
 10
16.025
 20
65.617
 11
15.9045
 21
65.5225
  0
LINE
  8
0
 10
15.9045
 20
65.5225
 11
15.747
 21
65.441
  0
LINE
  8
0
 10
15.747
 20
65.441
 11
15.513
 21
65.3618
  0
LINE
  8
0
 10
15.513
 20
65.3618
 11
14.8775
 21
65.2055
  0
LINE
  8
0
 10
14.8775
 20
65.2055
 11
14.707
 21
65.148
  0
LINE
  8
0
 10
14.707
 20
65.148
 11
14.6085
 21
65.0918
  0
LINE
  8
0
 10
14.6085
 20
65.0918
 11
14.537
 21
65.025
  0
LINE
  8
0
 10
14.537
 20
65.025
 11
14.4943
 21
64.9418
  0
LINE
  8
0
 10
14.4943
 20
64.9418
 11
14.48
 21
64.838
  0
LINE
  8
0
 10
14.48
 20
64.838
 11
14.6138
 21
64.5703
  0
LINE
  8
0
 10
14.6138
 20
64.5703
 11
15.015
 21
64.481
  0
LINE
  8
0
 10
15.015
 20
64.481
 11
15.2375
 21
64.5025
  0
LINE
  8
0
 10
15.2375
 20
64.5025
 11
15.401
 21
64.567
  0
LINE
  8
0
 10
15.401
 20
64.567
 11
15.5133
 21
64.6743
  0
LINE
  8
0
 10
15.5133
 20
64.6743
 11
15.58
 21
64.824
  0
LINE
  8
0
 10
15.58
 20
64.824
 11
16.161
 21
64.748
  0
LINE
  8
0
 10
16.161
 20
64.748
 11
16.037
 21
64.4298
  0
LINE
  8
0
 10
16.037
 20
64.4298
 11
15.819
 21
64.217
  0
LINE
  8
0
 10
15.819
 20
64.217
 11
15.489
 21
64.0963
  0
LINE
  8
0
 10
15.489
 20
64.0963
 11
15.027
 21
64.056
  0
LINE
  8
0
 10
15.027
 20
64.056
 11
14.5408
 21
64.1088
  0
LINE
  8
0
 10
14.5408
 20
64.1088
 11
14.186
 21
64.267
  0
LINE
  8
0
 10
14.186
 20
64.267
 11
13.9693
 21
64.5238
  0
LINE
  8
0
 10
13.9693
 20
64.5238
 11
13.897
 21
64.874
  0
LINE
  8
0
 10
13.897
 20
64.874
 11
13.9068
 21
65.0205
  0
LINE
  8
0
 10
13.9068
 20
65.0205
 11
13.936
 21
65.15
  0
LINE
  8
0
 10
13.936
 20
65.15
 11
13.9828
 21
65.2623
  0
LINE
  8
0
 10
13.9828
 20
65.2623
 11
14.045
 21
65.359
  0
LINE
  8
0
 10
14.045
 20
65.359
 11
14.1233
 21
65.4418
  0
LINE
  8
0
 10
14.1233
 20
65.4418
 11
14.216
 21
65.512
  0
LINE
  8
0
 10
14.216
 20
65.512
 11
14.3228
 21
65.571
  0
LINE
  8
0
 10
14.3228
 20
65.571
 11
14.441
 21
65.622
  0
LINE
  8
0
 10
14.441
 20
65.622
 11
14.614
 21
65.6758
  0
LINE
  8
0
 10
14.614
 20
65.6758
 11
14.883
 21
65.745
  0
LINE
  8
0
 10
14.883
 20
65.745
 11
15.1913
 21
65.8163
  0
LINE
  8
0
 10
15.1913
 20
65.8163
 11
15.38
 21
65.876
  0
LINE
  8
0
 10
15.38
 20
65.876
 11
15.4953
 21
65.9368
  0
LINE
  8
0
 10
15.4953
 20
65.9368
 11
15.581
 21
66.011
  0
LINE
  8
0
 10
15.581
 20
66.011
 11
15.635
 21
66.1028
  0
LINE
  8
0
 10
15.635
 20
66.1028
 11
15.653
 21
66.216
  0
LINE
  8
0
 10
15.653
 20
66.216
 11
15.4985
 21
66.5153
  0
LINE
  8
0
 10
15.4985
 20
66.5153
 11
15.035
 21
66.615
  0
LINE
  8
0
 10
15.035
 20
66.615
 11
14.7695
 21
66.5885
  0
LINE
  8
0
 10
14.7695
 20
66.5885
 11
14.569
 21
66.509
  0
LINE
  8
0
 10
14.569
 20
66.509
 11
14.4285
 21
66.3708
  0
LINE
  8
0
 10
14.4285
 20
66.3708
 11
14.343
 21
66.168
  0
LINE
  8
0
 10
14.343
 20
66.168
 11
13.764
 21
66.265
  0
LINE
  8
0
 10
13.8122
 20
43.12
 11
13.8122
 21
46
  0
LINE
  8
0
 10
13.8122
 20
46
 11
14.9712
 21
46
  0
LINE
  8
0
 10
14.9712
 20
46
 11
15.3589
 21
45.956
  0
LINE
  8
0
 10
15.3589
 20
45.956
 11
15.7002
 21
45.824
  0
LINE
  8
0
 10
15.7002
 20
45.824
 11
15.9822
 21
45.609
  0
LINE
  8
0
 10
15.9822
 20
45.609
 11
16.1922
 21
45.316
  0
LINE
  8
0
 10
16.1922
 20
45.316
 11
16.3227
 21
44.9558
  0
LINE
  8
0
 10
16.3227
 20
44.9558
 11
16.3662
 21
44.539
  0
LINE
  8
0
 10
16.3662
 20
44.539
 11
16.267
 21
43.9335
  0
LINE
  8
0
 10
16.267
 20
43.9335
 11
15.9692
 21
43.487
  0
LINE
  8
0
 10
15.9692
 20
43.487
 11
15.4912
 21
43.2118
  0
LINE
  8
0
 10
15.4912
 20
43.2118
 11
14.8492
 21
43.12
  0
LINE
  8
0
 10
14.8492
 20
43.12
 11
13.8122
 21
43.12
  0
LINE
  8
0
 10
13.8122
 20
85.12
 11
13.8122
 21
88
  0
LINE
  8
0
 10
13.8122
 20
88
 11
14.4122
 21
88
  0
LINE
  8
0
 10
14.4122
 20
88
 11
14.4122
 21
86.912
  0
LINE
  8
0
 10
14.4122
 20
86.912
 11
15.1162
 21
86.912
  0
LINE
  8
0
 10
15.1162
 20
86.912
 11
15.7822
 21
88
  0
LINE
  8
0
 10
15.7822
 20
88
 11
16.4562
 21
88
  0
LINE
  8
0
 10
16.4562
 20
88
 11
15.6812
 21
86.796
  0
LINE
  8
0
 10
15.6812
 20
86.796
 11
15.9419
 21
86.6885
  0
LINE
  8
0
 10
15.9419
 20
86.6885
 11
16.1422
 21
86.506
  0
LINE
  8
0
 10
16.1422
 20
86.506
 11
16.2704
 21
86.2645
  0
LINE
  8
0
 10
16.2704
 20
86.2645
 11
16.3132
 21
85.982
  0
LINE
  8
0
 10
16.3132
 20
85.982
 11
16.2434
 21
85.6138
  0
LINE
  8
0
 10
16.2434
 20
85.6138
 11
16.0342
 21
85.343
  0
LINE
  8
0
 10
16.0342
 20
85.343
 11
15.6974
 21
85.1758
  0
LINE
  8
0
 10
15.6974
 20
85.1758
 11
15.2432
 21
85.12
  0
LINE
  8
0
 10
15.2432
 20
85.12
 11
13.8122
 21
85.12
  0
LINE
  8
0
 10
14.3767
 20
116.62
 11
14.3767
 21
119.5
  0
LINE
  8
0
 10
14.3767
 20
119.5
 11
14.9087
 21
119.5
  0
LINE
  8
0
 10
14.9087
 20
119.5
 11
14.9087
 21
117.801
  0
LINE
  8
0
 10
14.9087
 20
117.801
 11
14.8997
 21
117.573
  0
LINE
  8
0
 10
14.8997
 20
117.573
 11
14.8727
 21
117.282
  0
LINE
  8
0
 10
14.8727
 20
117.282
 11
16.1216
 21
119.5
  0
LINE
  8
0
 10
16.1216
 20
119.5
 11
16.8246
 21
119.5
  0
LINE
  8
0
 10
16.8246
 20
119.5
 11
16.8246
 21
116.62
  0
LINE
  8
0
 10
16.8246
 20
116.62
 11
16.2926
 21
116.62
  0
LINE
  8
0
 10
16.2926
 20
116.62
 11
16.2926
 21
118.294
  0
LINE
  8
0
 10
16.2926
 20
118.294
 11
16.3017
 21
118.561
  0
LINE
  8
0
 10
16.3017
 20
118.561
 11
16.3286
 21
118.856
  0
LINE
  8
0
 10
16.3286
 20
118.856
 11
15.0616
 21
116.62
  0
LINE
  8
0
 10
15.0616
 20
116.62
 11
14.3767
 21
116.62
  0
LINE
  8
0
 10
31.8844
 20
118.048
 11
31.9809
 21
118.678
  0
LINE
  8
0
 10
31.9809
 20
118.678
 11
32.2704
 21
119.159
  0
LINE
  8
0
 10
32.2704
 20
119.159
 11
32.7307
 21
119.463
  0
LINE
  8
0
 10
32.7307
 20
119.463
 11
33.3374
 21
119.564
  0
LINE
  8
0
 10
33.3374
 20
119.564
 11
33.7524
 21
119.518
  0
LINE
  8
0
 10
33.7524
 20
119.518
 11
34.1114
 21
119.381
  0
LINE
  8
0
 10
34.1114
 20
119.381
 11
34.4049
 21
119.157
  0
LINE
  8
0
 10
34.4049
 20
119.157
 11
34.6214
 21
118.851
  0
LINE
  8
0
 10
34.6214
 20
118.851
 11
34.7557
 21
118.477
  0
LINE
  8
0
 10
34.7557
 20
118.477
 11
34.8004
 21
118.048
  0
LINE
  8
0
 10
34.8004
 20
118.048
 11
34.7037
 21
117.427
  0
LINE
  8
0
 10
34.7037
 20
117.427
 11
34.4134
 21
116.955
  0
LINE
  8
0
 10
34.4134
 20
116.955
 11
33.9524
 21
116.656
  0
LINE
  8
0
 10
33.9524
 20
116.656
 11
33.3414
 21
116.556
  0
LINE
  8
0
 10
33.3414
 20
116.556
 11
32.7299
 21
116.655
  0
LINE
  8
0
 10
32.7299
 20
116.655
 11
32.2694
 21
116.95
  0
LINE
  8
0
 10
32.2694
 20
116.95
 11
31.9807
 21
117.422
  0
LINE
  8
0
 10
31.9807
 20
117.422
 11
31.8844
 21
118.048
  0
LINE
  8
0
 10
32
 20
109
 11
32.0079
 21
109.251
  0
LINE
  8
0
 10
32.0079
 20
109.251
 11
32.0315
 21
109.501
  0
LINE
  8
0
 10
32.0315
 20
109.501
 11
32.0709
 21
109.75
  0
LINE
  8
0
 10
32.0709
 20
109.75
 11
32.1257
 21
109.995
  0
LINE
  8
0
 10
32.1257
 20
109.995
 11
32.1958
 21
110.236
  0
LINE
  8
0
 10
32.1958
 20
110.236
 11
32.2809
 21
110.472
  0
LINE
  8
0
 10
32.2809
 20
110.472
 11
32.3807
 21
110.703
  0
LINE
  8
0
 10
32.3807
 20
110.703
 11
32.4948
 21
110.927
  0
LINE
  8
0
 10
32.4948
 20
110.927
 11
32.6227
 21
111.143
  0
LINE
  8
0
 10
32.6227
 20
111.143
 11
32.7639
 21
111.351
  0
LINE
  8
0
 10
32.7639
 20
111.351
 11
32.9179
 21
111.55
  0
LINE
  8
0
 10
32.9179
 20
111.55
 11
33.0841
 21
111.738
  0
LINE
  8
0
 10
33.0841
 20
111.738
 11
33.2618
 21
111.916
  0
LINE
  8
0
 10
33.2618
 20
111.916
 11
33.4503
 21
112.082
  0
LINE
  8
0
 10
33.4503
 20
112.082
 11
33.6489
 21
112.236
  0
LINE
  8
0
 10
33.6489
 20
112.236
 11
33.8567
 21
112.377
  0
LINE
  8
0
 10
33.8567
 20
112.377
 11
34.073
 21
112.505
  0
LINE
  8
0
 10
34.073
 20
112.505
 11
34.2969
 21
112.619
  0
LINE
  8
0
 10
34.2969
 20
112.619
 11
34.5275
 21
112.719
  0
LINE
  8
0
 10
34.5275
 20
112.719
 11
34.7639
 21
112.804
  0
LINE
  8
0
 10
34.7639
 20
112.804
 11
35.0052
 21
112.874
  0
LINE
  8
0
 10
35.0052
 20
112.874
 11
35.2505
 21
112.929
  0
LINE
  8
0
 10
35.2505
 20
112.929
 11
35.4987
 21
112.968
  0
LINE
  8
0
 10
35.4987
 20
112.968
 11
35.7488
 21
112.992
  0
LINE
  8
0
 10
35.7488
 20
112.992
 11
36
 21
113
  0
LINE
  8
0
 10
36
 20
113
 11
36.2512
 21
112.992
  0
LINE
  8
0
 10
36.2512
 20
112.992
 11
36.5013
 21
112.968
  0
LINE
  8
0
 10
36.5013
 20
112.968
 11
36.7495
 21
112.929
  0
LINE
  8
0
 10
36.7495
 20
112.929
 11
36.9948
 21
112.874
  0
LINE
  8
0
 10
36.9948
 20
112.874
 11
37.2361
 21
112.804
  0
LINE
  8
0
 10
37.2361
 20
112.804
 11
37.4725
 21
112.719
  0
LINE
  8
0
 10
37.4725
 20
112.719
 11
37.7031
 21
112.619
  0
LINE
  8
0
 10
37.7031
 20
112.619
 11
37.927
 21
112.505
  0
LINE
  8
0
 10
37.927
 20
112.505
 11
38.1433
 21
112.377
  0
LINE
  8
0
 10
38.1433
 20
112.377
 11
38.3511
 21
112.236
  0
LINE
  8
0
 10
38.3511
 20
112.236
 11
38.5497
 21
112.082
  0
LINE
  8
0
 10
38.5497
 20
112.082
 11
38.7382
 21
111.916
  0
LINE
  8
0
 10
38.7382
 20
111.916
 11
38.9159
 21
111.738
  0
LINE
  8
0
 10
38.9159
 20
111.738
 11
39.0821
 21
111.55
  0
LINE
  8
0
 10
39.0821
 20
111.55
 11
39.2361
 21
111.351
  0
LINE
  8
0
 10
39.2361
 20
111.351
 11
39.3773
 21
111.143
  0
LINE
  8
0
 10
39.3773
 20
111.143
 11
39.5052
 21
110.927
  0
LINE
  8
0
 10
39.5052
 20
110.927
 11
39.6193
 21
110.703
  0
LINE
  8
0
 10
39.6193
 20
110.703
 11
39.7191
 21
110.472
  0
LINE
  8
0
 10
39.7191
 20
110.472
 11
39.8042
 21
110.236
  0
LINE
  8
0
 10
39.8042
 20
110.236
 11
39.8743
 21
109.995
  0
LINE
  8
0
 10
39.8743
 20
109.995
 11
39.9291
 21
109.75
  0
LINE
  8
0
 10
39.9291
 20
109.75
 11
39.9685
 21
109.501
  0
LINE
  8
0
 10
39.9685
 20
109.501
 11
39.9921
 21
109.251
  0
LINE
  8
0
 10
39.9921
 20
109.251
 11
40
 21
109
  0
LINE
  8
0
 10
40
 20
109
 11
39.9921
 21
108.749
  0
LINE
  8
0
 10
39.9921
 20
108.749
 11
39.9685
 21
108.499
  0
LINE
  8
0
 10
39.9685
 20
108.499
 11
39.9291
 21
108.25
  0
LINE
  8
0
 10
39.9291
 20
108.25
 11
39.8743
 21
108.005
  0
LINE
  8
0
 10
39.8743
 20
108.005
 11
39.8042
 21
107.764
  0
LINE
  8
0
 10
39.8042
 20
107.764
 11
39.7191
 21
107.528
  0
LINE
  8
0
 10
39.7191
 20
107.528
 11
39.6193
 21
107.297
  0
LINE
  8
0
 10
39.6193
 20
107.297
 11
39.5052
 21
107.073
  0
LINE
  8
0
 10
39.5052
 20
107.073
 11
39.3773
 21
106.857
  0
LINE
  8
0
 10
39.3773
 20
106.857
 11
39.2361
 21
106.649
  0
LINE
  8
0
 10
39.2361
 20
106.649
 11
39.0821
 21
106.45
  0
LINE
  8
0
 10
39.0821
 20
106.45
 11
38.9159
 21
106.262
  0
LINE
  8
0
 10
38.9159
 20
106.262
 11
38.7382
 21
106.084
  0
LINE
  8
0
 10
38.7382
 20
106.084
 11
38.5497
 21
105.918
  0
LINE
  8
0
 10
38.5497
 20
105.918
 11
38.3511
 21
105.764
  0
LINE
  8
0
 10
38.3511
 20
105.764
 11
38.1433
 21
105.623
  0
LINE
  8
0
 10
38.1433
 20
105.623
 11
37.927
 21
105.495
  0
LINE
  8
0
 10
37.927
 20
105.495
 11
37.7031
 21
105.381
  0
LINE
  8
0
 10
37.7031
 20
105.381
 11
37.4725
 21
105.281
  0
LINE
  8
0
 10
37.4725
 20
105.281
 11
37.2361
 21
105.196
  0
LINE
  8
0
 10
37.2361
 20
105.196
 11
36.9948
 21
105.126
  0
LINE
  8
0
 10
36.9948
 20
105.126
 11
36.7495
 21
105.071
  0
LINE
  8
0
 10
36.7495
 20
105.071
 11
36.5013
 21
105.032
  0
LINE
  8
0
 10
36.5013
 20
105.032
 11
36.2512
 21
105.008
  0
LINE
  8
0
 10
36.2512
 20
105.008
 11
36
 21
105
  0
LINE
  8
0
 10
36
 20
105
 11
35.7488
 21
105.008
  0
LINE
  8
0
 10
35.7488
 20
105.008
 11
35.4987
 21
105.032
  0
LINE
  8
0
 10
35.4987
 20
105.032
 11
35.2505
 21
105.071
  0
LINE
  8
0
 10
35.2505
 20
105.071
 11
35.0052
 21
105.126
  0
LINE
  8
0
 10
35.0052
 20
105.126
 11
34.7639
 21
105.196
  0
LINE
  8
0
 10
34.7639
 20
105.196
 11
34.5275
 21
105.281
  0
LINE
  8
0
 10
34.5275
 20
105.281
 11
34.2969
 21
105.381
  0
LINE
  8
0
 10
34.2969
 20
105.381
 11
34.073
 21
105.495
  0
LINE
  8
0
 10
34.073
 20
105.495
 11
33.8567
 21
105.623
  0
LINE
  8
0
 10
33.8567
 20
105.623
 11
33.6489
 21
105.764
  0
LINE
  8
0
 10
33.6489
 20
105.764
 11
33.4503
 21
105.918
  0
LINE
  8
0
 10
33.4503
 20
105.918
 11
33.2618
 21
106.084
  0
LINE
  8
0
 10
33.2618
 20
106.084
 11
33.0841
 21
106.262
  0
LINE
  8
0
 10
33.0841
 20
106.262
 11
32.9179
 21
106.45
  0
LINE
  8
0
 10
32.9179
 20
106.45
 11
32.7639
 21
106.649
  0
LINE
  8
0
 10
32.7639
 20
106.649
 11
32.6227
 21
106.857
  0
LINE
  8
0
 10
32.6227
 20
106.857
 11
32.4948
 21
107.073
  0
LINE
  8
0
 10
32.4948
 20
107.073
 11
32.3807
 21
107.297
  0
LINE
  8
0
 10
32.3807
 20
107.297
 11
32.2809
 21
107.528
  0
LINE
  8
0
 10
32.2809
 20
107.528
 11
32.1958
 21
107.764
  0
LINE
  8
0
 10
32.1958
 20
107.764
 11
32.1257
 21
108.005
  0
LINE
  8
0
 10
32.1257
 20
108.005
 11
32.0709
 21
108.25
  0
LINE
  8
0
 10
32.0709
 20
108.25
 11
32.0315
 21
108.499
  0
LINE
  8
0
 10
32.0315
 20
108.499
 11
32.0079
 21
108.749
  0
LINE
  8
0
 10
32.0079
 20
108.749
 11
32
 21
109
  0
LINE
  8
0
 10
32.002
 20
24.8744
 11
32.002
 21
25.1256
  0
LINE
  8
0
 10
32.002
 20
25.1256
 11
32.0178
 21
25.3764
  0
LINE
  8
0
 10
32.0178
 20
25.3764
 11
32.0492
 21
25.6257
  0
LINE
  8
0
 10
32.0492
 20
25.6257
 11
32.0963
 21
25.8726
  0
LINE
  8
0
 10
32.0963
 20
25.8726
 11
32.1588
 21
26.116
  0
LINE
  8
0
 10
32.1588
 20
26.116
 11
32.2365
 21
26.355
  0
LINE
  8
0
 10
32.2365
 20
26.355
 11
32.329
 21
26.5886
  0
LINE
  8
0
 10
32.329
 20
26.5886
 11
32.436
 21
26.816
  0
LINE
  8
0
 10
32.436
 20
26.816
 11
32.557
 21
27.0362
  0
LINE
  8
0
 10
32.557
 20
27.0362
 11
32.6917
 21
27.2483
  0
LINE
  8
0
 10
32.6917
 20
27.2483
 11
32.8394
 21
27.4516
  0
LINE
  8
0
 10
32.8394
 20
27.4516
 11
32.9996
 21
27.6452
  0
LINE
  8
0
 10
32.9996
 20
27.6452
 11
33.1716
 21
27.8284
  0
LINE
  8
0
 10
33.1716
 20
27.8284
 11
33.3548
 21
28.0004
  0
LINE
  8
0
 10
33.3548
 20
28.0004
 11
33.5484
 21
28.1606
  0
LINE
  8
0
 10
33.5484
 20
28.1606
 11
33.7517
 21
28.3083
  0
LINE
  8
0
 10
33.7517
 20
28.3083
 11
33.9638
 21
28.443
  0
LINE
  8
0
 10
33.9638
 20
28.443
 11
34.184
 21
28.564
  0
LINE
  8
0
 10
34.184
 20
28.564
 11
34.4114
 21
28.671
  0
LINE
  8
0
 10
34.4114
 20
28.671
 11
34.645
 21
28.7635
  0
LINE
  8
0
 10
34.645
 20
28.7635
 11
34.884
 21
28.8412
  0
LINE
  8
0
 10
34.884
 20
28.8412
 11
35.1274
 21
28.9037
  0
LINE
  8
0
 10
35.1274
 20
28.9037
 11
35.3743
 21
28.9508
  0
LINE
  8
0
 10
35.3743
 20
28.9508
 11
35.6236
 21
28.9822
  0
LINE
  8
0
 10
35.6236
 20
28.9822
 11
35.8744
 21
28.998
  0
LINE
  8
0
 10
35.8744
 20
28.998
 11
36.1256
 21
28.998
  0
LINE
  8
0
 10
36.1256
 20
28.998
 11
36.3764
 21
28.9822
  0
LINE
  8
0
 10
36.3764
 20
28.9822
 11
36.6257
 21
28.9508
  0
LINE
  8
0
 10
36.6257
 20
28.9508
 11
36.8726
 21
28.9037
  0
LINE
  8
0
 10
36.8726
 20
28.9037
 11
37.116
 21
28.8412
  0
LINE
  8
0
 10
37.116
 20
28.8412
 11
37.355
 21
28.7635
  0
LINE
  8
0
 10
37.355
 20
28.7635
 11
37.5886
 21
28.671
  0
LINE
  8
0
 10
37.5886
 20
28.671
 11
37.816
 21
28.564
  0
LINE
  8
0
 10
37.816
 20
28.564
 11
38.0362
 21
28.443
  0
LINE
  8
0
 10
38.0362
 20
28.443
 11
38.2483
 21
28.3083
  0
LINE
  8
0
 10
38.2483
 20
28.3083
 11
38.4516
 21
28.1606
  0
LINE
  8
0
 10
38.4516
 20
28.1606
 11
38.6452
 21
28.0004
  0
LINE
  8
0
 10
38.6452
 20
28.0004
 11
38.8284
 21
27.8284
  0
LINE
  8
0
 10
38.8284
 20
27.8284
 11
39.0004
 21
27.6452
  0
LINE
  8
0
 10
39.0004
 20
27.6452
 11
39.1606
 21
27.4516
  0
LINE
  8
0
 10
39.1606
 20
27.4516
 11
39.3083
 21
27.2483
  0
LINE
  8
0
 10
39.3083
 20
27.2483
 11
39.443
 21
27.0362
  0
LINE
  8
0
 10
39.443
 20
27.0362
 11
39.564
 21
26.816
  0
LINE
  8
0
 10
39.564
 20
26.816
 11
39.671
 21
26.5886
  0
LINE
  8
0
 10
39.671
 20
26.5886
 11
39.7635
 21
26.355
  0
LINE
  8
0
 10
39.7635
 20
26.355
 11
39.8412
 21
26.116
  0
LINE
  8
0
 10
39.8412
 20
26.116
 11
39.9037
 21
25.8726
  0
LINE
  8
0
 10
39.9037
 20
25.8726
 11
39.9508
 21
25.6257
  0
LINE
  8
0
 10
39.9508
 20
25.6257
 11
39.9822
 21
25.3764
  0
LINE
  8
0
 10
39.9822
 20
25.3764
 11
39.998
 21
25.1256
  0
LINE
  8
0
 10
39.998
 20
25.1256
 11
39.998
 21
24.8744
  0
LINE
  8
0
 10
39.998
 20
24.8744
 11
39.9822
 21
24.6236
  0
LINE
  8
0
 10
39.9822
 20
24.6236
 11
39.9508
 21
24.3743
  0
LINE
  8
0
 10
39.9508
 20
24.3743
 11
39.9037
 21
24.1274
  0
LINE
  8
0
 10
39.9037
 20
24.1274
 11
39.8412
 21
23.884
  0
LINE
  8
0
 10
39.8412
 20
23.884
 11
39.7635
 21
23.645
  0
LINE
  8
0
 10
39.7635
 20
23.645
 11
39.671
 21
23.4114
  0
LINE
  8
0
 10
39.671
 20
23.4114
 11
39.564
 21
23.184
  0
LINE
  8
0
 10
39.564
 20
23.184
 11
39.443
 21
22.9638
  0
LINE
  8
0
 10
39.443
 20
22.9638
 11
39.3083
 21
22.7517
  0
LINE
  8
0
 10
39.3083
 20
22.7517
 11
39.1606
 21
22.5484
  0
LINE
  8
0
 10
39.1606
 20
22.5484
 11
39.0004
 21
22.3548
  0
LINE
  8
0
 10
39.0004
 20
22.3548
 11
38.8284
 21
22.1716
  0
LINE
  8
0
 10
38.8284
 20
22.1716
 11
38.6452
 21
21.9996
  0
LINE
  8
0
 10
38.6452
 20
21.9996
 11
38.4516
 21
21.8394
  0
LINE
  8
0
 10
38.4516
 20
21.8394
 11
38.2483
 21
21.6917
  0
LINE
  8
0
 10
38.2483
 20
21.6917
 11
38.0362
 21
21.557
  0
LINE
  8
0
 10
38.0362
 20
21.557
 11
37.816
 21
21.436
  0
LINE
  8
0
 10
37.816
 20
21.436
 11
37.5886
 21
21.329
  0
LINE
  8
0
 10
37.5886
 20
21.329
 11
37.355
 21
21.2365
  0
LINE
  8
0
 10
37.355
 20
21.2365
 11
37.116
 21
21.1588
  0
LINE
  8
0
 10
37.116
 20
21.1588
 11
36.8726
 21
21.0963
  0
LINE
  8
0
 10
36.8726
 20
21.0963
 11
36.6257
 21
21.0492
  0
LINE
  8
0
 10
36.6257
 20
21.0492
 11
36.3764
 21
21.0178
  0
LINE
  8
0
 10
36.3764
 20
21.0178
 11
36.1256
 21
21.002
  0
LINE
  8
0
 10
36.1256
 20
21.002
 11
35.8744
 21
21.002
  0
LINE
  8
0
 10
35.8744
 20
21.002
 11
35.6236
 21
21.0178
  0
LINE
  8
0
 10
35.6236
 20
21.0178
 11
35.3743
 21
21.0492
  0
LINE
  8
0
 10
35.3743
 20
21.0492
 11
35.1274
 21
21.0963
  0
LINE
  8
0
 10
35.1274
 20
21.0963
 11
34.884
 21
21.1588
  0
LINE
  8
0
 10
34.884
 20
21.1588
 11
34.645
 21
21.2365
  0
LINE
  8
0
 10
34.645
 20
21.2365
 11
34.4114
 21
21.329
  0
LINE
  8
0
 10
34.4114
 20
21.329
 11
34.184
 21
21.436
  0
LINE
  8
0
 10
34.184
 20
21.436
 11
33.9638
 21
21.557
  0
LINE
  8
0
 10
33.9638
 20
21.557
 11
33.7517
 21
21.6917
  0
LINE
  8
0
 10
33.7517
 20
21.6917
 11
33.5484
 21
21.8394
  0
LINE
  8
0
 10
33.5484
 20
21.8394
 11
33.3548
 21
21.9996
  0
LINE
  8
0
 10
33.3548
 20
21.9996
 11
33.1716
 21
22.1716
  0
LINE
  8
0
 10
33.1716
 20
22.1716
 11
32.9996
 21
22.3548
  0
LINE
  8
0
 10
32.9996
 20
22.3548
 11
32.8394
 21
22.5484
  0
LINE
  8
0
 10
32.8394
 20
22.5484
 11
32.6917
 21
22.7517
  0
LINE
  8
0
 10
32.6917
 20
22.7517
 11
32.557
 21
22.9638
  0
LINE
  8
0
 10
32.557
 20
22.9638
 11
32.436
 21
23.184
  0
LINE
  8
0
 10
32.436
 20
23.184
 11
32.329
 21
23.4114
  0
LINE
  8
0
 10
32.329
 20
23.4114
 11
32.2365
 21
23.645
  0
LINE
  8
0
 10
32.2365
 20
23.645
 11
32.1588
 21
23.884
  0
LINE
  8
0
 10
32.1588
 20
23.884
 11
32.0963
 21
24.1274
  0
LINE
  8
0
 10
32.0963
 20
24.1274
 11
32.0492
 21
24.3743
  0
LINE
  8
0
 10
32.0492
 20
24.3743
 11
32.0178
 21
24.6236
  0
LINE
  8
0
 10
32.0178
 20
24.6236
 11
32.002
 21
24.8744
  0
LINE
  8
0
 10
32.002
 20
45.8744
 11
32.002
 21
46.1256
  0
LINE
  8
0
 10
32.002
 20
46.1256
 11
32.0178
 21
46.3764
  0
LINE
  8
0
 10
32.0178
 20
46.3764
 11
32.0492
 21
46.6257
  0
LINE
  8
0
 10
32.0492
 20
46.6257
 11
32.0963
 21
46.8726
  0
LINE
  8
0
 10
32.0963
 20
46.8726
 11
32.1588
 21
47.116
  0
LINE
  8
0
 10
32.1588
 20
47.116
 11
32.2365
 21
47.355
  0
LINE
  8
0
 10
32.2365
 20
47.355
 11
32.329
 21
47.5886
  0
LINE
  8
0
 10
32.329
 20
47.5886
 11
32.436
 21
47.816
  0
LINE
  8
0
 10
32.436
 20
47.816
 11
32.557
 21
48.0362
  0
LINE
  8
0
 10
32.557
 20
48.0362
 11
32.6917
 21
48.2483
  0
LINE
  8
0
 10
32.6917
 20
48.2483
 11
32.8394
 21
48.4516
  0
LINE
  8
0
 10
32.8394
 20
48.4516
 11
32.9996
 21
48.6452
  0
LINE
  8
0
 10
32.9996
 20
48.6452
 11
33.1716
 21
48.8284
  0
LINE
  8
0
 10
33.1716
 20
48.8284
 11
33.3548
 21
49.0004
  0
LINE
  8
0
 10
33.3548
 20
49.0004
 11
33.5484
 21
49.1606
  0
LINE
  8
0
 10
33.5484
 20
49.1606
 11
33.7517
 21
49.3083
  0
LINE
  8
0
 10
33.7517
 20
49.3083
 11
33.9638
 21
49.443
  0
LINE
  8
0
 10
33.9638
 20
49.443
 11
34.184
 21
49.564
  0
LINE
  8
0
 10
34.184
 20
49.564
 11
34.4114
 21
49.671
  0
LINE
  8
0
 10
34.4114
 20
49.671
 11
34.645
 21
49.7635
  0
LINE
  8
0
 10
34.645
 20
49.7635
 11
34.884
 21
49.8412
  0
LINE
  8
0
 10
34.884
 20
49.8412
 11
35.1274
 21
49.9037
  0
LINE
  8
0
 10
35.1274
 20
49.9037
 11
35.3743
 21
49.9508
  0
LINE
  8
0
 10
35.3743
 20
49.9508
 11
35.6236
 21
49.9822
  0
LINE
  8
0
 10
35.6236
 20
49.9822
 11
35.8744
 21
49.998
  0
LINE
  8
0
 10
35.8744
 20
49.998
 11
36.1256
 21
49.998
  0
LINE
  8
0
 10
36.1256
 20
49.998
 11
36.3764
 21
49.9822
  0
LINE
  8
0
 10
36.3764
 20
49.9822
 11
36.6257
 21
49.9508
  0
LINE
  8
0
 10
36.6257
 20
49.9508
 11
36.8726
 21
49.9037
  0
LINE
  8
0
 10
36.8726
 20
49.9037
 11
37.116
 21
49.8412
  0
LINE
  8
0
 10
37.116
 20
49.8412
 11
37.355
 21
49.7635
  0
LINE
  8
0
 10
37.355
 20
49.7635
 11
37.5886
 21
49.671
  0
LINE
  8
0
 10
37.5886
 20
49.671
 11
37.816
 21
49.564
  0
LINE
  8
0
 10
37.816
 20
49.564
 11
38.0362
 21
49.443
  0
LINE
  8
0
 10
38.0362
 20
49.443
 11
38.2483
 21
49.3083
  0
LINE
  8
0
 10
38.2483
 20
49.3083
 11
38.4516
 21
49.1606
  0
LINE
  8
0
 10
38.4516
 20
49.1606
 11
38.6452
 21
49.0004
  0
LINE
  8
0
 10
38.6452
 20
49.0004
 11
38.8284
 21
48.8284
  0
LINE
  8
0
 10
38.8284
 20
48.8284
 11
39.0004
 21
48.6452
  0
LINE
  8
0
 10
39.0004
 20
48.6452
 11
39.1606
 21
48.4516
  0
LINE
  8
0
 10
39.1606
 20
48.4516
 11
39.3083
 21
48.2483
  0
LINE
  8
0
 10
39.3083
 20
48.2483
 11
39.443
 21
48.0362
  0
LINE
  8
0
 10
39.443
 20
48.0362
 11
39.564
 21
47.816
  0
LINE
  8
0
 10
39.564
 20
47.816
 11
39.671
 21
47.5886
  0
LINE
  8
0
 10
39.671
 20
47.5886
 11
39.7635
 21
47.355
  0
LINE
  8
0
 10
39.7635
 20
47.355
 11
39.8412
 21
47.116
  0
LINE
  8
0
 10
39.8412
 20
47.116
 11
39.9037
 21
46.8726
  0
LINE
  8
0
 10
39.9037
 20
46.8726
 11
39.9508
 21
46.6257
  0
LINE
  8
0
 10
39.9508
 20
46.6257
 11
39.9822
 21
46.3764
  0
LINE
  8
0
 10
39.9822
 20
46.3764
 11
39.998
 21
46.1256
  0
LINE
  8
0
 10
39.998
 20
46.1256
 11
39.998
 21
45.8744
  0
LINE
  8
0
 10
39.998
 20
45.8744
 11
39.9822
 21
45.6236
  0
LINE
  8
0
 10
39.9822
 20
45.6236
 11
39.9508
 21
45.3743
  0
LINE
  8
0
 10
39.9508
 20
45.3743
 11
39.9037
 21
45.1274
  0
LINE
  8
0
 10
39.9037
 20
45.1274
 11
39.8412
 21
44.884
  0
LINE
  8
0
 10
39.8412
 20
44.884
 11
39.7635
 21
44.645
  0
LINE
  8
0
 10
39.7635
 20
44.645
 11
39.671
 21
44.4114
  0
LINE
  8
0
 10
39.671
 20
44.4114
 11
39.564
 21
44.184
  0
LINE
  8
0
 10
39.564
 20
44.184
 11
39.443
 21
43.9638
  0
LINE
  8
0
 10
39.443
 20
43.9638
 11
39.3083
 21
43.7517
  0
LINE
  8
0
 10
39.3083
 20
43.7517
 11
39.1606
 21
43.5484
  0
LINE
  8
0
 10
39.1606
 20
43.5484
 11
39.0004
 21
43.3548
  0
LINE
  8
0
 10
39.0004
 20
43.3548
 11
38.8284
 21
43.1716
  0
LINE
  8
0
 10
38.8284
 20
43.1716
 11
38.6452
 21
42.9996
  0
LINE
  8
0
 10
38.6452
 20
42.9996
 11
38.4516
 21
42.8394
  0
LINE
  8
0
 10
38.4516
 20
42.8394
 11
38.2483
 21
42.6917
  0
LINE
  8
0
 10
38.2483
 20
42.6917
 11
38.0362
 21
42.557
  0
LINE
  8
0
 10
38.0362
 20
42.557
 11
37.816
 21
42.436
  0
LINE
  8
0
 10
37.816
 20
42.436
 11
37.5886
 21
42.329
  0
LINE
  8
0
 10
37.5886
 20
42.329
 11
37.355
 21
42.2365
  0
LINE
  8
0
 10
37.355
 20
42.2365
 11
37.116
 21
42.1588
  0
LINE
  8
0
 10
37.116
 20
42.1588
 11
36.8726
 21
42.0963
  0
LINE
  8
0
 10
36.8726
 20
42.0963
 11
36.6257
 21
42.0492
  0
LINE
  8
0
 10
36.6257
 20
42.0492
 11
36.3764
 21
42.0178
  0
LINE
  8
0
 10
36.3764
 20
42.0178
 11
36.1256
 21
42.002
  0
LINE
  8
0
 10
36.1256
 20
42.002
 11
35.8744
 21
42.002
  0
LINE
  8
0
 10
35.8744
 20
42.002
 11
35.6236
 21
42.0178
  0
LINE
  8
0
 10
35.6236
 20
42.0178
 11
35.3743
 21
42.0492
  0
LINE
  8
0
 10
35.3743
 20
42.0492
 11
35.1274
 21
42.0963
  0
LINE
  8
0
 10
35.1274
 20
42.0963
 11
34.884
 21
42.1588
  0
LINE
  8
0
 10
34.884
 20
42.1588
 11
34.645
 21
42.2365
  0
LINE
  8
0
 10
34.645
 20
42.2365
 11
34.4114
 21
42.329
  0
LINE
  8
0
 10
34.4114
 20
42.329
 11
34.184
 21
42.436
  0
LINE
  8
0
 10
34.184
 20
42.436
 11
33.9638
 21
42.557
  0
LINE
  8
0
 10
33.9638
 20
42.557
 11
33.7517
 21
42.6917
  0
LINE
  8
0
 10
33.7517
 20
42.6917
 11
33.5484
 21
42.8394
  0
LINE
  8
0
 10
33.5484
 20
42.8394
 11
33.3548
 21
42.9996
  0
LINE
  8
0
 10
33.3548
 20
42.9996
 11
33.1716
 21
43.1716
  0
LINE
  8
0
 10
33.1716
 20
43.1716
 11
32.9996
 21
43.3548
  0
LINE
  8
0
 10
32.9996
 20
43.3548
 11
32.8394
 21
43.5484
  0
LINE
  8
0
 10
32.8394
 20
43.5484
 11
32.6917
 21
43.7517
  0
LINE
  8
0
 10
32.6917
 20
43.7517
 11
32.557
 21
43.9638
  0
LINE
  8
0
 10
32.557
 20
43.9638
 11
32.436
 21
44.184
  0
LINE
  8
0
 10
32.436
 20
44.184
 11
32.329
 21
44.4114
  0
LINE
  8
0
 10
32.329
 20
44.4114
 11
32.2365
 21
44.645
  0
LINE
  8
0
 10
32.2365
 20
44.645
 11
32.1588
 21
44.884
  0
LINE
  8
0
 10
32.1588
 20
44.884
 11
32.0963
 21
45.1274
  0
LINE
  8
0
 10
32.0963
 20
45.1274
 11
32.0492
 21
45.3743
  0
LINE
  8
0
 10
32.0492
 20
45.3743
 11
32.0178
 21
45.6236
  0
LINE
  8
0
 10
32.0178
 20
45.6236
 11
32.002
 21
45.8744
  0
LINE
  8
0
 10
32.002
 20
66.8744
 11
32.002
 21
67.1256
  0
LINE
  8
0
 10
32.002
 20
67.1256
 11
32.0178
 21
67.3764
  0
LINE
  8
0
 10
32.0178
 20
67.3764
 11
32.0492
 21
67.6257
  0
LINE
  8
0
 10
32.0492
 20
67.6257
 11
32.0963
 21
67.8726
  0
LINE
  8
0
 10
32.0963
 20
67.8726
 11
32.1588
 21
68.116
  0
LINE
  8
0
 10
32.1588
 20
68.116
 11
32.2365
 21
68.355
  0
LINE
  8
0
 10
32.2365
 20
68.355
 11
32.329
 21
68.5886
  0
LINE
  8
0
 10
32.329
 20
68.5886
 11
32.436
 21
68.816
  0
LINE
  8
0
 10
32.436
 20
68.816
 11
32.557
 21
69.0362
  0
LINE
  8
0
 10
32.557
 20
69.0362
 11
32.6917
 21
69.2483
  0
LINE
  8
0
 10
32.6917
 20
69.2483
 11
32.8394
 21
69.4516
  0
LINE
  8
0
 10
32.8394
 20
69.4516
 11
32.9996
 21
69.6452
  0
LINE
  8
0
 10
32.9996
 20
69.6452
 11
33.1716
 21
69.8284
  0
LINE
  8
0
 10
33.1716
 20
69.8284
 11
33.3548
 21
70.0004
  0
LINE
  8
0
 10
33.3548
 20
70.0004
 11
33.5484
 21
70.1606
  0
LINE
  8
0
 10
33.5484
 20
70.1606
 11
33.7517
 21
70.3083
  0
LINE
  8
0
 10
33.7517
 20
70.3083
 11
33.9638
 21
70.443
  0
LINE
  8
0
 10
33.9638
 20
70.443
 11
34.184
 21
70.564
  0
LINE
  8
0
 10
34.184
 20
70.564
 11
34.4114
 21
70.671
  0
LINE
  8
0
 10
34.4114
 20
70.671
 11
34.645
 21
70.7635
  0
LINE
  8
0
 10
34.645
 20
70.7635
 11
34.884
 21
70.8412
  0
LINE
  8
0
 10
34.884
 20
70.8412
 11
35.1274
 21
70.9037
  0
LINE
  8
0
 10
35.1274
 20
70.9037
 11
35.3743
 21
70.9508
  0
LINE
  8
0
 10
35.3743
 20
70.9508
 11
35.6236
 21
70.9822
  0
LINE
  8
0
 10
35.6236
 20
70.9822
 11
35.8744
 21
70.998
  0
LINE
  8
0
 10
35.8744
 20
70.998
 11
36.1256
 21
70.998
  0
LINE
  8
0
 10
36.1256
 20
70.998
 11
36.3764
 21
70.9822
  0
LINE
  8
0
 10
36.3764
 20
70.9822
 11
36.6257
 21
70.9508
  0
LINE
  8
0
 10
36.6257
 20
70.9508
 11
36.8726
 21
70.9037
  0
LINE
  8
0
 10
36.8726
 20
70.9037
 11
37.116
 21
70.8412
  0
LINE
  8
0
 10
37.116
 20
70.8412
 11
37.355
 21
70.7635
  0
LINE
  8
0
 10
37.355
 20
70.7635
 11
37.5886
 21
70.671
  0
LINE
  8
0
 10
37.5886
 20
70.671
 11
37.816
 21
70.564
  0
LINE
  8
0
 10
37.816
 20
70.564
 11
38.0362
 21
70.443
  0
LINE
  8
0
 10
38.0362
 20
70.443
 11
38.2483
 21
70.3083
  0
LINE
  8
0
 10
38.2483
 20
70.3083
 11
38.4516
 21
70.1606
  0
LINE
  8
0
 10
38.4516
 20
70.1606
 11
38.6452
 21
70.0004
  0
LINE
  8
0
 10
38.6452
 20
70.0004
 11
38.8284
 21
69.8284
  0
LINE
  8
0
 10
38.8284
 20
69.8284
 11
39.0004
 21
69.6452
  0
LINE
  8
0
 10
39.0004
 20
69.6452
 11
39.1606
 21
69.4516
  0
LINE
  8
0
 10
39.1606
 20
69.4516
 11
39.3083
 21
69.2483
  0
LINE
  8
0
 10
39.3083
 20
69.2483
 11
39.443
 21
69.0362
  0
LINE
  8
0
 10
39.443
 20
69.0362
 11
39.564
 21
68.816
  0
LINE
  8
0
 10
39.564
 20
68.816
 11
39.671
 21
68.5886
  0
LINE
  8
0
 10
39.671
 20
68.5886
 11
39.7635
 21
68.355
  0
LINE
  8
0
 10
39.7635
 20
68.355
 11
39.8412
 21
68.116
  0
LINE
  8
0
 10
39.8412
 20
68.116
 11
39.9037
 21
67.8726
  0
LINE
  8
0
 10
39.9037
 20
67.8726
 11
39.9508
 21
67.6257
  0
LINE
  8
0
 10
39.9508
 20
67.6257
 11
39.9822
 21
67.3764
  0
LINE
  8
0
 10
39.9822
 20
67.3764
 11
39.998
 21
67.1256
  0
LINE
  8
0
 10
39.998
 20
67.1256
 11
39.998
 21
66.8744
  0
LINE
  8
0
 10
39.998
 20
66.8744
 11
39.9822
 21
66.6236
  0
LINE
  8
0
 10
39.9822
 20
66.6236
 11
39.9508
 21
66.3743
  0
LINE
  8
0
 10
39.9508
 20
66.3743
 11
39.9037
 21
66.1274
  0
LINE
  8
0
 10
39.9037
 20
66.1274
 11
39.8412
 21
65.884
  0
LINE
  8
0
 10
39.8412
 20
65.884
 11
39.7635
 21
65.645
  0
LINE
  8
0
 10
39.7635
 20
65.645
 11
39.671
 21
65.4114
  0
LINE
  8
0
 10
39.671
 20
65.4114
 11
39.564
 21
65.184
  0
LINE
  8
0
 10
39.564
 20
65.184
 11
39.443
 21
64.9638
  0
LINE
  8
0
 10
39.443
 20
64.9638
 11
39.3083
 21
64.7517
  0
LINE
  8
0
 10
39.3083
 20
64.7517
 11
39.1606
 21
64.5484
  0
LINE
  8
0
 10
39.1606
 20
64.5484
 11
39.0004
 21
64.3548
  0
LINE
  8
0
 10
39.0004
 20
64.3548
 11
38.8284
 21
64.1716
  0
LINE
  8
0
 10
38.8284
 20
64.1716
 11
38.6452
 21
63.9996
  0
LINE
  8
0
 10
38.6452
 20
63.9996
 11
38.4516
 21
63.8394
  0
LINE
  8
0
 10
38.4516
 20
63.8394
 11
38.2483
 21
63.6917
  0
LINE
  8
0
 10
38.2483
 20
63.6917
 11
38.0362
 21
63.557
  0
LINE
  8
0
 10
38.0362
 20
63.557
 11
37.816
 21
63.436
  0
LINE
  8
0
 10
37.816
 20
63.436
 11
37.5886
 21
63.329
  0
LINE
  8
0
 10
37.5886
 20
63.329
 11
37.355
 21
63.2365
  0
LINE
  8
0
 10
37.355
 20
63.2365
 11
37.116
 21
63.1588
  0
LINE
  8
0
 10
37.116
 20
63.1588
 11
36.8726
 21
63.0963
  0
LINE
  8
0
 10
36.8726
 20
63.0963
 11
36.6257
 21
63.0492
  0
LINE
  8
0
 10
36.6257
 20
63.0492
 11
36.3764
 21
63.0178
  0
LINE
  8
0
 10
36.3764
 20
63.0178
 11
36.1256
 21
63.002
  0
LINE
  8
0
 10
36.1256
 20
63.002
 11
35.8744
 21
63.002
  0
LINE
  8
0
 10
35.8744
 20
63.002
 11
35.6236
 21
63.0178
  0
LINE
  8
0
 10
35.6236
 20
63.0178
 11
35.3743
 21
63.0492
  0
LINE
  8
0
 10
35.3743
 20
63.0492
 11
35.1274
 21
63.0963
  0
LINE
  8
0
 10
35.1274
 20
63.0963
 11
34.884
 21
63.1588
  0
LINE
  8
0
 10
34.884
 20
63.1588
 11
34.645
 21
63.2365
  0
LINE
  8
0
 10
34.645
 20
63.2365
 11
34.4114
 21
63.329
  0
LINE
  8
0
 10
34.4114
 20
63.329
 11
34.184
 21
63.436
  0
LINE
  8
0
 10
34.184
 20
63.436
 11
33.9638
 21
63.557
  0
LINE
  8
0
 10
33.9638
 20
63.557
 11
33.7517
 21
63.6917
  0
LINE
  8
0
 10
33.7517
 20
63.6917
 11
33.5484
 21
63.8394
  0
LINE
  8
0
 10
33.5484
 20
63.8394
 11
33.3548
 21
63.9996
  0
LINE
  8
0
 10
33.3548
 20
63.9996
 11
33.1716
 21
64.1716
  0
LINE
  8
0
 10
33.1716
 20
64.1716
 11
32.9996
 21
64.3548
  0
LINE
  8
0
 10
32.9996
 20
64.3548
 11
32.8394
 21
64.5484
  0
LINE
  8
0
 10
32.8394
 20
64.5484
 11
32.6917
 21
64.7517
  0
LINE
  8
0
 10
32.6917
 20
64.7517
 11
32.557
 21
64.9638
  0
LINE
  8
0
 10
32.557
 20
64.9638
 11
32.436
 21
65.184
  0
LINE
  8
0
 10
32.436
 20
65.184
 11
32.329
 21
65.4114
  0
LINE
  8
0
 10
32.329
 20
65.4114
 11
32.2365
 21
65.645
  0
LINE
  8
0
 10
32.2365
 20
65.645
 11
32.1588
 21
65.884
  0
LINE
  8
0
 10
32.1588
 20
65.884
 11
32.0963
 21
66.1274
  0
LINE
  8
0
 10
32.0963
 20
66.1274
 11
32.0492
 21
66.3743
  0
LINE
  8
0
 10
32.0492
 20
66.3743
 11
32.0178
 21
66.6236
  0
LINE
  8
0
 10
32.0178
 20
66.6236
 11
32.002
 21
66.8744
  0
LINE
  8
0
 10
32.002
 20
87.8744
 11
32.002
 21
88.1256
  0
LINE
  8
0
 10
32.002
 20
88.1256
 11
32.0178
 21
88.3764
  0
LINE
  8
0
 10
32.0178
 20
88.3764
 11
32.0492
 21
88.6257
  0
LINE
  8
0
 10
32.0492
 20
88.6257
 11
32.0963
 21
88.8726
  0
LINE
  8
0
 10
32.0963
 20
88.8726
 11
32.1588
 21
89.116
  0
LINE
  8
0
 10
32.1588
 20
89.116
 11
32.2365
 21
89.355
  0
LINE
  8
0
 10
32.2365
 20
89.355
 11
32.329
 21
89.5886
  0
LINE
  8
0
 10
32.329
 20
89.5886
 11
32.436
 21
89.816
  0
LINE
  8
0
 10
32.436
 20
89.816
 11
32.557
 21
90.0362
  0
LINE
  8
0
 10
32.557
 20
90.0362
 11
32.6917
 21
90.2483
  0
LINE
  8
0
 10
32.6917
 20
90.2483
 11
32.8394
 21
90.4516
  0
LINE
  8
0
 10
32.8394
 20
90.4516
 11
32.9996
 21
90.6452
  0
LINE
  8
0
 10
32.9996
 20
90.6452
 11
33.1716
 21
90.8284
  0
LINE
  8
0
 10
33.1716
 20
90.8284
 11
33.3548
 21
91.0004
  0
LINE
  8
0
 10
33.3548
 20
91.0004
 11
33.5484
 21
91.1606
  0
LINE
  8
0
 10
33.5484
 20
91.1606
 11
33.7517
 21
91.3083
  0
LINE
  8
0
 10
33.7517
 20
91.3083
 11
33.9638
 21
91.443
  0
LINE
  8
0
 10
33.9638
 20
91.443
 11
34.184
 21
91.564
  0
LINE
  8
0
 10
34.184
 20
91.564
 11
34.4114
 21
91.671
  0
LINE
  8
0
 10
34.4114
 20
91.671
 11
34.645
 21
91.7635
  0
LINE
  8
0
 10
34.645
 20
91.7635
 11
34.884
 21
91.8412
  0
LINE
  8
0
 10
34.884
 20
91.8412
 11
35.1274
 21
91.9037
  0
LINE
  8
0
 10
35.1274
 20
91.9037
 11
35.3743
 21
91.9508
  0
LINE
  8
0
 10
35.3743
 20
91.9508
 11
35.6236
 21
91.9822
  0
LINE
  8
0
 10
35.6236
 20
91.9822
 11
35.8744
 21
91.998
  0
LINE
  8
0
 10
35.8744
 20
91.998
 11
36.1256
 21
91.998
  0
LINE
  8
0
 10
36.1256
 20
91.998
 11
36.3764
 21
91.9822
  0
LINE
  8
0
 10
36.3764
 20
91.9822
 11
36.6257
 21
91.9508
  0
LINE
  8
0
 10
36.6257
 20
91.9508
 11
36.8726
 21
91.9037
  0
LINE
  8
0
 10
36.8726
 20
91.9037
 11
37.116
 21
91.8412
  0
LINE
  8
0
 10
37.116
 20
91.8412
 11
37.355
 21
91.7635
  0
LINE
  8
0
 10
37.355
 20
91.7635
 11
37.5886
 21
91.671
  0
LINE
  8
0
 10
37.5886
 20
91.671
 11
37.816
 21
91.564
  0
LINE
  8
0
 10
37.816
 20
91.564
 11
38.0362
 21
91.443
  0
LINE
  8
0
 10
38.0362
 20
91.443
 11
38.2483
 21
91.3083
  0
LINE
  8
0
 10
38.2483
 20
91.3083
 11
38.4516
 21
91.1606
  0
LINE
  8
0
 10
38.4516
 20
91.1606
 11
38.6452
 21
91.0004
  0
LINE
  8
0
 10
38.6452
 20
91.0004
 11
38.8284
 21
90.8284
  0
LINE
  8
0
 10
38.8284
 20
90.8284
 11
39.0004
 21
90.6452
  0
LINE
  8
0
 10
39.0004
 20
90.6452
 11
39.1606
 21
90.4516
  0
LINE
  8
0
 10
39.1606
 20
90.4516
 11
39.3083
 21
90.2483
  0
LINE
  8
0
 10
39.3083
 20
90.2483
 11
39.443
 21
90.0362
  0
LINE
  8
0
 10
39.443
 20
90.0362
 11
39.564
 21
89.816
  0
LINE
  8
0
 10
39.564
 20
89.816
 11
39.671
 21
89.5886
  0
LINE
  8
0
 10
39.671
 20
89.5886
 11
39.7635
 21
89.355
  0
LINE
  8
0
 10
39.7635
 20
89.355
 11
39.8412
 21
89.116
  0
LINE
  8
0
 10
39.8412
 20
89.116
 11
39.9037
 21
88.8726
  0
LINE
  8
0
 10
39.9037
 20
88.8726
 11
39.9508
 21
88.6257
  0
LINE
  8
0
 10
39.9508
 20
88.6257
 11
39.9822
 21
88.3764
  0
LINE
  8
0
 10
39.9822
 20
88.3764
 11
39.998
 21
88.1256
  0
LINE
  8
0
 10
39.998
 20
88.1256
 11
39.998
 21
87.8744
  0
LINE
  8
0
 10
39.998
 20
87.8744
 11
39.9822
 21
87.6236
  0
LINE
  8
0
 10
39.9822
 20
87.6236
 11
39.9508
 21
87.3743
  0
LINE
  8
0
 10
39.9508
 20
87.3743
 11
39.9037
 21
87.1274
  0
LINE
  8
0
 10
39.9037
 20
87.1274
 11
39.8412
 21
86.884
  0
LINE
  8
0
 10
39.8412
 20
86.884
 11
39.7635
 21
86.645
  0
LINE
  8
0
 10
39.7635
 20
86.645
 11
39.671
 21
86.4114
  0
LINE
  8
0
 10
39.671
 20
86.4114
 11
39.564
 21
86.184
  0
LINE
  8
0
 10
39.564
 20
86.184
 11
39.443
 21
85.9638
  0
LINE
  8
0
 10
39.443
 20
85.9638
 11
39.3083
 21
85.7517
  0
LINE
  8
0
 10
39.3083
 20
85.7517
 11
39.1606
 21
85.5484
  0
LINE
  8
0
 10
39.1606
 20
85.5484
 11
39.0004
 21
85.3548
  0
LINE
  8
0
 10
39.0004
 20
85.3548
 11
38.8284
 21
85.1716
  0
LINE
  8
0
 10
38.8284
 20
85.1716
 11
38.6452
 21
84.9996
  0
LINE
  8
0
 10
38.6452
 20
84.9996
 11
38.4516
 21
84.8394
  0
LINE
  8
0
 10
38.4516
 20
84.8394
 11
38.2483
 21
84.6917
  0
LINE
  8
0
 10
38.2483
 20
84.6917
 11
38.0362
 21
84.557
  0
LINE
  8
0
 10
38.0362
 20
84.557
 11
37.816
 21
84.436
  0
LINE
  8
0
 10
37.816
 20
84.436
 11
37.5886
 21
84.329
  0
LINE
  8
0
 10
37.5886
 20
84.329
 11
37.355
 21
84.2365
  0
LINE
  8
0
 10
37.355
 20
84.2365
 11
37.116
 21
84.1588
  0
LINE
  8
0
 10
37.116
 20
84.1588
 11
36.8726
 21
84.0963
  0
LINE
  8
0
 10
36.8726
 20
84.0963
 11
36.6257
 21
84.0492
  0
LINE
  8
0
 10
36.6257
 20
84.0492
 11
36.3764
 21
84.0178
  0
LINE
  8
0
 10
36.3764
 20
84.0178
 11
36.1256
 21
84.002
  0
LINE
  8
0
 10
36.1256
 20
84.002
 11
35.8744
 21
84.002
  0
LINE
  8
0
 10
35.8744
 20
84.002
 11
35.6236
 21
84.0178
  0
LINE
  8
0
 10
35.6236
 20
84.0178
 11
35.3743
 21
84.0492
  0
LINE
  8
0
 10
35.3743
 20
84.0492
 11
35.1274
 21
84.0963
  0
LINE
  8
0
 10
35.1274
 20
84.0963
 11
34.884
 21
84.1588
  0
LINE
  8
0
 10
34.884
 20
84.1588
 11
34.645
 21
84.2365
  0
LINE
  8
0
 10
34.645
 20
84.2365
 11
34.4114
 21
84.329
  0
LINE
  8
0
 10
34.4114
 20
84.329
 11
34.184
 21
84.436
  0
LINE
  8
0
 10
34.184
 20
84.436
 11
33.9638
 21
84.557
  0
LINE
  8
0
 10
33.9638
 20
84.557
 11
33.7517
 21
84.6917
  0
LINE
  8
0
 10
33.7517
 20
84.6917
 11
33.5484
 21
84.8394
  0
LINE
  8
0
 10
33.5484
 20
84.8394
 11
33.3548
 21
84.9996
  0
LINE
  8
0
 10
33.3548
 20
84.9996
 11
33.1716
 21
85.1716
  0
LINE
  8
0
 10
33.1716
 20
85.1716
 11
32.9996
 21
85.3548
  0
LINE
  8
0
 10
32.9996
 20
85.3548
 11
32.8394
 21
85.5484
  0
LINE
  8
0
 10
32.8394
 20
85.5484
 11
32.6917
 21
85.7517
  0
LINE
  8
0
 10
32.6917
 20
85.7517
 11
32.557
 21
85.9638
  0
LINE
  8
0
 10
32.557
 20
85.9638
 11
32.436
 21
86.184
  0
LINE
  8
0
 10
32.436
 20
86.184
 11
32.329
 21
86.4114
  0
LINE
  8
0
 10
32.329
 20
86.4114
 11
32.2365
 21
86.645
  0
LINE
  8
0
 10
32.2365
 20
86.645
 11
32.1588
 21
86.884
  0
LINE
  8
0
 10
32.1588
 20
86.884
 11
32.0963
 21
87.1274
  0
LINE
  8
0
 10
32.0963
 20
87.1274
 11
32.0492
 21
87.3743
  0
LINE
  8
0
 10
32.0492
 20
87.3743
 11
32.0178
 21
87.6236
  0
LINE
  8
0
 10
32.0178
 20
87.6236
 11
32.002
 21
87.8744
  0
LINE
  8
0
 10
35.1226
 20
116.62
 11
35.1226
 21
118.435
  0
LINE
  8
0
 10
35.1226
 20
118.435
 11
35.2011
 21
118.916
  0
LINE
  8
0
 10
35.2011
 20
118.916
 11
35.4366
 21
119.272
  0
LINE
  8
0
 10
35.4366
 20
119.272
 11
35.8206
 21
119.491
  0
LINE
  8
0
 10
35.8206
 20
119.491
 11
36.3425
 21
119.564
  0
LINE
  8
0
 10
36.3425
 20
119.564
 11
36.8848
 21
119.488
  0
LINE
  8
0
 10
36.8848
 20
119.488
 11
37.2896
 21
119.26
  0
LINE
  8
0
 10
37.2896
 20
119.26
 11
37.5423
 21
118.894
  0
LINE
  8
0
 10
37.5423
 20
118.894
 11
37.6266
 21
118.404
  0
LINE
  8
0
 10
37.6266
 20
118.404
 11
37.6266
 21
116.62
  0
LINE
  8
0
 10
37.6266
 20
116.62
 11
37.0276
 21
116.62
  0
LINE
  8
0
 10
37.0276
 20
116.62
 11
37.0276
 21
118.372
  0
LINE
  8
0
 10
37.0276
 20
118.372
 11
36.9843
 21
118.681
  0
LINE
  8
0
 10
36.9843
 20
118.681
 11
36.8546
 21
118.908
  0
LINE
  8
0
 10
36.8546
 20
118.908
 11
36.6443
 21
119.048
  0
LINE
  8
0
 10
36.6443
 20
119.048
 11
36.3596
 21
119.095
  0
LINE
  8
0
 10
36.3596
 20
119.095
 11
36.0836
 21
119.051
  0
LINE
  8
0
 10
36.0836
 20
119.051
 11
35.8836
 21
118.917
  0
LINE
  8
0
 10
35.8836
 20
118.917
 11
35.7621
 21
118.697
  0
LINE
  8
0
 10
35.7621
 20
118.697
 11
35.7216
 21
118.393
  0
LINE
  8
0
 10
35.7216
 20
118.393
 11
35.7216
 21
116.62
  0
LINE
  8
0
 10
35.7216
 20
116.62
 11
35.1226
 21
116.62
  0
LINE
  8
0
 10
37.8531
 20
116.62
 11
37.8531
 21
117.083
  0
LINE
  8
0
 10
37.8531
 20
117.083
 11
38.7841
 21
117.083
  0
LINE
  8
0
 10
38.7841
 20
117.083
 11
38.7841
 21
119.5
  0
LINE
  8
0
 10
38.7841
 20
119.5
 11
39.3831
 21
119.5
  0
LINE
  8
0
 10
39.3831
 20
119.5
 11
39.3831
 21
117.083
  0
LINE
  8
0
 10
39.3831
 20
117.083
 11
40.3212
 21
117.083
  0
LINE
  8
0
 10
40.3212
 20
117.083
 11
40.3212
 21
116.62
  0
LINE
  8
0
 10
40.3212
 20
116.62
 11
37.8531
 21
116.62
  0
LINE
  8
0
 10
40.1576
 20
19.296
 11
40.1576
 21
19.3903
  0
LINE
  8
0
 10
40.1576
 20
19.3903
 11
40.1635
 21
19.4843
  0
LINE
  8
0
 10
40.1635
 20
19.4843
 11
40.1753
 21
19.5778
  0
LINE
  8
0
 10
40.1753
 20
19.5778
 11
40.193
 21
19.6704
  0
LINE
  8
0
 10
40.193
 20
19.6704
 11
40.2164
 21
19.7616
  0
LINE
  8
0
 10
40.2164
 20
19.7616
 11
40.2455
 21
19.8513
  0
LINE
  8
0
 10
40.2455
 20
19.8513
 11
40.2802
 21
19.9389
  0
LINE
  8
0
 10
40.2802
 20
19.9389
 11
40.3203
 21
20.0241
  0
LINE
  8
0
 10
40.3203
 20
20.0241
 11
40.3657
 21
20.1067
  0
LINE
  8
0
 10
40.3657
 20
20.1067
 11
40.4162
 21
20.1863
  0
LINE
  8
0
 10
40.4162
 20
20.1863
 11
40.4716
 21
20.2625
  0
LINE
  8
0
 10
40.4716
 20
20.2625
 11
40.5317
 21
20.3351
  0
LINE
  8
0
 10
40.5317
 20
20.3351
 11
40.5962
 21
20.4038
  0
LINE
  8
0
 10
40.5962
 20
20.4038
 11
40.6649
 21
20.4683
  0
LINE
  8
0
 10
40.6649
 20
20.4683
 11
40.7375
 21
20.5284
  0
LINE
  8
0
 10
40.7375
 20
20.5284
 11
40.8137
 21
20.5838
  0
LINE
  8
0
 10
40.8137
 20
20.5838
 11
40.8933
 21
20.6343
  0
LINE
  8
0
 10
40.8933
 20
20.6343
 11
40.9759
 21
20.6797
  0
LINE
  8
0
 10
40.9759
 20
20.6797
 11
41.0611
 21
20.7198
  0
LINE
  8
0
 10
41.0611
 20
20.7198
 11
41.1487
 21
20.7545
  0
LINE
  8
0
 10
41.1487
 20
20.7545
 11
41.2384
 21
20.7836
  0
LINE
  8
0
 10
41.2384
 20
20.7836
 11
41.3296
 21
20.807
  0
LINE
  8
0
 10
41.3296
 20
20.807
 11
41.4222
 21
20.8247
  0
LINE
  8
0
 10
41.4222
 20
20.8247
 11
41.5157
 21
20.8365
  0
LINE
  8
0
 10
41.5157
 20
20.8365
 11
41.6097
 21
20.8424
  0
LINE
  8
0
 10
41.6097
 20
20.8424
 11
41.704
 21
20.8424
  0
LINE
  8
0
 10
41.704
 20
20.8424
 11
41.798
 21
20.8365
  0
LINE
  8
0
 10
41.798
 20
20.8365
 11
41.8915
 21
20.8247
  0
LINE
  8
0
 10
41.8915
 20
20.8247
 11
41.9841
 21
20.807
  0
LINE
  8
0
 10
41.9841
 20
20.807
 11
42.0753
 21
20.7836
  0
LINE
  8
0
 10
42.0753
 20
20.7836
 11
42.165
 21
20.7545
  0
LINE
  8
0
 10
42.165
 20
20.7545
 11
42.2526
 21
20.7198
  0
LINE
  8
0
 10
42.2526
 20
20.7198
 11
42.3378
 21
20.6797
  0
LINE
  8
0
 10
42.3378
 20
20.6797
 11
42.4204
 21
20.6343
  0
LINE
  8
0
 10
42.4204
 20
20.6343
 11
42.5
 21
20.5838
  0
LINE
  8
0
 10
42.5
 20
20.5838
 11
42.5762
 21
20.5284
  0
LINE
  8
0
 10
42.5762
 20
20.5284
 11
42.6488
 21
20.4683
  0
LINE
  8
0
 10
42.6488
 20
20.4683
 11
42.7175
 21
20.4038
  0
LINE
  8
0
 10
42.7175
 20
20.4038
 11
42.782
 21
20.3351
  0
LINE
  8
0
 10
42.782
 20
20.3351
 11
42.8421
 21
20.2625
  0
LINE
  8
0
 10
42.8421
 20
20.2625
 11
42.8975
 21
20.1863
  0
LINE
  8
0
 10
42.8975
 20
20.1863
 11
42.948
 21
20.1067
  0
LINE
  8
0
 10
42.948
 20
20.1067
 11
42.9934
 21
20.0241
  0
LINE
  8
0
 10
42.9934
 20
20.0241
 11
43.0335
 21
19.9389
  0
LINE
  8
0
 10
43.0335
 20
19.9389
 11
43.0682
 21
19.8513
  0
LINE
  8
0
 10
43.0682
 20
19.8513
 11
43.0973
 21
19.7616
  0
LINE
  8
0
 10
43.0973
 20
19.7616
 11
43.1207
 21
19.6704
  0
LINE
  8
0
 10
43.1207
 20
19.6704
 11
43.1384
 21
19.5778
  0
LINE
  8
0
 10
43.1384
 20
19.5778
 11
43.1502
 21
19.4843
  0
LINE
  8
0
 10
43.1502
 20
19.4843
 11
43.1561
 21
19.3903
  0
LINE
  8
0
 10
43.1561
 20
19.3903
 11
43.1561
 21
19.296
  0
LINE
  8
0
 10
43.1561
 20
19.296
 11
43.1502
 21
19.202
  0
LINE
  8
0
 10
43.1502
 20
19.202
 11
43.1384
 21
19.1085
  0
LINE
  8
0
 10
43.1384
 20
19.1085
 11
43.1207
 21
19.0159
  0
LINE
  8
0
 10
43.1207
 20
19.0159
 11
43.0973
 21
18.9247
  0
LINE
  8
0
 10
43.0973
 20
18.9247
 11
43.0682
 21
18.835
  0
LINE
  8
0
 10
43.0682
 20
18.835
 11
43.0335
 21
18.7474
  0
LINE
  8
0
 10
43.0335
 20
18.7474
 11
42.9934
 21
18.6622
  0
LINE
  8
0
 10
42.9934
 20
18.6622
 11
42.948
 21
18.5796
  0
LINE
  8
0
 10
42.948
 20
18.5796
 11
42.8975
 21
18.5
  0
LINE
  8
0
 10
42.8975
 20
18.5
 11
42.8421
 21
18.4238
  0
LINE
  8
0
 10
42.8421
 20
18.4238
 11
42.782
 21
18.3512
  0
LINE
  8
0
 10
42.782
 20
18.3512
 11
42.7175
 21
18.2825
  0
LINE
  8
0
 10
42.7175
 20
18.2825
 11
42.6488
 21
18.218
  0
LINE
  8
0
 10
42.6488
 20
18.218
 11
42.5762
 21
18.1579
  0
LINE
  8
0
 10
42.5762
 20
18.1579
 11
42.5
 21
18.1025
  0
LINE
  8
0
 10
42.5
 20
18.1025
 11
42.4204
 21
18.052
  0
LINE
  8
0
 10
42.4204
 20
18.052
 11
42.3378
 21
18.0066
  0
LINE
  8
0
 10
42.3378
 20
18.0066
 11
42.2526
 21
17.9665
  0
LINE
  8
0
 10
42.2526
 20
17.9665
 11
42.165
 21
17.9318
  0
LINE
  8
0
 10
42.165
 20
17.9318
 11
42.0753
 21
17.9027
  0
LINE
  8
0
 10
42.0753
 20
17.9027
 11
41.9841
 21
17.8793
  0
LINE
  8
0
 10
41.9841
 20
17.8793
 11
41.8915
 21
17.8616
  0
LINE
  8
0
 10
41.8915
 20
17.8616
 11
41.798
 21
17.8498
  0
LINE
  8
0
 10
41.798
 20
17.8498
 11
41.704
 21
17.8439
  0
LINE
  8
0
 10
41.704
 20
17.8439
 11
41.6097
 21
17.8439
  0
LINE
  8
0
 10
41.6097
 20
17.8439
 11
41.5157
 21
17.8498
  0
LINE
  8
0
 10
41.5157
 20
17.8498
 11
41.4222
 21
17.8616
  0
LINE
  8
0
 10
41.4222
 20
17.8616
 11
41.3296
 21
17.8793
  0
LINE
  8
0
 10
41.3296
 20
17.8793
 11
41.2384
 21
17.9027
  0
LINE
  8
0
 10
41.2384
 20
17.9027
 11
41.1487
 21
17.9318
  0
LINE
  8
0
 10
41.1487
 20
17.9318
 11
41.0611
 21
17.9665
  0
LINE
  8
0
 10
41.0611
 20
17.9665
 11
40.9759
 21
18.0066
  0
LINE
  8
0
 10
40.9759
 20
18.0066
 11
40.8933
 21
18.052
  0
LINE
  8
0
 10
40.8933
 20
18.052
 11
40.8137
 21
18.1025
  0
LINE
  8
0
 10
40.8137
 20
18.1025
 11
40.7375
 21
18.1579
  0
LINE
  8
0
 10
40.7375
 20
18.1579
 11
40.6649
 21
18.218
  0
LINE
  8
0
 10
40.6649
 20
18.218
 11
40.5962
 21
18.2825
  0
LINE
  8
0
 10
40.5962
 20
18.2825
 11
40.5317
 21
18.3512
  0
LINE
  8
0
 10
40.5317
 20
18.3512
 11
40.4716
 21
18.4238
  0
LINE
  8
0
 10
40.4716
 20
18.4238
 11
40.4162
 21
18.5
  0
LINE
  8
0
 10
40.4162
 20
18.5
 11
40.3657
 21
18.5796
  0
LINE
  8
0
 10
40.3657
 20
18.5796
 11
40.3203
 21
18.6622
  0
LINE
  8
0
 10
40.3203
 20
18.6622
 11
40.2802
 21
18.7474
  0
LINE
  8
0
 10
40.2802
 20
18.7474
 11
40.2455
 21
18.835
  0
LINE
  8
0
 10
40.2455
 20
18.835
 11
40.2164
 21
18.9247
  0
LINE
  8
0
 10
40.2164
 20
18.9247
 11
40.193
 21
19.0159
  0
LINE
  8
0
 10
40.193
 20
19.0159
 11
40.1753
 21
19.1085
  0
LINE
  8
0
 10
40.1753
 20
19.1085
 11
40.1635
 21
19.202
  0
LINE
  8
0
 10
40.1635
 20
19.202
 11
40.1576
 21
19.296
  0
LINE
  8
0
 10
40.1576
 20
40.296
 11
40.1576
 21
40.3903
  0
LINE
  8
0
 10
40.1576
 20
40.3903
 11
40.1635
 21
40.4843
  0
LINE
  8
0
 10
40.1635
 20
40.4843
 11
40.1753
 21
40.5778
  0
LINE
  8
0
 10
40.1753
 20
40.5778
 11
40.193
 21
40.6704
  0
LINE
  8
0
 10
40.193
 20
40.6704
 11
40.2164
 21
40.7616
  0
LINE
  8
0
 10
40.2164
 20
40.7616
 11
40.2455
 21
40.8513
  0
LINE
  8
0
 10
40.2455
 20
40.8513
 11
40.2802
 21
40.9389
  0
LINE
  8
0
 10
40.2802
 20
40.9389
 11
40.3203
 21
41.0241
  0
LINE
  8
0
 10
40.3203
 20
41.0241
 11
40.3657
 21
41.1067
  0
LINE
  8
0
 10
40.3657
 20
41.1067
 11
40.4162
 21
41.1863
  0
LINE
  8
0
 10
40.4162
 20
41.1863
 11
40.4716
 21
41.2625
  0
LINE
  8
0
 10
40.4716
 20
41.2625
 11
40.5317
 21
41.3351
  0
LINE
  8
0
 10
40.5317
 20
41.3351
 11
40.5962
 21
41.4038
  0
LINE
  8
0
 10
40.5962
 20
41.4038
 11
40.6649
 21
41.4683
  0
LINE
  8
0
 10
40.6649
 20
41.4683
 11
40.7375
 21
41.5284
  0
LINE
  8
0
 10
40.7375
 20
41.5284
 11
40.8137
 21
41.5838
  0
LINE
  8
0
 10
40.8137
 20
41.5838
 11
40.8933
 21
41.6343
  0
LINE
  8
0
 10
40.8933
 20
41.6343
 11
40.9759
 21
41.6797
  0
LINE
  8
0
 10
40.9759
 20
41.6797
 11
41.0611
 21
41.7198
  0
LINE
  8
0
 10
41.0611
 20
41.7198
 11
41.1487
 21
41.7545
  0
LINE
  8
0
 10
41.1487
 20
41.7545
 11
41.2384
 21
41.7836
  0
LINE
  8
0
 10
41.2384
 20
41.7836
 11
41.3296
 21
41.807
  0
LINE
  8
0
 10
41.3296
 20
41.807
 11
41.4222
 21
41.8247
  0
LINE
  8
0
 10
41.4222
 20
41.8247
 11
41.5157
 21
41.8365
  0
LINE
  8
0
 10
41.5157
 20
41.8365
 11
41.6097
 21
41.8424
  0
LINE
  8
0
 10
41.6097
 20
41.8424
 11
41.704
 21
41.8424
  0
LINE
  8
0
 10
41.704
 20
41.8424
 11
41.798
 21
41.8365
  0
LINE
  8
0
 10
41.798
 20
41.8365
 11
41.8915
 21
41.8247
  0
LINE
  8
0
 10
41.8915
 20
41.8247
 11
41.9841
 21
41.807
  0
LINE
  8
0
 10
41.9841
 20
41.807
 11
42.0753
 21
41.7836
  0
LINE
  8
0
 10
42.0753
 20
41.7836
 11
42.165
 21
41.7545
  0
LINE
  8
0
 10
42.165
 20
41.7545
 11
42.2526
 21
41.7198
  0
LINE
  8
0
 10
42.2526
 20
41.7198
 11
42.3378
 21
41.6797
  0
LINE
  8
0
 10
42.3378
 20
41.6797
 11
42.4204
 21
41.6343
  0
LINE
  8
0
 10
42.4204
 20
41.6343
 11
42.5
 21
41.5838
  0
LINE
  8
0
 10
42.5
 20
41.5838
 11
42.5762
 21
41.5284
  0
LINE
  8
0
 10
42.5762
 20
41.5284
 11
42.6488
 21
41.4683
  0
LINE
  8
0
 10
42.6488
 20
41.4683
 11
42.7175
 21
41.4038
  0
LINE
  8
0
 10
42.7175
 20
41.4038
 11
42.782
 21
41.3351
  0
LINE
  8
0
 10
42.782
 20
41.3351
 11
42.8421
 21
41.2625
  0
LINE
  8
0
 10
42.8421
 20
41.2625
 11
42.8975
 21
41.1863
  0
LINE
  8
0
 10
42.8975
 20
41.1863
 11
42.948
 21
41.1067
  0
LINE
  8
0
 10
42.948
 20
41.1067
 11
42.9934
 21
41.0241
  0
LINE
  8
0
 10
42.9934
 20
41.0241
 11
43.0335
 21
40.9389
  0
LINE
  8
0
 10
43.0335
 20
40.9389
 11
43.0682
 21
40.8513
  0
LINE
  8
0
 10
43.0682
 20
40.8513
 11
43.0973
 21
40.7616
  0
LINE
  8
0
 10
43.0973
 20
40.7616
 11
43.1207
 21
40.6704
  0
LINE
  8
0
 10
43.1207
 20
40.6704
 11
43.1384
 21
40.5778
  0
LINE
  8
0
 10
43.1384
 20
40.5778
 11
43.1502
 21
40.4843
  0
LINE
  8
0
 10
43.1502
 20
40.4843
 11
43.1561
 21
40.3903
  0
LINE
  8
0
 10
43.1561
 20
40.3903
 11
43.1561
 21
40.296
  0
LINE
  8
0
 10
43.1561
 20
40.296
 11
43.1502
 21
40.202
  0
LINE
  8
0
 10
43.1502
 20
40.202
 11
43.1384
 21
40.1085
  0
LINE
  8
0
 10
43.1384
 20
40.1085
 11
43.1207
 21
40.0159
  0
LINE
  8
0
 10
43.1207
 20
40.0159
 11
43.0973
 21
39.9247
  0
LINE
  8
0
 10
43.0973
 20
39.9247
 11
43.0682
 21
39.835
  0
LINE
  8
0
 10
43.0682
 20
39.835
 11
43.0335
 21
39.7474
  0
LINE
  8
0
 10
43.0335
 20
39.7474
 11
42.9934
 21
39.6622
  0
LINE
  8
0
 10
42.9934
 20
39.6622
 11
42.948
 21
39.5796
  0
LINE
  8
0
 10
42.948
 20
39.5796
 11
42.8975
 21
39.5
  0
LINE
  8
0
 10
42.8975
 20
39.5
 11
42.8421
 21
39.4238
  0
LINE
  8
0
 10
42.8421
 20
39.4238
 11
42.782
 21
39.3512
  0
LINE
  8
0
 10
42.782
 20
39.3512
 11
42.7175
 21
39.2825
  0
LINE
  8
0
 10
42.7175
 20
39.2825
 11
42.6488
 21
39.218
  0
LINE
  8
0
 10
42.6488
 20
39.218
 11
42.5762
 21
39.1579
  0
LINE
  8
0
 10
42.5762
 20
39.1579
 11
42.5
 21
39.1025
  0
LINE
  8
0
 10
42.5
 20
39.1025
 11
42.4204
 21
39.052
  0
LINE
  8
0
 10
42.4204
 20
39.052
 11
42.3378
 21
39.0066
  0
LINE
  8
0
 10
42.3378
 20
39.0066
 11
42.2526
 21
38.9665
  0
LINE
  8
0
 10
42.2526
 20
38.9665
 11
42.165
 21
38.9318
  0
LINE
  8
0
 10
42.165
 20
38.9318
 11
42.0753
 21
38.9027
  0
LINE
  8
0
 10
42.0753
 20
38.9027
 11
41.9841
 21
38.8793
  0
LINE
  8
0
 10
41.9841
 20
38.8793
 11
41.8915
 21
38.8616
  0
LINE
  8
0
 10
41.8915
 20
38.8616
 11
41.798
 21
38.8498
  0
LINE
  8
0
 10
41.798
 20
38.8498
 11
41.704
 21
38.8439
  0
LINE
  8
0
 10
41.704
 20
38.8439
 11
41.6097
 21
38.8439
  0
LINE
  8
0
 10
41.6097
 20
38.8439
 11
41.5157
 21
38.8498
  0
LINE
  8
0
 10
41.5157
 20
38.8498
 11
41.4222
 21
38.8616
  0
LINE
  8
0
 10
41.4222
 20
38.8616
 11
41.3296
 21
38.8793
  0
LINE
  8
0
 10
41.3296
 20
38.8793
 11
41.2384
 21
38.9027
  0
LINE
  8
0
 10
41.2384
 20
38.9027
 11
41.1487
 21
38.9318
  0
LINE
  8
0
 10
41.1487
 20
38.9318
 11
41.0611
 21
38.9665
  0
LINE
  8
0
 10
41.0611
 20
38.9665
 11
40.9759
 21
39.0066
  0
LINE
  8
0
 10
40.9759
 20
39.0066
 11
40.8933
 21
39.052
  0
LINE
  8
0
 10
40.8933
 20
39.052
 11
40.8137
 21
39.1025
  0
LINE
  8
0
 10
40.8137
 20
39.1025
 11
40.7375
 21
39.1579
  0
LINE
  8
0
 10
40.7375
 20
39.1579
 11
40.6649
 21
39.218
  0
LINE
  8
0
 10
40.6649
 20
39.218
 11
40.5962
 21
39.2825
  0
LINE
  8
0
 10
40.5962
 20
39.2825
 11
40.5317
 21
39.3512
  0
LINE
  8
0
 10
40.5317
 20
39.3512
 11
40.4716
 21
39.4238
  0
LINE
  8
0
 10
40.4716
 20
39.4238
 11
40.4162
 21
39.5
  0
LINE
  8
0
 10
40.4162
 20
39.5
 11
40.3657
 21
39.5796
  0
LINE
  8
0
 10
40.3657
 20
39.5796
 11
40.3203
 21
39.6622
  0
LINE
  8
0
 10
40.3203
 20
39.6622
 11
40.2802
 21
39.7474
  0
LINE
  8
0
 10
40.2802
 20
39.7474
 11
40.2455
 21
39.835
  0
LINE
  8
0
 10
40.2455
 20
39.835
 11
40.2164
 21
39.9247
  0
LINE
  8
0
 10
40.2164
 20
39.9247
 11
40.193
 21
40.0159
  0
LINE
  8
0
 10
40.193
 20
40.0159
 11
40.1753
 21
40.1085
  0
LINE
  8
0
 10
40.1753
 20
40.1085
 11
40.1635
 21
40.202
  0
LINE
  8
0
 10
40.1635
 20
40.202
 11
40.1576
 21
40.296
  0
LINE
  8
0
 10
40.1576
 20
61.296
 11
40.1576
 21
61.3903
  0
LINE
  8
0
 10
40.1576
 20
61.3903
 11
40.1635
 21
61.4843
  0
LINE
  8
0
 10
40.1635
 20
61.4843
 11
40.1753
 21
61.5778
  0
LINE
  8
0
 10
40.1753
 20
61.5778
 11
40.193
 21
61.6704
  0
LINE
  8
0
 10
40.193
 20
61.6704
 11
40.2164
 21
61.7616
  0
LINE
  8
0
 10
40.2164
 20
61.7616
 11
40.2455
 21
61.8513
  0
LINE
  8
0
 10
40.2455
 20
61.8513
 11
40.2802
 21
61.9389
  0
LINE
  8
0
 10
40.2802
 20
61.9389
 11
40.3203
 21
62.0241
  0
LINE
  8
0
 10
40.3203
 20
62.0241
 11
40.3657
 21
62.1067
  0
LINE
  8
0
 10
40.3657
 20
62.1067
 11
40.4162
 21
62.1863
  0
LINE
  8
0
 10
40.4162
 20
62.1863
 11
40.4716
 21
62.2625
  0
LINE
  8
0
 10
40.4716
 20
62.2625
 11
40.5317
 21
62.3351
  0
LINE
  8
0
 10
40.5317
 20
62.3351
 11
40.5962
 21
62.4038
  0
LINE
  8
0
 10
40.5962
 20
62.4038
 11
40.6649
 21
62.4683
  0
LINE
  8
0
 10
40.6649
 20
62.4683
 11
40.7375
 21
62.5284
  0
LINE
  8
0
 10
40.7375
 20
62.5284
 11
40.8137
 21
62.5838
  0
LINE
  8
0
 10
40.8137
 20
62.5838
 11
40.8933
 21
62.6343
  0
LINE
  8
0
 10
40.8933
 20
62.6343
 11
40.9759
 21
62.6797
  0
LINE
  8
0
 10
40.9759
 20
62.6797
 11
41.0611
 21
62.7198
  0
LINE
  8
0
 10
41.0611
 20
62.7198
 11
41.1487
 21
62.7545
  0
LINE
  8
0
 10
41.1487
 20
62.7545
 11
41.2384
 21
62.7836
  0
LINE
  8
0
 10
41.2384
 20
62.7836
 11
41.3296
 21
62.807
  0
LINE
  8
0
 10
41.3296
 20
62.807
 11
41.4222
 21
62.8247
  0
LINE
  8
0
 10
41.4222
 20
62.8247
 11
41.5157
 21
62.8365
  0
LINE
  8
0
 10
41.5157
 20
62.8365
 11
41.6097
 21
62.8424
  0
LINE
  8
0
 10
41.6097
 20
62.8424
 11
41.704
 21
62.8424
  0
LINE
  8
0
 10
41.704
 20
62.8424
 11
41.798
 21
62.8365
  0
LINE
  8
0
 10
41.798
 20
62.8365
 11
41.8915
 21
62.8247
  0
LINE
  8
0
 10
41.8915
 20
62.8247
 11
41.9841
 21
62.807
  0
LINE
  8
0
 10
41.9841
 20
62.807
 11
42.0753
 21
62.7836
  0
LINE
  8
0
 10
42.0753
 20
62.7836
 11
42.165
 21
62.7545
  0
LINE
  8
0
 10
42.165
 20
62.7545
 11
42.2526
 21
62.7198
  0
LINE
  8
0
 10
42.2526
 20
62.7198
 11
42.3378
 21
62.6797
  0
LINE
  8
0
 10
42.3378
 20
62.6797
 11
42.4204
 21
62.6343
  0
LINE
  8
0
 10
42.4204
 20
62.6343
 11
42.5
 21
62.5838
  0
LINE
  8
0
 10
42.5
 20
62.5838
 11
42.5762
 21
62.5284
  0
LINE
  8
0
 10
42.5762
 20
62.5284
 11
42.6488
 21
62.4683
  0
LINE
  8
0
 10
42.6488
 20
62.4683
 11
42.7175
 21
62.4038
  0
LINE
  8
0
 10
42.7175
 20
62.4038
 11
42.782
 21
62.3351
  0
LINE
  8
0
 10
42.782
 20
62.3351
 11
42.8421
 21
62.2625
  0
LINE
  8
0
 10
42.8421
 20
62.2625
 11
42.8975
 21
62.1863
  0
LINE
  8
0
 10
42.8975
 20
62.1863
 11
42.948
 21
62.1067
  0
LINE
  8
0
 10
42.948
 20
62.1067
 11
42.9934
 21
62.0241
  0
LINE
  8
0
 10
42.9934
 20
62.0241
 11
43.0335
 21
61.9389
  0
LINE
  8
0
 10
43.0335
 20
61.9389
 11
43.0682
 21
61.8513
  0
LINE
  8
0
 10
43.0682
 20
61.8513
 11
43.0973
 21
61.7616
  0
LINE
  8
0
 10
43.0973
 20
61.7616
 11
43.1207
 21
61.6704
  0
LINE
  8
0
 10
43.1207
 20
61.6704
 11
43.1384
 21
61.5778
  0
LINE
  8
0
 10
43.1384
 20
61.5778
 11
43.1502
 21
61.4843
  0
LINE
  8
0
 10
43.1502
 20
61.4843
 11
43.1561
 21
61.3903
  0
LINE
  8
0
 10
43.1561
 20
61.3903
 11
43.1561
 21
61.296
  0
LINE
  8
0
 10
43.1561
 20
61.296
 11
43.1502
 21
61.202
  0
LINE
  8
0
 10
43.1502
 20
61.202
 11
43.1384
 21
61.1085
  0
LINE
  8
0
 10
43.1384
 20
61.1085
 11
43.1207
 21
61.0159
  0
LINE
  8
0
 10
43.1207
 20
61.0159
 11
43.0973
 21
60.9247
  0
LINE
  8
0
 10
43.0973
 20
60.9247
 11
43.0682
 21
60.835
  0
LINE
  8
0
 10
43.0682
 20
60.835
 11
43.0335
 21
60.7474
  0
LINE
  8
0
 10
43.0335
 20
60.7474
 11
42.9934
 21
60.6622
  0
LINE
  8
0
 10
42.9934
 20
60.6622
 11
42.948
 21
60.5796
  0
LINE
  8
0
 10
42.948
 20
60.5796
 11
42.8975
 21
60.5
  0
LINE
  8
0
 10
42.8975
 20
60.5
 11
42.8421
 21
60.4238
  0
LINE
  8
0
 10
42.8421
 20
60.4238
 11
42.782
 21
60.3512
  0
LINE
  8
0
 10
42.782
 20
60.3512
 11
42.7175
 21
60.2825
  0
LINE
  8
0
 10
42.7175
 20
60.2825
 11
42.6488
 21
60.218
  0
LINE
  8
0
 10
42.6488
 20
60.218
 11
42.5762
 21
60.1579
  0
LINE
  8
0
 10
42.5762
 20
60.1579
 11
42.5
 21
60.1025
  0
LINE
  8
0
 10
42.5
 20
60.1025
 11
42.4204
 21
60.052
  0
LINE
  8
0
 10
42.4204
 20
60.052
 11
42.3378
 21
60.0066
  0
LINE
  8
0
 10
42.3378
 20
60.0066
 11
42.2526
 21
59.9665
  0
LINE
  8
0
 10
42.2526
 20
59.9665
 11
42.165
 21
59.9318
  0
LINE
  8
0
 10
42.165
 20
59.9318
 11
42.0753
 21
59.9027
  0
LINE
  8
0
 10
42.0753
 20
59.9027
 11
41.9841
 21
59.8793
  0
LINE
  8
0
 10
41.9841
 20
59.8793
 11
41.8915
 21
59.8616
  0
LINE
  8
0
 10
41.8915
 20
59.8616
 11
41.798
 21
59.8498
  0
LINE
  8
0
 10
41.798
 20
59.8498
 11
41.704
 21
59.8439
  0
LINE
  8
0
 10
41.704
 20
59.8439
 11
41.6097
 21
59.8439
  0
LINE
  8
0
 10
41.6097
 20
59.8439
 11
41.5157
 21
59.8498
  0
LINE
  8
0
 10
41.5157
 20
59.8498
 11
41.4222
 21
59.8616
  0
LINE
  8
0
 10
41.4222
 20
59.8616
 11
41.3296
 21
59.8793
  0
LINE
  8
0
 10
41.3296
 20
59.8793
 11
41.2384
 21
59.9027
  0
LINE
  8
0
 10
41.2384
 20
59.9027
 11
41.1487
 21
59.9318
  0
LINE
  8
0
 10
41.1487
 20
59.9318
 11
41.0611
 21
59.9665
  0
LINE
  8
0
 10
41.0611
 20
59.9665
 11
40.9759
 21
60.0066
  0
LINE
  8
0
 10
40.9759
 20
60.0066
 11
40.8933
 21
60.052
  0
LINE
  8
0
 10
40.8933
 20
60.052
 11
40.8137
 21
60.1025
  0
LINE
  8
0
 10
40.8137
 20
60.1025
 11
40.7375
 21
60.1579
  0
LINE
  8
0
 10
40.7375
 20
60.1579
 11
40.6649
 21
60.218
  0
LINE
  8
0
 10
40.6649
 20
60.218
 11
40.5962
 21
60.2825
  0
LINE
  8
0
 10
40.5962
 20
60.2825
 11
40.5317
 21
60.3512
  0
LINE
  8
0
 10
40.5317
 20
60.3512
 11
40.4716
 21
60.4238
  0
LINE
  8
0
 10
40.4716
 20
60.4238
 11
40.4162
 21
60.5
  0
LINE
  8
0
 10
40.4162
 20
60.5
 11
40.3657
 21
60.5796
  0
LINE
  8
0
 10
40.3657
 20
60.5796
 11
40.3203
 21
60.6622
  0
LINE
  8
0
 10
40.3203
 20
60.6622
 11
40.2802
 21
60.7474
  0
LINE
  8
0
 10
40.2802
 20
60.7474
 11
40.2455
 21
60.835
  0
LINE
  8
0
 10
40.2455
 20
60.835
 11
40.2164
 21
60.9247
  0
LINE
  8
0
 10
40.2164
 20
60.9247
 11
40.193
 21
61.0159
  0
LINE
  8
0
 10
40.193
 20
61.0159
 11
40.1753
 21
61.1085
  0
LINE
  8
0
 10
40.1753
 20
61.1085
 11
40.1635
 21
61.202
  0
LINE
  8
0
 10
40.1635
 20
61.202
 11
40.1576
 21
61.296
  0
LINE
  8
0
 10
40.1576
 20
82.296
 11
40.1576
 21
82.3903
  0
LINE
  8
0
 10
40.1576
 20
82.3903
 11
40.1635
 21
82.4843
  0
LINE
  8
0
 10
40.1635
 20
82.4843
 11
40.1753
 21
82.5778
  0
LINE
  8
0
 10
40.1753
 20
82.5778
 11
40.193
 21
82.6704
  0
LINE
  8
0
 10
40.193
 20
82.6704
 11
40.2164
 21
82.7616
  0
LINE
  8
0
 10
40.2164
 20
82.7616
 11
40.2455
 21
82.8513
  0
LINE
  8
0
 10
40.2455
 20
82.8513
 11
40.2802
 21
82.9389
  0
LINE
  8
0
 10
40.2802
 20
82.9389
 11
40.3203
 21
83.0241
  0
LINE
  8
0
 10
40.3203
 20
83.0241
 11
40.3657
 21
83.1067
  0
LINE
  8
0
 10
40.3657
 20
83.1067
 11
40.4162
 21
83.1863
  0
LINE
  8
0
 10
40.4162
 20
83.1863
 11
40.4716
 21
83.2625
  0
LINE
  8
0
 10
40.4716
 20
83.2625
 11
40.5317
 21
83.3351
  0
LINE
  8
0
 10
40.5317
 20
83.3351
 11
40.5962
 21
83.4038
  0
LINE
  8
0
 10
40.5962
 20
83.4038
 11
40.6649
 21
83.4683
  0
LINE
  8
0
 10
40.6649
 20
83.4683
 11
40.7375
 21
83.5284
  0
LINE
  8
0
 10
40.7375
 20
83.5284
 11
40.8137
 21
83.5838
  0
LINE
  8
0
 10
40.8137
 20
83.5838
 11
40.8933
 21
83.6343
  0
LINE
  8
0
 10
40.8933
 20
83.6343
 11
40.9759
 21
83.6797
  0
LINE
  8
0
 10
40.9759
 20
83.6797
 11
41.0611
 21
83.7198
  0
LINE
  8
0
 10
41.0611
 20
83.7198
 11
41.1487
 21
83.7545
  0
LINE
  8
0
 10
41.1487
 20
83.7545
 11
41.2384
 21
83.7836
  0
LINE
  8
0
 10
41.2384
 20
83.7836
 11
41.3296
 21
83.807
  0
LINE
  8
0
 10
41.3296
 20
83.807
 11
41.4222
 21
83.8247
  0
LINE
  8
0
 10
41.4222
 20
83.8247
 11
41.5157
 21
83.8365
  0
LINE
  8
0
 10
41.5157
 20
83.8365
 11
41.6097
 21
83.8424
  0
LINE
  8
0
 10
41.6097
 20
83.8424
 11
41.704
 21
83.8424
  0
LINE
  8
0
 10
41.704
 20
83.8424
 11
41.798
 21
83.8365
  0
LINE
  8
0
 10
41.798
 20
83.8365
 11
41.8915
 21
83.8247
  0
LINE
  8
0
 10
41.8915
 20
83.8247
 11
41.9841
 21
83.807
  0
LINE
  8
0
 10
41.9841
 20
83.807
 11
42.0753
 21
83.7836
  0
LINE
  8
0
 10
42.0753
 20
83.7836
 11
42.165
 21
83.7545
  0
LINE
  8
0
 10
42.165
 20
83.7545
 11
42.2526
 21
83.7198
  0
LINE
  8
0
 10
42.2526
 20
83.7198
 11
42.3378
 21
83.6797
  0
LINE
  8
0
 10
42.3378
 20
83.6797
 11
42.4204
 21
83.6343
  0
LINE
  8
0
 10
42.4204
 20
83.6343
 11
42.5
 21
83.5838
  0
LINE
  8
0
 10
42.5
 20
83.5838
 11
42.5762
 21
83.5284
  0
LINE
  8
0
 10
42.5762
 20
83.5284
 11
42.6488
 21
83.4683
  0
LINE
  8
0
 10
42.6488
 20
83.4683
 11
42.7175
 21
83.4038
  0
LINE
  8
0
 10
42.7175
 20
83.4038
 11
42.782
 21
83.3351
  0
LINE
  8
0
 10
42.782
 20
83.3351
 11
42.8421
 21
83.2625
  0
LINE
  8
0
 10
42.8421
 20
83.2625
 11
42.8975
 21
83.1863
  0
LINE
  8
0
 10
42.8975
 20
83.1863
 11
42.948
 21
83.1067
  0
LINE
  8
0
 10
42.948
 20
83.1067
 11
42.9934
 21
83.0241
  0
LINE
  8
0
 10
42.9934
 20
83.0241
 11
43.0335
 21
82.9389
  0
LINE
  8
0
 10
43.0335
 20
82.9389
 11
43.0682
 21
82.8513
  0
LINE
  8
0
 10
43.0682
 20
82.8513
 11
43.0973
 21
82.7616
  0
LINE
  8
0
 10
43.0973
 20
82.7616
 11
43.1207
 21
82.6704
  0
LINE
  8
0
 10
43.1207
 20
82.6704
 11
43.1384
 21
82.5778
  0
LINE
  8
0
 10
43.1384
 20
82.5778
 11
43.1502
 21
82.4843
  0
LINE
  8
0
 10
43.1502
 20
82.4843
 11
43.1561
 21
82.3903
  0
LINE
  8
0
 10
43.1561
 20
82.3903
 11
43.1561
 21
82.296
  0
LINE
  8
0
 10
43.1561
 20
82.296
 11
43.1502
 21
82.202
  0
LINE
  8
0
 10
43.1502
 20
82.202
 11
43.1384
 21
82.1085
  0
LINE
  8
0
 10
43.1384
 20
82.1085
 11
43.1207
 21
82.0159
  0
LINE
  8
0
 10
43.1207
 20
82.0159
 11
43.0973
 21
81.9247
  0
LINE
  8
0
 10
43.0973
 20
81.9247
 11
43.0682
 21
81.835
  0
LINE
  8
0
 10
43.0682
 20
81.835
 11
43.0335
 21
81.7474
  0
LINE
  8
0
 10
43.0335
 20
81.7474
 11
42.9934
 21
81.6622
  0
LINE
  8
0
 10
42.9934
 20
81.6622
 11
42.948
 21
81.5796
  0
LINE
  8
0
 10
42.948
 20
81.5796
 11
42.8975
 21
81.5
  0
LINE
  8
0
 10
42.8975
 20
81.5
 11
42.8421
 21
81.4238
  0
LINE
  8
0
 10
42.8421
 20
81.4238
 11
42.782
 21
81.3512
  0
LINE
  8
0
 10
42.782
 20
81.3512
 11
42.7175
 21
81.2825
  0
LINE
  8
0
 10
42.7175
 20
81.2825
 11
42.6488
 21
81.218
  0
LINE
  8
0
 10
42.6488
 20
81.218
 11
42.5762
 21
81.1579
  0
LINE
  8
0
 10
42.5762
 20
81.1579
 11
42.5
 21
81.1025
  0
LINE
  8
0
 10
42.5
 20
81.1025
 11
42.4204
 21
81.052
  0
LINE
  8
0
 10
42.4204
 20
81.052
 11
42.3378
 21
81.0066
  0
LINE
  8
0
 10
42.3378
 20
81.0066
 11
42.2526
 21
80.9665
  0
LINE
  8
0
 10
42.2526
 20
80.9665
 11
42.165
 21
80.9318
  0
LINE
  8
0
 10
42.165
 20
80.9318
 11
42.0753
 21
80.9027
  0
LINE
  8
0
 10
42.0753
 20
80.9027
 11
41.9841
 21
80.8793
  0
LINE
  8
0
 10
41.9841
 20
80.8793
 11
41.8915
 21
80.8616
  0
LINE
  8
0
 10
41.8915
 20
80.8616
 11
41.798
 21
80.8498
  0
LINE
  8
0
 10
41.798
 20
80.8498
 11
41.704
 21
80.8439
  0
LINE
  8
0
 10
41.704
 20
80.8439
 11
41.6097
 21
80.8439
  0
LINE
  8
0
 10
41.6097
 20
80.8439
 11
41.5157
 21
80.8498
  0
LINE
  8
0
 10
41.5157
 20
80.8498
 11
41.4222
 21
80.8616
  0
LINE
  8
0
 10
41.4222
 20
80.8616
 11
41.3296
 21
80.8793
  0
LINE
  8
0
 10
41.3296
 20
80.8793
 11
41.2384
 21
80.9027
  0
LINE
  8
0
 10
41.2384
 20
80.9027
 11
41.1487
 21
80.9318
  0
LINE
  8
0
 10
41.1487
 20
80.9318
 11
41.0611
 21
80.9665
  0
LINE
  8
0
 10
41.0611
 20
80.9665
 11
40.9759
 21
81.0066
  0
LINE
  8
0
 10
40.9759
 20
81.0066
 11
40.8933
 21
81.052
  0
LINE
  8
0
 10
40.8933
 20
81.052
 11
40.8137
 21
81.1025
  0
LINE
  8
0
 10
40.8137
 20
81.1025
 11
40.7375
 21
81.1579
  0
LINE
  8
0
 10
40.7375
 20
81.1579
 11
40.6649
 21
81.218
  0
LINE
  8
0
 10
40.6649
 20
81.218
 11
40.5962
 21
81.2825
  0
LINE
  8
0
 10
40.5962
 20
81.2825
 11
40.5317
 21
81.3512
  0
LINE
  8
0
 10
40.5317
 20
81.3512
 11
40.4716
 21
81.4238
  0
LINE
  8
0
 10
40.4716
 20
81.4238
 11
40.4162
 21
81.5
  0
LINE
  8
0
 10
40.4162
 20
81.5
 11
40.3657
 21
81.5796
  0
LINE
  8
0
 10
40.3657
 20
81.5796
 11
40.3203
 21
81.6622
  0
LINE
  8
0
 10
40.3203
 20
81.6622
 11
40.2802
 21
81.7474
  0
LINE
  8
0
 10
40.2802
 20
81.7474
 11
40.2455
 21
81.835
  0
LINE
  8
0
 10
40.2455
 20
81.835
 11
40.2164
 21
81.9247
  0
LINE
  8
0
 10
40.2164
 20
81.9247
 11
40.193
 21
82.0159
  0
LINE
  8
0
 10
40.193
 20
82.0159
 11
40.1753
 21
82.1085
  0
LINE
  8
0
 10
40.1753
 20
82.1085
 11
40.1635
 21
82.202
  0
LINE
  8
0
 10
40.1635
 20
82.202
 11
40.1576
 21
82.296
  0
LINE
  8
0
 10
41.5
 20
5
 11
41.8247
 21
5.99923
  0
LINE
  8
0
 10
41.8247
 20
5.99923
 11
42.6747
 21
6.6168
  0
LINE
  8
0
 10
42.6747
 20
6.6168
 11
43.7253
 21
6.6168
  0
LINE
  8
0
 10
43.7253
 20
6.6168
 11
44.5753
 21
5.99923
  0
LINE
  8
0
 10
44.5753
 20
5.99923
 11
44.9
 21
5
  0
LINE
  8
0
 10
44.9
 20
5
 11
44.5753
 21
4.00076
  0
LINE
  8
0
 10
44.5753
 20
4.00076
 11
43.7253
 21
3.3832
  0
LINE
  8
0
 10
43.7253
 20
3.3832
 11
42.6747
 21
3.3832
  0
LINE
  8
0
 10
42.6747
 20
3.3832
 11
41.8247
 21
4.00076
  0
LINE
  8
0
 10
41.8247
 20
4.00076
 11
41.5
 21
5
  0
LINE
  8
0
 10
41.5
 20
128.35
 11
41.8247
 21
129.349
  0
LINE
  8
0
 10
41.8247
 20
129.349
 11
42.6747
 21
129.967
  0
LINE
  8
0
 10
42.6747
 20
129.967
 11
43.7253
 21
129.967
  0
LINE
  8
0
 10
43.7253
 20
129.967
 11
44.5753
 21
129.349
  0
LINE
  8
0
 10
44.5753
 20
129.349
 11
44.9
 21
128.35
  0
LINE
  8
0
 10
44.9
 20
128.35
 11
44.5753
 21
127.351
  0
LINE
  8
0
 10
44.5753
 20
127.351
 11
43.7253
 21
126.733
  0
LINE
  8
0
 10
43.7253
 20
126.733
 11
42.6747
 21
126.733
  0
LINE
  8
0
 10
42.6747
 20
126.733
 11
41.8247
 21
127.351
  0
LINE
  8
0
 10
41.8247
 20
127.351
 11
41.5
 21
128.35
  0
LINE
  8
0
 10
14.4122
 20
43.583
 11
14.8372
 21
43.583
  0
LINE
  8
0
 10
14.8372
 20
43.583
 11
15.2309
 21
43.6443
  0
LINE
  8
0
 10
15.2309
 20
43.6443
 11
15.5222
 21
43.828
  0
LINE
  8
0
 10
15.5222
 20
43.828
 11
15.7022
 21
44.128
  0
LINE
  8
0
 10
15.7022
 20
44.128
 11
15.7622
 21
44.538
  0
LINE
  8
0
 10
15.7622
 20
44.538
 11
15.7052
 21
44.9518
  0
LINE
  8
0
 10
15.7052
 20
44.9518
 11
15.5342
 21
45.269
  0
LINE
  8
0
 10
15.5342
 20
45.269
 11
15.2672
 21
45.47
  0
LINE
  8
0
 10
15.2672
 20
45.47
 11
14.9202
 21
45.537
  0
LINE
  8
0
 10
14.9202
 20
45.537
 11
14.4122
 21
45.537
  0
LINE
  8
0
 10
14.4122
 20
45.537
 11
14.4122
 21
43.583
  0
LINE
  8
0
 10
14.4122
 20
85.585
 11
15.1802
 21
85.585
  0
LINE
  8
0
 10
15.1802
 20
85.585
 11
15.577
 21
85.6903
  0
LINE
  8
0
 10
15.577
 20
85.6903
 11
15.7092
 21
86.006
  0
LINE
  8
0
 10
15.7092
 20
86.006
 11
15.6767
 21
86.1918
  0
LINE
  8
0
 10
15.6767
 20
86.1918
 11
15.5792
 21
86.331
  0
LINE
  8
0
 10
15.5792
 20
86.331
 11
15.4187
 21
86.418
  0
LINE
  8
0
 10
15.4187
 20
86.418
 11
15.1972
 21
86.447
  0
LINE
  8
0
 10
15.1972
 20
86.447
 11
14.4122
 21
86.447
  0
LINE
  8
0
 10
14.4122
 20
86.447
 11
14.4122
 21
85.585
  0
LINE
  8
0
 10
14.5912
 20
23.784
 11
14.8212
 21
23.0673
  0
LINE
  8
0
 10
14.8212
 20
23.0673
 11
14.9152
 21
22.767
  0
LINE
  8
0
 10
14.9152
 20
22.767
 11
14.9722
 21
22.557
  0
LINE
  8
0
 10
14.9722
 20
22.557
 11
15.0922
 21
22.969
  0
LINE
  8
0
 10
15.0922
 20
22.969
 11
15.3542
 21
23.784
  0
LINE
  8
0
 10
15.3542
 20
23.784
 11
14.5912
 21
23.784
  0
LINE
  8
0
 10
32.4874
 20
118.047
 11
32.5432
 21
117.618
  0
LINE
  8
0
 10
32.5432
 20
117.618
 11
32.7104
 21
117.296
  0
LINE
  8
0
 10
32.7104
 20
117.296
 11
32.9797
 21
117.094
  0
LINE
  8
0
 10
32.9797
 20
117.094
 11
33.3414
 21
117.027
  0
LINE
  8
0
 10
33.3414
 20
117.027
 11
33.6987
 21
117.095
  0
LINE
  8
0
 10
33.6987
 20
117.095
 11
33.9664
 21
117.299
  0
LINE
  8
0
 10
33.9664
 20
117.299
 11
34.1337
 21
117.622
  0
LINE
  8
0
 10
34.1337
 20
117.622
 11
34.1894
 21
118.047
  0
LINE
  8
0
 10
34.1894
 20
118.047
 11
34.1339
 21
118.491
  0
LINE
  8
0
 10
34.1339
 20
118.491
 11
33.9674
 21
118.821
  0
LINE
  8
0
 10
33.9674
 20
118.821
 11
33.6989
 21
119.025
  0
LINE
  8
0
 10
33.6989
 20
119.025
 11
33.3374
 21
119.093
  0
LINE
  8
0
 10
33.3374
 20
119.093
 11
32.9849
 21
119.023
  0
LINE
  8
0
 10
32.9849
 20
119.023
 11
32.7154
 21
118.814
  0
LINE
  8
0
 10
32.7154
 20
118.814
 11
32.5444
 21
118.482
  0
LINE
  8
0
 10
32.5444
 20
118.482
 11
32.4874
 21
118.047
  0
ENDSEC
  0
SECTION
  2
OBJECTS
  0
DICTIONARY
  0
ENDSEC
  0
EOF
