  0
SECTION
  2
BLOCKS
  0
ENDSEC
  0
SECTION
  2
ENTITIES
  0
LINE
  8
0
 10
0
 20
10
 11
50.7
 21
10
  0
LINE
  8
0
 10
50.7
 20
10
 11
50.7
 21
124.35
  0
LINE
  8
0
 10
50.7
 20
124.35
 11
0
 21
124.35
  0
LINE
  8
0
 10
0
 20
124.35
 11
0
 21
10
  0
LINE
  8
0
 10
1
 20
11
 11
1
 21
123.35
  0
LINE
  8
0
 10
1
 20
123.35
 11
49.7
 21
123.35
  0
LINE
  8
0
 10
49.7
 20
123.35
 11
49.7
 21
11
  0
LINE
  8
0
 10
49.7
 20
11
 11
1
 21
11
  0
LINE
  8
0
 10
3
 20
16
 11
3.02366
 21
15.624
  0
LINE
  8
0
 10
3.02366
 20
15.624
 11
3.09425
 21
15.2539
  0
LINE
  8
0
 10
3.09425
 20
15.2539
 11
3.21067
 21
14.8956
  0
LINE
  8
0
 10
3.21067
 20
14.8956
 11
3.37108
 21
14.5547
  0
LINE
  8
0
 10
3.37108
 20
14.5547
 11
3.57295
 21
14.2366
  0
LINE
  8
0
 10
3.57295
 20
14.2366
 11
3.81309
 21
13.9464
  0
LINE
  8
0
 10
3.81309
 20
13.9464
 11
4.08773
 21
13.6885
  0
LINE
  8
0
 10
4.08773
 20
13.6885
 11
4.39252
 21
13.467
  0
LINE
  8
0
 10
4.39252
 20
13.467
 11
4.72266
 21
13.2855
  0
LINE
  8
0
 10
4.72266
 20
13.2855
 11
5.07295
 21
13.1468
  0
LINE
  8
0
 10
5.07295
 20
13.1468
 11
5.43786
 21
13.0531
  0
LINE
  8
0
 10
5.43786
 20
13.0531
 11
5.81163
 21
13.0059
  0
LINE
  8
0
 10
5.81163
 20
13.0059
 11
6.18837
 21
13.0059
  0
LINE
  8
0
 10
6.18837
 20
13.0059
 11
6.56214
 21
13.0531
  0
LINE
  8
0
 10
6.56214
 20
13.0531
 11
6.92705
 21
13.1468
  0
LINE
  8
0
 10
6.92705
 20
13.1468
 11
7.27734
 21
13.2855
  0
LINE
  8
0
 10
7.27734
 20
13.2855
 11
7.60748
 21
13.467
  0
LINE
  8
0
 10
7.60748
 20
13.467
 11
7.91227
 21
13.6885
  0
LINE
  8
0
 10
7.91227
 20
13.6885
 11
8.18691
 21
13.9464
  0
LINE
  8
0
 10
8.18691
 20
13.9464
 11
8.42705
 21
14.2366
  0
LINE
  8
0
 10
8.42705
 20
14.2366
 11
8.62892
 21
14.5547
  0
LINE
  8
0
 10
8.62892
 20
14.5547
 11
8.78933
 21
14.8956
  0
LINE
  8
0
 10
8.78933
 20
14.8956
 11
8.90575
 21
15.2539
  0
LINE
  8
0
 10
8.90575
 20
15.2539
 11
8.97634
 21
15.624
  0
LINE
  8
0
 10
8.97634
 20
15.624
 11
9
 21
16
  0
LINE
  8
0
 10
9
 20
16
 11
8.97634
 21
16.376
  0
LINE
  8
0
 10
8.97634
 20
16.376
 11
8.90575
 21
16.7461
  0
LINE
  8
0
 10
8.90575
 20
16.7461
 11
8.78933
 21
17.1044
  0
LINE
  8
0
 10
8.78933
 20
17.1044
 11
8.62892
 21
17.4453
  0
LINE
  8
0
 10
8.62892
 20
17.4453
 11
8.42705
 21
17.7634
  0
LINE
  8
0
 10
8.42705
 20
17.7634
 11
8.18691
 21
18.0536
  0
LINE
  8
0
 10
8.18691
 20
18.0536
 11
7.91227
 21
18.3115
  0
LINE
  8
0
 10
7.91227
 20
18.3115
 11
7.60748
 21
18.533
  0
LINE
  8
0
 10
7.60748
 20
18.533
 11
7.27734
 21
18.7145
  0
LINE
  8
0
 10
7.27734
 20
18.7145
 11
6.92705
 21
18.8532
  0
LINE
  8
0
 10
6.92705
 20
18.8532
 11
6.56214
 21
18.9469
  0
LINE
  8
0
 10
6.56214
 20
18.9469
 11
6.18837
 21
18.9941
  0
LINE
  8
0
 10
6.18837
 20
18.9941
 11
5.81163
 21
18.9941
  0
LINE
  8
0
 10
5.81163
 20
18.9941
 11
5.43786
 21
18.9469
  0
LINE
  8
0
 10
5.43786
 20
18.9469
 11
5.07295
 21
18.8532
  0
LINE
  8
0
 10
5.07295
 20
18.8532
 11
4.72266
 21
18.7145
  0
LINE
  8
0
 10
4.72266
 20
18.7145
 11
4.39252
 21
18.533
  0
LINE
  8
0
 10
4.39252
 20
18.533
 11
4.08773
 21
18.3115
  0
LINE
  8
0
 10
4.08773
 20
18.3115
 11
3.81309
 21
18.0536
  0
LINE
  8
0
 10
3.81309
 20
18.0536
 11
3.57295
 21
17.7634
  0
LINE
  8
0
 10
3.57295
 20
17.7634
 11
3.37108
 21
17.4453
  0
LINE
  8
0
 10
3.37108
 20
17.4453
 11
3.21067
 21
17.1044
  0
LINE
  8
0
 10
3.21067
 20
17.1044
 11
3.09425
 21
16.7461
  0
LINE
  8
0
 10
3.09425
 20
16.7461
 11
3.02366
 21
16.376
  0
LINE
  8
0
 10
3.02366
 20
16.376
 11
3
 21
16
  0
LINE
  8
0
 10
3
 20
117.35
 11
3.02366
 21
116.974
  0
LINE
  8
0
 10
3.02366
 20
116.974
 11
3.09425
 21
116.604
  0
LINE
  8
0
 10
3.09425
 20
116.604
 11
3.21067
 21
116.246
  0
LINE
  8
0
 10
3.21067
 20
116.246
 11
3.37108
 21
115.905
  0
LINE
  8
0
 10
3.37108
 20
115.905
 11
3.57295
 21
115.587
  0
LINE
  8
0
 10
3.57295
 20
115.587
 11
3.81309
 21
115.296
  0
LINE
  8
0
 10
3.81309
 20
115.296
 11
4.08773
 21
115.038
  0
LINE
  8
0
 10
4.08773
 20
115.038
 11
4.39252
 21
114.817
  0
LINE
  8
0
 10
4.39252
 20
114.817
 11
4.72266
 21
114.636
  0
LINE
  8
0
 10
4.72266
 20
114.636
 11
5.07295
 21
114.497
  0
LINE
  8
0
 10
5.07295
 20
114.497
 11
5.43786
 21
114.403
  0
LINE
  8
0
 10
5.43786
 20
114.403
 11
5.81163
 21
114.356
  0
LINE
  8
0
 10
5.81163
 20
114.356
 11
6.18837
 21
114.356
  0
LINE
  8
0
 10
6.18837
 20
114.356
 11
6.56214
 21
114.403
  0
LINE
  8
0
 10
6.56214
 20
114.403
 11
6.92705
 21
114.497
  0
LINE
  8
0
 10
6.92705
 20
114.497
 11
7.27734
 21
114.636
  0
LINE
  8
0
 10
7.27734
 20
114.636
 11
7.60748
 21
114.817
  0
LINE
  8
0
 10
7.60748
 20
114.817
 11
7.91227
 21
115.038
  0
LINE
  8
0
 10
7.91227
 20
115.038
 11
8.18691
 21
115.296
  0
LINE
  8
0
 10
8.18691
 20
115.296
 11
8.42705
 21
115.587
  0
LINE
  8
0
 10
8.42705
 20
115.587
 11
8.62892
 21
115.905
  0
LINE
  8
0
 10
8.62892
 20
115.905
 11
8.78933
 21
116.246
  0
LINE
  8
0
 10
8.78933
 20
116.246
 11
8.90575
 21
116.604
  0
LINE
  8
0
 10
8.90575
 20
116.604
 11
8.97634
 21
116.974
  0
LINE
  8
0
 10
8.97634
 20
116.974
 11
9
 21
117.35
  0
LINE
  8
0
 10
9
 20
117.35
 11
8.97634
 21
117.726
  0
LINE
  8
0
 10
8.97634
 20
117.726
 11
8.90575
 21
118.096
  0
LINE
  8
0
 10
8.90575
 20
118.096
 11
8.78933
 21
118.454
  0
LINE
  8
0
 10
8.78933
 20
118.454
 11
8.62892
 21
118.795
  0
LINE
  8
0
 10
8.62892
 20
118.795
 11
8.42705
 21
119.113
  0
LINE
  8
0
 10
8.42705
 20
119.113
 11
8.18691
 21
119.404
  0
LINE
  8
0
 10
8.18691
 20
119.404
 11
7.91227
 21
119.662
  0
LINE
  8
0
 10
7.91227
 20
119.662
 11
7.60748
 21
119.883
  0
LINE
  8
0
 10
7.60748
 20
119.883
 11
7.27734
 21
120.064
  0
LINE
  8
0
 10
7.27734
 20
120.064
 11
6.92705
 21
120.203
  0
LINE
  8
0
 10
6.92705
 20
120.203
 11
6.56214
 21
120.297
  0
LINE
  8
0
 10
6.56214
 20
120.297
 11
6.18837
 21
120.344
  0
LINE
  8
0
 10
6.18837
 20
120.344
 11
5.81163
 21
120.344
  0
LINE
  8
0
 10
5.81163
 20
120.344
 11
5.43786
 21
120.297
  0
LINE
  8
0
 10
5.43786
 20
120.297
 11
5.07295
 21
120.203
  0
LINE
  8
0
 10
5.07295
 20
120.203
 11
4.72266
 21
120.064
  0
LINE
  8
0
 10
4.72266
 20
120.064
 11
4.39252
 21
119.883
  0
LINE
  8
0
 10
4.39252
 20
119.883
 11
4.08773
 21
119.662
  0
LINE
  8
0
 10
4.08773
 20
119.662
 11
3.81309
 21
119.404
  0
LINE
  8
0
 10
3.81309
 20
119.404
 11
3.57295
 21
119.113
  0
LINE
  8
0
 10
3.57295
 20
119.113
 11
3.37108
 21
118.795
  0
LINE
  8
0
 10
3.37108
 20
118.795
 11
3.21067
 21
118.454
  0
LINE
  8
0
 10
3.21067
 20
118.454
 11
3.09425
 21
118.096
  0
LINE
  8
0
 10
3.09425
 20
118.096
 11
3.02366
 21
117.726
  0
LINE
  8
0
 10
3.02366
 20
117.726
 11
3
 21
117.35
  0
LINE
  8
0
 10
9.5
 20
109
 11
9.54337
 21
108.311
  0
LINE
  8
0
 10
9.54337
 20
108.311
 11
9.67279
 21
107.632
  0
LINE
  8
0
 10
9.67279
 20
107.632
 11
9.88623
 21
106.975
  0
LINE
  8
0
 10
9.88623
 20
106.975
 11
10.1803
 21
106.35
  0
LINE
  8
0
 10
10.1803
 20
106.35
 11
10.5504
 21
105.767
  0
LINE
  8
0
 10
10.5504
 20
105.767
 11
10.9907
 21
105.235
  0
LINE
  8
0
 10
10.9907
 20
105.235
 11
11.4942
 21
104.762
  0
LINE
  8
0
 10
11.4942
 20
104.762
 11
12.053
 21
104.356
  0
LINE
  8
0
 10
12.053
 20
104.356
 11
12.6582
 21
104.023
  0
LINE
  8
0
 10
12.6582
 20
104.023
 11
13.3004
 21
103.769
  0
LINE
  8
0
 10
13.3004
 20
103.769
 11
13.9694
 21
103.597
  0
LINE
  8
0
 10
13.9694
 20
103.597
 11
14.6547
 21
103.511
  0
LINE
  8
0
 10
14.6547
 20
103.511
 11
15.3453
 21
103.511
  0
LINE
  8
0
 10
15.3453
 20
103.511
 11
16.0306
 21
103.597
  0
LINE
  8
0
 10
16.0306
 20
103.597
 11
16.6996
 21
103.769
  0
LINE
  8
0
 10
16.6996
 20
103.769
 11
17.3418
 21
104.023
  0
LINE
  8
0
 10
17.3418
 20
104.023
 11
17.947
 21
104.356
  0
LINE
  8
0
 10
17.947
 20
104.356
 11
18.5058
 21
104.762
  0
LINE
  8
0
 10
18.5058
 20
104.762
 11
19.0093
 21
105.235
  0
LINE
  8
0
 10
19.0093
 20
105.235
 11
19.4496
 21
105.767
  0
LINE
  8
0
 10
19.4496
 20
105.767
 11
19.8197
 21
106.35
  0
LINE
  8
0
 10
19.8197
 20
106.35
 11
20.1138
 21
106.975
  0
LINE
  8
0
 10
20.1138
 20
106.975
 11
20.3272
 21
107.632
  0
LINE
  8
0
 10
20.3272
 20
107.632
 11
20.4566
 21
108.311
  0
LINE
  8
0
 10
20.4566
 20
108.311
 11
20.5
 21
109
  0
LINE
  8
0
 10
20.5
 20
109
 11
20.4566
 21
109.689
  0
LINE
  8
0
 10
20.4566
 20
109.689
 11
20.3272
 21
110.368
  0
LINE
  8
0
 10
20.3272
 20
110.368
 11
20.1138
 21
111.025
  0
LINE
  8
0
 10
20.1138
 20
111.025
 11
19.8197
 21
111.65
  0
LINE
  8
0
 10
19.8197
 20
111.65
 11
19.4496
 21
112.233
  0
LINE
  8
0
 10
19.4496
 20
112.233
 11
19.0093
 21
112.765
  0
LINE
  8
0
 10
19.0093
 20
112.765
 11
18.5058
 21
113.238
  0
LINE
  8
0
 10
18.5058
 20
113.238
 11
17.947
 21
113.644
  0
LINE
  8
0
 10
17.947
 20
113.644
 11
17.3418
 21
113.977
  0
LINE
  8
0
 10
17.3418
 20
113.977
 11
16.6996
 21
114.231
  0
LINE
  8
0
 10
16.6996
 20
114.231
 11
16.0306
 21
114.403
  0
LINE
  8
0
 10
16.0306
 20
114.403
 11
15.3453
 21
114.489
  0
LINE
  8
0
 10
15.3453
 20
114.489
 11
14.6547
 21
114.489
  0
LINE
  8
0
 10
14.6547
 20
114.489
 11
13.9694
 21
114.403
  0
LINE
  8
0
 10
13.9694
 20
114.403
 11
13.3004
 21
114.231
  0
LINE
  8
0
 10
13.3004
 20
114.231
 11
12.6582
 21
113.977
  0
LINE
  8
0
 10
12.6582
 20
113.977
 11
12.053
 21
113.644
  0
LINE
  8
0
 10
12.053
 20
113.644
 11
11.4942
 21
113.238
  0
LINE
  8
0
 10
11.4942
 20
113.238
 11
10.9907
 21
112.765
  0
LINE
  8
0
 10
10.9907
 20
112.765
 11
10.5504
 21
112.233
  0
LINE
  8
0
 10
10.5504
 20
112.233
 11
10.1803
 21
111.65
  0
LINE
  8
0
 10
10.1803
 20
111.65
 11
9.88623
 21
111.025
  0
LINE
  8
0
 10
9.88623
 20
111.025
 11
9.67279
 21
110.368
  0
LINE
  8
0
 10
9.67279
 20
110.368
 11
9.54337
 21
109.689
  0
LINE
  8
0
 10
9.54337
 20
109.689
 11
9.5
 21
109
  0
LINE
  8
0
 10
11
 20
109
 11
11.0079
 21
109.251
  0
LINE
  8
0
 10
11.0079
 20
109.251
 11
11.0315
 21
109.501
  0
LINE
  8
0
 10
11.0315
 20
109.501
 11
11.0709
 21
109.75
  0
LINE
  8
0
 10
11.0709
 20
109.75
 11
11.1257
 21
109.995
  0
LINE
  8
0
 10
11.1257
 20
109.995
 11
11.1958
 21
110.236
  0
LINE
  8
0
 10
11.1958
 20
110.236
 11
11.2809
 21
110.472
  0
LINE
  8
0
 10
11.2809
 20
110.472
 11
11.3807
 21
110.703
  0
LINE
  8
0
 10
11.3807
 20
110.703
 11
11.4948
 21
110.927
  0
LINE
  8
0
 10
11.4948
 20
110.927
 11
11.6227
 21
111.143
  0
LINE
  8
0
 10
11.6227
 20
111.143
 11
11.7639
 21
111.351
  0
LINE
  8
0
 10
11.7639
 20
111.351
 11
11.9179
 21
111.55
  0
LINE
  8
0
 10
11.9179
 20
111.55
 11
12.0841
 21
111.738
  0
LINE
  8
0
 10
12.0841
 20
111.738
 11
12.2618
 21
111.916
  0
LINE
  8
0
 10
12.2618
 20
111.916
 11
12.4503
 21
112.082
  0
LINE
  8
0
 10
12.4503
 20
112.082
 11
12.6489
 21
112.236
  0
LINE
  8
0
 10
12.6489
 20
112.236
 11
12.8567
 21
112.377
  0
LINE
  8
0
 10
12.8567
 20
112.377
 11
13.073
 21
112.505
  0
LINE
  8
0
 10
13.073
 20
112.505
 11
13.2969
 21
112.619
  0
LINE
  8
0
 10
13.2969
 20
112.619
 11
13.5275
 21
112.719
  0
LINE
  8
0
 10
13.5275
 20
112.719
 11
13.7639
 21
112.804
  0
LINE
  8
0
 10
13.7639
 20
112.804
 11
14.0052
 21
112.874
  0
LINE
  8
0
 10
14.0052
 20
112.874
 11
14.2505
 21
112.929
  0
LINE
  8
0
 10
14.2505
 20
112.929
 11
14.4987
 21
112.968
  0
LINE
  8
0
 10
14.4987
 20
112.968
 11
14.7488
 21
112.992
  0
LINE
  8
0
 10
14.7488
 20
112.992
 11
15
 21
113
  0
LINE
  8
0
 10
15
 20
113
 11
15.2512
 21
112.992
  0
LINE
  8
0
 10
15.2512
 20
112.992
 11
15.5013
 21
112.968
  0
LINE
  8
0
 10
15.5013
 20
112.968
 11
15.7495
 21
112.929
  0
LINE
  8
0
 10
15.7495
 20
112.929
 11
15.9948
 21
112.874
  0
LINE
  8
0
 10
15.9948
 20
112.874
 11
16.2361
 21
112.804
  0
LINE
  8
0
 10
16.2361
 20
112.804
 11
16.4725
 21
112.719
  0
LINE
  8
0
 10
16.4725
 20
112.719
 11
16.7031
 21
112.619
  0
LINE
  8
0
 10
16.7031
 20
112.619
 11
16.927
 21
112.505
  0
LINE
  8
0
 10
16.927
 20
112.505
 11
17.1433
 21
112.377
  0
LINE
  8
0
 10
17.1433
 20
112.377
 11
17.3511
 21
112.236
  0
LINE
  8
0
 10
17.3511
 20
112.236
 11
17.5497
 21
112.082
  0
LINE
  8
0
 10
17.5497
 20
112.082
 11
17.7382
 21
111.916
  0
LINE
  8
0
 10
17.7382
 20
111.916
 11
17.9159
 21
111.738
  0
LINE
  8
0
 10
17.9159
 20
111.738
 11
18.0821
 21
111.55
  0
LINE
  8
0
 10
18.0821
 20
111.55
 11
18.2361
 21
111.351
  0
LINE
  8
0
 10
18.2361
 20
111.351
 11
18.3773
 21
111.143
  0
LINE
  8
0
 10
18.3773
 20
111.143
 11
18.5052
 21
110.927
  0
LINE
  8
0
 10
18.5052
 20
110.927
 11
18.6193
 21
110.703
  0
LINE
  8
0
 10
18.6193
 20
110.703
 11
18.7191
 21
110.472
  0
LINE
  8
0
 10
18.7191
 20
110.472
 11
18.8042
 21
110.236
  0
LINE
  8
0
 10
18.8042
 20
110.236
 11
18.8743
 21
109.995
  0
LINE
  8
0
 10
18.8743
 20
109.995
 11
18.9291
 21
109.75
  0
LINE
  8
0
 10
18.9291
 20
109.75
 11
18.9685
 21
109.501
  0
LINE
  8
0
 10
18.9685
 20
109.501
 11
18.9921
 21
109.251
  0
LINE
  8
0
 10
18.9921
 20
109.251
 11
19
 21
109
  0
LINE
  8
0
 10
19
 20
109
 11
18.9921
 21
108.749
  0
LINE
  8
0
 10
18.9921
 20
108.749
 11
18.9685
 21
108.499
  0
LINE
  8
0
 10
18.9685
 20
108.499
 11
18.9291
 21
108.25
  0
LINE
  8
0
 10
18.9291
 20
108.25
 11
18.8743
 21
108.005
  0
LINE
  8
0
 10
18.8743
 20
108.005
 11
18.8042
 21
107.764
  0
LINE
  8
0
 10
18.8042
 20
107.764
 11
18.7191
 21
107.528
  0
LINE
  8
0
 10
18.7191
 20
107.528
 11
18.6193
 21
107.297
  0
LINE
  8
0
 10
18.6193
 20
107.297
 11
18.5052
 21
107.073
  0
LINE
  8
0
 10
18.5052
 20
107.073
 11
18.3773
 21
106.857
  0
LINE
  8
0
 10
18.3773
 20
106.857
 11
18.2361
 21
106.649
  0
LINE
  8
0
 10
18.2361
 20
106.649
 11
18.0821
 21
106.45
  0
LINE
  8
0
 10
18.0821
 20
106.45
 11
17.9159
 21
106.262
  0
LINE
  8
0
 10
17.9159
 20
106.262
 11
17.7382
 21
106.084
  0
LINE
  8
0
 10
17.7382
 20
106.084
 11
17.5497
 21
105.918
  0
LINE
  8
0
 10
17.5497
 20
105.918
 11
17.3511
 21
105.764
  0
LINE
  8
0
 10
17.3511
 20
105.764
 11
17.1433
 21
105.623
  0
LINE
  8
0
 10
17.1433
 20
105.623
 11
16.927
 21
105.495
  0
LINE
  8
0
 10
16.927
 20
105.495
 11
16.7031
 21
105.381
  0
LINE
  8
0
 10
16.7031
 20
105.381
 11
16.4725
 21
105.281
  0
LINE
  8
0
 10
16.4725
 20
105.281
 11
16.2361
 21
105.196
  0
LINE
  8
0
 10
16.2361
 20
105.196
 11
15.9948
 21
105.126
  0
LINE
  8
0
 10
15.9948
 20
105.126
 11
15.7495
 21
105.071
  0
LINE
  8
0
 10
15.7495
 20
105.071
 11
15.5013
 21
105.032
  0
LINE
  8
0
 10
15.5013
 20
105.032
 11
15.2512
 21
105.008
  0
LINE
  8
0
 10
15.2512
 20
105.008
 11
15
 21
105
  0
LINE
  8
0
 10
15
 20
105
 11
14.7488
 21
105.008
  0
LINE
  8
0
 10
14.7488
 20
105.008
 11
14.4987
 21
105.032
  0
LINE
  8
0
 10
14.4987
 20
105.032
 11
14.2505
 21
105.071
  0
LINE
  8
0
 10
14.2505
 20
105.071
 11
14.0052
 21
105.126
  0
LINE
  8
0
 10
14.0052
 20
105.126
 11
13.7639
 21
105.196
  0
LINE
  8
0
 10
13.7639
 20
105.196
 11
13.5275
 21
105.281
  0
LINE
  8
0
 10
13.5275
 20
105.281
 11
13.2969
 21
105.381
  0
LINE
  8
0
 10
13.2969
 20
105.381
 11
13.073
 21
105.495
  0
LINE
  8
0
 10
13.073
 20
105.495
 11
12.8567
 21
105.623
  0
LINE
  8
0
 10
12.8567
 20
105.623
 11
12.6489
 21
105.764
  0
LINE
  8
0
 10
12.6489
 20
105.764
 11
12.4503
 21
105.918
  0
LINE
  8
0
 10
12.4503
 20
105.918
 11
12.2618
 21
106.084
  0
LINE
  8
0
 10
12.2618
 20
106.084
 11
12.0841
 21
106.262
  0
LINE
  8
0
 10
12.0841
 20
106.262
 11
11.9179
 21
106.45
  0
LINE
  8
0
 10
11.9179
 20
106.45
 11
11.7639
 21
106.649
  0
LINE
  8
0
 10
11.7639
 20
106.649
 11
11.6227
 21
106.857
  0
LINE
  8
0
 10
11.6227
 20
106.857
 11
11.4948
 21
107.073
  0
LINE
  8
0
 10
11.4948
 20
107.073
 11
11.3807
 21
107.297
  0
LINE
  8
0
 10
11.3807
 20
107.297
 11
11.2809
 21
107.528
  0
LINE
  8
0
 10
11.2809
 20
107.528
 11
11.1958
 21
107.764
  0
LINE
  8
0
 10
11.1958
 20
107.764
 11
11.1257
 21
108.005
  0
LINE
  8
0
 10
11.1257
 20
108.005
 11
11.0709
 21
108.25
  0
LINE
  8
0
 10
11.0709
 20
108.25
 11
11.0315
 21
108.499
  0
LINE
  8
0
 10
11.0315
 20
108.499
 11
11.0079
 21
108.749
  0
LINE
  8
0
 10
11.0079
 20
108.749
 11
11
 21
109
  0
LINE
  8
0
 10
30.5
 20
109
 11
30.5434
 21
108.311
  0
LINE
  8
0
 10
30.5434
 20
108.311
 11
30.6728
 21
107.632
  0
LINE
  8
0
 10
30.6728
 20
107.632
 11
30.8862
 21
106.975
  0
LINE
  8
0
 10
30.8862
 20
106.975
 11
31.1803
 21
106.35
  0
LINE
  8
0
 10
31.1803
 20
106.35
 11
31.5504
 21
105.767
  0
LINE
  8
0
 10
31.5504
 20
105.767
 11
31.9907
 21
105.235
  0
LINE
  8
0
 10
31.9907
 20
105.235
 11
32.4942
 21
104.762
  0
LINE
  8
0
 10
32.4942
 20
104.762
 11
33.053
 21
104.356
  0
LINE
  8
0
 10
33.053
 20
104.356
 11
33.6582
 21
104.023
  0
LINE
  8
0
 10
33.6582
 20
104.023
 11
34.3004
 21
103.769
  0
LINE
  8
0
 10
34.3004
 20
103.769
 11
34.9694
 21
103.597
  0
LINE
  8
0
 10
34.9694
 20
103.597
 11
35.6547
 21
103.511
  0
LINE
  8
0
 10
35.6547
 20
103.511
 11
36.3453
 21
103.511
  0
LINE
  8
0
 10
36.3453
 20
103.511
 11
37.0306
 21
103.597
  0
LINE
  8
0
 10
37.0306
 20
103.597
 11
37.6996
 21
103.769
  0
LINE
  8
0
 10
37.6996
 20
103.769
 11
38.3418
 21
104.023
  0
LINE
  8
0
 10
38.3418
 20
104.023
 11
38.947
 21
104.356
  0
LINE
  8
0
 10
38.947
 20
104.356
 11
39.5058
 21
104.762
  0
LINE
  8
0
 10
39.5058
 20
104.762
 11
40.0093
 21
105.235
  0
LINE
  8
0
 10
40.0093
 20
105.235
 11
40.4496
 21
105.767
  0
LINE
  8
0
 10
40.4496
 20
105.767
 11
40.8197
 21
106.35
  0
LINE
  8
0
 10
40.8197
 20
106.35
 11
41.1138
 21
106.975
  0
LINE
  8
0
 10
41.1138
 20
106.975
 11
41.3272
 21
107.632
  0
LINE
  8
0
 10
41.3272
 20
107.632
 11
41.4566
 21
108.311
  0
LINE
  8
0
 10
41.4566
 20
108.311
 11
41.5
 21
109
  0
LINE
  8
0
 10
41.5
 20
109
 11
41.4566
 21
109.689
  0
LINE
  8
0
 10
41.4566
 20
109.689
 11
41.3272
 21
110.368
  0
LINE
  8
0
 10
41.3272
 20
110.368
 11
41.1138
 21
111.025
  0
LINE
  8
0
 10
41.1138
 20
111.025
 11
40.8197
 21
111.65
  0
LINE
  8
0
 10
40.8197
 20
111.65
 11
40.4496
 21
112.233
  0
LINE
  8
0
 10
40.4496
 20
112.233
 11
40.0093
 21
112.765
  0
LINE
  8
0
 10
40.0093
 20
112.765
 11
39.5058
 21
113.238
  0
LINE
  8
0
 10
39.5058
 20
113.238
 11
38.947
 21
113.644
  0
LINE
  8
0
 10
38.947
 20
113.644
 11
38.3418
 21
113.977
  0
LINE
  8
0
 10
38.3418
 20
113.977
 11
37.6996
 21
114.231
  0
LINE
  8
0
 10
37.6996
 20
114.231
 11
37.0306
 21
114.403
  0
LINE
  8
0
 10
37.0306
 20
114.403
 11
36.3453
 21
114.489
  0
LINE
  8
0
 10
36.3453
 20
114.489
 11
35.6547
 21
114.489
  0
LINE
  8
0
 10
35.6547
 20
114.489
 11
34.9694
 21
114.403
  0
LINE
  8
0
 10
34.9694
 20
114.403
 11
34.3004
 21
114.231
  0
LINE
  8
0
 10
34.3004
 20
114.231
 11
33.6582
 21
113.977
  0
LINE
  8
0
 10
33.6582
 20
113.977
 11
33.053
 21
113.644
  0
LINE
  8
0
 10
33.053
 20
113.644
 11
32.4942
 21
113.238
  0
LINE
  8
0
 10
32.4942
 20
113.238
 11
31.9907
 21
112.765
  0
LINE
  8
0
 10
31.9907
 20
112.765
 11
31.5504
 21
112.233
  0
LINE
  8
0
 10
31.5504
 20
112.233
 11
31.1803
 21
111.65
  0
LINE
  8
0
 10
31.1803
 20
111.65
 11
30.8862
 21
111.025
  0
LINE
  8
0
 10
30.8862
 20
111.025
 11
30.6728
 21
110.368
  0
LINE
  8
0
 10
30.6728
 20
110.368
 11
30.5434
 21
109.689
  0
LINE
  8
0
 10
30.5434
 20
109.689
 11
30.5
 21
109
  0
LINE
  8
0
 10
32
 20
109
 11
32.0079
 21
109.251
  0
LINE
  8
0
 10
32.0079
 20
109.251
 11
32.0315
 21
109.501
  0
LINE
  8
0
 10
32.0315
 20
109.501
 11
32.0709
 21
109.75
  0
LINE
  8
0
 10
32.0709
 20
109.75
 11
32.1257
 21
109.995
  0
LINE
  8
0
 10
32.1257
 20
109.995
 11
32.1958
 21
110.236
  0
LINE
  8
0
 10
32.1958
 20
110.236
 11
32.2809
 21
110.472
  0
LINE
  8
0
 10
32.2809
 20
110.472
 11
32.3807
 21
110.703
  0
LINE
  8
0
 10
32.3807
 20
110.703
 11
32.4948
 21
110.927
  0
LINE
  8
0
 10
32.4948
 20
110.927
 11
32.6227
 21
111.143
  0
LINE
  8
0
 10
32.6227
 20
111.143
 11
32.7639
 21
111.351
  0
LINE
  8
0
 10
32.7639
 20
111.351
 11
32.9179
 21
111.55
  0
LINE
  8
0
 10
32.9179
 20
111.55
 11
33.0841
 21
111.738
  0
LINE
  8
0
 10
33.0841
 20
111.738
 11
33.2618
 21
111.916
  0
LINE
  8
0
 10
33.2618
 20
111.916
 11
33.4503
 21
112.082
  0
LINE
  8
0
 10
33.4503
 20
112.082
 11
33.6489
 21
112.236
  0
LINE
  8
0
 10
33.6489
 20
112.236
 11
33.8567
 21
112.377
  0
LINE
  8
0
 10
33.8567
 20
112.377
 11
34.073
 21
112.505
  0
LINE
  8
0
 10
34.073
 20
112.505
 11
34.2969
 21
112.619
  0
LINE
  8
0
 10
34.2969
 20
112.619
 11
34.5275
 21
112.719
  0
LINE
  8
0
 10
34.5275
 20
112.719
 11
34.7639
 21
112.804
  0
LINE
  8
0
 10
34.7639
 20
112.804
 11
35.0052
 21
112.874
  0
LINE
  8
0
 10
35.0052
 20
112.874
 11
35.2505
 21
112.929
  0
LINE
  8
0
 10
35.2505
 20
112.929
 11
35.4987
 21
112.968
  0
LINE
  8
0
 10
35.4987
 20
112.968
 11
35.7488
 21
112.992
  0
LINE
  8
0
 10
35.7488
 20
112.992
 11
36
 21
113
  0
LINE
  8
0
 10
36
 20
113
 11
36.2512
 21
112.992
  0
LINE
  8
0
 10
36.2512
 20
112.992
 11
36.5013
 21
112.968
  0
LINE
  8
0
 10
36.5013
 20
112.968
 11
36.7495
 21
112.929
  0
LINE
  8
0
 10
36.7495
 20
112.929
 11
36.9948
 21
112.874
  0
LINE
  8
0
 10
36.9948
 20
112.874
 11
37.2361
 21
112.804
  0
LINE
  8
0
 10
37.2361
 20
112.804
 11
37.4725
 21
112.719
  0
LINE
  8
0
 10
37.4725
 20
112.719
 11
37.7031
 21
112.619
  0
LINE
  8
0
 10
37.7031
 20
112.619
 11
37.927
 21
112.505
  0
LINE
  8
0
 10
37.927
 20
112.505
 11
38.1433
 21
112.377
  0
LINE
  8
0
 10
38.1433
 20
112.377
 11
38.3511
 21
112.236
  0
LINE
  8
0
 10
38.3511
 20
112.236
 11
38.5497
 21
112.082
  0
LINE
  8
0
 10
38.5497
 20
112.082
 11
38.7382
 21
111.916
  0
LINE
  8
0
 10
38.7382
 20
111.916
 11
38.9159
 21
111.738
  0
LINE
  8
0
 10
38.9159
 20
111.738
 11
39.0821
 21
111.55
  0
LINE
  8
0
 10
39.0821
 20
111.55
 11
39.2361
 21
111.351
  0
LINE
  8
0
 10
39.2361
 20
111.351
 11
39.3773
 21
111.143
  0
LINE
  8
0
 10
39.3773
 20
111.143
 11
39.5052
 21
110.927
  0
LINE
  8
0
 10
39.5052
 20
110.927
 11
39.6193
 21
110.703
  0
LINE
  8
0
 10
39.6193
 20
110.703
 11
39.7191
 21
110.472
  0
LINE
  8
0
 10
39.7191
 20
110.472
 11
39.8042
 21
110.236
  0
LINE
  8
0
 10
39.8042
 20
110.236
 11
39.8743
 21
109.995
  0
LINE
  8
0
 10
39.8743
 20
109.995
 11
39.9291
 21
109.75
  0
LINE
  8
0
 10
39.9291
 20
109.75
 11
39.9685
 21
109.501
  0
LINE
  8
0
 10
39.9685
 20
109.501
 11
39.9921
 21
109.251
  0
LINE
  8
0
 10
39.9921
 20
109.251
 11
40
 21
109
  0
LINE
  8
0
 10
40
 20
109
 11
39.9921
 21
108.749
  0
LINE
  8
0
 10
39.9921
 20
108.749
 11
39.9685
 21
108.499
  0
LINE
  8
0
 10
39.9685
 20
108.499
 11
39.9291
 21
108.25
  0
LINE
  8
0
 10
39.9291
 20
108.25
 11
39.8743
 21
108.005
  0
LINE
  8
0
 10
39.8743
 20
108.005
 11
39.8042
 21
107.764
  0
LINE
  8
0
 10
39.8042
 20
107.764
 11
39.7191
 21
107.528
  0
LINE
  8
0
 10
39.7191
 20
107.528
 11
39.6193
 21
107.297
  0
LINE
  8
0
 10
39.6193
 20
107.297
 11
39.5052
 21
107.073
  0
LINE
  8
0
 10
39.5052
 20
107.073
 11
39.3773
 21
106.857
  0
LINE
  8
0
 10
39.3773
 20
106.857
 11
39.2361
 21
106.649
  0
LINE
  8
0
 10
39.2361
 20
106.649
 11
39.0821
 21
106.45
  0
LINE
  8
0
 10
39.0821
 20
106.45
 11
38.9159
 21
106.262
  0
LINE
  8
0
 10
38.9159
 20
106.262
 11
38.7382
 21
106.084
  0
LINE
  8
0
 10
38.7382
 20
106.084
 11
38.5497
 21
105.918
  0
LINE
  8
0
 10
38.5497
 20
105.918
 11
38.3511
 21
105.764
  0
LINE
  8
0
 10
38.3511
 20
105.764
 11
38.1433
 21
105.623
  0
LINE
  8
0
 10
38.1433
 20
105.623
 11
37.927
 21
105.495
  0
LINE
  8
0
 10
37.927
 20
105.495
 11
37.7031
 21
105.381
  0
LINE
  8
0
 10
37.7031
 20
105.381
 11
37.4725
 21
105.281
  0
LINE
  8
0
 10
37.4725
 20
105.281
 11
37.2361
 21
105.196
  0
LINE
  8
0
 10
37.2361
 20
105.196
 11
36.9948
 21
105.126
  0
LINE
  8
0
 10
36.9948
 20
105.126
 11
36.7495
 21
105.071
  0
LINE
  8
0
 10
36.7495
 20
105.071
 11
36.5013
 21
105.032
  0
LINE
  8
0
 10
36.5013
 20
105.032
 11
36.2512
 21
105.008
  0
LINE
  8
0
 10
36.2512
 20
105.008
 11
36
 21
105
  0
LINE
  8
0
 10
36
 20
105
 11
35.7488
 21
105.008
  0
LINE
  8
0
 10
35.7488
 20
105.008
 11
35.4987
 21
105.032
  0
LINE
  8
0
 10
35.4987
 20
105.032
 11
35.2505
 21
105.071
  0
LINE
  8
0
 10
35.2505
 20
105.071
 11
35.0052
 21
105.126
  0
LINE
  8
0
 10
35.0052
 20
105.126
 11
34.7639
 21
105.196
  0
LINE
  8
0
 10
34.7639
 20
105.196
 11
34.5275
 21
105.281
  0
LINE
  8
0
 10
34.5275
 20
105.281
 11
34.2969
 21
105.381
  0
LINE
  8
0
 10
34.2969
 20
105.381
 11
34.073
 21
105.495
  0
LINE
  8
0
 10
34.073
 20
105.495
 11
33.8567
 21
105.623
  0
LINE
  8
0
 10
33.8567
 20
105.623
 11
33.6489
 21
105.764
  0
LINE
  8
0
 10
33.6489
 20
105.764
 11
33.4503
 21
105.918
  0
LINE
  8
0
 10
33.4503
 20
105.918
 11
33.2618
 21
106.084
  0
LINE
  8
0
 10
33.2618
 20
106.084
 11
33.0841
 21
106.262
  0
LINE
  8
0
 10
33.0841
 20
106.262
 11
32.9179
 21
106.45
  0
LINE
  8
0
 10
32.9179
 20
106.45
 11
32.7639
 21
106.649
  0
LINE
  8
0
 10
32.7639
 20
106.649
 11
32.6227
 21
106.857
  0
LINE
  8
0
 10
32.6227
 20
106.857
 11
32.4948
 21
107.073
  0
LINE
  8
0
 10
32.4948
 20
107.073
 11
32.3807
 21
107.297
  0
LINE
  8
0
 10
32.3807
 20
107.297
 11
32.2809
 21
107.528
  0
LINE
  8
0
 10
32.2809
 20
107.528
 11
32.1958
 21
107.764
  0
LINE
  8
0
 10
32.1958
 20
107.764
 11
32.1257
 21
108.005
  0
LINE
  8
0
 10
32.1257
 20
108.005
 11
32.0709
 21
108.25
  0
LINE
  8
0
 10
32.0709
 20
108.25
 11
32.0315
 21
108.499
  0
LINE
  8
0
 10
32.0315
 20
108.499
 11
32.0079
 21
108.749
  0
LINE
  8
0
 10
32.0079
 20
108.749
 11
32
 21
109
  0
LINE
  8
0
 10
41.7
 20
16
 11
41.7237
 21
15.624
  0
LINE
  8
0
 10
41.7237
 20
15.624
 11
41.7943
 21
15.2539
  0
LINE
  8
0
 10
41.7943
 20
15.2539
 11
41.9107
 21
14.8956
  0
LINE
  8
0
 10
41.9107
 20
14.8956
 11
42.0711
 21
14.5547
  0
LINE
  8
0
 10
42.0711
 20
14.5547
 11
42.2729
 21
14.2366
  0
LINE
  8
0
 10
42.2729
 20
14.2366
 11
42.5131
 21
13.9464
  0
LINE
  8
0
 10
42.5131
 20
13.9464
 11
42.7877
 21
13.6885
  0
LINE
  8
0
 10
42.7877
 20
13.6885
 11
43.0925
 21
13.467
  0
LINE
  8
0
 10
43.0925
 20
13.467
 11
43.4227
 21
13.2855
  0
LINE
  8
0
 10
43.4227
 20
13.2855
 11
43.7729
 21
13.1468
  0
LINE
  8
0
 10
43.7729
 20
13.1468
 11
44.1379
 21
13.0531
  0
LINE
  8
0
 10
44.1379
 20
13.0531
 11
44.5116
 21
13.0059
  0
LINE
  8
0
 10
44.5116
 20
13.0059
 11
44.8884
 21
13.0059
  0
LINE
  8
0
 10
44.8884
 20
13.0059
 11
45.2621
 21
13.0531
  0
LINE
  8
0
 10
45.2621
 20
13.0531
 11
45.6271
 21
13.1468
  0
LINE
  8
0
 10
45.6271
 20
13.1468
 11
45.9773
 21
13.2855
  0
LINE
  8
0
 10
45.9773
 20
13.2855
 11
46.3075
 21
13.467
  0
LINE
  8
0
 10
46.3075
 20
13.467
 11
46.6123
 21
13.6885
  0
LINE
  8
0
 10
46.6123
 20
13.6885
 11
46.8869
 21
13.9464
  0
LINE
  8
0
 10
46.8869
 20
13.9464
 11
47.1271
 21
14.2366
  0
LINE
  8
0
 10
47.1271
 20
14.2366
 11
47.3289
 21
14.5547
  0
LINE
  8
0
 10
47.3289
 20
14.5547
 11
47.4893
 21
14.8956
  0
LINE
  8
0
 10
47.4893
 20
14.8956
 11
47.6057
 21
15.2539
  0
LINE
  8
0
 10
47.6057
 20
15.2539
 11
47.6763
 21
15.624
  0
LINE
  8
0
 10
47.6763
 20
15.624
 11
47.7
 21
16
  0
LINE
  8
0
 10
47.7
 20
16
 11
47.6763
 21
16.376
  0
LINE
  8
0
 10
47.6763
 20
16.376
 11
47.6057
 21
16.7461
  0
LINE
  8
0
 10
47.6057
 20
16.7461
 11
47.4893
 21
17.1044
  0
LINE
  8
0
 10
47.4893
 20
17.1044
 11
47.3289
 21
17.4453
  0
LINE
  8
0
 10
47.3289
 20
17.4453
 11
47.1271
 21
17.7634
  0
LINE
  8
0
 10
47.1271
 20
17.7634
 11
46.8869
 21
18.0536
  0
LINE
  8
0
 10
46.8869
 20
18.0536
 11
46.6123
 21
18.3115
  0
LINE
  8
0
 10
46.6123
 20
18.3115
 11
46.3075
 21
18.533
  0
LINE
  8
0
 10
46.3075
 20
18.533
 11
45.9773
 21
18.7145
  0
LINE
  8
0
 10
45.9773
 20
18.7145
 11
45.6271
 21
18.8532
  0
LINE
  8
0
 10
45.6271
 20
18.8532
 11
45.2621
 21
18.9469
  0
LINE
  8
0
 10
45.2621
 20
18.9469
 11
44.8884
 21
18.9941
  0
LINE
  8
0
 10
44.8884
 20
18.9941
 11
44.5116
 21
18.9941
  0
LINE
  8
0
 10
44.5116
 20
18.9941
 11
44.1379
 21
18.9469
  0
LINE
  8
0
 10
44.1379
 20
18.9469
 11
43.7729
 21
18.8532
  0
LINE
  8
0
 10
43.7729
 20
18.8532
 11
43.4227
 21
18.7145
  0
LINE
  8
0
 10
43.4227
 20
18.7145
 11
43.0925
 21
18.533
  0
LINE
  8
0
 10
43.0925
 20
18.533
 11
42.7877
 21
18.3115
  0
LINE
  8
0
 10
42.7877
 20
18.3115
 11
42.5131
 21
18.0536
  0
LINE
  8
0
 10
42.5131
 20
18.0536
 11
42.2729
 21
17.7634
  0
LINE
  8
0
 10
42.2729
 20
17.7634
 11
42.0711
 21
17.4453
  0
LINE
  8
0
 10
42.0711
 20
17.4453
 11
41.9107
 21
17.1044
  0
LINE
  8
0
 10
41.9107
 20
17.1044
 11
41.7943
 21
16.7461
  0
LINE
  8
0
 10
41.7943
 20
16.7461
 11
41.7237
 21
16.376
  0
LINE
  8
0
 10
41.7237
 20
16.376
 11
41.7
 21
16
  0
LINE
  8
0
 10
41.7
 20
117.35
 11
41.7237
 21
116.974
  0
LINE
  8
0
 10
41.7237
 20
116.974
 11
41.7943
 21
116.604
  0
LINE
  8
0
 10
41.7943
 20
116.604
 11
41.9107
 21
116.246
  0
LINE
  8
0
 10
41.9107
 20
116.246
 11
42.0711
 21
115.905
  0
LINE
  8
0
 10
42.0711
 20
115.905
 11
42.2729
 21
115.587
  0
LINE
  8
0
 10
42.2729
 20
115.587
 11
42.5131
 21
115.296
  0
LINE
  8
0
 10
42.5131
 20
115.296
 11
42.7877
 21
115.038
  0
LINE
  8
0
 10
42.7877
 20
115.038
 11
43.0925
 21
114.817
  0
LINE
  8
0
 10
43.0925
 20
114.817
 11
43.4227
 21
114.636
  0
LINE
  8
0
 10
43.4227
 20
114.636
 11
43.7729
 21
114.497
  0
LINE
  8
0
 10
43.7729
 20
114.497
 11
44.1379
 21
114.403
  0
LINE
  8
0
 10
44.1379
 20
114.403
 11
44.5116
 21
114.356
  0
LINE
  8
0
 10
44.5116
 20
114.356
 11
44.8884
 21
114.356
  0
LINE
  8
0
 10
44.8884
 20
114.356
 11
45.2621
 21
114.403
  0
LINE
  8
0
 10
45.2621
 20
114.403
 11
45.6271
 21
114.497
  0
LINE
  8
0
 10
45.6271
 20
114.497
 11
45.9773
 21
114.636
  0
LINE
  8
0
 10
45.9773
 20
114.636
 11
46.3075
 21
114.817
  0
LINE
  8
0
 10
46.3075
 20
114.817
 11
46.6123
 21
115.038
  0
LINE
  8
0
 10
46.6123
 20
115.038
 11
46.8869
 21
115.296
  0
LINE
  8
0
 10
46.8869
 20
115.296
 11
47.1271
 21
115.587
  0
LINE
  8
0
 10
47.1271
 20
115.587
 11
47.3289
 21
115.905
  0
LINE
  8
0
 10
47.3289
 20
115.905
 11
47.4893
 21
116.246
  0
LINE
  8
0
 10
47.4893
 20
116.246
 11
47.6057
 21
116.604
  0
LINE
  8
0
 10
47.6057
 20
116.604
 11
47.6763
 21
116.974
  0
LINE
  8
0
 10
47.6763
 20
116.974
 11
47.7
 21
117.35
  0
LINE
  8
0
 10
47.7
 20
117.35
 11
47.6763
 21
117.726
  0
LINE
  8
0
 10
47.6763
 20
117.726
 11
47.6057
 21
118.096
  0
LINE
  8
0
 10
47.6057
 20
118.096
 11
47.4893
 21
118.454
  0
LINE
  8
0
 10
47.4893
 20
118.454
 11
47.3289
 21
118.795
  0
LINE
  8
0
 10
47.3289
 20
118.795
 11
47.1271
 21
119.113
  0
LINE
  8
0
 10
47.1271
 20
119.113
 11
46.8869
 21
119.404
  0
LINE
  8
0
 10
46.8869
 20
119.404
 11
46.6123
 21
119.662
  0
LINE
  8
0
 10
46.6123
 20
119.662
 11
46.3075
 21
119.883
  0
LINE
  8
0
 10
46.3075
 20
119.883
 11
45.9773
 21
120.064
  0
LINE
  8
0
 10
45.9773
 20
120.064
 11
45.6271
 21
120.203
  0
LINE
  8
0
 10
45.6271
 20
120.203
 11
45.2621
 21
120.297
  0
LINE
  8
0
 10
45.2621
 20
120.297
 11
44.8884
 21
120.344
  0
LINE
  8
0
 10
44.8884
 20
120.344
 11
44.5116
 21
120.344
  0
LINE
  8
0
 10
44.5116
 20
120.344
 11
44.1379
 21
120.297
  0
LINE
  8
0
 10
44.1379
 20
120.297
 11
43.7729
 21
120.203
  0
LINE
  8
0
 10
43.7729
 20
120.203
 11
43.4227
 21
120.064
  0
LINE
  8
0
 10
43.4227
 20
120.064
 11
43.0925
 21
119.883
  0
LINE
  8
0
 10
43.0925
 20
119.883
 11
42.7877
 21
119.662
  0
LINE
  8
0
 10
42.7877
 20
119.662
 11
42.5131
 21
119.404
  0
LINE
  8
0
 10
42.5131
 20
119.404
 11
42.2729
 21
119.113
  0
LINE
  8
0
 10
42.2729
 20
119.113
 11
42.0711
 21
118.795
  0
LINE
  8
0
 10
42.0711
 20
118.795
 11
41.9107
 21
118.454
  0
LINE
  8
0
 10
41.9107
 20
118.454
 11
41.7943
 21
118.096
  0
LINE
  8
0
 10
41.7943
 20
118.096
 11
41.7237
 21
117.726
  0
LINE
  8
0
 10
41.7237
 20
117.726
 11
41.7
 21
117.35
  0
ENDSEC
  0
SECTION
  2
OBJECTS
  0
DICTIONARY
  0
ENDSEC
  0
EOF
