<?xml version="1.0" standalone="no"?>
 <!DOCTYPE svg PUBLIC "-//W3C//DTD SVG 1.1//EN" 
 "http://www.w3.org/Graphics/SVG/1.1/DTD/svg11.dtd"> 
<svg
  xmlns:svg="http://www.w3.org/2000/svg"
  xmlns="http://www.w3.org/2000/svg"
  xmlns:xlink="http://www.w3.org/1999/xlink"
  version="1.1"
  width="297.0022mm" height="210.0072mm" viewBox="0.0000 0.0000 297.0022 210.0072">
<title>SVG Image created as mount-Cmts_User.svg date 2023/11/07 21:19:15 </title>
  <desc>Image generated by PCBNEW </desc>
<g style="fill:#000000; fill-opacity:1.0000;stroke:#000000; stroke-opacity:1.0000;
stroke-linecap:round; stroke-linejoin:round;"
 transform="translate(0 0) scale(1 1)">
</g>
<g style="fill:#000000; fill-opacity:0.0; 
stroke:#000000; stroke-width:0.0000; stroke-opacity:1; 
stroke-linecap:round; stroke-linejoin:round;">
</g>
<g style="fill:#000000; fill-opacity:0.0; 
stroke:#000000; stroke-width:0.0510; stroke-opacity:1; 
stroke-linecap:round; stroke-linejoin:round;">
<text x="60.9600" y="66.2400"
textLength="2.7397" font-size="0.5333" lengthAdjust="spacingAndGlyphs"
text-anchor="middle" opacity="0">KEEPOUT</text>
<g class="stroked-text"><desc>KEEPOUT</desc>
<path d="M59.7219 66.2224
L59.7219 65.8224
" />
<path d="M59.9505 66.2224
L59.7790 65.9938
" />
<path d="M59.9505 65.8224
L59.7219 66.0510
" />
<path d="M60.1219 66.0129
L60.2552 66.0129
" />
<path d="M60.3124 66.2224
L60.1219 66.2224
" />
<path d="M60.1219 66.2224
L60.1219 65.8224
" />
<path d="M60.1219 65.8224
L60.3124 65.8224
" />
<path d="M60.4838 66.0129
L60.6171 66.0129
" />
<path d="M60.6743 66.2224
L60.4838 66.2224
" />
<path d="M60.4838 66.2224
L60.4838 65.8224
" />
<path d="M60.4838 65.8224
L60.6743 65.8224
" />
<path d="M60.8457 66.2224
L60.8457 65.8224
" />
<path d="M60.8457 65.8224
L60.9981 65.8224
" />
<path d="M60.9981 65.8224
L61.0362 65.8414
" />
<path d="M61.0362 65.8414
L61.0552 65.8605
" />
<path d="M61.0552 65.8605
L61.0743 65.8986
" />
<path d="M61.0743 65.8986
L61.0743 65.9557
" />
<path d="M61.0743 65.9557
L61.0552 65.9938
" />
<path d="M61.0552 65.9938
L61.0362 66.0129
" />
<path d="M61.0362 66.0129
L60.9981 66.0319
" />
<path d="M60.9981 66.0319
L60.8457 66.0319
" />
<path d="M61.3219 65.8224
L61.3981 65.8224
" />
<path d="M61.3981 65.8224
L61.4362 65.8414
" />
<path d="M61.4362 65.8414
L61.4743 65.8795
" />
<path d="M61.4743 65.8795
L61.4933 65.9557
" />
<path d="M61.4933 65.9557
L61.4933 66.0891
" />
<path d="M61.4933 66.0891
L61.4743 66.1653
" />
<path d="M61.4743 66.1653
L61.4362 66.2033
" />
<path d="M61.4362 66.2033
L61.3981 66.2224
" />
<path d="M61.3981 66.2224
L61.3219 66.2224
" />
<path d="M61.3219 66.2224
L61.2838 66.2033
" />
<path d="M61.2838 66.2033
L61.2457 66.1653
" />
<path d="M61.2457 66.1653
L61.2267 66.0891
" />
<path d="M61.2267 66.0891
L61.2267 65.9557
" />
<path d="M61.2267 65.9557
L61.2457 65.8795
" />
<path d="M61.2457 65.8795
L61.2838 65.8414
" />
<path d="M61.2838 65.8414
L61.3219 65.8224
" />
<path d="M61.6648 65.8224
L61.6648 66.1462
" />
<path d="M61.6648 66.1462
L61.6838 66.1843
" />
<path d="M61.6838 66.1843
L61.7029 66.2033
" />
<path d="M61.7029 66.2033
L61.7410 66.2224
" />
<path d="M61.7410 66.2224
L61.8171 66.2224
" />
<path d="M61.8171 66.2224
L61.8552 66.2033
" />
<path d="M61.8552 66.2033
L61.8743 66.1843
" />
<path d="M61.8743 66.1843
L61.8933 66.1462
" />
<path d="M61.8933 66.1462
L61.8933 65.8224
" />
<path d="M62.0267 65.8224
L62.2552 65.8224
" />
<path d="M62.1410 66.2224
L62.1410 65.8224
" />
</g><text x="60.9600" y="106.8800"
textLength="2.7397" font-size="0.5333" lengthAdjust="spacingAndGlyphs"
text-anchor="middle" opacity="0">KEEPOUT</text>
<g class="stroked-text"><desc>KEEPOUT</desc>
<path d="M59.7219 106.8624
L59.7219 106.4624
" />
<path d="M59.9505 106.8624
L59.7790 106.6338
" />
<path d="M59.9505 106.4624
L59.7219 106.6910
" />
<path d="M60.1219 106.6529
L60.2552 106.6529
" />
<path d="M60.3124 106.8624
L60.1219 106.8624
" />
<path d="M60.1219 106.8624
L60.1219 106.4624
" />
<path d="M60.1219 106.4624
L60.3124 106.4624
" />
<path d="M60.4838 106.6529
L60.6171 106.6529
" />
<path d="M60.6743 106.8624
L60.4838 106.8624
" />
<path d="M60.4838 106.8624
L60.4838 106.4624
" />
<path d="M60.4838 106.4624
L60.6743 106.4624
" />
<path d="M60.8457 106.8624
L60.8457 106.4624
" />
<path d="M60.8457 106.4624
L60.9981 106.4624
" />
<path d="M60.9981 106.4624
L61.0362 106.4814
" />
<path d="M61.0362 106.4814
L61.0552 106.5005
" />
<path d="M61.0552 106.5005
L61.0743 106.5386
" />
<path d="M61.0743 106.5386
L61.0743 106.5957
" />
<path d="M61.0743 106.5957
L61.0552 106.6338
" />
<path d="M61.0552 106.6338
L61.0362 106.6529
" />
<path d="M61.0362 106.6529
L60.9981 106.6719
" />
<path d="M60.9981 106.6719
L60.8457 106.6719
" />
<path d="M61.3219 106.4624
L61.3981 106.4624
" />
<path d="M61.3981 106.4624
L61.4362 106.4814
" />
<path d="M61.4362 106.4814
L61.4743 106.5195
" />
<path d="M61.4743 106.5195
L61.4933 106.5957
" />
<path d="M61.4933 106.5957
L61.4933 106.7291
" />
<path d="M61.4933 106.7291
L61.4743 106.8053
" />
<path d="M61.4743 106.8053
L61.4362 106.8433
" />
<path d="M61.4362 106.8433
L61.3981 106.8624
" />
<path d="M61.3981 106.8624
L61.3219 106.8624
" />
<path d="M61.3219 106.8624
L61.2838 106.8433
" />
<path d="M61.2838 106.8433
L61.2457 106.8053
" />
<path d="M61.2457 106.8053
L61.2267 106.7291
" />
<path d="M61.2267 106.7291
L61.2267 106.5957
" />
<path d="M61.2267 106.5957
L61.2457 106.5195
" />
<path d="M61.2457 106.5195
L61.2838 106.4814
" />
<path d="M61.2838 106.4814
L61.3219 106.4624
" />
<path d="M61.6648 106.4624
L61.6648 106.7862
" />
<path d="M61.6648 106.7862
L61.6838 106.8243
" />
<path d="M61.6838 106.8243
L61.7029 106.8433
" />
<path d="M61.7029 106.8433
L61.7410 106.8624
" />
<path d="M61.7410 106.8624
L61.8171 106.8624
" />
<path d="M61.8171 106.8624
L61.8552 106.8433
" />
<path d="M61.8552 106.8433
L61.8743 106.8243
" />
<path d="M61.8743 106.8243
L61.8933 106.7862
" />
<path d="M61.8933 106.7862
L61.8933 106.4624
" />
<path d="M62.0267 106.4624
L62.2552 106.4624
" />
<path d="M62.1410 106.8624
L62.1410 106.4624
" />
</g><text x="60.9600" y="147.5200"
textLength="2.7397" font-size="0.5333" lengthAdjust="spacingAndGlyphs"
text-anchor="middle" opacity="0">KEEPOUT</text>
<g class="stroked-text"><desc>KEEPOUT</desc>
<path d="M59.7219 147.5024
L59.7219 147.1024
" />
<path d="M59.9505 147.5024
L59.7790 147.2738
" />
<path d="M59.9505 147.1024
L59.7219 147.3310
" />
<path d="M60.1219 147.2929
L60.2552 147.2929
" />
<path d="M60.3124 147.5024
L60.1219 147.5024
" />
<path d="M60.1219 147.5024
L60.1219 147.1024
" />
<path d="M60.1219 147.1024
L60.3124 147.1024
" />
<path d="M60.4838 147.2929
L60.6171 147.2929
" />
<path d="M60.6743 147.5024
L60.4838 147.5024
" />
<path d="M60.4838 147.5024
L60.4838 147.1024
" />
<path d="M60.4838 147.1024
L60.6743 147.1024
" />
<path d="M60.8457 147.5024
L60.8457 147.1024
" />
<path d="M60.8457 147.1024
L60.9981 147.1024
" />
<path d="M60.9981 147.1024
L61.0362 147.1214
" />
<path d="M61.0362 147.1214
L61.0552 147.1405
" />
<path d="M61.0552 147.1405
L61.0743 147.1786
" />
<path d="M61.0743 147.1786
L61.0743 147.2357
" />
<path d="M61.0743 147.2357
L61.0552 147.2738
" />
<path d="M61.0552 147.2738
L61.0362 147.2929
" />
<path d="M61.0362 147.2929
L60.9981 147.3119
" />
<path d="M60.9981 147.3119
L60.8457 147.3119
" />
<path d="M61.3219 147.1024
L61.3981 147.1024
" />
<path d="M61.3981 147.1024
L61.4362 147.1214
" />
<path d="M61.4362 147.1214
L61.4743 147.1595
" />
<path d="M61.4743 147.1595
L61.4933 147.2357
" />
<path d="M61.4933 147.2357
L61.4933 147.3691
" />
<path d="M61.4933 147.3691
L61.4743 147.4453
" />
<path d="M61.4743 147.4453
L61.4362 147.4833
" />
<path d="M61.4362 147.4833
L61.3981 147.5024
" />
<path d="M61.3981 147.5024
L61.3219 147.5024
" />
<path d="M61.3219 147.5024
L61.2838 147.4833
" />
<path d="M61.2838 147.4833
L61.2457 147.4453
" />
<path d="M61.2457 147.4453
L61.2267 147.3691
" />
<path d="M61.2267 147.3691
L61.2267 147.2357
" />
<path d="M61.2267 147.2357
L61.2457 147.1595
" />
<path d="M61.2457 147.1595
L61.2838 147.1214
" />
<path d="M61.2838 147.1214
L61.3219 147.1024
" />
<path d="M61.6648 147.1024
L61.6648 147.4262
" />
<path d="M61.6648 147.4262
L61.6838 147.4643
" />
<path d="M61.6838 147.4643
L61.7029 147.4833
" />
<path d="M61.7029 147.4833
L61.7410 147.5024
" />
<path d="M61.7410 147.5024
L61.8171 147.5024
" />
<path d="M61.8171 147.5024
L61.8552 147.4833
" />
<path d="M61.8552 147.4833
L61.8743 147.4643
" />
<path d="M61.8743 147.4643
L61.8933 147.4262
" />
<path d="M61.8933 147.4262
L61.8933 147.1024
" />
<path d="M62.0267 147.1024
L62.2552 147.1024
" />
<path d="M62.1410 147.5024
L62.1410 147.1024
" />
</g><text x="81.2800" y="66.2400"
textLength="2.7397" font-size="0.5333" lengthAdjust="spacingAndGlyphs"
text-anchor="middle" opacity="0">KEEPOUT</text>
<g class="stroked-text"><desc>KEEPOUT</desc>
<path d="M80.0419 66.2224
L80.0419 65.8224
" />
<path d="M80.2705 66.2224
L80.0990 65.9938
" />
<path d="M80.2705 65.8224
L80.0419 66.0510
" />
<path d="M80.4419 66.0129
L80.5752 66.0129
" />
<path d="M80.6324 66.2224
L80.4419 66.2224
" />
<path d="M80.4419 66.2224
L80.4419 65.8224
" />
<path d="M80.4419 65.8224
L80.6324 65.8224
" />
<path d="M80.8038 66.0129
L80.9371 66.0129
" />
<path d="M80.9943 66.2224
L80.8038 66.2224
" />
<path d="M80.8038 66.2224
L80.8038 65.8224
" />
<path d="M80.8038 65.8224
L80.9943 65.8224
" />
<path d="M81.1657 66.2224
L81.1657 65.8224
" />
<path d="M81.1657 65.8224
L81.3181 65.8224
" />
<path d="M81.3181 65.8224
L81.3562 65.8414
" />
<path d="M81.3562 65.8414
L81.3752 65.8605
" />
<path d="M81.3752 65.8605
L81.3943 65.8986
" />
<path d="M81.3943 65.8986
L81.3943 65.9557
" />
<path d="M81.3943 65.9557
L81.3752 65.9938
" />
<path d="M81.3752 65.9938
L81.3562 66.0129
" />
<path d="M81.3562 66.0129
L81.3181 66.0319
" />
<path d="M81.3181 66.0319
L81.1657 66.0319
" />
<path d="M81.6419 65.8224
L81.7181 65.8224
" />
<path d="M81.7181 65.8224
L81.7562 65.8414
" />
<path d="M81.7562 65.8414
L81.7943 65.8795
" />
<path d="M81.7943 65.8795
L81.8133 65.9557
" />
<path d="M81.8133 65.9557
L81.8133 66.0891
" />
<path d="M81.8133 66.0891
L81.7943 66.1653
" />
<path d="M81.7943 66.1653
L81.7562 66.2033
" />
<path d="M81.7562 66.2033
L81.7181 66.2224
" />
<path d="M81.7181 66.2224
L81.6419 66.2224
" />
<path d="M81.6419 66.2224
L81.6038 66.2033
" />
<path d="M81.6038 66.2033
L81.5657 66.1653
" />
<path d="M81.5657 66.1653
L81.5467 66.0891
" />
<path d="M81.5467 66.0891
L81.5467 65.9557
" />
<path d="M81.5467 65.9557
L81.5657 65.8795
" />
<path d="M81.5657 65.8795
L81.6038 65.8414
" />
<path d="M81.6038 65.8414
L81.6419 65.8224
" />
<path d="M81.9848 65.8224
L81.9848 66.1462
" />
<path d="M81.9848 66.1462
L82.0038 66.1843
" />
<path d="M82.0038 66.1843
L82.0229 66.2033
" />
<path d="M82.0229 66.2033
L82.0610 66.2224
" />
<path d="M82.0610 66.2224
L82.1371 66.2224
" />
<path d="M82.1371 66.2224
L82.1752 66.2033
" />
<path d="M82.1752 66.2033
L82.1943 66.1843
" />
<path d="M82.1943 66.1843
L82.2133 66.1462
" />
<path d="M82.2133 66.1462
L82.2133 65.8224
" />
<path d="M82.3467 65.8224
L82.5752 65.8224
" />
<path d="M82.4610 66.2224
L82.4610 65.8224
" />
</g><text x="81.2800" y="107.0400"
textLength="2.7397" font-size="0.5333" lengthAdjust="spacingAndGlyphs"
text-anchor="middle" opacity="0">KEEPOUT</text>
<g class="stroked-text"><desc>KEEPOUT</desc>
<path d="M80.0419 107.0224
L80.0419 106.6224
" />
<path d="M80.2705 107.0224
L80.0990 106.7938
" />
<path d="M80.2705 106.6224
L80.0419 106.8510
" />
<path d="M80.4419 106.8129
L80.5752 106.8129
" />
<path d="M80.6324 107.0224
L80.4419 107.0224
" />
<path d="M80.4419 107.0224
L80.4419 106.6224
" />
<path d="M80.4419 106.6224
L80.6324 106.6224
" />
<path d="M80.8038 106.8129
L80.9371 106.8129
" />
<path d="M80.9943 107.0224
L80.8038 107.0224
" />
<path d="M80.8038 107.0224
L80.8038 106.6224
" />
<path d="M80.8038 106.6224
L80.9943 106.6224
" />
<path d="M81.1657 107.0224
L81.1657 106.6224
" />
<path d="M81.1657 106.6224
L81.3181 106.6224
" />
<path d="M81.3181 106.6224
L81.3562 106.6414
" />
<path d="M81.3562 106.6414
L81.3752 106.6605
" />
<path d="M81.3752 106.6605
L81.3943 106.6986
" />
<path d="M81.3943 106.6986
L81.3943 106.7557
" />
<path d="M81.3943 106.7557
L81.3752 106.7938
" />
<path d="M81.3752 106.7938
L81.3562 106.8129
" />
<path d="M81.3562 106.8129
L81.3181 106.8319
" />
<path d="M81.3181 106.8319
L81.1657 106.8319
" />
<path d="M81.6419 106.6224
L81.7181 106.6224
" />
<path d="M81.7181 106.6224
L81.7562 106.6414
" />
<path d="M81.7562 106.6414
L81.7943 106.6795
" />
<path d="M81.7943 106.6795
L81.8133 106.7557
" />
<path d="M81.8133 106.7557
L81.8133 106.8891
" />
<path d="M81.8133 106.8891
L81.7943 106.9653
" />
<path d="M81.7943 106.9653
L81.7562 107.0033
" />
<path d="M81.7562 107.0033
L81.7181 107.0224
" />
<path d="M81.7181 107.0224
L81.6419 107.0224
" />
<path d="M81.6419 107.0224
L81.6038 107.0033
" />
<path d="M81.6038 107.0033
L81.5657 106.9653
" />
<path d="M81.5657 106.9653
L81.5467 106.8891
" />
<path d="M81.5467 106.8891
L81.5467 106.7557
" />
<path d="M81.5467 106.7557
L81.5657 106.6795
" />
<path d="M81.5657 106.6795
L81.6038 106.6414
" />
<path d="M81.6038 106.6414
L81.6419 106.6224
" />
<path d="M81.9848 106.6224
L81.9848 106.9462
" />
<path d="M81.9848 106.9462
L82.0038 106.9843
" />
<path d="M82.0038 106.9843
L82.0229 107.0033
" />
<path d="M82.0229 107.0033
L82.0610 107.0224
" />
<path d="M82.0610 107.0224
L82.1371 107.0224
" />
<path d="M82.1371 107.0224
L82.1752 107.0033
" />
<path d="M82.1752 107.0033
L82.1943 106.9843
" />
<path d="M82.1943 106.9843
L82.2133 106.9462
" />
<path d="M82.2133 106.9462
L82.2133 106.6224
" />
<path d="M82.3467 106.6224
L82.5752 106.6224
" />
<path d="M82.4610 107.0224
L82.4610 106.6224
" />
</g><text x="81.2800" y="147.5200"
textLength="2.7397" font-size="0.5333" lengthAdjust="spacingAndGlyphs"
text-anchor="middle" opacity="0">KEEPOUT</text>
<g class="stroked-text"><desc>KEEPOUT</desc>
<path d="M80.0419 147.5024
L80.0419 147.1024
" />
<path d="M80.2705 147.5024
L80.0990 147.2738
" />
<path d="M80.2705 147.1024
L80.0419 147.3310
" />
<path d="M80.4419 147.2929
L80.5752 147.2929
" />
<path d="M80.6324 147.5024
L80.4419 147.5024
" />
<path d="M80.4419 147.5024
L80.4419 147.1024
" />
<path d="M80.4419 147.1024
L80.6324 147.1024
" />
<path d="M80.8038 147.2929
L80.9371 147.2929
" />
<path d="M80.9943 147.5024
L80.8038 147.5024
" />
<path d="M80.8038 147.5024
L80.8038 147.1024
" />
<path d="M80.8038 147.1024
L80.9943 147.1024
" />
<path d="M81.1657 147.5024
L81.1657 147.1024
" />
<path d="M81.1657 147.1024
L81.3181 147.1024
" />
<path d="M81.3181 147.1024
L81.3562 147.1214
" />
<path d="M81.3562 147.1214
L81.3752 147.1405
" />
<path d="M81.3752 147.1405
L81.3943 147.1786
" />
<path d="M81.3943 147.1786
L81.3943 147.2357
" />
<path d="M81.3943 147.2357
L81.3752 147.2738
" />
<path d="M81.3752 147.2738
L81.3562 147.2929
" />
<path d="M81.3562 147.2929
L81.3181 147.3119
" />
<path d="M81.3181 147.3119
L81.1657 147.3119
" />
<path d="M81.6419 147.1024
L81.7181 147.1024
" />
<path d="M81.7181 147.1024
L81.7562 147.1214
" />
<path d="M81.7562 147.1214
L81.7943 147.1595
" />
<path d="M81.7943 147.1595
L81.8133 147.2357
" />
<path d="M81.8133 147.2357
L81.8133 147.3691
" />
<path d="M81.8133 147.3691
L81.7943 147.4453
" />
<path d="M81.7943 147.4453
L81.7562 147.4833
" />
<path d="M81.7562 147.4833
L81.7181 147.5024
" />
<path d="M81.7181 147.5024
L81.6419 147.5024
" />
<path d="M81.6419 147.5024
L81.6038 147.4833
" />
<path d="M81.6038 147.4833
L81.5657 147.4453
" />
<path d="M81.5657 147.4453
L81.5467 147.3691
" />
<path d="M81.5467 147.3691
L81.5467 147.2357
" />
<path d="M81.5467 147.2357
L81.5657 147.1595
" />
<path d="M81.5657 147.1595
L81.6038 147.1214
" />
<path d="M81.6038 147.1214
L81.6419 147.1024
" />
<path d="M81.9848 147.1024
L81.9848 147.4262
" />
<path d="M81.9848 147.4262
L82.0038 147.4643
" />
<path d="M82.0038 147.4643
L82.0229 147.4833
" />
<path d="M82.0229 147.4833
L82.0610 147.5024
" />
<path d="M82.0610 147.5024
L82.1371 147.5024
" />
<path d="M82.1371 147.5024
L82.1752 147.4833
" />
<path d="M82.1752 147.4833
L82.1943 147.4643
" />
<path d="M82.1943 147.4643
L82.2133 147.4262
" />
<path d="M82.2133 147.4262
L82.2133 147.1024
" />
<path d="M82.3467 147.1024
L82.5752 147.1024
" />
<path d="M82.4610 147.5024
L82.4610 147.1024
" />
</g></g>
<g style="fill:#000000; fill-opacity:0.0; 
stroke:#000000; stroke-width:0.1500; stroke-opacity:1; 
stroke-linecap:round; stroke-linejoin:round;">
<circle cx="88.5600" cy="53.3400" r="2.2000" /> 
<circle cx="53.3400" cy="156.4400" r="2.2000" /> 
<circle cx="88.5600" cy="156.4400" r="2.2000" /> 
<circle cx="53.3400" cy="53.3400" r="2.2000" /> 
<g >
</g>
<g >
</g>
<g >
</g>
<g >
</g>
<g >
</g>
<g >
</g>
<g >
</g>
<g >
</g>
<g >
</g>
<g >
</g>
<g >
</g>
<g >
</g>
<g >
</g>
<g >
</g>
<g >
</g>
<g >
</g>
<g >
</g>
<g >
</g>
<g >
</g>
<g >
</g>
<g >
</g>
<g >
</g>
<g >
</g>
<g >
</g>
<g >
</g>
<g >
</g>
<g >
</g>
<g >
</g>
<g >
</g>
<g >
</g>
<g >
</g>
<g >
</g>
<g >
</g>
<g >
</g>
<g >
</g>
<g >
</g>
<g >
</g>
<g >
</g>
<g >
</g>
<g >
</g>
<g >
</g>
<g >
</g>
<g >
</g>
<g >
</g>
<g >
</g>
<g >
</g>
<g >
</g>
<g >
</g>
<g >
</g>
<g >
</g>
<g >
</g>
<g >
</g>
</g> 
</svg>
