<?xml version="1.0" standalone="no"?>
 <!DOCTYPE svg PUBLIC "-//W3C//DTD SVG 1.1//EN" 
 "http://www.w3.org/Graphics/SVG/1.1/DTD/svg11.dtd"> 
<svg
  xmlns:svg="http://www.w3.org/2000/svg"
  xmlns="http://www.w3.org/2000/svg"
  xmlns:xlink="http://www.w3.org/1999/xlink"
  version="1.1"
  width="297.0022mm" height="210.0072mm" viewBox="0.0000 0.0000 297.0022 210.0072">
<title>SVG Image created as mount-Dwgs_User.svg date 2023/11/07 18:45:51 </title>
  <desc>Image generated by PCBNEW </desc>
<g style="fill:#000000; fill-opacity:1.0000;stroke:#000000; stroke-opacity:1.0000;
stroke-linecap:round; stroke-linejoin:round;"
 transform="translate(0 0) scale(1 1)">
</g>
<g style="fill:#000000; fill-opacity:0.0; 
stroke:#000000; stroke-width:0.0000; stroke-opacity:1; 
stroke-linecap:round; stroke-linejoin:round;">
</g>
<g style="fill:#000000; fill-opacity:0.0; 
stroke:#000000; stroke-width:0.1200; stroke-opacity:1; 
stroke-linecap:round; stroke-linejoin:round;">
<path d="M34.1400 81.6750
L35.9600 79.8600
" />
<path d="M34.1500 80.8200
L35.1000 79.8700
" />
<path d="M34.4900 82.2900
L36.5700 80.2100
" />
<path d="M34.9800 82.6300
L36.9200 80.6900
" />
<path d="M35.6500 82.7600
L37.0400 81.3700
" />
<circle cx="35.5600" cy="81.2800" r="1.5000" /> 
<path d="M34.1400 41.0350
L35.9600 39.2200
" />
<path d="M34.1500 40.1800
L35.1000 39.2300
" />
<path d="M34.4900 41.6500
L36.5700 39.5700
" />
<path d="M34.9800 41.9900
L36.9200 40.0500
" />
<path d="M35.6500 42.1200
L37.0400 40.7300
" />
<circle cx="35.5600" cy="40.6400" r="1.5000" /> 
<path d="M34.1400 61.3550
L35.9600 59.5400
" />
<path d="M34.1500 60.5000
L35.1000 59.5500
" />
<path d="M34.4900 61.9700
L36.5700 59.8900
" />
<path d="M34.9800 62.3100
L36.9200 60.3700
" />
<path d="M35.6500 62.4400
L37.0400 61.0500
" />
<circle cx="35.5600" cy="60.9600" r="1.5000" /> 
<path d="M74.7800 81.6750
L76.6000 79.8600
" />
<path d="M74.7900 80.8200
L75.7400 79.8700
" />
<path d="M75.1300 82.2900
L77.2100 80.2100
" />
<path d="M75.6200 82.6300
L77.5600 80.6900
" />
<path d="M76.2900 82.7600
L77.6800 81.3700
" />
<circle cx="76.2000" cy="81.2800" r="1.5000" /> 
<path d="M34.1400 122.3150
L35.9600 120.5000
" />
<path d="M34.1500 121.4600
L35.1000 120.5100
" />
<path d="M34.4900 122.9300
L36.5700 120.8500
" />
<path d="M34.9800 123.2700
L36.9200 121.3300
" />
<path d="M35.6500 123.4000
L37.0400 122.0100
" />
<circle cx="35.5600" cy="121.9200" r="1.5000" /> 
<path d="M35.9550 103.0200
L34.1400 101.2000
" />
<path d="M35.1000 103.0100
L34.1500 102.0600
" />
<path d="M36.5700 102.6700
L34.4900 100.5900
" />
<path d="M36.9100 102.1800
L34.9700 100.2400
" />
<path d="M37.0400 101.5100
L35.6500 100.1200
" />
<circle cx="35.5600" cy="101.6000" r="1.5000" /> 
<path d="M74.7800 61.3550
L76.6000 59.5400
" />
<path d="M74.7900 60.5000
L75.7400 59.5500
" />
<path d="M75.1300 61.9700
L77.2100 59.8900
" />
<path d="M75.6200 62.3100
L77.5600 60.3700
" />
<path d="M76.2900 62.4400
L77.6800 61.0500
" />
<circle cx="76.2000" cy="60.9600" r="1.5000" /> 
<path d="M54.4600 61.3550
L56.2800 59.5400
" />
<path d="M54.4700 60.5000
L55.4200 59.5500
" />
<path d="M54.8100 61.9700
L56.8900 59.8900
" />
<path d="M55.3000 62.3100
L57.2400 60.3700
" />
<path d="M55.9700 62.4400
L57.3600 61.0500
" />
<circle cx="55.8800" cy="60.9600" r="1.5000" /> 
<path d="M49.3800 81.6750
L51.2000 79.8600
" />
<path d="M49.3900 80.8200
L50.3400 79.8700
" />
<path d="M49.7300 82.2900
L51.8100 80.2100
" />
<path d="M50.2200 82.6300
L52.1600 80.6900
" />
<path d="M50.8900 82.7600
L52.2800 81.3700
" />
<circle cx="50.8000" cy="81.2800" r="1.5000" /> 
<path d="M59.5400 81.6750
L61.3600 79.8600
" />
<path d="M59.5500 80.8200
L60.5000 79.8700
" />
<path d="M59.8900 82.2900
L61.9700 80.2100
" />
<path d="M60.3800 82.6300
L62.3200 80.6900
" />
<path d="M61.0500 82.7600
L62.4400 81.3700
" />
<circle cx="60.9600" cy="81.2800" r="1.5000" /> 
<path d="M54.4600 101.9950
L56.2800 100.1800
" />
<path d="M54.4700 101.1400
L55.4200 100.1900
" />
<path d="M54.8100 102.6100
L56.8900 100.5300
" />
<path d="M55.3000 102.9500
L57.2400 101.0100
" />
<path d="M55.9700 103.0800
L57.3600 101.6900
" />
<circle cx="55.8800" cy="101.6000" r="1.5000" /> 
<path d="M74.7800 101.9950
L76.6000 100.1800
" />
<path d="M74.7900 101.1400
L75.7400 100.1900
" />
<path d="M75.1300 102.6100
L77.2100 100.5300
" />
<path d="M75.6200 102.9500
L77.5600 101.0100
" />
<path d="M76.2900 103.0800
L77.6800 101.6900
" />
<circle cx="76.2000" cy="101.6000" r="1.5000" /> 
<g >
</g>
<g >
</g>
<g >
</g>
<g >
</g>
<g >
</g>
<g >
</g>
<g >
</g>
<g >
</g>
<g >
</g>
<g >
</g>
<g >
</g>
<g >
</g>
<g >
</g>
<g >
</g>
<g >
</g>
<g >
</g>
<g >
</g>
<g >
</g>
<g >
</g>
<g >
</g>
<g >
</g>
<g >
</g>
<g >
</g>
<g >
</g>
<g >
</g>
<g >
</g>
<g >
</g>
<g >
</g>
<g >
</g>
</g> 
</svg>
