<?xml version="1.0" standalone="no"?>
 <!DOCTYPE svg PUBLIC "-//W3C//DTD SVG 1.1//EN" 
 "http://www.w3.org/Graphics/SVG/1.1/DTD/svg11.dtd"> 
<svg
  xmlns:svg="http://www.w3.org/2000/svg"
  xmlns="http://www.w3.org/2000/svg"
  xmlns:xlink="http://www.w3.org/1999/xlink"
  version="1.1"
  width="297.0022mm" height="210.0072mm" viewBox="0.0000 0.0000 297.0022 210.0072">
<title>SVG Image created as panel-mask.svg date 2023/11/04 16:17:06 </title>
  <desc>Image generated by PCBNEW </desc>
<g style="fill:#000000; fill-opacity:1.0000;stroke:#000000; stroke-opacity:1.0000;
stroke-linecap:round; stroke-linejoin:round;"
 transform="translate(0 0) scale(1 1)">
</g>
<g style="fill:#000000; fill-opacity:0.0; 
stroke:#000000; stroke-width:0.0000; stroke-opacity:1; 
stroke-linecap:round; stroke-linejoin:round;">
</g>
<g style="fill:#000000; fill-opacity:0.0; 
stroke:#000000; stroke-width:0.2500; stroke-opacity:1; 
stroke-linecap:round; stroke-linejoin:round;">
<text x="78.7400" y="86.6140"
textLength="5.7367" font-size="1.8667" lengthAdjust="spacingAndGlyphs"
text-anchor="start" opacity="0">61Hz</text>
<g class="stroked-text"><desc>61Hz</desc>
<path d="M79.8378 84.3562
L79.5711 84.3562
" />
<path d="M79.5711 84.3562
L79.4378 84.4515
" />
<path d="M79.4378 84.4515
L79.3711 84.5467
" />
<path d="M79.3711 84.5467
L79.2378 84.8324
" />
<path d="M79.2378 84.8324
L79.1711 85.2134
" />
<path d="M79.1711 85.2134
L79.1711 85.9753
" />
<path d="M79.1711 85.9753
L79.2378 86.1658
" />
<path d="M79.2378 86.1658
L79.3045 86.2610
" />
<path d="M79.3045 86.2610
L79.4378 86.3562
" />
<path d="M79.4378 86.3562
L79.7045 86.3562
" />
<path d="M79.7045 86.3562
L79.8378 86.2610
" />
<path d="M79.8378 86.2610
L79.9045 86.1658
" />
<path d="M79.9045 86.1658
L79.9711 85.9753
" />
<path d="M79.9711 85.9753
L79.9711 85.4991
" />
<path d="M79.9711 85.4991
L79.9045 85.3086
" />
<path d="M79.9045 85.3086
L79.8378 85.2134
" />
<path d="M79.8378 85.2134
L79.7045 85.1181
" />
<path d="M79.7045 85.1181
L79.4378 85.1181
" />
<path d="M79.4378 85.1181
L79.3045 85.2134
" />
<path d="M79.3045 85.2134
L79.2378 85.3086
" />
<path d="M79.2378 85.3086
L79.1711 85.4991
" />
<path d="M81.3045 86.3562
L80.5045 86.3562
" />
<path d="M80.9045 86.3562
L80.9045 84.3562
" />
<path d="M80.9045 84.3562
L80.7711 84.6420
" />
<path d="M80.7711 84.6420
L80.6378 84.8324
" />
<path d="M80.6378 84.8324
L80.5045 84.9277
" />
<path d="M81.9045 86.3562
L81.9045 84.3562
" />
<path d="M81.9045 85.3086
L82.7045 85.3086
" />
<path d="M82.7045 86.3562
L82.7045 84.3562
" />
<path d="M83.2378 85.0229
L83.9711 85.0229
" />
<path d="M83.9711 85.0229
L83.2378 86.3562
" />
<path d="M83.2378 86.3562
L83.9711 86.3562
" />
</g><text x="57.4040" y="167.8940"
textLength="7.5367" font-size="1.8667" lengthAdjust="spacingAndGlyphs"
text-anchor="start" opacity="0">5.2kHz</text>
<g class="stroked-text"><desc>5.2kHz</desc>
<path d="M58.5685 165.6362
L57.9018 165.6362
" />
<path d="M57.9018 165.6362
L57.8351 166.5886
" />
<path d="M57.8351 166.5886
L57.9018 166.4934
" />
<path d="M57.9018 166.4934
L58.0351 166.3981
" />
<path d="M58.0351 166.3981
L58.3685 166.3981
" />
<path d="M58.3685 166.3981
L58.5018 166.4934
" />
<path d="M58.5018 166.4934
L58.5685 166.5886
" />
<path d="M58.5685 166.5886
L58.6351 166.7791
" />
<path d="M58.6351 166.7791
L58.6351 167.2553
" />
<path d="M58.6351 167.2553
L58.5685 167.4458
" />
<path d="M58.5685 167.4458
L58.5018 167.5410
" />
<path d="M58.5018 167.5410
L58.3685 167.6362
" />
<path d="M58.3685 167.6362
L58.0351 167.6362
" />
<path d="M58.0351 167.6362
L57.9018 167.5410
" />
<path d="M57.9018 167.5410
L57.8351 167.4458
" />
<path d="M59.2351 167.4458
L59.3018 167.5410
" />
<path d="M59.3018 167.5410
L59.2351 167.6362
" />
<path d="M59.2351 167.6362
L59.1685 167.5410
" />
<path d="M59.1685 167.5410
L59.2351 167.4458
" />
<path d="M59.2351 167.4458
L59.2351 167.6362
" />
<path d="M59.8351 165.8267
L59.9018 165.7315
" />
<path d="M59.9018 165.7315
L60.0351 165.6362
" />
<path d="M60.0351 165.6362
L60.3685 165.6362
" />
<path d="M60.3685 165.6362
L60.5018 165.7315
" />
<path d="M60.5018 165.7315
L60.5685 165.8267
" />
<path d="M60.5685 165.8267
L60.6351 166.0172
" />
<path d="M60.6351 166.0172
L60.6351 166.2077
" />
<path d="M60.6351 166.2077
L60.5685 166.4934
" />
<path d="M60.5685 166.4934
L59.7685 167.6362
" />
<path d="M59.7685 167.6362
L60.6351 167.6362
" />
<path d="M61.2351 167.6362
L61.2351 165.6362
" />
<path d="M61.3685 166.8743
L61.7685 167.6362
" />
<path d="M61.7685 166.3029
L61.2351 167.0648
" />
<path d="M62.3685 167.6362
L62.3685 165.6362
" />
<path d="M62.3685 166.5886
L63.1685 166.5886
" />
<path d="M63.1685 167.6362
L63.1685 165.6362
" />
<path d="M63.7018 166.3029
L64.4351 166.3029
" />
<path d="M64.4351 166.3029
L63.7018 167.6362
" />
<path d="M63.7018 167.6362
L64.4351 167.6362
" />
</g><text x="101.6000" y="126.9840"
textLength="1.6700" font-size="1.8667" lengthAdjust="spacingAndGlyphs"
text-anchor="middle" opacity="0">A</text>
<g class="stroked-text"><desc>A</desc>
<path d="M101.2667 126.3248
L101.9333 126.3248
" />
<path d="M101.1333 126.8962
L101.6000 124.8962
" />
<path d="M101.6000 124.8962
L102.0667 126.8962
" />
</g></g>
<g style="fill:#000000; fill-opacity:0.0; 
stroke:#000000; stroke-width:0.3500; stroke-opacity:1; 
stroke-linecap:round; stroke-linejoin:round;">
<text x="80.7720" y="55.3000"
textLength="21.0214" font-size="4.0000" lengthAdjust="spacingAndGlyphs"
text-anchor="middle" opacity="0">equalizer</text>
<g class="stroked-text"><desc>equalizer</desc>
<path d="M72.3434 55.0268
L72.0577 55.1697
" />
<path d="M72.0577 55.1697
L71.4863 55.1697
" />
<path d="M71.4863 55.1697
L71.2006 55.0268
" />
<path d="M71.2006 55.0268
L71.0577 54.7411
" />
<path d="M71.0577 54.7411
L71.0577 53.5982
" />
<path d="M71.0577 53.5982
L71.2006 53.3125
" />
<path d="M71.2006 53.3125
L71.4863 53.1697
" />
<path d="M71.4863 53.1697
L72.0577 53.1697
" />
<path d="M72.0577 53.1697
L72.3434 53.3125
" />
<path d="M72.3434 53.3125
L72.4863 53.5982
" />
<path d="M72.4863 53.5982
L72.4863 53.8839
" />
<path d="M72.4863 53.8839
L71.0577 54.1697
" />
<path d="M75.0577 53.1697
L75.0577 56.1697
" />
<path d="M75.0577 55.0268
L74.7720 55.1697
" />
<path d="M74.7720 55.1697
L74.2006 55.1697
" />
<path d="M74.2006 55.1697
L73.9149 55.0268
" />
<path d="M73.9149 55.0268
L73.7720 54.8839
" />
<path d="M73.7720 54.8839
L73.6291 54.5982
" />
<path d="M73.6291 54.5982
L73.6291 53.7411
" />
<path d="M73.6291 53.7411
L73.7720 53.4554
" />
<path d="M73.7720 53.4554
L73.9149 53.3125
" />
<path d="M73.9149 53.3125
L74.2006 53.1697
" />
<path d="M74.2006 53.1697
L74.7720 53.1697
" />
<path d="M74.7720 53.1697
L75.0577 53.3125
" />
<path d="M77.7720 53.1697
L77.7720 55.1697
" />
<path d="M76.4863 53.1697
L76.4863 54.7411
" />
<path d="M76.4863 54.7411
L76.6291 55.0268
" />
<path d="M76.6291 55.0268
L76.9149 55.1697
" />
<path d="M76.9149 55.1697
L77.3434 55.1697
" />
<path d="M77.3434 55.1697
L77.6291 55.0268
" />
<path d="M77.6291 55.0268
L77.7720 54.8839
" />
<path d="M80.4863 55.1697
L80.4863 53.5982
" />
<path d="M80.4863 53.5982
L80.3434 53.3125
" />
<path d="M80.3434 53.3125
L80.0577 53.1697
" />
<path d="M80.0577 53.1697
L79.4863 53.1697
" />
<path d="M79.4863 53.1697
L79.2006 53.3125
" />
<path d="M80.4863 55.0268
L80.2006 55.1697
" />
<path d="M80.2006 55.1697
L79.4863 55.1697
" />
<path d="M79.4863 55.1697
L79.2006 55.0268
" />
<path d="M79.2006 55.0268
L79.0577 54.7411
" />
<path d="M79.0577 54.7411
L79.0577 54.4554
" />
<path d="M79.0577 54.4554
L79.2006 54.1697
" />
<path d="M79.2006 54.1697
L79.4863 54.0268
" />
<path d="M79.4863 54.0268
L80.2006 54.0268
" />
<path d="M80.2006 54.0268
L80.4863 53.8839
" />
<path d="M82.3434 55.1697
L82.0577 55.0268
" />
<path d="M82.0577 55.0268
L81.9149 54.7411
" />
<path d="M81.9149 54.7411
L81.9149 52.1697
" />
<path d="M83.4863 55.1697
L83.4863 53.1697
" />
<path d="M83.4863 52.1697
L83.3434 52.3125
" />
<path d="M83.3434 52.3125
L83.4863 52.4554
" />
<path d="M83.4863 52.4554
L83.6291 52.3125
" />
<path d="M83.6291 52.3125
L83.4863 52.1697
" />
<path d="M83.4863 52.1697
L83.4863 52.4554
" />
<path d="M84.6291 53.1697
L86.2006 53.1697
" />
<path d="M86.2006 53.1697
L84.6291 55.1697
" />
<path d="M84.6291 55.1697
L86.2006 55.1697
" />
<path d="M88.4863 55.0268
L88.2006 55.1697
" />
<path d="M88.2006 55.1697
L87.6291 55.1697
" />
<path d="M87.6291 55.1697
L87.3434 55.0268
" />
<path d="M87.3434 55.0268
L87.2006 54.7411
" />
<path d="M87.2006 54.7411
L87.2006 53.5982
" />
<path d="M87.2006 53.5982
L87.3434 53.3125
" />
<path d="M87.3434 53.3125
L87.6291 53.1697
" />
<path d="M87.6291 53.1697
L88.2006 53.1697
" />
<path d="M88.2006 53.1697
L88.4863 53.3125
" />
<path d="M88.4863 53.3125
L88.6291 53.5982
" />
<path d="M88.6291 53.5982
L88.6291 53.8839
" />
<path d="M88.6291 53.8839
L87.2006 54.1697
" />
<path d="M89.9149 55.1697
L89.9149 53.1697
" />
<path d="M89.9149 53.7411
L90.0577 53.4554
" />
<path d="M90.0577 53.4554
L90.2006 53.3125
" />
<path d="M90.2006 53.3125
L90.4863 53.1697
" />
<path d="M90.4863 53.1697
L90.7720 53.1697
" />
</g></g>
<g style="fill:#000000; fill-opacity:0.0; 
stroke:#000000; stroke-width:0.2500; stroke-opacity:1; 
stroke-linecap:round; stroke-linejoin:round;">
<text x="57.6580" y="106.9340"
textLength="7.0700" font-size="1.8667" lengthAdjust="spacingAndGlyphs"
text-anchor="start" opacity="0">115Hz</text>
<g class="stroked-text"><desc>115Hz</desc>
<path d="M58.8891 106.6762
L58.0891 106.6762
" />
<path d="M58.4891 106.6762
L58.4891 104.6762
" />
<path d="M58.4891 104.6762
L58.3558 104.9620
" />
<path d="M58.3558 104.9620
L58.2225 105.1524
" />
<path d="M58.2225 105.1524
L58.0891 105.2477
" />
<path d="M60.2225 106.6762
L59.4225 106.6762
" />
<path d="M59.8225 106.6762
L59.8225 104.6762
" />
<path d="M59.8225 104.6762
L59.6891 104.9620
" />
<path d="M59.6891 104.9620
L59.5558 105.1524
" />
<path d="M59.5558 105.1524
L59.4225 105.2477
" />
<path d="M61.4891 104.6762
L60.8225 104.6762
" />
<path d="M60.8225 104.6762
L60.7558 105.6286
" />
<path d="M60.7558 105.6286
L60.8225 105.5334
" />
<path d="M60.8225 105.5334
L60.9558 105.4381
" />
<path d="M60.9558 105.4381
L61.2891 105.4381
" />
<path d="M61.2891 105.4381
L61.4225 105.5334
" />
<path d="M61.4225 105.5334
L61.4891 105.6286
" />
<path d="M61.4891 105.6286
L61.5558 105.8191
" />
<path d="M61.5558 105.8191
L61.5558 106.2953
" />
<path d="M61.5558 106.2953
L61.4891 106.4858
" />
<path d="M61.4891 106.4858
L61.4225 106.5810
" />
<path d="M61.4225 106.5810
L61.2891 106.6762
" />
<path d="M61.2891 106.6762
L60.9558 106.6762
" />
<path d="M60.9558 106.6762
L60.8225 106.5810
" />
<path d="M60.8225 106.5810
L60.7558 106.4858
" />
<path d="M62.1558 106.6762
L62.1558 104.6762
" />
<path d="M62.1558 105.6286
L62.9558 105.6286
" />
<path d="M62.9558 106.6762
L62.9558 104.6762
" />
<path d="M63.4891 105.3429
L64.2225 105.3429
" />
<path d="M64.2225 105.3429
L63.4891 106.6762
" />
<path d="M63.4891 106.6762
L64.2225 106.6762
" />
</g><text x="101.6000" y="147.3040"
textLength="1.8700" font-size="1.8667" lengthAdjust="spacingAndGlyphs"
text-anchor="middle" opacity="0">B</text>
<g class="stroked-text"><desc>B</desc>
<path d="M101.7000 146.1686
L101.9000 146.2639
" />
<path d="M101.9000 146.2639
L101.9667 146.3591
" />
<path d="M101.9667 146.3591
L102.0333 146.5496
" />
<path d="M102.0333 146.5496
L102.0333 146.8353
" />
<path d="M102.0333 146.8353
L101.9667 147.0258
" />
<path d="M101.9667 147.0258
L101.9000 147.1210
" />
<path d="M101.9000 147.1210
L101.7667 147.2162
" />
<path d="M101.7667 147.2162
L101.2333 147.2162
" />
<path d="M101.2333 147.2162
L101.2333 145.2162
" />
<path d="M101.2333 145.2162
L101.7000 145.2162
" />
<path d="M101.7000 145.2162
L101.8333 145.3115
" />
<path d="M101.8333 145.3115
L101.9000 145.4067
" />
<path d="M101.9000 145.4067
L101.9667 145.5972
" />
<path d="M101.9667 145.5972
L101.9667 145.7877
" />
<path d="M101.9667 145.7877
L101.9000 145.9781
" />
<path d="M101.9000 145.9781
L101.8333 146.0734
" />
<path d="M101.8333 146.0734
L101.7000 146.1686
" />
<path d="M101.7000 146.1686
L101.2333 146.1686
" />
</g><text x="57.4040" y="147.5740"
textLength="7.5367" font-size="1.8667" lengthAdjust="spacingAndGlyphs"
text-anchor="start" opacity="0">1.5kHz</text>
<g class="stroked-text"><desc>1.5kHz</desc>
<path d="M58.6351 147.3162
L57.8351 147.3162
" />
<path d="M58.2351 147.3162
L58.2351 145.3162
" />
<path d="M58.2351 145.3162
L58.1018 145.6020
" />
<path d="M58.1018 145.6020
L57.9685 145.7924
" />
<path d="M57.9685 145.7924
L57.8351 145.8877
" />
<path d="M59.2351 147.1258
L59.3018 147.2210
" />
<path d="M59.3018 147.2210
L59.2351 147.3162
" />
<path d="M59.2351 147.3162
L59.1685 147.2210
" />
<path d="M59.1685 147.2210
L59.2351 147.1258
" />
<path d="M59.2351 147.1258
L59.2351 147.3162
" />
<path d="M60.5685 145.3162
L59.9018 145.3162
" />
<path d="M59.9018 145.3162
L59.8351 146.2686
" />
<path d="M59.8351 146.2686
L59.9018 146.1734
" />
<path d="M59.9018 146.1734
L60.0351 146.0781
" />
<path d="M60.0351 146.0781
L60.3685 146.0781
" />
<path d="M60.3685 146.0781
L60.5018 146.1734
" />
<path d="M60.5018 146.1734
L60.5685 146.2686
" />
<path d="M60.5685 146.2686
L60.6351 146.4591
" />
<path d="M60.6351 146.4591
L60.6351 146.9353
" />
<path d="M60.6351 146.9353
L60.5685 147.1258
" />
<path d="M60.5685 147.1258
L60.5018 147.2210
" />
<path d="M60.5018 147.2210
L60.3685 147.3162
" />
<path d="M60.3685 147.3162
L60.0351 147.3162
" />
<path d="M60.0351 147.3162
L59.9018 147.2210
" />
<path d="M59.9018 147.2210
L59.8351 147.1258
" />
<path d="M61.2351 147.3162
L61.2351 145.3162
" />
<path d="M61.3685 146.5543
L61.7685 147.3162
" />
<path d="M61.7685 145.9829
L61.2351 146.7448
" />
<path d="M62.3685 147.3162
L62.3685 145.3162
" />
<path d="M62.3685 146.2686
L63.1685 146.2686
" />
<path d="M63.1685 147.3162
L63.1685 145.3162
" />
<path d="M63.7018 145.9829
L64.4351 145.9829
" />
<path d="M64.4351 145.9829
L63.7018 147.3162
" />
<path d="M63.7018 147.3162
L64.4351 147.3162
" />
</g><text x="77.9780" y="127.2540"
textLength="7.0700" font-size="1.8667" lengthAdjust="spacingAndGlyphs"
text-anchor="start" opacity="0">777Hz</text>
<g class="stroked-text"><desc>777Hz</desc>
<path d="M78.3425 124.9962
L79.2758 124.9962
" />
<path d="M79.2758 124.9962
L78.6758 126.9962
" />
<path d="M79.6758 124.9962
L80.6091 124.9962
" />
<path d="M80.6091 124.9962
L80.0091 126.9962
" />
<path d="M81.0091 124.9962
L81.9425 124.9962
" />
<path d="M81.9425 124.9962
L81.3425 126.9962
" />
<path d="M82.4758 126.9962
L82.4758 124.9962
" />
<path d="M82.4758 125.9486
L83.2758 125.9486
" />
<path d="M83.2758 126.9962
L83.2758 124.9962
" />
<path d="M83.8091 125.6629
L84.5425 125.6629
" />
<path d="M84.5425 125.6629
L83.8091 126.9962
" />
<path d="M83.8091 126.9962
L84.5425 126.9962
" />
</g><text x="57.6580" y="127.2540"
textLength="7.0700" font-size="1.8667" lengthAdjust="spacingAndGlyphs"
text-anchor="start" opacity="0">411Hz</text>
<g class="stroked-text"><desc>411Hz</desc>
<path d="M58.7558 125.6629
L58.7558 126.9962
" />
<path d="M58.4225 124.9010
L58.0891 126.3296
" />
<path d="M58.0891 126.3296
L58.9558 126.3296
" />
<path d="M60.2225 126.9962
L59.4225 126.9962
" />
<path d="M59.8225 126.9962
L59.8225 124.9962
" />
<path d="M59.8225 124.9962
L59.6891 125.2820
" />
<path d="M59.6891 125.2820
L59.5558 125.4724
" />
<path d="M59.5558 125.4724
L59.4225 125.5677
" />
<path d="M61.5558 126.9962
L60.7558 126.9962
" />
<path d="M61.1558 126.9962
L61.1558 124.9962
" />
<path d="M61.1558 124.9962
L61.0225 125.2820
" />
<path d="M61.0225 125.2820
L60.8891 125.4724
" />
<path d="M60.8891 125.4724
L60.7558 125.5677
" />
<path d="M62.1558 126.9962
L62.1558 124.9962
" />
<path d="M62.1558 125.9486
L62.9558 125.9486
" />
<path d="M62.9558 126.9962
L62.9558 124.9962
" />
<path d="M63.4891 125.6629
L64.2225 125.6629
" />
<path d="M64.2225 125.6629
L63.4891 126.9962
" />
<path d="M63.4891 126.9962
L64.2225 126.9962
" />
</g><text x="101.6000" y="86.3440"
textLength="2.6033" font-size="1.8667" lengthAdjust="spacingAndGlyphs"
text-anchor="middle" opacity="0">IN</text>
<g class="stroked-text"><desc>IN</desc>
<path d="M100.8667 86.2562
L100.8667 84.2562
" />
<path d="M101.5333 86.2562
L101.5333 84.2562
" />
<path d="M101.5333 84.2562
L102.3333 86.2562
" />
<path d="M102.3333 86.2562
L102.3333 84.2562
" />
</g><text x="77.7240" y="147.5740"
textLength="7.5367" font-size="1.8667" lengthAdjust="spacingAndGlyphs"
text-anchor="start" opacity="0">2.8kHz</text>
<g class="stroked-text"><desc>2.8kHz</desc>
<path d="M78.1551 145.5067
L78.2218 145.4115
" />
<path d="M78.2218 145.4115
L78.3551 145.3162
" />
<path d="M78.3551 145.3162
L78.6885 145.3162
" />
<path d="M78.6885 145.3162
L78.8218 145.4115
" />
<path d="M78.8218 145.4115
L78.8885 145.5067
" />
<path d="M78.8885 145.5067
L78.9551 145.6972
" />
<path d="M78.9551 145.6972
L78.9551 145.8877
" />
<path d="M78.9551 145.8877
L78.8885 146.1734
" />
<path d="M78.8885 146.1734
L78.0885 147.3162
" />
<path d="M78.0885 147.3162
L78.9551 147.3162
" />
<path d="M79.5551 147.1258
L79.6218 147.2210
" />
<path d="M79.6218 147.2210
L79.5551 147.3162
" />
<path d="M79.5551 147.3162
L79.4885 147.2210
" />
<path d="M79.4885 147.2210
L79.5551 147.1258
" />
<path d="M79.5551 147.1258
L79.5551 147.3162
" />
<path d="M80.4218 146.1734
L80.2885 146.0781
" />
<path d="M80.2885 146.0781
L80.2218 145.9829
" />
<path d="M80.2218 145.9829
L80.1551 145.7924
" />
<path d="M80.1551 145.7924
L80.1551 145.6972
" />
<path d="M80.1551 145.6972
L80.2218 145.5067
" />
<path d="M80.2218 145.5067
L80.2885 145.4115
" />
<path d="M80.2885 145.4115
L80.4218 145.3162
" />
<path d="M80.4218 145.3162
L80.6885 145.3162
" />
<path d="M80.6885 145.3162
L80.8218 145.4115
" />
<path d="M80.8218 145.4115
L80.8885 145.5067
" />
<path d="M80.8885 145.5067
L80.9551 145.6972
" />
<path d="M80.9551 145.6972
L80.9551 145.7924
" />
<path d="M80.9551 145.7924
L80.8885 145.9829
" />
<path d="M80.8885 145.9829
L80.8218 146.0781
" />
<path d="M80.8218 146.0781
L80.6885 146.1734
" />
<path d="M80.6885 146.1734
L80.4218 146.1734
" />
<path d="M80.4218 146.1734
L80.2885 146.2686
" />
<path d="M80.2885 146.2686
L80.2218 146.3639
" />
<path d="M80.2218 146.3639
L80.1551 146.5543
" />
<path d="M80.1551 146.5543
L80.1551 146.9353
" />
<path d="M80.1551 146.9353
L80.2218 147.1258
" />
<path d="M80.2218 147.1258
L80.2885 147.2210
" />
<path d="M80.2885 147.2210
L80.4218 147.3162
" />
<path d="M80.4218 147.3162
L80.6885 147.3162
" />
<path d="M80.6885 147.3162
L80.8218 147.2210
" />
<path d="M80.8218 147.2210
L80.8885 147.1258
" />
<path d="M80.8885 147.1258
L80.9551 146.9353
" />
<path d="M80.9551 146.9353
L80.9551 146.5543
" />
<path d="M80.9551 146.5543
L80.8885 146.3639
" />
<path d="M80.8885 146.3639
L80.8218 146.2686
" />
<path d="M80.8218 146.2686
L80.6885 146.1734
" />
<path d="M81.5551 147.3162
L81.5551 145.3162
" />
<path d="M81.6885 146.5543
L82.0885 147.3162
" />
<path d="M82.0885 145.9829
L81.5551 146.7448
" />
<path d="M82.6885 147.3162
L82.6885 145.3162
" />
<path d="M82.6885 146.2686
L83.4885 146.2686
" />
<path d="M83.4885 147.3162
L83.4885 145.3162
" />
<path d="M84.0218 145.9829
L84.7551 145.9829
" />
<path d="M84.7551 145.9829
L84.0218 147.3162
" />
<path d="M84.0218 147.3162
L84.7551 147.3162
" />
</g><text x="58.4200" y="86.6140"
textLength="5.7367" font-size="1.8667" lengthAdjust="spacingAndGlyphs"
text-anchor="start" opacity="0">29Hz</text>
<g class="stroked-text"><desc>29Hz</desc>
<path d="M58.8511 84.5467
L58.9178 84.4515
" />
<path d="M58.9178 84.4515
L59.0511 84.3562
" />
<path d="M59.0511 84.3562
L59.3845 84.3562
" />
<path d="M59.3845 84.3562
L59.5178 84.4515
" />
<path d="M59.5178 84.4515
L59.5845 84.5467
" />
<path d="M59.5845 84.5467
L59.6511 84.7372
" />
<path d="M59.6511 84.7372
L59.6511 84.9277
" />
<path d="M59.6511 84.9277
L59.5845 85.2134
" />
<path d="M59.5845 85.2134
L58.7845 86.3562
" />
<path d="M58.7845 86.3562
L59.6511 86.3562
" />
<path d="M60.3178 86.3562
L60.5845 86.3562
" />
<path d="M60.5845 86.3562
L60.7178 86.2610
" />
<path d="M60.7178 86.2610
L60.7845 86.1658
" />
<path d="M60.7845 86.1658
L60.9178 85.8800
" />
<path d="M60.9178 85.8800
L60.9845 85.4991
" />
<path d="M60.9845 85.4991
L60.9845 84.7372
" />
<path d="M60.9845 84.7372
L60.9178 84.5467
" />
<path d="M60.9178 84.5467
L60.8511 84.4515
" />
<path d="M60.8511 84.4515
L60.7178 84.3562
" />
<path d="M60.7178 84.3562
L60.4511 84.3562
" />
<path d="M60.4511 84.3562
L60.3178 84.4515
" />
<path d="M60.3178 84.4515
L60.2511 84.5467
" />
<path d="M60.2511 84.5467
L60.1845 84.7372
" />
<path d="M60.1845 84.7372
L60.1845 85.2134
" />
<path d="M60.1845 85.2134
L60.2511 85.4039
" />
<path d="M60.2511 85.4039
L60.3178 85.4991
" />
<path d="M60.3178 85.4991
L60.4511 85.5943
" />
<path d="M60.4511 85.5943
L60.7178 85.5943
" />
<path d="M60.7178 85.5943
L60.8511 85.4991
" />
<path d="M60.8511 85.4991
L60.9178 85.4039
" />
<path d="M60.9178 85.4039
L60.9845 85.2134
" />
<path d="M61.5845 86.3562
L61.5845 84.3562
" />
<path d="M61.5845 85.3086
L62.3845 85.3086
" />
<path d="M62.3845 86.3562
L62.3845 84.3562
" />
<path d="M62.9178 85.0229
L63.6511 85.0229
" />
<path d="M63.6511 85.0229
L62.9178 86.3562
" />
<path d="M62.9178 86.3562
L63.6511 86.3562
" />
</g><text x="77.9780" y="167.8940"
textLength="6.8700" font-size="1.8667" lengthAdjust="spacingAndGlyphs"
text-anchor="start" opacity="0">11kHz</text>
<g class="stroked-text"><desc>11kHz</desc>
<path d="M79.2091 167.6362
L78.4091 167.6362
" />
<path d="M78.8091 167.6362
L78.8091 165.6362
" />
<path d="M78.8091 165.6362
L78.6758 165.9220
" />
<path d="M78.6758 165.9220
L78.5425 166.1124
" />
<path d="M78.5425 166.1124
L78.4091 166.2077
" />
<path d="M80.5425 167.6362
L79.7425 167.6362
" />
<path d="M80.1425 167.6362
L80.1425 165.6362
" />
<path d="M80.1425 165.6362
L80.0091 165.9220
" />
<path d="M80.0091 165.9220
L79.8758 166.1124
" />
<path d="M79.8758 166.1124
L79.7425 166.2077
" />
<path d="M81.1425 167.6362
L81.1425 165.6362
" />
<path d="M81.2758 166.8743
L81.6758 167.6362
" />
<path d="M81.6758 166.3029
L81.1425 167.0648
" />
<path d="M82.2758 167.6362
L82.2758 165.6362
" />
<path d="M82.2758 166.5886
L83.0758 166.5886
" />
<path d="M83.0758 167.6362
L83.0758 165.6362
" />
<path d="M83.6091 166.3029
L84.3425 166.3029
" />
<path d="M84.3425 166.3029
L83.6091 167.6362
" />
<path d="M83.6091 167.6362
L84.3425 167.6362
" />
</g><text x="77.9780" y="106.9340"
textLength="7.0700" font-size="1.8667" lengthAdjust="spacingAndGlyphs"
text-anchor="start" opacity="0">218Hz</text>
<g class="stroked-text"><desc>218Hz</desc>
<path d="M78.4091 104.8667
L78.4758 104.7715
" />
<path d="M78.4758 104.7715
L78.6091 104.6762
" />
<path d="M78.6091 104.6762
L78.9425 104.6762
" />
<path d="M78.9425 104.6762
L79.0758 104.7715
" />
<path d="M79.0758 104.7715
L79.1425 104.8667
" />
<path d="M79.1425 104.8667
L79.2091 105.0572
" />
<path d="M79.2091 105.0572
L79.2091 105.2477
" />
<path d="M79.2091 105.2477
L79.1425 105.5334
" />
<path d="M79.1425 105.5334
L78.3425 106.6762
" />
<path d="M78.3425 106.6762
L79.2091 106.6762
" />
<path d="M80.5425 106.6762
L79.7425 106.6762
" />
<path d="M80.1425 106.6762
L80.1425 104.6762
" />
<path d="M80.1425 104.6762
L80.0091 104.9620
" />
<path d="M80.0091 104.9620
L79.8758 105.1524
" />
<path d="M79.8758 105.1524
L79.7425 105.2477
" />
<path d="M81.3425 105.5334
L81.2091 105.4381
" />
<path d="M81.2091 105.4381
L81.1425 105.3429
" />
<path d="M81.1425 105.3429
L81.0758 105.1524
" />
<path d="M81.0758 105.1524
L81.0758 105.0572
" />
<path d="M81.0758 105.0572
L81.1425 104.8667
" />
<path d="M81.1425 104.8667
L81.2091 104.7715
" />
<path d="M81.2091 104.7715
L81.3425 104.6762
" />
<path d="M81.3425 104.6762
L81.6091 104.6762
" />
<path d="M81.6091 104.6762
L81.7425 104.7715
" />
<path d="M81.7425 104.7715
L81.8091 104.8667
" />
<path d="M81.8091 104.8667
L81.8758 105.0572
" />
<path d="M81.8758 105.0572
L81.8758 105.1524
" />
<path d="M81.8758 105.1524
L81.8091 105.3429
" />
<path d="M81.8091 105.3429
L81.7425 105.4381
" />
<path d="M81.7425 105.4381
L81.6091 105.5334
" />
<path d="M81.6091 105.5334
L81.3425 105.5334
" />
<path d="M81.3425 105.5334
L81.2091 105.6286
" />
<path d="M81.2091 105.6286
L81.1425 105.7239
" />
<path d="M81.1425 105.7239
L81.0758 105.9143
" />
<path d="M81.0758 105.9143
L81.0758 106.2953
" />
<path d="M81.0758 106.2953
L81.1425 106.4858
" />
<path d="M81.1425 106.4858
L81.2091 106.5810
" />
<path d="M81.2091 106.5810
L81.3425 106.6762
" />
<path d="M81.3425 106.6762
L81.6091 106.6762
" />
<path d="M81.6091 106.6762
L81.7425 106.5810
" />
<path d="M81.7425 106.5810
L81.8091 106.4858
" />
<path d="M81.8091 106.4858
L81.8758 106.2953
" />
<path d="M81.8758 106.2953
L81.8758 105.9143
" />
<path d="M81.8758 105.9143
L81.8091 105.7239
" />
<path d="M81.8091 105.7239
L81.7425 105.6286
" />
<path d="M81.7425 105.6286
L81.6091 105.5334
" />
<path d="M82.4758 106.6762
L82.4758 104.6762
" />
<path d="M82.4758 105.6286
L83.2758 105.6286
" />
<path d="M83.2758 106.6762
L83.2758 104.6762
" />
<path d="M83.8091 105.3429
L84.5425 105.3429
" />
<path d="M84.5425 105.3429
L83.8091 106.6762
" />
<path d="M83.8091 106.6762
L84.5425 106.6762
" />
</g><text x="101.6000" y="167.6240"
textLength="4.4700" font-size="1.8667" lengthAdjust="spacingAndGlyphs"
text-anchor="middle" opacity="0">OUT</text>
<g class="stroked-text"><desc>OUT</desc>
<path d="M100.2000 165.5362
L100.4667 165.5362
" />
<path d="M100.4667 165.5362
L100.6000 165.6315
" />
<path d="M100.6000 165.6315
L100.7333 165.8220
" />
<path d="M100.7333 165.8220
L100.8000 166.2029
" />
<path d="M100.8000 166.2029
L100.8000 166.8696
" />
<path d="M100.8000 166.8696
L100.7333 167.2505
" />
<path d="M100.7333 167.2505
L100.6000 167.4410
" />
<path d="M100.6000 167.4410
L100.4667 167.5362
" />
<path d="M100.4667 167.5362
L100.2000 167.5362
" />
<path d="M100.2000 167.5362
L100.0667 167.4410
" />
<path d="M100.0667 167.4410
L99.9333 167.2505
" />
<path d="M99.9333 167.2505
L99.8667 166.8696
" />
<path d="M99.8667 166.8696
L99.8667 166.2029
" />
<path d="M99.8667 166.2029
L99.9333 165.8220
" />
<path d="M99.9333 165.8220
L100.0667 165.6315
" />
<path d="M100.0667 165.6315
L100.2000 165.5362
" />
<path d="M101.4000 165.5362
L101.4000 167.1553
" />
<path d="M101.4000 167.1553
L101.4667 167.3458
" />
<path d="M101.4667 167.3458
L101.5333 167.4410
" />
<path d="M101.5333 167.4410
L101.6667 167.5362
" />
<path d="M101.6667 167.5362
L101.9333 167.5362
" />
<path d="M101.9333 167.5362
L102.0667 167.4410
" />
<path d="M102.0667 167.4410
L102.1333 167.3458
" />
<path d="M102.1333 167.3458
L102.2000 167.1553
" />
<path d="M102.2000 167.1553
L102.2000 165.5362
" />
<path d="M102.6667 165.5362
L103.4667 165.5362
" />
<path d="M103.0667 167.5362
L103.0667 165.5362
" />
</g><g >
</g>
<g style="fill:#000000; fill-opacity:1.0000; 
stroke:#000000; stroke-width:0.0000; stroke-opacity:1; 
stroke-linecap:round; stroke-linejoin:round;">
<circle cx="101.6000" cy="53.8000" r="1.8000" /> 
</g>
<g style="fill:#000000; fill-opacity:1.0000; 
stroke:#000000; stroke-width:0.0212; stroke-opacity:1; 
stroke-linecap:round; stroke-linejoin:round;">
</g>
<g style="fill:#000000; fill-opacity:1.0000; 
stroke:#000000; stroke-width:0.0000; stroke-opacity:1; 
stroke-linecap:round; stroke-linejoin:round;">
<circle cx="101.6000" cy="53.8000" r="2.5000" /> 
</g>
<g style="fill:#000000; fill-opacity:1.0000; 
stroke:#000000; stroke-width:0.0212; stroke-opacity:1; 
stroke-linecap:round; stroke-linejoin:round;">
</g>
<g >
</g>
<g style="fill:#000000; fill-opacity:1.0000; 
stroke:#000000; stroke-width:0.0212; stroke-opacity:1; 
stroke-linecap:round; stroke-linejoin:round;">
</g>
<g style="fill:#000000; fill-opacity:1.0000; 
stroke:#000000; stroke-width:0.0000; stroke-opacity:1; 
stroke-linecap:round; stroke-linejoin:round;">
<circle cx="101.6000" cy="176.3000" r="1.8000" /> 
</g>
<g style="fill:#000000; fill-opacity:1.0000; 
stroke:#000000; stroke-width:0.0212; stroke-opacity:1; 
stroke-linecap:round; stroke-linejoin:round;">
</g>
<g style="fill:#000000; fill-opacity:1.0000; 
stroke:#000000; stroke-width:0.0000; stroke-opacity:1; 
stroke-linecap:round; stroke-linejoin:round;">
<circle cx="101.6000" cy="176.3000" r="2.5000" /> 
</g>
<g style="fill:#000000; fill-opacity:1.0000; 
stroke:#000000; stroke-width:0.0212; stroke-opacity:1; 
stroke-linecap:round; stroke-linejoin:round;">
</g>
<g >
</g>
<g style="fill:#000000; fill-opacity:1.0000; 
stroke:#000000; stroke-width:0.0212; stroke-opacity:1; 
stroke-linecap:round; stroke-linejoin:round;">
</g>
<g style="fill:#000000; fill-opacity:1.0000; 
stroke:#000000; stroke-width:0.0000; stroke-opacity:1; 
stroke-linecap:round; stroke-linejoin:round;">
<circle cx="58.3000" cy="176.3000" r="1.8000" /> 
</g>
<g style="fill:#000000; fill-opacity:1.0000; 
stroke:#000000; stroke-width:0.0212; stroke-opacity:1; 
stroke-linecap:round; stroke-linejoin:round;">
</g>
<g style="fill:#000000; fill-opacity:1.0000; 
stroke:#000000; stroke-width:0.0000; stroke-opacity:1; 
stroke-linecap:round; stroke-linejoin:round;">
<circle cx="58.3000" cy="176.3000" r="2.5000" /> 
</g>
<g style="fill:#000000; fill-opacity:1.0000; 
stroke:#000000; stroke-width:0.0212; stroke-opacity:1; 
stroke-linecap:round; stroke-linejoin:round;">
</g>
<g >
</g>
<g style="fill:#000000; fill-opacity:1.0000; 
stroke:#000000; stroke-width:0.0212; stroke-opacity:1; 
stroke-linecap:round; stroke-linejoin:round;">
</g>
<g style="fill:#000000; fill-opacity:1.0000; 
stroke:#000000; stroke-width:0.0000; stroke-opacity:1; 
stroke-linecap:round; stroke-linejoin:round;">
<circle cx="58.3000" cy="53.8000" r="1.8000" /> 
</g>
<g style="fill:#000000; fill-opacity:1.0000; 
stroke:#000000; stroke-width:0.0212; stroke-opacity:1; 
stroke-linecap:round; stroke-linejoin:round;">
</g>
<g style="fill:#000000; fill-opacity:1.0000; 
stroke:#000000; stroke-width:0.0000; stroke-opacity:1; 
stroke-linecap:round; stroke-linejoin:round;">
<circle cx="58.3000" cy="53.8000" r="2.5000" /> 
</g>
<g style="fill:#000000; fill-opacity:1.0000; 
stroke:#000000; stroke-width:0.0212; stroke-opacity:1; 
stroke-linecap:round; stroke-linejoin:round;">
</g>
<g >
</g>
<g style="fill:#000000; fill-opacity:1.0000; 
stroke:#000000; stroke-width:0.0212; stroke-opacity:1; 
stroke-linecap:round; stroke-linejoin:round;">
</g>
<g style="fill:#000000; fill-opacity:1.0000; 
stroke:#000000; stroke-width:0.0000; stroke-opacity:1; 
stroke-linecap:round; stroke-linejoin:round;">
<circle cx="60.9600" cy="96.5200" r="3.7000" /> 
</g>
<g style="fill:#000000; fill-opacity:1.0000; 
stroke:#000000; stroke-width:0.0212; stroke-opacity:1; 
stroke-linecap:round; stroke-linejoin:round;">
</g>
<g >
</g>
<g style="fill:#000000; fill-opacity:1.0000; 
stroke:#000000; stroke-width:0.0212; stroke-opacity:1; 
stroke-linecap:round; stroke-linejoin:round;">
</g>
<g style="fill:#000000; fill-opacity:1.0000; 
stroke:#000000; stroke-width:0.0000; stroke-opacity:1; 
stroke-linecap:round; stroke-linejoin:round;">
<circle cx="60.9600" cy="116.8400" r="3.7000" /> 
</g>
<g style="fill:#000000; fill-opacity:1.0000; 
stroke:#000000; stroke-width:0.0212; stroke-opacity:1; 
stroke-linecap:round; stroke-linejoin:round;">
</g>
<g >
</g>
<g style="fill:#000000; fill-opacity:1.0000; 
stroke:#000000; stroke-width:0.0212; stroke-opacity:1; 
stroke-linecap:round; stroke-linejoin:round;">
</g>
<g style="fill:#000000; fill-opacity:1.0000; 
stroke:#000000; stroke-width:0.0000; stroke-opacity:1; 
stroke-linecap:round; stroke-linejoin:round;">
<circle cx="60.9600" cy="137.1600" r="3.7000" /> 
</g>
<g style="fill:#000000; fill-opacity:1.0000; 
stroke:#000000; stroke-width:0.0212; stroke-opacity:1; 
stroke-linecap:round; stroke-linejoin:round;">
</g>
<g >
</g>
<g style="fill:#000000; fill-opacity:1.0000; 
stroke:#000000; stroke-width:0.0212; stroke-opacity:1; 
stroke-linecap:round; stroke-linejoin:round;">
</g>
<g style="fill:#000000; fill-opacity:1.0000; 
stroke:#000000; stroke-width:0.0000; stroke-opacity:1; 
stroke-linecap:round; stroke-linejoin:round;">
<circle cx="101.6000" cy="76.2000" r="3.2000" /> 
</g>
<g style="fill:#000000; fill-opacity:1.0000; 
stroke:#000000; stroke-width:0.0212; stroke-opacity:1; 
stroke-linecap:round; stroke-linejoin:round;">
</g>
<g >
</g>
<g style="fill:#000000; fill-opacity:1.0000; 
stroke:#000000; stroke-width:0.0212; stroke-opacity:1; 
stroke-linecap:round; stroke-linejoin:round;">
</g>
<g style="fill:#000000; fill-opacity:1.0000; 
stroke:#000000; stroke-width:0.0000; stroke-opacity:1; 
stroke-linecap:round; stroke-linejoin:round;">
<circle cx="60.9600" cy="76.2000" r="3.7000" /> 
</g>
<g style="fill:#000000; fill-opacity:1.0000; 
stroke:#000000; stroke-width:0.0212; stroke-opacity:1; 
stroke-linecap:round; stroke-linejoin:round;">
</g>
<g >
</g>
<g style="fill:#000000; fill-opacity:1.0000; 
stroke:#000000; stroke-width:0.0212; stroke-opacity:1; 
stroke-linecap:round; stroke-linejoin:round;">
</g>
<g style="fill:#000000; fill-opacity:1.0000; 
stroke:#000000; stroke-width:0.0000; stroke-opacity:1; 
stroke-linecap:round; stroke-linejoin:round;">
<circle cx="60.9600" cy="157.4800" r="3.7000" /> 
</g>
<g style="fill:#000000; fill-opacity:1.0000; 
stroke:#000000; stroke-width:0.0212; stroke-opacity:1; 
stroke-linecap:round; stroke-linejoin:round;">
</g>
<g >
</g>
<g style="fill:#000000; fill-opacity:1.0000; 
stroke:#000000; stroke-width:0.0212; stroke-opacity:1; 
stroke-linecap:round; stroke-linejoin:round;">
</g>
<g style="fill:#000000; fill-opacity:1.0000; 
stroke:#000000; stroke-width:0.0000; stroke-opacity:1; 
stroke-linecap:round; stroke-linejoin:round;">
<circle cx="81.2800" cy="76.2000" r="3.7000" /> 
</g>
<g style="fill:#000000; fill-opacity:1.0000; 
stroke:#000000; stroke-width:0.0212; stroke-opacity:1; 
stroke-linecap:round; stroke-linejoin:round;">
</g>
<g >
</g>
<g style="fill:#000000; fill-opacity:1.0000; 
stroke:#000000; stroke-width:0.0212; stroke-opacity:1; 
stroke-linecap:round; stroke-linejoin:round;">
</g>
<g style="fill:#000000; fill-opacity:1.0000; 
stroke:#000000; stroke-width:0.0000; stroke-opacity:1; 
stroke-linecap:round; stroke-linejoin:round;">
<circle cx="81.2800" cy="96.5200" r="3.7000" /> 
</g>
<g style="fill:#000000; fill-opacity:1.0000; 
stroke:#000000; stroke-width:0.0212; stroke-opacity:1; 
stroke-linecap:round; stroke-linejoin:round;">
</g>
<g >
</g>
<g style="fill:#000000; fill-opacity:1.0000; 
stroke:#000000; stroke-width:0.0212; stroke-opacity:1; 
stroke-linecap:round; stroke-linejoin:round;">
</g>
<g style="fill:#000000; fill-opacity:1.0000; 
stroke:#000000; stroke-width:0.0000; stroke-opacity:1; 
stroke-linecap:round; stroke-linejoin:round;">
<circle cx="81.2800" cy="116.8400" r="3.7000" /> 
</g>
<g style="fill:#000000; fill-opacity:1.0000; 
stroke:#000000; stroke-width:0.0212; stroke-opacity:1; 
stroke-linecap:round; stroke-linejoin:round;">
</g>
<g >
</g>
<g style="fill:#000000; fill-opacity:1.0000; 
stroke:#000000; stroke-width:0.0212; stroke-opacity:1; 
stroke-linecap:round; stroke-linejoin:round;">
</g>
<g style="fill:#000000; fill-opacity:1.0000; 
stroke:#000000; stroke-width:0.0000; stroke-opacity:1; 
stroke-linecap:round; stroke-linejoin:round;">
<circle cx="81.2800" cy="137.1600" r="3.7000" /> 
</g>
<g style="fill:#000000; fill-opacity:1.0000; 
stroke:#000000; stroke-width:0.0212; stroke-opacity:1; 
stroke-linecap:round; stroke-linejoin:round;">
</g>
<g >
</g>
<g style="fill:#000000; fill-opacity:1.0000; 
stroke:#000000; stroke-width:0.0212; stroke-opacity:1; 
stroke-linecap:round; stroke-linejoin:round;">
</g>
<g style="fill:#000000; fill-opacity:1.0000; 
stroke:#000000; stroke-width:0.0000; stroke-opacity:1; 
stroke-linecap:round; stroke-linejoin:round;">
<circle cx="81.2800" cy="157.4800" r="3.7000" /> 
</g>
<g style="fill:#000000; fill-opacity:1.0000; 
stroke:#000000; stroke-width:0.0212; stroke-opacity:1; 
stroke-linecap:round; stroke-linejoin:round;">
</g>
<g >
</g>
<g style="fill:#000000; fill-opacity:1.0000; 
stroke:#000000; stroke-width:0.0212; stroke-opacity:1; 
stroke-linecap:round; stroke-linejoin:round;">
</g>
<g style="fill:#000000; fill-opacity:1.0000; 
stroke:#000000; stroke-width:0.0000; stroke-opacity:1; 
stroke-linecap:round; stroke-linejoin:round;">
<circle cx="101.6000" cy="116.8400" r="3.2000" /> 
</g>
<g style="fill:#000000; fill-opacity:1.0000; 
stroke:#000000; stroke-width:0.0212; stroke-opacity:1; 
stroke-linecap:round; stroke-linejoin:round;">
</g>
<g >
</g>
<g style="fill:#000000; fill-opacity:1.0000; 
stroke:#000000; stroke-width:0.0212; stroke-opacity:1; 
stroke-linecap:round; stroke-linejoin:round;">
</g>
<g style="fill:#000000; fill-opacity:1.0000; 
stroke:#000000; stroke-width:0.0000; stroke-opacity:1; 
stroke-linecap:round; stroke-linejoin:round;">
<circle cx="101.6000" cy="137.1600" r="3.2000" /> 
</g>
<g style="fill:#000000; fill-opacity:1.0000; 
stroke:#000000; stroke-width:0.0212; stroke-opacity:1; 
stroke-linecap:round; stroke-linejoin:round;">
</g>
<g >
</g>
<g style="fill:#000000; fill-opacity:1.0000; 
stroke:#000000; stroke-width:0.0212; stroke-opacity:1; 
stroke-linecap:round; stroke-linejoin:round;">
</g>
<g style="fill:#000000; fill-opacity:1.0000; 
stroke:#000000; stroke-width:0.0000; stroke-opacity:1; 
stroke-linecap:round; stroke-linejoin:round;">
<circle cx="101.6000" cy="157.4800" r="3.2000" /> 
</g>
<g style="fill:#000000; fill-opacity:1.0000; 
stroke:#000000; stroke-width:0.0212; stroke-opacity:1; 
stroke-linecap:round; stroke-linejoin:round;">
</g>
<g >
</g>
<g style="fill:#000000; fill-opacity:1.0000; 
stroke:#000000; stroke-width:0.0212; stroke-opacity:1; 
stroke-linecap:round; stroke-linejoin:round;">
</g>
<g style="fill:#000000; fill-opacity:1.0000; 
stroke:#000000; stroke-width:0.0000; stroke-opacity:1; 
stroke-linecap:round; stroke-linejoin:round;">
<circle cx="101.6000" cy="96.5200" r="3.7000" /> 
</g>
<g style="fill:#000000; fill-opacity:1.0000; 
stroke:#000000; stroke-width:0.0212; stroke-opacity:1; 
stroke-linecap:round; stroke-linejoin:round;">
</g>
<g >
</g>
<g >
</g>
<g >
</g>
</g> 
</svg>
