<?xml version="1.0" standalone="no"?>
 <!DOCTYPE svg PUBLIC "-//W3C//DTD SVG 1.1//EN" 
 "http://www.w3.org/Graphics/SVG/1.1/DTD/svg11.dtd"> 
<svg
  xmlns:svg="http://www.w3.org/2000/svg"
  xmlns="http://www.w3.org/2000/svg"
  xmlns:xlink="http://www.w3.org/1999/xlink"
  version="1.1"
  width="297.0022mm" height="210.0072mm" viewBox="0.0000 0.0000 297.0022 210.0072">
<title>SVG Image created as main-F_CrtYd.svg date 2023/11/06 17:26:33 </title>
  <desc>Image generated by PCBNEW </desc>
<g style="fill:#000000; fill-opacity:1.0000;stroke:#000000; stroke-opacity:1.0000;
stroke-linecap:round; stroke-linejoin:round;"
 transform="translate(0 0) scale(1 1)">
</g>
<g style="fill:#000000; fill-opacity:0.0; 
stroke:#000000; stroke-width:0.0000; stroke-opacity:1; 
stroke-linecap:round; stroke-linejoin:round;">
</g>
<g style="fill:#000000; fill-opacity:0.0; 
stroke:#000000; stroke-width:0.0500; stroke-opacity:1; 
stroke-linecap:round; stroke-linejoin:round;">
<path d="M91.0560 42.1520
L81.1560 42.1520
" />
<path d="M91.0560 63.5120
L91.0560 42.1520
" />
<path d="M81.1560 42.1520
L81.1560 63.5120
" />
<path d="M81.1560 63.5120
L91.0560 63.5120
" />
<path d="M107.1080 56.2840
L97.1080 56.2840
" />
<path d="M97.1080 56.2840
L97.1080 41.8840
" />
<path d="M107.1080 56.2840
L107.1080 41.8840
" />
<path d="M107.1080 41.8840
L97.1080 41.8840
" />
<path d="M87.9180 69.6300
L87.9180 65.0900
" />
<path d="M87.9180 65.0900
L85.8180 65.0900
" />
<path d="M85.8180 69.6300
L87.9180 69.6300
" />
<path d="M85.8180 65.0900
L85.8180 69.6300
" />
<path d="M83.8540 65.0900
L81.7540 65.0900
" />
<path d="M83.8540 69.6300
L83.8540 65.0900
" />
<path d="M81.7540 65.0900
L81.7540 69.6300
" />
<path d="M81.7540 69.6300
L83.8540 69.6300
" />
<path d="M118.6240 75.1540
L118.6240 77.7540
" />
<path d="M123.2240 75.1540
L118.6240 75.1540
" />
<path d="M123.2240 77.7540
L123.2240 75.1540
" />
<path d="M118.6240 77.7540
L123.2240 77.7540
" />
<path d="M124.6800 89.3780
L124.6800 91.9780
" />
<path d="M129.2800 89.3780
L124.6800 89.3780
" />
<path d="M124.6800 91.9780
L129.2800 91.9780
" />
<path d="M129.2800 91.9780
L129.2800 89.3780
" />
<path d="M174.2100 75.7220
L178.8100 75.7220
" />
<path d="M178.8100 73.1220
L174.2100 73.1220
" />
<path d="M178.8100 75.7220
L178.8100 73.1220
" />
<path d="M174.2100 73.1220
L174.2100 75.7220
" />
<path d="M184.3980 87.3460
L179.7980 87.3460
" />
<path d="M179.7980 87.3460
L179.7980 89.9460
" />
<path d="M184.3980 89.9460
L184.3980 87.3460
" />
<path d="M179.7980 89.9460
L184.3980 89.9460
" />
<path d="M112.8560 56.2840
L112.8560 41.8840
" />
<path d="M122.8560 56.2840
L112.8560 56.2840
" />
<path d="M122.8560 56.2840
L122.8560 41.8840
" />
<path d="M122.8560 41.8840
L112.8560 41.8840
" />
<path d="M170.1000 56.2840
L170.1000 41.8840
" />
<path d="M160.1000 56.2840
L160.1000 41.8840
" />
<path d="M170.1000 56.2840
L160.1000 56.2840
" />
<path d="M170.1000 41.8840
L160.1000 41.8840
" />
<path d="M138.6040 56.2840
L138.6040 41.8840
" />
<path d="M128.6040 56.2840
L128.6040 41.8840
" />
<path d="M138.6040 56.2840
L128.6040 56.2840
" />
<path d="M138.6040 41.8840
L128.6040 41.8840
" />
<path d="M154.3520 56.2840
L144.3520 56.2840
" />
<path d="M144.3520 56.2840
L144.3520 41.8840
" />
<path d="M154.3520 56.2840
L154.3520 41.8840
" />
<path d="M154.3520 41.8840
L144.3520 41.8840
" />
<path d="M185.8480 56.2840
L175.8480 56.2840
" />
<path d="M175.8480 56.2840
L175.8480 41.8840
" />
<path d="M185.8480 56.2840
L185.8480 41.8840
" />
<path d="M185.8480 41.8840
L175.8480 41.8840
" />
<path d="M157.2040 85.3720
L163.3040 85.3720
" />
<path d="M163.3040 85.3720
L163.3040 88.9220
" />
<path d="M157.2040 88.9220
L157.2040 85.3720
" />
<path d="M163.3040 88.9220
L157.2040 88.9220
" />
<path d="M186.6680 85.3720
L197.8680 85.3720
" />
<path d="M197.8680 85.3720
L197.8680 88.9220
" />
<path d="M197.8680 88.9220
L186.6680 88.9220
" />
<path d="M186.6680 88.9220
L186.6680 85.3720
" />
<path d="M93.9980 76.9400
L100.0980 76.9400
" />
<path d="M100.0980 80.4900
L93.9980 80.4900
" />
<path d="M100.0980 76.9400
L100.0980 80.4900
" />
<path d="M93.9980 80.4900
L93.9980 76.9400
" />
<path d="M100.0980 83.2900
L100.0980 86.8400
" />
<path d="M100.0980 86.8400
L93.9980 86.8400
" />
<path d="M93.9980 86.8400
L93.9980 83.2900
" />
<path d="M93.9980 83.2900
L100.0980 83.2900
" />
<path d="M153.3980 80.0320
L147.2980 80.0320
" />
<path d="M147.2980 80.0320
L147.2980 76.4820
" />
<path d="M147.2980 76.4820
L153.3980 76.4820
" />
<path d="M153.3980 76.4820
L153.3980 80.0320
" />
<path d="M147.2980 83.3400
L153.3980 83.3400
" />
<path d="M147.2980 86.8900
L147.2980 83.3400
" />
<path d="M153.3980 86.8900
L147.2980 86.8900
" />
<path d="M153.3980 83.3400
L153.3980 86.8900
" />
<path d="M114.0280 80.2860
L107.9280 80.2860
" />
<path d="M107.9280 76.7360
L114.0280 76.7360
" />
<path d="M107.9280 80.2860
L107.9280 76.7360
" />
<path d="M114.0280 76.7360
L114.0280 80.2860
" />
<path d="M140.1900 76.4820
L140.1900 80.0320
" />
<path d="M134.0900 80.0320
L134.0900 76.4820
" />
<path d="M140.1900 80.0320
L134.0900 80.0320
" />
<path d="M134.0900 76.4820
L140.1900 76.4820
" />
<path d="M118.5420 78.2260
L118.5420 88.9260
" />
<path d="M129.3420 88.9260
L129.3420 78.2260
" />
<path d="M129.3420 78.2260
L118.5420 78.2260
" />
<path d="M118.5420 88.9260
L129.3420 88.9260
" />
<path d="M184.9680 76.1940
L174.1680 76.1940
" />
<path d="M174.1680 76.1940
L174.1680 86.8940
" />
<path d="M184.9680 86.8940
L184.9680 76.1940
" />
<path d="M174.1680 86.8940
L184.9680 86.8940
" />
<path d="M161.0140 60.9880
L167.1140 60.9880
" />
<path d="M167.1140 64.5380
L161.0140 64.5380
" />
<path d="M167.1140 60.9880
L167.1140 64.5380
" />
<path d="M161.0140 64.5380
L161.0140 60.9880
" />
<path d="M167.1140 66.3220
L167.1140 69.8720
" />
<path d="M167.1140 69.8720
L161.0140 69.8720
" />
<path d="M161.0140 69.8720
L161.0140 66.3220
" />
<path d="M161.0140 66.3220
L167.1140 66.3220
" />
<path d="M200.6420 60.9880
L200.6420 64.5380
" />
<path d="M200.6420 64.5380
L194.5420 64.5380
" />
<path d="M194.5420 64.5380
L194.5420 60.9880
" />
<path d="M194.5420 60.9880
L200.6420 60.9880
" />
<path d="M194.5420 66.3220
L200.6420 66.3220
" />
<path d="M200.6420 69.8720
L194.5420 69.8720
" />
<path d="M200.6420 66.3220
L200.6420 69.8720
" />
<path d="M194.5420 69.8720
L194.5420 66.3220
" />
<path d="M178.2900 64.5380
L172.1900 64.5380
" />
<path d="M172.1900 64.5380
L172.1900 60.9880
" />
<path d="M172.1900 60.9880
L178.2900 60.9880
" />
<path d="M178.2900 60.9880
L178.2900 64.5380
" />
<path d="M189.2120 60.9880
L189.2120 64.5380
" />
<path d="M183.1120 64.5380
L183.1120 60.9880
" />
<path d="M183.1120 60.9880
L189.2120 60.9880
" />
<path d="M189.2120 64.5380
L183.1120 64.5380
" />
<path d="M171.0410 72.6220
L171.0410 83.8220
" />
<path d="M167.4910 83.8220
L167.4910 72.6220
" />
<path d="M167.4910 72.6220
L171.0410 72.6220
" />
<path d="M171.0410 83.8220
L167.4910 83.8220
" />
<path d="M194.0280 83.8220
L190.4780 83.8220
" />
<path d="M190.4780 72.6220
L194.0280 72.6220
" />
<path d="M194.0280 72.6220
L194.0280 83.8220
" />
<path d="M190.4780 83.8220
L190.4780 72.6220
" />
<path d="M173.6900 27.6300
L173.6900 14.3300
" />
<path d="M159.2900 27.6300
L173.6900 27.6300
" />
<path d="M159.2900 14.3300
L159.2900 27.6300
" />
<path d="M173.6900 14.3300
L159.2900 14.3300
" />
<path d="M161.1900 34.7800
L157.6400 34.7800
" />
<path d="M161.1900 28.6800
L161.1900 34.7800
" />
<path d="M157.6400 28.6800
L161.1900 28.6800
" />
<path d="M157.6400 34.7800
L157.6400 28.6800
" />
<path d="M147.3900 34.7800
L143.8400 34.7800
" />
<path d="M143.8400 28.6800
L147.3900 28.6800
" />
<path d="M147.3900 28.6800
L147.3900 34.7800
" />
<path d="M143.8400 34.7800
L143.8400 28.6800
" />
<path d="M153.0400 34.7800
L153.0400 28.6800
" />
<path d="M156.5900 34.7800
L153.0400 34.7800
" />
<path d="M153.0400 28.6800
L156.5900 28.6800
" />
<path d="M156.5900 28.6800
L156.5900 34.7800
" />
<path d="M190.1900 6.0800
L190.1900 -0.0200
" />
<path d="M190.1900 -0.0200
L193.7400 -0.0200
" />
<path d="M193.7400 -0.0200
L193.7400 6.0800
" />
<path d="M193.7400 6.0800
L190.1900 6.0800
" />
<path d="M189.1400 27.6300
L189.1400 14.3300
" />
<path d="M189.1400 14.3300
L174.7400 14.3300
" />
<path d="M174.7400 14.3300
L174.7400 27.6300
" />
<path d="M174.7400 27.6300
L189.1400 27.6300
" />
<path d="M162.2400 28.6800
L165.7900 28.6800
" />
<path d="M165.7900 28.6800
L165.7900 34.7800
" />
<path d="M162.2400 34.7800
L162.2400 28.6800
" />
<path d="M165.7900 34.7800
L162.2400 34.7800
" />
<path d="M143.8400 27.6300
L158.2400 27.6300
" />
<path d="M158.2400 27.6300
L158.2400 14.3300
" />
<path d="M158.2400 14.3300
L143.8400 14.3300
" />
<path d="M143.8400 14.3300
L143.8400 27.6300
" />
<circle cx="197.6298" cy="2.7300" r="2.7500" /> 
<path d="M122.9140 29.9360
L137.3140 29.9360
" />
<path d="M122.9140 16.6360
L122.9140 29.9360
" />
<path d="M137.3140 16.6360
L122.9140 16.6360
" />
<path d="M137.3140 29.9360
L137.3140 16.6360
" />
<path d="M151.9900 28.6800
L151.9900 34.7800
" />
<path d="M151.9900 34.7800
L148.4400 34.7800
" />
<path d="M148.4400 34.7800
L148.4400 28.6800
" />
<path d="M148.4400 28.6800
L151.9900 28.6800
" />
<path d="M95.4980 73.9300
L108.7980 73.9300
" />
<path d="M108.7980 73.9300
L108.7980 59.5300
" />
<path d="M108.7980 59.5300
L95.4980 59.5300
" />
<path d="M95.4980 59.5300
L95.4980 73.9300
" />
<path d="M189.1400 -0.0200
L174.7400 -0.0200
" />
<path d="M174.7400 13.2800
L189.1400 13.2800
" />
<path d="M174.7400 -0.0200
L174.7400 13.2800
" />
<path d="M189.1400 13.2800
L189.1400 -0.0200
" />
<circle cx="193.0298" cy="9.8800" r="2.7500" /> 
<g >
</g>
<g >
</g>
<g >
</g>
<g >
</g>
<g >
</g>
<g >
</g>
<g >
</g>
<g >
</g>
<g >
</g>
<g >
</g>
<g >
</g>
<g >
</g>
<g >
</g>
<g >
</g>
<g >
</g>
<g >
</g>
<g >
</g>
<g >
</g>
<g >
</g>
<g >
</g>
<g >
</g>
<g >
</g>
<g >
</g>
<g >
</g>
<g >
</g>
<g >
</g>
<g >
</g>
<g >
</g>
<g >
</g>
<g >
</g>
<g >
</g>
<g >
</g>
<g >
</g>
<g >
</g>
<g >
</g>
<g >
</g>
<g >
</g>
<g >
</g>
<g >
</g>
<g >
</g>
<g >
</g>
<g >
</g>
<g >
</g>
<g >
</g>
<g >
</g>
<g >
</g>
<g >
</g>
<g >
</g>
<g >
</g>
</g> 
</svg>
