<?xml version="1.0" encoding="utf-8" standalone="no"?>
<!DOCTYPE svg PUBLIC "-//W3C//DTD SVG 1.1//EN"
  "http://www.w3.org/Graphics/SVG/1.1/DTD/svg11.dtd">
<!-- Created with matplotlib (https://matplotlib.org/) -->
<svg height="280.15625pt" version="1.1" viewBox="0 0 424.373437 280.15625" width="424.373437pt" xmlns="http://www.w3.org/2000/svg" xmlns:xlink="http://www.w3.org/1999/xlink">
 <metadata>
  <rdf:RDF xmlns:cc="http://creativecommons.org/ns#" xmlns:dc="http://purl.org/dc/elements/1.1/" xmlns:rdf="http://www.w3.org/1999/02/22-rdf-syntax-ns#">
   <cc:Work>
    <dc:type rdf:resource="http://purl.org/dc/dcmitype/StillImage"/>
    <dc:date>2021-03-29T15:57:51.497303</dc:date>
    <dc:format>image/svg+xml</dc:format>
    <dc:creator>
     <cc:Agent>
      <dc:title>Matplotlib v3.3.4, https://matplotlib.org/</dc:title>
     </cc:Agent>
    </dc:creator>
   </cc:Work>
  </rdf:RDF>
 </metadata>
 <defs>
  <style type="text/css">*{stroke-linecap:butt;stroke-linejoin:round;}</style>
 </defs>
 <g id="figure_1">
  <g id="patch_1">
   <path d="M 0 280.15625 
L 424.373437 280.15625 
L 424.373437 0 
L 0 0 
z
" style="fill:none;"/>
  </g>
  <g id="axes_1">
   <g id="patch_2">
    <path d="M 58.523438 242.6 
L 417.173437 242.6 
L 417.173437 7.2 
L 58.523438 7.2 
z
" style="fill:#ffffff;"/>
   </g>
   <g id="matplotlib.axis_1">
    <g id="xtick_1">
     <g id="line2d_1">
      <defs>
       <path d="M 0 0 
L 0 3.5 
" id="m01534b8156" style="stroke:#000000;stroke-width:0.8;"/>
      </defs>
      <g>
       <use style="stroke:#000000;stroke-width:0.8;" x="74.82571" xlink:href="#m01534b8156" y="242.6"/>
      </g>
     </g>
     <g id="text_1">
      <!-- 0.0 -->
      <g transform="translate(66.874148 257.198437)scale(0.1 -0.1)">
       <defs>
        <path d="M 31.78125 66.40625 
Q 24.171875 66.40625 20.328125 58.90625 
Q 16.5 51.421875 16.5 36.375 
Q 16.5 21.390625 20.328125 13.890625 
Q 24.171875 6.390625 31.78125 6.390625 
Q 39.453125 6.390625 43.28125 13.890625 
Q 47.125 21.390625 47.125 36.375 
Q 47.125 51.421875 43.28125 58.90625 
Q 39.453125 66.40625 31.78125 66.40625 
z
M 31.78125 74.21875 
Q 44.046875 74.21875 50.515625 64.515625 
Q 56.984375 54.828125 56.984375 36.375 
Q 56.984375 17.96875 50.515625 8.265625 
Q 44.046875 -1.421875 31.78125 -1.421875 
Q 19.53125 -1.421875 13.0625 8.265625 
Q 6.59375 17.96875 6.59375 36.375 
Q 6.59375 54.828125 13.0625 64.515625 
Q 19.53125 74.21875 31.78125 74.21875 
z
" id="DejaVuSans-48"/>
        <path d="M 10.6875 12.40625 
L 21 12.40625 
L 21 0 
L 10.6875 0 
z
" id="DejaVuSans-46"/>
       </defs>
       <use xlink:href="#DejaVuSans-48"/>
       <use x="63.623047" xlink:href="#DejaVuSans-46"/>
       <use x="95.410156" xlink:href="#DejaVuSans-48"/>
      </g>
     </g>
    </g>
    <g id="xtick_2">
     <g id="line2d_2">
      <g>
       <use style="stroke:#000000;stroke-width:0.8;" x="115.581392" xlink:href="#m01534b8156" y="242.6"/>
      </g>
     </g>
     <g id="text_2">
      <!-- 2.5 -->
      <g transform="translate(107.62983 257.198437)scale(0.1 -0.1)">
       <defs>
        <path d="M 19.1875 8.296875 
L 53.609375 8.296875 
L 53.609375 0 
L 7.328125 0 
L 7.328125 8.296875 
Q 12.9375 14.109375 22.625 23.890625 
Q 32.328125 33.6875 34.8125 36.53125 
Q 39.546875 41.84375 41.421875 45.53125 
Q 43.3125 49.21875 43.3125 52.78125 
Q 43.3125 58.59375 39.234375 62.25 
Q 35.15625 65.921875 28.609375 65.921875 
Q 23.96875 65.921875 18.8125 64.3125 
Q 13.671875 62.703125 7.8125 59.421875 
L 7.8125 69.390625 
Q 13.765625 71.78125 18.9375 73 
Q 24.125 74.21875 28.421875 74.21875 
Q 39.75 74.21875 46.484375 68.546875 
Q 53.21875 62.890625 53.21875 53.421875 
Q 53.21875 48.921875 51.53125 44.890625 
Q 49.859375 40.875 45.40625 35.40625 
Q 44.1875 33.984375 37.640625 27.21875 
Q 31.109375 20.453125 19.1875 8.296875 
z
" id="DejaVuSans-50"/>
        <path d="M 10.796875 72.90625 
L 49.515625 72.90625 
L 49.515625 64.59375 
L 19.828125 64.59375 
L 19.828125 46.734375 
Q 21.96875 47.46875 24.109375 47.828125 
Q 26.265625 48.1875 28.421875 48.1875 
Q 40.625 48.1875 47.75 41.5 
Q 54.890625 34.8125 54.890625 23.390625 
Q 54.890625 11.625 47.5625 5.09375 
Q 40.234375 -1.421875 26.90625 -1.421875 
Q 22.3125 -1.421875 17.546875 -0.640625 
Q 12.796875 0.140625 7.71875 1.703125 
L 7.71875 11.625 
Q 12.109375 9.234375 16.796875 8.0625 
Q 21.484375 6.890625 26.703125 6.890625 
Q 35.15625 6.890625 40.078125 11.328125 
Q 45.015625 15.765625 45.015625 23.390625 
Q 45.015625 31 40.078125 35.4375 
Q 35.15625 39.890625 26.703125 39.890625 
Q 22.75 39.890625 18.8125 39.015625 
Q 14.890625 38.140625 10.796875 36.28125 
z
" id="DejaVuSans-53"/>
       </defs>
       <use xlink:href="#DejaVuSans-50"/>
       <use x="63.623047" xlink:href="#DejaVuSans-46"/>
       <use x="95.410156" xlink:href="#DejaVuSans-53"/>
      </g>
     </g>
    </g>
    <g id="xtick_3">
     <g id="line2d_3">
      <g>
       <use style="stroke:#000000;stroke-width:0.8;" x="156.337074" xlink:href="#m01534b8156" y="242.6"/>
      </g>
     </g>
     <g id="text_3">
      <!-- 5.0 -->
      <g transform="translate(148.385511 257.198437)scale(0.1 -0.1)">
       <use xlink:href="#DejaVuSans-53"/>
       <use x="63.623047" xlink:href="#DejaVuSans-46"/>
       <use x="95.410156" xlink:href="#DejaVuSans-48"/>
      </g>
     </g>
    </g>
    <g id="xtick_4">
     <g id="line2d_4">
      <g>
       <use style="stroke:#000000;stroke-width:0.8;" x="197.092756" xlink:href="#m01534b8156" y="242.6"/>
      </g>
     </g>
     <g id="text_4">
      <!-- 7.5 -->
      <g transform="translate(189.141193 257.198437)scale(0.1 -0.1)">
       <defs>
        <path d="M 8.203125 72.90625 
L 55.078125 72.90625 
L 55.078125 68.703125 
L 28.609375 0 
L 18.3125 0 
L 43.21875 64.59375 
L 8.203125 64.59375 
z
" id="DejaVuSans-55"/>
       </defs>
       <use xlink:href="#DejaVuSans-55"/>
       <use x="63.623047" xlink:href="#DejaVuSans-46"/>
       <use x="95.410156" xlink:href="#DejaVuSans-53"/>
      </g>
     </g>
    </g>
    <g id="xtick_5">
     <g id="line2d_5">
      <g>
       <use style="stroke:#000000;stroke-width:0.8;" x="237.848437" xlink:href="#m01534b8156" y="242.6"/>
      </g>
     </g>
     <g id="text_5">
      <!-- 10.0 -->
      <g transform="translate(226.715625 257.198437)scale(0.1 -0.1)">
       <defs>
        <path d="M 12.40625 8.296875 
L 28.515625 8.296875 
L 28.515625 63.921875 
L 10.984375 60.40625 
L 10.984375 69.390625 
L 28.421875 72.90625 
L 38.28125 72.90625 
L 38.28125 8.296875 
L 54.390625 8.296875 
L 54.390625 0 
L 12.40625 0 
z
" id="DejaVuSans-49"/>
       </defs>
       <use xlink:href="#DejaVuSans-49"/>
       <use x="63.623047" xlink:href="#DejaVuSans-48"/>
       <use x="127.246094" xlink:href="#DejaVuSans-46"/>
       <use x="159.033203" xlink:href="#DejaVuSans-48"/>
      </g>
     </g>
    </g>
    <g id="xtick_6">
     <g id="line2d_6">
      <g>
       <use style="stroke:#000000;stroke-width:0.8;" x="278.604119" xlink:href="#m01534b8156" y="242.6"/>
      </g>
     </g>
     <g id="text_6">
      <!-- 12.5 -->
      <g transform="translate(267.471307 257.198437)scale(0.1 -0.1)">
       <use xlink:href="#DejaVuSans-49"/>
       <use x="63.623047" xlink:href="#DejaVuSans-50"/>
       <use x="127.246094" xlink:href="#DejaVuSans-46"/>
       <use x="159.033203" xlink:href="#DejaVuSans-53"/>
      </g>
     </g>
    </g>
    <g id="xtick_7">
     <g id="line2d_7">
      <g>
       <use style="stroke:#000000;stroke-width:0.8;" x="319.359801" xlink:href="#m01534b8156" y="242.6"/>
      </g>
     </g>
     <g id="text_7">
      <!-- 15.0 -->
      <g transform="translate(308.226989 257.198437)scale(0.1 -0.1)">
       <use xlink:href="#DejaVuSans-49"/>
       <use x="63.623047" xlink:href="#DejaVuSans-53"/>
       <use x="127.246094" xlink:href="#DejaVuSans-46"/>
       <use x="159.033203" xlink:href="#DejaVuSans-48"/>
      </g>
     </g>
    </g>
    <g id="xtick_8">
     <g id="line2d_8">
      <g>
       <use style="stroke:#000000;stroke-width:0.8;" x="360.115483" xlink:href="#m01534b8156" y="242.6"/>
      </g>
     </g>
     <g id="text_8">
      <!-- 17.5 -->
      <g transform="translate(348.98267 257.198437)scale(0.1 -0.1)">
       <use xlink:href="#DejaVuSans-49"/>
       <use x="63.623047" xlink:href="#DejaVuSans-55"/>
       <use x="127.246094" xlink:href="#DejaVuSans-46"/>
       <use x="159.033203" xlink:href="#DejaVuSans-53"/>
      </g>
     </g>
    </g>
    <g id="xtick_9">
     <g id="line2d_9">
      <g>
       <use style="stroke:#000000;stroke-width:0.8;" x="400.871165" xlink:href="#m01534b8156" y="242.6"/>
      </g>
     </g>
     <g id="text_9">
      <!-- 20.0 -->
      <g transform="translate(389.738352 257.198437)scale(0.1 -0.1)">
       <use xlink:href="#DejaVuSans-50"/>
       <use x="63.623047" xlink:href="#DejaVuSans-48"/>
       <use x="127.246094" xlink:href="#DejaVuSans-46"/>
       <use x="159.033203" xlink:href="#DejaVuSans-48"/>
      </g>
     </g>
    </g>
    <g id="text_10">
     <!-- time [ms] -->
     <g transform="translate(213.586719 270.876562)scale(0.1 -0.1)">
      <defs>
       <path d="M 18.3125 70.21875 
L 18.3125 54.6875 
L 36.8125 54.6875 
L 36.8125 47.703125 
L 18.3125 47.703125 
L 18.3125 18.015625 
Q 18.3125 11.328125 20.140625 9.421875 
Q 21.96875 7.515625 27.59375 7.515625 
L 36.8125 7.515625 
L 36.8125 0 
L 27.59375 0 
Q 17.1875 0 13.234375 3.875 
Q 9.28125 7.765625 9.28125 18.015625 
L 9.28125 47.703125 
L 2.6875 47.703125 
L 2.6875 54.6875 
L 9.28125 54.6875 
L 9.28125 70.21875 
z
" id="DejaVuSans-116"/>
       <path d="M 9.421875 54.6875 
L 18.40625 54.6875 
L 18.40625 0 
L 9.421875 0 
z
M 9.421875 75.984375 
L 18.40625 75.984375 
L 18.40625 64.59375 
L 9.421875 64.59375 
z
" id="DejaVuSans-105"/>
       <path d="M 52 44.1875 
Q 55.375 50.25 60.0625 53.125 
Q 64.75 56 71.09375 56 
Q 79.640625 56 84.28125 50.015625 
Q 88.921875 44.046875 88.921875 33.015625 
L 88.921875 0 
L 79.890625 0 
L 79.890625 32.71875 
Q 79.890625 40.578125 77.09375 44.375 
Q 74.3125 48.1875 68.609375 48.1875 
Q 61.625 48.1875 57.5625 43.546875 
Q 53.515625 38.921875 53.515625 30.90625 
L 53.515625 0 
L 44.484375 0 
L 44.484375 32.71875 
Q 44.484375 40.625 41.703125 44.40625 
Q 38.921875 48.1875 33.109375 48.1875 
Q 26.21875 48.1875 22.15625 43.53125 
Q 18.109375 38.875 18.109375 30.90625 
L 18.109375 0 
L 9.078125 0 
L 9.078125 54.6875 
L 18.109375 54.6875 
L 18.109375 46.1875 
Q 21.1875 51.21875 25.484375 53.609375 
Q 29.78125 56 35.6875 56 
Q 41.65625 56 45.828125 52.96875 
Q 50 49.953125 52 44.1875 
z
" id="DejaVuSans-109"/>
       <path d="M 56.203125 29.59375 
L 56.203125 25.203125 
L 14.890625 25.203125 
Q 15.484375 15.921875 20.484375 11.0625 
Q 25.484375 6.203125 34.421875 6.203125 
Q 39.59375 6.203125 44.453125 7.46875 
Q 49.3125 8.734375 54.109375 11.28125 
L 54.109375 2.78125 
Q 49.265625 0.734375 44.1875 -0.34375 
Q 39.109375 -1.421875 33.890625 -1.421875 
Q 20.796875 -1.421875 13.15625 6.1875 
Q 5.515625 13.8125 5.515625 26.8125 
Q 5.515625 40.234375 12.765625 48.109375 
Q 20.015625 56 32.328125 56 
Q 43.359375 56 49.78125 48.890625 
Q 56.203125 41.796875 56.203125 29.59375 
z
M 47.21875 32.234375 
Q 47.125 39.59375 43.09375 43.984375 
Q 39.0625 48.390625 32.421875 48.390625 
Q 24.90625 48.390625 20.390625 44.140625 
Q 15.875 39.890625 15.1875 32.171875 
z
" id="DejaVuSans-101"/>
       <path id="DejaVuSans-32"/>
       <path d="M 8.59375 75.984375 
L 29.296875 75.984375 
L 29.296875 69 
L 17.578125 69 
L 17.578125 -6.203125 
L 29.296875 -6.203125 
L 29.296875 -13.1875 
L 8.59375 -13.1875 
z
" id="DejaVuSans-91"/>
       <path d="M 44.28125 53.078125 
L 44.28125 44.578125 
Q 40.484375 46.53125 36.375 47.5 
Q 32.28125 48.484375 27.875 48.484375 
Q 21.1875 48.484375 17.84375 46.4375 
Q 14.5 44.390625 14.5 40.28125 
Q 14.5 37.15625 16.890625 35.375 
Q 19.28125 33.59375 26.515625 31.984375 
L 29.59375 31.296875 
Q 39.15625 29.25 43.1875 25.515625 
Q 47.21875 21.78125 47.21875 15.09375 
Q 47.21875 7.46875 41.1875 3.015625 
Q 35.15625 -1.421875 24.609375 -1.421875 
Q 20.21875 -1.421875 15.453125 -0.5625 
Q 10.6875 0.296875 5.421875 2 
L 5.421875 11.28125 
Q 10.40625 8.6875 15.234375 7.390625 
Q 20.0625 6.109375 24.8125 6.109375 
Q 31.15625 6.109375 34.5625 8.28125 
Q 37.984375 10.453125 37.984375 14.40625 
Q 37.984375 18.0625 35.515625 20.015625 
Q 33.0625 21.96875 24.703125 23.78125 
L 21.578125 24.515625 
Q 13.234375 26.265625 9.515625 29.90625 
Q 5.8125 33.546875 5.8125 39.890625 
Q 5.8125 47.609375 11.28125 51.796875 
Q 16.75 56 26.8125 56 
Q 31.78125 56 36.171875 55.265625 
Q 40.578125 54.546875 44.28125 53.078125 
z
" id="DejaVuSans-115"/>
       <path d="M 30.421875 75.984375 
L 30.421875 -13.1875 
L 9.71875 -13.1875 
L 9.71875 -6.203125 
L 21.390625 -6.203125 
L 21.390625 69 
L 9.71875 69 
L 9.71875 75.984375 
z
" id="DejaVuSans-93"/>
      </defs>
      <use xlink:href="#DejaVuSans-116"/>
      <use x="39.208984" xlink:href="#DejaVuSans-105"/>
      <use x="66.992188" xlink:href="#DejaVuSans-109"/>
      <use x="164.404297" xlink:href="#DejaVuSans-101"/>
      <use x="225.927734" xlink:href="#DejaVuSans-32"/>
      <use x="257.714844" xlink:href="#DejaVuSans-91"/>
      <use x="296.728516" xlink:href="#DejaVuSans-109"/>
      <use x="394.140625" xlink:href="#DejaVuSans-115"/>
      <use x="446.240234" xlink:href="#DejaVuSans-93"/>
     </g>
    </g>
   </g>
   <g id="matplotlib.axis_2">
    <g id="ytick_1">
     <g id="line2d_10">
      <defs>
       <path d="M 0 0 
L -3.5 0 
" id="m39160e52e0" style="stroke:#000000;stroke-width:0.8;"/>
      </defs>
      <g>
       <use style="stroke:#000000;stroke-width:0.8;" x="58.523438" xlink:href="#m39160e52e0" y="231.900002"/>
      </g>
     </g>
     <g id="text_11">
      <!-- −1.00 -->
      <g transform="translate(20.878125 235.69922)scale(0.1 -0.1)">
       <defs>
        <path d="M 10.59375 35.5 
L 73.1875 35.5 
L 73.1875 27.203125 
L 10.59375 27.203125 
z
" id="DejaVuSans-8722"/>
       </defs>
       <use xlink:href="#DejaVuSans-8722"/>
       <use x="83.789062" xlink:href="#DejaVuSans-49"/>
       <use x="147.412109" xlink:href="#DejaVuSans-46"/>
       <use x="179.199219" xlink:href="#DejaVuSans-48"/>
       <use x="242.822266" xlink:href="#DejaVuSans-48"/>
      </g>
     </g>
    </g>
    <g id="ytick_2">
     <g id="line2d_11">
      <g>
       <use style="stroke:#000000;stroke-width:0.8;" x="58.523438" xlink:href="#m39160e52e0" y="205.159784"/>
      </g>
     </g>
     <g id="text_12">
      <!-- −0.75 -->
      <g transform="translate(20.878125 208.959002)scale(0.1 -0.1)">
       <use xlink:href="#DejaVuSans-8722"/>
       <use x="83.789062" xlink:href="#DejaVuSans-48"/>
       <use x="147.412109" xlink:href="#DejaVuSans-46"/>
       <use x="179.199219" xlink:href="#DejaVuSans-55"/>
       <use x="242.822266" xlink:href="#DejaVuSans-53"/>
      </g>
     </g>
    </g>
    <g id="ytick_3">
     <g id="line2d_12">
      <g>
       <use style="stroke:#000000;stroke-width:0.8;" x="58.523438" xlink:href="#m39160e52e0" y="178.419565"/>
      </g>
     </g>
     <g id="text_13">
      <!-- −0.50 -->
      <g transform="translate(20.878125 182.218784)scale(0.1 -0.1)">
       <use xlink:href="#DejaVuSans-8722"/>
       <use x="83.789062" xlink:href="#DejaVuSans-48"/>
       <use x="147.412109" xlink:href="#DejaVuSans-46"/>
       <use x="179.199219" xlink:href="#DejaVuSans-53"/>
       <use x="242.822266" xlink:href="#DejaVuSans-48"/>
      </g>
     </g>
    </g>
    <g id="ytick_4">
     <g id="line2d_13">
      <g>
       <use style="stroke:#000000;stroke-width:0.8;" x="58.523438" xlink:href="#m39160e52e0" y="151.679347"/>
      </g>
     </g>
     <g id="text_14">
      <!-- −0.25 -->
      <g transform="translate(20.878125 155.478566)scale(0.1 -0.1)">
       <use xlink:href="#DejaVuSans-8722"/>
       <use x="83.789062" xlink:href="#DejaVuSans-48"/>
       <use x="147.412109" xlink:href="#DejaVuSans-46"/>
       <use x="179.199219" xlink:href="#DejaVuSans-50"/>
       <use x="242.822266" xlink:href="#DejaVuSans-53"/>
      </g>
     </g>
    </g>
    <g id="ytick_5">
     <g id="line2d_14">
      <g>
       <use style="stroke:#000000;stroke-width:0.8;" x="58.523438" xlink:href="#m39160e52e0" y="124.939129"/>
      </g>
     </g>
     <g id="text_15">
      <!-- 0.00 -->
      <g transform="translate(29.257813 128.738348)scale(0.1 -0.1)">
       <use xlink:href="#DejaVuSans-48"/>
       <use x="63.623047" xlink:href="#DejaVuSans-46"/>
       <use x="95.410156" xlink:href="#DejaVuSans-48"/>
       <use x="159.033203" xlink:href="#DejaVuSans-48"/>
      </g>
     </g>
    </g>
    <g id="ytick_6">
     <g id="line2d_15">
      <g>
       <use style="stroke:#000000;stroke-width:0.8;" x="58.523438" xlink:href="#m39160e52e0" y="98.198911"/>
      </g>
     </g>
     <g id="text_16">
      <!-- 0.25 -->
      <g transform="translate(29.257813 101.99813)scale(0.1 -0.1)">
       <use xlink:href="#DejaVuSans-48"/>
       <use x="63.623047" xlink:href="#DejaVuSans-46"/>
       <use x="95.410156" xlink:href="#DejaVuSans-50"/>
       <use x="159.033203" xlink:href="#DejaVuSans-53"/>
      </g>
     </g>
    </g>
    <g id="ytick_7">
     <g id="line2d_16">
      <g>
       <use style="stroke:#000000;stroke-width:0.8;" x="58.523438" xlink:href="#m39160e52e0" y="71.458693"/>
      </g>
     </g>
     <g id="text_17">
      <!-- 0.50 -->
      <g transform="translate(29.257813 75.257912)scale(0.1 -0.1)">
       <use xlink:href="#DejaVuSans-48"/>
       <use x="63.623047" xlink:href="#DejaVuSans-46"/>
       <use x="95.410156" xlink:href="#DejaVuSans-53"/>
       <use x="159.033203" xlink:href="#DejaVuSans-48"/>
      </g>
     </g>
    </g>
    <g id="ytick_8">
     <g id="line2d_17">
      <g>
       <use style="stroke:#000000;stroke-width:0.8;" x="58.523438" xlink:href="#m39160e52e0" y="44.718475"/>
      </g>
     </g>
     <g id="text_18">
      <!-- 0.75 -->
      <g transform="translate(29.257813 48.517694)scale(0.1 -0.1)">
       <use xlink:href="#DejaVuSans-48"/>
       <use x="63.623047" xlink:href="#DejaVuSans-46"/>
       <use x="95.410156" xlink:href="#DejaVuSans-55"/>
       <use x="159.033203" xlink:href="#DejaVuSans-53"/>
      </g>
     </g>
    </g>
    <g id="ytick_9">
     <g id="line2d_18">
      <g>
       <use style="stroke:#000000;stroke-width:0.8;" x="58.523438" xlink:href="#m39160e52e0" y="17.978257"/>
      </g>
     </g>
     <g id="text_19">
      <!-- 1.00 -->
      <g transform="translate(29.257813 21.777475)scale(0.1 -0.1)">
       <use xlink:href="#DejaVuSans-49"/>
       <use x="63.623047" xlink:href="#DejaVuSans-46"/>
       <use x="95.410156" xlink:href="#DejaVuSans-48"/>
       <use x="159.033203" xlink:href="#DejaVuSans-48"/>
      </g>
     </g>
    </g>
    <g id="text_20">
     <!-- amplitude [V] -->
     <g transform="translate(14.798438 159.077344)rotate(-90)scale(0.1 -0.1)">
      <defs>
       <path d="M 34.28125 27.484375 
Q 23.390625 27.484375 19.1875 25 
Q 14.984375 22.515625 14.984375 16.5 
Q 14.984375 11.71875 18.140625 8.90625 
Q 21.296875 6.109375 26.703125 6.109375 
Q 34.1875 6.109375 38.703125 11.40625 
Q 43.21875 16.703125 43.21875 25.484375 
L 43.21875 27.484375 
z
M 52.203125 31.203125 
L 52.203125 0 
L 43.21875 0 
L 43.21875 8.296875 
Q 40.140625 3.328125 35.546875 0.953125 
Q 30.953125 -1.421875 24.3125 -1.421875 
Q 15.921875 -1.421875 10.953125 3.296875 
Q 6 8.015625 6 15.921875 
Q 6 25.140625 12.171875 29.828125 
Q 18.359375 34.515625 30.609375 34.515625 
L 43.21875 34.515625 
L 43.21875 35.40625 
Q 43.21875 41.609375 39.140625 45 
Q 35.0625 48.390625 27.6875 48.390625 
Q 23 48.390625 18.546875 47.265625 
Q 14.109375 46.140625 10.015625 43.890625 
L 10.015625 52.203125 
Q 14.9375 54.109375 19.578125 55.046875 
Q 24.21875 56 28.609375 56 
Q 40.484375 56 46.34375 49.84375 
Q 52.203125 43.703125 52.203125 31.203125 
z
" id="DejaVuSans-97"/>
       <path d="M 18.109375 8.203125 
L 18.109375 -20.796875 
L 9.078125 -20.796875 
L 9.078125 54.6875 
L 18.109375 54.6875 
L 18.109375 46.390625 
Q 20.953125 51.265625 25.265625 53.625 
Q 29.59375 56 35.59375 56 
Q 45.5625 56 51.78125 48.09375 
Q 58.015625 40.1875 58.015625 27.296875 
Q 58.015625 14.40625 51.78125 6.484375 
Q 45.5625 -1.421875 35.59375 -1.421875 
Q 29.59375 -1.421875 25.265625 0.953125 
Q 20.953125 3.328125 18.109375 8.203125 
z
M 48.6875 27.296875 
Q 48.6875 37.203125 44.609375 42.84375 
Q 40.53125 48.484375 33.40625 48.484375 
Q 26.265625 48.484375 22.1875 42.84375 
Q 18.109375 37.203125 18.109375 27.296875 
Q 18.109375 17.390625 22.1875 11.75 
Q 26.265625 6.109375 33.40625 6.109375 
Q 40.53125 6.109375 44.609375 11.75 
Q 48.6875 17.390625 48.6875 27.296875 
z
" id="DejaVuSans-112"/>
       <path d="M 9.421875 75.984375 
L 18.40625 75.984375 
L 18.40625 0 
L 9.421875 0 
z
" id="DejaVuSans-108"/>
       <path d="M 8.5 21.578125 
L 8.5 54.6875 
L 17.484375 54.6875 
L 17.484375 21.921875 
Q 17.484375 14.15625 20.5 10.265625 
Q 23.53125 6.390625 29.59375 6.390625 
Q 36.859375 6.390625 41.078125 11.03125 
Q 45.3125 15.671875 45.3125 23.6875 
L 45.3125 54.6875 
L 54.296875 54.6875 
L 54.296875 0 
L 45.3125 0 
L 45.3125 8.40625 
Q 42.046875 3.421875 37.71875 1 
Q 33.40625 -1.421875 27.6875 -1.421875 
Q 18.265625 -1.421875 13.375 4.4375 
Q 8.5 10.296875 8.5 21.578125 
z
M 31.109375 56 
z
" id="DejaVuSans-117"/>
       <path d="M 45.40625 46.390625 
L 45.40625 75.984375 
L 54.390625 75.984375 
L 54.390625 0 
L 45.40625 0 
L 45.40625 8.203125 
Q 42.578125 3.328125 38.25 0.953125 
Q 33.9375 -1.421875 27.875 -1.421875 
Q 17.96875 -1.421875 11.734375 6.484375 
Q 5.515625 14.40625 5.515625 27.296875 
Q 5.515625 40.1875 11.734375 48.09375 
Q 17.96875 56 27.875 56 
Q 33.9375 56 38.25 53.625 
Q 42.578125 51.265625 45.40625 46.390625 
z
M 14.796875 27.296875 
Q 14.796875 17.390625 18.875 11.75 
Q 22.953125 6.109375 30.078125 6.109375 
Q 37.203125 6.109375 41.296875 11.75 
Q 45.40625 17.390625 45.40625 27.296875 
Q 45.40625 37.203125 41.296875 42.84375 
Q 37.203125 48.484375 30.078125 48.484375 
Q 22.953125 48.484375 18.875 42.84375 
Q 14.796875 37.203125 14.796875 27.296875 
z
" id="DejaVuSans-100"/>
       <path d="M 28.609375 0 
L 0.78125 72.90625 
L 11.078125 72.90625 
L 34.1875 11.53125 
L 57.328125 72.90625 
L 67.578125 72.90625 
L 39.796875 0 
z
" id="DejaVuSans-86"/>
      </defs>
      <use xlink:href="#DejaVuSans-97"/>
      <use x="61.279297" xlink:href="#DejaVuSans-109"/>
      <use x="158.691406" xlink:href="#DejaVuSans-112"/>
      <use x="222.167969" xlink:href="#DejaVuSans-108"/>
      <use x="249.951172" xlink:href="#DejaVuSans-105"/>
      <use x="277.734375" xlink:href="#DejaVuSans-116"/>
      <use x="316.943359" xlink:href="#DejaVuSans-117"/>
      <use x="380.322266" xlink:href="#DejaVuSans-100"/>
      <use x="443.798828" xlink:href="#DejaVuSans-101"/>
      <use x="505.322266" xlink:href="#DejaVuSans-32"/>
      <use x="537.109375" xlink:href="#DejaVuSans-91"/>
      <use x="576.123047" xlink:href="#DejaVuSans-86"/>
      <use x="644.53125" xlink:href="#DejaVuSans-93"/>
     </g>
    </g>
   </g>
   <g id="line2d_19">
    <path clip-path="url(#p206d693622)" d="M 74.82571 124.939129 
L 82.557552 93.534572 
L 86.63312 77.92631 
L 89.991389 65.918911 
L 92.925798 56.228803 
L 95.566766 48.255038 
L 97.9632 41.704503 
L 100.164007 36.312512 
L 102.201791 31.887367 
L 104.092854 28.293525 
L 105.8535 25.408489 
L 107.500029 23.124777 
L 109.032443 21.367437 
L 110.467043 20.049506 
L 111.820132 19.100183 
L 113.108011 18.463893 
L 114.330682 18.102504 
L 115.520748 17.978549 
L 116.710814 18.079578 
L 117.900879 18.40538 
L 119.12355 18.973478 
L 120.395127 19.813851 
L 121.731914 20.969471 
L 123.150211 22.497156 
L 124.666323 24.468483 
L 126.280248 26.943674 
L 128.008289 30.013798 
L 129.866748 33.78497 
L 131.855625 38.338072 
L 134.007525 43.836344 
L 136.33875 50.420722 
L 138.881904 58.287353 
L 141.702198 67.756062 
L 144.897443 79.292839 
L 148.663268 93.763357 
L 153.651764 113.888792 
L 165.17747 160.682255 
L 169.024807 175.184016 
L 172.252657 186.512552 
L 175.105554 195.738127 
L 177.681314 203.335851 
L 180.028841 209.589725 
L 182.197043 214.751767 
L 184.202223 218.968515 
L 186.060682 222.375994 
L 187.788723 225.09635 
L 189.402648 227.236183 
L 190.918759 228.886018 
L 192.337057 230.108279 
L 193.673843 230.972732 
L 194.94542 231.533893 
L 196.168091 231.832084 
L 197.358157 231.894406 
L 198.548223 231.731754 
L 199.754591 231.337609 
L 200.993564 230.693441 
L 202.281443 229.768304 
L 203.634532 228.518203 
L 205.085434 226.864927 
L 206.617848 224.772889 
L 208.264377 222.137283 
L 210.025023 218.88639 
L 211.916086 214.91347 
L 213.95387 210.098184 
L 216.154677 204.308921 
L 218.551111 197.3575 
L 221.175777 189.038 
L 224.093884 179.022944 
L 227.419548 166.783481 
L 231.413604 151.195374 
L 237.200911 127.608254 
L 245.629186 93.341897 
L 249.688452 77.805616 
L 253.030418 65.862875 
L 255.964827 56.177311 
L 258.589493 48.255038 
L 260.985927 41.704503 
L 263.186734 36.312512 
L 265.224518 31.887367 
L 267.115582 28.293525 
L 268.876227 25.408489 
L 270.522757 23.124777 
L 272.05517 21.367437 
L 273.48977 20.049506 
L 274.842859 19.100183 
L 276.130738 18.463893 
L 277.353409 18.102504 
L 278.543475 17.978549 
L 279.733541 18.079578 
L 280.923607 18.40538 
L 282.146277 18.973478 
L 283.417854 19.813851 
L 284.754641 20.969471 
L 286.172938 22.497156 
L 287.68905 24.468483 
L 289.302975 26.943674 
L 291.031016 30.013798 
L 292.889475 33.78497 
L 294.878352 38.338072 
L 297.030252 43.836344 
L 299.361477 50.420722 
L 301.904632 58.287353 
L 304.724925 67.756062 
L 307.92017 79.292839 
L 311.685995 93.763357 
L 316.674491 113.888792 
L 328.200198 160.682255 
L 332.047534 175.184016 
L 335.275384 186.512552 
L 338.128282 195.738127 
L 340.704041 203.335851 
L 343.051568 209.589725 
L 345.21977 214.751767 
L 347.22495 218.968515 
L 349.083409 222.375994 
L 350.81145 225.09635 
L 352.425375 227.236183 
L 353.941486 228.886018 
L 355.359784 230.108279 
L 356.69657 230.972732 
L 357.968148 231.533893 
L 359.190818 231.832084 
L 360.380884 231.894406 
L 361.57095 231.731754 
L 362.777318 231.337609 
L 364.016291 230.693441 
L 365.30417 229.768304 
L 366.657259 228.518203 
L 368.108161 226.864927 
L 369.640575 224.772889 
L 371.287104 222.137283 
L 373.04775 218.88639 
L 374.938813 214.91347 
L 376.976598 210.098184 
L 379.177404 204.308921 
L 381.573838 197.3575 
L 384.198504 189.038 
L 387.116611 179.022944 
L 390.442275 166.783481 
L 394.436332 151.195374 
L 400.223638 127.608254 
L 400.871165 124.939129 
L 400.871165 124.939129 
" style="fill:none;stroke:#0000ff;stroke-linecap:square;stroke-width:1.5;"/>
   </g>
   <g id="line2d_20">
    <path clip-path="url(#p206d693622)" d="M 74.82571 124.939129 
L 74.895484 124.844684 
L 75.254134 124.567166 
L 75.580179 124.58929 
L 76.770245 124.938322 
L 91.344477 124.939669 
L 155.233084 125.047568 
L 155.934082 125.287103 
L 156.227523 125.082415 
L 156.553568 124.55174 
L 156.977427 123.375788 
L 157.531704 121.087044 
L 158.330516 116.71443 
L 160.303091 105.574454 
L 160.889973 103.539111 
L 161.297529 102.783916 
L 161.574668 102.641527 
L 161.8029 102.77682 
L 162.063736 103.234472 
L 162.406084 104.363027 
L 162.829943 106.647471 
L 163.335314 110.704239 
L 163.971102 117.791414 
L 164.835123 130.205018 
L 167.117441 164.195935 
L 167.851043 171.436427 
L 168.40532 174.944418 
L 168.812877 176.296725 
L 169.073714 176.566719 
L 169.253039 176.466354 
L 169.464968 176.033785 
L 169.758409 174.848192 
L 170.133361 172.290635 
L 170.589825 167.518436 
L 171.144102 159.213318 
L 171.828798 145.347464 
L 172.806934 120.424611 
L 174.649091 73.104089 
L 175.4316 58.813376 
L 176.034784 51.388854 
L 176.50755 47.958245 
L 176.833595 46.879905 
L 177.029223 46.755841 
L 177.175943 46.926603 
L 177.387873 47.580782 
L 177.681314 49.300796 
L 178.072568 53.1096 
L 178.545334 60.089009 
L 179.132216 72.38947 
L 179.849516 92.49137 
L 180.925466 129.833546 
L 182.523089 184.281396 
L 183.3219 204.028403 
L 183.941386 214.43692 
L 184.430454 219.425994 
L 184.789104 221.225831 
L 185.017336 221.537293 
L 185.147754 221.420137 
L 185.343382 220.837359 
L 185.62052 219.164723 
L 185.995473 215.292563 
L 186.451936 208.033744 
L 187.022516 195.014335 
L 187.723514 173.342889 
L 188.685348 135.82159 
L 190.657923 57.670878 
L 191.424129 36.552976 
L 192.027314 25.372645 
L 192.500079 20.110887 
L 192.858729 18.190932 
L 193.070659 17.9 
L 193.201077 18.033553 
L 193.396704 18.682015 
L 193.673843 20.525462 
L 194.048795 24.75668 
L 194.521561 32.953574 
L 195.092141 47.050221 
L 195.809441 70.831056 
L 196.820182 112.75866 
L 198.613432 187.360656 
L 199.395941 210.495598 
L 200.015427 222.863142 
L 200.504495 228.785358 
L 200.879448 231.043814 
L 201.107679 231.457908 
L 201.238098 231.370001 
L 201.417423 230.864986 
L 201.678259 229.338368 
L 202.036909 225.710313 
L 202.493373 218.543164 
L 203.04765 206.062588 
L 203.732345 185.27856 
L 204.661575 149.604031 
L 206.797173 65.334579 
L 207.547077 45.343462 
L 208.150261 34.705934 
L 208.623027 29.807574 
L 208.965375 28.109471 
L 209.193607 27.822461 
L 209.324025 27.957711 
L 209.519652 28.564354 
L 209.796791 30.244259 
L 210.171743 34.026259 
L 210.660811 41.513205 
L 211.263995 54.567681 
L 212.0139 76.058693 
L 213.171361 116.714143 
L 214.605961 165.377429 
L 215.38847 184.700765 
L 216.007957 195.039985 
L 216.513327 200.172906 
L 216.904582 202.182368 
L 217.165418 202.608182 
L 217.312139 202.536178 
L 217.507766 202.099232 
L 217.784904 200.8284 
L 218.159857 197.929084 
L 218.648925 192.189927 
L 219.252109 182.244676 
L 220.018316 165.609792 
L 221.224684 133.711651 
L 222.577773 99.607756 
L 223.343979 85.592347 
L 223.947163 78.191216 
L 224.436232 74.55915 
L 224.811184 73.137836 
L 225.07202 72.805674 
L 225.251345 72.874319 
L 225.463275 73.254288 
L 225.773018 74.364832 
L 226.180575 76.767185 
L 226.71855 81.429801 
L 227.403245 89.488463 
L 228.365079 103.752443 
L 230.337654 133.567407 
L 231.038652 140.708934 
L 231.609232 144.465984 
L 232.065695 146.161559 
L 232.408043 146.729826 
L 232.652577 146.80082 
L 232.897111 146.618247 
L 233.206854 146.059639 
L 233.630713 144.78411 
L 234.233898 142.168783 
L 235.179429 136.914646 
L 236.744448 128.287083 
L 237.396538 125.905861 
L 237.869304 124.910474 
L 238.244257 124.578159 
L 238.570302 124.577756 
L 239.972298 124.939152 
L 291.943943 124.938904 
L 318.239509 125.039687 
L 318.973111 125.282094 
L 319.266552 125.063634 
L 319.6089 124.480604 
L 320.032759 123.263445 
L 320.587036 120.92962 
L 321.418452 116.323336 
L 323.276911 105.786127 
L 323.880095 103.624912 
L 324.303954 102.802134 
L 324.581093 102.640852 
L 324.809325 102.759173 
L 325.070161 103.195969 
L 325.396207 104.228624 
L 325.803763 106.332188 
L 326.309134 110.248386 
L 326.92862 116.971063 
L 327.760036 128.68688 
L 330.254284 165.497434 
L 330.955282 172.06531 
L 331.493257 175.233826 
L 331.868209 176.356683 
L 332.112743 176.567408 
L 332.292068 176.445311 
L 332.5203 175.936203 
L 332.830043 174.582135 
L 333.221298 171.722103 
L 333.694063 166.469815 
L 334.264643 157.466207 
L 334.981943 142.309688 
L 336.074195 113.717433 
L 337.606609 74.508388 
L 338.40542 59.558303 
L 339.024907 51.70451 
L 339.497673 48.1248 
L 339.84002 46.908149 
L 340.05195 46.755841 
L 340.19867 46.926603 
L 340.4106 47.580782 
L 340.704041 49.300796 
L 341.095295 53.1096 
L 341.568061 60.089009 
L 342.154943 72.38947 
L 342.872243 92.49137 
L 343.948193 129.833546 
L 345.545816 184.281396 
L 346.344627 204.028403 
L 346.964113 214.43692 
L 347.453182 219.425994 
L 347.811832 221.225831 
L 348.040063 221.537293 
L 348.170482 221.420137 
L 348.366109 220.837359 
L 348.643248 219.164723 
L 349.0182 215.292563 
L 349.474663 208.033744 
L 350.045243 195.014335 
L 350.746241 173.342889 
L 351.708075 135.82159 
L 353.68065 57.670878 
L 354.446857 36.552976 
L 355.050041 25.372645 
L 355.522807 20.110887 
L 355.881457 18.190932 
L 356.093386 17.9 
L 356.223804 18.033553 
L 356.419432 18.682015 
L 356.69657 20.525462 
L 357.071523 24.75668 
L 357.544288 32.953574 
L 358.114868 47.050221 
L 358.832168 70.831056 
L 359.842909 112.75866 
L 361.636159 187.360656 
L 362.418668 210.495598 
L 363.038154 222.863142 
L 363.527223 228.785358 
L 363.902175 231.043814 
L 364.130407 231.457908 
L 364.260825 231.370001 
L 364.44015 230.864986 
L 364.700986 229.338368 
L 365.059636 225.710313 
L 365.5161 218.543164 
L 366.070377 206.062588 
L 366.755073 185.27856 
L 367.684302 149.604031 
L 369.8199 65.334579 
L 370.569804 45.343462 
L 371.172988 34.705934 
L 371.645754 29.807574 
L 371.988102 28.109471 
L 372.216334 27.822461 
L 372.346752 27.957711 
L 372.542379 28.564354 
L 372.819518 30.244259 
L 373.19447 34.026259 
L 373.683538 41.513205 
L 374.286723 54.567681 
L 375.036627 76.058693 
L 376.194088 116.714143 
L 377.628688 165.377429 
L 378.411198 184.700765 
L 379.030684 195.039985 
L 379.536054 200.172906 
L 379.927309 202.182368 
L 380.188145 202.608182 
L 380.334866 202.536178 
L 380.530493 202.099232 
L 380.807632 200.8284 
L 381.182584 197.929084 
L 381.671652 192.189927 
L 382.274836 182.244676 
L 383.041043 165.609792 
L 384.247411 133.711651 
L 385.6005 99.607756 
L 386.366707 85.592347 
L 386.969891 78.191216 
L 387.458959 74.55915 
L 387.833911 73.137836 
L 388.094748 72.805674 
L 388.274073 72.874319 
L 388.486002 73.254288 
L 388.795745 74.364832 
L 389.203302 76.767185 
L 389.741277 81.429801 
L 390.425973 89.488463 
L 391.387807 103.752443 
L 393.360382 133.567407 
L 394.061379 140.708934 
L 394.631959 144.465984 
L 395.088423 146.161559 
L 395.43077 146.729826 
L 395.675304 146.80082 
L 395.919838 146.618247 
L 396.229582 146.059639 
L 396.653441 144.78411 
L 397.256625 142.168783 
L 398.202157 136.914646 
L 399.767175 128.287083 
L 400.419266 125.905861 
L 400.871165 124.940655 
L 400.871165 124.940655 
" style="fill:none;stroke:#e97451;stroke-linecap:square;stroke-width:1.5;"/>
   </g>
   <g id="patch_3">
    <path d="M 58.523438 242.6 
L 58.523438 7.2 
" style="fill:none;stroke:#000000;stroke-linecap:square;stroke-linejoin:miter;stroke-width:0.8;"/>
   </g>
   <g id="patch_4">
    <path d="M 417.173437 242.6 
L 417.173437 7.2 
" style="fill:none;stroke:#000000;stroke-linecap:square;stroke-linejoin:miter;stroke-width:0.8;"/>
   </g>
   <g id="patch_5">
    <path d="M 58.523438 242.6 
L 417.173437 242.6 
" style="fill:none;stroke:#000000;stroke-linecap:square;stroke-linejoin:miter;stroke-width:0.8;"/>
   </g>
   <g id="patch_6">
    <path d="M 58.523438 7.2 
L 417.173437 7.2 
" style="fill:none;stroke:#000000;stroke-linecap:square;stroke-linejoin:miter;stroke-width:0.8;"/>
   </g>
   <g id="legend_1">
    <g id="patch_7">
     <path d="M 329.510937 54.28 
L 406.192187 54.28 
Q 408.192187 54.28 408.192187 52.28 
L 408.192187 23.3675 
Q 408.192187 21.3675 406.192187 21.3675 
L 329.510937 21.3675 
Q 327.510937 21.3675 327.510937 23.3675 
L 327.510937 52.28 
Q 327.510937 54.28 329.510937 54.28 
z
" style="fill:#ffffff;opacity:0.8;stroke:#cccccc;stroke-linejoin:miter;"/>
    </g>
    <g id="line2d_21">
     <path d="M 331.510937 29.465937 
L 351.510937 29.465937 
" style="fill:none;stroke:#0000ff;stroke-linecap:square;stroke-width:1.5;"/>
    </g>
    <g id="line2d_22"/>
    <g id="text_21">
     <!-- Vin_a [V] -->
     <g transform="translate(359.510937 32.965937)scale(0.1 -0.1)">
      <defs>
       <path d="M 54.890625 33.015625 
L 54.890625 0 
L 45.90625 0 
L 45.90625 32.71875 
Q 45.90625 40.484375 42.875 44.328125 
Q 39.84375 48.1875 33.796875 48.1875 
Q 26.515625 48.1875 22.3125 43.546875 
Q 18.109375 38.921875 18.109375 30.90625 
L 18.109375 0 
L 9.078125 0 
L 9.078125 54.6875 
L 18.109375 54.6875 
L 18.109375 46.1875 
Q 21.34375 51.125 25.703125 53.5625 
Q 30.078125 56 35.796875 56 
Q 45.21875 56 50.046875 50.171875 
Q 54.890625 44.34375 54.890625 33.015625 
z
" id="DejaVuSans-110"/>
       <path d="M 50.984375 -16.609375 
L 50.984375 -23.578125 
L -0.984375 -23.578125 
L -0.984375 -16.609375 
z
" id="DejaVuSans-95"/>
      </defs>
      <use xlink:href="#DejaVuSans-86"/>
      <use x="66.158203" xlink:href="#DejaVuSans-105"/>
      <use x="93.941406" xlink:href="#DejaVuSans-110"/>
      <use x="157.320312" xlink:href="#DejaVuSans-95"/>
      <use x="207.320312" xlink:href="#DejaVuSans-97"/>
      <use x="268.599609" xlink:href="#DejaVuSans-32"/>
      <use x="300.386719" xlink:href="#DejaVuSans-91"/>
      <use x="339.400391" xlink:href="#DejaVuSans-86"/>
      <use x="407.808594" xlink:href="#DejaVuSans-93"/>
     </g>
    </g>
    <g id="line2d_23">
     <path d="M 331.510937 44.422187 
L 351.510937 44.422187 
" style="fill:none;stroke:#e97451;stroke-linecap:square;stroke-width:1.5;"/>
    </g>
    <g id="line2d_24"/>
    <g id="text_22">
     <!-- Vin_b -->
     <g transform="translate(359.510937 47.922187)scale(0.1 -0.1)">
      <defs>
       <path d="M 48.6875 27.296875 
Q 48.6875 37.203125 44.609375 42.84375 
Q 40.53125 48.484375 33.40625 48.484375 
Q 26.265625 48.484375 22.1875 42.84375 
Q 18.109375 37.203125 18.109375 27.296875 
Q 18.109375 17.390625 22.1875 11.75 
Q 26.265625 6.109375 33.40625 6.109375 
Q 40.53125 6.109375 44.609375 11.75 
Q 48.6875 17.390625 48.6875 27.296875 
z
M 18.109375 46.390625 
Q 20.953125 51.265625 25.265625 53.625 
Q 29.59375 56 35.59375 56 
Q 45.5625 56 51.78125 48.09375 
Q 58.015625 40.1875 58.015625 27.296875 
Q 58.015625 14.40625 51.78125 6.484375 
Q 45.5625 -1.421875 35.59375 -1.421875 
Q 29.59375 -1.421875 25.265625 0.953125 
Q 20.953125 3.328125 18.109375 8.203125 
L 18.109375 0 
L 9.078125 0 
L 9.078125 75.984375 
L 18.109375 75.984375 
z
" id="DejaVuSans-98"/>
      </defs>
      <use xlink:href="#DejaVuSans-86"/>
      <use x="66.158203" xlink:href="#DejaVuSans-105"/>
      <use x="93.941406" xlink:href="#DejaVuSans-110"/>
      <use x="157.320312" xlink:href="#DejaVuSans-95"/>
      <use x="207.320312" xlink:href="#DejaVuSans-98"/>
     </g>
    </g>
   </g>
  </g>
 </g>
 <defs>
  <clipPath id="p206d693622">
   <rect height="235.4" width="358.65" x="58.523438" y="7.2"/>
  </clipPath>
 </defs>
</svg>
