<?xml version="1.0" encoding="utf-8" standalone="no"?>
<!DOCTYPE svg PUBLIC "-//W3C//DTD SVG 1.1//EN"
  "http://www.w3.org/Graphics/SVG/1.1/DTD/svg11.dtd">
<svg height="430.987807pt" version="1.1" viewBox="0 0 568.385937 430.987807" width="568.385937pt" xmlns="http://www.w3.org/2000/svg" xmlns:xlink="http://www.w3.org/1999/xlink">
 <metadata>
  <rdf:RDF xmlns:cc="http://creativecommons.org/ns#" xmlns:dc="http://purl.org/dc/elements/1.1/" xmlns:rdf="http://www.w3.org/1999/02/22-rdf-syntax-ns#">
   <cc:Work>
    <dc:type rdf:resource="http://purl.org/dc/dcmitype/StillImage"/>
    <dc:date>2021-05-15T14:07:39.675954</dc:date>
    <dc:format>image/svg+xml</dc:format>
    <dc:creator>
     <cc:Agent>
      <dc:title>Matplotlib v3.4.1, https://matplotlib.org/</dc:title>
     </cc:Agent>
    </dc:creator>
   </cc:Work>
  </rdf:RDF>
 </metadata>
 <defs>
  <style type="text/css">*{stroke-linecap:butt;stroke-linejoin:round;}</style>
 </defs>
 <g id="figure_1">
  <g id="patch_1">
   <path d="M 0 430.987807 
L 568.385937 430.987807 
L 568.385937 0 
L 0 0 
z
" style="fill:none;"/>
  </g>
  <g id="axes_1">
   <g id="patch_2">
    <path d="M 52.160938 177.761818 
L 561.185937 177.761818 
L 561.185937 7.2 
L 52.160938 7.2 
z
" style="fill:#ffffff;"/>
   </g>
   <g id="matplotlib.axis_1">
    <g id="xtick_1">
     <g id="line2d_1">
      <path clip-path="url(#p8572434e2a)" d="M 75.298438 177.761818 
L 75.298438 7.2 
" style="fill:none;stroke:#b0b0b0;stroke-linecap:square;stroke-width:0.8;"/>
     </g>
     <g id="line2d_2">
      <defs>
       <path d="M 0 0 
L 0 3.5 
" id="m96dcf6e75e" style="stroke:#000000;stroke-width:0.8;"/>
      </defs>
      <g>
       <use style="stroke:#000000;stroke-width:0.8;" x="75.298438" xlink:href="#m96dcf6e75e" y="177.761818"/>
      </g>
     </g>
     <g id="text_1">
      <!-- 0.000 -->
      <g transform="translate(60.984375 192.360256)scale(0.1 -0.1)">
       <defs>
        <path d="M 2034 4250 
Q 1547 4250 1301 3770 
Q 1056 3291 1056 2328 
Q 1056 1369 1301 889 
Q 1547 409 2034 409 
Q 2525 409 2770 889 
Q 3016 1369 3016 2328 
Q 3016 3291 2770 3770 
Q 2525 4250 2034 4250 
z
M 2034 4750 
Q 2819 4750 3233 4129 
Q 3647 3509 3647 2328 
Q 3647 1150 3233 529 
Q 2819 -91 2034 -91 
Q 1250 -91 836 529 
Q 422 1150 422 2328 
Q 422 3509 836 4129 
Q 1250 4750 2034 4750 
z
" id="DejaVuSans-30" transform="scale(0.015625)"/>
        <path d="M 684 794 
L 1344 794 
L 1344 0 
L 684 0 
L 684 794 
z
" id="DejaVuSans-2e" transform="scale(0.015625)"/>
       </defs>
       <use xlink:href="#DejaVuSans-30"/>
       <use x="63.623047" xlink:href="#DejaVuSans-2e"/>
       <use x="95.410156" xlink:href="#DejaVuSans-30"/>
       <use x="159.033203" xlink:href="#DejaVuSans-30"/>
       <use x="222.65625" xlink:href="#DejaVuSans-30"/>
      </g>
     </g>
    </g>
    <g id="xtick_2">
     <g id="line2d_3">
      <path clip-path="url(#p8572434e2a)" d="M 168.313513 177.761818 
L 168.313513 7.2 
" style="fill:none;stroke:#b0b0b0;stroke-linecap:square;stroke-width:0.8;"/>
     </g>
     <g id="line2d_4">
      <g>
       <use style="stroke:#000000;stroke-width:0.8;" x="168.313513" xlink:href="#m96dcf6e75e" y="177.761818"/>
      </g>
     </g>
     <g id="text_2">
      <!-- 0.002 -->
      <g transform="translate(153.99945 192.360256)scale(0.1 -0.1)">
       <defs>
        <path d="M 1228 531 
L 3431 531 
L 3431 0 
L 469 0 
L 469 531 
Q 828 903 1448 1529 
Q 2069 2156 2228 2338 
Q 2531 2678 2651 2914 
Q 2772 3150 2772 3378 
Q 2772 3750 2511 3984 
Q 2250 4219 1831 4219 
Q 1534 4219 1204 4116 
Q 875 4013 500 3803 
L 500 4441 
Q 881 4594 1212 4672 
Q 1544 4750 1819 4750 
Q 2544 4750 2975 4387 
Q 3406 4025 3406 3419 
Q 3406 3131 3298 2873 
Q 3191 2616 2906 2266 
Q 2828 2175 2409 1742 
Q 1991 1309 1228 531 
z
" id="DejaVuSans-32" transform="scale(0.015625)"/>
       </defs>
       <use xlink:href="#DejaVuSans-30"/>
       <use x="63.623047" xlink:href="#DejaVuSans-2e"/>
       <use x="95.410156" xlink:href="#DejaVuSans-30"/>
       <use x="159.033203" xlink:href="#DejaVuSans-30"/>
       <use x="222.65625" xlink:href="#DejaVuSans-32"/>
      </g>
     </g>
    </g>
    <g id="xtick_3">
     <g id="line2d_5">
      <path clip-path="url(#p8572434e2a)" d="M 261.328588 177.761818 
L 261.328588 7.2 
" style="fill:none;stroke:#b0b0b0;stroke-linecap:square;stroke-width:0.8;"/>
     </g>
     <g id="line2d_6">
      <g>
       <use style="stroke:#000000;stroke-width:0.8;" x="261.328588" xlink:href="#m96dcf6e75e" y="177.761818"/>
      </g>
     </g>
     <g id="text_3">
      <!-- 0.004 -->
      <g transform="translate(247.014526 192.360256)scale(0.1 -0.1)">
       <defs>
        <path d="M 2419 4116 
L 825 1625 
L 2419 1625 
L 2419 4116 
z
M 2253 4666 
L 3047 4666 
L 3047 1625 
L 3713 1625 
L 3713 1100 
L 3047 1100 
L 3047 0 
L 2419 0 
L 2419 1100 
L 313 1100 
L 313 1709 
L 2253 4666 
z
" id="DejaVuSans-34" transform="scale(0.015625)"/>
       </defs>
       <use xlink:href="#DejaVuSans-30"/>
       <use x="63.623047" xlink:href="#DejaVuSans-2e"/>
       <use x="95.410156" xlink:href="#DejaVuSans-30"/>
       <use x="159.033203" xlink:href="#DejaVuSans-30"/>
       <use x="222.65625" xlink:href="#DejaVuSans-34"/>
      </g>
     </g>
    </g>
    <g id="xtick_4">
     <g id="line2d_7">
      <path clip-path="url(#p8572434e2a)" d="M 354.343664 177.761818 
L 354.343664 7.2 
" style="fill:none;stroke:#b0b0b0;stroke-linecap:square;stroke-width:0.8;"/>
     </g>
     <g id="line2d_8">
      <g>
       <use style="stroke:#000000;stroke-width:0.8;" x="354.343664" xlink:href="#m96dcf6e75e" y="177.761818"/>
      </g>
     </g>
     <g id="text_4">
      <!-- 0.006 -->
      <g transform="translate(340.029601 192.360256)scale(0.1 -0.1)">
       <defs>
        <path d="M 2113 2584 
Q 1688 2584 1439 2293 
Q 1191 2003 1191 1497 
Q 1191 994 1439 701 
Q 1688 409 2113 409 
Q 2538 409 2786 701 
Q 3034 994 3034 1497 
Q 3034 2003 2786 2293 
Q 2538 2584 2113 2584 
z
M 3366 4563 
L 3366 3988 
Q 3128 4100 2886 4159 
Q 2644 4219 2406 4219 
Q 1781 4219 1451 3797 
Q 1122 3375 1075 2522 
Q 1259 2794 1537 2939 
Q 1816 3084 2150 3084 
Q 2853 3084 3261 2657 
Q 3669 2231 3669 1497 
Q 3669 778 3244 343 
Q 2819 -91 2113 -91 
Q 1303 -91 875 529 
Q 447 1150 447 2328 
Q 447 3434 972 4092 
Q 1497 4750 2381 4750 
Q 2619 4750 2861 4703 
Q 3103 4656 3366 4563 
z
" id="DejaVuSans-36" transform="scale(0.015625)"/>
       </defs>
       <use xlink:href="#DejaVuSans-30"/>
       <use x="63.623047" xlink:href="#DejaVuSans-2e"/>
       <use x="95.410156" xlink:href="#DejaVuSans-30"/>
       <use x="159.033203" xlink:href="#DejaVuSans-30"/>
       <use x="222.65625" xlink:href="#DejaVuSans-36"/>
      </g>
     </g>
    </g>
    <g id="xtick_5">
     <g id="line2d_9">
      <path clip-path="url(#p8572434e2a)" d="M 447.358739 177.761818 
L 447.358739 7.2 
" style="fill:none;stroke:#b0b0b0;stroke-linecap:square;stroke-width:0.8;"/>
     </g>
     <g id="line2d_10">
      <g>
       <use style="stroke:#000000;stroke-width:0.8;" x="447.358739" xlink:href="#m96dcf6e75e" y="177.761818"/>
      </g>
     </g>
     <g id="text_5">
      <!-- 0.008 -->
      <g transform="translate(433.044677 192.360256)scale(0.1 -0.1)">
       <defs>
        <path d="M 2034 2216 
Q 1584 2216 1326 1975 
Q 1069 1734 1069 1313 
Q 1069 891 1326 650 
Q 1584 409 2034 409 
Q 2484 409 2743 651 
Q 3003 894 3003 1313 
Q 3003 1734 2745 1975 
Q 2488 2216 2034 2216 
z
M 1403 2484 
Q 997 2584 770 2862 
Q 544 3141 544 3541 
Q 544 4100 942 4425 
Q 1341 4750 2034 4750 
Q 2731 4750 3128 4425 
Q 3525 4100 3525 3541 
Q 3525 3141 3298 2862 
Q 3072 2584 2669 2484 
Q 3125 2378 3379 2068 
Q 3634 1759 3634 1313 
Q 3634 634 3220 271 
Q 2806 -91 2034 -91 
Q 1263 -91 848 271 
Q 434 634 434 1313 
Q 434 1759 690 2068 
Q 947 2378 1403 2484 
z
M 1172 3481 
Q 1172 3119 1398 2916 
Q 1625 2713 2034 2713 
Q 2441 2713 2670 2916 
Q 2900 3119 2900 3481 
Q 2900 3844 2670 4047 
Q 2441 4250 2034 4250 
Q 1625 4250 1398 4047 
Q 1172 3844 1172 3481 
z
" id="DejaVuSans-38" transform="scale(0.015625)"/>
       </defs>
       <use xlink:href="#DejaVuSans-30"/>
       <use x="63.623047" xlink:href="#DejaVuSans-2e"/>
       <use x="95.410156" xlink:href="#DejaVuSans-30"/>
       <use x="159.033203" xlink:href="#DejaVuSans-30"/>
       <use x="222.65625" xlink:href="#DejaVuSans-38"/>
      </g>
     </g>
    </g>
    <g id="xtick_6">
     <g id="line2d_11">
      <path clip-path="url(#p8572434e2a)" d="M 540.373814 177.761818 
L 540.373814 7.2 
" style="fill:none;stroke:#b0b0b0;stroke-linecap:square;stroke-width:0.8;"/>
     </g>
     <g id="line2d_12">
      <g>
       <use style="stroke:#000000;stroke-width:0.8;" x="540.373814" xlink:href="#m96dcf6e75e" y="177.761818"/>
      </g>
     </g>
     <g id="text_6">
      <!-- 0.010 -->
      <g transform="translate(526.059752 192.360256)scale(0.1 -0.1)">
       <defs>
        <path d="M 794 531 
L 1825 531 
L 1825 4091 
L 703 3866 
L 703 4441 
L 1819 4666 
L 2450 4666 
L 2450 531 
L 3481 531 
L 3481 0 
L 794 0 
L 794 531 
z
" id="DejaVuSans-31" transform="scale(0.015625)"/>
       </defs>
       <use xlink:href="#DejaVuSans-30"/>
       <use x="63.623047" xlink:href="#DejaVuSans-2e"/>
       <use x="95.410156" xlink:href="#DejaVuSans-30"/>
       <use x="159.033203" xlink:href="#DejaVuSans-31"/>
       <use x="222.65625" xlink:href="#DejaVuSans-30"/>
      </g>
     </g>
    </g>
   </g>
   <g id="matplotlib.axis_2">
    <g id="ytick_1">
     <g id="line2d_13">
      <path clip-path="url(#p8572434e2a)" d="M 52.160938 170.009008 
L 561.185937 170.009008 
" style="fill:none;stroke:#b0b0b0;stroke-linecap:square;stroke-width:0.8;"/>
     </g>
     <g id="line2d_14">
      <defs>
       <path d="M 0 0 
L -3.5 0 
" id="mcf98041379" style="stroke:#000000;stroke-width:0.8;"/>
      </defs>
      <g>
       <use style="stroke:#000000;stroke-width:0.8;" x="52.160938" xlink:href="#mcf98041379" y="170.009008"/>
      </g>
     </g>
     <g id="text_7">
      <!-- −1.0 -->
      <g transform="translate(20.878125 173.808227)scale(0.1 -0.1)">
       <defs>
        <path d="M 678 2272 
L 4684 2272 
L 4684 1741 
L 678 1741 
L 678 2272 
z
" id="DejaVuSans-2212" transform="scale(0.015625)"/>
       </defs>
       <use xlink:href="#DejaVuSans-2212"/>
       <use x="83.789062" xlink:href="#DejaVuSans-31"/>
       <use x="147.412109" xlink:href="#DejaVuSans-2e"/>
       <use x="179.199219" xlink:href="#DejaVuSans-30"/>
      </g>
     </g>
    </g>
    <g id="ytick_2">
     <g id="line2d_15">
      <path clip-path="url(#p8572434e2a)" d="M 52.160938 131.244959 
L 561.185937 131.244959 
" style="fill:none;stroke:#b0b0b0;stroke-linecap:square;stroke-width:0.8;"/>
     </g>
     <g id="line2d_16">
      <g>
       <use style="stroke:#000000;stroke-width:0.8;" x="52.160938" xlink:href="#mcf98041379" y="131.244959"/>
      </g>
     </g>
     <g id="text_8">
      <!-- −0.5 -->
      <g transform="translate(20.878125 135.044177)scale(0.1 -0.1)">
       <defs>
        <path d="M 691 4666 
L 3169 4666 
L 3169 4134 
L 1269 4134 
L 1269 2991 
Q 1406 3038 1543 3061 
Q 1681 3084 1819 3084 
Q 2600 3084 3056 2656 
Q 3513 2228 3513 1497 
Q 3513 744 3044 326 
Q 2575 -91 1722 -91 
Q 1428 -91 1123 -41 
Q 819 9 494 109 
L 494 744 
Q 775 591 1075 516 
Q 1375 441 1709 441 
Q 2250 441 2565 725 
Q 2881 1009 2881 1497 
Q 2881 1984 2565 2268 
Q 2250 2553 1709 2553 
Q 1456 2553 1204 2497 
Q 953 2441 691 2322 
L 691 4666 
z
" id="DejaVuSans-35" transform="scale(0.015625)"/>
       </defs>
       <use xlink:href="#DejaVuSans-2212"/>
       <use x="83.789062" xlink:href="#DejaVuSans-30"/>
       <use x="147.412109" xlink:href="#DejaVuSans-2e"/>
       <use x="179.199219" xlink:href="#DejaVuSans-35"/>
      </g>
     </g>
    </g>
    <g id="ytick_3">
     <g id="line2d_17">
      <path clip-path="url(#p8572434e2a)" d="M 52.160938 92.480909 
L 561.185937 92.480909 
" style="fill:none;stroke:#b0b0b0;stroke-linecap:square;stroke-width:0.8;"/>
     </g>
     <g id="line2d_18">
      <g>
       <use style="stroke:#000000;stroke-width:0.8;" x="52.160938" xlink:href="#mcf98041379" y="92.480909"/>
      </g>
     </g>
     <g id="text_9">
      <!-- 0.0 -->
      <g transform="translate(29.257813 96.280128)scale(0.1 -0.1)">
       <use xlink:href="#DejaVuSans-30"/>
       <use x="63.623047" xlink:href="#DejaVuSans-2e"/>
       <use x="95.410156" xlink:href="#DejaVuSans-30"/>
      </g>
     </g>
    </g>
    <g id="ytick_4">
     <g id="line2d_19">
      <path clip-path="url(#p8572434e2a)" d="M 52.160938 53.71686 
L 561.185937 53.71686 
" style="fill:none;stroke:#b0b0b0;stroke-linecap:square;stroke-width:0.8;"/>
     </g>
     <g id="line2d_20">
      <g>
       <use style="stroke:#000000;stroke-width:0.8;" x="52.160938" xlink:href="#mcf98041379" y="53.71686"/>
      </g>
     </g>
     <g id="text_10">
      <!-- 0.5 -->
      <g transform="translate(29.257813 57.516078)scale(0.1 -0.1)">
       <use xlink:href="#DejaVuSans-30"/>
       <use x="63.623047" xlink:href="#DejaVuSans-2e"/>
       <use x="95.410156" xlink:href="#DejaVuSans-35"/>
      </g>
     </g>
    </g>
    <g id="ytick_5">
     <g id="line2d_21">
      <path clip-path="url(#p8572434e2a)" d="M 52.160938 14.95281 
L 561.185937 14.95281 
" style="fill:none;stroke:#b0b0b0;stroke-linecap:square;stroke-width:0.8;"/>
     </g>
     <g id="line2d_22">
      <g>
       <use style="stroke:#000000;stroke-width:0.8;" x="52.160938" xlink:href="#mcf98041379" y="14.95281"/>
      </g>
     </g>
     <g id="text_11">
      <!-- 1.0 -->
      <g transform="translate(29.257813 18.752029)scale(0.1 -0.1)">
       <use xlink:href="#DejaVuSans-31"/>
       <use x="63.623047" xlink:href="#DejaVuSans-2e"/>
       <use x="95.410156" xlink:href="#DejaVuSans-30"/>
      </g>
     </g>
    </g>
    <g id="text_12">
     <!-- amplitude -->
     <g transform="translate(14.798438 117.747315)rotate(-90)scale(0.1 -0.1)">
      <defs>
       <path d="M 2194 1759 
Q 1497 1759 1228 1600 
Q 959 1441 959 1056 
Q 959 750 1161 570 
Q 1363 391 1709 391 
Q 2188 391 2477 730 
Q 2766 1069 2766 1631 
L 2766 1759 
L 2194 1759 
z
M 3341 1997 
L 3341 0 
L 2766 0 
L 2766 531 
Q 2569 213 2275 61 
Q 1981 -91 1556 -91 
Q 1019 -91 701 211 
Q 384 513 384 1019 
Q 384 1609 779 1909 
Q 1175 2209 1959 2209 
L 2766 2209 
L 2766 2266 
Q 2766 2663 2505 2880 
Q 2244 3097 1772 3097 
Q 1472 3097 1187 3025 
Q 903 2953 641 2809 
L 641 3341 
Q 956 3463 1253 3523 
Q 1550 3584 1831 3584 
Q 2591 3584 2966 3190 
Q 3341 2797 3341 1997 
z
" id="DejaVuSans-61" transform="scale(0.015625)"/>
       <path d="M 3328 2828 
Q 3544 3216 3844 3400 
Q 4144 3584 4550 3584 
Q 5097 3584 5394 3201 
Q 5691 2819 5691 2113 
L 5691 0 
L 5113 0 
L 5113 2094 
Q 5113 2597 4934 2840 
Q 4756 3084 4391 3084 
Q 3944 3084 3684 2787 
Q 3425 2491 3425 1978 
L 3425 0 
L 2847 0 
L 2847 2094 
Q 2847 2600 2669 2842 
Q 2491 3084 2119 3084 
Q 1678 3084 1418 2786 
Q 1159 2488 1159 1978 
L 1159 0 
L 581 0 
L 581 3500 
L 1159 3500 
L 1159 2956 
Q 1356 3278 1631 3431 
Q 1906 3584 2284 3584 
Q 2666 3584 2933 3390 
Q 3200 3197 3328 2828 
z
" id="DejaVuSans-6d" transform="scale(0.015625)"/>
       <path d="M 1159 525 
L 1159 -1331 
L 581 -1331 
L 581 3500 
L 1159 3500 
L 1159 2969 
Q 1341 3281 1617 3432 
Q 1894 3584 2278 3584 
Q 2916 3584 3314 3078 
Q 3713 2572 3713 1747 
Q 3713 922 3314 415 
Q 2916 -91 2278 -91 
Q 1894 -91 1617 61 
Q 1341 213 1159 525 
z
M 3116 1747 
Q 3116 2381 2855 2742 
Q 2594 3103 2138 3103 
Q 1681 3103 1420 2742 
Q 1159 2381 1159 1747 
Q 1159 1113 1420 752 
Q 1681 391 2138 391 
Q 2594 391 2855 752 
Q 3116 1113 3116 1747 
z
" id="DejaVuSans-70" transform="scale(0.015625)"/>
       <path d="M 603 4863 
L 1178 4863 
L 1178 0 
L 603 0 
L 603 4863 
z
" id="DejaVuSans-6c" transform="scale(0.015625)"/>
       <path d="M 603 3500 
L 1178 3500 
L 1178 0 
L 603 0 
L 603 3500 
z
M 603 4863 
L 1178 4863 
L 1178 4134 
L 603 4134 
L 603 4863 
z
" id="DejaVuSans-69" transform="scale(0.015625)"/>
       <path d="M 1172 4494 
L 1172 3500 
L 2356 3500 
L 2356 3053 
L 1172 3053 
L 1172 1153 
Q 1172 725 1289 603 
Q 1406 481 1766 481 
L 2356 481 
L 2356 0 
L 1766 0 
Q 1100 0 847 248 
Q 594 497 594 1153 
L 594 3053 
L 172 3053 
L 172 3500 
L 594 3500 
L 594 4494 
L 1172 4494 
z
" id="DejaVuSans-74" transform="scale(0.015625)"/>
       <path d="M 544 1381 
L 544 3500 
L 1119 3500 
L 1119 1403 
Q 1119 906 1312 657 
Q 1506 409 1894 409 
Q 2359 409 2629 706 
Q 2900 1003 2900 1516 
L 2900 3500 
L 3475 3500 
L 3475 0 
L 2900 0 
L 2900 538 
Q 2691 219 2414 64 
Q 2138 -91 1772 -91 
Q 1169 -91 856 284 
Q 544 659 544 1381 
z
M 1991 3584 
L 1991 3584 
z
" id="DejaVuSans-75" transform="scale(0.015625)"/>
       <path d="M 2906 2969 
L 2906 4863 
L 3481 4863 
L 3481 0 
L 2906 0 
L 2906 525 
Q 2725 213 2448 61 
Q 2172 -91 1784 -91 
Q 1150 -91 751 415 
Q 353 922 353 1747 
Q 353 2572 751 3078 
Q 1150 3584 1784 3584 
Q 2172 3584 2448 3432 
Q 2725 3281 2906 2969 
z
M 947 1747 
Q 947 1113 1208 752 
Q 1469 391 1925 391 
Q 2381 391 2643 752 
Q 2906 1113 2906 1747 
Q 2906 2381 2643 2742 
Q 2381 3103 1925 3103 
Q 1469 3103 1208 2742 
Q 947 2381 947 1747 
z
" id="DejaVuSans-64" transform="scale(0.015625)"/>
       <path d="M 3597 1894 
L 3597 1613 
L 953 1613 
Q 991 1019 1311 708 
Q 1631 397 2203 397 
Q 2534 397 2845 478 
Q 3156 559 3463 722 
L 3463 178 
Q 3153 47 2828 -22 
Q 2503 -91 2169 -91 
Q 1331 -91 842 396 
Q 353 884 353 1716 
Q 353 2575 817 3079 
Q 1281 3584 2069 3584 
Q 2775 3584 3186 3129 
Q 3597 2675 3597 1894 
z
M 3022 2063 
Q 3016 2534 2758 2815 
Q 2500 3097 2075 3097 
Q 1594 3097 1305 2825 
Q 1016 2553 972 2059 
L 3022 2063 
z
" id="DejaVuSans-65" transform="scale(0.015625)"/>
      </defs>
      <use xlink:href="#DejaVuSans-61"/>
      <use x="61.279297" xlink:href="#DejaVuSans-6d"/>
      <use x="158.691406" xlink:href="#DejaVuSans-70"/>
      <use x="222.167969" xlink:href="#DejaVuSans-6c"/>
      <use x="249.951172" xlink:href="#DejaVuSans-69"/>
      <use x="277.734375" xlink:href="#DejaVuSans-74"/>
      <use x="316.943359" xlink:href="#DejaVuSans-75"/>
      <use x="380.322266" xlink:href="#DejaVuSans-64"/>
      <use x="443.798828" xlink:href="#DejaVuSans-65"/>
     </g>
    </g>
   </g>
   <g id="line2d_23">
    <path clip-path="url(#p8572434e2a)" d="M 75.298438 92.480909 
L 77.623814 68.523409 
L 79.949191 46.911036 
L 82.274568 29.759359 
L 84.599945 18.747305 
L 86.925322 14.95281 
L 89.250699 18.747305 
L 91.576076 29.759359 
L 93.901453 46.911036 
L 96.226829 68.523409 
L 100.877583 116.438409 
L 103.20296 138.050782 
L 105.528337 155.202459 
L 107.853714 166.214513 
L 110.179091 170.009008 
L 112.504468 166.214513 
L 114.829845 155.202459 
L 117.155221 138.050782 
L 119.480598 116.438409 
L 124.131352 68.523409 
L 126.456729 46.911036 
L 128.782106 29.759359 
L 131.107483 18.747305 
L 133.43286 14.95281 
L 135.758236 18.747305 
L 138.083613 29.759359 
L 140.40899 46.911036 
L 142.734367 68.523409 
L 147.385121 116.438409 
L 149.710498 138.050782 
L 152.035875 155.202459 
L 154.361252 166.214513 
L 156.686628 170.009008 
L 159.012005 166.214513 
L 161.337382 155.202459 
L 163.662759 138.050782 
L 165.988136 116.438409 
L 170.63889 68.523409 
L 172.964267 46.911036 
L 175.289644 29.759359 
L 177.61502 18.747305 
L 179.940397 14.95281 
L 182.265774 18.747305 
L 184.591151 29.759359 
L 186.916528 46.911036 
L 189.241905 68.523409 
L 193.892659 116.438409 
L 196.218035 138.050782 
L 198.543412 155.202459 
L 200.868789 166.214513 
L 203.194166 170.009008 
L 205.519543 166.214513 
L 207.84492 155.202459 
L 210.170297 138.050782 
L 212.495674 116.438409 
L 217.146427 68.523409 
L 219.471804 46.911036 
L 221.797181 29.759359 
L 224.122558 18.747305 
L 226.447935 14.95281 
L 228.773312 18.747305 
L 231.098689 29.759359 
L 233.424066 46.911036 
L 235.749443 68.523409 
L 240.400196 116.438409 
L 242.725573 138.050782 
L 245.05095 155.202459 
L 247.376327 166.214513 
L 249.701704 170.009008 
L 252.027081 166.214513 
L 254.352458 155.202459 
L 256.677834 138.050782 
L 259.003211 116.438409 
L 263.653965 68.523409 
L 265.979342 46.911036 
L 268.304719 29.759359 
L 270.630096 18.747305 
L 272.955473 14.95281 
L 275.28085 18.747305 
L 277.606226 29.759359 
L 279.931603 46.911036 
L 282.25698 68.523409 
L 286.907734 116.438409 
L 289.233111 138.050782 
L 291.558488 155.202459 
L 293.883865 166.214513 
L 296.209242 170.009008 
L 298.534618 166.214513 
L 300.859995 155.202459 
L 303.185372 138.050782 
L 305.510749 116.438409 
L 310.161503 68.523409 
L 312.48688 46.911036 
L 314.812257 29.759359 
L 317.137633 18.747305 
L 319.46301 14.95281 
L 321.788387 18.747305 
L 324.113764 29.759359 
L 326.439141 46.911036 
L 328.764518 68.523409 
L 333.415272 116.438409 
L 335.740649 138.050782 
L 338.066025 155.202459 
L 340.391402 166.214513 
L 342.716779 170.009008 
L 345.042156 166.214513 
L 347.367533 155.202459 
L 349.69291 138.050782 
L 352.018287 116.438409 
L 356.669041 68.523409 
L 358.994417 46.911036 
L 361.319794 29.759359 
L 363.645171 18.747305 
L 365.970548 14.95281 
L 368.295925 18.747305 
L 370.621302 29.759359 
L 372.946679 46.911036 
L 375.272056 68.523409 
L 379.922809 116.438409 
L 382.248186 138.050782 
L 384.573563 155.202459 
L 386.89894 166.214513 
L 389.224317 170.009008 
L 391.549694 166.214513 
L 393.875071 155.202459 
L 396.200448 138.050782 
L 398.525824 116.438409 
L 403.176578 68.523409 
L 405.501955 46.911036 
L 407.827332 29.759359 
L 410.152709 18.747305 
L 412.478086 14.95281 
L 414.803463 18.747305 
L 417.12884 29.759359 
L 419.454216 46.911036 
L 421.779593 68.523409 
L 426.430347 116.438409 
L 428.755724 138.050782 
L 431.081101 155.202459 
L 433.406478 166.214513 
L 435.731855 170.009008 
L 438.057231 166.214513 
L 440.382608 155.202459 
L 442.707985 138.050782 
L 445.033362 116.438409 
L 449.684116 68.523409 
L 452.009493 46.911036 
L 454.33487 29.759359 
L 456.660247 18.747305 
L 458.985623 14.95281 
L 461.311 18.747305 
L 463.636377 29.759359 
L 465.961754 46.911036 
L 468.287131 68.523409 
L 472.937885 116.438409 
L 475.263262 138.050782 
L 477.588639 155.202459 
L 479.914015 166.214513 
L 482.239392 170.009008 
L 484.564769 166.214513 
L 486.890146 155.202459 
L 489.215523 138.050782 
L 491.5409 116.438409 
L 496.191654 68.523409 
L 498.51703 46.911036 
L 500.842407 29.759359 
L 503.167784 18.747305 
L 505.493161 14.95281 
L 507.818538 18.747305 
L 510.143915 29.759359 
L 512.469292 46.911036 
L 514.794669 68.523409 
L 519.445422 116.438409 
L 521.770799 138.050782 
L 524.096176 155.202459 
L 526.421553 166.214513 
L 528.74693 170.009008 
L 531.072307 166.214513 
L 533.397684 155.202459 
L 535.723061 138.050782 
L 538.048437 116.438409 
L 538.048437 116.438409 
" style="fill:none;stroke:#808080;stroke-dasharray:5.55,2.4;stroke-dashoffset:0;stroke-width:1.5;"/>
   </g>
   <g id="line2d_24">
    <path clip-path="url(#p8572434e2a)" d="M 75.298438 92.480909 
L 84.599945 73.200455 
L 89.250699 63.940912 
L 93.901453 55.131462 
L 98.552206 46.911036 
L 103.20296 39.409273 
L 105.528337 35.965357 
L 107.853714 32.744482 
L 110.179091 29.759359 
L 112.504468 27.02177 
L 114.829845 24.542518 
L 117.155221 22.331388 
L 119.480598 20.397105 
L 121.805975 18.747305 
L 124.131352 17.388498 
L 126.456729 16.326046 
L 128.782106 15.564142 
L 131.107483 15.105794 
L 133.43286 14.95281 
L 135.758236 15.105794 
L 138.083613 15.564142 
L 140.40899 16.326046 
L 142.734367 17.388498 
L 145.059744 18.747305 
L 147.385121 20.397105 
L 149.710498 22.331388 
L 152.035875 24.542518 
L 154.361252 27.02177 
L 156.686628 29.759359 
L 159.012005 32.744482 
L 161.337382 35.965357 
L 163.662759 39.409273 
L 168.313513 46.911036 
L 172.964267 55.131462 
L 177.61502 63.940912 
L 182.265774 73.200455 
L 189.241905 87.612879 
L 200.868789 111.761363 
L 205.519543 121.020906 
L 210.170297 129.830356 
L 214.821051 138.050782 
L 219.471804 145.552545 
L 221.797181 148.996461 
L 224.122558 152.217336 
L 226.447935 155.202459 
L 228.773312 157.940048 
L 231.098689 160.4193 
L 233.424066 162.630431 
L 235.749443 164.564713 
L 238.074819 166.214513 
L 240.400196 167.57332 
L 242.725573 168.635772 
L 245.05095 169.397676 
L 247.376327 169.856024 
L 249.701704 170.009008 
L 252.027081 169.856024 
L 254.352458 169.397676 
L 256.677834 168.635772 
L 259.003211 167.57332 
L 261.328588 166.214513 
L 263.653965 164.564713 
L 265.979342 162.630431 
L 268.304719 160.4193 
L 270.630096 157.940048 
L 272.955473 155.202459 
L 275.28085 152.217336 
L 277.606226 148.996461 
L 279.931603 145.552545 
L 284.582357 138.050782 
L 289.233111 129.830356 
L 293.883865 121.020906 
L 298.534618 111.761363 
L 305.510749 97.348939 
L 317.137633 73.200455 
L 321.788387 63.940912 
L 326.439141 55.131462 
L 331.089895 46.911036 
L 335.740649 39.409273 
L 338.066025 35.965357 
L 340.391402 32.744482 
L 342.716779 29.759359 
L 345.042156 27.02177 
L 347.367533 24.542518 
L 349.69291 22.331388 
L 352.018287 20.397105 
L 354.343664 18.747305 
L 356.669041 17.388498 
L 358.994417 16.326046 
L 361.319794 15.564142 
L 363.645171 15.105794 
L 365.970548 14.95281 
L 368.295925 15.105794 
L 370.621302 15.564142 
L 372.946679 16.326046 
L 375.272056 17.388498 
L 377.597432 18.747305 
L 379.922809 20.397105 
L 382.248186 22.331388 
L 384.573563 24.542518 
L 386.89894 27.02177 
L 389.224317 29.759359 
L 391.549694 32.744482 
L 393.875071 35.965357 
L 396.200448 39.409273 
L 400.851201 46.911036 
L 405.501955 55.131462 
L 410.152709 63.940912 
L 414.803463 73.200455 
L 421.779593 87.612879 
L 433.406478 111.761363 
L 438.057231 121.020906 
L 442.707985 129.830356 
L 447.358739 138.050782 
L 452.009493 145.552545 
L 454.33487 148.996461 
L 456.660247 152.217336 
L 458.985623 155.202459 
L 461.311 157.940048 
L 463.636377 160.4193 
L 465.961754 162.630431 
L 468.287131 164.564713 
L 470.612508 166.214513 
L 472.937885 167.57332 
L 475.263262 168.635772 
L 477.588639 169.397676 
L 479.914015 169.856024 
L 482.239392 170.009008 
L 484.564769 169.856024 
L 486.890146 169.397676 
L 489.215523 168.635772 
L 491.5409 167.57332 
L 493.866277 166.214513 
L 496.191654 164.564713 
L 498.51703 162.630431 
L 500.842407 160.4193 
L 503.167784 157.940048 
L 505.493161 155.202459 
L 507.818538 152.217336 
L 510.143915 148.996461 
L 512.469292 145.552545 
L 517.120046 138.050782 
L 521.770799 129.830356 
L 526.421553 121.020906 
L 531.072307 111.761363 
L 538.048437 97.348939 
L 538.048437 97.348939 
" style="fill:none;stroke:#808080;stroke-linecap:square;stroke-width:1.5;"/>
   </g>
   <g id="line2d_25">
    <path clip-path="url(#p8572434e2a)" d="M 75.298438 92.480909 
L 77.623814 90.976605 
L 79.949191 86.76949 
L 82.274568 80.728063 
L 84.599945 74.144107 
L 86.925322 68.523409 
L 89.250699 65.337759 
L 91.576076 65.775372 
L 93.901453 70.527455 
L 96.226829 79.643839 
L 98.552206 92.480909 
L 105.528337 138.202951 
L 107.853714 149.293627 
L 110.179091 155.202459 
L 112.504468 154.73625 
L 114.829845 147.444222 
L 117.155221 133.713763 
L 119.480598 114.756029 
L 126.456729 47.718203 
L 128.782106 30.253937 
L 131.107483 18.892802 
L 133.43286 14.95281 
L 135.758236 18.892802 
L 138.083613 30.253937 
L 140.40899 47.718203 
L 142.734367 69.276078 
L 147.385121 114.756029 
L 149.710498 133.713763 
L 152.035875 147.444222 
L 154.361252 154.73625 
L 156.686628 155.202459 
L 159.012005 149.293627 
L 161.337382 138.202951 
L 163.662759 123.675634 
L 168.313513 92.480909 
L 170.63889 79.643839 
L 172.964267 70.527455 
L 175.289644 65.775372 
L 177.61502 65.337759 
L 179.940397 68.523409 
L 182.265774 74.144107 
L 184.591151 80.728063 
L 186.916528 86.76949 
L 189.241905 90.976605 
L 191.567282 92.480909 
L 193.892659 90.976605 
L 196.218035 86.76949 
L 198.543412 80.728063 
L 200.868789 74.144107 
L 203.194166 68.523409 
L 205.519543 65.337759 
L 207.84492 65.775372 
L 210.170297 70.527455 
L 212.495674 79.643839 
L 214.821051 92.480909 
L 221.797181 138.202951 
L 224.122558 149.293627 
L 226.447935 155.202459 
L 228.773312 154.73625 
L 231.098689 147.444222 
L 233.424066 133.713763 
L 235.749443 114.756029 
L 242.725573 47.718203 
L 245.05095 30.253937 
L 247.376327 18.892802 
L 249.701704 14.95281 
L 252.027081 18.892802 
L 254.352458 30.253937 
L 256.677834 47.718203 
L 259.003211 69.276078 
L 263.653965 114.756029 
L 265.979342 133.713763 
L 268.304719 147.444222 
L 270.630096 154.73625 
L 272.955473 155.202459 
L 275.28085 149.293627 
L 277.606226 138.202951 
L 279.931603 123.675634 
L 284.582357 92.480909 
L 286.907734 79.643839 
L 289.233111 70.527455 
L 291.558488 65.775372 
L 293.883865 65.337759 
L 296.209242 68.523409 
L 298.534618 74.144107 
L 300.859995 80.728063 
L 303.185372 86.76949 
L 305.510749 90.976605 
L 307.836126 92.480909 
L 310.161503 90.976605 
L 312.48688 86.76949 
L 314.812257 80.728063 
L 317.137633 74.144107 
L 319.46301 68.523409 
L 321.788387 65.337759 
L 324.113764 65.775372 
L 326.439141 70.527455 
L 328.764518 79.643839 
L 331.089895 92.480909 
L 338.066025 138.202951 
L 340.391402 149.293627 
L 342.716779 155.202459 
L 345.042156 154.73625 
L 347.367533 147.444222 
L 349.69291 133.713763 
L 352.018287 114.756029 
L 358.994417 47.718203 
L 361.319794 30.253937 
L 363.645171 18.892802 
L 365.970548 14.95281 
L 368.295925 18.892802 
L 370.621302 30.253937 
L 372.946679 47.718203 
L 375.272056 69.276078 
L 379.922809 114.756029 
L 382.248186 133.713763 
L 384.573563 147.444222 
L 386.89894 154.73625 
L 389.224317 155.202459 
L 391.549694 149.293627 
L 393.875071 138.202951 
L 396.200448 123.675634 
L 400.851201 92.480909 
L 403.176578 79.643839 
L 405.501955 70.527455 
L 407.827332 65.775372 
L 410.152709 65.337759 
L 412.478086 68.523409 
L 414.803463 74.144107 
L 417.12884 80.728063 
L 419.454216 86.76949 
L 421.779593 90.976605 
L 424.10497 92.480909 
L 426.430347 90.976605 
L 428.755724 86.76949 
L 431.081101 80.728063 
L 433.406478 74.144107 
L 435.731855 68.523409 
L 438.057231 65.337759 
L 440.382608 65.775372 
L 442.707985 70.527455 
L 445.033362 79.643839 
L 447.358739 92.480909 
L 454.33487 138.202951 
L 456.660247 149.293627 
L 458.985623 155.202459 
L 461.311 154.73625 
L 463.636377 147.444222 
L 465.961754 133.713763 
L 468.287131 114.756029 
L 475.263262 47.718203 
L 477.588639 30.253937 
L 479.914015 18.892802 
L 482.239392 14.95281 
L 484.564769 18.892802 
L 486.890146 30.253937 
L 489.215523 47.718203 
L 491.5409 69.276078 
L 496.191654 114.756029 
L 498.51703 133.713763 
L 500.842407 147.444222 
L 503.167784 154.73625 
L 505.493161 155.202459 
L 507.818538 149.293627 
L 510.143915 138.202951 
L 512.469292 123.675634 
L 517.120046 92.480909 
L 519.445422 79.643839 
L 521.770799 70.527455 
L 524.096176 65.775372 
L 526.421553 65.337759 
L 528.74693 68.523409 
L 531.072307 74.144107 
L 533.397684 80.728063 
L 535.723061 86.76949 
L 538.048437 90.976605 
L 538.048437 90.976605 
" style="fill:none;stroke:#ff0000;stroke-linecap:square;stroke-width:1.5;"/>
   </g>
   <g id="patch_3">
    <path d="M 52.160938 177.761818 
L 52.160938 7.2 
" style="fill:none;stroke:#000000;stroke-linecap:square;stroke-linejoin:miter;stroke-width:0.8;"/>
   </g>
   <g id="patch_4">
    <path d="M 561.185937 177.761818 
L 561.185937 7.2 
" style="fill:none;stroke:#000000;stroke-linecap:square;stroke-linejoin:miter;stroke-width:0.8;"/>
   </g>
   <g id="patch_5">
    <path d="M 52.160938 177.761818 
L 561.185937 177.761818 
" style="fill:none;stroke:#000000;stroke-linecap:square;stroke-linejoin:miter;stroke-width:0.8;"/>
   </g>
   <g id="patch_6">
    <path d="M 52.160938 7.2 
L 561.185937 7.2 
" style="fill:none;stroke:#000000;stroke-linecap:square;stroke-linejoin:miter;stroke-width:0.8;"/>
   </g>
  </g>
  <g id="axes_2">
   <g id="patch_7">
    <path d="M 52.160938 376.123636 
L 561.185937 376.123636 
L 561.185937 205.561818 
L 52.160938 205.561818 
z
" style="fill:#ffffff;"/>
   </g>
   <g id="matplotlib.axis_3">
    <g id="xtick_7">
     <g id="line2d_26">
      <path clip-path="url(#p5edb4ea66e)" d="M 75.298438 376.123636 
L 75.298438 205.561818 
" style="fill:none;stroke:#b0b0b0;stroke-linecap:square;stroke-width:0.8;"/>
     </g>
     <g id="line2d_27">
      <g>
       <use style="stroke:#000000;stroke-width:0.8;" x="75.298438" xlink:href="#m96dcf6e75e" y="376.123636"/>
      </g>
     </g>
     <g id="text_13">
      <!-- 0 -->
      <g transform="translate(72.117188 390.722074)scale(0.1 -0.1)">
       <use xlink:href="#DejaVuSans-30"/>
      </g>
     </g>
    </g>
    <g id="xtick_8">
     <g id="line2d_28">
      <path clip-path="url(#p5edb4ea66e)" d="M 149.935534 376.123636 
L 149.935534 205.561818 
" style="fill:none;stroke:#b0b0b0;stroke-linecap:square;stroke-width:0.8;"/>
     </g>
     <g id="line2d_29">
      <g>
       <use style="stroke:#000000;stroke-width:0.8;" x="149.935534" xlink:href="#m96dcf6e75e" y="376.123636"/>
      </g>
     </g>
     <g id="text_14">
      <!-- 400 -->
      <g transform="translate(140.391784 390.722074)scale(0.1 -0.1)">
       <use xlink:href="#DejaVuSans-34"/>
       <use x="63.623047" xlink:href="#DejaVuSans-30"/>
       <use x="127.246094" xlink:href="#DejaVuSans-30"/>
      </g>
     </g>
    </g>
    <g id="xtick_9">
     <g id="line2d_30">
      <path clip-path="url(#p5edb4ea66e)" d="M 224.572631 376.123636 
L 224.572631 205.561818 
" style="fill:none;stroke:#b0b0b0;stroke-linecap:square;stroke-width:0.8;"/>
     </g>
     <g id="line2d_31">
      <g>
       <use style="stroke:#000000;stroke-width:0.8;" x="224.572631" xlink:href="#m96dcf6e75e" y="376.123636"/>
      </g>
     </g>
     <g id="text_15">
      <!-- 800 -->
      <g transform="translate(215.028881 390.722074)scale(0.1 -0.1)">
       <use xlink:href="#DejaVuSans-38"/>
       <use x="63.623047" xlink:href="#DejaVuSans-30"/>
       <use x="127.246094" xlink:href="#DejaVuSans-30"/>
      </g>
     </g>
    </g>
    <g id="xtick_10">
     <g id="line2d_32">
      <path clip-path="url(#p5edb4ea66e)" d="M 299.209728 376.123636 
L 299.209728 205.561818 
" style="fill:none;stroke:#b0b0b0;stroke-linecap:square;stroke-width:0.8;"/>
     </g>
     <g id="line2d_33">
      <g>
       <use style="stroke:#000000;stroke-width:0.8;" x="299.209728" xlink:href="#m96dcf6e75e" y="376.123636"/>
      </g>
     </g>
     <g id="text_16">
      <!-- 1200 -->
      <g transform="translate(286.484728 390.722074)scale(0.1 -0.1)">
       <use xlink:href="#DejaVuSans-31"/>
       <use x="63.623047" xlink:href="#DejaVuSans-32"/>
       <use x="127.246094" xlink:href="#DejaVuSans-30"/>
       <use x="190.869141" xlink:href="#DejaVuSans-30"/>
      </g>
     </g>
    </g>
    <g id="xtick_11">
     <g id="line2d_34">
      <path clip-path="url(#p5edb4ea66e)" d="M 373.846825 376.123636 
L 373.846825 205.561818 
" style="fill:none;stroke:#b0b0b0;stroke-linecap:square;stroke-width:0.8;"/>
     </g>
     <g id="line2d_35">
      <g>
       <use style="stroke:#000000;stroke-width:0.8;" x="373.846825" xlink:href="#m96dcf6e75e" y="376.123636"/>
      </g>
     </g>
     <g id="text_17">
      <!-- 1600 -->
      <g transform="translate(361.121825 390.722074)scale(0.1 -0.1)">
       <use xlink:href="#DejaVuSans-31"/>
       <use x="63.623047" xlink:href="#DejaVuSans-36"/>
       <use x="127.246094" xlink:href="#DejaVuSans-30"/>
       <use x="190.869141" xlink:href="#DejaVuSans-30"/>
      </g>
     </g>
    </g>
    <g id="xtick_12">
     <g id="line2d_36">
      <path clip-path="url(#p5edb4ea66e)" d="M 448.483921 376.123636 
L 448.483921 205.561818 
" style="fill:none;stroke:#b0b0b0;stroke-linecap:square;stroke-width:0.8;"/>
     </g>
     <g id="line2d_37">
      <g>
       <use style="stroke:#000000;stroke-width:0.8;" x="448.483921" xlink:href="#m96dcf6e75e" y="376.123636"/>
      </g>
     </g>
     <g id="text_18">
      <!-- 2000 -->
      <g transform="translate(435.758921 390.722074)scale(0.1 -0.1)">
       <use xlink:href="#DejaVuSans-32"/>
       <use x="63.623047" xlink:href="#DejaVuSans-30"/>
       <use x="127.246094" xlink:href="#DejaVuSans-30"/>
       <use x="190.869141" xlink:href="#DejaVuSans-30"/>
      </g>
     </g>
    </g>
    <g id="xtick_13">
     <g id="line2d_38">
      <path clip-path="url(#p5edb4ea66e)" d="M 523.121018 376.123636 
L 523.121018 205.561818 
" style="fill:none;stroke:#b0b0b0;stroke-linecap:square;stroke-width:0.8;"/>
     </g>
     <g id="line2d_39">
      <g>
       <use style="stroke:#000000;stroke-width:0.8;" x="523.121018" xlink:href="#m96dcf6e75e" y="376.123636"/>
      </g>
     </g>
     <g id="text_19">
      <!-- 2400 -->
      <g transform="translate(510.396018 390.722074)scale(0.1 -0.1)">
       <use xlink:href="#DejaVuSans-32"/>
       <use x="63.623047" xlink:href="#DejaVuSans-34"/>
       <use x="127.246094" xlink:href="#DejaVuSans-30"/>
       <use x="190.869141" xlink:href="#DejaVuSans-30"/>
      </g>
     </g>
    </g>
   </g>
   <g id="matplotlib.axis_4">
    <g id="ytick_6">
     <g id="line2d_40">
      <path clip-path="url(#p5edb4ea66e)" d="M 52.160938 368.370826 
L 561.185937 368.370826 
" style="fill:none;stroke:#b0b0b0;stroke-linecap:square;stroke-width:0.8;"/>
     </g>
     <g id="line2d_41">
      <g>
       <use style="stroke:#000000;stroke-width:0.8;" x="52.160938" xlink:href="#mcf98041379" y="368.370826"/>
      </g>
     </g>
     <g id="text_20">
      <!-- 0.0 -->
      <g transform="translate(29.257813 372.170045)scale(0.1 -0.1)">
       <use xlink:href="#DejaVuSans-30"/>
       <use x="63.623047" xlink:href="#DejaVuSans-2e"/>
       <use x="95.410156" xlink:href="#DejaVuSans-30"/>
      </g>
     </g>
    </g>
    <g id="ytick_7">
     <g id="line2d_42">
      <path clip-path="url(#p5edb4ea66e)" d="M 52.160938 337.359587 
L 561.185937 337.359587 
" style="fill:none;stroke:#b0b0b0;stroke-linecap:square;stroke-width:0.8;"/>
     </g>
     <g id="line2d_43">
      <g>
       <use style="stroke:#000000;stroke-width:0.8;" x="52.160938" xlink:href="#mcf98041379" y="337.359587"/>
      </g>
     </g>
     <g id="text_21">
      <!-- 0.1 -->
      <g transform="translate(29.257813 341.158806)scale(0.1 -0.1)">
       <use xlink:href="#DejaVuSans-30"/>
       <use x="63.623047" xlink:href="#DejaVuSans-2e"/>
       <use x="95.410156" xlink:href="#DejaVuSans-31"/>
      </g>
     </g>
    </g>
    <g id="ytick_8">
     <g id="line2d_44">
      <path clip-path="url(#p5edb4ea66e)" d="M 52.160938 306.348347 
L 561.185937 306.348347 
" style="fill:none;stroke:#b0b0b0;stroke-linecap:square;stroke-width:0.8;"/>
     </g>
     <g id="line2d_45">
      <g>
       <use style="stroke:#000000;stroke-width:0.8;" x="52.160938" xlink:href="#mcf98041379" y="306.348347"/>
      </g>
     </g>
     <g id="text_22">
      <!-- 0.2 -->
      <g transform="translate(29.257813 310.147566)scale(0.1 -0.1)">
       <use xlink:href="#DejaVuSans-30"/>
       <use x="63.623047" xlink:href="#DejaVuSans-2e"/>
       <use x="95.410156" xlink:href="#DejaVuSans-32"/>
      </g>
     </g>
    </g>
    <g id="ytick_9">
     <g id="line2d_46">
      <path clip-path="url(#p5edb4ea66e)" d="M 52.160938 275.337107 
L 561.185937 275.337107 
" style="fill:none;stroke:#b0b0b0;stroke-linecap:square;stroke-width:0.8;"/>
     </g>
     <g id="line2d_47">
      <g>
       <use style="stroke:#000000;stroke-width:0.8;" x="52.160938" xlink:href="#mcf98041379" y="275.337107"/>
      </g>
     </g>
     <g id="text_23">
      <!-- 0.3 -->
      <g transform="translate(29.257813 279.136326)scale(0.1 -0.1)">
       <defs>
        <path d="M 2597 2516 
Q 3050 2419 3304 2112 
Q 3559 1806 3559 1356 
Q 3559 666 3084 287 
Q 2609 -91 1734 -91 
Q 1441 -91 1130 -33 
Q 819 25 488 141 
L 488 750 
Q 750 597 1062 519 
Q 1375 441 1716 441 
Q 2309 441 2620 675 
Q 2931 909 2931 1356 
Q 2931 1769 2642 2001 
Q 2353 2234 1838 2234 
L 1294 2234 
L 1294 2753 
L 1863 2753 
Q 2328 2753 2575 2939 
Q 2822 3125 2822 3475 
Q 2822 3834 2567 4026 
Q 2313 4219 1838 4219 
Q 1578 4219 1281 4162 
Q 984 4106 628 3988 
L 628 4550 
Q 988 4650 1302 4700 
Q 1616 4750 1894 4750 
Q 2613 4750 3031 4423 
Q 3450 4097 3450 3541 
Q 3450 3153 3228 2886 
Q 3006 2619 2597 2516 
z
" id="DejaVuSans-33" transform="scale(0.015625)"/>
       </defs>
       <use xlink:href="#DejaVuSans-30"/>
       <use x="63.623047" xlink:href="#DejaVuSans-2e"/>
       <use x="95.410156" xlink:href="#DejaVuSans-33"/>
      </g>
     </g>
    </g>
    <g id="ytick_10">
     <g id="line2d_48">
      <path clip-path="url(#p5edb4ea66e)" d="M 52.160938 244.325868 
L 561.185937 244.325868 
" style="fill:none;stroke:#b0b0b0;stroke-linecap:square;stroke-width:0.8;"/>
     </g>
     <g id="line2d_49">
      <g>
       <use style="stroke:#000000;stroke-width:0.8;" x="52.160938" xlink:href="#mcf98041379" y="244.325868"/>
      </g>
     </g>
     <g id="text_24">
      <!-- 0.4 -->
      <g transform="translate(29.257813 248.125087)scale(0.1 -0.1)">
       <use xlink:href="#DejaVuSans-30"/>
       <use x="63.623047" xlink:href="#DejaVuSans-2e"/>
       <use x="95.410156" xlink:href="#DejaVuSans-34"/>
      </g>
     </g>
    </g>
    <g id="ytick_11">
     <g id="line2d_50">
      <path clip-path="url(#p5edb4ea66e)" d="M 52.160938 213.314628 
L 561.185937 213.314628 
" style="fill:none;stroke:#b0b0b0;stroke-linecap:square;stroke-width:0.8;"/>
     </g>
     <g id="line2d_51">
      <g>
       <use style="stroke:#000000;stroke-width:0.8;" x="52.160938" xlink:href="#mcf98041379" y="213.314628"/>
      </g>
     </g>
     <g id="text_25">
      <!-- 0.5 -->
      <g transform="translate(29.257813 217.113847)scale(0.1 -0.1)">
       <use xlink:href="#DejaVuSans-30"/>
       <use x="63.623047" xlink:href="#DejaVuSans-2e"/>
       <use x="95.410156" xlink:href="#DejaVuSans-35"/>
      </g>
     </g>
    </g>
    <g id="text_26">
     <!-- frequency -->
     <g transform="translate(23.178125 315.91929)rotate(-90)scale(0.1 -0.1)">
      <defs>
       <path d="M 2375 4863 
L 2375 4384 
L 1825 4384 
Q 1516 4384 1395 4259 
Q 1275 4134 1275 3809 
L 1275 3500 
L 2222 3500 
L 2222 3053 
L 1275 3053 
L 1275 0 
L 697 0 
L 697 3053 
L 147 3053 
L 147 3500 
L 697 3500 
L 697 3744 
Q 697 4328 969 4595 
Q 1241 4863 1831 4863 
L 2375 4863 
z
" id="DejaVuSans-66" transform="scale(0.015625)"/>
       <path d="M 2631 2963 
Q 2534 3019 2420 3045 
Q 2306 3072 2169 3072 
Q 1681 3072 1420 2755 
Q 1159 2438 1159 1844 
L 1159 0 
L 581 0 
L 581 3500 
L 1159 3500 
L 1159 2956 
Q 1341 3275 1631 3429 
Q 1922 3584 2338 3584 
Q 2397 3584 2469 3576 
Q 2541 3569 2628 3553 
L 2631 2963 
z
" id="DejaVuSans-72" transform="scale(0.015625)"/>
       <path d="M 947 1747 
Q 947 1113 1208 752 
Q 1469 391 1925 391 
Q 2381 391 2643 752 
Q 2906 1113 2906 1747 
Q 2906 2381 2643 2742 
Q 2381 3103 1925 3103 
Q 1469 3103 1208 2742 
Q 947 2381 947 1747 
z
M 2906 525 
Q 2725 213 2448 61 
Q 2172 -91 1784 -91 
Q 1150 -91 751 415 
Q 353 922 353 1747 
Q 353 2572 751 3078 
Q 1150 3584 1784 3584 
Q 2172 3584 2448 3432 
Q 2725 3281 2906 2969 
L 2906 3500 
L 3481 3500 
L 3481 -1331 
L 2906 -1331 
L 2906 525 
z
" id="DejaVuSans-71" transform="scale(0.015625)"/>
       <path d="M 3513 2113 
L 3513 0 
L 2938 0 
L 2938 2094 
Q 2938 2591 2744 2837 
Q 2550 3084 2163 3084 
Q 1697 3084 1428 2787 
Q 1159 2491 1159 1978 
L 1159 0 
L 581 0 
L 581 3500 
L 1159 3500 
L 1159 2956 
Q 1366 3272 1645 3428 
Q 1925 3584 2291 3584 
Q 2894 3584 3203 3211 
Q 3513 2838 3513 2113 
z
" id="DejaVuSans-6e" transform="scale(0.015625)"/>
       <path d="M 3122 3366 
L 3122 2828 
Q 2878 2963 2633 3030 
Q 2388 3097 2138 3097 
Q 1578 3097 1268 2742 
Q 959 2388 959 1747 
Q 959 1106 1268 751 
Q 1578 397 2138 397 
Q 2388 397 2633 464 
Q 2878 531 3122 666 
L 3122 134 
Q 2881 22 2623 -34 
Q 2366 -91 2075 -91 
Q 1284 -91 818 406 
Q 353 903 353 1747 
Q 353 2603 823 3093 
Q 1294 3584 2113 3584 
Q 2378 3584 2631 3529 
Q 2884 3475 3122 3366 
z
" id="DejaVuSans-63" transform="scale(0.015625)"/>
       <path d="M 2059 -325 
Q 1816 -950 1584 -1140 
Q 1353 -1331 966 -1331 
L 506 -1331 
L 506 -850 
L 844 -850 
Q 1081 -850 1212 -737 
Q 1344 -625 1503 -206 
L 1606 56 
L 191 3500 
L 800 3500 
L 1894 763 
L 2988 3500 
L 3597 3500 
L 2059 -325 
z
" id="DejaVuSans-79" transform="scale(0.015625)"/>
      </defs>
      <use xlink:href="#DejaVuSans-66"/>
      <use x="35.205078" xlink:href="#DejaVuSans-72"/>
      <use x="74.068359" xlink:href="#DejaVuSans-65"/>
      <use x="135.591797" xlink:href="#DejaVuSans-71"/>
      <use x="199.068359" xlink:href="#DejaVuSans-75"/>
      <use x="262.447266" xlink:href="#DejaVuSans-65"/>
      <use x="323.970703" xlink:href="#DejaVuSans-6e"/>
      <use x="387.349609" xlink:href="#DejaVuSans-63"/>
      <use x="442.330078" xlink:href="#DejaVuSans-79"/>
     </g>
    </g>
   </g>
   <g id="line2d_52">
    <path clip-path="url(#p5edb4ea66e)" d="M 75.298438 368.370826 
L 79.030292 368.370826 
L 82.762147 368.370826 
L 86.494002 368.370826 
L 90.225857 368.370826 
L 93.957712 368.370826 
L 97.689567 368.370826 
L 101.421421 368.370826 
L 105.153276 368.370826 
L 108.885131 368.370826 
L 112.616986 368.370826 
L 116.348841 368.370826 
L 120.080696 368.370826 
L 123.81255 368.370826 
L 127.544405 368.370826 
L 131.27626 368.370826 
L 135.008115 368.370826 
L 138.73997 368.370826 
L 142.471825 368.370826 
L 146.203679 368.370826 
L 149.935534 368.370826 
L 153.667389 368.370826 
L 157.399244 368.370826 
L 161.131099 368.370826 
L 164.862954 368.370826 
L 168.594808 368.370826 
L 172.326663 368.370826 
L 176.058518 368.370826 
L 179.790373 368.370826 
L 183.522228 368.370826 
L 187.254083 368.370826 
L 190.985937 368.370826 
L 194.717792 368.370826 
L 198.449647 368.370826 
L 202.181502 368.370826 
L 205.913357 368.370826 
L 209.645212 368.370826 
L 213.377067 368.370826 
L 217.108921 368.370826 
L 220.840776 368.370826 
L 224.572631 213.314628 
L 228.304486 368.370826 
L 232.036341 368.370826 
L 235.768196 368.370826 
L 239.50005 368.370826 
L 243.231905 368.370826 
L 246.96376 368.370826 
L 250.695615 368.370826 
L 254.42747 368.370826 
L 258.159325 368.370826 
L 261.891179 368.370826 
L 265.623034 368.370826 
L 269.354889 368.370826 
L 273.086744 368.370826 
L 276.818599 368.370826 
L 280.550454 368.370826 
L 284.282308 368.370826 
L 288.014163 368.370826 
L 291.746018 368.370826 
L 295.477873 368.370826 
L 299.209728 213.314628 
L 302.941583 368.370826 
L 306.673437 368.370826 
L 310.405292 368.370826 
L 314.137147 368.370826 
L 317.869002 368.370826 
L 321.600857 368.370826 
L 325.332712 368.370826 
L 329.064567 368.370826 
L 332.796421 368.370826 
L 336.528276 368.370826 
L 340.260131 368.370826 
L 343.991986 368.370826 
L 347.723841 368.370826 
L 351.455696 368.370826 
L 355.18755 368.370826 
L 358.919405 368.370826 
L 362.65126 368.370826 
L 366.383115 368.370826 
L 370.11497 368.370826 
L 373.846825 368.370826 
L 377.578679 368.370826 
L 381.310534 368.370826 
L 385.042389 368.370826 
L 388.774244 368.370826 
L 392.506099 368.370826 
L 396.237954 368.370826 
L 399.969808 368.370826 
L 403.701663 368.370826 
L 407.433518 368.370826 
L 411.165373 368.370826 
L 414.897228 368.370826 
L 418.629083 368.370826 
L 422.360937 368.370826 
L 426.092792 368.370826 
L 429.824647 368.370826 
L 433.556502 368.370826 
L 437.288357 368.370826 
L 441.020212 368.370826 
L 444.752067 368.370826 
L 448.483921 368.370826 
L 452.215776 368.370826 
L 455.947631 368.370826 
L 459.679486 368.370826 
L 463.411341 368.370826 
L 467.143196 368.370826 
L 470.87505 368.370826 
L 474.606905 368.370826 
L 478.33876 368.370826 
L 482.070615 368.370826 
L 485.80247 368.370826 
L 489.534325 368.370826 
L 493.266179 368.370826 
L 496.998034 368.370826 
L 500.729889 368.370826 
L 504.461744 368.370826 
L 508.193599 368.370826 
L 511.925454 368.370826 
L 515.657308 368.370826 
L 519.389163 368.370826 
L 523.121018 368.370826 
L 526.852873 368.370826 
L 530.584728 368.370826 
L 534.316583 368.370826 
L 538.048437 368.370826 
" style="fill:none;stroke:#1f77b4;stroke-linecap:square;stroke-width:1.5;"/>
   </g>
   <g id="patch_8">
    <path d="M 52.160938 376.123636 
L 52.160938 205.561818 
" style="fill:none;stroke:#000000;stroke-linecap:square;stroke-linejoin:miter;stroke-width:0.8;"/>
   </g>
   <g id="patch_9">
    <path d="M 561.185937 376.123636 
L 561.185937 205.561818 
" style="fill:none;stroke:#000000;stroke-linecap:square;stroke-linejoin:miter;stroke-width:0.8;"/>
   </g>
   <g id="patch_10">
    <path d="M 52.160938 376.123636 
L 561.185937 376.123636 
" style="fill:none;stroke:#000000;stroke-linecap:square;stroke-linejoin:miter;stroke-width:0.8;"/>
   </g>
   <g id="patch_11">
    <path d="M 52.160938 205.561818 
L 561.185937 205.561818 
" style="fill:none;stroke:#000000;stroke-linecap:square;stroke-linejoin:miter;stroke-width:0.8;"/>
   </g>
   <g id="text_27">
    <!-- DSBSC -->
    <g transform="translate(286.234062 421.292182)scale(0.12 -0.12)">
     <defs>
      <path d="M 1259 4147 
L 1259 519 
L 2022 519 
Q 2988 519 3436 956 
Q 3884 1394 3884 2338 
Q 3884 3275 3436 3711 
Q 2988 4147 2022 4147 
L 1259 4147 
z
M 628 4666 
L 1925 4666 
Q 3281 4666 3915 4102 
Q 4550 3538 4550 2338 
Q 4550 1131 3912 565 
Q 3275 0 1925 0 
L 628 0 
L 628 4666 
z
" id="DejaVuSans-44" transform="scale(0.015625)"/>
      <path d="M 3425 4513 
L 3425 3897 
Q 3066 4069 2747 4153 
Q 2428 4238 2131 4238 
Q 1616 4238 1336 4038 
Q 1056 3838 1056 3469 
Q 1056 3159 1242 3001 
Q 1428 2844 1947 2747 
L 2328 2669 
Q 3034 2534 3370 2195 
Q 3706 1856 3706 1288 
Q 3706 609 3251 259 
Q 2797 -91 1919 -91 
Q 1588 -91 1214 -16 
Q 841 59 441 206 
L 441 856 
Q 825 641 1194 531 
Q 1563 422 1919 422 
Q 2459 422 2753 634 
Q 3047 847 3047 1241 
Q 3047 1584 2836 1778 
Q 2625 1972 2144 2069 
L 1759 2144 
Q 1053 2284 737 2584 
Q 422 2884 422 3419 
Q 422 4038 858 4394 
Q 1294 4750 2059 4750 
Q 2388 4750 2728 4690 
Q 3069 4631 3425 4513 
z
" id="DejaVuSans-53" transform="scale(0.015625)"/>
      <path d="M 1259 2228 
L 1259 519 
L 2272 519 
Q 2781 519 3026 730 
Q 3272 941 3272 1375 
Q 3272 1813 3026 2020 
Q 2781 2228 2272 2228 
L 1259 2228 
z
M 1259 4147 
L 1259 2741 
L 2194 2741 
Q 2656 2741 2882 2914 
Q 3109 3088 3109 3444 
Q 3109 3797 2882 3972 
Q 2656 4147 2194 4147 
L 1259 4147 
z
M 628 4666 
L 2241 4666 
Q 2963 4666 3353 4366 
Q 3744 4066 3744 3513 
Q 3744 3084 3544 2831 
Q 3344 2578 2956 2516 
Q 3422 2416 3680 2098 
Q 3938 1781 3938 1306 
Q 3938 681 3513 340 
Q 3088 0 2303 0 
L 628 0 
L 628 4666 
z
" id="DejaVuSans-42" transform="scale(0.015625)"/>
      <path d="M 4122 4306 
L 4122 3641 
Q 3803 3938 3442 4084 
Q 3081 4231 2675 4231 
Q 1875 4231 1450 3742 
Q 1025 3253 1025 2328 
Q 1025 1406 1450 917 
Q 1875 428 2675 428 
Q 3081 428 3442 575 
Q 3803 722 4122 1019 
L 4122 359 
Q 3791 134 3420 21 
Q 3050 -91 2638 -91 
Q 1578 -91 968 557 
Q 359 1206 359 2328 
Q 359 3453 968 4101 
Q 1578 4750 2638 4750 
Q 3056 4750 3426 4639 
Q 3797 4528 4122 4306 
z
" id="DejaVuSans-43" transform="scale(0.015625)"/>
     </defs>
     <use xlink:href="#DejaVuSans-44"/>
     <use x="77.001953" xlink:href="#DejaVuSans-53"/>
     <use x="140.478516" xlink:href="#DejaVuSans-42"/>
     <use x="207.332031" xlink:href="#DejaVuSans-53"/>
     <use x="270.808594" xlink:href="#DejaVuSans-43"/>
    </g>
   </g>
  </g>
 </g>
 <defs>
  <clipPath id="p8572434e2a">
   <rect height="170.561818" width="509.025" x="52.160938" y="7.2"/>
  </clipPath>
  <clipPath id="p5edb4ea66e">
   <rect height="170.561818" width="509.025" x="52.160938" y="205.561818"/>
  </clipPath>
 </defs>
</svg>
