<?xml version="1.0" encoding="utf-8" standalone="no"?>
<!DOCTYPE svg PUBLIC "-//W3C//DTD SVG 1.1//EN"
  "http://www.w3.org/Graphics/SVG/1.1/DTD/svg11.dtd">
<!-- Created with matplotlib (https://matplotlib.org/) -->
<svg height="508.862pt" version="1.1" viewBox="0 0 496.1154 508.862" width="496.1154pt" xmlns="http://www.w3.org/2000/svg" xmlns:xlink="http://www.w3.org/1999/xlink">
 <metadata>
  <rdf:RDF xmlns:cc="http://creativecommons.org/ns#" xmlns:dc="http://purl.org/dc/elements/1.1/" xmlns:rdf="http://www.w3.org/1999/02/22-rdf-syntax-ns#">
   <cc:Work>
    <dc:type rdf:resource="http://purl.org/dc/dcmitype/StillImage"/>
    <dc:date>2021-02-21T14:03:10.398488</dc:date>
    <dc:format>image/svg+xml</dc:format>
    <dc:creator>
     <cc:Agent>
      <dc:title>Matplotlib v3.3.4, https://matplotlib.org/</dc:title>
     </cc:Agent>
    </dc:creator>
   </cc:Work>
  </rdf:RDF>
 </metadata>
 <defs>
  <style type="text/css">*{stroke-linecap:butt;stroke-linejoin:round;}</style>
 </defs>
 <g id="figure_1">
  <g id="patch_1">
   <path d="M 0 508.862 
L 496.1154 508.862 
L 496.1154 0 
L 0 0 
z
" style="fill:none;"/>
  </g>
  <g id="axes_1">
   <g id="patch_2">
    <path clip-path="url(#pe6becd4f69)" d="M 112.4334 232.348 
C 116.896768 232.348 121.177929 230.574685 124.334007 227.418607 
C 127.490085 224.262529 129.2634 219.981368 129.2634 215.518 
C 129.2634 211.054632 127.490085 206.773471 124.334007 203.617393 
C 121.177929 200.461315 116.896768 198.688 112.4334 198.688 
C 107.970032 198.688 103.688871 200.461315 100.532793 203.617393 
C 97.376715 206.773471 95.6034 211.054632 95.6034 215.518 
C 95.6034 219.981368 97.376715 224.262529 100.532793 227.418607 
C 103.688871 230.574685 107.970032 232.348 112.4334 232.348 
z
" style="fill:none;stroke:#000000;stroke-linejoin:miter;stroke-width:0.9;"/>
   </g>
   <g id="patch_3">
    <path clip-path="url(#pe6becd4f69)" d="M 118.6044 231.226 
L 111.966328 229.566482 
L 113.947792 227.254773 
L 106.813443 221.139617 
L 106.833357 221.116383 
L 113.967707 227.23154 
L 115.949171 224.919832 
z
" style="stroke:#000000;stroke-linejoin:miter;stroke-width:0.9;"/>
   </g>
   <g id="patch_4">
    <path clip-path="url(#pe6becd4f69)" d="M 430.7754 232.348 
C 435.238768 232.348 439.519929 230.574685 442.676007 227.418607 
C 445.832085 224.262529 447.6054 219.981368 447.6054 215.518 
C 447.6054 211.054632 445.832085 206.773471 442.676007 203.617393 
C 439.519929 200.461315 435.238768 198.688 430.7754 198.688 
C 426.312032 198.688 422.030871 200.461315 418.874793 203.617393 
C 415.718715 206.773471 413.9454 211.054632 413.9454 215.518 
C 413.9454 219.981368 415.718715 224.262529 418.874793 227.418607 
C 422.030871 230.574685 426.312032 232.348 430.7754 232.348 
z
" style="fill:none;stroke:#000000;stroke-linejoin:miter;stroke-width:0.9;"/>
   </g>
   <g id="patch_5">
    <path clip-path="url(#pe6becd4f69)" d="M 424.6044 231.226 
L 427.259629 224.919832 
L 429.241093 227.23154 
L 436.375443 221.116383 
L 436.395357 221.139617 
L 429.261008 227.254773 
L 431.242472 229.566482 
z
" style="stroke:#000000;stroke-linejoin:miter;stroke-width:0.9;"/>
   </g>
   <g id="patch_6">
    <path clip-path="url(#pe6becd4f69)" d="M 150.6834 351.484 
C 155.146768 351.484 159.427929 349.710685 162.584007 346.554607 
C 165.740085 343.398529 167.5134 339.117368 167.5134 334.654 
C 167.5134 330.190632 165.740085 325.909471 162.584007 322.753393 
C 159.427929 319.597315 155.146768 317.824 150.6834 317.824 
C 146.220032 317.824 141.938871 319.597315 138.782793 322.753393 
C 135.626715 325.909471 133.8534 330.190632 133.8534 334.654 
C 133.8534 339.117368 135.626715 343.398529 138.782793 346.554607 
C 141.938871 349.710685 146.220032 351.484 150.6834 351.484 
z
" style="fill:none;stroke:#000000;stroke-linejoin:miter;stroke-width:0.9;"/>
   </g>
   <g id="patch_7">
    <path clip-path="url(#pe6becd4f69)" d="M 156.8544 350.362 
L 150.216328 348.702482 
L 152.197792 346.390773 
L 145.063443 340.275617 
L 145.083357 340.252383 
L 152.217707 346.36754 
L 154.199171 344.055832 
z
" style="stroke:#000000;stroke-linejoin:miter;stroke-width:0.9;"/>
   </g>
   <g id="patch_8">
    <path clip-path="url(#pe6becd4f69)" d="M 392.5254 351.484 
C 396.988768 351.484 401.269929 349.710685 404.426007 346.554607 
C 407.582085 343.398529 409.3554 339.117368 409.3554 334.654 
C 409.3554 330.190632 407.582085 325.909471 404.426007 322.753393 
C 401.269929 319.597315 396.988768 317.824 392.5254 317.824 
C 388.062032 317.824 383.780871 319.597315 380.624793 322.753393 
C 377.468715 325.909471 375.6954 330.190632 375.6954 334.654 
C 375.6954 339.117368 377.468715 343.398529 380.624793 346.554607 
C 383.780871 349.710685 388.062032 351.484 392.5254 351.484 
z
" style="fill:none;stroke:#000000;stroke-linejoin:miter;stroke-width:0.9;"/>
   </g>
   <g id="patch_9">
    <path clip-path="url(#pe6becd4f69)" d="M 386.3544 350.362 
L 389.009629 344.055832 
L 390.991093 346.36754 
L 398.125443 340.252383 
L 398.145357 340.275617 
L 391.011008 346.390773 
L 392.992472 348.702482 
z
" style="stroke:#000000;stroke-linejoin:miter;stroke-width:0.9;"/>
   </g>
   <g id="patch_10">
    <path clip-path="url(#pe6becd4f69)" d="M 341.9334 232.348 
C 346.396768 232.348 350.677929 230.574685 353.834007 227.418607 
C 356.990085 224.262529 358.7634 219.981368 358.7634 215.518 
C 358.7634 211.054632 356.990085 206.773471 353.834007 203.617393 
C 350.677929 200.461315 346.396768 198.688 341.9334 198.688 
C 337.470032 198.688 333.188871 200.461315 330.032793 203.617393 
C 326.876715 206.773471 325.1034 211.054632 325.1034 215.518 
C 325.1034 219.981368 326.876715 224.262529 330.032793 227.418607 
C 333.188871 230.574685 337.470032 232.348 341.9334 232.348 
z
" style="fill:none;stroke:#000000;stroke-linejoin:miter;stroke-width:0.9;"/>
   </g>
   <g id="patch_11">
    <path clip-path="url(#pe6becd4f69)" d="M 348.1044 231.226 
L 341.466328 229.566482 
L 343.447792 227.254773 
L 336.313443 221.139617 
L 336.333357 221.116383 
L 343.467707 227.23154 
L 345.449171 224.919832 
z
" style="stroke:#000000;stroke-linejoin:miter;stroke-width:0.9;"/>
   </g>
   <g id="patch_12">
    <path clip-path="url(#pe6becd4f69)" d="M 201.2754 232.348 
C 205.738768 232.348 210.019929 230.574685 213.176007 227.418607 
C 216.332085 224.262529 218.1054 219.981368 218.1054 215.518 
C 218.1054 211.054632 216.332085 206.773471 213.176007 203.617393 
C 210.019929 200.461315 205.738768 198.688 201.2754 198.688 
C 196.812032 198.688 192.530871 200.461315 189.374793 203.617393 
C 186.218715 206.773471 184.4454 211.054632 184.4454 215.518 
C 184.4454 219.981368 186.218715 224.262529 189.374793 227.418607 
C 192.530871 230.574685 196.812032 232.348 201.2754 232.348 
z
" style="fill:none;stroke:#000000;stroke-linejoin:miter;stroke-width:0.9;"/>
   </g>
   <g id="patch_13">
    <path clip-path="url(#pe6becd4f69)" d="M 195.1044 231.226 
L 197.759629 224.919832 
L 199.741093 227.23154 
L 206.875443 221.116383 
L 206.895357 221.139617 
L 199.761008 227.254773 
L 201.742472 229.566482 
z
" style="stroke:#000000;stroke-linejoin:miter;stroke-width:0.9;"/>
   </g>
   <g id="line2d_1">
    <path clip-path="url(#pe6becd4f69)" d="M 95.6034 215.518 
L 106.8234 215.518 
" style="fill:none;stroke:#000000;stroke-linecap:round;stroke-width:0.9;"/>
   </g>
   <g id="line2d_2">
    <path clip-path="url(#pe6becd4f69)" d="M 106.8234 204.298 
L 106.8234 226.738 
" style="fill:none;stroke:#000000;stroke-linecap:round;stroke-width:0.9;"/>
   </g>
   <g id="line2d_3">
    <path clip-path="url(#pe6becd4f69)" d="M 106.8234 209.908 
L 118.6044 199.81 
L 118.6044 194.2 
" style="fill:none;stroke:#000000;stroke-linecap:round;stroke-width:0.9;"/>
   </g>
   <g id="line2d_4">
    <path clip-path="url(#pe6becd4f69)" d="M 106.8234 221.128 
L 118.6044 231.226 
L 118.6044 236.836 
" style="fill:none;stroke:#000000;stroke-linecap:round;stroke-width:0.9;"/>
   </g>
   <g id="line2d_5">
    <path clip-path="url(#pe6becd4f69)" d="M 95.6034 215.518 
L 57.3534 215.518 
L 19.1034 215.518 
" style="fill:none;stroke:#000000;stroke-linecap:round;stroke-width:0.9;"/>
   </g>
   <g id="line2d_6">
    <path clip-path="url(#pe6becd4f69)" d="M 118.6044 194.2 
L 118.6044 155.95 
L 118.6044 117.7 
" style="fill:none;stroke:#000000;stroke-linecap:round;stroke-width:0.9;"/>
   </g>
   <g id="line2d_7">
    <path clip-path="url(#pe6becd4f69)" d="M 118.6044 117.7 
L 118.6044 94.75 
L 110.9544 92.2 
L 126.2544 87.1 
L 110.9544 82 
L 126.2544 76.9 
L 110.9544 71.8 
L 126.2544 66.7 
L 118.6044 64.15 
L 118.6044 41.2 
" style="fill:none;stroke:#000000;stroke-linecap:round;stroke-width:0.9;"/>
   </g>
   <g id="line2d_8">
    <path clip-path="url(#pe6becd4f69)" d="M 118.6044 41.2 
L 195.1044 41.2 
L 271.6044 41.2 
" style="fill:none;stroke:#000000;stroke-linecap:round;stroke-width:0.9;"/>
   </g>
   <g id="line2d_9">
    <path clip-path="url(#pe6becd4f69)" d="M 271.6044 41.2 
L 271.6044 28.96 
" style="fill:none;stroke:#000000;stroke-linecap:round;stroke-width:0.9;"/>
   </g>
   <g id="line2d_10">
    <path clip-path="url(#pe6becd4f69)" d="M 271.6044 28.96 
L 265.8669 28.96 
" style="fill:none;stroke:#000000;stroke-linecap:round;stroke-width:0.9;"/>
   </g>
   <g id="line2d_11">
    <path clip-path="url(#pe6becd4f69)" d="M 271.6044 28.96 
L 277.3419 28.96 
" style="fill:none;stroke:#000000;stroke-linecap:round;stroke-width:0.9;"/>
   </g>
   <g id="line2d_12">
    <path clip-path="url(#pe6becd4f69)" d="M 271.6044 41.2 
L 348.1044 41.2 
L 424.6044 41.2 
" style="fill:none;stroke:#000000;stroke-linecap:round;stroke-width:0.9;"/>
   </g>
   <g id="line2d_13">
    <path clip-path="url(#pe6becd4f69)" d="M 424.6044 41.2 
L 424.6044 64.15 
L 432.2544 66.7 
L 416.9544 71.8 
L 432.2544 76.9 
L 416.9544 82 
L 432.2544 87.1 
L 416.9544 92.2 
L 424.6044 94.75 
L 424.6044 117.7 
" style="fill:none;stroke:#000000;stroke-linecap:round;stroke-width:0.9;"/>
   </g>
   <g id="line2d_14">
    <path clip-path="url(#pe6becd4f69)" d="M 424.6044 117.7 
L 424.6044 155.95 
L 424.6044 194.2 
" style="fill:none;stroke:#000000;stroke-linecap:round;stroke-width:0.9;"/>
   </g>
   <g id="line2d_15">
    <path clip-path="url(#pe6becd4f69)" d="M 447.6054 215.518 
L 436.3854 215.518 
" style="fill:none;stroke:#000000;stroke-linecap:round;stroke-width:0.9;"/>
   </g>
   <g id="line2d_16">
    <path clip-path="url(#pe6becd4f69)" d="M 436.3854 204.298 
L 436.3854 226.738 
" style="fill:none;stroke:#000000;stroke-linecap:round;stroke-width:0.9;"/>
   </g>
   <g id="line2d_17">
    <path clip-path="url(#pe6becd4f69)" d="M 436.3854 209.908 
L 424.6044 199.81 
L 424.6044 194.2 
" style="fill:none;stroke:#000000;stroke-linecap:round;stroke-width:0.9;"/>
   </g>
   <g id="line2d_18">
    <path clip-path="url(#pe6becd4f69)" d="M 436.3854 221.128 
L 424.6044 231.226 
L 424.6044 236.836 
" style="fill:none;stroke:#000000;stroke-linecap:round;stroke-width:0.9;"/>
   </g>
   <g id="line2d_19">
    <path clip-path="url(#pe6becd4f69)" d="M 447.6054 215.518 
L 466.7304 215.518 
L 485.8554 215.518 
" style="fill:none;stroke:#000000;stroke-linecap:round;stroke-width:0.9;"/>
   </g>
   <g id="line2d_20">
    <path clip-path="url(#pe6becd4f69)" d="M 485.8554 215.518 
L 485.8554 234.643 
L 485.8554 253.768 
" style="fill:none;stroke:#000000;stroke-linecap:round;stroke-width:0.9;"/>
   </g>
   <g id="line2d_21">
    <path clip-path="url(#pe6becd4f69)" d="M 485.8554 253.768 
L 275.4804 253.768 
L 65.1054 253.768 
" style="fill:none;stroke:#000000;stroke-linecap:round;stroke-width:0.9;"/>
   </g>
   <g id="line2d_22">
    <path clip-path="url(#pe6becd4f69)" d="M 65.1054 253.768 
L 65.1054 234.643 
L 65.1054 215.518 
" style="fill:none;stroke:#000000;stroke-linecap:round;stroke-width:0.9;"/>
   </g>
   <g id="line2d_23">
    <path clip-path="url(#pe6becd4f69)" d="M 118.6044 117.7 
L 156.8544 117.7 
L 195.1044 117.7 
" style="fill:none;stroke:#000000;stroke-linecap:round;stroke-width:0.9;"/>
   </g>
   <g id="line2d_24">
    <path clip-path="url(#pe6becd4f69)" d="M 424.6044 117.7 
L 386.3544 117.7 
L 348.1044 117.7 
" style="fill:none;stroke:#000000;stroke-linecap:round;stroke-width:0.9;"/>
   </g>
   <g id="line2d_25">
    <path clip-path="url(#pe6becd4f69)" d="M 118.6044 236.836 
L 118.6044 255.961 
L 118.6044 275.086 
" style="fill:none;stroke:#000000;stroke-linecap:round;stroke-width:0.9;"/>
   </g>
   <g id="line2d_26">
    <path clip-path="url(#pe6becd4f69)" d="M 118.6044 275.086 
L 137.7294 275.086 
L 156.8544 275.086 
" style="fill:none;stroke:#000000;stroke-linecap:round;stroke-width:0.9;"/>
   </g>
   <g id="line2d_27">
    <path clip-path="url(#pe6becd4f69)" d="M 156.8544 275.086 
L 156.8544 294.211 
L 156.8544 313.336 
" style="fill:none;stroke:#000000;stroke-linecap:round;stroke-width:0.9;"/>
   </g>
   <g id="line2d_28">
    <path clip-path="url(#pe6becd4f69)" d="M 133.8534 334.654 
L 145.0734 334.654 
" style="fill:none;stroke:#000000;stroke-linecap:round;stroke-width:0.9;"/>
   </g>
   <g id="line2d_29">
    <path clip-path="url(#pe6becd4f69)" d="M 145.0734 323.434 
L 145.0734 345.874 
" style="fill:none;stroke:#000000;stroke-linecap:round;stroke-width:0.9;"/>
   </g>
   <g id="line2d_30">
    <path clip-path="url(#pe6becd4f69)" d="M 145.0734 329.044 
L 156.8544 318.946 
L 156.8544 313.336 
" style="fill:none;stroke:#000000;stroke-linecap:round;stroke-width:0.9;"/>
   </g>
   <g id="line2d_31">
    <path clip-path="url(#pe6becd4f69)" d="M 145.0734 340.264 
L 156.8544 350.362 
L 156.8544 355.972 
" style="fill:none;stroke:#000000;stroke-linecap:round;stroke-width:0.9;"/>
   </g>
   <g id="line2d_32">
    <path clip-path="url(#pe6becd4f69)" d="M 156.8544 355.972 
L 156.8544 375.097 
L 156.8544 394.222 
" style="fill:none;stroke:#000000;stroke-linecap:round;stroke-width:0.9;"/>
   </g>
   <g id="line2d_33">
    <path clip-path="url(#pe6becd4f69)" d="M 156.8544 394.222 
L 214.2294 394.222 
L 271.6044 394.222 
" style="fill:none;stroke:#000000;stroke-linecap:round;stroke-width:0.9;"/>
   </g>
   <g id="line2d_34">
    <path clip-path="url(#pe6becd4f69)" d="M 271.6044 394.222 
L 271.6044 417.172 
L 279.2544 419.722 
L 263.9544 424.822 
L 279.2544 429.922 
L 263.9544 435.022 
L 279.2544 440.122 
L 263.9544 445.222 
L 271.6044 447.772 
L 271.6044 470.722 
" style="fill:none;stroke:#000000;stroke-linecap:round;stroke-width:0.9;"/>
   </g>
   <g id="line2d_35">
    <path clip-path="url(#pe6becd4f69)" d="M 271.6044 470.722 
L 271.6044 482.962 
" style="fill:none;stroke:#000000;stroke-linecap:round;stroke-width:0.9;"/>
   </g>
   <g id="line2d_36">
    <path clip-path="url(#pe6becd4f69)" d="M 271.6044 482.962 
L 265.8669 482.962 
" style="fill:none;stroke:#000000;stroke-linecap:round;stroke-width:0.9;"/>
   </g>
   <g id="line2d_37">
    <path clip-path="url(#pe6becd4f69)" d="M 271.6044 482.962 
L 277.3419 482.962 
" style="fill:none;stroke:#000000;stroke-linecap:round;stroke-width:0.9;"/>
   </g>
   <g id="line2d_38">
    <path clip-path="url(#pe6becd4f69)" d="M 271.6044 394.222 
L 328.9794 394.222 
L 386.3544 394.222 
" style="fill:none;stroke:#000000;stroke-linecap:round;stroke-width:0.9;"/>
   </g>
   <g id="line2d_39">
    <path clip-path="url(#pe6becd4f69)" d="M 386.3544 394.222 
L 386.3544 375.097 
L 386.3544 355.972 
" style="fill:none;stroke:#000000;stroke-linecap:round;stroke-width:0.9;"/>
   </g>
   <g id="line2d_40">
    <path clip-path="url(#pe6becd4f69)" d="M 409.3554 334.654 
L 398.1354 334.654 
" style="fill:none;stroke:#000000;stroke-linecap:round;stroke-width:0.9;"/>
   </g>
   <g id="line2d_41">
    <path clip-path="url(#pe6becd4f69)" d="M 398.1354 323.434 
L 398.1354 345.874 
" style="fill:none;stroke:#000000;stroke-linecap:round;stroke-width:0.9;"/>
   </g>
   <g id="line2d_42">
    <path clip-path="url(#pe6becd4f69)" d="M 398.1354 329.044 
L 386.3544 318.946 
L 386.3544 313.336 
" style="fill:none;stroke:#000000;stroke-linecap:round;stroke-width:0.9;"/>
   </g>
   <g id="line2d_43">
    <path clip-path="url(#pe6becd4f69)" d="M 398.1354 340.264 
L 386.3544 350.362 
L 386.3544 355.972 
" style="fill:none;stroke:#000000;stroke-linecap:round;stroke-width:0.9;"/>
   </g>
   <g id="line2d_44">
    <path clip-path="url(#pe6becd4f69)" d="M 386.3544 313.336 
L 386.3544 294.211 
L 386.3544 275.086 
" style="fill:none;stroke:#000000;stroke-linecap:round;stroke-width:0.9;"/>
   </g>
   <g id="line2d_45">
    <path clip-path="url(#pe6becd4f69)" d="M 386.3544 275.086 
L 367.2294 275.086 
L 348.1044 275.086 
" style="fill:none;stroke:#000000;stroke-linecap:round;stroke-width:0.9;"/>
   </g>
   <g id="line2d_46">
    <path clip-path="url(#pe6becd4f69)" d="M 348.1044 275.086 
L 348.1044 255.961 
L 348.1044 236.836 
" style="fill:none;stroke:#000000;stroke-linecap:round;stroke-width:0.9;"/>
   </g>
   <g id="line2d_47">
    <path clip-path="url(#pe6becd4f69)" d="M 325.1034 215.518 
L 336.3234 215.518 
" style="fill:none;stroke:#000000;stroke-linecap:round;stroke-width:0.9;"/>
   </g>
   <g id="line2d_48">
    <path clip-path="url(#pe6becd4f69)" d="M 336.3234 204.298 
L 336.3234 226.738 
" style="fill:none;stroke:#000000;stroke-linecap:round;stroke-width:0.9;"/>
   </g>
   <g id="line2d_49">
    <path clip-path="url(#pe6becd4f69)" d="M 336.3234 209.908 
L 348.1044 199.81 
L 348.1044 194.2 
" style="fill:none;stroke:#000000;stroke-linecap:round;stroke-width:0.9;"/>
   </g>
   <g id="line2d_50">
    <path clip-path="url(#pe6becd4f69)" d="M 336.3234 221.128 
L 348.1044 231.226 
L 348.1044 236.836 
" style="fill:none;stroke:#000000;stroke-linecap:round;stroke-width:0.9;"/>
   </g>
   <g id="line2d_51">
    <path clip-path="url(#pe6becd4f69)" d="M 348.1044 194.2 
L 348.1044 179.85625 
L 348.1044 165.5125 
" style="fill:none;stroke:#000000;stroke-linecap:round;stroke-width:0.9;"/>
   </g>
   <g id="line2d_52">
    <path clip-path="url(#pe6becd4f69)" d="M 348.1044 165.5125 
L 233.3544 165.5125 
L 118.6044 165.5125 
" style="fill:none;stroke:#000000;stroke-linecap:round;stroke-width:0.9;"/>
   </g>
   <g id="line2d_53">
    <path clip-path="url(#pe6becd4f69)" d="M 386.3544 275.086 
L 405.4794 275.086 
L 424.6044 275.086 
" style="fill:none;stroke:#000000;stroke-linecap:round;stroke-width:0.9;"/>
   </g>
   <g id="line2d_54">
    <path clip-path="url(#pe6becd4f69)" d="M 424.6044 275.086 
L 424.6044 255.961 
L 424.6044 236.836 
" style="fill:none;stroke:#000000;stroke-linecap:round;stroke-width:0.9;"/>
   </g>
   <g id="line2d_55">
    <path clip-path="url(#pe6becd4f69)" d="M 409.3554 334.654 
L 418.9179 334.654 
L 428.4804 334.654 
" style="fill:none;stroke:#000000;stroke-linecap:round;stroke-width:0.9;"/>
   </g>
   <g id="line2d_56">
    <path clip-path="url(#pe6becd4f69)" d="M 428.4804 334.654 
L 428.4804 322.414 
" style="fill:none;stroke:#000000;stroke-linecap:round;stroke-width:0.9;"/>
   </g>
   <g id="line2d_57">
    <path clip-path="url(#pe6becd4f69)" d="M 428.4804 322.414 
L 422.7429 322.414 
" style="fill:none;stroke:#000000;stroke-linecap:round;stroke-width:0.9;"/>
   </g>
   <g id="line2d_58">
    <path clip-path="url(#pe6becd4f69)" d="M 428.4804 322.414 
L 434.2179 322.414 
" style="fill:none;stroke:#000000;stroke-linecap:round;stroke-width:0.9;"/>
   </g>
   <g id="line2d_59">
    <path clip-path="url(#pe6becd4f69)" d="M 133.8534 334.654 
L 114.7284 334.654 
L 95.6034 334.654 
" style="fill:none;stroke:#000000;stroke-linecap:round;stroke-width:0.9;"/>
   </g>
   <g id="line2d_60">
    <path clip-path="url(#pe6becd4f69)" d="M 95.6034 334.654 
L 60.1074 334.654 
M 60.1074 342.304 
L 60.1074 327.004 
M 54.5994 342.304 
L 54.5994 327.004 
M 54.5994 334.654 
L 19.1034 334.654 
" style="fill:none;stroke:#000000;stroke-linecap:round;stroke-width:0.9;"/>
   </g>
   <g id="line2d_61">
    <path clip-path="url(#pe6becd4f69)" d="M 95.6034 334.654 
L 95.6034 322.414 
" style="fill:none;stroke:#000000;stroke-linecap:round;stroke-width:0.9;"/>
   </g>
   <g id="line2d_62">
    <path clip-path="url(#pe6becd4f69)" d="M 95.6034 322.414 
L 89.8659 322.414 
" style="fill:none;stroke:#000000;stroke-linecap:round;stroke-width:0.9;"/>
   </g>
   <g id="line2d_63">
    <path clip-path="url(#pe6becd4f69)" d="M 95.6034 322.414 
L 101.3409 322.414 
" style="fill:none;stroke:#000000;stroke-linecap:round;stroke-width:0.9;"/>
   </g>
   <g id="line2d_64">
    <path clip-path="url(#pe6becd4f69)" d="M 156.8544 275.086 
L 175.9794 275.086 
L 195.1044 275.086 
" style="fill:none;stroke:#000000;stroke-linecap:round;stroke-width:0.9;"/>
   </g>
   <g id="line2d_65">
    <path clip-path="url(#pe6becd4f69)" d="M 195.1044 275.086 
L 195.1044 255.961 
L 195.1044 236.836 
" style="fill:none;stroke:#000000;stroke-linecap:round;stroke-width:0.9;"/>
   </g>
   <g id="line2d_66">
    <path clip-path="url(#pe6becd4f69)" d="M 218.1054 215.518 
L 206.8854 215.518 
" style="fill:none;stroke:#000000;stroke-linecap:round;stroke-width:0.9;"/>
   </g>
   <g id="line2d_67">
    <path clip-path="url(#pe6becd4f69)" d="M 206.8854 204.298 
L 206.8854 226.738 
" style="fill:none;stroke:#000000;stroke-linecap:round;stroke-width:0.9;"/>
   </g>
   <g id="line2d_68">
    <path clip-path="url(#pe6becd4f69)" d="M 206.8854 209.908 
L 195.1044 199.81 
L 195.1044 194.2 
" style="fill:none;stroke:#000000;stroke-linecap:round;stroke-width:0.9;"/>
   </g>
   <g id="line2d_69">
    <path clip-path="url(#pe6becd4f69)" d="M 206.8854 221.128 
L 195.1044 231.226 
L 195.1044 236.836 
" style="fill:none;stroke:#000000;stroke-linecap:round;stroke-width:0.9;"/>
   </g>
   <g id="line2d_70">
    <path clip-path="url(#pe6becd4f69)" d="M 195.1044 194.2 
L 195.1044 175.075 
L 195.1044 155.95 
" style="fill:none;stroke:#000000;stroke-linecap:round;stroke-width:0.9;"/>
   </g>
   <g id="line2d_71">
    <path clip-path="url(#pe6becd4f69)" d="M 195.1044 155.95 
L 309.8544 155.95 
L 424.6044 155.95 
" style="fill:none;stroke:#000000;stroke-linecap:round;stroke-width:0.9;"/>
   </g>
   <g id="line2d_72">
    <path clip-path="url(#pe6becd4f69)" d="M 218.1054 215.518 
L 244.8804 215.518 
L 271.6554 215.518 
" style="fill:none;stroke:#000000;stroke-linecap:round;stroke-width:0.9;"/>
   </g>
   <g id="line2d_73">
    <path clip-path="url(#pe6becd4f69)" d="M 271.6554 215.518 
L 298.3794 215.518 
L 325.1034 215.518 
" style="fill:none;stroke:#000000;stroke-linecap:round;stroke-width:0.9;"/>
   </g>
   <g id="line2d_74">
    <path clip-path="url(#pe6becd4f69)" d="M 271.6554 215.518 
L 271.6554 217.908625 
L 271.6554 220.29925 
" style="fill:none;stroke:#000000;stroke-linecap:round;stroke-width:0.9;"/>
   </g>
   <g id="line2d_75">
    <path clip-path="url(#pe6becd4f69)" d="M 271.6554 220.29925 
L 271.6554 232.53925 
L 264.0054 232.53925 
L 279.3054 232.53925 
M 266.3004 236.21125 
L 277.0104 236.21125 
M 270.1254 239.88325 
L 273.1854 239.88325 
" style="fill:none;stroke:#000000;stroke-linecap:round;stroke-width:0.9;"/>
   </g>
   <g id="text_1">
    <!-- $Q_1$ -->
    <g transform="translate(132.3234 219.636125)scale(0.14 -0.14)">
     <defs>
      <path d="M 36.078125 -1.3125 
Q 35.546875 -1.375 34.953125 -1.390625 
Q 34.375 -1.421875 33.203125 -1.421875 
Q 19.53125 -1.421875 11.8125 6.421875 
Q 4.109375 14.265625 4.109375 28.078125 
Q 4.109375 36.234375 7.0625 44.4375 
Q 10.015625 52.640625 15.28125 59.1875 
Q 21.390625 66.703125 29.03125 70.453125 
Q 36.671875 74.21875 45.90625 74.21875 
Q 59.28125 74.21875 66.984375 66.328125 
Q 74.703125 58.453125 74.703125 44.828125 
Q 74.703125 30.125 66.640625 17.921875 
Q 58.59375 5.71875 45.609375 0.6875 
L 55.515625 -12.890625 
L 44.484375 -12.890625 
z
M 45.609375 66.21875 
Q 37.5 66.21875 31.296875 62.28125 
Q 25.09375 58.34375 20.515625 50.296875 
Q 17.578125 45.171875 16.03125 39.40625 
Q 14.5 33.640625 14.5 27.78125 
Q 14.5 17.625 19.359375 12.109375 
Q 24.21875 6.59375 33.109375 6.59375 
Q 41.109375 6.59375 47.375 10.5625 
Q 53.65625 14.546875 58.109375 22.40625 
Q 61.078125 27.6875 62.640625 33.46875 
Q 64.203125 39.265625 64.203125 45.015625 
Q 64.203125 55.125 59.3125 60.671875 
Q 54.4375 66.21875 45.609375 66.21875 
z
" id="DejaVuSans-Oblique-81"/>
      <path d="M 12.40625 8.296875 
L 28.515625 8.296875 
L 28.515625 63.921875 
L 10.984375 60.40625 
L 10.984375 69.390625 
L 28.421875 72.90625 
L 38.28125 72.90625 
L 38.28125 8.296875 
L 54.390625 8.296875 
L 54.390625 0 
L 12.40625 0 
z
" id="DejaVuSans-49"/>
     </defs>
     <use transform="translate(0 0.78125)" xlink:href="#DejaVuSans-Oblique-81"/>
     <use transform="translate(78.710938 -15.625)scale(0.7)" xlink:href="#DejaVuSans-49"/>
    </g>
   </g>
   <g id="text_2">
    <!-- $R_{1}$ -->
    <g transform="translate(91.5144 83.313125)scale(0.14 -0.14)">
     <defs>
      <path d="M 25.203125 64.796875 
L 20.21875 38.921875 
L 32.90625 38.921875 
Q 40.375 38.921875 44.984375 43.046875 
Q 49.609375 47.171875 49.609375 53.8125 
Q 49.609375 59.125 46.5 61.953125 
Q 43.40625 64.796875 37.59375 64.796875 
z
M 43.3125 35.015625 
Q 46.4375 34.28125 48.515625 31.390625 
Q 50.59375 28.515625 53.328125 19.921875 
L 59.515625 0 
L 49.125 0 
L 43.40625 18.703125 
Q 41.21875 25.921875 38.328125 28.359375 
Q 35.453125 30.8125 29.5 30.8125 
L 18.609375 30.8125 
L 12.59375 0 
L 2.6875 0 
L 16.890625 72.90625 
L 39.109375 72.90625 
Q 49.21875 72.90625 54.609375 68.328125 
Q 60.015625 63.765625 60.015625 55.171875 
Q 60.015625 47.5625 55.421875 41.984375 
Q 50.828125 36.421875 43.3125 35.015625 
z
" id="DejaVuSans-Oblique-82"/>
     </defs>
     <use transform="translate(0 0.09375)" xlink:href="#DejaVuSans-Oblique-82"/>
     <use transform="translate(69.482422 -16.3125)scale(0.7)" xlink:href="#DejaVuSans-49"/>
    </g>
   </g>
   <g id="text_3">
    <!-- +15V -->
    <g transform="translate(252.042681 22.988437)scale(0.14 -0.14)">
     <defs>
      <path d="M 46 62.703125 
L 46 35.5 
L 73.1875 35.5 
L 73.1875 27.203125 
L 46 27.203125 
L 46 0 
L 37.796875 0 
L 37.796875 27.203125 
L 10.59375 27.203125 
L 10.59375 35.5 
L 37.796875 35.5 
L 37.796875 62.703125 
z
" id="DejaVuSans-43"/>
      <path d="M 10.796875 72.90625 
L 49.515625 72.90625 
L 49.515625 64.59375 
L 19.828125 64.59375 
L 19.828125 46.734375 
Q 21.96875 47.46875 24.109375 47.828125 
Q 26.265625 48.1875 28.421875 48.1875 
Q 40.625 48.1875 47.75 41.5 
Q 54.890625 34.8125 54.890625 23.390625 
Q 54.890625 11.625 47.5625 5.09375 
Q 40.234375 -1.421875 26.90625 -1.421875 
Q 22.3125 -1.421875 17.546875 -0.640625 
Q 12.796875 0.140625 7.71875 1.703125 
L 7.71875 11.625 
Q 12.109375 9.234375 16.796875 8.0625 
Q 21.484375 6.890625 26.703125 6.890625 
Q 35.15625 6.890625 40.078125 11.328125 
Q 45.015625 15.765625 45.015625 23.390625 
Q 45.015625 31 40.078125 35.4375 
Q 35.15625 39.890625 26.703125 39.890625 
Q 22.75 39.890625 18.8125 39.015625 
Q 14.890625 38.140625 10.796875 36.28125 
z
" id="DejaVuSans-53"/>
      <path d="M 28.609375 0 
L 0.78125 72.90625 
L 11.078125 72.90625 
L 34.1875 11.53125 
L 57.328125 72.90625 
L 67.578125 72.90625 
L 39.796875 0 
z
" id="DejaVuSans-86"/>
     </defs>
     <use xlink:href="#DejaVuSans-43"/>
     <use x="83.789062" xlink:href="#DejaVuSans-49"/>
     <use x="147.412109" xlink:href="#DejaVuSans-53"/>
     <use x="211.035156" xlink:href="#DejaVuSans-86"/>
    </g>
   </g>
   <g id="text_4">
    <!-- $R_{2}$ -->
    <g transform="translate(397.5144 83.313125)scale(0.14 -0.14)">
     <defs>
      <path d="M 19.1875 8.296875 
L 53.609375 8.296875 
L 53.609375 0 
L 7.328125 0 
L 7.328125 8.296875 
Q 12.9375 14.109375 22.625 23.890625 
Q 32.328125 33.6875 34.8125 36.53125 
Q 39.546875 41.84375 41.421875 45.53125 
Q 43.3125 49.21875 43.3125 52.78125 
Q 43.3125 58.59375 39.234375 62.25 
Q 35.15625 65.921875 28.609375 65.921875 
Q 23.96875 65.921875 18.8125 64.3125 
Q 13.671875 62.703125 7.8125 59.421875 
L 7.8125 69.390625 
Q 13.765625 71.78125 18.9375 73 
Q 24.125 74.21875 28.421875 74.21875 
Q 39.75 74.21875 46.484375 68.546875 
Q 53.21875 62.890625 53.21875 53.421875 
Q 53.21875 48.921875 51.53125 44.890625 
Q 49.859375 40.875 45.40625 35.40625 
Q 44.1875 33.984375 37.640625 27.21875 
Q 31.109375 20.453125 19.1875 8.296875 
z
" id="DejaVuSans-50"/>
     </defs>
     <use transform="translate(0 0.09375)" xlink:href="#DejaVuSans-Oblique-82"/>
     <use transform="translate(69.482422 -16.3125)scale(0.7)" xlink:href="#DejaVuSans-50"/>
    </g>
   </g>
   <g id="text_5">
    <!-- $Q_4$ -->
    <g transform="translate(393.2454 219.636125)scale(0.14 -0.14)">
     <defs>
      <path d="M 37.796875 64.3125 
L 12.890625 25.390625 
L 37.796875 25.390625 
z
M 35.203125 72.90625 
L 47.609375 72.90625 
L 47.609375 25.390625 
L 58.015625 25.390625 
L 58.015625 17.1875 
L 47.609375 17.1875 
L 47.609375 0 
L 37.796875 0 
L 37.796875 17.1875 
L 4.890625 17.1875 
L 4.890625 26.703125 
z
" id="DejaVuSans-52"/>
     </defs>
     <use transform="translate(0 0.78125)" xlink:href="#DejaVuSans-Oblique-81"/>
     <use transform="translate(78.710938 -15.625)scale(0.7)" xlink:href="#DejaVuSans-52"/>
    </g>
   </g>
   <g id="text_6">
    <!-- b -->
    <g transform="translate(305.410494 121.563125)scale(0.14 -0.14)">
     <defs>
      <path d="M 48.6875 27.296875 
Q 48.6875 37.203125 44.609375 42.84375 
Q 40.53125 48.484375 33.40625 48.484375 
Q 26.265625 48.484375 22.1875 42.84375 
Q 18.109375 37.203125 18.109375 27.296875 
Q 18.109375 17.390625 22.1875 11.75 
Q 26.265625 6.109375 33.40625 6.109375 
Q 40.53125 6.109375 44.609375 11.75 
Q 48.6875 17.390625 48.6875 27.296875 
z
M 18.109375 46.390625 
Q 20.953125 51.265625 25.265625 53.625 
Q 29.59375 56 35.59375 56 
Q 45.5625 56 51.78125 48.09375 
Q 58.015625 40.1875 58.015625 27.296875 
Q 58.015625 14.40625 51.78125 6.484375 
Q 45.5625 -1.421875 35.59375 -1.421875 
Q 29.59375 -1.421875 25.265625 0.953125 
Q 20.953125 3.328125 18.109375 8.203125 
L 18.109375 0 
L 9.078125 0 
L 9.078125 75.984375 
L 18.109375 75.984375 
z
" id="DejaVuSans-98"/>
     </defs>
     <use xlink:href="#DejaVuSans-98"/>
    </g>
   </g>
   <g id="text_7">
    <!-- OUT -->
    <g transform="translate(256.695494 121.563125)scale(0.14 -0.14)">
     <defs>
      <path d="M 39.40625 66.21875 
Q 28.65625 66.21875 22.328125 58.203125 
Q 16.015625 50.203125 16.015625 36.375 
Q 16.015625 22.609375 22.328125 14.59375 
Q 28.65625 6.59375 39.40625 6.59375 
Q 50.140625 6.59375 56.421875 14.59375 
Q 62.703125 22.609375 62.703125 36.375 
Q 62.703125 50.203125 56.421875 58.203125 
Q 50.140625 66.21875 39.40625 66.21875 
z
M 39.40625 74.21875 
Q 54.734375 74.21875 63.90625 63.9375 
Q 73.09375 53.65625 73.09375 36.375 
Q 73.09375 19.140625 63.90625 8.859375 
Q 54.734375 -1.421875 39.40625 -1.421875 
Q 24.03125 -1.421875 14.8125 8.828125 
Q 5.609375 19.09375 5.609375 36.375 
Q 5.609375 53.65625 14.8125 63.9375 
Q 24.03125 74.21875 39.40625 74.21875 
z
" id="DejaVuSans-79"/>
      <path d="M 8.6875 72.90625 
L 18.609375 72.90625 
L 18.609375 28.609375 
Q 18.609375 16.890625 22.84375 11.734375 
Q 27.09375 6.59375 36.625 6.59375 
Q 46.09375 6.59375 50.34375 11.734375 
Q 54.59375 16.890625 54.59375 28.609375 
L 54.59375 72.90625 
L 64.5 72.90625 
L 64.5 27.390625 
Q 64.5 13.140625 57.4375 5.859375 
Q 50.390625 -1.421875 36.625 -1.421875 
Q 22.796875 -1.421875 15.734375 5.859375 
Q 8.6875 13.140625 8.6875 27.390625 
z
" id="DejaVuSans-85"/>
      <path d="M -0.296875 72.90625 
L 61.375 72.90625 
L 61.375 64.59375 
L 35.5 64.59375 
L 35.5 0 
L 25.59375 0 
L 25.59375 64.59375 
L -0.296875 64.59375 
z
" id="DejaVuSans-84"/>
     </defs>
     <use xlink:href="#DejaVuSans-79"/>
     <use x="78.710938" xlink:href="#DejaVuSans-85"/>
     <use x="151.904297" xlink:href="#DejaVuSans-84"/>
    </g>
   </g>
   <g id="text_8">
    <!-- a -->
    <g transform="translate(229.064713 121.563125)scale(0.14 -0.14)">
     <defs>
      <path d="M 34.28125 27.484375 
Q 23.390625 27.484375 19.1875 25 
Q 14.984375 22.515625 14.984375 16.5 
Q 14.984375 11.71875 18.140625 8.90625 
Q 21.296875 6.109375 26.703125 6.109375 
Q 34.1875 6.109375 38.703125 11.40625 
Q 43.21875 16.703125 43.21875 25.484375 
L 43.21875 27.484375 
z
M 52.203125 31.203125 
L 52.203125 0 
L 43.21875 0 
L 43.21875 8.296875 
Q 40.140625 3.328125 35.546875 0.953125 
Q 30.953125 -1.421875 24.3125 -1.421875 
Q 15.921875 -1.421875 10.953125 3.296875 
Q 6 8.015625 6 15.921875 
Q 6 25.140625 12.171875 29.828125 
Q 18.359375 34.515625 30.609375 34.515625 
L 43.21875 34.515625 
L 43.21875 35.40625 
Q 43.21875 41.609375 39.140625 45 
Q 35.0625 48.390625 27.6875 48.390625 
Q 23 48.390625 18.546875 47.265625 
Q 14.109375 46.140625 10.015625 43.890625 
L 10.015625 52.203125 
Q 14.9375 54.109375 19.578125 55.046875 
Q 24.21875 56 28.609375 56 
Q 40.484375 56 46.34375 49.84375 
Q 52.203125 43.703125 52.203125 31.203125 
z
" id="DejaVuSans-97"/>
     </defs>
     <use xlink:href="#DejaVuSans-97"/>
    </g>
   </g>
   <g id="text_9">
    <!-- $Q_5$ -->
    <g transform="translate(170.5734 338.772125)scale(0.14 -0.14)">
     <use transform="translate(0 0.78125)" xlink:href="#DejaVuSans-Oblique-81"/>
     <use transform="translate(78.710938 -15.625)scale(0.7)" xlink:href="#DejaVuSans-53"/>
    </g>
   </g>
   <g id="text_10">
    <!-- $R_3$ -->
    <g transform="translate(244.5144 436.335125)scale(0.14 -0.14)">
     <defs>
      <path d="M 40.578125 39.3125 
Q 47.65625 37.796875 51.625 33 
Q 55.609375 28.21875 55.609375 21.1875 
Q 55.609375 10.40625 48.1875 4.484375 
Q 40.765625 -1.421875 27.09375 -1.421875 
Q 22.515625 -1.421875 17.65625 -0.515625 
Q 12.796875 0.390625 7.625 2.203125 
L 7.625 11.71875 
Q 11.71875 9.328125 16.59375 8.109375 
Q 21.484375 6.890625 26.8125 6.890625 
Q 36.078125 6.890625 40.9375 10.546875 
Q 45.796875 14.203125 45.796875 21.1875 
Q 45.796875 27.640625 41.28125 31.265625 
Q 36.765625 34.90625 28.71875 34.90625 
L 20.21875 34.90625 
L 20.21875 43.015625 
L 29.109375 43.015625 
Q 36.375 43.015625 40.234375 45.921875 
Q 44.09375 48.828125 44.09375 54.296875 
Q 44.09375 59.90625 40.109375 62.90625 
Q 36.140625 65.921875 28.71875 65.921875 
Q 24.65625 65.921875 20.015625 65.03125 
Q 15.375 64.15625 9.8125 62.3125 
L 9.8125 71.09375 
Q 15.4375 72.65625 20.34375 73.4375 
Q 25.25 74.21875 29.59375 74.21875 
Q 40.828125 74.21875 47.359375 69.109375 
Q 53.90625 64.015625 53.90625 55.328125 
Q 53.90625 49.265625 50.4375 45.09375 
Q 46.96875 40.921875 40.578125 39.3125 
z
" id="DejaVuSans-51"/>
     </defs>
     <use transform="translate(0 0.09375)" xlink:href="#DejaVuSans-Oblique-82"/>
     <use transform="translate(69.482422 -16.3125)scale(0.7)" xlink:href="#DejaVuSans-51"/>
    </g>
   </g>
   <g id="text_11">
    <!-- -15V -->
    <g transform="translate(255.382994 496.659812)scale(0.14 -0.14)">
     <defs>
      <path d="M 4.890625 31.390625 
L 31.203125 31.390625 
L 31.203125 23.390625 
L 4.890625 23.390625 
z
" id="DejaVuSans-45"/>
     </defs>
     <use xlink:href="#DejaVuSans-45"/>
     <use x="36.083984" xlink:href="#DejaVuSans-49"/>
     <use x="99.707031" xlink:href="#DejaVuSans-53"/>
     <use x="163.330078" xlink:href="#DejaVuSans-86"/>
    </g>
   </g>
   <g id="text_12">
    <!-- $Q_6$ -->
    <g transform="translate(354.9954 338.772125)scale(0.14 -0.14)">
     <defs>
      <path d="M 33.015625 40.375 
Q 26.375 40.375 22.484375 35.828125 
Q 18.609375 31.296875 18.609375 23.390625 
Q 18.609375 15.53125 22.484375 10.953125 
Q 26.375 6.390625 33.015625 6.390625 
Q 39.65625 6.390625 43.53125 10.953125 
Q 47.40625 15.53125 47.40625 23.390625 
Q 47.40625 31.296875 43.53125 35.828125 
Q 39.65625 40.375 33.015625 40.375 
z
M 52.59375 71.296875 
L 52.59375 62.3125 
Q 48.875 64.0625 45.09375 64.984375 
Q 41.3125 65.921875 37.59375 65.921875 
Q 27.828125 65.921875 22.671875 59.328125 
Q 17.53125 52.734375 16.796875 39.40625 
Q 19.671875 43.65625 24.015625 45.921875 
Q 28.375 48.1875 33.59375 48.1875 
Q 44.578125 48.1875 50.953125 41.515625 
Q 57.328125 34.859375 57.328125 23.390625 
Q 57.328125 12.15625 50.6875 5.359375 
Q 44.046875 -1.421875 33.015625 -1.421875 
Q 20.359375 -1.421875 13.671875 8.265625 
Q 6.984375 17.96875 6.984375 36.375 
Q 6.984375 53.65625 15.1875 63.9375 
Q 23.390625 74.21875 37.203125 74.21875 
Q 40.921875 74.21875 44.703125 73.484375 
Q 48.484375 72.75 52.59375 71.296875 
z
" id="DejaVuSans-54"/>
     </defs>
     <use transform="translate(0 0.78125)" xlink:href="#DejaVuSans-Oblique-81"/>
     <use transform="translate(78.710938 -15.625)scale(0.7)" xlink:href="#DejaVuSans-54"/>
    </g>
   </g>
   <g id="text_13">
    <!-- $Q_3$ -->
    <g transform="translate(361.8234 219.636125)scale(0.14 -0.14)">
     <use transform="translate(0 0.78125)" xlink:href="#DejaVuSans-Oblique-81"/>
     <use transform="translate(78.710938 -15.625)scale(0.7)" xlink:href="#DejaVuSans-51"/>
    </g>
   </g>
   <g id="text_14">
    <!-- $V_{bias}$ -->
    <g transform="translate(413.4304 316.442437)scale(0.14 -0.14)">
     <defs>
      <path d="M 20.609375 0 
L 7.8125 72.90625 
L 17.484375 72.90625 
L 28.078125 10.203125 
L 63.484375 72.90625 
L 74.21875 72.90625 
L 32.078125 0 
z
" id="DejaVuSans-Oblique-86"/>
      <path d="M 49.515625 33.40625 
Q 49.515625 40.484375 46.265625 44.484375 
Q 43.015625 48.484375 37.3125 48.484375 
Q 33.15625 48.484375 29.515625 46.453125 
Q 25.875 44.4375 23.1875 40.578125 
Q 20.359375 36.53125 18.71875 31.171875 
Q 17.09375 25.828125 17.09375 20.515625 
Q 17.09375 13.765625 20.28125 9.9375 
Q 23.484375 6.109375 29.109375 6.109375 
Q 33.34375 6.109375 36.953125 8.078125 
Q 40.578125 10.0625 43.3125 13.921875 
Q 46.09375 17.921875 47.796875 23.234375 
Q 49.515625 28.5625 49.515625 33.40625 
z
M 21.578125 46.390625 
Q 24.90625 50.875 29.90625 53.4375 
Q 34.90625 56 40.375 56 
Q 48.78125 56 53.734375 50.328125 
Q 58.6875 44.671875 58.6875 35.015625 
Q 58.6875 27.09375 55.78125 19.671875 
Q 52.875 12.25 47.515625 6.5 
Q 44 2.6875 39.40625 0.625 
Q 34.8125 -1.421875 29.78125 -1.421875 
Q 24.46875 -1.421875 20.5625 1.015625 
Q 16.65625 3.46875 14.203125 8.296875 
L 12.59375 0 
L 3.609375 0 
L 18.40625 75.984375 
L 27.390625 75.984375 
z
" id="DejaVuSans-Oblique-98"/>
      <path d="M 18.3125 75.984375 
L 27.296875 75.984375 
L 25.09375 64.59375 
L 16.109375 64.59375 
z
M 14.203125 54.6875 
L 23.1875 54.6875 
L 12.5 0 
L 3.515625 0 
z
" id="DejaVuSans-Oblique-105"/>
      <path d="M 53.71875 31.203125 
L 47.609375 0 
L 38.625 0 
L 40.28125 8.296875 
Q 36.328125 3.421875 31.265625 1 
Q 26.21875 -1.421875 20.015625 -1.421875 
Q 13.03125 -1.421875 8.5625 2.84375 
Q 4.109375 7.125 4.109375 13.8125 
Q 4.109375 23.390625 11.75 28.953125 
Q 19.390625 34.515625 32.8125 34.515625 
L 45.3125 34.515625 
L 45.796875 36.921875 
Q 45.90625 37.3125 45.953125 37.765625 
Q 46 38.234375 46 39.203125 
Q 46 43.5625 42.453125 45.96875 
Q 38.921875 48.390625 32.515625 48.390625 
Q 28.125 48.390625 23.5 47.265625 
Q 18.890625 46.140625 14.015625 43.890625 
L 15.578125 52.203125 
Q 20.65625 54.109375 25.515625 55.046875 
Q 30.375 56 34.90625 56 
Q 44.578125 56 49.625 51.796875 
Q 54.6875 47.609375 54.6875 39.59375 
Q 54.6875 37.984375 54.4375 35.8125 
Q 54.203125 33.640625 53.71875 31.203125 
z
M 44 27.484375 
L 35.015625 27.484375 
Q 23.96875 27.484375 18.671875 24.53125 
Q 13.375 21.578125 13.375 15.375 
Q 13.375 11.078125 16.078125 8.640625 
Q 18.796875 6.203125 23.578125 6.203125 
Q 30.90625 6.203125 36.375 11.453125 
Q 41.84375 16.703125 43.609375 25.484375 
z
" id="DejaVuSans-Oblique-97"/>
      <path d="M 50 53.078125 
L 48.296875 44.578125 
Q 44.734375 46.53125 40.765625 47.5 
Q 36.8125 48.484375 32.625 48.484375 
Q 25.53125 48.484375 21.453125 46.0625 
Q 17.390625 43.65625 17.390625 39.5 
Q 17.390625 34.671875 26.859375 32.078125 
Q 27.59375 31.890625 27.9375 31.78125 
L 30.8125 30.90625 
Q 39.796875 28.421875 42.796875 25.6875 
Q 45.796875 22.953125 45.796875 18.21875 
Q 45.796875 9.515625 38.890625 4.046875 
Q 31.984375 -1.421875 20.796875 -1.421875 
Q 16.453125 -1.421875 11.671875 -0.578125 
Q 6.890625 0.25 1.125 2 
L 2.875 11.28125 
Q 7.8125 8.734375 12.59375 7.421875 
Q 17.390625 6.109375 21.78125 6.109375 
Q 28.375 6.109375 32.5 8.9375 
Q 36.625 11.765625 36.625 16.109375 
Q 36.625 20.796875 25.78125 23.6875 
L 24.859375 23.921875 
L 21.78125 24.703125 
Q 14.9375 26.515625 11.765625 29.46875 
Q 8.59375 32.421875 8.59375 37.015625 
Q 8.59375 45.75 15.15625 50.875 
Q 21.734375 56 33.015625 56 
Q 37.453125 56 41.671875 55.265625 
Q 45.90625 54.546875 50 53.078125 
z
" id="DejaVuSans-Oblique-115"/>
     </defs>
     <use transform="translate(0 0.09375)" xlink:href="#DejaVuSans-Oblique-86"/>
     <use transform="translate(68.408203 -16.3125)scale(0.7)" xlink:href="#DejaVuSans-Oblique-98"/>
     <use transform="translate(112.841797 -16.3125)scale(0.7)" xlink:href="#DejaVuSans-Oblique-105"/>
     <use transform="translate(132.290039 -16.3125)scale(0.7)" xlink:href="#DejaVuSans-Oblique-97"/>
     <use transform="translate(175.185547 -16.3125)scale(0.7)" xlink:href="#DejaVuSans-Oblique-115"/>
    </g>
   </g>
   <g id="text_15">
    <!-- $C_1$ -->
    <g transform="translate(49.0934 321.032437)scale(0.14 -0.14)">
     <defs>
      <path d="M 69.484375 67.28125 
L 67.484375 56.890625 
Q 62.796875 61.625 57.546875 63.921875 
Q 52.296875 66.21875 46.1875 66.21875 
Q 37.84375 66.21875 31.515625 62.203125 
Q 25.203125 58.203125 20.609375 50 
Q 17.671875 44.734375 16.125 38.84375 
Q 14.59375 32.953125 14.59375 27 
Q 14.59375 17.046875 19.75 11.8125 
Q 24.90625 6.59375 34.71875 6.59375 
Q 41.5 6.59375 47.75 8.765625 
Q 54 10.9375 59.90625 15.28125 
L 57.625 3.609375 
Q 51.8125 1.125 45.875 -0.140625 
Q 39.9375 -1.421875 33.984375 -1.421875 
Q 19.96875 -1.421875 12.078125 6.1875 
Q 4.203125 13.8125 4.203125 27.390625 
Q 4.203125 36.078125 7.203125 44.46875 
Q 10.203125 52.875 15.828125 59.8125 
Q 21.78125 67.1875 29.421875 70.703125 
Q 37.0625 74.21875 47.21875 74.21875 
Q 53.46875 74.21875 59.0625 72.484375 
Q 64.65625 70.75 69.484375 67.28125 
z
" id="DejaVuSans-Oblique-67"/>
     </defs>
     <use transform="translate(0 0.78125)" xlink:href="#DejaVuSans-Oblique-67"/>
     <use transform="translate(69.824219 -15.625)scale(0.7)" xlink:href="#DejaVuSans-49"/>
    </g>
   </g>
   <g id="text_16">
    <!-- x -->
    <g transform="translate(14.960275 308.733125)scale(0.14 -0.14)">
     <defs>
      <path d="M 54.890625 54.6875 
L 35.109375 28.078125 
L 55.90625 0 
L 45.3125 0 
L 29.390625 21.484375 
L 13.484375 0 
L 2.875 0 
L 24.125 28.609375 
L 4.6875 54.6875 
L 15.28125 54.6875 
L 29.78125 35.203125 
L 44.28125 54.6875 
z
" id="DejaVuSans-120"/>
     </defs>
     <use xlink:href="#DejaVuSans-120"/>
    </g>
   </g>
   <g id="text_17">
    <!-- IN -->
    <g transform="translate(11.801525 278.949125)scale(0.14 -0.14)">
     <defs>
      <path d="M 9.8125 72.90625 
L 19.671875 72.90625 
L 19.671875 0 
L 9.8125 0 
z
" id="DejaVuSans-73"/>
      <path d="M 9.8125 72.90625 
L 23.09375 72.90625 
L 55.421875 11.921875 
L 55.421875 72.90625 
L 64.984375 72.90625 
L 64.984375 0 
L 51.703125 0 
L 19.390625 60.984375 
L 19.390625 0 
L 9.8125 0 
z
" id="DejaVuSans-78"/>
     </defs>
     <use xlink:href="#DejaVuSans-73"/>
     <use x="29.492188" xlink:href="#DejaVuSans-78"/>
    </g>
   </g>
   <g id="text_18">
    <!-- y -->
    <g transform="translate(14.960275 249.165125)scale(0.14 -0.14)">
     <defs>
      <path d="M 32.171875 -5.078125 
Q 28.375 -14.84375 24.75 -17.8125 
Q 21.140625 -20.796875 15.09375 -20.796875 
L 7.90625 -20.796875 
L 7.90625 -13.28125 
L 13.1875 -13.28125 
Q 16.890625 -13.28125 18.9375 -11.515625 
Q 21 -9.765625 23.484375 -3.21875 
L 25.09375 0.875 
L 2.984375 54.6875 
L 12.5 54.6875 
L 29.59375 11.921875 
L 46.6875 54.6875 
L 56.203125 54.6875 
z
" id="DejaVuSans-121"/>
     </defs>
     <use xlink:href="#DejaVuSans-121"/>
    </g>
   </g>
   <g id="text_19">
    <!-- $V_{bias}$ -->
    <g transform="translate(80.5534 316.442437)scale(0.14 -0.14)">
     <use transform="translate(0 0.09375)" xlink:href="#DejaVuSans-Oblique-86"/>
     <use transform="translate(68.408203 -16.3125)scale(0.7)" xlink:href="#DejaVuSans-Oblique-98"/>
     <use transform="translate(112.841797 -16.3125)scale(0.7)" xlink:href="#DejaVuSans-Oblique-105"/>
     <use transform="translate(132.290039 -16.3125)scale(0.7)" xlink:href="#DejaVuSans-Oblique-97"/>
     <use transform="translate(175.185547 -16.3125)scale(0.7)" xlink:href="#DejaVuSans-Oblique-115"/>
    </g>
   </g>
   <g id="text_20">
    <!-- $Q_2$ -->
    <g transform="translate(163.7454 219.636125)scale(0.14 -0.14)">
     <use transform="translate(0 0.78125)" xlink:href="#DejaVuSans-Oblique-81"/>
     <use transform="translate(78.710938 -15.625)scale(0.7)" xlink:href="#DejaVuSans-50"/>
    </g>
   </g>
   <g id="patch_14">
    <path clip-path="url(#pe6becd4f69)" d="M 19.1034 217.813 
C 19.712041 217.813 20.295836 217.571184 20.72621 217.14081 
C 21.156584 216.710436 21.3984 216.126641 21.3984 215.518 
C 21.3984 214.909359 21.156584 214.325564 20.72621 213.89519 
C 20.295836 213.464816 19.712041 213.223 19.1034 213.223 
C 18.494759 213.223 17.910964 213.464816 17.48059 213.89519 
C 17.050216 214.325564 16.8084 214.909359 16.8084 215.518 
C 16.8084 216.126641 17.050216 216.710436 17.48059 217.14081 
C 17.910964 217.571184 18.494759 217.813 19.1034 217.813 
z
" style="fill:#ffffff;stroke:#000000;stroke-linejoin:miter;stroke-width:0.9;"/>
   </g>
   <g id="patch_15">
    <path clip-path="url(#pe6becd4f69)" d="M 271.6044 43.495 
C 272.213041 43.495 272.796836 43.253184 273.22721 42.82281 
C 273.657584 42.392436 273.8994 41.808641 273.8994 41.2 
C 273.8994 40.591359 273.657584 40.007564 273.22721 39.57719 
C 272.796836 39.146816 272.213041 38.905 271.6044 38.905 
C 270.995759 38.905 270.411964 39.146816 269.98159 39.57719 
C 269.551216 40.007564 269.3094 40.591359 269.3094 41.2 
C 269.3094 41.808641 269.551216 42.392436 269.98159 42.82281 
C 270.411964 43.253184 270.995759 43.495 271.6044 43.495 
z
" style="stroke:#000000;stroke-linejoin:miter;stroke-width:0.9;"/>
   </g>
   <g id="patch_16">
    <path clip-path="url(#pe6becd4f69)" d="M 65.1054 217.813 
C 65.714041 217.813 66.297836 217.571184 66.72821 217.14081 
C 67.158584 216.710436 67.4004 216.126641 67.4004 215.518 
C 67.4004 214.909359 67.158584 214.325564 66.72821 213.89519 
C 66.297836 213.464816 65.714041 213.223 65.1054 213.223 
C 64.496759 213.223 63.912964 213.464816 63.48259 213.89519 
C 63.052216 214.325564 62.8104 214.909359 62.8104 215.518 
C 62.8104 216.126641 63.052216 216.710436 63.48259 217.14081 
C 63.912964 217.571184 64.496759 217.813 65.1054 217.813 
z
" style="stroke:#000000;stroke-linejoin:miter;stroke-width:0.9;"/>
   </g>
   <g id="patch_17">
    <path clip-path="url(#pe6becd4f69)" d="M 118.6044 119.995 
C 119.213041 119.995 119.796836 119.753184 120.22721 119.32281 
C 120.657584 118.892436 120.8994 118.308641 120.8994 117.7 
C 120.8994 117.091359 120.657584 116.507564 120.22721 116.07719 
C 119.796836 115.646816 119.213041 115.405 118.6044 115.405 
C 117.995759 115.405 117.411964 115.646816 116.98159 116.07719 
C 116.551216 116.507564 116.3094 117.091359 116.3094 117.7 
C 116.3094 118.308641 116.551216 118.892436 116.98159 119.32281 
C 117.411964 119.753184 117.995759 119.995 118.6044 119.995 
z
" style="stroke:#000000;stroke-linejoin:miter;stroke-width:0.9;"/>
   </g>
   <g id="patch_18">
    <path clip-path="url(#pe6becd4f69)" d="M 195.1044 119.995 
C 195.713041 119.995 196.296836 119.753184 196.72721 119.32281 
C 197.157584 118.892436 197.3994 118.308641 197.3994 117.7 
C 197.3994 117.091359 197.157584 116.507564 196.72721 116.07719 
C 196.296836 115.646816 195.713041 115.405 195.1044 115.405 
C 194.495759 115.405 193.911964 115.646816 193.48159 116.07719 
C 193.051216 116.507564 192.8094 117.091359 192.8094 117.7 
C 192.8094 118.308641 193.051216 118.892436 193.48159 119.32281 
C 193.911964 119.753184 194.495759 119.995 195.1044 119.995 
z
" style="fill:#ffffff;stroke:#000000;stroke-linejoin:miter;stroke-width:0.9;"/>
   </g>
   <g id="patch_19">
    <path clip-path="url(#pe6becd4f69)" d="M 424.6044 119.995 
C 425.213041 119.995 425.796836 119.753184 426.22721 119.32281 
C 426.657584 118.892436 426.8994 118.308641 426.8994 117.7 
C 426.8994 117.091359 426.657584 116.507564 426.22721 116.07719 
C 425.796836 115.646816 425.213041 115.405 424.6044 115.405 
C 423.995759 115.405 423.411964 115.646816 422.98159 116.07719 
C 422.551216 116.507564 422.3094 117.091359 422.3094 117.7 
C 422.3094 118.308641 422.551216 118.892436 422.98159 119.32281 
C 423.411964 119.753184 423.995759 119.995 424.6044 119.995 
z
" style="stroke:#000000;stroke-linejoin:miter;stroke-width:0.9;"/>
   </g>
   <g id="patch_20">
    <path clip-path="url(#pe6becd4f69)" d="M 348.1044 119.995 
C 348.713041 119.995 349.296836 119.753184 349.72721 119.32281 
C 350.157584 118.892436 350.3994 118.308641 350.3994 117.7 
C 350.3994 117.091359 350.157584 116.507564 349.72721 116.07719 
C 349.296836 115.646816 348.713041 115.405 348.1044 115.405 
C 347.495759 115.405 346.911964 115.646816 346.48159 116.07719 
C 346.051216 116.507564 345.8094 117.091359 345.8094 117.7 
C 345.8094 118.308641 346.051216 118.892436 346.48159 119.32281 
C 346.911964 119.753184 347.495759 119.995 348.1044 119.995 
z
" style="fill:#ffffff;stroke:#000000;stroke-linejoin:miter;stroke-width:0.9;"/>
   </g>
   <g id="patch_21">
    <path clip-path="url(#pe6becd4f69)" d="M 156.8544 277.381 
C 157.463041 277.381 158.046836 277.139184 158.47721 276.70881 
C 158.907584 276.278436 159.1494 275.694641 159.1494 275.086 
C 159.1494 274.477359 158.907584 273.893564 158.47721 273.46319 
C 158.046836 273.032816 157.463041 272.791 156.8544 272.791 
C 156.245759 272.791 155.661964 273.032816 155.23159 273.46319 
C 154.801216 273.893564 154.5594 274.477359 154.5594 275.086 
C 154.5594 275.694641 154.801216 276.278436 155.23159 276.70881 
C 155.661964 277.139184 156.245759 277.381 156.8544 277.381 
z
" style="stroke:#000000;stroke-linejoin:miter;stroke-width:0.9;"/>
   </g>
   <g id="patch_22">
    <path clip-path="url(#pe6becd4f69)" d="M 271.6044 396.517 
C 272.213041 396.517 272.796836 396.275184 273.22721 395.84481 
C 273.657584 395.414436 273.8994 394.830641 273.8994 394.222 
C 273.8994 393.613359 273.657584 393.029564 273.22721 392.59919 
C 272.796836 392.168816 272.213041 391.927 271.6044 391.927 
C 270.995759 391.927 270.411964 392.168816 269.98159 392.59919 
C 269.551216 393.029564 269.3094 393.613359 269.3094 394.222 
C 269.3094 394.830641 269.551216 395.414436 269.98159 395.84481 
C 270.411964 396.275184 270.995759 396.517 271.6044 396.517 
z
" style="stroke:#000000;stroke-linejoin:miter;stroke-width:0.9;"/>
   </g>
   <g id="patch_23">
    <path clip-path="url(#pe6becd4f69)" d="M 386.3544 277.381 
C 386.963041 277.381 387.546836 277.139184 387.97721 276.70881 
C 388.407584 276.278436 388.6494 275.694641 388.6494 275.086 
C 388.6494 274.477359 388.407584 273.893564 387.97721 273.46319 
C 387.546836 273.032816 386.963041 272.791 386.3544 272.791 
C 385.745759 272.791 385.161964 273.032816 384.73159 273.46319 
C 384.301216 273.893564 384.0594 274.477359 384.0594 275.086 
C 384.0594 275.694641 384.301216 276.278436 384.73159 276.70881 
C 385.161964 277.139184 385.745759 277.381 386.3544 277.381 
z
" style="stroke:#000000;stroke-linejoin:miter;stroke-width:0.9;"/>
   </g>
   <g id="patch_24">
    <path clip-path="url(#pe6becd4f69)" d="M 118.6044 167.8075 
C 119.213041 167.8075 119.796836 167.565684 120.22721 167.13531 
C 120.657584 166.704936 120.8994 166.121141 120.8994 165.5125 
C 120.8994 164.903859 120.657584 164.320064 120.22721 163.88969 
C 119.796836 163.459316 119.213041 163.2175 118.6044 163.2175 
C 117.995759 163.2175 117.411964 163.459316 116.98159 163.88969 
C 116.551216 164.320064 116.3094 164.903859 116.3094 165.5125 
C 116.3094 166.121141 116.551216 166.704936 116.98159 167.13531 
C 117.411964 167.565684 117.995759 167.8075 118.6044 167.8075 
z
" style="stroke:#000000;stroke-linejoin:miter;stroke-width:0.9;"/>
   </g>
   <g id="patch_25">
    <path clip-path="url(#pe6becd4f69)" d="M 19.1034 336.949 
C 19.712041 336.949 20.295836 336.707184 20.72621 336.27681 
C 21.156584 335.846436 21.3984 335.262641 21.3984 334.654 
C 21.3984 334.045359 21.156584 333.461564 20.72621 333.03119 
C 20.295836 332.600816 19.712041 332.359 19.1034 332.359 
C 18.494759 332.359 17.910964 332.600816 17.48059 333.03119 
C 17.050216 333.461564 16.8084 334.045359 16.8084 334.654 
C 16.8084 335.262641 17.050216 335.846436 17.48059 336.27681 
C 17.910964 336.707184 18.494759 336.949 19.1034 336.949 
z
" style="fill:#ffffff;stroke:#000000;stroke-linejoin:miter;stroke-width:0.9;"/>
   </g>
   <g id="patch_26">
    <path clip-path="url(#pe6becd4f69)" d="M 424.6044 158.245 
C 425.213041 158.245 425.796836 158.003184 426.22721 157.57281 
C 426.657584 157.142436 426.8994 156.558641 426.8994 155.95 
C 426.8994 155.341359 426.657584 154.757564 426.22721 154.32719 
C 425.796836 153.896816 425.213041 153.655 424.6044 153.655 
C 423.995759 153.655 423.411964 153.896816 422.98159 154.32719 
C 422.551216 154.757564 422.3094 155.341359 422.3094 155.95 
C 422.3094 156.558641 422.551216 157.142436 422.98159 157.57281 
C 423.411964 158.003184 423.995759 158.245 424.6044 158.245 
z
" style="stroke:#000000;stroke-linejoin:miter;stroke-width:0.9;"/>
   </g>
   <g id="patch_27">
    <path clip-path="url(#pe6becd4f69)" d="M 271.6554 217.813 
C 272.264041 217.813 272.847836 217.571184 273.27821 217.14081 
C 273.708584 216.710436 273.9504 216.126641 273.9504 215.518 
C 273.9504 214.909359 273.708584 214.325564 273.27821 213.89519 
C 272.847836 213.464816 272.264041 213.223 271.6554 213.223 
C 271.046759 213.223 270.462964 213.464816 270.03259 213.89519 
C 269.602216 214.325564 269.3604 214.909359 269.3604 215.518 
C 269.3604 216.126641 269.602216 216.710436 270.03259 217.14081 
C 270.462964 217.571184 271.046759 217.813 271.6554 217.813 
z
" style="stroke:#000000;stroke-linejoin:miter;stroke-width:0.9;"/>
   </g>
  </g>
 </g>
 <defs>
  <clipPath id="pe6becd4f69">
   <rect height="494.462" width="481.7154" x="7.2" y="7.2"/>
  </clipPath>
 </defs>
</svg>
