<?xml version="1.0" encoding="utf-8" standalone="no"?>
<!DOCTYPE svg PUBLIC "-//W3C//DTD SVG 1.1//EN"
  "http://www.w3.org/Graphics/SVG/1.1/DTD/svg11.dtd">
<svg height="280.15625pt" version="1.1" viewBox="0 0 424.373437 280.15625" width="424.373437pt" xmlns="http://www.w3.org/2000/svg" xmlns:xlink="http://www.w3.org/1999/xlink">
 <metadata>
  <rdf:RDF xmlns:cc="http://creativecommons.org/ns#" xmlns:dc="http://purl.org/dc/elements/1.1/" xmlns:rdf="http://www.w3.org/1999/02/22-rdf-syntax-ns#">
   <cc:Work>
    <dc:type rdf:resource="http://purl.org/dc/dcmitype/StillImage"/>
    <dc:date>2021-05-20T16:27:10.964105</dc:date>
    <dc:format>image/svg+xml</dc:format>
    <dc:creator>
     <cc:Agent>
      <dc:title>Matplotlib v3.4.2, https://matplotlib.org/</dc:title>
     </cc:Agent>
    </dc:creator>
   </cc:Work>
  </rdf:RDF>
 </metadata>
 <defs>
  <style type="text/css">*{stroke-linecap:butt;stroke-linejoin:round;}</style>
 </defs>
 <g id="figure_1">
  <g id="patch_1">
   <path d="M 0 280.15625 
L 424.373437 280.15625 
L 424.373437 0 
L 0 0 
z
" style="fill:none;"/>
  </g>
  <g id="axes_1">
   <g id="patch_2">
    <path d="M 58.523438 242.6 
L 417.173437 242.6 
L 417.173437 7.2 
L 58.523438 7.2 
z
" style="fill:#ffffff;"/>
   </g>
   <g id="matplotlib.axis_1">
    <g id="xtick_1">
     <g id="line2d_1">
      <defs>
       <path d="M 0 0 
L 0 3.5 
" id="m30f2a17127" style="stroke:#000000;stroke-width:0.8;"/>
      </defs>
      <g>
       <use style="stroke:#000000;stroke-width:0.8;" x="74.82571" xlink:href="#m30f2a17127" y="242.6"/>
      </g>
     </g>
     <g id="text_1">
      <!-- 0.0 -->
      <g transform="translate(66.874148 257.198438)scale(0.1 -0.1)">
       <defs>
        <path d="M 2034 4250 
Q 1547 4250 1301 3770 
Q 1056 3291 1056 2328 
Q 1056 1369 1301 889 
Q 1547 409 2034 409 
Q 2525 409 2770 889 
Q 3016 1369 3016 2328 
Q 3016 3291 2770 3770 
Q 2525 4250 2034 4250 
z
M 2034 4750 
Q 2819 4750 3233 4129 
Q 3647 3509 3647 2328 
Q 3647 1150 3233 529 
Q 2819 -91 2034 -91 
Q 1250 -91 836 529 
Q 422 1150 422 2328 
Q 422 3509 836 4129 
Q 1250 4750 2034 4750 
z
" id="DejaVuSans-30" transform="scale(0.015625)"/>
        <path d="M 684 794 
L 1344 794 
L 1344 0 
L 684 0 
L 684 794 
z
" id="DejaVuSans-2e" transform="scale(0.015625)"/>
       </defs>
       <use xlink:href="#DejaVuSans-30"/>
       <use x="63.623047" xlink:href="#DejaVuSans-2e"/>
       <use x="95.410156" xlink:href="#DejaVuSans-30"/>
      </g>
     </g>
    </g>
    <g id="xtick_2">
     <g id="line2d_2">
      <g>
       <use style="stroke:#000000;stroke-width:0.8;" x="115.581392" xlink:href="#m30f2a17127" y="242.6"/>
      </g>
     </g>
     <g id="text_2">
      <!-- 2.5 -->
      <g transform="translate(107.62983 257.198438)scale(0.1 -0.1)">
       <defs>
        <path d="M 1228 531 
L 3431 531 
L 3431 0 
L 469 0 
L 469 531 
Q 828 903 1448 1529 
Q 2069 2156 2228 2338 
Q 2531 2678 2651 2914 
Q 2772 3150 2772 3378 
Q 2772 3750 2511 3984 
Q 2250 4219 1831 4219 
Q 1534 4219 1204 4116 
Q 875 4013 500 3803 
L 500 4441 
Q 881 4594 1212 4672 
Q 1544 4750 1819 4750 
Q 2544 4750 2975 4387 
Q 3406 4025 3406 3419 
Q 3406 3131 3298 2873 
Q 3191 2616 2906 2266 
Q 2828 2175 2409 1742 
Q 1991 1309 1228 531 
z
" id="DejaVuSans-32" transform="scale(0.015625)"/>
        <path d="M 691 4666 
L 3169 4666 
L 3169 4134 
L 1269 4134 
L 1269 2991 
Q 1406 3038 1543 3061 
Q 1681 3084 1819 3084 
Q 2600 3084 3056 2656 
Q 3513 2228 3513 1497 
Q 3513 744 3044 326 
Q 2575 -91 1722 -91 
Q 1428 -91 1123 -41 
Q 819 9 494 109 
L 494 744 
Q 775 591 1075 516 
Q 1375 441 1709 441 
Q 2250 441 2565 725 
Q 2881 1009 2881 1497 
Q 2881 1984 2565 2268 
Q 2250 2553 1709 2553 
Q 1456 2553 1204 2497 
Q 953 2441 691 2322 
L 691 4666 
z
" id="DejaVuSans-35" transform="scale(0.015625)"/>
       </defs>
       <use xlink:href="#DejaVuSans-32"/>
       <use x="63.623047" xlink:href="#DejaVuSans-2e"/>
       <use x="95.410156" xlink:href="#DejaVuSans-35"/>
      </g>
     </g>
    </g>
    <g id="xtick_3">
     <g id="line2d_3">
      <g>
       <use style="stroke:#000000;stroke-width:0.8;" x="156.337074" xlink:href="#m30f2a17127" y="242.6"/>
      </g>
     </g>
     <g id="text_3">
      <!-- 5.0 -->
      <g transform="translate(148.385511 257.198438)scale(0.1 -0.1)">
       <use xlink:href="#DejaVuSans-35"/>
       <use x="63.623047" xlink:href="#DejaVuSans-2e"/>
       <use x="95.410156" xlink:href="#DejaVuSans-30"/>
      </g>
     </g>
    </g>
    <g id="xtick_4">
     <g id="line2d_4">
      <g>
       <use style="stroke:#000000;stroke-width:0.8;" x="197.092756" xlink:href="#m30f2a17127" y="242.6"/>
      </g>
     </g>
     <g id="text_4">
      <!-- 7.5 -->
      <g transform="translate(189.141193 257.198438)scale(0.1 -0.1)">
       <defs>
        <path d="M 525 4666 
L 3525 4666 
L 3525 4397 
L 1831 0 
L 1172 0 
L 2766 4134 
L 525 4134 
L 525 4666 
z
" id="DejaVuSans-37" transform="scale(0.015625)"/>
       </defs>
       <use xlink:href="#DejaVuSans-37"/>
       <use x="63.623047" xlink:href="#DejaVuSans-2e"/>
       <use x="95.410156" xlink:href="#DejaVuSans-35"/>
      </g>
     </g>
    </g>
    <g id="xtick_5">
     <g id="line2d_5">
      <g>
       <use style="stroke:#000000;stroke-width:0.8;" x="237.848437" xlink:href="#m30f2a17127" y="242.6"/>
      </g>
     </g>
     <g id="text_5">
      <!-- 10.0 -->
      <g transform="translate(226.715625 257.198438)scale(0.1 -0.1)">
       <defs>
        <path d="M 794 531 
L 1825 531 
L 1825 4091 
L 703 3866 
L 703 4441 
L 1819 4666 
L 2450 4666 
L 2450 531 
L 3481 531 
L 3481 0 
L 794 0 
L 794 531 
z
" id="DejaVuSans-31" transform="scale(0.015625)"/>
       </defs>
       <use xlink:href="#DejaVuSans-31"/>
       <use x="63.623047" xlink:href="#DejaVuSans-30"/>
       <use x="127.246094" xlink:href="#DejaVuSans-2e"/>
       <use x="159.033203" xlink:href="#DejaVuSans-30"/>
      </g>
     </g>
    </g>
    <g id="xtick_6">
     <g id="line2d_6">
      <g>
       <use style="stroke:#000000;stroke-width:0.8;" x="278.604119" xlink:href="#m30f2a17127" y="242.6"/>
      </g>
     </g>
     <g id="text_6">
      <!-- 12.5 -->
      <g transform="translate(267.471307 257.198438)scale(0.1 -0.1)">
       <use xlink:href="#DejaVuSans-31"/>
       <use x="63.623047" xlink:href="#DejaVuSans-32"/>
       <use x="127.246094" xlink:href="#DejaVuSans-2e"/>
       <use x="159.033203" xlink:href="#DejaVuSans-35"/>
      </g>
     </g>
    </g>
    <g id="xtick_7">
     <g id="line2d_7">
      <g>
       <use style="stroke:#000000;stroke-width:0.8;" x="319.359801" xlink:href="#m30f2a17127" y="242.6"/>
      </g>
     </g>
     <g id="text_7">
      <!-- 15.0 -->
      <g transform="translate(308.226989 257.198438)scale(0.1 -0.1)">
       <use xlink:href="#DejaVuSans-31"/>
       <use x="63.623047" xlink:href="#DejaVuSans-35"/>
       <use x="127.246094" xlink:href="#DejaVuSans-2e"/>
       <use x="159.033203" xlink:href="#DejaVuSans-30"/>
      </g>
     </g>
    </g>
    <g id="xtick_8">
     <g id="line2d_8">
      <g>
       <use style="stroke:#000000;stroke-width:0.8;" x="360.115483" xlink:href="#m30f2a17127" y="242.6"/>
      </g>
     </g>
     <g id="text_8">
      <!-- 17.5 -->
      <g transform="translate(348.98267 257.198438)scale(0.1 -0.1)">
       <use xlink:href="#DejaVuSans-31"/>
       <use x="63.623047" xlink:href="#DejaVuSans-37"/>
       <use x="127.246094" xlink:href="#DejaVuSans-2e"/>
       <use x="159.033203" xlink:href="#DejaVuSans-35"/>
      </g>
     </g>
    </g>
    <g id="xtick_9">
     <g id="line2d_9">
      <g>
       <use style="stroke:#000000;stroke-width:0.8;" x="400.871165" xlink:href="#m30f2a17127" y="242.6"/>
      </g>
     </g>
     <g id="text_9">
      <!-- 20.0 -->
      <g transform="translate(389.738352 257.198438)scale(0.1 -0.1)">
       <use xlink:href="#DejaVuSans-32"/>
       <use x="63.623047" xlink:href="#DejaVuSans-30"/>
       <use x="127.246094" xlink:href="#DejaVuSans-2e"/>
       <use x="159.033203" xlink:href="#DejaVuSans-30"/>
      </g>
     </g>
    </g>
    <g id="text_10">
     <!-- time (ms) -->
     <g transform="translate(213.586719 270.876562)scale(0.1 -0.1)">
      <defs>
       <path d="M 1172 4494 
L 1172 3500 
L 2356 3500 
L 2356 3053 
L 1172 3053 
L 1172 1153 
Q 1172 725 1289 603 
Q 1406 481 1766 481 
L 2356 481 
L 2356 0 
L 1766 0 
Q 1100 0 847 248 
Q 594 497 594 1153 
L 594 3053 
L 172 3053 
L 172 3500 
L 594 3500 
L 594 4494 
L 1172 4494 
z
" id="DejaVuSans-74" transform="scale(0.015625)"/>
       <path d="M 603 3500 
L 1178 3500 
L 1178 0 
L 603 0 
L 603 3500 
z
M 603 4863 
L 1178 4863 
L 1178 4134 
L 603 4134 
L 603 4863 
z
" id="DejaVuSans-69" transform="scale(0.015625)"/>
       <path d="M 3328 2828 
Q 3544 3216 3844 3400 
Q 4144 3584 4550 3584 
Q 5097 3584 5394 3201 
Q 5691 2819 5691 2113 
L 5691 0 
L 5113 0 
L 5113 2094 
Q 5113 2597 4934 2840 
Q 4756 3084 4391 3084 
Q 3944 3084 3684 2787 
Q 3425 2491 3425 1978 
L 3425 0 
L 2847 0 
L 2847 2094 
Q 2847 2600 2669 2842 
Q 2491 3084 2119 3084 
Q 1678 3084 1418 2786 
Q 1159 2488 1159 1978 
L 1159 0 
L 581 0 
L 581 3500 
L 1159 3500 
L 1159 2956 
Q 1356 3278 1631 3431 
Q 1906 3584 2284 3584 
Q 2666 3584 2933 3390 
Q 3200 3197 3328 2828 
z
" id="DejaVuSans-6d" transform="scale(0.015625)"/>
       <path d="M 3597 1894 
L 3597 1613 
L 953 1613 
Q 991 1019 1311 708 
Q 1631 397 2203 397 
Q 2534 397 2845 478 
Q 3156 559 3463 722 
L 3463 178 
Q 3153 47 2828 -22 
Q 2503 -91 2169 -91 
Q 1331 -91 842 396 
Q 353 884 353 1716 
Q 353 2575 817 3079 
Q 1281 3584 2069 3584 
Q 2775 3584 3186 3129 
Q 3597 2675 3597 1894 
z
M 3022 2063 
Q 3016 2534 2758 2815 
Q 2500 3097 2075 3097 
Q 1594 3097 1305 2825 
Q 1016 2553 972 2059 
L 3022 2063 
z
" id="DejaVuSans-65" transform="scale(0.015625)"/>
       <path id="DejaVuSans-20" transform="scale(0.015625)"/>
       <path d="M 1984 4856 
Q 1566 4138 1362 3434 
Q 1159 2731 1159 2009 
Q 1159 1288 1364 580 
Q 1569 -128 1984 -844 
L 1484 -844 
Q 1016 -109 783 600 
Q 550 1309 550 2009 
Q 550 2706 781 3412 
Q 1013 4119 1484 4856 
L 1984 4856 
z
" id="DejaVuSans-28" transform="scale(0.015625)"/>
       <path d="M 2834 3397 
L 2834 2853 
Q 2591 2978 2328 3040 
Q 2066 3103 1784 3103 
Q 1356 3103 1142 2972 
Q 928 2841 928 2578 
Q 928 2378 1081 2264 
Q 1234 2150 1697 2047 
L 1894 2003 
Q 2506 1872 2764 1633 
Q 3022 1394 3022 966 
Q 3022 478 2636 193 
Q 2250 -91 1575 -91 
Q 1294 -91 989 -36 
Q 684 19 347 128 
L 347 722 
Q 666 556 975 473 
Q 1284 391 1588 391 
Q 1994 391 2212 530 
Q 2431 669 2431 922 
Q 2431 1156 2273 1281 
Q 2116 1406 1581 1522 
L 1381 1569 
Q 847 1681 609 1914 
Q 372 2147 372 2553 
Q 372 3047 722 3315 
Q 1072 3584 1716 3584 
Q 2034 3584 2315 3537 
Q 2597 3491 2834 3397 
z
" id="DejaVuSans-73" transform="scale(0.015625)"/>
       <path d="M 513 4856 
L 1013 4856 
Q 1481 4119 1714 3412 
Q 1947 2706 1947 2009 
Q 1947 1309 1714 600 
Q 1481 -109 1013 -844 
L 513 -844 
Q 928 -128 1133 580 
Q 1338 1288 1338 2009 
Q 1338 2731 1133 3434 
Q 928 4138 513 4856 
z
" id="DejaVuSans-29" transform="scale(0.015625)"/>
      </defs>
      <use xlink:href="#DejaVuSans-74"/>
      <use x="39.208984" xlink:href="#DejaVuSans-69"/>
      <use x="66.992188" xlink:href="#DejaVuSans-6d"/>
      <use x="164.404297" xlink:href="#DejaVuSans-65"/>
      <use x="225.927734" xlink:href="#DejaVuSans-20"/>
      <use x="257.714844" xlink:href="#DejaVuSans-28"/>
      <use x="296.728516" xlink:href="#DejaVuSans-6d"/>
      <use x="394.140625" xlink:href="#DejaVuSans-73"/>
      <use x="446.240234" xlink:href="#DejaVuSans-29"/>
     </g>
    </g>
   </g>
   <g id="matplotlib.axis_2">
    <g id="ytick_1">
     <g id="line2d_10">
      <defs>
       <path d="M 0 0 
L -3.5 0 
" id="mfcbe1a6d51" style="stroke:#000000;stroke-width:0.8;"/>
      </defs>
      <g>
       <use style="stroke:#000000;stroke-width:0.8;" x="58.523438" xlink:href="#mfcbe1a6d51" y="225.212502"/>
      </g>
     </g>
     <g id="text_11">
      <!-- −0.15 -->
      <g transform="translate(20.878125 229.01172)scale(0.1 -0.1)">
       <defs>
        <path d="M 678 2272 
L 4684 2272 
L 4684 1741 
L 678 1741 
L 678 2272 
z
" id="DejaVuSans-2212" transform="scale(0.015625)"/>
       </defs>
       <use xlink:href="#DejaVuSans-2212"/>
       <use x="83.789062" xlink:href="#DejaVuSans-30"/>
       <use x="147.412109" xlink:href="#DejaVuSans-2e"/>
       <use x="179.199219" xlink:href="#DejaVuSans-31"/>
       <use x="242.822266" xlink:href="#DejaVuSans-35"/>
      </g>
     </g>
    </g>
    <g id="ytick_2">
     <g id="line2d_11">
      <g>
       <use style="stroke:#000000;stroke-width:0.8;" x="58.523438" xlink:href="#mfcbe1a6d51" y="191.775001"/>
      </g>
     </g>
     <g id="text_12">
      <!-- −0.10 -->
      <g transform="translate(20.878125 195.57422)scale(0.1 -0.1)">
       <use xlink:href="#DejaVuSans-2212"/>
       <use x="83.789062" xlink:href="#DejaVuSans-30"/>
       <use x="147.412109" xlink:href="#DejaVuSans-2e"/>
       <use x="179.199219" xlink:href="#DejaVuSans-31"/>
       <use x="242.822266" xlink:href="#DejaVuSans-30"/>
      </g>
     </g>
    </g>
    <g id="ytick_3">
     <g id="line2d_12">
      <g>
       <use style="stroke:#000000;stroke-width:0.8;" x="58.523438" xlink:href="#mfcbe1a6d51" y="158.337501"/>
      </g>
     </g>
     <g id="text_13">
      <!-- −0.05 -->
      <g transform="translate(20.878125 162.136719)scale(0.1 -0.1)">
       <use xlink:href="#DejaVuSans-2212"/>
       <use x="83.789062" xlink:href="#DejaVuSans-30"/>
       <use x="147.412109" xlink:href="#DejaVuSans-2e"/>
       <use x="179.199219" xlink:href="#DejaVuSans-30"/>
       <use x="242.822266" xlink:href="#DejaVuSans-35"/>
      </g>
     </g>
    </g>
    <g id="ytick_4">
     <g id="line2d_13">
      <g>
       <use style="stroke:#000000;stroke-width:0.8;" x="58.523438" xlink:href="#mfcbe1a6d51" y="124.9"/>
      </g>
     </g>
     <g id="text_14">
      <!-- 0.00 -->
      <g transform="translate(29.257813 128.699219)scale(0.1 -0.1)">
       <use xlink:href="#DejaVuSans-30"/>
       <use x="63.623047" xlink:href="#DejaVuSans-2e"/>
       <use x="95.410156" xlink:href="#DejaVuSans-30"/>
       <use x="159.033203" xlink:href="#DejaVuSans-30"/>
      </g>
     </g>
    </g>
    <g id="ytick_5">
     <g id="line2d_14">
      <g>
       <use style="stroke:#000000;stroke-width:0.8;" x="58.523438" xlink:href="#mfcbe1a6d51" y="91.462499"/>
      </g>
     </g>
     <g id="text_15">
      <!-- 0.05 -->
      <g transform="translate(29.257813 95.261718)scale(0.1 -0.1)">
       <use xlink:href="#DejaVuSans-30"/>
       <use x="63.623047" xlink:href="#DejaVuSans-2e"/>
       <use x="95.410156" xlink:href="#DejaVuSans-30"/>
       <use x="159.033203" xlink:href="#DejaVuSans-35"/>
      </g>
     </g>
    </g>
    <g id="ytick_6">
     <g id="line2d_15">
      <g>
       <use style="stroke:#000000;stroke-width:0.8;" x="58.523438" xlink:href="#mfcbe1a6d51" y="58.024999"/>
      </g>
     </g>
     <g id="text_16">
      <!-- 0.10 -->
      <g transform="translate(29.257813 61.824218)scale(0.1 -0.1)">
       <use xlink:href="#DejaVuSans-30"/>
       <use x="63.623047" xlink:href="#DejaVuSans-2e"/>
       <use x="95.410156" xlink:href="#DejaVuSans-31"/>
       <use x="159.033203" xlink:href="#DejaVuSans-30"/>
      </g>
     </g>
    </g>
    <g id="ytick_7">
     <g id="line2d_16">
      <g>
       <use style="stroke:#000000;stroke-width:0.8;" x="58.523438" xlink:href="#mfcbe1a6d51" y="24.587498"/>
      </g>
     </g>
     <g id="text_17">
      <!-- 0.15 -->
      <g transform="translate(29.257813 28.386717)scale(0.1 -0.1)">
       <use xlink:href="#DejaVuSans-30"/>
       <use x="63.623047" xlink:href="#DejaVuSans-2e"/>
       <use x="95.410156" xlink:href="#DejaVuSans-31"/>
       <use x="159.033203" xlink:href="#DejaVuSans-35"/>
      </g>
     </g>
    </g>
    <g id="text_18">
     <!-- IN [V] -->
     <g transform="translate(14.798438 139.026563)rotate(-90)scale(0.1 -0.1)">
      <defs>
       <path d="M 628 4666 
L 1259 4666 
L 1259 0 
L 628 0 
L 628 4666 
z
" id="DejaVuSans-49" transform="scale(0.015625)"/>
       <path d="M 628 4666 
L 1478 4666 
L 3547 763 
L 3547 4666 
L 4159 4666 
L 4159 0 
L 3309 0 
L 1241 3903 
L 1241 0 
L 628 0 
L 628 4666 
z
" id="DejaVuSans-4e" transform="scale(0.015625)"/>
       <path d="M 550 4863 
L 1875 4863 
L 1875 4416 
L 1125 4416 
L 1125 -397 
L 1875 -397 
L 1875 -844 
L 550 -844 
L 550 4863 
z
" id="DejaVuSans-5b" transform="scale(0.015625)"/>
       <path d="M 1831 0 
L 50 4666 
L 709 4666 
L 2188 738 
L 3669 4666 
L 4325 4666 
L 2547 0 
L 1831 0 
z
" id="DejaVuSans-56" transform="scale(0.015625)"/>
       <path d="M 1947 4863 
L 1947 -844 
L 622 -844 
L 622 -397 
L 1369 -397 
L 1369 4416 
L 622 4416 
L 622 4863 
L 1947 4863 
z
" id="DejaVuSans-5d" transform="scale(0.015625)"/>
      </defs>
      <use xlink:href="#DejaVuSans-49"/>
      <use x="29.492188" xlink:href="#DejaVuSans-4e"/>
      <use x="104.296875" xlink:href="#DejaVuSans-20"/>
      <use x="136.083984" xlink:href="#DejaVuSans-5b"/>
      <use x="175.097656" xlink:href="#DejaVuSans-56"/>
      <use x="243.505859" xlink:href="#DejaVuSans-5d"/>
     </g>
    </g>
   </g>
   <g id="line2d_17">
    <path clip-path="url(#p5c625fe342)" d="M 74.82571 124.9 
L 82.557552 93.483954 
L 86.63312 77.869983 
L 89.991389 65.858191 
L 92.925798 56.164537 
L 95.566766 48.187856 
L 97.9632 41.634925 
L 100.164007 36.240961 
L 102.201791 31.814197 
L 104.092854 28.21904 
L 105.8535 25.332949 
L 107.500029 23.048401 
L 109.032443 21.290418 
L 110.467043 19.972006 
L 111.820132 19.022335 
L 113.108011 18.385813 
L 114.330682 18.024291 
L 115.520748 17.900291 
L 116.710814 18.001357 
L 117.900879 18.327278 
L 119.12355 18.895583 
L 120.395127 19.736264 
L 121.731914 20.892307 
L 123.150211 22.420551 
L 124.666323 24.392599 
L 126.280248 26.868695 
L 128.008289 29.939943 
L 129.866748 33.712494 
L 131.855625 38.267262 
L 134.007525 43.767545 
L 136.33875 50.354332 
L 138.881904 58.223841 
L 141.702198 67.696013 
L 144.897443 79.237011 
L 148.663268 93.712823 
L 153.651764 113.84562 
L 165.17747 160.656201 
L 169.024807 175.163268 
L 172.252657 186.495948 
L 175.105554 195.724898 
L 177.681314 203.325402 
L 180.028841 209.581563 
L 182.197043 214.745494 
L 184.202223 218.963784 
L 186.060682 222.372509 
L 187.788723 225.093861 
L 189.402648 227.234477 
L 190.918759 228.884915 
L 192.337057 230.107623 
L 193.673843 230.972393 
L 194.94542 231.533759 
L 196.168091 231.832059 
L 197.358157 231.894404 
L 198.548223 231.731692 
L 199.754591 231.337403 
L 200.993564 230.692999 
L 202.281443 229.767525 
L 203.634532 228.516965 
L 205.085434 226.863085 
L 206.617848 224.770281 
L 208.264377 222.133712 
L 210.025023 218.881629 
L 211.916086 214.907256 
L 213.95387 210.090208 
L 216.154677 204.298828 
L 218.551111 197.344863 
L 221.175777 189.02232 
L 224.093884 179.0036 
L 227.419548 166.75966 
L 231.413604 151.16585 
L 237.200911 127.570102 
L 245.629186 93.291209 
L 249.688452 77.749244 
L 253.030418 65.802134 
L 255.964827 56.113027 
L 258.589493 48.187856 
L 260.985927 41.634925 
L 263.186734 36.240961 
L 265.224518 31.814197 
L 267.115582 28.21904 
L 268.876227 25.332949 
L 270.522757 23.048401 
L 272.05517 21.290418 
L 273.48977 19.972006 
L 274.842859 19.022335 
L 276.130738 18.385813 
L 277.353409 18.024291 
L 278.543475 17.900291 
L 279.733541 18.001357 
L 280.923607 18.327278 
L 282.146277 18.895583 
L 283.417854 19.736264 
L 284.754641 20.892307 
L 286.172938 22.420551 
L 287.68905 24.392599 
L 289.302975 26.868695 
L 291.031016 29.939943 
L 292.889475 33.712494 
L 294.878352 38.267262 
L 297.030252 43.767545 
L 299.361477 50.354332 
L 301.904632 58.223841 
L 304.724925 67.696013 
L 307.92017 79.237011 
L 311.685995 93.712823 
L 316.674491 113.84562 
L 328.200198 160.656201 
L 332.047534 175.163268 
L 335.275384 186.495948 
L 338.128282 195.724898 
L 340.704041 203.325402 
L 343.051568 209.581563 
L 345.21977 214.745494 
L 347.22495 218.963784 
L 349.083409 222.372509 
L 350.81145 225.093861 
L 352.425375 227.234477 
L 353.941486 228.884915 
L 355.359784 230.107623 
L 356.69657 230.972393 
L 357.968148 231.533759 
L 359.190818 231.832059 
L 360.380884 231.894404 
L 361.57095 231.731692 
L 362.777318 231.337403 
L 364.016291 230.692999 
L 365.30417 229.767525 
L 366.657259 228.516965 
L 368.108161 226.863085 
L 369.640575 224.770281 
L 371.287104 222.133712 
L 373.04775 218.881629 
L 374.938813 214.907256 
L 376.976598 210.090208 
L 379.177404 204.298828 
L 381.573838 197.344863 
L 384.198504 189.02232 
L 387.116611 179.0036 
L 390.442275 166.75966 
L 394.436332 151.16585 
L 400.223638 127.570102 
L 400.871165 124.9 
L 400.871165 124.9 
" style="fill:none;stroke:#0000ff;stroke-linecap:square;stroke-width:1.5;"/>
   </g>
   <g id="line2d_18">
    <path clip-path="url(#p5c625fe342)" d="M 74.82571 124.9 
L 75.074809 124.796421 
L 75.384552 124.389525 
L 75.792109 123.441595 
L 76.378991 121.441178 
L 78.5961 113.249869 
L 78.987354 112.73683 
L 79.264493 112.691175 
L 79.509027 112.893024 
L 79.802468 113.455131 
L 80.17742 114.706518 
L 80.650186 117.160606 
L 81.220766 121.40294 
L 81.954368 128.705584 
L 83.014016 141.822527 
L 84.807266 164.006307 
L 85.491961 169.84069 
L 85.997332 172.471167 
L 86.339679 173.297871 
L 86.551609 173.390499 
L 86.730934 173.208017 
L 86.975468 172.563601 
L 87.301514 170.979952 
L 87.725373 167.671826 
L 88.247045 161.694672 
L 88.899136 151.473946 
L 89.763157 134.069735 
L 91.540104 92.233008 
L 92.616054 70.12583 
L 93.317052 59.836619 
L 93.838725 55.053783 
L 94.213677 53.34095 
L 94.441909 53.047717 
L 94.588629 53.166558 
L 94.784257 53.703882 
L 95.061395 55.211142 
L 95.436348 58.639205 
L 95.909113 65.184241 
L 96.512298 76.894964 
L 97.294807 96.851942 
L 98.484873 133.773432 
L 100.229216 187.111853 
L 101.028027 204.982113 
L 101.614909 213.706266 
L 102.05507 217.393405 
L 102.348511 218.396897 
L 102.511534 218.43761 
L 102.658254 218.155408 
L 102.886486 217.114021 
L 103.212532 214.358573 
L 103.636391 208.589527 
L 104.174366 197.890579 
L 104.859061 179.428751 
L 105.804593 147.195868 
L 108.608584 47.385962 
L 109.309582 31.601979 
L 109.831254 24.147448 
L 110.222509 21.206029 
L 110.483345 20.557372 
L 110.613763 20.631796 
L 110.776786 21.099534 
L 111.02132 22.579274 
L 111.363668 26.199319 
L 111.820132 33.739463 
L 112.390711 47.197386 
L 113.140616 70.648065 
L 114.24917 113.245342 
L 116.238048 189.903048 
L 117.036859 212.260903 
L 117.640043 223.6952 
L 118.096507 228.789972 
L 118.422552 230.450343 
L 118.601877 230.648948 
L 118.618179 230.641795 
L 118.748598 230.43349 
L 118.960527 229.524303 
L 119.253968 227.112795 
L 119.645223 221.874647 
L 120.166895 211.513552 
L 120.835289 193.286801 
L 121.748216 161.645082 
L 124.666323 55.693715 
L 125.36732 39.750328 
L 125.905295 31.903386 
L 126.312852 28.70198 
L 126.589991 27.909518 
L 126.720409 27.925152 
L 126.867129 28.238334 
L 127.095361 29.341293 
L 127.421407 32.189305 
L 127.861568 38.300616 
L 128.432148 49.750525 
L 129.182052 69.802874 
L 130.339514 107.706953 
L 132.165368 166.910686 
L 132.996784 186.786595 
L 133.632573 197.150791 
L 134.121641 201.913791 
L 134.480291 203.56686 
L 134.69222 203.810818 
L 134.822639 203.693053 
L 135.018266 203.139052 
L 135.295404 201.596233 
L 135.686659 197.970485 
L 136.192029 190.981371 
L 136.860423 178.347328 
L 137.822257 155.425381 
L 140.251295 95.776152 
L 141.033804 82.601815 
L 141.636989 75.819895 
L 142.109754 72.719566 
L 142.452102 71.700927 
L 142.664032 71.577576 
L 142.827054 71.740217 
L 143.055286 72.33334 
L 143.381332 73.887853 
L 143.821493 77.20352 
L 144.408375 83.495227 
L 145.239791 95.094979 
L 148.076386 136.778429 
L 148.777384 143.113907 
L 149.331661 146.332472 
L 149.771823 147.740739 
L 150.097868 148.150825 
L 150.3261 148.134109 
L 150.570634 147.855413 
L 150.896679 147.097079 
L 151.353143 145.387915 
L 151.988932 142.042004 
L 153.407229 132.955178 
L 154.320157 127.96125 
L 154.939643 125.686414 
L 155.396107 124.743806 
L 155.738454 124.473978 
L 155.999291 124.521017 
L 156.292732 124.828173 
L 156.667684 125.589826 
L 157.173054 127.193836 
L 157.890354 130.314866 
L 159.79772 138.996673 
L 160.303091 140.213569 
L 160.645439 140.555678 
L 160.889973 140.527728 
L 161.134507 140.255673 
L 161.44425 139.542704 
L 161.835504 138.032121 
L 162.324573 135.175479 
L 162.927757 130.228653 
L 163.710266 121.797492 
L 164.998145 105.040788 
L 166.318629 88.852256 
L 167.019627 82.755773 
L 167.524998 80.064251 
L 167.867345 79.199871 
L 168.095577 79.090127 
L 168.274902 79.276696 
L 168.519436 79.928108 
L 168.845482 81.52272 
L 169.269341 84.845664 
L 169.791014 90.837259 
L 170.459407 101.351804 
L 171.339729 119.144369 
L 174.518673 187.286895 
L 175.121857 194.257742 
L 175.562018 197.106631 
L 175.855459 197.862087 
L 176.018482 197.870973 
L 176.181504 197.581265 
L 176.426039 196.581548 
L 176.752084 194.190195 
L 177.175943 189.293409 
L 177.713918 180.290152 
L 178.398614 164.783693 
L 179.327843 138.163554 
L 182.197043 52.234374 
L 182.865436 39.933522 
L 183.370807 34.172624 
L 183.729457 32.126089 
L 183.957689 31.744997 
L 184.088107 31.854288 
L 184.267432 32.395338 
L 184.528268 33.990573 
L 184.886918 37.734525 
L 185.359684 45.32998 
L 185.946566 58.664362 
L 186.712773 81.58141 
L 187.870234 123.865032 
L 189.728693 191.314065 
L 190.527504 212.494644 
L 191.130689 223.233905 
L 191.587152 227.890928 
L 191.896895 229.243031 
L 192.059918 229.354761 
L 192.07622 229.343058 
L 192.222941 229.050384 
L 192.451173 227.925976 
L 192.760916 225.108888 
L 193.184775 218.908672 
L 193.72275 207.373004 
L 194.407445 187.502518 
L 195.369279 152.356919 
L 198.042852 50.886001 
L 198.776454 32.662031 
L 199.330732 23.771927 
L 199.738289 20.191015 
L 200.015427 19.240437 
L 200.145845 19.212916 
L 200.162148 19.228376 
L 200.308868 19.556191 
L 200.5371 20.737802 
L 200.863145 23.822618 
L 201.287004 30.202501 
L 201.841282 42.287951 
L 202.558582 63.30093 
L 203.585625 100.682413 
L 205.851641 184.752697 
L 206.63415 205.185218 
L 207.237334 215.727504 
L 207.693798 220.33177 
L 208.019843 221.768527 
L 208.199168 221.895904 
L 208.329586 221.694261 
L 208.541516 220.84277 
L 208.834957 218.611925 
L 209.242514 213.563315 
L 209.764186 204.037048 
L 210.448882 187.058383 
L 211.427018 156.551994 
L 213.921266 76.376565 
L 214.687473 59.628141 
L 215.274354 51.095082 
L 215.730818 47.276563 
L 216.056864 46.096573 
L 216.236189 45.995745 
L 216.382909 46.199315 
L 216.611141 47.0195 
L 216.920884 49.085974 
L 217.344743 53.598329 
L 217.89902 62.146817 
L 218.632623 77.221555 
L 219.790084 106.274208 
L 221.534427 149.352979 
L 222.365843 164.581853 
L 223.001632 172.60568 
L 223.507002 176.49976 
L 223.881954 177.936255 
L 224.126488 178.215034 
L 224.289511 178.118976 
L 224.501441 177.666121 
L 224.811184 176.363541 
L 225.218741 173.569635 
L 225.773018 168.042483 
L 226.539225 157.873178 
L 228.071638 133.663245 
L 229.245402 116.954128 
L 230.027911 108.749002 
L 230.631095 104.500176 
L 231.120163 102.457795 
L 231.478813 101.744539 
L 231.73965 101.623361 
L 231.967882 101.776533 
L 232.261323 102.304392 
L 232.652577 103.527937 
L 233.206854 106.095164 
L 234.070875 111.338076 
L 235.6848 121.148215 
L 236.336891 123.775433 
L 236.825959 124.935162 
L 237.184609 125.303048 
L 237.461748 125.303824 
L 237.738886 125.062641 
L 238.097536 124.409451 
L 238.570302 123.020767 
L 239.222393 120.334715 
L 241.504711 110.245053 
L 241.944873 109.410515 
L 242.238313 109.232056 
L 242.466545 109.325337 
L 242.727382 109.696583 
L 243.069729 110.63239 
L 243.493588 112.518395 
L 244.015261 115.943118 
L 244.667352 121.826157 
L 245.531373 131.830286 
L 248.253852 164.941063 
L 248.824432 168.815926 
L 249.248291 170.381649 
L 249.525429 170.729147 
L 249.704754 170.652888 
L 249.916684 170.248265 
L 250.210125 169.113356 
L 250.585077 166.678596 
L 251.074145 161.852108 
L 251.677329 153.44739 
L 252.443536 139.374366 
L 253.568393 114.084278 
L 255.426852 72.515048 
L 256.176757 60.528587 
L 256.731034 54.750261 
L 257.138591 52.457198 
L 257.399427 51.925049 
L 257.546148 51.957109 
L 257.725473 52.325332 
L 257.986309 53.512658 
L 258.328657 56.245286 
L 258.78512 61.930058 
L 259.3557 72.147512 
L 260.089302 89.73897 
L 261.116345 120.412985 
L 263.431268 191.127963 
L 264.181173 206.809958 
L 264.73545 214.317097 
L 265.143007 217.314155 
L 265.420145 218.059233 
L 265.550563 218.039491 
L 265.713586 217.678659 
L 265.95812 216.43547 
L 266.284166 213.474197 
L 266.724327 207.166153 
L 267.278604 195.663334 
L 267.995904 175.628467 
L 268.990343 140.878995 
L 271.468288 51.732723 
L 272.201891 33.921573 
L 272.756168 25.114532 
L 273.180027 21.412064 
L 273.457166 20.481939 
L 273.587584 20.458835 
L 273.603886 20.474674 
L 273.750607 20.804579 
L 273.978838 21.986728 
L 274.304884 25.074051 
L 274.728743 31.477842 
L 275.266718 43.250064 
L 275.967716 63.90991 
L 276.945852 100.03318 
L 279.489007 196.989289 
L 280.238911 216.153776 
L 280.809491 225.643953 
L 281.23335 229.528396 
L 281.526791 230.572552 
L 281.657209 230.600027 
L 281.673511 230.584559 
L 281.820232 230.256658 
L 282.048463 229.074848 
L 282.374509 225.989613 
L 282.798368 219.60895 
L 283.352645 207.522096 
L 284.069945 186.506723 
L 285.096988 149.120957 
L 287.363004 65.040412 
L 288.145513 44.60499 
L 288.748698 34.06091 
L 289.205161 29.455578 
L 289.531207 28.018221 
L 289.710532 27.890572 
L 289.84095 28.092044 
L 290.052879 28.943303 
L 290.34632 31.173922 
L 290.753877 36.222395 
L 291.27555 45.748773 
L 291.960245 62.728021 
L 292.938382 93.235905 
L 295.432629 173.416157 
L 296.198836 190.165629 
L 296.785718 198.699206 
L 297.242182 202.51794 
L 297.568227 203.69798 
L 297.747552 203.798799 
L 297.894273 203.595204 
L 298.122504 202.774946 
L 298.432248 200.708312 
L 298.856107 196.195629 
L 299.410384 187.646549 
L 300.143986 172.570805 
L 301.301448 143.516306 
L 303.045791 100.435046 
L 303.877207 85.205414 
L 304.512995 77.181257 
L 305.018366 73.287072 
L 305.393318 71.850588 
L 305.637852 71.571854 
L 305.800875 71.667958 
L 306.012804 72.120893 
L 306.322548 73.423625 
L 306.730104 76.21779 
L 307.284382 81.745389 
L 308.050588 91.915453 
L 309.583002 116.127163 
L 310.756766 132.837651 
L 311.539275 141.043623 
L 312.142459 145.293053 
L 312.631527 147.335894 
L 312.990177 148.049472 
L 313.251013 148.170878 
L 313.479245 148.017902 
L 313.772686 147.49029 
L 314.163941 146.267071 
L 314.718218 143.700303 
L 315.582238 138.458122 
L 317.196163 128.649483 
L 317.848254 126.022929 
L 318.337323 124.863719 
L 318.695973 124.496221 
L 318.973111 124.495748 
L 319.25025 124.737236 
L 319.6089 125.390822 
L 320.081666 126.780029 
L 320.733757 129.466795 
L 323.016075 139.558869 
L 323.456236 140.393866 
L 323.749677 140.572634 
L 323.977909 140.479595 
L 324.238745 140.108629 
L 324.581093 139.173197 
L 325.004952 137.28767 
L 325.526625 133.86356 
L 326.178716 127.981333 
L 327.042736 117.978364 
L 329.765216 84.871617 
L 330.335795 80.997559 
L 330.759654 79.432394 
L 331.036793 79.085235 
L 331.216118 79.161702 
L 331.428048 79.566556 
L 331.721488 80.70176 
L 332.096441 83.136846 
L 332.585509 87.963665 
L 333.188693 96.368632 
L 333.9549 110.441703 
L 335.079757 135.731339 
L 336.938216 177.298963 
L 337.68812 189.284755 
L 338.242398 195.062681 
L 338.649954 197.355531 
L 338.910791 197.887588 
L 339.057511 197.855493 
L 339.236836 197.487245 
L 339.497673 196.29992 
L 339.84002 193.567363 
L 340.296484 187.882817 
L 340.867063 177.665868 
L 341.600666 160.075417 
L 342.627709 129.403404 
L 344.942632 58.693937 
L 345.692536 43.013407 
L 346.246813 35.507074 
L 346.65437 32.510419 
L 346.931509 31.765513 
L 347.061927 31.785306 
L 347.22495 32.146172 
L 347.469484 33.389351 
L 347.795529 36.350492 
L 348.235691 42.658141 
L 348.789968 54.160098 
L 349.507268 74.193268 
L 350.501707 108.939449 
L 352.979652 198.075448 
L 353.713254 215.883899 
L 354.267532 224.689233 
L 354.691391 228.390636 
L 354.968529 229.320188 
L 355.098948 229.343058 
L 355.11525 229.327191 
L 355.26197 228.997055 
L 355.490202 227.814607 
L 355.816248 224.726984 
L 356.240107 218.323033 
L 356.778082 206.550977 
L 357.479079 185.891929 
L 358.457216 149.770678 
L 361.00037 52.821443 
L 361.750275 33.658377 
L 362.320854 24.16885 
L 362.744713 20.284606 
L 363.038154 19.240437 
L 363.168573 19.212916 
L 363.184875 19.228376 
L 363.331595 19.556191 
L 363.559827 20.737802 
L 363.885873 23.822618 
L 364.309732 30.202501 
L 364.864009 42.287951 
L 365.581309 63.30093 
L 366.608352 100.682413 
L 368.874368 184.752697 
L 369.656877 205.185218 
L 370.260061 215.727504 
L 370.716525 220.33177 
L 371.04257 221.768527 
L 371.221895 221.895904 
L 371.352313 221.694261 
L 371.564243 220.84277 
L 371.857684 218.611925 
L 372.265241 213.563315 
L 372.786913 204.037048 
L 373.471609 187.058383 
L 374.449745 156.551994 
L 376.943993 76.376565 
L 377.7102 59.628141 
L 378.297082 51.095082 
L 378.753545 47.276563 
L 379.079591 46.096573 
L 379.258916 45.995745 
L 379.405636 46.199315 
L 379.633868 47.0195 
L 379.943611 49.085974 
L 380.36747 53.598329 
L 380.921748 62.146817 
L 381.65535 77.221555 
L 382.812811 106.274208 
L 384.557154 149.352979 
L 385.38857 164.581853 
L 386.024359 172.60568 
L 386.529729 176.49976 
L 386.904682 177.936255 
L 387.149216 178.215034 
L 387.312238 178.118976 
L 387.524168 177.666121 
L 387.833911 176.363541 
L 388.241468 173.569635 
L 388.795745 168.042483 
L 389.561952 157.873178 
L 391.094366 133.663245 
L 392.268129 116.954128 
L 393.050638 108.749002 
L 393.653823 104.500176 
L 394.142891 102.457795 
L 394.501541 101.744539 
L 394.762377 101.623361 
L 394.990609 101.776533 
L 395.28405 102.304392 
L 395.675304 103.527937 
L 396.229582 106.095164 
L 397.093602 111.338076 
L 398.707527 121.148215 
L 399.359618 123.775433 
L 399.848686 124.935162 
L 400.207336 125.303048 
L 400.484475 125.303824 
L 400.761613 125.062641 
L 400.871165 124.902754 
L 400.871165 124.902754 
" style="fill:none;stroke:#e97451;stroke-linecap:square;stroke-width:1.5;"/>
   </g>
   <g id="patch_3">
    <path d="M 58.523438 242.6 
L 58.523438 7.2 
" style="fill:none;stroke:#000000;stroke-linecap:square;stroke-linejoin:miter;stroke-width:0.8;"/>
   </g>
   <g id="patch_4">
    <path d="M 417.173437 242.6 
L 417.173437 7.2 
" style="fill:none;stroke:#000000;stroke-linecap:square;stroke-linejoin:miter;stroke-width:0.8;"/>
   </g>
   <g id="patch_5">
    <path d="M 58.523438 242.6 
L 417.173437 242.6 
" style="fill:none;stroke:#000000;stroke-linecap:square;stroke-linejoin:miter;stroke-width:0.8;"/>
   </g>
   <g id="patch_6">
    <path d="M 58.523438 7.2 
L 417.173437 7.2 
" style="fill:none;stroke:#000000;stroke-linecap:square;stroke-linejoin:miter;stroke-width:0.8;"/>
   </g>
   <g id="legend_1">
    <g id="patch_7">
     <path d="M 329.510937 54.28 
L 405.982812 54.28 
Q 407.982812 54.28 407.982812 52.28 
L 407.982812 23.645625 
Q 407.982812 21.645625 405.982812 21.645625 
L 329.510937 21.645625 
Q 327.510937 21.645625 327.510937 23.645625 
L 327.510937 52.28 
Q 327.510937 54.28 329.510937 54.28 
z
" style="fill:#ffffff;opacity:0.8;stroke:#cccccc;stroke-linejoin:miter;"/>
    </g>
    <g id="line2d_19">
     <path d="M 331.510937 29.744063 
L 351.510937 29.744063 
" style="fill:none;stroke:#0000ff;stroke-linecap:square;stroke-width:1.5;"/>
    </g>
    <g id="line2d_20"/>
    <g id="text_19">
     <!-- Vin_y [V] -->
     <g transform="translate(359.510937 33.244063)scale(0.1 -0.1)">
      <defs>
       <path d="M 3513 2113 
L 3513 0 
L 2938 0 
L 2938 2094 
Q 2938 2591 2744 2837 
Q 2550 3084 2163 3084 
Q 1697 3084 1428 2787 
Q 1159 2491 1159 1978 
L 1159 0 
L 581 0 
L 581 3500 
L 1159 3500 
L 1159 2956 
Q 1366 3272 1645 3428 
Q 1925 3584 2291 3584 
Q 2894 3584 3203 3211 
Q 3513 2838 3513 2113 
z
" id="DejaVuSans-6e" transform="scale(0.015625)"/>
       <path d="M 3263 -1063 
L 3263 -1509 
L -63 -1509 
L -63 -1063 
L 3263 -1063 
z
" id="DejaVuSans-5f" transform="scale(0.015625)"/>
       <path d="M 2059 -325 
Q 1816 -950 1584 -1140 
Q 1353 -1331 966 -1331 
L 506 -1331 
L 506 -850 
L 844 -850 
Q 1081 -850 1212 -737 
Q 1344 -625 1503 -206 
L 1606 56 
L 191 3500 
L 800 3500 
L 1894 763 
L 2988 3500 
L 3597 3500 
L 2059 -325 
z
" id="DejaVuSans-79" transform="scale(0.015625)"/>
      </defs>
      <use xlink:href="#DejaVuSans-56"/>
      <use x="66.158203" xlink:href="#DejaVuSans-69"/>
      <use x="93.941406" xlink:href="#DejaVuSans-6e"/>
      <use x="157.320312" xlink:href="#DejaVuSans-5f"/>
      <use x="207.320312" xlink:href="#DejaVuSans-79"/>
      <use x="266.5" xlink:href="#DejaVuSans-20"/>
      <use x="298.287109" xlink:href="#DejaVuSans-5b"/>
      <use x="337.300781" xlink:href="#DejaVuSans-56"/>
      <use x="405.708984" xlink:href="#DejaVuSans-5d"/>
     </g>
    </g>
    <g id="line2d_21">
     <path d="M 331.510937 44.700313 
L 351.510937 44.700313 
" style="fill:none;stroke:#e97451;stroke-linecap:square;stroke-width:1.5;"/>
    </g>
    <g id="line2d_22"/>
    <g id="text_20">
     <!-- Vout [V] -->
     <g transform="translate(359.510937 48.200313)scale(0.1 -0.1)">
      <defs>
       <path d="M 1959 3097 
Q 1497 3097 1228 2736 
Q 959 2375 959 1747 
Q 959 1119 1226 758 
Q 1494 397 1959 397 
Q 2419 397 2687 759 
Q 2956 1122 2956 1747 
Q 2956 2369 2687 2733 
Q 2419 3097 1959 3097 
z
M 1959 3584 
Q 2709 3584 3137 3096 
Q 3566 2609 3566 1747 
Q 3566 888 3137 398 
Q 2709 -91 1959 -91 
Q 1206 -91 779 398 
Q 353 888 353 1747 
Q 353 2609 779 3096 
Q 1206 3584 1959 3584 
z
" id="DejaVuSans-6f" transform="scale(0.015625)"/>
       <path d="M 544 1381 
L 544 3500 
L 1119 3500 
L 1119 1403 
Q 1119 906 1312 657 
Q 1506 409 1894 409 
Q 2359 409 2629 706 
Q 2900 1003 2900 1516 
L 2900 3500 
L 3475 3500 
L 3475 0 
L 2900 0 
L 2900 538 
Q 2691 219 2414 64 
Q 2138 -91 1772 -91 
Q 1169 -91 856 284 
Q 544 659 544 1381 
z
M 1991 3584 
L 1991 3584 
z
" id="DejaVuSans-75" transform="scale(0.015625)"/>
      </defs>
      <use xlink:href="#DejaVuSans-56"/>
      <use x="60.658203" xlink:href="#DejaVuSans-6f"/>
      <use x="121.839844" xlink:href="#DejaVuSans-75"/>
      <use x="185.21875" xlink:href="#DejaVuSans-74"/>
      <use x="224.427734" xlink:href="#DejaVuSans-20"/>
      <use x="256.214844" xlink:href="#DejaVuSans-5b"/>
      <use x="295.228516" xlink:href="#DejaVuSans-56"/>
      <use x="363.636719" xlink:href="#DejaVuSans-5d"/>
     </g>
    </g>
   </g>
  </g>
 </g>
 <defs>
  <clipPath id="p5c625fe342">
   <rect height="235.4" width="358.65" x="58.523438" y="7.2"/>
  </clipPath>
 </defs>
</svg>
