<?xml version="1.0" encoding="utf-8" standalone="no"?>
<!DOCTYPE svg PUBLIC "-//W3C//DTD SVG 1.1//EN"
  "http://www.w3.org/Graphics/SVG/1.1/DTD/svg11.dtd">
<svg height="466.226pt" version="1.1" viewBox="0 0 360.8073 466.226" width="360.8073pt" xmlns="http://www.w3.org/2000/svg" xmlns:xlink="http://www.w3.org/1999/xlink">
 <metadata>
  <rdf:RDF xmlns:cc="http://creativecommons.org/ns#" xmlns:dc="http://purl.org/dc/elements/1.1/" xmlns:rdf="http://www.w3.org/1999/02/22-rdf-syntax-ns#">
   <cc:Work>
    <dc:type rdf:resource="http://purl.org/dc/dcmitype/StillImage"/>
    <dc:date>2021-06-22T11:10:45.721623</dc:date>
    <dc:format>image/svg+xml</dc:format>
    <dc:creator>
     <cc:Agent>
      <dc:title>Matplotlib v3.4.2, https://matplotlib.org/</dc:title>
     </cc:Agent>
    </dc:creator>
   </cc:Work>
  </rdf:RDF>
 </metadata>
 <defs>
  <style type="text/css">*{stroke-linecap:butt;stroke-linejoin:round;}</style>
 </defs>
 <g id="figure_1">
  <g id="patch_1">
   <path d="M 0 466.226 
L 360.8073 466.226 
L 360.8073 0 
L 0 0 
z
" style="fill:none;"/>
  </g>
  <g id="axes_1">
   <g id="patch_2">
    <path clip-path="url(#p4fcbaf4422)" d="M 74.1834 232.348 
C 78.646768 232.348 82.927929 230.574685 86.084007 227.418607 
C 89.240085 224.262529 91.0134 219.981368 91.0134 215.518 
C 91.0134 211.054632 89.240085 206.773471 86.084007 203.617393 
C 82.927929 200.461315 78.646768 198.688 74.1834 198.688 
C 69.720032 198.688 65.438871 200.461315 62.282793 203.617393 
C 59.126715 206.773471 57.3534 211.054632 57.3534 215.518 
C 57.3534 219.981368 59.126715 224.262529 62.282793 227.418607 
C 65.438871 230.574685 69.720032 232.348 74.1834 232.348 
z
" style="fill:none;stroke:#000000;stroke-linejoin:miter;stroke-width:0.9;"/>
   </g>
   <g id="patch_3">
    <path clip-path="url(#p4fcbaf4422)" d="M 77.699171 224.919832 
L 80.3544 231.226 
L 73.716328 229.566482 
z
"/>
   </g>
   <g id="patch_4">
    <path clip-path="url(#p4fcbaf4422)" d="M 239.5254 232.348 
C 243.988768 232.348 248.269929 230.574685 251.426007 227.418607 
C 254.582085 224.262529 256.3554 219.981368 256.3554 215.518 
C 256.3554 211.054632 254.582085 206.773471 251.426007 203.617393 
C 248.269929 200.461315 243.988768 198.688 239.5254 198.688 
C 235.062032 198.688 230.780871 200.461315 227.624793 203.617393 
C 224.468715 206.773471 222.6954 211.054632 222.6954 215.518 
C 222.6954 219.981368 224.468715 224.262529 227.624793 227.418607 
C 230.780871 230.574685 235.062032 232.348 239.5254 232.348 
z
" style="fill:none;stroke:#000000;stroke-linejoin:miter;stroke-width:0.9;"/>
   </g>
   <g id="patch_5">
    <path clip-path="url(#p4fcbaf4422)" d="M 239.992472 229.566482 
L 233.3544 231.226 
L 236.009629 224.919832 
z
"/>
   </g>
   <g id="patch_6">
    <path clip-path="url(#p4fcbaf4422)" d="M 74.1834 427.984 
C 78.646768 427.984 82.927929 426.210685 86.084007 423.054607 
C 89.240085 419.898529 91.0134 415.617368 91.0134 411.154 
C 91.0134 406.690632 89.240085 402.409471 86.084007 399.253393 
C 82.927929 396.097315 78.646768 394.324 74.1834 394.324 
C 69.720032 394.324 65.438871 396.097315 62.282793 399.253393 
C 59.126715 402.409471 57.3534 406.690632 57.3534 411.154 
C 57.3534 415.617368 59.126715 419.898529 62.282793 423.054607 
C 65.438871 426.210685 69.720032 427.984 74.1834 427.984 
z
" style="fill:none;stroke:#000000;stroke-linejoin:miter;stroke-width:0.9;"/>
   </g>
   <g id="patch_7">
    <path clip-path="url(#p4fcbaf4422)" d="M 73.716328 397.105518 
L 80.3544 395.446 
L 77.699171 401.752168 
z
"/>
   </g>
   <g id="line2d_1">
    <path clip-path="url(#p4fcbaf4422)" d="M 57.3534 215.518 
L 68.5734 215.518 
" style="fill:none;stroke:#000000;stroke-linecap:round;stroke-width:0.9;"/>
   </g>
   <g id="line2d_2">
    <path clip-path="url(#p4fcbaf4422)" d="M 68.5734 204.298 
L 68.5734 226.738 
" style="fill:none;stroke:#000000;stroke-linecap:round;stroke-width:0.9;"/>
   </g>
   <g id="line2d_3">
    <path clip-path="url(#p4fcbaf4422)" d="M 68.5734 209.908 
L 80.3544 199.81 
L 80.3544 194.2 
" style="fill:none;stroke:#000000;stroke-linecap:round;stroke-width:0.9;"/>
   </g>
   <g id="line2d_4">
    <path clip-path="url(#p4fcbaf4422)" d="M 68.5734 221.128 
L 80.3544 231.226 
L 80.3544 236.836 
" style="fill:none;stroke:#000000;stroke-linecap:round;stroke-width:0.9;"/>
   </g>
   <g id="line2d_5">
    <path clip-path="url(#p4fcbaf4422)" d="M 68.5734 221.128 
L 75.70775 227.243157 
" style="fill:none;stroke:#000000;stroke-linecap:square;stroke-width:0.9;"/>
   </g>
   <g id="line2d_6">
    <path clip-path="url(#p4fcbaf4422)" d="M 80.3544 194.2 
L 80.3544 155.95 
L 80.3544 117.7 
" style="fill:none;stroke:#000000;stroke-linecap:round;stroke-width:0.9;"/>
   </g>
   <g id="line2d_7">
    <path clip-path="url(#p4fcbaf4422)" d="M 80.3544 117.7 
L 80.3544 94.75 
L 72.7044 92.2 
L 88.0044 87.1 
L 72.7044 82 
L 88.0044 76.9 
L 72.7044 71.8 
L 88.0044 66.7 
L 80.3544 64.15 
L 80.3544 41.2 
" style="fill:none;stroke:#000000;stroke-linecap:round;stroke-width:0.9;"/>
   </g>
   <g id="line2d_8">
    <path clip-path="url(#p4fcbaf4422)" d="M 80.3544 41.2 
L 80.3544 28.96 
" style="fill:none;stroke:#000000;stroke-linecap:round;stroke-width:0.9;"/>
   </g>
   <g id="line2d_9">
    <path clip-path="url(#p4fcbaf4422)" d="M 80.3544 28.96 
L 74.6169 28.96 
" style="fill:none;stroke:#000000;stroke-linecap:round;stroke-width:0.9;"/>
   </g>
   <g id="line2d_10">
    <path clip-path="url(#p4fcbaf4422)" d="M 80.3544 28.96 
L 86.0919 28.96 
" style="fill:none;stroke:#000000;stroke-linecap:round;stroke-width:0.9;"/>
   </g>
   <g id="line2d_11">
    <path clip-path="url(#p4fcbaf4422)" d="M 57.3534 215.518 
L 38.2284 215.518 
L 19.1034 215.518 
" style="fill:none;stroke:#000000;stroke-linecap:round;stroke-width:0.9;"/>
   </g>
   <g id="line2d_12">
    <path clip-path="url(#p4fcbaf4422)" d="M 80.3544 236.836 
L 80.3544 255.961 
L 80.3544 275.086 
" style="fill:none;stroke:#000000;stroke-linecap:round;stroke-width:0.9;"/>
   </g>
   <g id="line2d_13">
    <path clip-path="url(#p4fcbaf4422)" d="M 80.3544 275.086 
L 156.8544 275.086 
L 233.3544 275.086 
" style="fill:none;stroke:#000000;stroke-linecap:round;stroke-width:0.9;"/>
   </g>
   <g id="line2d_14">
    <path clip-path="url(#p4fcbaf4422)" d="M 233.3544 275.086 
L 233.3544 255.961 
L 233.3544 236.836 
" style="fill:none;stroke:#000000;stroke-linecap:round;stroke-width:0.9;"/>
   </g>
   <g id="line2d_15">
    <path clip-path="url(#p4fcbaf4422)" d="M 245.1354 215.518 
L 256.3554 215.518 
" style="fill:none;stroke:#000000;stroke-linecap:round;stroke-width:0.9;"/>
   </g>
   <g id="line2d_16">
    <path clip-path="url(#p4fcbaf4422)" d="M 245.1354 226.738 
L 245.1354 204.298 
" style="fill:none;stroke:#000000;stroke-linecap:round;stroke-width:0.9;"/>
   </g>
   <g id="line2d_17">
    <path clip-path="url(#p4fcbaf4422)" d="M 233.3544 194.2 
L 233.3544 199.81 
L 245.1354 209.908 
" style="fill:none;stroke:#000000;stroke-linecap:round;stroke-width:0.9;"/>
   </g>
   <g id="line2d_18">
    <path clip-path="url(#p4fcbaf4422)" d="M 233.3544 236.836 
L 233.3544 231.226 
L 245.1354 221.128 
" style="fill:none;stroke:#000000;stroke-linecap:round;stroke-width:0.9;"/>
   </g>
   <g id="line2d_19">
    <path clip-path="url(#p4fcbaf4422)" d="M 245.1354 221.128 
L 238.00105 227.243157 
" style="fill:none;stroke:#000000;stroke-linecap:square;stroke-width:0.9;"/>
   </g>
   <g id="line2d_20">
    <path clip-path="url(#p4fcbaf4422)" d="M 233.3544 194.2 
L 233.3544 155.95 
L 233.3544 117.7 
" style="fill:none;stroke:#000000;stroke-linecap:round;stroke-width:0.9;"/>
   </g>
   <g id="line2d_21">
    <path clip-path="url(#p4fcbaf4422)" d="M 233.3544 117.7 
L 233.3544 94.75 
L 225.7044 92.2 
L 241.0044 87.1 
L 225.7044 82 
L 241.0044 76.9 
L 225.7044 71.8 
L 241.0044 66.7 
L 233.3544 64.15 
L 233.3544 41.2 
" style="fill:none;stroke:#000000;stroke-linecap:round;stroke-width:0.9;"/>
   </g>
   <g id="line2d_22">
    <path clip-path="url(#p4fcbaf4422)" d="M 233.3544 41.2 
L 233.3544 28.96 
" style="fill:none;stroke:#000000;stroke-linecap:round;stroke-width:0.9;"/>
   </g>
   <g id="line2d_23">
    <path clip-path="url(#p4fcbaf4422)" d="M 233.3544 28.96 
L 227.6169 28.96 
" style="fill:none;stroke:#000000;stroke-linecap:round;stroke-width:0.9;"/>
   </g>
   <g id="line2d_24">
    <path clip-path="url(#p4fcbaf4422)" d="M 233.3544 28.96 
L 239.0919 28.96 
" style="fill:none;stroke:#000000;stroke-linecap:round;stroke-width:0.9;"/>
   </g>
   <g id="line2d_25">
    <path clip-path="url(#p4fcbaf4422)" d="M 256.3554 215.518 
L 265.9179 215.518 
L 275.4804 215.518 
" style="fill:none;stroke:#000000;stroke-linecap:round;stroke-width:0.9;"/>
   </g>
   <g id="line2d_26">
    <path clip-path="url(#p4fcbaf4422)" d="M 275.4804 215.518 
L 275.4804 225.0805 
L 275.4804 234.643 
" style="fill:none;stroke:#000000;stroke-linecap:round;stroke-width:0.9;"/>
   </g>
   <g id="line2d_27">
    <path clip-path="url(#p4fcbaf4422)" d="M 275.4804 234.643 
L 275.4804 246.883 
L 267.8304 246.883 
L 283.1304 246.883 
M 270.1254 250.555 
L 280.8354 250.555 
M 273.9504 254.227 
L 277.0104 254.227 
" style="fill:none;stroke:#000000;stroke-linecap:round;stroke-width:0.9;"/>
   </g>
   <g id="line2d_28">
    <path clip-path="url(#p4fcbaf4422)" d="M 156.8544 275.086 
L 156.8544 298.036 
L 164.5044 300.586 
L 149.2044 305.686 
L 164.5044 310.786 
L 149.2044 315.886 
L 164.5044 320.986 
L 149.2044 326.086 
L 156.8544 328.636 
L 156.8544 351.586 
" style="fill:none;stroke:#000000;stroke-linecap:round;stroke-width:0.9;"/>
   </g>
   <g id="line2d_29">
    <path clip-path="url(#p4fcbaf4422)" d="M 156.8544 351.586 
L 156.8544 374.536 
L 164.5044 377.086 
L 149.2044 382.186 
L 164.5044 387.286 
L 149.2044 392.386 
L 164.5044 397.486 
L 149.2044 402.586 
L 156.8544 405.136 
L 156.8544 428.086 
" style="fill:none;stroke:#000000;stroke-linecap:round;stroke-width:0.9;"/>
   </g>
   <g id="line2d_30">
    <path clip-path="url(#p4fcbaf4422)" d="M 156.8544 428.086 
L 156.8544 440.326 
" style="fill:none;stroke:#000000;stroke-linecap:round;stroke-width:0.9;"/>
   </g>
   <g id="line2d_31">
    <path clip-path="url(#p4fcbaf4422)" d="M 156.8544 440.326 
L 151.1169 440.326 
" style="fill:none;stroke:#000000;stroke-linecap:round;stroke-width:0.9;"/>
   </g>
   <g id="line2d_32">
    <path clip-path="url(#p4fcbaf4422)" d="M 156.8544 440.326 
L 162.5919 440.326 
" style="fill:none;stroke:#000000;stroke-linecap:round;stroke-width:0.9;"/>
   </g>
   <g id="line2d_33">
    <path clip-path="url(#p4fcbaf4422)" d="M 156.8544 351.586 
L 118.6044 351.586 
L 80.3544 351.586 
" style="fill:none;stroke:#000000;stroke-linecap:round;stroke-width:0.9;"/>
   </g>
   <g id="line2d_34">
    <path clip-path="url(#p4fcbaf4422)" d="M 80.3544 351.586 
L 80.3544 370.711 
L 80.3544 389.836 
" style="fill:none;stroke:#000000;stroke-linecap:round;stroke-width:0.9;"/>
   </g>
   <g id="line2d_35">
    <path clip-path="url(#p4fcbaf4422)" d="M 57.3534 411.154 
L 68.5734 411.154 
" style="fill:none;stroke:#000000;stroke-linecap:round;stroke-width:0.9;"/>
   </g>
   <g id="line2d_36">
    <path clip-path="url(#p4fcbaf4422)" d="M 68.5734 422.374 
L 68.5734 399.934 
" style="fill:none;stroke:#000000;stroke-linecap:round;stroke-width:0.9;"/>
   </g>
   <g id="line2d_37">
    <path clip-path="url(#p4fcbaf4422)" d="M 68.5734 416.764 
L 80.3544 426.862 
L 80.3544 432.472 
" style="fill:none;stroke:#000000;stroke-linecap:round;stroke-width:0.9;"/>
   </g>
   <g id="line2d_38">
    <path clip-path="url(#p4fcbaf4422)" d="M 68.5734 405.544 
L 80.3544 395.446 
L 80.3544 389.836 
" style="fill:none;stroke:#000000;stroke-linecap:round;stroke-width:0.9;"/>
   </g>
   <g id="line2d_39">
    <path clip-path="url(#p4fcbaf4422)" d="M 68.5734 405.544 
L 75.70775 399.428843 
" style="fill:none;stroke:#000000;stroke-linecap:square;stroke-width:0.9;"/>
   </g>
   <g id="line2d_40">
    <path clip-path="url(#p4fcbaf4422)" d="M 80.3544 432.472 
L 80.3544 444.712 
L 72.7044 444.712 
L 88.0044 444.712 
M 74.9994 448.384 
L 85.7094 448.384 
M 78.8244 452.056 
L 81.8844 452.056 
" style="fill:none;stroke:#000000;stroke-linecap:round;stroke-width:0.9;"/>
   </g>
   <g id="line2d_41">
    <path clip-path="url(#p4fcbaf4422)" d="M 57.3534 411.154 
L 38.2284 411.154 
L 19.1034 411.154 
" style="fill:none;stroke:#000000;stroke-linecap:round;stroke-width:0.9;"/>
   </g>
   <g id="line2d_42">
    <path clip-path="url(#p4fcbaf4422)" d="M 80.3544 168.7 
L 195.1044 168.7 
L 309.8544 168.7 
" style="fill:none;stroke:#000000;stroke-linecap:round;stroke-width:0.9;"/>
   </g>
   <g id="line2d_43">
    <path clip-path="url(#p4fcbaf4422)" d="M 233.3544 143.2 
L 271.6044 143.2 
L 309.8544 143.2 
" style="fill:none;stroke:#000000;stroke-linecap:round;stroke-width:0.9;"/>
   </g>
   <g id="text_1">
    <!-- $Q_1$ -->
    <g transform="translate(94.0734 219.636125)scale(0.14 -0.14)">
     <defs>
      <path d="M 2309 -84 
Q 2275 -88 2237 -89 
Q 2200 -91 2125 -91 
Q 1250 -91 756 411 
Q 263 913 263 1797 
Q 263 2319 452 2844 
Q 641 3369 978 3788 
Q 1369 4269 1858 4509 
Q 2347 4750 2938 4750 
Q 3794 4750 4287 4245 
Q 4781 3741 4781 2869 
Q 4781 1928 4265 1147 
Q 3750 366 2919 44 
L 3553 -825 
L 2847 -825 
L 2309 -84 
z
M 2919 4238 
Q 2400 4238 2003 3986 
Q 1606 3734 1313 3219 
Q 1125 2891 1026 2522 
Q 928 2153 928 1778 
Q 928 1128 1239 775 
Q 1550 422 2119 422 
Q 2631 422 3032 676 
Q 3434 931 3719 1434 
Q 3909 1772 4009 2142 
Q 4109 2513 4109 2881 
Q 4109 3528 3796 3883 
Q 3484 4238 2919 4238 
z
" id="DejaVuSans-Oblique-51" transform="scale(0.015625)"/>
      <path d="M 794 531 
L 1825 531 
L 1825 4091 
L 703 3866 
L 703 4441 
L 1819 4666 
L 2450 4666 
L 2450 531 
L 3481 531 
L 3481 0 
L 794 0 
L 794 531 
z
" id="DejaVuSans-31" transform="scale(0.015625)"/>
     </defs>
     <use transform="translate(0 0.78125)" xlink:href="#DejaVuSans-Oblique-51"/>
     <use transform="translate(78.710938 -15.625)scale(0.7)" xlink:href="#DejaVuSans-31"/>
    </g>
   </g>
   <g id="text_2">
    <!-- $R_1$ -->
    <g transform="translate(53.2644 83.313125)scale(0.14 -0.14)">
     <defs>
      <path d="M 1613 4147 
L 1294 2491 
L 2106 2491 
Q 2584 2491 2879 2755 
Q 3175 3019 3175 3444 
Q 3175 3784 2976 3965 
Q 2778 4147 2406 4147 
L 1613 4147 
z
M 2772 2241 
Q 2972 2194 3105 2009 
Q 3238 1825 3413 1275 
L 3809 0 
L 3144 0 
L 2778 1197 
Q 2638 1659 2453 1815 
Q 2269 1972 1888 1972 
L 1191 1972 
L 806 0 
L 172 0 
L 1081 4666 
L 2503 4666 
Q 3150 4666 3495 4373 
Q 3841 4081 3841 3531 
Q 3841 3044 3547 2687 
Q 3253 2331 2772 2241 
z
" id="DejaVuSans-Oblique-52" transform="scale(0.015625)"/>
     </defs>
     <use transform="translate(0 0.09375)" xlink:href="#DejaVuSans-Oblique-52"/>
     <use transform="translate(69.482422 -16.3125)scale(0.7)" xlink:href="#DejaVuSans-31"/>
    </g>
   </g>
   <g id="text_3">
    <!-- +15V -->
    <g transform="translate(60.792681 22.988437)scale(0.14 -0.14)">
     <defs>
      <path d="M 2944 4013 
L 2944 2272 
L 4684 2272 
L 4684 1741 
L 2944 1741 
L 2944 0 
L 2419 0 
L 2419 1741 
L 678 1741 
L 678 2272 
L 2419 2272 
L 2419 4013 
L 2944 4013 
z
" id="DejaVuSans-2b" transform="scale(0.015625)"/>
      <path d="M 691 4666 
L 3169 4666 
L 3169 4134 
L 1269 4134 
L 1269 2991 
Q 1406 3038 1543 3061 
Q 1681 3084 1819 3084 
Q 2600 3084 3056 2656 
Q 3513 2228 3513 1497 
Q 3513 744 3044 326 
Q 2575 -91 1722 -91 
Q 1428 -91 1123 -41 
Q 819 9 494 109 
L 494 744 
Q 775 591 1075 516 
Q 1375 441 1709 441 
Q 2250 441 2565 725 
Q 2881 1009 2881 1497 
Q 2881 1984 2565 2268 
Q 2250 2553 1709 2553 
Q 1456 2553 1204 2497 
Q 953 2441 691 2322 
L 691 4666 
z
" id="DejaVuSans-35" transform="scale(0.015625)"/>
      <path d="M 1831 0 
L 50 4666 
L 709 4666 
L 2188 738 
L 3669 4666 
L 4325 4666 
L 2547 0 
L 1831 0 
z
" id="DejaVuSans-56" transform="scale(0.015625)"/>
     </defs>
     <use xlink:href="#DejaVuSans-2b"/>
     <use x="83.789062" xlink:href="#DejaVuSans-31"/>
     <use x="147.412109" xlink:href="#DejaVuSans-35"/>
     <use x="211.035156" xlink:href="#DejaVuSans-56"/>
    </g>
   </g>
   <g id="text_4">
    <!-- $Q_2$ -->
    <g transform="translate(201.9954 219.636125)scale(0.14 -0.14)">
     <defs>
      <path d="M 1228 531 
L 3431 531 
L 3431 0 
L 469 0 
L 469 531 
Q 828 903 1448 1529 
Q 2069 2156 2228 2338 
Q 2531 2678 2651 2914 
Q 2772 3150 2772 3378 
Q 2772 3750 2511 3984 
Q 2250 4219 1831 4219 
Q 1534 4219 1204 4116 
Q 875 4013 500 3803 
L 500 4441 
Q 881 4594 1212 4672 
Q 1544 4750 1819 4750 
Q 2544 4750 2975 4387 
Q 3406 4025 3406 3419 
Q 3406 3131 3298 2873 
Q 3191 2616 2906 2266 
Q 2828 2175 2409 1742 
Q 1991 1309 1228 531 
z
" id="DejaVuSans-32" transform="scale(0.015625)"/>
     </defs>
     <use transform="translate(0 0.78125)" xlink:href="#DejaVuSans-Oblique-51"/>
     <use transform="translate(78.710938 -15.625)scale(0.7)" xlink:href="#DejaVuSans-32"/>
    </g>
   </g>
   <g id="text_5">
    <!-- $R_2$ -->
    <g transform="translate(206.2644 83.313125)scale(0.14 -0.14)">
     <use transform="translate(0 0.09375)" xlink:href="#DejaVuSans-Oblique-52"/>
     <use transform="translate(69.482422 -16.3125)scale(0.7)" xlink:href="#DejaVuSans-32"/>
    </g>
   </g>
   <g id="text_6">
    <!-- +15V -->
    <g transform="translate(213.792681 22.988437)scale(0.14 -0.14)">
     <use xlink:href="#DejaVuSans-2b"/>
     <use x="83.789062" xlink:href="#DejaVuSans-31"/>
     <use x="147.412109" xlink:href="#DejaVuSans-35"/>
     <use x="211.035156" xlink:href="#DejaVuSans-56"/>
    </g>
   </g>
   <g id="text_7">
    <!-- $R_3$ -->
    <g transform="translate(129.7644 317.199125)scale(0.14 -0.14)">
     <defs>
      <path d="M 2597 2516 
Q 3050 2419 3304 2112 
Q 3559 1806 3559 1356 
Q 3559 666 3084 287 
Q 2609 -91 1734 -91 
Q 1441 -91 1130 -33 
Q 819 25 488 141 
L 488 750 
Q 750 597 1062 519 
Q 1375 441 1716 441 
Q 2309 441 2620 675 
Q 2931 909 2931 1356 
Q 2931 1769 2642 2001 
Q 2353 2234 1838 2234 
L 1294 2234 
L 1294 2753 
L 1863 2753 
Q 2328 2753 2575 2939 
Q 2822 3125 2822 3475 
Q 2822 3834 2567 4026 
Q 2313 4219 1838 4219 
Q 1578 4219 1281 4162 
Q 984 4106 628 3988 
L 628 4550 
Q 988 4650 1302 4700 
Q 1616 4750 1894 4750 
Q 2613 4750 3031 4423 
Q 3450 4097 3450 3541 
Q 3450 3153 3228 2886 
Q 3006 2619 2597 2516 
z
" id="DejaVuSans-33" transform="scale(0.015625)"/>
     </defs>
     <use transform="translate(0 0.09375)" xlink:href="#DejaVuSans-Oblique-52"/>
     <use transform="translate(69.482422 -16.3125)scale(0.7)" xlink:href="#DejaVuSans-33"/>
    </g>
   </g>
   <g id="text_8">
    <!-- $R_4$ -->
    <g transform="translate(129.7644 393.699125)scale(0.14 -0.14)">
     <defs>
      <path d="M 2419 4116 
L 825 1625 
L 2419 1625 
L 2419 4116 
z
M 2253 4666 
L 3047 4666 
L 3047 1625 
L 3713 1625 
L 3713 1100 
L 3047 1100 
L 3047 0 
L 2419 0 
L 2419 1100 
L 313 1100 
L 313 1709 
L 2253 4666 
z
" id="DejaVuSans-34" transform="scale(0.015625)"/>
     </defs>
     <use transform="translate(0 0.09375)" xlink:href="#DejaVuSans-Oblique-52"/>
     <use transform="translate(69.482422 -16.3125)scale(0.7)" xlink:href="#DejaVuSans-34"/>
    </g>
   </g>
   <g id="text_9">
    <!-- -15V -->
    <g transform="translate(140.632994 454.023812)scale(0.14 -0.14)">
     <defs>
      <path d="M 313 2009 
L 1997 2009 
L 1997 1497 
L 313 1497 
L 313 2009 
z
" id="DejaVuSans-2d" transform="scale(0.015625)"/>
     </defs>
     <use xlink:href="#DejaVuSans-2d"/>
     <use x="36.083984" xlink:href="#DejaVuSans-31"/>
     <use x="99.707031" xlink:href="#DejaVuSans-35"/>
     <use x="163.330078" xlink:href="#DejaVuSans-56"/>
    </g>
   </g>
   <g id="text_10">
    <!-- $Q_3$ -->
    <g transform="translate(94.0734 414.762125)scale(0.14 -0.14)">
     <use transform="translate(0 0.78125)" xlink:href="#DejaVuSans-Oblique-51"/>
     <use transform="translate(78.710938 -15.625)scale(0.7)" xlink:href="#DejaVuSans-33"/>
    </g>
   </g>
   <g id="text_11">
    <!-- X -->
    <g transform="translate(14.3084 268.290125)scale(0.14 -0.14)">
     <defs>
      <path d="M 403 4666 
L 1081 4666 
L 2241 2931 
L 3406 4666 
L 4084 4666 
L 2584 2425 
L 4184 0 
L 3506 0 
L 2194 1984 
L 872 0 
L 191 0 
L 1856 2491 
L 403 4666 
z
" id="DejaVuSans-58" transform="scale(0.015625)"/>
     </defs>
     <use xlink:href="#DejaVuSans-58"/>
    </g>
   </g>
   <g id="text_12">
    <!-- IN -->
    <g transform="translate(11.801525 317.199125)scale(0.14 -0.14)">
     <defs>
      <path d="M 628 4666 
L 1259 4666 
L 1259 0 
L 628 0 
L 628 4666 
z
" id="DejaVuSans-49" transform="scale(0.015625)"/>
      <path d="M 628 4666 
L 1478 4666 
L 3547 763 
L 3547 4666 
L 4159 4666 
L 4159 0 
L 3309 0 
L 1241 3903 
L 1241 0 
L 628 0 
L 628 4666 
z
" id="DejaVuSans-4e" transform="scale(0.015625)"/>
     </defs>
     <use xlink:href="#DejaVuSans-49"/>
     <use x="29.492188" xlink:href="#DejaVuSans-4e"/>
    </g>
   </g>
   <g id="text_13">
    <!-- Y -->
    <g transform="translate(14.827931 366.108125)scale(0.14 -0.14)">
     <defs>
      <path d="M -13 4666 
L 666 4666 
L 1959 2747 
L 3244 4666 
L 3922 4666 
L 2272 2222 
L 2272 0 
L 1638 0 
L 1638 2222 
L -13 4666 
z
" id="DejaVuSans-59" transform="scale(0.015625)"/>
     </defs>
     <use xlink:href="#DejaVuSans-59"/>
    </g>
   </g>
   <g id="text_14">
    <!-- OUT -->
    <g transform="translate(317.130494 159.940625)scale(0.14 -0.14)">
     <defs>
      <path d="M 2522 4238 
Q 1834 4238 1429 3725 
Q 1025 3213 1025 2328 
Q 1025 1447 1429 934 
Q 1834 422 2522 422 
Q 3209 422 3611 934 
Q 4013 1447 4013 2328 
Q 4013 3213 3611 3725 
Q 3209 4238 2522 4238 
z
M 2522 4750 
Q 3503 4750 4090 4092 
Q 4678 3434 4678 2328 
Q 4678 1225 4090 567 
Q 3503 -91 2522 -91 
Q 1538 -91 948 565 
Q 359 1222 359 2328 
Q 359 3434 948 4092 
Q 1538 4750 2522 4750 
z
" id="DejaVuSans-4f" transform="scale(0.015625)"/>
      <path d="M 556 4666 
L 1191 4666 
L 1191 1831 
Q 1191 1081 1462 751 
Q 1734 422 2344 422 
Q 2950 422 3222 751 
Q 3494 1081 3494 1831 
L 3494 4666 
L 4128 4666 
L 4128 1753 
Q 4128 841 3676 375 
Q 3225 -91 2344 -91 
Q 1459 -91 1007 375 
Q 556 841 556 1753 
L 556 4666 
z
" id="DejaVuSans-55" transform="scale(0.015625)"/>
      <path d="M -19 4666 
L 3928 4666 
L 3928 4134 
L 2272 4134 
L 2272 0 
L 1638 0 
L 1638 4134 
L -19 4134 
L -19 4666 
z
" id="DejaVuSans-54" transform="scale(0.015625)"/>
     </defs>
     <use xlink:href="#DejaVuSans-4f"/>
     <use x="78.710938" xlink:href="#DejaVuSans-55"/>
     <use x="151.904297" xlink:href="#DejaVuSans-54"/>
    </g>
   </g>
   <g id="patch_8">
    <path clip-path="url(#p4fcbaf4422)" d="M 19.1034 217.813 
C 19.712041 217.813 20.295836 217.571184 20.72621 217.14081 
C 21.156584 216.710436 21.3984 216.126641 21.3984 215.518 
C 21.3984 214.909359 21.156584 214.325564 20.72621 213.89519 
C 20.295836 213.464816 19.712041 213.223 19.1034 213.223 
C 18.494759 213.223 17.910964 213.464816 17.48059 213.89519 
C 17.050216 214.325564 16.8084 214.909359 16.8084 215.518 
C 16.8084 216.126641 17.050216 216.710436 17.48059 217.14081 
C 17.910964 217.571184 18.494759 217.813 19.1034 217.813 
z
" style="fill:#ffffff;stroke:#000000;stroke-linejoin:miter;stroke-width:0.9;"/>
   </g>
   <g id="patch_9">
    <path clip-path="url(#p4fcbaf4422)" d="M 156.8544 277.381 
C 157.463041 277.381 158.046836 277.139184 158.47721 276.70881 
C 158.907584 276.278436 159.1494 275.694641 159.1494 275.086 
C 159.1494 274.477359 158.907584 273.893564 158.47721 273.46319 
C 158.046836 273.032816 157.463041 272.791 156.8544 272.791 
C 156.245759 272.791 155.661964 273.032816 155.23159 273.46319 
C 154.801216 273.893564 154.5594 274.477359 154.5594 275.086 
C 154.5594 275.694641 154.801216 276.278436 155.23159 276.70881 
C 155.661964 277.139184 156.245759 277.381 156.8544 277.381 
z
" style="stroke:#000000;stroke-linejoin:miter;stroke-width:0.9;"/>
   </g>
   <g id="patch_10">
    <path clip-path="url(#p4fcbaf4422)" d="M 156.8544 353.881 
C 157.463041 353.881 158.046836 353.639184 158.47721 353.20881 
C 158.907584 352.778436 159.1494 352.194641 159.1494 351.586 
C 159.1494 350.977359 158.907584 350.393564 158.47721 349.96319 
C 158.046836 349.532816 157.463041 349.291 156.8544 349.291 
C 156.245759 349.291 155.661964 349.532816 155.23159 349.96319 
C 154.801216 350.393564 154.5594 350.977359 154.5594 351.586 
C 154.5594 352.194641 154.801216 352.778436 155.23159 353.20881 
C 155.661964 353.639184 156.245759 353.881 156.8544 353.881 
z
" style="stroke:#000000;stroke-linejoin:miter;stroke-width:0.9;"/>
   </g>
   <g id="patch_11">
    <path clip-path="url(#p4fcbaf4422)" d="M 19.1034 413.449 
C 19.712041 413.449 20.295836 413.207184 20.72621 412.77681 
C 21.156584 412.346436 21.3984 411.762641 21.3984 411.154 
C 21.3984 410.545359 21.156584 409.961564 20.72621 409.53119 
C 20.295836 409.100816 19.712041 408.859 19.1034 408.859 
C 18.494759 408.859 17.910964 409.100816 17.48059 409.53119 
C 17.050216 409.961564 16.8084 410.545359 16.8084 411.154 
C 16.8084 411.762641 17.050216 412.346436 17.48059 412.77681 
C 17.910964 413.207184 18.494759 413.449 19.1034 413.449 
z
" style="fill:#ffffff;stroke:#000000;stroke-linejoin:miter;stroke-width:0.9;"/>
   </g>
   <g id="patch_12">
    <path clip-path="url(#p4fcbaf4422)" d="M 80.3544 170.995 
C 80.963041 170.995 81.546836 170.753184 81.97721 170.32281 
C 82.407584 169.892436 82.6494 169.308641 82.6494 168.7 
C 82.6494 168.091359 82.407584 167.507564 81.97721 167.07719 
C 81.546836 166.646816 80.963041 166.405 80.3544 166.405 
C 79.745759 166.405 79.161964 166.646816 78.73159 167.07719 
C 78.301216 167.507564 78.0594 168.091359 78.0594 168.7 
C 78.0594 169.308641 78.301216 169.892436 78.73159 170.32281 
C 79.161964 170.753184 79.745759 170.995 80.3544 170.995 
z
" style="stroke:#000000;stroke-linejoin:miter;stroke-width:0.9;"/>
   </g>
   <g id="patch_13">
    <path clip-path="url(#p4fcbaf4422)" d="M 309.8544 170.995 
C 310.463041 170.995 311.046836 170.753184 311.47721 170.32281 
C 311.907584 169.892436 312.1494 169.308641 312.1494 168.7 
C 312.1494 168.091359 311.907584 167.507564 311.47721 167.07719 
C 311.046836 166.646816 310.463041 166.405 309.8544 166.405 
C 309.245759 166.405 308.661964 166.646816 308.23159 167.07719 
C 307.801216 167.507564 307.5594 168.091359 307.5594 168.7 
C 307.5594 169.308641 307.801216 169.892436 308.23159 170.32281 
C 308.661964 170.753184 309.245759 170.995 309.8544 170.995 
z
" style="fill:#ffffff;stroke:#000000;stroke-linejoin:miter;stroke-width:0.9;"/>
   </g>
   <g id="patch_14">
    <path clip-path="url(#p4fcbaf4422)" d="M 233.3544 145.495 
C 233.963041 145.495 234.546836 145.253184 234.97721 144.82281 
C 235.407584 144.392436 235.6494 143.808641 235.6494 143.2 
C 235.6494 142.591359 235.407584 142.007564 234.97721 141.57719 
C 234.546836 141.146816 233.963041 140.905 233.3544 140.905 
C 232.745759 140.905 232.161964 141.146816 231.73159 141.57719 
C 231.301216 142.007564 231.0594 142.591359 231.0594 143.2 
C 231.0594 143.808641 231.301216 144.392436 231.73159 144.82281 
C 232.161964 145.253184 232.745759 145.495 233.3544 145.495 
z
" style="stroke:#000000;stroke-linejoin:miter;stroke-width:0.9;"/>
   </g>
   <g id="patch_15">
    <path clip-path="url(#p4fcbaf4422)" d="M 309.8544 145.495 
C 310.463041 145.495 311.046836 145.253184 311.47721 144.82281 
C 311.907584 144.392436 312.1494 143.808641 312.1494 143.2 
C 312.1494 142.591359 311.907584 142.007564 311.47721 141.57719 
C 311.046836 141.146816 310.463041 140.905 309.8544 140.905 
C 309.245759 140.905 308.661964 141.146816 308.23159 141.57719 
C 307.801216 142.007564 307.5594 142.591359 307.5594 143.2 
C 307.5594 143.808641 307.801216 144.392436 308.23159 144.82281 
C 308.661964 145.253184 309.245759 145.495 309.8544 145.495 
z
" style="fill:#ffffff;stroke:#000000;stroke-linejoin:miter;stroke-width:0.9;"/>
   </g>
  </g>
 </g>
 <defs>
  <clipPath id="p4fcbaf4422">
   <rect height="451.826" width="346.4073" x="7.2" y="7.2"/>
  </clipPath>
 </defs>
</svg>
