<?xml version="1.0" encoding="utf-8" standalone="no"?>
<!DOCTYPE svg PUBLIC "-//W3C//DTD SVG 1.1//EN"
  "http://www.w3.org/Graphics/SVG/1.1/DTD/svg11.dtd">
<!-- Created with matplotlib (https://matplotlib.org/) -->
<svg height="430.987807pt" version="1.1" viewBox="0 0 568.385937 430.987807" width="568.385937pt" xmlns="http://www.w3.org/2000/svg" xmlns:xlink="http://www.w3.org/1999/xlink">
 <metadata>
  <rdf:RDF xmlns:cc="http://creativecommons.org/ns#" xmlns:dc="http://purl.org/dc/elements/1.1/" xmlns:rdf="http://www.w3.org/1999/02/22-rdf-syntax-ns#">
   <cc:Work>
    <dc:type rdf:resource="http://purl.org/dc/dcmitype/StillImage"/>
    <dc:date>2021-03-28T13:08:28.998729</dc:date>
    <dc:format>image/svg+xml</dc:format>
    <dc:creator>
     <cc:Agent>
      <dc:title>Matplotlib v3.3.4, https://matplotlib.org/</dc:title>
     </cc:Agent>
    </dc:creator>
   </cc:Work>
  </rdf:RDF>
 </metadata>
 <defs>
  <style type="text/css">*{stroke-linecap:butt;stroke-linejoin:round;}</style>
 </defs>
 <g id="figure_1">
  <g id="patch_1">
   <path d="M 0 430.987807 
L 568.385937 430.987807 
L 568.385937 0 
L 0 0 
z
" style="fill:none;"/>
  </g>
  <g id="axes_1">
   <g id="patch_2">
    <path d="M 52.160938 177.761818 
L 561.185937 177.761818 
L 561.185937 7.2 
L 52.160938 7.2 
z
" style="fill:#ffffff;"/>
   </g>
   <g id="matplotlib.axis_1">
    <g id="xtick_1">
     <g id="line2d_1">
      <path clip-path="url(#p2bb1c8f2d3)" d="M 75.298438 177.761818 
L 75.298438 7.2 
" style="fill:none;stroke:#b0b0b0;stroke-linecap:square;stroke-width:0.8;"/>
     </g>
     <g id="line2d_2">
      <defs>
       <path d="M 0 0 
L 0 3.5 
" id="m243a600684" style="stroke:#000000;stroke-width:0.8;"/>
      </defs>
      <g>
       <use style="stroke:#000000;stroke-width:0.8;" x="75.298438" xlink:href="#m243a600684" y="177.761818"/>
      </g>
     </g>
     <g id="text_1">
      <!-- 0.000 -->
      <g transform="translate(60.984375 192.360256)scale(0.1 -0.1)">
       <defs>
        <path d="M 31.78125 66.40625 
Q 24.171875 66.40625 20.328125 58.90625 
Q 16.5 51.421875 16.5 36.375 
Q 16.5 21.390625 20.328125 13.890625 
Q 24.171875 6.390625 31.78125 6.390625 
Q 39.453125 6.390625 43.28125 13.890625 
Q 47.125 21.390625 47.125 36.375 
Q 47.125 51.421875 43.28125 58.90625 
Q 39.453125 66.40625 31.78125 66.40625 
z
M 31.78125 74.21875 
Q 44.046875 74.21875 50.515625 64.515625 
Q 56.984375 54.828125 56.984375 36.375 
Q 56.984375 17.96875 50.515625 8.265625 
Q 44.046875 -1.421875 31.78125 -1.421875 
Q 19.53125 -1.421875 13.0625 8.265625 
Q 6.59375 17.96875 6.59375 36.375 
Q 6.59375 54.828125 13.0625 64.515625 
Q 19.53125 74.21875 31.78125 74.21875 
z
" id="DejaVuSans-48"/>
        <path d="M 10.6875 12.40625 
L 21 12.40625 
L 21 0 
L 10.6875 0 
z
" id="DejaVuSans-46"/>
       </defs>
       <use xlink:href="#DejaVuSans-48"/>
       <use x="63.623047" xlink:href="#DejaVuSans-46"/>
       <use x="95.410156" xlink:href="#DejaVuSans-48"/>
       <use x="159.033203" xlink:href="#DejaVuSans-48"/>
       <use x="222.65625" xlink:href="#DejaVuSans-48"/>
      </g>
     </g>
    </g>
    <g id="xtick_2">
     <g id="line2d_3">
      <path clip-path="url(#p2bb1c8f2d3)" d="M 168.313513 177.761818 
L 168.313513 7.2 
" style="fill:none;stroke:#b0b0b0;stroke-linecap:square;stroke-width:0.8;"/>
     </g>
     <g id="line2d_4">
      <g>
       <use style="stroke:#000000;stroke-width:0.8;" x="168.313513" xlink:href="#m243a600684" y="177.761818"/>
      </g>
     </g>
     <g id="text_2">
      <!-- 0.002 -->
      <g transform="translate(153.99945 192.360256)scale(0.1 -0.1)">
       <defs>
        <path d="M 19.1875 8.296875 
L 53.609375 8.296875 
L 53.609375 0 
L 7.328125 0 
L 7.328125 8.296875 
Q 12.9375 14.109375 22.625 23.890625 
Q 32.328125 33.6875 34.8125 36.53125 
Q 39.546875 41.84375 41.421875 45.53125 
Q 43.3125 49.21875 43.3125 52.78125 
Q 43.3125 58.59375 39.234375 62.25 
Q 35.15625 65.921875 28.609375 65.921875 
Q 23.96875 65.921875 18.8125 64.3125 
Q 13.671875 62.703125 7.8125 59.421875 
L 7.8125 69.390625 
Q 13.765625 71.78125 18.9375 73 
Q 24.125 74.21875 28.421875 74.21875 
Q 39.75 74.21875 46.484375 68.546875 
Q 53.21875 62.890625 53.21875 53.421875 
Q 53.21875 48.921875 51.53125 44.890625 
Q 49.859375 40.875 45.40625 35.40625 
Q 44.1875 33.984375 37.640625 27.21875 
Q 31.109375 20.453125 19.1875 8.296875 
z
" id="DejaVuSans-50"/>
       </defs>
       <use xlink:href="#DejaVuSans-48"/>
       <use x="63.623047" xlink:href="#DejaVuSans-46"/>
       <use x="95.410156" xlink:href="#DejaVuSans-48"/>
       <use x="159.033203" xlink:href="#DejaVuSans-48"/>
       <use x="222.65625" xlink:href="#DejaVuSans-50"/>
      </g>
     </g>
    </g>
    <g id="xtick_3">
     <g id="line2d_5">
      <path clip-path="url(#p2bb1c8f2d3)" d="M 261.328588 177.761818 
L 261.328588 7.2 
" style="fill:none;stroke:#b0b0b0;stroke-linecap:square;stroke-width:0.8;"/>
     </g>
     <g id="line2d_6">
      <g>
       <use style="stroke:#000000;stroke-width:0.8;" x="261.328588" xlink:href="#m243a600684" y="177.761818"/>
      </g>
     </g>
     <g id="text_3">
      <!-- 0.004 -->
      <g transform="translate(247.014526 192.360256)scale(0.1 -0.1)">
       <defs>
        <path d="M 37.796875 64.3125 
L 12.890625 25.390625 
L 37.796875 25.390625 
z
M 35.203125 72.90625 
L 47.609375 72.90625 
L 47.609375 25.390625 
L 58.015625 25.390625 
L 58.015625 17.1875 
L 47.609375 17.1875 
L 47.609375 0 
L 37.796875 0 
L 37.796875 17.1875 
L 4.890625 17.1875 
L 4.890625 26.703125 
z
" id="DejaVuSans-52"/>
       </defs>
       <use xlink:href="#DejaVuSans-48"/>
       <use x="63.623047" xlink:href="#DejaVuSans-46"/>
       <use x="95.410156" xlink:href="#DejaVuSans-48"/>
       <use x="159.033203" xlink:href="#DejaVuSans-48"/>
       <use x="222.65625" xlink:href="#DejaVuSans-52"/>
      </g>
     </g>
    </g>
    <g id="xtick_4">
     <g id="line2d_7">
      <path clip-path="url(#p2bb1c8f2d3)" d="M 354.343664 177.761818 
L 354.343664 7.2 
" style="fill:none;stroke:#b0b0b0;stroke-linecap:square;stroke-width:0.8;"/>
     </g>
     <g id="line2d_8">
      <g>
       <use style="stroke:#000000;stroke-width:0.8;" x="354.343664" xlink:href="#m243a600684" y="177.761818"/>
      </g>
     </g>
     <g id="text_4">
      <!-- 0.006 -->
      <g transform="translate(340.029601 192.360256)scale(0.1 -0.1)">
       <defs>
        <path d="M 33.015625 40.375 
Q 26.375 40.375 22.484375 35.828125 
Q 18.609375 31.296875 18.609375 23.390625 
Q 18.609375 15.53125 22.484375 10.953125 
Q 26.375 6.390625 33.015625 6.390625 
Q 39.65625 6.390625 43.53125 10.953125 
Q 47.40625 15.53125 47.40625 23.390625 
Q 47.40625 31.296875 43.53125 35.828125 
Q 39.65625 40.375 33.015625 40.375 
z
M 52.59375 71.296875 
L 52.59375 62.3125 
Q 48.875 64.0625 45.09375 64.984375 
Q 41.3125 65.921875 37.59375 65.921875 
Q 27.828125 65.921875 22.671875 59.328125 
Q 17.53125 52.734375 16.796875 39.40625 
Q 19.671875 43.65625 24.015625 45.921875 
Q 28.375 48.1875 33.59375 48.1875 
Q 44.578125 48.1875 50.953125 41.515625 
Q 57.328125 34.859375 57.328125 23.390625 
Q 57.328125 12.15625 50.6875 5.359375 
Q 44.046875 -1.421875 33.015625 -1.421875 
Q 20.359375 -1.421875 13.671875 8.265625 
Q 6.984375 17.96875 6.984375 36.375 
Q 6.984375 53.65625 15.1875 63.9375 
Q 23.390625 74.21875 37.203125 74.21875 
Q 40.921875 74.21875 44.703125 73.484375 
Q 48.484375 72.75 52.59375 71.296875 
z
" id="DejaVuSans-54"/>
       </defs>
       <use xlink:href="#DejaVuSans-48"/>
       <use x="63.623047" xlink:href="#DejaVuSans-46"/>
       <use x="95.410156" xlink:href="#DejaVuSans-48"/>
       <use x="159.033203" xlink:href="#DejaVuSans-48"/>
       <use x="222.65625" xlink:href="#DejaVuSans-54"/>
      </g>
     </g>
    </g>
    <g id="xtick_5">
     <g id="line2d_9">
      <path clip-path="url(#p2bb1c8f2d3)" d="M 447.358739 177.761818 
L 447.358739 7.2 
" style="fill:none;stroke:#b0b0b0;stroke-linecap:square;stroke-width:0.8;"/>
     </g>
     <g id="line2d_10">
      <g>
       <use style="stroke:#000000;stroke-width:0.8;" x="447.358739" xlink:href="#m243a600684" y="177.761818"/>
      </g>
     </g>
     <g id="text_5">
      <!-- 0.008 -->
      <g transform="translate(433.044677 192.360256)scale(0.1 -0.1)">
       <defs>
        <path d="M 31.78125 34.625 
Q 24.75 34.625 20.71875 30.859375 
Q 16.703125 27.09375 16.703125 20.515625 
Q 16.703125 13.921875 20.71875 10.15625 
Q 24.75 6.390625 31.78125 6.390625 
Q 38.8125 6.390625 42.859375 10.171875 
Q 46.921875 13.96875 46.921875 20.515625 
Q 46.921875 27.09375 42.890625 30.859375 
Q 38.875 34.625 31.78125 34.625 
z
M 21.921875 38.8125 
Q 15.578125 40.375 12.03125 44.71875 
Q 8.5 49.078125 8.5 55.328125 
Q 8.5 64.0625 14.71875 69.140625 
Q 20.953125 74.21875 31.78125 74.21875 
Q 42.671875 74.21875 48.875 69.140625 
Q 55.078125 64.0625 55.078125 55.328125 
Q 55.078125 49.078125 51.53125 44.71875 
Q 48 40.375 41.703125 38.8125 
Q 48.828125 37.15625 52.796875 32.3125 
Q 56.78125 27.484375 56.78125 20.515625 
Q 56.78125 9.90625 50.3125 4.234375 
Q 43.84375 -1.421875 31.78125 -1.421875 
Q 19.734375 -1.421875 13.25 4.234375 
Q 6.78125 9.90625 6.78125 20.515625 
Q 6.78125 27.484375 10.78125 32.3125 
Q 14.796875 37.15625 21.921875 38.8125 
z
M 18.3125 54.390625 
Q 18.3125 48.734375 21.84375 45.5625 
Q 25.390625 42.390625 31.78125 42.390625 
Q 38.140625 42.390625 41.71875 45.5625 
Q 45.3125 48.734375 45.3125 54.390625 
Q 45.3125 60.0625 41.71875 63.234375 
Q 38.140625 66.40625 31.78125 66.40625 
Q 25.390625 66.40625 21.84375 63.234375 
Q 18.3125 60.0625 18.3125 54.390625 
z
" id="DejaVuSans-56"/>
       </defs>
       <use xlink:href="#DejaVuSans-48"/>
       <use x="63.623047" xlink:href="#DejaVuSans-46"/>
       <use x="95.410156" xlink:href="#DejaVuSans-48"/>
       <use x="159.033203" xlink:href="#DejaVuSans-48"/>
       <use x="222.65625" xlink:href="#DejaVuSans-56"/>
      </g>
     </g>
    </g>
    <g id="xtick_6">
     <g id="line2d_11">
      <path clip-path="url(#p2bb1c8f2d3)" d="M 540.373814 177.761818 
L 540.373814 7.2 
" style="fill:none;stroke:#b0b0b0;stroke-linecap:square;stroke-width:0.8;"/>
     </g>
     <g id="line2d_12">
      <g>
       <use style="stroke:#000000;stroke-width:0.8;" x="540.373814" xlink:href="#m243a600684" y="177.761818"/>
      </g>
     </g>
     <g id="text_6">
      <!-- 0.010 -->
      <g transform="translate(526.059752 192.360256)scale(0.1 -0.1)">
       <defs>
        <path d="M 12.40625 8.296875 
L 28.515625 8.296875 
L 28.515625 63.921875 
L 10.984375 60.40625 
L 10.984375 69.390625 
L 28.421875 72.90625 
L 38.28125 72.90625 
L 38.28125 8.296875 
L 54.390625 8.296875 
L 54.390625 0 
L 12.40625 0 
z
" id="DejaVuSans-49"/>
       </defs>
       <use xlink:href="#DejaVuSans-48"/>
       <use x="63.623047" xlink:href="#DejaVuSans-46"/>
       <use x="95.410156" xlink:href="#DejaVuSans-48"/>
       <use x="159.033203" xlink:href="#DejaVuSans-49"/>
       <use x="222.65625" xlink:href="#DejaVuSans-48"/>
      </g>
     </g>
    </g>
   </g>
   <g id="matplotlib.axis_2">
    <g id="ytick_1">
     <g id="line2d_13">
      <path clip-path="url(#p2bb1c8f2d3)" d="M 52.160938 170.009008 
L 561.185937 170.009008 
" style="fill:none;stroke:#b0b0b0;stroke-linecap:square;stroke-width:0.8;"/>
     </g>
     <g id="line2d_14">
      <defs>
       <path d="M 0 0 
L -3.5 0 
" id="mc5aaf36ac7" style="stroke:#000000;stroke-width:0.8;"/>
      </defs>
      <g>
       <use style="stroke:#000000;stroke-width:0.8;" x="52.160938" xlink:href="#mc5aaf36ac7" y="170.009008"/>
      </g>
     </g>
     <g id="text_7">
      <!-- −1.0 -->
      <g transform="translate(20.878125 173.808227)scale(0.1 -0.1)">
       <defs>
        <path d="M 10.59375 35.5 
L 73.1875 35.5 
L 73.1875 27.203125 
L 10.59375 27.203125 
z
" id="DejaVuSans-8722"/>
       </defs>
       <use xlink:href="#DejaVuSans-8722"/>
       <use x="83.789062" xlink:href="#DejaVuSans-49"/>
       <use x="147.412109" xlink:href="#DejaVuSans-46"/>
       <use x="179.199219" xlink:href="#DejaVuSans-48"/>
      </g>
     </g>
    </g>
    <g id="ytick_2">
     <g id="line2d_15">
      <path clip-path="url(#p2bb1c8f2d3)" d="M 52.160938 131.244959 
L 561.185937 131.244959 
" style="fill:none;stroke:#b0b0b0;stroke-linecap:square;stroke-width:0.8;"/>
     </g>
     <g id="line2d_16">
      <g>
       <use style="stroke:#000000;stroke-width:0.8;" x="52.160938" xlink:href="#mc5aaf36ac7" y="131.244959"/>
      </g>
     </g>
     <g id="text_8">
      <!-- −0.5 -->
      <g transform="translate(20.878125 135.044177)scale(0.1 -0.1)">
       <defs>
        <path d="M 10.796875 72.90625 
L 49.515625 72.90625 
L 49.515625 64.59375 
L 19.828125 64.59375 
L 19.828125 46.734375 
Q 21.96875 47.46875 24.109375 47.828125 
Q 26.265625 48.1875 28.421875 48.1875 
Q 40.625 48.1875 47.75 41.5 
Q 54.890625 34.8125 54.890625 23.390625 
Q 54.890625 11.625 47.5625 5.09375 
Q 40.234375 -1.421875 26.90625 -1.421875 
Q 22.3125 -1.421875 17.546875 -0.640625 
Q 12.796875 0.140625 7.71875 1.703125 
L 7.71875 11.625 
Q 12.109375 9.234375 16.796875 8.0625 
Q 21.484375 6.890625 26.703125 6.890625 
Q 35.15625 6.890625 40.078125 11.328125 
Q 45.015625 15.765625 45.015625 23.390625 
Q 45.015625 31 40.078125 35.4375 
Q 35.15625 39.890625 26.703125 39.890625 
Q 22.75 39.890625 18.8125 39.015625 
Q 14.890625 38.140625 10.796875 36.28125 
z
" id="DejaVuSans-53"/>
       </defs>
       <use xlink:href="#DejaVuSans-8722"/>
       <use x="83.789062" xlink:href="#DejaVuSans-48"/>
       <use x="147.412109" xlink:href="#DejaVuSans-46"/>
       <use x="179.199219" xlink:href="#DejaVuSans-53"/>
      </g>
     </g>
    </g>
    <g id="ytick_3">
     <g id="line2d_17">
      <path clip-path="url(#p2bb1c8f2d3)" d="M 52.160938 92.480909 
L 561.185937 92.480909 
" style="fill:none;stroke:#b0b0b0;stroke-linecap:square;stroke-width:0.8;"/>
     </g>
     <g id="line2d_18">
      <g>
       <use style="stroke:#000000;stroke-width:0.8;" x="52.160938" xlink:href="#mc5aaf36ac7" y="92.480909"/>
      </g>
     </g>
     <g id="text_9">
      <!-- 0.0 -->
      <g transform="translate(29.257813 96.280128)scale(0.1 -0.1)">
       <use xlink:href="#DejaVuSans-48"/>
       <use x="63.623047" xlink:href="#DejaVuSans-46"/>
       <use x="95.410156" xlink:href="#DejaVuSans-48"/>
      </g>
     </g>
    </g>
    <g id="ytick_4">
     <g id="line2d_19">
      <path clip-path="url(#p2bb1c8f2d3)" d="M 52.160938 53.71686 
L 561.185937 53.71686 
" style="fill:none;stroke:#b0b0b0;stroke-linecap:square;stroke-width:0.8;"/>
     </g>
     <g id="line2d_20">
      <g>
       <use style="stroke:#000000;stroke-width:0.8;" x="52.160938" xlink:href="#mc5aaf36ac7" y="53.71686"/>
      </g>
     </g>
     <g id="text_10">
      <!-- 0.5 -->
      <g transform="translate(29.257813 57.516078)scale(0.1 -0.1)">
       <use xlink:href="#DejaVuSans-48"/>
       <use x="63.623047" xlink:href="#DejaVuSans-46"/>
       <use x="95.410156" xlink:href="#DejaVuSans-53"/>
      </g>
     </g>
    </g>
    <g id="ytick_5">
     <g id="line2d_21">
      <path clip-path="url(#p2bb1c8f2d3)" d="M 52.160938 14.95281 
L 561.185937 14.95281 
" style="fill:none;stroke:#b0b0b0;stroke-linecap:square;stroke-width:0.8;"/>
     </g>
     <g id="line2d_22">
      <g>
       <use style="stroke:#000000;stroke-width:0.8;" x="52.160938" xlink:href="#mc5aaf36ac7" y="14.95281"/>
      </g>
     </g>
     <g id="text_11">
      <!-- 1.0 -->
      <g transform="translate(29.257813 18.752029)scale(0.1 -0.1)">
       <use xlink:href="#DejaVuSans-49"/>
       <use x="63.623047" xlink:href="#DejaVuSans-46"/>
       <use x="95.410156" xlink:href="#DejaVuSans-48"/>
      </g>
     </g>
    </g>
    <g id="text_12">
     <!-- amplitude -->
     <g transform="translate(14.798438 117.747315)rotate(-90)scale(0.1 -0.1)">
      <defs>
       <path d="M 34.28125 27.484375 
Q 23.390625 27.484375 19.1875 25 
Q 14.984375 22.515625 14.984375 16.5 
Q 14.984375 11.71875 18.140625 8.90625 
Q 21.296875 6.109375 26.703125 6.109375 
Q 34.1875 6.109375 38.703125 11.40625 
Q 43.21875 16.703125 43.21875 25.484375 
L 43.21875 27.484375 
z
M 52.203125 31.203125 
L 52.203125 0 
L 43.21875 0 
L 43.21875 8.296875 
Q 40.140625 3.328125 35.546875 0.953125 
Q 30.953125 -1.421875 24.3125 -1.421875 
Q 15.921875 -1.421875 10.953125 3.296875 
Q 6 8.015625 6 15.921875 
Q 6 25.140625 12.171875 29.828125 
Q 18.359375 34.515625 30.609375 34.515625 
L 43.21875 34.515625 
L 43.21875 35.40625 
Q 43.21875 41.609375 39.140625 45 
Q 35.0625 48.390625 27.6875 48.390625 
Q 23 48.390625 18.546875 47.265625 
Q 14.109375 46.140625 10.015625 43.890625 
L 10.015625 52.203125 
Q 14.9375 54.109375 19.578125 55.046875 
Q 24.21875 56 28.609375 56 
Q 40.484375 56 46.34375 49.84375 
Q 52.203125 43.703125 52.203125 31.203125 
z
" id="DejaVuSans-97"/>
       <path d="M 52 44.1875 
Q 55.375 50.25 60.0625 53.125 
Q 64.75 56 71.09375 56 
Q 79.640625 56 84.28125 50.015625 
Q 88.921875 44.046875 88.921875 33.015625 
L 88.921875 0 
L 79.890625 0 
L 79.890625 32.71875 
Q 79.890625 40.578125 77.09375 44.375 
Q 74.3125 48.1875 68.609375 48.1875 
Q 61.625 48.1875 57.5625 43.546875 
Q 53.515625 38.921875 53.515625 30.90625 
L 53.515625 0 
L 44.484375 0 
L 44.484375 32.71875 
Q 44.484375 40.625 41.703125 44.40625 
Q 38.921875 48.1875 33.109375 48.1875 
Q 26.21875 48.1875 22.15625 43.53125 
Q 18.109375 38.875 18.109375 30.90625 
L 18.109375 0 
L 9.078125 0 
L 9.078125 54.6875 
L 18.109375 54.6875 
L 18.109375 46.1875 
Q 21.1875 51.21875 25.484375 53.609375 
Q 29.78125 56 35.6875 56 
Q 41.65625 56 45.828125 52.96875 
Q 50 49.953125 52 44.1875 
z
" id="DejaVuSans-109"/>
       <path d="M 18.109375 8.203125 
L 18.109375 -20.796875 
L 9.078125 -20.796875 
L 9.078125 54.6875 
L 18.109375 54.6875 
L 18.109375 46.390625 
Q 20.953125 51.265625 25.265625 53.625 
Q 29.59375 56 35.59375 56 
Q 45.5625 56 51.78125 48.09375 
Q 58.015625 40.1875 58.015625 27.296875 
Q 58.015625 14.40625 51.78125 6.484375 
Q 45.5625 -1.421875 35.59375 -1.421875 
Q 29.59375 -1.421875 25.265625 0.953125 
Q 20.953125 3.328125 18.109375 8.203125 
z
M 48.6875 27.296875 
Q 48.6875 37.203125 44.609375 42.84375 
Q 40.53125 48.484375 33.40625 48.484375 
Q 26.265625 48.484375 22.1875 42.84375 
Q 18.109375 37.203125 18.109375 27.296875 
Q 18.109375 17.390625 22.1875 11.75 
Q 26.265625 6.109375 33.40625 6.109375 
Q 40.53125 6.109375 44.609375 11.75 
Q 48.6875 17.390625 48.6875 27.296875 
z
" id="DejaVuSans-112"/>
       <path d="M 9.421875 75.984375 
L 18.40625 75.984375 
L 18.40625 0 
L 9.421875 0 
z
" id="DejaVuSans-108"/>
       <path d="M 9.421875 54.6875 
L 18.40625 54.6875 
L 18.40625 0 
L 9.421875 0 
z
M 9.421875 75.984375 
L 18.40625 75.984375 
L 18.40625 64.59375 
L 9.421875 64.59375 
z
" id="DejaVuSans-105"/>
       <path d="M 18.3125 70.21875 
L 18.3125 54.6875 
L 36.8125 54.6875 
L 36.8125 47.703125 
L 18.3125 47.703125 
L 18.3125 18.015625 
Q 18.3125 11.328125 20.140625 9.421875 
Q 21.96875 7.515625 27.59375 7.515625 
L 36.8125 7.515625 
L 36.8125 0 
L 27.59375 0 
Q 17.1875 0 13.234375 3.875 
Q 9.28125 7.765625 9.28125 18.015625 
L 9.28125 47.703125 
L 2.6875 47.703125 
L 2.6875 54.6875 
L 9.28125 54.6875 
L 9.28125 70.21875 
z
" id="DejaVuSans-116"/>
       <path d="M 8.5 21.578125 
L 8.5 54.6875 
L 17.484375 54.6875 
L 17.484375 21.921875 
Q 17.484375 14.15625 20.5 10.265625 
Q 23.53125 6.390625 29.59375 6.390625 
Q 36.859375 6.390625 41.078125 11.03125 
Q 45.3125 15.671875 45.3125 23.6875 
L 45.3125 54.6875 
L 54.296875 54.6875 
L 54.296875 0 
L 45.3125 0 
L 45.3125 8.40625 
Q 42.046875 3.421875 37.71875 1 
Q 33.40625 -1.421875 27.6875 -1.421875 
Q 18.265625 -1.421875 13.375 4.4375 
Q 8.5 10.296875 8.5 21.578125 
z
M 31.109375 56 
z
" id="DejaVuSans-117"/>
       <path d="M 45.40625 46.390625 
L 45.40625 75.984375 
L 54.390625 75.984375 
L 54.390625 0 
L 45.40625 0 
L 45.40625 8.203125 
Q 42.578125 3.328125 38.25 0.953125 
Q 33.9375 -1.421875 27.875 -1.421875 
Q 17.96875 -1.421875 11.734375 6.484375 
Q 5.515625 14.40625 5.515625 27.296875 
Q 5.515625 40.1875 11.734375 48.09375 
Q 17.96875 56 27.875 56 
Q 33.9375 56 38.25 53.625 
Q 42.578125 51.265625 45.40625 46.390625 
z
M 14.796875 27.296875 
Q 14.796875 17.390625 18.875 11.75 
Q 22.953125 6.109375 30.078125 6.109375 
Q 37.203125 6.109375 41.296875 11.75 
Q 45.40625 17.390625 45.40625 27.296875 
Q 45.40625 37.203125 41.296875 42.84375 
Q 37.203125 48.484375 30.078125 48.484375 
Q 22.953125 48.484375 18.875 42.84375 
Q 14.796875 37.203125 14.796875 27.296875 
z
" id="DejaVuSans-100"/>
       <path d="M 56.203125 29.59375 
L 56.203125 25.203125 
L 14.890625 25.203125 
Q 15.484375 15.921875 20.484375 11.0625 
Q 25.484375 6.203125 34.421875 6.203125 
Q 39.59375 6.203125 44.453125 7.46875 
Q 49.3125 8.734375 54.109375 11.28125 
L 54.109375 2.78125 
Q 49.265625 0.734375 44.1875 -0.34375 
Q 39.109375 -1.421875 33.890625 -1.421875 
Q 20.796875 -1.421875 13.15625 6.1875 
Q 5.515625 13.8125 5.515625 26.8125 
Q 5.515625 40.234375 12.765625 48.109375 
Q 20.015625 56 32.328125 56 
Q 43.359375 56 49.78125 48.890625 
Q 56.203125 41.796875 56.203125 29.59375 
z
M 47.21875 32.234375 
Q 47.125 39.59375 43.09375 43.984375 
Q 39.0625 48.390625 32.421875 48.390625 
Q 24.90625 48.390625 20.390625 44.140625 
Q 15.875 39.890625 15.1875 32.171875 
z
" id="DejaVuSans-101"/>
      </defs>
      <use xlink:href="#DejaVuSans-97"/>
      <use x="61.279297" xlink:href="#DejaVuSans-109"/>
      <use x="158.691406" xlink:href="#DejaVuSans-112"/>
      <use x="222.167969" xlink:href="#DejaVuSans-108"/>
      <use x="249.951172" xlink:href="#DejaVuSans-105"/>
      <use x="277.734375" xlink:href="#DejaVuSans-116"/>
      <use x="316.943359" xlink:href="#DejaVuSans-117"/>
      <use x="380.322266" xlink:href="#DejaVuSans-100"/>
      <use x="443.798828" xlink:href="#DejaVuSans-101"/>
     </g>
    </g>
   </g>
   <g id="line2d_23">
    <path clip-path="url(#p2bb1c8f2d3)" d="M 75.298438 92.480909 
L 77.623814 68.523409 
L 79.949191 46.911036 
L 82.274568 29.759359 
L 84.599945 18.747305 
L 86.925322 14.95281 
L 89.250699 18.747305 
L 91.576076 29.759359 
L 93.901453 46.911036 
L 96.226829 68.523409 
L 100.877583 116.438409 
L 103.20296 138.050782 
L 105.528337 155.202459 
L 107.853714 166.214513 
L 110.179091 170.009008 
L 112.504468 166.214513 
L 114.829845 155.202459 
L 117.155221 138.050782 
L 119.480598 116.438409 
L 124.131352 68.523409 
L 126.456729 46.911036 
L 128.782106 29.759359 
L 131.107483 18.747305 
L 133.43286 14.95281 
L 135.758236 18.747305 
L 138.083613 29.759359 
L 140.40899 46.911036 
L 142.734367 68.523409 
L 147.385121 116.438409 
L 149.710498 138.050782 
L 152.035875 155.202459 
L 154.361252 166.214513 
L 156.686628 170.009008 
L 159.012005 166.214513 
L 161.337382 155.202459 
L 163.662759 138.050782 
L 165.988136 116.438409 
L 170.63889 68.523409 
L 172.964267 46.911036 
L 175.289644 29.759359 
L 177.61502 18.747305 
L 179.940397 14.95281 
L 182.265774 18.747305 
L 184.591151 29.759359 
L 186.916528 46.911036 
L 189.241905 68.523409 
L 193.892659 116.438409 
L 196.218035 138.050782 
L 198.543412 155.202459 
L 200.868789 166.214513 
L 203.194166 170.009008 
L 205.519543 166.214513 
L 207.84492 155.202459 
L 210.170297 138.050782 
L 212.495674 116.438409 
L 217.146427 68.523409 
L 219.471804 46.911036 
L 221.797181 29.759359 
L 224.122558 18.747305 
L 226.447935 14.95281 
L 228.773312 18.747305 
L 231.098689 29.759359 
L 233.424066 46.911036 
L 235.749443 68.523409 
L 240.400196 116.438409 
L 242.725573 138.050782 
L 245.05095 155.202459 
L 247.376327 166.214513 
L 249.701704 170.009008 
L 252.027081 166.214513 
L 254.352458 155.202459 
L 256.677834 138.050782 
L 259.003211 116.438409 
L 263.653965 68.523409 
L 265.979342 46.911036 
L 268.304719 29.759359 
L 270.630096 18.747305 
L 272.955473 14.95281 
L 275.28085 18.747305 
L 277.606226 29.759359 
L 279.931603 46.911036 
L 282.25698 68.523409 
L 286.907734 116.438409 
L 289.233111 138.050782 
L 291.558488 155.202459 
L 293.883865 166.214513 
L 296.209242 170.009008 
L 298.534618 166.214513 
L 300.859995 155.202459 
L 303.185372 138.050782 
L 305.510749 116.438409 
L 310.161503 68.523409 
L 312.48688 46.911036 
L 314.812257 29.759359 
L 317.137633 18.747305 
L 319.46301 14.95281 
L 321.788387 18.747305 
L 324.113764 29.759359 
L 326.439141 46.911036 
L 328.764518 68.523409 
L 333.415272 116.438409 
L 335.740649 138.050782 
L 338.066025 155.202459 
L 340.391402 166.214513 
L 342.716779 170.009008 
L 345.042156 166.214513 
L 347.367533 155.202459 
L 349.69291 138.050782 
L 352.018287 116.438409 
L 356.669041 68.523409 
L 358.994417 46.911036 
L 361.319794 29.759359 
L 363.645171 18.747305 
L 365.970548 14.95281 
L 368.295925 18.747305 
L 370.621302 29.759359 
L 372.946679 46.911036 
L 375.272056 68.523409 
L 379.922809 116.438409 
L 382.248186 138.050782 
L 384.573563 155.202459 
L 386.89894 166.214513 
L 389.224317 170.009008 
L 391.549694 166.214513 
L 393.875071 155.202459 
L 396.200448 138.050782 
L 398.525824 116.438409 
L 403.176578 68.523409 
L 405.501955 46.911036 
L 407.827332 29.759359 
L 410.152709 18.747305 
L 412.478086 14.95281 
L 414.803463 18.747305 
L 417.12884 29.759359 
L 419.454216 46.911036 
L 421.779593 68.523409 
L 426.430347 116.438409 
L 428.755724 138.050782 
L 431.081101 155.202459 
L 433.406478 166.214513 
L 435.731855 170.009008 
L 438.057231 166.214513 
L 440.382608 155.202459 
L 442.707985 138.050782 
L 445.033362 116.438409 
L 449.684116 68.523409 
L 452.009493 46.911036 
L 454.33487 29.759359 
L 456.660247 18.747305 
L 458.985623 14.95281 
L 461.311 18.747305 
L 463.636377 29.759359 
L 465.961754 46.911036 
L 468.287131 68.523409 
L 472.937885 116.438409 
L 475.263262 138.050782 
L 477.588639 155.202459 
L 479.914015 166.214513 
L 482.239392 170.009008 
L 484.564769 166.214513 
L 486.890146 155.202459 
L 489.215523 138.050782 
L 491.5409 116.438409 
L 496.191654 68.523409 
L 498.51703 46.911036 
L 500.842407 29.759359 
L 503.167784 18.747305 
L 505.493161 14.95281 
L 507.818538 18.747305 
L 510.143915 29.759359 
L 512.469292 46.911036 
L 514.794669 68.523409 
L 519.445422 116.438409 
L 521.770799 138.050782 
L 524.096176 155.202459 
L 526.421553 166.214513 
L 528.74693 170.009008 
L 531.072307 166.214513 
L 533.397684 155.202459 
L 535.723061 138.050782 
L 538.048437 116.438409 
L 538.048437 116.438409 
" style="fill:none;stroke:#808080;stroke-dasharray:5.55,2.4;stroke-dashoffset:0;stroke-width:1.5;"/>
   </g>
   <g id="line2d_24">
    <path clip-path="url(#p2bb1c8f2d3)" d="M 75.298438 92.480909 
L 84.599945 73.200455 
L 89.250699 63.940912 
L 93.901453 55.131462 
L 98.552206 46.911036 
L 103.20296 39.409273 
L 105.528337 35.965357 
L 107.853714 32.744482 
L 110.179091 29.759359 
L 112.504468 27.02177 
L 114.829845 24.542518 
L 117.155221 22.331388 
L 119.480598 20.397105 
L 121.805975 18.747305 
L 124.131352 17.388498 
L 126.456729 16.326046 
L 128.782106 15.564142 
L 131.107483 15.105794 
L 133.43286 14.95281 
L 135.758236 15.105794 
L 138.083613 15.564142 
L 140.40899 16.326046 
L 142.734367 17.388498 
L 145.059744 18.747305 
L 147.385121 20.397105 
L 149.710498 22.331388 
L 152.035875 24.542518 
L 154.361252 27.02177 
L 156.686628 29.759359 
L 159.012005 32.744482 
L 161.337382 35.965357 
L 163.662759 39.409273 
L 168.313513 46.911036 
L 172.964267 55.131462 
L 177.61502 63.940912 
L 182.265774 73.200455 
L 189.241905 87.612879 
L 200.868789 111.761363 
L 205.519543 121.020906 
L 210.170297 129.830356 
L 214.821051 138.050782 
L 219.471804 145.552545 
L 221.797181 148.996461 
L 224.122558 152.217336 
L 226.447935 155.202459 
L 228.773312 157.940048 
L 231.098689 160.4193 
L 233.424066 162.630431 
L 235.749443 164.564713 
L 238.074819 166.214513 
L 240.400196 167.57332 
L 242.725573 168.635772 
L 245.05095 169.397676 
L 247.376327 169.856024 
L 249.701704 170.009008 
L 252.027081 169.856024 
L 254.352458 169.397676 
L 256.677834 168.635772 
L 259.003211 167.57332 
L 261.328588 166.214513 
L 263.653965 164.564713 
L 265.979342 162.630431 
L 268.304719 160.4193 
L 270.630096 157.940048 
L 272.955473 155.202459 
L 275.28085 152.217336 
L 277.606226 148.996461 
L 279.931603 145.552545 
L 284.582357 138.050782 
L 289.233111 129.830356 
L 293.883865 121.020906 
L 298.534618 111.761363 
L 305.510749 97.348939 
L 317.137633 73.200455 
L 321.788387 63.940912 
L 326.439141 55.131462 
L 331.089895 46.911036 
L 335.740649 39.409273 
L 338.066025 35.965357 
L 340.391402 32.744482 
L 342.716779 29.759359 
L 345.042156 27.02177 
L 347.367533 24.542518 
L 349.69291 22.331388 
L 352.018287 20.397105 
L 354.343664 18.747305 
L 356.669041 17.388498 
L 358.994417 16.326046 
L 361.319794 15.564142 
L 363.645171 15.105794 
L 365.970548 14.95281 
L 368.295925 15.105794 
L 370.621302 15.564142 
L 372.946679 16.326046 
L 375.272056 17.388498 
L 377.597432 18.747305 
L 379.922809 20.397105 
L 382.248186 22.331388 
L 384.573563 24.542518 
L 386.89894 27.02177 
L 389.224317 29.759359 
L 391.549694 32.744482 
L 393.875071 35.965357 
L 396.200448 39.409273 
L 400.851201 46.911036 
L 405.501955 55.131462 
L 410.152709 63.940912 
L 414.803463 73.200455 
L 421.779593 87.612879 
L 433.406478 111.761363 
L 438.057231 121.020906 
L 442.707985 129.830356 
L 447.358739 138.050782 
L 452.009493 145.552545 
L 454.33487 148.996461 
L 456.660247 152.217336 
L 458.985623 155.202459 
L 461.311 157.940048 
L 463.636377 160.4193 
L 465.961754 162.630431 
L 468.287131 164.564713 
L 470.612508 166.214513 
L 472.937885 167.57332 
L 475.263262 168.635772 
L 477.588639 169.397676 
L 479.914015 169.856024 
L 482.239392 170.009008 
L 484.564769 169.856024 
L 486.890146 169.397676 
L 489.215523 168.635772 
L 491.5409 167.57332 
L 493.866277 166.214513 
L 496.191654 164.564713 
L 498.51703 162.630431 
L 500.842407 160.4193 
L 503.167784 157.940048 
L 505.493161 155.202459 
L 507.818538 152.217336 
L 510.143915 148.996461 
L 512.469292 145.552545 
L 517.120046 138.050782 
L 521.770799 129.830356 
L 526.421553 121.020906 
L 531.072307 111.761363 
L 538.048437 97.348939 
L 538.048437 97.348939 
" style="fill:none;stroke:#808080;stroke-linecap:square;stroke-width:1.5;"/>
   </g>
   <g id="line2d_25">
    <path clip-path="url(#p2bb1c8f2d3)" d="M 75.298438 92.480909 
L 77.623814 90.976605 
L 79.949191 86.76949 
L 82.274568 80.728063 
L 84.599945 74.144107 
L 86.925322 68.523409 
L 89.250699 65.337759 
L 91.576076 65.775372 
L 93.901453 70.527455 
L 96.226829 79.643839 
L 98.552206 92.480909 
L 105.528337 138.202951 
L 107.853714 149.293627 
L 110.179091 155.202459 
L 112.504468 154.73625 
L 114.829845 147.444222 
L 117.155221 133.713763 
L 119.480598 114.756029 
L 126.456729 47.718203 
L 128.782106 30.253937 
L 131.107483 18.892802 
L 133.43286 14.95281 
L 135.758236 18.892802 
L 138.083613 30.253937 
L 140.40899 47.718203 
L 142.734367 69.276078 
L 147.385121 114.756029 
L 149.710498 133.713763 
L 152.035875 147.444222 
L 154.361252 154.73625 
L 156.686628 155.202459 
L 159.012005 149.293627 
L 161.337382 138.202951 
L 163.662759 123.675634 
L 168.313513 92.480909 
L 170.63889 79.643839 
L 172.964267 70.527455 
L 175.289644 65.775372 
L 177.61502 65.337759 
L 179.940397 68.523409 
L 182.265774 74.144107 
L 184.591151 80.728063 
L 186.916528 86.76949 
L 189.241905 90.976605 
L 191.567282 92.480909 
L 193.892659 90.976605 
L 196.218035 86.76949 
L 198.543412 80.728063 
L 200.868789 74.144107 
L 203.194166 68.523409 
L 205.519543 65.337759 
L 207.84492 65.775372 
L 210.170297 70.527455 
L 212.495674 79.643839 
L 214.821051 92.480909 
L 221.797181 138.202951 
L 224.122558 149.293627 
L 226.447935 155.202459 
L 228.773312 154.73625 
L 231.098689 147.444222 
L 233.424066 133.713763 
L 235.749443 114.756029 
L 242.725573 47.718203 
L 245.05095 30.253937 
L 247.376327 18.892802 
L 249.701704 14.95281 
L 252.027081 18.892802 
L 254.352458 30.253937 
L 256.677834 47.718203 
L 259.003211 69.276078 
L 263.653965 114.756029 
L 265.979342 133.713763 
L 268.304719 147.444222 
L 270.630096 154.73625 
L 272.955473 155.202459 
L 275.28085 149.293627 
L 277.606226 138.202951 
L 279.931603 123.675634 
L 284.582357 92.480909 
L 286.907734 79.643839 
L 289.233111 70.527455 
L 291.558488 65.775372 
L 293.883865 65.337759 
L 296.209242 68.523409 
L 298.534618 74.144107 
L 300.859995 80.728063 
L 303.185372 86.76949 
L 305.510749 90.976605 
L 307.836126 92.480909 
L 310.161503 90.976605 
L 312.48688 86.76949 
L 314.812257 80.728063 
L 317.137633 74.144107 
L 319.46301 68.523409 
L 321.788387 65.337759 
L 324.113764 65.775372 
L 326.439141 70.527455 
L 328.764518 79.643839 
L 331.089895 92.480909 
L 338.066025 138.202951 
L 340.391402 149.293627 
L 342.716779 155.202459 
L 345.042156 154.73625 
L 347.367533 147.444222 
L 349.69291 133.713763 
L 352.018287 114.756029 
L 358.994417 47.718203 
L 361.319794 30.253937 
L 363.645171 18.892802 
L 365.970548 14.95281 
L 368.295925 18.892802 
L 370.621302 30.253937 
L 372.946679 47.718203 
L 375.272056 69.276078 
L 379.922809 114.756029 
L 382.248186 133.713763 
L 384.573563 147.444222 
L 386.89894 154.73625 
L 389.224317 155.202459 
L 391.549694 149.293627 
L 393.875071 138.202951 
L 396.200448 123.675634 
L 400.851201 92.480909 
L 403.176578 79.643839 
L 405.501955 70.527455 
L 407.827332 65.775372 
L 410.152709 65.337759 
L 412.478086 68.523409 
L 414.803463 74.144107 
L 417.12884 80.728063 
L 419.454216 86.76949 
L 421.779593 90.976605 
L 424.10497 92.480909 
L 426.430347 90.976605 
L 428.755724 86.76949 
L 431.081101 80.728063 
L 433.406478 74.144107 
L 435.731855 68.523409 
L 438.057231 65.337759 
L 440.382608 65.775372 
L 442.707985 70.527455 
L 445.033362 79.643839 
L 447.358739 92.480909 
L 454.33487 138.202951 
L 456.660247 149.293627 
L 458.985623 155.202459 
L 461.311 154.73625 
L 463.636377 147.444222 
L 465.961754 133.713763 
L 468.287131 114.756029 
L 475.263262 47.718203 
L 477.588639 30.253937 
L 479.914015 18.892802 
L 482.239392 14.95281 
L 484.564769 18.892802 
L 486.890146 30.253937 
L 489.215523 47.718203 
L 491.5409 69.276078 
L 496.191654 114.756029 
L 498.51703 133.713763 
L 500.842407 147.444222 
L 503.167784 154.73625 
L 505.493161 155.202459 
L 507.818538 149.293627 
L 510.143915 138.202951 
L 512.469292 123.675634 
L 517.120046 92.480909 
L 519.445422 79.643839 
L 521.770799 70.527455 
L 524.096176 65.775372 
L 526.421553 65.337759 
L 528.74693 68.523409 
L 531.072307 74.144107 
L 533.397684 80.728063 
L 535.723061 86.76949 
L 538.048437 90.976605 
L 538.048437 90.976605 
" style="fill:none;stroke:#ff0000;stroke-linecap:square;stroke-width:1.5;"/>
   </g>
   <g id="patch_3">
    <path d="M 52.160938 177.761818 
L 52.160938 7.2 
" style="fill:none;stroke:#000000;stroke-linecap:square;stroke-linejoin:miter;stroke-width:0.8;"/>
   </g>
   <g id="patch_4">
    <path d="M 561.185937 177.761818 
L 561.185937 7.2 
" style="fill:none;stroke:#000000;stroke-linecap:square;stroke-linejoin:miter;stroke-width:0.8;"/>
   </g>
   <g id="patch_5">
    <path d="M 52.160938 177.761818 
L 561.185937 177.761818 
" style="fill:none;stroke:#000000;stroke-linecap:square;stroke-linejoin:miter;stroke-width:0.8;"/>
   </g>
   <g id="patch_6">
    <path d="M 52.160938 7.2 
L 561.185937 7.2 
" style="fill:none;stroke:#000000;stroke-linecap:square;stroke-linejoin:miter;stroke-width:0.8;"/>
   </g>
  </g>
  <g id="axes_2">
   <g id="patch_7">
    <path d="M 52.160938 376.123636 
L 561.185937 376.123636 
L 561.185937 205.561818 
L 52.160938 205.561818 
z
" style="fill:#ffffff;"/>
   </g>
   <g id="matplotlib.axis_3">
    <g id="xtick_7">
     <g id="line2d_26">
      <path clip-path="url(#p205ae18e81)" d="M 75.298438 376.123636 
L 75.298438 205.561818 
" style="fill:none;stroke:#b0b0b0;stroke-linecap:square;stroke-width:0.8;"/>
     </g>
     <g id="line2d_27">
      <g>
       <use style="stroke:#000000;stroke-width:0.8;" x="75.298438" xlink:href="#m243a600684" y="376.123636"/>
      </g>
     </g>
     <g id="text_13">
      <!-- 0 -->
      <g transform="translate(72.117188 390.722074)scale(0.1 -0.1)">
       <use xlink:href="#DejaVuSans-48"/>
      </g>
     </g>
    </g>
    <g id="xtick_8">
     <g id="line2d_28">
      <path clip-path="url(#p205ae18e81)" d="M 149.935534 376.123636 
L 149.935534 205.561818 
" style="fill:none;stroke:#b0b0b0;stroke-linecap:square;stroke-width:0.8;"/>
     </g>
     <g id="line2d_29">
      <g>
       <use style="stroke:#000000;stroke-width:0.8;" x="149.935534" xlink:href="#m243a600684" y="376.123636"/>
      </g>
     </g>
     <g id="text_14">
      <!-- 400 -->
      <g transform="translate(140.391784 390.722074)scale(0.1 -0.1)">
       <use xlink:href="#DejaVuSans-52"/>
       <use x="63.623047" xlink:href="#DejaVuSans-48"/>
       <use x="127.246094" xlink:href="#DejaVuSans-48"/>
      </g>
     </g>
    </g>
    <g id="xtick_9">
     <g id="line2d_30">
      <path clip-path="url(#p205ae18e81)" d="M 224.572631 376.123636 
L 224.572631 205.561818 
" style="fill:none;stroke:#b0b0b0;stroke-linecap:square;stroke-width:0.8;"/>
     </g>
     <g id="line2d_31">
      <g>
       <use style="stroke:#000000;stroke-width:0.8;" x="224.572631" xlink:href="#m243a600684" y="376.123636"/>
      </g>
     </g>
     <g id="text_15">
      <!-- 800 -->
      <g transform="translate(215.028881 390.722074)scale(0.1 -0.1)">
       <use xlink:href="#DejaVuSans-56"/>
       <use x="63.623047" xlink:href="#DejaVuSans-48"/>
       <use x="127.246094" xlink:href="#DejaVuSans-48"/>
      </g>
     </g>
    </g>
    <g id="xtick_10">
     <g id="line2d_32">
      <path clip-path="url(#p205ae18e81)" d="M 299.209728 376.123636 
L 299.209728 205.561818 
" style="fill:none;stroke:#b0b0b0;stroke-linecap:square;stroke-width:0.8;"/>
     </g>
     <g id="line2d_33">
      <g>
       <use style="stroke:#000000;stroke-width:0.8;" x="299.209728" xlink:href="#m243a600684" y="376.123636"/>
      </g>
     </g>
     <g id="text_16">
      <!-- 1200 -->
      <g transform="translate(286.484728 390.722074)scale(0.1 -0.1)">
       <use xlink:href="#DejaVuSans-49"/>
       <use x="63.623047" xlink:href="#DejaVuSans-50"/>
       <use x="127.246094" xlink:href="#DejaVuSans-48"/>
       <use x="190.869141" xlink:href="#DejaVuSans-48"/>
      </g>
     </g>
    </g>
    <g id="xtick_11">
     <g id="line2d_34">
      <path clip-path="url(#p205ae18e81)" d="M 373.846825 376.123636 
L 373.846825 205.561818 
" style="fill:none;stroke:#b0b0b0;stroke-linecap:square;stroke-width:0.8;"/>
     </g>
     <g id="line2d_35">
      <g>
       <use style="stroke:#000000;stroke-width:0.8;" x="373.846825" xlink:href="#m243a600684" y="376.123636"/>
      </g>
     </g>
     <g id="text_17">
      <!-- 1600 -->
      <g transform="translate(361.121825 390.722074)scale(0.1 -0.1)">
       <use xlink:href="#DejaVuSans-49"/>
       <use x="63.623047" xlink:href="#DejaVuSans-54"/>
       <use x="127.246094" xlink:href="#DejaVuSans-48"/>
       <use x="190.869141" xlink:href="#DejaVuSans-48"/>
      </g>
     </g>
    </g>
    <g id="xtick_12">
     <g id="line2d_36">
      <path clip-path="url(#p205ae18e81)" d="M 448.483921 376.123636 
L 448.483921 205.561818 
" style="fill:none;stroke:#b0b0b0;stroke-linecap:square;stroke-width:0.8;"/>
     </g>
     <g id="line2d_37">
      <g>
       <use style="stroke:#000000;stroke-width:0.8;" x="448.483921" xlink:href="#m243a600684" y="376.123636"/>
      </g>
     </g>
     <g id="text_18">
      <!-- 2000 -->
      <g transform="translate(435.758921 390.722074)scale(0.1 -0.1)">
       <use xlink:href="#DejaVuSans-50"/>
       <use x="63.623047" xlink:href="#DejaVuSans-48"/>
       <use x="127.246094" xlink:href="#DejaVuSans-48"/>
       <use x="190.869141" xlink:href="#DejaVuSans-48"/>
      </g>
     </g>
    </g>
    <g id="xtick_13">
     <g id="line2d_38">
      <path clip-path="url(#p205ae18e81)" d="M 523.121018 376.123636 
L 523.121018 205.561818 
" style="fill:none;stroke:#b0b0b0;stroke-linecap:square;stroke-width:0.8;"/>
     </g>
     <g id="line2d_39">
      <g>
       <use style="stroke:#000000;stroke-width:0.8;" x="523.121018" xlink:href="#m243a600684" y="376.123636"/>
      </g>
     </g>
     <g id="text_19">
      <!-- 2400 -->
      <g transform="translate(510.396018 390.722074)scale(0.1 -0.1)">
       <use xlink:href="#DejaVuSans-50"/>
       <use x="63.623047" xlink:href="#DejaVuSans-52"/>
       <use x="127.246094" xlink:href="#DejaVuSans-48"/>
       <use x="190.869141" xlink:href="#DejaVuSans-48"/>
      </g>
     </g>
    </g>
   </g>
   <g id="matplotlib.axis_4">
    <g id="ytick_6">
     <g id="line2d_40">
      <path clip-path="url(#p205ae18e81)" d="M 52.160938 368.370826 
L 561.185937 368.370826 
" style="fill:none;stroke:#b0b0b0;stroke-linecap:square;stroke-width:0.8;"/>
     </g>
     <g id="line2d_41">
      <g>
       <use style="stroke:#000000;stroke-width:0.8;" x="52.160938" xlink:href="#mc5aaf36ac7" y="368.370826"/>
      </g>
     </g>
     <g id="text_20">
      <!-- 0.0 -->
      <g transform="translate(29.257813 372.170045)scale(0.1 -0.1)">
       <use xlink:href="#DejaVuSans-48"/>
       <use x="63.623047" xlink:href="#DejaVuSans-46"/>
       <use x="95.410156" xlink:href="#DejaVuSans-48"/>
      </g>
     </g>
    </g>
    <g id="ytick_7">
     <g id="line2d_42">
      <path clip-path="url(#p205ae18e81)" d="M 52.160938 337.359587 
L 561.185937 337.359587 
" style="fill:none;stroke:#b0b0b0;stroke-linecap:square;stroke-width:0.8;"/>
     </g>
     <g id="line2d_43">
      <g>
       <use style="stroke:#000000;stroke-width:0.8;" x="52.160938" xlink:href="#mc5aaf36ac7" y="337.359587"/>
      </g>
     </g>
     <g id="text_21">
      <!-- 0.1 -->
      <g transform="translate(29.257813 341.158806)scale(0.1 -0.1)">
       <use xlink:href="#DejaVuSans-48"/>
       <use x="63.623047" xlink:href="#DejaVuSans-46"/>
       <use x="95.410156" xlink:href="#DejaVuSans-49"/>
      </g>
     </g>
    </g>
    <g id="ytick_8">
     <g id="line2d_44">
      <path clip-path="url(#p205ae18e81)" d="M 52.160938 306.348347 
L 561.185937 306.348347 
" style="fill:none;stroke:#b0b0b0;stroke-linecap:square;stroke-width:0.8;"/>
     </g>
     <g id="line2d_45">
      <g>
       <use style="stroke:#000000;stroke-width:0.8;" x="52.160938" xlink:href="#mc5aaf36ac7" y="306.348347"/>
      </g>
     </g>
     <g id="text_22">
      <!-- 0.2 -->
      <g transform="translate(29.257813 310.147566)scale(0.1 -0.1)">
       <use xlink:href="#DejaVuSans-48"/>
       <use x="63.623047" xlink:href="#DejaVuSans-46"/>
       <use x="95.410156" xlink:href="#DejaVuSans-50"/>
      </g>
     </g>
    </g>
    <g id="ytick_9">
     <g id="line2d_46">
      <path clip-path="url(#p205ae18e81)" d="M 52.160938 275.337107 
L 561.185937 275.337107 
" style="fill:none;stroke:#b0b0b0;stroke-linecap:square;stroke-width:0.8;"/>
     </g>
     <g id="line2d_47">
      <g>
       <use style="stroke:#000000;stroke-width:0.8;" x="52.160938" xlink:href="#mc5aaf36ac7" y="275.337107"/>
      </g>
     </g>
     <g id="text_23">
      <!-- 0.3 -->
      <g transform="translate(29.257813 279.136326)scale(0.1 -0.1)">
       <defs>
        <path d="M 40.578125 39.3125 
Q 47.65625 37.796875 51.625 33 
Q 55.609375 28.21875 55.609375 21.1875 
Q 55.609375 10.40625 48.1875 4.484375 
Q 40.765625 -1.421875 27.09375 -1.421875 
Q 22.515625 -1.421875 17.65625 -0.515625 
Q 12.796875 0.390625 7.625 2.203125 
L 7.625 11.71875 
Q 11.71875 9.328125 16.59375 8.109375 
Q 21.484375 6.890625 26.8125 6.890625 
Q 36.078125 6.890625 40.9375 10.546875 
Q 45.796875 14.203125 45.796875 21.1875 
Q 45.796875 27.640625 41.28125 31.265625 
Q 36.765625 34.90625 28.71875 34.90625 
L 20.21875 34.90625 
L 20.21875 43.015625 
L 29.109375 43.015625 
Q 36.375 43.015625 40.234375 45.921875 
Q 44.09375 48.828125 44.09375 54.296875 
Q 44.09375 59.90625 40.109375 62.90625 
Q 36.140625 65.921875 28.71875 65.921875 
Q 24.65625 65.921875 20.015625 65.03125 
Q 15.375 64.15625 9.8125 62.3125 
L 9.8125 71.09375 
Q 15.4375 72.65625 20.34375 73.4375 
Q 25.25 74.21875 29.59375 74.21875 
Q 40.828125 74.21875 47.359375 69.109375 
Q 53.90625 64.015625 53.90625 55.328125 
Q 53.90625 49.265625 50.4375 45.09375 
Q 46.96875 40.921875 40.578125 39.3125 
z
" id="DejaVuSans-51"/>
       </defs>
       <use xlink:href="#DejaVuSans-48"/>
       <use x="63.623047" xlink:href="#DejaVuSans-46"/>
       <use x="95.410156" xlink:href="#DejaVuSans-51"/>
      </g>
     </g>
    </g>
    <g id="ytick_10">
     <g id="line2d_48">
      <path clip-path="url(#p205ae18e81)" d="M 52.160938 244.325868 
L 561.185937 244.325868 
" style="fill:none;stroke:#b0b0b0;stroke-linecap:square;stroke-width:0.8;"/>
     </g>
     <g id="line2d_49">
      <g>
       <use style="stroke:#000000;stroke-width:0.8;" x="52.160938" xlink:href="#mc5aaf36ac7" y="244.325868"/>
      </g>
     </g>
     <g id="text_24">
      <!-- 0.4 -->
      <g transform="translate(29.257813 248.125087)scale(0.1 -0.1)">
       <use xlink:href="#DejaVuSans-48"/>
       <use x="63.623047" xlink:href="#DejaVuSans-46"/>
       <use x="95.410156" xlink:href="#DejaVuSans-52"/>
      </g>
     </g>
    </g>
    <g id="ytick_11">
     <g id="line2d_50">
      <path clip-path="url(#p205ae18e81)" d="M 52.160938 213.314628 
L 561.185937 213.314628 
" style="fill:none;stroke:#b0b0b0;stroke-linecap:square;stroke-width:0.8;"/>
     </g>
     <g id="line2d_51">
      <g>
       <use style="stroke:#000000;stroke-width:0.8;" x="52.160938" xlink:href="#mc5aaf36ac7" y="213.314628"/>
      </g>
     </g>
     <g id="text_25">
      <!-- 0.5 -->
      <g transform="translate(29.257813 217.113847)scale(0.1 -0.1)">
       <use xlink:href="#DejaVuSans-48"/>
       <use x="63.623047" xlink:href="#DejaVuSans-46"/>
       <use x="95.410156" xlink:href="#DejaVuSans-53"/>
      </g>
     </g>
    </g>
    <g id="text_26">
     <!-- frequency -->
     <g transform="translate(23.178125 315.91929)rotate(-90)scale(0.1 -0.1)">
      <defs>
       <path d="M 37.109375 75.984375 
L 37.109375 68.5 
L 28.515625 68.5 
Q 23.6875 68.5 21.796875 66.546875 
Q 19.921875 64.59375 19.921875 59.515625 
L 19.921875 54.6875 
L 34.71875 54.6875 
L 34.71875 47.703125 
L 19.921875 47.703125 
L 19.921875 0 
L 10.890625 0 
L 10.890625 47.703125 
L 2.296875 47.703125 
L 2.296875 54.6875 
L 10.890625 54.6875 
L 10.890625 58.5 
Q 10.890625 67.625 15.140625 71.796875 
Q 19.390625 75.984375 28.609375 75.984375 
z
" id="DejaVuSans-102"/>
       <path d="M 41.109375 46.296875 
Q 39.59375 47.171875 37.8125 47.578125 
Q 36.03125 48 33.890625 48 
Q 26.265625 48 22.1875 43.046875 
Q 18.109375 38.09375 18.109375 28.8125 
L 18.109375 0 
L 9.078125 0 
L 9.078125 54.6875 
L 18.109375 54.6875 
L 18.109375 46.1875 
Q 20.953125 51.171875 25.484375 53.578125 
Q 30.03125 56 36.53125 56 
Q 37.453125 56 38.578125 55.875 
Q 39.703125 55.765625 41.0625 55.515625 
z
" id="DejaVuSans-114"/>
       <path d="M 14.796875 27.296875 
Q 14.796875 17.390625 18.875 11.75 
Q 22.953125 6.109375 30.078125 6.109375 
Q 37.203125 6.109375 41.296875 11.75 
Q 45.40625 17.390625 45.40625 27.296875 
Q 45.40625 37.203125 41.296875 42.84375 
Q 37.203125 48.484375 30.078125 48.484375 
Q 22.953125 48.484375 18.875 42.84375 
Q 14.796875 37.203125 14.796875 27.296875 
z
M 45.40625 8.203125 
Q 42.578125 3.328125 38.25 0.953125 
Q 33.9375 -1.421875 27.875 -1.421875 
Q 17.96875 -1.421875 11.734375 6.484375 
Q 5.515625 14.40625 5.515625 27.296875 
Q 5.515625 40.1875 11.734375 48.09375 
Q 17.96875 56 27.875 56 
Q 33.9375 56 38.25 53.625 
Q 42.578125 51.265625 45.40625 46.390625 
L 45.40625 54.6875 
L 54.390625 54.6875 
L 54.390625 -20.796875 
L 45.40625 -20.796875 
z
" id="DejaVuSans-113"/>
       <path d="M 54.890625 33.015625 
L 54.890625 0 
L 45.90625 0 
L 45.90625 32.71875 
Q 45.90625 40.484375 42.875 44.328125 
Q 39.84375 48.1875 33.796875 48.1875 
Q 26.515625 48.1875 22.3125 43.546875 
Q 18.109375 38.921875 18.109375 30.90625 
L 18.109375 0 
L 9.078125 0 
L 9.078125 54.6875 
L 18.109375 54.6875 
L 18.109375 46.1875 
Q 21.34375 51.125 25.703125 53.5625 
Q 30.078125 56 35.796875 56 
Q 45.21875 56 50.046875 50.171875 
Q 54.890625 44.34375 54.890625 33.015625 
z
" id="DejaVuSans-110"/>
       <path d="M 48.78125 52.59375 
L 48.78125 44.1875 
Q 44.96875 46.296875 41.140625 47.34375 
Q 37.3125 48.390625 33.40625 48.390625 
Q 24.65625 48.390625 19.8125 42.84375 
Q 14.984375 37.3125 14.984375 27.296875 
Q 14.984375 17.28125 19.8125 11.734375 
Q 24.65625 6.203125 33.40625 6.203125 
Q 37.3125 6.203125 41.140625 7.25 
Q 44.96875 8.296875 48.78125 10.40625 
L 48.78125 2.09375 
Q 45.015625 0.34375 40.984375 -0.53125 
Q 36.96875 -1.421875 32.421875 -1.421875 
Q 20.0625 -1.421875 12.78125 6.34375 
Q 5.515625 14.109375 5.515625 27.296875 
Q 5.515625 40.671875 12.859375 48.328125 
Q 20.21875 56 33.015625 56 
Q 37.15625 56 41.109375 55.140625 
Q 45.0625 54.296875 48.78125 52.59375 
z
" id="DejaVuSans-99"/>
       <path d="M 32.171875 -5.078125 
Q 28.375 -14.84375 24.75 -17.8125 
Q 21.140625 -20.796875 15.09375 -20.796875 
L 7.90625 -20.796875 
L 7.90625 -13.28125 
L 13.1875 -13.28125 
Q 16.890625 -13.28125 18.9375 -11.515625 
Q 21 -9.765625 23.484375 -3.21875 
L 25.09375 0.875 
L 2.984375 54.6875 
L 12.5 54.6875 
L 29.59375 11.921875 
L 46.6875 54.6875 
L 56.203125 54.6875 
z
" id="DejaVuSans-121"/>
      </defs>
      <use xlink:href="#DejaVuSans-102"/>
      <use x="35.205078" xlink:href="#DejaVuSans-114"/>
      <use x="74.068359" xlink:href="#DejaVuSans-101"/>
      <use x="135.591797" xlink:href="#DejaVuSans-113"/>
      <use x="199.068359" xlink:href="#DejaVuSans-117"/>
      <use x="262.447266" xlink:href="#DejaVuSans-101"/>
      <use x="323.970703" xlink:href="#DejaVuSans-110"/>
      <use x="387.349609" xlink:href="#DejaVuSans-99"/>
      <use x="442.330078" xlink:href="#DejaVuSans-121"/>
     </g>
    </g>
   </g>
   <g id="line2d_52">
    <path clip-path="url(#p205ae18e81)" d="M 75.298438 368.370826 
L 79.030292 368.370826 
L 82.762147 368.370826 
L 86.494002 368.370826 
L 90.225857 368.370826 
L 93.957712 368.370826 
L 97.689567 368.370826 
L 101.421421 368.370826 
L 105.153276 368.370826 
L 108.885131 368.370826 
L 112.616986 368.370826 
L 116.348841 368.370826 
L 120.080696 368.370826 
L 123.81255 368.370826 
L 127.544405 368.370826 
L 131.27626 368.370826 
L 135.008115 368.370826 
L 138.73997 368.370826 
L 142.471825 368.370826 
L 146.203679 368.370826 
L 149.935534 368.370826 
L 153.667389 368.370826 
L 157.399244 368.370826 
L 161.131099 368.370826 
L 164.862954 368.370826 
L 168.594808 368.370826 
L 172.326663 368.370826 
L 176.058518 368.370826 
L 179.790373 368.370826 
L 183.522228 368.370826 
L 187.254083 368.370826 
L 190.985937 368.370826 
L 194.717792 368.370826 
L 198.449647 368.370826 
L 202.181502 368.370826 
L 205.913357 368.370826 
L 209.645212 368.370826 
L 213.377067 368.370826 
L 217.108921 368.370826 
L 220.840776 368.370826 
L 224.572631 213.314628 
L 228.304486 368.370826 
L 232.036341 368.370826 
L 235.768196 368.370826 
L 239.50005 368.370826 
L 243.231905 368.370826 
L 246.96376 368.370826 
L 250.695615 368.370826 
L 254.42747 368.370826 
L 258.159325 368.370826 
L 261.891179 368.370826 
L 265.623034 368.370826 
L 269.354889 368.370826 
L 273.086744 368.370826 
L 276.818599 368.370826 
L 280.550454 368.370826 
L 284.282308 368.370826 
L 288.014163 368.370826 
L 291.746018 368.370826 
L 295.477873 368.370826 
L 299.209728 213.314628 
L 302.941583 368.370826 
L 306.673437 368.370826 
L 310.405292 368.370826 
L 314.137147 368.370826 
L 317.869002 368.370826 
L 321.600857 368.370826 
L 325.332712 368.370826 
L 329.064567 368.370826 
L 332.796421 368.370826 
L 336.528276 368.370826 
L 340.260131 368.370826 
L 343.991986 368.370826 
L 347.723841 368.370826 
L 351.455696 368.370826 
L 355.18755 368.370826 
L 358.919405 368.370826 
L 362.65126 368.370826 
L 366.383115 368.370826 
L 370.11497 368.370826 
L 373.846825 368.370826 
L 377.578679 368.370826 
L 381.310534 368.370826 
L 385.042389 368.370826 
L 388.774244 368.370826 
L 392.506099 368.370826 
L 396.237954 368.370826 
L 399.969808 368.370826 
L 403.701663 368.370826 
L 407.433518 368.370826 
L 411.165373 368.370826 
L 414.897228 368.370826 
L 418.629083 368.370826 
L 422.360937 368.370826 
L 426.092792 368.370826 
L 429.824647 368.370826 
L 433.556502 368.370826 
L 437.288357 368.370826 
L 441.020212 368.370826 
L 444.752067 368.370826 
L 448.483921 368.370826 
L 452.215776 368.370826 
L 455.947631 368.370826 
L 459.679486 368.370826 
L 463.411341 368.370826 
L 467.143196 368.370826 
L 470.87505 368.370826 
L 474.606905 368.370826 
L 478.33876 368.370826 
L 482.070615 368.370826 
L 485.80247 368.370826 
L 489.534325 368.370826 
L 493.266179 368.370826 
L 496.998034 368.370826 
L 500.729889 368.370826 
L 504.461744 368.370826 
L 508.193599 368.370826 
L 511.925454 368.370826 
L 515.657308 368.370826 
L 519.389163 368.370826 
L 523.121018 368.370826 
L 526.852873 368.370826 
L 530.584728 368.370826 
L 534.316583 368.370826 
L 538.048437 368.370826 
" style="fill:none;stroke:#1f77b4;stroke-linecap:square;stroke-width:1.5;"/>
   </g>
   <g id="patch_8">
    <path d="M 52.160938 376.123636 
L 52.160938 205.561818 
" style="fill:none;stroke:#000000;stroke-linecap:square;stroke-linejoin:miter;stroke-width:0.8;"/>
   </g>
   <g id="patch_9">
    <path d="M 561.185937 376.123636 
L 561.185937 205.561818 
" style="fill:none;stroke:#000000;stroke-linecap:square;stroke-linejoin:miter;stroke-width:0.8;"/>
   </g>
   <g id="patch_10">
    <path d="M 52.160938 376.123636 
L 561.185937 376.123636 
" style="fill:none;stroke:#000000;stroke-linecap:square;stroke-linejoin:miter;stroke-width:0.8;"/>
   </g>
   <g id="patch_11">
    <path d="M 52.160938 205.561818 
L 561.185937 205.561818 
" style="fill:none;stroke:#000000;stroke-linecap:square;stroke-linejoin:miter;stroke-width:0.8;"/>
   </g>
   <g id="text_27">
    <!-- DSBSC -->
    <g transform="translate(286.234062 421.292182)scale(0.12 -0.12)">
     <defs>
      <path d="M 19.671875 64.796875 
L 19.671875 8.109375 
L 31.59375 8.109375 
Q 46.6875 8.109375 53.6875 14.9375 
Q 60.6875 21.78125 60.6875 36.53125 
Q 60.6875 51.171875 53.6875 57.984375 
Q 46.6875 64.796875 31.59375 64.796875 
z
M 9.8125 72.90625 
L 30.078125 72.90625 
Q 51.265625 72.90625 61.171875 64.09375 
Q 71.09375 55.28125 71.09375 36.53125 
Q 71.09375 17.671875 61.125 8.828125 
Q 51.171875 0 30.078125 0 
L 9.8125 0 
z
" id="DejaVuSans-68"/>
      <path d="M 53.515625 70.515625 
L 53.515625 60.890625 
Q 47.90625 63.578125 42.921875 64.890625 
Q 37.9375 66.21875 33.296875 66.21875 
Q 25.25 66.21875 20.875 63.09375 
Q 16.5 59.96875 16.5 54.203125 
Q 16.5 49.359375 19.40625 46.890625 
Q 22.3125 44.4375 30.421875 42.921875 
L 36.375 41.703125 
Q 47.40625 39.59375 52.65625 34.296875 
Q 57.90625 29 57.90625 20.125 
Q 57.90625 9.515625 50.796875 4.046875 
Q 43.703125 -1.421875 29.984375 -1.421875 
Q 24.8125 -1.421875 18.96875 -0.25 
Q 13.140625 0.921875 6.890625 3.21875 
L 6.890625 13.375 
Q 12.890625 10.015625 18.65625 8.296875 
Q 24.421875 6.59375 29.984375 6.59375 
Q 38.421875 6.59375 43.015625 9.90625 
Q 47.609375 13.234375 47.609375 19.390625 
Q 47.609375 24.75 44.3125 27.78125 
Q 41.015625 30.8125 33.5 32.328125 
L 27.484375 33.5 
Q 16.453125 35.6875 11.515625 40.375 
Q 6.59375 45.0625 6.59375 53.421875 
Q 6.59375 63.09375 13.40625 68.65625 
Q 20.21875 74.21875 32.171875 74.21875 
Q 37.3125 74.21875 42.625 73.28125 
Q 47.953125 72.359375 53.515625 70.515625 
z
" id="DejaVuSans-83"/>
      <path d="M 19.671875 34.8125 
L 19.671875 8.109375 
L 35.5 8.109375 
Q 43.453125 8.109375 47.28125 11.40625 
Q 51.125 14.703125 51.125 21.484375 
Q 51.125 28.328125 47.28125 31.5625 
Q 43.453125 34.8125 35.5 34.8125 
z
M 19.671875 64.796875 
L 19.671875 42.828125 
L 34.28125 42.828125 
Q 41.5 42.828125 45.03125 45.53125 
Q 48.578125 48.25 48.578125 53.8125 
Q 48.578125 59.328125 45.03125 62.0625 
Q 41.5 64.796875 34.28125 64.796875 
z
M 9.8125 72.90625 
L 35.015625 72.90625 
Q 46.296875 72.90625 52.390625 68.21875 
Q 58.5 63.53125 58.5 54.890625 
Q 58.5 48.1875 55.375 44.234375 
Q 52.25 40.28125 46.1875 39.3125 
Q 53.46875 37.75 57.5 32.78125 
Q 61.53125 27.828125 61.53125 20.40625 
Q 61.53125 10.640625 54.890625 5.3125 
Q 48.25 0 35.984375 0 
L 9.8125 0 
z
" id="DejaVuSans-66"/>
      <path d="M 64.40625 67.28125 
L 64.40625 56.890625 
Q 59.421875 61.53125 53.78125 63.8125 
Q 48.140625 66.109375 41.796875 66.109375 
Q 29.296875 66.109375 22.65625 58.46875 
Q 16.015625 50.828125 16.015625 36.375 
Q 16.015625 21.96875 22.65625 14.328125 
Q 29.296875 6.6875 41.796875 6.6875 
Q 48.140625 6.6875 53.78125 8.984375 
Q 59.421875 11.28125 64.40625 15.921875 
L 64.40625 5.609375 
Q 59.234375 2.09375 53.4375 0.328125 
Q 47.65625 -1.421875 41.21875 -1.421875 
Q 24.65625 -1.421875 15.125 8.703125 
Q 5.609375 18.84375 5.609375 36.375 
Q 5.609375 53.953125 15.125 64.078125 
Q 24.65625 74.21875 41.21875 74.21875 
Q 47.75 74.21875 53.53125 72.484375 
Q 59.328125 70.75 64.40625 67.28125 
z
" id="DejaVuSans-67"/>
     </defs>
     <use xlink:href="#DejaVuSans-68"/>
     <use x="77.001953" xlink:href="#DejaVuSans-83"/>
     <use x="140.478516" xlink:href="#DejaVuSans-66"/>
     <use x="207.332031" xlink:href="#DejaVuSans-83"/>
     <use x="270.808594" xlink:href="#DejaVuSans-67"/>
    </g>
   </g>
  </g>
 </g>
 <defs>
  <clipPath id="p2bb1c8f2d3">
   <rect height="170.561818" width="509.025" x="52.160938" y="7.2"/>
  </clipPath>
  <clipPath id="p205ae18e81">
   <rect height="170.561818" width="509.025" x="52.160938" y="205.561818"/>
  </clipPath>
 </defs>
</svg>
