<?xml version="1.0" encoding="utf-8" standalone="no"?>
<!DOCTYPE svg PUBLIC "-//W3C//DTD SVG 1.1//EN"
  "http://www.w3.org/Graphics/SVG/1.1/DTD/svg11.dtd">
<!-- Created with matplotlib (https://matplotlib.org/) -->
<svg height="466.226pt" version="1.1" viewBox="0 0 360.8073 466.226" width="360.8073pt" xmlns="http://www.w3.org/2000/svg" xmlns:xlink="http://www.w3.org/1999/xlink">
 <metadata>
  <rdf:RDF xmlns:cc="http://creativecommons.org/ns#" xmlns:dc="http://purl.org/dc/elements/1.1/" xmlns:rdf="http://www.w3.org/1999/02/22-rdf-syntax-ns#">
   <cc:Work>
    <dc:type rdf:resource="http://purl.org/dc/dcmitype/StillImage"/>
    <dc:date>2021-04-04T08:00:26.470498</dc:date>
    <dc:format>image/svg+xml</dc:format>
    <dc:creator>
     <cc:Agent>
      <dc:title>Matplotlib v3.3.4, https://matplotlib.org/</dc:title>
     </cc:Agent>
    </dc:creator>
   </cc:Work>
  </rdf:RDF>
 </metadata>
 <defs>
  <style type="text/css">*{stroke-linecap:butt;stroke-linejoin:round;}</style>
 </defs>
 <g id="figure_1">
  <g id="patch_1">
   <path d="M 0 466.226 
L 360.8073 466.226 
L 360.8073 0 
L 0 0 
z
" style="fill:none;"/>
  </g>
  <g id="axes_1">
   <g id="patch_2">
    <path clip-path="url(#p0ff125d027)" d="M 74.1834 232.348 
C 78.646768 232.348 82.927929 230.574685 86.084007 227.418607 
C 89.240085 224.262529 91.0134 219.981368 91.0134 215.518 
C 91.0134 211.054632 89.240085 206.773471 86.084007 203.617393 
C 82.927929 200.461315 78.646768 198.688 74.1834 198.688 
C 69.720032 198.688 65.438871 200.461315 62.282793 203.617393 
C 59.126715 206.773471 57.3534 211.054632 57.3534 215.518 
C 57.3534 219.981368 59.126715 224.262529 62.282793 227.418607 
C 65.438871 230.574685 69.720032 232.348 74.1834 232.348 
z
" style="fill:none;stroke:#000000;stroke-linejoin:miter;stroke-width:0.9;"/>
   </g>
   <g id="patch_3">
    <path clip-path="url(#p0ff125d027)" d="M 80.3544 231.226 
L 73.716328 229.566482 
L 75.697792 227.254773 
L 68.563443 221.139617 
L 68.583357 221.116383 
L 75.717707 227.23154 
L 77.699171 224.919832 
z
" style="stroke:#000000;stroke-linejoin:miter;stroke-width:0.9;"/>
   </g>
   <g id="patch_4">
    <path clip-path="url(#p0ff125d027)" d="M 239.5254 232.348 
C 243.988768 232.348 248.269929 230.574685 251.426007 227.418607 
C 254.582085 224.262529 256.3554 219.981368 256.3554 215.518 
C 256.3554 211.054632 254.582085 206.773471 251.426007 203.617393 
C 248.269929 200.461315 243.988768 198.688 239.5254 198.688 
C 235.062032 198.688 230.780871 200.461315 227.624793 203.617393 
C 224.468715 206.773471 222.6954 211.054632 222.6954 215.518 
C 222.6954 219.981368 224.468715 224.262529 227.624793 227.418607 
C 230.780871 230.574685 235.062032 232.348 239.5254 232.348 
z
" style="fill:none;stroke:#000000;stroke-linejoin:miter;stroke-width:0.9;"/>
   </g>
   <g id="patch_5">
    <path clip-path="url(#p0ff125d027)" d="M 233.3544 231.226 
L 236.009629 224.919832 
L 237.991093 227.23154 
L 245.125443 221.116383 
L 245.145357 221.139617 
L 238.011008 227.254773 
L 239.992472 229.566482 
z
" style="stroke:#000000;stroke-linejoin:miter;stroke-width:0.9;"/>
   </g>
   <g id="patch_6">
    <path clip-path="url(#p0ff125d027)" d="M 74.1834 427.984 
C 78.646768 427.984 82.927929 426.210685 86.084007 423.054607 
C 89.240085 419.898529 91.0134 415.617368 91.0134 411.154 
C 91.0134 406.690632 89.240085 402.409471 86.084007 399.253393 
C 82.927929 396.097315 78.646768 394.324 74.1834 394.324 
C 69.720032 394.324 65.438871 396.097315 62.282793 399.253393 
C 59.126715 402.409471 57.3534 406.690632 57.3534 411.154 
C 57.3534 415.617368 59.126715 419.898529 62.282793 423.054607 
C 65.438871 426.210685 69.720032 427.984 74.1834 427.984 
z
" style="fill:none;stroke:#000000;stroke-linejoin:miter;stroke-width:0.9;"/>
   </g>
   <g id="patch_7">
    <path clip-path="url(#p0ff125d027)" d="M 80.3544 395.446 
L 77.699171 401.752168 
L 75.717707 399.44046 
L 68.583357 405.555617 
L 68.563443 405.532383 
L 75.697792 399.417227 
L 73.716328 397.105518 
z
" style="stroke:#000000;stroke-linejoin:miter;stroke-width:0.9;"/>
   </g>
   <g id="line2d_1">
    <path clip-path="url(#p0ff125d027)" d="M 57.3534 215.518 
L 68.5734 215.518 
" style="fill:none;stroke:#000000;stroke-linecap:round;stroke-width:0.9;"/>
   </g>
   <g id="line2d_2">
    <path clip-path="url(#p0ff125d027)" d="M 68.5734 204.298 
L 68.5734 226.738 
" style="fill:none;stroke:#000000;stroke-linecap:round;stroke-width:0.9;"/>
   </g>
   <g id="line2d_3">
    <path clip-path="url(#p0ff125d027)" d="M 68.5734 209.908 
L 80.3544 199.81 
L 80.3544 194.2 
" style="fill:none;stroke:#000000;stroke-linecap:round;stroke-width:0.9;"/>
   </g>
   <g id="line2d_4">
    <path clip-path="url(#p0ff125d027)" d="M 68.5734 221.128 
L 80.3544 231.226 
L 80.3544 236.836 
" style="fill:none;stroke:#000000;stroke-linecap:round;stroke-width:0.9;"/>
   </g>
   <g id="line2d_5">
    <path clip-path="url(#p0ff125d027)" d="M 80.3544 194.2 
L 80.3544 155.95 
L 80.3544 117.7 
" style="fill:none;stroke:#000000;stroke-linecap:round;stroke-width:0.9;"/>
   </g>
   <g id="line2d_6">
    <path clip-path="url(#p0ff125d027)" d="M 80.3544 117.7 
L 80.3544 94.75 
L 72.7044 92.2 
L 88.0044 87.1 
L 72.7044 82 
L 88.0044 76.9 
L 72.7044 71.8 
L 88.0044 66.7 
L 80.3544 64.15 
L 80.3544 41.2 
" style="fill:none;stroke:#000000;stroke-linecap:round;stroke-width:0.9;"/>
   </g>
   <g id="line2d_7">
    <path clip-path="url(#p0ff125d027)" d="M 80.3544 41.2 
L 80.3544 28.96 
" style="fill:none;stroke:#000000;stroke-linecap:round;stroke-width:0.9;"/>
   </g>
   <g id="line2d_8">
    <path clip-path="url(#p0ff125d027)" d="M 80.3544 28.96 
L 74.6169 28.96 
" style="fill:none;stroke:#000000;stroke-linecap:round;stroke-width:0.9;"/>
   </g>
   <g id="line2d_9">
    <path clip-path="url(#p0ff125d027)" d="M 80.3544 28.96 
L 86.0919 28.96 
" style="fill:none;stroke:#000000;stroke-linecap:round;stroke-width:0.9;"/>
   </g>
   <g id="line2d_10">
    <path clip-path="url(#p0ff125d027)" d="M 57.3534 215.518 
L 38.2284 215.518 
L 19.1034 215.518 
" style="fill:none;stroke:#000000;stroke-linecap:round;stroke-width:0.9;"/>
   </g>
   <g id="line2d_11">
    <path clip-path="url(#p0ff125d027)" d="M 80.3544 236.836 
L 80.3544 255.961 
L 80.3544 275.086 
" style="fill:none;stroke:#000000;stroke-linecap:round;stroke-width:0.9;"/>
   </g>
   <g id="line2d_12">
    <path clip-path="url(#p0ff125d027)" d="M 80.3544 275.086 
L 156.8544 275.086 
L 233.3544 275.086 
" style="fill:none;stroke:#000000;stroke-linecap:round;stroke-width:0.9;"/>
   </g>
   <g id="line2d_13">
    <path clip-path="url(#p0ff125d027)" d="M 233.3544 275.086 
L 233.3544 255.961 
L 233.3544 236.836 
" style="fill:none;stroke:#000000;stroke-linecap:round;stroke-width:0.9;"/>
   </g>
   <g id="line2d_14">
    <path clip-path="url(#p0ff125d027)" d="M 245.1354 215.518 
L 256.3554 215.518 
" style="fill:none;stroke:#000000;stroke-linecap:round;stroke-width:0.9;"/>
   </g>
   <g id="line2d_15">
    <path clip-path="url(#p0ff125d027)" d="M 245.1354 226.738 
L 245.1354 204.298 
" style="fill:none;stroke:#000000;stroke-linecap:round;stroke-width:0.9;"/>
   </g>
   <g id="line2d_16">
    <path clip-path="url(#p0ff125d027)" d="M 233.3544 194.2 
L 233.3544 199.81 
L 245.1354 209.908 
" style="fill:none;stroke:#000000;stroke-linecap:round;stroke-width:0.9;"/>
   </g>
   <g id="line2d_17">
    <path clip-path="url(#p0ff125d027)" d="M 233.3544 236.836 
L 233.3544 231.226 
L 245.1354 221.128 
" style="fill:none;stroke:#000000;stroke-linecap:round;stroke-width:0.9;"/>
   </g>
   <g id="line2d_18">
    <path clip-path="url(#p0ff125d027)" d="M 233.3544 194.2 
L 233.3544 155.95 
L 233.3544 117.7 
" style="fill:none;stroke:#000000;stroke-linecap:round;stroke-width:0.9;"/>
   </g>
   <g id="line2d_19">
    <path clip-path="url(#p0ff125d027)" d="M 233.3544 117.7 
L 233.3544 94.75 
L 225.7044 92.2 
L 241.0044 87.1 
L 225.7044 82 
L 241.0044 76.9 
L 225.7044 71.8 
L 241.0044 66.7 
L 233.3544 64.15 
L 233.3544 41.2 
" style="fill:none;stroke:#000000;stroke-linecap:round;stroke-width:0.9;"/>
   </g>
   <g id="line2d_20">
    <path clip-path="url(#p0ff125d027)" d="M 233.3544 41.2 
L 233.3544 28.96 
" style="fill:none;stroke:#000000;stroke-linecap:round;stroke-width:0.9;"/>
   </g>
   <g id="line2d_21">
    <path clip-path="url(#p0ff125d027)" d="M 233.3544 28.96 
L 227.6169 28.96 
" style="fill:none;stroke:#000000;stroke-linecap:round;stroke-width:0.9;"/>
   </g>
   <g id="line2d_22">
    <path clip-path="url(#p0ff125d027)" d="M 233.3544 28.96 
L 239.0919 28.96 
" style="fill:none;stroke:#000000;stroke-linecap:round;stroke-width:0.9;"/>
   </g>
   <g id="line2d_23">
    <path clip-path="url(#p0ff125d027)" d="M 256.3554 215.518 
L 265.9179 215.518 
L 275.4804 215.518 
" style="fill:none;stroke:#000000;stroke-linecap:round;stroke-width:0.9;"/>
   </g>
   <g id="line2d_24">
    <path clip-path="url(#p0ff125d027)" d="M 275.4804 215.518 
L 275.4804 225.0805 
L 275.4804 234.643 
" style="fill:none;stroke:#000000;stroke-linecap:round;stroke-width:0.9;"/>
   </g>
   <g id="line2d_25">
    <path clip-path="url(#p0ff125d027)" d="M 275.4804 234.643 
L 275.4804 246.883 
L 267.8304 246.883 
L 283.1304 246.883 
M 270.1254 250.555 
L 280.8354 250.555 
M 273.9504 254.227 
L 277.0104 254.227 
" style="fill:none;stroke:#000000;stroke-linecap:round;stroke-width:0.9;"/>
   </g>
   <g id="line2d_26">
    <path clip-path="url(#p0ff125d027)" d="M 156.8544 275.086 
L 156.8544 298.036 
L 164.5044 300.586 
L 149.2044 305.686 
L 164.5044 310.786 
L 149.2044 315.886 
L 164.5044 320.986 
L 149.2044 326.086 
L 156.8544 328.636 
L 156.8544 351.586 
" style="fill:none;stroke:#000000;stroke-linecap:round;stroke-width:0.9;"/>
   </g>
   <g id="line2d_27">
    <path clip-path="url(#p0ff125d027)" d="M 156.8544 351.586 
L 156.8544 374.536 
L 164.5044 377.086 
L 149.2044 382.186 
L 164.5044 387.286 
L 149.2044 392.386 
L 164.5044 397.486 
L 149.2044 402.586 
L 156.8544 405.136 
L 156.8544 428.086 
" style="fill:none;stroke:#000000;stroke-linecap:round;stroke-width:0.9;"/>
   </g>
   <g id="line2d_28">
    <path clip-path="url(#p0ff125d027)" d="M 156.8544 428.086 
L 156.8544 440.326 
" style="fill:none;stroke:#000000;stroke-linecap:round;stroke-width:0.9;"/>
   </g>
   <g id="line2d_29">
    <path clip-path="url(#p0ff125d027)" d="M 156.8544 440.326 
L 151.1169 440.326 
" style="fill:none;stroke:#000000;stroke-linecap:round;stroke-width:0.9;"/>
   </g>
   <g id="line2d_30">
    <path clip-path="url(#p0ff125d027)" d="M 156.8544 440.326 
L 162.5919 440.326 
" style="fill:none;stroke:#000000;stroke-linecap:round;stroke-width:0.9;"/>
   </g>
   <g id="line2d_31">
    <path clip-path="url(#p0ff125d027)" d="M 156.8544 351.586 
L 118.6044 351.586 
L 80.3544 351.586 
" style="fill:none;stroke:#000000;stroke-linecap:round;stroke-width:0.9;"/>
   </g>
   <g id="line2d_32">
    <path clip-path="url(#p0ff125d027)" d="M 80.3544 351.586 
L 80.3544 370.711 
L 80.3544 389.836 
" style="fill:none;stroke:#000000;stroke-linecap:round;stroke-width:0.9;"/>
   </g>
   <g id="line2d_33">
    <path clip-path="url(#p0ff125d027)" d="M 57.3534 411.154 
L 68.5734 411.154 
" style="fill:none;stroke:#000000;stroke-linecap:round;stroke-width:0.9;"/>
   </g>
   <g id="line2d_34">
    <path clip-path="url(#p0ff125d027)" d="M 68.5734 422.374 
L 68.5734 399.934 
" style="fill:none;stroke:#000000;stroke-linecap:round;stroke-width:0.9;"/>
   </g>
   <g id="line2d_35">
    <path clip-path="url(#p0ff125d027)" d="M 68.5734 416.764 
L 80.3544 426.862 
L 80.3544 432.472 
" style="fill:none;stroke:#000000;stroke-linecap:round;stroke-width:0.9;"/>
   </g>
   <g id="line2d_36">
    <path clip-path="url(#p0ff125d027)" d="M 68.5734 405.544 
L 80.3544 395.446 
L 80.3544 389.836 
" style="fill:none;stroke:#000000;stroke-linecap:round;stroke-width:0.9;"/>
   </g>
   <g id="line2d_37">
    <path clip-path="url(#p0ff125d027)" d="M 80.3544 432.472 
L 80.3544 444.712 
L 72.7044 444.712 
L 88.0044 444.712 
M 74.9994 448.384 
L 85.7094 448.384 
M 78.8244 452.056 
L 81.8844 452.056 
" style="fill:none;stroke:#000000;stroke-linecap:round;stroke-width:0.9;"/>
   </g>
   <g id="line2d_38">
    <path clip-path="url(#p0ff125d027)" d="M 57.3534 411.154 
L 38.2284 411.154 
L 19.1034 411.154 
" style="fill:none;stroke:#000000;stroke-linecap:round;stroke-width:0.9;"/>
   </g>
   <g id="line2d_39">
    <path clip-path="url(#p0ff125d027)" d="M 80.3544 168.7 
L 195.1044 168.7 
L 309.8544 168.7 
" style="fill:none;stroke:#000000;stroke-linecap:round;stroke-width:0.9;"/>
   </g>
   <g id="line2d_40">
    <path clip-path="url(#p0ff125d027)" d="M 233.3544 143.2 
L 271.6044 143.2 
L 309.8544 143.2 
" style="fill:none;stroke:#000000;stroke-linecap:round;stroke-width:0.9;"/>
   </g>
   <g id="text_1">
    <!-- $Q_1$ -->
    <g transform="translate(94.0734 219.636125)scale(0.14 -0.14)">
     <defs>
      <path d="M 36.078125 -1.3125 
Q 35.546875 -1.375 34.953125 -1.390625 
Q 34.375 -1.421875 33.203125 -1.421875 
Q 19.53125 -1.421875 11.8125 6.421875 
Q 4.109375 14.265625 4.109375 28.078125 
Q 4.109375 36.234375 7.0625 44.4375 
Q 10.015625 52.640625 15.28125 59.1875 
Q 21.390625 66.703125 29.03125 70.453125 
Q 36.671875 74.21875 45.90625 74.21875 
Q 59.28125 74.21875 66.984375 66.328125 
Q 74.703125 58.453125 74.703125 44.828125 
Q 74.703125 30.125 66.640625 17.921875 
Q 58.59375 5.71875 45.609375 0.6875 
L 55.515625 -12.890625 
L 44.484375 -12.890625 
z
M 45.609375 66.21875 
Q 37.5 66.21875 31.296875 62.28125 
Q 25.09375 58.34375 20.515625 50.296875 
Q 17.578125 45.171875 16.03125 39.40625 
Q 14.5 33.640625 14.5 27.78125 
Q 14.5 17.625 19.359375 12.109375 
Q 24.21875 6.59375 33.109375 6.59375 
Q 41.109375 6.59375 47.375 10.5625 
Q 53.65625 14.546875 58.109375 22.40625 
Q 61.078125 27.6875 62.640625 33.46875 
Q 64.203125 39.265625 64.203125 45.015625 
Q 64.203125 55.125 59.3125 60.671875 
Q 54.4375 66.21875 45.609375 66.21875 
z
" id="DejaVuSans-Oblique-81"/>
      <path d="M 12.40625 8.296875 
L 28.515625 8.296875 
L 28.515625 63.921875 
L 10.984375 60.40625 
L 10.984375 69.390625 
L 28.421875 72.90625 
L 38.28125 72.90625 
L 38.28125 8.296875 
L 54.390625 8.296875 
L 54.390625 0 
L 12.40625 0 
z
" id="DejaVuSans-49"/>
     </defs>
     <use transform="translate(0 0.78125)" xlink:href="#DejaVuSans-Oblique-81"/>
     <use transform="translate(78.710938 -15.625)scale(0.7)" xlink:href="#DejaVuSans-49"/>
    </g>
   </g>
   <g id="text_2">
    <!-- $R_1$ -->
    <g transform="translate(53.2644 83.313125)scale(0.14 -0.14)">
     <defs>
      <path d="M 25.203125 64.796875 
L 20.21875 38.921875 
L 32.90625 38.921875 
Q 40.375 38.921875 44.984375 43.046875 
Q 49.609375 47.171875 49.609375 53.8125 
Q 49.609375 59.125 46.5 61.953125 
Q 43.40625 64.796875 37.59375 64.796875 
z
M 43.3125 35.015625 
Q 46.4375 34.28125 48.515625 31.390625 
Q 50.59375 28.515625 53.328125 19.921875 
L 59.515625 0 
L 49.125 0 
L 43.40625 18.703125 
Q 41.21875 25.921875 38.328125 28.359375 
Q 35.453125 30.8125 29.5 30.8125 
L 18.609375 30.8125 
L 12.59375 0 
L 2.6875 0 
L 16.890625 72.90625 
L 39.109375 72.90625 
Q 49.21875 72.90625 54.609375 68.328125 
Q 60.015625 63.765625 60.015625 55.171875 
Q 60.015625 47.5625 55.421875 41.984375 
Q 50.828125 36.421875 43.3125 35.015625 
z
" id="DejaVuSans-Oblique-82"/>
     </defs>
     <use transform="translate(0 0.09375)" xlink:href="#DejaVuSans-Oblique-82"/>
     <use transform="translate(69.482422 -16.3125)scale(0.7)" xlink:href="#DejaVuSans-49"/>
    </g>
   </g>
   <g id="text_3">
    <!-- +15V -->
    <g transform="translate(60.792681 22.988437)scale(0.14 -0.14)">
     <defs>
      <path d="M 46 62.703125 
L 46 35.5 
L 73.1875 35.5 
L 73.1875 27.203125 
L 46 27.203125 
L 46 0 
L 37.796875 0 
L 37.796875 27.203125 
L 10.59375 27.203125 
L 10.59375 35.5 
L 37.796875 35.5 
L 37.796875 62.703125 
z
" id="DejaVuSans-43"/>
      <path d="M 10.796875 72.90625 
L 49.515625 72.90625 
L 49.515625 64.59375 
L 19.828125 64.59375 
L 19.828125 46.734375 
Q 21.96875 47.46875 24.109375 47.828125 
Q 26.265625 48.1875 28.421875 48.1875 
Q 40.625 48.1875 47.75 41.5 
Q 54.890625 34.8125 54.890625 23.390625 
Q 54.890625 11.625 47.5625 5.09375 
Q 40.234375 -1.421875 26.90625 -1.421875 
Q 22.3125 -1.421875 17.546875 -0.640625 
Q 12.796875 0.140625 7.71875 1.703125 
L 7.71875 11.625 
Q 12.109375 9.234375 16.796875 8.0625 
Q 21.484375 6.890625 26.703125 6.890625 
Q 35.15625 6.890625 40.078125 11.328125 
Q 45.015625 15.765625 45.015625 23.390625 
Q 45.015625 31 40.078125 35.4375 
Q 35.15625 39.890625 26.703125 39.890625 
Q 22.75 39.890625 18.8125 39.015625 
Q 14.890625 38.140625 10.796875 36.28125 
z
" id="DejaVuSans-53"/>
      <path d="M 28.609375 0 
L 0.78125 72.90625 
L 11.078125 72.90625 
L 34.1875 11.53125 
L 57.328125 72.90625 
L 67.578125 72.90625 
L 39.796875 0 
z
" id="DejaVuSans-86"/>
     </defs>
     <use xlink:href="#DejaVuSans-43"/>
     <use x="83.789062" xlink:href="#DejaVuSans-49"/>
     <use x="147.412109" xlink:href="#DejaVuSans-53"/>
     <use x="211.035156" xlink:href="#DejaVuSans-86"/>
    </g>
   </g>
   <g id="text_4">
    <!-- $Q_2$ -->
    <g transform="translate(201.9954 219.636125)scale(0.14 -0.14)">
     <defs>
      <path d="M 19.1875 8.296875 
L 53.609375 8.296875 
L 53.609375 0 
L 7.328125 0 
L 7.328125 8.296875 
Q 12.9375 14.109375 22.625 23.890625 
Q 32.328125 33.6875 34.8125 36.53125 
Q 39.546875 41.84375 41.421875 45.53125 
Q 43.3125 49.21875 43.3125 52.78125 
Q 43.3125 58.59375 39.234375 62.25 
Q 35.15625 65.921875 28.609375 65.921875 
Q 23.96875 65.921875 18.8125 64.3125 
Q 13.671875 62.703125 7.8125 59.421875 
L 7.8125 69.390625 
Q 13.765625 71.78125 18.9375 73 
Q 24.125 74.21875 28.421875 74.21875 
Q 39.75 74.21875 46.484375 68.546875 
Q 53.21875 62.890625 53.21875 53.421875 
Q 53.21875 48.921875 51.53125 44.890625 
Q 49.859375 40.875 45.40625 35.40625 
Q 44.1875 33.984375 37.640625 27.21875 
Q 31.109375 20.453125 19.1875 8.296875 
z
" id="DejaVuSans-50"/>
     </defs>
     <use transform="translate(0 0.78125)" xlink:href="#DejaVuSans-Oblique-81"/>
     <use transform="translate(78.710938 -15.625)scale(0.7)" xlink:href="#DejaVuSans-50"/>
    </g>
   </g>
   <g id="text_5">
    <!-- $R_2$ -->
    <g transform="translate(206.2644 83.313125)scale(0.14 -0.14)">
     <use transform="translate(0 0.09375)" xlink:href="#DejaVuSans-Oblique-82"/>
     <use transform="translate(69.482422 -16.3125)scale(0.7)" xlink:href="#DejaVuSans-50"/>
    </g>
   </g>
   <g id="text_6">
    <!-- +15V -->
    <g transform="translate(213.792681 22.988437)scale(0.14 -0.14)">
     <use xlink:href="#DejaVuSans-43"/>
     <use x="83.789062" xlink:href="#DejaVuSans-49"/>
     <use x="147.412109" xlink:href="#DejaVuSans-53"/>
     <use x="211.035156" xlink:href="#DejaVuSans-86"/>
    </g>
   </g>
   <g id="text_7">
    <!-- $R_3$ -->
    <g transform="translate(129.7644 317.199125)scale(0.14 -0.14)">
     <defs>
      <path d="M 40.578125 39.3125 
Q 47.65625 37.796875 51.625 33 
Q 55.609375 28.21875 55.609375 21.1875 
Q 55.609375 10.40625 48.1875 4.484375 
Q 40.765625 -1.421875 27.09375 -1.421875 
Q 22.515625 -1.421875 17.65625 -0.515625 
Q 12.796875 0.390625 7.625 2.203125 
L 7.625 11.71875 
Q 11.71875 9.328125 16.59375 8.109375 
Q 21.484375 6.890625 26.8125 6.890625 
Q 36.078125 6.890625 40.9375 10.546875 
Q 45.796875 14.203125 45.796875 21.1875 
Q 45.796875 27.640625 41.28125 31.265625 
Q 36.765625 34.90625 28.71875 34.90625 
L 20.21875 34.90625 
L 20.21875 43.015625 
L 29.109375 43.015625 
Q 36.375 43.015625 40.234375 45.921875 
Q 44.09375 48.828125 44.09375 54.296875 
Q 44.09375 59.90625 40.109375 62.90625 
Q 36.140625 65.921875 28.71875 65.921875 
Q 24.65625 65.921875 20.015625 65.03125 
Q 15.375 64.15625 9.8125 62.3125 
L 9.8125 71.09375 
Q 15.4375 72.65625 20.34375 73.4375 
Q 25.25 74.21875 29.59375 74.21875 
Q 40.828125 74.21875 47.359375 69.109375 
Q 53.90625 64.015625 53.90625 55.328125 
Q 53.90625 49.265625 50.4375 45.09375 
Q 46.96875 40.921875 40.578125 39.3125 
z
" id="DejaVuSans-51"/>
     </defs>
     <use transform="translate(0 0.09375)" xlink:href="#DejaVuSans-Oblique-82"/>
     <use transform="translate(69.482422 -16.3125)scale(0.7)" xlink:href="#DejaVuSans-51"/>
    </g>
   </g>
   <g id="text_8">
    <!-- $R_4$ -->
    <g transform="translate(129.7644 393.699125)scale(0.14 -0.14)">
     <defs>
      <path d="M 37.796875 64.3125 
L 12.890625 25.390625 
L 37.796875 25.390625 
z
M 35.203125 72.90625 
L 47.609375 72.90625 
L 47.609375 25.390625 
L 58.015625 25.390625 
L 58.015625 17.1875 
L 47.609375 17.1875 
L 47.609375 0 
L 37.796875 0 
L 37.796875 17.1875 
L 4.890625 17.1875 
L 4.890625 26.703125 
z
" id="DejaVuSans-52"/>
     </defs>
     <use transform="translate(0 0.09375)" xlink:href="#DejaVuSans-Oblique-82"/>
     <use transform="translate(69.482422 -16.3125)scale(0.7)" xlink:href="#DejaVuSans-52"/>
    </g>
   </g>
   <g id="text_9">
    <!-- -15V -->
    <g transform="translate(140.632994 454.023812)scale(0.14 -0.14)">
     <defs>
      <path d="M 4.890625 31.390625 
L 31.203125 31.390625 
L 31.203125 23.390625 
L 4.890625 23.390625 
z
" id="DejaVuSans-45"/>
     </defs>
     <use xlink:href="#DejaVuSans-45"/>
     <use x="36.083984" xlink:href="#DejaVuSans-49"/>
     <use x="99.707031" xlink:href="#DejaVuSans-53"/>
     <use x="163.330078" xlink:href="#DejaVuSans-86"/>
    </g>
   </g>
   <g id="text_10">
    <!-- $Q_3$ -->
    <g transform="translate(94.0734 414.762125)scale(0.14 -0.14)">
     <use transform="translate(0 0.78125)" xlink:href="#DejaVuSans-Oblique-81"/>
     <use transform="translate(78.710938 -15.625)scale(0.7)" xlink:href="#DejaVuSans-51"/>
    </g>
   </g>
   <g id="text_11">
    <!-- X -->
    <g transform="translate(14.3084 268.290125)scale(0.14 -0.14)">
     <defs>
      <path d="M 6.296875 72.90625 
L 16.890625 72.90625 
L 35.015625 45.796875 
L 53.21875 72.90625 
L 63.8125 72.90625 
L 40.375 37.890625 
L 65.375 0 
L 54.78125 0 
L 34.28125 31 
L 13.625 0 
L 2.984375 0 
L 29 38.921875 
z
" id="DejaVuSans-88"/>
     </defs>
     <use xlink:href="#DejaVuSans-88"/>
    </g>
   </g>
   <g id="text_12">
    <!-- IN -->
    <g transform="translate(11.801525 317.199125)scale(0.14 -0.14)">
     <defs>
      <path d="M 9.8125 72.90625 
L 19.671875 72.90625 
L 19.671875 0 
L 9.8125 0 
z
" id="DejaVuSans-73"/>
      <path d="M 9.8125 72.90625 
L 23.09375 72.90625 
L 55.421875 11.921875 
L 55.421875 72.90625 
L 64.984375 72.90625 
L 64.984375 0 
L 51.703125 0 
L 19.390625 60.984375 
L 19.390625 0 
L 9.8125 0 
z
" id="DejaVuSans-78"/>
     </defs>
     <use xlink:href="#DejaVuSans-73"/>
     <use x="29.492188" xlink:href="#DejaVuSans-78"/>
    </g>
   </g>
   <g id="text_13">
    <!-- Y -->
    <g transform="translate(14.827931 366.108125)scale(0.14 -0.14)">
     <defs>
      <path d="M -0.203125 72.90625 
L 10.40625 72.90625 
L 30.609375 42.921875 
L 50.6875 72.90625 
L 61.28125 72.90625 
L 35.5 34.71875 
L 35.5 0 
L 25.59375 0 
L 25.59375 34.71875 
z
" id="DejaVuSans-89"/>
     </defs>
     <use xlink:href="#DejaVuSans-89"/>
    </g>
   </g>
   <g id="text_14">
    <!-- OUT -->
    <g transform="translate(317.130494 159.940625)scale(0.14 -0.14)">
     <defs>
      <path d="M 39.40625 66.21875 
Q 28.65625 66.21875 22.328125 58.203125 
Q 16.015625 50.203125 16.015625 36.375 
Q 16.015625 22.609375 22.328125 14.59375 
Q 28.65625 6.59375 39.40625 6.59375 
Q 50.140625 6.59375 56.421875 14.59375 
Q 62.703125 22.609375 62.703125 36.375 
Q 62.703125 50.203125 56.421875 58.203125 
Q 50.140625 66.21875 39.40625 66.21875 
z
M 39.40625 74.21875 
Q 54.734375 74.21875 63.90625 63.9375 
Q 73.09375 53.65625 73.09375 36.375 
Q 73.09375 19.140625 63.90625 8.859375 
Q 54.734375 -1.421875 39.40625 -1.421875 
Q 24.03125 -1.421875 14.8125 8.828125 
Q 5.609375 19.09375 5.609375 36.375 
Q 5.609375 53.65625 14.8125 63.9375 
Q 24.03125 74.21875 39.40625 74.21875 
z
" id="DejaVuSans-79"/>
      <path d="M 8.6875 72.90625 
L 18.609375 72.90625 
L 18.609375 28.609375 
Q 18.609375 16.890625 22.84375 11.734375 
Q 27.09375 6.59375 36.625 6.59375 
Q 46.09375 6.59375 50.34375 11.734375 
Q 54.59375 16.890625 54.59375 28.609375 
L 54.59375 72.90625 
L 64.5 72.90625 
L 64.5 27.390625 
Q 64.5 13.140625 57.4375 5.859375 
Q 50.390625 -1.421875 36.625 -1.421875 
Q 22.796875 -1.421875 15.734375 5.859375 
Q 8.6875 13.140625 8.6875 27.390625 
z
" id="DejaVuSans-85"/>
      <path d="M -0.296875 72.90625 
L 61.375 72.90625 
L 61.375 64.59375 
L 35.5 64.59375 
L 35.5 0 
L 25.59375 0 
L 25.59375 64.59375 
L -0.296875 64.59375 
z
" id="DejaVuSans-84"/>
     </defs>
     <use xlink:href="#DejaVuSans-79"/>
     <use x="78.710938" xlink:href="#DejaVuSans-85"/>
     <use x="151.904297" xlink:href="#DejaVuSans-84"/>
    </g>
   </g>
   <g id="patch_8">
    <path clip-path="url(#p0ff125d027)" d="M 19.1034 217.813 
C 19.712041 217.813 20.295836 217.571184 20.72621 217.14081 
C 21.156584 216.710436 21.3984 216.126641 21.3984 215.518 
C 21.3984 214.909359 21.156584 214.325564 20.72621 213.89519 
C 20.295836 213.464816 19.712041 213.223 19.1034 213.223 
C 18.494759 213.223 17.910964 213.464816 17.48059 213.89519 
C 17.050216 214.325564 16.8084 214.909359 16.8084 215.518 
C 16.8084 216.126641 17.050216 216.710436 17.48059 217.14081 
C 17.910964 217.571184 18.494759 217.813 19.1034 217.813 
z
" style="fill:#ffffff;stroke:#000000;stroke-linejoin:miter;stroke-width:0.9;"/>
   </g>
   <g id="patch_9">
    <path clip-path="url(#p0ff125d027)" d="M 156.8544 277.381 
C 157.463041 277.381 158.046836 277.139184 158.47721 276.70881 
C 158.907584 276.278436 159.1494 275.694641 159.1494 275.086 
C 159.1494 274.477359 158.907584 273.893564 158.47721 273.46319 
C 158.046836 273.032816 157.463041 272.791 156.8544 272.791 
C 156.245759 272.791 155.661964 273.032816 155.23159 273.46319 
C 154.801216 273.893564 154.5594 274.477359 154.5594 275.086 
C 154.5594 275.694641 154.801216 276.278436 155.23159 276.70881 
C 155.661964 277.139184 156.245759 277.381 156.8544 277.381 
z
" style="stroke:#000000;stroke-linejoin:miter;stroke-width:0.9;"/>
   </g>
   <g id="patch_10">
    <path clip-path="url(#p0ff125d027)" d="M 156.8544 353.881 
C 157.463041 353.881 158.046836 353.639184 158.47721 353.20881 
C 158.907584 352.778436 159.1494 352.194641 159.1494 351.586 
C 159.1494 350.977359 158.907584 350.393564 158.47721 349.96319 
C 158.046836 349.532816 157.463041 349.291 156.8544 349.291 
C 156.245759 349.291 155.661964 349.532816 155.23159 349.96319 
C 154.801216 350.393564 154.5594 350.977359 154.5594 351.586 
C 154.5594 352.194641 154.801216 352.778436 155.23159 353.20881 
C 155.661964 353.639184 156.245759 353.881 156.8544 353.881 
z
" style="stroke:#000000;stroke-linejoin:miter;stroke-width:0.9;"/>
   </g>
   <g id="patch_11">
    <path clip-path="url(#p0ff125d027)" d="M 19.1034 413.449 
C 19.712041 413.449 20.295836 413.207184 20.72621 412.77681 
C 21.156584 412.346436 21.3984 411.762641 21.3984 411.154 
C 21.3984 410.545359 21.156584 409.961564 20.72621 409.53119 
C 20.295836 409.100816 19.712041 408.859 19.1034 408.859 
C 18.494759 408.859 17.910964 409.100816 17.48059 409.53119 
C 17.050216 409.961564 16.8084 410.545359 16.8084 411.154 
C 16.8084 411.762641 17.050216 412.346436 17.48059 412.77681 
C 17.910964 413.207184 18.494759 413.449 19.1034 413.449 
z
" style="fill:#ffffff;stroke:#000000;stroke-linejoin:miter;stroke-width:0.9;"/>
   </g>
   <g id="patch_12">
    <path clip-path="url(#p0ff125d027)" d="M 80.3544 170.995 
C 80.963041 170.995 81.546836 170.753184 81.97721 170.32281 
C 82.407584 169.892436 82.6494 169.308641 82.6494 168.7 
C 82.6494 168.091359 82.407584 167.507564 81.97721 167.07719 
C 81.546836 166.646816 80.963041 166.405 80.3544 166.405 
C 79.745759 166.405 79.161964 166.646816 78.73159 167.07719 
C 78.301216 167.507564 78.0594 168.091359 78.0594 168.7 
C 78.0594 169.308641 78.301216 169.892436 78.73159 170.32281 
C 79.161964 170.753184 79.745759 170.995 80.3544 170.995 
z
" style="stroke:#000000;stroke-linejoin:miter;stroke-width:0.9;"/>
   </g>
   <g id="patch_13">
    <path clip-path="url(#p0ff125d027)" d="M 309.8544 170.995 
C 310.463041 170.995 311.046836 170.753184 311.47721 170.32281 
C 311.907584 169.892436 312.1494 169.308641 312.1494 168.7 
C 312.1494 168.091359 311.907584 167.507564 311.47721 167.07719 
C 311.046836 166.646816 310.463041 166.405 309.8544 166.405 
C 309.245759 166.405 308.661964 166.646816 308.23159 167.07719 
C 307.801216 167.507564 307.5594 168.091359 307.5594 168.7 
C 307.5594 169.308641 307.801216 169.892436 308.23159 170.32281 
C 308.661964 170.753184 309.245759 170.995 309.8544 170.995 
z
" style="fill:#ffffff;stroke:#000000;stroke-linejoin:miter;stroke-width:0.9;"/>
   </g>
   <g id="patch_14">
    <path clip-path="url(#p0ff125d027)" d="M 233.3544 145.495 
C 233.963041 145.495 234.546836 145.253184 234.97721 144.82281 
C 235.407584 144.392436 235.6494 143.808641 235.6494 143.2 
C 235.6494 142.591359 235.407584 142.007564 234.97721 141.57719 
C 234.546836 141.146816 233.963041 140.905 233.3544 140.905 
C 232.745759 140.905 232.161964 141.146816 231.73159 141.57719 
C 231.301216 142.007564 231.0594 142.591359 231.0594 143.2 
C 231.0594 143.808641 231.301216 144.392436 231.73159 144.82281 
C 232.161964 145.253184 232.745759 145.495 233.3544 145.495 
z
" style="stroke:#000000;stroke-linejoin:miter;stroke-width:0.9;"/>
   </g>
   <g id="patch_15">
    <path clip-path="url(#p0ff125d027)" d="M 309.8544 145.495 
C 310.463041 145.495 311.046836 145.253184 311.47721 144.82281 
C 311.907584 144.392436 312.1494 143.808641 312.1494 143.2 
C 312.1494 142.591359 311.907584 142.007564 311.47721 141.57719 
C 311.046836 141.146816 310.463041 140.905 309.8544 140.905 
C 309.245759 140.905 308.661964 141.146816 308.23159 141.57719 
C 307.801216 142.007564 307.5594 142.591359 307.5594 143.2 
C 307.5594 143.808641 307.801216 144.392436 308.23159 144.82281 
C 308.661964 145.253184 309.245759 145.495 309.8544 145.495 
z
" style="fill:#ffffff;stroke:#000000;stroke-linejoin:miter;stroke-width:0.9;"/>
   </g>
  </g>
 </g>
 <defs>
  <clipPath id="p0ff125d027">
   <rect height="451.826" width="346.4073" x="7.2" y="7.2"/>
  </clipPath>
 </defs>
</svg>
