<?xml version="1.0" encoding="utf-8" standalone="no"?>
<!DOCTYPE svg PUBLIC "-//W3C//DTD SVG 1.1//EN"
  "http://www.w3.org/Graphics/SVG/1.1/DTD/svg11.dtd">
<svg height="508.862pt" version="1.1" viewBox="0 0 496.1154 508.862" width="496.1154pt" xmlns="http://www.w3.org/2000/svg" xmlns:xlink="http://www.w3.org/1999/xlink">
 <metadata>
  <rdf:RDF xmlns:cc="http://creativecommons.org/ns#" xmlns:dc="http://purl.org/dc/elements/1.1/" xmlns:rdf="http://www.w3.org/1999/02/22-rdf-syntax-ns#">
   <cc:Work>
    <dc:type rdf:resource="http://purl.org/dc/dcmitype/StillImage"/>
    <dc:date>2021-06-17T14:47:09.968631</dc:date>
    <dc:format>image/svg+xml</dc:format>
    <dc:creator>
     <cc:Agent>
      <dc:title>Matplotlib v3.4.2, https://matplotlib.org/</dc:title>
     </cc:Agent>
    </dc:creator>
   </cc:Work>
  </rdf:RDF>
 </metadata>
 <defs>
  <style type="text/css">*{stroke-linecap:butt;stroke-linejoin:round;}</style>
 </defs>
 <g id="figure_1">
  <g id="patch_1">
   <path d="M 0 508.862 
L 496.1154 508.862 
L 496.1154 0 
L 0 0 
z
" style="fill:none;"/>
  </g>
  <g id="axes_1">
   <g id="patch_2">
    <path clip-path="url(#pb0b341d920)" d="M 112.4334 232.348 
C 116.896768 232.348 121.177929 230.574685 124.334007 227.418607 
C 127.490085 224.262529 129.2634 219.981368 129.2634 215.518 
C 129.2634 211.054632 127.490085 206.773471 124.334007 203.617393 
C 121.177929 200.461315 116.896768 198.688 112.4334 198.688 
C 107.970032 198.688 103.688871 200.461315 100.532793 203.617393 
C 97.376715 206.773471 95.6034 211.054632 95.6034 215.518 
C 95.6034 219.981368 97.376715 224.262529 100.532793 227.418607 
C 103.688871 230.574685 107.970032 232.348 112.4334 232.348 
z
" style="fill:none;stroke:#000000;stroke-linejoin:miter;stroke-width:0.9;"/>
   </g>
   <g id="patch_3">
    <path clip-path="url(#pb0b341d920)" d="M 115.949171 224.919832 
L 118.6044 231.226 
L 111.966328 229.566482 
z
"/>
   </g>
   <g id="patch_4">
    <path clip-path="url(#pb0b341d920)" d="M 430.7754 232.348 
C 435.238768 232.348 439.519929 230.574685 442.676007 227.418607 
C 445.832085 224.262529 447.6054 219.981368 447.6054 215.518 
C 447.6054 211.054632 445.832085 206.773471 442.676007 203.617393 
C 439.519929 200.461315 435.238768 198.688 430.7754 198.688 
C 426.312032 198.688 422.030871 200.461315 418.874793 203.617393 
C 415.718715 206.773471 413.9454 211.054632 413.9454 215.518 
C 413.9454 219.981368 415.718715 224.262529 418.874793 227.418607 
C 422.030871 230.574685 426.312032 232.348 430.7754 232.348 
z
" style="fill:none;stroke:#000000;stroke-linejoin:miter;stroke-width:0.9;"/>
   </g>
   <g id="patch_5">
    <path clip-path="url(#pb0b341d920)" d="M 431.242472 229.566482 
L 424.6044 231.226 
L 427.259629 224.919832 
z
"/>
   </g>
   <g id="patch_6">
    <path clip-path="url(#pb0b341d920)" d="M 150.6834 351.484 
C 155.146768 351.484 159.427929 349.710685 162.584007 346.554607 
C 165.740085 343.398529 167.5134 339.117368 167.5134 334.654 
C 167.5134 330.190632 165.740085 325.909471 162.584007 322.753393 
C 159.427929 319.597315 155.146768 317.824 150.6834 317.824 
C 146.220032 317.824 141.938871 319.597315 138.782793 322.753393 
C 135.626715 325.909471 133.8534 330.190632 133.8534 334.654 
C 133.8534 339.117368 135.626715 343.398529 138.782793 346.554607 
C 141.938871 349.710685 146.220032 351.484 150.6834 351.484 
z
" style="fill:none;stroke:#000000;stroke-linejoin:miter;stroke-width:0.9;"/>
   </g>
   <g id="patch_7">
    <path clip-path="url(#pb0b341d920)" d="M 154.199171 344.055832 
L 156.8544 350.362 
L 150.216328 348.702482 
z
"/>
   </g>
   <g id="patch_8">
    <path clip-path="url(#pb0b341d920)" d="M 392.5254 351.484 
C 396.988768 351.484 401.269929 349.710685 404.426007 346.554607 
C 407.582085 343.398529 409.3554 339.117368 409.3554 334.654 
C 409.3554 330.190632 407.582085 325.909471 404.426007 322.753393 
C 401.269929 319.597315 396.988768 317.824 392.5254 317.824 
C 388.062032 317.824 383.780871 319.597315 380.624793 322.753393 
C 377.468715 325.909471 375.6954 330.190632 375.6954 334.654 
C 375.6954 339.117368 377.468715 343.398529 380.624793 346.554607 
C 383.780871 349.710685 388.062032 351.484 392.5254 351.484 
z
" style="fill:none;stroke:#000000;stroke-linejoin:miter;stroke-width:0.9;"/>
   </g>
   <g id="patch_9">
    <path clip-path="url(#pb0b341d920)" d="M 392.992472 348.702482 
L 386.3544 350.362 
L 389.009629 344.055832 
z
"/>
   </g>
   <g id="patch_10">
    <path clip-path="url(#pb0b341d920)" d="M 341.9334 232.348 
C 346.396768 232.348 350.677929 230.574685 353.834007 227.418607 
C 356.990085 224.262529 358.7634 219.981368 358.7634 215.518 
C 358.7634 211.054632 356.990085 206.773471 353.834007 203.617393 
C 350.677929 200.461315 346.396768 198.688 341.9334 198.688 
C 337.470032 198.688 333.188871 200.461315 330.032793 203.617393 
C 326.876715 206.773471 325.1034 211.054632 325.1034 215.518 
C 325.1034 219.981368 326.876715 224.262529 330.032793 227.418607 
C 333.188871 230.574685 337.470032 232.348 341.9334 232.348 
z
" style="fill:none;stroke:#000000;stroke-linejoin:miter;stroke-width:0.9;"/>
   </g>
   <g id="patch_11">
    <path clip-path="url(#pb0b341d920)" d="M 345.449171 224.919832 
L 348.1044 231.226 
L 341.466328 229.566482 
z
"/>
   </g>
   <g id="patch_12">
    <path clip-path="url(#pb0b341d920)" d="M 201.2754 232.348 
C 205.738768 232.348 210.019929 230.574685 213.176007 227.418607 
C 216.332085 224.262529 218.1054 219.981368 218.1054 215.518 
C 218.1054 211.054632 216.332085 206.773471 213.176007 203.617393 
C 210.019929 200.461315 205.738768 198.688 201.2754 198.688 
C 196.812032 198.688 192.530871 200.461315 189.374793 203.617393 
C 186.218715 206.773471 184.4454 211.054632 184.4454 215.518 
C 184.4454 219.981368 186.218715 224.262529 189.374793 227.418607 
C 192.530871 230.574685 196.812032 232.348 201.2754 232.348 
z
" style="fill:none;stroke:#000000;stroke-linejoin:miter;stroke-width:0.9;"/>
   </g>
   <g id="patch_13">
    <path clip-path="url(#pb0b341d920)" d="M 201.742472 229.566482 
L 195.1044 231.226 
L 197.759629 224.919832 
z
"/>
   </g>
   <g id="line2d_1">
    <path clip-path="url(#pb0b341d920)" d="M 95.6034 215.518 
L 106.8234 215.518 
" style="fill:none;stroke:#000000;stroke-linecap:round;stroke-width:0.9;"/>
   </g>
   <g id="line2d_2">
    <path clip-path="url(#pb0b341d920)" d="M 106.8234 204.298 
L 106.8234 226.738 
" style="fill:none;stroke:#000000;stroke-linecap:round;stroke-width:0.9;"/>
   </g>
   <g id="line2d_3">
    <path clip-path="url(#pb0b341d920)" d="M 106.8234 209.908 
L 118.6044 199.81 
L 118.6044 194.2 
" style="fill:none;stroke:#000000;stroke-linecap:round;stroke-width:0.9;"/>
   </g>
   <g id="line2d_4">
    <path clip-path="url(#pb0b341d920)" d="M 106.8234 221.128 
L 118.6044 231.226 
L 118.6044 236.836 
" style="fill:none;stroke:#000000;stroke-linecap:round;stroke-width:0.9;"/>
   </g>
   <g id="line2d_5">
    <path clip-path="url(#pb0b341d920)" d="M 106.8234 221.128 
L 113.95775 227.243157 
" style="fill:none;stroke:#000000;stroke-linecap:square;stroke-width:0.9;"/>
   </g>
   <g id="line2d_6">
    <path clip-path="url(#pb0b341d920)" d="M 95.6034 215.518 
L 57.3534 215.518 
L 19.1034 215.518 
" style="fill:none;stroke:#000000;stroke-linecap:round;stroke-width:0.9;"/>
   </g>
   <g id="line2d_7">
    <path clip-path="url(#pb0b341d920)" d="M 118.6044 194.2 
L 118.6044 155.95 
L 118.6044 117.7 
" style="fill:none;stroke:#000000;stroke-linecap:round;stroke-width:0.9;"/>
   </g>
   <g id="line2d_8">
    <path clip-path="url(#pb0b341d920)" d="M 118.6044 117.7 
L 118.6044 94.75 
L 110.9544 92.2 
L 126.2544 87.1 
L 110.9544 82 
L 126.2544 76.9 
L 110.9544 71.8 
L 126.2544 66.7 
L 118.6044 64.15 
L 118.6044 41.2 
" style="fill:none;stroke:#000000;stroke-linecap:round;stroke-width:0.9;"/>
   </g>
   <g id="line2d_9">
    <path clip-path="url(#pb0b341d920)" d="M 118.6044 41.2 
L 195.1044 41.2 
L 271.6044 41.2 
" style="fill:none;stroke:#000000;stroke-linecap:round;stroke-width:0.9;"/>
   </g>
   <g id="line2d_10">
    <path clip-path="url(#pb0b341d920)" d="M 271.6044 41.2 
L 271.6044 28.96 
" style="fill:none;stroke:#000000;stroke-linecap:round;stroke-width:0.9;"/>
   </g>
   <g id="line2d_11">
    <path clip-path="url(#pb0b341d920)" d="M 271.6044 28.96 
L 265.8669 28.96 
" style="fill:none;stroke:#000000;stroke-linecap:round;stroke-width:0.9;"/>
   </g>
   <g id="line2d_12">
    <path clip-path="url(#pb0b341d920)" d="M 271.6044 28.96 
L 277.3419 28.96 
" style="fill:none;stroke:#000000;stroke-linecap:round;stroke-width:0.9;"/>
   </g>
   <g id="line2d_13">
    <path clip-path="url(#pb0b341d920)" d="M 271.6044 41.2 
L 348.1044 41.2 
L 424.6044 41.2 
" style="fill:none;stroke:#000000;stroke-linecap:round;stroke-width:0.9;"/>
   </g>
   <g id="line2d_14">
    <path clip-path="url(#pb0b341d920)" d="M 424.6044 41.2 
L 424.6044 64.15 
L 432.2544 66.7 
L 416.9544 71.8 
L 432.2544 76.9 
L 416.9544 82 
L 432.2544 87.1 
L 416.9544 92.2 
L 424.6044 94.75 
L 424.6044 117.7 
" style="fill:none;stroke:#000000;stroke-linecap:round;stroke-width:0.9;"/>
   </g>
   <g id="line2d_15">
    <path clip-path="url(#pb0b341d920)" d="M 424.6044 117.7 
L 424.6044 155.95 
L 424.6044 194.2 
" style="fill:none;stroke:#000000;stroke-linecap:round;stroke-width:0.9;"/>
   </g>
   <g id="line2d_16">
    <path clip-path="url(#pb0b341d920)" d="M 447.6054 215.518 
L 436.3854 215.518 
" style="fill:none;stroke:#000000;stroke-linecap:round;stroke-width:0.9;"/>
   </g>
   <g id="line2d_17">
    <path clip-path="url(#pb0b341d920)" d="M 436.3854 204.298 
L 436.3854 226.738 
" style="fill:none;stroke:#000000;stroke-linecap:round;stroke-width:0.9;"/>
   </g>
   <g id="line2d_18">
    <path clip-path="url(#pb0b341d920)" d="M 436.3854 209.908 
L 424.6044 199.81 
L 424.6044 194.2 
" style="fill:none;stroke:#000000;stroke-linecap:round;stroke-width:0.9;"/>
   </g>
   <g id="line2d_19">
    <path clip-path="url(#pb0b341d920)" d="M 436.3854 221.128 
L 424.6044 231.226 
L 424.6044 236.836 
" style="fill:none;stroke:#000000;stroke-linecap:round;stroke-width:0.9;"/>
   </g>
   <g id="line2d_20">
    <path clip-path="url(#pb0b341d920)" d="M 436.3854 221.128 
L 429.25105 227.243157 
" style="fill:none;stroke:#000000;stroke-linecap:square;stroke-width:0.9;"/>
   </g>
   <g id="line2d_21">
    <path clip-path="url(#pb0b341d920)" d="M 447.6054 215.518 
L 466.7304 215.518 
L 485.8554 215.518 
" style="fill:none;stroke:#000000;stroke-linecap:round;stroke-width:0.9;"/>
   </g>
   <g id="line2d_22">
    <path clip-path="url(#pb0b341d920)" d="M 485.8554 215.518 
L 485.8554 234.643 
L 485.8554 253.768 
" style="fill:none;stroke:#000000;stroke-linecap:round;stroke-width:0.9;"/>
   </g>
   <g id="line2d_23">
    <path clip-path="url(#pb0b341d920)" d="M 485.8554 253.768 
L 275.4804 253.768 
L 65.1054 253.768 
" style="fill:none;stroke:#000000;stroke-linecap:round;stroke-width:0.9;"/>
   </g>
   <g id="line2d_24">
    <path clip-path="url(#pb0b341d920)" d="M 65.1054 253.768 
L 65.1054 234.643 
L 65.1054 215.518 
" style="fill:none;stroke:#000000;stroke-linecap:round;stroke-width:0.9;"/>
   </g>
   <g id="line2d_25">
    <path clip-path="url(#pb0b341d920)" d="M 118.6044 117.7 
L 156.8544 117.7 
L 195.1044 117.7 
" style="fill:none;stroke:#000000;stroke-linecap:round;stroke-width:0.9;"/>
   </g>
   <g id="line2d_26">
    <path clip-path="url(#pb0b341d920)" d="M 424.6044 117.7 
L 386.3544 117.7 
L 348.1044 117.7 
" style="fill:none;stroke:#000000;stroke-linecap:round;stroke-width:0.9;"/>
   </g>
   <g id="line2d_27">
    <path clip-path="url(#pb0b341d920)" d="M 118.6044 236.836 
L 118.6044 255.961 
L 118.6044 275.086 
" style="fill:none;stroke:#000000;stroke-linecap:round;stroke-width:0.9;"/>
   </g>
   <g id="line2d_28">
    <path clip-path="url(#pb0b341d920)" d="M 118.6044 275.086 
L 137.7294 275.086 
L 156.8544 275.086 
" style="fill:none;stroke:#000000;stroke-linecap:round;stroke-width:0.9;"/>
   </g>
   <g id="line2d_29">
    <path clip-path="url(#pb0b341d920)" d="M 156.8544 275.086 
L 156.8544 294.211 
L 156.8544 313.336 
" style="fill:none;stroke:#000000;stroke-linecap:round;stroke-width:0.9;"/>
   </g>
   <g id="line2d_30">
    <path clip-path="url(#pb0b341d920)" d="M 133.8534 334.654 
L 145.0734 334.654 
" style="fill:none;stroke:#000000;stroke-linecap:round;stroke-width:0.9;"/>
   </g>
   <g id="line2d_31">
    <path clip-path="url(#pb0b341d920)" d="M 145.0734 323.434 
L 145.0734 345.874 
" style="fill:none;stroke:#000000;stroke-linecap:round;stroke-width:0.9;"/>
   </g>
   <g id="line2d_32">
    <path clip-path="url(#pb0b341d920)" d="M 145.0734 329.044 
L 156.8544 318.946 
L 156.8544 313.336 
" style="fill:none;stroke:#000000;stroke-linecap:round;stroke-width:0.9;"/>
   </g>
   <g id="line2d_33">
    <path clip-path="url(#pb0b341d920)" d="M 145.0734 340.264 
L 156.8544 350.362 
L 156.8544 355.972 
" style="fill:none;stroke:#000000;stroke-linecap:round;stroke-width:0.9;"/>
   </g>
   <g id="line2d_34">
    <path clip-path="url(#pb0b341d920)" d="M 145.0734 340.264 
L 152.20775 346.379157 
" style="fill:none;stroke:#000000;stroke-linecap:square;stroke-width:0.9;"/>
   </g>
   <g id="line2d_35">
    <path clip-path="url(#pb0b341d920)" d="M 156.8544 355.972 
L 156.8544 375.097 
L 156.8544 394.222 
" style="fill:none;stroke:#000000;stroke-linecap:round;stroke-width:0.9;"/>
   </g>
   <g id="line2d_36">
    <path clip-path="url(#pb0b341d920)" d="M 156.8544 394.222 
L 214.2294 394.222 
L 271.6044 394.222 
" style="fill:none;stroke:#000000;stroke-linecap:round;stroke-width:0.9;"/>
   </g>
   <g id="line2d_37">
    <path clip-path="url(#pb0b341d920)" d="M 271.6044 394.222 
L 271.6044 417.172 
L 279.2544 419.722 
L 263.9544 424.822 
L 279.2544 429.922 
L 263.9544 435.022 
L 279.2544 440.122 
L 263.9544 445.222 
L 271.6044 447.772 
L 271.6044 470.722 
" style="fill:none;stroke:#000000;stroke-linecap:round;stroke-width:0.9;"/>
   </g>
   <g id="line2d_38">
    <path clip-path="url(#pb0b341d920)" d="M 271.6044 470.722 
L 271.6044 482.962 
" style="fill:none;stroke:#000000;stroke-linecap:round;stroke-width:0.9;"/>
   </g>
   <g id="line2d_39">
    <path clip-path="url(#pb0b341d920)" d="M 271.6044 482.962 
L 265.8669 482.962 
" style="fill:none;stroke:#000000;stroke-linecap:round;stroke-width:0.9;"/>
   </g>
   <g id="line2d_40">
    <path clip-path="url(#pb0b341d920)" d="M 271.6044 482.962 
L 277.3419 482.962 
" style="fill:none;stroke:#000000;stroke-linecap:round;stroke-width:0.9;"/>
   </g>
   <g id="line2d_41">
    <path clip-path="url(#pb0b341d920)" d="M 271.6044 394.222 
L 328.9794 394.222 
L 386.3544 394.222 
" style="fill:none;stroke:#000000;stroke-linecap:round;stroke-width:0.9;"/>
   </g>
   <g id="line2d_42">
    <path clip-path="url(#pb0b341d920)" d="M 386.3544 394.222 
L 386.3544 375.097 
L 386.3544 355.972 
" style="fill:none;stroke:#000000;stroke-linecap:round;stroke-width:0.9;"/>
   </g>
   <g id="line2d_43">
    <path clip-path="url(#pb0b341d920)" d="M 409.3554 334.654 
L 398.1354 334.654 
" style="fill:none;stroke:#000000;stroke-linecap:round;stroke-width:0.9;"/>
   </g>
   <g id="line2d_44">
    <path clip-path="url(#pb0b341d920)" d="M 398.1354 323.434 
L 398.1354 345.874 
" style="fill:none;stroke:#000000;stroke-linecap:round;stroke-width:0.9;"/>
   </g>
   <g id="line2d_45">
    <path clip-path="url(#pb0b341d920)" d="M 398.1354 329.044 
L 386.3544 318.946 
L 386.3544 313.336 
" style="fill:none;stroke:#000000;stroke-linecap:round;stroke-width:0.9;"/>
   </g>
   <g id="line2d_46">
    <path clip-path="url(#pb0b341d920)" d="M 398.1354 340.264 
L 386.3544 350.362 
L 386.3544 355.972 
" style="fill:none;stroke:#000000;stroke-linecap:round;stroke-width:0.9;"/>
   </g>
   <g id="line2d_47">
    <path clip-path="url(#pb0b341d920)" d="M 398.1354 340.264 
L 391.00105 346.379157 
" style="fill:none;stroke:#000000;stroke-linecap:square;stroke-width:0.9;"/>
   </g>
   <g id="line2d_48">
    <path clip-path="url(#pb0b341d920)" d="M 386.3544 313.336 
L 386.3544 294.211 
L 386.3544 275.086 
" style="fill:none;stroke:#000000;stroke-linecap:round;stroke-width:0.9;"/>
   </g>
   <g id="line2d_49">
    <path clip-path="url(#pb0b341d920)" d="M 386.3544 275.086 
L 367.2294 275.086 
L 348.1044 275.086 
" style="fill:none;stroke:#000000;stroke-linecap:round;stroke-width:0.9;"/>
   </g>
   <g id="line2d_50">
    <path clip-path="url(#pb0b341d920)" d="M 348.1044 275.086 
L 348.1044 255.961 
L 348.1044 236.836 
" style="fill:none;stroke:#000000;stroke-linecap:round;stroke-width:0.9;"/>
   </g>
   <g id="line2d_51">
    <path clip-path="url(#pb0b341d920)" d="M 325.1034 215.518 
L 336.3234 215.518 
" style="fill:none;stroke:#000000;stroke-linecap:round;stroke-width:0.9;"/>
   </g>
   <g id="line2d_52">
    <path clip-path="url(#pb0b341d920)" d="M 336.3234 204.298 
L 336.3234 226.738 
" style="fill:none;stroke:#000000;stroke-linecap:round;stroke-width:0.9;"/>
   </g>
   <g id="line2d_53">
    <path clip-path="url(#pb0b341d920)" d="M 336.3234 209.908 
L 348.1044 199.81 
L 348.1044 194.2 
" style="fill:none;stroke:#000000;stroke-linecap:round;stroke-width:0.9;"/>
   </g>
   <g id="line2d_54">
    <path clip-path="url(#pb0b341d920)" d="M 336.3234 221.128 
L 348.1044 231.226 
L 348.1044 236.836 
" style="fill:none;stroke:#000000;stroke-linecap:round;stroke-width:0.9;"/>
   </g>
   <g id="line2d_55">
    <path clip-path="url(#pb0b341d920)" d="M 336.3234 221.128 
L 343.45775 227.243157 
" style="fill:none;stroke:#000000;stroke-linecap:square;stroke-width:0.9;"/>
   </g>
   <g id="line2d_56">
    <path clip-path="url(#pb0b341d920)" d="M 348.1044 194.2 
L 348.1044 179.85625 
L 348.1044 165.5125 
" style="fill:none;stroke:#000000;stroke-linecap:round;stroke-width:0.9;"/>
   </g>
   <g id="line2d_57">
    <path clip-path="url(#pb0b341d920)" d="M 348.1044 165.5125 
L 233.3544 165.5125 
L 118.6044 165.5125 
" style="fill:none;stroke:#000000;stroke-linecap:round;stroke-width:0.9;"/>
   </g>
   <g id="line2d_58">
    <path clip-path="url(#pb0b341d920)" d="M 386.3544 275.086 
L 405.4794 275.086 
L 424.6044 275.086 
" style="fill:none;stroke:#000000;stroke-linecap:round;stroke-width:0.9;"/>
   </g>
   <g id="line2d_59">
    <path clip-path="url(#pb0b341d920)" d="M 424.6044 275.086 
L 424.6044 255.961 
L 424.6044 236.836 
" style="fill:none;stroke:#000000;stroke-linecap:round;stroke-width:0.9;"/>
   </g>
   <g id="line2d_60">
    <path clip-path="url(#pb0b341d920)" d="M 409.3554 334.654 
L 418.9179 334.654 
L 428.4804 334.654 
" style="fill:none;stroke:#000000;stroke-linecap:round;stroke-width:0.9;"/>
   </g>
   <g id="line2d_61">
    <path clip-path="url(#pb0b341d920)" d="M 428.4804 334.654 
L 428.4804 322.414 
" style="fill:none;stroke:#000000;stroke-linecap:round;stroke-width:0.9;"/>
   </g>
   <g id="line2d_62">
    <path clip-path="url(#pb0b341d920)" d="M 428.4804 322.414 
L 422.7429 322.414 
" style="fill:none;stroke:#000000;stroke-linecap:round;stroke-width:0.9;"/>
   </g>
   <g id="line2d_63">
    <path clip-path="url(#pb0b341d920)" d="M 428.4804 322.414 
L 434.2179 322.414 
" style="fill:none;stroke:#000000;stroke-linecap:round;stroke-width:0.9;"/>
   </g>
   <g id="line2d_64">
    <path clip-path="url(#pb0b341d920)" d="M 133.8534 334.654 
L 114.7284 334.654 
L 95.6034 334.654 
" style="fill:none;stroke:#000000;stroke-linecap:round;stroke-width:0.9;"/>
   </g>
   <g id="line2d_65">
    <path clip-path="url(#pb0b341d920)" d="M 95.6034 334.654 
L 60.1074 334.654 
M 60.1074 342.304 
L 60.1074 327.004 
M 54.5994 342.304 
L 54.5994 327.004 
M 54.5994 334.654 
L 19.1034 334.654 
" style="fill:none;stroke:#000000;stroke-linecap:round;stroke-width:0.9;"/>
   </g>
   <g id="line2d_66">
    <path clip-path="url(#pb0b341d920)" d="M 95.6034 334.654 
L 95.6034 322.414 
" style="fill:none;stroke:#000000;stroke-linecap:round;stroke-width:0.9;"/>
   </g>
   <g id="line2d_67">
    <path clip-path="url(#pb0b341d920)" d="M 95.6034 322.414 
L 89.8659 322.414 
" style="fill:none;stroke:#000000;stroke-linecap:round;stroke-width:0.9;"/>
   </g>
   <g id="line2d_68">
    <path clip-path="url(#pb0b341d920)" d="M 95.6034 322.414 
L 101.3409 322.414 
" style="fill:none;stroke:#000000;stroke-linecap:round;stroke-width:0.9;"/>
   </g>
   <g id="line2d_69">
    <path clip-path="url(#pb0b341d920)" d="M 156.8544 275.086 
L 175.9794 275.086 
L 195.1044 275.086 
" style="fill:none;stroke:#000000;stroke-linecap:round;stroke-width:0.9;"/>
   </g>
   <g id="line2d_70">
    <path clip-path="url(#pb0b341d920)" d="M 195.1044 275.086 
L 195.1044 255.961 
L 195.1044 236.836 
" style="fill:none;stroke:#000000;stroke-linecap:round;stroke-width:0.9;"/>
   </g>
   <g id="line2d_71">
    <path clip-path="url(#pb0b341d920)" d="M 218.1054 215.518 
L 206.8854 215.518 
" style="fill:none;stroke:#000000;stroke-linecap:round;stroke-width:0.9;"/>
   </g>
   <g id="line2d_72">
    <path clip-path="url(#pb0b341d920)" d="M 206.8854 204.298 
L 206.8854 226.738 
" style="fill:none;stroke:#000000;stroke-linecap:round;stroke-width:0.9;"/>
   </g>
   <g id="line2d_73">
    <path clip-path="url(#pb0b341d920)" d="M 206.8854 209.908 
L 195.1044 199.81 
L 195.1044 194.2 
" style="fill:none;stroke:#000000;stroke-linecap:round;stroke-width:0.9;"/>
   </g>
   <g id="line2d_74">
    <path clip-path="url(#pb0b341d920)" d="M 206.8854 221.128 
L 195.1044 231.226 
L 195.1044 236.836 
" style="fill:none;stroke:#000000;stroke-linecap:round;stroke-width:0.9;"/>
   </g>
   <g id="line2d_75">
    <path clip-path="url(#pb0b341d920)" d="M 206.8854 221.128 
L 199.75105 227.243157 
" style="fill:none;stroke:#000000;stroke-linecap:square;stroke-width:0.9;"/>
   </g>
   <g id="line2d_76">
    <path clip-path="url(#pb0b341d920)" d="M 195.1044 194.2 
L 195.1044 175.075 
L 195.1044 155.95 
" style="fill:none;stroke:#000000;stroke-linecap:round;stroke-width:0.9;"/>
   </g>
   <g id="line2d_77">
    <path clip-path="url(#pb0b341d920)" d="M 195.1044 155.95 
L 309.8544 155.95 
L 424.6044 155.95 
" style="fill:none;stroke:#000000;stroke-linecap:round;stroke-width:0.9;"/>
   </g>
   <g id="line2d_78">
    <path clip-path="url(#pb0b341d920)" d="M 218.1054 215.518 
L 244.8804 215.518 
L 271.6554 215.518 
" style="fill:none;stroke:#000000;stroke-linecap:round;stroke-width:0.9;"/>
   </g>
   <g id="line2d_79">
    <path clip-path="url(#pb0b341d920)" d="M 271.6554 215.518 
L 298.3794 215.518 
L 325.1034 215.518 
" style="fill:none;stroke:#000000;stroke-linecap:round;stroke-width:0.9;"/>
   </g>
   <g id="line2d_80">
    <path clip-path="url(#pb0b341d920)" d="M 271.6554 215.518 
L 271.6554 217.908625 
L 271.6554 220.29925 
" style="fill:none;stroke:#000000;stroke-linecap:round;stroke-width:0.9;"/>
   </g>
   <g id="line2d_81">
    <path clip-path="url(#pb0b341d920)" d="M 271.6554 220.29925 
L 271.6554 232.53925 
L 264.0054 232.53925 
L 279.3054 232.53925 
M 266.3004 236.21125 
L 277.0104 236.21125 
M 270.1254 239.88325 
L 273.1854 239.88325 
" style="fill:none;stroke:#000000;stroke-linecap:round;stroke-width:0.9;"/>
   </g>
   <g id="text_1">
    <!-- $Q_1$ -->
    <g transform="translate(132.3234 219.636125)scale(0.14 -0.14)">
     <defs>
      <path d="M 2309 -84 
Q 2275 -88 2237 -89 
Q 2200 -91 2125 -91 
Q 1250 -91 756 411 
Q 263 913 263 1797 
Q 263 2319 452 2844 
Q 641 3369 978 3788 
Q 1369 4269 1858 4509 
Q 2347 4750 2938 4750 
Q 3794 4750 4287 4245 
Q 4781 3741 4781 2869 
Q 4781 1928 4265 1147 
Q 3750 366 2919 44 
L 3553 -825 
L 2847 -825 
L 2309 -84 
z
M 2919 4238 
Q 2400 4238 2003 3986 
Q 1606 3734 1313 3219 
Q 1125 2891 1026 2522 
Q 928 2153 928 1778 
Q 928 1128 1239 775 
Q 1550 422 2119 422 
Q 2631 422 3032 676 
Q 3434 931 3719 1434 
Q 3909 1772 4009 2142 
Q 4109 2513 4109 2881 
Q 4109 3528 3796 3883 
Q 3484 4238 2919 4238 
z
" id="DejaVuSans-Oblique-51" transform="scale(0.015625)"/>
      <path d="M 794 531 
L 1825 531 
L 1825 4091 
L 703 3866 
L 703 4441 
L 1819 4666 
L 2450 4666 
L 2450 531 
L 3481 531 
L 3481 0 
L 794 0 
L 794 531 
z
" id="DejaVuSans-31" transform="scale(0.015625)"/>
     </defs>
     <use transform="translate(0 0.78125)" xlink:href="#DejaVuSans-Oblique-51"/>
     <use transform="translate(78.710938 -15.625)scale(0.7)" xlink:href="#DejaVuSans-31"/>
    </g>
   </g>
   <g id="text_2">
    <!-- $R_{1}$ -->
    <g transform="translate(91.5144 83.313125)scale(0.14 -0.14)">
     <defs>
      <path d="M 1613 4147 
L 1294 2491 
L 2106 2491 
Q 2584 2491 2879 2755 
Q 3175 3019 3175 3444 
Q 3175 3784 2976 3965 
Q 2778 4147 2406 4147 
L 1613 4147 
z
M 2772 2241 
Q 2972 2194 3105 2009 
Q 3238 1825 3413 1275 
L 3809 0 
L 3144 0 
L 2778 1197 
Q 2638 1659 2453 1815 
Q 2269 1972 1888 1972 
L 1191 1972 
L 806 0 
L 172 0 
L 1081 4666 
L 2503 4666 
Q 3150 4666 3495 4373 
Q 3841 4081 3841 3531 
Q 3841 3044 3547 2687 
Q 3253 2331 2772 2241 
z
" id="DejaVuSans-Oblique-52" transform="scale(0.015625)"/>
     </defs>
     <use transform="translate(0 0.09375)" xlink:href="#DejaVuSans-Oblique-52"/>
     <use transform="translate(69.482422 -16.3125)scale(0.7)" xlink:href="#DejaVuSans-31"/>
    </g>
   </g>
   <g id="text_3">
    <!-- +15V -->
    <g transform="translate(252.042681 22.988437)scale(0.14 -0.14)">
     <defs>
      <path d="M 2944 4013 
L 2944 2272 
L 4684 2272 
L 4684 1741 
L 2944 1741 
L 2944 0 
L 2419 0 
L 2419 1741 
L 678 1741 
L 678 2272 
L 2419 2272 
L 2419 4013 
L 2944 4013 
z
" id="DejaVuSans-2b" transform="scale(0.015625)"/>
      <path d="M 691 4666 
L 3169 4666 
L 3169 4134 
L 1269 4134 
L 1269 2991 
Q 1406 3038 1543 3061 
Q 1681 3084 1819 3084 
Q 2600 3084 3056 2656 
Q 3513 2228 3513 1497 
Q 3513 744 3044 326 
Q 2575 -91 1722 -91 
Q 1428 -91 1123 -41 
Q 819 9 494 109 
L 494 744 
Q 775 591 1075 516 
Q 1375 441 1709 441 
Q 2250 441 2565 725 
Q 2881 1009 2881 1497 
Q 2881 1984 2565 2268 
Q 2250 2553 1709 2553 
Q 1456 2553 1204 2497 
Q 953 2441 691 2322 
L 691 4666 
z
" id="DejaVuSans-35" transform="scale(0.015625)"/>
      <path d="M 1831 0 
L 50 4666 
L 709 4666 
L 2188 738 
L 3669 4666 
L 4325 4666 
L 2547 0 
L 1831 0 
z
" id="DejaVuSans-56" transform="scale(0.015625)"/>
     </defs>
     <use xlink:href="#DejaVuSans-2b"/>
     <use x="83.789062" xlink:href="#DejaVuSans-31"/>
     <use x="147.412109" xlink:href="#DejaVuSans-35"/>
     <use x="211.035156" xlink:href="#DejaVuSans-56"/>
    </g>
   </g>
   <g id="text_4">
    <!-- $R_{2}$ -->
    <g transform="translate(397.5144 83.313125)scale(0.14 -0.14)">
     <defs>
      <path d="M 1228 531 
L 3431 531 
L 3431 0 
L 469 0 
L 469 531 
Q 828 903 1448 1529 
Q 2069 2156 2228 2338 
Q 2531 2678 2651 2914 
Q 2772 3150 2772 3378 
Q 2772 3750 2511 3984 
Q 2250 4219 1831 4219 
Q 1534 4219 1204 4116 
Q 875 4013 500 3803 
L 500 4441 
Q 881 4594 1212 4672 
Q 1544 4750 1819 4750 
Q 2544 4750 2975 4387 
Q 3406 4025 3406 3419 
Q 3406 3131 3298 2873 
Q 3191 2616 2906 2266 
Q 2828 2175 2409 1742 
Q 1991 1309 1228 531 
z
" id="DejaVuSans-32" transform="scale(0.015625)"/>
     </defs>
     <use transform="translate(0 0.09375)" xlink:href="#DejaVuSans-Oblique-52"/>
     <use transform="translate(69.482422 -16.3125)scale(0.7)" xlink:href="#DejaVuSans-32"/>
    </g>
   </g>
   <g id="text_5">
    <!-- $Q_4$ -->
    <g transform="translate(393.2454 219.636125)scale(0.14 -0.14)">
     <defs>
      <path d="M 2419 4116 
L 825 1625 
L 2419 1625 
L 2419 4116 
z
M 2253 4666 
L 3047 4666 
L 3047 1625 
L 3713 1625 
L 3713 1100 
L 3047 1100 
L 3047 0 
L 2419 0 
L 2419 1100 
L 313 1100 
L 313 1709 
L 2253 4666 
z
" id="DejaVuSans-34" transform="scale(0.015625)"/>
     </defs>
     <use transform="translate(0 0.78125)" xlink:href="#DejaVuSans-Oblique-51"/>
     <use transform="translate(78.710938 -15.625)scale(0.7)" xlink:href="#DejaVuSans-34"/>
    </g>
   </g>
   <g id="text_6">
    <!-- b -->
    <g transform="translate(305.410494 121.563125)scale(0.14 -0.14)">
     <defs>
      <path d="M 3116 1747 
Q 3116 2381 2855 2742 
Q 2594 3103 2138 3103 
Q 1681 3103 1420 2742 
Q 1159 2381 1159 1747 
Q 1159 1113 1420 752 
Q 1681 391 2138 391 
Q 2594 391 2855 752 
Q 3116 1113 3116 1747 
z
M 1159 2969 
Q 1341 3281 1617 3432 
Q 1894 3584 2278 3584 
Q 2916 3584 3314 3078 
Q 3713 2572 3713 1747 
Q 3713 922 3314 415 
Q 2916 -91 2278 -91 
Q 1894 -91 1617 61 
Q 1341 213 1159 525 
L 1159 0 
L 581 0 
L 581 4863 
L 1159 4863 
L 1159 2969 
z
" id="DejaVuSans-62" transform="scale(0.015625)"/>
     </defs>
     <use xlink:href="#DejaVuSans-62"/>
    </g>
   </g>
   <g id="text_7">
    <!-- OUT -->
    <g transform="translate(256.695494 121.563125)scale(0.14 -0.14)">
     <defs>
      <path d="M 2522 4238 
Q 1834 4238 1429 3725 
Q 1025 3213 1025 2328 
Q 1025 1447 1429 934 
Q 1834 422 2522 422 
Q 3209 422 3611 934 
Q 4013 1447 4013 2328 
Q 4013 3213 3611 3725 
Q 3209 4238 2522 4238 
z
M 2522 4750 
Q 3503 4750 4090 4092 
Q 4678 3434 4678 2328 
Q 4678 1225 4090 567 
Q 3503 -91 2522 -91 
Q 1538 -91 948 565 
Q 359 1222 359 2328 
Q 359 3434 948 4092 
Q 1538 4750 2522 4750 
z
" id="DejaVuSans-4f" transform="scale(0.015625)"/>
      <path d="M 556 4666 
L 1191 4666 
L 1191 1831 
Q 1191 1081 1462 751 
Q 1734 422 2344 422 
Q 2950 422 3222 751 
Q 3494 1081 3494 1831 
L 3494 4666 
L 4128 4666 
L 4128 1753 
Q 4128 841 3676 375 
Q 3225 -91 2344 -91 
Q 1459 -91 1007 375 
Q 556 841 556 1753 
L 556 4666 
z
" id="DejaVuSans-55" transform="scale(0.015625)"/>
      <path d="M -19 4666 
L 3928 4666 
L 3928 4134 
L 2272 4134 
L 2272 0 
L 1638 0 
L 1638 4134 
L -19 4134 
L -19 4666 
z
" id="DejaVuSans-54" transform="scale(0.015625)"/>
     </defs>
     <use xlink:href="#DejaVuSans-4f"/>
     <use x="78.710938" xlink:href="#DejaVuSans-55"/>
     <use x="151.904297" xlink:href="#DejaVuSans-54"/>
    </g>
   </g>
   <g id="text_8">
    <!-- a -->
    <g transform="translate(229.064713 121.563125)scale(0.14 -0.14)">
     <defs>
      <path d="M 2194 1759 
Q 1497 1759 1228 1600 
Q 959 1441 959 1056 
Q 959 750 1161 570 
Q 1363 391 1709 391 
Q 2188 391 2477 730 
Q 2766 1069 2766 1631 
L 2766 1759 
L 2194 1759 
z
M 3341 1997 
L 3341 0 
L 2766 0 
L 2766 531 
Q 2569 213 2275 61 
Q 1981 -91 1556 -91 
Q 1019 -91 701 211 
Q 384 513 384 1019 
Q 384 1609 779 1909 
Q 1175 2209 1959 2209 
L 2766 2209 
L 2766 2266 
Q 2766 2663 2505 2880 
Q 2244 3097 1772 3097 
Q 1472 3097 1187 3025 
Q 903 2953 641 2809 
L 641 3341 
Q 956 3463 1253 3523 
Q 1550 3584 1831 3584 
Q 2591 3584 2966 3190 
Q 3341 2797 3341 1997 
z
" id="DejaVuSans-61" transform="scale(0.015625)"/>
     </defs>
     <use xlink:href="#DejaVuSans-61"/>
    </g>
   </g>
   <g id="text_9">
    <!-- $Q_5$ -->
    <g transform="translate(170.5734 338.772125)scale(0.14 -0.14)">
     <use transform="translate(0 0.78125)" xlink:href="#DejaVuSans-Oblique-51"/>
     <use transform="translate(78.710938 -15.625)scale(0.7)" xlink:href="#DejaVuSans-35"/>
    </g>
   </g>
   <g id="text_10">
    <!-- $R_3$ -->
    <g transform="translate(244.5144 436.335125)scale(0.14 -0.14)">
     <defs>
      <path d="M 2597 2516 
Q 3050 2419 3304 2112 
Q 3559 1806 3559 1356 
Q 3559 666 3084 287 
Q 2609 -91 1734 -91 
Q 1441 -91 1130 -33 
Q 819 25 488 141 
L 488 750 
Q 750 597 1062 519 
Q 1375 441 1716 441 
Q 2309 441 2620 675 
Q 2931 909 2931 1356 
Q 2931 1769 2642 2001 
Q 2353 2234 1838 2234 
L 1294 2234 
L 1294 2753 
L 1863 2753 
Q 2328 2753 2575 2939 
Q 2822 3125 2822 3475 
Q 2822 3834 2567 4026 
Q 2313 4219 1838 4219 
Q 1578 4219 1281 4162 
Q 984 4106 628 3988 
L 628 4550 
Q 988 4650 1302 4700 
Q 1616 4750 1894 4750 
Q 2613 4750 3031 4423 
Q 3450 4097 3450 3541 
Q 3450 3153 3228 2886 
Q 3006 2619 2597 2516 
z
" id="DejaVuSans-33" transform="scale(0.015625)"/>
     </defs>
     <use transform="translate(0 0.09375)" xlink:href="#DejaVuSans-Oblique-52"/>
     <use transform="translate(69.482422 -16.3125)scale(0.7)" xlink:href="#DejaVuSans-33"/>
    </g>
   </g>
   <g id="text_11">
    <!-- -15V -->
    <g transform="translate(255.382994 496.659812)scale(0.14 -0.14)">
     <defs>
      <path d="M 313 2009 
L 1997 2009 
L 1997 1497 
L 313 1497 
L 313 2009 
z
" id="DejaVuSans-2d" transform="scale(0.015625)"/>
     </defs>
     <use xlink:href="#DejaVuSans-2d"/>
     <use x="36.083984" xlink:href="#DejaVuSans-31"/>
     <use x="99.707031" xlink:href="#DejaVuSans-35"/>
     <use x="163.330078" xlink:href="#DejaVuSans-56"/>
    </g>
   </g>
   <g id="text_12">
    <!-- $Q_6$ -->
    <g transform="translate(354.9954 338.772125)scale(0.14 -0.14)">
     <defs>
      <path d="M 2113 2584 
Q 1688 2584 1439 2293 
Q 1191 2003 1191 1497 
Q 1191 994 1439 701 
Q 1688 409 2113 409 
Q 2538 409 2786 701 
Q 3034 994 3034 1497 
Q 3034 2003 2786 2293 
Q 2538 2584 2113 2584 
z
M 3366 4563 
L 3366 3988 
Q 3128 4100 2886 4159 
Q 2644 4219 2406 4219 
Q 1781 4219 1451 3797 
Q 1122 3375 1075 2522 
Q 1259 2794 1537 2939 
Q 1816 3084 2150 3084 
Q 2853 3084 3261 2657 
Q 3669 2231 3669 1497 
Q 3669 778 3244 343 
Q 2819 -91 2113 -91 
Q 1303 -91 875 529 
Q 447 1150 447 2328 
Q 447 3434 972 4092 
Q 1497 4750 2381 4750 
Q 2619 4750 2861 4703 
Q 3103 4656 3366 4563 
z
" id="DejaVuSans-36" transform="scale(0.015625)"/>
     </defs>
     <use transform="translate(0 0.78125)" xlink:href="#DejaVuSans-Oblique-51"/>
     <use transform="translate(78.710938 -15.625)scale(0.7)" xlink:href="#DejaVuSans-36"/>
    </g>
   </g>
   <g id="text_13">
    <!-- $Q_3$ -->
    <g transform="translate(361.8234 219.636125)scale(0.14 -0.14)">
     <use transform="translate(0 0.78125)" xlink:href="#DejaVuSans-Oblique-51"/>
     <use transform="translate(78.710938 -15.625)scale(0.7)" xlink:href="#DejaVuSans-33"/>
    </g>
   </g>
   <g id="text_14">
    <!-- $V_{bias}$ -->
    <g transform="translate(413.4304 316.442437)scale(0.14 -0.14)">
     <defs>
      <path d="M 1319 0 
L 500 4666 
L 1119 4666 
L 1797 653 
L 4063 4666 
L 4750 4666 
L 2053 0 
L 1319 0 
z
" id="DejaVuSans-Oblique-56" transform="scale(0.015625)"/>
      <path d="M 3169 2138 
Q 3169 2591 2961 2847 
Q 2753 3103 2388 3103 
Q 2122 3103 1889 2973 
Q 1656 2844 1484 2597 
Q 1303 2338 1198 1995 
Q 1094 1653 1094 1313 
Q 1094 881 1298 636 
Q 1503 391 1863 391 
Q 2134 391 2365 517 
Q 2597 644 2772 891 
Q 2950 1147 3059 1487 
Q 3169 1828 3169 2138 
z
M 1381 2969 
Q 1594 3256 1914 3420 
Q 2234 3584 2584 3584 
Q 3122 3584 3439 3221 
Q 3756 2859 3756 2241 
Q 3756 1734 3570 1259 
Q 3384 784 3041 416 
Q 2816 172 2522 40 
Q 2228 -91 1906 -91 
Q 1566 -91 1316 65 
Q 1066 222 909 531 
L 806 0 
L 231 0 
L 1178 4863 
L 1753 4863 
L 1381 2969 
z
" id="DejaVuSans-Oblique-62" transform="scale(0.015625)"/>
      <path d="M 1172 4863 
L 1747 4863 
L 1606 4134 
L 1031 4134 
L 1172 4863 
z
M 909 3500 
L 1484 3500 
L 800 0 
L 225 0 
L 909 3500 
z
" id="DejaVuSans-Oblique-69" transform="scale(0.015625)"/>
      <path d="M 3438 1997 
L 3047 0 
L 2472 0 
L 2578 531 
Q 2325 219 2001 64 
Q 1678 -91 1281 -91 
Q 834 -91 548 182 
Q 263 456 263 884 
Q 263 1497 752 1853 
Q 1241 2209 2100 2209 
L 2900 2209 
L 2931 2363 
Q 2938 2388 2941 2417 
Q 2944 2447 2944 2509 
Q 2944 2788 2717 2942 
Q 2491 3097 2081 3097 
Q 1800 3097 1504 3025 
Q 1209 2953 897 2809 
L 997 3341 
Q 1322 3463 1633 3523 
Q 1944 3584 2234 3584 
Q 2853 3584 3176 3315 
Q 3500 3047 3500 2534 
Q 3500 2431 3484 2292 
Q 3469 2153 3438 1997 
z
M 2816 1759 
L 2241 1759 
Q 1534 1759 1195 1570 
Q 856 1381 856 984 
Q 856 709 1029 553 
Q 1203 397 1509 397 
Q 1978 397 2328 733 
Q 2678 1069 2791 1631 
L 2816 1759 
z
" id="DejaVuSans-Oblique-61" transform="scale(0.015625)"/>
      <path d="M 3200 3397 
L 3091 2853 
Q 2863 2978 2609 3040 
Q 2356 3103 2088 3103 
Q 1634 3103 1373 2948 
Q 1113 2794 1113 2528 
Q 1113 2219 1719 2053 
Q 1766 2041 1788 2034 
L 1972 1978 
Q 2547 1819 2739 1644 
Q 2931 1469 2931 1166 
Q 2931 609 2489 259 
Q 2047 -91 1331 -91 
Q 1053 -91 747 -37 
Q 441 16 72 128 
L 184 722 
Q 500 559 806 475 
Q 1113 391 1394 391 
Q 1816 391 2080 572 
Q 2344 753 2344 1031 
Q 2344 1331 1650 1516 
L 1591 1531 
L 1394 1581 
Q 956 1697 753 1886 
Q 550 2075 550 2369 
Q 550 2928 970 3256 
Q 1391 3584 2113 3584 
Q 2397 3584 2667 3537 
Q 2938 3491 3200 3397 
z
" id="DejaVuSans-Oblique-73" transform="scale(0.015625)"/>
     </defs>
     <use transform="translate(0 0.09375)" xlink:href="#DejaVuSans-Oblique-56"/>
     <use transform="translate(68.408203 -16.3125)scale(0.7)" xlink:href="#DejaVuSans-Oblique-62"/>
     <use transform="translate(112.841797 -16.3125)scale(0.7)" xlink:href="#DejaVuSans-Oblique-69"/>
     <use transform="translate(132.290039 -16.3125)scale(0.7)" xlink:href="#DejaVuSans-Oblique-61"/>
     <use transform="translate(175.185547 -16.3125)scale(0.7)" xlink:href="#DejaVuSans-Oblique-73"/>
    </g>
   </g>
   <g id="text_15">
    <!-- $C_1$ -->
    <g transform="translate(49.0934 321.032437)scale(0.14 -0.14)">
     <defs>
      <path d="M 4447 4306 
L 4319 3641 
Q 4019 3944 3683 4091 
Q 3347 4238 2956 4238 
Q 2422 4238 2017 3981 
Q 1613 3725 1319 3200 
Q 1131 2863 1032 2486 
Q 934 2109 934 1728 
Q 934 1091 1264 756 
Q 1594 422 2222 422 
Q 2656 422 3056 561 
Q 3456 700 3834 978 
L 3688 231 
Q 3316 72 2936 -9 
Q 2556 -91 2175 -91 
Q 1278 -91 773 396 
Q 269 884 269 1753 
Q 269 2309 461 2846 
Q 653 3384 1013 3828 
Q 1394 4300 1883 4525 
Q 2372 4750 3022 4750 
Q 3422 4750 3780 4639 
Q 4138 4528 4447 4306 
z
" id="DejaVuSans-Oblique-43" transform="scale(0.015625)"/>
     </defs>
     <use transform="translate(0 0.78125)" xlink:href="#DejaVuSans-Oblique-43"/>
     <use transform="translate(69.824219 -15.625)scale(0.7)" xlink:href="#DejaVuSans-31"/>
    </g>
   </g>
   <g id="text_16">
    <!-- x -->
    <g transform="translate(14.960275 308.733125)scale(0.14 -0.14)">
     <defs>
      <path d="M 3513 3500 
L 2247 1797 
L 3578 0 
L 2900 0 
L 1881 1375 
L 863 0 
L 184 0 
L 1544 1831 
L 300 3500 
L 978 3500 
L 1906 2253 
L 2834 3500 
L 3513 3500 
z
" id="DejaVuSans-78" transform="scale(0.015625)"/>
     </defs>
     <use xlink:href="#DejaVuSans-78"/>
    </g>
   </g>
   <g id="text_17">
    <!-- IN -->
    <g transform="translate(11.801525 278.949125)scale(0.14 -0.14)">
     <defs>
      <path d="M 628 4666 
L 1259 4666 
L 1259 0 
L 628 0 
L 628 4666 
z
" id="DejaVuSans-49" transform="scale(0.015625)"/>
      <path d="M 628 4666 
L 1478 4666 
L 3547 763 
L 3547 4666 
L 4159 4666 
L 4159 0 
L 3309 0 
L 1241 3903 
L 1241 0 
L 628 0 
L 628 4666 
z
" id="DejaVuSans-4e" transform="scale(0.015625)"/>
     </defs>
     <use xlink:href="#DejaVuSans-49"/>
     <use x="29.492188" xlink:href="#DejaVuSans-4e"/>
    </g>
   </g>
   <g id="text_18">
    <!-- y -->
    <g transform="translate(14.960275 249.165125)scale(0.14 -0.14)">
     <defs>
      <path d="M 2059 -325 
Q 1816 -950 1584 -1140 
Q 1353 -1331 966 -1331 
L 506 -1331 
L 506 -850 
L 844 -850 
Q 1081 -850 1212 -737 
Q 1344 -625 1503 -206 
L 1606 56 
L 191 3500 
L 800 3500 
L 1894 763 
L 2988 3500 
L 3597 3500 
L 2059 -325 
z
" id="DejaVuSans-79" transform="scale(0.015625)"/>
     </defs>
     <use xlink:href="#DejaVuSans-79"/>
    </g>
   </g>
   <g id="text_19">
    <!-- $V_{bias}$ -->
    <g transform="translate(80.5534 316.442437)scale(0.14 -0.14)">
     <use transform="translate(0 0.09375)" xlink:href="#DejaVuSans-Oblique-56"/>
     <use transform="translate(68.408203 -16.3125)scale(0.7)" xlink:href="#DejaVuSans-Oblique-62"/>
     <use transform="translate(112.841797 -16.3125)scale(0.7)" xlink:href="#DejaVuSans-Oblique-69"/>
     <use transform="translate(132.290039 -16.3125)scale(0.7)" xlink:href="#DejaVuSans-Oblique-61"/>
     <use transform="translate(175.185547 -16.3125)scale(0.7)" xlink:href="#DejaVuSans-Oblique-73"/>
    </g>
   </g>
   <g id="text_20">
    <!-- $Q_2$ -->
    <g transform="translate(163.7454 219.636125)scale(0.14 -0.14)">
     <use transform="translate(0 0.78125)" xlink:href="#DejaVuSans-Oblique-51"/>
     <use transform="translate(78.710938 -15.625)scale(0.7)" xlink:href="#DejaVuSans-32"/>
    </g>
   </g>
   <g id="patch_14">
    <path clip-path="url(#pb0b341d920)" d="M 19.1034 217.813 
C 19.712041 217.813 20.295836 217.571184 20.72621 217.14081 
C 21.156584 216.710436 21.3984 216.126641 21.3984 215.518 
C 21.3984 214.909359 21.156584 214.325564 20.72621 213.89519 
C 20.295836 213.464816 19.712041 213.223 19.1034 213.223 
C 18.494759 213.223 17.910964 213.464816 17.48059 213.89519 
C 17.050216 214.325564 16.8084 214.909359 16.8084 215.518 
C 16.8084 216.126641 17.050216 216.710436 17.48059 217.14081 
C 17.910964 217.571184 18.494759 217.813 19.1034 217.813 
z
" style="fill:#ffffff;stroke:#000000;stroke-linejoin:miter;stroke-width:0.9;"/>
   </g>
   <g id="patch_15">
    <path clip-path="url(#pb0b341d920)" d="M 271.6044 43.495 
C 272.213041 43.495 272.796836 43.253184 273.22721 42.82281 
C 273.657584 42.392436 273.8994 41.808641 273.8994 41.2 
C 273.8994 40.591359 273.657584 40.007564 273.22721 39.57719 
C 272.796836 39.146816 272.213041 38.905 271.6044 38.905 
C 270.995759 38.905 270.411964 39.146816 269.98159 39.57719 
C 269.551216 40.007564 269.3094 40.591359 269.3094 41.2 
C 269.3094 41.808641 269.551216 42.392436 269.98159 42.82281 
C 270.411964 43.253184 270.995759 43.495 271.6044 43.495 
z
" style="stroke:#000000;stroke-linejoin:miter;stroke-width:0.9;"/>
   </g>
   <g id="patch_16">
    <path clip-path="url(#pb0b341d920)" d="M 65.1054 217.813 
C 65.714041 217.813 66.297836 217.571184 66.72821 217.14081 
C 67.158584 216.710436 67.4004 216.126641 67.4004 215.518 
C 67.4004 214.909359 67.158584 214.325564 66.72821 213.89519 
C 66.297836 213.464816 65.714041 213.223 65.1054 213.223 
C 64.496759 213.223 63.912964 213.464816 63.48259 213.89519 
C 63.052216 214.325564 62.8104 214.909359 62.8104 215.518 
C 62.8104 216.126641 63.052216 216.710436 63.48259 217.14081 
C 63.912964 217.571184 64.496759 217.813 65.1054 217.813 
z
" style="stroke:#000000;stroke-linejoin:miter;stroke-width:0.9;"/>
   </g>
   <g id="patch_17">
    <path clip-path="url(#pb0b341d920)" d="M 118.6044 119.995 
C 119.213041 119.995 119.796836 119.753184 120.22721 119.32281 
C 120.657584 118.892436 120.8994 118.308641 120.8994 117.7 
C 120.8994 117.091359 120.657584 116.507564 120.22721 116.07719 
C 119.796836 115.646816 119.213041 115.405 118.6044 115.405 
C 117.995759 115.405 117.411964 115.646816 116.98159 116.07719 
C 116.551216 116.507564 116.3094 117.091359 116.3094 117.7 
C 116.3094 118.308641 116.551216 118.892436 116.98159 119.32281 
C 117.411964 119.753184 117.995759 119.995 118.6044 119.995 
z
" style="stroke:#000000;stroke-linejoin:miter;stroke-width:0.9;"/>
   </g>
   <g id="patch_18">
    <path clip-path="url(#pb0b341d920)" d="M 195.1044 119.995 
C 195.713041 119.995 196.296836 119.753184 196.72721 119.32281 
C 197.157584 118.892436 197.3994 118.308641 197.3994 117.7 
C 197.3994 117.091359 197.157584 116.507564 196.72721 116.07719 
C 196.296836 115.646816 195.713041 115.405 195.1044 115.405 
C 194.495759 115.405 193.911964 115.646816 193.48159 116.07719 
C 193.051216 116.507564 192.8094 117.091359 192.8094 117.7 
C 192.8094 118.308641 193.051216 118.892436 193.48159 119.32281 
C 193.911964 119.753184 194.495759 119.995 195.1044 119.995 
z
" style="fill:#ffffff;stroke:#000000;stroke-linejoin:miter;stroke-width:0.9;"/>
   </g>
   <g id="patch_19">
    <path clip-path="url(#pb0b341d920)" d="M 424.6044 119.995 
C 425.213041 119.995 425.796836 119.753184 426.22721 119.32281 
C 426.657584 118.892436 426.8994 118.308641 426.8994 117.7 
C 426.8994 117.091359 426.657584 116.507564 426.22721 116.07719 
C 425.796836 115.646816 425.213041 115.405 424.6044 115.405 
C 423.995759 115.405 423.411964 115.646816 422.98159 116.07719 
C 422.551216 116.507564 422.3094 117.091359 422.3094 117.7 
C 422.3094 118.308641 422.551216 118.892436 422.98159 119.32281 
C 423.411964 119.753184 423.995759 119.995 424.6044 119.995 
z
" style="stroke:#000000;stroke-linejoin:miter;stroke-width:0.9;"/>
   </g>
   <g id="patch_20">
    <path clip-path="url(#pb0b341d920)" d="M 348.1044 119.995 
C 348.713041 119.995 349.296836 119.753184 349.72721 119.32281 
C 350.157584 118.892436 350.3994 118.308641 350.3994 117.7 
C 350.3994 117.091359 350.157584 116.507564 349.72721 116.07719 
C 349.296836 115.646816 348.713041 115.405 348.1044 115.405 
C 347.495759 115.405 346.911964 115.646816 346.48159 116.07719 
C 346.051216 116.507564 345.8094 117.091359 345.8094 117.7 
C 345.8094 118.308641 346.051216 118.892436 346.48159 119.32281 
C 346.911964 119.753184 347.495759 119.995 348.1044 119.995 
z
" style="fill:#ffffff;stroke:#000000;stroke-linejoin:miter;stroke-width:0.9;"/>
   </g>
   <g id="patch_21">
    <path clip-path="url(#pb0b341d920)" d="M 156.8544 277.381 
C 157.463041 277.381 158.046836 277.139184 158.47721 276.70881 
C 158.907584 276.278436 159.1494 275.694641 159.1494 275.086 
C 159.1494 274.477359 158.907584 273.893564 158.47721 273.46319 
C 158.046836 273.032816 157.463041 272.791 156.8544 272.791 
C 156.245759 272.791 155.661964 273.032816 155.23159 273.46319 
C 154.801216 273.893564 154.5594 274.477359 154.5594 275.086 
C 154.5594 275.694641 154.801216 276.278436 155.23159 276.70881 
C 155.661964 277.139184 156.245759 277.381 156.8544 277.381 
z
" style="stroke:#000000;stroke-linejoin:miter;stroke-width:0.9;"/>
   </g>
   <g id="patch_22">
    <path clip-path="url(#pb0b341d920)" d="M 271.6044 396.517 
C 272.213041 396.517 272.796836 396.275184 273.22721 395.84481 
C 273.657584 395.414436 273.8994 394.830641 273.8994 394.222 
C 273.8994 393.613359 273.657584 393.029564 273.22721 392.59919 
C 272.796836 392.168816 272.213041 391.927 271.6044 391.927 
C 270.995759 391.927 270.411964 392.168816 269.98159 392.59919 
C 269.551216 393.029564 269.3094 393.613359 269.3094 394.222 
C 269.3094 394.830641 269.551216 395.414436 269.98159 395.84481 
C 270.411964 396.275184 270.995759 396.517 271.6044 396.517 
z
" style="stroke:#000000;stroke-linejoin:miter;stroke-width:0.9;"/>
   </g>
   <g id="patch_23">
    <path clip-path="url(#pb0b341d920)" d="M 386.3544 277.381 
C 386.963041 277.381 387.546836 277.139184 387.97721 276.70881 
C 388.407584 276.278436 388.6494 275.694641 388.6494 275.086 
C 388.6494 274.477359 388.407584 273.893564 387.97721 273.46319 
C 387.546836 273.032816 386.963041 272.791 386.3544 272.791 
C 385.745759 272.791 385.161964 273.032816 384.73159 273.46319 
C 384.301216 273.893564 384.0594 274.477359 384.0594 275.086 
C 384.0594 275.694641 384.301216 276.278436 384.73159 276.70881 
C 385.161964 277.139184 385.745759 277.381 386.3544 277.381 
z
" style="stroke:#000000;stroke-linejoin:miter;stroke-width:0.9;"/>
   </g>
   <g id="patch_24">
    <path clip-path="url(#pb0b341d920)" d="M 118.6044 167.8075 
C 119.213041 167.8075 119.796836 167.565684 120.22721 167.13531 
C 120.657584 166.704936 120.8994 166.121141 120.8994 165.5125 
C 120.8994 164.903859 120.657584 164.320064 120.22721 163.88969 
C 119.796836 163.459316 119.213041 163.2175 118.6044 163.2175 
C 117.995759 163.2175 117.411964 163.459316 116.98159 163.88969 
C 116.551216 164.320064 116.3094 164.903859 116.3094 165.5125 
C 116.3094 166.121141 116.551216 166.704936 116.98159 167.13531 
C 117.411964 167.565684 117.995759 167.8075 118.6044 167.8075 
z
" style="stroke:#000000;stroke-linejoin:miter;stroke-width:0.9;"/>
   </g>
   <g id="patch_25">
    <path clip-path="url(#pb0b341d920)" d="M 19.1034 336.949 
C 19.712041 336.949 20.295836 336.707184 20.72621 336.27681 
C 21.156584 335.846436 21.3984 335.262641 21.3984 334.654 
C 21.3984 334.045359 21.156584 333.461564 20.72621 333.03119 
C 20.295836 332.600816 19.712041 332.359 19.1034 332.359 
C 18.494759 332.359 17.910964 332.600816 17.48059 333.03119 
C 17.050216 333.461564 16.8084 334.045359 16.8084 334.654 
C 16.8084 335.262641 17.050216 335.846436 17.48059 336.27681 
C 17.910964 336.707184 18.494759 336.949 19.1034 336.949 
z
" style="fill:#ffffff;stroke:#000000;stroke-linejoin:miter;stroke-width:0.9;"/>
   </g>
   <g id="patch_26">
    <path clip-path="url(#pb0b341d920)" d="M 424.6044 158.245 
C 425.213041 158.245 425.796836 158.003184 426.22721 157.57281 
C 426.657584 157.142436 426.8994 156.558641 426.8994 155.95 
C 426.8994 155.341359 426.657584 154.757564 426.22721 154.32719 
C 425.796836 153.896816 425.213041 153.655 424.6044 153.655 
C 423.995759 153.655 423.411964 153.896816 422.98159 154.32719 
C 422.551216 154.757564 422.3094 155.341359 422.3094 155.95 
C 422.3094 156.558641 422.551216 157.142436 422.98159 157.57281 
C 423.411964 158.003184 423.995759 158.245 424.6044 158.245 
z
" style="stroke:#000000;stroke-linejoin:miter;stroke-width:0.9;"/>
   </g>
   <g id="patch_27">
    <path clip-path="url(#pb0b341d920)" d="M 271.6554 217.813 
C 272.264041 217.813 272.847836 217.571184 273.27821 217.14081 
C 273.708584 216.710436 273.9504 216.126641 273.9504 215.518 
C 273.9504 214.909359 273.708584 214.325564 273.27821 213.89519 
C 272.847836 213.464816 272.264041 213.223 271.6554 213.223 
C 271.046759 213.223 270.462964 213.464816 270.03259 213.89519 
C 269.602216 214.325564 269.3604 214.909359 269.3604 215.518 
C 269.3604 216.126641 269.602216 216.710436 270.03259 217.14081 
C 270.462964 217.571184 271.046759 217.813 271.6554 217.813 
z
" style="stroke:#000000;stroke-linejoin:miter;stroke-width:0.9;"/>
   </g>
  </g>
 </g>
 <defs>
  <clipPath id="pb0b341d920">
   <rect height="494.462" width="481.7154" x="7.2" y="7.2"/>
  </clipPath>
 </defs>
</svg>
