<?xml version="1.0" encoding="utf-8" standalone="no"?>
<!DOCTYPE svg PUBLIC "-//W3C//DTD SVG 1.1//EN"
  "http://www.w3.org/Graphics/SVG/1.1/DTD/svg11.dtd">
<svg height="280.15625pt" version="1.1" viewBox="0 0 424.373437 280.15625" width="424.373437pt" xmlns="http://www.w3.org/2000/svg" xmlns:xlink="http://www.w3.org/1999/xlink">
 <metadata>
  <rdf:RDF xmlns:cc="http://creativecommons.org/ns#" xmlns:dc="http://purl.org/dc/elements/1.1/" xmlns:rdf="http://www.w3.org/1999/02/22-rdf-syntax-ns#">
   <cc:Work>
    <dc:type rdf:resource="http://purl.org/dc/dcmitype/StillImage"/>
    <dc:date>2021-06-07T11:23:32.270221</dc:date>
    <dc:format>image/svg+xml</dc:format>
    <dc:creator>
     <cc:Agent>
      <dc:title>Matplotlib v3.4.2, https://matplotlib.org/</dc:title>
     </cc:Agent>
    </dc:creator>
   </cc:Work>
  </rdf:RDF>
 </metadata>
 <defs>
  <style type="text/css">*{stroke-linecap:butt;stroke-linejoin:round;}</style>
 </defs>
 <g id="figure_1">
  <g id="patch_1">
   <path d="M 0 280.15625 
L 424.373437 280.15625 
L 424.373437 0 
L 0 0 
z
" style="fill:none;"/>
  </g>
  <g id="axes_1">
   <g id="patch_2">
    <path d="M 58.523438 242.6 
L 417.173437 242.6 
L 417.173437 7.2 
L 58.523438 7.2 
z
" style="fill:#ffffff;"/>
   </g>
   <g id="matplotlib.axis_1">
    <g id="xtick_1">
     <g id="line2d_1">
      <defs>
       <path d="M 0 0 
L 0 3.5 
" id="m239003bd76" style="stroke:#000000;stroke-width:0.8;"/>
      </defs>
      <g>
       <use style="stroke:#000000;stroke-width:0.8;" x="74.82571" xlink:href="#m239003bd76" y="242.6"/>
      </g>
     </g>
     <g id="text_1">
      <!-- 0.0 -->
      <g transform="translate(66.874148 257.198437)scale(0.1 -0.1)">
       <defs>
        <path d="M 2034 4250 
Q 1547 4250 1301 3770 
Q 1056 3291 1056 2328 
Q 1056 1369 1301 889 
Q 1547 409 2034 409 
Q 2525 409 2770 889 
Q 3016 1369 3016 2328 
Q 3016 3291 2770 3770 
Q 2525 4250 2034 4250 
z
M 2034 4750 
Q 2819 4750 3233 4129 
Q 3647 3509 3647 2328 
Q 3647 1150 3233 529 
Q 2819 -91 2034 -91 
Q 1250 -91 836 529 
Q 422 1150 422 2328 
Q 422 3509 836 4129 
Q 1250 4750 2034 4750 
z
" id="DejaVuSans-30" transform="scale(0.015625)"/>
        <path d="M 684 794 
L 1344 794 
L 1344 0 
L 684 0 
L 684 794 
z
" id="DejaVuSans-2e" transform="scale(0.015625)"/>
       </defs>
       <use xlink:href="#DejaVuSans-30"/>
       <use x="63.623047" xlink:href="#DejaVuSans-2e"/>
       <use x="95.410156" xlink:href="#DejaVuSans-30"/>
      </g>
     </g>
    </g>
    <g id="xtick_2">
     <g id="line2d_2">
      <g>
       <use style="stroke:#000000;stroke-width:0.8;" x="115.581392" xlink:href="#m239003bd76" y="242.6"/>
      </g>
     </g>
     <g id="text_2">
      <!-- 2.5 -->
      <g transform="translate(107.62983 257.198437)scale(0.1 -0.1)">
       <defs>
        <path d="M 1228 531 
L 3431 531 
L 3431 0 
L 469 0 
L 469 531 
Q 828 903 1448 1529 
Q 2069 2156 2228 2338 
Q 2531 2678 2651 2914 
Q 2772 3150 2772 3378 
Q 2772 3750 2511 3984 
Q 2250 4219 1831 4219 
Q 1534 4219 1204 4116 
Q 875 4013 500 3803 
L 500 4441 
Q 881 4594 1212 4672 
Q 1544 4750 1819 4750 
Q 2544 4750 2975 4387 
Q 3406 4025 3406 3419 
Q 3406 3131 3298 2873 
Q 3191 2616 2906 2266 
Q 2828 2175 2409 1742 
Q 1991 1309 1228 531 
z
" id="DejaVuSans-32" transform="scale(0.015625)"/>
        <path d="M 691 4666 
L 3169 4666 
L 3169 4134 
L 1269 4134 
L 1269 2991 
Q 1406 3038 1543 3061 
Q 1681 3084 1819 3084 
Q 2600 3084 3056 2656 
Q 3513 2228 3513 1497 
Q 3513 744 3044 326 
Q 2575 -91 1722 -91 
Q 1428 -91 1123 -41 
Q 819 9 494 109 
L 494 744 
Q 775 591 1075 516 
Q 1375 441 1709 441 
Q 2250 441 2565 725 
Q 2881 1009 2881 1497 
Q 2881 1984 2565 2268 
Q 2250 2553 1709 2553 
Q 1456 2553 1204 2497 
Q 953 2441 691 2322 
L 691 4666 
z
" id="DejaVuSans-35" transform="scale(0.015625)"/>
       </defs>
       <use xlink:href="#DejaVuSans-32"/>
       <use x="63.623047" xlink:href="#DejaVuSans-2e"/>
       <use x="95.410156" xlink:href="#DejaVuSans-35"/>
      </g>
     </g>
    </g>
    <g id="xtick_3">
     <g id="line2d_3">
      <g>
       <use style="stroke:#000000;stroke-width:0.8;" x="156.337074" xlink:href="#m239003bd76" y="242.6"/>
      </g>
     </g>
     <g id="text_3">
      <!-- 5.0 -->
      <g transform="translate(148.385511 257.198437)scale(0.1 -0.1)">
       <use xlink:href="#DejaVuSans-35"/>
       <use x="63.623047" xlink:href="#DejaVuSans-2e"/>
       <use x="95.410156" xlink:href="#DejaVuSans-30"/>
      </g>
     </g>
    </g>
    <g id="xtick_4">
     <g id="line2d_4">
      <g>
       <use style="stroke:#000000;stroke-width:0.8;" x="197.092756" xlink:href="#m239003bd76" y="242.6"/>
      </g>
     </g>
     <g id="text_4">
      <!-- 7.5 -->
      <g transform="translate(189.141193 257.198437)scale(0.1 -0.1)">
       <defs>
        <path d="M 525 4666 
L 3525 4666 
L 3525 4397 
L 1831 0 
L 1172 0 
L 2766 4134 
L 525 4134 
L 525 4666 
z
" id="DejaVuSans-37" transform="scale(0.015625)"/>
       </defs>
       <use xlink:href="#DejaVuSans-37"/>
       <use x="63.623047" xlink:href="#DejaVuSans-2e"/>
       <use x="95.410156" xlink:href="#DejaVuSans-35"/>
      </g>
     </g>
    </g>
    <g id="xtick_5">
     <g id="line2d_5">
      <g>
       <use style="stroke:#000000;stroke-width:0.8;" x="237.848437" xlink:href="#m239003bd76" y="242.6"/>
      </g>
     </g>
     <g id="text_5">
      <!-- 10.0 -->
      <g transform="translate(226.715625 257.198437)scale(0.1 -0.1)">
       <defs>
        <path d="M 794 531 
L 1825 531 
L 1825 4091 
L 703 3866 
L 703 4441 
L 1819 4666 
L 2450 4666 
L 2450 531 
L 3481 531 
L 3481 0 
L 794 0 
L 794 531 
z
" id="DejaVuSans-31" transform="scale(0.015625)"/>
       </defs>
       <use xlink:href="#DejaVuSans-31"/>
       <use x="63.623047" xlink:href="#DejaVuSans-30"/>
       <use x="127.246094" xlink:href="#DejaVuSans-2e"/>
       <use x="159.033203" xlink:href="#DejaVuSans-30"/>
      </g>
     </g>
    </g>
    <g id="xtick_6">
     <g id="line2d_6">
      <g>
       <use style="stroke:#000000;stroke-width:0.8;" x="278.604119" xlink:href="#m239003bd76" y="242.6"/>
      </g>
     </g>
     <g id="text_6">
      <!-- 12.5 -->
      <g transform="translate(267.471307 257.198437)scale(0.1 -0.1)">
       <use xlink:href="#DejaVuSans-31"/>
       <use x="63.623047" xlink:href="#DejaVuSans-32"/>
       <use x="127.246094" xlink:href="#DejaVuSans-2e"/>
       <use x="159.033203" xlink:href="#DejaVuSans-35"/>
      </g>
     </g>
    </g>
    <g id="xtick_7">
     <g id="line2d_7">
      <g>
       <use style="stroke:#000000;stroke-width:0.8;" x="319.359801" xlink:href="#m239003bd76" y="242.6"/>
      </g>
     </g>
     <g id="text_7">
      <!-- 15.0 -->
      <g transform="translate(308.226989 257.198437)scale(0.1 -0.1)">
       <use xlink:href="#DejaVuSans-31"/>
       <use x="63.623047" xlink:href="#DejaVuSans-35"/>
       <use x="127.246094" xlink:href="#DejaVuSans-2e"/>
       <use x="159.033203" xlink:href="#DejaVuSans-30"/>
      </g>
     </g>
    </g>
    <g id="xtick_8">
     <g id="line2d_8">
      <g>
       <use style="stroke:#000000;stroke-width:0.8;" x="360.115483" xlink:href="#m239003bd76" y="242.6"/>
      </g>
     </g>
     <g id="text_8">
      <!-- 17.5 -->
      <g transform="translate(348.98267 257.198437)scale(0.1 -0.1)">
       <use xlink:href="#DejaVuSans-31"/>
       <use x="63.623047" xlink:href="#DejaVuSans-37"/>
       <use x="127.246094" xlink:href="#DejaVuSans-2e"/>
       <use x="159.033203" xlink:href="#DejaVuSans-35"/>
      </g>
     </g>
    </g>
    <g id="xtick_9">
     <g id="line2d_9">
      <g>
       <use style="stroke:#000000;stroke-width:0.8;" x="400.871165" xlink:href="#m239003bd76" y="242.6"/>
      </g>
     </g>
     <g id="text_9">
      <!-- 20.0 -->
      <g transform="translate(389.738352 257.198437)scale(0.1 -0.1)">
       <use xlink:href="#DejaVuSans-32"/>
       <use x="63.623047" xlink:href="#DejaVuSans-30"/>
       <use x="127.246094" xlink:href="#DejaVuSans-2e"/>
       <use x="159.033203" xlink:href="#DejaVuSans-30"/>
      </g>
     </g>
    </g>
    <g id="text_10">
     <!-- time [ms] -->
     <g transform="translate(213.586719 270.876562)scale(0.1 -0.1)">
      <defs>
       <path d="M 1172 4494 
L 1172 3500 
L 2356 3500 
L 2356 3053 
L 1172 3053 
L 1172 1153 
Q 1172 725 1289 603 
Q 1406 481 1766 481 
L 2356 481 
L 2356 0 
L 1766 0 
Q 1100 0 847 248 
Q 594 497 594 1153 
L 594 3053 
L 172 3053 
L 172 3500 
L 594 3500 
L 594 4494 
L 1172 4494 
z
" id="DejaVuSans-74" transform="scale(0.015625)"/>
       <path d="M 603 3500 
L 1178 3500 
L 1178 0 
L 603 0 
L 603 3500 
z
M 603 4863 
L 1178 4863 
L 1178 4134 
L 603 4134 
L 603 4863 
z
" id="DejaVuSans-69" transform="scale(0.015625)"/>
       <path d="M 3328 2828 
Q 3544 3216 3844 3400 
Q 4144 3584 4550 3584 
Q 5097 3584 5394 3201 
Q 5691 2819 5691 2113 
L 5691 0 
L 5113 0 
L 5113 2094 
Q 5113 2597 4934 2840 
Q 4756 3084 4391 3084 
Q 3944 3084 3684 2787 
Q 3425 2491 3425 1978 
L 3425 0 
L 2847 0 
L 2847 2094 
Q 2847 2600 2669 2842 
Q 2491 3084 2119 3084 
Q 1678 3084 1418 2786 
Q 1159 2488 1159 1978 
L 1159 0 
L 581 0 
L 581 3500 
L 1159 3500 
L 1159 2956 
Q 1356 3278 1631 3431 
Q 1906 3584 2284 3584 
Q 2666 3584 2933 3390 
Q 3200 3197 3328 2828 
z
" id="DejaVuSans-6d" transform="scale(0.015625)"/>
       <path d="M 3597 1894 
L 3597 1613 
L 953 1613 
Q 991 1019 1311 708 
Q 1631 397 2203 397 
Q 2534 397 2845 478 
Q 3156 559 3463 722 
L 3463 178 
Q 3153 47 2828 -22 
Q 2503 -91 2169 -91 
Q 1331 -91 842 396 
Q 353 884 353 1716 
Q 353 2575 817 3079 
Q 1281 3584 2069 3584 
Q 2775 3584 3186 3129 
Q 3597 2675 3597 1894 
z
M 3022 2063 
Q 3016 2534 2758 2815 
Q 2500 3097 2075 3097 
Q 1594 3097 1305 2825 
Q 1016 2553 972 2059 
L 3022 2063 
z
" id="DejaVuSans-65" transform="scale(0.015625)"/>
       <path id="DejaVuSans-20" transform="scale(0.015625)"/>
       <path d="M 550 4863 
L 1875 4863 
L 1875 4416 
L 1125 4416 
L 1125 -397 
L 1875 -397 
L 1875 -844 
L 550 -844 
L 550 4863 
z
" id="DejaVuSans-5b" transform="scale(0.015625)"/>
       <path d="M 2834 3397 
L 2834 2853 
Q 2591 2978 2328 3040 
Q 2066 3103 1784 3103 
Q 1356 3103 1142 2972 
Q 928 2841 928 2578 
Q 928 2378 1081 2264 
Q 1234 2150 1697 2047 
L 1894 2003 
Q 2506 1872 2764 1633 
Q 3022 1394 3022 966 
Q 3022 478 2636 193 
Q 2250 -91 1575 -91 
Q 1294 -91 989 -36 
Q 684 19 347 128 
L 347 722 
Q 666 556 975 473 
Q 1284 391 1588 391 
Q 1994 391 2212 530 
Q 2431 669 2431 922 
Q 2431 1156 2273 1281 
Q 2116 1406 1581 1522 
L 1381 1569 
Q 847 1681 609 1914 
Q 372 2147 372 2553 
Q 372 3047 722 3315 
Q 1072 3584 1716 3584 
Q 2034 3584 2315 3537 
Q 2597 3491 2834 3397 
z
" id="DejaVuSans-73" transform="scale(0.015625)"/>
       <path d="M 1947 4863 
L 1947 -844 
L 622 -844 
L 622 -397 
L 1369 -397 
L 1369 4416 
L 622 4416 
L 622 4863 
L 1947 4863 
z
" id="DejaVuSans-5d" transform="scale(0.015625)"/>
      </defs>
      <use xlink:href="#DejaVuSans-74"/>
      <use x="39.208984" xlink:href="#DejaVuSans-69"/>
      <use x="66.992188" xlink:href="#DejaVuSans-6d"/>
      <use x="164.404297" xlink:href="#DejaVuSans-65"/>
      <use x="225.927734" xlink:href="#DejaVuSans-20"/>
      <use x="257.714844" xlink:href="#DejaVuSans-5b"/>
      <use x="296.728516" xlink:href="#DejaVuSans-6d"/>
      <use x="394.140625" xlink:href="#DejaVuSans-73"/>
      <use x="446.240234" xlink:href="#DejaVuSans-5d"/>
     </g>
    </g>
   </g>
   <g id="matplotlib.axis_2">
    <g id="ytick_1">
     <g id="line2d_10">
      <defs>
       <path d="M 0 0 
L -3.5 0 
" id="md986f5931b" style="stroke:#000000;stroke-width:0.8;"/>
      </defs>
      <g>
       <use style="stroke:#000000;stroke-width:0.8;" x="58.523438" xlink:href="#md986f5931b" y="231.900002"/>
      </g>
     </g>
     <g id="text_11">
      <!-- −1.00 -->
      <g transform="translate(20.878125 235.69922)scale(0.1 -0.1)">
       <defs>
        <path d="M 678 2272 
L 4684 2272 
L 4684 1741 
L 678 1741 
L 678 2272 
z
" id="DejaVuSans-2212" transform="scale(0.015625)"/>
       </defs>
       <use xlink:href="#DejaVuSans-2212"/>
       <use x="83.789062" xlink:href="#DejaVuSans-31"/>
       <use x="147.412109" xlink:href="#DejaVuSans-2e"/>
       <use x="179.199219" xlink:href="#DejaVuSans-30"/>
       <use x="242.822266" xlink:href="#DejaVuSans-30"/>
      </g>
     </g>
    </g>
    <g id="ytick_2">
     <g id="line2d_11">
      <g>
       <use style="stroke:#000000;stroke-width:0.8;" x="58.523438" xlink:href="#md986f5931b" y="205.159784"/>
      </g>
     </g>
     <g id="text_12">
      <!-- −0.75 -->
      <g transform="translate(20.878125 208.959002)scale(0.1 -0.1)">
       <use xlink:href="#DejaVuSans-2212"/>
       <use x="83.789062" xlink:href="#DejaVuSans-30"/>
       <use x="147.412109" xlink:href="#DejaVuSans-2e"/>
       <use x="179.199219" xlink:href="#DejaVuSans-37"/>
       <use x="242.822266" xlink:href="#DejaVuSans-35"/>
      </g>
     </g>
    </g>
    <g id="ytick_3">
     <g id="line2d_12">
      <g>
       <use style="stroke:#000000;stroke-width:0.8;" x="58.523438" xlink:href="#md986f5931b" y="178.419565"/>
      </g>
     </g>
     <g id="text_13">
      <!-- −0.50 -->
      <g transform="translate(20.878125 182.218784)scale(0.1 -0.1)">
       <use xlink:href="#DejaVuSans-2212"/>
       <use x="83.789062" xlink:href="#DejaVuSans-30"/>
       <use x="147.412109" xlink:href="#DejaVuSans-2e"/>
       <use x="179.199219" xlink:href="#DejaVuSans-35"/>
       <use x="242.822266" xlink:href="#DejaVuSans-30"/>
      </g>
     </g>
    </g>
    <g id="ytick_4">
     <g id="line2d_13">
      <g>
       <use style="stroke:#000000;stroke-width:0.8;" x="58.523438" xlink:href="#md986f5931b" y="151.679347"/>
      </g>
     </g>
     <g id="text_14">
      <!-- −0.25 -->
      <g transform="translate(20.878125 155.478566)scale(0.1 -0.1)">
       <use xlink:href="#DejaVuSans-2212"/>
       <use x="83.789062" xlink:href="#DejaVuSans-30"/>
       <use x="147.412109" xlink:href="#DejaVuSans-2e"/>
       <use x="179.199219" xlink:href="#DejaVuSans-32"/>
       <use x="242.822266" xlink:href="#DejaVuSans-35"/>
      </g>
     </g>
    </g>
    <g id="ytick_5">
     <g id="line2d_14">
      <g>
       <use style="stroke:#000000;stroke-width:0.8;" x="58.523438" xlink:href="#md986f5931b" y="124.939129"/>
      </g>
     </g>
     <g id="text_15">
      <!-- 0.00 -->
      <g transform="translate(29.257813 128.738348)scale(0.1 -0.1)">
       <use xlink:href="#DejaVuSans-30"/>
       <use x="63.623047" xlink:href="#DejaVuSans-2e"/>
       <use x="95.410156" xlink:href="#DejaVuSans-30"/>
       <use x="159.033203" xlink:href="#DejaVuSans-30"/>
      </g>
     </g>
    </g>
    <g id="ytick_6">
     <g id="line2d_15">
      <g>
       <use style="stroke:#000000;stroke-width:0.8;" x="58.523438" xlink:href="#md986f5931b" y="98.198911"/>
      </g>
     </g>
     <g id="text_16">
      <!-- 0.25 -->
      <g transform="translate(29.257813 101.99813)scale(0.1 -0.1)">
       <use xlink:href="#DejaVuSans-30"/>
       <use x="63.623047" xlink:href="#DejaVuSans-2e"/>
       <use x="95.410156" xlink:href="#DejaVuSans-32"/>
       <use x="159.033203" xlink:href="#DejaVuSans-35"/>
      </g>
     </g>
    </g>
    <g id="ytick_7">
     <g id="line2d_16">
      <g>
       <use style="stroke:#000000;stroke-width:0.8;" x="58.523438" xlink:href="#md986f5931b" y="71.458693"/>
      </g>
     </g>
     <g id="text_17">
      <!-- 0.50 -->
      <g transform="translate(29.257813 75.257912)scale(0.1 -0.1)">
       <use xlink:href="#DejaVuSans-30"/>
       <use x="63.623047" xlink:href="#DejaVuSans-2e"/>
       <use x="95.410156" xlink:href="#DejaVuSans-35"/>
       <use x="159.033203" xlink:href="#DejaVuSans-30"/>
      </g>
     </g>
    </g>
    <g id="ytick_8">
     <g id="line2d_17">
      <g>
       <use style="stroke:#000000;stroke-width:0.8;" x="58.523438" xlink:href="#md986f5931b" y="44.718475"/>
      </g>
     </g>
     <g id="text_18">
      <!-- 0.75 -->
      <g transform="translate(29.257813 48.517694)scale(0.1 -0.1)">
       <use xlink:href="#DejaVuSans-30"/>
       <use x="63.623047" xlink:href="#DejaVuSans-2e"/>
       <use x="95.410156" xlink:href="#DejaVuSans-37"/>
       <use x="159.033203" xlink:href="#DejaVuSans-35"/>
      </g>
     </g>
    </g>
    <g id="ytick_9">
     <g id="line2d_18">
      <g>
       <use style="stroke:#000000;stroke-width:0.8;" x="58.523438" xlink:href="#md986f5931b" y="17.978257"/>
      </g>
     </g>
     <g id="text_19">
      <!-- 1.00 -->
      <g transform="translate(29.257813 21.777475)scale(0.1 -0.1)">
       <use xlink:href="#DejaVuSans-31"/>
       <use x="63.623047" xlink:href="#DejaVuSans-2e"/>
       <use x="95.410156" xlink:href="#DejaVuSans-30"/>
       <use x="159.033203" xlink:href="#DejaVuSans-30"/>
      </g>
     </g>
    </g>
    <g id="text_20">
     <!-- amplitude [V] -->
     <g transform="translate(14.798438 159.077344)rotate(-90)scale(0.1 -0.1)">
      <defs>
       <path d="M 2194 1759 
Q 1497 1759 1228 1600 
Q 959 1441 959 1056 
Q 959 750 1161 570 
Q 1363 391 1709 391 
Q 2188 391 2477 730 
Q 2766 1069 2766 1631 
L 2766 1759 
L 2194 1759 
z
M 3341 1997 
L 3341 0 
L 2766 0 
L 2766 531 
Q 2569 213 2275 61 
Q 1981 -91 1556 -91 
Q 1019 -91 701 211 
Q 384 513 384 1019 
Q 384 1609 779 1909 
Q 1175 2209 1959 2209 
L 2766 2209 
L 2766 2266 
Q 2766 2663 2505 2880 
Q 2244 3097 1772 3097 
Q 1472 3097 1187 3025 
Q 903 2953 641 2809 
L 641 3341 
Q 956 3463 1253 3523 
Q 1550 3584 1831 3584 
Q 2591 3584 2966 3190 
Q 3341 2797 3341 1997 
z
" id="DejaVuSans-61" transform="scale(0.015625)"/>
       <path d="M 1159 525 
L 1159 -1331 
L 581 -1331 
L 581 3500 
L 1159 3500 
L 1159 2969 
Q 1341 3281 1617 3432 
Q 1894 3584 2278 3584 
Q 2916 3584 3314 3078 
Q 3713 2572 3713 1747 
Q 3713 922 3314 415 
Q 2916 -91 2278 -91 
Q 1894 -91 1617 61 
Q 1341 213 1159 525 
z
M 3116 1747 
Q 3116 2381 2855 2742 
Q 2594 3103 2138 3103 
Q 1681 3103 1420 2742 
Q 1159 2381 1159 1747 
Q 1159 1113 1420 752 
Q 1681 391 2138 391 
Q 2594 391 2855 752 
Q 3116 1113 3116 1747 
z
" id="DejaVuSans-70" transform="scale(0.015625)"/>
       <path d="M 603 4863 
L 1178 4863 
L 1178 0 
L 603 0 
L 603 4863 
z
" id="DejaVuSans-6c" transform="scale(0.015625)"/>
       <path d="M 544 1381 
L 544 3500 
L 1119 3500 
L 1119 1403 
Q 1119 906 1312 657 
Q 1506 409 1894 409 
Q 2359 409 2629 706 
Q 2900 1003 2900 1516 
L 2900 3500 
L 3475 3500 
L 3475 0 
L 2900 0 
L 2900 538 
Q 2691 219 2414 64 
Q 2138 -91 1772 -91 
Q 1169 -91 856 284 
Q 544 659 544 1381 
z
M 1991 3584 
L 1991 3584 
z
" id="DejaVuSans-75" transform="scale(0.015625)"/>
       <path d="M 2906 2969 
L 2906 4863 
L 3481 4863 
L 3481 0 
L 2906 0 
L 2906 525 
Q 2725 213 2448 61 
Q 2172 -91 1784 -91 
Q 1150 -91 751 415 
Q 353 922 353 1747 
Q 353 2572 751 3078 
Q 1150 3584 1784 3584 
Q 2172 3584 2448 3432 
Q 2725 3281 2906 2969 
z
M 947 1747 
Q 947 1113 1208 752 
Q 1469 391 1925 391 
Q 2381 391 2643 752 
Q 2906 1113 2906 1747 
Q 2906 2381 2643 2742 
Q 2381 3103 1925 3103 
Q 1469 3103 1208 2742 
Q 947 2381 947 1747 
z
" id="DejaVuSans-64" transform="scale(0.015625)"/>
       <path d="M 1831 0 
L 50 4666 
L 709 4666 
L 2188 738 
L 3669 4666 
L 4325 4666 
L 2547 0 
L 1831 0 
z
" id="DejaVuSans-56" transform="scale(0.015625)"/>
      </defs>
      <use xlink:href="#DejaVuSans-61"/>
      <use x="61.279297" xlink:href="#DejaVuSans-6d"/>
      <use x="158.691406" xlink:href="#DejaVuSans-70"/>
      <use x="222.167969" xlink:href="#DejaVuSans-6c"/>
      <use x="249.951172" xlink:href="#DejaVuSans-69"/>
      <use x="277.734375" xlink:href="#DejaVuSans-74"/>
      <use x="316.943359" xlink:href="#DejaVuSans-75"/>
      <use x="380.322266" xlink:href="#DejaVuSans-64"/>
      <use x="443.798828" xlink:href="#DejaVuSans-65"/>
      <use x="505.322266" xlink:href="#DejaVuSans-20"/>
      <use x="537.109375" xlink:href="#DejaVuSans-5b"/>
      <use x="576.123047" xlink:href="#DejaVuSans-56"/>
      <use x="644.53125" xlink:href="#DejaVuSans-5d"/>
     </g>
    </g>
   </g>
   <g id="line2d_19">
    <path clip-path="url(#pcea87a0963)" d="M 74.82571 124.939129 
L 82.557552 93.534572 
L 86.63312 77.92631 
L 89.991389 65.918911 
L 92.925798 56.228803 
L 95.566766 48.255038 
L 97.9632 41.704503 
L 100.164007 36.312512 
L 102.201791 31.887367 
L 104.092854 28.293525 
L 105.8535 25.408489 
L 107.500029 23.124777 
L 109.032443 21.367437 
L 110.467043 20.049506 
L 111.820132 19.100183 
L 113.108011 18.463893 
L 114.330682 18.102504 
L 115.520748 17.978549 
L 116.710814 18.079578 
L 117.900879 18.40538 
L 119.12355 18.973478 
L 120.395127 19.813851 
L 121.731914 20.969471 
L 123.150211 22.497156 
L 124.666323 24.468483 
L 126.280248 26.943674 
L 128.008289 30.013798 
L 129.866748 33.78497 
L 131.855625 38.338072 
L 134.007525 43.836344 
L 136.33875 50.420722 
L 138.881904 58.287353 
L 141.702198 67.756062 
L 144.897443 79.292839 
L 148.663268 93.763357 
L 153.651764 113.888792 
L 165.17747 160.682255 
L 169.024807 175.184016 
L 172.252657 186.512552 
L 175.105554 195.738127 
L 177.681314 203.335851 
L 180.028841 209.589725 
L 182.197043 214.751767 
L 184.202223 218.968515 
L 186.060682 222.375994 
L 187.788723 225.09635 
L 189.402648 227.236183 
L 190.918759 228.886018 
L 192.337057 230.108279 
L 193.673843 230.972732 
L 194.94542 231.533893 
L 196.168091 231.832084 
L 197.358157 231.894406 
L 198.548223 231.731754 
L 199.754591 231.337609 
L 200.993564 230.693441 
L 202.281443 229.768304 
L 203.634532 228.518203 
L 205.085434 226.864927 
L 206.617848 224.772889 
L 208.264377 222.137283 
L 210.025023 218.88639 
L 211.916086 214.91347 
L 213.95387 210.098184 
L 216.154677 204.308921 
L 218.551111 197.3575 
L 221.175777 189.038 
L 224.093884 179.022944 
L 227.419548 166.783481 
L 231.413604 151.195374 
L 237.200911 127.608254 
L 245.629186 93.341897 
L 249.688452 77.805616 
L 253.030418 65.862875 
L 255.964827 56.177311 
L 258.589493 48.255038 
L 260.985927 41.704503 
L 263.186734 36.312512 
L 265.224518 31.887367 
L 267.115582 28.293525 
L 268.876227 25.408489 
L 270.522757 23.124777 
L 272.05517 21.367437 
L 273.48977 20.049506 
L 274.842859 19.100183 
L 276.130738 18.463893 
L 277.353409 18.102504 
L 278.543475 17.978549 
L 279.733541 18.079578 
L 280.923607 18.40538 
L 282.146277 18.973478 
L 283.417854 19.813851 
L 284.754641 20.969471 
L 286.172938 22.497156 
L 287.68905 24.468483 
L 289.302975 26.943674 
L 291.031016 30.013798 
L 292.889475 33.78497 
L 294.878352 38.338072 
L 297.030252 43.836344 
L 299.361477 50.420722 
L 301.904632 58.287353 
L 304.724925 67.756062 
L 307.92017 79.292839 
L 311.685995 93.763357 
L 316.674491 113.888792 
L 328.200198 160.682255 
L 332.047534 175.184016 
L 335.275384 186.512552 
L 338.128282 195.738127 
L 340.704041 203.335851 
L 343.051568 209.589725 
L 345.21977 214.751767 
L 347.22495 218.968515 
L 349.083409 222.375994 
L 350.81145 225.09635 
L 352.425375 227.236183 
L 353.941486 228.886018 
L 355.359784 230.108279 
L 356.69657 230.972732 
L 357.968148 231.533893 
L 359.190818 231.832084 
L 360.380884 231.894406 
L 361.57095 231.731754 
L 362.777318 231.337609 
L 364.016291 230.693441 
L 365.30417 229.768304 
L 366.657259 228.518203 
L 368.108161 226.864927 
L 369.640575 224.772889 
L 371.287104 222.137283 
L 373.04775 218.88639 
L 374.938813 214.91347 
L 376.976598 210.098184 
L 379.177404 204.308921 
L 381.573838 197.3575 
L 384.198504 189.038 
L 387.116611 179.022944 
L 390.442275 166.783481 
L 394.436332 151.195374 
L 400.223638 127.608254 
L 400.871165 124.939129 
L 400.871165 124.939129 
" style="fill:none;stroke:#0000ff;stroke-linecap:square;stroke-width:1.5;"/>
   </g>
   <g id="line2d_20">
    <path clip-path="url(#pcea87a0963)" d="M 74.82571 124.939129 
L 74.895484 124.844684 
L 75.254134 124.567166 
L 75.580179 124.58929 
L 76.770245 124.938322 
L 91.344477 124.939669 
L 155.233084 125.047568 
L 155.934082 125.287103 
L 156.227523 125.082415 
L 156.553568 124.55174 
L 156.977427 123.375788 
L 157.531704 121.087044 
L 158.330516 116.71443 
L 160.303091 105.574454 
L 160.889973 103.539111 
L 161.297529 102.783916 
L 161.574668 102.641527 
L 161.8029 102.77682 
L 162.063736 103.234472 
L 162.406084 104.363027 
L 162.829943 106.647471 
L 163.335314 110.704239 
L 163.971102 117.791414 
L 164.835123 130.205018 
L 167.117441 164.195935 
L 167.851043 171.436427 
L 168.40532 174.944418 
L 168.812877 176.296725 
L 169.073714 176.566719 
L 169.253039 176.466354 
L 169.464968 176.033785 
L 169.758409 174.848192 
L 170.133361 172.290635 
L 170.589825 167.518436 
L 171.144102 159.213318 
L 171.828798 145.347464 
L 172.806934 120.424611 
L 174.649091 73.104089 
L 175.4316 58.813376 
L 176.034784 51.388854 
L 176.50755 47.958245 
L 176.833595 46.879905 
L 177.029223 46.755841 
L 177.175943 46.926603 
L 177.387873 47.580782 
L 177.681314 49.300796 
L 178.072568 53.1096 
L 178.545334 60.089009 
L 179.132216 72.38947 
L 179.849516 92.49137 
L 180.925466 129.833546 
L 182.523089 184.281396 
L 183.3219 204.028403 
L 183.941386 214.43692 
L 184.430454 219.425994 
L 184.789104 221.225831 
L 185.017336 221.537293 
L 185.147754 221.420137 
L 185.343382 220.837359 
L 185.62052 219.164723 
L 185.995473 215.292563 
L 186.451936 208.033744 
L 187.022516 195.014335 
L 187.723514 173.342889 
L 188.685348 135.82159 
L 190.657923 57.670878 
L 191.424129 36.552976 
L 192.027314 25.372645 
L 192.500079 20.110887 
L 192.858729 18.190932 
L 193.070659 17.9 
L 193.201077 18.033553 
L 193.396704 18.682015 
L 193.673843 20.525462 
L 194.048795 24.75668 
L 194.521561 32.953574 
L 195.092141 47.050221 
L 195.809441 70.831056 
L 196.820182 112.75866 
L 198.613432 187.360656 
L 199.395941 210.495598 
L 200.015427 222.863142 
L 200.504495 228.785358 
L 200.879448 231.043814 
L 201.107679 231.457908 
L 201.238098 231.370001 
L 201.417423 230.864986 
L 201.678259 229.338368 
L 202.036909 225.710313 
L 202.493373 218.543164 
L 203.04765 206.062588 
L 203.732345 185.27856 
L 204.661575 149.604031 
L 206.797173 65.334579 
L 207.547077 45.343462 
L 208.150261 34.705934 
L 208.623027 29.807574 
L 208.965375 28.109471 
L 209.193607 27.822461 
L 209.324025 27.957711 
L 209.519652 28.564354 
L 209.796791 30.244259 
L 210.171743 34.026259 
L 210.660811 41.513205 
L 211.263995 54.567681 
L 212.0139 76.058693 
L 213.171361 116.714143 
L 214.605961 165.377429 
L 215.38847 184.700765 
L 216.007957 195.039985 
L 216.513327 200.172906 
L 216.904582 202.182368 
L 217.165418 202.608182 
L 217.312139 202.536178 
L 217.507766 202.099232 
L 217.784904 200.8284 
L 218.159857 197.929084 
L 218.648925 192.189927 
L 219.252109 182.244676 
L 220.018316 165.609792 
L 221.224684 133.711651 
L 222.577773 99.607756 
L 223.343979 85.592347 
L 223.947163 78.191216 
L 224.436232 74.55915 
L 224.811184 73.137836 
L 225.07202 72.805674 
L 225.251345 72.874319 
L 225.463275 73.254288 
L 225.773018 74.364832 
L 226.180575 76.767185 
L 226.71855 81.429801 
L 227.403245 89.488463 
L 228.365079 103.752443 
L 230.337654 133.567407 
L 231.038652 140.708934 
L 231.609232 144.465984 
L 232.065695 146.161559 
L 232.408043 146.729826 
L 232.652577 146.80082 
L 232.897111 146.618247 
L 233.206854 146.059639 
L 233.630713 144.78411 
L 234.233898 142.168783 
L 235.179429 136.914646 
L 236.744448 128.287083 
L 237.396538 125.905861 
L 237.869304 124.910474 
L 238.244257 124.578159 
L 238.570302 124.577756 
L 239.972298 124.939152 
L 291.943943 124.938904 
L 318.239509 125.039687 
L 318.973111 125.282094 
L 319.266552 125.063634 
L 319.6089 124.480604 
L 320.032759 123.263445 
L 320.587036 120.92962 
L 321.418452 116.323336 
L 323.276911 105.786127 
L 323.880095 103.624912 
L 324.303954 102.802134 
L 324.581093 102.640852 
L 324.809325 102.759173 
L 325.070161 103.195969 
L 325.396207 104.228624 
L 325.803763 106.332188 
L 326.309134 110.248386 
L 326.92862 116.971063 
L 327.760036 128.68688 
L 330.254284 165.497434 
L 330.955282 172.06531 
L 331.493257 175.233826 
L 331.868209 176.356683 
L 332.112743 176.567408 
L 332.292068 176.445311 
L 332.5203 175.936203 
L 332.830043 174.582135 
L 333.221298 171.722103 
L 333.694063 166.469815 
L 334.264643 157.466207 
L 334.981943 142.309688 
L 336.074195 113.717433 
L 337.606609 74.508388 
L 338.40542 59.558303 
L 339.024907 51.70451 
L 339.497673 48.1248 
L 339.84002 46.908149 
L 340.05195 46.755841 
L 340.19867 46.926603 
L 340.4106 47.580782 
L 340.704041 49.300796 
L 341.095295 53.1096 
L 341.568061 60.089009 
L 342.154943 72.38947 
L 342.872243 92.49137 
L 343.948193 129.833546 
L 345.545816 184.281396 
L 346.344627 204.028403 
L 346.964113 214.43692 
L 347.453182 219.425994 
L 347.811832 221.225831 
L 348.040063 221.537293 
L 348.170482 221.420137 
L 348.366109 220.837359 
L 348.643248 219.164723 
L 349.0182 215.292563 
L 349.474663 208.033744 
L 350.045243 195.014335 
L 350.746241 173.342889 
L 351.708075 135.82159 
L 353.68065 57.670878 
L 354.446857 36.552976 
L 355.050041 25.372645 
L 355.522807 20.110887 
L 355.881457 18.190932 
L 356.093386 17.9 
L 356.223804 18.033553 
L 356.419432 18.682015 
L 356.69657 20.525462 
L 357.071523 24.75668 
L 357.544288 32.953574 
L 358.114868 47.050221 
L 358.832168 70.831056 
L 359.842909 112.75866 
L 361.636159 187.360656 
L 362.418668 210.495598 
L 363.038154 222.863142 
L 363.527223 228.785358 
L 363.902175 231.043814 
L 364.130407 231.457908 
L 364.260825 231.370001 
L 364.44015 230.864986 
L 364.700986 229.338368 
L 365.059636 225.710313 
L 365.5161 218.543164 
L 366.070377 206.062588 
L 366.755073 185.27856 
L 367.684302 149.604031 
L 369.8199 65.334579 
L 370.569804 45.343462 
L 371.172988 34.705934 
L 371.645754 29.807574 
L 371.988102 28.109471 
L 372.216334 27.822461 
L 372.346752 27.957711 
L 372.542379 28.564354 
L 372.819518 30.244259 
L 373.19447 34.026259 
L 373.683538 41.513205 
L 374.286723 54.567681 
L 375.036627 76.058693 
L 376.194088 116.714143 
L 377.628688 165.377429 
L 378.411198 184.700765 
L 379.030684 195.039985 
L 379.536054 200.172906 
L 379.927309 202.182368 
L 380.188145 202.608182 
L 380.334866 202.536178 
L 380.530493 202.099232 
L 380.807632 200.8284 
L 381.182584 197.929084 
L 381.671652 192.189927 
L 382.274836 182.244676 
L 383.041043 165.609792 
L 384.247411 133.711651 
L 385.6005 99.607756 
L 386.366707 85.592347 
L 386.969891 78.191216 
L 387.458959 74.55915 
L 387.833911 73.137836 
L 388.094748 72.805674 
L 388.274073 72.874319 
L 388.486002 73.254288 
L 388.795745 74.364832 
L 389.203302 76.767185 
L 389.741277 81.429801 
L 390.425973 89.488463 
L 391.387807 103.752443 
L 393.360382 133.567407 
L 394.061379 140.708934 
L 394.631959 144.465984 
L 395.088423 146.161559 
L 395.43077 146.729826 
L 395.675304 146.80082 
L 395.919838 146.618247 
L 396.229582 146.059639 
L 396.653441 144.78411 
L 397.256625 142.168783 
L 398.202157 136.914646 
L 399.767175 128.287083 
L 400.419266 125.905861 
L 400.871165 124.940655 
L 400.871165 124.940655 
" style="fill:none;stroke:#e97451;stroke-linecap:square;stroke-width:1.5;"/>
   </g>
   <g id="patch_3">
    <path d="M 58.523438 242.6 
L 58.523438 7.2 
" style="fill:none;stroke:#000000;stroke-linecap:square;stroke-linejoin:miter;stroke-width:0.8;"/>
   </g>
   <g id="patch_4">
    <path d="M 417.173437 242.6 
L 417.173437 7.2 
" style="fill:none;stroke:#000000;stroke-linecap:square;stroke-linejoin:miter;stroke-width:0.8;"/>
   </g>
   <g id="patch_5">
    <path d="M 58.523438 242.6 
L 417.173437 242.6 
" style="fill:none;stroke:#000000;stroke-linecap:square;stroke-linejoin:miter;stroke-width:0.8;"/>
   </g>
   <g id="patch_6">
    <path d="M 58.523438 7.2 
L 417.173437 7.2 
" style="fill:none;stroke:#000000;stroke-linecap:square;stroke-linejoin:miter;stroke-width:0.8;"/>
   </g>
   <g id="legend_1">
    <g id="patch_7">
     <path d="M 329.510937 54.28 
L 406.192187 54.28 
Q 408.192187 54.28 408.192187 52.28 
L 408.192187 23.3675 
Q 408.192187 21.3675 406.192187 21.3675 
L 329.510937 21.3675 
Q 327.510937 21.3675 327.510937 23.3675 
L 327.510937 52.28 
Q 327.510937 54.28 329.510937 54.28 
z
" style="fill:#ffffff;opacity:0.8;stroke:#cccccc;stroke-linejoin:miter;"/>
    </g>
    <g id="line2d_21">
     <path d="M 331.510937 29.465937 
L 351.510937 29.465937 
" style="fill:none;stroke:#0000ff;stroke-linecap:square;stroke-width:1.5;"/>
    </g>
    <g id="line2d_22"/>
    <g id="text_21">
     <!-- Vin_a [V] -->
     <g transform="translate(359.510937 32.965937)scale(0.1 -0.1)">
      <defs>
       <path d="M 3513 2113 
L 3513 0 
L 2938 0 
L 2938 2094 
Q 2938 2591 2744 2837 
Q 2550 3084 2163 3084 
Q 1697 3084 1428 2787 
Q 1159 2491 1159 1978 
L 1159 0 
L 581 0 
L 581 3500 
L 1159 3500 
L 1159 2956 
Q 1366 3272 1645 3428 
Q 1925 3584 2291 3584 
Q 2894 3584 3203 3211 
Q 3513 2838 3513 2113 
z
" id="DejaVuSans-6e" transform="scale(0.015625)"/>
       <path d="M 3263 -1063 
L 3263 -1509 
L -63 -1509 
L -63 -1063 
L 3263 -1063 
z
" id="DejaVuSans-5f" transform="scale(0.015625)"/>
      </defs>
      <use xlink:href="#DejaVuSans-56"/>
      <use x="66.158203" xlink:href="#DejaVuSans-69"/>
      <use x="93.941406" xlink:href="#DejaVuSans-6e"/>
      <use x="157.320312" xlink:href="#DejaVuSans-5f"/>
      <use x="207.320312" xlink:href="#DejaVuSans-61"/>
      <use x="268.599609" xlink:href="#DejaVuSans-20"/>
      <use x="300.386719" xlink:href="#DejaVuSans-5b"/>
      <use x="339.400391" xlink:href="#DejaVuSans-56"/>
      <use x="407.808594" xlink:href="#DejaVuSans-5d"/>
     </g>
    </g>
    <g id="line2d_23">
     <path d="M 331.510937 44.422187 
L 351.510937 44.422187 
" style="fill:none;stroke:#e97451;stroke-linecap:square;stroke-width:1.5;"/>
    </g>
    <g id="line2d_24"/>
    <g id="text_22">
     <!-- Vin_b -->
     <g transform="translate(359.510937 47.922187)scale(0.1 -0.1)">
      <defs>
       <path d="M 3116 1747 
Q 3116 2381 2855 2742 
Q 2594 3103 2138 3103 
Q 1681 3103 1420 2742 
Q 1159 2381 1159 1747 
Q 1159 1113 1420 752 
Q 1681 391 2138 391 
Q 2594 391 2855 752 
Q 3116 1113 3116 1747 
z
M 1159 2969 
Q 1341 3281 1617 3432 
Q 1894 3584 2278 3584 
Q 2916 3584 3314 3078 
Q 3713 2572 3713 1747 
Q 3713 922 3314 415 
Q 2916 -91 2278 -91 
Q 1894 -91 1617 61 
Q 1341 213 1159 525 
L 1159 0 
L 581 0 
L 581 4863 
L 1159 4863 
L 1159 2969 
z
" id="DejaVuSans-62" transform="scale(0.015625)"/>
      </defs>
      <use xlink:href="#DejaVuSans-56"/>
      <use x="66.158203" xlink:href="#DejaVuSans-69"/>
      <use x="93.941406" xlink:href="#DejaVuSans-6e"/>
      <use x="157.320312" xlink:href="#DejaVuSans-5f"/>
      <use x="207.320312" xlink:href="#DejaVuSans-62"/>
     </g>
    </g>
   </g>
  </g>
 </g>
 <defs>
  <clipPath id="pcea87a0963">
   <rect height="235.4" width="358.65" x="58.523438" y="7.2"/>
  </clipPath>
 </defs>
</svg>
