<?xml version="1.0" encoding="utf-8" standalone="no"?>
<!DOCTYPE svg PUBLIC "-//W3C//DTD SVG 1.1//EN"
  "http://www.w3.org/Graphics/SVG/1.1/DTD/svg11.dtd">
<!-- Created with matplotlib (https://matplotlib.org/) -->
<svg height="430.987807pt" version="1.1" viewBox="0 0 568.38125 430.987807" width="568.38125pt" xmlns="http://www.w3.org/2000/svg" xmlns:xlink="http://www.w3.org/1999/xlink">
 <metadata>
  <rdf:RDF xmlns:cc="http://creativecommons.org/ns#" xmlns:dc="http://purl.org/dc/elements/1.1/" xmlns:rdf="http://www.w3.org/1999/02/22-rdf-syntax-ns#">
   <cc:Work>
    <dc:type rdf:resource="http://purl.org/dc/dcmitype/StillImage"/>
    <dc:date>2021-03-28T13:08:29.339902</dc:date>
    <dc:format>image/svg+xml</dc:format>
    <dc:creator>
     <cc:Agent>
      <dc:title>Matplotlib v3.3.4, https://matplotlib.org/</dc:title>
     </cc:Agent>
    </dc:creator>
   </cc:Work>
  </rdf:RDF>
 </metadata>
 <defs>
  <style type="text/css">*{stroke-linecap:butt;stroke-linejoin:round;}</style>
 </defs>
 <g id="figure_1">
  <g id="patch_1">
   <path d="M 0 430.987807 
L 568.38125 430.987807 
L 568.38125 0 
L 0 0 
z
" style="fill:none;"/>
  </g>
  <g id="axes_1">
   <g id="patch_2">
    <path d="M 43.78125 177.761818 
L 561.18125 177.761818 
L 561.18125 7.2 
L 43.78125 7.2 
z
" style="fill:#ffffff;"/>
   </g>
   <g id="matplotlib.axis_1">
    <g id="xtick_1">
     <g id="line2d_1">
      <path clip-path="url(#pefc0cffa7f)" d="M 67.299432 177.761818 
L 67.299432 7.2 
" style="fill:none;stroke:#b0b0b0;stroke-linecap:square;stroke-width:0.8;"/>
     </g>
     <g id="line2d_2">
      <defs>
       <path d="M 0 0 
L 0 3.5 
" id="mfb994fde91" style="stroke:#000000;stroke-width:0.8;"/>
      </defs>
      <g>
       <use style="stroke:#000000;stroke-width:0.8;" x="67.299432" xlink:href="#mfb994fde91" y="177.761818"/>
      </g>
     </g>
     <g id="text_1">
      <!-- 0.000 -->
      <g transform="translate(52.985369 192.360256)scale(0.1 -0.1)">
       <defs>
        <path d="M 31.78125 66.40625 
Q 24.171875 66.40625 20.328125 58.90625 
Q 16.5 51.421875 16.5 36.375 
Q 16.5 21.390625 20.328125 13.890625 
Q 24.171875 6.390625 31.78125 6.390625 
Q 39.453125 6.390625 43.28125 13.890625 
Q 47.125 21.390625 47.125 36.375 
Q 47.125 51.421875 43.28125 58.90625 
Q 39.453125 66.40625 31.78125 66.40625 
z
M 31.78125 74.21875 
Q 44.046875 74.21875 50.515625 64.515625 
Q 56.984375 54.828125 56.984375 36.375 
Q 56.984375 17.96875 50.515625 8.265625 
Q 44.046875 -1.421875 31.78125 -1.421875 
Q 19.53125 -1.421875 13.0625 8.265625 
Q 6.59375 17.96875 6.59375 36.375 
Q 6.59375 54.828125 13.0625 64.515625 
Q 19.53125 74.21875 31.78125 74.21875 
z
" id="DejaVuSans-48"/>
        <path d="M 10.6875 12.40625 
L 21 12.40625 
L 21 0 
L 10.6875 0 
z
" id="DejaVuSans-46"/>
       </defs>
       <use xlink:href="#DejaVuSans-48"/>
       <use x="63.623047" xlink:href="#DejaVuSans-46"/>
       <use x="95.410156" xlink:href="#DejaVuSans-48"/>
       <use x="159.033203" xlink:href="#DejaVuSans-48"/>
       <use x="222.65625" xlink:href="#DejaVuSans-48"/>
      </g>
     </g>
    </g>
    <g id="xtick_2">
     <g id="line2d_3">
      <path clip-path="url(#pefc0cffa7f)" d="M 161.844886 177.761818 
L 161.844886 7.2 
" style="fill:none;stroke:#b0b0b0;stroke-linecap:square;stroke-width:0.8;"/>
     </g>
     <g id="line2d_4">
      <g>
       <use style="stroke:#000000;stroke-width:0.8;" x="161.844886" xlink:href="#mfb994fde91" y="177.761818"/>
      </g>
     </g>
     <g id="text_2">
      <!-- 0.002 -->
      <g transform="translate(147.530824 192.360256)scale(0.1 -0.1)">
       <defs>
        <path d="M 19.1875 8.296875 
L 53.609375 8.296875 
L 53.609375 0 
L 7.328125 0 
L 7.328125 8.296875 
Q 12.9375 14.109375 22.625 23.890625 
Q 32.328125 33.6875 34.8125 36.53125 
Q 39.546875 41.84375 41.421875 45.53125 
Q 43.3125 49.21875 43.3125 52.78125 
Q 43.3125 58.59375 39.234375 62.25 
Q 35.15625 65.921875 28.609375 65.921875 
Q 23.96875 65.921875 18.8125 64.3125 
Q 13.671875 62.703125 7.8125 59.421875 
L 7.8125 69.390625 
Q 13.765625 71.78125 18.9375 73 
Q 24.125 74.21875 28.421875 74.21875 
Q 39.75 74.21875 46.484375 68.546875 
Q 53.21875 62.890625 53.21875 53.421875 
Q 53.21875 48.921875 51.53125 44.890625 
Q 49.859375 40.875 45.40625 35.40625 
Q 44.1875 33.984375 37.640625 27.21875 
Q 31.109375 20.453125 19.1875 8.296875 
z
" id="DejaVuSans-50"/>
       </defs>
       <use xlink:href="#DejaVuSans-48"/>
       <use x="63.623047" xlink:href="#DejaVuSans-46"/>
       <use x="95.410156" xlink:href="#DejaVuSans-48"/>
       <use x="159.033203" xlink:href="#DejaVuSans-48"/>
       <use x="222.65625" xlink:href="#DejaVuSans-50"/>
      </g>
     </g>
    </g>
    <g id="xtick_3">
     <g id="line2d_5">
      <path clip-path="url(#pefc0cffa7f)" d="M 256.390341 177.761818 
L 256.390341 7.2 
" style="fill:none;stroke:#b0b0b0;stroke-linecap:square;stroke-width:0.8;"/>
     </g>
     <g id="line2d_6">
      <g>
       <use style="stroke:#000000;stroke-width:0.8;" x="256.390341" xlink:href="#mfb994fde91" y="177.761818"/>
      </g>
     </g>
     <g id="text_3">
      <!-- 0.004 -->
      <g transform="translate(242.076278 192.360256)scale(0.1 -0.1)">
       <defs>
        <path d="M 37.796875 64.3125 
L 12.890625 25.390625 
L 37.796875 25.390625 
z
M 35.203125 72.90625 
L 47.609375 72.90625 
L 47.609375 25.390625 
L 58.015625 25.390625 
L 58.015625 17.1875 
L 47.609375 17.1875 
L 47.609375 0 
L 37.796875 0 
L 37.796875 17.1875 
L 4.890625 17.1875 
L 4.890625 26.703125 
z
" id="DejaVuSans-52"/>
       </defs>
       <use xlink:href="#DejaVuSans-48"/>
       <use x="63.623047" xlink:href="#DejaVuSans-46"/>
       <use x="95.410156" xlink:href="#DejaVuSans-48"/>
       <use x="159.033203" xlink:href="#DejaVuSans-48"/>
       <use x="222.65625" xlink:href="#DejaVuSans-52"/>
      </g>
     </g>
    </g>
    <g id="xtick_4">
     <g id="line2d_7">
      <path clip-path="url(#pefc0cffa7f)" d="M 350.935795 177.761818 
L 350.935795 7.2 
" style="fill:none;stroke:#b0b0b0;stroke-linecap:square;stroke-width:0.8;"/>
     </g>
     <g id="line2d_8">
      <g>
       <use style="stroke:#000000;stroke-width:0.8;" x="350.935795" xlink:href="#mfb994fde91" y="177.761818"/>
      </g>
     </g>
     <g id="text_4">
      <!-- 0.006 -->
      <g transform="translate(336.621733 192.360256)scale(0.1 -0.1)">
       <defs>
        <path d="M 33.015625 40.375 
Q 26.375 40.375 22.484375 35.828125 
Q 18.609375 31.296875 18.609375 23.390625 
Q 18.609375 15.53125 22.484375 10.953125 
Q 26.375 6.390625 33.015625 6.390625 
Q 39.65625 6.390625 43.53125 10.953125 
Q 47.40625 15.53125 47.40625 23.390625 
Q 47.40625 31.296875 43.53125 35.828125 
Q 39.65625 40.375 33.015625 40.375 
z
M 52.59375 71.296875 
L 52.59375 62.3125 
Q 48.875 64.0625 45.09375 64.984375 
Q 41.3125 65.921875 37.59375 65.921875 
Q 27.828125 65.921875 22.671875 59.328125 
Q 17.53125 52.734375 16.796875 39.40625 
Q 19.671875 43.65625 24.015625 45.921875 
Q 28.375 48.1875 33.59375 48.1875 
Q 44.578125 48.1875 50.953125 41.515625 
Q 57.328125 34.859375 57.328125 23.390625 
Q 57.328125 12.15625 50.6875 5.359375 
Q 44.046875 -1.421875 33.015625 -1.421875 
Q 20.359375 -1.421875 13.671875 8.265625 
Q 6.984375 17.96875 6.984375 36.375 
Q 6.984375 53.65625 15.1875 63.9375 
Q 23.390625 74.21875 37.203125 74.21875 
Q 40.921875 74.21875 44.703125 73.484375 
Q 48.484375 72.75 52.59375 71.296875 
z
" id="DejaVuSans-54"/>
       </defs>
       <use xlink:href="#DejaVuSans-48"/>
       <use x="63.623047" xlink:href="#DejaVuSans-46"/>
       <use x="95.410156" xlink:href="#DejaVuSans-48"/>
       <use x="159.033203" xlink:href="#DejaVuSans-48"/>
       <use x="222.65625" xlink:href="#DejaVuSans-54"/>
      </g>
     </g>
    </g>
    <g id="xtick_5">
     <g id="line2d_9">
      <path clip-path="url(#pefc0cffa7f)" d="M 445.48125 177.761818 
L 445.48125 7.2 
" style="fill:none;stroke:#b0b0b0;stroke-linecap:square;stroke-width:0.8;"/>
     </g>
     <g id="line2d_10">
      <g>
       <use style="stroke:#000000;stroke-width:0.8;" x="445.48125" xlink:href="#mfb994fde91" y="177.761818"/>
      </g>
     </g>
     <g id="text_5">
      <!-- 0.008 -->
      <g transform="translate(431.167188 192.360256)scale(0.1 -0.1)">
       <defs>
        <path d="M 31.78125 34.625 
Q 24.75 34.625 20.71875 30.859375 
Q 16.703125 27.09375 16.703125 20.515625 
Q 16.703125 13.921875 20.71875 10.15625 
Q 24.75 6.390625 31.78125 6.390625 
Q 38.8125 6.390625 42.859375 10.171875 
Q 46.921875 13.96875 46.921875 20.515625 
Q 46.921875 27.09375 42.890625 30.859375 
Q 38.875 34.625 31.78125 34.625 
z
M 21.921875 38.8125 
Q 15.578125 40.375 12.03125 44.71875 
Q 8.5 49.078125 8.5 55.328125 
Q 8.5 64.0625 14.71875 69.140625 
Q 20.953125 74.21875 31.78125 74.21875 
Q 42.671875 74.21875 48.875 69.140625 
Q 55.078125 64.0625 55.078125 55.328125 
Q 55.078125 49.078125 51.53125 44.71875 
Q 48 40.375 41.703125 38.8125 
Q 48.828125 37.15625 52.796875 32.3125 
Q 56.78125 27.484375 56.78125 20.515625 
Q 56.78125 9.90625 50.3125 4.234375 
Q 43.84375 -1.421875 31.78125 -1.421875 
Q 19.734375 -1.421875 13.25 4.234375 
Q 6.78125 9.90625 6.78125 20.515625 
Q 6.78125 27.484375 10.78125 32.3125 
Q 14.796875 37.15625 21.921875 38.8125 
z
M 18.3125 54.390625 
Q 18.3125 48.734375 21.84375 45.5625 
Q 25.390625 42.390625 31.78125 42.390625 
Q 38.140625 42.390625 41.71875 45.5625 
Q 45.3125 48.734375 45.3125 54.390625 
Q 45.3125 60.0625 41.71875 63.234375 
Q 38.140625 66.40625 31.78125 66.40625 
Q 25.390625 66.40625 21.84375 63.234375 
Q 18.3125 60.0625 18.3125 54.390625 
z
" id="DejaVuSans-56"/>
       </defs>
       <use xlink:href="#DejaVuSans-48"/>
       <use x="63.623047" xlink:href="#DejaVuSans-46"/>
       <use x="95.410156" xlink:href="#DejaVuSans-48"/>
       <use x="159.033203" xlink:href="#DejaVuSans-48"/>
       <use x="222.65625" xlink:href="#DejaVuSans-56"/>
      </g>
     </g>
    </g>
    <g id="xtick_6">
     <g id="line2d_11">
      <path clip-path="url(#pefc0cffa7f)" d="M 540.026705 177.761818 
L 540.026705 7.2 
" style="fill:none;stroke:#b0b0b0;stroke-linecap:square;stroke-width:0.8;"/>
     </g>
     <g id="line2d_12">
      <g>
       <use style="stroke:#000000;stroke-width:0.8;" x="540.026705" xlink:href="#mfb994fde91" y="177.761818"/>
      </g>
     </g>
     <g id="text_6">
      <!-- 0.010 -->
      <g transform="translate(525.712642 192.360256)scale(0.1 -0.1)">
       <defs>
        <path d="M 12.40625 8.296875 
L 28.515625 8.296875 
L 28.515625 63.921875 
L 10.984375 60.40625 
L 10.984375 69.390625 
L 28.421875 72.90625 
L 38.28125 72.90625 
L 38.28125 8.296875 
L 54.390625 8.296875 
L 54.390625 0 
L 12.40625 0 
z
" id="DejaVuSans-49"/>
       </defs>
       <use xlink:href="#DejaVuSans-48"/>
       <use x="63.623047" xlink:href="#DejaVuSans-46"/>
       <use x="95.410156" xlink:href="#DejaVuSans-48"/>
       <use x="159.033203" xlink:href="#DejaVuSans-49"/>
       <use x="222.65625" xlink:href="#DejaVuSans-48"/>
      </g>
     </g>
    </g>
   </g>
   <g id="matplotlib.axis_2">
    <g id="ytick_1">
     <g id="line2d_13">
      <path clip-path="url(#pefc0cffa7f)" d="M 43.78125 137.075813 
L 561.18125 137.075813 
" style="fill:none;stroke:#b0b0b0;stroke-linecap:square;stroke-width:0.8;"/>
     </g>
     <g id="line2d_14">
      <defs>
       <path d="M 0 0 
L -3.5 0 
" id="m66c47c7fca" style="stroke:#000000;stroke-width:0.8;"/>
      </defs>
      <g>
       <use style="stroke:#000000;stroke-width:0.8;" x="43.78125" xlink:href="#m66c47c7fca" y="137.075813"/>
      </g>
     </g>
     <g id="text_7">
      <!-- −1 -->
      <g transform="translate(22.039063 140.875032)scale(0.1 -0.1)">
       <defs>
        <path d="M 10.59375 35.5 
L 73.1875 35.5 
L 73.1875 27.203125 
L 10.59375 27.203125 
z
" id="DejaVuSans-8722"/>
       </defs>
       <use xlink:href="#DejaVuSans-8722"/>
       <use x="83.789062" xlink:href="#DejaVuSans-49"/>
      </g>
     </g>
    </g>
    <g id="ytick_2">
     <g id="line2d_15">
      <path clip-path="url(#pefc0cffa7f)" d="M 43.78125 96.368145 
L 561.18125 96.368145 
" style="fill:none;stroke:#b0b0b0;stroke-linecap:square;stroke-width:0.8;"/>
     </g>
     <g id="line2d_16">
      <g>
       <use style="stroke:#000000;stroke-width:0.8;" x="43.78125" xlink:href="#m66c47c7fca" y="96.368145"/>
      </g>
     </g>
     <g id="text_8">
      <!-- 0 -->
      <g transform="translate(30.41875 100.167364)scale(0.1 -0.1)">
       <use xlink:href="#DejaVuSans-48"/>
      </g>
     </g>
    </g>
    <g id="ytick_3">
     <g id="line2d_17">
      <path clip-path="url(#pefc0cffa7f)" d="M 43.78125 55.660478 
L 561.18125 55.660478 
" style="fill:none;stroke:#b0b0b0;stroke-linecap:square;stroke-width:0.8;"/>
     </g>
     <g id="line2d_18">
      <g>
       <use style="stroke:#000000;stroke-width:0.8;" x="43.78125" xlink:href="#m66c47c7fca" y="55.660478"/>
      </g>
     </g>
     <g id="text_9">
      <!-- 1 -->
      <g transform="translate(30.41875 59.459696)scale(0.1 -0.1)">
       <use xlink:href="#DejaVuSans-49"/>
      </g>
     </g>
    </g>
    <g id="ytick_4">
     <g id="line2d_19">
      <path clip-path="url(#pefc0cffa7f)" d="M 43.78125 14.95281 
L 561.18125 14.95281 
" style="fill:none;stroke:#b0b0b0;stroke-linecap:square;stroke-width:0.8;"/>
     </g>
     <g id="line2d_20">
      <g>
       <use style="stroke:#000000;stroke-width:0.8;" x="43.78125" xlink:href="#m66c47c7fca" y="14.95281"/>
      </g>
     </g>
     <g id="text_10">
      <!-- 2 -->
      <g transform="translate(30.41875 18.752029)scale(0.1 -0.1)">
       <use xlink:href="#DejaVuSans-50"/>
      </g>
     </g>
    </g>
    <g id="text_11">
     <!-- amplitude -->
     <g transform="translate(15.959375 117.747315)rotate(-90)scale(0.1 -0.1)">
      <defs>
       <path d="M 34.28125 27.484375 
Q 23.390625 27.484375 19.1875 25 
Q 14.984375 22.515625 14.984375 16.5 
Q 14.984375 11.71875 18.140625 8.90625 
Q 21.296875 6.109375 26.703125 6.109375 
Q 34.1875 6.109375 38.703125 11.40625 
Q 43.21875 16.703125 43.21875 25.484375 
L 43.21875 27.484375 
z
M 52.203125 31.203125 
L 52.203125 0 
L 43.21875 0 
L 43.21875 8.296875 
Q 40.140625 3.328125 35.546875 0.953125 
Q 30.953125 -1.421875 24.3125 -1.421875 
Q 15.921875 -1.421875 10.953125 3.296875 
Q 6 8.015625 6 15.921875 
Q 6 25.140625 12.171875 29.828125 
Q 18.359375 34.515625 30.609375 34.515625 
L 43.21875 34.515625 
L 43.21875 35.40625 
Q 43.21875 41.609375 39.140625 45 
Q 35.0625 48.390625 27.6875 48.390625 
Q 23 48.390625 18.546875 47.265625 
Q 14.109375 46.140625 10.015625 43.890625 
L 10.015625 52.203125 
Q 14.9375 54.109375 19.578125 55.046875 
Q 24.21875 56 28.609375 56 
Q 40.484375 56 46.34375 49.84375 
Q 52.203125 43.703125 52.203125 31.203125 
z
" id="DejaVuSans-97"/>
       <path d="M 52 44.1875 
Q 55.375 50.25 60.0625 53.125 
Q 64.75 56 71.09375 56 
Q 79.640625 56 84.28125 50.015625 
Q 88.921875 44.046875 88.921875 33.015625 
L 88.921875 0 
L 79.890625 0 
L 79.890625 32.71875 
Q 79.890625 40.578125 77.09375 44.375 
Q 74.3125 48.1875 68.609375 48.1875 
Q 61.625 48.1875 57.5625 43.546875 
Q 53.515625 38.921875 53.515625 30.90625 
L 53.515625 0 
L 44.484375 0 
L 44.484375 32.71875 
Q 44.484375 40.625 41.703125 44.40625 
Q 38.921875 48.1875 33.109375 48.1875 
Q 26.21875 48.1875 22.15625 43.53125 
Q 18.109375 38.875 18.109375 30.90625 
L 18.109375 0 
L 9.078125 0 
L 9.078125 54.6875 
L 18.109375 54.6875 
L 18.109375 46.1875 
Q 21.1875 51.21875 25.484375 53.609375 
Q 29.78125 56 35.6875 56 
Q 41.65625 56 45.828125 52.96875 
Q 50 49.953125 52 44.1875 
z
" id="DejaVuSans-109"/>
       <path d="M 18.109375 8.203125 
L 18.109375 -20.796875 
L 9.078125 -20.796875 
L 9.078125 54.6875 
L 18.109375 54.6875 
L 18.109375 46.390625 
Q 20.953125 51.265625 25.265625 53.625 
Q 29.59375 56 35.59375 56 
Q 45.5625 56 51.78125 48.09375 
Q 58.015625 40.1875 58.015625 27.296875 
Q 58.015625 14.40625 51.78125 6.484375 
Q 45.5625 -1.421875 35.59375 -1.421875 
Q 29.59375 -1.421875 25.265625 0.953125 
Q 20.953125 3.328125 18.109375 8.203125 
z
M 48.6875 27.296875 
Q 48.6875 37.203125 44.609375 42.84375 
Q 40.53125 48.484375 33.40625 48.484375 
Q 26.265625 48.484375 22.1875 42.84375 
Q 18.109375 37.203125 18.109375 27.296875 
Q 18.109375 17.390625 22.1875 11.75 
Q 26.265625 6.109375 33.40625 6.109375 
Q 40.53125 6.109375 44.609375 11.75 
Q 48.6875 17.390625 48.6875 27.296875 
z
" id="DejaVuSans-112"/>
       <path d="M 9.421875 75.984375 
L 18.40625 75.984375 
L 18.40625 0 
L 9.421875 0 
z
" id="DejaVuSans-108"/>
       <path d="M 9.421875 54.6875 
L 18.40625 54.6875 
L 18.40625 0 
L 9.421875 0 
z
M 9.421875 75.984375 
L 18.40625 75.984375 
L 18.40625 64.59375 
L 9.421875 64.59375 
z
" id="DejaVuSans-105"/>
       <path d="M 18.3125 70.21875 
L 18.3125 54.6875 
L 36.8125 54.6875 
L 36.8125 47.703125 
L 18.3125 47.703125 
L 18.3125 18.015625 
Q 18.3125 11.328125 20.140625 9.421875 
Q 21.96875 7.515625 27.59375 7.515625 
L 36.8125 7.515625 
L 36.8125 0 
L 27.59375 0 
Q 17.1875 0 13.234375 3.875 
Q 9.28125 7.765625 9.28125 18.015625 
L 9.28125 47.703125 
L 2.6875 47.703125 
L 2.6875 54.6875 
L 9.28125 54.6875 
L 9.28125 70.21875 
z
" id="DejaVuSans-116"/>
       <path d="M 8.5 21.578125 
L 8.5 54.6875 
L 17.484375 54.6875 
L 17.484375 21.921875 
Q 17.484375 14.15625 20.5 10.265625 
Q 23.53125 6.390625 29.59375 6.390625 
Q 36.859375 6.390625 41.078125 11.03125 
Q 45.3125 15.671875 45.3125 23.6875 
L 45.3125 54.6875 
L 54.296875 54.6875 
L 54.296875 0 
L 45.3125 0 
L 45.3125 8.40625 
Q 42.046875 3.421875 37.71875 1 
Q 33.40625 -1.421875 27.6875 -1.421875 
Q 18.265625 -1.421875 13.375 4.4375 
Q 8.5 10.296875 8.5 21.578125 
z
M 31.109375 56 
z
" id="DejaVuSans-117"/>
       <path d="M 45.40625 46.390625 
L 45.40625 75.984375 
L 54.390625 75.984375 
L 54.390625 0 
L 45.40625 0 
L 45.40625 8.203125 
Q 42.578125 3.328125 38.25 0.953125 
Q 33.9375 -1.421875 27.875 -1.421875 
Q 17.96875 -1.421875 11.734375 6.484375 
Q 5.515625 14.40625 5.515625 27.296875 
Q 5.515625 40.1875 11.734375 48.09375 
Q 17.96875 56 27.875 56 
Q 33.9375 56 38.25 53.625 
Q 42.578125 51.265625 45.40625 46.390625 
z
M 14.796875 27.296875 
Q 14.796875 17.390625 18.875 11.75 
Q 22.953125 6.109375 30.078125 6.109375 
Q 37.203125 6.109375 41.296875 11.75 
Q 45.40625 17.390625 45.40625 27.296875 
Q 45.40625 37.203125 41.296875 42.84375 
Q 37.203125 48.484375 30.078125 48.484375 
Q 22.953125 48.484375 18.875 42.84375 
Q 14.796875 37.203125 14.796875 27.296875 
z
" id="DejaVuSans-100"/>
       <path d="M 56.203125 29.59375 
L 56.203125 25.203125 
L 14.890625 25.203125 
Q 15.484375 15.921875 20.484375 11.0625 
Q 25.484375 6.203125 34.421875 6.203125 
Q 39.59375 6.203125 44.453125 7.46875 
Q 49.3125 8.734375 54.109375 11.28125 
L 54.109375 2.78125 
Q 49.265625 0.734375 44.1875 -0.34375 
Q 39.109375 -1.421875 33.890625 -1.421875 
Q 20.796875 -1.421875 13.15625 6.1875 
Q 5.515625 13.8125 5.515625 26.8125 
Q 5.515625 40.234375 12.765625 48.109375 
Q 20.015625 56 32.328125 56 
Q 43.359375 56 49.78125 48.890625 
Q 56.203125 41.796875 56.203125 29.59375 
z
M 47.21875 32.234375 
Q 47.125 39.59375 43.09375 43.984375 
Q 39.0625 48.390625 32.421875 48.390625 
Q 24.90625 48.390625 20.390625 44.140625 
Q 15.875 39.890625 15.1875 32.171875 
z
" id="DejaVuSans-101"/>
      </defs>
      <use xlink:href="#DejaVuSans-97"/>
      <use x="61.279297" xlink:href="#DejaVuSans-109"/>
      <use x="158.691406" xlink:href="#DejaVuSans-112"/>
      <use x="222.167969" xlink:href="#DejaVuSans-108"/>
      <use x="249.951172" xlink:href="#DejaVuSans-105"/>
      <use x="277.734375" xlink:href="#DejaVuSans-116"/>
      <use x="316.943359" xlink:href="#DejaVuSans-117"/>
      <use x="380.322266" xlink:href="#DejaVuSans-100"/>
      <use x="443.798828" xlink:href="#DejaVuSans-101"/>
     </g>
    </g>
   </g>
   <g id="line2d_21">
    <path clip-path="url(#pefc0cffa7f)" d="M 67.299432 96.368145 
L 69.663068 83.788784 
L 72.026705 72.440779 
L 74.390341 63.43495 
L 76.753977 57.652853 
L 79.117614 55.660478 
L 81.48125 57.652853 
L 83.844886 63.43495 
L 86.208523 72.440779 
L 88.572159 83.788784 
L 93.299432 108.947507 
L 95.663068 120.295512 
L 98.026705 129.30134 
L 100.390341 135.083438 
L 102.753977 137.075813 
L 105.117614 135.083438 
L 107.48125 129.30134 
L 109.844886 120.295512 
L 112.208523 108.947507 
L 116.935795 83.788784 
L 119.299432 72.440779 
L 121.663068 63.43495 
L 124.026705 57.652853 
L 126.390341 55.660478 
L 128.753977 57.652853 
L 131.117614 63.43495 
L 133.48125 72.440779 
L 135.844886 83.788784 
L 140.572159 108.947507 
L 142.935795 120.295512 
L 145.299432 129.30134 
L 147.663068 135.083438 
L 150.026705 137.075813 
L 152.390341 135.083438 
L 154.753977 129.30134 
L 157.117614 120.295512 
L 159.48125 108.947507 
L 164.208523 83.788784 
L 166.572159 72.440779 
L 168.935795 63.43495 
L 171.299432 57.652853 
L 173.663068 55.660478 
L 176.026705 57.652853 
L 178.390341 63.43495 
L 180.753977 72.440779 
L 183.117614 83.788784 
L 187.844886 108.947507 
L 190.208523 120.295512 
L 192.572159 129.30134 
L 194.935795 135.083438 
L 197.299432 137.075813 
L 199.663068 135.083438 
L 202.026705 129.30134 
L 204.390341 120.295512 
L 206.753977 108.947507 
L 211.48125 83.788784 
L 213.844886 72.440779 
L 216.208523 63.43495 
L 218.572159 57.652853 
L 220.935795 55.660478 
L 223.299432 57.652853 
L 225.663068 63.43495 
L 228.026705 72.440779 
L 230.390341 83.788784 
L 235.117614 108.947507 
L 237.48125 120.295512 
L 239.844886 129.30134 
L 242.208523 135.083438 
L 244.572159 137.075813 
L 246.935795 135.083438 
L 249.299432 129.30134 
L 251.663068 120.295512 
L 254.026705 108.947507 
L 258.753977 83.788784 
L 261.117614 72.440779 
L 263.48125 63.43495 
L 265.844886 57.652853 
L 268.208523 55.660478 
L 270.572159 57.652853 
L 272.935795 63.43495 
L 275.299432 72.440779 
L 277.663068 83.788784 
L 282.390341 108.947507 
L 284.753977 120.295512 
L 287.117614 129.30134 
L 289.48125 135.083438 
L 291.844886 137.075813 
L 294.208523 135.083438 
L 296.572159 129.30134 
L 298.935795 120.295512 
L 301.299432 108.947507 
L 306.026705 83.788784 
L 308.390341 72.440779 
L 310.753977 63.43495 
L 313.117614 57.652853 
L 315.48125 55.660478 
L 317.844886 57.652853 
L 320.208523 63.43495 
L 322.572159 72.440779 
L 324.935795 83.788784 
L 329.663068 108.947507 
L 332.026705 120.295512 
L 334.390341 129.30134 
L 336.753977 135.083438 
L 339.117614 137.075813 
L 341.48125 135.083438 
L 343.844886 129.30134 
L 346.208523 120.295512 
L 348.572159 108.947507 
L 353.299432 83.788784 
L 355.663068 72.440779 
L 358.026705 63.43495 
L 360.390341 57.652853 
L 362.753977 55.660478 
L 365.117614 57.652853 
L 367.48125 63.43495 
L 369.844886 72.440779 
L 372.208523 83.788784 
L 376.935795 108.947507 
L 379.299432 120.295512 
L 381.663068 129.30134 
L 384.026705 135.083438 
L 386.390341 137.075813 
L 388.753977 135.083438 
L 391.117614 129.30134 
L 393.48125 120.295512 
L 395.844886 108.947507 
L 400.572159 83.788784 
L 402.935795 72.440779 
L 405.299432 63.43495 
L 407.663068 57.652853 
L 410.026705 55.660478 
L 412.390341 57.652853 
L 414.753977 63.43495 
L 417.117614 72.440779 
L 419.48125 83.788784 
L 424.208523 108.947507 
L 426.572159 120.295512 
L 428.935795 129.30134 
L 431.299432 135.083438 
L 433.663068 137.075813 
L 436.026705 135.083438 
L 438.390341 129.30134 
L 440.753977 120.295512 
L 443.117614 108.947507 
L 447.844886 83.788784 
L 450.208523 72.440779 
L 452.572159 63.43495 
L 454.935795 57.652853 
L 457.299432 55.660478 
L 459.663068 57.652853 
L 462.026705 63.43495 
L 464.390341 72.440779 
L 466.753977 83.788784 
L 471.48125 108.947507 
L 473.844886 120.295512 
L 476.208523 129.30134 
L 478.572159 135.083438 
L 480.935795 137.075813 
L 483.299432 135.083438 
L 485.663068 129.30134 
L 488.026705 120.295512 
L 490.390341 108.947507 
L 495.117614 83.788784 
L 497.48125 72.440779 
L 499.844886 63.43495 
L 502.208523 57.652853 
L 504.572159 55.660478 
L 506.935795 57.652853 
L 509.299432 63.43495 
L 511.663068 72.440779 
L 514.026705 83.788784 
L 518.753977 108.947507 
L 521.117614 120.295512 
L 523.48125 129.30134 
L 525.844886 135.083438 
L 528.208523 137.075813 
L 530.572159 135.083438 
L 532.935795 129.30134 
L 535.299432 120.295512 
L 537.663068 108.947507 
L 537.663068 108.947507 
" style="fill:none;stroke:#808080;stroke-dasharray:5.55,2.4;stroke-dashoffset:0;stroke-width:1.5;"/>
   </g>
   <g id="line2d_22">
    <path clip-path="url(#pefc0cffa7f)" d="M 67.299432 96.368145 
L 76.753977 86.24456 
L 83.844886 79.035664 
L 88.572159 74.555886 
L 93.299432 70.420101 
L 98.026705 66.693533 
L 102.753977 63.43495 
L 105.117614 61.997525 
L 107.48125 60.695744 
L 109.844886 59.534746 
L 112.208523 58.519113 
L 114.572159 57.652853 
L 116.935795 56.939384 
L 119.299432 56.381522 
L 121.663068 55.98147 
L 124.026705 55.740805 
L 126.390341 55.660478 
L 128.753977 55.740805 
L 131.117614 55.98147 
L 133.48125 56.381522 
L 135.844886 56.939384 
L 138.208523 57.652853 
L 140.572159 58.519113 
L 142.935795 59.534746 
L 145.299432 60.695744 
L 147.663068 61.997525 
L 152.390341 65.002348 
L 157.117614 68.501829 
L 161.844886 72.440779 
L 166.572159 76.757077 
L 171.299432 81.382653 
L 178.390341 88.740289 
L 199.663068 111.353637 
L 204.390341 115.979214 
L 209.117614 120.295512 
L 213.844886 124.234462 
L 218.572159 127.733943 
L 223.299432 130.738766 
L 225.663068 132.040547 
L 228.026705 133.201545 
L 230.390341 134.217178 
L 232.753977 135.083438 
L 235.117614 135.796907 
L 237.48125 136.354769 
L 239.844886 136.754821 
L 242.208523 136.995486 
L 244.572159 137.075813 
L 246.935795 136.995486 
L 249.299432 136.754821 
L 251.663068 136.354769 
L 254.026705 135.796907 
L 256.390341 135.083438 
L 258.753977 134.217178 
L 261.117614 133.201545 
L 263.48125 132.040547 
L 265.844886 130.738766 
L 270.572159 127.733943 
L 275.299432 124.234462 
L 280.026705 120.295512 
L 284.753977 115.979214 
L 289.48125 111.353637 
L 296.572159 103.996002 
L 317.844886 81.382653 
L 322.572159 76.757077 
L 327.299432 72.440779 
L 332.026705 68.501829 
L 336.753977 65.002348 
L 341.48125 61.997525 
L 343.844886 60.695744 
L 346.208523 59.534746 
L 348.572159 58.519113 
L 350.935795 57.652853 
L 353.299432 56.939384 
L 355.663068 56.381522 
L 358.026705 55.98147 
L 360.390341 55.740805 
L 362.753977 55.660478 
L 365.117614 55.740805 
L 367.48125 55.98147 
L 369.844886 56.381522 
L 372.208523 56.939384 
L 374.572159 57.652853 
L 376.935795 58.519113 
L 379.299432 59.534746 
L 381.663068 60.695744 
L 384.026705 61.997525 
L 388.753977 65.002348 
L 393.48125 68.501829 
L 398.208523 72.440779 
L 402.935795 76.757077 
L 407.663068 81.382653 
L 414.753977 88.740289 
L 436.026705 111.353637 
L 440.753977 115.979214 
L 445.48125 120.295512 
L 450.208523 124.234462 
L 454.935795 127.733943 
L 459.663068 130.738766 
L 462.026705 132.040547 
L 464.390341 133.201545 
L 466.753977 134.217178 
L 469.117614 135.083438 
L 471.48125 135.796907 
L 473.844886 136.354769 
L 476.208523 136.754821 
L 478.572159 136.995486 
L 480.935795 137.075813 
L 483.299432 136.995486 
L 485.663068 136.754821 
L 488.026705 136.354769 
L 490.390341 135.796907 
L 492.753977 135.083438 
L 495.117614 134.217178 
L 497.48125 133.201545 
L 499.844886 132.040547 
L 502.208523 130.738766 
L 506.935795 127.733943 
L 511.663068 124.234462 
L 516.390341 120.295512 
L 521.117614 115.979214 
L 525.844886 111.353637 
L 532.935795 103.996002 
L 537.663068 98.924201 
L 537.663068 98.924201 
" style="fill:none;stroke:#808080;stroke-linecap:square;stroke-width:1.5;"/>
   </g>
   <g id="line2d_23">
    <path clip-path="url(#pefc0cffa7f)" d="M 67.299432 96.368145 
L 72.026705 69.441884 
L 74.390341 57.263885 
L 76.753977 48.024751 
L 79.117614 43.081117 
L 81.48125 43.400803 
L 83.844886 49.412678 
L 86.208523 60.913682 
L 88.572159 77.048426 
L 90.935795 96.368145 
L 95.663068 136.674922 
L 98.026705 153.308606 
L 100.390341 164.914084 
L 102.753977 170.009008 
L 105.117614 167.771841 
L 107.48125 158.160919 
L 109.844886 141.945641 
L 112.208523 120.643501 
L 119.299432 48.937231 
L 121.663068 30.761443 
L 124.026705 19.013956 
L 126.390341 14.95281 
L 128.753977 19.013956 
L 131.117614 30.761443 
L 133.48125 48.937231 
L 135.844886 71.604627 
L 140.572159 120.643501 
L 142.935795 141.945641 
L 145.299432 158.160919 
L 147.663068 167.771841 
L 150.026705 170.009008 
L 152.390341 164.914084 
L 154.753977 153.308606 
L 157.117614 136.674922 
L 164.208523 77.048426 
L 166.572159 60.913682 
L 168.935795 49.412678 
L 171.299432 43.400803 
L 173.663068 43.081117 
L 176.026705 48.024751 
L 178.390341 57.263885 
L 180.753977 69.441884 
L 185.48125 96.368145 
L 187.844886 108.157642 
L 190.208523 117.296618 
L 192.572159 123.130275 
L 194.935795 125.455336 
L 197.299432 124.496452 
L 199.663068 120.831388 
L 202.026705 115.279068 
L 206.753977 102.207148 
L 209.117614 96.368145 
L 211.48125 91.807171 
L 213.844886 88.820188 
L 216.208523 87.442216 
L 218.572159 87.483498 
L 220.935795 88.593673 
L 223.299432 90.341256 
L 225.663068 92.294529 
L 228.026705 94.090907 
L 230.390341 95.484779 
L 232.753977 96.368145 
L 235.117614 96.763349 
L 237.48125 96.791965 
L 244.572159 96.368145 
L 249.299432 96.627834 
L 251.663068 96.791965 
L 254.026705 96.763349 
L 256.390341 96.368145 
L 258.753977 95.484779 
L 261.117614 94.090907 
L 263.48125 92.294529 
L 265.844886 90.341256 
L 268.208523 88.593673 
L 270.572159 87.483498 
L 272.935795 87.442216 
L 275.299432 88.820188 
L 277.663068 91.807171 
L 280.026705 96.368145 
L 282.390341 102.207148 
L 287.117614 115.279068 
L 289.48125 120.831388 
L 291.844886 124.496452 
L 294.208523 125.455336 
L 296.572159 123.130275 
L 298.935795 117.296618 
L 301.299432 108.157642 
L 303.663068 96.368145 
L 308.390341 69.441884 
L 310.753977 57.263885 
L 313.117614 48.024751 
L 315.48125 43.081117 
L 317.844886 43.400803 
L 320.208523 49.412678 
L 322.572159 60.913682 
L 324.935795 77.048426 
L 327.299432 96.368145 
L 332.026705 136.674922 
L 334.390341 153.308606 
L 336.753977 164.914084 
L 339.117614 170.009008 
L 341.48125 167.771841 
L 343.844886 158.160919 
L 346.208523 141.945641 
L 348.572159 120.643501 
L 355.663068 48.937231 
L 358.026705 30.761443 
L 360.390341 19.013956 
L 362.753977 14.95281 
L 365.117614 19.013956 
L 367.48125 30.761443 
L 369.844886 48.937231 
L 372.208523 71.604627 
L 376.935795 120.643501 
L 379.299432 141.945641 
L 381.663068 158.160919 
L 384.026705 167.771841 
L 386.390341 170.009008 
L 388.753977 164.914084 
L 391.117614 153.308606 
L 393.48125 136.674922 
L 400.572159 77.048426 
L 402.935795 60.913682 
L 405.299432 49.412678 
L 407.663068 43.400803 
L 410.026705 43.081117 
L 412.390341 48.024751 
L 414.753977 57.263885 
L 417.117614 69.441884 
L 421.844886 96.368145 
L 424.208523 108.157642 
L 426.572159 117.296618 
L 428.935795 123.130275 
L 431.299432 125.455336 
L 433.663068 124.496452 
L 436.026705 120.831388 
L 438.390341 115.279068 
L 443.117614 102.207148 
L 445.48125 96.368145 
L 447.844886 91.807171 
L 450.208523 88.820188 
L 452.572159 87.442216 
L 454.935795 87.483498 
L 457.299432 88.593673 
L 459.663068 90.341256 
L 462.026705 92.294529 
L 464.390341 94.090907 
L 466.753977 95.484779 
L 469.117614 96.368145 
L 471.48125 96.763349 
L 473.844886 96.791965 
L 480.935795 96.368145 
L 485.663068 96.627834 
L 488.026705 96.791965 
L 490.390341 96.763349 
L 492.753977 96.368145 
L 495.117614 95.484779 
L 497.48125 94.090907 
L 499.844886 92.294529 
L 502.208523 90.341256 
L 504.572159 88.593673 
L 506.935795 87.483498 
L 509.299432 87.442216 
L 511.663068 88.820188 
L 514.026705 91.807171 
L 516.390341 96.368145 
L 518.753977 102.207148 
L 523.48125 115.279068 
L 525.844886 120.831388 
L 528.208523 124.496452 
L 530.572159 125.455336 
L 532.935795 123.130275 
L 535.299432 117.296618 
L 537.663068 108.157642 
L 537.663068 108.157642 
" style="fill:none;stroke:#ff0000;stroke-linecap:square;stroke-width:1.5;"/>
   </g>
   <g id="patch_3">
    <path d="M 43.78125 177.761818 
L 43.78125 7.2 
" style="fill:none;stroke:#000000;stroke-linecap:square;stroke-linejoin:miter;stroke-width:0.8;"/>
   </g>
   <g id="patch_4">
    <path d="M 561.18125 177.761818 
L 561.18125 7.2 
" style="fill:none;stroke:#000000;stroke-linecap:square;stroke-linejoin:miter;stroke-width:0.8;"/>
   </g>
   <g id="patch_5">
    <path d="M 43.78125 177.761818 
L 561.18125 177.761818 
" style="fill:none;stroke:#000000;stroke-linecap:square;stroke-linejoin:miter;stroke-width:0.8;"/>
   </g>
   <g id="patch_6">
    <path d="M 43.78125 7.2 
L 561.18125 7.2 
" style="fill:none;stroke:#000000;stroke-linecap:square;stroke-linejoin:miter;stroke-width:0.8;"/>
   </g>
  </g>
  <g id="axes_2">
   <g id="patch_7">
    <path d="M 43.78125 376.123636 
L 561.18125 376.123636 
L 561.18125 205.561818 
L 43.78125 205.561818 
z
" style="fill:#ffffff;"/>
   </g>
   <g id="matplotlib.axis_3">
    <g id="xtick_7">
     <g id="line2d_24">
      <path clip-path="url(#p56f9857841)" d="M 67.299432 376.123636 
L 67.299432 205.561818 
" style="fill:none;stroke:#b0b0b0;stroke-linecap:square;stroke-width:0.8;"/>
     </g>
     <g id="line2d_25">
      <g>
       <use style="stroke:#000000;stroke-width:0.8;" x="67.299432" xlink:href="#mfb994fde91" y="376.123636"/>
      </g>
     </g>
     <g id="text_12">
      <!-- 0 -->
      <g transform="translate(64.118182 390.722074)scale(0.1 -0.1)">
       <use xlink:href="#DejaVuSans-48"/>
      </g>
     </g>
    </g>
    <g id="xtick_8">
     <g id="line2d_26">
      <path clip-path="url(#p56f9857841)" d="M 143.164534 376.123636 
L 143.164534 205.561818 
" style="fill:none;stroke:#b0b0b0;stroke-linecap:square;stroke-width:0.8;"/>
     </g>
     <g id="line2d_27">
      <g>
       <use style="stroke:#000000;stroke-width:0.8;" x="143.164534" xlink:href="#mfb994fde91" y="376.123636"/>
      </g>
     </g>
     <g id="text_13">
      <!-- 400 -->
      <g transform="translate(133.620784 390.722074)scale(0.1 -0.1)">
       <use xlink:href="#DejaVuSans-52"/>
       <use x="63.623047" xlink:href="#DejaVuSans-48"/>
       <use x="127.246094" xlink:href="#DejaVuSans-48"/>
      </g>
     </g>
    </g>
    <g id="xtick_9">
     <g id="line2d_28">
      <path clip-path="url(#p56f9857841)" d="M 219.029637 376.123636 
L 219.029637 205.561818 
" style="fill:none;stroke:#b0b0b0;stroke-linecap:square;stroke-width:0.8;"/>
     </g>
     <g id="line2d_29">
      <g>
       <use style="stroke:#000000;stroke-width:0.8;" x="219.029637" xlink:href="#mfb994fde91" y="376.123636"/>
      </g>
     </g>
     <g id="text_14">
      <!-- 800 -->
      <g transform="translate(209.485887 390.722074)scale(0.1 -0.1)">
       <use xlink:href="#DejaVuSans-56"/>
       <use x="63.623047" xlink:href="#DejaVuSans-48"/>
       <use x="127.246094" xlink:href="#DejaVuSans-48"/>
      </g>
     </g>
    </g>
    <g id="xtick_10">
     <g id="line2d_30">
      <path clip-path="url(#p56f9857841)" d="M 294.89474 376.123636 
L 294.89474 205.561818 
" style="fill:none;stroke:#b0b0b0;stroke-linecap:square;stroke-width:0.8;"/>
     </g>
     <g id="line2d_31">
      <g>
       <use style="stroke:#000000;stroke-width:0.8;" x="294.89474" xlink:href="#mfb994fde91" y="376.123636"/>
      </g>
     </g>
     <g id="text_15">
      <!-- 1200 -->
      <g transform="translate(282.16974 390.722074)scale(0.1 -0.1)">
       <use xlink:href="#DejaVuSans-49"/>
       <use x="63.623047" xlink:href="#DejaVuSans-50"/>
       <use x="127.246094" xlink:href="#DejaVuSans-48"/>
       <use x="190.869141" xlink:href="#DejaVuSans-48"/>
      </g>
     </g>
    </g>
    <g id="xtick_11">
     <g id="line2d_32">
      <path clip-path="url(#p56f9857841)" d="M 370.759842 376.123636 
L 370.759842 205.561818 
" style="fill:none;stroke:#b0b0b0;stroke-linecap:square;stroke-width:0.8;"/>
     </g>
     <g id="line2d_33">
      <g>
       <use style="stroke:#000000;stroke-width:0.8;" x="370.759842" xlink:href="#mfb994fde91" y="376.123636"/>
      </g>
     </g>
     <g id="text_16">
      <!-- 1600 -->
      <g transform="translate(358.034842 390.722074)scale(0.1 -0.1)">
       <use xlink:href="#DejaVuSans-49"/>
       <use x="63.623047" xlink:href="#DejaVuSans-54"/>
       <use x="127.246094" xlink:href="#DejaVuSans-48"/>
       <use x="190.869141" xlink:href="#DejaVuSans-48"/>
      </g>
     </g>
    </g>
    <g id="xtick_12">
     <g id="line2d_34">
      <path clip-path="url(#p56f9857841)" d="M 446.624945 376.123636 
L 446.624945 205.561818 
" style="fill:none;stroke:#b0b0b0;stroke-linecap:square;stroke-width:0.8;"/>
     </g>
     <g id="line2d_35">
      <g>
       <use style="stroke:#000000;stroke-width:0.8;" x="446.624945" xlink:href="#mfb994fde91" y="376.123636"/>
      </g>
     </g>
     <g id="text_17">
      <!-- 2000 -->
      <g transform="translate(433.899945 390.722074)scale(0.1 -0.1)">
       <use xlink:href="#DejaVuSans-50"/>
       <use x="63.623047" xlink:href="#DejaVuSans-48"/>
       <use x="127.246094" xlink:href="#DejaVuSans-48"/>
       <use x="190.869141" xlink:href="#DejaVuSans-48"/>
      </g>
     </g>
    </g>
    <g id="xtick_13">
     <g id="line2d_36">
      <path clip-path="url(#p56f9857841)" d="M 522.490048 376.123636 
L 522.490048 205.561818 
" style="fill:none;stroke:#b0b0b0;stroke-linecap:square;stroke-width:0.8;"/>
     </g>
     <g id="line2d_37">
      <g>
       <use style="stroke:#000000;stroke-width:0.8;" x="522.490048" xlink:href="#mfb994fde91" y="376.123636"/>
      </g>
     </g>
     <g id="text_18">
      <!-- 2400 -->
      <g transform="translate(509.765048 390.722074)scale(0.1 -0.1)">
       <use xlink:href="#DejaVuSans-50"/>
       <use x="63.623047" xlink:href="#DejaVuSans-52"/>
       <use x="127.246094" xlink:href="#DejaVuSans-48"/>
       <use x="190.869141" xlink:href="#DejaVuSans-48"/>
      </g>
     </g>
    </g>
   </g>
   <g id="matplotlib.axis_4">
    <g id="ytick_5">
     <g id="line2d_38">
      <path clip-path="url(#p56f9857841)" d="M 43.78125 368.370826 
L 561.18125 368.370826 
" style="fill:none;stroke:#b0b0b0;stroke-linecap:square;stroke-width:0.8;"/>
     </g>
     <g id="line2d_39">
      <g>
       <use style="stroke:#000000;stroke-width:0.8;" x="43.78125" xlink:href="#m66c47c7fca" y="368.370826"/>
      </g>
     </g>
     <g id="text_19">
      <!-- 0.0 -->
      <g transform="translate(20.878125 372.170045)scale(0.1 -0.1)">
       <use xlink:href="#DejaVuSans-48"/>
       <use x="63.623047" xlink:href="#DejaVuSans-46"/>
       <use x="95.410156" xlink:href="#DejaVuSans-48"/>
      </g>
     </g>
    </g>
    <g id="ytick_6">
     <g id="line2d_40">
      <path clip-path="url(#p56f9857841)" d="M 43.78125 337.359587 
L 561.18125 337.359587 
" style="fill:none;stroke:#b0b0b0;stroke-linecap:square;stroke-width:0.8;"/>
     </g>
     <g id="line2d_41">
      <g>
       <use style="stroke:#000000;stroke-width:0.8;" x="43.78125" xlink:href="#m66c47c7fca" y="337.359587"/>
      </g>
     </g>
     <g id="text_20">
      <!-- 0.2 -->
      <g transform="translate(20.878125 341.158806)scale(0.1 -0.1)">
       <use xlink:href="#DejaVuSans-48"/>
       <use x="63.623047" xlink:href="#DejaVuSans-46"/>
       <use x="95.410156" xlink:href="#DejaVuSans-50"/>
      </g>
     </g>
    </g>
    <g id="ytick_7">
     <g id="line2d_42">
      <path clip-path="url(#p56f9857841)" d="M 43.78125 306.348347 
L 561.18125 306.348347 
" style="fill:none;stroke:#b0b0b0;stroke-linecap:square;stroke-width:0.8;"/>
     </g>
     <g id="line2d_43">
      <g>
       <use style="stroke:#000000;stroke-width:0.8;" x="43.78125" xlink:href="#m66c47c7fca" y="306.348347"/>
      </g>
     </g>
     <g id="text_21">
      <!-- 0.4 -->
      <g transform="translate(20.878125 310.147566)scale(0.1 -0.1)">
       <use xlink:href="#DejaVuSans-48"/>
       <use x="63.623047" xlink:href="#DejaVuSans-46"/>
       <use x="95.410156" xlink:href="#DejaVuSans-52"/>
      </g>
     </g>
    </g>
    <g id="ytick_8">
     <g id="line2d_44">
      <path clip-path="url(#p56f9857841)" d="M 43.78125 275.337107 
L 561.18125 275.337107 
" style="fill:none;stroke:#b0b0b0;stroke-linecap:square;stroke-width:0.8;"/>
     </g>
     <g id="line2d_45">
      <g>
       <use style="stroke:#000000;stroke-width:0.8;" x="43.78125" xlink:href="#m66c47c7fca" y="275.337107"/>
      </g>
     </g>
     <g id="text_22">
      <!-- 0.6 -->
      <g transform="translate(20.878125 279.136326)scale(0.1 -0.1)">
       <use xlink:href="#DejaVuSans-48"/>
       <use x="63.623047" xlink:href="#DejaVuSans-46"/>
       <use x="95.410156" xlink:href="#DejaVuSans-54"/>
      </g>
     </g>
    </g>
    <g id="ytick_9">
     <g id="line2d_46">
      <path clip-path="url(#p56f9857841)" d="M 43.78125 244.325868 
L 561.18125 244.325868 
" style="fill:none;stroke:#b0b0b0;stroke-linecap:square;stroke-width:0.8;"/>
     </g>
     <g id="line2d_47">
      <g>
       <use style="stroke:#000000;stroke-width:0.8;" x="43.78125" xlink:href="#m66c47c7fca" y="244.325868"/>
      </g>
     </g>
     <g id="text_23">
      <!-- 0.8 -->
      <g transform="translate(20.878125 248.125087)scale(0.1 -0.1)">
       <use xlink:href="#DejaVuSans-48"/>
       <use x="63.623047" xlink:href="#DejaVuSans-46"/>
       <use x="95.410156" xlink:href="#DejaVuSans-56"/>
      </g>
     </g>
    </g>
    <g id="ytick_10">
     <g id="line2d_48">
      <path clip-path="url(#p56f9857841)" d="M 43.78125 213.314628 
L 561.18125 213.314628 
" style="fill:none;stroke:#b0b0b0;stroke-linecap:square;stroke-width:0.8;"/>
     </g>
     <g id="line2d_49">
      <g>
       <use style="stroke:#000000;stroke-width:0.8;" x="43.78125" xlink:href="#m66c47c7fca" y="213.314628"/>
      </g>
     </g>
     <g id="text_24">
      <!-- 1.0 -->
      <g transform="translate(20.878125 217.113847)scale(0.1 -0.1)">
       <use xlink:href="#DejaVuSans-49"/>
       <use x="63.623047" xlink:href="#DejaVuSans-46"/>
       <use x="95.410156" xlink:href="#DejaVuSans-48"/>
      </g>
     </g>
    </g>
    <g id="text_25">
     <!-- frequency -->
     <g transform="translate(14.798438 315.91929)rotate(-90)scale(0.1 -0.1)">
      <defs>
       <path d="M 37.109375 75.984375 
L 37.109375 68.5 
L 28.515625 68.5 
Q 23.6875 68.5 21.796875 66.546875 
Q 19.921875 64.59375 19.921875 59.515625 
L 19.921875 54.6875 
L 34.71875 54.6875 
L 34.71875 47.703125 
L 19.921875 47.703125 
L 19.921875 0 
L 10.890625 0 
L 10.890625 47.703125 
L 2.296875 47.703125 
L 2.296875 54.6875 
L 10.890625 54.6875 
L 10.890625 58.5 
Q 10.890625 67.625 15.140625 71.796875 
Q 19.390625 75.984375 28.609375 75.984375 
z
" id="DejaVuSans-102"/>
       <path d="M 41.109375 46.296875 
Q 39.59375 47.171875 37.8125 47.578125 
Q 36.03125 48 33.890625 48 
Q 26.265625 48 22.1875 43.046875 
Q 18.109375 38.09375 18.109375 28.8125 
L 18.109375 0 
L 9.078125 0 
L 9.078125 54.6875 
L 18.109375 54.6875 
L 18.109375 46.1875 
Q 20.953125 51.171875 25.484375 53.578125 
Q 30.03125 56 36.53125 56 
Q 37.453125 56 38.578125 55.875 
Q 39.703125 55.765625 41.0625 55.515625 
z
" id="DejaVuSans-114"/>
       <path d="M 14.796875 27.296875 
Q 14.796875 17.390625 18.875 11.75 
Q 22.953125 6.109375 30.078125 6.109375 
Q 37.203125 6.109375 41.296875 11.75 
Q 45.40625 17.390625 45.40625 27.296875 
Q 45.40625 37.203125 41.296875 42.84375 
Q 37.203125 48.484375 30.078125 48.484375 
Q 22.953125 48.484375 18.875 42.84375 
Q 14.796875 37.203125 14.796875 27.296875 
z
M 45.40625 8.203125 
Q 42.578125 3.328125 38.25 0.953125 
Q 33.9375 -1.421875 27.875 -1.421875 
Q 17.96875 -1.421875 11.734375 6.484375 
Q 5.515625 14.40625 5.515625 27.296875 
Q 5.515625 40.1875 11.734375 48.09375 
Q 17.96875 56 27.875 56 
Q 33.9375 56 38.25 53.625 
Q 42.578125 51.265625 45.40625 46.390625 
L 45.40625 54.6875 
L 54.390625 54.6875 
L 54.390625 -20.796875 
L 45.40625 -20.796875 
z
" id="DejaVuSans-113"/>
       <path d="M 54.890625 33.015625 
L 54.890625 0 
L 45.90625 0 
L 45.90625 32.71875 
Q 45.90625 40.484375 42.875 44.328125 
Q 39.84375 48.1875 33.796875 48.1875 
Q 26.515625 48.1875 22.3125 43.546875 
Q 18.109375 38.921875 18.109375 30.90625 
L 18.109375 0 
L 9.078125 0 
L 9.078125 54.6875 
L 18.109375 54.6875 
L 18.109375 46.1875 
Q 21.34375 51.125 25.703125 53.5625 
Q 30.078125 56 35.796875 56 
Q 45.21875 56 50.046875 50.171875 
Q 54.890625 44.34375 54.890625 33.015625 
z
" id="DejaVuSans-110"/>
       <path d="M 48.78125 52.59375 
L 48.78125 44.1875 
Q 44.96875 46.296875 41.140625 47.34375 
Q 37.3125 48.390625 33.40625 48.390625 
Q 24.65625 48.390625 19.8125 42.84375 
Q 14.984375 37.3125 14.984375 27.296875 
Q 14.984375 17.28125 19.8125 11.734375 
Q 24.65625 6.203125 33.40625 6.203125 
Q 37.3125 6.203125 41.140625 7.25 
Q 44.96875 8.296875 48.78125 10.40625 
L 48.78125 2.09375 
Q 45.015625 0.34375 40.984375 -0.53125 
Q 36.96875 -1.421875 32.421875 -1.421875 
Q 20.0625 -1.421875 12.78125 6.34375 
Q 5.515625 14.109375 5.515625 27.296875 
Q 5.515625 40.671875 12.859375 48.328125 
Q 20.21875 56 33.015625 56 
Q 37.15625 56 41.109375 55.140625 
Q 45.0625 54.296875 48.78125 52.59375 
z
" id="DejaVuSans-99"/>
       <path d="M 32.171875 -5.078125 
Q 28.375 -14.84375 24.75 -17.8125 
Q 21.140625 -20.796875 15.09375 -20.796875 
L 7.90625 -20.796875 
L 7.90625 -13.28125 
L 13.1875 -13.28125 
Q 16.890625 -13.28125 18.9375 -11.515625 
Q 21 -9.765625 23.484375 -3.21875 
L 25.09375 0.875 
L 2.984375 54.6875 
L 12.5 54.6875 
L 29.59375 11.921875 
L 46.6875 54.6875 
L 56.203125 54.6875 
z
" id="DejaVuSans-121"/>
      </defs>
      <use xlink:href="#DejaVuSans-102"/>
      <use x="35.205078" xlink:href="#DejaVuSans-114"/>
      <use x="74.068359" xlink:href="#DejaVuSans-101"/>
      <use x="135.591797" xlink:href="#DejaVuSans-113"/>
      <use x="199.068359" xlink:href="#DejaVuSans-117"/>
      <use x="262.447266" xlink:href="#DejaVuSans-101"/>
      <use x="323.970703" xlink:href="#DejaVuSans-110"/>
      <use x="387.349609" xlink:href="#DejaVuSans-99"/>
      <use x="442.330078" xlink:href="#DejaVuSans-121"/>
     </g>
    </g>
   </g>
   <g id="line2d_50">
    <path clip-path="url(#p56f9857841)" d="M 67.299432 368.370826 
L 71.092687 368.370826 
L 74.885942 368.370826 
L 78.679197 368.370826 
L 82.472452 368.370826 
L 86.265707 368.370826 
L 90.058963 368.370826 
L 93.852218 368.370826 
L 97.645473 368.370826 
L 101.438728 368.370826 
L 105.231983 368.370826 
L 109.025238 368.370826 
L 112.818493 368.370826 
L 116.611749 368.370826 
L 120.405004 368.370826 
L 124.198259 368.370826 
L 127.991514 368.370826 
L 131.784769 368.370826 
L 135.578024 368.370826 
L 139.371279 368.370826 
L 143.164534 368.370826 
L 146.95779 368.370826 
L 150.751045 368.370826 
L 154.5443 368.370826 
L 158.337555 368.370826 
L 162.13081 368.370826 
L 165.924065 368.370826 
L 169.71732 368.370826 
L 173.510576 368.370826 
L 177.303831 368.370826 
L 181.097086 368.370826 
L 184.890341 368.370826 
L 188.683596 368.370826 
L 192.476851 368.370826 
L 196.270106 368.370826 
L 200.063361 368.370826 
L 203.856617 368.370826 
L 207.649872 368.370826 
L 211.443127 368.370826 
L 215.236382 368.370826 
L 219.029637 290.842727 
L 222.822892 368.370826 
L 226.616147 368.370826 
L 230.409402 368.370826 
L 234.202658 368.370826 
L 237.995913 368.370826 
L 241.789168 368.370826 
L 245.582423 368.370826 
L 249.375678 368.370826 
L 253.168933 368.370826 
L 256.962188 213.314628 
L 260.755444 368.370826 
L 264.548699 368.370826 
L 268.341954 368.370826 
L 272.135209 368.370826 
L 275.928464 368.370826 
L 279.721719 368.370826 
L 283.514974 368.370826 
L 287.308229 368.370826 
L 291.101485 368.370826 
L 294.89474 290.842727 
L 298.687995 368.370826 
L 302.48125 368.370826 
L 306.274505 368.370826 
L 310.06776 368.370826 
L 313.861015 368.370826 
L 317.654271 368.370826 
L 321.447526 368.370826 
L 325.240781 368.370826 
L 329.034036 368.370826 
L 332.827291 368.370826 
L 336.620546 368.370826 
L 340.413801 368.370826 
L 344.207056 368.370826 
L 348.000312 368.370826 
L 351.793567 368.370826 
L 355.586822 368.370826 
L 359.380077 368.370826 
L 363.173332 368.370826 
L 366.966587 368.370826 
L 370.759842 368.370826 
L 374.553098 368.370826 
L 378.346353 368.370826 
L 382.139608 368.370826 
L 385.932863 368.370826 
L 389.726118 368.370826 
L 393.519373 368.370826 
L 397.312628 368.370826 
L 401.105883 368.370826 
L 404.899139 368.370826 
L 408.692394 368.370826 
L 412.485649 368.370826 
L 416.278904 368.370826 
L 420.072159 368.370826 
L 423.865414 368.370826 
L 427.658669 368.370826 
L 431.451924 368.370826 
L 435.24518 368.370826 
L 439.038435 368.370826 
L 442.83169 368.370826 
L 446.624945 368.370826 
L 450.4182 368.370826 
L 454.211455 368.370826 
L 458.00471 368.370826 
L 461.797966 368.370826 
L 465.591221 368.370826 
L 469.384476 368.370826 
L 473.177731 368.370826 
L 476.970986 368.370826 
L 480.764241 368.370826 
L 484.557496 368.370826 
L 488.350751 368.370826 
L 492.144007 368.370826 
L 495.937262 368.370826 
L 499.730517 368.370826 
L 503.523772 368.370826 
L 507.317027 368.370826 
L 511.110282 368.370826 
L 514.903537 368.370826 
L 518.696793 368.370826 
L 522.490048 368.370826 
L 526.283303 368.370826 
L 530.076558 368.370826 
L 533.869813 368.370826 
L 537.663068 368.370826 
" style="fill:none;stroke:#1f77b4;stroke-linecap:square;stroke-width:1.5;"/>
   </g>
   <g id="patch_8">
    <path d="M 43.78125 376.123636 
L 43.78125 205.561818 
" style="fill:none;stroke:#000000;stroke-linecap:square;stroke-linejoin:miter;stroke-width:0.8;"/>
   </g>
   <g id="patch_9">
    <path d="M 561.18125 376.123636 
L 561.18125 205.561818 
" style="fill:none;stroke:#000000;stroke-linecap:square;stroke-linejoin:miter;stroke-width:0.8;"/>
   </g>
   <g id="patch_10">
    <path d="M 43.78125 376.123636 
L 561.18125 376.123636 
" style="fill:none;stroke:#000000;stroke-linecap:square;stroke-linejoin:miter;stroke-width:0.8;"/>
   </g>
   <g id="patch_11">
    <path d="M 43.78125 205.561818 
L 561.18125 205.561818 
" style="fill:none;stroke:#000000;stroke-linecap:square;stroke-linejoin:miter;stroke-width:0.8;"/>
   </g>
   <g id="text_26">
    <!-- add carrier to product -->
    <g transform="translate(236.738125 421.292182)scale(0.12 -0.12)">
     <defs>
      <path id="DejaVuSans-32"/>
      <path d="M 30.609375 48.390625 
Q 23.390625 48.390625 19.1875 42.75 
Q 14.984375 37.109375 14.984375 27.296875 
Q 14.984375 17.484375 19.15625 11.84375 
Q 23.34375 6.203125 30.609375 6.203125 
Q 37.796875 6.203125 41.984375 11.859375 
Q 46.1875 17.53125 46.1875 27.296875 
Q 46.1875 37.015625 41.984375 42.703125 
Q 37.796875 48.390625 30.609375 48.390625 
z
M 30.609375 56 
Q 42.328125 56 49.015625 48.375 
Q 55.71875 40.765625 55.71875 27.296875 
Q 55.71875 13.875 49.015625 6.21875 
Q 42.328125 -1.421875 30.609375 -1.421875 
Q 18.84375 -1.421875 12.171875 6.21875 
Q 5.515625 13.875 5.515625 27.296875 
Q 5.515625 40.765625 12.171875 48.375 
Q 18.84375 56 30.609375 56 
z
" id="DejaVuSans-111"/>
     </defs>
     <use xlink:href="#DejaVuSans-97"/>
     <use x="61.279297" xlink:href="#DejaVuSans-100"/>
     <use x="124.755859" xlink:href="#DejaVuSans-100"/>
     <use x="188.232422" xlink:href="#DejaVuSans-32"/>
     <use x="220.019531" xlink:href="#DejaVuSans-99"/>
     <use x="275" xlink:href="#DejaVuSans-97"/>
     <use x="336.279297" xlink:href="#DejaVuSans-114"/>
     <use x="375.642578" xlink:href="#DejaVuSans-114"/>
     <use x="416.755859" xlink:href="#DejaVuSans-105"/>
     <use x="444.539062" xlink:href="#DejaVuSans-101"/>
     <use x="506.0625" xlink:href="#DejaVuSans-114"/>
     <use x="547.175781" xlink:href="#DejaVuSans-32"/>
     <use x="578.962891" xlink:href="#DejaVuSans-116"/>
     <use x="618.171875" xlink:href="#DejaVuSans-111"/>
     <use x="679.353516" xlink:href="#DejaVuSans-32"/>
     <use x="711.140625" xlink:href="#DejaVuSans-112"/>
     <use x="774.617188" xlink:href="#DejaVuSans-114"/>
     <use x="813.480469" xlink:href="#DejaVuSans-111"/>
     <use x="874.662109" xlink:href="#DejaVuSans-100"/>
     <use x="938.138672" xlink:href="#DejaVuSans-117"/>
     <use x="1001.517578" xlink:href="#DejaVuSans-99"/>
     <use x="1056.498047" xlink:href="#DejaVuSans-116"/>
    </g>
   </g>
  </g>
 </g>
 <defs>
  <clipPath id="pefc0cffa7f">
   <rect height="170.561818" width="517.4" x="43.78125" y="7.2"/>
  </clipPath>
  <clipPath id="p56f9857841">
   <rect height="170.561818" width="517.4" x="43.78125" y="205.561818"/>
  </clipPath>
 </defs>
</svg>
