<?xml version="1.0" standalone="no"?>
 <!DOCTYPE svg PUBLIC "-//W3C//DTD SVG 1.1//EN" 
 "http://www.w3.org/Graphics/SVG/1.1/DTD/svg11.dtd"> 
<svg
  xmlns:svg="http://www.w3.org/2000/svg"
  xmlns="http://www.w3.org/2000/svg"
  xmlns:xlink="http://www.w3.org/1999/xlink"
  version="1.1"
  width="297.0022mm" height="210.0072mm" viewBox="0.0000 0.0000 297.0022 210.0072">
<title>SVG Image created as mount-F_CrtYd.svg date 2023/11/06 07:07:44 </title>
  <desc>Image generated by PCBNEW </desc>
<g style="fill:#000000; fill-opacity:1.0000;stroke:#000000; stroke-opacity:1.0000;
stroke-linecap:round; stroke-linejoin:round;"
 transform="translate(0 0) scale(1 1)">
</g>
<g style="fill:#000000; fill-opacity:0.0; 
stroke:#000000; stroke-width:0.0000; stroke-opacity:1; 
stroke-linecap:round; stroke-linejoin:round;">
</g>
<g style="fill:#000000; fill-opacity:0.0; 
stroke:#000000; stroke-width:0.0500; stroke-opacity:1; 
stroke-linecap:round; stroke-linejoin:round;">
<circle cx="27.9400" cy="27.9400" r="2.4500" /> 
<circle cx="63.1600" cy="27.9400" r="2.4500" /> 
<circle cx="63.1600" cy="134.6200" r="2.4500" /> 
<circle cx="27.9400" cy="134.6200" r="2.4500" /> 
<path d="M58.2000 91.9280
L58.2000 89.4280
" />
<path d="M58.2000 89.4280
L48.4800 89.4280
" />
<path d="M48.4800 91.9280
L58.2000 91.9280
" />
<path d="M48.4800 89.4280
L48.4800 91.9280
" />
<path d="M48.4920 92.5760
L48.4920 95.0760
" />
<path d="M48.4920 95.0760
L58.2120 95.0760
" />
<path d="M58.2120 92.5760
L48.4920 92.5760
" />
<path d="M58.2120 95.0760
L58.2120 92.5760
" />
<path d="M40.5600 34.1400
L40.5600 48.5400
" />
<path d="M30.5600 48.5400
L40.5600 48.5400
" />
<path d="M30.5600 34.1400
L40.5600 34.1400
" />
<path d="M30.5600 34.1400
L30.5600 48.5400
" />
<path d="M40.5600 54.4600
L40.5600 68.8600
" />
<path d="M30.5600 68.8600
L40.5600 68.8600
" />
<path d="M30.5600 54.4600
L40.5600 54.4600
" />
<path d="M30.5600 54.4600
L30.5600 68.8600
" />
<path d="M30.5600 128.4200
L30.5600 114.0200
" />
<path d="M40.5600 114.0200
L30.5600 114.0200
" />
<path d="M40.5600 128.4200
L30.5600 128.4200
" />
<path d="M40.5600 128.4200
L40.5600 114.0200
" />
<path d="M40.7200 128.4200
L40.7200 114.0200
" />
<path d="M50.7200 114.0200
L40.7200 114.0200
" />
<path d="M50.7200 128.4200
L40.7200 128.4200
" />
<path d="M50.7200 128.4200
L50.7200 114.0200
" />
<path d="M50.8800 128.4200
L50.8800 114.0200
" />
<path d="M60.8800 114.0200
L50.8800 114.0200
" />
<path d="M60.8800 128.4200
L50.8800 128.4200
" />
<path d="M60.8800 128.4200
L60.8800 114.0200
" />
<path d="M30.4460 74.7000
L30.4460 77.7000
" />
<path d="M30.4460 77.7000
L42.7060 77.7000
" />
<path d="M42.7060 74.7000
L30.4460 74.7000
" />
<path d="M42.7060 77.7000
L42.7060 74.7000
" />
<path d="M42.1300 110.7680
L42.1300 113.7680
" />
<path d="M42.1300 113.7680
L54.3900 113.7680
" />
<path d="M54.3900 110.7680
L42.1300 110.7680
" />
<path d="M54.3900 113.7680
L54.3900 110.7680
" />
<path d="M30.7000 97.5600
L30.7000 100.5600
" />
<path d="M30.7000 100.5600
L42.9600 100.5600
" />
<path d="M42.9600 97.5600
L30.7000 97.5600
" />
<path d="M42.9600 100.5600
L42.9600 97.5600
" />
<path d="M44.9820 109.0000
L47.9820 109.0000
" />
<path d="M47.9820 109.0000
L47.9820 96.7400
" />
<path d="M44.9820 96.7400
L44.9820 109.0000
" />
<path d="M47.9820 96.7400
L44.9820 96.7400
" />
<path d="M30.7000 102.1320
L30.7000 105.1320
" />
<path d="M30.7000 105.1320
L42.9600 105.1320
" />
<path d="M42.9600 102.1320
L30.7000 102.1320
" />
<path d="M42.9600 105.1320
L42.9600 102.1320
" />
<path d="M30.7000 106.7040
L30.7000 109.7040
" />
<path d="M30.7000 109.7040
L42.9600 109.7040
" />
<path d="M42.9600 106.7040
L30.7000 106.7040
" />
<path d="M42.9600 109.7040
L42.9600 106.7040
" />
<path d="M49.4300 49.2900
L62.2500 49.2900
" />
<path d="M62.2500 49.2900
L62.2500 35.5400
" />
<path d="M49.4300 35.5400
L49.4300 49.2900
" />
<path d="M62.2500 35.5400
L49.4300 35.5400
" />
<path d="M49.4300 69.6100
L62.2500 69.6100
" />
<path d="M62.2500 69.6100
L62.2500 55.8600
" />
<path d="M49.4300 55.8600
L49.4300 69.6100
" />
<path d="M62.2500 55.8600
L49.4300 55.8600
" />
<path d="M49.4300 110.2500
L62.2500 110.2500
" />
<path d="M62.2500 110.2500
L62.2500 96.5000
" />
<path d="M49.4300 96.5000
L49.4300 110.2500
" />
<path d="M62.2500 96.5000
L49.4300 96.5000
" />
<g >
</g>
<g >
</g>
<g >
</g>
<g >
</g>
<g >
</g>
<g >
</g>
<g >
</g>
<g >
</g>
<g >
</g>
<g >
</g>
<g >
</g>
<g >
</g>
<g >
</g>
<g >
</g>
<g >
</g>
<g >
</g>
<g >
</g>
<g >
</g>
<g >
</g>
<g >
</g>
<g >
</g>
<g >
</g>
<g >
</g>
<g >
</g>
<g >
</g>
<g >
</g>
</g> 
</svg>
