<?xml version="1.0" standalone="no"?>
 <!DOCTYPE svg PUBLIC "-//W3C//DTD SVG 1.1//EN" 
 "http://www.w3.org/Graphics/SVG/1.1/DTD/svg11.dtd"> 
<svg
  xmlns:svg="http://www.w3.org/2000/svg"
  xmlns="http://www.w3.org/2000/svg"
  xmlns:xlink="http://www.w3.org/1999/xlink"
  version="1.1"
  width="297.0022mm" height="210.0072mm" viewBox="0.0000 0.0000 297.0022 210.0072">
<title>SVG Image created as mount-B_SilkS.svg date 2023/11/07 21:17:12 </title>
  <desc>Image generated by PCBNEW </desc>
<g style="fill:#000000; fill-opacity:1.0000;stroke:#000000; stroke-opacity:1.0000;
stroke-linecap:round; stroke-linejoin:round;"
 transform="translate(0 0) scale(1 1)">
</g>
<g style="fill:#000000; fill-opacity:0.0; 
stroke:#000000; stroke-width:0.0000; stroke-opacity:1; 
stroke-linecap:round; stroke-linejoin:round;">
</g>
<g style="fill:#000000; fill-opacity:0.0; 
stroke:#000000; stroke-width:0.1500; stroke-opacity:1; 
stroke-linecap:round; stroke-linejoin:round;">
<text x="49.5300" y="136.4800"
transform="scale(-1 1) translate(-99.060000 0)"
textLength="8.4881" font-size="1.3333" lengthAdjust="spacingAndGlyphs"
text-anchor="start" opacity="0">ПОЛИВОКС</text>
<g class="stroked-text"><desc>ПОЛИВОКС</desc>
<path d="M49.1932 136.4423
L49.1932 135.6423
" />
<path d="M49.1932 135.6423
L48.6218 135.6423
" />
<path d="M48.6218 135.6423
L48.6218 136.4423
" />
<path d="M47.9551 135.6423
L47.7646 135.6423
" />
<path d="M47.7646 135.6423
L47.6694 135.6804
" />
<path d="M47.6694 135.6804
L47.5742 135.7566
" />
<path d="M47.5742 135.7566
L47.5266 135.9090
" />
<path d="M47.5266 135.9090
L47.5266 136.1756
" />
<path d="M47.5266 136.1756
L47.5742 136.3280
" />
<path d="M47.5742 136.3280
L47.6694 136.4042
" />
<path d="M47.6694 136.4042
L47.7646 136.4423
" />
<path d="M47.7646 136.4423
L47.9551 136.4423
" />
<path d="M47.9551 136.4423
L48.0504 136.4042
" />
<path d="M48.0504 136.4042
L48.1456 136.3280
" />
<path d="M48.1456 136.3280
L48.1932 136.1756
" />
<path d="M48.1932 136.1756
L48.1932 135.9090
" />
<path d="M48.1932 135.9090
L48.1456 135.7566
" />
<path d="M48.1456 135.7566
L48.0504 135.6804
" />
<path d="M48.0504 135.6804
L47.9551 135.6423
" />
<path d="M46.5266 136.4423
L46.5266 135.6423
" />
<path d="M46.5266 135.6423
L46.6694 135.6423
" />
<path d="M46.6694 135.6423
L46.8123 135.6804
" />
<path d="M46.8123 135.6804
L46.9075 135.7566
" />
<path d="M46.9075 135.7566
L46.9551 135.8709
" />
<path d="M46.9551 135.8709
L47.0504 136.3280
" />
<path d="M47.0504 136.3280
L47.0980 136.4042
" />
<path d="M47.0980 136.4042
L47.1932 136.4423
" />
<path d="M47.1932 136.4423
L47.2408 136.4423
" />
<path d="M46.0504 135.6423
L46.0504 136.4423
" />
<path d="M46.0504 136.4423
L45.4789 135.6423
" />
<path d="M45.4789 135.6423
L45.4789 136.4423
" />
<path d="M44.6694 136.0232
L44.5266 136.0613
" />
<path d="M44.5266 136.0613
L44.4789 136.0994
" />
<path d="M44.4789 136.0994
L44.4313 136.1756
" />
<path d="M44.4313 136.1756
L44.4313 136.2899
" />
<path d="M44.4313 136.2899
L44.4789 136.3661
" />
<path d="M44.4789 136.3661
L44.5266 136.4042
" />
<path d="M44.5266 136.4042
L44.6218 136.4423
" />
<path d="M44.6218 136.4423
L45.0027 136.4423
" />
<path d="M45.0027 136.4423
L45.0027 135.6423
" />
<path d="M45.0027 135.6423
L44.6694 135.6423
" />
<path d="M44.6694 135.6423
L44.5742 135.6804
" />
<path d="M44.5742 135.6804
L44.5266 135.7185
" />
<path d="M44.5266 135.7185
L44.4789 135.7947
" />
<path d="M44.4789 135.7947
L44.4789 135.8709
" />
<path d="M44.4789 135.8709
L44.5266 135.9471
" />
<path d="M44.5266 135.9471
L44.5742 135.9852
" />
<path d="M44.5742 135.9852
L44.6694 136.0232
" />
<path d="M44.6694 136.0232
L45.0027 136.0232
" />
<path d="M43.8123 135.6423
L43.6218 135.6423
" />
<path d="M43.6218 135.6423
L43.5266 135.6804
" />
<path d="M43.5266 135.6804
L43.4313 135.7566
" />
<path d="M43.4313 135.7566
L43.3837 135.9090
" />
<path d="M43.3837 135.9090
L43.3837 136.1756
" />
<path d="M43.3837 136.1756
L43.4313 136.3280
" />
<path d="M43.4313 136.3280
L43.5266 136.4042
" />
<path d="M43.5266 136.4042
L43.6218 136.4423
" />
<path d="M43.6218 136.4423
L43.8123 136.4423
" />
<path d="M43.8123 136.4423
L43.9075 136.4042
" />
<path d="M43.9075 136.4042
L44.0027 136.3280
" />
<path d="M44.0027 136.3280
L44.0504 136.1756
" />
<path d="M44.0504 136.1756
L44.0504 135.9090
" />
<path d="M44.0504 135.9090
L44.0027 135.7566
" />
<path d="M44.0027 135.7566
L43.9075 135.6804
" />
<path d="M43.9075 135.6804
L43.8123 135.6423
" />
<path d="M42.9551 136.4423
L42.9551 135.6423
" />
<path d="M42.3837 136.4423
L42.8123 135.9852
" />
<path d="M42.3837 135.6423
L42.9551 136.0994
" />
<path d="M41.3837 136.3661
L41.4313 136.4042
" />
<path d="M41.4313 136.4042
L41.5742 136.4423
" />
<path d="M41.5742 136.4423
L41.6694 136.4423
" />
<path d="M41.6694 136.4423
L41.8123 136.4042
" />
<path d="M41.8123 136.4042
L41.9075 136.3280
" />
<path d="M41.9075 136.3280
L41.9551 136.2518
" />
<path d="M41.9551 136.2518
L42.0027 136.0994
" />
<path d="M42.0027 136.0994
L42.0027 135.9852
" />
<path d="M42.0027 135.9852
L41.9551 135.8328
" />
<path d="M41.9551 135.8328
L41.9075 135.7566
" />
<path d="M41.9075 135.7566
L41.8123 135.6804
" />
<path d="M41.8123 135.6804
L41.6694 135.6423
" />
<path d="M41.6694 135.6423
L41.5742 135.6423
" />
<path d="M41.5742 135.6423
L41.4313 135.6804
" />
<path d="M41.4313 135.6804
L41.3837 135.7185
" />
</g></g>
<g style="fill:#000000; fill-opacity:0.0; 
stroke:#000000; stroke-width:0.3000; stroke-opacity:1; 
stroke-linecap:round; stroke-linejoin:round;">
<text x="40.9100" y="134.7940"
transform="scale(-1 1) translate(-81.820000 0)"
textLength="18.0238" font-size="2.6667" lengthAdjust="spacingAndGlyphs"
text-anchor="middle" opacity="0">elektrophon</text>
<g class="stroked-text"><desc>elektrophon</desc>
<path d="M48.4338 134.6509
L48.6332 134.7223
" />
<path d="M48.6332 134.7223
L49.0142 134.7223
" />
<path d="M49.0142 134.7223
L49.1957 134.6509
" />
<path d="M49.1957 134.6509
L49.2731 134.5080
" />
<path d="M49.2731 134.5080
L49.2017 133.9366
" />
<path d="M49.2017 133.9366
L49.0886 133.7938
" />
<path d="M49.0886 133.7938
L48.8892 133.7223
" />
<path d="M48.8892 133.7223
L48.5082 133.7223
" />
<path d="M48.5082 133.7223
L48.3267 133.7938
" />
<path d="M48.3267 133.7938
L48.2493 133.9366
" />
<path d="M48.2493 133.9366
L48.2671 134.0795
" />
<path d="M48.2671 134.0795
L49.2374 134.2223
" />
<path d="M47.2046 134.7223
L47.3862 134.6509
" />
<path d="M47.3862 134.6509
L47.4636 134.5080
" />
<path d="M47.4636 134.5080
L47.3029 133.2223
" />
<path d="M45.6719 134.6509
L45.8713 134.7223
" />
<path d="M45.8713 134.7223
L46.2523 134.7223
" />
<path d="M46.2523 134.7223
L46.4338 134.6509
" />
<path d="M46.4338 134.6509
L46.5112 134.5080
" />
<path d="M46.5112 134.5080
L46.4398 133.9366
" />
<path d="M46.4398 133.9366
L46.3267 133.7938
" />
<path d="M46.3267 133.7938
L46.1273 133.7223
" />
<path d="M46.1273 133.7223
L45.7463 133.7223
" />
<path d="M45.7463 133.7223
L45.5648 133.7938
" />
<path d="M45.5648 133.7938
L45.4874 133.9366
" />
<path d="M45.4874 133.9366
L45.5052 134.0795
" />
<path d="M45.5052 134.0795
L46.4755 134.2223
" />
<path d="M44.7285 134.7223
L44.5410 133.2223
" />
<path d="M44.4665 134.1509
L43.9665 134.7223
" />
<path d="M43.8415 133.7223
L44.6749 134.2938
" />
<path d="M43.2701 133.7223
L42.5082 133.7223
" />
<path d="M42.9219 133.2223
L43.0826 134.5080
" />
<path d="M43.0826 134.5080
L43.0052 134.6509
" />
<path d="M43.0052 134.6509
L42.8237 134.7223
" />
<path d="M42.8237 134.7223
L42.6332 134.7223
" />
<path d="M41.9665 134.7223
L41.8415 133.7223
" />
<path d="M41.8773 134.0080
L41.7642 133.8652
" />
<path d="M41.7642 133.8652
L41.6600 133.7938
" />
<path d="M41.6600 133.7938
L41.4606 133.7223
" />
<path d="M41.4606 133.7223
L41.2701 133.7223
" />
<path d="M40.4427 134.7223
L40.6243 134.6509
" />
<path d="M40.6243 134.6509
L40.7106 134.5795
" />
<path d="M40.7106 134.5795
L40.7880 134.4366
" />
<path d="M40.7880 134.4366
L40.7344 134.0080
" />
<path d="M40.7344 134.0080
L40.6213 133.8652
" />
<path d="M40.6213 133.8652
L40.5171 133.7938
" />
<path d="M40.5171 133.7938
L40.3177 133.7223
" />
<path d="M40.3177 133.7223
L40.0320 133.7223
" />
<path d="M40.0320 133.7223
L39.8505 133.7938
" />
<path d="M39.8505 133.7938
L39.7642 133.8652
" />
<path d="M39.7642 133.8652
L39.6868 134.0080
" />
<path d="M39.6868 134.0080
L39.7404 134.4366
" />
<path d="M39.7404 134.4366
L39.8535 134.5795
" />
<path d="M39.8535 134.5795
L39.9576 134.6509
" />
<path d="M39.9576 134.6509
L40.1570 134.7223
" />
<path d="M40.1570 134.7223
L40.4427 134.7223
" />
<path d="M38.7939 133.7223
L38.9814 135.2223
" />
<path d="M38.8029 133.7938
L38.6035 133.7223
" />
<path d="M38.6035 133.7223
L38.2225 133.7223
" />
<path d="M38.2225 133.7223
L38.0410 133.7938
" />
<path d="M38.0410 133.7938
L37.9546 133.8652
" />
<path d="M37.9546 133.8652
L37.8773 134.0080
" />
<path d="M37.8773 134.0080
L37.9308 134.4366
" />
<path d="M37.9308 134.4366
L38.0439 134.5795
" />
<path d="M38.0439 134.5795
L38.1481 134.6509
" />
<path d="M38.1481 134.6509
L38.3475 134.7223
" />
<path d="M38.3475 134.7223
L38.7285 134.7223
" />
<path d="M38.7285 134.7223
L38.9100 134.6509
" />
<path d="M37.1094 134.7223
L36.9219 133.2223
" />
<path d="M36.2523 134.7223
L36.1540 133.9366
" />
<path d="M36.1540 133.9366
L36.2314 133.7938
" />
<path d="M36.2314 133.7938
L36.4130 133.7223
" />
<path d="M36.4130 133.7223
L36.6987 133.7223
" />
<path d="M36.6987 133.7223
L36.8981 133.7938
" />
<path d="M36.8981 133.7938
L37.0023 133.8652
" />
<path d="M35.0142 134.7223
L35.1957 134.6509
" />
<path d="M35.1957 134.6509
L35.2820 134.5795
" />
<path d="M35.2820 134.5795
L35.3594 134.4366
" />
<path d="M35.3594 134.4366
L35.3058 134.0080
" />
<path d="M35.3058 134.0080
L35.1927 133.8652
" />
<path d="M35.1927 133.8652
L35.0886 133.7938
" />
<path d="M35.0886 133.7938
L34.8892 133.7223
" />
<path d="M34.8892 133.7223
L34.6035 133.7223
" />
<path d="M34.6035 133.7223
L34.4219 133.7938
" />
<path d="M34.4219 133.7938
L34.3356 133.8652
" />
<path d="M34.3356 133.8652
L34.2582 134.0080
" />
<path d="M34.2582 134.0080
L34.3118 134.4366
" />
<path d="M34.3118 134.4366
L34.4249 134.5795
" />
<path d="M34.4249 134.5795
L34.5290 134.6509
" />
<path d="M34.5290 134.6509
L34.7285 134.7223
" />
<path d="M34.7285 134.7223
L35.0142 134.7223
" />
<path d="M33.3654 133.7223
L33.4904 134.7223
" />
<path d="M33.3832 133.8652
L33.2790 133.7938
" />
<path d="M33.2790 133.7938
L33.0796 133.7223
" />
<path d="M33.0796 133.7223
L32.7939 133.7223
" />
<path d="M32.7939 133.7223
L32.6124 133.7938
" />
<path d="M32.6124 133.7938
L32.5350 133.9366
" />
<path d="M32.5350 133.9366
L32.6332 134.7223
" />
</g></g>
<g style="fill:#000000; fill-opacity:0.0; 
stroke:#000000; stroke-width:0.1500; stroke-opacity:1; 
stroke-linecap:round; stroke-linejoin:round;">
<text x="32.2300" y="136.4500"
transform="scale(-1 1) translate(-64.460000 0)"
textLength="3.1548" font-size="1.3333" lengthAdjust="spacingAndGlyphs"
text-anchor="end" opacity="0">R01</text>
<g class="stroked-text"><desc>R01</desc>
<path d="M34.4239 136.4123
L34.7573 136.0313
" />
<path d="M34.9954 136.4123
L34.9954 135.6123
" />
<path d="M34.9954 135.6123
L34.6144 135.6123
" />
<path d="M34.6144 135.6123
L34.5192 135.6504
" />
<path d="M34.5192 135.6504
L34.4715 135.6885
" />
<path d="M34.4715 135.6885
L34.4239 135.7647
" />
<path d="M34.4239 135.7647
L34.4239 135.8790
" />
<path d="M34.4239 135.8790
L34.4715 135.9552
" />
<path d="M34.4715 135.9552
L34.5192 135.9932
" />
<path d="M34.5192 135.9932
L34.6144 136.0313
" />
<path d="M34.6144 136.0313
L34.9954 136.0313
" />
<path d="M33.8049 135.6123
L33.7096 135.6123
" />
<path d="M33.7096 135.6123
L33.6144 135.6504
" />
<path d="M33.6144 135.6504
L33.5668 135.6885
" />
<path d="M33.5668 135.6885
L33.5192 135.7647
" />
<path d="M33.5192 135.7647
L33.4715 135.9171
" />
<path d="M33.4715 135.9171
L33.4715 136.1075
" />
<path d="M33.4715 136.1075
L33.5192 136.2599
" />
<path d="M33.5192 136.2599
L33.5668 136.3361
" />
<path d="M33.5668 136.3361
L33.6144 136.3742
" />
<path d="M33.6144 136.3742
L33.7096 136.4123
" />
<path d="M33.7096 136.4123
L33.8049 136.4123
" />
<path d="M33.8049 136.4123
L33.9001 136.3742
" />
<path d="M33.9001 136.3742
L33.9477 136.3361
" />
<path d="M33.9477 136.3361
L33.9954 136.2599
" />
<path d="M33.9954 136.2599
L34.0430 136.1075
" />
<path d="M34.0430 136.1075
L34.0430 135.9171
" />
<path d="M34.0430 135.9171
L33.9954 135.7647
" />
<path d="M33.9954 135.7647
L33.9477 135.6885
" />
<path d="M33.9477 135.6885
L33.9001 135.6504
" />
<path d="M33.9001 135.6504
L33.8049 135.6123
" />
<path d="M32.5192 136.4123
L33.0906 136.4123
" />
<path d="M32.8049 136.4123
L32.8049 135.6123
" />
<path d="M32.8049 135.6123
L32.9001 135.7266
" />
<path d="M32.9001 135.7266
L32.9954 135.8028
" />
<path d="M32.9954 135.8028
L33.0906 135.8409
" />
</g><text x="27.4320" y="71.8300"
transform="scale(-1 1) translate(-54.864000 0)"
textLength="1.9643" font-size="1.3333" lengthAdjust="spacingAndGlyphs"
text-anchor="middle" opacity="0">J6</text>
<g class="stroked-text"><desc>J6</desc>
<path d="M27.7653 70.7848
L27.7653 71.4991
" />
<path d="M27.7653 71.4991
L27.8130 71.6420
" />
<path d="M27.8130 71.6420
L27.9082 71.7372
" />
<path d="M27.9082 71.7372
L28.0510 71.7848
" />
<path d="M28.0510 71.7848
L28.1463 71.7848
" />
<path d="M26.8606 70.7848
L27.0510 70.7848
" />
<path d="M27.0510 70.7848
L27.1463 70.8324
" />
<path d="M27.1463 70.8324
L27.1939 70.8801
" />
<path d="M27.1939 70.8801
L27.2891 71.0229
" />
<path d="M27.2891 71.0229
L27.3368 71.2134
" />
<path d="M27.3368 71.2134
L27.3368 71.5943
" />
<path d="M27.3368 71.5943
L27.2891 71.6896
" />
<path d="M27.2891 71.6896
L27.2415 71.7372
" />
<path d="M27.2415 71.7372
L27.1463 71.7848
" />
<path d="M27.1463 71.7848
L26.9558 71.7848
" />
<path d="M26.9558 71.7848
L26.8606 71.7372
" />
<path d="M26.8606 71.7372
L26.8130 71.6896
" />
<path d="M26.8130 71.6896
L26.7653 71.5943
" />
<path d="M26.7653 71.5943
L26.7653 71.3562
" />
<path d="M26.7653 71.3562
L26.8130 71.2610
" />
<path d="M26.8130 71.2610
L26.8606 71.2134
" />
<path d="M26.8606 71.2134
L26.9558 71.1658
" />
<path d="M26.9558 71.1658
L27.1463 71.1658
" />
<path d="M27.1463 71.1658
L27.2415 71.2134
" />
<path d="M27.2415 71.2134
L27.2891 71.2610
" />
<path d="M27.2891 71.2610
L27.3368 71.3562
" />
</g></g>
<g style="fill:#000000; fill-opacity:0.0; 
stroke:#000000; stroke-width:0.1200; stroke-opacity:1; 
stroke-linecap:round; stroke-linejoin:round;">
<path d="M28.7620 108.0100
L26.1020 108.0100
" />
<path d="M28.7620 74.9300
L28.7620 108.0100
" />
<path d="M28.7620 74.9300
L26.1020 74.9300
" />
<path d="M28.7620 73.6600
L28.7620 72.3300
" />
<path d="M28.7620 72.3300
L27.4320 72.3300
" />
<path d="M26.1020 74.9300
L26.1020 108.0100
" />
<g >
</g>
<g >
</g>
<g >
</g>
<g >
</g>
<g >
</g>
<g >
</g>
<g >
</g>
<g >
</g>
<g >
</g>
<g >
</g>
<g >
</g>
<g >
</g>
<g >
</g>
<g >
</g>
<g >
</g>
<g >
</g>
<g >
</g>
<g >
</g>
<g >
</g>
<g >
</g>
<g >
</g>
<g >
</g>
<g >
</g>
<g >
</g>
<g >
</g>
<g >
</g>
</g>
<g style="fill:#FFFFFF; fill-opacity:0.0; 
stroke:#FFFFFF; stroke-width:0.1200; stroke-opacity:1; 
stroke-linecap:round; stroke-linejoin:round;">
</g>
<g style="fill:#FFFFFF; fill-opacity:1.0000; 
stroke:#FFFFFF; stroke-width:0.0000; stroke-opacity:1; 
stroke-linecap:round; stroke-linejoin:round;">
<circle cx="27.9400" cy="27.9400" r="0.1750" /> 
</g>
<g style="fill:#FFFFFF; fill-opacity:1.0000; 
stroke:#FFFFFF; stroke-width:0.0212; stroke-opacity:1; 
stroke-linecap:round; stroke-linejoin:round;">
</g>
<g style="fill:#FFFFFF; fill-opacity:1.0000; 
stroke:#FFFFFF; stroke-width:0.0000; stroke-opacity:1; 
stroke-linecap:round; stroke-linejoin:round;">
<circle cx="63.1600" cy="27.9400" r="0.1750" /> 
</g>
<g style="fill:#FFFFFF; fill-opacity:1.0000; 
stroke:#FFFFFF; stroke-width:0.0212; stroke-opacity:1; 
stroke-linecap:round; stroke-linejoin:round;">
</g>
<g style="fill:#FFFFFF; fill-opacity:1.0000; 
stroke:#FFFFFF; stroke-width:0.0000; stroke-opacity:1; 
stroke-linecap:round; stroke-linejoin:round;">
<circle cx="63.1600" cy="134.6200" r="0.1750" /> 
</g>
<g style="fill:#FFFFFF; fill-opacity:1.0000; 
stroke:#FFFFFF; stroke-width:0.0212; stroke-opacity:1; 
stroke-linecap:round; stroke-linejoin:round;">
</g>
<g style="fill:#FFFFFF; fill-opacity:1.0000; 
stroke:#FFFFFF; stroke-width:0.0000; stroke-opacity:1; 
stroke-linecap:round; stroke-linejoin:round;">
<circle cx="27.9400" cy="134.6200" r="0.1750" /> 
</g>
<g style="fill:#FFFFFF; fill-opacity:1.0000; 
stroke:#FFFFFF; stroke-width:0.0212; stroke-opacity:1; 
stroke-linecap:round; stroke-linejoin:round;">
</g>
<g style="fill:#FFFFFF; fill-opacity:1.0000; 
stroke:#FFFFFF; stroke-width:0.0000; stroke-opacity:1; 
stroke-linecap:round; stroke-linejoin:round;">
<circle cx="57.1500" cy="90.6780" r="0.1750" /> 
</g>
<g style="fill:#FFFFFF; fill-opacity:1.0000; 
stroke:#FFFFFF; stroke-width:0.0212; stroke-opacity:1; 
stroke-linecap:round; stroke-linejoin:round;">
</g>
<g style="fill:#FFFFFF; fill-opacity:1.0000; 
stroke:#FFFFFF; stroke-width:0.0000; stroke-opacity:1; 
stroke-linecap:round; stroke-linejoin:round;">
<circle cx="49.5300" cy="90.6780" r="0.1750" /> 
</g>
<g style="fill:#FFFFFF; fill-opacity:1.0000; 
stroke:#FFFFFF; stroke-width:0.0212; stroke-opacity:1; 
stroke-linecap:round; stroke-linejoin:round;">
</g>
<g style="fill:#FFFFFF; fill-opacity:1.0000; 
stroke:#FFFFFF; stroke-width:0.0000; stroke-opacity:1; 
stroke-linecap:round; stroke-linejoin:round;">
<circle cx="49.5420" cy="93.8260" r="0.1750" /> 
</g>
<g style="fill:#FFFFFF; fill-opacity:1.0000; 
stroke:#FFFFFF; stroke-width:0.0212; stroke-opacity:1; 
stroke-linecap:round; stroke-linejoin:round;">
</g>
<g style="fill:#FFFFFF; fill-opacity:1.0000; 
stroke:#FFFFFF; stroke-width:0.0000; stroke-opacity:1; 
stroke-linecap:round; stroke-linejoin:round;">
<circle cx="57.1620" cy="93.8260" r="0.1750" /> 
</g>
<g style="fill:#FFFFFF; fill-opacity:1.0000; 
stroke:#FFFFFF; stroke-width:0.0212; stroke-opacity:1; 
stroke-linecap:round; stroke-linejoin:round;">
</g>
<g style="fill:#FFFFFF; fill-opacity:1.0000; 
stroke:#FFFFFF; stroke-width:0.0000; stroke-opacity:1; 
stroke-linecap:round; stroke-linejoin:round;">
<circle cx="35.5600" cy="47.1200" r="0.1750" /> 
</g>
<g style="fill:#FFFFFF; fill-opacity:1.0000; 
stroke:#FFFFFF; stroke-width:0.0212; stroke-opacity:1; 
stroke-linecap:round; stroke-linejoin:round;">
</g>
<g style="fill:#FFFFFF; fill-opacity:1.0000; 
stroke:#FFFFFF; stroke-width:0.0000; stroke-opacity:1; 
stroke-linecap:round; stroke-linejoin:round;">
<circle cx="35.5600" cy="35.7200" r="0.1750" /> 
</g>
<g style="fill:#FFFFFF; fill-opacity:1.0000; 
stroke:#FFFFFF; stroke-width:0.0212; stroke-opacity:1; 
stroke-linecap:round; stroke-linejoin:round;">
</g>
<g style="fill:#FFFFFF; fill-opacity:1.0000; 
stroke:#FFFFFF; stroke-width:0.0000; stroke-opacity:1; 
stroke-linecap:round; stroke-linejoin:round;">
<circle cx="35.5600" cy="44.0200" r="0.1750" /> 
</g>
<g style="fill:#FFFFFF; fill-opacity:1.0000; 
stroke:#FFFFFF; stroke-width:0.0212; stroke-opacity:1; 
stroke-linecap:round; stroke-linejoin:round;">
</g>
<g style="fill:#FFFFFF; fill-opacity:1.0000; 
stroke:#FFFFFF; stroke-width:0.0000; stroke-opacity:1; 
stroke-linecap:round; stroke-linejoin:round;">
<circle cx="35.5600" cy="67.4400" r="0.1750" /> 
</g>
<g style="fill:#FFFFFF; fill-opacity:1.0000; 
stroke:#FFFFFF; stroke-width:0.0212; stroke-opacity:1; 
stroke-linecap:round; stroke-linejoin:round;">
</g>
<g style="fill:#FFFFFF; fill-opacity:1.0000; 
stroke:#FFFFFF; stroke-width:0.0000; stroke-opacity:1; 
stroke-linecap:round; stroke-linejoin:round;">
<circle cx="35.5600" cy="56.0400" r="0.1750" /> 
</g>
<g style="fill:#FFFFFF; fill-opacity:1.0000; 
stroke:#FFFFFF; stroke-width:0.0212; stroke-opacity:1; 
stroke-linecap:round; stroke-linejoin:round;">
</g>
<g style="fill:#FFFFFF; fill-opacity:1.0000; 
stroke:#FFFFFF; stroke-width:0.0000; stroke-opacity:1; 
stroke-linecap:round; stroke-linejoin:round;">
<circle cx="35.5600" cy="64.3400" r="0.1750" /> 
</g>
<g style="fill:#FFFFFF; fill-opacity:1.0000; 
stroke:#FFFFFF; stroke-width:0.0212; stroke-opacity:1; 
stroke-linecap:round; stroke-linejoin:round;">
</g>
<g style="fill:#FFFFFF; fill-opacity:1.0000; 
stroke:#FFFFFF; stroke-width:0.0000; stroke-opacity:1; 
stroke-linecap:round; stroke-linejoin:round;">
<circle cx="35.5600" cy="115.4400" r="0.1750" /> 
</g>
<g style="fill:#FFFFFF; fill-opacity:1.0000; 
stroke:#FFFFFF; stroke-width:0.0212; stroke-opacity:1; 
stroke-linecap:round; stroke-linejoin:round;">
</g>
<g style="fill:#FFFFFF; fill-opacity:1.0000; 
stroke:#FFFFFF; stroke-width:0.0000; stroke-opacity:1; 
stroke-linecap:round; stroke-linejoin:round;">
<circle cx="35.5600" cy="126.8400" r="0.1750" /> 
</g>
<g style="fill:#FFFFFF; fill-opacity:1.0000; 
stroke:#FFFFFF; stroke-width:0.0212; stroke-opacity:1; 
stroke-linecap:round; stroke-linejoin:round;">
</g>
<g style="fill:#FFFFFF; fill-opacity:1.0000; 
stroke:#FFFFFF; stroke-width:0.0000; stroke-opacity:1; 
stroke-linecap:round; stroke-linejoin:round;">
<circle cx="35.5600" cy="118.5400" r="0.1750" /> 
</g>
<g style="fill:#FFFFFF; fill-opacity:1.0000; 
stroke:#FFFFFF; stroke-width:0.0212; stroke-opacity:1; 
stroke-linecap:round; stroke-linejoin:round;">
</g>
<g style="fill:#FFFFFF; fill-opacity:1.0000; 
stroke:#FFFFFF; stroke-width:0.0000; stroke-opacity:1; 
stroke-linecap:round; stroke-linejoin:round;">
<circle cx="45.7200" cy="115.4400" r="0.1750" /> 
</g>
<g style="fill:#FFFFFF; fill-opacity:1.0000; 
stroke:#FFFFFF; stroke-width:0.0212; stroke-opacity:1; 
stroke-linecap:round; stroke-linejoin:round;">
</g>
<g style="fill:#FFFFFF; fill-opacity:1.0000; 
stroke:#FFFFFF; stroke-width:0.0000; stroke-opacity:1; 
stroke-linecap:round; stroke-linejoin:round;">
<circle cx="45.7200" cy="126.8400" r="0.1750" /> 
</g>
<g style="fill:#FFFFFF; fill-opacity:1.0000; 
stroke:#FFFFFF; stroke-width:0.0212; stroke-opacity:1; 
stroke-linecap:round; stroke-linejoin:round;">
</g>
<g style="fill:#FFFFFF; fill-opacity:1.0000; 
stroke:#FFFFFF; stroke-width:0.0000; stroke-opacity:1; 
stroke-linecap:round; stroke-linejoin:round;">
<circle cx="45.7200" cy="118.5400" r="0.1750" /> 
</g>
<g style="fill:#FFFFFF; fill-opacity:1.0000; 
stroke:#FFFFFF; stroke-width:0.0212; stroke-opacity:1; 
stroke-linecap:round; stroke-linejoin:round;">
</g>
<g style="fill:#FFFFFF; fill-opacity:1.0000; 
stroke:#FFFFFF; stroke-width:0.0000; stroke-opacity:1; 
stroke-linecap:round; stroke-linejoin:round;">
<circle cx="55.8800" cy="115.4400" r="0.1750" /> 
</g>
<g style="fill:#FFFFFF; fill-opacity:1.0000; 
stroke:#FFFFFF; stroke-width:0.0212; stroke-opacity:1; 
stroke-linecap:round; stroke-linejoin:round;">
</g>
<g style="fill:#FFFFFF; fill-opacity:1.0000; 
stroke:#FFFFFF; stroke-width:0.0000; stroke-opacity:1; 
stroke-linecap:round; stroke-linejoin:round;">
<circle cx="55.8800" cy="126.8400" r="0.1750" /> 
</g>
<g style="fill:#FFFFFF; fill-opacity:1.0000; 
stroke:#FFFFFF; stroke-width:0.0212; stroke-opacity:1; 
stroke-linecap:round; stroke-linejoin:round;">
</g>
<g style="fill:#FFFFFF; fill-opacity:1.0000; 
stroke:#FFFFFF; stroke-width:0.0000; stroke-opacity:1; 
stroke-linecap:round; stroke-linejoin:round;">
<circle cx="55.8800" cy="118.5400" r="0.1750" /> 
</g>
<g style="fill:#FFFFFF; fill-opacity:1.0000; 
stroke:#FFFFFF; stroke-width:0.0212; stroke-opacity:1; 
stroke-linecap:round; stroke-linejoin:round;">
</g>
<g style="fill:#FFFFFF; fill-opacity:1.0000; 
stroke:#FFFFFF; stroke-width:0.0000; stroke-opacity:1; 
stroke-linecap:round; stroke-linejoin:round;">
<circle cx="31.4960" cy="76.2000" r="0.1750" /> 
</g>
<g style="fill:#FFFFFF; fill-opacity:1.0000; 
stroke:#FFFFFF; stroke-width:0.0212; stroke-opacity:1; 
stroke-linecap:round; stroke-linejoin:round;">
</g>
<g style="fill:#FFFFFF; fill-opacity:1.0000; 
stroke:#FFFFFF; stroke-width:0.0000; stroke-opacity:1; 
stroke-linecap:round; stroke-linejoin:round;">
<circle cx="41.6560" cy="76.2000" r="0.1750" /> 
</g>
<g style="fill:#FFFFFF; fill-opacity:1.0000; 
stroke:#FFFFFF; stroke-width:0.0212; stroke-opacity:1; 
stroke-linecap:round; stroke-linejoin:round;">
</g>
<g style="fill:#FFFFFF; fill-opacity:1.0000; 
stroke:#FFFFFF; stroke-width:0.0000; stroke-opacity:1; 
stroke-linecap:round; stroke-linejoin:round;">
<circle cx="43.1800" cy="112.2680" r="0.1750" /> 
</g>
<g style="fill:#FFFFFF; fill-opacity:1.0000; 
stroke:#FFFFFF; stroke-width:0.0212; stroke-opacity:1; 
stroke-linecap:round; stroke-linejoin:round;">
</g>
<g style="fill:#FFFFFF; fill-opacity:1.0000; 
stroke:#FFFFFF; stroke-width:0.0000; stroke-opacity:1; 
stroke-linecap:round; stroke-linejoin:round;">
<circle cx="53.3400" cy="112.2680" r="0.1750" /> 
</g>
<g style="fill:#FFFFFF; fill-opacity:1.0000; 
stroke:#FFFFFF; stroke-width:0.0212; stroke-opacity:1; 
stroke-linecap:round; stroke-linejoin:round;">
</g>
<g style="fill:#FFFFFF; fill-opacity:1.0000; 
stroke:#FFFFFF; stroke-width:0.0000; stroke-opacity:1; 
stroke-linecap:round; stroke-linejoin:round;">
<circle cx="31.7500" cy="99.0600" r="0.1750" /> 
</g>
<g style="fill:#FFFFFF; fill-opacity:1.0000; 
stroke:#FFFFFF; stroke-width:0.0212; stroke-opacity:1; 
stroke-linecap:round; stroke-linejoin:round;">
</g>
<g style="fill:#FFFFFF; fill-opacity:1.0000; 
stroke:#FFFFFF; stroke-width:0.0000; stroke-opacity:1; 
stroke-linecap:round; stroke-linejoin:round;">
<circle cx="41.9100" cy="99.0600" r="0.1750" /> 
</g>
<g style="fill:#FFFFFF; fill-opacity:1.0000; 
stroke:#FFFFFF; stroke-width:0.0212; stroke-opacity:1; 
stroke-linecap:round; stroke-linejoin:round;">
</g>
<g style="fill:#FFFFFF; fill-opacity:1.0000; 
stroke:#FFFFFF; stroke-width:0.0000; stroke-opacity:1; 
stroke-linecap:round; stroke-linejoin:round;">
<circle cx="46.4820" cy="107.9500" r="0.1750" /> 
</g>
<g style="fill:#FFFFFF; fill-opacity:1.0000; 
stroke:#FFFFFF; stroke-width:0.0212; stroke-opacity:1; 
stroke-linecap:round; stroke-linejoin:round;">
</g>
<g style="fill:#FFFFFF; fill-opacity:1.0000; 
stroke:#FFFFFF; stroke-width:0.0000; stroke-opacity:1; 
stroke-linecap:round; stroke-linejoin:round;">
<circle cx="46.4820" cy="97.7900" r="0.1750" /> 
</g>
<g style="fill:#FFFFFF; fill-opacity:1.0000; 
stroke:#FFFFFF; stroke-width:0.0212; stroke-opacity:1; 
stroke-linecap:round; stroke-linejoin:round;">
</g>
<g style="fill:#FFFFFF; fill-opacity:1.0000; 
stroke:#FFFFFF; stroke-width:0.0000; stroke-opacity:1; 
stroke-linecap:round; stroke-linejoin:round;">
<circle cx="31.7500" cy="103.6320" r="0.1750" /> 
</g>
<g style="fill:#FFFFFF; fill-opacity:1.0000; 
stroke:#FFFFFF; stroke-width:0.0212; stroke-opacity:1; 
stroke-linecap:round; stroke-linejoin:round;">
</g>
<g style="fill:#FFFFFF; fill-opacity:1.0000; 
stroke:#FFFFFF; stroke-width:0.0000; stroke-opacity:1; 
stroke-linecap:round; stroke-linejoin:round;">
<circle cx="41.9100" cy="103.6320" r="0.1750" /> 
</g>
<g style="fill:#FFFFFF; fill-opacity:1.0000; 
stroke:#FFFFFF; stroke-width:0.0212; stroke-opacity:1; 
stroke-linecap:round; stroke-linejoin:round;">
</g>
<g style="fill:#FFFFFF; fill-opacity:1.0000; 
stroke:#FFFFFF; stroke-width:0.0000; stroke-opacity:1; 
stroke-linecap:round; stroke-linejoin:round;">
<circle cx="31.7500" cy="108.2040" r="0.1750" /> 
</g>
<g style="fill:#FFFFFF; fill-opacity:1.0000; 
stroke:#FFFFFF; stroke-width:0.0212; stroke-opacity:1; 
stroke-linecap:round; stroke-linejoin:round;">
</g>
<g style="fill:#FFFFFF; fill-opacity:1.0000; 
stroke:#FFFFFF; stroke-width:0.0000; stroke-opacity:1; 
stroke-linecap:round; stroke-linejoin:round;">
<circle cx="41.9100" cy="108.2040" r="0.1750" /> 
</g>
<g style="fill:#FFFFFF; fill-opacity:1.0000; 
stroke:#FFFFFF; stroke-width:0.0212; stroke-opacity:1; 
stroke-linecap:round; stroke-linejoin:round;">
</g>
<g style="fill:#FFFFFF; fill-opacity:1.0000; 
stroke:#FFFFFF; stroke-width:1.1000; stroke-opacity:1; 
stroke-linecap:round; stroke-linejoin:round;">
</g>
<g style="fill:#FFFFFF; fill-opacity:0.0; 
stroke:#FFFFFF; stroke-width:1.1000; stroke-opacity:1; 
stroke-linecap:round; stroke-linejoin:round;">
<path d="M51.0400 40.9900
L51.0400 40.2900
" />
<path d="M60.6400 40.9900
L60.6400 40.2900
" />
</g>
<g style="fill:#FFFFFF; fill-opacity:1.0000; 
stroke:#FFFFFF; stroke-width:0.0000; stroke-opacity:1; 
stroke-linecap:round; stroke-linejoin:round;">
<circle cx="53.3400" cy="48.1400" r="0.1750" /> 
</g>
<g style="fill:#FFFFFF; fill-opacity:1.0000; 
stroke:#FFFFFF; stroke-width:0.0212; stroke-opacity:1; 
stroke-linecap:round; stroke-linejoin:round;">
</g>
<g style="fill:#FFFFFF; fill-opacity:1.0000; 
stroke:#FFFFFF; stroke-width:0.0000; stroke-opacity:1; 
stroke-linecap:round; stroke-linejoin:round;">
<circle cx="55.8400" cy="48.1400" r="0.1750" /> 
</g>
<g style="fill:#FFFFFF; fill-opacity:1.0000; 
stroke:#FFFFFF; stroke-width:0.0212; stroke-opacity:1; 
stroke-linecap:round; stroke-linejoin:round;">
</g>
<g style="fill:#FFFFFF; fill-opacity:1.0000; 
stroke:#FFFFFF; stroke-width:0.0000; stroke-opacity:1; 
stroke-linecap:round; stroke-linejoin:round;">
<circle cx="58.3400" cy="48.1400" r="0.1750" /> 
</g>
<g style="fill:#FFFFFF; fill-opacity:1.0000; 
stroke:#FFFFFF; stroke-width:0.0212; stroke-opacity:1; 
stroke-linecap:round; stroke-linejoin:round;">
</g>
<g style="fill:#FFFFFF; fill-opacity:1.0000; 
stroke:#FFFFFF; stroke-width:1.1000; stroke-opacity:1; 
stroke-linecap:round; stroke-linejoin:round;">
</g>
<g style="fill:#FFFFFF; fill-opacity:0.0; 
stroke:#FFFFFF; stroke-width:1.1000; stroke-opacity:1; 
stroke-linecap:round; stroke-linejoin:round;">
<path d="M51.0400 61.3100
L51.0400 60.6100
" />
<path d="M60.6400 61.3100
L60.6400 60.6100
" />
</g>
<g style="fill:#FFFFFF; fill-opacity:1.0000; 
stroke:#FFFFFF; stroke-width:0.0000; stroke-opacity:1; 
stroke-linecap:round; stroke-linejoin:round;">
<circle cx="53.3400" cy="68.4600" r="0.1750" /> 
</g>
<g style="fill:#FFFFFF; fill-opacity:1.0000; 
stroke:#FFFFFF; stroke-width:0.0212; stroke-opacity:1; 
stroke-linecap:round; stroke-linejoin:round;">
</g>
<g style="fill:#FFFFFF; fill-opacity:1.0000; 
stroke:#FFFFFF; stroke-width:0.0000; stroke-opacity:1; 
stroke-linecap:round; stroke-linejoin:round;">
<circle cx="55.8400" cy="68.4600" r="0.1750" /> 
</g>
<g style="fill:#FFFFFF; fill-opacity:1.0000; 
stroke:#FFFFFF; stroke-width:0.0212; stroke-opacity:1; 
stroke-linecap:round; stroke-linejoin:round;">
</g>
<g style="fill:#FFFFFF; fill-opacity:1.0000; 
stroke:#FFFFFF; stroke-width:0.0000; stroke-opacity:1; 
stroke-linecap:round; stroke-linejoin:round;">
<circle cx="58.3400" cy="68.4600" r="0.1750" /> 
</g>
<g style="fill:#FFFFFF; fill-opacity:1.0000; 
stroke:#FFFFFF; stroke-width:0.0212; stroke-opacity:1; 
stroke-linecap:round; stroke-linejoin:round;">
</g>
<g style="fill:#FFFFFF; fill-opacity:1.0000; 
stroke:#FFFFFF; stroke-width:1.1000; stroke-opacity:1; 
stroke-linecap:round; stroke-linejoin:round;">
</g>
<g style="fill:#FFFFFF; fill-opacity:0.0; 
stroke:#FFFFFF; stroke-width:1.1000; stroke-opacity:1; 
stroke-linecap:round; stroke-linejoin:round;">
<path d="M51.0400 101.9500
L51.0400 101.2500
" />
<path d="M60.6400 101.9500
L60.6400 101.2500
" />
</g>
<g style="fill:#FFFFFF; fill-opacity:1.0000; 
stroke:#FFFFFF; stroke-width:0.0000; stroke-opacity:1; 
stroke-linecap:round; stroke-linejoin:round;">
<circle cx="53.3400" cy="109.1000" r="0.1750" /> 
</g>
<g style="fill:#FFFFFF; fill-opacity:1.0000; 
stroke:#FFFFFF; stroke-width:0.0212; stroke-opacity:1; 
stroke-linecap:round; stroke-linejoin:round;">
</g>
<g style="fill:#FFFFFF; fill-opacity:1.0000; 
stroke:#FFFFFF; stroke-width:0.0000; stroke-opacity:1; 
stroke-linecap:round; stroke-linejoin:round;">
<circle cx="55.8400" cy="109.1000" r="0.1750" /> 
</g>
<g style="fill:#FFFFFF; fill-opacity:1.0000; 
stroke:#FFFFFF; stroke-width:0.0212; stroke-opacity:1; 
stroke-linecap:round; stroke-linejoin:round;">
</g>
<g style="fill:#FFFFFF; fill-opacity:1.0000; 
stroke:#FFFFFF; stroke-width:0.0000; stroke-opacity:1; 
stroke-linecap:round; stroke-linejoin:round;">
<circle cx="58.3400" cy="109.1000" r="0.1750" /> 
</g>
<g style="fill:#FFFFFF; fill-opacity:1.0000; 
stroke:#FFFFFF; stroke-width:0.0212; stroke-opacity:1; 
stroke-linecap:round; stroke-linejoin:round;">
</g>
<g style="fill:#FFFFFF; fill-opacity:1.0000; 
stroke:#FFFFFF; stroke-width:1.2000; stroke-opacity:1; 
stroke-linecap:round; stroke-linejoin:round;">
</g>
<g style="fill:#FFFFFF; fill-opacity:0.0; 
stroke:#FFFFFF; stroke-width:1.2000; stroke-opacity:1; 
stroke-linecap:round; stroke-linejoin:round;">
<path d="M55.3800 76.5800
L56.3800 76.5800
" />
<path d="M55.3800 81.2800
L56.3800 81.2800
" />
<path d="M55.3800 85.9800
L56.3800 85.9800
" />
</g>
<g style="fill:#FFFFFF; fill-opacity:1.0000; 
stroke:#FFFFFF; stroke-width:0.0000; stroke-opacity:1; 
stroke-linecap:round; stroke-linejoin:round;">
<circle cx="27.4320" cy="73.6600" r="0.1750" /> 
</g>
<g style="fill:#FFFFFF; fill-opacity:1.0000; 
stroke:#FFFFFF; stroke-width:0.0212; stroke-opacity:1; 
stroke-linecap:round; stroke-linejoin:round;">
</g>
<g style="fill:#FFFFFF; fill-opacity:1.0000; 
stroke:#FFFFFF; stroke-width:0.0000; stroke-opacity:1; 
stroke-linecap:round; stroke-linejoin:round;">
<circle cx="27.4320" cy="76.2000" r="0.1750" /> 
</g>
<g style="fill:#FFFFFF; fill-opacity:1.0000; 
stroke:#FFFFFF; stroke-width:0.0212; stroke-opacity:1; 
stroke-linecap:round; stroke-linejoin:round;">
</g>
<g style="fill:#FFFFFF; fill-opacity:1.0000; 
stroke:#FFFFFF; stroke-width:0.0000; stroke-opacity:1; 
stroke-linecap:round; stroke-linejoin:round;">
<circle cx="27.4320" cy="78.7400" r="0.1750" /> 
</g>
<g style="fill:#FFFFFF; fill-opacity:1.0000; 
stroke:#FFFFFF; stroke-width:0.0212; stroke-opacity:1; 
stroke-linecap:round; stroke-linejoin:round;">
</g>
<g style="fill:#FFFFFF; fill-opacity:1.0000; 
stroke:#FFFFFF; stroke-width:0.0000; stroke-opacity:1; 
stroke-linecap:round; stroke-linejoin:round;">
<circle cx="27.4320" cy="81.2800" r="0.1750" /> 
</g>
<g style="fill:#FFFFFF; fill-opacity:1.0000; 
stroke:#FFFFFF; stroke-width:0.0212; stroke-opacity:1; 
stroke-linecap:round; stroke-linejoin:round;">
</g>
<g style="fill:#FFFFFF; fill-opacity:1.0000; 
stroke:#FFFFFF; stroke-width:0.0000; stroke-opacity:1; 
stroke-linecap:round; stroke-linejoin:round;">
<circle cx="27.4320" cy="83.8200" r="0.1750" /> 
</g>
<g style="fill:#FFFFFF; fill-opacity:1.0000; 
stroke:#FFFFFF; stroke-width:0.0212; stroke-opacity:1; 
stroke-linecap:round; stroke-linejoin:round;">
</g>
<g style="fill:#FFFFFF; fill-opacity:1.0000; 
stroke:#FFFFFF; stroke-width:0.0000; stroke-opacity:1; 
stroke-linecap:round; stroke-linejoin:round;">
<circle cx="27.4320" cy="86.3600" r="0.1750" /> 
</g>
<g style="fill:#FFFFFF; fill-opacity:1.0000; 
stroke:#FFFFFF; stroke-width:0.0212; stroke-opacity:1; 
stroke-linecap:round; stroke-linejoin:round;">
</g>
<g style="fill:#FFFFFF; fill-opacity:1.0000; 
stroke:#FFFFFF; stroke-width:0.0000; stroke-opacity:1; 
stroke-linecap:round; stroke-linejoin:round;">
<circle cx="27.4320" cy="88.9000" r="0.1750" /> 
</g>
<g style="fill:#FFFFFF; fill-opacity:1.0000; 
stroke:#FFFFFF; stroke-width:0.0212; stroke-opacity:1; 
stroke-linecap:round; stroke-linejoin:round;">
</g>
<g style="fill:#FFFFFF; fill-opacity:1.0000; 
stroke:#FFFFFF; stroke-width:0.0000; stroke-opacity:1; 
stroke-linecap:round; stroke-linejoin:round;">
<circle cx="27.4320" cy="91.4400" r="0.1750" /> 
</g>
<g style="fill:#FFFFFF; fill-opacity:1.0000; 
stroke:#FFFFFF; stroke-width:0.0212; stroke-opacity:1; 
stroke-linecap:round; stroke-linejoin:round;">
</g>
<g style="fill:#FFFFFF; fill-opacity:1.0000; 
stroke:#FFFFFF; stroke-width:0.0000; stroke-opacity:1; 
stroke-linecap:round; stroke-linejoin:round;">
<circle cx="27.4320" cy="93.9800" r="0.1750" /> 
</g>
<g style="fill:#FFFFFF; fill-opacity:1.0000; 
stroke:#FFFFFF; stroke-width:0.0212; stroke-opacity:1; 
stroke-linecap:round; stroke-linejoin:round;">
</g>
<g style="fill:#FFFFFF; fill-opacity:1.0000; 
stroke:#FFFFFF; stroke-width:0.0000; stroke-opacity:1; 
stroke-linecap:round; stroke-linejoin:round;">
<circle cx="27.4320" cy="96.5200" r="0.1750" /> 
</g>
<g style="fill:#FFFFFF; fill-opacity:1.0000; 
stroke:#FFFFFF; stroke-width:0.0212; stroke-opacity:1; 
stroke-linecap:round; stroke-linejoin:round;">
</g>
<g style="fill:#FFFFFF; fill-opacity:1.0000; 
stroke:#FFFFFF; stroke-width:0.0000; stroke-opacity:1; 
stroke-linecap:round; stroke-linejoin:round;">
<circle cx="27.4320" cy="99.0600" r="0.1750" /> 
</g>
<g style="fill:#FFFFFF; fill-opacity:1.0000; 
stroke:#FFFFFF; stroke-width:0.0212; stroke-opacity:1; 
stroke-linecap:round; stroke-linejoin:round;">
</g>
<g style="fill:#FFFFFF; fill-opacity:1.0000; 
stroke:#FFFFFF; stroke-width:0.0000; stroke-opacity:1; 
stroke-linecap:round; stroke-linejoin:round;">
<circle cx="27.4320" cy="101.6000" r="0.1750" /> 
</g>
<g style="fill:#FFFFFF; fill-opacity:1.0000; 
stroke:#FFFFFF; stroke-width:0.0212; stroke-opacity:1; 
stroke-linecap:round; stroke-linejoin:round;">
</g>
<g style="fill:#FFFFFF; fill-opacity:1.0000; 
stroke:#FFFFFF; stroke-width:0.0000; stroke-opacity:1; 
stroke-linecap:round; stroke-linejoin:round;">
<circle cx="27.4320" cy="104.1400" r="0.1750" /> 
</g>
<g style="fill:#FFFFFF; fill-opacity:1.0000; 
stroke:#FFFFFF; stroke-width:0.0212; stroke-opacity:1; 
stroke-linecap:round; stroke-linejoin:round;">
</g>
<g style="fill:#FFFFFF; fill-opacity:1.0000; 
stroke:#FFFFFF; stroke-width:0.0000; stroke-opacity:1; 
stroke-linecap:round; stroke-linejoin:round;">
<circle cx="27.4320" cy="106.6800" r="0.1750" /> 
</g>
<g style="fill:#FFFFFF; fill-opacity:1.0000; 
stroke:#FFFFFF; stroke-width:0.0212; stroke-opacity:1; 
stroke-linecap:round; stroke-linejoin:round;">
</g>
<g style="fill:#000000; fill-opacity:1.0000; 
stroke:#000000; stroke-width:0.0212; stroke-opacity:1; 
stroke-linecap:round; stroke-linejoin:round;">
</g> 
</svg>
