<?xml version="1.0" standalone="no"?>
 <!DOCTYPE svg PUBLIC "-//W3C//DTD SVG 1.1//EN" 
 "http://www.w3.org/Graphics/SVG/1.1/DTD/svg11.dtd"> 
<svg
  xmlns:svg="http://www.w3.org/2000/svg"
  xmlns="http://www.w3.org/2000/svg"
  xmlns:xlink="http://www.w3.org/1999/xlink"
  version="1.1"
  width="297.0022mm" height="210.0072mm" viewBox="0.0000 0.0000 297.0022 210.0072">
<title>SVG Image created as mount-Dwgs_User.svg date 2023/11/07 21:17:12 </title>
  <desc>Image generated by PCBNEW </desc>
<g style="fill:#000000; fill-opacity:1.0000;stroke:#000000; stroke-opacity:1.0000;
stroke-linecap:round; stroke-linejoin:round;"
 transform="translate(0 0) scale(1 1)">
</g>
<g style="fill:#000000; fill-opacity:0.0; 
stroke:#000000; stroke-width:0.0000; stroke-opacity:1; 
stroke-linecap:round; stroke-linejoin:round;">
</g>
<g style="fill:#000000; fill-opacity:0.0; 
stroke:#000000; stroke-width:0.1200; stroke-opacity:1; 
stroke-linecap:round; stroke-linejoin:round;">
<path d="M36.9800 40.2450
L35.1600 42.0600
" />
<path d="M36.9700 41.1000
L36.0200 42.0500
" />
<path d="M36.6300 39.6300
L34.5500 41.7100
" />
<path d="M36.1400 39.2900
L34.2000 41.2300
" />
<path d="M35.4700 39.1600
L34.0800 40.5500
" />
<circle cx="35.5600" cy="40.6400" r="1.5000" /> 
<path d="M36.9800 60.5650
L35.1600 62.3800
" />
<path d="M36.9700 61.4200
L36.0200 62.3700
" />
<path d="M36.6300 59.9500
L34.5500 62.0300
" />
<path d="M36.1400 59.6100
L34.2000 61.5500
" />
<path d="M35.4700 59.4800
L34.0800 60.8700
" />
<circle cx="35.5600" cy="60.9600" r="1.5000" /> 
<path d="M34.1400 122.3150
L35.9600 120.5000
" />
<path d="M34.1500 121.4600
L35.1000 120.5100
" />
<path d="M34.4900 122.9300
L36.5700 120.8500
" />
<path d="M34.9800 123.2700
L36.9200 121.3300
" />
<path d="M35.6500 123.4000
L37.0400 122.0100
" />
<circle cx="35.5600" cy="121.9200" r="1.5000" /> 
<path d="M44.3000 122.3150
L46.1200 120.5000
" />
<path d="M44.3100 121.4600
L45.2600 120.5100
" />
<path d="M44.6500 122.9300
L46.7300 120.8500
" />
<path d="M45.1400 123.2700
L47.0800 121.3300
" />
<path d="M45.8100 123.4000
L47.2000 122.0100
" />
<circle cx="45.7200" cy="121.9200" r="1.5000" /> 
<path d="M54.4600 122.3150
L56.2800 120.5000
" />
<path d="M54.4700 121.4600
L55.4200 120.5100
" />
<path d="M54.8100 122.9300
L56.8900 120.8500
" />
<path d="M55.3000 123.2700
L57.2400 121.3300
" />
<path d="M55.9700 123.4000
L57.3600 122.0100
" />
<circle cx="55.8800" cy="121.9200" r="1.5000" /> 
<g >
</g>
<g >
</g>
<g >
</g>
<g >
</g>
<g >
</g>
<g >
</g>
<g >
</g>
<g >
</g>
<g >
</g>
<g >
</g>
<g >
</g>
<g >
</g>
<g >
</g>
<g >
</g>
<g >
</g>
<g >
</g>
<g >
</g>
<g >
</g>
<g >
</g>
<g >
</g>
<g >
</g>
<g >
</g>
<g >
</g>
<g >
</g>
<g >
</g>
<g >
</g>
</g> 
</svg>
