<?xml version="1.0" standalone="no"?>
 <!DOCTYPE svg PUBLIC "-//W3C//DTD SVG 1.1//EN" 
 "http://www.w3.org/Graphics/SVG/1.1/DTD/svg11.dtd"> 
<svg
  xmlns:svg="http://www.w3.org/2000/svg"
  xmlns="http://www.w3.org/2000/svg"
  xmlns:xlink="http://www.w3.org/1999/xlink"
  version="1.1"
  width="297.0022mm" height="210.0072mm" viewBox="0.0000 0.0000 297.0022 210.0072">
<title>SVG Image created as mount-F_CrtYd.svg date 2023/11/07 21:18:52 </title>
  <desc>Image generated by PCBNEW </desc>
<g style="fill:#000000; fill-opacity:1.0000;stroke:#000000; stroke-opacity:1.0000;
stroke-linecap:round; stroke-linejoin:round;"
 transform="translate(0 0) scale(1 1)">
</g>
<g style="fill:#000000; fill-opacity:0.0; 
stroke:#000000; stroke-width:0.0000; stroke-opacity:1; 
stroke-linecap:round; stroke-linejoin:round;">
</g>
<g style="fill:#000000; fill-opacity:0.0; 
stroke:#000000; stroke-width:0.0500; stroke-opacity:1; 
stroke-linecap:round; stroke-linejoin:round;">
<path d="M62.8200 57.5830
L62.8200 64.0830
" />
<path d="M62.8200 64.0830
L69.2700 64.0830
" />
<path d="M69.2700 57.5830
L62.8200 57.5830
" />
<path d="M69.2700 64.0830
L69.2700 57.5830
" />
<path d="M62.8200 98.3500
L62.8200 104.8500
" />
<path d="M62.8200 104.8500
L69.2700 104.8500
" />
<path d="M69.2700 98.3500
L62.8200 98.3500
" />
<path d="M69.2700 104.8500
L69.2700 98.3500
" />
<path d="M30.5600 87.7800
L30.5600 73.3800
" />
<path d="M40.5600 73.3800
L30.5600 73.3800
" />
<path d="M40.5600 87.7800
L30.5600 87.7800
" />
<path d="M40.5600 87.7800
L40.5600 73.3800
" />
<path d="M30.5600 47.1400
L30.5600 32.7400
" />
<path d="M40.5600 32.7400
L30.5600 32.7400
" />
<path d="M40.5600 47.1400
L30.5600 47.1400
" />
<path d="M40.5600 47.1400
L40.5600 32.7400
" />
<path d="M30.5600 67.4600
L30.5600 53.0600
" />
<path d="M40.5600 53.0600
L30.5600 53.0600
" />
<path d="M40.5600 67.4600
L30.5600 67.4600
" />
<path d="M40.5600 67.4600
L40.5600 53.0600
" />
<path d="M71.2000 87.7800
L71.2000 73.3800
" />
<path d="M81.2000 73.3800
L71.2000 73.3800
" />
<path d="M81.2000 87.7800
L71.2000 87.7800
" />
<path d="M81.2000 87.7800
L81.2000 73.3800
" />
<path d="M30.5600 128.4200
L30.5600 114.0200
" />
<path d="M40.5600 114.0200
L30.5600 114.0200
" />
<path d="M40.5600 128.4200
L30.5600 128.4200
" />
<path d="M40.5600 128.4200
L40.5600 114.0200
" />
<path d="M42.0600 106.6000
L27.6600 106.6000
" />
<path d="M27.6600 96.6000
L27.6600 106.6000
" />
<path d="M42.0600 96.6000
L42.0600 106.6000
" />
<path d="M42.0600 96.6000
L27.6600 96.6000
" />
<path d="M71.2000 67.4600
L71.2000 53.0600
" />
<path d="M81.2000 53.0600
L71.2000 53.0600
" />
<path d="M81.2000 67.4600
L71.2000 67.4600
" />
<path d="M81.2000 67.4600
L81.2000 53.0600
" />
<path d="M50.8800 67.4600
L50.8800 53.0600
" />
<path d="M60.8800 53.0600
L50.8800 53.0600
" />
<path d="M60.8800 67.4600
L50.8800 67.4600
" />
<path d="M60.8800 67.4600
L60.8800 53.0600
" />
<path d="M45.8000 87.7800
L45.8000 73.3800
" />
<path d="M55.8000 73.3800
L45.8000 73.3800
" />
<path d="M55.8000 87.7800
L45.8000 87.7800
" />
<path d="M55.8000 87.7800
L55.8000 73.3800
" />
<path d="M55.9600 87.7800
L55.9600 73.3800
" />
<path d="M65.9600 73.3800
L55.9600 73.3800
" />
<path d="M65.9600 87.7800
L55.9600 87.7800
" />
<path d="M65.9600 87.7800
L65.9600 73.3800
" />
<path d="M50.8800 108.1000
L50.8800 93.7000
" />
<path d="M60.8800 93.7000
L50.8800 93.7000
" />
<path d="M60.8800 108.1000
L50.8800 108.1000
" />
<path d="M60.8800 108.1000
L60.8800 93.7000
" />
<path d="M71.2000 108.1000
L71.2000 93.7000
" />
<path d="M81.2000 93.7000
L71.2000 93.7000
" />
<path d="M81.2000 108.1000
L71.2000 108.1000
" />
<path d="M81.2000 108.1000
L81.2000 93.7000
" />
<path d="M49.4300 49.2900
L62.2500 49.2900
" />
<path d="M62.2500 49.2900
L62.2500 35.5400
" />
<path d="M49.4300 35.5400
L49.4300 49.2900
" />
<path d="M62.2500 35.5400
L49.4300 35.5400
" />
<path d="M49.4300 130.5700
L62.2500 130.5700
" />
<path d="M62.2500 130.5700
L62.2500 116.8200
" />
<path d="M49.4300 116.8200
L49.4300 130.5700
" />
<path d="M62.2500 116.8200
L49.4300 116.8200
" />
<path d="M46.4000 96.5700
L46.4000 90.0700
" />
<path d="M46.4000 90.0700
L39.9500 90.0700
" />
<path d="M39.9500 96.5700
L46.4000 96.5700
" />
<path d="M39.9500 90.0700
L39.9500 96.5700
" />
<circle cx="27.9400" cy="27.9400" r="2.4500" /> 
<circle cx="83.4600" cy="134.6200" r="2.4500" /> 
<path d="M69.7500 130.5700
L82.5700 130.5700
" />
<path d="M82.5700 130.5700
L82.5700 116.8200
" />
<path d="M69.7500 116.8200
L69.7500 130.5700
" />
<path d="M82.5700 116.8200
L69.7500 116.8200
" />
<path d="M69.7500 49.2900
L82.5700 49.2900
" />
<path d="M82.5700 49.2900
L82.5700 35.5400
" />
<path d="M69.7500 35.5400
L69.7500 49.2900
" />
<path d="M82.5700 35.5400
L69.7500 35.5400
" />
<circle cx="83.4600" cy="27.9400" r="2.4500" /> 
<circle cx="27.9400" cy="134.6200" r="2.4500" /> 
<g >
</g>
<g >
</g>
<g >
</g>
<g >
</g>
<g >
</g>
<g >
</g>
<g >
</g>
<g >
</g>
<g >
</g>
<g >
</g>
<g >
</g>
<g >
</g>
<g >
</g>
<g >
</g>
<g >
</g>
<g >
</g>
<g >
</g>
<g >
</g>
<g >
</g>
<g >
</g>
<g >
</g>
<g >
</g>
<g >
</g>
<g >
</g>
<g >
</g>
<g >
</g>
<g >
</g>
<g >
</g>
<g >
</g>
</g> 
</svg>
