<?xml version="1.0" standalone="no"?>
 <!DOCTYPE svg PUBLIC "-//W3C//DTD SVG 1.1//EN" 
 "http://www.w3.org/Graphics/SVG/1.1/DTD/svg11.dtd"> 
<svg
  xmlns:svg="http://www.w3.org/2000/svg"
  xmlns="http://www.w3.org/2000/svg"
  xmlns:xlink="http://www.w3.org/1999/xlink"
  version="1.1"
  width="297.0022mm" height="210.0072mm" viewBox="0.0000 0.0000 297.0022 210.0072">
<title>SVG Image created as main-B_CrtYd.svg date 2023/11/06 19:03:57 </title>
  <desc>Image generated by PCBNEW </desc>
<g style="fill:#000000; fill-opacity:1.0000;stroke:#000000; stroke-opacity:1.0000;
stroke-linecap:round; stroke-linejoin:round;"
 transform="translate(0 0) scale(1 1)">
</g>
<g style="fill:#000000; fill-opacity:0.0; 
stroke:#000000; stroke-width:0.0000; stroke-opacity:1; 
stroke-linecap:round; stroke-linejoin:round;">
</g>
<g style="fill:#000000; fill-opacity:0.0; 
stroke:#000000; stroke-width:0.0500; stroke-opacity:1; 
stroke-linecap:round; stroke-linejoin:round;">
<circle cx="59.8010" cy="53.9750" r="2.7500" /> 
<circle cx="53.8640" cy="53.8480" r="2.7500" /> 
<path d="M69.4570 60.9570
L69.4570 51.0570
" />
<path d="M90.8170 60.9570
L69.4570 60.9570
" />
<path d="M69.4570 51.0570
L90.8170 51.0570
" />
<path d="M90.8170 51.0570
L90.8170 60.9570
" />
<path d="M64.2280 53.6870
L68.7680 53.6870
" />
<path d="M64.2280 55.7870
L64.2280 53.6870
" />
<path d="M68.7680 53.6870
L68.7680 55.7870
" />
<path d="M68.7680 55.7870
L64.2280 55.7870
" />
<path d="M64.2280 51.2740
L68.7680 51.2740
" />
<path d="M64.2280 53.3740
L64.2280 51.2740
" />
<path d="M68.7680 51.2740
L68.7680 53.3740
" />
<path d="M68.7680 53.3740
L64.2280 53.3740
" />
<path d="M88.3260 76.2550
L86.4260 76.2550
" />
<path d="M86.4260 76.2550
L86.4260 79.9550
" />
<path d="M88.3260 79.9550
L88.3260 76.2550
" />
<path d="M86.4260 79.9550
L88.3260 79.9550
" />
<path d="M83.1240 79.9550
L85.0240 79.9550
" />
<path d="M85.0240 79.9550
L85.0240 76.2550
" />
<path d="M83.1240 76.2550
L83.1240 79.9550
" />
<path d="M85.0240 76.2550
L83.1240 76.2550
" />
<path d="M88.3260 96.5450
L86.4260 96.5450
" />
<path d="M86.4260 96.5450
L86.4260 100.2450
" />
<path d="M88.3260 100.2450
L88.3260 96.5450
" />
<path d="M86.4260 100.2450
L88.3260 100.2450
" />
<path d="M83.1240 100.2450
L85.0240 100.2450
" />
<path d="M85.0240 100.2450
L85.0240 96.5450
" />
<path d="M83.1240 96.5450
L83.1240 100.2450
" />
<path d="M85.0240 96.5450
L83.1240 96.5450
" />
<path d="M88.3260 116.8950
L86.4260 116.8950
" />
<path d="M86.4260 116.8950
L86.4260 120.5950
" />
<path d="M88.3260 120.5950
L88.3260 116.8950
" />
<path d="M86.4260 120.5950
L88.3260 120.5950
" />
<path d="M83.1240 120.5950
L85.0240 120.5950
" />
<path d="M85.0240 120.5950
L85.0240 116.8950
" />
<path d="M83.1240 116.8950
L83.1240 120.5950
" />
<path d="M85.0240 116.8950
L83.1240 116.8950
" />
<path d="M88.3260 135.9150
L86.4260 135.9150
" />
<path d="M86.4260 135.9150
L86.4260 139.6150
" />
<path d="M88.3260 139.6150
L88.3260 135.9150
" />
<path d="M86.4260 139.6150
L88.3260 139.6150
" />
<path d="M83.1240 139.6150
L85.0240 139.6150
" />
<path d="M85.0240 139.6150
L85.0240 135.9150
" />
<path d="M83.1240 135.9150
L83.1240 139.6150
" />
<path d="M85.0240 135.9150
L83.1240 135.9150
" />
<path d="M75.2500 75.5100
L77.1500 75.5100
" />
<path d="M77.1500 75.5100
L77.1500 71.8100
" />
<path d="M75.2500 71.8100
L75.2500 75.5100
" />
<path d="M77.1500 71.8100
L75.2500 71.8100
" />
<path d="M77.1500 92.1300
L75.2500 92.1300
" />
<path d="M75.2500 92.1300
L75.2500 95.8300
" />
<path d="M77.1500 95.8300
L77.1500 92.1300
" />
<path d="M75.2500 95.8300
L77.1500 95.8300
" />
<path d="M76.8960 112.8150
L74.9960 112.8150
" />
<path d="M74.9960 112.8150
L74.9960 116.5150
" />
<path d="M76.8960 116.5150
L76.8960 112.8150
" />
<path d="M74.9960 116.5150
L76.8960 116.5150
" />
<path d="M77.1500 132.1350
L75.2500 132.1350
" />
<path d="M75.2500 132.1350
L75.2500 135.8350
" />
<path d="M77.1500 135.8350
L77.1500 132.1350
" />
<path d="M75.2500 135.8350
L77.1500 135.8350
" />
<path d="M72.0750 75.5100
L73.9750 75.5100
" />
<path d="M73.9750 75.5100
L73.9750 71.8100
" />
<path d="M72.0750 71.8100
L72.0750 75.5100
" />
<path d="M73.9750 71.8100
L72.0750 71.8100
" />
<path d="M72.0750 95.8300
L73.9750 95.8300
" />
<path d="M73.9750 95.8300
L73.9750 92.1300
" />
<path d="M72.0750 92.1300
L72.0750 95.8300
" />
<path d="M73.9750 92.1300
L72.0750 92.1300
" />
<path d="M72.0750 116.5150
L73.9750 116.5150
" />
<path d="M73.9750 116.5150
L73.9750 112.8150
" />
<path d="M72.0750 112.8150
L72.0750 116.5150
" />
<path d="M73.9750 112.8150
L72.0750 112.8150
" />
<path d="M72.0750 135.8350
L73.9750 135.8350
" />
<path d="M73.9750 135.8350
L73.9750 132.1350
" />
<path d="M72.0750 132.1350
L72.0750 135.8350
" />
<path d="M73.9750 132.1350
L72.0750 132.1350
" />
<path d="M69.5350 78.6850
L71.4350 78.6850
" />
<path d="M71.4350 78.6850
L71.4350 74.9850
" />
<path d="M69.5350 74.9850
L69.5350 78.6850
" />
<path d="M71.4350 74.9850
L69.5350 74.9850
" />
<path d="M69.5350 99.0050
L71.4350 99.0050
" />
<path d="M71.4350 99.0050
L71.4350 95.3050
" />
<path d="M69.5350 95.3050
L69.5350 99.0050
" />
<path d="M71.4350 95.3050
L69.5350 95.3050
" />
<path d="M69.5350 119.3250
L71.4350 119.3250
" />
<path d="M71.4350 119.3250
L71.4350 115.6250
" />
<path d="M69.5350 115.6250
L69.5350 119.3250
" />
<path d="M71.4350 115.6250
L69.5350 115.6250
" />
<path d="M69.5350 139.0100
L71.4350 139.0100
" />
<path d="M71.4350 139.0100
L71.4350 135.3100
" />
<path d="M69.5350 135.3100
L69.5350 139.0100
" />
<path d="M71.4350 135.3100
L69.5350 135.3100
" />
<path d="M54.9250 140.4870
L53.0250 140.4870
" />
<path d="M53.0250 140.4870
L53.0250 144.1870
" />
<path d="M54.9250 144.1870
L54.9250 140.4870
" />
<path d="M53.0250 144.1870
L54.9250 144.1870
" />
<path d="M58.0608 140.4870
L56.1608 140.4870
" />
<path d="M56.1608 140.4870
L56.1608 144.1870
" />
<path d="M58.0608 144.1870
L58.0608 140.4870
" />
<path d="M56.1608 144.1870
L58.0608 144.1870
" />
<path d="M61.1965 140.4870
L59.2965 140.4870
" />
<path d="M59.2965 140.4870
L59.2965 144.1870
" />
<path d="M61.1965 144.1870
L61.1965 140.4870
" />
<path d="M59.2965 144.1870
L61.1965 144.1870
" />
<path d="M64.3322 140.4870
L62.4322 140.4870
" />
<path d="M62.4322 140.4870
L62.4322 144.1870
" />
<path d="M64.3322 144.1870
L64.3322 140.4870
" />
<path d="M62.4322 144.1870
L64.3322 144.1870
" />
<path d="M58.2270 146.9940
L56.3270 146.9940
" />
<path d="M56.3270 146.9940
L56.3270 150.6940
" />
<path d="M58.2270 150.6940
L58.2270 146.9940
" />
<path d="M56.3270 150.6940
L58.2270 150.6940
" />
<path d="M71.0650 147.7620
L71.0650 145.8620
" />
<path d="M71.0650 145.8620
L67.3650 145.8620
" />
<path d="M67.3650 147.7620
L71.0650 147.7620
" />
<path d="M67.3650 145.8620
L67.3650 147.7620
" />
<path d="M67.3650 149.1640
L67.3650 151.0640
" />
<path d="M67.3650 151.0640
L71.0650 151.0640
" />
<path d="M71.0650 149.1640
L67.3650 149.1640
" />
<path d="M71.0650 151.0640
L71.0650 149.1640
" />
<path d="M75.3660 151.1960
L75.3660 153.0960
" />
<path d="M75.3660 153.0960
L79.0660 153.0960
" />
<path d="M79.0660 151.1960
L75.3660 151.1960
" />
<path d="M79.0660 153.0960
L79.0660 151.1960
" />
<path d="M69.5050 103.4800
L71.4650 103.4800
" />
<path d="M71.4650 103.4800
L71.4650 99.7200
" />
<path d="M69.5050 99.7200
L69.5050 103.4800
" />
<path d="M71.4650 99.7200
L69.5050 99.7200
" />
<path d="M81.4980 96.5450
L79.5380 96.5450
" />
<path d="M79.5380 96.5450
L79.5380 100.3050
" />
<path d="M81.4980 100.3050
L81.4980 96.5450
" />
<path d="M79.5380 100.3050
L81.4980 100.3050
" />
<path d="M66.3960 153.3800
L66.3960 151.4200
" />
<path d="M66.3960 151.4200
L62.6360 151.4200
" />
<path d="M62.6360 153.3800
L66.3960 153.3800
" />
<path d="M62.6360 151.4200
L62.6360 153.3800
" />
<path d="M67.5280 140.4870
L65.5680 140.4870
" />
<path d="M65.5680 140.4870
L65.5680 144.2470
" />
<path d="M67.5280 144.2470
L67.5280 140.4870
" />
<path d="M65.5680 144.2470
L67.5280 144.2470
" />
<path d="M69.5050 143.4850
L71.4650 143.4850
" />
<path d="M71.4650 143.4850
L71.4650 139.7250
" />
<path d="M69.5050 139.7250
L69.5050 143.4850
" />
<path d="M71.4650 139.7250
L69.5050 139.7250
" />
<path d="M81.4980 135.9150
L79.5380 135.9150
" />
<path d="M79.5380 135.9150
L79.5380 139.6750
" />
<path d="M81.4980 139.6750
L81.4980 135.9150
" />
<path d="M79.5380 139.6750
L81.4980 139.6750
" />
<path d="M52.9950 150.7240
L54.9550 150.7240
" />
<path d="M54.9550 150.7240
L54.9550 146.9640
" />
<path d="M52.9950 146.9640
L52.9950 150.7240
" />
<path d="M54.9550 146.9640
L52.9950 146.9640
" />
<path d="M69.5050 83.1600
L71.4650 83.1600
" />
<path d="M71.4650 83.1600
L71.4650 79.4000
" />
<path d="M69.5050 79.4000
L69.5050 83.1600
" />
<path d="M71.4650 79.4000
L69.5050 79.4000
" />
<path d="M81.4980 76.2550
L79.5380 76.2550
" />
<path d="M79.5380 76.2550
L79.5380 80.0150
" />
<path d="M81.4980 80.0150
L81.4980 76.2550
" />
<path d="M79.5380 80.0150
L81.4980 80.0150
" />
<path d="M89.5100 152.4910
L89.5100 150.5310
" />
<path d="M89.5100 150.5310
L85.7500 150.5310
" />
<path d="M85.7500 152.4910
L89.5100 152.4910
" />
<path d="M85.7500 150.5310
L85.7500 152.4910
" />
<path d="M87.9860 143.2200
L87.9860 141.2600
" />
<path d="M87.9860 141.2600
L84.2260 141.2600
" />
<path d="M84.2260 143.2200
L87.9860 143.2200
" />
<path d="M84.2260 141.2600
L84.2260 143.2200
" />
<path d="M69.5050 123.8000
L71.4650 123.8000
" />
<path d="M71.4650 123.8000
L71.4650 120.0400
" />
<path d="M69.5050 120.0400
L69.5050 123.8000
" />
<path d="M71.4650 120.0400
L69.5050 120.0400
" />
<path d="M81.4980 116.8950
L79.5380 116.8950
" />
<path d="M79.5380 116.8950
L79.5380 120.6550
" />
<path d="M81.4980 120.6550
L81.4980 116.8950
" />
<path d="M79.5380 120.6550
L81.4980 120.6550
" />
<path d="M62.0480 61.9100
L62.0480 60.0100
" />
<path d="M62.0480 60.0100
L58.3480 60.0100
" />
<path d="M58.3480 61.9100
L62.0480 61.9100
" />
<path d="M58.3480 60.0100
L58.3480 61.9100
" />
<path d="M85.7800 153.7360
L85.7800 155.6360
" />
<path d="M85.7800 155.6360
L89.4800 155.6360
" />
<path d="M89.4800 153.7360
L85.7800 153.7360
" />
<path d="M89.4800 155.6360
L89.4800 153.7360
" />
<path d="M69.9050 68.9000
L69.9050 70.8000
" />
<path d="M69.9050 70.8000
L73.6050 70.8000
" />
<path d="M73.6050 68.9000
L69.9050 68.9000
" />
<path d="M73.6050 70.8000
L73.6050 68.9000
" />
<path d="M69.9050 109.5400
L69.9050 111.4400
" />
<path d="M69.9050 111.4400
L73.6050 111.4400
" />
<path d="M73.6050 109.5400
L69.9050 109.5400
" />
<path d="M73.6050 111.4400
L73.6050 109.5400
" />
<path d="M69.9050 89.2200
L69.9050 91.1200
" />
<path d="M69.9050 91.1200
L73.6050 91.1200
" />
<path d="M73.6050 89.2200
L69.9050 89.2200
" />
<path d="M73.6050 91.1200
L73.6050 89.2200
" />
<path d="M73.6050 131.7600
L73.6050 129.8600
" />
<path d="M73.6050 129.8600
L69.9050 129.8600
" />
<path d="M69.9050 131.7600
L73.6050 131.7600
" />
<path d="M69.9050 129.8600
L69.9050 131.7600
" />
<path d="M58.4980 65.9280
L58.4980 62.0880
" />
<path d="M61.8980 65.9280
L58.4980 65.9280
" />
<path d="M58.4980 62.0880
L61.8980 62.0880
" />
<path d="M61.8980 62.0880
L61.8980 65.9280
" />
<path d="M78.2650 76.3100
L78.2650 83.7100
" />
<path d="M72.8650 76.3100
L78.2650 76.3100
" />
<path d="M78.2650 83.7100
L72.8650 83.7100
" />
<path d="M72.8650 83.7100
L72.8650 76.3100
" />
<path d="M78.2650 96.6300
L78.2650 104.0300
" />
<path d="M72.8650 96.6300
L78.2650 96.6300
" />
<path d="M78.2650 104.0300
L72.8650 104.0300
" />
<path d="M72.8650 104.0300
L72.8650 96.6300
" />
<path d="M78.2650 116.9500
L78.2650 124.3500
" />
<path d="M72.8650 116.9500
L78.2650 116.9500
" />
<path d="M78.2650 124.3500
L72.8650 124.3500
" />
<path d="M72.8650 124.3500
L72.8650 116.9500
" />
<path d="M78.2650 136.5700
L78.2650 143.9700
" />
<path d="M72.8650 136.5700
L78.2650 136.5700
" />
<path d="M78.2650 143.9700
L72.8650 143.9700
" />
<path d="M72.8650 143.9700
L72.8650 136.5700
" />
<path d="M82.6600 144.6200
L90.0600 144.6200
" />
<path d="M82.6600 150.0200
L82.6600 144.6200
" />
<path d="M90.0600 144.6200
L90.0600 150.0200
" />
<path d="M90.0600 150.0200
L82.6600 150.0200
" />
<path d="M59.1650 145.5090
L66.5650 145.5090
" />
<path d="M59.1650 150.9090
L59.1650 145.5090
" />
<path d="M66.5650 145.5090
L66.5650 150.9090
" />
<path d="M66.5650 150.9090
L59.1650 150.9090
" />
<path d="M71.0950 154.1420
L71.0950 152.1820
" />
<path d="M71.0950 152.1820
L67.3350 152.1820
" />
<path d="M67.3350 154.1420
L71.0950 154.1420
" />
<path d="M67.3350 152.1820
L67.3350 154.1420
" />
<g >
</g>
<g >
</g>
<g >
</g>
<g >
</g>
<g >
</g>
<g >
</g>
<g >
</g>
<g >
</g>
<g >
</g>
<g >
</g>
<g >
</g>
<g >
</g>
<g >
</g>
<g >
</g>
<g >
</g>
<g >
</g>
<g >
</g>
<g >
</g>
<g >
</g>
<g >
</g>
<g >
</g>
<g >
</g>
<g >
</g>
<g >
</g>
<g >
</g>
<g >
</g>
<g >
</g>
<g >
</g>
<g >
</g>
<g >
</g>
<g >
</g>
<g >
</g>
<g >
</g>
<g >
</g>
<g >
</g>
<g >
</g>
<g >
</g>
<g >
</g>
<g >
</g>
<g >
</g>
<g >
</g>
<g >
</g>
<g >
</g>
<g >
</g>
<g >
</g>
<g >
</g>
<g >
</g>
<g >
</g>
<g >
</g>
<g >
</g>
<g >
</g>
<g >
</g>
<g >
</g>
<g >
</g>
<g >
</g>
<g >
</g>
<g >
</g>
<g >
</g>
<g >
</g>
<g >
</g>
<g >
</g>
<g >
</g>
<g >
</g>
<g >
</g>
<g >
</g>
<g >
</g>
<g >
</g>
<g >
</g>
<g >
</g>
<g >
</g>
<g >
</g>
<g >
</g>
<g >
</g>
<g >
</g>
<g >
</g>
<g >
</g>
<g >
</g>
<g >
</g>
<g >
</g>
<g >
</g>
<g >
</g>
<g >
</g>
</g> 
</svg>
